<svg xmlns="http://www.w3.org/2000/svg" width="2560" height="1440" fill="#fff"><circle cx="52" cy="11" r="5"/><circle cx="109" cy="76" r="5"/><circle cx="207" cy="48" r="5"/><circle cx="273" cy="25" r="4"/><circle cx="380" cy="31" r="6"/><circle cx="456" cy="35" r="5"/><circle cx="552" cy="79" r="5"/><circle cx="606" cy="39" r="4"/><circle cx="683" cy="8" r="4"/><circle cx="787" cy="4" r="4"/><circle cx="787" cy="1444" r="4"/><circle cx="816" cy="2" r="6"/><circle cx="816" cy="1442" r="6"/><circle cx="885" cy="73" r="4"/><circle cx="968" cy="5" r="5"/><circle cx="1083" cy="41" r="5"/><circle cx="1151" cy="26" r="4"/><circle cx="1206" cy="37" r="4"/><circle cx="1311" cy="62" r="5"/><circle cx="1368" cy="54" r="4"/><circle cx="1510" cy="34" r="5"/><circle cx="1532" cy="2" r="5"/><circle cx="1532" cy="1442" r="5"/><circle cx="1655" cy="39" r="4"/><circle cx="1755" cy="72" r="5"/><circle cx="1774" cy="46" r="5"/><circle cx="1918" cy="25" r="5"/><circle cx="1951" cy="37" r="5"/><circle cx="2024" cy="48" r="6"/><circle cx="2111" cy="49" r="4"/><circle cx="2199" cy="8" r="4"/><circle cx="2276" cy="1" r="6"/><circle cx="2276" cy="1441" r="6"/><circle cx="2320" cy="74" r="5"/><circle cx="2411" cy="64" r="5"/><circle cx="2543" cy="46" r="5"/><circle cx="5" cy="107" r="4"/><circle cx="85" cy="154" r="5"/><circle cx="187" cy="91" r="5"/><circle cx="284" cy="117" r="5"/><circle cx="323" cy="140" r="4"/><circle cx="437" cy="100" r="5"/><circle cx="550" cy="109" r="5"/><circle cx="623" cy="141" r="6"/><circle cx="702" cy="83" r="6"/><circle cx="770" cy="102" r="5"/><circle cx="836" cy="134" r="6"/><circle cx="936" cy="143" r="5"/><circle cx="993" cy="96" r="4"/><circle cx="1051" cy="154" r="5"/><circle cx="1177" cy="125" r="5"/><circle cx="1270" cy="154" r="5"/><circle cx="1281" cy="101" r="6"/><circle cx="1402" cy="145" r="5"/><circle cx="1450" cy="144" r="4"/><circle cx="1550" cy="138" r="5"/><circle cx="1622" cy="101" r="4"/><circle cx="1742" cy="124" r="6"/><circle cx="1803" cy="108" r="5"/><circle cx="1891" cy="88" r="5"/><circle cx="1932" cy="80" r="5"/><circle cx="2074" cy="132" r="5"/><circle cx="2091" cy="144" r="5"/><circle cx="2175" cy="149" r="5"/><circle cx="2309" cy="155" r="5"/><circle cx="2361" cy="123" r="4"/><circle cx="2456" cy="103" r="4"/><circle cx="2508" cy="139" r="5"/><circle cx="41" cy="184" r="6"/><circle cx="147" cy="226" r="6"/><circle cx="173" cy="223" r="5"/><circle cx="281" cy="221" r="4"/><circle cx="329" cy="217" r="5"/><circle cx="471" cy="233" r="6"/><circle cx="545" cy="168" r="6"/><circle cx="571" cy="217" r="5"/><circle cx="655" cy="227" r="5"/><circle cx="747" cy="239" r="4"/><circle cx="836" cy="194" r="5"/><circle cx="952" cy="239" r="5"/><circle cx="986" cy="236" r="5"/><circle cx="1096" cy="215" r="5"/><circle cx="1175" cy="166" r="5"/><circle cx="1261" cy="233" r="6"/><circle cx="1332" cy="218" r="4"/><circle cx="1403" cy="210" r="6"/><circle cx="1476" cy="226" r="6"/><circle cx="1549" cy="175" r="6"/><circle cx="1637" cy="195" r="4"/><circle cx="1707" cy="168" r="5"/><circle cx="1784" cy="181" r="5"/><circle cx="1843" cy="205" r="5"/><circle cx="1960" cy="223" r="5"/><circle cx="2013" cy="233" r="6"/><circle cx="2143" cy="199" r="6"/><circle cx="2194" cy="217" r="5"/><circle cx="2311" cy="212" r="4"/><circle cx="2392" cy="205" r="6"/><circle cx="2438" cy="188" r="6"/><circle cx="2553" cy="163" r="5"/><circle cx="41" cy="268" r="5"/><circle cx="152" cy="313" r="5"/><circle cx="207" cy="253" r="5"/><circle cx="246" cy="276" r="4"/><circle cx="337" cy="300" r="5"/><circle cx="462" cy="241" r="5"/><circle cx="522" cy="277" r="6"/><circle cx="629" cy="275" r="4"/><circle cx="703" cy="302" r="5"/><circle cx="790" cy="249" r="6"/><circle cx="845" cy="246" r="5"/><circle cx="927" cy="302" r="4"/><circle cx="990" cy="269" r="5"/><circle cx="1088" cy="258" r="4"/><circle cx="1128" cy="243" r="5"/><circle cx="1253" cy="289" r="5"/><circle cx="1339" cy="294" r="5"/><circle cx="1388" cy="317" r="6"/><circle cx="1484" cy="311" r="6"/><circle cx="1558" cy="269" r="5"/><circle cx="1672" cy="295" r="5"/><circle cx="1702" cy="265" r="6"/><circle cx="1810" cy="266" r="4"/><circle cx="1887" cy="304" r="6"/><circle cx="1924" cy="270" r="4"/><circle cx="2070" cy="265" r="5"/><circle cx="2148" cy="291" r="5"/><circle cx="2186" cy="256" r="5"/><circle cx="2275" cy="263" r="5"/><circle cx="2339" cy="259" r="5"/><circle cx="2448" cy="271" r="5"/><circle cx="2502" cy="274" r="6"/><circle cx="29" cy="369" r="4"/><circle cx="92" cy="379" r="6"/><circle cx="175" cy="347" r="6"/><circle cx="261" cy="346" r="5"/><circle cx="358" cy="327" r="5"/><circle cx="440" cy="381" r="4"/><circle cx="501" cy="327" r="6"/><circle cx="566" cy="397" r="6"/><circle cx="665" cy="324" r="5"/><circle cx="786" cy="355" r="4"/><circle cx="817" cy="361" r="4"/><circle cx="890" cy="359" r="5"/><circle cx="1001" cy="399" r="6"/><circle cx="1102" cy="350" r="5"/><circle cx="1194" cy="367" r="6"/><circle cx="1245" cy="360" r="5"/><circle cx="1312" cy="321" r="6"/><circle cx="1437" cy="329" r="5"/><circle cx="1479" cy="377" r="5"/><circle cx="1587" cy="363" r="6"/><circle cx="1655" cy="384" r="5"/><circle cx="1755" cy="324" r="4"/><circle cx="1760" cy="359" r="5"/><circle cx="1885" cy="380" r="5"/><circle cx="1939" cy="373" r="6"/><circle cx="2067" cy="342" r="6"/><circle cx="2109" cy="332" r="4"/><circle cx="2192" cy="387" r="4"/><circle cx="2276" cy="380" r="5"/><circle cx="2321" cy="343" r="4"/><circle cx="2426" cy="326" r="5"/><circle cx="2491" cy="361" r="5"/><circle cx="13" cy="407" r="6"/><circle cx="82" cy="438" r="6"/><circle cx="204" cy="416" r="4"/><circle cx="247" cy="451" r="6"/><circle cx="324" cy="474" r="6"/><circle cx="414" cy="407" r="5"/><circle cx="535" cy="464" r="5"/><circle cx="630" cy="433" r="6"/><circle cx="668" cy="454" r="5"/><circle cx="768" cy="450" r="5"/><circle cx="877" cy="424" r="6"/><circle cx="881" cy="430" r="6"/><circle cx="1010" cy="444" r="5"/><circle cx="1102" cy="404" r="6"/><circle cx="1124" cy="459" r="5"/><circle cx="1254" cy="431" r="5"/><circle cx="1310" cy="413" r="5"/><circle cx="1434" cy="465" r="6"/><circle cx="1487" cy="471" r="5"/><circle cx="1562" cy="428" r="6"/><circle cx="1657" cy="464" r="4"/><circle cx="1702" cy="466" r="5"/><circle cx="1810" cy="446" r="6"/><circle cx="1863" cy="401" r="5"/><circle cx="1921" cy="452" r="4"/><circle cx="2015" cy="428" r="6"/><circle cx="2101" cy="418" r="4"/><circle cx="2205" cy="445" r="6"/><circle cx="2263" cy="413" r="5"/><circle cx="2361" cy="449" r="5"/><circle cx="2422" cy="479" r="5"/><circle cx="2541" cy="429" r="5"/><circle cx="58" cy="541" r="5"/><circle cx="109" cy="512" r="5"/><circle cx="225" cy="520" r="6"/><circle cx="278" cy="519" r="5"/><circle cx="354" cy="534" r="5"/><circle cx="455" cy="491" r="6"/><circle cx="546" cy="551" r="5"/><circle cx="613" cy="496" r="5"/><circle cx="653" cy="508" r="5"/><circle cx="750" cy="525" r="4"/><circle cx="852" cy="536" r="5"/><circle cx="942" cy="532" r="5"/><circle cx="1037" cy="501" r="6"/><circle cx="1063" cy="554" r="5"/><circle cx="1135" cy="534" r="5"/><circle cx="1271" cy="485" r="5"/><circle cx="1349" cy="485" r="5"/><circle cx="1419" cy="494" r="5"/><circle cx="1450" cy="483" r="5"/><circle cx="1537" cy="485" r="6"/><circle cx="1663" cy="560" r="4"/><circle cx="1709" cy="507" r="6"/><circle cx="1818" cy="482" r="6"/><circle cx="1868" cy="509" r="5"/><circle cx="1988" cy="532" r="6"/><circle cx="2072" cy="497" r="6"/><circle cx="2113" cy="532" r="4"/><circle cx="2164" cy="532" r="4"/><circle cx="2310" cy="486" r="6"/><circle cx="2322" cy="502" r="5"/><circle cx="2414" cy="525" r="5"/><circle cx="2502" cy="539" r="4"/><circle cx="76" cy="575" r="6"/><circle cx="117" cy="569" r="4"/><circle cx="180" cy="635" r="4"/><circle cx="272" cy="565" r="6"/><circle cx="351" cy="598" r="4"/><circle cx="455" cy="615" r="5"/><circle cx="558" cy="570" r="4"/><circle cx="590" cy="599" r="5"/><circle cx="665" cy="583" r="5"/><circle cx="746" cy="609" r="5"/><circle cx="868" cy="599" r="4"/><circle cx="932" cy="622" r="4"/><circle cx="1034" cy="627" r="4"/><circle cx="1096" cy="613" r="5"/><circle cx="1169" cy="636" r="5"/><circle cx="1263" cy="628" r="5"/><circle cx="1307" cy="593" r="6"/><circle cx="1411" cy="584" r="5"/><circle cx="1500" cy="604" r="5"/><circle cx="1591" cy="614" r="5"/><circle cx="1653" cy="593" r="5"/><circle cx="1706" cy="593" r="4"/><circle cx="1780" cy="599" r="4"/><circle cx="1894" cy="562" r="6"/><circle cx="1992" cy="592" r="6"/><circle cx="2046" cy="594" r="5"/><circle cx="2130" cy="602" r="5"/><circle cx="2209" cy="576" r="5"/><circle cx="2275" cy="623" r="5"/><circle cx="2336" cy="612" r="4"/><circle cx="2436" cy="601" r="4"/><circle cx="2523" cy="592" r="5"/><circle cx="31" cy="657" r="5"/><circle cx="107" cy="650" r="5"/><circle cx="229" cy="643" r="6"/><circle cx="254" cy="656" r="5"/><circle cx="375" cy="660" r="4"/><circle cx="458" cy="673" r="4"/><circle cx="489" cy="659" r="4"/><circle cx="624" cy="672" r="5"/><circle cx="645" cy="698" r="6"/><circle cx="776" cy="666" r="5"/><circle cx="806" cy="702" r="5"/><circle cx="935" cy="644" r="5"/><circle cx="962" cy="641" r="5"/><circle cx="1097" cy="691" r="6"/><circle cx="1159" cy="673" r="6"/><circle cx="1245" cy="683" r="6"/><circle cx="1320" cy="681" r="4"/><circle cx="1401" cy="713" r="6"/><circle cx="1514" cy="656" r="5"/><circle cx="1521" cy="656" r="6"/><circle cx="1657" cy="693" r="6"/><circle cx="1682" cy="653" r="5"/><circle cx="1767" cy="676" r="6"/><circle cx="1876" cy="695" r="5"/><circle cx="1995" cy="662" r="6"/><circle cx="2054" cy="693" r="5"/><circle cx="2106" cy="676" r="5"/><circle cx="2237" cy="676" r="6"/><circle cx="2260" cy="646" r="4"/><circle cx="2372" cy="689" r="5"/><circle cx="2467" cy="691" r="5"/><circle cx="2515" cy="687" r="5"/><circle cx="58" cy="795" r="5"/><circle cx="118" cy="746" r="6"/><circle cx="178" cy="752" r="5"/><circle cx="258" cy="787" r="5"/><circle cx="323" cy="769" r="6"/><circle cx="403" cy="749" r="4"/><circle cx="552" cy="774" r="4"/><circle cx="580" cy="727" r="4"/><circle cx="710" cy="791" r="5"/><circle cx="763" cy="769" r="6"/><circle cx="821" cy="740" r="5"/><circle cx="936" cy="774" r="4"/><circle cx="1004" cy="794" r="4"/><circle cx="1044" cy="750" r="4"/><circle cx="1129" cy="788" r="6"/><circle cx="1225" cy="746" r="6"/><circle cx="1332" cy="772" r="4"/><circle cx="1432" cy="787" r="5"/><circle cx="1485" cy="788" r="4"/><circle cx="1584" cy="778" r="4"/><circle cx="1631" cy="792" r="4"/><circle cx="1688" cy="775" r="6"/><circle cx="1836" cy="741" r="6"/><circle cx="1898" cy="779" r="6"/><circle cx="1967" cy="756" r="5"/><circle cx="2076" cy="725" r="4"/><circle cx="2137" cy="781" r="4"/><circle cx="2228" cy="787" r="5"/><circle cx="2273" cy="786" r="5"/><circle cx="2373" cy="750" r="5"/><circle cx="2479" cy="796" r="5"/><circle cx="2520" cy="767" r="5"/><circle cx="2" cy="802" r="5"/><circle cx="2562" cy="802" r="5"/><circle cx="81" cy="876" r="6"/><circle cx="189" cy="802" r="5"/><circle cx="241" cy="811" r="6"/><circle cx="395" cy="835" r="5"/><circle cx="409" cy="860" r="6"/><circle cx="521" cy="838" r="5"/><circle cx="628" cy="816" r="5"/><circle cx="717" cy="833" r="5"/><circle cx="783" cy="864" r="5"/><circle cx="827" cy="876" r="5"/><circle cx="915" cy="833" r="5"/><circle cx="1018" cy="874" r="5"/><circle cx="1104" cy="856" r="6"/><circle cx="1143" cy="827" r="6"/><circle cx="1206" cy="801" r="5"/><circle cx="1345" cy="834" r="5"/><circle cx="1433" cy="806" r="5"/><circle cx="1512" cy="819" r="6"/><circle cx="1523" cy="810" r="4"/><circle cx="1655" cy="868" r="5"/><circle cx="1733" cy="834" r="6"/><circle cx="1777" cy="875" r="5"/><circle cx="1911" cy="877" r="4"/><circle cx="1929" cy="812" r="5"/><circle cx="2041" cy="856" r="5"/><circle cx="2118" cy="807" r="5"/><circle cx="2220" cy="840" r="4"/><circle cx="2293" cy="804" r="5"/><circle cx="2368" cy="821" r="6"/><circle cx="2408" cy="833" r="4"/><circle cx="2519" cy="838" r="5"/><circle cx="46" cy="904" r="4"/><circle cx="100" cy="887" r="5"/><circle cx="167" cy="960" r="4"/><circle cx="319" cy="936" r="4"/><circle cx="386" cy="917" r="6"/><circle cx="427" cy="919" r="5"/><circle cx="541" cy="895" r="5"/><circle cx="629" cy="909" r="6"/><circle cx="641" cy="927" r="5"/><circle cx="752" cy="936" r="4"/><circle cx="855" cy="887" r="5"/><circle cx="906" cy="921" r="5"/><circle cx="1001" cy="932" r="6"/><circle cx="1116" cy="892" r="4"/><circle cx="1159" cy="896" r="5"/><circle cx="1204" cy="951" r="4"/><circle cx="1346" cy="934" r="5"/><circle cx="1370" cy="893" r="5"/><circle cx="1465" cy="924" r="4"/><circle cx="1526" cy="920" r="4"/><circle cx="1672" cy="893" r="6"/><circle cx="1702" cy="943" r="6"/><circle cx="1765" cy="886" r="5"/><circle cx="1920" cy="945" r="6"/><circle cx="1995" cy="937" r="5"/><circle cx="2007" cy="937" r="5"/><circle cx="2153" cy="935" r="5"/><circle cx="2195" cy="908" r="5"/><circle cx="2244" cy="954" r="4"/><circle cx="2335" cy="952" r="5"/><circle cx="2474" cy="935" r="6"/><circle cx="2534" cy="898" r="4"/><circle cx="18" cy="1004" r="5"/><circle cx="125" cy="995" r="5"/><circle cx="215" cy="983" r="5"/><circle cx="256" cy="992" r="5"/><circle cx="397" cy="975" r="5"/><circle cx="466" cy="967" r="4"/><circle cx="497" cy="1006" r="6"/><circle cx="584" cy="967" r="4"/><circle cx="656" cy="967" r="4"/><circle cx="767" cy="967" r="4"/><circle cx="804" cy="1039" r="6"/><circle cx="887" cy="991" r="5"/><circle cx="972" cy="969" r="5"/><circle cx="1091" cy="1012" r="4"/><circle cx="1137" cy="992" r="5"/><circle cx="1217" cy="965" r="4"/><circle cx="1318" cy="996" r="4"/><circle cx="1408" cy="964" r="5"/><circle cx="1489" cy="1017" r="6"/><circle cx="1580" cy="1023" r="5"/><circle cx="1617" cy="964" r="5"/><circle cx="1730" cy="1036" r="5"/><circle cx="1826" cy="1021" r="4"/><circle cx="1859" cy="1008" r="4"/><circle cx="1992" cy="1014" r="5"/><circle cx="2065" cy="984" r="5"/><circle cx="2112" cy="964" r="6"/><circle cx="2206" cy="1001" r="5"/><circle cx="2270" cy="972" r="6"/><circle cx="2334" cy="966" r="6"/><circle cx="2411" cy="998" r="6"/><circle cx="2527" cy="1017" r="5"/><circle cx="6" cy="1058" r="6"/><circle cx="108" cy="1072" r="5"/><circle cx="226" cy="1053" r="5"/><circle cx="272" cy="1088" r="4"/><circle cx="384" cy="1112" r="4"/><circle cx="401" cy="1070" r="5"/><circle cx="525" cy="1056" r="5"/><circle cx="580" cy="1046" r="5"/><circle cx="647" cy="1061" r="5"/><circle cx="737" cy="1096" r="6"/><circle cx="822" cy="1061" r="5"/><circle cx="898" cy="1040" r="4"/><circle cx="1002" cy="1075" r="5"/><circle cx="1113" cy="1096" r="6"/><circle cx="1148" cy="1074" r="5"/><circle cx="1276" cy="1103" r="6"/><circle cx="1290" cy="1078" r="5"/><circle cx="1419" cy="1096" r="6"/><circle cx="1473" cy="1119" r="5"/><circle cx="1537" cy="1071" r="4"/><circle cx="1646" cy="1045" r="4"/><circle cx="1694" cy="1099" r="5"/><circle cx="1815" cy="1054" r="5"/><circle cx="1881" cy="1080" r="4"/><circle cx="1989" cy="1106" r="5"/><circle cx="2051" cy="1077" r="5"/><circle cx="2150" cy="1116" r="4"/><circle cx="2192" cy="1106" r="5"/><circle cx="2254" cy="1110" r="6"/><circle cx="2347" cy="1090" r="6"/><circle cx="2407" cy="1103" r="6"/><circle cx="2522" cy="1087" r="6"/><circle cx="20" cy="1164" r="5"/><circle cx="158" cy="1174" r="5"/><circle cx="190" cy="1128" r="5"/><circle cx="274" cy="1175" r="5"/><circle cx="339" cy="1152" r="5"/><circle cx="461" cy="1132" r="6"/><circle cx="525" cy="1195" r="4"/><circle cx="602" cy="1182" r="4"/><circle cx="705" cy="1128" r="6"/><circle cx="768" cy="1163" r="5"/><circle cx="813" cy="1178" r="5"/><circle cx="908" cy="1199" r="6"/><circle cx="995" cy="1185" r="6"/><circle cx="1075" cy="1178" r="5"/><circle cx="1156" cy="1169" r="4"/><circle cx="1213" cy="1140" r="4"/><circle cx="1322" cy="1186" r="6"/><circle cx="1437" cy="1170" r="6"/><circle cx="1463" cy="1168" r="4"/><circle cx="1528" cy="1129" r="5"/><circle cx="1662" cy="1187" r="5"/><circle cx="1736" cy="1177" r="6"/><circle cx="1778" cy="1170" r="6"/><circle cx="1842" cy="1192" r="5"/><circle cx="1979" cy="1165" r="4"/><circle cx="2014" cy="1187" r="4"/><circle cx="2097" cy="1199" r="5"/><circle cx="2197" cy="1194" r="4"/><circle cx="2307" cy="1194" r="5"/><circle cx="2337" cy="1165" r="5"/><circle cx="2441" cy="1170" r="6"/><circle cx="2512" cy="1134" r="5"/><circle cx="58" cy="1209" r="5"/><circle cx="92" cy="1272" r="4"/><circle cx="203" cy="1251" r="4"/><circle cx="267" cy="1268" r="4"/><circle cx="383" cy="1270" r="5"/><circle cx="425" cy="1237" r="5"/><circle cx="497" cy="1276" r="5"/><circle cx="593" cy="1220" r="4"/><circle cx="707" cy="1204" r="4"/><circle cx="770" cy="1269" r="5"/><circle cx="830" cy="1215" r="4"/><circle cx="884" cy="1203" r="4"/><circle cx="1016" cy="1236" r="4"/><circle cx="1071" cy="1201" r="4"/><circle cx="1149" cy="1212" r="4"/><circle cx="1204" cy="1229" r="4"/><circle cx="1330" cy="1274" r="5"/><circle cx="1421" cy="1255" r="4"/><circle cx="1515" cy="1207" r="5"/><circle cx="1542" cy="1268" r="6"/><circle cx="1660" cy="1235" r="5"/><circle cx="1747" cy="1270" r="5"/><circle cx="1769" cy="1225" r="6"/><circle cx="1871" cy="1256" r="5"/><circle cx="1941" cy="1258" r="5"/><circle cx="2040" cy="1217" r="4"/><circle cx="2087" cy="1235" r="5"/><circle cx="2233" cy="1252" r="4"/><circle cx="2256" cy="1206" r="5"/><circle cx="2345" cy="1218" r="6"/><circle cx="2429" cy="1260" r="6"/><circle cx="2521" cy="1220" r="5"/><circle cx="12" cy="1293" r="5"/><circle cx="117" cy="1315" r="5"/><circle cx="232" cy="1290" r="5"/><circle cx="288" cy="1291" r="6"/><circle cx="399" cy="1306" r="4"/><circle cx="444" cy="1289" r="5"/><circle cx="510" cy="1311" r="4"/><circle cx="636" cy="1292" r="6"/><circle cx="705" cy="1341" r="6"/><circle cx="776" cy="1284" r="5"/><circle cx="859" cy="1354" r="4"/><circle cx="945" cy="1294" r="4"/><circle cx="976" cy="1285" r="6"/><circle cx="1078" cy="1308" r="5"/><circle cx="1151" cy="1308" r="4"/><circle cx="1222" cy="1288" r="5"/><circle cx="1351" cy="1347" r="5"/><circle cx="1389" cy="1316" r="5"/><circle cx="1475" cy="1283" r="4"/><circle cx="1525" cy="1347" r="4"/><circle cx="1602" cy="1308" r="5"/><circle cx="1714" cy="1335" r="5"/><circle cx="1775" cy="1289" r="5"/><circle cx="1903" cy="1308" r="5"/><circle cx="1939" cy="1351" r="5"/><circle cx="2015" cy="1317" r="6"/><circle cx="2088" cy="1353" r="5"/><circle cx="2176" cy="1357" r="4"/><circle cx="2265" cy="1299" r="5"/><circle cx="2367" cy="1321" r="4"/><circle cx="2409" cy="1310" r="6"/><circle cx="2512" cy="1304" r="5"/><circle cx="71" cy="1438" r="6"/><circle cx="71" cy="-2" r="6"/><circle cx="88" cy="1385" r="6"/><circle cx="163" cy="1420" r="5"/><circle cx="303" cy="1417" r="6"/><circle cx="363" cy="1383" r="6"/><circle cx="474" cy="1416" r="5"/><circle cx="511" cy="1396" r="6"/><circle cx="572" cy="1391" r="4"/><circle cx="664" cy="1384" r="5"/><circle cx="793" cy="1362" r="4"/><circle cx="804" cy="1361" r="4"/><circle cx="955" cy="1418" r="6"/><circle cx="1011" cy="1361" r="6"/><circle cx="1070" cy="1371" r="6"/><circle cx="1121" cy="1369" r="4"/><circle cx="1207" cy="1368" r="6"/><circle cx="1339" cy="1383" r="4"/><circle cx="1361" cy="1427" r="4"/><circle cx="1475" cy="1399" r="6"/><circle cx="1530" cy="1393" r="6"/><circle cx="1620" cy="1431" r="4"/><circle cx="1718" cy="1406" r="6"/><circle cx="1822" cy="1412" r="5"/><circle cx="1856" cy="1409" r="4"/><circle cx="1985" cy="1366" r="4"/><circle cx="2069" cy="1437" r="6"/><circle cx="2069" cy="-3" r="6"/><circle cx="2141" cy="1397" r="5"/><circle cx="2220" cy="1360" r="5"/><circle cx="2248" cy="1378" r="5"/><circle cx="2326" cy="1383" r="5"/><circle cx="2449" cy="1407" r="5"/><circle cx="2497" cy="1367" r="5"/><path stroke="#fff" d="M52 11L109 76M52 11L-17 46M52 11L71 -2M52 11L88 -55M2612 11L2543 46M52 1451L71 1438M52 1451L88 1385M109 76L207 48M109 76L85 154M109 76L187 91M109 76L71 -2M109 1516L71 1438M207 48L273 25M207 48L187 91M207 48L284 117M207 48L163 -20M207 1488L163 1420M273 25L187 91M273 25L284 117M273 25L303 -23M273 1465L303 1417M380 31L456 35M380 31L437 100M380 31L303 -23M380 31L363 -57M380 31L474 -24M380 1471L303 1417M380 1471L363 1383M380 1471L474 1416M456 35L552 79M456 35L437 100M456 35L474 -24M456 35L511 -44M456 1475L474 1416M456 1475L511 1396M552 79L606 39M552 79L550 109M552 79L545 168M606 39L683 8M606 39L550 109M606 39L702 83M683 8L702 83M683 8L664 -56M683 1448L664 1384M787 4L816 2M787 4L702 83M787 4L770 102M787 4L804 -79M787 1444L804 1361M816 2L885 73M816 2L770 102M816 2L793 -78M816 2L804 -79M816 1442L793 1362M816 1442L804 1361M885 73L968 5M885 73L836 134M885 73L936 143M885 73L955 -22M885 1513L955 1418M968 5L993 96M968 5L955 -22M968 5L1011 -79M968 1445L955 1418M968 1445L1011 1361M1083 41L1151 26M1083 41L993 96M1083 41L1070 -69M1083 1481L1070 1371M1151 26L1206 37M1151 26L1177 125M1151 26L1121 -71M1151 26L1207 -72M1151 1466L1121 1369M1151 1466L1207 1368M1206 37L1311 62M1206 37L1177 125M1206 37L1281 101M1206 37L1207 -72M1206 1477L1207 1368M1311 62L1368 54M1311 62L1281 101M1311 62L1361 -13M1311 1502L1361 1427M1368 54L1281 101M1368 54L1402 145M1368 54L1361 -13M1368 1494L1361 1427M1510 34L1532 2M1510 34L1550 138M1510 34L1475 -41M1510 34L1530 -47M1510 34L1620 -9M1510 1474L1475 1399M1510 1474L1530 1393M1510 1474L1620 1431M1532 2L1475 -41M1532 2L1530 -47M1532 2L1620 -9M1532 1442L1475 1399M1532 1442L1530 1393M1532 1442L1620 1431M1655 39L1622 101M1655 39L1620 -9M1655 39L1718 -34M1655 1479L1620 1431M1655 1479L1718 1406M1755 72L1774 46M1755 72L1742 124M1755 72L1803 108M1755 72L1707 168M1774 46L1742 124M1774 46L1803 108M1774 46L1718 -34M1774 46L1822 -28M1774 1486L1718 1406M1774 1486L1822 1412M1918 25L1951 37M1918 25L1891 88M1918 25L1932 80M1918 25L1856 -31M1918 1465L1856 1409M1951 37L2024 48M1951 37L1891 88M1951 37L1932 80M2024 48L2111 49M2024 48L1932 80M2024 48L2074 132M2024 48L2069 -3M2024 1488L2069 1437M2111 49L2074 132M2111 49L2091 144M2111 49L2069 -3M2111 1489L2069 1437M2199 8L2276 1M2199 8L2176 -83M2199 8L2141 -43M2199 1448L2176 1357M2199 1448L2141 1397M2276 1L2320 74M2276 1L2220 -80M2276 1L2248 -62M2276 1L2326 -57M2276 1441L2220 1360M2276 1441L2248 1378M2276 1441L2326 1383M2320 74L2411 64M2320 74L2309 155M2320 74L2361 123M2411 64L2361 123M2411 64L2456 103M2411 64L2449 -33M2411 1504L2449 1407M2543 46L2565 107M2543 46L2456 103M2543 46L2508 139M2543 46L2631 -2M-17 46L5 107M-17 46L71 -2M-17 1486L71 1438M2543 1486L2631 1438M5 107L85 154M5 107L-52 139M5 107L41 184M5 107L-7 163M2565 107L2508 139M2565 107L2553 163M85 154L41 184M85 154L147 226M85 154L-7 163M2645 154L2553 163M187 91L284 117M187 91L163 -20M187 1531L163 1420M284 117L323 140M323 140L281 221M323 140L329 217M550 109L623 141M550 109L545 168M623 141L702 83M623 141L545 168M623 141L571 217M623 141L655 227M702 83L770 102M770 102L836 134M770 102L836 194M836 134L936 143M836 134L836 194M836 134L845 246M936 143L993 96M936 143L952 239M936 143L986 236M993 96L1051 154M1051 154L986 236M1051 154L1096 215M1051 154L1088 258M1051 154L1128 243M1177 125L1270 154M1177 125L1281 101M1177 125L1175 166M1270 154L1281 101M1270 154L1175 166M1270 154L1261 233M1270 154L1332 218M1402 145L1450 144M1402 145L1403 210M1450 144L1550 138M1450 144L1403 210M1450 144L1476 226M1550 138L1622 101M1550 138L1549 175M1622 101L1549 175M1622 101L1637 195M1742 124L1803 108M1742 124L1707 168M1742 124L1784 181M1803 108L1891 88M1803 108L1784 181M1891 88L1932 80M2074 132L2091 144M2074 132L2175 149M2091 144L2175 149M2091 144L2013 233M2091 144L2143 199M2175 149L2143 199M2175 149L2194 217M2175 149L2186 256M2309 155L2361 123M2309 155L2311 212M2361 123L2392 205M2456 103L2508 139M2456 103L2438 188M2508 139L2438 188M2508 139L2553 163M41 184L147 226M41 184L-7 163M41 184L41 268M2601 184L2553 163M147 226L173 223M147 226L152 313M147 226L207 253M173 223L152 313M173 223L207 253M173 223L246 276M281 221L329 217M281 221L207 253M281 221L246 276M281 221L337 300M329 217L337 300M329 217L358 327M471 233L545 168M471 233L462 241M471 233L522 277M471 233L501 327M545 168L571 217M571 217L655 227M571 217L522 277M571 217L629 275M655 227L629 275M655 227L703 302M655 227L665 324M747 239L836 194M747 239L703 302M747 239L790 249M747 239L845 246M836 194L790 249M836 194L845 246M952 239L986 236M952 239L927 302M952 239L990 269M986 236L927 302M986 236L990 269M1096 215L1175 166M1096 215L990 269M1096 215L1088 258M1096 215L1128 243M1175 166L1128 243M1261 233L1332 218M1261 233L1253 289M1261 233L1339 294M1332 218L1403 210M1332 218L1339 294M1403 210L1476 226M1403 210L1388 317M1476 226L1549 175M1476 226L1484 311M1476 226L1558 269M1549 175L1637 195M1549 175L1558 269M1637 195L1707 168M1637 195L1702 265M1707 168L1784 181M1707 168L1702 265M1784 181L1843 205M1784 181L1810 266M1843 205L1960 223M1843 205L1810 266M1843 205L1924 270M1960 223L2013 233M1960 223L1924 270M1960 223L2070 265M2013 233L1924 270M2013 233L2070 265M2013 233L2067 342M2143 199L2194 217M2143 199L2148 291M2143 199L2186 256M2194 217L2148 291M2194 217L2186 256M2194 217L2275 263M2311 212L2392 205M2311 212L2275 263M2311 212L2339 259M2392 205L2438 188M2392 205L2339 259M2392 205L2448 271M2438 188L2448 271M2438 188L2502 274M41 268L-58 274M2601 268L2502 274M152 313L207 253M152 313L92 379M152 313L175 347M207 253L246 276M246 276L175 347M246 276L261 346M337 300L261 346M337 300L358 327M462 241L522 277M462 241L501 327M522 277L629 275M522 277L501 327M629 275L703 302M629 275L665 324M703 302L790 249M703 302L665 324M790 249L845 246M790 249L786 355M845 246L927 302M927 302L990 269M927 302L890 359M990 269L1088 258M1088 258L1128 243M1088 258L1102 350M1128 243L1102 350M1253 289L1339 294M1253 289L1194 367M1253 289L1245 360M1253 289L1312 321M1339 294L1388 317M1339 294L1312 321M1388 317L1484 311M1388 317L1312 321M1388 317L1437 329M1484 311L1558 269M1484 311L1437 329M1484 311L1479 377M1558 269L1587 363M1672 295L1702 265M1672 295L1587 363M1672 295L1655 384M1672 295L1755 324M1672 295L1760 359M1702 265L1755 324M1702 265L1760 359M1810 266L1887 304M1810 266L1755 324M1887 304L1924 270M1887 304L1885 380M1887 304L1939 373M2070 265L2148 291M2070 265L2067 342M2070 265L2109 332M2148 291L2186 256M2148 291L2109 332M2186 256L2275 263M2275 263L2339 259M2275 263L2321 343M2339 259L2321 343M2448 271L2502 274M2448 271L2426 326M2448 271L2491 361M2502 274L2426 326M2502 274L2491 361M29 369L92 379M29 369L13 407M29 369L82 438M29 369L-19 429M2589 369L2541 429M92 379L175 347M92 379L13 407M92 379L82 438M175 347L261 346M175 347L204 416M261 346L358 327M261 346L204 416M358 327L440 381M358 327L414 407M440 381L501 327M440 381L414 407M440 381L455 491M501 327L566 397M566 397L535 464M566 397L630 433M566 397L668 454M786 355L817 361M786 355L768 450M817 361L890 359M817 361L877 424M817 361L881 430M890 359L877 424M890 359L881 430M1001 399L1102 350M1001 399L1010 444M1001 399L1102 404M1001 399L1037 501M1102 350L1194 367M1102 350L1102 404M1194 367L1245 360M1194 367L1102 404M1194 367L1254 431M1245 360L1312 321M1245 360L1254 431M1245 360L1310 413M1312 321L1310 413M1437 329L1479 377M1479 377L1434 465M1479 377L1562 428M1587 363L1655 384M1587 363L1562 428M1587 363L1537 485M1655 384L1562 428M1655 384L1657 464M1655 384L1702 466M1755 324L1760 359M1760 359L1810 446M1885 380L1939 373M1885 380L1810 446M1885 380L1863 401M1885 380L1921 452M1939 373L1863 401M1939 373L1921 452M1939 373L2015 428M2067 342L2109 332M2067 342L2015 428M2067 342L2101 418M2109 332L2192 387M2109 332L2101 418M2192 387L2276 380M2192 387L2205 445M2192 387L2263 413M2276 380L2321 343M2276 380L2205 445M2276 380L2263 413M2276 380L2310 486M2321 343L2426 326M2321 343L2263 413M2426 326L2491 361M2491 361L2573 407M2491 361L2541 429M-69 361L13 407M13 407L82 438M13 407L-19 429M2573 407L2541 429M82 438L-19 429M82 438L109 512M2642 438L2541 429M204 416L247 451M247 451L324 474M247 451L225 520M247 451L278 519M324 474L225 520M324 474L278 519M324 474L354 534M414 407L455 491M535 464L630 433M535 464L455 491M535 464L546 551M535 464L613 496M630 433L668 454M630 433L613 496M630 433L653 508M668 454L768 450M668 454L613 496M668 454L653 508M768 450L877 424M768 450L881 430M768 450L750 525M877 424L881 430M877 424L852 536M881 430L852 536M1010 444L1102 404M1010 444L942 532M1010 444L1037 501M1010 444L1063 554M1102 404L1124 459M1124 459L1037 501M1124 459L1135 534M1254 431L1310 413M1254 431L1271 485M1310 413L1271 485M1310 413L1349 485M1434 465L1487 471M1434 465L1349 485M1434 465L1419 494M1434 465L1450 483M1487 471L1562 428M1487 471L1419 494M1487 471L1450 483M1487 471L1537 485M1562 428L1537 485M1657 464L1702 466M1657 464L1709 507M1702 466L1709 507M1702 466L1818 482M1810 446L1863 401M1810 446L1818 482M1810 446L1868 509M1863 401L1921 452M1863 401L1818 482M1921 452L1868 509M2015 428L2101 418M2015 428L1988 532M2015 428L2072 497M2101 418L2072 497M2205 445L2263 413M2205 445L2164 532M2205 445L2310 486M2263 413L2310 486M2361 449L2422 479M2361 449L2310 486M2361 449L2322 502M2361 449L2414 525M2422 479L2322 502M2422 479L2414 525M2422 479L2502 539M2541 429L2502 539M58 541L109 512M58 541L76 575M58 541L117 569M58 541L-37 592M2618 541L2523 592M109 512L76 575M109 512L117 569M225 520L278 519M225 520L272 565M225 520L229 643M278 519L354 534M278 519L272 565M354 534L455 491M354 534L272 565M354 534L351 598M455 491L546 551M546 551L613 496M546 551L558 570M546 551L590 599M613 496L653 508M653 508L750 525M653 508L665 583M750 525L852 536M750 525L746 609M852 536L942 532M852 536L868 599M942 532L868 599M942 532L932 622M1037 501L1063 554M1037 501L1135 534M1063 554L1135 534M1063 554L1034 627M1063 554L1096 613M1271 485L1349 485M1271 485L1307 593M1349 485L1419 494M1349 485L1450 483M1419 494L1450 483M1419 494L1411 584M1450 483L1537 485M1537 485L1500 604M1663 560L1709 507M1663 560L1653 593M1663 560L1706 593M1663 560L1682 653M1709 507L1653 593M1709 507L1706 593M1818 482L1868 509M1818 482L1894 562M1868 509L1894 562M1988 532L2072 497M1988 532L1894 562M1988 532L1992 592M1988 532L2046 594M2072 497L2113 532M2072 497L2046 594M2113 532L2164 532M2113 532L2130 602M2164 532L2130 602M2164 532L2209 576M2310 486L2322 502M2322 502L2414 525M2414 525L2502 539M2414 525L2436 601M2502 539L2436 601M2502 539L2523 592M76 575L117 569M76 575L31 657M76 575L107 650M117 569L180 635M117 569L107 650M180 635L107 650M180 635L229 643M180 635L254 656M272 565L351 598M272 565L229 643M351 598L455 615M351 598L375 660M455 615L558 570M455 615L375 660M455 615L458 673M455 615L489 659M558 570L590 599M558 570L624 672M590 599L665 583M590 599L624 672M590 599L645 698M665 583L746 609M665 583L624 672M665 583L645 698M746 609L776 666M746 609L806 702M868 599L932 622M868 599L935 644M868 599L962 641M932 622L935 644M932 622L962 641M1034 627L1096 613M1034 627L935 644M1034 627L962 641M1034 627L1097 691M1096 613L1169 636M1096 613L1097 691M1096 613L1159 673M1169 636L1263 628M1169 636L1097 691M1169 636L1159 673M1169 636L1245 683M1263 628L1307 593M1263 628L1245 683M1263 628L1320 681M1307 593L1411 584M1307 593L1320 681M1411 584L1500 604M1411 584L1521 656M1500 604L1591 614M1500 604L1514 656M1500 604L1521 656M1591 614L1653 593M1591 614L1514 656M1591 614L1521 656M1591 614L1657 693M1653 593L1706 593M1653 593L1682 653M1706 593L1780 599M1706 593L1682 653M1780 599L1767 676M1894 562L1992 592M1992 592L2046 594M1992 592L1995 662M1992 592L2054 693M2046 594L2130 602M2046 594L1995 662M2130 602L2209 576M2130 602L2106 676M2209 576L2275 623M2209 576L2237 676M2209 576L2260 646M2275 623L2336 612M2275 623L2237 676M2275 623L2260 646M2275 623L2372 689M2336 612L2260 646M2336 612L2372 689M2436 601L2523 592M2436 601L2372 689M2436 601L2467 691M2523 592L2591 657M2523 592L2515 687M-37 592L31 657M31 657L107 650M31 657L-45 687M2591 657L2515 687M107 650L118 746M229 643L254 656M229 643L178 752M375 660L458 673M375 660L403 749M458 673L489 659M458 673L403 749M624 672L645 698M624 672L580 727M645 698L580 727M645 698L710 791M776 666L806 702M776 666L821 740M806 702L763 769M806 702L821 740M935 644L962 641M1097 691L1159 673M1097 691L1044 750M1159 673L1245 683M1159 673L1225 746M1245 683L1320 681M1245 683L1225 746M1320 681L1401 713M1320 681L1332 772M1401 713L1332 772M1401 713L1432 787M1401 713L1485 788M1401 713L1433 806M1514 656L1521 656M1657 693L1682 653M1657 693L1767 676M1657 693L1631 792M1657 693L1688 775M1682 653L1767 676M1767 676L1876 695M1767 676L1836 741M1876 695L1836 741M1876 695L1898 779M1876 695L1967 756M1995 662L2054 693M1995 662L2106 676M1995 662L1967 756M2054 693L2106 676M2054 693L1967 756M2054 693L2076 725M2106 676L2076 725M2106 676L2137 781M2237 676L2260 646M2237 676L2228 787M2237 676L2273 786M2372 689L2467 691M2372 689L2373 750M2467 691L2515 687M2467 691L2479 796M2467 691L2520 767M2515 687L2520 767M58 795L118 746M58 795L2 802M58 795L81 876M58 795L100 887M118 746L178 752M118 746L189 802M178 752L258 787M178 752L189 802M178 752L241 811M258 787L323 769M258 787L189 802M258 787L241 811M323 769L403 749M323 769L241 811M323 769L395 835M323 769L409 860M403 749L395 835M552 774L580 727M552 774L521 838M552 774L628 816M710 791L763 769M710 791L628 816M710 791L717 833M763 769L821 740M763 769L717 833M763 769L783 864M936 774L1004 794M936 774L915 833M1004 794L1044 750M1004 794L915 833M1004 794L1018 874M1044 750L1129 788M1129 788L1225 746M1129 788L1104 856M1129 788L1143 827M1129 788L1206 801M1225 746L1206 801M1332 772L1345 834M1432 787L1485 788M1432 787L1345 834M1432 787L1433 806M1432 787L1512 819M1485 788L1433 806M1485 788L1512 819M1485 788L1523 810M1584 778L1631 792M1584 778L1688 775M1584 778L1512 819M1584 778L1523 810M1631 792L1688 775M1631 792L1655 868M1688 775L1655 868M1688 775L1733 834M1836 741L1898 779M1836 741L1929 812M1898 779L1967 756M1898 779L1911 877M1898 779L1929 812M1967 756L1929 812M2076 725L2137 781M2076 725L2118 807M2137 781L2228 787M2137 781L2118 807M2228 787L2273 786M2228 787L2220 840M2228 787L2293 804M2273 786L2220 840M2273 786L2293 804M2273 786L2368 821M2373 750L2293 804M2373 750L2368 821M2373 750L2408 833M2479 796L2520 767M2479 796L2562 802M2479 796L2408 833M2479 796L2519 838M-81 796L2 802M2520 767L2562 802M2520 767L2519 838M-40 767L2 802M2 802L81 876M2 802L-41 838M2562 802L2519 838M81 876L46 904M81 876L100 887M81 876L-26 898M2641 876L2534 898M189 802L241 811M395 835L409 860M395 835L386 917M395 835L427 919M409 860L521 838M409 860L386 917M409 860L427 919M521 838L628 816M521 838L541 895M628 816L717 833M628 816L629 909M717 833L783 864M783 864L827 876M783 864L752 936M783 864L855 887M827 876L915 833M827 876L752 936M827 876L855 887M915 833L855 887M915 833L906 921M1018 874L1104 856M1018 874L1001 932M1018 874L1116 892M1018 874L972 969M1104 856L1143 827M1104 856L1116 892M1104 856L1159 896M1143 827L1206 801M1143 827L1116 892M1143 827L1159 896M1345 834L1433 806M1345 834L1346 934M1345 834L1370 893M1433 806L1512 819M1512 819L1523 810M1523 810L1526 920M1655 868L1733 834M1655 868L1672 893M1655 868L1702 943M1733 834L1777 875M1733 834L1672 893M1733 834L1765 886M1777 875L1765 886M1911 877L1929 812M1911 877L1920 945M1929 812L2041 856M2041 856L2118 807M2041 856L1995 937M2041 856L2007 937M2041 856L2112 964M2118 807L2220 840M2220 840L2293 804M2220 840L2195 908M2293 804L2368 821M2368 821L2408 833M2408 833L2474 935M2519 838L2474 935M2519 838L2534 898M46 904L100 887M46 904L-26 898M46 904L18 1004M2606 904L2534 898M100 887L167 960M100 887L125 995M167 960L125 995M167 960L215 983M167 960L256 992M319 936L386 917M319 936L215 983M319 936L256 992M319 936L397 975M386 917L427 919M386 917L397 975M427 919L397 975M427 919L466 967M541 895L629 909M541 895L641 927M541 895L497 1006M541 895L584 967M629 909L641 927M629 909L584 967M629 909L656 967M641 927L584 967M641 927L656 967M752 936L767 967M855 887L906 921M906 921L1001 932M906 921L887 991M906 921L972 969M1001 932L972 969M1001 932L1091 1012M1116 892L1159 896M1159 896L1204 951M1159 896L1217 965M1204 951L1137 992M1204 951L1217 965M1346 934L1370 893M1346 934L1465 924M1346 934L1318 996M1346 934L1408 964M1370 893L1465 924M1370 893L1408 964M1465 924L1526 920M1465 924L1408 964M1526 920L1617 964M1672 893L1702 943M1672 893L1765 886M1672 893L1617 964M1702 943L1765 886M1702 943L1617 964M1702 943L1730 1036M1920 945L1995 937M1920 945L2007 937M1920 945L1859 1008M1920 945L1992 1014M1995 937L2007 937M1995 937L1992 1014M1995 937L2065 984M2007 937L1992 1014M2007 937L2065 984M2153 935L2195 908M2153 935L2112 964M2153 935L2206 1001M2195 908L2244 954M2195 908L2206 1001M2195 908L2270 972M2244 954L2335 952M2244 954L2206 1001M2244 954L2270 972M2244 954L2334 966M2335 952L2270 972M2335 952L2334 966M2335 952L2411 998M2474 935L2534 898M2474 935L2411 998M2474 935L2527 1017M18 1004L125 995M18 1004L-33 1017M18 1004L6 1058M18 1004L-38 1087M2578 1004L2527 1017M2578 1004L2522 1087M125 995L215 983M125 995L108 1072M215 983L256 992M215 983L226 1053M256 992L226 1053M256 992L272 1088M397 975L466 967M397 975L401 1070M466 967L497 1006M466 967L525 1056M497 1006L525 1056M497 1006L580 1046M584 967L656 967M584 967L580 1046M656 967L580 1046M656 967L647 1061M767 967L804 1039M767 967L822 1061M804 1039L887 991M804 1039L737 1096M804 1039L822 1061M804 1039L898 1040M887 991L972 969M887 991L822 1061M887 991L898 1040M972 969L1002 1075M1091 1012L1137 992M1091 1012L1002 1075M1091 1012L1113 1096M1091 1012L1148 1074M1137 992L1217 965M1137 992L1113 1096M1137 992L1148 1074M1217 965L1318 996M1318 996L1408 964M1318 996L1276 1103M1318 996L1290 1078M1408 964L1489 1017M1489 1017L1580 1023M1489 1017L1419 1096M1489 1017L1537 1071M1580 1023L1617 964M1580 1023L1537 1071M1580 1023L1646 1045M1617 964L1646 1045M1730 1036L1826 1021M1730 1036L1646 1045M1730 1036L1694 1099M1730 1036L1815 1054M1826 1021L1859 1008M1826 1021L1815 1054M1826 1021L1881 1080M1859 1008L1815 1054M1859 1008L1881 1080M1992 1014L2065 984M1992 1014L2051 1077M2065 984L2112 964M2065 984L2051 1077M2112 964L2206 1001M2112 964L2051 1077M2206 1001L2270 972M2270 972L2334 966M2334 966L2411 998M2411 998L2347 1090M2411 998L2407 1103M2527 1017L2566 1058M2527 1017L2522 1087M-33 1017L6 1058M6 1058L-38 1087M6 1058L20 1164M6 1058L-48 1134M2566 1058L2522 1087M2566 1058L2512 1134M108 1072L226 1053M108 1072L158 1174M108 1072L190 1128M226 1053L272 1088M226 1053L190 1128M272 1088L190 1128M272 1088L274 1175M272 1088L339 1152M384 1112L401 1070M384 1112L339 1152M384 1112L461 1132M401 1070L339 1152M401 1070L461 1132M525 1056L580 1046M525 1056L647 1061M525 1056L461 1132M580 1046L647 1061M647 1061L737 1096M647 1061L705 1128M737 1096L822 1061M737 1096L705 1128M737 1096L768 1163M822 1061L898 1040M898 1040L1002 1075M1113 1096L1148 1074M1113 1096L1075 1178M1113 1096L1156 1169M1148 1074L1213 1140M1276 1103L1290 1078M1276 1103L1213 1140M1276 1103L1322 1186M1290 1078L1213 1140M1290 1078L1322 1186M1419 1096L1473 1119M1419 1096L1437 1170M1419 1096L1463 1168M1419 1096L1528 1129M1473 1119L1537 1071M1473 1119L1437 1170M1473 1119L1463 1168M1473 1119L1528 1129M1537 1071L1528 1129M1646 1045L1694 1099M1694 1099L1662 1187M1694 1099L1736 1177M1694 1099L1778 1170M1815 1054L1881 1080M1881 1080L1989 1106M1989 1106L2051 1077M1989 1106L1979 1165M1989 1106L2014 1187M2051 1077L2150 1116M2150 1116L2192 1106M2150 1116L2097 1199M2150 1116L2197 1194M2192 1106L2254 1110M2192 1106L2197 1194M2254 1110L2347 1090M2254 1110L2307 1194M2254 1110L2256 1206M2347 1090L2407 1103M2347 1090L2337 1165M2407 1103L2337 1165M2407 1103L2441 1170M2522 1087L2580 1164M2522 1087L2512 1134M-38 1087L20 1164M20 1164L-48 1134M20 1164L58 1209M20 1164L-39 1220M2580 1164L2512 1134M2580 1164L2521 1220M158 1174L190 1128M158 1174L58 1209M158 1174L203 1251M190 1128L274 1175M274 1175L339 1152M274 1175L267 1268M461 1132L525 1195M461 1132L425 1237M525 1195L602 1182M525 1195L497 1276M525 1195L593 1220M602 1182L593 1220M602 1182L636 1292M705 1128L768 1163M705 1128L707 1204M768 1163L813 1178M768 1163L707 1204M768 1163L830 1215M813 1178L908 1199M813 1178L830 1215M813 1178L884 1203M908 1199L995 1185M908 1199L830 1215M908 1199L884 1203M908 1199L976 1285M995 1185L1075 1178M995 1185L1016 1236M995 1185L1071 1201M995 1185L976 1285M1075 1178L1156 1169M1075 1178L1071 1201M1075 1178L1149 1212M1156 1169L1213 1140M1156 1169L1149 1212M1156 1169L1204 1229M1213 1140L1204 1229M1322 1186L1330 1274M1437 1170L1463 1168M1437 1170L1421 1255M1437 1170L1515 1207M1463 1168L1528 1129M1463 1168L1515 1207M1528 1129L1515 1207M1662 1187L1736 1177M1662 1187L1660 1235M1736 1177L1778 1170M1736 1177L1660 1235M1736 1177L1769 1225M1778 1170L1842 1192M1778 1170L1747 1270M1778 1170L1769 1225M1842 1192L1769 1225M1842 1192L1871 1256M1842 1192L1775 1289M1979 1165L2014 1187M1979 1165L1941 1258M1979 1165L2040 1217M2014 1187L2097 1199M2014 1187L2040 1217M2014 1187L2087 1235M2097 1199L2197 1194M2097 1199L2040 1217M2097 1199L2087 1235M2197 1194L2233 1252M2197 1194L2256 1206M2307 1194L2337 1165M2307 1194L2233 1252M2307 1194L2256 1206M2307 1194L2345 1218M2337 1165L2345 1218M2441 1170L2512 1134M2441 1170L2345 1218M2441 1170L2429 1260M2441 1170L2521 1220M2512 1134L2521 1220M58 1209L92 1272M58 1209L12 1293M92 1272L12 1293M92 1272L117 1315M92 1272L88 1385M203 1251L267 1268M203 1251L117 1315M203 1251L232 1290M203 1251L288 1291M267 1268L232 1290M267 1268L288 1291M383 1270L425 1237M383 1270L288 1291M383 1270L399 1306M383 1270L444 1289M383 1270L363 1383M425 1237L497 1276M425 1237L399 1306M425 1237L444 1289M497 1276L399 1306M497 1276L444 1289M497 1276L510 1311M593 1220L636 1292M707 1204L770 1269M707 1204L636 1292M707 1204L776 1284M770 1269L830 1215M770 1269L705 1341M770 1269L776 1284M830 1215L884 1203M1016 1236L1071 1201M1016 1236L945 1294M1016 1236L976 1285M1016 1236L1078 1308M1071 1201L1149 1212M1149 1212L1204 1229M1204 1229L1222 1288M1330 1274L1421 1255M1330 1274L1222 1288M1330 1274L1351 1347M1330 1274L1389 1316M1421 1255L1389 1316M1421 1255L1475 1283M1515 1207L1542 1268M1515 1207L1475 1283M1542 1268L1475 1283M1542 1268L1525 1347M1542 1268L1602 1308M1660 1235L1747 1270M1660 1235L1602 1308M1747 1270L1769 1225M1747 1270L1714 1335M1747 1270L1775 1289M1769 1225L1775 1289M1871 1256L1941 1258M1871 1256L1775 1289M1871 1256L1903 1308M1941 1258L1903 1308M1941 1258L1939 1351M1941 1258L2015 1317M2040 1217L2087 1235M2087 1235L2015 1317M2233 1252L2256 1206M2233 1252L2265 1299M2256 1206L2345 1218M2345 1218L2429 1260M2429 1260L2367 1321M2429 1260L2409 1310M2429 1260L2512 1304M2521 1220L2572 1293M2521 1220L2512 1304M-39 1220L12 1293M12 1293L117 1315M12 1293L-48 1304M2572 1293L2512 1304M117 1315L88 1385M117 1315L163 1420M232 1290L288 1291M288 1291L363 1383M399 1306L444 1289M399 1306L363 1383M444 1289L510 1311M510 1311L474 1416M510 1311L511 1396M510 1311L572 1391M636 1292L705 1341M636 1292L664 1384M705 1341L776 1284M705 1341L664 1384M705 1341L793 1362M776 1284L793 1362M776 1284L804 1361M859 1354L945 1294M859 1354L793 1362M859 1354L804 1361M859 1354L955 1418M945 1294L976 1285M976 1285L1011 1361M1078 1308L1151 1308M1078 1308L1011 1361M1078 1308L1070 1371M1078 1308L1121 1369M1151 1308L1222 1288M1151 1308L1070 1371M1151 1308L1121 1369M1151 1308L1207 1368M1222 1288L1207 1368M1351 1347L1389 1316M1351 1347L1339 1383M1351 1347L1361 1427M1389 1316L1475 1283M1389 1316L1339 1383M1475 1283L1525 1347M1525 1347L1602 1308M1525 1347L1475 1399M1525 1347L1530 1393M1602 1308L1714 1335M1714 1335L1775 1289M1714 1335L1718 1406M1903 1308L1939 1351M1903 1308L1985 1366M1939 1351L2015 1317M1939 1351L1856 1409M1939 1351L1985 1366M2015 1317L2088 1353M2015 1317L1985 1366M2088 1353L2176 1357M2088 1353L1985 1366M2088 1353L2069 1437M2088 1353L2141 1397M2176 1357L2141 1397M2176 1357L2220 1360M2176 1357L2248 1378M2265 1299L2367 1321M2265 1299L2220 1360M2265 1299L2248 1378M2265 1299L2326 1383M2367 1321L2409 1310M2367 1321L2326 1383M2409 1310L2512 1304M2409 1310L2326 1383M2409 1310L2497 1367M2512 1304L2497 1367M71 1438L88 1385M71 1438L163 1420M88 1385L163 1420M303 1417L363 1383M474 1416L511 1396M474 1416L572 1391M511 1396L572 1391M572 1391L664 1384M793 1362L804 1361M955 1418L1011 1361M1011 1361L1070 1371M1070 1371L1121 1369M1121 1369L1207 1368M1339 1383L1361 1427M1361 1427L1475 1399M1475 1399L1530 1393M1530 1393L1620 1431M1620 1431L1718 1406M1718 1406L1822 1412M1822 1412L1856 1409M1985 1366L2069 1437M2069 1437L2141 1397M2141 1397L2220 1360M2220 1360L2248 1378M2248 1378L2326 1383M2449 1407L2497 1367"/></svg>