<svg xmlns="http://www.w3.org/2000/svg" width="2560" height="1440" fill="#fff"><circle cx="21" cy="43" r="6"/><circle cx="113" cy="46" r="4"/><circle cx="187" cy="75" r="6"/><circle cx="279" cy="8" r="5"/><circle cx="344" cy="23" r="6"/><circle cx="459" cy="29" r="5"/><circle cx="481" cy="43" r="6"/><circle cx="567" cy="4" r="5"/><circle cx="567" cy="1444" r="5"/><circle cx="704" cy="26" r="5"/><circle cx="794" cy="52" r="5"/><circle cx="827" cy="11" r="4"/><circle cx="928" cy="4" r="6"/><circle cx="928" cy="1444" r="6"/><circle cx="1001" cy="21" r="5"/><circle cx="1107" cy="50" r="5"/><circle cx="1199" cy="58" r="5"/><circle cx="1253" cy="69" r="6"/><circle cx="1321" cy="17" r="6"/><circle cx="1438" cy="58" r="5"/><circle cx="1446" cy="26" r="5"/><circle cx="1532" cy="34" r="6"/><circle cx="1606" cy="6" r="6"/><circle cx="1728" cy="15" r="5"/><circle cx="1820" cy="57" r="4"/><circle cx="1860" cy="18" r="5"/><circle cx="1978" cy="9" r="5"/><circle cx="2001" cy="78" r="4"/><circle cx="2112" cy="74" r="4"/><circle cx="2209" cy="17" r="5"/><circle cx="2244" cy="27" r="4"/><circle cx="2390" cy="47" r="4"/><circle cx="2469" cy="77" r="4"/><circle cx="2496" cy="47" r="5"/><circle cx="36" cy="92" r="6"/><circle cx="103" cy="107" r="6"/><circle cx="178" cy="85" r="5"/><circle cx="273" cy="115" r="5"/><circle cx="375" cy="94" r="5"/><circle cx="478" cy="124" r="5"/><circle cx="553" cy="91" r="5"/><circle cx="635" cy="149" r="5"/><circle cx="660" cy="96" r="5"/><circle cx="739" cy="131" r="6"/><circle cx="816" cy="86" r="6"/><circle cx="881" cy="158" r="6"/><circle cx="1003" cy="89" r="4"/><circle cx="1096" cy="92" r="6"/><circle cx="1138" cy="119" r="6"/><circle cx="1210" cy="110" r="4"/><circle cx="1325" cy="146" r="5"/><circle cx="1372" cy="113" r="4"/><circle cx="1487" cy="101" r="5"/><circle cx="1522" cy="122" r="6"/><circle cx="1616" cy="132" r="6"/><circle cx="1759" cy="159" r="6"/><circle cx="1761" cy="105" r="5"/><circle cx="1854" cy="133" r="5"/><circle cx="1999" cy="152" r="4"/><circle cx="2066" cy="132" r="5"/><circle cx="2088" cy="148" r="6"/><circle cx="2206" cy="82" r="4"/><circle cx="2301" cy="109" r="5"/><circle cx="2397" cy="125" r="5"/><circle cx="2474" cy="141" r="5"/><circle cx="2496" cy="135" r="5"/><circle cx="13" cy="206" r="5"/><circle cx="151" cy="212" r="6"/><circle cx="223" cy="166" r="6"/><circle cx="249" cy="214" r="4"/><circle cx="326" cy="183" r="5"/><circle cx="430" cy="225" r="5"/><circle cx="509" cy="231" r="5"/><circle cx="610" cy="216" r="5"/><circle cx="668" cy="228" r="4"/><circle cx="765" cy="227" r="4"/><circle cx="808" cy="224" r="5"/><circle cx="907" cy="192" r="5"/><circle cx="1022" cy="219" r="6"/><circle cx="1108" cy="170" r="5"/><circle cx="1120" cy="239" r="6"/><circle cx="1238" cy="231" r="5"/><circle cx="1326" cy="183" r="6"/><circle cx="1390" cy="182" r="5"/><circle cx="1498" cy="214" r="5"/><circle cx="1526" cy="212" r="4"/><circle cx="1619" cy="222" r="5"/><circle cx="1696" cy="232" r="5"/><circle cx="1791" cy="187" r="4"/><circle cx="1896" cy="226" r="5"/><circle cx="1997" cy="211" r="5"/><circle cx="2050" cy="224" r="5"/><circle cx="2093" cy="238" r="4"/><circle cx="2212" cy="195" r="5"/><circle cx="2259" cy="218" r="6"/><circle cx="2366" cy="170" r="5"/><circle cx="2466" cy="172" r="5"/><circle cx="2486" cy="164" r="6"/><circle cx="3" cy="267" r="6"/><circle cx="2563" cy="267" r="6"/><circle cx="137" cy="267" r="4"/><circle cx="215" cy="243" r="5"/><circle cx="296" cy="295" r="5"/><circle cx="396" cy="275" r="4"/><circle cx="413" cy="266" r="4"/><circle cx="519" cy="313" r="4"/><circle cx="627" cy="285" r="6"/><circle cx="686" cy="304" r="6"/><circle cx="781" cy="268" r="5"/><circle cx="848" cy="316" r="4"/><circle cx="921" cy="297" r="4"/><circle cx="968" cy="271" r="4"/><circle cx="1094" cy="283" r="5"/><circle cx="1164" cy="292" r="4"/><circle cx="1260" cy="301" r="4"/><circle cx="1319" cy="288" r="5"/><circle cx="1394" cy="289" r="5"/><circle cx="1520" cy="310" r="5"/><circle cx="1550" cy="302" r="5"/><circle cx="1658" cy="256" r="4"/><circle cx="1744" cy="295" r="5"/><circle cx="1803" cy="281" r="5"/><circle cx="1840" cy="296" r="4"/><circle cx="1987" cy="283" r="4"/><circle cx="2049" cy="290" r="6"/><circle cx="2081" cy="251" r="6"/><circle cx="2234" cy="301" r="4"/><circle cx="2315" cy="289" r="5"/><circle cx="2379" cy="279" r="4"/><circle cx="2438" cy="298" r="6"/><circle cx="2509" cy="254" r="5"/><circle cx="54" cy="337" r="6"/><circle cx="104" cy="376" r="5"/><circle cx="225" cy="329" r="4"/><circle cx="284" cy="363" r="5"/><circle cx="363" cy="389" r="5"/><circle cx="458" cy="373" r="6"/><circle cx="513" cy="399" r="5"/><circle cx="585" cy="350" r="4"/><circle cx="692" cy="385" r="5"/><circle cx="765" cy="367" r="6"/><circle cx="859" cy="340" r="5"/><circle cx="955" cy="395" r="4"/><circle cx="970" cy="334" r="4"/><circle cx="1111" cy="364" r="5"/><circle cx="1142" cy="384" r="5"/><circle cx="1245" cy="387" r="5"/><circle cx="1329" cy="354" r="6"/><circle cx="1377" cy="368" r="6"/><circle cx="1490" cy="360" r="5"/><circle cx="1573" cy="370" r="4"/><circle cx="1645" cy="383" r="5"/><circle cx="1706" cy="381" r="6"/><circle cx="1808" cy="358" r="4"/><circle cx="1842" cy="349" r="4"/><circle cx="1982" cy="365" r="5"/><circle cx="2058" cy="369" r="4"/><circle cx="2081" cy="321" r="6"/><circle cx="2193" cy="387" r="4"/><circle cx="2290" cy="329" r="5"/><circle cx="2373" cy="352" r="5"/><circle cx="2400" cy="397" r="4"/><circle cx="2530" cy="327" r="5"/><circle cx="27" cy="448" r="4"/><circle cx="116" cy="440" r="4"/><circle cx="196" cy="445" r="4"/><circle cx="316" cy="401" r="4"/><circle cx="386" cy="465" r="4"/><circle cx="412" cy="455" r="4"/><circle cx="487" cy="419" r="4"/><circle cx="636" cy="449" r="5"/><circle cx="680" cy="447" r="5"/><circle cx="770" cy="458" r="4"/><circle cx="861" cy="459" r="4"/><circle cx="891" cy="474" r="6"/><circle cx="1007" cy="405" r="4"/><circle cx="1111" cy="408" r="4"/><circle cx="1176" cy="433" r="5"/><circle cx="1215" cy="477" r="6"/><circle cx="1330" cy="446" r="4"/><circle cx="1436" cy="406" r="4"/><circle cx="1440" cy="468" r="5"/><circle cx="1545" cy="402" r="5"/><circle cx="1679" cy="455" r="4"/><circle cx="1759" cy="450" r="6"/><circle cx="1830" cy="449" r="6"/><circle cx="1904" cy="425" r="5"/><circle cx="1928" cy="472" r="5"/><circle cx="2046" cy="437" r="4"/><circle cx="2103" cy="400" r="5"/><circle cx="2214" cy="456" r="5"/><circle cx="2250" cy="401" r="5"/><circle cx="2381" cy="419" r="5"/><circle cx="2412" cy="478" r="4"/><circle cx="2507" cy="431" r="6"/><circle cx="65" cy="485" r="5"/><circle cx="139" cy="545" r="5"/><circle cx="185" cy="541" r="5"/><circle cx="274" cy="541" r="6"/><circle cx="342" cy="496" r="5"/><circle cx="426" cy="522" r="4"/><circle cx="511" cy="520" r="5"/><circle cx="632" cy="524" r="4"/><circle cx="691" cy="502" r="6"/><circle cx="776" cy="515" r="5"/><circle cx="818" cy="516" r="4"/><circle cx="951" cy="515" r="5"/><circle cx="963" cy="520" r="4"/><circle cx="1101" cy="512" r="5"/><circle cx="1122" cy="483" r="5"/><circle cx="1206" cy="546" r="5"/><circle cx="1323" cy="538" r="4"/><circle cx="1402" cy="539" r="5"/><circle cx="1457" cy="482" r="5"/><circle cx="1580" cy="499" r="5"/><circle cx="1672" cy="494" r="5"/><circle cx="1725" cy="513" r="5"/><circle cx="1828" cy="552" r="4"/><circle cx="1848" cy="523" r="4"/><circle cx="1975" cy="551" r="5"/><circle cx="2031" cy="541" r="5"/><circle cx="2121" cy="555" r="5"/><circle cx="2207" cy="535" r="4"/><circle cx="2244" cy="486" r="6"/><circle cx="2359" cy="487" r="5"/><circle cx="2419" cy="494" r="4"/><circle cx="2501" cy="512" r="4"/><circle cx="26" cy="564" r="4"/><circle cx="132" cy="592" r="5"/><circle cx="228" cy="597" r="6"/><circle cx="279" cy="589" r="5"/><circle cx="377" cy="606" r="6"/><circle cx="442" cy="613" r="6"/><circle cx="485" cy="575" r="5"/><circle cx="632" cy="596" r="5"/><circle cx="679" cy="591" r="5"/><circle cx="755" cy="618" r="5"/><circle cx="834" cy="588" r="6"/><circle cx="953" cy="584" r="5"/><circle cx="1004" cy="613" r="4"/><circle cx="1072" cy="607" r="6"/><circle cx="1175" cy="563" r="4"/><circle cx="1234" cy="600" r="5"/><circle cx="1354" cy="635" r="4"/><circle cx="1400" cy="622" r="5"/><circle cx="1501" cy="610" r="4"/><circle cx="1584" cy="567" r="4"/><circle cx="1666" cy="619" r="6"/><circle cx="1701" cy="616" r="5"/><circle cx="1810" cy="579" r="4"/><circle cx="1870" cy="617" r="5"/><circle cx="1963" cy="632" r="6"/><circle cx="2025" cy="618" r="4"/><circle cx="2083" cy="630" r="5"/><circle cx="2207" cy="638" r="5"/><circle cx="2254" cy="634" r="6"/><circle cx="2384" cy="591" r="4"/><circle cx="2419" cy="569" r="5"/><circle cx="2551" cy="604" r="6"/><circle cx="66" cy="665" r="5"/><circle cx="133" cy="664" r="4"/><circle cx="236" cy="659" r="4"/><circle cx="300" cy="696" r="6"/><circle cx="372" cy="686" r="6"/><circle cx="433" cy="666" r="5"/><circle cx="492" cy="666" r="5"/><circle cx="605" cy="676" r="4"/><circle cx="652" cy="666" r="6"/><circle cx="766" cy="699" r="5"/><circle cx="842" cy="720" r="5"/><circle cx="906" cy="718" r="5"/><circle cx="1039" cy="651" r="5"/><circle cx="1103" cy="643" r="5"/><circle cx="1151" cy="692" r="4"/><circle cx="1265" cy="659" r="5"/><circle cx="1307" cy="715" r="5"/><circle cx="1364" cy="695" r="6"/><circle cx="1507" cy="697" r="4"/><circle cx="1520" cy="664" r="4"/><circle cx="1607" cy="715" r="5"/><circle cx="1697" cy="667" r="6"/><circle cx="1829" cy="705" r="4"/><circle cx="1845" cy="690" r="4"/><circle cx="1987" cy="712" r="5"/><circle cx="2006" cy="654" r="5"/><circle cx="2121" cy="684" r="5"/><circle cx="2227" cy="709" r="5"/><circle cx="2257" cy="713" r="6"/><circle cx="2350" cy="641" r="5"/><circle cx="2433" cy="718" r="5"/><circle cx="2511" cy="699" r="6"/><circle cx="72" cy="755" r="5"/><circle cx="124" cy="741" r="5"/><circle cx="199" cy="784" r="4"/><circle cx="256" cy="741" r="6"/><circle cx="333" cy="748" r="5"/><circle cx="451" cy="763" r="6"/><circle cx="482" cy="796" r="5"/><circle cx="605" cy="751" r="4"/><circle cx="688" cy="782" r="5"/><circle cx="751" cy="793" r="6"/><circle cx="805" cy="799" r="5"/><circle cx="947" cy="742" r="5"/><circle cx="1011" cy="794" r="4"/><circle cx="1084" cy="757" r="5"/><circle cx="1185" cy="796" r="5"/><circle cx="1260" cy="773" r="5"/><circle cx="1286" cy="750" r="5"/><circle cx="1437" cy="750" r="5"/><circle cx="1482" cy="782" r="5"/><circle cx="1547" cy="741" r="5"/><circle cx="1652" cy="791" r="5"/><circle cx="1740" cy="745" r="5"/><circle cx="1785" cy="787" r="4"/><circle cx="1869" cy="747" r="5"/><circle cx="1955" cy="724" r="5"/><circle cx="2043" cy="796" r="6"/><circle cx="2099" cy="758" r="5"/><circle cx="2193" cy="732" r="4"/><circle cx="2277" cy="763" r="5"/><circle cx="2381" cy="742" r="5"/><circle cx="2438" cy="761" r="5"/><circle cx="2486" cy="789" r="5"/><circle cx="57" cy="802" r="6"/><circle cx="112" cy="807" r="5"/><circle cx="164" cy="850" r="5"/><circle cx="300" cy="824" r="6"/><circle cx="336" cy="821" r="5"/><circle cx="480" cy="854" r="5"/><circle cx="499" cy="864" r="5"/><circle cx="597" cy="809" r="5"/><circle cx="668" cy="859" r="6"/><circle cx="786" cy="871" r="4"/><circle cx="805" cy="857" r="5"/><circle cx="951" cy="847" r="5"/><circle cx="1031" cy="814" r="4"/><circle cx="1116" cy="851" r="4"/><circle cx="1130" cy="825" r="6"/><circle cx="1252" cy="831" r="4"/><circle cx="1347" cy="877" r="5"/><circle cx="1404" cy="848" r="5"/><circle cx="1506" cy="851" r="6"/><circle cx="1525" cy="840" r="5"/><circle cx="1670" cy="864" r="6"/><circle cx="1695" cy="817" r="4"/><circle cx="1770" cy="822" r="5"/><circle cx="1911" cy="842" r="5"/><circle cx="1958" cy="806" r="6"/><circle cx="2055" cy="838" r="5"/><circle cx="2120" cy="846" r="6"/><circle cx="2170" cy="865" r="6"/><circle cx="2306" cy="840" r="5"/><circle cx="2335" cy="852" r="5"/><circle cx="2428" cy="864" r="5"/><circle cx="2510" cy="869" r="5"/><circle cx="27" cy="952" r="6"/><circle cx="111" cy="923" r="4"/><circle cx="177" cy="885" r="6"/><circle cx="289" cy="927" r="5"/><circle cx="394" cy="941" r="6"/><circle cx="467" cy="948" r="5"/><circle cx="539" cy="930" r="5"/><circle cx="596" cy="949" r="4"/><circle cx="662" cy="953" r="4"/><circle cx="748" cy="911" r="5"/><circle cx="849" cy="902" r="5"/><circle cx="906" cy="899" r="4"/><circle cx="1013" cy="928" r="6"/><circle cx="1066" cy="881" r="4"/><circle cx="1193" cy="905" r="5"/><circle cx="1238" cy="907" r="4"/><circle cx="1347" cy="895" r="6"/><circle cx="1387" cy="930" r="6"/><circle cx="1494" cy="944" r="4"/><circle cx="1545" cy="921" r="5"/><circle cx="1649" cy="915" r="6"/><circle cx="1724" cy="944" r="5"/><circle cx="1824" cy="921" r="5"/><circle cx="1879" cy="887" r="5"/><circle cx="1988" cy="946" r="5"/><circle cx="2022" cy="897" r="4"/><circle cx="2093" cy="894" r="5"/><circle cx="2181" cy="905" r="5"/><circle cx="2302" cy="941" r="5"/><circle cx="2391" cy="957" r="5"/><circle cx="2470" cy="913" r="6"/><circle cx="2545" cy="928" r="6"/><circle cx="7" cy="990" r="5"/><circle cx="127" cy="960" r="6"/><circle cx="164" cy="1022" r="5"/><circle cx="310" cy="978" r="5"/><circle cx="386" cy="1026" r="5"/><circle cx="437" cy="970" r="5"/><circle cx="542" cy="992" r="6"/><circle cx="562" cy="1030" r="5"/><circle cx="661" cy="1021" r="6"/><circle cx="750" cy="972" r="5"/><circle cx="823" cy="974" r="4"/><circle cx="887" cy="967" r="5"/><circle cx="1003" cy="972" r="5"/><circle cx="1100" cy="1032" r="6"/><circle cx="1171" cy="1025" r="4"/><circle cx="1268" cy="1031" r="4"/><circle cx="1330" cy="1008" r="5"/><circle cx="1362" cy="961" r="6"/><circle cx="1452" cy="974" r="4"/><circle cx="1536" cy="1005" r="4"/><circle cx="1607" cy="1030" r="6"/><circle cx="1696" cy="1002" r="5"/><circle cx="1765" cy="976" r="5"/><circle cx="1917" cy="1002" r="5"/><circle cx="1945" cy="973" r="5"/><circle cx="2037" cy="975" r="6"/><circle cx="2096" cy="1004" r="5"/><circle cx="2196" cy="1033" r="4"/><circle cx="2309" cy="1014" r="6"/><circle cx="2327" cy="969" r="6"/><circle cx="2443" cy="985" r="5"/><circle cx="2481" cy="1022" r="5"/><circle cx="65" cy="1115" r="5"/><circle cx="130" cy="1065" r="6"/><circle cx="231" cy="1064" r="4"/><circle cx="267" cy="1087" r="6"/><circle cx="344" cy="1086" r="5"/><circle cx="478" cy="1060" r="6"/><circle cx="548" cy="1085" r="5"/><circle cx="561" cy="1058" r="6"/><circle cx="710" cy="1089" r="5"/><circle cx="740" cy="1080" r="4"/><circle cx="876" cy="1078" r="5"/><circle cx="886" cy="1086" r="5"/><circle cx="996" cy="1101" r="5"/><circle cx="1046" cy="1073" r="5"/><circle cx="1130" cy="1108" r="6"/><circle cx="1277" cy="1113" r="6"/><circle cx="1285" cy="1055" r="4"/><circle cx="1377" cy="1109" r="5"/><circle cx="1500" cy="1120" r="5"/><circle cx="1591" cy="1088" r="5"/><circle cx="1612" cy="1077" r="4"/><circle cx="1742" cy="1096" r="5"/><circle cx="1836" cy="1097" r="5"/><circle cx="1900" cy="1112" r="6"/><circle cx="1970" cy="1118" r="5"/><circle cx="2069" cy="1052" r="5"/><circle cx="2094" cy="1045" r="5"/><circle cx="2184" cy="1071" r="5"/><circle cx="2312" cy="1053" r="5"/><circle cx="2342" cy="1058" r="5"/><circle cx="2471" cy="1048" r="5"/><circle cx="2543" cy="1055" r="6"/><circle cx="28" cy="1167" r="5"/><circle cx="94" cy="1187" r="4"/><circle cx="188" cy="1195" r="4"/><circle cx="272" cy="1182" r="4"/><circle cx="328" cy="1172" r="5"/><circle cx="459" cy="1192" r="4"/><circle cx="549" cy="1177" r="6"/><circle cx="612" cy="1195" r="5"/><circle cx="717" cy="1139" r="5"/><circle cx="784" cy="1162" r="6"/><circle cx="839" cy="1174" r="4"/><circle cx="958" cy="1164" r="4"/><circle cx="1006" cy="1182" r="6"/><circle cx="1110" cy="1200" r="6"/><circle cx="1138" cy="1165" r="6"/><circle cx="1219" cy="1146" r="5"/><circle cx="1313" cy="1179" r="5"/><circle cx="1407" cy="1196" r="6"/><circle cx="1493" cy="1191" r="5"/><circle cx="1584" cy="1155" r="5"/><circle cx="1661" cy="1132" r="4"/><circle cx="1694" cy="1184" r="5"/><circle cx="1768" cy="1138" r="4"/><circle cx="1889" cy="1169" r="6"/><circle cx="1996" cy="1164" r="6"/><circle cx="2079" cy="1187" r="4"/><circle cx="2094" cy="1176" r="5"/><circle cx="2201" cy="1165" r="5"/><circle cx="2286" cy="1168" r="4"/><circle cx="2345" cy="1168" r="4"/><circle cx="2431" cy="1180" r="4"/><circle cx="2548" cy="1136" r="5"/><circle cx="1" cy="1214" r="5"/><circle cx="2561" cy="1214" r="5"/><circle cx="136" cy="1241" r="5"/><circle cx="198" cy="1263" r="4"/><circle cx="284" cy="1201" r="5"/><circle cx="362" cy="1218" r="5"/><circle cx="460" cy="1250" r="5"/><circle cx="482" cy="1225" r="5"/><circle cx="609" cy="1214" r="5"/><circle cx="661" cy="1240" r="5"/><circle cx="775" cy="1224" r="4"/><circle cx="808" cy="1255" r="5"/><circle cx="950" cy="1234" r="5"/><circle cx="1039" cy="1247" r="5"/><circle cx="1052" cy="1253" r="5"/><circle cx="1152" cy="1206" r="4"/><circle cx="1218" cy="1259" r="4"/><circle cx="1317" cy="1269" r="6"/><circle cx="1393" cy="1234" r="5"/><circle cx="1499" cy="1227" r="4"/><circle cx="1545" cy="1227" r="5"/><circle cx="1623" cy="1226" r="5"/><circle cx="1758" cy="1275" r="5"/><circle cx="1796" cy="1260" r="5"/><circle cx="1842" cy="1245" r="4"/><circle cx="1973" cy="1220" r="6"/><circle cx="2014" cy="1247" r="6"/><circle cx="2116" cy="1236" r="5"/><circle cx="2200" cy="1258" r="5"/><circle cx="2288" cy="1228" r="5"/><circle cx="2330" cy="1263" r="6"/><circle cx="2433" cy="1209" r="5"/><circle cx="2521" cy="1211" r="4"/><circle cx="20" cy="1346" r="4"/><circle cx="110" cy="1345" r="4"/><circle cx="184" cy="1295" r="6"/><circle cx="269" cy="1298" r="5"/><circle cx="338" cy="1356" r="5"/><circle cx="454" cy="1311" r="5"/><circle cx="518" cy="1295" r="5"/><circle cx="600" cy="1332" r="6"/><circle cx="688" cy="1310" r="6"/><circle cx="793" cy="1305" r="5"/><circle cx="879" cy="1283" r="6"/><circle cx="892" cy="1296" r="6"/><circle cx="1004" cy="1333" r="5"/><circle cx="1075" cy="1300" r="6"/><circle cx="1184" cy="1298" r="5"/><circle cx="1261" cy="1325" r="5"/><circle cx="1328" cy="1335" r="6"/><circle cx="1377" cy="1344" r="5"/><circle cx="1518" cy="1306" r="5"/><circle cx="1524" cy="1349" r="5"/><circle cx="1680" cy="1343" r="5"/><circle cx="1709" cy="1344" r="5"/><circle cx="1838" cy="1339" r="4"/><circle cx="1851" cy="1355" r="4"/><circle cx="1921" cy="1296" r="4"/><circle cx="2030" cy="1353" r="4"/><circle cx="2081" cy="1329" r="6"/><circle cx="2205" cy="1337" r="4"/><circle cx="2257" cy="1331" r="5"/><circle cx="2324" cy="1352" r="5"/><circle cx="2431" cy="1302" r="4"/><circle cx="2523" cy="1313" r="5"/><circle cx="19" cy="1419" r="4"/><circle cx="94" cy="1429" r="6"/><circle cx="237" cy="1421" r="5"/><circle cx="269" cy="1391" r="5"/><circle cx="370" cy="1398" r="5"/><circle cx="471" cy="1425" r="5"/><circle cx="516" cy="1381" r="6"/><circle cx="596" cy="1422" r="5"/><circle cx="652" cy="1435" r="5"/><circle cx="652" cy="-5" r="5"/><circle cx="753" cy="1433" r="5"/><circle cx="824" cy="1367" r="4"/><circle cx="935" cy="1387" r="6"/><circle cx="1007" cy="1437" r="5"/><circle cx="1007" cy="-3" r="5"/><circle cx="1048" cy="1400" r="5"/><circle cx="1182" cy="1410" r="4"/><circle cx="1222" cy="1413" r="4"/><circle cx="1294" cy="1382" r="4"/><circle cx="1434" cy="1384" r="4"/><circle cx="1506" cy="1374" r="5"/><circle cx="1566" cy="1419" r="6"/><circle cx="1670" cy="1388" r="5"/><circle cx="1757" cy="1427" r="6"/><circle cx="1821" cy="1394" r="4"/><circle cx="1907" cy="1378" r="5"/><circle cx="1963" cy="1420" r="4"/><circle cx="2034" cy="1421" r="5"/><circle cx="2151" cy="1408" r="4"/><circle cx="2236" cy="1400" r="4"/><circle cx="2245" cy="1406" r="5"/><circle cx="2396" cy="1439" r="5"/><circle cx="2396" cy="-1" r="5"/><circle cx="2404" cy="1391" r="4"/><circle cx="2528" cy="1403" r="6"/><path stroke="#fff" d="M21 43L-64 47M21 43L36 92M21 43L19 -21M21 43L94 -11M21 43L-32 -37M2581 43L2496 47M2581 43L2528 -37M21 1483L19 1419M21 1483L94 1429M21 1483L-32 1403M2581 1483L2528 1403M113 46L187 75M113 46L36 92M113 46L103 107M113 46L178 85M113 46L94 -11M113 1486L94 1429M187 75L103 107M187 75L178 85M187 75L273 115M279 8L344 23M279 8L237 -19M279 8L269 -49M279 8L370 -42M279 1448L237 1421M279 1448L269 1391M279 1448L370 1398M344 23L375 94M344 23L338 -84M344 23L269 -49M344 23L370 -42M344 1463L338 1356M344 1463L269 1391M344 1463L370 1398M459 29L481 43M459 29L375 94M459 29L478 124M459 29L471 -15M459 1469L471 1425M481 43L567 4M481 43L478 124M481 43L553 91M481 43L471 -15M481 1483L471 1425M567 4L553 91M567 4L516 -59M567 4L596 -18M567 4L652 -5M567 1444L516 1381M567 1444L596 1422M567 1444L652 1435M704 26L794 52M704 26L660 96M704 26L652 -5M704 26L753 -7M704 1466L652 1435M704 1466L753 1433M794 52L827 11M794 52L739 131M794 52L816 86M794 52L753 -7M794 1492L753 1433M827 11L928 4M827 11L816 86M827 11L753 -7M827 11L824 -73M827 1451L753 1433M827 1451L824 1367M928 4L1001 21M928 4L935 -53M928 4L1007 -3M928 1444L935 1387M928 1444L1007 1437M1001 21L1003 89M1001 21L935 -53M1001 21L1007 -3M1001 21L1048 -40M1001 1461L935 1387M1001 1461L1007 1437M1001 1461L1048 1400M1107 50L1199 58M1107 50L1096 92M1107 50L1138 119M1107 50L1048 -40M1107 1490L1048 1400M1199 58L1253 69M1199 58L1138 119M1199 58L1210 110M1199 58L1182 -30M1199 1498L1182 1410M1253 69L1321 17M1253 69L1210 110M1253 69L1325 146M1253 69L1222 -27M1253 1509L1222 1413M1321 17L1372 113M1321 17L1328 -105M1321 17L1222 -27M1321 17L1294 -58M1321 1457L1328 1335M1321 1457L1222 1413M1321 1457L1294 1382M1438 58L1446 26M1438 58L1372 113M1438 58L1487 101M1446 26L1532 34M1446 26L1487 101M1446 26L1434 -56M1446 26L1506 -66M1446 1466L1434 1384M1446 1466L1506 1374M1532 34L1606 6M1532 34L1487 101M1532 34L1522 122M1532 34L1566 -21M1532 1474L1566 1419M1606 6L1616 132M1606 6L1566 -21M1606 6L1670 -52M1606 1446L1566 1419M1606 1446L1670 1388M1728 15L1820 57M1728 15L1761 105M1728 15L1670 -52M1728 15L1757 -13M1728 1455L1670 1388M1728 1455L1757 1427M1820 57L1860 18M1820 57L1761 105M1820 57L1854 133M1820 57L1757 -13M1820 1497L1757 1427M1860 18L1821 -46M1860 1458L1821 1394M1978 9L2001 78M1978 9L2030 -87M1978 9L1963 -20M1978 9L2034 -19M1978 1449L2030 1353M1978 1449L1963 1420M1978 1449L2034 1421M2001 78L1999 152M2001 78L2066 132M2001 78L2034 -19M2001 1518L2034 1421M2112 74L2066 132M2112 74L2088 148M2112 74L2206 82M2209 17L2244 27M2209 17L2206 82M2209 17L2151 -32M2209 17L2236 -40M2209 17L2245 -34M2209 1457L2151 1408M2209 1457L2236 1400M2209 1457L2245 1406M2244 27L2206 82M2244 27L2301 109M2244 27L2236 -40M2244 27L2245 -34M2244 1467L2236 1400M2244 1467L2245 1406M2390 47L2397 125M2390 47L2396 -1M2390 47L2404 -49M2390 1487L2396 1439M2390 1487L2404 1391M2469 77L2496 47M2469 77L2474 141M2469 77L2496 135M2496 47L2496 135M2496 47L2528 -37M2496 1487L2528 1403M36 92L103 107M36 92L94 -11M36 1532L94 1429M103 107L178 85M103 107L151 212M178 85L273 115M178 85L223 166M273 115L375 94M273 115L223 166M273 115L326 183M375 94L478 124M375 94L326 183M478 124L553 91M478 124L430 225M553 91L635 149M553 91L660 96M635 149L660 96M635 149L739 131M635 149L610 216M635 149L668 228M660 96L739 131M660 96L652 -5M660 1536L652 1435M739 131L816 86M739 131L765 227M816 86L881 158M881 158L808 224M881 158L907 192M1003 89L1096 92M1003 89L1007 -3M1003 1529L1007 1437M1096 92L1138 119M1096 92L1210 110M1096 92L1108 170M1138 119L1210 110M1138 119L1108 170M1325 146L1372 113M1325 146L1326 183M1325 146L1390 182M1372 113L1326 183M1372 113L1390 182M1487 101L1522 122M1487 101L1498 214M1522 122L1616 132M1522 122L1498 214M1522 122L1526 212M1616 132L1619 222M1759 159L1761 105M1759 159L1854 133M1759 159L1696 232M1759 159L1791 187M1761 105L1854 133M1761 105L1791 187M1854 133L1791 187M1854 133L1896 226M1999 152L2066 132M1999 152L2088 148M1999 152L1997 211M2066 132L2088 148M2088 148L2050 224M2206 82L2301 109M2206 82L2212 195M2301 109L2366 170M2397 125L2474 141M2397 125L2366 170M2397 125L2466 172M2397 125L2486 164M2474 141L2496 135M2474 141L2466 172M2474 141L2486 164M2496 135L2466 172M2496 135L2486 164M13 206L3 267M13 206L-51 254M2573 206L2509 254M151 212L223 166M151 212L249 214M151 212L137 267M151 212L215 243M223 166L249 214M223 166L215 243M249 214L326 183M249 214L215 243M249 214L296 295M326 183L430 225M430 225L509 231M430 225L396 275M430 225L413 266M509 231L610 216M509 231L413 266M509 231L519 313M610 216L668 228M610 216L627 285M668 228L765 227M668 228L627 285M668 228L686 304M765 227L808 224M765 227L781 268M808 224L907 192M808 224L781 268M808 224L848 316M907 192L1022 219M907 192L921 297M907 192L968 271M1022 219L1108 170M1022 219L1120 239M1022 219L968 271M1022 219L1094 283M1108 170L1120 239M1120 239L1238 231M1120 239L1094 283M1120 239L1164 292M1238 231L1326 183M1238 231L1164 292M1238 231L1260 301M1238 231L1319 288M1326 183L1390 182M1390 182L1394 289M1498 214L1526 212M1498 214L1520 310M1498 214L1550 302M1526 212L1619 222M1619 222L1696 232M1619 222L1658 256M1696 232L1791 187M1696 232L1658 256M1696 232L1744 295M1791 187L1803 281M1896 226L1840 296M1997 211L2050 224M1997 211L1987 283M1997 211L2081 251M2050 224L2093 238M2050 224L2049 290M2050 224L2081 251M2093 238L2049 290M2093 238L2081 251M2093 238L2081 321M2212 195L2259 218M2212 195L2234 301M2259 218L2366 170M2259 218L2234 301M2259 218L2315 289M2259 218L2290 329M2466 172L2486 164M2486 164L2509 254M3 267L-51 254M3 267L54 337M3 267L-30 327M2563 267L2509 254M2563 267L2530 327M137 267L215 243M137 267L54 337M137 267L104 376M137 267L225 329M215 243L296 295M296 295L396 275M296 295L225 329M296 295L284 363M396 275L413 266M519 313L458 373M519 313L513 399M519 313L585 350M627 285L686 304M627 285L585 350M686 304L781 268M686 304L692 385M686 304L765 367M781 268L848 316M781 268L765 367M848 316L921 297M848 316L859 340M921 297L968 271M921 297L859 340M921 297L970 334M968 271L970 334M1094 283L1164 292M1094 283L1111 364M1164 292L1111 364M1164 292L1142 384M1260 301L1319 288M1260 301L1245 387M1260 301L1329 354M1319 288L1394 289M1319 288L1329 354M1319 288L1377 368M1394 289L1329 354M1394 289L1377 368M1520 310L1550 302M1520 310L1490 360M1520 310L1573 370M1520 310L1545 402M1550 302L1490 360M1550 302L1573 370M1550 302L1545 402M1744 295L1803 281M1744 295L1840 296M1744 295L1706 381M1744 295L1808 358M1803 281L1840 296M1803 281L1808 358M1803 281L1842 349M1840 296L1808 358M1840 296L1842 349M1987 283L2049 290M1987 283L1982 365M2049 290L2081 251M2049 290L2081 321M2081 251L2081 321M2234 301L2315 289M2234 301L2290 329M2234 301L2250 401M2315 289L2379 279M2315 289L2290 329M2315 289L2373 352M2379 279L2438 298M2379 279L2373 352M2438 298L2509 254M2438 298L2373 352M2438 298L2400 397M2438 298L2530 327M2509 254L2530 327M54 337L104 376M54 337L-30 327M54 337L27 448M2614 337L2530 327M104 376L27 448M104 376L116 440M104 376L65 485M225 329L284 363M284 363L363 389M284 363L196 445M284 363L316 401M363 389L458 373M363 389L316 401M363 389L386 465M363 389L412 455M458 373L513 399M458 373L412 455M458 373L487 419M513 399L585 350M513 399L487 419M513 399L511 520M585 350L636 449M692 385L765 367M692 385L636 449M692 385L680 447M765 367L859 340M765 367L770 458M859 340L955 395M859 340L970 334M955 395L970 334M955 395L891 474M955 395L1007 405M970 334L1007 405M1111 364L1142 384M1111 364L1111 408M1142 384L1111 408M1142 384L1176 433M1142 384L1122 483M1245 387L1329 354M1245 387L1176 433M1245 387L1215 477M1245 387L1330 446M1329 354L1377 368M1377 368L1330 446M1377 368L1436 406M1490 360L1573 370M1490 360L1436 406M1490 360L1545 402M1573 370L1645 383M1573 370L1545 402M1645 383L1706 381M1645 383L1679 455M1706 381L1679 455M1706 381L1759 450M1808 358L1842 349M1808 358L1830 449M1842 349L1904 425M1982 365L2058 369M1982 365L1904 425M1982 365L2046 437M2058 369L2081 321M2058 369L2046 437M2058 369L2103 400M2081 321L2103 400M2193 387L2103 400M2193 387L2214 456M2193 387L2250 401M2193 387L2244 486M2290 329L2250 401M2373 352L2400 397M2373 352L2381 419M2400 397L2381 419M2400 397L2412 478M2530 327L2507 431M27 448L116 440M27 448L-53 431M27 448L65 485M2587 448L2507 431M116 440L196 445M116 440L65 485M116 440L139 545M316 401L386 465M316 401L342 496M386 465L412 455M386 465L342 496M386 465L426 522M412 455L342 496M412 455L426 522M487 419L511 520M636 449L680 447M636 449L632 524M636 449L691 502M680 447L770 458M680 447L632 524M680 447L691 502M770 458L776 515M770 458L818 516M861 459L891 474M861 459L818 516M861 459L951 515M891 474L818 516M891 474L951 515M891 474L963 520M1111 408L1176 433M1111 408L1101 512M1111 408L1122 483M1176 433L1215 477M1176 433L1122 483M1215 477L1122 483M1215 477L1206 546M1215 477L1175 563M1330 446L1440 468M1330 446L1323 538M1436 406L1440 468M1436 406L1457 482M1440 468L1402 539M1440 468L1457 482M1545 402L1580 499M1679 455L1759 450M1679 455L1672 494M1679 455L1725 513M1759 450L1830 449M1759 450L1672 494M1759 450L1725 513M1830 449L1904 425M1830 449L1928 472M1830 449L1848 523M1904 425L1928 472M1928 472L1848 523M1928 472L1975 551M2046 437L2103 400M2103 400L2214 456M2214 456L2250 401M2214 456L2207 535M2214 456L2244 486M2250 401L2244 486M2381 419L2412 478M2381 419L2359 487M2381 419L2419 494M2412 478L2359 487M2412 478L2419 494M2412 478L2419 569M2507 431L2501 512M65 485L139 545M65 485L26 564M139 545L185 541M139 545L132 592M185 541L274 541M185 541L132 592M185 541L228 597M274 541L342 496M274 541L228 597M274 541L279 589M426 522L511 520M426 522L485 575M511 520L485 575M632 524L691 502M632 524L632 596M632 524L679 591M691 502L776 515M691 502L679 591M776 515L818 516M776 515L755 618M776 515L834 588M818 516L834 588M951 515L963 520M951 515L953 584M951 515L1004 613M963 520L953 584M1101 512L1122 483M1101 512L1206 546M1101 512L1072 607M1101 512L1175 563M1206 546L1175 563M1206 546L1234 600M1323 538L1402 539M1323 538L1234 600M1323 538L1400 622M1402 539L1457 482M1402 539L1354 635M1402 539L1400 622M1457 482L1580 499M1580 499L1672 494M1580 499L1584 567M1672 494L1725 513M1725 513L1666 619M1725 513L1701 616M1828 552L1848 523M1828 552L1810 579M1828 552L1870 617M1848 523L1810 579M1848 523L1870 617M1975 551L2031 541M1975 551L1963 632M1975 551L2025 618M2031 541L2121 555M2031 541L2025 618M2031 541L2083 630M2121 555L2207 535M2121 555L2083 630M2207 535L2244 486M2207 535L2254 634M2244 486L2359 487M2359 487L2419 494M2359 487L2419 569M2419 494L2501 512M2419 494L2419 569M2501 512L2586 564M2501 512L2551 604M-59 512L26 564M26 564L-9 604M2586 564L2551 604M132 592L228 597M132 592L66 665M132 592L133 664M228 597L279 589M228 597L236 659M279 589L377 606M279 589L236 659M279 589L300 696M377 606L442 613M377 606L485 575M377 606L372 686M377 606L433 666M442 613L485 575M442 613L372 686M442 613L433 666M442 613L492 666M485 575L492 666M632 596L679 591M632 596L605 676M632 596L652 666M679 591L755 618M679 591L652 666M755 618L834 588M755 618L652 666M755 618L766 699M834 588L953 584M834 588L766 699M953 584L1004 613M953 584L1039 651M1004 613L1072 607M1004 613L1039 651M1004 613L1103 643M1072 607L1175 563M1072 607L1039 651M1072 607L1103 643M1175 563L1234 600M1234 600L1265 659M1354 635L1400 622M1354 635L1265 659M1354 635L1307 715M1354 635L1364 695M1400 622L1501 610M1400 622L1364 695M1501 610L1584 567M1501 610L1507 697M1501 610L1520 664M1584 567L1666 619M1666 619L1701 616M1666 619L1607 715M1666 619L1697 667M1701 616L1810 579M1701 616L1697 667M1810 579L1870 617M1870 617L1845 690M1963 632L2025 618M1963 632L1987 712M1963 632L2006 654M1963 632L1955 724M2025 618L2083 630M2025 618L2006 654M2083 630L2006 654M2083 630L2121 684M2207 638L2254 634M2207 638L2121 684M2207 638L2227 709M2207 638L2257 713M2207 638L2193 732M2254 634L2227 709M2254 634L2257 713M2254 634L2350 641M2384 591L2419 569M2384 591L2350 641M2419 569L2350 641M2551 604L2626 665M2551 604L2511 699M-9 604L66 665M66 665L133 664M66 665L72 755M133 664L236 659M133 664L72 755M133 664L124 741M236 659L300 696M236 659L256 741M300 696L372 686M300 696L256 741M300 696L333 748M372 686L433 666M372 686L333 748M433 666L492 666M433 666L451 763M492 666L605 676M492 666L451 763M605 676L652 666M605 676L605 751M652 666L605 751M766 699L842 720M766 699L751 793M766 699L805 799M842 720L906 718M842 720L805 799M842 720L947 742M906 718L947 742M1039 651L1103 643M1103 643L1151 692M1151 692L1084 757M1265 659L1307 715M1265 659L1286 750M1307 715L1364 695M1307 715L1260 773M1307 715L1286 750M1364 695L1286 750M1364 695L1437 750M1507 697L1520 664M1507 697L1437 750M1507 697L1482 782M1507 697L1547 741M1520 664L1607 715M1520 664L1547 741M1607 715L1697 667M1607 715L1547 741M1607 715L1652 791M1697 667L1740 745M1829 705L1845 690M1829 705L1785 787M1829 705L1869 747M1845 690L1869 747M1987 712L2006 654M1987 712L1955 724M1987 712L2043 796M1987 712L1958 806M2006 654L1955 724M2121 684L2099 758M2121 684L2193 732M2227 709L2257 713M2227 709L2193 732M2227 709L2277 763M2257 713L2193 732M2257 713L2277 763M2350 641L2433 718M2350 641L2381 742M2433 718L2511 699M2433 718L2381 742M2433 718L2438 761M2433 718L2486 789M2511 699L2438 761M2511 699L2486 789M72 755L124 741M72 755L57 802M72 755L112 807M124 741L199 784M124 741L57 802M124 741L112 807M199 784L256 741M199 784L164 850M199 784L177 885M256 741L333 748M256 741L300 824M333 748L300 824M333 748L336 821M451 763L482 796M451 763L480 854M451 763L499 864M482 796L480 854M482 796L499 864M482 796L597 809M605 751L688 782M605 751L597 809M688 782L751 793M688 782L597 809M688 782L668 859M751 793L805 799M751 793L786 871M751 793L805 857M805 799L786 871M805 799L805 857M947 742L1011 794M947 742L951 847M1011 794L1084 757M1011 794L951 847M1011 794L1031 814M1084 757L1031 814M1084 757L1130 825M1185 796L1260 773M1185 796L1116 851M1185 796L1130 825M1185 796L1252 831M1260 773L1286 750M1260 773L1252 831M1286 750L1252 831M1437 750L1482 782M1437 750L1404 848M1482 782L1547 741M1482 782L1506 851M1482 782L1525 840M1547 741L1525 840M1652 791L1740 745M1652 791L1670 864M1652 791L1695 817M1740 745L1785 787M1740 745L1695 817M1740 745L1770 822M1785 787L1770 822M1869 747L1955 724M1869 747L1911 842M1955 724L1958 806M2043 796L2099 758M2043 796L1958 806M2043 796L2055 838M2043 796L2120 846M2193 732L2277 763M2277 763L2306 840M2277 763L2335 852M2381 742L2438 761M2438 761L2486 789M2438 761L2428 864M2486 789L2428 864M2486 789L2510 869M57 802L112 807M57 802L164 850M112 807L164 850M112 807L177 885M164 850L111 923M164 850L177 885M300 824L336 821M300 824L289 927M336 821L289 927M480 854L499 864M480 854L539 930M499 864L467 948M499 864L539 930M597 809L668 859M668 859L662 953M668 859L748 911M786 871L805 857M786 871L748 911M786 871L849 902M805 857L748 911M805 857L849 902M951 847L1031 814M951 847L906 899M951 847L1013 928M1031 814L1130 825M1031 814L1066 881M1116 851L1130 825M1116 851L1066 881M1116 851L1193 905M1130 825L1066 881M1252 831L1193 905M1252 831L1238 907M1347 877L1404 848M1347 877L1238 907M1347 877L1347 895M1347 877L1387 930M1347 877L1362 961M1404 848L1506 851M1404 848L1347 895M1404 848L1387 930M1506 851L1525 840M1506 851L1494 944M1506 851L1545 921M1525 840L1494 944M1525 840L1545 921M1670 864L1695 817M1670 864L1770 822M1670 864L1649 915M1670 864L1724 944M1695 817L1770 822M1770 822L1824 921M1911 842L1958 806M1911 842L1824 921M1911 842L1879 887M1958 806L2055 838M2055 838L2120 846M2055 838L2022 897M2055 838L2093 894M2120 846L2170 865M2120 846L2093 894M2120 846L2181 905M2170 865L2093 894M2170 865L2181 905M2306 840L2335 852M2306 840L2302 941M2335 852L2428 864M2335 852L2302 941M2428 864L2510 869M2428 864L2470 913M2510 869L2470 913M2510 869L2545 928M27 952L111 923M27 952L-15 928M27 952L7 990M27 952L127 960M2587 952L2545 928M111 923L177 885M111 923L127 960M111 923L164 1022M177 885L127 960M289 927L394 941M289 927L310 978M394 941L467 948M394 941L310 978M394 941L386 1026M394 941L437 970M467 948L539 930M467 948L437 970M539 930L596 949M539 930L542 992M596 949L662 953M596 949L542 992M596 949L562 1030M596 949L661 1021M662 953L748 911M662 953L661 1021M662 953L750 972M748 911L750 972M849 902L906 899M849 902L823 974M849 902L887 967M906 899L1013 928M906 899L887 967M1013 928L1066 881M1013 928L1003 972M1066 881L1003 972M1193 905L1238 907M1347 895L1387 930M1347 895L1330 1008M1347 895L1362 961M1387 930L1362 961M1387 930L1452 974M1494 944L1545 921M1494 944L1452 974M1494 944L1536 1005M1545 921L1649 915M1545 921L1536 1005M1649 915L1724 944M1649 915L1607 1030M1649 915L1696 1002M1724 944L1824 921M1724 944L1696 1002M1724 944L1765 976M1824 921L1879 887M1824 921L1765 976M1879 887L1917 1002M1879 887L1945 973M1988 946L2022 897M1988 946L1917 1002M1988 946L1945 973M1988 946L2037 975M2022 897L2093 894M2022 897L1945 973M2022 897L2037 975M2302 941L2391 957M2302 941L2309 1014M2302 941L2327 969M2391 957L2470 913M2391 957L2309 1014M2391 957L2327 969M2391 957L2443 985M2470 913L2545 928M2470 913L2443 985M2545 928L2567 990M2545 928L2481 1022M-15 928L7 990M7 990L-79 1022M7 990L-89 1048M7 990L-17 1055M2567 990L2481 1022M2567 990L2471 1048M2567 990L2543 1055M127 960L164 1022M127 960L130 1065M164 1022L130 1065M164 1022L231 1064M310 978L386 1026M310 978L267 1087M310 978L344 1086M386 1026L437 970M386 1026L344 1086M437 970L478 1060M542 992L562 1030M542 992L478 1060M542 992L561 1058M562 1030L478 1060M562 1030L548 1085M562 1030L561 1058M661 1021L750 972M661 1021L561 1058M661 1021L710 1089M750 972L823 974M750 972L740 1080M823 974L887 967M887 967L1003 972M887 967L876 1078M1003 972L1100 1032M1003 972L1046 1073M1100 1032L1171 1025M1100 1032L996 1101M1100 1032L1046 1073M1100 1032L1130 1108M1171 1025L1268 1031M1268 1031L1330 1008M1268 1031L1277 1113M1268 1031L1285 1055M1330 1008L1362 961M1330 1008L1285 1055M1362 961L1452 974M1452 974L1536 1005M1536 1005L1607 1030M1607 1030L1696 1002M1607 1030L1591 1088M1607 1030L1612 1077M1696 1002L1765 976M1696 1002L1742 1096M1917 1002L1945 973M1917 1002L1900 1112M1945 973L2037 975M2037 975L2096 1004M2037 975L2069 1052M2096 1004L2196 1033M2096 1004L2069 1052M2096 1004L2094 1045M2096 1004L2184 1071M2196 1033L2094 1045M2196 1033L2184 1071M2196 1033L2312 1053M2309 1014L2327 969M2309 1014L2312 1053M2309 1014L2342 1058M2327 969L2312 1053M2327 969L2342 1058M2443 985L2481 1022M2443 985L2471 1048M2481 1022L2471 1048M2481 1022L2543 1055M65 1115L130 1065M65 1115L-17 1055M65 1115L28 1167M65 1115L94 1187M65 1115L-12 1136M2625 1115L2543 1055M2625 1115L2548 1136M130 1065L231 1064M231 1064L267 1087M231 1064L344 1086M267 1087L344 1086M267 1087L272 1182M267 1087L328 1172M344 1086L328 1172M478 1060L548 1085M478 1060L561 1058M548 1085L561 1058M548 1085L549 1177M548 1085L612 1195M710 1089L740 1080M710 1089L717 1139M740 1080L717 1139M740 1080L784 1162M876 1078L886 1086M876 1078L839 1174M886 1086L996 1101M886 1086L839 1174M886 1086L958 1164M996 1101L1046 1073M996 1101L958 1164M996 1101L1006 1182M1046 1073L1130 1108M1130 1108L1110 1200M1130 1108L1138 1165M1130 1108L1219 1146M1277 1113L1285 1055M1277 1113L1377 1109M1277 1113L1219 1146M1277 1113L1313 1179M1285 1055L1377 1109M1377 1109L1407 1196M1500 1120L1591 1088M1500 1120L1493 1191M1591 1088L1612 1077M1591 1088L1584 1155M1591 1088L1661 1132M1612 1077L1584 1155M1612 1077L1661 1132M1742 1096L1836 1097M1742 1096L1661 1132M1742 1096L1694 1184M1742 1096L1768 1138M1836 1097L1900 1112M1836 1097L1768 1138M1836 1097L1889 1169M1900 1112L1970 1118M1900 1112L1889 1169M1970 1118L2069 1052M1970 1118L1889 1169M1970 1118L1996 1164M1970 1118L1973 1220M2069 1052L2094 1045M2069 1052L2184 1071M2094 1045L2184 1071M2184 1071L2201 1165M2312 1053L2342 1058M2471 1048L2543 1055M2543 1055L2548 1136M28 1167L94 1187M28 1167L-12 1136M28 1167L1 1214M28 1167L-39 1211M2588 1167L2548 1136M2588 1167L2521 1211M94 1187L188 1195M94 1187L1 1214M94 1187L136 1241M188 1195L272 1182M188 1195L136 1241M188 1195L198 1263M188 1195L184 1295M272 1182L328 1172M272 1182L284 1201M272 1182L362 1218M328 1172L284 1201M328 1172L362 1218M459 1192L549 1177M459 1192L362 1218M459 1192L460 1250M459 1192L482 1225M549 1177L612 1195M549 1177L482 1225M549 1177L609 1214M612 1195L609 1214M612 1195L661 1240M717 1139L784 1162M717 1139L661 1240M717 1139L775 1224M784 1162L839 1174M784 1162L775 1224M784 1162L808 1255M839 1174L775 1224M958 1164L1006 1182M958 1164L950 1234M1006 1182L950 1234M1006 1182L1039 1247M1006 1182L1052 1253M1110 1200L1138 1165M1110 1200L1039 1247M1110 1200L1052 1253M1110 1200L1152 1206M1138 1165L1219 1146M1138 1165L1152 1206M1219 1146L1313 1179M1219 1146L1152 1206M1313 1179L1407 1196M1313 1179L1317 1269M1313 1179L1393 1234M1407 1196L1493 1191M1407 1196L1393 1234M1407 1196L1499 1227M1493 1191L1499 1227M1493 1191L1545 1227M1584 1155L1661 1132M1584 1155L1545 1227M1584 1155L1623 1226M1661 1132L1694 1184M1694 1184L1768 1138M1694 1184L1623 1226M1889 1169L1842 1245M1889 1169L1973 1220M1996 1164L2079 1187M1996 1164L2094 1176M1996 1164L1973 1220M1996 1164L2014 1247M2079 1187L2094 1176M2079 1187L2014 1247M2079 1187L2116 1236M2094 1176L2201 1165M2094 1176L2116 1236M2201 1165L2286 1168M2201 1165L2200 1258M2201 1165L2288 1228M2286 1168L2345 1168M2286 1168L2288 1228M2345 1168L2431 1180M2345 1168L2288 1228M2345 1168L2330 1263M2345 1168L2433 1209M2431 1180L2433 1209M2548 1136L2561 1214M2548 1136L2521 1211M-12 1136L1 1214M1 1214L-39 1211M1 1214L-37 1313M2561 1214L2521 1211M2561 1214L2523 1313M136 1241L198 1263M136 1241L110 1345M136 1241L184 1295M198 1263L284 1201M198 1263L184 1295M198 1263L269 1298M284 1201L362 1218M284 1201L269 1298M362 1218L460 1250M460 1250L482 1225M460 1250L454 1311M460 1250L518 1295M482 1225L454 1311M482 1225L518 1295M609 1214L661 1240M609 1214L688 1310M661 1240L688 1310M775 1224L808 1255M775 1224L793 1305M808 1255L793 1305M808 1255L879 1283M808 1255L892 1296M950 1234L1039 1247M950 1234L879 1283M950 1234L892 1296M1039 1247L1052 1253M1039 1247L1075 1300M1052 1253L1004 1333M1052 1253L1075 1300M1152 1206L1218 1259M1152 1206L1184 1298M1218 1259L1184 1298M1218 1259L1261 1325M1317 1269L1393 1234M1317 1269L1261 1325M1317 1269L1328 1335M1317 1269L1377 1344M1393 1234L1377 1344M1499 1227L1545 1227M1499 1227L1518 1306M1545 1227L1623 1226M1545 1227L1518 1306M1758 1275L1796 1260M1758 1275L1842 1245M1758 1275L1680 1343M1758 1275L1709 1344M1758 1275L1838 1339M1796 1260L1842 1245M1796 1260L1709 1344M1796 1260L1838 1339M1796 1260L1851 1355M1842 1245L1921 1296M1973 1220L2014 1247M1973 1220L1921 1296M2014 1247L2116 1236M2014 1247L2081 1329M2116 1236L2200 1258M2116 1236L2081 1329M2200 1258L2288 1228M2200 1258L2205 1337M2288 1228L2330 1263M2330 1263L2433 1209M2330 1263L2257 1331M2330 1263L2324 1352M2433 1209L2521 1211M2433 1209L2431 1302M2521 1211L2523 1313M20 1346L110 1345M20 1346L-37 1313M20 1346L19 1419M20 1346L-32 1403M2580 1346L2523 1313M2580 1346L2528 1403M110 1345L184 1295M110 1345L94 1429M184 1295L269 1298M269 1298L338 1356M269 1298L269 1391M338 1356L237 1421M338 1356L269 1391M338 1356L370 1398M454 1311L518 1295M454 1311L471 1425M518 1295L600 1332M518 1295L516 1381M600 1332L688 1310M600 1332L516 1381M600 1332L596 1422M793 1305L879 1283M793 1305L892 1296M793 1305L824 1367M879 1283L892 1296M879 1283L824 1367M892 1296L935 1387M1004 1333L1075 1300M1004 1333L935 1387M1004 1333L1048 1400M1075 1300L1184 1298M1075 1300L1048 1400M1184 1298L1261 1325M1184 1298L1182 1410M1261 1325L1328 1335M1261 1325L1294 1382M1328 1335L1377 1344M1328 1335L1294 1382M1377 1344L1294 1382M1377 1344L1434 1384M1518 1306L1524 1349M1518 1306L1506 1374M1524 1349L1434 1384M1524 1349L1506 1374M1524 1349L1566 1419M1680 1343L1709 1344M1680 1343L1670 1388M1709 1344L1670 1388M1709 1344L1757 1427M1838 1339L1851 1355M1838 1339L1821 1394M1838 1339L1907 1378M1851 1355L1921 1296M1851 1355L1821 1394M1851 1355L1907 1378M1921 1296L1907 1378M2030 1353L2081 1329M2030 1353L1963 1420M2030 1353L2034 1421M2081 1329L2034 1421M2081 1329L2151 1408M2205 1337L2257 1331M2205 1337L2151 1408M2205 1337L2236 1400M2205 1337L2245 1406M2257 1331L2324 1352M2257 1331L2236 1400M2257 1331L2245 1406M2324 1352L2404 1391M2431 1302L2523 1313M2431 1302L2404 1391M2523 1313L2528 1403M19 1419L94 1429M19 1419L-32 1403M2579 1419L2528 1403M237 1421L269 1391M370 1398L471 1425M471 1425L516 1381M516 1381L596 1422M596 1422L652 1435M652 1435L753 1433M753 1433L824 1367M935 1387L1007 1437M1007 1437L1048 1400M1182 1410L1222 1413M1222 1413L1294 1382M1434 1384L1506 1374M1506 1374L1566 1419M1670 1388L1757 1427M1757 1427L1821 1394M1821 1394L1907 1378M1907 1378L1963 1420M1963 1420L2034 1421M2236 1400L2245 1406M2396 1439L2404 1391"/></svg>