<svg xmlns="http://www.w3.org/2000/svg" width="2560" height="1440" fill="#fff"><circle cx="36" cy="6" r="6"/><circle cx="155" cy="56" r="6"/><circle cx="179" cy="50" r="4"/><circle cx="292" cy="62" r="4"/><circle cx="351" cy="10" r="4"/><circle cx="421" cy="43" r="5"/><circle cx="547" cy="33" r="5"/><circle cx="596" cy="5" r="5"/><circle cx="642" cy="27" r="4"/><circle cx="727" cy="52" r="5"/><circle cx="837" cy="62" r="4"/><circle cx="891" cy="49" r="5"/><circle cx="987" cy="23" r="5"/><circle cx="1089" cy="72" r="5"/><circle cx="1136" cy="16" r="6"/><circle cx="1264" cy="12" r="4"/><circle cx="1339" cy="74" r="5"/><circle cx="1424" cy="39" r="5"/><circle cx="1503" cy="9" r="5"/><circle cx="1575" cy="23" r="5"/><circle cx="1602" cy="62" r="5"/><circle cx="1683" cy="38" r="5"/><circle cx="1805" cy="9" r="4"/><circle cx="1872" cy="15" r="5"/><circle cx="1941" cy="69" r="4"/><circle cx="2074" cy="74" r="6"/><circle cx="2140" cy="35" r="5"/><circle cx="2161" cy="69" r="5"/><circle cx="2279" cy="34" r="6"/><circle cx="2382" cy="58" r="4"/><circle cx="2419" cy="15" r="6"/><circle cx="2499" cy="73" r="5"/><circle cx="64" cy="127" r="5"/><circle cx="82" cy="103" r="5"/><circle cx="183" cy="100" r="6"/><circle cx="242" cy="153" r="6"/><circle cx="352" cy="97" r="5"/><circle cx="410" cy="144" r="5"/><circle cx="504" cy="133" r="6"/><circle cx="582" cy="84" r="6"/><circle cx="664" cy="140" r="4"/><circle cx="784" cy="116" r="5"/><circle cx="876" cy="112" r="5"/><circle cx="956" cy="85" r="5"/><circle cx="1016" cy="151" r="5"/><circle cx="1078" cy="154" r="4"/><circle cx="1169" cy="119" r="6"/><circle cx="1224" cy="82" r="6"/><circle cx="1303" cy="160" r="5"/><circle cx="1405" cy="135" r="4"/><circle cx="1474" cy="137" r="4"/><circle cx="1591" cy="92" r="5"/><circle cx="1658" cy="134" r="5"/><circle cx="1717" cy="93" r="5"/><circle cx="1806" cy="116" r="5"/><circle cx="1841" cy="141" r="4"/><circle cx="1958" cy="111" r="4"/><circle cx="2009" cy="117" r="4"/><circle cx="2097" cy="145" r="4"/><circle cx="2202" cy="158" r="5"/><circle cx="2283" cy="154" r="4"/><circle cx="2364" cy="130" r="5"/><circle cx="2448" cy="82" r="4"/><circle cx="2481" cy="94" r="5"/><circle cx="5" cy="225" r="5"/><circle cx="158" cy="181" r="4"/><circle cx="179" cy="237" r="5"/><circle cx="261" cy="214" r="5"/><circle cx="345" cy="186" r="6"/><circle cx="458" cy="200" r="4"/><circle cx="555" cy="195" r="5"/><circle cx="601" cy="206" r="4"/><circle cx="647" cy="220" r="5"/><circle cx="787" cy="170" r="4"/><circle cx="822" cy="232" r="5"/><circle cx="890" cy="238" r="5"/><circle cx="1038" cy="195" r="5"/><circle cx="1051" cy="209" r="6"/><circle cx="1191" cy="231" r="5"/><circle cx="1202" cy="166" r="6"/><circle cx="1334" cy="214" r="4"/><circle cx="1400" cy="179" r="6"/><circle cx="1442" cy="168" r="5"/><circle cx="1584" cy="168" r="4"/><circle cx="1644" cy="232" r="5"/><circle cx="1705" cy="220" r="5"/><circle cx="1818" cy="210" r="5"/><circle cx="1907" cy="163" r="4"/><circle cx="1970" cy="180" r="4"/><circle cx="2068" cy="163" r="5"/><circle cx="2104" cy="198" r="5"/><circle cx="2220" cy="193" r="6"/><circle cx="2252" cy="160" r="6"/><circle cx="2347" cy="238" r="5"/><circle cx="2423" cy="217" r="5"/><circle cx="2520" cy="189" r="6"/><circle cx="22" cy="272" r="5"/><circle cx="112" cy="266" r="5"/><circle cx="202" cy="251" r="6"/><circle cx="319" cy="243" r="4"/><circle cx="356" cy="281" r="6"/><circle cx="454" cy="270" r="5"/><circle cx="527" cy="269" r="5"/><circle cx="579" cy="252" r="5"/><circle cx="709" cy="257" r="5"/><circle cx="782" cy="293" r="6"/><circle cx="867" cy="264" r="5"/><circle cx="944" cy="314" r="5"/><circle cx="998" cy="266" r="5"/><circle cx="1100" cy="241" r="4"/><circle cx="1148" cy="271" r="4"/><circle cx="1253" cy="282" r="4"/><circle cx="1337" cy="262" r="4"/><circle cx="1370" cy="263" r="5"/><circle cx="1441" cy="242" r="4"/><circle cx="1566" cy="288" r="6"/><circle cx="1671" cy="253" r="5"/><circle cx="1723" cy="247" r="5"/><circle cx="1764" cy="299" r="4"/><circle cx="1898" cy="243" r="4"/><circle cx="1946" cy="313" r="5"/><circle cx="2025" cy="253" r="6"/><circle cx="2081" cy="245" r="6"/><circle cx="2232" cy="296" r="4"/><circle cx="2246" cy="315" r="5"/><circle cx="2334" cy="295" r="5"/><circle cx="2422" cy="312" r="6"/><circle cx="2494" cy="257" r="6"/><circle cx="41" cy="358" r="5"/><circle cx="145" cy="363" r="6"/><circle cx="172" cy="391" r="5"/><circle cx="264" cy="325" r="6"/><circle cx="390" cy="390" r="5"/><circle cx="460" cy="380" r="5"/><circle cx="529" cy="360" r="5"/><circle cx="563" cy="322" r="4"/><circle cx="676" cy="326" r="5"/><circle cx="792" cy="330" r="4"/><circle cx="849" cy="342" r="5"/><circle cx="957" cy="377" r="4"/><circle cx="1015" cy="355" r="5"/><circle cx="1082" cy="324" r="6"/><circle cx="1140" cy="369" r="5"/><circle cx="1215" cy="331" r="6"/><circle cx="1303" cy="326" r="5"/><circle cx="1375" cy="383" r="5"/><circle cx="1471" cy="342" r="5"/><circle cx="1540" cy="399" r="4"/><circle cx="1654" cy="357" r="6"/><circle cx="1755" cy="360" r="4"/><circle cx="1810" cy="359" r="5"/><circle cx="1868" cy="361" r="5"/><circle cx="1998" cy="336" r="5"/><circle cx="2014" cy="398" r="5"/><circle cx="2087" cy="369" r="5"/><circle cx="2212" cy="343" r="5"/><circle cx="2257" cy="370" r="5"/><circle cx="2372" cy="333" r="5"/><circle cx="2459" cy="349" r="5"/><circle cx="2526" cy="365" r="5"/><circle cx="4" cy="440" r="6"/><circle cx="2564" cy="440" r="6"/><circle cx="155" cy="471" r="5"/><circle cx="200" cy="470" r="6"/><circle cx="256" cy="453" r="4"/><circle cx="333" cy="473" r="5"/><circle cx="427" cy="437" r="5"/><circle cx="512" cy="406" r="4"/><circle cx="593" cy="467" r="6"/><circle cx="665" cy="413" r="6"/><circle cx="760" cy="452" r="4"/><circle cx="817" cy="439" r="6"/><circle cx="910" cy="438" r="4"/><circle cx="1037" cy="460" r="4"/><circle cx="1117" cy="465" r="4"/><circle cx="1139" cy="470" r="6"/><circle cx="1257" cy="434" r="5"/><circle cx="1310" cy="442" r="6"/><circle cx="1425" cy="453" r="4"/><circle cx="1508" cy="443" r="5"/><circle cx="1557" cy="400" r="5"/><circle cx="1664" cy="433" r="6"/><circle cx="1704" cy="469" r="5"/><circle cx="1784" cy="453" r="4"/><circle cx="1860" cy="479" r="6"/><circle cx="1941" cy="415" r="5"/><circle cx="2067" cy="424" r="4"/><circle cx="2094" cy="432" r="4"/><circle cx="2160" cy="447" r="6"/><circle cx="2282" cy="467" r="6"/><circle cx="2376" cy="478" r="6"/><circle cx="2418" cy="477" r="5"/><circle cx="2557" cy="440" r="4"/><circle cx="-3" cy="440" r="4"/><circle cx="32" cy="554" r="4"/><circle cx="126" cy="540" r="5"/><circle cx="167" cy="522" r="4"/><circle cx="272" cy="492" r="4"/><circle cx="340" cy="487" r="6"/><circle cx="451" cy="511" r="4"/><circle cx="514" cy="536" r="5"/><circle cx="600" cy="498" r="5"/><circle cx="667" cy="494" r="5"/><circle cx="729" cy="520" r="5"/><circle cx="831" cy="516" r="6"/><circle cx="931" cy="483" r="6"/><circle cx="972" cy="558" r="6"/><circle cx="1093" cy="534" r="4"/><circle cx="1198" cy="520" r="5"/><circle cx="1272" cy="482" r="5"/><circle cx="1354" cy="531" r="4"/><circle cx="1389" cy="499" r="5"/><circle cx="1517" cy="499" r="6"/><circle cx="1567" cy="516" r="4"/><circle cx="1662" cy="500" r="6"/><circle cx="1720" cy="490" r="5"/><circle cx="1814" cy="512" r="4"/><circle cx="1862" cy="510" r="5"/><circle cx="1945" cy="543" r="6"/><circle cx="2028" cy="499" r="4"/><circle cx="2088" cy="540" r="4"/><circle cx="2223" cy="481" r="5"/><circle cx="2279" cy="531" r="5"/><circle cx="2351" cy="505" r="5"/><circle cx="2445" cy="512" r="5"/><circle cx="2538" cy="512" r="4"/><circle cx="76" cy="619" r="5"/><circle cx="137" cy="563" r="5"/><circle cx="223" cy="568" r="5"/><circle cx="275" cy="567" r="4"/><circle cx="389" cy="564" r="5"/><circle cx="438" cy="596" r="6"/><circle cx="524" cy="618" r="5"/><circle cx="618" cy="613" r="4"/><circle cx="684" cy="618" r="4"/><circle cx="737" cy="565" r="6"/><circle cx="850" cy="595" r="6"/><circle cx="942" cy="571" r="5"/><circle cx="1032" cy="577" r="6"/><circle cx="1081" cy="597" r="5"/><circle cx="1159" cy="575" r="6"/><circle cx="1278" cy="618" r="6"/><circle cx="1347" cy="592" r="4"/><circle cx="1392" cy="624" r="4"/><circle cx="1449" cy="595" r="5"/><circle cx="1527" cy="620" r="5"/><circle cx="1644" cy="566" r="4"/><circle cx="1730" cy="626" r="5"/><circle cx="1779" cy="632" r="6"/><circle cx="1904" cy="581" r="5"/><circle cx="1977" cy="599" r="5"/><circle cx="2034" cy="620" r="4"/><circle cx="2140" cy="630" r="4"/><circle cx="2227" cy="601" r="5"/><circle cx="2314" cy="607" r="4"/><circle cx="2357" cy="615" r="5"/><circle cx="2448" cy="634" r="5"/><circle cx="2522" cy="569" r="5"/><circle cx="3" cy="718" r="4"/><circle cx="2563" cy="718" r="4"/><circle cx="128" cy="660" r="5"/><circle cx="236" cy="691" r="5"/><circle cx="313" cy="702" r="5"/><circle cx="347" cy="719" r="4"/><circle cx="435" cy="656" r="5"/><circle cx="523" cy="678" r="5"/><circle cx="601" cy="648" r="5"/><circle cx="679" cy="642" r="6"/><circle cx="798" cy="692" r="5"/><circle cx="845" cy="716" r="5"/><circle cx="893" cy="719" r="5"/><circle cx="980" cy="685" r="5"/><circle cx="1075" cy="707" r="6"/><circle cx="1192" cy="641" r="5"/><circle cx="1222" cy="646" r="5"/><circle cx="1307" cy="714" r="5"/><circle cx="1430" cy="684" r="5"/><circle cx="1456" cy="660" r="6"/><circle cx="1592" cy="706" r="4"/><circle cx="1652" cy="670" r="5"/><circle cx="1759" cy="672" r="4"/><circle cx="1773" cy="663" r="6"/><circle cx="1845" cy="651" r="5"/><circle cx="1945" cy="662" r="5"/><circle cx="2078" cy="688" r="5"/><circle cx="2146" cy="706" r="5"/><circle cx="2174" cy="700" r="6"/><circle cx="2243" cy="696" r="5"/><circle cx="2360" cy="683" r="5"/><circle cx="2461" cy="715" r="4"/><circle cx="2514" cy="649" r="4"/><circle cx="18" cy="781" r="6"/><circle cx="134" cy="760" r="4"/><circle cx="174" cy="770" r="5"/><circle cx="311" cy="735" r="6"/><circle cx="338" cy="765" r="6"/><circle cx="415" cy="746" r="6"/><circle cx="507" cy="737" r="5"/><circle cx="582" cy="775" r="4"/><circle cx="714" cy="779" r="4"/><circle cx="739" cy="756" r="6"/><circle cx="877" cy="736" r="5"/><circle cx="900" cy="782" r="5"/><circle cx="985" cy="765" r="4"/><circle cx="1040" cy="726" r="4"/><circle cx="1120" cy="720" r="4"/><circle cx="1242" cy="783" r="4"/><circle cx="1329" cy="744" r="5"/><circle cx="1411" cy="786" r="4"/><circle cx="1479" cy="756" r="5"/><circle cx="1527" cy="746" r="5"/><circle cx="1670" cy="732" r="5"/><circle cx="1693" cy="748" r="5"/><circle cx="1819" cy="733" r="6"/><circle cx="1872" cy="746" r="6"/><circle cx="1963" cy="795" r="5"/><circle cx="2063" cy="791" r="6"/><circle cx="2157" cy="769" r="4"/><circle cx="2167" cy="739" r="6"/><circle cx="2294" cy="774" r="6"/><circle cx="2356" cy="793" r="5"/><circle cx="2463" cy="728" r="5"/><circle cx="2486" cy="724" r="4"/><circle cx="5" cy="834" r="6"/><circle cx="2565" cy="834" r="6"/><circle cx="132" cy="804" r="5"/><circle cx="204" cy="846" r="6"/><circle cx="264" cy="818" r="5"/><circle cx="356" cy="805" r="6"/><circle cx="403" cy="835" r="6"/><circle cx="491" cy="811" r="5"/><circle cx="593" cy="870" r="5"/><circle cx="718" cy="852" r="6"/><circle cx="779" cy="859" r="4"/><circle cx="856" cy="849" r="4"/><circle cx="891" cy="867" r="5"/><circle cx="1022" cy="877" r="5"/><circle cx="1052" cy="839" r="5"/><circle cx="1178" cy="853" r="4"/><circle cx="1204" cy="847" r="5"/><circle cx="1288" cy="850" r="5"/><circle cx="1413" cy="859" r="5"/><circle cx="1470" cy="875" r="6"/><circle cx="1574" cy="801" r="5"/><circle cx="1652" cy="837" r="4"/><circle cx="1735" cy="808" r="5"/><circle cx="1787" cy="857" r="6"/><circle cx="1910" cy="806" r="5"/><circle cx="1979" cy="880" r="5"/><circle cx="2077" cy="820" r="5"/><circle cx="2159" cy="808" r="6"/><circle cx="2184" cy="874" r="4"/><circle cx="2243" cy="846" r="6"/><circle cx="2382" cy="830" r="5"/><circle cx="2417" cy="832" r="5"/><circle cx="2488" cy="860" r="5"/><circle cx="26" cy="886" r="6"/><circle cx="136" cy="904" r="6"/><circle cx="197" cy="945" r="4"/><circle cx="271" cy="939" r="6"/><circle cx="391" cy="936" r="5"/><circle cx="422" cy="895" r="6"/><circle cx="526" cy="908" r="5"/><circle cx="573" cy="888" r="5"/><circle cx="714" cy="917" r="5"/><circle cx="791" cy="918" r="4"/><circle cx="818" cy="905" r="5"/><circle cx="893" cy="913" r="6"/><circle cx="1028" cy="891" r="5"/><circle cx="1041" cy="930" r="5"/><circle cx="1129" cy="915" r="4"/><circle cx="1210" cy="912" r="4"/><circle cx="1322" cy="943" r="4"/><circle cx="1426" cy="925" r="4"/><circle cx="1457" cy="958" r="4"/><circle cx="1569" cy="900" r="5"/><circle cx="1651" cy="913" r="5"/><circle cx="1726" cy="880" r="5"/><circle cx="1779" cy="954" r="5"/><circle cx="1874" cy="947" r="5"/><circle cx="1937" cy="946" r="4"/><circle cx="2067" cy="929" r="5"/><circle cx="2103" cy="946" r="4"/><circle cx="2172" cy="958" r="5"/><circle cx="2280" cy="897" r="5"/><circle cx="2399" cy="940" r="5"/><circle cx="2418" cy="882" r="5"/><circle cx="2539" cy="958" r="5"/><circle cx="80" cy="970" r="5"/><circle cx="95" cy="1007" r="5"/><circle cx="222" cy="1012" r="5"/><circle cx="269" cy="977" r="4"/><circle cx="336" cy="1004" r="4"/><circle cx="476" cy="966" r="5"/><circle cx="514" cy="1030" r="4"/><circle cx="605" cy="1013" r="5"/><circle cx="679" cy="1037" r="5"/><circle cx="779" cy="972" r="5"/><circle cx="863" cy="1000" r="6"/><circle cx="956" cy="1020" r="5"/><circle cx="1012" cy="966" r="6"/><circle cx="1041" cy="1023" r="5"/><circle cx="1170" cy="987" r="5"/><circle cx="1278" cy="1037" r="5"/><circle cx="1331" cy="980" r="5"/><circle cx="1363" cy="1029" r="5"/><circle cx="1508" cy="1013" r="4"/><circle cx="1536" cy="1004" r="6"/><circle cx="1658" cy="1024" r="5"/><circle cx="1721" cy="1002" r="6"/><circle cx="1812" cy="971" r="4"/><circle cx="1851" cy="1008" r="4"/><circle cx="1925" cy="1016" r="5"/><circle cx="2048" cy="967" r="5"/><circle cx="2098" cy="1027" r="4"/><circle cx="2225" cy="1010" r="5"/><circle cx="2292" cy="962" r="6"/><circle cx="2327" cy="1036" r="5"/><circle cx="2414" cy="989" r="6"/><circle cx="2511" cy="992" r="6"/><circle cx="48" cy="1076" r="6"/><circle cx="93" cy="1046" r="5"/><circle cx="207" cy="1085" r="4"/><circle cx="306" cy="1104" r="5"/><circle cx="361" cy="1099" r="4"/><circle cx="411" cy="1087" r="5"/><circle cx="512" cy="1103" r="5"/><circle cx="562" cy="1107" r="5"/><circle cx="692" cy="1109" r="4"/><circle cx="760" cy="1044" r="5"/><circle cx="845" cy="1048" r="4"/><circle cx="946" cy="1119" r="4"/><circle cx="1028" cy="1040" r="5"/><circle cx="1075" cy="1113" r="4"/><circle cx="1196" cy="1077" r="5"/><circle cx="1249" cy="1108" r="5"/><circle cx="1338" cy="1101" r="5"/><circle cx="1428" cy="1082" r="5"/><circle cx="1503" cy="1091" r="5"/><circle cx="1552" cy="1071" r="4"/><circle cx="1614" cy="1068" r="6"/><circle cx="1742" cy="1051" r="6"/><circle cx="1802" cy="1119" r="5"/><circle cx="1861" cy="1072" r="5"/><circle cx="1988" cy="1040" r="6"/><circle cx="2023" cy="1086" r="4"/><circle cx="2153" cy="1075" r="5"/><circle cx="2188" cy="1046" r="6"/><circle cx="2297" cy="1063" r="5"/><circle cx="2385" cy="1070" r="6"/><circle cx="2445" cy="1053" r="4"/><circle cx="2526" cy="1068" r="5"/><circle cx="28" cy="1173" r="4"/><circle cx="151" cy="1197" r="4"/><circle cx="191" cy="1193" r="6"/><circle cx="307" cy="1187" r="5"/><circle cx="340" cy="1145" r="5"/><circle cx="432" cy="1130" r="5"/><circle cx="553" cy="1178" r="5"/><circle cx="595" cy="1121" r="5"/><circle cx="656" cy="1140" r="5"/><circle cx="799" cy="1142" r="6"/><circle cx="851" cy="1122" r="6"/><circle cx="954" cy="1186" r="4"/><circle cx="1023" cy="1182" r="4"/><circle cx="1094" cy="1125" r="4"/><circle cx="1181" cy="1150" r="5"/><circle cx="1241" cy="1151" r="5"/><circle cx="1345" cy="1129" r="5"/><circle cx="1395" cy="1183" r="5"/><circle cx="1450" cy="1134" r="5"/><circle cx="1585" cy="1146" r="5"/><circle cx="1664" cy="1171" r="5"/><circle cx="1697" cy="1145" r="5"/><circle cx="1800" cy="1179" r="4"/><circle cx="1883" cy="1178" r="6"/><circle cx="1927" cy="1182" r="6"/><circle cx="2002" cy="1175" r="5"/><circle cx="2089" cy="1141" r="4"/><circle cx="2236" cy="1195" r="4"/><circle cx="2287" cy="1144" r="5"/><circle cx="2365" cy="1148" r="5"/><circle cx="2443" cy="1134" r="6"/><circle cx="2524" cy="1192" r="4"/><circle cx="58" cy="1215" r="5"/><circle cx="132" cy="1231" r="4"/><circle cx="218" cy="1253" r="5"/><circle cx="293" cy="1271" r="5"/><circle cx="335" cy="1232" r="4"/><circle cx="416" cy="1234" r="4"/><circle cx="482" cy="1267" r="5"/><circle cx="609" cy="1278" r="6"/><circle cx="684" cy="1227" r="5"/><circle cx="730" cy="1272" r="6"/><circle cx="866" cy="1220" r="6"/><circle cx="928" cy="1255" r="6"/><circle cx="1040" cy="1261" r="5"/><circle cx="1114" cy="1251" r="5"/><circle cx="1153" cy="1254" r="5"/><circle cx="1225" cy="1226" r="5"/><circle cx="1314" cy="1253" r="6"/><circle cx="1404" cy="1218" r="5"/><circle cx="1448" cy="1273" r="4"/><circle cx="1595" cy="1276" r="6"/><circle cx="1651" cy="1237" r="6"/><circle cx="1730" cy="1260" r="5"/><circle cx="1793" cy="1216" r="5"/><circle cx="1919" cy="1206" r="5"/><circle cx="1996" cy="1255" r="5"/><circle cx="2005" cy="1204" r="6"/><circle cx="2150" cy="1270" r="5"/><circle cx="2230" cy="1220" r="5"/><circle cx="2313" cy="1244" r="5"/><circle cx="2373" cy="1202" r="5"/><circle cx="2427" cy="1213" r="6"/><circle cx="2503" cy="1241" r="4"/><circle cx="15" cy="1339" r="5"/><circle cx="100" cy="1287" r="5"/><circle cx="212" cy="1351" r="5"/><circle cx="286" cy="1300" r="5"/><circle cx="320" cy="1354" r="6"/><circle cx="479" cy="1326" r="5"/><circle cx="483" cy="1299" r="5"/><circle cx="573" cy="1314" r="6"/><circle cx="707" cy="1296" r="6"/><circle cx="756" cy="1327" r="6"/><circle cx="831" cy="1346" r="4"/><circle cx="956" cy="1294" r="4"/><circle cx="960" cy="1289" r="4"/><circle cx="1083" cy="1323" r="6"/><circle cx="1186" cy="1351" r="4"/><circle cx="1271" cy="1353" r="6"/><circle cx="1331" cy="1357" r="4"/><circle cx="1383" cy="1313" r="5"/><circle cx="1468" cy="1289" r="6"/><circle cx="1564" cy="1343" r="5"/><circle cx="1647" cy="1357" r="4"/><circle cx="1705" cy="1350" r="5"/><circle cx="1810" cy="1299" r="5"/><circle cx="1916" cy="1316" r="5"/><circle cx="1930" cy="1332" r="5"/><circle cx="2004" cy="1317" r="6"/><circle cx="2112" cy="1333" r="5"/><circle cx="2211" cy="1317" r="5"/><circle cx="2277" cy="1334" r="4"/><circle cx="2364" cy="1294" r="4"/><circle cx="2408" cy="1337" r="5"/><circle cx="2524" cy="1331" r="4"/><circle cx="58" cy="1404" r="5"/><circle cx="118" cy="1369" r="4"/><circle cx="200" cy="1374" r="5"/><circle cx="298" cy="1439" r="5"/><circle cx="298" cy="-1" r="5"/><circle cx="326" cy="1383" r="5"/><circle cx="464" cy="1432" r="5"/><circle cx="499" cy="1385" r="6"/><circle cx="633" cy="1423" r="4"/><circle cx="673" cy="1400" r="5"/><circle cx="768" cy="1431" r="5"/><circle cx="804" cy="1435" r="4"/><circle cx="926" cy="1434" r="5"/><circle cx="974" cy="1365" r="5"/><circle cx="1068" cy="1428" r="5"/><circle cx="1133" cy="1401" r="4"/><circle cx="1223" cy="1413" r="6"/><circle cx="1316" cy="1434" r="4"/><circle cx="1386" cy="1422" r="5"/><circle cx="1496" cy="1416" r="5"/><circle cx="1537" cy="1391" r="5"/><circle cx="1633" cy="1406" r="4"/><circle cx="1716" cy="1407" r="5"/><circle cx="1783" cy="1397" r="5"/><circle cx="1902" cy="1361" r="4"/><circle cx="1920" cy="1423" r="5"/><circle cx="2035" cy="1412" r="5"/><circle cx="2085" cy="1378" r="5"/><circle cx="2232" cy="1427" r="5"/><circle cx="2244" cy="1435" r="5"/><circle cx="2351" cy="1370" r="4"/><circle cx="2460" cy="1413" r="5"/><circle cx="2528" cy="1422" r="4"/><path stroke="#fff" d="M36 6L82 103M36 6L15 -101M36 6L58 -36M36 6L-32 -18M2596 6L2528 -18M36 1446L15 1339M36 1446L58 1404M36 1446L-32 1422M2596 1446L2528 1422M155 56L179 50M155 56L64 127M155 56L82 103M155 56L183 100M179 50L183 100M179 50L200 -66M179 1490L200 1374M292 62L351 10M292 62L352 97M292 62L298 -1M292 1502L298 1439M351 10L421 43M351 10L352 97M351 10L298 -1M351 10L326 -57M351 1450L298 1439M351 1450L326 1383M421 43L352 97M421 43L410 144M421 43L464 -8M421 1483L464 1432M547 33L596 5M547 33L504 133M547 33L582 84M547 33L464 -8M547 33L499 -55M547 1473L464 1432M547 1473L499 1385M596 5L642 27M596 5L582 84M596 5L633 -17M596 5L673 -40M596 1445L633 1423M596 1445L673 1400M642 27L727 52M642 27L582 84M642 27L633 -17M642 27L673 -40M642 1467L633 1423M642 1467L673 1400M727 52L784 116M727 52L768 -9M727 52L804 -5M727 1492L768 1431M727 1492L804 1435M837 62L891 49M837 62L784 116M837 62L876 112M837 62L768 -9M837 62L804 -5M837 1502L768 1431M837 1502L804 1435M891 49L987 23M891 49L876 112M891 49L956 85M891 49L926 -6M891 1489L926 1434M987 23L956 85M987 23L926 -6M987 23L974 -75M987 23L1068 -12M987 1463L926 1434M987 1463L974 1365M987 1463L1068 1428M1089 72L1136 16M1089 72L1016 151M1089 72L1078 154M1089 72L1169 119M1089 72L1068 -12M1089 1512L1068 1428M1136 16L1224 82M1136 16L1068 -12M1136 16L1133 -39M1136 16L1223 -27M1136 1456L1068 1428M1136 1456L1133 1401M1136 1456L1223 1413M1264 12L1224 82M1264 12L1223 -27M1264 12L1316 -6M1264 1452L1223 1413M1264 1452L1316 1434M1339 74L1424 39M1339 74L1303 160M1339 74L1405 135M1339 74L1316 -6M1339 74L1386 -18M1339 1514L1316 1434M1339 1514L1386 1422M1424 39L1503 9M1424 39L1405 135M1424 39L1386 -18M1424 39L1496 -24M1424 1479L1386 1422M1424 1479L1496 1416M1503 9L1575 23M1503 9L1496 -24M1503 9L1537 -49M1503 1449L1496 1416M1503 1449L1537 1391M1575 23L1602 62M1575 23L1591 92M1575 23L1537 -49M1575 23L1633 -34M1575 1463L1537 1391M1575 1463L1633 1406M1602 62L1683 38M1602 62L1591 92M1602 62L1658 134M1683 38L1717 93M1683 38L1633 -34M1683 38L1716 -33M1683 1478L1633 1406M1683 1478L1716 1407M1805 9L1872 15M1805 9L1806 116M1805 9L1783 -43M1805 1449L1783 1397M1872 15L1941 69M1872 15L1783 -43M1872 15L1902 -79M1872 15L1920 -17M1872 1455L1783 1397M1872 1455L1902 1361M1872 1455L1920 1423M1941 69L1958 111M1941 69L2009 117M1941 69L1920 -17M1941 1509L1920 1423M2074 74L2140 35M2074 74L2161 69M2074 74L2009 117M2074 74L2097 145M2074 74L2068 163M2140 35L2161 69M2140 35L2085 -62M2140 35L2232 -13M2140 35L2244 -5M2140 1475L2085 1378M2140 1475L2232 1427M2140 1475L2244 1435M2161 69L2097 145M2161 69L2202 158M2161 69L2232 -13M2161 1509L2232 1427M2279 34L2382 58M2279 34L2252 160M2279 34L2232 -13M2279 34L2244 -5M2279 1474L2232 1427M2279 1474L2244 1435M2382 58L2419 15M2382 58L2364 130M2382 58L2448 82M2382 58L2481 94M2419 15L2499 73M2419 15L2448 82M2419 15L2481 94M2419 15L2460 -27M2419 1455L2460 1413M2499 73L2448 82M2499 73L2481 94M2499 73L2460 -27M2499 73L2528 -18M2499 1513L2460 1413M2499 1513L2528 1422M64 127L82 103M64 127L5 225M82 103L183 100M183 100L242 153M183 100L158 181M242 153L158 181M242 153L261 214M352 97L410 144M352 97L345 186M410 144L504 133M410 144L345 186M410 144L458 200M504 133L582 84M504 133L458 200M504 133L555 195M582 84L664 140M664 140L601 206M664 140L647 220M784 116L876 112M784 116L787 170M876 112L956 85M876 112L787 170M956 85L1016 151M956 85L926 -6M956 1525L926 1434M1016 151L1078 154M1016 151L1038 195M1016 151L1051 209M1078 154L1169 119M1078 154L1038 195M1078 154L1051 209M1169 119L1224 82M1169 119L1202 166M1224 82L1202 166M1303 160L1202 166M1303 160L1334 214M1405 135L1474 137M1405 135L1400 179M1405 135L1442 168M1474 137L1400 179M1474 137L1442 168M1591 92L1658 134M1591 92L1584 168M1658 134L1717 93M1658 134L1584 168M1658 134L1705 220M1717 93L1806 116M1806 116L1841 141M1806 116L1818 210M1841 141L1818 210M1841 141L1907 163M1958 111L2009 117M1958 111L1907 163M1958 111L1970 180M2009 117L1970 180M2009 117L2068 163M2097 145L2068 163M2097 145L2104 198M2097 145L2081 245M2202 158L2283 154M2202 158L2104 198M2202 158L2220 193M2202 158L2252 160M2283 154L2364 130M2283 154L2220 193M2283 154L2252 160M2364 130L2448 82M2364 130L2347 238M2364 130L2423 217M2448 82L2481 94M2481 94L2520 189M5 225L-40 189M5 225L22 272M5 225L-66 257M2565 225L2520 189M2565 225L2494 257M158 181L179 237M158 181L112 266M158 181L202 251M179 237L261 214M179 237L112 266M179 237L202 251M179 237L264 325M261 214L345 186M261 214L202 251M261 214L319 243M345 186L319 243M345 186L356 281M458 200L454 270M555 195L601 206M555 195L647 220M555 195L527 269M555 195L579 252M601 206L647 220M601 206L579 252M647 220L579 252M647 220L709 257M787 170L822 232M822 232L890 238M822 232L782 293M822 232L867 264M822 232L792 330M890 238L867 264M890 238L944 314M890 238L849 342M1038 195L1051 209M1038 195L998 266M1038 195L1100 241M1051 209L998 266M1051 209L1100 241M1191 231L1202 166M1191 231L1100 241M1191 231L1148 271M1191 231L1253 282M1191 231L1215 331M1334 214L1400 179M1334 214L1442 168M1334 214L1337 262M1334 214L1370 263M1400 179L1442 168M1400 179L1441 242M1442 168L1441 242M1584 168L1644 232M1644 232L1705 220M1644 232L1566 288M1644 232L1671 253M1644 232L1723 247M1705 220L1671 253M1705 220L1723 247M1705 220L1764 299M1818 210L1907 163M1818 210L1723 247M1818 210L1898 243M1907 163L1970 180M1907 163L1898 243M1970 180L2025 253M2068 163L2104 198M2068 163L2081 245M2104 198L2025 253M2104 198L2081 245M2220 193L2252 160M2220 193L2232 296M2220 193L2246 315M2347 238L2423 217M2347 238L2334 295M2347 238L2372 333M2423 217L2520 189M2423 217L2422 312M2423 217L2494 257M2520 189L2582 272M2520 189L2494 257M-40 189L22 272M22 272L112 266M22 272L-66 257M22 272L41 358M2582 272L2494 257M112 266L202 251M112 266L145 363M202 251L264 325M319 243L356 281M319 243L264 325M356 281L454 270M356 281L264 325M356 281L390 390M454 270L527 269M454 270L460 380M527 269L579 252M527 269L529 360M527 269L563 322M579 252L563 322M709 257L782 293M709 257L676 326M709 257L792 330M782 293L867 264M782 293L792 330M782 293L849 342M867 264L944 314M867 264L849 342M944 314L998 266M944 314L957 377M944 314L1015 355M998 266L1015 355M998 266L1082 324M1100 241L1148 271M1100 241L1082 324M1148 271L1082 324M1148 271L1140 369M1148 271L1215 331M1253 282L1337 262M1253 282L1215 331M1253 282L1303 326M1337 262L1370 263M1337 262L1441 242M1337 262L1303 326M1370 263L1441 242M1370 263L1303 326M1566 288L1671 253M1566 288L1471 342M1566 288L1654 357M1671 253L1723 247M1671 253L1654 357M1723 247L1764 299M1764 299L1755 360M1764 299L1810 359M1898 243L1946 313M1946 313L2025 253M1946 313L1868 361M1946 313L1998 336M1946 313L1941 415M2025 253L2081 245M2025 253L1998 336M2232 296L2246 315M2232 296L2334 295M2232 296L2212 343M2232 296L2257 370M2246 315L2334 295M2246 315L2212 343M2246 315L2257 370M2334 295L2422 312M2334 295L2372 333M2422 312L2494 257M2422 312L2372 333M2422 312L2459 349M41 358L145 363M41 358L-34 365M41 358L4 440M41 358L-3 440M2601 358L2526 365M2601 358L2557 440M145 363L172 391M172 391L264 325M172 391L155 471M172 391L200 470M172 391L256 453M390 390L460 380M390 390L333 473M390 390L427 437M460 380L529 360M460 380L427 437M460 380L512 406M529 360L563 322M529 360L512 406M563 322L676 326M563 322L512 406M676 326L665 413M792 330L849 342M849 342L817 439M957 377L1015 355M957 377L910 438M1015 355L1082 324M1015 355L1037 460M1082 324L1140 369M1140 369L1215 331M1140 369L1117 465M1140 369L1139 470M1215 331L1303 326M1303 326L1375 383M1375 383L1471 342M1375 383L1310 442M1375 383L1425 453M1471 342L1540 399M1471 342L1557 400M1540 399L1508 443M1540 399L1557 400M1540 399L1517 499M1654 357L1755 360M1654 357L1557 400M1654 357L1664 433M1755 360L1810 359M1755 360L1664 433M1810 359L1868 361M1810 359L1784 453M1868 361L1941 415M1998 336L2014 398M1998 336L2087 369M1998 336L1941 415M2014 398L2087 369M2014 398L1941 415M2014 398L2067 424M2014 398L2094 432M2087 369L2067 424M2087 369L2094 432M2087 369L2160 447M2212 343L2257 370M2212 343L2160 447M2257 370L2282 467M2372 333L2459 349M2459 349L2526 365M2459 349L2418 477M2526 365L2564 440M2526 365L2557 440M-34 365L4 440M4 440L-3 440M4 440L32 554M4 440L-22 512M2564 440L2557 440M2564 440L2538 512M155 471L200 470M155 471L126 540M155 471L167 522M155 471L137 563M200 470L256 453M200 470L167 522M200 470L272 492M256 453L333 473M256 453L272 492M256 453L340 487M333 473L272 492M333 473L340 487M427 437L512 406M427 437L340 487M427 437L451 511M512 406L593 467M593 467L665 413M593 467L514 536M593 467L600 498M593 467L667 494M665 413L760 452M665 413L600 498M665 413L667 494M760 452L817 439M760 452L729 520M817 439L910 438M817 439L831 516M817 439L931 483M910 438L931 483M1037 460L1117 465M1117 465L1139 470M1117 465L1093 534M1117 465L1198 520M1139 470L1093 534M1139 470L1198 520M1257 434L1310 442M1257 434L1198 520M1257 434L1272 482M1310 442L1272 482M1310 442L1354 531M1310 442L1389 499M1425 453L1508 443M1425 453L1389 499M1425 453L1517 499M1508 443L1557 400M1508 443L1517 499M1508 443L1567 516M1557 400L1517 499M1664 433L1704 469M1664 433L1662 500M1664 433L1720 490M1704 469L1784 453M1704 469L1662 500M1704 469L1720 490M1704 469L1644 566M1784 453L1860 479M1784 453L1720 490M1784 453L1814 512M1860 479L1941 415M1860 479L1814 512M1860 479L1862 510M1860 479L1945 543M2067 424L2094 432M2067 424L2160 447M2067 424L2028 499M2094 432L2160 447M2094 432L2028 499M2160 447L2223 481M2282 467L2376 478M2282 467L2223 481M2282 467L2279 531M2282 467L2351 505M2376 478L2418 477M2376 478L2351 505M2376 478L2445 512M2418 477L2351 505M2418 477L2445 512M2557 440L2538 512M32 554L-22 512M32 554L76 619M32 554L-38 569M2592 554L2538 512M2592 554L2522 569M126 540L167 522M126 540L76 619M126 540L137 563M126 540L223 568M167 522L137 563M167 522L223 568M272 492L340 487M272 492L275 567M340 487L389 564M451 511L514 536M451 511L389 564M451 511L438 596M514 536L600 498M514 536L438 596M514 536L524 618M600 498L667 494M667 494L729 520M667 494L737 565M729 520L831 516M729 520L684 618M729 520L737 565M831 516L931 483M831 516L737 565M831 516L850 595M931 483L972 558M931 483L942 571M972 558L850 595M972 558L942 571M972 558L1032 577M972 558L1081 597M1093 534L1032 577M1093 534L1081 597M1093 534L1159 575M1198 520L1272 482M1198 520L1159 575M1272 482L1354 531M1354 531L1389 499M1354 531L1347 592M1389 499L1347 592M1517 499L1567 516M1567 516L1662 500M1567 516L1527 620M1567 516L1644 566M1662 500L1720 490M1662 500L1644 566M1720 490L1814 512M1814 512L1862 510M1862 510L1945 543M1862 510L1904 581M1945 543L2028 499M1945 543L1904 581M1945 543L1977 599M2028 499L2088 540M2028 499L1977 599M2088 540L2034 620M2223 481L2279 531M2279 531L2351 505M2279 531L2227 601M2279 531L2314 607M2351 505L2445 512M2445 512L2538 512M2445 512L2522 569M2538 512L2522 569M76 619L137 563M76 619L128 660M137 563L223 568M223 568L275 567M275 567L389 564M389 564L438 596M389 564L435 656M438 596L524 618M438 596L435 656M524 618L435 656M524 618L523 678M524 618L601 648M618 613L684 618M618 613L601 648M618 613L679 642M684 618L737 565M684 618L601 648M684 618L679 642M737 565L679 642M850 595L942 571M850 595L798 692M942 571L1032 577M1032 577L1081 597M1081 597L1159 575M1081 597L1075 707M1159 575L1192 641M1159 575L1222 646M1278 618L1347 592M1278 618L1392 624M1278 618L1192 641M1278 618L1222 646M1278 618L1307 714M1347 592L1392 624M1347 592L1449 595M1392 624L1449 595M1392 624L1430 684M1392 624L1456 660M1449 595L1527 620M1449 595L1430 684M1449 595L1456 660M1527 620L1456 660M1730 626L1779 632M1730 626L1652 670M1730 626L1759 672M1730 626L1773 663M1779 632L1759 672M1779 632L1773 663M1779 632L1845 651M1779 632L1819 733M1904 581L1977 599M1904 581L1845 651M1904 581L1945 662M1977 599L2034 620M1977 599L1945 662M2034 620L1945 662M2034 620L2078 688M2140 630L2227 601M2140 630L2078 688M2140 630L2146 706M2140 630L2174 700M2227 601L2314 607M2227 601L2243 696M2314 607L2357 615M2314 607L2360 683M2357 615L2448 634M2357 615L2360 683M2448 634L2522 569M2448 634L2461 715M2448 634L2514 649M2448 634L2463 728M2522 569L2514 649M3 718L-46 649M3 718L18 781M3 718L-97 728M3 718L-74 724M3 718L5 834M2563 718L2514 649M2563 718L2463 728M2563 718L2486 724M128 660L236 691M128 660L134 760M236 691L313 702M236 691L174 770M236 691L311 735M313 702L347 719M313 702L311 735M313 702L338 765M347 719L311 735M347 719L338 765M347 719L415 746M347 719L356 805M435 656L523 678M523 678L601 648M523 678L507 737M601 648L679 642M798 692L845 716M798 692L893 719M798 692L739 756M798 692L877 736M845 716L893 719M845 716L739 756M845 716L877 736M845 716L900 782M893 719L980 685M893 719L877 736M893 719L900 782M980 685L1075 707M980 685L877 736M980 685L985 765M980 685L1040 726M1075 707L985 765M1075 707L1040 726M1075 707L1120 720M1192 641L1222 646M1192 641L1120 720M1222 646L1307 714M1307 714L1242 783M1307 714L1329 744M1430 684L1456 660M1430 684L1411 786M1430 684L1479 756M1456 660L1479 756M1592 706L1652 670M1592 706L1527 746M1592 706L1670 732M1592 706L1693 748M1592 706L1574 801M1652 670L1670 732M1652 670L1693 748M1759 672L1773 663M1759 672L1819 733M1773 663L1845 651M1773 663L1819 733M1845 651L1819 733M1845 651L1872 746M1945 662L1872 746M2078 688L2146 706M2146 706L2174 700M2146 706L2157 769M2146 706L2167 739M2174 700L2243 696M2174 700L2157 769M2174 700L2167 739M2243 696L2167 739M2243 696L2294 774M2360 683L2294 774M2360 683L2356 793M2461 715L2463 728M2461 715L2486 724M2514 649L2463 728M2514 649L2486 724M18 781L-74 724M18 781L5 834M18 781L132 804M18 781L26 886M2578 781L2486 724M134 760L174 770M134 760L132 804M174 770L132 804M174 770L204 846M174 770L264 818M311 735L338 765M311 735L356 805M338 765L415 746M338 765L356 805M415 746L507 737M415 746L356 805M415 746L403 835M507 737L582 775M507 737L491 811M582 775L491 811M582 775L593 870M582 775L573 888M714 779L739 756M714 779L718 852M739 756L718 852M877 736L900 782M900 782L856 849M900 782L891 867M985 765L1040 726M985 765L1052 839M1040 726L1120 720M1242 783L1329 744M1242 783L1178 853M1242 783L1204 847M1242 783L1288 850M1329 744L1411 786M1329 744L1288 850M1411 786L1479 756M1411 786L1413 859M1411 786L1470 875M1479 756L1527 746M1479 756L1574 801M1527 746L1574 801M1670 732L1693 748M1670 732L1735 808M1693 748L1652 837M1693 748L1735 808M1819 733L1872 746M1872 746L1963 795M1872 746L1910 806M1963 795L2063 791M1963 795L1910 806M1963 795L1979 880M1963 795L2077 820M2063 791L2157 769M2063 791L2077 820M2157 769L2167 739M2157 769L2159 808M2167 739L2159 808M2294 774L2356 793M2294 774L2243 846M2294 774L2382 830M2356 793L2382 830M2356 793L2417 832M2463 728L2486 724M5 834L-72 860M5 834L26 886M2565 834L2488 860M132 804L204 846M132 804L136 904M204 846L264 818M204 846L136 904M204 846L271 939M356 805L403 835M403 835L491 811M403 835L391 936M403 835L422 895M491 811L422 895M491 811L526 908M593 870L526 908M593 870L573 888M718 852L779 859M718 852L714 917M718 852L791 918M779 859L856 849M779 859L714 917M779 859L791 918M779 859L818 905M856 849L891 867M856 849L818 905M856 849L893 913M891 867L893 913M1022 877L1052 839M1022 877L1028 891M1022 877L1041 930M1052 839L1028 891M1052 839L1041 930M1178 853L1204 847M1178 853L1129 915M1178 853L1210 912M1204 847L1288 850M1204 847L1210 912M1288 850L1210 912M1288 850L1322 943M1413 859L1470 875M1413 859L1426 925M1470 875L1426 925M1470 875L1457 958M1470 875L1569 900M1574 801L1652 837M1574 801L1569 900M1652 837L1735 808M1652 837L1651 913M1652 837L1726 880M1735 808L1787 857M1735 808L1726 880M1787 857L1726 880M1787 857L1779 954M1787 857L1874 947M1910 806L1979 880M1979 880L1937 946M1979 880L2067 929M1979 880L2048 967M2077 820L2159 808M2077 820L2184 874M2077 820L2067 929M2159 808L2184 874M2159 808L2243 846M2184 874L2243 846M2184 874L2172 958M2184 874L2280 897M2243 846L2280 897M2382 830L2417 832M2382 830L2418 882M2417 832L2488 860M2417 832L2399 940M2417 832L2418 882M2488 860L2586 886M2488 860L2418 882M2488 860L2539 958M-72 860L26 886M26 886L-21 958M26 886L80 970M2586 886L2539 958M136 904L197 945M136 904L80 970M136 904L95 1007M197 945L271 939M197 945L222 1012M197 945L269 977M271 939L222 1012M271 939L269 977M271 939L336 1004M391 936L422 895M391 936L336 1004M391 936L476 966M422 895L526 908M422 895L476 966M526 908L573 888M526 908L476 966M573 888L476 966M573 888L605 1013M714 917L791 918M714 917L779 972M791 918L818 905M791 918L779 972M818 905L893 913M818 905L779 972M893 913L863 1000M1028 891L1041 930M1028 891L1129 915M1028 891L1012 966M1041 930L1129 915M1041 930L1012 966M1129 915L1210 912M1129 915L1170 987M1210 912L1170 987M1322 943L1426 925M1322 943L1331 980M1322 943L1363 1029M1426 925L1457 958M1426 925L1331 980M1457 958L1508 1013M1457 958L1536 1004M1569 900L1651 913M1651 913L1726 880M1651 913L1658 1024M1651 913L1721 1002M1726 880L1779 954M1779 954L1721 1002M1779 954L1812 971M1779 954L1742 1051M1874 947L1937 946M1874 947L1812 971M1874 947L1851 1008M1874 947L1925 1016M1937 946L1925 1016M1937 946L1988 1040M2067 929L2103 946M2067 929L2048 967M2103 946L2172 958M2103 946L2048 967M2103 946L2098 1027M2172 958L2225 1010M2172 958L2188 1046M2280 897L2292 962M2399 940L2418 882M2399 940L2292 962M2399 940L2414 989M2539 958L2640 970M2539 958L2511 992M2539 958L2526 1068M-21 958L80 970M80 970L95 1007M80 970L93 1046M95 1007L48 1076M95 1007L93 1046M222 1012L269 977M222 1012L207 1085M269 977L336 1004M476 966L514 1030M514 1030L605 1013M514 1030L512 1103M514 1030L562 1107M605 1013L679 1037M679 1037L692 1109M679 1037L760 1044M679 1037L656 1140M779 972L863 1000M779 972L760 1044M863 1000L956 1020M863 1000L845 1048M863 1000L851 1122M956 1020L1012 966M956 1020L1041 1023M956 1020L946 1119M956 1020L1028 1040M1012 966L1041 1023M1012 966L1028 1040M1041 1023L1028 1040M1041 1023L1075 1113M1041 1023L1094 1125M1170 987L1196 1077M1278 1037L1331 980M1278 1037L1363 1029M1278 1037L1196 1077M1278 1037L1249 1108M1278 1037L1338 1101M1331 980L1363 1029M1363 1029L1338 1101M1363 1029L1428 1082M1508 1013L1536 1004M1508 1013L1503 1091M1508 1013L1552 1071M1536 1004L1503 1091M1536 1004L1552 1071M1536 1004L1614 1068M1658 1024L1721 1002M1658 1024L1614 1068M1658 1024L1742 1051M1721 1002L1812 971M1721 1002L1742 1051M1812 971L1851 1008M1851 1008L1925 1016M1851 1008L1861 1072M1925 1016L1861 1072M1925 1016L1988 1040M2048 967L2098 1027M2048 967L1988 1040M2098 1027L1988 1040M2098 1027L2153 1075M2098 1027L2188 1046M2225 1010L2292 962M2225 1010L2153 1075M2225 1010L2188 1046M2225 1010L2297 1063M2292 962L2327 1036M2292 962L2297 1063M2327 1036L2414 989M2327 1036L2297 1063M2327 1036L2385 1070M2414 989L2511 992M2414 989L2385 1070M2414 989L2445 1053M2511 992L2608 1076M2511 992L2445 1053M2511 992L2526 1068M-49 992L48 1076M48 1076L93 1046M48 1076L-34 1068M48 1076L28 1173M2608 1076L2526 1068M93 1046L207 1085M207 1085L306 1104M207 1085L191 1193M306 1104L361 1099M306 1104L411 1087M306 1104L307 1187M306 1104L340 1145M361 1099L411 1087M361 1099L340 1145M361 1099L432 1130M411 1087L340 1145M411 1087L432 1130M512 1103L562 1107M512 1103L432 1130M512 1103L553 1178M512 1103L595 1121M562 1107L553 1178M562 1107L595 1121M562 1107L656 1140M692 1109L760 1044M692 1109L595 1121M692 1109L656 1140M692 1109L799 1142M760 1044L845 1048M760 1044L799 1142M845 1048L799 1142M845 1048L851 1122M946 1119L851 1122M946 1119L954 1186M946 1119L1023 1182M1028 1040L1075 1113M1028 1040L1094 1125M1075 1113L1023 1182M1075 1113L1094 1125M1196 1077L1249 1108M1196 1077L1181 1150M1196 1077L1241 1151M1249 1108L1338 1101M1249 1108L1181 1150M1249 1108L1241 1151M1338 1101L1428 1082M1338 1101L1345 1129M1428 1082L1503 1091M1428 1082L1345 1129M1428 1082L1450 1134M1503 1091L1552 1071M1503 1091L1450 1134M1552 1071L1614 1068M1552 1071L1585 1146M1614 1068L1585 1146M1614 1068L1664 1171M1742 1051L1802 1119M1742 1051L1697 1145M1802 1119L1861 1072M1802 1119L1800 1179M1802 1119L1883 1178M1802 1119L1793 1216M1988 1040L2023 1086M2023 1086L2002 1175M2023 1086L2089 1141M2153 1075L2188 1046M2153 1075L2089 1141M2297 1063L2287 1144M2385 1070L2445 1053M2385 1070L2365 1148M2385 1070L2443 1134M2445 1053L2526 1068M2445 1053L2443 1134M28 1173L-36 1192M28 1173L58 1215M28 1173L-57 1241M2588 1173L2524 1192M2588 1173L2503 1241M151 1197L191 1193M151 1197L58 1215M151 1197L132 1231M151 1197L218 1253M151 1197L100 1287M191 1193L307 1187M191 1193L132 1231M191 1193L218 1253M307 1187L340 1145M307 1187L293 1271M307 1187L335 1232M340 1145L335 1232M432 1130L416 1234M553 1178L595 1121M553 1178L609 1278M595 1121L656 1140M656 1140L684 1227M799 1142L851 1122M799 1142L866 1220M851 1122L866 1220M954 1186L1023 1182M954 1186L866 1220M954 1186L928 1255M1023 1182L1094 1125M1023 1182L1040 1261M1094 1125L1181 1150M1181 1150L1241 1151M1181 1150L1225 1226M1241 1151L1345 1129M1241 1151L1225 1226M1345 1129L1395 1183M1395 1183L1450 1134M1395 1183L1314 1253M1395 1183L1404 1218M1395 1183L1448 1273M1450 1134L1404 1218M1585 1146L1664 1171M1585 1146L1697 1145M1585 1146L1651 1237M1664 1171L1697 1145M1664 1171L1651 1237M1664 1171L1730 1260M1697 1145L1800 1179M1697 1145L1651 1237M1800 1179L1883 1178M1800 1179L1793 1216M1883 1178L1927 1182M1883 1178L1793 1216M1883 1178L1919 1206M1927 1182L2002 1175M1927 1182L1919 1206M1927 1182L1996 1255M1927 1182L2005 1204M2002 1175L1919 1206M2002 1175L1996 1255M2002 1175L2005 1204M2236 1195L2287 1144M2236 1195L2150 1270M2236 1195L2230 1220M2236 1195L2313 1244M2287 1144L2365 1148M2287 1144L2230 1220M2287 1144L2313 1244M2365 1148L2443 1134M2365 1148L2373 1202M2365 1148L2427 1213M2443 1134L2373 1202M2443 1134L2427 1213M2524 1192L2618 1215M2524 1192L2427 1213M2524 1192L2503 1241M-36 1192L58 1215M58 1215L132 1231M58 1215L100 1287M132 1231L218 1253M132 1231L100 1287M218 1253L293 1271M218 1253L286 1300M293 1271L335 1232M293 1271L286 1300M293 1271L320 1354M335 1232L416 1234M335 1232L286 1300M416 1234L482 1267M416 1234L483 1299M482 1267L479 1326M482 1267L483 1299M482 1267L573 1314M609 1278L684 1227M609 1278L730 1272M609 1278L573 1314M609 1278L707 1296M684 1227L730 1272M684 1227L707 1296M730 1272L707 1296M730 1272L756 1327M866 1220L928 1255M866 1220L956 1294M928 1255L956 1294M928 1255L960 1289M1040 1261L1114 1251M1040 1261L956 1294M1040 1261L960 1289M1040 1261L1083 1323M1114 1251L1153 1254M1114 1251L1225 1226M1114 1251L1083 1323M1153 1254L1225 1226M1153 1254L1083 1323M1153 1254L1186 1351M1225 1226L1314 1253M1314 1253L1404 1218M1314 1253L1271 1353M1314 1253L1383 1313M1404 1218L1448 1273M1404 1218L1468 1289M1448 1273L1383 1313M1448 1273L1468 1289M1595 1276L1651 1237M1595 1276L1564 1343M1595 1276L1647 1357M1651 1237L1730 1260M1730 1260L1793 1216M1730 1260L1705 1350M1730 1260L1810 1299M1793 1216L1810 1299M1919 1206L1996 1255M1919 1206L2005 1204M1996 1255L2005 1204M1996 1255L2004 1317M2150 1270L2230 1220M2150 1270L2112 1333M2150 1270L2211 1317M2150 1270L2085 1378M2230 1220L2313 1244M2230 1220L2211 1317M2313 1244L2373 1202M2313 1244L2364 1294M2373 1202L2427 1213M2373 1202L2364 1294M2427 1213L2503 1241M2503 1241L2524 1331M15 1339L100 1287M15 1339L-36 1331M15 1339L58 1404M15 1339L-32 1422M2575 1339L2524 1331M2575 1339L2528 1422M100 1287L118 1369M212 1351L320 1354M212 1351L118 1369M212 1351L200 1374M212 1351L326 1383M286 1300L320 1354M286 1300L326 1383M320 1354L298 1439M320 1354L326 1383M479 1326L483 1299M479 1326L573 1314M479 1326L464 1432M479 1326L499 1385M483 1299L573 1314M483 1299L499 1385M573 1314L499 1385M707 1296L756 1327M756 1327L831 1346M756 1327L673 1400M756 1327L768 1431M831 1346L804 1435M956 1294L960 1289M956 1294L974 1365M960 1289L974 1365M1083 1323L1068 1428M1083 1323L1133 1401M1186 1351L1271 1353M1186 1351L1133 1401M1186 1351L1223 1413M1271 1353L1331 1357M1271 1353L1223 1413M1271 1353L1316 1434M1331 1357L1383 1313M1331 1357L1316 1434M1331 1357L1386 1422M1383 1313L1468 1289M1383 1313L1386 1422M1468 1289L1564 1343M1564 1343L1647 1357M1564 1343L1537 1391M1647 1357L1705 1350M1647 1357L1633 1406M1647 1357L1716 1407M1705 1350L1633 1406M1705 1350L1716 1407M1705 1350L1783 1397M1810 1299L1916 1316M1810 1299L1783 1397M1810 1299L1902 1361M1916 1316L1930 1332M1916 1316L2004 1317M1916 1316L1902 1361M1916 1316L1920 1423M1930 1332L2004 1317M1930 1332L1902 1361M1930 1332L1920 1423M1930 1332L2035 1412M2004 1317L2035 1412M2004 1317L2085 1378M2112 1333L2211 1317M2112 1333L2035 1412M2112 1333L2085 1378M2211 1317L2277 1334M2277 1334L2364 1294M2277 1334L2232 1427M2277 1334L2244 1435M2277 1334L2351 1370M2364 1294L2408 1337M2364 1294L2351 1370M2408 1337L2524 1331M2408 1337L2351 1370M2408 1337L2460 1413M2524 1331L2460 1413M58 1404L118 1369M58 1404L-32 1422M2618 1404L2528 1422M118 1369L200 1374M200 1374L298 1439M298 1439L326 1383M464 1432L499 1385M633 1423L673 1400M673 1400L768 1431M768 1431L804 1435M804 1435L926 1434M926 1434L974 1365M1068 1428L1133 1401M1133 1401L1223 1413M1316 1434L1386 1422M1496 1416L1537 1391M1633 1406L1716 1407M1716 1407L1783 1397M1902 1361L1920 1423M2035 1412L2085 1378M2232 1427L2244 1435M2244 1435L2351 1370M2460 1413L2528 1422"/></svg>