<svg xmlns="http://www.w3.org/2000/svg" width="2560" height="1440" fill="#fff"><circle cx="12" cy="44" r="5"/><circle cx="86" cy="17" r="6"/><circle cx="169" cy="19" r="5"/><circle cx="281" cy="49" r="6"/><circle cx="343" cy="69" r="5"/><circle cx="458" cy="80" r="5"/><circle cx="545" cy="57" r="5"/><circle cx="607" cy="32" r="5"/><circle cx="706" cy="72" r="4"/><circle cx="722" cy="73" r="5"/><circle cx="851" cy="22" r="5"/><circle cx="953" cy="27" r="6"/><circle cx="967" cy="34" r="5"/><circle cx="1065" cy="22" r="6"/><circle cx="1129" cy="28" r="4"/><circle cx="1218" cy="22" r="5"/><circle cx="1311" cy="60" r="4"/><circle cx="1413" cy="17" r="5"/><circle cx="1467" cy="13" r="6"/><circle cx="1598" cy="68" r="5"/><circle cx="1671" cy="70" r="5"/><circle cx="1710" cy="10" r="5"/><circle cx="1837" cy="27" r="6"/><circle cx="1906" cy="27" r="5"/><circle cx="1921" cy="21" r="4"/><circle cx="2061" cy="80" r="5"/><circle cx="2149" cy="65" r="4"/><circle cx="2176" cy="67" r="5"/><circle cx="2286" cy="18" r="5"/><circle cx="2374" cy="30" r="5"/><circle cx="2401" cy="39" r="6"/><circle cx="2555" cy="5" r="4"/><circle cx="23" cy="125" r="5"/><circle cx="125" cy="118" r="4"/><circle cx="170" cy="126" r="5"/><circle cx="298" cy="95" r="6"/><circle cx="368" cy="136" r="5"/><circle cx="448" cy="136" r="5"/><circle cx="507" cy="128" r="4"/><circle cx="566" cy="152" r="5"/><circle cx="692" cy="115" r="6"/><circle cx="750" cy="143" r="5"/><circle cx="816" cy="89" r="5"/><circle cx="908" cy="130" r="5"/><circle cx="1037" cy="151" r="5"/><circle cx="1107" cy="116" r="5"/><circle cx="1133" cy="156" r="6"/><circle cx="1206" cy="157" r="5"/><circle cx="1356" cy="149" r="5"/><circle cx="1378" cy="100" r="5"/><circle cx="1468" cy="130" r="6"/><circle cx="1598" cy="131" r="5"/><circle cx="1646" cy="142" r="5"/><circle cx="1727" cy="110" r="5"/><circle cx="1826" cy="88" r="5"/><circle cx="1906" cy="81" r="4"/><circle cx="1932" cy="104" r="5"/><circle cx="2042" cy="125" r="4"/><circle cx="2111" cy="94" r="6"/><circle cx="2229" cy="139" r="5"/><circle cx="2264" cy="115" r="5"/><circle cx="2326" cy="102" r="5"/><circle cx="2436" cy="139" r="5"/><circle cx="2525" cy="112" r="5"/><circle cx="35" cy="172" r="6"/><circle cx="100" cy="181" r="5"/><circle cx="237" cy="179" r="6"/><circle cx="242" cy="207" r="6"/><circle cx="362" cy="179" r="5"/><circle cx="426" cy="212" r="5"/><circle cx="488" cy="175" r="5"/><circle cx="594" cy="210" r="5"/><circle cx="646" cy="217" r="6"/><circle cx="778" cy="206" r="5"/><circle cx="837" cy="213" r="6"/><circle cx="886" cy="199" r="5"/><circle cx="995" cy="196" r="6"/><circle cx="1074" cy="193" r="4"/><circle cx="1180" cy="181" r="5"/><circle cx="1258" cy="184" r="5"/><circle cx="1291" cy="224" r="4"/><circle cx="1403" cy="176" r="5"/><circle cx="1450" cy="240" r="6"/><circle cx="1544" cy="171" r="4"/><circle cx="1667" cy="170" r="5"/><circle cx="1688" cy="216" r="6"/><circle cx="1765" cy="217" r="5"/><circle cx="1877" cy="227" r="5"/><circle cx="1955" cy="220" r="6"/><circle cx="2069" cy="188" r="6"/><circle cx="2146" cy="213" r="4"/><circle cx="2202" cy="172" r="6"/><circle cx="2255" cy="238" r="4"/><circle cx="2377" cy="233" r="6"/><circle cx="2445" cy="186" r="5"/><circle cx="2489" cy="174" r="5"/><circle cx="9" cy="261" r="5"/><circle cx="91" cy="246" r="5"/><circle cx="195" cy="246" r="5"/><circle cx="263" cy="258" r="5"/><circle cx="379" cy="314" r="5"/><circle cx="426" cy="246" r="6"/><circle cx="508" cy="254" r="6"/><circle cx="603" cy="248" r="4"/><circle cx="684" cy="254" r="5"/><circle cx="740" cy="299" r="5"/><circle cx="855" cy="261" r="5"/><circle cx="909" cy="259" r="6"/><circle cx="1007" cy="243" r="6"/><circle cx="1074" cy="248" r="6"/><circle cx="1163" cy="290" r="5"/><circle cx="1259" cy="307" r="4"/><circle cx="1351" cy="316" r="5"/><circle cx="1421" cy="307" r="5"/><circle cx="1466" cy="253" r="5"/><circle cx="1592" cy="252" r="4"/><circle cx="1670" cy="318" r="4"/><circle cx="1710" cy="249" r="4"/><circle cx="1766" cy="246" r="5"/><circle cx="1898" cy="304" r="4"/><circle cx="1971" cy="307" r="5"/><circle cx="2009" cy="281" r="5"/><circle cx="2146" cy="288" r="5"/><circle cx="2177" cy="246" r="5"/><circle cx="2258" cy="307" r="6"/><circle cx="2367" cy="264" r="5"/><circle cx="2444" cy="268" r="4"/><circle cx="2531" cy="272" r="5"/><circle cx="60" cy="392" r="5"/><circle cx="108" cy="330" r="5"/><circle cx="175" cy="395" r="5"/><circle cx="246" cy="399" r="5"/><circle cx="381" cy="383" r="5"/><circle cx="474" cy="376" r="5"/><circle cx="485" cy="345" r="5"/><circle cx="636" cy="374" r="6"/><circle cx="641" cy="382" r="4"/><circle cx="763" cy="377" r="6"/><circle cx="827" cy="345" r="5"/><circle cx="903" cy="363" r="5"/><circle cx="1034" cy="353" r="5"/><circle cx="1070" cy="346" r="5"/><circle cx="1200" cy="386" r="4"/><circle cx="1216" cy="342" r="6"/><circle cx="1337" cy="343" r="5"/><circle cx="1376" cy="327" r="5"/><circle cx="1506" cy="365" r="5"/><circle cx="1566" cy="363" r="5"/><circle cx="1664" cy="339" r="5"/><circle cx="1701" cy="391" r="4"/><circle cx="1789" cy="353" r="6"/><circle cx="1848" cy="366" r="5"/><circle cx="1950" cy="354" r="6"/><circle cx="2014" cy="320" r="5"/><circle cx="2094" cy="383" r="5"/><circle cx="2165" cy="380" r="4"/><circle cx="2277" cy="377" r="4"/><circle cx="2329" cy="332" r="5"/><circle cx="2461" cy="334" r="5"/><circle cx="2538" cy="380" r="6"/><circle cx="24" cy="440" r="5"/><circle cx="92" cy="404" r="5"/><circle cx="233" cy="433" r="4"/><circle cx="299" cy="414" r="6"/><circle cx="347" cy="436" r="6"/><circle cx="404" cy="412" r="4"/><circle cx="544" cy="436" r="6"/><circle cx="562" cy="422" r="5"/><circle cx="659" cy="471" r="5"/><circle cx="763" cy="401" r="5"/><circle cx="823" cy="430" r="5"/><circle cx="905" cy="419" r="4"/><circle cx="1010" cy="457" r="4"/><circle cx="1040" cy="411" r="6"/><circle cx="1148" cy="414" r="5"/><circle cx="1274" cy="419" r="5"/><circle cx="1323" cy="428" r="5"/><circle cx="1408" cy="425" r="5"/><circle cx="1452" cy="479" r="6"/><circle cx="1558" cy="408" r="6"/><circle cx="1632" cy="401" r="5"/><circle cx="1693" cy="423" r="4"/><circle cx="1806" cy="470" r="6"/><circle cx="1880" cy="405" r="5"/><circle cx="1997" cy="474" r="5"/><circle cx="2079" cy="413" r="5"/><circle cx="2121" cy="427" r="5"/><circle cx="2196" cy="465" r="6"/><circle cx="2278" cy="465" r="5"/><circle cx="2349" cy="405" r="5"/><circle cx="2474" cy="432" r="6"/><circle cx="2558" cy="471" r="4"/><circle cx="-2" cy="471" r="4"/><circle cx="53" cy="538" r="5"/><circle cx="156" cy="529" r="4"/><circle cx="221" cy="520" r="4"/><circle cx="267" cy="525" r="5"/><circle cx="397" cy="480" r="5"/><circle cx="455" cy="503" r="5"/><circle cx="526" cy="556" r="5"/><circle cx="587" cy="554" r="5"/><circle cx="693" cy="531" r="4"/><circle cx="752" cy="544" r="6"/><circle cx="865" cy="491" r="5"/><circle cx="959" cy="542" r="5"/><circle cx="991" cy="486" r="5"/><circle cx="1095" cy="525" r="5"/><circle cx="1150" cy="506" r="6"/><circle cx="1230" cy="483" r="4"/><circle cx="1295" cy="495" r="6"/><circle cx="1426" cy="520" r="5"/><circle cx="1441" cy="497" r="5"/><circle cx="1585" cy="515" r="5"/><circle cx="1641" cy="518" r="5"/><circle cx="1702" cy="506" r="4"/><circle cx="1797" cy="550" r="5"/><circle cx="1894" cy="500" r="4"/><circle cx="1955" cy="553" r="6"/><circle cx="2033" cy="519" r="5"/><circle cx="2084" cy="511" r="4"/><circle cx="2174" cy="552" r="6"/><circle cx="2267" cy="519" r="6"/><circle cx="2366" cy="524" r="5"/><circle cx="2414" cy="500" r="5"/><circle cx="2492" cy="512" r="5"/><circle cx="4" cy="575" r="5"/><circle cx="2564" cy="575" r="5"/><circle cx="116" cy="609" r="6"/><circle cx="215" cy="578" r="4"/><circle cx="303" cy="583" r="5"/><circle cx="394" cy="568" r="5"/><circle cx="476" cy="608" r="4"/><circle cx="500" cy="575" r="5"/><circle cx="575" cy="613" r="4"/><circle cx="640" cy="598" r="4"/><circle cx="761" cy="640" r="5"/><circle cx="846" cy="639" r="5"/><circle cx="905" cy="629" r="5"/><circle cx="1028" cy="640" r="5"/><circle cx="1061" cy="574" r="4"/><circle cx="1156" cy="615" r="5"/><circle cx="1243" cy="627" r="4"/><circle cx="1325" cy="627" r="4"/><circle cx="1385" cy="614" r="6"/><circle cx="1498" cy="600" r="6"/><circle cx="1546" cy="599" r="5"/><circle cx="1603" cy="617" r="5"/><circle cx="1682" cy="585" r="5"/><circle cx="1784" cy="579" r="6"/><circle cx="1881" cy="580" r="5"/><circle cx="1964" cy="638" r="5"/><circle cx="2074" cy="572" r="4"/><circle cx="2092" cy="619" r="5"/><circle cx="2214" cy="627" r="5"/><circle cx="2306" cy="578" r="5"/><circle cx="2346" cy="575" r="4"/><circle cx="2477" cy="573" r="6"/><circle cx="2499" cy="608" r="5"/><circle cx="63" cy="674" r="5"/><circle cx="89" cy="681" r="5"/><circle cx="237" cy="665" r="4"/><circle cx="271" cy="652" r="4"/><circle cx="328" cy="719" r="5"/><circle cx="414" cy="677" r="4"/><circle cx="523" cy="711" r="5"/><circle cx="601" cy="653" r="4"/><circle cx="673" cy="648" r="5"/><circle cx="744" cy="699" r="6"/><circle cx="836" cy="695" r="4"/><circle cx="882" cy="669" r="4"/><circle cx="965" cy="652" r="4"/><circle cx="1103" cy="669" r="5"/><circle cx="1152" cy="679" r="5"/><circle cx="1223" cy="682" r="4"/><circle cx="1340" cy="702" r="5"/><circle cx="1381" cy="695" r="6"/><circle cx="1501" cy="693" r="5"/><circle cx="1530" cy="649" r="5"/><circle cx="1629" cy="683" r="5"/><circle cx="1697" cy="719" r="5"/><circle cx="1825" cy="681" r="6"/><circle cx="1851" cy="671" r="6"/><circle cx="1963" cy="670" r="5"/><circle cx="2032" cy="688" r="4"/><circle cx="2108" cy="705" r="6"/><circle cx="2187" cy="659" r="6"/><circle cx="2273" cy="702" r="5"/><circle cx="2370" cy="666" r="4"/><circle cx="2446" cy="703" r="6"/><circle cx="2560" cy="660" r="5"/><circle cx="-0" cy="660" r="5"/><circle cx="28" cy="763" r="5"/><circle cx="124" cy="778" r="4"/><circle cx="195" cy="739" r="5"/><circle cx="252" cy="741" r="6"/><circle cx="387" cy="731" r="5"/><circle cx="426" cy="747" r="5"/><circle cx="499" cy="737" r="4"/><circle cx="622" cy="743" r="5"/><circle cx="678" cy="761" r="4"/><circle cx="734" cy="743" r="5"/><circle cx="874" cy="782" r="6"/><circle cx="939" cy="756" r="5"/><circle cx="1034" cy="767" r="6"/><circle cx="1041" cy="728" r="5"/><circle cx="1157" cy="793" r="6"/><circle cx="1246" cy="769" r="4"/><circle cx="1342" cy="760" r="5"/><circle cx="1390" cy="776" r="5"/><circle cx="1449" cy="783" r="4"/><circle cx="1549" cy="798" r="6"/><circle cx="1657" cy="798" r="5"/><circle cx="1748" cy="777" r="4"/><circle cx="1821" cy="769" r="4"/><circle cx="1888" cy="759" r="6"/><circle cx="1957" cy="740" r="6"/><circle cx="2034" cy="769" r="6"/><circle cx="2092" cy="796" r="6"/><circle cx="2229" cy="737" r="5"/><circle cx="2267" cy="799" r="6"/><circle cx="2330" cy="740" r="4"/><circle cx="2477" cy="765" r="5"/><circle cx="2559" cy="724" r="5"/><circle cx="-1" cy="724" r="5"/><circle cx="29" cy="815" r="5"/><circle cx="133" cy="829" r="6"/><circle cx="234" cy="802" r="4"/><circle cx="244" cy="831" r="5"/><circle cx="391" cy="853" r="6"/><circle cx="400" cy="869" r="5"/><circle cx="528" cy="870" r="5"/><circle cx="571" cy="860" r="6"/><circle cx="694" cy="834" r="4"/><circle cx="769" cy="849" r="5"/><circle cx="855" cy="819" r="5"/><circle cx="952" cy="847" r="5"/><circle cx="1005" cy="841" r="6"/><circle cx="1082" cy="825" r="5"/><circle cx="1143" cy="837" r="5"/><circle cx="1217" cy="831" r="6"/><circle cx="1355" cy="831" r="6"/><circle cx="1440" cy="844" r="5"/><circle cx="1446" cy="866" r="5"/><circle cx="1521" cy="872" r="5"/><circle cx="1613" cy="806" r="5"/><circle cx="1737" cy="810" r="5"/><circle cx="1825" cy="849" r="4"/><circle cx="1919" cy="842" r="5"/><circle cx="1991" cy="832" r="6"/><circle cx="2014" cy="812" r="5"/><circle cx="2126" cy="854" r="5"/><circle cx="2183" cy="878" r="5"/><circle cx="2269" cy="822" r="5"/><circle cx="2389" cy="824" r="5"/><circle cx="2415" cy="829" r="6"/><circle cx="2505" cy="868" r="5"/><circle cx="63" cy="955" r="6"/><circle cx="113" cy="893" r="5"/><circle cx="229" cy="911" r="4"/><circle cx="276" cy="929" r="4"/><circle cx="326" cy="881" r="6"/><circle cx="469" cy="951" r="5"/><circle cx="555" cy="927" r="5"/><circle cx="629" cy="881" r="5"/><circle cx="664" cy="958" r="4"/><circle cx="762" cy="907" r="5"/><circle cx="824" cy="891" r="4"/><circle cx="903" cy="956" r="6"/><circle cx="960" cy="952" r="5"/><circle cx="1093" cy="950" r="5"/><circle cx="1159" cy="920" r="5"/><circle cx="1241" cy="927" r="4"/><circle cx="1305" cy="935" r="6"/><circle cx="1425" cy="952" r="5"/><circle cx="1477" cy="923" r="6"/><circle cx="1547" cy="898" r="5"/><circle cx="1661" cy="915" r="6"/><circle cx="1742" cy="922" r="5"/><circle cx="1828" cy="908" r="5"/><circle cx="1849" cy="891" r="4"/><circle cx="1928" cy="909" r="5"/><circle cx="2041" cy="959" r="5"/><circle cx="2160" cy="932" r="5"/><circle cx="2212" cy="914" r="6"/><circle cx="2285" cy="949" r="5"/><circle cx="2347" cy="910" r="5"/><circle cx="2416" cy="922" r="6"/><circle cx="2540" cy="896" r="6"/><circle cx="27" cy="992" r="5"/><circle cx="159" cy="1005" r="5"/><circle cx="160" cy="1014" r="5"/><circle cx="293" cy="983" r="5"/><circle cx="389" cy="998" r="6"/><circle cx="415" cy="1003" r="6"/><circle cx="530" cy="987" r="6"/><circle cx="571" cy="1021" r="5"/><circle cx="687" cy="968" r="5"/><circle cx="777" cy="1012" r="6"/><circle cx="872" cy="976" r="5"/><circle cx="919" cy="1012" r="5"/><circle cx="1013" cy="980" r="6"/><circle cx="1120" cy="977" r="5"/><circle cx="1124" cy="1027" r="6"/><circle cx="1275" cy="1030" r="5"/><circle cx="1360" cy="974" r="5"/><circle cx="1422" cy="965" r="4"/><circle cx="1519" cy="1022" r="5"/><circle cx="1578" cy="996" r="6"/><circle cx="1661" cy="1024" r="5"/><circle cx="1740" cy="1021" r="6"/><circle cx="1785" cy="982" r="5"/><circle cx="1852" cy="1009" r="6"/><circle cx="1995" cy="1012" r="6"/><circle cx="2071" cy="964" r="6"/><circle cx="2114" cy="967" r="5"/><circle cx="2218" cy="1015" r="5"/><circle cx="2272" cy="1027" r="5"/><circle cx="2341" cy="969" r="5"/><circle cx="2406" cy="990" r="5"/><circle cx="2526" cy="1001" r="6"/><circle cx="9" cy="1077" r="5"/><circle cx="80" cy="1096" r="5"/><circle cx="201" cy="1076" r="5"/><circle cx="269" cy="1079" r="6"/><circle cx="396" cy="1050" r="5"/><circle cx="415" cy="1055" r="6"/><circle cx="557" cy="1103" r="6"/><circle cx="562" cy="1102" r="5"/><circle cx="659" cy="1073" r="4"/><circle cx="722" cy="1083" r="5"/><circle cx="802" cy="1064" r="4"/><circle cx="954" cy="1091" r="6"/><circle cx="1036" cy="1076" r="4"/><circle cx="1046" cy="1054" r="5"/><circle cx="1138" cy="1094" r="5"/><circle cx="1266" cy="1057" r="5"/><circle cx="1352" cy="1067" r="5"/><circle cx="1391" cy="1075" r="5"/><circle cx="1477" cy="1087" r="4"/><circle cx="1551" cy="1110" r="5"/><circle cx="1662" cy="1041" r="5"/><circle cx="1680" cy="1106" r="5"/><circle cx="1835" cy="1115" r="5"/><circle cx="1855" cy="1049" r="6"/><circle cx="1958" cy="1046" r="5"/><circle cx="2045" cy="1067" r="6"/><circle cx="2085" cy="1100" r="4"/><circle cx="2223" cy="1079" r="5"/><circle cx="2253" cy="1091" r="5"/><circle cx="2360" cy="1061" r="6"/><circle cx="2447" cy="1105" r="6"/><circle cx="2483" cy="1046" r="5"/><circle cx="71" cy="1198" r="5"/><circle cx="152" cy="1146" r="5"/><circle cx="228" cy="1137" r="6"/><circle cx="296" cy="1163" r="5"/><circle cx="336" cy="1173" r="4"/><circle cx="426" cy="1135" r="6"/><circle cx="554" cy="1176" r="4"/><circle cx="612" cy="1183" r="5"/><circle cx="698" cy="1145" r="6"/><circle cx="768" cy="1197" r="4"/><circle cx="874" cy="1169" r="6"/><circle cx="909" cy="1154" r="6"/><circle cx="971" cy="1164" r="6"/><circle cx="1049" cy="1143" r="5"/><circle cx="1197" cy="1188" r="4"/><circle cx="1218" cy="1154" r="4"/><circle cx="1288" cy="1181" r="5"/><circle cx="1378" cy="1155" r="6"/><circle cx="1473" cy="1125" r="5"/><circle cx="1522" cy="1147" r="4"/><circle cx="1677" cy="1166" r="6"/><circle cx="1756" cy="1182" r="6"/><circle cx="1787" cy="1143" r="5"/><circle cx="1885" cy="1179" r="6"/><circle cx="1942" cy="1198" r="5"/><circle cx="2028" cy="1144" r="4"/><circle cx="2130" cy="1161" r="5"/><circle cx="2198" cy="1133" r="4"/><circle cx="2315" cy="1172" r="4"/><circle cx="2381" cy="1154" r="6"/><circle cx="2460" cy="1140" r="5"/><circle cx="2490" cy="1170" r="6"/><circle cx="40" cy="1230" r="4"/><circle cx="130" cy="1228" r="4"/><circle cx="232" cy="1222" r="5"/><circle cx="244" cy="1260" r="5"/><circle cx="370" cy="1247" r="4"/><circle cx="413" cy="1238" r="5"/><circle cx="538" cy="1269" r="5"/><circle cx="599" cy="1201" r="5"/><circle cx="707" cy="1234" r="4"/><circle cx="757" cy="1272" r="6"/><circle cx="880" cy="1214" r="4"/><circle cx="944" cy="1228" r="5"/><circle cx="975" cy="1280" r="5"/><circle cx="1082" cy="1233" r="5"/><circle cx="1152" cy="1265" r="5"/><circle cx="1268" cy="1212" r="5"/><circle cx="1312" cy="1210" r="6"/><circle cx="1401" cy="1231" r="5"/><circle cx="1519" cy="1207" r="6"/><circle cx="1525" cy="1210" r="6"/><circle cx="1661" cy="1242" r="4"/><circle cx="1699" cy="1243" r="5"/><circle cx="1780" cy="1260" r="4"/><circle cx="1878" cy="1242" r="4"/><circle cx="1950" cy="1210" r="6"/><circle cx="2034" cy="1274" r="5"/><circle cx="2129" cy="1211" r="5"/><circle cx="2185" cy="1269" r="5"/><circle cx="2312" cy="1214" r="4"/><circle cx="2385" cy="1211" r="5"/><circle cx="2478" cy="1217" r="5"/><circle cx="2490" cy="1243" r="6"/><circle cx="9" cy="1354" r="5"/><circle cx="118" cy="1325" r="4"/><circle cx="211" cy="1339" r="4"/><circle cx="306" cy="1322" r="6"/><circle cx="395" cy="1298" r="4"/><circle cx="474" cy="1327" r="5"/><circle cx="482" cy="1297" r="4"/><circle cx="614" cy="1352" r="4"/><circle cx="653" cy="1294" r="4"/><circle cx="736" cy="1294" r="5"/><circle cx="852" cy="1330" r="6"/><circle cx="930" cy="1350" r="6"/><circle cx="983" cy="1308" r="5"/><circle cx="1042" cy="1344" r="6"/><circle cx="1151" cy="1307" r="4"/><circle cx="1270" cy="1295" r="5"/><circle cx="1304" cy="1281" r="5"/><circle cx="1372" cy="1281" r="5"/><circle cx="1451" cy="1342" r="5"/><circle cx="1595" cy="1319" r="5"/><circle cx="1659" cy="1292" r="5"/><circle cx="1700" cy="1325" r="6"/><circle cx="1795" cy="1348" r="5"/><circle cx="1873" cy="1358" r="5"/><circle cx="1922" cy="1346" r="4"/><circle cx="2058" cy="1300" r="5"/><circle cx="2109" cy="1293" r="5"/><circle cx="2185" cy="1328" r="5"/><circle cx="2290" cy="1350" r="6"/><circle cx="2339" cy="1297" r="6"/><circle cx="2404" cy="1298" r="6"/><circle cx="2549" cy="1327" r="5"/><circle cx="44" cy="1417" r="6"/><circle cx="158" cy="1419" r="6"/><circle cx="190" cy="1421" r="5"/><circle cx="312" cy="1417" r="4"/><circle cx="378" cy="1427" r="6"/><circle cx="457" cy="1372" r="5"/><circle cx="535" cy="1362" r="4"/><circle cx="636" cy="1436" r="5"/><circle cx="636" cy="-4" r="5"/><circle cx="684" cy="1433" r="4"/><circle cx="783" cy="1365" r="4"/><circle cx="832" cy="1380" r="6"/><circle cx="941" cy="1428" r="6"/><circle cx="1032" cy="1414" r="6"/><circle cx="1052" cy="1382" r="5"/><circle cx="1167" cy="1438" r="6"/><circle cx="1167" cy="-2" r="6"/><circle cx="1233" cy="1381" r="6"/><circle cx="1339" cy="1430" r="4"/><circle cx="1424" cy="1407" r="4"/><circle cx="1515" cy="1403" r="5"/><circle cx="1586" cy="1376" r="5"/><circle cx="1660" cy="1412" r="6"/><circle cx="1696" cy="1397" r="4"/><circle cx="1777" cy="1370" r="6"/><circle cx="1898" cy="1367" r="5"/><circle cx="1966" cy="1415" r="4"/><circle cx="2013" cy="1406" r="4"/><circle cx="2128" cy="1419" r="5"/><circle cx="2218" cy="1429" r="5"/><circle cx="2286" cy="1420" r="5"/><circle cx="2372" cy="1417" r="6"/><circle cx="2438" cy="1406" r="5"/><circle cx="2540" cy="1425" r="6"/><path stroke="#fff" d="M12 44L86 17M12 44L-5 5M12 44L23 125M12 44L44 -23M12 44L-20 -15M2572 44L2555 5M2572 44L2540 -15M12 1484L44 1417M12 1484L-20 1425M2572 1484L2540 1425M86 17L169 19M86 17L-5 5M86 17L44 -23M86 17L158 -21M2646 17L2555 5M86 1457L44 1417M86 1457L158 1419M169 19L170 126M169 19L158 -21M169 19L190 -19M169 1459L158 1419M169 1459L190 1421M281 49L343 69M281 49L298 95M281 49L190 -19M281 49L312 -23M281 49L378 -13M281 1489L190 1421M281 1489L312 1417M281 1489L378 1427M343 69L298 95M343 69L368 136M343 69L312 -23M343 69L378 -13M343 1509L312 1417M343 1509L378 1427M458 80L545 57M458 80L448 136M458 80L507 128M545 57L607 32M545 57L507 128M545 57L566 152M545 57L636 -4M545 1497L636 1436M607 32L692 115M607 32L636 -4M607 32L684 -7M607 1472L636 1436M607 1472L684 1433M706 72L722 73M706 72L692 115M706 72L750 143M706 72L636 -4M706 72L684 -7M706 1512L636 1436M706 1512L684 1433M722 73L692 115M722 73L750 143M722 73L816 89M722 73L684 -7M722 1513L684 1433M851 22L953 27M851 22L816 89M851 22L832 -60M851 22L941 -12M851 1462L832 1380M851 1462L941 1428M953 27L967 34M953 27L941 -12M953 1467L941 1428M967 34L1065 22M967 34L908 130M967 34L941 -12M967 34L1032 -26M967 1474L941 1428M967 1474L1032 1414M1065 22L1129 28M1065 22L1032 -26M1065 22L1052 -58M1065 22L1167 -2M1065 1462L1032 1414M1065 1462L1052 1382M1065 1462L1167 1438M1129 28L1218 22M1129 28L1107 116M1129 28L1167 -2M1129 1468L1167 1438M1218 22L1311 60M1218 22L1167 -2M1218 22L1233 -59M1218 1462L1167 1438M1218 1462L1233 1381M1311 60L1356 149M1311 60L1378 100M1311 60L1339 -10M1311 1500L1339 1430M1413 17L1467 13M1413 17L1378 100M1413 17L1339 -10M1413 17L1424 -33M1413 17L1515 -37M1413 1457L1339 1430M1413 1457L1424 1407M1413 1457L1515 1403M1467 13L1468 130M1467 13L1451 -98M1467 13L1424 -33M1467 13L1515 -37M1467 1453L1451 1342M1467 1453L1424 1407M1467 1453L1515 1403M1598 68L1671 70M1598 68L1598 131M1598 68L1544 171M1671 70L1710 10M1671 70L1646 142M1671 70L1727 110M1671 70L1660 -28M1671 1510L1660 1412M1710 10L1727 110M1710 10L1660 -28M1710 10L1696 -43M1710 1450L1660 1412M1710 1450L1696 1397M1837 27L1906 27M1837 27L1921 21M1837 27L1826 88M1837 27L1906 81M1837 27L1777 -70M1837 1467L1777 1370M1906 27L1921 21M1906 27L1906 81M1906 27L1932 104M1906 27L1966 -25M1906 1467L1966 1415M1921 21L1906 81M1921 21L1932 104M1921 21L1966 -25M1921 1461L1966 1415M2061 80L2149 65M2061 80L2042 125M2061 80L2111 94M2149 65L2176 67M2149 65L2111 94M2149 65L2128 -21M2149 1505L2128 1419M2176 67L2111 94M2176 67L2229 139M2176 67L2218 -11M2176 1507L2218 1429M2286 18L2374 30M2286 18L2326 102M2286 18L2218 -11M2286 18L2286 -20M2286 18L2372 -23M2286 1458L2218 1429M2286 1458L2286 1420M2286 1458L2372 1417M2374 30L2401 39M2374 30L2326 102M2374 30L2372 -23M2374 30L2438 -34M2374 1470L2372 1417M2374 1470L2438 1406M2401 39L2326 102M2401 39L2436 139M2401 39L2372 -23M2401 39L2438 -34M2401 1479L2372 1417M2401 1479L2438 1406M2555 5L2569 -86M2555 5L2604 -23M2555 5L2540 -15M-5 5L9 -86M-5 5L44 -23M-5 1445L9 1354M-5 1445L44 1417M2555 1445L2569 1354M2555 1445L2604 1417M2555 1445L2540 1425M23 125L-35 112M23 125L35 172M23 125L100 181M23 125L-71 174M2583 125L2525 112M2583 125L2489 174M125 118L170 126M125 118L100 181M170 126L100 181M170 126L237 179M170 126L242 207M298 95L368 136M298 95L237 179M298 95L362 179M368 136L448 136M368 136L362 179M448 136L507 128M448 136L426 212M448 136L488 175M507 128L566 152M507 128L488 175M566 152L488 175M566 152L594 210M566 152L646 217M692 115L750 143M692 115L646 217M750 143L816 89M750 143L778 206M816 89L908 130M908 130L837 213M908 130L886 199M1037 151L1107 116M1037 151L1133 156M1037 151L995 196M1037 151L1074 193M1037 151L1007 243M1107 116L1133 156M1107 116L1180 181M1133 156L1206 157M1133 156L1074 193M1133 156L1180 181M1206 157L1180 181M1206 157L1258 184M1206 157L1291 224M1356 149L1378 100M1356 149L1258 184M1356 149L1403 176M1378 100L1468 130M1378 100L1403 176M1468 130L1403 176M1468 130L1450 240M1468 130L1544 171M1598 131L1646 142M1598 131L1544 171M1598 131L1667 170M1646 142L1727 110M1646 142L1667 170M1646 142L1688 216M1727 110L1667 170M1826 88L1906 81M1826 88L1932 104M1906 81L1932 104M2042 125L2111 94M2042 125L2069 188M2111 94L2069 188M2229 139L2264 115M2229 139L2326 102M2229 139L2202 172M2229 139L2255 238M2264 115L2326 102M2264 115L2202 172M2436 139L2525 112M2436 139L2377 233M2436 139L2445 186M2436 139L2489 174M2525 112L2595 172M2525 112L2445 186M2525 112L2489 174M-35 112L35 172M35 172L100 181M35 172L9 261M35 172L91 246M100 181L91 246M237 179L242 207M237 179L195 246M237 179L263 258M242 207L362 179M242 207L195 246M242 207L263 258M362 179L426 212M362 179L426 246M426 212L488 175M426 212L426 246M426 212L508 254M488 175L508 254M594 210L646 217M594 210L508 254M594 210L603 248M594 210L684 254M646 217L603 248M646 217L684 254M778 206L837 213M778 206L740 299M778 206L855 261M837 213L886 199M837 213L855 261M837 213L909 259M886 199L855 261M886 199L909 259M995 196L1074 193M995 196L909 259M995 196L1007 243M995 196L1074 248M1074 193L1007 243M1074 193L1074 248M1180 181L1258 184M1180 181L1163 290M1258 184L1291 224M1291 224L1259 307M1403 176L1450 240M1403 176L1466 253M1450 240L1421 307M1450 240L1466 253M1450 240L1376 327M1544 171L1592 252M1667 170L1688 216M1667 170L1710 249M1688 216L1765 217M1688 216L1710 249M1688 216L1766 246M1765 217L1877 227M1765 217L1710 249M1765 217L1766 246M1877 227L1955 220M1877 227L1766 246M1877 227L1898 304M1955 220L2069 188M1955 220L1898 304M1955 220L1971 307M1955 220L2009 281M2069 188L2146 213M2069 188L2009 281M2146 213L2202 172M2146 213L2146 288M2146 213L2177 246M2202 172L2255 238M2202 172L2177 246M2255 238L2177 246M2255 238L2258 307M2377 233L2445 186M2377 233L2367 264M2377 233L2444 268M2377 233L2329 332M2445 186L2489 174M2445 186L2444 268M2489 174L2531 272M9 261L91 246M9 261L-29 272M9 261L108 330M2569 261L2531 272M91 246L195 246M91 246L108 330M195 246L263 258M379 314L426 246M379 314L381 383M379 314L485 345M426 246L508 254M426 246L485 345M508 254L485 345M603 248L684 254M684 254L740 299M740 299L763 377M740 299L763 401M855 261L909 259M855 261L827 345M909 259L1007 243M1007 243L1074 248M1074 248L1163 290M1074 248L1070 346M1163 290L1259 307M1163 290L1200 386M1163 290L1216 342M1259 307L1351 316M1259 307L1216 342M1259 307L1337 343M1351 316L1421 307M1351 316L1337 343M1351 316L1376 327M1351 316L1323 428M1421 307L1466 253M1421 307L1337 343M1421 307L1376 327M1466 253L1506 365M1592 252L1670 318M1592 252L1566 363M1670 318L1710 249M1670 318L1664 339M1670 318L1701 391M1710 249L1766 246M1766 246L1789 353M1898 304L1971 307M1898 304L1848 366M1898 304L1950 354M1971 307L2009 281M1971 307L1950 354M1971 307L2014 320M2009 281L1950 354M2009 281L2014 320M2146 288L2177 246M2146 288L2258 307M2146 288L2094 383M2146 288L2165 380M2177 246L2258 307M2258 307L2277 377M2258 307L2329 332M2367 264L2444 268M2367 264L2329 332M2367 264L2461 334M2444 268L2531 272M2444 268L2461 334M2531 272L2461 334M60 392L108 330M60 392L-22 380M60 392L24 440M60 392L92 404M2620 392L2538 380M108 330L175 395M108 330L92 404M175 395L246 399M175 395L92 404M175 395L233 433M246 399L233 433M246 399L299 414M246 399L347 436M381 383L474 376M381 383L299 414M381 383L347 436M381 383L404 412M474 376L485 345M474 376L404 412M474 376L544 436M474 376L562 422M485 345L544 436M636 374L641 382M636 374L763 377M636 374L544 436M636 374L562 422M636 374L659 471M641 382L562 422M641 382L659 471M763 377L827 345M763 377L763 401M763 377L823 430M827 345L903 363M827 345L763 401M827 345L823 430M903 363L1034 353M903 363L905 419M1034 353L1070 346M1034 353L1010 457M1034 353L1040 411M1070 346L1040 411M1070 346L1148 414M1200 386L1216 342M1200 386L1148 414M1200 386L1274 419M1200 386L1230 483M1216 342L1148 414M1216 342L1274 419M1337 343L1376 327M1337 343L1323 428M1376 327L1408 425M1506 365L1566 363M1506 365L1558 408M1566 363L1664 339M1566 363L1558 408M1566 363L1632 401M1664 339L1701 391M1664 339L1632 401M1664 339L1693 423M1701 391L1789 353M1701 391L1632 401M1701 391L1693 423M1789 353L1848 366M1789 353L1806 470M1789 353L1880 405M1848 366L1880 405M1950 354L2014 320M1950 354L1880 405M2014 320L2094 383M2094 383L2165 380M2094 383L2079 413M2094 383L2121 427M2165 380L2079 413M2165 380L2121 427M2165 380L2196 465M2277 377L2329 332M2277 377L2278 465M2277 377L2349 405M2329 332L2349 405M2461 334L2538 380M2461 334L2474 432M2538 380L2584 440M2538 380L2474 432M2538 380L2558 471M-22 380L24 440M24 440L92 404M24 440L-2 471M24 440L53 538M2584 440L2558 471M233 433L299 414M233 433L221 520M233 433L267 525M299 414L347 436M299 414L404 412M347 436L404 412M347 436L397 480M404 412L397 480M544 436L562 422M544 436L455 503M562 422L659 471M659 471L693 531M763 401L823 430M823 430L905 419M823 430L865 491M905 419L865 491M905 419L991 486M1010 457L1040 411M1010 457L959 542M1010 457L991 486M1010 457L1095 525M1040 411L1148 414M1040 411L991 486M1148 414L1150 506M1274 419L1323 428M1274 419L1230 483M1274 419L1295 495M1323 428L1408 425M1323 428L1295 495M1408 425L1452 479M1408 425L1426 520M1408 425L1441 497M1452 479L1558 408M1452 479L1426 520M1452 479L1441 497M1558 408L1632 401M1558 408L1585 515M1632 401L1693 423M1693 423L1702 506M1806 470L1880 405M1806 470L1797 550M1806 470L1894 500M1806 470L1784 579M1880 405L1894 500M1997 474L2079 413M1997 474L1894 500M1997 474L1955 553M1997 474L2033 519M2079 413L2121 427M2079 413L2084 511M2121 427L2196 465M2121 427L2084 511M2196 465L2278 465M2196 465L2174 552M2196 465L2267 519M2278 465L2349 405M2278 465L2267 519M2278 465L2366 524M2474 432L2558 471M2474 432L2414 500M2474 432L2492 512M2558 471L2613 538M2558 471L2492 512M-2 471L53 538M53 538L156 529M53 538L4 575M53 538L116 609M156 529L221 520M156 529L267 525M156 529L116 609M156 529L215 578M221 520L267 525M221 520L215 578M221 520L303 583M267 525L215 578M267 525L303 583M397 480L455 503M397 480L394 568M455 503L526 556M455 503L394 568M455 503L500 575M526 556L587 554M526 556L476 608M526 556L500 575M526 556L575 613M587 554L500 575M587 554L575 613M587 554L640 598M693 531L752 544M693 531L640 598M752 544L865 491M752 544L761 640M865 491L959 542M959 542L991 486M959 542L905 629M991 486L1095 525M1095 525L1150 506M1095 525L1061 574M1150 506L1230 483M1150 506L1061 574M1150 506L1156 615M1230 483L1295 495M1426 520L1441 497M1426 520L1385 614M1426 520L1498 600M1585 515L1641 518M1585 515L1546 599M1641 518L1702 506M1641 518L1682 585M1702 506L1797 550M1702 506L1682 585M1797 550L1784 579M1797 550L1881 580M1894 500L1955 553M1894 500L1881 580M1955 553L2033 519M1955 553L1881 580M1955 553L1964 638M2033 519L2084 511M2033 519L2074 572M2033 519L2092 619M2084 511L2174 552M2084 511L2074 572M2174 552L2267 519M2174 552L2214 627M2174 552L2187 659M2267 519L2366 524M2267 519L2306 578M2366 524L2414 500M2366 524L2306 578M2366 524L2346 575M2414 500L2492 512M2414 500L2346 575M2414 500L2477 573M2492 512L2477 573M2492 512L2499 608M4 575L-83 573M4 575L-61 608M4 575L-0 660M2564 575L2477 573M2564 575L2499 608M2564 575L2560 660M116 609L215 578M116 609L63 674M116 609L89 681M215 578L303 583M303 583L394 568M303 583L271 652M394 568L476 608M476 608L500 575M476 608L414 677M500 575L575 613M575 613L640 598M575 613L601 653M640 598L601 653M640 598L673 648M761 640L846 639M761 640L673 648M761 640L744 699M761 640L836 695M846 639L905 629M846 639L836 695M846 639L882 669M905 629L882 669M905 629L965 652M1028 640L1061 574M1028 640L965 652M1028 640L1103 669M1028 640L1041 728M1156 615L1243 627M1156 615L1103 669M1156 615L1152 679M1156 615L1223 682M1243 627L1325 627M1243 627L1152 679M1243 627L1223 682M1325 627L1385 614M1325 627L1340 702M1325 627L1381 695M1385 614L1340 702M1385 614L1381 695M1498 600L1546 599M1498 600L1603 617M1498 600L1501 693M1498 600L1530 649M1546 599L1603 617M1546 599L1501 693M1546 599L1530 649M1603 617L1682 585M1603 617L1530 649M1603 617L1629 683M1682 585L1784 579M1682 585L1629 683M1784 579L1881 580M1784 579L1825 681M1881 580L1851 671M1964 638L1963 670M1964 638L2032 688M2074 572L2092 619M2092 619L2108 705M2214 627L2306 578M2214 627L2187 659M2214 627L2273 702M2214 627L2229 737M2306 578L2346 575M2306 578L2370 666M2346 575L2370 666M2477 573L2499 608M2499 608L2446 703M2499 608L2560 660M63 674L89 681M63 674L-0 660M63 674L28 763M63 674L-1 724M2623 674L2560 660M2623 674L2559 724M89 681L-0 660M89 681L28 763M2649 681L2560 660M237 665L271 652M237 665L195 739M237 665L252 741M271 652L328 719M328 719L414 677M328 719L252 741M328 719L387 731M414 677L523 711M414 677L387 731M414 677L426 747M523 711L601 653M523 711L426 747M523 711L499 737M523 711L622 743M601 653L673 648M601 653L622 743M673 648L744 699M673 648L622 743M744 699L836 695M744 699L678 761M744 699L734 743M836 695L882 669M836 695L874 782M882 669L965 652M882 669L874 782M1103 669L1152 679M1103 669L1041 728M1152 679L1223 682M1152 679L1157 793M1223 682L1246 769M1340 702L1381 695M1340 702L1342 760M1340 702L1390 776M1381 695L1342 760M1381 695L1390 776M1501 693L1530 649M1530 649L1629 683M1629 683L1697 719M1697 719L1657 798M1697 719L1748 777M1697 719L1613 806M1697 719L1737 810M1825 681L1851 671M1825 681L1821 769M1825 681L1888 759M1851 671L1963 670M1851 671L1821 769M1851 671L1888 759M1963 670L2032 688M1963 670L1957 740M2032 688L2108 705M2032 688L2034 769M2108 705L2187 659M2108 705L2092 796M2187 659L2273 702M2187 659L2229 737M2273 702L2229 737M2273 702L2267 799M2273 702L2330 740M2370 666L2446 703M2370 666L2330 740M2446 703L2477 765M2560 660L2559 724M28 763L124 778M28 763L-1 724M28 763L29 815M2588 763L2559 724M124 778L195 739M124 778L133 829M124 778L113 893M195 739L252 741M195 739L234 802M252 741L234 802M252 741L244 831M387 731L426 747M387 731L499 737M387 731L391 853M426 747L499 737M426 747L391 853M622 743L678 761M622 743L734 743M678 761L734 743M678 761L694 834M734 743L694 834M734 743L769 849M874 782L939 756M874 782L855 819M874 782L952 847M939 756L1034 767M939 756L1041 728M939 756L952 847M939 756L1005 841M1034 767L1041 728M1034 767L1005 841M1034 767L1082 825M1041 728L1082 825M1157 793L1246 769M1157 793L1082 825M1157 793L1143 837M1157 793L1217 831M1246 769L1342 760M1246 769L1217 831M1342 760L1390 776M1342 760L1355 831M1390 776L1449 783M1390 776L1355 831M1449 783L1549 798M1449 783L1440 844M1449 783L1446 866M1549 798L1657 798M1549 798L1521 872M1549 798L1613 806M1549 798L1547 898M1657 798L1748 777M1657 798L1613 806M1657 798L1737 810M1748 777L1821 769M1748 777L1737 810M1821 769L1888 759M1821 769L1825 849M1888 759L1957 740M1888 759L1919 842M1957 740L2034 769M1957 740L1991 832M1957 740L2014 812M2034 769L2092 796M2034 769L1991 832M2034 769L2014 812M2092 796L2014 812M2092 796L2126 854M2229 737L2267 799M2229 737L2269 822M2267 799L2330 740M2267 799L2269 822M2330 740L2269 822M2330 740L2389 824M2477 765L2559 724M2477 765L2389 824M2477 765L2415 829M2477 765L2505 868M2559 724L2589 815M-1 724L29 815M29 815L133 829M29 815L-55 868M29 815L-20 896M2589 815L2505 868M2589 815L2540 896M133 829L234 802M133 829L244 831M133 829L113 893M234 802L244 831M244 831L229 911M244 831L326 881M391 853L400 869M391 853L326 881M400 869L326 881M528 870L571 860M528 870L469 951M528 870L555 927M528 870L629 881M571 860L555 927M571 860L629 881M694 834L769 849M694 834L629 881M694 834L762 907M769 849L855 819M769 849L762 907M769 849L824 891M855 819L952 847M855 819L824 891M952 847L1005 841M952 847L960 952M1005 841L1082 825M1082 825L1143 837M1143 837L1217 831M1143 837L1159 920M1217 831L1159 920M1217 831L1241 927M1355 831L1440 844M1355 831L1305 935M1440 844L1446 866M1440 844L1521 872M1446 866L1521 872M1446 866L1425 952M1446 866L1477 923M1521 872L1477 923M1521 872L1547 898M1613 806L1661 915M1737 810L1825 849M1737 810L1742 922M1825 849L1828 908M1825 849L1849 891M1919 842L1991 832M1919 842L2014 812M1919 842L1849 891M1919 842L1928 909M1991 832L2014 812M1991 832L1928 909M2126 854L2183 878M2126 854L2160 932M2126 854L2212 914M2183 878L2269 822M2183 878L2160 932M2183 878L2212 914M2389 824L2415 829M2389 824L2347 910M2389 824L2416 922M2415 829L2505 868M2415 829L2347 910M2415 829L2416 922M2505 868L2540 896M63 955L113 893M63 955L-20 896M63 955L27 992M63 955L159 1005M63 955L-34 1001M2623 955L2540 896M2623 955L2526 1001M113 893L159 1005M229 911L276 929M229 911L293 983M276 929L326 881M276 929L293 983M326 881L293 983M469 951L555 927M469 951L389 998M469 951L415 1003M469 951L530 987M555 927L629 881M555 927L530 987M629 881L664 958M664 958L571 1021M664 958L687 968M762 907L824 891M762 907L687 968M762 907L777 1012M824 891L903 956M824 891L872 976M903 956L960 952M903 956L872 976M903 956L919 1012M960 952L872 976M960 952L919 1012M960 952L1013 980M1093 950L1159 920M1093 950L1013 980M1093 950L1120 977M1093 950L1124 1027M1159 920L1241 927M1159 920L1120 977M1241 927L1305 935M1241 927L1275 1030M1305 935L1425 952M1305 935L1275 1030M1305 935L1360 974M1425 952L1477 923M1425 952L1360 974M1425 952L1422 965M1477 923L1547 898M1477 923L1422 965M1547 898L1661 915M1547 898L1578 996M1661 915L1742 922M1661 915L1578 996M1661 915L1661 1024M1742 922L1828 908M1742 922L1740 1021M1742 922L1785 982M1828 908L1849 891M1828 908L1928 909M1828 908L1785 982M1849 891L1928 909M1849 891L1852 1009M1928 909L1995 1012M2041 959L1995 1012M2041 959L2071 964M2041 959L2114 967M2041 959L1958 1046M2160 932L2212 914M2160 932L2071 964M2160 932L2114 967M2212 914L2285 949M2212 914L2218 1015M2285 949L2347 910M2285 949L2218 1015M2285 949L2272 1027M2285 949L2341 969M2347 910L2416 922M2347 910L2341 969M2416 922L2341 969M2416 922L2406 990M2540 896L2587 992M2540 896L2526 1001M-20 896L27 992M27 992L-34 1001M27 992L9 1077M2587 992L2526 1001M159 1005L160 1014M159 1005L201 1076M160 1014L80 1096M160 1014L201 1076M160 1014L269 1079M293 983L389 998M293 983L269 1079M389 998L415 1003M389 998L396 1050M389 998L415 1055M415 1003L530 987M415 1003L396 1050M415 1003L415 1055M530 987L571 1021M571 1021L557 1103M571 1021L562 1102M571 1021L659 1073M687 968L777 1012M687 968L659 1073M687 968L722 1083M777 1012L872 976M777 1012L722 1083M777 1012L802 1064M872 976L919 1012M919 1012L1013 980M919 1012L954 1091M1013 980L1120 977M1013 980L1046 1054M1120 977L1124 1027M1124 1027L1036 1076M1124 1027L1046 1054M1124 1027L1138 1094M1275 1030L1360 974M1275 1030L1266 1057M1275 1030L1352 1067M1360 974L1422 965M1360 974L1352 1067M1422 965L1519 1022M1422 965L1391 1075M1519 1022L1578 996M1519 1022L1477 1087M1519 1022L1551 1110M1578 996L1661 1024M1578 996L1662 1041M1661 1024L1740 1021M1661 1024L1662 1041M1661 1024L1680 1106M1740 1021L1785 982M1740 1021L1662 1041M1740 1021L1680 1106M1785 982L1852 1009M1785 982L1855 1049M1852 1009L1835 1115M1852 1009L1855 1049M1852 1009L1958 1046M1995 1012L2071 964M1995 1012L1958 1046M1995 1012L2045 1067M2071 964L2114 967M2071 964L2045 1067M2218 1015L2272 1027M2218 1015L2223 1079M2218 1015L2253 1091M2272 1027L2223 1079M2272 1027L2253 1091M2272 1027L2360 1061M2341 969L2406 990M2341 969L2360 1061M2406 990L2360 1061M2406 990L2483 1046M2526 1001L2569 1077M2526 1001L2483 1046M-34 1001L9 1077M9 1077L80 1096M9 1077L-77 1046M2569 1077L2483 1046M80 1096L71 1198M80 1096L152 1146M201 1076L269 1079M201 1076L152 1146M201 1076L228 1137M269 1079L228 1137M269 1079L296 1163M396 1050L415 1055M396 1050L426 1135M415 1055L426 1135M557 1103L562 1102M557 1103L554 1176M557 1103L612 1183M557 1103L599 1201M562 1102L554 1176M562 1102L612 1183M562 1102L599 1201M659 1073L722 1083M659 1073L698 1145M722 1083L802 1064M722 1083L698 1145M954 1091L1036 1076M954 1091L1046 1054M954 1091L909 1154M954 1091L971 1164M1036 1076L1046 1054M1036 1076L1049 1143M1046 1054L1049 1143M1138 1094L1049 1143M1138 1094L1218 1154M1266 1057L1352 1067M1352 1067L1391 1075M1352 1067L1378 1155M1391 1075L1477 1087M1391 1075L1378 1155M1477 1087L1551 1110M1477 1087L1473 1125M1477 1087L1522 1147M1551 1110L1473 1125M1551 1110L1522 1147M1551 1110L1519 1207M1662 1041L1680 1106M1680 1106L1677 1166M1835 1115L1855 1049M1835 1115L1756 1182M1835 1115L1787 1143M1835 1115L1885 1179M1855 1049L1958 1046M1855 1049L1787 1143M1958 1046L2045 1067M2045 1067L2085 1100M2045 1067L2028 1144M2085 1100L2028 1144M2085 1100L2130 1161M2223 1079L2253 1091M2223 1079L2198 1133M2253 1091L2198 1133M2360 1061L2447 1105M2360 1061L2381 1154M2447 1105L2483 1046M2447 1105L2381 1154M2447 1105L2460 1140M2447 1105L2490 1170M71 1198L152 1146M71 1198L40 1230M71 1198L130 1228M152 1146L228 1137M152 1146L130 1228M228 1137L296 1163M228 1137L232 1222M296 1163L336 1173M296 1163L232 1222M296 1163L244 1260M336 1173L426 1135M336 1173L370 1247M426 1135L370 1247M426 1135L413 1238M554 1176L612 1183M554 1176L538 1269M554 1176L599 1201M612 1183L698 1145M612 1183L599 1201M698 1145L768 1197M698 1145L707 1234M768 1197L874 1169M768 1197L707 1234M768 1197L757 1272M768 1197L736 1294M874 1169L909 1154M874 1169L971 1164M874 1169L880 1214M874 1169L944 1228M909 1154L971 1164M909 1154L880 1214M909 1154L944 1228M971 1164L1049 1143M971 1164L944 1228M1049 1143L1082 1233M1197 1188L1218 1154M1197 1188L1288 1181M1197 1188L1152 1265M1197 1188L1268 1212M1218 1154L1288 1181M1218 1154L1268 1212M1288 1181L1378 1155M1288 1181L1268 1212M1288 1181L1312 1210M1378 1155L1312 1210M1378 1155L1401 1231M1473 1125L1522 1147M1473 1125L1519 1207M1473 1125L1525 1210M1522 1147L1519 1207M1522 1147L1525 1210M1677 1166L1756 1182M1677 1166L1787 1143M1677 1166L1661 1242M1677 1166L1699 1243M1756 1182L1787 1143M1756 1182L1699 1243M1756 1182L1780 1260M1787 1143L1885 1179M1885 1179L1942 1198M1885 1179L1878 1242M1885 1179L1950 1210M1942 1198L2028 1144M1942 1198L1878 1242M1942 1198L1950 1210M1942 1198L2034 1274M2028 1144L2130 1161M2028 1144L1950 1210M2130 1161L2198 1133M2130 1161L2129 1211M2130 1161L2185 1269M2198 1133L2129 1211M2315 1172L2381 1154M2315 1172L2312 1214M2315 1172L2385 1211M2381 1154L2460 1140M2381 1154L2385 1211M2460 1140L2490 1170M2460 1140L2478 1217M2460 1140L2490 1243M2490 1170L2478 1217M2490 1170L2490 1243M40 1230L130 1228M40 1230L-11 1327M2600 1230L2549 1327M130 1228L232 1222M130 1228L118 1325M232 1222L244 1260M244 1260L211 1339M244 1260L306 1322M370 1247L413 1238M370 1247L306 1322M370 1247L395 1298M413 1238L395 1298M413 1238L482 1297M538 1269L599 1201M538 1269L474 1327M538 1269L482 1297M538 1269L535 1362M707 1234L757 1272M707 1234L653 1294M707 1234L736 1294M757 1272L736 1294M757 1272L852 1330M757 1272L783 1365M880 1214L944 1228M944 1228L975 1280M975 1280L930 1350M975 1280L983 1308M975 1280L1042 1344M1082 1233L1152 1265M1082 1233L1042 1344M1082 1233L1151 1307M1152 1265L1151 1307M1152 1265L1270 1295M1268 1212L1312 1210M1268 1212L1304 1281M1312 1210L1401 1231M1312 1210L1304 1281M1401 1231L1519 1207M1401 1231L1304 1281M1401 1231L1372 1281M1519 1207L1525 1210M1661 1242L1699 1243M1661 1242L1595 1319M1661 1242L1659 1292M1699 1243L1659 1292M1699 1243L1700 1325M1780 1260L1878 1242M1780 1260L1795 1348M1878 1242L1950 1210M1950 1210L2034 1274M2034 1274L2129 1211M2034 1274L2058 1300M2034 1274L2109 1293M2129 1211L2185 1269M2129 1211L2109 1293M2185 1269L2109 1293M2185 1269L2185 1328M2312 1214L2385 1211M2312 1214L2339 1297M2385 1211L2478 1217M2385 1211L2404 1298M2478 1217L2490 1243M2478 1217L2404 1298M2490 1243L2404 1298M2490 1243L2549 1327M9 1354L-11 1327M9 1354L44 1417M9 1354L-20 1425M2569 1354L2549 1327M2569 1354L2540 1425M118 1325L211 1339M118 1325L158 1419M118 1325L190 1421M211 1339L306 1322M211 1339L158 1419M211 1339L190 1421M306 1322L395 1298M306 1322L312 1417M395 1298L474 1327M474 1327L482 1297M474 1327L457 1372M474 1327L535 1362M482 1297L457 1372M482 1297L535 1362M614 1352L653 1294M614 1352L535 1362M614 1352L636 1436M614 1352L684 1433M653 1294L736 1294M736 1294L783 1365M852 1330L930 1350M852 1330L783 1365M852 1330L832 1380M930 1350L983 1308M930 1350L832 1380M930 1350L941 1428M983 1308L1042 1344M983 1308L1052 1382M1042 1344L1032 1414M1042 1344L1052 1382M1151 1307L1270 1295M1151 1307L1233 1381M1270 1295L1304 1281M1270 1295L1372 1281M1270 1295L1233 1381M1304 1281L1372 1281M1372 1281L1451 1342M1451 1342L1424 1407M1451 1342L1515 1403M1595 1319L1659 1292M1595 1319L1586 1376M1659 1292L1700 1325M1700 1325L1660 1412M1700 1325L1696 1397M1700 1325L1777 1370M1795 1348L1873 1358M1795 1348L1696 1397M1795 1348L1777 1370M1795 1348L1898 1367M1873 1358L1922 1346M1873 1358L1777 1370M1873 1358L1898 1367M1922 1346L1898 1367M1922 1346L1966 1415M1922 1346L2013 1406M2058 1300L2109 1293M2058 1300L2013 1406M2109 1293L2185 1328M2185 1328L2290 1350M2185 1328L2128 1419M2290 1350L2339 1297M2290 1350L2218 1429M2290 1350L2286 1420M2339 1297L2404 1298M2339 1297L2286 1420M2404 1298L2438 1406M2549 1327L2540 1425M44 1417L-20 1425M2604 1417L2540 1425M158 1419L190 1421M312 1417L378 1427M378 1427L457 1372M457 1372L535 1362M636 1436L684 1433M783 1365L832 1380M941 1428L1032 1414M1032 1414L1052 1382M1052 1382L1167 1438M1167 1438L1233 1381M1233 1381L1339 1430M1339 1430L1424 1407M1424 1407L1515 1403M1515 1403L1586 1376M1586 1376L1660 1412M1660 1412L1696 1397M1696 1397L1777 1370M1898 1367L1966 1415M1898 1367L2013 1406M1966 1415L2013 1406M2013 1406L2128 1419M2128 1419L2218 1429M2218 1429L2286 1420M2286 1420L2372 1417M2372 1417L2438 1406"/></svg>