<svg width="167" height="167" xmlns="http://www.w3.org/2000/svg"><path d="M167.6 83.2c0 46.281-37.519 83.8-83.8 83.8S0 129.481 0 83.2 37.519-.6 83.8-.6s83.8 37.519 83.8 83.8zm-27.9 0c0-6.8-5.5-12.2-12.2-12.2-3.3 0-6.3 1.3-8.5 3.4-8.4-6-19.9-9.9-32.7-10.4l5.6-26.2 18.2 3.9c.2 4.6 4 8.3 8.7 8.3 4.8 0 8.7-3.9 8.7-8.7 0-4.8-3.9-8.7-8.7-8.7-3.4 0-6.4 2-7.8 4.9l-20.3-4.3c-.6-.1-1.2 0-1.6.3-.5.3-.8.8-.9 1.4L82 64.1c-13 .4-24.7 4.3-33.2 10.4-2.2-2.1-5.2-3.4-8.5-3.4-6.8 0-12.2 5.5-12.2 12.2 0 5 3 9.2 7.2 11.1-.2 1.2-.3 2.4-.3 3.7 0 18.8 21.9 34.1 48.9 34.1s48.9-15.2 48.9-34.1c0-1.2-.1-2.5-.3-3.7 4.2-1.9 7.2-6.2 7.2-11.2zm-83.8 8.7c0-4.8 3.9-8.7 8.7-8.7 4.8 0 8.7 3.9 8.7 8.7 0 4.8-3.9 8.7-8.7 8.7-4.8.1-8.7-3.9-8.7-8.7zm48.7 23.1c-6 6-17.4 6.4-20.7 6.4-3.4 0-14.8-.5-20.7-6.4-.9-.9-.9-2.3 0-3.2.9-.9 2.3-.9 3.2 0 3.8 3.8 11.8 5.1 17.5 5.1 5.7 0 13.8-1.3 17.5-5.1.9-.9 2.3-.9 3.2 0 .8.9.8 2.3 0 3.2zm-1.6-14.3c-4.8 0-8.7-3.9-8.7-8.7 0-4.8 3.9-8.7 8.7-8.7 4.8 0 8.7 3.9 8.7 8.7 0 4.7-3.9 8.7-8.7 8.7z" fill="#fff"/></svg>