<svg width="345" height="341" xmlns="http://www.w3.org/2000/svg"><path d="M340.728 262.98c-60.61-29.34-70.27-74.64-70.7-78-.52-4.07-1.11-7.27 3.38-11.41 4.33-4 23.54-15.89 28.87-19.61 8.81-6.16 12.69-12.31 9.83-19.87-2-5.23-6.87-7.2-12-7.2a22.3 22.3 0 00-4.81.54c-9.68 2.1-19.08 6.95-24.52 8.26a8.56 8.56 0 01-2 .27c-2.9 0-4-1.29-3.72-4.78.68-10.58 2.12-31.23.45-50.52-2.29-26.54-10.85-39.69-21-51.32-4.91-5.64-27.71-29.87-71.71-29.87-44 0-66.77 24.23-71.65 29.8-10.18 11.63-18.73 24.78-21 51.32-1.67 19.29-.17 39.93.45 50.52.2 3.32-.82 4.78-3.72 4.78a8.64 8.64 0 01-2-.27c-5.43-1.31-14.83-6.16-24.51-8.26a22.3 22.3 0 00-4.81-.54c-5.15 0-10 2-12 7.2-2.86 7.56 1 13.71 9.84 19.87 5.33 3.72 24.54 15.6 28.87 19.61 4.48 4.14 3.9 7.34 3.38 11.41-.43 3.41-10.1 48.71-70.7 78-3.55 1.72-9.59 5.36 1.06 11.24 16.72 9.24 27.85 8.25 36.5 13.82 7.34 4.73 3 14.93 8.34 18.61 6.56 4.53 25.95-.32 51 7.95 21 6.92 33.76 26.47 71 26.47s50.37-19.64 71-26.47c25-8.27 44.43-3.42 51-7.95 5.33-3.68 1-13.88 8.34-18.61 8.65-5.57 19.77-4.58 36.5-13.82 10.63-5.81 4.59-9.45 1.04-11.17z" fill="#fff"/></svg>