<svg width="121.484" height="85.04" xmlns="http://www.w3.org/2000/svg"><path d="M118.95 13.279a15.216 15.216 0 00-10.741-10.74C98.735 0 60.746 0 60.746 0S22.757 0 13.283 2.539a15.216 15.216 0 00-10.741 10.74C.004 22.753.004 42.52.004 42.52s0 19.767 2.538 29.241a15.214 15.214 0 0010.741 10.74c9.474 2.539 47.463 2.539 47.463 2.539s37.989 0 47.463-2.539a15.214 15.214 0 0010.741-10.74c2.538-9.474 2.538-29.241 2.538-29.241s-.004-19.767-2.538-29.241zM48.598 60.743V24.297l31.561 18.224z" fill="#fff"/></svg>