<svg width="148" height="100" xmlns="http://www.w3.org/2000/svg"><path d="M136.06.009c-.02 0-.039-.009-.06-.009H12c-.021 0-.04.009-.06.01C5.35.06 0 5.416 0 12.004v75.992C0 94.615 5.398 100 12.031 100h123.938C142.602 100 148 94.615 148 87.996V12.004C148 5.416 142.65.06 136.06.009zM125.606 8L74 54.609 22.394 8h103.212zM8 85.938V12.004c0-1.756 1.161-3.207 2.748-3.746l37.604 33.966L8 85.938zM13.288 92l40.999-44.416L71.32 62.969A3.99 3.99 0 0074 64a3.99 3.99 0 002.68-1.031l17.033-15.385L134.712 92H13.288zM140 85.938L99.648 42.224l37.604-33.966c1.586.539 2.748 1.99 2.748 3.746v73.934z" fill="#fff"/></svg>