<svg width="32" height="32" fill="none" xmlns="http://www.w3.org/2000/svg"><g clip-path="url(#a)"><path d="M10.234 10.412v1.545h.043c.412-.59.91-1.046 1.49-1.366.578-.326 1.248-.486 2-.486.72 0 1.378.141 1.975.418.596.277 1.046.776 1.36 1.477.338-.498.8-.941 1.378-1.323.578-.382 1.268-.572 2.061-.572.604 0 1.164.073 1.68.221.517.148.954.382 1.324.708.369.326.652.744.861 1.268.203.523.308 1.15.308 1.889v7.637H21.58V15.36c0-.381-.012-.745-.043-1.083a2.343 2.343 0 0 0-.24-.88 1.474 1.474 0 0 0-.584-.597c-.259-.148-.61-.222-1.046-.222-.443 0-.8.087-1.071.253a1.84 1.84 0 0 0-.64.664c-.154.271-.259.579-.308.93-.049.344-.08.695-.08 1.046v6.357h-3.132v-6.4c0-.339-.006-.671-.025-1.003a2.765 2.765 0 0 0-.19-.917 1.402 1.402 0 0 0-.554-.671c-.259-.166-.634-.252-1.139-.252-.147 0-.344.03-.584.098s-.48.19-.708.376c-.228.184-.425.449-.585.793-.16.345-.24.8-.24 1.36v6.622H7.28V10.412h2.954Z" fill="#fff"/><path stroke="#fff" stroke-width="2" d="M5 1H0M1 1v31M0 31h5M27 1h5M31 1v31M32 31h-5"/></g><defs><clipPath id="a"><path fill="#fff" d="M0 0h32v32H0z"/></clipPath></defs></svg>