<svg width="83" height="98" xmlns="http://www.w3.org/2000/svg"><g fill="#fff"><path opacity=".68" d="M74.98 24.766c1.198-7.638-.008-12.834-4.139-17.542C66.293 2.042 58.077-.178 47.565-.178H17.051a4.365 4.365 0 00-4.312 3.686L.032 84.08a2.62 2.62 0 002.587 3.027h18.838l-1.3 8.245A2.29 2.29 0 0022.42 98h15.879c1.88 0 3.48-1.368 3.772-3.224l.156-.808L45.218 75l.193-1.048a3.82 3.82 0 013.772-3.225h2.375c15.383 0 27.428-6.249 30.947-24.323 1.471-7.552.71-13.856-3.179-18.288-1.175-1.338-2.639-2.446-4.346-3.35"/><path opacity=".7" d="M74.98 24.766c1.198-7.638-.008-12.834-4.139-17.542C66.293 2.042 58.077-.178 47.565-.178H17.051a4.365 4.365 0 00-4.312 3.686L.032 84.08a2.62 2.62 0 002.587 3.027h18.838L26.189 57.1l-.147.941a4.35 4.35 0 014.297-3.686h8.954c17.584 0 31.353-7.144 35.375-27.804.12-.61.221-1.203.312-1.785"/><path d="M31.273 24.867a3.818 3.818 0 013.773-3.224h23.919c2.834 0 5.476.186 7.891.575.69.111 1.362.239 2.015.384.947.21 1.883.466 2.804.768 1.186.394 2.291.858 3.307 1.397 1.198-7.638-.008-12.834-4.139-17.542-4.55-5.183-12.766-7.403-23.278-7.403H17.051a4.365 4.365 0 00-4.312 3.686L.032 84.08a2.62 2.62 0 002.587 3.027h18.838L26.189 57.1l5.084-32.233z"/></g></svg>