<svg xmlns="http://www.w3.org/2000/svg" width="2560" height="1440" fill="#fff"><circle cx="11" cy="13" r="5"/><circle cx="127" cy="3" r="5"/><circle cx="127" cy="1443" r="5"/><circle cx="167" cy="12" r="5"/><circle cx="293" cy="63" r="5"/><circle cx="366" cy="61" r="5"/><circle cx="448" cy="1" r="5"/><circle cx="448" cy="1441" r="5"/><circle cx="494" cy="62" r="6"/><circle cx="566" cy="80" r="5"/><circle cx="674" cy="17" r="4"/><circle cx="798" cy="24" r="4"/><circle cx="813" cy="3" r="5"/><circle cx="813" cy="1443" r="5"/><circle cx="937" cy="23" r="5"/><circle cx="988" cy="38" r="6"/><circle cx="1068" cy="76" r="6"/><circle cx="1136" cy="63" r="4"/><circle cx="1249" cy="31" r="4"/><circle cx="1330" cy="28" r="5"/><circle cx="1378" cy="43" r="4"/><circle cx="1444" cy="7" r="5"/><circle cx="1537" cy="1" r="6"/><circle cx="1537" cy="1441" r="6"/><circle cx="1662" cy="70" r="4"/><circle cx="1716" cy="77" r="5"/><circle cx="1785" cy="36" r="6"/><circle cx="1899" cy="59" r="4"/><circle cx="1973" cy="37" r="5"/><circle cx="2042" cy="19" r="6"/><circle cx="2109" cy="42" r="4"/><circle cx="2177" cy="7" r="4"/><circle cx="2240" cy="4" r="4"/><circle cx="2240" cy="1444" r="4"/><circle cx="2372" cy="61" r="5"/><circle cx="2463" cy="15" r="5"/><circle cx="2496" cy="16" r="5"/><circle cx="8" cy="110" r="4"/><circle cx="144" cy="128" r="5"/><circle cx="237" cy="127" r="5"/><circle cx="245" cy="97" r="5"/><circle cx="356" cy="102" r="5"/><circle cx="450" cy="146" r="5"/><circle cx="497" cy="129" r="5"/><circle cx="618" cy="158" r="5"/><circle cx="683" cy="123" r="6"/><circle cx="730" cy="96" r="5"/><circle cx="826" cy="138" r="4"/><circle cx="886" cy="154" r="5"/><circle cx="1039" cy="115" r="6"/><circle cx="1046" cy="119" r="5"/><circle cx="1164" cy="159" r="5"/><circle cx="1269" cy="81" r="6"/><circle cx="1293" cy="120" r="5"/><circle cx="1383" cy="152" r="5"/><circle cx="1442" cy="141" r="5"/><circle cx="1567" cy="138" r="5"/><circle cx="1663" cy="140" r="5"/><circle cx="1720" cy="129" r="5"/><circle cx="1772" cy="127" r="5"/><circle cx="1865" cy="105" r="4"/><circle cx="1989" cy="105" r="5"/><circle cx="2080" cy="126" r="4"/><circle cx="2102" cy="102" r="5"/><circle cx="2239" cy="154" r="5"/><circle cx="2284" cy="118" r="5"/><circle cx="2381" cy="134" r="6"/><circle cx="2418" cy="103" r="4"/><circle cx="2542" cy="129" r="6"/><circle cx="38" cy="230" r="5"/><circle cx="103" cy="168" r="6"/><circle cx="227" cy="181" r="5"/><circle cx="293" cy="229" r="5"/><circle cx="336" cy="227" r="5"/><circle cx="473" cy="175" r="5"/><circle cx="546" cy="189" r="4"/><circle cx="564" cy="221" r="4"/><circle cx="662" cy="240" r="4"/><circle cx="782" cy="178" r="4"/><circle cx="818" cy="230" r="4"/><circle cx="929" cy="218" r="6"/><circle cx="960" cy="161" r="6"/><circle cx="1050" cy="180" r="4"/><circle cx="1131" cy="161" r="5"/><circle cx="1235" cy="236" r="5"/><circle cx="1296" cy="189" r="4"/><circle cx="1397" cy="226" r="5"/><circle cx="1487" cy="235" r="5"/><circle cx="1553" cy="217" r="5"/><circle cx="1637" cy="216" r="5"/><circle cx="1708" cy="238" r="6"/><circle cx="1801" cy="183" r="5"/><circle cx="1906" cy="192" r="5"/><circle cx="1987" cy="180" r="5"/><circle cx="2048" cy="191" r="5"/><circle cx="2101" cy="233" r="5"/><circle cx="2199" cy="186" r="4"/><circle cx="2315" cy="167" r="6"/><circle cx="2334" cy="175" r="4"/><circle cx="2480" cy="208" r="5"/><circle cx="2517" cy="187" r="6"/><circle cx="54" cy="245" r="6"/><circle cx="84" cy="285" r="5"/><circle cx="225" cy="290" r="5"/><circle cx="288" cy="269" r="5"/><circle cx="371" cy="316" r="4"/><circle cx="423" cy="244" r="4"/><circle cx="508" cy="267" r="4"/><circle cx="578" cy="303" r="5"/><circle cx="707" cy="247" r="6"/><circle cx="780" cy="304" r="6"/><circle cx="805" cy="256" r="6"/><circle cx="960" cy="249" r="6"/><circle cx="964" cy="264" r="5"/><circle cx="1077" cy="255" r="6"/><circle cx="1164" cy="305" r="4"/><circle cx="1214" cy="274" r="4"/><circle cx="1328" cy="311" r="6"/><circle cx="1417" cy="304" r="5"/><circle cx="1448" cy="270" r="6"/><circle cx="1566" cy="265" r="5"/><circle cx="1638" cy="270" r="5"/><circle cx="1760" cy="294" r="4"/><circle cx="1832" cy="250" r="6"/><circle cx="1849" cy="257" r="4"/><circle cx="1981" cy="266" r="4"/><circle cx="2009" cy="272" r="6"/><circle cx="2112" cy="305" r="6"/><circle cx="2180" cy="244" r="4"/><circle cx="2310" cy="251" r="5"/><circle cx="2380" cy="287" r="5"/><circle cx="2462" cy="318" r="5"/><circle cx="2487" cy="261" r="5"/><circle cx="70" cy="381" r="5"/><circle cx="136" cy="386" r="5"/><circle cx="185" cy="322" r="5"/><circle cx="315" cy="377" r="6"/><circle cx="354" cy="379" r="4"/><circle cx="477" cy="381" r="6"/><circle cx="488" cy="359" r="5"/><circle cx="617" cy="357" r="5"/><circle cx="675" cy="392" r="5"/><circle cx="797" cy="372" r="4"/><circle cx="815" cy="378" r="5"/><circle cx="957" cy="391" r="6"/><circle cx="980" cy="354" r="4"/><circle cx="1071" cy="355" r="6"/><circle cx="1135" cy="344" r="6"/><circle cx="1254" cy="359" r="4"/><circle cx="1333" cy="356" r="6"/><circle cx="1374" cy="390" r="5"/><circle cx="1468" cy="377" r="6"/><circle cx="1575" cy="381" r="6"/><circle cx="1614" cy="350" r="5"/><circle cx="1726" cy="340" r="6"/><circle cx="1771" cy="343" r="4"/><circle cx="1874" cy="393" r="4"/><circle cx="1934" cy="334" r="6"/><circle cx="2061" cy="332" r="4"/><circle cx="2141" cy="353" r="5"/><circle cx="2208" cy="345" r="4"/><circle cx="2304" cy="361" r="6"/><circle cx="2395" cy="346" r="6"/><circle cx="2472" cy="343" r="5"/><circle cx="2518" cy="336" r="5"/><circle cx="38" cy="417" r="6"/><circle cx="98" cy="476" r="4"/><circle cx="190" cy="412" r="6"/><circle cx="283" cy="443" r="5"/><circle cx="386" cy="462" r="6"/><circle cx="416" cy="480" r="5"/><circle cx="515" cy="401" r="4"/><circle cx="586" cy="416" r="6"/><circle cx="711" cy="405" r="6"/><circle cx="730" cy="402" r="4"/><circle cx="842" cy="453" r="5"/><circle cx="934" cy="474" r="4"/><circle cx="969" cy="437" r="5"/><circle cx="1110" cy="428" r="4"/><circle cx="1169" cy="475" r="5"/><circle cx="1248" cy="401" r="4"/><circle cx="1313" cy="474" r="4"/><circle cx="1419" cy="417" r="5"/><circle cx="1480" cy="431" r="6"/><circle cx="1591" cy="434" r="5"/><circle cx="1654" cy="410" r="4"/><circle cx="1699" cy="409" r="5"/><circle cx="1818" cy="423" r="6"/><circle cx="1877" cy="452" r="4"/><circle cx="1957" cy="412" r="6"/><circle cx="2027" cy="455" r="6"/><circle cx="2080" cy="401" r="6"/><circle cx="2207" cy="452" r="5"/><circle cx="2267" cy="450" r="5"/><circle cx="2373" cy="477" r="5"/><circle cx="2426" cy="440" r="4"/><circle cx="2520" cy="444" r="5"/><circle cx="75" cy="554" r="5"/><circle cx="151" cy="551" r="6"/><circle cx="189" cy="524" r="6"/><circle cx="310" cy="516" r="5"/><circle cx="351" cy="512" r="5"/><circle cx="472" cy="496" r="5"/><circle cx="518" cy="507" r="4"/><circle cx="600" cy="493" r="4"/><circle cx="679" cy="513" r="5"/><circle cx="770" cy="508" r="4"/><circle cx="865" cy="525" r="4"/><circle cx="909" cy="523" r="4"/><circle cx="963" cy="490" r="5"/><circle cx="1103" cy="515" r="4"/><circle cx="1131" cy="516" r="4"/><circle cx="1231" cy="523" r="4"/><circle cx="1306" cy="522" r="6"/><circle cx="1428" cy="553" r="6"/><circle cx="1441" cy="490" r="5"/><circle cx="1540" cy="512" r="5"/><circle cx="1654" cy="531" r="4"/><circle cx="1688" cy="518" r="5"/><circle cx="1825" cy="544" r="5"/><circle cx="1841" cy="482" r="4"/><circle cx="1985" cy="512" r="6"/><circle cx="2037" cy="548" r="6"/><circle cx="2092" cy="497" r="6"/><circle cx="2187" cy="554" r="5"/><circle cx="2294" cy="528" r="5"/><circle cx="2369" cy="524" r="5"/><circle cx="2461" cy="502" r="5"/><circle cx="2558" cy="541" r="6"/><circle cx="-2" cy="541" r="6"/><circle cx="1" cy="615" r="4"/><circle cx="2561" cy="615" r="4"/><circle cx="139" cy="585" r="4"/><circle cx="174" cy="628" r="5"/><circle cx="270" cy="572" r="4"/><circle cx="389" cy="618" r="6"/><circle cx="474" cy="609" r="5"/><circle cx="506" cy="624" r="5"/><circle cx="628" cy="622" r="4"/><circle cx="679" cy="596" r="5"/><circle cx="770" cy="584" r="5"/><circle cx="844" cy="622" r="4"/><circle cx="918" cy="575" r="5"/><circle cx="1018" cy="591" r="5"/><circle cx="1090" cy="630" r="6"/><circle cx="1151" cy="582" r="5"/><circle cx="1279" cy="573" r="6"/><circle cx="1343" cy="575" r="6"/><circle cx="1427" cy="601" r="4"/><circle cx="1505" cy="588" r="5"/><circle cx="1598" cy="588" r="6"/><circle cx="1640" cy="561" r="6"/><circle cx="1736" cy="617" r="5"/><circle cx="1798" cy="574" r="4"/><circle cx="1883" cy="587" r="5"/><circle cx="1966" cy="609" r="5"/><circle cx="2052" cy="590" r="4"/><circle cx="2126" cy="565" r="5"/><circle cx="2186" cy="580" r="4"/><circle cx="2279" cy="631" r="5"/><circle cx="2341" cy="626" r="5"/><circle cx="2404" cy="617" r="6"/><circle cx="2533" cy="616" r="4"/><circle cx="69" cy="646" r="5"/><circle cx="110" cy="672" r="5"/><circle cx="233" cy="714" r="5"/><circle cx="267" cy="654" r="6"/><circle cx="343" cy="667" r="4"/><circle cx="451" cy="654" r="4"/><circle cx="524" cy="663" r="5"/><circle cx="579" cy="687" r="5"/><circle cx="689" cy="664" r="6"/><circle cx="767" cy="696" r="5"/><circle cx="821" cy="710" r="6"/><circle cx="941" cy="699" r="4"/><circle cx="976" cy="690" r="4"/><circle cx="1062" cy="653" r="5"/><circle cx="1148" cy="642" r="6"/><circle cx="1239" cy="642" r="6"/><circle cx="1287" cy="654" r="5"/><circle cx="1408" cy="646" r="5"/><circle cx="1457" cy="702" r="6"/><circle cx="1545" cy="694" r="6"/><circle cx="1648" cy="697" r="4"/><circle cx="1752" cy="661" r="4"/><circle cx="1789" cy="688" r="6"/><circle cx="1847" cy="694" r="4"/><circle cx="1965" cy="651" r="5"/><circle cx="2010" cy="689" r="6"/><circle cx="2121" cy="641" r="4"/><circle cx="2173" cy="665" r="6"/><circle cx="2301" cy="668" r="5"/><circle cx="2387" cy="695" r="5"/><circle cx="2470" cy="654" r="6"/><circle cx="2495" cy="688" r="5"/><circle cx="31" cy="756" r="6"/><circle cx="117" cy="799" r="6"/><circle cx="186" cy="723" r="4"/><circle cx="245" cy="730" r="6"/><circle cx="329" cy="765" r="5"/><circle cx="476" cy="772" r="5"/><circle cx="524" cy="729" r="5"/><circle cx="575" cy="766" r="5"/><circle cx="681" cy="774" r="4"/><circle cx="721" cy="798" r="6"/><circle cx="816" cy="749" r="5"/><circle cx="888" cy="737" r="5"/><circle cx="1040" cy="797" r="5"/><circle cx="1118" cy="752" r="5"/><circle cx="1178" cy="795" r="5"/><circle cx="1227" cy="748" r="6"/><circle cx="1314" cy="728" r="6"/><circle cx="1408" cy="790" r="4"/><circle cx="1453" cy="765" r="4"/><circle cx="1571" cy="773" r="4"/><circle cx="1608" cy="777" r="5"/><circle cx="1681" cy="773" r="5"/><circle cx="1809" cy="751" r="6"/><circle cx="1906" cy="742" r="4"/><circle cx="1981" cy="745" r="4"/><circle cx="2035" cy="792" r="4"/><circle cx="2122" cy="767" r="4"/><circle cx="2201" cy="774" r="4"/><circle cx="2244" cy="750" r="4"/><circle cx="2367" cy="795" r="5"/><circle cx="2465" cy="728" r="5"/><circle cx="2490" cy="782" r="5"/><circle cx="48" cy="858" r="6"/><circle cx="136" cy="805" r="5"/><circle cx="203" cy="811" r="6"/><circle cx="284" cy="858" r="5"/><circle cx="374" cy="850" r="5"/><circle cx="400" cy="838" r="5"/><circle cx="522" cy="836" r="4"/><circle cx="573" cy="879" r="5"/><circle cx="700" cy="838" r="5"/><circle cx="786" cy="840" r="4"/><circle cx="816" cy="878" r="4"/><circle cx="920" cy="876" r="6"/><circle cx="966" cy="821" r="6"/><circle cx="1081" cy="870" r="6"/><circle cx="1193" cy="853" r="5"/><circle cx="1208" cy="802" r="6"/><circle cx="1289" cy="851" r="5"/><circle cx="1412" cy="811" r="5"/><circle cx="1442" cy="811" r="4"/><circle cx="1524" cy="837" r="6"/><circle cx="1625" cy="878" r="5"/><circle cx="1730" cy="839" r="6"/><circle cx="1833" cy="854" r="5"/><circle cx="1864" cy="847" r="5"/><circle cx="1954" cy="848" r="4"/><circle cx="2037" cy="818" r="6"/><circle cx="2135" cy="817" r="6"/><circle cx="2173" cy="821" r="4"/><circle cx="2306" cy="871" r="5"/><circle cx="2365" cy="807" r="5"/><circle cx="2426" cy="879" r="6"/><circle cx="2536" cy="824" r="6"/><circle cx="66" cy="914" r="5"/><circle cx="130" cy="952" r="4"/><circle cx="230" cy="940" r="4"/><circle cx="286" cy="884" r="5"/><circle cx="352" cy="933" r="4"/><circle cx="472" cy="911" r="5"/><circle cx="507" cy="955" r="4"/><circle cx="589" cy="959" r="5"/><circle cx="649" cy="907" r="5"/><circle cx="796" cy="936" r="6"/><circle cx="859" cy="937" r="4"/><circle cx="902" cy="916" r="5"/><circle cx="1028" cy="919" r="5"/><circle cx="1089" cy="929" r="4"/><circle cx="1186" cy="948" r="5"/><circle cx="1215" cy="889" r="5"/><circle cx="1350" cy="925" r="6"/><circle cx="1434" cy="936" r="5"/><circle cx="1494" cy="944" r="6"/><circle cx="1530" cy="938" r="5"/><circle cx="1665" cy="932" r="6"/><circle cx="1736" cy="951" r="6"/><circle cx="1790" cy="903" r="6"/><circle cx="1887" cy="894" r="5"/><circle cx="1980" cy="923" r="5"/><circle cx="2045" cy="916" r="6"/><circle cx="2104" cy="931" r="5"/><circle cx="2225" cy="936" r="4"/><circle cx="2313" cy="911" r="5"/><circle cx="2327" cy="939" r="4"/><circle cx="2468" cy="895" r="6"/><circle cx="2511" cy="918" r="6"/><circle cx="53" cy="1003" r="5"/><circle cx="123" cy="1030" r="6"/><circle cx="228" cy="1001" r="5"/><circle cx="278" cy="1003" r="6"/><circle cx="321" cy="1007" r="5"/><circle cx="418" cy="972" r="4"/><circle cx="560" cy="1034" r="5"/><circle cx="561" cy="966" r="5"/><circle cx="657" cy="989" r="5"/><circle cx="744" cy="966" r="5"/><circle cx="803" cy="983" r="5"/><circle cx="956" cy="1039" r="6"/><circle cx="981" cy="1029" r="6"/><circle cx="1058" cy="1020" r="5"/><circle cx="1154" cy="1027" r="5"/><circle cx="1210" cy="1002" r="6"/><circle cx="1329" cy="990" r="4"/><circle cx="1380" cy="1005" r="4"/><circle cx="1454" cy="992" r="5"/><circle cx="1540" cy="988" r="5"/><circle cx="1660" cy="1006" r="4"/><circle cx="1727" cy="1036" r="5"/><circle cx="1791" cy="1028" r="5"/><circle cx="1907" cy="1011" r="5"/><circle cx="1927" cy="1020" r="4"/><circle cx="2058" cy="975" r="5"/><circle cx="2132" cy="1039" r="5"/><circle cx="2162" cy="994" r="5"/><circle cx="2251" cy="965" r="6"/><circle cx="2335" cy="1019" r="4"/><circle cx="2438" cy="974" r="4"/><circle cx="2552" cy="1005" r="4"/><circle cx="11" cy="1084" r="6"/><circle cx="91" cy="1052" r="6"/><circle cx="188" cy="1083" r="4"/><circle cx="275" cy="1058" r="6"/><circle cx="353" cy="1092" r="6"/><circle cx="413" cy="1106" r="5"/><circle cx="551" cy="1079" r="6"/><circle cx="628" cy="1089" r="5"/><circle cx="708" cy="1058" r="5"/><circle cx="769" cy="1081" r="6"/><circle cx="870" cy="1052" r="6"/><circle cx="927" cy="1114" r="6"/><circle cx="963" cy="1107" r="6"/><circle cx="1045" cy="1067" r="6"/><circle cx="1128" cy="1069" r="5"/><circle cx="1264" cy="1046" r="4"/><circle cx="1333" cy="1102" r="5"/><circle cx="1375" cy="1069" r="5"/><circle cx="1447" cy="1080" r="4"/><circle cx="1523" cy="1109" r="5"/><circle cx="1679" cy="1043" r="5"/><circle cx="1747" cy="1112" r="5"/><circle cx="1825" cy="1077" r="5"/><circle cx="1901" cy="1101" r="5"/><circle cx="1962" cy="1116" r="6"/><circle cx="2015" cy="1078" r="5"/><circle cx="2101" cy="1059" r="5"/><circle cx="2227" cy="1071" r="5"/><circle cx="2261" cy="1113" r="5"/><circle cx="2323" cy="1071" r="6"/><circle cx="2468" cy="1072" r="5"/><circle cx="2536" cy="1060" r="6"/><circle cx="11" cy="1149" r="5"/><circle cx="90" cy="1129" r="6"/><circle cx="237" cy="1142" r="6"/><circle cx="261" cy="1158" r="5"/><circle cx="392" cy="1143" r="6"/><circle cx="421" cy="1167" r="4"/><circle cx="512" cy="1137" r="5"/><circle cx="631" cy="1145" r="5"/><circle cx="719" cy="1138" r="5"/><circle cx="738" cy="1162" r="5"/><circle cx="808" cy="1192" r="5"/><circle cx="931" cy="1142" r="6"/><circle cx="970" cy="1121" r="5"/><circle cx="1104" cy="1191" r="4"/><circle cx="1183" cy="1198" r="5"/><circle cx="1240" cy="1121" r="4"/><circle cx="1287" cy="1163" r="6"/><circle cx="1409" cy="1144" r="5"/><circle cx="1492" cy="1122" r="4"/><circle cx="1561" cy="1166" r="4"/><circle cx="1635" cy="1138" r="5"/><circle cx="1706" cy="1136" r="4"/><circle cx="1834" cy="1147" r="6"/><circle cx="1863" cy="1166" r="6"/><circle cx="2000" cy="1175" r="5"/><circle cx="2074" cy="1187" r="4"/><circle cx="2102" cy="1161" r="4"/><circle cx="2187" cy="1126" r="6"/><circle cx="2319" cy="1152" r="6"/><circle cx="2353" cy="1161" r="6"/><circle cx="2412" cy="1153" r="4"/><circle cx="2505" cy="1131" r="5"/><circle cx="80" cy="1209" r="5"/><circle cx="106" cy="1279" r="4"/><circle cx="234" cy="1209" r="6"/><circle cx="310" cy="1209" r="5"/><circle cx="341" cy="1280" r="5"/><circle cx="445" cy="1222" r="5"/><circle cx="489" cy="1257" r="4"/><circle cx="569" cy="1201" r="4"/><circle cx="658" cy="1240" r="4"/><circle cx="734" cy="1269" r="6"/><circle cx="838" cy="1238" r="6"/><circle cx="948" cy="1257" r="6"/><circle cx="966" cy="1277" r="5"/><circle cx="1087" cy="1213" r="4"/><circle cx="1187" cy="1264" r="4"/><circle cx="1250" cy="1247" r="4"/><circle cx="1356" cy="1252" r="4"/><circle cx="1427" cy="1257" r="5"/><circle cx="1453" cy="1261" r="6"/><circle cx="1559" cy="1234" r="4"/><circle cx="1676" cy="1209" r="6"/><circle cx="1745" cy="1260" r="6"/><circle cx="1790" cy="1279" r="5"/><circle cx="1893" cy="1242" r="6"/><circle cx="1974" cy="1257" r="5"/><circle cx="2002" cy="1223" r="5"/><circle cx="2140" cy="1263" r="4"/><circle cx="2180" cy="1240" r="6"/><circle cx="2295" cy="1215" r="4"/><circle cx="2360" cy="1279" r="5"/><circle cx="2466" cy="1259" r="4"/><circle cx="2521" cy="1232" r="6"/><circle cx="46" cy="1304" r="5"/><circle cx="99" cy="1284" r="4"/><circle cx="188" cy="1352" r="4"/><circle cx="264" cy="1298" r="5"/><circle cx="399" cy="1338" r="5"/><circle cx="451" cy="1301" r="5"/><circle cx="507" cy="1331" r="4"/><circle cx="586" cy="1285" r="4"/><circle cx="644" cy="1344" r="5"/><circle cx="737" cy="1347" r="5"/><circle cx="816" cy="1312" r="5"/><circle cx="943" cy="1303" r="5"/><circle cx="966" cy="1316" r="5"/><circle cx="1062" cy="1342" r="6"/><circle cx="1136" cy="1324" r="6"/><circle cx="1264" cy="1355" r="5"/><circle cx="1299" cy="1359" r="6"/><circle cx="1384" cy="1314" r="4"/><circle cx="1455" cy="1316" r="4"/><circle cx="1540" cy="1352" r="5"/><circle cx="1604" cy="1287" r="5"/><circle cx="1741" cy="1294" r="4"/><circle cx="1814" cy="1320" r="5"/><circle cx="1879" cy="1351" r="5"/><circle cx="1979" cy="1289" r="5"/><circle cx="2053" cy="1289" r="5"/><circle cx="2118" cy="1287" r="4"/><circle cx="2160" cy="1342" r="5"/><circle cx="2313" cy="1312" r="5"/><circle cx="2367" cy="1334" r="5"/><circle cx="2423" cy="1301" r="6"/><circle cx="2549" cy="1288" r="5"/><circle cx="27" cy="1425" r="5"/><circle cx="98" cy="1369" r="4"/><circle cx="186" cy="1436" r="5"/><circle cx="186" cy="-4" r="5"/><circle cx="243" cy="1370" r="5"/><circle cx="350" cy="1365" r="5"/><circle cx="473" cy="1376" r="4"/><circle cx="516" cy="1408" r="4"/><circle cx="597" cy="1399" r="5"/><circle cx="672" cy="1378" r="6"/><circle cx="738" cy="1366" r="6"/><circle cx="804" cy="1371" r="4"/><circle cx="926" cy="1371" r="6"/><circle cx="1014" cy="1377" r="4"/><circle cx="1100" cy="1379" r="5"/><circle cx="1154" cy="1361" r="5"/><circle cx="1267" cy="1424" r="5"/><circle cx="1297" cy="1401" r="6"/><circle cx="1425" cy="1382" r="5"/><circle cx="1477" cy="1409" r="4"/><circle cx="1598" cy="1373" r="6"/><circle cx="1606" cy="1384" r="6"/><circle cx="1698" cy="1386" r="4"/><circle cx="1798" cy="1403" r="6"/><circle cx="1909" cy="1417" r="6"/><circle cx="1961" cy="1375" r="5"/><circle cx="2018" cy="1409" r="5"/><circle cx="2081" cy="1438" r="5"/><circle cx="2081" cy="-2" r="5"/><circle cx="2214" cy="1397" r="5"/><circle cx="2283" cy="1432" r="5"/><circle cx="2384" cy="1434" r="5"/><circle cx="2467" cy="1407" r="6"/><circle cx="2490" cy="1401" r="4"/><path stroke="#fff" d="M11 13L-64 16M11 13L8 110M11 13L27 -15M11 13L-70 -39M2571 13L2496 16M2571 13L2490 -39M11 1453L27 1425M11 1453L-70 1401M2571 1453L2490 1401M127 3L167 12M127 3L27 -15M127 3L98 -71M127 3L186 -4M127 1443L27 1425M127 1443L98 1369M127 1443L186 1436M167 12L188 -88M167 12L186 -4M167 12L243 -70M167 1452L188 1352M167 1452L186 1436M167 1452L243 1370M293 63L366 61M293 63L237 127M293 63L245 97M293 63L356 102M293 63L186 -4M293 1503L186 1436M366 61L448 1M366 61L356 102M448 1L494 62M448 1L399 -102M448 1L473 -64M448 1L516 -32M448 1441L399 1338M448 1441L473 1376M448 1441L516 1408M494 62L566 80M494 62L450 146M494 62L497 129M494 62L516 -32M494 1502L516 1408M566 80L497 129M566 80L618 158M674 17L683 123M674 17L730 96M674 17L597 -41M674 17L672 -62M674 1457L597 1399M674 1457L672 1378M798 24L813 3M798 24L730 96M798 24L804 -69M798 1464L804 1371M813 3L804 -69M813 1443L804 1371M937 23L988 38M937 23L926 -69M937 1463L926 1371M988 38L1068 76M988 38L1039 115M988 38L1046 119M988 38L1014 -63M988 1478L1014 1377M1068 76L1136 63M1068 76L1039 115M1068 76L1046 119M1068 76L1131 161M1136 63L1164 159M1136 63L1131 161M1249 31L1330 28M1249 31L1269 81M1249 31L1293 120M1249 31L1267 -16M1249 31L1297 -39M1249 1471L1267 1424M1249 1471L1297 1401M1330 28L1378 43M1330 28L1269 81M1330 28L1267 -16M1330 28L1297 -39M1330 1468L1267 1424M1330 1468L1297 1401M1378 43L1444 7M1378 43L1383 152M1444 7L1537 1M1444 7L1425 -58M1444 7L1477 -31M1444 1447L1425 1382M1444 1447L1477 1409M1537 1L1540 -88M1537 1L1477 -31M1537 1L1598 -67M1537 1L1606 -56M1537 1441L1540 1352M1537 1441L1477 1409M1537 1441L1598 1373M1537 1441L1606 1384M1662 70L1716 77M1662 70L1567 138M1662 70L1663 140M1662 70L1720 129M1716 77L1785 36M1716 77L1663 140M1716 77L1720 129M1716 77L1772 127M1785 36L1772 127M1785 36L1865 105M1785 36L1798 -37M1785 1476L1798 1403M1899 59L1973 37M1899 59L1865 105M1899 59L1989 105M1899 59L1909 -23M1899 1499L1909 1417M1973 37L2042 19M1973 37L1989 105M1973 37L1909 -23M1973 37L2018 -31M1973 1477L1909 1417M1973 1477L2018 1409M2042 19L2109 42M2042 19L1989 105M2042 19L2018 -31M2042 19L2081 -2M2042 1459L2018 1409M2042 1459L2081 1438M2109 42L2177 7M2109 42L2080 126M2109 42L2102 102M2109 42L2081 -2M2109 1482L2081 1438M2177 7L2240 4M2177 7L2160 -98M2177 7L2081 -2M2177 7L2214 -43M2177 1447L2160 1342M2177 1447L2081 1438M2177 1447L2214 1397M2240 4L2214 -43M2240 4L2283 -8M2240 1444L2214 1397M2240 1444L2283 1432M2372 61L2463 15M2372 61L2284 118M2372 61L2381 134M2372 61L2418 103M2372 61L2384 -6M2372 1501L2384 1434M2463 15L2496 16M2463 15L2384 -6M2463 15L2467 -33M2463 15L2490 -39M2463 1455L2384 1434M2463 1455L2467 1407M2463 1455L2490 1401M2496 16L2587 -15M2496 16L2467 -33M2496 16L2490 -39M-64 16L27 -15M-64 1456L27 1425M2496 1456L2587 1425M2496 1456L2467 1407M2496 1456L2490 1401M8 110L-18 129M8 110L-43 187M2568 110L2542 129M2568 110L2517 187M144 128L237 127M144 128L245 97M144 128L103 168M144 128L227 181M237 127L245 97M237 127L227 181M237 127L293 229M245 97L356 102M245 97L227 181M356 102L450 146M450 146L497 129M450 146L473 175M450 146L423 244M497 129L473 175M497 129L546 189M618 158L683 123M618 158L546 189M618 158L564 221M618 158L662 240M683 123L730 96M683 123L707 247M730 96L826 138M730 96L782 178M826 138L886 154M826 138L782 178M826 138L818 230M886 154L818 230M886 154L929 218M886 154L960 161M1039 115L1046 119M1039 115L960 161M1039 115L1050 180M1046 119L960 161M1046 119L1050 180M1164 159L1131 161M1164 159L1235 236M1269 81L1293 120M1293 120L1383 152M1293 120L1296 189M1383 152L1442 141M1383 152L1296 189M1383 152L1397 226M1442 141L1397 226M1567 138L1663 140M1567 138L1553 217M1663 140L1720 129M1663 140L1637 216M1720 129L1772 127M1720 129L1801 183M1772 127L1865 105M1772 127L1801 183M1865 105L1906 192M1989 105L2080 126M1989 105L1987 180M2080 126L2102 102M2080 126L2048 191M2102 102L2048 191M2102 102L2081 -2M2102 1542L2081 1438M2239 154L2284 118M2239 154L2199 186M2239 154L2315 167M2239 154L2334 175M2239 154L2180 244M2284 118L2381 134M2284 118L2315 167M2284 118L2334 175M2381 134L2418 103M2381 134L2315 167M2381 134L2334 175M2542 129L2598 230M2542 129L2663 168M2542 129L2480 208M2542 129L2517 187M-18 129L38 230M-18 129L103 168M38 230L103 168M38 230L-43 187M38 230L54 245M38 230L84 285M2598 230L2517 187M103 168L54 245M103 168L84 285M227 181L293 229M293 229L336 227M293 229L225 290M293 229L288 269M336 227L288 269M336 227L371 316M336 227L423 244M473 175L546 189M473 175L423 244M546 189L564 221M546 189L508 267M564 221L662 240M564 221L508 267M564 221L578 303M662 240L707 247M782 178L818 230M782 178L707 247M782 178L805 256M818 230L780 304M818 230L805 256M929 218L960 161M929 218L960 249M929 218L964 264M960 161L960 249M1050 180L1131 161M1050 180L1077 255M1235 236L1296 189M1235 236L1164 305M1235 236L1214 274M1397 226L1487 235M1397 226L1417 304M1397 226L1448 270M1487 235L1553 217M1487 235L1448 270M1487 235L1566 265M1553 217L1637 216M1553 217L1566 265M1553 217L1638 270M1637 216L1708 238M1637 216L1566 265M1637 216L1638 270M1708 238L1801 183M1708 238L1638 270M1708 238L1760 294M1708 238L1726 340M1801 183L1832 250M1801 183L1849 257M1906 192L1987 180M1906 192L1832 250M1906 192L1849 257M1906 192L1981 266M1987 180L2048 191M1987 180L1981 266M1987 180L2009 272M2048 191L2101 233M2048 191L2009 272M2101 233L2112 305M2101 233L2180 244M2101 233L2061 332M2199 186L2180 244M2315 167L2334 175M2315 167L2310 251M2334 175L2310 251M2480 208L2517 187M2480 208L2614 245M2480 208L2487 261M-80 208L54 245M2517 187L2487 261M54 245L84 285M84 285L70 381M84 285L185 322M225 290L288 269M225 290L185 322M225 290L190 412M288 269L371 316M288 269L315 377M371 316L423 244M371 316L315 377M371 316L354 379M423 244L508 267M508 267L578 303M508 267L488 359M578 303L488 359M578 303L617 357M707 247L780 304M707 247L805 256M780 304L805 256M780 304L797 372M780 304L815 378M960 249L964 264M960 249L980 354M964 264L1077 255M964 264L980 354M1077 255L1164 305M1077 255L1071 355M1077 255L1135 344M1164 305L1214 274M1164 305L1135 344M1214 274L1135 344M1214 274L1254 359M1328 311L1417 304M1328 311L1254 359M1328 311L1333 356M1328 311L1374 390M1417 304L1448 270M1417 304L1333 356M1417 304L1468 377M1566 265L1638 270M1566 265L1614 350M1638 270L1614 350M1760 294L1832 250M1760 294L1849 257M1760 294L1726 340M1760 294L1771 343M1832 250L1849 257M1832 250L1771 343M1849 257L1934 334M1981 266L2009 272M1981 266L1934 334M2009 272L1934 334M2009 272L2061 332M2112 305L2180 244M2112 305L2061 332M2112 305L2141 353M2112 305L2080 401M2310 251L2380 287M2310 251L2304 361M2380 287L2462 318M2380 287L2304 361M2380 287L2395 346M2462 318L2487 261M2462 318L2395 346M2462 318L2472 343M2462 318L2518 336M2487 261L2472 343M2487 261L2518 336M70 381L136 386M70 381L38 417M136 386L185 322M136 386L38 417M136 386L98 476M136 386L190 412M185 322L190 412M315 377L354 379M315 377L283 443M354 379L283 443M354 379L386 462M477 381L488 359M477 381L416 480M477 381L515 401M477 381L586 416M488 359L515 401M617 357L675 392M617 357L515 401M617 357L586 416M617 357L711 405M675 392L586 416M675 392L711 405M675 392L730 402M675 392L679 513M797 372L815 378M797 372L711 405M797 372L730 402M797 372L842 453M815 378L711 405M815 378L730 402M815 378L842 453M957 391L980 354M957 391L1071 355M957 391L934 474M957 391L969 437M957 391L963 490M980 354L1071 355M980 354L969 437M1071 355L1135 344M1071 355L1110 428M1135 344L1110 428M1254 359L1333 356M1254 359L1248 401M1333 356L1374 390M1333 356L1248 401M1374 390L1468 377M1374 390L1419 417M1468 377L1575 381M1468 377L1419 417M1468 377L1480 431M1575 381L1614 350M1575 381L1480 431M1575 381L1591 434M1575 381L1654 410M1614 350L1591 434M1614 350L1654 410M1726 340L1771 343M1726 340L1654 410M1726 340L1699 409M1771 343L1699 409M1771 343L1818 423M1874 393L1934 334M1874 393L1818 423M1874 393L1877 452M1874 393L1957 412M1874 393L1841 482M1934 334L1957 412M2061 332L2141 353M2061 332L2080 401M2141 353L2208 345M2141 353L2080 401M2141 353L2207 452M2208 345L2304 361M2208 345L2267 450M2304 361L2395 346M2304 361L2267 450M2395 346L2472 343M2395 346L2426 440M2472 343L2518 336M2518 336L2598 417M2518 336L2520 444M-42 336L38 417M38 417L98 476M38 417L-40 444M2598 417L2520 444M98 476L75 554M98 476L151 551M98 476L189 524M190 412L283 443M190 412L189 524M283 443L310 516M386 462L416 480M386 462L310 516M386 462L351 512M386 462L472 496M416 480L351 512M416 480L472 496M416 480L518 507M515 401L586 416M515 401L472 496M586 416L600 493M711 405L730 402M842 453L770 508M842 453L865 525M842 453L909 523M934 474L969 437M934 474L865 525M934 474L909 523M934 474L963 490M969 437L963 490M1110 428L1169 475M1110 428L1103 515M1110 428L1131 516M1169 475L1103 515M1169 475L1131 516M1169 475L1231 523M1248 401L1313 474M1313 474L1231 523M1313 474L1306 522M1419 417L1480 431M1419 417L1441 490M1480 431L1441 490M1480 431L1540 512M1591 434L1654 410M1591 434L1699 409M1591 434L1540 512M1654 410L1699 409M1699 409L1688 518M1818 423L1877 452M1818 423L1825 544M1818 423L1841 482M1877 452L1957 412M1877 452L1825 544M1877 452L1841 482M1957 412L2027 455M1957 412L1985 512M2027 455L2080 401M2027 455L1985 512M2027 455L2037 548M2027 455L2092 497M2080 401L2092 497M2207 452L2267 450M2207 452L2187 554M2267 450L2373 477M2267 450L2294 528M2373 477L2426 440M2373 477L2294 528M2373 477L2369 524M2373 477L2461 502M2426 440L2520 444M2426 440L2369 524M2426 440L2461 502M2520 444L2461 502M2520 444L2558 541M75 554L151 551M75 554L-2 541M75 554L139 585M75 554L69 646M2635 554L2558 541M151 551L189 524M151 551L139 585M151 551L174 628M189 524L139 585M189 524L270 572M310 516L351 512M310 516L270 572M351 512L270 572M472 496L518 507M472 496L474 609M518 507L600 493M600 493L679 513M679 513L770 508M679 513L679 596M679 513L770 584M770 508L679 596M770 508L770 584M865 525L909 523M865 525L918 575M909 523L963 490M909 523L918 575M963 490L918 575M1103 515L1131 516M1103 515L1090 630M1103 515L1151 582M1131 516L1151 582M1231 523L1306 522M1231 523L1279 573M1306 522L1279 573M1306 522L1343 575M1428 553L1441 490M1428 553L1343 575M1428 553L1427 601M1428 553L1505 588M1428 553L1408 646M1441 490L1540 512M1540 512L1505 588M1540 512L1598 588M1654 531L1688 518M1654 531L1598 588M1654 531L1640 561M1688 518L1640 561M1688 518L1736 617M1825 544L1841 482M1825 544L1798 574M1825 544L1883 587M1985 512L2037 548M1985 512L2092 497M1985 512L1966 609M2037 548L2092 497M2037 548L1966 609M2037 548L2052 590M2092 497L2126 565M2187 554L2294 528M2187 554L2126 565M2187 554L2186 580M2187 554L2173 665M2294 528L2369 524M2294 528L2279 631M2369 524L2461 502M2369 524L2404 617M2461 502L2558 541M2558 541L2561 615M2558 541L2533 616M-2 541L1 615M1 615L-27 616M1 615L69 646M1 615L-65 688M2561 615L2533 616M2561 615L2495 688M139 585L174 628M139 585L69 646M174 628L110 672M174 628L267 654M270 572L267 654M389 618L474 609M389 618L343 667M389 618L451 654M474 609L506 624M474 609L451 654M474 609L524 663M506 624L451 654M506 624L524 663M506 624L579 687M506 624L524 729M628 622L679 596M628 622L579 687M628 622L689 664M679 596L770 584M679 596L689 664M770 584L844 622M770 584L689 664M844 622L918 575M844 622L767 696M844 622L821 710M918 575L1018 591M1018 591L1090 630M1018 591L976 690M1018 591L1062 653M1090 630L1151 582M1090 630L1062 653M1090 630L1148 642M1151 582L1148 642M1151 582L1239 642M1279 573L1343 575M1279 573L1239 642M1279 573L1287 654M1343 575L1287 654M1343 575L1408 646M1427 601L1505 588M1427 601L1408 646M1427 601L1457 702M1505 588L1598 588M1505 588L1545 694M1598 588L1640 561M1598 588L1545 694M1640 561L1736 617M1736 617L1798 574M1736 617L1752 661M1736 617L1789 688M1798 574L1883 587M1798 574L1752 661M1798 574L1789 688M1883 587L1966 609M1883 587L1847 694M1883 587L1965 651M1966 609L1965 651M1966 609L2010 689M2052 590L2126 565M2052 590L1965 651M2052 590L2010 689M2052 590L2121 641M2126 565L2186 580M2126 565L2121 641M2186 580L2279 631M2186 580L2121 641M2186 580L2173 665M2279 631L2341 626M2279 631L2173 665M2279 631L2301 668M2341 626L2404 617M2341 626L2301 668M2341 626L2387 695M2404 617L2301 668M2404 617L2387 695M2404 617L2470 654M2533 616L2470 654M2533 616L2495 688M69 646L110 672M69 646L31 756M110 672L186 723M233 714L267 654M233 714L186 723M233 714L245 730M267 654L343 667M267 654L245 730M343 667L329 765M451 654L524 663M524 663L579 687M524 663L524 729M579 687L524 729M579 687L575 766M689 664L767 696M689 664L681 774M767 696L821 710M767 696L721 798M767 696L816 749M821 710L816 749M821 710L888 737M941 699L976 690M941 699L888 737M976 690L1062 653M976 690L888 737M1062 653L1148 642M1148 642L1239 642M1148 642L1118 752M1239 642L1287 654M1239 642L1227 748M1287 654L1227 748M1287 654L1314 728M1408 646L1457 702M1457 702L1545 694M1457 702L1408 790M1457 702L1453 765M1545 694L1571 773M1545 694L1608 777M1648 697L1571 773M1648 697L1608 777M1648 697L1681 773M1752 661L1789 688M1752 661L1847 694M1789 688L1847 694M1789 688L1809 751M1847 694L1809 751M1847 694L1906 742M1965 651L2010 689M1965 651L1981 745M2010 689L1981 745M2010 689L2035 792M2121 641L2173 665M2173 665L2244 750M2301 668L2387 695M2301 668L2244 750M2387 695L2470 654M2387 695L2465 728M2470 654L2495 688M2470 654L2465 728M2495 688L2465 728M2495 688L2490 782M31 756L117 799M31 756L-70 782M31 756L48 858M31 756L-24 824M2591 756L2490 782M2591 756L2536 824M117 799L186 723M117 799L48 858M117 799L136 805M117 799L203 811M186 723L245 730M186 723L203 811M245 730L329 765M245 730L203 811M329 765L284 858M329 765L374 850M329 765L400 838M476 772L524 729M476 772L575 766M476 772L400 838M476 772L522 836M524 729L575 766M575 766L522 836M681 774L721 798M681 774L700 838M721 798L816 749M721 798L700 838M721 798L786 840M816 749L888 737M816 749L786 840M888 737L966 821M1040 797L1118 752M1040 797L966 821M1040 797L1081 870M1118 752L1178 795M1178 795L1227 748M1178 795L1193 853M1178 795L1208 802M1178 795L1215 889M1227 748L1314 728M1227 748L1208 802M1314 728L1408 790M1314 728L1289 851M1408 790L1453 765M1408 790L1412 811M1408 790L1442 811M1453 765L1412 811M1453 765L1442 811M1571 773L1608 777M1571 773L1681 773M1571 773L1524 837M1608 777L1681 773M1608 777L1524 837M1681 773L1730 839M1809 751L1906 742M1809 751L1833 854M1809 751L1864 847M1906 742L1981 745M1981 745L2035 792M1981 745L2037 818M2035 792L2122 767M2035 792L2037 818M2035 792L2135 817M2122 767L2201 774M2122 767L2135 817M2122 767L2173 821M2201 774L2244 750M2201 774L2135 817M2201 774L2173 821M2244 750L2173 821M2367 795L2306 871M2367 795L2365 807M2367 795L2426 879M2465 728L2490 782M2490 782L2536 824M2490 782L2468 895M48 858L136 805M48 858L-24 824M48 858L66 914M2608 858L2536 824M136 805L203 811M203 811L284 858M284 858L374 850M284 858L230 940M284 858L286 884M374 850L400 838M374 850L286 884M374 850L352 933M400 838L472 911M522 836L573 879M522 836L472 911M573 879L507 955M573 879L589 959M573 879L649 907M573 879L561 966M700 838L786 840M700 838L649 907M786 840L816 878M786 840L796 936M816 878L920 876M816 878L796 936M816 878L859 937M816 878L902 916M920 876L966 821M920 876L859 937M920 876L902 916M920 876L1028 919M966 821L1081 870M966 821L902 916M1081 870L1028 919M1081 870L1089 929M1193 853L1208 802M1193 853L1289 851M1193 853L1186 948M1193 853L1215 889M1208 802L1289 851M1208 802L1215 889M1289 851L1215 889M1289 851L1350 925M1412 811L1442 811M1442 811L1524 837M1524 837L1494 944M1524 837L1530 938M1625 878L1665 932M1730 839L1833 854M1730 839L1665 932M1730 839L1790 903M1833 854L1864 847M1833 854L1790 903M1833 854L1887 894M1864 847L1954 848M1864 847L1790 903M1864 847L1887 894M1954 848L2037 818M1954 848L1887 894M1954 848L1980 923M1954 848L2045 916M2037 818L2135 817M2037 818L2045 916M2135 817L2173 821M2306 871L2365 807M2306 871L2313 911M2306 871L2327 939M2365 807L2426 879M2365 807L2313 911M2426 879L2468 895M2426 879L2511 918M2426 879L2438 974M2536 824L2468 895M2536 824L2511 918M66 914L130 952M66 914L53 1003M130 952L230 940M130 952L123 1030M230 940L286 884M230 940L228 1001M230 940L278 1003M286 884L352 933M352 933L321 1007M352 933L418 972M472 911L507 955M472 911L418 972M507 955L560 1034M507 955L561 966M589 959L649 907M589 959L560 1034M589 959L561 966M589 959L657 989M649 907L657 989M796 936L859 937M796 936L744 966M796 936L803 983M859 937L902 916M859 937L803 983M1028 919L1089 929M1089 929L1186 948M1089 929L1058 1020M1186 948L1215 889M1186 948L1154 1027M1186 948L1210 1002M1350 925L1434 936M1350 925L1329 990M1350 925L1380 1005M1434 936L1494 944M1434 936L1530 938M1434 936L1380 1005M1434 936L1454 992M1494 944L1530 938M1494 944L1454 992M1494 944L1540 988M1530 938L1454 992M1530 938L1540 988M1665 932L1736 951M1665 932L1660 1006M1665 932L1679 1043M1736 951L1790 903M1736 951L1660 1006M1736 951L1727 1036M1736 951L1791 1028M1790 903L1887 894M1887 894L1980 923M1980 923L2045 916M1980 923L1907 1011M1980 923L2058 975M2045 916L2104 931M2045 916L2058 975M2104 931L2058 975M2104 931L2162 994M2225 936L2313 911M2225 936L2327 939M2225 936L2162 994M2225 936L2251 965M2313 911L2327 939M2313 911L2251 965M2327 939L2251 965M2327 939L2335 1019M2468 895L2511 918M2468 895L2438 974M2511 918L2438 974M2511 918L2552 1005M53 1003L123 1030M53 1003L-8 1005M53 1003L91 1052M2613 1003L2552 1005M123 1030L91 1052M123 1030L188 1083M123 1030L90 1129M228 1001L278 1003M228 1001L321 1007M228 1001L188 1083M228 1001L275 1058M278 1003L321 1007M278 1003L275 1058M321 1007L275 1058M321 1007L353 1092M560 1034L561 966M560 1034L551 1079M560 1034L628 1089M561 966L657 989M657 989L744 966M657 989L708 1058M744 966L803 983M744 966L708 1058M803 983L769 1081M803 983L870 1052M956 1039L981 1029M956 1039L870 1052M956 1039L927 1114M956 1039L963 1107M956 1039L970 1121M981 1029L1058 1020M981 1029L963 1107M981 1029L1045 1067M981 1029L970 1121M1058 1020L1154 1027M1058 1020L1045 1067M1058 1020L1128 1069M1154 1027L1210 1002M1154 1027L1045 1067M1154 1027L1128 1069M1210 1002L1329 990M1210 1002L1128 1069M1210 1002L1264 1046M1329 990L1380 1005M1329 990L1264 1046M1329 990L1375 1069M1380 1005L1454 992M1380 1005L1375 1069M1454 992L1540 988M1540 988L1660 1006M1660 1006L1727 1036M1660 1006L1679 1043M1727 1036L1791 1028M1727 1036L1679 1043M1727 1036L1747 1112M1791 1028L1747 1112M1791 1028L1825 1077M1907 1011L1927 1020M1907 1011L1901 1101M1927 1020L1962 1116M1927 1020L2015 1078M2058 975L2132 1039M2058 975L2101 1059M2132 1039L2162 994M2132 1039L2101 1059M2132 1039L2227 1071M2162 994L2251 965M2162 994L2101 1059M2251 965L2227 1071M2335 1019L2323 1071M2438 974L2468 1072M2552 1005L2571 1084M2552 1005L2536 1060M-8 1005L11 1084M11 1084L91 1052M11 1084L-24 1060M11 1084L11 1149M11 1084L-55 1131M2571 1084L2536 1060M2571 1084L2505 1131M91 1052L90 1129M188 1083L237 1142M188 1083L261 1158M275 1058L353 1092M275 1058L237 1142M353 1092L413 1106M353 1092L392 1143M353 1092L421 1167M413 1106L392 1143M413 1106L421 1167M413 1106L512 1137M551 1079L628 1089M551 1079L512 1137M551 1079L631 1145M628 1089L708 1058M628 1089L631 1145M628 1089L719 1138M708 1058L769 1081M708 1058L719 1138M769 1081L870 1052M769 1081L719 1138M769 1081L738 1162M870 1052L927 1114M927 1114L963 1107M927 1114L931 1142M927 1114L970 1121M963 1107L931 1142M963 1107L970 1121M1045 1067L1128 1069M1128 1069L1240 1121M1264 1046L1333 1102M1264 1046L1240 1121M1333 1102L1375 1069M1333 1102L1240 1121M1333 1102L1287 1163M1333 1102L1409 1144M1375 1069L1447 1080M1375 1069L1409 1144M1447 1080L1523 1109M1447 1080L1409 1144M1447 1080L1492 1122M1523 1109L1492 1122M1523 1109L1561 1166M1523 1109L1635 1138M1679 1043L1706 1136M1747 1112L1825 1077M1747 1112L1706 1136M1747 1112L1834 1147M1825 1077L1901 1101M1825 1077L1834 1147M1825 1077L1863 1166M1901 1101L1962 1116M1901 1101L1834 1147M1901 1101L1863 1166M1962 1116L2015 1078M1962 1116L1863 1166M1962 1116L2000 1175M2015 1078L2101 1059M2015 1078L2000 1175M2015 1078L2102 1161M2101 1059L2187 1126M2227 1071L2261 1113M2227 1071L2323 1071M2227 1071L2187 1126M2261 1113L2323 1071M2261 1113L2187 1126M2261 1113L2319 1152M2261 1113L2353 1161M2323 1071L2319 1152M2323 1071L2353 1161M2468 1072L2536 1060M2468 1072L2412 1153M2468 1072L2505 1131M2536 1060L2571 1149M2536 1060L2505 1131M-24 1060L11 1149M11 1149L90 1129M11 1149L-55 1131M11 1149L80 1209M2571 1149L2505 1131M90 1129L80 1209M237 1142L261 1158M237 1142L234 1209M237 1142L310 1209M261 1158L234 1209M261 1158L310 1209M392 1143L421 1167M392 1143L310 1209M392 1143L445 1222M421 1167L512 1137M421 1167L445 1222M512 1137L445 1222M512 1137L569 1201M631 1145L719 1138M631 1145L569 1201M631 1145L658 1240M719 1138L738 1162M738 1162L808 1192M808 1192L838 1238M931 1142L970 1121M1104 1191L1183 1198M1104 1191L1087 1213M1183 1198L1240 1121M1183 1198L1287 1163M1183 1198L1187 1264M1183 1198L1250 1247M1240 1121L1287 1163M1287 1163L1250 1247M1287 1163L1356 1252M1409 1144L1492 1122M1409 1144L1427 1257M1492 1122L1561 1166M1561 1166L1635 1138M1561 1166L1559 1234M1635 1138L1706 1136M1635 1138L1676 1209M1706 1136L1676 1209M1706 1136L1745 1260M1834 1147L1863 1166M1834 1147L1893 1242M1863 1166L1893 1242M2000 1175L2074 1187M2000 1175L1974 1257M2000 1175L2002 1223M2074 1187L2102 1161M2074 1187L2002 1223M2102 1161L2187 1126M2102 1161L2180 1240M2187 1126L2180 1240M2319 1152L2353 1161M2319 1152L2412 1153M2319 1152L2295 1215M2353 1161L2412 1153M2353 1161L2295 1215M2505 1131L2521 1232M80 1209L106 1279M80 1209L46 1304M80 1209L99 1284M106 1279L46 1304M106 1279L99 1284M106 1279L-11 1288M2666 1279L2549 1288M234 1209L310 1209M234 1209L264 1298M310 1209L341 1280M341 1280L264 1298M341 1280L399 1338M341 1280L350 1365M445 1222L489 1257M445 1222L451 1301M489 1257L569 1201M489 1257L451 1301M489 1257L507 1331M489 1257L586 1285M569 1201L658 1240M569 1201L586 1285M658 1240L734 1269M658 1240L586 1285M734 1269L838 1238M734 1269L737 1347M734 1269L816 1312M734 1269L738 1366M838 1238L948 1257M838 1238L816 1312M948 1257L966 1277M948 1257L943 1303M948 1257L966 1316M966 1277L943 1303M966 1277L966 1316M966 1277L1062 1342M966 1277L926 1371M1087 1213L1187 1264M1087 1213L1136 1324M1187 1264L1250 1247M1187 1264L1136 1324M1187 1264L1154 1361M1250 1247L1264 1355M1250 1247L1299 1359M1356 1252L1427 1257M1356 1252L1453 1261M1356 1252L1384 1314M1427 1257L1453 1261M1427 1257L1384 1314M1427 1257L1455 1316M1453 1261L1559 1234M1453 1261L1384 1314M1453 1261L1455 1316M1559 1234L1604 1287M1676 1209L1745 1260M1676 1209L1604 1287M1676 1209L1741 1294M1745 1260L1790 1279M1745 1260L1741 1294M1745 1260L1814 1320M1790 1279L1893 1242M1790 1279L1741 1294M1790 1279L1814 1320M1893 1242L1974 1257M1893 1242L1979 1289M1974 1257L2002 1223M1974 1257L1979 1289M1974 1257L2053 1289M2002 1223L1979 1289M2002 1223L2053 1289M2140 1263L2180 1240M2140 1263L2053 1289M2140 1263L2118 1287M2140 1263L2160 1342M2180 1240L2118 1287M2180 1240L2160 1342M2295 1215L2360 1279M2295 1215L2313 1312M2360 1279L2466 1259M2360 1279L2313 1312M2360 1279L2367 1334M2360 1279L2423 1301M2466 1259L2521 1232M2466 1259L2423 1301M2466 1259L2549 1288M2521 1232L2549 1288M46 1304L99 1284M46 1304L-11 1288M46 1304L98 1369M2606 1304L2549 1288M99 1284L-11 1288M99 1284L98 1369M2659 1284L2549 1288M188 1352L264 1298M188 1352L98 1369M188 1352L186 1436M188 1352L243 1370M264 1298L243 1370M264 1298L350 1365M399 1338L451 1301M399 1338L350 1365M399 1338L473 1376M451 1301L507 1331M451 1301L473 1376M507 1331L586 1285M507 1331L473 1376M507 1331L516 1408M586 1285L644 1344M644 1344L597 1399M644 1344L672 1378M737 1347L816 1312M737 1347L672 1378M737 1347L738 1366M737 1347L804 1371M816 1312L738 1366M816 1312L804 1371M943 1303L966 1316M943 1303L926 1371M966 1316L926 1371M966 1316L1014 1377M1062 1342L1136 1324M1062 1342L1014 1377M1062 1342L1100 1379M1062 1342L1154 1361M1136 1324L1100 1379M1136 1324L1154 1361M1264 1355L1299 1359M1264 1355L1154 1361M1264 1355L1267 1424M1264 1355L1297 1401M1299 1359L1267 1424M1299 1359L1297 1401M1384 1314L1455 1316M1384 1314L1425 1382M1455 1316L1425 1382M1540 1352L1604 1287M1540 1352L1477 1409M1540 1352L1598 1373M1540 1352L1606 1384M1604 1287L1598 1373M1604 1287L1606 1384M1741 1294L1814 1320M1741 1294L1698 1386M1814 1320L1879 1351M1814 1320L1798 1403M1879 1351L1798 1403M1879 1351L1909 1417M1879 1351L1961 1375M1979 1289L2053 1289M1979 1289L1961 1375M2053 1289L2118 1287M2118 1287L2160 1342M2160 1342L2214 1397M2313 1312L2367 1334M2313 1312L2423 1301M2313 1312L2283 1432M2367 1334L2423 1301M2367 1334L2384 1434M2423 1301L2467 1407M27 1425L98 1369M27 1425L-70 1401M2587 1425L2490 1401M186 1436L243 1370M243 1370L350 1365M473 1376L516 1408M516 1408L597 1399M597 1399L672 1378M672 1378L738 1366M738 1366L804 1371M926 1371L1014 1377M1014 1377L1100 1379M1100 1379L1154 1361M1267 1424L1297 1401M1425 1382L1477 1409M1598 1373L1606 1384M1598 1373L1698 1386M1606 1384L1698 1386M1698 1386L1798 1403M1798 1403L1909 1417M1909 1417L1961 1375M1961 1375L2018 1409M2018 1409L2081 1438M2214 1397L2283 1432M2283 1432L2384 1434M2384 1434L2467 1407M2467 1407L2490 1401"/></svg>