<svg xmlns="http://www.w3.org/2000/svg" width="2560" height="1440" fill="#fff"><circle cx="54" cy="44" r="5"/><circle cx="116" cy="76" r="6"/><circle cx="168" cy="19" r="5"/><circle cx="278" cy="9" r="5"/><circle cx="347" cy="43" r="5"/><circle cx="409" cy="68" r="4"/><circle cx="512" cy="44" r="6"/><circle cx="588" cy="74" r="4"/><circle cx="644" cy="30" r="5"/><circle cx="722" cy="56" r="6"/><circle cx="874" cy="32" r="6"/><circle cx="905" cy="44" r="5"/><circle cx="1011" cy="37" r="6"/><circle cx="1053" cy="61" r="5"/><circle cx="1122" cy="14" r="4"/><circle cx="1235" cy="58" r="5"/><circle cx="1281" cy="48" r="5"/><circle cx="1392" cy="50" r="4"/><circle cx="1485" cy="72" r="6"/><circle cx="1537" cy="16" r="5"/><circle cx="1632" cy="64" r="5"/><circle cx="1746" cy="23" r="5"/><circle cx="1830" cy="79" r="6"/><circle cx="1901" cy="8" r="6"/><circle cx="1998" cy="40" r="5"/><circle cx="2015" cy="39" r="6"/><circle cx="2091" cy="1" r="5"/><circle cx="2091" cy="1441" r="5"/><circle cx="2169" cy="54" r="5"/><circle cx="2303" cy="62" r="5"/><circle cx="2384" cy="52" r="5"/><circle cx="2406" cy="32" r="6"/><circle cx="2515" cy="69" r="5"/><circle cx="52" cy="97" r="5"/><circle cx="106" cy="97" r="5"/><circle cx="167" cy="158" r="4"/><circle cx="262" cy="148" r="5"/><circle cx="346" cy="133" r="5"/><circle cx="413" cy="118" r="6"/><circle cx="492" cy="120" r="4"/><circle cx="582" cy="136" r="4"/><circle cx="703" cy="156" r="4"/><circle cx="726" cy="143" r="6"/><circle cx="819" cy="131" r="5"/><circle cx="908" cy="143" r="6"/><circle cx="1021" cy="98" r="6"/><circle cx="1094" cy="98" r="4"/><circle cx="1166" cy="150" r="5"/><circle cx="1219" cy="147" r="5"/><circle cx="1345" cy="110" r="4"/><circle cx="1406" cy="100" r="5"/><circle cx="1453" cy="107" r="5"/><circle cx="1588" cy="138" r="4"/><circle cx="1637" cy="84" r="5"/><circle cx="1688" cy="114" r="4"/><circle cx="1790" cy="102" r="5"/><circle cx="1863" cy="85" r="5"/><circle cx="1996" cy="141" r="4"/><circle cx="2067" cy="141" r="6"/><circle cx="2154" cy="139" r="5"/><circle cx="2197" cy="90" r="6"/><circle cx="2302" cy="122" r="6"/><circle cx="2355" cy="86" r="4"/><circle cx="2466" cy="85" r="5"/><circle cx="2552" cy="80" r="4"/><circle cx="57" cy="189" r="4"/><circle cx="140" cy="224" r="5"/><circle cx="218" cy="206" r="5"/><circle cx="292" cy="177" r="4"/><circle cx="323" cy="169" r="6"/><circle cx="472" cy="215" r="5"/><circle cx="542" cy="193" r="5"/><circle cx="609" cy="195" r="6"/><circle cx="673" cy="194" r="4"/><circle cx="723" cy="178" r="5"/><circle cx="873" cy="177" r="4"/><circle cx="947" cy="232" r="5"/><circle cx="999" cy="191" r="4"/><circle cx="1089" cy="193" r="5"/><circle cx="1159" cy="165" r="5"/><circle cx="1245" cy="210" r="5"/><circle cx="1338" cy="180" r="5"/><circle cx="1388" cy="197" r="6"/><circle cx="1483" cy="226" r="5"/><circle cx="1543" cy="214" r="6"/><circle cx="1647" cy="235" r="5"/><circle cx="1756" cy="185" r="5"/><circle cx="1800" cy="172" r="6"/><circle cx="1906" cy="225" r="5"/><circle cx="1957" cy="165" r="4"/><circle cx="2074" cy="209" r="4"/><circle cx="2109" cy="202" r="5"/><circle cx="2199" cy="213" r="6"/><circle cx="2310" cy="224" r="6"/><circle cx="2361" cy="234" r="5"/><circle cx="2461" cy="171" r="5"/><circle cx="2554" cy="237" r="6"/><circle cx="49" cy="278" r="5"/><circle cx="127" cy="301" r="5"/><circle cx="196" cy="318" r="6"/><circle cx="302" cy="285" r="4"/><circle cx="347" cy="305" r="5"/><circle cx="410" cy="252" r="5"/><circle cx="515" cy="244" r="5"/><circle cx="598" cy="284" r="6"/><circle cx="652" cy="316" r="6"/><circle cx="764" cy="275" r="5"/><circle cx="834" cy="303" r="5"/><circle cx="946" cy="308" r="5"/><circle cx="1003" cy="294" r="5"/><circle cx="1074" cy="264" r="6"/><circle cx="1147" cy="248" r="5"/><circle cx="1223" cy="303" r="6"/><circle cx="1334" cy="307" r="5"/><circle cx="1390" cy="302" r="5"/><circle cx="1479" cy="312" r="6"/><circle cx="1567" cy="284" r="4"/><circle cx="1608" cy="266" r="4"/><circle cx="1734" cy="280" r="5"/><circle cx="1808" cy="283" r="4"/><circle cx="1867" cy="302" r="5"/><circle cx="1975" cy="286" r="4"/><circle cx="2051" cy="273" r="5"/><circle cx="2109" cy="268" r="6"/><circle cx="2164" cy="306" r="6"/><circle cx="2240" cy="273" r="6"/><circle cx="2333" cy="316" r="6"/><circle cx="2410" cy="276" r="4"/><circle cx="2552" cy="250" r="6"/><circle cx="27" cy="348" r="5"/><circle cx="93" cy="381" r="4"/><circle cx="238" cy="347" r="5"/><circle cx="263" cy="383" r="6"/><circle cx="342" cy="384" r="4"/><circle cx="450" cy="354" r="5"/><circle cx="486" cy="388" r="5"/><circle cx="600" cy="385" r="4"/><circle cx="716" cy="377" r="4"/><circle cx="787" cy="382" r="4"/><circle cx="869" cy="346" r="4"/><circle cx="942" cy="371" r="4"/><circle cx="988" cy="335" r="5"/><circle cx="1064" cy="330" r="5"/><circle cx="1126" cy="327" r="5"/><circle cx="1217" cy="328" r="6"/><circle cx="1354" cy="352" r="5"/><circle cx="1387" cy="375" r="5"/><circle cx="1507" cy="326" r="5"/><circle cx="1562" cy="362" r="5"/><circle cx="1649" cy="341" r="6"/><circle cx="1684" cy="391" r="4"/><circle cx="1791" cy="369" r="6"/><circle cx="1850" cy="359" r="6"/><circle cx="1993" cy="349" r="6"/><circle cx="2011" cy="325" r="5"/><circle cx="2141" cy="351" r="6"/><circle cx="2213" cy="394" r="4"/><circle cx="2250" cy="331" r="6"/><circle cx="2335" cy="341" r="5"/><circle cx="2476" cy="336" r="4"/><circle cx="2543" cy="375" r="4"/><circle cx="54" cy="432" r="5"/><circle cx="90" cy="444" r="5"/><circle cx="206" cy="464" r="5"/><circle cx="295" cy="412" r="5"/><circle cx="361" cy="423" r="4"/><circle cx="439" cy="403" r="6"/><circle cx="506" cy="473" r="5"/><circle cx="569" cy="432" r="5"/><circle cx="703" cy="443" r="5"/><circle cx="794" cy="450" r="5"/><circle cx="831" cy="468" r="6"/><circle cx="903" cy="479" r="5"/><circle cx="1036" cy="441" r="5"/><circle cx="1119" cy="476" r="4"/><circle cx="1136" cy="415" r="5"/><circle cx="1261" cy="401" r="6"/><circle cx="1350" cy="444" r="5"/><circle cx="1372" cy="475" r="5"/><circle cx="1457" cy="461" r="5"/><circle cx="1567" cy="412" r="4"/><circle cx="1627" cy="448" r="4"/><circle cx="1727" cy="446" r="4"/><circle cx="1797" cy="479" r="5"/><circle cx="1896" cy="413" r="4"/><circle cx="1935" cy="405" r="5"/><circle cx="2076" cy="434" r="4"/><circle cx="2081" cy="403" r="6"/><circle cx="2214" cy="412" r="4"/><circle cx="2255" cy="419" r="5"/><circle cx="2352" cy="405" r="4"/><circle cx="2432" cy="477" r="4"/><circle cx="2521" cy="441" r="5"/><circle cx="33" cy="526" r="6"/><circle cx="133" cy="510" r="5"/><circle cx="189" cy="511" r="5"/><circle cx="293" cy="555" r="5"/><circle cx="344" cy="506" r="4"/><circle cx="439" cy="490" r="4"/><circle cx="557" cy="523" r="5"/><circle cx="624" cy="525" r="5"/><circle cx="699" cy="543" r="5"/><circle cx="769" cy="490" r="5"/><circle cx="805" cy="497" r="4"/><circle cx="913" cy="519" r="5"/><circle cx="1003" cy="549" r="4"/><circle cx="1042" cy="483" r="5"/><circle cx="1191" cy="506" r="5"/><circle cx="1221" cy="526" r="5"/><circle cx="1327" cy="501" r="4"/><circle cx="1390" cy="513" r="4"/><circle cx="1482" cy="546" r="6"/><circle cx="1547" cy="493" r="5"/><circle cx="1654" cy="522" r="4"/><circle cx="1718" cy="497" r="4"/><circle cx="1785" cy="553" r="6"/><circle cx="1895" cy="531" r="4"/><circle cx="1973" cy="525" r="6"/><circle cx="2023" cy="537" r="6"/><circle cx="2109" cy="506" r="5"/><circle cx="2187" cy="498" r="5"/><circle cx="2266" cy="502" r="6"/><circle cx="2348" cy="552" r="5"/><circle cx="2428" cy="491" r="4"/><circle cx="2490" cy="493" r="4"/><circle cx="13" cy="577" r="4"/><circle cx="133" cy="608" r="5"/><circle cx="214" cy="605" r="6"/><circle cx="274" cy="624" r="4"/><circle cx="334" cy="567" r="5"/><circle cx="468" cy="619" r="6"/><circle cx="483" cy="640" r="5"/><circle cx="581" cy="635" r="6"/><circle cx="660" cy="611" r="6"/><circle cx="737" cy="605" r="5"/><circle cx="855" cy="606" r="5"/><circle cx="952" cy="635" r="6"/><circle cx="1000" cy="573" r="4"/><circle cx="1081" cy="611" r="6"/><circle cx="1163" cy="583" r="6"/><circle cx="1227" cy="625" r="5"/><circle cx="1295" cy="637" r="5"/><circle cx="1410" cy="591" r="6"/><circle cx="1496" cy="635" r="5"/><circle cx="1572" cy="620" r="4"/><circle cx="1624" cy="590" r="5"/><circle cx="1750" cy="635" r="4"/><circle cx="1805" cy="624" r="6"/><circle cx="1863" cy="630" r="4"/><circle cx="1964" cy="594" r="6"/><circle cx="2038" cy="638" r="5"/><circle cx="2128" cy="635" r="5"/><circle cx="2194" cy="576" r="5"/><circle cx="2285" cy="612" r="5"/><circle cx="2389" cy="604" r="5"/><circle cx="2406" cy="561" r="6"/><circle cx="2555" cy="612" r="6"/><circle cx="-5" cy="612" r="6"/><circle cx="10" cy="671" r="4"/><circle cx="121" cy="661" r="5"/><circle cx="181" cy="700" r="5"/><circle cx="277" cy="682" r="4"/><circle cx="321" cy="674" r="4"/><circle cx="410" cy="644" r="5"/><circle cx="534" cy="685" r="5"/><circle cx="607" cy="643" r="5"/><circle cx="664" cy="691" r="5"/><circle cx="784" cy="677" r="6"/><circle cx="842" cy="657" r="4"/><circle cx="931" cy="695" r="4"/><circle cx="964" cy="708" r="5"/><circle cx="1109" cy="694" r="5"/><circle cx="1153" cy="684" r="6"/><circle cx="1268" cy="699" r="5"/><circle cx="1330" cy="696" r="4"/><circle cx="1367" cy="708" r="5"/><circle cx="1456" cy="661" r="5"/><circle cx="1564" cy="690" r="6"/><circle cx="1660" cy="650" r="5"/><circle cx="1689" cy="656" r="5"/><circle cx="1826" cy="662" r="5"/><circle cx="1920" cy="706" r="4"/><circle cx="1924" cy="651" r="5"/><circle cx="2055" cy="704" r="6"/><circle cx="2147" cy="669" r="6"/><circle cx="2185" cy="661" r="4"/><circle cx="2245" cy="686" r="5"/><circle cx="2374" cy="648" r="6"/><circle cx="2424" cy="678" r="4"/><circle cx="2537" cy="660" r="6"/><circle cx="69" cy="793" r="5"/><circle cx="89" cy="789" r="4"/><circle cx="193" cy="728" r="6"/><circle cx="269" cy="771" r="5"/><circle cx="320" cy="736" r="5"/><circle cx="449" cy="736" r="5"/><circle cx="509" cy="778" r="5"/><circle cx="595" cy="761" r="5"/><circle cx="708" cy="790" r="5"/><circle cx="797" cy="774" r="4"/><circle cx="810" cy="786" r="5"/><circle cx="883" cy="746" r="5"/><circle cx="972" cy="797" r="6"/><circle cx="1075" cy="739" r="5"/><circle cx="1181" cy="790" r="5"/><circle cx="1215" cy="761" r="5"/><circle cx="1341" cy="783" r="6"/><circle cx="1411" cy="786" r="5"/><circle cx="1448" cy="785" r="6"/><circle cx="1537" cy="751" r="4"/><circle cx="1654" cy="759" r="5"/><circle cx="1722" cy="781" r="4"/><circle cx="1765" cy="752" r="6"/><circle cx="1872" cy="752" r="6"/><circle cx="1938" cy="736" r="5"/><circle cx="2072" cy="726" r="6"/><circle cx="2132" cy="724" r="5"/><circle cx="2235" cy="752" r="4"/><circle cx="2312" cy="728" r="5"/><circle cx="2341" cy="744" r="4"/><circle cx="2466" cy="800" r="5"/><circle cx="2559" cy="745" r="5"/><circle cx="-1" cy="745" r="5"/><circle cx="75" cy="815" r="5"/><circle cx="131" cy="860" r="5"/><circle cx="160" cy="813" r="5"/><circle cx="310" cy="847" r="4"/><circle cx="379" cy="851" r="5"/><circle cx="405" cy="876" r="5"/><circle cx="529" cy="845" r="5"/><circle cx="591" cy="818" r="5"/><circle cx="662" cy="862" r="6"/><circle cx="789" cy="875" r="4"/><circle cx="829" cy="862" r="6"/><circle cx="919" cy="826" r="6"/><circle cx="984" cy="868" r="4"/><circle cx="1070" cy="837" r="6"/><circle cx="1195" cy="875" r="4"/><circle cx="1227" cy="847" r="5"/><circle cx="1325" cy="832" r="5"/><circle cx="1400" cy="806" r="5"/><circle cx="1451" cy="812" r="4"/><circle cx="1542" cy="857" r="4"/><circle cx="1648" cy="842" r="5"/><circle cx="1732" cy="806" r="6"/><circle cx="1833" cy="806" r="6"/><circle cx="1907" cy="815" r="5"/><circle cx="1965" cy="805" r="5"/><circle cx="2046" cy="850" r="5"/><circle cx="2148" cy="829" r="4"/><circle cx="2219" cy="828" r="6"/><circle cx="2270" cy="843" r="5"/><circle cx="2349" cy="869" r="5"/><circle cx="2450" cy="823" r="5"/><circle cx="2489" cy="806" r="6"/><circle cx="5" cy="883" r="5"/><circle cx="2565" cy="883" r="5"/><circle cx="114" cy="953" r="5"/><circle cx="200" cy="943" r="5"/><circle cx="275" cy="912" r="6"/><circle cx="370" cy="935" r="4"/><circle cx="449" cy="886" r="4"/><circle cx="550" cy="929" r="4"/><circle cx="634" cy="880" r="6"/><circle cx="680" cy="923" r="5"/><circle cx="773" cy="892" r="6"/><circle cx="840" cy="925" r="5"/><circle cx="902" cy="939" r="5"/><circle cx="1016" cy="925" r="5"/><circle cx="1042" cy="942" r="6"/><circle cx="1126" cy="915" r="5"/><circle cx="1206" cy="944" r="4"/><circle cx="1297" cy="898" r="5"/><circle cx="1438" cy="888" r="5"/><circle cx="1448" cy="906" r="5"/><circle cx="1566" cy="959" r="5"/><circle cx="1662" cy="958" r="5"/><circle cx="1722" cy="920" r="4"/><circle cx="1780" cy="937" r="5"/><circle cx="1863" cy="904" r="6"/><circle cx="1957" cy="903" r="6"/><circle cx="2038" cy="951" r="4"/><circle cx="2086" cy="926" r="4"/><circle cx="2232" cy="953" r="4"/><circle cx="2304" cy="903" r="4"/><circle cx="2333" cy="915" r="5"/><circle cx="2448" cy="918" r="6"/><circle cx="2530" cy="885" r="5"/><circle cx="11" cy="986" r="5"/><circle cx="105" cy="986" r="6"/><circle cx="233" cy="1007" r="5"/><circle cx="267" cy="1002" r="5"/><circle cx="342" cy="1025" r="4"/><circle cx="450" cy="978" r="5"/><circle cx="512" cy="969" r="5"/><circle cx="571" cy="1010" r="6"/><circle cx="663" cy="1022" r="5"/><circle cx="743" cy="971" r="6"/><circle cx="823" cy="1012" r="5"/><circle cx="946" cy="1036" r="4"/><circle cx="1015" cy="977" r="4"/><circle cx="1043" cy="1010" r="4"/><circle cx="1194" cy="1022" r="5"/><circle cx="1231" cy="990" r="5"/><circle cx="1322" cy="975" r="5"/><circle cx="1368" cy="1004" r="6"/><circle cx="1506" cy="1019" r="6"/><circle cx="1529" cy="1034" r="6"/><circle cx="1620" cy="968" r="6"/><circle cx="1738" cy="983" r="4"/><circle cx="1782" cy="1021" r="4"/><circle cx="1892" cy="967" r="5"/><circle cx="1997" cy="1005" r="4"/><circle cx="2019" cy="1027" r="5"/><circle cx="2097" cy="963" r="5"/><circle cx="2173" cy="988" r="5"/><circle cx="2308" cy="1009" r="4"/><circle cx="2393" cy="994" r="4"/><circle cx="2469" cy="968" r="4"/><circle cx="2501" cy="1008" r="4"/><circle cx="70" cy="1077" r="5"/><circle cx="81" cy="1082" r="6"/><circle cx="188" cy="1091" r="5"/><circle cx="268" cy="1117" r="4"/><circle cx="395" cy="1098" r="5"/><circle cx="475" cy="1078" r="5"/><circle cx="485" cy="1066" r="6"/><circle cx="592" cy="1120" r="5"/><circle cx="687" cy="1111" r="5"/><circle cx="772" cy="1045" r="4"/><circle cx="847" cy="1115" r="4"/><circle cx="897" cy="1055" r="6"/><circle cx="1038" cy="1098" r="4"/><circle cx="1057" cy="1045" r="5"/><circle cx="1157" cy="1082" r="6"/><circle cx="1213" cy="1052" r="4"/><circle cx="1356" cy="1116" r="5"/><circle cx="1402" cy="1099" r="6"/><circle cx="1511" cy="1086" r="5"/><circle cx="1566" cy="1050" r="5"/><circle cx="1622" cy="1091" r="6"/><circle cx="1738" cy="1047" r="6"/><circle cx="1806" cy="1104" r="5"/><circle cx="1903" cy="1118" r="5"/><circle cx="1981" cy="1112" r="4"/><circle cx="2041" cy="1071" r="5"/><circle cx="2104" cy="1108" r="5"/><circle cx="2224" cy="1091" r="6"/><circle cx="2305" cy="1080" r="5"/><circle cx="2370" cy="1117" r="5"/><circle cx="2418" cy="1070" r="6"/><circle cx="2496" cy="1107" r="5"/><circle cx="70" cy="1144" r="6"/><circle cx="92" cy="1200" r="6"/><circle cx="190" cy="1171" r="4"/><circle cx="299" cy="1166" r="6"/><circle cx="346" cy="1151" r="6"/><circle cx="423" cy="1197" r="5"/><circle cx="526" cy="1125" r="4"/><circle cx="564" cy="1158" r="5"/><circle cx="708" cy="1194" r="6"/><circle cx="774" cy="1194" r="6"/><circle cx="878" cy="1194" r="5"/><circle cx="885" cy="1178" r="5"/><circle cx="1040" cy="1122" r="5"/><circle cx="1066" cy="1138" r="4"/><circle cx="1128" cy="1190" r="5"/><circle cx="1273" cy="1139" r="4"/><circle cx="1280" cy="1165" r="5"/><circle cx="1440" cy="1140" r="5"/><circle cx="1505" cy="1159" r="5"/><circle cx="1580" cy="1195" r="4"/><circle cx="1620" cy="1175" r="5"/><circle cx="1728" cy="1140" r="6"/><circle cx="1840" cy="1189" r="4"/><circle cx="1844" cy="1179" r="6"/><circle cx="1991" cy="1172" r="5"/><circle cx="2013" cy="1151" r="5"/><circle cx="2116" cy="1138" r="4"/><circle cx="2178" cy="1145" r="4"/><circle cx="2243" cy="1160" r="4"/><circle cx="2323" cy="1131" r="5"/><circle cx="2432" cy="1171" r="6"/><circle cx="2533" cy="1155" r="5"/><circle cx="14" cy="1227" r="5"/><circle cx="145" cy="1259" r="6"/><circle cx="216" cy="1256" r="6"/><circle cx="246" cy="1258" r="6"/><circle cx="383" cy="1235" r="5"/><circle cx="412" cy="1205" r="5"/><circle cx="521" cy="1206" r="5"/><circle cx="566" cy="1225" r="5"/><circle cx="654" cy="1214" r="4"/><circle cx="797" cy="1267" r="6"/><circle cx="874" cy="1256" r="4"/><circle cx="945" cy="1216" r="6"/><circle cx="968" cy="1238" r="6"/><circle cx="1041" cy="1257" r="4"/><circle cx="1148" cy="1258" r="4"/><circle cx="1206" cy="1234" r="5"/><circle cx="1336" cy="1275" r="6"/><circle cx="1360" cy="1204" r="6"/><circle cx="1460" cy="1256" r="5"/><circle cx="1594" cy="1219" r="5"/><circle cx="1620" cy="1204" r="6"/><circle cx="1699" cy="1256" r="6"/><circle cx="1771" cy="1239" r="4"/><circle cx="1895" cy="1261" r="6"/><circle cx="1959" cy="1248" r="4"/><circle cx="2004" cy="1247" r="4"/><circle cx="2093" cy="1208" r="5"/><circle cx="2228" cy="1274" r="4"/><circle cx="2249" cy="1228" r="6"/><circle cx="2345" cy="1217" r="6"/><circle cx="2448" cy="1250" r="6"/><circle cx="2502" cy="1204" r="4"/><circle cx="60" cy="1315" r="4"/><circle cx="90" cy="1342" r="5"/><circle cx="239" cy="1303" r="6"/><circle cx="278" cy="1345" r="4"/><circle cx="364" cy="1314" r="5"/><circle cx="460" cy="1339" r="6"/><circle cx="544" cy="1340" r="6"/><circle cx="591" cy="1358" r="4"/><circle cx="667" cy="1350" r="6"/><circle cx="724" cy="1335" r="5"/><circle cx="867" cy="1331" r="5"/><circle cx="891" cy="1309" r="6"/><circle cx="1031" cy="1347" r="6"/><circle cx="1114" cy="1304" r="6"/><circle cx="1158" cy="1297" r="6"/><circle cx="1273" cy="1287" r="5"/><circle cx="1338" cy="1353" r="6"/><circle cx="1439" cy="1287" r="5"/><circle cx="1476" cy="1287" r="4"/><circle cx="1587" cy="1340" r="4"/><circle cx="1676" cy="1358" r="6"/><circle cx="1714" cy="1311" r="6"/><circle cx="1784" cy="1340" r="5"/><circle cx="1882" cy="1333" r="4"/><circle cx="1936" cy="1280" r="5"/><circle cx="2028" cy="1300" r="5"/><circle cx="2133" cy="1284" r="5"/><circle cx="2224" cy="1288" r="6"/><circle cx="2280" cy="1339" r="6"/><circle cx="2354" cy="1296" r="5"/><circle cx="2454" cy="1318" r="6"/><circle cx="2494" cy="1319" r="5"/><circle cx="36" cy="1383" r="6"/><circle cx="114" cy="1380" r="5"/><circle cx="172" cy="1377" r="5"/><circle cx="249" cy="1372" r="4"/><circle cx="385" cy="1401" r="6"/><circle cx="477" cy="1417" r="5"/><circle cx="523" cy="1363" r="5"/><circle cx="570" cy="1397" r="5"/><circle cx="719" cy="1419" r="5"/><circle cx="769" cy="1384" r="4"/><circle cx="813" cy="1389" r="6"/><circle cx="904" cy="1435" r="5"/><circle cx="904" cy="-5" r="5"/><circle cx="1013" cy="1427" r="5"/><circle cx="1095" cy="1394" r="4"/><circle cx="1182" cy="1412" r="4"/><circle cx="1222" cy="1388" r="6"/><circle cx="1354" cy="1388" r="6"/><circle cx="1365" cy="1393" r="5"/><circle cx="1498" cy="1369" r="5"/><circle cx="1592" cy="1401" r="5"/><circle cx="1653" cy="1380" r="4"/><circle cx="1729" cy="1417" r="4"/><circle cx="1811" cy="1372" r="5"/><circle cx="1840" cy="1388" r="5"/><circle cx="1945" cy="1396" r="6"/><circle cx="2030" cy="1393" r="5"/><circle cx="2091" cy="1378" r="4"/><circle cx="2185" cy="1438" r="6"/><circle cx="2185" cy="-2" r="6"/><circle cx="2273" cy="1370" r="5"/><circle cx="2328" cy="1360" r="4"/><circle cx="2452" cy="1375" r="6"/><circle cx="2491" cy="1415" r="6"/><path stroke="#fff" d="M54 44L116 76M54 44L52 97M54 44L106 97M54 44L-8 80M54 44L36 -57M2614 44L2552 80M54 1484L36 1383M116 76L168 19M116 76L52 97M116 76L106 97M116 76L167 158M168 19L278 9M168 19L106 97M168 19L114 -60M168 19L172 -63M168 1459L114 1380M168 1459L172 1377M278 9L347 43M278 9L278 -95M278 9L249 -68M278 9L385 -39M278 1449L278 1345M278 1449L249 1372M278 1449L385 1401M347 43L409 68M347 43L346 133M347 43L413 118M347 43L385 -39M347 1483L385 1401M409 68L413 118M512 44L588 74M512 44L492 120M512 44L477 -23M512 44L570 -43M512 1484L477 1417M512 1484L570 1397M588 74L644 30M588 74L582 136M644 30L722 56M644 30L570 -43M644 30L719 -21M644 1470L570 1397M644 1470L719 1419M722 56L703 156M722 56L726 143M722 56L719 -21M722 1496L719 1419M874 32L905 44M874 32L819 131M874 32L908 143M874 32L813 -51M874 32L904 -5M874 1472L813 1389M874 1472L904 1435M905 44L1011 37M905 44L908 143M905 44L904 -5M905 1484L904 1435M1011 37L1053 61M1011 37L1021 98M1011 37L904 -5M1011 37L1013 -13M1011 1477L904 1435M1011 1477L1013 1427M1053 61L1122 14M1053 61L1021 98M1053 61L1094 98M1053 61L1013 -13M1053 1501L1013 1427M1122 14L1094 98M1122 14L1095 -46M1122 14L1182 -28M1122 1454L1095 1394M1122 1454L1182 1412M1235 58L1281 48M1235 58L1219 147M1235 58L1182 -28M1235 58L1222 -52M1235 1498L1182 1412M1235 1498L1222 1388M1281 48L1219 147M1281 48L1345 110M1281 48L1354 -52M1281 1488L1354 1388M1392 50L1485 72M1392 50L1345 110M1392 50L1406 100M1392 50L1453 107M1392 50L1354 -52M1392 1490L1354 1388M1485 72L1537 16M1485 72L1406 100M1485 72L1453 107M1485 72L1588 138M1537 16L1632 64M1537 16L1637 84M1537 16L1498 -71M1537 16L1592 -39M1537 1456L1498 1369M1537 1456L1592 1401M1632 64L1588 138M1632 64L1637 84M1632 64L1688 114M1632 64L1592 -39M1632 1504L1592 1401M1746 23L1830 79M1746 23L1790 102M1746 23L1729 -23M1746 23L1811 -68M1746 1463L1729 1417M1746 1463L1811 1372M1830 79L1901 8M1830 79L1790 102M1830 79L1863 85M1830 79L1800 172M1901 8L1998 40M1901 8L1863 85M1901 8L1840 -52M1901 8L1945 -44M1901 1448L1840 1388M1901 1448L1945 1396M1998 40L2015 39M1998 40L1945 -44M1998 40L2030 -47M1998 1480L1945 1396M1998 1480L2030 1393M2015 39L2091 1M2015 39L2067 141M2015 39L2030 -47M2015 1479L2030 1393M2091 1L2169 54M2091 1L2030 -47M2091 1L2091 -62M2091 1L2185 -2M2091 1441L2030 1393M2091 1441L2091 1378M2091 1441L2185 1438M2169 54L2154 139M2169 54L2197 90M2169 54L2185 -2M2169 1494L2185 1438M2303 62L2384 52M2303 62L2197 90M2303 62L2302 122M2303 62L2355 86M2384 52L2406 32M2384 52L2302 122M2384 52L2355 86M2384 52L2466 85M2406 32L2355 86M2406 32L2466 85M2406 32L2452 -65M2406 32L2491 -25M2406 1472L2452 1375M2406 1472L2491 1415M2515 69L2612 97M2515 69L2466 85M2515 69L2552 80M2515 69L2461 171M2515 69L2491 -25M-45 69L52 97M2515 1509L2491 1415M52 97L106 97M52 97L-8 80M2612 97L2552 80M106 97L167 158M167 158L262 148M167 158L140 224M167 158L218 206M262 148L346 133M262 148L218 206M262 148L292 177M262 148L323 169M346 133L413 118M346 133L292 177M346 133L323 169M413 118L492 120M413 118L323 169M492 120L582 136M492 120L472 215M492 120L542 193M582 136L542 193M582 136L609 195M703 156L726 143M703 156L673 194M703 156L723 178M726 143L819 131M726 143L673 194M726 143L723 178M819 131L908 143M819 131L723 178M819 131L873 177M908 143L873 177M908 143L947 232M1021 98L1094 98M1021 98L999 191M1021 98L1013 -13M1021 1538L1013 1427M1094 98L1166 150M1166 150L1219 147M1166 150L1089 193M1166 150L1159 165M1219 147L1159 165M1219 147L1245 210M1345 110L1406 100M1345 110L1338 180M1345 110L1388 197M1406 100L1453 107M1406 100L1388 197M1588 138L1637 84M1588 138L1688 114M1588 138L1543 214M1637 84L1688 114M1688 114L1756 185M1790 102L1863 85M1790 102L1756 185M1790 102L1800 172M1863 85L1800 172M1996 141L2067 141M1996 141L1957 165M1996 141L2074 209M2067 141L2154 139M2067 141L2074 209M2067 141L2109 202M2154 139L2197 90M2154 139L2109 202M2154 139L2199 213M2197 90L2302 122M2197 90L2185 -2M2197 1530L2185 1438M2302 122L2355 86M2302 122L2310 224M2466 85L2552 80M2466 85L2461 171M57 189L140 224M57 189L-6 237M57 189L49 278M57 189L-8 250M2617 189L2554 237M2617 189L2552 250M140 224L218 206M140 224L127 301M140 224L196 318M218 206L292 177M218 206L323 169M292 177L323 169M472 215L542 193M472 215L410 252M472 215L515 244M542 193L609 195M542 193L515 244M609 195L673 194M609 195L515 244M609 195L598 284M673 194L723 178M673 194L598 284M723 178L764 275M873 177L947 232M947 232L999 191M947 232L946 308M947 232L1003 294M999 191L1089 193M1089 193L1159 165M1089 193L1074 264M1089 193L1147 248M1159 165L1245 210M1159 165L1147 248M1245 210L1338 180M1245 210L1223 303M1338 180L1388 197M1388 197L1483 226M1388 197L1390 302M1483 226L1543 214M1483 226L1479 312M1483 226L1507 326M1543 214L1647 235M1543 214L1567 284M1543 214L1608 266M1647 235L1608 266M1647 235L1734 280M1647 235L1649 341M1756 185L1800 172M1756 185L1734 280M1756 185L1808 283M1800 172L1906 225M1906 225L1957 165M1906 225L1867 302M1906 225L1975 286M2074 209L2109 202M2074 209L2051 273M2074 209L2109 268M2109 202L2199 213M2109 202L2109 268M2199 213L2164 306M2199 213L2240 273M2310 224L2361 234M2310 224L2240 273M2310 224L2333 316M2361 234L2333 316M2361 234L2410 276M2361 234L2335 341M2461 171L2554 237M2461 171L2410 276M2461 171L2552 250M2554 237L2609 278M2554 237L2552 250M-6 237L49 278M49 278L127 301M49 278L-8 250M49 278L27 348M2609 278L2552 250M127 301L196 318M127 301L93 381M196 318L302 285M196 318L238 347M196 318L263 383M302 285L347 305M302 285L410 252M302 285L238 347M347 305L410 252M347 305L342 384M410 252L515 244M410 252L450 354M515 244L598 284M598 284L652 316M598 284L600 385M652 316L764 275M652 316L600 385M652 316L716 377M764 275L834 303M764 275L716 377M834 303L787 382M834 303L869 346M946 308L1003 294M946 308L869 346M946 308L942 371M946 308L988 335M1003 294L1074 264M1003 294L988 335M1003 294L1064 330M1074 264L1147 248M1074 264L1064 330M1074 264L1126 327M1147 248L1223 303M1147 248L1126 327M1223 303L1217 328M1223 303L1261 401M1334 307L1390 302M1334 307L1217 328M1334 307L1354 352M1334 307L1387 375M1334 307L1261 401M1390 302L1479 312M1390 302L1354 352M1390 302L1387 375M1479 312L1567 284M1479 312L1507 326M1479 312L1562 362M1567 284L1608 266M1567 284L1507 326M1567 284L1562 362M1608 266L1649 341M1734 280L1808 283M1734 280L1649 341M1734 280L1791 369M1808 283L1867 302M1808 283L1791 369M1808 283L1850 359M1867 302L1975 286M1867 302L1791 369M1867 302L1850 359M1975 286L2051 273M1975 286L1993 349M1975 286L2011 325M2051 273L2109 268M2051 273L1993 349M2051 273L2011 325M2109 268L2164 306M2109 268L2141 351M2164 306L2240 273M2164 306L2141 351M2164 306L2250 331M2240 273L2333 316M2240 273L2250 331M2333 316L2250 331M2333 316L2335 341M2410 276L2335 341M2410 276L2476 336M2552 250L2587 348M-8 250L27 348M27 348L93 381M27 348L-17 375M27 348L54 432M2587 348L2543 375M93 381L54 432M93 381L90 444M238 347L263 383M238 347L295 412M263 383L342 384M263 383L206 464M263 383L295 412M342 384L295 412M342 384L361 423M450 354L486 388M450 354L439 403M486 388L439 403M486 388L506 473M486 388L569 432M486 388L439 490M600 385L569 432M716 377L787 382M716 377L703 443M787 382L869 346M787 382L794 450M869 346L942 371M942 371L988 335M942 371L903 479M988 335L1064 330M988 335L1036 441M1064 330L1126 327M1126 327L1217 328M1126 327L1136 415M1217 328L1136 415M1217 328L1261 401M1354 352L1387 375M1354 352L1261 401M1354 352L1350 444M1387 375L1350 444M1387 375L1372 475M1507 326L1562 362M1507 326L1567 412M1562 362L1649 341M1562 362L1567 412M1649 341L1684 391M1684 391L1627 448M1684 391L1727 446M1684 391L1718 497M1791 369L1850 359M1791 369L1797 479M1850 359L1896 413M1850 359L1935 405M1993 349L2011 325M1993 349L1935 405M1993 349L2081 403M2011 325L1935 405M2011 325L2081 403M2141 351L2213 394M2141 351L2081 403M2213 394L2250 331M2213 394L2214 412M2213 394L2255 419M2250 331L2335 341M2335 341L2352 405M2476 336L2543 375M2543 375L2521 441M54 432L90 444M54 432L-39 441M54 432L33 526M2614 432L2521 441M90 444L206 464M90 444L33 526M90 444L133 510M206 464L295 412M206 464L133 510M206 464L189 511M295 412L361 423M361 423L439 403M361 423L344 506M361 423L439 490M439 403L506 473M439 403L439 490M506 473L569 432M506 473L439 490M506 473L557 523M569 432L557 523M569 432L624 525M703 443L794 450M703 443L699 543M703 443L769 490M794 450L831 468M794 450L769 490M794 450L805 497M831 468L903 479M831 468L769 490M831 468L805 497M831 468L913 519M903 479L805 497M903 479L913 519M1036 441L1119 476M1036 441L1136 415M1036 441L1042 483M1119 476L1136 415M1119 476L1042 483M1119 476L1191 506M1136 415L1191 506M1350 444L1372 475M1350 444L1327 501M1350 444L1390 513M1372 475L1457 461M1372 475L1327 501M1372 475L1390 513M1457 461L1390 513M1457 461L1482 546M1457 461L1547 493M1567 412L1627 448M1567 412L1547 493M1627 448L1727 446M1627 448L1547 493M1627 448L1654 522M1727 446L1797 479M1727 446L1718 497M1797 479L1718 497M1797 479L1785 553M1797 479L1895 531M1896 413L1935 405M1935 405L1973 525M2076 434L2081 403M2076 434L2023 537M2076 434L2109 506M2081 403L2109 506M2214 412L2255 419M2214 412L2187 498M2255 419L2352 405M2255 419L2187 498M2255 419L2266 502M2432 477L2521 441M2432 477L2428 491M2432 477L2490 493M2432 477L2406 561M2521 441L2490 493M33 526L133 510M33 526L13 577M33 526L-5 612M2593 526L2555 612M133 510L189 511M133 510L133 608M189 511L293 555M189 511L133 608M189 511L214 605M293 555L344 506M293 555L214 605M293 555L274 624M293 555L334 567M344 506L439 490M344 506L334 567M557 523L624 525M624 525L699 543M699 543L769 490M699 543L660 611M699 543L737 605M769 490L805 497M913 519L1003 549M913 519L855 606M913 519L1000 573M1003 549L1042 483M1003 549L952 635M1003 549L1000 573M1003 549L1081 611M1042 483L1000 573M1191 506L1221 526M1191 506L1163 583M1221 526L1327 501M1221 526L1163 583M1221 526L1227 625M1327 501L1390 513M1390 513L1410 591M1482 546L1547 493M1482 546L1410 591M1482 546L1496 635M1482 546L1456 661M1547 493L1654 522M1654 522L1718 497M1654 522L1624 590M1718 497L1785 553M1785 553L1750 635M1785 553L1805 624M1895 531L1973 525M1895 531L1964 594M1973 525L2023 537M1973 525L1964 594M2023 537L2109 506M2023 537L1964 594M2023 537L2038 638M2109 506L2187 498M2187 498L2266 502M2187 498L2194 576M2266 502L2348 552M2266 502L2194 576M2348 552L2285 612M2348 552L2389 604M2348 552L2406 561M2348 552L2374 648M2428 491L2490 493M2428 491L2406 561M13 577L-5 612M13 577L10 671M13 577L-23 660M2573 577L2555 612M2573 577L2537 660M133 608L214 605M133 608L121 661M133 608L181 700M214 605L274 624M214 605L181 700M274 624L334 567M274 624L277 682M274 624L321 674M334 567L321 674M334 567L410 644M468 619L483 640M468 619L410 644M468 619L534 685M468 619L449 736M483 640L581 635M483 640L410 644M483 640L534 685M483 640L449 736M581 635L660 611M581 635L534 685M581 635L607 643M581 635L664 691M660 611L737 605M660 611L607 643M660 611L664 691M737 605L855 606M737 605L784 677M855 606L952 635M855 606L784 677M855 606L842 657M952 635L1000 573M952 635L931 695M952 635L964 708M1000 573L1081 611M1081 611L1163 583M1081 611L1109 694M1163 583L1227 625M1163 583L1153 684M1227 625L1295 637M1227 625L1153 684M1227 625L1268 699M1295 637L1410 591M1295 637L1268 699M1295 637L1330 696M1295 637L1367 708M1410 591L1496 635M1410 591L1456 661M1496 635L1572 620M1496 635L1456 661M1496 635L1564 690M1572 620L1624 590M1572 620L1564 690M1572 620L1660 650M1624 590L1660 650M1624 590L1689 656M1750 635L1805 624M1750 635L1660 650M1750 635L1689 656M1750 635L1826 662M1805 624L1863 630M1805 624L1689 656M1805 624L1826 662M1863 630L1826 662M1863 630L1920 706M1863 630L1924 651M1964 594L2038 638M1964 594L1924 651M2038 638L2128 635M2038 638L2055 704M2038 638L2072 726M2128 635L2194 576M2128 635L2147 669M2128 635L2185 661M2128 635L2132 724M2194 576L2285 612M2194 576L2185 661M2285 612L2389 604M2285 612L2245 686M2285 612L2374 648M2389 604L2406 561M2389 604L2374 648M2389 604L2424 678M2406 561L2374 648M2555 612L2570 671M2555 612L2537 660M-5 612L10 671M10 671L121 661M10 671L-23 660M10 671L-1 745M2570 671L2537 660M2570 671L2559 745M121 661L181 700M121 661L193 728M181 700L193 728M277 682L321 674M277 682L193 728M277 682L269 771M277 682L320 736M321 674L410 644M321 674L320 736M410 644L449 736M534 685L607 643M534 685L595 761M607 643L664 691M664 691L595 761M664 691L708 790M784 677L842 657M784 677L797 774M842 657L931 695M931 695L964 708M931 695L883 746M964 708L883 746M964 708L972 797M964 708L1075 739M1109 694L1153 684M1109 694L1075 739M1153 684L1075 739M1153 684L1215 761M1268 699L1330 696M1268 699L1367 708M1268 699L1215 761M1330 696L1367 708M1330 696L1341 783M1367 708L1341 783M1367 708L1411 786M1456 661L1564 690M1564 690L1660 650M1564 690L1537 751M1660 650L1689 656M1689 656L1654 759M1826 662L1765 752M1920 706L1924 651M1920 706L1872 752M1920 706L1938 736M1920 706L1965 805M1924 651L1938 736M2055 704L2147 669M2055 704L2072 726M2055 704L2132 724M2147 669L2185 661M2147 669L2072 726M2147 669L2132 724M2185 661L2245 686M2185 661L2132 724M2245 686L2235 752M2245 686L2312 728M2374 648L2424 678M2424 678L2537 660M2424 678L2341 744M2537 660L2559 745M69 793L89 789M69 793L-1 745M69 793L75 815M69 793L131 860M69 793L160 813M2629 793L2559 745M89 789L75 815M89 789L131 860M89 789L160 813M193 728L269 771M193 728L160 813M269 771L320 736M269 771L310 847M320 736L310 847M449 736L509 778M509 778L595 761M509 778L529 845M509 778L591 818M595 761L529 845M595 761L591 818M708 790L797 774M708 790L810 786M708 790L662 862M708 790L634 880M797 774L810 786M810 786L883 746M810 786L789 875M810 786L829 862M883 746L972 797M883 746L919 826M972 797L919 826M972 797L984 868M972 797L1070 837M1075 739L1181 790M1075 739L1070 837M1181 790L1215 761M1181 790L1195 875M1181 790L1227 847M1215 761L1227 847M1341 783L1411 786M1341 783L1325 832M1341 783L1400 806M1411 786L1448 785M1411 786L1400 806M1411 786L1451 812M1448 785L1537 751M1448 785L1400 806M1448 785L1451 812M1448 785L1438 888M1537 751L1542 857M1654 759L1722 781M1654 759L1648 842M1654 759L1732 806M1722 781L1765 752M1722 781L1648 842M1722 781L1732 806M1765 752L1872 752M1765 752L1732 806M1765 752L1833 806M1872 752L1938 736M1872 752L1833 806M1872 752L1907 815M1938 736L1907 815M1938 736L1965 805M2072 726L2132 724M2235 752L2312 728M2235 752L2341 744M2235 752L2219 828M2235 752L2270 843M2312 728L2341 744M2466 800L2450 823M2466 800L2489 806M2466 800L2530 885M2559 745L2489 806M75 815L131 860M75 815L160 813M75 815L5 883M131 860L160 813M131 860L114 953M310 847L379 851M310 847L405 876M310 847L275 912M379 851L405 876M379 851L370 935M379 851L449 886M405 876L370 935M405 876L449 886M529 845L591 818M529 845L449 886M529 845L550 929M591 818L662 862M591 818L634 880M662 862L634 880M662 862L680 923M789 875L829 862M789 875L773 892M789 875L840 925M829 862L919 826M829 862L773 892M829 862L840 925M919 826L984 868M919 826L902 939M984 868L1070 837M984 868L1016 925M1070 837L1126 915M1195 875L1227 847M1195 875L1126 915M1195 875L1206 944M1195 875L1297 898M1227 847L1325 832M1227 847L1297 898M1325 832L1400 806M1325 832L1297 898M1400 806L1451 812M1451 812L1438 888M1451 812L1448 906M1542 857L1648 842M1542 857L1438 888M1542 857L1448 906M1648 842L1732 806M1732 806L1833 806M1833 806L1907 815M1833 806L1863 904M1907 815L1965 805M1907 815L1863 904M1965 805L2046 850M1965 805L1957 903M2046 850L2148 829M2046 850L1957 903M2046 850L2086 926M2148 829L2219 828M2219 828L2270 843M2219 828L2304 903M2270 843L2349 869M2270 843L2304 903M2270 843L2333 915M2349 869L2450 823M2349 869L2304 903M2349 869L2333 915M2349 869L2448 918M2450 823L2489 806M2450 823L2448 918M2450 823L2530 885M2489 806L2565 883M2489 806L2530 885M-71 806L5 883M5 883L-30 885M5 883L11 986M2565 883L2530 885M114 953L200 943M114 953L11 986M114 953L105 986M200 943L275 912M200 943L105 986M200 943L233 1007M200 943L267 1002M275 912L370 935M275 912L233 1007M275 912L267 1002M370 935L449 886M370 935L450 978M449 886L450 978M550 929L634 880M550 929L512 969M550 929L571 1010M634 880L680 923M680 923L773 892M680 923L663 1022M680 923L743 971M773 892L840 925M773 892L743 971M840 925L902 939M840 925L823 1012M902 939L823 1012M902 939L946 1036M902 939L897 1055M1016 925L1042 942M1016 925L1126 915M1016 925L1015 977M1016 925L1043 1010M1042 942L1126 915M1042 942L1015 977M1042 942L1043 1010M1042 942L1057 1045M1126 915L1206 944M1206 944L1297 898M1206 944L1194 1022M1206 944L1231 990M1297 898L1322 975M1438 888L1448 906M1448 906L1368 1004M1566 959L1662 958M1566 959L1506 1019M1566 959L1529 1034M1566 959L1620 968M1566 959L1566 1050M1662 958L1722 920M1662 958L1620 968M1662 958L1738 983M1662 958L1738 1047M1722 920L1780 937M1722 920L1738 983M1780 937L1863 904M1780 937L1738 983M1780 937L1782 1021M1863 904L1957 903M1863 904L1892 967M1957 903L2038 951M1957 903L1892 967M2038 951L2086 926M2038 951L1997 1005M2038 951L2019 1027M2038 951L2097 963M2086 926L2097 963M2086 926L2173 988M2232 953L2304 903M2232 953L2173 988M2232 953L2308 1009M2304 903L2333 915M2333 915L2308 1009M2333 915L2393 994M2448 918L2530 885M2448 918L2393 994M2448 918L2469 968M11 986L105 986M11 986L-59 1008M11 986L70 1077M2571 986L2501 1008M105 986L70 1077M105 986L81 1082M233 1007L267 1002M233 1007L342 1025M233 1007L188 1091M267 1002L342 1025M267 1002L188 1091M342 1025L395 1098M450 978L512 969M450 978L475 1078M450 978L485 1066M512 969L571 1010M512 969L475 1078M571 1010L663 1022M571 1010L485 1066M571 1010L592 1120M663 1022L743 971M663 1022L687 1111M663 1022L772 1045M743 971L823 1012M743 971L772 1045M823 1012L772 1045M823 1012L897 1055M946 1036L1015 977M946 1036L897 1055M1015 977L1043 1010M1015 977L1057 1045M1043 1010L1038 1098M1043 1010L1057 1045M1194 1022L1231 990M1194 1022L1157 1082M1194 1022L1213 1052M1231 990L1322 975M1231 990L1157 1082M1231 990L1213 1052M1322 975L1368 1004M1368 1004L1402 1099M1506 1019L1529 1034M1506 1019L1620 968M1506 1019L1511 1086M1506 1019L1566 1050M1529 1034L1511 1086M1529 1034L1566 1050M1529 1034L1622 1091M1738 983L1782 1021M1738 983L1738 1047M1782 1021L1892 967M1782 1021L1738 1047M1782 1021L1806 1104M1892 967L1997 1005M1997 1005L2019 1027M1997 1005L2097 963M1997 1005L2041 1071M2019 1027L2097 963M2019 1027L1981 1112M2019 1027L2041 1071M2097 963L2173 988M2173 988L2224 1091M2308 1009L2393 994M2308 1009L2305 1080M2393 994L2469 968M2393 994L2418 1070M2469 968L2501 1008M2501 1008L2496 1107M70 1077L81 1082M70 1077L70 1144M81 1082L188 1091M81 1082L70 1144M81 1082L92 1200M188 1091L268 1117M188 1091L190 1171M268 1117L299 1166M268 1117L346 1151M395 1098L475 1078M395 1098L485 1066M395 1098L346 1151M395 1098L423 1197M475 1078L485 1066M475 1078L526 1125M485 1066L526 1125M592 1120L687 1111M592 1120L526 1125M592 1120L564 1158M687 1111L772 1045M687 1111L708 1194M772 1045L847 1115M847 1115L897 1055M847 1115L774 1194M847 1115L878 1194M847 1115L885 1178M1038 1098L1057 1045M1038 1098L1040 1122M1038 1098L1066 1138M1057 1045L1040 1122M1157 1082L1213 1052M1157 1082L1066 1138M1157 1082L1128 1190M1213 1052L1273 1139M1356 1116L1402 1099M1356 1116L1273 1139M1356 1116L1280 1165M1356 1116L1440 1140M1356 1116L1360 1204M1402 1099L1440 1140M1402 1099L1360 1204M1511 1086L1566 1050M1511 1086L1440 1140M1511 1086L1505 1159M1566 1050L1622 1091M1622 1091L1620 1175M1622 1091L1728 1140M1622 1091L1620 1204M1738 1047L1806 1104M1738 1047L1728 1140M1806 1104L1728 1140M1806 1104L1840 1189M1806 1104L1844 1179M1903 1118L1981 1112M1903 1118L1840 1189M1903 1118L1844 1179M1981 1112L2041 1071M1981 1112L1991 1172M1981 1112L2013 1151M2041 1071L2104 1108M2041 1071L2013 1151M2104 1108L2013 1151M2104 1108L2116 1138M2104 1108L2178 1145M2104 1108L2093 1208M2224 1091L2305 1080M2224 1091L2178 1145M2224 1091L2243 1160M2224 1091L2323 1131M2305 1080L2370 1117M2305 1080L2418 1070M2305 1080L2323 1131M2370 1117L2418 1070M2370 1117L2323 1131M2370 1117L2432 1171M2418 1070L2496 1107M2496 1107L2432 1171M2496 1107L2533 1155M2496 1107L2502 1204M70 1144L92 1200M70 1144L-27 1155M70 1144L14 1227M2630 1144L2533 1155M92 1200L190 1171M92 1200L14 1227M92 1200L145 1259M190 1171L216 1256M299 1166L346 1151M299 1166L216 1256M299 1166L246 1258M299 1166L383 1235M346 1151L383 1235M346 1151L412 1205M423 1197L383 1235M423 1197L412 1205M423 1197L521 1206M526 1125L564 1158M526 1125L521 1206M564 1158L521 1206M564 1158L566 1225M564 1158L654 1214M708 1194L774 1194M708 1194L654 1214M774 1194L797 1267M878 1194L885 1178M878 1194L874 1256M878 1194L945 1216M878 1194L968 1238M885 1178L945 1216M885 1178L968 1238M1040 1122L1066 1138M1066 1138L1128 1190M1128 1190L1148 1258M1128 1190L1206 1234M1128 1190L1158 1297M1273 1139L1280 1165M1280 1165L1206 1234M1280 1165L1360 1204M1440 1140L1505 1159M1440 1140L1360 1204M1505 1159L1580 1195M1505 1159L1460 1256M1505 1159L1594 1219M1580 1195L1620 1175M1580 1195L1594 1219M1580 1195L1620 1204M1620 1175L1594 1219M1620 1175L1620 1204M1840 1189L1844 1179M1840 1189L1771 1239M1840 1189L1895 1261M1844 1179L1771 1239M1844 1179L1895 1261M1991 1172L2013 1151M1991 1172L1959 1248M1991 1172L2004 1247M2013 1151L2093 1208M2116 1138L2178 1145M2116 1138L2093 1208M2178 1145L2243 1160M2243 1160L2323 1131M2243 1160L2249 1228M2323 1131L2345 1217M2432 1171L2345 1217M2432 1171L2448 1250M2432 1171L2502 1204M2533 1155L2574 1227M2533 1155L2502 1204M-27 1155L14 1227M14 1227L-58 1204M14 1227L60 1315M2574 1227L2502 1204M145 1259L216 1256M145 1259L246 1258M145 1259L90 1342M145 1259L239 1303M216 1256L246 1258M216 1256L239 1303M246 1258L239 1303M246 1258L278 1345M383 1235L412 1205M383 1235L364 1314M412 1205L521 1206M412 1205L364 1314M521 1206L566 1225M566 1225L654 1214M797 1267L874 1256M797 1267L724 1335M797 1267L867 1331M797 1267L891 1309M874 1256L945 1216M874 1256L867 1331M874 1256L891 1309M945 1216L968 1238M945 1216L891 1309M968 1238L1041 1257M968 1238L891 1309M1041 1257L1148 1258M1041 1257L1031 1347M1041 1257L1114 1304M1148 1258L1206 1234M1148 1258L1114 1304M1148 1258L1158 1297M1206 1234L1158 1297M1206 1234L1273 1287M1336 1275L1360 1204M1336 1275L1273 1287M1336 1275L1338 1353M1336 1275L1439 1287M1336 1275L1354 1388M1460 1256L1439 1287M1460 1256L1476 1287M1594 1219L1620 1204M1594 1219L1699 1256M1620 1204L1699 1256M1699 1256L1771 1239M1699 1256L1676 1358M1699 1256L1714 1311M1771 1239L1714 1311M1895 1261L1959 1248M1895 1261L1882 1333M1895 1261L1936 1280M1959 1248L2004 1247M1959 1248L1936 1280M1959 1248L2028 1300M2004 1247L2093 1208M2004 1247L1936 1280M2004 1247L2028 1300M2093 1208L2133 1284M2228 1274L2249 1228M2228 1274L2133 1284M2228 1274L2224 1288M2228 1274L2280 1339M2249 1228L2345 1217M2249 1228L2224 1288M2345 1217L2448 1250M2345 1217L2354 1296M2448 1250L2502 1204M2448 1250L2454 1318M2448 1250L2494 1319M60 1315L90 1342M60 1315L36 1383M60 1315L114 1380M90 1342L36 1383M90 1342L114 1380M90 1342L172 1377M239 1303L278 1345M239 1303L249 1372M278 1345L364 1314M278 1345L249 1372M364 1314L460 1339M364 1314L385 1401M460 1339L544 1340M460 1339L385 1401M460 1339L477 1417M460 1339L523 1363M544 1340L591 1358M544 1340L477 1417M544 1340L523 1363M544 1340L570 1397M591 1358L667 1350M591 1358L523 1363M591 1358L570 1397M667 1350L724 1335M667 1350L719 1419M667 1350L769 1384M724 1335L719 1419M724 1335L769 1384M724 1335L813 1389M867 1331L891 1309M867 1331L813 1389M1031 1347L1114 1304M1031 1347L1013 1427M1031 1347L1095 1394M1114 1304L1158 1297M1114 1304L1095 1394M1158 1297L1222 1388M1273 1287L1338 1353M1273 1287L1222 1388M1338 1353L1222 1388M1338 1353L1354 1388M1338 1353L1365 1393M1439 1287L1476 1287M1439 1287L1498 1369M1476 1287L1498 1369M1587 1340L1676 1358M1587 1340L1498 1369M1587 1340L1592 1401M1587 1340L1653 1380M1676 1358L1714 1311M1676 1358L1653 1380M1676 1358L1729 1417M1714 1311L1784 1340M1714 1311L1653 1380M1784 1340L1729 1417M1784 1340L1811 1372M1784 1340L1840 1388M1882 1333L1936 1280M1882 1333L1811 1372M1882 1333L1840 1388M1882 1333L1945 1396M1936 1280L2028 1300M2028 1300L2133 1284M2133 1284L2224 1288M2133 1284L2091 1378M2224 1288L2280 1339M2224 1288L2273 1370M2280 1339L2354 1296M2280 1339L2273 1370M2280 1339L2328 1360M2354 1296L2454 1318M2354 1296L2273 1370M2354 1296L2328 1360M2454 1318L2494 1319M2454 1318L2452 1375M2454 1318L2491 1415M2494 1319L2452 1375M2494 1319L2491 1415M36 1383L114 1380M114 1380L172 1377M172 1377L249 1372M385 1401L477 1417M477 1417L523 1363M523 1363L570 1397M719 1419L769 1384M769 1384L813 1389M813 1389L904 1435M1013 1427L1095 1394M1095 1394L1182 1412M1182 1412L1222 1388M1354 1388L1365 1393M1498 1369L1592 1401M1592 1401L1653 1380M1653 1380L1729 1417M1729 1417L1811 1372M1811 1372L1840 1388M1840 1388L1945 1396M1945 1396L2030 1393M2030 1393L2091 1378M2091 1378L2185 1438M2185 1438L2273 1370M2273 1370L2328 1360M2328 1360L2452 1375M2452 1375L2491 1415"/></svg>