<svg xmlns="http://www.w3.org/2000/svg" width="2560" height="1440" fill="#fff"><circle cx="59" cy="32" r="5"/><circle cx="100" cy="80" r="5"/><circle cx="236" cy="72" r="6"/><circle cx="301" cy="10" r="4"/><circle cx="358" cy="73" r="5"/><circle cx="437" cy="61" r="5"/><circle cx="492" cy="18" r="6"/><circle cx="568" cy="53" r="4"/><circle cx="690" cy="16" r="5"/><circle cx="800" cy="58" r="5"/><circle cx="831" cy="76" r="4"/><circle cx="950" cy="3" r="6"/><circle cx="950" cy="1443" r="6"/><circle cx="994" cy="37" r="4"/><circle cx="1086" cy="72" r="6"/><circle cx="1192" cy="63" r="6"/><circle cx="1216" cy="66" r="5"/><circle cx="1335" cy="69" r="5"/><circle cx="1417" cy="32" r="4"/><circle cx="1496" cy="68" r="6"/><circle cx="1569" cy="18" r="5"/><circle cx="1627" cy="70" r="5"/><circle cx="1736" cy="24" r="6"/><circle cx="1775" cy="5" r="5"/><circle cx="1775" cy="1445" r="5"/><circle cx="1898" cy="66" r="6"/><circle cx="1964" cy="9" r="4"/><circle cx="2022" cy="9" r="5"/><circle cx="2112" cy="11" r="4"/><circle cx="2204" cy="66" r="6"/><circle cx="2242" cy="15" r="5"/><circle cx="2377" cy="21" r="5"/><circle cx="2444" cy="52" r="4"/><circle cx="2489" cy="54" r="6"/><circle cx="72" cy="141" r="4"/><circle cx="150" cy="130" r="5"/><circle cx="184" cy="80" r="6"/><circle cx="310" cy="122" r="6"/><circle cx="383" cy="83" r="5"/><circle cx="401" cy="133" r="5"/><circle cx="488" cy="118" r="5"/><circle cx="576" cy="108" r="5"/><circle cx="718" cy="102" r="5"/><circle cx="740" cy="96" r="5"/><circle cx="871" cy="120" r="5"/><circle cx="897" cy="139" r="5"/><circle cx="994" cy="158" r="6"/><circle cx="1094" cy="105" r="4"/><circle cx="1196" cy="85" r="5"/><circle cx="1200" cy="121" r="6"/><circle cx="1345" cy="144" r="5"/><circle cx="1419" cy="108" r="5"/><circle cx="1486" cy="153" r="5"/><circle cx="1562" cy="130" r="6"/><circle cx="1631" cy="150" r="6"/><circle cx="1718" cy="129" r="6"/><circle cx="1761" cy="153" r="6"/><circle cx="1918" cy="111" r="5"/><circle cx="1935" cy="126" r="4"/><circle cx="2068" cy="155" r="5"/><circle cx="2080" cy="149" r="6"/><circle cx="2204" cy="116" r="5"/><circle cx="2254" cy="131" r="4"/><circle cx="2392" cy="82" r="6"/><circle cx="2475" cy="124" r="4"/><circle cx="2528" cy="148" r="5"/><circle cx="67" cy="229" r="5"/><circle cx="81" cy="165" r="5"/><circle cx="178" cy="199" r="5"/><circle cx="311" cy="219" r="6"/><circle cx="362" cy="164" r="5"/><circle cx="435" cy="161" r="5"/><circle cx="510" cy="239" r="4"/><circle cx="582" cy="192" r="5"/><circle cx="671" cy="207" r="5"/><circle cx="787" cy="233" r="6"/><circle cx="863" cy="167" r="5"/><circle cx="895" cy="174" r="5"/><circle cx="1026" cy="186" r="5"/><circle cx="1058" cy="189" r="4"/><circle cx="1192" cy="187" r="5"/><circle cx="1221" cy="219" r="5"/><circle cx="1352" cy="189" r="5"/><circle cx="1379" cy="235" r="6"/><circle cx="1467" cy="231" r="6"/><circle cx="1553" cy="207" r="5"/><circle cx="1624" cy="165" r="6"/><circle cx="1700" cy="199" r="6"/><circle cx="1769" cy="234" r="5"/><circle cx="1919" cy="176" r="5"/><circle cx="1983" cy="213" r="4"/><circle cx="2031" cy="162" r="5"/><circle cx="2149" cy="211" r="6"/><circle cx="2201" cy="218" r="6"/><circle cx="2309" cy="166" r="6"/><circle cx="2360" cy="218" r="6"/><circle cx="2445" cy="182" r="5"/><circle cx="2537" cy="177" r="6"/><circle cx="5" cy="263" r="5"/><circle cx="103" cy="242" r="5"/><circle cx="207" cy="276" r="4"/><circle cx="251" cy="260" r="5"/><circle cx="382" cy="300" r="6"/><circle cx="458" cy="296" r="6"/><circle cx="534" cy="302" r="5"/><circle cx="610" cy="247" r="5"/><circle cx="647" cy="279" r="4"/><circle cx="723" cy="312" r="4"/><circle cx="814" cy="275" r="4"/><circle cx="928" cy="285" r="5"/><circle cx="1016" cy="260" r="5"/><circle cx="1043" cy="287" r="5"/><circle cx="1169" cy="240" r="6"/><circle cx="1274" cy="258" r="4"/><circle cx="1296" cy="248" r="5"/><circle cx="1428" cy="258" r="4"/><circle cx="1454" cy="298" r="5"/><circle cx="1551" cy="287" r="4"/><circle cx="1650" cy="243" r="5"/><circle cx="1685" cy="253" r="6"/><circle cx="1795" cy="265" r="4"/><circle cx="1869" cy="249" r="5"/><circle cx="1992" cy="277" r="6"/><circle cx="2055" cy="308" r="6"/><circle cx="2093" cy="283" r="6"/><circle cx="2225" cy="298" r="5"/><circle cx="2285" cy="249" r="5"/><circle cx="2358" cy="314" r="4"/><circle cx="2425" cy="265" r="5"/><circle cx="2506" cy="287" r="4"/><circle cx="64" cy="360" r="5"/><circle cx="91" cy="368" r="4"/><circle cx="219" cy="372" r="4"/><circle cx="317" cy="390" r="5"/><circle cx="325" cy="364" r="4"/><circle cx="452" cy="364" r="5"/><circle cx="555" cy="383" r="5"/><circle cx="589" cy="349" r="4"/><circle cx="713" cy="334" r="4"/><circle cx="788" cy="352" r="5"/><circle cx="863" cy="352" r="5"/><circle cx="890" cy="347" r="5"/><circle cx="1013" cy="397" r="4"/><circle cx="1067" cy="354" r="6"/><circle cx="1161" cy="377" r="5"/><circle cx="1253" cy="378" r="6"/><circle cx="1287" cy="364" r="4"/><circle cx="1399" cy="380" r="5"/><circle cx="1464" cy="337" r="4"/><circle cx="1535" cy="366" r="5"/><circle cx="1670" cy="399" r="6"/><circle cx="1759" cy="368" r="5"/><circle cx="1832" cy="323" r="6"/><circle cx="1872" cy="350" r="4"/><circle cx="1936" cy="353" r="6"/><circle cx="2028" cy="365" r="4"/><circle cx="2137" cy="342" r="6"/><circle cx="2199" cy="362" r="6"/><circle cx="2266" cy="338" r="5"/><circle cx="2341" cy="394" r="5"/><circle cx="2405" cy="381" r="6"/><circle cx="2494" cy="355" r="5"/><circle cx="49" cy="407" r="5"/><circle cx="153" cy="455" r="6"/><circle cx="186" cy="409" r="5"/><circle cx="283" cy="450" r="4"/><circle cx="398" cy="446" r="4"/><circle cx="465" cy="411" r="5"/><circle cx="504" cy="475" r="6"/><circle cx="596" cy="453" r="5"/><circle cx="643" cy="424" r="4"/><circle cx="782" cy="421" r="5"/><circle cx="863" cy="464" r="4"/><circle cx="886" cy="466" r="5"/><circle cx="980" cy="417" r="6"/><circle cx="1100" cy="479" r="6"/><circle cx="1159" cy="415" r="4"/><circle cx="1255" cy="469" r="5"/><circle cx="1329" cy="419" r="5"/><circle cx="1396" cy="430" r="6"/><circle cx="1502" cy="401" r="4"/><circle cx="1544" cy="453" r="5"/><circle cx="1633" cy="413" r="4"/><circle cx="1724" cy="461" r="5"/><circle cx="1835" cy="407" r="5"/><circle cx="1861" cy="417" r="5"/><circle cx="1999" cy="433" r="5"/><circle cx="2068" cy="470" r="5"/><circle cx="2082" cy="426" r="5"/><circle cx="2233" cy="469" r="5"/><circle cx="2295" cy="475" r="5"/><circle cx="2374" cy="472" r="5"/><circle cx="2457" cy="429" r="5"/><circle cx="2542" cy="411" r="5"/><circle cx="56" cy="516" r="5"/><circle cx="129" cy="483" r="5"/><circle cx="207" cy="503" r="5"/><circle cx="246" cy="501" r="5"/><circle cx="376" cy="515" r="6"/><circle cx="459" cy="549" r="5"/><circle cx="499" cy="489" r="5"/><circle cx="633" cy="553" r="4"/><circle cx="682" cy="489" r="6"/><circle cx="786" cy="522" r="4"/><circle cx="839" cy="525" r="5"/><circle cx="898" cy="516" r="5"/><circle cx="972" cy="536" r="6"/><circle cx="1046" cy="537" r="5"/><circle cx="1139" cy="481" r="5"/><circle cx="1215" cy="552" r="4"/><circle cx="1323" cy="517" r="5"/><circle cx="1389" cy="521" r="5"/><circle cx="1469" cy="496" r="5"/><circle cx="1581" cy="517" r="5"/><circle cx="1646" cy="535" r="5"/><circle cx="1688" cy="516" r="5"/><circle cx="1823" cy="484" r="5"/><circle cx="1858" cy="537" r="6"/><circle cx="1986" cy="513" r="5"/><circle cx="2001" cy="519" r="5"/><circle cx="2111" cy="525" r="5"/><circle cx="2238" cy="536" r="5"/><circle cx="2250" cy="536" r="6"/><circle cx="2383" cy="543" r="5"/><circle cx="2407" cy="550" r="6"/><circle cx="2511" cy="489" r="5"/><circle cx="71" cy="585" r="5"/><circle cx="83" cy="614" r="5"/><circle cx="179" cy="609" r="5"/><circle cx="294" cy="580" r="5"/><circle cx="373" cy="600" r="4"/><circle cx="464" cy="582" r="4"/><circle cx="507" cy="618" r="5"/><circle cx="634" cy="565" r="5"/><circle cx="697" cy="637" r="6"/><circle cx="787" cy="628" r="5"/><circle cx="842" cy="613" r="5"/><circle cx="944" cy="610" r="6"/><circle cx="988" cy="591" r="5"/><circle cx="1115" cy="639" r="5"/><circle cx="1140" cy="565" r="4"/><circle cx="1278" cy="570" r="5"/><circle cx="1291" cy="574" r="6"/><circle cx="1372" cy="606" r="5"/><circle cx="1498" cy="591" r="5"/><circle cx="1562" cy="630" r="5"/><circle cx="1619" cy="611" r="6"/><circle cx="1697" cy="589" r="5"/><circle cx="1779" cy="628" r="4"/><circle cx="1847" cy="606" r="6"/><circle cx="1972" cy="568" r="5"/><circle cx="2028" cy="601" r="6"/><circle cx="2089" cy="581" r="5"/><circle cx="2195" cy="591" r="6"/><circle cx="2267" cy="577" r="5"/><circle cx="2390" cy="638" r="4"/><circle cx="2466" cy="609" r="4"/><circle cx="2554" cy="634" r="4"/><circle cx="67" cy="711" r="5"/><circle cx="156" cy="704" r="5"/><circle cx="216" cy="688" r="5"/><circle cx="314" cy="703" r="5"/><circle cx="348" cy="663" r="4"/><circle cx="455" cy="686" r="4"/><circle cx="523" cy="663" r="5"/><circle cx="594" cy="694" r="5"/><circle cx="667" cy="676" r="6"/><circle cx="793" cy="642" r="6"/><circle cx="835" cy="663" r="6"/><circle cx="929" cy="713" r="4"/><circle cx="995" cy="655" r="4"/><circle cx="1116" cy="705" r="5"/><circle cx="1156" cy="703" r="5"/><circle cx="1227" cy="652" r="5"/><circle cx="1333" cy="695" r="5"/><circle cx="1369" cy="706" r="6"/><circle cx="1482" cy="710" r="5"/><circle cx="1552" cy="645" r="5"/><circle cx="1678" cy="649" r="4"/><circle cx="1712" cy="671" r="6"/><circle cx="1761" cy="720" r="4"/><circle cx="1872" cy="700" r="5"/><circle cx="1971" cy="705" r="6"/><circle cx="2039" cy="715" r="5"/><circle cx="2143" cy="687" r="5"/><circle cx="2184" cy="692" r="5"/><circle cx="2253" cy="688" r="5"/><circle cx="2331" cy="643" r="5"/><circle cx="2432" cy="691" r="4"/><circle cx="2499" cy="655" r="6"/><circle cx="22" cy="798" r="6"/><circle cx="113" cy="725" r="4"/><circle cx="162" cy="792" r="4"/><circle cx="319" cy="724" r="5"/><circle cx="387" cy="743" r="6"/><circle cx="429" cy="771" r="5"/><circle cx="539" cy="784" r="5"/><circle cx="638" cy="731" r="6"/><circle cx="697" cy="797" r="5"/><circle cx="772" cy="782" r="6"/><circle cx="818" cy="761" r="6"/><circle cx="932" cy="799" r="4"/><circle cx="1022" cy="774" r="6"/><circle cx="1052" cy="757" r="4"/><circle cx="1162" cy="724" r="5"/><circle cx="1261" cy="741" r="4"/><circle cx="1283" cy="748" r="5"/><circle cx="1436" cy="759" r="4"/><circle cx="1504" cy="769" r="4"/><circle cx="1585" cy="761" r="5"/><circle cx="1661" cy="757" r="5"/><circle cx="1737" cy="722" r="6"/><circle cx="1769" cy="738" r="4"/><circle cx="1866" cy="758" r="5"/><circle cx="1998" cy="800" r="5"/><circle cx="2050" cy="736" r="5"/><circle cx="2092" cy="768" r="4"/><circle cx="2175" cy="781" r="4"/><circle cx="2278" cy="733" r="6"/><circle cx="2364" cy="777" r="5"/><circle cx="2469" cy="779" r="6"/><circle cx="2541" cy="800" r="5"/><circle cx="40" cy="822" r="5"/><circle cx="130" cy="845" r="5"/><circle cx="189" cy="875" r="5"/><circle cx="241" cy="845" r="5"/><circle cx="330" cy="828" r="5"/><circle cx="403" cy="804" r="5"/><circle cx="512" cy="835" r="6"/><circle cx="602" cy="826" r="4"/><circle cx="689" cy="841" r="5"/><circle cx="798" cy="872" r="5"/><circle cx="813" cy="810" r="4"/><circle cx="887" cy="805" r="6"/><circle cx="972" cy="875" r="5"/><circle cx="1080" cy="810" r="5"/><circle cx="1132" cy="822" r="4"/><circle cx="1270" cy="823" r="5"/><circle cx="1346" cy="837" r="5"/><circle cx="1364" cy="861" r="5"/><circle cx="1501" cy="816" r="4"/><circle cx="1596" cy="879" r="4"/><circle cx="1656" cy="874" r="5"/><circle cx="1706" cy="804" r="5"/><circle cx="1793" cy="817" r="5"/><circle cx="1874" cy="859" r="4"/><circle cx="1956" cy="806" r="5"/><circle cx="2024" cy="829" r="5"/><circle cx="2150" cy="843" r="4"/><circle cx="2192" cy="863" r="5"/><circle cx="2301" cy="808" r="5"/><circle cx="2393" cy="833" r="6"/><circle cx="2454" cy="812" r="5"/><circle cx="2512" cy="856" r="5"/><circle cx="0" cy="900" r="4"/><circle cx="2560" cy="900" r="4"/><circle cx="149" cy="900" r="5"/><circle cx="189" cy="923" r="5"/><circle cx="245" cy="892" r="5"/><circle cx="342" cy="920" r="5"/><circle cx="465" cy="943" r="6"/><circle cx="553" cy="885" r="5"/><circle cx="560" cy="880" r="5"/><circle cx="646" cy="896" r="4"/><circle cx="785" cy="931" r="6"/><circle cx="825" cy="918" r="4"/><circle cx="901" cy="950" r="4"/><circle cx="1030" cy="930" r="4"/><circle cx="1042" cy="949" r="6"/><circle cx="1151" cy="909" r="5"/><circle cx="1222" cy="915" r="4"/><circle cx="1313" cy="922" r="6"/><circle cx="1402" cy="918" r="5"/><circle cx="1492" cy="915" r="5"/><circle cx="1544" cy="910" r="6"/><circle cx="1630" cy="932" r="4"/><circle cx="1742" cy="951" r="5"/><circle cx="1762" cy="902" r="6"/><circle cx="1859" cy="905" r="4"/><circle cx="1984" cy="945" r="4"/><circle cx="2027" cy="887" r="4"/><circle cx="2102" cy="939" r="5"/><circle cx="2166" cy="921" r="5"/><circle cx="2305" cy="916" r="4"/><circle cx="2377" cy="957" r="6"/><circle cx="2403" cy="903" r="5"/><circle cx="2495" cy="887" r="6"/><circle cx="56" cy="968" r="4"/><circle cx="112" cy="998" r="5"/><circle cx="197" cy="1020" r="6"/><circle cx="305" cy="980" r="5"/><circle cx="387" cy="983" r="6"/><circle cx="415" cy="974" r="5"/><circle cx="482" cy="971" r="5"/><circle cx="605" cy="990" r="5"/><circle cx="700" cy="1003" r="4"/><circle cx="739" cy="999" r="5"/><circle cx="825" cy="1019" r="5"/><circle cx="915" cy="1030" r="4"/><circle cx="1034" cy="1015" r="4"/><circle cx="1098" cy="983" r="5"/><circle cx="1192" cy="979" r="5"/><circle cx="1232" cy="1021" r="5"/><circle cx="1282" cy="990" r="5"/><circle cx="1427" cy="1021" r="5"/><circle cx="1462" cy="989" r="5"/><circle cx="1522" cy="970" r="5"/><circle cx="1672" cy="1006" r="4"/><circle cx="1736" cy="1036" r="4"/><circle cx="1771" cy="1009" r="6"/><circle cx="1877" cy="999" r="5"/><circle cx="1972" cy="978" r="5"/><circle cx="2041" cy="1010" r="4"/><circle cx="2111" cy="998" r="5"/><circle cx="2177" cy="990" r="5"/><circle cx="2305" cy="1035" r="5"/><circle cx="2341" cy="1029" r="5"/><circle cx="2468" cy="997" r="5"/><circle cx="2511" cy="964" r="4"/><circle cx="1" cy="1056" r="5"/><circle cx="2561" cy="1056" r="5"/><circle cx="153" cy="1057" r="4"/><circle cx="211" cy="1110" r="6"/><circle cx="249" cy="1072" r="4"/><circle cx="327" cy="1090" r="4"/><circle cx="449" cy="1090" r="4"/><circle cx="532" cy="1092" r="5"/><circle cx="596" cy="1106" r="4"/><circle cx="698" cy="1110" r="5"/><circle cx="751" cy="1116" r="6"/><circle cx="820" cy="1107" r="6"/><circle cx="935" cy="1077" r="5"/><circle cx="979" cy="1066" r="5"/><circle cx="1045" cy="1096" r="4"/><circle cx="1173" cy="1112" r="5"/><circle cx="1236" cy="1101" r="5"/><circle cx="1285" cy="1079" r="5"/><circle cx="1372" cy="1054" r="5"/><circle cx="1454" cy="1057" r="4"/><circle cx="1600" cy="1078" r="6"/><circle cx="1644" cy="1087" r="5"/><circle cx="1693" cy="1084" r="5"/><circle cx="1785" cy="1084" r="5"/><circle cx="1845" cy="1052" r="4"/><circle cx="1966" cy="1089" r="4"/><circle cx="2009" cy="1079" r="6"/><circle cx="2127" cy="1080" r="6"/><circle cx="2231" cy="1077" r="4"/><circle cx="2304" cy="1049" r="6"/><circle cx="2379" cy="1101" r="5"/><circle cx="2478" cy="1050" r="5"/><circle cx="2524" cy="1050" r="6"/><circle cx="43" cy="1192" r="6"/><circle cx="122" cy="1150" r="5"/><circle cx="191" cy="1122" r="6"/><circle cx="247" cy="1157" r="4"/><circle cx="327" cy="1166" r="4"/><circle cx="413" cy="1173" r="4"/><circle cx="533" cy="1136" r="4"/><circle cx="585" cy="1141" r="5"/><circle cx="699" cy="1124" r="6"/><circle cx="798" cy="1168" r="5"/><circle cx="856" cy="1184" r="5"/><circle cx="945" cy="1174" r="4"/><circle cx="985" cy="1141" r="6"/><circle cx="1086" cy="1156" r="4"/><circle cx="1125" cy="1162" r="6"/><circle cx="1253" cy="1198" r="5"/><circle cx="1350" cy="1120" r="6"/><circle cx="1427" cy="1190" r="4"/><circle cx="1514" cy="1162" r="4"/><circle cx="1580" cy="1157" r="6"/><circle cx="1607" cy="1179" r="6"/><circle cx="1699" cy="1165" r="4"/><circle cx="1788" cy="1171" r="6"/><circle cx="1902" cy="1198" r="4"/><circle cx="1979" cy="1159" r="4"/><circle cx="2062" cy="1184" r="5"/><circle cx="2111" cy="1152" r="6"/><circle cx="2169" cy="1199" r="5"/><circle cx="2299" cy="1160" r="5"/><circle cx="2369" cy="1190" r="6"/><circle cx="2427" cy="1199" r="6"/><circle cx="2552" cy="1143" r="5"/><circle cx="17" cy="1232" r="4"/><circle cx="155" cy="1261" r="5"/><circle cx="214" cy="1268" r="5"/><circle cx="244" cy="1278" r="6"/><circle cx="364" cy="1268" r="5"/><circle cx="460" cy="1273" r="4"/><circle cx="524" cy="1248" r="6"/><circle cx="584" cy="1272" r="4"/><circle cx="690" cy="1219" r="5"/><circle cx="755" cy="1253" r="5"/><circle cx="871" cy="1266" r="6"/><circle cx="939" cy="1263" r="4"/><circle cx="1002" cy="1228" r="6"/><circle cx="1093" cy="1216" r="4"/><circle cx="1167" cy="1255" r="5"/><circle cx="1219" cy="1213" r="4"/><circle cx="1315" cy="1224" r="4"/><circle cx="1392" cy="1214" r="6"/><circle cx="1494" cy="1224" r="5"/><circle cx="1560" cy="1225" r="4"/><circle cx="1604" cy="1278" r="5"/><circle cx="1744" cy="1208" r="5"/><circle cx="1828" cy="1260" r="5"/><circle cx="1865" cy="1264" r="4"/><circle cx="1960" cy="1256" r="5"/><circle cx="2036" cy="1218" r="5"/><circle cx="2126" cy="1237" r="5"/><circle cx="2229" cy="1231" r="5"/><circle cx="2305" cy="1265" r="5"/><circle cx="2384" cy="1243" r="5"/><circle cx="2420" cy="1271" r="4"/><circle cx="2512" cy="1278" r="5"/><circle cx="78" cy="1341" r="4"/><circle cx="103" cy="1335" r="5"/><circle cx="196" cy="1311" r="6"/><circle cx="280" cy="1359" r="5"/><circle cx="395" cy="1342" r="6"/><circle cx="457" cy="1282" r="5"/><circle cx="493" cy="1284" r="4"/><circle cx="576" cy="1322" r="5"/><circle cx="679" cy="1301" r="5"/><circle cx="758" cy="1351" r="4"/><circle cx="806" cy="1285" r="6"/><circle cx="903" cy="1323" r="5"/><circle cx="966" cy="1350" r="4"/><circle cx="1110" cy="1343" r="4"/><circle cx="1120" cy="1357" r="4"/><circle cx="1234" cy="1290" r="5"/><circle cx="1317" cy="1353" r="5"/><circle cx="1366" cy="1333" r="5"/><circle cx="1465" cy="1293" r="5"/><circle cx="1567" cy="1341" r="5"/><circle cx="1638" cy="1351" r="4"/><circle cx="1748" cy="1323" r="6"/><circle cx="1766" cy="1286" r="4"/><circle cx="1873" cy="1352" r="6"/><circle cx="1969" cy="1333" r="5"/><circle cx="2030" cy="1343" r="5"/><circle cx="2082" cy="1330" r="4"/><circle cx="2225" cy="1336" r="4"/><circle cx="2313" cy="1302" r="5"/><circle cx="2376" cy="1351" r="4"/><circle cx="2471" cy="1303" r="5"/><circle cx="2529" cy="1328" r="5"/><circle cx="49" cy="1434" r="5"/><circle cx="123" cy="1418" r="6"/><circle cx="215" cy="1390" r="5"/><circle cx="274" cy="1406" r="6"/><circle cx="371" cy="1417" r="5"/><circle cx="436" cy="1434" r="5"/><circle cx="544" cy="1398" r="6"/><circle cx="619" cy="1434" r="6"/><circle cx="688" cy="1410" r="6"/><circle cx="739" cy="1397" r="5"/><circle cx="835" cy="1365" r="5"/><circle cx="928" cy="1434" r="5"/><circle cx="1004" cy="1418" r="6"/><circle cx="1109" cy="1409" r="4"/><circle cx="1176" cy="1417" r="6"/><circle cx="1265" cy="1408" r="4"/><circle cx="1330" cy="1372" r="4"/><circle cx="1378" cy="1402" r="5"/><circle cx="1464" cy="1395" r="5"/><circle cx="1539" cy="1404" r="5"/><circle cx="1623" cy="1375" r="5"/><circle cx="1726" cy="1419" r="4"/><circle cx="1823" cy="1408" r="5"/><circle cx="1875" cy="1402" r="5"/><circle cx="1938" cy="1421" r="6"/><circle cx="2042" cy="1412" r="6"/><circle cx="2124" cy="1428" r="5"/><circle cx="2230" cy="1368" r="5"/><circle cx="2301" cy="1372" r="4"/><circle cx="2375" cy="1434" r="5"/><circle cx="2462" cy="1427" r="5"/><circle cx="2526" cy="1394" r="6"/><path stroke="#fff" d="M59 32L100 80M59 32L49 -6M59 32L123 -22M59 1472L49 1434M59 1472L123 1418M100 80L72 141M100 80L150 130M100 80L184 80M100 80L81 165M236 72L301 10M236 72L184 80M236 72L310 122M236 72L274 -34M236 1512L274 1406M301 10L358 73M301 10L280 -81M301 10L274 -34M301 10L371 -23M301 1450L280 1359M301 1450L274 1406M301 1450L371 1417M358 73L437 61M358 73L310 122M358 73L383 83M358 73L401 133M437 61L492 18M437 61L383 83M437 61L488 118M437 61L436 -6M437 1501L436 1434M492 18L568 53M492 18L488 118M492 18L436 -6M492 18L544 -42M492 1458L436 1434M492 1458L544 1398M568 53L576 108M568 53L544 -42M568 53L619 -6M568 1493L544 1398M568 1493L619 1434M690 16L718 102M690 16L740 96M690 16L619 -6M690 16L688 -30M690 16L739 -43M690 1456L619 1434M690 1456L688 1410M690 1456L739 1397M800 58L831 76M800 58L718 102M800 58L740 96M800 58L871 120M800 58L739 -43M800 1498L739 1397M831 76L740 96M831 76L871 120M831 76L897 139M831 76L863 167M950 3L994 37M950 3L966 -90M950 3L928 -6M950 3L1004 -22M950 1443L966 1350M950 1443L928 1434M950 1443L1004 1418M994 37L1086 72M994 37L928 -6M994 37L1004 -22M994 1477L928 1434M994 1477L1004 1418M1086 72L1192 63M1086 72L1094 105M1086 72L1196 85M1086 72L1109 -31M1086 1512L1109 1409M1192 63L1216 66M1192 63L1196 85M1192 63L1200 121M1192 63L1176 -23M1192 1503L1176 1417M1216 66L1335 69M1216 66L1196 85M1216 66L1200 121M1216 66L1176 -23M1216 1506L1176 1417M1335 69L1417 32M1335 69L1345 144M1335 69L1419 108M1417 32L1496 68M1417 32L1419 108M1417 32L1378 -38M1417 32L1464 -45M1417 1472L1378 1402M1417 1472L1464 1395M1496 68L1569 18M1496 68L1419 108M1496 68L1486 153M1496 68L1562 130M1569 18L1627 70M1569 18L1539 -36M1569 18L1623 -65M1569 1458L1539 1404M1569 1458L1623 1375M1627 70L1631 150M1736 24L1775 5M1736 24L1718 129M1736 24L1761 153M1736 24L1726 -21M1736 24L1823 -32M1736 1464L1726 1419M1736 1464L1823 1408M1775 5L1726 -21M1775 5L1823 -32M1775 5L1875 -38M1775 1445L1726 1419M1775 1445L1823 1408M1775 1445L1875 1402M1898 66L1964 9M1898 66L1918 111M1898 66L1935 126M1898 66L1875 -38M1898 66L1938 -19M1898 1506L1875 1402M1898 1506L1938 1421M1964 9L2022 9M1964 9L1938 -19M1964 9L2042 -28M1964 1449L1938 1421M1964 1449L2042 1412M2022 9L2112 11M2022 9L1938 -19M2022 9L2042 -28M2022 9L2124 -12M2022 1449L1938 1421M2022 1449L2042 1412M2022 1449L2124 1428M2112 11L2204 66M2112 11L2042 -28M2112 11L2124 -12M2112 1451L2042 1412M2112 1451L2124 1428M2204 66L2242 15M2204 66L2204 116M2204 66L2254 131M2204 66L2124 -12M2204 1506L2124 1428M2242 15L2204 116M2242 15L2230 -72M2242 1455L2230 1368M2377 21L2444 52M2377 21L2392 82M2377 21L2375 -6M2377 21L2462 -13M2377 1461L2375 1434M2377 1461L2462 1427M2444 52L2489 54M2444 52L2392 82M2444 52L2462 -13M2444 1492L2462 1427M2489 54L2392 82M2489 54L2475 124M2489 54L2462 -13M2489 54L2526 -46M2489 1494L2462 1427M2489 1494L2526 1394M72 141L150 130M72 141L67 229M72 141L81 165M150 130L184 80M150 130L81 165M150 130L178 199M184 80L178 199M310 122L383 83M310 122L311 219M310 122L362 164M383 83L401 133M383 83L362 164M401 133L488 118M401 133L362 164M401 133L435 161M488 118L576 108M488 118L435 161M576 108L582 192M576 108L619 -6M576 1548L619 1434M718 102L740 96M718 102L671 207M871 120L897 139M871 120L863 167M871 120L895 174M897 139L994 158M897 139L863 167M897 139L895 174M994 158L895 174M994 158L1026 186M994 158L1058 189M994 158L1016 260M1094 105L1026 186M1094 105L1058 189M1196 85L1200 121M1200 121L1192 187M1200 121L1221 219M1345 144L1419 108M1345 144L1352 189M1419 108L1486 153M1486 153L1562 130M1486 153L1467 231M1486 153L1553 207M1562 130L1631 150M1562 130L1553 207M1562 130L1624 165M1631 150L1718 129M1631 150L1624 165M1718 129L1761 153M1718 129L1700 199M1761 153L1700 199M1761 153L1769 234M1761 153L1685 253M1918 111L1935 126M1918 111L1919 176M1935 126L1919 176M1935 126L1983 213M1935 126L2031 162M2068 155L2080 149M2068 155L1983 213M2068 155L2031 162M2068 155L2149 211M2080 149L2031 162M2080 149L2149 211M2204 116L2254 131M2204 116L2149 211M2204 116L2201 218M2254 131L2201 218M2254 131L2309 166M2392 82L2475 124M2392 82L2375 -6M2392 1522L2375 1434M2475 124L2528 148M2475 124L2445 182M2475 124L2537 177M2528 148L2445 182M2528 148L2537 177M67 229L81 165M67 229L-23 177M67 229L5 263M67 229L103 242M2627 229L2537 177M81 165L103 242M178 199L103 242M178 199L207 276M178 199L251 260M311 219L362 164M311 219L207 276M311 219L251 260M311 219L382 300M362 164L435 161M435 161L510 239M510 239L582 192M510 239L458 296M510 239L534 302M510 239L610 247M582 192L671 207M582 192L610 247M671 207L787 233M671 207L610 247M671 207L647 279M787 233L863 167M787 233L723 312M787 233L814 275M863 167L895 174M895 174L928 285M1026 186L1058 189M1026 186L1016 260M1026 186L1043 287M1058 189L1016 260M1058 189L1043 287M1192 187L1221 219M1192 187L1169 240M1221 219L1169 240M1221 219L1274 258M1221 219L1296 248M1352 189L1379 235M1352 189L1274 258M1352 189L1296 248M1352 189L1428 258M1379 235L1467 231M1379 235L1296 248M1379 235L1428 258M1379 235L1454 298M1467 231L1553 207M1467 231L1428 258M1467 231L1454 298M1553 207L1624 165M1553 207L1551 287M1624 165L1650 243M1700 199L1769 234M1700 199L1650 243M1700 199L1685 253M1769 234L1685 253M1769 234L1795 265M1769 234L1869 249M1919 176L1983 213M1919 176L1869 249M1983 213L2031 162M1983 213L1992 277M2149 211L2201 218M2149 211L2093 283M2201 218L2225 298M2201 218L2285 249M2309 166L2360 218M2309 166L2285 249M2360 218L2445 182M2360 218L2285 249M2360 218L2358 314M2360 218L2425 265M2445 182L2537 177M2445 182L2425 265M2537 177L2565 263M-23 177L5 263M5 263L103 242M5 263L-54 287M5 263L64 360M2565 263L2506 287M103 242L207 276M207 276L251 260M207 276L219 372M251 260L219 372M382 300L458 296M382 300L317 390M382 300L325 364M382 300L452 364M458 296L534 302M458 296L452 364M534 302L610 247M534 302L555 383M534 302L589 349M610 247L647 279M647 279L723 312M647 279L589 349M647 279L713 334M723 312L814 275M723 312L713 334M723 312L788 352M814 275L788 352M814 275L863 352M814 275L890 347M928 285L1016 260M928 285L1043 287M928 285L863 352M928 285L890 347M1016 260L1043 287M1043 287L1067 354M1169 240L1274 258M1169 240L1296 248M1274 258L1296 248M1428 258L1454 298M1428 258L1464 337M1454 298L1399 380M1454 298L1464 337M1551 287L1650 243M1551 287L1535 366M1650 243L1685 253M1685 253L1795 265M1795 265L1869 249M1795 265L1832 323M1869 249L1832 323M1869 249L1872 350M1992 277L2055 308M1992 277L2093 283M1992 277L1936 353M1992 277L2028 365M2055 308L2093 283M2055 308L2028 365M2055 308L2137 342M2093 283L2137 342M2225 298L2285 249M2225 298L2137 342M2225 298L2199 362M2225 298L2266 338M2285 249L2266 338M2358 314L2425 265M2358 314L2266 338M2358 314L2341 394M2358 314L2405 381M2425 265L2506 287M2506 287L2494 355M64 360L91 368M64 360L49 407M64 360L-18 411M2624 360L2542 411M91 368L49 407M219 372L317 390M219 372L153 455M219 372L186 409M317 390L325 364M317 390L283 450M317 390L398 446M325 364L283 450M452 364L398 446M452 364L465 411M555 383L589 349M555 383L465 411M555 383L504 475M555 383L596 453M589 349L643 424M713 334L788 352M788 352L863 352M788 352L782 421M863 352L890 347M863 352L782 421M890 347L980 417M1013 397L1067 354M1013 397L980 417M1067 354L1161 377M1067 354L980 417M1067 354L1159 415M1161 377L1253 378M1161 377L1100 479M1161 377L1159 415M1161 377L1139 481M1253 378L1287 364M1253 378L1159 415M1253 378L1255 469M1253 378L1329 419M1287 364L1329 419M1399 380L1464 337M1399 380L1329 419M1399 380L1396 430M1399 380L1502 401M1464 337L1535 366M1464 337L1502 401M1535 366L1502 401M1535 366L1544 453M1535 366L1633 413M1670 399L1759 368M1670 399L1633 413M1670 399L1724 461M1670 399L1688 516M1759 368L1832 323M1759 368L1724 461M1759 368L1835 407M1759 368L1861 417M1832 323L1872 350M1832 323L1835 407M1872 350L1936 353M1872 350L1835 407M1872 350L1861 417M1936 353L2028 365M1936 353L1861 417M2028 365L1999 433M2028 365L2082 426M2137 342L2199 362M2137 342L2082 426M2199 362L2266 338M2199 362L2233 469M2266 338L2341 394M2341 394L2405 381M2341 394L2295 475M2341 394L2374 472M2405 381L2494 355M2405 381L2374 472M2405 381L2457 429M2494 355L2457 429M2494 355L2542 411M49 407L-18 411M49 407L56 516M2609 407L2542 411M153 455L186 409M153 455L129 483M153 455L207 503M153 455L246 501M186 409L129 483M186 409L207 503M186 409L246 501M283 450L207 503M283 450L246 501M398 446L465 411M398 446L376 515M465 411L504 475M465 411L499 489M504 475L596 453M504 475L459 549M504 475L499 489M596 453L643 424M596 453L499 489M596 453L682 489M643 424L682 489M782 421L863 464M782 421L786 522M863 464L886 466M863 464L786 522M863 464L839 525M863 464L898 516M886 466L980 417M886 466L839 525M886 466L898 516M886 466L972 536M1100 479L1159 415M1100 479L1046 537M1100 479L1139 481M1100 479L1140 565M1159 415L1139 481M1255 469L1329 419M1255 469L1215 552M1255 469L1323 517M1329 419L1396 430M1396 430L1323 517M1396 430L1389 521M1396 430L1469 496M1502 401L1544 453M1502 401L1469 496M1544 453L1633 413M1544 453L1469 496M1544 453L1581 517M1633 413L1724 461M1724 461L1688 516M1724 461L1823 484M1835 407L1861 417M1835 407L1823 484M1861 417L1823 484M1999 433L2068 470M1999 433L2082 426M1999 433L1986 513M1999 433L2001 519M2068 470L2082 426M2068 470L1986 513M2068 470L2001 519M2068 470L2111 525M2082 426L2111 525M2233 469L2295 475M2233 469L2238 536M2233 469L2250 536M2295 475L2374 472M2295 475L2238 536M2295 475L2250 536M2374 472L2383 543M2374 472L2407 550M2457 429L2542 411M2457 429L2511 489M2542 411L2511 489M56 516L129 483M56 516L-49 489M56 516L71 585M56 516L83 614M2616 516L2511 489M129 483L207 503M207 503L246 501M246 501L294 580M376 515L459 549M376 515L294 580M376 515L373 600M376 515L464 582M459 549L499 489M459 549L464 582M459 549L507 618M499 489L464 582M633 553L682 489M633 553L634 565M682 489L786 522M682 489L634 565M786 522L839 525M839 525L898 516M839 525L842 613M898 516L972 536M898 516L944 610M972 536L1046 537M972 536L944 610M972 536L988 591M1046 537L1139 481M1046 537L988 591M1046 537L1140 565M1139 481L1140 565M1215 552L1140 565M1215 552L1278 570M1215 552L1291 574M1323 517L1389 521M1323 517L1278 570M1323 517L1291 574M1389 521L1469 496M1389 521L1372 606M1469 496L1498 591M1581 517L1646 535M1581 517L1688 516M1581 517L1498 591M1646 535L1688 516M1646 535L1562 630M1646 535L1619 611M1646 535L1697 589M1688 516L1697 589M1823 484L1858 537M1823 484L1847 606M1858 537L1847 606M1858 537L1972 568M1986 513L2001 519M1986 513L1972 568M1986 513L2028 601M2001 519L1972 568M2001 519L2028 601M2111 525L2028 601M2111 525L2089 581M2111 525L2195 591M2238 536L2250 536M2238 536L2195 591M2238 536L2267 577M2250 536L2195 591M2250 536L2267 577M2383 543L2407 550M2383 543L2390 638M2407 550L2390 638M2407 550L2466 609M2407 550L2331 643M71 585L83 614M71 585L179 609M71 585L-6 634M2631 585L2554 634M83 614L179 609M83 614L-6 634M83 614L67 711M2643 614L2554 634M179 609L294 580M179 609L156 704M179 609L216 688M294 580L373 600M294 580L348 663M373 600L464 582M373 600L314 703M373 600L348 663M464 582L507 618M507 618L455 686M507 618L523 663M507 618L594 694M634 565L697 637M634 565L667 676M697 637L787 628M697 637L667 676M697 637L793 642M697 637L638 731M787 628L842 613M787 628L793 642M787 628L835 663M842 613L944 610M842 613L793 642M842 613L835 663M944 610L988 591M944 610L995 655M988 591L995 655M1115 639L1140 565M1115 639L1116 705M1115 639L1156 703M1115 639L1162 724M1278 570L1291 574M1278 570L1372 606M1278 570L1227 652M1291 574L1372 606M1291 574L1227 652M1372 606L1333 695M1372 606L1369 706M1498 591L1562 630M1498 591L1552 645M1562 630L1619 611M1562 630L1482 710M1562 630L1552 645M1619 611L1697 589M1619 611L1552 645M1619 611L1678 649M1697 589L1678 649M1697 589L1712 671M1779 628L1847 606M1779 628L1712 671M1779 628L1761 720M1779 628L1872 700M1847 606L1872 700M1972 568L2028 601M1972 568L2089 581M2028 601L2089 581M2195 591L2267 577M2195 591L2184 692M2267 577L2253 688M2267 577L2331 643M2390 638L2466 609M2390 638L2331 643M2390 638L2432 691M2466 609L2554 634M2466 609L2432 691M2466 609L2499 655M2554 634L2627 711M2554 634L2499 655M-6 634L67 711M67 711L156 704M67 711L22 798M67 711L113 725M156 704L216 688M156 704L113 725M156 704L162 792M216 688L314 703M216 688L113 725M216 688L319 724M314 703L348 663M314 703L319 724M314 703L387 743M348 663L319 724M348 663L387 743M455 686L523 663M455 686L429 771M523 663L594 694M594 694L667 676M594 694L638 731M667 676L638 731M793 642L835 663M835 663L929 713M835 663L818 761M929 713L995 655M929 713L932 799M929 713L887 805M1116 705L1156 703M1116 705L1022 774M1116 705L1052 757M1116 705L1162 724M1156 703L1227 652M1156 703L1162 724M1156 703L1261 741M1227 652L1162 724M1227 652L1261 741M1333 695L1369 706M1333 695L1261 741M1333 695L1283 748M1369 706L1482 710M1369 706L1283 748M1369 706L1436 759M1482 710L1552 645M1482 710L1436 759M1482 710L1504 769M1552 645L1585 761M1678 649L1712 671M1678 649L1661 757M1712 671L1761 720M1712 671L1737 722M1761 720L1737 722M1761 720L1769 738M1872 700L1971 705M1872 700L1866 758M1971 705L2039 715M1971 705L1998 800M1971 705L2050 736M1971 705L1956 806M2039 715L2143 687M2039 715L1998 800M2039 715L2050 736M2039 715L2092 768M2143 687L2184 692M2143 687L2253 688M2143 687L2092 768M2184 692L2253 688M2184 692L2175 781M2184 692L2278 733M2253 688L2331 643M2253 688L2278 733M2331 643L2278 733M2432 691L2499 655M2432 691L2469 779M22 798L-19 800M22 798L40 822M2582 798L2541 800M113 725L162 792M162 792L130 845M162 792L241 845M319 724L387 743M319 724L330 828M387 743L429 771M387 743L403 804M429 771L403 804M429 771L512 835M539 784L638 731M539 784L512 835M539 784L602 826M539 784L553 885M539 784L560 880M638 731L697 797M697 797L772 782M697 797L689 841M772 782L818 761M772 782L689 841M772 782L798 872M772 782L813 810M818 761L813 810M818 761L887 805M932 799L1022 774M932 799L887 805M932 799L972 875M1022 774L1052 757M1022 774L972 875M1022 774L1080 810M1052 757L1080 810M1052 757L1132 822M1162 724L1132 822M1261 741L1283 748M1261 741L1270 823M1283 748L1270 823M1283 748L1346 837M1436 759L1504 769M1436 759L1501 816M1504 769L1585 761M1504 769L1501 816M1585 761L1661 757M1585 761L1501 816M1661 757L1737 722M1661 757L1706 804M1737 722L1769 738M1737 722L1706 804M1769 738L1866 758M1769 738L1706 804M1769 738L1793 817M1866 758L1793 817M1866 758L1874 859M1866 758L1956 806M1998 800L2050 736M1998 800L1956 806M1998 800L2024 829M2050 736L2092 768M2050 736L2024 829M2092 768L2175 781M2092 768L2024 829M2175 781L2150 843M2175 781L2192 863M2278 733L2364 777M2278 733L2301 808M2364 777L2301 808M2364 777L2393 833M2469 779L2541 800M2469 779L2393 833M2469 779L2454 812M2469 779L2512 856M2541 800L2600 822M2541 800L2454 812M2541 800L2512 856M-19 800L40 822M40 822L130 845M40 822L0 900M130 845L189 875M130 845L149 900M189 875L241 845M189 875L149 900M189 875L189 923M189 875L245 892M241 845L330 828M241 845L189 923M241 845L245 892M330 828L403 804M330 828L342 920M512 835L602 826M512 835L553 885M512 835L560 880M602 826L689 841M602 826L553 885M602 826L560 880M689 841L646 896M798 872L813 810M798 872L887 805M798 872L785 931M798 872L825 918M813 810L887 805M972 875L901 950M972 875L1030 930M972 875L1042 949M1080 810L1132 822M1132 822L1151 909M1270 823L1346 837M1270 823L1364 861M1346 837L1364 861M1346 837L1313 922M1346 837L1402 918M1364 861L1313 922M1364 861L1402 918M1501 816L1492 915M1501 816L1544 910M1596 879L1656 874M1596 879L1544 910M1596 879L1630 932M1656 874L1706 804M1656 874L1630 932M1656 874L1762 902M1706 804L1793 817M1793 817L1874 859M1793 817L1762 902M1874 859L1956 806M1874 859L1859 905M1956 806L2024 829M2024 829L2027 887M2150 843L2192 863M2150 843L2166 921M2192 863L2301 808M2192 863L2166 921M2301 808L2393 833M2301 808L2305 916M2393 833L2454 812M2393 833L2403 903M2454 812L2512 856M2454 812L2495 887M2512 856L2560 900M2512 856L2495 887M-48 856L0 900M0 900L-65 887M0 900L56 968M0 900L-49 964M2560 900L2495 887M2560 900L2511 964M149 900L189 923M149 900L245 892M149 900L112 998M189 923L245 892M189 923L197 1020M245 892L342 920M342 920L305 980M342 920L387 983M342 920L415 974M465 943L553 885M465 943L387 983M465 943L415 974M465 943L482 971M553 885L560 880M560 880L646 896M646 896L605 990M785 931L825 918M785 931L700 1003M785 931L739 999M785 931L825 1019M825 918L901 950M901 950L825 1019M901 950L915 1030M1030 930L1042 949M1030 930L1034 1015M1030 930L1098 983M1042 949L1151 909M1042 949L1034 1015M1042 949L1098 983M1151 909L1222 915M1151 909L1098 983M1151 909L1192 979M1222 915L1313 922M1222 915L1192 979M1222 915L1282 990M1313 922L1402 918M1313 922L1282 990M1402 918L1492 915M1402 918L1462 989M1492 915L1544 910M1492 915L1462 989M1492 915L1522 970M1544 910L1630 932M1544 910L1522 970M1742 951L1762 902M1742 951L1672 1006M1742 951L1736 1036M1742 951L1771 1009M1762 902L1859 905M1762 902L1771 1009M1859 905L1877 999M1984 945L2027 887M1984 945L1877 999M1984 945L1972 978M1984 945L2041 1010M2027 887L2102 939M2027 887L1972 978M2102 939L2166 921M2102 939L2041 1010M2102 939L2111 998M2102 939L2177 990M2166 921L2111 998M2166 921L2177 990M2305 916L2377 957M2305 916L2403 903M2305 916L2341 1029M2377 957L2403 903M2377 957L2305 1035M2377 957L2341 1029M2377 957L2468 997M2403 903L2495 887M2495 887L2511 964M56 968L112 998M56 968L1 1056M112 998L197 1020M112 998L153 1057M197 1020L153 1057M197 1020L211 1110M197 1020L249 1072M305 980L387 983M305 980L415 974M305 980L327 1090M387 983L415 974M387 983L482 971M415 974L482 971M482 971L605 990M482 971L532 1092M605 990L700 1003M700 1003L739 999M739 999L825 1019M825 1019L915 1030M825 1019L820 1107M915 1030L935 1077M915 1030L979 1066M1034 1015L1098 983M1034 1015L979 1066M1034 1015L1045 1096M1098 983L1192 979M1192 979L1232 1021M1192 979L1282 990M1232 1021L1282 990M1232 1021L1173 1112M1232 1021L1236 1101M1232 1021L1285 1079M1282 990L1285 1079M1427 1021L1462 989M1427 1021L1522 970M1427 1021L1372 1054M1427 1021L1454 1057M1462 989L1522 970M1462 989L1454 1057M1522 970L1454 1057M1672 1006L1736 1036M1672 1006L1644 1087M1672 1006L1693 1084M1736 1036L1771 1009M1736 1036L1693 1084M1736 1036L1785 1084M1771 1009L1785 1084M1771 1009L1845 1052M1877 999L1972 978M1877 999L1785 1084M1877 999L1845 1052M1972 978L2041 1010M1972 978L2009 1079M2041 1010L2111 998M2041 1010L2009 1079M2111 998L2177 990M2111 998L2127 1080M2177 990L2127 1080M2177 990L2231 1077M2305 1035L2341 1029M2305 1035L2231 1077M2305 1035L2304 1049M2305 1035L2379 1101M2341 1029L2304 1049M2341 1029L2379 1101M2468 997L2511 964M2468 997L2561 1056M2468 997L2478 1050M2468 997L2524 1050M-92 997L1 1056M2511 964L2478 1050M2511 964L2524 1050M1 1056L-82 1050M1 1056L-36 1050M1 1056L-8 1143M2561 1056L2478 1050M2561 1056L2524 1050M2561 1056L2552 1143M153 1057L211 1110M153 1057L122 1150M153 1057L191 1122M211 1110L249 1072M211 1110L191 1122M211 1110L247 1157M249 1072L327 1090M249 1072L191 1122M249 1072L247 1157M327 1090L327 1166M449 1090L532 1092M449 1090L413 1173M449 1090L533 1136M532 1092L596 1106M532 1092L533 1136M532 1092L585 1141M596 1106L698 1110M596 1106L533 1136M596 1106L585 1141M596 1106L699 1124M698 1110L751 1116M698 1110L699 1124M698 1110L690 1219M751 1116L820 1107M751 1116L699 1124M751 1116L798 1168M751 1116L690 1219M820 1107L798 1168M820 1107L856 1184M935 1077L979 1066M935 1077L945 1174M935 1077L985 1141M979 1066L1045 1096M979 1066L985 1141M1045 1096L985 1141M1045 1096L1086 1156M1045 1096L1125 1162M1173 1112L1236 1101M1173 1112L1086 1156M1173 1112L1125 1162M1236 1101L1285 1079M1236 1101L1253 1198M1236 1101L1350 1120M1285 1079L1372 1054M1285 1079L1350 1120M1372 1054L1454 1057M1372 1054L1350 1120M1600 1078L1644 1087M1600 1078L1693 1084M1600 1078L1580 1157M1600 1078L1607 1179M1644 1087L1693 1084M1644 1087L1580 1157M1644 1087L1607 1179M1693 1084L1699 1165M1785 1084L1845 1052M1785 1084L1788 1171M1966 1089L2009 1079M1966 1089L1979 1159M2009 1079L2127 1080M2009 1079L1979 1159M2127 1080L2231 1077M2127 1080L2111 1152M2231 1077L2304 1049M2231 1077L2299 1160M2304 1049L2379 1101M2304 1049L2299 1160M2379 1101L2369 1190M2379 1101L2427 1199M2478 1050L2524 1050M2478 1050L2552 1143M2524 1050L2552 1143M43 1192L122 1150M43 1192L-8 1143M43 1192L17 1232M2603 1192L2552 1143M122 1150L191 1122M122 1150L155 1261M191 1122L247 1157M247 1157L327 1166M327 1166L413 1173M327 1166L364 1268M413 1173L364 1268M533 1136L585 1141M699 1124L798 1168M699 1124L690 1219M798 1168L856 1184M798 1168L755 1253M856 1184L945 1174M856 1184L871 1266M945 1174L985 1141M945 1174L939 1263M945 1174L1002 1228M985 1141L1002 1228M1086 1156L1125 1162M1086 1156L1002 1228M1086 1156L1093 1216M1125 1162L1093 1216M1125 1162L1167 1255M1253 1198L1167 1255M1253 1198L1219 1213M1253 1198L1315 1224M1253 1198L1234 1290M1350 1120L1427 1190M1350 1120L1392 1214M1427 1190L1514 1162M1427 1190L1392 1214M1427 1190L1494 1224M1514 1162L1580 1157M1514 1162L1494 1224M1514 1162L1560 1225M1580 1157L1607 1179M1580 1157L1560 1225M1607 1179L1560 1225M1607 1179L1604 1278M1699 1165L1788 1171M1699 1165L1744 1208M1788 1171L1744 1208M1788 1171L1828 1260M1788 1171L1766 1286M1902 1198L1865 1264M1902 1198L1960 1256M1979 1159L2062 1184M1979 1159L1960 1256M1979 1159L2036 1218M2062 1184L2111 1152M2062 1184L2169 1199M2062 1184L2036 1218M2062 1184L2126 1237M2111 1152L2169 1199M2111 1152L2036 1218M2111 1152L2126 1237M2169 1199L2126 1237M2169 1199L2229 1231M2299 1160L2369 1190M2299 1160L2229 1231M2299 1160L2305 1265M2369 1190L2427 1199M2369 1190L2305 1265M2369 1190L2384 1243M2427 1199L2384 1243M2427 1199L2420 1271M2427 1199L2471 1303M2552 1143L2577 1232M-8 1143L17 1232M17 1232L-48 1278M17 1232L-31 1328M2577 1232L2512 1278M2577 1232L2529 1328M155 1261L214 1268M155 1261L244 1278M155 1261L103 1335M155 1261L196 1311M214 1268L244 1278M214 1268L196 1311M244 1278L196 1311M244 1278L280 1359M244 1278L215 1390M364 1268L460 1273M364 1268L395 1342M364 1268L457 1282M460 1273L524 1248M460 1273L395 1342M460 1273L457 1282M460 1273L493 1284M524 1248L584 1272M524 1248L457 1282M524 1248L493 1284M524 1248L576 1322M584 1272L493 1284M584 1272L576 1322M690 1219L755 1253M690 1219L679 1301M755 1253L679 1301M755 1253L806 1285M871 1266L939 1263M871 1266L806 1285M871 1266L903 1323M871 1266L835 1365M939 1263L1002 1228M939 1263L903 1323M939 1263L966 1350M1002 1228L1093 1216M1093 1216L1167 1255M1167 1255L1219 1213M1167 1255L1234 1290M1219 1213L1315 1224M1219 1213L1234 1290M1315 1224L1392 1214M1315 1224L1234 1290M1392 1214L1494 1224M1392 1214L1465 1293M1494 1224L1560 1225M1494 1224L1465 1293M1560 1225L1604 1278M1604 1278L1567 1341M1604 1278L1638 1351M1604 1278L1623 1375M1744 1208L1828 1260M1744 1208L1748 1323M1744 1208L1766 1286M1828 1260L1865 1264M1828 1260L1748 1323M1828 1260L1766 1286M1865 1264L1960 1256M1865 1264L1766 1286M1865 1264L1873 1352M1960 1256L2036 1218M1960 1256L1969 1333M2036 1218L2126 1237M2126 1237L2229 1231M2229 1231L2305 1265M2305 1265L2384 1243M2305 1265L2313 1302M2384 1243L2420 1271M2384 1243L2313 1302M2420 1271L2512 1278M2420 1271L2376 1351M2420 1271L2471 1303M2512 1278L2471 1303M2512 1278L2529 1328M78 1341L103 1335M78 1341L-31 1328M78 1341L49 1434M78 1341L123 1418M2638 1341L2529 1328M103 1335L196 1311M103 1335L49 1434M103 1335L123 1418M196 1311L215 1390M280 1359L215 1390M280 1359L274 1406M280 1359L371 1417M395 1342L457 1282M395 1342L371 1417M395 1342L436 1434M457 1282L493 1284M493 1284L576 1322M576 1322L679 1301M576 1322L544 1398M679 1301L758 1351M679 1301L688 1410M758 1351L806 1285M758 1351L688 1410M758 1351L739 1397M758 1351L835 1365M806 1285L903 1323M806 1285L835 1365M903 1323L966 1350M903 1323L835 1365M966 1350L928 1434M966 1350L1004 1418M1110 1343L1120 1357M1110 1343L1109 1409M1120 1357L1109 1409M1120 1357L1176 1417M1234 1290L1317 1353M1317 1353L1366 1333M1317 1353L1265 1408M1317 1353L1330 1372M1317 1353L1378 1402M1366 1333L1465 1293M1366 1333L1330 1372M1366 1333L1378 1402M1465 1293L1464 1395M1567 1341L1638 1351M1567 1341L1464 1395M1567 1341L1539 1404M1567 1341L1623 1375M1638 1351L1539 1404M1638 1351L1623 1375M1748 1323L1766 1286M1748 1323L1726 1419M1748 1323L1823 1408M1873 1352L1969 1333M1873 1352L1823 1408M1873 1352L1875 1402M1873 1352L1938 1421M1969 1333L2030 1343M2030 1343L2082 1330M2030 1343L2042 1412M2225 1336L2313 1302M2225 1336L2230 1368M2225 1336L2301 1372M2313 1302L2376 1351M2313 1302L2301 1372M2376 1351L2301 1372M2376 1351L2375 1434M2471 1303L2529 1328M2471 1303L2526 1394M2529 1328L2526 1394M49 1434L123 1418M49 1434L-34 1394M2609 1434L2526 1394M123 1418L215 1390M215 1390L274 1406M274 1406L371 1417M371 1417L436 1434M436 1434L544 1398M544 1398L619 1434M619 1434L688 1410M688 1410L739 1397M739 1397L835 1365M928 1434L1004 1418M1004 1418L1109 1409M1109 1409L1176 1417M1176 1417L1265 1408M1265 1408L1330 1372M1330 1372L1378 1402M1378 1402L1464 1395M1464 1395L1539 1404M1539 1404L1623 1375M1823 1408L1875 1402M1875 1402L1938 1421M2042 1412L2124 1428M2124 1428L2230 1368M2230 1368L2301 1372M2301 1372L2375 1434M2375 1434L2462 1427M2462 1427L2526 1394"/></svg>