<svg xmlns="http://www.w3.org/2000/svg" width="2560" height="1440" fill="#fff"><circle cx="50" cy="6" r="6"/><circle cx="50" cy="1446" r="6"/><circle cx="101" cy="63" r="6"/><circle cx="229" cy="5" r="5"/><circle cx="229" cy="1445" r="5"/><circle cx="256" cy="33" r="5"/><circle cx="380" cy="42" r="4"/><circle cx="412" cy="22" r="6"/><circle cx="526" cy="8" r="4"/><circle cx="571" cy="1" r="5"/><circle cx="571" cy="1441" r="5"/><circle cx="688" cy="54" r="5"/><circle cx="792" cy="49" r="4"/><circle cx="873" cy="26" r="5"/><circle cx="953" cy="43" r="4"/><circle cx="1025" cy="57" r="5"/><circle cx="1113" cy="69" r="5"/><circle cx="1165" cy="22" r="6"/><circle cx="1243" cy="45" r="5"/><circle cx="1322" cy="21" r="5"/><circle cx="1408" cy="72" r="6"/><circle cx="1496" cy="67" r="5"/><circle cx="1551" cy="30" r="5"/><circle cx="1636" cy="48" r="4"/><circle cx="1705" cy="70" r="6"/><circle cx="1778" cy="37" r="4"/><circle cx="1895" cy="38" r="5"/><circle cx="1965" cy="46" r="6"/><circle cx="2077" cy="41" r="6"/><circle cx="2121" cy="26" r="4"/><circle cx="2162" cy="72" r="5"/><circle cx="2289" cy="46" r="4"/><circle cx="2349" cy="1" r="4"/><circle cx="2349" cy="1441" r="4"/><circle cx="2404" cy="29" r="5"/><circle cx="2483" cy="29" r="6"/><circle cx="41" cy="149" r="5"/><circle cx="120" cy="159" r="5"/><circle cx="196" cy="150" r="5"/><circle cx="310" cy="155" r="5"/><circle cx="369" cy="95" r="5"/><circle cx="473" cy="100" r="4"/><circle cx="538" cy="149" r="6"/><circle cx="618" cy="106" r="4"/><circle cx="679" cy="150" r="5"/><circle cx="768" cy="143" r="6"/><circle cx="829" cy="97" r="4"/><circle cx="923" cy="117" r="5"/><circle cx="979" cy="113" r="6"/><circle cx="1112" cy="137" r="5"/><circle cx="1168" cy="94" r="6"/><circle cx="1266" cy="137" r="5"/><circle cx="1349" cy="136" r="4"/><circle cx="1431" cy="151" r="6"/><circle cx="1461" cy="87" r="6"/><circle cx="1560" cy="118" r="5"/><circle cx="1679" cy="135" r="5"/><circle cx="1742" cy="157" r="5"/><circle cx="1825" cy="145" r="5"/><circle cx="1882" cy="153" r="5"/><circle cx="1981" cy="107" r="4"/><circle cx="2010" cy="137" r="5"/><circle cx="2099" cy="99" r="6"/><circle cx="2182" cy="141" r="5"/><circle cx="2272" cy="116" r="4"/><circle cx="2359" cy="128" r="5"/><circle cx="2431" cy="125" r="5"/><circle cx="2534" cy="106" r="5"/><circle cx="50" cy="205" r="4"/><circle cx="130" cy="187" r="5"/><circle cx="162" cy="194" r="5"/><circle cx="251" cy="174" r="4"/><circle cx="398" cy="180" r="5"/><circle cx="420" cy="196" r="6"/><circle cx="525" cy="162" r="6"/><circle cx="628" cy="195" r="5"/><circle cx="710" cy="178" r="5"/><circle cx="792" cy="233" r="5"/><circle cx="875" cy="215" r="5"/><circle cx="955" cy="201" r="6"/><circle cx="1034" cy="188" r="5"/><circle cx="1096" cy="183" r="5"/><circle cx="1120" cy="223" r="5"/><circle cx="1206" cy="215" r="5"/><circle cx="1280" cy="223" r="5"/><circle cx="1396" cy="232" r="4"/><circle cx="1477" cy="198" r="6"/><circle cx="1527" cy="227" r="5"/><circle cx="1668" cy="175" r="4"/><circle cx="1750" cy="230" r="4"/><circle cx="1817" cy="212" r="4"/><circle cx="1858" cy="216" r="5"/><circle cx="1958" cy="227" r="5"/><circle cx="2034" cy="192" r="5"/><circle cx="2090" cy="173" r="6"/><circle cx="2187" cy="173" r="4"/><circle cx="2292" cy="186" r="5"/><circle cx="2346" cy="196" r="5"/><circle cx="2472" cy="191" r="4"/><circle cx="2559" cy="202" r="5"/><circle cx="-1" cy="202" r="5"/><circle cx="68" cy="254" r="4"/><circle cx="113" cy="262" r="4"/><circle cx="231" cy="317" r="5"/><circle cx="288" cy="313" r="4"/><circle cx="392" cy="289" r="5"/><circle cx="416" cy="250" r="5"/><circle cx="494" cy="267" r="5"/><circle cx="597" cy="318" r="5"/><circle cx="709" cy="280" r="5"/><circle cx="799" cy="303" r="4"/><circle cx="801" cy="317" r="4"/><circle cx="887" cy="319" r="4"/><circle cx="1010" cy="304" r="5"/><circle cx="1083" cy="306" r="5"/><circle cx="1169" cy="292" r="6"/><circle cx="1215" cy="281" r="4"/><circle cx="1308" cy="274" r="6"/><circle cx="1363" cy="275" r="4"/><circle cx="1490" cy="307" r="4"/><circle cx="1523" cy="306" r="5"/><circle cx="1674" cy="296" r="5"/><circle cx="1715" cy="280" r="5"/><circle cx="1808" cy="249" r="5"/><circle cx="1890" cy="249" r="6"/><circle cx="1938" cy="273" r="5"/><circle cx="2033" cy="285" r="5"/><circle cx="2159" cy="248" r="5"/><circle cx="2177" cy="309" r="4"/><circle cx="2267" cy="277" r="5"/><circle cx="2329" cy="274" r="4"/><circle cx="2436" cy="269" r="6"/><circle cx="2520" cy="286" r="4"/><circle cx="21" cy="345" r="4"/><circle cx="96" cy="346" r="4"/><circle cx="187" cy="344" r="6"/><circle cx="287" cy="380" r="5"/><circle cx="368" cy="397" r="4"/><circle cx="460" cy="382" r="6"/><circle cx="498" cy="371" r="6"/><circle cx="637" cy="336" r="4"/><circle cx="705" cy="384" r="5"/><circle cx="794" cy="382" r="5"/><circle cx="816" cy="381" r="4"/><circle cx="885" cy="324" r="5"/><circle cx="1000" cy="328" r="4"/><circle cx="1075" cy="398" r="4"/><circle cx="1195" cy="351" r="5"/><circle cx="1229" cy="383" r="5"/><circle cx="1308" cy="361" r="5"/><circle cx="1376" cy="333" r="5"/><circle cx="1519" cy="333" r="5"/><circle cx="1555" cy="345" r="4"/><circle cx="1619" cy="334" r="5"/><circle cx="1693" cy="359" r="5"/><circle cx="1762" cy="351" r="5"/><circle cx="1854" cy="393" r="6"/><circle cx="1959" cy="368" r="5"/><circle cx="2032" cy="382" r="5"/><circle cx="2088" cy="332" r="5"/><circle cx="2211" cy="394" r="4"/><circle cx="2286" cy="355" r="5"/><circle cx="2381" cy="392" r="5"/><circle cx="2445" cy="398" r="4"/><circle cx="2538" cy="351" r="5"/><circle cx="33" cy="402" r="5"/><circle cx="87" cy="459" r="5"/><circle cx="208" cy="472" r="4"/><circle cx="311" cy="479" r="5"/><circle cx="356" cy="469" r="4"/><circle cx="462" cy="456" r="6"/><circle cx="544" cy="454" r="6"/><circle cx="565" cy="448" r="6"/><circle cx="695" cy="428" r="5"/><circle cx="783" cy="447" r="5"/><circle cx="873" cy="477" r="4"/><circle cx="896" cy="442" r="5"/><circle cx="983" cy="428" r="4"/><circle cx="1055" cy="444" r="6"/><circle cx="1184" cy="402" r="5"/><circle cx="1270" cy="458" r="4"/><circle cx="1317" cy="467" r="6"/><circle cx="1433" cy="451" r="5"/><circle cx="1496" cy="408" r="5"/><circle cx="1522" cy="437" r="5"/><circle cx="1640" cy="449" r="4"/><circle cx="1751" cy="452" r="4"/><circle cx="1830" cy="440" r="5"/><circle cx="1843" cy="436" r="4"/><circle cx="1922" cy="462" r="5"/><circle cx="2038" cy="426" r="5"/><circle cx="2118" cy="438" r="4"/><circle cx="2162" cy="467" r="4"/><circle cx="2298" cy="426" r="6"/><circle cx="2365" cy="465" r="5"/><circle cx="2478" cy="434" r="5"/><circle cx="2555" cy="455" r="4"/><circle cx="32" cy="487" r="4"/><circle cx="95" cy="513" r="5"/><circle cx="179" cy="524" r="5"/><circle cx="261" cy="547" r="4"/><circle cx="323" cy="533" r="5"/><circle cx="446" cy="485" r="6"/><circle cx="482" cy="541" r="4"/><circle cx="620" cy="515" r="4"/><circle cx="643" cy="498" r="5"/><circle cx="778" cy="529" r="5"/><circle cx="868" cy="557" r="5"/><circle cx="942" cy="551" r="4"/><circle cx="982" cy="541" r="6"/><circle cx="1102" cy="532" r="5"/><circle cx="1141" cy="550" r="5"/><circle cx="1210" cy="498" r="5"/><circle cx="1281" cy="524" r="4"/><circle cx="1417" cy="523" r="6"/><circle cx="1483" cy="546" r="6"/><circle cx="1568" cy="496" r="5"/><circle cx="1664" cy="538" r="5"/><circle cx="1704" cy="506" r="6"/><circle cx="1790" cy="511" r="4"/><circle cx="1919" cy="550" r="4"/><circle cx="1981" cy="500" r="5"/><circle cx="2054" cy="559" r="6"/><circle cx="2105" cy="494" r="5"/><circle cx="2180" cy="557" r="5"/><circle cx="2240" cy="547" r="6"/><circle cx="2387" cy="507" r="6"/><circle cx="2468" cy="548" r="5"/><circle cx="2559" cy="508" r="6"/><circle cx="-1" cy="508" r="6"/><circle cx="51" cy="602" r="5"/><circle cx="137" cy="574" r="5"/><circle cx="186" cy="629" r="5"/><circle cx="242" cy="576" r="4"/><circle cx="323" cy="634" r="4"/><circle cx="435" cy="567" r="6"/><circle cx="533" cy="639" r="6"/><circle cx="607" cy="576" r="6"/><circle cx="668" cy="580" r="6"/><circle cx="772" cy="581" r="6"/><circle cx="815" cy="624" r="6"/><circle cx="897" cy="628" r="5"/><circle cx="992" cy="630" r="4"/><circle cx="1119" cy="596" r="5"/><circle cx="1133" cy="632" r="5"/><circle cx="1251" cy="616" r="6"/><circle cx="1347" cy="626" r="5"/><circle cx="1430" cy="620" r="5"/><circle cx="1480" cy="576" r="6"/><circle cx="1529" cy="622" r="6"/><circle cx="1635" cy="563" r="4"/><circle cx="1730" cy="570" r="5"/><circle cx="1818" cy="592" r="5"/><circle cx="1905" cy="617" r="4"/><circle cx="1971" cy="591" r="4"/><circle cx="2063" cy="617" r="5"/><circle cx="2106" cy="626" r="5"/><circle cx="2218" cy="638" r="5"/><circle cx="2277" cy="610" r="6"/><circle cx="2389" cy="611" r="5"/><circle cx="2422" cy="616" r="4"/><circle cx="2543" cy="584" r="6"/><circle cx="36" cy="670" r="5"/><circle cx="145" cy="698" r="6"/><circle cx="161" cy="713" r="5"/><circle cx="320" cy="692" r="6"/><circle cx="398" cy="645" r="6"/><circle cx="433" cy="659" r="4"/><circle cx="543" cy="715" r="5"/><circle cx="605" cy="651" r="4"/><circle cx="680" cy="663" r="6"/><circle cx="748" cy="685" r="6"/><circle cx="804" cy="716" r="6"/><circle cx="883" cy="696" r="5"/><circle cx="987" cy="702" r="4"/><circle cx="1065" cy="713" r="6"/><circle cx="1173" cy="667" r="5"/><circle cx="1247" cy="643" r="5"/><circle cx="1308" cy="692" r="4"/><circle cx="1407" cy="702" r="5"/><circle cx="1492" cy="680" r="5"/><circle cx="1540" cy="647" r="5"/><circle cx="1639" cy="706" r="5"/><circle cx="1708" cy="695" r="5"/><circle cx="1791" cy="701" r="4"/><circle cx="1914" cy="678" r="5"/><circle cx="1937" cy="648" r="6"/><circle cx="2008" cy="668" r="5"/><circle cx="2093" cy="672" r="5"/><circle cx="2162" cy="690" r="6"/><circle cx="2264" cy="675" r="5"/><circle cx="2338" cy="707" r="6"/><circle cx="2426" cy="678" r="5"/><circle cx="2529" cy="684" r="6"/><circle cx="78" cy="785" r="5"/><circle cx="99" cy="741" r="4"/><circle cx="200" cy="742" r="5"/><circle cx="303" cy="765" r="5"/><circle cx="338" cy="749" r="5"/><circle cx="416" cy="754" r="5"/><circle cx="523" cy="777" r="6"/><circle cx="637" cy="765" r="5"/><circle cx="715" cy="731" r="4"/><circle cx="725" cy="731" r="4"/><circle cx="876" cy="800" r="5"/><circle cx="883" cy="745" r="5"/><circle cx="1000" cy="726" r="5"/><circle cx="1112" cy="757" r="6"/><circle cx="1128" cy="744" r="6"/><circle cx="1271" cy="735" r="4"/><circle cx="1322" cy="778" r="5"/><circle cx="1408" cy="763" r="5"/><circle cx="1462" cy="720" r="4"/><circle cx="1580" cy="732" r="5"/><circle cx="1603" cy="725" r="5"/><circle cx="1686" cy="761" r="4"/><circle cx="1809" cy="766" r="6"/><circle cx="1913" cy="774" r="5"/><circle cx="1965" cy="768" r="6"/><circle cx="2037" cy="774" r="4"/><circle cx="2117" cy="748" r="5"/><circle cx="2202" cy="795" r="5"/><circle cx="2308" cy="790" r="4"/><circle cx="2326" cy="782" r="6"/><circle cx="2465" cy="780" r="5"/><circle cx="2511" cy="751" r="5"/><circle cx="9" cy="828" r="4"/><circle cx="155" cy="820" r="5"/><circle cx="176" cy="828" r="5"/><circle cx="320" cy="872" r="5"/><circle cx="322" cy="858" r="5"/><circle cx="402" cy="851" r="5"/><circle cx="494" cy="831" r="6"/><circle cx="576" cy="825" r="5"/><circle cx="660" cy="864" r="5"/><circle cx="761" cy="827" r="4"/><circle cx="847" cy="837" r="4"/><circle cx="903" cy="866" r="6"/><circle cx="1028" cy="843" r="5"/><circle cx="1044" cy="829" r="6"/><circle cx="1121" cy="821" r="5"/><circle cx="1241" cy="839" r="5"/><circle cx="1334" cy="868" r="4"/><circle cx="1428" cy="826" r="5"/><circle cx="1513" cy="842" r="5"/><circle cx="1536" cy="863" r="5"/><circle cx="1662" cy="803" r="6"/><circle cx="1757" cy="865" r="4"/><circle cx="1808" cy="812" r="5"/><circle cx="1893" cy="870" r="6"/><circle cx="1944" cy="861" r="6"/><circle cx="2005" cy="822" r="4"/><circle cx="2153" cy="856" r="5"/><circle cx="2239" cy="808" r="5"/><circle cx="2254" cy="862" r="6"/><circle cx="2332" cy="804" r="5"/><circle cx="2429" cy="877" r="5"/><circle cx="2529" cy="818" r="4"/><circle cx="64" cy="928" r="4"/><circle cx="109" cy="915" r="5"/><circle cx="169" cy="917" r="4"/><circle cx="285" cy="887" r="4"/><circle cx="348" cy="914" r="5"/><circle cx="458" cy="909" r="6"/><circle cx="535" cy="942" r="5"/><circle cx="612" cy="938" r="5"/><circle cx="716" cy="918" r="5"/><circle cx="760" cy="918" r="5"/><circle cx="843" cy="914" r="5"/><circle cx="958" cy="892" r="6"/><circle cx="981" cy="895" r="5"/><circle cx="1049" cy="915" r="5"/><circle cx="1127" cy="953" r="6"/><circle cx="1226" cy="949" r="5"/><circle cx="1301" cy="919" r="5"/><circle cx="1417" cy="939" r="6"/><circle cx="1482" cy="937" r="6"/><circle cx="1559" cy="937" r="5"/><circle cx="1617" cy="897" r="5"/><circle cx="1757" cy="946" r="6"/><circle cx="1780" cy="938" r="5"/><circle cx="1906" cy="918" r="5"/><circle cx="1951" cy="920" r="5"/><circle cx="2023" cy="899" r="5"/><circle cx="2095" cy="903" r="5"/><circle cx="2184" cy="933" r="4"/><circle cx="2243" cy="942" r="6"/><circle cx="2360" cy="940" r="5"/><circle cx="2404" cy="960" r="4"/><circle cx="2481" cy="948" r="5"/><circle cx="79" cy="1023" r="5"/><circle cx="104" cy="977" r="6"/><circle cx="207" cy="984" r="5"/><circle cx="295" cy="965" r="5"/><circle cx="394" cy="1037" r="6"/><circle cx="416" cy="1014" r="5"/><circle cx="543" cy="983" r="5"/><circle cx="560" cy="1027" r="5"/><circle cx="679" cy="965" r="6"/><circle cx="781" cy="961" r="4"/><circle cx="845" cy="960" r="6"/><circle cx="906" cy="974" r="4"/><circle cx="1029" cy="1025" r="5"/><circle cx="1103" cy="978" r="6"/><circle cx="1183" cy="974" r="4"/><circle cx="1243" cy="977" r="5"/><circle cx="1352" cy="997" r="5"/><circle cx="1380" cy="1016" r="4"/><circle cx="1464" cy="980" r="6"/><circle cx="1583" cy="1021" r="6"/><circle cx="1647" cy="972" r="5"/><circle cx="1738" cy="963" r="6"/><circle cx="1837" cy="1022" r="5"/><circle cx="1897" cy="989" r="5"/><circle cx="1968" cy="1032" r="5"/><circle cx="2060" cy="972" r="6"/><circle cx="2144" cy="1005" r="5"/><circle cx="2191" cy="1033" r="4"/><circle cx="2258" cy="977" r="4"/><circle cx="2361" cy="991" r="5"/><circle cx="2459" cy="993" r="6"/><circle cx="2557" cy="967" r="4"/><circle cx="-3" cy="967" r="4"/><circle cx="39" cy="1105" r="5"/><circle cx="124" cy="1118" r="5"/><circle cx="207" cy="1048" r="4"/><circle cx="282" cy="1063" r="6"/><circle cx="392" cy="1110" r="5"/><circle cx="407" cy="1105" r="5"/><circle cx="491" cy="1116" r="6"/><circle cx="636" cy="1082" r="6"/><circle cx="673" cy="1087" r="5"/><circle cx="739" cy="1067" r="5"/><circle cx="845" cy="1083" r="6"/><circle cx="909" cy="1096" r="4"/><circle cx="1038" cy="1075" r="5"/><circle cx="1090" cy="1058" r="6"/><circle cx="1145" cy="1041" r="4"/><circle cx="1255" cy="1110" r="6"/><circle cx="1307" cy="1063" r="5"/><circle cx="1379" cy="1100" r="4"/><circle cx="1482" cy="1095" r="6"/><circle cx="1552" cy="1109" r="5"/><circle cx="1613" cy="1073" r="5"/><circle cx="1711" cy="1076" r="5"/><circle cx="1775" cy="1089" r="4"/><circle cx="1846" cy="1115" r="4"/><circle cx="1940" cy="1105" r="4"/><circle cx="2010" cy="1082" r="4"/><circle cx="2081" cy="1045" r="5"/><circle cx="2184" cy="1056" r="5"/><circle cx="2318" cy="1095" r="6"/><circle cx="2370" cy="1073" r="5"/><circle cx="2428" cy="1103" r="5"/><circle cx="2493" cy="1071" r="5"/><circle cx="26" cy="1177" r="5"/><circle cx="128" cy="1139" r="4"/><circle cx="167" cy="1170" r="5"/><circle cx="313" cy="1127" r="4"/><circle cx="369" cy="1140" r="6"/><circle cx="405" cy="1132" r="6"/><circle cx="527" cy="1130" r="6"/><circle cx="595" cy="1158" r="4"/><circle cx="707" cy="1139" r="6"/><circle cx="800" cy="1197" r="6"/><circle cx="843" cy="1130" r="5"/><circle cx="890" cy="1191" r="5"/><circle cx="979" cy="1147" r="6"/><circle cx="1082" cy="1145" r="5"/><circle cx="1146" cy="1156" r="6"/><circle cx="1252" cy="1148" r="6"/><circle cx="1356" cy="1121" r="5"/><circle cx="1365" cy="1177" r="5"/><circle cx="1520" cy="1145" r="4"/><circle cx="1555" cy="1173" r="6"/><circle cx="1625" cy="1154" r="4"/><circle cx="1746" cy="1176" r="6"/><circle cx="1775" cy="1142" r="6"/><circle cx="1875" cy="1130" r="6"/><circle cx="1954" cy="1183" r="4"/><circle cx="2040" cy="1186" r="5"/><circle cx="2116" cy="1183" r="4"/><circle cx="2226" cy="1162" r="6"/><circle cx="2260" cy="1166" r="4"/><circle cx="2325" cy="1183" r="5"/><circle cx="2412" cy="1122" r="5"/><circle cx="2485" cy="1141" r="6"/><circle cx="46" cy="1240" r="6"/><circle cx="118" cy="1262" r="4"/><circle cx="224" cy="1216" r="6"/><circle cx="286" cy="1240" r="4"/><circle cx="326" cy="1217" r="6"/><circle cx="403" cy="1272" r="5"/><circle cx="520" cy="1252" r="5"/><circle cx="619" cy="1272" r="6"/><circle cx="679" cy="1260" r="5"/><circle cx="735" cy="1201" r="5"/><circle cx="813" cy="1208" r="4"/><circle cx="936" cy="1238" r="6"/><circle cx="1025" cy="1223" r="6"/><circle cx="1059" cy="1237" r="5"/><circle cx="1154" cy="1267" r="4"/><circle cx="1203" cy="1271" r="4"/><circle cx="1303" cy="1252" r="5"/><circle cx="1435" cy="1277" r="5"/><circle cx="1460" cy="1209" r="6"/><circle cx="1578" cy="1203" r="6"/><circle cx="1625" cy="1211" r="5"/><circle cx="1752" cy="1202" r="5"/><circle cx="1776" cy="1277" r="5"/><circle cx="1871" cy="1200" r="4"/><circle cx="1935" cy="1260" r="4"/><circle cx="2071" cy="1233" r="5"/><circle cx="2089" cy="1249" r="6"/><circle cx="2196" cy="1255" r="5"/><circle cx="2255" cy="1252" r="4"/><circle cx="2378" cy="1224" r="6"/><circle cx="2420" cy="1257" r="5"/><circle cx="2551" cy="1272" r="5"/><circle cx="28" cy="1337" r="5"/><circle cx="108" cy="1282" r="5"/><circle cx="239" cy="1310" r="6"/><circle cx="272" cy="1318" r="4"/><circle cx="377" cy="1329" r="4"/><circle cx="441" cy="1295" r="5"/><circle cx="500" cy="1357" r="5"/><circle cx="582" cy="1297" r="4"/><circle cx="700" cy="1360" r="5"/><circle cx="726" cy="1281" r="4"/><circle cx="860" cy="1316" r="4"/><circle cx="944" cy="1290" r="4"/><circle cx="1025" cy="1357" r="5"/><circle cx="1050" cy="1337" r="4"/><circle cx="1160" cy="1341" r="5"/><circle cx="1230" cy="1357" r="6"/><circle cx="1354" cy="1308" r="5"/><circle cx="1400" cy="1320" r="5"/><circle cx="1513" cy="1343" r="5"/><circle cx="1534" cy="1296" r="5"/><circle cx="1602" cy="1326" r="5"/><circle cx="1734" cy="1339" r="5"/><circle cx="1781" cy="1302" r="6"/><circle cx="1887" cy="1335" r="5"/><circle cx="1973" cy="1345" r="5"/><circle cx="2017" cy="1325" r="4"/><circle cx="2129" cy="1352" r="5"/><circle cx="2222" cy="1338" r="5"/><circle cx="2261" cy="1339" r="5"/><circle cx="2352" cy="1298" r="6"/><circle cx="2423" cy="1330" r="5"/><circle cx="2505" cy="1302" r="5"/><circle cx="52" cy="1393" r="4"/><circle cx="133" cy="1401" r="6"/><circle cx="164" cy="1423" r="6"/><circle cx="273" cy="1436" r="6"/><circle cx="273" cy="-4" r="6"/><circle cx="366" cy="1382" r="5"/><circle cx="466" cy="1418" r="4"/><circle cx="514" cy="1431" r="4"/><circle cx="584" cy="1405" r="5"/><circle cx="710" cy="1417" r="4"/><circle cx="739" cy="1404" r="6"/><circle cx="838" cy="1408" r="5"/><circle cx="905" cy="1414" r="5"/><circle cx="1018" cy="1426" r="5"/><circle cx="1112" cy="1402" r="5"/><circle cx="1198" cy="1381" r="4"/><circle cx="1225" cy="1390" r="5"/><circle cx="1358" cy="1404" r="4"/><circle cx="1361" cy="1437" r="5"/><circle cx="1361" cy="-3" r="5"/><circle cx="1447" cy="1426" r="5"/><circle cx="1561" cy="1412" r="6"/><circle cx="1609" cy="1372" r="5"/><circle cx="1693" cy="1364" r="6"/><circle cx="1769" cy="1400" r="5"/><circle cx="1900" cy="1376" r="5"/><circle cx="1956" cy="1436" r="5"/><circle cx="1956" cy="-4" r="5"/><circle cx="2036" cy="1421" r="6"/><circle cx="2128" cy="1408" r="4"/><circle cx="2171" cy="1372" r="5"/><circle cx="2259" cy="1369" r="6"/><circle cx="2333" cy="1365" r="5"/><circle cx="2406" cy="1431" r="5"/><circle cx="2530" cy="1419" r="6"/><path stroke="#fff" d="M50 6L101 63M50 6L52 -47M50 6L133 -39M50 6L-30 -21M2610 6L2530 -21M50 1446L52 1393M50 1446L133 1401M50 1446L-30 1419M2610 1446L2530 1419M101 63L133 -39M101 63L164 -17M101 1503L133 1401M101 1503L164 1423M229 5L256 33M229 5L133 -39M229 5L164 -17M229 5L273 -4M229 1445L133 1401M229 1445L164 1423M229 1445L273 1436M256 33L164 -17M256 33L273 -4M256 1473L164 1423M256 1473L273 1436M380 42L412 22M380 42L369 95M380 42L366 -58M380 1482L366 1382M412 22L369 95M412 22L473 100M412 22L366 -58M412 22L466 -22M412 1462L366 1382M412 1462L466 1418M526 8L571 1M526 8L500 -83M526 8L466 -22M526 8L514 -9M526 8L584 -35M526 1448L500 1357M526 1448L466 1418M526 1448L514 1431M526 1448L584 1405M571 1L466 -22M571 1L514 -9M571 1L584 -35M571 1441L466 1418M571 1441L514 1431M571 1441L584 1405M688 54L618 106M688 54L679 150M688 54L710 -23M688 54L739 -36M688 1494L710 1417M688 1494L739 1404M792 49L873 26M792 49L768 143M792 49L829 97M792 49L739 -36M792 49L838 -32M792 1489L739 1404M792 1489L838 1408M873 26L953 43M873 26L829 97M873 26L838 -32M873 26L905 -26M873 1466L838 1408M873 1466L905 1414M953 43L1025 57M953 43L923 117M953 43L979 113M953 43L905 -26M953 1483L905 1414M1025 57L1113 69M1025 57L979 113M1025 57L1018 -14M1025 1497L1018 1426M1113 69L1165 22M1113 69L1112 137M1113 69L1168 94M1165 22L1243 45M1165 22L1168 94M1165 22L1112 -38M1165 22L1225 -50M1165 1462L1112 1402M1165 1462L1225 1390M1243 45L1322 21M1243 45L1168 94M1243 45L1266 137M1243 45L1225 -50M1243 1485L1225 1390M1322 21L1358 -36M1322 21L1361 -3M1322 1461L1358 1404M1322 1461L1361 1437M1408 72L1496 67M1408 72L1349 136M1408 72L1431 151M1408 72L1461 87M1408 72L1361 -3M1408 1512L1361 1437M1496 67L1551 30M1496 67L1461 87M1496 67L1560 118M1496 67L1447 -14M1496 1507L1447 1426M1551 30L1636 48M1551 30L1560 118M1551 30L1561 -28M1551 1470L1561 1412M1636 48L1705 70M1636 48L1560 118M1636 48L1679 135M1705 70L1778 37M1705 70L1679 135M1705 70L1742 157M1705 70L1668 175M1778 37L1769 -40M1778 1477L1769 1400M1895 38L1965 46M1895 38L1981 107M1895 38L1900 -64M1895 38L1956 -4M1895 1478L1900 1376M1895 1478L1956 1436M1965 46L1981 107M1965 46L2010 137M1965 46L1956 -4M1965 46L2036 -19M1965 1486L1956 1436M1965 1486L2036 1421M2077 41L2121 26M2077 41L2162 72M2077 41L2099 99M2077 41L2036 -19M2077 41L2128 -32M2077 1481L2036 1421M2077 1481L2128 1408M2121 26L2162 72M2121 26L2099 99M2121 26L2128 -32M2121 1466L2128 1408M2162 72L2099 99M2162 72L2182 141M2162 72L2187 173M2289 46L2349 1M2289 46L2272 116M2349 1L2404 29M2349 1L2259 -71M2349 1L2333 -75M2349 1L2406 -9M2349 1441L2259 1369M2349 1441L2333 1365M2349 1441L2406 1431M2404 29L2483 29M2404 29L2359 128M2404 29L2431 125M2404 29L2406 -9M2404 1469L2406 1431M2483 29L2431 125M2483 29L2534 106M2483 29L2406 -9M2483 29L2530 -21M2483 1469L2406 1431M2483 1469L2530 1419M41 149L120 159M41 149L-26 106M41 149L50 205M41 149L-1 202M2601 149L2534 106M2601 149L2559 202M120 159L196 150M120 159L50 205M120 159L130 187M120 159L162 194M196 150L310 155M196 150L130 187M196 150L162 194M196 150L251 174M310 155L369 95M310 155L251 174M310 155L398 180M369 95L398 180M473 100L538 149M473 100L525 162M538 149L618 106M538 149L525 162M538 149L628 195M618 106L679 150M618 106L628 195M679 150L768 143M679 150L628 195M679 150L710 178M768 143L829 97M768 143L710 178M768 143L792 233M829 97L923 117M923 117L979 113M923 117L875 215M923 117L955 201M979 113L955 201M979 113L1034 188M1112 137L1168 94M1112 137L1034 188M1112 137L1096 183M1112 137L1120 223M1168 94L1266 137M1266 137L1349 136M1266 137L1206 215M1266 137L1280 223M1349 136L1431 151M1431 151L1461 87M1431 151L1396 232M1431 151L1477 198M1461 87L1560 118M1461 87L1447 -14M1461 1527L1447 1426M1560 118L1477 198M1679 135L1742 157M1679 135L1668 175M1742 157L1825 145M1742 157L1668 175M1742 157L1750 230M1825 145L1882 153M1825 145L1817 212M1825 145L1858 216M1882 153L1858 216M1882 153L1958 227M1981 107L2010 137M1981 107L2034 192M2010 137L2099 99M2010 137L2034 192M2010 137L2090 173M2099 99L2090 173M2182 141L2272 116M2182 141L2090 173M2182 141L2187 173M2272 116L2359 128M2272 116L2292 186M2359 128L2431 125M2359 128L2292 186M2359 128L2346 196M2431 125L2534 106M2431 125L2472 191M2534 106L2472 191M2534 106L2559 202M50 205L130 187M50 205L-1 202M50 205L68 254M2610 205L2559 202M130 187L162 194M130 187L113 262M162 194L251 174M162 194L113 262M398 180L420 196M398 180L392 289M398 180L416 250M420 196L525 162M420 196L392 289M420 196L416 250M420 196L494 267M525 162L628 195M525 162L494 267M628 195L710 178M710 178L709 280M792 233L875 215M792 233L709 280M792 233L799 303M792 233L801 317M875 215L955 201M875 215L887 319M875 215L885 324M955 201L1034 188M955 201L1010 304M1034 188L1096 183M1096 183L1120 223M1120 223L1206 215M1120 223L1083 306M1120 223L1169 292M1206 215L1280 223M1206 215L1169 292M1206 215L1215 281M1280 223L1215 281M1280 223L1308 274M1280 223L1363 275M1396 232L1477 198M1396 232L1308 274M1396 232L1363 275M1396 232L1376 333M1477 198L1527 227M1527 227L1490 307M1527 227L1523 306M1750 230L1817 212M1750 230L1674 296M1750 230L1715 280M1750 230L1808 249M1817 212L1858 216M1817 212L1808 249M1817 212L1890 249M1858 216L1808 249M1858 216L1890 249M1958 227L2034 192M1958 227L1890 249M1958 227L1938 273M1958 227L2033 285M2034 192L2090 173M2034 192L2033 285M2090 173L2159 248M2187 173L2159 248M2292 186L2346 196M2292 186L2267 277M2292 186L2329 274M2346 196L2267 277M2346 196L2329 274M2346 196L2436 269M2472 191L2559 202M2472 191L2436 269M2472 191L2520 286M2559 202L2628 254M-1 202L68 254M68 254L113 262M68 254L21 345M68 254L96 346M113 262L96 346M113 262L187 344M231 317L288 313M231 317L187 344M231 317L287 380M288 313L187 344M288 313L287 380M392 289L416 250M392 289L494 267M416 250L494 267M494 267L498 371M597 318L637 336M709 280L637 336M709 280L705 384M799 303L801 317M799 303L794 382M799 303L816 381M799 303L885 324M801 317L794 382M801 317L816 381M801 317L885 324M887 319L885 324M1010 304L1083 306M1010 304L1000 328M1010 304L1075 398M1083 306L1169 292M1083 306L1000 328M1083 306L1075 398M1169 292L1215 281M1169 292L1195 351M1215 281L1195 351M1308 274L1363 275M1308 274L1308 361M1308 274L1376 333M1363 275L1376 333M1490 307L1523 306M1490 307L1519 333M1490 307L1555 345M1523 306L1519 333M1523 306L1555 345M1523 306L1496 408M1674 296L1715 280M1674 296L1619 334M1674 296L1693 359M1674 296L1762 351M1715 280L1808 249M1715 280L1693 359M1715 280L1762 351M1808 249L1890 249M1890 249L1938 273M1938 273L2033 285M1938 273L1959 368M2033 285L2032 382M2033 285L2088 332M2159 248L2177 309M2159 248L2088 332M2177 309L2267 277M2177 309L2088 332M2177 309L2211 394M2267 277L2329 274M2267 277L2286 355M2329 274L2436 269M2329 274L2286 355M2436 269L2520 286M2520 286L2581 345M2520 286L2538 351M-40 286L21 345M21 345L96 346M21 345L-22 351M21 345L33 402M2581 345L2538 351M96 346L187 344M187 344L287 380M287 380L368 397M287 380L311 479M368 397L460 382M368 397L311 479M368 397L356 469M460 382L498 371M460 382L462 456M460 382L446 485M498 371L462 456M498 371L544 454M498 371L565 448M637 336L705 384M637 336L695 428M705 384L794 382M705 384L695 428M705 384L783 447M794 382L816 381M794 382L783 447M816 381L885 324M816 381L783 447M1000 328L983 428M1075 398L983 428M1075 398L1055 444M1075 398L1184 402M1195 351L1229 383M1195 351L1184 402M1229 383L1308 361M1229 383L1184 402M1229 383L1270 458M1308 361L1376 333M1308 361L1317 467M1519 333L1555 345M1519 333L1496 408M1519 333L1522 437M1555 345L1619 334M1555 345L1496 408M1619 334L1693 359M1693 359L1762 351M1693 359L1640 449M1762 351L1854 393M1762 351L1751 452M1854 393L1959 368M1854 393L1830 440M1854 393L1843 436M1854 393L1922 462M1959 368L2032 382M1959 368L2038 426M2032 382L2088 332M2032 382L2038 426M2032 382L2118 438M2211 394L2286 355M2211 394L2118 438M2211 394L2162 467M2211 394L2298 426M2286 355L2381 392M2286 355L2298 426M2381 392L2445 398M2381 392L2298 426M2381 392L2365 465M2381 392L2478 434M2445 398L2365 465M2445 398L2478 434M2538 351L2593 402M2538 351L2478 434M-22 351L33 402M33 402L87 459M33 402L-5 455M33 402L32 487M2593 402L2555 455M87 459L-5 455M87 459L32 487M87 459L95 513M87 459L-1 508M2647 459L2555 455M2647 459L2559 508M208 472L179 524M208 472L261 547M311 479L356 469M311 479L261 547M311 479L323 533M356 469L323 533M462 456L544 454M462 456L446 485M462 456L482 541M544 454L565 448M544 454L446 485M544 454L620 515M565 448L620 515M565 448L643 498M695 428L783 447M695 428L643 498M783 447L778 529M873 477L896 442M873 477L868 557M873 477L942 551M896 442L983 428M983 428L1055 444M983 428L982 541M1055 444L982 541M1055 444L1102 532M1184 402L1270 458M1184 402L1210 498M1270 458L1317 467M1270 458L1210 498M1270 458L1281 524M1317 467L1210 498M1317 467L1281 524M1317 467L1417 523M1433 451L1496 408M1433 451L1522 437M1433 451L1417 523M1496 408L1522 437M1522 437L1568 496M1640 449L1568 496M1640 449L1664 538M1640 449L1704 506M1751 452L1830 440M1751 452L1843 436M1751 452L1704 506M1751 452L1790 511M1830 440L1843 436M1830 440L1922 462M1830 440L1790 511M1843 436L1922 462M1922 462L1919 550M1922 462L1981 500M2038 426L2118 438M2038 426L1981 500M2038 426L2105 494M2118 438L2162 467M2118 438L2105 494M2162 467L2105 494M2162 467L2180 557M2162 467L2240 547M2298 426L2365 465M2298 426L2387 507M2365 465L2387 507M2478 434L2555 455M2555 455L2592 487M2555 455L2559 508M-5 455L32 487M32 487L95 513M32 487L-1 508M2592 487L2559 508M95 513L179 524M95 513L-1 508M95 513L137 574M2655 513L2559 508M179 524L261 547M179 524L137 574M179 524L242 576M261 547L323 533M261 547L242 576M323 533L242 576M323 533L323 634M446 485L482 541M446 485L435 567M482 541L435 567M620 515L643 498M620 515L607 576M620 515L668 580M643 498L607 576M643 498L668 580M778 529L772 581M868 557L942 551M868 557L772 581M868 557L815 624M868 557L897 628M942 551L982 541M942 551L897 628M982 541L992 630M1102 532L1141 550M1102 532L1119 596M1141 550L1210 498M1141 550L1119 596M1141 550L1133 632M1210 498L1281 524M1281 524L1251 616M1417 523L1483 546M1417 523L1480 576M1483 546L1568 496M1483 546L1430 620M1483 546L1480 576M1483 546L1529 622M1568 496L1664 538M1568 496L1635 563M1664 538L1704 506M1664 538L1635 563M1664 538L1730 570M1704 506L1790 511M1704 506L1730 570M1790 511L1730 570M1790 511L1818 592M1919 550L1981 500M1919 550L1905 617M1919 550L1971 591M1919 550L1937 648M1981 500L2054 559M2054 559L2105 494M2054 559L1971 591M2054 559L2063 617M2054 559L2106 626M2105 494L2180 557M2180 557L2240 547M2180 557L2106 626M2180 557L2218 638M2240 547L2218 638M2240 547L2277 610M2387 507L2468 548M2387 507L2389 611M2387 507L2422 616M2468 548L2422 616M2468 548L2543 584M2559 508L2543 584M51 602L137 574M51 602L-17 584M51 602L36 670M2611 602L2543 584M137 574L186 629M186 629L242 576M186 629L145 698M186 629L161 713M242 576L323 634M323 634L320 692M323 634L398 645M435 567L533 639M435 567L398 645M435 567L433 659M533 639L607 576M533 639L433 659M533 639L543 715M533 639L605 651M607 576L668 580M607 576L605 651M668 580L772 581M668 580L680 663M772 581L815 624M815 624L897 628M815 624L748 685M815 624L804 716M897 628L992 630M897 628L883 696M992 630L987 702M992 630L1000 726M1119 596L1133 632M1119 596L1173 667M1133 632L1065 713M1133 632L1173 667M1133 632L1128 744M1251 616L1347 626M1251 616L1173 667M1251 616L1247 643M1251 616L1308 692M1347 626L1430 620M1347 626L1247 643M1347 626L1308 692M1347 626L1407 702M1430 620L1480 576M1430 620L1407 702M1430 620L1492 680M1480 576L1529 622M1480 576L1540 647M1529 622L1492 680M1529 622L1540 647M1529 622L1580 732M1635 563L1730 570M1730 570L1818 592M1818 592L1905 617M1818 592L1791 701M1905 617L1971 591M1905 617L1914 678M1905 617L1937 648M1971 591L1937 648M1971 591L2008 668M2063 617L2106 626M2063 617L2008 668M2063 617L2093 672M2106 626L2093 672M2106 626L2162 690M2218 638L2277 610M2218 638L2162 690M2218 638L2264 675M2277 610L2389 611M2277 610L2264 675M2389 611L2422 616M2389 611L2426 678M2422 616L2426 678M2543 584L2596 670M2543 584L2529 684M-17 584L36 670M36 670L-31 684M36 670L99 741M2596 670L2529 684M145 698L161 713M145 698L78 785M145 698L99 741M145 698L200 742M161 713L99 741M161 713L200 742M320 692L398 645M320 692L303 765M320 692L338 749M398 645L433 659M398 645L416 754M543 715L605 651M543 715L523 777M543 715L637 765M543 715L576 825M605 651L680 663M680 663L748 685M680 663L715 731M680 663L725 731M748 685L804 716M748 685L715 731M748 685L725 731M804 716L883 696M804 716L725 731M804 716L883 745M883 696L987 702M883 696L876 800M883 696L883 745M987 702L1065 713M987 702L1000 726M1065 713L1000 726M1065 713L1112 757M1065 713L1128 744M1173 667L1247 643M1173 667L1128 744M1247 643L1308 692M1247 643L1271 735M1308 692L1271 735M1308 692L1322 778M1407 702L1492 680M1407 702L1408 763M1407 702L1462 720M1492 680L1540 647M1492 680L1462 720M1540 647L1580 732M1540 647L1603 725M1639 706L1708 695M1639 706L1580 732M1639 706L1603 725M1639 706L1686 761M1639 706L1662 803M1708 695L1791 701M1708 695L1686 761M1791 701L1809 766M1791 701L1808 812M1914 678L1937 648M1914 678L2008 668M1914 678L1913 774M1914 678L1965 768M1937 648L2008 668M2008 668L2093 672M2093 672L2162 690M2093 672L2117 748M2162 690L2264 675M2162 690L2117 748M2264 675L2338 707M2338 707L2426 678M2338 707L2308 790M2338 707L2326 782M2338 707L2332 804M2426 678L2529 684M2426 678L2465 780M2529 684L2465 780M2529 684L2511 751M78 785L99 741M78 785L9 828M78 785L155 820M78 785L176 828M99 741L155 820M200 742L303 765M200 742L155 820M200 742L176 828M303 765L338 749M303 765L322 858M338 749L416 754M416 754L523 777M416 754L494 831M523 777L494 831M523 777L576 825M637 765L715 731M637 765L725 731M637 765L576 825M637 765L660 864M715 731L725 731M715 731L761 827M876 800L883 745M876 800L847 837M876 800L903 866M883 745L847 837M1112 757L1128 744M1112 757L1044 829M1112 757L1121 821M1128 744L1121 821M1271 735L1322 778M1271 735L1241 839M1322 778L1408 763M1322 778L1241 839M1322 778L1334 868M1408 763L1462 720M1408 763L1428 826M1580 732L1603 725M1580 732L1662 803M1603 725L1686 761M1603 725L1662 803M1686 761L1662 803M1809 766L1913 774M1809 766L1757 865M1809 766L1808 812M1913 774L1965 768M1913 774L1893 870M1965 768L2037 774M1965 768L2005 822M2037 774L2117 748M2037 774L2005 822M2117 748L2202 795M2202 795L2153 856M2202 795L2239 808M2202 795L2254 862M2308 790L2326 782M2308 790L2239 808M2308 790L2254 862M2308 790L2332 804M2326 782L2239 808M2326 782L2254 862M2326 782L2332 804M2465 780L2511 751M2465 780L2429 877M2465 780L2529 818M2511 751L2569 828M2511 751L2529 818M-49 751L9 828M9 828L-31 818M2569 828L2529 818M155 820L176 828M155 820L169 917M176 828L109 915M176 828L169 917M320 872L322 858M320 872L402 851M320 872L285 887M320 872L348 914M320 872L295 965M322 858L402 851M322 858L285 887M322 858L348 914M402 851L494 831M402 851L348 914M402 851L458 909M494 831L576 825M494 831L458 909M576 825L660 864M660 864L612 938M660 864L716 918M660 864L679 965M761 827L847 837M761 827L716 918M847 837L903 866M847 837L843 914M903 866L843 914M903 866L958 892M903 866L981 895M1028 843L1044 829M1028 843L1121 821M1028 843L958 892M1028 843L981 895M1028 843L1049 915M1044 829L1121 821M1044 829L981 895M1044 829L1049 915M1241 839L1334 868M1241 839L1301 919M1334 868L1428 826M1334 868L1301 919M1428 826L1513 842M1428 826L1536 863M1428 826L1417 939M1513 842L1536 863M1513 842L1482 937M1536 863L1482 937M1536 863L1559 937M1536 863L1617 897M1662 803L1617 897M1757 865L1808 812M1757 865L1757 946M1757 865L1780 938M1757 865L1738 963M1808 812L1893 870M1893 870L1944 861M1893 870L1906 918M1893 870L1951 920M1944 861L2005 822M1944 861L1906 918M1944 861L1951 920M1944 861L2023 899M2005 822L2023 899M2153 856L2239 808M2153 856L2095 903M2153 856L2184 933M2239 808L2254 862M2254 862L2243 942M2429 877L2360 940M2429 877L2404 960M2429 877L2481 948M64 928L109 915M64 928L79 1023M64 928L104 977M64 928L-3 967M2624 928L2557 967M109 915L169 917M109 915L104 977M169 917L104 977M169 917L207 984M285 887L348 914M285 887L295 965M348 914L295 965M458 909L535 942M458 909L416 1014M458 909L543 983M535 942L612 938M535 942L543 983M535 942L560 1027M612 938L543 983M612 938L560 1027M612 938L679 965M716 918L760 918M716 918L679 965M716 918L781 961M760 918L843 914M760 918L679 965M760 918L781 961M760 918L845 960M843 914L781 961M843 914L845 960M958 892L981 895M958 892L906 974M981 895L1049 915M1049 915L1127 953M1049 915L1103 978M1127 953L1226 949M1127 953L1103 978M1127 953L1183 974M1127 953L1145 1041M1226 949L1301 919M1226 949L1183 974M1226 949L1243 977M1301 919L1243 977M1301 919L1352 997M1417 939L1482 937M1417 939L1352 997M1417 939L1380 1016M1417 939L1464 980M1482 937L1559 937M1482 937L1464 980M1559 937L1617 897M1559 937L1583 1021M1559 937L1647 972M1617 897L1647 972M1757 946L1780 938M1757 946L1647 972M1757 946L1738 963M1757 946L1837 1022M1780 938L1738 963M1780 938L1837 1022M1780 938L1897 989M1906 918L1951 920M1906 918L1897 989M1951 920L2023 899M1951 920L1897 989M2023 899L2095 903M2023 899L2060 972M2095 903L2184 933M2095 903L2060 972M2184 933L2243 942M2184 933L2144 1005M2184 933L2258 977M2243 942L2191 1033M2243 942L2258 977M2360 940L2404 960M2360 940L2258 977M2360 940L2361 991M2404 960L2481 948M2404 960L2361 991M2404 960L2459 993M2481 948L2459 993M2481 948L2557 967M79 1023L104 977M79 1023L-3 967M79 1023L39 1105M79 1023L124 1118M2639 1023L2557 967M104 977L207 984M207 984L295 965M207 984L207 1048M207 984L282 1063M295 965L282 1063M394 1037L416 1014M394 1037L392 1110M394 1037L407 1105M394 1037L405 1132M543 983L560 1027M560 1027L636 1082M560 1027L527 1130M679 965L781 961M781 961L845 960M845 960L906 974M845 960L845 1083M1029 1025L1038 1075M1029 1025L1090 1058M1103 978L1183 974M1103 978L1090 1058M1103 978L1145 1041M1183 974L1243 977M1183 974L1145 1041M1352 997L1380 1016M1352 997L1464 980M1352 997L1307 1063M1380 1016L1464 980M1380 1016L1307 1063M1380 1016L1379 1100M1464 980L1482 1095M1583 1021L1647 972M1583 1021L1552 1109M1583 1021L1613 1073M1647 972L1738 963M1837 1022L1897 989M1837 1022L1775 1089M1837 1022L1846 1115M1897 989L1968 1032M1968 1032L2060 972M1968 1032L1940 1105M1968 1032L2010 1082M1968 1032L2081 1045M2060 972L2144 1005M2060 972L2081 1045M2144 1005L2191 1033M2144 1005L2081 1045M2144 1005L2184 1056M2191 1033L2258 977M2191 1033L2184 1056M2361 991L2459 993M2361 991L2370 1073M2459 993L2557 967M2459 993L2493 1071M2557 967L2493 1071M39 1105L124 1118M39 1105L26 1177M39 1105L128 1139M39 1105L-75 1141M2599 1105L2485 1141M124 1118L207 1048M124 1118L128 1139M124 1118L167 1170M207 1048L282 1063M282 1063L313 1127M392 1110L407 1105M392 1110L313 1127M392 1110L369 1140M392 1110L405 1132M407 1105L491 1116M407 1105L369 1140M407 1105L405 1132M491 1116L405 1132M491 1116L527 1130M491 1116L595 1158M636 1082L673 1087M636 1082L739 1067M636 1082L595 1158M636 1082L707 1139M673 1087L739 1067M673 1087L595 1158M673 1087L707 1139M739 1067L845 1083M739 1067L707 1139M845 1083L909 1096M845 1083L843 1130M909 1096L843 1130M909 1096L979 1147M1038 1075L1090 1058M1038 1075L1145 1041M1038 1075L979 1147M1038 1075L1082 1145M1090 1058L1145 1041M1090 1058L1082 1145M1255 1110L1307 1063M1255 1110L1146 1156M1255 1110L1252 1148M1255 1110L1356 1121M1307 1063L1379 1100M1307 1063L1356 1121M1379 1100L1356 1121M1379 1100L1365 1177M1482 1095L1552 1109M1482 1095L1520 1145M1482 1095L1460 1209M1552 1109L1613 1073M1552 1109L1520 1145M1552 1109L1555 1173M1613 1073L1711 1076M1613 1073L1625 1154M1711 1076L1775 1089M1711 1076L1746 1176M1775 1089L1846 1115M1775 1089L1746 1176M1775 1089L1775 1142M1846 1115L1775 1142M1846 1115L1875 1130M1846 1115L1871 1200M1940 1105L2010 1082M1940 1105L1875 1130M1940 1105L1954 1183M2010 1082L2081 1045M2010 1082L2040 1186M2081 1045L2184 1056M2318 1095L2370 1073M2318 1095L2226 1162M2318 1095L2260 1166M2318 1095L2325 1183M2318 1095L2412 1122M2370 1073L2428 1103M2370 1073L2412 1122M2428 1103L2493 1071M2428 1103L2412 1122M2428 1103L2485 1141M2428 1103L2378 1224M2493 1071L2412 1122M2493 1071L2485 1141M26 1177L128 1139M26 1177L-75 1141M26 1177L46 1240M26 1177L-9 1272M2586 1177L2485 1141M2586 1177L2551 1272M128 1139L167 1170M167 1170L118 1262M167 1170L224 1216M313 1127L369 1140M313 1127L326 1217M369 1140L405 1132M369 1140L326 1217M527 1130L595 1158M527 1130L520 1252M707 1139L800 1197M707 1139L735 1201M800 1197L843 1130M800 1197L890 1191M800 1197L735 1201M800 1197L813 1208M843 1130L890 1191M843 1130L813 1208M890 1191L813 1208M890 1191L936 1238M979 1147L936 1238M979 1147L1025 1223M1082 1145L1146 1156M1082 1145L1025 1223M1082 1145L1059 1237M1146 1156L1252 1148M1146 1156L1059 1237M1146 1156L1154 1267M1252 1148L1356 1121M1252 1148L1365 1177M1252 1148L1303 1252M1356 1121L1365 1177M1365 1177L1303 1252M1365 1177L1460 1209M1520 1145L1555 1173M1520 1145L1460 1209M1520 1145L1578 1203M1555 1173L1625 1154M1555 1173L1578 1203M1555 1173L1625 1211M1625 1154L1578 1203M1625 1154L1625 1211M1746 1176L1775 1142M1746 1176L1752 1202M1746 1176L1776 1277M1775 1142L1875 1130M1775 1142L1752 1202M1875 1130L1954 1183M1875 1130L1871 1200M1954 1183L2040 1186M1954 1183L1871 1200M1954 1183L1935 1260M2040 1186L2116 1183M2040 1186L2071 1233M2040 1186L2089 1249M2116 1183L2071 1233M2116 1183L2089 1249M2226 1162L2260 1166M2226 1162L2325 1183M2226 1162L2196 1255M2226 1162L2255 1252M2260 1166L2325 1183M2260 1166L2255 1252M2325 1183L2378 1224M2412 1122L2485 1141M46 1240L118 1262M46 1240L-9 1272M46 1240L28 1337M46 1240L108 1282M2606 1240L2551 1272M118 1262L108 1282M224 1216L286 1240M224 1216L326 1217M224 1216L239 1310M224 1216L272 1318M286 1240L326 1217M286 1240L239 1310M286 1240L272 1318M326 1217L403 1272M403 1272L377 1329M403 1272L441 1295M403 1272L366 1382M520 1252L619 1272M520 1252L441 1295M520 1252L582 1297M619 1272L679 1260M619 1272L582 1297M619 1272L700 1360M619 1272L726 1281M679 1260L735 1201M679 1260L582 1297M679 1260L700 1360M679 1260L726 1281M735 1201L813 1208M735 1201L726 1281M936 1238L1025 1223M936 1238L860 1316M936 1238L944 1290M1025 1223L1059 1237M1025 1223L944 1290M1059 1237L1154 1267M1059 1237L1050 1337M1154 1267L1203 1271M1154 1267L1160 1341M1203 1271L1303 1252M1203 1271L1230 1357M1303 1252L1354 1308M1435 1277L1460 1209M1435 1277L1354 1308M1435 1277L1400 1320M1435 1277L1513 1343M1435 1277L1534 1296M1578 1203L1625 1211M1578 1203L1534 1296M1752 1202L1776 1277M1752 1202L1871 1200M1752 1202L1781 1302M1776 1277L1734 1339M1776 1277L1781 1302M1871 1200L1935 1260M1935 1260L1887 1335M1935 1260L2017 1325M2071 1233L2089 1249M2071 1233L2017 1325M2089 1249L2196 1255M2089 1249L2017 1325M2196 1255L2255 1252M2196 1255L2222 1338M2255 1252L2261 1339M2378 1224L2420 1257M2378 1224L2352 1298M2420 1257L2352 1298M2420 1257L2423 1330M2420 1257L2505 1302M2551 1272L2588 1337M2551 1272L2668 1282M2551 1272L2505 1302M-9 1272L28 1337M-9 1272L108 1282M28 1337L-55 1302M28 1337L52 1393M28 1337L-30 1419M2588 1337L2505 1302M2588 1337L2530 1419M239 1310L272 1318M239 1310L273 1436M377 1329L441 1295M377 1329L366 1382M441 1295L500 1357M500 1357L466 1418M500 1357L514 1431M500 1357L584 1405M582 1297L584 1405M700 1360L726 1281M700 1360L710 1417M700 1360L739 1404M860 1316L944 1290M860 1316L838 1408M860 1316L905 1414M944 1290L1025 1357M1025 1357L1050 1337M1025 1357L1018 1426M1025 1357L1112 1402M1050 1337L1018 1426M1050 1337L1112 1402M1160 1341L1230 1357M1160 1341L1112 1402M1160 1341L1198 1381M1160 1341L1225 1390M1230 1357L1198 1381M1230 1357L1225 1390M1354 1308L1400 1320M1354 1308L1358 1404M1354 1308L1361 1437M1400 1320L1358 1404M1513 1343L1534 1296M1513 1343L1602 1326M1513 1343L1561 1412M1513 1343L1609 1372M1534 1296L1602 1326M1534 1296L1609 1372M1602 1326L1561 1412M1602 1326L1609 1372M1602 1326L1693 1364M1734 1339L1781 1302M1734 1339L1693 1364M1734 1339L1769 1400M1781 1302L1693 1364M1781 1302L1769 1400M1887 1335L1973 1345M1887 1335L1900 1376M1973 1345L2017 1325M1973 1345L1900 1376M1973 1345L1956 1436M1973 1345L2036 1421M2129 1352L2222 1338M2129 1352L2128 1408M2129 1352L2171 1372M2222 1338L2261 1339M2222 1338L2171 1372M2222 1338L2259 1369M2261 1339L2352 1298M2261 1339L2259 1369M2261 1339L2333 1365M2352 1298L2423 1330M2352 1298L2333 1365M2423 1330L2505 1302M2423 1330L2406 1431M2505 1302L2530 1419M52 1393L133 1401M52 1393L-30 1419M2612 1393L2530 1419M133 1401L164 1423M164 1423L273 1436M273 1436L366 1382M466 1418L514 1431M514 1431L584 1405M710 1417L739 1404M739 1404L838 1408M838 1408L905 1414M905 1414L1018 1426M1112 1402L1198 1381M1198 1381L1225 1390M1358 1404L1361 1437M1358 1404L1447 1426M1361 1437L1447 1426M1447 1426L1561 1412M1561 1412L1609 1372M1609 1372L1693 1364M1693 1364L1769 1400M1769 1400L1900 1376M1900 1376L1956 1436M1956 1436L2036 1421M2036 1421L2128 1408M2128 1408L2171 1372M2171 1372L2259 1369M2259 1369L2333 1365M2333 1365L2406 1431"/></svg>