<svg xmlns="http://www.w3.org/2000/svg" width="2560" height="1440" fill="#fff"><circle cx="6" cy="24" r="5"/><circle cx="127" cy="12" r="6"/><circle cx="216" cy="3" r="6"/><circle cx="216" cy="1443" r="6"/><circle cx="245" cy="17" r="5"/><circle cx="387" cy="76" r="6"/><circle cx="422" cy="61" r="4"/><circle cx="529" cy="4" r="5"/><circle cx="529" cy="1444" r="5"/><circle cx="579" cy="27" r="6"/><circle cx="670" cy="30" r="5"/><circle cx="740" cy="6" r="6"/><circle cx="740" cy="1446" r="6"/><circle cx="821" cy="20" r="6"/><circle cx="942" cy="64" r="5"/><circle cx="995" cy="23" r="6"/><circle cx="1091" cy="7" r="5"/><circle cx="1158" cy="22" r="6"/><circle cx="1257" cy="55" r="6"/><circle cx="1349" cy="55" r="5"/><circle cx="1370" cy="15" r="4"/><circle cx="1494" cy="18" r="4"/><circle cx="1586" cy="77" r="5"/><circle cx="1637" cy="57" r="5"/><circle cx="1702" cy="20" r="5"/><circle cx="1783" cy="67" r="4"/><circle cx="1848" cy="11" r="5"/><circle cx="1933" cy="37" r="5"/><circle cx="2017" cy="74" r="5"/><circle cx="2142" cy="37" r="5"/><circle cx="2193" cy="53" r="6"/><circle cx="2278" cy="40" r="6"/><circle cx="2323" cy="7" r="5"/><circle cx="2426" cy="62" r="5"/><circle cx="2556" cy="64" r="4"/><circle cx="-4" cy="64" r="4"/><circle cx="3" cy="151" r="4"/><circle cx="2563" cy="151" r="4"/><circle cx="91" cy="133" r="5"/><circle cx="176" cy="109" r="5"/><circle cx="277" cy="97" r="4"/><circle cx="347" cy="129" r="6"/><circle cx="406" cy="108" r="6"/><circle cx="531" cy="113" r="4"/><circle cx="638" cy="112" r="5"/><circle cx="643" cy="105" r="4"/><circle cx="793" cy="93" r="5"/><circle cx="840" cy="106" r="6"/><circle cx="891" cy="156" r="5"/><circle cx="1001" cy="95" r="5"/><circle cx="1098" cy="150" r="5"/><circle cx="1144" cy="146" r="5"/><circle cx="1272" cy="94" r="6"/><circle cx="1308" cy="153" r="6"/><circle cx="1360" cy="137" r="6"/><circle cx="1515" cy="145" r="4"/><circle cx="1579" cy="98" r="5"/><circle cx="1630" cy="128" r="5"/><circle cx="1707" cy="140" r="6"/><circle cx="1782" cy="119" r="5"/><circle cx="1851" cy="127" r="5"/><circle cx="1927" cy="88" r="5"/><circle cx="2064" cy="96" r="5"/><circle cx="2121" cy="128" r="5"/><circle cx="2164" cy="115" r="4"/><circle cx="2261" cy="116" r="4"/><circle cx="2355" cy="157" r="5"/><circle cx="2407" cy="141" r="4"/><circle cx="2530" cy="106" r="6"/><circle cx="71" cy="171" r="4"/><circle cx="89" cy="185" r="4"/><circle cx="214" cy="170" r="5"/><circle cx="301" cy="202" r="5"/><circle cx="339" cy="219" r="5"/><circle cx="462" cy="186" r="4"/><circle cx="541" cy="218" r="6"/><circle cx="563" cy="226" r="5"/><circle cx="707" cy="218" r="6"/><circle cx="759" cy="173" r="5"/><circle cx="818" cy="172" r="4"/><circle cx="944" cy="189" r="5"/><circle cx="1002" cy="231" r="5"/><circle cx="1090" cy="214" r="4"/><circle cx="1126" cy="224" r="5"/><circle cx="1219" cy="229" r="4"/><circle cx="1354" cy="205" r="4"/><circle cx="1412" cy="208" r="4"/><circle cx="1506" cy="221" r="5"/><circle cx="1551" cy="163" r="5"/><circle cx="1641" cy="162" r="5"/><circle cx="1687" cy="216" r="4"/><circle cx="1820" cy="176" r="6"/><circle cx="1886" cy="168" r="5"/><circle cx="1935" cy="175" r="5"/><circle cx="2005" cy="215" r="5"/><circle cx="2115" cy="167" r="6"/><circle cx="2169" cy="166" r="5"/><circle cx="2295" cy="171" r="6"/><circle cx="2372" cy="219" r="6"/><circle cx="2449" cy="238" r="5"/><circle cx="2535" cy="192" r="6"/><circle cx="7" cy="320" r="5"/><circle cx="151" cy="260" r="6"/><circle cx="184" cy="255" r="4"/><circle cx="278" cy="307" r="4"/><circle cx="386" cy="310" r="6"/><circle cx="415" cy="296" r="6"/><circle cx="523" cy="297" r="5"/><circle cx="601" cy="292" r="4"/><circle cx="663" cy="318" r="4"/><circle cx="772" cy="293" r="5"/><circle cx="812" cy="319" r="5"/><circle cx="934" cy="247" r="5"/><circle cx="996" cy="310" r="5"/><circle cx="1072" cy="268" r="5"/><circle cx="1189" cy="271" r="5"/><circle cx="1212" cy="312" r="4"/><circle cx="1299" cy="268" r="6"/><circle cx="1363" cy="283" r="6"/><circle cx="1446" cy="281" r="6"/><circle cx="1526" cy="278" r="5"/><circle cx="1632" cy="275" r="4"/><circle cx="1698" cy="264" r="5"/><circle cx="1767" cy="249" r="5"/><circle cx="1885" cy="271" r="5"/><circle cx="1945" cy="286" r="5"/><circle cx="2021" cy="260" r="5"/><circle cx="2127" cy="257" r="6"/><circle cx="2196" cy="255" r="5"/><circle cx="2295" cy="253" r="6"/><circle cx="2392" cy="305" r="6"/><circle cx="2412" cy="262" r="5"/><circle cx="2524" cy="279" r="5"/><circle cx="77" cy="331" r="4"/><circle cx="108" cy="354" r="5"/><circle cx="231" cy="359" r="6"/><circle cx="247" cy="324" r="5"/><circle cx="340" cy="337" r="5"/><circle cx="441" cy="384" r="4"/><circle cx="526" cy="341" r="5"/><circle cx="612" cy="324" r="6"/><circle cx="665" cy="390" r="4"/><circle cx="763" cy="363" r="5"/><circle cx="833" cy="321" r="6"/><circle cx="891" cy="351" r="5"/><circle cx="988" cy="376" r="4"/><circle cx="1046" cy="338" r="4"/><circle cx="1163" cy="365" r="4"/><circle cx="1231" cy="344" r="5"/><circle cx="1354" cy="372" r="5"/><circle cx="1381" cy="367" r="6"/><circle cx="1445" cy="352" r="5"/><circle cx="1574" cy="321" r="4"/><circle cx="1602" cy="348" r="5"/><circle cx="1712" cy="391" r="4"/><circle cx="1837" cy="371" r="4"/><circle cx="1863" cy="372" r="4"/><circle cx="1976" cy="340" r="5"/><circle cx="2072" cy="366" r="6"/><circle cx="2112" cy="365" r="5"/><circle cx="2209" cy="340" r="6"/><circle cx="2248" cy="370" r="4"/><circle cx="2372" cy="329" r="6"/><circle cx="2424" cy="375" r="6"/><circle cx="2547" cy="396" r="5"/><circle cx="41" cy="473" r="6"/><circle cx="116" cy="408" r="4"/><circle cx="171" cy="455" r="4"/><circle cx="259" cy="451" r="5"/><circle cx="398" cy="428" r="6"/><circle cx="449" cy="473" r="5"/><circle cx="556" cy="432" r="5"/><circle cx="598" cy="410" r="5"/><circle cx="665" cy="448" r="4"/><circle cx="772" cy="451" r="6"/><circle cx="867" cy="428" r="5"/><circle cx="926" cy="408" r="6"/><circle cx="1014" cy="426" r="5"/><circle cx="1101" cy="413" r="4"/><circle cx="1130" cy="461" r="5"/><circle cx="1235" cy="464" r="5"/><circle cx="1333" cy="428" r="6"/><circle cx="1437" cy="424" r="5"/><circle cx="1441" cy="475" r="5"/><circle cx="1556" cy="474" r="5"/><circle cx="1663" cy="459" r="6"/><circle cx="1714" cy="440" r="6"/><circle cx="1764" cy="401" r="6"/><circle cx="1842" cy="431" r="5"/><circle cx="1996" cy="431" r="4"/><circle cx="2053" cy="426" r="5"/><circle cx="2093" cy="424" r="6"/><circle cx="2195" cy="447" r="6"/><circle cx="2286" cy="427" r="4"/><circle cx="2374" cy="416" r="6"/><circle cx="2451" cy="408" r="5"/><circle cx="2497" cy="475" r="5"/><circle cx="77" cy="482" r="6"/><circle cx="97" cy="529" r="4"/><circle cx="206" cy="522" r="4"/><circle cx="264" cy="530" r="5"/><circle cx="349" cy="518" r="5"/><circle cx="445" cy="550" r="4"/><circle cx="520" cy="509" r="6"/><circle cx="609" cy="519" r="5"/><circle cx="658" cy="491" r="5"/><circle cx="768" cy="507" r="5"/><circle cx="832" cy="511" r="5"/><circle cx="908" cy="506" r="4"/><circle cx="987" cy="531" r="4"/><circle cx="1075" cy="543" r="4"/><circle cx="1186" cy="481" r="6"/><circle cx="1254" cy="542" r="5"/><circle cx="1304" cy="558" r="5"/><circle cx="1400" cy="513" r="4"/><circle cx="1443" cy="519" r="4"/><circle cx="1541" cy="512" r="4"/><circle cx="1608" cy="526" r="6"/><circle cx="1741" cy="515" r="4"/><circle cx="1794" cy="508" r="5"/><circle cx="1886" cy="509" r="6"/><circle cx="1993" cy="539" r="6"/><circle cx="2036" cy="554" r="5"/><circle cx="2154" cy="542" r="5"/><circle cx="2202" cy="518" r="5"/><circle cx="2249" cy="482" r="5"/><circle cx="2395" cy="518" r="4"/><circle cx="2418" cy="533" r="5"/><circle cx="2536" cy="549" r="4"/><circle cx="27" cy="634" r="6"/><circle cx="126" cy="573" r="5"/><circle cx="239" cy="620" r="4"/><circle cx="317" cy="592" r="5"/><circle cx="341" cy="585" r="4"/><circle cx="425" cy="591" r="6"/><circle cx="483" cy="562" r="6"/><circle cx="619" cy="590" r="5"/><circle cx="683" cy="568" r="6"/><circle cx="796" cy="598" r="6"/><circle cx="865" cy="627" r="5"/><circle cx="886" cy="603" r="6"/><circle cx="969" cy="579" r="6"/><circle cx="1048" cy="588" r="5"/><circle cx="1130" cy="624" r="5"/><circle cx="1259" cy="609" r="6"/><circle cx="1290" cy="573" r="4"/><circle cx="1370" cy="629" r="4"/><circle cx="1472" cy="616" r="6"/><circle cx="1552" cy="598" r="5"/><circle cx="1608" cy="592" r="5"/><circle cx="1735" cy="638" r="5"/><circle cx="1828" cy="565" r="5"/><circle cx="1899" cy="634" r="5"/><circle cx="1998" cy="591" r="4"/><circle cx="2052" cy="621" r="4"/><circle cx="2096" cy="605" r="4"/><circle cx="2162" cy="638" r="5"/><circle cx="2260" cy="600" r="6"/><circle cx="2322" cy="625" r="5"/><circle cx="2407" cy="569" r="6"/><circle cx="2546" cy="617" r="6"/><circle cx="1" cy="684" r="4"/><circle cx="2561" cy="684" r="4"/><circle cx="116" cy="706" r="5"/><circle cx="181" cy="705" r="5"/><circle cx="275" cy="671" r="5"/><circle cx="381" cy="690" r="5"/><circle cx="422" cy="651" r="5"/><circle cx="494" cy="659" r="4"/><circle cx="591" cy="703" r="4"/><circle cx="644" cy="713" r="5"/><circle cx="781" cy="691" r="4"/><circle cx="823" cy="671" r="5"/><circle cx="915" cy="704" r="5"/><circle cx="980" cy="717" r="5"/><circle cx="1056" cy="656" r="4"/><circle cx="1146" cy="675" r="5"/><circle cx="1276" cy="665" r="6"/><circle cx="1320" cy="677" r="4"/><circle cx="1362" cy="653" r="6"/><circle cx="1457" cy="659" r="5"/><circle cx="1564" cy="653" r="6"/><circle cx="1620" cy="659" r="4"/><circle cx="1740" cy="708" r="4"/><circle cx="1805" cy="653" r="4"/><circle cx="1855" cy="669" r="5"/><circle cx="1932" cy="650" r="4"/><circle cx="2027" cy="676" r="6"/><circle cx="2152" cy="660" r="5"/><circle cx="2175" cy="651" r="5"/><circle cx="2245" cy="668" r="4"/><circle cx="2350" cy="710" r="5"/><circle cx="2401" cy="713" r="4"/><circle cx="2522" cy="698" r="6"/><circle cx="49" cy="747" r="5"/><circle cx="81" cy="750" r="4"/><circle cx="163" cy="771" r="5"/><circle cx="264" cy="795" r="5"/><circle cx="375" cy="746" r="5"/><circle cx="429" cy="795" r="5"/><circle cx="558" cy="755" r="5"/><circle cx="596" cy="783" r="6"/><circle cx="646" cy="739" r="6"/><circle cx="728" cy="722" r="6"/><circle cx="875" cy="777" r="5"/><circle cx="886" cy="758" r="4"/><circle cx="998" cy="738" r="6"/><circle cx="1066" cy="798" r="5"/><circle cx="1171" cy="732" r="5"/><circle cx="1218" cy="772" r="6"/><circle cx="1348" cy="743" r="6"/><circle cx="1440" cy="799" r="4"/><circle cx="1519" cy="795" r="6"/><circle cx="1577" cy="747" r="6"/><circle cx="1674" cy="795" r="6"/><circle cx="1681" cy="761" r="5"/><circle cx="1784" cy="762" r="6"/><circle cx="1858" cy="775" r="6"/><circle cx="1922" cy="777" r="5"/><circle cx="2047" cy="740" r="6"/><circle cx="2112" cy="754" r="5"/><circle cx="2187" cy="770" r="6"/><circle cx="2304" cy="726" r="6"/><circle cx="2361" cy="779" r="4"/><circle cx="2464" cy="747" r="5"/><circle cx="2519" cy="779" r="6"/><circle cx="7" cy="822" r="4"/><circle cx="148" cy="849" r="5"/><circle cx="169" cy="847" r="4"/><circle cx="287" cy="873" r="5"/><circle cx="357" cy="829" r="5"/><circle cx="417" cy="839" r="4"/><circle cx="530" cy="804" r="6"/><circle cx="569" cy="847" r="4"/><circle cx="694" cy="836" r="5"/><circle cx="746" cy="810" r="5"/><circle cx="856" cy="814" r="4"/><circle cx="881" cy="817" r="6"/><circle cx="1000" cy="828" r="5"/><circle cx="1108" cy="837" r="5"/><circle cx="1196" cy="871" r="6"/><circle cx="1243" cy="825" r="6"/><circle cx="1284" cy="857" r="5"/><circle cx="1432" cy="867" r="5"/><circle cx="1479" cy="813" r="5"/><circle cx="1572" cy="822" r="4"/><circle cx="1635" cy="841" r="5"/><circle cx="1710" cy="834" r="5"/><circle cx="1802" cy="844" r="5"/><circle cx="1905" cy="819" r="4"/><circle cx="1965" cy="867" r="5"/><circle cx="2044" cy="848" r="4"/><circle cx="2104" cy="808" r="4"/><circle cx="2176" cy="858" r="5"/><circle cx="2259" cy="872" r="5"/><circle cx="2337" cy="849" r="4"/><circle cx="2452" cy="851" r="4"/><circle cx="2547" cy="837" r="5"/><circle cx="5" cy="919" r="5"/><circle cx="2565" cy="919" r="5"/><circle cx="96" cy="955" r="5"/><circle cx="219" cy="925" r="6"/><circle cx="308" cy="939" r="6"/><circle cx="338" cy="924" r="5"/><circle cx="464" cy="946" r="5"/><circle cx="552" cy="906" r="5"/><circle cx="636" cy="932" r="5"/><circle cx="691" cy="901" r="4"/><circle cx="736" cy="936" r="6"/><circle cx="879" cy="912" r="6"/><circle cx="934" cy="926" r="4"/><circle cx="968" cy="903" r="5"/><circle cx="1115" cy="908" r="5"/><circle cx="1152" cy="959" r="5"/><circle cx="1201" cy="890" r="4"/><circle cx="1295" cy="905" r="5"/><circle cx="1362" cy="897" r="5"/><circle cx="1458" cy="906" r="6"/><circle cx="1579" cy="954" r="5"/><circle cx="1621" cy="885" r="5"/><circle cx="1749" cy="881" r="5"/><circle cx="1807" cy="951" r="5"/><circle cx="1899" cy="912" r="5"/><circle cx="1973" cy="923" r="5"/><circle cx="2007" cy="915" r="5"/><circle cx="2102" cy="899" r="4"/><circle cx="2192" cy="924" r="4"/><circle cx="2274" cy="959" r="5"/><circle cx="2355" cy="882" r="5"/><circle cx="2449" cy="942" r="4"/><circle cx="2541" cy="922" r="5"/><circle cx="72" cy="997" r="5"/><circle cx="109" cy="1033" r="4"/><circle cx="204" cy="1039" r="6"/><circle cx="265" cy="961" r="5"/><circle cx="363" cy="1001" r="4"/><circle cx="412" cy="975" r="5"/><circle cx="487" cy="992" r="5"/><circle cx="608" cy="1028" r="5"/><circle cx="712" cy="1036" r="5"/><circle cx="784" cy="969" r="6"/><circle cx="846" cy="1036" r="5"/><circle cx="902" cy="989" r="5"/><circle cx="1017" cy="1024" r="5"/><circle cx="1071" cy="1009" r="5"/><circle cx="1171" cy="983" r="5"/><circle cx="1233" cy="991" r="5"/><circle cx="1328" cy="1026" r="5"/><circle cx="1428" cy="1000" r="6"/><circle cx="1479" cy="1020" r="5"/><circle cx="1567" cy="984" r="5"/><circle cx="1639" cy="1013" r="5"/><circle cx="1712" cy="987" r="4"/><circle cx="1773" cy="1025" r="4"/><circle cx="1908" cy="1034" r="5"/><circle cx="1964" cy="961" r="5"/><circle cx="2046" cy="995" r="4"/><circle cx="2112" cy="998" r="4"/><circle cx="2168" cy="967" r="6"/><circle cx="2297" cy="1010" r="5"/><circle cx="2332" cy="986" r="5"/><circle cx="2470" cy="988" r="5"/><circle cx="2510" cy="970" r="5"/><circle cx="64" cy="1043" r="6"/><circle cx="88" cy="1108" r="5"/><circle cx="208" cy="1066" r="5"/><circle cx="266" cy="1072" r="6"/><circle cx="330" cy="1092" r="5"/><circle cx="425" cy="1108" r="4"/><circle cx="523" cy="1100" r="6"/><circle cx="624" cy="1081" r="4"/><circle cx="717" cy="1081" r="5"/><circle cx="731" cy="1050" r="5"/><circle cx="850" cy="1086" r="5"/><circle cx="916" cy="1101" r="6"/><circle cx="968" cy="1096" r="6"/><circle cx="1048" cy="1103" r="6"/><circle cx="1146" cy="1088" r="4"/><circle cx="1234" cy="1069" r="5"/><circle cx="1318" cy="1066" r="5"/><circle cx="1432" cy="1051" r="5"/><circle cx="1457" cy="1090" r="5"/><circle cx="1542" cy="1066" r="4"/><circle cx="1607" cy="1095" r="4"/><circle cx="1693" cy="1047" r="6"/><circle cx="1820" cy="1117" r="4"/><circle cx="1852" cy="1077" r="6"/><circle cx="1966" cy="1108" r="5"/><circle cx="2048" cy="1072" r="5"/><circle cx="2141" cy="1102" r="5"/><circle cx="2174" cy="1081" r="4"/><circle cx="2319" cy="1083" r="5"/><circle cx="2347" cy="1109" r="5"/><circle cx="2418" cy="1111" r="6"/><circle cx="2487" cy="1111" r="5"/><circle cx="27" cy="1157" r="5"/><circle cx="127" cy="1164" r="4"/><circle cx="212" cy="1150" r="5"/><circle cx="260" cy="1175" r="6"/><circle cx="320" cy="1143" r="5"/><circle cx="419" cy="1169" r="5"/><circle cx="513" cy="1134" r="4"/><circle cx="589" cy="1125" r="5"/><circle cx="690" cy="1123" r="4"/><circle cx="728" cy="1168" r="5"/><circle cx="831" cy="1185" r="6"/><circle cx="920" cy="1125" r="5"/><circle cx="1018" cy="1190" r="4"/><circle cx="1111" cy="1163" r="5"/><circle cx="1198" cy="1144" r="5"/><circle cx="1228" cy="1167" r="6"/><circle cx="1322" cy="1183" r="5"/><circle cx="1429" cy="1121" r="5"/><circle cx="1488" cy="1191" r="5"/><circle cx="1583" cy="1161" r="6"/><circle cx="1667" cy="1192" r="6"/><circle cx="1708" cy="1179" r="4"/><circle cx="1834" cy="1197" r="4"/><circle cx="1904" cy="1179" r="4"/><circle cx="1980" cy="1120" r="6"/><circle cx="2073" cy="1124" r="5"/><circle cx="2144" cy="1139" r="5"/><circle cx="2200" cy="1163" r="6"/><circle cx="2275" cy="1166" r="6"/><circle cx="2388" cy="1160" r="4"/><circle cx="2415" cy="1123" r="6"/><circle cx="2529" cy="1200" r="4"/><circle cx="67" cy="1239" r="5"/><circle cx="116" cy="1235" r="5"/><circle cx="173" cy="1228" r="5"/><circle cx="247" cy="1267" r="5"/><circle cx="380" cy="1205" r="5"/><circle cx="418" cy="1238" r="5"/><circle cx="502" cy="1246" r="5"/><circle cx="572" cy="1263" r="6"/><circle cx="710" cy="1257" r="5"/><circle cx="798" cy="1275" r="5"/><circle cx="831" cy="1276" r="5"/><circle cx="952" cy="1254" r="5"/><circle cx="992" cy="1270" r="5"/><circle cx="1077" cy="1258" r="5"/><circle cx="1146" cy="1238" r="5"/><circle cx="1206" cy="1228" r="4"/><circle cx="1312" cy="1271" r="4"/><circle cx="1423" cy="1234" r="5"/><circle cx="1454" cy="1277" r="6"/><circle cx="1599" cy="1244" r="5"/><circle cx="1660" cy="1231" r="4"/><circle cx="1731" cy="1234" r="4"/><circle cx="1820" cy="1275" r="4"/><circle cx="1888" cy="1203" r="6"/><circle cx="1996" cy="1210" r="4"/><circle cx="2078" cy="1210" r="5"/><circle cx="2096" cy="1277" r="5"/><circle cx="2207" cy="1244" r="5"/><circle cx="2286" cy="1270" r="4"/><circle cx="2373" cy="1273" r="5"/><circle cx="2406" cy="1263" r="5"/><circle cx="2549" cy="1267" r="4"/><circle cx="72" cy="1312" r="4"/><circle cx="152" cy="1338" r="5"/><circle cx="225" cy="1311" r="6"/><circle cx="277" cy="1309" r="5"/><circle cx="329" cy="1351" r="5"/><circle cx="408" cy="1332" r="6"/><circle cx="534" cy="1316" r="5"/><circle cx="613" cy="1346" r="6"/><circle cx="695" cy="1327" r="5"/><circle cx="746" cy="1314" r="4"/><circle cx="861" cy="1330" r="5"/><circle cx="887" cy="1343" r="6"/><circle cx="999" cy="1333" r="4"/><circle cx="1102" cy="1312" r="5"/><circle cx="1132" cy="1335" r="4"/><circle cx="1212" cy="1358" r="5"/><circle cx="1350" cy="1330" r="5"/><circle cx="1425" cy="1342" r="6"/><circle cx="1479" cy="1356" r="5"/><circle cx="1588" cy="1345" r="4"/><circle cx="1632" cy="1330" r="5"/><circle cx="1736" cy="1323" r="4"/><circle cx="1812" cy="1284" r="4"/><circle cx="1885" cy="1308" r="5"/><circle cx="1990" cy="1286" r="5"/><circle cx="2076" cy="1331" r="6"/><circle cx="2122" cy="1308" r="6"/><circle cx="2209" cy="1346" r="4"/><circle cx="2260" cy="1299" r="6"/><circle cx="2339" cy="1281" r="5"/><circle cx="2445" cy="1346" r="5"/><circle cx="2539" cy="1319" r="6"/><circle cx="17" cy="1386" r="5"/><circle cx="103" cy="1378" r="5"/><circle cx="203" cy="1429" r="4"/><circle cx="292" cy="1398" r="4"/><circle cx="379" cy="1431" r="5"/><circle cx="434" cy="1383" r="5"/><circle cx="552" cy="1435" r="6"/><circle cx="552" cy="-5" r="6"/><circle cx="614" cy="1368" r="6"/><circle cx="693" cy="1370" r="5"/><circle cx="771" cy="1403" r="6"/><circle cx="860" cy="1391" r="4"/><circle cx="897" cy="1369" r="4"/><circle cx="1010" cy="1421" r="5"/><circle cx="1094" cy="1396" r="4"/><circle cx="1160" cy="1361" r="6"/><circle cx="1208" cy="1416" r="5"/><circle cx="1281" cy="1437" r="5"/><circle cx="1281" cy="-3" r="5"/><circle cx="1415" cy="1371" r="5"/><circle cx="1457" cy="1365" r="5"/><circle cx="1524" cy="1421" r="5"/><circle cx="1625" cy="1365" r="4"/><circle cx="1745" cy="1425" r="4"/><circle cx="1799" cy="1378" r="5"/><circle cx="1919" cy="1417" r="5"/><circle cx="1934" cy="1370" r="5"/><circle cx="2065" cy="1438" r="4"/><circle cx="2065" cy="-2" r="4"/><circle cx="2147" cy="1422" r="6"/><circle cx="2182" cy="1436" r="5"/><circle cx="2182" cy="-4" r="5"/><circle cx="2294" cy="1419" r="5"/><circle cx="2394" cy="1411" r="4"/><circle cx="2457" cy="1371" r="4"/><circle cx="2503" cy="1405" r="5"/><path stroke="#fff" d="M6 24L-4 64M6 24L-30 106M6 24L17 -54M6 24L-57 -35M2566 24L2556 64M2566 24L2530 106M2566 24L2503 -35M6 1464L17 1386M6 1464L-57 1405M2566 1464L2503 1405M127 12L216 3M127 12L176 109M127 12L152 -102M127 12L103 -62M127 12L203 -11M127 1452L152 1338M127 1452L103 1378M127 1452L203 1429M216 3L245 17M216 3L176 109M216 3L203 -11M216 3L292 -42M216 1443L203 1429M216 1443L292 1398M245 17L277 97M245 17L203 -11M245 17L292 -42M245 1457L203 1429M245 1457L292 1398M387 76L422 61M387 76L277 97M387 76L347 129M387 76L406 108M387 76L379 -9M387 1516L379 1431M422 61L406 108M422 61L379 -9M422 1501L379 1431M529 4L579 27M529 4L531 113M529 4L434 -57M529 4L552 -5M529 1444L434 1383M529 1444L552 1435M579 27L670 30M579 27L638 112M579 27L552 -5M579 1467L552 1435M670 30L740 6M670 30L638 112M670 30L643 105M740 6L821 20M740 6L793 93M740 6L693 -70M740 6L771 -37M740 1446L693 1370M740 1446L771 1403M821 20L793 93M821 20L840 106M821 20L771 -37M821 20L860 -49M821 1460L771 1403M821 1460L860 1391M942 64L995 23M942 64L891 156M942 64L1001 95M942 64L1010 -19M942 1504L1010 1421M995 23L1091 7M995 23L1001 95M995 23L1010 -19M995 1463L1010 1421M1091 7L1158 22M1091 7L1010 -19M1091 7L1094 -44M1091 1447L1010 1421M1091 1447L1094 1396M1158 22L1257 55M1158 22L1094 -44M1158 22L1208 -24M1158 1462L1094 1396M1158 1462L1208 1416M1257 55L1349 55M1257 55L1272 94M1257 55L1208 -24M1257 55L1281 -3M1257 1495L1208 1416M1257 1495L1281 1437M1349 55L1370 15M1349 55L1272 94M1349 55L1360 137M1349 55L1281 -3M1349 1495L1281 1437M1370 15L1281 -3M1370 15L1415 -69M1370 1455L1281 1437M1370 1455L1415 1371M1494 18L1524 -19M1494 1458L1524 1421M1586 77L1637 57M1586 77L1579 98M1586 77L1630 128M1586 77L1551 163M1637 57L1702 20M1637 57L1579 98M1637 57L1630 128M1702 20L1783 67M1702 20L1625 -75M1702 20L1745 -15M1702 1460L1625 1365M1702 1460L1745 1425M1783 67L1848 11M1783 67L1782 119M1848 11L1933 37M1848 11L1799 -62M1848 11L1919 -23M1848 1451L1799 1378M1848 1451L1919 1417M1933 37L2017 74M1933 37L1927 88M1933 37L1919 -23M1933 37L1934 -70M1933 1477L1919 1417M1933 1477L1934 1370M2017 74L1927 88M2017 74L2064 96M2017 74L2065 -2M2017 1514L2065 1438M2142 37L2193 53M2142 37L2164 115M2142 37L2065 -2M2142 37L2147 -18M2142 37L2182 -4M2142 1477L2065 1438M2142 1477L2147 1422M2142 1477L2182 1436M2193 53L2278 40M2193 53L2164 115M2193 53L2147 -18M2193 53L2182 -4M2193 1493L2147 1422M2193 1493L2182 1436M2278 40L2323 7M2278 40L2261 116M2278 40L2182 -4M2278 40L2294 -21M2278 1480L2182 1436M2278 1480L2294 1419M2323 7L2426 62M2323 7L2261 116M2323 7L2294 -21M2323 7L2394 -29M2323 1447L2294 1419M2323 1447L2394 1411M2426 62L2407 141M2426 62L2530 106M2426 62L2394 -29M2426 1502L2394 1411M2556 64L2563 151M2556 64L2530 106M-4 64L3 151M3 151L91 133M3 151L-30 106M3 151L71 171M3 151L-25 192M2563 151L2530 106M2563 151L2535 192M91 133L176 109M91 133L71 171M91 133L89 185M176 109L277 97M176 109L214 170M277 97L347 129M277 97L214 170M347 129L406 108M347 129L301 202M347 129L339 219M406 108L462 186M531 113L638 112M531 113L462 186M531 113L541 218M638 112L643 105M638 112L707 218M793 93L840 106M793 93L759 173M793 93L818 172M840 106L891 156M840 106L759 173M840 106L818 172M891 156L818 172M891 156L944 189M891 156L934 247M1001 95L1098 150M1001 95L944 189M1098 150L1144 146M1098 150L1090 214M1098 150L1126 224M1144 146L1090 214M1144 146L1126 224M1144 146L1219 229M1272 94L1308 153M1272 94L1360 137M1272 94L1281 -3M1272 1534L1281 1437M1308 153L1360 137M1308 153L1354 205M1360 137L1354 205M1360 137L1412 208M1515 145L1506 221M1515 145L1551 163M1579 98L1630 128M1579 98L1551 163M1579 98L1641 162M1630 128L1707 140M1630 128L1641 162M1707 140L1782 119M1707 140L1641 162M1707 140L1687 216M1707 140L1820 176M1782 119L1851 127M1782 119L1820 176M1851 127L1927 88M1851 127L1820 176M1851 127L1886 168M1851 127L1935 175M1927 88L1886 168M1927 88L1935 175M2064 96L2121 128M2064 96L2115 167M2064 96L2065 -2M2064 1536L2065 1438M2121 128L2164 115M2121 128L2115 167M2121 128L2169 166M2164 115L2115 167M2164 115L2169 166M2261 116L2355 157M2261 116L2295 171M2355 157L2407 141M2355 157L2295 171M2355 157L2372 219M2407 141L2295 171M2530 106L2535 192M71 171L89 185M71 171L-25 192M2631 171L2535 192M89 185L151 260M214 170L301 202M214 170L151 260M214 170L184 255M301 202L339 219M339 219L278 307M339 219L386 310M339 219L415 296M462 186L541 218M462 186L563 226M541 218L563 226M541 218L523 297M563 226L523 297M563 226L601 292M707 218L759 173M707 218L818 172M707 218L663 318M707 218L772 293M759 173L818 172M759 173L772 293M944 189L1002 231M944 189L934 247M1002 231L1090 214M1002 231L934 247M1002 231L996 310M1002 231L1072 268M1090 214L1126 224M1090 214L1072 268M1126 224L1072 268M1126 224L1189 271M1219 229L1189 271M1219 229L1212 312M1219 229L1299 268M1354 205L1412 208M1354 205L1299 268M1354 205L1363 283M1412 208L1506 221M1412 208L1446 281M1506 221L1551 163M1506 221L1446 281M1506 221L1526 278M1551 163L1641 162M1641 162L1687 216M1687 216L1632 275M1687 216L1698 264M1687 216L1767 249M1820 176L1886 168M1820 176L1767 249M1886 168L1935 175M1886 168L1885 271M1935 175L2005 215M1935 175L1885 271M2005 215L1945 286M2005 215L2021 260M2115 167L2169 166M2115 167L2127 257M2169 166L2127 257M2169 166L2196 255M2295 171L2372 219M2295 171L2295 253M2372 219L2449 238M2372 219L2295 253M2372 219L2412 262M2449 238L2535 192M2449 238L2392 305M2449 238L2412 262M2449 238L2524 279M2535 192L2524 279M7 320L-36 279M7 320L77 331M7 320L108 354M7 320L-13 396M2567 320L2524 279M2567 320L2547 396M151 260L184 255M151 260L77 331M151 260L108 354M184 255L231 359M184 255L247 324M278 307L231 359M278 307L247 324M278 307L340 337M386 310L415 296M386 310L340 337M386 310L441 384M386 310L398 428M415 296L340 337M415 296L441 384M523 297L601 292M523 297L526 341M523 297L612 324M601 292L663 318M601 292L526 341M601 292L612 324M663 318L612 324M663 318L665 390M772 293L812 319M772 293L763 363M772 293L833 321M812 319L763 363M812 319L833 321M812 319L891 351M934 247L996 310M996 310L1072 268M996 310L988 376M996 310L1046 338M1072 268L1046 338M1189 271L1212 312M1189 271L1231 344M1212 312L1299 268M1212 312L1163 365M1212 312L1231 344M1299 268L1363 283M1299 268L1231 344M1363 283L1446 281M1363 283L1354 372M1363 283L1381 367M1446 281L1526 278M1446 281L1445 352M1526 278L1632 275M1526 278L1574 321M1526 278L1602 348M1632 275L1698 264M1632 275L1574 321M1632 275L1602 348M1698 264L1767 249M1698 264L1602 348M1885 271L1945 286M1885 271L1863 372M1885 271L1976 340M1945 286L2021 260M1945 286L1976 340M2021 260L2127 257M2021 260L1976 340M2127 257L2196 255M2127 257L2112 365M2196 255L2295 253M2196 255L2209 340M2295 253L2392 305M2295 253L2372 329M2392 305L2412 262M2392 305L2372 329M2392 305L2424 375M2412 262L2372 329M2412 262L2424 375M77 331L108 354M77 331L116 408M108 354L116 408M231 359L247 324M231 359L340 337M231 359L259 451M247 324L340 337M441 384L526 341M441 384L398 428M441 384L449 473M526 341L612 324M526 341L556 432M612 324L598 410M665 390L763 363M665 390L598 410M665 390L665 448M665 390L658 491M763 363L833 321M763 363L772 451M833 321L891 351M891 351L988 376M891 351L867 428M891 351L926 408M988 376L1046 338M988 376L926 408M988 376L1014 426M1046 338L1014 426M1046 338L1101 413M1163 365L1231 344M1163 365L1101 413M1163 365L1130 461M1163 365L1186 481M1354 372L1381 367M1354 372L1445 352M1354 372L1333 428M1354 372L1437 424M1381 367L1445 352M1381 367L1333 428M1381 367L1437 424M1445 352L1437 424M1574 321L1602 348M1712 391L1663 459M1712 391L1714 440M1712 391L1764 401M1837 371L1863 372M1837 371L1764 401M1837 371L1842 431M1863 372L1764 401M1863 372L1842 431M1976 340L2072 366M1976 340L1996 431M2072 366L2112 365M2072 366L1996 431M2072 366L2053 426M2072 366L2093 424M2112 365L2209 340M2112 365L2053 426M2112 365L2093 424M2209 340L2248 370M2209 340L2286 427M2248 370L2195 447M2248 370L2286 427M2248 370L2249 482M2372 329L2424 375M2372 329L2374 416M2424 375L2374 416M2424 375L2451 408M2547 396L2601 473M2547 396L2451 408M2547 396L2497 475M-13 396L41 473M41 473L116 408M41 473L-63 475M41 473L77 482M41 473L97 529M2601 473L2497 475M116 408L171 455M116 408L77 482M171 455L259 451M171 455L77 482M171 455L97 529M171 455L206 522M259 451L206 522M259 451L264 530M398 428L449 473M398 428L349 518M449 473L445 550M449 473L520 509M449 473L483 562M556 432L598 410M556 432L520 509M598 410L665 448M665 448L772 451M665 448L609 519M665 448L658 491M772 451L867 428M772 451L768 507M772 451L832 511M867 428L926 408M867 428L832 511M867 428L908 506M926 408L1014 426M926 408L908 506M1014 426L1101 413M1014 426L987 531M1101 413L1130 461M1101 413L1186 481M1130 461L1235 464M1130 461L1075 543M1130 461L1186 481M1235 464L1333 428M1235 464L1186 481M1235 464L1254 542M1333 428L1437 424M1333 428L1400 513M1437 424L1441 475M1441 475L1556 474M1441 475L1400 513M1441 475L1443 519M1441 475L1541 512M1556 474L1663 459M1556 474L1541 512M1556 474L1608 526M1663 459L1714 440M1663 459L1608 526M1663 459L1741 515M1714 440L1764 401M1714 440L1741 515M1714 440L1794 508M1764 401L1842 431M1842 431L1794 508M1842 431L1886 509M1996 431L2053 426M1996 431L2093 424M1996 431L1993 539M2053 426L2093 424M2093 424L2195 447M2195 447L2286 427M2195 447L2202 518M2195 447L2249 482M2286 427L2374 416M2286 427L2249 482M2374 416L2451 408M2374 416L2395 518M2451 408L2497 475M2451 408L2395 518M2497 475L2418 533M2497 475L2536 549M77 482L97 529M77 482L126 573M97 529L126 573M206 522L264 530M206 522L126 573M206 522L239 620M264 530L349 518M264 530L239 620M264 530L317 592M349 518L317 592M349 518L341 585M349 518L425 591M445 550L520 509M445 550L425 591M445 550L483 562M520 509L609 519M520 509L483 562M609 519L658 491M609 519L619 590M609 519L683 568M658 491L619 590M658 491L683 568M768 507L832 511M768 507L683 568M768 507L796 598M832 511L908 506M832 511L796 598M908 506L987 531M908 506L969 579M987 531L1075 543M987 531L969 579M987 531L1048 588M1075 543L969 579M1075 543L1048 588M1075 543L1130 624M1186 481L1254 542M1254 542L1304 558M1254 542L1259 609M1254 542L1290 573M1304 558L1259 609M1304 558L1290 573M1400 513L1443 519M1541 512L1608 526M1541 512L1552 598M1541 512L1608 592M1608 526L1552 598M1608 526L1608 592M1741 515L1794 508M1741 515L1828 565M1794 508L1886 509M1794 508L1828 565M1886 509L1993 539M1886 509L1828 565M1993 539L2036 554M1993 539L1998 591M1993 539L2052 621M2036 554L1998 591M2036 554L2052 621M2036 554L2096 605M2154 542L2202 518M2154 542L2096 605M2154 542L2162 638M2154 542L2260 600M2202 518L2249 482M2202 518L2260 600M2395 518L2418 533M2395 518L2407 569M2418 533L2407 569M2536 549L2587 634M2536 549L2407 569M2536 549L2546 617M-24 549L27 634M27 634L-14 617M27 634L1 684M27 634L116 706M27 634L-38 698M2587 634L2546 617M2587 634L2522 698M239 620L317 592M239 620L181 705M239 620L275 671M317 592L341 585M317 592L275 671M341 585L425 591M341 585L275 671M341 585L422 651M425 591L483 562M425 591L422 651M483 562L494 659M619 590L683 568M796 598L865 627M796 598L886 603M796 598L823 671M865 627L886 603M865 627L823 671M865 627L915 704M886 603L969 579M886 603L823 671M969 579L1048 588M1048 588L1130 624M1048 588L1056 656M1130 624L1056 656M1130 624L1146 675M1130 624L1171 732M1259 609L1290 573M1259 609L1276 665M1259 609L1320 677M1290 573L1276 665M1370 629L1472 616M1370 629L1320 677M1370 629L1362 653M1370 629L1457 659M1472 616L1552 598M1472 616L1457 659M1472 616L1564 653M1552 598L1608 592M1552 598L1564 653M1608 592L1564 653M1608 592L1620 659M1735 638L1620 659M1735 638L1740 708M1735 638L1805 653M1828 565L1899 634M1828 565L1805 653M1899 634L1805 653M1899 634L1855 669M1899 634L1932 650M1998 591L2052 621M1998 591L1932 650M1998 591L2027 676M2052 621L2096 605M2052 621L2027 676M2096 605L2162 638M2096 605L2152 660M2162 638L2152 660M2162 638L2175 651M2162 638L2245 668M2260 600L2322 625M2260 600L2175 651M2260 600L2245 668M2322 625L2407 569M2322 625L2245 668M2322 625L2350 710M2322 625L2304 726M2407 569L2546 617M2546 617L2561 684M2546 617L2522 698M-14 617L1 684M1 684L-38 698M1 684L49 747M2561 684L2522 698M116 706L181 705M116 706L49 747M116 706L81 750M116 706L163 771M181 705L275 671M181 705L81 750M181 705L163 771M275 671L381 690M381 690L422 651M381 690L494 659M381 690L375 746M381 690L429 795M422 651L494 659M422 651L375 746M591 703L644 713M591 703L558 755M591 703L646 739M644 713L558 755M644 713L596 783M644 713L646 739M644 713L728 722M781 691L823 671M781 691L728 722M915 704L980 717M915 704L875 777M915 704L886 758M915 704L998 738M980 717L1056 656M980 717L886 758M980 717L998 738M980 717L1000 828M1056 656L1146 675M1056 656L998 738M1146 675L1171 732M1146 675L1218 772M1276 665L1320 677M1276 665L1362 653M1276 665L1348 743M1320 677L1362 653M1320 677L1348 743M1362 653L1457 659M1362 653L1348 743M1564 653L1620 659M1564 653L1577 747M1740 708L1805 653M1740 708L1681 761M1740 708L1784 762M1805 653L1855 669M1855 669L1932 650M1855 669L1858 775M1932 650L2027 676M2027 676L2047 740M2027 676L2112 754M2152 660L2175 651M2152 660L2187 770M2175 651L2245 668M2245 668L2304 726M2350 710L2401 713M2350 710L2304 726M2350 710L2361 779M2401 713L2304 726M2401 713L2361 779M2401 713L2464 747M2522 698L2464 747M2522 698L2519 779M49 747L81 750M49 747L-41 779M49 747L7 822M2609 747L2519 779M81 750L163 771M163 771L148 849M163 771L169 847M264 795L169 847M264 795L287 873M375 746L429 795M375 746L357 829M375 746L417 839M429 795L357 829M429 795L417 839M429 795L530 804M558 755L596 783M558 755L646 739M558 755L530 804M596 783L646 739M596 783L530 804M596 783L569 847M646 739L728 722M728 722L694 836M728 722L746 810M875 777L886 758M875 777L856 814M875 777L881 817M886 758L856 814M886 758L881 817M998 738L1066 798M998 738L1000 828M1066 798L1000 828M1066 798L1108 837M1171 732L1218 772M1171 732L1108 837M1218 772L1196 871M1218 772L1243 825M1348 743L1440 799M1440 799L1519 795M1440 799L1432 867M1440 799L1479 813M1519 795L1577 747M1519 795L1432 867M1519 795L1479 813M1519 795L1572 822M1577 747L1674 795M1577 747L1572 822M1674 795L1681 761M1674 795L1635 841M1674 795L1710 834M1681 761L1784 762M1681 761L1635 841M1681 761L1710 834M1784 762L1858 775M1784 762L1802 844M1858 775L1922 777M1858 775L1802 844M1858 775L1905 819M1922 777L2047 740M1922 777L1905 819M2047 740L2112 754M2047 740L2044 848M2047 740L2104 808M2112 754L2187 770M2112 754L2104 808M2187 770L2104 808M2187 770L2176 858M2304 726L2361 779M2361 779L2337 849M2361 779L2355 882M2464 747L2519 779M2464 747L2452 851M2519 779L2567 822M2519 779L2547 837M-41 779L7 822M7 822L-13 837M7 822L5 919M2567 822L2547 837M148 849L169 847M169 847L219 925M287 873L357 829M287 873L219 925M287 873L308 939M287 873L338 924M357 829L417 839M417 839L464 946M530 804L569 847M530 804L552 906M569 847L552 906M569 847L636 932M694 836L746 810M694 836L691 901M694 836L736 936M746 810L856 814M746 810L691 901M856 814L881 817M881 817L1000 828M881 817L879 912M1000 828L968 903M1108 837L1115 908M1196 871L1243 825M1196 871L1284 857M1196 871L1115 908M1196 871L1201 890M1243 825L1284 857M1243 825L1201 890M1243 825L1295 905M1284 857L1201 890M1284 857L1295 905M1284 857L1362 897M1432 867L1479 813M1432 867L1362 897M1432 867L1458 906M1479 813L1572 822M1479 813L1458 906M1572 822L1635 841M1572 822L1621 885M1635 841L1710 834M1635 841L1621 885M1710 834L1802 844M1710 834L1749 881M1802 844L1749 881M1802 844L1807 951M1905 819L1965 867M1905 819L1899 912M1965 867L2044 848M1965 867L1899 912M1965 867L1973 923M1965 867L2007 915M2044 848L2104 808M2044 848L2007 915M2044 848L2102 899M2104 808L2176 858M2176 858L2259 872M2176 858L2102 899M2176 858L2192 924M2259 872L2337 849M2259 872L2192 924M2259 872L2274 959M2259 872L2355 882M2337 849L2355 882M2452 851L2547 837M2452 851L2355 882M2452 851L2449 942M2547 837L2565 919M2547 837L2541 922M-13 837L5 919M5 919L96 955M5 919L-19 922M5 919L-50 970M2565 919L2541 922M2565 919L2510 970M96 955L72 997M96 955L109 1033M96 955L64 1043M219 925L308 939M219 925L204 1039M219 925L265 961M308 939L338 924M308 939L265 961M308 939L363 1001M338 924L265 961M338 924L363 1001M338 924L412 975M464 946L552 906M464 946L412 975M464 946L487 992M552 906L636 932M552 906L487 992M636 932L691 901M636 932L736 936M636 932L608 1028M691 901L736 936M736 936L712 1036M736 936L784 969M879 912L934 926M879 912L968 903M879 912L784 969M879 912L902 989M934 926L968 903M934 926L902 989M1115 908L1152 959M1115 908L1201 890M1115 908L1171 983M1152 959L1201 890M1152 959L1071 1009M1152 959L1171 983M1152 959L1233 991M1295 905L1362 897M1295 905L1233 991M1362 897L1458 906M1458 906L1428 1000M1579 954L1621 885M1579 954L1567 984M1579 954L1639 1013M1621 885L1749 881M1621 885L1567 984M1749 881L1807 951M1749 881L1712 987M1807 951L1899 912M1807 951L1712 987M1807 951L1773 1025M1899 912L1973 923M1899 912L1964 961M1973 923L2007 915M1973 923L1964 961M1973 923L2046 995M2007 915L1964 961M2007 915L2046 995M2102 899L2192 924M2102 899L2112 998M2102 899L2168 967M2192 924L2274 959M2192 924L2168 967M2274 959L2168 967M2274 959L2297 1010M2274 959L2332 986M2355 882L2332 986M2449 942L2541 922M2449 942L2470 988M2449 942L2510 970M2541 922L2470 988M2541 922L2510 970M72 997L109 1033M72 997L64 1043M72 997L88 1108M109 1033L204 1039M109 1033L64 1043M109 1033L88 1108M204 1039L265 961M204 1039L208 1066M204 1039L266 1072M363 1001L412 975M363 1001L330 1092M412 975L487 992M487 992L523 1100M608 1028L523 1100M608 1028L624 1081M608 1028L589 1125M712 1036L784 969M712 1036L717 1081M712 1036L731 1050M712 1036L690 1123M784 969L846 1036M784 969L731 1050M846 1036L902 989M846 1036L850 1086M846 1036L916 1101M846 1036L920 1125M1017 1024L1071 1009M1017 1024L968 1096M1017 1024L1048 1103M1071 1009L1171 983M1071 1009L1048 1103M1071 1009L1146 1088M1171 983L1233 991M1233 991L1328 1026M1233 991L1234 1069M1328 1026L1428 1000M1328 1026L1318 1066M1328 1026L1432 1051M1428 1000L1479 1020M1428 1000L1432 1051M1428 1000L1457 1090M1479 1020L1567 984M1479 1020L1432 1051M1479 1020L1457 1090M1479 1020L1542 1066M1567 984L1639 1013M1567 984L1542 1066M1639 1013L1712 987M1639 1013L1607 1095M1639 1013L1693 1047M1712 987L1773 1025M1712 987L1693 1047M1773 1025L1693 1047M1773 1025L1820 1117M1773 1025L1852 1077M1908 1034L1964 961M1908 1034L1852 1077M1908 1034L1966 1108M1964 961L2046 995M2046 995L2112 998M2046 995L2048 1072M2112 998L2168 967M2168 967L2174 1081M2297 1010L2332 986M2297 1010L2319 1083M2332 986L2319 1083M2470 988L2510 970M2470 988L2418 1111M64 1043L88 1108M64 1043L27 1157M88 1108L27 1157M88 1108L127 1164M208 1066L266 1072M208 1066L212 1150M266 1072L330 1092M266 1072L212 1150M266 1072L320 1143M330 1092L425 1108M330 1092L260 1175M330 1092L320 1143M425 1108L523 1100M425 1108L419 1169M425 1108L513 1134M425 1108L380 1205M523 1100L513 1134M523 1100L589 1125M624 1081L717 1081M624 1081L589 1125M624 1081L690 1123M717 1081L731 1050M717 1081L690 1123M717 1081L728 1168M731 1050L690 1123M731 1050L728 1168M850 1086L916 1101M850 1086L968 1096M850 1086L831 1185M850 1086L920 1125M916 1101L968 1096M916 1101L920 1125M968 1096L1048 1103M968 1096L920 1125M1048 1103L1018 1190M1048 1103L1111 1163M1146 1088L1234 1069M1146 1088L1111 1163M1146 1088L1198 1144M1234 1069L1318 1066M1234 1069L1198 1144M1234 1069L1228 1167M1318 1066L1322 1183M1318 1066L1429 1121M1432 1051L1457 1090M1432 1051L1429 1121M1457 1090L1542 1066M1457 1090L1429 1121M1542 1066L1607 1095M1607 1095L1693 1047M1607 1095L1583 1161M1820 1117L1852 1077M1820 1117L1834 1197M1966 1108L2048 1072M1966 1108L1904 1179M1966 1108L1980 1120M2048 1072L2141 1102M2048 1072L1980 1120M2048 1072L2073 1124M2141 1102L2174 1081M2141 1102L2073 1124M2141 1102L2144 1139M2141 1102L2200 1163M2174 1081L2144 1139M2174 1081L2200 1163M2319 1083L2347 1109M2319 1083L2275 1166M2319 1083L2415 1123M2347 1109L2418 1111M2347 1109L2275 1166M2347 1109L2388 1160M2347 1109L2415 1123M2418 1111L2487 1111M2418 1111L2388 1160M2418 1111L2415 1123M2487 1111L2415 1123M2487 1111L2529 1200M27 1157L-31 1200M27 1157L67 1239M2587 1157L2529 1200M127 1164L212 1150M127 1164L116 1235M127 1164L173 1228M212 1150L260 1175M212 1150L173 1228M260 1175L320 1143M260 1175L247 1267M320 1143L419 1169M320 1143L380 1205M419 1169L513 1134M419 1169L380 1205M419 1169L418 1238M513 1134L589 1125M513 1134L502 1246M690 1123L728 1168M728 1168L831 1185M728 1168L710 1257M831 1185L920 1125M831 1185L798 1275M831 1185L831 1276M1018 1190L952 1254M1018 1190L992 1270M1018 1190L1077 1258M1111 1163L1198 1144M1111 1163L1146 1238M1198 1144L1228 1167M1198 1144L1206 1228M1228 1167L1322 1183M1228 1167L1146 1238M1228 1167L1206 1228M1322 1183L1312 1271M1322 1183L1423 1234M1429 1121L1488 1191M1429 1121L1423 1234M1488 1191L1583 1161M1488 1191L1423 1234M1488 1191L1454 1277M1583 1161L1667 1192M1583 1161L1599 1244M1583 1161L1660 1231M1667 1192L1708 1179M1667 1192L1599 1244M1667 1192L1660 1231M1667 1192L1731 1234M1708 1179L1660 1231M1708 1179L1731 1234M1834 1197L1904 1179M1834 1197L1820 1275M1834 1197L1888 1203M1834 1197L1812 1284M1904 1179L1980 1120M1904 1179L1888 1203M1904 1179L1996 1210M1980 1120L2073 1124M1980 1120L1996 1210M2073 1124L2144 1139M2073 1124L2078 1210M2144 1139L2200 1163M2144 1139L2078 1210M2200 1163L2275 1166M2200 1163L2207 1244M2275 1166L2207 1244M2275 1166L2286 1270M2388 1160L2415 1123M2388 1160L2406 1263M2529 1200L2549 1267M67 1239L116 1235M67 1239L-11 1267M67 1239L72 1312M2627 1239L2549 1267M116 1235L173 1228M116 1235L72 1312M116 1235L152 1338M173 1228L247 1267M173 1228L225 1311M247 1267L225 1311M247 1267L277 1309M380 1205L418 1238M380 1205L408 1332M418 1238L502 1246M418 1238L408 1332M502 1246L572 1263M502 1246L534 1316M572 1263L534 1316M572 1263L613 1346M710 1257L798 1275M710 1257L695 1327M710 1257L746 1314M798 1275L831 1276M798 1275L746 1314M798 1275L861 1330M831 1276L861 1330M831 1276L887 1343M952 1254L992 1270M952 1254L887 1343M952 1254L999 1333M992 1270L1077 1258M992 1270L999 1333M1077 1258L1146 1238M1077 1258L1102 1312M1077 1258L1132 1335M1146 1238L1206 1228M1146 1238L1102 1312M1312 1271L1350 1330M1423 1234L1454 1277M1454 1277L1425 1342M1454 1277L1479 1356M1454 1277L1457 1365M1599 1244L1660 1231M1599 1244L1588 1345M1599 1244L1632 1330M1660 1231L1731 1234M1731 1234L1736 1323M1820 1275L1888 1203M1820 1275L1736 1323M1820 1275L1812 1284M1820 1275L1885 1308M1888 1203L1996 1210M1888 1203L1885 1308M1996 1210L2078 1210M1996 1210L1990 1286M2078 1210L2096 1277M2078 1210L2122 1308M2096 1277L1990 1286M2096 1277L2076 1331M2096 1277L2122 1308M2207 1244L2286 1270M2207 1244L2260 1299M2286 1270L2373 1273M2286 1270L2260 1299M2286 1270L2339 1281M2373 1273L2406 1263M2373 1273L2260 1299M2373 1273L2339 1281M2406 1263L2339 1281M2406 1263L2445 1346M2406 1263L2457 1371M2549 1267L2539 1319M72 1312L152 1338M72 1312L-21 1319M72 1312L103 1378M2632 1312L2539 1319M152 1338L225 1311M152 1338L103 1378M225 1311L277 1309M225 1311L329 1351M277 1309L329 1351M277 1309L292 1398M329 1351L408 1332M329 1351L292 1398M329 1351L379 1431M408 1332L379 1431M408 1332L434 1383M534 1316L613 1346M534 1316L552 1435M534 1316L614 1368M613 1346L695 1327M613 1346L614 1368M613 1346L693 1370M695 1327L746 1314M695 1327L614 1368M695 1327L693 1370M746 1314L771 1403M861 1330L887 1343M861 1330L860 1391M861 1330L897 1369M887 1343L860 1391M887 1343L897 1369M999 1333L897 1369M999 1333L1010 1421M1102 1312L1132 1335M1102 1312L1094 1396M1102 1312L1160 1361M1132 1335L1212 1358M1132 1335L1094 1396M1132 1335L1160 1361M1212 1358L1160 1361M1212 1358L1208 1416M1350 1330L1425 1342M1350 1330L1415 1371M1425 1342L1479 1356M1425 1342L1415 1371M1425 1342L1457 1365M1479 1356L1415 1371M1479 1356L1457 1365M1479 1356L1524 1421M1588 1345L1632 1330M1588 1345L1524 1421M1588 1345L1625 1365M1632 1330L1736 1323M1632 1330L1625 1365M1736 1323L1812 1284M1736 1323L1799 1378M1812 1284L1885 1308M1812 1284L1799 1378M1885 1308L1990 1286M1885 1308L1934 1370M1990 1286L2076 1331M1990 1286L1934 1370M2076 1331L2122 1308M2076 1331L2065 1438M2076 1331L2147 1422M2122 1308L2209 1346M2209 1346L2260 1299M2209 1346L2182 1436M2209 1346L2294 1419M2260 1299L2339 1281M2445 1346L2539 1319M2445 1346L2394 1411M2445 1346L2457 1371M2445 1346L2503 1405M2539 1319L2577 1386M2539 1319L2503 1405M-21 1319L17 1386M17 1386L103 1378M17 1386L-57 1405M2577 1386L2503 1405M103 1378L203 1429M379 1431L434 1383M434 1383L552 1435M552 1435L614 1368M614 1368L693 1370M693 1370L771 1403M771 1403L860 1391M860 1391L897 1369M1094 1396L1160 1361M1160 1361L1208 1416M1208 1416L1281 1437M1415 1371L1457 1365M1457 1365L1524 1421M1524 1421L1625 1365M1745 1425L1799 1378M1919 1417L1934 1370M2065 1438L2147 1422M2147 1422L2182 1436M2294 1419L2394 1411M2394 1411L2457 1371M2457 1371L2503 1405"/></svg>