<svg xmlns="http://www.w3.org/2000/svg" width="2560" height="1440" fill="#fff"><circle cx="59" cy="2" r="5"/><circle cx="59" cy="1442" r="5"/><circle cx="121" cy="5" r="6"/><circle cx="121" cy="1445" r="6"/><circle cx="230" cy="14" r="5"/><circle cx="241" cy="4" r="5"/><circle cx="241" cy="1444" r="5"/><circle cx="383" cy="77" r="5"/><circle cx="416" cy="55" r="5"/><circle cx="538" cy="13" r="4"/><circle cx="584" cy="75" r="4"/><circle cx="663" cy="3" r="5"/><circle cx="663" cy="1443" r="5"/><circle cx="757" cy="1" r="6"/><circle cx="757" cy="1441" r="6"/><circle cx="809" cy="64" r="4"/><circle cx="883" cy="47" r="5"/><circle cx="1037" cy="24" r="5"/><circle cx="1091" cy="35" r="4"/><circle cx="1138" cy="13" r="5"/><circle cx="1227" cy="33" r="5"/><circle cx="1316" cy="44" r="6"/><circle cx="1420" cy="66" r="5"/><circle cx="1458" cy="50" r="5"/><circle cx="1578" cy="40" r="5"/><circle cx="1667" cy="72" r="5"/><circle cx="1746" cy="15" r="5"/><circle cx="1801" cy="57" r="5"/><circle cx="1848" cy="8" r="4"/><circle cx="1973" cy="59" r="5"/><circle cx="2074" cy="57" r="4"/><circle cx="2084" cy="44" r="5"/><circle cx="2228" cy="28" r="4"/><circle cx="2293" cy="69" r="5"/><circle cx="2389" cy="45" r="4"/><circle cx="2454" cy="4" r="5"/><circle cx="2454" cy="1444" r="5"/><circle cx="2511" cy="71" r="5"/><circle cx="37" cy="111" r="5"/><circle cx="102" cy="112" r="5"/><circle cx="180" cy="123" r="5"/><circle cx="252" cy="108" r="6"/><circle cx="344" cy="123" r="4"/><circle cx="445" cy="94" r="5"/><circle cx="536" cy="117" r="5"/><circle cx="600" cy="102" r="6"/><circle cx="712" cy="110" r="6"/><circle cx="780" cy="82" r="5"/><circle cx="813" cy="85" r="5"/><circle cx="911" cy="143" r="5"/><circle cx="1015" cy="128" r="6"/><circle cx="1114" cy="127" r="5"/><circle cx="1162" cy="159" r="6"/><circle cx="1218" cy="148" r="5"/><circle cx="1333" cy="150" r="4"/><circle cx="1425" cy="125" r="5"/><circle cx="1449" cy="122" r="6"/><circle cx="1541" cy="117" r="4"/><circle cx="1631" cy="107" r="4"/><circle cx="1725" cy="110" r="5"/><circle cx="1768" cy="82" r="4"/><circle cx="1859" cy="148" r="5"/><circle cx="1942" cy="82" r="5"/><circle cx="2019" cy="96" r="5"/><circle cx="2126" cy="135" r="4"/><circle cx="2170" cy="105" r="5"/><circle cx="2317" cy="95" r="5"/><circle cx="2388" cy="104" r="6"/><circle cx="2443" cy="113" r="6"/><circle cx="2514" cy="136" r="5"/><circle cx="3" cy="211" r="6"/><circle cx="2563" cy="211" r="6"/><circle cx="151" cy="178" r="5"/><circle cx="169" cy="180" r="5"/><circle cx="268" cy="193" r="4"/><circle cx="332" cy="215" r="5"/><circle cx="407" cy="230" r="4"/><circle cx="505" cy="170" r="5"/><circle cx="567" cy="179" r="5"/><circle cx="715" cy="181" r="6"/><circle cx="753" cy="167" r="5"/><circle cx="839" cy="225" r="4"/><circle cx="890" cy="210" r="5"/><circle cx="969" cy="233" r="5"/><circle cx="1041" cy="180" r="6"/><circle cx="1126" cy="227" r="4"/><circle cx="1202" cy="217" r="5"/><circle cx="1332" cy="225" r="5"/><circle cx="1416" cy="208" r="6"/><circle cx="1455" cy="192" r="4"/><circle cx="1583" cy="223" r="6"/><circle cx="1616" cy="211" r="6"/><circle cx="1745" cy="198" r="6"/><circle cx="1810" cy="215" r="4"/><circle cx="1860" cy="239" r="4"/><circle cx="1973" cy="216" r="5"/><circle cx="2072" cy="197" r="4"/><circle cx="2127" cy="204" r="5"/><circle cx="2214" cy="215" r="5"/><circle cx="2288" cy="201" r="5"/><circle cx="2363" cy="200" r="5"/><circle cx="2467" cy="197" r="6"/><circle cx="2552" cy="212" r="5"/><circle cx="12" cy="241" r="5"/><circle cx="157" cy="255" r="6"/><circle cx="236" cy="289" r="5"/><circle cx="298" cy="294" r="6"/><circle cx="394" cy="247" r="5"/><circle cx="421" cy="306" r="6"/><circle cx="515" cy="266" r="5"/><circle cx="598" cy="307" r="5"/><circle cx="670" cy="282" r="6"/><circle cx="772" cy="292" r="4"/><circle cx="819" cy="265" r="6"/><circle cx="901" cy="276" r="5"/><circle cx="1015" cy="292" r="5"/><circle cx="1097" cy="268" r="5"/><circle cx="1163" cy="294" r="6"/><circle cx="1256" cy="302" r="4"/><circle cx="1344" cy="267" r="6"/><circle cx="1364" cy="247" r="5"/><circle cx="1458" cy="280" r="5"/><circle cx="1570" cy="300" r="5"/><circle cx="1650" cy="318" r="4"/><circle cx="1739" cy="278" r="5"/><circle cx="1834" cy="306" r="5"/><circle cx="1840" cy="281" r="5"/><circle cx="1923" cy="285" r="4"/><circle cx="2012" cy="244" r="4"/><circle cx="2155" cy="274" r="5"/><circle cx="2172" cy="261" r="6"/><circle cx="2272" cy="281" r="5"/><circle cx="2357" cy="267" r="5"/><circle cx="2432" cy="273" r="4"/><circle cx="2534" cy="318" r="6"/><circle cx="74" cy="336" r="4"/><circle cx="83" cy="365" r="4"/><circle cx="213" cy="400" r="6"/><circle cx="285" cy="356" r="5"/><circle cx="398" cy="360" r="5"/><circle cx="415" cy="338" r="5"/><circle cx="534" cy="392" r="4"/><circle cx="621" cy="385" r="5"/><circle cx="709" cy="396" r="4"/><circle cx="773" cy="337" r="6"/><circle cx="851" cy="376" r="5"/><circle cx="937" cy="322" r="6"/><circle cx="1006" cy="392" r="5"/><circle cx="1075" cy="386" r="5"/><circle cx="1191" cy="375" r="6"/><circle cx="1231" cy="332" r="5"/><circle cx="1288" cy="376" r="5"/><circle cx="1412" cy="367" r="5"/><circle cx="1513" cy="389" r="5"/><circle cx="1576" cy="372" r="5"/><circle cx="1672" cy="398" r="6"/><circle cx="1759" cy="327" r="4"/><circle cx="1819" cy="360" r="5"/><circle cx="1849" cy="341" r="6"/><circle cx="1928" cy="377" r="5"/><circle cx="2027" cy="390" r="5"/><circle cx="2134" cy="346" r="6"/><circle cx="2198" cy="367" r="4"/><circle cx="2299" cy="382" r="5"/><circle cx="2358" cy="366" r="4"/><circle cx="2428" cy="346" r="4"/><circle cx="2488" cy="343" r="5"/><circle cx="53" cy="411" r="6"/><circle cx="131" cy="416" r="6"/><circle cx="180" cy="401" r="4"/><circle cx="279" cy="442" r="5"/><circle cx="375" cy="457" r="5"/><circle cx="429" cy="446" r="6"/><circle cx="528" cy="477" r="6"/><circle cx="610" cy="456" r="4"/><circle cx="708" cy="436" r="5"/><circle cx="755" cy="445" r="5"/><circle cx="831" cy="467" r="5"/><circle cx="905" cy="451" r="5"/><circle cx="1037" cy="446" r="5"/><circle cx="1096" cy="411" r="6"/><circle cx="1182" cy="437" r="6"/><circle cx="1252" cy="453" r="4"/><circle cx="1326" cy="423" r="5"/><circle cx="1368" cy="401" r="5"/><circle cx="1476" cy="471" r="5"/><circle cx="1594" cy="424" r="6"/><circle cx="1611" cy="410" r="5"/><circle cx="1754" cy="407" r="5"/><circle cx="1782" cy="427" r="6"/><circle cx="1870" cy="452" r="5"/><circle cx="1928" cy="404" r="5"/><circle cx="2061" cy="466" r="6"/><circle cx="2117" cy="426" r="4"/><circle cx="2238" cy="427" r="5"/><circle cx="2253" cy="420" r="5"/><circle cx="2356" cy="434" r="4"/><circle cx="2446" cy="454" r="5"/><circle cx="2512" cy="414" r="4"/><circle cx="79" cy="553" r="5"/><circle cx="122" cy="513" r="5"/><circle cx="214" cy="514" r="5"/><circle cx="246" cy="495" r="5"/><circle cx="385" cy="547" r="5"/><circle cx="408" cy="546" r="6"/><circle cx="491" cy="509" r="4"/><circle cx="594" cy="522" r="6"/><circle cx="696" cy="535" r="5"/><circle cx="734" cy="505" r="6"/><circle cx="867" cy="509" r="6"/><circle cx="917" cy="548" r="5"/><circle cx="977" cy="504" r="5"/><circle cx="1060" cy="484" r="6"/><circle cx="1157" cy="485" r="4"/><circle cx="1224" cy="528" r="5"/><circle cx="1330" cy="517" r="6"/><circle cx="1375" cy="553" r="5"/><circle cx="1442" cy="481" r="6"/><circle cx="1556" cy="495" r="5"/><circle cx="1600" cy="522" r="4"/><circle cx="1757" cy="494" r="6"/><circle cx="1803" cy="484" r="5"/><circle cx="1915" cy="527" r="5"/><circle cx="1970" cy="554" r="5"/><circle cx="2003" cy="558" r="5"/><circle cx="2155" cy="508" r="6"/><circle cx="2234" cy="526" r="6"/><circle cx="2308" cy="530" r="5"/><circle cx="2388" cy="533" r="5"/><circle cx="2407" cy="485" r="5"/><circle cx="2534" cy="525" r="5"/><circle cx="41" cy="591" r="6"/><circle cx="117" cy="601" r="6"/><circle cx="161" cy="604" r="5"/><circle cx="275" cy="575" r="5"/><circle cx="349" cy="564" r="6"/><circle cx="445" cy="587" r="5"/><circle cx="543" cy="638" r="4"/><circle cx="636" cy="593" r="6"/><circle cx="657" cy="592" r="5"/><circle cx="744" cy="606" r="6"/><circle cx="839" cy="564" r="6"/><circle cx="898" cy="613" r="4"/><circle cx="1021" cy="603" r="5"/><circle cx="1060" cy="623" r="4"/><circle cx="1123" cy="561" r="4"/><circle cx="1254" cy="588" r="4"/><circle cx="1323" cy="599" r="4"/><circle cx="1429" cy="629" r="5"/><circle cx="1490" cy="635" r="5"/><circle cx="1577" cy="578" r="6"/><circle cx="1613" cy="613" r="4"/><circle cx="1737" cy="565" r="5"/><circle cx="1778" cy="601" r="6"/><circle cx="1852" cy="608" r="6"/><circle cx="1971" cy="613" r="5"/><circle cx="2073" cy="588" r="5"/><circle cx="2085" cy="573" r="5"/><circle cx="2199" cy="627" r="5"/><circle cx="2293" cy="611" r="5"/><circle cx="2370" cy="576" r="5"/><circle cx="2430" cy="577" r="5"/><circle cx="2505" cy="575" r="6"/><circle cx="30" cy="679" r="5"/><circle cx="145" cy="691" r="5"/><circle cx="197" cy="702" r="6"/><circle cx="319" cy="652" r="5"/><circle cx="328" cy="687" r="4"/><circle cx="423" cy="656" r="5"/><circle cx="526" cy="664" r="5"/><circle cx="576" cy="687" r="6"/><circle cx="680" cy="653" r="5"/><circle cx="738" cy="662" r="5"/><circle cx="874" cy="709" r="5"/><circle cx="960" cy="674" r="6"/><circle cx="988" cy="696" r="5"/><circle cx="1076" cy="703" r="5"/><circle cx="1131" cy="659" r="5"/><circle cx="1218" cy="697" r="4"/><circle cx="1290" cy="658" r="6"/><circle cx="1388" cy="692" r="4"/><circle cx="1448" cy="681" r="4"/><circle cx="1521" cy="644" r="6"/><circle cx="1657" cy="668" r="6"/><circle cx="1741" cy="681" r="5"/><circle cx="1832" cy="651" r="5"/><circle cx="1864" cy="651" r="5"/><circle cx="1968" cy="655" r="5"/><circle cx="2055" cy="701" r="6"/><circle cx="2114" cy="675" r="5"/><circle cx="2188" cy="674" r="4"/><circle cx="2277" cy="716" r="5"/><circle cx="2368" cy="688" r="6"/><circle cx="2468" cy="713" r="5"/><circle cx="2487" cy="644" r="5"/><circle cx="75" cy="722" r="4"/><circle cx="151" cy="741" r="6"/><circle cx="219" cy="764" r="6"/><circle cx="278" cy="761" r="5"/><circle cx="394" cy="772" r="5"/><circle cx="408" cy="754" r="4"/><circle cx="497" cy="792" r="5"/><circle cx="570" cy="779" r="6"/><circle cx="694" cy="760" r="5"/><circle cx="760" cy="778" r="5"/><circle cx="820" cy="781" r="5"/><circle cx="944" cy="786" r="6"/><circle cx="1028" cy="789" r="4"/><circle cx="1089" cy="763" r="6"/><circle cx="1152" cy="760" r="5"/><circle cx="1203" cy="768" r="6"/><circle cx="1318" cy="737" r="5"/><circle cx="1405" cy="738" r="4"/><circle cx="1497" cy="744" r="5"/><circle cx="1555" cy="735" r="5"/><circle cx="1601" cy="750" r="6"/><circle cx="1722" cy="732" r="5"/><circle cx="1822" cy="730" r="6"/><circle cx="1896" cy="798" r="5"/><circle cx="1995" cy="754" r="5"/><circle cx="2079" cy="800" r="6"/><circle cx="2113" cy="761" r="6"/><circle cx="2224" cy="782" r="5"/><circle cx="2281" cy="726" r="4"/><circle cx="2331" cy="721" r="6"/><circle cx="2462" cy="738" r="6"/><circle cx="2494" cy="751" r="4"/><circle cx="29" cy="803" r="6"/><circle cx="112" cy="834" r="4"/><circle cx="185" cy="843" r="5"/><circle cx="294" cy="818" r="6"/><circle cx="333" cy="863" r="6"/><circle cx="454" cy="820" r="4"/><circle cx="556" cy="822" r="5"/><circle cx="624" cy="840" r="5"/><circle cx="660" cy="865" r="4"/><circle cx="739" cy="852" r="6"/><circle cx="876" cy="822" r="4"/><circle cx="905" cy="824" r="6"/><circle cx="998" cy="851" r="5"/><circle cx="1082" cy="830" r="4"/><circle cx="1133" cy="875" r="4"/><circle cx="1249" cy="833" r="6"/><circle cx="1328" cy="877" r="5"/><circle cx="1367" cy="825" r="5"/><circle cx="1511" cy="804" r="5"/><circle cx="1559" cy="820" r="4"/><circle cx="1602" cy="855" r="4"/><circle cx="1758" cy="818" r="5"/><circle cx="1761" cy="859" r="5"/><circle cx="1919" cy="868" r="4"/><circle cx="1969" cy="810" r="4"/><circle cx="2054" cy="830" r="5"/><circle cx="2121" cy="835" r="6"/><circle cx="2188" cy="803" r="6"/><circle cx="2305" cy="865" r="5"/><circle cx="2376" cy="813" r="6"/><circle cx="2421" cy="848" r="5"/><circle cx="2514" cy="823" r="5"/><circle cx="5" cy="889" r="6"/><circle cx="2565" cy="889" r="6"/><circle cx="158" cy="958" r="6"/><circle cx="236" cy="957" r="6"/><circle cx="296" cy="936" r="6"/><circle cx="397" cy="950" r="5"/><circle cx="449" cy="890" r="4"/><circle cx="492" cy="938" r="5"/><circle cx="618" cy="958" r="5"/><circle cx="645" cy="959" r="5"/><circle cx="763" cy="950" r="6"/><circle cx="853" cy="938" r="5"/><circle cx="955" cy="901" r="6"/><circle cx="963" cy="938" r="5"/><circle cx="1080" cy="942" r="5"/><circle cx="1177" cy="920" r="4"/><circle cx="1259" cy="904" r="6"/><circle cx="1295" cy="944" r="4"/><circle cx="1412" cy="934" r="5"/><circle cx="1491" cy="892" r="6"/><circle cx="1532" cy="907" r="5"/><circle cx="1640" cy="939" r="5"/><circle cx="1692" cy="951" r="5"/><circle cx="1827" cy="889" r="5"/><circle cx="1894" cy="931" r="6"/><circle cx="1966" cy="922" r="5"/><circle cx="2050" cy="935" r="5"/><circle cx="2081" cy="914" r="5"/><circle cx="2163" cy="958" r="5"/><circle cx="2259" cy="932" r="5"/><circle cx="2373" cy="883" r="5"/><circle cx="2417" cy="922" r="4"/><circle cx="2481" cy="914" r="6"/><circle cx="48" cy="1000" r="5"/><circle cx="101" cy="985" r="5"/><circle cx="171" cy="970" r="6"/><circle cx="262" cy="978" r="5"/><circle cx="365" cy="983" r="5"/><circle cx="443" cy="961" r="5"/><circle cx="539" cy="1014" r="4"/><circle cx="608" cy="1016" r="6"/><circle cx="657" cy="1002" r="5"/><circle cx="780" cy="1019" r="5"/><circle cx="868" cy="1013" r="4"/><circle cx="909" cy="1031" r="5"/><circle cx="990" cy="1029" r="4"/><circle cx="1057" cy="966" r="5"/><circle cx="1173" cy="992" r="4"/><circle cx="1232" cy="967" r="5"/><circle cx="1329" cy="1037" r="6"/><circle cx="1399" cy="963" r="5"/><circle cx="1512" cy="1001" r="5"/><circle cx="1575" cy="1024" r="5"/><circle cx="1617" cy="987" r="4"/><circle cx="1684" cy="976" r="4"/><circle cx="1817" cy="990" r="4"/><circle cx="1917" cy="995" r="5"/><circle cx="1923" cy="1037" r="5"/><circle cx="2018" cy="998" r="5"/><circle cx="2090" cy="970" r="4"/><circle cx="2186" cy="984" r="5"/><circle cx="2262" cy="1034" r="5"/><circle cx="2381" cy="980" r="6"/><circle cx="2418" cy="1001" r="6"/><circle cx="2519" cy="967" r="5"/><circle cx="42" cy="1047" r="4"/><circle cx="139" cy="1117" r="5"/><circle cx="209" cy="1080" r="5"/><circle cx="248" cy="1100" r="5"/><circle cx="377" cy="1048" r="5"/><circle cx="459" cy="1045" r="5"/><circle cx="505" cy="1050" r="6"/><circle cx="616" cy="1106" r="5"/><circle cx="673" cy="1110" r="5"/><circle cx="740" cy="1091" r="6"/><circle cx="864" cy="1069" r="5"/><circle cx="917" cy="1111" r="4"/><circle cx="1007" cy="1090" r="4"/><circle cx="1040" cy="1080" r="6"/><circle cx="1146" cy="1048" r="6"/><circle cx="1277" cy="1100" r="5"/><circle cx="1304" cy="1090" r="5"/><circle cx="1372" cy="1106" r="4"/><circle cx="1520" cy="1107" r="5"/><circle cx="1575" cy="1092" r="6"/><circle cx="1656" cy="1099" r="6"/><circle cx="1691" cy="1056" r="6"/><circle cx="1777" cy="1058" r="4"/><circle cx="1869" cy="1047" r="5"/><circle cx="1958" cy="1073" r="4"/><circle cx="2070" cy="1051" r="5"/><circle cx="2106" cy="1108" r="5"/><circle cx="2237" cy="1099" r="4"/><circle cx="2263" cy="1096" r="6"/><circle cx="2376" cy="1066" r="5"/><circle cx="2404" cy="1044" r="5"/><circle cx="2526" cy="1088" r="5"/><circle cx="40" cy="1135" r="5"/><circle cx="152" cy="1131" r="5"/><circle cx="179" cy="1143" r="5"/><circle cx="312" cy="1155" r="5"/><circle cx="386" cy="1149" r="5"/><circle cx="450" cy="1141" r="5"/><circle cx="541" cy="1131" r="5"/><circle cx="626" cy="1137" r="6"/><circle cx="700" cy="1196" r="5"/><circle cx="759" cy="1123" r="5"/><circle cx="823" cy="1193" r="5"/><circle cx="954" cy="1192" r="5"/><circle cx="964" cy="1173" r="4"/><circle cx="1074" cy="1165" r="4"/><circle cx="1154" cy="1128" r="6"/><circle cx="1207" cy="1144" r="6"/><circle cx="1310" cy="1132" r="6"/><circle cx="1406" cy="1131" r="5"/><circle cx="1475" cy="1127" r="5"/><circle cx="1556" cy="1182" r="6"/><circle cx="1621" cy="1185" r="5"/><circle cx="1722" cy="1158" r="5"/><circle cx="1833" cy="1158" r="6"/><circle cx="1858" cy="1197" r="6"/><circle cx="1986" cy="1159" r="5"/><circle cx="2026" cy="1150" r="6"/><circle cx="2159" cy="1149" r="4"/><circle cx="2189" cy="1147" r="4"/><circle cx="2259" cy="1197" r="6"/><circle cx="2358" cy="1161" r="5"/><circle cx="2403" cy="1150" r="4"/><circle cx="2535" cy="1163" r="5"/><circle cx="38" cy="1205" r="6"/><circle cx="88" cy="1239" r="4"/><circle cx="185" cy="1274" r="4"/><circle cx="278" cy="1226" r="5"/><circle cx="353" cy="1226" r="4"/><circle cx="446" cy="1275" r="5"/><circle cx="508" cy="1225" r="6"/><circle cx="590" cy="1228" r="5"/><circle cx="642" cy="1230" r="6"/><circle cx="746" cy="1247" r="4"/><circle cx="876" cy="1212" r="5"/><circle cx="917" cy="1204" r="5"/><circle cx="986" cy="1218" r="5"/><circle cx="1062" cy="1239" r="5"/><circle cx="1159" cy="1219" r="5"/><circle cx="1251" cy="1240" r="5"/><circle cx="1286" cy="1261" r="5"/><circle cx="1387" cy="1227" r="5"/><circle cx="1473" cy="1235" r="6"/><circle cx="1558" cy="1261" r="6"/><circle cx="1667" cy="1200" r="4"/><circle cx="1684" cy="1229" r="5"/><circle cx="1770" cy="1212" r="5"/><circle cx="1905" cy="1247" r="5"/><circle cx="1980" cy="1214" r="5"/><circle cx="2068" cy="1200" r="5"/><circle cx="2123" cy="1274" r="5"/><circle cx="2233" cy="1279" r="6"/><circle cx="2306" cy="1235" r="5"/><circle cx="2321" cy="1254" r="6"/><circle cx="2438" cy="1276" r="5"/><circle cx="2508" cy="1275" r="5"/><circle cx="26" cy="1319" r="4"/><circle cx="153" cy="1344" r="5"/><circle cx="206" cy="1357" r="6"/><circle cx="246" cy="1316" r="4"/><circle cx="362" cy="1344" r="4"/><circle cx="457" cy="1306" r="4"/><circle cx="529" cy="1346" r="4"/><circle cx="587" cy="1352" r="6"/><circle cx="666" cy="1287" r="6"/><circle cx="750" cy="1314" r="4"/><circle cx="864" cy="1305" r="6"/><circle cx="947" cy="1318" r="6"/><circle cx="993" cy="1283" r="5"/><circle cx="1102" cy="1330" r="5"/><circle cx="1150" cy="1293" r="5"/><circle cx="1239" cy="1324" r="4"/><circle cx="1288" cy="1353" r="5"/><circle cx="1389" cy="1327" r="5"/><circle cx="1478" cy="1306" r="6"/><circle cx="1578" cy="1316" r="5"/><circle cx="1618" cy="1323" r="5"/><circle cx="1747" cy="1283" r="6"/><circle cx="1819" cy="1351" r="5"/><circle cx="1909" cy="1329" r="4"/><circle cx="1932" cy="1299" r="5"/><circle cx="2070" cy="1355" r="4"/><circle cx="2159" cy="1307" r="6"/><circle cx="2211" cy="1317" r="5"/><circle cx="2305" cy="1295" r="4"/><circle cx="2348" cy="1358" r="4"/><circle cx="2447" cy="1288" r="5"/><circle cx="2481" cy="1301" r="5"/><circle cx="12" cy="1421" r="5"/><circle cx="101" cy="1410" r="5"/><circle cx="178" cy="1437" r="6"/><circle cx="178" cy="-3" r="6"/><circle cx="276" cy="1396" r="6"/><circle cx="339" cy="1409" r="4"/><circle cx="417" cy="1419" r="6"/><circle cx="532" cy="1365" r="5"/><circle cx="615" cy="1404" r="5"/><circle cx="649" cy="1415" r="4"/><circle cx="744" cy="1413" r="4"/><circle cx="824" cy="1361" r="5"/><circle cx="947" cy="1429" r="5"/><circle cx="979" cy="1400" r="4"/><circle cx="1059" cy="1409" r="4"/><circle cx="1199" cy="1380" r="5"/><circle cx="1216" cy="1362" r="6"/><circle cx="1284" cy="1423" r="6"/><circle cx="1365" cy="1385" r="5"/><circle cx="1464" cy="1438" r="4"/><circle cx="1464" cy="-2" r="4"/><circle cx="1568" cy="1390" r="4"/><circle cx="1665" cy="1371" r="6"/><circle cx="1688" cy="1398" r="4"/><circle cx="1830" cy="1400" r="5"/><circle cx="1877" cy="1405" r="5"/><circle cx="1954" cy="1422" r="6"/><circle cx="2008" cy="1386" r="6"/><circle cx="2111" cy="1390" r="4"/><circle cx="2167" cy="1403" r="6"/><circle cx="2292" cy="1410" r="5"/><circle cx="2378" cy="1361" r="5"/><circle cx="2402" cy="1396" r="5"/><circle cx="2553" cy="1437" r="4"/><circle cx="2553" cy="-3" r="4"/><path stroke="#fff" d="M59 2L121 5M59 2L12 -19M59 2L101 -30M59 2L-7 -3M2619 2L2553 -3M59 1442L12 1421M59 1442L101 1410M59 1442L-7 1437M2619 1442L2553 1437M121 5L102 112M121 5L153 -96M121 5L101 -30M121 5L178 -3M121 1445L153 1344M121 1445L101 1410M121 1445L178 1437M230 14L241 4M230 14L252 108M230 14L178 -3M230 14L276 -44M230 1454L178 1437M230 1454L276 1396M241 4L252 108M241 4L178 -3M241 4L276 -44M241 1444L178 1437M241 1444L276 1396M383 77L416 55M383 77L344 123M383 77L445 94M383 77L417 -21M383 1517L417 1419M416 55L344 123M416 55L445 94M416 55L339 -31M416 55L417 -21M416 1495L339 1409M416 1495L417 1419M538 13L584 75M538 13L532 -75M538 13L615 -36M538 1453L532 1365M538 1453L615 1404M584 75L536 117M584 75L600 102M584 75L567 179M663 3L757 1M663 3L600 102M663 3L615 -36M663 3L649 -25M663 3L744 -27M663 1443L615 1404M663 1443L649 1415M663 1443L744 1413M757 1L809 64M757 1L780 82M757 1L813 85M757 1L744 -27M757 1441L744 1413M809 64L883 47M809 64L780 82M809 64L813 85M883 47L813 85M883 47L911 143M883 47L947 -11M883 1487L947 1429M1037 24L1091 35M1037 24L1015 128M1037 24L947 -11M1037 24L979 -40M1037 24L1059 -31M1037 1464L947 1429M1037 1464L979 1400M1037 1464L1059 1409M1091 35L1138 13M1091 35L1114 127M1091 35L1059 -31M1091 1475L1059 1409M1138 13L1227 33M1138 13L1059 -31M1138 13L1199 -60M1138 1453L1059 1409M1138 1453L1199 1380M1227 33L1316 44M1227 33L1199 -60M1227 33L1284 -17M1227 1473L1199 1380M1227 1473L1284 1423M1316 44L1420 66M1316 44L1333 150M1316 44L1284 -17M1316 44L1365 -55M1316 1484L1284 1423M1316 1484L1365 1385M1420 66L1458 50M1420 66L1425 125M1420 66L1449 122M1420 66L1464 -2M1420 1506L1464 1438M1458 50L1425 125M1458 50L1449 122M1458 50L1541 117M1458 50L1464 -2M1458 1490L1464 1438M1578 40L1667 72M1578 40L1541 117M1578 40L1631 107M1578 40L1568 -50M1578 1480L1568 1390M1667 72L1746 15M1667 72L1631 107M1667 72L1725 110M1667 72L1768 82M1746 15L1801 57M1746 15L1725 110M1746 15L1768 82M1746 15L1688 -42M1746 1455L1688 1398M1801 57L1848 8M1801 57L1725 110M1801 57L1768 82M1801 57L1830 -40M1801 1497L1830 1400M1848 8L1819 -89M1848 8L1830 -40M1848 8L1877 -35M1848 1448L1819 1351M1848 1448L1830 1400M1848 1448L1877 1405M1973 59L2074 57M1973 59L1942 82M1973 59L2019 96M1973 59L1954 -18M1973 59L2008 -54M1973 1499L1954 1422M1973 1499L2008 1386M2074 57L2084 44M2074 57L2019 96M2074 57L2126 135M2074 57L2170 105M2084 44L2019 96M2084 44L2170 105M2084 44L2111 -50M2084 1484L2111 1390M2228 28L2293 69M2228 28L2170 105M2228 28L2167 -37M2228 28L2292 -30M2228 1468L2167 1403M2228 1468L2292 1410M2293 69L2317 95M2293 69L2388 104M2293 69L2292 -30M2293 1509L2292 1410M2389 45L2454 4M2389 45L2317 95M2389 45L2388 104M2389 45L2443 113M2389 45L2402 -44M2389 1485L2402 1396M2454 4L2511 71M2454 4L2402 -44M2454 4L2553 -3M2454 1444L2402 1396M2454 1444L2553 1437M2511 71L2597 111M2511 71L2443 113M2511 71L2514 136M2511 71L2553 -3M-49 71L37 111M2511 1511L2553 1437M37 111L102 112M102 112L180 123M102 112L151 178M102 112L169 180M180 123L252 108M180 123L151 178M180 123L169 180M252 108L344 123M252 108L268 193M344 123L332 215M445 94L536 117M445 94L505 170M445 94L417 -21M445 1534L417 1419M536 117L600 102M536 117L505 170M536 117L567 179M600 102L712 110M600 102L567 179M712 110L780 82M712 110L813 85M712 110L715 181M712 110L753 167M780 82L813 85M780 82L753 167M911 143L1015 128M911 143L890 210M1015 128L1114 127M1015 128L1041 180M1114 127L1162 159M1114 127L1218 148M1114 127L1041 180M1162 159L1218 148M1162 159L1126 227M1162 159L1202 217M1218 148L1202 217M1333 150L1332 225M1333 150L1364 247M1425 125L1449 122M1425 125L1416 208M1425 125L1455 192M1449 122L1455 192M1541 117L1631 107M1541 117L1583 223M1631 107L1616 211M1725 110L1768 82M1725 110L1745 198M1859 148L1942 82M1859 148L1810 215M1942 82L2019 96M1942 82L1954 -18M1942 1522L1954 1422M2126 135L2170 105M2126 135L2072 197M2126 135L2127 204M2317 95L2388 104M2317 95L2288 201M2388 104L2443 113M2388 104L2363 200M2443 113L2514 136M2443 113L2467 197M2514 136L2563 211M2514 136L2467 197M2514 136L2552 212M-46 136L3 211M3 211L-93 197M3 211L-8 212M3 211L12 241M3 211L-26 318M2563 211L2467 197M2563 211L2552 212M2563 211L2534 318M151 178L169 180M151 178L157 255M169 180L268 193M169 180L157 255M268 193L332 215M268 193L236 289M268 193L298 294M332 215L407 230M332 215L298 294M332 215L394 247M407 230L394 247M407 230L421 306M407 230L415 338M505 170L567 179M505 170L515 266M567 179L515 266M715 181L753 167M715 181L670 282M715 181L772 292M753 167L839 225M839 225L890 210M839 225L772 292M839 225L819 265M839 225L901 276M890 210L969 233M890 210L819 265M890 210L901 276M969 233L1041 180M969 233L901 276M969 233L1015 292M969 233L937 322M1041 180L1126 227M1041 180L1097 268M1126 227L1202 217M1126 227L1097 268M1126 227L1163 294M1202 217L1163 294M1202 217L1256 302M1332 225L1416 208M1332 225L1344 267M1332 225L1364 247M1416 208L1455 192M1416 208L1364 247M1416 208L1458 280M1455 192L1458 280M1583 223L1616 211M1583 223L1570 300M1616 211L1745 198M1616 211L1570 300M1745 198L1810 215M1745 198L1739 278M1810 215L1860 239M1810 215L1739 278M1810 215L1840 281M1860 239L1834 306M1860 239L1840 281M1860 239L1923 285M1973 216L2072 197M1973 216L1923 285M1973 216L2012 244M2072 197L2127 204M2072 197L2012 244M2127 204L2214 215M2127 204L2155 274M2127 204L2172 261M2214 215L2288 201M2214 215L2155 274M2214 215L2172 261M2214 215L2272 281M2288 201L2363 200M2288 201L2272 281M2288 201L2357 267M2363 200L2357 267M2363 200L2432 273M2467 197L2552 212M2467 197L2432 273M2552 212L2572 241M2552 212L2534 318M-8 212L12 241M12 241L-26 318M12 241L74 336M2572 241L2534 318M157 255L236 289M157 255L74 336M236 289L298 294M236 289L285 356M298 294L394 247M298 294L285 356M394 247L421 306M394 247L415 338M421 306L515 266M421 306L398 360M421 306L415 338M515 266L598 307M598 307L670 282M598 307L534 392M598 307L621 385M670 282L772 292M670 282L773 337M772 292L819 265M772 292L773 337M819 265L901 276M819 265L773 337M901 276L937 322M1015 292L1097 268M1015 292L937 322M1097 268L1163 294M1163 294L1191 375M1163 294L1231 332M1256 302L1344 267M1256 302L1231 332M1256 302L1288 376M1344 267L1364 247M1344 267L1458 280M1364 247L1458 280M1458 280L1412 367M1570 300L1650 318M1570 300L1576 372M1650 318L1672 398M1739 278L1759 327M1834 306L1840 281M1834 306L1759 327M1834 306L1819 360M1834 306L1849 341M1840 281L1849 341M1923 285L2012 244M1923 285L1928 377M2155 274L2172 261M2155 274L2134 346M2172 261L2272 281M2172 261L2134 346M2272 281L2357 267M2272 281L2299 382M2357 267L2432 273M2357 267L2358 366M2432 273L2428 346M2432 273L2488 343M2534 318L2488 343M2534 318L2512 414M74 336L83 365M74 336L53 411M83 365L53 411M83 365L131 416M83 365L180 401M213 400L285 356M213 400L131 416M213 400L180 401M213 400L279 442M213 400L246 495M285 356L398 360M285 356L279 442M398 360L415 338M398 360L429 446M534 392L621 385M534 392L528 477M534 392L610 456M621 385L709 396M621 385L610 456M621 385L708 436M709 396L773 337M709 396L708 436M709 396L755 445M773 337L851 376M851 376L937 322M851 376L831 467M851 376L905 451M937 322L1006 392M1006 392L1075 386M1006 392L1037 446M1006 392L1096 411M1075 386L1037 446M1075 386L1096 411M1075 386L1060 484M1191 375L1231 332M1191 375L1288 376M1191 375L1182 437M1231 332L1288 376M1288 376L1326 423M1288 376L1368 401M1412 367L1513 389M1412 367L1326 423M1412 367L1368 401M1412 367L1442 481M1513 389L1576 372M1513 389L1476 471M1513 389L1594 424M1513 389L1611 410M1576 372L1672 398M1576 372L1594 424M1576 372L1611 410M1672 398L1594 424M1672 398L1611 410M1672 398L1754 407M1759 327L1819 360M1759 327L1849 341M1759 327L1754 407M1819 360L1849 341M1819 360L1754 407M1819 360L1782 427M1849 341L1928 377M1928 377L2027 390M1928 377L1870 452M1928 377L1928 404M2027 390L2134 346M2027 390L1928 404M2027 390L2061 466M2027 390L2117 426M2134 346L2198 367M2134 346L2117 426M2198 367L2117 426M2198 367L2238 427M2198 367L2253 420M2299 382L2358 366M2299 382L2238 427M2299 382L2253 420M2299 382L2356 434M2358 366L2428 346M2358 366L2356 434M2428 346L2488 343M2488 343L2512 414M53 411L131 416M53 411L-48 414M2613 411L2512 414M131 416L180 401M131 416L122 513M279 442L375 457M279 442L214 514M279 442L246 495M375 457L429 446M375 457L385 547M375 457L408 546M429 446L528 477M429 446L408 546M429 446L491 509M528 477L610 456M528 477L491 509M528 477L594 522M610 456L594 522M708 436L755 445M708 436L734 505M755 445L831 467M755 445L734 505M831 467L905 451M831 467L867 509M831 467L839 564M905 451L867 509M905 451L917 548M905 451L977 504M1037 446L1096 411M1037 446L977 504M1037 446L1060 484M1096 411L1182 437M1096 411L1060 484M1182 437L1252 453M1182 437L1157 485M1182 437L1224 528M1252 453L1326 423M1252 453L1157 485M1252 453L1224 528M1252 453L1330 517M1326 423L1368 401M1326 423L1330 517M1368 401L1442 481M1476 471L1442 481M1476 471L1556 495M1594 424L1611 410M1594 424L1556 495M1611 410L1556 495M1754 407L1782 427M1754 407L1757 494M1782 427L1870 452M1782 427L1757 494M1782 427L1803 484M1870 452L1928 404M1870 452L1803 484M1870 452L1915 527M2061 466L2117 426M2061 466L2155 508M2061 466L2085 573M2117 426L2155 508M2238 427L2253 420M2238 427L2155 508M2238 427L2234 526M2253 420L2356 434M2356 434L2446 454M2356 434L2407 485M2446 454L2512 414M2446 454L2388 533M2446 454L2407 485M2446 454L2534 525M79 553L122 513M79 553L-26 525M79 553L41 591M79 553L117 601M79 553L161 604M2639 553L2534 525M122 513L214 514M122 513L117 601M122 513L161 604M214 514L246 495M214 514L275 575M246 495L275 575M385 547L408 546M385 547L275 575M385 547L349 564M385 547L445 587M408 546L349 564M408 546L445 587M491 509L445 587M594 522L696 535M594 522L636 593M594 522L657 592M696 535L734 505M696 535L636 593M696 535L657 592M696 535L744 606M734 505L744 606M867 509L917 548M867 509L977 504M867 509L839 564M917 548L977 504M917 548L839 564M917 548L898 613M977 504L1060 484M1060 484L1157 485M1157 485L1224 528M1157 485L1123 561M1224 528L1254 588M1330 517L1375 553M1330 517L1442 481M1330 517L1323 599M1375 553L1442 481M1375 553L1323 599M1375 553L1429 629M1556 495L1600 522M1556 495L1577 578M1600 522L1577 578M1600 522L1613 613M1757 494L1803 484M1757 494L1737 565M1803 484L1737 565M1915 527L1970 554M1915 527L2003 558M1915 527L1852 608M1915 527L1971 613M1970 554L2003 558M1970 554L1971 613M1970 554L1968 655M2003 558L1971 613M2003 558L2073 588M2003 558L2085 573M2155 508L2234 526M2155 508L2085 573M2234 526L2308 530M2234 526L2199 627M2234 526L2293 611M2308 530L2388 533M2308 530L2293 611M2308 530L2370 576M2388 533L2407 485M2388 533L2370 576M2388 533L2430 577M2407 485L2370 576M2407 485L2430 577M2534 525L2601 591M2534 525L2505 575M-26 525L41 591M41 591L117 601M41 591L-55 575M41 591L30 679M2601 591L2505 575M117 601L161 604M117 601L145 691M161 604L145 691M161 604L197 702M275 575L349 564M275 575L319 652M349 564L445 587M349 564L319 652M445 587L423 656M543 638L526 664M543 638L576 687M636 593L657 592M636 593L576 687M636 593L680 653M657 592L744 606M657 592L680 653M744 606L680 653M744 606L738 662M839 564L898 613M839 564L738 662M898 613L874 709M898 613L960 674M1021 603L1060 623M1021 603L1123 561M1021 603L960 674M1021 603L988 696M1060 623L1123 561M1060 623L988 696M1060 623L1076 703M1060 623L1131 659M1254 588L1323 599M1254 588L1290 658M1323 599L1290 658M1429 629L1490 635M1429 629L1388 692M1429 629L1448 681M1429 629L1521 644M1490 635L1577 578M1490 635L1448 681M1490 635L1521 644M1577 578L1613 613M1577 578L1521 644M1613 613L1657 668M1737 565L1778 601M1778 601L1852 608M1778 601L1741 681M1778 601L1832 651M1778 601L1864 651M1852 608L1832 651M1852 608L1864 651M1971 613L2073 588M1971 613L1968 655M2073 588L2085 573M2073 588L2114 675M2199 627L2293 611M2199 627L2114 675M2199 627L2188 674M2293 611L2370 576M2293 611L2368 688M2370 576L2430 577M2430 577L2505 575M2430 577L2487 644M2505 575L2487 644M30 679L-73 644M30 679L75 722M2590 679L2487 644M145 691L197 702M145 691L75 722M145 691L151 741M197 702L151 741M197 702L219 764M197 702L278 761M319 652L328 687M319 652L423 656M328 687L423 656M328 687L278 761M328 687L408 754M423 656L526 664M423 656L408 754M526 664L576 687M526 664L570 779M576 687L680 653M576 687L570 779M680 653L738 662M738 662L694 760M738 662L760 778M874 709L960 674M874 709L820 781M960 674L988 696M988 696L1076 703M988 696L944 786M1076 703L1131 659M1076 703L1089 763M1076 703L1152 760M1131 659L1218 697M1131 659L1152 760M1218 697L1290 658M1218 697L1152 760M1218 697L1203 768M1290 658L1388 692M1290 658L1318 737M1388 692L1448 681M1388 692L1318 737M1388 692L1405 738M1448 681L1521 644M1448 681L1405 738M1521 644L1555 735M1657 668L1741 681M1657 668L1601 750M1657 668L1722 732M1741 681L1832 651M1741 681L1722 732M1741 681L1822 730M1832 651L1864 651M1832 651L1822 730M1864 651L1968 655M1864 651L1822 730M1968 655L2055 701M1968 655L1995 754M2055 701L2114 675M2055 701L1995 754M2055 701L2079 800M2055 701L2113 761M2114 675L2188 674M2114 675L2113 761M2188 674L2277 716M2277 716L2368 688M2277 716L2224 782M2277 716L2281 726M2277 716L2331 721M2368 688L2281 726M2368 688L2331 721M2368 688L2462 738M2468 713L2487 644M2468 713L2462 738M2468 713L2494 751M2487 644L2462 738M75 722L151 741M75 722L29 803M151 741L219 764M151 741L185 843M219 764L278 761M219 764L185 843M219 764L294 818M278 761L294 818M278 761L333 863M394 772L408 754M394 772L497 792M394 772L294 818M394 772L333 863M394 772L454 820M408 754L497 792M408 754L454 820M497 792L570 779M497 792L454 820M497 792L556 822M570 779L556 822M570 779L624 840M694 760L760 778M694 760L624 840M694 760L660 865M694 760L739 852M760 778L820 781M760 778L739 852M820 781L739 852M820 781L876 822M820 781L905 824M944 786L1028 789M944 786L876 822M944 786L905 824M944 786L998 851M1028 789L1089 763M1028 789L998 851M1028 789L1082 830M1089 763L1152 760M1089 763L1203 768M1089 763L1082 830M1152 760L1203 768M1203 768L1249 833M1318 737L1405 738M1318 737L1249 833M1318 737L1367 825M1405 738L1497 744M1405 738L1367 825M1497 744L1555 735M1497 744L1601 750M1497 744L1511 804M1555 735L1601 750M1555 735L1511 804M1555 735L1559 820M1601 750L1511 804M1601 750L1559 820M1722 732L1822 730M1722 732L1758 818M1822 730L1896 798M1896 798L1919 868M1896 798L1969 810M1995 754L2079 800M1995 754L1969 810M1995 754L2054 830M2079 800L2113 761M2079 800L2054 830M2079 800L2121 835M2113 761L2121 835M2113 761L2188 803M2224 782L2281 726M2224 782L2331 721M2224 782L2188 803M2281 726L2331 721M2281 726L2188 803M2331 721L2376 813M2462 738L2494 751M2462 738L2514 823M2494 751L2589 803M2494 751L2514 823M-66 751L29 803M29 803L112 834M29 803L-46 823M29 803L5 889M2589 803L2514 823M112 834L185 843M185 843L294 818M185 843L158 958M294 818L333 863M333 863L296 936M454 820L556 822M454 820L449 890M556 822L624 840M624 840L660 865M660 865L739 852M660 865L618 958M660 865L645 959M739 852L763 950M876 822L905 824M876 822L955 901M905 824L955 901M998 851L1082 830M998 851L955 901M998 851L963 938M1082 830L1133 875M1133 875L1080 942M1133 875L1177 920M1249 833L1328 877M1249 833L1367 825M1249 833L1259 904M1328 877L1367 825M1328 877L1259 904M1328 877L1295 944M1328 877L1412 934M1367 825L1412 934M1511 804L1559 820M1511 804L1491 892M1559 820L1602 855M1559 820L1491 892M1602 855L1532 907M1602 855L1640 939M1758 818L1761 859M1758 818L1827 889M1761 859L1692 951M1761 859L1827 889M1919 868L1969 810M1919 868L1827 889M1919 868L1894 931M1919 868L1966 922M1969 810L2054 830M2054 830L2121 835M2054 830L2081 914M2121 835L2188 803M2121 835L2081 914M2188 803L2305 865M2305 865L2376 813M2305 865L2259 932M2305 865L2373 883M2376 813L2421 848M2376 813L2373 883M2421 848L2373 883M2421 848L2417 922M2421 848L2481 914M2514 823L2565 889M2514 823L2481 914M-46 823L5 889M5 889L-79 914M5 889L48 1000M5 889L-41 967M2565 889L2481 914M2565 889L2519 967M158 958L236 957M158 958L101 985M158 958L171 970M158 958L262 978M236 957L296 936M236 957L171 970M236 957L262 978M296 936L397 950M296 936L262 978M296 936L365 983M397 950L449 890M397 950L365 983M397 950L443 961M397 950L377 1048M449 890L492 938M449 890L443 961M492 938L443 961M492 938L539 1014M492 938L505 1050M618 958L645 959M618 958L539 1014M618 958L608 1016M618 958L657 1002M645 959L763 950M645 959L608 1016M645 959L657 1002M763 950L853 938M763 950L657 1002M763 950L780 1019M853 938L955 901M853 938L963 938M853 938L868 1013M853 938L909 1031M955 901L963 938M963 938L990 1029M963 938L1057 966M1080 942L1177 920M1080 942L1057 966M1080 942L1173 992M1177 920L1259 904M1177 920L1173 992M1177 920L1232 967M1259 904L1295 944M1259 904L1232 967M1295 944L1232 967M1295 944L1399 963M1412 934L1491 892M1412 934L1399 963M1491 892L1532 907M1491 892L1512 1001M1532 907L1512 1001M1640 939L1692 951M1640 939L1617 987M1640 939L1684 976M1692 951L1617 987M1692 951L1684 976M1692 951L1691 1056M1827 889L1894 931M1827 889L1817 990M1894 931L1966 922M1894 931L1817 990M1894 931L1917 995M1966 922L2050 935M1966 922L1917 995M1966 922L2018 998M2050 935L2081 914M2050 935L2163 958M2050 935L2018 998M2050 935L2090 970M2081 914L2163 958M2081 914L2090 970M2163 958L2259 932M2163 958L2090 970M2163 958L2186 984M2259 932L2186 984M2259 932L2262 1034M2373 883L2417 922M2373 883L2381 980M2417 922L2481 914M2417 922L2381 980M2417 922L2418 1001M2481 914L2519 967M48 1000L101 985M48 1000L-41 967M48 1000L42 1047M2608 1000L2519 967M101 985L171 970M101 985L42 1047M171 970L262 978M171 970L209 1080M262 978L365 983M365 983L443 961M365 983L377 1048M443 961L459 1045M539 1014L608 1016M539 1014L459 1045M539 1014L505 1050M608 1016L657 1002M608 1016L616 1106M657 1002L616 1106M780 1019L868 1013M780 1019L740 1091M780 1019L864 1069M780 1019L759 1123M868 1013L909 1031M868 1013L864 1069M909 1031L990 1029M909 1031L864 1069M909 1031L917 1111M990 1029L1057 966M990 1029L1007 1090M990 1029L1040 1080M1057 966L1040 1080M1173 992L1232 967M1173 992L1146 1048M1232 967L1146 1048M1329 1037L1399 963M1329 1037L1277 1100M1329 1037L1304 1090M1329 1037L1372 1106M1329 1037L1310 1132M1512 1001L1575 1024M1512 1001L1520 1107M1575 1024L1617 987M1575 1024L1520 1107M1575 1024L1575 1092M1575 1024L1656 1099M1617 987L1684 976M1684 976L1691 1056M1817 990L1777 1058M1817 990L1869 1047M1917 995L1923 1037M1917 995L1869 1047M1917 995L1958 1073M1923 1037L2018 998M1923 1037L1869 1047M1923 1037L1958 1073M2018 998L2090 970M2018 998L2070 1051M2090 970L2070 1051M2186 984L2262 1034M2262 1034L2237 1099M2262 1034L2263 1096M2381 980L2418 1001M2381 980L2376 1066M2381 980L2404 1044M2418 1001L2519 967M2418 1001L2376 1066M2418 1001L2404 1044M2519 967L2602 1047M-41 967L42 1047M42 1047L-34 1088M42 1047L40 1135M2602 1047L2526 1088M139 1117L209 1080M139 1117L248 1100M139 1117L40 1135M139 1117L152 1131M139 1117L179 1143M209 1080L248 1100M209 1080L152 1131M209 1080L179 1143M248 1100L152 1131M248 1100L179 1143M248 1100L312 1155M377 1048L459 1045M377 1048L386 1149M459 1045L505 1050M459 1045L450 1141M505 1050L450 1141M505 1050L541 1131M616 1106L673 1110M616 1106L541 1131M616 1106L626 1137M673 1110L740 1091M673 1110L626 1137M673 1110L700 1196M673 1110L759 1123M740 1091L759 1123M864 1069L917 1111M864 1069L759 1123M917 1111L954 1192M917 1111L964 1173M1007 1090L1040 1080M1040 1080L1146 1048M1040 1080L1074 1165M1146 1048L1154 1128M1146 1048L1207 1144M1277 1100L1304 1090M1277 1100L1372 1106M1277 1100L1207 1144M1277 1100L1310 1132M1304 1090L1372 1106M1304 1090L1310 1132M1372 1106L1310 1132M1372 1106L1406 1131M1520 1107L1575 1092M1520 1107L1475 1127M1520 1107L1556 1182M1575 1092L1656 1099M1575 1092L1475 1127M1575 1092L1556 1182M1656 1099L1691 1056M1656 1099L1621 1185M1656 1099L1722 1158M1691 1056L1777 1058M1691 1056L1722 1158M1777 1058L1869 1047M1777 1058L1833 1158M1869 1047L1958 1073M1958 1073L1986 1159M1958 1073L2026 1150M2070 1051L2106 1108M2106 1108L2026 1150M2106 1108L2159 1149M2106 1108L2189 1147M2106 1108L2068 1200M2237 1099L2263 1096M2237 1099L2159 1149M2237 1099L2189 1147M2263 1096L2189 1147M2263 1096L2259 1197M2376 1066L2404 1044M2376 1066L2358 1161M2376 1066L2403 1150M2404 1044L2358 1161M2404 1044L2403 1150M2526 1088L2600 1135M2526 1088L2535 1163M-34 1088L40 1135M40 1135L-25 1163M40 1135L38 1205M2600 1135L2535 1163M152 1131L179 1143M179 1143L278 1226M312 1155L386 1149M312 1155L278 1226M312 1155L353 1226M386 1149L450 1141M386 1149L353 1226M450 1141L541 1131M450 1141L508 1225M541 1131L626 1137M541 1131L508 1225M626 1137L700 1196M626 1137L642 1230M700 1196L642 1230M700 1196L746 1247M700 1196L666 1287M759 1123L823 1193M823 1193L746 1247M823 1193L876 1212M823 1193L917 1204M823 1193L864 1305M954 1192L964 1173M954 1192L876 1212M954 1192L917 1204M954 1192L986 1218M964 1173L876 1212M964 1173L917 1204M964 1173L986 1218M1074 1165L1154 1128M1074 1165L1062 1239M1154 1128L1207 1144M1154 1128L1159 1219M1207 1144L1310 1132M1207 1144L1159 1219M1406 1131L1475 1127M1406 1131L1387 1227M1475 1127L1473 1235M1556 1182L1621 1185M1556 1182L1473 1235M1556 1182L1558 1261M1621 1185L1667 1200M1621 1185L1684 1229M1722 1158L1667 1200M1722 1158L1684 1229M1722 1158L1770 1212M1833 1158L1858 1197M1833 1158L1770 1212M1833 1158L1905 1247M1858 1197L1770 1212M1858 1197L1905 1247M1986 1159L2026 1150M1986 1159L1980 1214M1986 1159L2068 1200M2026 1150L1980 1214M2026 1150L2068 1200M2159 1149L2189 1147M2189 1147L2259 1197M2259 1197L2233 1279M2259 1197L2306 1235M2259 1197L2321 1254M2358 1161L2403 1150M2358 1161L2306 1235M2358 1161L2321 1254M2535 1163L2598 1205M-25 1163L38 1205M38 1205L88 1239M38 1205L-52 1275M38 1205L26 1319M2598 1205L2508 1275M88 1239L185 1274M88 1239L26 1319M185 1274L278 1226M185 1274L153 1344M185 1274L206 1357M185 1274L246 1316M278 1226L353 1226M278 1226L246 1316M353 1226L446 1275M446 1275L508 1225M446 1275L362 1344M446 1275L457 1306M446 1275L529 1346M508 1225L590 1228M508 1225L457 1306M590 1228L642 1230M642 1230L746 1247M642 1230L666 1287M746 1247L666 1287M746 1247L750 1314M876 1212L917 1204M876 1212L864 1305M917 1204L986 1218M986 1218L1062 1239M986 1218L993 1283M1062 1239L1159 1219M1062 1239L993 1283M1062 1239L1102 1330M1159 1219L1251 1240M1159 1219L1150 1293M1251 1240L1286 1261M1251 1240L1239 1324M1286 1261L1387 1227M1286 1261L1239 1324M1286 1261L1288 1353M1387 1227L1473 1235M1387 1227L1389 1327M1387 1227L1478 1306M1473 1235L1558 1261M1473 1235L1478 1306M1558 1261L1478 1306M1558 1261L1578 1316M1558 1261L1618 1323M1667 1200L1684 1229M1667 1200L1747 1283M1684 1229L1770 1212M1684 1229L1747 1283M1770 1212L1747 1283M1905 1247L1980 1214M1905 1247L1909 1329M1905 1247L1932 1299M1980 1214L2068 1200M1980 1214L1932 1299M2068 1200L2123 1274M2123 1274L2070 1355M2123 1274L2159 1307M2123 1274L2211 1317M2233 1279L2306 1235M2233 1279L2159 1307M2233 1279L2211 1317M2233 1279L2305 1295M2306 1235L2321 1254M2306 1235L2305 1295M2321 1254L2305 1295M2321 1254L2348 1358M2438 1276L2508 1275M2438 1276L2447 1288M2438 1276L2481 1301M2438 1276L2378 1361M2508 1275L2586 1319M2508 1275L2447 1288M2508 1275L2481 1301M-52 1275L26 1319M26 1319L-79 1301M26 1319L12 1421M2586 1319L2481 1301M153 1344L206 1357M153 1344L101 1410M206 1357L246 1316M206 1357L178 1437M206 1357L276 1396M246 1316L276 1396M362 1344L339 1409M362 1344L417 1419M457 1306L529 1346M457 1306L532 1365M529 1346L587 1352M529 1346L532 1365M587 1352L666 1287M587 1352L532 1365M587 1352L615 1404M587 1352L649 1415M666 1287L750 1314M750 1314L864 1305M750 1314L744 1413M750 1314L824 1361M864 1305L947 1318M864 1305L824 1361M947 1318L993 1283M947 1318L824 1361M947 1318L947 1429M947 1318L979 1400M993 1283L979 1400M1102 1330L1150 1293M1102 1330L1059 1409M1150 1293L1216 1362M1239 1324L1288 1353M1239 1324L1199 1380M1239 1324L1216 1362M1288 1353L1216 1362M1288 1353L1284 1423M1288 1353L1365 1385M1389 1327L1478 1306M1389 1327L1365 1385M1478 1306L1578 1316M1578 1316L1618 1323M1578 1316L1568 1390M1578 1316L1665 1371M1618 1323L1568 1390M1618 1323L1665 1371M1618 1323L1688 1398M1747 1283L1819 1351M1747 1283L1665 1371M1819 1351L1909 1329M1819 1351L1830 1400M1819 1351L1877 1405M1909 1329L1932 1299M1909 1329L1877 1405M1909 1329L1954 1422M1932 1299L2008 1386M2070 1355L2008 1386M2070 1355L2111 1390M2070 1355L2167 1403M2159 1307L2211 1317M2159 1307L2111 1390M2159 1307L2167 1403M2211 1317L2305 1295M2211 1317L2167 1403M2305 1295L2348 1358M2348 1358L2292 1410M2348 1358L2378 1361M2348 1358L2402 1396M2447 1288L2481 1301M2447 1288L2378 1361M12 1421L101 1410M12 1421L-7 1437M2572 1421L2553 1437M101 1410L178 1437M276 1396L339 1409M339 1409L417 1419M532 1365L615 1404M615 1404L649 1415M649 1415L744 1413M744 1413L824 1361M947 1429L979 1400M979 1400L1059 1409M1199 1380L1216 1362M1216 1362L1284 1423M1284 1423L1365 1385M1365 1385L1464 1438M1568 1390L1665 1371M1665 1371L1688 1398M1830 1400L1877 1405M1877 1405L1954 1422M1954 1422L2008 1386M2008 1386L2111 1390M2111 1390L2167 1403M2292 1410L2378 1361M2292 1410L2402 1396M2378 1361L2402 1396"/></svg>