<svg xmlns="http://www.w3.org/2000/svg" width="2560" height="1440" fill="#fff"><circle cx="33" cy="55" r="4"/><circle cx="94" cy="54" r="4"/><circle cx="178" cy="45" r="4"/><circle cx="316" cy="65" r="5"/><circle cx="367" cy="59" r="5"/><circle cx="401" cy="31" r="4"/><circle cx="520" cy="23" r="4"/><circle cx="607" cy="39" r="5"/><circle cx="698" cy="26" r="6"/><circle cx="740" cy="62" r="5"/><circle cx="843" cy="20" r="6"/><circle cx="952" cy="38" r="5"/><circle cx="991" cy="70" r="6"/><circle cx="1068" cy="31" r="6"/><circle cx="1161" cy="16" r="4"/><circle cx="1217" cy="30" r="5"/><circle cx="1349" cy="21" r="5"/><circle cx="1434" cy="3" r="6"/><circle cx="1434" cy="1443" r="6"/><circle cx="1488" cy="34" r="5"/><circle cx="1577" cy="43" r="6"/><circle cx="1670" cy="27" r="5"/><circle cx="1742" cy="41" r="5"/><circle cx="1800" cy="32" r="4"/><circle cx="1917" cy="28" r="5"/><circle cx="1969" cy="16" r="6"/><circle cx="2043" cy="5" r="6"/><circle cx="2043" cy="1445" r="6"/><circle cx="2114" cy="19" r="5"/><circle cx="2164" cy="19" r="5"/><circle cx="2256" cy="7" r="4"/><circle cx="2396" cy="49" r="6"/><circle cx="2448" cy="64" r="4"/><circle cx="2487" cy="25" r="4"/><circle cx="3" cy="110" r="6"/><circle cx="2563" cy="110" r="6"/><circle cx="85" cy="125" r="4"/><circle cx="163" cy="152" r="5"/><circle cx="283" cy="130" r="6"/><circle cx="397" cy="122" r="4"/><circle cx="468" cy="80" r="5"/><circle cx="491" cy="158" r="6"/><circle cx="602" cy="121" r="5"/><circle cx="709" cy="158" r="4"/><circle cx="747" cy="98" r="4"/><circle cx="805" cy="90" r="5"/><circle cx="886" cy="122" r="5"/><circle cx="1035" cy="134" r="5"/><circle cx="1046" cy="128" r="5"/><circle cx="1163" cy="133" r="4"/><circle cx="1259" cy="148" r="6"/><circle cx="1331" cy="142" r="4"/><circle cx="1368" cy="147" r="4"/><circle cx="1465" cy="89" r="5"/><circle cx="1558" cy="106" r="5"/><circle cx="1674" cy="92" r="6"/><circle cx="1724" cy="122" r="5"/><circle cx="1775" cy="152" r="5"/><circle cx="1906" cy="107" r="5"/><circle cx="1942" cy="137" r="6"/><circle cx="2064" cy="106" r="5"/><circle cx="2149" cy="90" r="5"/><circle cx="2238" cy="90" r="5"/><circle cx="2307" cy="128" r="4"/><circle cx="2329" cy="158" r="5"/><circle cx="2424" cy="109" r="4"/><circle cx="2503" cy="150" r="5"/><circle cx="65" cy="232" r="4"/><circle cx="95" cy="224" r="5"/><circle cx="208" cy="184" r="5"/><circle cx="256" cy="195" r="6"/><circle cx="375" cy="162" r="6"/><circle cx="471" cy="190" r="6"/><circle cx="548" cy="227" r="5"/><circle cx="571" cy="222" r="6"/><circle cx="694" cy="166" r="5"/><circle cx="722" cy="180" r="4"/><circle cx="848" cy="221" r="5"/><circle cx="890" cy="173" r="5"/><circle cx="1000" cy="177" r="5"/><circle cx="1113" cy="180" r="5"/><circle cx="1125" cy="212" r="5"/><circle cx="1234" cy="166" r="5"/><circle cx="1357" cy="177" r="5"/><circle cx="1373" cy="162" r="4"/><circle cx="1499" cy="234" r="6"/><circle cx="1551" cy="180" r="4"/><circle cx="1637" cy="185" r="5"/><circle cx="1696" cy="194" r="5"/><circle cx="1770" cy="211" r="5"/><circle cx="1855" cy="195" r="4"/><circle cx="1960" cy="203" r="5"/><circle cx="2021" cy="189" r="6"/><circle cx="2132" cy="174" r="5"/><circle cx="2229" cy="189" r="5"/><circle cx="2267" cy="238" r="4"/><circle cx="2393" cy="231" r="5"/><circle cx="2473" cy="164" r="5"/><circle cx="2534" cy="236" r="4"/><circle cx="72" cy="317" r="5"/><circle cx="143" cy="317" r="4"/><circle cx="236" cy="290" r="6"/><circle cx="248" cy="303" r="4"/><circle cx="396" cy="287" r="5"/><circle cx="445" cy="315" r="5"/><circle cx="549" cy="268" r="5"/><circle cx="585" cy="250" r="4"/><circle cx="685" cy="298" r="5"/><circle cx="727" cy="316" r="5"/><circle cx="847" cy="241" r="5"/><circle cx="938" cy="250" r="6"/><circle cx="990" cy="264" r="4"/><circle cx="1079" cy="297" r="6"/><circle cx="1190" cy="308" r="5"/><circle cx="1202" cy="280" r="5"/><circle cx="1359" cy="312" r="5"/><circle cx="1409" cy="253" r="5"/><circle cx="1492" cy="309" r="4"/><circle cx="1574" cy="246" r="5"/><circle cx="1653" cy="253" r="5"/><circle cx="1735" cy="250" r="5"/><circle cx="1778" cy="261" r="6"/><circle cx="1852" cy="268" r="4"/><circle cx="1957" cy="287" r="5"/><circle cx="2030" cy="319" r="5"/><circle cx="2090" cy="265" r="4"/><circle cx="2229" cy="277" r="6"/><circle cx="2258" cy="264" r="6"/><circle cx="2378" cy="317" r="6"/><circle cx="2473" cy="265" r="5"/><circle cx="2552" cy="246" r="5"/><circle cx="16" cy="337" r="6"/><circle cx="92" cy="344" r="4"/><circle cx="165" cy="326" r="4"/><circle cx="263" cy="391" r="6"/><circle cx="389" cy="333" r="4"/><circle cx="412" cy="327" r="5"/><circle cx="485" cy="332" r="6"/><circle cx="614" cy="337" r="4"/><circle cx="655" cy="386" r="4"/><circle cx="752" cy="378" r="5"/><circle cx="823" cy="378" r="5"/><circle cx="888" cy="370" r="6"/><circle cx="966" cy="383" r="5"/><circle cx="1111" cy="329" r="4"/><circle cx="1168" cy="345" r="5"/><circle cx="1234" cy="346" r="6"/><circle cx="1320" cy="324" r="6"/><circle cx="1378" cy="359" r="4"/><circle cx="1505" cy="362" r="4"/><circle cx="1570" cy="347" r="4"/><circle cx="1643" cy="355" r="4"/><circle cx="1681" cy="361" r="4"/><circle cx="1813" cy="382" r="5"/><circle cx="1856" cy="346" r="5"/><circle cx="1999" cy="372" r="5"/><circle cx="2040" cy="357" r="4"/><circle cx="2117" cy="387" r="5"/><circle cx="2217" cy="381" r="5"/><circle cx="2295" cy="382" r="6"/><circle cx="2343" cy="335" r="5"/><circle cx="2411" cy="349" r="5"/><circle cx="2508" cy="390" r="6"/><circle cx="23" cy="458" r="5"/><circle cx="108" cy="408" r="5"/><circle cx="185" cy="407" r="4"/><circle cx="263" cy="406" r="5"/><circle cx="397" cy="463" r="5"/><circle cx="402" cy="444" r="5"/><circle cx="529" cy="412" r="5"/><circle cx="592" cy="418" r="6"/><circle cx="684" cy="409" r="5"/><circle cx="792" cy="419" r="5"/><circle cx="807" cy="469" r="4"/><circle cx="920" cy="402" r="5"/><circle cx="1033" cy="443" r="4"/><circle cx="1054" cy="473" r="4"/><circle cx="1158" cy="470" r="6"/><circle cx="1254" cy="411" r="5"/><circle cx="1288" cy="462" r="5"/><circle cx="1417" cy="469" r="5"/><circle cx="1492" cy="432" r="5"/><circle cx="1573" cy="434" r="5"/><circle cx="1630" cy="449" r="5"/><circle cx="1714" cy="436" r="5"/><circle cx="1823" cy="455" r="5"/><circle cx="1884" cy="436" r="4"/><circle cx="1925" cy="456" r="5"/><circle cx="2040" cy="443" r="5"/><circle cx="2092" cy="436" r="5"/><circle cx="2239" cy="417" r="6"/><circle cx="2287" cy="480" r="6"/><circle cx="2392" cy="470" r="6"/><circle cx="2432" cy="443" r="5"/><circle cx="2525" cy="430" r="5"/><circle cx="30" cy="555" r="5"/><circle cx="141" cy="524" r="5"/><circle cx="187" cy="503" r="5"/><circle cx="258" cy="488" r="5"/><circle cx="364" cy="481" r="6"/><circle cx="469" cy="519" r="5"/><circle cx="508" cy="556" r="4"/><circle cx="638" cy="502" r="5"/><circle cx="654" cy="511" r="5"/><circle cx="778" cy="552" r="5"/><circle cx="866" cy="495" r="5"/><circle cx="931" cy="506" r="6"/><circle cx="988" cy="540" r="5"/><circle cx="1101" cy="556" r="4"/><circle cx="1164" cy="490" r="4"/><circle cx="1262" cy="517" r="4"/><circle cx="1306" cy="507" r="5"/><circle cx="1423" cy="484" r="5"/><circle cx="1480" cy="495" r="4"/><circle cx="1594" cy="504" r="5"/><circle cx="1669" cy="507" r="6"/><circle cx="1681" cy="520" r="5"/><circle cx="1764" cy="518" r="6"/><circle cx="1890" cy="483" r="6"/><circle cx="1968" cy="512" r="5"/><circle cx="2004" cy="500" r="5"/><circle cx="2089" cy="484" r="5"/><circle cx="2215" cy="516" r="5"/><circle cx="2267" cy="536" r="5"/><circle cx="2382" cy="530" r="4"/><circle cx="2414" cy="531" r="4"/><circle cx="2533" cy="506" r="5"/><circle cx="31" cy="582" r="6"/><circle cx="124" cy="589" r="4"/><circle cx="219" cy="571" r="5"/><circle cx="305" cy="628" r="5"/><circle cx="343" cy="571" r="4"/><circle cx="473" cy="612" r="4"/><circle cx="525" cy="569" r="5"/><circle cx="583" cy="596" r="5"/><circle cx="653" cy="627" r="5"/><circle cx="781" cy="572" r="6"/><circle cx="823" cy="615" r="5"/><circle cx="915" cy="640" r="6"/><circle cx="973" cy="628" r="5"/><circle cx="1065" cy="629" r="5"/><circle cx="1164" cy="565" r="6"/><circle cx="1263" cy="570" r="5"/><circle cx="1333" cy="563" r="5"/><circle cx="1419" cy="606" r="5"/><circle cx="1467" cy="630" r="5"/><circle cx="1585" cy="571" r="4"/><circle cx="1616" cy="633" r="5"/><circle cx="1741" cy="628" r="5"/><circle cx="1810" cy="582" r="5"/><circle cx="1863" cy="611" r="5"/><circle cx="1950" cy="627" r="6"/><circle cx="2027" cy="571" r="5"/><circle cx="2092" cy="615" r="6"/><circle cx="2193" cy="631" r="4"/><circle cx="2270" cy="624" r="4"/><circle cx="2337" cy="571" r="6"/><circle cx="2425" cy="634" r="6"/><circle cx="2554" cy="613" r="6"/><circle cx="60" cy="657" r="4"/><circle cx="95" cy="717" r="5"/><circle cx="188" cy="715" r="4"/><circle cx="291" cy="702" r="6"/><circle cx="385" cy="679" r="5"/><circle cx="473" cy="703" r="5"/><circle cx="487" cy="658" r="5"/><circle cx="637" cy="685" r="6"/><circle cx="702" cy="695" r="4"/><circle cx="755" cy="698" r="6"/><circle cx="824" cy="719" r="5"/><circle cx="939" cy="656" r="4"/><circle cx="977" cy="658" r="5"/><circle cx="1072" cy="693" r="6"/><circle cx="1149" cy="643" r="6"/><circle cx="1240" cy="645" r="4"/><circle cx="1290" cy="642" r="5"/><circle cx="1400" cy="703" r="5"/><circle cx="1465" cy="655" r="6"/><circle cx="1537" cy="691" r="5"/><circle cx="1656" cy="659" r="5"/><circle cx="1756" cy="681" r="5"/><circle cx="1816" cy="718" r="4"/><circle cx="1917" cy="645" r="5"/><circle cx="1933" cy="669" r="5"/><circle cx="2039" cy="648" r="5"/><circle cx="2156" cy="694" r="5"/><circle cx="2161" cy="648" r="6"/><circle cx="2249" cy="660" r="4"/><circle cx="2320" cy="645" r="5"/><circle cx="2434" cy="662" r="4"/><circle cx="2550" cy="681" r="4"/><circle cx="72" cy="733" r="5"/><circle cx="104" cy="733" r="5"/><circle cx="193" cy="723" r="6"/><circle cx="298" cy="772" r="4"/><circle cx="329" cy="738" r="6"/><circle cx="472" cy="795" r="4"/><circle cx="552" cy="730" r="6"/><circle cx="629" cy="749" r="6"/><circle cx="656" cy="733" r="6"/><circle cx="733" cy="752" r="4"/><circle cx="832" cy="737" r="5"/><circle cx="902" cy="755" r="5"/><circle cx="969" cy="775" r="5"/><circle cx="1098" cy="764" r="6"/><circle cx="1164" cy="739" r="5"/><circle cx="1202" cy="774" r="4"/><circle cx="1337" cy="726" r="6"/><circle cx="1434" cy="723" r="5"/><circle cx="1489" cy="761" r="4"/><circle cx="1598" cy="797" r="5"/><circle cx="1620" cy="781" r="5"/><circle cx="1721" cy="770" r="5"/><circle cx="1816" cy="794" r="5"/><circle cx="1918" cy="768" r="4"/><circle cx="1975" cy="745" r="5"/><circle cx="2030" cy="776" r="5"/><circle cx="2086" cy="756" r="5"/><circle cx="2162" cy="765" r="5"/><circle cx="2273" cy="763" r="4"/><circle cx="2322" cy="723" r="5"/><circle cx="2475" cy="780" r="4"/><circle cx="2557" cy="731" r="5"/><circle cx="-3" cy="731" r="5"/><circle cx="73" cy="875" r="4"/><circle cx="142" cy="803" r="5"/><circle cx="228" cy="824" r="4"/><circle cx="313" cy="804" r="5"/><circle cx="326" cy="838" r="4"/><circle cx="479" cy="869" r="5"/><circle cx="521" cy="871" r="5"/><circle cx="604" cy="823" r="5"/><circle cx="648" cy="821" r="5"/><circle cx="737" cy="873" r="5"/><circle cx="877" cy="873" r="5"/><circle cx="956" cy="806" r="5"/><circle cx="1030" cy="829" r="5"/><circle cx="1111" cy="868" r="5"/><circle cx="1162" cy="853" r="5"/><circle cx="1260" cy="821" r="4"/><circle cx="1342" cy="810" r="4"/><circle cx="1429" cy="841" r="5"/><circle cx="1478" cy="814" r="5"/><circle cx="1543" cy="869" r="5"/><circle cx="1604" cy="833" r="5"/><circle cx="1729" cy="818" r="4"/><circle cx="1765" cy="804" r="5"/><circle cx="1853" cy="863" r="5"/><circle cx="1981" cy="834" r="6"/><circle cx="2065" cy="806" r="4"/><circle cx="2092" cy="805" r="4"/><circle cx="2225" cy="810" r="5"/><circle cx="2266" cy="867" r="5"/><circle cx="2334" cy="819" r="6"/><circle cx="2457" cy="834" r="6"/><circle cx="2539" cy="828" r="4"/><circle cx="14" cy="936" r="4"/><circle cx="87" cy="925" r="5"/><circle cx="231" cy="952" r="5"/><circle cx="279" cy="905" r="6"/><circle cx="382" cy="918" r="6"/><circle cx="416" cy="911" r="6"/><circle cx="513" cy="929" r="6"/><circle cx="576" cy="887" r="4"/><circle cx="670" cy="922" r="6"/><circle cx="774" cy="911" r="5"/><circle cx="867" cy="899" r="5"/><circle cx="889" cy="942" r="4"/><circle cx="978" cy="939" r="5"/><circle cx="1076" cy="935" r="4"/><circle cx="1133" cy="917" r="6"/><circle cx="1271" cy="941" r="5"/><circle cx="1334" cy="957" r="6"/><circle cx="1414" cy="954" r="5"/><circle cx="1481" cy="942" r="5"/><circle cx="1537" cy="906" r="6"/><circle cx="1646" cy="934" r="5"/><circle cx="1736" cy="952" r="6"/><circle cx="1820" cy="940" r="5"/><circle cx="1914" cy="944" r="5"/><circle cx="1979" cy="956" r="5"/><circle cx="2055" cy="899" r="5"/><circle cx="2118" cy="896" r="5"/><circle cx="2205" cy="894" r="6"/><circle cx="2243" cy="927" r="5"/><circle cx="2391" cy="942" r="5"/><circle cx="2430" cy="899" r="5"/><circle cx="2524" cy="957" r="5"/><circle cx="20" cy="1038" r="4"/><circle cx="123" cy="1028" r="5"/><circle cx="210" cy="1011" r="6"/><circle cx="313" cy="1013" r="5"/><circle cx="334" cy="1018" r="5"/><circle cx="469" cy="962" r="5"/><circle cx="529" cy="1010" r="5"/><circle cx="639" cy="994" r="5"/><circle cx="654" cy="1022" r="4"/><circle cx="749" cy="1001" r="4"/><circle cx="828" cy="988" r="4"/><circle cx="943" cy="981" r="4"/><circle cx="1038" cy="960" r="6"/><circle cx="1068" cy="994" r="5"/><circle cx="1193" cy="994" r="5"/><circle cx="1264" cy="978" r="4"/><circle cx="1296" cy="1011" r="5"/><circle cx="1399" cy="984" r="5"/><circle cx="1482" cy="1038" r="4"/><circle cx="1525" cy="1012" r="6"/><circle cx="1629" cy="968" r="6"/><circle cx="1717" cy="989" r="5"/><circle cx="1790" cy="1035" r="4"/><circle cx="1890" cy="983" r="4"/><circle cx="1967" cy="976" r="6"/><circle cx="2029" cy="999" r="6"/><circle cx="2145" cy="966" r="5"/><circle cx="2162" cy="983" r="6"/><circle cx="2280" cy="985" r="6"/><circle cx="2321" cy="1035" r="5"/><circle cx="2471" cy="992" r="5"/><circle cx="2544" cy="962" r="5"/><circle cx="3" cy="1063" r="5"/><circle cx="2563" cy="1063" r="5"/><circle cx="137" cy="1074" r="5"/><circle cx="171" cy="1100" r="4"/><circle cx="246" cy="1100" r="4"/><circle cx="327" cy="1045" r="6"/><circle cx="464" cy="1105" r="4"/><circle cx="550" cy="1095" r="5"/><circle cx="619" cy="1045" r="6"/><circle cx="701" cy="1118" r="6"/><circle cx="782" cy="1083" r="6"/><circle cx="837" cy="1119" r="4"/><circle cx="927" cy="1118" r="5"/><circle cx="993" cy="1065" r="6"/><circle cx="1066" cy="1072" r="4"/><circle cx="1153" cy="1086" r="6"/><circle cx="1263" cy="1053" r="5"/><circle cx="1346" cy="1047" r="5"/><circle cx="1377" cy="1119" r="4"/><circle cx="1448" cy="1113" r="5"/><circle cx="1544" cy="1044" r="5"/><circle cx="1676" cy="1098" r="5"/><circle cx="1721" cy="1060" r="6"/><circle cx="1838" cy="1093" r="5"/><circle cx="1886" cy="1108" r="4"/><circle cx="1959" cy="1049" r="4"/><circle cx="2029" cy="1041" r="5"/><circle cx="2140" cy="1073" r="5"/><circle cx="2177" cy="1078" r="5"/><circle cx="2257" cy="1074" r="5"/><circle cx="2325" cy="1118" r="6"/><circle cx="2474" cy="1077" r="5"/><circle cx="2544" cy="1083" r="6"/><circle cx="43" cy="1146" r="5"/><circle cx="100" cy="1195" r="6"/><circle cx="175" cy="1121" r="4"/><circle cx="249" cy="1139" r="5"/><circle cx="380" cy="1178" r="4"/><circle cx="477" cy="1193" r="6"/><circle cx="497" cy="1124" r="5"/><circle cx="640" cy="1178" r="5"/><circle cx="694" cy="1149" r="5"/><circle cx="723" cy="1126" r="5"/><circle cx="874" cy="1179" r="5"/><circle cx="884" cy="1146" r="6"/><circle cx="1011" cy="1163" r="6"/><circle cx="1060" cy="1165" r="6"/><circle cx="1185" cy="1188" r="5"/><circle cx="1228" cy="1182" r="4"/><circle cx="1351" cy="1129" r="5"/><circle cx="1388" cy="1146" r="6"/><circle cx="1494" cy="1186" r="4"/><circle cx="1579" cy="1169" r="4"/><circle cx="1612" cy="1151" r="6"/><circle cx="1713" cy="1191" r="6"/><circle cx="1801" cy="1161" r="5"/><circle cx="1897" cy="1191" r="5"/><circle cx="1931" cy="1167" r="4"/><circle cx="2080" cy="1148" r="6"/><circle cx="2095" cy="1135" r="4"/><circle cx="2202" cy="1126" r="6"/><circle cx="2315" cy="1154" r="5"/><circle cx="2385" cy="1163" r="5"/><circle cx="2432" cy="1140" r="5"/><circle cx="2485" cy="1149" r="6"/><circle cx="36" cy="1224" r="5"/><circle cx="124" cy="1221" r="6"/><circle cx="170" cy="1266" r="5"/><circle cx="297" cy="1238" r="5"/><circle cx="361" cy="1260" r="5"/><circle cx="444" cy="1261" r="4"/><circle cx="498" cy="1274" r="4"/><circle cx="593" cy="1203" r="5"/><circle cx="705" cy="1203" r="5"/><circle cx="752" cy="1275" r="4"/><circle cx="819" cy="1275" r="4"/><circle cx="910" cy="1208" r="5"/><circle cx="1032" cy="1235" r="4"/><circle cx="1097" cy="1202" r="5"/><circle cx="1181" cy="1219" r="6"/><circle cx="1260" cy="1270" r="5"/><circle cx="1342" cy="1244" r="5"/><circle cx="1439" cy="1276" r="5"/><circle cx="1454" cy="1222" r="5"/><circle cx="1551" cy="1235" r="6"/><circle cx="1668" cy="1207" r="6"/><circle cx="1754" cy="1220" r="5"/><circle cx="1831" cy="1233" r="5"/><circle cx="1885" cy="1278" r="5"/><circle cx="1922" cy="1254" r="5"/><circle cx="2044" cy="1221" r="5"/><circle cx="2136" cy="1218" r="5"/><circle cx="2224" cy="1227" r="4"/><circle cx="2295" cy="1250" r="5"/><circle cx="2383" cy="1239" r="5"/><circle cx="2425" cy="1276" r="6"/><circle cx="2542" cy="1212" r="5"/><circle cx="52" cy="1302" r="4"/><circle cx="124" cy="1299" r="5"/><circle cx="167" cy="1293" r="6"/><circle cx="241" cy="1311" r="6"/><circle cx="347" cy="1334" r="5"/><circle cx="411" cy="1305" r="5"/><circle cx="485" cy="1340" r="6"/><circle cx="592" cy="1335" r="4"/><circle cx="686" cy="1325" r="5"/><circle cx="781" cy="1359" r="6"/><circle cx="814" cy="1328" r="5"/><circle cx="889" cy="1306" r="5"/><circle cx="998" cy="1319" r="5"/><circle cx="1089" cy="1299" r="6"/><circle cx="1184" cy="1359" r="5"/><circle cx="1240" cy="1303" r="5"/><circle cx="1302" cy="1295" r="5"/><circle cx="1379" cy="1324" r="4"/><circle cx="1464" cy="1331" r="4"/><circle cx="1555" cy="1360" r="5"/><circle cx="1669" cy="1332" r="4"/><circle cx="1718" cy="1342" r="5"/><circle cx="1766" cy="1287" r="5"/><circle cx="1842" cy="1290" r="5"/><circle cx="1961" cy="1283" r="4"/><circle cx="2074" cy="1298" r="4"/><circle cx="2140" cy="1280" r="5"/><circle cx="2181" cy="1315" r="4"/><circle cx="2290" cy="1305" r="4"/><circle cx="2365" cy="1283" r="4"/><circle cx="2422" cy="1342" r="6"/><circle cx="2494" cy="1342" r="5"/><circle cx="5" cy="1367" r="6"/><circle cx="2565" cy="1367" r="6"/><circle cx="101" cy="1369" r="4"/><circle cx="215" cy="1379" r="4"/><circle cx="305" cy="1387" r="5"/><circle cx="390" cy="1374" r="5"/><circle cx="454" cy="1433" r="5"/><circle cx="486" cy="1382" r="5"/><circle cx="598" cy="1433" r="4"/><circle cx="678" cy="1432" r="4"/><circle cx="739" cy="1395" r="5"/><circle cx="803" cy="1371" r="4"/><circle cx="950" cy="1415" r="4"/><circle cx="997" cy="1387" r="4"/><circle cx="1041" cy="1435" r="6"/><circle cx="1041" cy="-5" r="6"/><circle cx="1175" cy="1377" r="6"/><circle cx="1258" cy="1424" r="4"/><circle cx="1294" cy="1365" r="5"/><circle cx="1383" cy="1411" r="5"/><circle cx="1448" cy="1366" r="6"/><circle cx="1564" cy="1377" r="5"/><circle cx="1674" cy="1399" r="4"/><circle cx="1700" cy="1403" r="5"/><circle cx="1791" cy="1419" r="6"/><circle cx="1862" cy="1433" r="4"/><circle cx="1959" cy="1424" r="5"/><circle cx="2079" cy="1422" r="5"/><circle cx="2137" cy="1397" r="4"/><circle cx="2180" cy="1402" r="5"/><circle cx="2288" cy="1412" r="5"/><circle cx="2355" cy="1414" r="5"/><circle cx="2458" cy="1418" r="4"/><circle cx="2493" cy="1419" r="6"/><path stroke="#fff" d="M33 55L94 54M33 55L3 110M33 55L85 125M94 54L178 45M94 54L3 110M94 54L85 125M178 45L163 152M178 45L215 -61M178 1485L215 1379M316 65L367 59M316 65L401 31M316 65L283 130M367 59L401 31M367 59L397 122M367 59L375 162M401 31L468 80M401 31L454 -7M401 1471L454 1433M520 23L607 39M520 23L468 80M520 23L454 -7M520 23L486 -58M520 23L598 -7M520 1463L454 1433M520 1463L486 1382M520 1463L598 1433M607 39L698 26M607 39L602 121M607 39L598 -7M607 39L678 -8M607 1479L598 1433M607 1479L678 1432M698 26L740 62M698 26L747 98M698 26L678 -8M698 26L739 -45M698 1466L678 1432M698 1466L739 1395M740 62L843 20M740 62L747 98M740 62L805 90M740 62L678 -8M740 1502L678 1432M843 20L952 38M843 20L805 90M843 20L803 -69M843 1460L803 1371M952 38L991 70M952 38L950 -25M952 38L1041 -5M952 1478L950 1415M952 1478L1041 1435M991 70L1068 31M991 70L1035 134M991 70L1046 128M991 70L1041 -5M991 1510L1041 1435M1068 31L1161 16M1068 31L1035 134M1068 31L1046 128M1068 31L1041 -5M1068 1471L1041 1435M1161 16L1217 30M1161 16L1184 -81M1161 16L1175 -63M1161 1456L1184 1359M1161 1456L1175 1377M1217 30L1175 -63M1217 30L1258 -16M1217 1470L1175 1377M1217 1470L1258 1424M1349 21L1434 3M1349 21L1258 -16M1349 21L1383 -29M1349 1461L1258 1424M1349 1461L1383 1411M1434 3L1488 34M1434 3L1465 89M1434 3L1383 -29M1434 3L1448 -74M1434 1443L1383 1411M1434 1443L1448 1366M1488 34L1577 43M1488 34L1465 89M1488 34L1558 106M1577 43L1670 27M1577 43L1558 106M1577 43L1674 92M1577 43L1564 -63M1577 1483L1564 1377M1670 27L1742 41M1670 27L1674 92M1670 27L1674 -41M1670 27L1700 -37M1670 1467L1674 1399M1670 1467L1700 1403M1742 41L1800 32M1742 41L1674 92M1742 41L1724 122M1742 41L1791 -21M1742 1481L1791 1419M1800 32L1791 -21M1800 32L1862 -7M1800 1472L1791 1419M1800 1472L1862 1433M1917 28L1969 16M1917 28L1906 107M1917 28L1942 137M1917 28L1862 -7M1917 28L1959 -16M1917 1468L1862 1433M1917 1468L1959 1424M1969 16L2043 5M1969 16L1906 107M1969 16L1959 -16M1969 1456L1959 1424M2043 5L2114 19M2043 5L2064 106M2043 5L1959 -16M2043 5L2079 -18M2043 1445L1959 1424M2043 1445L2079 1422M2114 19L2164 19M2114 19L2149 90M2114 19L2079 -18M2114 19L2137 -43M2114 1459L2079 1422M2114 1459L2137 1397M2164 19L2149 90M2164 19L2079 -18M2164 19L2137 -43M2164 19L2180 -38M2164 1459L2079 1422M2164 1459L2137 1397M2164 1459L2180 1402M2256 7L2238 90M2256 7L2180 -38M2256 7L2288 -28M2256 7L2355 -26M2256 1447L2180 1402M2256 1447L2288 1412M2256 1447L2355 1414M2396 49L2448 64M2396 49L2487 25M2396 49L2424 109M2396 49L2355 -26M2396 49L2458 -22M2396 1489L2355 1414M2396 1489L2458 1418M2448 64L2487 25M2448 64L2424 109M2448 64L2493 -21M2448 1504L2493 1419M2487 25L2458 -22M2487 25L2493 -21M2487 1465L2458 1418M2487 1465L2493 1419M3 110L85 125M3 110L-57 150M3 110L-87 164M2563 110L2503 150M2563 110L2473 164M85 125L163 152M85 125L95 224M163 152L95 224M163 152L208 184M163 152L256 195M283 130L208 184M283 130L256 195M283 130L375 162M397 122L468 80M397 122L375 162M397 122L471 190M468 80L491 158M468 80L454 -7M468 1520L454 1433M491 158L375 162M491 158L471 190M491 158L548 227M491 158L571 222M602 121L709 158M602 121L694 166M709 158L747 98M709 158L694 166M709 158L722 180M747 98L805 90M747 98L694 166M805 90L886 122M886 122L848 221M886 122L890 173M886 122L847 241M1035 134L1046 128M1035 134L1000 177M1035 134L1113 180M1046 128L1000 177M1046 128L1113 180M1163 133L1259 148M1163 133L1113 180M1163 133L1125 212M1163 133L1234 166M1259 148L1331 142M1259 148L1368 147M1259 148L1234 166M1259 148L1357 177M1331 142L1368 147M1331 142L1234 166M1331 142L1357 177M1331 142L1373 162M1368 147L1357 177M1368 147L1373 162M1465 89L1558 106M1465 89L1373 162M1558 106L1551 180M1674 92L1724 122M1674 92L1637 185M1724 122L1775 152M1724 122L1696 194M1775 152L1770 211M1775 152L1855 195M1775 152L1778 261M1906 107L1942 137M1906 107L1960 203M1942 137L1855 195M1942 137L1960 203M1942 137L2021 189M2064 106L2149 90M2064 106L2021 189M2064 106L2132 174M2149 90L2238 90M2149 90L2132 174M2238 90L2307 128M2238 90L2329 158M2238 90L2229 189M2307 128L2329 158M2329 158L2267 238M2329 158L2393 231M2424 109L2503 150M2424 109L2473 164M2503 150L2473 164M2503 150L2534 236M65 232L95 224M65 232L-26 236M65 232L72 317M65 232L-8 246M2625 232L2534 236M2625 232L2552 246M95 224L72 317M95 224L-8 246M2655 224L2552 246M208 184L256 195M208 184L236 290M256 195L236 290M256 195L248 303M375 162L471 190M471 190L548 227M471 190L571 222M548 227L571 222M548 227L549 268M548 227L585 250M571 222L549 268M571 222L585 250M694 166L722 180M848 221L890 173M848 221L847 241M848 221L938 250M890 173L1000 177M890 173L847 241M890 173L938 250M1000 177L938 250M1000 177L990 264M1113 180L1125 212M1125 212L1079 297M1125 212L1202 280M1357 177L1373 162M1357 177L1409 253M1373 162L1409 253M1499 234L1551 180M1499 234L1409 253M1499 234L1492 309M1499 234L1574 246M1499 234L1505 362M1551 180L1637 185M1551 180L1574 246M1637 185L1696 194M1637 185L1574 246M1637 185L1653 253M1696 194L1770 211M1696 194L1653 253M1696 194L1735 250M1770 211L1855 195M1770 211L1735 250M1770 211L1778 261M1855 195L1778 261M1855 195L1852 268M1960 203L2021 189M1960 203L1957 287M2021 189L2132 174M2021 189L2090 265M2132 174L2229 189M2132 174L2090 265M2229 189L2267 238M2229 189L2229 277M2229 189L2258 264M2267 238L2229 277M2267 238L2258 264M2393 231L2473 164M2393 231L2378 317M2393 231L2473 265M2393 231L2343 335M2473 164L2473 265M2534 236L2473 265M2534 236L2552 246M72 317L143 317M72 317L16 337M72 317L92 344M143 317L92 344M143 317L165 326M143 317L108 408M236 290L248 303M236 290L165 326M236 290L263 391M248 303L165 326M248 303L263 391M248 303L263 406M396 287L445 315M396 287L389 333M396 287L412 327M396 287L485 332M445 315L389 333M445 315L412 327M445 315L485 332M549 268L585 250M549 268L485 332M549 268L614 337M685 298L727 316M685 298L614 337M685 298L655 386M685 298L752 378M727 316L752 378M727 316L684 409M847 241L938 250M938 250L990 264M990 264L1079 297M990 264L966 383M1079 297L1190 308M1079 297L1111 329M1079 297L1168 345M1190 308L1202 280M1190 308L1111 329M1190 308L1168 345M1190 308L1234 346M1202 280L1111 329M1202 280L1168 345M1202 280L1234 346M1359 312L1409 253M1359 312L1320 324M1359 312L1378 359M1409 253L1320 324M1492 309L1505 362M1492 309L1570 347M1574 246L1653 253M1574 246L1570 347M1653 253L1735 250M1653 253L1643 355M1735 250L1778 261M1735 250L1852 268M1778 261L1852 268M1852 268L1957 287M1852 268L1856 346M1957 287L2030 319M1957 287L1856 346M1957 287L1999 372M2030 319L2090 265M2030 319L1999 372M2030 319L2040 357M2229 277L2258 264M2229 277L2217 381M2258 264L2343 335M2378 317L2473 265M2378 317L2295 382M2378 317L2343 335M2378 317L2411 349M2473 265L2552 246M2552 246L2576 337M-8 246L16 337M16 337L92 344M16 337L-52 390M16 337L-35 430M2576 337L2508 390M2576 337L2525 430M92 344L165 326M92 344L108 408M165 326L185 407M263 391L185 407M263 391L263 406M263 391L258 488M389 333L412 327M389 333L402 444M412 327L485 332M412 327L402 444M485 332L529 412M614 337L655 386M614 337L592 418M655 386L592 418M655 386L684 409M752 378L823 378M752 378L684 409M752 378L792 419M823 378L888 370M823 378L792 419M823 378L807 469M823 378L920 402M888 370L966 383M888 370L792 419M888 370L920 402M966 383L920 402M966 383L1033 443M966 383L931 506M1111 329L1168 345M1168 345L1234 346M1234 346L1320 324M1234 346L1254 411M1320 324L1378 359M1320 324L1254 411M1378 359L1417 469M1505 362L1570 347M1505 362L1492 432M1505 362L1573 434M1570 347L1643 355M1570 347L1573 434M1643 355L1681 361M1681 361L1714 436M1813 382L1856 346M1813 382L1823 455M1813 382L1884 436M1856 346L1884 436M1999 372L2040 357M1999 372L2040 443M2040 357L2117 387M2040 357L2040 443M2040 357L2092 436M2117 387L2217 381M2117 387L2092 436M2117 387L2089 484M2217 381L2295 382M2217 381L2239 417M2295 382L2343 335M2295 382L2239 417M2295 382L2287 480M2343 335L2411 349M2411 349L2508 390M2411 349L2392 470M2411 349L2432 443M2508 390L2583 458M2508 390L2432 443M2508 390L2525 430M-52 390L23 458M23 458L108 408M23 458L-35 430M23 458L30 555M23 458L-27 506M2583 458L2525 430M2583 458L2533 506M108 408L185 407M108 408L141 524M185 407L263 406M185 407L187 503M263 406L258 488M397 463L402 444M397 463L364 481M397 463L469 519M397 463L343 571M402 444L364 481M402 444L469 519M529 412L592 418M592 418L684 409M592 418L638 502M684 409L638 502M792 419L807 469M792 419L866 495M807 469L778 552M807 469L866 495M807 469L781 572M920 402L931 506M1033 443L1054 473M1054 473L1158 470M1054 473L988 540M1158 470L1254 411M1158 470L1101 556M1158 470L1164 490M1158 470L1164 565M1254 411L1288 462M1254 411L1306 507M1288 462L1262 517M1288 462L1306 507M1417 469L1492 432M1417 469L1423 484M1417 469L1480 495M1492 432L1573 434M1492 432L1423 484M1492 432L1480 495M1573 434L1630 449M1573 434L1594 504M1630 449L1714 436M1630 449L1594 504M1630 449L1669 507M1630 449L1681 520M1714 436L1669 507M1714 436L1681 520M1714 436L1764 518M1823 455L1884 436M1823 455L1925 456M1823 455L1764 518M1823 455L1890 483M1884 436L1925 456M1884 436L1890 483M1925 456L1890 483M1925 456L1968 512M1925 456L2004 500M2040 443L2092 436M2040 443L2004 500M2040 443L2089 484M2092 436L2089 484M2239 417L2287 480M2239 417L2215 516M2239 417L2267 536M2287 480L2215 516M2287 480L2267 536M2392 470L2432 443M2392 470L2382 530M2392 470L2414 531M2432 443L2525 430M2432 443L2414 531M2525 430L2533 506M30 555L-27 506M30 555L31 582M30 555L124 589M30 555L-6 613M2590 555L2533 506M2590 555L2554 613M141 524L187 503M141 524L124 589M141 524L219 571M187 503L258 488M187 503L219 571M258 488L364 481M258 488L219 571M364 481L343 571M469 519L508 556M469 519L473 612M469 519L525 569M508 556L473 612M508 556L525 569M508 556L583 596M638 502L654 511M638 502L583 596M654 511L778 552M654 511L653 627M778 552L866 495M778 552L781 572M778 552L823 615M866 495L931 506M866 495L781 572M931 506L988 540M988 540L973 628M1101 556L1164 490M1101 556L1065 629M1101 556L1164 565M1164 490L1164 565M1262 517L1306 507M1262 517L1263 570M1262 517L1333 563M1306 507L1263 570M1306 507L1333 563M1423 484L1480 495M1594 504L1669 507M1594 504L1681 520M1594 504L1585 571M1669 507L1681 520M1669 507L1764 518M1681 520L1764 518M1764 518L1810 582M1890 483L1968 512M1968 512L2004 500M1968 512L2027 571M2004 500L2089 484M2004 500L2027 571M2215 516L2267 536M2267 536L2270 624M2267 536L2337 571M2382 530L2414 531M2382 530L2337 571M2382 530L2425 634M2414 531L2337 571M2414 531L2425 634M2533 506L2591 582M2533 506L2554 613M-27 506L31 582M31 582L124 589M31 582L-6 613M31 582L60 657M2591 582L2554 613M124 589L219 571M219 571L305 628M305 628L343 571M305 628L291 702M305 628L385 679M473 612L525 569M473 612L473 703M473 612L487 658M525 569L583 596M525 569L487 658M583 596L653 627M653 627L637 685M653 627L702 695M781 572L823 615M823 615L915 640M823 615L824 719M915 640L973 628M915 640L939 656M915 640L977 658M915 640L902 755M973 628L1065 629M973 628L939 656M973 628L977 658M1065 629L977 658M1065 629L1072 693M1065 629L1149 643M1164 565L1149 643M1263 570L1333 563M1263 570L1240 645M1263 570L1290 642M1333 563L1419 606M1333 563L1290 642M1419 606L1467 630M1419 606L1400 703M1419 606L1465 655M1467 630L1400 703M1467 630L1465 655M1467 630L1537 691M1585 571L1616 633M1585 571L1656 659M1616 633L1741 628M1616 633L1537 691M1616 633L1656 659M1741 628L1810 582M1741 628L1863 611M1741 628L1656 659M1741 628L1756 681M1810 582L1863 611M1810 582L1756 681M1810 582L1917 645M1863 611L1950 627M1863 611L1917 645M1863 611L1933 669M1950 627L2027 571M1950 627L1917 645M1950 627L1933 669M1950 627L2039 648M2027 571L2092 615M2027 571L2039 648M2092 615L2193 631M2092 615L2039 648M2092 615L2156 694M2092 615L2161 648M2193 631L2270 624M2193 631L2156 694M2193 631L2161 648M2193 631L2249 660M2270 624L2337 571M2270 624L2249 660M2270 624L2320 645M2337 571L2320 645M2425 634L2320 645M2425 634L2434 662M2554 613L2620 657M2554 613L2550 681M-6 613L60 657M60 657L95 717M60 657L-10 681M60 657L72 733M2620 657L2550 681M95 717L72 733M95 717L104 733M95 717L193 723M95 717L142 803M188 715L104 733M188 715L193 723M291 702L385 679M291 702L193 723M291 702L298 772M291 702L329 738M385 679L473 703M385 679L487 658M385 679L329 738M473 703L487 658M473 703L472 795M473 703L552 730M487 658L552 730M637 685L702 695M637 685L552 730M637 685L629 749M637 685L656 733M702 695L755 698M702 695L656 733M702 695L733 752M755 698L824 719M755 698L733 752M755 698L832 737M824 719L733 752M824 719L832 737M824 719L902 755M939 656L977 658M939 656L969 775M977 658L1072 693M1072 693L1149 643M1072 693L1098 764M1072 693L1164 739M1149 643L1240 645M1149 643L1164 739M1240 645L1290 642M1290 642L1337 726M1400 703L1465 655M1400 703L1337 726M1400 703L1434 723M1465 655L1537 691M1465 655L1434 723M1537 691L1489 761M1656 659L1756 681M1756 681L1816 718M1756 681L1721 770M1816 718L1816 794M1816 718L1765 804M1917 645L1933 669M1933 669L2039 648M1933 669L1975 745M2156 694L2161 648M2156 694L2086 756M2156 694L2162 765M2161 648L2249 660M2161 648L2162 765M2249 660L2320 645M2249 660L2322 723M2320 645L2322 723M2550 681L2557 731M72 733L104 733M72 733L-3 731M72 733L142 803M2632 733L2557 731M104 733L193 723M104 733L142 803M193 723L142 803M298 772L329 738M298 772L228 824M298 772L313 804M298 772L326 838M329 738L313 804M329 738L326 838M472 795L479 869M472 795L521 871M552 730L629 749M629 749L656 733M629 749L604 823M629 749L648 821M656 733L733 752M656 733L648 821M733 752L832 737M832 737L902 755M902 755L969 775M902 755L956 806M969 775L956 806M969 775L1030 829M1098 764L1164 739M1098 764L1030 829M1098 764L1111 868M1098 764L1162 853M1164 739L1202 774M1202 774L1162 853M1202 774L1260 821M1337 726L1434 723M1337 726L1260 821M1337 726L1342 810M1434 723L1489 761M1434 723L1478 814M1489 761L1429 841M1489 761L1478 814M1598 797L1620 781M1598 797L1543 869M1598 797L1604 833M1620 781L1721 770M1620 781L1604 833M1620 781L1729 818M1721 770L1816 794M1721 770L1729 818M1721 770L1765 804M1816 794L1729 818M1816 794L1765 804M1816 794L1853 863M1918 768L1975 745M1918 768L1981 834M1975 745L2030 776M1975 745L1981 834M2030 776L2086 756M2030 776L1981 834M2030 776L2065 806M2030 776L2092 805M2086 756L2162 765M2086 756L2065 806M2086 756L2092 805M2162 765L2092 805M2162 765L2225 810M2273 763L2322 723M2273 763L2225 810M2273 763L2334 819M2322 723L2334 819M2475 780L2557 731M2475 780L2457 834M2475 780L2539 828M2557 731L2539 828M73 875L-21 828M73 875L14 936M73 875L87 925M2633 875L2539 828M142 803L228 824M228 824L313 804M228 824L279 905M313 804L326 838M313 804L279 905M326 838L279 905M326 838L382 918M479 869L521 871M479 869L416 911M479 869L513 929M479 869L469 962M521 871L604 823M521 871L513 929M521 871L576 887M604 823L648 821M604 823L576 887M648 821L737 873M648 821L670 922M737 873L670 922M737 873L774 911M877 873L956 806M877 873L867 899M877 873L889 942M956 806L1030 829M1030 829L1111 868M1111 868L1162 853M1111 868L1076 935M1111 868L1133 917M1162 853L1260 821M1162 853L1133 917M1260 821L1342 810M1342 810L1429 841M1429 841L1478 814M1429 841L1414 954M1478 814L1543 869M1543 869L1604 833M1543 869L1481 942M1543 869L1537 906M1604 833L1537 906M1604 833L1646 934M1729 818L1765 804M1765 804L1853 863M1853 863L1820 940M1853 863L1914 944M1981 834L2065 806M1981 834L2055 899M2065 806L2092 805M2065 806L2055 899M2092 805L2118 896M2225 810L2266 867M2225 810L2334 819M2225 810L2205 894M2266 867L2334 819M2266 867L2205 894M2266 867L2243 927M2266 867L2280 985M2334 819L2457 834M2457 834L2539 828M2457 834L2391 942M2457 834L2430 899M14 936L87 925M14 936L-36 957M14 936L-16 962M2574 936L2524 957M2574 936L2544 962M87 925L123 1028M231 952L279 905M231 952L210 1011M231 952L313 1013M231 952L334 1018M231 952L327 1045M279 905L382 918M382 918L416 911M382 918L334 1018M382 918L469 962M416 911L334 1018M416 911L469 962M513 929L576 887M513 929L469 962M513 929L529 1010M670 922L774 911M670 922L639 994M670 922L654 1022M774 911L867 899M774 911L749 1001M774 911L828 988M867 899L889 942M867 899L828 988M889 942L978 939M889 942L828 988M889 942L943 981M978 939L1076 935M978 939L943 981M978 939L1038 960M1076 935L1133 917M1076 935L1038 960M1076 935L1068 994M1133 917L1038 960M1133 917L1068 994M1271 941L1334 957M1271 941L1193 994M1271 941L1264 978M1271 941L1296 1011M1334 957L1414 954M1334 957L1264 978M1334 957L1296 1011M1334 957L1399 984M1414 954L1481 942M1414 954L1399 984M1481 942L1537 906M1481 942L1399 984M1481 942L1525 1012M1537 906L1525 1012M1537 906L1629 968M1646 934L1736 952M1646 934L1629 968M1646 934L1717 989M1736 952L1820 940M1736 952L1629 968M1736 952L1717 989M1736 952L1721 1060M1820 940L1914 944M1820 940L1790 1035M1820 940L1890 983M1914 944L1979 956M1914 944L1890 983M1914 944L1967 976M1979 956L2055 899M1979 956L1890 983M1979 956L1967 976M1979 956L2029 999M2055 899L2118 896M2055 899L2029 999M2118 896L2205 894M2118 896L2145 966M2118 896L2162 983M2205 894L2243 927M2205 894L2162 983M2243 927L2145 966M2243 927L2162 983M2243 927L2280 985M2391 942L2430 899M2391 942L2280 985M2391 942L2321 1035M2391 942L2471 992M2430 899L2524 957M2430 899L2471 992M2524 957L2580 1038M2524 957L2471 992M2524 957L2544 962M-36 957L20 1038M20 1038L123 1028M20 1038L-16 962M20 1038L3 1063M20 1038L-16 1083M2580 1038L2544 962M2580 1038L2544 1083M123 1028L210 1011M123 1028L137 1074M123 1028L171 1100M210 1011L313 1013M210 1011L137 1074M210 1011L246 1100M313 1013L334 1018M313 1013L327 1045M334 1018L327 1045M469 962L529 1010M529 1010L639 994M529 1010L550 1095M529 1010L619 1045M639 994L654 1022M639 994L749 1001M639 994L619 1045M654 1022L749 1001M654 1022L619 1045M749 1001L828 988M749 1001L782 1083M943 981L1038 960M943 981L993 1065M1038 960L1068 994M1068 994L993 1065M1068 994L1066 1072M1193 994L1264 978M1193 994L1153 1086M1193 994L1263 1053M1264 978L1296 1011M1264 978L1263 1053M1296 1011L1263 1053M1296 1011L1346 1047M1399 984L1482 1038M1399 984L1346 1047M1482 1038L1525 1012M1482 1038L1448 1113M1482 1038L1544 1044M1525 1012L1629 968M1525 1012L1544 1044M1629 968L1717 989M1717 989L1790 1035M1717 989L1721 1060M1790 1035L1721 1060M1790 1035L1838 1093M1890 983L1967 976M1890 983L1959 1049M1967 976L2029 999M1967 976L1959 1049M2029 999L1959 1049M2029 999L2029 1041M2145 966L2162 983M2162 983L2140 1073M2280 985L2321 1035M2280 985L2257 1074M2321 1035L2257 1074M2321 1035L2325 1118M2471 992L2544 962M2471 992L2474 1077M2544 962L2563 1063M-16 962L3 1063M3 1063L-86 1077M3 1063L-16 1083M3 1063L43 1146M2563 1063L2474 1077M2563 1063L2544 1083M137 1074L171 1100M137 1074L175 1121M171 1100L246 1100M171 1100L175 1121M171 1100L249 1139M246 1100L327 1045M246 1100L175 1121M246 1100L249 1139M327 1045L249 1139M464 1105L550 1095M464 1105L380 1178M464 1105L477 1193M464 1105L497 1124M550 1095L619 1045M550 1095L497 1124M701 1118L782 1083M701 1118L640 1178M701 1118L694 1149M701 1118L723 1126M701 1118L705 1203M782 1083L837 1119M782 1083L694 1149M782 1083L723 1126M837 1119L874 1179M837 1119L884 1146M837 1119L910 1208M927 1118L993 1065M927 1118L874 1179M927 1118L884 1146M927 1118L1011 1163M927 1118L910 1208M993 1065L1066 1072M993 1065L1011 1163M1066 1072L1153 1086M1066 1072L1060 1165M1153 1086L1263 1053M1153 1086L1060 1165M1153 1086L1185 1188M1263 1053L1346 1047M1346 1047L1377 1119M1346 1047L1351 1129M1377 1119L1448 1113M1377 1119L1351 1129M1377 1119L1388 1146M1448 1113L1351 1129M1448 1113L1388 1146M1448 1113L1494 1186M1676 1098L1721 1060M1676 1098L1579 1169M1676 1098L1612 1151M1676 1098L1713 1191M1676 1098L1668 1207M1838 1093L1886 1108M1838 1093L1801 1161M1886 1108L1959 1049M1886 1108L1897 1191M1886 1108L1931 1167M1959 1049L2029 1041M2140 1073L2177 1078M2140 1073L2080 1148M2140 1073L2095 1135M2140 1073L2202 1126M2177 1078L2257 1074M2177 1078L2202 1126M2257 1074L2325 1118M2257 1074L2202 1126M2325 1118L2315 1154M2325 1118L2385 1163M2325 1118L2432 1140M2474 1077L2544 1083M2474 1077L2432 1140M2474 1077L2485 1149M2544 1083L2603 1146M2544 1083L2485 1149M-16 1083L43 1146M43 1146L100 1195M43 1146L36 1224M43 1146L-18 1212M2603 1146L2542 1212M100 1195L36 1224M100 1195L124 1221M100 1195L170 1266M175 1121L249 1139M249 1139L297 1238M380 1178L477 1193M380 1178L297 1238M380 1178L361 1260M477 1193L497 1124M477 1193L444 1261M477 1193L498 1274M497 1124L593 1203M640 1178L694 1149M640 1178L723 1126M640 1178L593 1203M640 1178L705 1203M694 1149L723 1126M694 1149L705 1203M723 1126L705 1203M874 1179L884 1146M874 1179L819 1275M874 1179L910 1208M884 1146L910 1208M1011 1163L1060 1165M1011 1163L1032 1235M1011 1163L1097 1202M1060 1165L1032 1235M1060 1165L1097 1202M1185 1188L1228 1182M1185 1188L1097 1202M1185 1188L1181 1219M1228 1182L1181 1219M1351 1129L1388 1146M1388 1146L1342 1244M1388 1146L1454 1222M1494 1186L1579 1169M1494 1186L1454 1222M1494 1186L1551 1235M1579 1169L1612 1151M1579 1169L1551 1235M1579 1169L1668 1207M1612 1151L1713 1191M1612 1151L1551 1235M1612 1151L1668 1207M1713 1191L1801 1161M1713 1191L1668 1207M1713 1191L1754 1220M1801 1161L1754 1220M1801 1161L1831 1233M1897 1191L1931 1167M1897 1191L1831 1233M1897 1191L1885 1278M1897 1191L1922 1254M1931 1167L1922 1254M2080 1148L2095 1135M2080 1148L2044 1221M2080 1148L2136 1218M2095 1135L2044 1221M2095 1135L2136 1218M2202 1126L2315 1154M2202 1126L2224 1227M2315 1154L2385 1163M2315 1154L2295 1250M2385 1163L2432 1140M2385 1163L2485 1149M2385 1163L2383 1239M2432 1140L2485 1149M2485 1149L2542 1212M36 1224L124 1221M36 1224L-18 1212M36 1224L52 1302M2596 1224L2542 1212M124 1221L170 1266M124 1221L124 1299M124 1221L167 1293M170 1266L124 1299M170 1266L167 1293M170 1266L241 1311M297 1238L361 1260M297 1238L241 1311M297 1238L347 1334M361 1260L444 1261M361 1260L347 1334M361 1260L411 1305M444 1261L498 1274M444 1261L411 1305M444 1261L485 1340M498 1274L485 1340M498 1274L486 1382M705 1203L752 1275M752 1275L819 1275M752 1275L686 1325M752 1275L781 1359M752 1275L814 1328M819 1275L814 1328M819 1275L889 1306M910 1208L889 1306M1032 1235L1097 1202M1032 1235L998 1319M1032 1235L1089 1299M1097 1202L1181 1219M1181 1219L1260 1270M1260 1270L1342 1244M1260 1270L1240 1303M1260 1270L1302 1295M1260 1270L1294 1365M1342 1244L1439 1276M1342 1244L1302 1295M1342 1244L1379 1324M1439 1276L1454 1222M1439 1276L1379 1324M1439 1276L1464 1331M1439 1276L1448 1366M1454 1222L1551 1235M1454 1222L1464 1331M1668 1207L1754 1220M1754 1220L1831 1233M1754 1220L1766 1287M1831 1233L1885 1278M1831 1233L1842 1290M1885 1278L1922 1254M1885 1278L1842 1290M1885 1278L1961 1283M1922 1254L1842 1290M1922 1254L1961 1283M2044 1221L2136 1218M2044 1221L1961 1283M2044 1221L2074 1298M2136 1218L2224 1227M2136 1218L2140 1280M2224 1227L2295 1250M2224 1227L2140 1280M2224 1227L2181 1315M2295 1250L2383 1239M2295 1250L2290 1305M2295 1250L2365 1283M2383 1239L2425 1276M2383 1239L2365 1283M2425 1276L2542 1212M2425 1276L2365 1283M2425 1276L2422 1342M2425 1276L2494 1342M52 1302L124 1299M52 1302L5 1367M52 1302L101 1369M124 1299L167 1293M124 1299L101 1369M167 1293L241 1311M167 1293L215 1379M241 1311L215 1379M241 1311L305 1387M347 1334L411 1305M347 1334L305 1387M347 1334L390 1374M411 1305L485 1340M411 1305L390 1374M485 1340L390 1374M485 1340L486 1382M592 1335L686 1325M592 1335L486 1382M592 1335L598 1433M686 1325L781 1359M686 1325L739 1395M781 1359L814 1328M781 1359L739 1395M781 1359L803 1371M814 1328L889 1306M814 1328L803 1371M889 1306L998 1319M889 1306L803 1371M998 1319L1089 1299M998 1319L950 1415M998 1319L997 1387M1089 1299L1184 1359M1089 1299L997 1387M1184 1359L1240 1303M1184 1359L1175 1377M1184 1359L1258 1424M1240 1303L1302 1295M1240 1303L1175 1377M1240 1303L1294 1365M1302 1295L1379 1324M1302 1295L1294 1365M1379 1324L1383 1411M1379 1324L1448 1366M1464 1331L1555 1360M1464 1331L1448 1366M1464 1331L1564 1377M1555 1360L1564 1377M1669 1332L1718 1342M1669 1332L1766 1287M1669 1332L1564 1377M1669 1332L1674 1399M1669 1332L1700 1403M1718 1342L1766 1287M1718 1342L1674 1399M1718 1342L1700 1403M1718 1342L1791 1419M1766 1287L1842 1290M1961 1283L2074 1298M2074 1298L2140 1280M2074 1298L2181 1315M2140 1280L2181 1315M2181 1315L2137 1397M2181 1315L2180 1402M2290 1305L2365 1283M2290 1305L2288 1412M2365 1283L2422 1342M2422 1342L2494 1342M2422 1342L2355 1414M2422 1342L2458 1418M2494 1342L2565 1367M2494 1342L2458 1418M2494 1342L2493 1419M-66 1342L5 1367M5 1367L101 1369M5 1367L-67 1419M2565 1367L2493 1419M215 1379L305 1387M305 1387L390 1374M390 1374L454 1433M454 1433L486 1382M598 1433L678 1432M678 1432L739 1395M739 1395L803 1371M950 1415L997 1387M950 1415L1041 1435M997 1387L1041 1435M1175 1377L1258 1424M1258 1424L1294 1365M1294 1365L1383 1411M1383 1411L1448 1366M1674 1399L1700 1403M1700 1403L1791 1419M1791 1419L1862 1433M1862 1433L1959 1424M2079 1422L2137 1397M2079 1422L2180 1402M2137 1397L2180 1402M2288 1412L2355 1414M2458 1418L2493 1419"/></svg>