<svg xmlns="http://www.w3.org/2000/svg" width="2560" height="1440" fill="#fff"><circle cx="35" cy="4" r="4"/><circle cx="141" cy="42" r="5"/><circle cx="169" cy="63" r="5"/><circle cx="284" cy="57" r="5"/><circle cx="379" cy="16" r="4"/><circle cx="401" cy="33" r="4"/><circle cx="525" cy="38" r="4"/><circle cx="603" cy="75" r="5"/><circle cx="665" cy="10" r="5"/><circle cx="762" cy="20" r="5"/><circle cx="866" cy="44" r="5"/><circle cx="904" cy="43" r="5"/><circle cx="1037" cy="22" r="6"/><circle cx="1117" cy="19" r="6"/><circle cx="1173" cy="45" r="4"/><circle cx="1237" cy="47" r="5"/><circle cx="1322" cy="0" r="5"/><circle cx="1322" cy="1440" r="5"/><circle cx="1382" cy="53" r="4"/><circle cx="1487" cy="28" r="5"/><circle cx="1565" cy="15" r="6"/><circle cx="1629" cy="61" r="5"/><circle cx="1692" cy="31" r="5"/><circle cx="1814" cy="23" r="5"/><circle cx="1848" cy="39" r="5"/><circle cx="1971" cy="14" r="5"/><circle cx="2043" cy="73" r="5"/><circle cx="2142" cy="31" r="5"/><circle cx="2209" cy="17" r="5"/><circle cx="2259" cy="31" r="5"/><circle cx="2322" cy="49" r="6"/><circle cx="2476" cy="73" r="5"/><circle cx="2547" cy="44" r="6"/><circle cx="68" cy="116" r="4"/><circle cx="107" cy="134" r="5"/><circle cx="162" cy="113" r="5"/><circle cx="291" cy="119" r="4"/><circle cx="356" cy="148" r="4"/><circle cx="445" cy="140" r="5"/><circle cx="553" cy="144" r="6"/><circle cx="612" cy="98" r="5"/><circle cx="681" cy="119" r="6"/><circle cx="782" cy="119" r="5"/><circle cx="860" cy="104" r="5"/><circle cx="889" cy="107" r="6"/><circle cx="1036" cy="141" r="5"/><circle cx="1084" cy="93" r="5"/><circle cx="1192" cy="159" r="4"/><circle cx="1268" cy="87" r="6"/><circle cx="1352" cy="125" r="5"/><circle cx="1417" cy="139" r="5"/><circle cx="1484" cy="117" r="6"/><circle cx="1579" cy="94" r="5"/><circle cx="1621" cy="125" r="4"/><circle cx="1691" cy="110" r="6"/><circle cx="1829" cy="93" r="4"/><circle cx="1840" cy="140" r="6"/><circle cx="1988" cy="82" r="4"/><circle cx="2060" cy="85" r="5"/><circle cx="2148" cy="97" r="5"/><circle cx="2178" cy="102" r="5"/><circle cx="2316" cy="149" r="5"/><circle cx="2320" cy="88" r="5"/><circle cx="2453" cy="123" r="4"/><circle cx="2519" cy="89" r="5"/><circle cx="54" cy="223" r="4"/><circle cx="119" cy="186" r="5"/><circle cx="206" cy="195" r="5"/><circle cx="274" cy="196" r="5"/><circle cx="330" cy="217" r="5"/><circle cx="428" cy="210" r="4"/><circle cx="492" cy="178" r="5"/><circle cx="614" cy="180" r="6"/><circle cx="693" cy="210" r="5"/><circle cx="725" cy="234" r="5"/><circle cx="822" cy="193" r="4"/><circle cx="954" cy="192" r="4"/><circle cx="961" cy="204" r="6"/><circle cx="1115" cy="187" r="5"/><circle cx="1153" cy="211" r="5"/><circle cx="1280" cy="171" r="5"/><circle cx="1339" cy="195" r="4"/><circle cx="1360" cy="176" r="5"/><circle cx="1502" cy="174" r="4"/><circle cx="1547" cy="170" r="6"/><circle cx="1670" cy="187" r="4"/><circle cx="1729" cy="169" r="4"/><circle cx="1765" cy="169" r="6"/><circle cx="1864" cy="235" r="4"/><circle cx="1931" cy="239" r="5"/><circle cx="2053" cy="200" r="4"/><circle cx="2085" cy="188" r="4"/><circle cx="2195" cy="198" r="5"/><circle cx="2319" cy="239" r="5"/><circle cx="2355" cy="221" r="5"/><circle cx="2421" cy="227" r="5"/><circle cx="2548" cy="215" r="5"/><circle cx="30" cy="279" r="5"/><circle cx="137" cy="266" r="5"/><circle cx="237" cy="313" r="5"/><circle cx="311" cy="306" r="5"/><circle cx="386" cy="244" r="5"/><circle cx="479" cy="252" r="5"/><circle cx="542" cy="300" r="6"/><circle cx="620" cy="272" r="5"/><circle cx="693" cy="296" r="4"/><circle cx="786" cy="272" r="6"/><circle cx="802" cy="241" r="4"/><circle cx="902" cy="270" r="5"/><circle cx="986" cy="241" r="6"/><circle cx="1080" cy="242" r="5"/><circle cx="1152" cy="278" r="4"/><circle cx="1279" cy="258" r="6"/><circle cx="1343" cy="299" r="5"/><circle cx="1371" cy="257" r="5"/><circle cx="1447" cy="295" r="6"/><circle cx="1557" cy="289" r="5"/><circle cx="1675" cy="319" r="5"/><circle cx="1747" cy="289" r="6"/><circle cx="1825" cy="254" r="6"/><circle cx="1871" cy="275" r="5"/><circle cx="1980" cy="319" r="6"/><circle cx="2060" cy="270" r="6"/><circle cx="2155" cy="276" r="5"/><circle cx="2199" cy="240" r="4"/><circle cx="2300" cy="318" r="5"/><circle cx="2383" cy="281" r="5"/><circle cx="2421" cy="302" r="4"/><circle cx="2521" cy="260" r="5"/><circle cx="75" cy="399" r="5"/><circle cx="145" cy="322" r="5"/><circle cx="193" cy="389" r="5"/><circle cx="289" cy="353" r="5"/><circle cx="356" cy="345" r="5"/><circle cx="454" cy="339" r="4"/><circle cx="503" cy="360" r="5"/><circle cx="628" cy="352" r="4"/><circle cx="664" cy="367" r="5"/><circle cx="795" cy="397" r="5"/><circle cx="841" cy="399" r="6"/><circle cx="891" cy="395" r="4"/><circle cx="1021" cy="344" r="5"/><circle cx="1067" cy="324" r="5"/><circle cx="1136" cy="327" r="5"/><circle cx="1253" cy="349" r="6"/><circle cx="1297" cy="345" r="4"/><circle cx="1432" cy="355" r="5"/><circle cx="1453" cy="399" r="5"/><circle cx="1522" cy="361" r="4"/><circle cx="1629" cy="366" r="4"/><circle cx="1715" cy="383" r="5"/><circle cx="1808" cy="376" r="4"/><circle cx="1905" cy="384" r="4"/><circle cx="1980" cy="363" r="5"/><circle cx="2079" cy="383" r="5"/><circle cx="2157" cy="327" r="5"/><circle cx="2178" cy="375" r="5"/><circle cx="2245" cy="361" r="6"/><circle cx="2324" cy="337" r="5"/><circle cx="2468" cy="378" r="4"/><circle cx="2518" cy="329" r="4"/><circle cx="4" cy="471" r="5"/><circle cx="2564" cy="471" r="5"/><circle cx="111" cy="404" r="5"/><circle cx="176" cy="425" r="5"/><circle cx="245" cy="402" r="4"/><circle cx="337" cy="450" r="5"/><circle cx="444" cy="402" r="5"/><circle cx="513" cy="428" r="5"/><circle cx="617" cy="415" r="5"/><circle cx="706" cy="465" r="5"/><circle cx="773" cy="458" r="6"/><circle cx="851" cy="478" r="4"/><circle cx="927" cy="406" r="5"/><circle cx="995" cy="438" r="4"/><circle cx="1049" cy="459" r="6"/><circle cx="1141" cy="473" r="5"/><circle cx="1269" cy="446" r="4"/><circle cx="1325" cy="476" r="5"/><circle cx="1396" cy="451" r="5"/><circle cx="1494" cy="451" r="5"/><circle cx="1555" cy="461" r="5"/><circle cx="1640" cy="470" r="4"/><circle cx="1688" cy="473" r="6"/><circle cx="1795" cy="456" r="4"/><circle cx="1906" cy="402" r="6"/><circle cx="1971" cy="479" r="6"/><circle cx="2024" cy="441" r="6"/><circle cx="2141" cy="412" r="5"/><circle cx="2171" cy="402" r="5"/><circle cx="2257" cy="419" r="5"/><circle cx="2390" cy="407" r="5"/><circle cx="2403" cy="429" r="4"/><circle cx="2524" cy="440" r="5"/><circle cx="68" cy="500" r="6"/><circle cx="139" cy="549" r="6"/><circle cx="212" cy="492" r="5"/><circle cx="298" cy="555" r="5"/><circle cx="338" cy="529" r="5"/><circle cx="453" cy="514" r="5"/><circle cx="508" cy="548" r="5"/><circle cx="616" cy="532" r="6"/><circle cx="710" cy="533" r="6"/><circle cx="733" cy="544" r="6"/><circle cx="877" cy="522" r="4"/><circle cx="920" cy="510" r="4"/><circle cx="966" cy="511" r="4"/><circle cx="1072" cy="545" r="5"/><circle cx="1123" cy="535" r="5"/><circle cx="1263" cy="539" r="5"/><circle cx="1358" cy="552" r="4"/><circle cx="1384" cy="551" r="6"/><circle cx="1497" cy="545" r="5"/><circle cx="1577" cy="518" r="5"/><circle cx="1601" cy="503" r="5"/><circle cx="1687" cy="485" r="6"/><circle cx="1791" cy="500" r="5"/><circle cx="1894" cy="481" r="6"/><circle cx="1951" cy="519" r="4"/><circle cx="2042" cy="516" r="5"/><circle cx="2157" cy="481" r="5"/><circle cx="2172" cy="541" r="4"/><circle cx="2300" cy="488" r="6"/><circle cx="2327" cy="481" r="4"/><circle cx="2476" cy="495" r="6"/><circle cx="2487" cy="510" r="4"/><circle cx="49" cy="625" r="5"/><circle cx="98" cy="611" r="4"/><circle cx="163" cy="619" r="5"/><circle cx="292" cy="580" r="5"/><circle cx="331" cy="621" r="5"/><circle cx="469" cy="626" r="4"/><circle cx="518" cy="582" r="5"/><circle cx="564" cy="598" r="6"/><circle cx="672" cy="599" r="5"/><circle cx="741" cy="596" r="6"/><circle cx="816" cy="617" r="6"/><circle cx="894" cy="574" r="6"/><circle cx="1019" cy="600" r="6"/><circle cx="1092" cy="640" r="5"/><circle cx="1135" cy="583" r="5"/><circle cx="1260" cy="579" r="4"/><circle cx="1351" cy="611" r="5"/><circle cx="1361" cy="621" r="4"/><circle cx="1491" cy="601" r="6"/><circle cx="1548" cy="575" r="5"/><circle cx="1655" cy="587" r="6"/><circle cx="1758" cy="587" r="4"/><circle cx="1823" cy="595" r="4"/><circle cx="1886" cy="577" r="5"/><circle cx="1970" cy="593" r="4"/><circle cx="2014" cy="584" r="6"/><circle cx="2122" cy="630" r="5"/><circle cx="2167" cy="614" r="5"/><circle cx="2307" cy="619" r="5"/><circle cx="2359" cy="600" r="6"/><circle cx="2436" cy="622" r="6"/><circle cx="2532" cy="636" r="5"/><circle cx="31" cy="667" r="5"/><circle cx="81" cy="674" r="5"/><circle cx="233" cy="684" r="4"/><circle cx="316" cy="691" r="5"/><circle cx="392" cy="681" r="4"/><circle cx="479" cy="698" r="5"/><circle cx="515" cy="682" r="5"/><circle cx="578" cy="712" r="6"/><circle cx="691" cy="647" r="5"/><circle cx="772" cy="713" r="5"/><circle cx="873" cy="700" r="4"/><circle cx="910" cy="657" r="6"/><circle cx="1016" cy="661" r="5"/><circle cx="1045" cy="716" r="4"/><circle cx="1127" cy="668" r="5"/><circle cx="1246" cy="671" r="6"/><circle cx="1340" cy="656" r="5"/><circle cx="1427" cy="661" r="4"/><circle cx="1483" cy="664" r="4"/><circle cx="1597" cy="665" r="5"/><circle cx="1652" cy="662" r="6"/><circle cx="1749" cy="714" r="4"/><circle cx="1786" cy="701" r="4"/><circle cx="1916" cy="672" r="5"/><circle cx="1947" cy="663" r="4"/><circle cx="2075" cy="708" r="5"/><circle cx="2149" cy="699" r="6"/><circle cx="2189" cy="651" r="5"/><circle cx="2252" cy="717" r="5"/><circle cx="2344" cy="675" r="6"/><circle cx="2468" cy="686" r="4"/><circle cx="2542" cy="681" r="4"/><circle cx="46" cy="755" r="5"/><circle cx="100" cy="771" r="5"/><circle cx="229" cy="775" r="5"/><circle cx="243" cy="728" r="5"/><circle cx="377" cy="735" r="6"/><circle cx="420" cy="745" r="4"/><circle cx="556" cy="745" r="6"/><circle cx="581" cy="739" r="4"/><circle cx="717" cy="785" r="4"/><circle cx="743" cy="794" r="4"/><circle cx="870" cy="767" r="6"/><circle cx="933" cy="772" r="5"/><circle cx="968" cy="788" r="6"/><circle cx="1092" cy="727" r="5"/><circle cx="1167" cy="747" r="6"/><circle cx="1214" cy="757" r="4"/><circle cx="1291" cy="746" r="5"/><circle cx="1361" cy="756" r="4"/><circle cx="1485" cy="798" r="4"/><circle cx="1544" cy="798" r="4"/><circle cx="1645" cy="728" r="4"/><circle cx="1692" cy="725" r="5"/><circle cx="1833" cy="753" r="5"/><circle cx="1847" cy="787" r="4"/><circle cx="1981" cy="785" r="6"/><circle cx="2028" cy="724" r="4"/><circle cx="2111" cy="759" r="4"/><circle cx="2240" cy="763" r="5"/><circle cx="2296" cy="778" r="5"/><circle cx="2354" cy="725" r="5"/><circle cx="2451" cy="732" r="4"/><circle cx="2530" cy="762" r="5"/><circle cx="70" cy="842" r="5"/><circle cx="89" cy="821" r="4"/><circle cx="205" cy="806" r="6"/><circle cx="273" cy="879" r="6"/><circle cx="394" cy="862" r="5"/><circle cx="437" cy="838" r="5"/><circle cx="511" cy="816" r="4"/><circle cx="630" cy="809" r="4"/><circle cx="690" cy="877" r="4"/><circle cx="791" cy="811" r="4"/><circle cx="831" cy="803" r="5"/><circle cx="933" cy="836" r="6"/><circle cx="964" cy="813" r="6"/><circle cx="1093" cy="855" r="5"/><circle cx="1125" cy="866" r="6"/><circle cx="1270" cy="870" r="5"/><circle cx="1322" cy="839" r="4"/><circle cx="1403" cy="844" r="5"/><circle cx="1442" cy="824" r="6"/><circle cx="1597" cy="813" r="6"/><circle cx="1620" cy="878" r="6"/><circle cx="1741" cy="857" r="6"/><circle cx="1766" cy="872" r="6"/><circle cx="1916" cy="822" r="5"/><circle cx="1983" cy="819" r="4"/><circle cx="2041" cy="854" r="4"/><circle cx="2145" cy="855" r="4"/><circle cx="2172" cy="824" r="4"/><circle cx="2291" cy="842" r="6"/><circle cx="2343" cy="879" r="5"/><circle cx="2412" cy="809" r="5"/><circle cx="2549" cy="858" r="4"/><circle cx="60" cy="895" r="4"/><circle cx="88" cy="942" r="5"/><circle cx="233" cy="935" r="5"/><circle cx="271" cy="880" r="6"/><circle cx="379" cy="934" r="4"/><circle cx="473" cy="896" r="5"/><circle cx="493" cy="948" r="4"/><circle cx="566" cy="921" r="4"/><circle cx="684" cy="946" r="4"/><circle cx="794" cy="909" r="5"/><circle cx="828" cy="945" r="4"/><circle cx="904" cy="943" r="4"/><circle cx="1013" cy="901" r="5"/><circle cx="1063" cy="925" r="5"/><circle cx="1133" cy="896" r="6"/><circle cx="1268" cy="926" r="5"/><circle cx="1341" cy="903" r="5"/><circle cx="1364" cy="959" r="5"/><circle cx="1442" cy="883" r="5"/><circle cx="1584" cy="916" r="6"/><circle cx="1662" cy="925" r="5"/><circle cx="1681" cy="937" r="5"/><circle cx="1796" cy="930" r="5"/><circle cx="1870" cy="941" r="4"/><circle cx="1970" cy="917" r="4"/><circle cx="2060" cy="917" r="5"/><circle cx="2101" cy="955" r="6"/><circle cx="2189" cy="942" r="5"/><circle cx="2306" cy="923" r="6"/><circle cx="2380" cy="891" r="5"/><circle cx="2445" cy="919" r="5"/><circle cx="2549" cy="889" r="4"/><circle cx="33" cy="1011" r="6"/><circle cx="109" cy="975" r="5"/><circle cx="197" cy="966" r="4"/><circle cx="258" cy="1005" r="6"/><circle cx="383" cy="962" r="5"/><circle cx="462" cy="1033" r="5"/><circle cx="551" cy="1027" r="6"/><circle cx="608" cy="1017" r="5"/><circle cx="701" cy="999" r="5"/><circle cx="728" cy="968" r="5"/><circle cx="831" cy="1017" r="6"/><circle cx="926" cy="1006" r="4"/><circle cx="1039" cy="976" r="4"/><circle cx="1088" cy="1004" r="5"/><circle cx="1155" cy="966" r="6"/><circle cx="1225" cy="996" r="6"/><circle cx="1315" cy="982" r="5"/><circle cx="1382" cy="1033" r="4"/><circle cx="1515" cy="1003" r="6"/><circle cx="1529" cy="999" r="5"/><circle cx="1652" cy="962" r="4"/><circle cx="1746" cy="1004" r="5"/><circle cx="1788" cy="1040" r="6"/><circle cx="1867" cy="1015" r="5"/><circle cx="1968" cy="1037" r="4"/><circle cx="2042" cy="972" r="5"/><circle cx="2138" cy="968" r="4"/><circle cx="2240" cy="1018" r="6"/><circle cx="2304" cy="1017" r="4"/><circle cx="2396" cy="1028" r="6"/><circle cx="2467" cy="992" r="5"/><circle cx="2490" cy="1024" r="5"/><circle cx="63" cy="1065" r="4"/><circle cx="142" cy="1055" r="4"/><circle cx="200" cy="1110" r="5"/><circle cx="262" cy="1044" r="5"/><circle cx="325" cy="1061" r="4"/><circle cx="473" cy="1062" r="5"/><circle cx="531" cy="1100" r="5"/><circle cx="572" cy="1040" r="4"/><circle cx="673" cy="1051" r="6"/><circle cx="766" cy="1045" r="4"/><circle cx="872" cy="1113" r="5"/><circle cx="944" cy="1114" r="5"/><circle cx="1032" cy="1051" r="4"/><circle cx="1061" cy="1094" r="5"/><circle cx="1153" cy="1096" r="5"/><circle cx="1266" cy="1120" r="6"/><circle cx="1328" cy="1090" r="4"/><circle cx="1436" cy="1052" r="6"/><circle cx="1453" cy="1093" r="4"/><circle cx="1529" cy="1074" r="6"/><circle cx="1674" cy="1043" r="5"/><circle cx="1702" cy="1048" r="4"/><circle cx="1806" cy="1098" r="5"/><circle cx="1864" cy="1083" r="6"/><circle cx="1923" cy="1064" r="5"/><circle cx="2039" cy="1065" r="4"/><circle cx="2114" cy="1085" r="4"/><circle cx="2212" cy="1087" r="4"/><circle cx="2312" cy="1074" r="4"/><circle cx="2365" cy="1057" r="6"/><circle cx="2448" cy="1056" r="4"/><circle cx="2550" cy="1054" r="5"/><circle cx="30" cy="1142" r="5"/><circle cx="122" cy="1158" r="5"/><circle cx="170" cy="1151" r="6"/><circle cx="317" cy="1120" r="5"/><circle cx="336" cy="1121" r="6"/><circle cx="446" cy="1159" r="5"/><circle cx="512" cy="1132" r="4"/><circle cx="589" cy="1174" r="4"/><circle cx="693" cy="1127" r="6"/><circle cx="784" cy="1149" r="4"/><circle cx="821" cy="1132" r="6"/><circle cx="905" cy="1149" r="5"/><circle cx="998" cy="1166" r="6"/><circle cx="1110" cy="1125" r="4"/><circle cx="1191" cy="1148" r="5"/><circle cx="1223" cy="1142" r="4"/><circle cx="1314" cy="1145" r="4"/><circle cx="1391" cy="1199" r="4"/><circle cx="1480" cy="1150" r="5"/><circle cx="1536" cy="1151" r="5"/><circle cx="1659" cy="1165" r="5"/><circle cx="1706" cy="1126" r="4"/><circle cx="1782" cy="1139" r="4"/><circle cx="1911" cy="1134" r="6"/><circle cx="1983" cy="1153" r="5"/><circle cx="2042" cy="1175" r="5"/><circle cx="2159" cy="1163" r="6"/><circle cx="2184" cy="1185" r="6"/><circle cx="2253" cy="1121" r="6"/><circle cx="2341" cy="1144" r="5"/><circle cx="2424" cy="1149" r="5"/><circle cx="2502" cy="1156" r="6"/><circle cx="67" cy="1224" r="5"/><circle cx="111" cy="1235" r="6"/><circle cx="168" cy="1210" r="6"/><circle cx="241" cy="1259" r="6"/><circle cx="384" cy="1269" r="5"/><circle cx="463" cy="1242" r="4"/><circle cx="558" cy="1246" r="5"/><circle cx="563" cy="1224" r="5"/><circle cx="678" cy="1264" r="5"/><circle cx="728" cy="1246" r="5"/><circle cx="802" cy="1227" r="6"/><circle cx="910" cy="1208" r="6"/><circle cx="1023" cy="1238" r="5"/><circle cx="1065" cy="1265" r="6"/><circle cx="1147" cy="1222" r="5"/><circle cx="1270" cy="1212" r="5"/><circle cx="1345" cy="1235" r="5"/><circle cx="1368" cy="1232" r="5"/><circle cx="1475" cy="1258" r="6"/><circle cx="1576" cy="1233" r="5"/><circle cx="1603" cy="1241" r="6"/><circle cx="1750" cy="1214" r="5"/><circle cx="1818" cy="1226" r="6"/><circle cx="1894" cy="1276" r="6"/><circle cx="1982" cy="1210" r="5"/><circle cx="2066" cy="1243" r="4"/><circle cx="2102" cy="1272" r="5"/><circle cx="2207" cy="1220" r="5"/><circle cx="2259" cy="1214" r="6"/><circle cx="2355" cy="1205" r="4"/><circle cx="2477" cy="1269" r="6"/><circle cx="2494" cy="1245" r="5"/><circle cx="29" cy="1342" r="6"/><circle cx="127" cy="1359" r="6"/><circle cx="229" cy="1288" r="6"/><circle cx="251" cy="1351" r="5"/><circle cx="327" cy="1281" r="4"/><circle cx="421" cy="1281" r="5"/><circle cx="482" cy="1330" r="5"/><circle cx="619" cy="1357" r="5"/><circle cx="705" cy="1358" r="4"/><circle cx="784" cy="1311" r="5"/><circle cx="839" cy="1329" r="4"/><circle cx="946" cy="1288" r="4"/><circle cx="1000" cy="1311" r="6"/><circle cx="1048" cy="1329" r="5"/><circle cx="1158" cy="1325" r="5"/><circle cx="1209" cy="1329" r="5"/><circle cx="1324" cy="1301" r="5"/><circle cx="1376" cy="1314" r="6"/><circle cx="1448" cy="1356" r="4"/><circle cx="1598" cy="1307" r="5"/><circle cx="1643" cy="1345" r="6"/><circle cx="1736" cy="1310" r="5"/><circle cx="1801" cy="1346" r="5"/><circle cx="1908" cy="1282" r="5"/><circle cx="1930" cy="1320" r="4"/><circle cx="2005" cy="1293" r="5"/><circle cx="2154" cy="1296" r="4"/><circle cx="2174" cy="1343" r="5"/><circle cx="2274" cy="1289" r="6"/><circle cx="2327" cy="1340" r="4"/><circle cx="2458" cy="1329" r="4"/><circle cx="2530" cy="1360" r="4"/><circle cx="5" cy="1376" r="5"/><circle cx="135" cy="1418" r="6"/><circle cx="238" cy="1438" r="5"/><circle cx="238" cy="-2" r="5"/><circle cx="272" cy="1383" r="6"/><circle cx="333" cy="1373" r="5"/><circle cx="432" cy="1430" r="4"/><circle cx="533" cy="1377" r="4"/><circle cx="610" cy="1392" r="5"/><circle cx="641" cy="1433" r="4"/><circle cx="758" cy="1372" r="5"/><circle cx="804" cy="1401" r="5"/><circle cx="918" cy="1361" r="6"/><circle cx="1023" cy="1437" r="5"/><circle cx="1023" cy="-3" r="5"/><circle cx="1072" cy="1438" r="4"/><circle cx="1072" cy="-2" r="4"/><circle cx="1185" cy="1363" r="5"/><circle cx="1269" cy="1393" r="5"/><circle cx="1286" cy="1361" r="6"/><circle cx="1410" cy="1377" r="4"/><circle cx="1479" cy="1398" r="4"/><circle cx="1538" cy="1417" r="6"/><circle cx="1677" cy="1432" r="4"/><circle cx="1736" cy="1365" r="5"/><circle cx="1788" cy="1411" r="6"/><circle cx="1894" cy="1431" r="6"/><circle cx="1931" cy="1415" r="6"/><circle cx="2036" cy="1435" r="5"/><circle cx="2036" cy="-5" r="5"/><circle cx="2117" cy="1439" r="4"/><circle cx="2117" cy="-1" r="4"/><circle cx="2230" cy="1415" r="5"/><circle cx="2317" cy="1370" r="6"/><circle cx="2321" cy="1411" r="5"/><circle cx="2434" cy="1400" r="6"/><circle cx="2542" cy="1410" r="5"/><path stroke="#fff" d="M35 4L-13 44M35 4L29 -98M35 4L5 -64M35 4L135 -22M35 4L-18 -30M2595 4L2547 44M2595 4L2542 -30M35 1444L29 1342M35 1444L5 1376M35 1444L135 1418M35 1444L-18 1410M2595 1444L2542 1410M141 42L169 63M141 42L107 134M141 42L162 113M141 42L135 -22M141 1482L135 1418M169 63L107 134M169 63L162 113M169 63L135 -22M169 63L238 -2M169 1503L135 1418M169 1503L238 1438M284 57L379 16M284 57L291 119M284 57L238 -2M284 57L272 -57M284 1497L238 1438M284 1497L272 1383M379 16L401 33M379 16L333 -67M379 16L432 -10M379 1456L333 1373M379 1456L432 1430M401 33L432 -10M401 1473L432 1430M525 38L603 75M525 38L612 98M525 38L432 -10M525 38L533 -63M525 1478L432 1430M525 1478L533 1377M603 75L665 10M603 75L553 144M603 75L612 98M603 75L681 119M665 10L762 20M665 10L610 -48M665 10L641 -7M665 1450L610 1392M665 1450L641 1433M762 20L782 119M762 20L758 -68M762 20L804 -39M762 1460L758 1372M762 1460L804 1401M866 44L904 43M866 44L860 104M866 44L889 107M866 44L804 -39M866 1484L804 1401M904 43L860 104M904 43L889 107M904 43L918 -79M904 1483L918 1361M1037 22L1117 19M1037 22L1084 93M1037 22L1023 -3M1037 22L1072 -2M1037 1462L1023 1437M1037 1462L1072 1438M1117 19L1173 45M1117 19L1084 93M1117 19L1023 -3M1117 19L1072 -2M1117 1459L1023 1437M1117 1459L1072 1438M1173 45L1237 47M1173 45L1072 -2M1173 1485L1072 1438M1237 47L1322 0M1237 47L1268 87M1237 47L1269 -47M1237 1487L1269 1393M1322 0L1382 53M1322 0L1268 87M1322 0L1269 -47M1322 0L1286 -79M1322 1440L1269 1393M1322 1440L1286 1361M1382 53L1487 28M1382 53L1352 125M1382 53L1417 139M1487 28L1565 15M1487 28L1484 117M1487 28L1479 -42M1487 28L1538 -23M1487 1468L1479 1398M1487 1468L1538 1417M1565 15L1629 61M1565 15L1579 94M1565 15L1479 -42M1565 15L1538 -23M1565 1455L1479 1398M1565 1455L1538 1417M1629 61L1692 31M1629 61L1579 94M1629 61L1621 125M1629 61L1691 110M1692 31L1691 110M1692 31L1677 -8M1692 1471L1677 1432M1814 23L1848 39M1814 23L1829 93M1814 23L1788 -29M1814 23L1894 -9M1814 1463L1788 1411M1814 1463L1894 1431M1848 39L1829 93M1848 39L1840 140M1848 39L1788 -29M1848 39L1894 -9M1848 1479L1788 1411M1848 1479L1894 1431M1971 14L2043 73M1971 14L1988 82M1971 14L1894 -9M1971 14L1931 -25M1971 14L2036 -5M1971 1454L1894 1431M1971 1454L1931 1415M1971 1454L2036 1435M2043 73L1988 82M2043 73L2060 85M2043 73L2036 -5M2043 1513L2036 1435M2142 31L2209 17M2142 31L2060 85M2142 31L2148 97M2142 31L2178 102M2142 31L2117 -1M2142 1471L2117 1439M2209 17L2259 31M2209 17L2178 102M2209 17L2117 -1M2209 17L2230 -25M2209 1457L2117 1439M2209 1457L2230 1415M2259 31L2322 49M2259 31L2320 88M2259 31L2230 -25M2259 31L2321 -29M2259 1471L2230 1415M2259 1471L2321 1411M2322 49L2316 149M2322 49L2320 88M2322 49L2317 -70M2322 49L2321 -29M2322 1489L2317 1370M2322 1489L2321 1411M2476 73L2547 44M2476 73L2453 123M2476 73L2519 89M2476 73L2434 -40M2476 1513L2434 1400M2547 44L2519 89M2547 44L2565 -64M2547 44L2542 -30M-13 44L5 -64M-13 1484L5 1376M2547 1484L2565 1376M2547 1484L2542 1410M68 116L107 134M68 116L-41 89M2628 116L2519 89M107 134L162 113M107 134L119 186M162 113L119 186M162 113L206 195M291 119L356 148M291 119L206 195M291 119L274 196M356 148L445 140M356 148L274 196M356 148L330 217M356 148L428 210M445 140L553 144M445 140L428 210M445 140L492 178M553 144L612 98M553 144L492 178M553 144L614 180M612 98L681 119M612 98L614 180M681 119L782 119M681 119L614 180M681 119L693 210M782 119L860 104M782 119L889 107M782 119L822 193M860 104L889 107M860 104L822 193M889 107L961 204M1036 141L1084 93M1036 141L954 192M1036 141L961 204M1036 141L1115 187M1084 93L1115 187M1084 93L1072 -2M1084 1533L1072 1438M1192 159L1268 87M1192 159L1115 187M1192 159L1153 211M1268 87L1280 171M1352 125L1417 139M1352 125L1280 171M1352 125L1339 195M1352 125L1360 176M1417 139L1484 117M1417 139L1360 176M1417 139L1502 174M1484 117L1579 94M1484 117L1502 174M1484 117L1547 170M1579 94L1621 125M1579 94L1547 170M1621 125L1691 110M1621 125L1547 170M1621 125L1670 187M1691 110L1670 187M1691 110L1729 169M1829 93L1840 140M1829 93L1765 169M1840 140L1765 169M1840 140L1864 235M1840 140L1825 254M1988 82L2060 85M2060 85L2148 97M2060 85L2036 -5M2060 1525L2036 1435M2148 97L2178 102M2148 97L2195 198M2148 97L2117 -1M2148 1537L2117 1439M2178 102L2195 198M2316 149L2320 88M2316 149L2319 239M2316 149L2355 221M2453 123L2519 89M2453 123L2421 227M54 223L119 186M54 223L-12 215M54 223L30 279M54 223L137 266M54 223L-39 260M2614 223L2548 215M2614 223L2521 260M119 186L206 195M119 186L137 266M206 195L274 196M206 195L137 266M274 196L330 217M330 217L311 306M330 217L386 244M428 210L492 178M428 210L386 244M428 210L479 252M492 178L479 252M614 180L693 210M614 180L620 272M693 210L725 234M693 210L620 272M693 210L693 296M725 234L693 296M725 234L786 272M725 234L802 241M822 193L786 272M822 193L802 241M954 192L961 204M954 192L902 270M954 192L986 241M961 204L902 270M961 204L986 241M1115 187L1153 211M1115 187L1080 242M1153 211L1080 242M1153 211L1152 278M1153 211L1136 327M1280 171L1339 195M1280 171L1360 176M1280 171L1279 258M1339 195L1360 176M1339 195L1279 258M1339 195L1371 257M1360 176L1371 257M1502 174L1547 170M1547 170L1557 289M1670 187L1729 169M1670 187L1765 169M1729 169L1765 169M1765 169L1825 254M1864 235L1931 239M1864 235L1825 254M1864 235L1871 275M1931 239L1871 275M1931 239L1980 319M2053 200L2085 188M2053 200L2060 270M2085 188L2195 198M2085 188L2060 270M2195 198L2155 276M2195 198L2199 240M2319 239L2355 221M2319 239L2300 318M2319 239L2383 281M2319 239L2324 337M2355 221L2421 227M2355 221L2383 281M2421 227L2383 281M2421 227L2421 302M2421 227L2521 260M2548 215L2590 279M2548 215L2521 260M2548 215L2518 329M-12 215L30 279M30 279L137 266M30 279L-39 260M30 279L-42 329M2590 279L2521 260M2590 279L2518 329M137 266L145 322M237 313L311 306M237 313L145 322M237 313L193 389M237 313L289 353M237 313L245 402M311 306L386 244M311 306L289 353M311 306L356 345M386 244L479 252M479 252L542 300M479 252L454 339M542 300L620 272M542 300L454 339M542 300L503 360M542 300L628 352M620 272L693 296M620 272L628 352M693 296L786 272M693 296L664 367M786 272L802 241M786 272L902 270M802 241L902 270M902 270L986 241M986 241L1080 242M986 241L1021 344M1080 242L1152 278M1080 242L1067 324M1152 278L1067 324M1152 278L1136 327M1279 258L1343 299M1279 258L1371 257M1279 258L1253 349M1343 299L1371 257M1343 299L1447 295M1343 299L1253 349M1343 299L1297 345M1371 257L1447 295M1447 295L1432 355M1447 295L1453 399M1447 295L1522 361M1557 289L1675 319M1557 289L1522 361M1557 289L1629 366M1675 319L1747 289M1675 319L1629 366M1675 319L1715 383M1747 289L1825 254M1747 289L1871 275M1747 289L1715 383M1747 289L1808 376M1825 254L1871 275M1980 319L2060 270M1980 319L1905 384M1980 319L1980 363M1980 319L1906 402M2060 270L2155 276M2155 276L2199 240M2155 276L2157 327M2300 318L2245 361M2300 318L2324 337M2300 318L2257 419M2383 281L2421 302M2383 281L2324 337M2421 302L2468 378M2521 260L2518 329M75 399L145 322M75 399L4 471M75 399L111 404M75 399L176 425M75 399L68 500M145 322L193 389M145 322L111 404M193 389L111 404M193 389L176 425M193 389L245 402M289 353L356 345M289 353L245 402M289 353L337 450M356 345L454 339M356 345L337 450M356 345L444 402M454 339L503 360M454 339L444 402M503 360L444 402M503 360L513 428M628 352L664 367M628 352L617 415M664 367L617 415M795 397L841 399M795 397L891 395M795 397L773 458M841 399L891 395M841 399L773 458M841 399L851 478M841 399L927 406M891 395L927 406M1021 344L1067 324M1021 344L927 406M1021 344L995 438M1067 324L1136 327M1136 327L1253 349M1253 349L1297 345M1253 349L1269 446M1297 345L1269 446M1432 355L1453 399M1432 355L1522 361M1432 355L1396 451M1453 399L1522 361M1453 399L1396 451M1453 399L1494 451M1522 361L1494 451M1629 366L1715 383M1715 383L1688 473M1808 376L1905 384M1808 376L1795 456M1905 384L1980 363M1905 384L1906 402M1980 363L2079 383M1980 363L1906 402M1980 363L2024 441M2079 383L2024 441M2079 383L2141 412M2157 327L2178 375M2157 327L2141 412M2157 327L2171 402M2178 375L2245 361M2178 375L2141 412M2178 375L2171 402M2178 375L2257 419M2245 361L2324 337M2245 361L2171 402M2245 361L2257 419M2324 337L2390 407M2468 378L2518 329M2468 378L2390 407M2468 378L2403 429M2468 378L2524 440M4 471L-36 440M4 471L68 500M4 471L-84 495M4 471L-73 510M2564 471L2524 440M2564 471L2476 495M2564 471L2487 510M111 404L176 425M111 404L68 500M176 425L245 402M176 425L212 492M245 402L212 492M337 450L298 555M337 450L338 529M444 402L513 428M444 402L453 514M513 428L617 415M513 428L453 514M617 415L706 465M706 465L773 458M706 465L616 532M706 465L710 533M706 465L733 544M773 458L851 478M773 458L733 544M851 478L877 522M851 478L920 510M927 406L995 438M927 406L920 510M995 438L1049 459M995 438L966 511M1049 459L1141 473M1049 459L966 511M1049 459L1072 545M1049 459L1123 535M1141 473L1123 535M1141 473L1135 583M1269 446L1325 476M1269 446L1263 539M1325 476L1396 451M1325 476L1263 539M1325 476L1358 552M1325 476L1384 551M1396 451L1494 451M1396 451L1384 551M1494 451L1555 461M1494 451L1497 545M1555 461L1640 470M1555 461L1497 545M1555 461L1577 518M1555 461L1601 503M1640 470L1688 473M1640 470L1577 518M1640 470L1601 503M1640 470L1687 485M1688 473L1601 503M1688 473L1687 485M1688 473L1791 500M1795 456L1791 500M1906 402L1971 479M1906 402L1894 481M1971 479L2024 441M1971 479L1894 481M1971 479L1951 519M1971 479L2042 516M2024 441L2042 516M2141 412L2171 402M2141 412L2157 481M2171 402L2157 481M2257 419L2300 488M2257 419L2327 481M2390 407L2403 429M2390 407L2300 488M2390 407L2327 481M2403 429L2300 488M2403 429L2327 481M2403 429L2476 495M2524 440L2628 500M2524 440L2476 495M2524 440L2487 510M-36 440L68 500M68 500L139 549M139 549L212 492M139 549L98 611M139 549L163 619M212 492L298 555M212 492L292 580M298 555L338 529M298 555L292 580M298 555L331 621M338 529L453 514M338 529L292 580M338 529L331 621M453 514L508 548M453 514L518 582M508 548L469 626M508 548L518 582M508 548L564 598M616 532L710 533M616 532L564 598M616 532L672 599M710 533L733 544M710 533L672 599M710 533L741 596M733 544L672 599M733 544L741 596M877 522L920 510M877 522L894 574M920 510L966 511M920 510L894 574M966 511L894 574M966 511L1019 600M1072 545L1123 535M1072 545L1019 600M1072 545L1135 583M1123 535L1135 583M1263 539L1358 552M1263 539L1260 579M1358 552L1384 551M1358 552L1351 611M1358 552L1361 621M1384 551L1351 611M1384 551L1361 621M1497 545L1577 518M1497 545L1491 601M1497 545L1548 575M1577 518L1601 503M1577 518L1548 575M1601 503L1687 485M1687 485L1791 500M1687 485L1655 587M1791 500L1894 481M1791 500L1758 587M1894 481L1951 519M1894 481L1886 577M1951 519L1886 577M1951 519L1970 593M1951 519L2014 584M2042 516L2157 481M2042 516L2014 584M2157 481L2172 541M2172 541L2167 614M2172 541L2189 651M2300 488L2327 481M2300 488L2359 600M2476 495L2487 510M49 625L98 611M49 625L-28 636M49 625L31 667M49 625L81 674M49 625L-18 681M2609 625L2532 636M2609 625L2542 681M98 611L163 619M98 611L81 674M163 619L81 674M163 619L233 684M292 580L331 621M331 621L316 691M331 621L392 681M469 626L518 582M469 626L479 698M469 626L515 682M518 582L564 598M564 598L515 682M564 598L578 712M672 599L741 596M672 599L691 647M741 596L816 617M741 596L691 647M816 617L894 574M816 617L772 713M816 617L873 700M816 617L910 657M894 574L910 657M1019 600L1092 640M1019 600L1016 661M1092 640L1135 583M1092 640L1016 661M1092 640L1127 668M1092 640L1092 727M1135 583L1127 668M1260 579L1246 671M1351 611L1361 621M1351 611L1340 656M1351 611L1427 661M1361 621L1340 656M1361 621L1427 661M1491 601L1548 575M1491 601L1427 661M1491 601L1483 664M1491 601L1597 665M1548 575L1655 587M1548 575L1597 665M1655 587L1758 587M1655 587L1597 665M1655 587L1652 662M1758 587L1823 595M1823 595L1886 577M1823 595L1786 701M1886 577L1970 593M1886 577L1916 672M1970 593L2014 584M1970 593L1916 672M1970 593L1947 663M2014 584L2122 630M2014 584L1947 663M2122 630L2167 614M2122 630L2075 708M2122 630L2149 699M2122 630L2189 651M2167 614L2149 699M2167 614L2189 651M2307 619L2359 600M2307 619L2344 675M2359 600L2436 622M2359 600L2344 675M2436 622L2532 636M2436 622L2344 675M2436 622L2468 686M2436 622L2451 732M2532 636L2591 667M2532 636L2468 686M2532 636L2542 681M-28 636L31 667M31 667L81 674M31 667L-18 681M2591 667L2542 681M81 674L46 755M233 684L316 691M233 684L229 775M233 684L243 728M316 691L392 681M316 691L243 728M316 691L377 735M392 681L377 735M392 681L420 745M479 698L515 682M479 698L578 712M479 698L420 745M479 698L556 745M515 682L578 712M515 682L556 745M578 712L556 745M578 712L581 739M691 647L772 713M772 713L717 785M772 713L743 794M873 700L910 657M873 700L870 767M873 700L933 772M910 657L1016 661M1016 661L1045 716M1016 661L1092 727M1045 716L1127 668M1045 716L968 788M1045 716L1092 727M1127 668L1092 727M1127 668L1167 747M1246 671L1340 656M1246 671L1167 747M1246 671L1214 757M1246 671L1291 746M1340 656L1427 661M1340 656L1291 746M1427 661L1483 664M1597 665L1652 662M1597 665L1645 728M1652 662L1749 714M1652 662L1645 728M1652 662L1692 725M1749 714L1786 701M1749 714L1645 728M1749 714L1692 725M1749 714L1833 753M1786 701L1692 725M1786 701L1833 753M1786 701L1847 787M1916 672L1947 663M1916 672L1833 753M1947 663L2028 724M2075 708L2149 699M2075 708L1981 785M2075 708L2028 724M2075 708L2111 759M2149 699L2189 651M2149 699L2111 759M2189 651L2252 717M2252 717L2344 675M2252 717L2240 763M2252 717L2296 778M2252 717L2354 725M2344 675L2354 725M2468 686L2542 681M2468 686L2451 732M2468 686L2530 762M2542 681L2530 762M46 755L100 771M46 755L-30 762M46 755L70 842M46 755L89 821M2606 755L2530 762M100 771L70 842M100 771L89 821M100 771L205 806M229 775L243 728M229 775L205 806M229 775L273 879M229 775L271 880M243 728L205 806M377 735L420 745M377 735L437 838M420 745L437 838M556 745L581 739M556 745L511 816M581 739L511 816M581 739L630 809M717 785L743 794M717 785L630 809M717 785L690 877M717 785L791 811M743 794L690 877M743 794L791 811M743 794L831 803M870 767L933 772M870 767L968 788M870 767L831 803M870 767L933 836M933 772L968 788M933 772L933 836M933 772L964 813M968 788L933 836M968 788L964 813M1092 727L1167 747M1167 747L1214 757M1214 757L1291 746M1291 746L1361 756M1291 746L1322 839M1361 756L1322 839M1361 756L1442 824M1485 798L1544 798M1485 798L1403 844M1485 798L1442 824M1485 798L1597 813M1485 798L1442 883M1544 798L1442 824M1544 798L1597 813M1645 728L1692 725M1645 728L1597 813M1833 753L1847 787M1833 753L1916 822M1847 787L1741 857M1847 787L1766 872M1847 787L1916 822M1981 785L2028 724M1981 785L1916 822M1981 785L1983 819M1981 785L2041 854M2028 724L2111 759M2028 724L1983 819M2111 759L2145 855M2111 759L2172 824M2240 763L2296 778M2240 763L2172 824M2240 763L2291 842M2296 778L2354 725M2296 778L2291 842M2354 725L2451 732M2354 725L2412 809M2451 732L2530 762M2451 732L2412 809M2530 762L2549 858M70 842L89 821M70 842L-11 858M70 842L60 895M2630 842L2549 858M89 821L60 895M205 806L273 879M205 806L271 880M273 879L233 935M273 879L271 880M394 862L437 838M394 862L379 934M394 862L473 896M394 862L383 962M437 838L511 816M437 838L473 896M511 816L473 896M630 809L690 877M690 877L684 946M791 811L831 803M791 811L794 909M831 803L794 909M933 836L964 813M933 836L1013 901M964 813L1013 901M1093 855L1125 866M1093 855L1013 901M1093 855L1063 925M1093 855L1133 896M1125 866L1063 925M1125 866L1133 896M1125 866L1155 966M1270 870L1322 839M1270 870L1268 926M1270 870L1341 903M1322 839L1403 844M1322 839L1341 903M1403 844L1442 824M1403 844L1442 883M1442 824L1442 883M1597 813L1620 878M1597 813L1584 916M1620 878L1584 916M1620 878L1662 925M1620 878L1681 937M1620 878L1652 962M1741 857L1766 872M1741 857L1662 925M1741 857L1681 937M1741 857L1796 930M1766 872L1796 930M1916 822L1983 819M1916 822L1970 917M1983 819L2041 854M1983 819L1970 917M2041 854L1970 917M2041 854L2060 917M2145 855L2172 824M2145 855L2101 955M2145 855L2189 942M2291 842L2343 879M2291 842L2306 923M2291 842L2380 891M2343 879L2412 809M2343 879L2306 923M2343 879L2380 891M2343 879L2445 919M2412 809L2380 891M2412 809L2445 919M2549 858L2620 895M2549 858L2549 889M-11 858L60 895M60 895L88 942M60 895L-11 889M2620 895L2549 889M88 942L-11 889M88 942L33 1011M88 942L109 975M88 942L197 966M2648 942L2549 889M233 935L271 880M233 935L197 966M233 935L258 1005M271 880L258 1005M379 934L383 962M473 896L493 948M473 896L566 921M493 948L566 921M493 948L383 962M493 948L462 1033M566 921L608 1017M684 946L701 999M684 946L728 968M794 909L828 945M794 909L728 968M828 945L904 943M828 945L831 1017M904 943L926 1006M1013 901L1063 925M1013 901L1039 976M1063 925L1133 896M1063 925L1039 976M1133 896L1088 1004M1133 896L1155 966M1268 926L1341 903M1268 926L1364 959M1268 926L1225 996M1268 926L1315 982M1341 903L1364 959M1341 903L1315 982M1364 959L1442 883M1364 959L1315 982M1364 959L1382 1033M1442 883L1515 1003M1584 916L1662 925M1584 916L1529 999M1584 916L1652 962M1662 925L1681 937M1662 925L1652 962M1681 937L1652 962M1681 937L1746 1004M1796 930L1870 941M1796 930L1746 1004M1870 941L1867 1015M1970 917L2060 917M1970 917L2042 972M2060 917L2101 955M2060 917L2042 972M2060 917L2138 968M2101 955L2189 942M2101 955L2042 972M2101 955L2138 968M2189 942L2138 968M2189 942L2240 1018M2306 923L2380 891M2306 923L2304 1017M2380 891L2445 919M2445 919L2467 992M33 1011L109 975M33 1011L-70 1024M33 1011L63 1065M33 1011L-10 1054M2593 1011L2490 1024M2593 1011L2550 1054M109 975L197 966M109 975L63 1065M109 975L142 1055M197 966L258 1005M258 1005L262 1044M258 1005L325 1061M383 962L462 1033M383 962L325 1061M462 1033L551 1027M462 1033L473 1062M462 1033L531 1100M551 1027L608 1017M551 1027L473 1062M551 1027L531 1100M551 1027L572 1040M608 1017L701 999M608 1017L572 1040M608 1017L673 1051M701 999L728 968M701 999L673 1051M701 999L766 1045M728 968L673 1051M728 968L766 1045M831 1017L926 1006M831 1017L766 1045M831 1017L872 1113M831 1017L821 1132M1039 976L1088 1004M1039 976L1155 966M1039 976L1032 1051M1088 1004L1155 966M1088 1004L1032 1051M1088 1004L1061 1094M1155 966L1225 996M1225 996L1315 982M1315 982L1382 1033M1382 1033L1328 1090M1382 1033L1436 1052M1382 1033L1453 1093M1515 1003L1529 999M1515 1003L1436 1052M1515 1003L1529 1074M1529 999L1436 1052M1529 999L1529 1074M1652 962L1674 1043M1746 1004L1788 1040M1746 1004L1674 1043M1746 1004L1702 1048M1788 1040L1867 1015M1788 1040L1702 1048M1788 1040L1806 1098M1788 1040L1864 1083M1867 1015L1806 1098M1867 1015L1864 1083M1867 1015L1923 1064M1968 1037L1923 1064M1968 1037L2039 1065M2042 972L2138 968M2042 972L2039 1065M2240 1018L2304 1017M2240 1018L2212 1087M2240 1018L2312 1074M2304 1017L2396 1028M2304 1017L2312 1074M2304 1017L2365 1057M2396 1028L2467 992M2396 1028L2490 1024M2396 1028L2365 1057M2396 1028L2448 1056M2467 992L2490 1024M2467 992L2448 1056M2467 992L2550 1054M2490 1024L2448 1056M2490 1024L2550 1054M63 1065L142 1055M63 1065L-10 1054M63 1065L30 1142M2623 1065L2550 1054M142 1055L200 1110M142 1055L170 1151M200 1110L262 1044M200 1110L122 1158M200 1110L170 1151M262 1044L325 1061M262 1044L317 1120M262 1044L336 1121M325 1061L317 1120M325 1061L336 1121M473 1062L531 1100M473 1062L446 1159M473 1062L512 1132M531 1100L572 1040M531 1100L512 1132M673 1051L766 1045M673 1051L693 1127M872 1113L944 1114M872 1113L821 1132M872 1113L905 1149M872 1113L910 1208M944 1114L905 1149M944 1114L998 1166M944 1114L910 1208M1032 1051L1061 1094M1032 1051L1110 1125M1061 1094L1153 1096M1061 1094L998 1166M1061 1094L1110 1125M1153 1096L1110 1125M1153 1096L1191 1148M1153 1096L1223 1142M1266 1120L1328 1090M1266 1120L1191 1148M1266 1120L1223 1142M1266 1120L1314 1145M1266 1120L1270 1212M1328 1090L1314 1145M1436 1052L1453 1093M1453 1093L1529 1074M1453 1093L1480 1150M1453 1093L1536 1151M1529 1074L1480 1150M1529 1074L1536 1151M1674 1043L1702 1048M1674 1043L1659 1165M1674 1043L1706 1126M1702 1048L1706 1126M1806 1098L1864 1083M1806 1098L1782 1139M1806 1098L1911 1134M1864 1083L1923 1064M1864 1083L1911 1134M1923 1064L1911 1134M1923 1064L1983 1153M2039 1065L2114 1085M2039 1065L1983 1153M2114 1085L2212 1087M2114 1085L2159 1163M2212 1087L2159 1163M2212 1087L2184 1185M2212 1087L2253 1121M2312 1074L2365 1057M2312 1074L2253 1121M2312 1074L2341 1144M2365 1057L2448 1056M2365 1057L2341 1144M2448 1056L2424 1149M2550 1054L2590 1142M-10 1054L30 1142M30 1142L-58 1156M30 1142L67 1224M2590 1142L2502 1156M122 1158L170 1151M122 1158L67 1224M122 1158L111 1235M122 1158L168 1210M170 1151L111 1235M170 1151L168 1210M317 1120L336 1121M336 1121L446 1159M446 1159L512 1132M446 1159L463 1242M446 1159L421 1281M512 1132L589 1174M512 1132L563 1224M589 1174L693 1127M589 1174L558 1246M589 1174L563 1224M693 1127L784 1149M693 1127L728 1246M784 1149L821 1132M784 1149L728 1246M784 1149L802 1227M821 1132L905 1149M821 1132L802 1227M905 1149L998 1166M905 1149L910 1208M998 1166L910 1208M998 1166L1023 1238M1110 1125L1191 1148M1110 1125L1147 1222M1191 1148L1223 1142M1191 1148L1147 1222M1223 1142L1314 1145M1223 1142L1270 1212M1314 1145L1270 1212M1391 1199L1480 1150M1391 1199L1345 1235M1391 1199L1368 1232M1391 1199L1475 1258M1480 1150L1536 1151M1480 1150L1475 1258M1536 1151L1576 1233M1536 1151L1603 1241M1659 1165L1706 1126M1659 1165L1576 1233M1659 1165L1603 1241M1659 1165L1750 1214M1706 1126L1782 1139M1706 1126L1750 1214M1782 1139L1750 1214M1782 1139L1818 1226M1911 1134L1983 1153M1911 1134L1982 1210M1983 1153L2042 1175M1983 1153L1982 1210M2042 1175L1982 1210M2042 1175L2066 1243M2042 1175L2102 1272M2159 1163L2184 1185M2159 1163L2207 1220M2184 1185L2253 1121M2184 1185L2207 1220M2184 1185L2259 1214M2253 1121L2341 1144M2253 1121L2259 1214M2341 1144L2424 1149M2341 1144L2355 1205M2424 1149L2502 1156M2424 1149L2355 1205M2424 1149L2494 1245M2502 1156L2477 1269M2502 1156L2494 1245M67 1224L111 1235M111 1235L168 1210M168 1210L241 1259M168 1210L229 1288M241 1259L229 1288M241 1259L251 1351M241 1259L327 1281M384 1269L463 1242M384 1269L327 1281M384 1269L421 1281M384 1269L482 1330M384 1269L333 1373M463 1242L558 1246M463 1242L421 1281M463 1242L482 1330M558 1246L563 1224M558 1246L678 1264M558 1246L482 1330M678 1264L728 1246M678 1264L619 1357M678 1264L705 1358M728 1246L802 1227M728 1246L784 1311M802 1227L784 1311M910 1208L946 1288M1023 1238L1065 1265M1023 1238L946 1288M1023 1238L1000 1311M1023 1238L1048 1329M1065 1265L1147 1222M1065 1265L1000 1311M1065 1265L1048 1329M1065 1265L1158 1325M1147 1222L1158 1325M1270 1212L1345 1235M1270 1212L1368 1232M1345 1235L1368 1232M1345 1235L1324 1301M1345 1235L1376 1314M1368 1232L1324 1301M1368 1232L1376 1314M1475 1258L1576 1233M1475 1258L1448 1356M1576 1233L1603 1241M1576 1233L1598 1307M1603 1241L1598 1307M1603 1241L1643 1345M1750 1214L1818 1226M1750 1214L1736 1310M1818 1226L1894 1276M1818 1226L1908 1282M1894 1276L1908 1282M1894 1276L1930 1320M1982 1210L2066 1243M1982 1210L2005 1293M2066 1243L2102 1272M2066 1243L2005 1293M2066 1243L2154 1296M2102 1272L2005 1293M2102 1272L2154 1296M2102 1272L2174 1343M2207 1220L2259 1214M2207 1220L2154 1296M2207 1220L2274 1289M2259 1214L2355 1205M2259 1214L2274 1289M2477 1269L2494 1245M2477 1269L2458 1329M2477 1269L2530 1360M2494 1245L2458 1329M29 1342L127 1359M29 1342L-30 1360M29 1342L5 1376M29 1342L-18 1410M2589 1342L2530 1360M2589 1342L2542 1410M127 1359L135 1418M229 1288L251 1351M229 1288L327 1281M229 1288L272 1383M251 1351L238 1438M251 1351L272 1383M251 1351L333 1373M327 1281L421 1281M327 1281L333 1373M421 1281L482 1330M482 1330L533 1377M619 1357L705 1358M619 1357L533 1377M619 1357L610 1392M619 1357L641 1433M705 1358L610 1392M705 1358L758 1372M784 1311L839 1329M784 1311L758 1372M784 1311L804 1401M839 1329L758 1372M839 1329L804 1401M839 1329L918 1361M946 1288L1000 1311M946 1288L918 1361M1000 1311L1048 1329M1000 1311L918 1361M1048 1329L1158 1325M1048 1329L1023 1437M1158 1325L1209 1329M1158 1325L1185 1363M1209 1329L1185 1363M1209 1329L1269 1393M1209 1329L1286 1361M1324 1301L1376 1314M1324 1301L1286 1361M1376 1314L1448 1356M1376 1314L1410 1377M1448 1356L1410 1377M1448 1356L1479 1398M1448 1356L1538 1417M1598 1307L1643 1345M1598 1307L1538 1417M1643 1345L1736 1310M1643 1345L1677 1432M1643 1345L1736 1365M1736 1310L1801 1346M1736 1310L1736 1365M1801 1346L1736 1365M1801 1346L1788 1411M1908 1282L1930 1320M1908 1282L2005 1293M1908 1282L1931 1415M1930 1320L2005 1293M1930 1320L1931 1415M2154 1296L2174 1343M2174 1343L2274 1289M2174 1343L2117 1439M2174 1343L2230 1415M2274 1289L2327 1340M2274 1289L2317 1370M2327 1340L2317 1370M2327 1340L2321 1411M2327 1340L2434 1400M2458 1329L2530 1360M2458 1329L2434 1400M2530 1360L2565 1376M2530 1360L2542 1410M-30 1360L5 1376M5 1376L-18 1410M2565 1376L2542 1410M135 1418L238 1438M238 1438L272 1383M272 1383L333 1373M533 1377L610 1392M610 1392L641 1433M758 1372L804 1401M918 1361L1023 1437M1023 1437L1072 1438M1185 1363L1269 1393M1185 1363L1286 1361M1269 1393L1286 1361M1410 1377L1479 1398M1479 1398L1538 1417M1677 1432L1736 1365M1736 1365L1788 1411M1788 1411L1894 1431M1894 1431L1931 1415M1931 1415L2036 1435M2036 1435L2117 1439M2230 1415L2317 1370M2230 1415L2321 1411M2317 1370L2321 1411"/></svg>