<svg xmlns="http://www.w3.org/2000/svg" width="2560" height="1440" fill="#fff"><circle cx="62" cy="69" r="5"/><circle cx="117" cy="32" r="5"/><circle cx="220" cy="74" r="6"/><circle cx="287" cy="20" r="5"/><circle cx="335" cy="66" r="5"/><circle cx="434" cy="11" r="5"/><circle cx="553" cy="54" r="6"/><circle cx="575" cy="39" r="5"/><circle cx="650" cy="26" r="4"/><circle cx="766" cy="59" r="6"/><circle cx="828" cy="35" r="5"/><circle cx="959" cy="43" r="4"/><circle cx="978" cy="15" r="4"/><circle cx="1068" cy="57" r="5"/><circle cx="1196" cy="8" r="4"/><circle cx="1217" cy="41" r="4"/><circle cx="1352" cy="50" r="6"/><circle cx="1382" cy="27" r="4"/><circle cx="1489" cy="79" r="6"/><circle cx="1586" cy="13" r="5"/><circle cx="1657" cy="66" r="6"/><circle cx="1680" cy="42" r="4"/><circle cx="1764" cy="5" r="6"/><circle cx="1764" cy="1445" r="6"/><circle cx="1865" cy="68" r="5"/><circle cx="1958" cy="21" r="6"/><circle cx="2032" cy="44" r="6"/><circle cx="2101" cy="2" r="5"/><circle cx="2101" cy="1442" r="5"/><circle cx="2225" cy="36" r="5"/><circle cx="2259" cy="29" r="4"/><circle cx="2344" cy="73" r="5"/><circle cx="2435" cy="69" r="5"/><circle cx="2508" cy="77" r="5"/><circle cx="76" cy="101" r="6"/><circle cx="126" cy="159" r="5"/><circle cx="175" cy="95" r="5"/><circle cx="277" cy="133" r="6"/><circle cx="372" cy="112" r="5"/><circle cx="444" cy="81" r="5"/><circle cx="509" cy="141" r="5"/><circle cx="586" cy="80" r="4"/><circle cx="686" cy="117" r="5"/><circle cx="757" cy="94" r="5"/><circle cx="810" cy="140" r="6"/><circle cx="896" cy="143" r="4"/><circle cx="1010" cy="153" r="4"/><circle cx="1093" cy="134" r="6"/><circle cx="1192" cy="134" r="5"/><circle cx="1225" cy="108" r="4"/><circle cx="1355" cy="135" r="5"/><circle cx="1430" cy="135" r="4"/><circle cx="1489" cy="122" r="4"/><circle cx="1580" cy="96" r="5"/><circle cx="1631" cy="138" r="4"/><circle cx="1719" cy="93" r="5"/><circle cx="1808" cy="137" r="6"/><circle cx="1864" cy="116" r="5"/><circle cx="1956" cy="82" r="6"/><circle cx="2002" cy="107" r="5"/><circle cx="2106" cy="157" r="4"/><circle cx="2214" cy="119" r="5"/><circle cx="2275" cy="156" r="5"/><circle cx="2369" cy="150" r="5"/><circle cx="2451" cy="97" r="5"/><circle cx="2547" cy="132" r="4"/><circle cx="18" cy="206" r="5"/><circle cx="95" cy="206" r="5"/><circle cx="170" cy="162" r="5"/><circle cx="304" cy="191" r="5"/><circle cx="374" cy="210" r="4"/><circle cx="424" cy="162" r="4"/><circle cx="523" cy="224" r="4"/><circle cx="601" cy="232" r="5"/><circle cx="680" cy="235" r="5"/><circle cx="731" cy="195" r="5"/><circle cx="865" cy="205" r="6"/><circle cx="956" cy="169" r="5"/><circle cx="1029" cy="188" r="6"/><circle cx="1113" cy="217" r="5"/><circle cx="1155" cy="161" r="5"/><circle cx="1253" cy="219" r="5"/><circle cx="1299" cy="205" r="5"/><circle cx="1405" cy="195" r="5"/><circle cx="1516" cy="212" r="6"/><circle cx="1585" cy="236" r="4"/><circle cx="1664" cy="237" r="4"/><circle cx="1737" cy="163" r="4"/><circle cx="1793" cy="239" r="5"/><circle cx="1852" cy="206" r="5"/><circle cx="1936" cy="215" r="4"/><circle cx="2019" cy="186" r="5"/><circle cx="2103" cy="200" r="5"/><circle cx="2219" cy="236" r="5"/><circle cx="2269" cy="170" r="5"/><circle cx="2392" cy="228" r="4"/><circle cx="2462" cy="237" r="5"/><circle cx="2538" cy="183" r="5"/><circle cx="64" cy="274" r="4"/><circle cx="90" cy="249" r="6"/><circle cx="235" cy="278" r="4"/><circle cx="258" cy="278" r="5"/><circle cx="399" cy="253" r="5"/><circle cx="450" cy="250" r="5"/><circle cx="524" cy="256" r="4"/><circle cx="570" cy="241" r="5"/><circle cx="643" cy="246" r="5"/><circle cx="752" cy="246" r="5"/><circle cx="834" cy="315" r="6"/><circle cx="913" cy="250" r="4"/><circle cx="1033" cy="313" r="6"/><circle cx="1056" cy="244" r="4"/><circle cx="1128" cy="249" r="5"/><circle cx="1241" cy="245" r="6"/><circle cx="1307" cy="276" r="5"/><circle cx="1427" cy="248" r="5"/><circle cx="1458" cy="259" r="6"/><circle cx="1561" cy="261" r="5"/><circle cx="1647" cy="307" r="6"/><circle cx="1755" cy="302" r="5"/><circle cx="1763" cy="302" r="5"/><circle cx="1874" cy="259" r="4"/><circle cx="1974" cy="274" r="4"/><circle cx="2053" cy="303" r="5"/><circle cx="2100" cy="281" r="5"/><circle cx="2203" cy="308" r="4"/><circle cx="2292" cy="272" r="5"/><circle cx="2349" cy="265" r="6"/><circle cx="2455" cy="281" r="6"/><circle cx="2503" cy="319" r="4"/><circle cx="3" cy="320" r="5"/><circle cx="2563" cy="320" r="5"/><circle cx="158" cy="364" r="5"/><circle cx="224" cy="325" r="4"/><circle cx="314" cy="389" r="6"/><circle cx="351" cy="337" r="6"/><circle cx="452" cy="380" r="5"/><circle cx="540" cy="325" r="4"/><circle cx="593" cy="384" r="5"/><circle cx="670" cy="381" r="6"/><circle cx="751" cy="329" r="4"/><circle cx="808" cy="374" r="5"/><circle cx="884" cy="348" r="5"/><circle cx="985" cy="350" r="5"/><circle cx="1094" cy="377" r="4"/><circle cx="1120" cy="330" r="5"/><circle cx="1246" cy="358" r="5"/><circle cx="1290" cy="342" r="4"/><circle cx="1393" cy="394" r="4"/><circle cx="1500" cy="373" r="5"/><circle cx="1544" cy="392" r="5"/><circle cx="1639" cy="341" r="5"/><circle cx="1725" cy="335" r="4"/><circle cx="1821" cy="334" r="6"/><circle cx="1885" cy="380" r="5"/><circle cx="1935" cy="357" r="6"/><circle cx="2039" cy="330" r="5"/><circle cx="2129" cy="323" r="4"/><circle cx="2230" cy="373" r="5"/><circle cx="2284" cy="393" r="6"/><circle cx="2332" cy="365" r="4"/><circle cx="2424" cy="346" r="5"/><circle cx="2539" cy="377" r="5"/><circle cx="46" cy="447" r="5"/><circle cx="125" cy="445" r="6"/><circle cx="192" cy="479" r="5"/><circle cx="271" cy="453" r="5"/><circle cx="398" cy="480" r="5"/><circle cx="419" cy="416" r="5"/><circle cx="559" cy="404" r="4"/><circle cx="570" cy="403" r="6"/><circle cx="688" cy="402" r="5"/><circle cx="786" cy="414" r="5"/><circle cx="809" cy="447" r="4"/><circle cx="911" cy="441" r="5"/><circle cx="1003" cy="449" r="5"/><circle cx="1061" cy="415" r="5"/><circle cx="1190" cy="456" r="4"/><circle cx="1228" cy="435" r="5"/><circle cx="1336" cy="417" r="5"/><circle cx="1392" cy="475" r="4"/><circle cx="1470" cy="474" r="6"/><circle cx="1558" cy="465" r="6"/><circle cx="1635" cy="440" r="5"/><circle cx="1737" cy="471" r="4"/><circle cx="1792" cy="432" r="4"/><circle cx="1910" cy="424" r="5"/><circle cx="1970" cy="411" r="5"/><circle cx="2053" cy="454" r="4"/><circle cx="2132" cy="455" r="6"/><circle cx="2221" cy="440" r="6"/><circle cx="2295" cy="441" r="5"/><circle cx="2387" cy="449" r="6"/><circle cx="2439" cy="408" r="5"/><circle cx="2558" cy="466" r="5"/><circle cx="-2" cy="466" r="5"/><circle cx="30" cy="491" r="5"/><circle cx="146" cy="523" r="6"/><circle cx="180" cy="548" r="5"/><circle cx="256" cy="518" r="5"/><circle cx="320" cy="525" r="4"/><circle cx="437" cy="533" r="4"/><circle cx="547" cy="516" r="4"/><circle cx="595" cy="518" r="4"/><circle cx="669" cy="512" r="5"/><circle cx="772" cy="556" r="4"/><circle cx="846" cy="483" r="5"/><circle cx="947" cy="492" r="5"/><circle cx="967" cy="559" r="5"/><circle cx="1042" cy="483" r="5"/><circle cx="1135" cy="508" r="6"/><circle cx="1253" cy="532" r="5"/><circle cx="1334" cy="537" r="6"/><circle cx="1434" cy="481" r="5"/><circle cx="1496" cy="527" r="5"/><circle cx="1541" cy="547" r="5"/><circle cx="1629" cy="507" r="6"/><circle cx="1704" cy="491" r="6"/><circle cx="1831" cy="520" r="5"/><circle cx="1869" cy="533" r="5"/><circle cx="1988" cy="499" r="5"/><circle cx="2019" cy="523" r="6"/><circle cx="2109" cy="546" r="5"/><circle cx="2225" cy="497" r="5"/><circle cx="2296" cy="554" r="4"/><circle cx="2353" cy="532" r="4"/><circle cx="2414" cy="483" r="6"/><circle cx="2505" cy="487" r="6"/><circle cx="35" cy="628" r="5"/><circle cx="108" cy="589" r="5"/><circle cx="168" cy="580" r="4"/><circle cx="279" cy="622" r="5"/><circle cx="392" cy="575" r="5"/><circle cx="431" cy="579" r="5"/><circle cx="494" cy="562" r="4"/><circle cx="618" cy="634" r="6"/><circle cx="694" cy="606" r="6"/><circle cx="732" cy="616" r="5"/><circle cx="824" cy="584" r="6"/><circle cx="881" cy="592" r="4"/><circle cx="1005" cy="565" r="4"/><circle cx="1084" cy="572" r="5"/><circle cx="1129" cy="583" r="5"/><circle cx="1230" cy="569" r="4"/><circle cx="1287" cy="588" r="4"/><circle cx="1399" cy="614" r="5"/><circle cx="1470" cy="601" r="5"/><circle cx="1532" cy="636" r="5"/><circle cx="1614" cy="560" r="5"/><circle cx="1702" cy="623" r="6"/><circle cx="1834" cy="584" r="5"/><circle cx="1864" cy="602" r="6"/><circle cx="1927" cy="585" r="5"/><circle cx="2034" cy="611" r="5"/><circle cx="2087" cy="633" r="6"/><circle cx="2186" cy="594" r="4"/><circle cx="2281" cy="571" r="6"/><circle cx="2372" cy="561" r="5"/><circle cx="2425" cy="636" r="5"/><circle cx="2482" cy="607" r="5"/><circle cx="32" cy="684" r="5"/><circle cx="144" cy="697" r="6"/><circle cx="160" cy="692" r="5"/><circle cx="285" cy="676" r="6"/><circle cx="354" cy="650" r="4"/><circle cx="417" cy="686" r="6"/><circle cx="511" cy="715" r="6"/><circle cx="588" cy="669" r="4"/><circle cx="676" cy="711" r="5"/><circle cx="754" cy="696" r="4"/><circle cx="831" cy="685" r="5"/><circle cx="939" cy="686" r="6"/><circle cx="972" cy="697" r="4"/><circle cx="1041" cy="685" r="4"/><circle cx="1184" cy="681" r="6"/><circle cx="1238" cy="640" r="5"/><circle cx="1297" cy="649" r="5"/><circle cx="1420" cy="718" r="6"/><circle cx="1452" cy="675" r="6"/><circle cx="1581" cy="644" r="5"/><circle cx="1611" cy="692" r="5"/><circle cx="1754" cy="653" r="5"/><circle cx="1834" cy="715" r="6"/><circle cx="1878" cy="677" r="4"/><circle cx="1986" cy="645" r="4"/><circle cx="2071" cy="687" r="5"/><circle cx="2157" cy="649" r="5"/><circle cx="2164" cy="672" r="4"/><circle cx="2256" cy="715" r="5"/><circle cx="2392" cy="710" r="6"/><circle cx="2402" cy="697" r="5"/><circle cx="2497" cy="654" r="4"/><circle cx="65" cy="741" r="5"/><circle cx="82" cy="777" r="5"/><circle cx="219" cy="756" r="4"/><circle cx="246" cy="792" r="5"/><circle cx="330" cy="762" r="6"/><circle cx="402" cy="721" r="4"/><circle cx="560" cy="785" r="4"/><circle cx="639" cy="769" r="5"/><circle cx="640" cy="723" r="4"/><circle cx="765" cy="734" r="5"/><circle cx="855" cy="769" r="6"/><circle cx="904" cy="722" r="6"/><circle cx="1026" cy="770" r="6"/><circle cx="1064" cy="766" r="5"/><circle cx="1154" cy="760" r="4"/><circle cx="1227" cy="731" r="5"/><circle cx="1315" cy="725" r="5"/><circle cx="1398" cy="782" r="4"/><circle cx="1461" cy="776" r="4"/><circle cx="1575" cy="737" r="5"/><circle cx="1639" cy="746" r="5"/><circle cx="1721" cy="768" r="4"/><circle cx="1799" cy="752" r="5"/><circle cx="1875" cy="784" r="5"/><circle cx="1959" cy="751" r="4"/><circle cx="2008" cy="798" r="4"/><circle cx="2156" cy="799" r="5"/><circle cx="2208" cy="729" r="5"/><circle cx="2263" cy="737" r="5"/><circle cx="2385" cy="730" r="4"/><circle cx="2424" cy="754" r="5"/><circle cx="2481" cy="724" r="6"/><circle cx="34" cy="880" r="5"/><circle cx="160" cy="833" r="5"/><circle cx="224" cy="805" r="6"/><circle cx="273" cy="868" r="4"/><circle cx="376" cy="830" r="4"/><circle cx="448" cy="800" r="5"/><circle cx="519" cy="871" r="5"/><circle cx="571" cy="806" r="5"/><circle cx="672" cy="836" r="5"/><circle cx="767" cy="871" r="4"/><circle cx="815" cy="866" r="5"/><circle cx="897" cy="873" r="5"/><circle cx="1027" cy="838" r="5"/><circle cx="1049" cy="810" r="4"/><circle cx="1130" cy="861" r="5"/><circle cx="1267" cy="850" r="4"/><circle cx="1347" cy="862" r="4"/><circle cx="1426" cy="822" r="5"/><circle cx="1465" cy="801" r="4"/><circle cx="1557" cy="825" r="6"/><circle cx="1672" cy="853" r="5"/><circle cx="1699" cy="873" r="4"/><circle cx="1777" cy="821" r="6"/><circle cx="1844" cy="863" r="6"/><circle cx="1947" cy="866" r="4"/><circle cx="2027" cy="814" r="5"/><circle cx="2151" cy="811" r="5"/><circle cx="2197" cy="831" r="5"/><circle cx="2269" cy="817" r="5"/><circle cx="2325" cy="837" r="5"/><circle cx="2443" cy="852" r="5"/><circle cx="2548" cy="876" r="5"/><circle cx="30" cy="959" r="6"/><circle cx="94" cy="911" r="6"/><circle cx="200" cy="956" r="4"/><circle cx="241" cy="954" r="5"/><circle cx="365" cy="889" r="5"/><circle cx="478" cy="932" r="5"/><circle cx="511" cy="896" r="4"/><circle cx="624" cy="903" r="5"/><circle cx="711" cy="896" r="5"/><circle cx="745" cy="928" r="6"/><circle cx="812" cy="896" r="4"/><circle cx="893" cy="893" r="5"/><circle cx="1039" cy="942" r="4"/><circle cx="1052" cy="947" r="5"/><circle cx="1131" cy="922" r="4"/><circle cx="1261" cy="918" r="4"/><circle cx="1360" cy="910" r="5"/><circle cx="1437" cy="906" r="4"/><circle cx="1467" cy="896" r="5"/><circle cx="1523" cy="918" r="6"/><circle cx="1612" cy="959" r="6"/><circle cx="1743" cy="928" r="4"/><circle cx="1763" cy="953" r="6"/><circle cx="1910" cy="939" r="5"/><circle cx="1925" cy="957" r="4"/><circle cx="2053" cy="890" r="5"/><circle cx="2108" cy="918" r="6"/><circle cx="2161" cy="882" r="5"/><circle cx="2258" cy="905" r="5"/><circle cx="2355" cy="899" r="5"/><circle cx="2416" cy="920" r="6"/><circle cx="2521" cy="900" r="4"/><circle cx="27" cy="1005" r="5"/><circle cx="91" cy="1013" r="6"/><circle cx="169" cy="990" r="5"/><circle cx="265" cy="1037" r="5"/><circle cx="321" cy="988" r="4"/><circle cx="421" cy="1005" r="4"/><circle cx="548" cy="979" r="5"/><circle cx="582" cy="1026" r="4"/><circle cx="702" cy="1013" r="5"/><circle cx="731" cy="970" r="5"/><circle cx="820" cy="1005" r="5"/><circle cx="933" cy="966" r="5"/><circle cx="999" cy="996" r="5"/><circle cx="1095" cy="1031" r="6"/><circle cx="1172" cy="1000" r="4"/><circle cx="1250" cy="980" r="4"/><circle cx="1336" cy="1014" r="5"/><circle cx="1373" cy="1023" r="4"/><circle cx="1488" cy="999" r="5"/><circle cx="1552" cy="997" r="5"/><circle cx="1649" cy="1025" r="5"/><circle cx="1748" cy="1018" r="4"/><circle cx="1807" cy="1014" r="4"/><circle cx="1909" cy="986" r="5"/><circle cx="1995" cy="985" r="4"/><circle cx="2003" cy="1015" r="6"/><circle cx="2146" cy="1026" r="5"/><circle cx="2203" cy="1008" r="6"/><circle cx="2286" cy="963" r="4"/><circle cx="2392" cy="1015" r="5"/><circle cx="2452" cy="1033" r="6"/><circle cx="2560" cy="1024" r="6"/><circle cx="-0" cy="1024" r="6"/><circle cx="22" cy="1071" r="5"/><circle cx="149" cy="1059" r="5"/><circle cx="200" cy="1062" r="5"/><circle cx="316" cy="1088" r="6"/><circle cx="353" cy="1095" r="5"/><circle cx="438" cy="1079" r="6"/><circle cx="523" cy="1120" r="5"/><circle cx="563" cy="1047" r="4"/><circle cx="693" cy="1058" r="5"/><circle cx="774" cy="1056" r="5"/><circle cx="834" cy="1091" r="5"/><circle cx="922" cy="1101" r="6"/><circle cx="1011" cy="1067" r="5"/><circle cx="1107" cy="1099" r="4"/><circle cx="1187" cy="1100" r="6"/><circle cx="1215" cy="1051" r="6"/><circle cx="1287" cy="1097" r="5"/><circle cx="1408" cy="1072" r="5"/><circle cx="1500" cy="1114" r="4"/><circle cx="1568" cy="1105" r="6"/><circle cx="1624" cy="1062" r="5"/><circle cx="1690" cy="1078" r="5"/><circle cx="1807" cy="1066" r="6"/><circle cx="1871" cy="1068" r="6"/><circle cx="1940" cy="1041" r="5"/><circle cx="2000" cy="1059" r="5"/><circle cx="2120" cy="1078" r="5"/><circle cx="2238" cy="1063" r="4"/><circle cx="2242" cy="1043" r="4"/><circle cx="2391" cy="1056" r="5"/><circle cx="2440" cy="1107" r="6"/><circle cx="2501" cy="1089" r="5"/><circle cx="18" cy="1198" r="6"/><circle cx="137" cy="1176" r="4"/><circle cx="222" cy="1197" r="5"/><circle cx="267" cy="1182" r="5"/><circle cx="373" cy="1178" r="4"/><circle cx="477" cy="1148" r="5"/><circle cx="491" cy="1196" r="5"/><circle cx="568" cy="1184" r="5"/><circle cx="653" cy="1170" r="6"/><circle cx="794" cy="1153" r="5"/><circle cx="806" cy="1125" r="4"/><circle cx="935" cy="1162" r="4"/><circle cx="965" cy="1152" r="6"/><circle cx="1091" cy="1185" r="5"/><circle cx="1157" cy="1189" r="5"/><circle cx="1216" cy="1135" r="4"/><circle cx="1285" cy="1195" r="4"/><circle cx="1376" cy="1169" r="5"/><circle cx="1482" cy="1143" r="6"/><circle cx="1579" cy="1172" r="5"/><circle cx="1642" cy="1162" r="5"/><circle cx="1729" cy="1126" r="5"/><circle cx="1761" cy="1149" r="5"/><circle cx="1874" cy="1128" r="4"/><circle cx="1950" cy="1128" r="4"/><circle cx="2005" cy="1188" r="5"/><circle cx="2150" cy="1140" r="5"/><circle cx="2174" cy="1155" r="4"/><circle cx="2297" cy="1145" r="5"/><circle cx="2351" cy="1194" r="5"/><circle cx="2424" cy="1144" r="5"/><circle cx="2481" cy="1166" r="6"/><circle cx="26" cy="1227" r="5"/><circle cx="108" cy="1247" r="4"/><circle cx="185" cy="1277" r="6"/><circle cx="251" cy="1267" r="6"/><circle cx="365" cy="1235" r="5"/><circle cx="416" cy="1236" r="6"/><circle cx="499" cy="1203" r="5"/><circle cx="596" cy="1235" r="5"/><circle cx="690" cy="1227" r="4"/><circle cx="779" cy="1202" r="5"/><circle cx="811" cy="1264" r="5"/><circle cx="925" cy="1242" r="5"/><circle cx="1036" cy="1202" r="5"/><circle cx="1086" cy="1251" r="5"/><circle cx="1153" cy="1229" r="5"/><circle cx="1220" cy="1268" r="6"/><circle cx="1314" cy="1238" r="6"/><circle cx="1434" cy="1256" r="5"/><circle cx="1514" cy="1269" r="5"/><circle cx="1579" cy="1273" r="5"/><circle cx="1654" cy="1256" r="5"/><circle cx="1712" cy="1279" r="5"/><circle cx="1793" cy="1272" r="4"/><circle cx="1878" cy="1252" r="5"/><circle cx="1961" cy="1219" r="4"/><circle cx="2065" cy="1233" r="6"/><circle cx="2144" cy="1277" r="5"/><circle cx="2191" cy="1275" r="5"/><circle cx="2265" cy="1209" r="5"/><circle cx="2349" cy="1273" r="5"/><circle cx="2429" cy="1258" r="5"/><circle cx="2544" cy="1259" r="4"/><circle cx="79" cy="1281" r="4"/><circle cx="149" cy="1302" r="4"/><circle cx="200" cy="1335" r="5"/><circle cx="292" cy="1343" r="6"/><circle cx="375" cy="1328" r="4"/><circle cx="420" cy="1343" r="5"/><circle cx="529" cy="1353" r="6"/><circle cx="624" cy="1282" r="5"/><circle cx="689" cy="1341" r="5"/><circle cx="727" cy="1308" r="4"/><circle cx="818" cy="1327" r="5"/><circle cx="890" cy="1324" r="6"/><circle cx="1009" cy="1298" r="4"/><circle cx="1082" cy="1295" r="5"/><circle cx="1165" cy="1344" r="5"/><circle cx="1274" cy="1317" r="5"/><circle cx="1322" cy="1325" r="5"/><circle cx="1381" cy="1290" r="5"/><circle cx="1466" cy="1350" r="6"/><circle cx="1529" cy="1290" r="6"/><circle cx="1606" cy="1348" r="4"/><circle cx="1731" cy="1313" r="5"/><circle cx="1782" cy="1286" r="4"/><circle cx="1865" cy="1315" r="4"/><circle cx="1931" cy="1294" r="6"/><circle cx="2014" cy="1292" r="4"/><circle cx="2088" cy="1284" r="5"/><circle cx="2177" cy="1359" r="6"/><circle cx="2292" cy="1356" r="5"/><circle cx="2381" cy="1349" r="5"/><circle cx="2463" cy="1297" r="5"/><circle cx="2560" cy="1306" r="4"/><circle cx="-0" cy="1306" r="4"/><circle cx="56" cy="1413" r="5"/><circle cx="125" cy="1383" r="6"/><circle cx="212" cy="1385" r="5"/><circle cx="269" cy="1432" r="6"/><circle cx="327" cy="1431" r="5"/><circle cx="412" cy="1376" r="5"/><circle cx="511" cy="1412" r="5"/><circle cx="629" cy="1363" r="6"/><circle cx="707" cy="1372" r="5"/><circle cx="725" cy="1425" r="4"/><circle cx="830" cy="1425" r="5"/><circle cx="901" cy="1380" r="5"/><circle cx="984" cy="1374" r="6"/><circle cx="1052" cy="1376" r="5"/><circle cx="1178" cy="1414" r="5"/><circle cx="1252" cy="1393" r="5"/><circle cx="1356" cy="1406" r="5"/><circle cx="1371" cy="1417" r="4"/><circle cx="1477" cy="1438" r="5"/><circle cx="1477" cy="-2" r="5"/><circle cx="1589" cy="1373" r="6"/><circle cx="1618" cy="1426" r="5"/><circle cx="1687" cy="1408" r="6"/><circle cx="1795" cy="1362" r="4"/><circle cx="1888" cy="1374" r="5"/><circle cx="1925" cy="1410" r="5"/><circle cx="2045" cy="1424" r="6"/><circle cx="2127" cy="1414" r="5"/><circle cx="2224" cy="1437" r="5"/><circle cx="2224" cy="-3" r="5"/><circle cx="2277" cy="1432" r="5"/><circle cx="2351" cy="1376" r="5"/><circle cx="2463" cy="1360" r="5"/><circle cx="2481" cy="1397" r="5"/><path stroke="#fff" d="M62 69L117 32M62 69L76 101M62 69L56 -27M62 1509L56 1413M117 32L76 101M117 32L175 95M117 32L56 -27M117 32L125 -57M117 1472L56 1413M117 1472L125 1383M220 74L287 20M220 74L175 95M220 74L277 133M220 74L170 162M220 74L269 -8M220 1514L269 1432M287 20L335 66M287 20L212 -55M287 20L269 -8M287 20L327 -9M287 1460L212 1385M287 1460L269 1432M287 1460L327 1431M335 66L277 133M335 66L372 112M335 66L327 -9M335 1506L327 1431M434 11L444 81M434 11L420 -97M434 11L327 -9M434 11L412 -64M434 11L511 -28M434 1451L420 1343M434 1451L327 1431M434 1451L412 1376M434 1451L511 1412M553 54L575 39M553 54L650 26M553 54L509 141M553 54L586 80M553 54L511 -28M553 1494L511 1412M575 39L650 26M575 39L586 80M575 39L511 -28M575 1479L511 1412M650 26L586 80M650 26L686 117M650 26L725 -15M650 1466L725 1425M766 59L828 35M766 59L757 94M766 59L810 140M766 59L725 -15M766 59L830 -15M766 1499L725 1425M766 1499L830 1425M828 35L757 94M828 35L830 -15M828 1475L830 1425M959 43L978 15M959 43L1068 57M978 15L1068 57M978 15L901 -60M978 15L984 -66M978 15L1052 -64M978 1455L901 1380M978 1455L984 1374M978 1455L1052 1376M1068 57L1010 153M1068 57L1093 134M1068 57L1052 -64M1068 1497L1052 1376M1196 8L1217 41M1196 8L1225 108M1196 8L1178 -26M1196 8L1252 -47M1196 1448L1178 1414M1196 1448L1252 1393M1217 41L1192 134M1217 41L1225 108M1217 41L1178 -26M1217 1481L1178 1414M1352 50L1382 27M1352 50L1355 135M1352 50L1430 135M1352 50L1356 -34M1352 50L1371 -23M1352 1490L1356 1406M1352 1490L1371 1417M1382 27L1356 -34M1382 27L1371 -23M1382 27L1477 -2M1382 1467L1356 1406M1382 1467L1371 1417M1382 1467L1477 1438M1489 79L1430 135M1489 79L1489 122M1489 79L1580 96M1489 79L1477 -2M1489 1519L1477 1438M1586 13L1657 66M1586 13L1580 96M1586 13L1589 -67M1586 13L1618 -14M1586 1453L1589 1373M1586 1453L1618 1426M1657 66L1680 42M1657 66L1580 96M1657 66L1631 138M1657 66L1719 93M1680 42L1764 5M1680 42L1719 93M1680 42L1618 -14M1680 42L1687 -32M1680 1482L1618 1426M1680 1482L1687 1408M1764 5L1865 68M1764 5L1719 93M1764 5L1687 -32M1764 5L1795 -78M1764 1445L1687 1408M1764 1445L1795 1362M1865 68L1808 137M1865 68L1864 116M1865 68L1956 82M1958 21L2032 44M1958 21L1956 82M1958 21L2002 107M1958 21L1925 -30M1958 21L2045 -16M1958 1461L1925 1410M1958 1461L2045 1424M2032 44L2101 2M2032 44L1956 82M2032 44L2002 107M2032 44L2045 -16M2032 1484L2045 1424M2101 2L2177 -81M2101 2L2045 -16M2101 2L2127 -26M2101 1442L2177 1359M2101 1442L2045 1424M2101 1442L2127 1414M2225 36L2259 29M2225 36L2214 119M2225 36L2127 -26M2225 36L2224 -3M2225 36L2277 -8M2225 1476L2127 1414M2225 1476L2224 1437M2225 1476L2277 1432M2259 29L2344 73M2259 29L2214 119M2259 29L2224 -3M2259 29L2277 -8M2259 1469L2224 1437M2259 1469L2277 1432M2344 73L2435 69M2344 73L2369 150M2344 73L2451 97M2435 69L2508 77M2435 69L2451 97M2435 69L2481 -43M2435 1509L2481 1397M2508 77L2451 97M2508 77L2547 132M2508 77L2538 183M76 101L126 159M76 101L175 95M76 101L-13 132M2636 101L2547 132M126 159L175 95M126 159L95 206M126 159L170 162M126 159L90 249M175 95L170 162M277 133L372 112M277 133L170 162M277 133L304 191M372 112L444 81M372 112L304 191M372 112L424 162M444 81L509 141M444 81L424 162M509 141L586 80M509 141L424 162M509 141L523 224M586 80L686 117M686 117L757 94M686 117L731 195M757 94L810 140M757 94L731 195M810 140L896 143M810 140L731 195M810 140L865 205M896 143L865 205M896 143L956 169M896 143L913 250M1010 153L1093 134M1010 153L956 169M1010 153L1029 188M1010 153L1056 244M1093 134L1029 188M1093 134L1113 217M1093 134L1155 161M1192 134L1225 108M1192 134L1155 161M1192 134L1253 219M1225 108L1155 161M1225 108L1253 219M1355 135L1430 135M1355 135L1299 205M1355 135L1405 195M1430 135L1489 122M1430 135L1405 195M1489 122L1580 96M1489 122L1516 212M1580 96L1631 138M1719 93L1808 137M1719 93L1737 163M1808 137L1864 116M1808 137L1737 163M1808 137L1852 206M1864 116L1956 82M1864 116L1852 206M1864 116L1936 215M1956 82L2002 107M2002 107L2019 186M2106 157L2019 186M2106 157L2103 200M2214 119L2275 156M2214 119L2219 236M2214 119L2269 170M2275 156L2369 150M2275 156L2219 236M2275 156L2269 170M2369 150L2451 97M2369 150L2269 170M2369 150L2392 228M2451 97L2547 132M2547 132L2578 206M2547 132L2538 183M-13 132L18 206M18 206L95 206M18 206L-22 183M18 206L64 274M18 206L90 249M2578 206L2538 183M95 206L170 162M95 206L64 274M95 206L90 249M304 191L374 210M304 191L258 278M304 191L399 253M374 210L424 162M374 210L399 253M374 210L450 250M424 162L450 250M523 224L601 232M523 224L450 250M523 224L524 256M523 224L570 241M601 232L680 235M601 232L524 256M601 232L570 241M601 232L643 246M680 235L731 195M680 235L643 246M680 235L752 246M731 195L752 246M865 205L956 169M865 205L913 250M956 169L1029 188M956 169L913 250M1029 188L1113 217M1029 188L1056 244M1113 217L1155 161M1113 217L1056 244M1113 217L1128 249M1155 161L1128 249M1253 219L1299 205M1253 219L1241 245M1253 219L1307 276M1299 205L1405 195M1299 205L1241 245M1299 205L1307 276M1405 195L1427 248M1405 195L1458 259M1516 212L1585 236M1516 212L1427 248M1516 212L1458 259M1516 212L1561 261M1585 236L1664 237M1585 236L1561 261M1585 236L1647 307M1664 237L1647 307M1793 239L1852 206M1793 239L1755 302M1793 239L1763 302M1793 239L1874 259M1793 239L1821 334M1852 206L1936 215M1852 206L1874 259M1936 215L2019 186M1936 215L1874 259M1936 215L1974 274M2019 186L2103 200M2019 186L1974 274M2103 200L2053 303M2103 200L2100 281M2219 236L2269 170M2219 236L2203 308M2219 236L2292 272M2269 170L2292 272M2392 228L2462 237M2392 228L2349 265M2392 228L2455 281M2462 237L2538 183M2462 237L2455 281M2462 237L2503 319M64 274L90 249M64 274L3 320M90 249L3 320M235 278L258 278M235 278L158 364M235 278L224 325M258 278L224 325M258 278L314 389M258 278L351 337M399 253L450 250M399 253L351 337M450 250L524 256M524 256L570 241M524 256L540 325M570 241L643 246M570 241L540 325M643 246L752 246M752 246L834 315M752 246L751 329M834 315L751 329M834 315L808 374M834 315L884 348M1033 313L1056 244M1033 313L985 350M1033 313L1094 377M1033 313L1120 330M1033 313L1061 415M1056 244L1128 249M1128 249L1241 245M1128 249L1120 330M1241 245L1307 276M1241 245L1290 342M1307 276L1246 358M1307 276L1290 342M1427 248L1458 259M1458 259L1561 261M1458 259L1500 373M1561 261L1647 307M1561 261L1639 341M1647 307L1639 341M1647 307L1725 335M1755 302L1763 302M1755 302L1725 335M1755 302L1821 334M1763 302L1725 335M1763 302L1821 334M1874 259L1821 334M1974 274L2053 303M1974 274L1935 357M1974 274L2039 330M2053 303L2100 281M2053 303L2039 330M2053 303L2129 323M2100 281L2039 330M2100 281L2129 323M2203 308L2292 272M2203 308L2129 323M2203 308L2230 373M2292 272L2349 265M2349 265L2455 281M2349 265L2332 365M2349 265L2424 346M2455 281L2503 319M2455 281L2424 346M2503 319L2563 320M2503 319L2424 346M2503 319L2539 377M-57 319L3 320M3 320L-21 377M2563 320L2539 377M158 364L224 325M158 364L125 445M224 325L314 389M314 389L351 337M314 389L271 453M314 389L419 416M351 337L452 380M351 337L419 416M452 380L419 416M540 325L593 384M540 325L559 404M540 325L570 403M593 384L670 381M593 384L559 404M593 384L570 403M593 384L688 402M670 381L751 329M670 381L570 403M670 381L688 402M751 329L808 374M751 329L786 414M808 374L884 348M808 374L786 414M808 374L809 447M884 348L985 350M884 348L911 441M985 350L1094 377M985 350L1003 449M985 350L1061 415M1094 377L1120 330M1094 377L1061 415M1246 358L1290 342M1246 358L1190 456M1246 358L1228 435M1246 358L1336 417M1290 342L1336 417M1393 394L1500 373M1393 394L1336 417M1393 394L1392 475M1393 394L1434 481M1500 373L1544 392M1544 392L1639 341M1544 392L1558 465M1544 392L1635 440M1639 341L1725 335M1639 341L1635 440M1821 334L1885 380M1885 380L1935 357M1885 380L1792 432M1885 380L1910 424M1885 380L1970 411M1935 357L2039 330M1935 357L1910 424M1935 357L1970 411M2039 330L2129 323M2230 373L2284 393M2230 373L2221 440M2230 373L2295 441M2284 393L2332 365M2284 393L2221 440M2284 393L2295 441M2424 346L2439 408M2539 377L2606 447M2539 377L2439 408M2539 377L2558 466M-21 377L46 447M46 447L125 445M46 447L-2 466M46 447L30 491M46 447L-55 487M2606 447L2558 466M2606 447L2505 487M125 445L192 479M125 445L30 491M125 445L146 523M192 479L271 453M192 479L146 523M192 479L180 548M192 479L256 518M271 453L256 518M271 453L320 525M398 480L419 416M398 480L320 525M398 480L437 533M398 480L392 575M398 480L431 579M559 404L570 403M570 403L688 402M688 402L786 414M688 402L669 512M786 414L809 447M786 414L846 483M809 447L911 441M809 447L846 483M911 441L1003 449M911 441L846 483M911 441L947 492M1003 449L1061 415M1003 449L947 492M1003 449L1042 483M1061 415L1042 483M1190 456L1228 435M1190 456L1135 508M1190 456L1253 532M1228 435L1336 417M1228 435L1253 532M1336 417L1392 475M1392 475L1470 474M1392 475L1334 537M1392 475L1434 481M1470 474L1558 465M1470 474L1434 481M1470 474L1496 527M1558 465L1635 440M1558 465L1541 547M1558 465L1629 507M1635 440L1629 507M1635 440L1704 491M1737 471L1792 432M1737 471L1704 491M1792 432L1704 491M1792 432L1831 520M1910 424L1970 411M1910 424L1988 499M1970 411L2053 454M1970 411L1988 499M2053 454L2132 455M2053 454L1988 499M2053 454L2019 523M2132 455L2221 440M2132 455L2109 546M2132 455L2225 497M2221 440L2295 441M2221 440L2225 497M2295 441L2387 449M2295 441L2225 497M2387 449L2439 408M2387 449L2353 532M2387 449L2414 483M2439 408L2414 483M2439 408L2505 487M2558 466L2590 491M2558 466L2505 487M-2 466L30 491M30 491L-55 487M2590 491L2505 487M146 523L180 548M146 523L108 589M146 523L168 580M180 548L256 518M180 548L108 589M180 548L168 580M256 518L320 525M256 518L279 622M320 525L279 622M320 525L392 575M437 533L547 516M437 533L392 575M437 533L431 579M437 533L494 562M547 516L595 518M547 516L494 562M595 518L669 512M595 518L494 562M669 512L772 556M669 512L694 606M772 556L694 606M772 556L732 616M772 556L824 584M846 483L824 584M947 492L967 559M947 492L1042 483M947 492L1005 565M967 559L881 592M967 559L1005 565M967 559L1084 572M1042 483L1135 508M1042 483L1005 565M1135 508L1084 572M1135 508L1129 583M1253 532L1334 537M1253 532L1230 569M1253 532L1287 588M1334 537L1434 481M1334 537L1287 588M1334 537L1399 614M1434 481L1496 527M1496 527L1541 547M1496 527L1470 601M1541 547L1629 507M1541 547L1470 601M1541 547L1614 560M1629 507L1704 491M1629 507L1614 560M1704 491L1614 560M1831 520L1869 533M1831 520L1834 584M1831 520L1864 602M1869 533L1834 584M1869 533L1864 602M1869 533L1927 585M1988 499L2019 523M1988 499L1927 585M2019 523L2109 546M2019 523L2034 611M2109 546L2034 611M2109 546L2087 633M2109 546L2186 594M2225 497L2296 554M2225 497L2281 571M2296 554L2353 532M2296 554L2281 571M2296 554L2372 561M2353 532L2414 483M2353 532L2281 571M2353 532L2372 561M2414 483L2505 487M2414 483L2372 561M35 628L108 589M35 628L-78 607M35 628L32 684M35 628L-63 654M35 628L65 741M2595 628L2482 607M2595 628L2497 654M108 589L168 580M279 622L285 676M279 622L354 650M392 575L431 579M392 575L354 650M431 579L494 562M431 579L417 686M618 634L694 606M618 634L732 616M618 634L588 669M618 634L676 711M618 634L640 723M694 606L732 616M732 616L824 584M732 616L754 696M824 584L881 592M824 584L831 685M1005 565L1084 572M1084 572L1129 583M1084 572L1041 685M1129 583L1230 569M1129 583L1184 681M1230 569L1287 588M1230 569L1238 640M1287 588L1238 640M1287 588L1297 649M1399 614L1470 601M1399 614L1297 649M1399 614L1420 718M1399 614L1452 675M1470 601L1532 636M1470 601L1452 675M1532 636L1452 675M1532 636L1581 644M1532 636L1611 692M1532 636L1575 737M1614 560L1702 623M1614 560L1581 644M1702 623L1581 644M1702 623L1611 692M1702 623L1754 653M1834 584L1864 602M1834 584L1927 585M1834 584L1754 653M1864 602L1927 585M1864 602L1878 677M1927 585L1986 645M2034 611L2087 633M2034 611L1986 645M2034 611L2071 687M2087 633L2071 687M2087 633L2157 649M2087 633L2164 672M2186 594L2281 571M2186 594L2157 649M2186 594L2164 672M2281 571L2372 561M2372 561L2425 636M2425 636L2482 607M2425 636L2392 710M2425 636L2402 697M2425 636L2497 654M2482 607L2497 654M32 684L144 697M32 684L-63 654M32 684L65 741M32 684L82 777M2592 684L2497 654M144 697L160 692M144 697L65 741M144 697L82 777M144 697L219 756M160 692L65 741M160 692L219 756M285 676L354 650M285 676L219 756M285 676L330 762M354 650L417 686M354 650L402 721M417 686L511 715M417 686L330 762M417 686L402 721M511 715L588 669M511 715L560 785M511 715L448 800M511 715L571 806M588 669L640 723M676 711L754 696M676 711L639 769M676 711L640 723M676 711L765 734M754 696L831 685M754 696L765 734M831 685L765 734M831 685L855 769M831 685L904 722M939 686L972 697M939 686L1041 685M939 686L855 769M939 686L904 722M972 697L1041 685M972 697L904 722M972 697L1026 770M1041 685L1026 770M1041 685L1064 766M1184 681L1238 640M1184 681L1154 760M1184 681L1227 731M1238 640L1297 649M1238 640L1227 731M1297 649L1227 731M1297 649L1315 725M1420 718L1452 675M1420 718L1398 782M1420 718L1461 776M1420 718L1465 801M1452 675L1461 776M1581 644L1611 692M1581 644L1575 737M1611 692L1575 737M1611 692L1639 746M1754 653L1834 715M1754 653L1799 752M1834 715L1878 677M1834 715L1799 752M1834 715L1875 784M1986 645L2071 687M1986 645L1959 751M2071 687L2157 649M2157 649L2164 672M2157 649L2208 729M2164 672L2256 715M2164 672L2208 729M2256 715L2208 729M2256 715L2263 737M2256 715L2269 817M2392 710L2402 697M2392 710L2385 730M2392 710L2424 754M2392 710L2481 724M2402 697L2385 730M2402 697L2424 754M2402 697L2481 724M2497 654L2481 724M65 741L82 777M82 777L34 880M82 777L160 833M219 756L246 792M219 756L224 805M246 792L330 762M246 792L160 833M246 792L224 805M246 792L273 868M330 762L402 721M330 762L376 830M402 721L376 830M402 721L448 800M560 785L639 769M560 785L519 871M560 785L571 806M639 769L640 723M639 769L571 806M639 769L672 836M765 734L855 769M855 769L904 722M1026 770L1064 766M1026 770L1027 838M1026 770L1049 810M1064 766L1154 760M1064 766L1027 838M1064 766L1049 810M1154 760L1227 731M1154 760L1130 861M1227 731L1315 725M1315 725L1398 782M1398 782L1461 776M1398 782L1426 822M1398 782L1465 801M1461 776L1426 822M1461 776L1465 801M1575 737L1639 746M1575 737L1557 825M1639 746L1721 768M1639 746L1557 825M1639 746L1672 853M1721 768L1799 752M1721 768L1672 853M1721 768L1699 873M1721 768L1777 821M1799 752L1875 784M1799 752L1777 821M1875 784L1959 751M1875 784L1777 821M1875 784L1844 863M1959 751L2008 798M1959 751L2027 814M2008 798L1947 866M2008 798L2027 814M2008 798L2053 890M2156 799L2208 729M2156 799L2151 811M2156 799L2197 831M2156 799L2161 882M2208 729L2263 737M2263 737L2269 817M2263 737L2325 837M2385 730L2424 754M2385 730L2481 724M2424 754L2481 724M2424 754L2443 852M34 880L-12 876M34 880L30 959M34 880L94 911M34 880L-39 900M2594 880L2548 876M2594 880L2521 900M160 833L224 805M160 833L94 911M224 805L273 868M273 868L376 830M273 868L241 954M273 868L365 889M376 830L448 800M376 830L365 889M448 800L519 871M448 800L365 889M519 871L571 806M519 871L478 932M519 871L511 896M571 806L672 836M672 836L624 903M672 836L711 896M767 871L815 866M767 871L711 896M767 871L745 928M767 871L812 896M815 866L897 873M815 866L745 928M815 866L812 896M815 866L893 893M897 873L812 896M897 873L893 893M897 873L933 966M1027 838L1049 810M1027 838L1130 861M1027 838L1052 947M1049 810L1130 861M1130 861L1131 922M1267 850L1347 862M1267 850L1261 918M1347 862L1261 918M1347 862L1360 910M1347 862L1437 906M1426 822L1465 801M1426 822L1437 906M1426 822L1467 896M1465 801L1557 825M1557 825L1467 896M1557 825L1523 918M1672 853L1699 873M1672 853L1743 928M1699 873L1777 821M1699 873L1743 928M1699 873L1763 953M1777 821L1844 863M1844 863L1947 866M1844 863L1763 953M1844 863L1910 939M1947 866L2027 814M1947 866L1910 939M2027 814L2053 890M2151 811L2197 831M2151 811L2108 918M2151 811L2161 882M2197 831L2269 817M2197 831L2161 882M2197 831L2258 905M2269 817L2325 837M2269 817L2258 905M2325 837L2258 905M2325 837L2355 899M2443 852L2548 876M2443 852L2355 899M2443 852L2416 920M2443 852L2521 900M2548 876L2654 911M2548 876L2521 900M-12 876L94 911M30 959L94 911M30 959L27 1005M30 959L91 1013M30 959L-0 1024M2590 959L2560 1024M200 956L241 954M200 956L169 990M200 956L149 1059M200 956L200 1062M241 954L169 990M241 954L265 1037M241 954L321 988M365 889L478 932M365 889L321 988M478 932L511 896M478 932L421 1005M478 932L548 979M511 896L624 903M511 896L548 979M624 903L711 896M624 903L548 979M711 896L745 928M711 896L731 970M745 928L812 896M745 928L731 970M812 896L893 893M893 893L933 966M1039 942L1052 947M1039 942L1131 922M1039 942L933 966M1039 942L999 996M1052 947L1131 922M1052 947L999 996M1052 947L1095 1031M1131 922L1172 1000M1261 918L1360 910M1261 918L1250 980M1360 910L1437 906M1360 910L1467 896M1360 910L1336 1014M1437 906L1467 896M1467 896L1523 918M1523 918L1612 959M1523 918L1488 999M1523 918L1552 997M1612 959L1488 999M1612 959L1552 997M1612 959L1649 1025M1612 959L1624 1062M1743 928L1763 953M1743 928L1748 1018M1763 953L1748 1018M1763 953L1807 1014M1910 939L1925 957M1910 939L1909 986M1910 939L1995 985M1925 957L1909 986M1925 957L1995 985M1925 957L2003 1015M2053 890L2108 918M2108 918L2161 882M2108 918L2146 1026M2258 905L2355 899M2258 905L2286 963M2355 899L2416 920M2355 899L2286 963M2416 920L2521 900M2416 920L2392 1015M27 1005L91 1013M27 1005L-0 1024M27 1005L22 1071M2587 1005L2560 1024M91 1013L169 990M91 1013L22 1071M91 1013L149 1059M169 990L149 1059M169 990L200 1062M265 1037L321 988M265 1037L200 1062M265 1037L316 1088M265 1037L353 1095M321 988L421 1005M321 988L316 1088M421 1005L353 1095M421 1005L438 1079M548 979L582 1026M548 979L563 1047M582 1026L702 1013M582 1026L563 1047M582 1026L693 1058M702 1013L731 970M702 1013L820 1005M702 1013L693 1058M702 1013L774 1056M731 970L820 1005M820 1005L933 966M820 1005L774 1056M820 1005L834 1091M933 966L999 996M999 996L1095 1031M999 996L1011 1067M1095 1031L1172 1000M1095 1031L1011 1067M1095 1031L1107 1099M1172 1000L1250 980M1172 1000L1215 1051M1250 980L1336 1014M1250 980L1215 1051M1336 1014L1373 1023M1336 1014L1287 1097M1336 1014L1408 1072M1373 1023L1408 1072M1488 999L1552 997M1488 999L1500 1114M1552 997L1624 1062M1649 1025L1624 1062M1649 1025L1690 1078M1748 1018L1807 1014M1748 1018L1690 1078M1748 1018L1807 1066M1807 1014L1807 1066M1807 1014L1871 1068M1909 986L2003 1015M1909 986L1871 1068M1909 986L1940 1041M1995 985L2003 1015M1995 985L1940 1041M1995 985L2000 1059M2003 1015L1940 1041M2003 1015L2000 1059M2146 1026L2203 1008M2146 1026L2120 1078M2146 1026L2238 1063M2146 1026L2242 1043M2203 1008L2286 963M2203 1008L2120 1078M2203 1008L2238 1063M2203 1008L2242 1043M2286 963L2242 1043M2392 1015L2452 1033M2392 1015L2391 1056M2452 1033L2560 1024M2452 1033L2391 1056M2452 1033L2440 1107M2452 1033L2501 1089M2560 1024L2582 1071M2560 1024L2501 1089M-0 1024L22 1071M22 1071L-59 1089M2582 1071L2501 1089M149 1059L200 1062M149 1059L137 1176M316 1088L353 1095M316 1088L267 1182M316 1088L373 1178M353 1095L438 1079M353 1095L373 1178M438 1079L523 1120M438 1079L477 1148M523 1120L477 1148M523 1120L491 1196M523 1120L568 1184M523 1120L499 1203M693 1058L774 1056M693 1058L653 1170M774 1056L834 1091M774 1056L806 1125M834 1091L922 1101M834 1091L794 1153M834 1091L806 1125M922 1101L1011 1067M922 1101L806 1125M922 1101L935 1162M922 1101L965 1152M1011 1067L1107 1099M1011 1067L965 1152M1107 1099L1187 1100M1107 1099L1091 1185M1187 1100L1215 1051M1187 1100L1287 1097M1187 1100L1157 1189M1187 1100L1216 1135M1215 1051L1287 1097M1215 1051L1216 1135M1287 1097L1216 1135M1287 1097L1285 1195M1408 1072L1500 1114M1408 1072L1376 1169M1408 1072L1482 1143M1500 1114L1568 1105M1500 1114L1482 1143M1500 1114L1579 1172M1568 1105L1624 1062M1568 1105L1482 1143M1568 1105L1579 1172M1568 1105L1642 1162M1624 1062L1690 1078M1690 1078L1642 1162M1690 1078L1729 1126M1807 1066L1871 1068M1807 1066L1729 1126M1807 1066L1761 1149M1871 1068L1940 1041M1871 1068L1874 1128M1940 1041L2000 1059M2000 1059L2120 1078M2000 1059L1950 1128M2120 1078L2150 1140M2120 1078L2174 1155M2238 1063L2242 1043M2238 1063L2150 1140M2238 1063L2297 1145M2242 1043L2297 1145M2391 1056L2440 1107M2391 1056L2424 1144M2440 1107L2501 1089M2440 1107L2424 1144M2440 1107L2481 1166M2501 1089L2481 1166M18 1198L-79 1166M18 1198L26 1227M18 1198L-16 1259M18 1198L79 1281M2578 1198L2481 1166M2578 1198L2544 1259M137 1176L222 1197M137 1176L108 1247M222 1197L267 1182M222 1197L185 1277M222 1197L251 1267M267 1182L373 1178M267 1182L251 1267M267 1182L365 1235M373 1178L365 1235M373 1178L416 1236M477 1148L491 1196M477 1148L499 1203M491 1196L568 1184M491 1196L416 1236M491 1196L499 1203M568 1184L653 1170M568 1184L499 1203M568 1184L596 1235M653 1170L596 1235M653 1170L690 1227M653 1170L624 1282M794 1153L806 1125M794 1153L779 1202M794 1153L811 1264M806 1125L779 1202M935 1162L965 1152M935 1162L925 1242M965 1152L925 1242M965 1152L1036 1202M1091 1185L1157 1189M1091 1185L1036 1202M1091 1185L1086 1251M1091 1185L1153 1229M1157 1189L1216 1135M1157 1189L1153 1229M1216 1135L1285 1195M1285 1195L1376 1169M1285 1195L1220 1268M1285 1195L1314 1238M1376 1169L1482 1143M1376 1169L1314 1238M1376 1169L1434 1256M1482 1143L1579 1172M1579 1172L1642 1162M1642 1162L1729 1126M1642 1162L1654 1256M1729 1126L1761 1149M1761 1149L1874 1128M1874 1128L1950 1128M1950 1128L2005 1188M2005 1188L1961 1219M2005 1188L2065 1233M2005 1188L2014 1292M2150 1140L2174 1155M2150 1140L2144 1277M2174 1155L2265 1209M2297 1145L2351 1194M2297 1145L2265 1209M2351 1194L2424 1144M2351 1194L2265 1209M2351 1194L2349 1273M2351 1194L2429 1258M2424 1144L2481 1166M2481 1166L2429 1258M26 1227L108 1247M26 1227L-16 1259M26 1227L79 1281M26 1227L-0 1306M2586 1227L2544 1259M2586 1227L2560 1306M108 1247L185 1277M108 1247L79 1281M108 1247L149 1302M185 1277L251 1267M185 1277L149 1302M185 1277L200 1335M251 1267L200 1335M251 1267L292 1343M365 1235L416 1236M365 1235L375 1328M416 1236L499 1203M416 1236L420 1343M596 1235L690 1227M596 1235L624 1282M690 1227L779 1202M690 1227L624 1282M690 1227L727 1308M779 1202L811 1264M811 1264L727 1308M811 1264L818 1327M811 1264L890 1324M925 1242L890 1324M1036 1202L1086 1251M1036 1202L1009 1298M1086 1251L1153 1229M1086 1251L1009 1298M1086 1251L1082 1295M1153 1229L1220 1268M1153 1229L1082 1295M1220 1268L1165 1344M1220 1268L1274 1317M1314 1238L1274 1317M1314 1238L1322 1325M1314 1238L1381 1290M1434 1256L1514 1269M1434 1256L1381 1290M1434 1256L1466 1350M1434 1256L1529 1290M1514 1269L1579 1273M1514 1269L1466 1350M1514 1269L1529 1290M1579 1273L1654 1256M1579 1273L1529 1290M1579 1273L1606 1348M1654 1256L1712 1279M1654 1256L1606 1348M1654 1256L1731 1313M1712 1279L1793 1272M1712 1279L1731 1313M1712 1279L1782 1286M1793 1272L1878 1252M1793 1272L1731 1313M1793 1272L1782 1286M1793 1272L1865 1315M1878 1252L1961 1219M1878 1252L1865 1315M1878 1252L1931 1294M1961 1219L2065 1233M1961 1219L1931 1294M1961 1219L2014 1292M2065 1233L2144 1277M2065 1233L2014 1292M2065 1233L2088 1284M2144 1277L2191 1275M2144 1277L2088 1284M2144 1277L2177 1359M2191 1275L2265 1209M2191 1275L2088 1284M2191 1275L2177 1359M2349 1273L2429 1258M2349 1273L2292 1356M2349 1273L2381 1349M2349 1273L2351 1376M2429 1258L2463 1297M2429 1258L2463 1360M2544 1259L2463 1297M2544 1259L2560 1306M79 1281L149 1302M79 1281L-0 1306M2639 1281L2560 1306M149 1302L200 1335M149 1302L125 1383M200 1335L125 1383M200 1335L212 1385M292 1343L375 1328M292 1343L212 1385M292 1343L269 1432M292 1343L327 1431M375 1328L420 1343M375 1328L412 1376M420 1343L529 1353M420 1343L412 1376M529 1353L412 1376M529 1353L511 1412M529 1353L629 1363M624 1282L689 1341M624 1282L629 1363M689 1341L727 1308M689 1341L629 1363M689 1341L707 1372M689 1341L725 1425M727 1308L818 1327M727 1308L707 1372M818 1327L890 1324M818 1327L830 1425M818 1327L901 1380M890 1324L901 1380M890 1324L984 1374M1009 1298L1082 1295M1009 1298L984 1374M1009 1298L1052 1376M1082 1295L1165 1344M1082 1295L1052 1376M1165 1344L1178 1414M1274 1317L1322 1325M1274 1317L1381 1290M1274 1317L1252 1393M1322 1325L1381 1290M1322 1325L1252 1393M1322 1325L1356 1406M1381 1290L1466 1350M1466 1350L1529 1290M1466 1350L1477 1438M1529 1290L1589 1373M1606 1348L1589 1373M1606 1348L1618 1426M1606 1348L1687 1408M1731 1313L1782 1286M1731 1313L1795 1362M1782 1286L1795 1362M1865 1315L1931 1294M1865 1315L1795 1362M1865 1315L1888 1374M1931 1294L2014 1292M1931 1294L1888 1374M2014 1292L2088 1284M2177 1359L2127 1414M2177 1359L2224 1437M2292 1356L2381 1349M2292 1356L2277 1432M2292 1356L2351 1376M2381 1349L2463 1297M2381 1349L2351 1376M2381 1349L2463 1360M2463 1297L2463 1360M2463 1297L2481 1397M2560 1306L2616 1413M-0 1306L56 1413M56 1413L125 1383M125 1383L212 1385M212 1385L269 1432M269 1432L327 1431M412 1376L511 1412M629 1363L707 1372M707 1372L725 1425M725 1425L830 1425M830 1425L901 1380M901 1380L984 1374M984 1374L1052 1376M1178 1414L1252 1393M1252 1393L1356 1406M1356 1406L1371 1417M1371 1417L1477 1438M1589 1373L1618 1426M1589 1373L1687 1408M1618 1426L1687 1408M1795 1362L1888 1374M1888 1374L1925 1410M1925 1410L2045 1424M2045 1424L2127 1414M2127 1414L2224 1437M2224 1437L2277 1432M2277 1432L2351 1376M2351 1376L2463 1360M2463 1360L2481 1397"/></svg>