<svg xmlns="http://www.w3.org/2000/svg" width="2560" height="1440" fill="#fff"><circle cx="59" cy="78" r="5"/><circle cx="88" cy="56" r="6"/><circle cx="232" cy="76" r="5"/><circle cx="284" cy="5" r="6"/><circle cx="284" cy="1445" r="6"/><circle cx="326" cy="39" r="5"/><circle cx="422" cy="62" r="5"/><circle cx="535" cy="24" r="4"/><circle cx="614" cy="53" r="6"/><circle cx="660" cy="23" r="6"/><circle cx="738" cy="6" r="6"/><circle cx="814" cy="55" r="5"/><circle cx="930" cy="21" r="5"/><circle cx="1025" cy="1" r="6"/><circle cx="1025" cy="1441" r="6"/><circle cx="1111" cy="34" r="5"/><circle cx="1168" cy="34" r="5"/><circle cx="1249" cy="31" r="6"/><circle cx="1352" cy="22" r="5"/><circle cx="1389" cy="27" r="5"/><circle cx="1512" cy="65" r="5"/><circle cx="1545" cy="42" r="5"/><circle cx="1603" cy="32" r="5"/><circle cx="1687" cy="37" r="6"/><circle cx="1771" cy="42" r="5"/><circle cx="1888" cy="61" r="5"/><circle cx="1933" cy="75" r="5"/><circle cx="2034" cy="9" r="5"/><circle cx="2093" cy="5" r="5"/><circle cx="2093" cy="1445" r="5"/><circle cx="2190" cy="71" r="6"/><circle cx="2288" cy="20" r="6"/><circle cx="2364" cy="72" r="5"/><circle cx="2479" cy="58" r="6"/><circle cx="2490" cy="54" r="5"/><circle cx="53" cy="114" r="5"/><circle cx="107" cy="94" r="4"/><circle cx="186" cy="150" r="4"/><circle cx="282" cy="134" r="5"/><circle cx="368" cy="155" r="5"/><circle cx="456" cy="151" r="5"/><circle cx="496" cy="80" r="5"/><circle cx="596" cy="89" r="4"/><circle cx="648" cy="93" r="5"/><circle cx="793" cy="89" r="5"/><circle cx="868" cy="128" r="6"/><circle cx="911" cy="83" r="6"/><circle cx="967" cy="144" r="6"/><circle cx="1043" cy="88" r="4"/><circle cx="1175" cy="151" r="5"/><circle cx="1271" cy="110" r="4"/><circle cx="1340" cy="130" r="6"/><circle cx="1426" cy="153" r="5"/><circle cx="1461" cy="85" r="5"/><circle cx="1533" cy="115" r="5"/><circle cx="1612" cy="127" r="4"/><circle cx="1712" cy="159" r="4"/><circle cx="1790" cy="107" r="4"/><circle cx="1844" cy="118" r="4"/><circle cx="1953" cy="94" r="4"/><circle cx="2040" cy="141" r="5"/><circle cx="2154" cy="132" r="5"/><circle cx="2189" cy="131" r="5"/><circle cx="2304" cy="146" r="6"/><circle cx="2352" cy="105" r="5"/><circle cx="2416" cy="120" r="6"/><circle cx="2537" cy="135" r="4"/><circle cx="50" cy="202" r="6"/><circle cx="124" cy="223" r="6"/><circle cx="172" cy="239" r="5"/><circle cx="274" cy="216" r="5"/><circle cx="339" cy="173" r="4"/><circle cx="466" cy="183" r="5"/><circle cx="526" cy="238" r="4"/><circle cx="564" cy="207" r="5"/><circle cx="663" cy="204" r="5"/><circle cx="761" cy="220" r="6"/><circle cx="801" cy="202" r="5"/><circle cx="934" cy="167" r="5"/><circle cx="1024" cy="218" r="5"/><circle cx="1085" cy="199" r="6"/><circle cx="1142" cy="234" r="4"/><circle cx="1234" cy="174" r="5"/><circle cx="1293" cy="236" r="5"/><circle cx="1428" cy="197" r="5"/><circle cx="1475" cy="161" r="4"/><circle cx="1557" cy="195" r="6"/><circle cx="1605" cy="161" r="5"/><circle cx="1687" cy="232" r="5"/><circle cx="1835" cy="236" r="5"/><circle cx="1897" cy="205" r="5"/><circle cx="1929" cy="188" r="5"/><circle cx="2002" cy="181" r="5"/><circle cx="2091" cy="193" r="4"/><circle cx="2209" cy="236" r="4"/><circle cx="2317" cy="222" r="6"/><circle cx="2358" cy="207" r="5"/><circle cx="2428" cy="238" r="4"/><circle cx="2546" cy="186" r="5"/><circle cx="0" cy="300" r="5"/><circle cx="2560" cy="300" r="5"/><circle cx="98" cy="267" r="5"/><circle cx="195" cy="263" r="5"/><circle cx="242" cy="304" r="5"/><circle cx="346" cy="281" r="5"/><circle cx="445" cy="271" r="6"/><circle cx="556" cy="255" r="6"/><circle cx="581" cy="261" r="5"/><circle cx="707" cy="254" r="5"/><circle cx="745" cy="305" r="5"/><circle cx="864" cy="267" r="4"/><circle cx="906" cy="305" r="5"/><circle cx="964" cy="277" r="6"/><circle cx="1076" cy="286" r="6"/><circle cx="1163" cy="263" r="5"/><circle cx="1211" cy="312" r="5"/><circle cx="1282" cy="242" r="5"/><circle cx="1402" cy="309" r="4"/><circle cx="1510" cy="275" r="5"/><circle cx="1543" cy="245" r="5"/><circle cx="1657" cy="246" r="5"/><circle cx="1710" cy="319" r="4"/><circle cx="1804" cy="259" r="5"/><circle cx="1849" cy="309" r="6"/><circle cx="1980" cy="307" r="5"/><circle cx="2008" cy="254" r="4"/><circle cx="2130" cy="253" r="5"/><circle cx="2173" cy="298" r="4"/><circle cx="2272" cy="281" r="5"/><circle cx="2372" cy="259" r="5"/><circle cx="2459" cy="303" r="5"/><circle cx="2518" cy="261" r="6"/><circle cx="32" cy="385" r="5"/><circle cx="154" cy="372" r="5"/><circle cx="204" cy="344" r="5"/><circle cx="252" cy="360" r="6"/><circle cx="363" cy="321" r="5"/><circle cx="421" cy="361" r="5"/><circle cx="492" cy="399" r="5"/><circle cx="564" cy="393" r="5"/><circle cx="653" cy="393" r="4"/><circle cx="791" cy="370" r="6"/><circle cx="839" cy="392" r="4"/><circle cx="950" cy="320" r="5"/><circle cx="960" cy="334" r="5"/><circle cx="1098" cy="327" r="6"/><circle cx="1165" cy="344" r="5"/><circle cx="1275" cy="354" r="6"/><circle cx="1318" cy="326" r="5"/><circle cx="1387" cy="389" r="5"/><circle cx="1501" cy="393" r="6"/><circle cx="1540" cy="375" r="4"/><circle cx="1608" cy="349" r="6"/><circle cx="1749" cy="377" r="5"/><circle cx="1788" cy="374" r="4"/><circle cx="1880" cy="381" r="6"/><circle cx="1974" cy="362" r="5"/><circle cx="2057" cy="355" r="6"/><circle cx="2133" cy="356" r="4"/><circle cx="2190" cy="348" r="5"/><circle cx="2271" cy="338" r="6"/><circle cx="2384" cy="321" r="6"/><circle cx="2431" cy="334" r="5"/><circle cx="2516" cy="322" r="6"/><circle cx="20" cy="451" r="6"/><circle cx="112" cy="407" r="6"/><circle cx="164" cy="431" r="6"/><circle cx="284" cy="471" r="5"/><circle cx="399" cy="407" r="5"/><circle cx="458" cy="424" r="5"/><circle cx="548" cy="409" r="5"/><circle cx="585" cy="456" r="6"/><circle cx="642" cy="419" r="4"/><circle cx="797" cy="442" r="5"/><circle cx="815" cy="428" r="4"/><circle cx="954" cy="431" r="4"/><circle cx="1006" cy="467" r="5"/><circle cx="1075" cy="407" r="6"/><circle cx="1192" cy="457" r="4"/><circle cx="1204" cy="472" r="6"/><circle cx="1327" cy="409" r="5"/><circle cx="1425" cy="474" r="5"/><circle cx="1454" cy="471" r="6"/><circle cx="1541" cy="423" r="6"/><circle cx="1657" cy="465" r="5"/><circle cx="1715" cy="462" r="6"/><circle cx="1835" cy="418" r="6"/><circle cx="1846" cy="478" r="6"/><circle cx="1929" cy="470" r="4"/><circle cx="2022" cy="477" r="6"/><circle cx="2144" cy="421" r="6"/><circle cx="2219" cy="415" r="4"/><circle cx="2278" cy="461" r="5"/><circle cx="2378" cy="423" r="4"/><circle cx="2440" cy="418" r="5"/><circle cx="2484" cy="434" r="6"/><circle cx="75" cy="490" r="5"/><circle cx="131" cy="552" r="5"/><circle cx="189" cy="539" r="5"/><circle cx="314" cy="482" r="5"/><circle cx="332" cy="491" r="5"/><circle cx="477" cy="496" r="4"/><circle cx="516" cy="505" r="4"/><circle cx="624" cy="536" r="4"/><circle cx="669" cy="538" r="5"/><circle cx="781" cy="503" r="4"/><circle cx="849" cy="500" r="5"/><circle cx="949" cy="490" r="5"/><circle cx="1012" cy="515" r="5"/><circle cx="1105" cy="532" r="5"/><circle cx="1133" cy="521" r="4"/><circle cx="1273" cy="489" r="5"/><circle cx="1352" cy="542" r="4"/><circle cx="1396" cy="506" r="5"/><circle cx="1498" cy="543" r="5"/><circle cx="1574" cy="507" r="5"/><circle cx="1627" cy="543" r="6"/><circle cx="1756" cy="533" r="4"/><circle cx="1768" cy="533" r="4"/><circle cx="1893" cy="534" r="5"/><circle cx="1953" cy="525" r="5"/><circle cx="2022" cy="505" r="5"/><circle cx="2141" cy="538" r="6"/><circle cx="2174" cy="514" r="6"/><circle cx="2264" cy="487" r="5"/><circle cx="2351" cy="488" r="5"/><circle cx="2421" cy="527" r="5"/><circle cx="2512" cy="552" r="4"/><circle cx="27" cy="581" r="5"/><circle cx="114" cy="595" r="4"/><circle cx="182" cy="633" r="4"/><circle cx="267" cy="628" r="6"/><circle cx="337" cy="616" r="5"/><circle cx="424" cy="573" r="4"/><circle cx="493" cy="577" r="5"/><circle cx="581" cy="596" r="6"/><circle cx="652" cy="599" r="4"/><circle cx="767" cy="639" r="6"/><circle cx="811" cy="631" r="5"/><circle cx="903" cy="594" r="5"/><circle cx="994" cy="625" r="4"/><circle cx="1059" cy="591" r="5"/><circle cx="1175" cy="622" r="6"/><circle cx="1214" cy="595" r="6"/><circle cx="1327" cy="632" r="5"/><circle cx="1400" cy="565" r="6"/><circle cx="1505" cy="590" r="4"/><circle cx="1581" cy="634" r="5"/><circle cx="1655" cy="613" r="5"/><circle cx="1703" cy="604" r="6"/><circle cx="1805" cy="604" r="4"/><circle cx="1875" cy="636" r="5"/><circle cx="1992" cy="583" r="6"/><circle cx="2009" cy="605" r="6"/><circle cx="2087" cy="569" r="5"/><circle cx="2190" cy="571" r="4"/><circle cx="2279" cy="633" r="6"/><circle cx="2360" cy="626" r="5"/><circle cx="2469" cy="626" r="5"/><circle cx="2484" cy="624" r="5"/><circle cx="3" cy="666" r="4"/><circle cx="2563" cy="666" r="4"/><circle cx="113" cy="645" r="5"/><circle cx="175" cy="672" r="5"/><circle cx="294" cy="717" r="4"/><circle cx="373" cy="646" r="5"/><circle cx="431" cy="712" r="5"/><circle cx="553" cy="691" r="5"/><circle cx="566" cy="674" r="4"/><circle cx="682" cy="678" r="6"/><circle cx="764" cy="672" r="5"/><circle cx="813" cy="701" r="6"/><circle cx="898" cy="702" r="5"/><circle cx="1031" cy="658" r="5"/><circle cx="1083" cy="643" r="5"/><circle cx="1175" cy="715" r="5"/><circle cx="1212" cy="715" r="6"/><circle cx="1357" cy="708" r="5"/><circle cx="1435" cy="666" r="6"/><circle cx="1457" cy="655" r="6"/><circle cx="1579" cy="710" r="6"/><circle cx="1648" cy="690" r="5"/><circle cx="1692" cy="702" r="4"/><circle cx="1788" cy="714" r="5"/><circle cx="1869" cy="669" r="6"/><circle cx="1999" cy="691" r="4"/><circle cx="2066" cy="709" r="5"/><circle cx="2136" cy="709" r="5"/><circle cx="2228" cy="676" r="5"/><circle cx="2293" cy="669" r="5"/><circle cx="2344" cy="692" r="6"/><circle cx="2425" cy="697" r="4"/><circle cx="2543" cy="650" r="5"/><circle cx="33" cy="777" r="4"/><circle cx="118" cy="758" r="5"/><circle cx="208" cy="798" r="6"/><circle cx="298" cy="788" r="5"/><circle cx="371" cy="730" r="6"/><circle cx="408" cy="727" r="5"/><circle cx="516" cy="766" r="6"/><circle cx="561" cy="799" r="4"/><circle cx="648" cy="762" r="5"/><circle cx="770" cy="753" r="5"/><circle cx="850" cy="764" r="5"/><circle cx="932" cy="735" r="5"/><circle cx="981" cy="777" r="6"/><circle cx="1080" cy="730" r="5"/><circle cx="1137" cy="736" r="5"/><circle cx="1236" cy="795" r="4"/><circle cx="1291" cy="732" r="5"/><circle cx="1367" cy="738" r="5"/><circle cx="1515" cy="788" r="5"/><circle cx="1565" cy="788" r="6"/><circle cx="1623" cy="764" r="5"/><circle cx="1737" cy="764" r="6"/><circle cx="1813" cy="762" r="4"/><circle cx="1866" cy="768" r="6"/><circle cx="1945" cy="768" r="5"/><circle cx="2027" cy="751" r="5"/><circle cx="2112" cy="755" r="4"/><circle cx="2212" cy="730" r="6"/><circle cx="2296" cy="767" r="4"/><circle cx="2330" cy="722" r="6"/><circle cx="2425" cy="789" r="6"/><circle cx="2546" cy="786" r="5"/><circle cx="74" cy="870" r="5"/><circle cx="114" cy="875" r="4"/><circle cx="164" cy="843" r="4"/><circle cx="295" cy="830" r="5"/><circle cx="382" cy="814" r="5"/><circle cx="454" cy="838" r="5"/><circle cx="520" cy="814" r="4"/><circle cx="563" cy="837" r="6"/><circle cx="690" cy="871" r="5"/><circle cx="730" cy="876" r="5"/><circle cx="862" cy="817" r="4"/><circle cx="926" cy="852" r="6"/><circle cx="967" cy="826" r="5"/><circle cx="1093" cy="802" r="5"/><circle cx="1184" cy="818" r="5"/><circle cx="1248" cy="824" r="6"/><circle cx="1282" cy="813" r="4"/><circle cx="1378" cy="818" r="4"/><circle cx="1497" cy="824" r="4"/><circle cx="1592" cy="877" r="5"/><circle cx="1680" cy="864" r="4"/><circle cx="1739" cy="811" r="4"/><circle cx="1792" cy="846" r="6"/><circle cx="1863" cy="825" r="4"/><circle cx="1947" cy="875" r="5"/><circle cx="2018" cy="865" r="5"/><circle cx="2101" cy="828" r="6"/><circle cx="2196" cy="860" r="5"/><circle cx="2250" cy="866" r="6"/><circle cx="2351" cy="874" r="6"/><circle cx="2426" cy="817" r="5"/><circle cx="2516" cy="809" r="4"/><circle cx="43" cy="916" r="4"/><circle cx="132" cy="902" r="5"/><circle cx="204" cy="898" r="6"/><circle cx="312" cy="942" r="5"/><circle cx="384" cy="895" r="6"/><circle cx="435" cy="886" r="6"/><circle cx="500" cy="948" r="4"/><circle cx="617" cy="883" r="6"/><circle cx="658" cy="907" r="5"/><circle cx="788" cy="942" r="4"/><circle cx="808" cy="948" r="5"/><circle cx="919" cy="884" r="4"/><circle cx="1002" cy="885" r="5"/><circle cx="1045" cy="889" r="5"/><circle cx="1170" cy="914" r="5"/><circle cx="1254" cy="909" r="6"/><circle cx="1324" cy="909" r="4"/><circle cx="1421" cy="897" r="6"/><circle cx="1490" cy="928" r="4"/><circle cx="1597" cy="905" r="5"/><circle cx="1606" cy="944" r="5"/><circle cx="1710" cy="952" r="6"/><circle cx="1774" cy="899" r="4"/><circle cx="1876" cy="906" r="4"/><circle cx="1983" cy="932" r="5"/><circle cx="2010" cy="923" r="4"/><circle cx="2138" cy="887" r="6"/><circle cx="2167" cy="937" r="5"/><circle cx="2251" cy="897" r="6"/><circle cx="2370" cy="904" r="4"/><circle cx="2418" cy="919" r="5"/><circle cx="2516" cy="958" r="6"/><circle cx="45" cy="989" r="5"/><circle cx="115" cy="982" r="5"/><circle cx="175" cy="1002" r="4"/><circle cx="262" cy="1012" r="5"/><circle cx="337" cy="989" r="4"/><circle cx="453" cy="961" r="5"/><circle cx="540" cy="1012" r="6"/><circle cx="611" cy="978" r="4"/><circle cx="686" cy="1020" r="4"/><circle cx="744" cy="971" r="5"/><circle cx="873" cy="986" r="6"/><circle cx="893" cy="1016" r="6"/><circle cx="968" cy="975" r="4"/><circle cx="1078" cy="1017" r="5"/><circle cx="1143" cy="1020" r="6"/><circle cx="1211" cy="1032" r="5"/><circle cx="1287" cy="1000" r="6"/><circle cx="1364" cy="1015" r="6"/><circle cx="1445" cy="1026" r="4"/><circle cx="1579" cy="1037" r="4"/><circle cx="1673" cy="1033" r="4"/><circle cx="1699" cy="963" r="5"/><circle cx="1822" cy="1002" r="4"/><circle cx="1866" cy="1031" r="5"/><circle cx="1987" cy="965" r="6"/><circle cx="2063" cy="1035" r="6"/><circle cx="2115" cy="1033" r="4"/><circle cx="2196" cy="984" r="4"/><circle cx="2267" cy="977" r="6"/><circle cx="2357" cy="978" r="4"/><circle cx="2465" cy="967" r="4"/><circle cx="2531" cy="1033" r="6"/><circle cx="1" cy="1041" r="5"/><circle cx="2561" cy="1041" r="5"/><circle cx="93" cy="1117" r="5"/><circle cx="223" cy="1071" r="5"/><circle cx="255" cy="1059" r="5"/><circle cx="341" cy="1064" r="4"/><circle cx="479" cy="1117" r="4"/><circle cx="543" cy="1102" r="6"/><circle cx="582" cy="1042" r="5"/><circle cx="667" cy="1101" r="4"/><circle cx="755" cy="1083" r="5"/><circle cx="871" cy="1041" r="4"/><circle cx="934" cy="1080" r="5"/><circle cx="971" cy="1055" r="5"/><circle cx="1114" cy="1087" r="6"/><circle cx="1127" cy="1065" r="5"/><circle cx="1214" cy="1069" r="5"/><circle cx="1286" cy="1113" r="6"/><circle cx="1429" cy="1040" r="4"/><circle cx="1512" cy="1106" r="5"/><circle cx="1538" cy="1118" r="5"/><circle cx="1615" cy="1086" r="6"/><circle cx="1706" cy="1103" r="5"/><circle cx="1764" cy="1093" r="5"/><circle cx="1906" cy="1075" r="4"/><circle cx="1960" cy="1087" r="4"/><circle cx="2036" cy="1096" r="6"/><circle cx="2111" cy="1117" r="5"/><circle cx="2226" cy="1051" r="5"/><circle cx="2273" cy="1076" r="6"/><circle cx="2322" cy="1088" r="6"/><circle cx="2480" cy="1083" r="5"/><circle cx="2553" cy="1071" r="4"/><circle cx="67" cy="1124" r="4"/><circle cx="119" cy="1151" r="5"/><circle cx="233" cy="1179" r="6"/><circle cx="286" cy="1132" r="6"/><circle cx="359" cy="1199" r="5"/><circle cx="473" cy="1157" r="4"/><circle cx="547" cy="1139" r="5"/><circle cx="600" cy="1163" r="5"/><circle cx="661" cy="1191" r="4"/><circle cx="740" cy="1166" r="5"/><circle cx="838" cy="1132" r="4"/><circle cx="945" cy="1142" r="5"/><circle cx="968" cy="1142" r="5"/><circle cx="1091" cy="1161" r="6"/><circle cx="1132" cy="1177" r="4"/><circle cx="1271" cy="1192" r="6"/><circle cx="1341" cy="1175" r="4"/><circle cx="1384" cy="1168" r="6"/><circle cx="1478" cy="1195" r="5"/><circle cx="1576" cy="1164" r="4"/><circle cx="1643" cy="1197" r="5"/><circle cx="1698" cy="1145" r="5"/><circle cx="1767" cy="1165" r="6"/><circle cx="1917" cy="1166" r="6"/><circle cx="1938" cy="1185" r="5"/><circle cx="2007" cy="1193" r="6"/><circle cx="2102" cy="1147" r="6"/><circle cx="2195" cy="1199" r="5"/><circle cx="2256" cy="1153" r="6"/><circle cx="2329" cy="1136" r="6"/><circle cx="2408" cy="1182" r="4"/><circle cx="2557" cy="1195" r="6"/><circle cx="-3" cy="1195" r="6"/><circle cx="36" cy="1218" r="5"/><circle cx="146" cy="1253" r="5"/><circle cx="216" cy="1238" r="4"/><circle cx="241" cy="1213" r="4"/><circle cx="379" cy="1271" r="5"/><circle cx="426" cy="1203" r="6"/><circle cx="489" cy="1236" r="5"/><circle cx="621" cy="1263" r="4"/><circle cx="696" cy="1251" r="4"/><circle cx="740" cy="1205" r="5"/><circle cx="855" cy="1229" r="4"/><circle cx="959" cy="1217" r="5"/><circle cx="980" cy="1266" r="4"/><circle cx="1105" cy="1226" r="5"/><circle cx="1170" cy="1228" r="6"/><circle cx="1262" cy="1268" r="5"/><circle cx="1302" cy="1255" r="6"/><circle cx="1386" cy="1226" r="6"/><circle cx="1504" cy="1203" r="6"/><circle cx="1564" cy="1212" r="5"/><circle cx="1639" cy="1249" r="4"/><circle cx="1739" cy="1201" r="6"/><circle cx="1774" cy="1224" r="5"/><circle cx="1914" cy="1214" r="5"/><circle cx="1962" cy="1227" r="6"/><circle cx="2056" cy="1260" r="4"/><circle cx="2096" cy="1230" r="4"/><circle cx="2204" cy="1239" r="5"/><circle cx="2292" cy="1227" r="6"/><circle cx="2328" cy="1228" r="5"/><circle cx="2427" cy="1262" r="6"/><circle cx="2517" cy="1266" r="6"/><circle cx="50" cy="1338" r="5"/><circle cx="109" cy="1293" r="4"/><circle cx="193" cy="1329" r="6"/><circle cx="251" cy="1288" r="6"/><circle cx="377" cy="1317" r="5"/><circle cx="436" cy="1287" r="6"/><circle cx="550" cy="1332" r="6"/><circle cx="623" cy="1299" r="4"/><circle cx="646" cy="1325" r="5"/><circle cx="721" cy="1324" r="4"/><circle cx="810" cy="1291" r="5"/><circle cx="947" cy="1325" r="5"/><circle cx="968" cy="1283" r="5"/><circle cx="1084" cy="1328" r="5"/><circle cx="1149" cy="1292" r="4"/><circle cx="1256" cy="1347" r="6"/><circle cx="1285" cy="1298" r="6"/><circle cx="1391" cy="1308" r="6"/><circle cx="1466" cy="1304" r="6"/><circle cx="1559" cy="1291" r="5"/><circle cx="1649" cy="1349" r="5"/><circle cx="1691" cy="1331" r="6"/><circle cx="1827" cy="1295" r="4"/><circle cx="1872" cy="1306" r="5"/><circle cx="1935" cy="1306" r="4"/><circle cx="2007" cy="1281" r="6"/><circle cx="2094" cy="1340" r="6"/><circle cx="2221" cy="1291" r="5"/><circle cx="2306" cy="1316" r="5"/><circle cx="2370" cy="1338" r="4"/><circle cx="2462" cy="1304" r="6"/><circle cx="2515" cy="1290" r="6"/><circle cx="44" cy="1433" r="6"/><circle cx="109" cy="1364" r="6"/><circle cx="221" cy="1409" r="5"/><circle cx="253" cy="1371" r="6"/><circle cx="336" cy="1378" r="5"/><circle cx="428" cy="1377" r="6"/><circle cx="505" cy="1419" r="6"/><circle cx="565" cy="1411" r="5"/><circle cx="716" cy="1365" r="5"/><circle cx="764" cy="1402" r="4"/><circle cx="809" cy="1420" r="5"/><circle cx="918" cy="1430" r="6"/><circle cx="979" cy="1415" r="4"/><circle cx="1046" cy="1400" r="5"/><circle cx="1178" cy="1428" r="6"/><circle cx="1243" cy="1378" r="6"/><circle cx="1334" cy="1393" r="6"/><circle cx="1376" cy="1420" r="5"/><circle cx="1457" cy="1360" r="6"/><circle cx="1575" cy="1435" r="6"/><circle cx="1575" cy="-5" r="6"/><circle cx="1642" cy="1373" r="6"/><circle cx="1714" cy="1379" r="5"/><circle cx="1786" cy="1364" r="5"/><circle cx="1876" cy="1375" r="4"/><circle cx="1988" cy="1370" r="6"/><circle cx="2030" cy="1415" r="6"/><circle cx="2133" cy="1417" r="5"/><circle cx="2200" cy="1378" r="6"/><circle cx="2310" cy="1414" r="4"/><circle cx="2367" cy="1423" r="5"/><circle cx="2432" cy="1403" r="5"/><circle cx="2534" cy="1376" r="5"/><path stroke="#fff" d="M59 78L88 56M59 78L53 114M59 78L107 94M59 78L44 -7M59 1518L44 1433M88 56L53 114M88 56L107 94M88 56L44 -7M88 1496L44 1433M232 76L284 5M232 76L326 39M232 76L186 150M232 76L282 134M232 76L221 -31M232 1516L221 1409M284 5L326 39M284 5L221 -31M284 5L253 -69M284 5L336 -62M284 1445L221 1409M284 1445L253 1371M284 1445L336 1378M326 39L422 62M326 39L282 134M326 39L336 -62M326 1479L336 1378M422 62L368 155M422 62L456 151M422 62L496 80M535 24L614 53M535 24L496 80M535 24L596 89M535 24L505 -21M535 24L565 -29M535 1464L505 1419M535 1464L565 1411M614 53L660 23M614 53L596 89M614 53L648 93M614 53L565 -29M614 1493L565 1411M660 23L738 6M660 23L596 89M660 23L648 93M660 23L565 -29M660 1463L565 1411M738 6L814 55M738 6L716 -75M738 6L764 -38M738 6L809 -20M738 1446L716 1365M738 1446L764 1402M738 1446L809 1420M814 55L793 89M814 55L868 128M814 55L809 -20M814 1495L809 1420M930 21L1025 1M930 21L911 83M930 21L918 -10M930 21L979 -25M930 1461L918 1430M930 1461L979 1415M1025 1L1111 34M1025 1L1043 88M1025 1L979 -25M1025 1L1046 -40M1025 1441L979 1415M1025 1441L1046 1400M1111 34L1168 34M1111 34L1043 88M1111 34L1046 -40M1111 34L1178 -12M1111 1474L1046 1400M1111 1474L1178 1428M1168 34L1249 31M1168 34L1178 -12M1168 1474L1178 1428M1249 31L1352 22M1249 31L1271 110M1249 31L1178 -12M1249 31L1243 -62M1249 1471L1178 1428M1249 1471L1243 1378M1352 22L1389 27M1352 22L1334 -47M1352 22L1376 -20M1352 1462L1334 1393M1352 1462L1376 1420M1389 27L1340 130M1389 27L1461 85M1389 27L1334 -47M1389 27L1376 -20M1389 1467L1334 1393M1389 1467L1376 1420M1512 65L1545 42M1512 65L1603 32M1512 65L1461 85M1512 65L1533 115M1512 65L1575 -5M1512 1505L1575 1435M1545 42L1603 32M1545 42L1533 115M1545 42L1575 -5M1545 1482L1575 1435M1603 32L1687 37M1603 32L1575 -5M1603 32L1642 -67M1603 1472L1575 1435M1603 1472L1642 1373M1687 37L1771 42M1687 37L1575 -5M1687 37L1714 -61M1687 1477L1575 1435M1687 1477L1714 1379M1771 42L1888 61M1771 42L1790 107M1771 42L1844 118M1888 61L1933 75M1888 61L1790 107M1888 61L1844 118M1888 61L1953 94M1933 75L1844 118M1933 75L1953 94M1933 75L1929 188M2034 9L2093 5M2034 9L1988 -70M2034 9L2030 -25M2034 1449L1988 1370M2034 1449L2030 1415M2093 5L2190 71M2093 5L2094 -100M2093 5L2030 -25M2093 5L2133 -23M2093 1445L2094 1340M2093 1445L2030 1415M2093 1445L2133 1417M2190 71L2288 20M2190 71L2154 132M2190 71L2189 131M2190 71L2133 -23M2190 1511L2133 1417M2288 20L2364 72M2288 20L2352 105M2288 20L2310 -26M2288 20L2367 -17M2288 1460L2310 1414M2288 1460L2367 1423M2364 72L2304 146M2364 72L2352 105M2364 72L2416 120M2364 72L2367 -17M2364 1512L2367 1423M2479 58L2490 54M2479 58L2416 120M2479 58L2537 135M2479 58L2432 -37M2479 1498L2432 1403M2490 54L2416 120M2490 54L2537 135M2490 54L2432 -37M2490 1494L2432 1403M53 114L107 94M53 114L-23 135M53 114L50 202M2613 114L2537 135M107 94L186 150M186 150L124 223M186 150L172 239M282 134L368 155M282 134L274 216M282 134L339 173M368 155L456 151M368 155L339 173M368 155L466 183M456 151L496 80M456 151L466 183M496 80L596 89M496 80L505 -21M496 1520L505 1419M596 89L648 93M648 93L663 204M793 89L868 128M793 89L801 202M793 89L809 -20M793 1529L809 1420M868 128L911 83M868 128L967 144M868 128L934 167M911 83L967 144M911 83L934 167M911 83L918 -10M911 1523L918 1430M967 144L1043 88M967 144L934 167M967 144L1024 218M1175 151L1271 110M1175 151L1085 199M1175 151L1142 234M1175 151L1234 174M1271 110L1340 130M1271 110L1234 174M1340 130L1426 153M1340 130L1234 174M1340 130L1428 197M1426 153L1461 85M1426 153L1428 197M1426 153L1475 161M1461 85L1533 115M1461 85L1475 161M1533 115L1475 161M1533 115L1557 195M1612 127L1712 159M1612 127L1557 195M1612 127L1605 161M1712 159L1790 107M1712 159L1687 232M1790 107L1844 118M1844 118L1897 205M1953 94L2040 141M1953 94L1929 188M2040 141L2154 132M2040 141L2002 181M2040 141L2091 193M2154 132L2189 131M2154 132L2091 193M2304 146L2352 105M2304 146L2416 120M2304 146L2317 222M2304 146L2358 207M2352 105L2416 120M2352 105L2358 207M2537 135L2546 186M50 202L124 223M50 202L-14 186M50 202L98 267M2610 202L2546 186M124 223L172 239M124 223L98 267M124 223L195 263M172 239L98 267M172 239L195 263M172 239L242 304M274 216L339 173M274 216L195 263M274 216L242 304M274 216L346 281M466 183L526 238M466 183L564 207M466 183L445 271M526 238L564 207M526 238L445 271M526 238L556 255M526 238L581 261M564 207L663 204M564 207L556 255M564 207L581 261M663 204L761 220M663 204L581 261M663 204L707 254M761 220L801 202M761 220L707 254M761 220L745 305M761 220L864 267M801 202L707 254M801 202L745 305M801 202L864 267M934 167L1024 218M1024 218L1085 199M1024 218L964 277M1024 218L1076 286M1085 199L1142 234M1085 199L1076 286M1142 234L1076 286M1142 234L1163 263M1234 174L1293 236M1234 174L1282 242M1293 236L1282 242M1293 236L1318 326M1428 197L1475 161M1428 197L1510 275M1475 161L1557 195M1557 195L1605 161M1557 195L1543 245M1605 161L1687 232M1605 161L1543 245M1605 161L1657 246M1687 232L1657 246M1687 232L1710 319M1687 232L1804 259M1835 236L1897 205M1835 236L1929 188M1835 236L1804 259M1835 236L1849 309M1897 205L1929 188M1897 205L2002 181M1929 188L2002 181M2002 181L2091 193M2002 181L2008 254M2091 193L2008 254M2091 193L2130 253M2209 236L2130 253M2209 236L2173 298M2209 236L2272 281M2317 222L2358 207M2317 222L2272 281M2317 222L2372 259M2358 207L2428 238M2358 207L2372 259M2428 238L2372 259M2428 238L2459 303M2428 238L2518 261M2428 238L2384 321M2546 186L2518 261M0 300L98 267M0 300L-42 261M0 300L32 385M0 300L-44 322M2560 300L2518 261M2560 300L2516 322M195 263L242 304M195 263L204 344M242 304L204 344M242 304L252 360M346 281L445 271M346 281L363 321M445 271L363 321M445 271L421 361M556 255L581 261M581 261L707 254M707 254L745 305M745 305L791 370M864 267L906 305M864 267L950 320M906 305L964 277M906 305L839 392M906 305L950 320M906 305L960 334M964 277L950 320M964 277L960 334M1076 286L1163 263M1076 286L1098 327M1163 263L1211 312M1163 263L1098 327M1163 263L1165 344M1211 312L1282 242M1211 312L1098 327M1211 312L1165 344M1211 312L1275 354M1282 242L1275 354M1282 242L1318 326M1402 309L1318 326M1402 309L1387 389M1510 275L1543 245M1510 275L1540 375M1543 245L1657 246M1657 246L1710 319M1657 246L1608 349M1710 319L1608 349M1710 319L1749 377M1710 319L1788 374M1804 259L1849 309M1849 309L1788 374M1849 309L1880 381M1849 309L1835 418M1980 307L2008 254M1980 307L1974 362M1980 307L2057 355M2008 254L1974 362M2130 253L2173 298M2130 253L2133 356M2173 298L2133 356M2173 298L2190 348M2173 298L2271 338M2272 281L2271 338M2372 259L2384 321M2459 303L2518 261M2459 303L2384 321M2459 303L2431 334M2459 303L2516 322M2518 261L2516 322M32 385L-44 322M32 385L20 451M32 385L112 407M2592 385L2516 322M154 372L204 344M154 372L252 360M154 372L112 407M154 372L164 431M204 344L252 360M204 344L164 431M252 360L164 431M252 360L284 471M363 321L421 361M363 321L399 407M421 361L492 399M421 361L399 407M421 361L458 424M492 399L564 393M492 399L399 407M492 399L458 424M492 399L548 409M564 393L653 393M564 393L548 409M564 393L585 456M564 393L642 419M653 393L642 419M791 370L839 392M791 370L797 442M791 370L815 428M839 392L797 442M839 392L815 428M950 320L960 334M950 320L954 431M960 334L954 431M1098 327L1165 344M1098 327L1075 407M1165 344L1275 354M1165 344L1075 407M1275 354L1318 326M1275 354L1327 409M1318 326L1327 409M1387 389L1327 409M1387 389L1425 474M1501 393L1540 375M1501 393L1608 349M1501 393L1454 471M1501 393L1541 423M1540 375L1608 349M1540 375L1541 423M1608 349L1541 423M1749 377L1788 374M1749 377L1715 462M1749 377L1835 418M1788 374L1880 381M1788 374L1835 418M1880 381L1974 362M1880 381L1835 418M1880 381L1846 478M1974 362L2057 355M2057 355L2133 356M2057 355L2144 421M2133 356L2190 348M2133 356L2144 421M2190 348L2271 338M2190 348L2144 421M2190 348L2219 415M2271 338L2384 321M2271 338L2219 415M2384 321L2431 334M2431 334L2516 322M2431 334L2440 418M2431 334L2484 434M20 451L112 407M20 451L-76 434M20 451L75 490M2580 451L2484 434M112 407L164 431M112 407L75 490M164 431L75 490M284 471L189 539M284 471L314 482M284 471L332 491M399 407L458 424M399 407L314 482M458 424L548 409M458 424L477 496M548 409L585 456M548 409L642 419M585 456L642 419M585 456L516 505M585 456L624 536M797 442L815 428M797 442L781 503M797 442L849 500M815 428L781 503M815 428L849 500M954 431L1006 467M954 431L949 490M954 431L1012 515M1006 467L1075 407M1006 467L949 490M1006 467L1012 515M1192 457L1204 472M1192 457L1133 521M1192 457L1273 489M1204 472L1105 532M1204 472L1133 521M1204 472L1273 489M1204 472L1214 595M1327 409L1273 489M1425 474L1454 471M1425 474L1396 506M1425 474L1498 543M1425 474L1400 565M1454 471L1541 423M1454 471L1396 506M1454 471L1498 543M1541 423L1574 507M1657 465L1715 462M1657 465L1574 507M1657 465L1627 543M1657 465L1756 533M1715 462L1756 533M1715 462L1768 533M1835 418L1846 478M1846 478L1929 470M1846 478L1768 533M1846 478L1893 534M1929 470L2022 477M1929 470L1893 534M1929 470L1953 525M2022 477L1953 525M2022 477L2022 505M2022 477L1992 583M2144 421L2219 415M2144 421L2174 514M2219 415L2278 461M2219 415L2264 487M2278 461L2378 423M2278 461L2264 487M2278 461L2351 488M2378 423L2440 418M2378 423L2484 434M2378 423L2351 488M2440 418L2484 434M2440 418L2351 488M2440 418L2421 527M2484 434L2421 527M75 490L131 552M75 490L27 581M131 552L189 539M131 552L114 595M131 552L113 645M189 539L114 595M189 539L182 633M314 482L332 491M477 496L516 505M477 496L424 573M477 496L493 577M516 505L424 573M516 505L493 577M624 536L669 538M624 536L581 596M624 536L652 599M669 538L781 503M669 538L652 599M781 503L849 500M849 500L949 490M849 500L903 594M949 490L1012 515M949 490L903 594M1012 515L1105 532M1012 515L1059 591M1105 532L1133 521M1105 532L1059 591M1105 532L1175 622M1273 489L1352 542M1273 489L1214 595M1352 542L1396 506M1352 542L1327 632M1352 542L1400 565M1396 506L1400 565M1498 543L1574 507M1498 543L1400 565M1498 543L1505 590M1574 507L1627 543M1574 507L1505 590M1627 543L1581 634M1627 543L1655 613M1627 543L1703 604M1756 533L1768 533M1756 533L1703 604M1756 533L1805 604M1768 533L1703 604M1768 533L1805 604M1893 534L1953 525M1893 534L1875 636M1953 525L2022 505M1953 525L1992 583M2022 505L1992 583M2022 505L2009 605M2022 505L2087 569M2141 538L2174 514M2141 538L2087 569M2141 538L2190 571M2174 514L2264 487M2174 514L2087 569M2174 514L2190 571M2264 487L2351 488M2264 487L2190 571M2351 488L2421 527M2421 527L2512 552M2512 552L2587 581M2512 552L2469 626M2512 552L2484 624M2512 552L2543 650M-48 552L27 581M27 581L114 595M27 581L3 666M27 581L-17 650M2587 581L2543 650M114 595L182 633M114 595L113 645M182 633L267 628M182 633L113 645M182 633L175 672M267 628L337 616M267 628L175 672M267 628L294 717M337 616L424 573M337 616L373 646M424 573L493 577M424 573L373 646M493 577L581 596M493 577L566 674M581 596L652 599M581 596L553 691M581 596L566 674M652 599L682 678M767 639L811 631M767 639L682 678M767 639L764 672M767 639L813 701M767 639L770 753M811 631L903 594M811 631L764 672M811 631L813 701M811 631L898 702M903 594L994 625M903 594L898 702M994 625L1059 591M994 625L1031 658M994 625L1083 643M1059 591L1031 658M1059 591L1083 643M1175 622L1214 595M1175 622L1083 643M1175 622L1175 715M1175 622L1212 715M1327 632L1357 708M1400 565L1435 666M1505 590L1581 634M1505 590L1435 666M1505 590L1457 655M1581 634L1655 613M1581 634L1579 710M1581 634L1648 690M1655 613L1703 604M1655 613L1648 690M1655 613L1692 702M1805 604L1875 636M1805 604L1869 669M1875 636L1869 669M1992 583L2009 605M1992 583L2087 569M2009 605L2087 569M2009 605L1999 691M2009 605L2066 709M2279 633L2360 626M2279 633L2228 676M2279 633L2293 669M2279 633L2344 692M2279 633L2330 722M2360 626L2293 669M2360 626L2344 692M2360 626L2425 697M2360 626L2330 722M2469 626L2484 624M2469 626L2563 666M2469 626L2425 697M2469 626L2543 650M-91 626L3 666M2484 624L2563 666M2484 624L2543 650M-76 624L3 666M3 666L-17 650M2563 666L2543 650M113 645L175 672M113 645L118 758M175 672L118 758M294 717L298 788M294 717L371 730M373 646L431 712M373 646L371 730M373 646L408 727M431 712L371 730M431 712L408 727M553 691L566 674M553 691L516 766M682 678L764 672M682 678L648 762M682 678L770 753M764 672L813 701M764 672L770 753M813 701L770 753M813 701L850 764M898 702L850 764M898 702L932 735M898 702L981 777M1031 658L1083 643M1031 658L1080 730M1083 643L1080 730M1175 715L1212 715M1175 715L1080 730M1175 715L1137 736M1175 715L1184 818M1212 715L1137 736M1212 715L1236 795M1212 715L1291 732M1357 708L1435 666M1357 708L1457 655M1357 708L1291 732M1357 708L1367 738M1435 666L1457 655M1435 666L1367 738M1457 655L1367 738M1579 710L1648 690M1579 710L1515 788M1579 710L1565 788M1579 710L1623 764M1648 690L1692 702M1648 690L1623 764M1692 702L1788 714M1692 702L1623 764M1692 702L1737 764M1788 714L1869 669M1788 714L1737 764M1788 714L1813 762M1788 714L1866 768M1869 669L1866 768M1999 691L2066 709M1999 691L1945 768M1999 691L2027 751M2066 709L2136 709M2066 709L2027 751M2066 709L2112 755M2136 709L2228 676M2136 709L2112 755M2136 709L2212 730M2228 676L2293 669M2228 676L2212 730M2293 669L2344 692M2293 669L2330 722M2344 692L2425 697M2344 692L2330 722M2425 697L2425 789M33 777L118 758M33 777L-14 786M33 777L74 870M33 777L-44 809M2593 777L2546 786M2593 777L2516 809M118 758L208 798M118 758L164 843M208 798L298 788M208 798L164 843M208 798L295 830M208 798L204 898M298 788L295 830M371 730L408 727M371 730L382 814M516 766L561 799M516 766L454 838M516 766L520 814M516 766L563 837M561 799L648 762M561 799L520 814M561 799L563 837M561 799L617 883M648 762L563 837M648 762L690 871M770 753L850 764M850 764L932 735M850 764L862 817M932 735L981 777M932 735L967 826M981 777L926 852M981 777L967 826M981 777L1002 885M1080 730L1137 736M1080 730L1093 802M1137 736L1093 802M1137 736L1184 818M1236 795L1291 732M1236 795L1184 818M1236 795L1248 824M1236 795L1282 813M1291 732L1367 738M1291 732L1282 813M1367 738L1378 818M1515 788L1565 788M1515 788L1497 824M1515 788L1592 877M1565 788L1623 764M1565 788L1497 824M1565 788L1592 877M1737 764L1813 762M1737 764L1739 811M1737 764L1792 846M1813 762L1866 768M1813 762L1792 846M1813 762L1863 825M1866 768L1945 768M1866 768L1863 825M1945 768L2027 751M1945 768L1863 825M2027 751L2112 755M2027 751L2101 828M2112 755L2212 730M2112 755L2101 828M2212 730L2296 767M2296 767L2330 722M2425 789L2546 786M2425 789L2426 817M2425 789L2516 809M2546 786L2516 809M74 870L114 875M74 870L43 916M74 870L132 902M114 875L164 843M114 875L43 916M114 875L132 902M114 875L204 898M164 843L132 902M164 843L204 898M295 830L382 814M295 830L204 898M382 814L454 838M382 814L384 895M382 814L435 886M454 838L520 814M454 838L384 895M454 838L435 886M520 814L563 837M563 837L617 883M690 871L730 876M690 871L617 883M690 871L658 907M730 876L658 907M730 876L788 942M730 876L808 948M730 876L744 971M862 817L926 852M862 817L919 884M926 852L967 826M926 852L919 884M926 852L1002 885M967 826L919 884M967 826L1002 885M1093 802L1184 818M1093 802L1045 889M1184 818L1248 824M1248 824L1282 813M1248 824L1254 909M1248 824L1324 909M1282 813L1378 818M1282 813L1254 909M1378 818L1421 897M1497 824L1421 897M1497 824L1490 928M1592 877L1680 864M1592 877L1597 905M1592 877L1606 944M1680 864L1739 811M1680 864L1597 905M1680 864L1710 952M1680 864L1699 963M1739 811L1792 846M1739 811L1774 899M1792 846L1863 825M1792 846L1774 899M1863 825L1876 906M1947 875L2018 865M1947 875L1876 906M1947 875L1983 932M1947 875L2010 923M1947 875L1987 965M2018 865L2101 828M2018 865L1983 932M2018 865L2010 923M2018 865L1987 965M2101 828L2196 860M2101 828L2138 887M2196 860L2250 866M2196 860L2138 887M2196 860L2167 937M2196 860L2251 897M2250 866L2351 874M2250 866L2138 887M2250 866L2251 897M2351 874L2426 817M2351 874L2251 897M2351 874L2370 904M2351 874L2418 919M2426 817L2516 809M2426 817L2370 904M43 916L-44 958M43 916L45 989M2603 916L2516 958M132 902L204 898M132 902L115 982M312 942L384 895M312 942L262 1012M312 942L337 989M384 895L435 886M384 895L453 961M435 886L500 948M435 886L453 961M500 948L453 961M500 948L540 1012M617 883L658 907M617 883L611 978M658 907L611 978M788 942L808 948M788 942L744 971M788 942L873 986M808 948L744 971M808 948L873 986M919 884L1002 885M1002 885L1045 889M1045 889L1170 914M1045 889L968 975M1170 914L1254 909M1254 909L1324 909M1254 909L1287 1000M1324 909L1421 897M1324 909L1364 1015M1421 897L1490 928M1490 928L1445 1026M1597 905L1606 944M1606 944L1710 952M1606 944L1579 1037M1606 944L1699 963M1710 952L1774 899M1710 952L1673 1033M1710 952L1699 963M1774 899L1876 906M1774 899L1699 963M1876 906L1822 1002M1983 932L2010 923M1983 932L1987 965M2010 923L1987 965M2138 887L2167 937M2167 937L2251 897M2167 937L2196 984M2251 897L2267 977M2370 904L2418 919M2370 904L2357 978M2418 919L2357 978M2418 919L2465 967M2516 958L2605 989M2516 958L2465 967M2516 958L2531 1033M2516 958L2561 1041M-44 958L45 989M-44 958L1 1041M45 989L115 982M45 989L-29 1033M45 989L1 1041M2605 989L2531 1033M115 982L175 1002M175 1002L262 1012M175 1002L223 1071M175 1002L255 1059M262 1012L337 989M262 1012L223 1071M262 1012L255 1059M337 989L453 961M337 989L341 1064M453 961L540 1012M540 1012L611 978M540 1012L543 1102M540 1012L582 1042M611 978L686 1020M611 978L582 1042M686 1020L744 971M686 1020L667 1101M686 1020L755 1083M744 971L755 1083M873 986L893 1016M873 986L968 975M873 986L871 1041M893 1016L968 975M893 1016L871 1041M893 1016L934 1080M893 1016L971 1055M968 975L1078 1017M968 975L971 1055M1078 1017L1143 1020M1078 1017L1114 1087M1078 1017L1127 1065M1143 1020L1211 1032M1143 1020L1114 1087M1143 1020L1127 1065M1143 1020L1214 1069M1211 1032L1287 1000M1211 1032L1127 1065M1211 1032L1214 1069M1287 1000L1364 1015M1287 1000L1214 1069M1287 1000L1286 1113M1364 1015L1445 1026M1364 1015L1429 1040M1445 1026L1429 1040M1579 1037L1673 1033M1579 1037L1615 1086M1673 1033L1699 963M1673 1033L1615 1086M1673 1033L1706 1103M1822 1002L1866 1031M1822 1002L1764 1093M1822 1002L1906 1075M1866 1031L1906 1075M1987 965L2063 1035M2063 1035L2115 1033M2063 1035L2036 1096M2063 1035L2111 1117M2063 1035L2102 1147M2115 1033L2196 984M2115 1033L2111 1117M2196 984L2267 977M2196 984L2226 1051M2267 977L2357 978M2267 977L2226 1051M2267 977L2273 1076M2357 978L2465 967M2357 978L2322 1088M2531 1033L2561 1041M2531 1033L2480 1083M2531 1033L2553 1071M-29 1033L1 1041M1 1041L-80 1083M1 1041L-7 1071M2561 1041L2480 1083M2561 1041L2553 1071M93 1117L-7 1071M93 1117L67 1124M93 1117L119 1151M93 1117L-3 1195M2653 1117L2553 1071M2653 1117L2557 1195M223 1071L255 1059M223 1071L233 1179M223 1071L286 1132M255 1059L341 1064M255 1059L286 1132M341 1064L286 1132M479 1117L543 1102M479 1117L473 1157M479 1117L547 1139M543 1102L582 1042M543 1102L547 1139M543 1102L600 1163M582 1042L547 1139M667 1101L755 1083M667 1101L600 1163M667 1101L740 1166M755 1083L740 1166M755 1083L838 1132M871 1041L934 1080M871 1041L838 1132M934 1080L971 1055M934 1080L945 1142M934 1080L968 1142M971 1055L945 1142M971 1055L968 1142M1114 1087L1127 1065M1114 1087L1091 1161M1114 1087L1132 1177M1127 1065L1214 1069M1214 1069L1286 1113M1286 1113L1271 1192M1286 1113L1341 1175M1286 1113L1384 1168M1512 1106L1538 1118M1512 1106L1478 1195M1512 1106L1504 1203M1538 1118L1615 1086M1538 1118L1576 1164M1538 1118L1504 1203M1615 1086L1706 1103M1615 1086L1576 1164M1706 1103L1764 1093M1706 1103L1698 1145M1706 1103L1767 1165M1764 1093L1698 1145M1764 1093L1767 1165M1764 1093L1739 1201M1906 1075L1960 1087M1960 1087L2036 1096M1960 1087L1917 1166M1960 1087L1938 1185M2036 1096L2111 1117M2036 1096L2102 1147M2111 1117L2102 1147M2226 1051L2273 1076M2226 1051L2322 1088M2273 1076L2322 1088M2273 1076L2256 1153M2273 1076L2329 1136M2322 1088L2256 1153M2322 1088L2329 1136M2480 1083L2553 1071M2553 1071L2627 1124M-7 1071L67 1124M67 1124L119 1151M67 1124L-3 1195M67 1124L36 1218M2627 1124L2557 1195M119 1151L36 1218M119 1151L146 1253M233 1179L286 1132M233 1179L216 1238M233 1179L241 1213M233 1179L251 1288M286 1132L359 1199M359 1199L379 1271M359 1199L426 1203M359 1199L377 1317M473 1157L547 1139M473 1157L426 1203M473 1157L489 1236M547 1139L600 1163M600 1163L661 1191M661 1191L740 1166M661 1191L621 1263M661 1191L696 1251M661 1191L740 1205M740 1166L740 1205M838 1132L945 1142M838 1132L855 1229M945 1142L968 1142M945 1142L959 1217M968 1142L1091 1161M968 1142L959 1217M1091 1161L1132 1177M1091 1161L1105 1226M1091 1161L1170 1228M1132 1177L1105 1226M1132 1177L1170 1228M1271 1192L1341 1175M1271 1192L1262 1268M1271 1192L1302 1255M1341 1175L1384 1168M1341 1175L1302 1255M1341 1175L1386 1226M1384 1168L1478 1195M1384 1168L1386 1226M1478 1195L1386 1226M1478 1195L1504 1203M1478 1195L1564 1212M1576 1164L1643 1197M1576 1164L1504 1203M1576 1164L1564 1212M1643 1197L1698 1145M1643 1197L1564 1212M1643 1197L1639 1249M1643 1197L1739 1201M1698 1145L1767 1165M1698 1145L1739 1201M1767 1165L1739 1201M1767 1165L1774 1224M1917 1166L1938 1185M1917 1166L2007 1193M1917 1166L1914 1214M1917 1166L1962 1227M1938 1185L2007 1193M1938 1185L1914 1214M1938 1185L1962 1227M2007 1193L1962 1227M2007 1193L2056 1260M2007 1193L2007 1281M2102 1147L2195 1199M2102 1147L2096 1230M2195 1199L2256 1153M2195 1199L2204 1239M2195 1199L2221 1291M2256 1153L2329 1136M2256 1153L2292 1227M2329 1136L2292 1227M2329 1136L2328 1228M2408 1182L2328 1228M2408 1182L2427 1262M2557 1195L2596 1218M2557 1195L2517 1266M2557 1195L2515 1290M-3 1195L36 1218M36 1218L-43 1266M2596 1218L2517 1266M146 1253L216 1238M146 1253L109 1293M146 1253L193 1329M216 1238L241 1213M216 1238L251 1288M241 1213L251 1288M379 1271L426 1203M379 1271L377 1317M379 1271L436 1287M379 1271L428 1377M426 1203L489 1236M426 1203L436 1287M489 1236L436 1287M621 1263L696 1251M621 1263L550 1332M621 1263L623 1299M621 1263L646 1325M696 1251L740 1205M696 1251L721 1324M740 1205L855 1229M740 1205L810 1291M855 1229L810 1291M959 1217L980 1266M959 1217L947 1325M959 1217L968 1283M980 1266L947 1325M980 1266L968 1283M980 1266L1084 1328M1105 1226L1170 1228M1105 1226L1084 1328M1105 1226L1149 1292M1170 1228L1262 1268M1170 1228L1149 1292M1262 1268L1302 1255M1262 1268L1256 1347M1262 1268L1285 1298M1302 1255L1386 1226M1302 1255L1285 1298M1386 1226L1391 1308M1504 1203L1564 1212M1564 1212L1559 1291M1639 1249L1559 1291M1639 1249L1691 1331M1739 1201L1774 1224M1774 1224L1827 1295M1914 1214L1962 1227M1914 1214L1872 1306M1914 1214L1935 1306M1962 1227L2007 1281M2056 1260L2096 1230M2056 1260L2007 1281M2056 1260L2094 1340M2096 1230L2204 1239M2204 1239L2292 1227M2204 1239L2221 1291M2292 1227L2328 1228M2292 1227L2306 1316M2328 1228L2306 1316M2427 1262L2517 1266M2427 1262L2370 1338M2427 1262L2462 1304M2427 1262L2515 1290M2517 1266L2462 1304M2517 1266L2515 1290M50 1338L109 1293M50 1338L44 1433M50 1338L109 1364M50 1338L-26 1376M2610 1338L2534 1376M109 1293L109 1364M193 1329L251 1288M193 1329L109 1364M193 1329L221 1409M193 1329L253 1371M251 1288L253 1371M377 1317L436 1287M377 1317L336 1378M377 1317L428 1377M436 1287L428 1377M550 1332L623 1299M550 1332L646 1325M550 1332L505 1419M550 1332L565 1411M623 1299L646 1325M646 1325L721 1324M646 1325L716 1365M721 1324L810 1291M721 1324L716 1365M721 1324L764 1402M810 1291L764 1402M947 1325L968 1283M947 1325L918 1430M947 1325L979 1415M1084 1328L1149 1292M1084 1328L1046 1400M1256 1347L1285 1298M1256 1347L1178 1428M1256 1347L1243 1378M1256 1347L1334 1393M1285 1298L1391 1308M1285 1298L1243 1378M1391 1308L1466 1304M1391 1308L1457 1360M1466 1304L1559 1291M1466 1304L1457 1360M1559 1291L1649 1349M1649 1349L1691 1331M1649 1349L1642 1373M1649 1349L1714 1379M1691 1331L1642 1373M1691 1331L1714 1379M1691 1331L1786 1364M1827 1295L1872 1306M1827 1295L1786 1364M1827 1295L1876 1375M1872 1306L1935 1306M1872 1306L1786 1364M1872 1306L1876 1375M1935 1306L2007 1281M1935 1306L1876 1375M1935 1306L1988 1370M2007 1281L1988 1370M2094 1340L1988 1370M2094 1340L2030 1415M2094 1340L2133 1417M2221 1291L2306 1316M2221 1291L2200 1378M2306 1316L2370 1338M2306 1316L2310 1414M2370 1338L2367 1423M2370 1338L2432 1403M2462 1304L2515 1290M2462 1304L2432 1403M2462 1304L2534 1376M2515 1290L2534 1376M44 1433L109 1364M44 1433L-26 1376M2604 1433L2534 1376M109 1364L221 1409M221 1409L253 1371M253 1371L336 1378M336 1378L428 1377M428 1377L505 1419M505 1419L565 1411M716 1365L764 1402M764 1402L809 1420M809 1420L918 1430M918 1430L979 1415M979 1415L1046 1400M1178 1428L1243 1378M1243 1378L1334 1393M1334 1393L1376 1420M1376 1420L1457 1360M1575 1435L1642 1373M1642 1373L1714 1379M1714 1379L1786 1364M1786 1364L1876 1375M1988 1370L2030 1415M2030 1415L2133 1417M2133 1417L2200 1378M2200 1378L2310 1414M2310 1414L2367 1423M2367 1423L2432 1403"/></svg>