<svg xmlns="http://www.w3.org/2000/svg" width="2560" height="1440" fill="#fff"><circle cx="74" cy="13" r="5"/><circle cx="106" cy="49" r="5"/><circle cx="178" cy="41" r="6"/><circle cx="261" cy="0" r="5"/><circle cx="261" cy="1440" r="5"/><circle cx="394" cy="7" r="4"/><circle cx="431" cy="45" r="5"/><circle cx="551" cy="9" r="4"/><circle cx="625" cy="7" r="4"/><circle cx="697" cy="6" r="6"/><circle cx="725" cy="61" r="5"/><circle cx="821" cy="72" r="4"/><circle cx="913" cy="42" r="5"/><circle cx="987" cy="35" r="5"/><circle cx="1104" cy="25" r="4"/><circle cx="1168" cy="41" r="5"/><circle cx="1271" cy="46" r="5"/><circle cx="1338" cy="25" r="5"/><circle cx="1411" cy="31" r="5"/><circle cx="1466" cy="79" r="4"/><circle cx="1558" cy="21" r="5"/><circle cx="1630" cy="14" r="6"/><circle cx="1712" cy="29" r="5"/><circle cx="1778" cy="23" r="5"/><circle cx="1848" cy="64" r="6"/><circle cx="1994" cy="78" r="6"/><circle cx="2054" cy="5" r="5"/><circle cx="2142" cy="4" r="4"/><circle cx="2142" cy="1444" r="4"/><circle cx="2190" cy="23" r="6"/><circle cx="2246" cy="59" r="4"/><circle cx="2334" cy="12" r="5"/><circle cx="2475" cy="4" r="5"/><circle cx="2475" cy="1444" r="5"/><circle cx="2499" cy="62" r="5"/><circle cx="55" cy="115" r="6"/><circle cx="135" cy="134" r="5"/><circle cx="226" cy="95" r="6"/><circle cx="315" cy="91" r="5"/><circle cx="358" cy="106" r="5"/><circle cx="464" cy="106" r="4"/><circle cx="500" cy="125" r="5"/><circle cx="600" cy="154" r="6"/><circle cx="708" cy="137" r="6"/><circle cx="797" cy="154" r="5"/><circle cx="827" cy="80" r="4"/><circle cx="896" cy="96" r="6"/><circle cx="1029" cy="87" r="6"/><circle cx="1105" cy="92" r="5"/><circle cx="1133" cy="97" r="4"/><circle cx="1277" cy="95" r="5"/><circle cx="1337" cy="122" r="6"/><circle cx="1419" cy="129" r="6"/><circle cx="1491" cy="123" r="5"/><circle cx="1600" cy="105" r="6"/><circle cx="1611" cy="142" r="5"/><circle cx="1685" cy="135" r="6"/><circle cx="1818" cy="116" r="4"/><circle cx="1890" cy="124" r="4"/><circle cx="1935" cy="106" r="5"/><circle cx="2049" cy="80" r="6"/><circle cx="2081" cy="125" r="4"/><circle cx="2217" cy="146" r="6"/><circle cx="2240" cy="96" r="5"/><circle cx="2391" cy="96" r="6"/><circle cx="2433" cy="99" r="4"/><circle cx="2514" cy="124" r="6"/><circle cx="41" cy="194" r="4"/><circle cx="128" cy="199" r="6"/><circle cx="220" cy="229" r="6"/><circle cx="294" cy="189" r="5"/><circle cx="366" cy="223" r="4"/><circle cx="426" cy="201" r="4"/><circle cx="521" cy="165" r="5"/><circle cx="560" cy="211" r="5"/><circle cx="705" cy="191" r="5"/><circle cx="790" cy="232" r="6"/><circle cx="869" cy="196" r="4"/><circle cx="930" cy="215" r="5"/><circle cx="1022" cy="176" r="5"/><circle cx="1075" cy="212" r="4"/><circle cx="1182" cy="194" r="6"/><circle cx="1250" cy="228" r="4"/><circle cx="1327" cy="207" r="6"/><circle cx="1389" cy="214" r="5"/><circle cx="1518" cy="197" r="4"/><circle cx="1544" cy="167" r="6"/><circle cx="1632" cy="198" r="5"/><circle cx="1704" cy="195" r="6"/><circle cx="1766" cy="206" r="4"/><circle cx="1860" cy="182" r="5"/><circle cx="1932" cy="166" r="5"/><circle cx="2042" cy="225" r="6"/><circle cx="2104" cy="162" r="5"/><circle cx="2189" cy="178" r="5"/><circle cx="2271" cy="215" r="5"/><circle cx="2391" cy="218" r="5"/><circle cx="2436" cy="235" r="4"/><circle cx="2499" cy="194" r="6"/><circle cx="26" cy="265" r="5"/><circle cx="121" cy="320" r="6"/><circle cx="218" cy="280" r="5"/><circle cx="289" cy="317" r="5"/><circle cx="333" cy="294" r="5"/><circle cx="403" cy="255" r="5"/><circle cx="545" cy="273" r="5"/><circle cx="638" cy="256" r="5"/><circle cx="659" cy="282" r="4"/><circle cx="770" cy="297" r="5"/><circle cx="810" cy="261" r="4"/><circle cx="898" cy="248" r="5"/><circle cx="1020" cy="246" r="4"/><circle cx="1079" cy="279" r="4"/><circle cx="1147" cy="288" r="5"/><circle cx="1219" cy="258" r="6"/><circle cx="1296" cy="290" r="5"/><circle cx="1380" cy="313" r="6"/><circle cx="1520" cy="255" r="5"/><circle cx="1525" cy="256" r="5"/><circle cx="1626" cy="256" r="6"/><circle cx="1748" cy="254" r="5"/><circle cx="1808" cy="274" r="6"/><circle cx="1851" cy="279" r="6"/><circle cx="1948" cy="250" r="4"/><circle cx="2017" cy="291" r="6"/><circle cx="2095" cy="270" r="5"/><circle cx="2174" cy="295" r="5"/><circle cx="2253" cy="251" r="6"/><circle cx="2369" cy="281" r="5"/><circle cx="2434" cy="276" r="6"/><circle cx="2518" cy="292" r="6"/><circle cx="65" cy="358" r="5"/><circle cx="151" cy="363" r="5"/><circle cx="166" cy="385" r="5"/><circle cx="264" cy="399" r="6"/><circle cx="384" cy="328" r="5"/><circle cx="412" cy="370" r="5"/><circle cx="542" cy="370" r="6"/><circle cx="599" cy="344" r="6"/><circle cx="650" cy="360" r="5"/><circle cx="762" cy="378" r="6"/><circle cx="824" cy="386" r="4"/><circle cx="904" cy="340" r="5"/><circle cx="1032" cy="363" r="5"/><circle cx="1086" cy="348" r="4"/><circle cx="1200" cy="339" r="5"/><circle cx="1233" cy="337" r="5"/><circle cx="1355" cy="375" r="6"/><circle cx="1430" cy="332" r="5"/><circle cx="1474" cy="331" r="5"/><circle cx="1564" cy="377" r="5"/><circle cx="1619" cy="340" r="5"/><circle cx="1711" cy="388" r="5"/><circle cx="1777" cy="377" r="5"/><circle cx="1910" cy="352" r="4"/><circle cx="1951" cy="382" r="6"/><circle cx="2023" cy="377" r="4"/><circle cx="2154" cy="345" r="4"/><circle cx="2231" cy="387" r="5"/><circle cx="2318" cy="361" r="5"/><circle cx="2345" cy="351" r="5"/><circle cx="2404" cy="382" r="5"/><circle cx="2553" cy="320" r="5"/><circle cx="19" cy="416" r="6"/><circle cx="134" cy="412" r="6"/><circle cx="181" cy="425" r="6"/><circle cx="250" cy="474" r="5"/><circle cx="396" cy="439" r="4"/><circle cx="404" cy="475" r="4"/><circle cx="551" cy="411" r="5"/><circle cx="565" cy="402" r="6"/><circle cx="681" cy="479" r="6"/><circle cx="798" cy="449" r="5"/><circle cx="859" cy="428" r="5"/><circle cx="888" cy="411" r="5"/><circle cx="1038" cy="470" r="6"/><circle cx="1073" cy="431" r="5"/><circle cx="1160" cy="457" r="4"/><circle cx="1214" cy="405" r="4"/><circle cx="1336" cy="442" r="4"/><circle cx="1386" cy="423" r="6"/><circle cx="1471" cy="432" r="5"/><circle cx="1575" cy="474" r="5"/><circle cx="1648" cy="407" r="5"/><circle cx="1704" cy="462" r="5"/><circle cx="1810" cy="418" r="5"/><circle cx="1911" cy="457" r="6"/><circle cx="1987" cy="459" r="5"/><circle cx="2014" cy="431" r="5"/><circle cx="2095" cy="435" r="5"/><circle cx="2216" cy="470" r="4"/><circle cx="2281" cy="434" r="4"/><circle cx="2386" cy="461" r="4"/><circle cx="2463" cy="425" r="4"/><circle cx="2496" cy="441" r="4"/><circle cx="62" cy="556" r="5"/><circle cx="158" cy="550" r="5"/><circle cx="218" cy="535" r="4"/><circle cx="248" cy="514" r="5"/><circle cx="372" cy="517" r="4"/><circle cx="432" cy="515" r="4"/><circle cx="503" cy="543" r="5"/><circle cx="627" cy="549" r="5"/><circle cx="687" cy="532" r="5"/><circle cx="731" cy="557" r="6"/><circle cx="851" cy="486" r="5"/><circle cx="943" cy="543" r="6"/><circle cx="1034" cy="490" r="4"/><circle cx="1107" cy="538" r="5"/><circle cx="1173" cy="555" r="5"/><circle cx="1222" cy="555" r="5"/><circle cx="1325" cy="492" r="4"/><circle cx="1416" cy="534" r="6"/><circle cx="1477" cy="527" r="5"/><circle cx="1548" cy="503" r="5"/><circle cx="1636" cy="525" r="4"/><circle cx="1759" cy="496" r="5"/><circle cx="1768" cy="552" r="5"/><circle cx="1902" cy="522" r="5"/><circle cx="1968" cy="515" r="5"/><circle cx="2043" cy="552" r="5"/><circle cx="2099" cy="533" r="5"/><circle cx="2201" cy="550" r="4"/><circle cx="2252" cy="554" r="4"/><circle cx="2348" cy="486" r="6"/><circle cx="2474" cy="500" r="6"/><circle cx="2483" cy="515" r="6"/><circle cx="11" cy="640" r="4"/><circle cx="105" cy="627" r="5"/><circle cx="221" cy="613" r="4"/><circle cx="248" cy="566" r="5"/><circle cx="321" cy="639" r="5"/><circle cx="433" cy="634" r="5"/><circle cx="532" cy="564" r="5"/><circle cx="620" cy="600" r="5"/><circle cx="676" cy="569" r="5"/><circle cx="742" cy="636" r="4"/><circle cx="826" cy="622" r="5"/><circle cx="920" cy="579" r="4"/><circle cx="995" cy="608" r="5"/><circle cx="1063" cy="636" r="5"/><circle cx="1152" cy="630" r="4"/><circle cx="1209" cy="568" r="4"/><circle cx="1283" cy="581" r="5"/><circle cx="1420" cy="614" r="5"/><circle cx="1476" cy="589" r="4"/><circle cx="1536" cy="583" r="4"/><circle cx="1627" cy="615" r="5"/><circle cx="1698" cy="617" r="5"/><circle cx="1778" cy="635" r="5"/><circle cx="1848" cy="580" r="5"/><circle cx="1929" cy="565" r="5"/><circle cx="2016" cy="571" r="5"/><circle cx="2085" cy="590" r="4"/><circle cx="2215" cy="617" r="5"/><circle cx="2264" cy="581" r="4"/><circle cx="2396" cy="611" r="5"/><circle cx="2475" cy="630" r="5"/><circle cx="2534" cy="571" r="6"/><circle cx="63" cy="665" r="5"/><circle cx="160" cy="694" r="5"/><circle cx="221" cy="644" r="6"/><circle cx="320" cy="706" r="6"/><circle cx="355" cy="664" r="5"/><circle cx="439" cy="640" r="4"/><circle cx="528" cy="714" r="6"/><circle cx="624" cy="703" r="5"/><circle cx="709" cy="714" r="6"/><circle cx="795" cy="645" r="5"/><circle cx="860" cy="659" r="5"/><circle cx="944" cy="650" r="4"/><circle cx="1002" cy="648" r="4"/><circle cx="1058" cy="645" r="4"/><circle cx="1199" cy="644" r="5"/><circle cx="1246" cy="697" r="6"/><circle cx="1312" cy="665" r="5"/><circle cx="1427" cy="680" r="5"/><circle cx="1491" cy="712" r="6"/><circle cx="1554" cy="668" r="6"/><circle cx="1661" cy="651" r="5"/><circle cx="1706" cy="651" r="4"/><circle cx="1812" cy="697" r="4"/><circle cx="1885" cy="713" r="5"/><circle cx="1969" cy="684" r="5"/><circle cx="2066" cy="647" r="5"/><circle cx="2107" cy="678" r="5"/><circle cx="2183" cy="642" r="5"/><circle cx="2288" cy="681" r="5"/><circle cx="2364" cy="665" r="5"/><circle cx="2411" cy="684" r="4"/><circle cx="2523" cy="659" r="6"/><circle cx="19" cy="727" r="6"/><circle cx="126" cy="782" r="5"/><circle cx="219" cy="774" r="5"/><circle cx="293" cy="773" r="6"/><circle cx="364" cy="748" r="5"/><circle cx="410" cy="787" r="6"/><circle cx="549" cy="754" r="6"/><circle cx="621" cy="768" r="5"/><circle cx="661" cy="723" r="6"/><circle cx="727" cy="748" r="4"/><circle cx="877" cy="740" r="4"/><circle cx="884" cy="734" r="4"/><circle cx="983" cy="795" r="5"/><circle cx="1047" cy="721" r="6"/><circle cx="1176" cy="773" r="6"/><circle cx="1218" cy="749" r="5"/><circle cx="1284" cy="775" r="5"/><circle cx="1378" cy="740" r="5"/><circle cx="1472" cy="781" r="6"/><circle cx="1589" cy="800" r="6"/><circle cx="1666" cy="734" r="5"/><circle cx="1729" cy="796" r="5"/><circle cx="1835" cy="786" r="6"/><circle cx="1870" cy="778" r="5"/><circle cx="1924" cy="738" r="4"/><circle cx="2014" cy="741" r="5"/><circle cx="2119" cy="748" r="6"/><circle cx="2170" cy="740" r="5"/><circle cx="2314" cy="798" r="5"/><circle cx="2386" cy="772" r="5"/><circle cx="2478" cy="790" r="5"/><circle cx="2511" cy="740" r="6"/><circle cx="60" cy="859" r="4"/><circle cx="132" cy="875" r="6"/><circle cx="187" cy="827" r="4"/><circle cx="244" cy="817" r="6"/><circle cx="349" cy="853" r="5"/><circle cx="467" cy="861" r="6"/><circle cx="559" cy="849" r="5"/><circle cx="572" cy="873" r="5"/><circle cx="701" cy="820" r="5"/><circle cx="752" cy="848" r="6"/><circle cx="870" cy="833" r="4"/><circle cx="956" cy="869" r="4"/><circle cx="965" cy="855" r="5"/><circle cx="1066" cy="874" r="5"/><circle cx="1145" cy="803" r="5"/><circle cx="1212" cy="873" r="5"/><circle cx="1295" cy="820" r="6"/><circle cx="1439" cy="860" r="5"/><circle cx="1440" cy="812" r="4"/><circle cx="1535" cy="830" r="5"/><circle cx="1643" cy="845" r="5"/><circle cx="1699" cy="858" r="5"/><circle cx="1824" cy="826" r="4"/><circle cx="1886" cy="819" r="4"/><circle cx="1979" cy="817" r="6"/><circle cx="2044" cy="837" r="4"/><circle cx="2125" cy="853" r="5"/><circle cx="2223" cy="876" r="6"/><circle cx="2279" cy="829" r="4"/><circle cx="2334" cy="810" r="4"/><circle cx="2459" cy="851" r="5"/><circle cx="2485" cy="817" r="4"/><circle cx="26" cy="892" r="4"/><circle cx="122" cy="886" r="5"/><circle cx="177" cy="915" r="5"/><circle cx="254" cy="888" r="5"/><circle cx="357" cy="917" r="5"/><circle cx="453" cy="901" r="6"/><circle cx="487" cy="957" r="5"/><circle cx="635" cy="895" r="5"/><circle cx="649" cy="881" r="5"/><circle cx="750" cy="904" r="5"/><circle cx="846" cy="949" r="5"/><circle cx="957" cy="885" r="6"/><circle cx="1007" cy="890" r="5"/><circle cx="1116" cy="932" r="5"/><circle cx="1174" cy="938" r="5"/><circle cx="1235" cy="897" r="5"/><circle cx="1360" cy="959" r="5"/><circle cx="1411" cy="892" r="5"/><circle cx="1510" cy="893" r="6"/><circle cx="1589" cy="888" r="4"/><circle cx="1619" cy="923" r="5"/><circle cx="1722" cy="939" r="6"/><circle cx="1761" cy="917" r="4"/><circle cx="1909" cy="923" r="5"/><circle cx="1938" cy="959" r="5"/><circle cx="2073" cy="887" r="6"/><circle cx="2144" cy="901" r="5"/><circle cx="2180" cy="895" r="5"/><circle cx="2288" cy="930" r="6"/><circle cx="2345" cy="909" r="5"/><circle cx="2423" cy="955" r="5"/><circle cx="2540" cy="903" r="5"/><circle cx="59" cy="987" r="4"/><circle cx="128" cy="1011" r="6"/><circle cx="212" cy="999" r="5"/><circle cx="260" cy="1005" r="6"/><circle cx="345" cy="990" r="4"/><circle cx="455" cy="978" r="6"/><circle cx="501" cy="992" r="5"/><circle cx="573" cy="1024" r="4"/><circle cx="664" cy="1012" r="4"/><circle cx="767" cy="984" r="5"/><circle cx="864" cy="1029" r="5"/><circle cx="930" cy="974" r="5"/><circle cx="1015" cy="978" r="5"/><circle cx="1052" cy="1027" r="5"/><circle cx="1152" cy="990" r="5"/><circle cx="1219" cy="1018" r="5"/><circle cx="1303" cy="1029" r="4"/><circle cx="1392" cy="1018" r="4"/><circle cx="1479" cy="986" r="5"/><circle cx="1521" cy="1016" r="6"/><circle cx="1675" cy="1001" r="6"/><circle cx="1701" cy="994" r="6"/><circle cx="1766" cy="1031" r="6"/><circle cx="1908" cy="1002" r="5"/><circle cx="1971" cy="992" r="6"/><circle cx="2032" cy="990" r="5"/><circle cx="2110" cy="972" r="5"/><circle cx="2182" cy="983" r="4"/><circle cx="2314" cy="1011" r="4"/><circle cx="2366" cy="1024" r="5"/><circle cx="2468" cy="1020" r="5"/><circle cx="2557" cy="1004" r="4"/><circle cx="-3" cy="1004" r="4"/><circle cx="21" cy="1113" r="6"/><circle cx="131" cy="1067" r="5"/><circle cx="197" cy="1075" r="5"/><circle cx="310" cy="1113" r="4"/><circle cx="343" cy="1071" r="5"/><circle cx="429" cy="1065" r="6"/><circle cx="481" cy="1071" r="5"/><circle cx="586" cy="1069" r="5"/><circle cx="687" cy="1118" r="6"/><circle cx="785" cy="1058" r="5"/><circle cx="835" cy="1053" r="4"/><circle cx="915" cy="1075" r="5"/><circle cx="1009" cy="1051" r="4"/><circle cx="1111" cy="1043" r="5"/><circle cx="1156" cy="1053" r="6"/><circle cx="1213" cy="1073" r="5"/><circle cx="1350" cy="1054" r="6"/><circle cx="1417" cy="1046" r="5"/><circle cx="1518" cy="1108" r="6"/><circle cx="1572" cy="1085" r="5"/><circle cx="1601" cy="1072" r="5"/><circle cx="1753" cy="1044" r="6"/><circle cx="1831" cy="1103" r="6"/><circle cx="1885" cy="1043" r="5"/><circle cx="1979" cy="1057" r="5"/><circle cx="2064" cy="1075" r="5"/><circle cx="2123" cy="1092" r="5"/><circle cx="2226" cy="1115" r="5"/><circle cx="2248" cy="1104" r="5"/><circle cx="2354" cy="1048" r="6"/><circle cx="2422" cy="1095" r="4"/><circle cx="2554" cy="1060" r="4"/><circle cx="69" cy="1176" r="5"/><circle cx="106" cy="1130" r="5"/><circle cx="214" cy="1185" r="4"/><circle cx="286" cy="1193" r="6"/><circle cx="400" cy="1148" r="5"/><circle cx="472" cy="1126" r="5"/><circle cx="540" cy="1193" r="5"/><circle cx="614" cy="1123" r="6"/><circle cx="702" cy="1200" r="6"/><circle cx="791" cy="1161" r="5"/><circle cx="821" cy="1192" r="6"/><circle cx="926" cy="1187" r="5"/><circle cx="1034" cy="1183" r="4"/><circle cx="1050" cy="1197" r="4"/><circle cx="1191" cy="1193" r="5"/><circle cx="1224" cy="1186" r="4"/><circle cx="1301" cy="1155" r="5"/><circle cx="1407" cy="1147" r="6"/><circle cx="1480" cy="1143" r="5"/><circle cx="1529" cy="1198" r="5"/><circle cx="1676" cy="1162" r="6"/><circle cx="1725" cy="1175" r="5"/><circle cx="1832" cy="1143" r="6"/><circle cx="1867" cy="1177" r="4"/><circle cx="1929" cy="1154" r="5"/><circle cx="2069" cy="1177" r="5"/><circle cx="2132" cy="1132" r="5"/><circle cx="2230" cy="1145" r="5"/><circle cx="2290" cy="1175" r="4"/><circle cx="2348" cy="1194" r="5"/><circle cx="2477" cy="1187" r="5"/><circle cx="2480" cy="1151" r="4"/><circle cx="41" cy="1274" r="4"/><circle cx="123" cy="1279" r="4"/><circle cx="197" cy="1226" r="5"/><circle cx="256" cy="1272" r="6"/><circle cx="372" cy="1210" r="4"/><circle cx="475" cy="1233" r="4"/><circle cx="494" cy="1215" r="6"/><circle cx="624" cy="1223" r="6"/><circle cx="696" cy="1244" r="6"/><circle cx="744" cy="1204" r="4"/><circle cx="858" cy="1224" r="5"/><circle cx="916" cy="1276" r="4"/><circle cx="1018" cy="1273" r="5"/><circle cx="1118" cy="1224" r="6"/><circle cx="1182" cy="1242" r="5"/><circle cx="1275" cy="1256" r="4"/><circle cx="1338" cy="1272" r="4"/><circle cx="1420" cy="1218" r="6"/><circle cx="1513" cy="1226" r="6"/><circle cx="1563" cy="1267" r="4"/><circle cx="1647" cy="1227" r="5"/><circle cx="1740" cy="1207" r="4"/><circle cx="1839" cy="1224" r="5"/><circle cx="1882" cy="1242" r="5"/><circle cx="1927" cy="1208" r="6"/><circle cx="2033" cy="1250" r="6"/><circle cx="2143" cy="1244" r="5"/><circle cx="2231" cy="1251" r="6"/><circle cx="2280" cy="1259" r="6"/><circle cx="2390" cy="1207" r="5"/><circle cx="2427" cy="1219" r="6"/><circle cx="2491" cy="1210" r="5"/><circle cx="74" cy="1358" r="6"/><circle cx="138" cy="1338" r="6"/><circle cx="231" cy="1319" r="5"/><circle cx="255" cy="1300" r="5"/><circle cx="377" cy="1328" r="6"/><circle cx="474" cy="1295" r="6"/><circle cx="546" cy="1315" r="5"/><circle cx="600" cy="1333" r="5"/><circle cx="672" cy="1359" r="5"/><circle cx="740" cy="1310" r="5"/><circle cx="839" cy="1304" r="6"/><circle cx="905" cy="1300" r="5"/><circle cx="1021" cy="1299" r="4"/><circle cx="1088" cy="1344" r="6"/><circle cx="1195" cy="1309" r="5"/><circle cx="1216" cy="1356" r="5"/><circle cx="1313" cy="1293" r="5"/><circle cx="1400" cy="1307" r="5"/><circle cx="1516" cy="1291" r="6"/><circle cx="1553" cy="1317" r="5"/><circle cx="1666" cy="1308" r="4"/><circle cx="1726" cy="1305" r="5"/><circle cx="1795" cy="1292" r="5"/><circle cx="1849" cy="1285" r="6"/><circle cx="1932" cy="1317" r="5"/><circle cx="2011" cy="1315" r="4"/><circle cx="2093" cy="1351" r="6"/><circle cx="2208" cy="1282" r="5"/><circle cx="2316" cy="1353" r="4"/><circle cx="2361" cy="1316" r="6"/><circle cx="2440" cy="1290" r="5"/><circle cx="2485" cy="1341" r="5"/><circle cx="40" cy="1408" r="6"/><circle cx="156" cy="1365" r="5"/><circle cx="212" cy="1376" r="5"/><circle cx="314" cy="1369" r="6"/><circle cx="376" cy="1413" r="5"/><circle cx="469" cy="1392" r="5"/><circle cx="553" cy="1414" r="4"/><circle cx="578" cy="1362" r="5"/><circle cx="649" cy="1365" r="4"/><circle cx="758" cy="1376" r="5"/><circle cx="810" cy="1393" r="6"/><circle cx="926" cy="1388" r="4"/><circle cx="981" cy="1377" r="5"/><circle cx="1072" cy="1371" r="6"/><circle cx="1130" cy="1366" r="5"/><circle cx="1279" cy="1421" r="6"/><circle cx="1291" cy="1426" r="4"/><circle cx="1422" cy="1369" r="4"/><circle cx="1508" cy="1390" r="5"/><circle cx="1597" cy="1384" r="6"/><circle cx="1650" cy="1409" r="6"/><circle cx="1710" cy="1376" r="5"/><circle cx="1798" cy="1429" r="6"/><circle cx="1908" cy="1368" r="6"/><circle cx="1999" cy="1375" r="4"/><circle cx="2011" cy="1385" r="5"/><circle cx="2123" cy="1388" r="4"/><circle cx="2221" cy="1361" r="5"/><circle cx="2262" cy="1435" r="5"/><circle cx="2347" cy="1382" r="5"/><circle cx="2444" cy="1361" r="5"/><circle cx="2555" cy="1391" r="5"/><circle cx="-5" cy="1391" r="5"/><path stroke="#fff" d="M74 13L106 49M74 13L55 115M74 13L74 -82M74 13L40 -32M74 13L-5 -49M2634 13L2555 -49M74 1453L74 1358M74 1453L40 1408M74 1453L-5 1391M2634 1453L2555 1391M106 49L178 41M106 49L55 115M106 49L135 134M106 49L40 -32M106 1489L40 1408M178 41L261 0M178 41L135 134M178 41L226 95M261 0L226 95M261 0L315 91M261 0L212 -64M261 0L314 -71M261 1440L212 1376M261 1440L314 1369M394 7L431 45M394 7L358 106M394 7L314 -71M394 7L376 -27M394 7L469 -48M394 1447L314 1369M394 1447L376 1413M394 1447L469 1392M431 45L358 106M431 45L464 106M431 45L376 -27M431 45L469 -48M431 1485L376 1413M431 1485L469 1392M551 9L625 7M551 9L553 -26M551 9L578 -78M551 1449L553 1414M551 1449L578 1362M625 7L697 6M625 7L553 -26M625 7L649 -75M625 1447L553 1414M625 1447L649 1365M697 6L725 61M697 6L672 -81M697 6L649 -75M697 6L758 -64M697 1446L672 1359M697 1446L649 1365M697 1446L758 1376M725 61L821 72M725 61L708 137M725 61L827 80M821 72L913 42M821 72L797 154M821 72L827 80M821 72L896 96M913 42L987 35M913 42L827 80M913 42L896 96M913 42L926 -52M913 1482L926 1388M987 35L896 96M987 35L1029 87M987 35L926 -52M987 35L981 -63M987 1475L926 1388M987 1475L981 1377M1104 25L1168 41M1104 25L1029 87M1104 25L1105 92M1104 25L1133 97M1104 25L1072 -69M1104 1465L1072 1371M1168 41L1105 92M1168 41L1133 97M1168 41L1130 -74M1168 1481L1130 1366M1271 46L1338 25M1271 46L1277 95M1271 46L1337 122M1271 46L1279 -19M1271 46L1291 -14M1271 1486L1279 1421M1271 1486L1291 1426M1338 25L1411 31M1338 25L1337 122M1338 25L1279 -19M1338 25L1291 -14M1338 1465L1279 1421M1338 1465L1291 1426M1411 31L1466 79M1411 31L1419 129M1411 31L1422 -71M1411 1471L1422 1369M1466 79L1419 129M1466 79L1491 123M1558 21L1630 14M1558 21L1600 105M1558 21L1508 -50M1558 21L1597 -56M1558 21L1650 -31M1558 1461L1508 1390M1558 1461L1597 1384M1558 1461L1650 1409M1630 14L1712 29M1630 14L1600 105M1630 14L1597 -56M1630 14L1650 -31M1630 1454L1597 1384M1630 1454L1650 1409M1712 29L1778 23M1712 29L1650 -31M1712 29L1710 -64M1712 29L1798 -11M1712 1469L1650 1409M1712 1469L1710 1376M1712 1469L1798 1429M1778 23L1848 64M1778 23L1818 116M1778 23L1798 -11M1778 1463L1798 1429M1848 64L1818 116M1848 64L1890 124M1848 64L1935 106M1848 64L1798 -11M1848 1504L1798 1429M1994 78L2054 5M1994 78L1935 106M1994 78L2049 80M1994 78L2081 125M1994 78L1932 166M2054 5L2049 80M2054 5L1999 -65M2054 5L2011 -55M2054 5L2123 -52M2054 1445L1999 1375M2054 1445L2011 1385M2054 1445L2123 1388M2142 4L2190 23M2142 4L2123 -52M2142 1444L2123 1388M2190 23L2246 59M2190 23L2240 96M2190 23L2221 -79M2190 23L2262 -5M2190 1463L2221 1361M2190 1463L2262 1435M2246 59L2334 12M2246 59L2217 146M2246 59L2240 96M2246 59L2262 -5M2246 1499L2262 1435M2334 12L2391 96M2334 12L2316 -87M2334 12L2262 -5M2334 12L2347 -58M2334 1452L2316 1353M2334 1452L2262 1435M2334 1452L2347 1382M2475 4L2499 62M2475 4L2433 99M2475 4L2485 -99M2475 4L2444 -79M2475 4L2555 -49M2475 1444L2485 1341M2475 1444L2444 1361M2475 1444L2555 1391M2499 62L2391 96M2499 62L2433 99M2499 62L2514 124M55 115L135 134M55 115L-46 124M55 115L41 194M2615 115L2514 124M135 134L226 95M135 134L128 199M226 95L315 91M226 95L294 189M315 91L358 106M315 91L294 189M358 106L464 106M358 106L294 189M464 106L500 125M464 106L426 201M464 106L521 165M500 125L600 154M500 125L426 201M500 125L521 165M500 125L560 211M600 154L708 137M600 154L521 165M600 154L560 211M708 137L797 154M708 137L705 191M797 154L827 80M797 154L790 232M797 154L869 196M827 80L896 96M896 96L869 196M1029 87L1105 92M1029 87L1133 97M1029 87L1022 176M1105 92L1133 97M1105 92L1022 176M1133 97L1182 194M1277 95L1337 122M1277 95L1279 -19M1277 95L1291 -14M1277 1535L1279 1421M1277 1535L1291 1426M1337 122L1419 129M1337 122L1327 207M1419 129L1491 123M1419 129L1389 214M1491 123L1518 197M1491 123L1544 167M1600 105L1611 142M1600 105L1685 135M1600 105L1544 167M1611 142L1685 135M1611 142L1544 167M1611 142L1632 198M1685 135L1632 198M1685 135L1704 195M1818 116L1890 124M1818 116L1860 182M1890 124L1935 106M1890 124L1860 182M1890 124L1932 166M1935 106L2049 80M1935 106L1932 166M2049 80L2081 125M2049 80L2104 162M2081 125L2042 225M2081 125L2104 162M2217 146L2240 96M2217 146L2189 178M2217 146L2271 215M2217 146L2253 251M2240 96L2189 178M2240 96L2262 -5M2240 1536L2262 1435M2391 96L2433 99M2391 96L2514 124M2391 96L2391 218M2433 99L2514 124M2514 124L2499 194M41 194L128 199M41 194L26 265M128 199L220 229M128 199L218 280M220 229L294 189M220 229L218 280M220 229L289 317M294 189L366 223M366 223L426 201M366 223L333 294M366 223L403 255M366 223L384 328M426 201L521 165M426 201L403 255M521 165L560 211M560 211L545 273M560 211L638 256M705 191L790 232M705 191L638 256M705 191L659 282M790 232L869 196M790 232L770 297M790 232L810 261M869 196L930 215M869 196L898 248M930 215L1022 176M930 215L898 248M930 215L1020 246M930 215L904 340M1022 176L1075 212M1022 176L1020 246M1075 212L1182 194M1075 212L1020 246M1075 212L1079 279M1182 194L1250 228M1182 194L1147 288M1182 194L1219 258M1250 228L1327 207M1250 228L1219 258M1250 228L1296 290M1327 207L1389 214M1327 207L1296 290M1389 214L1380 313M1518 197L1544 167M1518 197L1520 255M1518 197L1525 256M1544 167L1525 256M1632 198L1704 195M1632 198L1626 256M1704 195L1766 206M1704 195L1626 256M1704 195L1748 254M1766 206L1748 254M1766 206L1808 274M1860 182L1932 166M1860 182L1808 274M1860 182L1851 279M1932 166L1948 250M2042 225L2104 162M2042 225L1948 250M2042 225L2017 291M2042 225L2095 270M2104 162L2189 178M2104 162L2095 270M2189 178L2271 215M2189 178L2253 251M2271 215L2253 251M2391 218L2436 235M2391 218L2499 194M2391 218L2369 281M2391 218L2434 276M2436 235L2499 194M2436 235L2369 281M2436 235L2434 276M2436 235L2518 292M2499 194L2434 276M2499 194L2518 292M26 265L-42 292M26 265L-7 320M2586 265L2518 292M2586 265L2553 320M121 320L218 280M121 320L65 358M121 320L151 363M121 320L166 385M121 320L134 412M218 280L289 317M289 317L333 294M289 317L264 399M289 317L384 328M333 294L403 255M333 294L384 328M333 294L412 370M403 255L384 328M403 255L412 370M545 273L638 256M545 273L542 370M545 273L599 344M638 256L659 282M659 282L770 297M659 282L650 360M770 297L810 261M770 297L762 378M810 261L898 248M898 248L1020 246M898 248L904 340M1020 246L1079 279M1079 279L1147 288M1079 279L1032 363M1079 279L1086 348M1147 288L1219 258M1147 288L1086 348M1147 288L1200 339M1219 258L1200 339M1219 258L1233 337M1296 290L1380 313M1296 290L1233 337M1296 290L1355 375M1380 313L1355 375M1380 313L1430 332M1380 313L1474 331M1520 255L1525 256M1520 255L1626 256M1520 255L1474 331M1525 256L1626 256M1525 256L1474 331M1626 256L1619 340M1748 254L1808 274M1748 254L1851 279M1808 274L1851 279M1808 274L1777 377M1851 279L1948 250M1851 279L1910 352M1948 250L2017 291M1948 250L1910 352M2017 291L2095 270M2017 291L2023 377M2095 270L2174 295M2095 270L2154 345M2174 295L2253 251M2174 295L2154 345M2174 295L2231 387M2369 281L2434 276M2369 281L2318 361M2369 281L2345 351M2434 276L2518 292M2518 292L2553 320M65 358L151 363M65 358L-7 320M65 358L19 416M65 358L134 412M2625 358L2553 320M151 363L166 385M151 363L134 412M151 363L181 425M166 385L264 399M166 385L134 412M166 385L181 425M264 399L181 425M264 399L250 474M264 399L248 514M384 328L412 370M412 370L396 439M412 370L404 475M542 370L599 344M542 370L650 360M542 370L551 411M542 370L565 402M599 344L650 360M599 344L551 411M599 344L565 402M650 360L762 378M650 360L565 402M762 378L824 386M762 378L798 449M824 386L904 340M824 386L798 449M824 386L859 428M824 386L888 411M904 340L859 428M904 340L888 411M1032 363L1086 348M1032 363L1038 470M1032 363L1073 431M1086 348L1200 339M1086 348L1073 431M1200 339L1233 337M1200 339L1214 405M1233 337L1214 405M1355 375L1430 332M1355 375L1336 442M1355 375L1386 423M1430 332L1474 331M1430 332L1386 423M1474 331L1471 432M1564 377L1619 340M1564 377L1575 474M1564 377L1648 407M1619 340L1711 388M1619 340L1648 407M1711 388L1777 377M1711 388L1648 407M1711 388L1704 462M1711 388L1810 418M1777 377L1704 462M1777 377L1810 418M1777 377L1759 496M1910 352L1951 382M1910 352L1810 418M1951 382L2023 377M1951 382L1911 457M1951 382L1987 459M1951 382L2014 431M2023 377L1987 459M2023 377L2014 431M2023 377L2095 435M2154 345L2231 387M2154 345L2095 435M2231 387L2318 361M2231 387L2216 470M2231 387L2281 434M2318 361L2345 351M2318 361L2404 382M2318 361L2281 434M2345 351L2404 382M2345 351L2281 434M2404 382L2386 461M2404 382L2463 425M2404 382L2348 486M2553 320L2579 416M-7 320L19 416M19 416L-64 441M2579 416L2496 441M134 412L181 425M181 425L250 474M250 474L218 535M250 474L248 514M396 439L404 475M396 439L372 517M396 439L432 515M404 475L372 517M404 475L432 515M551 411L565 402M681 479L627 549M681 479L687 532M681 479L731 557M681 479L676 569M798 449L859 428M798 449L888 411M798 449L851 486M859 428L888 411M859 428L851 486M888 411L851 486M1038 470L1073 431M1038 470L943 543M1038 470L1034 490M1038 470L1107 538M1073 431L1160 457M1073 431L1034 490M1160 457L1214 405M1160 457L1107 538M1336 442L1386 423M1336 442L1325 492M1386 423L1471 432M1386 423L1325 492M1471 432L1416 534M1471 432L1477 527M1471 432L1548 503M1575 474L1648 407M1575 474L1548 503M1575 474L1636 525M1648 407L1704 462M1704 462L1636 525M1704 462L1759 496M1810 418L1759 496M1911 457L1987 459M1911 457L1902 522M1911 457L1968 515M1911 457L1929 565M1987 459L2014 431M1987 459L1968 515M2014 431L2095 435M2095 435L2099 533M2216 470L2281 434M2216 470L2201 550M2216 470L2252 554M2281 434L2348 486M2386 461L2463 425M2386 461L2348 486M2386 461L2474 500M2463 425L2496 441M2463 425L2474 500M2463 425L2483 515M2496 441L2474 500M2496 441L2483 515M62 556L105 627M158 550L218 535M158 550L248 514M158 550L105 627M158 550L221 613M158 550L248 566M218 535L248 514M218 535L221 613M218 535L248 566M248 514L248 566M372 517L432 515M432 515L503 543M432 515L532 564M503 543L433 634M503 543L532 564M503 543L439 640M627 549L687 532M627 549L731 557M627 549L620 600M627 549L676 569M687 532L731 557M687 532L620 600M687 532L676 569M731 557L676 569M731 557L742 636M851 486L943 543M943 543L1034 490M943 543L920 579M943 543L995 608M1034 490L1107 538M1107 538L1173 555M1107 538L1152 630M1173 555L1222 555M1173 555L1152 630M1173 555L1209 568M1173 555L1199 644M1222 555L1209 568M1222 555L1283 581M1222 555L1199 644M1325 492L1416 534M1325 492L1283 581M1416 534L1477 527M1416 534L1420 614M1416 534L1476 589M1477 527L1548 503M1477 527L1476 589M1477 527L1536 583M1548 503L1636 525M1548 503L1536 583M1636 525L1627 615M1759 496L1768 552M1759 496L1848 580M1768 552L1698 617M1768 552L1778 635M1768 552L1848 580M1902 522L1968 515M1902 522L1848 580M1902 522L1929 565M1968 515L1929 565M1968 515L2016 571M2043 552L2099 533M2043 552L2016 571M2043 552L2085 590M2043 552L2066 647M2099 533L2016 571M2099 533L2085 590M2201 550L2252 554M2201 550L2215 617M2201 550L2264 581M2201 550L2183 642M2252 554L2215 617M2252 554L2264 581M2474 500L2483 515M2474 500L2534 571M2483 515L2475 630M2483 515L2534 571M11 640L105 627M11 640L-26 571M11 640L63 665M11 640L-37 659M11 640L19 727M2571 640L2534 571M2571 640L2523 659M105 627L63 665M105 627L160 694M221 613L248 566M221 613L321 639M221 613L221 644M248 566L221 644M321 639L433 634M321 639L221 644M321 639L320 706M321 639L355 664M433 634L355 664M433 634L439 640M433 634L528 714M532 564L620 600M620 600L676 569M742 636L826 622M742 636L709 714M742 636L795 645M826 622L920 579M826 622L795 645M826 622L860 659M920 579L944 650M995 608L1063 636M995 608L944 650M995 608L1002 648M995 608L1058 645M1063 636L1152 630M1063 636L1002 648M1063 636L1058 645M1063 636L1047 721M1152 630L1209 568M1152 630L1199 644M1209 568L1283 581M1209 568L1199 644M1283 581L1312 665M1420 614L1476 589M1420 614L1312 665M1420 614L1427 680M1420 614L1491 712M1476 589L1536 583M1476 589L1554 668M1536 583L1554 668M1627 615L1698 617M1627 615L1554 668M1627 615L1661 651M1627 615L1706 651M1698 617L1778 635M1698 617L1661 651M1698 617L1706 651M1778 635L1848 580M1778 635L1706 651M1778 635L1812 697M1848 580L1929 565M1929 565L2016 571M2016 571L2085 590M2085 590L2066 647M2085 590L2107 678M2215 617L2264 581M2215 617L2183 642M2215 617L2288 681M2264 581L2183 642M2264 581L2288 681M2396 611L2475 630M2396 611L2288 681M2396 611L2364 665M2396 611L2411 684M2475 630L2534 571M2475 630L2411 684M2475 630L2523 659M2534 571L2523 659M63 665L160 694M63 665L19 727M160 694L221 644M160 694L126 782M160 694L219 774M221 644L320 706M320 706L355 664M320 706L293 773M320 706L364 748M355 664L439 640M355 664L364 748M439 640L528 714M528 714L624 703M528 714L549 754M624 703L709 714M624 703L549 754M624 703L621 768M624 703L661 723M709 714L661 723M709 714L727 748M795 645L860 659M860 659L944 650M860 659L877 740M860 659L884 734M944 650L1002 648M944 650L884 734M1002 648L1058 645M1002 648L1047 721M1058 645L1047 721M1199 644L1246 697M1246 697L1312 665M1246 697L1176 773M1246 697L1218 749M1246 697L1284 775M1312 665L1378 740M1427 680L1491 712M1427 680L1378 740M1491 712L1554 668M1491 712L1472 781M1554 668L1661 651M1661 651L1706 651M1661 651L1666 734M1706 651L1666 734M1812 697L1885 713M1812 697L1835 786M1885 713L1969 684M1885 713L1835 786M1885 713L1870 778M1885 713L1924 738M1969 684L1924 738M1969 684L2014 741M2066 647L2107 678M2066 647L2014 741M2066 647L2119 748M2107 678L2183 642M2107 678L2119 748M2107 678L2170 740M2183 642L2170 740M2288 681L2364 665M2288 681L2314 798M2364 665L2411 684M2411 684L2386 772M2523 659L2579 727M2523 659L2511 740M-37 659L19 727M19 727L-82 790M19 727L-49 740M2579 727L2478 790M2579 727L2511 740M126 782L219 774M126 782L60 859M126 782L132 875M126 782L187 827M219 774L293 773M219 774L187 827M219 774L244 817M293 773L364 748M293 773L244 817M293 773L349 853M364 748L410 787M410 787L349 853M410 787L467 861M549 754L621 768M549 754L559 849M621 768L661 723M621 768L701 820M661 723L727 748M727 748L701 820M727 748L752 848M877 740L884 734M877 740L870 833M884 734L870 833M983 795L1047 721M983 795L956 869M983 795L965 855M983 795L957 885M1047 721L1145 803M1176 773L1218 749M1176 773L1284 775M1176 773L1145 803M1176 773L1212 873M1218 749L1284 775M1218 749L1145 803M1218 749L1295 820M1284 775L1378 740M1284 775L1295 820M1378 740L1472 781M1378 740L1440 812M1472 781L1439 860M1472 781L1440 812M1472 781L1535 830M1589 800L1666 734M1589 800L1535 830M1589 800L1643 845M1589 800L1589 888M1666 734L1729 796M1729 796L1643 845M1729 796L1699 858M1729 796L1824 826M1835 786L1870 778M1835 786L1824 826M1835 786L1886 819M1870 778L1924 738M1870 778L1824 826M1870 778L1886 819M1924 738L2014 741M1924 738L1979 817M2014 741L2119 748M2014 741L1979 817M2119 748L2170 740M2314 798L2386 772M2314 798L2279 829M2314 798L2334 810M2386 772L2478 790M2386 772L2334 810M2386 772L2459 851M2478 790L2511 740M2478 790L2459 851M2478 790L2485 817M2511 740L2485 817M60 859L132 875M60 859L26 892M60 859L122 886M60 859L-20 903M2620 859L2540 903M132 875L187 827M132 875L122 886M132 875L177 915M187 827L244 817M187 827L177 915M244 817L349 853M244 817L254 888M349 853L357 917M467 861L559 849M467 861L572 873M467 861L453 901M467 861L487 957M559 849L572 873M559 849L635 895M559 849L649 881M572 873L635 895M572 873L649 881M701 820L752 848M701 820L649 881M701 820L750 904M752 848L649 881M752 848L750 904M870 833L956 869M956 869L965 855M956 869L957 885M956 869L1007 890M965 855L1066 874M965 855L957 885M965 855L1007 890M1066 874L1145 803M1066 874L1007 890M1066 874L1116 932M1145 803L1212 873M1212 873L1295 820M1212 873L1174 938M1212 873L1235 897M1295 820L1235 897M1439 860L1440 812M1439 860L1535 830M1439 860L1411 892M1439 860L1510 893M1440 812L1411 892M1535 830L1510 893M1535 830L1589 888M1643 845L1699 858M1643 845L1589 888M1643 845L1619 923M1699 858L1722 939M1699 858L1761 917M1824 826L1886 819M1886 819L1979 817M1886 819L1909 923M1979 817L2044 837M2044 837L2125 853M2044 837L2073 887M2125 853L2223 876M2125 853L2073 887M2125 853L2144 901M2125 853L2180 895M2223 876L2279 829M2223 876L2144 901M2223 876L2180 895M2223 876L2288 930M2279 829L2334 810M2279 829L2288 930M2279 829L2345 909M2334 810L2345 909M2459 851L2485 817M2459 851L2423 955M2459 851L2540 903M2485 817L2540 903M26 892L122 886M26 892L-20 903M26 892L59 987M2586 892L2540 903M122 886L177 915M177 915L254 888M177 915L212 999M254 888L357 917M254 888L260 1005M357 917L453 901M357 917L345 990M453 901L487 957M453 901L455 978M453 901L501 992M487 957L455 978M487 957L501 992M635 895L649 881M635 895L750 904M750 904L846 949M750 904L767 984M846 949L767 984M846 949L864 1029M846 949L930 974M846 949L835 1053M957 885L1007 890M957 885L930 974M1007 890L1015 978M1116 932L1174 938M1116 932L1015 978M1116 932L1152 990M1174 938L1235 897M1174 938L1152 990M1174 938L1219 1018M1360 959L1411 892M1360 959L1303 1029M1360 959L1392 1018M1360 959L1350 1054M1411 892L1510 893M1411 892L1479 986M1510 893L1589 888M1510 893L1479 986M1589 888L1619 923M1619 923L1675 1001M1722 939L1761 917M1722 939L1675 1001M1722 939L1701 994M1722 939L1766 1031M1761 917L1701 994M1909 923L1938 959M1909 923L1908 1002M1909 923L1971 992M1938 959L1908 1002M1938 959L1971 992M1938 959L1885 1043M2073 887L2144 901M2073 887L2180 895M2073 887L2110 972M2144 901L2180 895M2144 901L2110 972M2180 895L2182 983M2288 930L2345 909M2288 930L2182 983M2288 930L2314 1011M2345 909L2423 955M2345 909L2314 1011M2423 955L2366 1024M2423 955L2468 1020M2423 955L2354 1048M2540 903L2557 1004M59 987L128 1011M59 987L-3 1004M59 987L131 1067M59 987L-6 1060M2619 987L2557 1004M2619 987L2554 1060M128 1011L212 999M128 1011L131 1067M128 1011L197 1075M128 1011L106 1130M212 999L260 1005M212 999L131 1067M212 999L197 1075M260 1005L345 990M260 1005L197 1075M260 1005L343 1071M345 990L343 1071M455 978L501 992M455 978L429 1065M455 978L481 1071M501 992L573 1024M501 992L481 1071M573 1024L664 1012M573 1024L586 1069M664 1012L586 1069M767 984L785 1058M767 984L835 1053M864 1029L930 974M864 1029L785 1058M864 1029L835 1053M864 1029L915 1075M930 974L1015 978M930 974L915 1075M1015 978L1052 1027M1015 978L1009 1051M1052 1027L1009 1051M1052 1027L1111 1043M1052 1027L1156 1053M1152 990L1219 1018M1152 990L1111 1043M1152 990L1156 1053M1219 1018L1303 1029M1219 1018L1156 1053M1219 1018L1213 1073M1303 1029L1392 1018M1303 1029L1213 1073M1303 1029L1350 1054M1392 1018L1479 986M1392 1018L1350 1054M1392 1018L1417 1046M1479 986L1521 1016M1479 986L1417 1046M1521 1016L1417 1046M1521 1016L1518 1108M1521 1016L1572 1085M1521 1016L1601 1072M1675 1001L1701 994M1675 1001L1766 1031M1675 1001L1753 1044M1701 994L1766 1031M1701 994L1753 1044M1766 1031L1753 1044M1766 1031L1831 1103M1908 1002L1971 992M1908 1002L1885 1043M1908 1002L1979 1057M1971 992L2032 990M1971 992L1979 1057M2032 990L2110 972M2032 990L1979 1057M2032 990L2064 1075M2110 972L2182 983M2314 1011L2366 1024M2314 1011L2248 1104M2314 1011L2354 1048M2366 1024L2468 1020M2366 1024L2354 1048M2366 1024L2422 1095M2468 1020L2557 1004M2468 1020L2422 1095M2468 1020L2554 1060M2557 1004L2581 1113M2557 1004L2554 1060M-3 1004L21 1113M21 1113L-6 1060M21 1113L69 1176M21 1113L106 1130M21 1113L-80 1151M2581 1113L2554 1060M2581 1113L2480 1151M131 1067L197 1075M131 1067L106 1130M197 1075L106 1130M310 1113L343 1071M310 1113L286 1193M310 1113L400 1148M343 1071L429 1065M343 1071L400 1148M429 1065L481 1071M429 1065L400 1148M429 1065L472 1126M481 1071L586 1069M481 1071L472 1126M586 1069L614 1123M687 1118L785 1058M687 1118L614 1123M687 1118L702 1200M687 1118L744 1204M785 1058L835 1053M785 1058L791 1161M835 1053L915 1075M915 1075L1009 1051M1009 1051L1111 1043M1111 1043L1156 1053M1111 1043L1213 1073M1156 1053L1213 1073M1213 1073L1301 1155M1350 1054L1417 1046M1350 1054L1407 1147M1417 1046L1407 1147M1518 1108L1572 1085M1518 1108L1601 1072M1518 1108L1480 1143M1518 1108L1529 1198M1572 1085L1601 1072M1572 1085L1676 1162M1601 1072L1676 1162M1753 1044L1831 1103M1831 1103L1885 1043M1831 1103L1832 1143M1885 1043L1979 1057M1979 1057L2064 1075M2064 1075L2123 1092M2064 1075L2069 1177M2064 1075L2132 1132M2123 1092L2226 1115M2123 1092L2069 1177M2123 1092L2132 1132M2226 1115L2248 1104M2226 1115L2132 1132M2226 1115L2230 1145M2226 1115L2290 1175M2248 1104L2354 1048M2248 1104L2230 1145M2248 1104L2290 1175M2354 1048L2422 1095M2422 1095L2480 1151M69 1176L106 1130M69 1176L41 1274M214 1185L286 1193M214 1185L197 1226M214 1185L256 1272M286 1193L197 1226M286 1193L256 1272M286 1193L372 1210M400 1148L472 1126M400 1148L372 1210M472 1126L540 1193M472 1126L494 1215M540 1193L614 1123M540 1193L475 1233M540 1193L494 1215M540 1193L624 1223M614 1123L624 1223M702 1200L791 1161M702 1200L624 1223M702 1200L696 1244M702 1200L744 1204M791 1161L821 1192M791 1161L744 1204M821 1192L926 1187M821 1192L744 1204M821 1192L858 1224M926 1187L1034 1183M926 1187L858 1224M926 1187L916 1276M1034 1183L1050 1197M1034 1183L1018 1273M1034 1183L1118 1224M1050 1197L1018 1273M1050 1197L1118 1224M1050 1197L1021 1299M1191 1193L1224 1186M1191 1193L1118 1224M1191 1193L1182 1242M1224 1186L1301 1155M1224 1186L1182 1242M1224 1186L1275 1256M1301 1155L1407 1147M1407 1147L1480 1143M1407 1147L1420 1218M1480 1143L1529 1198M1480 1143L1420 1218M1480 1143L1513 1226M1529 1198L1513 1226M1529 1198L1563 1267M1529 1198L1516 1291M1676 1162L1725 1175M1676 1162L1647 1227M1676 1162L1740 1207M1725 1175L1647 1227M1725 1175L1740 1207M1832 1143L1867 1177M1832 1143L1929 1154M1832 1143L1839 1224M1867 1177L1929 1154M1867 1177L1839 1224M1867 1177L1882 1242M1867 1177L1927 1208M1929 1154L1927 1208M2069 1177L2132 1132M2069 1177L2033 1250M2069 1177L2143 1244M2132 1132L2230 1145M2230 1145L2290 1175M2230 1145L2231 1251M2290 1175L2348 1194M2290 1175L2280 1259M2348 1194L2280 1259M2348 1194L2390 1207M2348 1194L2427 1219M2477 1187L2480 1151M2477 1187L2390 1207M2477 1187L2427 1219M2477 1187L2491 1210M2480 1151L2491 1210M41 1274L123 1279M123 1279L197 1226M123 1279L138 1338M123 1279L156 1365M197 1226L256 1272M197 1226L255 1300M256 1272L231 1319M256 1272L255 1300M372 1210L475 1233M372 1210L377 1328M475 1233L494 1215M475 1233L474 1295M494 1215L474 1295M494 1215L546 1315M624 1223L696 1244M696 1244L744 1204M696 1244L740 1310M858 1224L916 1276M858 1224L839 1304M858 1224L905 1300M916 1276L839 1304M916 1276L905 1300M1018 1273L1021 1299M1018 1273L1088 1344M1118 1224L1182 1242M1118 1224L1195 1309M1182 1242L1275 1256M1182 1242L1195 1309M1275 1256L1338 1272M1275 1256L1195 1309M1275 1256L1313 1293M1338 1272L1420 1218M1338 1272L1313 1293M1338 1272L1400 1307M1420 1218L1513 1226M1420 1218L1400 1307M1513 1226L1563 1267M1513 1226L1516 1291M1563 1267L1647 1227M1563 1267L1516 1291M1563 1267L1553 1317M1647 1227L1740 1207M1647 1227L1666 1308M1740 1207L1795 1292M1839 1224L1882 1242M1839 1224L1795 1292M1839 1224L1849 1285M1882 1242L1927 1208M1882 1242L1849 1285M1882 1242L1932 1317M1927 1208L2033 1250M2033 1250L2143 1244M2033 1250L2011 1315M2033 1250L2093 1351M2143 1244L2231 1251M2143 1244L2208 1282M2231 1251L2280 1259M2231 1251L2208 1282M2231 1251L2221 1361M2280 1259L2208 1282M2280 1259L2361 1316M2390 1207L2427 1219M2390 1207L2491 1210M2427 1219L2491 1210M2427 1219L2440 1290M2491 1210L2440 1290M74 1358L138 1338M74 1358L40 1408M74 1358L156 1365M74 1358L-5 1391M2634 1358L2555 1391M138 1338L231 1319M138 1338L156 1365M138 1338L212 1376M231 1319L255 1300M231 1319L156 1365M231 1319L212 1376M255 1300L212 1376M255 1300L314 1369M377 1328L474 1295M377 1328L314 1369M377 1328L376 1413M474 1295L546 1315M474 1295L469 1392M546 1315L600 1333M546 1315L578 1362M600 1333L672 1359M600 1333L553 1414M600 1333L578 1362M600 1333L649 1365M672 1359L740 1310M672 1359L649 1365M672 1359L758 1376M740 1310L839 1304M740 1310L758 1376M740 1310L810 1393M839 1304L905 1300M839 1304L810 1393M905 1300L926 1388M905 1300L981 1377M1021 1299L1088 1344M1021 1299L981 1377M1021 1299L1072 1371M1088 1344L1072 1371M1088 1344L1130 1366M1195 1309L1216 1356M1195 1309L1130 1366M1216 1356L1313 1293M1216 1356L1130 1366M1216 1356L1279 1421M1216 1356L1291 1426M1313 1293L1400 1307M1400 1307L1422 1369M1516 1291L1553 1317M1516 1291L1508 1390M1553 1317L1508 1390M1553 1317L1597 1384M1666 1308L1726 1305M1666 1308L1710 1376M1726 1305L1795 1292M1726 1305L1710 1376M1795 1292L1849 1285M1849 1285L1932 1317M1849 1285L1908 1368M1932 1317L2011 1315M1932 1317L1908 1368M1932 1317L1999 1375M2011 1315L2093 1351M2011 1315L1999 1375M2011 1315L2011 1385M2093 1351L2011 1385M2093 1351L2123 1388M2208 1282L2221 1361M2316 1353L2361 1316M2316 1353L2221 1361M2316 1353L2347 1382M2361 1316L2440 1290M2361 1316L2347 1382M2361 1316L2444 1361M2440 1290L2485 1341M2440 1290L2444 1361M2485 1341L2444 1361M2485 1341L2555 1391M40 1408L-5 1391M2600 1408L2555 1391M156 1365L212 1376M314 1369L376 1413M376 1413L469 1392M469 1392L553 1414M553 1414L578 1362M578 1362L649 1365M758 1376L810 1393M810 1393L926 1388M926 1388L981 1377M981 1377L1072 1371M1072 1371L1130 1366M1279 1421L1291 1426M1422 1369L1508 1390M1508 1390L1597 1384M1597 1384L1650 1409M1650 1409L1710 1376M1710 1376L1798 1429M1798 1429L1908 1368M1908 1368L1999 1375M1908 1368L2011 1385M1999 1375L2011 1385M2221 1361L2262 1435M2347 1382L2444 1361"/></svg>