<svg xmlns="http://www.w3.org/2000/svg" width="2560" height="1440" fill="#fff"><circle cx="2" cy="29" r="6"/><circle cx="2562" cy="29" r="6"/><circle cx="153" cy="77" r="4"/><circle cx="195" cy="31" r="4"/><circle cx="268" cy="77" r="5"/><circle cx="384" cy="32" r="4"/><circle cx="414" cy="79" r="6"/><circle cx="540" cy="48" r="4"/><circle cx="616" cy="6" r="5"/><circle cx="681" cy="35" r="4"/><circle cx="748" cy="74" r="4"/><circle cx="841" cy="19" r="5"/><circle cx="928" cy="14" r="4"/><circle cx="968" cy="37" r="5"/><circle cx="1052" cy="54" r="5"/><circle cx="1139" cy="8" r="5"/><circle cx="1229" cy="32" r="5"/><circle cx="1280" cy="72" r="5"/><circle cx="1392" cy="57" r="4"/><circle cx="1467" cy="41" r="5"/><circle cx="1559" cy="68" r="5"/><circle cx="1606" cy="68" r="4"/><circle cx="1695" cy="59" r="6"/><circle cx="1824" cy="3" r="6"/><circle cx="1824" cy="1443" r="6"/><circle cx="1883" cy="62" r="5"/><circle cx="1981" cy="75" r="5"/><circle cx="2050" cy="52" r="5"/><circle cx="2130" cy="4" r="5"/><circle cx="2130" cy="1444" r="5"/><circle cx="2176" cy="63" r="6"/><circle cx="2283" cy="39" r="4"/><circle cx="2363" cy="36" r="4"/><circle cx="2410" cy="70" r="5"/><circle cx="2506" cy="62" r="5"/><circle cx="57" cy="128" r="5"/><circle cx="92" cy="81" r="4"/><circle cx="203" cy="128" r="5"/><circle cx="246" cy="144" r="4"/><circle cx="328" cy="118" r="6"/><circle cx="403" cy="94" r="5"/><circle cx="545" cy="109" r="6"/><circle cx="630" cy="144" r="5"/><circle cx="669" cy="154" r="5"/><circle cx="750" cy="157" r="6"/><circle cx="832" cy="145" r="5"/><circle cx="902" cy="97" r="5"/><circle cx="1012" cy="147" r="5"/><circle cx="1088" cy="158" r="5"/><circle cx="1183" cy="132" r="5"/><circle cx="1246" cy="90" r="6"/><circle cx="1299" cy="119" r="5"/><circle cx="1399" cy="109" r="5"/><circle cx="1443" cy="131" r="4"/><circle cx="1593" cy="82" r="4"/><circle cx="1631" cy="87" r="5"/><circle cx="1745" cy="91" r="4"/><circle cx="1762" cy="119" r="6"/><circle cx="1877" cy="95" r="4"/><circle cx="1920" cy="121" r="6"/><circle cx="2057" cy="141" r="4"/><circle cx="2100" cy="139" r="6"/><circle cx="2194" cy="127" r="6"/><circle cx="2289" cy="127" r="5"/><circle cx="2353" cy="97" r="6"/><circle cx="2427" cy="153" r="5"/><circle cx="2514" cy="91" r="4"/><circle cx="48" cy="183" r="6"/><circle cx="160" cy="239" r="6"/><circle cx="162" cy="179" r="6"/><circle cx="266" cy="167" r="6"/><circle cx="390" cy="198" r="6"/><circle cx="454" cy="226" r="5"/><circle cx="512" cy="202" r="6"/><circle cx="573" cy="170" r="4"/><circle cx="642" cy="169" r="5"/><circle cx="764" cy="209" r="5"/><circle cx="857" cy="202" r="4"/><circle cx="894" cy="208" r="5"/><circle cx="994" cy="187" r="6"/><circle cx="1087" cy="216" r="6"/><circle cx="1136" cy="183" r="5"/><circle cx="1270" cy="237" r="5"/><circle cx="1332" cy="221" r="5"/><circle cx="1379" cy="207" r="5"/><circle cx="1514" cy="167" r="4"/><circle cx="1555" cy="172" r="6"/><circle cx="1664" cy="192" r="6"/><circle cx="1720" cy="195" r="5"/><circle cx="1832" cy="201" r="6"/><circle cx="1916" cy="173" r="5"/><circle cx="1991" cy="211" r="5"/><circle cx="2073" cy="202" r="5"/><circle cx="2158" cy="175" r="4"/><circle cx="2167" cy="182" r="5"/><circle cx="2273" cy="240" r="5"/><circle cx="2351" cy="228" r="4"/><circle cx="2443" cy="228" r="5"/><circle cx="2499" cy="216" r="6"/><circle cx="29" cy="307" r="4"/><circle cx="114" cy="301" r="5"/><circle cx="194" cy="302" r="5"/><circle cx="271" cy="274" r="5"/><circle cx="335" cy="316" r="5"/><circle cx="466" cy="294" r="5"/><circle cx="547" cy="281" r="4"/><circle cx="637" cy="264" r="4"/><circle cx="691" cy="268" r="5"/><circle cx="723" cy="294" r="5"/><circle cx="858" cy="314" r="6"/><circle cx="948" cy="260" r="4"/><circle cx="1014" cy="259" r="5"/><circle cx="1068" cy="247" r="4"/><circle cx="1156" cy="310" r="5"/><circle cx="1274" cy="310" r="6"/><circle cx="1339" cy="247" r="4"/><circle cx="1381" cy="274" r="6"/><circle cx="1478" cy="249" r="5"/><circle cx="1576" cy="273" r="6"/><circle cx="1662" cy="314" r="6"/><circle cx="1718" cy="268" r="5"/><circle cx="1794" cy="279" r="5"/><circle cx="1857" cy="310" r="5"/><circle cx="1990" cy="256" r="5"/><circle cx="2063" cy="299" r="5"/><circle cx="2131" cy="311" r="5"/><circle cx="2193" cy="262" r="5"/><circle cx="2294" cy="266" r="6"/><circle cx="2372" cy="246" r="5"/><circle cx="2404" cy="318" r="5"/><circle cx="2496" cy="319" r="6"/><circle cx="8" cy="350" r="4"/><circle cx="97" cy="363" r="6"/><circle cx="173" cy="352" r="5"/><circle cx="276" cy="388" r="5"/><circle cx="395" cy="353" r="5"/><circle cx="432" cy="368" r="4"/><circle cx="544" cy="332" r="6"/><circle cx="585" cy="340" r="5"/><circle cx="677" cy="346" r="5"/><circle cx="755" cy="324" r="6"/><circle cx="833" cy="354" r="4"/><circle cx="949" cy="339" r="4"/><circle cx="1003" cy="351" r="4"/><circle cx="1088" cy="384" r="5"/><circle cx="1154" cy="334" r="4"/><circle cx="1278" cy="350" r="6"/><circle cx="1302" cy="324" r="6"/><circle cx="1374" cy="334" r="5"/><circle cx="1482" cy="348" r="4"/><circle cx="1529" cy="379" r="6"/><circle cx="1662" cy="338" r="5"/><circle cx="1688" cy="356" r="6"/><circle cx="1767" cy="332" r="5"/><circle cx="1897" cy="369" r="5"/><circle cx="1959" cy="335" r="5"/><circle cx="2003" cy="350" r="5"/><circle cx="2154" cy="386" r="4"/><circle cx="2170" cy="361" r="5"/><circle cx="2265" cy="380" r="6"/><circle cx="2333" cy="375" r="5"/><circle cx="2466" cy="394" r="6"/><circle cx="2534" cy="370" r="5"/><circle cx="47" cy="456" r="5"/><circle cx="92" cy="432" r="5"/><circle cx="161" cy="460" r="5"/><circle cx="241" cy="437" r="5"/><circle cx="389" cy="440" r="6"/><circle cx="409" cy="426" r="5"/><circle cx="524" cy="469" r="6"/><circle cx="567" cy="459" r="5"/><circle cx="642" cy="441" r="5"/><circle cx="795" cy="410" r="6"/><circle cx="879" cy="438" r="4"/><circle cx="884" cy="418" r="6"/><circle cx="1019" cy="442" r="5"/><circle cx="1051" cy="418" r="4"/><circle cx="1165" cy="441" r="5"/><circle cx="1202" cy="469" r="5"/><circle cx="1310" cy="451" r="6"/><circle cx="1373" cy="403" r="4"/><circle cx="1444" cy="453" r="5"/><circle cx="1560" cy="463" r="4"/><circle cx="1616" cy="466" r="4"/><circle cx="1723" cy="401" r="6"/><circle cx="1824" cy="458" r="6"/><circle cx="1905" cy="462" r="4"/><circle cx="1976" cy="446" r="5"/><circle cx="2052" cy="431" r="6"/><circle cx="2142" cy="466" r="4"/><circle cx="2231" cy="404" r="6"/><circle cx="2241" cy="431" r="5"/><circle cx="2348" cy="454" r="5"/><circle cx="2454" cy="438" r="5"/><circle cx="2499" cy="438" r="5"/><circle cx="20" cy="494" r="4"/><circle cx="80" cy="528" r="6"/><circle cx="175" cy="520" r="5"/><circle cx="247" cy="528" r="5"/><circle cx="385" cy="522" r="5"/><circle cx="472" cy="557" r="5"/><circle cx="512" cy="559" r="4"/><circle cx="576" cy="527" r="6"/><circle cx="704" cy="560" r="6"/><circle cx="794" cy="532" r="5"/><circle cx="827" cy="557" r="5"/><circle cx="889" cy="488" r="5"/><circle cx="969" cy="496" r="6"/><circle cx="1096" cy="557" r="4"/><circle cx="1166" cy="545" r="6"/><circle cx="1249" cy="525" r="5"/><circle cx="1353" cy="493" r="4"/><circle cx="1438" cy="534" r="6"/><circle cx="1440" cy="539" r="5"/><circle cx="1544" cy="535" r="5"/><circle cx="1631" cy="480" r="6"/><circle cx="1713" cy="556" r="5"/><circle cx="1809" cy="487" r="5"/><circle cx="1861" cy="489" r="5"/><circle cx="1966" cy="538" r="5"/><circle cx="2077" cy="520" r="5"/><circle cx="2097" cy="501" r="4"/><circle cx="2219" cy="492" r="5"/><circle cx="2248" cy="501" r="6"/><circle cx="2349" cy="536" r="5"/><circle cx="2402" cy="502" r="5"/><circle cx="2503" cy="495" r="5"/><circle cx="53" cy="614" r="4"/><circle cx="117" cy="624" r="6"/><circle cx="225" cy="594" r="6"/><circle cx="316" cy="613" r="6"/><circle cx="379" cy="610" r="5"/><circle cx="406" cy="630" r="4"/><circle cx="494" cy="614" r="4"/><circle cx="611" cy="637" r="5"/><circle cx="648" cy="636" r="6"/><circle cx="778" cy="636" r="6"/><circle cx="838" cy="565" r="5"/><circle cx="903" cy="583" r="4"/><circle cx="994" cy="636" r="6"/><circle cx="1100" cy="630" r="6"/><circle cx="1151" cy="566" r="4"/><circle cx="1241" cy="581" r="6"/><circle cx="1348" cy="598" r="6"/><circle cx="1387" cy="564" r="5"/><circle cx="1468" cy="581" r="5"/><circle cx="1576" cy="596" r="5"/><circle cx="1622" cy="605" r="5"/><circle cx="1736" cy="587" r="5"/><circle cx="1817" cy="575" r="5"/><circle cx="1897" cy="566" r="4"/><circle cx="1975" cy="576" r="5"/><circle cx="2020" cy="602" r="5"/><circle cx="2083" cy="607" r="5"/><circle cx="2222" cy="603" r="4"/><circle cx="2248" cy="574" r="5"/><circle cx="2344" cy="639" r="5"/><circle cx="2421" cy="603" r="5"/><circle cx="2542" cy="575" r="5"/><circle cx="41" cy="698" r="6"/><circle cx="132" cy="666" r="5"/><circle cx="228" cy="706" r="5"/><circle cx="316" cy="652" r="5"/><circle cx="365" cy="668" r="5"/><circle cx="424" cy="653" r="5"/><circle cx="517" cy="714" r="6"/><circle cx="585" cy="665" r="5"/><circle cx="716" cy="705" r="5"/><circle cx="730" cy="669" r="4"/><circle cx="822" cy="713" r="6"/><circle cx="901" cy="708" r="4"/><circle cx="964" cy="654" r="5"/><circle cx="1042" cy="683" r="4"/><circle cx="1154" cy="712" r="6"/><circle cx="1224" cy="648" r="5"/><circle cx="1296" cy="697" r="4"/><circle cx="1421" cy="677" r="5"/><circle cx="1520" cy="657" r="5"/><circle cx="1551" cy="691" r="5"/><circle cx="1642" cy="655" r="5"/><circle cx="1739" cy="656" r="5"/><circle cx="1828" cy="664" r="6"/><circle cx="1857" cy="665" r="5"/><circle cx="1950" cy="677" r="6"/><circle cx="2048" cy="715" r="6"/><circle cx="2095" cy="667" r="4"/><circle cx="2230" cy="644" r="6"/><circle cx="2243" cy="696" r="5"/><circle cx="2390" cy="662" r="5"/><circle cx="2442" cy="693" r="4"/><circle cx="2532" cy="715" r="5"/><circle cx="20" cy="783" r="5"/><circle cx="146" cy="780" r="4"/><circle cx="218" cy="784" r="5"/><circle cx="295" cy="752" r="5"/><circle cx="350" cy="755" r="5"/><circle cx="459" cy="798" r="4"/><circle cx="510" cy="799" r="5"/><circle cx="582" cy="749" r="5"/><circle cx="652" cy="792" r="5"/><circle cx="765" cy="721" r="4"/><circle cx="831" cy="770" r="5"/><circle cx="910" cy="779" r="5"/><circle cx="1038" cy="788" r="5"/><circle cx="1055" cy="768" r="6"/><circle cx="1173" cy="795" r="6"/><circle cx="1213" cy="783" r="5"/><circle cx="1312" cy="785" r="6"/><circle cx="1395" cy="790" r="5"/><circle cx="1510" cy="772" r="4"/><circle cx="1564" cy="782" r="6"/><circle cx="1612" cy="751" r="4"/><circle cx="1723" cy="756" r="5"/><circle cx="1824" cy="761" r="4"/><circle cx="1849" cy="781" r="5"/><circle cx="1984" cy="799" r="5"/><circle cx="2057" cy="736" r="4"/><circle cx="2148" cy="751" r="5"/><circle cx="2235" cy="749" r="6"/><circle cx="2297" cy="790" r="4"/><circle cx="2374" cy="742" r="5"/><circle cx="2420" cy="771" r="5"/><circle cx="2545" cy="727" r="4"/><circle cx="23" cy="818" r="4"/><circle cx="142" cy="862" r="6"/><circle cx="161" cy="864" r="5"/><circle cx="247" cy="826" r="5"/><circle cx="341" cy="820" r="5"/><circle cx="439" cy="851" r="6"/><circle cx="523" cy="861" r="4"/><circle cx="570" cy="855" r="6"/><circle cx="707" cy="871" r="6"/><circle cx="794" cy="838" r="4"/><circle cx="805" cy="873" r="5"/><circle cx="958" cy="834" r="6"/><circle cx="1013" cy="851" r="5"/><circle cx="1049" cy="844" r="6"/><circle cx="1147" cy="827" r="6"/><circle cx="1237" cy="867" r="5"/><circle cx="1296" cy="844" r="5"/><circle cx="1406" cy="819" r="6"/><circle cx="1462" cy="814" r="5"/><circle cx="1588" cy="802" r="5"/><circle cx="1675" cy="872" r="4"/><circle cx="1704" cy="866" r="4"/><circle cx="1785" cy="819" r="5"/><circle cx="1894" cy="844" r="5"/><circle cx="1966" cy="814" r="4"/><circle cx="2001" cy="851" r="4"/><circle cx="2082" cy="814" r="5"/><circle cx="2237" cy="871" r="5"/><circle cx="2286" cy="846" r="4"/><circle cx="2380" cy="814" r="5"/><circle cx="2429" cy="866" r="6"/><circle cx="2541" cy="848" r="6"/><circle cx="68" cy="925" r="6"/><circle cx="101" cy="925" r="4"/><circle cx="195" cy="889" r="5"/><circle cx="259" cy="904" r="4"/><circle cx="387" cy="914" r="5"/><circle cx="422" cy="885" r="6"/><circle cx="533" cy="956" r="5"/><circle cx="571" cy="957" r="5"/><circle cx="668" cy="884" r="5"/><circle cx="731" cy="904" r="4"/><circle cx="880" cy="881" r="5"/><circle cx="919" cy="959" r="4"/><circle cx="963" cy="894" r="6"/><circle cx="1046" cy="912" r="4"/><circle cx="1164" cy="949" r="6"/><circle cx="1224" cy="948" r="5"/><circle cx="1338" cy="949" r="6"/><circle cx="1434" cy="945" r="5"/><circle cx="1460" cy="945" r="4"/><circle cx="1569" cy="901" r="5"/><circle cx="1640" cy="905" r="6"/><circle cx="1683" cy="922" r="4"/><circle cx="1776" cy="902" r="6"/><circle cx="1888" cy="894" r="6"/><circle cx="1928" cy="951" r="5"/><circle cx="2042" cy="923" r="5"/><circle cx="2150" cy="939" r="4"/><circle cx="2162" cy="901" r="4"/><circle cx="2286" cy="949" r="6"/><circle cx="2329" cy="931" r="5"/><circle cx="2465" cy="881" r="4"/><circle cx="2543" cy="941" r="6"/><circle cx="34" cy="1027" r="4"/><circle cx="145" cy="997" r="6"/><circle cx="204" cy="1011" r="6"/><circle cx="296" cy="1020" r="5"/><circle cx="378" cy="963" r="5"/><circle cx="411" cy="1038" r="4"/><circle cx="558" cy="974" r="4"/><circle cx="601" cy="968" r="5"/><circle cx="686" cy="985" r="6"/><circle cx="784" cy="999" r="4"/><circle cx="820" cy="1003" r="5"/><circle cx="951" cy="972" r="5"/><circle cx="1037" cy="1026" r="4"/><circle cx="1108" cy="1018" r="5"/><circle cx="1184" cy="982" r="5"/><circle cx="1232" cy="966" r="4"/><circle cx="1349" cy="1028" r="4"/><circle cx="1397" cy="976" r="5"/><circle cx="1470" cy="998" r="5"/><circle cx="1565" cy="1001" r="4"/><circle cx="1628" cy="966" r="4"/><circle cx="1706" cy="1018" r="6"/><circle cx="1762" cy="1031" r="4"/><circle cx="1851" cy="970" r="5"/><circle cx="1924" cy="1019" r="5"/><circle cx="2057" cy="1029" r="5"/><circle cx="2129" cy="985" r="6"/><circle cx="2238" cy="1033" r="5"/><circle cx="2280" cy="1025" r="5"/><circle cx="2340" cy="964" r="5"/><circle cx="2440" cy="1015" r="6"/><circle cx="2551" cy="1032" r="5"/><circle cx="2" cy="1107" r="5"/><circle cx="2562" cy="1107" r="5"/><circle cx="94" cy="1112" r="5"/><circle cx="223" cy="1060" r="5"/><circle cx="317" cy="1118" r="5"/><circle cx="323" cy="1062" r="4"/><circle cx="459" cy="1082" r="5"/><circle cx="515" cy="1071" r="4"/><circle cx="562" cy="1062" r="5"/><circle cx="683" cy="1114" r="4"/><circle cx="771" cy="1101" r="6"/><circle cx="823" cy="1102" r="5"/><circle cx="929" cy="1062" r="6"/><circle cx="987" cy="1114" r="5"/><circle cx="1049" cy="1098" r="5"/><circle cx="1145" cy="1089" r="6"/><circle cx="1230" cy="1053" r="5"/><circle cx="1336" cy="1040" r="4"/><circle cx="1417" cy="1080" r="6"/><circle cx="1507" cy="1111" r="6"/><circle cx="1576" cy="1084" r="4"/><circle cx="1657" cy="1096" r="4"/><circle cx="1711" cy="1087" r="5"/><circle cx="1804" cy="1087" r="5"/><circle cx="1917" cy="1108" r="6"/><circle cx="1961" cy="1061" r="5"/><circle cx="2030" cy="1051" r="5"/><circle cx="2112" cy="1118" r="6"/><circle cx="2196" cy="1070" r="5"/><circle cx="2251" cy="1106" r="5"/><circle cx="2331" cy="1078" r="5"/><circle cx="2477" cy="1048" r="6"/><circle cx="2525" cy="1098" r="5"/><circle cx="40" cy="1187" r="4"/><circle cx="99" cy="1170" r="6"/><circle cx="230" cy="1125" r="5"/><circle cx="274" cy="1180" r="4"/><circle cx="324" cy="1139" r="4"/><circle cx="401" cy="1141" r="5"/><circle cx="527" cy="1158" r="5"/><circle cx="624" cy="1129" r="5"/><circle cx="681" cy="1182" r="4"/><circle cx="754" cy="1169" r="4"/><circle cx="824" cy="1165" r="5"/><circle cx="922" cy="1197" r="6"/><circle cx="995" cy="1175" r="5"/><circle cx="1085" cy="1192" r="4"/><circle cx="1164" cy="1181" r="6"/><circle cx="1236" cy="1187" r="5"/><circle cx="1354" cy="1172" r="6"/><circle cx="1395" cy="1150" r="5"/><circle cx="1520" cy="1120" r="6"/><circle cx="1543" cy="1127" r="4"/><circle cx="1621" cy="1181" r="6"/><circle cx="1719" cy="1192" r="5"/><circle cx="1791" cy="1173" r="6"/><circle cx="1892" cy="1182" r="4"/><circle cx="1986" cy="1186" r="6"/><circle cx="2029" cy="1170" r="5"/><circle cx="2125" cy="1138" r="4"/><circle cx="2237" cy="1130" r="5"/><circle cx="2319" cy="1133" r="5"/><circle cx="2356" cy="1136" r="6"/><circle cx="2411" cy="1157" r="6"/><circle cx="2497" cy="1159" r="5"/><circle cx="22" cy="1248" r="4"/><circle cx="154" cy="1234" r="5"/><circle cx="237" cy="1211" r="4"/><circle cx="266" cy="1241" r="5"/><circle cx="338" cy="1206" r="5"/><circle cx="451" cy="1260" r="6"/><circle cx="503" cy="1256" r="6"/><circle cx="629" cy="1235" r="6"/><circle cx="662" cy="1237" r="4"/><circle cx="771" cy="1206" r="6"/><circle cx="876" cy="1235" r="4"/><circle cx="903" cy="1237" r="4"/><circle cx="1015" cy="1235" r="4"/><circle cx="1084" cy="1225" r="5"/><circle cx="1162" cy="1230" r="5"/><circle cx="1254" cy="1279" r="4"/><circle cx="1352" cy="1262" r="5"/><circle cx="1392" cy="1253" r="5"/><circle cx="1449" cy="1201" r="5"/><circle cx="1596" cy="1219" r="4"/><circle cx="1656" cy="1264" r="5"/><circle cx="1731" cy="1209" r="5"/><circle cx="1770" cy="1224" r="5"/><circle cx="1906" cy="1276" r="5"/><circle cx="1972" cy="1201" r="5"/><circle cx="2030" cy="1243" r="6"/><circle cx="2150" cy="1265" r="4"/><circle cx="2190" cy="1238" r="5"/><circle cx="2252" cy="1215" r="6"/><circle cx="2326" cy="1242" r="6"/><circle cx="2453" cy="1230" r="4"/><circle cx="2557" cy="1214" r="6"/><circle cx="-3" cy="1214" r="6"/><circle cx="8" cy="1330" r="5"/><circle cx="123" cy="1332" r="5"/><circle cx="209" cy="1289" r="6"/><circle cx="261" cy="1332" r="5"/><circle cx="373" cy="1327" r="6"/><circle cx="416" cy="1329" r="5"/><circle cx="484" cy="1341" r="5"/><circle cx="596" cy="1307" r="5"/><circle cx="676" cy="1341" r="6"/><circle cx="792" cy="1314" r="4"/><circle cx="836" cy="1343" r="6"/><circle cx="897" cy="1313" r="5"/><circle cx="1023" cy="1330" r="5"/><circle cx="1097" cy="1314" r="5"/><circle cx="1129" cy="1345" r="5"/><circle cx="1222" cy="1297" r="5"/><circle cx="1292" cy="1307" r="6"/><circle cx="1383" cy="1357" r="5"/><circle cx="1510" cy="1323" r="5"/><circle cx="1592" cy="1291" r="4"/><circle cx="1662" cy="1301" r="6"/><circle cx="1702" cy="1321" r="4"/><circle cx="1764" cy="1309" r="5"/><circle cx="1900" cy="1315" r="6"/><circle cx="1997" cy="1345" r="6"/><circle cx="2037" cy="1335" r="4"/><circle cx="2091" cy="1327" r="5"/><circle cx="2191" cy="1293" r="6"/><circle cx="2311" cy="1354" r="4"/><circle cx="2348" cy="1312" r="6"/><circle cx="2417" cy="1283" r="5"/><circle cx="2497" cy="1293" r="5"/><circle cx="73" cy="1365" r="6"/><circle cx="83" cy="1426" r="5"/><circle cx="206" cy="1427" r="4"/><circle cx="280" cy="1367" r="6"/><circle cx="357" cy="1373" r="5"/><circle cx="423" cy="1424" r="5"/><circle cx="517" cy="1370" r="6"/><circle cx="605" cy="1437" r="5"/><circle cx="605" cy="-3" r="5"/><circle cx="715" cy="1412" r="5"/><circle cx="794" cy="1437" r="5"/><circle cx="794" cy="-3" r="5"/><circle cx="834" cy="1401" r="4"/><circle cx="889" cy="1425" r="6"/><circle cx="987" cy="1380" r="5"/><circle cx="1103" cy="1398" r="5"/><circle cx="1143" cy="1431" r="4"/><circle cx="1268" cy="1405" r="6"/><circle cx="1352" cy="1368" r="4"/><circle cx="1371" cy="1425" r="5"/><circle cx="1454" cy="1360" r="5"/><circle cx="1593" cy="1374" r="5"/><circle cx="1632" cy="1374" r="4"/><circle cx="1755" cy="1367" r="6"/><circle cx="1808" cy="1433" r="5"/><circle cx="1910" cy="1383" r="5"/><circle cx="1966" cy="1431" r="4"/><circle cx="2076" cy="1438" r="4"/><circle cx="2076" cy="-2" r="4"/><circle cx="2108" cy="1371" r="4"/><circle cx="2222" cy="1409" r="4"/><circle cx="2297" cy="1425" r="5"/><circle cx="2331" cy="1392" r="6"/><circle cx="2469" cy="1414" r="4"/><circle cx="2543" cy="1424" r="5"/><path stroke="#fff" d="M2 29L-54 62M2 29L92 81M2 29L-46 91M2 29L83 -14M2 29L-17 -16M2562 29L2506 62M2562 29L2514 91M2562 29L2543 -16M2 1469L83 1426M2 1469L-17 1424M2562 1469L2543 1424M153 77L195 31M153 77L92 81M153 77L203 128M195 31L268 77M195 31L206 -13M195 1471L206 1427M268 77L203 128M268 77L246 144M268 77L328 118M268 77L266 167M384 32L414 79M384 32L403 94M384 32L423 -16M384 1472L423 1424M414 79L328 118M414 79L403 94M414 79L390 198M414 79L423 -16M414 1519L423 1424M540 48L616 6M540 48L545 109M540 48L605 -3M540 1488L605 1437M616 6L681 35M616 6L676 -99M616 6L605 -3M616 6L715 -28M616 1446L676 1341M616 1446L605 1437M616 1446L715 1412M681 35L748 74M681 35L605 -3M681 35L715 -28M681 1475L605 1437M681 1475L715 1412M748 74L750 157M841 19L928 14M841 19L902 97M841 19L794 -3M841 19L834 -39M841 19L889 -15M841 1459L794 1437M841 1459L834 1401M841 1459L889 1425M928 14L968 37M928 14L902 97M928 14L889 -15M928 14L987 -60M928 1454L889 1425M928 1454L987 1380M968 37L1052 54M968 37L902 97M968 37L987 -60M968 1477L987 1380M1052 54L1139 8M1052 54L1012 147M1139 8L1229 32M1139 8L1129 -95M1139 8L1103 -42M1139 8L1143 -9M1139 1448L1129 1345M1139 1448L1103 1398M1139 1448L1143 1431M1229 32L1280 72M1229 32L1246 90M1229 32L1143 -9M1229 32L1268 -35M1229 1472L1143 1431M1229 1472L1268 1405M1280 72L1183 132M1280 72L1246 90M1280 72L1299 119M1280 72L1268 -35M1280 1512L1268 1405M1392 57L1467 41M1392 57L1399 109M1392 57L1443 131M1392 57L1371 -15M1392 1497L1371 1425M1467 41L1559 68M1467 41L1399 109M1467 41L1443 131M1559 68L1606 68M1559 68L1593 82M1559 68L1631 87M1559 68L1555 172M1606 68L1695 59M1606 68L1593 82M1606 68L1631 87M1695 59L1593 82M1695 59L1631 87M1695 59L1745 91M1695 59L1762 119M1824 3L1883 62M1824 3L1877 95M1824 3L1755 -73M1824 3L1808 -7M1824 3L1910 -57M1824 1443L1755 1367M1824 1443L1808 1433M1824 1443L1910 1383M1883 62L1981 75M1883 62L1877 95M1883 62L1920 121M1883 62L1808 -7M1883 1502L1808 1433M1981 75L2050 52M1981 75L1920 121M1981 75L2057 141M1981 75L1966 -9M1981 1515L1966 1431M2050 52L2130 4M2050 52L2057 141M2050 52L2076 -2M2050 1492L2076 1438M2130 4L2176 63M2130 4L2076 -2M2130 4L2108 -69M2130 4L2222 -31M2130 1444L2076 1438M2130 1444L2108 1371M2130 1444L2222 1409M2176 63L2194 127M2176 63L2222 -31M2176 1503L2222 1409M2283 39L2363 36M2283 39L2289 127M2283 39L2353 97M2283 39L2297 -15M2283 39L2331 -48M2283 1479L2297 1425M2283 1479L2331 1392M2363 36L2410 70M2363 36L2353 97M2363 36L2297 -15M2363 36L2331 -48M2363 1476L2297 1425M2363 1476L2331 1392M2410 70L2506 62M2410 70L2353 97M2410 70L2427 153M2410 70L2514 91M2506 62L2514 91M2506 62L2469 -26M2506 62L2543 -16M2506 1502L2469 1414M2506 1502L2543 1424M57 128L92 81M57 128L-46 91M57 128L48 183M2617 128L2514 91M92 81L48 183M92 81L83 -14M92 1521L83 1426M203 128L246 144M203 128L162 179M203 128L266 167M246 144L328 118M246 144L162 179M246 144L266 167M328 118L403 94M328 118L266 167M403 94L390 198M545 109L630 144M545 109L512 202M545 109L573 170M630 144L669 154M630 144L573 170M630 144L642 169M669 154L750 157M669 154L573 170M669 154L642 169M750 157L832 145M750 157L642 169M750 157L764 209M832 145L902 97M832 145L764 209M832 145L857 202M832 145L894 208M1012 147L1088 158M1012 147L994 187M1088 158L1183 132M1088 158L994 187M1088 158L1087 216M1088 158L1136 183M1183 132L1246 90M1183 132L1299 119M1183 132L1136 183M1246 90L1299 119M1299 119L1399 109M1399 109L1443 131M1399 109L1379 207M1443 131L1379 207M1443 131L1514 167M1593 82L1631 87M1593 82L1555 172M1631 87L1664 192M1745 91L1762 119M1745 91L1808 -7M1745 1531L1808 1433M1762 119L1720 195M1762 119L1832 201M1877 95L1920 121M1877 95L1916 173M1920 121L1832 201M1920 121L1916 173M2057 141L2100 139M2057 141L1991 211M2057 141L2073 202M2100 139L2194 127M2100 139L2073 202M2100 139L2158 175M2100 139L2167 182M2194 127L2289 127M2194 127L2158 175M2194 127L2167 182M2289 127L2353 97M2289 127L2273 240M2353 97L2427 153M2427 153L2443 228M2427 153L2499 216M48 183L162 179M48 183L-61 216M2608 183L2499 216M160 239L162 179M160 239L114 301M160 239L194 302M160 239L271 274M160 239L173 352M162 179L266 167M390 198L454 226M454 226L512 202M454 226L466 294M512 202L573 170M512 202L547 281M573 170L642 169M642 169L637 264M764 209L857 202M764 209L691 268M764 209L723 294M857 202L894 208M894 208L948 260M994 187L1087 216M994 187L948 260M994 187L1014 259M1087 216L1136 183M1087 216L1014 259M1087 216L1068 247M1136 183L1068 247M1270 237L1332 221M1270 237L1274 310M1270 237L1339 247M1270 237L1278 350M1332 221L1379 207M1332 221L1339 247M1332 221L1381 274M1379 207L1339 247M1379 207L1381 274M1514 167L1555 172M1514 167L1478 249M1555 172L1664 192M1555 172L1576 273M1664 192L1720 195M1664 192L1576 273M1664 192L1718 268M1720 195L1718 268M1720 195L1794 279M1832 201L1916 173M1832 201L1794 279M1832 201L1857 310M1916 173L1991 211M1916 173L1990 256M1991 211L2073 202M1991 211L1990 256M2073 202L2167 182M2073 202L2063 299M2158 175L2167 182M2167 182L2193 262M2273 240L2351 228M2273 240L2193 262M2273 240L2294 266M2273 240L2372 246M2351 228L2443 228M2351 228L2294 266M2351 228L2372 246M2443 228L2499 216M2443 228L2372 246M2443 228L2404 318M2499 216L2496 319M29 307L114 301M29 307L8 350M29 307L97 363M29 307L-26 370M2589 307L2534 370M114 301L194 302M114 301L97 363M114 301L173 352M194 302L271 274M194 302L173 352M271 274L335 316M271 274L276 388M335 316L276 388M335 316L395 353M335 316L432 368M466 294L547 281M466 294L395 353M466 294L432 368M466 294L544 332M547 281L544 332M547 281L585 340M637 264L691 268M637 264L723 294M637 264L585 340M691 268L723 294M691 268L677 346M691 268L755 324M723 294L677 346M723 294L755 324M858 314L833 354M858 314L949 339M858 314L795 410M858 314L884 418M948 260L1014 259M948 260L949 339M1014 259L1068 247M1014 259L1003 351M1068 247L1156 310M1156 310L1088 384M1156 310L1154 334M1274 310L1278 350M1274 310L1302 324M1274 310L1374 334M1339 247L1381 274M1339 247L1302 324M1381 274L1302 324M1381 274L1374 334M1478 249L1576 273M1478 249L1482 348M1576 273L1662 314M1576 273L1662 338M1662 314L1718 268M1662 314L1662 338M1662 314L1688 356M1662 314L1723 401M1718 268L1794 279M1718 268L1767 332M1794 279L1857 310M1794 279L1767 332M1857 310L1767 332M1857 310L1897 369M1857 310L1959 335M1990 256L2063 299M1990 256L1959 335M1990 256L2003 350M2063 299L2131 311M2063 299L1959 335M2063 299L2003 350M2131 311L2193 262M2131 311L2154 386M2131 311L2170 361M2193 262L2294 266M2294 266L2372 246M2294 266L2265 380M2372 246L2404 318M2404 318L2496 319M2404 318L2333 375M2404 318L2466 394M2496 319L2568 350M2496 319L2466 394M2496 319L2534 370M-64 319L8 350M8 350L97 363M8 350L-26 370M2568 350L2534 370M97 363L173 352M97 363L92 432M173 352L241 437M276 388L241 437M276 388L389 440M395 353L432 368M395 353L389 440M395 353L409 426M432 368L389 440M432 368L409 426M544 332L585 340M585 340L677 346M585 340L642 441M677 346L755 324M677 346L642 441M755 324L833 354M755 324L795 410M833 354L795 410M833 354L879 438M833 354L884 418M949 339L1003 351M1003 351L1088 384M1003 351L1019 442M1003 351L1051 418M1088 384L1154 334M1088 384L1019 442M1088 384L1051 418M1154 334L1165 441M1278 350L1302 324M1278 350L1374 334M1278 350L1310 451M1302 324L1374 334M1374 334L1373 403M1482 348L1529 379M1529 379L1444 453M1529 379L1560 463M1529 379L1616 466M1662 338L1688 356M1662 338L1723 401M1688 356L1767 332M1688 356L1723 401M1767 332L1723 401M1897 369L1959 335M1897 369L1905 462M1959 335L2003 350M2003 350L1976 446M2003 350L2052 431M2154 386L2170 361M2154 386L2142 466M2154 386L2231 404M2170 361L2265 380M2170 361L2231 404M2170 361L2241 431M2265 380L2333 375M2265 380L2231 404M2265 380L2241 431M2333 375L2348 454M2466 394L2534 370M2466 394L2454 438M2466 394L2499 438M2534 370L2499 438M47 456L92 432M47 456L20 494M47 456L80 528M92 432L161 460M92 432L20 494M92 432L80 528M161 460L241 437M161 460L175 520M161 460L247 528M241 437L175 520M241 437L247 528M389 440L409 426M389 440L385 522M409 426L385 522M524 469L567 459M524 469L642 441M524 469L472 557M524 469L512 559M524 469L576 527M567 459L642 441M567 459L512 559M567 459L576 527M642 441L576 527M795 410L879 438M795 410L884 418M879 438L884 418M879 438L889 488M879 438L969 496M884 418L889 488M1019 442L1051 418M1019 442L969 496M1051 418L969 496M1165 441L1202 469M1202 469L1310 451M1202 469L1166 545M1202 469L1249 525M1310 451L1373 403M1310 451L1249 525M1310 451L1353 493M1373 403L1444 453M1444 453L1438 534M1444 453L1440 539M1560 463L1616 466M1560 463L1544 535M1560 463L1631 480M1616 466L1631 480M1723 401L1824 458M1824 458L1905 462M1824 458L1809 487M1824 458L1861 489M1905 462L1976 446M1905 462L1861 489M1905 462L1966 538M1976 446L2052 431M1976 446L1966 538M2052 431L2142 466M2052 431L2077 520M2052 431L2097 501M2142 466L2077 520M2142 466L2097 501M2142 466L2219 492M2231 404L2241 431M2231 404L2219 492M2241 431L2219 492M2241 431L2248 501M2348 454L2454 438M2348 454L2349 536M2348 454L2402 502M2454 438L2499 438M2454 438L2402 502M2454 438L2503 495M2499 438L2503 495M20 494L80 528M20 494L-57 495M20 494L-18 575M2580 494L2503 495M2580 494L2542 575M80 528L175 520M80 528L53 614M175 520L247 528M175 520L225 594M247 528L225 594M385 522L472 557M472 557L512 559M472 557L576 527M472 557L494 614M512 559L576 527M512 559L494 614M704 560L794 532M704 560L648 636M794 532L827 557M794 532L838 565M827 557L889 488M827 557L778 636M827 557L838 565M827 557L903 583M889 488L969 496M889 488L838 565M969 496L903 583M1096 557L1166 545M1096 557L1100 630M1096 557L1151 566M1166 545L1249 525M1166 545L1151 566M1166 545L1241 581M1249 525L1241 581M1353 493L1438 534M1353 493L1348 598M1353 493L1387 564M1438 534L1440 539M1438 534L1387 564M1438 534L1468 581M1440 539L1387 564M1440 539L1468 581M1544 535L1631 480M1544 535L1468 581M1544 535L1576 596M1544 535L1622 605M1631 480L1713 556M1713 556L1622 605M1713 556L1736 587M1713 556L1739 656M1809 487L1861 489M1809 487L1817 575M1861 489L1817 575M1861 489L1897 566M1966 538L1897 566M1966 538L1975 576M1966 538L2020 602M2077 520L2097 501M2077 520L2020 602M2077 520L2083 607M2219 492L2248 501M2219 492L2248 574M2248 501L2349 536M2248 501L2222 603M2248 501L2248 574M2349 536L2402 502M2349 536L2344 639M2349 536L2421 603M2402 502L2503 495M2402 502L2421 603M2503 495L2542 575M53 614L117 624M53 614L-18 575M53 614L41 698M53 614L132 666M2613 614L2542 575M117 624L225 594M117 624L132 666M225 594L316 613M225 594L228 706M316 613L379 610M316 613L406 630M316 613L316 652M316 613L365 668M379 610L406 630M379 610L316 652M379 610L365 668M379 610L424 653M406 630L316 652M406 630L365 668M406 630L424 653M494 614L424 653M494 614L585 665M611 637L648 636M611 637L585 665M611 637L582 749M648 636L585 665M648 636L716 705M648 636L730 669M778 636L716 705M778 636L730 669M778 636L822 713M778 636L765 721M838 565L903 583M903 583L994 636M903 583L964 654M994 636L1100 630M994 636L901 708M994 636L964 654M994 636L1042 683M1100 630L1151 566M1100 630L1042 683M1100 630L1154 712M1151 566L1241 581M1151 566L1224 648M1241 581L1348 598M1241 581L1224 648M1348 598L1387 564M1348 598L1296 697M1348 598L1421 677M1387 564L1468 581M1468 581L1520 657M1576 596L1622 605M1576 596L1520 657M1576 596L1642 655M1622 605L1642 655M1736 587L1817 575M1736 587L1739 656M1817 575L1897 566M1817 575L1828 664M1897 566L1975 576M1975 576L2020 602M1975 576L2083 607M1975 576L1950 677M2020 602L2083 607M2020 602L1950 677M2083 607L2095 667M2222 603L2248 574M2222 603L2230 644M2222 603L2243 696M2248 574L2230 644M2344 639L2421 603M2344 639L2230 644M2344 639L2390 662M2421 603L2390 662M2421 603L2442 693M41 698L132 666M41 698L-28 715M41 698L20 783M41 698L-15 727M2601 698L2532 715M2601 698L2545 727M132 666L228 706M132 666L146 780M228 706L316 652M228 706L218 784M228 706L295 752M316 652L365 668M365 668L424 653M424 653L517 714M517 714L585 665M517 714L459 798M517 714L510 799M517 714L582 749M585 665L582 749M716 705L730 669M716 705L822 713M716 705L765 721M730 669L765 721M822 713L901 708M822 713L765 721M822 713L831 770M901 708L964 654M901 708L831 770M901 708L910 779M964 654L1042 683M1042 683L1055 768M1154 712L1224 648M1154 712L1173 795M1154 712L1213 783M1224 648L1296 697M1296 697L1421 677M1296 697L1312 785M1421 677L1520 657M1421 677L1395 790M1520 657L1551 691M1551 691L1642 655M1551 691L1510 772M1551 691L1564 782M1551 691L1612 751M1642 655L1739 656M1642 655L1612 751M1739 656L1828 664M1739 656L1723 756M1828 664L1857 665M1828 664L1950 677M1828 664L1824 761M1857 665L1950 677M1857 665L1824 761M1857 665L1849 781M1950 677L2048 715M2048 715L2095 667M2048 715L2057 736M2048 715L2148 751M2048 715L2082 814M2095 667L2057 736M2095 667L2148 751M2230 644L2243 696M2230 644L2235 749M2243 696L2235 749M2390 662L2442 693M2390 662L2374 742M2390 662L2420 771M2442 693L2532 715M2442 693L2374 742M2442 693L2420 771M2532 715L2580 783M2532 715L2545 727M-28 715L20 783M20 783L-15 727M20 783L23 818M20 783L-19 848M2580 783L2545 727M2580 783L2541 848M146 780L218 784M146 780L142 862M146 780L161 864M218 784L295 752M218 784L247 826M295 752L350 755M295 752L247 826M295 752L341 820M350 755L341 820M459 798L510 799M459 798L439 851M459 798L422 885M510 799L439 851M510 799L523 861M510 799L570 855M582 749L652 792M582 749L570 855M652 792L707 871M652 792L668 884M765 721L831 770M831 770L910 779M831 770L794 838M910 779L958 834M1038 788L1055 768M1038 788L1013 851M1038 788L1049 844M1055 768L1049 844M1055 768L1147 827M1173 795L1213 783M1173 795L1147 827M1173 795L1237 867M1213 783L1312 785M1213 783L1147 827M1213 783L1237 867M1312 785L1395 790M1312 785L1296 844M1312 785L1406 819M1395 790L1296 844M1395 790L1406 819M1395 790L1462 814M1510 772L1564 782M1510 772L1406 819M1510 772L1462 814M1510 772L1588 802M1564 782L1612 751M1564 782L1462 814M1564 782L1588 802M1612 751L1723 756M1612 751L1588 802M1723 756L1824 761M1723 756L1785 819M1824 761L1849 781M1824 761L1785 819M1849 781L1785 819M1849 781L1894 844M1849 781L1888 894M1984 799L2057 736M1984 799L1894 844M1984 799L1966 814M1984 799L2001 851M1984 799L2082 814M2057 736L2148 751M2057 736L2082 814M2148 751L2235 749M2148 751L2082 814M2235 749L2297 790M2235 749L2286 846M2297 790L2374 742M2297 790L2237 871M2297 790L2286 846M2297 790L2380 814M2374 742L2420 771M2374 742L2380 814M2420 771L2380 814M2420 771L2429 866M2545 727L2583 818M-15 727L23 818M23 818L-19 848M2583 818L2541 848M142 862L161 864M142 862L68 925M142 862L101 925M142 862L195 889M161 864L247 826M161 864L101 925M161 864L195 889M247 826L195 889M247 826L259 904M341 820L387 914M341 820L422 885M439 851L523 861M439 851L387 914M439 851L422 885M523 861L570 855M523 861L533 956M570 855L571 957M570 855L668 884M707 871L794 838M707 871L805 873M707 871L668 884M707 871L731 904M794 838L805 873M794 838L731 904M794 838L880 881M805 873L731 904M805 873L880 881M958 834L1013 851M958 834L1049 844M958 834L880 881M958 834L963 894M1013 851L1049 844M1013 851L963 894M1013 851L1046 912M1049 844L1046 912M1147 827L1237 867M1147 827L1164 949M1237 867L1296 844M1237 867L1224 948M1296 844L1406 819M1296 844L1338 949M1406 819L1462 814M1588 802L1569 901M1675 872L1704 866M1675 872L1569 901M1675 872L1640 905M1675 872L1683 922M1704 866L1785 819M1704 866L1640 905M1704 866L1683 922M1704 866L1776 902M1785 819L1776 902M1894 844L1966 814M1894 844L1888 894M1894 844L1928 951M1966 814L2001 851M2001 851L2082 814M2001 851L2042 923M2237 871L2286 846M2237 871L2162 901M2237 871L2286 949M2286 846L2329 931M2380 814L2429 866M2380 814L2465 881M2429 866L2541 848M2429 866L2329 931M2429 866L2465 881M2541 848L2465 881M2541 848L2543 941M68 925L101 925M68 925L-17 941M68 925L34 1027M68 925L145 997M2628 925L2543 941M101 925L195 889M101 925L145 997M195 889L259 904M259 904L204 1011M387 914L422 885M387 914L378 963M422 885L378 963M533 956L571 957M533 956L558 974M533 956L601 968M571 957L558 974M571 957L601 968M571 957L562 1062M668 884L731 904M668 884L686 985M731 904L686 985M880 881L919 959M880 881L963 894M919 959L963 894M919 959L820 1003M919 959L951 972M919 959L929 1062M963 894L951 972M1046 912L951 972M1164 949L1224 948M1164 949L1108 1018M1164 949L1184 982M1164 949L1232 966M1224 948L1184 982M1224 948L1232 966M1224 948L1230 1053M1338 949L1434 945M1338 949L1349 1028M1338 949L1397 976M1338 949L1336 1040M1434 945L1460 945M1434 945L1397 976M1434 945L1470 998M1460 945L1397 976M1460 945L1470 998M1569 901L1640 905M1569 901L1565 1001M1569 901L1628 966M1640 905L1683 922M1640 905L1628 966M1683 922L1776 902M1683 922L1628 966M1776 902L1888 894M1776 902L1851 970M1888 894L1928 951M1888 894L1851 970M1928 951L1851 970M1928 951L1924 1019M1928 951L1961 1061M2042 923L2150 939M2042 923L2057 1029M2042 923L2129 985M2150 939L2162 901M2150 939L2129 985M2162 901L2129 985M2286 949L2329 931M2286 949L2238 1033M2286 949L2280 1025M2286 949L2340 964M2329 931L2340 964M2465 881L2543 941M2543 941L2594 1027M2543 941L2551 1032M-17 941L34 1027M34 1027L-9 1032M34 1027L2 1107M34 1027L-35 1098M2594 1027L2551 1032M2594 1027L2525 1098M145 997L204 1011M145 997L94 1112M145 997L223 1060M204 1011L296 1020M204 1011L223 1060M296 1020L378 963M296 1020L223 1060M296 1020L323 1062M378 963L411 1038M411 1038L323 1062M411 1038L459 1082M411 1038L401 1141M558 974L601 968M558 974L515 1071M558 974L562 1062M601 968L686 985M601 968L562 1062M686 985L784 999M784 999L820 1003M820 1003L823 1102M820 1003L929 1062M951 972L1037 1026M951 972L929 1062M1037 1026L1108 1018M1037 1026L987 1114M1037 1026L1049 1098M1108 1018L1184 982M1108 1018L1049 1098M1108 1018L1145 1089M1184 982L1232 966M1184 982L1230 1053M1232 966L1230 1053M1349 1028L1397 976M1349 1028L1336 1040M1349 1028L1417 1080M1397 976L1470 998M1470 998L1565 1001M1470 998L1417 1080M1565 1001L1628 966M1565 1001L1576 1084M1628 966L1706 1018M1706 1018L1762 1031M1706 1018L1657 1096M1706 1018L1711 1087M1706 1018L1804 1087M1762 1031L1851 970M1762 1031L1711 1087M1762 1031L1804 1087M1851 970L1924 1019M1924 1019L1917 1108M1924 1019L1961 1061M1924 1019L2030 1051M2057 1029L2129 985M2057 1029L1961 1061M2057 1029L2030 1051M2057 1029L2112 1118M2129 985L2196 1070M2238 1033L2280 1025M2238 1033L2196 1070M2238 1033L2251 1106M2238 1033L2237 1130M2280 1025L2340 964M2280 1025L2251 1106M2280 1025L2331 1078M2340 964L2440 1015M2340 964L2331 1078M2440 1015L2477 1048M2551 1032L2562 1107M2551 1032L2477 1048M2551 1032L2525 1098M-9 1032L2 1107M2 1107L94 1112M2 1107L-35 1098M2 1107L-63 1159M2562 1107L2525 1098M2562 1107L2497 1159M94 1112L40 1187M94 1112L99 1170M223 1060L323 1062M223 1060L230 1125M317 1118L323 1062M317 1118L230 1125M317 1118L324 1139M317 1118L401 1141M323 1062L324 1139M459 1082L515 1071M459 1082L401 1141M459 1082L527 1158M515 1071L562 1062M515 1071L527 1158M562 1062L624 1129M683 1114L771 1101M683 1114L624 1129M683 1114L681 1182M771 1101L823 1102M771 1101L754 1169M771 1101L824 1165M771 1101L771 1206M823 1102L929 1062M823 1102L754 1169M823 1102L824 1165M929 1062L987 1114M987 1114L1049 1098M987 1114L922 1197M987 1114L995 1175M1049 1098L1145 1089M1049 1098L995 1175M1145 1089L1230 1053M1145 1089L1085 1192M1145 1089L1164 1181M1230 1053L1336 1040M1336 1040L1417 1080M1417 1080L1507 1111M1417 1080L1395 1150M1507 1111L1576 1084M1507 1111L1520 1120M1507 1111L1543 1127M1507 1111L1449 1201M1576 1084L1657 1096M1576 1084L1520 1120M1576 1084L1543 1127M1657 1096L1711 1087M1657 1096L1621 1181M1711 1087L1804 1087M1804 1087L1917 1108M1804 1087L1791 1173M1917 1108L1961 1061M1917 1108L1892 1182M1917 1108L1986 1186M1961 1061L2030 1051M2030 1051L2112 1118M2112 1118L2196 1070M2112 1118L2029 1170M2112 1118L2125 1138M2196 1070L2251 1106M2196 1070L2237 1130M2251 1106L2237 1130M2251 1106L2319 1133M2331 1078L2319 1133M2331 1078L2356 1136M2477 1048L2525 1098M2525 1098L2497 1159M40 1187L99 1170M40 1187L22 1248M40 1187L-3 1214M2600 1187L2557 1214M99 1170L22 1248M99 1170L154 1234M99 1170L-3 1214M2659 1170L2557 1214M230 1125L274 1180M230 1125L237 1211M274 1180L324 1139M274 1180L237 1211M274 1180L266 1241M274 1180L338 1206M324 1139L401 1141M324 1139L338 1206M401 1141L338 1206M527 1158L624 1129M527 1158L503 1256M624 1129L681 1182M624 1129L629 1235M681 1182L754 1169M681 1182L629 1235M681 1182L662 1237M754 1169L824 1165M754 1169L771 1206M824 1165L771 1206M824 1165L876 1235M922 1197L995 1175M922 1197L876 1235M922 1197L903 1237M922 1197L1015 1235M995 1175L1015 1235M1085 1192L1164 1181M1085 1192L1015 1235M1085 1192L1084 1225M1085 1192L1162 1230M1164 1181L1236 1187M1164 1181L1084 1225M1164 1181L1162 1230M1236 1187L1354 1172M1236 1187L1162 1230M1236 1187L1254 1279M1354 1172L1395 1150M1354 1172L1352 1262M1354 1172L1392 1253M1354 1172L1449 1201M1395 1150L1392 1253M1395 1150L1449 1201M1520 1120L1543 1127M1520 1120L1449 1201M1543 1127L1621 1181M1543 1127L1596 1219M1621 1181L1719 1192M1621 1181L1596 1219M1621 1181L1656 1264M1719 1192L1791 1173M1719 1192L1731 1209M1719 1192L1770 1224M1791 1173L1892 1182M1791 1173L1731 1209M1791 1173L1770 1224M1892 1182L1986 1186M1892 1182L1906 1276M1892 1182L1972 1201M1986 1186L2029 1170M1986 1186L1972 1201M1986 1186L2030 1243M2029 1170L2125 1138M2029 1170L1972 1201M2029 1170L2030 1243M2125 1138L2190 1238M2237 1130L2319 1133M2237 1130L2252 1215M2319 1133L2356 1136M2319 1133L2411 1157M2356 1136L2411 1157M2356 1136L2326 1242M2411 1157L2497 1159M2411 1157L2326 1242M2411 1157L2453 1230M2497 1159L2453 1230M2497 1159L2557 1214M22 1248L-3 1214M22 1248L8 1330M22 1248L-63 1293M2582 1248L2557 1214M2582 1248L2497 1293M154 1234L237 1211M154 1234L123 1332M154 1234L209 1289M237 1211L266 1241M237 1211L209 1289M266 1241L338 1206M266 1241L209 1289M266 1241L261 1332M451 1260L503 1256M451 1260L373 1327M451 1260L416 1329M451 1260L484 1341M451 1260L517 1370M503 1256L484 1341M503 1256L596 1307M503 1256L517 1370M629 1235L662 1237M629 1235L596 1307M629 1235L676 1341M662 1237L596 1307M662 1237L676 1341M771 1206L876 1235M771 1206L792 1314M876 1235L903 1237M876 1235L897 1313M903 1237L897 1313M1015 1235L1084 1225M1015 1235L1023 1330M1084 1225L1162 1230M1084 1225L1097 1314M1162 1230L1222 1297M1254 1279L1352 1262M1254 1279L1222 1297M1254 1279L1292 1307M1352 1262L1392 1253M1352 1262L1292 1307M1352 1262L1383 1357M1392 1253L1449 1201M1392 1253L1383 1357M1596 1219L1656 1264M1596 1219L1592 1291M1656 1264L1592 1291M1656 1264L1662 1301M1656 1264L1702 1321M1731 1209L1770 1224M1731 1209L1764 1309M1770 1224L1764 1309M1906 1276L1972 1201M1906 1276L1900 1315M1906 1276L1910 1383M1972 1201L2030 1243M2030 1243L2037 1335M2030 1243L2091 1327M2150 1265L2190 1238M2150 1265L2252 1215M2150 1265L2091 1327M2150 1265L2191 1293M2190 1238L2252 1215M2190 1238L2191 1293M2252 1215L2326 1242M2252 1215L2191 1293M2326 1242L2348 1312M2326 1242L2417 1283M2453 1230L2417 1283M2453 1230L2497 1293M2557 1214L2497 1293M8 1330L123 1332M8 1330L-63 1293M8 1330L73 1365M8 1330L-17 1424M2568 1330L2497 1293M2568 1330L2543 1424M123 1332L209 1289M123 1332L73 1365M123 1332L83 1426M209 1289L261 1332M261 1332L373 1327M261 1332L280 1367M261 1332L357 1373M373 1327L416 1329M373 1327L280 1367M373 1327L357 1373M416 1329L484 1341M416 1329L357 1373M416 1329L423 1424M484 1341L423 1424M484 1341L517 1370M596 1307L676 1341M596 1307L517 1370M676 1341L715 1412M792 1314L836 1343M792 1314L897 1313M792 1314L834 1401M836 1343L897 1313M836 1343L794 1437M836 1343L834 1401M836 1343L889 1425M1023 1330L1097 1314M1023 1330L987 1380M1023 1330L1103 1398M1097 1314L1129 1345M1097 1314L1103 1398M1129 1345L1222 1297M1129 1345L1103 1398M1129 1345L1143 1431M1222 1297L1292 1307M1292 1307L1268 1405M1292 1307L1352 1368M1383 1357L1352 1368M1383 1357L1371 1425M1383 1357L1454 1360M1510 1323L1592 1291M1510 1323L1454 1360M1510 1323L1593 1374M1592 1291L1662 1301M1592 1291L1593 1374M1662 1301L1702 1321M1662 1301L1593 1374M1662 1301L1632 1374M1702 1321L1764 1309M1702 1321L1632 1374M1702 1321L1755 1367M1764 1309L1900 1315M1764 1309L1755 1367M1900 1315L1997 1345M1900 1315L1910 1383M1900 1315L1966 1431M1997 1345L2037 1335M1997 1345L2091 1327M1997 1345L1910 1383M1997 1345L1966 1431M2037 1335L2091 1327M2037 1335L2076 1438M2037 1335L2108 1371M2091 1327L2108 1371M2191 1293L2108 1371M2191 1293L2222 1409M2311 1354L2348 1312M2311 1354L2297 1425M2311 1354L2331 1392M2348 1312L2417 1283M2348 1312L2331 1392M2417 1283L2497 1293M73 1365L83 1426M73 1365L-17 1424M2633 1365L2543 1424M206 1427L280 1367M280 1367L357 1373M357 1373L423 1424M517 1370L605 1437M605 1437L715 1412M715 1412L794 1437M794 1437L834 1401M794 1437L889 1425M834 1401L889 1425M1103 1398L1143 1431M1268 1405L1352 1368M1268 1405L1371 1425M1352 1368L1371 1425M1352 1368L1454 1360M1371 1425L1454 1360M1454 1360L1593 1374M1593 1374L1632 1374M1632 1374L1755 1367M1755 1367L1808 1433M1910 1383L1966 1431M1966 1431L2076 1438M2076 1438L2108 1371M2222 1409L2297 1425M2297 1425L2331 1392M2469 1414L2543 1424"/></svg>