<svg xmlns="http://www.w3.org/2000/svg" width="2560" height="1440" fill="#fff"><circle cx="5" cy="15" r="5"/><circle cx="2565" cy="15" r="5"/><circle cx="148" cy="49" r="4"/><circle cx="236" cy="25" r="5"/><circle cx="289" cy="58" r="6"/><circle cx="392" cy="42" r="6"/><circle cx="444" cy="69" r="6"/><circle cx="538" cy="1" r="4"/><circle cx="538" cy="1441" r="4"/><circle cx="567" cy="64" r="5"/><circle cx="650" cy="29" r="5"/><circle cx="737" cy="64" r="5"/><circle cx="810" cy="38" r="6"/><circle cx="896" cy="16" r="4"/><circle cx="975" cy="7" r="5"/><circle cx="1065" cy="11" r="6"/><circle cx="1132" cy="64" r="4"/><circle cx="1278" cy="69" r="5"/><circle cx="1299" cy="12" r="5"/><circle cx="1430" cy="24" r="4"/><circle cx="1463" cy="71" r="4"/><circle cx="1541" cy="36" r="4"/><circle cx="1616" cy="53" r="5"/><circle cx="1716" cy="70" r="6"/><circle cx="1773" cy="18" r="6"/><circle cx="1902" cy="54" r="5"/><circle cx="1957" cy="15" r="4"/><circle cx="2022" cy="64" r="4"/><circle cx="2097" cy="3" r="5"/><circle cx="2097" cy="1443" r="5"/><circle cx="2184" cy="46" r="6"/><circle cx="2299" cy="65" r="6"/><circle cx="2362" cy="10" r="5"/><circle cx="2420" cy="55" r="4"/><circle cx="2520" cy="63" r="6"/><circle cx="35" cy="111" r="5"/><circle cx="104" cy="137" r="6"/><circle cx="235" cy="144" r="6"/><circle cx="259" cy="150" r="5"/><circle cx="322" cy="97" r="6"/><circle cx="454" cy="110" r="6"/><circle cx="554" cy="97" r="4"/><circle cx="572" cy="134" r="6"/><circle cx="704" cy="138" r="4"/><circle cx="744" cy="117" r="5"/><circle cx="829" cy="99" r="4"/><circle cx="939" cy="86" r="4"/><circle cx="1022" cy="125" r="4"/><circle cx="1064" cy="134" r="5"/><circle cx="1194" cy="137" r="5"/><circle cx="1278" cy="141" r="4"/><circle cx="1328" cy="82" r="5"/><circle cx="1419" cy="105" r="5"/><circle cx="1468" cy="80" r="5"/><circle cx="1565" cy="149" r="6"/><circle cx="1660" cy="152" r="5"/><circle cx="1740" cy="124" r="5"/><circle cx="1792" cy="102" r="5"/><circle cx="1917" cy="145" r="5"/><circle cx="1922" cy="134" r="4"/><circle cx="2019" cy="95" r="5"/><circle cx="2106" cy="97" r="5"/><circle cx="2237" cy="104" r="6"/><circle cx="2289" cy="155" r="6"/><circle cx="2343" cy="150" r="5"/><circle cx="2457" cy="139" r="5"/><circle cx="2544" cy="125" r="6"/><circle cx="34" cy="194" r="5"/><circle cx="133" cy="171" r="5"/><circle cx="226" cy="227" r="5"/><circle cx="270" cy="215" r="4"/><circle cx="324" cy="160" r="5"/><circle cx="433" cy="175" r="4"/><circle cx="504" cy="198" r="5"/><circle cx="635" cy="212" r="5"/><circle cx="675" cy="197" r="5"/><circle cx="772" cy="226" r="4"/><circle cx="845" cy="219" r="5"/><circle cx="927" cy="203" r="5"/><circle cx="1033" cy="176" r="6"/><circle cx="1089" cy="225" r="5"/><circle cx="1146" cy="212" r="5"/><circle cx="1248" cy="238" r="6"/><circle cx="1339" cy="175" r="5"/><circle cx="1382" cy="202" r="5"/><circle cx="1466" cy="198" r="5"/><circle cx="1549" cy="198" r="5"/><circle cx="1651" cy="174" r="6"/><circle cx="1716" cy="227" r="5"/><circle cx="1780" cy="163" r="5"/><circle cx="1851" cy="177" r="5"/><circle cx="1936" cy="233" r="4"/><circle cx="2051" cy="215" r="6"/><circle cx="2142" cy="237" r="5"/><circle cx="2171" cy="230" r="4"/><circle cx="2257" cy="176" r="5"/><circle cx="2394" cy="206" r="6"/><circle cx="2417" cy="187" r="5"/><circle cx="2492" cy="224" r="5"/><circle cx="42" cy="285" r="5"/><circle cx="141" cy="265" r="5"/><circle cx="164" cy="245" r="5"/><circle cx="252" cy="274" r="4"/><circle cx="341" cy="262" r="5"/><circle cx="452" cy="244" r="4"/><circle cx="493" cy="266" r="5"/><circle cx="566" cy="316" r="4"/><circle cx="642" cy="259" r="5"/><circle cx="795" cy="263" r="5"/><circle cx="856" cy="253" r="5"/><circle cx="914" cy="271" r="4"/><circle cx="972" cy="283" r="5"/><circle cx="1109" cy="316" r="5"/><circle cx="1128" cy="265" r="6"/><circle cx="1211" cy="247" r="5"/><circle cx="1351" cy="303" r="5"/><circle cx="1421" cy="262" r="4"/><circle cx="1501" cy="298" r="5"/><circle cx="1583" cy="257" r="5"/><circle cx="1615" cy="272" r="5"/><circle cx="1692" cy="260" r="4"/><circle cx="1778" cy="270" r="5"/><circle cx="1911" cy="248" r="4"/><circle cx="1953" cy="244" r="5"/><circle cx="2075" cy="308" r="5"/><circle cx="2143" cy="304" r="5"/><circle cx="2188" cy="294" r="5"/><circle cx="2317" cy="292" r="5"/><circle cx="2352" cy="290" r="5"/><circle cx="2454" cy="313" r="4"/><circle cx="2512" cy="256" r="4"/><circle cx="45" cy="383" r="5"/><circle cx="98" cy="397" r="5"/><circle cx="165" cy="366" r="6"/><circle cx="319" cy="378" r="4"/><circle cx="380" cy="372" r="4"/><circle cx="456" cy="329" r="5"/><circle cx="487" cy="350" r="4"/><circle cx="570" cy="358" r="4"/><circle cx="717" cy="378" r="6"/><circle cx="794" cy="391" r="5"/><circle cx="827" cy="345" r="6"/><circle cx="907" cy="348" r="5"/><circle cx="1031" cy="395" r="5"/><circle cx="1104" cy="393" r="5"/><circle cx="1193" cy="380" r="6"/><circle cx="1209" cy="347" r="4"/><circle cx="1338" cy="322" r="6"/><circle cx="1394" cy="380" r="6"/><circle cx="1488" cy="328" r="6"/><circle cx="1572" cy="353" r="5"/><circle cx="1647" cy="367" r="5"/><circle cx="1720" cy="336" r="5"/><circle cx="1782" cy="351" r="6"/><circle cx="1885" cy="342" r="4"/><circle cx="1958" cy="380" r="6"/><circle cx="2065" cy="340" r="4"/><circle cx="2100" cy="383" r="4"/><circle cx="2206" cy="326" r="5"/><circle cx="2258" cy="393" r="6"/><circle cx="2347" cy="394" r="5"/><circle cx="2475" cy="369" r="5"/><circle cx="2500" cy="384" r="5"/><circle cx="10" cy="428" r="5"/><circle cx="128" cy="467" r="5"/><circle cx="166" cy="460" r="6"/><circle cx="297" cy="435" r="4"/><circle cx="337" cy="418" r="5"/><circle cx="428" cy="452" r="6"/><circle cx="532" cy="450" r="6"/><circle cx="639" cy="453" r="5"/><circle cx="712" cy="405" r="5"/><circle cx="758" cy="470" r="5"/><circle cx="874" cy="416" r="5"/><circle cx="891" cy="435" r="4"/><circle cx="994" cy="440" r="5"/><circle cx="1084" cy="436" r="5"/><circle cx="1164" cy="402" r="5"/><circle cx="1279" cy="474" r="5"/><circle cx="1355" cy="436" r="5"/><circle cx="1376" cy="411" r="6"/><circle cx="1478" cy="459" r="5"/><circle cx="1527" cy="456" r="6"/><circle cx="1664" cy="455" r="5"/><circle cx="1689" cy="411" r="5"/><circle cx="1806" cy="400" r="6"/><circle cx="1864" cy="421" r="6"/><circle cx="1928" cy="436" r="5"/><circle cx="2046" cy="455" r="5"/><circle cx="2095" cy="415" r="5"/><circle cx="2192" cy="463" r="4"/><circle cx="2271" cy="434" r="5"/><circle cx="2322" cy="459" r="6"/><circle cx="2458" cy="428" r="5"/><circle cx="2549" cy="426" r="6"/><circle cx="57" cy="496" r="5"/><circle cx="105" cy="498" r="4"/><circle cx="181" cy="559" r="5"/><circle cx="297" cy="495" r="5"/><circle cx="339" cy="482" r="5"/><circle cx="420" cy="539" r="5"/><circle cx="525" cy="506" r="5"/><circle cx="605" cy="505" r="5"/><circle cx="717" cy="534" r="4"/><circle cx="745" cy="556" r="4"/><circle cx="832" cy="509" r="6"/><circle cx="948" cy="525" r="6"/><circle cx="964" cy="534" r="5"/><circle cx="1044" cy="543" r="5"/><circle cx="1144" cy="522" r="4"/><circle cx="1229" cy="553" r="4"/><circle cx="1287" cy="504" r="5"/><circle cx="1373" cy="517" r="5"/><circle cx="1503" cy="554" r="6"/><circle cx="1533" cy="489" r="5"/><circle cx="1663" cy="535" r="4"/><circle cx="1700" cy="530" r="5"/><circle cx="1806" cy="523" r="6"/><circle cx="1844" cy="496" r="5"/><circle cx="1959" cy="556" r="6"/><circle cx="2001" cy="481" r="5"/><circle cx="2153" cy="539" r="4"/><circle cx="2216" cy="546" r="5"/><circle cx="2319" cy="552" r="4"/><circle cx="2353" cy="548" r="5"/><circle cx="2461" cy="492" r="6"/><circle cx="2540" cy="556" r="6"/><circle cx="49" cy="626" r="5"/><circle cx="154" cy="572" r="4"/><circle cx="163" cy="614" r="4"/><circle cx="276" cy="578" r="4"/><circle cx="348" cy="622" r="5"/><circle cx="408" cy="615" r="4"/><circle cx="533" cy="563" r="5"/><circle cx="630" cy="605" r="6"/><circle cx="707" cy="634" r="6"/><circle cx="764" cy="575" r="5"/><circle cx="870" cy="640" r="6"/><circle cx="893" cy="629" r="4"/><circle cx="965" cy="601" r="6"/><circle cx="1102" cy="611" r="5"/><circle cx="1128" cy="573" r="5"/><circle cx="1205" cy="608" r="6"/><circle cx="1334" cy="615" r="5"/><circle cx="1385" cy="565" r="5"/><circle cx="1487" cy="598" r="6"/><circle cx="1563" cy="570" r="6"/><circle cx="1628" cy="591" r="5"/><circle cx="1729" cy="567" r="5"/><circle cx="1811" cy="623" r="6"/><circle cx="1851" cy="575" r="6"/><circle cx="1956" cy="619" r="5"/><circle cx="2066" cy="591" r="4"/><circle cx="2086" cy="587" r="4"/><circle cx="2175" cy="625" r="6"/><circle cx="2315" cy="610" r="5"/><circle cx="2335" cy="575" r="6"/><circle cx="2465" cy="622" r="4"/><circle cx="2492" cy="638" r="5"/><circle cx="15" cy="680" r="6"/><circle cx="96" cy="689" r="5"/><circle cx="199" cy="707" r="5"/><circle cx="308" cy="651" r="6"/><circle cx="366" cy="685" r="5"/><circle cx="454" cy="659" r="5"/><circle cx="555" cy="654" r="6"/><circle cx="628" cy="644" r="5"/><circle cx="662" cy="695" r="5"/><circle cx="721" cy="645" r="5"/><circle cx="875" cy="671" r="5"/><circle cx="910" cy="671" r="6"/><circle cx="1030" cy="659" r="5"/><circle cx="1072" cy="646" r="6"/><circle cx="1133" cy="718" r="5"/><circle cx="1257" cy="699" r="6"/><circle cx="1349" cy="692" r="6"/><circle cx="1399" cy="717" r="5"/><circle cx="1459" cy="663" r="6"/><circle cx="1560" cy="677" r="6"/><circle cx="1659" cy="647" r="5"/><circle cx="1727" cy="663" r="4"/><circle cx="1808" cy="663" r="4"/><circle cx="1902" cy="679" r="5"/><circle cx="1962" cy="709" r="5"/><circle cx="2034" cy="714" r="6"/><circle cx="2133" cy="686" r="6"/><circle cx="2164" cy="703" r="6"/><circle cx="2307" cy="646" r="4"/><circle cx="2327" cy="680" r="5"/><circle cx="2440" cy="670" r="4"/><circle cx="2496" cy="683" r="6"/><circle cx="66" cy="723" r="5"/><circle cx="127" cy="764" r="5"/><circle cx="165" cy="765" r="5"/><circle cx="278" cy="731" r="6"/><circle cx="351" cy="743" r="6"/><circle cx="443" cy="750" r="4"/><circle cx="536" cy="761" r="5"/><circle cx="633" cy="780" r="5"/><circle cx="645" cy="729" r="5"/><circle cx="779" cy="726" r="4"/><circle cx="847" cy="743" r="4"/><circle cx="954" cy="748" r="4"/><circle cx="1031" cy="744" r="5"/><circle cx="1115" cy="749" r="4"/><circle cx="1197" cy="742" r="5"/><circle cx="1278" cy="753" r="5"/><circle cx="1291" cy="783" r="5"/><circle cx="1409" cy="734" r="6"/><circle cx="1460" cy="781" r="4"/><circle cx="1537" cy="777" r="4"/><circle cx="1606" cy="721" r="5"/><circle cx="1729" cy="744" r="4"/><circle cx="1828" cy="749" r="4"/><circle cx="1884" cy="756" r="6"/><circle cx="1962" cy="793" r="5"/><circle cx="2004" cy="771" r="6"/><circle cx="2085" cy="727" r="6"/><circle cx="2231" cy="723" r="6"/><circle cx="2268" cy="727" r="5"/><circle cx="2376" cy="792" r="5"/><circle cx="2417" cy="798" r="4"/><circle cx="2509" cy="750" r="6"/><circle cx="21" cy="852" r="5"/><circle cx="136" cy="862" r="6"/><circle cx="171" cy="841" r="4"/><circle cx="264" cy="830" r="6"/><circle cx="366" cy="870" r="5"/><circle cx="447" cy="854" r="5"/><circle cx="547" cy="853" r="6"/><circle cx="619" cy="877" r="5"/><circle cx="679" cy="844" r="4"/><circle cx="759" cy="849" r="5"/><circle cx="812" cy="852" r="6"/><circle cx="893" cy="833" r="6"/><circle cx="986" cy="816" r="5"/><circle cx="1118" cy="858" r="6"/><circle cx="1188" cy="868" r="5"/><circle cx="1242" cy="868" r="6"/><circle cx="1284" cy="848" r="4"/><circle cx="1391" cy="803" r="5"/><circle cx="1484" cy="850" r="5"/><circle cx="1599" cy="865" r="4"/><circle cx="1674" cy="804" r="5"/><circle cx="1704" cy="810" r="6"/><circle cx="1770" cy="828" r="6"/><circle cx="1877" cy="813" r="5"/><circle cx="1983" cy="864" r="6"/><circle cx="2022" cy="816" r="5"/><circle cx="2154" cy="831" r="5"/><circle cx="2236" cy="844" r="4"/><circle cx="2294" cy="865" r="4"/><circle cx="2349" cy="817" r="6"/><circle cx="2451" cy="829" r="5"/><circle cx="2516" cy="862" r="4"/><circle cx="21" cy="937" r="6"/><circle cx="153" cy="950" r="4"/><circle cx="180" cy="934" r="5"/><circle cx="292" cy="930" r="5"/><circle cx="338" cy="924" r="4"/><circle cx="447" cy="913" r="5"/><circle cx="485" cy="893" r="4"/><circle cx="565" cy="894" r="5"/><circle cx="699" cy="929" r="5"/><circle cx="724" cy="954" r="5"/><circle cx="820" cy="929" r="5"/><circle cx="938" cy="950" r="5"/><circle cx="1038" cy="934" r="5"/><circle cx="1078" cy="928" r="4"/><circle cx="1143" cy="942" r="5"/><circle cx="1272" cy="905" r="5"/><circle cx="1300" cy="950" r="4"/><circle cx="1411" cy="906" r="4"/><circle cx="1464" cy="902" r="5"/><circle cx="1558" cy="948" r="5"/><circle cx="1604" cy="932" r="5"/><circle cx="1733" cy="925" r="5"/><circle cx="1783" cy="901" r="5"/><circle cx="1898" cy="943" r="5"/><circle cx="1997" cy="945" r="5"/><circle cx="2032" cy="903" r="5"/><circle cx="2147" cy="945" r="5"/><circle cx="2184" cy="910" r="6"/><circle cx="2290" cy="947" r="5"/><circle cx="2398" cy="919" r="5"/><circle cx="2405" cy="908" r="4"/><circle cx="2489" cy="959" r="4"/><circle cx="3" cy="1021" r="6"/><circle cx="2563" cy="1021" r="6"/><circle cx="100" cy="976" r="5"/><circle cx="202" cy="1012" r="6"/><circle cx="309" cy="1029" r="4"/><circle cx="349" cy="1007" r="5"/><circle cx="476" cy="978" r="6"/><circle cx="515" cy="1021" r="5"/><circle cx="582" cy="1036" r="5"/><circle cx="706" cy="1014" r="5"/><circle cx="761" cy="1016" r="5"/><circle cx="871" cy="1021" r="6"/><circle cx="923" cy="979" r="5"/><circle cx="960" cy="968" r="4"/><circle cx="1095" cy="987" r="4"/><circle cx="1167" cy="1012" r="6"/><circle cx="1264" cy="1028" r="5"/><circle cx="1335" cy="965" r="6"/><circle cx="1434" cy="971" r="5"/><circle cx="1492" cy="996" r="5"/><circle cx="1534" cy="988" r="6"/><circle cx="1606" cy="1019" r="6"/><circle cx="1753" cy="1039" r="6"/><circle cx="1770" cy="1021" r="5"/><circle cx="1894" cy="1013" r="6"/><circle cx="1991" cy="982" r="6"/><circle cx="2065" cy="976" r="4"/><circle cx="2151" cy="996" r="6"/><circle cx="2206" cy="1039" r="5"/><circle cx="2266" cy="981" r="5"/><circle cx="2374" cy="999" r="6"/><circle cx="2450" cy="1005" r="5"/><circle cx="2530" cy="1032" r="5"/><circle cx="49" cy="1090" r="5"/><circle cx="86" cy="1043" r="5"/><circle cx="216" cy="1072" r="5"/><circle cx="256" cy="1057" r="5"/><circle cx="329" cy="1064" r="5"/><circle cx="476" cy="1118" r="6"/><circle cx="521" cy="1055" r="4"/><circle cx="578" cy="1074" r="5"/><circle cx="705" cy="1059" r="5"/><circle cx="754" cy="1102" r="6"/><circle cx="858" cy="1084" r="4"/><circle cx="917" cy="1070" r="6"/><circle cx="1009" cy="1072" r="4"/><circle cx="1072" cy="1112" r="6"/><circle cx="1129" cy="1117" r="5"/><circle cx="1271" cy="1051" r="5"/><circle cx="1334" cy="1120" r="4"/><circle cx="1405" cy="1076" r="5"/><circle cx="1443" cy="1070" r="5"/><circle cx="1539" cy="1077" r="5"/><circle cx="1622" cy="1079" r="4"/><circle cx="1705" cy="1071" r="5"/><circle cx="1775" cy="1114" r="5"/><circle cx="1883" cy="1107" r="4"/><circle cx="1964" cy="1088" r="5"/><circle cx="2044" cy="1103" r="4"/><circle cx="2150" cy="1087" r="5"/><circle cx="2204" cy="1105" r="6"/><circle cx="2262" cy="1100" r="5"/><circle cx="2327" cy="1078" r="5"/><circle cx="2424" cy="1048" r="6"/><circle cx="2554" cy="1061" r="6"/><circle cx="29" cy="1121" r="4"/><circle cx="158" cy="1161" r="4"/><circle cx="192" cy="1169" r="6"/><circle cx="287" cy="1169" r="5"/><circle cx="377" cy="1193" r="4"/><circle cx="439" cy="1144" r="4"/><circle cx="485" cy="1122" r="5"/><circle cx="631" cy="1149" r="5"/><circle cx="658" cy="1126" r="6"/><circle cx="731" cy="1141" r="6"/><circle cx="858" cy="1175" r="5"/><circle cx="895" cy="1160" r="5"/><circle cx="1019" cy="1138" r="5"/><circle cx="1058" cy="1136" r="4"/><circle cx="1135" cy="1149" r="4"/><circle cx="1244" cy="1139" r="4"/><circle cx="1305" cy="1185" r="6"/><circle cx="1373" cy="1173" r="4"/><circle cx="1469" cy="1133" r="4"/><circle cx="1563" cy="1133" r="6"/><circle cx="1621" cy="1181" r="4"/><circle cx="1758" cy="1158" r="6"/><circle cx="1778" cy="1143" r="6"/><circle cx="1872" cy="1175" r="6"/><circle cx="1939" cy="1143" r="5"/><circle cx="2045" cy="1129" r="5"/><circle cx="2125" cy="1136" r="6"/><circle cx="2183" cy="1169" r="5"/><circle cx="2315" cy="1129" r="6"/><circle cx="2358" cy="1184" r="5"/><circle cx="2418" cy="1161" r="5"/><circle cx="2521" cy="1129" r="5"/><circle cx="60" cy="1227" r="4"/><circle cx="130" cy="1252" r="5"/><circle cx="176" cy="1245" r="5"/><circle cx="304" cy="1216" r="5"/><circle cx="386" cy="1272" r="4"/><circle cx="452" cy="1233" r="5"/><circle cx="485" cy="1211" r="5"/><circle cx="606" cy="1254" r="5"/><circle cx="687" cy="1259" r="5"/><circle cx="732" cy="1245" r="4"/><circle cx="805" cy="1236" r="5"/><circle cx="886" cy="1266" r="4"/><circle cx="1035" cy="1258" r="4"/><circle cx="1078" cy="1211" r="6"/><circle cx="1134" cy="1233" r="4"/><circle cx="1276" cy="1235" r="5"/><circle cx="1304" cy="1215" r="5"/><circle cx="1378" cy="1255" r="5"/><circle cx="1484" cy="1207" r="4"/><circle cx="1581" cy="1265" r="5"/><circle cx="1602" cy="1243" r="6"/><circle cx="1749" cy="1215" r="6"/><circle cx="1821" cy="1260" r="4"/><circle cx="1874" cy="1237" r="6"/><circle cx="1921" cy="1228" r="4"/><circle cx="2041" cy="1271" r="6"/><circle cx="2143" cy="1246" r="6"/><circle cx="2168" cy="1242" r="5"/><circle cx="2268" cy="1206" r="5"/><circle cx="2372" cy="1227" r="5"/><circle cx="2432" cy="1279" r="6"/><circle cx="2508" cy="1214" r="5"/><circle cx="35" cy="1332" r="5"/><circle cx="140" cy="1332" r="5"/><circle cx="169" cy="1359" r="5"/><circle cx="243" cy="1348" r="5"/><circle cx="384" cy="1310" r="4"/><circle cx="453" cy="1310" r="6"/><circle cx="530" cy="1313" r="5"/><circle cx="592" cy="1315" r="6"/><circle cx="702" cy="1349" r="4"/><circle cx="763" cy="1305" r="4"/><circle cx="856" cy="1334" r="5"/><circle cx="945" cy="1327" r="5"/><circle cx="1030" cy="1283" r="5"/><circle cx="1113" cy="1341" r="6"/><circle cx="1138" cy="1342" r="4"/><circle cx="1272" cy="1341" r="6"/><circle cx="1330" cy="1354" r="5"/><circle cx="1360" cy="1332" r="6"/><circle cx="1506" cy="1334" r="6"/><circle cx="1541" cy="1323" r="6"/><circle cx="1650" cy="1357" r="4"/><circle cx="1753" cy="1323" r="5"/><circle cx="1806" cy="1346" r="6"/><circle cx="1870" cy="1324" r="6"/><circle cx="1952" cy="1307" r="5"/><circle cx="2074" cy="1336" r="5"/><circle cx="2080" cy="1293" r="5"/><circle cx="2221" cy="1327" r="6"/><circle cx="2251" cy="1284" r="4"/><circle cx="2356" cy="1344" r="4"/><circle cx="2468" cy="1353" r="5"/><circle cx="2516" cy="1297" r="5"/><circle cx="63" cy="1408" r="4"/><circle cx="115" cy="1426" r="5"/><circle cx="182" cy="1384" r="5"/><circle cx="259" cy="1419" r="4"/><circle cx="328" cy="1363" r="5"/><circle cx="479" cy="1381" r="6"/><circle cx="550" cy="1408" r="5"/><circle cx="632" cy="1397" r="5"/><circle cx="717" cy="1389" r="5"/><circle cx="744" cy="1382" r="4"/><circle cx="804" cy="1391" r="6"/><circle cx="949" cy="1433" r="4"/><circle cx="973" cy="1398" r="5"/><circle cx="1109" cy="1373" r="5"/><circle cx="1177" cy="1414" r="5"/><circle cx="1245" cy="1382" r="6"/><circle cx="1353" cy="1382" r="5"/><circle cx="1439" cy="1365" r="5"/><circle cx="1504" cy="1440" r="5"/><circle cx="1504" cy="-0" r="5"/><circle cx="1521" cy="1381" r="5"/><circle cx="1673" cy="1365" r="6"/><circle cx="1730" cy="1377" r="5"/><circle cx="1781" cy="1387" r="5"/><circle cx="1919" cy="1437" r="5"/><circle cx="1919" cy="-3" r="5"/><circle cx="1946" cy="1398" r="4"/><circle cx="2074" cy="1398" r="5"/><circle cx="2092" cy="1434" r="6"/><circle cx="2092" cy="-6" r="6"/><circle cx="2167" cy="1414" r="5"/><circle cx="2292" cy="1430" r="5"/><circle cx="2334" cy="1399" r="5"/><circle cx="2425" cy="1410" r="4"/><circle cx="2522" cy="1419" r="5"/><path stroke="#fff" d="M5 15L-40 63M5 15L35 111M5 15L-16 125M5 15L63 -32M5 15L-38 -21M2565 15L2520 63M2565 15L2544 125M2565 15L2522 -21M5 1455L63 1408M5 1455L-38 1419M2565 1455L2522 1419M148 49L236 25M148 49L104 137M148 49L115 -14M148 1489L115 1426M236 25L289 58M236 25L259 -21M236 1465L259 1419M289 58L392 42M289 58L322 97M289 58L259 -21M289 1498L259 1419M392 42L444 69M392 42L322 97M392 42L454 110M392 42L479 -59M392 1482L479 1381M444 69L454 110M444 69L433 175M538 1L567 64M538 1L554 97M538 1L479 -59M538 1L550 -32M538 1441L479 1381M538 1441L550 1408M567 64L650 29M567 64L554 97M567 64L572 134M567 64L550 -32M567 1504L550 1408M650 29L737 64M650 29L632 -43M650 29L717 -51M650 1469L632 1397M650 1469L717 1389M737 64L810 38M737 64L704 138M737 64L744 117M737 64L829 99M810 38L896 16M810 38L744 117M810 38L829 99M810 38L804 -49M810 1478L804 1391M896 16L975 7M896 16L939 86M896 16L949 -7M896 16L973 -42M896 1456L949 1433M896 1456L973 1398M975 7L1065 11M975 7L939 86M975 7L949 -7M975 7L973 -42M975 1447L949 1433M975 1447L973 1398M1065 11L1132 64M1065 11L1113 -99M1065 11L973 -42M1065 11L1109 -67M1065 1451L1113 1341M1065 1451L973 1398M1065 1451L1109 1373M1132 64L1064 134M1132 64L1194 137M1132 64L1177 -26M1132 1504L1177 1414M1278 69L1299 12M1278 69L1278 141M1278 69L1328 82M1299 12L1328 82M1299 12L1245 -58M1299 12L1353 -58M1299 1452L1245 1382M1299 1452L1353 1382M1430 24L1463 71M1430 24L1419 105M1430 24L1468 80M1430 24L1504 -0M1430 1464L1504 1440M1463 71L1541 36M1463 71L1419 105M1463 71L1468 80M1463 71L1504 -0M1463 1511L1504 1440M1541 36L1616 53M1541 36L1468 80M1541 36L1504 -0M1541 36L1521 -59M1541 1476L1504 1440M1541 1476L1521 1381M1616 53L1716 70M1616 53L1565 149M1716 70L1773 18M1716 70L1660 152M1716 70L1740 124M1716 70L1792 102M1773 18L1792 102M1773 18L1730 -63M1773 18L1781 -53M1773 1458L1730 1377M1773 1458L1781 1387M1902 54L1957 15M1902 54L1917 145M1902 54L1922 134M1902 54L1919 -3M1902 54L1946 -42M1902 1494L1919 1437M1902 1494L1946 1398M1957 15L2022 64M1957 15L2019 95M1957 15L1919 -3M1957 15L1946 -42M1957 1455L1919 1437M1957 1455L1946 1398M2022 64L2019 95M2022 64L2106 97M2097 3L2184 46M2097 3L2106 97M2097 3L2074 -42M2097 3L2092 -6M2097 3L2167 -26M2097 1443L2074 1398M2097 1443L2092 1434M2097 1443L2167 1414M2184 46L2106 97M2184 46L2237 104M2184 46L2092 -6M2184 46L2167 -26M2184 1486L2092 1434M2184 1486L2167 1414M2299 65L2362 10M2299 65L2237 104M2299 65L2289 155M2299 65L2343 150M2299 65L2292 -10M2299 1505L2292 1430M2362 10L2420 55M2362 10L2292 -10M2362 10L2334 -41M2362 10L2425 -30M2362 1450L2292 1430M2362 1450L2334 1399M2362 1450L2425 1410M2420 55L2425 -30M2420 1495L2425 1410M2520 63L2595 111M2520 63L2457 139M2520 63L2544 125M2520 63L2522 -21M-40 63L35 111M2520 1503L2522 1419M35 111L104 137M35 111L-16 125M35 111L34 194M2595 111L2544 125M104 137L34 194M104 137L133 171M235 144L259 150M235 144L322 97M235 144L226 227M235 144L270 215M235 144L324 160M259 150L322 97M259 150L226 227M259 150L270 215M259 150L324 160M322 97L324 160M454 110L554 97M454 110L433 175M454 110L504 198M554 97L572 134M572 134L504 198M572 134L635 212M704 138L744 117M704 138L635 212M704 138L675 197M744 117L829 99M744 117L675 197M939 86L1022 125M939 86L949 -7M939 1526L949 1433M1022 125L1064 134M1022 125L1033 176M1064 134L1033 176M1064 134L1089 225M1194 137L1278 141M1194 137L1146 212M1194 137L1211 247M1278 141L1328 82M1278 141L1248 238M1278 141L1339 175M1328 82L1419 105M1328 82L1339 175M1419 105L1468 80M1419 105L1382 202M1468 80L1504 -0M1468 1520L1504 1440M1565 149L1660 152M1565 149L1549 198M1565 149L1651 174M1565 149L1583 257M1660 152L1740 124M1660 152L1651 174M1660 152L1716 227M1740 124L1792 102M1740 124L1651 174M1740 124L1780 163M1792 102L1780 163M1792 102L1851 177M1917 145L1922 134M1917 145L1851 177M1917 145L1936 233M1917 145L1953 244M1922 134L2019 95M1922 134L1851 177M1922 134L1936 233M2019 95L2106 97M2237 104L2289 155M2237 104L2257 176M2289 155L2343 150M2289 155L2257 176M2343 150L2257 176M2343 150L2394 206M2343 150L2417 187M2457 139L2544 125M2457 139L2394 206M2457 139L2417 187M2457 139L2492 224M2544 125L2594 194M-16 125L34 194M34 194L133 171M34 194L42 285M133 171L141 265M133 171L164 245M226 227L270 215M226 227L164 245M226 227L252 274M270 215L324 160M270 215L252 274M324 160L341 262M433 175L504 198M433 175L452 244M504 198L452 244M504 198L493 266M635 212L675 197M635 212L642 259M675 197L772 226M675 197L642 259M772 226L845 219M772 226L795 263M845 219L927 203M845 219L795 263M845 219L856 253M845 219L914 271M927 203L1033 176M927 203L856 253M927 203L914 271M927 203L972 283M1033 176L1089 225M1089 225L1146 212M1089 225L1109 316M1089 225L1128 265M1146 212L1248 238M1146 212L1128 265M1146 212L1211 247M1248 238L1339 175M1248 238L1211 247M1248 238L1338 322M1339 175L1382 202M1382 202L1466 198M1382 202L1351 303M1382 202L1421 262M1466 198L1549 198M1466 198L1421 262M1466 198L1501 298M1549 198L1583 257M1549 198L1615 272M1651 174L1716 227M1651 174L1692 260M1716 227L1780 163M1716 227L1692 260M1716 227L1778 270M1780 163L1851 177M1780 163L1778 270M1851 177L1911 248M1936 233L2051 215M1936 233L1911 248M1936 233L1953 244M2051 215L2142 237M2051 215L1953 244M2051 215L2075 308M2142 237L2171 230M2142 237L2075 308M2142 237L2143 304M2142 237L2188 294M2171 230L2257 176M2171 230L2143 304M2171 230L2188 294M2171 230L2206 326M2394 206L2417 187M2394 206L2492 224M2394 206L2352 290M2417 187L2492 224M2417 187L2352 290M2492 224L2454 313M2492 224L2512 256M42 285L141 265M42 285L-48 256M42 285L45 383M2602 285L2512 256M141 265L164 245M141 265L252 274M141 265L165 366M164 245L252 274M164 245L165 366M252 274L341 262M341 262L452 244M452 244L493 266M452 244L456 329M493 266L566 316M493 266L456 329M493 266L487 350M566 316L642 259M566 316L487 350M566 316L570 358M642 259L570 358M795 263L856 253M795 263L827 345M856 253L914 271M856 253L827 345M914 271L972 283M914 271L907 348M972 283L907 348M972 283L1031 395M1109 316L1128 265M1109 316L1104 393M1109 316L1193 380M1109 316L1164 402M1128 265L1211 247M1128 265L1209 347M1211 247L1209 347M1351 303L1421 262M1351 303L1338 322M1351 303L1394 380M1421 262L1501 298M1421 262L1488 328M1501 298L1583 257M1501 298L1488 328M1501 298L1572 353M1583 257L1615 272M1583 257L1572 353M1615 272L1692 260M1615 272L1572 353M1615 272L1647 367M1692 260L1778 270M1692 260L1720 336M1778 270L1720 336M1778 270L1782 351M1911 248L1953 244M2075 308L2143 304M2075 308L2065 340M2075 308L2100 383M2143 304L2188 294M2143 304L2206 326M2188 294L2206 326M2317 292L2352 290M2317 292L2206 326M2317 292L2347 394M2352 290L2454 313M2352 290L2347 394M2454 313L2512 256M2454 313L2475 369M2454 313L2500 384M45 383L98 397M45 383L10 428M45 383L-11 426M2605 383L2549 426M98 397L165 366M98 397L10 428M98 397L128 467M98 397L166 460M165 366L128 467M165 366L166 460M319 378L380 372M319 378L297 435M319 378L337 418M319 378L297 495M380 372L456 329M380 372L297 435M380 372L337 418M380 372L428 452M456 329L487 350M487 350L570 358M570 358L532 450M717 378L794 391M717 378L639 453M717 378L712 405M717 378L758 470M794 391L827 345M794 391L712 405M794 391L758 470M794 391L874 416M827 345L907 348M827 345L874 416M907 348L874 416M907 348L891 435M1031 395L1104 393M1031 395L994 440M1031 395L1084 436M1104 393L1193 380M1104 393L1084 436M1104 393L1164 402M1193 380L1209 347M1193 380L1164 402M1209 347L1164 402M1338 322L1394 380M1338 322L1376 411M1394 380L1488 328M1394 380L1355 436M1394 380L1376 411M1488 328L1572 353M1488 328L1527 456M1572 353L1647 367M1647 367L1720 336M1647 367L1664 455M1647 367L1689 411M1720 336L1782 351M1720 336L1689 411M1782 351L1885 342M1782 351L1806 400M1885 342L1958 380M1885 342L1806 400M1885 342L1864 421M1885 342L1928 436M1958 380L1864 421M1958 380L1928 436M1958 380L2046 455M1958 380L2001 481M2065 340L2100 383M2065 340L2095 415M2100 383L2046 455M2100 383L2095 415M2206 326L2258 393M2258 393L2347 394M2258 393L2192 463M2258 393L2271 434M2258 393L2322 459M2347 394L2271 434M2347 394L2322 459M2475 369L2500 384M2475 369L2458 428M2475 369L2549 426M2475 369L2461 492M2500 384L2570 428M2500 384L2458 428M2500 384L2549 426M-60 384L10 428M10 428L-11 426M10 428L57 496M2570 428L2549 426M128 467L166 460M128 467L57 496M128 467L105 498M166 460L105 498M166 460L181 559M297 435L337 418M297 435L297 495M297 435L339 482M337 418L297 495M337 418L339 482M428 452L532 450M428 452L339 482M428 452L420 539M428 452L525 506M532 450L639 453M532 450L525 506M532 450L605 505M639 453L712 405M639 453L605 505M712 405L758 470M758 470L717 534M758 470L832 509M874 416L891 435M874 416L832 509M891 435L832 509M891 435L948 525M994 440L1084 436M994 440L948 525M994 440L964 534M1084 436L1164 402M1279 474L1355 436M1279 474L1376 411M1279 474L1229 553M1279 474L1287 504M1279 474L1373 517M1355 436L1376 411M1355 436L1287 504M1355 436L1373 517M1376 411L1373 517M1478 459L1527 456M1478 459L1503 554M1478 459L1533 489M1527 456L1503 554M1527 456L1533 489M1664 455L1689 411M1664 455L1663 535M1664 455L1700 530M1806 400L1864 421M1806 400L1844 496M1864 421L1928 436M1864 421L1844 496M1928 436L1844 496M1928 436L2001 481M2046 455L2095 415M2046 455L2001 481M2095 415L2192 463M2095 415L2001 481M2192 463L2271 434M2192 463L2153 539M2192 463L2216 546M2271 434L2322 459M2322 459L2319 552M2322 459L2353 548M2458 428L2549 426M2458 428L2461 492M57 496L105 498M57 496L-20 556M2617 496L2540 556M105 498L181 559M105 498L154 572M181 559L154 572M181 559L163 614M181 559L276 578M297 495L339 482M297 495L276 578M339 482L420 539M420 539L348 622M420 539L408 615M420 539L533 563M525 506L605 505M525 506L533 563M605 505L533 563M717 534L745 556M717 534L764 575M745 556L832 509M745 556L764 575M745 556L721 645M832 509L764 575M948 525L964 534M948 525L1044 543M948 525L965 601M964 534L1044 543M964 534L965 601M1044 543L1102 611M1044 543L1128 573M1144 522L1229 553M1144 522L1128 573M1144 522L1205 608M1229 553L1287 504M1229 553L1205 608M1287 504L1373 517M1287 504L1385 565M1373 517L1385 565M1503 554L1533 489M1503 554L1487 598M1503 554L1563 570M1533 489L1563 570M1663 535L1700 530M1663 535L1628 591M1663 535L1729 567M1700 530L1806 523M1700 530L1628 591M1700 530L1729 567M1806 523L1844 496M1806 523L1729 567M1806 523L1811 623M1806 523L1851 575M1844 496L1851 575M1959 556L2001 481M1959 556L1851 575M1959 556L1956 619M1959 556L2066 591M2153 539L2216 546M2153 539L2066 591M2153 539L2086 587M2153 539L2175 625M2216 546L2175 625M2319 552L2353 548M2319 552L2315 610M2319 552L2335 575M2353 548L2461 492M2353 548L2315 610M2353 548L2335 575M2461 492L2540 556M2540 556L2609 626M2540 556L2465 622M2540 556L2492 638M-20 556L49 626M49 626L15 680M49 626L96 689M49 626L66 723M154 572L163 614M163 614L199 707M276 578L348 622M276 578L308 651M348 622L408 615M348 622L308 651M348 622L366 685M408 615L366 685M408 615L454 659M533 563L555 654M630 605L707 634M630 605L555 654M630 605L628 644M630 605L721 645M707 634L764 575M707 634L628 644M707 634L662 695M707 634L721 645M764 575L721 645M870 640L893 629M870 640L875 671M870 640L910 671M870 640L847 743M893 629L965 601M893 629L875 671M893 629L910 671M965 601L910 671M965 601L1030 659M1102 611L1128 573M1102 611L1205 608M1102 611L1030 659M1102 611L1072 646M1128 573L1205 608M1128 573L1072 646M1205 608L1257 699M1334 615L1385 565M1334 615L1349 692M1385 565L1487 598M1487 598L1563 570M1487 598L1459 663M1487 598L1560 677M1563 570L1628 591M1563 570L1560 677M1628 591L1659 647M1729 567L1811 623M1729 567L1727 663M1811 623L1851 575M1811 623L1727 663M1811 623L1808 663M1851 575L1808 663M1956 619L1902 679M2066 591L2086 587M2086 587L2175 625M2175 625L2133 686M2175 625L2164 703M2315 610L2335 575M2315 610L2307 646M2315 610L2327 680M2335 575L2307 646M2335 575L2327 680M2465 622L2492 638M2465 622L2440 670M2465 622L2496 683M2492 638L2575 680M2492 638L2440 670M2492 638L2496 683M-68 638L15 680M15 680L96 689M15 680L-64 683M15 680L66 723M2575 680L2496 683M96 689L66 723M96 689L127 764M96 689L165 765M199 707L127 764M199 707L165 765M199 707L278 731M308 651L366 685M308 651L278 731M308 651L351 743M366 685L454 659M366 685L351 743M454 659L555 654M454 659L443 750M555 654L628 644M555 654L536 761M628 644L662 695M628 644L645 729M662 695L721 645M662 695L633 780M662 695L645 729M875 671L910 671M875 671L847 743M875 671L954 748M910 671L954 748M1030 659L1072 646M1030 659L1133 718M1030 659L1031 744M1072 646L1133 718M1072 646L1031 744M1133 718L1115 749M1133 718L1197 742M1257 699L1349 692M1257 699L1197 742M1257 699L1278 753M1257 699L1291 783M1349 692L1399 717M1349 692L1278 753M1349 692L1409 734M1399 717L1459 663M1399 717L1409 734M1399 717L1460 781M1399 717L1391 803M1459 663L1560 677M1459 663L1409 734M1560 677L1659 647M1560 677L1606 721M1659 647L1727 663M1659 647L1606 721M1727 663L1808 663M1727 663L1729 744M1808 663L1902 679M1808 663L1828 749M1902 679L1962 709M1902 679L1828 749M1902 679L1884 756M1962 709L2034 714M1962 709L1884 756M1962 709L2004 771M2034 714L2133 686M2034 714L2004 771M2034 714L2085 727M2034 714L2022 816M2133 686L2164 703M2133 686L2085 727M2133 686L2231 723M2164 703L2085 727M2164 703L2231 723M2164 703L2268 727M2307 646L2327 680M2307 646L2231 723M2307 646L2268 727M2327 680L2231 723M2327 680L2268 727M2440 670L2496 683M2440 670L2509 750M2496 683L2509 750M66 723L127 764M127 764L165 765M127 764L136 862M165 765L136 862M165 765L171 841M278 731L351 743M278 731L264 830M351 743L443 750M351 743L264 830M443 750L536 761M443 750L447 854M536 761L633 780M536 761L645 729M536 761L547 853M633 780L645 729M633 780L619 877M633 780L679 844M645 729L679 844M779 726L847 743M847 743L812 852M847 743L893 833M954 748L1031 744M954 748L893 833M954 748L986 816M1031 744L1115 749M1031 744L986 816M1115 749L1197 742M1115 749L1118 858M1197 742L1278 753M1197 742L1291 783M1278 753L1291 783M1278 753L1284 848M1291 783L1242 868M1291 783L1284 848M1409 734L1460 781M1409 734L1391 803M1460 781L1537 777M1460 781L1391 803M1460 781L1484 850M1537 777L1606 721M1537 777L1484 850M1537 777L1599 865M1606 721L1674 804M1729 744L1674 804M1729 744L1704 810M1729 744L1770 828M1828 749L1884 756M1828 749L1877 813M1884 756L1962 793M1884 756L1877 813M1962 793L2004 771M1962 793L1877 813M1962 793L1983 864M1962 793L2022 816M2004 771L2085 727M2004 771L2022 816M2231 723L2268 727M2376 792L2417 798M2376 792L2294 865M2376 792L2349 817M2376 792L2451 829M2417 798L2509 750M2417 798L2349 817M2417 798L2451 829M2509 750L2451 829M2509 750L2516 862M21 852L-44 862M21 852L21 937M2581 852L2516 862M136 862L171 841M136 862L153 950M136 862L180 934M171 841L264 830M171 841L180 934M264 830L366 870M264 830L292 930M366 870L447 854M366 870L292 930M366 870L338 924M366 870L447 913M447 854L547 853M447 854L447 913M447 854L485 893M547 853L619 877M547 853L485 893M547 853L565 894M619 877L679 844M619 877L565 894M619 877L699 929M679 844L759 849M679 844L699 929M759 849L812 852M759 849L699 929M759 849L724 954M759 849L820 929M812 852L893 833M812 852L820 929M893 833L986 816M1118 858L1188 868M1118 858L1038 934M1118 858L1078 928M1118 858L1143 942M1188 868L1242 868M1188 868L1284 848M1188 868L1143 942M1188 868L1272 905M1242 868L1284 848M1242 868L1272 905M1242 868L1300 950M1284 848L1272 905M1391 803L1484 850M1391 803L1411 906M1484 850L1411 906M1484 850L1464 902M1599 865L1674 804M1599 865L1558 948M1599 865L1604 932M1674 804L1704 810M1674 804L1770 828M1704 810L1770 828M1704 810L1733 925M1704 810L1783 901M1770 828L1733 925M1770 828L1783 901M1983 864L2022 816M1983 864L1997 945M1983 864L2032 903M2022 816L2032 903M2154 831L2236 844M2154 831L2147 945M2154 831L2184 910M2236 844L2294 865M2236 844L2184 910M2294 865L2349 817M2294 865L2290 947M2349 817L2451 829M2349 817L2398 919M2451 829L2516 862M2516 862L2581 937M-44 862L21 937M21 937L-71 959M21 937L3 1021M21 937L100 976M2581 937L2489 959M153 950L180 934M153 950L100 976M153 950L202 1012M180 934L100 976M180 934L202 1012M292 930L338 924M292 930L309 1029M292 930L349 1007M338 924L447 913M338 924L349 1007M447 913L485 893M447 913L476 978M485 893L565 894M485 893L476 978M699 929L724 954M699 929L706 1014M724 954L820 929M724 954L706 1014M724 954L761 1016M820 929L871 1021M938 950L1038 934M938 950L871 1021M938 950L923 979M938 950L960 968M1038 934L1078 928M1038 934L960 968M1038 934L1095 987M1078 928L1143 942M1078 928L1095 987M1143 942L1095 987M1143 942L1167 1012M1272 905L1300 950M1272 905L1335 965M1300 950L1264 1028M1300 950L1335 965M1300 950L1271 1051M1411 906L1464 902M1411 906L1335 965M1411 906L1434 971M1464 902L1434 971M1558 948L1604 932M1558 948L1492 996M1558 948L1534 988M1558 948L1606 1019M1604 932L1534 988M1604 932L1606 1019M1733 925L1783 901M1733 925L1753 1039M1733 925L1770 1021M1783 901L1898 943M1898 943L1997 945M1898 943L1894 1013M1898 943L1991 982M1997 945L2032 903M1997 945L1991 982M1997 945L2065 976M2032 903L1991 982M2032 903L2065 976M2147 945L2184 910M2147 945L2065 976M2147 945L2151 996M2184 910L2290 947M2184 910L2151 996M2290 947L2398 919M2290 947L2266 981M2290 947L2374 999M2398 919L2405 908M2398 919L2374 999M2398 919L2450 1005M2489 959L2450 1005M2489 959L2530 1032M2489 959L2424 1048M3 1021L-30 1032M3 1021L49 1090M3 1021L86 1043M3 1021L-6 1061M2563 1021L2530 1032M2563 1021L2554 1061M100 976L202 1012M100 976L86 1043M202 1012L216 1072M202 1012L256 1057M309 1029L349 1007M309 1029L216 1072M309 1029L256 1057M309 1029L329 1064M349 1007L256 1057M349 1007L329 1064M476 978L515 1021M476 978L582 1036M515 1021L582 1036M515 1021L476 1118M515 1021L521 1055M515 1021L578 1074M582 1036L521 1055M582 1036L578 1074M706 1014L761 1016M706 1014L705 1059M706 1014L754 1102M761 1016L705 1059M761 1016L754 1102M871 1021L923 979M871 1021L858 1084M871 1021L917 1070M923 979L960 968M923 979L917 1070M1095 987L1167 1012M1167 1012L1264 1028M1167 1012L1129 1117M1167 1012L1271 1051M1264 1028L1335 965M1264 1028L1271 1051M1335 965L1434 971M1434 971L1492 996M1492 996L1534 988M1492 996L1443 1070M1492 996L1539 1077M1534 988L1606 1019M1534 988L1539 1077M1606 1019L1539 1077M1606 1019L1622 1079M1753 1039L1770 1021M1753 1039L1705 1071M1753 1039L1775 1114M1753 1039L1778 1143M1770 1021L1705 1071M1770 1021L1775 1114M1894 1013L1991 982M1894 1013L1883 1107M1894 1013L1964 1088M1991 982L2065 976M2065 976L2151 996M2151 996L2206 1039M2151 996L2150 1087M2206 1039L2266 981M2206 1039L2150 1087M2206 1039L2204 1105M2206 1039L2262 1100M2374 999L2450 1005M2374 999L2327 1078M2374 999L2424 1048M2450 1005L2530 1032M2450 1005L2424 1048M2530 1032L2554 1061M2530 1032L2521 1129M49 1090L86 1043M49 1090L-6 1061M49 1090L29 1121M49 1090L-39 1129M2609 1090L2554 1061M2609 1090L2521 1129M86 1043L29 1121M216 1072L256 1057M216 1072L158 1161M216 1072L192 1169M256 1057L329 1064M329 1064L287 1169M476 1118L521 1055M476 1118L439 1144M476 1118L485 1122M476 1118L485 1211M521 1055L578 1074M521 1055L485 1122M578 1074L631 1149M578 1074L658 1126M705 1059L754 1102M705 1059L658 1126M705 1059L731 1141M754 1102L658 1126M754 1102L731 1141M858 1084L917 1070M858 1084L858 1175M858 1084L895 1160M917 1070L1009 1072M917 1070L895 1160M1009 1072L1072 1112M1009 1072L1019 1138M1072 1112L1129 1117M1072 1112L1019 1138M1072 1112L1058 1136M1072 1112L1135 1149M1129 1117L1058 1136M1129 1117L1135 1149M1271 1051L1334 1120M1271 1051L1244 1139M1334 1120L1405 1076M1334 1120L1244 1139M1334 1120L1305 1185M1334 1120L1373 1173M1405 1076L1443 1070M1405 1076L1373 1173M1405 1076L1469 1133M1443 1070L1469 1133M1539 1077L1622 1079M1539 1077L1563 1133M1622 1079L1705 1071M1622 1079L1563 1133M1622 1079L1621 1181M1705 1071L1775 1114M1775 1114L1758 1158M1775 1114L1778 1143M1883 1107L1964 1088M1883 1107L1872 1175M1883 1107L1939 1143M1964 1088L2044 1103M1964 1088L1939 1143M1964 1088L2045 1129M2044 1103L2045 1129M2044 1103L2125 1136M2150 1087L2204 1105M2150 1087L2125 1136M2150 1087L2183 1169M2204 1105L2262 1100M2204 1105L2125 1136M2204 1105L2183 1169M2262 1100L2327 1078M2262 1100L2315 1129M2327 1078L2424 1048M2327 1078L2315 1129M2327 1078L2358 1184M2424 1048L2418 1161M2554 1061L2589 1121M2554 1061L2521 1129M-6 1061L29 1121M29 1121L-39 1129M2589 1121L2521 1129M158 1161L192 1169M158 1161L130 1252M158 1161L176 1245M192 1169L287 1169M192 1169L130 1252M192 1169L176 1245M287 1169L377 1193M287 1169L304 1216M377 1193L439 1144M377 1193L304 1216M377 1193L386 1272M377 1193L452 1233M439 1144L485 1122M439 1144L452 1233M439 1144L485 1211M485 1122L485 1211M631 1149L658 1126M631 1149L731 1141M631 1149L606 1254M658 1126L731 1141M731 1141L732 1245M858 1175L895 1160M858 1175L805 1236M858 1175L886 1266M895 1160L1019 1138M895 1160L886 1266M1019 1138L1058 1136M1058 1136L1135 1149M1058 1136L1078 1211M1135 1149L1078 1211M1135 1149L1134 1233M1244 1139L1305 1185M1244 1139L1276 1235M1244 1139L1304 1215M1305 1185L1373 1173M1305 1185L1276 1235M1305 1185L1304 1215M1373 1173L1304 1215M1373 1173L1378 1255M1469 1133L1563 1133M1469 1133L1484 1207M1563 1133L1621 1181M1563 1133L1602 1243M1621 1181L1581 1265M1621 1181L1602 1243M1758 1158L1778 1143M1758 1158L1749 1215M1778 1143L1872 1175M1778 1143L1749 1215M1872 1175L1939 1143M1872 1175L1874 1237M1872 1175L1921 1228M1939 1143L1921 1228M2045 1129L2125 1136M2125 1136L2183 1169M2183 1169L2143 1246M2183 1169L2168 1242M2315 1129L2358 1184M2315 1129L2268 1206M2315 1129L2372 1227M2358 1184L2418 1161M2358 1184L2268 1206M2358 1184L2372 1227M2418 1161L2372 1227M2418 1161L2508 1214M2521 1129L2508 1214M60 1227L130 1252M60 1227L-52 1214M60 1227L35 1332M2620 1227L2508 1214M130 1252L176 1245M130 1252L140 1332M176 1245L140 1332M176 1245L169 1359M304 1216L386 1272M304 1216L384 1310M386 1272L452 1233M386 1272L384 1310M386 1272L453 1310M452 1233L485 1211M452 1233L453 1310M606 1254L687 1259M606 1254L530 1313M606 1254L592 1315M687 1259L732 1245M687 1259L592 1315M687 1259L702 1349M687 1259L763 1305M732 1245L805 1236M732 1245L763 1305M805 1236L886 1266M805 1236L763 1305M805 1236L856 1334M886 1266L856 1334M886 1266L945 1327M1035 1258L1078 1211M1035 1258L1134 1233M1035 1258L1030 1283M1078 1211L1134 1233M1078 1211L1030 1283M1134 1233L1138 1342M1276 1235L1304 1215M1276 1235L1378 1255M1276 1235L1272 1341M1304 1215L1378 1255M1378 1255L1360 1332M1581 1265L1602 1243M1581 1265L1506 1334M1581 1265L1541 1323M1581 1265L1673 1365M1602 1243L1541 1323M1749 1215L1821 1260M1749 1215L1753 1323M1821 1260L1874 1237M1821 1260L1806 1346M1821 1260L1870 1324M1874 1237L1921 1228M1874 1237L1870 1324M1874 1237L1952 1307M1921 1228L1952 1307M2041 1271L2143 1246M2041 1271L1952 1307M2041 1271L2074 1336M2041 1271L2080 1293M2143 1246L2168 1242M2143 1246L2080 1293M2143 1246L2221 1327M2168 1242L2080 1293M2168 1242L2221 1327M2168 1242L2251 1284M2268 1206L2372 1227M2268 1206L2251 1284M2372 1227L2432 1279M2432 1279L2508 1214M2432 1279L2356 1344M2432 1279L2468 1353M2432 1279L2516 1297M2508 1214L2516 1297M35 1332L-44 1297M35 1332L63 1408M2595 1332L2516 1297M140 1332L169 1359M140 1332L243 1348M140 1332L182 1384M169 1359L243 1348M169 1359L115 1426M169 1359L182 1384M243 1348L182 1384M243 1348L259 1419M243 1348L328 1363M384 1310L453 1310M384 1310L328 1363M453 1310L530 1313M453 1310L479 1381M530 1313L592 1315M530 1313L479 1381M592 1315L550 1408M592 1315L632 1397M702 1349L763 1305M702 1349L632 1397M702 1349L717 1389M702 1349L744 1382M763 1305L744 1382M856 1334L945 1327M856 1334L744 1382M856 1334L804 1391M945 1327L1030 1283M945 1327L949 1433M945 1327L973 1398M1030 1283L1113 1341M1030 1283L1109 1373M1113 1341L1138 1342M1113 1341L1109 1373M1113 1341L1177 1414M1138 1342L1109 1373M1138 1342L1177 1414M1272 1341L1330 1354M1272 1341L1360 1332M1272 1341L1245 1382M1272 1341L1353 1382M1330 1354L1360 1332M1330 1354L1245 1382M1330 1354L1353 1382M1360 1332L1353 1382M1360 1332L1439 1365M1506 1334L1541 1323M1506 1334L1439 1365M1506 1334L1521 1381M1541 1323L1521 1381M1650 1357L1673 1365M1753 1323L1806 1346M1753 1323L1673 1365M1753 1323L1730 1377M1753 1323L1781 1387M1806 1346L1870 1324M1806 1346L1730 1377M1806 1346L1781 1387M1870 1324L1952 1307M1952 1307L1946 1398M2074 1336L2080 1293M2074 1336L2074 1398M2074 1336L2092 1434M2080 1293L2074 1398M2221 1327L2251 1284M2221 1327L2167 1414M2221 1327L2292 1430M2356 1344L2468 1353M2356 1344L2292 1430M2356 1344L2334 1399M2468 1353L2516 1297M2468 1353L2425 1410M2468 1353L2522 1419M63 1408L115 1426M63 1408L-38 1419M2623 1408L2522 1419M115 1426L182 1384M182 1384L259 1419M259 1419L328 1363M479 1381L550 1408M550 1408L632 1397M632 1397L717 1389M717 1389L744 1382M717 1389L804 1391M744 1382L804 1391M949 1433L973 1398M1109 1373L1177 1414M1177 1414L1245 1382M1353 1382L1439 1365M1439 1365L1521 1381M1504 1440L1521 1381M1673 1365L1730 1377M1673 1365L1781 1387M1730 1377L1781 1387M1919 1437L1946 1398M2074 1398L2092 1434M2074 1398L2167 1414M2092 1434L2167 1414M2292 1430L2334 1399M2334 1399L2425 1410M2425 1410L2522 1419"/></svg>