<svg xmlns="http://www.w3.org/2000/svg" width="2560" height="1440" fill="#fff"><circle cx="42" cy="67" r="6"/><circle cx="127" cy="65" r="5"/><circle cx="178" cy="14" r="4"/><circle cx="262" cy="0" r="6"/><circle cx="262" cy="1440" r="6"/><circle cx="366" cy="79" r="4"/><circle cx="421" cy="13" r="4"/><circle cx="481" cy="77" r="5"/><circle cx="573" cy="32" r="6"/><circle cx="709" cy="23" r="5"/><circle cx="780" cy="20" r="5"/><circle cx="837" cy="40" r="6"/><circle cx="960" cy="41" r="5"/><circle cx="1015" cy="70" r="5"/><circle cx="1041" cy="36" r="5"/><circle cx="1157" cy="3" r="5"/><circle cx="1157" cy="1443" r="5"/><circle cx="1234" cy="4" r="5"/><circle cx="1234" cy="1444" r="5"/><circle cx="1289" cy="10" r="5"/><circle cx="1419" cy="79" r="5"/><circle cx="1497" cy="37" r="4"/><circle cx="1572" cy="62" r="5"/><circle cx="1660" cy="72" r="5"/><circle cx="1716" cy="24" r="5"/><circle cx="1812" cy="48" r="5"/><circle cx="1914" cy="79" r="4"/><circle cx="1928" cy="34" r="5"/><circle cx="2075" cy="57" r="5"/><circle cx="2107" cy="15" r="4"/><circle cx="2190" cy="4" r="5"/><circle cx="2190" cy="1444" r="5"/><circle cx="2272" cy="54" r="5"/><circle cx="2357" cy="68" r="5"/><circle cx="2402" cy="9" r="5"/><circle cx="2538" cy="33" r="5"/><circle cx="71" cy="131" r="5"/><circle cx="114" cy="102" r="4"/><circle cx="205" cy="125" r="6"/><circle cx="282" cy="122" r="5"/><circle cx="340" cy="91" r="4"/><circle cx="408" cy="90" r="6"/><circle cx="513" cy="128" r="6"/><circle cx="593" cy="106" r="6"/><circle cx="688" cy="142" r="5"/><circle cx="796" cy="100" r="6"/><circle cx="810" cy="100" r="5"/><circle cx="901" cy="144" r="5"/><circle cx="975" cy="119" r="6"/><circle cx="1069" cy="112" r="5"/><circle cx="1189" cy="138" r="4"/><circle cx="1251" cy="160" r="5"/><circle cx="1296" cy="140" r="4"/><circle cx="1403" cy="91" r="5"/><circle cx="1511" cy="136" r="4"/><circle cx="1583" cy="94" r="6"/><circle cx="1612" cy="160" r="6"/><circle cx="1710" cy="127" r="5"/><circle cx="1784" cy="88" r="5"/><circle cx="1889" cy="121" r="4"/><circle cx="1976" cy="138" r="6"/><circle cx="2029" cy="95" r="4"/><circle cx="2127" cy="85" r="5"/><circle cx="2223" cy="88" r="5"/><circle cx="2253" cy="158" r="5"/><circle cx="2389" cy="113" r="6"/><circle cx="2421" cy="116" r="5"/><circle cx="2512" cy="111" r="4"/><circle cx="1" cy="170" r="5"/><circle cx="2561" cy="170" r="5"/><circle cx="114" cy="205" r="5"/><circle cx="169" cy="198" r="5"/><circle cx="279" cy="233" r="6"/><circle cx="348" cy="206" r="5"/><circle cx="424" cy="208" r="4"/><circle cx="544" cy="240" r="4"/><circle cx="578" cy="223" r="5"/><circle cx="690" cy="171" r="5"/><circle cx="779" cy="179" r="6"/><circle cx="833" cy="162" r="5"/><circle cx="940" cy="218" r="5"/><circle cx="978" cy="196" r="5"/><circle cx="1117" cy="195" r="6"/><circle cx="1152" cy="177" r="5"/><circle cx="1219" cy="212" r="5"/><circle cx="1325" cy="239" r="4"/><circle cx="1370" cy="230" r="6"/><circle cx="1474" cy="215" r="4"/><circle cx="1548" cy="206" r="4"/><circle cx="1631" cy="225" r="5"/><circle cx="1704" cy="230" r="5"/><circle cx="1778" cy="204" r="5"/><circle cx="1862" cy="205" r="5"/><circle cx="1926" cy="190" r="5"/><circle cx="2021" cy="189" r="6"/><circle cx="2157" cy="238" r="4"/><circle cx="2168" cy="207" r="5"/><circle cx="2248" cy="206" r="5"/><circle cx="2368" cy="178" r="4"/><circle cx="2471" cy="192" r="5"/><circle cx="2529" cy="184" r="4"/><circle cx="68" cy="304" r="4"/><circle cx="152" cy="307" r="5"/><circle cx="161" cy="286" r="4"/><circle cx="269" cy="271" r="4"/><circle cx="380" cy="263" r="5"/><circle cx="451" cy="259" r="4"/><circle cx="536" cy="257" r="5"/><circle cx="623" cy="298" r="4"/><circle cx="700" cy="306" r="4"/><circle cx="735" cy="320" r="5"/><circle cx="848" cy="298" r="6"/><circle cx="889" cy="311" r="5"/><circle cx="1023" cy="309" r="5"/><circle cx="1112" cy="312" r="5"/><circle cx="1156" cy="263" r="5"/><circle cx="1253" cy="316" r="6"/><circle cx="1299" cy="310" r="4"/><circle cx="1398" cy="309" r="5"/><circle cx="1509" cy="259" r="5"/><circle cx="1554" cy="287" r="5"/><circle cx="1641" cy="287" r="6"/><circle cx="1731" cy="257" r="4"/><circle cx="1781" cy="257" r="5"/><circle cx="1907" cy="298" r="6"/><circle cx="1961" cy="277" r="5"/><circle cx="2021" cy="319" r="5"/><circle cx="2128" cy="267" r="6"/><circle cx="2201" cy="257" r="4"/><circle cx="2306" cy="285" r="4"/><circle cx="2351" cy="251" r="5"/><circle cx="2445" cy="246" r="6"/><circle cx="2481" cy="240" r="6"/><circle cx="65" cy="396" r="5"/><circle cx="143" cy="332" r="4"/><circle cx="190" cy="389" r="5"/><circle cx="280" cy="394" r="6"/><circle cx="372" cy="375" r="5"/><circle cx="443" cy="347" r="5"/><circle cx="530" cy="340" r="4"/><circle cx="616" cy="371" r="5"/><circle cx="704" cy="372" r="6"/><circle cx="742" cy="355" r="4"/><circle cx="815" cy="349" r="5"/><circle cx="935" cy="337" r="6"/><circle cx="972" cy="323" r="5"/><circle cx="1041" cy="371" r="4"/><circle cx="1170" cy="325" r="5"/><circle cx="1279" cy="384" r="4"/><circle cx="1286" cy="355" r="5"/><circle cx="1394" cy="358" r="5"/><circle cx="1489" cy="344" r="4"/><circle cx="1546" cy="326" r="5"/><circle cx="1642" cy="338" r="5"/><circle cx="1726" cy="320" r="5"/><circle cx="1808" cy="346" r="6"/><circle cx="1883" cy="363" r="5"/><circle cx="1990" cy="335" r="5"/><circle cx="2033" cy="376" r="6"/><circle cx="2114" cy="341" r="5"/><circle cx="2183" cy="372" r="5"/><circle cx="2310" cy="324" r="4"/><circle cx="2373" cy="388" r="5"/><circle cx="2428" cy="324" r="6"/><circle cx="2502" cy="398" r="5"/><circle cx="2" cy="439" r="6"/><circle cx="2562" cy="439" r="6"/><circle cx="86" cy="410" r="5"/><circle cx="215" cy="445" r="5"/><circle cx="274" cy="457" r="4"/><circle cx="361" cy="438" r="5"/><circle cx="453" cy="462" r="5"/><circle cx="485" cy="444" r="6"/><circle cx="579" cy="405" r="6"/><circle cx="664" cy="463" r="6"/><circle cx="753" cy="475" r="5"/><circle cx="860" cy="466" r="5"/><circle cx="914" cy="461" r="5"/><circle cx="1033" cy="445" r="4"/><circle cx="1051" cy="429" r="6"/><circle cx="1126" cy="408" r="6"/><circle cx="1209" cy="454" r="5"/><circle cx="1314" cy="427" r="6"/><circle cx="1385" cy="432" r="5"/><circle cx="1513" cy="409" r="5"/><circle cx="1562" cy="433" r="5"/><circle cx="1665" cy="420" r="5"/><circle cx="1684" cy="452" r="5"/><circle cx="1810" cy="478" r="5"/><circle cx="1894" cy="432" r="6"/><circle cx="1963" cy="407" r="5"/><circle cx="2077" cy="460" r="4"/><circle cx="2153" cy="422" r="5"/><circle cx="2227" cy="410" r="5"/><circle cx="2274" cy="451" r="5"/><circle cx="2376" cy="408" r="6"/><circle cx="2448" cy="465" r="4"/><circle cx="2531" cy="422" r="5"/><circle cx="60" cy="494" r="6"/><circle cx="122" cy="526" r="5"/><circle cx="179" cy="528" r="4"/><circle cx="287" cy="522" r="6"/><circle cx="366" cy="539" r="6"/><circle cx="451" cy="491" r="6"/><circle cx="499" cy="501" r="5"/><circle cx="609" cy="532" r="4"/><circle cx="691" cy="546" r="5"/><circle cx="725" cy="558" r="4"/><circle cx="863" cy="508" r="5"/><circle cx="903" cy="539" r="5"/><circle cx="1004" cy="512" r="5"/><circle cx="1076" cy="493" r="5"/><circle cx="1175" cy="498" r="4"/><circle cx="1265" cy="488" r="5"/><circle cx="1358" cy="504" r="4"/><circle cx="1390" cy="525" r="5"/><circle cx="1445" cy="543" r="6"/><circle cx="1596" cy="535" r="5"/><circle cx="1633" cy="493" r="5"/><circle cx="1685" cy="535" r="4"/><circle cx="1834" cy="504" r="4"/><circle cx="1898" cy="553" r="5"/><circle cx="1922" cy="528" r="5"/><circle cx="2026" cy="541" r="5"/><circle cx="2117" cy="528" r="4"/><circle cx="2237" cy="552" r="5"/><circle cx="2288" cy="531" r="5"/><circle cx="2332" cy="524" r="5"/><circle cx="2404" cy="553" r="4"/><circle cx="2547" cy="553" r="6"/><circle cx="30" cy="638" r="4"/><circle cx="91" cy="566" r="4"/><circle cx="166" cy="581" r="5"/><circle cx="259" cy="598" r="5"/><circle cx="353" cy="613" r="5"/><circle cx="434" cy="560" r="5"/><circle cx="510" cy="560" r="5"/><circle cx="614" cy="600" r="6"/><circle cx="695" cy="584" r="4"/><circle cx="776" cy="632" r="4"/><circle cx="855" cy="614" r="5"/><circle cx="918" cy="566" r="5"/><circle cx="1016" cy="583" r="6"/><circle cx="1113" cy="571" r="4"/><circle cx="1176" cy="614" r="6"/><circle cx="1211" cy="607" r="6"/><circle cx="1325" cy="601" r="6"/><circle cx="1428" cy="603" r="5"/><circle cx="1473" cy="629" r="4"/><circle cx="1537" cy="628" r="4"/><circle cx="1674" cy="576" r="4"/><circle cx="1692" cy="601" r="5"/><circle cx="1826" cy="611" r="6"/><circle cx="1884" cy="634" r="6"/><circle cx="1982" cy="617" r="5"/><circle cx="2033" cy="607" r="6"/><circle cx="2092" cy="623" r="5"/><circle cx="2218" cy="561" r="5"/><circle cx="2268" cy="573" r="5"/><circle cx="2331" cy="602" r="6"/><circle cx="2434" cy="584" r="4"/><circle cx="2542" cy="626" r="5"/><circle cx="3" cy="701" r="6"/><circle cx="2563" cy="701" r="6"/><circle cx="95" cy="720" r="6"/><circle cx="223" cy="678" r="5"/><circle cx="304" cy="653" r="5"/><circle cx="353" cy="680" r="6"/><circle cx="422" cy="661" r="6"/><circle cx="510" cy="687" r="5"/><circle cx="561" cy="715" r="5"/><circle cx="677" cy="660" r="5"/><circle cx="799" cy="705" r="4"/><circle cx="837" cy="693" r="6"/><circle cx="910" cy="650" r="5"/><circle cx="993" cy="648" r="5"/><circle cx="1062" cy="682" r="5"/><circle cx="1166" cy="694" r="5"/><circle cx="1264" cy="653" r="4"/><circle cx="1285" cy="687" r="5"/><circle cx="1411" cy="699" r="4"/><circle cx="1502" cy="677" r="4"/><circle cx="1542" cy="691" r="5"/><circle cx="1607" cy="663" r="5"/><circle cx="1727" cy="689" r="6"/><circle cx="1821" cy="680" r="6"/><circle cx="1851" cy="640" r="6"/><circle cx="1986" cy="690" r="6"/><circle cx="2010" cy="687" r="5"/><circle cx="2134" cy="667" r="5"/><circle cx="2182" cy="699" r="4"/><circle cx="2297" cy="717" r="5"/><circle cx="2353" cy="701" r="6"/><circle cx="2412" cy="682" r="6"/><circle cx="2543" cy="710" r="6"/><circle cx="20" cy="757" r="4"/><circle cx="125" cy="768" r="4"/><circle cx="207" cy="737" r="4"/><circle cx="253" cy="793" r="6"/><circle cx="385" cy="744" r="5"/><circle cx="440" cy="748" r="4"/><circle cx="525" cy="792" r="5"/><circle cx="628" cy="798" r="6"/><circle cx="692" cy="795" r="5"/><circle cx="760" cy="776" r="4"/><circle cx="834" cy="746" r="5"/><circle cx="925" cy="742" r="4"/><circle cx="988" cy="791" r="6"/><circle cx="1055" cy="739" r="4"/><circle cx="1144" cy="734" r="5"/><circle cx="1267" cy="740" r="5"/><circle cx="1317" cy="741" r="5"/><circle cx="1433" cy="749" r="4"/><circle cx="1474" cy="735" r="5"/><circle cx="1524" cy="742" r="4"/><circle cx="1654" cy="796" r="6"/><circle cx="1716" cy="781" r="5"/><circle cx="1777" cy="796" r="5"/><circle cx="1907" cy="761" r="6"/><circle cx="1929" cy="794" r="5"/><circle cx="2063" cy="746" r="5"/><circle cx="2123" cy="762" r="5"/><circle cx="2221" cy="748" r="5"/><circle cx="2291" cy="731" r="5"/><circle cx="2342" cy="768" r="5"/><circle cx="2437" cy="767" r="4"/><circle cx="2550" cy="783" r="5"/><circle cx="75" cy="847" r="4"/><circle cx="158" cy="850" r="5"/><circle cx="239" cy="807" r="4"/><circle cx="279" cy="817" r="5"/><circle cx="374" cy="817" r="4"/><circle cx="420" cy="847" r="5"/><circle cx="493" cy="869" r="5"/><circle cx="611" cy="831" r="5"/><circle cx="711" cy="802" r="5"/><circle cx="799" cy="811" r="6"/><circle cx="844" cy="862" r="5"/><circle cx="908" cy="836" r="4"/><circle cx="1036" cy="825" r="5"/><circle cx="1095" cy="836" r="5"/><circle cx="1196" cy="876" r="4"/><circle cx="1258" cy="857" r="5"/><circle cx="1281" cy="813" r="5"/><circle cx="1439" cy="815" r="6"/><circle cx="1500" cy="809" r="4"/><circle cx="1526" cy="811" r="5"/><circle cx="1671" cy="803" r="5"/><circle cx="1710" cy="810" r="4"/><circle cx="1763" cy="822" r="5"/><circle cx="1899" cy="826" r="4"/><circle cx="1998" cy="839" r="4"/><circle cx="2028" cy="846" r="5"/><circle cx="2109" cy="814" r="4"/><circle cx="2224" cy="878" r="6"/><circle cx="2299" cy="833" r="5"/><circle cx="2388" cy="804" r="6"/><circle cx="2436" cy="834" r="5"/><circle cx="2508" cy="805" r="4"/><circle cx="66" cy="880" r="5"/><circle cx="93" cy="922" r="5"/><circle cx="165" cy="955" r="5"/><circle cx="300" cy="900" r="5"/><circle cx="375" cy="933" r="5"/><circle cx="419" cy="918" r="6"/><circle cx="542" cy="903" r="5"/><circle cx="575" cy="935" r="5"/><circle cx="697" cy="933" r="5"/><circle cx="773" cy="901" r="6"/><circle cx="879" cy="895" r="6"/><circle cx="957" cy="923" r="6"/><circle cx="998" cy="907" r="5"/><circle cx="1118" cy="953" r="6"/><circle cx="1191" cy="912" r="5"/><circle cx="1211" cy="941" r="5"/><circle cx="1347" cy="914" r="6"/><circle cx="1387" cy="917" r="6"/><circle cx="1520" cy="907" r="5"/><circle cx="1594" cy="951" r="4"/><circle cx="1656" cy="954" r="5"/><circle cx="1726" cy="920" r="5"/><circle cx="1823" cy="919" r="5"/><circle cx="1918" cy="908" r="5"/><circle cx="1959" cy="900" r="5"/><circle cx="2035" cy="895" r="4"/><circle cx="2103" cy="888" r="4"/><circle cx="2200" cy="944" r="5"/><circle cx="2262" cy="903" r="5"/><circle cx="2349" cy="892" r="6"/><circle cx="2442" cy="904" r="5"/><circle cx="2499" cy="950" r="6"/><circle cx="66" cy="1011" r="4"/><circle cx="145" cy="1014" r="5"/><circle cx="231" cy="967" r="5"/><circle cx="296" cy="961" r="5"/><circle cx="375" cy="971" r="5"/><circle cx="477" cy="966" r="5"/><circle cx="495" cy="1022" r="6"/><circle cx="592" cy="997" r="5"/><circle cx="695" cy="994" r="4"/><circle cx="784" cy="992" r="6"/><circle cx="810" cy="965" r="5"/><circle cx="954" cy="967" r="6"/><circle cx="988" cy="1027" r="6"/><circle cx="1079" cy="996" r="6"/><circle cx="1145" cy="974" r="4"/><circle cx="1275" cy="1010" r="5"/><circle cx="1328" cy="996" r="5"/><circle cx="1401" cy="1037" r="4"/><circle cx="1506" cy="973" r="5"/><circle cx="1561" cy="975" r="4"/><circle cx="1678" cy="978" r="6"/><circle cx="1702" cy="972" r="4"/><circle cx="1815" cy="967" r="5"/><circle cx="1860" cy="981" r="6"/><circle cx="1983" cy="979" r="4"/><circle cx="2042" cy="970" r="6"/><circle cx="2156" cy="980" r="5"/><circle cx="2177" cy="995" r="4"/><circle cx="2249" cy="983" r="6"/><circle cx="2383" cy="1038" r="5"/><circle cx="2458" cy="990" r="4"/><circle cx="2495" cy="1035" r="5"/><circle cx="5" cy="1085" r="6"/><circle cx="2565" cy="1085" r="6"/><circle cx="151" cy="1088" r="5"/><circle cx="218" cy="1108" r="4"/><circle cx="244" cy="1050" r="5"/><circle cx="324" cy="1108" r="6"/><circle cx="435" cy="1097" r="6"/><circle cx="502" cy="1100" r="5"/><circle cx="627" cy="1104" r="4"/><circle cx="642" cy="1064" r="5"/><circle cx="738" cy="1091" r="5"/><circle cx="817" cy="1066" r="4"/><circle cx="957" cy="1086" r="6"/><circle cx="1027" cy="1114" r="6"/><circle cx="1051" cy="1056" r="5"/><circle cx="1130" cy="1077" r="5"/><circle cx="1253" cy="1113" r="5"/><circle cx="1348" cy="1118" r="5"/><circle cx="1407" cy="1077" r="5"/><circle cx="1495" cy="1059" r="5"/><circle cx="1570" cy="1070" r="4"/><circle cx="1655" cy="1114" r="6"/><circle cx="1709" cy="1105" r="5"/><circle cx="1802" cy="1083" r="6"/><circle cx="1859" cy="1092" r="6"/><circle cx="1962" cy="1082" r="6"/><circle cx="2075" cy="1113" r="6"/><circle cx="2124" cy="1103" r="5"/><circle cx="2232" cy="1069" r="6"/><circle cx="2254" cy="1059" r="4"/><circle cx="2389" cy="1118" r="6"/><circle cx="2435" cy="1048" r="5"/><circle cx="2556" cy="1066" r="5"/><circle cx="-4" cy="1066" r="5"/><circle cx="55" cy="1191" r="5"/><circle cx="121" cy="1126" r="5"/><circle cx="202" cy="1200" r="5"/><circle cx="257" cy="1173" r="5"/><circle cx="346" cy="1125" r="5"/><circle cx="464" cy="1180" r="5"/><circle cx="504" cy="1150" r="4"/><circle cx="633" cy="1127" r="6"/><circle cx="652" cy="1167" r="5"/><circle cx="752" cy="1189" r="4"/><circle cx="876" cy="1140" r="5"/><circle cx="896" cy="1179" r="5"/><circle cx="973" cy="1127" r="4"/><circle cx="1052" cy="1178" r="5"/><circle cx="1196" cy="1181" r="4"/><circle cx="1259" cy="1137" r="5"/><circle cx="1349" cy="1140" r="5"/><circle cx="1379" cy="1179" r="5"/><circle cx="1508" cy="1178" r="5"/><circle cx="1532" cy="1140" r="5"/><circle cx="1627" cy="1186" r="4"/><circle cx="1696" cy="1168" r="4"/><circle cx="1787" cy="1176" r="6"/><circle cx="1900" cy="1139" r="5"/><circle cx="1938" cy="1152" r="5"/><circle cx="2037" cy="1168" r="6"/><circle cx="2125" cy="1193" r="4"/><circle cx="2189" cy="1150" r="5"/><circle cx="2319" cy="1159" r="4"/><circle cx="2334" cy="1132" r="5"/><circle cx="2444" cy="1140" r="6"/><circle cx="2492" cy="1148" r="4"/><circle cx="78" cy="1206" r="4"/><circle cx="140" cy="1250" r="5"/><circle cx="185" cy="1239" r="5"/><circle cx="288" cy="1264" r="5"/><circle cx="357" cy="1275" r="5"/><circle cx="433" cy="1266" r="5"/><circle cx="510" cy="1229" r="5"/><circle cx="602" cy="1232" r="4"/><circle cx="717" cy="1263" r="4"/><circle cx="725" cy="1211" r="5"/><circle cx="847" cy="1267" r="4"/><circle cx="889" cy="1216" r="5"/><circle cx="990" cy="1224" r="5"/><circle cx="1087" cy="1262" r="4"/><circle cx="1184" cy="1230" r="5"/><circle cx="1231" cy="1211" r="6"/><circle cx="1346" cy="1231" r="5"/><circle cx="1379" cy="1255" r="5"/><circle cx="1452" cy="1216" r="4"/><circle cx="1537" cy="1271" r="6"/><circle cx="1678" cy="1264" r="5"/><circle cx="1732" cy="1205" r="5"/><circle cx="1774" cy="1252" r="4"/><circle cx="1863" cy="1273" r="6"/><circle cx="1972" cy="1228" r="6"/><circle cx="2002" cy="1229" r="6"/><circle cx="2115" cy="1260" r="6"/><circle cx="2204" cy="1237" r="5"/><circle cx="2262" cy="1248" r="5"/><circle cx="2351" cy="1234" r="4"/><circle cx="2478" cy="1218" r="5"/><circle cx="2553" cy="1273" r="5"/><circle cx="30" cy="1320" r="4"/><circle cx="92" cy="1326" r="4"/><circle cx="218" cy="1330" r="6"/><circle cx="251" cy="1356" r="5"/><circle cx="351" cy="1358" r="6"/><circle cx="408" cy="1297" r="4"/><circle cx="558" cy="1304" r="5"/><circle cx="570" cy="1302" r="6"/><circle cx="675" cy="1318" r="5"/><circle cx="753" cy="1288" r="4"/><circle cx="872" cy="1289" r="4"/><circle cx="920" cy="1353" r="5"/><circle cx="1036" cy="1296" r="4"/><circle cx="1046" cy="1323" r="6"/><circle cx="1175" cy="1333" r="5"/><circle cx="1277" cy="1354" r="5"/><circle cx="1324" cy="1301" r="6"/><circle cx="1420" cy="1349" r="6"/><circle cx="1442" cy="1353" r="5"/><circle cx="1559" cy="1320" r="5"/><circle cx="1630" cy="1339" r="5"/><circle cx="1700" cy="1341" r="5"/><circle cx="1817" cy="1285" r="4"/><circle cx="1864" cy="1355" r="5"/><circle cx="1989" cy="1292" r="6"/><circle cx="2017" cy="1346" r="5"/><circle cx="2126" cy="1332" r="4"/><circle cx="2171" cy="1347" r="5"/><circle cx="2270" cy="1285" r="4"/><circle cx="2383" cy="1339" r="6"/><circle cx="2414" cy="1337" r="5"/><circle cx="2486" cy="1291" r="5"/><circle cx="43" cy="1406" r="6"/><circle cx="132" cy="1417" r="5"/><circle cx="195" cy="1433" r="4"/><circle cx="299" cy="1390" r="5"/><circle cx="338" cy="1415" r="4"/><circle cx="453" cy="1406" r="6"/><circle cx="497" cy="1394" r="6"/><circle cx="594" cy="1413" r="5"/><circle cx="682" cy="1379" r="5"/><circle cx="722" cy="1411" r="4"/><circle cx="868" cy="1362" r="4"/><circle cx="938" cy="1373" r="4"/><circle cx="990" cy="1396" r="4"/><circle cx="1051" cy="1371" r="4"/><circle cx="1191" cy="1394" r="5"/><circle cx="1215" cy="1396" r="5"/><circle cx="1286" cy="1410" r="5"/><circle cx="1382" cy="1387" r="5"/><circle cx="1514" cy="1365" r="4"/><circle cx="1533" cy="1409" r="6"/><circle cx="1633" cy="1369" r="6"/><circle cx="1723" cy="1426" r="5"/><circle cx="1787" cy="1399" r="5"/><circle cx="1884" cy="1394" r="5"/><circle cx="1990" cy="1421" r="4"/><circle cx="2076" cy="1394" r="4"/><circle cx="2094" cy="1405" r="5"/><circle cx="2189" cy="1413" r="4"/><circle cx="2313" cy="1412" r="5"/><circle cx="2357" cy="1420" r="4"/><circle cx="2454" cy="1365" r="5"/><circle cx="2559" cy="1434" r="5"/><circle cx="-1" cy="1434" r="5"/><path stroke="#fff" d="M42 67L127 65M42 67L-22 33M42 67L71 131M42 67L114 102M42 67L-1 -6M2602 67L2538 33M2602 67L2559 -6M42 1507L-1 1434M2602 1507L2559 1434M127 65L178 14M127 65L71 131M127 65L114 102M127 65L132 -23M127 1505L132 1417M178 14L262 0M178 14L132 -23M178 14L195 -7M178 1454L132 1417M178 1454L195 1433M262 0L251 -84M262 0L195 -7M262 0L299 -50M262 0L338 -25M262 1440L251 1356M262 1440L195 1433M262 1440L299 1390M262 1440L338 1415M366 79L421 13M366 79L282 122M366 79L340 91M366 79L408 90M421 13L481 77M421 13L408 90M421 13L453 -34M421 13L497 -46M421 1453L453 1406M421 1453L497 1394M481 77L573 32M481 77L408 90M481 77L513 128M481 77L453 -34M481 1517L453 1406M573 32L513 128M573 32L593 106M573 32L497 -46M573 32L594 -27M573 1472L497 1394M573 1472L594 1413M709 23L780 20M709 23L682 -61M709 23L722 -29M709 1463L682 1379M709 1463L722 1411M780 20L837 40M780 20L796 100M780 20L810 100M780 20L722 -29M780 1460L722 1411M837 40L796 100M837 40L810 100M837 40L901 144M837 40L833 162M960 41L1015 70M960 41L1041 36M960 41L975 119M960 41L990 -44M960 1481L990 1396M1015 70L1041 36M1015 70L975 119M1015 70L1069 112M1041 36L1069 112M1157 3L1234 4M1157 3L1175 -107M1157 3L1191 -46M1157 1443L1175 1333M1157 1443L1191 1394M1234 4L1289 10M1234 4L1191 -46M1234 4L1215 -44M1234 4L1286 -30M1234 1444L1191 1394M1234 1444L1215 1396M1234 1444L1286 1410M1289 10L1277 -86M1289 10L1286 -30M1289 10L1382 -53M1289 1450L1277 1354M1289 1450L1286 1410M1289 1450L1382 1387M1419 79L1497 37M1419 79L1403 91M1497 37L1572 62M1497 37L1403 91M1497 37L1583 94M1497 37L1533 -31M1497 1477L1533 1409M1572 62L1660 72M1572 62L1583 94M1572 62L1612 160M1572 62L1533 -31M1572 1502L1533 1409M1660 72L1716 24M1660 72L1583 94M1660 72L1612 160M1660 72L1710 127M1716 24L1812 48M1716 24L1784 88M1716 24L1723 -14M1716 24L1787 -41M1716 1464L1723 1426M1716 1464L1787 1399M1812 48L1784 88M1812 48L1723 -14M1812 48L1787 -41M1812 1488L1723 1426M1812 1488L1787 1399M1914 79L1928 34M1914 79L1889 121M1914 79L1976 138M1928 34L1889 121M1928 34L1884 -46M1928 34L1990 -19M1928 1474L1884 1394M1928 1474L1990 1421M2075 57L2107 15M2075 57L2029 95M2075 57L2127 85M2075 57L2094 -35M2075 1497L2094 1405M2107 15L2190 4M2107 15L2127 85M2107 15L2076 -46M2107 15L2094 -35M2107 1455L2076 1394M2107 1455L2094 1405M2190 4L2272 54M2190 4L2223 88M2190 4L2171 -93M2190 4L2189 -27M2190 1444L2171 1347M2190 1444L2189 1413M2272 54L2357 68M2272 54L2223 88M2272 54L2253 158M2272 54L2313 -28M2272 1494L2313 1412M2357 68L2402 9M2357 68L2389 113M2357 68L2421 116M2357 68L2357 -20M2357 1508L2357 1420M2402 9L2389 113M2402 9L2313 -28M2402 9L2357 -20M2402 9L2454 -75M2402 1449L2313 1412M2402 1449L2357 1420M2402 1449L2454 1365M2538 33L2512 111M2538 33L2603 -34M2538 33L2559 -6M-22 33L43 -34M-22 1473L43 1406M2538 1473L2603 1406M2538 1473L2559 1434M71 131L114 102M71 131L1 170M71 131L114 205M114 102L205 125M205 125L282 122M205 125L114 205M205 125L169 198M282 122L340 91M282 122L279 233M282 122L348 206M340 91L408 90M408 90L513 128M513 128L593 106M513 128L578 223M593 106L688 142M593 106L578 223M593 106L690 171M688 142L690 171M688 142L779 179M796 100L810 100M796 100L779 179M796 100L833 162M810 100L779 179M810 100L833 162M901 144L975 119M901 144L833 162M901 144L940 218M901 144L978 196M975 119L1069 112M975 119L978 196M1069 112L1117 195M1189 138L1251 160M1189 138L1117 195M1189 138L1152 177M1189 138L1219 212M1251 160L1296 140M1251 160L1152 177M1251 160L1219 212M1251 160L1325 239M1296 140L1403 91M1296 140L1370 230M1403 91L1511 136M1511 136L1583 94M1511 136L1474 215M1583 94L1612 160M1612 160L1548 206M1612 160L1631 225M1710 127L1784 88M1710 127L1778 204M1889 121L1976 138M1889 121L1862 205M1889 121L1926 190M1976 138L2029 95M1976 138L1926 190M1976 138L2021 189M2029 95L2127 85M2029 95L2021 189M2127 85L2223 88M2223 88L2253 158M2253 158L2168 207M2253 158L2248 206M2253 158L2201 257M2389 113L2421 116M2389 113L2368 178M2421 116L2512 111M2421 116L2368 178M2421 116L2471 192M2512 111L2561 170M2512 111L2529 184M-48 111L1 170M1 170L-89 192M1 170L-31 184M1 170L-79 240M2561 170L2471 192M2561 170L2529 184M2561 170L2481 240M114 205L169 198M114 205L161 286M169 198L279 233M169 198L152 307M169 198L161 286M279 233L348 206M279 233L269 271M279 233L380 263M348 206L424 208M348 206L269 271M348 206L380 263M424 208L380 263M424 208L451 259M544 240L578 223M544 240L451 259M544 240L536 257M578 223L536 257M578 223L623 298M690 171L779 179M779 179L833 162M940 218L978 196M940 218L889 311M940 218L935 337M940 218L972 323M1117 195L1152 177M1117 195L1219 212M1117 195L1156 263M1152 177L1219 212M1152 177L1156 263M1219 212L1156 263M1325 239L1370 230M1325 239L1253 316M1325 239L1299 310M1325 239L1398 309M1370 230L1474 215M1370 230L1398 309M1474 215L1548 206M1474 215L1509 259M1548 206L1631 225M1548 206L1509 259M1548 206L1554 287M1631 225L1704 230M1631 225L1554 287M1631 225L1641 287M1704 230L1778 204M1704 230L1641 287M1704 230L1731 257M1704 230L1781 257M1778 204L1862 205M1778 204L1731 257M1778 204L1781 257M1862 205L1926 190M1862 205L1907 298M1926 190L2021 189M1926 190L1961 277M2021 189L1961 277M2157 238L2168 207M2157 238L2248 206M2157 238L2128 267M2157 238L2201 257M2168 207L2248 206M2168 207L2128 267M2168 207L2201 257M2248 206L2201 257M2248 206L2306 285M2368 178L2351 251M2368 178L2445 246M2471 192L2529 184M2471 192L2445 246M2471 192L2481 240M2529 184L2481 240M68 304L152 307M68 304L65 396M68 304L143 332M152 307L161 286M152 307L143 332M152 307L190 389M161 286L143 332M380 263L451 259M380 263L443 347M451 259L536 257M451 259L443 347M536 257L623 298M536 257L530 340M623 298L700 306M623 298L616 371M700 306L735 320M700 306L704 372M700 306L742 355M735 320L848 298M735 320L704 372M735 320L742 355M735 320L815 349M848 298L889 311M848 298L815 349M848 298L935 337M889 311L815 349M889 311L935 337M889 311L972 323M1023 309L1112 312M1023 309L935 337M1023 309L972 323M1023 309L1041 371M1112 312L1156 263M1112 312L1170 325M1112 312L1126 408M1156 263L1170 325M1253 316L1299 310M1253 316L1170 325M1253 316L1279 384M1253 316L1286 355M1299 310L1398 309M1299 310L1279 384M1299 310L1286 355M1398 309L1394 358M1398 309L1489 344M1509 259L1554 287M1509 259L1489 344M1509 259L1546 326M1554 287L1641 287M1554 287L1546 326M1641 287L1642 338M1641 287L1726 320M1731 257L1781 257M1731 257L1726 320M1781 257L1726 320M1781 257L1808 346M1907 298L1961 277M1907 298L1808 346M1907 298L1883 363M1907 298L1990 335M1961 277L2021 319M1961 277L1990 335M2021 319L1990 335M2021 319L2033 376M2021 319L2114 341M2021 319L1963 407M2128 267L2201 257M2128 267L2114 341M2128 267L2183 372M2306 285L2351 251M2306 285L2310 324M2351 251L2445 246M2351 251L2310 324M2351 251L2428 324M2445 246L2481 240M2445 246L2428 324M2481 240L2428 324M65 396L2 439M65 396L86 410M65 396L-29 422M2625 396L2531 422M143 332L190 389M143 332L86 410M190 389L280 394M190 389L86 410M190 389L215 445M280 394L372 375M280 394L215 445M280 394L274 457M280 394L361 438M372 375L443 347M372 375L361 438M443 347L530 340M443 347L485 444M530 340L616 371M530 340L579 405M616 371L704 372M616 371L579 405M704 372L742 355M704 372L664 463M742 355L815 349M935 337L972 323M972 323L1041 371M1041 371L1033 445M1041 371L1051 429M1170 325L1126 408M1279 384L1286 355M1279 384L1209 454M1279 384L1314 427M1286 355L1394 358M1286 355L1314 427M1394 358L1489 344M1394 358L1385 432M1489 344L1546 326M1489 344L1513 409M1546 326L1642 338M1546 326L1513 409M1642 338L1726 320M1642 338L1665 420M1726 320L1808 346M1808 346L1883 363M1883 363L1894 432M1883 363L1963 407M1990 335L2033 376M1990 335L1963 407M2033 376L2114 341M2033 376L1963 407M2033 376L2077 460M2114 341L2183 372M2114 341L2153 422M2183 372L2153 422M2183 372L2227 410M2310 324L2373 388M2310 324L2376 408M2373 388L2428 324M2373 388L2376 408M2373 388L2448 465M2428 324L2376 408M2502 398L2562 439M2502 398L2448 465M2502 398L2531 422M-58 398L2 439M2 439L86 410M2 439L-29 422M2 439L60 494M2562 439L2531 422M86 410L60 494M215 445L274 457M215 445L179 528M215 445L287 522M274 457L287 522M361 438L453 462M361 438L366 539M453 462L485 444M453 462L451 491M453 462L499 501M485 444L579 405M485 444L451 491M485 444L499 501M579 405L664 463M664 463L753 475M664 463L609 532M664 463L691 546M753 475L860 466M753 475L725 558M860 466L914 461M860 466L863 508M860 466L903 539M914 461L863 508M914 461L903 539M914 461L1004 512M1033 445L1051 429M1033 445L1004 512M1033 445L1076 493M1051 429L1126 408M1051 429L1004 512M1051 429L1076 493M1126 408L1209 454M1126 408L1076 493M1209 454L1175 498M1209 454L1265 488M1314 427L1385 432M1314 427L1265 488M1314 427L1358 504M1385 432L1358 504M1385 432L1390 525M1385 432L1445 543M1513 409L1562 433M1562 433L1665 420M1562 433L1596 535M1562 433L1633 493M1665 420L1684 452M1665 420L1633 493M1684 452L1633 493M1684 452L1685 535M1810 478L1894 432M1810 478L1834 504M1894 432L1963 407M1894 432L1834 504M1894 432L1922 528M2077 460L2153 422M2077 460L2026 541M2077 460L2117 528M2153 422L2227 410M2227 410L2274 451M2274 451L2376 408M2274 451L2288 531M2274 451L2332 524M2376 408L2448 465M2448 465L2531 422M2448 465L2404 553M60 494L122 526M60 494L-13 553M60 494L91 566M2620 494L2547 553M122 526L179 528M122 526L91 566M122 526L166 581M179 528L166 581M287 522L366 539M287 522L259 598M366 539L451 491M366 539L353 613M366 539L434 560M451 491L499 501M451 491L434 560M499 501L434 560M499 501L510 560M609 532L691 546M609 532L510 560M609 532L614 600M691 546L725 558M691 546L614 600M691 546L695 584M725 558L695 584M725 558L776 632M725 558L677 660M863 508L903 539M863 508L918 566M903 539L855 614M903 539L918 566M1004 512L1076 493M1004 512L1016 583M1076 493L1113 571M1175 498L1265 488M1175 498L1113 571M1265 488L1358 504M1358 504L1390 525M1358 504L1445 543M1390 525L1445 543M1390 525L1325 601M1390 525L1428 603M1445 543L1428 603M1445 543L1473 629M1596 535L1633 493M1596 535L1685 535M1596 535L1537 628M1596 535L1674 576M1633 493L1685 535M1685 535L1674 576M1685 535L1692 601M1834 504L1898 553M1834 504L1922 528M1898 553L1922 528M1898 553L1826 611M1898 553L1884 634M1898 553L1851 640M2026 541L2117 528M2026 541L1982 617M2026 541L2033 607M2026 541L2092 623M2117 528L2092 623M2117 528L2218 561M2237 552L2288 531M2237 552L2218 561M2237 552L2268 573M2288 531L2332 524M2288 531L2268 573M2288 531L2331 602M2332 524L2404 553M2332 524L2268 573M2332 524L2331 602M2404 553L2331 602M2404 553L2434 584M2547 553L2590 638M2547 553L2651 566M2547 553L2434 584M2547 553L2542 626M-13 553L30 638M-13 553L91 566M30 638L-18 626M30 638L3 701M30 638L95 720M30 638L-17 710M2590 638L2542 626M2590 638L2543 710M91 566L166 581M166 581L259 598M166 581L223 678M259 598L353 613M259 598L223 678M259 598L304 653M353 613L304 653M353 613L353 680M353 613L422 661M434 560L510 560M510 560L614 600M510 560L510 687M614 600L695 584M614 600L677 660M695 584L677 660M776 632L855 614M776 632L677 660M776 632L799 705M776 632L837 693M855 614L918 566M855 614L837 693M855 614L910 650M918 566L1016 583M918 566L910 650M1016 583L1113 571M1016 583L993 648M1016 583L1062 682M1113 571L1176 614M1113 571L1211 607M1176 614L1211 607M1176 614L1166 694M1176 614L1264 653M1176 614L1144 734M1211 607L1325 601M1211 607L1166 694M1211 607L1264 653M1325 601L1428 603M1325 601L1264 653M1325 601L1285 687M1428 603L1473 629M1428 603L1411 699M1473 629L1537 628M1473 629L1502 677M1537 628L1502 677M1537 628L1542 691M1537 628L1607 663M1674 576L1692 601M1674 576L1607 663M1692 601L1607 663M1692 601L1727 689M1826 611L1884 634M1826 611L1727 689M1826 611L1821 680M1826 611L1851 640M1884 634L1982 617M1884 634L1821 680M1884 634L1851 640M1982 617L2033 607M1982 617L1986 690M1982 617L2010 687M2033 607L2092 623M2033 607L1986 690M2033 607L2010 687M2092 623L2010 687M2092 623L2134 667M2218 561L2268 573M2268 573L2331 602M2331 602L2353 701M2434 584L2542 626M2434 584L2412 682M2542 626L2563 701M2542 626L2543 710M-18 626L3 701M3 701L-17 710M3 701L20 757M3 701L-10 783M2563 701L2543 710M2563 701L2550 783M95 720L20 757M95 720L125 768M95 720L207 737M223 678L304 653M223 678L207 737M304 653L353 680M353 680L422 661M353 680L385 744M353 680L440 748M422 661L510 687M422 661L385 744M422 661L440 748M510 687L561 715M510 687L440 748M561 715L677 660M561 715L525 792M561 715L628 798M799 705L837 693M799 705L760 776M799 705L834 746M837 693L910 650M837 693L834 746M910 650L993 648M910 650L925 742M993 648L1062 682M993 648L925 742M993 648L1055 739M1062 682L1166 694M1062 682L1055 739M1062 682L1144 734M1166 694L1144 734M1166 694L1267 740M1264 653L1285 687M1264 653L1267 740M1285 687L1267 740M1285 687L1317 741M1411 699L1317 741M1411 699L1433 749M1411 699L1474 735M1502 677L1542 691M1502 677L1474 735M1502 677L1524 742M1542 691L1607 663M1542 691L1474 735M1542 691L1524 742M1727 689L1821 680M1727 689L1777 796M1821 680L1851 640M1821 680L1907 761M1851 640L1907 761M1986 690L2010 687M1986 690L1907 761M1986 690L2063 746M2010 687L2063 746M2134 667L2182 699M2134 667L2123 762M2182 699L2123 762M2182 699L2221 748M2297 717L2353 701M2297 717L2221 748M2297 717L2291 731M2297 717L2342 768M2353 701L2412 682M2353 701L2291 731M2353 701L2342 768M2412 682L2437 767M2543 710L2580 757M2543 710L2550 783M-17 710L20 757M20 757L-10 783M20 757L-52 805M2580 757L2550 783M2580 757L2508 805M125 768L207 737M125 768L75 847M125 768L158 850M207 737L253 793M207 737L239 807M253 793L239 807M253 793L279 817M385 744L440 748M385 744L374 817M385 744L420 847M440 748L525 792M525 792L628 798M525 792L493 869M525 792L611 831M628 798L692 795M628 798L611 831M628 798L711 802M692 795L760 776M692 795L611 831M692 795L711 802M760 776L834 746M760 776L711 802M760 776L799 811M834 746L925 742M834 746L799 811M925 742L988 791M925 742L908 836M988 791L1055 739M988 791L908 836M988 791L1036 825M988 791L998 907M1055 739L1144 734M1055 739L1036 825M1144 734L1095 836M1267 740L1317 741M1267 740L1281 813M1317 741L1281 813M1433 749L1474 735M1433 749L1439 815M1433 749L1500 809M1474 735L1524 742M1524 742L1500 809M1524 742L1526 811M1654 796L1716 781M1654 796L1671 803M1654 796L1710 810M1716 781L1777 796M1716 781L1671 803M1716 781L1710 810M1716 781L1763 822M1777 796L1671 803M1777 796L1710 810M1777 796L1763 822M1907 761L1929 794M1907 761L1899 826M1929 794L1899 826M1929 794L1998 839M2063 746L2123 762M2063 746L2109 814M2123 762L2221 748M2123 762L2109 814M2221 748L2291 731M2291 731L2342 768M2342 768L2299 833M2342 768L2388 804M2437 767L2388 804M2437 767L2436 834M2437 767L2508 805M2550 783L2635 847M2550 783L2508 805M-10 783L75 847M75 847L158 850M75 847L66 880M75 847L93 922M158 850L239 807M158 850L93 922M158 850L165 955M239 807L279 817M279 817L374 817M279 817L300 900M374 817L420 847M420 847L493 869M420 847L375 933M420 847L419 918M493 869L419 918M493 869L542 903M493 869L477 966M611 831L711 802M611 831L542 903M711 802L799 811M799 811L844 862M799 811L773 901M844 862L908 836M844 862L773 901M844 862L879 895M844 862L810 965M908 836L879 895M908 836L957 923M1036 825L1095 836M1036 825L998 907M1196 876L1258 857M1196 876L1281 813M1196 876L1118 953M1196 876L1191 912M1196 876L1211 941M1258 857L1281 813M1258 857L1191 912M1258 857L1347 914M1281 813L1347 914M1439 815L1500 809M1439 815L1526 811M1439 815L1387 917M1500 809L1526 811M1500 809L1520 907M1526 811L1520 907M1671 803L1710 810M1671 803L1763 822M1710 810L1763 822M1899 826L1918 908M1998 839L2028 846M1998 839L1959 900M1998 839L2035 895M2028 846L2109 814M2028 846L1959 900M2028 846L2035 895M2028 846L2103 888M2109 814L2103 888M2224 878L2299 833M2224 878L2200 944M2224 878L2262 903M2299 833L2388 804M2299 833L2262 903M2299 833L2349 892M2388 804L2436 834M2388 804L2349 892M2436 834L2508 805M2436 834L2349 892M2436 834L2442 904M2508 805L2442 904M66 880L93 922M93 922L165 955M93 922L66 1011M165 955L66 1011M165 955L145 1014M165 955L231 967M300 900L375 933M300 900L231 967M300 900L296 961M300 900L375 971M375 933L419 918M375 933L296 961M375 933L375 971M419 918L375 971M419 918L477 966M542 903L575 935M542 903L477 966M542 903L592 997M575 935L697 933M575 935L477 966M575 935L495 1022M575 935L592 997M697 933L773 901M697 933L695 994M697 933L784 992M773 901L784 992M773 901L810 965M879 895L957 923M879 895L810 965M879 895L954 967M957 923L998 907M957 923L954 967M998 907L954 967M1118 953L1191 912M1118 953L1211 941M1118 953L1079 996M1118 953L1145 974M1191 912L1211 941M1191 912L1145 974M1211 941L1145 974M1211 941L1275 1010M1347 914L1387 917M1347 914L1275 1010M1347 914L1328 996M1387 917L1328 996M1387 917L1506 973M1520 907L1594 951M1520 907L1506 973M1520 907L1561 975M1594 951L1656 954M1594 951L1506 973M1594 951L1561 975M1594 951L1678 978M1656 954L1726 920M1656 954L1561 975M1656 954L1678 978M1656 954L1702 972M1726 920L1823 919M1726 920L1678 978M1726 920L1702 972M1726 920L1815 967M1823 919L1918 908M1823 919L1815 967M1823 919L1860 981M1918 908L1959 900M1918 908L1860 981M1918 908L1983 979M1959 900L2035 895M1959 900L1983 979M2035 895L2103 888M2035 895L2042 970M2103 888L2042 970M2200 944L2262 903M2200 944L2156 980M2200 944L2177 995M2200 944L2249 983M2262 903L2349 892M2262 903L2249 983M2349 892L2442 904M2442 904L2499 950M2442 904L2458 990M2499 950L2458 990M2499 950L2495 1035M2499 950L2556 1066M66 1011L145 1014M66 1011L5 1085M66 1011L-4 1066M2626 1011L2556 1066M145 1014L231 967M145 1014L151 1088M231 967L296 961M231 967L244 1050M296 961L375 971M296 961L244 1050M477 966L495 1022M495 1022L592 997M495 1022L435 1097M495 1022L502 1100M592 997L695 994M592 997L642 1064M695 994L784 992M695 994L642 1064M695 994L738 1091M784 992L810 965M784 992L817 1066M810 965L817 1066M954 967L988 1027M988 1027L1079 996M988 1027L957 1086M988 1027L1027 1114M988 1027L1051 1056M1079 996L1145 974M1079 996L1051 1056M1079 996L1130 1077M1145 974L1130 1077M1275 1010L1328 996M1328 996L1401 1037M1401 1037L1407 1077M1401 1037L1495 1059M1506 973L1561 975M1506 973L1495 1059M1561 975L1570 1070M1678 978L1702 972M1702 972L1815 967M1815 967L1860 981M1815 967L1802 1083M1860 981L1802 1083M1983 979L2042 970M2042 970L2156 980M2156 980L2177 995M2156 980L2232 1069M2177 995L2249 983M2177 995L2232 1069M2177 995L2254 1059M2249 983L2232 1069M2249 983L2254 1059M2383 1038L2458 990M2383 1038L2389 1118M2383 1038L2435 1048M2383 1038L2334 1132M2458 990L2495 1035M2458 990L2435 1048M2495 1035L2565 1085M2495 1035L2435 1048M2495 1035L2556 1066M-65 1035L5 1085M5 1085L-4 1066M5 1085L55 1191M5 1085L-68 1148M2565 1085L2556 1066M2565 1085L2492 1148M151 1088L218 1108M151 1088L244 1050M151 1088L121 1126M218 1108L244 1050M218 1108L324 1108M218 1108L121 1126M218 1108L257 1173M244 1050L324 1108M324 1108L257 1173M324 1108L346 1125M435 1097L502 1100M435 1097L346 1125M435 1097L464 1180M435 1097L504 1150M502 1100L464 1180M502 1100L504 1150M627 1104L642 1064M627 1104L633 1127M627 1104L652 1167M642 1064L738 1091M642 1064L633 1127M738 1091L817 1066M738 1091L633 1127M738 1091L752 1189M817 1066L876 1140M957 1086L1027 1114M957 1086L1051 1056M957 1086L876 1140M957 1086L973 1127M1027 1114L1051 1056M1027 1114L973 1127M1027 1114L1052 1178M1051 1056L1130 1077M1130 1077L1052 1178M1253 1113L1348 1118M1253 1113L1196 1181M1253 1113L1259 1137M1253 1113L1231 1211M1348 1118L1407 1077M1348 1118L1259 1137M1348 1118L1349 1140M1348 1118L1379 1179M1407 1077L1495 1059M1407 1077L1349 1140M1495 1059L1570 1070M1495 1059L1532 1140M1570 1070L1655 1114M1570 1070L1532 1140M1655 1114L1709 1105M1655 1114L1627 1186M1655 1114L1696 1168M1709 1105L1802 1083M1709 1105L1696 1168M1709 1105L1732 1205M1802 1083L1859 1092M1802 1083L1787 1176M1859 1092L1962 1082M1859 1092L1787 1176M1859 1092L1900 1139M1859 1092L1938 1152M1962 1082L2075 1113M1962 1082L1900 1139M1962 1082L1938 1152M2075 1113L2124 1103M2075 1113L2037 1168M2075 1113L2125 1193M2075 1113L2189 1150M2124 1103L2189 1150M2232 1069L2254 1059M2232 1069L2189 1150M2389 1118L2435 1048M2389 1118L2319 1159M2389 1118L2334 1132M2389 1118L2444 1140M2435 1048L2444 1140M2556 1066L2492 1148M55 1191L121 1126M55 1191L78 1206M55 1191L-7 1273M2615 1191L2553 1273M121 1126L202 1200M121 1126L78 1206M202 1200L257 1173M202 1200L140 1250M202 1200L185 1239M257 1173L185 1239M257 1173L288 1264M464 1180L504 1150M464 1180L433 1266M464 1180L510 1229M504 1150L510 1229M633 1127L652 1167M633 1127L602 1232M652 1167L752 1189M652 1167L602 1232M652 1167L725 1211M752 1189L717 1263M752 1189L725 1211M752 1189L753 1288M876 1140L896 1179M876 1140L973 1127M876 1140L889 1216M896 1179L973 1127M896 1179L847 1267M896 1179L889 1216M896 1179L990 1224M973 1127L1052 1178M1052 1178L990 1224M1052 1178L1087 1262M1196 1181L1259 1137M1196 1181L1184 1230M1196 1181L1231 1211M1259 1137L1349 1140M1259 1137L1231 1211M1349 1140L1379 1179M1349 1140L1346 1231M1379 1179L1346 1231M1379 1179L1379 1255M1379 1179L1452 1216M1508 1178L1532 1140M1508 1178L1452 1216M1508 1178L1537 1271M1532 1140L1627 1186M1532 1140L1452 1216M1627 1186L1696 1168M1627 1186L1678 1264M1696 1168L1787 1176M1696 1168L1732 1205M1787 1176L1732 1205M1787 1176L1774 1252M1900 1139L1938 1152M1938 1152L2037 1168M1938 1152L1972 1228M2037 1168L2125 1193M2037 1168L1972 1228M2037 1168L2002 1229M2125 1193L2189 1150M2125 1193L2115 1260M2125 1193L2204 1237M2189 1150L2204 1237M2319 1159L2334 1132M2319 1159L2262 1248M2319 1159L2351 1234M2334 1132L2444 1140M2334 1132L2351 1234M2444 1140L2492 1148M2444 1140L2478 1218M2492 1148L2478 1218M78 1206L140 1250M78 1206L-7 1273M2638 1206L2553 1273M140 1250L185 1239M140 1250L92 1326M185 1239L218 1330M288 1264L357 1275M288 1264L218 1330M288 1264L251 1356M357 1275L433 1266M357 1275L351 1358M357 1275L408 1297M433 1266L510 1229M433 1266L408 1297M510 1229L558 1304M510 1229L570 1302M602 1232L558 1304M602 1232L570 1302M717 1263L725 1211M717 1263L675 1318M717 1263L753 1288M717 1263L682 1379M725 1211L675 1318M725 1211L753 1288M847 1267L889 1216M847 1267L753 1288M847 1267L872 1289M847 1267L868 1362M889 1216L990 1224M889 1216L872 1289M990 1224L1036 1296M990 1224L1046 1323M1087 1262L1184 1230M1087 1262L1036 1296M1087 1262L1046 1323M1184 1230L1231 1211M1184 1230L1175 1333M1231 1211L1346 1231M1346 1231L1379 1255M1346 1231L1324 1301M1379 1255L1452 1216M1379 1255L1324 1301M1379 1255L1420 1349M1452 1216L1537 1271M1537 1271L1442 1353M1537 1271L1559 1320M1537 1271L1514 1365M1678 1264L1732 1205M1678 1264L1630 1339M1678 1264L1700 1341M1732 1205L1774 1252M1774 1252L1863 1273M1774 1252L1817 1285M1863 1273L1972 1228M1863 1273L1817 1285M1863 1273L1864 1355M1863 1273L1989 1292M1972 1228L2002 1229M1972 1228L1989 1292M2002 1229L2115 1260M2002 1229L1989 1292M2002 1229L2017 1346M2115 1260L2204 1237M2115 1260L2126 1332M2115 1260L2171 1347M2204 1237L2262 1248M2204 1237L2270 1285M2262 1248L2351 1234M2262 1248L2270 1285M2351 1234L2270 1285M2478 1218L2553 1273M2478 1218L2486 1291M2553 1273L2590 1320M2553 1273L2486 1291M-7 1273L30 1320M30 1320L92 1326M30 1320L43 1406M30 1320L-1 1434M2590 1320L2559 1434M92 1326L43 1406M92 1326L132 1417M218 1330L251 1356M218 1330L195 1433M218 1330L299 1390M251 1356L351 1358M251 1356L299 1390M351 1358L408 1297M351 1358L299 1390M351 1358L338 1415M408 1297L453 1406M558 1304L570 1302M558 1304L497 1394M558 1304L594 1413M570 1302L675 1318M570 1302L594 1413M675 1318L753 1288M675 1318L682 1379M872 1289L920 1353M872 1289L868 1362M872 1289L938 1373M920 1353L868 1362M920 1353L938 1373M920 1353L990 1396M1036 1296L1046 1323M1036 1296L1051 1371M1046 1323L990 1396M1046 1323L1051 1371M1175 1333L1191 1394M1175 1333L1215 1396M1277 1354L1324 1301M1277 1354L1191 1394M1277 1354L1215 1396M1277 1354L1286 1410M1324 1301L1420 1349M1324 1301L1382 1387M1420 1349L1442 1353M1420 1349L1382 1387M1420 1349L1514 1365M1442 1353L1382 1387M1442 1353L1514 1365M1559 1320L1630 1339M1559 1320L1514 1365M1559 1320L1533 1409M1559 1320L1633 1369M1630 1339L1700 1341M1630 1339L1633 1369M1700 1341L1633 1369M1700 1341L1723 1426M1817 1285L1864 1355M1864 1355L1787 1399M1864 1355L1884 1394M1989 1292L2017 1346M2017 1346L1990 1421M2017 1346L2076 1394M2126 1332L2171 1347M2126 1332L2076 1394M2126 1332L2094 1405M2126 1332L2189 1413M2171 1347L2094 1405M2171 1347L2189 1413M2383 1339L2414 1337M2383 1339L2486 1291M2383 1339L2313 1412M2383 1339L2357 1420M2383 1339L2454 1365M2414 1337L2486 1291M2414 1337L2313 1412M2414 1337L2357 1420M2414 1337L2454 1365M2486 1291L2454 1365M43 1406L132 1417M43 1406L-1 1434M2603 1406L2559 1434M132 1417L195 1433M299 1390L338 1415M338 1415L453 1406M453 1406L497 1394M497 1394L594 1413M594 1413L682 1379M682 1379L722 1411M868 1362L938 1373M938 1373L990 1396M990 1396L1051 1371M1191 1394L1215 1396M1215 1396L1286 1410M1286 1410L1382 1387M1514 1365L1533 1409M1533 1409L1633 1369M1633 1369L1723 1426M1723 1426L1787 1399M1787 1399L1884 1394M1884 1394L1990 1421M1990 1421L2076 1394M2076 1394L2094 1405M2313 1412L2357 1420M2454 1365L2559 1434"/></svg>