<svg xmlns="http://www.w3.org/2000/svg" width="2560" height="1440" fill="#fff"><circle cx="20" cy="49" r="6"/><circle cx="143" cy="10" r="5"/><circle cx="174" cy="61" r="6"/><circle cx="294" cy="73" r="5"/><circle cx="393" cy="21" r="6"/><circle cx="474" cy="54" r="4"/><circle cx="525" cy="67" r="4"/><circle cx="636" cy="74" r="6"/><circle cx="680" cy="27" r="6"/><circle cx="721" cy="45" r="6"/><circle cx="850" cy="56" r="5"/><circle cx="899" cy="70" r="4"/><circle cx="1020" cy="79" r="6"/><circle cx="1050" cy="67" r="4"/><circle cx="1150" cy="36" r="4"/><circle cx="1222" cy="75" r="6"/><circle cx="1314" cy="8" r="6"/><circle cx="1432" cy="12" r="5"/><circle cx="1509" cy="14" r="6"/><circle cx="1563" cy="58" r="6"/><circle cx="1672" cy="31" r="6"/><circle cx="1735" cy="44" r="5"/><circle cx="1822" cy="68" r="6"/><circle cx="1858" cy="56" r="5"/><circle cx="1999" cy="69" r="5"/><circle cx="2071" cy="17" r="5"/><circle cx="2090" cy="72" r="4"/><circle cx="2215" cy="70" r="4"/><circle cx="2274" cy="10" r="4"/><circle cx="2399" cy="22" r="5"/><circle cx="2449" cy="52" r="6"/><circle cx="2511" cy="55" r="5"/><circle cx="25" cy="123" r="6"/><circle cx="125" cy="82" r="4"/><circle cx="178" cy="114" r="4"/><circle cx="319" cy="98" r="4"/><circle cx="348" cy="109" r="5"/><circle cx="448" cy="90" r="4"/><circle cx="503" cy="151" r="5"/><circle cx="564" cy="142" r="6"/><circle cx="704" cy="126" r="6"/><circle cx="774" cy="100" r="5"/><circle cx="816" cy="114" r="4"/><circle cx="945" cy="82" r="4"/><circle cx="1026" cy="136" r="5"/><circle cx="1066" cy="108" r="5"/><circle cx="1143" cy="145" r="6"/><circle cx="1255" cy="126" r="6"/><circle cx="1335" cy="117" r="4"/><circle cx="1419" cy="105" r="4"/><circle cx="1494" cy="98" r="5"/><circle cx="1530" cy="144" r="6"/><circle cx="1613" cy="115" r="6"/><circle cx="1726" cy="97" r="6"/><circle cx="1812" cy="143" r="6"/><circle cx="1873" cy="96" r="4"/><circle cx="1972" cy="102" r="4"/><circle cx="2020" cy="143" r="5"/><circle cx="2100" cy="137" r="5"/><circle cx="2214" cy="93" r="5"/><circle cx="2275" cy="105" r="6"/><circle cx="2337" cy="142" r="4"/><circle cx="2450" cy="99" r="5"/><circle cx="2529" cy="116" r="5"/><circle cx="38" cy="163" r="6"/><circle cx="143" cy="173" r="5"/><circle cx="236" cy="224" r="5"/><circle cx="293" cy="215" r="4"/><circle cx="327" cy="224" r="4"/><circle cx="408" cy="215" r="6"/><circle cx="542" cy="231" r="5"/><circle cx="572" cy="220" r="4"/><circle cx="664" cy="187" r="5"/><circle cx="723" cy="214" r="5"/><circle cx="816" cy="175" r="6"/><circle cx="908" cy="214" r="6"/><circle cx="1025" cy="223" r="5"/><circle cx="1057" cy="192" r="6"/><circle cx="1130" cy="164" r="6"/><circle cx="1230" cy="190" r="6"/><circle cx="1354" cy="183" r="4"/><circle cx="1397" cy="201" r="6"/><circle cx="1505" cy="169" r="6"/><circle cx="1556" cy="180" r="5"/><circle cx="1648" cy="214" r="5"/><circle cx="1721" cy="173" r="6"/><circle cx="1795" cy="220" r="4"/><circle cx="1892" cy="239" r="6"/><circle cx="1999" cy="235" r="5"/><circle cx="2066" cy="184" r="6"/><circle cx="2103" cy="205" r="5"/><circle cx="2178" cy="177" r="4"/><circle cx="2269" cy="182" r="6"/><circle cx="2372" cy="226" r="5"/><circle cx="2446" cy="168" r="4"/><circle cx="2482" cy="203" r="5"/><circle cx="62" cy="293" r="5"/><circle cx="137" cy="302" r="4"/><circle cx="187" cy="264" r="6"/><circle cx="318" cy="269" r="6"/><circle cx="391" cy="293" r="6"/><circle cx="415" cy="314" r="4"/><circle cx="515" cy="298" r="6"/><circle cx="631" cy="257" r="6"/><circle cx="667" cy="240" r="5"/><circle cx="757" cy="273" r="4"/><circle cx="856" cy="310" r="5"/><circle cx="946" cy="318" r="4"/><circle cx="965" cy="260" r="5"/><circle cx="1087" cy="291" r="6"/><circle cx="1132" cy="294" r="4"/><circle cx="1227" cy="248" r="5"/><circle cx="1335" cy="307" r="5"/><circle cx="1422" cy="256" r="4"/><circle cx="1443" cy="257" r="5"/><circle cx="1558" cy="267" r="5"/><circle cx="1627" cy="248" r="4"/><circle cx="1681" cy="278" r="6"/><circle cx="1793" cy="282" r="5"/><circle cx="1883" cy="288" r="6"/><circle cx="1969" cy="315" r="5"/><circle cx="2054" cy="311" r="5"/><circle cx="2149" cy="319" r="5"/><circle cx="2193" cy="240" r="4"/><circle cx="2255" cy="265" r="4"/><circle cx="2353" cy="264" r="4"/><circle cx="2443" cy="318" r="6"/><circle cx="2495" cy="241" r="6"/><circle cx="57" cy="330" r="5"/><circle cx="138" cy="365" r="5"/><circle cx="239" cy="356" r="6"/><circle cx="244" cy="340" r="6"/><circle cx="331" cy="398" r="5"/><circle cx="432" cy="354" r="4"/><circle cx="541" cy="386" r="5"/><circle cx="567" cy="388" r="5"/><circle cx="687" cy="324" r="5"/><circle cx="750" cy="387" r="4"/><circle cx="861" cy="372" r="5"/><circle cx="908" cy="389" r="5"/><circle cx="1026" cy="341" r="4"/><circle cx="1095" cy="330" r="6"/><circle cx="1172" cy="359" r="5"/><circle cx="1249" cy="380" r="5"/><circle cx="1321" cy="368" r="4"/><circle cx="1434" cy="356" r="5"/><circle cx="1518" cy="342" r="6"/><circle cx="1565" cy="321" r="5"/><circle cx="1639" cy="330" r="5"/><circle cx="1697" cy="385" r="6"/><circle cx="1814" cy="322" r="4"/><circle cx="1879" cy="322" r="5"/><circle cx="1969" cy="399" r="5"/><circle cx="2016" cy="397" r="5"/><circle cx="2099" cy="325" r="5"/><circle cx="2218" cy="327" r="5"/><circle cx="2264" cy="325" r="5"/><circle cx="2388" cy="364" r="4"/><circle cx="2474" cy="357" r="5"/><circle cx="2509" cy="359" r="5"/><circle cx="25" cy="436" r="4"/><circle cx="115" cy="462" r="6"/><circle cx="175" cy="427" r="5"/><circle cx="305" cy="429" r="5"/><circle cx="382" cy="406" r="4"/><circle cx="405" cy="407" r="4"/><circle cx="500" cy="459" r="5"/><circle cx="624" cy="437" r="5"/><circle cx="688" cy="432" r="5"/><circle cx="726" cy="416" r="5"/><circle cx="803" cy="427" r="5"/><circle cx="949" cy="476" r="5"/><circle cx="1008" cy="435" r="6"/><circle cx="1102" cy="427" r="6"/><circle cx="1177" cy="443" r="6"/><circle cx="1235" cy="404" r="5"/><circle cx="1286" cy="414" r="6"/><circle cx="1381" cy="446" r="5"/><circle cx="1496" cy="470" r="5"/><circle cx="1530" cy="405" r="6"/><circle cx="1653" cy="457" r="5"/><circle cx="1756" cy="443" r="6"/><circle cx="1797" cy="420" r="6"/><circle cx="1855" cy="442" r="5"/><circle cx="1968" cy="417" r="5"/><circle cx="2067" cy="401" r="5"/><circle cx="2122" cy="410" r="5"/><circle cx="2188" cy="403" r="5"/><circle cx="2319" cy="469" r="6"/><circle cx="2346" cy="474" r="5"/><circle cx="2426" cy="417" r="6"/><circle cx="2532" cy="409" r="5"/><circle cx="55" cy="521" r="5"/><circle cx="102" cy="481" r="5"/><circle cx="169" cy="490" r="6"/><circle cx="257" cy="556" r="5"/><circle cx="328" cy="542" r="6"/><circle cx="433" cy="482" r="5"/><circle cx="556" cy="485" r="5"/><circle cx="566" cy="557" r="4"/><circle cx="685" cy="514" r="5"/><circle cx="799" cy="481" r="6"/><circle cx="836" cy="544" r="6"/><circle cx="909" cy="558" r="4"/><circle cx="961" cy="547" r="5"/><circle cx="1041" cy="538" r="6"/><circle cx="1184" cy="539" r="5"/><circle cx="1266" cy="531" r="6"/><circle cx="1352" cy="543" r="4"/><circle cx="1426" cy="514" r="4"/><circle cx="1481" cy="528" r="5"/><circle cx="1597" cy="544" r="6"/><circle cx="1648" cy="556" r="6"/><circle cx="1745" cy="533" r="4"/><circle cx="1768" cy="480" r="6"/><circle cx="1896" cy="488" r="4"/><circle cx="1981" cy="520" r="4"/><circle cx="2037" cy="482" r="5"/><circle cx="2138" cy="482" r="5"/><circle cx="2202" cy="533" r="4"/><circle cx="2304" cy="488" r="5"/><circle cx="2341" cy="485" r="5"/><circle cx="2452" cy="521" r="5"/><circle cx="2535" cy="491" r="5"/><circle cx="46" cy="564" r="5"/><circle cx="131" cy="590" r="6"/><circle cx="232" cy="613" r="6"/><circle cx="261" cy="624" r="4"/><circle cx="348" cy="605" r="5"/><circle cx="428" cy="568" r="5"/><circle cx="515" cy="618" r="5"/><circle cx="576" cy="560" r="5"/><circle cx="643" cy="577" r="5"/><circle cx="746" cy="621" r="4"/><circle cx="853" cy="590" r="5"/><circle cx="891" cy="595" r="5"/><circle cx="971" cy="615" r="4"/><circle cx="1109" cy="611" r="6"/><circle cx="1166" cy="605" r="5"/><circle cx="1275" cy="583" r="6"/><circle cx="1341" cy="636" r="4"/><circle cx="1431" cy="578" r="6"/><circle cx="1496" cy="620" r="4"/><circle cx="1548" cy="633" r="5"/><circle cx="1614" cy="593" r="5"/><circle cx="1747" cy="632" r="5"/><circle cx="1823" cy="586" r="5"/><circle cx="1876" cy="635" r="5"/><circle cx="1993" cy="587" r="6"/><circle cx="2061" cy="590" r="5"/><circle cx="2113" cy="605" r="5"/><circle cx="2173" cy="604" r="4"/><circle cx="2292" cy="590" r="5"/><circle cx="2353" cy="610" r="5"/><circle cx="2423" cy="597" r="6"/><circle cx="2538" cy="631" r="6"/><circle cx="75" cy="699" r="6"/><circle cx="129" cy="669" r="4"/><circle cx="196" cy="651" r="5"/><circle cx="295" cy="652" r="6"/><circle cx="337" cy="648" r="6"/><circle cx="478" cy="674" r="5"/><circle cx="542" cy="670" r="5"/><circle cx="635" cy="649" r="5"/><circle cx="695" cy="646" r="6"/><circle cx="723" cy="714" r="4"/><circle cx="849" cy="718" r="4"/><circle cx="913" cy="711" r="4"/><circle cx="1037" cy="648" r="5"/><circle cx="1097" cy="676" r="5"/><circle cx="1153" cy="682" r="5"/><circle cx="1270" cy="643" r="6"/><circle cx="1343" cy="720" r="5"/><circle cx="1429" cy="658" r="5"/><circle cx="1501" cy="672" r="4"/><circle cx="1525" cy="688" r="6"/><circle cx="1619" cy="648" r="4"/><circle cx="1759" cy="686" r="4"/><circle cx="1785" cy="669" r="5"/><circle cx="1905" cy="641" r="6"/><circle cx="1928" cy="669" r="5"/><circle cx="2018" cy="687" r="6"/><circle cx="2111" cy="661" r="6"/><circle cx="2190" cy="694" r="5"/><circle cx="2278" cy="702" r="4"/><circle cx="2351" cy="715" r="4"/><circle cx="2406" cy="701" r="6"/><circle cx="2507" cy="662" r="5"/><circle cx="44" cy="782" r="5"/><circle cx="154" cy="767" r="5"/><circle cx="205" cy="738" r="5"/><circle cx="265" cy="795" r="5"/><circle cx="374" cy="792" r="5"/><circle cx="448" cy="760" r="5"/><circle cx="499" cy="762" r="5"/><circle cx="560" cy="732" r="6"/><circle cx="658" cy="760" r="4"/><circle cx="731" cy="764" r="5"/><circle cx="837" cy="785" r="5"/><circle cx="956" cy="740" r="5"/><circle cx="962" cy="740" r="5"/><circle cx="1094" cy="787" r="4"/><circle cx="1132" cy="779" r="5"/><circle cx="1214" cy="763" r="6"/><circle cx="1322" cy="740" r="4"/><circle cx="1403" cy="721" r="5"/><circle cx="1441" cy="769" r="4"/><circle cx="1569" cy="746" r="5"/><circle cx="1604" cy="794" r="5"/><circle cx="1711" cy="761" r="5"/><circle cx="1822" cy="755" r="5"/><circle cx="1910" cy="799" r="6"/><circle cx="1968" cy="752" r="4"/><circle cx="2008" cy="779" r="5"/><circle cx="2144" cy="742" r="4"/><circle cx="2180" cy="785" r="4"/><circle cx="2243" cy="790" r="4"/><circle cx="2330" cy="759" r="5"/><circle cx="2409" cy="754" r="5"/><circle cx="2523" cy="796" r="5"/><circle cx="33" cy="810" r="5"/><circle cx="143" cy="860" r="6"/><circle cx="167" cy="849" r="5"/><circle cx="319" cy="865" r="5"/><circle cx="345" cy="804" r="4"/><circle cx="469" cy="820" r="5"/><circle cx="519" cy="827" r="5"/><circle cx="611" cy="866" r="5"/><circle cx="650" cy="820" r="6"/><circle cx="749" cy="849" r="4"/><circle cx="836" cy="832" r="5"/><circle cx="881" cy="809" r="4"/><circle cx="994" cy="831" r="5"/><circle cx="1104" cy="870" r="5"/><circle cx="1120" cy="861" r="6"/><circle cx="1252" cy="814" r="6"/><circle cx="1350" cy="834" r="5"/><circle cx="1375" cy="854" r="5"/><circle cx="1507" cy="853" r="6"/><circle cx="1549" cy="876" r="6"/><circle cx="1626" cy="877" r="4"/><circle cx="1744" cy="851" r="6"/><circle cx="1819" cy="864" r="5"/><circle cx="1881" cy="808" r="6"/><circle cx="1954" cy="817" r="5"/><circle cx="2079" cy="807" r="5"/><circle cx="2099" cy="871" r="5"/><circle cx="2221" cy="802" r="6"/><circle cx="2313" cy="878" r="5"/><circle cx="2361" cy="865" r="5"/><circle cx="2436" cy="830" r="6"/><circle cx="2547" cy="838" r="5"/><circle cx="41" cy="930" r="6"/><circle cx="119" cy="898" r="4"/><circle cx="237" cy="921" r="5"/><circle cx="319" cy="927" r="6"/><circle cx="325" cy="915" r="5"/><circle cx="421" cy="908" r="5"/><circle cx="515" cy="911" r="4"/><circle cx="590" cy="937" r="6"/><circle cx="681" cy="898" r="5"/><circle cx="727" cy="896" r="5"/><circle cx="830" cy="888" r="5"/><circle cx="922" cy="921" r="5"/><circle cx="997" cy="950" r="4"/><circle cx="1110" cy="922" r="4"/><circle cx="1140" cy="957" r="6"/><circle cx="1266" cy="920" r="5"/><circle cx="1340" cy="912" r="5"/><circle cx="1439" cy="910" r="5"/><circle cx="1491" cy="907" r="4"/><circle cx="1540" cy="935" r="6"/><circle cx="1612" cy="932" r="5"/><circle cx="1748" cy="928" r="5"/><circle cx="1832" cy="909" r="4"/><circle cx="1893" cy="939" r="4"/><circle cx="1938" cy="902" r="6"/><circle cx="2044" cy="916" r="5"/><circle cx="2097" cy="899" r="5"/><circle cx="2235" cy="931" r="5"/><circle cx="2301" cy="951" r="5"/><circle cx="2383" cy="928" r="5"/><circle cx="2409" cy="957" r="4"/><circle cx="2532" cy="882" r="5"/><circle cx="3" cy="1036" r="5"/><circle cx="2563" cy="1036" r="5"/><circle cx="104" cy="1037" r="4"/><circle cx="232" cy="1006" r="4"/><circle cx="310" cy="973" r="5"/><circle cx="380" cy="984" r="4"/><circle cx="419" cy="964" r="5"/><circle cx="481" cy="961" r="5"/><circle cx="615" cy="994" r="4"/><circle cx="645" cy="993" r="5"/><circle cx="755" cy="1000" r="5"/><circle cx="802" cy="1021" r="5"/><circle cx="946" cy="1014" r="4"/><circle cx="1014" cy="994" r="5"/><circle cx="1043" cy="1012" r="4"/><circle cx="1167" cy="1007" r="5"/><circle cx="1201" cy="1032" r="5"/><circle cx="1356" cy="996" r="4"/><circle cx="1385" cy="1023" r="5"/><circle cx="1516" cy="1015" r="6"/><circle cx="1581" cy="1020" r="6"/><circle cx="1661" cy="1031" r="5"/><circle cx="1718" cy="1012" r="5"/><circle cx="1821" cy="960" r="4"/><circle cx="1842" cy="972" r="4"/><circle cx="1953" cy="1011" r="5"/><circle cx="2029" cy="1031" r="5"/><circle cx="2128" cy="1034" r="4"/><circle cx="2231" cy="984" r="4"/><circle cx="2277" cy="1039" r="5"/><circle cx="2383" cy="984" r="6"/><circle cx="2448" cy="1026" r="5"/><circle cx="2491" cy="975" r="6"/><circle cx="49" cy="1107" r="6"/><circle cx="126" cy="1052" r="4"/><circle cx="207" cy="1112" r="5"/><circle cx="310" cy="1072" r="5"/><circle cx="334" cy="1059" r="6"/><circle cx="469" cy="1088" r="5"/><circle cx="512" cy="1051" r="6"/><circle cx="616" cy="1045" r="6"/><circle cx="707" cy="1099" r="6"/><circle cx="787" cy="1054" r="5"/><circle cx="838" cy="1059" r="5"/><circle cx="958" cy="1086" r="4"/><circle cx="1006" cy="1079" r="4"/><circle cx="1076" cy="1089" r="4"/><circle cx="1142" cy="1057" r="6"/><circle cx="1259" cy="1055" r="5"/><circle cx="1310" cy="1075" r="6"/><circle cx="1374" cy="1116" r="5"/><circle cx="1492" cy="1098" r="6"/><circle cx="1523" cy="1080" r="4"/><circle cx="1612" cy="1081" r="6"/><circle cx="1736" cy="1105" r="5"/><circle cx="1815" cy="1114" r="4"/><circle cx="1842" cy="1109" r="5"/><circle cx="1946" cy="1117" r="6"/><circle cx="2050" cy="1069" r="5"/><circle cx="2129" cy="1104" r="4"/><circle cx="2183" cy="1097" r="6"/><circle cx="2255" cy="1084" r="4"/><circle cx="2387" cy="1102" r="5"/><circle cx="2445" cy="1118" r="5"/><circle cx="2517" cy="1043" r="5"/><circle cx="16" cy="1179" r="5"/><circle cx="96" cy="1157" r="5"/><circle cx="163" cy="1166" r="6"/><circle cx="259" cy="1152" r="5"/><circle cx="348" cy="1160" r="5"/><circle cx="453" cy="1146" r="6"/><circle cx="500" cy="1176" r="5"/><circle cx="634" cy="1162" r="5"/><circle cx="693" cy="1157" r="5"/><circle cx="796" cy="1183" r="4"/><circle cx="877" cy="1187" r="4"/><circle cx="937" cy="1129" r="5"/><circle cx="1020" cy="1182" r="6"/><circle cx="1041" cy="1158" r="5"/><circle cx="1162" cy="1158" r="6"/><circle cx="1219" cy="1172" r="4"/><circle cx="1282" cy="1186" r="5"/><circle cx="1361" cy="1131" r="6"/><circle cx="1440" cy="1171" r="4"/><circle cx="1576" cy="1162" r="4"/><circle cx="1640" cy="1149" r="6"/><circle cx="1747" cy="1170" r="5"/><circle cx="1832" cy="1157" r="5"/><circle cx="1854" cy="1143" r="5"/><circle cx="1987" cy="1162" r="4"/><circle cx="2049" cy="1120" r="4"/><circle cx="2104" cy="1169" r="5"/><circle cx="2231" cy="1176" r="5"/><circle cx="2251" cy="1186" r="4"/><circle cx="2363" cy="1156" r="4"/><circle cx="2442" cy="1196" r="5"/><circle cx="2492" cy="1145" r="5"/><circle cx="2" cy="1220" r="4"/><circle cx="2562" cy="1220" r="4"/><circle cx="119" cy="1228" r="4"/><circle cx="165" cy="1274" r="6"/><circle cx="316" cy="1255" r="4"/><circle cx="341" cy="1250" r="5"/><circle cx="406" cy="1264" r="6"/><circle cx="520" cy="1219" r="4"/><circle cx="624" cy="1272" r="5"/><circle cx="658" cy="1201" r="4"/><circle cx="761" cy="1246" r="6"/><circle cx="836" cy="1264" r="5"/><circle cx="916" cy="1226" r="6"/><circle cx="1020" cy="1205" r="5"/><circle cx="1076" cy="1217" r="6"/><circle cx="1159" cy="1242" r="5"/><circle cx="1256" cy="1269" r="4"/><circle cx="1308" cy="1264" r="5"/><circle cx="1417" cy="1279" r="4"/><circle cx="1454" cy="1267" r="4"/><circle cx="1547" cy="1251" r="5"/><circle cx="1633" cy="1241" r="4"/><circle cx="1706" cy="1267" r="5"/><circle cx="1767" cy="1230" r="4"/><circle cx="1881" cy="1239" r="4"/><circle cx="1927" cy="1214" r="6"/><circle cx="2075" cy="1252" r="4"/><circle cx="2134" cy="1250" r="5"/><circle cx="2232" cy="1275" r="4"/><circle cx="2261" cy="1244" r="6"/><circle cx="2390" cy="1277" r="5"/><circle cx="2434" cy="1236" r="5"/><circle cx="2511" cy="1268" r="6"/><circle cx="68" cy="1326" r="5"/><circle cx="147" cy="1330" r="6"/><circle cx="238" cy="1326" r="5"/><circle cx="276" cy="1314" r="4"/><circle cx="342" cy="1283" r="4"/><circle cx="437" cy="1320" r="6"/><circle cx="489" cy="1281" r="5"/><circle cx="579" cy="1334" r="4"/><circle cx="655" cy="1317" r="4"/><circle cx="730" cy="1356" r="5"/><circle cx="811" cy="1348" r="6"/><circle cx="944" cy="1320" r="4"/><circle cx="1023" cy="1303" r="5"/><circle cx="1117" cy="1284" r="5"/><circle cx="1195" cy="1293" r="5"/><circle cx="1214" cy="1316" r="6"/><circle cx="1284" cy="1338" r="4"/><circle cx="1392" cy="1308" r="5"/><circle cx="1519" cy="1341" r="4"/><circle cx="1524" cy="1332" r="5"/><circle cx="1657" cy="1282" r="6"/><circle cx="1691" cy="1345" r="5"/><circle cx="1771" cy="1313" r="6"/><circle cx="1844" cy="1348" r="5"/><circle cx="1935" cy="1299" r="5"/><circle cx="2065" cy="1307" r="5"/><circle cx="2153" cy="1347" r="4"/><circle cx="2194" cy="1323" r="4"/><circle cx="2271" cy="1299" r="5"/><circle cx="2322" cy="1321" r="5"/><circle cx="2471" cy="1292" r="5"/><circle cx="2502" cy="1345" r="5"/><circle cx="7" cy="1401" r="4"/><circle cx="118" cy="1366" r="4"/><circle cx="222" cy="1399" r="5"/><circle cx="278" cy="1397" r="5"/><circle cx="393" cy="1429" r="6"/><circle cx="410" cy="1398" r="6"/><circle cx="553" cy="1432" r="5"/><circle cx="575" cy="1413" r="6"/><circle cx="695" cy="1361" r="4"/><circle cx="756" cy="1375" r="5"/><circle cx="839" cy="1408" r="4"/><circle cx="927" cy="1384" r="4"/><circle cx="1020" cy="1412" r="5"/><circle cx="1105" cy="1398" r="5"/><circle cx="1190" cy="1386" r="4"/><circle cx="1269" cy="1412" r="5"/><circle cx="1352" cy="1377" r="6"/><circle cx="1370" cy="1432" r="5"/><circle cx="1500" cy="1374" r="6"/><circle cx="1565" cy="1398" r="5"/><circle cx="1627" cy="1368" r="6"/><circle cx="1735" cy="1386" r="4"/><circle cx="1780" cy="1378" r="4"/><circle cx="1920" cy="1411" r="6"/><circle cx="1982" cy="1393" r="5"/><circle cx="2079" cy="1368" r="5"/><circle cx="2106" cy="1362" r="4"/><circle cx="2198" cy="1433" r="5"/><circle cx="2310" cy="1393" r="5"/><circle cx="2363" cy="1436" r="5"/><circle cx="2363" cy="-4" r="5"/><circle cx="2429" cy="1400" r="4"/><circle cx="2551" cy="1383" r="5"/><path stroke="#fff" d="M20 49L-49 55M20 49L25 123M20 49L-31 116M20 49L38 163M20 49L7 -39M2580 49L2511 55M2580 49L2529 116M20 1489L7 1401M143 10L174 61M143 10L125 82M143 10L118 -74M143 10L222 -41M143 1450L118 1366M143 1450L222 1399M174 61L125 82M174 61L178 114M174 61L222 -41M174 1501L222 1399M294 73L319 98M294 73L348 109M294 73L278 -43M294 1513L278 1397M393 21L474 54M393 21L348 109M393 21L448 90M393 21L393 -11M393 21L410 -42M393 1461L393 1429M393 1461L410 1398M474 54L525 67M474 54L448 90M474 54L393 -11M474 54L553 -8M474 1494L393 1429M474 1494L553 1432M525 67L448 90M525 67L503 151M525 67L564 142M525 67L553 -8M525 1507L553 1432M636 74L680 27M636 74L721 45M636 74L564 142M636 74L704 126M636 74L575 -27M636 1514L575 1413M680 27L721 45M680 27L575 -27M680 1467L575 1413M721 45L704 126M721 45L774 100M721 45L756 -65M721 1485L756 1375M850 56L899 70M850 56L774 100M850 56L816 114M850 56L945 82M850 56L839 -32M850 1496L839 1408M899 70L816 114M899 70L945 82M1020 79L1050 67M1020 79L945 82M1020 79L1026 136M1020 79L1066 108M1020 79L1020 -28M1020 1519L1020 1412M1050 67L1026 136M1050 67L1066 108M1050 67L1020 -28M1050 1507L1020 1412M1150 36L1222 75M1150 36L1105 -42M1150 36L1190 -54M1150 1476L1105 1398M1150 1476L1190 1386M1222 75L1314 8M1222 75L1143 145M1222 75L1255 126M1222 75L1230 190M1314 8L1269 -28M1314 8L1352 -63M1314 8L1370 -8M1314 1448L1269 1412M1314 1448L1352 1377M1314 1448L1370 1432M1432 12L1509 14M1432 12L1370 -8M1432 12L1500 -66M1432 1452L1370 1432M1432 1452L1500 1374M1509 14L1563 58M1509 14L1494 98M1509 14L1500 -66M1509 14L1565 -42M1509 1454L1500 1374M1509 1454L1565 1398M1563 58L1494 98M1563 58L1530 144M1563 58L1613 115M1672 31L1735 44M1672 31L1613 115M1672 31L1726 97M1672 31L1627 -72M1672 31L1735 -54M1672 1471L1627 1368M1672 1471L1735 1386M1735 44L1822 68M1735 44L1726 97M1735 44L1735 -54M1735 1484L1735 1386M1822 68L1858 56M1822 68L1726 97M1822 68L1812 143M1822 68L1873 96M1858 56L1873 96M1858 56L1920 -29M1858 1496L1920 1411M1999 69L2071 17M1999 69L2090 72M1999 69L1972 102M1999 69L2020 143M1999 69L1920 -29M1999 1509L1920 1411M2071 17L2090 72M2071 17L1982 -47M2071 17L2079 -72M2071 17L2106 -78M2071 1457L1982 1393M2071 1457L2079 1368M2071 1457L2106 1362M2090 72L2100 137M2215 70L2274 10M2215 70L2214 93M2215 70L2275 105M2215 70L2198 -7M2215 1510L2198 1433M2274 10L2275 105M2274 10L2198 -7M2274 10L2310 -47M2274 10L2363 -4M2274 1450L2198 1433M2274 1450L2310 1393M2274 1450L2363 1436M2399 22L2449 52M2399 22L2450 99M2399 22L2310 -47M2399 22L2363 -4M2399 22L2429 -40M2399 1462L2310 1393M2399 1462L2363 1436M2399 1462L2429 1400M2449 52L2511 55M2449 52L2450 99M2449 52L2363 -4M2449 52L2429 -40M2449 1492L2363 1436M2449 1492L2429 1400M2511 55L2585 123M2511 55L2450 99M2511 55L2529 116M-49 55L25 123M25 123L125 82M25 123L-31 116M25 123L38 163M2585 123L2529 116M125 82L178 114M125 82L143 173M178 114L143 173M319 98L348 109M348 109L448 90M348 109L408 215M448 90L503 151M503 151L564 142M503 151L542 231M564 142L542 231M564 142L572 220M704 126L774 100M704 126L664 187M704 126L723 214M774 100L816 114M774 100L816 175M816 114L816 175M1026 136L1066 108M1026 136L1025 223M1026 136L1057 192M1066 108L1143 145M1066 108L1130 164M1143 145L1057 192M1143 145L1130 164M1143 145L1230 190M1255 126L1335 117M1255 126L1230 190M1255 126L1354 183M1255 126L1227 248M1335 117L1419 105M1335 117L1354 183M1419 105L1494 98M1419 105L1354 183M1419 105L1397 201M1494 98L1530 144M1494 98L1505 169M1530 144L1613 115M1530 144L1505 169M1530 144L1556 180M1613 115L1556 180M1613 115L1648 214M1726 97L1812 143M1726 97L1721 173M1812 143L1873 96M1812 143L1721 173M1812 143L1795 220M1873 96L1972 102M1972 102L2020 143M2020 143L2100 137M2020 143L1999 235M2020 143L2066 184M2100 137L2066 184M2100 137L2103 205M2100 137L2178 177M2214 93L2275 105M2214 93L2178 177M2214 93L2198 -7M2214 1533L2198 1433M2275 105L2337 142M2275 105L2269 182M2337 142L2269 182M2337 142L2372 226M2450 99L2529 116M2450 99L2446 168M2529 116L2598 163M-31 116L38 163M38 163L143 173M143 173L236 224M143 173L187 264M236 224L293 215M236 224L327 224M236 224L187 264M236 224L318 269M293 215L327 224M293 215L318 269M327 224L408 215M327 224L318 269M327 224L391 293M408 215L391 293M408 215L415 314M542 231L572 220M542 231L515 298M542 231L631 257M572 220L664 187M572 220L515 298M572 220L631 257M664 187L723 214M664 187L631 257M664 187L667 240M723 214L816 175M723 214L667 240M723 214L757 273M816 175L908 214M816 175L757 273M908 214L1025 223M908 214L856 310M908 214L965 260M1025 223L1057 192M1025 223L965 260M1025 223L1087 291M1057 192L1130 164M1057 192L1087 291M1130 164L1230 190M1130 164L1227 248M1230 190L1227 248M1354 183L1397 201M1354 183L1422 256M1397 201L1505 169M1397 201L1422 256M1397 201L1443 257M1505 169L1556 180M1505 169L1443 257M1556 180L1648 214M1556 180L1558 267M1648 214L1721 173M1648 214L1627 248M1648 214L1681 278M1721 173L1795 220M1721 173L1681 278M1795 220L1892 239M1795 220L1793 282M1892 239L1999 235M1892 239L1883 288M1892 239L1879 322M1999 235L2066 184M1999 235L1969 315M1999 235L2054 311M2066 184L2103 205M2103 205L2178 177M2103 205L2193 240M2178 177L2269 182M2178 177L2193 240M2269 182L2193 240M2269 182L2255 265M2372 226L2446 168M2372 226L2482 203M2372 226L2353 264M2446 168L2482 203M2446 168L2495 241M2482 203L2495 241M62 293L137 302M62 293L57 330M137 302L187 264M137 302L57 330M137 302L138 365M187 264L239 356M187 264L244 340M318 269L391 293M318 269L244 340M391 293L415 314M391 293L432 354M415 314L432 354M415 314L405 407M515 298L432 354M515 298L541 386M515 298L567 388M631 257L667 240M631 257L687 324M667 240L757 273M667 240L687 324M757 273L856 310M757 273L687 324M856 310L946 318M856 310L861 372M856 310L908 389M946 318L965 260M946 318L861 372M946 318L908 389M946 318L1026 341M965 260L1026 341M1087 291L1132 294M1087 291L1026 341M1087 291L1095 330M1132 294L1227 248M1132 294L1095 330M1132 294L1172 359M1335 307L1422 256M1335 307L1321 368M1422 256L1443 257M1422 256L1434 356M1443 257L1434 356M1443 257L1518 342M1558 267L1627 248M1558 267L1518 342M1558 267L1565 321M1558 267L1639 330M1627 248L1681 278M1627 248L1565 321M1627 248L1639 330M1681 278L1639 330M1681 278L1697 385M1793 282L1883 288M1793 282L1814 322M1793 282L1879 322M1883 288L1969 315M1883 288L1814 322M1883 288L1879 322M1969 315L2054 311M1969 315L1969 399M1969 315L2016 397M2054 311L2099 325M2054 311L2067 401M2149 319L2099 325M2149 319L2218 327M2149 319L2122 410M2149 319L2188 403M2193 240L2255 265M2193 240L2218 327M2255 265L2353 264M2255 265L2218 327M2255 265L2264 325M2353 264L2264 325M2443 318L2495 241M2443 318L2388 364M2443 318L2474 357M2443 318L2509 359M2443 318L2426 417M57 330L138 365M57 330L-51 359M57 330L-28 409M2617 330L2509 359M2617 330L2532 409M138 365L175 427M239 356L244 340M239 356L331 398M239 356L175 427M239 356L305 429M244 340L331 398M331 398L305 429M331 398L382 406M331 398L405 407M432 354L382 406M432 354L405 407M541 386L567 388M541 386L500 459M541 386L624 437M567 388L500 459M567 388L624 437M567 388L556 485M687 324L750 387M687 324L726 416M750 387L688 432M750 387L726 416M750 387L803 427M750 387L799 481M861 372L908 389M861 372L803 427M908 389L949 476M908 389L1008 435M1026 341L1095 330M1026 341L1008 435M1095 330L1172 359M1095 330L1102 427M1172 359L1249 380M1172 359L1177 443M1172 359L1235 404M1249 380L1321 368M1249 380L1177 443M1249 380L1235 404M1249 380L1286 414M1321 368L1235 404M1321 368L1286 414M1321 368L1381 446M1434 356L1518 342M1434 356L1381 446M1434 356L1530 405M1518 342L1565 321M1518 342L1530 405M1565 321L1639 330M1565 321L1530 405M1639 330L1697 385M1697 385L1653 457M1697 385L1756 443M1697 385L1797 420M1814 322L1879 322M1814 322L1797 420M1969 399L2016 397M1969 399L1968 417M2016 397L1968 417M2016 397L2067 401M2016 397L2037 482M2099 325L2067 401M2099 325L2122 410M2218 327L2264 325M2218 327L2188 403M2264 325L2188 403M2388 364L2474 357M2388 364L2426 417M2474 357L2509 359M2474 357L2426 417M2474 357L2532 409M2509 359L2426 417M2509 359L2532 409M25 436L115 462M25 436L-28 409M25 436L102 481M25 436L-25 491M2585 436L2532 409M2585 436L2535 491M115 462L175 427M115 462L55 521M115 462L102 481M115 462L169 490M175 427L102 481M175 427L169 490M305 429L382 406M382 406L405 407M382 406L433 482M405 407L433 482M500 459L433 482M500 459L556 485M624 437L688 432M624 437L556 485M624 437L685 514M688 432L726 416M688 432L685 514M688 432L799 481M726 416L803 427M726 416L799 481M803 427L799 481M803 427L836 544M949 476L1008 435M949 476L909 558M949 476L961 547M949 476L1041 538M1008 435L1102 427M1008 435L1041 538M1102 427L1177 443M1177 443L1235 404M1177 443L1184 539M1235 404L1286 414M1286 414L1381 446M1286 414L1266 531M1381 446L1426 514M1496 470L1530 405M1496 470L1426 514M1496 470L1481 528M1653 457L1597 544M1653 457L1648 556M1653 457L1768 480M1756 443L1797 420M1756 443L1855 442M1756 443L1745 533M1756 443L1768 480M1797 420L1855 442M1797 420L1768 480M1855 442L1768 480M1855 442L1896 488M1968 417L1896 488M1968 417L2037 482M2067 401L2122 410M2067 401L2037 482M2122 410L2188 403M2122 410L2138 482M2188 403L2138 482M2319 469L2346 474M2319 469L2304 488M2319 469L2341 485M2319 469L2292 590M2346 474L2426 417M2346 474L2304 488M2346 474L2341 485M2346 474L2452 521M2532 409L2535 491M55 521L102 481M55 521L-25 491M55 521L46 564M2615 521L2535 491M102 481L169 490M169 490L257 556M169 490L131 590M257 556L328 542M257 556L232 613M257 556L261 624M257 556L295 652M328 542L348 605M328 542L428 568M328 542L337 648M433 482L428 568M556 485L566 557M556 485L576 560M566 557L515 618M566 557L576 560M566 557L643 577M685 514L643 577M799 481L836 544M836 544L909 558M836 544L853 590M836 544L891 595M909 558L961 547M909 558L853 590M909 558L891 595M961 547L1041 538M961 547L891 595M961 547L971 615M1041 538L1109 611M1041 538L1037 648M1184 539L1266 531M1184 539L1166 605M1184 539L1275 583M1266 531L1352 543M1266 531L1275 583M1266 531L1270 643M1352 543L1426 514M1352 543L1275 583M1352 543L1431 578M1426 514L1481 528M1426 514L1431 578M1481 528L1431 578M1597 544L1648 556M1597 544L1614 593M1597 544L1619 648M1648 556L1745 533M1648 556L1614 593M1648 556L1619 648M1745 533L1768 480M1745 533L1747 632M1745 533L1823 586M1896 488L1981 520M1981 520L2037 482M1981 520L1993 587M1981 520L2061 590M2037 482L2138 482M2138 482L2202 533M2202 533L2304 488M2202 533L2173 604M2202 533L2292 590M2304 488L2341 485M2304 488L2292 590M2341 485L2452 521M2341 485L2292 590M2452 521L2535 491M2452 521L2423 597M2535 491L2606 564M-25 491L46 564M46 564L131 590M46 564L-22 631M2606 564L2538 631M131 590L232 613M131 590L129 669M131 590L196 651M232 613L261 624M232 613L196 651M232 613L295 652M261 624L196 651M261 624L295 652M261 624L337 648M348 605L428 568M348 605L295 652M348 605L337 648M428 568L515 618M428 568L337 648M515 618L576 560M515 618L478 674M515 618L542 670M576 560L643 577M576 560L635 649M643 577L635 649M643 577L695 646M746 621L853 590M746 621L695 646M746 621L723 714M853 590L891 595M891 595L971 615M971 615L1037 648M1109 611L1166 605M1109 611L1037 648M1109 611L1097 676M1109 611L1153 682M1166 605L1097 676M1166 605L1153 682M1275 583L1341 636M1275 583L1270 643M1341 636L1270 643M1341 636L1343 720M1431 578L1496 620M1431 578L1429 658M1496 620L1548 633M1496 620L1429 658M1496 620L1501 672M1496 620L1525 688M1548 633L1614 593M1548 633L1501 672M1548 633L1525 688M1548 633L1619 648M1614 593L1619 648M1747 632L1823 586M1747 632L1759 686M1747 632L1785 669M1823 586L1876 635M1823 586L1785 669M1823 586L1905 641M1876 635L1785 669M1876 635L1905 641M1876 635L1928 669M1993 587L2061 590M1993 587L1905 641M1993 587L1928 669M1993 587L2018 687M2061 590L2113 605M2061 590L2111 661M2113 605L2173 604M2113 605L2111 661M2173 604L2111 661M2173 604L2190 694M2292 590L2353 610M2353 610L2423 597M2353 610L2351 715M2353 610L2406 701M2423 597L2538 631M2423 597L2406 701M2423 597L2507 662M2538 631L2635 699M2538 631L2507 662M-22 631L75 699M75 699L129 669M75 699L44 782M75 699L154 767M75 699L33 810M129 669L196 651M129 669L154 767M129 669L205 738M196 651L205 738M295 652L337 648M478 674L542 670M478 674L448 760M478 674L499 762M478 674L560 732M542 670L635 649M542 670L560 732M635 649L695 646M695 646L723 714M723 714L658 760M723 714L731 764M849 718L913 711M849 718L837 785M849 718L956 740M849 718L836 832M849 718L881 809M913 711L956 740M913 711L962 740M1037 648L1097 676M1097 676L1153 682M1153 682L1132 779M1153 682L1214 763M1270 643L1343 720M1343 720L1322 740M1343 720L1403 721M1429 658L1501 672M1429 658L1525 688M1429 658L1403 721M1501 672L1525 688M1501 672L1569 746M1525 688L1569 746M1619 648L1569 746M1759 686L1785 669M1759 686L1711 761M1759 686L1822 755M1785 669L1822 755M1905 641L1928 669M1928 669L2018 687M1928 669L1968 752M2018 687L2111 661M2018 687L1968 752M2018 687L2008 779M2111 661L2190 694M2190 694L2278 702M2190 694L2144 742M2190 694L2180 785M2278 702L2351 715M2278 702L2243 790M2278 702L2330 759M2278 702L2221 802M2351 715L2406 701M2351 715L2330 759M2351 715L2409 754M2406 701L2330 759M2406 701L2409 754M44 782L-37 796M44 782L33 810M44 782L-13 838M2604 782L2523 796M2604 782L2547 838M154 767L205 738M154 767L143 860M154 767L167 849M205 738L265 795M265 795L374 792M265 795L167 849M265 795L319 865M265 795L345 804M374 792L448 760M374 792L319 865M374 792L345 804M374 792L469 820M448 760L499 762M448 760L469 820M499 762L560 732M499 762L469 820M499 762L519 827M560 732L658 760M560 732L519 827M658 760L731 764M658 760L650 820M731 764L837 785M731 764L650 820M731 764L749 849M837 785L836 832M837 785L881 809M837 785L830 888M956 740L962 740M956 740L881 809M956 740L994 831M962 740L994 831M1094 787L1132 779M1094 787L994 831M1094 787L1104 870M1094 787L1120 861M1132 779L1214 763M1132 779L1104 870M1132 779L1120 861M1214 763L1322 740M1214 763L1252 814M1322 740L1403 721M1322 740L1252 814M1322 740L1350 834M1403 721L1441 769M1441 769L1375 854M1441 769L1507 853M1569 746L1604 794M1604 794L1711 761M1604 794L1626 877M1711 761L1822 755M1711 761L1744 851M1822 755L1910 799M1822 755L1881 808M1910 799L1968 752M1910 799L1881 808M1910 799L1954 817M1910 799L1938 902M1968 752L2008 779M1968 752L1954 817M2008 779L1954 817M2008 779L2079 807M2144 742L2180 785M2144 742L2079 807M2144 742L2221 802M2180 785L2243 790M2180 785L2079 807M2180 785L2221 802M2243 790L2330 759M2243 790L2221 802M2330 759L2409 754M2409 754L2436 830M2523 796L2593 810M2523 796L2436 830M2523 796L2547 838M2523 796L2532 882M-37 796L33 810M33 810L-13 838M33 810L-28 882M2593 810L2547 838M2593 810L2532 882M143 860L167 849M143 860L119 898M167 849L119 898M167 849L237 921M319 865L345 804M319 865L319 927M319 865L325 915M469 820L519 827M519 827L611 866M519 827L515 911M611 866L650 820M611 866L515 911M611 866L590 937M611 866L681 898M650 820L681 898M650 820L727 896M749 849L836 832M749 849L681 898M749 849L727 896M749 849L830 888M836 832L881 809M836 832L830 888M881 809L830 888M994 831L922 921M1104 870L1120 861M1104 870L1110 922M1120 861L1110 922M1120 861L1140 957M1252 814L1350 834M1252 814L1266 920M1350 834L1375 854M1350 834L1266 920M1350 834L1340 912M1375 854L1340 912M1375 854L1439 910M1507 853L1549 876M1507 853L1439 910M1507 853L1491 907M1507 853L1540 935M1549 876L1626 877M1549 876L1491 907M1549 876L1540 935M1549 876L1612 932M1626 877L1744 851M1626 877L1612 932M1744 851L1819 864M1744 851L1748 928M1819 864L1881 808M1819 864L1748 928M1819 864L1832 909M1819 864L1821 960M1881 808L1954 817M1881 808L1938 902M1954 817L1938 902M2079 807L2099 871M2079 807L2097 899M2099 871L2044 916M2099 871L2097 899M2221 802L2313 878M2313 878L2361 865M2313 878L2235 931M2313 878L2301 951M2313 878L2383 928M2361 865L2436 830M2361 865L2383 928M2361 865L2409 957M2547 838L2601 930M2547 838L2532 882M-13 838L41 930M41 930L119 898M41 930L-28 882M41 930L3 1036M2601 930L2532 882M237 921L319 927M237 921L325 915M237 921L232 1006M319 927L325 915M319 927L310 973M319 927L380 984M325 915L421 908M325 915L310 973M421 908L515 911M421 908L380 984M421 908L419 964M421 908L481 961M515 911L590 937M515 911L481 961M590 937L681 898M590 937L615 994M590 937L645 993M681 898L727 896M830 888L922 921M922 921L997 950M922 921L946 1014M997 950L946 1014M997 950L1014 994M997 950L1043 1012M1110 922L1140 957M1110 922L1167 1007M1140 957L1167 1007M1140 957L1201 1032M1140 957L1142 1057M1266 920L1340 912M1266 920L1356 996M1340 912L1439 910M1340 912L1356 996M1439 910L1491 907M1491 907L1540 935M1540 935L1612 932M1540 935L1516 1015M1612 932L1581 1020M1612 932L1661 1031M1748 928L1832 909M1748 928L1718 1012M1748 928L1821 960M1832 909L1893 939M1832 909L1821 960M1832 909L1842 972M1893 939L1938 902M1893 939L1821 960M1893 939L1842 972M1893 939L1953 1011M1938 902L1953 1011M2044 916L2097 899M2235 931L2301 951M2235 931L2231 984M2235 931L2277 1039M2301 951L2383 928M2301 951L2231 984M2301 951L2383 984M2383 928L2409 957M2383 928L2383 984M2409 957L2383 984M2409 957L2448 1026M2409 957L2491 975M3 1036L104 1037M3 1036L-69 975M3 1036L49 1107M3 1036L-43 1043M2563 1036L2491 975M2563 1036L2517 1043M104 1037L49 1107M104 1037L126 1052M232 1006L310 973M232 1006L310 1072M310 973L380 984M310 973L334 1059M380 984L419 964M380 984L334 1059M419 964L481 961M481 961L469 1088M481 961L512 1051M615 994L645 993M615 994L512 1051M615 994L616 1045M645 993L755 1000M645 993L616 1045M755 1000L802 1021M755 1000L707 1099M755 1000L787 1054M755 1000L838 1059M802 1021L787 1054M802 1021L838 1059M946 1014L1014 994M946 1014L958 1086M1014 994L1043 1012M1014 994L958 1086M1014 994L1006 1079M1043 1012L1006 1079M1043 1012L1076 1089M1167 1007L1201 1032M1167 1007L1142 1057M1167 1007L1259 1055M1201 1032L1142 1057M1201 1032L1259 1055M1356 996L1385 1023M1356 996L1259 1055M1356 996L1310 1075M1385 1023L1310 1075M1385 1023L1374 1116M1385 1023L1361 1131M1516 1015L1581 1020M1516 1015L1492 1098M1516 1015L1523 1080M1581 1020L1661 1031M1581 1020L1523 1080M1581 1020L1612 1081M1661 1031L1718 1012M1661 1031L1612 1081M1718 1012L1736 1105M1821 960L1842 972M1953 1011L2029 1031M1953 1011L1946 1117M1953 1011L2050 1069M2029 1031L2128 1034M2029 1031L2050 1069M2029 1031L2049 1120M2128 1034L2050 1069M2128 1034L2129 1104M2128 1034L2183 1097M2231 984L2277 1039M2231 984L2255 1084M2277 1039L2183 1097M2277 1039L2255 1084M2383 984L2448 1026M2383 984L2491 975M2448 1026L2491 975M2448 1026L2445 1118M2448 1026L2517 1043M2491 975L2517 1043M49 1107L126 1052M49 1107L16 1179M49 1107L96 1157M126 1052L207 1112M207 1112L310 1072M207 1112L96 1157M207 1112L163 1166M207 1112L259 1152M310 1072L334 1059M310 1072L259 1152M310 1072L348 1160M334 1059L259 1152M334 1059L348 1160M469 1088L512 1051M469 1088L453 1146M469 1088L500 1176M512 1051L616 1045M512 1051L453 1146M616 1045L707 1099M616 1045L634 1162M707 1099L787 1054M707 1099L634 1162M707 1099L693 1157M787 1054L838 1059M958 1086L1006 1079M958 1086L937 1129M1006 1079L1076 1089M1006 1079L937 1129M1076 1089L1142 1057M1076 1089L1041 1158M1142 1057L1162 1158M1259 1055L1310 1075M1310 1075L1374 1116M1310 1075L1361 1131M1374 1116L1361 1131M1374 1116L1440 1171M1492 1098L1523 1080M1492 1098L1440 1171M1492 1098L1576 1162M1523 1080L1612 1081M1523 1080L1576 1162M1612 1081L1576 1162M1612 1081L1640 1149M1736 1105L1815 1114M1736 1105L1842 1109M1736 1105L1640 1149M1736 1105L1747 1170M1815 1114L1842 1109M1815 1114L1747 1170M1815 1114L1832 1157M1815 1114L1854 1143M1842 1109L1946 1117M1842 1109L1832 1157M1842 1109L1854 1143M1946 1117L1854 1143M1946 1117L1987 1162M1946 1117L1927 1214M2050 1069L2129 1104M2050 1069L2049 1120M2129 1104L2183 1097M2129 1104L2049 1120M2129 1104L2104 1169M2183 1097L2255 1084M2183 1097L2231 1176M2255 1084L2231 1176M2255 1084L2251 1186M2387 1102L2445 1118M2387 1102L2363 1156M2445 1118L2363 1156M2445 1118L2442 1196M2445 1118L2492 1145M2517 1043L2492 1145M16 1179L96 1157M16 1179L-68 1145M16 1179L2 1220M2576 1179L2492 1145M96 1157L163 1166M96 1157L119 1228M163 1166L259 1152M163 1166L119 1228M163 1166L165 1274M259 1152L348 1160M348 1160L453 1146M348 1160L341 1250M453 1146L500 1176M453 1146L520 1219M500 1176L520 1219M500 1176L489 1281M634 1162L693 1157M634 1162L624 1272M634 1162L658 1201M693 1157L796 1183M693 1157L658 1201M693 1157L761 1246M796 1183L877 1187M796 1183L761 1246M796 1183L836 1264M877 1187L937 1129M877 1187L836 1264M877 1187L916 1226M937 1129L1020 1182M937 1129L916 1226M1020 1182L1041 1158M1020 1182L916 1226M1020 1182L1020 1205M1020 1182L1076 1217M1041 1158L1162 1158M1041 1158L1020 1205M1041 1158L1076 1217M1162 1158L1219 1172M1162 1158L1159 1242M1219 1172L1282 1186M1282 1186L1361 1131M1282 1186L1256 1269M1282 1186L1308 1264M1361 1131L1440 1171M1440 1171L1417 1279M1576 1162L1640 1149M1576 1162L1547 1251M1640 1149L1747 1170M1640 1149L1633 1241M1747 1170L1832 1157M1747 1170L1767 1230M1832 1157L1854 1143M1832 1157L1881 1239M1854 1143L1927 1214M1987 1162L2049 1120M1987 1162L2104 1169M1987 1162L1927 1214M2049 1120L2104 1169M2104 1169L2075 1252M2104 1169L2134 1250M2231 1176L2251 1186M2231 1176L2261 1244M2251 1186L2232 1275M2251 1186L2261 1244M2363 1156L2442 1196M2442 1196L2492 1145M2442 1196L2434 1236M2442 1196L2511 1268M2492 1145L2434 1236M2 1220L-49 1268M2562 1220L2511 1268M119 1228L165 1274M165 1274L68 1326M165 1274L147 1330M165 1274L238 1326M316 1255L341 1250M316 1255L406 1264M316 1255L276 1314M316 1255L342 1283M341 1250L406 1264M341 1250L276 1314M341 1250L342 1283M406 1264L342 1283M406 1264L437 1320M406 1264L489 1281M520 1219L624 1272M520 1219L489 1281M624 1272L658 1201M624 1272L579 1334M624 1272L655 1317M761 1246L836 1264M761 1246L730 1356M761 1246L811 1348M836 1264L916 1226M836 1264L811 1348M916 1226L944 1320M1020 1205L1076 1217M1020 1205L1023 1303M1076 1217L1159 1242M1076 1217L1117 1284M1159 1242L1117 1284M1159 1242L1195 1293M1159 1242L1214 1316M1256 1269L1308 1264M1256 1269L1195 1293M1256 1269L1214 1316M1256 1269L1284 1338M1308 1264L1284 1338M1308 1264L1392 1308M1417 1279L1454 1267M1417 1279L1392 1308M1454 1267L1547 1251M1454 1267L1392 1308M1547 1251L1633 1241M1547 1251L1519 1341M1547 1251L1524 1332M1633 1241L1706 1267M1633 1241L1657 1282M1706 1267L1767 1230M1706 1267L1657 1282M1706 1267L1691 1345M1706 1267L1771 1313M1767 1230L1771 1313M1881 1239L1927 1214M1881 1239L1935 1299M1927 1214L1935 1299M2075 1252L2134 1250M2075 1252L2065 1307M2134 1250L2065 1307M2134 1250L2153 1347M2134 1250L2194 1323M2232 1275L2261 1244M2232 1275L2194 1323M2232 1275L2271 1299M2232 1275L2322 1321M2261 1244L2271 1299M2261 1244L2322 1321M2390 1277L2434 1236M2390 1277L2322 1321M2390 1277L2471 1292M2434 1236L2511 1268M2434 1236L2471 1292M2511 1268L2471 1292M2511 1268L2502 1345M68 1326L147 1330M68 1326L7 1401M68 1326L118 1366M68 1326L-9 1383M2628 1326L2551 1383M147 1330L238 1326M147 1330L118 1366M147 1330L222 1399M238 1326L276 1314M238 1326L222 1399M238 1326L278 1397M276 1314L342 1283M276 1314L278 1397M342 1283L437 1320M437 1320L489 1281M437 1320L393 1429M437 1320L410 1398M489 1281L579 1334M579 1334L655 1317M579 1334L553 1432M579 1334L575 1413M655 1317L730 1356M655 1317L695 1361M730 1356L811 1348M730 1356L695 1361M730 1356L756 1375M811 1348L756 1375M811 1348L839 1408M944 1320L1023 1303M944 1320L927 1384M1023 1303L1117 1284M1023 1303L1020 1412M1023 1303L1105 1398M1117 1284L1195 1293M1195 1293L1214 1316M1195 1293L1190 1386M1214 1316L1284 1338M1214 1316L1190 1386M1284 1338L1269 1412M1284 1338L1352 1377M1392 1308L1352 1377M1519 1341L1524 1332M1519 1341L1500 1374M1519 1341L1565 1398M1524 1332L1500 1374M1524 1332L1565 1398M1524 1332L1627 1368M1657 1282L1691 1345M1657 1282L1627 1368M1691 1345L1771 1313M1691 1345L1627 1368M1691 1345L1735 1386M1771 1313L1844 1348M1771 1313L1780 1378M1844 1348L1935 1299M1844 1348L1735 1386M1844 1348L1780 1378M1844 1348L1920 1411M1935 1299L1920 1411M1935 1299L1982 1393M2065 1307L2153 1347M2065 1307L2079 1368M2065 1307L2106 1362M2153 1347L2194 1323M2153 1347L2079 1368M2153 1347L2106 1362M2194 1323L2271 1299M2194 1323L2106 1362M2271 1299L2322 1321M2271 1299L2310 1393M2322 1321L2310 1393M2471 1292L2502 1345M2471 1292L2429 1400M2502 1345L2567 1401M2502 1345L2429 1400M2502 1345L2551 1383M-58 1345L7 1401M7 1401L-9 1383M2567 1401L2551 1383M222 1399L278 1397M278 1397L393 1429M393 1429L410 1398M553 1432L575 1413M575 1413L695 1361M695 1361L756 1375M756 1375L839 1408M839 1408L927 1384M927 1384L1020 1412M1020 1412L1105 1398M1105 1398L1190 1386M1190 1386L1269 1412M1269 1412L1352 1377M1269 1412L1370 1432M1352 1377L1370 1432M1500 1374L1565 1398M1565 1398L1627 1368M1735 1386L1780 1378M1920 1411L1982 1393M1982 1393L2079 1368M2079 1368L2106 1362M2310 1393L2363 1436M2363 1436L2429 1400"/></svg>