<svg xmlns="http://www.w3.org/2000/svg" width="2560" height="1440" fill="#fff"><circle cx="80" cy="3" r="5"/><circle cx="80" cy="1443" r="5"/><circle cx="130" cy="27" r="5"/><circle cx="216" cy="2" r="5"/><circle cx="216" cy="1442" r="5"/><circle cx="298" cy="15" r="5"/><circle cx="344" cy="3" r="5"/><circle cx="344" cy="1443" r="5"/><circle cx="463" cy="72" r="5"/><circle cx="556" cy="26" r="4"/><circle cx="630" cy="22" r="6"/><circle cx="705" cy="42" r="6"/><circle cx="769" cy="41" r="5"/><circle cx="831" cy="36" r="5"/><circle cx="897" cy="77" r="5"/><circle cx="1028" cy="36" r="6"/><circle cx="1105" cy="57" r="5"/><circle cx="1143" cy="41" r="5"/><circle cx="1210" cy="50" r="6"/><circle cx="1294" cy="54" r="4"/><circle cx="1416" cy="61" r="5"/><circle cx="1511" cy="72" r="4"/><circle cx="1576" cy="55" r="5"/><circle cx="1617" cy="34" r="6"/><circle cx="1759" cy="41" r="6"/><circle cx="1810" cy="44" r="5"/><circle cx="1876" cy="11" r="5"/><circle cx="1943" cy="16" r="4"/><circle cx="2009" cy="3" r="6"/><circle cx="2009" cy="1443" r="6"/><circle cx="2117" cy="76" r="5"/><circle cx="2215" cy="30" r="5"/><circle cx="2290" cy="73" r="5"/><circle cx="2326" cy="64" r="6"/><circle cx="2422" cy="16" r="5"/><circle cx="2481" cy="24" r="6"/><circle cx="53" cy="159" r="5"/><circle cx="152" cy="155" r="6"/><circle cx="167" cy="150" r="5"/><circle cx="282" cy="93" r="6"/><circle cx="398" cy="101" r="6"/><circle cx="420" cy="124" r="5"/><circle cx="497" cy="125" r="4"/><circle cx="598" cy="138" r="5"/><circle cx="682" cy="95" r="5"/><circle cx="786" cy="126" r="4"/><circle cx="869" cy="90" r="6"/><circle cx="948" cy="147" r="5"/><circle cx="1008" cy="141" r="5"/><circle cx="1065" cy="84" r="6"/><circle cx="1185" cy="104" r="4"/><circle cx="1264" cy="95" r="4"/><circle cx="1330" cy="154" r="4"/><circle cx="1381" cy="88" r="6"/><circle cx="1516" cy="81" r="6"/><circle cx="1539" cy="119" r="5"/><circle cx="1635" cy="81" r="4"/><circle cx="1744" cy="87" r="5"/><circle cx="1803" cy="130" r="5"/><circle cx="1886" cy="138" r="5"/><circle cx="1974" cy="81" r="5"/><circle cx="2001" cy="116" r="4"/><circle cx="2083" cy="115" r="5"/><circle cx="2218" cy="114" r="5"/><circle cx="2304" cy="159" r="6"/><circle cx="2357" cy="158" r="4"/><circle cx="2467" cy="134" r="5"/><circle cx="2510" cy="107" r="4"/><circle cx="21" cy="196" r="6"/><circle cx="134" cy="232" r="5"/><circle cx="177" cy="235" r="6"/><circle cx="248" cy="210" r="5"/><circle cx="379" cy="216" r="5"/><circle cx="441" cy="180" r="5"/><circle cx="553" cy="190" r="4"/><circle cx="601" cy="168" r="5"/><circle cx="688" cy="201" r="5"/><circle cx="799" cy="229" r="6"/><circle cx="859" cy="228" r="5"/><circle cx="934" cy="213" r="5"/><circle cx="1011" cy="161" r="5"/><circle cx="1042" cy="203" r="5"/><circle cx="1170" cy="181" r="5"/><circle cx="1256" cy="197" r="6"/><circle cx="1353" cy="188" r="6"/><circle cx="1367" cy="173" r="4"/><circle cx="1468" cy="178" r="5"/><circle cx="1551" cy="170" r="4"/><circle cx="1632" cy="166" r="5"/><circle cx="1742" cy="232" r="6"/><circle cx="1822" cy="224" r="5"/><circle cx="1892" cy="194" r="4"/><circle cx="1985" cy="227" r="6"/><circle cx="2075" cy="177" r="5"/><circle cx="2110" cy="214" r="5"/><circle cx="2171" cy="224" r="5"/><circle cx="2294" cy="172" r="4"/><circle cx="2400" cy="202" r="5"/><circle cx="2453" cy="197" r="5"/><circle cx="2545" cy="189" r="4"/><circle cx="67" cy="284" r="5"/><circle cx="101" cy="249" r="6"/><circle cx="233" cy="315" r="5"/><circle cx="252" cy="293" r="4"/><circle cx="334" cy="311" r="5"/><circle cx="430" cy="275" r="5"/><circle cx="530" cy="284" r="4"/><circle cx="634" cy="286" r="4"/><circle cx="720" cy="296" r="6"/><circle cx="773" cy="288" r="5"/><circle cx="821" cy="316" r="4"/><circle cx="892" cy="244" r="5"/><circle cx="1011" cy="314" r="6"/><circle cx="1093" cy="300" r="5"/><circle cx="1170" cy="244" r="4"/><circle cx="1276" cy="310" r="5"/><circle cx="1306" cy="253" r="6"/><circle cx="1405" cy="249" r="5"/><circle cx="1508" cy="291" r="5"/><circle cx="1584" cy="266" r="5"/><circle cx="1627" cy="246" r="4"/><circle cx="1721" cy="240" r="5"/><circle cx="1771" cy="294" r="4"/><circle cx="1867" cy="266" r="4"/><circle cx="1999" cy="241" r="6"/><circle cx="2077" cy="314" r="5"/><circle cx="2121" cy="277" r="6"/><circle cx="2188" cy="285" r="5"/><circle cx="2241" cy="297" r="4"/><circle cx="2386" cy="272" r="5"/><circle cx="2433" cy="289" r="5"/><circle cx="2557" cy="298" r="5"/><circle cx="-3" cy="298" r="5"/><circle cx="46" cy="363" r="6"/><circle cx="89" cy="377" r="5"/><circle cx="191" cy="323" r="5"/><circle cx="251" cy="350" r="4"/><circle cx="390" cy="353" r="4"/><circle cx="466" cy="383" r="5"/><circle cx="534" cy="397" r="6"/><circle cx="616" cy="394" r="5"/><circle cx="673" cy="355" r="6"/><circle cx="730" cy="377" r="5"/><circle cx="832" cy="398" r="5"/><circle cx="959" cy="321" r="6"/><circle cx="1035" cy="346" r="5"/><circle cx="1045" cy="365" r="6"/><circle cx="1199" cy="330" r="4"/><circle cx="1257" cy="373" r="5"/><circle cx="1300" cy="388" r="4"/><circle cx="1437" cy="351" r="4"/><circle cx="1477" cy="370" r="5"/><circle cx="1524" cy="324" r="6"/><circle cx="1610" cy="366" r="5"/><circle cx="1704" cy="359" r="6"/><circle cx="1832" cy="381" r="5"/><circle cx="1853" cy="390" r="5"/><circle cx="1927" cy="397" r="6"/><circle cx="2062" cy="324" r="4"/><circle cx="2088" cy="396" r="5"/><circle cx="2166" cy="380" r="6"/><circle cx="2307" cy="333" r="4"/><circle cx="2388" cy="389" r="6"/><circle cx="2421" cy="377" r="4"/><circle cx="2539" cy="373" r="5"/><circle cx="38" cy="433" r="4"/><circle cx="151" cy="424" r="6"/><circle cx="171" cy="468" r="6"/><circle cx="287" cy="435" r="5"/><circle cx="392" cy="478" r="5"/><circle cx="445" cy="419" r="5"/><circle cx="559" cy="455" r="5"/><circle cx="620" cy="473" r="5"/><circle cx="708" cy="457" r="5"/><circle cx="784" cy="422" r="5"/><circle cx="836" cy="401" r="4"/><circle cx="950" cy="424" r="4"/><circle cx="1027" cy="428" r="6"/><circle cx="1109" cy="422" r="6"/><circle cx="1164" cy="473" r="6"/><circle cx="1204" cy="464" r="4"/><circle cx="1322" cy="417" r="6"/><circle cx="1432" cy="436" r="5"/><circle cx="1458" cy="444" r="5"/><circle cx="1575" cy="463" r="4"/><circle cx="1610" cy="400" r="4"/><circle cx="1689" cy="478" r="6"/><circle cx="1779" cy="449" r="5"/><circle cx="1864" cy="406" r="6"/><circle cx="1938" cy="478" r="5"/><circle cx="2080" cy="422" r="4"/><circle cx="2143" cy="439" r="5"/><circle cx="2219" cy="473" r="5"/><circle cx="2290" cy="457" r="4"/><circle cx="2390" cy="464" r="6"/><circle cx="2462" cy="420" r="5"/><circle cx="2490" cy="473" r="5"/><circle cx="57" cy="554" r="4"/><circle cx="145" cy="534" r="4"/><circle cx="220" cy="556" r="6"/><circle cx="282" cy="542" r="4"/><circle cx="335" cy="496" r="5"/><circle cx="405" cy="543" r="5"/><circle cx="499" cy="541" r="4"/><circle cx="635" cy="536" r="5"/><circle cx="670" cy="521" r="5"/><circle cx="774" cy="559" r="6"/><circle cx="873" cy="559" r="6"/><circle cx="925" cy="506" r="6"/><circle cx="982" cy="556" r="6"/><circle cx="1088" cy="540" r="5"/><circle cx="1148" cy="541" r="5"/><circle cx="1220" cy="517" r="5"/><circle cx="1312" cy="491" r="5"/><circle cx="1361" cy="519" r="6"/><circle cx="1475" cy="491" r="5"/><circle cx="1573" cy="516" r="4"/><circle cx="1656" cy="510" r="5"/><circle cx="1754" cy="501" r="6"/><circle cx="1811" cy="484" r="5"/><circle cx="1879" cy="558" r="5"/><circle cx="1950" cy="506" r="5"/><circle cx="2056" cy="515" r="4"/><circle cx="2123" cy="484" r="5"/><circle cx="2167" cy="527" r="5"/><circle cx="2301" cy="533" r="5"/><circle cx="2362" cy="502" r="5"/><circle cx="2417" cy="543" r="5"/><circle cx="2510" cy="545" r="4"/><circle cx="8" cy="617" r="4"/><circle cx="105" cy="593" r="5"/><circle cx="237" cy="629" r="4"/><circle cx="318" cy="631" r="5"/><circle cx="368" cy="636" r="5"/><circle cx="465" cy="623" r="4"/><circle cx="521" cy="603" r="5"/><circle cx="562" cy="575" r="5"/><circle cx="660" cy="578" r="6"/><circle cx="787" cy="578" r="6"/><circle cx="851" cy="615" r="5"/><circle cx="946" cy="585" r="4"/><circle cx="979" cy="588" r="5"/><circle cx="1057" cy="579" r="5"/><circle cx="1152" cy="625" r="5"/><circle cx="1205" cy="638" r="5"/><circle cx="1360" cy="628" r="5"/><circle cx="1410" cy="630" r="5"/><circle cx="1500" cy="569" r="5"/><circle cx="1564" cy="582" r="6"/><circle cx="1663" cy="561" r="4"/><circle cx="1734" cy="595" r="4"/><circle cx="1829" cy="611" r="6"/><circle cx="1913" cy="601" r="5"/><circle cx="1987" cy="571" r="4"/><circle cx="2030" cy="564" r="5"/><circle cx="2096" cy="593" r="4"/><circle cx="2167" cy="622" r="6"/><circle cx="2304" cy="579" r="5"/><circle cx="2364" cy="639" r="5"/><circle cx="2479" cy="607" r="5"/><circle cx="2499" cy="638" r="4"/><circle cx="72" cy="663" r="5"/><circle cx="113" cy="682" r="5"/><circle cx="220" cy="660" r="5"/><circle cx="297" cy="684" r="4"/><circle cx="375" cy="681" r="5"/><circle cx="436" cy="707" r="5"/><circle cx="514" cy="717" r="4"/><circle cx="611" cy="695" r="6"/><circle cx="653" cy="657" r="5"/><circle cx="738" cy="718" r="4"/><circle cx="805" cy="694" r="5"/><circle cx="889" cy="680" r="5"/><circle cx="965" cy="710" r="4"/><circle cx="1051" cy="702" r="6"/><circle cx="1181" cy="700" r="5"/><circle cx="1260" cy="711" r="4"/><circle cx="1300" cy="710" r="5"/><circle cx="1386" cy="650" r="5"/><circle cx="1450" cy="699" r="4"/><circle cx="1577" cy="648" r="5"/><circle cx="1615" cy="643" r="4"/><circle cx="1708" cy="675" r="4"/><circle cx="1798" cy="691" r="5"/><circle cx="1860" cy="697" r="5"/><circle cx="1986" cy="686" r="6"/><circle cx="2053" cy="717" r="5"/><circle cx="2147" cy="652" r="6"/><circle cx="2188" cy="711" r="6"/><circle cx="2253" cy="696" r="6"/><circle cx="2351" cy="683" r="5"/><circle cx="2468" cy="645" r="6"/><circle cx="2494" cy="716" r="6"/><circle cx="7" cy="734" r="4"/><circle cx="124" cy="768" r="5"/><circle cx="167" cy="731" r="5"/><circle cx="292" cy="760" r="5"/><circle cx="355" cy="755" r="5"/><circle cx="476" cy="770" r="6"/><circle cx="483" cy="783" r="5"/><circle cx="587" cy="791" r="6"/><circle cx="655" cy="778" r="6"/><circle cx="753" cy="721" r="4"/><circle cx="838" cy="724" r="5"/><circle cx="924" cy="742" r="5"/><circle cx="1016" cy="772" r="5"/><circle cx="1079" cy="754" r="5"/><circle cx="1180" cy="764" r="5"/><circle cx="1235" cy="789" r="5"/><circle cx="1292" cy="791" r="6"/><circle cx="1411" cy="791" r="5"/><circle cx="1454" cy="790" r="5"/><circle cx="1544" cy="789" r="4"/><circle cx="1634" cy="779" r="6"/><circle cx="1711" cy="731" r="6"/><circle cx="1785" cy="791" r="6"/><circle cx="1893" cy="737" r="6"/><circle cx="1973" cy="768" r="4"/><circle cx="2024" cy="762" r="6"/><circle cx="2126" cy="793" r="5"/><circle cx="2182" cy="791" r="5"/><circle cx="2251" cy="723" r="5"/><circle cx="2387" cy="793" r="5"/><circle cx="2477" cy="720" r="5"/><circle cx="2542" cy="750" r="5"/><circle cx="13" cy="818" r="5"/><circle cx="137" cy="809" r="5"/><circle cx="207" cy="815" r="6"/><circle cx="267" cy="861" r="5"/><circle cx="341" cy="865" r="5"/><circle cx="418" cy="816" r="5"/><circle cx="489" cy="847" r="5"/><circle cx="628" cy="874" r="5"/><circle cx="683" cy="829" r="4"/><circle cx="733" cy="848" r="5"/><circle cx="854" cy="872" r="5"/><circle cx="914" cy="859" r="5"/><circle cx="965" cy="823" r="6"/><circle cx="1118" cy="873" r="6"/><circle cx="1152" cy="855" r="6"/><circle cx="1209" cy="812" r="5"/><circle cx="1280" cy="874" r="6"/><circle cx="1397" cy="830" r="5"/><circle cx="1449" cy="803" r="4"/><circle cx="1582" cy="824" r="4"/><circle cx="1613" cy="863" r="5"/><circle cx="1691" cy="859" r="4"/><circle cx="1807" cy="857" r="5"/><circle cx="1908" cy="807" r="5"/><circle cx="1953" cy="803" r="5"/><circle cx="2047" cy="862" r="5"/><circle cx="2101" cy="874" r="6"/><circle cx="2179" cy="801" r="6"/><circle cx="2243" cy="874" r="5"/><circle cx="2357" cy="804" r="5"/><circle cx="2472" cy="806" r="5"/><circle cx="2508" cy="844" r="6"/><circle cx="27" cy="918" r="5"/><circle cx="118" cy="884" r="5"/><circle cx="206" cy="946" r="5"/><circle cx="260" cy="934" r="4"/><circle cx="362" cy="902" r="6"/><circle cx="411" cy="929" r="4"/><circle cx="511" cy="905" r="6"/><circle cx="600" cy="893" r="5"/><circle cx="682" cy="946" r="4"/><circle cx="763" cy="893" r="6"/><circle cx="858" cy="935" r="6"/><circle cx="957" cy="942" r="5"/><circle cx="972" cy="951" r="4"/><circle cx="1112" cy="900" r="6"/><circle cx="1147" cy="899" r="6"/><circle cx="1242" cy="903" r="5"/><circle cx="1292" cy="949" r="5"/><circle cx="1394" cy="941" r="5"/><circle cx="1505" cy="926" r="4"/><circle cx="1545" cy="881" r="6"/><circle cx="1675" cy="885" r="5"/><circle cx="1754" cy="913" r="5"/><circle cx="1785" cy="946" r="4"/><circle cx="1857" cy="952" r="6"/><circle cx="1925" cy="922" r="6"/><circle cx="2068" cy="934" r="5"/><circle cx="2083" cy="946" r="4"/><circle cx="2210" cy="927" r="4"/><circle cx="2268" cy="927" r="5"/><circle cx="2385" cy="883" r="5"/><circle cx="2428" cy="897" r="5"/><circle cx="2542" cy="922" r="5"/><circle cx="5" cy="1026" r="6"/><circle cx="2565" cy="1026" r="6"/><circle cx="134" cy="1015" r="6"/><circle cx="163" cy="962" r="5"/><circle cx="320" cy="1004" r="5"/><circle cx="329" cy="978" r="6"/><circle cx="438" cy="983" r="4"/><circle cx="559" cy="987" r="5"/><circle cx="593" cy="1012" r="5"/><circle cx="691" cy="1036" r="4"/><circle cx="727" cy="996" r="6"/><circle cx="806" cy="966" r="5"/><circle cx="881" cy="1006" r="5"/><circle cx="1010" cy="976" r="5"/><circle cx="1077" cy="975" r="4"/><circle cx="1158" cy="1002" r="6"/><circle cx="1234" cy="963" r="5"/><circle cx="1349" cy="988" r="4"/><circle cx="1395" cy="1006" r="4"/><circle cx="1466" cy="980" r="5"/><circle cx="1537" cy="972" r="5"/><circle cx="1648" cy="969" r="5"/><circle cx="1748" cy="965" r="6"/><circle cx="1817" cy="980" r="5"/><circle cx="1886" cy="1026" r="5"/><circle cx="1958" cy="965" r="5"/><circle cx="2011" cy="962" r="5"/><circle cx="2082" cy="994" r="4"/><circle cx="2234" cy="1027" r="5"/><circle cx="2269" cy="1014" r="6"/><circle cx="2390" cy="965" r="4"/><circle cx="2440" cy="994" r="6"/><circle cx="2543" cy="1036" r="4"/><circle cx="71" cy="1115" r="4"/><circle cx="135" cy="1078" r="4"/><circle cx="199" cy="1044" r="6"/><circle cx="303" cy="1066" r="5"/><circle cx="387" cy="1049" r="5"/><circle cx="464" cy="1085" r="5"/><circle cx="503" cy="1084" r="6"/><circle cx="585" cy="1086" r="4"/><circle cx="663" cy="1070" r="5"/><circle cx="791" cy="1106" r="6"/><circle cx="871" cy="1073" r="4"/><circle cx="951" cy="1067" r="5"/><circle cx="961" cy="1058" r="5"/><circle cx="1067" cy="1056" r="4"/><circle cx="1160" cy="1066" r="5"/><circle cx="1223" cy="1102" r="4"/><circle cx="1311" cy="1119" r="4"/><circle cx="1416" cy="1094" r="5"/><circle cx="1502" cy="1067" r="5"/><circle cx="1533" cy="1078" r="5"/><circle cx="1649" cy="1112" r="4"/><circle cx="1726" cy="1075" r="5"/><circle cx="1761" cy="1079" r="5"/><circle cx="1840" cy="1089" r="4"/><circle cx="1956" cy="1114" r="4"/><circle cx="2047" cy="1114" r="4"/><circle cx="2109" cy="1052" r="6"/><circle cx="2180" cy="1111" r="5"/><circle cx="2262" cy="1060" r="6"/><circle cx="2374" cy="1066" r="5"/><circle cx="2425" cy="1065" r="5"/><circle cx="2514" cy="1058" r="5"/><circle cx="45" cy="1157" r="6"/><circle cx="112" cy="1133" r="6"/><circle cx="186" cy="1191" r="4"/><circle cx="309" cy="1150" r="6"/><circle cx="390" cy="1149" r="6"/><circle cx="445" cy="1143" r="4"/><circle cx="486" cy="1156" r="5"/><circle cx="598" cy="1185" r="5"/><circle cx="651" cy="1128" r="6"/><circle cx="800" cy="1142" r="4"/><circle cx="844" cy="1153" r="6"/><circle cx="885" cy="1125" r="6"/><circle cx="1019" cy="1165" r="6"/><circle cx="1048" cy="1139" r="4"/><circle cx="1154" cy="1126" r="4"/><circle cx="1274" cy="1190" r="5"/><circle cx="1282" cy="1133" r="5"/><circle cx="1415" cy="1170" r="5"/><circle cx="1455" cy="1177" r="5"/><circle cx="1579" cy="1197" r="5"/><circle cx="1610" cy="1145" r="6"/><circle cx="1698" cy="1192" r="5"/><circle cx="1787" cy="1178" r="5"/><circle cx="1904" cy="1128" r="5"/><circle cx="1978" cy="1131" r="6"/><circle cx="2003" cy="1133" r="5"/><circle cx="2126" cy="1178" r="5"/><circle cx="2230" cy="1128" r="5"/><circle cx="2252" cy="1139" r="4"/><circle cx="2385" cy="1182" r="6"/><circle cx="2478" cy="1138" r="6"/><circle cx="2553" cy="1130" r="4"/><circle cx="8" cy="1272" r="5"/><circle cx="145" cy="1261" r="4"/><circle cx="165" cy="1256" r="6"/><circle cx="246" cy="1218" r="5"/><circle cx="360" cy="1217" r="6"/><circle cx="439" cy="1211" r="5"/><circle cx="482" cy="1238" r="6"/><circle cx="571" cy="1259" r="6"/><circle cx="682" cy="1247" r="4"/><circle cx="735" cy="1201" r="5"/><circle cx="807" cy="1263" r="4"/><circle cx="888" cy="1237" r="6"/><circle cx="1027" cy="1273" r="4"/><circle cx="1086" cy="1208" r="5"/><circle cx="1179" cy="1264" r="5"/><circle cx="1256" cy="1201" r="6"/><circle cx="1314" cy="1206" r="5"/><circle cx="1389" cy="1261" r="4"/><circle cx="1475" cy="1201" r="4"/><circle cx="1580" cy="1264" r="4"/><circle cx="1608" cy="1254" r="5"/><circle cx="1680" cy="1240" r="5"/><circle cx="1792" cy="1223" r="4"/><circle cx="1878" cy="1226" r="6"/><circle cx="1924" cy="1224" r="4"/><circle cx="2009" cy="1265" r="5"/><circle cx="2137" cy="1264" r="6"/><circle cx="2196" cy="1200" r="6"/><circle cx="2262" cy="1226" r="6"/><circle cx="2370" cy="1278" r="6"/><circle cx="2463" cy="1271" r="4"/><circle cx="2485" cy="1270" r="4"/><circle cx="46" cy="1298" r="5"/><circle cx="147" cy="1281" r="6"/><circle cx="231" cy="1321" r="6"/><circle cx="292" cy="1325" r="4"/><circle cx="384" cy="1306" r="5"/><circle cx="476" cy="1304" r="5"/><circle cx="538" cy="1313" r="5"/><circle cx="613" cy="1286" r="5"/><circle cx="663" cy="1346" r="4"/><circle cx="747" cy="1301" r="5"/><circle cx="858" cy="1337" r="5"/><circle cx="935" cy="1352" r="4"/><circle cx="1040" cy="1349" r="5"/><circle cx="1101" cy="1334" r="5"/><circle cx="1123" cy="1287" r="5"/><circle cx="1268" cy="1336" r="4"/><circle cx="1342" cy="1288" r="5"/><circle cx="1410" cy="1284" r="4"/><circle cx="1517" cy="1331" r="6"/><circle cx="1551" cy="1318" r="6"/><circle cx="1661" cy="1292" r="6"/><circle cx="1743" cy="1342" r="6"/><circle cx="1808" cy="1312" r="4"/><circle cx="1888" cy="1303" r="4"/><circle cx="1961" cy="1304" r="5"/><circle cx="2014" cy="1313" r="5"/><circle cx="2114" cy="1349" r="4"/><circle cx="2238" cy="1341" r="4"/><circle cx="2241" cy="1350" r="5"/><circle cx="2352" cy="1321" r="5"/><circle cx="2434" cy="1297" r="4"/><circle cx="2542" cy="1294" r="4"/><circle cx="1" cy="1399" r="5"/><circle cx="2561" cy="1399" r="5"/><circle cx="123" cy="1432" r="6"/><circle cx="228" cy="1388" r="4"/><circle cx="318" cy="1367" r="5"/><circle cx="357" cy="1398" r="6"/><circle cx="474" cy="1404" r="5"/><circle cx="536" cy="1389" r="5"/><circle cx="576" cy="1416" r="6"/><circle cx="710" cy="1417" r="5"/><circle cx="760" cy="1374" r="5"/><circle cx="842" cy="1432" r="5"/><circle cx="933" cy="1408" r="4"/><circle cx="975" cy="1369" r="6"/><circle cx="1066" cy="1421" r="5"/><circle cx="1188" cy="1413" r="5"/><circle cx="1217" cy="1366" r="5"/><circle cx="1299" cy="1365" r="5"/><circle cx="1403" cy="1426" r="5"/><circle cx="1446" cy="1362" r="5"/><circle cx="1584" cy="1404" r="5"/><circle cx="1643" cy="1361" r="6"/><circle cx="1753" cy="1368" r="6"/><circle cx="1792" cy="1399" r="5"/><circle cx="1852" cy="1434" r="6"/><circle cx="1978" cy="1385" r="6"/><circle cx="2031" cy="1367" r="5"/><circle cx="2101" cy="1365" r="5"/><circle cx="2173" cy="1375" r="4"/><circle cx="2302" cy="1372" r="5"/><circle cx="2321" cy="1409" r="5"/><circle cx="2463" cy="1429" r="4"/><circle cx="2493" cy="1410" r="5"/><path stroke="#fff" d="M80 3L130 27M80 3L1 -41M80 3L123 -8M80 1443L1 1399M80 1443L123 1432M130 27L216 2M130 27L123 -8M130 1467L123 1432M216 2L298 15M216 2L282 93M216 2L123 -8M216 2L228 -52M216 1442L123 1432M216 1442L228 1388M298 15L344 3M298 15L282 93M298 15L318 -73M298 15L357 -42M298 1455L318 1367M298 1455L357 1398M344 3L282 93M344 3L318 -73M344 3L357 -42M344 1443L318 1367M344 1443L357 1398M463 72L556 26M463 72L398 101M463 72L420 124M463 72L497 125M463 72L474 -36M463 1512L474 1404M556 26L630 22M556 26L474 -36M556 26L536 -51M556 26L576 -24M556 1466L474 1404M556 1466L536 1389M556 1466L576 1416M630 22L705 42M630 22L682 95M630 22L576 -24M630 22L710 -23M630 1462L576 1416M630 1462L710 1417M705 42L769 41M705 42L682 95M705 42L710 -23M705 1482L710 1417M769 41L831 36M769 41L786 126M769 41L710 -23M769 41L842 -8M769 1481L710 1417M769 1481L842 1432M831 36L897 77M831 36L786 126M831 36L869 90M831 36L842 -8M831 1476L842 1432M897 77L869 90M897 77L948 147M897 77L842 -8M897 77L933 -32M897 1517L842 1432M897 1517L933 1408M1028 36L1105 57M1028 36L1065 84M1028 36L975 -71M1028 36L1066 -19M1028 1476L975 1369M1028 1476L1066 1421M1105 57L1143 41M1105 57L1065 84M1105 57L1066 -19M1105 1497L1066 1421M1143 41L1210 50M1143 41L1065 84M1143 41L1185 104M1143 41L1188 -27M1143 1481L1188 1413M1210 50L1294 54M1210 50L1185 104M1210 50L1264 95M1210 50L1188 -27M1210 1490L1188 1413M1294 54L1264 95M1294 54L1381 88M1416 61L1511 72M1416 61L1381 88M1416 61L1516 81M1416 61L1468 178M1416 61L1403 -14M1416 1501L1403 1426M1511 72L1576 55M1511 72L1516 81M1511 72L1539 119M1576 55L1617 34M1576 55L1516 81M1576 55L1539 119M1576 55L1635 81M1617 34L1516 81M1617 34L1635 81M1617 34L1584 -36M1617 1474L1584 1404M1759 41L1810 44M1759 41L1744 87M1759 41L1803 130M1759 41L1792 -41M1759 41L1852 -6M1759 1481L1792 1399M1759 1481L1852 1434M1810 44L1876 11M1810 44L1744 87M1810 44L1803 130M1810 44L1852 -6M1810 1484L1852 1434M1876 11L1943 16M1876 11L1852 -6M1876 1451L1852 1434M1943 16L2009 3M1943 16L1974 81M1943 16L1852 -6M1943 16L1978 -55M1943 1456L1852 1434M1943 1456L1978 1385M2009 3L1974 81M2009 3L2001 116M2009 3L1978 -55M2009 3L2031 -73M2009 1443L1978 1385M2009 1443L2031 1367M2117 76L2215 30M2117 76L2083 115M2117 76L2218 114M2215 30L2290 73M2215 30L2218 114M2215 30L2173 -65M2215 1470L2173 1375M2290 73L2326 64M2290 73L2218 114M2290 73L2304 159M2290 73L2294 172M2326 64L2422 16M2326 64L2304 159M2326 64L2357 158M2326 64L2321 -31M2326 1504L2321 1409M2422 16L2481 24M2422 16L2321 -31M2422 16L2463 -11M2422 16L2493 -30M2422 1456L2321 1409M2422 1456L2463 1429M2422 1456L2493 1410M2481 24L2510 107M2481 24L2561 -41M2481 24L2463 -11M2481 24L2493 -30M-79 24L1 -41M-79 1464L1 1399M2481 1464L2561 1399M2481 1464L2463 1429M2481 1464L2493 1410M53 159L152 155M53 159L21 196M53 159L-15 189M2613 159L2545 189M152 155L167 150M152 155L134 232M152 155L177 235M152 155L101 249M167 150L134 232M167 150L177 235M167 150L248 210M282 93L398 101M282 93L248 210M398 101L420 124M398 101L497 125M398 101L441 180M420 124L497 125M420 124L379 216M420 124L441 180M497 125L441 180M497 125L553 190M598 138L682 95M598 138L553 190M598 138L601 168M598 138L688 201M682 95L601 168M682 95L688 201M786 126L869 90M869 90L948 147M869 90L842 -8M869 1530L842 1432M948 147L1008 141M948 147L934 213M948 147L1011 161M1008 141L1065 84M1008 141L934 213M1008 141L1011 161M1008 141L1042 203M1065 84L1011 161M1185 104L1264 95M1185 104L1170 181M1330 154L1381 88M1330 154L1256 197M1330 154L1353 188M1330 154L1367 173M1381 88L1367 173M1516 81L1539 119M1539 119L1468 178M1539 119L1551 170M1635 81L1744 87M1635 81L1632 166M1744 87L1803 130M1803 130L1886 138M1803 130L1822 224M1886 138L1974 81M1886 138L1892 194M1974 81L2001 116M1974 81L2083 115M2001 116L2083 115M2001 116L1985 227M2083 115L2075 177M2218 114L2304 159M2218 114L2294 172M2304 159L2357 158M2304 159L2294 172M2357 158L2294 172M2357 158L2400 202M2467 134L2510 107M2467 134L2400 202M2467 134L2453 197M2467 134L2545 189M2510 107L2545 189M21 196L-15 189M21 196L67 284M21 196L101 249M21 196L-3 298M2581 196L2545 189M2581 196L2557 298M134 232L177 235M134 232L67 284M134 232L101 249M177 235L248 210M177 235L101 249M248 210L233 315M248 210L252 293M379 216L441 180M379 216L430 275M441 180L430 275M553 190L601 168M553 190L530 284M601 168L688 201M688 201L634 286M688 201L720 296M799 229L859 228M799 229L773 288M799 229L821 316M799 229L892 244M859 228L934 213M859 228L773 288M859 228L821 316M859 228L892 244M934 213L1011 161M934 213L892 244M1011 161L1042 203M1042 203L1170 181M1042 203L1093 300M1170 181L1256 197M1170 181L1170 244M1256 197L1353 188M1256 197L1170 244M1256 197L1306 253M1353 188L1367 173M1353 188L1306 253M1353 188L1405 249M1367 173L1306 253M1367 173L1405 249M1468 178L1551 170M1468 178L1405 249M1551 170L1632 166M1632 166L1584 266M1632 166L1627 246M1632 166L1721 240M1742 232L1822 224M1742 232L1627 246M1742 232L1721 240M1742 232L1771 294M1822 224L1892 194M1822 224L1771 294M1822 224L1867 266M1892 194L1985 227M1892 194L1867 266M1985 227L2075 177M1985 227L1999 241M2075 177L2110 214M2075 177L1999 241M2110 214L2171 224M2110 214L2077 314M2110 214L2121 277M2110 214L2188 285M2171 224L2121 277M2171 224L2188 285M2171 224L2241 297M2400 202L2453 197M2400 202L2386 272M2400 202L2433 289M2453 197L2545 189M2453 197L2386 272M2453 197L2433 289M67 284L101 249M67 284L-3 298M67 284L46 363M2627 284L2557 298M233 315L252 293M233 315L334 311M233 315L191 323M233 315L251 350M252 293L334 311M252 293L191 323M252 293L251 350M334 311L430 275M334 311L251 350M334 311L390 353M430 275L530 284M430 275L390 353M530 284L634 286M634 286L720 296M634 286L673 355M720 296L773 288M720 296L673 355M720 296L730 377M773 288L821 316M773 288L730 377M821 316L832 398M821 316L836 401M892 244L959 321M1011 314L1093 300M1011 314L959 321M1011 314L1035 346M1011 314L1045 365M1011 314L1027 428M1093 300L1170 244M1093 300L1035 346M1093 300L1045 365M1170 244L1199 330M1276 310L1306 253M1276 310L1199 330M1276 310L1257 373M1276 310L1300 388M1306 253L1405 249M1405 249L1508 291M1508 291L1584 266M1508 291L1437 351M1508 291L1477 370M1508 291L1524 324M1584 266L1627 246M1584 266L1524 324M1584 266L1610 366M1627 246L1721 240M1721 240L1771 294M1771 294L1704 359M1999 241L2077 314M1999 241L2062 324M2077 314L2121 277M2077 314L2062 324M2077 314L2088 396M2121 277L2188 285M2121 277L2062 324M2188 285L2241 297M2188 285L2166 380M2241 297L2307 333M2386 272L2433 289M2386 272L2307 333M2433 289L2388 389M2433 289L2421 377M2557 298L2606 363M2557 298L2539 373M-3 298L46 363M46 363L89 377M46 363L-21 373M46 363L38 433M2606 363L2539 373M89 377L38 433M89 377L151 424M89 377L171 468M191 323L251 350M191 323L151 424M251 350L287 435M390 353L466 383M390 353L445 419M466 383L534 397M466 383L392 478M466 383L445 419M466 383L559 455M534 397L616 394M534 397L445 419M534 397L559 455M616 394L673 355M616 394L559 455M616 394L620 473M673 355L730 377M673 355L708 457M730 377L708 457M730 377L784 422M832 398L784 422M832 398L836 401M832 398L950 424M959 321L1035 346M959 321L950 424M1035 346L1045 365M1035 346L1027 428M1045 365L1027 428M1045 365L1109 422M1199 330L1257 373M1257 373L1300 388M1257 373L1204 464M1257 373L1322 417M1300 388L1322 417M1300 388L1312 491M1437 351L1477 370M1437 351L1524 324M1437 351L1432 436M1437 351L1458 444M1477 370L1524 324M1477 370L1432 436M1477 370L1458 444M1524 324L1610 366M1610 366L1704 359M1610 366L1575 463M1610 366L1610 400M1704 359L1610 400M1704 359L1689 478M1832 381L1853 390M1832 381L1927 397M1832 381L1779 449M1832 381L1864 406M1832 381L1811 484M1853 390L1927 397M1853 390L1864 406M1927 397L1864 406M1927 397L1938 478M2062 324L2088 396M2088 396L2166 380M2088 396L2080 422M2088 396L2143 439M2166 380L2080 422M2166 380L2143 439M2307 333L2388 389M2388 389L2421 377M2388 389L2390 464M2388 389L2462 420M2421 377L2462 420M2539 373L2598 433M2539 373L2462 420M2539 373L2490 473M-21 373L38 433M38 433L151 424M151 424L171 468M151 424L145 534M171 468L287 435M171 468L145 534M171 468L220 556M287 435L392 478M287 435L282 542M287 435L335 496M392 478L445 419M392 478L335 496M392 478L405 543M559 455L620 473M559 455L635 536M620 473L708 457M620 473L635 536M620 473L670 521M708 457L784 422M708 457L670 521M784 422L836 401M950 424L1027 428M950 424L925 506M1027 428L1109 422M1109 422L1164 473M1109 422L1204 464M1164 473L1204 464M1164 473L1088 540M1164 473L1148 541M1164 473L1220 517M1204 464L1220 517M1322 417L1312 491M1322 417L1361 519M1432 436L1458 444M1432 436L1361 519M1432 436L1475 491M1458 444L1475 491M1575 463L1610 400M1575 463L1573 516M1575 463L1656 510M1689 478L1779 449M1689 478L1656 510M1689 478L1754 501M1689 478L1663 561M1779 449L1864 406M1779 449L1754 501M1779 449L1811 484M1864 406L1811 484M1938 478L1879 558M1938 478L1950 506M1938 478L1987 571M2080 422L2143 439M2080 422L2056 515M2080 422L2123 484M2143 439L2219 473M2143 439L2123 484M2219 473L2290 457M2219 473L2123 484M2219 473L2167 527M2219 473L2301 533M2290 457L2301 533M2290 457L2362 502M2390 464L2462 420M2390 464L2490 473M2390 464L2362 502M2390 464L2417 543M2462 420L2490 473M2490 473L2417 543M2490 473L2510 545M57 554L145 534M57 554L8 617M57 554L105 593M145 534L220 556M145 534L105 593M220 556L282 542M220 556L237 629M220 556L220 660M282 542L335 496M282 542L237 629M282 542L318 631M335 496L405 543M405 543L499 541M405 543L368 636M405 543L465 623M499 541L465 623M499 541L521 603M499 541L562 575M635 536L670 521M635 536L562 575M635 536L660 578M670 521L774 559M670 521L660 578M774 559L873 559M774 559L660 578M774 559L787 578M774 559L851 615M873 559L925 506M873 559L787 578M873 559L851 615M873 559L946 585M925 506L982 556M925 506L946 585M925 506L979 588M982 556L1088 540M982 556L946 585M982 556L979 588M982 556L1057 579M1088 540L1148 541M1088 540L1057 579M1088 540L1152 625M1148 541L1220 517M1148 541L1057 579M1148 541L1152 625M1220 517L1312 491M1220 517L1205 638M1312 491L1361 519M1361 519L1475 491M1361 519L1360 628M1475 491L1573 516M1475 491L1500 569M1573 516L1656 510M1573 516L1500 569M1573 516L1564 582M1656 510L1754 501M1656 510L1663 561M1754 501L1811 484M1754 501L1734 595M1811 484L1879 558M1879 558L1950 506M1879 558L1829 611M1879 558L1913 601M1950 506L1913 601M1950 506L1987 571M1950 506L2030 564M2056 515L2123 484M2056 515L1987 571M2056 515L2030 564M2056 515L2096 593M2123 484L2167 527M2167 527L2096 593M2167 527L2167 622M2301 533L2362 502M2301 533L2304 579M2362 502L2417 543M2362 502L2304 579M2417 543L2510 545M2417 543L2479 607M2510 545L2479 607M8 617L-81 607M8 617L-61 638M8 617L72 663M2568 617L2479 607M2568 617L2499 638M105 593L72 663M105 593L113 682M237 629L318 631M237 629L220 660M318 631L368 636M318 631L297 684M318 631L375 681M368 636L297 684M368 636L375 681M465 623L521 603M521 603L562 575M562 575L660 578M562 575L611 695M660 578L653 657M787 578L851 615M851 615L805 694M851 615L889 680M946 585L979 588M979 588L1057 579M1057 579L1152 625M1152 625L1205 638M1152 625L1181 700M1205 638L1181 700M1205 638L1260 711M1360 628L1410 630M1360 628L1300 710M1360 628L1386 650M1360 628L1450 699M1410 630L1500 569M1410 630L1386 650M1410 630L1450 699M1500 569L1564 582M1500 569L1577 648M1564 582L1663 561M1564 582L1577 648M1564 582L1615 643M1663 561L1734 595M1663 561L1615 643M1734 595L1829 611M1734 595L1708 675M1829 611L1913 601M1829 611L1798 691M1829 611L1860 697M1913 601L1987 571M1913 601L1986 686M1987 571L2030 564M2030 564L2096 593M2096 593L2167 622M2096 593L2147 652M2167 622L2147 652M2167 622L2253 696M2304 579L2364 639M2304 579L2351 683M2364 639L2351 683M2364 639L2468 645M2479 607L2499 638M2479 607L2468 645M2499 638L2468 645M2499 638L2494 716M2499 638L2477 720M72 663L113 682M72 663L7 734M113 682L220 660M113 682L124 768M113 682L167 731M220 660L297 684M220 660L167 731M297 684L375 681M297 684L292 760M375 681L436 707M375 681L355 755M436 707L514 717M436 707L355 755M436 707L476 770M436 707L483 783M514 717L611 695M514 717L476 770M514 717L483 783M611 695L653 657M611 695L587 791M611 695L655 778M653 657L738 718M653 657L753 721M738 718L805 694M738 718L753 721M738 718L838 724M805 694L889 680M805 694L753 721M805 694L838 724M889 680L965 710M889 680L838 724M889 680L924 742M965 710L1051 702M965 710L924 742M965 710L1016 772M965 710L965 823M1051 702L1016 772M1051 702L1079 754M1181 700L1260 711M1181 700L1180 764M1260 711L1300 710M1260 711L1235 789M1260 711L1292 791M1300 710L1386 650M1300 710L1292 791M1386 650L1450 699M1450 699L1411 791M1450 699L1454 790M1577 648L1615 643M1615 643L1708 675M1615 643L1711 731M1708 675L1798 691M1708 675L1711 731M1798 691L1860 697M1798 691L1711 731M1798 691L1785 791M1860 697L1893 737M1986 686L2053 717M1986 686L1893 737M1986 686L1973 768M1986 686L2024 762M2053 717L2147 652M2053 717L2024 762M2053 717L2126 793M2147 652L2188 711M2147 652L2253 696M2188 711L2253 696M2188 711L2182 791M2188 711L2251 723M2188 711L2179 801M2253 696L2351 683M2253 696L2251 723M2351 683L2251 723M2468 645L2494 716M2468 645L2477 720M2494 716L2567 734M2494 716L2477 720M2494 716L2542 750M-66 716L7 734M7 734L-18 750M7 734L13 818M2567 734L2542 750M124 768L167 731M124 768L137 809M124 768L207 815M167 731L137 809M167 731L207 815M292 760L355 755M292 760L207 815M292 760L267 861M355 755L418 816M476 770L483 783M476 770L418 816M476 770L489 847M483 783L418 816M483 783L489 847M587 791L655 778M587 791L628 874M587 791L683 829M587 791L600 893M655 778L628 874M655 778L683 829M655 778L733 848M753 721L838 724M838 724L924 742M924 742L1016 772M924 742L965 823M1016 772L1079 754M1016 772L965 823M1079 754L1180 764M1180 764L1235 789M1180 764L1152 855M1180 764L1209 812M1235 789L1292 791M1235 789L1209 812M1292 791L1209 812M1292 791L1280 874M1411 791L1454 790M1411 791L1397 830M1411 791L1449 803M1454 790L1544 789M1454 790L1397 830M1454 790L1449 803M1544 789L1634 779M1544 789L1449 803M1544 789L1582 824M1544 789L1545 881M1634 779L1711 731M1634 779L1582 824M1634 779L1613 863M1634 779L1691 859M1711 731L1785 791M1785 791L1807 857M1893 737L1973 768M1893 737L1908 807M1893 737L1953 803M1973 768L2024 762M1973 768L1908 807M1973 768L1953 803M2024 762L1953 803M2024 762L2047 862M2126 793L2182 791M2126 793L2101 874M2126 793L2179 801M2182 791L2251 723M2182 791L2179 801M2182 791L2243 874M2387 793L2357 804M2387 793L2472 806M2387 793L2385 883M2477 720L2542 750M2477 720L2472 806M2542 750L2573 818M2542 750L2472 806M-18 750L13 818M13 818L-88 806M13 818L-52 844M13 818L27 918M2573 818L2472 806M2573 818L2508 844M137 809L207 815M137 809L118 884M207 815L267 861M267 861L341 865M267 861L260 934M267 861L362 902M341 865L418 816M341 865L362 902M341 865L411 929M418 816L489 847M489 847L511 905M628 874L683 829M628 874L600 893M628 874L682 946M683 829L733 848M733 848L763 893M854 872L914 859M854 872L763 893M854 872L858 935M854 872L806 966M914 859L965 823M914 859L957 942M914 859L972 951M1118 873L1152 855M1118 873L1112 900M1118 873L1147 899M1118 873L1077 975M1152 855L1209 812M1152 855L1112 900M1152 855L1147 899M1209 812L1280 874M1280 874L1242 903M1280 874L1292 949M1280 874L1234 963M1397 830L1449 803M1397 830L1394 941M1582 824L1613 863M1582 824L1545 881M1613 863L1691 859M1613 863L1545 881M1613 863L1675 885M1691 859L1675 885M1807 857L1908 807M1807 857L1754 913M1807 857L1785 946M1908 807L1953 803M1908 807L1925 922M2047 862L2101 874M2047 862L2068 934M2047 862L2083 946M2101 874L2179 801M2101 874L2068 934M2101 874L2083 946M2179 801L2243 874M2243 874L2357 804M2243 874L2210 927M2243 874L2268 927M2357 804L2385 883M2357 804L2428 897M2472 806L2508 844M2508 844L2587 918M2508 844L2428 897M2508 844L2542 922M-52 844L27 918M27 918L118 884M27 918L-18 922M27 918L5 1026M2587 918L2542 922M118 884L206 946M118 884L163 962M206 946L260 934M206 946L134 1015M206 946L163 962M206 946L199 1044M260 934L163 962M260 934L320 1004M260 934L329 978M362 902L411 929M362 902L320 1004M362 902L329 978M411 929L511 905M411 929L438 983M511 905L600 893M511 905L438 983M511 905L559 987M600 893L682 946M600 893L559 987M682 946L691 1036M682 946L727 996M763 893L858 935M763 893L727 996M763 893L806 966M858 935L957 942M858 935L806 966M858 935L881 1006M957 942L972 951M957 942L881 1006M957 942L1010 976M972 951L1010 976M972 951L961 1058M1112 900L1147 899M1112 900L1077 975M1112 900L1158 1002M1147 899L1242 903M1147 899L1158 1002M1242 903L1292 949M1242 903L1234 963M1292 949L1394 941M1292 949L1234 963M1292 949L1349 988M1394 941L1349 988M1394 941L1395 1006M1394 941L1466 980M1505 926L1545 881M1505 926L1466 980M1505 926L1537 972M1545 881L1537 972M1675 885L1754 913M1675 885L1648 969M1675 885L1748 965M1754 913L1785 946M1754 913L1748 965M1754 913L1817 980M1785 946L1857 952M1785 946L1748 965M1785 946L1817 980M1857 952L1925 922M1857 952L1817 980M1857 952L1886 1026M1857 952L1958 965M1925 922L1958 965M1925 922L2011 962M2068 934L2083 946M2068 934L2011 962M2068 934L2082 994M2083 946L2011 962M2083 946L2082 994M2210 927L2268 927M2210 927L2269 1014M2268 927L2234 1027M2268 927L2269 1014M2385 883L2428 897M2385 883L2390 965M2428 897L2390 965M2428 897L2440 994M2542 922L2565 1026M2542 922L2543 1036M-18 922L5 1026M5 1026L-17 1036M5 1026L-46 1058M5 1026L-7 1130M2565 1026L2543 1036M2565 1026L2514 1058M2565 1026L2553 1130M134 1015L163 962M134 1015L135 1078M134 1015L199 1044M134 1015L112 1133M163 962L199 1044M320 1004L329 978M320 1004L303 1066M320 1004L387 1049M329 978L303 1066M329 978L387 1049M438 983L387 1049M559 987L593 1012M559 987L503 1084M593 1012L691 1036M593 1012L585 1086M593 1012L663 1070M691 1036L727 996M691 1036L663 1070M691 1036L651 1128M727 996L806 966M727 996L663 1070M806 966L881 1006M881 1006L871 1073M881 1006L951 1067M1010 976L1077 975M1010 976L951 1067M1010 976L961 1058M1077 975L1158 1002M1077 975L1067 1056M1158 1002L1234 963M1158 1002L1160 1066M1234 963L1160 1066M1349 988L1395 1006M1395 1006L1466 980M1395 1006L1416 1094M1466 980L1537 972M1466 980L1502 1067M1537 972L1502 1067M1537 972L1533 1078M1648 969L1748 965M1648 969L1726 1075M1748 965L1817 980M1817 980L1886 1026M1886 1026L1958 965M1886 1026L1840 1089M1958 965L2011 962M2011 962L2082 994M2082 994L2109 1052M2234 1027L2269 1014M2234 1027L2262 1060M2269 1014L2262 1060M2390 965L2440 994M2390 965L2374 1066M2440 994L2374 1066M2440 994L2425 1065M2543 1036L2514 1058M71 1115L135 1078M71 1115L45 1157M71 1115L112 1133M71 1115L-7 1130M2631 1115L2553 1130M135 1078L199 1044M135 1078L112 1133M199 1044L303 1066M303 1066L387 1049M303 1066L309 1150M387 1049L464 1085M464 1085L503 1084M464 1085L445 1143M464 1085L486 1156M503 1084L585 1086M503 1084L445 1143M503 1084L486 1156M585 1086L663 1070M585 1086L598 1185M585 1086L651 1128M663 1070L651 1128M791 1106L871 1073M791 1106L800 1142M791 1106L844 1153M791 1106L885 1125M791 1106L735 1201M871 1073L951 1067M871 1073L844 1153M871 1073L885 1125M951 1067L961 1058M951 1067L885 1125M961 1058L1019 1165M1067 1056L1160 1066M1067 1056L1019 1165M1067 1056L1048 1139M1160 1066L1223 1102M1160 1066L1154 1126M1223 1102L1311 1119M1223 1102L1154 1126M1223 1102L1282 1133M1311 1119L1274 1190M1311 1119L1282 1133M1311 1119L1256 1201M1311 1119L1314 1206M1416 1094L1502 1067M1416 1094L1533 1078M1416 1094L1415 1170M1416 1094L1455 1177M1502 1067L1533 1078M1502 1067L1455 1177M1533 1078L1610 1145M1649 1112L1726 1075M1649 1112L1761 1079M1649 1112L1610 1145M1649 1112L1698 1192M1726 1075L1761 1079M1761 1079L1840 1089M1761 1079L1787 1178M1840 1089L1787 1178M1840 1089L1904 1128M1956 1114L2047 1114M1956 1114L1904 1128M1956 1114L1978 1131M1956 1114L2003 1133M2047 1114L2109 1052M2047 1114L1978 1131M2047 1114L2003 1133M2047 1114L2126 1178M2109 1052L2180 1111M2109 1052L2003 1133M2180 1111L2126 1178M2180 1111L2230 1128M2180 1111L2252 1139M2180 1111L2196 1200M2262 1060L2374 1066M2262 1060L2230 1128M2262 1060L2252 1139M2374 1066L2425 1065M2374 1066L2385 1182M2425 1065L2514 1058M2425 1065L2385 1182M2425 1065L2478 1138M2514 1058L2478 1138M2514 1058L2553 1130M45 1157L112 1133M45 1157L-82 1138M45 1157L-7 1130M45 1157L8 1272M2605 1157L2478 1138M2605 1157L2553 1130M112 1133L186 1191M186 1191L145 1261M186 1191L165 1256M186 1191L246 1218M186 1191L147 1281M309 1150L390 1149M309 1150L246 1218M309 1150L360 1217M390 1149L445 1143M390 1149L360 1217M390 1149L439 1211M445 1143L486 1156M445 1143L439 1211M486 1156L439 1211M486 1156L482 1238M598 1185L651 1128M598 1185L571 1259M598 1185L682 1247M598 1185L613 1286M800 1142L844 1153M800 1142L885 1125M800 1142L735 1201M800 1142L888 1237M844 1153L885 1125M844 1153L888 1237M1019 1165L1048 1139M1019 1165L1027 1273M1019 1165L1086 1208M1048 1139L1154 1126M1048 1139L1086 1208M1274 1190L1282 1133M1274 1190L1256 1201M1274 1190L1314 1206M1282 1133L1256 1201M1282 1133L1314 1206M1415 1170L1455 1177M1415 1170L1389 1261M1415 1170L1475 1201M1455 1177L1389 1261M1455 1177L1475 1201M1579 1197L1610 1145M1579 1197L1475 1201M1579 1197L1580 1264M1579 1197L1608 1254M1610 1145L1698 1192M1698 1192L1787 1178M1698 1192L1680 1240M1787 1178L1792 1223M1787 1178L1878 1226M1904 1128L1978 1131M1904 1128L2003 1133M1904 1128L1878 1226M1978 1131L2003 1133M1978 1131L1924 1224M2126 1178L2137 1264M2126 1178L2196 1200M2230 1128L2252 1139M2230 1128L2196 1200M2230 1128L2262 1226M2252 1139L2262 1226M2385 1182L2478 1138M2385 1182L2262 1226M2385 1182L2370 1278M2478 1138L2553 1130M8 1272L-97 1271M8 1272L-75 1270M8 1272L46 1298M8 1272L-18 1294M2568 1272L2463 1271M2568 1272L2485 1270M2568 1272L2542 1294M145 1261L165 1256M145 1261L46 1298M145 1261L147 1281M165 1256L246 1218M165 1256L147 1281M165 1256L231 1321M360 1217L439 1211M360 1217L384 1306M439 1211L482 1238M482 1238L571 1259M482 1238L476 1304M482 1238L538 1313M571 1259L476 1304M571 1259L538 1313M571 1259L613 1286M682 1247L735 1201M682 1247L613 1286M682 1247L747 1301M735 1201L807 1263M735 1201L747 1301M807 1263L888 1237M807 1263L747 1301M807 1263L858 1337M888 1237L858 1337M888 1237L935 1352M1027 1273L1086 1208M1027 1273L1040 1349M1027 1273L1101 1334M1027 1273L1123 1287M1086 1208L1179 1264M1086 1208L1123 1287M1179 1264L1256 1201M1179 1264L1101 1334M1179 1264L1123 1287M1179 1264L1217 1366M1256 1201L1314 1206M1314 1206L1342 1288M1389 1261L1475 1201M1389 1261L1342 1288M1389 1261L1410 1284M1475 1201L1410 1284M1580 1264L1608 1254M1580 1264L1517 1331M1580 1264L1551 1318M1580 1264L1661 1292M1608 1254L1680 1240M1608 1254L1551 1318M1608 1254L1661 1292M1680 1240L1661 1292M1792 1223L1878 1226M1792 1223L1808 1312M1878 1226L1924 1224M1878 1226L1888 1303M1924 1224L2009 1265M1924 1224L1888 1303M2009 1265L1961 1304M2009 1265L2014 1313M2137 1264L2196 1200M2137 1264L2114 1349M2137 1264L2101 1365M2196 1200L2262 1226M2262 1226L2370 1278M2370 1278L2463 1271M2370 1278L2352 1321M2370 1278L2434 1297M2463 1271L2485 1270M2463 1271L2434 1297M2463 1271L2542 1294M2485 1270L2434 1297M2485 1270L2542 1294M46 1298L147 1281M46 1298L-18 1294M46 1298L1 1399M2606 1298L2542 1294M147 1281L231 1321M231 1321L292 1325M231 1321L228 1388M292 1325L384 1306M292 1325L228 1388M292 1325L318 1367M292 1325L357 1398M384 1306L476 1304M384 1306L318 1367M384 1306L357 1398M476 1304L538 1313M476 1304L474 1404M538 1313L613 1286M538 1313L536 1389M613 1286L663 1346M663 1346L747 1301M663 1346L576 1416M663 1346L710 1417M663 1346L760 1374M747 1301L760 1374M858 1337L935 1352M858 1337L760 1374M935 1352L933 1408M935 1352L975 1369M1040 1349L1101 1334M1040 1349L1123 1287M1040 1349L975 1369M1040 1349L1066 1421M1101 1334L1123 1287M1101 1334L1066 1421M1268 1336L1342 1288M1268 1336L1188 1413M1268 1336L1217 1366M1268 1336L1299 1365M1342 1288L1410 1284M1342 1288L1299 1365M1410 1284L1446 1362M1517 1331L1551 1318M1517 1331L1446 1362M1517 1331L1584 1404M1551 1318L1584 1404M1551 1318L1643 1361M1661 1292L1743 1342M1661 1292L1643 1361M1743 1342L1808 1312M1743 1342L1643 1361M1743 1342L1753 1368M1743 1342L1792 1399M1808 1312L1888 1303M1808 1312L1753 1368M1808 1312L1792 1399M1888 1303L1961 1304M1961 1304L2014 1313M1961 1304L1978 1385M2014 1313L1978 1385M2014 1313L2031 1367M2014 1313L2101 1365M2114 1349L2031 1367M2114 1349L2101 1365M2114 1349L2173 1375M2238 1341L2241 1350M2238 1341L2173 1375M2238 1341L2302 1372M2241 1350L2352 1321M2241 1350L2173 1375M2241 1350L2302 1372M2241 1350L2321 1409M2352 1321L2434 1297M2352 1321L2302 1372M2352 1321L2321 1409M1 1399L-97 1429M1 1399L-67 1410M2561 1399L2463 1429M2561 1399L2493 1410M123 1432L228 1388M318 1367L357 1398M474 1404L536 1389M474 1404L576 1416M536 1389L576 1416M710 1417L760 1374M760 1374L842 1432M933 1408L975 1369M975 1369L1066 1421M1188 1413L1217 1366M1188 1413L1299 1365M1217 1366L1299 1365M1299 1365L1403 1426M1403 1426L1446 1362M1584 1404L1643 1361M1643 1361L1753 1368M1753 1368L1792 1399M1792 1399L1852 1434M1978 1385L2031 1367M2031 1367L2101 1365M2101 1365L2173 1375M2302 1372L2321 1409M2463 1429L2493 1410"/></svg>