<svg xmlns="http://www.w3.org/2000/svg" width="2560" height="1440" fill="#fff"><circle cx="60" cy="55" r="6"/><circle cx="90" cy="37" r="4"/><circle cx="199" cy="35" r="5"/><circle cx="305" cy="4" r="5"/><circle cx="305" cy="1444" r="5"/><circle cx="393" cy="62" r="5"/><circle cx="437" cy="59" r="5"/><circle cx="530" cy="18" r="6"/><circle cx="617" cy="33" r="4"/><circle cx="680" cy="21" r="4"/><circle cx="770" cy="25" r="5"/><circle cx="806" cy="24" r="6"/><circle cx="923" cy="2" r="6"/><circle cx="923" cy="1442" r="6"/><circle cx="1000" cy="27" r="4"/><circle cx="1112" cy="6" r="6"/><circle cx="1134" cy="7" r="5"/><circle cx="1200" cy="32" r="4"/><circle cx="1280" cy="61" r="5"/><circle cx="1368" cy="44" r="6"/><circle cx="1501" cy="41" r="6"/><circle cx="1562" cy="61" r="4"/><circle cx="1629" cy="33" r="5"/><circle cx="1738" cy="49" r="4"/><circle cx="1840" cy="26" r="4"/><circle cx="1879" cy="51" r="5"/><circle cx="1962" cy="68" r="4"/><circle cx="2007" cy="50" r="5"/><circle cx="2136" cy="52" r="5"/><circle cx="2203" cy="45" r="5"/><circle cx="2265" cy="3" r="5"/><circle cx="2265" cy="1443" r="5"/><circle cx="2386" cy="43" r="4"/><circle cx="2469" cy="35" r="4"/><circle cx="2496" cy="21" r="5"/><circle cx="29" cy="156" r="6"/><circle cx="122" cy="155" r="4"/><circle cx="191" cy="100" r="5"/><circle cx="295" cy="133" r="5"/><circle cx="356" cy="95" r="5"/><circle cx="416" cy="135" r="5"/><circle cx="526" cy="112" r="4"/><circle cx="579" cy="85" r="4"/><circle cx="651" cy="130" r="5"/><circle cx="749" cy="87" r="4"/><circle cx="844" cy="131" r="4"/><circle cx="906" cy="96" r="4"/><circle cx="1038" cy="100" r="4"/><circle cx="1082" cy="135" r="5"/><circle cx="1155" cy="141" r="6"/><circle cx="1250" cy="150" r="5"/><circle cx="1331" cy="147" r="4"/><circle cx="1394" cy="104" r="6"/><circle cx="1482" cy="141" r="6"/><circle cx="1559" cy="144" r="5"/><circle cx="1627" cy="87" r="4"/><circle cx="1692" cy="101" r="4"/><circle cx="1811" cy="111" r="4"/><circle cx="1874" cy="155" r="5"/><circle cx="1978" cy="99" r="4"/><circle cx="2037" cy="104" r="4"/><circle cx="2102" cy="108" r="4"/><circle cx="2216" cy="92" r="6"/><circle cx="2252" cy="84" r="5"/><circle cx="2396" cy="139" r="5"/><circle cx="2409" cy="108" r="6"/><circle cx="2493" cy="125" r="4"/><circle cx="12" cy="190" r="5"/><circle cx="138" cy="236" r="6"/><circle cx="240" cy="178" r="4"/><circle cx="256" cy="175" r="6"/><circle cx="394" cy="207" r="5"/><circle cx="416" cy="237" r="5"/><circle cx="496" cy="165" r="5"/><circle cx="591" cy="165" r="6"/><circle cx="677" cy="170" r="6"/><circle cx="731" cy="209" r="4"/><circle cx="868" cy="160" r="5"/><circle cx="957" cy="170" r="5"/><circle cx="982" cy="181" r="4"/><circle cx="1077" cy="233" r="5"/><circle cx="1192" cy="178" r="5"/><circle cx="1275" cy="225" r="5"/><circle cx="1284" cy="192" r="4"/><circle cx="1397" cy="197" r="6"/><circle cx="1447" cy="189" r="5"/><circle cx="1595" cy="222" r="4"/><circle cx="1629" cy="230" r="5"/><circle cx="1737" cy="200" r="5"/><circle cx="1818" cy="206" r="5"/><circle cx="1890" cy="214" r="5"/><circle cx="1972" cy="219" r="6"/><circle cx="2062" cy="222" r="4"/><circle cx="2099" cy="226" r="5"/><circle cx="2204" cy="225" r="4"/><circle cx="2263" cy="231" r="5"/><circle cx="2367" cy="198" r="4"/><circle cx="2413" cy="227" r="5"/><circle cx="2526" cy="229" r="5"/><circle cx="46" cy="276" r="6"/><circle cx="93" cy="261" r="6"/><circle cx="176" cy="268" r="4"/><circle cx="281" cy="248" r="6"/><circle cx="381" cy="252" r="6"/><circle cx="413" cy="291" r="5"/><circle cx="508" cy="283" r="5"/><circle cx="590" cy="280" r="5"/><circle cx="685" cy="318" r="5"/><circle cx="758" cy="268" r="4"/><circle cx="842" cy="302" r="5"/><circle cx="906" cy="279" r="5"/><circle cx="960" cy="271" r="6"/><circle cx="1111" cy="271" r="6"/><circle cx="1169" cy="241" r="4"/><circle cx="1235" cy="276" r="4"/><circle cx="1350" cy="272" r="6"/><circle cx="1385" cy="254" r="5"/><circle cx="1501" cy="250" r="5"/><circle cx="1527" cy="288" r="5"/><circle cx="1660" cy="295" r="5"/><circle cx="1758" cy="256" r="6"/><circle cx="1835" cy="276" r="6"/><circle cx="1852" cy="269" r="5"/><circle cx="1958" cy="247" r="4"/><circle cx="2016" cy="281" r="5"/><circle cx="2093" cy="265" r="5"/><circle cx="2169" cy="258" r="4"/><circle cx="2287" cy="306" r="5"/><circle cx="2378" cy="246" r="5"/><circle cx="2434" cy="277" r="6"/><circle cx="2552" cy="247" r="5"/><circle cx="7" cy="336" r="4"/><circle cx="158" cy="329" r="5"/><circle cx="178" cy="326" r="5"/><circle cx="304" cy="322" r="5"/><circle cx="321" cy="362" r="5"/><circle cx="456" cy="329" r="5"/><circle cx="525" cy="378" r="4"/><circle cx="574" cy="386" r="5"/><circle cx="655" cy="335" r="6"/><circle cx="778" cy="358" r="5"/><circle cx="804" cy="394" r="5"/><circle cx="893" cy="341" r="4"/><circle cx="1006" cy="368" r="5"/><circle cx="1085" cy="363" r="5"/><circle cx="1190" cy="360" r="5"/><circle cx="1211" cy="374" r="4"/><circle cx="1352" cy="324" r="4"/><circle cx="1374" cy="374" r="4"/><circle cx="1481" cy="399" r="5"/><circle cx="1536" cy="374" r="4"/><circle cx="1677" cy="376" r="5"/><circle cx="1746" cy="388" r="4"/><circle cx="1787" cy="369" r="6"/><circle cx="1919" cy="350" r="5"/><circle cx="1971" cy="349" r="6"/><circle cx="2002" cy="323" r="5"/><circle cx="2081" cy="329" r="4"/><circle cx="2180" cy="325" r="5"/><circle cx="2250" cy="363" r="6"/><circle cx="2331" cy="350" r="5"/><circle cx="2422" cy="391" r="5"/><circle cx="2533" cy="381" r="5"/><circle cx="3" cy="462" r="5"/><circle cx="2563" cy="462" r="5"/><circle cx="82" cy="416" r="4"/><circle cx="182" cy="439" r="6"/><circle cx="300" cy="411" r="5"/><circle cx="355" cy="438" r="5"/><circle cx="475" cy="416" r="5"/><circle cx="504" cy="464" r="5"/><circle cx="605" cy="460" r="6"/><circle cx="666" cy="404" r="5"/><circle cx="725" cy="449" r="5"/><circle cx="857" cy="407" r="5"/><circle cx="898" cy="431" r="4"/><circle cx="1033" cy="469" r="4"/><circle cx="1081" cy="471" r="4"/><circle cx="1197" cy="425" r="4"/><circle cx="1230" cy="450" r="5"/><circle cx="1358" cy="476" r="6"/><circle cx="1403" cy="438" r="4"/><circle cx="1464" cy="442" r="5"/><circle cx="1539" cy="420" r="4"/><circle cx="1638" cy="427" r="5"/><circle cx="1713" cy="438" r="5"/><circle cx="1807" cy="432" r="6"/><circle cx="1888" cy="479" r="6"/><circle cx="1964" cy="448" r="5"/><circle cx="2063" cy="479" r="5"/><circle cx="2145" cy="400" r="4"/><circle cx="2183" cy="412" r="6"/><circle cx="2260" cy="425" r="5"/><circle cx="2321" cy="471" r="6"/><circle cx="2475" cy="428" r="5"/><circle cx="2499" cy="453" r="5"/><circle cx="64" cy="553" r="6"/><circle cx="91" cy="526" r="4"/><circle cx="208" cy="494" r="5"/><circle cx="289" cy="501" r="6"/><circle cx="373" cy="482" r="6"/><circle cx="473" cy="504" r="5"/><circle cx="485" cy="556" r="4"/><circle cx="602" cy="486" r="6"/><circle cx="676" cy="485" r="4"/><circle cx="727" cy="518" r="4"/><circle cx="838" cy="520" r="5"/><circle cx="904" cy="536" r="5"/><circle cx="966" cy="557" r="5"/><circle cx="1042" cy="555" r="6"/><circle cx="1153" cy="490" r="5"/><circle cx="1236" cy="517" r="5"/><circle cx="1280" cy="488" r="4"/><circle cx="1366" cy="527" r="5"/><circle cx="1491" cy="521" r="6"/><circle cx="1599" cy="528" r="6"/><circle cx="1640" cy="555" r="4"/><circle cx="1756" cy="528" r="6"/><circle cx="1761" cy="511" r="4"/><circle cx="1853" cy="515" r="5"/><circle cx="1995" cy="517" r="5"/><circle cx="2003" cy="493" r="4"/><circle cx="2156" cy="500" r="5"/><circle cx="2185" cy="513" r="4"/><circle cx="2313" cy="540" r="5"/><circle cx="2323" cy="536" r="5"/><circle cx="2431" cy="540" r="5"/><circle cx="2514" cy="495" r="6"/><circle cx="63" cy="621" r="4"/><circle cx="105" cy="635" r="4"/><circle cx="195" cy="565" r="4"/><circle cx="299" cy="627" r="6"/><circle cx="361" cy="573" r="5"/><circle cx="405" cy="580" r="6"/><circle cx="532" cy="610" r="5"/><circle cx="587" cy="623" r="5"/><circle cx="670" cy="619" r="6"/><circle cx="773" cy="574" r="5"/><circle cx="875" cy="583" r="5"/><circle cx="934" cy="581" r="4"/><circle cx="1024" cy="626" r="6"/><circle cx="1106" cy="583" r="5"/><circle cx="1150" cy="577" r="5"/><circle cx="1278" cy="631" r="4"/><circle cx="1297" cy="574" r="6"/><circle cx="1398" cy="563" r="4"/><circle cx="1492" cy="607" r="5"/><circle cx="1554" cy="572" r="4"/><circle cx="1676" cy="607" r="4"/><circle cx="1708" cy="561" r="4"/><circle cx="1828" cy="639" r="6"/><circle cx="1861" cy="581" r="6"/><circle cx="1940" cy="624" r="4"/><circle cx="2024" cy="631" r="5"/><circle cx="2089" cy="569" r="5"/><circle cx="2195" cy="575" r="5"/><circle cx="2281" cy="633" r="6"/><circle cx="2368" cy="563" r="5"/><circle cx="2432" cy="573" r="5"/><circle cx="2502" cy="612" r="4"/><circle cx="58" cy="648" r="5"/><circle cx="142" cy="688" r="5"/><circle cx="231" cy="698" r="5"/><circle cx="261" cy="694" r="4"/><circle cx="382" cy="651" r="5"/><circle cx="462" cy="692" r="6"/><circle cx="522" cy="710" r="5"/><circle cx="609" cy="663" r="5"/><circle cx="665" cy="691" r="5"/><circle cx="763" cy="689" r="5"/><circle cx="836" cy="642" r="5"/><circle cx="960" cy="704" r="5"/><circle cx="975" cy="707" r="5"/><circle cx="1116" cy="662" r="4"/><circle cx="1178" cy="652" r="4"/><circle cx="1238" cy="696" r="6"/><circle cx="1306" cy="645" r="6"/><circle cx="1408" cy="696" r="5"/><circle cx="1501" cy="709" r="5"/><circle cx="1570" cy="674" r="6"/><circle cx="1621" cy="648" r="4"/><circle cx="1756" cy="677" r="5"/><circle cx="1784" cy="714" r="5"/><circle cx="1862" cy="645" r="4"/><circle cx="1975" cy="667" r="5"/><circle cx="2058" cy="640" r="4"/><circle cx="2113" cy="653" r="5"/><circle cx="2177" cy="720" r="6"/><circle cx="2317" cy="648" r="6"/><circle cx="2330" cy="684" r="5"/><circle cx="2468" cy="669" r="4"/><circle cx="2510" cy="700" r="4"/><circle cx="40" cy="789" r="4"/><circle cx="141" cy="761" r="5"/><circle cx="214" cy="734" r="5"/><circle cx="280" cy="763" r="5"/><circle cx="321" cy="781" r="5"/><circle cx="459" cy="724" r="4"/><circle cx="524" cy="765" r="6"/><circle cx="615" cy="793" r="5"/><circle cx="651" cy="769" r="5"/><circle cx="750" cy="771" r="6"/><circle cx="809" cy="799" r="5"/><circle cx="947" cy="790" r="4"/><circle cx="964" cy="733" r="6"/><circle cx="1079" cy="784" r="5"/><circle cx="1153" cy="798" r="4"/><circle cx="1231" cy="790" r="5"/><circle cx="1335" cy="727" r="5"/><circle cx="1391" cy="755" r="5"/><circle cx="1465" cy="721" r="5"/><circle cx="1530" cy="725" r="6"/><circle cx="1644" cy="789" r="5"/><circle cx="1688" cy="737" r="5"/><circle cx="1811" cy="767" r="5"/><circle cx="1858" cy="795" r="6"/><circle cx="1973" cy="763" r="6"/><circle cx="2028" cy="751" r="4"/><circle cx="2152" cy="728" r="6"/><circle cx="2166" cy="784" r="5"/><circle cx="2266" cy="754" r="6"/><circle cx="2338" cy="739" r="4"/><circle cx="2435" cy="742" r="5"/><circle cx="2504" cy="787" r="5"/><circle cx="74" cy="801" r="4"/><circle cx="125" cy="858" r="4"/><circle cx="188" cy="806" r="5"/><circle cx="309" cy="829" r="4"/><circle cx="324" cy="863" r="5"/><circle cx="405" cy="821" r="5"/><circle cx="481" cy="827" r="4"/><circle cx="593" cy="830" r="6"/><circle cx="644" cy="836" r="4"/><circle cx="750" cy="813" r="6"/><circle cx="813" cy="833" r="4"/><circle cx="911" cy="839" r="4"/><circle cx="982" cy="867" r="4"/><circle cx="1057" cy="802" r="4"/><circle cx="1123" cy="850" r="5"/><circle cx="1238" cy="806" r="5"/><circle cx="1295" cy="875" r="5"/><circle cx="1408" cy="842" r="5"/><circle cx="1514" cy="843" r="4"/><circle cx="1587" cy="831" r="5"/><circle cx="1659" cy="812" r="5"/><circle cx="1722" cy="853" r="5"/><circle cx="1815" cy="834" r="4"/><circle cx="1861" cy="876" r="4"/><circle cx="1949" cy="840" r="5"/><circle cx="2070" cy="848" r="5"/><circle cx="2100" cy="852" r="6"/><circle cx="2237" cy="869" r="5"/><circle cx="2267" cy="875" r="5"/><circle cx="2363" cy="801" r="6"/><circle cx="2479" cy="849" r="5"/><circle cx="2518" cy="877" r="5"/><circle cx="9" cy="946" r="4"/><circle cx="92" cy="947" r="4"/><circle cx="179" cy="944" r="4"/><circle cx="250" cy="934" r="4"/><circle cx="397" cy="917" r="6"/><circle cx="456" cy="945" r="6"/><circle cx="492" cy="899" r="5"/><circle cx="624" cy="950" r="5"/><circle cx="692" cy="937" r="6"/><circle cx="739" cy="928" r="5"/><circle cx="844" cy="894" r="5"/><circle cx="932" cy="950" r="6"/><circle cx="1034" cy="954" r="5"/><circle cx="1096" cy="943" r="6"/><circle cx="1194" cy="895" r="6"/><circle cx="1248" cy="920" r="5"/><circle cx="1340" cy="937" r="5"/><circle cx="1369" cy="883" r="4"/><circle cx="1495" cy="936" r="5"/><circle cx="1592" cy="919" r="6"/><circle cx="1649" cy="916" r="6"/><circle cx="1742" cy="944" r="5"/><circle cx="1814" cy="952" r="5"/><circle cx="1915" cy="947" r="5"/><circle cx="1995" cy="955" r="5"/><circle cx="2018" cy="916" r="5"/><circle cx="2138" cy="931" r="4"/><circle cx="2184" cy="900" r="6"/><circle cx="2291" cy="944" r="4"/><circle cx="2346" cy="960" r="4"/><circle cx="2472" cy="899" r="4"/><circle cx="2540" cy="935" r="5"/><circle cx="4" cy="1036" r="6"/><circle cx="2564" cy="1036" r="6"/><circle cx="107" cy="992" r="5"/><circle cx="179" cy="993" r="6"/><circle cx="257" cy="1012" r="5"/><circle cx="330" cy="994" r="6"/><circle cx="414" cy="993" r="4"/><circle cx="519" cy="1033" r="5"/><circle cx="577" cy="986" r="5"/><circle cx="661" cy="1027" r="5"/><circle cx="779" cy="965" r="4"/><circle cx="810" cy="1019" r="6"/><circle cx="927" cy="966" r="5"/><circle cx="961" cy="980" r="5"/><circle cx="1118" cy="1009" r="5"/><circle cx="1148" cy="991" r="5"/><circle cx="1237" cy="974" r="5"/><circle cx="1325" cy="1016" r="6"/><circle cx="1437" cy="1040" r="6"/><circle cx="1466" cy="1031" r="5"/><circle cx="1548" cy="964" r="6"/><circle cx="1632" cy="1039" r="5"/><circle cx="1729" cy="1028" r="5"/><circle cx="1821" cy="993" r="5"/><circle cx="1891" cy="973" r="5"/><circle cx="1956" cy="997" r="5"/><circle cx="2005" cy="976" r="5"/><circle cx="2097" cy="985" r="5"/><circle cx="2163" cy="1013" r="5"/><circle cx="2309" cy="965" r="5"/><circle cx="2400" cy="1027" r="4"/><circle cx="2454" cy="973" r="4"/><circle cx="2528" cy="974" r="6"/><circle cx="15" cy="1056" r="5"/><circle cx="86" cy="1065" r="5"/><circle cx="173" cy="1120" r="5"/><circle cx="284" cy="1064" r="5"/><circle cx="323" cy="1049" r="5"/><circle cx="433" cy="1060" r="5"/><circle cx="510" cy="1046" r="4"/><circle cx="567" cy="1051" r="6"/><circle cx="716" cy="1119" r="5"/><circle cx="773" cy="1097" r="5"/><circle cx="840" cy="1092" r="5"/><circle cx="924" cy="1056" r="5"/><circle cx="963" cy="1058" r="6"/><circle cx="1079" cy="1068" r="5"/><circle cx="1124" cy="1103" r="6"/><circle cx="1255" cy="1073" r="5"/><circle cx="1284" cy="1044" r="5"/><circle cx="1377" cy="1084" r="4"/><circle cx="1453" cy="1111" r="5"/><circle cx="1588" cy="1101" r="5"/><circle cx="1677" cy="1049" r="6"/><circle cx="1719" cy="1056" r="6"/><circle cx="1761" cy="1119" r="5"/><circle cx="1846" cy="1076" r="6"/><circle cx="1936" cy="1109" r="6"/><circle cx="2038" cy="1114" r="6"/><circle cx="2128" cy="1065" r="6"/><circle cx="2232" cy="1100" r="5"/><circle cx="2276" cy="1056" r="6"/><circle cx="2344" cy="1075" r="5"/><circle cx="2425" cy="1097" r="6"/><circle cx="2488" cy="1109" r="5"/><circle cx="2" cy="1169" r="5"/><circle cx="2562" cy="1169" r="5"/><circle cx="117" cy="1130" r="5"/><circle cx="167" cy="1144" r="5"/><circle cx="263" cy="1163" r="5"/><circle cx="349" cy="1157" r="6"/><circle cx="431" cy="1174" r="5"/><circle cx="482" cy="1189" r="5"/><circle cx="640" cy="1167" r="6"/><circle cx="656" cy="1165" r="5"/><circle cx="791" cy="1136" r="5"/><circle cx="835" cy="1163" r="5"/><circle cx="915" cy="1143" r="4"/><circle cx="1016" cy="1150" r="6"/><circle cx="1050" cy="1148" r="5"/><circle cx="1167" cy="1165" r="5"/><circle cx="1272" cy="1176" r="6"/><circle cx="1343" cy="1164" r="5"/><circle cx="1419" cy="1139" r="5"/><circle cx="1443" cy="1122" r="6"/><circle cx="1564" cy="1196" r="5"/><circle cx="1603" cy="1172" r="4"/><circle cx="1715" cy="1174" r="4"/><circle cx="1804" cy="1124" r="5"/><circle cx="1912" cy="1173" r="5"/><circle cx="1968" cy="1180" r="6"/><circle cx="2069" cy="1134" r="4"/><circle cx="2139" cy="1142" r="5"/><circle cx="2160" cy="1128" r="6"/><circle cx="2266" cy="1199" r="4"/><circle cx="2362" cy="1191" r="5"/><circle cx="2406" cy="1131" r="4"/><circle cx="2545" cy="1170" r="4"/><circle cx="75" cy="1204" r="5"/><circle cx="107" cy="1253" r="4"/><circle cx="199" cy="1270" r="6"/><circle cx="293" cy="1274" r="5"/><circle cx="363" cy="1224" r="4"/><circle cx="455" cy="1276" r="5"/><circle cx="523" cy="1279" r="6"/><circle cx="613" cy="1268" r="6"/><circle cx="674" cy="1259" r="4"/><circle cx="758" cy="1251" r="4"/><circle cx="857" cy="1234" r="4"/><circle cx="952" cy="1216" r="6"/><circle cx="963" cy="1204" r="5"/><circle cx="1088" cy="1252" r="6"/><circle cx="1133" cy="1232" r="5"/><circle cx="1215" cy="1219" r="5"/><circle cx="1283" cy="1269" r="5"/><circle cx="1418" cy="1273" r="6"/><circle cx="1497" cy="1234" r="5"/><circle cx="1567" cy="1263" r="4"/><circle cx="1617" cy="1218" r="5"/><circle cx="1756" cy="1244" r="5"/><circle cx="1771" cy="1247" r="5"/><circle cx="1906" cy="1257" r="6"/><circle cx="1973" cy="1252" r="5"/><circle cx="2076" cy="1211" r="5"/><circle cx="2139" cy="1269" r="6"/><circle cx="2191" cy="1226" r="5"/><circle cx="2317" cy="1242" r="6"/><circle cx="2366" cy="1210" r="5"/><circle cx="2453" cy="1271" r="5"/><circle cx="2539" cy="1228" r="5"/><circle cx="49" cy="1333" r="5"/><circle cx="124" cy="1336" r="5"/><circle cx="227" cy="1315" r="5"/><circle cx="294" cy="1306" r="6"/><circle cx="390" cy="1332" r="5"/><circle cx="462" cy="1281" r="5"/><circle cx="544" cy="1285" r="6"/><circle cx="573" cy="1359" r="4"/><circle cx="645" cy="1285" r="5"/><circle cx="747" cy="1358" r="6"/><circle cx="803" cy="1325" r="6"/><circle cx="950" cy="1351" r="4"/><circle cx="1000" cy="1357" r="6"/><circle cx="1050" cy="1360" r="5"/><circle cx="1174" cy="1353" r="5"/><circle cx="1216" cy="1291" r="6"/><circle cx="1309" cy="1285" r="6"/><circle cx="1369" cy="1344" r="4"/><circle cx="1512" cy="1284" r="5"/><circle cx="1582" cy="1299" r="5"/><circle cx="1659" cy="1341" r="6"/><circle cx="1703" cy="1291" r="5"/><circle cx="1775" cy="1303" r="5"/><circle cx="1912" cy="1339" r="5"/><circle cx="1932" cy="1358" r="5"/><circle cx="2036" cy="1280" r="5"/><circle cx="2132" cy="1294" r="5"/><circle cx="2190" cy="1332" r="6"/><circle cx="2248" cy="1301" r="4"/><circle cx="2397" cy="1321" r="5"/><circle cx="2452" cy="1297" r="4"/><circle cx="2522" cy="1350" r="6"/><circle cx="46" cy="1361" r="6"/><circle cx="151" cy="1403" r="5"/><circle cx="201" cy="1432" r="5"/><circle cx="257" cy="1384" r="4"/><circle cx="324" cy="1384" r="4"/><circle cx="416" cy="1418" r="5"/><circle cx="537" cy="1406" r="5"/><circle cx="597" cy="1417" r="4"/><circle cx="686" cy="1386" r="6"/><circle cx="750" cy="1422" r="4"/><circle cx="853" cy="1424" r="5"/><circle cx="895" cy="1367" r="5"/><circle cx="1004" cy="1417" r="5"/><circle cx="1045" cy="1403" r="5"/><circle cx="1174" cy="1424" r="6"/><circle cx="1274" cy="1373" r="4"/><circle cx="1334" cy="1405" r="5"/><circle cx="1438" cy="1409" r="5"/><circle cx="1449" cy="1395" r="6"/><circle cx="1535" cy="1393" r="6"/><circle cx="1601" cy="1369" r="5"/><circle cx="1731" cy="1402" r="6"/><circle cx="1827" cy="1382" r="5"/><circle cx="1911" cy="1389" r="4"/><circle cx="1936" cy="1409" r="4"/><circle cx="2048" cy="1405" r="6"/><circle cx="2126" cy="1390" r="6"/><circle cx="2230" cy="1405" r="6"/><circle cx="2300" cy="1418" r="5"/><circle cx="2382" cy="1399" r="6"/><circle cx="2425" cy="1368" r="4"/><circle cx="2498" cy="1402" r="4"/><path stroke="#fff" d="M60 55L90 37M60 55L29 156M90 37L151 -37M90 1477L151 1403M199 35L305 4M199 35L191 100M199 35L151 -37M199 35L201 -8M199 1475L151 1403M199 1475L201 1432M305 4L393 62M305 4L356 95M305 4L257 -56M305 4L324 -56M305 1444L257 1384M305 1444L324 1384M393 62L437 59M393 62L356 95M393 62L416 135M393 62L416 -22M393 1502L416 1418M437 59L356 95M437 59L416 135M437 59L416 -22M437 1499L416 1418M530 18L617 33M530 18L526 112M530 18L579 85M530 18L537 -34M530 18L597 -23M530 1458L537 1406M530 1458L597 1417M617 33L680 21M617 33L579 85M617 33L651 130M617 33L597 -23M617 1473L597 1417M680 21L770 25M680 21L686 -54M680 21L750 -18M680 1461L686 1386M680 1461L750 1422M770 25L806 24M770 25L749 87M770 25L750 -18M770 25L853 -16M770 1465L750 1422M770 1465L853 1424M806 24L749 87M806 24L750 -18M806 24L853 -16M806 1464L750 1422M806 1464L853 1424M923 2L1000 27M923 2L906 96M923 2L853 -16M923 2L895 -73M923 2L1004 -23M923 1442L853 1424M923 1442L895 1367M923 1442L1004 1417M1000 27L1038 100M1000 27L1004 -23M1000 27L1045 -37M1000 1467L1004 1417M1000 1467L1045 1403M1112 6L1134 7M1112 6L1200 32M1112 6L1050 -80M1112 6L1045 -37M1112 6L1174 -16M1112 1446L1050 1360M1112 1446L1045 1403M1112 1446L1174 1424M1134 7L1200 32M1134 7L1174 -87M1134 7L1174 -16M1134 1447L1174 1353M1134 1447L1174 1424M1200 32L1280 61M1200 32L1174 -16M1200 1472L1174 1424M1280 61L1368 44M1280 61L1331 147M1280 61L1334 -35M1280 1501L1334 1405M1368 44L1394 104M1368 44L1334 -35M1368 44L1438 -31M1368 44L1449 -45M1368 1484L1334 1405M1368 1484L1438 1409M1368 1484L1449 1395M1501 41L1562 61M1501 41L1482 141M1501 41L1438 -31M1501 41L1449 -45M1501 41L1535 -47M1501 1481L1438 1409M1501 1481L1449 1395M1501 1481L1535 1393M1562 61L1629 33M1562 61L1559 144M1562 61L1627 87M1629 33L1627 87M1629 33L1692 101M1629 33L1601 -71M1629 1473L1601 1369M1738 49L1840 26M1738 49L1692 101M1738 49L1811 111M1738 49L1731 -38M1738 1489L1731 1402M1840 26L1879 51M1840 26L1811 111M1840 26L1827 -58M1840 26L1911 -51M1840 1466L1827 1382M1840 1466L1911 1389M1879 51L1962 68M1879 51L1811 111M1879 51L1874 155M1879 51L1936 -31M1879 1491L1936 1409M1962 68L2007 50M1962 68L1978 99M1962 68L2037 104M2007 50L1978 99M2007 50L2037 104M2007 50L2048 -35M2007 1490L2048 1405M2136 52L2203 45M2136 52L2102 108M2136 52L2216 92M2136 52L2048 -35M2136 52L2126 -50M2136 1492L2048 1405M2136 1492L2126 1390M2203 45L2265 3M2203 45L2216 92M2203 45L2252 84M2203 45L2230 -35M2203 1485L2230 1405M2265 3L2216 92M2265 3L2252 84M2265 3L2230 -35M2265 3L2300 -22M2265 1443L2230 1405M2265 1443L2300 1418M2386 43L2469 35M2386 43L2396 139M2386 43L2409 108M2386 43L2300 -22M2386 43L2382 -41M2386 1483L2300 1418M2386 1483L2382 1399M2469 35L2496 21M2469 35L2409 108M2469 35L2493 125M2469 35L2498 -38M2469 1475L2498 1402M2496 21L2493 125M2496 21L2498 -38M2496 1461L2498 1402M29 156L122 155M29 156L12 190M29 156L-34 229M29 156L-8 247M2589 156L2526 229M2589 156L2552 247M122 155L191 100M122 155L138 236M191 100L240 178M191 100L256 175M191 100L201 -8M191 1540L201 1432M295 133L356 95M295 133L240 178M295 133L256 175M356 95L416 135M416 135L394 207M416 135L496 165M526 112L579 85M526 112L496 165M526 112L591 165M579 85L651 130M579 85L591 165M651 130L749 87M651 130L591 165M651 130L677 170M749 87L677 170M844 131L906 96M844 131L868 160M906 96L868 160M906 96L957 170M1038 100L1082 135M1038 100L957 170M1038 100L982 181M1082 135L1155 141M1082 135L982 181M1082 135L1077 233M1155 141L1250 150M1155 141L1077 233M1155 141L1192 178M1155 141L1169 241M1250 150L1331 147M1250 150L1192 178M1250 150L1275 225M1250 150L1284 192M1331 147L1394 104M1331 147L1284 192M1331 147L1397 197M1394 104L1482 141M1394 104L1397 197M1394 104L1447 189M1482 141L1559 144M1482 141L1447 189M1559 144L1627 87M1559 144L1595 222M1559 144L1629 230M1627 87L1692 101M1692 101L1737 200M1811 111L1874 155M1874 155L1818 206M1874 155L1890 214M1978 99L2037 104M2037 104L2102 108M2216 92L2252 84M2252 84L2300 -22M2252 1524L2300 1418M2396 139L2409 108M2396 139L2493 125M2396 139L2367 198M2396 139L2413 227M2409 108L2493 125M2409 108L2367 198M12 190L-34 229M12 190L46 276M12 190L93 261M12 190L-8 247M2572 190L2526 229M2572 190L2552 247M138 236L46 276M138 236L93 261M138 236L176 268M138 236L158 329M240 178L256 175M240 178L281 248M256 175L281 248M394 207L416 237M394 207L496 165M394 207L381 252M394 207L413 291M416 237L381 252M416 237L413 291M416 237L508 283M416 237L456 329M496 165L591 165M591 165L677 170M677 170L731 209M677 170L590 280M731 209L758 268M868 160L957 170M868 160L906 279M957 170L982 181M957 170L960 271M982 181L960 271M1077 233L1111 271M1077 233L1169 241M1192 178L1275 225M1192 178L1284 192M1192 178L1169 241M1275 225L1284 192M1275 225L1235 276M1275 225L1350 272M1284 192L1350 272M1397 197L1447 189M1397 197L1350 272M1397 197L1385 254M1447 189L1385 254M1447 189L1501 250M1595 222L1629 230M1595 222L1501 250M1595 222L1527 288M1595 222L1660 295M1629 230L1737 200M1629 230L1660 295M1737 200L1758 256M1818 206L1890 214M1818 206L1758 256M1818 206L1835 276M1818 206L1852 269M1890 214L1972 219M1890 214L1835 276M1890 214L1852 269M1972 219L2062 222M1972 219L1958 247M1972 219L2016 281M2062 222L2099 226M2062 222L2093 265M2099 226L2093 265M2099 226L2169 258M2099 226L2081 329M2204 225L2263 231M2204 225L2169 258M2263 231L2169 258M2263 231L2287 306M2263 231L2378 246M2367 198L2413 227M2367 198L2378 246M2367 198L2434 277M2413 227L2378 246M2413 227L2434 277M2526 229L2434 277M2526 229L2552 247M46 276L93 261M46 276L-8 247M46 276L7 336M2606 276L2552 247M93 261L176 268M93 261L158 329M176 268L281 248M176 268L158 329M176 268L178 326M281 248L381 252M281 248L304 322M381 252L413 291M413 291L508 283M413 291L456 329M508 283L590 280M508 283L456 329M508 283L525 378M590 280L685 318M590 280L655 335M685 318L758 268M685 318L655 335M685 318L778 358M758 268L842 302M758 268L778 358M842 302L906 279M842 302L778 358M842 302L804 394M842 302L893 341M906 279L960 271M906 279L893 341M906 279L1006 368M960 271L893 341M960 271L1006 368M1111 271L1169 241M1111 271L1085 363M1169 241L1235 276M1235 276L1190 360M1235 276L1211 374M1350 272L1385 254M1350 272L1352 324M1385 254L1501 250M1385 254L1352 324M1501 250L1527 288M1527 288L1536 374M1660 295L1677 376M1758 256L1835 276M1758 256L1852 269M1835 276L1852 269M1835 276L1787 369M1852 269L1919 350M1958 247L2016 281M1958 247L1919 350M1958 247L1971 349M1958 247L2002 323M2016 281L2093 265M2016 281L1971 349M2016 281L2002 323M2093 265L2169 258M2093 265L2081 329M2169 258L2180 325M2287 306L2378 246M2287 306L2250 363M2287 306L2331 350M2378 246L2434 277M2434 277L2422 391M2552 247L2567 336M-8 247L7 336M7 336L-27 381M7 336L82 416M2567 336L2533 381M158 329L178 326M158 329L182 439M178 326L304 322M178 326L182 439M304 322L321 362M304 322L300 411M321 362L300 411M321 362L355 438M456 329L525 378M456 329L475 416M525 378L574 386M525 378L475 416M525 378L504 464M574 386L655 335M574 386L605 460M574 386L666 404M574 386L602 486M655 335L666 404M778 358L804 394M778 358L857 407M804 394L725 449M804 394L857 407M804 394L898 431M893 341L857 407M893 341L898 431M1006 368L1085 363M1006 368L1033 469M1085 363L1190 360M1085 363L1081 471M1190 360L1211 374M1190 360L1197 425M1211 374L1197 425M1211 374L1230 450M1352 324L1374 374M1374 374L1403 438M1481 399L1536 374M1481 399L1403 438M1481 399L1464 442M1481 399L1539 420M1536 374L1539 420M1677 376L1746 388M1677 376L1787 369M1677 376L1638 427M1677 376L1713 438M1746 388L1787 369M1746 388L1638 427M1746 388L1713 438M1746 388L1807 432M1787 369L1807 432M1919 350L1971 349M1919 350L2002 323M1971 349L2002 323M1971 349L1964 448M2002 323L2081 329M2081 329L2180 325M2081 329L2145 400M2180 325L2250 363M2180 325L2145 400M2180 325L2183 412M2250 363L2331 350M2250 363L2183 412M2250 363L2260 425M2331 350L2422 391M2331 350L2260 425M2422 391L2475 428M2422 391L2499 453M2533 381L2563 462M2533 381L2475 428M2533 381L2499 453M-27 381L3 462M3 462L82 416M3 462L-85 428M3 462L-61 453M3 462L-46 495M2563 462L2475 428M2563 462L2499 453M2563 462L2514 495M82 416L182 439M82 416L91 526M182 439L208 494M300 411L355 438M300 411L289 501M355 438L289 501M355 438L373 482M475 416L504 464M475 416L473 504M504 464L605 460M504 464L473 504M504 464L602 486M605 460L666 404M605 460L602 486M605 460L676 485M666 404L725 449M666 404L676 485M725 449L602 486M725 449L676 485M725 449L727 518M857 407L898 431M857 407L838 520M898 431L838 520M898 431L904 536M1033 469L1081 471M1033 469L1042 555M1081 471L1042 555M1081 471L1153 490M1197 425L1230 450M1197 425L1153 490M1230 450L1153 490M1230 450L1236 517M1230 450L1280 488M1358 476L1403 438M1358 476L1464 442M1358 476L1280 488M1358 476L1366 527M1358 476L1398 563M1403 438L1464 442M1403 438L1366 527M1464 442L1539 420M1464 442L1491 521M1539 420L1638 427M1638 427L1713 438M1638 427L1599 528M1713 438L1807 432M1713 438L1756 528M1807 432L1888 479M1807 432L1853 515M1888 479L1964 448M1888 479L1853 515M1888 479L1995 517M1888 479L1861 581M1964 448L2063 479M1964 448L1995 517M1964 448L2003 493M2063 479L1995 517M2063 479L2003 493M2063 479L2156 500M2063 479L2089 569M2145 400L2183 412M2183 412L2260 425M2183 412L2156 500M2260 425L2321 471M2260 425L2185 513M2321 471L2313 540M2321 471L2323 536M2321 471L2368 563M2475 428L2499 453M2475 428L2514 495M2499 453L2514 495M64 553L91 526M64 553L63 621M64 553L105 635M64 553L58 648M91 526L208 494M91 526L63 621M91 526L195 565M208 494L289 501M208 494L195 565M289 501L373 482M289 501L361 573M373 482L473 504M373 482L361 573M373 482L405 580M473 504L485 556M473 504L405 580M485 556L405 580M485 556L532 610M602 486L676 485M676 485L727 518M727 518L773 574M838 520L904 536M838 520L773 574M838 520L875 583M904 536L966 557M904 536L875 583M904 536L934 581M966 557L1042 555M966 557L875 583M966 557L934 581M966 557L1024 626M1042 555L1024 626M1042 555L1106 583M1153 490L1236 517M1153 490L1150 577M1236 517L1280 488M1236 517L1150 577M1236 517L1297 574M1280 488L1366 527M1280 488L1297 574M1366 527L1297 574M1366 527L1398 563M1491 521L1599 528M1491 521L1398 563M1491 521L1492 607M1491 521L1554 572M1599 528L1640 555M1599 528L1554 572M1599 528L1676 607M1640 555L1554 572M1640 555L1676 607M1640 555L1708 561M1640 555L1621 648M1756 528L1761 511M1756 528L1853 515M1756 528L1708 561M1761 511L1853 515M1761 511L1708 561M1853 515L1861 581M1995 517L2003 493M2156 500L2185 513M2156 500L2089 569M2156 500L2195 575M2185 513L2195 575M2313 540L2323 536M2313 540L2281 633M2313 540L2368 563M2313 540L2317 648M2323 536L2431 540M2323 536L2281 633M2323 536L2368 563M2431 540L2514 495M2431 540L2368 563M2431 540L2432 573M2431 540L2502 612M2514 495L2432 573M63 621L105 635M63 621L58 648M105 635L195 565M105 635L58 648M105 635L142 688M299 627L361 573M299 627L231 698M299 627L261 694M299 627L382 651M361 573L405 580M361 573L382 651M405 580L382 651M532 610L587 623M532 610L462 692M532 610L522 710M532 610L609 663M587 623L670 619M587 623L609 663M587 623L665 691M670 619L773 574M670 619L609 663M670 619L665 691M670 619L763 689M773 574L836 642M875 583L934 581M875 583L836 642M934 581L836 642M1024 626L1106 583M1024 626L960 704M1024 626L975 707M1106 583L1150 577M1106 583L1116 662M1106 583L1178 652M1150 577L1116 662M1150 577L1178 652M1278 631L1297 574M1278 631L1178 652M1278 631L1238 696M1278 631L1306 645M1278 631L1335 727M1297 574L1306 645M1398 563L1492 607M1492 607L1554 572M1492 607L1501 709M1492 607L1570 674M1554 572L1570 674M1676 607L1708 561M1676 607L1621 648M1676 607L1756 677M1828 639L1861 581M1828 639L1940 624M1828 639L1756 677M1828 639L1784 714M1828 639L1862 645M1861 581L1940 624M1861 581L1862 645M1940 624L2024 631M1940 624L1862 645M1940 624L1975 667M2024 631L2089 569M2024 631L1975 667M2024 631L2058 640M2024 631L2113 653M2089 569L2058 640M2089 569L2113 653M2195 575L2281 633M2281 633L2317 648M2281 633L2330 684M2368 563L2432 573M2432 573L2502 612M2432 573L2468 669M2502 612L2468 669M2502 612L2510 700M58 648L142 688M58 648L-50 700M2618 648L2510 700M142 688L231 698M142 688L141 761M231 698L261 694M231 698L214 734M231 698L280 763M261 694L214 734M261 694L280 763M261 694L321 781M382 651L462 692M382 651L459 724M462 692L522 710M462 692L459 724M462 692L524 765M522 710L609 663M522 710L459 724M522 710L524 765M609 663L665 691M665 691L763 689M665 691L651 769M763 689L836 642M763 689L750 771M960 704L975 707M960 704L947 790M960 704L964 733M975 707L947 790M975 707L964 733M975 707L1079 784M1116 662L1178 652M1178 652L1238 696M1238 696L1306 645M1238 696L1231 790M1238 696L1335 727M1306 645L1408 696M1306 645L1335 727M1408 696L1501 709M1408 696L1335 727M1408 696L1391 755M1408 696L1465 721M1501 709L1570 674M1501 709L1465 721M1501 709L1530 725M1570 674L1621 648M1570 674L1530 725M1621 648L1530 725M1621 648L1688 737M1756 677L1784 714M1756 677L1688 737M1756 677L1811 767M1784 714L1688 737M1784 714L1811 767M1784 714L1858 795M1975 667L2058 640M1975 667L1973 763M1975 667L2028 751M2058 640L2113 653M2113 653L2177 720M2113 653L2152 728M2177 720L2152 728M2177 720L2166 784M2177 720L2266 754M2317 648L2330 684M2317 648L2338 739M2330 684L2266 754M2330 684L2338 739M2330 684L2363 801M2468 669L2510 700M2468 669L2435 742M2510 700L2435 742M2510 700L2504 787M40 789L-56 787M40 789L74 801M2600 789L2504 787M141 761L214 734M141 761L74 801M141 761L125 858M141 761L188 806M214 734L280 763M214 734L188 806M280 763L321 781M280 763L309 829M321 781L309 829M321 781L324 863M321 781L405 821M459 724L524 765M524 765L481 827M524 765L593 830M615 793L651 769M615 793L593 830M615 793L644 836M651 769L750 771M651 769L593 830M651 769L644 836M750 771L809 799M750 771L750 813M750 771L813 833M809 799L750 813M809 799L813 833M809 799L844 894M947 790L964 733M947 790L911 839M947 790L982 867M964 733L1079 784M964 733L1057 802M1079 784L1153 798M1079 784L1057 802M1079 784L1123 850M1153 798L1231 790M1153 798L1123 850M1153 798L1238 806M1231 790L1238 806M1335 727L1391 755M1391 755L1465 721M1391 755L1408 842M1465 721L1530 725M1644 789L1688 737M1644 789L1587 831M1644 789L1659 812M1644 789L1722 853M1688 737L1659 812M1811 767L1858 795M1811 767L1815 834M1858 795L1815 834M1858 795L1861 876M1858 795L1949 840M1973 763L2028 751M1973 763L1949 840M2028 751L2070 848M2152 728L2166 784M2166 784L2266 754M2166 784L2100 852M2166 784L2184 900M2266 754L2338 739M2266 754L2363 801M2338 739L2435 742M2338 739L2363 801M2435 742L2504 787M2435 742L2363 801M2504 787L2479 849M2504 787L2518 877M74 801L125 858M74 801L188 806M125 858L188 806M125 858L92 947M309 829L324 863M309 829L405 821M324 863L405 821M324 863L250 934M324 863L397 917M405 821L481 827M405 821L397 917M481 827L593 830M481 827L492 899M593 830L644 836M644 836L750 813M750 813L813 833M750 813L739 928M813 833L911 839M813 833L844 894M911 839L982 867M911 839L844 894M982 867L1057 802M982 867L932 950M1057 802L1123 850M1123 850L1096 943M1123 850L1194 895M1238 806L1295 875M1238 806L1194 895M1295 875L1248 920M1295 875L1340 937M1295 875L1369 883M1408 842L1514 843M1408 842L1369 883M1514 843L1587 831M1514 843L1495 936M1514 843L1592 919M1587 831L1659 812M1587 831L1592 919M1659 812L1722 853M1659 812L1649 916M1722 853L1815 834M1722 853L1649 916M1722 853L1742 944M1815 834L1861 876M1861 876L1949 840M1861 876L1814 952M1861 876L1915 947M1949 840L2018 916M2070 848L2100 852M2070 848L2018 916M2070 848L2138 931M2100 852L2018 916M2100 852L2138 931M2100 852L2184 900M2237 869L2267 875M2237 869L2184 900M2237 869L2291 944M2267 875L2184 900M2267 875L2291 944M2267 875L2309 965M2363 801L2479 849M2479 849L2518 877M2479 849L2472 899M2518 877L2569 946M2518 877L2472 899M2518 877L2540 935M-42 877L9 946M9 946L92 947M9 946L-20 935M9 946L4 1036M9 946L-32 974M2569 946L2540 935M2569 946L2528 974M92 947L179 944M92 947L107 992M92 947L179 993M179 944L250 934M179 944L107 992M179 944L179 993M250 934L179 993M250 934L257 1012M250 934L330 994M397 917L456 945M397 917L492 899M397 917L414 993M456 945L492 899M456 945L414 993M456 945L519 1033M456 945L433 1060M624 950L692 937M624 950L577 986M624 950L661 1027M624 950L567 1051M692 937L739 928M692 937L661 1027M692 937L779 965M739 928L779 965M739 928L810 1019M844 894L932 950M844 894L779 965M932 950L1034 954M932 950L927 966M932 950L961 980M1034 954L1096 943M1034 954L927 966M1034 954L961 980M1034 954L1118 1009M1096 943L1194 895M1096 943L1118 1009M1096 943L1148 991M1194 895L1248 920M1194 895L1237 974M1248 920L1340 937M1248 920L1237 974M1340 937L1369 883M1340 937L1325 1016M1495 936L1592 919M1495 936L1466 1031M1495 936L1548 964M1592 919L1649 916M1592 919L1548 964M1649 916L1742 944M1649 916L1548 964M1742 944L1814 952M1742 944L1729 1028M1742 944L1821 993M1814 952L1821 993M1814 952L1891 973M1915 947L1995 955M1915 947L1891 973M1915 947L1956 997M1915 947L2005 976M1995 955L2018 916M1995 955L1891 973M1995 955L1956 997M1995 955L2005 976M2018 916L2005 976M2138 931L2184 900M2138 931L2097 985M2138 931L2163 1013M2291 944L2346 960M2291 944L2309 965M2291 944L2276 1056M2346 960L2309 965M2346 960L2400 1027M2472 899L2540 935M2472 899L2454 973M2540 935L2564 1036M2540 935L2528 974M-20 935L4 1036M4 1036L-32 974M4 1036L15 1056M4 1036L86 1065M2564 1036L2528 974M107 992L179 993M107 992L15 1056M107 992L86 1065M179 993L257 1012M257 1012L330 994M257 1012L284 1064M257 1012L323 1049M330 994L414 993M330 994L284 1064M330 994L323 1049M414 993L433 1060M519 1033L577 986M519 1033L433 1060M519 1033L510 1046M519 1033L567 1051M577 986L661 1027M577 986L510 1046M577 986L567 1051M661 1027L567 1051M661 1027L716 1119M779 965L810 1019M810 1019L773 1097M810 1019L840 1092M810 1019L791 1136M927 966L961 980M927 966L924 1056M927 966L963 1058M961 980L924 1056M961 980L963 1058M1118 1009L1148 991M1118 1009L1079 1068M1118 1009L1124 1103M1148 991L1237 974M1148 991L1079 1068M1237 974L1325 1016M1237 974L1284 1044M1325 1016L1255 1073M1325 1016L1284 1044M1325 1016L1377 1084M1437 1040L1466 1031M1437 1040L1377 1084M1437 1040L1453 1111M1437 1040L1419 1139M1437 1040L1443 1122M1466 1031L1548 964M1466 1031L1453 1111M1466 1031L1443 1122M1548 964L1632 1039M1632 1039L1729 1028M1632 1039L1588 1101M1632 1039L1677 1049M1632 1039L1719 1056M1729 1028L1821 993M1729 1028L1677 1049M1729 1028L1719 1056M1821 993L1891 973M1821 993L1846 1076M1891 973L1956 997M1956 997L2005 976M1956 997L1936 1109M2005 976L2097 985M2097 985L2163 1013M2097 985L2128 1065M2163 1013L2128 1065M2163 1013L2276 1056M2309 965L2276 1056M2400 1027L2454 973M2400 1027L2344 1075M2400 1027L2425 1097M2454 973L2528 974M2528 974L2575 1056M-32 974L15 1056M15 1056L86 1065M15 1056L-72 1109M2575 1056L2488 1109M86 1065L173 1120M86 1065L117 1130M173 1120L117 1130M173 1120L167 1144M173 1120L263 1163M284 1064L323 1049M284 1064L263 1163M284 1064L349 1157M323 1049L433 1060M323 1049L349 1157M433 1060L510 1046M510 1046L567 1051M716 1119L773 1097M716 1119L640 1167M716 1119L656 1165M716 1119L791 1136M773 1097L840 1092M773 1097L791 1136M773 1097L835 1163M840 1092L924 1056M840 1092L791 1136M840 1092L835 1163M924 1056L963 1058M924 1056L915 1143M963 1058L915 1143M963 1058L1016 1150M1079 1068L1124 1103M1079 1068L1016 1150M1079 1068L1050 1148M1124 1103L1050 1148M1124 1103L1167 1165M1255 1073L1284 1044M1377 1084L1453 1111M1377 1084L1419 1139M1377 1084L1443 1122M1453 1111L1419 1139M1453 1111L1443 1122M1588 1101L1677 1049M1588 1101L1564 1196M1588 1101L1603 1172M1677 1049L1719 1056M1677 1049L1761 1119M1719 1056L1761 1119M1719 1056L1804 1124M1761 1119L1846 1076M1761 1119L1715 1174M1761 1119L1804 1124M1846 1076L1936 1109M1846 1076L1804 1124M1846 1076L1912 1173M1936 1109L2038 1114M1936 1109L1912 1173M1936 1109L1968 1180M2038 1114L2128 1065M2038 1114L1968 1180M2038 1114L2069 1134M2038 1114L2139 1142M2128 1065L2139 1142M2128 1065L2160 1128M2232 1100L2276 1056M2232 1100L2344 1075M2232 1100L2160 1128M2232 1100L2266 1199M2276 1056L2344 1075M2344 1075L2425 1097M2344 1075L2406 1131M2425 1097L2488 1109M2425 1097L2362 1191M2425 1097L2406 1131M2488 1109L2562 1169M2488 1109L2406 1131M2488 1109L2545 1170M-72 1109L2 1169M2 1169L117 1130M2 1169L-15 1170M2 1169L75 1204M2 1169L-21 1228M2562 1169L2545 1170M2562 1169L2539 1228M117 1130L167 1144M117 1130L75 1204M167 1144L263 1163M263 1163L349 1157M349 1157L431 1174M349 1157L363 1224M431 1174L482 1189M431 1174L363 1224M482 1189L455 1276M482 1189L462 1281M640 1167L656 1165M640 1167L613 1268M640 1167L674 1259M640 1167L645 1285M656 1165L674 1259M791 1136L835 1163M835 1163L915 1143M835 1163L857 1234M915 1143L952 1216M915 1143L963 1204M1016 1150L1050 1148M1016 1150L952 1216M1016 1150L963 1204M1050 1148L963 1204M1050 1148L1088 1252M1167 1165L1272 1176M1167 1165L1088 1252M1167 1165L1133 1232M1167 1165L1215 1219M1272 1176L1343 1164M1272 1176L1215 1219M1272 1176L1283 1269M1343 1164L1419 1139M1419 1139L1443 1122M1564 1196L1603 1172M1564 1196L1497 1234M1564 1196L1567 1263M1564 1196L1617 1218M1603 1172L1617 1218M1715 1174L1804 1124M1715 1174L1617 1218M1715 1174L1756 1244M1715 1174L1771 1247M1912 1173L1968 1180M1912 1173L1906 1257M1912 1173L1973 1252M1968 1180L1906 1257M1968 1180L1973 1252M2069 1134L2139 1142M2069 1134L2160 1128M2069 1134L2076 1211M2139 1142L2160 1128M2139 1142L2076 1211M2160 1128L2191 1226M2266 1199L2362 1191M2266 1199L2191 1226M2266 1199L2317 1242M2266 1199L2366 1210M2362 1191L2406 1131M2362 1191L2317 1242M2362 1191L2366 1210M2406 1131L2366 1210M2545 1170L2635 1204M2545 1170L2539 1228M-15 1170L75 1204M75 1204L107 1253M75 1204L-21 1228M2635 1204L2539 1228M107 1253L199 1270M107 1253L49 1333M107 1253L124 1336M199 1270L293 1274M199 1270L124 1336M199 1270L227 1315M199 1270L294 1306M293 1274L363 1224M293 1274L227 1315M293 1274L294 1306M293 1274L390 1332M455 1276L523 1279M455 1276L390 1332M455 1276L462 1281M455 1276L544 1285M523 1279L613 1268M523 1279L462 1281M523 1279L544 1285M523 1279L573 1359M613 1268L674 1259M613 1268L544 1285M613 1268L645 1285M674 1259L758 1251M674 1259L645 1285M758 1251L857 1234M758 1251L747 1358M758 1251L803 1325M857 1234L952 1216M857 1234L963 1204M857 1234L803 1325M952 1216L963 1204M1088 1252L1133 1232M1088 1252L1050 1360M1133 1232L1215 1219M1133 1232L1174 1353M1133 1232L1216 1291M1215 1219L1283 1269M1215 1219L1216 1291M1283 1269L1216 1291M1283 1269L1309 1285M1283 1269L1274 1373M1418 1273L1497 1234M1418 1273L1309 1285M1418 1273L1369 1344M1418 1273L1512 1284M1497 1234L1567 1263M1497 1234L1512 1284M1567 1263L1617 1218M1567 1263L1512 1284M1567 1263L1582 1299M1617 1218L1582 1299M1756 1244L1771 1247M1756 1244L1703 1291M1756 1244L1775 1303M1771 1247L1703 1291M1771 1247L1775 1303M1906 1257L1973 1252M1906 1257L1912 1339M1906 1257L1932 1358M1973 1252L2036 1280M2076 1211L2139 1269M2076 1211L2036 1280M2139 1269L2191 1226M2139 1269L2036 1280M2139 1269L2132 1294M2139 1269L2190 1332M2191 1226L2132 1294M2317 1242L2366 1210M2317 1242L2248 1301M2317 1242L2397 1321M2453 1271L2539 1228M2453 1271L2397 1321M2453 1271L2452 1297M49 1333L124 1336M49 1333L-38 1350M49 1333L46 1361M2609 1333L2522 1350M124 1336L46 1361M124 1336L151 1403M227 1315L294 1306M227 1315L257 1384M294 1306L257 1384M294 1306L324 1384M390 1332L462 1281M390 1332L324 1384M390 1332L416 1418M462 1281L544 1285M544 1285L573 1359M573 1359L645 1285M573 1359L537 1406M573 1359L597 1417M645 1285L686 1386M747 1358L803 1325M747 1358L686 1386M747 1358L750 1422M803 1325L853 1424M803 1325L895 1367M950 1351L1000 1357M950 1351L895 1367M1000 1357L1050 1360M1000 1357L895 1367M1000 1357L1004 1417M1000 1357L1045 1403M1050 1360L1004 1417M1050 1360L1045 1403M1174 1353L1216 1291M1174 1353L1174 1424M1174 1353L1274 1373M1216 1291L1309 1285M1309 1285L1369 1344M1309 1285L1274 1373M1369 1344L1334 1405M1369 1344L1438 1409M1369 1344L1449 1395M1512 1284L1582 1299M1512 1284L1535 1393M1582 1299L1659 1341M1582 1299L1601 1369M1659 1341L1703 1291M1659 1341L1601 1369M1659 1341L1731 1402M1703 1291L1775 1303M1703 1291L1731 1402M1775 1303L1731 1402M1775 1303L1827 1382M1912 1339L1932 1358M1912 1339L1827 1382M1912 1339L1911 1389M1912 1339L1936 1409M1932 1358L1911 1389M1932 1358L1936 1409M2036 1280L2132 1294M2036 1280L2048 1405M2132 1294L2190 1332M2132 1294L2126 1390M2190 1332L2248 1301M2190 1332L2126 1390M2190 1332L2230 1405M2397 1321L2452 1297M2397 1321L2382 1399M2397 1321L2425 1368M2452 1297L2522 1350M2452 1297L2425 1368M2522 1350L2606 1361M2522 1350L2425 1368M2522 1350L2498 1402M-38 1350L46 1361M46 1361L151 1403M46 1361L-62 1402M2606 1361L2498 1402M151 1403L201 1432M201 1432L257 1384M257 1384L324 1384M324 1384L416 1418M416 1418L537 1406M537 1406L597 1417M597 1417L686 1386M686 1386L750 1422M853 1424L895 1367M1004 1417L1045 1403M1174 1424L1274 1373M1274 1373L1334 1405M1438 1409L1449 1395M1438 1409L1535 1393M1449 1395L1535 1393M1535 1393L1601 1369M1731 1402L1827 1382M1827 1382L1911 1389M1911 1389L1936 1409M1936 1409L2048 1405M2048 1405L2126 1390M2126 1390L2230 1405M2230 1405L2300 1418M2300 1418L2382 1399M2382 1399L2425 1368M2425 1368L2498 1402"/></svg>