<svg xmlns="http://www.w3.org/2000/svg" width="2560" height="1440" fill="#fff"><circle cx="52" cy="30" r="6"/><circle cx="148" cy="49" r="6"/><circle cx="173" cy="41" r="5"/><circle cx="304" cy="48" r="5"/><circle cx="349" cy="7" r="5"/><circle cx="429" cy="7" r="5"/><circle cx="520" cy="32" r="4"/><circle cx="562" cy="67" r="5"/><circle cx="712" cy="31" r="5"/><circle cx="742" cy="75" r="5"/><circle cx="827" cy="29" r="5"/><circle cx="944" cy="9" r="4"/><circle cx="1037" cy="51" r="6"/><circle cx="1059" cy="27" r="4"/><circle cx="1160" cy="43" r="5"/><circle cx="1280" cy="37" r="4"/><circle cx="1329" cy="12" r="5"/><circle cx="1379" cy="20" r="5"/><circle cx="1488" cy="56" r="5"/><circle cx="1592" cy="35" r="4"/><circle cx="1654" cy="12" r="4"/><circle cx="1749" cy="58" r="6"/><circle cx="1817" cy="52" r="4"/><circle cx="1907" cy="65" r="6"/><circle cx="1978" cy="28" r="4"/><circle cx="2021" cy="29" r="5"/><circle cx="2121" cy="39" r="6"/><circle cx="2200" cy="70" r="5"/><circle cx="2308" cy="68" r="6"/><circle cx="2348" cy="24" r="4"/><circle cx="2477" cy="6" r="4"/><circle cx="2507" cy="17" r="5"/><circle cx="42" cy="152" r="6"/><circle cx="125" cy="85" r="5"/><circle cx="222" cy="91" r="5"/><circle cx="288" cy="100" r="6"/><circle cx="337" cy="107" r="6"/><circle cx="414" cy="154" r="5"/><circle cx="498" cy="115" r="5"/><circle cx="620" cy="92" r="6"/><circle cx="709" cy="152" r="5"/><circle cx="757" cy="138" r="5"/><circle cx="873" cy="120" r="5"/><circle cx="921" cy="157" r="5"/><circle cx="1034" cy="133" r="4"/><circle cx="1099" cy="82" r="5"/><circle cx="1199" cy="90" r="6"/><circle cx="1266" cy="97" r="5"/><circle cx="1325" cy="81" r="5"/><circle cx="1402" cy="110" r="5"/><circle cx="1444" cy="98" r="6"/><circle cx="1567" cy="124" r="5"/><circle cx="1634" cy="98" r="6"/><circle cx="1702" cy="131" r="6"/><circle cx="1816" cy="120" r="6"/><circle cx="1880" cy="127" r="4"/><circle cx="1952" cy="88" r="4"/><circle cx="2021" cy="134" r="5"/><circle cx="2130" cy="158" r="5"/><circle cx="2211" cy="85" r="4"/><circle cx="2247" cy="143" r="6"/><circle cx="2336" cy="146" r="5"/><circle cx="2464" cy="144" r="6"/><circle cx="2499" cy="95" r="6"/><circle cx="58" cy="193" r="4"/><circle cx="81" cy="222" r="5"/><circle cx="187" cy="205" r="4"/><circle cx="316" cy="205" r="6"/><circle cx="394" cy="201" r="6"/><circle cx="436" cy="235" r="5"/><circle cx="526" cy="175" r="5"/><circle cx="586" cy="168" r="5"/><circle cx="647" cy="188" r="5"/><circle cx="769" cy="178" r="4"/><circle cx="823" cy="213" r="5"/><circle cx="907" cy="236" r="4"/><circle cx="1023" cy="220" r="5"/><circle cx="1050" cy="188" r="5"/><circle cx="1196" cy="237" r="4"/><circle cx="1271" cy="233" r="6"/><circle cx="1316" cy="231" r="5"/><circle cx="1380" cy="189" r="5"/><circle cx="1509" cy="235" r="5"/><circle cx="1581" cy="166" r="5"/><circle cx="1669" cy="198" r="4"/><circle cx="1680" cy="215" r="6"/><circle cx="1814" cy="165" r="5"/><circle cx="1888" cy="165" r="5"/><circle cx="1921" cy="225" r="5"/><circle cx="2031" cy="216" r="5"/><circle cx="2139" cy="179" r="5"/><circle cx="2181" cy="198" r="5"/><circle cx="2298" cy="180" r="4"/><circle cx="2334" cy="221" r="4"/><circle cx="2446" cy="200" r="5"/><circle cx="2517" cy="235" r="5"/><circle cx="36" cy="313" r="6"/><circle cx="158" cy="298" r="5"/><circle cx="174" cy="315" r="5"/><circle cx="318" cy="259" r="5"/><circle cx="389" cy="283" r="5"/><circle cx="424" cy="263" r="5"/><circle cx="524" cy="249" r="5"/><circle cx="571" cy="261" r="4"/><circle cx="666" cy="318" r="5"/><circle cx="750" cy="257" r="5"/><circle cx="809" cy="315" r="6"/><circle cx="947" cy="281" r="6"/><circle cx="979" cy="287" r="5"/><circle cx="1068" cy="251" r="5"/><circle cx="1127" cy="293" r="6"/><circle cx="1275" cy="283" r="4"/><circle cx="1345" cy="264" r="5"/><circle cx="1399" cy="292" r="5"/><circle cx="1519" cy="293" r="5"/><circle cx="1580" cy="248" r="5"/><circle cx="1675" cy="288" r="6"/><circle cx="1688" cy="318" r="5"/><circle cx="1799" cy="277" r="5"/><circle cx="1877" cy="282" r="6"/><circle cx="1967" cy="253" r="6"/><circle cx="2079" cy="290" r="6"/><circle cx="2114" cy="274" r="6"/><circle cx="2187" cy="315" r="4"/><circle cx="2287" cy="275" r="5"/><circle cx="2379" cy="241" r="5"/><circle cx="2462" cy="302" r="5"/><circle cx="2488" cy="253" r="4"/><circle cx="3" cy="376" r="5"/><circle cx="2563" cy="376" r="5"/><circle cx="147" cy="331" r="4"/><circle cx="191" cy="345" r="6"/><circle cx="316" cy="323" r="5"/><circle cx="357" cy="354" r="5"/><circle cx="459" cy="353" r="5"/><circle cx="540" cy="330" r="5"/><circle cx="567" cy="335" r="5"/><circle cx="655" cy="391" r="6"/><circle cx="779" cy="347" r="5"/><circle cx="850" cy="360" r="5"/><circle cx="900" cy="325" r="5"/><circle cx="970" cy="384" r="4"/><circle cx="1073" cy="346" r="4"/><circle cx="1178" cy="373" r="6"/><circle cx="1240" cy="370" r="6"/><circle cx="1311" cy="400" r="5"/><circle cx="1361" cy="341" r="6"/><circle cx="1462" cy="365" r="6"/><circle cx="1570" cy="337" r="5"/><circle cx="1648" cy="399" r="4"/><circle cx="1724" cy="375" r="5"/><circle cx="1814" cy="398" r="5"/><circle cx="1865" cy="347" r="6"/><circle cx="1937" cy="346" r="5"/><circle cx="2052" cy="347" r="6"/><circle cx="2114" cy="337" r="4"/><circle cx="2211" cy="392" r="4"/><circle cx="2279" cy="382" r="5"/><circle cx="2365" cy="338" r="5"/><circle cx="2416" cy="349" r="5"/><circle cx="2517" cy="360" r="4"/><circle cx="78" cy="447" r="5"/><circle cx="88" cy="452" r="5"/><circle cx="213" cy="434" r="4"/><circle cx="269" cy="412" r="5"/><circle cx="371" cy="465" r="5"/><circle cx="454" cy="478" r="5"/><circle cx="486" cy="418" r="6"/><circle cx="568" cy="463" r="5"/><circle cx="646" cy="433" r="4"/><circle cx="739" cy="478" r="5"/><circle cx="860" cy="406" r="4"/><circle cx="911" cy="445" r="5"/><circle cx="1002" cy="476" r="4"/><circle cx="1075" cy="463" r="6"/><circle cx="1159" cy="443" r="5"/><circle cx="1257" cy="440" r="4"/><circle cx="1327" cy="421" r="6"/><circle cx="1404" cy="423" r="4"/><circle cx="1489" cy="469" r="5"/><circle cx="1594" cy="436" r="4"/><circle cx="1646" cy="424" r="6"/><circle cx="1725" cy="463" r="6"/><circle cx="1787" cy="429" r="6"/><circle cx="1869" cy="401" r="6"/><circle cx="1957" cy="423" r="5"/><circle cx="2017" cy="448" r="5"/><circle cx="2159" cy="416" r="5"/><circle cx="2188" cy="433" r="5"/><circle cx="2318" cy="403" r="4"/><circle cx="2372" cy="409" r="4"/><circle cx="2438" cy="413" r="5"/><circle cx="2542" cy="405" r="5"/><circle cx="0" cy="494" r="6"/><circle cx="2560" cy="494" r="6"/><circle cx="110" cy="530" r="6"/><circle cx="232" cy="540" r="6"/><circle cx="253" cy="488" r="6"/><circle cx="342" cy="520" r="5"/><circle cx="475" cy="521" r="5"/><circle cx="524" cy="532" r="5"/><circle cx="587" cy="541" r="5"/><circle cx="701" cy="487" r="5"/><circle cx="796" cy="521" r="4"/><circle cx="852" cy="548" r="5"/><circle cx="886" cy="560" r="5"/><circle cx="983" cy="542" r="5"/><circle cx="1041" cy="541" r="5"/><circle cx="1141" cy="492" r="5"/><circle cx="1237" cy="544" r="5"/><circle cx="1303" cy="528" r="5"/><circle cx="1402" cy="541" r="6"/><circle cx="1487" cy="553" r="5"/><circle cx="1544" cy="505" r="5"/><circle cx="1656" cy="504" r="5"/><circle cx="1726" cy="528" r="4"/><circle cx="1802" cy="488" r="4"/><circle cx="1846" cy="558" r="5"/><circle cx="1940" cy="538" r="6"/><circle cx="2002" cy="556" r="4"/><circle cx="2093" cy="557" r="6"/><circle cx="2218" cy="492" r="6"/><circle cx="2314" cy="499" r="5"/><circle cx="2387" cy="527" r="4"/><circle cx="2427" cy="483" r="5"/><circle cx="2552" cy="516" r="4"/><circle cx="31" cy="633" r="6"/><circle cx="123" cy="639" r="5"/><circle cx="170" cy="622" r="4"/><circle cx="274" cy="639" r="4"/><circle cx="375" cy="593" r="4"/><circle cx="402" cy="613" r="6"/><circle cx="501" cy="582" r="5"/><circle cx="631" cy="617" r="4"/><circle cx="688" cy="602" r="5"/><circle cx="785" cy="626" r="4"/><circle cx="825" cy="625" r="5"/><circle cx="890" cy="637" r="6"/><circle cx="967" cy="640" r="4"/><circle cx="1077" cy="606" r="6"/><circle cx="1142" cy="588" r="5"/><circle cx="1275" cy="561" r="4"/><circle cx="1298" cy="574" r="6"/><circle cx="1437" cy="637" r="4"/><circle cx="1491" cy="625" r="5"/><circle cx="1575" cy="625" r="4"/><circle cx="1654" cy="639" r="5"/><circle cx="1730" cy="603" r="5"/><circle cx="1806" cy="599" r="5"/><circle cx="1900" cy="568" r="6"/><circle cx="1922" cy="620" r="4"/><circle cx="2005" cy="633" r="6"/><circle cx="2127" cy="601" r="4"/><circle cx="2187" cy="595" r="6"/><circle cx="2246" cy="640" r="5"/><circle cx="2333" cy="588" r="5"/><circle cx="2423" cy="568" r="5"/><circle cx="2542" cy="591" r="5"/><circle cx="19" cy="701" r="5"/><circle cx="151" cy="695" r="5"/><circle cx="229" cy="696" r="4"/><circle cx="308" cy="671" r="6"/><circle cx="374" cy="703" r="4"/><circle cx="403" cy="642" r="4"/><circle cx="552" cy="719" r="5"/><circle cx="563" cy="717" r="5"/><circle cx="673" cy="715" r="5"/><circle cx="769" cy="673" r="4"/><circle cx="827" cy="710" r="4"/><circle cx="925" cy="695" r="5"/><circle cx="1014" cy="678" r="4"/><circle cx="1053" cy="711" r="5"/><circle cx="1194" cy="656" r="4"/><circle cx="1232" cy="684" r="6"/><circle cx="1348" cy="707" r="5"/><circle cx="1412" cy="645" r="5"/><circle cx="1445" cy="659" r="4"/><circle cx="1577" cy="702" r="5"/><circle cx="1670" cy="678" r="6"/><circle cx="1682" cy="700" r="5"/><circle cx="1820" cy="700" r="4"/><circle cx="1846" cy="701" r="4"/><circle cx="1944" cy="679" r="4"/><circle cx="2068" cy="654" r="5"/><circle cx="2111" cy="706" r="4"/><circle cx="2214" cy="685" r="5"/><circle cx="2240" cy="706" r="5"/><circle cx="2375" cy="655" r="6"/><circle cx="2451" cy="703" r="4"/><circle cx="2522" cy="682" r="4"/><circle cx="47" cy="744" r="4"/><circle cx="111" cy="756" r="4"/><circle cx="227" cy="746" r="5"/><circle cx="249" cy="783" r="5"/><circle cx="338" cy="787" r="6"/><circle cx="427" cy="753" r="5"/><circle cx="548" cy="754" r="4"/><circle cx="622" cy="780" r="6"/><circle cx="719" cy="756" r="6"/><circle cx="727" cy="732" r="5"/><circle cx="844" cy="749" r="4"/><circle cx="880" cy="771" r="5"/><circle cx="1021" cy="787" r="6"/><circle cx="1053" cy="754" r="5"/><circle cx="1158" cy="779" r="5"/><circle cx="1205" cy="752" r="5"/><circle cx="1328" cy="779" r="4"/><circle cx="1411" cy="729" r="5"/><circle cx="1518" cy="758" r="5"/><circle cx="1590" cy="762" r="5"/><circle cx="1663" cy="798" r="6"/><circle cx="1745" cy="778" r="6"/><circle cx="1780" cy="726" r="4"/><circle cx="1852" cy="728" r="5"/><circle cx="1926" cy="721" r="5"/><circle cx="2005" cy="791" r="5"/><circle cx="2133" cy="771" r="5"/><circle cx="2223" cy="797" r="5"/><circle cx="2284" cy="735" r="5"/><circle cx="2335" cy="751" r="4"/><circle cx="2440" cy="791" r="4"/><circle cx="2513" cy="725" r="4"/><circle cx="9" cy="811" r="4"/><circle cx="108" cy="829" r="5"/><circle cx="160" cy="820" r="6"/><circle cx="243" cy="851" r="6"/><circle cx="345" cy="802" r="6"/><circle cx="408" cy="863" r="5"/><circle cx="488" cy="863" r="5"/><circle cx="567" cy="806" r="5"/><circle cx="677" cy="860" r="4"/><circle cx="782" cy="835" r="5"/><circle cx="808" cy="862" r="4"/><circle cx="918" cy="803" r="5"/><circle cx="974" cy="817" r="5"/><circle cx="1056" cy="880" r="6"/><circle cx="1155" cy="825" r="5"/><circle cx="1213" cy="852" r="6"/><circle cx="1318" cy="875" r="6"/><circle cx="1407" cy="865" r="5"/><circle cx="1457" cy="821" r="5"/><circle cx="1565" cy="862" r="6"/><circle cx="1656" cy="871" r="6"/><circle cx="1723" cy="818" r="5"/><circle cx="1833" cy="841" r="5"/><circle cx="1851" cy="850" r="5"/><circle cx="1955" cy="845" r="6"/><circle cx="2012" cy="811" r="6"/><circle cx="2089" cy="803" r="5"/><circle cx="2230" cy="850" r="5"/><circle cx="2264" cy="803" r="6"/><circle cx="2341" cy="860" r="6"/><circle cx="2439" cy="880" r="4"/><circle cx="2495" cy="872" r="4"/><circle cx="57" cy="950" r="5"/><circle cx="92" cy="916" r="4"/><circle cx="201" cy="956" r="5"/><circle cx="315" cy="911" r="5"/><circle cx="400" cy="941" r="5"/><circle cx="423" cy="949" r="6"/><circle cx="522" cy="948" r="4"/><circle cx="581" cy="895" r="5"/><circle cx="717" cy="902" r="6"/><circle cx="761" cy="906" r="5"/><circle cx="872" cy="939" r="5"/><circle cx="959" cy="914" r="5"/><circle cx="972" cy="902" r="6"/><circle cx="1049" cy="923" r="5"/><circle cx="1195" cy="907" r="4"/><circle cx="1221" cy="891" r="5"/><circle cx="1342" cy="889" r="6"/><circle cx="1428" cy="958" r="6"/><circle cx="1501" cy="952" r="6"/><circle cx="1560" cy="918" r="4"/><circle cx="1655" cy="931" r="5"/><circle cx="1703" cy="907" r="6"/><circle cx="1830" cy="958" r="5"/><circle cx="1847" cy="883" r="5"/><circle cx="1972" cy="958" r="5"/><circle cx="2039" cy="956" r="6"/><circle cx="2122" cy="934" r="6"/><circle cx="2162" cy="960" r="5"/><circle cx="2251" cy="935" r="5"/><circle cx="2382" cy="907" r="5"/><circle cx="2461" cy="899" r="4"/><circle cx="2526" cy="890" r="6"/><circle cx="39" cy="968" r="5"/><circle cx="114" cy="975" r="6"/><circle cx="167" cy="989" r="5"/><circle cx="296" cy="993" r="5"/><circle cx="361" cy="1040" r="4"/><circle cx="459" cy="979" r="4"/><circle cx="505" cy="1028" r="5"/><circle cx="616" cy="990" r="4"/><circle cx="708" cy="976" r="6"/><circle cx="785" cy="971" r="5"/><circle cx="846" cy="1002" r="4"/><circle cx="902" cy="1011" r="6"/><circle cx="968" cy="988" r="5"/><circle cx="1102" cy="961" r="5"/><circle cx="1128" cy="974" r="6"/><circle cx="1255" cy="1000" r="4"/><circle cx="1346" cy="1012" r="5"/><circle cx="1373" cy="1021" r="5"/><circle cx="1474" cy="983" r="5"/><circle cx="1543" cy="1011" r="4"/><circle cx="1636" cy="965" r="5"/><circle cx="1756" cy="985" r="4"/><circle cx="1818" cy="1014" r="5"/><circle cx="1873" cy="974" r="6"/><circle cx="1981" cy="977" r="6"/><circle cx="2026" cy="1031" r="4"/><circle cx="2129" cy="999" r="5"/><circle cx="2167" cy="991" r="5"/><circle cx="2300" cy="1034" r="5"/><circle cx="2349" cy="1015" r="5"/><circle cx="2425" cy="964" r="5"/><circle cx="2538" cy="1003" r="5"/><circle cx="57" cy="1093" r="4"/><circle cx="132" cy="1104" r="4"/><circle cx="221" cy="1086" r="5"/><circle cx="298" cy="1087" r="5"/><circle cx="322" cy="1074" r="5"/><circle cx="422" cy="1092" r="5"/><circle cx="525" cy="1085" r="5"/><circle cx="580" cy="1110" r="6"/><circle cx="704" cy="1064" r="6"/><circle cx="721" cy="1059" r="5"/><circle cx="809" cy="1108" r="6"/><circle cx="945" cy="1084" r="5"/><circle cx="1026" cy="1086" r="6"/><circle cx="1045" cy="1070" r="6"/><circle cx="1124" cy="1098" r="4"/><circle cx="1213" cy="1051" r="5"/><circle cx="1327" cy="1047" r="6"/><circle cx="1392" cy="1119" r="4"/><circle cx="1512" cy="1090" r="4"/><circle cx="1520" cy="1102" r="4"/><circle cx="1678" cy="1054" r="4"/><circle cx="1709" cy="1118" r="5"/><circle cx="1811" cy="1113" r="5"/><circle cx="1888" cy="1046" r="5"/><circle cx="2000" cy="1060" r="5"/><circle cx="2077" cy="1070" r="5"/><circle cx="2156" cy="1046" r="4"/><circle cx="2236" cy="1112" r="6"/><circle cx="2297" cy="1052" r="4"/><circle cx="2399" cy="1077" r="5"/><circle cx="2406" cy="1049" r="5"/><circle cx="2529" cy="1079" r="5"/><circle cx="14" cy="1167" r="5"/><circle cx="127" cy="1147" r="6"/><circle cx="169" cy="1148" r="5"/><circle cx="295" cy="1191" r="5"/><circle cx="389" cy="1197" r="5"/><circle cx="446" cy="1153" r="5"/><circle cx="494" cy="1145" r="4"/><circle cx="616" cy="1154" r="5"/><circle cx="648" cy="1130" r="5"/><circle cx="749" cy="1150" r="6"/><circle cx="848" cy="1141" r="6"/><circle cx="915" cy="1185" r="5"/><circle cx="1032" cy="1128" r="6"/><circle cx="1084" cy="1189" r="4"/><circle cx="1121" cy="1178" r="4"/><circle cx="1269" cy="1149" r="5"/><circle cx="1281" cy="1154" r="4"/><circle cx="1432" cy="1196" r="5"/><circle cx="1485" cy="1137" r="5"/><circle cx="1523" cy="1138" r="6"/><circle cx="1618" cy="1154" r="5"/><circle cx="1742" cy="1197" r="6"/><circle cx="1766" cy="1151" r="6"/><circle cx="1862" cy="1155" r="6"/><circle cx="1942" cy="1194" r="5"/><circle cx="2042" cy="1190" r="5"/><circle cx="2085" cy="1193" r="5"/><circle cx="2240" cy="1169" r="4"/><circle cx="2299" cy="1127" r="4"/><circle cx="2365" cy="1156" r="6"/><circle cx="2442" cy="1184" r="5"/><circle cx="2482" cy="1193" r="5"/><circle cx="31" cy="1265" r="6"/><circle cx="122" cy="1262" r="5"/><circle cx="184" cy="1228" r="6"/><circle cx="252" cy="1231" r="4"/><circle cx="367" cy="1232" r="5"/><circle cx="451" cy="1255" r="5"/><circle cx="559" cy="1242" r="6"/><circle cx="603" cy="1228" r="5"/><circle cx="704" cy="1229" r="5"/><circle cx="798" cy="1205" r="6"/><circle cx="854" cy="1251" r="5"/><circle cx="952" cy="1212" r="4"/><circle cx="1013" cy="1204" r="5"/><circle cx="1040" cy="1220" r="6"/><circle cx="1172" cy="1241" r="5"/><circle cx="1207" cy="1275" r="4"/><circle cx="1350" cy="1212" r="5"/><circle cx="1427" cy="1225" r="6"/><circle cx="1506" cy="1277" r="5"/><circle cx="1588" cy="1257" r="6"/><circle cx="1628" cy="1260" r="5"/><circle cx="1723" cy="1202" r="6"/><circle cx="1781" cy="1205" r="5"/><circle cx="1842" cy="1260" r="6"/><circle cx="1986" cy="1225" r="4"/><circle cx="2003" cy="1221" r="6"/><circle cx="2159" cy="1255" r="6"/><circle cx="2181" cy="1255" r="6"/><circle cx="2312" cy="1210" r="5"/><circle cx="2383" cy="1260" r="6"/><circle cx="2424" cy="1263" r="6"/><circle cx="2506" cy="1236" r="6"/><circle cx="58" cy="1322" r="5"/><circle cx="117" cy="1326" r="5"/><circle cx="234" cy="1355" r="5"/><circle cx="244" cy="1341" r="5"/><circle cx="343" cy="1339" r="5"/><circle cx="435" cy="1318" r="5"/><circle cx="486" cy="1291" r="5"/><circle cx="593" cy="1334" r="5"/><circle cx="715" cy="1303" r="4"/><circle cx="770" cy="1354" r="4"/><circle cx="813" cy="1329" r="6"/><circle cx="947" cy="1296" r="5"/><circle cx="994" cy="1297" r="6"/><circle cx="1120" cy="1331" r="4"/><circle cx="1170" cy="1303" r="5"/><circle cx="1227" cy="1342" r="6"/><circle cx="1336" cy="1306" r="5"/><circle cx="1435" cy="1296" r="5"/><circle cx="1454" cy="1318" r="5"/><circle cx="1581" cy="1319" r="6"/><circle cx="1615" cy="1304" r="5"/><circle cx="1693" cy="1358" r="4"/><circle cx="1795" cy="1288" r="5"/><circle cx="1889" cy="1323" r="4"/><circle cx="1977" cy="1355" r="6"/><circle cx="2058" cy="1359" r="5"/><circle cx="2131" cy="1334" r="4"/><circle cx="2238" cy="1281" r="5"/><circle cx="2313" cy="1351" r="4"/><circle cx="2326" cy="1345" r="5"/><circle cx="2421" cy="1339" r="6"/><circle cx="2552" cy="1327" r="5"/><circle cx="45" cy="1383" r="6"/><circle cx="137" cy="1380" r="4"/><circle cx="214" cy="1384" r="5"/><circle cx="316" cy="1395" r="6"/><circle cx="347" cy="1403" r="5"/><circle cx="473" cy="1405" r="4"/><circle cx="511" cy="1401" r="5"/><circle cx="612" cy="1409" r="5"/><circle cx="646" cy="1396" r="5"/><circle cx="749" cy="1387" r="4"/><circle cx="809" cy="1420" r="5"/><circle cx="924" cy="1426" r="6"/><circle cx="1021" cy="1439" r="5"/><circle cx="1021" cy="-1" r="5"/><circle cx="1116" cy="1425" r="4"/><circle cx="1177" cy="1376" r="5"/><circle cx="1239" cy="1365" r="5"/><circle cx="1352" cy="1396" r="5"/><circle cx="1372" cy="1371" r="5"/><circle cx="1465" cy="1413" r="5"/><circle cx="1571" cy="1391" r="4"/><circle cx="1677" cy="1404" r="6"/><circle cx="1694" cy="1399" r="5"/><circle cx="1806" cy="1367" r="5"/><circle cx="1882" cy="1391" r="4"/><circle cx="1958" cy="1438" r="4"/><circle cx="1958" cy="-2" r="4"/><circle cx="2016" cy="1362" r="5"/><circle cx="2100" cy="1389" r="4"/><circle cx="2230" cy="1360" r="4"/><circle cx="2258" cy="1413" r="4"/><circle cx="2363" cy="1394" r="4"/><circle cx="2402" cy="1393" r="6"/><circle cx="2554" cy="1373" r="4"/><path stroke="#fff" d="M52 30L148 49M52 30L-53 17M52 30L42 152M52 30L125 85M52 30L45 -57M2612 30L2507 17M52 1470L45 1383M148 49L173 41M148 49L125 85M148 49L222 91M148 49L137 -60M148 1489L137 1380M173 41L125 85M173 41L222 91M173 41L137 -60M173 41L214 -56M173 1481L137 1380M173 1481L214 1384M304 48L349 7M304 48L288 100M304 48L337 107M304 48L316 -45M304 48L347 -37M304 1488L316 1395M304 1488L347 1403M349 7L429 7M349 7L337 107M349 7L316 -45M349 7L347 -37M349 1447L316 1395M349 1447L347 1403M429 7L520 32M429 7L347 -37M429 7L473 -35M429 7L511 -39M429 1447L347 1403M429 1447L473 1405M429 1447L511 1401M520 32L562 67M520 32L498 115M520 32L473 -35M520 32L511 -39M520 1472L473 1405M520 1472L511 1401M562 67L498 115M562 67L620 92M562 67L526 175M712 31L742 75M712 31L620 92M712 31L646 -44M712 31L749 -53M712 1471L646 1396M712 1471L749 1387M742 75L827 29M742 75L709 152M742 75L757 138M827 29L873 120M827 29L809 -20M827 29L924 -14M827 1469L809 1420M827 1469L924 1426M944 9L1037 51M944 9L924 -14M944 9L1021 -1M944 1449L924 1426M944 1449L1021 1439M1037 51L1059 27M1037 51L1034 133M1037 51L1099 82M1037 51L1021 -1M1037 1491L1021 1439M1059 27L1160 43M1059 27L1099 82M1059 27L1021 -1M1059 27L1116 -15M1059 1467L1021 1439M1059 1467L1116 1425M1160 43L1099 82M1160 43L1199 90M1160 43L1116 -15M1160 1483L1116 1425M1280 37L1329 12M1280 37L1199 90M1280 37L1266 97M1280 37L1325 81M1329 12L1379 20M1329 12L1325 81M1329 12L1352 -44M1329 12L1372 -69M1329 1452L1352 1396M1329 1452L1372 1371M1379 20L1325 81M1379 20L1402 110M1379 20L1352 -44M1379 20L1372 -69M1379 1460L1352 1396M1379 1460L1372 1371M1488 56L1592 35M1488 56L1402 110M1488 56L1444 98M1488 56L1567 124M1488 56L1465 -27M1488 1496L1465 1413M1592 35L1654 12M1592 35L1567 124M1592 35L1634 98M1592 35L1571 -49M1592 1475L1571 1391M1654 12L1749 58M1654 12L1634 98M1654 12L1677 -36M1654 12L1694 -41M1654 1452L1677 1404M1654 1452L1694 1399M1749 58L1817 52M1749 58L1702 131M1749 58L1816 120M1749 58L1677 -36M1749 1498L1677 1404M1817 52L1907 65M1817 52L1816 120M1817 52L1814 165M1907 65L1978 28M1907 65L1880 127M1907 65L1952 88M1907 65L1958 -2M1907 1505L1958 1438M1978 28L2021 29M1978 28L1952 88M1978 28L1958 -2M1978 1468L1958 1438M2021 29L2121 39M2021 29L1952 88M2021 29L2021 134M2021 29L1958 -2M2021 1469L1958 1438M2121 39L2200 70M2121 39L2130 158M2121 39L2211 85M2121 39L2100 -51M2121 1479L2100 1389M2200 70L2308 68M2200 70L2211 85M2200 70L2247 143M2308 68L2348 24M2308 68L2211 85M2308 68L2336 146M2348 24L2258 -27M2348 24L2363 -46M2348 24L2402 -47M2348 1464L2258 1413M2348 1464L2363 1394M2348 1464L2402 1393M2477 6L2507 17M2477 6L2499 95M2477 6L2402 -47M2477 6L2554 -67M2477 1446L2402 1393M2477 1446L2554 1373M2507 17L2499 95M2507 17L2554 -67M2507 1457L2554 1373M42 152L125 85M42 152L-61 95M42 152L58 193M42 152L81 222M2602 152L2499 95M125 85L222 91M222 91L288 100M288 100L337 107M288 100L316 205M337 107L414 154M337 107L316 205M414 154L498 115M414 154L316 205M414 154L394 201M414 154L436 235M498 115L526 175M498 115L586 168M620 92L709 152M620 92L586 168M620 92L647 188M709 152L757 138M709 152L647 188M709 152L769 178M757 138L769 178M757 138L823 213M873 120L921 157M873 120L769 178M921 157L907 236M1034 133L1099 82M1034 133L1023 220M1034 133L1050 188M1099 82L1199 90M1199 90L1266 97M1266 97L1325 81M1325 81L1402 110M1402 110L1444 98M1402 110L1380 189M1444 98L1567 124M1444 98L1380 189M1444 98L1465 -27M1444 1538L1465 1413M1567 124L1634 98M1567 124L1581 166M1634 98L1702 131M1634 98L1581 166M1702 131L1669 198M1702 131L1680 215M1816 120L1880 127M1816 120L1814 165M1816 120L1888 165M1880 127L1952 88M1880 127L1814 165M1880 127L1888 165M1952 88L2021 134M2021 134L2130 158M2021 134L2031 216M2130 158L2139 179M2130 158L2181 198M2211 85L2247 143M2247 143L2336 146M2247 143L2181 198M2247 143L2298 180M2336 146L2298 180M2336 146L2334 221M2464 144L2499 95M2464 144L2446 200M2464 144L2517 235M2464 144L2488 253M58 193L81 222M81 222L187 205M81 222L36 313M81 222L158 298M187 205L158 298M187 205L174 315M316 205L394 201M316 205L318 259M394 201L436 235M394 201L389 283M394 201L424 263M436 235L389 283M436 235L424 263M436 235L524 249M526 175L586 168M526 175L524 249M526 175L571 261M586 168L647 188M586 168L571 261M769 178L823 213M769 178L750 257M823 213L907 236M823 213L750 257M823 213L809 315M907 236L947 281M907 236L979 287M907 236L900 325M1023 220L1050 188M1023 220L947 281M1023 220L979 287M1023 220L1068 251M1050 188L1068 251M1196 237L1271 233M1196 237L1127 293M1271 233L1316 231M1271 233L1275 283M1271 233L1345 264M1316 231L1380 189M1316 231L1275 283M1316 231L1345 264M1316 231L1399 292M1380 189L1399 292M1509 235L1581 166M1509 235L1519 293M1509 235L1580 248M1581 166L1580 248M1669 198L1680 215M1669 198L1675 288M1680 215L1580 248M1680 215L1675 288M1680 215L1688 318M1814 165L1888 165M1814 165L1799 277M1888 165L1921 225M1921 225L2031 216M1921 225L1877 282M1921 225L1967 253M2031 216L1967 253M2031 216L2079 290M2031 216L2114 274M2139 179L2181 198M2298 180L2334 221M2298 180L2287 275M2334 221L2287 275M2334 221L2379 241M2446 200L2517 235M2446 200L2379 241M2446 200L2488 253M2517 235L2596 313M2517 235L2462 302M2517 235L2488 253M-43 235L36 313M36 313L3 376M36 313L-43 360M36 313L-18 405M2596 313L2517 360M2596 313L2542 405M158 298L174 315M158 298L147 331M158 298L191 345M174 315L147 331M174 315L191 345M318 259L389 283M318 259L316 323M318 259L357 354M389 283L424 263M389 283L357 354M424 263L459 353M524 249L571 261M524 249L540 330M524 249L567 335M571 261L540 330M571 261L567 335M666 318L750 257M666 318L567 335M666 318L655 391M666 318L779 347M666 318L646 433M750 257L809 315M750 257L779 347M809 315L779 347M809 315L850 360M809 315L900 325M947 281L979 287M947 281L900 325M947 281L970 384M979 287L1068 251M979 287L900 325M1068 251L1127 293M1068 251L1073 346M1127 293L1073 346M1127 293L1178 373M1275 283L1345 264M1275 283L1240 370M1345 264L1399 292M1345 264L1361 341M1399 292L1361 341M1399 292L1462 365M1519 293L1580 248M1519 293L1462 365M1519 293L1570 337M1580 248L1570 337M1675 288L1688 318M1675 288L1570 337M1688 318L1648 399M1688 318L1724 375M1799 277L1877 282M1799 277L1865 347M1877 282L1967 253M1877 282L1865 347M1877 282L1937 346M1967 253L2079 290M1967 253L1937 346M2079 290L2114 274M2079 290L2052 347M2079 290L2114 337M2114 274L2187 315M2114 274L2052 347M2114 274L2114 337M2187 315L2114 337M2187 315L2211 392M2187 315L2159 416M2287 275L2379 241M2287 275L2279 382M2287 275L2365 338M2462 302L2488 253M2462 302L2416 349M2462 302L2517 360M3 376L-43 360M3 376L78 447M3 376L-18 405M2563 376L2517 360M2563 376L2542 405M147 331L191 345M191 345L213 434M191 345L269 412M316 323L357 354M316 323L269 412M357 354L459 353M357 354L269 412M459 353L540 330M459 353L486 418M540 330L567 335M540 330L486 418M567 335L655 391M655 391L568 463M655 391L646 433M655 391L701 487M779 347L850 360M779 347L860 406M850 360L900 325M850 360L860 406M850 360L911 445M970 384L1073 346M970 384L911 445M970 384L1002 476M1073 346L1178 373M1178 373L1240 370M1178 373L1159 443M1178 373L1257 440M1240 370L1311 400M1240 370L1257 440M1240 370L1327 421M1311 400L1361 341M1311 400L1257 440M1311 400L1327 421M1311 400L1404 423M1361 341L1462 365M1361 341L1327 421M1462 365L1404 423M1462 365L1489 469M1648 399L1724 375M1648 399L1594 436M1648 399L1646 424M1724 375L1646 424M1724 375L1725 463M1724 375L1787 429M1814 398L1865 347M1814 398L1787 429M1814 398L1869 401M1814 398L1802 488M1865 347L1937 346M1865 347L1869 401M1937 346L1869 401M1937 346L1957 423M2052 347L2114 337M2052 347L2017 448M2114 337L2159 416M2211 392L2279 382M2211 392L2159 416M2211 392L2188 433M2211 392L2218 492M2279 382L2188 433M2279 382L2318 403M2365 338L2416 349M2365 338L2318 403M2365 338L2372 409M2416 349L2372 409M2416 349L2438 413M2517 360L2438 413M2517 360L2542 405M78 447L88 452M78 447L0 494M78 447L110 530M88 452L0 494M88 452L110 530M88 452L-8 516M2648 452L2552 516M213 434L269 412M213 434L232 540M213 434L253 488M269 412L253 488M371 465L454 478M371 465L253 488M371 465L342 520M454 478L486 418M454 478L475 521M454 478L524 532M486 418L568 463M486 418L475 521M568 463L646 433M568 463L524 532M568 463L587 541M646 433L739 478M646 433L701 487M739 478L701 487M739 478L796 521M860 406L911 445M911 445L1002 476M1002 476L1075 463M1002 476L983 542M1002 476L1041 541M1075 463L1159 443M1075 463L1041 541M1075 463L1141 492M1159 443L1257 440M1159 443L1141 492M1257 440L1327 421M1327 421L1404 423M1404 423L1489 469M1489 469L1402 541M1489 469L1487 553M1489 469L1544 505M1594 436L1646 424M1594 436L1544 505M1594 436L1656 504M1646 424L1725 463M1646 424L1656 504M1725 463L1787 429M1725 463L1656 504M1725 463L1726 528M1787 429L1869 401M1787 429L1802 488M1869 401L1957 423M1957 423L2017 448M2017 448L2002 556M2159 416L2188 433M2159 416L2218 492M2188 433L2218 492M2318 403L2372 409M2318 403L2314 499M2372 409L2438 413M2372 409L2427 483M2438 413L2542 405M2438 413L2427 483M2542 405L2560 494M-18 405L0 494M0 494L-8 516M0 494L-18 591M2560 494L2552 516M2560 494L2542 591M110 530L123 639M110 530L170 622M232 540L253 488M232 540L342 520M232 540L170 622M232 540L274 639M253 488L342 520M342 520L375 593M475 521L524 532M475 521L501 582M524 532L587 541M524 532L501 582M587 541L501 582M587 541L631 617M701 487L796 521M701 487L688 602M796 521L852 548M796 521L886 560M852 548L886 560M852 548L825 625M852 548L890 637M886 560L983 542M886 560L825 625M886 560L890 637M983 542L1041 541M983 542L967 640M983 542L1077 606M1041 541L1141 492M1041 541L1077 606M1141 492L1237 544M1141 492L1142 588M1237 544L1303 528M1237 544L1142 588M1237 544L1275 561M1237 544L1298 574M1303 528L1402 541M1303 528L1275 561M1303 528L1298 574M1402 541L1487 553M1402 541L1298 574M1487 553L1544 505M1487 553L1437 637M1487 553L1491 625M1544 505L1656 504M1656 504L1726 528M1726 528L1802 488M1726 528L1730 603M1802 488L1846 558M1846 558L1940 538M1846 558L1806 599M1846 558L1900 568M1846 558L1922 620M1940 538L2002 556M1940 538L1900 568M1940 538L1922 620M1940 538L2005 633M2002 556L2093 557M2002 556L1900 568M2002 556L2005 633M2093 557L2127 601M2093 557L2187 595M2093 557L2068 654M2218 492L2314 499M2218 492L2187 595M2314 499L2387 527M2314 499L2427 483M2314 499L2333 588M2387 527L2427 483M2387 527L2333 588M2387 527L2423 568M2427 483L2423 568M2552 516L2542 591M31 633L123 639M31 633L-18 591M31 633L19 701M31 633L-38 682M31 633L47 744M2591 633L2542 591M2591 633L2522 682M123 639L170 622M123 639L151 695M170 622L151 695M274 639L375 593M274 639L229 696M274 639L308 671M375 593L402 613M375 593L403 642M402 613L501 582M402 613L308 671M402 613L374 703M402 613L403 642M501 582L403 642M631 617L688 602M688 602L785 626M688 602L673 715M785 626L825 625M785 626L769 673M785 626L827 710M825 625L890 637M825 625L769 673M890 637L967 640M890 637L925 695M967 640L925 695M967 640L1014 678M1077 606L1142 588M1077 606L1014 678M1077 606L1053 711M1142 588L1194 656M1275 561L1298 574M1298 574L1232 684M1437 637L1491 625M1437 637L1412 645M1437 637L1445 659M1437 637L1411 729M1491 625L1575 625M1491 625L1412 645M1491 625L1445 659M1575 625L1654 639M1575 625L1577 702M1654 639L1730 603M1654 639L1577 702M1654 639L1670 678M1654 639L1682 700M1730 603L1806 599M1730 603L1670 678M1730 603L1682 700M1806 599L1900 568M1806 599L1820 700M1806 599L1846 701M1900 568L1922 620M1922 620L2005 633M1922 620L1944 679M2005 633L1944 679M2005 633L2068 654M2127 601L2187 595M2127 601L2068 654M2127 601L2111 706M2187 595L2246 640M2187 595L2214 685M2246 640L2333 588M2246 640L2214 685M2246 640L2240 706M2333 588L2423 568M2333 588L2375 655M2423 568L2542 591M2423 568L2375 655M2542 591L2522 682M19 701L-38 682M19 701L47 744M19 701L111 756M19 701L-47 725M2579 701L2522 682M2579 701L2513 725M151 695L229 696M151 695L111 756M151 695L227 746M229 696L308 671M229 696L227 746M308 671L374 703M308 671L403 642M374 703L403 642M374 703L338 787M374 703L427 753M552 719L563 717M552 719L548 754M552 719L622 780M552 719L567 806M563 717L673 715M563 717L548 754M563 717L622 780M563 717L567 806M673 715L622 780M673 715L719 756M673 715L727 732M769 673L827 710M769 673L719 756M769 673L727 732M827 710L844 749M827 710L880 771M925 695L1014 678M925 695L844 749M925 695L880 771M1014 678L1053 711M1014 678L1053 754M1053 711L1021 787M1053 711L1053 754M1194 656L1232 684M1194 656L1205 752M1232 684L1348 707M1232 684L1158 779M1232 684L1205 752M1348 707L1412 645M1348 707L1445 659M1348 707L1328 779M1348 707L1411 729M1412 645L1445 659M1412 645L1411 729M1445 659L1411 729M1577 702L1670 678M1577 702L1518 758M1577 702L1590 762M1670 678L1682 700M1682 700L1663 798M1682 700L1745 778M1820 700L1846 701M1820 700L1780 726M1820 700L1852 728M1846 701L1780 726M1846 701L1852 728M1846 701L1926 721M1944 679L1926 721M2068 654L2111 706M2111 706L2214 685M2111 706L2133 771M2111 706L2089 803M2214 685L2240 706M2214 685L2284 735M2240 706L2223 797M2240 706L2284 735M2375 655L2451 703M2375 655L2335 751M2451 703L2522 682M2451 703L2440 791M2451 703L2513 725M2522 682L2513 725M47 744L111 756M47 744L9 811M47 744L108 829M111 756L108 829M111 756L160 820M227 746L249 783M227 746L160 820M227 746L243 851M249 783L338 787M249 783L160 820M249 783L243 851M249 783L345 802M338 787L427 753M338 787L345 802M338 787L408 863M427 753L345 802M548 754L622 780M548 754L567 806M622 780L567 806M719 756L727 732M719 756L677 860M719 756L782 835M844 749L880 771M844 749L782 835M844 749L918 803M880 771L918 803M1021 787L1053 754M1021 787L918 803M1021 787L974 817M1021 787L1056 880M1053 754L1158 779M1158 779L1205 752M1158 779L1155 825M1158 779L1213 852M1205 752L1155 825M1328 779L1318 875M1328 779L1342 889M1411 729L1457 821M1518 758L1590 762M1518 758L1457 821M1590 762L1663 798M1590 762L1565 862M1663 798L1745 778M1663 798L1656 871M1663 798L1723 818M1745 778L1780 726M1745 778L1723 818M1745 778L1833 841M1780 726L1852 728M1852 728L1926 721M1852 728L1833 841M1926 721L2005 791M1926 721L2012 811M2005 791L1955 845M2005 791L2012 811M2005 791L2089 803M2133 771L2223 797M2133 771L2012 811M2133 771L2089 803M2223 797L2284 735M2223 797L2230 850M2223 797L2264 803M2284 735L2335 751M2284 735L2264 803M2335 751L2264 803M2440 791L2513 725M2440 791L2495 872M2513 725L2569 811M-47 725L9 811M9 811L108 829M9 811L-65 872M9 811L-34 890M2569 811L2495 872M2569 811L2526 890M108 829L160 820M108 829L92 916M160 820L243 851M243 851L345 802M243 851L315 911M345 802L408 863M408 863L488 863M408 863L400 941M408 863L423 949M488 863L423 949M488 863L522 948M488 863L581 895M567 806L581 895M677 860L581 895M677 860L717 902M782 835L808 862M782 835L717 902M782 835L761 906M808 862L761 906M918 803L974 817M974 817L972 902M1056 880L959 914M1056 880L972 902M1056 880L1049 923M1056 880L1102 961M1155 825L1213 852M1155 825L1195 907M1155 825L1221 891M1213 852L1318 875M1213 852L1195 907M1213 852L1221 891M1318 875L1407 865M1318 875L1221 891M1318 875L1342 889M1407 865L1457 821M1407 865L1342 889M1407 865L1428 958M1565 862L1656 871M1565 862L1501 952M1565 862L1560 918M1565 862L1655 931M1656 871L1723 818M1656 871L1655 931M1656 871L1703 907M1723 818L1833 841M1723 818L1703 907M1833 841L1851 850M1833 841L1847 883M1851 850L1955 845M1851 850L1847 883M1955 845L2012 811M1955 845L1847 883M1955 845L1972 958M2012 811L2089 803M2230 850L2264 803M2230 850L2341 860M2230 850L2251 935M2264 803L2341 860M2341 860L2251 935M2341 860L2382 907M2439 880L2495 872M2439 880L2382 907M2439 880L2461 899M2439 880L2526 890M2439 880L2425 964M2495 872L2461 899M2495 872L2526 890M57 950L92 916M57 950L39 968M57 950L114 975M57 950L-22 1003M2617 950L2538 1003M92 916L39 968M92 916L114 975M92 916L167 989M201 956L315 911M201 956L114 975M201 956L167 989M201 956L296 993M315 911L400 941M315 911L296 993M400 941L423 949M400 941L361 1040M400 941L459 979M423 949L522 948M423 949L459 979M522 948L581 895M522 948L459 979M522 948L505 1028M581 895L616 990M717 902L761 906M717 902L708 976M717 902L785 971M761 906L708 976M761 906L785 971M872 939L959 914M872 939L785 971M872 939L846 1002M872 939L902 1011M959 914L972 902M959 914L1049 923M959 914L968 988M972 902L1049 923M972 902L968 988M1049 923L1102 961M1049 923L1128 974M1195 907L1221 891M1195 907L1102 961M1195 907L1128 974M1221 891L1342 889M1428 958L1501 952M1428 958L1346 1012M1428 958L1373 1021M1428 958L1474 983M1501 952L1560 918M1501 952L1474 983M1501 952L1543 1011M1560 918L1655 931M1560 918L1636 965M1655 931L1703 907M1655 931L1636 965M1703 907L1636 965M1703 907L1756 985M1830 958L1847 883M1830 958L1756 985M1830 958L1818 1014M1830 958L1873 974M1830 958L1888 1046M1847 883L1873 974M1972 958L2039 956M1972 958L1981 977M1972 958L2026 1031M2039 956L2122 934M2039 956L1981 977M2039 956L2026 1031M2122 934L2162 960M2122 934L2129 999M2122 934L2167 991M2162 960L2251 935M2162 960L2129 999M2162 960L2167 991M2162 960L2156 1046M2251 935L2167 991M2382 907L2461 899M2382 907L2425 964M2461 899L2526 890M2461 899L2425 964M2526 890L2599 968M-34 890L39 968M39 968L114 975M39 968L-22 1003M2599 968L2538 1003M114 975L167 989M167 989L221 1086M296 993L361 1040M296 993L298 1087M296 993L322 1074M361 1040L298 1087M361 1040L322 1074M361 1040L422 1092M459 979L505 1028M505 1028L422 1092M505 1028L525 1085M505 1028L580 1110M708 976L785 971M708 976L704 1064M708 976L721 1059M785 971L846 1002M846 1002L902 1011M902 1011L968 988M902 1011L945 1084M968 988L945 1084M968 988L1045 1070M1102 961L1128 974M1128 974L1213 1051M1255 1000L1346 1012M1255 1000L1213 1051M1255 1000L1327 1047M1346 1012L1373 1021M1346 1012L1327 1047M1373 1021L1474 983M1373 1021L1327 1047M1373 1021L1392 1119M1474 983L1543 1011M1474 983L1512 1090M1543 1011L1636 965M1543 1011L1512 1090M1543 1011L1520 1102M1636 965L1678 1054M1756 985L1818 1014M1756 985L1678 1054M1818 1014L1873 974M1818 1014L1811 1113M1818 1014L1888 1046M1873 974L1981 977M1873 974L1888 1046M1981 977L2026 1031M1981 977L2000 1060M2026 1031L2000 1060M2026 1031L2077 1070M2129 999L2167 991M2129 999L2077 1070M2129 999L2156 1046M2167 991L2156 1046M2300 1034L2349 1015M2300 1034L2236 1112M2300 1034L2297 1052M2300 1034L2406 1049M2349 1015L2425 964M2349 1015L2297 1052M2349 1015L2399 1077M2349 1015L2406 1049M2425 964L2406 1049M2538 1003L2617 1093M2538 1003L2529 1079M-22 1003L57 1093M57 1093L132 1104M57 1093L-31 1079M57 1093L14 1167M57 1093L127 1147M2617 1093L2529 1079M132 1104L221 1086M132 1104L127 1147M132 1104L169 1148M221 1086L298 1087M221 1086L127 1147M221 1086L169 1148M298 1087L322 1074M298 1087L295 1191M422 1092L389 1197M422 1092L446 1153M422 1092L494 1145M525 1085L580 1110M525 1085L446 1153M525 1085L494 1145M580 1110L494 1145M580 1110L616 1154M580 1110L648 1130M704 1064L721 1059M704 1064L809 1108M704 1064L648 1130M704 1064L749 1150M721 1059L809 1108M721 1059L648 1130M809 1108L749 1150M809 1108L848 1141M809 1108L798 1205M945 1084L1026 1086M945 1084L1045 1070M1026 1086L1045 1070M1026 1086L1124 1098M1026 1086L1032 1128M1045 1070L1124 1098M1045 1070L1032 1128M1124 1098L1213 1051M1124 1098L1121 1178M1213 1051L1269 1149M1327 1047L1392 1119M1327 1047L1269 1149M1392 1119L1432 1196M1512 1090L1520 1102M1512 1090L1485 1137M1512 1090L1523 1138M1520 1102L1485 1137M1520 1102L1523 1138M1520 1102L1618 1154M1678 1054L1709 1118M1709 1118L1742 1197M1709 1118L1766 1151M1709 1118L1723 1202M1811 1113L1888 1046M1811 1113L1766 1151M1811 1113L1862 1155M1888 1046L1862 1155M2000 1060L2077 1070M2077 1070L2156 1046M2156 1046L2236 1112M2236 1112L2297 1052M2236 1112L2240 1169M2236 1112L2299 1127M2297 1052L2399 1077M2297 1052L2299 1127M2399 1077L2406 1049M2399 1077L2365 1156M2529 1079L2574 1167M-31 1079L14 1167M14 1167L-78 1193M14 1167L31 1265M14 1167L-54 1236M2574 1167L2482 1193M2574 1167L2506 1236M127 1147L169 1148M127 1147L184 1228M169 1148L122 1262M169 1148L184 1228M295 1191L389 1197M295 1191L252 1231M295 1191L367 1232M389 1197L446 1153M389 1197L367 1232M389 1197L451 1255M446 1153L494 1145M616 1154L648 1130M616 1154L559 1242M616 1154L603 1228M616 1154L704 1229M749 1150L848 1141M749 1150L704 1229M749 1150L798 1205M848 1141L915 1185M848 1141L798 1205M848 1141L854 1251M915 1185L854 1251M915 1185L952 1212M1032 1128L1084 1189M1032 1128L1013 1204M1032 1128L1040 1220M1084 1189L1121 1178M1084 1189L1013 1204M1084 1189L1040 1220M1084 1189L1172 1241M1121 1178L1172 1241M1269 1149L1281 1154M1269 1149L1350 1212M1281 1154L1350 1212M1432 1196L1485 1137M1432 1196L1523 1138M1432 1196L1350 1212M1432 1196L1427 1225M1485 1137L1523 1138M1523 1138L1618 1154M1618 1154L1588 1257M1618 1154L1628 1260M1742 1197L1766 1151M1742 1197L1723 1202M1742 1197L1781 1205M1742 1197L1795 1288M1766 1151L1723 1202M1766 1151L1781 1205M1862 1155L1942 1194M1862 1155L1842 1260M1942 1194L2042 1190M1942 1194L1986 1225M1942 1194L2003 1221M2042 1190L2085 1193M2042 1190L1986 1225M2042 1190L2003 1221M2085 1193L1986 1225M2085 1193L2003 1221M2085 1193L2159 1255M2085 1193L2181 1255M2240 1169L2299 1127M2240 1169L2159 1255M2240 1169L2181 1255M2240 1169L2312 1210M2299 1127L2365 1156M2299 1127L2312 1210M2365 1156L2442 1184M2365 1156L2312 1210M2365 1156L2383 1260M2442 1184L2482 1193M2442 1184L2383 1260M2442 1184L2424 1263M2442 1184L2506 1236M2482 1193L2424 1263M2482 1193L2506 1236M31 1265L122 1262M31 1265L-54 1236M31 1265L58 1322M31 1265L-8 1327M2591 1265L2506 1236M2591 1265L2552 1327M122 1262L184 1228M122 1262L117 1326M184 1228L252 1231M367 1232L451 1255M451 1255L559 1242M451 1255L435 1318M451 1255L486 1291M559 1242L603 1228M559 1242L486 1291M559 1242L593 1334M603 1228L704 1229M603 1228L593 1334M704 1229L798 1205M704 1229L715 1303M798 1205L854 1251M854 1251L813 1329M854 1251L947 1296M952 1212L1013 1204M952 1212L1040 1220M952 1212L947 1296M952 1212L994 1297M1013 1204L1040 1220M1013 1204L994 1297M1040 1220L994 1297M1172 1241L1207 1275M1172 1241L1170 1303M1172 1241L1227 1342M1207 1275L1170 1303M1207 1275L1227 1342M1207 1275L1239 1365M1350 1212L1427 1225M1350 1212L1336 1306M1427 1225L1506 1277M1427 1225L1435 1296M1427 1225L1454 1318M1506 1277L1588 1257M1506 1277L1435 1296M1506 1277L1454 1318M1506 1277L1581 1319M1588 1257L1628 1260M1588 1257L1581 1319M1588 1257L1615 1304M1628 1260L1581 1319M1628 1260L1615 1304M1723 1202L1781 1205M1723 1202L1795 1288M1781 1205L1842 1260M1781 1205L1795 1288M1842 1260L1795 1288M1842 1260L1889 1323M1842 1260L1806 1367M1986 1225L2003 1221M2159 1255L2181 1255M2159 1255L2131 1334M2159 1255L2238 1281M2181 1255L2131 1334M2181 1255L2238 1281M2312 1210L2383 1260M2312 1210L2238 1281M2383 1260L2424 1263M2383 1260L2421 1339M2424 1263L2506 1236M2424 1263L2421 1339M58 1322L117 1326M58 1322L-8 1327M58 1322L45 1383M58 1322L-6 1373M2618 1322L2552 1327M2618 1322L2554 1373M117 1326L45 1383M117 1326L137 1380M234 1355L244 1341M234 1355L343 1339M234 1355L137 1380M234 1355L214 1384M244 1341L343 1339M244 1341L214 1384M244 1341L316 1395M343 1339L435 1318M343 1339L316 1395M343 1339L347 1403M435 1318L486 1291M435 1318L473 1405M593 1334L511 1401M593 1334L612 1409M593 1334L646 1396M715 1303L770 1354M715 1303L813 1329M715 1303L646 1396M715 1303L749 1387M770 1354L813 1329M770 1354L749 1387M770 1354L809 1420M813 1329L749 1387M813 1329L809 1420M947 1296L994 1297M947 1296L924 1426M1120 1331L1170 1303M1120 1331L1116 1425M1120 1331L1177 1376M1170 1303L1227 1342M1170 1303L1177 1376M1227 1342L1177 1376M1227 1342L1239 1365M1336 1306L1435 1296M1336 1306L1352 1396M1336 1306L1372 1371M1435 1296L1454 1318M1454 1318L1372 1371M1454 1318L1465 1413M1581 1319L1615 1304M1581 1319L1571 1391M1615 1304L1693 1358M1615 1304L1571 1391M1693 1358L1677 1404M1693 1358L1694 1399M1693 1358L1806 1367M1795 1288L1806 1367M1889 1323L1977 1355M1889 1323L1806 1367M1889 1323L1882 1391M1977 1355L2058 1359M1977 1355L1882 1391M1977 1355L1958 1438M1977 1355L2016 1362M2058 1359L2131 1334M2058 1359L2016 1362M2058 1359L2100 1389M2131 1334L2100 1389M2131 1334L2230 1360M2238 1281L2230 1360M2313 1351L2326 1345M2313 1351L2230 1360M2313 1351L2258 1413M2313 1351L2363 1394M2326 1345L2421 1339M2326 1345L2230 1360M2326 1345L2363 1394M2326 1345L2402 1393M2421 1339L2363 1394M2421 1339L2402 1393M2552 1327L2605 1383M2552 1327L2554 1373M-8 1327L45 1383M45 1383L-6 1373M2605 1383L2554 1373M137 1380L214 1384M316 1395L347 1403M473 1405L511 1401M511 1401L612 1409M612 1409L646 1396M749 1387L809 1420M809 1420L924 1426M924 1426L1021 1439M1021 1439L1116 1425M1116 1425L1177 1376M1177 1376L1239 1365M1352 1396L1372 1371M1352 1396L1465 1413M1465 1413L1571 1391M1571 1391L1677 1404M1677 1404L1694 1399M1806 1367L1882 1391M1958 1438L2016 1362M2016 1362L2100 1389M2230 1360L2258 1413M2363 1394L2402 1393"/></svg>