<svg xmlns="http://www.w3.org/2000/svg" width="2560" height="1440" fill="#fff"><circle cx="34" cy="25" r="4"/><circle cx="143" cy="28" r="5"/><circle cx="190" cy="31" r="6"/><circle cx="294" cy="49" r="5"/><circle cx="351" cy="39" r="5"/><circle cx="453" cy="11" r="5"/><circle cx="534" cy="4" r="5"/><circle cx="534" cy="1444" r="5"/><circle cx="589" cy="78" r="6"/><circle cx="677" cy="59" r="5"/><circle cx="723" cy="78" r="5"/><circle cx="856" cy="60" r="5"/><circle cx="883" cy="33" r="5"/><circle cx="1021" cy="38" r="4"/><circle cx="1103" cy="38" r="4"/><circle cx="1182" cy="28" r="5"/><circle cx="1243" cy="43" r="5"/><circle cx="1327" cy="52" r="6"/><circle cx="1365" cy="2" r="4"/><circle cx="1365" cy="1442" r="4"/><circle cx="1442" cy="38" r="4"/><circle cx="1600" cy="17" r="6"/><circle cx="1632" cy="50" r="5"/><circle cx="1758" cy="48" r="4"/><circle cx="1816" cy="47" r="5"/><circle cx="1906" cy="73" r="4"/><circle cx="1964" cy="67" r="5"/><circle cx="2005" cy="45" r="4"/><circle cx="2107" cy="7" r="4"/><circle cx="2207" cy="43" r="4"/><circle cx="2295" cy="78" r="4"/><circle cx="2380" cy="8" r="4"/><circle cx="2415" cy="75" r="5"/><circle cx="2501" cy="48" r="5"/><circle cx="63" cy="98" r="6"/><circle cx="103" cy="140" r="5"/><circle cx="218" cy="133" r="6"/><circle cx="298" cy="93" r="4"/><circle cx="382" cy="97" r="5"/><circle cx="420" cy="111" r="4"/><circle cx="518" cy="87" r="5"/><circle cx="567" cy="85" r="5"/><circle cx="656" cy="130" r="5"/><circle cx="743" cy="145" r="4"/><circle cx="833" cy="118" r="6"/><circle cx="910" cy="155" r="6"/><circle cx="1037" cy="141" r="4"/><circle cx="1105" cy="153" r="6"/><circle cx="1138" cy="146" r="5"/><circle cx="1213" cy="109" r="6"/><circle cx="1331" cy="98" r="5"/><circle cx="1367" cy="135" r="5"/><circle cx="1441" cy="97" r="6"/><circle cx="1565" cy="138" r="5"/><circle cx="1638" cy="155" r="5"/><circle cx="1727" cy="87" r="5"/><circle cx="1795" cy="96" r="5"/><circle cx="1861" cy="98" r="5"/><circle cx="1984" cy="96" r="5"/><circle cx="2052" cy="84" r="6"/><circle cx="2148" cy="155" r="6"/><circle cx="2234" cy="85" r="6"/><circle cx="2250" cy="137" r="5"/><circle cx="2395" cy="139" r="6"/><circle cx="2450" cy="154" r="4"/><circle cx="2535" cy="111" r="6"/><circle cx="36" cy="190" r="4"/><circle cx="149" cy="175" r="5"/><circle cx="186" cy="178" r="6"/><circle cx="309" cy="175" r="4"/><circle cx="339" cy="218" r="5"/><circle cx="434" cy="224" r="6"/><circle cx="494" cy="163" r="5"/><circle cx="634" cy="162" r="6"/><circle cx="650" cy="214" r="5"/><circle cx="722" cy="205" r="5"/><circle cx="857" cy="168" r="5"/><circle cx="918" cy="226" r="4"/><circle cx="1014" cy="207" r="4"/><circle cx="1099" cy="182" r="4"/><circle cx="1198" cy="194" r="6"/><circle cx="1207" cy="160" r="5"/><circle cx="1329" cy="221" r="6"/><circle cx="1364" cy="202" r="5"/><circle cx="1478" cy="195" r="6"/><circle cx="1551" cy="222" r="6"/><circle cx="1658" cy="228" r="5"/><circle cx="1743" cy="165" r="5"/><circle cx="1833" cy="195" r="6"/><circle cx="1904" cy="162" r="5"/><circle cx="1965" cy="208" r="4"/><circle cx="2019" cy="239" r="6"/><circle cx="2100" cy="214" r="5"/><circle cx="2239" cy="192" r="5"/><circle cx="2243" cy="209" r="5"/><circle cx="2384" cy="235" r="5"/><circle cx="2411" cy="195" r="6"/><circle cx="2500" cy="212" r="6"/><circle cx="23" cy="290" r="4"/><circle cx="114" cy="287" r="4"/><circle cx="218" cy="273" r="5"/><circle cx="274" cy="303" r="6"/><circle cx="377" cy="253" r="6"/><circle cx="410" cy="317" r="5"/><circle cx="512" cy="261" r="5"/><circle cx="579" cy="296" r="4"/><circle cx="662" cy="252" r="5"/><circle cx="725" cy="273" r="6"/><circle cx="824" cy="284" r="5"/><circle cx="908" cy="284" r="4"/><circle cx="1013" cy="274" r="4"/><circle cx="1095" cy="303" r="5"/><circle cx="1150" cy="302" r="5"/><circle cx="1277" cy="276" r="5"/><circle cx="1359" cy="269" r="5"/><circle cx="1385" cy="296" r="4"/><circle cx="1462" cy="257" r="5"/><circle cx="1533" cy="265" r="4"/><circle cx="1661" cy="258" r="6"/><circle cx="1684" cy="254" r="4"/><circle cx="1768" cy="267" r="6"/><circle cx="1905" cy="270" r="4"/><circle cx="1940" cy="291" r="6"/><circle cx="2055" cy="310" r="6"/><circle cx="2132" cy="289" r="5"/><circle cx="2219" cy="297" r="5"/><circle cx="2280" cy="303" r="4"/><circle cx="2352" cy="264" r="6"/><circle cx="2476" cy="305" r="6"/><circle cx="2514" cy="288" r="5"/><circle cx="61" cy="366" r="4"/><circle cx="110" cy="346" r="4"/><circle cx="182" cy="330" r="6"/><circle cx="281" cy="369" r="4"/><circle cx="372" cy="375" r="4"/><circle cx="473" cy="320" r="4"/><circle cx="505" cy="397" r="4"/><circle cx="588" cy="384" r="4"/><circle cx="675" cy="365" r="6"/><circle cx="725" cy="385" r="6"/><circle cx="851" cy="331" r="6"/><circle cx="892" cy="356" r="6"/><circle cx="1038" cy="369" r="6"/><circle cx="1111" cy="372" r="5"/><circle cx="1147" cy="357" r="6"/><circle cx="1277" cy="341" r="5"/><circle cx="1304" cy="374" r="5"/><circle cx="1431" cy="368" r="6"/><circle cx="1457" cy="321" r="6"/><circle cx="1546" cy="386" r="4"/><circle cx="1640" cy="332" r="6"/><circle cx="1701" cy="367" r="5"/><circle cx="1783" cy="393" r="5"/><circle cx="1907" cy="364" r="5"/><circle cx="1982" cy="379" r="6"/><circle cx="2077" cy="330" r="5"/><circle cx="2130" cy="380" r="5"/><circle cx="2202" cy="332" r="5"/><circle cx="2273" cy="358" r="5"/><circle cx="2354" cy="348" r="4"/><circle cx="2471" cy="372" r="5"/><circle cx="2485" cy="359" r="5"/><circle cx="47" cy="433" r="4"/><circle cx="117" cy="413" r="6"/><circle cx="223" cy="472" r="5"/><circle cx="256" cy="451" r="4"/><circle cx="392" cy="416" r="5"/><circle cx="469" cy="422" r="5"/><circle cx="530" cy="436" r="5"/><circle cx="592" cy="419" r="5"/><circle cx="655" cy="437" r="6"/><circle cx="749" cy="444" r="5"/><circle cx="856" cy="460" r="5"/><circle cx="924" cy="450" r="6"/><circle cx="975" cy="464" r="5"/><circle cx="1067" cy="452" r="4"/><circle cx="1170" cy="408" r="5"/><circle cx="1238" cy="421" r="6"/><circle cx="1286" cy="412" r="4"/><circle cx="1369" cy="409" r="6"/><circle cx="1441" cy="463" r="5"/><circle cx="1560" cy="443" r="5"/><circle cx="1628" cy="453" r="6"/><circle cx="1728" cy="479" r="5"/><circle cx="1787" cy="479" r="5"/><circle cx="1919" cy="477" r="5"/><circle cx="1922" cy="406" r="5"/><circle cx="2070" cy="471" r="5"/><circle cx="2127" cy="461" r="4"/><circle cx="2239" cy="452" r="4"/><circle cx="2242" cy="432" r="5"/><circle cx="2357" cy="462" r="5"/><circle cx="2426" cy="436" r="5"/><circle cx="2521" cy="460" r="6"/><circle cx="67" cy="531" r="4"/><circle cx="139" cy="514" r="6"/><circle cx="194" cy="534" r="6"/><circle cx="265" cy="555" r="4"/><circle cx="359" cy="498" r="6"/><circle cx="409" cy="500" r="4"/><circle cx="541" cy="515" r="5"/><circle cx="588" cy="555" r="5"/><circle cx="671" cy="539" r="6"/><circle cx="757" cy="540" r="4"/><circle cx="819" cy="549" r="5"/><circle cx="914" cy="497" r="4"/><circle cx="1018" cy="555" r="4"/><circle cx="1079" cy="540" r="5"/><circle cx="1128" cy="528" r="6"/><circle cx="1277" cy="502" r="6"/><circle cx="1357" cy="522" r="6"/><circle cx="1361" cy="535" r="5"/><circle cx="1456" cy="559" r="6"/><circle cx="1526" cy="533" r="5"/><circle cx="1618" cy="525" r="5"/><circle cx="1744" cy="558" r="5"/><circle cx="1828" cy="515" r="6"/><circle cx="1892" cy="541" r="5"/><circle cx="1986" cy="508" r="5"/><circle cx="2078" cy="551" r="6"/><circle cx="2144" cy="483" r="5"/><circle cx="2164" cy="543" r="4"/><circle cx="2248" cy="554" r="5"/><circle cx="2324" cy="484" r="5"/><circle cx="2412" cy="520" r="4"/><circle cx="2539" cy="492" r="5"/><circle cx="48" cy="605" r="6"/><circle cx="145" cy="606" r="4"/><circle cx="162" cy="608" r="5"/><circle cx="302" cy="567" r="5"/><circle cx="354" cy="560" r="4"/><circle cx="417" cy="570" r="4"/><circle cx="490" cy="604" r="4"/><circle cx="601" cy="600" r="5"/><circle cx="659" cy="609" r="4"/><circle cx="759" cy="629" r="4"/><circle cx="810" cy="587" r="5"/><circle cx="901" cy="577" r="5"/><circle cx="1030" cy="601" r="5"/><circle cx="1116" cy="577" r="5"/><circle cx="1158" cy="572" r="6"/><circle cx="1229" cy="607" r="5"/><circle cx="1343" cy="569" r="5"/><circle cx="1372" cy="595" r="4"/><circle cx="1477" cy="603" r="6"/><circle cx="1594" cy="617" r="6"/><circle cx="1645" cy="598" r="5"/><circle cx="1699" cy="635" r="5"/><circle cx="1813" cy="594" r="6"/><circle cx="1894" cy="584" r="5"/><circle cx="1950" cy="585" r="4"/><circle cx="2015" cy="563" r="6"/><circle cx="2158" cy="604" r="5"/><circle cx="2168" cy="573" r="6"/><circle cx="2254" cy="570" r="5"/><circle cx="2395" cy="590" r="6"/><circle cx="2457" cy="608" r="5"/><circle cx="2484" cy="562" r="5"/><circle cx="0" cy="684" r="5"/><circle cx="2560" cy="684" r="5"/><circle cx="147" cy="678" r="4"/><circle cx="180" cy="706" r="4"/><circle cx="319" cy="684" r="4"/><circle cx="376" cy="663" r="5"/><circle cx="437" cy="714" r="5"/><circle cx="510" cy="701" r="5"/><circle cx="627" cy="680" r="5"/><circle cx="709" cy="698" r="6"/><circle cx="793" cy="697" r="5"/><circle cx="853" cy="695" r="5"/><circle cx="901" cy="719" r="4"/><circle cx="1016" cy="660" r="6"/><circle cx="1055" cy="655" r="5"/><circle cx="1187" cy="709" r="6"/><circle cx="1202" cy="687" r="5"/><circle cx="1320" cy="663" r="5"/><circle cx="1420" cy="682" r="5"/><circle cx="1442" cy="672" r="5"/><circle cx="1559" cy="659" r="5"/><circle cx="1651" cy="712" r="4"/><circle cx="1688" cy="687" r="4"/><circle cx="1838" cy="663" r="5"/><circle cx="1872" cy="664" r="5"/><circle cx="1937" cy="648" r="5"/><circle cx="2020" cy="656" r="5"/><circle cx="2105" cy="651" r="5"/><circle cx="2195" cy="696" r="5"/><circle cx="2314" cy="656" r="5"/><circle cx="2370" cy="677" r="5"/><circle cx="2436" cy="647" r="6"/><circle cx="2534" cy="692" r="4"/><circle cx="40" cy="788" r="5"/><circle cx="128" cy="745" r="6"/><circle cx="177" cy="760" r="5"/><circle cx="265" cy="788" r="5"/><circle cx="322" cy="755" r="4"/><circle cx="431" cy="763" r="4"/><circle cx="543" cy="740" r="4"/><circle cx="571" cy="773" r="5"/><circle cx="704" cy="725" r="5"/><circle cx="750" cy="762" r="5"/><circle cx="847" cy="736" r="4"/><circle cx="956" cy="738" r="5"/><circle cx="982" cy="732" r="4"/><circle cx="1054" cy="733" r="5"/><circle cx="1125" cy="793" r="5"/><circle cx="1242" cy="765" r="5"/><circle cx="1323" cy="772" r="4"/><circle cx="1387" cy="794" r="6"/><circle cx="1454" cy="754" r="4"/><circle cx="1525" cy="768" r="5"/><circle cx="1673" cy="750" r="4"/><circle cx="1757" cy="728" r="5"/><circle cx="1776" cy="764" r="5"/><circle cx="1918" cy="734" r="5"/><circle cx="1952" cy="795" r="4"/><circle cx="2067" cy="782" r="5"/><circle cx="2130" cy="778" r="5"/><circle cx="2209" cy="732" r="4"/><circle cx="2303" cy="795" r="4"/><circle cx="2331" cy="791" r="5"/><circle cx="2455" cy="761" r="4"/><circle cx="2523" cy="773" r="5"/><circle cx="48" cy="837" r="5"/><circle cx="93" cy="811" r="4"/><circle cx="231" cy="823" r="4"/><circle cx="249" cy="825" r="4"/><circle cx="390" cy="802" r="5"/><circle cx="458" cy="813" r="4"/><circle cx="539" cy="875" r="4"/><circle cx="604" cy="875" r="6"/><circle cx="646" cy="842" r="4"/><circle cx="761" cy="840" r="5"/><circle cx="817" cy="800" r="6"/><circle cx="907" cy="837" r="4"/><circle cx="994" cy="800" r="4"/><circle cx="1078" cy="821" r="5"/><circle cx="1169" cy="822" r="5"/><circle cx="1274" cy="811" r="5"/><circle cx="1300" cy="808" r="6"/><circle cx="1386" cy="875" r="6"/><circle cx="1468" cy="864" r="4"/><circle cx="1582" cy="846" r="4"/><circle cx="1611" cy="836" r="5"/><circle cx="1709" cy="844" r="5"/><circle cx="1798" cy="805" r="5"/><circle cx="1881" cy="866" r="5"/><circle cx="1939" cy="818" r="6"/><circle cx="2029" cy="849" r="5"/><circle cx="2092" cy="817" r="6"/><circle cx="2220" cy="851" r="6"/><circle cx="2297" cy="827" r="5"/><circle cx="2378" cy="863" r="5"/><circle cx="2422" cy="839" r="4"/><circle cx="2494" cy="831" r="6"/><circle cx="23" cy="897" r="4"/><circle cx="139" cy="892" r="4"/><circle cx="226" cy="920" r="4"/><circle cx="274" cy="922" r="5"/><circle cx="351" cy="901" r="5"/><circle cx="467" cy="888" r="6"/><circle cx="543" cy="926" r="6"/><circle cx="580" cy="881" r="4"/><circle cx="692" cy="936" r="5"/><circle cx="775" cy="951" r="4"/><circle cx="845" cy="922" r="5"/><circle cx="897" cy="922" r="6"/><circle cx="987" cy="908" r="4"/><circle cx="1111" cy="921" r="6"/><circle cx="1147" cy="907" r="4"/><circle cx="1232" cy="929" r="6"/><circle cx="1355" cy="891" r="6"/><circle cx="1406" cy="945" r="4"/><circle cx="1465" cy="955" r="5"/><circle cx="1591" cy="906" r="5"/><circle cx="1648" cy="914" r="5"/><circle cx="1709" cy="924" r="6"/><circle cx="1819" cy="923" r="4"/><circle cx="1916" cy="893" r="6"/><circle cx="1997" cy="904" r="6"/><circle cx="2019" cy="922" r="5"/><circle cx="2146" cy="882" r="5"/><circle cx="2191" cy="934" r="5"/><circle cx="2278" cy="926" r="5"/><circle cx="2379" cy="891" r="5"/><circle cx="2455" cy="921" r="5"/><circle cx="2552" cy="942" r="5"/><circle cx="53" cy="997" r="6"/><circle cx="115" cy="1003" r="5"/><circle cx="172" cy="967" r="5"/><circle cx="279" cy="1002" r="5"/><circle cx="355" cy="1027" r="5"/><circle cx="448" cy="990" r="5"/><circle cx="507" cy="1018" r="6"/><circle cx="598" cy="983" r="5"/><circle cx="654" cy="1017" r="6"/><circle cx="727" cy="1018" r="6"/><circle cx="825" cy="1035" r="6"/><circle cx="951" cy="1012" r="6"/><circle cx="990" cy="980" r="5"/><circle cx="1055" cy="1015" r="5"/><circle cx="1175" cy="1008" r="6"/><circle cx="1205" cy="1037" r="4"/><circle cx="1291" cy="966" r="5"/><circle cx="1403" cy="1018" r="6"/><circle cx="1465" cy="1027" r="5"/><circle cx="1582" cy="965" r="5"/><circle cx="1657" cy="968" r="5"/><circle cx="1700" cy="993" r="5"/><circle cx="1818" cy="1001" r="5"/><circle cx="1901" cy="1000" r="6"/><circle cx="1946" cy="961" r="5"/><circle cx="2059" cy="1009" r="5"/><circle cx="2104" cy="1018" r="5"/><circle cx="2212" cy="994" r="6"/><circle cx="2282" cy="1017" r="6"/><circle cx="2347" cy="980" r="6"/><circle cx="2401" cy="1000" r="5"/><circle cx="2512" cy="961" r="5"/><circle cx="13" cy="1060" r="5"/><circle cx="107" cy="1044" r="4"/><circle cx="169" cy="1084" r="6"/><circle cx="251" cy="1118" r="5"/><circle cx="351" cy="1058" r="4"/><circle cx="434" cy="1071" r="4"/><circle cx="504" cy="1104" r="6"/><circle cx="578" cy="1057" r="5"/><circle cx="709" cy="1066" r="5"/><circle cx="790" cy="1109" r="6"/><circle cx="874" cy="1093" r="6"/><circle cx="931" cy="1105" r="6"/><circle cx="1021" cy="1074" r="4"/><circle cx="1050" cy="1067" r="5"/><circle cx="1130" cy="1091" r="6"/><circle cx="1263" cy="1071" r="5"/><circle cx="1356" cy="1069" r="5"/><circle cx="1430" cy="1096" r="5"/><circle cx="1464" cy="1055" r="5"/><circle cx="1598" cy="1048" r="4"/><circle cx="1636" cy="1072" r="4"/><circle cx="1694" cy="1066" r="6"/><circle cx="1772" cy="1100" r="5"/><circle cx="1905" cy="1092" r="5"/><circle cx="1986" cy="1080" r="5"/><circle cx="2075" cy="1082" r="5"/><circle cx="2142" cy="1071" r="4"/><circle cx="2196" cy="1117" r="5"/><circle cx="2301" cy="1093" r="4"/><circle cx="2368" cy="1103" r="4"/><circle cx="2473" cy="1059" r="5"/><circle cx="2536" cy="1094" r="4"/><circle cx="31" cy="1148" r="6"/><circle cx="84" cy="1198" r="4"/><circle cx="194" cy="1190" r="5"/><circle cx="284" cy="1154" r="5"/><circle cx="394" cy="1190" r="5"/><circle cx="469" cy="1158" r="5"/><circle cx="533" cy="1129" r="5"/><circle cx="567" cy="1183" r="5"/><circle cx="718" cy="1124" r="6"/><circle cx="766" cy="1142" r="6"/><circle cx="826" cy="1167" r="5"/><circle cx="949" cy="1188" r="6"/><circle cx="975" cy="1139" r="4"/><circle cx="1061" cy="1138" r="4"/><circle cx="1198" cy="1149" r="5"/><circle cx="1277" cy="1177" r="5"/><circle cx="1280" cy="1161" r="5"/><circle cx="1404" cy="1120" r="5"/><circle cx="1506" cy="1178" r="4"/><circle cx="1596" cy="1197" r="5"/><circle cx="1622" cy="1151" r="6"/><circle cx="1680" cy="1195" r="4"/><circle cx="1797" cy="1194" r="5"/><circle cx="1911" cy="1182" r="5"/><circle cx="1946" cy="1178" r="5"/><circle cx="2024" cy="1135" r="5"/><circle cx="2090" cy="1161" r="4"/><circle cx="2213" cy="1169" r="5"/><circle cx="2256" cy="1142" r="5"/><circle cx="2361" cy="1159" r="6"/><circle cx="2477" cy="1192" r="5"/><circle cx="2547" cy="1167" r="5"/><circle cx="68" cy="1249" r="5"/><circle cx="140" cy="1257" r="4"/><circle cx="212" cy="1216" r="5"/><circle cx="300" cy="1227" r="5"/><circle cx="393" cy="1216" r="5"/><circle cx="463" cy="1245" r="6"/><circle cx="491" cy="1214" r="6"/><circle cx="577" cy="1205" r="6"/><circle cx="716" cy="1274" r="5"/><circle cx="759" cy="1256" r="5"/><circle cx="820" cy="1274" r="5"/><circle cx="901" cy="1271" r="5"/><circle cx="975" cy="1270" r="4"/><circle cx="1077" cy="1200" r="4"/><circle cx="1194" cy="1273" r="5"/><circle cx="1255" cy="1238" r="5"/><circle cx="1338" cy="1247" r="6"/><circle cx="1370" cy="1258" r="4"/><circle cx="1509" cy="1216" r="4"/><circle cx="1600" cy="1276" r="4"/><circle cx="1607" cy="1232" r="6"/><circle cx="1741" cy="1252" r="5"/><circle cx="1809" cy="1219" r="4"/><circle cx="1889" cy="1217" r="5"/><circle cx="1929" cy="1279" r="6"/><circle cx="2041" cy="1220" r="6"/><circle cx="2138" cy="1218" r="5"/><circle cx="2235" cy="1241" r="5"/><circle cx="2312" cy="1258" r="5"/><circle cx="2372" cy="1262" r="6"/><circle cx="2436" cy="1202" r="5"/><circle cx="2532" cy="1247" r="6"/><circle cx="1" cy="1341" r="5"/><circle cx="2561" cy="1341" r="5"/><circle cx="142" cy="1329" r="5"/><circle cx="177" cy="1308" r="4"/><circle cx="287" cy="1322" r="4"/><circle cx="335" cy="1320" r="6"/><circle cx="412" cy="1321" r="6"/><circle cx="538" cy="1339" r="6"/><circle cx="639" cy="1295" r="5"/><circle cx="647" cy="1346" r="5"/><circle cx="766" cy="1307" r="5"/><circle cx="861" cy="1294" r="6"/><circle cx="894" cy="1355" r="4"/><circle cx="993" cy="1317" r="4"/><circle cx="1066" cy="1356" r="6"/><circle cx="1167" cy="1326" r="5"/><circle cx="1217" cy="1328" r="4"/><circle cx="1301" cy="1348" r="5"/><circle cx="1376" cy="1326" r="5"/><circle cx="1458" cy="1284" r="4"/><circle cx="1598" cy="1328" r="4"/><circle cx="1646" cy="1294" r="5"/><circle cx="1691" cy="1346" r="5"/><circle cx="1780" cy="1305" r="6"/><circle cx="1906" cy="1348" r="5"/><circle cx="1924" cy="1327" r="4"/><circle cx="2019" cy="1306" r="4"/><circle cx="2122" cy="1306" r="6"/><circle cx="2206" cy="1352" r="6"/><circle cx="2287" cy="1339" r="6"/><circle cx="2327" cy="1314" r="5"/><circle cx="2436" cy="1315" r="6"/><circle cx="2529" cy="1326" r="6"/><circle cx="4" cy="1389" r="5"/><circle cx="2564" cy="1389" r="5"/><circle cx="139" cy="1368" r="5"/><circle cx="217" cy="1401" r="6"/><circle cx="278" cy="1369" r="5"/><circle cx="327" cy="1407" r="5"/><circle cx="473" cy="1439" r="6"/><circle cx="473" cy="-1" r="6"/><circle cx="514" cy="1432" r="4"/><circle cx="611" cy="1406" r="5"/><circle cx="701" cy="1362" r="5"/><circle cx="755" cy="1378" r="4"/><circle cx="874" cy="1397" r="5"/><circle cx="925" cy="1392" r="5"/><circle cx="965" cy="1365" r="5"/><circle cx="1107" cy="1414" r="5"/><circle cx="1181" cy="1430" r="6"/><circle cx="1208" cy="1400" r="5"/><circle cx="1338" cy="1395" r="5"/><circle cx="1411" cy="1408" r="6"/><circle cx="1513" cy="1438" r="5"/><circle cx="1513" cy="-2" r="5"/><circle cx="1559" cy="1436" r="5"/><circle cx="1559" cy="-4" r="5"/><circle cx="1669" cy="1361" r="4"/><circle cx="1744" cy="1409" r="5"/><circle cx="1785" cy="1381" r="4"/><circle cx="1909" cy="1416" r="5"/><circle cx="1943" cy="1434" r="5"/><circle cx="2070" cy="1386" r="4"/><circle cx="2117" cy="1431" r="4"/><circle cx="2181" cy="1425" r="6"/><circle cx="2298" cy="1389" r="4"/><circle cx="2365" cy="1407" r="6"/><circle cx="2477" cy="1390" r="6"/><circle cx="2496" cy="1388" r="5"/><path stroke="#fff" d="M34 25L-59 48M34 25L63 98M34 25L4 -51M2594 25L2501 48M34 1465L4 1389M143 28L190 31M143 28L63 98M143 28L139 -72M143 28L217 -39M143 1468L139 1368M143 1468L217 1401M190 31L294 49M190 31L218 133M190 31L139 -72M190 31L217 -39M190 1471L139 1368M190 1471L217 1401M294 49L351 39M294 49L298 93M294 49L382 97M294 49L327 -33M294 1489L327 1407M351 39L453 11M351 39L298 93M351 39L382 97M351 39L327 -33M351 1479L327 1407M453 11L534 4M453 11L473 -1M453 11L514 -8M453 1451L473 1439M453 1451L514 1432M534 4L518 87M534 4L567 85M534 4L473 -1M534 4L514 -8M534 1444L473 1439M534 1444L514 1432M589 78L677 59M589 78L518 87M589 78L567 85M589 78L656 130M589 78L634 162M677 59L723 78M677 59L656 130M723 78L656 130M723 78L743 145M856 60L883 33M856 60L833 118M856 60L910 155M856 60L857 168M883 33L833 118M883 33L910 155M883 33L874 -43M883 33L925 -48M883 1473L874 1397M883 1473L925 1392M1021 38L1103 38M1021 38L1037 141M1021 38L1107 -26M1021 1478L1107 1414M1103 38L1182 28M1103 38L1107 -26M1103 38L1181 -10M1103 1478L1107 1414M1103 1478L1181 1430M1182 28L1243 43M1182 28L1213 109M1182 28L1181 -10M1182 28L1208 -40M1182 1468L1181 1430M1182 1468L1208 1400M1243 43L1327 52M1243 43L1213 109M1243 43L1181 -10M1243 43L1208 -40M1243 1483L1181 1430M1243 1483L1208 1400M1327 52L1365 2M1327 52L1331 98M1327 52L1367 135M1327 52L1338 -45M1327 1492L1338 1395M1365 2L1442 38M1365 2L1331 98M1365 2L1338 -45M1365 2L1411 -32M1365 1442L1338 1395M1365 1442L1411 1408M1442 38L1441 97M1442 38L1411 -32M1442 38L1513 -2M1442 38L1559 -4M1442 1478L1411 1408M1442 1478L1513 1438M1442 1478L1559 1436M1600 17L1632 50M1600 17L1565 138M1600 17L1513 -2M1600 17L1559 -4M1600 17L1669 -79M1600 1457L1513 1438M1600 1457L1559 1436M1600 1457L1669 1361M1632 50L1565 138M1632 50L1638 155M1632 50L1727 87M1632 50L1559 -4M1632 1490L1559 1436M1758 48L1816 47M1758 48L1727 87M1758 48L1795 96M1758 48L1744 -31M1758 1488L1744 1409M1816 47L1727 87M1816 47L1795 96M1816 47L1861 98M1906 73L1964 67M1906 73L1861 98M1906 73L1984 96M1906 73L1904 162M1906 73L1943 -6M1906 1513L1943 1434M1964 67L2005 45M1964 67L1984 96M1964 67L2052 84M1964 67L1943 -6M1964 1507L1943 1434M2005 45L1984 96M2005 45L2052 84M2005 45L1943 -6M2005 1485L1943 1434M2107 7L2052 84M2107 7L2070 -54M2107 7L2117 -9M2107 7L2181 -15M2107 1447L2070 1386M2107 1447L2117 1431M2107 1447L2181 1425M2207 43L2295 78M2207 43L2234 85M2207 43L2117 -9M2207 43L2181 -15M2207 1483L2117 1431M2207 1483L2181 1425M2295 78L2234 85M2295 78L2250 137M2380 8L2415 75M2380 8L2298 -51M2380 8L2365 -33M2380 1448L2298 1389M2380 1448L2365 1407M2415 75L2501 48M2415 75L2395 139M2415 75L2450 154M2501 48L2535 111M63 98L103 140M63 98L-25 111M63 98L36 190M2623 98L2535 111M103 140L36 190M103 140L149 175M103 140L186 178M218 133L298 93M218 133L149 175M218 133L186 178M218 133L309 175M298 93L382 97M298 93L309 175M382 97L420 111M382 97L309 175M420 111L494 163M518 87L567 85M518 87L494 163M518 87L473 -1M518 1527L473 1439M656 130L634 162M656 130L650 214M743 145L833 118M743 145L722 205M833 118L910 155M833 118L857 168M910 155L857 168M910 155L918 226M1037 141L1105 153M1037 141L1014 207M1037 141L1099 182M1105 153L1138 146M1105 153L1099 182M1105 153L1198 194M1105 153L1207 160M1138 146L1213 109M1138 146L1099 182M1138 146L1198 194M1138 146L1207 160M1213 109L1198 194M1213 109L1207 160M1331 98L1367 135M1331 98L1441 97M1331 98L1364 202M1367 135L1441 97M1367 135L1329 221M1367 135L1364 202M1441 97L1478 195M1441 97L1513 -2M1441 1537L1513 1438M1565 138L1638 155M1565 138L1478 195M1565 138L1551 222M1638 155L1658 228M1638 155L1661 258M1727 87L1795 96M1727 87L1743 165M1795 96L1861 98M1795 96L1743 165M1861 98L1833 195M1861 98L1904 162M1984 96L2052 84M1984 96L1904 162M2148 155L2234 85M2148 155L2250 137M2148 155L2100 214M2148 155L2239 192M2148 155L2243 209M2234 85L2250 137M2234 85L2181 -15M2234 1525L2181 1425M2250 137L2239 192M2250 137L2243 209M2395 139L2450 154M2395 139L2384 235M2395 139L2411 195M2450 154L2535 111M2450 154L2411 195M2450 154L2500 212M2535 111L2596 190M2535 111L2500 212M-25 111L36 190M36 190L149 175M149 175L186 178M149 175L218 273M186 178L218 273M309 175L339 218M309 175L377 253M339 218L434 224M339 218L274 303M339 218L377 253M434 224L494 163M434 224L377 253M434 224L410 317M434 224L512 261M494 163L512 261M634 162L650 214M634 162L722 205M634 162L662 252M650 214L722 205M650 214L662 252M650 214L725 273M722 205L662 252M722 205L725 273M857 168L918 226M857 168L824 284M918 226L1014 207M918 226L908 284M1014 207L1099 182M1014 207L1013 274M1099 182L1198 194M1198 194L1207 160M1329 221L1364 202M1329 221L1277 276M1329 221L1359 269M1329 221L1385 296M1364 202L1359 269M1478 195L1551 222M1478 195L1462 257M1478 195L1533 265M1551 222L1462 257M1551 222L1533 265M1658 228L1661 258M1658 228L1684 254M1658 228L1768 267M1658 228L1640 332M1743 165L1833 195M1743 165L1768 267M1833 195L1904 162M1833 195L1768 267M1833 195L1905 270M1904 162L1965 208M1965 208L2019 239M1965 208L1905 270M1965 208L1940 291M2019 239L2100 214M2019 239L1940 291M2019 239L2055 310M2019 239L2077 330M2100 214L2132 289M2239 192L2243 209M2243 209L2219 297M2384 235L2411 195M2384 235L2352 264M2384 235L2476 305M2411 195L2500 212M2411 195L2352 264M2500 212L2476 305M2500 212L2514 288M23 290L114 287M23 290L-46 288M23 290L61 366M23 290L110 346M2583 290L2514 288M114 287L218 273M114 287L61 366M114 287L110 346M114 287L182 330M218 273L274 303M218 273L182 330M274 303L377 253M274 303L182 330M274 303L281 369M377 253L410 317M410 317L372 375M410 317L473 320M410 317L392 416M512 261L579 296M512 261L473 320M579 296L662 252M579 296L473 320M662 252L725 273M725 273L824 284M725 273L675 365M824 284L908 284M824 284L851 331M824 284L892 356M908 284L1013 274M908 284L851 331M908 284L892 356M1013 274L1095 303M1013 274L1038 369M1095 303L1150 302M1095 303L1038 369M1095 303L1111 372M1095 303L1147 357M1150 302L1111 372M1150 302L1147 357M1150 302L1170 408M1277 276L1359 269M1277 276L1277 341M1277 276L1304 374M1359 269L1385 296M1359 269L1457 321M1385 296L1462 257M1385 296L1431 368M1385 296L1457 321M1462 257L1533 265M1462 257L1457 321M1533 265L1457 321M1661 258L1684 254M1661 258L1768 267M1661 258L1640 332M1684 254L1768 267M1684 254L1640 332M1684 254L1701 367M1905 270L1940 291M1905 270L1907 364M1940 291L1907 364M1940 291L1982 379M2055 310L2132 289M2055 310L1982 379M2055 310L2077 330M2055 310L2130 380M2132 289L2219 297M2132 289L2077 330M2132 289L2202 332M2219 297L2280 303M2219 297L2202 332M2219 297L2273 358M2280 303L2352 264M2280 303L2202 332M2280 303L2273 358M2280 303L2354 348M2352 264L2354 348M2476 305L2514 288M2476 305L2471 372M2476 305L2485 359M2514 288L2471 372M2514 288L2485 359M61 366L110 346M61 366L47 433M61 366L117 413M110 346L182 330M110 346L117 413M182 330L117 413M281 369L372 375M281 369L256 451M372 375L392 416M473 320L505 397M473 320L469 422M505 397L588 384M505 397L469 422M505 397L530 436M505 397L592 419M588 384L675 365M588 384L530 436M588 384L592 419M588 384L655 437M675 365L725 385M675 365L592 419M675 365L655 437M725 385L655 437M725 385L749 444M851 331L892 356M892 356L856 460M892 356L924 450M1038 369L1111 372M1038 369L1147 357M1038 369L1067 452M1111 372L1147 357M1111 372L1170 408M1147 357L1170 408M1277 341L1304 374M1277 341L1238 421M1277 341L1286 412M1304 374L1238 421M1304 374L1286 412M1304 374L1369 409M1431 368L1457 321M1431 368L1546 386M1431 368L1369 409M1431 368L1441 463M1546 386L1560 443M1546 386L1628 453M1640 332L1701 367M1640 332L1628 453M1701 367L1783 393M1783 393L1728 479M1783 393L1787 479M1907 364L1982 379M1907 364L1922 406M1982 379L2077 330M1982 379L1922 406M2077 330L2130 380M2130 380L2202 332M2130 380L2127 461M2202 332L2273 358M2273 358L2354 348M2273 358L2242 432M2471 372L2485 359M2471 372L2426 436M2471 372L2521 460M2485 359L2426 436M2485 359L2521 460M47 433L117 413M47 433L-39 460M47 433L67 531M47 433L-21 492M2607 433L2521 460M2607 433L2539 492M117 413L139 514M223 472L256 451M223 472L139 514M223 472L194 534M223 472L265 555M392 416L469 422M392 416L359 498M392 416L409 500M469 422L530 436M469 422L409 500M530 436L592 419M530 436L541 515M592 419L655 437M655 437L749 444M749 444L856 460M749 444L671 539M749 444L757 540M856 460L924 450M856 460L819 549M856 460L914 497M924 450L975 464M924 450L914 497M924 450L901 577M975 464L1067 452M975 464L914 497M975 464L1018 555M1067 452L1128 528M1170 408L1238 421M1238 421L1286 412M1238 421L1277 502M1286 412L1369 409M1286 412L1277 502M1369 409L1441 463M1560 443L1628 453M1560 443L1526 533M1560 443L1618 525M1628 453L1728 479M1628 453L1618 525M1728 479L1787 479M1728 479L1744 558M1787 479L1744 558M1787 479L1828 515M1919 477L1922 406M1919 477L1892 541M1919 477L1986 508M2070 471L2127 461M2070 471L1986 508M2070 471L2078 551M2070 471L2144 483M2070 471L2015 563M2127 461L2144 483M2239 452L2242 432M2239 452L2324 484M2239 452L2254 570M2242 432L2357 462M2242 432L2324 484M2357 462L2426 436M2357 462L2324 484M2357 462L2412 520M2426 436L2521 460M2426 436L2412 520M2521 460L2539 492M67 531L139 514M67 531L-21 492M67 531L48 605M2627 531L2539 492M139 514L194 534M139 514L145 606M194 534L265 555M194 534L145 606M194 534L162 608M265 555L302 567M265 555L354 560M359 498L409 500M359 498L302 567M359 498L354 560M359 498L417 570M409 500L354 560M409 500L417 570M541 515L588 555M541 515L490 604M541 515L601 600M588 555L671 539M588 555L490 604M588 555L601 600M588 555L659 609M671 539L757 540M671 539L601 600M671 539L659 609M757 540L819 549M757 540L759 629M757 540L810 587M819 549L759 629M819 549L810 587M819 549L901 577M914 497L901 577M1018 555L1079 540M1018 555L1030 601M1079 540L1128 528M1079 540L1030 601M1079 540L1116 577M1079 540L1158 572M1128 528L1116 577M1128 528L1158 572M1277 502L1357 522M1277 502L1361 535M1277 502L1343 569M1357 522L1361 535M1357 522L1456 559M1357 522L1343 569M1357 522L1372 595M1361 535L1456 559M1361 535L1343 569M1361 535L1372 595M1456 559L1526 533M1456 559L1372 595M1456 559L1477 603M1526 533L1618 525M1526 533L1477 603M1526 533L1594 617M1618 525L1594 617M1618 525L1645 598M1744 558L1828 515M1744 558L1699 635M1744 558L1813 594M1828 515L1892 541M1828 515L1813 594M1892 541L1894 584M1892 541L1950 585M1986 508L1950 585M1986 508L2015 563M2078 551L2144 483M2078 551L2164 543M2078 551L2015 563M2078 551L2168 573M2144 483L2164 543M2164 543L2248 554M2164 543L2158 604M2164 543L2168 573M2248 554L2324 484M2248 554L2168 573M2248 554L2254 570M2324 484L2412 520M2412 520L2395 590M2412 520L2484 562M2539 492L2484 562M48 605L145 606M48 605L162 608M48 605L0 684M48 605L-26 692M2608 605L2534 692M145 606L162 608M145 606L147 678M162 608L147 678M162 608L180 706M302 567L354 560M302 567L376 663M354 560L417 570M417 570L490 604M417 570L376 663M490 604L510 701M601 600L659 609M601 600L627 680M659 609L627 680M759 629L810 587M759 629L709 698M759 629L793 697M810 587L901 577M1030 601L1116 577M1030 601L1016 660M1030 601L1055 655M1116 577L1158 572M1116 577L1055 655M1158 572L1229 607M1158 572L1202 687M1229 607L1187 709M1229 607L1202 687M1229 607L1320 663M1343 569L1372 595M1343 569L1320 663M1372 595L1320 663M1477 603L1420 682M1477 603L1442 672M1477 603L1559 659M1594 617L1645 598M1594 617L1699 635M1594 617L1559 659M1645 598L1699 635M1645 598L1559 659M1645 598L1688 687M1699 635L1651 712M1699 635L1688 687M1813 594L1894 584M1813 594L1838 663M1813 594L1872 664M1894 584L1950 585M1894 584L1872 664M1894 584L1937 648M1950 585L2015 563M1950 585L1937 648M2015 563L2020 656M2158 604L2168 573M2158 604L2254 570M2158 604L2105 651M2158 604L2195 696M2168 573L2254 570M2254 570L2314 656M2395 590L2457 608M2395 590L2484 562M2395 590L2370 677M2395 590L2436 647M2457 608L2484 562M2457 608L2370 677M2457 608L2436 647M2484 562L2436 647M0 684L-26 692M0 684L-37 773M2560 684L2534 692M2560 684L2523 773M147 678L180 706M147 678L128 745M147 678L177 760M180 706L128 745M180 706L177 760M319 684L376 663M319 684L265 788M319 684L322 755M376 663L437 714M376 663L322 755M437 714L510 701M437 714L431 763M437 714L390 802M437 714L458 813M510 701L431 763M510 701L543 740M510 701L571 773M627 680L709 698M627 680L571 773M627 680L704 725M709 698L793 697M709 698L704 725M709 698L750 762M793 697L853 695M793 697L750 762M793 697L847 736M853 695L901 719M853 695L847 736M853 695L817 800M901 719L847 736M901 719L956 738M901 719L982 732M1016 660L1055 655M1016 660L956 738M1016 660L982 732M1016 660L1054 733M1055 655L1054 733M1187 709L1202 687M1187 709L1125 793M1187 709L1242 765M1320 663L1420 682M1320 663L1323 772M1420 682L1442 672M1420 682L1454 754M1442 672L1454 754M1559 659L1651 712M1559 659L1525 768M1651 712L1688 687M1651 712L1673 750M1688 687L1673 750M1688 687L1757 728M1838 663L1872 664M1838 663L1757 728M1838 663L1918 734M1872 664L1937 648M1872 664L1918 734M1937 648L2020 656M1937 648L1918 734M2020 656L2105 651M2105 651L2195 696M2195 696L2314 656M2195 696L2130 778M2195 696L2209 732M2314 656L2370 677M2370 677L2436 647M2436 647L2534 692M2534 692L2455 761M2534 692L2523 773M40 788L128 745M40 788L-37 773M40 788L48 837M40 788L93 811M40 788L-66 831M2600 788L2523 773M2600 788L2494 831M128 745L177 760M128 745L93 811M177 760L265 788M177 760L231 823M265 788L322 755M265 788L231 823M265 788L249 825M322 755L249 825M322 755L390 802M431 763L390 802M431 763L458 813M543 740L571 773M571 773L604 875M571 773L646 842M704 725L750 762M750 762L761 840M750 762L817 800M847 736L817 800M956 738L982 732M956 738L1054 733M956 738L994 800M982 732L1054 733M982 732L994 800M1054 733L1078 821M1125 793L1078 821M1125 793L1169 822M1242 765L1323 772M1242 765L1169 822M1242 765L1274 811M1242 765L1300 808M1323 772L1387 794M1323 772L1274 811M1323 772L1300 808M1387 794L1454 754M1387 794L1300 808M1387 794L1386 875M1387 794L1355 891M1454 754L1525 768M1525 768L1468 864M1525 768L1582 846M1525 768L1611 836M1673 750L1757 728M1757 728L1776 764M1757 728L1798 805M1776 764L1709 844M1776 764L1798 805M1918 734L1952 795M1918 734L1939 818M1952 795L1881 866M1952 795L1939 818M2067 782L2130 778M2067 782L2029 849M2067 782L2092 817M2130 778L2209 732M2130 778L2092 817M2209 732L2303 795M2303 795L2331 791M2303 795L2220 851M2303 795L2297 827M2331 791L2297 827M2331 791L2378 863M2331 791L2379 891M2455 761L2523 773M2455 761L2422 839M2455 761L2494 831M2523 773L2494 831M48 837L93 811M48 837L23 897M48 837L139 892M93 811L23 897M93 811L139 892M231 823L249 825M249 825L226 920M249 825L274 922M390 802L458 813M390 802L467 888M458 813L539 875M458 813L467 888M539 875L604 875M539 875L467 888M539 875L543 926M539 875L580 881M604 875L646 842M604 875L543 926M604 875L580 881M646 842L580 881M646 842L692 936M761 840L817 800M761 840L775 951M761 840L845 922M817 800L907 837M907 837L994 800M907 837L845 922M907 837L897 922M994 800L1078 821M994 800L987 908M1078 821L1169 822M1078 821L1111 921M1169 822L1274 811M1169 822L1147 907M1274 811L1300 808M1300 808L1355 891M1386 875L1468 864M1386 875L1355 891M1386 875L1406 945M1468 864L1465 955M1582 846L1611 836M1582 846L1591 906M1611 836L1709 844M1611 836L1591 906M1611 836L1648 914M1709 844L1798 805M1709 844L1709 924M1798 805L1881 866M1881 866L1939 818M1881 866L1819 923M1881 866L1916 893M1939 818L2029 849M1939 818L1916 893M2029 849L2092 817M2029 849L1997 904M2029 849L2019 922M2092 817L1997 904M2092 817L2146 882M2220 851L2297 827M2220 851L2146 882M2220 851L2191 934M2220 851L2278 926M2297 827L2378 863M2378 863L2422 839M2378 863L2379 891M2422 839L2494 831M2422 839L2379 891M2422 839L2455 921M2494 831L2455 921M23 897L-8 942M23 897L-48 961M2583 897L2552 942M2583 897L2512 961M139 892L226 920M139 892L172 967M226 920L274 922M226 920L172 967M226 920L279 1002M274 922L351 901M274 922L172 967M274 922L279 1002M351 901L355 1027M467 888L543 926M467 888L448 990M543 926L580 881M543 926L598 983M692 936L775 951M692 936L598 983M692 936L654 1017M692 936L727 1018M775 951L845 922M775 951L727 1018M775 951L825 1035M845 922L897 922M897 922L987 908M897 922L951 1012M897 922L990 980M987 908L990 980M1111 921L1147 907M1111 921L1232 929M1111 921L1055 1015M1111 921L1175 1008M1147 907L1232 929M1232 929L1175 1008M1232 929L1205 1037M1232 929L1291 966M1355 891L1406 945M1355 891L1291 966M1406 945L1465 955M1406 945L1403 1018M1406 945L1465 1027M1465 955L1465 1027M1465 955L1464 1055M1591 906L1648 914M1591 906L1582 965M1591 906L1657 968M1648 914L1709 924M1648 914L1582 965M1648 914L1657 968M1709 924L1819 923M1709 924L1657 968M1709 924L1700 993M1819 923L1818 1001M1916 893L1997 904M1916 893L1901 1000M1916 893L1946 961M1997 904L2019 922M1997 904L1946 961M2019 922L1946 961M2019 922L2059 1009M2146 882L2191 934M2191 934L2278 926M2191 934L2212 994M2191 934L2282 1017M2278 926L2212 994M2278 926L2282 1017M2278 926L2347 980M2379 891L2455 921M2379 891L2347 980M2455 921L2552 942M2455 921L2512 961M2552 942L2613 997M2552 942L2512 961M-8 942L53 997M53 997L115 1003M53 997L-48 961M53 997L13 1060M53 997L107 1044M2613 997L2512 961M115 1003L172 967M115 1003L107 1044M115 1003L169 1084M279 1002L355 1027M279 1002L251 1118M279 1002L351 1058M355 1027L448 990M355 1027L351 1058M355 1027L434 1071M448 990L507 1018M448 990L434 1071M507 1018L598 983M507 1018L434 1071M507 1018L504 1104M507 1018L578 1057M598 983L654 1017M598 983L578 1057M654 1017L727 1018M654 1017L578 1057M654 1017L709 1066M727 1018L825 1035M727 1018L709 1066M825 1035L790 1109M825 1035L874 1093M825 1035L766 1142M951 1012L990 980M951 1012L874 1093M951 1012L931 1105M951 1012L1021 1074M990 980L1055 1015M1055 1015L1021 1074M1055 1015L1050 1067M1175 1008L1205 1037M1175 1008L1130 1091M1175 1008L1263 1071M1205 1037L1130 1091M1205 1037L1263 1071M1403 1018L1465 1027M1403 1018L1356 1069M1403 1018L1430 1096M1403 1018L1464 1055M1465 1027L1430 1096M1465 1027L1464 1055M1582 965L1657 968M1582 965L1598 1048M1657 968L1700 993M1700 993L1818 1001M1700 993L1636 1072M1700 993L1694 1066M1818 1001L1901 1000M1818 1001L1772 1100M1818 1001L1905 1092M1901 1000L1946 961M1901 1000L1905 1092M2059 1009L2104 1018M2059 1009L1986 1080M2059 1009L2075 1082M2059 1009L2142 1071M2104 1018L2212 994M2104 1018L2075 1082M2104 1018L2142 1071M2212 994L2282 1017M2212 994L2142 1071M2282 1017L2347 980M2282 1017L2301 1093M2347 980L2401 1000M2401 1000L2368 1103M2401 1000L2473 1059M2512 961L2473 1059M13 1060L107 1044M13 1060L-87 1059M13 1060L-24 1094M13 1060L31 1148M2573 1060L2473 1059M2573 1060L2536 1094M107 1044L169 1084M169 1084L251 1118M169 1084L194 1190M251 1118L194 1190M251 1118L284 1154M251 1118L212 1216M351 1058L434 1071M434 1071L504 1104M504 1104L578 1057M504 1104L469 1158M504 1104L533 1129M578 1057L533 1129M709 1066L718 1124M709 1066L766 1142M790 1109L874 1093M790 1109L718 1124M790 1109L766 1142M790 1109L826 1167M874 1093L931 1105M874 1093L826 1167M931 1105L949 1188M931 1105L975 1139M1021 1074L1050 1067M1021 1074L975 1139M1021 1074L1061 1138M1050 1067L1130 1091M1050 1067L975 1139M1050 1067L1061 1138M1130 1091L1061 1138M1130 1091L1198 1149M1263 1071L1356 1069M1263 1071L1198 1149M1263 1071L1280 1161M1356 1069L1430 1096M1356 1069L1404 1120M1430 1096L1464 1055M1430 1096L1404 1120M1464 1055L1404 1120M1598 1048L1636 1072M1598 1048L1694 1066M1636 1072L1694 1066M1636 1072L1622 1151M1694 1066L1772 1100M1694 1066L1622 1151M1772 1100L1797 1194M1905 1092L1986 1080M1905 1092L1911 1182M1986 1080L2024 1135M2075 1082L2142 1071M2075 1082L2024 1135M2075 1082L2090 1161M2142 1071L2196 1117M2196 1117L2301 1093M2196 1117L2213 1169M2196 1117L2256 1142M2301 1093L2368 1103M2301 1093L2256 1142M2301 1093L2361 1159M2368 1103L2473 1059M2368 1103L2361 1159M2473 1059L2536 1094M2536 1094L2591 1148M2536 1094L2477 1192M2536 1094L2547 1167M-24 1094L31 1148M31 1148L84 1198M31 1148L-13 1167M31 1148L68 1249M2591 1148L2547 1167M84 1198L-13 1167M84 1198L68 1249M2644 1198L2547 1167M194 1190L284 1154M194 1190L140 1257M194 1190L212 1216M284 1154L212 1216M284 1154L300 1227M394 1190L469 1158M394 1190L300 1227M394 1190L393 1216M394 1190L463 1245M394 1190L491 1214M469 1158L533 1129M469 1158L463 1245M469 1158L491 1214M533 1129L567 1183M533 1129L577 1205M567 1183L491 1214M567 1183L577 1205M718 1124L766 1142M718 1124L826 1167M766 1142L826 1167M826 1167L820 1274M949 1188L975 1139M949 1188L901 1271M949 1188L975 1270M975 1139L1061 1138M1061 1138L1077 1200M1198 1149L1277 1177M1198 1149L1280 1161M1277 1177L1280 1161M1277 1177L1194 1273M1277 1177L1255 1238M1277 1177L1338 1247M1280 1161L1255 1238M1280 1161L1338 1247M1506 1178L1509 1216M1596 1197L1622 1151M1596 1197L1680 1195M1596 1197L1509 1216M1596 1197L1600 1276M1596 1197L1607 1232M1622 1151L1680 1195M1622 1151L1607 1232M1680 1195L1607 1232M1680 1195L1741 1252M1797 1194L1741 1252M1797 1194L1809 1219M1797 1194L1889 1217M1911 1182L1946 1178M1911 1182L1809 1219M1911 1182L1889 1217M1946 1178L2024 1135M1946 1178L1889 1217M1946 1178L1929 1279M1946 1178L2041 1220M2024 1135L2090 1161M2024 1135L2041 1220M2090 1161L2041 1220M2090 1161L2138 1218M2213 1169L2256 1142M2213 1169L2138 1218M2213 1169L2235 1241M2256 1142L2361 1159M2256 1142L2235 1241M2361 1159L2372 1262M2361 1159L2436 1202M2477 1192L2547 1167M2477 1192L2436 1202M2477 1192L2532 1247M2547 1167L2532 1247M68 1249L140 1257M68 1249L-28 1247M68 1249L142 1329M2628 1249L2532 1247M140 1257L212 1216M140 1257L142 1329M140 1257L177 1308M212 1216L300 1227M300 1227L393 1216M300 1227L335 1320M393 1216L463 1245M393 1216L412 1321M463 1245L491 1214M463 1245L412 1321M491 1214L577 1205M577 1205L639 1295M716 1274L759 1256M716 1274L639 1295M716 1274L647 1346M716 1274L766 1307M716 1274L701 1362M759 1256L820 1274M759 1256L766 1307M759 1256L861 1294M820 1274L901 1271M820 1274L766 1307M820 1274L861 1294M901 1271L975 1270M901 1271L861 1294M901 1271L894 1355M975 1270L993 1317M1194 1273L1255 1238M1194 1273L1167 1326M1194 1273L1217 1328M1255 1238L1338 1247M1255 1238L1217 1328M1338 1247L1370 1258M1338 1247L1376 1326M1370 1258L1376 1326M1370 1258L1458 1284M1509 1216L1458 1284M1600 1276L1607 1232M1600 1276L1598 1328M1600 1276L1646 1294M1607 1232L1646 1294M1741 1252L1809 1219M1741 1252L1780 1305M1809 1219L1889 1217M1809 1219L1780 1305M1889 1217L1929 1279M1929 1279L1906 1348M1929 1279L1924 1327M1929 1279L2019 1306M2041 1220L2138 1218M2041 1220L2019 1306M2138 1218L2235 1241M2138 1218L2122 1306M2235 1241L2312 1258M2312 1258L2372 1262M2312 1258L2287 1339M2312 1258L2327 1314M2372 1262L2436 1202M2372 1262L2327 1314M2372 1262L2436 1315M2532 1247L2561 1341M2532 1247L2529 1326M-28 1247L1 1341M1 1341L-31 1326M1 1341L4 1389M1 1341L-83 1390M1 1341L-64 1388M2561 1341L2529 1326M2561 1341L2477 1390M2561 1341L2496 1388M142 1329L177 1308M142 1329L139 1368M142 1329L217 1401M177 1308L139 1368M177 1308L278 1369M287 1322L335 1320M287 1322L278 1369M287 1322L327 1407M335 1320L412 1321M335 1320L278 1369M335 1320L327 1407M538 1339L639 1295M538 1339L647 1346M538 1339L473 1439M538 1339L514 1432M538 1339L611 1406M639 1295L647 1346M639 1295L701 1362M647 1346L611 1406M647 1346L701 1362M766 1307L701 1362M766 1307L755 1378M861 1294L894 1355M861 1294L874 1397M894 1355L874 1397M894 1355L925 1392M894 1355L965 1365M993 1317L1066 1356M993 1317L925 1392M993 1317L965 1365M1066 1356L1167 1326M1066 1356L965 1365M1066 1356L1107 1414M1167 1326L1217 1328M1167 1326L1208 1400M1217 1328L1301 1348M1217 1328L1208 1400M1301 1348L1376 1326M1301 1348L1338 1395M1376 1326L1338 1395M1376 1326L1411 1408M1598 1328L1646 1294M1598 1328L1691 1346M1598 1328L1559 1436M1598 1328L1669 1361M1646 1294L1691 1346M1646 1294L1669 1361M1691 1346L1780 1305M1691 1346L1669 1361M1691 1346L1744 1409M1780 1305L1744 1409M1780 1305L1785 1381M1906 1348L1924 1327M1906 1348L1909 1416M1906 1348L1943 1434M1924 1327L2019 1306M1924 1327L1909 1416M2019 1306L2122 1306M2019 1306L2070 1386M2122 1306L2206 1352M2122 1306L2070 1386M2206 1352L2287 1339M2206 1352L2181 1425M2206 1352L2298 1389M2287 1339L2327 1314M2287 1339L2298 1389M2287 1339L2365 1407M2327 1314L2298 1389M2327 1314L2365 1407M2436 1315L2477 1390M2436 1315L2496 1388M2529 1326L2564 1389M2529 1326L2477 1390M2529 1326L2496 1388M-31 1326L4 1389M4 1389L-83 1390M4 1389L-64 1388M2564 1389L2477 1390M2564 1389L2496 1388M139 1368L217 1401M217 1401L278 1369M278 1369L327 1407M473 1439L514 1432M514 1432L611 1406M701 1362L755 1378M874 1397L925 1392M874 1397L965 1365M925 1392L965 1365M1107 1414L1181 1430M1181 1430L1208 1400M1338 1395L1411 1408M1411 1408L1513 1438M1513 1438L1559 1436M1669 1361L1744 1409M1744 1409L1785 1381M1909 1416L1943 1434M2070 1386L2117 1431M2117 1431L2181 1425M2298 1389L2365 1407M2477 1390L2496 1388"/></svg>