<svg xmlns="http://www.w3.org/2000/svg" width="2560" height="1440" fill="#fff"><circle cx="32" cy="6" r="5"/><circle cx="130" cy="15" r="4"/><circle cx="217" cy="26" r="6"/><circle cx="242" cy="50" r="5"/><circle cx="396" cy="40" r="4"/><circle cx="415" cy="68" r="5"/><circle cx="527" cy="32" r="5"/><circle cx="633" cy="9" r="5"/><circle cx="671" cy="53" r="4"/><circle cx="775" cy="44" r="4"/><circle cx="800" cy="38" r="6"/><circle cx="919" cy="37" r="6"/><circle cx="1002" cy="65" r="5"/><circle cx="1098" cy="65" r="5"/><circle cx="1187" cy="76" r="6"/><circle cx="1201" cy="62" r="6"/><circle cx="1314" cy="65" r="4"/><circle cx="1388" cy="26" r="5"/><circle cx="1518" cy="27" r="4"/><circle cx="1555" cy="34" r="6"/><circle cx="1607" cy="49" r="5"/><circle cx="1750" cy="40" r="6"/><circle cx="1770" cy="48" r="4"/><circle cx="1865" cy="64" r="6"/><circle cx="1989" cy="60" r="6"/><circle cx="2049" cy="53" r="4"/><circle cx="2144" cy="42" r="5"/><circle cx="2194" cy="10" r="6"/><circle cx="2297" cy="39" r="4"/><circle cx="2369" cy="6" r="6"/><circle cx="2410" cy="58" r="6"/><circle cx="2506" cy="54" r="6"/><circle cx="10" cy="118" r="5"/><circle cx="85" cy="129" r="5"/><circle cx="184" cy="100" r="4"/><circle cx="270" cy="133" r="6"/><circle cx="374" cy="131" r="4"/><circle cx="417" cy="114" r="4"/><circle cx="545" cy="126" r="4"/><circle cx="636" cy="113" r="5"/><circle cx="708" cy="98" r="5"/><circle cx="721" cy="111" r="5"/><circle cx="854" cy="146" r="4"/><circle cx="883" cy="104" r="5"/><circle cx="996" cy="119" r="6"/><circle cx="1098" cy="100" r="4"/><circle cx="1132" cy="87" r="6"/><circle cx="1232" cy="137" r="6"/><circle cx="1314" cy="92" r="6"/><circle cx="1392" cy="157" r="5"/><circle cx="1475" cy="129" r="5"/><circle cx="1564" cy="118" r="5"/><circle cx="1676" cy="123" r="4"/><circle cx="1706" cy="111" r="5"/><circle cx="1807" cy="144" r="5"/><circle cx="1842" cy="97" r="4"/><circle cx="1988" cy="120" r="6"/><circle cx="2034" cy="137" r="5"/><circle cx="2155" cy="136" r="5"/><circle cx="2217" cy="149" r="5"/><circle cx="2258" cy="151" r="5"/><circle cx="2374" cy="91" r="5"/><circle cx="2467" cy="89" r="4"/><circle cx="2534" cy="112" r="4"/><circle cx="48" cy="229" r="6"/><circle cx="87" cy="196" r="5"/><circle cx="182" cy="188" r="5"/><circle cx="306" cy="186" r="6"/><circle cx="342" cy="204" r="5"/><circle cx="437" cy="230" r="4"/><circle cx="511" cy="165" r="4"/><circle cx="631" cy="197" r="4"/><circle cx="710" cy="177" r="4"/><circle cx="750" cy="182" r="5"/><circle cx="858" cy="216" r="5"/><circle cx="930" cy="201" r="6"/><circle cx="979" cy="174" r="5"/><circle cx="1042" cy="189" r="4"/><circle cx="1158" cy="237" r="5"/><circle cx="1208" cy="217" r="5"/><circle cx="1319" cy="236" r="4"/><circle cx="1408" cy="163" r="6"/><circle cx="1465" cy="217" r="6"/><circle cx="1579" cy="180" r="6"/><circle cx="1664" cy="173" r="5"/><circle cx="1683" cy="199" r="6"/><circle cx="1831" cy="201" r="5"/><circle cx="1841" cy="216" r="5"/><circle cx="1984" cy="194" r="6"/><circle cx="2023" cy="234" r="5"/><circle cx="2133" cy="211" r="5"/><circle cx="2205" cy="199" r="5"/><circle cx="2276" cy="172" r="6"/><circle cx="2336" cy="199" r="4"/><circle cx="2468" cy="192" r="5"/><circle cx="2489" cy="212" r="6"/><circle cx="61" cy="262" r="6"/><circle cx="145" cy="250" r="5"/><circle cx="162" cy="289" r="4"/><circle cx="279" cy="304" r="6"/><circle cx="395" cy="278" r="6"/><circle cx="417" cy="288" r="5"/><circle cx="517" cy="279" r="4"/><circle cx="639" cy="274" r="5"/><circle cx="685" cy="245" r="5"/><circle cx="736" cy="293" r="5"/><circle cx="844" cy="245" r="4"/><circle cx="938" cy="279" r="4"/><circle cx="1007" cy="303" r="5"/><circle cx="1105" cy="305" r="4"/><circle cx="1196" cy="308" r="5"/><circle cx="1237" cy="263" r="4"/><circle cx="1325" cy="267" r="6"/><circle cx="1395" cy="307" r="5"/><circle cx="1509" cy="287" r="5"/><circle cx="1571" cy="287" r="4"/><circle cx="1658" cy="243" r="5"/><circle cx="1718" cy="248" r="4"/><circle cx="1804" cy="264" r="5"/><circle cx="1869" cy="253" r="6"/><circle cx="1950" cy="262" r="6"/><circle cx="2017" cy="271" r="6"/><circle cx="2093" cy="265" r="4"/><circle cx="2170" cy="252" r="4"/><circle cx="2272" cy="318" r="5"/><circle cx="2374" cy="256" r="5"/><circle cx="2404" cy="248" r="5"/><circle cx="2558" cy="295" r="5"/><circle cx="-2" cy="295" r="5"/><circle cx="51" cy="334" r="4"/><circle cx="141" cy="334" r="6"/><circle cx="164" cy="380" r="4"/><circle cx="248" cy="392" r="5"/><circle cx="331" cy="327" r="6"/><circle cx="409" cy="348" r="6"/><circle cx="514" cy="390" r="5"/><circle cx="599" cy="384" r="4"/><circle cx="684" cy="380" r="6"/><circle cx="737" cy="383" r="6"/><circle cx="829" cy="343" r="6"/><circle cx="894" cy="356" r="4"/><circle cx="972" cy="360" r="4"/><circle cx="1109" cy="335" r="4"/><circle cx="1173" cy="384" r="5"/><circle cx="1222" cy="326" r="4"/><circle cx="1295" cy="384" r="5"/><circle cx="1400" cy="348" r="4"/><circle cx="1481" cy="342" r="4"/><circle cx="1522" cy="357" r="5"/><circle cx="1642" cy="326" r="5"/><circle cx="1697" cy="353" r="5"/><circle cx="1786" cy="381" r="5"/><circle cx="1886" cy="340" r="5"/><circle cx="1935" cy="369" r="6"/><circle cx="2060" cy="336" r="5"/><circle cx="2082" cy="398" r="6"/><circle cx="2181" cy="332" r="6"/><circle cx="2243" cy="386" r="4"/><circle cx="2398" cy="400" r="6"/><circle cx="2457" cy="383" r="4"/><circle cx="2502" cy="327" r="5"/><circle cx="17" cy="416" r="5"/><circle cx="125" cy="432" r="5"/><circle cx="207" cy="451" r="5"/><circle cx="277" cy="438" r="5"/><circle cx="365" cy="474" r="5"/><circle cx="446" cy="479" r="5"/><circle cx="558" cy="429" r="5"/><circle cx="575" cy="407" r="5"/><circle cx="654" cy="444" r="4"/><circle cx="754" cy="473" r="6"/><circle cx="811" cy="433" r="5"/><circle cx="909" cy="423" r="5"/><circle cx="971" cy="449" r="4"/><circle cx="1072" cy="437" r="5"/><circle cx="1184" cy="424" r="5"/><circle cx="1225" cy="479" r="5"/><circle cx="1288" cy="449" r="6"/><circle cx="1390" cy="413" r="5"/><circle cx="1472" cy="474" r="6"/><circle cx="1554" cy="477" r="5"/><circle cx="1679" cy="408" r="5"/><circle cx="1718" cy="464" r="4"/><circle cx="1821" cy="431" r="5"/><circle cx="1908" cy="406" r="6"/><circle cx="1995" cy="402" r="5"/><circle cx="2031" cy="446" r="4"/><circle cx="2147" cy="426" r="6"/><circle cx="2185" cy="478" r="5"/><circle cx="2277" cy="467" r="5"/><circle cx="2364" cy="427" r="4"/><circle cx="2420" cy="417" r="4"/><circle cx="2560" cy="446" r="5"/><circle cx="-0" cy="446" r="5"/><circle cx="16" cy="507" r="6"/><circle cx="129" cy="521" r="5"/><circle cx="203" cy="544" r="5"/><circle cx="293" cy="521" r="6"/><circle cx="344" cy="557" r="6"/><circle cx="434" cy="520" r="6"/><circle cx="523" cy="514" r="6"/><circle cx="578" cy="533" r="5"/><circle cx="706" cy="529" r="6"/><circle cx="792" cy="547" r="5"/><circle cx="872" cy="492" r="6"/><circle cx="933" cy="495" r="4"/><circle cx="970" cy="539" r="5"/><circle cx="1042" cy="491" r="5"/><circle cx="1169" cy="495" r="5"/><circle cx="1272" cy="537" r="5"/><circle cx="1329" cy="531" r="5"/><circle cx="1418" cy="549" r="5"/><circle cx="1481" cy="480" r="6"/><circle cx="1577" cy="495" r="5"/><circle cx="1603" cy="527" r="5"/><circle cx="1759" cy="528" r="5"/><circle cx="1783" cy="510" r="6"/><circle cx="1847" cy="555" r="5"/><circle cx="1949" cy="546" r="4"/><circle cx="2021" cy="527" r="5"/><circle cx="2146" cy="536" r="5"/><circle cx="2166" cy="485" r="5"/><circle cx="2256" cy="510" r="5"/><circle cx="2384" cy="517" r="5"/><circle cx="2413" cy="543" r="5"/><circle cx="2489" cy="527" r="5"/><circle cx="42" cy="615" r="4"/><circle cx="141" cy="604" r="6"/><circle cx="221" cy="588" r="5"/><circle cx="267" cy="572" r="5"/><circle cx="359" cy="639" r="5"/><circle cx="451" cy="616" r="5"/><circle cx="558" cy="567" r="4"/><circle cx="605" cy="575" r="6"/><circle cx="696" cy="587" r="5"/><circle cx="726" cy="614" r="5"/><circle cx="834" cy="608" r="5"/><circle cx="901" cy="579" r="5"/><circle cx="1022" cy="578" r="5"/><circle cx="1082" cy="620" r="6"/><circle cx="1139" cy="632" r="5"/><circle cx="1249" cy="623" r="6"/><circle cx="1324" cy="592" r="5"/><circle cx="1381" cy="593" r="5"/><circle cx="1494" cy="613" r="5"/><circle cx="1599" cy="604" r="6"/><circle cx="1675" cy="575" r="4"/><circle cx="1740" cy="590" r="5"/><circle cx="1821" cy="565" r="4"/><circle cx="1849" cy="583" r="4"/><circle cx="1978" cy="639" r="6"/><circle cx="2031" cy="608" r="6"/><circle cx="2086" cy="616" r="6"/><circle cx="2186" cy="599" r="6"/><circle cx="2262" cy="583" r="6"/><circle cx="2379" cy="569" r="5"/><circle cx="2428" cy="594" r="4"/><circle cx="2548" cy="614" r="6"/><circle cx="44" cy="696" r="4"/><circle cx="86" cy="673" r="5"/><circle cx="178" cy="652" r="5"/><circle cx="274" cy="675" r="4"/><circle cx="367" cy="645" r="6"/><circle cx="437" cy="719" r="4"/><circle cx="515" cy="642" r="4"/><circle cx="612" cy="670" r="5"/><circle cx="708" cy="685" r="6"/><circle cx="725" cy="707" r="5"/><circle cx="840" cy="687" r="4"/><circle cx="888" cy="687" r="6"/><circle cx="977" cy="719" r="6"/><circle cx="1094" cy="694" r="5"/><circle cx="1128" cy="643" r="4"/><circle cx="1245" cy="647" r="4"/><circle cx="1290" cy="705" r="5"/><circle cx="1418" cy="651" r="5"/><circle cx="1452" cy="706" r="6"/><circle cx="1578" cy="665" r="4"/><circle cx="1601" cy="710" r="4"/><circle cx="1720" cy="692" r="5"/><circle cx="1833" cy="686" r="4"/><circle cx="1908" cy="649" r="5"/><circle cx="1942" cy="704" r="6"/><circle cx="2003" cy="641" r="4"/><circle cx="2136" cy="642" r="4"/><circle cx="2181" cy="690" r="5"/><circle cx="2306" cy="670" r="5"/><circle cx="2381" cy="648" r="5"/><circle cx="2463" cy="641" r="5"/><circle cx="2549" cy="646" r="5"/><circle cx="53" cy="790" r="5"/><circle cx="132" cy="721" r="5"/><circle cx="229" cy="776" r="5"/><circle cx="259" cy="756" r="5"/><circle cx="356" cy="732" r="6"/><circle cx="458" cy="767" r="4"/><circle cx="543" cy="739" r="5"/><circle cx="623" cy="762" r="4"/><circle cx="651" cy="729" r="6"/><circle cx="780" cy="743" r="4"/><circle cx="847" cy="750" r="6"/><circle cx="921" cy="744" r="6"/><circle cx="983" cy="728" r="6"/><circle cx="1098" cy="727" r="5"/><circle cx="1182" cy="796" r="4"/><circle cx="1274" cy="732" r="5"/><circle cx="1351" cy="736" r="5"/><circle cx="1407" cy="760" r="4"/><circle cx="1450" cy="761" r="4"/><circle cx="1535" cy="745" r="4"/><circle cx="1659" cy="751" r="6"/><circle cx="1701" cy="789" r="4"/><circle cx="1761" cy="783" r="5"/><circle cx="1853" cy="744" r="5"/><circle cx="1921" cy="729" r="6"/><circle cx="2034" cy="796" r="4"/><circle cx="2133" cy="747" r="5"/><circle cx="2195" cy="754" r="5"/><circle cx="2256" cy="778" r="6"/><circle cx="2379" cy="793" r="6"/><circle cx="2480" cy="758" r="5"/><circle cx="2514" cy="741" r="6"/><circle cx="33" cy="852" r="5"/><circle cx="90" cy="864" r="6"/><circle cx="198" cy="842" r="4"/><circle cx="277" cy="837" r="5"/><circle cx="391" cy="872" r="5"/><circle cx="441" cy="825" r="4"/><circle cx="538" cy="811" r="4"/><circle cx="574" cy="834" r="6"/><circle cx="703" cy="836" r="5"/><circle cx="767" cy="802" r="5"/><circle cx="802" cy="806" r="6"/><circle cx="934" cy="818" r="5"/><circle cx="1007" cy="814" r="5"/><circle cx="1066" cy="808" r="4"/><circle cx="1176" cy="838" r="6"/><circle cx="1274" cy="816" r="5"/><circle cx="1343" cy="843" r="5"/><circle cx="1426" cy="878" r="4"/><circle cx="1485" cy="861" r="5"/><circle cx="1547" cy="820" r="6"/><circle cx="1647" cy="838" r="5"/><circle cx="1753" cy="855" r="6"/><circle cx="1821" cy="853" r="4"/><circle cx="1861" cy="825" r="6"/><circle cx="1993" cy="863" r="5"/><circle cx="2031" cy="873" r="4"/><circle cx="2134" cy="839" r="4"/><circle cx="2178" cy="826" r="5"/><circle cx="2270" cy="802" r="4"/><circle cx="2379" cy="840" r="4"/><circle cx="2467" cy="816" r="5"/><circle cx="2481" cy="839" r="6"/><circle cx="21" cy="887" r="4"/><circle cx="99" cy="936" r="4"/><circle cx="197" cy="921" r="4"/><circle cx="241" cy="883" r="5"/><circle cx="340" cy="892" r="6"/><circle cx="477" cy="935" r="6"/><circle cx="543" cy="945" r="5"/><circle cx="594" cy="945" r="6"/><circle cx="691" cy="898" r="5"/><circle cx="723" cy="948" r="5"/><circle cx="813" cy="915" r="5"/><circle cx="935" cy="894" r="5"/><circle cx="1030" cy="949" r="6"/><circle cx="1063" cy="937" r="6"/><circle cx="1146" cy="909" r="6"/><circle cx="1262" cy="904" r="6"/><circle cx="1307" cy="886" r="5"/><circle cx="1384" cy="911" r="5"/><circle cx="1463" cy="936" r="5"/><circle cx="1573" cy="924" r="6"/><circle cx="1622" cy="898" r="5"/><circle cx="1755" cy="884" r="6"/><circle cx="1776" cy="939" r="5"/><circle cx="1888" cy="908" r="6"/><circle cx="1936" cy="924" r="5"/><circle cx="2079" cy="947" r="4"/><circle cx="2090" cy="894" r="4"/><circle cx="2191" cy="928" r="5"/><circle cx="2318" cy="953" r="5"/><circle cx="2363" cy="891" r="6"/><circle cx="2456" cy="940" r="6"/><circle cx="2536" cy="881" r="4"/><circle cx="44" cy="985" r="5"/><circle cx="123" cy="1035" r="4"/><circle cx="177" cy="1005" r="6"/><circle cx="294" cy="981" r="5"/><circle cx="358" cy="1025" r="6"/><circle cx="458" cy="1006" r="5"/><circle cx="509" cy="960" r="4"/><circle cx="611" cy="1018" r="5"/><circle cx="683" cy="1003" r="4"/><circle cx="729" cy="1016" r="6"/><circle cx="822" cy="1001" r="5"/><circle cx="892" cy="1031" r="5"/><circle cx="1033" cy="1004" r="5"/><circle cx="1109" cy="992" r="4"/><circle cx="1160" cy="963" r="6"/><circle cx="1233" cy="970" r="4"/><circle cx="1303" cy="981" r="6"/><circle cx="1433" cy="979" r="6"/><circle cx="1462" cy="970" r="6"/><circle cx="1540" cy="979" r="4"/><circle cx="1636" cy="1026" r="5"/><circle cx="1747" cy="1002" r="4"/><circle cx="1766" cy="1031" r="5"/><circle cx="1895" cy="1020" r="5"/><circle cx="1928" cy="968" r="4"/><circle cx="2060" cy="987" r="6"/><circle cx="2144" cy="1012" r="5"/><circle cx="2164" cy="1034" r="6"/><circle cx="2271" cy="996" r="5"/><circle cx="2322" cy="1022" r="5"/><circle cx="2445" cy="986" r="5"/><circle cx="2537" cy="1032" r="5"/><circle cx="37" cy="1051" r="4"/><circle cx="148" cy="1070" r="5"/><circle cx="161" cy="1069" r="5"/><circle cx="284" cy="1096" r="6"/><circle cx="353" cy="1119" r="5"/><circle cx="420" cy="1049" r="6"/><circle cx="497" cy="1049" r="4"/><circle cx="609" cy="1079" r="6"/><circle cx="702" cy="1064" r="6"/><circle cx="774" cy="1051" r="4"/><circle cx="802" cy="1064" r="5"/><circle cx="903" cy="1064" r="4"/><circle cx="983" cy="1087" r="6"/><circle cx="1053" cy="1106" r="5"/><circle cx="1170" cy="1075" r="5"/><circle cx="1277" cy="1053" r="6"/><circle cx="1351" cy="1072" r="4"/><circle cx="1380" cy="1073" r="5"/><circle cx="1498" cy="1046" r="6"/><circle cx="1565" cy="1094" r="5"/><circle cx="1663" cy="1075" r="5"/><circle cx="1717" cy="1056" r="4"/><circle cx="1830" cy="1071" r="4"/><circle cx="1912" cy="1096" r="4"/><circle cx="1942" cy="1085" r="6"/><circle cx="2067" cy="1120" r="5"/><circle cx="2149" cy="1114" r="6"/><circle cx="2213" cy="1068" r="5"/><circle cx="2267" cy="1069" r="5"/><circle cx="2384" cy="1072" r="6"/><circle cx="2464" cy="1095" r="5"/><circle cx="2507" cy="1070" r="5"/><circle cx="38" cy="1169" r="4"/><circle cx="97" cy="1158" r="6"/><circle cx="204" cy="1158" r="5"/><circle cx="277" cy="1120" r="4"/><circle cx="367" cy="1174" r="4"/><circle cx="473" cy="1155" r="5"/><circle cx="532" cy="1161" r="6"/><circle cx="564" cy="1146" r="4"/><circle cx="691" cy="1185" r="5"/><circle cx="764" cy="1121" r="5"/><circle cx="842" cy="1175" r="4"/><circle cx="932" cy="1130" r="5"/><circle cx="972" cy="1139" r="6"/><circle cx="1054" cy="1167" r="4"/><circle cx="1157" cy="1141" r="5"/><circle cx="1236" cy="1182" r="4"/><circle cx="1337" cy="1157" r="4"/><circle cx="1362" cy="1175" r="5"/><circle cx="1451" cy="1175" r="5"/><circle cx="1543" cy="1178" r="4"/><circle cx="1631" cy="1149" r="6"/><circle cx="1694" cy="1192" r="5"/><circle cx="1786" cy="1162" r="6"/><circle cx="1848" cy="1129" r="4"/><circle cx="1926" cy="1155" r="4"/><circle cx="2013" cy="1154" r="6"/><circle cx="2116" cy="1145" r="5"/><circle cx="2192" cy="1181" r="4"/><circle cx="2290" cy="1161" r="4"/><circle cx="2327" cy="1123" r="6"/><circle cx="2416" cy="1143" r="5"/><circle cx="2486" cy="1149" r="5"/><circle cx="22" cy="1217" r="5"/><circle cx="124" cy="1258" r="4"/><circle cx="176" cy="1218" r="5"/><circle cx="253" cy="1228" r="5"/><circle cx="387" cy="1218" r="6"/><circle cx="411" cy="1219" r="5"/><circle cx="499" cy="1272" r="5"/><circle cx="632" cy="1236" r="5"/><circle cx="701" cy="1218" r="4"/><circle cx="746" cy="1224" r="5"/><circle cx="822" cy="1242" r="5"/><circle cx="932" cy="1247" r="4"/><circle cx="1012" cy="1250" r="5"/><circle cx="1073" cy="1223" r="4"/><circle cx="1200" cy="1277" r="5"/><circle cx="1256" cy="1202" r="5"/><circle cx="1353" cy="1250" r="5"/><circle cx="1384" cy="1268" r="6"/><circle cx="1448" cy="1230" r="6"/><circle cx="1534" cy="1278" r="4"/><circle cx="1636" cy="1237" r="4"/><circle cx="1744" cy="1256" r="4"/><circle cx="1805" cy="1265" r="5"/><circle cx="1867" cy="1254" r="5"/><circle cx="1931" cy="1224" r="5"/><circle cx="2058" cy="1267" r="5"/><circle cx="2118" cy="1207" r="4"/><circle cx="2186" cy="1264" r="6"/><circle cx="2259" cy="1238" r="4"/><circle cx="2371" cy="1247" r="5"/><circle cx="2457" cy="1242" r="5"/><circle cx="2507" cy="1237" r="5"/><circle cx="18" cy="1335" r="5"/><circle cx="144" cy="1291" r="4"/><circle cx="226" cy="1348" r="6"/><circle cx="293" cy="1295" r="4"/><circle cx="328" cy="1329" r="5"/><circle cx="471" cy="1294" r="4"/><circle cx="495" cy="1331" r="4"/><circle cx="595" cy="1304" r="5"/><circle cx="694" cy="1301" r="6"/><circle cx="726" cy="1316" r="6"/><circle cx="859" cy="1284" r="6"/><circle cx="895" cy="1311" r="5"/><circle cx="963" cy="1323" r="4"/><circle cx="1043" cy="1334" r="6"/><circle cx="1155" cy="1317" r="4"/><circle cx="1237" cy="1306" r="5"/><circle cx="1318" cy="1331" r="5"/><circle cx="1408" cy="1351" r="6"/><circle cx="1467" cy="1338" r="6"/><circle cx="1540" cy="1347" r="5"/><circle cx="1648" cy="1334" r="5"/><circle cx="1711" cy="1332" r="5"/><circle cx="1824" cy="1355" r="5"/><circle cx="1871" cy="1326" r="5"/><circle cx="1982" cy="1345" r="5"/><circle cx="2073" cy="1327" r="4"/><circle cx="2116" cy="1339" r="6"/><circle cx="2172" cy="1330" r="4"/><circle cx="2314" cy="1328" r="5"/><circle cx="2351" cy="1283" r="4"/><circle cx="2426" cy="1334" r="5"/><circle cx="2554" cy="1352" r="6"/><circle cx="30" cy="1421" r="5"/><circle cx="82" cy="1403" r="6"/><circle cx="192" cy="1430" r="5"/><circle cx="312" cy="1375" r="5"/><circle cx="380" cy="1399" r="6"/><circle cx="440" cy="1398" r="5"/><circle cx="512" cy="1385" r="4"/><circle cx="563" cy="1404" r="4"/><circle cx="640" cy="1425" r="5"/><circle cx="725" cy="1383" r="4"/><circle cx="868" cy="1408" r="6"/><circle cx="950" cy="1364" r="6"/><circle cx="1036" cy="1393" r="6"/><circle cx="1106" cy="1434" r="6"/><circle cx="1153" cy="1418" r="6"/><circle cx="1233" cy="1361" r="5"/><circle cx="1356" cy="1362" r="4"/><circle cx="1427" cy="1395" r="5"/><circle cx="1496" cy="1374" r="6"/><circle cx="1585" cy="1385" r="4"/><circle cx="1673" cy="1435" r="6"/><circle cx="1673" cy="-5" r="6"/><circle cx="1744" cy="1384" r="4"/><circle cx="1784" cy="1394" r="6"/><circle cx="1901" cy="1408" r="5"/><circle cx="1961" cy="1393" r="5"/><circle cx="2023" cy="1375" r="6"/><circle cx="2142" cy="1421" r="4"/><circle cx="2231" cy="1383" r="4"/><circle cx="2273" cy="1420" r="4"/><circle cx="2365" cy="1438" r="5"/><circle cx="2365" cy="-2" r="5"/><circle cx="2420" cy="1407" r="6"/><circle cx="2549" cy="1394" r="4"/><path stroke="#fff" d="M32 6L-54 54M32 6L-6 -88M32 6L30 -19M32 6L82 -37M32 6L-11 -46M2592 6L2506 54M2592 6L2554 -88M2592 6L2549 -46M32 1446L-6 1352M32 1446L30 1421M32 1446L82 1403M32 1446L-11 1394M2592 1446L2554 1352M2592 1446L2549 1394M130 15L217 26M130 15L82 -37M130 15L192 -10M130 1455L82 1403M130 1455L192 1430M217 26L242 50M217 26L184 100M217 26L192 -10M217 1466L192 1430M242 50L184 100M242 50L270 133M242 50L192 -10M242 1490L192 1430M396 40L415 68M396 40L374 131M396 40L417 114M396 40L380 -41M396 40L440 -42M396 1480L380 1399M396 1480L440 1398M415 68L374 131M415 68L417 114M415 68L380 -41M415 68L440 -42M415 1508L380 1399M415 1508L440 1398M527 32L633 9M527 32L545 126M527 32L512 -55M527 32L563 -36M527 1472L512 1385M527 1472L563 1404M633 9L671 53M633 9L636 113M633 9L563 -36M633 9L640 -15M633 1449L563 1404M633 1449L640 1425M671 53L636 113M671 53L708 98M671 53L721 111M671 53L640 -15M671 1493L640 1425M775 44L800 38M775 44L708 98M800 38L883 104M800 38L868 -32M800 1478L868 1408M919 37L1002 65M919 37L883 104M919 37L996 119M919 37L868 -32M919 1477L868 1408M1002 65L996 119M1002 65L979 174M1002 65L1036 -47M1002 1505L1036 1393M1098 65L1187 76M1098 65L1201 62M1098 65L1098 100M1098 65L1132 87M1098 65L1106 -6M1098 1505L1106 1434M1187 76L1201 62M1187 76L1132 87M1187 76L1232 137M1187 76L1153 -22M1187 1516L1153 1418M1201 62L1132 87M1201 62L1232 137M1201 62L1153 -22M1201 1502L1153 1418M1314 65L1388 26M1314 65L1232 137M1314 65L1314 92M1388 26L1314 92M1388 26L1356 -78M1388 26L1427 -45M1388 1466L1356 1362M1388 1466L1427 1395M1518 27L1555 34M1518 27L1607 49M1518 27L1564 118M1555 34L1607 49M1555 34L1564 118M1555 34L1585 -55M1555 1474L1585 1385M1607 49L1564 118M1607 49L1676 123M1607 49L1673 -5M1607 1489L1673 1435M1750 40L1770 48M1750 40L1706 111M1750 40L1673 -5M1750 40L1744 -56M1750 40L1784 -46M1750 1480L1673 1435M1750 1480L1744 1384M1750 1480L1784 1394M1770 48L1865 64M1770 48L1706 111M1770 48L1842 97M1770 48L1784 -46M1770 1488L1784 1394M1865 64L1989 60M1865 64L1807 144M1865 64L1842 97M1865 64L1901 -32M1865 1504L1901 1408M1989 60L2049 53M1989 60L1988 120M1989 60L2034 137M1989 60L1961 -47M1989 1500L1961 1393M2049 53L2144 42M2049 53L1988 120M2049 53L2034 137M2144 42L2194 10M2144 42L2155 136M2144 42L2142 -19M2144 1482L2142 1421M2194 10L2297 39M2194 10L2142 -19M2194 10L2231 -57M2194 10L2273 -20M2194 1450L2142 1421M2194 1450L2231 1383M2194 1450L2273 1420M2297 39L2369 6M2297 39L2374 91M2297 39L2273 -20M2297 39L2365 -2M2297 1479L2273 1420M2297 1479L2365 1438M2369 6L2410 58M2369 6L2374 91M2369 6L2365 -2M2369 6L2420 -33M2369 1446L2365 1438M2369 1446L2420 1407M2410 58L2374 91M2410 58L2467 89M2410 58L2365 -2M2410 58L2420 -33M2410 1498L2365 1438M2410 1498L2420 1407M2506 54L2570 118M2506 54L2467 89M2506 54L2534 112M-54 54L10 118M10 118L85 129M10 118L-26 112M2570 118L2534 112M85 129L184 100M85 129L48 229M85 129L87 196M85 129L182 188M184 100L270 133M184 100L182 188M270 133L182 188M270 133L306 186M270 133L342 204M374 131L417 114M374 131L306 186M374 131L342 204M417 114L511 165M545 126L511 165M545 126L631 197M636 113L708 98M636 113L721 111M636 113L631 197M708 98L721 111M708 98L710 177M721 111L710 177M721 111L750 182M854 146L883 104M854 146L858 216M854 146L930 201M854 146L844 245M996 119L930 201M996 119L979 174M996 119L1042 189M1098 100L1132 87M1098 100L1042 189M1132 87L1106 -6M1132 1527L1106 1434M1232 137L1314 92M1232 137L1208 217M1314 92L1392 157M1314 92L1408 163M1392 157L1475 129M1392 157L1319 236M1392 157L1408 163M1392 157L1465 217M1475 129L1564 118M1475 129L1408 163M1475 129L1465 217M1564 118L1579 180M1676 123L1706 111M1676 123L1664 173M1676 123L1683 199M1706 111L1664 173M1706 111L1683 199M1807 144L1842 97M1807 144L1831 201M1807 144L1841 216M1842 97L1831 201M1988 120L2034 137M1988 120L1984 194M2034 137L1984 194M2034 137L2023 234M2155 136L2217 149M2155 136L2258 151M2155 136L2133 211M2217 149L2258 151M2217 149L2133 211M2217 149L2205 199M2217 149L2276 172M2258 151L2205 199M2258 151L2276 172M2258 151L2336 199M2374 91L2467 89M2374 91L2365 -2M2374 1531L2365 1438M2467 89L2534 112M2467 89L2468 192M2534 112L2468 192M2534 112L2489 212M48 229L87 196M48 229L61 262M48 229L-2 295M2608 229L2558 295M87 196L182 188M87 196L61 262M87 196L145 250M182 188L145 250M306 186L342 204M306 186L279 304M342 204L437 230M342 204L395 278M437 230L511 165M437 230L395 278M437 230L417 288M437 230L517 279M631 197L710 177M631 197L639 274M631 197L685 245M710 177L750 182M710 177L685 245M750 182L858 216M750 182L685 245M858 216L930 201M858 216L844 245M858 216L938 279M930 201L979 174M930 201L938 279M979 174L1042 189M1042 189L1007 303M1158 237L1208 217M1158 237L1105 305M1158 237L1196 308M1158 237L1237 263M1158 237L1222 326M1208 217L1196 308M1208 217L1237 263M1319 236L1408 163M1319 236L1325 267M1319 236L1395 307M1408 163L1465 217M1465 217L1579 180M1465 217L1509 287M1579 180L1664 173M1579 180L1658 243M1664 173L1683 199M1664 173L1658 243M1683 199L1658 243M1683 199L1718 248M1831 201L1841 216M1831 201L1804 264M1831 201L1869 253M1841 216L1804 264M1841 216L1869 253M1984 194L2023 234M1984 194L1950 262M1984 194L2017 271M2023 234L1950 262M2023 234L2017 271M2023 234L2093 265M2133 211L2205 199M2133 211L2093 265M2133 211L2170 252M2205 199L2276 172M2205 199L2170 252M2276 172L2336 199M2276 172L2374 256M2336 199L2374 256M2336 199L2404 248M2468 192L2489 212M2468 192L2374 256M2468 192L2404 248M2489 212L2404 248M2489 212L2558 295M2489 212L2502 327M61 262L145 250M61 262L-2 295M61 262L51 334M2621 262L2558 295M145 250L162 289M145 250L141 334M162 289L279 304M162 289L141 334M162 289L164 380M279 304L248 392M279 304L331 327M395 278L417 288M395 278L331 327M395 278L409 348M417 288L517 279M417 288L331 327M417 288L409 348M639 274L685 245M639 274L736 293M685 245L736 293M736 293L684 380M736 293L737 383M736 293L829 343M844 245L829 343M938 279L1007 303M938 279L894 356M938 279L972 360M1007 303L1105 305M1007 303L972 360M1007 303L1109 335M1105 305L1109 335M1196 308L1237 263M1196 308L1173 384M1196 308L1222 326M1237 263L1325 267M1237 263L1222 326M1325 267L1395 307M1325 267L1295 384M1325 267L1400 348M1395 307L1400 348M1395 307L1481 342M1395 307L1390 413M1509 287L1571 287M1509 287L1481 342M1509 287L1522 357M1571 287L1481 342M1571 287L1522 357M1571 287L1642 326M1658 243L1718 248M1658 243L1642 326M1718 248L1804 264M1718 248L1642 326M1718 248L1697 353M1804 264L1869 253M1869 253L1950 262M1869 253L1886 340M1950 262L2017 271M1950 262L1935 369M2017 271L2093 265M2017 271L2060 336M2093 265L2170 252M2093 265L2060 336M2170 252L2272 318M2170 252L2181 332M2272 318L2374 256M2272 318L2181 332M2272 318L2243 386M2374 256L2404 248M2558 295L2611 334M2558 295L2502 327M-2 295L51 334M51 334L141 334M51 334L17 416M141 334L164 380M141 334L125 432M164 380L248 392M164 380L125 432M164 380L207 451M248 392L331 327M248 392L207 451M248 392L277 438M331 327L409 348M409 348L514 390M514 390L599 384M514 390L446 479M514 390L558 429M514 390L575 407M599 384L684 380M599 384L558 429M599 384L575 407M599 384L654 444M684 380L737 383M684 380L654 444M684 380L754 473M737 383L829 343M737 383L754 473M737 383L811 433M829 343L894 356M829 343L811 433M894 356L972 360M894 356L909 423M972 360L909 423M972 360L971 449M1109 335L1173 384M1109 335L1072 437M1173 384L1222 326M1173 384L1184 424M1173 384L1225 479M1222 326L1295 384M1295 384L1288 449M1295 384L1390 413M1400 348L1481 342M1400 348L1390 413M1481 342L1522 357M1642 326L1697 353M1642 326L1679 408M1697 353L1786 381M1697 353L1679 408M1697 353L1718 464M1786 381L1886 340M1786 381L1679 408M1786 381L1821 431M1886 340L1935 369M1886 340L1821 431M1886 340L1908 406M1935 369L1908 406M1935 369L1995 402M2060 336L2082 398M2060 336L1995 402M2082 398L2181 332M2082 398L1995 402M2082 398L2031 446M2082 398L2147 426M2181 332L2243 386M2181 332L2147 426M2243 386L2277 467M2398 400L2457 383M2398 400L2502 327M2398 400L2364 427M2398 400L2420 417M2457 383L2502 327M2457 383L2364 427M2457 383L2420 417M2502 327L2577 416M-58 327L17 416M17 416L125 432M17 416L-0 446M17 416L16 507M2577 416L2560 446M125 432L207 451M125 432L129 521M207 451L277 438M277 438L365 474M277 438L293 521M365 474L446 479M365 474L293 521M365 474L344 557M365 474L434 520M446 479L434 520M446 479L523 514M558 429L575 407M575 407L654 444M754 473L811 433M754 473L706 529M754 473L792 547M811 433L872 492M909 423L971 449M909 423L872 492M909 423L933 495M971 449L933 495M971 449L970 539M971 449L1042 491M1072 437L1184 424M1072 437L1042 491M1072 437L1169 495M1184 424L1225 479M1184 424L1288 449M1184 424L1169 495M1225 479L1288 449M1225 479L1169 495M1225 479L1272 537M1288 449L1272 537M1288 449L1329 531M1390 413L1472 474M1390 413L1481 480M1472 474L1554 477M1472 474L1418 549M1472 474L1481 480M1472 474L1577 495M1554 477L1481 480M1554 477L1577 495M1554 477L1603 527M1679 408L1718 464M1718 464L1759 528M1718 464L1783 510M1821 431L1908 406M1821 431L1783 510M1908 406L1995 402M1908 406L2031 446M1995 402L2031 446M2031 446L2021 527M2147 426L2185 478M2147 426L2146 536M2147 426L2166 485M2185 478L2277 467M2185 478L2146 536M2185 478L2166 485M2185 478L2256 510M2277 467L2364 427M2277 467L2256 510M2277 467L2262 583M2364 427L2420 417M2364 427L2384 517M2560 446L2576 507M-0 446L16 507M16 507L-71 527M16 507L-12 614M2576 507L2489 527M2576 507L2548 614M129 521L203 544M129 521L141 604M203 544L293 521M203 544L141 604M203 544L221 588M203 544L267 572M293 521L344 557M293 521L267 572M344 557L267 572M344 557L359 639M344 557L367 645M434 520L523 514M434 520L451 616M523 514L578 533M523 514L558 567M523 514L605 575M578 533L558 567M578 533L605 575M706 529L792 547M706 529L696 587M706 529L726 614M792 547L872 492M792 547L726 614M792 547L834 608M872 492L933 495M872 492L901 579M933 495L970 539M933 495L901 579M970 539L1042 491M970 539L901 579M970 539L1022 578M1042 491L1022 578M1272 537L1329 531M1272 537L1249 623M1272 537L1324 592M1329 531L1418 549M1329 531L1324 592M1329 531L1381 593M1418 549L1481 480M1418 549L1381 593M1418 549L1418 651M1481 480L1577 495M1577 495L1603 527M1577 495L1599 604M1603 527L1599 604M1603 527L1675 575M1759 528L1783 510M1759 528L1847 555M1759 528L1740 590M1759 528L1821 565M1783 510L1847 555M1783 510L1821 565M1847 555L1949 546M1847 555L1821 565M1847 555L1849 583M1949 546L2021 527M1949 546L1978 639M1949 546L2031 608M2021 527L2031 608M2146 536L2166 485M2146 536L2086 616M2146 536L2186 599M2166 485L2256 510M2256 510L2262 583M2384 517L2413 543M2384 517L2489 527M2384 517L2379 569M2384 517L2428 594M2413 543L2489 527M2413 543L2379 569M2413 543L2428 594M2413 543L2381 648M2489 527L2548 614M42 615L-12 614M42 615L44 696M42 615L86 673M42 615L-11 646M2602 615L2548 614M2602 615L2549 646M141 604L221 588M141 604L86 673M141 604L178 652M221 588L267 572M221 588L178 652M221 588L274 675M359 639L451 616M359 639L274 675M359 639L367 645M359 639L356 732M451 616L367 645M451 616L437 719M451 616L515 642M558 567L605 575M558 567L515 642M605 575L696 587M605 575L612 670M696 587L726 614M696 587L708 685M726 614L708 685M726 614L725 707M834 608L901 579M834 608L840 687M1022 578L1082 620M1082 620L1139 632M1082 620L1094 694M1082 620L1128 643M1082 620L1098 727M1139 632L1094 694M1139 632L1128 643M1139 632L1098 727M1249 623L1324 592M1249 623L1245 647M1249 623L1290 705M1249 623L1274 732M1324 592L1381 593M1324 592L1245 647M1381 593L1494 613M1381 593L1418 651M1494 613L1599 604M1494 613L1418 651M1494 613L1578 665M1599 604L1675 575M1599 604L1578 665M1675 575L1740 590M1740 590L1821 565M1740 590L1849 583M1740 590L1720 692M1821 565L1849 583M1849 583L1908 649M1978 639L2031 608M1978 639L1908 649M1978 639L1942 704M1978 639L2003 641M2031 608L2086 616M2031 608L2003 641M2086 616L2186 599M2086 616L2003 641M2086 616L2136 642M2186 599L2262 583M2186 599L2136 642M2186 599L2181 690M2262 583L2379 569M2262 583L2306 670M2379 569L2428 594M2379 569L2381 648M2428 594L2381 648M2428 594L2463 641M2548 614L2463 641M2548 614L2549 646M44 696L86 673M44 696L-11 646M44 696L132 721M44 696L-46 741M2604 696L2549 646M2604 696L2514 741M86 673L178 652M86 673L132 721M178 652L132 721M274 675L367 645M274 675L259 756M274 675L356 732M367 645L356 732M437 719L356 732M437 719L458 767M612 670L543 739M612 670L623 762M612 670L651 729M708 685L725 707M708 685L651 729M708 685L780 743M725 707L651 729M725 707L780 743M725 707L767 802M840 687L888 687M840 687L847 750M888 687L977 719M888 687L847 750M888 687L921 744M888 687L983 728M977 719L921 744M977 719L983 728M977 719L934 818M977 719L1007 814M1094 694L1128 643M1094 694L1098 727M1128 643L1098 727M1245 647L1290 705M1245 647L1274 732M1290 705L1274 732M1290 705L1351 736M1418 651L1452 706M1452 706L1351 736M1452 706L1407 760M1452 706L1450 761M1452 706L1535 745M1578 665L1601 710M1578 665L1535 745M1601 710L1535 745M1601 710L1659 751M1720 692L1833 686M1720 692L1659 751M1720 692L1701 789M1720 692L1761 783M1833 686L1908 649M1833 686L1853 744M1833 686L1921 729M1908 649L1942 704M1908 649L1921 729M1942 704L2003 641M1942 704L1853 744M1942 704L1921 729M2136 642L2181 690M2136 642L2133 747M2181 690L2133 747M2181 690L2195 754M2181 690L2256 778M2306 670L2381 648M2381 648L2463 641M2463 641L2549 646M2549 646L2514 741M53 790L132 721M53 790L33 852M53 790L90 864M132 721L229 776M229 776L259 756M229 776L198 842M229 776L277 837M229 776L241 883M259 756L356 732M259 756L277 837M458 767L543 739M458 767L441 825M458 767L538 811M543 739L623 762M543 739L538 811M543 739L574 834M623 762L651 729M623 762L538 811M623 762L574 834M651 729L703 836M780 743L847 750M780 743L767 802M780 743L802 806M847 750L921 744M847 750L802 806M921 744L983 728M921 744L934 818M983 728L934 818M983 728L1007 814M1098 727L1066 808M1182 796L1176 838M1274 732L1351 736M1274 732L1274 816M1351 736L1407 760M1407 760L1450 761M1450 761L1535 745M1535 745L1547 820M1659 751L1701 789M1659 751L1647 838M1701 789L1761 783M1701 789L1647 838M1701 789L1753 855M1761 783L1853 744M1761 783L1753 855M1761 783L1755 884M1853 744L1921 729M1853 744L1861 825M1921 729L1861 825M2034 796L1993 863M2034 796L2031 873M2034 796L2134 839M2133 747L2195 754M2133 747L2134 839M2133 747L2178 826M2195 754L2256 778M2195 754L2178 826M2195 754L2270 802M2256 778L2178 826M2256 778L2270 802M2379 793L2480 758M2379 793L2379 840M2379 793L2467 816M2379 793L2363 891M2480 758L2514 741M2480 758L2467 816M2480 758L2481 839M2514 741L2467 816M2514 741L2481 839M33 852L90 864M33 852L21 887M33 852L-24 881M2593 852L2536 881M90 864L198 842M90 864L21 887M90 864L99 936M198 842L277 837M198 842L197 921M198 842L241 883M277 837L241 883M277 837L340 892M391 872L441 825M391 872L340 892M391 872L477 935M441 825L538 811M538 811L574 834M574 834L594 945M703 836L767 802M703 836L802 806M703 836L691 898M767 802L802 806M802 806L813 915M934 818L1007 814M934 818L935 894M1007 814L1066 808M1007 814L935 894M1066 808L1176 838M1176 838L1274 816M1176 838L1146 909M1274 816L1343 843M1274 816L1262 904M1274 816L1307 886M1343 843L1426 878M1343 843L1262 904M1343 843L1307 886M1343 843L1384 911M1426 878L1485 861M1426 878L1384 911M1426 878L1463 936M1426 878L1462 970M1485 861L1547 820M1485 861L1463 936M1485 861L1573 924M1547 820L1647 838M1547 820L1573 924M1547 820L1622 898M1647 838L1622 898M1753 855L1821 853M1753 855L1755 884M1753 855L1776 939M1821 853L1861 825M1821 853L1755 884M1821 853L1776 939M1821 853L1888 908M1861 825L1755 884M1861 825L1888 908M1993 863L2031 873M1993 863L1936 924M2031 873L1936 924M2031 873L2079 947M2031 873L2090 894M2134 839L2178 826M2134 839L2090 894M2134 839L2191 928M2178 826L2191 928M2379 840L2363 891M2467 816L2481 839M2467 816L2536 881M2481 839L2456 940M2481 839L2536 881M21 887L99 936M21 887L-24 881M21 887L44 985M2581 887L2536 881M99 936L197 921M99 936L44 985M99 936L177 1005M197 921L241 883M197 921L177 1005M197 921L294 981M241 883L340 892M340 892L294 981M477 935L543 945M477 935L458 1006M477 935L509 960M543 945L594 945M543 945L509 960M543 945L611 1018M594 945L691 898M594 945L509 960M594 945L611 1018M691 898L723 948M723 948L813 915M723 948L683 1003M723 948L729 1016M813 915L935 894M813 915L822 1001M935 894L1030 949M1030 949L1063 937M1030 949L1033 1004M1030 949L1109 992M1063 937L1146 909M1063 937L1033 1004M1063 937L1109 992M1063 937L1160 963M1146 909L1109 992M1146 909L1160 963M1262 904L1307 886M1262 904L1233 970M1262 904L1303 981M1307 886L1384 911M1307 886L1303 981M1384 911L1463 936M1384 911L1433 979M1463 936L1433 979M1463 936L1462 970M1573 924L1622 898M1573 924L1540 979M1755 884L1776 939M1776 939L1747 1002M1776 939L1766 1031M1888 908L1936 924M1888 908L1928 968M1936 924L1895 1020M1936 924L1928 968M2079 947L2090 894M2079 947L2060 987M2090 894L2060 987M2191 928L2144 1012M2191 928L2164 1034M2191 928L2271 996M2318 953L2363 891M2318 953L2271 996M2318 953L2322 1022M2363 891L2456 940M2456 940L2536 881M2456 940L2445 986M44 985L123 1035M44 985L-23 1032M44 985L37 1051M2604 985L2537 1032M123 1035L177 1005M123 1035L37 1051M123 1035L148 1070M123 1035L161 1069M177 1005L148 1070M177 1005L161 1069M294 981L358 1025M294 981L284 1096M358 1025L458 1006M358 1025L284 1096M358 1025L353 1119M358 1025L420 1049M458 1006L509 960M458 1006L420 1049M458 1006L497 1049M509 960L497 1049M611 1018L683 1003M611 1018L609 1079M683 1003L729 1016M683 1003L609 1079M683 1003L702 1064M729 1016L702 1064M729 1016L774 1051M729 1016L802 1064M822 1001L892 1031M822 1001L774 1051M822 1001L802 1064M822 1001L903 1064M892 1031L802 1064M892 1031L903 1064M892 1031L932 1130M1033 1004L1109 992M1033 1004L983 1087M1033 1004L1053 1106M1109 992L1160 963M1160 963L1233 970M1160 963L1170 1075M1233 970L1303 981M1233 970L1170 1075M1233 970L1277 1053M1303 981L1277 1053M1303 981L1351 1072M1433 979L1462 970M1433 979L1380 1073M1433 979L1498 1046M1462 970L1540 979M1462 970L1498 1046M1540 979L1636 1026M1540 979L1498 1046M1636 1026L1565 1094M1636 1026L1663 1075M1636 1026L1717 1056M1747 1002L1766 1031M1747 1002L1717 1056M1766 1031L1663 1075M1766 1031L1717 1056M1766 1031L1830 1071M1895 1020L1928 968M1895 1020L1830 1071M1895 1020L1912 1096M1895 1020L1942 1085M2060 987L2144 1012M2060 987L2164 1034M2060 987L2067 1120M2144 1012L2164 1034M2144 1012L2213 1068M2164 1034L2149 1114M2164 1034L2213 1068M2271 996L2322 1022M2271 996L2213 1068M2271 996L2267 1069M2322 1022L2267 1069M2322 1022L2384 1072M2322 1022L2327 1123M2445 986L2537 1032M2445 986L2384 1072M2445 986L2507 1070M2537 1032L2597 1051M2537 1032L2464 1095M2537 1032L2507 1070M-23 1032L37 1051M37 1051L-53 1070M2597 1051L2507 1070M148 1070L161 1069M148 1070L97 1158M161 1069L204 1158M284 1096L353 1119M284 1096L204 1158M284 1096L277 1120M353 1119L420 1049M353 1119L277 1120M353 1119L367 1174M420 1049L497 1049M420 1049L473 1155M497 1049L532 1161M609 1079L702 1064M609 1079L532 1161M609 1079L564 1146M702 1064L774 1051M702 1064L764 1121M774 1051L802 1064M774 1051L764 1121M802 1064L764 1121M903 1064L983 1087M903 1064L932 1130M903 1064L972 1139M983 1087L1053 1106M983 1087L932 1130M983 1087L972 1139M1053 1106L972 1139M1053 1106L1054 1167M1053 1106L1157 1141M1170 1075L1277 1053M1170 1075L1157 1141M1277 1053L1351 1072M1277 1053L1380 1073M1351 1072L1380 1073M1351 1072L1337 1157M1380 1073L1337 1157M1498 1046L1565 1094M1565 1094L1663 1075M1565 1094L1543 1178M1565 1094L1631 1149M1663 1075L1717 1056M1663 1075L1631 1149M1830 1071L1912 1096M1830 1071L1786 1162M1830 1071L1848 1129M1912 1096L1942 1085M1912 1096L1848 1129M1912 1096L1926 1155M1942 1085L1848 1129M1942 1085L1926 1155M1942 1085L2013 1154M2067 1120L2149 1114M2067 1120L2013 1154M2067 1120L2116 1145M2067 1120L2118 1207M2149 1114L2213 1068M2149 1114L2116 1145M2149 1114L2192 1181M2213 1068L2267 1069M2267 1069L2290 1161M2267 1069L2327 1123M2384 1072L2464 1095M2384 1072L2327 1123M2384 1072L2416 1143M2464 1095L2507 1070M2464 1095L2416 1143M2464 1095L2486 1149M2507 1070L2486 1149M38 1169L97 1158M38 1169L22 1217M38 1169L-53 1237M2598 1169L2507 1237M97 1158L22 1217M97 1158L176 1218M204 1158L277 1120M204 1158L176 1218M204 1158L253 1228M277 1120L367 1174M277 1120L253 1228M367 1174L387 1218M367 1174L411 1219M473 1155L532 1161M473 1155L564 1146M473 1155L387 1218M473 1155L411 1219M532 1161L564 1146M532 1161L499 1272M691 1185L764 1121M691 1185L632 1236M691 1185L701 1218M691 1185L746 1224M764 1121L842 1175M842 1175L932 1130M842 1175L822 1242M932 1130L972 1139M972 1139L1054 1167M1054 1167L1157 1141M1054 1167L1012 1250M1054 1167L1073 1223M1157 1141L1236 1182M1236 1182L1200 1277M1236 1182L1256 1202M1337 1157L1362 1175M1337 1157L1256 1202M1337 1157L1353 1250M1362 1175L1451 1175M1362 1175L1353 1250M1362 1175L1384 1268M1362 1175L1448 1230M1451 1175L1543 1178M1451 1175L1448 1230M1543 1178L1631 1149M1543 1178L1534 1278M1631 1149L1694 1192M1631 1149L1636 1237M1694 1192L1786 1162M1694 1192L1636 1237M1694 1192L1744 1256M1786 1162L1848 1129M1786 1162L1744 1256M1786 1162L1805 1265M1848 1129L1926 1155M1926 1155L2013 1154M1926 1155L1931 1224M2013 1154L2116 1145M2013 1154L1931 1224M2116 1145L2192 1181M2116 1145L2118 1207M2192 1181L2118 1207M2192 1181L2186 1264M2192 1181L2259 1238M2290 1161L2327 1123M2290 1161L2259 1238M2327 1123L2416 1143M2416 1143L2486 1149M2416 1143L2457 1242M2486 1149L2457 1242M2486 1149L2507 1237M22 1217L124 1258M22 1217L-53 1237M2582 1217L2507 1237M124 1258L176 1218M124 1258L144 1291M176 1218L253 1228M176 1218L144 1291M253 1228L293 1295M387 1218L411 1219M387 1218L471 1294M411 1219L499 1272M411 1219L471 1294M499 1272L471 1294M499 1272L495 1331M499 1272L595 1304M632 1236L701 1218M632 1236L595 1304M632 1236L694 1301M701 1218L746 1224M701 1218L694 1301M701 1218L726 1316M746 1224L822 1242M746 1224L694 1301M746 1224L726 1316M822 1242L726 1316M822 1242L859 1284M932 1247L1012 1250M932 1247L859 1284M932 1247L895 1311M932 1247L963 1323M1012 1250L1073 1223M1012 1250L963 1323M1012 1250L1043 1334M1200 1277L1256 1202M1200 1277L1155 1317M1200 1277L1237 1306M1200 1277L1233 1361M1256 1202L1237 1306M1353 1250L1384 1268M1353 1250L1448 1230M1353 1250L1318 1331M1384 1268L1448 1230M1384 1268L1318 1331M1384 1268L1408 1351M1534 1278L1636 1237M1534 1278L1467 1338M1534 1278L1540 1347M1636 1237L1648 1334M1744 1256L1805 1265M1744 1256L1867 1254M1744 1256L1711 1332M1805 1265L1867 1254M1805 1265L1824 1355M1805 1265L1871 1326M1867 1254L1931 1224M1867 1254L1871 1326M2058 1267L2118 1207M2058 1267L1982 1345M2058 1267L2073 1327M2058 1267L2116 1339M2058 1267L2023 1375M2118 1207L2186 1264M2186 1264L2259 1238M2186 1264L2172 1330M2259 1238L2371 1247M2259 1238L2314 1328M2371 1247L2457 1242M2371 1247L2314 1328M2371 1247L2351 1283M2371 1247L2426 1334M2457 1242L2507 1237M2457 1242L2426 1334M18 1335L-6 1352M18 1335L30 1421M18 1335L82 1403M18 1335L-11 1394M2578 1335L2554 1352M2578 1335L2549 1394M144 1291L226 1348M226 1348L293 1295M226 1348L328 1329M226 1348L192 1430M226 1348L312 1375M293 1295L328 1329M293 1295L312 1375M328 1329L312 1375M328 1329L380 1399M471 1294L495 1331M495 1331L595 1304M495 1331L440 1398M495 1331L512 1385M595 1304L563 1404M694 1301L726 1316M694 1301L725 1383M726 1316L725 1383M859 1284L895 1311M859 1284L868 1408M895 1311L963 1323M895 1311L868 1408M895 1311L950 1364M963 1323L1043 1334M963 1323L950 1364M1043 1334L950 1364M1043 1334L1036 1393M1043 1334L1106 1434M1155 1317L1237 1306M1155 1317L1153 1418M1155 1317L1233 1361M1237 1306L1318 1331M1237 1306L1233 1361M1318 1331L1356 1362M1408 1351L1467 1338M1408 1351L1356 1362M1408 1351L1427 1395M1408 1351L1496 1374M1467 1338L1540 1347M1467 1338L1427 1395M1467 1338L1496 1374M1540 1347L1648 1334M1540 1347L1496 1374M1540 1347L1585 1385M1648 1334L1711 1332M1648 1334L1585 1385M1648 1334L1673 1435M1711 1332L1744 1384M1711 1332L1784 1394M1824 1355L1871 1326M1824 1355L1744 1384M1824 1355L1784 1394M1824 1355L1901 1408M1871 1326L1901 1408M1982 1345L2073 1327M1982 1345L1901 1408M1982 1345L1961 1393M1982 1345L2023 1375M2073 1327L2116 1339M2073 1327L2172 1330M2073 1327L2023 1375M2116 1339L2172 1330M2116 1339L2023 1375M2116 1339L2142 1421M2172 1330L2142 1421M2172 1330L2231 1383M2314 1328L2351 1283M2314 1328L2231 1383M2314 1328L2273 1420M2351 1283L2426 1334M2426 1334L2420 1407M2554 1352L2590 1421M2554 1352L2642 1403M2554 1352L2549 1394M-6 1352L30 1421M-6 1352L82 1403M30 1421L82 1403M30 1421L-11 1394M2590 1421L2549 1394M312 1375L380 1399M380 1399L440 1398M440 1398L512 1385M512 1385L563 1404M563 1404L640 1425M640 1425L725 1383M868 1408L950 1364M950 1364L1036 1393M1036 1393L1106 1434M1106 1434L1153 1418M1153 1418L1233 1361M1233 1361L1356 1362M1356 1362L1427 1395M1427 1395L1496 1374M1496 1374L1585 1385M1673 1435L1744 1384M1744 1384L1784 1394M1901 1408L1961 1393M1961 1393L2023 1375M2142 1421L2231 1383M2231 1383L2273 1420M2365 1438L2420 1407M2420 1407L2549 1394"/></svg>