<svg xmlns="http://www.w3.org/2000/svg" width="2560" height="1440" fill="#fff"><circle cx="70" cy="43" r="4"/><circle cx="117" cy="26" r="6"/><circle cx="236" cy="40" r="5"/><circle cx="292" cy="1" r="4"/><circle cx="292" cy="1441" r="4"/><circle cx="386" cy="77" r="5"/><circle cx="480" cy="35" r="6"/><circle cx="551" cy="26" r="6"/><circle cx="607" cy="55" r="5"/><circle cx="708" cy="29" r="5"/><circle cx="770" cy="23" r="5"/><circle cx="865" cy="74" r="6"/><circle cx="930" cy="49" r="5"/><circle cx="967" cy="67" r="4"/><circle cx="1112" cy="13" r="5"/><circle cx="1187" cy="63" r="6"/><circle cx="1242" cy="6" r="5"/><circle cx="1340" cy="48" r="6"/><circle cx="1416" cy="74" r="6"/><circle cx="1503" cy="60" r="5"/><circle cx="1547" cy="19" r="5"/><circle cx="1649" cy="26" r="4"/><circle cx="1702" cy="10" r="5"/><circle cx="1793" cy="35" r="6"/><circle cx="1862" cy="33" r="6"/><circle cx="1965" cy="38" r="5"/><circle cx="2074" cy="75" r="5"/><circle cx="2133" cy="32" r="4"/><circle cx="2231" cy="10" r="5"/><circle cx="2312" cy="16" r="4"/><circle cx="2321" cy="37" r="5"/><circle cx="2414" cy="65" r="6"/><circle cx="2542" cy="44" r="5"/><circle cx="0" cy="122" r="5"/><circle cx="2560" cy="122" r="5"/><circle cx="102" cy="133" r="5"/><circle cx="219" cy="140" r="6"/><circle cx="290" cy="149" r="5"/><circle cx="320" cy="93" r="6"/><circle cx="447" cy="123" r="5"/><circle cx="550" cy="153" r="5"/><circle cx="609" cy="96" r="5"/><circle cx="713" cy="105" r="5"/><circle cx="792" cy="149" r="5"/><circle cx="871" cy="80" r="5"/><circle cx="914" cy="145" r="5"/><circle cx="1012" cy="87" r="5"/><circle cx="1083" cy="112" r="5"/><circle cx="1145" cy="122" r="4"/><circle cx="1214" cy="160" r="4"/><circle cx="1324" cy="82" r="4"/><circle cx="1362" cy="87" r="5"/><circle cx="1460" cy="146" r="5"/><circle cx="1567" cy="126" r="6"/><circle cx="1638" cy="121" r="6"/><circle cx="1705" cy="99" r="4"/><circle cx="1774" cy="93" r="4"/><circle cx="1886" cy="99" r="5"/><circle cx="1972" cy="146" r="5"/><circle cx="2031" cy="80" r="6"/><circle cx="2159" cy="85" r="4"/><circle cx="2228" cy="154" r="5"/><circle cx="2241" cy="145" r="5"/><circle cx="2357" cy="99" r="5"/><circle cx="2473" cy="99" r="4"/><circle cx="2503" cy="133" r="5"/><circle cx="32" cy="161" r="5"/><circle cx="101" cy="234" r="6"/><circle cx="187" cy="211" r="4"/><circle cx="302" cy="232" r="5"/><circle cx="372" cy="237" r="6"/><circle cx="460" cy="163" r="5"/><circle cx="529" cy="182" r="6"/><circle cx="608" cy="182" r="5"/><circle cx="662" cy="182" r="5"/><circle cx="755" cy="165" r="5"/><circle cx="869" cy="215" r="6"/><circle cx="882" cy="170" r="6"/><circle cx="1002" cy="203" r="5"/><circle cx="1112" cy="166" r="4"/><circle cx="1147" cy="211" r="5"/><circle cx="1270" cy="236" r="6"/><circle cx="1292" cy="184" r="5"/><circle cx="1378" cy="168" r="6"/><circle cx="1491" cy="215" r="4"/><circle cx="1579" cy="177" r="4"/><circle cx="1640" cy="162" r="5"/><circle cx="1709" cy="208" r="6"/><circle cx="1796" cy="192" r="5"/><circle cx="1919" cy="184" r="5"/><circle cx="1923" cy="190" r="5"/><circle cx="2059" cy="235" r="4"/><circle cx="2126" cy="160" r="5"/><circle cx="2238" cy="229" r="5"/><circle cx="2263" cy="221" r="4"/><circle cx="2375" cy="195" r="5"/><circle cx="2404" cy="217" r="5"/><circle cx="2514" cy="173" r="5"/><circle cx="22" cy="268" r="5"/><circle cx="92" cy="307" r="5"/><circle cx="225" cy="262" r="5"/><circle cx="250" cy="279" r="5"/><circle cx="329" cy="279" r="4"/><circle cx="433" cy="294" r="4"/><circle cx="480" cy="249" r="5"/><circle cx="621" cy="294" r="6"/><circle cx="719" cy="274" r="6"/><circle cx="756" cy="276" r="5"/><circle cx="847" cy="317" r="6"/><circle cx="955" cy="281" r="4"/><circle cx="1010" cy="296" r="5"/><circle cx="1042" cy="245" r="4"/><circle cx="1167" cy="279" r="5"/><circle cx="1254" cy="273" r="6"/><circle cx="1354" cy="271" r="5"/><circle cx="1399" cy="259" r="5"/><circle cx="1466" cy="316" r="6"/><circle cx="1528" cy="264" r="5"/><circle cx="1641" cy="246" r="5"/><circle cx="1707" cy="291" r="5"/><circle cx="1818" cy="282" r="4"/><circle cx="1853" cy="248" r="4"/><circle cx="1967" cy="265" r="4"/><circle cx="2044" cy="273" r="5"/><circle cx="2091" cy="293" r="5"/><circle cx="2188" cy="257" r="6"/><circle cx="2247" cy="303" r="5"/><circle cx="2366" cy="275" r="5"/><circle cx="2441" cy="276" r="5"/><circle cx="2511" cy="242" r="6"/><circle cx="74" cy="376" r="5"/><circle cx="105" cy="348" r="4"/><circle cx="190" cy="389" r="5"/><circle cx="246" cy="322" r="5"/><circle cx="350" cy="340" r="5"/><circle cx="469" cy="362" r="5"/><circle cx="547" cy="394" r="4"/><circle cx="636" cy="380" r="5"/><circle cx="687" cy="327" r="4"/><circle cx="742" cy="338" r="5"/><circle cx="833" cy="323" r="4"/><circle cx="911" cy="367" r="4"/><circle cx="1000" cy="356" r="6"/><circle cx="1114" cy="366" r="6"/><circle cx="1159" cy="351" r="5"/><circle cx="1254" cy="374" r="5"/><circle cx="1297" cy="346" r="5"/><circle cx="1403" cy="350" r="4"/><circle cx="1453" cy="322" r="6"/><circle cx="1572" cy="368" r="5"/><circle cx="1633" cy="321" r="5"/><circle cx="1714" cy="327" r="5"/><circle cx="1823" cy="366" r="5"/><circle cx="1892" cy="329" r="6"/><circle cx="1992" cy="340" r="6"/><circle cx="2002" cy="368" r="4"/><circle cx="2105" cy="342" r="5"/><circle cx="2188" cy="384" r="5"/><circle cx="2250" cy="328" r="6"/><circle cx="2361" cy="339" r="5"/><circle cx="2436" cy="371" r="5"/><circle cx="2486" cy="345" r="4"/><circle cx="55" cy="414" r="4"/><circle cx="149" cy="412" r="6"/><circle cx="230" cy="435" r="5"/><circle cx="279" cy="439" r="4"/><circle cx="356" cy="411" r="5"/><circle cx="458" cy="469" r="6"/><circle cx="540" cy="437" r="6"/><circle cx="631" cy="430" r="5"/><circle cx="697" cy="451" r="5"/><circle cx="760" cy="433" r="5"/><circle cx="815" cy="417" r="4"/><circle cx="953" cy="418" r="6"/><circle cx="980" cy="409" r="4"/><circle cx="1062" cy="441" r="5"/><circle cx="1150" cy="446" r="5"/><circle cx="1255" cy="404" r="4"/><circle cx="1303" cy="424" r="5"/><circle cx="1416" cy="432" r="5"/><circle cx="1469" cy="429" r="6"/><circle cx="1586" cy="461" r="4"/><circle cx="1667" cy="451" r="6"/><circle cx="1724" cy="442" r="5"/><circle cx="1772" cy="408" r="5"/><circle cx="1854" cy="402" r="4"/><circle cx="1984" cy="433" r="5"/><circle cx="2043" cy="427" r="5"/><circle cx="2148" cy="446" r="6"/><circle cx="2193" cy="440" r="4"/><circle cx="2290" cy="434" r="4"/><circle cx="2389" cy="405" r="5"/><circle cx="2446" cy="409" r="5"/><circle cx="2512" cy="437" r="4"/><circle cx="16" cy="502" r="5"/><circle cx="98" cy="526" r="4"/><circle cx="185" cy="522" r="6"/><circle cx="304" cy="549" r="5"/><circle cx="394" cy="511" r="4"/><circle cx="449" cy="490" r="4"/><circle cx="504" cy="520" r="4"/><circle cx="564" cy="524" r="4"/><circle cx="700" cy="528" r="5"/><circle cx="799" cy="494" r="4"/><circle cx="877" cy="532" r="4"/><circle cx="944" cy="535" r="4"/><circle cx="990" cy="536" r="5"/><circle cx="1096" cy="514" r="6"/><circle cx="1185" cy="552" r="6"/><circle cx="1229" cy="553" r="5"/><circle cx="1311" cy="537" r="5"/><circle cx="1433" cy="548" r="5"/><circle cx="1455" cy="531" r="4"/><circle cx="1542" cy="492" r="4"/><circle cx="1608" cy="536" r="4"/><circle cx="1745" cy="483" r="6"/><circle cx="1765" cy="543" r="6"/><circle cx="1874" cy="551" r="5"/><circle cx="1921" cy="496" r="5"/><circle cx="2055" cy="512" r="6"/><circle cx="2130" cy="500" r="5"/><circle cx="2188" cy="515" r="5"/><circle cx="2279" cy="530" r="5"/><circle cx="2327" cy="486" r="6"/><circle cx="2402" cy="489" r="5"/><circle cx="2519" cy="507" r="6"/><circle cx="52" cy="624" r="5"/><circle cx="112" cy="607" r="4"/><circle cx="238" cy="636" r="5"/><circle cx="320" cy="611" r="6"/><circle cx="383" cy="590" r="6"/><circle cx="405" cy="635" r="5"/><circle cx="552" cy="594" r="6"/><circle cx="623" cy="602" r="5"/><circle cx="688" cy="607" r="4"/><circle cx="752" cy="601" r="5"/><circle cx="855" cy="591" r="6"/><circle cx="908" cy="629" r="5"/><circle cx="1033" cy="602" r="4"/><circle cx="1052" cy="565" r="5"/><circle cx="1164" cy="599" r="5"/><circle cx="1210" cy="593" r="5"/><circle cx="1282" cy="622" r="4"/><circle cx="1377" cy="609" r="5"/><circle cx="1499" cy="607" r="5"/><circle cx="1560" cy="610" r="5"/><circle cx="1631" cy="631" r="5"/><circle cx="1754" cy="591" r="5"/><circle cx="1823" cy="605" r="6"/><circle cx="1889" cy="618" r="5"/><circle cx="1926" cy="582" r="5"/><circle cx="2044" cy="637" r="6"/><circle cx="2145" cy="608" r="6"/><circle cx="2160" cy="565" r="6"/><circle cx="2276" cy="616" r="5"/><circle cx="2333" cy="595" r="5"/><circle cx="2416" cy="591" r="5"/><circle cx="2547" cy="587" r="5"/><circle cx="23" cy="701" r="4"/><circle cx="96" cy="641" r="6"/><circle cx="171" cy="657" r="4"/><circle cx="290" cy="708" r="6"/><circle cx="357" cy="710" r="6"/><circle cx="418" cy="650" r="6"/><circle cx="488" cy="684" r="6"/><circle cx="568" cy="659" r="5"/><circle cx="714" cy="687" r="6"/><circle cx="742" cy="679" r="4"/><circle cx="880" cy="677" r="6"/><circle cx="922" cy="675" r="5"/><circle cx="988" cy="711" r="6"/><circle cx="1106" cy="679" r="5"/><circle cx="1143" cy="677" r="4"/><circle cx="1225" cy="695" r="4"/><circle cx="1330" cy="670" r="5"/><circle cx="1409" cy="688" r="4"/><circle cx="1460" cy="688" r="5"/><circle cx="1588" cy="697" r="6"/><circle cx="1649" cy="646" r="4"/><circle cx="1732" cy="665" r="5"/><circle cx="1763" cy="681" r="4"/><circle cx="1863" cy="692" r="6"/><circle cx="1955" cy="711" r="5"/><circle cx="2038" cy="717" r="5"/><circle cx="2102" cy="690" r="6"/><circle cx="2184" cy="677" r="5"/><circle cx="2277" cy="713" r="4"/><circle cx="2359" cy="705" r="6"/><circle cx="2401" cy="703" r="6"/><circle cx="2519" cy="708" r="6"/><circle cx="65" cy="798" r="5"/><circle cx="89" cy="734" r="6"/><circle cx="237" cy="728" r="5"/><circle cx="306" cy="785" r="6"/><circle cx="339" cy="722" r="4"/><circle cx="449" cy="761" r="6"/><circle cx="554" cy="740" r="5"/><circle cx="635" cy="767" r="6"/><circle cx="666" cy="742" r="5"/><circle cx="726" cy="722" r="6"/><circle cx="875" cy="790" r="4"/><circle cx="926" cy="736" r="5"/><circle cx="1005" cy="721" r="4"/><circle cx="1085" cy="732" r="6"/><circle cx="1184" cy="769" r="5"/><circle cx="1253" cy="770" r="6"/><circle cx="1317" cy="740" r="5"/><circle cx="1392" cy="792" r="6"/><circle cx="1485" cy="749" r="5"/><circle cx="1597" cy="736" r="6"/><circle cx="1668" cy="763" r="5"/><circle cx="1684" cy="795" r="6"/><circle cx="1782" cy="782" r="4"/><circle cx="1867" cy="766" r="5"/><circle cx="1924" cy="758" r="5"/><circle cx="2051" cy="784" r="5"/><circle cx="2127" cy="751" r="5"/><circle cx="2208" cy="770" r="5"/><circle cx="2318" cy="787" r="5"/><circle cx="2382" cy="774" r="5"/><circle cx="2408" cy="732" r="5"/><circle cx="2510" cy="740" r="5"/><circle cx="77" cy="823" r="5"/><circle cx="130" cy="845" r="4"/><circle cx="205" cy="828" r="4"/><circle cx="267" cy="814" r="4"/><circle cx="387" cy="880" r="5"/><circle cx="407" cy="862" r="5"/><circle cx="541" cy="810" r="5"/><circle cx="619" cy="841" r="5"/><circle cx="644" cy="825" r="5"/><circle cx="748" cy="833" r="5"/><circle cx="838" cy="875" r="6"/><circle cx="895" cy="872" r="6"/><circle cx="964" cy="868" r="5"/><circle cx="1076" cy="854" r="6"/><circle cx="1121" cy="850" r="5"/><circle cx="1252" cy="858" r="5"/><circle cx="1337" cy="842" r="5"/><circle cx="1369" cy="821" r="5"/><circle cx="1507" cy="819" r="5"/><circle cx="1534" cy="829" r="6"/><circle cx="1678" cy="821" r="5"/><circle cx="1735" cy="878" r="5"/><circle cx="1764" cy="869" r="6"/><circle cx="1853" cy="831" r="6"/><circle cx="1978" cy="871" r="5"/><circle cx="2024" cy="827" r="5"/><circle cx="2146" cy="816" r="4"/><circle cx="2233" cy="829" r="5"/><circle cx="2252" cy="814" r="5"/><circle cx="2366" cy="804" r="4"/><circle cx="2431" cy="835" r="5"/><circle cx="2508" cy="872" r="4"/><circle cx="73" cy="910" r="6"/><circle cx="137" cy="920" r="5"/><circle cx="231" cy="933" r="4"/><circle cx="313" cy="930" r="4"/><circle cx="330" cy="892" r="5"/><circle cx="479" cy="920" r="4"/><circle cx="513" cy="896" r="4"/><circle cx="581" cy="905" r="6"/><circle cx="686" cy="930" r="5"/><circle cx="796" cy="891" r="4"/><circle cx="843" cy="893" r="5"/><circle cx="939" cy="958" r="5"/><circle cx="1036" cy="950" r="4"/><circle cx="1083" cy="914" r="6"/><circle cx="1144" cy="888" r="4"/><circle cx="1220" cy="933" r="5"/><circle cx="1351" cy="950" r="4"/><circle cx="1378" cy="936" r="5"/><circle cx="1494" cy="923" r="6"/><circle cx="1562" cy="952" r="5"/><circle cx="1651" cy="938" r="4"/><circle cx="1733" cy="914" r="5"/><circle cx="1778" cy="921" r="5"/><circle cx="1898" cy="886" r="5"/><circle cx="1948" cy="908" r="5"/><circle cx="2032" cy="927" r="5"/><circle cx="2114" cy="900" r="5"/><circle cx="2162" cy="915" r="6"/><circle cx="2314" cy="888" r="4"/><circle cx="2378" cy="891" r="6"/><circle cx="2428" cy="924" r="6"/><circle cx="2526" cy="955" r="5"/><circle cx="76" cy="964" r="4"/><circle cx="142" cy="1002" r="4"/><circle cx="176" cy="993" r="5"/><circle cx="276" cy="1032" r="5"/><circle cx="341" cy="1003" r="4"/><circle cx="403" cy="982" r="4"/><circle cx="485" cy="977" r="4"/><circle cx="575" cy="1028" r="6"/><circle cx="698" cy="1033" r="5"/><circle cx="779" cy="974" r="5"/><circle cx="830" cy="996" r="4"/><circle cx="924" cy="978" r="5"/><circle cx="1007" cy="986" r="5"/><circle cx="1094" cy="1032" r="5"/><circle cx="1157" cy="976" r="6"/><circle cx="1258" cy="983" r="4"/><circle cx="1339" cy="1035" r="6"/><circle cx="1431" cy="984" r="6"/><circle cx="1441" cy="1037" r="6"/><circle cx="1526" cy="1003" r="4"/><circle cx="1604" cy="1008" r="4"/><circle cx="1687" cy="980" r="6"/><circle cx="1834" cy="1018" r="6"/><circle cx="1900" cy="964" r="5"/><circle cx="1970" cy="1035" r="5"/><circle cx="2040" cy="979" r="5"/><circle cx="2102" cy="993" r="5"/><circle cx="2235" cy="993" r="5"/><circle cx="2291" cy="1008" r="4"/><circle cx="2336" cy="1038" r="4"/><circle cx="2478" cy="991" r="6"/><circle cx="2501" cy="1040" r="5"/><circle cx="26" cy="1118" r="5"/><circle cx="113" cy="1116" r="6"/><circle cx="184" cy="1078" r="5"/><circle cx="263" cy="1058" r="5"/><circle cx="353" cy="1097" r="5"/><circle cx="401" cy="1056" r="6"/><circle cx="515" cy="1066" r="4"/><circle cx="578" cy="1052" r="6"/><circle cx="666" cy="1072" r="6"/><circle cx="789" cy="1111" r="5"/><circle cx="850" cy="1103" r="5"/><circle cx="931" cy="1044" r="4"/><circle cx="1011" cy="1116" r="5"/><circle cx="1083" cy="1058" r="4"/><circle cx="1152" cy="1064" r="6"/><circle cx="1202" cy="1091" r="5"/><circle cx="1282" cy="1066" r="6"/><circle cx="1378" cy="1096" r="5"/><circle cx="1448" cy="1093" r="6"/><circle cx="1542" cy="1072" r="5"/><circle cx="1628" cy="1088" r="5"/><circle cx="1746" cy="1088" r="6"/><circle cx="1814" cy="1048" r="5"/><circle cx="1865" cy="1067" r="6"/><circle cx="1995" cy="1075" r="4"/><circle cx="2071" cy="1069" r="5"/><circle cx="2114" cy="1105" r="4"/><circle cx="2222" cy="1105" r="4"/><circle cx="2256" cy="1104" r="4"/><circle cx="2357" cy="1111" r="6"/><circle cx="2420" cy="1113" r="5"/><circle cx="2554" cy="1048" r="5"/><circle cx="56" cy="1145" r="6"/><circle cx="138" cy="1123" r="5"/><circle cx="173" cy="1153" r="6"/><circle cx="271" cy="1185" r="5"/><circle cx="388" cy="1149" r="5"/><circle cx="431" cy="1170" r="6"/><circle cx="513" cy="1126" r="5"/><circle cx="568" cy="1132" r="4"/><circle cx="704" cy="1169" r="5"/><circle cx="745" cy="1151" r="5"/><circle cx="828" cy="1175" r="5"/><circle cx="938" cy="1122" r="6"/><circle cx="967" cy="1181" r="5"/><circle cx="1093" cy="1182" r="5"/><circle cx="1171" cy="1189" r="4"/><circle cx="1213" cy="1151" r="6"/><circle cx="1303" cy="1133" r="4"/><circle cx="1364" cy="1137" r="4"/><circle cx="1443" cy="1174" r="5"/><circle cx="1533" cy="1125" r="4"/><circle cx="1664" cy="1172" r="5"/><circle cx="1686" cy="1162" r="5"/><circle cx="1796" cy="1166" r="5"/><circle cx="1890" cy="1178" r="5"/><circle cx="1939" cy="1175" r="5"/><circle cx="2009" cy="1181" r="6"/><circle cx="2091" cy="1181" r="4"/><circle cx="2167" cy="1150" r="5"/><circle cx="2320" cy="1140" r="4"/><circle cx="2390" cy="1195" r="6"/><circle cx="2431" cy="1180" r="6"/><circle cx="2546" cy="1135" r="5"/><circle cx="46" cy="1250" r="5"/><circle cx="106" cy="1228" r="6"/><circle cx="196" cy="1243" r="6"/><circle cx="318" cy="1250" r="5"/><circle cx="334" cy="1231" r="5"/><circle cx="434" cy="1241" r="5"/><circle cx="527" cy="1215" r="4"/><circle cx="589" cy="1235" r="5"/><circle cx="719" cy="1270" r="5"/><circle cx="764" cy="1259" r="4"/><circle cx="834" cy="1222" r="5"/><circle cx="887" cy="1216" r="5"/><circle cx="985" cy="1269" r="5"/><circle cx="1117" cy="1215" r="6"/><circle cx="1163" cy="1271" r="4"/><circle cx="1278" cy="1221" r="6"/><circle cx="1341" cy="1224" r="6"/><circle cx="1377" cy="1264" r="5"/><circle cx="1477" cy="1262" r="5"/><circle cx="1577" cy="1225" r="5"/><circle cx="1617" cy="1221" r="5"/><circle cx="1719" cy="1226" r="5"/><circle cx="1770" cy="1243" r="6"/><circle cx="1858" cy="1247" r="4"/><circle cx="1997" cy="1253" r="5"/><circle cx="2036" cy="1236" r="5"/><circle cx="2109" cy="1271" r="6"/><circle cx="2161" cy="1278" r="5"/><circle cx="2260" cy="1204" r="6"/><circle cx="2391" cy="1222" r="4"/><circle cx="2407" cy="1247" r="4"/><circle cx="2521" cy="1269" r="6"/><circle cx="19" cy="1356" r="6"/><circle cx="159" cy="1319" r="6"/><circle cx="218" cy="1340" r="5"/><circle cx="317" cy="1355" r="4"/><circle cx="325" cy="1319" r="4"/><circle cx="413" cy="1286" r="5"/><circle cx="554" cy="1306" r="5"/><circle cx="601" cy="1343" r="6"/><circle cx="714" cy="1319" r="5"/><circle cx="775" cy="1326" r="4"/><circle cx="828" cy="1308" r="5"/><circle cx="920" cy="1300" r="4"/><circle cx="1038" cy="1331" r="5"/><circle cx="1119" cy="1331" r="6"/><circle cx="1140" cy="1334" r="6"/><circle cx="1243" cy="1326" r="5"/><circle cx="1293" cy="1319" r="6"/><circle cx="1416" cy="1358" r="6"/><circle cx="1456" cy="1282" r="5"/><circle cx="1584" cy="1300" r="4"/><circle cx="1653" cy="1353" r="5"/><circle cx="1725" cy="1359" r="5"/><circle cx="1839" cy="1280" r="5"/><circle cx="1895" cy="1292" r="4"/><circle cx="1943" cy="1319" r="4"/><circle cx="2008" cy="1281" r="5"/><circle cx="2115" cy="1341" r="5"/><circle cx="2163" cy="1280" r="5"/><circle cx="2288" cy="1337" r="4"/><circle cx="2383" cy="1330" r="6"/><circle cx="2418" cy="1313" r="5"/><circle cx="2488" cy="1305" r="6"/><circle cx="5" cy="1406" r="5"/><circle cx="2565" cy="1406" r="5"/><circle cx="130" cy="1402" r="5"/><circle cx="183" cy="1395" r="6"/><circle cx="309" cy="1391" r="6"/><circle cx="340" cy="1402" r="5"/><circle cx="459" cy="1398" r="5"/><circle cx="544" cy="1372" r="5"/><circle cx="599" cy="1420" r="4"/><circle cx="670" cy="1420" r="6"/><circle cx="777" cy="1439" r="5"/><circle cx="777" cy="-1" r="5"/><circle cx="846" cy="1431" r="4"/><circle cx="959" cy="1390" r="6"/><circle cx="981" cy="1361" r="5"/><circle cx="1109" cy="1397" r="6"/><circle cx="1163" cy="1394" r="5"/><circle cx="1229" cy="1426" r="5"/><circle cx="1287" cy="1365" r="5"/><circle cx="1399" cy="1390" r="5"/><circle cx="1448" cy="1395" r="6"/><circle cx="1567" cy="1384" r="5"/><circle cx="1626" cy="1381" r="5"/><circle cx="1727" cy="1372" r="4"/><circle cx="1765" cy="1379" r="4"/><circle cx="1915" cy="1405" r="4"/><circle cx="1984" cy="1412" r="6"/><circle cx="2011" cy="1411" r="5"/><circle cx="2110" cy="1413" r="4"/><circle cx="2174" cy="1376" r="5"/><circle cx="2304" cy="1425" r="4"/><circle cx="2390" cy="1419" r="5"/><circle cx="2465" cy="1406" r="4"/><circle cx="2559" cy="1422" r="5"/><circle cx="-1" cy="1422" r="5"/><path stroke="#fff" d="M70 43L117 26M70 43L-18 44M70 43L102 133M70 43L130 -38M70 43L-1 -18M2630 43L2542 44M2630 43L2559 -18M70 1483L130 1402M70 1483L-1 1422M2630 1483L2559 1422M117 26L102 133M117 26L130 -38M117 26L183 -45M117 1466L130 1402M117 1466L183 1395M236 40L292 1M236 40L219 140M236 40L320 93M236 40L183 -45M236 1480L183 1395M292 1L320 93M292 1L317 -85M292 1L309 -49M292 1L340 -38M292 1441L317 1355M292 1441L309 1391M292 1441L340 1402M386 77L480 35M386 77L320 93M386 77L447 123M386 77L460 163M480 35L551 26M480 35L447 123M480 35L459 -42M480 1475L459 1398M551 26L607 55M551 26L609 96M551 26L544 -68M551 26L599 -20M551 1466L544 1372M551 1466L599 1420M607 55L708 29M607 55L609 96M607 55L599 -20M607 55L670 -20M607 1495L599 1420M607 1495L670 1420M708 29L770 23M708 29L713 105M708 29L670 -20M708 29L777 -1M708 1469L670 1420M708 1469L777 1439M770 23L777 -1M770 23L846 -9M770 1463L777 1439M770 1463L846 1431M865 74L930 49M865 74L871 80M865 74L914 145M865 74L882 170M865 74L846 -9M865 1514L846 1431M930 49L967 67M930 49L871 80M930 49L1012 87M930 49L959 -50M930 1489L959 1390M967 67L914 145M967 67L1012 87M1112 13L1187 63M1112 13L1083 112M1112 13L1109 -43M1112 13L1163 -46M1112 1453L1109 1397M1112 1453L1163 1394M1187 63L1242 6M1187 63L1145 122M1187 63L1229 -14M1187 1503L1229 1426M1242 6L1340 48M1242 6L1229 -14M1242 6L1287 -75M1242 1446L1229 1426M1242 1446L1287 1365M1340 48L1416 74M1340 48L1324 82M1340 48L1362 87M1340 48L1399 -50M1340 1488L1399 1390M1416 74L1503 60M1416 74L1362 87M1416 74L1460 146M1416 74L1378 168M1503 60L1547 19M1503 60L1460 146M1503 60L1567 126M1503 60L1448 -45M1503 1500L1448 1395M1547 19L1649 26M1547 19L1567 -56M1547 1459L1567 1384M1649 26L1702 10M1649 26L1638 121M1649 26L1705 99M1649 26L1626 -59M1649 1466L1626 1381M1702 10L1793 35M1702 10L1705 99M1702 10L1725 -81M1702 10L1727 -68M1702 1450L1725 1359M1702 1450L1727 1372M1793 35L1862 33M1793 35L1774 93M1793 35L1765 -61M1793 1475L1765 1379M1862 33L1774 93M1862 33L1886 99M1862 33L1915 -35M1862 1473L1915 1405M1965 38L1886 99M1965 38L2031 80M1965 38L1915 -35M1965 38L1984 -28M1965 38L2011 -29M1965 1478L1915 1405M1965 1478L1984 1412M1965 1478L2011 1411M2074 75L2133 32M2074 75L2031 80M2074 75L2159 85M2074 75L2126 160M2074 75L2110 -27M2074 1515L2110 1413M2133 32L2231 10M2133 32L2159 85M2133 32L2110 -27M2133 1472L2110 1413M2231 10L2312 16M2231 10L2174 -64M2231 10L2304 -15M2231 1450L2174 1376M2231 1450L2304 1425M2312 16L2321 37M2312 16L2357 99M2312 16L2304 -15M2312 1456L2304 1425M2321 37L2414 65M2321 37L2357 99M2321 37L2304 -15M2321 37L2390 -21M2321 1477L2304 1425M2321 1477L2390 1419M2414 65L2357 99M2414 65L2473 99M2414 65L2390 -21M2414 1505L2390 1419M2542 44L2560 122M2542 44L2473 99M2542 44L2565 -34M2542 44L2559 -18M-18 44L0 122M-18 44L5 -34M-18 1484L5 1406M2542 1484L2565 1406M2542 1484L2559 1422M0 122L-87 99M0 122L-57 133M0 122L32 161M0 122L-46 173M2560 122L2473 99M2560 122L2503 133M2560 122L2514 173M102 133L219 140M102 133L32 161M102 133L101 234M219 140L290 149M219 140L320 93M219 140L187 211M290 149L320 93M290 149L302 232M447 123L550 153M447 123L460 163M447 123L529 182M550 153L609 96M550 153L460 163M550 153L529 182M550 153L608 182M609 96L608 182M609 96L662 182M713 105L792 149M713 105L662 182M713 105L755 165M792 149L871 80M792 149L755 165M792 149L869 215M792 149L882 170M871 80L914 145M871 80L882 170M914 145L869 215M914 145L882 170M1012 87L1083 112M1012 87L1002 203M1083 112L1145 122M1083 112L1112 166M1145 122L1214 160M1145 122L1112 166M1145 122L1147 211M1214 160L1112 166M1214 160L1147 211M1214 160L1270 236M1214 160L1292 184M1324 82L1362 87M1362 87L1378 168M1460 146L1567 126M1460 146L1378 168M1460 146L1491 215M1567 126L1638 121M1567 126L1579 177M1567 126L1640 162M1638 121L1705 99M1638 121L1579 177M1638 121L1640 162M1705 99L1774 93M1774 93L1796 192M1886 99L1972 146M1886 99L1919 184M1886 99L1923 190M1972 146L2031 80M1972 146L1919 184M1972 146L1923 190M2031 80L1984 -28M2031 80L2011 -29M2031 1520L1984 1412M2031 1520L2011 1411M2159 85L2228 154M2159 85L2241 145M2159 85L2126 160M2228 154L2241 145M2228 154L2238 229M2228 154L2263 221M2241 145L2238 229M2241 145L2263 221M2357 99L2375 195M2473 99L2503 133M2473 99L2514 173M2503 133L2592 161M2503 133L2514 173M2503 133L2511 242M-57 133L32 161M32 161L101 234M32 161L-46 173M2592 161L2514 173M101 234L187 211M101 234L22 268M101 234L92 307M187 211L225 262M187 211L250 279M302 232L372 237M302 232L225 262M302 232L250 279M302 232L329 279M372 237L329 279M372 237L433 294M372 237L480 249M372 237L350 340M460 163L529 182M460 163L480 249M529 182L608 182M529 182L480 249M608 182L662 182M608 182L621 294M662 182L755 165M662 182L719 274M869 215L882 170M869 215L847 317M869 215L955 281M1002 203L955 281M1002 203L1010 296M1002 203L1042 245M1112 166L1147 211M1112 166L1042 245M1147 211L1167 279M1270 236L1292 184M1270 236L1167 279M1270 236L1254 273M1270 236L1354 271M1292 184L1378 168M1292 184L1254 273M1378 168L1399 259M1491 215L1528 264M1579 177L1640 162M1579 177L1528 264M1579 177L1641 246M1640 162L1709 208M1640 162L1641 246M1709 208L1796 192M1709 208L1641 246M1709 208L1707 291M1709 208L1714 327M1796 192L1818 282M1796 192L1853 248M1919 184L1923 190M1919 184L1853 248M1919 184L1967 265M1923 190L1853 248M1923 190L1967 265M2059 235L2126 160M2059 235L2044 273M2059 235L2091 293M2238 229L2263 221M2238 229L2188 257M2238 229L2247 303M2263 221L2188 257M2263 221L2247 303M2375 195L2404 217M2375 195L2366 275M2404 217L2366 275M2404 217L2441 276M2514 173L2511 242M22 268L92 307M22 268L-49 242M2582 268L2511 242M92 307L74 376M92 307L105 348M225 262L250 279M225 262L246 322M250 279L329 279M250 279L246 322M329 279L246 322M329 279L350 340M433 294L480 249M433 294L350 340M433 294L469 362M480 249L469 362M621 294L719 274M621 294L636 380M621 294L687 327M719 274L756 276M719 274L687 327M719 274L742 338M756 276L847 317M756 276L687 327M756 276L742 338M756 276L833 323M847 317L833 323M847 317L911 367M955 281L1010 296M955 281L1042 245M955 281L1000 356M1010 296L1042 245M1010 296L1000 356M1010 296L1114 366M1167 279L1254 273M1167 279L1114 366M1167 279L1159 351M1254 273L1254 374M1254 273L1297 346M1354 271L1399 259M1354 271L1297 346M1399 259L1466 316M1399 259L1403 350M1399 259L1453 322M1466 316L1528 264M1466 316L1403 350M1466 316L1453 322M1466 316L1469 429M1528 264L1453 322M1641 246L1707 291M1641 246L1633 321M1707 291L1633 321M1707 291L1714 327M1818 282L1853 248M1818 282L1823 366M1818 282L1892 329M1853 248L1892 329M1967 265L2044 273M1967 265L1992 340M2044 273L2091 293M2044 273L1992 340M2044 273L2105 342M2091 293L2188 257M2091 293L2105 342M2188 257L2247 303M2188 257L2250 328M2247 303L2188 384M2247 303L2250 328M2366 275L2441 276M2366 275L2361 339M2441 276L2511 242M2441 276L2436 371M2441 276L2486 345M2511 242L2486 345M74 376L105 348M74 376L55 414M74 376L149 412M105 348L190 389M105 348L55 414M105 348L149 412M190 389L246 322M190 389L149 412M190 389L230 435M190 389L279 439M246 322L350 340M350 340L356 411M469 362L547 394M469 362L458 469M547 394L636 380M547 394L540 437M547 394L631 430M636 380L687 327M636 380L631 430M636 380L697 451M687 327L742 338M742 338L833 323M742 338L760 433M833 323L911 367M833 323L815 417M911 367L1000 356M911 367L953 418M911 367L980 409M1000 356L953 418M1000 356L980 409M1114 366L1159 351M1114 366L1062 441M1114 366L1150 446M1159 351L1254 374M1159 351L1150 446M1159 351L1255 404M1254 374L1297 346M1254 374L1255 404M1254 374L1303 424M1297 346L1255 404M1297 346L1303 424M1403 350L1453 322M1403 350L1416 432M1403 350L1469 429M1453 322L1469 429M1572 368L1633 321M1572 368L1586 461M1633 321L1714 327M1714 327L1823 366M1714 327L1772 408M1823 366L1892 329M1823 366L1772 408M1823 366L1854 402M1892 329L1992 340M1892 329L1854 402M1992 340L2002 368M1992 340L1984 433M2002 368L1984 433M2002 368L2043 427M2105 342L2188 384M2105 342L2043 427M2188 384L2250 328M2188 384L2148 446M2188 384L2193 440M2250 328L2361 339M2250 328L2290 434M2361 339L2436 371M2361 339L2389 405M2436 371L2486 345M2436 371L2389 405M2436 371L2446 409M2486 345L2446 409M2486 345L2512 437M55 414L149 412M55 414L-48 437M55 414L16 502M2615 414L2512 437M149 412L230 435M230 435L279 439M230 435L356 411M230 435L185 522M279 439L356 411M356 411L394 511M458 469L540 437M458 469L394 511M458 469L449 490M458 469L504 520M540 437L631 430M540 437L504 520M540 437L564 524M631 430L697 451M697 451L760 433M697 451L700 528M697 451L799 494M760 433L815 417M760 433L700 528M760 433L799 494M815 417L799 494M953 418L980 409M953 418L1062 441M953 418L990 536M980 409L1062 441M1062 441L1150 446M1062 441L1096 514M1150 446L1096 514M1150 446L1185 552M1255 404L1303 424M1303 424L1416 432M1303 424L1311 537M1416 432L1469 429M1416 432L1433 548M1416 432L1455 531M1469 429L1542 492M1586 461L1667 451M1586 461L1542 492M1586 461L1608 536M1667 451L1724 442M1667 451L1608 536M1667 451L1745 483M1724 442L1772 408M1724 442L1745 483M1724 442L1765 543M1772 408L1854 402M1772 408L1745 483M1854 402L1921 496M1984 433L2043 427M1984 433L1921 496M1984 433L2055 512M2043 427L2148 446M2043 427L2055 512M2148 446L2193 440M2148 446L2130 500M2148 446L2188 515M2193 440L2290 434M2193 440L2130 500M2193 440L2188 515M2290 434L2279 530M2290 434L2327 486M2389 405L2446 409M2389 405L2327 486M2389 405L2402 489M2446 409L2512 437M2446 409L2402 489M2512 437L2576 502M2512 437L2519 507M-48 437L16 502M16 502L98 526M16 502L-41 507M16 502L-13 587M2576 502L2519 507M2576 502L2547 587M98 526L185 522M98 526L112 607M185 522L304 549M185 522L112 607M304 549L394 511M304 549L238 636M304 549L320 611M304 549L383 590M394 511L449 490M394 511L383 590M449 490L504 520M504 520L564 524M504 520L552 594M564 524L552 594M564 524L623 602M700 528L623 602M700 528L688 607M700 528L752 601M799 494L877 532M877 532L944 535M877 532L855 591M944 535L990 536M944 535L1052 565M990 536L1096 514M990 536L1033 602M990 536L1052 565M1096 514L1185 552M1096 514L1052 565M1185 552L1229 553M1185 552L1164 599M1185 552L1210 593M1229 553L1311 537M1229 553L1164 599M1229 553L1210 593M1229 553L1282 622M1311 537L1282 622M1311 537L1377 609M1433 548L1455 531M1433 548L1377 609M1433 548L1499 607M1455 531L1542 492M1455 531L1499 607M1542 492L1608 536M1608 536L1560 610M1745 483L1765 543M1745 483L1754 591M1765 543L1874 551M1765 543L1754 591M1765 543L1823 605M1874 551L1921 496M1874 551L1823 605M1874 551L1889 618M1874 551L1926 582M1921 496L1926 582M2055 512L2130 500M2055 512L2044 637M2055 512L2160 565M2130 500L2188 515M2130 500L2160 565M2188 515L2145 608M2188 515L2160 565M2279 530L2327 486M2279 530L2276 616M2279 530L2333 595M2327 486L2402 489M2327 486L2333 595M2402 489L2519 507M2402 489L2416 591M2519 507L2416 591M2519 507L2547 587M52 624L112 607M52 624L-13 587M52 624L23 701M52 624L96 641M2612 624L2547 587M112 607L96 641M112 607L171 657M238 636L320 611M238 636L171 657M238 636L290 708M238 636L237 728M320 611L383 590M320 611L405 635M383 590L405 635M383 590L418 650M405 635L357 710M405 635L418 650M405 635L488 684M552 594L623 602M552 594L568 659M623 602L688 607M623 602L568 659M688 607L752 601M688 607L714 687M688 607L742 679M752 601L855 591M752 601L714 687M752 601L742 679M855 591L908 629M855 591L880 677M855 591L922 675M908 629L880 677M908 629L922 675M1033 602L1052 565M1033 602L1106 679M1164 599L1210 593M1164 599L1106 679M1164 599L1143 677M1210 593L1282 622M1282 622L1377 609M1282 622L1330 670M1377 609L1330 670M1377 609L1409 688M1499 607L1560 610M1499 607L1460 688M1560 610L1631 631M1560 610L1588 697M1560 610L1649 646M1631 631L1588 697M1631 631L1649 646M1631 631L1732 665M1631 631L1597 736M1754 591L1823 605M1754 591L1732 665M1754 591L1763 681M1823 605L1889 618M1823 605L1863 692M1889 618L1926 582M1889 618L1863 692M2044 637L2145 608M2044 637L1955 711M2044 637L2038 717M2044 637L2102 690M2145 608L2160 565M2145 608L2102 690M2145 608L2184 677M2160 565L2184 677M2276 616L2333 595M2276 616L2277 713M2333 595L2416 591M2416 591L2401 703M23 701L96 641M23 701L-41 708M23 701L89 734M23 701L-50 740M2583 701L2519 708M2583 701L2510 740M96 641L171 657M96 641L89 734M171 657L89 734M171 657L237 728M290 708L357 710M290 708L237 728M290 708L306 785M290 708L339 722M357 710L418 650M357 710L306 785M357 710L339 722M418 650L488 684M418 650L449 761M488 684L568 659M488 684L449 761M488 684L554 740M568 659L554 740M714 687L742 679M714 687L666 742M714 687L726 722M742 679L726 722M880 677L922 675M880 677L988 711M880 677L926 736M922 675L988 711M922 675L926 736M988 711L926 736M988 711L1005 721M988 711L1085 732M1106 679L1143 677M1106 679L1005 721M1106 679L1085 732M1143 677L1225 695M1143 677L1085 732M1143 677L1184 769M1225 695L1184 769M1225 695L1253 770M1330 670L1409 688M1330 670L1317 740M1409 688L1460 688M1409 688L1392 792M1460 688L1485 749M1588 697L1649 646M1588 697L1597 736M1588 697L1668 763M1649 646L1732 665M1732 665L1763 681M1732 665L1668 763M1763 681L1782 782M1863 692L1955 711M1863 692L1867 766M1863 692L1924 758M1955 711L2038 717M1955 711L1867 766M1955 711L1924 758M2038 717L2102 690M2038 717L2051 784M2038 717L2127 751M2102 690L2184 677M2102 690L2127 751M2184 677L2208 770M2277 713L2359 705M2277 713L2252 814M2359 705L2401 703M2359 705L2318 787M2359 705L2382 774M2359 705L2408 732M2401 703L2519 708M2401 703L2382 774M2401 703L2408 732M2519 708L2510 740M65 798L89 734M65 798L-50 740M65 798L77 823M65 798L130 845M65 798L73 910M2625 798L2510 740M89 734L77 823M237 728L306 785M237 728L267 814M306 785L339 722M306 785L267 814M449 761L554 740M449 761L407 862M449 761L541 810M554 740L635 767M554 740L541 810M635 767L666 742M635 767L726 722M635 767L619 841M635 767L644 825M666 742L726 722M666 742L619 841M666 742L644 825M726 722L748 833M875 790L926 736M875 790L838 875M875 790L895 872M926 736L1005 721M1005 721L1085 732M1085 732L1184 769M1184 769L1253 770M1184 769L1121 850M1253 770L1317 740M1253 770L1252 858M1253 770L1337 842M1317 740L1392 792M1317 740L1337 842M1317 740L1369 821M1392 792L1485 749M1392 792L1337 842M1392 792L1369 821M1485 749L1507 819M1485 749L1534 829M1597 736L1668 763M1597 736L1684 795M1597 736L1534 829M1668 763L1684 795M1668 763L1678 821M1684 795L1678 821M1684 795L1735 878M1782 782L1867 766M1782 782L1764 869M1782 782L1853 831M1867 766L1924 758M1867 766L1853 831M1924 758L1853 831M2051 784L2127 751M2051 784L1978 871M2051 784L2024 827M2127 751L2208 770M2127 751L2146 816M2208 770L2146 816M2208 770L2233 829M2208 770L2252 814M2318 787L2382 774M2318 787L2233 829M2318 787L2252 814M2318 787L2366 804M2382 774L2408 732M2382 774L2366 804M2408 732L2366 804M2408 732L2431 835M77 823L130 845M77 823L73 910M130 845L205 828M130 845L73 910M130 845L137 920M205 828L267 814M205 828L231 933M267 814L330 892M387 880L407 862M387 880L313 930M387 880L330 892M387 880L479 920M387 880L403 982M407 862L330 892M407 862L479 920M407 862L513 896M541 810L619 841M541 810L513 896M541 810L581 905M619 841L644 825M619 841L581 905M644 825L748 833M644 825L581 905M748 833L838 875M748 833L686 930M748 833L796 891M838 875L895 872M838 875L796 891M838 875L843 893M895 872L964 868M895 872L843 893M895 872L939 958M964 868L1076 854M964 868L939 958M964 868L924 978M1076 854L1121 850M1076 854L1036 950M1076 854L1083 914M1076 854L1144 888M1121 850L1083 914M1121 850L1144 888M1252 858L1337 842M1252 858L1369 821M1252 858L1220 933M1337 842L1369 821M1507 819L1534 829M1507 819L1494 923M1534 829L1494 923M1678 821L1735 878M1735 878L1764 869M1735 878L1733 914M1735 878L1778 921M1764 869L1853 831M1764 869L1733 914M1764 869L1778 921M1853 831L1898 886M1978 871L2024 827M1978 871L1898 886M1978 871L1948 908M1978 871L2032 927M2146 816L2233 829M2146 816L2114 900M2146 816L2162 915M2233 829L2252 814M2233 829L2162 915M2252 814L2314 888M2366 804L2431 835M2366 804L2378 891M2431 835L2508 872M2431 835L2378 891M2431 835L2428 924M2508 872L2428 924M2508 872L2526 955M73 910L137 920M73 910L76 964M137 920L76 964M137 920L142 1002M137 920L176 993M231 933L313 930M231 933L330 892M231 933L176 993M231 933L276 1032M313 930L330 892M313 930L341 1003M479 920L513 896M479 920L485 977M513 896L581 905M513 896L485 977M581 905L686 930M686 930L796 891M686 930L698 1033M686 930L779 974M796 891L843 893M796 891L779 974M843 893L779 974M939 958L924 978M939 958L1007 986M939 958L931 1044M1036 950L1083 914M1036 950L1007 986M1036 950L1094 1032M1083 914L1144 888M1083 914L1157 976M1144 888L1220 933M1144 888L1157 976M1220 933L1157 976M1220 933L1258 983M1351 950L1378 936M1351 950L1258 983M1351 950L1339 1035M1351 950L1431 984M1378 936L1431 984M1494 923L1562 952M1494 923L1431 984M1494 923L1526 1003M1562 952L1651 938M1562 952L1526 1003M1562 952L1604 1008M1651 938L1733 914M1651 938L1687 980M1733 914L1778 921M1733 914L1687 980M1778 921L1687 980M1778 921L1834 1018M1898 886L1948 908M1898 886L1900 964M1948 908L2032 927M1948 908L1900 964M2032 927L2114 900M2032 927L2040 979M2032 927L2102 993M2114 900L2162 915M2114 900L2040 979M2114 900L2102 993M2162 915L2102 993M2162 915L2235 993M2314 888L2378 891M2378 891L2428 924M2378 891L2478 991M2428 924L2526 955M2428 924L2478 991M2526 955L2478 991M2526 955L2501 1040M2526 955L2554 1048M76 964L142 1002M142 1002L176 993M176 993L184 1078M176 993L263 1058M276 1032L341 1003M276 1032L263 1058M276 1032L353 1097M341 1003L403 982M341 1003L263 1058M341 1003L401 1056M403 982L485 977M403 982L401 1056M485 977L575 1028M485 977L515 1066M575 1028L515 1066M575 1028L578 1052M575 1028L666 1072M698 1033L779 974M698 1033L666 1072M698 1033L789 1111M779 974L830 996M830 996L924 978M924 978L1007 986M924 978L931 1044M1007 986L1094 1032M1007 986L931 1044M1094 1032L1157 976M1094 1032L1083 1058M1094 1032L1152 1064M1157 976L1152 1064M1258 983L1282 1066M1339 1035L1431 984M1339 1035L1441 1037M1339 1035L1282 1066M1339 1035L1378 1096M1431 984L1441 1037M1441 1037L1526 1003M1441 1037L1378 1096M1441 1037L1448 1093M1526 1003L1604 1008M1526 1003L1542 1072M1604 1008L1687 980M1604 1008L1542 1072M1604 1008L1628 1088M1834 1018L1900 964M1834 1018L1746 1088M1834 1018L1814 1048M1834 1018L1865 1067M1900 964L1970 1035M1900 964L1865 1067M1970 1035L2040 979M1970 1035L1865 1067M1970 1035L1995 1075M1970 1035L2071 1069M2040 979L2102 993M2040 979L2071 1069M2102 993L2071 1069M2235 993L2291 1008M2235 993L2336 1038M2235 993L2222 1105M2291 1008L2336 1038M2336 1038L2357 1111M2478 991L2501 1040M2478 991L2554 1048M2501 1040L2420 1113M2501 1040L2554 1048M2501 1040L2546 1135M26 1118L113 1116M26 1118L-6 1048M26 1118L56 1145M26 1118L-14 1135M2586 1118L2554 1048M2586 1118L2546 1135M113 1116L184 1078M113 1116L56 1145M113 1116L138 1123M113 1116L173 1153M184 1078L263 1058M184 1078L138 1123M184 1078L173 1153M263 1058L353 1097M353 1097L401 1056M353 1097L388 1149M353 1097L431 1170M401 1056L388 1149M401 1056L431 1170M515 1066L578 1052M515 1066L513 1126M515 1066L568 1132M578 1052L666 1072M578 1052L513 1126M578 1052L568 1132M666 1072L704 1169M666 1072L745 1151M789 1111L850 1103M789 1111L704 1169M789 1111L745 1151M789 1111L828 1175M850 1103L931 1044M850 1103L745 1151M850 1103L828 1175M850 1103L938 1122M931 1044L938 1122M1011 1116L1083 1058M1011 1116L938 1122M1011 1116L967 1181M1011 1116L1093 1182M1083 1058L1152 1064M1152 1064L1202 1091M1152 1064L1213 1151M1202 1091L1282 1066M1202 1091L1171 1189M1202 1091L1213 1151M1282 1066L1303 1133M1378 1096L1448 1093M1378 1096L1303 1133M1378 1096L1364 1137M1448 1093L1542 1072M1448 1093L1443 1174M1448 1093L1533 1125M1542 1072L1628 1088M1542 1072L1533 1125M1628 1088L1746 1088M1628 1088L1664 1172M1628 1088L1686 1162M1746 1088L1814 1048M1746 1088L1686 1162M1746 1088L1796 1166M1814 1048L1865 1067M1865 1067L1890 1178M1995 1075L2071 1069M2071 1069L2114 1105M2114 1105L2091 1181M2114 1105L2167 1150M2222 1105L2256 1104M2222 1105L2167 1150M2222 1105L2260 1204M2256 1104L2167 1150M2256 1104L2320 1140M2256 1104L2260 1204M2357 1111L2420 1113M2357 1111L2320 1140M2357 1111L2390 1195M2357 1111L2431 1180M2420 1113L2320 1140M2420 1113L2390 1195M2420 1113L2431 1180M2554 1048L2546 1135M56 1145L138 1123M56 1145L-14 1135M56 1145L106 1228M2616 1145L2546 1135M138 1123L173 1153M173 1153L106 1228M173 1153L196 1243M271 1185L196 1243M271 1185L318 1250M271 1185L334 1231M388 1149L431 1170M388 1149L434 1241M431 1170L513 1126M431 1170L434 1241M513 1126L568 1132M513 1126L527 1215M568 1132L527 1215M568 1132L589 1235M704 1169L745 1151M704 1169L719 1270M745 1151L828 1175M828 1175L834 1222M828 1175L887 1216M938 1122L967 1181M938 1122L887 1216M967 1181L1093 1182M967 1181L887 1216M967 1181L985 1269M1093 1182L1171 1189M1093 1182L1117 1215M1171 1189L1213 1151M1171 1189L1117 1215M1171 1189L1163 1271M1213 1151L1303 1133M1213 1151L1278 1221M1303 1133L1364 1137M1303 1133L1278 1221M1364 1137L1443 1174M1364 1137L1341 1224M1443 1174L1533 1125M1443 1174L1341 1224M1443 1174L1477 1262M1533 1125L1577 1225M1664 1172L1686 1162M1664 1172L1577 1225M1664 1172L1617 1221M1664 1172L1719 1226M1686 1162L1617 1221M1686 1162L1719 1226M1796 1166L1890 1178M1796 1166L1719 1226M1796 1166L1770 1243M1796 1166L1858 1247M1890 1178L1939 1175M1890 1178L1858 1247M1939 1175L2009 1181M1939 1175L1997 1253M2009 1181L2091 1181M2009 1181L1997 1253M2009 1181L2036 1236M2009 1181L2008 1281M2091 1181L2167 1150M2091 1181L2036 1236M2091 1181L2109 1271M2167 1150L2260 1204M2320 1140L2260 1204M2390 1195L2431 1180M2390 1195L2391 1222M2390 1195L2407 1247M2431 1180L2391 1222M2431 1180L2407 1247M2546 1135L2521 1269M46 1250L106 1228M46 1250L-39 1269M46 1250L19 1356M2606 1250L2521 1269M106 1228L196 1243M106 1228L159 1319M196 1243L159 1319M196 1243L218 1340M318 1250L334 1231M318 1250L325 1319M318 1250L413 1286M334 1231L434 1241M334 1231L325 1319M334 1231L413 1286M434 1241L527 1215M434 1241L413 1286M527 1215L589 1235M527 1215L554 1306M589 1235L554 1306M589 1235L601 1343M719 1270L764 1259M719 1270L714 1319M719 1270L775 1326M719 1270L828 1308M764 1259L834 1222M764 1259L714 1319M764 1259L775 1326M764 1259L828 1308M834 1222L887 1216M834 1222L828 1308M887 1216L920 1300M985 1269L920 1300M985 1269L1038 1331M985 1269L959 1390M985 1269L981 1361M1117 1215L1163 1271M1163 1271L1119 1331M1163 1271L1140 1334M1278 1221L1341 1224M1278 1221L1243 1326M1278 1221L1293 1319M1341 1224L1377 1264M1341 1224L1293 1319M1377 1264L1477 1262M1377 1264L1293 1319M1377 1264L1416 1358M1377 1264L1456 1282M1477 1262L1577 1225M1477 1262L1416 1358M1477 1262L1456 1282M1577 1225L1617 1221M1577 1225L1584 1300M1617 1221L1719 1226M1617 1221L1584 1300M1719 1226L1770 1243M1770 1243L1858 1247M1770 1243L1839 1280M1858 1247L1839 1280M1858 1247L1895 1292M1997 1253L2036 1236M1997 1253L1943 1319M1997 1253L2008 1281M2036 1236L2109 1271M2036 1236L2008 1281M2109 1271L2161 1278M2109 1271L2115 1341M2109 1271L2163 1280M2161 1278L2260 1204M2161 1278L2115 1341M2161 1278L2163 1280M2161 1278L2174 1376M2391 1222L2407 1247M2391 1222L2418 1313M2407 1247L2383 1330M2407 1247L2418 1313M2521 1269L2579 1356M2521 1269L2418 1313M2521 1269L2488 1305M-39 1269L19 1356M19 1356L-72 1305M19 1356L5 1406M19 1356L-1 1422M2579 1356L2488 1305M2579 1356L2559 1422M159 1319L218 1340M159 1319L130 1402M159 1319L183 1395M218 1340L317 1355M218 1340L183 1395M218 1340L309 1391M317 1355L325 1319M317 1355L309 1391M317 1355L340 1402M325 1319L309 1391M325 1319L340 1402M413 1286L459 1398M554 1306L601 1343M554 1306L544 1372M601 1343L544 1372M601 1343L599 1420M601 1343L670 1420M714 1319L775 1326M714 1319L670 1420M775 1326L828 1308M775 1326L777 1439M828 1308L920 1300M920 1300L959 1390M920 1300L981 1361M1038 1331L1119 1331M1038 1331L959 1390M1038 1331L981 1361M1038 1331L1109 1397M1119 1331L1140 1334M1119 1331L1109 1397M1119 1331L1163 1394M1140 1334L1243 1326M1140 1334L1109 1397M1140 1334L1163 1394M1243 1326L1293 1319M1243 1326L1287 1365M1293 1319L1287 1365M1416 1358L1456 1282M1416 1358L1399 1390M1416 1358L1448 1395M1456 1282L1399 1390M1456 1282L1448 1395M1584 1300L1653 1353M1584 1300L1567 1384M1584 1300L1626 1381M1653 1353L1725 1359M1653 1353L1567 1384M1653 1353L1626 1381M1653 1353L1727 1372M1725 1359L1626 1381M1725 1359L1727 1372M1725 1359L1765 1379M1839 1280L1895 1292M1895 1292L1943 1319M1943 1319L2008 1281M1943 1319L1915 1405M1943 1319L1984 1412M2115 1341L2163 1280M2115 1341L2110 1413M2115 1341L2174 1376M2163 1280L2174 1376M2288 1337L2383 1330M2288 1337L2304 1425M2383 1330L2418 1313M2383 1330L2488 1305M2383 1330L2390 1419M2418 1313L2488 1305M2488 1305L2465 1406M5 1406L130 1402M5 1406L-95 1406M5 1406L-1 1422M2565 1406L2465 1406M2565 1406L2559 1422M130 1402L183 1395M309 1391L340 1402M340 1402L459 1398M459 1398L544 1372M544 1372L599 1420M599 1420L670 1420M777 1439L846 1431M959 1390L981 1361M1109 1397L1163 1394M1163 1394L1229 1426M1229 1426L1287 1365M1287 1365L1399 1390M1399 1390L1448 1395M1448 1395L1567 1384M1567 1384L1626 1381M1727 1372L1765 1379M1915 1405L1984 1412M1915 1405L2011 1411M1984 1412L2011 1411M2011 1411L2110 1413M2110 1413L2174 1376M2304 1425L2390 1419M2390 1419L2465 1406M2465 1406L2559 1422"/></svg>