<svg xmlns="http://www.w3.org/2000/svg" width="2560" height="1440" fill="#fff"><circle cx="37" cy="53" r="5"/><circle cx="93" cy="11" r="5"/><circle cx="175" cy="61" r="5"/><circle cx="281" cy="29" r="6"/><circle cx="382" cy="61" r="5"/><circle cx="415" cy="69" r="5"/><circle cx="552" cy="57" r="5"/><circle cx="617" cy="40" r="5"/><circle cx="691" cy="58" r="6"/><circle cx="732" cy="55" r="5"/><circle cx="842" cy="45" r="5"/><circle cx="881" cy="75" r="6"/><circle cx="1018" cy="21" r="4"/><circle cx="1088" cy="9" r="5"/><circle cx="1151" cy="31" r="5"/><circle cx="1243" cy="70" r="5"/><circle cx="1348" cy="77" r="6"/><circle cx="1393" cy="1" r="6"/><circle cx="1393" cy="1441" r="6"/><circle cx="1449" cy="37" r="4"/><circle cx="1533" cy="66" r="4"/><circle cx="1664" cy="71" r="6"/><circle cx="1724" cy="3" r="5"/><circle cx="1724" cy="1443" r="5"/><circle cx="1806" cy="73" r="5"/><circle cx="1907" cy="27" r="6"/><circle cx="1976" cy="59" r="4"/><circle cx="2075" cy="34" r="6"/><circle cx="2083" cy="30" r="5"/><circle cx="2236" cy="5" r="6"/><circle cx="2236" cy="1445" r="6"/><circle cx="2241" cy="68" r="5"/><circle cx="2386" cy="63" r="6"/><circle cx="2464" cy="80" r="4"/><circle cx="2510" cy="44" r="6"/><circle cx="38" cy="105" r="6"/><circle cx="116" cy="151" r="4"/><circle cx="239" cy="159" r="5"/><circle cx="241" cy="82" r="4"/><circle cx="361" cy="101" r="4"/><circle cx="428" cy="130" r="5"/><circle cx="545" cy="156" r="5"/><circle cx="604" cy="93" r="4"/><circle cx="688" cy="125" r="5"/><circle cx="794" cy="109" r="4"/><circle cx="858" cy="118" r="6"/><circle cx="882" cy="150" r="6"/><circle cx="1010" cy="109" r="5"/><circle cx="1078" cy="91" r="5"/><circle cx="1127" cy="136" r="6"/><circle cx="1247" cy="126" r="5"/><circle cx="1284" cy="103" r="5"/><circle cx="1417" cy="127" r="6"/><circle cx="1449" cy="100" r="5"/><circle cx="1570" cy="133" r="6"/><circle cx="1647" cy="146" r="5"/><circle cx="1745" cy="117" r="6"/><circle cx="1777" cy="110" r="6"/><circle cx="1856" cy="132" r="4"/><circle cx="1971" cy="106" r="6"/><circle cx="2019" cy="135" r="4"/><circle cx="2139" cy="84" r="4"/><circle cx="2221" cy="95" r="4"/><circle cx="2250" cy="157" r="4"/><circle cx="2377" cy="123" r="5"/><circle cx="2418" cy="92" r="4"/><circle cx="2551" cy="108" r="6"/><circle cx="30" cy="199" r="6"/><circle cx="114" cy="204" r="6"/><circle cx="167" cy="190" r="5"/><circle cx="250" cy="218" r="5"/><circle cx="371" cy="171" r="6"/><circle cx="426" cy="216" r="6"/><circle cx="523" cy="190" r="6"/><circle cx="567" cy="184" r="4"/><circle cx="644" cy="172" r="6"/><circle cx="779" cy="199" r="5"/><circle cx="806" cy="222" r="4"/><circle cx="950" cy="172" r="5"/><circle cx="996" cy="218" r="5"/><circle cx="1117" cy="225" r="4"/><circle cx="1159" cy="221" r="5"/><circle cx="1241" cy="173" r="5"/><circle cx="1293" cy="220" r="5"/><circle cx="1405" cy="228" r="5"/><circle cx="1509" cy="221" r="4"/><circle cx="1572" cy="198" r="6"/><circle cx="1601" cy="200" r="5"/><circle cx="1685" cy="202" r="5"/><circle cx="1771" cy="210" r="5"/><circle cx="1899" cy="201" r="5"/><circle cx="1982" cy="162" r="5"/><circle cx="2078" cy="172" r="4"/><circle cx="2159" cy="209" r="6"/><circle cx="2163" cy="211" r="4"/><circle cx="2258" cy="199" r="6"/><circle cx="2330" cy="198" r="5"/><circle cx="2415" cy="222" r="5"/><circle cx="2516" cy="221" r="4"/><circle cx="55" cy="309" r="5"/><circle cx="111" cy="279" r="5"/><circle cx="203" cy="275" r="6"/><circle cx="310" cy="274" r="6"/><circle cx="388" cy="282" r="6"/><circle cx="412" cy="302" r="5"/><circle cx="518" cy="295" r="4"/><circle cx="625" cy="289" r="5"/><circle cx="698" cy="242" r="5"/><circle cx="776" cy="299" r="5"/><circle cx="834" cy="257" r="6"/><circle cx="950" cy="317" r="6"/><circle cx="981" cy="317" r="5"/><circle cx="1099" cy="268" r="6"/><circle cx="1131" cy="306" r="4"/><circle cx="1236" cy="316" r="5"/><circle cx="1354" cy="279" r="6"/><circle cx="1389" cy="300" r="6"/><circle cx="1471" cy="255" r="5"/><circle cx="1566" cy="258" r="6"/><circle cx="1614" cy="305" r="6"/><circle cx="1735" cy="279" r="5"/><circle cx="1815" cy="255" r="5"/><circle cx="1864" cy="305" r="6"/><circle cx="1979" cy="247" r="5"/><circle cx="2034" cy="295" r="6"/><circle cx="2119" cy="283" r="4"/><circle cx="2163" cy="320" r="6"/><circle cx="2280" cy="299" r="4"/><circle cx="2353" cy="314" r="5"/><circle cx="2447" cy="306" r="4"/><circle cx="2524" cy="316" r="5"/><circle cx="56" cy="399" r="4"/><circle cx="118" cy="385" r="6"/><circle cx="177" cy="372" r="4"/><circle cx="273" cy="350" r="4"/><circle cx="334" cy="335" r="6"/><circle cx="405" cy="397" r="5"/><circle cx="518" cy="378" r="5"/><circle cx="584" cy="325" r="4"/><circle cx="644" cy="383" r="5"/><circle cx="728" cy="326" r="6"/><circle cx="812" cy="351" r="4"/><circle cx="949" cy="372" r="5"/><circle cx="963" cy="377" r="5"/><circle cx="1051" cy="351" r="4"/><circle cx="1180" cy="367" r="4"/><circle cx="1232" cy="320" r="5"/><circle cx="1284" cy="390" r="5"/><circle cx="1392" cy="324" r="4"/><circle cx="1496" cy="383" r="6"/><circle cx="1553" cy="381" r="5"/><circle cx="1639" cy="372" r="5"/><circle cx="1706" cy="396" r="6"/><circle cx="1818" cy="388" r="4"/><circle cx="1850" cy="325" r="5"/><circle cx="2000" cy="398" r="5"/><circle cx="2063" cy="333" r="5"/><circle cx="2099" cy="376" r="4"/><circle cx="2211" cy="329" r="5"/><circle cx="2248" cy="341" r="6"/><circle cx="2362" cy="325" r="6"/><circle cx="2441" cy="379" r="5"/><circle cx="2526" cy="354" r="4"/><circle cx="18" cy="471" r="6"/><circle cx="107" cy="401" r="4"/><circle cx="234" cy="468" r="5"/><circle cx="296" cy="408" r="5"/><circle cx="360" cy="472" r="4"/><circle cx="434" cy="470" r="4"/><circle cx="510" cy="476" r="5"/><circle cx="622" cy="478" r="5"/><circle cx="683" cy="460" r="5"/><circle cx="721" cy="427" r="5"/><circle cx="843" cy="448" r="5"/><circle cx="882" cy="472" r="5"/><circle cx="1018" cy="474" r="6"/><circle cx="1107" cy="432" r="6"/><circle cx="1166" cy="412" r="5"/><circle cx="1200" cy="446" r="4"/><circle cx="1330" cy="438" r="5"/><circle cx="1395" cy="413" r="6"/><circle cx="1468" cy="476" r="4"/><circle cx="1569" cy="466" r="5"/><circle cx="1661" cy="417" r="5"/><circle cx="1756" cy="400" r="5"/><circle cx="1833" cy="417" r="4"/><circle cx="1842" cy="429" r="5"/><circle cx="1985" cy="453" r="5"/><circle cx="2028" cy="455" r="5"/><circle cx="2126" cy="467" r="4"/><circle cx="2236" cy="418" r="6"/><circle cx="2308" cy="434" r="6"/><circle cx="2320" cy="438" r="6"/><circle cx="2480" cy="442" r="4"/><circle cx="2485" cy="419" r="5"/><circle cx="35" cy="521" r="5"/><circle cx="103" cy="550" r="6"/><circle cx="166" cy="559" r="5"/><circle cx="251" cy="480" r="4"/><circle cx="322" cy="524" r="4"/><circle cx="435" cy="495" r="4"/><circle cx="506" cy="492" r="5"/><circle cx="589" cy="532" r="4"/><circle cx="714" cy="532" r="5"/><circle cx="790" cy="547" r="5"/><circle cx="857" cy="504" r="6"/><circle cx="937" cy="528" r="6"/><circle cx="984" cy="503" r="5"/><circle cx="1089" cy="547" r="6"/><circle cx="1185" cy="559" r="5"/><circle cx="1280" cy="515" r="5"/><circle cx="1319" cy="505" r="4"/><circle cx="1423" cy="540" r="5"/><circle cx="1467" cy="514" r="5"/><circle cx="1559" cy="520" r="5"/><circle cx="1679" cy="508" r="5"/><circle cx="1718" cy="518" r="6"/><circle cx="1833" cy="486" r="6"/><circle cx="1890" cy="539" r="6"/><circle cx="1974" cy="484" r="4"/><circle cx="2056" cy="540" r="6"/><circle cx="2158" cy="515" r="6"/><circle cx="2194" cy="558" r="5"/><circle cx="2285" cy="554" r="5"/><circle cx="2385" cy="558" r="5"/><circle cx="2426" cy="529" r="5"/><circle cx="2510" cy="513" r="4"/><circle cx="15" cy="615" r="6"/><circle cx="137" cy="590" r="4"/><circle cx="186" cy="570" r="5"/><circle cx="241" cy="570" r="5"/><circle cx="365" cy="617" r="4"/><circle cx="425" cy="635" r="5"/><circle cx="484" cy="579" r="5"/><circle cx="603" cy="634" r="6"/><circle cx="672" cy="565" r="5"/><circle cx="741" cy="591" r="6"/><circle cx="867" cy="638" r="4"/><circle cx="921" cy="620" r="4"/><circle cx="993" cy="590" r="5"/><circle cx="1064" cy="600" r="4"/><circle cx="1139" cy="631" r="5"/><circle cx="1225" cy="619" r="5"/><circle cx="1299" cy="636" r="5"/><circle cx="1389" cy="634" r="6"/><circle cx="1480" cy="565" r="6"/><circle cx="1567" cy="624" r="6"/><circle cx="1674" cy="574" r="5"/><circle cx="1699" cy="617" r="5"/><circle cx="1821" cy="577" r="6"/><circle cx="1848" cy="607" r="4"/><circle cx="2000" cy="630" r="6"/><circle cx="2064" cy="608" r="5"/><circle cx="2109" cy="560" r="5"/><circle cx="2215" cy="593" r="5"/><circle cx="2302" cy="610" r="4"/><circle cx="2337" cy="614" r="6"/><circle cx="2439" cy="622" r="6"/><circle cx="2538" cy="615" r="4"/><circle cx="43" cy="656" r="5"/><circle cx="158" cy="641" r="6"/><circle cx="203" cy="671" r="5"/><circle cx="275" cy="712" r="4"/><circle cx="374" cy="692" r="6"/><circle cx="466" cy="690" r="5"/><circle cx="543" cy="683" r="4"/><circle cx="630" cy="718" r="6"/><circle cx="692" cy="667" r="6"/><circle cx="765" cy="681" r="5"/><circle cx="830" cy="682" r="4"/><circle cx="940" cy="703" r="4"/><circle cx="1014" cy="678" r="5"/><circle cx="1064" cy="700" r="6"/><circle cx="1186" cy="647" r="5"/><circle cx="1253" cy="679" r="4"/><circle cx="1337" cy="659" r="5"/><circle cx="1427" cy="661" r="4"/><circle cx="1450" cy="716" r="5"/><circle cx="1590" cy="686" r="4"/><circle cx="1679" cy="712" r="4"/><circle cx="1732" cy="675" r="6"/><circle cx="1778" cy="673" r="4"/><circle cx="1887" cy="694" r="5"/><circle cx="1993" cy="686" r="4"/><circle cx="2010" cy="718" r="5"/><circle cx="2148" cy="713" r="5"/><circle cx="2203" cy="645" r="6"/><circle cx="2253" cy="688" r="5"/><circle cx="2352" cy="676" r="4"/><circle cx="2400" cy="677" r="5"/><circle cx="2503" cy="657" r="5"/><circle cx="2" cy="754" r="4"/><circle cx="2562" cy="754" r="4"/><circle cx="136" cy="776" r="5"/><circle cx="198" cy="761" r="4"/><circle cx="267" cy="798" r="6"/><circle cx="333" cy="749" r="5"/><circle cx="473" cy="800" r="4"/><circle cx="496" cy="782" r="4"/><circle cx="587" cy="755" r="5"/><circle cx="691" cy="733" r="6"/><circle cx="786" cy="789" r="4"/><circle cx="859" cy="779" r="4"/><circle cx="900" cy="732" r="6"/><circle cx="961" cy="782" r="5"/><circle cx="1120" cy="740" r="4"/><circle cx="1138" cy="798" r="5"/><circle cx="1248" cy="754" r="6"/><circle cx="1335" cy="748" r="6"/><circle cx="1422" cy="768" r="6"/><circle cx="1463" cy="736" r="5"/><circle cx="1596" cy="754" r="4"/><circle cx="1670" cy="724" r="5"/><circle cx="1736" cy="740" r="6"/><circle cx="1797" cy="795" r="4"/><circle cx="1847" cy="732" r="4"/><circle cx="1935" cy="744" r="5"/><circle cx="2046" cy="752" r="6"/><circle cx="2090" cy="772" r="5"/><circle cx="2180" cy="735" r="5"/><circle cx="2257" cy="764" r="5"/><circle cx="2349" cy="794" r="4"/><circle cx="2432" cy="736" r="6"/><circle cx="2532" cy="770" r="4"/><circle cx="42" cy="816" r="5"/><circle cx="106" cy="803" r="5"/><circle cx="233" cy="863" r="6"/><circle cx="266" cy="868" r="5"/><circle cx="393" cy="862" r="5"/><circle cx="405" cy="836" r="5"/><circle cx="484" cy="808" r="4"/><circle cx="585" cy="874" r="5"/><circle cx="709" cy="807" r="5"/><circle cx="739" cy="801" r="5"/><circle cx="879" cy="806" r="6"/><circle cx="918" cy="874" r="5"/><circle cx="990" cy="831" r="5"/><circle cx="1049" cy="868" r="5"/><circle cx="1134" cy="851" r="4"/><circle cx="1229" cy="834" r="5"/><circle cx="1307" cy="839" r="4"/><circle cx="1434" cy="850" r="5"/><circle cx="1503" cy="844" r="5"/><circle cx="1600" cy="851" r="6"/><circle cx="1649" cy="850" r="4"/><circle cx="1730" cy="813" r="4"/><circle cx="1813" cy="808" r="4"/><circle cx="1902" cy="873" r="6"/><circle cx="1965" cy="801" r="4"/><circle cx="2066" cy="870" r="4"/><circle cx="2115" cy="838" r="5"/><circle cx="2202" cy="821" r="4"/><circle cx="2243" cy="806" r="5"/><circle cx="2363" cy="828" r="5"/><circle cx="2424" cy="827" r="5"/><circle cx="2494" cy="838" r="5"/><circle cx="51" cy="942" r="6"/><circle cx="125" cy="912" r="5"/><circle cx="206" cy="885" r="5"/><circle cx="312" cy="949" r="5"/><circle cx="338" cy="944" r="5"/><circle cx="401" cy="919" r="6"/><circle cx="484" cy="958" r="5"/><circle cx="633" cy="907" r="6"/><circle cx="695" cy="952" r="5"/><circle cx="790" cy="904" r="6"/><circle cx="838" cy="893" r="4"/><circle cx="942" cy="960" r="6"/><circle cx="1030" cy="953" r="5"/><circle cx="1108" cy="952" r="4"/><circle cx="1145" cy="882" r="5"/><circle cx="1237" cy="913" r="6"/><circle cx="1336" cy="897" r="6"/><circle cx="1398" cy="892" r="4"/><circle cx="1464" cy="897" r="4"/><circle cx="1572" cy="912" r="5"/><circle cx="1615" cy="956" r="4"/><circle cx="1737" cy="880" r="5"/><circle cx="1832" cy="958" r="6"/><circle cx="1893" cy="921" r="5"/><circle cx="1957" cy="943" r="5"/><circle cx="2005" cy="959" r="4"/><circle cx="2107" cy="935" r="6"/><circle cx="2229" cy="947" r="4"/><circle cx="2284" cy="900" r="4"/><circle cx="2325" cy="893" r="5"/><circle cx="2436" cy="933" r="6"/><circle cx="2547" cy="887" r="4"/><circle cx="75" cy="1005" r="4"/><circle cx="110" cy="986" r="5"/><circle cx="216" cy="999" r="5"/><circle cx="316" cy="998" r="4"/><circle cx="396" cy="999" r="6"/><circle cx="438" cy="1021" r="5"/><circle cx="521" cy="968" r="5"/><circle cx="586" cy="980" r="6"/><circle cx="653" cy="1020" r="4"/><circle cx="740" cy="1018" r="4"/><circle cx="801" cy="995" r="5"/><circle cx="945" cy="1001" r="5"/><circle cx="993" cy="992" r="6"/><circle cx="1116" cy="972" r="6"/><circle cx="1136" cy="1026" r="5"/><circle cx="1260" cy="982" r="5"/><circle cx="1346" cy="972" r="6"/><circle cx="1388" cy="1028" r="4"/><circle cx="1488" cy="990" r="6"/><circle cx="1594" cy="1028" r="4"/><circle cx="1608" cy="1007" r="4"/><circle cx="1717" cy="972" r="5"/><circle cx="1779" cy="995" r="5"/><circle cx="1916" cy="983" r="6"/><circle cx="1982" cy="1024" r="6"/><circle cx="2053" cy="1021" r="6"/><circle cx="2105" cy="973" r="6"/><circle cx="2236" cy="968" r="5"/><circle cx="2284" cy="979" r="5"/><circle cx="2365" cy="1009" r="6"/><circle cx="2436" cy="975" r="6"/><circle cx="2534" cy="967" r="4"/><circle cx="3" cy="1118" r="5"/><circle cx="2563" cy="1118" r="5"/><circle cx="93" cy="1110" r="5"/><circle cx="174" cy="1048" r="4"/><circle cx="279" cy="1103" r="6"/><circle cx="367" cy="1059" r="5"/><circle cx="450" cy="1040" r="5"/><circle cx="548" cy="1074" r="5"/><circle cx="590" cy="1052" r="4"/><circle cx="670" cy="1115" r="5"/><circle cx="760" cy="1091" r="6"/><circle cx="871" cy="1085" r="5"/><circle cx="942" cy="1101" r="4"/><circle cx="976" cy="1093" r="4"/><circle cx="1096" cy="1060" r="5"/><circle cx="1184" cy="1116" r="6"/><circle cx="1241" cy="1120" r="5"/><circle cx="1340" cy="1104" r="5"/><circle cx="1385" cy="1083" r="5"/><circle cx="1492" cy="1108" r="6"/><circle cx="1528" cy="1098" r="5"/><circle cx="1606" cy="1052" r="5"/><circle cx="1746" cy="1081" r="4"/><circle cx="1769" cy="1104" r="6"/><circle cx="1866" cy="1079" r="4"/><circle cx="1960" cy="1046" r="4"/><circle cx="2054" cy="1096" r="6"/><circle cx="2122" cy="1082" r="5"/><circle cx="2202" cy="1048" r="5"/><circle cx="2308" cy="1100" r="4"/><circle cx="2349" cy="1097" r="4"/><circle cx="2411" cy="1052" r="4"/><circle cx="2518" cy="1092" r="5"/><circle cx="48" cy="1154" r="6"/><circle cx="86" cy="1185" r="5"/><circle cx="226" cy="1123" r="6"/><circle cx="257" cy="1197" r="5"/><circle cx="397" cy="1168" r="6"/><circle cx="475" cy="1123" r="4"/><circle cx="513" cy="1155" r="4"/><circle cx="604" cy="1159" r="5"/><circle cx="696" cy="1133" r="5"/><circle cx="768" cy="1147" r="6"/><circle cx="863" cy="1130" r="5"/><circle cx="959" cy="1195" r="5"/><circle cx="992" cy="1176" r="5"/><circle cx="1057" cy="1129" r="4"/><circle cx="1194" cy="1194" r="6"/><circle cx="1248" cy="1125" r="5"/><circle cx="1289" cy="1164" r="5"/><circle cx="1405" cy="1188" r="5"/><circle cx="1465" cy="1153" r="4"/><circle cx="1590" cy="1124" r="4"/><circle cx="1640" cy="1163" r="5"/><circle cx="1710" cy="1168" r="6"/><circle cx="1763" cy="1130" r="6"/><circle cx="1914" cy="1146" r="5"/><circle cx="1963" cy="1131" r="5"/><circle cx="2033" cy="1140" r="5"/><circle cx="2143" cy="1148" r="5"/><circle cx="2222" cy="1168" r="6"/><circle cx="2243" cy="1157" r="5"/><circle cx="2353" cy="1144" r="4"/><circle cx="2459" cy="1140" r="5"/><circle cx="2536" cy="1163" r="5"/><circle cx="56" cy="1251" r="6"/><circle cx="145" cy="1239" r="5"/><circle cx="185" cy="1244" r="4"/><circle cx="267" cy="1235" r="5"/><circle cx="380" cy="1245" r="5"/><circle cx="476" cy="1272" r="6"/><circle cx="555" cy="1229" r="5"/><circle cx="599" cy="1266" r="6"/><circle cx="641" cy="1235" r="5"/><circle cx="763" cy="1261" r="4"/><circle cx="804" cy="1232" r="5"/><circle cx="917" cy="1217" r="4"/><circle cx="1009" cy="1238" r="5"/><circle cx="1078" cy="1237" r="5"/><circle cx="1129" cy="1269" r="5"/><circle cx="1214" cy="1230" r="5"/><circle cx="1297" cy="1269" r="6"/><circle cx="1425" cy="1260" r="4"/><circle cx="1455" cy="1257" r="4"/><circle cx="1548" cy="1240" r="4"/><circle cx="1619" cy="1230" r="6"/><circle cx="1725" cy="1231" r="4"/><circle cx="1781" cy="1223" r="5"/><circle cx="1895" cy="1213" r="5"/><circle cx="1979" cy="1270" r="4"/><circle cx="2061" cy="1251" r="6"/><circle cx="2157" cy="1256" r="5"/><circle cx="2170" cy="1230" r="4"/><circle cx="2291" cy="1244" r="5"/><circle cx="2384" cy="1252" r="5"/><circle cx="2424" cy="1280" r="5"/><circle cx="2486" cy="1246" r="5"/><circle cx="25" cy="1311" r="5"/><circle cx="109" cy="1293" r="5"/><circle cx="184" cy="1336" r="6"/><circle cx="278" cy="1318" r="5"/><circle cx="344" cy="1314" r="5"/><circle cx="436" cy="1353" r="5"/><circle cx="518" cy="1351" r="6"/><circle cx="600" cy="1292" r="6"/><circle cx="648" cy="1346" r="5"/><circle cx="794" cy="1285" r="4"/><circle cx="812" cy="1313" r="5"/><circle cx="896" cy="1313" r="5"/><circle cx="1012" cy="1316" r="5"/><circle cx="1096" cy="1351" r="5"/><circle cx="1148" cy="1330" r="6"/><circle cx="1269" cy="1339" r="6"/><circle cx="1319" cy="1322" r="4"/><circle cx="1401" cy="1314" r="5"/><circle cx="1514" cy="1334" r="4"/><circle cx="1565" cy="1282" r="4"/><circle cx="1649" cy="1298" r="5"/><circle cx="1712" cy="1351" r="4"/><circle cx="1799" cy="1288" r="6"/><circle cx="1856" cy="1303" r="4"/><circle cx="1934" cy="1312" r="4"/><circle cx="2033" cy="1289" r="5"/><circle cx="2096" cy="1322" r="5"/><circle cx="2224" cy="1329" r="5"/><circle cx="2297" cy="1320" r="6"/><circle cx="2373" cy="1338" r="6"/><circle cx="2446" cy="1290" r="4"/><circle cx="2509" cy="1285" r="5"/><circle cx="17" cy="1384" r="5"/><circle cx="99" cy="1365" r="4"/><circle cx="232" cy="1403" r="4"/><circle cx="246" cy="1425" r="5"/><circle cx="370" cy="1408" r="5"/><circle cx="478" cy="1434" r="5"/><circle cx="523" cy="1401" r="4"/><circle cx="572" cy="1430" r="6"/><circle cx="669" cy="1392" r="4"/><circle cx="749" cy="1421" r="6"/><circle cx="874" cy="1413" r="5"/><circle cx="885" cy="1369" r="6"/><circle cx="972" cy="1366" r="4"/><circle cx="1100" cy="1395" r="4"/><circle cx="1177" cy="1412" r="4"/><circle cx="1202" cy="1377" r="5"/><circle cx="1283" cy="1399" r="5"/><circle cx="1402" cy="1405" r="6"/><circle cx="1449" cy="1361" r="5"/><circle cx="1547" cy="1364" r="6"/><circle cx="1627" cy="1409" r="5"/><circle cx="1709" cy="1417" r="6"/><circle cx="1824" cy="1362" r="5"/><circle cx="1841" cy="1429" r="6"/><circle cx="1943" cy="1401" r="4"/><circle cx="2039" cy="1408" r="4"/><circle cx="2137" cy="1372" r="6"/><circle cx="2200" cy="1380" r="5"/><circle cx="2256" cy="1384" r="4"/><circle cx="2396" cy="1435" r="5"/><circle cx="2396" cy="-5" r="5"/><circle cx="2447" cy="1434" r="5"/><circle cx="2505" cy="1408" r="6"/><path stroke="#fff" d="M37 53L93 11M37 53L-50 44M37 53L38 105M37 53L-9 108M37 53L17 -56M2597 53L2510 44M2597 53L2551 108M37 1493L17 1384M93 11L175 61M93 11L38 105M93 11L17 -56M93 11L99 -75M93 1451L17 1384M93 1451L99 1365M175 61L281 29M175 61L239 159M175 61L241 82M175 61L246 -15M175 1501L246 1425M281 29L382 61M281 29L241 82M281 29L232 -37M281 29L246 -15M281 1469L232 1403M281 1469L246 1425M382 61L415 69M382 61L361 101M382 61L428 130M382 61L370 -32M382 1501L370 1408M415 69L361 101M415 69L428 130M552 57L617 40M552 57L545 156M552 57L604 93M552 57L478 -6M552 57L572 -10M552 1497L478 1434M552 1497L572 1430M617 40L691 58M617 40L604 93M617 40L688 125M617 40L572 -10M617 1480L572 1430M691 58L732 55M691 58L604 93M691 58L688 125M691 58L749 -19M691 1498L749 1421M732 55L688 125M732 55L794 109M732 55L749 -19M732 1495L749 1421M842 45L881 75M842 45L794 109M842 45L858 118M842 45L874 -27M842 1485L874 1413M881 75L794 109M881 75L858 118M881 75L882 150M881 75L874 -27M881 1515L874 1413M1018 21L1088 9M1018 21L1010 109M1018 21L1078 91M1018 21L972 -74M1018 1461L972 1366M1088 9L1151 31M1088 9L1078 91M1088 9L1096 -89M1088 9L1100 -45M1088 1449L1096 1351M1088 1449L1100 1395M1151 31L1078 91M1151 31L1127 136M1151 31L1100 -45M1151 31L1177 -28M1151 1471L1100 1395M1151 1471L1177 1412M1243 70L1348 77M1243 70L1247 126M1243 70L1284 103M1243 70L1241 173M1348 77L1393 1M1348 77L1284 103M1348 77L1417 127M1348 77L1449 100M1393 1L1449 37M1393 1L1283 -41M1393 1L1402 -35M1393 1L1449 -79M1393 1441L1283 1399M1393 1441L1402 1405M1393 1441L1449 1361M1449 37L1533 66M1449 37L1417 127M1449 37L1449 100M1449 37L1402 -35M1449 1477L1402 1405M1533 66L1449 100M1533 66L1570 133M1664 71L1724 3M1664 71L1647 146M1664 71L1745 117M1664 71L1627 -31M1664 71L1709 -23M1664 1511L1627 1409M1664 1511L1709 1417M1724 3L1712 -89M1724 3L1627 -31M1724 3L1709 -23M1724 1443L1712 1351M1724 1443L1627 1409M1724 1443L1709 1417M1806 73L1907 27M1806 73L1745 117M1806 73L1777 110M1806 73L1856 132M1806 73L1841 -11M1806 1513L1841 1429M1907 27L1976 59M1907 27L1971 106M1907 27L1841 -11M1907 27L1943 -39M1907 1467L1841 1429M1907 1467L1943 1401M1976 59L2075 34M1976 59L1971 106M1976 59L2019 135M2075 34L2083 30M2075 34L2139 84M2075 34L2039 -32M2075 1474L2039 1408M2083 30L2139 84M2083 30L2039 -32M2083 1470L2039 1408M2236 5L2241 68M2236 5L2221 95M2236 5L2137 -68M2236 5L2200 -60M2236 5L2256 -56M2236 1445L2137 1372M2236 1445L2200 1380M2236 1445L2256 1384M2241 68L2139 84M2241 68L2221 95M2241 68L2250 157M2386 63L2464 80M2386 63L2377 123M2386 63L2418 92M2386 63L2396 -5M2386 63L2447 -6M2386 1503L2396 1435M2386 1503L2447 1434M2464 80L2510 44M2464 80L2418 92M2464 80L2551 108M2464 80L2447 -6M2464 1520L2447 1434M2510 44L2551 108M2510 44L2447 -6M2510 44L2505 -32M2510 1484L2447 1434M2510 1484L2505 1408M38 105L116 151M38 105L-9 108M38 105L30 199M2598 105L2551 108M116 151L30 199M116 151L114 204M116 151L167 190M239 159L241 82M239 159L167 190M239 159L250 218M241 82L246 -15M241 1522L246 1425M361 101L428 130M361 101L371 171M428 130L371 171M428 130L426 216M545 156L604 93M545 156L523 190M545 156L567 184M545 156L644 172M604 93L644 172M688 125L644 172M794 109L858 118M794 109L779 199M858 118L882 150M858 118L950 172M882 150L950 172M882 150L834 257M1010 109L1078 91M1010 109L1127 136M1010 109L950 172M1010 109L996 218M1078 91L1127 136M1127 136L1117 225M1127 136L1159 221M1247 126L1284 103M1247 126L1241 173M1247 126L1293 220M1284 103L1241 173M1284 103L1293 220M1417 127L1449 100M1417 127L1405 228M1570 133L1647 146M1570 133L1509 221M1570 133L1572 198M1570 133L1601 200M1647 146L1572 198M1647 146L1601 200M1647 146L1685 202M1745 117L1777 110M1745 117L1685 202M1745 117L1771 210M1777 110L1856 132M1777 110L1771 210M1856 132L1899 201M1971 106L2019 135M1971 106L1982 162M2019 135L1982 162M2019 135L2078 172M2139 84L2221 95M2139 84L2078 172M2221 95L2250 157M2250 157L2258 199M2250 157L2330 198M2377 123L2418 92M2377 123L2330 198M2377 123L2415 222M2418 92L2396 -5M2418 1532L2396 1435M2551 108L2590 199M-9 108L30 199M30 199L114 204M30 199L-44 221M2590 199L2516 221M114 204L167 190M114 204L111 279M167 190L250 218M167 190L203 275M250 218L203 275M250 218L310 274M371 171L426 216M371 171L388 282M426 216L523 190M426 216L388 282M426 216L412 302M523 190L567 184M523 190L518 295M567 184L644 172M644 172L698 242M779 199L806 222M779 199L698 242M779 199L776 299M779 199L834 257M806 222L776 299M806 222L834 257M950 172L996 218M996 218L950 317M996 218L981 317M996 218L1099 268M1117 225L1159 221M1117 225L1099 268M1117 225L1131 306M1159 221L1241 173M1159 221L1099 268M1159 221L1131 306M1241 173L1293 220M1293 220L1236 316M1293 220L1354 279M1405 228L1354 279M1405 228L1389 300M1405 228L1471 255M1405 228L1392 324M1509 221L1572 198M1509 221L1471 255M1509 221L1566 258M1572 198L1601 200M1572 198L1566 258M1601 200L1685 202M1601 200L1566 258M1685 202L1771 210M1685 202L1735 279M1771 210L1735 279M1771 210L1815 255M1899 201L1982 162M1899 201L1815 255M1899 201L1864 305M1899 201L1979 247M1982 162L2078 172M1982 162L1979 247M2078 172L2159 209M2078 172L2163 211M2159 209L2163 211M2159 209L2258 199M2159 209L2119 283M2163 211L2258 199M2163 211L2119 283M2258 199L2330 198M2258 199L2280 299M2330 198L2415 222M2415 222L2516 221M2415 222L2353 314M2415 222L2447 306M2516 221L2524 316M55 309L111 279M55 309L-36 316M55 309L56 399M55 309L118 385M55 309L-34 354M2615 309L2524 316M2615 309L2526 354M111 279L203 275M111 279L118 385M111 279L177 372M203 275L310 274M203 275L177 372M310 274L388 282M310 274L273 350M310 274L334 335M388 282L412 302M388 282L334 335M412 302L518 295M412 302L334 335M412 302L405 397M518 295L625 289M518 295L518 378M518 295L584 325M625 289L698 242M625 289L584 325M625 289L644 383M698 242L728 326M776 299L834 257M776 299L728 326M776 299L812 351M834 257L812 351M950 317L981 317M950 317L949 372M950 317L963 377M950 317L1051 351M981 317L949 372M981 317L963 377M981 317L1051 351M1099 268L1131 306M1099 268L1051 351M1131 306L1180 367M1236 316L1180 367M1236 316L1232 320M1236 316L1284 390M1354 279L1389 300M1354 279L1471 255M1354 279L1392 324M1389 300L1471 255M1389 300L1392 324M1389 300L1395 413M1471 255L1566 258M1566 258L1614 305M1614 305L1735 279M1614 305L1553 381M1614 305L1639 372M1735 279L1815 255M1815 255L1864 305M1815 255L1850 325M1864 305L1818 388M1864 305L1850 325M1979 247L2034 295M2034 295L2119 283M2034 295L2000 398M2034 295L2063 333M2034 295L2099 376M2119 283L2163 320M2119 283L2063 333M2163 320L2063 333M2163 320L2099 376M2163 320L2211 329M2163 320L2248 341M2280 299L2353 314M2280 299L2211 329M2280 299L2248 341M2280 299L2362 325M2353 314L2447 306M2353 314L2362 325M2447 306L2524 316M2447 306L2362 325M2447 306L2441 379M2524 316L2526 354M56 399L118 385M56 399L-34 354M56 399L18 471M56 399L107 401M2616 399L2526 354M118 385L177 372M118 385L107 401M177 372L273 350M177 372L107 401M273 350L334 335M273 350L296 408M334 335L296 408M405 397L360 472M405 397L434 470M518 378L584 325M518 378L510 476M584 325L644 383M644 383L728 326M644 383L683 460M644 383L721 427M728 326L812 351M728 326L721 427M812 351L843 448M949 372L963 377M963 377L1051 351M963 377L1018 474M1051 351L1107 432M1180 367L1232 320M1180 367L1107 432M1180 367L1166 412M1232 320L1284 390M1232 320L1166 412M1284 390L1200 446M1284 390L1330 438M1392 324L1496 383M1392 324L1395 413M1496 383L1553 381M1496 383L1395 413M1496 383L1468 476M1496 383L1569 466M1553 381L1639 372M1553 381L1569 466M1639 372L1706 396M1639 372L1661 417M1706 396L1661 417M1706 396L1756 400M1706 396L1679 508M1818 388L1850 325M1818 388L1756 400M1818 388L1833 417M1818 388L1842 429M1850 325L1833 417M1850 325L1842 429M2000 398L2063 333M2000 398L1985 453M2000 398L2028 455M2000 398L1974 484M2063 333L2099 376M2099 376L2126 467M2211 329L2248 341M2211 329L2236 418M2248 341L2236 418M2248 341L2308 434M2362 325L2441 379M2362 325L2308 434M2441 379L2526 354M2441 379L2480 442M2441 379L2485 419M2526 354L2485 419M18 471L-75 419M18 471L35 521M18 471L-50 513M2578 471L2485 419M2578 471L2510 513M234 468L296 408M234 468L251 480M234 468L322 524M234 468L241 570M296 408L360 472M296 408L251 480M360 472L434 470M360 472L322 524M360 472L435 495M434 470L510 476M434 470L435 495M434 470L506 492M510 476L435 495M510 476L506 492M510 476L589 532M622 478L683 460M622 478L721 427M622 478L589 532M683 460L721 427M683 460L714 532M721 427L714 532M843 448L882 472M843 448L790 547M843 448L857 504M882 472L790 547M882 472L857 504M882 472L937 528M882 472L984 503M1018 474L1107 432M1018 474L937 528M1018 474L984 503M1018 474L1089 547M1107 432L1166 412M1107 432L1200 446M1166 412L1200 446M1200 446L1280 515M1330 438L1395 413M1330 438L1280 515M1330 438L1319 505M1395 413L1468 476M1468 476L1423 540M1468 476L1467 514M1468 476L1480 565M1569 466L1661 417M1569 466L1467 514M1569 466L1559 520M1661 417L1756 400M1661 417L1679 508M1756 400L1833 417M1756 400L1842 429M1833 417L1842 429M1833 417L1833 486M1842 429L1833 486M1985 453L2028 455M1985 453L1890 539M1985 453L1974 484M2028 455L2126 467M2028 455L1974 484M2028 455L2056 540M2126 467L2158 515M2126 467L2109 560M2236 418L2308 434M2236 418L2320 438M2308 434L2320 438M2480 442L2485 419M2480 442L2426 529M2480 442L2510 513M2485 419L2510 513M35 521L103 550M35 521L-50 513M35 521L15 615M35 521L-22 615M2595 521L2510 513M2595 521L2538 615M103 550L166 559M103 550L137 590M103 550L186 570M103 550L158 641M166 559L137 590M166 559L186 570M166 559L241 570M166 559L158 641M251 480L322 524M251 480L241 570M322 524L365 617M435 495L506 492M435 495L484 579M506 492L589 532M506 492L484 579M589 532L603 634M589 532L672 565M714 532L790 547M714 532L672 565M714 532L741 591M790 547L857 504M790 547L741 591M857 504L937 528M937 528L984 503M937 528L993 590M984 503L993 590M1089 547L1185 559M1089 547L1064 600M1185 559L1280 515M1185 559L1139 631M1185 559L1225 619M1185 559L1186 647M1280 515L1319 505M1319 505L1423 540M1423 540L1467 514M1423 540L1389 634M1423 540L1480 565M1467 514L1559 520M1467 514L1480 565M1559 520L1480 565M1559 520L1567 624M1679 508L1718 518M1679 508L1674 574M1718 518L1833 486M1718 518L1674 574M1718 518L1699 617M1718 518L1821 577M1833 486L1890 539M1833 486L1821 577M1890 539L1974 484M1890 539L1821 577M1890 539L1848 607M2056 540L2158 515M2056 540L2000 630M2056 540L2064 608M2056 540L2109 560M2158 515L2194 558M2158 515L2109 560M2158 515L2215 593M2194 558L2285 554M2194 558L2109 560M2194 558L2215 593M2194 558L2203 645M2285 554L2385 558M2285 554L2215 593M2285 554L2302 610M2285 554L2337 614M2385 558L2426 529M2385 558L2302 610M2385 558L2337 614M2385 558L2439 622M2426 529L2510 513M2426 529L2439 622M15 615L-22 615M15 615L43 656M15 615L-57 657M2575 615L2538 615M2575 615L2503 657M137 590L186 570M137 590L158 641M137 590L203 671M186 570L241 570M186 570L158 641M365 617L425 635M365 617L374 692M425 635L484 579M425 635L374 692M425 635L466 690M484 579L466 690M603 634L672 565M603 634L543 683M603 634L630 718M603 634L692 667M672 565L741 591M741 591L692 667M741 591L765 681M867 638L921 620M867 638L830 682M867 638L940 703M921 620L993 590M921 620L940 703M993 590L1064 600M993 590L1014 678M1064 600L1139 631M1064 600L1014 678M1064 600L1064 700M1139 631L1225 619M1139 631L1064 700M1139 631L1186 647M1225 619L1299 636M1225 619L1186 647M1225 619L1253 679M1299 636L1389 634M1299 636L1253 679M1299 636L1337 659M1389 634L1337 659M1389 634L1427 661M1389 634L1450 716M1480 565L1567 624M1567 624L1674 574M1567 624L1590 686M1674 574L1699 617M1699 617L1679 712M1699 617L1732 675M1699 617L1778 673M1821 577L1848 607M1821 577L1778 673M1848 607L1887 694M2000 630L2064 608M2000 630L1993 686M2000 630L2010 718M2064 608L2109 560M2215 593L2302 610M2215 593L2203 645M2302 610L2337 614M2302 610L2352 676M2337 614L2352 676M2337 614L2400 677M2439 622L2538 615M2439 622L2400 677M2439 622L2503 657M2538 615L2603 656M2538 615L2503 657M-22 615L43 656M43 656L-57 657M43 656L2 754M2603 656L2503 657M158 641L203 671M203 671L275 712M203 671L198 761M275 712L374 692M275 712L198 761M275 712L267 798M275 712L333 749M374 692L466 690M374 692L333 749M466 690L543 683M466 690L496 782M543 683L630 718M543 683L587 755M630 718L692 667M630 718L587 755M630 718L691 733M692 667L765 681M692 667L691 733M765 681L830 682M765 681L691 733M830 682L859 779M830 682L900 732M940 703L1014 678M940 703L900 732M940 703L961 782M1014 678L1064 700M1064 700L1120 740M1186 647L1253 679M1253 679L1337 659M1253 679L1248 754M1337 659L1427 661M1337 659L1335 748M1427 661L1450 716M1427 661L1463 736M1450 716L1335 748M1450 716L1422 768M1450 716L1463 736M1590 686L1596 754M1590 686L1670 724M1679 712L1732 675M1679 712L1596 754M1679 712L1670 724M1679 712L1736 740M1732 675L1778 673M1732 675L1670 724M1732 675L1736 740M1778 673L1736 740M1778 673L1847 732M1887 694L1993 686M1887 694L1847 732M1887 694L1935 744M1993 686L2010 718M1993 686L1935 744M1993 686L2046 752M2010 718L1935 744M2010 718L2046 752M2010 718L2090 772M2148 713L2203 645M2148 713L2253 688M2148 713L2046 752M2148 713L2090 772M2148 713L2180 735M2203 645L2253 688M2203 645L2180 735M2253 688L2352 676M2253 688L2180 735M2253 688L2257 764M2352 676L2400 677M2352 676L2432 736M2400 677L2432 736M2503 657L2432 736M2 754L-28 770M2 754L42 816M2 754L106 803M2 754L-66 838M2562 754L2532 770M2562 754L2494 838M136 776L198 761M136 776L42 816M136 776L106 803M136 776L206 885M198 761L267 798M267 798L333 749M267 798L233 863M267 798L266 868M333 749L405 836M473 800L496 782M473 800L393 862M473 800L405 836M473 800L484 808M496 782L587 755M496 782L484 808M587 755L585 874M691 733L709 807M691 733L739 801M786 789L859 779M786 789L709 807M786 789L739 801M786 789L879 806M786 789L790 904M859 779L900 732M859 779L879 806M900 732L961 782M900 732L879 806M961 782L879 806M961 782L918 874M961 782L990 831M1120 740L1138 798M1138 798L1248 754M1138 798L1134 851M1138 798L1229 834M1138 798L1145 882M1248 754L1335 748M1248 754L1229 834M1248 754L1307 839M1335 748L1422 768M1335 748L1307 839M1422 768L1463 736M1422 768L1434 850M1422 768L1503 844M1596 754L1670 724M1596 754L1600 851M1596 754L1649 850M1670 724L1736 740M1736 740L1730 813M1797 795L1847 732M1797 795L1730 813M1797 795L1813 808M1797 795L1737 880M1847 732L1935 744M1847 732L1813 808M1935 744L1965 801M2046 752L2090 772M2046 752L1965 801M2090 772L2180 735M2090 772L2115 838M2180 735L2257 764M2257 764L2349 794M2257 764L2202 821M2257 764L2243 806M2349 794L2432 736M2349 794L2363 828M2349 794L2424 827M2349 794L2325 893M2432 736L2424 827M2532 770L2602 816M2532 770L2494 838M-28 770L42 816M42 816L106 803M42 816L-13 887M2602 816L2547 887M106 803L125 912M233 863L266 868M233 863L125 912M233 863L206 885M266 868L206 885M266 868L312 949M393 862L405 836M393 862L484 808M393 862L338 944M393 862L401 919M405 836L484 808M405 836L401 919M585 874L633 907M709 807L739 801M709 807L633 907M739 801L790 904M879 806L918 874M918 874L990 831M918 874L838 893M918 874L942 960M990 831L1049 868M1049 868L1134 851M1049 868L1030 953M1049 868L1108 952M1134 851L1145 882M1229 834L1307 839M1229 834L1237 913M1307 839L1237 913M1307 839L1336 897M1434 850L1503 844M1434 850L1336 897M1434 850L1398 892M1434 850L1464 897M1503 844L1600 851M1503 844L1464 897M1503 844L1572 912M1600 851L1649 850M1600 851L1572 912M1600 851L1615 956M1649 850L1730 813M1649 850L1572 912M1649 850L1737 880M1730 813L1813 808M1730 813L1737 880M1902 873L1965 801M1902 873L1832 958M1902 873L1893 921M1902 873L1957 943M2066 870L2115 838M2066 870L2107 935M2066 870L2105 973M2115 838L2202 821M2115 838L2107 935M2202 821L2243 806M2243 806L2284 900M2363 828L2424 827M2363 828L2325 893M2424 827L2494 838M2424 827L2436 933M2494 838L2436 933M2494 838L2547 887M51 942L125 912M51 942L-13 887M51 942L75 1005M51 942L110 986M51 942L-26 967M2611 942L2547 887M2611 942L2534 967M125 912L206 885M125 912L110 986M206 885L216 999M312 949L338 944M312 949L316 998M338 944L401 919M338 944L316 998M338 944L396 999M401 919L484 958M401 919L396 999M484 958L438 1021M484 958L521 968M484 958L450 1040M633 907L695 952M633 907L586 980M695 952L790 904M695 952L653 1020M695 952L740 1018M790 904L838 893M790 904L801 995M838 893L942 960M838 893L801 995M942 960L1030 953M942 960L945 1001M942 960L993 992M1030 953L1108 952M1030 953L993 992M1030 953L1116 972M1108 952L1145 882M1108 952L1116 972M1108 952L1136 1026M1145 882L1237 913M1145 882L1116 972M1237 913L1336 897M1237 913L1260 982M1336 897L1398 892M1336 897L1346 972M1398 892L1464 897M1398 892L1346 972M1464 897L1488 990M1572 912L1615 956M1572 912L1488 990M1615 956L1594 1028M1615 956L1608 1007M1615 956L1606 1052M1737 880L1717 972M1832 958L1893 921M1832 958L1717 972M1832 958L1779 995M1832 958L1916 983M1893 921L1957 943M1893 921L1916 983M1957 943L2005 959M1957 943L1916 983M1957 943L1982 1024M2005 959L1982 1024M2005 959L2053 1021M2005 959L2105 973M2107 935L2053 1021M2107 935L2105 973M2229 947L2284 900M2229 947L2236 968M2229 947L2284 979M2229 947L2202 1048M2284 900L2325 893M2284 900L2236 968M2284 900L2284 979M2325 893L2284 979M2436 933L2365 1009M2436 933L2436 975M2436 933L2534 967M2547 887L2534 967M75 1005L110 986M75 1005L-26 967M75 1005L93 1110M2635 1005L2534 967M110 986L216 999M110 986L174 1048M216 999L316 998M216 999L174 1048M216 999L279 1103M316 998L367 1059M396 999L438 1021M396 999L367 1059M396 999L450 1040M438 1021L521 968M438 1021L367 1059M438 1021L450 1040M521 968L586 980M586 980L653 1020M586 980L548 1074M586 980L590 1052M653 1020L740 1018M653 1020L590 1052M653 1020L670 1115M740 1018L801 995M740 1018L760 1091M801 995L760 1091M801 995L871 1085M945 1001L993 992M945 1001L976 1093M993 992L976 1093M1116 972L1136 1026M1116 972L1096 1060M1136 1026L1096 1060M1136 1026L1184 1116M1260 982L1346 972M1346 972L1388 1028M1346 972L1385 1083M1388 1028L1488 990M1388 1028L1340 1104M1388 1028L1385 1083M1488 990L1492 1108M1594 1028L1608 1007M1594 1028L1528 1098M1594 1028L1606 1052M1608 1007L1717 972M1608 1007L1606 1052M1717 972L1779 995M1717 972L1746 1081M1779 995L1746 1081M1779 995L1769 1104M1916 983L1982 1024M1916 983L1960 1046M1982 1024L2053 1021M1982 1024L1960 1046M2053 1021L2105 973M2053 1021L2054 1096M2105 973L2122 1082M2236 968L2284 979M2236 968L2202 1048M2284 979L2365 1009M2365 1009L2436 975M2365 1009L2349 1097M2365 1009L2411 1052M2436 975L2534 967M2436 975L2411 1052M3 1118L93 1110M3 1118L-42 1092M3 1118L48 1154M3 1118L86 1185M3 1118L-24 1163M2563 1118L2518 1092M2563 1118L2536 1163M93 1110L174 1048M93 1110L48 1154M93 1110L86 1185M174 1048L226 1123M279 1103L367 1059M279 1103L226 1123M279 1103L257 1197M279 1103L397 1168M367 1059L450 1040M450 1040L475 1123M548 1074L590 1052M548 1074L475 1123M548 1074L513 1155M670 1115L760 1091M670 1115L604 1159M670 1115L696 1133M670 1115L768 1147M760 1091L696 1133M760 1091L768 1147M871 1085L942 1101M871 1085L863 1130M942 1101L976 1093M942 1101L863 1130M942 1101L959 1195M976 1093L992 1176M976 1093L1057 1129M1096 1060L1184 1116M1096 1060L1057 1129M1184 1116L1241 1120M1184 1116L1194 1194M1184 1116L1248 1125M1241 1120L1340 1104M1241 1120L1194 1194M1241 1120L1248 1125M1241 1120L1289 1164M1340 1104L1385 1083M1340 1104L1248 1125M1340 1104L1289 1164M1385 1083L1492 1108M1385 1083L1405 1188M1492 1108L1528 1098M1492 1108L1465 1153M1492 1108L1590 1124M1528 1098L1606 1052M1528 1098L1465 1153M1528 1098L1590 1124M1606 1052L1590 1124M1746 1081L1769 1104M1746 1081L1763 1130M1769 1104L1866 1079M1769 1104L1710 1168M1769 1104L1763 1130M1866 1079L1914 1146M1960 1046L1914 1146M1960 1046L1963 1131M2054 1096L2122 1082M2054 1096L1963 1131M2054 1096L2033 1140M2054 1096L2143 1148M2122 1082L2202 1048M2122 1082L2033 1140M2122 1082L2143 1148M2308 1100L2349 1097M2308 1100L2243 1157M2308 1100L2353 1144M2349 1097L2411 1052M2349 1097L2353 1144M2411 1052L2518 1092M2411 1052L2459 1140M2518 1092L2459 1140M2518 1092L2536 1163M48 1154L86 1185M48 1154L-24 1163M48 1154L56 1251M2608 1154L2536 1163M86 1185L56 1251M86 1185L145 1239M226 1123L257 1197M257 1197L185 1244M257 1197L267 1235M397 1168L475 1123M397 1168L513 1155M397 1168L380 1245M475 1123L513 1155M513 1155L604 1159M604 1159L696 1133M604 1159L555 1229M604 1159L641 1235M696 1133L768 1147M768 1147L863 1130M768 1147L804 1232M863 1130L959 1195M863 1130L917 1217M959 1195L992 1176M959 1195L917 1217M959 1195L1009 1238M992 1176L1057 1129M992 1176L917 1217M992 1176L1009 1238M1194 1194L1248 1125M1194 1194L1129 1269M1194 1194L1214 1230M1248 1125L1289 1164M1289 1164L1214 1230M1289 1164L1297 1269M1405 1188L1465 1153M1405 1188L1425 1260M1405 1188L1455 1257M1465 1153L1425 1260M1590 1124L1640 1163M1640 1163L1710 1168M1640 1163L1619 1230M1710 1168L1763 1130M1710 1168L1725 1231M1710 1168L1781 1223M1763 1130L1725 1231M1763 1130L1781 1223M1914 1146L1963 1131M1914 1146L1895 1213M1963 1131L2033 1140M1963 1131L1895 1213M2033 1140L2061 1251M2143 1148L2222 1168M2143 1148L2243 1157M2143 1148L2170 1230M2222 1168L2243 1157M2222 1168L2157 1256M2222 1168L2170 1230M2222 1168L2291 1244M2243 1157L2170 1230M2243 1157L2291 1244M2353 1144L2459 1140M2459 1140L2536 1163M2536 1163L2486 1246M56 1251L145 1239M56 1251L25 1311M56 1251L109 1293M145 1239L185 1244M145 1239L109 1293M185 1244L267 1235M185 1244L184 1336M267 1235L380 1245M267 1235L278 1318M267 1235L344 1314M380 1245L476 1272M380 1245L344 1314M476 1272L555 1229M476 1272L436 1353M476 1272L518 1351M555 1229L599 1266M555 1229L641 1235M555 1229L600 1292M599 1266L641 1235M599 1266L600 1292M599 1266L648 1346M641 1235L600 1292M641 1235L648 1346M763 1261L804 1232M763 1261L794 1285M763 1261L812 1313M804 1232L794 1285M804 1232L812 1313M917 1217L1009 1238M917 1217L896 1313M1009 1238L1078 1237M1009 1238L1012 1316M1078 1237L1129 1269M1078 1237L1012 1316M1129 1269L1214 1230M1129 1269L1096 1351M1129 1269L1148 1330M1214 1230L1297 1269M1214 1230L1269 1339M1297 1269L1269 1339M1297 1269L1319 1322M1425 1260L1455 1257M1425 1260L1401 1314M1455 1257L1548 1240M1455 1257L1401 1314M1548 1240L1619 1230M1548 1240L1514 1334M1548 1240L1565 1282M1619 1230L1725 1231M1619 1230L1565 1282M1619 1230L1649 1298M1725 1231L1781 1223M1725 1231L1799 1288M1781 1223L1895 1213M1781 1223L1799 1288M1895 1213L1979 1270M1895 1213L1856 1303M1979 1270L2061 1251M1979 1270L1934 1312M1979 1270L2033 1289M2061 1251L2157 1256M2061 1251L2033 1289M2061 1251L2096 1322M2157 1256L2170 1230M2157 1256L2096 1322M2157 1256L2224 1329M2291 1244L2384 1252M2291 1244L2297 1320M2384 1252L2424 1280M2384 1252L2486 1246M2384 1252L2373 1338M2384 1252L2446 1290M2424 1280L2486 1246M2424 1280L2373 1338M2424 1280L2446 1290M2424 1280L2509 1285M2486 1246L2446 1290M2486 1246L2509 1285M25 1311L109 1293M25 1311L-51 1285M25 1311L17 1384M25 1311L99 1365M2585 1311L2509 1285M109 1293L184 1336M109 1293L99 1365M184 1336L278 1318M184 1336L99 1365M184 1336L232 1403M278 1318L344 1314M278 1318L232 1403M278 1318L246 1425M344 1314L436 1353M344 1314L370 1408M436 1353L518 1351M436 1353L370 1408M436 1353L478 1434M518 1351L478 1434M518 1351L523 1401M518 1351L572 1430M600 1292L648 1346M648 1346L669 1392M794 1285L812 1313M794 1285L885 1369M812 1313L896 1313M812 1313L885 1369M896 1313L874 1413M896 1313L885 1369M896 1313L972 1366M1012 1316L1096 1351M1012 1316L972 1366M1096 1351L1148 1330M1096 1351L1100 1395M1148 1330L1100 1395M1148 1330L1177 1412M1148 1330L1202 1377M1269 1339L1319 1322M1269 1339L1202 1377M1269 1339L1283 1399M1319 1322L1401 1314M1319 1322L1283 1399M1401 1314L1402 1405M1401 1314L1449 1361M1514 1334L1565 1282M1514 1334L1449 1361M1514 1334L1547 1364M1565 1282L1649 1298M1565 1282L1547 1364M1649 1298L1712 1351M1649 1298L1547 1364M1712 1351L1799 1288M1712 1351L1627 1409M1712 1351L1709 1417M1799 1288L1856 1303M1799 1288L1824 1362M1856 1303L1934 1312M1856 1303L1824 1362M1934 1312L2033 1289M1934 1312L1943 1401M2033 1289L2096 1322M2096 1322L2039 1408M2096 1322L2137 1372M2224 1329L2297 1320M2224 1329L2137 1372M2224 1329L2200 1380M2224 1329L2256 1384M2297 1320L2373 1338M2297 1320L2200 1380M2297 1320L2256 1384M2373 1338L2446 1290M2373 1338L2396 1435M2446 1290L2509 1285M2509 1285L2505 1408M17 1384L99 1365M17 1384L-55 1408M2577 1384L2505 1408M232 1403L246 1425M478 1434L523 1401M478 1434L572 1430M523 1401L572 1430M669 1392L749 1421M874 1413L885 1369M874 1413L972 1366M885 1369L972 1366M1100 1395L1177 1412M1177 1412L1202 1377M1202 1377L1283 1399M1283 1399L1402 1405M1402 1405L1449 1361M1449 1361L1547 1364M1547 1364L1627 1409M1627 1409L1709 1417M1709 1417L1841 1429M1824 1362L1841 1429M1841 1429L1943 1401M1943 1401L2039 1408M2039 1408L2137 1372M2137 1372L2200 1380M2200 1380L2256 1384M2396 1435L2447 1434M2396 1435L2505 1408M2447 1434L2505 1408"/></svg>