<svg xmlns="http://www.w3.org/2000/svg" width="2560" height="1440" fill="#fff"><circle cx="20" cy="47" r="6"/><circle cx="128" cy="54" r="5"/><circle cx="232" cy="29" r="5"/><circle cx="304" cy="64" r="5"/><circle cx="396" cy="75" r="5"/><circle cx="465" cy="57" r="6"/><circle cx="548" cy="38" r="5"/><circle cx="560" cy="43" r="5"/><circle cx="655" cy="51" r="6"/><circle cx="734" cy="50" r="5"/><circle cx="845" cy="77" r="5"/><circle cx="911" cy="76" r="4"/><circle cx="983" cy="50" r="5"/><circle cx="1069" cy="17" r="5"/><circle cx="1179" cy="60" r="5"/><circle cx="1275" cy="17" r="6"/><circle cx="1355" cy="55" r="6"/><circle cx="1376" cy="27" r="4"/><circle cx="1447" cy="42" r="5"/><circle cx="1559" cy="55" r="5"/><circle cx="1644" cy="22" r="5"/><circle cx="1757" cy="39" r="4"/><circle cx="1763" cy="78" r="6"/><circle cx="1843" cy="20" r="6"/><circle cx="1933" cy="69" r="4"/><circle cx="2033" cy="50" r="4"/><circle cx="2160" cy="47" r="5"/><circle cx="2172" cy="21" r="4"/><circle cx="2312" cy="20" r="5"/><circle cx="2384" cy="21" r="4"/><circle cx="2411" cy="61" r="5"/><circle cx="2558" cy="66" r="5"/><circle cx="-2" cy="66" r="5"/><circle cx="10" cy="113" r="6"/><circle cx="123" cy="98" r="4"/><circle cx="198" cy="150" r="4"/><circle cx="252" cy="111" r="5"/><circle cx="364" cy="107" r="6"/><circle cx="462" cy="110" r="4"/><circle cx="544" cy="118" r="5"/><circle cx="604" cy="110" r="5"/><circle cx="696" cy="105" r="5"/><circle cx="770" cy="100" r="5"/><circle cx="824" cy="124" r="4"/><circle cx="912" cy="120" r="4"/><circle cx="1004" cy="81" r="5"/><circle cx="1091" cy="135" r="5"/><circle cx="1164" cy="114" r="5"/><circle cx="1274" cy="155" r="5"/><circle cx="1281" cy="107" r="5"/><circle cx="1425" cy="87" r="5"/><circle cx="1501" cy="90" r="5"/><circle cx="1533" cy="117" r="6"/><circle cx="1666" cy="139" r="5"/><circle cx="1706" cy="82" r="6"/><circle cx="1795" cy="133" r="6"/><circle cx="1904" cy="133" r="5"/><circle cx="1984" cy="103" r="5"/><circle cx="2058" cy="129" r="6"/><circle cx="2146" cy="145" r="6"/><circle cx="2175" cy="116" r="6"/><circle cx="2298" cy="92" r="6"/><circle cx="2337" cy="82" r="5"/><circle cx="2404" cy="128" r="4"/><circle cx="2554" cy="127" r="5"/><circle cx="66" cy="234" r="6"/><circle cx="144" cy="191" r="5"/><circle cx="213" cy="223" r="5"/><circle cx="286" cy="223" r="4"/><circle cx="386" cy="235" r="6"/><circle cx="465" cy="231" r="6"/><circle cx="550" cy="237" r="4"/><circle cx="614" cy="177" r="6"/><circle cx="654" cy="228" r="5"/><circle cx="780" cy="176" r="6"/><circle cx="879" cy="219" r="6"/><circle cx="942" cy="232" r="6"/><circle cx="1004" cy="160" r="6"/><circle cx="1055" cy="191" r="5"/><circle cx="1153" cy="210" r="5"/><circle cx="1217" cy="239" r="5"/><circle cx="1354" cy="233" r="6"/><circle cx="1383" cy="179" r="5"/><circle cx="1442" cy="162" r="5"/><circle cx="1534" cy="190" r="6"/><circle cx="1635" cy="180" r="6"/><circle cx="1731" cy="222" r="5"/><circle cx="1818" cy="210" r="5"/><circle cx="1895" cy="217" r="6"/><circle cx="1962" cy="220" r="5"/><circle cx="2007" cy="190" r="6"/><circle cx="2117" cy="231" r="5"/><circle cx="2238" cy="200" r="4"/><circle cx="2275" cy="213" r="5"/><circle cx="2366" cy="235" r="5"/><circle cx="2412" cy="226" r="4"/><circle cx="2489" cy="180" r="4"/><circle cx="13" cy="310" r="4"/><circle cx="131" cy="279" r="4"/><circle cx="200" cy="291" r="6"/><circle cx="270" cy="306" r="4"/><circle cx="378" cy="253" r="4"/><circle cx="451" cy="264" r="5"/><circle cx="521" cy="288" r="5"/><circle cx="572" cy="271" r="5"/><circle cx="682" cy="295" r="5"/><circle cx="750" cy="274" r="6"/><circle cx="821" cy="255" r="5"/><circle cx="916" cy="276" r="6"/><circle cx="1032" cy="264" r="5"/><circle cx="1062" cy="270" r="5"/><circle cx="1195" cy="295" r="5"/><circle cx="1215" cy="289" r="5"/><circle cx="1313" cy="246" r="5"/><circle cx="1382" cy="256" r="6"/><circle cx="1506" cy="288" r="5"/><circle cx="1543" cy="302" r="5"/><circle cx="1677" cy="290" r="5"/><circle cx="1714" cy="287" r="5"/><circle cx="1815" cy="320" r="6"/><circle cx="1912" cy="318" r="5"/><circle cx="1962" cy="314" r="4"/><circle cx="2052" cy="258" r="4"/><circle cx="2086" cy="295" r="4"/><circle cx="2227" cy="271" r="5"/><circle cx="2312" cy="268" r="5"/><circle cx="2338" cy="268" r="6"/><circle cx="2475" cy="247" r="5"/><circle cx="2532" cy="248" r="5"/><circle cx="10" cy="356" r="4"/><circle cx="130" cy="346" r="5"/><circle cx="224" cy="368" r="5"/><circle cx="293" cy="383" r="6"/><circle cx="400" cy="361" r="4"/><circle cx="460" cy="326" r="6"/><circle cx="521" cy="384" r="5"/><circle cx="588" cy="340" r="4"/><circle cx="680" cy="341" r="6"/><circle cx="740" cy="379" r="4"/><circle cx="828" cy="380" r="5"/><circle cx="926" cy="352" r="4"/><circle cx="983" cy="389" r="5"/><circle cx="1076" cy="349" r="5"/><circle cx="1171" cy="371" r="5"/><circle cx="1260" cy="355" r="4"/><circle cx="1287" cy="373" r="5"/><circle cx="1393" cy="333" r="5"/><circle cx="1508" cy="393" r="4"/><circle cx="1571" cy="336" r="5"/><circle cx="1660" cy="323" r="5"/><circle cx="1729" cy="397" r="6"/><circle cx="1805" cy="358" r="5"/><circle cx="1897" cy="330" r="6"/><circle cx="1957" cy="375" r="5"/><circle cx="2075" cy="382" r="5"/><circle cx="2095" cy="367" r="5"/><circle cx="2198" cy="389" r="4"/><circle cx="2288" cy="363" r="6"/><circle cx="2375" cy="395" r="5"/><circle cx="2468" cy="338" r="4"/><circle cx="2504" cy="369" r="4"/><circle cx="7" cy="411" r="4"/><circle cx="102" cy="473" r="4"/><circle cx="213" cy="433" r="4"/><circle cx="319" cy="478" r="4"/><circle cx="333" cy="472" r="6"/><circle cx="402" cy="466" r="5"/><circle cx="487" cy="408" r="6"/><circle cx="637" cy="430" r="4"/><circle cx="705" cy="409" r="4"/><circle cx="785" cy="424" r="5"/><circle cx="845" cy="472" r="6"/><circle cx="904" cy="407" r="6"/><circle cx="1016" cy="401" r="5"/><circle cx="1056" cy="447" r="5"/><circle cx="1121" cy="453" r="5"/><circle cx="1231" cy="414" r="4"/><circle cx="1310" cy="462" r="5"/><circle cx="1407" cy="440" r="4"/><circle cx="1517" cy="431" r="5"/><circle cx="1580" cy="404" r="4"/><circle cx="1643" cy="463" r="6"/><circle cx="1738" cy="435" r="4"/><circle cx="1792" cy="464" r="5"/><circle cx="1858" cy="410" r="5"/><circle cx="1998" cy="413" r="4"/><circle cx="2024" cy="416" r="6"/><circle cx="2136" cy="436" r="5"/><circle cx="2171" cy="426" r="5"/><circle cx="2306" cy="466" r="4"/><circle cx="2376" cy="479" r="4"/><circle cx="2412" cy="428" r="5"/><circle cx="2515" cy="439" r="5"/><circle cx="28" cy="503" r="4"/><circle cx="126" cy="495" r="4"/><circle cx="205" cy="548" r="6"/><circle cx="283" cy="494" r="4"/><circle cx="341" cy="498" r="6"/><circle cx="471" cy="507" r="6"/><circle cx="498" cy="532" r="5"/><circle cx="566" cy="521" r="5"/><circle cx="677" cy="555" r="4"/><circle cx="738" cy="530" r="6"/><circle cx="853" cy="547" r="5"/><circle cx="902" cy="500" r="5"/><circle cx="1010" cy="518" r="5"/><circle cx="1114" cy="486" r="5"/><circle cx="1146" cy="491" r="4"/><circle cx="1238" cy="503" r="4"/><circle cx="1300" cy="495" r="5"/><circle cx="1382" cy="510" r="6"/><circle cx="1509" cy="485" r="5"/><circle cx="1569" cy="491" r="5"/><circle cx="1656" cy="500" r="5"/><circle cx="1704" cy="499" r="6"/><circle cx="1814" cy="502" r="5"/><circle cx="1861" cy="508" r="5"/><circle cx="1942" cy="481" r="5"/><circle cx="2066" cy="519" r="5"/><circle cx="2109" cy="503" r="4"/><circle cx="2171" cy="524" r="4"/><circle cx="2305" cy="531" r="6"/><circle cx="2351" cy="553" r="5"/><circle cx="2422" cy="555" r="4"/><circle cx="2498" cy="526" r="4"/><circle cx="54" cy="582" r="6"/><circle cx="129" cy="619" r="5"/><circle cx="238" cy="569" r="5"/><circle cx="287" cy="562" r="4"/><circle cx="375" cy="577" r="6"/><circle cx="434" cy="580" r="5"/><circle cx="540" cy="631" r="5"/><circle cx="632" cy="568" r="4"/><circle cx="698" cy="595" r="4"/><circle cx="748" cy="590" r="6"/><circle cx="843" cy="591" r="5"/><circle cx="956" cy="570" r="6"/><circle cx="1016" cy="623" r="5"/><circle cx="1096" cy="590" r="5"/><circle cx="1120" cy="595" r="5"/><circle cx="1236" cy="599" r="6"/><circle cx="1289" cy="604" r="6"/><circle cx="1432" cy="616" r="6"/><circle cx="1499" cy="632" r="5"/><circle cx="1555" cy="622" r="6"/><circle cx="1656" cy="632" r="6"/><circle cx="1729" cy="578" r="4"/><circle cx="1804" cy="635" r="4"/><circle cx="1860" cy="635" r="5"/><circle cx="1938" cy="639" r="5"/><circle cx="2078" cy="568" r="5"/><circle cx="2126" cy="570" r="4"/><circle cx="2226" cy="615" r="4"/><circle cx="2272" cy="620" r="5"/><circle cx="2367" cy="580" r="6"/><circle cx="2416" cy="565" r="6"/><circle cx="2523" cy="588" r="6"/><circle cx="50" cy="646" r="6"/><circle cx="117" cy="685" r="6"/><circle cx="167" cy="661" r="4"/><circle cx="265" cy="701" r="5"/><circle cx="394" cy="700" r="5"/><circle cx="455" cy="686" r="5"/><circle cx="536" cy="677" r="5"/><circle cx="573" cy="645" r="6"/><circle cx="655" cy="718" r="5"/><circle cx="745" cy="698" r="4"/><circle cx="815" cy="697" r="5"/><circle cx="885" cy="682" r="5"/><circle cx="973" cy="712" r="4"/><circle cx="1099" cy="658" r="6"/><circle cx="1179" cy="642" r="5"/><circle cx="1250" cy="703" r="6"/><circle cx="1290" cy="717" r="4"/><circle cx="1433" cy="690" r="5"/><circle cx="1456" cy="646" r="5"/><circle cx="1586" cy="702" r="5"/><circle cx="1636" cy="697" r="5"/><circle cx="1750" cy="647" r="6"/><circle cx="1779" cy="640" r="5"/><circle cx="1857" cy="690" r="6"/><circle cx="1950" cy="701" r="6"/><circle cx="2062" cy="716" r="6"/><circle cx="2115" cy="646" r="6"/><circle cx="2163" cy="674" r="6"/><circle cx="2307" cy="675" r="5"/><circle cx="2396" cy="665" r="5"/><circle cx="2467" cy="686" r="5"/><circle cx="2507" cy="712" r="5"/><circle cx="5" cy="781" r="5"/><circle cx="2565" cy="781" r="5"/><circle cx="150" cy="732" r="5"/><circle cx="173" cy="773" r="6"/><circle cx="293" cy="735" r="5"/><circle cx="330" cy="744" r="6"/><circle cx="421" cy="787" r="5"/><circle cx="483" cy="787" r="4"/><circle cx="576" cy="721" r="4"/><circle cx="687" cy="749" r="5"/><circle cx="770" cy="766" r="6"/><circle cx="874" cy="720" r="5"/><circle cx="924" cy="781" r="6"/><circle cx="998" cy="785" r="4"/><circle cx="1074" cy="779" r="6"/><circle cx="1189" cy="732" r="5"/><circle cx="1269" cy="752" r="5"/><circle cx="1359" cy="734" r="6"/><circle cx="1386" cy="748" r="5"/><circle cx="1482" cy="790" r="5"/><circle cx="1574" cy="797" r="6"/><circle cx="1669" cy="751" r="5"/><circle cx="1729" cy="720" r="6"/><circle cx="1833" cy="748" r="6"/><circle cx="1901" cy="778" r="4"/><circle cx="1989" cy="754" r="5"/><circle cx="2001" cy="721" r="5"/><circle cx="2124" cy="775" r="4"/><circle cx="2164" cy="793" r="5"/><circle cx="2313" cy="771" r="5"/><circle cx="2334" cy="756" r="5"/><circle cx="2427" cy="758" r="6"/><circle cx="2543" cy="741" r="5"/><circle cx="55" cy="824" r="5"/><circle cx="115" cy="873" r="4"/><circle cx="239" cy="821" r="6"/><circle cx="304" cy="804" r="5"/><circle cx="334" cy="832" r="4"/><circle cx="447" cy="817" r="5"/><circle cx="534" cy="814" r="5"/><circle cx="567" cy="822" r="5"/><circle cx="665" cy="845" r="6"/><circle cx="777" cy="824" r="4"/><circle cx="814" cy="804" r="4"/><circle cx="899" cy="858" r="4"/><circle cx="966" cy="830" r="6"/><circle cx="1059" cy="880" r="4"/><circle cx="1168" cy="855" r="6"/><circle cx="1228" cy="827" r="4"/><circle cx="1349" cy="804" r="4"/><circle cx="1397" cy="811" r="4"/><circle cx="1518" cy="830" r="5"/><circle cx="1520" cy="820" r="5"/><circle cx="1625" cy="803" r="5"/><circle cx="1732" cy="858" r="5"/><circle cx="1814" cy="834" r="5"/><circle cx="1850" cy="826" r="5"/><circle cx="1996" cy="855" r="5"/><circle cx="2042" cy="818" r="6"/><circle cx="2089" cy="864" r="5"/><circle cx="2240" cy="844" r="5"/><circle cx="2249" cy="872" r="5"/><circle cx="2343" cy="827" r="4"/><circle cx="2407" cy="858" r="6"/><circle cx="2544" cy="802" r="5"/><circle cx="29" cy="909" r="4"/><circle cx="137" cy="902" r="4"/><circle cx="206" cy="945" r="4"/><circle cx="257" cy="895" r="5"/><circle cx="328" cy="959" r="5"/><circle cx="464" cy="933" r="6"/><circle cx="490" cy="896" r="5"/><circle cx="566" cy="933" r="5"/><circle cx="658" cy="958" r="4"/><circle cx="799" cy="940" r="6"/><circle cx="871" cy="894" r="5"/><circle cx="945" cy="956" r="5"/><circle cx="973" cy="919" r="5"/><circle cx="1042" cy="892" r="6"/><circle cx="1198" cy="910" r="5"/><circle cx="1276" cy="889" r="5"/><circle cx="1345" cy="930" r="4"/><circle cx="1429" cy="958" r="6"/><circle cx="1510" cy="911" r="5"/><circle cx="1591" cy="920" r="5"/><circle cx="1632" cy="930" r="4"/><circle cx="1712" cy="933" r="4"/><circle cx="1780" cy="909" r="5"/><circle cx="1857" cy="888" r="5"/><circle cx="1931" cy="945" r="5"/><circle cx="2041" cy="910" r="5"/><circle cx="2106" cy="904" r="5"/><circle cx="2228" cy="888" r="5"/><circle cx="2244" cy="886" r="6"/><circle cx="2347" cy="941" r="5"/><circle cx="2421" cy="958" r="6"/><circle cx="2558" cy="904" r="6"/><circle cx="-2" cy="904" r="6"/><circle cx="60" cy="1032" r="6"/><circle cx="143" cy="1034" r="6"/><circle cx="173" cy="1009" r="4"/><circle cx="241" cy="984" r="5"/><circle cx="322" cy="985" r="5"/><circle cx="462" cy="1019" r="4"/><circle cx="495" cy="1026" r="5"/><circle cx="582" cy="1022" r="4"/><circle cx="703" cy="1008" r="5"/><circle cx="726" cy="963" r="6"/><circle cx="868" cy="996" r="6"/><circle cx="917" cy="1014" r="4"/><circle cx="975" cy="1007" r="5"/><circle cx="1040" cy="1008" r="6"/><circle cx="1166" cy="971" r="4"/><circle cx="1265" cy="1032" r="5"/><circle cx="1324" cy="1022" r="6"/><circle cx="1375" cy="1016" r="5"/><circle cx="1477" cy="981" r="5"/><circle cx="1557" cy="1010" r="4"/><circle cx="1660" cy="993" r="4"/><circle cx="1753" cy="1029" r="4"/><circle cx="1799" cy="972" r="6"/><circle cx="1909" cy="1012" r="5"/><circle cx="1935" cy="987" r="6"/><circle cx="2028" cy="1012" r="6"/><circle cx="2088" cy="1007" r="6"/><circle cx="2201" cy="1019" r="4"/><circle cx="2272" cy="1037" r="5"/><circle cx="2381" cy="979" r="5"/><circle cx="2413" cy="1006" r="4"/><circle cx="2546" cy="1030" r="6"/><circle cx="19" cy="1118" r="4"/><circle cx="100" cy="1076" r="5"/><circle cx="184" cy="1120" r="6"/><circle cx="245" cy="1104" r="5"/><circle cx="324" cy="1060" r="4"/><circle cx="416" cy="1119" r="5"/><circle cx="541" cy="1077" r="6"/><circle cx="584" cy="1115" r="5"/><circle cx="700" cy="1096" r="5"/><circle cx="745" cy="1068" r="4"/><circle cx="868" cy="1053" r="5"/><circle cx="950" cy="1091" r="4"/><circle cx="984" cy="1119" r="5"/><circle cx="1068" cy="1098" r="5"/><circle cx="1143" cy="1048" r="5"/><circle cx="1219" cy="1059" r="6"/><circle cx="1344" cy="1113" r="5"/><circle cx="1376" cy="1061" r="5"/><circle cx="1516" cy="1086" r="5"/><circle cx="1530" cy="1083" r="4"/><circle cx="1671" cy="1048" r="5"/><circle cx="1758" cy="1056" r="5"/><circle cx="1833" cy="1088" r="5"/><circle cx="1861" cy="1095" r="5"/><circle cx="1928" cy="1087" r="5"/><circle cx="2065" cy="1108" r="6"/><circle cx="2087" cy="1119" r="6"/><circle cx="2226" cy="1070" r="6"/><circle cx="2306" cy="1076" r="6"/><circle cx="2378" cy="1060" r="6"/><circle cx="2422" cy="1115" r="5"/><circle cx="2523" cy="1060" r="5"/><circle cx="55" cy="1149" r="5"/><circle cx="87" cy="1161" r="6"/><circle cx="207" cy="1188" r="4"/><circle cx="267" cy="1133" r="6"/><circle cx="344" cy="1134" r="4"/><circle cx="457" cy="1175" r="5"/><circle cx="532" cy="1135" r="4"/><circle cx="590" cy="1181" r="4"/><circle cx="676" cy="1198" r="6"/><circle cx="776" cy="1144" r="5"/><circle cx="855" cy="1170" r="5"/><circle cx="904" cy="1182" r="5"/><circle cx="1019" cy="1129" r="6"/><circle cx="1053" cy="1146" r="5"/><circle cx="1187" cy="1166" r="5"/><circle cx="1243" cy="1163" r="5"/><circle cx="1358" cy="1166" r="6"/><circle cx="1430" cy="1129" r="6"/><circle cx="1501" cy="1188" r="6"/><circle cx="1560" cy="1171" r="6"/><circle cx="1660" cy="1192" r="5"/><circle cx="1747" cy="1149" r="6"/><circle cx="1838" cy="1137" r="4"/><circle cx="1855" cy="1164" r="5"/><circle cx="1957" cy="1125" r="4"/><circle cx="2008" cy="1133" r="4"/><circle cx="2115" cy="1136" r="5"/><circle cx="2226" cy="1200" r="5"/><circle cx="2307" cy="1185" r="4"/><circle cx="2342" cy="1139" r="4"/><circle cx="2460" cy="1130" r="4"/><circle cx="2539" cy="1169" r="5"/><circle cx="60" cy="1237" r="6"/><circle cx="149" cy="1210" r="4"/><circle cx="168" cy="1229" r="5"/><circle cx="293" cy="1250" r="5"/><circle cx="385" cy="1250" r="5"/><circle cx="468" cy="1270" r="5"/><circle cx="548" cy="1271" r="4"/><circle cx="587" cy="1264" r="4"/><circle cx="705" cy="1205" r="4"/><circle cx="726" cy="1267" r="5"/><circle cx="867" cy="1269" r="4"/><circle cx="942" cy="1261" r="5"/><circle cx="989" cy="1246" r="6"/><circle cx="1045" cy="1244" r="5"/><circle cx="1129" cy="1219" r="6"/><circle cx="1210" cy="1265" r="5"/><circle cx="1357" cy="1218" r="5"/><circle cx="1429" cy="1253" r="6"/><circle cx="1499" cy="1242" r="5"/><circle cx="1522" cy="1267" r="5"/><circle cx="1610" cy="1257" r="5"/><circle cx="1740" cy="1204" r="5"/><circle cx="1836" cy="1231" r="5"/><circle cx="1880" cy="1240" r="6"/><circle cx="1951" cy="1276" r="6"/><circle cx="2003" cy="1236" r="6"/><circle cx="2107" cy="1272" r="5"/><circle cx="2204" cy="1240" r="6"/><circle cx="2296" cy="1207" r="4"/><circle cx="2342" cy="1201" r="5"/><circle cx="2405" cy="1210" r="4"/><circle cx="2529" cy="1250" r="4"/><circle cx="29" cy="1290" r="6"/><circle cx="123" cy="1332" r="5"/><circle cx="187" cy="1348" r="5"/><circle cx="294" cy="1312" r="5"/><circle cx="393" cy="1343" r="5"/><circle cx="435" cy="1287" r="5"/><circle cx="511" cy="1312" r="4"/><circle cx="612" cy="1334" r="5"/><circle cx="670" cy="1339" r="6"/><circle cx="754" cy="1348" r="5"/><circle cx="872" cy="1319" r="6"/><circle cx="912" cy="1350" r="5"/><circle cx="1038" cy="1355" r="5"/><circle cx="1075" cy="1340" r="6"/><circle cx="1185" cy="1282" r="6"/><circle cx="1248" cy="1303" r="5"/><circle cx="1317" cy="1300" r="5"/><circle cx="1430" cy="1329" r="4"/><circle cx="1505" cy="1289" r="5"/><circle cx="1587" cy="1305" r="5"/><circle cx="1610" cy="1301" r="6"/><circle cx="1734" cy="1336" r="6"/><circle cx="1810" cy="1300" r="5"/><circle cx="1857" cy="1338" r="6"/><circle cx="1985" cy="1294" r="5"/><circle cx="2031" cy="1304" r="6"/><circle cx="2141" cy="1347" r="4"/><circle cx="2226" cy="1301" r="4"/><circle cx="2278" cy="1296" r="4"/><circle cx="2363" cy="1353" r="5"/><circle cx="2425" cy="1297" r="6"/><circle cx="2547" cy="1314" r="6"/><circle cx="68" cy="1386" r="5"/><circle cx="99" cy="1387" r="4"/><circle cx="205" cy="1437" r="4"/><circle cx="205" cy="-3" r="4"/><circle cx="313" cy="1390" r="4"/><circle cx="327" cy="1423" r="6"/><circle cx="426" cy="1433" r="4"/><circle cx="492" cy="1402" r="6"/><circle cx="622" cy="1370" r="4"/><circle cx="654" cy="1438" r="5"/><circle cx="654" cy="-2" r="5"/><circle cx="774" cy="1363" r="4"/><circle cx="863" cy="1405" r="5"/><circle cx="884" cy="1406" r="5"/><circle cx="1004" cy="1436" r="5"/><circle cx="1004" cy="-4" r="5"/><circle cx="1118" cy="1433" r="6"/><circle cx="1123" cy="1431" r="4"/><circle cx="1246" cy="1373" r="6"/><circle cx="1349" cy="1379" r="5"/><circle cx="1414" cy="1390" r="4"/><circle cx="1480" cy="1427" r="5"/><circle cx="1547" cy="1435" r="5"/><circle cx="1547" cy="-5" r="5"/><circle cx="1660" cy="1365" r="6"/><circle cx="1715" cy="1431" r="5"/><circle cx="1840" cy="1412" r="5"/><circle cx="1917" cy="1424" r="5"/><circle cx="1989" cy="1437" r="4"/><circle cx="1989" cy="-3" r="4"/><circle cx="2047" cy="1414" r="4"/><circle cx="2122" cy="1426" r="4"/><circle cx="2232" cy="1417" r="5"/><circle cx="2272" cy="1431" r="5"/><circle cx="2350" cy="1388" r="6"/><circle cx="2465" cy="1401" r="5"/><circle cx="2514" cy="1393" r="5"/><path stroke="#fff" d="M20 47L128 54M20 47L-2 66M20 47L10 113M20 47L-6 127M20 47L68 -54M2580 47L2558 66M2580 47L2554 127M20 1487L68 1386M128 54L232 29M128 54L123 98M128 54L205 -3M128 1494L205 1437M232 29L304 64M232 29L252 111M232 29L205 -3M232 29L327 -17M232 1469L205 1437M232 1469L327 1423M304 64L396 75M304 64L252 111M304 64L364 107M304 64L327 -17M304 1504L327 1423M396 75L465 57M396 75L364 107M396 75L462 110M396 75L426 -7M396 1515L426 1433M465 57L548 38M465 57L462 110M465 57L426 -7M465 57L492 -38M465 1497L426 1433M465 1497L492 1402M548 38L560 43M548 38L544 118M548 38L604 110M548 38L492 -38M548 1478L492 1402M560 43L655 51M560 43L544 118M560 43L604 110M560 43L492 -38M560 1483L492 1402M655 51L734 50M655 51L604 110M655 51L696 105M655 51L654 -2M655 1491L654 1438M734 50L696 105M734 50L770 100M734 50L654 -2M734 1490L654 1438M845 77L911 76M845 77L770 100M845 77L824 124M845 77L912 120M911 76L983 50M911 76L912 120M911 76L1004 81M983 50L1069 17M983 50L1004 81M983 50L1004 -4M983 1490L1004 1436M1069 17L1004 81M1069 17L1004 -4M1069 17L1118 -7M1069 17L1123 -9M1069 1457L1004 1436M1069 1457L1118 1433M1069 1457L1123 1431M1179 60L1275 17M1179 60L1164 114M1179 60L1281 107M1179 60L1118 -7M1179 60L1123 -9M1179 1500L1118 1433M1179 1500L1123 1431M1275 17L1355 55M1275 17L1281 107M1275 17L1246 -67M1275 17L1349 -61M1275 1457L1246 1373M1275 1457L1349 1379M1355 55L1376 27M1355 55L1447 42M1355 55L1281 107M1355 55L1425 87M1376 27L1447 42M1376 27L1425 87M1376 27L1349 -61M1376 27L1414 -50M1376 1467L1349 1379M1376 1467L1414 1390M1447 42L1425 87M1447 42L1501 90M1447 42L1480 -13M1447 1482L1480 1427M1559 55L1644 22M1559 55L1501 90M1559 55L1533 117M1559 55L1480 -13M1559 55L1547 -5M1559 1495L1480 1427M1559 1495L1547 1435M1644 22L1706 82M1644 22L1547 -5M1644 22L1660 -75M1644 22L1715 -9M1644 1462L1547 1435M1644 1462L1660 1365M1644 1462L1715 1431M1757 39L1763 78M1757 39L1843 20M1757 39L1706 82M1757 39L1795 133M1757 39L1715 -9M1757 1479L1715 1431M1763 78L1843 20M1763 78L1706 82M1763 78L1795 133M1843 20L1933 69M1843 20L1840 -28M1843 20L1917 -16M1843 1460L1840 1412M1843 1460L1917 1424M1933 69L1904 133M1933 69L1984 103M1933 69L1917 -16M1933 69L1989 -3M1933 1509L1917 1424M1933 1509L1989 1437M2033 50L1984 103M2033 50L2058 129M2033 50L1989 -3M2033 50L2047 -26M2033 1490L1989 1437M2033 1490L2047 1414M2160 47L2172 21M2160 47L2146 145M2160 47L2175 116M2160 47L2122 -14M2160 47L2232 -23M2160 1487L2122 1426M2160 1487L2232 1417M2172 21L2175 116M2172 21L2122 -14M2172 21L2232 -23M2172 21L2272 -9M2172 1461L2122 1426M2172 1461L2232 1417M2172 1461L2272 1431M2312 20L2384 21M2312 20L2298 92M2312 20L2337 82M2312 20L2272 -9M2312 20L2350 -52M2312 1460L2272 1431M2312 1460L2350 1388M2384 21L2411 61M2384 21L2337 82M2384 21L2350 -52M2384 21L2465 -39M2384 1461L2350 1388M2384 1461L2465 1401M2411 61L2298 92M2411 61L2337 82M2411 61L2404 128M2411 61L2465 -39M2411 1501L2465 1401M2558 66L2570 113M2558 66L2554 127M2558 66L2514 -47M-2 66L10 113M2558 1506L2514 1393M10 113L123 98M10 113L-6 127M10 113L-71 180M2570 113L2554 127M2570 113L2489 180M123 98L198 150M123 98L144 191M198 150L252 111M198 150L144 191M198 150L213 223M252 111L364 107M364 107L462 110M462 110L544 118M544 118L604 110M544 118L614 177M604 110L614 177M696 105L770 100M770 100L824 124M770 100L780 176M824 124L912 120M824 124L780 176M912 120L879 219M1004 81L1004 160M1004 81L1004 -4M1004 1521L1004 1436M1091 135L1164 114M1091 135L1004 160M1091 135L1055 191M1164 114L1281 107M1164 114L1153 210M1274 155L1281 107M1274 155L1217 239M1274 155L1354 233M1274 155L1383 179M1274 155L1313 246M1425 87L1501 90M1425 87L1442 162M1501 90L1533 117M1501 90L1442 162M1533 117L1442 162M1533 117L1534 190M1533 117L1635 180M1666 139L1706 82M1666 139L1635 180M1706 82L1715 -9M1706 1522L1715 1431M1795 133L1904 133M1795 133L1731 222M1795 133L1818 210M1904 133L1984 103M1904 133L1895 217M1904 133L1962 220M1984 103L2058 129M1984 103L2007 190M2058 129L2146 145M2058 129L2175 116M2058 129L2007 190M2146 145L2175 116M2146 145L2117 231M2146 145L2238 200M2175 116L2238 200M2298 92L2337 82M2298 92L2404 128M2298 92L2272 -9M2298 1532L2272 1431M2337 82L2404 128M2404 128L2412 226M2554 127L2626 234M2554 127L2489 180M-6 127L66 234M66 234L144 191M66 234L13 310M66 234L131 279M66 234L-28 248M2626 234L2532 248M144 191L213 223M144 191L131 279M213 223L286 223M213 223L131 279M213 223L200 291M286 223L386 235M286 223L270 306M286 223L378 253M386 235L465 231M386 235L378 253M386 235L451 264M465 231L550 237M465 231L451 264M465 231L521 288M465 231L460 326M550 237L614 177M550 237L521 288M550 237L572 271M614 177L654 228M614 177L572 271M654 228L572 271M654 228L682 295M654 228L750 274M780 176L879 219M780 176L750 274M780 176L821 255M879 219L942 232M879 219L821 255M879 219L916 276M942 232L1004 160M942 232L916 276M942 232L1032 264M1004 160L1055 191M1004 160L1032 264M1055 191L1153 210M1055 191L1032 264M1055 191L1062 270M1153 210L1217 239M1153 210L1195 295M1153 210L1215 289M1217 239L1195 295M1217 239L1215 289M1217 239L1313 246M1354 233L1383 179M1354 233L1313 246M1354 233L1382 256M1354 233L1393 333M1383 179L1442 162M1383 179L1313 246M1383 179L1382 256M1442 162L1534 190M1534 190L1635 180M1534 190L1506 288M1534 190L1543 302M1635 180L1731 222M1635 180L1677 290M1731 222L1818 210M1731 222L1677 290M1731 222L1714 287M1818 210L1895 217M1895 217L1962 220M1895 217L2007 190M1895 217L1912 318M1962 220L2007 190M1962 220L1962 314M1962 220L2052 258M2007 190L2052 258M2117 231L2052 258M2117 231L2086 295M2238 200L2275 213M2238 200L2227 271M2275 213L2366 235M2275 213L2227 271M2275 213L2312 268M2275 213L2338 268M2366 235L2412 226M2366 235L2312 268M2366 235L2338 268M2366 235L2475 247M2412 226L2489 180M2412 226L2338 268M2412 226L2475 247M2489 180L2475 247M2489 180L2532 248M13 310L-28 248M13 310L10 356M13 310L-56 369M13 310L7 411M2573 310L2532 248M2573 310L2504 369M131 279L200 291M131 279L130 346M200 291L270 306M200 291L130 346M200 291L224 368M270 306L224 368M270 306L293 383M378 253L451 264M451 264L521 288M451 264L460 326M521 288L572 271M521 288L460 326M572 271L588 340M682 295L750 274M682 295L588 340M682 295L680 341M682 295L740 379M750 274L821 255M750 274L680 341M821 255L916 276M916 276L926 352M1032 264L1062 270M1032 264L1076 349M1062 270L1076 349M1195 295L1215 289M1195 295L1171 371M1195 295L1260 355M1215 289L1171 371M1215 289L1260 355M1313 246L1382 256M1382 256L1506 288M1382 256L1393 333M1506 288L1543 302M1506 288L1571 336M1543 302L1508 393M1543 302L1571 336M1677 290L1714 287M1677 290L1660 323M1714 287L1660 323M1815 320L1912 318M1815 320L1805 358M1815 320L1897 330M1815 320L1858 410M1912 318L1962 314M1912 318L1897 330M1912 318L1957 375M1962 314L1897 330M1962 314L1957 375M2052 258L2086 295M2086 295L2075 382M2086 295L2095 367M2227 271L2312 268M2227 271L2288 363M2312 268L2338 268M2312 268L2288 363M2338 268L2288 363M2475 247L2532 248M2475 247L2468 338M10 356L-92 338M10 356L-56 369M10 356L7 411M10 356L-45 439M2570 356L2468 338M2570 356L2504 369M2570 356L2515 439M130 346L224 368M224 368L293 383M224 368L213 433M293 383L213 433M293 383L319 478M293 383L333 472M400 361L460 326M400 361L487 408M460 326L487 408M521 384L588 340M521 384L487 408M588 340L680 341M588 340L637 430M680 341L740 379M680 341L705 409M740 379L828 380M740 379L705 409M740 379L785 424M828 380L926 352M828 380L785 424M828 380L845 472M828 380L904 407M926 352L983 389M926 352L904 407M926 352L1016 401M983 389L1076 349M983 389L904 407M983 389L1016 401M983 389L1056 447M1076 349L1171 371M1076 349L1016 401M1171 371L1121 453M1171 371L1231 414M1260 355L1287 373M1260 355L1231 414M1287 373L1393 333M1287 373L1231 414M1287 373L1310 462M1393 333L1407 440M1508 393L1571 336M1508 393L1517 431M1508 393L1580 404M1508 393L1509 485M1571 336L1660 323M1571 336L1580 404M1660 323L1729 397M1729 397L1805 358M1729 397L1738 435M1729 397L1792 464M1805 358L1858 410M1897 330L1957 375M1897 330L1858 410M1957 375L1998 413M1957 375L2024 416M2075 382L2095 367M2075 382L1998 413M2075 382L2024 416M2075 382L2136 436M2095 367L2024 416M2095 367L2136 436M2095 367L2171 426M2198 389L2288 363M2198 389L2136 436M2198 389L2171 426M2288 363L2375 395M2375 395L2468 338M2375 395L2306 466M2375 395L2376 479M2375 395L2412 428M2468 338L2504 369M2468 338L2412 428M2504 369L2567 411M2504 369L2515 439M-56 369L7 411M7 411L-45 439M7 411L28 503M2567 411L2515 439M102 473L28 503M102 473L126 495M319 478L333 472M319 478L402 466M319 478L283 494M319 478L341 498M333 472L402 466M333 472L283 494M333 472L341 498M402 466L487 408M402 466L341 498M402 466L471 507M487 408L471 507M637 430L705 409M705 409L785 424M785 424L845 472M785 424L738 530M845 472L904 407M845 472L853 547M845 472L902 500M904 407L902 500M1016 401L1056 447M1016 401L1121 453M1056 447L1121 453M1056 447L1010 518M1056 447L1114 486M1121 453L1114 486M1121 453L1146 491M1231 414L1310 462M1231 414L1238 503M1310 462L1238 503M1310 462L1300 495M1310 462L1382 510M1407 440L1517 431M1407 440L1382 510M1407 440L1509 485M1517 431L1580 404M1517 431L1509 485M1517 431L1569 491M1580 404L1643 463M1580 404L1569 491M1643 463L1738 435M1643 463L1569 491M1643 463L1656 500M1643 463L1704 499M1738 435L1792 464M1738 435L1704 499M1738 435L1814 502M1792 464L1704 499M1792 464L1814 502M1792 464L1861 508M1858 410L1814 502M1858 410L1861 508M1998 413L2024 416M1998 413L1942 481M2024 416L1942 481M2136 436L2171 426M2136 436L2109 503M2171 426L2171 524M2306 466L2376 479M2306 466L2412 428M2306 466L2305 531M2376 479L2412 428M2376 479L2305 531M2376 479L2351 553M2412 428L2515 439M2515 439L2498 526M28 503L-62 526M28 503L54 582M2588 503L2498 526M126 495L205 548M205 548L129 619M205 548L238 569M205 548L287 562M283 494L341 498M283 494L238 569M283 494L287 562M341 498L375 577M471 507L498 532M471 507L566 521M471 507L434 580M498 532L566 521M498 532L434 580M498 532L540 631M566 521L632 568M677 555L738 530M677 555L632 568M677 555L698 595M677 555L748 590M738 530L698 595M738 530L748 590M853 547L902 500M853 547L843 591M853 547L956 570M902 500L956 570M1010 518L1114 486M1010 518L956 570M1010 518L1016 623M1114 486L1146 491M1114 486L1096 590M1146 491L1238 503M1146 491L1120 595M1238 503L1300 495M1238 503L1236 599M1300 495L1382 510M1300 495L1289 604M1382 510L1432 616M1509 485L1569 491M1569 491L1656 500M1656 500L1704 499M1704 499L1729 578M1814 502L1861 508M1861 508L1942 481M2066 519L2109 503M2066 519L2171 524M2066 519L2078 568M2066 519L2126 570M2109 503L2171 524M2109 503L2078 568M2109 503L2126 570M2171 524L2078 568M2171 524L2126 570M2305 531L2351 553M2305 531L2272 620M2305 531L2367 580M2351 553L2422 555M2351 553L2367 580M2351 553L2416 565M2422 555L2498 526M2422 555L2367 580M2422 555L2416 565M2422 555L2523 588M2498 526L2416 565M2498 526L2523 588M54 582L129 619M54 582L-37 588M54 582L50 646M2614 582L2523 588M129 619L50 646M129 619L117 685M129 619L167 661M238 569L287 562M238 569L375 577M287 562L375 577M375 577L434 580M375 577L394 700M434 580L455 686M540 631L455 686M540 631L536 677M540 631L573 645M540 631L576 721M632 568L698 595M632 568L573 645M698 595L748 590M748 590L843 591M748 590L745 698M843 591L956 570M843 591L815 697M843 591L885 682M956 570L1016 623M1016 623L1096 590M1016 623L973 712M1016 623L1099 658M1096 590L1120 595M1096 590L1099 658M1120 595L1236 599M1120 595L1099 658M1120 595L1179 642M1236 599L1289 604M1236 599L1179 642M1289 604L1250 703M1432 616L1499 632M1432 616L1433 690M1432 616L1456 646M1499 632L1555 622M1499 632L1433 690M1499 632L1456 646M1555 622L1656 632M1555 622L1456 646M1555 622L1586 702M1555 622L1636 697M1656 632L1729 578M1656 632L1586 702M1656 632L1636 697M1656 632L1750 647M1729 578L1804 635M1729 578L1750 647M1729 578L1779 640M1804 635L1860 635M1804 635L1750 647M1804 635L1779 640M1804 635L1857 690M1860 635L1938 639M1860 635L1779 640M1860 635L1857 690M1938 639L1950 701M1938 639L2001 721M2078 568L2126 570M2078 568L2115 646M2126 570L2115 646M2226 615L2272 620M2226 615L2115 646M2226 615L2163 674M2226 615L2307 675M2272 620L2163 674M2272 620L2307 675M2367 580L2416 565M2367 580L2396 665M2416 565L2396 665M2523 588L2610 646M2523 588L2467 686M-37 588L50 646M50 646L117 685M117 685L167 661M117 685L150 732M117 685L173 773M167 661L150 732M167 661L173 773M265 701L173 773M265 701L293 735M265 701L330 744M394 700L455 686M394 700L293 735M394 700L330 744M394 700L421 787M455 686L536 677M455 686L421 787M536 677L573 645M536 677L576 721M573 645L655 718M573 645L576 721M655 718L745 698M655 718L576 721M655 718L687 749M745 698L815 697M745 698L687 749M745 698L770 766M815 697L885 682M815 697L770 766M815 697L874 720M885 682L973 712M885 682L874 720M973 712L874 720M973 712L924 781M973 712L998 785M1099 658L1179 642M1099 658L1189 732M1179 642L1250 703M1179 642L1189 732M1250 703L1290 717M1250 703L1189 732M1250 703L1269 752M1290 717L1189 732M1290 717L1269 752M1290 717L1359 734M1433 690L1456 646M1433 690L1359 734M1433 690L1386 748M1586 702L1636 697M1586 702L1574 797M1586 702L1669 751M1636 697L1669 751M1636 697L1729 720M1750 647L1779 640M1750 647L1729 720M1779 640L1857 690M1857 690L1950 701M1857 690L1833 748M1950 701L1901 778M1950 701L1989 754M1950 701L2001 721M2062 716L2115 646M2062 716L1989 754M2062 716L2001 721M2062 716L2124 775M2062 716L2042 818M2115 646L2163 674M2163 674L2124 775M2163 674L2164 793M2307 675L2396 665M2307 675L2313 771M2307 675L2334 756M2396 665L2467 686M2396 665L2427 758M2467 686L2507 712M2467 686L2427 758M2467 686L2543 741M2507 712L2565 781M2507 712L2427 758M2507 712L2543 741M2507 712L2544 802M-53 712L5 781M5 781L-17 741M5 781L55 824M5 781L-16 802M5 781L-2 904M2565 781L2543 741M2565 781L2544 802M2565 781L2558 904M150 732L173 773M173 773L239 821M293 735L330 744M293 735L239 821M293 735L304 804M330 744L304 804M330 744L334 832M421 787L483 787M421 787L334 832M421 787L447 817M483 787L447 817M483 787L534 814M483 787L567 822M576 721L534 814M687 749L770 766M687 749L665 845M770 766L777 824M770 766L814 804M874 720L924 781M874 720L814 804M924 781L998 785M924 781L899 858M924 781L966 830M998 785L1074 779M998 785L966 830M1074 779L1059 880M1074 779L1168 855M1074 779L1042 892M1189 732L1269 752M1269 752L1359 734M1269 752L1228 827M1359 734L1386 748M1359 734L1349 804M1386 748L1482 790M1386 748L1349 804M1386 748L1397 811M1482 790L1574 797M1482 790L1397 811M1482 790L1518 830M1482 790L1520 820M1574 797L1518 830M1574 797L1520 820M1574 797L1625 803M1669 751L1729 720M1669 751L1625 803M1669 751L1732 858M1729 720L1833 748M1729 720L1625 803M1833 748L1901 778M1833 748L1814 834M1833 748L1850 826M1901 778L1989 754M1901 778L1850 826M1989 754L2001 721M1989 754L2042 818M2124 775L2164 793M2164 793L2089 864M2164 793L2240 844M2164 793L2228 888M2313 771L2334 756M2313 771L2240 844M2313 771L2343 827M2334 756L2427 758M2334 756L2343 827M2427 758L2407 858M2543 741L2544 802M55 824L115 873M55 824L-16 802M55 824L29 909M55 824L-2 904M2615 824L2544 802M2615 824L2558 904M115 873L29 909M115 873L137 902M239 821L304 804M239 821L334 832M239 821L257 895M304 804L334 832M304 804L257 895M447 817L534 814M447 817L464 933M447 817L490 896M534 814L567 822M534 814L490 896M567 822L665 845M567 822L490 896M665 845L777 824M665 845L658 958M665 845L726 963M777 824L814 804M777 824L799 940M899 858L966 830M899 858L871 894M966 830L973 919M966 830L1042 892M1059 880L1168 855M1059 880L973 919M1059 880L1042 892M1168 855L1228 827M1168 855L1198 910M1168 855L1276 889M1228 827L1198 910M1228 827L1276 889M1349 804L1397 811M1349 804L1276 889M1518 830L1520 820M1518 830L1625 803M1518 830L1510 911M1520 820L1625 803M1520 820L1510 911M1732 858L1814 834M1732 858L1712 933M1732 858L1780 909M1814 834L1850 826M1814 834L1780 909M1814 834L1857 888M1850 826L1857 888M1996 855L2042 818M1996 855L2089 864M1996 855L1931 945M1996 855L2041 910M2042 818L2089 864M2042 818L2041 910M2089 864L2041 910M2089 864L2106 904M2240 844L2249 872M2240 844L2228 888M2240 844L2244 886M2249 872L2343 827M2249 872L2228 888M2249 872L2244 886M2343 827L2407 858M2343 827L2244 886M2407 858L2347 941M2407 858L2421 958M2407 858L2381 979M2544 802L2558 904M29 909L-2 904M2589 909L2558 904M137 902L206 945M206 945L257 895M206 945L173 1009M206 945L241 984M257 895L328 959M257 895L241 984M328 959L241 984M328 959L322 985M328 959L324 1060M464 933L490 896M464 933L566 933M464 933L462 1019M464 933L495 1026M490 896L566 933M566 933L658 958M566 933L495 1026M566 933L582 1022M658 958L582 1022M658 958L703 1008M658 958L726 963M799 940L871 894M799 940L703 1008M799 940L726 963M799 940L868 996M871 894L868 996M945 956L973 919M945 956L868 996M945 956L917 1014M945 956L975 1007M945 956L1040 1008M973 919L1042 892M973 919L975 1007M1042 892L1040 1008M1198 910L1276 889M1198 910L1166 971M1276 889L1345 930M1345 930L1429 958M1345 930L1324 1022M1345 930L1375 1016M1429 958L1510 911M1429 958L1375 1016M1429 958L1477 981M1510 911L1591 920M1510 911L1477 981M1591 920L1632 930M1591 920L1557 1010M1591 920L1660 993M1632 930L1712 933M1632 930L1660 993M1632 930L1671 1048M1712 933L1780 909M1712 933L1660 993M1712 933L1799 972M1780 909L1857 888M1780 909L1799 972M1857 888L1931 945M1857 888L1799 972M1931 945L1909 1012M1931 945L1935 987M2041 910L2106 904M2041 910L2028 1012M2106 904L2228 888M2106 904L2088 1007M2228 888L2244 886M2244 886L2347 941M2347 941L2421 958M2347 941L2381 979M2347 941L2413 1006M2421 958L2381 979M2421 958L2413 1006M2558 904L2546 1030M60 1032L143 1034M60 1032L-14 1030M60 1032L100 1076M60 1032L-37 1060M2620 1032L2546 1030M2620 1032L2523 1060M143 1034L173 1009M143 1034L100 1076M143 1034L184 1120M173 1009L241 984M241 984L322 985M322 985L324 1060M462 1019L495 1026M462 1019L416 1119M462 1019L541 1077M495 1026L582 1022M495 1026L541 1077M582 1022L541 1077M582 1022L584 1115M703 1008L726 963M703 1008L700 1096M703 1008L745 1068M726 963L745 1068M868 996L917 1014M868 996L868 1053M917 1014L975 1007M917 1014L868 1053M917 1014L950 1091M975 1007L1040 1008M975 1007L950 1091M1040 1008L1068 1098M1040 1008L1143 1048M1166 971L1143 1048M1166 971L1219 1059M1265 1032L1324 1022M1265 1032L1219 1059M1324 1022L1375 1016M1324 1022L1344 1113M1324 1022L1376 1061M1375 1016L1344 1113M1375 1016L1376 1061M1477 981L1557 1010M1557 1010L1516 1086M1557 1010L1530 1083M1660 993L1753 1029M1660 993L1671 1048M1753 1029L1799 972M1753 1029L1671 1048M1753 1029L1758 1056M1799 972L1758 1056M1909 1012L1935 987M1909 1012L1861 1095M1909 1012L1928 1087M1935 987L2028 1012M1935 987L1928 1087M2028 1012L2088 1007M2028 1012L2065 1108M2028 1012L2087 1119M2088 1007L2201 1019M2088 1007L2065 1108M2088 1007L2087 1119M2201 1019L2272 1037M2201 1019L2226 1070M2272 1037L2226 1070M2272 1037L2306 1076M2381 979L2413 1006M2381 979L2378 1060M2413 1006L2378 1060M2546 1030L2579 1118M2546 1030L2523 1060M-14 1030L19 1118M19 1118L-37 1060M19 1118L55 1149M19 1118L87 1161M19 1118L-21 1169M2579 1118L2523 1060M2579 1118L2539 1169M100 1076L184 1120M100 1076L55 1149M100 1076L87 1161M184 1120L245 1104M184 1120L207 1188M184 1120L267 1133M245 1104L324 1060M245 1104L207 1188M245 1104L267 1133M245 1104L344 1134M324 1060L267 1133M324 1060L344 1134M416 1119L344 1134M416 1119L457 1175M416 1119L532 1135M541 1077L584 1115M541 1077L532 1135M584 1115L532 1135M584 1115L590 1181M700 1096L745 1068M700 1096L676 1198M700 1096L776 1144M700 1096L705 1205M745 1068L776 1144M868 1053L950 1091M868 1053L855 1170M950 1091L984 1119M950 1091L1019 1129M984 1119L1068 1098M984 1119L904 1182M984 1119L1019 1129M984 1119L1053 1146M1068 1098L1143 1048M1068 1098L1019 1129M1068 1098L1053 1146M1143 1048L1219 1059M1219 1059L1187 1166M1219 1059L1243 1163M1344 1113L1376 1061M1344 1113L1358 1166M1344 1113L1430 1129M1376 1061L1358 1166M1376 1061L1430 1129M1516 1086L1530 1083M1516 1086L1430 1129M1516 1086L1560 1171M1530 1083L1560 1171M1671 1048L1758 1056M1758 1056L1833 1088M1758 1056L1747 1149M1833 1088L1861 1095M1833 1088L1838 1137M1833 1088L1855 1164M1861 1095L1928 1087M1861 1095L1838 1137M1861 1095L1855 1164M1928 1087L1957 1125M1928 1087L2008 1133M2065 1108L2087 1119M2065 1108L2008 1133M2065 1108L2115 1136M2087 1119L2008 1133M2087 1119L2115 1136M2226 1070L2306 1076M2226 1070L2115 1136M2306 1076L2378 1060M2306 1076L2307 1185M2306 1076L2342 1139M2378 1060L2422 1115M2378 1060L2342 1139M2422 1115L2342 1139M2422 1115L2460 1130M2422 1115L2405 1210M2523 1060L2460 1130M55 1149L87 1161M55 1149L-21 1169M55 1149L60 1237M2615 1149L2539 1169M87 1161L60 1237M87 1161L149 1210M207 1188L267 1133M207 1188L149 1210M207 1188L168 1229M267 1133L344 1134M457 1175L532 1135M457 1175L385 1250M457 1175L468 1270M457 1175L435 1287M532 1135L590 1181M590 1181L676 1198M590 1181L548 1271M590 1181L587 1264M676 1198L776 1144M676 1198L705 1205M676 1198L726 1267M776 1144L855 1170M776 1144L705 1205M855 1170L904 1182M855 1170L867 1269M904 1182L867 1269M904 1182L942 1261M904 1182L989 1246M1019 1129L1053 1146M1019 1129L989 1246M1053 1146L1045 1244M1053 1146L1129 1219M1187 1166L1243 1163M1187 1166L1129 1219M1187 1166L1210 1265M1187 1166L1185 1282M1243 1163L1210 1265M1358 1166L1430 1129M1358 1166L1357 1218M1430 1129L1501 1188M1501 1188L1560 1171M1501 1188L1429 1253M1501 1188L1499 1242M1501 1188L1522 1267M1560 1171L1499 1242M1560 1171L1610 1257M1660 1192L1747 1149M1660 1192L1610 1257M1660 1192L1740 1204M1660 1192L1610 1301M1747 1149L1838 1137M1747 1149L1740 1204M1838 1137L1855 1164M1855 1164L1836 1231M1855 1164L1880 1240M1957 1125L2008 1133M2008 1133L2003 1236M2226 1200L2307 1185M2226 1200L2204 1240M2226 1200L2296 1207M2226 1200L2226 1301M2226 1200L2278 1296M2307 1185L2342 1139M2307 1185L2296 1207M2307 1185L2342 1201M2342 1139L2342 1201M2460 1130L2539 1169M2460 1130L2405 1210M2539 1169L2529 1250M60 1237L-31 1250M60 1237L29 1290M60 1237L-13 1314M2620 1237L2529 1250M2620 1237L2547 1314M149 1210L168 1229M168 1229L293 1250M168 1229L123 1332M168 1229L187 1348M293 1250L385 1250M293 1250L294 1312M385 1250L468 1270M385 1250L393 1343M385 1250L435 1287M468 1270L548 1271M468 1270L435 1287M468 1270L511 1312M548 1271L587 1264M548 1271L511 1312M548 1271L612 1334M587 1264L511 1312M587 1264L612 1334M705 1205L726 1267M726 1267L670 1339M726 1267L754 1348M726 1267L774 1363M867 1269L942 1261M867 1269L872 1319M867 1269L912 1350M942 1261L989 1246M942 1261L872 1319M942 1261L912 1350M989 1246L1045 1244M1045 1244L1129 1219M1045 1244L1038 1355M1045 1244L1075 1340M1129 1219L1210 1265M1129 1219L1185 1282M1210 1265L1185 1282M1210 1265L1248 1303M1357 1218L1429 1253M1357 1218L1317 1300M1429 1253L1499 1242M1429 1253L1430 1329M1429 1253L1505 1289M1499 1242L1522 1267M1499 1242L1505 1289M1522 1267L1610 1257M1522 1267L1505 1289M1522 1267L1587 1305M1610 1257L1587 1305M1610 1257L1610 1301M1740 1204L1836 1231M1836 1231L1880 1240M1836 1231L1810 1300M1880 1240L1951 1276M1880 1240L1810 1300M1880 1240L1857 1338M1951 1276L2003 1236M1951 1276L1857 1338M1951 1276L1985 1294M1951 1276L2031 1304M2003 1236L2107 1272M2003 1236L1985 1294M2003 1236L2031 1304M2107 1272L2204 1240M2107 1272L1985 1294M2107 1272L2031 1304M2107 1272L2141 1347M2204 1240L2296 1207M2204 1240L2226 1301M2204 1240L2278 1296M2296 1207L2342 1201M2296 1207L2278 1296M2342 1201L2405 1210M2405 1210L2425 1297M2529 1250L2589 1290M2529 1250L2547 1314M-31 1250L29 1290M29 1290L123 1332M29 1290L-13 1314M29 1290L68 1386M2589 1290L2547 1314M123 1332L187 1348M123 1332L68 1386M123 1332L99 1387M187 1348L294 1312M187 1348L99 1387M187 1348L205 1437M294 1312L313 1390M393 1343L435 1287M393 1343L313 1390M393 1343L327 1423M393 1343L426 1433M435 1287L511 1312M511 1312L492 1402M612 1334L670 1339M612 1334L622 1370M612 1334L654 1438M670 1339L754 1348M670 1339L622 1370M670 1339L654 1438M754 1348L774 1363M754 1348L863 1405M872 1319L912 1350M872 1319L863 1405M872 1319L884 1406M912 1350L863 1405M912 1350L884 1406M1038 1355L1075 1340M1038 1355L1004 1436M1038 1355L1123 1431M1075 1340L1118 1433M1075 1340L1123 1431M1185 1282L1248 1303M1185 1282L1246 1373M1248 1303L1317 1300M1248 1303L1246 1373M1317 1300L1246 1373M1317 1300L1349 1379M1430 1329L1505 1289M1430 1329L1414 1390M1430 1329L1480 1427M1505 1289L1587 1305M1587 1305L1610 1301M1587 1305L1660 1365M1610 1301L1734 1336M1610 1301L1660 1365M1734 1336L1810 1300M1734 1336L1660 1365M1734 1336L1715 1431M1810 1300L1857 1338M1810 1300L1840 1412M1857 1338L1840 1412M1857 1338L1917 1424M1985 1294L2031 1304M2031 1304L2047 1414M2141 1347L2226 1301M2141 1347L2122 1426M2226 1301L2278 1296M2278 1296L2363 1353M2363 1353L2425 1297M2363 1353L2350 1388M2363 1353L2465 1401M2425 1297L2350 1388M2425 1297L2465 1401M2547 1314L2628 1386M2547 1314L2514 1393M-13 1314L68 1386M68 1386L99 1387M313 1390L327 1423M327 1423L426 1433M426 1433L492 1402M622 1370L654 1438M774 1363L863 1405M774 1363L884 1406M863 1405L884 1406M1004 1436L1118 1433M1118 1433L1123 1431M1246 1373L1349 1379M1349 1379L1414 1390M1414 1390L1480 1427M1480 1427L1547 1435M1660 1365L1715 1431M1840 1412L1917 1424M1917 1424L1989 1437M1989 1437L2047 1414M2047 1414L2122 1426M2122 1426L2232 1417M2232 1417L2272 1431M2272 1431L2350 1388M2465 1401L2514 1393"/></svg>