<svg xmlns="http://www.w3.org/2000/svg" width="2560" height="1440" fill="#fff"><circle cx="60" cy="20" r="4"/><circle cx="156" cy="58" r="5"/><circle cx="165" cy="28" r="5"/><circle cx="316" cy="62" r="6"/><circle cx="335" cy="5" r="4"/><circle cx="456" cy="62" r="6"/><circle cx="521" cy="69" r="5"/><circle cx="636" cy="17" r="5"/><circle cx="640" cy="24" r="5"/><circle cx="792" cy="34" r="5"/><circle cx="857" cy="2" r="5"/><circle cx="857" cy="1442" r="5"/><circle cx="896" cy="10" r="5"/><circle cx="975" cy="63" r="5"/><circle cx="1061" cy="61" r="4"/><circle cx="1200" cy="23" r="5"/><circle cx="1250" cy="13" r="5"/><circle cx="1329" cy="30" r="5"/><circle cx="1371" cy="41" r="6"/><circle cx="1441" cy="18" r="4"/><circle cx="1525" cy="46" r="5"/><circle cx="1641" cy="11" r="5"/><circle cx="1695" cy="49" r="5"/><circle cx="1764" cy="22" r="6"/><circle cx="1879" cy="4" r="4"/><circle cx="1879" cy="1444" r="4"/><circle cx="1966" cy="31" r="5"/><circle cx="2048" cy="18" r="5"/><circle cx="2139" cy="26" r="6"/><circle cx="2164" cy="71" r="5"/><circle cx="2300" cy="39" r="6"/><circle cx="2322" cy="23" r="5"/><circle cx="2442" cy="40" r="4"/><circle cx="2516" cy="43" r="4"/><circle cx="75" cy="114" r="5"/><circle cx="99" cy="125" r="5"/><circle cx="201" cy="144" r="5"/><circle cx="270" cy="134" r="5"/><circle cx="378" cy="148" r="5"/><circle cx="400" cy="144" r="4"/><circle cx="490" cy="83" r="6"/><circle cx="587" cy="93" r="6"/><circle cx="655" cy="92" r="5"/><circle cx="744" cy="155" r="5"/><circle cx="840" cy="142" r="6"/><circle cx="915" cy="106" r="5"/><circle cx="1016" cy="142" r="4"/><circle cx="1064" cy="109" r="4"/><circle cx="1150" cy="152" r="4"/><circle cx="1215" cy="82" r="5"/><circle cx="1288" cy="82" r="4"/><circle cx="1371" cy="82" r="5"/><circle cx="1460" cy="125" r="6"/><circle cx="1580" cy="90" r="5"/><circle cx="1643" cy="103" r="5"/><circle cx="1702" cy="125" r="5"/><circle cx="1803" cy="144" r="5"/><circle cx="1857" cy="80" r="6"/><circle cx="1944" cy="138" r="5"/><circle cx="2067" cy="145" r="5"/><circle cx="2147" cy="111" r="4"/><circle cx="2230" cy="146" r="6"/><circle cx="2294" cy="147" r="5"/><circle cx="2346" cy="131" r="5"/><circle cx="2458" cy="147" r="4"/><circle cx="2504" cy="104" r="4"/><circle cx="60" cy="232" r="5"/><circle cx="137" cy="163" r="5"/><circle cx="188" cy="239" r="6"/><circle cx="310" cy="193" r="6"/><circle cx="380" cy="178" r="5"/><circle cx="464" cy="219" r="5"/><circle cx="526" cy="172" r="5"/><circle cx="608" cy="233" r="5"/><circle cx="692" cy="214" r="5"/><circle cx="736" cy="191" r="6"/><circle cx="872" cy="201" r="5"/><circle cx="959" cy="222" r="5"/><circle cx="1021" cy="222" r="5"/><circle cx="1057" cy="220" r="5"/><circle cx="1180" cy="225" r="5"/><circle cx="1203" cy="206" r="5"/><circle cx="1335" cy="201" r="5"/><circle cx="1388" cy="235" r="4"/><circle cx="1486" cy="192" r="5"/><circle cx="1558" cy="215" r="5"/><circle cx="1616" cy="188" r="6"/><circle cx="1687" cy="212" r="5"/><circle cx="1791" cy="177" r="6"/><circle cx="1872" cy="191" r="4"/><circle cx="1932" cy="206" r="6"/><circle cx="2043" cy="185" r="6"/><circle cx="2085" cy="221" r="6"/><circle cx="2210" cy="219" r="4"/><circle cx="2310" cy="231" r="6"/><circle cx="2372" cy="220" r="5"/><circle cx="2453" cy="224" r="5"/><circle cx="2498" cy="202" r="5"/><circle cx="11" cy="279" r="5"/><circle cx="100" cy="304" r="5"/><circle cx="191" cy="249" r="4"/><circle cx="277" cy="312" r="6"/><circle cx="345" cy="310" r="5"/><circle cx="405" cy="302" r="5"/><circle cx="532" cy="298" r="6"/><circle cx="583" cy="244" r="6"/><circle cx="672" cy="264" r="4"/><circle cx="735" cy="262" r="5"/><circle cx="857" cy="259" r="4"/><circle cx="919" cy="257" r="4"/><circle cx="1012" cy="308" r="4"/><circle cx="1120" cy="310" r="5"/><circle cx="1137" cy="303" r="4"/><circle cx="1279" cy="271" r="6"/><circle cx="1292" cy="288" r="6"/><circle cx="1388" cy="284" r="5"/><circle cx="1449" cy="301" r="5"/><circle cx="1551" cy="280" r="5"/><circle cx="1636" cy="296" r="5"/><circle cx="1738" cy="310" r="4"/><circle cx="1826" cy="266" r="5"/><circle cx="1894" cy="245" r="6"/><circle cx="1947" cy="292" r="5"/><circle cx="2006" cy="290" r="6"/><circle cx="2124" cy="250" r="5"/><circle cx="2177" cy="246" r="6"/><circle cx="2252" cy="272" r="5"/><circle cx="2400" cy="313" r="5"/><circle cx="2437" cy="300" r="4"/><circle cx="2483" cy="275" r="5"/><circle cx="1" cy="356" r="6"/><circle cx="2561" cy="356" r="6"/><circle cx="100" cy="347" r="6"/><circle cx="235" cy="361" r="4"/><circle cx="308" cy="338" r="4"/><circle cx="339" cy="391" r="5"/><circle cx="458" cy="339" r="4"/><circle cx="552" cy="390" r="6"/><circle cx="583" cy="387" r="4"/><circle cx="652" cy="343" r="5"/><circle cx="749" cy="375" r="5"/><circle cx="854" cy="380" r="5"/><circle cx="940" cy="390" r="5"/><circle cx="967" cy="355" r="6"/><circle cx="1112" cy="347" r="4"/><circle cx="1151" cy="389" r="5"/><circle cx="1266" cy="355" r="5"/><circle cx="1301" cy="333" r="6"/><circle cx="1400" cy="376" r="5"/><circle cx="1442" cy="394" r="4"/><circle cx="1567" cy="327" r="4"/><circle cx="1671" cy="354" r="5"/><circle cx="1693" cy="372" r="6"/><circle cx="1838" cy="372" r="4"/><circle cx="1853" cy="342" r="4"/><circle cx="1930" cy="378" r="4"/><circle cx="2030" cy="351" r="4"/><circle cx="2157" cy="355" r="5"/><circle cx="2222" cy="333" r="5"/><circle cx="2305" cy="383" r="4"/><circle cx="2381" cy="338" r="4"/><circle cx="2471" cy="388" r="6"/><circle cx="2528" cy="352" r="5"/><circle cx="20" cy="448" r="4"/><circle cx="108" cy="468" r="5"/><circle cx="200" cy="443" r="5"/><circle cx="299" cy="406" r="6"/><circle cx="364" cy="476" r="6"/><circle cx="416" cy="452" r="5"/><circle cx="496" cy="469" r="4"/><circle cx="601" cy="418" r="5"/><circle cx="661" cy="403" r="5"/><circle cx="758" cy="416" r="6"/><circle cx="841" cy="407" r="4"/><circle cx="905" cy="417" r="4"/><circle cx="1031" cy="463" r="5"/><circle cx="1040" cy="450" r="5"/><circle cx="1161" cy="413" r="4"/><circle cx="1250" cy="423" r="4"/><circle cx="1290" cy="461" r="5"/><circle cx="1406" cy="469" r="5"/><circle cx="1467" cy="403" r="5"/><circle cx="1525" cy="467" r="6"/><circle cx="1622" cy="476" r="5"/><circle cx="1734" cy="437" r="5"/><circle cx="1799" cy="417" r="6"/><circle cx="1894" cy="458" r="6"/><circle cx="1926" cy="451" r="4"/><circle cx="2068" cy="427" r="4"/><circle cx="2123" cy="418" r="5"/><circle cx="2205" cy="444" r="6"/><circle cx="2269" cy="460" r="5"/><circle cx="2376" cy="409" r="4"/><circle cx="2470" cy="451" r="5"/><circle cx="2547" cy="470" r="5"/><circle cx="35" cy="529" r="5"/><circle cx="157" cy="526" r="5"/><circle cx="228" cy="525" r="4"/><circle cx="312" cy="487" r="4"/><circle cx="356" cy="531" r="4"/><circle cx="401" cy="538" r="5"/><circle cx="506" cy="551" r="6"/><circle cx="618" cy="502" r="5"/><circle cx="712" cy="494" r="5"/><circle cx="751" cy="518" r="4"/><circle cx="832" cy="509" r="6"/><circle cx="939" cy="522" r="5"/><circle cx="996" cy="512" r="4"/><circle cx="1050" cy="523" r="4"/><circle cx="1195" cy="512" r="5"/><circle cx="1263" cy="547" r="4"/><circle cx="1324" cy="515" r="6"/><circle cx="1407" cy="493" r="6"/><circle cx="1479" cy="496" r="5"/><circle cx="1545" cy="514" r="5"/><circle cx="1623" cy="538" r="5"/><circle cx="1708" cy="489" r="5"/><circle cx="1797" cy="512" r="4"/><circle cx="1877" cy="522" r="5"/><circle cx="1995" cy="535" r="4"/><circle cx="2078" cy="524" r="4"/><circle cx="2118" cy="527" r="6"/><circle cx="2237" cy="508" r="5"/><circle cx="2266" cy="558" r="5"/><circle cx="2398" cy="530" r="4"/><circle cx="2414" cy="522" r="4"/><circle cx="2480" cy="528" r="5"/><circle cx="21" cy="601" r="6"/><circle cx="132" cy="609" r="6"/><circle cx="192" cy="630" r="5"/><circle cx="273" cy="576" r="4"/><circle cx="373" cy="604" r="5"/><circle cx="468" cy="580" r="5"/><circle cx="532" cy="586" r="5"/><circle cx="620" cy="611" r="6"/><circle cx="681" cy="580" r="5"/><circle cx="736" cy="630" r="5"/><circle cx="823" cy="631" r="6"/><circle cx="940" cy="628" r="4"/><circle cx="1035" cy="566" r="5"/><circle cx="1107" cy="567" r="6"/><circle cx="1122" cy="579" r="6"/><circle cx="1271" cy="622" r="4"/><circle cx="1303" cy="607" r="5"/><circle cx="1430" cy="603" r="4"/><circle cx="1502" cy="596" r="5"/><circle cx="1577" cy="577" r="6"/><circle cx="1635" cy="630" r="6"/><circle cx="1754" cy="637" r="5"/><circle cx="1762" cy="578" r="4"/><circle cx="1876" cy="590" r="4"/><circle cx="1969" cy="574" r="6"/><circle cx="2016" cy="610" r="6"/><circle cx="2099" cy="587" r="5"/><circle cx="2217" cy="596" r="4"/><circle cx="2249" cy="611" r="5"/><circle cx="2388" cy="608" r="4"/><circle cx="2429" cy="599" r="4"/><circle cx="2554" cy="629" r="6"/><circle cx="60" cy="705" r="5"/><circle cx="147" cy="694" r="6"/><circle cx="194" cy="693" r="5"/><circle cx="267" cy="670" r="5"/><circle cx="369" cy="693" r="6"/><circle cx="474" cy="651" r="5"/><circle cx="508" cy="708" r="5"/><circle cx="605" cy="661" r="6"/><circle cx="705" cy="676" r="5"/><circle cx="746" cy="654" r="4"/><circle cx="802" cy="669" r="5"/><circle cx="944" cy="645" r="5"/><circle cx="999" cy="668" r="6"/><circle cx="1059" cy="666" r="4"/><circle cx="1126" cy="655" r="5"/><circle cx="1254" cy="659" r="5"/><circle cx="1291" cy="717" r="4"/><circle cx="1373" cy="693" r="5"/><circle cx="1482" cy="719" r="5"/><circle cx="1544" cy="663" r="4"/><circle cx="1648" cy="641" r="6"/><circle cx="1724" cy="654" r="6"/><circle cx="1778" cy="655" r="4"/><circle cx="1908" cy="653" r="5"/><circle cx="1953" cy="691" r="6"/><circle cx="2005" cy="651" r="6"/><circle cx="2137" cy="661" r="5"/><circle cx="2175" cy="641" r="5"/><circle cx="2281" cy="648" r="5"/><circle cx="2351" cy="643" r="6"/><circle cx="2476" cy="662" r="4"/><circle cx="2506" cy="685" r="4"/><circle cx="3" cy="779" r="5"/><circle cx="2563" cy="779" r="5"/><circle cx="144" cy="733" r="5"/><circle cx="210" cy="782" r="5"/><circle cx="270" cy="798" r="5"/><circle cx="396" cy="788" r="4"/><circle cx="471" cy="793" r="5"/><circle cx="540" cy="756" r="6"/><circle cx="614" cy="750" r="5"/><circle cx="697" cy="795" r="4"/><circle cx="766" cy="794" r="4"/><circle cx="803" cy="766" r="4"/><circle cx="922" cy="776" r="6"/><circle cx="1008" cy="784" r="4"/><circle cx="1068" cy="725" r="6"/><circle cx="1138" cy="722" r="6"/><circle cx="1227" cy="731" r="6"/><circle cx="1339" cy="763" r="6"/><circle cx="1390" cy="795" r="5"/><circle cx="1476" cy="779" r="6"/><circle cx="1563" cy="740" r="6"/><circle cx="1600" cy="782" r="5"/><circle cx="1726" cy="775" r="6"/><circle cx="1777" cy="775" r="5"/><circle cx="1882" cy="764" r="5"/><circle cx="1984" cy="759" r="6"/><circle cx="2080" cy="775" r="6"/><circle cx="2150" cy="742" r="4"/><circle cx="2178" cy="739" r="5"/><circle cx="2283" cy="729" r="5"/><circle cx="2389" cy="769" r="5"/><circle cx="2460" cy="775" r="4"/><circle cx="2540" cy="735" r="5"/><circle cx="47" cy="813" r="5"/><circle cx="112" cy="826" r="5"/><circle cx="200" cy="823" r="5"/><circle cx="247" cy="859" r="6"/><circle cx="345" cy="802" r="5"/><circle cx="477" cy="827" r="4"/><circle cx="489" cy="847" r="6"/><circle cx="581" cy="815" r="5"/><circle cx="701" cy="828" r="6"/><circle cx="794" cy="860" r="4"/><circle cx="820" cy="855" r="6"/><circle cx="910" cy="811" r="6"/><circle cx="978" cy="873" r="5"/><circle cx="1116" cy="865" r="6"/><circle cx="1169" cy="820" r="4"/><circle cx="1201" cy="813" r="6"/><circle cx="1333" cy="837" r="5"/><circle cx="1368" cy="853" r="4"/><circle cx="1493" cy="867" r="5"/><circle cx="1520" cy="874" r="5"/><circle cx="1641" cy="823" r="6"/><circle cx="1731" cy="846" r="6"/><circle cx="1834" cy="852" r="5"/><circle cx="1890" cy="822" r="6"/><circle cx="1954" cy="879" r="5"/><circle cx="2012" cy="831" r="4"/><circle cx="2086" cy="829" r="5"/><circle cx="2222" cy="845" r="6"/><circle cx="2253" cy="843" r="4"/><circle cx="2341" cy="830" r="6"/><circle cx="2418" cy="871" r="5"/><circle cx="2540" cy="866" r="5"/><circle cx="20" cy="951" r="4"/><circle cx="137" cy="934" r="5"/><circle cx="194" cy="929" r="5"/><circle cx="316" cy="898" r="4"/><circle cx="390" cy="951" r="4"/><circle cx="420" cy="930" r="5"/><circle cx="545" cy="955" r="5"/><circle cx="582" cy="959" r="4"/><circle cx="663" cy="929" r="5"/><circle cx="789" cy="921" r="5"/><circle cx="835" cy="933" r="5"/><circle cx="897" cy="895" r="6"/><circle cx="1026" cy="903" r="6"/><circle cx="1049" cy="882" r="5"/><circle cx="1174" cy="932" r="6"/><circle cx="1232" cy="952" r="6"/><circle cx="1349" cy="946" r="5"/><circle cx="1387" cy="912" r="4"/><circle cx="1495" cy="932" r="4"/><circle cx="1531" cy="960" r="6"/><circle cx="1641" cy="885" r="6"/><circle cx="1686" cy="929" r="5"/><circle cx="1783" cy="917" r="5"/><circle cx="1907" cy="904" r="6"/><circle cx="1948" cy="913" r="5"/><circle cx="2013" cy="932" r="5"/><circle cx="2135" cy="885" r="5"/><circle cx="2228" cy="883" r="5"/><circle cx="2250" cy="897" r="6"/><circle cx="2384" cy="899" r="5"/><circle cx="2465" cy="886" r="6"/><circle cx="2529" cy="934" r="5"/><circle cx="45" cy="969" r="5"/><circle cx="157" cy="1014" r="4"/><circle cx="203" cy="998" r="5"/><circle cx="279" cy="1004" r="6"/><circle cx="389" cy="1023" r="4"/><circle cx="447" cy="973" r="5"/><circle cx="507" cy="1006" r="5"/><circle cx="636" cy="1039" r="5"/><circle cx="692" cy="1006" r="4"/><circle cx="768" cy="1019" r="6"/><circle cx="871" cy="961" r="5"/><circle cx="947" cy="976" r="5"/><circle cx="1008" cy="993" r="5"/><circle cx="1071" cy="1015" r="4"/><circle cx="1158" cy="1004" r="4"/><circle cx="1255" cy="990" r="4"/><circle cx="1318" cy="1025" r="5"/><circle cx="1399" cy="1025" r="6"/><circle cx="1497" cy="1012" r="6"/><circle cx="1589" cy="971" r="6"/><circle cx="1622" cy="1013" r="6"/><circle cx="1735" cy="1027" r="6"/><circle cx="1840" cy="1000" r="6"/><circle cx="1856" cy="964" r="6"/><circle cx="1947" cy="1015" r="4"/><circle cx="2058" cy="975" r="5"/><circle cx="2114" cy="995" r="5"/><circle cx="2210" cy="988" r="6"/><circle cx="2293" cy="969" r="4"/><circle cx="2357" cy="973" r="5"/><circle cx="2464" cy="1030" r="5"/><circle cx="2488" cy="1029" r="6"/><circle cx="4" cy="1076" r="5"/><circle cx="2564" cy="1076" r="5"/><circle cx="149" cy="1079" r="5"/><circle cx="209" cy="1069" r="5"/><circle cx="316" cy="1051" r="6"/><circle cx="367" cy="1119" r="5"/><circle cx="479" cy="1092" r="5"/><circle cx="517" cy="1107" r="6"/><circle cx="570" cy="1075" r="4"/><circle cx="662" cy="1100" r="5"/><circle cx="756" cy="1075" r="5"/><circle cx="824" cy="1115" r="5"/><circle cx="914" cy="1107" r="5"/><circle cx="977" cy="1044" r="5"/><circle cx="1117" cy="1070" r="5"/><circle cx="1145" cy="1113" r="5"/><circle cx="1234" cy="1102" r="6"/><circle cx="1297" cy="1066" r="4"/><circle cx="1389" cy="1096" r="6"/><circle cx="1449" cy="1096" r="6"/><circle cx="1576" cy="1085" r="5"/><circle cx="1668" cy="1072" r="6"/><circle cx="1756" cy="1096" r="4"/><circle cx="1760" cy="1072" r="6"/><circle cx="1865" cy="1080" r="5"/><circle cx="1941" cy="1051" r="5"/><circle cx="2070" cy="1046" r="5"/><circle cx="2127" cy="1047" r="4"/><circle cx="2166" cy="1113" r="6"/><circle cx="2249" cy="1093" r="5"/><circle cx="2366" cy="1107" r="5"/><circle cx="2426" cy="1101" r="5"/><circle cx="2524" cy="1109" r="5"/><circle cx="79" cy="1123" r="6"/><circle cx="146" cy="1166" r="5"/><circle cx="219" cy="1193" r="5"/><circle cx="289" cy="1195" r="5"/><circle cx="398" cy="1174" r="5"/><circle cx="410" cy="1154" r="5"/><circle cx="526" cy="1174" r="5"/><circle cx="618" cy="1186" r="5"/><circle cx="696" cy="1133" r="4"/><circle cx="759" cy="1138" r="5"/><circle cx="839" cy="1143" r="5"/><circle cx="888" cy="1185" r="6"/><circle cx="995" cy="1123" r="5"/><circle cx="1074" cy="1180" r="4"/><circle cx="1135" cy="1126" r="5"/><circle cx="1209" cy="1171" r="6"/><circle cx="1341" cy="1158" r="4"/><circle cx="1436" cy="1192" r="5"/><circle cx="1483" cy="1151" r="5"/><circle cx="1582" cy="1188" r="4"/><circle cx="1646" cy="1172" r="4"/><circle cx="1721" cy="1172" r="4"/><circle cx="1825" cy="1125" r="4"/><circle cx="1847" cy="1155" r="6"/><circle cx="1923" cy="1128" r="5"/><circle cx="2065" cy="1188" r="5"/><circle cx="2113" cy="1145" r="5"/><circle cx="2228" cy="1132" r="5"/><circle cx="2274" cy="1174" r="5"/><circle cx="2377" cy="1189" r="6"/><circle cx="2436" cy="1159" r="5"/><circle cx="2521" cy="1124" r="5"/><circle cx="66" cy="1255" r="5"/><circle cx="115" cy="1268" r="6"/><circle cx="229" cy="1249" r="5"/><circle cx="319" cy="1272" r="6"/><circle cx="363" cy="1206" r="4"/><circle cx="429" cy="1260" r="5"/><circle cx="516" cy="1233" r="4"/><circle cx="567" cy="1226" r="5"/><circle cx="653" cy="1222" r="6"/><circle cx="754" cy="1214" r="6"/><circle cx="819" cy="1218" r="4"/><circle cx="950" cy="1264" r="6"/><circle cx="987" cy="1261" r="6"/><circle cx="1044" cy="1268" r="4"/><circle cx="1127" cy="1276" r="5"/><circle cx="1240" cy="1271" r="5"/><circle cx="1330" cy="1273" r="5"/><circle cx="1424" cy="1254" r="6"/><circle cx="1478" cy="1242" r="5"/><circle cx="1600" cy="1279" r="5"/><circle cx="1602" cy="1212" r="6"/><circle cx="1755" cy="1230" r="5"/><circle cx="1808" cy="1245" r="4"/><circle cx="1908" cy="1272" r="5"/><circle cx="1999" cy="1226" r="6"/><circle cx="2062" cy="1211" r="4"/><circle cx="2126" cy="1205" r="5"/><circle cx="2230" cy="1276" r="6"/><circle cx="2320" cy="1214" r="5"/><circle cx="2375" cy="1254" r="5"/><circle cx="2458" cy="1265" r="4"/><circle cx="2548" cy="1219" r="5"/><circle cx="73" cy="1337" r="5"/><circle cx="86" cy="1354" r="5"/><circle cx="223" cy="1359" r="4"/><circle cx="264" cy="1303" r="5"/><circle cx="378" cy="1329" r="5"/><circle cx="419" cy="1338" r="6"/><circle cx="496" cy="1358" r="6"/><circle cx="603" cy="1331" r="5"/><circle cx="647" cy="1324" r="5"/><circle cx="738" cy="1334" r="4"/><circle cx="868" cy="1336" r="4"/><circle cx="932" cy="1341" r="5"/><circle cx="1006" cy="1319" r="6"/><circle cx="1054" cy="1310" r="4"/><circle cx="1138" cy="1342" r="5"/><circle cx="1251" cy="1344" r="6"/><circle cx="1320" cy="1355" r="5"/><circle cx="1405" cy="1339" r="6"/><circle cx="1476" cy="1294" r="6"/><circle cx="1577" cy="1359" r="6"/><circle cx="1651" cy="1288" r="4"/><circle cx="1694" cy="1336" r="5"/><circle cx="1771" cy="1289" r="5"/><circle cx="1913" cy="1315" r="5"/><circle cx="1999" cy="1284" r="5"/><circle cx="2007" cy="1356" r="5"/><circle cx="2144" cy="1350" r="6"/><circle cx="2184" cy="1285" r="6"/><circle cx="2265" cy="1317" r="5"/><circle cx="2369" cy="1336" r="5"/><circle cx="2418" cy="1309" r="5"/><circle cx="2515" cy="1303" r="6"/><circle cx="63" cy="1410" r="6"/><circle cx="110" cy="1391" r="4"/><circle cx="216" cy="1395" r="4"/><circle cx="272" cy="1378" r="5"/><circle cx="364" cy="1393" r="5"/><circle cx="433" cy="1393" r="5"/><circle cx="542" cy="1433" r="4"/><circle cx="584" cy="1394" r="5"/><circle cx="702" cy="1389" r="5"/><circle cx="729" cy="1409" r="5"/><circle cx="848" cy="1411" r="4"/><circle cx="914" cy="1432" r="6"/><circle cx="1020" cy="1425" r="6"/><circle cx="1043" cy="1383" r="6"/><circle cx="1186" cy="1427" r="6"/><circle cx="1235" cy="1396" r="6"/><circle cx="1334" cy="1420" r="4"/><circle cx="1401" cy="1427" r="5"/><circle cx="1446" cy="1426" r="4"/><circle cx="1529" cy="1417" r="5"/><circle cx="1659" cy="1433" r="6"/><circle cx="1734" cy="1407" r="5"/><circle cx="1769" cy="1397" r="5"/><circle cx="1868" cy="1404" r="4"/><circle cx="1938" cy="1414" r="6"/><circle cx="2016" cy="1376" r="5"/><circle cx="2151" cy="1387" r="4"/><circle cx="2185" cy="1388" r="4"/><circle cx="2271" cy="1408" r="5"/><circle cx="2342" cy="1425" r="4"/><circle cx="2463" cy="1417" r="4"/><circle cx="2539" cy="1400" r="5"/><path stroke="#fff" d="M60 20L165 28M60 20L75 114M60 20L63 -30M60 20L110 -49M60 20L-21 -40M2620 20L2539 -40M60 1460L63 1410M60 1460L110 1391M60 1460L-21 1400M2620 1460L2539 1400M156 58L165 28M156 58L75 114M156 58L99 125M156 58L201 144M165 28L110 -49M165 28L216 -45M165 1468L110 1391M165 1468L216 1395M316 62L335 5M316 62L270 134M316 62L378 148M335 5L272 -62M335 5L364 -47M335 1445L272 1378M335 1445L364 1393M456 62L521 69M456 62L378 148M456 62L400 144M456 62L490 83M456 62L433 -47M456 1502L433 1393M521 69L490 83M521 69L587 93M521 69L526 172M521 69L542 -7M521 1509L542 1433M636 17L640 24M636 17L587 93M636 17L655 92M636 17L584 -46M636 17L702 -51M636 1457L584 1394M636 1457L702 1389M640 24L587 93M640 24L655 92M640 24L584 -46M640 24L702 -51M640 1464L584 1394M640 1464L702 1389M792 34L857 2M792 34L840 142M792 34L729 -31M792 34L848 -29M792 1474L729 1409M792 1474L848 1411M857 2L896 10M857 2L868 -104M857 2L848 -29M857 2L914 -8M857 1442L868 1336M857 1442L848 1411M857 1442L914 1432M896 10L975 63M896 10L915 106M896 10L848 -29M896 10L914 -8M896 1450L848 1411M896 1450L914 1432M975 63L1061 61M975 63L915 106M975 63L914 -8M975 63L1020 -15M975 1503L914 1432M975 1503L1020 1425M1061 61L1016 142M1061 61L1064 109M1061 61L1020 -15M1061 61L1043 -57M1061 1501L1020 1425M1061 1501L1043 1383M1200 23L1250 13M1200 23L1215 82M1200 23L1288 82M1200 23L1186 -13M1200 23L1235 -44M1200 1463L1186 1427M1200 1463L1235 1396M1250 13L1329 30M1250 13L1215 82M1250 13L1186 -13M1250 13L1235 -44M1250 1453L1186 1427M1250 1453L1235 1396M1329 30L1371 41M1329 30L1288 82M1329 30L1371 82M1329 30L1334 -20M1329 1470L1334 1420M1371 41L1441 18M1371 41L1371 82M1371 41L1334 -20M1371 41L1401 -13M1371 1481L1334 1420M1371 1481L1401 1427M1441 18L1525 46M1441 18L1371 82M1441 18L1401 -13M1441 18L1446 -14M1441 1458L1401 1427M1441 1458L1446 1426M1525 46L1460 125M1525 46L1580 90M1525 46L1446 -14M1525 46L1529 -23M1525 1486L1446 1426M1525 1486L1529 1417M1641 11L1695 49M1641 11L1580 90M1641 11L1643 103M1641 11L1577 -81M1641 11L1659 -7M1641 1451L1577 1359M1641 1451L1659 1433M1695 49L1764 22M1695 49L1643 103M1695 49L1702 125M1695 49L1659 -7M1695 1489L1659 1433M1764 22L1857 80M1764 22L1659 -7M1764 22L1734 -33M1764 22L1769 -43M1764 1462L1659 1433M1764 1462L1734 1407M1764 1462L1769 1397M1879 4L1966 31M1879 4L1857 80M1879 4L1868 -36M1879 4L1938 -26M1879 1444L1868 1404M1879 1444L1938 1414M1966 31L2048 18M1966 31L1944 138M1966 31L1938 -26M1966 31L2016 -64M1966 1471L1938 1414M1966 1471L2016 1376M2048 18L2139 26M2048 18L2007 -84M2048 18L2016 -64M2048 1458L2007 1356M2048 1458L2016 1376M2139 26L2164 71M2139 26L2147 111M2139 26L2151 -53M2139 26L2185 -52M2139 1466L2151 1387M2139 1466L2185 1388M2164 71L2067 145M2164 71L2147 111M2164 71L2230 146M2300 39L2322 23M2300 39L2294 147M2300 39L2346 131M2300 39L2271 -32M2300 39L2342 -15M2300 1479L2271 1408M2300 1479L2342 1425M2322 23L2346 131M2322 23L2271 -32M2322 23L2342 -15M2322 1463L2271 1408M2322 1463L2342 1425M2442 40L2516 43M2442 40L2458 147M2442 40L2504 104M2442 40L2463 -23M2442 1480L2463 1417M2516 43L2504 104M2516 43L2463 -23M2516 43L2539 -40M2516 1483L2463 1417M2516 1483L2539 1400M75 114L99 125M75 114L137 163M99 125L201 144M99 125L60 232M99 125L137 163M201 144L270 134M201 144L137 163M201 144L188 239M270 134L310 193M270 134L380 178M378 148L400 144M378 148L310 193M378 148L380 178M400 144L310 193M400 144L380 178M400 144L464 219M490 83L587 93M490 83L526 172M490 83L542 -7M490 1523L542 1433M587 93L655 92M655 92L744 155M744 155L840 142M744 155L692 214M744 155L736 191M744 155L735 262M840 142L915 106M840 142L736 191M840 142L872 201M915 106L872 201M1016 142L1064 109M1016 142L959 222M1016 142L1021 222M1016 142L1057 220M1064 109L1150 152M1150 152L1215 82M1150 152L1180 225M1150 152L1203 206M1215 82L1288 82M1288 82L1371 82M1371 82L1460 125M1460 125L1580 90M1460 125L1486 192M1580 90L1643 103M1580 90L1616 188M1643 103L1702 125M1643 103L1616 188M1702 125L1687 212M1702 125L1791 177M1803 144L1857 80M1803 144L1791 177M1803 144L1872 191M1857 80L1944 138M1857 80L1791 177M1944 138L1932 206M1944 138L2043 185M2067 145L2147 111M2067 145L2043 185M2067 145L2085 221M2147 111L2230 146M2230 146L2294 147M2230 146L2210 219M2294 147L2346 131M2294 147L2310 231M2294 147L2372 220M2346 131L2310 231M2346 131L2372 220M2458 147L2504 104M2458 147L2453 224M2458 147L2498 202M2504 104L2498 202M60 232L137 163M60 232L11 279M60 232L100 304M60 232L100 347M137 163L188 239M188 239L100 304M188 239L191 249M310 193L380 178M380 178L464 219M464 219L526 172M464 219L405 302M464 219L532 298M526 172L608 233M526 172L583 244M608 233L692 214M608 233L532 298M608 233L583 244M608 233L672 264M692 214L736 191M692 214L672 264M692 214L735 262M736 191L735 262M872 201L959 222M872 201L857 259M872 201L919 257M959 222L1021 222M959 222L1057 220M959 222L919 257M1021 222L1057 220M1021 222L919 257M1021 222L1012 308M1057 220L1012 308M1057 220L1120 310M1180 225L1203 206M1180 225L1120 310M1180 225L1137 303M1203 206L1137 303M1203 206L1279 271M1335 201L1388 235M1335 201L1279 271M1335 201L1292 288M1388 235L1486 192M1388 235L1388 284M1388 235L1449 301M1486 192L1558 215M1558 215L1616 188M1558 215L1551 280M1558 215L1567 327M1616 188L1687 212M1616 188L1551 280M1687 212L1636 296M1687 212L1738 310M1791 177L1872 191M1791 177L1826 266M1872 191L1932 206M1872 191L1826 266M1872 191L1894 245M1932 206L1894 245M1932 206L1947 292M1932 206L2006 290M2043 185L2085 221M2043 185L2006 290M2043 185L2124 250M2085 221L2006 290M2085 221L2124 250M2085 221L2177 246M2210 219L2310 231M2210 219L2124 250M2210 219L2177 246M2210 219L2252 272M2310 231L2372 220M2310 231L2252 272M2372 220L2453 224M2372 220L2400 313M2453 224L2498 202M2453 224L2437 300M2453 224L2483 275M2498 202L2483 275M11 279L100 304M11 279L-77 275M11 279L1 356M11 279L-32 352M2571 279L2483 275M2571 279L2528 352M100 304L100 347M277 312L345 310M277 312L235 361M277 312L308 338M277 312L339 391M345 310L405 302M345 310L308 338M345 310L339 391M405 302L458 339M532 298L583 244M532 298L458 339M532 298L552 390M583 244L672 264M672 264L735 262M672 264L652 343M857 259L919 257M919 257L967 355M1012 308L967 355M1120 310L1137 303M1120 310L1112 347M1120 310L1151 389M1137 303L1112 347M1137 303L1151 389M1279 271L1292 288M1279 271L1266 355M1279 271L1301 333M1292 288L1388 284M1292 288L1266 355M1292 288L1301 333M1388 284L1449 301M1388 284L1301 333M1388 284L1400 376M1449 301L1551 280M1449 301L1400 376M1449 301L1442 394M1551 280L1636 296M1551 280L1567 327M1636 296L1567 327M1636 296L1671 354M1636 296L1693 372M1738 310L1826 266M1738 310L1671 354M1738 310L1693 372M1826 266L1894 245M1826 266L1853 342M1894 245L1947 292M1947 292L2006 290M1947 292L1930 378M1947 292L2030 351M2006 290L2030 351M2124 250L2177 246M2124 250L2157 355M2177 246L2252 272M2177 246L2222 333M2252 272L2222 333M2400 313L2437 300M2400 313L2381 338M2400 313L2471 388M2437 300L2483 275M2437 300L2381 338M2483 275L2528 352M1 356L100 347M1 356L-89 388M1 356L-32 352M1 356L20 448M2561 356L2471 388M2561 356L2528 352M100 347L108 468M235 361L308 338M235 361L200 443M235 361L299 406M308 338L339 391M308 338L299 406M339 391L299 406M552 390L583 387M552 390L496 469M552 390L601 418M583 387L652 343M583 387L601 418M583 387L661 403M652 343L749 375M652 343L601 418M652 343L661 403M749 375L854 380M749 375L661 403M749 375L758 416M749 375L841 407M854 380L940 390M854 380L758 416M854 380L841 407M854 380L905 417M940 390L967 355M940 390L905 417M967 355L905 417M1112 347L1151 389M1112 347L1161 413M1151 389L1161 413M1151 389L1250 423M1266 355L1301 333M1266 355L1250 423M1266 355L1290 461M1400 376L1442 394M1400 376L1406 469M1400 376L1467 403M1442 394L1406 469M1442 394L1467 403M1442 394L1407 493M1567 327L1671 354M1671 354L1693 372M1671 354L1734 437M1693 372L1734 437M1838 372L1853 342M1838 372L1930 378M1838 372L1799 417M1838 372L1894 458M1853 342L1930 378M1853 342L1799 417M1930 378L1894 458M1930 378L1926 451M2030 351L2068 427M2030 351L2123 418M2157 355L2222 333M2157 355L2068 427M2157 355L2123 418M2157 355L2205 444M2222 333L2305 383M2305 383L2381 338M2305 383L2269 460M2305 383L2376 409M2381 338L2376 409M2471 388L2528 352M2471 388L2376 409M2471 388L2470 451M2528 352L2580 448M-32 352L20 448M20 448L108 468M20 448L-13 470M20 448L35 529M2580 448L2547 470M108 468L200 443M108 468L35 529M108 468L157 526M200 443L157 526M200 443L228 525M299 406L364 476M299 406L312 487M364 476L416 452M364 476L312 487M364 476L356 531M364 476L401 538M416 452L496 469M416 452L356 531M416 452L401 538M496 469L506 551M601 418L661 403M601 418L618 502M661 403L758 416M758 416L841 407M758 416L712 494M841 407L905 417M841 407L832 509M1031 463L1040 450M1031 463L939 522M1031 463L996 512M1031 463L1050 523M1031 463L1035 566M1040 450L996 512M1040 450L1050 523M1161 413L1250 423M1250 423L1290 461M1250 423L1195 512M1290 461L1195 512M1290 461L1263 547M1290 461L1324 515M1406 469L1324 515M1406 469L1407 493M1406 469L1479 496M1467 403L1525 467M1467 403L1407 493M1467 403L1479 496M1525 467L1622 476M1525 467L1479 496M1525 467L1545 514M1622 476L1545 514M1622 476L1623 538M1622 476L1708 489M1734 437L1799 417M1734 437L1708 489M1734 437L1797 512M1799 417L1894 458M1799 417L1797 512M1894 458L1926 451M1894 458L1877 522M1926 451L1877 522M2068 427L2123 418M2068 427L2078 524M2068 427L2118 527M2123 418L2205 444M2123 418L2118 527M2205 444L2269 460M2205 444L2118 527M2205 444L2237 508M2269 460L2376 409M2269 460L2237 508M2269 460L2266 558M2376 409L2470 451M2470 451L2547 470M2470 451L2414 522M2470 451L2480 528M2547 470L2595 529M2547 470L2480 528M-13 470L35 529M35 529L21 601M35 529L-6 629M2595 529L2554 629M157 526L228 525M157 526L132 609M228 525L312 487M228 525L273 576M312 487L356 531M356 531L401 538M356 531L373 604M401 538L373 604M401 538L468 580M506 551L468 580M506 551L532 586M506 551L474 651M618 502L712 494M618 502L620 611M712 494L751 518M712 494L832 509M712 494L681 580M751 518L832 509M751 518L681 580M832 509L939 522M832 509L823 631M939 522L996 512M939 522L940 628M996 512L1050 523M996 512L1035 566M1050 523L1035 566M1050 523L1107 567M1195 512L1263 547M1195 512L1107 567M1195 512L1122 579M1263 547L1324 515M1263 547L1271 622M1263 547L1303 607M1324 515L1407 493M1324 515L1303 607M1407 493L1479 496M1479 496L1545 514M1545 514L1623 538M1545 514L1577 577M1623 538L1708 489M1623 538L1577 577M1623 538L1635 630M1708 489L1797 512M1708 489L1762 578M1797 512L1877 522M1797 512L1762 578M1877 522L1876 590M1995 535L2078 524M1995 535L1969 574M1995 535L2016 610M2078 524L2118 527M2078 524L2099 587M2118 527L2099 587M2237 508L2266 558M2237 508L2217 596M2266 558L2217 596M2266 558L2249 611M2266 558L2281 648M2398 530L2414 522M2398 530L2480 528M2398 530L2388 608M2398 530L2429 599M2414 522L2480 528M2414 522L2388 608M2414 522L2429 599M21 601L132 609M21 601L-6 629M21 601L-54 685M2581 601L2554 629M2581 601L2506 685M132 609L192 630M132 609L147 694M192 630L273 576M192 630L147 694M192 630L194 693M192 630L267 670M273 576L373 604M273 576L267 670M373 604L468 580M373 604L369 693M468 580L532 586M468 580L474 651M532 586L620 611M532 586L474 651M532 586L605 661M620 611L681 580M620 611L605 661M681 580L736 630M681 580L705 676M736 630L823 631M736 630L705 676M736 630L746 654M736 630L802 669M823 631L746 654M823 631L802 669M823 631L944 645M940 628L944 645M940 628L999 668M1035 566L1107 567M1035 566L1122 579M1107 567L1122 579M1107 567L1126 655M1122 579L1059 666M1122 579L1126 655M1271 622L1303 607M1271 622L1254 659M1271 622L1291 717M1303 607L1254 659M1303 607L1373 693M1430 603L1502 596M1502 596L1577 577M1502 596L1544 663M1577 577L1635 630M1577 577L1648 641M1635 630L1544 663M1635 630L1648 641M1635 630L1724 654M1754 637L1762 578M1754 637L1648 641M1754 637L1724 654M1754 637L1778 655M1762 578L1724 654M1762 578L1778 655M1876 590L1969 574M1876 590L1908 653M1969 574L2016 610M1969 574L1908 653M1969 574L2005 651M2016 610L2099 587M2016 610L1953 691M2016 610L2005 651M2099 587L2137 661M2099 587L2175 641M2217 596L2249 611M2217 596L2175 641M2217 596L2281 648M2249 611L2175 641M2249 611L2281 648M2249 611L2351 643M2388 608L2429 599M2388 608L2351 643M2388 608L2476 662M2429 599L2351 643M2429 599L2476 662M2554 629L2620 705M2554 629L2476 662M2554 629L2506 685M-6 629L60 705M60 705L147 694M60 705L3 779M60 705L144 733M60 705L-20 735M2620 705L2540 735M147 694L194 693M147 694L144 733M194 693L267 670M194 693L144 733M194 693L210 782M267 670L369 693M369 693L474 651M369 693L396 788M369 693L345 802M474 651L508 708M508 708L605 661M508 708L471 793M508 708L540 756M605 661L705 676M605 661L614 750M705 676L746 654M705 676L802 669M746 654L802 669M802 669L803 766M944 645L999 668M999 668L1059 666M999 668L1068 725M1059 666L1126 655M1059 666L1068 725M1059 666L1138 722M1126 655L1068 725M1126 655L1138 722M1254 659L1291 717M1254 659L1227 731M1291 717L1373 693M1291 717L1227 731M1291 717L1339 763M1373 693L1482 719M1373 693L1339 763M1373 693L1390 795M1482 719L1544 663M1482 719L1476 779M1482 719L1563 740M1544 663L1648 641M1544 663L1563 740M1648 641L1724 654M1724 654L1778 655M1908 653L1953 691M1908 653L2005 651M1953 691L2005 651M1953 691L1882 764M1953 691L1984 759M2005 651L1984 759M2137 661L2175 641M2137 661L2150 742M2137 661L2178 739M2175 641L2178 739M2281 648L2351 643M2281 648L2283 729M2351 643L2283 729M2476 662L2506 685M2506 685L2460 775M2506 685L2540 735M3 779L-100 775M3 779L-20 735M3 779L47 813M3 779L-20 866M2563 779L2460 775M2563 779L2540 735M2563 779L2540 866M144 733L210 782M144 733L112 826M210 782L270 798M210 782L200 823M210 782L247 859M270 798L200 823M270 798L247 859M270 798L345 802M396 788L471 793M396 788L345 802M396 788L477 827M471 793L540 756M471 793L477 827M471 793L489 847M540 756L614 750M540 756L489 847M540 756L581 815M614 750L697 795M614 750L581 815M697 795L766 794M697 795L701 828M766 794L803 766M766 794L701 828M766 794L794 860M766 794L820 855M803 766L910 811M922 776L1008 784M922 776L910 811M1008 784L1068 725M1008 784L910 811M1008 784L978 873M1008 784L1049 882M1068 725L1138 722M1138 722L1227 731M1138 722L1201 813M1227 731L1201 813M1339 763L1390 795M1339 763L1333 837M1339 763L1368 853M1390 795L1476 779M1390 795L1333 837M1390 795L1368 853M1476 779L1563 740M1476 779L1493 867M1476 779L1520 874M1563 740L1600 782M1563 740L1641 823M1600 782L1726 775M1600 782L1641 823M1600 782L1641 885M1726 775L1777 775M1726 775L1641 823M1726 775L1731 846M1777 775L1882 764M1777 775L1731 846M1777 775L1834 852M1882 764L1984 759M1882 764L1834 852M1882 764L1890 822M1984 759L2080 775M1984 759L2012 831M2080 775L2150 742M2080 775L2178 739M2080 775L2012 831M2080 775L2086 829M2150 742L2178 739M2150 742L2086 829M2178 739L2283 729M2283 729L2389 769M2389 769L2460 775M2389 769L2341 830M2389 769L2418 871M2460 775L2540 735M2460 775L2465 886M2540 735L2607 813M-20 735L47 813M47 813L112 826M47 813L-20 866M2607 813L2540 866M112 826L200 823M112 826L137 934M200 823L247 859M247 859L194 929M247 859L316 898M345 802L316 898M477 827L489 847M477 827L581 815M489 847L581 815M489 847L420 930M701 828L794 860M701 828L663 929M794 860L820 855M794 860L789 921M794 860L835 933M820 855L789 921M820 855L835 933M820 855L897 895M910 811L978 873M910 811L897 895M978 873L897 895M978 873L1026 903M978 873L1049 882M1116 865L1169 820M1116 865L1201 813M1116 865L1026 903M1116 865L1049 882M1116 865L1174 932M1169 820L1201 813M1201 813L1174 932M1333 837L1368 853M1333 837L1387 912M1368 853L1349 946M1368 853L1387 912M1493 867L1520 874M1493 867L1387 912M1493 867L1495 932M1520 874L1495 932M1520 874L1531 960M1641 823L1731 846M1641 823L1641 885M1731 846L1641 885M1731 846L1783 917M1834 852L1890 822M1834 852L1783 917M1834 852L1907 904M1890 822L1954 879M1890 822L1907 904M1890 822L1948 913M1954 879L2012 831M1954 879L1907 904M1954 879L1948 913M1954 879L2013 932M2012 831L2086 829M2086 829L2135 885M2222 845L2253 843M2222 845L2135 885M2222 845L2228 883M2222 845L2250 897M2253 843L2341 830M2253 843L2228 883M2253 843L2250 897M2341 830L2418 871M2341 830L2384 899M2418 871L2384 899M2418 871L2465 886M2418 871L2357 973M2540 866L2580 951M2540 866L2465 886M2540 866L2529 934M-20 866L20 951M20 951L-31 934M20 951L45 969M2580 951L2529 934M137 934L194 929M137 934L45 969M137 934L157 1014M137 934L203 998M194 929L157 1014M194 929L203 998M194 929L279 1004M316 898L390 951M316 898L279 1004M390 951L420 930M390 951L389 1023M390 951L447 973M420 930L389 1023M420 930L447 973M545 955L582 959M545 955L663 929M545 955L447 973M545 955L507 1006M582 959L663 929M582 959L507 1006M582 959L636 1039M663 929L636 1039M663 929L692 1006M789 921L835 933M789 921L768 1019M789 921L871 961M835 933L897 895M835 933L871 961M897 895L871 961M1026 903L1049 882M1026 903L947 976M1026 903L1008 993M1049 882L1008 993M1174 932L1232 952M1174 932L1158 1004M1174 932L1255 990M1232 952L1349 946M1232 952L1158 1004M1232 952L1255 990M1349 946L1387 912M1349 946L1318 1025M1349 946L1399 1025M1495 932L1531 960M1495 932L1497 1012M1531 960L1497 1012M1531 960L1589 971M1531 960L1622 1013M1641 885L1686 929M1641 885L1589 971M1686 929L1783 917M1686 929L1589 971M1686 929L1622 1013M1686 929L1735 1027M1783 917L1840 1000M1783 917L1856 964M1907 904L1948 913M1907 904L1856 964M1948 913L2013 932M1948 913L1856 964M2013 932L1947 1015M2013 932L2058 975M2135 885L2228 883M2135 885L2114 995M2228 883L2250 897M2228 883L2210 988M2250 897L2210 988M2250 897L2293 969M2384 899L2465 886M2384 899L2293 969M2384 899L2357 973M2465 886L2529 934M2529 934L2605 969M-31 934L45 969M157 1014L203 998M157 1014L149 1079M157 1014L209 1069M203 998L279 1004M203 998L209 1069M279 1004L209 1069M279 1004L316 1051M389 1023L447 973M389 1023L316 1051M389 1023L367 1119M447 973L507 1006M507 1006L479 1092M507 1006L517 1107M636 1039L692 1006M636 1039L570 1075M636 1039L662 1100M692 1006L768 1019M768 1019L871 961M768 1019L756 1075M871 961L947 976M947 976L1008 993M947 976L977 1044M1008 993L1071 1015M1008 993L977 1044M1071 1015L1158 1004M1071 1015L977 1044M1071 1015L1117 1070M1158 1004L1255 990M1158 1004L1117 1070M1255 990L1318 1025M1255 990L1297 1066M1318 1025L1399 1025M1318 1025L1297 1066M1318 1025L1389 1096M1399 1025L1497 1012M1399 1025L1389 1096M1399 1025L1449 1096M1497 1012L1589 971M1497 1012L1449 1096M1589 971L1622 1013M1622 1013L1576 1085M1622 1013L1668 1072M1735 1027L1840 1000M1735 1027L1668 1072M1735 1027L1756 1096M1735 1027L1760 1072M1840 1000L1856 964M1840 1000L1760 1072M1840 1000L1865 1080M1856 964L1947 1015M1947 1015L2058 975M1947 1015L1941 1051M2058 975L2114 995M2058 975L2070 1046M2114 995L2210 988M2114 995L2070 1046M2114 995L2127 1047M2210 988L2293 969M2210 988L2127 1047M2293 969L2357 973M2464 1030L2488 1029M2464 1030L2564 1076M2464 1030L2426 1101M2464 1030L2524 1109M-96 1030L4 1076M2488 1029L2564 1076M2488 1029L2426 1101M2488 1029L2524 1109M2488 1029L2521 1124M-72 1029L4 1076M4 1076L-36 1109M4 1076L79 1123M4 1076L-39 1124M2564 1076L2524 1109M2564 1076L2521 1124M149 1079L209 1069M149 1079L79 1123M149 1079L146 1166M209 1069L316 1051M316 1051L367 1119M367 1119L398 1174M367 1119L410 1154M479 1092L517 1107M479 1092L570 1075M479 1092L410 1154M479 1092L526 1174M517 1107L570 1075M517 1107L526 1174M570 1075L662 1100M662 1100L756 1075M662 1100L618 1186M662 1100L696 1133M756 1075L824 1115M756 1075L696 1133M756 1075L759 1138M824 1115L914 1107M824 1115L759 1138M824 1115L839 1143M824 1115L888 1185M914 1107L977 1044M914 1107L839 1143M914 1107L888 1185M914 1107L995 1123M977 1044L995 1123M1117 1070L1145 1113M1117 1070L1234 1102M1117 1070L1135 1126M1145 1113L1234 1102M1145 1113L1074 1180M1145 1113L1135 1126M1145 1113L1209 1171M1234 1102L1297 1066M1234 1102L1135 1126M1234 1102L1209 1171M1297 1066L1389 1096M1297 1066L1341 1158M1389 1096L1449 1096M1389 1096L1341 1158M1449 1096L1436 1192M1449 1096L1483 1151M1576 1085L1668 1072M1576 1085L1582 1188M1576 1085L1646 1172M1668 1072L1756 1096M1668 1072L1760 1072M1756 1096L1760 1072M1756 1096L1721 1172M1756 1096L1825 1125M1760 1072L1825 1125M1865 1080L1941 1051M1865 1080L1825 1125M1865 1080L1847 1155M1865 1080L1923 1128M1941 1051L1923 1128M2070 1046L2127 1047M2127 1047L2166 1113M2127 1047L2113 1145M2166 1113L2249 1093M2166 1113L2113 1145M2166 1113L2228 1132M2166 1113L2126 1205M2249 1093L2366 1107M2249 1093L2228 1132M2249 1093L2274 1174M2366 1107L2426 1101M2366 1107L2377 1189M2366 1107L2436 1159M2366 1107L2320 1214M2426 1101L2377 1189M2426 1101L2436 1159M2524 1109L2436 1159M2524 1109L2521 1124M79 1123L146 1166M146 1166L219 1193M146 1166L115 1268M219 1193L289 1195M219 1193L229 1249M289 1195L398 1174M289 1195L229 1249M289 1195L319 1272M289 1195L363 1206M398 1174L410 1154M398 1174L363 1206M398 1174L429 1260M410 1154L363 1206M526 1174L618 1186M526 1174L516 1233M526 1174L567 1226M618 1186L567 1226M618 1186L653 1222M696 1133L759 1138M696 1133L653 1222M696 1133L754 1214M759 1138L839 1143M759 1138L754 1214M839 1143L888 1185M839 1143L819 1218M888 1185L819 1218M888 1185L950 1264M995 1123L1074 1180M1074 1180L1135 1126M1135 1126L1209 1171M1209 1171L1240 1271M1436 1192L1483 1151M1436 1192L1424 1254M1436 1192L1478 1242M1436 1192L1476 1294M1483 1151L1582 1188M1483 1151L1478 1242M1582 1188L1646 1172M1582 1188L1600 1279M1582 1188L1602 1212M1646 1172L1721 1172M1646 1172L1602 1212M1721 1172L1602 1212M1721 1172L1755 1230M1825 1125L1847 1155M1825 1125L1923 1128M1847 1155L1923 1128M1847 1155L1755 1230M1847 1155L1808 1245M2065 1188L2113 1145M2065 1188L1999 1226M2065 1188L2062 1211M2065 1188L2126 1205M2113 1145L2062 1211M2113 1145L2126 1205M2228 1132L2274 1174M2274 1174L2230 1276M2274 1174L2320 1214M2377 1189L2436 1159M2377 1189L2320 1214M2377 1189L2375 1254M2436 1159L2521 1124M2521 1124L2548 1219M66 1255L115 1268M66 1255L-12 1219M66 1255L73 1337M66 1255L86 1354M66 1255L-45 1303M2626 1255L2548 1219M2626 1255L2515 1303M115 1268L229 1249M115 1268L73 1337M115 1268L86 1354M229 1249L319 1272M229 1249L264 1303M319 1272L363 1206M319 1272L264 1303M319 1272L378 1329M363 1206L429 1260M429 1260L516 1233M429 1260L378 1329M429 1260L419 1338M516 1233L567 1226M567 1226L653 1222M567 1226L603 1331M653 1222L754 1214M653 1222L647 1324M754 1214L819 1218M754 1214L738 1334M950 1264L987 1261M950 1264L1044 1268M950 1264L932 1341M950 1264L1006 1319M987 1261L1044 1268M987 1261L932 1341M987 1261L1006 1319M987 1261L1054 1310M1044 1268L1127 1276M1044 1268L1006 1319M1044 1268L1054 1310M1127 1276L1240 1271M1127 1276L1054 1310M1127 1276L1138 1342M1240 1271L1330 1273M1240 1271L1251 1344M1330 1273L1424 1254M1330 1273L1251 1344M1330 1273L1320 1355M1330 1273L1405 1339M1424 1254L1478 1242M1424 1254L1405 1339M1424 1254L1476 1294M1478 1242L1476 1294M1600 1279L1602 1212M1600 1279L1577 1359M1600 1279L1651 1288M1602 1212L1651 1288M1755 1230L1808 1245M1755 1230L1771 1289M1808 1245L1908 1272M1808 1245L1771 1289M1908 1272L1999 1226M1908 1272L1913 1315M1908 1272L1999 1284M1999 1226L2062 1211M1999 1226L1999 1284M2062 1211L2126 1205M2126 1205L2184 1285M2230 1276L2320 1214M2230 1276L2144 1350M2230 1276L2184 1285M2230 1276L2265 1317M2320 1214L2375 1254M2375 1254L2458 1265M2375 1254L2369 1336M2375 1254L2418 1309M2458 1265L2548 1219M2458 1265L2369 1336M2458 1265L2418 1309M2458 1265L2515 1303M2548 1219L2515 1303M73 1337L86 1354M73 1337L63 1410M73 1337L110 1391M86 1354L63 1410M86 1354L110 1391M223 1359L264 1303M223 1359L216 1395M223 1359L272 1378M264 1303L216 1395M264 1303L272 1378M378 1329L419 1338M378 1329L364 1393M378 1329L433 1393M419 1338L496 1358M419 1338L364 1393M419 1338L433 1393M496 1358L603 1331M496 1358L433 1393M496 1358L542 1433M496 1358L584 1394M603 1331L647 1324M603 1331L584 1394M647 1324L738 1334M647 1324L702 1389M738 1334L702 1389M738 1334L729 1409M868 1336L932 1341M868 1336L848 1411M932 1341L914 1432M1006 1319L1054 1310M1006 1319L1043 1383M1054 1310L1043 1383M1138 1342L1043 1383M1138 1342L1186 1427M1251 1344L1320 1355M1251 1344L1186 1427M1251 1344L1235 1396M1320 1355L1405 1339M1320 1355L1235 1396M1320 1355L1334 1420M1405 1339L1476 1294M1405 1339L1401 1427M1577 1359L1651 1288M1577 1359L1529 1417M1577 1359L1659 1433M1651 1288L1694 1336M1651 1288L1771 1289M1694 1336L1771 1289M1694 1336L1734 1407M1694 1336L1769 1397M1771 1289L1769 1397M1913 1315L1999 1284M1913 1315L2007 1356M1913 1315L1868 1404M1999 1284L2007 1356M1999 1284L2016 1376M2007 1356L1938 1414M2007 1356L2016 1376M2144 1350L2184 1285M2144 1350L2151 1387M2144 1350L2185 1388M2184 1285L2265 1317M2184 1285L2185 1388M2265 1317L2369 1336M2265 1317L2271 1408M2369 1336L2418 1309M2369 1336L2342 1425M2418 1309L2515 1303M2418 1309L2463 1417M2515 1303L2539 1400M63 1410L110 1391M63 1410L-21 1400M2623 1410L2539 1400M216 1395L272 1378M272 1378L364 1393M364 1393L433 1393M542 1433L584 1394M702 1389L729 1409M848 1411L914 1432M1020 1425L1043 1383M1186 1427L1235 1396M1334 1420L1401 1427M1334 1420L1446 1426M1401 1427L1446 1426M1446 1426L1529 1417M1659 1433L1734 1407M1734 1407L1769 1397M1769 1397L1868 1404M1868 1404L1938 1414M1938 1414L2016 1376M2151 1387L2185 1388M2185 1388L2271 1408M2271 1408L2342 1425M2463 1417L2539 1400"/></svg>