<svg xmlns="http://www.w3.org/2000/svg" width="2560" height="1440" fill="#fff"><circle cx="0" cy="23" r="5"/><circle cx="2560" cy="23" r="5"/><circle cx="98" cy="4" r="5"/><circle cx="98" cy="1444" r="5"/><circle cx="174" cy="4" r="5"/><circle cx="174" cy="1444" r="5"/><circle cx="259" cy="4" r="5"/><circle cx="259" cy="1444" r="5"/><circle cx="321" cy="44" r="5"/><circle cx="455" cy="65" r="4"/><circle cx="519" cy="14" r="5"/><circle cx="630" cy="55" r="4"/><circle cx="664" cy="21" r="6"/><circle cx="796" cy="78" r="5"/><circle cx="810" cy="45" r="6"/><circle cx="957" cy="71" r="4"/><circle cx="994" cy="12" r="5"/><circle cx="1062" cy="33" r="5"/><circle cx="1153" cy="24" r="4"/><circle cx="1242" cy="6" r="5"/><circle cx="1337" cy="76" r="5"/><circle cx="1424" cy="54" r="5"/><circle cx="1499" cy="59" r="6"/><circle cx="1536" cy="20" r="5"/><circle cx="1616" cy="68" r="6"/><circle cx="1713" cy="62" r="5"/><circle cx="1761" cy="27" r="4"/><circle cx="1900" cy="36" r="5"/><circle cx="1974" cy="33" r="6"/><circle cx="2061" cy="65" r="5"/><circle cx="2129" cy="8" r="5"/><circle cx="2161" cy="51" r="4"/><circle cx="2270" cy="69" r="5"/><circle cx="2377" cy="5" r="5"/><circle cx="2377" cy="1445" r="5"/><circle cx="2428" cy="25" r="5"/><circle cx="2496" cy="35" r="6"/><circle cx="25" cy="152" r="6"/><circle cx="128" cy="113" r="5"/><circle cx="173" cy="110" r="5"/><circle cx="266" cy="88" r="5"/><circle cx="370" cy="86" r="5"/><circle cx="407" cy="121" r="4"/><circle cx="535" cy="136" r="6"/><circle cx="565" cy="95" r="5"/><circle cx="671" cy="92" r="6"/><circle cx="763" cy="93" r="5"/><circle cx="802" cy="109" r="5"/><circle cx="942" cy="155" r="4"/><circle cx="1001" cy="114" r="4"/><circle cx="1043" cy="116" r="5"/><circle cx="1191" cy="141" r="5"/><circle cx="1205" cy="135" r="5"/><circle cx="1320" cy="88" r="5"/><circle cx="1365" cy="112" r="5"/><circle cx="1461" cy="94" r="5"/><circle cx="1579" cy="126" r="6"/><circle cx="1613" cy="88" r="5"/><circle cx="1714" cy="82" r="5"/><circle cx="1817" cy="140" r="4"/><circle cx="1853" cy="108" r="4"/><circle cx="1949" cy="147" r="5"/><circle cx="2073" cy="81" r="4"/><circle cx="2159" cy="142" r="6"/><circle cx="2162" cy="147" r="5"/><circle cx="2289" cy="142" r="6"/><circle cx="2359" cy="154" r="5"/><circle cx="2430" cy="134" r="4"/><circle cx="2525" cy="85" r="4"/><circle cx="29" cy="199" r="5"/><circle cx="137" cy="211" r="4"/><circle cx="224" cy="172" r="4"/><circle cx="312" cy="195" r="5"/><circle cx="341" cy="167" r="5"/><circle cx="407" cy="214" r="6"/><circle cx="493" cy="173" r="5"/><circle cx="637" cy="184" r="6"/><circle cx="698" cy="177" r="4"/><circle cx="772" cy="189" r="6"/><circle cx="817" cy="214" r="4"/><circle cx="889" cy="218" r="5"/><circle cx="998" cy="220" r="5"/><circle cx="1097" cy="202" r="4"/><circle cx="1196" cy="229" r="5"/><circle cx="1254" cy="194" r="5"/><circle cx="1297" cy="169" r="4"/><circle cx="1433" cy="174" r="6"/><circle cx="1442" cy="174" r="5"/><circle cx="1533" cy="167" r="4"/><circle cx="1600" cy="211" r="5"/><circle cx="1733" cy="191" r="5"/><circle cx="1817" cy="236" r="6"/><circle cx="1900" cy="203" r="5"/><circle cx="1965" cy="202" r="5"/><circle cx="2037" cy="227" r="5"/><circle cx="2125" cy="212" r="6"/><circle cx="2181" cy="195" r="5"/><circle cx="2273" cy="227" r="5"/><circle cx="2377" cy="218" r="5"/><circle cx="2457" cy="206" r="5"/><circle cx="2498" cy="218" r="4"/><circle cx="60" cy="268" r="5"/><circle cx="89" cy="305" r="6"/><circle cx="167" cy="279" r="5"/><circle cx="270" cy="313" r="5"/><circle cx="349" cy="310" r="6"/><circle cx="436" cy="287" r="4"/><circle cx="560" cy="300" r="5"/><circle cx="636" cy="285" r="5"/><circle cx="677" cy="320" r="4"/><circle cx="797" cy="253" r="4"/><circle cx="834" cy="275" r="5"/><circle cx="955" cy="320" r="6"/><circle cx="999" cy="287" r="5"/><circle cx="1106" cy="300" r="4"/><circle cx="1164" cy="282" r="5"/><circle cx="1221" cy="297" r="5"/><circle cx="1295" cy="296" r="4"/><circle cx="1440" cy="242" r="5"/><circle cx="1499" cy="241" r="4"/><circle cx="1572" cy="255" r="6"/><circle cx="1676" cy="247" r="4"/><circle cx="1688" cy="249" r="6"/><circle cx="1817" cy="249" r="5"/><circle cx="1864" cy="292" r="6"/><circle cx="1964" cy="315" r="5"/><circle cx="2076" cy="317" r="5"/><circle cx="2159" cy="289" r="5"/><circle cx="2201" cy="279" r="4"/><circle cx="2242" cy="251" r="5"/><circle cx="2372" cy="305" r="5"/><circle cx="2416" cy="253" r="5"/><circle cx="2493" cy="308" r="4"/><circle cx="27" cy="343" r="5"/><circle cx="120" cy="381" r="5"/><circle cx="206" cy="356" r="6"/><circle cx="277" cy="361" r="4"/><circle cx="394" cy="375" r="5"/><circle cx="402" cy="330" r="6"/><circle cx="532" cy="397" r="5"/><circle cx="605" cy="394" r="5"/><circle cx="691" cy="327" r="4"/><circle cx="740" cy="376" r="6"/><circle cx="860" cy="361" r="5"/><circle cx="898" cy="345" r="6"/><circle cx="1009" cy="354" r="5"/><circle cx="1093" cy="392" r="5"/><circle cx="1180" cy="356" r="4"/><circle cx="1265" cy="381" r="4"/><circle cx="1321" cy="331" r="4"/><circle cx="1362" cy="347" r="5"/><circle cx="1441" cy="326" r="5"/><circle cx="1533" cy="374" r="5"/><circle cx="1609" cy="368" r="5"/><circle cx="1714" cy="337" r="6"/><circle cx="1789" cy="396" r="5"/><circle cx="1843" cy="328" r="6"/><circle cx="1938" cy="324" r="5"/><circle cx="2076" cy="344" r="5"/><circle cx="2113" cy="340" r="5"/><circle cx="2229" cy="400" r="5"/><circle cx="2263" cy="373" r="5"/><circle cx="2348" cy="393" r="5"/><circle cx="2427" cy="380" r="4"/><circle cx="2518" cy="375" r="6"/><circle cx="42" cy="445" r="4"/><circle cx="107" cy="422" r="5"/><circle cx="181" cy="466" r="4"/><circle cx="264" cy="445" r="5"/><circle cx="329" cy="438" r="6"/><circle cx="453" cy="445" r="5"/><circle cx="546" cy="430" r="5"/><circle cx="601" cy="407" r="5"/><circle cx="654" cy="462" r="6"/><circle cx="763" cy="428" r="6"/><circle cx="812" cy="432" r="6"/><circle cx="904" cy="466" r="6"/><circle cx="986" cy="416" r="6"/><circle cx="1049" cy="458" r="6"/><circle cx="1132" cy="427" r="4"/><circle cx="1215" cy="461" r="5"/><circle cx="1352" cy="421" r="4"/><circle cx="1434" cy="401" r="6"/><circle cx="1490" cy="476" r="5"/><circle cx="1559" cy="471" r="4"/><circle cx="1677" cy="417" r="4"/><circle cx="1717" cy="465" r="5"/><circle cx="1790" cy="480" r="5"/><circle cx="1898" cy="443" r="6"/><circle cx="1926" cy="411" r="4"/><circle cx="2026" cy="417" r="5"/><circle cx="2133" cy="440" r="4"/><circle cx="2232" cy="439" r="5"/><circle cx="2273" cy="478" r="6"/><circle cx="2378" cy="455" r="5"/><circle cx="2461" cy="421" r="6"/><circle cx="2552" cy="442" r="5"/><circle cx="44" cy="522" r="5"/><circle cx="141" cy="548" r="5"/><circle cx="184" cy="543" r="5"/><circle cx="318" cy="522" r="6"/><circle cx="353" cy="480" r="5"/><circle cx="431" cy="526" r="5"/><circle cx="542" cy="556" r="5"/><circle cx="598" cy="555" r="5"/><circle cx="675" cy="555" r="4"/><circle cx="799" cy="557" r="5"/><circle cx="880" cy="487" r="6"/><circle cx="936" cy="489" r="5"/><circle cx="1039" cy="508" r="6"/><circle cx="1069" cy="492" r="5"/><circle cx="1192" cy="529" r="6"/><circle cx="1276" cy="492" r="4"/><circle cx="1333" cy="488" r="5"/><circle cx="1429" cy="546" r="5"/><circle cx="1519" cy="540" r="4"/><circle cx="1528" cy="538" r="5"/><circle cx="1674" cy="548" r="5"/><circle cx="1722" cy="536" r="6"/><circle cx="1775" cy="486" r="6"/><circle cx="1896" cy="559" r="5"/><circle cx="1992" cy="527" r="5"/><circle cx="2056" cy="482" r="5"/><circle cx="2124" cy="554" r="6"/><circle cx="2220" cy="559" r="6"/><circle cx="2302" cy="482" r="6"/><circle cx="2357" cy="560" r="6"/><circle cx="2432" cy="486" r="5"/><circle cx="2511" cy="531" r="5"/><circle cx="2" cy="590" r="4"/><circle cx="2562" cy="590" r="4"/><circle cx="113" cy="564" r="6"/><circle cx="210" cy="573" r="5"/><circle cx="296" cy="581" r="5"/><circle cx="374" cy="575" r="5"/><circle cx="470" cy="634" r="5"/><circle cx="546" cy="586" r="6"/><circle cx="590" cy="636" r="6"/><circle cx="713" cy="597" r="4"/><circle cx="780" cy="577" r="5"/><circle cx="802" cy="620" r="5"/><circle cx="915" cy="586" r="5"/><circle cx="968" cy="633" r="5"/><circle cx="1056" cy="582" r="4"/><circle cx="1181" cy="576" r="5"/><circle cx="1237" cy="577" r="5"/><circle cx="1331" cy="564" r="5"/><circle cx="1398" cy="568" r="4"/><circle cx="1496" cy="602" r="5"/><circle cx="1544" cy="579" r="5"/><circle cx="1622" cy="610" r="4"/><circle cx="1703" cy="596" r="5"/><circle cx="1769" cy="624" r="5"/><circle cx="1845" cy="637" r="5"/><circle cx="1948" cy="606" r="5"/><circle cx="2050" cy="632" r="4"/><circle cx="2081" cy="573" r="5"/><circle cx="2220" cy="581" r="4"/><circle cx="2254" cy="577" r="4"/><circle cx="2344" cy="583" r="4"/><circle cx="2453" cy="633" r="6"/><circle cx="2548" cy="591" r="5"/><circle cx="5" cy="696" r="4"/><circle cx="133" cy="642" r="5"/><circle cx="191" cy="709" r="5"/><circle cx="247" cy="711" r="5"/><circle cx="333" cy="677" r="6"/><circle cx="458" cy="669" r="5"/><circle cx="542" cy="660" r="5"/><circle cx="578" cy="694" r="4"/><circle cx="651" cy="692" r="5"/><circle cx="733" cy="654" r="4"/><circle cx="872" cy="656" r="5"/><circle cx="903" cy="683" r="5"/><circle cx="968" cy="664" r="5"/><circle cx="1089" cy="660" r="4"/><circle cx="1162" cy="669" r="5"/><circle cx="1216" cy="710" r="4"/><circle cx="1346" cy="671" r="4"/><circle cx="1366" cy="677" r="4"/><circle cx="1514" cy="707" r="6"/><circle cx="1536" cy="718" r="5"/><circle cx="1680" cy="673" r="5"/><circle cx="1718" cy="700" r="4"/><circle cx="1810" cy="695" r="6"/><circle cx="1906" cy="694" r="6"/><circle cx="1985" cy="711" r="6"/><circle cx="2049" cy="693" r="4"/><circle cx="2121" cy="693" r="5"/><circle cx="2183" cy="695" r="6"/><circle cx="2249" cy="683" r="6"/><circle cx="2360" cy="663" r="6"/><circle cx="2465" cy="678" r="4"/><circle cx="2552" cy="674" r="4"/><circle cx="73" cy="731" r="6"/><circle cx="123" cy="754" r="4"/><circle cx="205" cy="789" r="5"/><circle cx="258" cy="750" r="5"/><circle cx="321" cy="767" r="5"/><circle cx="453" cy="781" r="4"/><circle cx="519" cy="777" r="6"/><circle cx="594" cy="745" r="4"/><circle cx="651" cy="746" r="5"/><circle cx="792" cy="721" r="5"/><circle cx="831" cy="800" r="5"/><circle cx="937" cy="755" r="6"/><circle cx="1024" cy="782" r="5"/><circle cx="1116" cy="743" r="5"/><circle cx="1166" cy="722" r="5"/><circle cx="1259" cy="755" r="5"/><circle cx="1284" cy="739" r="4"/><circle cx="1389" cy="723" r="5"/><circle cx="1453" cy="778" r="5"/><circle cx="1538" cy="758" r="5"/><circle cx="1630" cy="742" r="6"/><circle cx="1738" cy="792" r="5"/><circle cx="1810" cy="798" r="6"/><circle cx="1920" cy="764" r="6"/><circle cx="1941" cy="722" r="6"/><circle cx="2020" cy="799" r="5"/><circle cx="2094" cy="791" r="6"/><circle cx="2169" cy="756" r="5"/><circle cx="2284" cy="799" r="5"/><circle cx="2348" cy="779" r="6"/><circle cx="2405" cy="738" r="6"/><circle cx="2512" cy="767" r="4"/><circle cx="38" cy="870" r="6"/><circle cx="131" cy="878" r="4"/><circle cx="180" cy="838" r="5"/><circle cx="290" cy="810" r="6"/><circle cx="347" cy="875" r="6"/><circle cx="440" cy="876" r="4"/><circle cx="511" cy="848" r="5"/><circle cx="637" cy="879" r="4"/><circle cx="691" cy="841" r="5"/><circle cx="766" cy="869" r="5"/><circle cx="849" cy="833" r="5"/><circle cx="899" cy="879" r="5"/><circle cx="993" cy="821" r="6"/><circle cx="1089" cy="852" r="6"/><circle cx="1151" cy="866" r="6"/><circle cx="1234" cy="872" r="4"/><circle cx="1335" cy="876" r="6"/><circle cx="1381" cy="822" r="5"/><circle cx="1447" cy="869" r="5"/><circle cx="1553" cy="862" r="5"/><circle cx="1644" cy="821" r="5"/><circle cx="1745" cy="811" r="5"/><circle cx="1829" cy="809" r="5"/><circle cx="1852" cy="848" r="6"/><circle cx="1995" cy="872" r="6"/><circle cx="2039" cy="869" r="6"/><circle cx="2142" cy="869" r="5"/><circle cx="2218" cy="845" r="4"/><circle cx="2291" cy="870" r="4"/><circle cx="2380" cy="879" r="5"/><circle cx="2467" cy="851" r="5"/><circle cx="2542" cy="831" r="6"/><circle cx="16" cy="886" r="4"/><circle cx="88" cy="912" r="5"/><circle cx="197" cy="936" r="4"/><circle cx="285" cy="887" r="6"/><circle cx="363" cy="887" r="5"/><circle cx="462" cy="946" r="6"/><circle cx="521" cy="910" r="4"/><circle cx="613" cy="907" r="6"/><circle cx="642" cy="938" r="5"/><circle cx="794" cy="883" r="4"/><circle cx="830" cy="925" r="4"/><circle cx="903" cy="918" r="5"/><circle cx="1011" cy="912" r="6"/><circle cx="1083" cy="941" r="4"/><circle cx="1198" cy="931" r="6"/><circle cx="1276" cy="932" r="6"/><circle cx="1353" cy="930" r="5"/><circle cx="1412" cy="921" r="5"/><circle cx="1480" cy="884" r="5"/><circle cx="1586" cy="895" r="5"/><circle cx="1615" cy="887" r="5"/><circle cx="1747" cy="919" r="5"/><circle cx="1776" cy="935" r="4"/><circle cx="1869" cy="887" r="5"/><circle cx="1929" cy="928" r="5"/><circle cx="2079" cy="902" r="5"/><circle cx="2094" cy="916" r="5"/><circle cx="2161" cy="934" r="4"/><circle cx="2302" cy="911" r="6"/><circle cx="2330" cy="893" r="4"/><circle cx="2425" cy="922" r="5"/><circle cx="2505" cy="924" r="5"/><circle cx="45" cy="971" r="6"/><circle cx="129" cy="967" r="4"/><circle cx="225" cy="1012" r="5"/><circle cx="302" cy="992" r="6"/><circle cx="334" cy="965" r="5"/><circle cx="436" cy="1034" r="4"/><circle cx="489" cy="1033" r="5"/><circle cx="567" cy="1012" r="5"/><circle cx="663" cy="1032" r="6"/><circle cx="792" cy="1025" r="5"/><circle cx="875" cy="969" r="5"/><circle cx="926" cy="967" r="6"/><circle cx="966" cy="994" r="6"/><circle cx="1071" cy="1009" r="6"/><circle cx="1186" cy="986" r="5"/><circle cx="1251" cy="979" r="5"/><circle cx="1315" cy="1006" r="6"/><circle cx="1422" cy="961" r="5"/><circle cx="1455" cy="986" r="4"/><circle cx="1591" cy="1014" r="5"/><circle cx="1634" cy="987" r="4"/><circle cx="1746" cy="978" r="4"/><circle cx="1777" cy="985" r="5"/><circle cx="1870" cy="1018" r="5"/><circle cx="1944" cy="984" r="6"/><circle cx="2065" cy="964" r="5"/><circle cx="2152" cy="995" r="6"/><circle cx="2233" cy="969" r="4"/><circle cx="2285" cy="962" r="4"/><circle cx="2329" cy="1024" r="5"/><circle cx="2429" cy="1013" r="5"/><circle cx="2519" cy="966" r="5"/><circle cx="6" cy="1082" r="5"/><circle cx="151" cy="1062" r="4"/><circle cx="162" cy="1055" r="4"/><circle cx="286" cy="1063" r="5"/><circle cx="385" cy="1048" r="5"/><circle cx="460" cy="1082" r="4"/><circle cx="554" cy="1107" r="4"/><circle cx="575" cy="1107" r="5"/><circle cx="688" cy="1064" r="5"/><circle cx="723" cy="1095" r="6"/><circle cx="819" cy="1079" r="6"/><circle cx="919" cy="1062" r="5"/><circle cx="1012" cy="1047" r="6"/><circle cx="1044" cy="1118" r="5"/><circle cx="1179" cy="1112" r="6"/><circle cx="1237" cy="1061" r="6"/><circle cx="1285" cy="1060" r="5"/><circle cx="1424" cy="1052" r="5"/><circle cx="1468" cy="1070" r="6"/><circle cx="1577" cy="1062" r="5"/><circle cx="1635" cy="1092" r="6"/><circle cx="1718" cy="1045" r="6"/><circle cx="1786" cy="1090" r="5"/><circle cx="1861" cy="1107" r="4"/><circle cx="2000" cy="1080" r="4"/><circle cx="2068" cy="1061" r="5"/><circle cx="2131" cy="1076" r="5"/><circle cx="2223" cy="1092" r="5"/><circle cx="2246" cy="1099" r="6"/><circle cx="2394" cy="1101" r="5"/><circle cx="2411" cy="1086" r="5"/><circle cx="2539" cy="1075" r="5"/><circle cx="6" cy="1144" r="5"/><circle cx="147" cy="1121" r="4"/><circle cx="209" cy="1124" r="5"/><circle cx="316" cy="1149" r="5"/><circle cx="359" cy="1177" r="5"/><circle cx="464" cy="1158" r="5"/><circle cx="513" cy="1152" r="4"/><circle cx="610" cy="1176" r="5"/><circle cx="673" cy="1174" r="5"/><circle cx="738" cy="1137" r="4"/><circle cx="877" cy="1189" r="6"/><circle cx="926" cy="1185" r="5"/><circle cx="1012" cy="1130" r="5"/><circle cx="1062" cy="1131" r="4"/><circle cx="1170" cy="1130" r="5"/><circle cx="1238" cy="1123" r="6"/><circle cx="1338" cy="1131" r="5"/><circle cx="1410" cy="1172" r="6"/><circle cx="1506" cy="1169" r="6"/><circle cx="1597" cy="1176" r="6"/><circle cx="1663" cy="1171" r="6"/><circle cx="1723" cy="1147" r="4"/><circle cx="1802" cy="1137" r="4"/><circle cx="1894" cy="1129" r="5"/><circle cx="1999" cy="1139" r="4"/><circle cx="2064" cy="1184" r="6"/><circle cx="2113" cy="1130" r="5"/><circle cx="2206" cy="1176" r="4"/><circle cx="2259" cy="1199" r="5"/><circle cx="2380" cy="1196" r="5"/><circle cx="2454" cy="1166" r="5"/><circle cx="2490" cy="1161" r="6"/><circle cx="64" cy="1261" r="6"/><circle cx="139" cy="1275" r="4"/><circle cx="213" cy="1272" r="5"/><circle cx="316" cy="1200" r="4"/><circle cx="324" cy="1238" r="6"/><circle cx="414" cy="1224" r="4"/><circle cx="513" cy="1265" r="6"/><circle cx="612" cy="1272" r="5"/><circle cx="710" cy="1254" r="6"/><circle cx="782" cy="1204" r="5"/><circle cx="861" cy="1271" r="5"/><circle cx="911" cy="1230" r="6"/><circle cx="1038" cy="1210" r="5"/><circle cx="1044" cy="1229" r="6"/><circle cx="1176" cy="1265" r="6"/><circle cx="1228" cy="1219" r="5"/><circle cx="1338" cy="1262" r="5"/><circle cx="1407" cy="1245" r="5"/><circle cx="1512" cy="1224" r="5"/><circle cx="1529" cy="1204" r="4"/><circle cx="1619" cy="1259" r="6"/><circle cx="1753" cy="1212" r="6"/><circle cx="1773" cy="1251" r="5"/><circle cx="1910" cy="1279" r="5"/><circle cx="1952" cy="1217" r="4"/><circle cx="2027" cy="1208" r="6"/><circle cx="2106" cy="1245" r="4"/><circle cx="2237" cy="1271" r="6"/><circle cx="2266" cy="1247" r="5"/><circle cx="2364" cy="1267" r="4"/><circle cx="2432" cy="1235" r="5"/><circle cx="2544" cy="1238" r="5"/><circle cx="2" cy="1340" r="5"/><circle cx="2562" cy="1340" r="5"/><circle cx="116" cy="1284" r="5"/><circle cx="205" cy="1318" r="5"/><circle cx="274" cy="1290" r="4"/><circle cx="387" cy="1356" r="5"/><circle cx="420" cy="1318" r="6"/><circle cx="519" cy="1338" r="6"/><circle cx="620" cy="1324" r="5"/><circle cx="660" cy="1315" r="4"/><circle cx="749" cy="1360" r="6"/><circle cx="811" cy="1344" r="6"/><circle cx="913" cy="1341" r="6"/><circle cx="1022" cy="1358" r="6"/><circle cx="1100" cy="1334" r="6"/><circle cx="1192" cy="1346" r="5"/><circle cx="1250" cy="1311" r="6"/><circle cx="1312" cy="1341" r="5"/><circle cx="1375" cy="1327" r="4"/><circle cx="1488" cy="1335" r="5"/><circle cx="1597" cy="1330" r="5"/><circle cx="1608" cy="1281" r="6"/><circle cx="1694" cy="1348" r="5"/><circle cx="1820" cy="1337" r="4"/><circle cx="1901" cy="1360" r="6"/><circle cx="1922" cy="1347" r="5"/><circle cx="2048" cy="1301" r="5"/><circle cx="2115" cy="1340" r="6"/><circle cx="2178" cy="1302" r="5"/><circle cx="2290" cy="1337" r="6"/><circle cx="2367" cy="1358" r="6"/><circle cx="2469" cy="1298" r="5"/><circle cx="2540" cy="1345" r="5"/><circle cx="76" cy="1406" r="5"/><circle cx="96" cy="1374" r="5"/><circle cx="176" cy="1432" r="5"/><circle cx="295" cy="1373" r="4"/><circle cx="347" cy="1426" r="5"/><circle cx="421" cy="1396" r="4"/><circle cx="509" cy="1369" r="5"/><circle cx="598" cy="1420" r="6"/><circle cx="717" cy="1404" r="5"/><circle cx="731" cy="1400" r="5"/><circle cx="807" cy="1371" r="5"/><circle cx="921" cy="1435" r="5"/><circle cx="994" cy="1418" r="4"/><circle cx="1045" cy="1417" r="6"/><circle cx="1184" cy="1362" r="5"/><circle cx="1279" cy="1426" r="5"/><circle cx="1298" cy="1394" r="4"/><circle cx="1426" cy="1362" r="5"/><circle cx="1446" cy="1369" r="5"/><circle cx="1582" cy="1423" r="6"/><circle cx="1625" cy="1402" r="4"/><circle cx="1682" cy="1363" r="4"/><circle cx="1793" cy="1392" r="6"/><circle cx="1860" cy="1394" r="5"/><circle cx="1937" cy="1419" r="5"/><circle cx="2036" cy="1373" r="4"/><circle cx="2153" cy="1429" r="6"/><circle cx="2198" cy="1416" r="6"/><circle cx="2257" cy="1425" r="5"/><circle cx="2388" cy="1398" r="6"/><circle cx="2422" cy="1397" r="5"/><circle cx="2517" cy="1423" r="5"/><path stroke="#fff" d="M0 23L98 4M0 23L-64 35M0 23L-35 85M0 23L76 -34M0 23L-43 -17M2560 23L2496 35M2560 23L2525 85M2560 23L2517 -17M0 1463L76 1406M0 1463L-43 1423M2560 1463L2517 1423M98 4L174 4M98 4L76 -34M98 4L96 -66M98 4L176 -8M98 1444L76 1406M98 1444L96 1374M98 1444L176 1432M174 4L259 4M174 4L173 110M174 4L176 -8M174 1444L176 1432M259 4L321 44M259 4L266 88M259 4L176 -8M259 4L295 -67M259 1444L176 1432M259 1444L295 1373M321 44L266 88M321 44L370 86M321 44L341 167M321 44L347 -14M321 1484L347 1426M455 65L519 14M455 65L370 86M455 65L407 121M455 65L535 136M519 14L565 95M519 14L509 -71M519 14L598 -20M519 1454L509 1369M519 1454L598 1420M630 55L664 21M630 55L565 95M630 55L671 92M630 55L598 -20M630 1495L598 1420M664 21L671 92M664 21L598 -20M664 21L717 -36M664 21L731 -40M664 1461L598 1420M664 1461L717 1404M664 1461L731 1400M796 78L810 45M796 78L763 93M796 78L802 109M810 45L763 93M810 45L802 109M810 45L807 -69M810 1485L807 1371M957 71L994 12M957 71L942 155M957 71L1001 114M957 71L1043 116M957 71L921 -5M957 1511L921 1435M994 12L1062 33M994 12L921 -5M994 12L994 -22M994 12L1045 -23M994 1452L921 1435M994 1452L994 1418M994 1452L1045 1417M1062 33L1153 24M1062 33L1043 116M1062 33L994 -22M1062 33L1045 -23M1062 1473L994 1418M1062 1473L1045 1417M1153 24L1242 6M1242 6L1192 -94M1242 6L1184 -78M1242 6L1279 -14M1242 6L1298 -46M1242 1446L1192 1346M1242 1446L1184 1362M1242 1446L1279 1426M1242 1446L1298 1394M1337 76L1424 54M1337 76L1320 88M1337 76L1365 112M1337 76L1297 169M1337 76L1279 -14M1337 1516L1279 1426M1424 54L1499 59M1424 54L1320 88M1424 54L1365 112M1424 54L1461 94M1499 59L1536 20M1499 59L1461 94M1499 59L1579 126M1499 59L1582 -17M1499 1499L1582 1423M1536 20L1616 68M1536 20L1461 94M1536 20L1582 -17M1536 1460L1582 1423M1616 68L1579 126M1616 68L1613 88M1616 68L1714 82M1616 68L1582 -17M1616 1508L1582 1423M1713 62L1761 27M1713 62L1613 88M1713 62L1714 82M1761 27L1714 82M1761 27L1793 -48M1761 1467L1793 1392M1900 36L1974 33M1900 36L1853 108M1900 36L1937 -21M1900 1476L1937 1419M1974 33L2061 65M1974 33L1949 147M1974 33L2073 81M1974 33L1937 -21M1974 1473L1937 1419M2061 65L2129 8M2061 65L2073 81M2129 8L2161 51M2129 8L2073 81M2129 8L2153 -11M2129 8L2198 -24M2129 1448L2153 1429M2129 1448L2198 1416M2161 51L2159 142M2161 51L2162 147M2161 51L2153 -11M2161 51L2198 -24M2161 1491L2153 1429M2161 1491L2198 1416M2270 69L2289 142M2270 69L2257 -15M2270 1509L2257 1425M2377 5L2428 25M2377 5L2367 -82M2377 5L2388 -42M2377 5L2422 -43M2377 1445L2367 1358M2377 1445L2388 1398M2377 1445L2422 1397M2428 25L2496 35M2428 25L2388 -42M2428 25L2422 -43M2428 25L2517 -17M2428 1465L2388 1398M2428 1465L2422 1397M2428 1465L2517 1423M2496 35L2525 85M2496 35L2422 -43M2496 35L2517 -17M2496 1475L2422 1397M2496 1475L2517 1423M25 152L128 113M25 152L-35 85M25 152L29 199M25 152L-62 218M2585 152L2525 85M2585 152L2498 218M128 113L173 110M128 113L137 211M128 113L224 172M173 110L266 88M173 110L224 172M266 88L224 172M370 86L407 121M370 86L341 167M370 86L347 -14M370 1526L347 1426M407 121L341 167M407 121L407 214M407 121L493 173M535 136L565 95M535 136L493 173M535 136L637 184M565 95L637 184M671 92L763 93M671 92L637 184M671 92L698 177M763 93L802 109M763 93L772 189M802 109L772 189M802 109L817 214M942 155L1001 114M942 155L889 218M942 155L998 220M1001 114L1043 116M1043 116L1097 202M1191 141L1205 135M1191 141L1196 229M1191 141L1254 194M1205 135L1196 229M1205 135L1254 194M1205 135L1297 169M1320 88L1365 112M1320 88L1297 169M1320 88L1279 -14M1320 1528L1279 1426M1365 112L1297 169M1365 112L1433 174M1461 94L1433 174M1461 94L1442 174M1579 126L1613 88M1579 126L1533 167M1579 126L1600 211M1613 88L1714 82M1817 140L1853 108M1817 140L1733 191M1853 108L1949 147M1949 147L1900 203M1949 147L1965 202M1949 147L2037 227M2073 81L2159 142M2159 142L2162 147M2159 142L2125 212M2159 142L2181 195M2162 147L2125 212M2162 147L2181 195M2289 142L2359 154M2289 142L2273 227M2289 142L2242 251M2359 154L2430 134M2359 154L2377 218M2359 154L2457 206M2430 134L2525 85M2430 134L2457 206M29 199L-62 218M29 199L60 268M2589 199L2498 218M137 211L224 172M137 211L60 268M137 211L167 279M224 172L312 195M312 195L341 167M312 195L407 214M341 167L407 214M407 214L493 173M407 214L436 287M637 184L698 177M637 184L636 285M698 177L772 189M772 189L817 214M772 189L797 253M817 214L889 218M817 214L797 253M817 214L834 275M889 218L998 220M889 218L797 253M889 218L834 275M998 220L1097 202M998 220L999 287M1097 202L1106 300M1097 202L1164 282M1196 229L1254 194M1196 229L1164 282M1196 229L1221 297M1254 194L1297 169M1433 174L1442 174M1433 174L1440 242M1433 174L1499 241M1442 174L1533 167M1442 174L1440 242M1442 174L1499 241M1533 167L1600 211M1533 167L1499 241M1533 167L1572 255M1600 211L1572 255M1600 211L1676 247M1600 211L1688 249M1733 191L1817 236M1733 191L1676 247M1733 191L1688 249M1733 191L1817 249M1817 236L1900 203M1817 236L1817 249M1817 236L1864 292M1817 236L1843 328M1900 203L1965 202M1900 203L1817 249M1900 203L1864 292M1965 202L2037 227M1965 202L1964 315M2037 227L2125 212M2037 227L1964 315M2037 227L2076 317M2125 212L2181 195M2125 212L2159 289M2181 195L2201 279M2181 195L2242 251M2273 227L2377 218M2273 227L2201 279M2273 227L2242 251M2377 218L2457 206M2377 218L2372 305M2377 218L2416 253M2457 206L2498 218M2457 206L2416 253M2498 218L2416 253M2498 218L2493 308M60 268L89 305M60 268L167 279M60 268L27 343M89 305L167 279M89 305L27 343M89 305L120 381M89 305L107 422M167 279L270 313M167 279L206 356M270 313L349 310M270 313L206 356M270 313L277 361M270 313L402 330M349 310L436 287M349 310L277 361M349 310L394 375M349 310L402 330M436 287L394 375M436 287L402 330M560 300L636 285M560 300L532 397M560 300L605 394M560 300L601 407M636 285L677 320M636 285L691 327M677 320L691 327M677 320L740 376M797 253L834 275M834 275L860 361M834 275L898 345M955 320L999 287M955 320L860 361M955 320L898 345M955 320L1009 354M955 320L986 416M999 287L1106 300M999 287L1009 354M1106 300L1164 282M1106 300L1093 392M1106 300L1180 356M1164 282L1221 297M1164 282L1180 356M1221 297L1295 296M1221 297L1180 356M1221 297L1265 381M1295 296L1265 381M1295 296L1321 331M1295 296L1362 347M1440 242L1499 241M1440 242L1441 326M1499 241L1572 255M1572 255L1676 247M1572 255L1688 249M1676 247L1688 249M1676 247L1714 337M1688 249L1714 337M1817 249L1864 292M1817 249L1843 328M1864 292L1843 328M1864 292L1938 324M1964 315L2076 317M1964 315L1938 324M1964 315L1926 411M2076 317L2159 289M2076 317L2076 344M2076 317L2113 340M2159 289L2201 279M2159 289L2242 251M2159 289L2113 340M2201 279L2242 251M2372 305L2416 253M2372 305L2348 393M2372 305L2427 380M2416 253L2493 308M2493 308L2518 375M27 343L120 381M27 343L-42 375M27 343L-8 442M2587 343L2518 375M2587 343L2552 442M120 381L206 356M120 381L42 445M120 381L107 422M206 356L277 361M277 361L264 445M277 361L329 438M394 375L402 330M394 375L329 438M394 375L453 445M532 397L605 394M532 397L453 445M532 397L546 430M532 397L601 407M605 394L546 430M605 394L601 407M605 394L654 462M691 327L740 376M691 327L763 428M740 376L763 428M740 376L812 432M860 361L898 345M860 361L812 432M860 361L904 466M1009 354L1093 392M1009 354L986 416M1093 392L1049 458M1093 392L1132 427M1180 356L1265 381M1180 356L1132 427M1265 381L1321 331M1265 381L1215 461M1321 331L1362 347M1321 331L1352 421M1362 347L1441 326M1362 347L1352 421M1362 347L1434 401M1441 326L1533 374M1441 326L1434 401M1533 374L1609 368M1533 374L1434 401M1533 374L1559 471M1609 368L1714 337M1609 368L1677 417M1714 337L1789 396M1714 337L1677 417M1789 396L1843 328M1789 396L1790 480M1789 396L1775 486M1843 328L1938 324M1938 324L1898 443M1938 324L1926 411M2076 344L2113 340M2076 344L2026 417M2113 340L2133 440M2229 400L2263 373M2229 400L2133 440M2229 400L2232 439M2229 400L2273 478M2263 373L2348 393M2263 373L2232 439M2348 393L2427 380M2348 393L2378 455M2348 393L2302 482M2427 380L2518 375M2427 380L2378 455M2427 380L2461 421M2518 375L2461 421M2518 375L2552 442M42 445L107 422M42 445L-8 442M42 445L44 522M2602 445L2552 442M107 422L181 466M181 466L264 445M181 466L141 548M181 466L184 543M264 445L329 438M264 445L318 522M264 445L353 480M329 438L318 522M329 438L353 480M453 445L546 430M453 445L431 526M546 430L601 407M601 407L654 462M654 462L763 428M654 462L598 555M654 462L675 555M763 428L812 432M812 432L904 466M812 432L880 487M904 466L986 416M904 466L880 487M904 466L936 489M986 416L1049 458M986 416L936 489M1049 458L1132 427M1049 458L1039 508M1049 458L1069 492M1132 427L1215 461M1132 427L1069 492M1215 461L1192 529M1215 461L1276 492M1215 461L1181 576M1352 421L1434 401M1352 421L1333 488M1434 401L1490 476M1490 476L1559 471M1490 476L1429 546M1490 476L1519 540M1490 476L1528 538M1559 471L1519 540M1559 471L1528 538M1559 471L1544 579M1677 417L1717 465M1717 465L1790 480M1717 465L1674 548M1717 465L1722 536M1717 465L1775 486M1790 480L1898 443M1790 480L1722 536M1790 480L1775 486M1898 443L1926 411M1898 443L1896 559M1926 411L2026 417M2026 417L2133 440M2026 417L1992 527M2026 417L2056 482M2133 440L2232 439M2133 440L2056 482M2232 439L2273 478M2232 439L2302 482M2273 478L2220 559M2273 478L2302 482M2378 455L2461 421M2378 455L2302 482M2378 455L2432 486M2461 421L2552 442M2461 421L2432 486M2552 442L2604 522M-8 442L44 522M44 522L2 590M44 522L113 564M44 522L-12 591M2604 522L2548 591M141 548L184 543M141 548L113 564M141 548L210 573M141 548L133 642M184 543L113 564M184 543L210 573M318 522L353 480M318 522L296 581M318 522L374 575M353 480L431 526M353 480L374 575M431 526L374 575M542 556L598 555M542 556L470 634M542 556L546 586M598 555L675 555M598 555L546 586M598 555L590 636M675 555L713 597M675 555L780 577M799 557L880 487M799 557L713 597M799 557L780 577M799 557L802 620M880 487L936 489M880 487L915 586M936 489L1039 508M936 489L915 586M1039 508L1069 492M1039 508L1056 582M1069 492L1192 529M1069 492L1056 582M1192 529L1276 492M1192 529L1181 576M1192 529L1237 577M1276 492L1333 488M1276 492L1237 577M1276 492L1331 564M1333 488L1331 564M1333 488L1398 568M1429 546L1331 564M1429 546L1398 568M1429 546L1496 602M1519 540L1528 538M1519 540L1496 602M1519 540L1544 579M1528 538L1496 602M1528 538L1544 579M1674 548L1722 536M1674 548L1775 486M1674 548L1622 610M1674 548L1703 596M1722 536L1775 486M1722 536L1703 596M1896 559L1992 527M1896 559L1845 637M1896 559L1948 606M1992 527L2056 482M1992 527L1948 606M1992 527L2081 573M2056 482L2124 554M2056 482L2081 573M2124 554L2220 559M2124 554L2050 632M2124 554L2081 573M2124 554L2220 581M2220 559L2220 581M2220 559L2254 577M2302 482L2357 560M2357 560L2432 486M2357 560L2344 583M2357 560L2360 663M2432 486L2511 531M2511 531L2562 590M2511 531L2548 591M-49 531L2 590M2 590L-12 591M2 590L-8 674M2562 590L2548 591M2562 590L2552 674M113 564L210 573M113 564L133 642M210 573L296 581M210 573L133 642M296 581L374 575M296 581L333 677M374 575L333 677M470 634L546 586M470 634L458 669M470 634L542 660M546 586L590 636M546 586L542 660M590 636L542 660M590 636L578 694M590 636L651 692M713 597L780 577M713 597L733 654M780 577L802 620M780 577L733 654M802 620L733 654M802 620L872 656M802 620L792 721M915 586L968 633M915 586L872 656M915 586L968 664M968 633L1056 582M968 633L903 683M968 633L968 664M1056 582L1089 660M1181 576L1237 577M1181 576L1089 660M1181 576L1162 669M1237 577L1331 564M1331 564L1398 568M1398 568L1366 677M1496 602L1544 579M1496 602L1514 707M1544 579L1622 610M1622 610L1703 596M1622 610L1680 673M1703 596L1769 624M1703 596L1680 673M1769 624L1845 637M1769 624L1680 673M1769 624L1718 700M1769 624L1810 695M1845 637L1948 606M1845 637L1810 695M1845 637L1906 694M2050 632L2081 573M2050 632L2049 693M2050 632L2121 693M2220 581L2254 577M2220 581L2183 695M2220 581L2249 683M2254 577L2344 583M2254 577L2249 683M2344 583L2360 663M2453 633L2548 591M2453 633L2360 663M2453 633L2465 678M2453 633L2405 738M2548 591L2552 674M5 696L-95 678M5 696L-8 674M5 696L73 731M5 696L-48 767M2565 696L2465 678M2565 696L2552 674M2565 696L2512 767M133 642L191 709M133 642L73 731M191 709L247 711M191 709L123 754M191 709L205 789M191 709L258 750M247 711L333 677M247 711L205 789M247 711L258 750M247 711L321 767M333 677L321 767M458 669L542 660M458 669L453 781M458 669L519 777M542 660L578 694M578 694L651 692M578 694L594 745M578 694L651 746M651 692L733 654M651 692L594 745M651 692L651 746M733 654L792 721M872 656L903 683M872 656L968 664M872 656L792 721M903 683L968 664M903 683L792 721M903 683L937 755M968 664L937 755M1089 660L1162 669M1089 660L1116 743M1089 660L1166 722M1162 669L1216 710M1162 669L1116 743M1162 669L1166 722M1216 710L1166 722M1216 710L1259 755M1216 710L1284 739M1346 671L1366 677M1346 671L1259 755M1346 671L1284 739M1346 671L1389 723M1366 677L1284 739M1366 677L1389 723M1514 707L1536 718M1514 707L1453 778M1514 707L1538 758M1536 718L1538 758M1536 718L1630 742M1680 673L1718 700M1680 673L1630 742M1718 700L1810 695M1718 700L1630 742M1718 700L1738 792M1810 695L1906 694M1810 695L1810 798M1906 694L1985 711M1906 694L1920 764M1906 694L1941 722M1985 711L2049 693M1985 711L1920 764M1985 711L1941 722M1985 711L2020 799M2049 693L2121 693M2049 693L1941 722M2121 693L2183 695M2121 693L2094 791M2121 693L2169 756M2183 695L2249 683M2183 695L2169 756M2249 683L2360 663M2249 683L2169 756M2360 663L2405 738M2465 678L2552 674M2465 678L2405 738M2465 678L2512 767M2552 674L2633 731M-8 674L73 731M73 731L123 754M123 754L180 838M205 789L258 750M205 789L180 838M205 789L290 810M258 750L321 767M258 750L290 810M321 767L290 810M453 781L519 777M453 781L511 848M519 777L594 745M519 777L651 746M519 777L511 848M594 745L651 746M651 746L691 841M792 721L831 800M831 800L766 869M831 800L849 833M831 800L794 883M937 755L1024 782M937 755L993 821M1024 782L1116 743M1024 782L993 821M1024 782L1089 852M1116 743L1166 722M1166 722L1259 755M1259 755L1284 739M1284 739L1389 723M1389 723L1453 778M1389 723L1381 822M1453 778L1538 758M1453 778L1381 822M1453 778L1447 869M1538 758L1630 742M1538 758L1553 862M1630 742L1644 821M1738 792L1810 798M1738 792L1644 821M1738 792L1745 811M1738 792L1829 809M1810 798L1745 811M1810 798L1829 809M1810 798L1852 848M1920 764L1941 722M1920 764L1852 848M1941 722L2020 799M2020 799L2094 791M2020 799L1995 872M2020 799L2039 869M2094 791L2169 756M2094 791L2039 869M2094 791L2142 869M2169 756L2218 845M2284 799L2348 779M2284 799L2218 845M2284 799L2291 870M2284 799L2330 893M2348 779L2405 738M2405 738L2512 767M2512 767L2467 851M2512 767L2542 831M38 870L131 878M38 870L-18 831M38 870L16 886M38 870L88 912M38 870L45 971M2598 870L2542 831M131 878L180 838M131 878L88 912M131 878L197 936M131 878L129 967M290 810L347 875M290 810L285 887M347 875L440 876M347 875L285 887M347 875L363 887M347 875L334 965M440 876L511 848M440 876L363 887M440 876L462 946M440 876L521 910M511 848L462 946M511 848L521 910M637 879L691 841M637 879L613 907M637 879L642 938M691 841L766 869M691 841L613 907M691 841L642 938M766 869L849 833M766 869L794 883M766 869L830 925M849 833L899 879M849 833L794 883M899 879L830 925M899 879L903 918M899 879L875 969M899 879L926 967M993 821L1089 852M993 821L1011 912M1089 852L1151 866M1089 852L1011 912M1089 852L1083 941M1151 866L1234 872M1151 866L1083 941M1151 866L1198 931M1151 866L1186 986M1234 872L1198 931M1234 872L1276 932M1335 876L1381 822M1335 876L1276 932M1335 876L1353 930M1381 822L1447 869M1447 869L1412 921M1447 869L1480 884M1447 869L1422 961M1553 862L1644 821M1553 862L1480 884M1553 862L1586 895M1553 862L1615 887M1644 821L1586 895M1644 821L1615 887M1745 811L1829 809M1745 811L1747 919M1829 809L1852 848M1829 809L1869 887M1852 848L1869 887M1852 848L1929 928M1995 872L2039 869M1995 872L1929 928M1995 872L2079 902M2039 869L2079 902M2039 869L2094 916M2142 869L2218 845M2142 869L2079 902M2142 869L2094 916M2142 869L2161 934M2218 845L2291 870M2291 870L2380 879M2291 870L2302 911M2291 870L2330 893M2380 879L2467 851M2380 879L2302 911M2380 879L2330 893M2380 879L2425 922M2467 851L2542 831M2467 851L2425 922M2467 851L2505 924M2542 831L2576 886M2542 831L2505 924M-18 831L16 886M16 886L88 912M16 886L-55 924M16 886L45 971M2576 886L2505 924M88 912L45 971M88 912L129 967M197 936L129 967M197 936L225 1012M285 887L363 887M285 887L302 992M285 887L334 965M363 887L334 965M462 946L521 910M462 946L436 1034M462 946L489 1033M521 910L613 907M613 907L642 938M642 938L567 1012M642 938L663 1032M794 883L830 925M830 925L903 918M830 925L875 969M903 918L875 969M903 918L926 967M1011 912L1083 941M1011 912L926 967M1011 912L966 994M1083 941L1071 1009M1198 931L1276 932M1198 931L1186 986M1198 931L1251 979M1276 932L1353 930M1276 932L1251 979M1353 930L1412 921M1353 930L1315 1006M1353 930L1422 961M1412 921L1480 884M1412 921L1422 961M1412 921L1455 986M1480 884L1586 895M1586 895L1615 887M1615 887L1634 987M1747 919L1776 935M1747 919L1746 978M1747 919L1777 985M1776 935L1869 887M1776 935L1746 978M1776 935L1777 985M1869 887L1929 928M1869 887L1944 984M1929 928L1870 1018M1929 928L1944 984M2079 902L2094 916M2079 902L2065 964M2094 916L2161 934M2094 916L2065 964M2161 934L2065 964M2161 934L2152 995M2161 934L2233 969M2302 911L2330 893M2302 911L2233 969M2302 911L2285 962M2330 893L2285 962M2425 922L2505 924M2425 922L2429 1013M2425 922L2519 966M2505 924L2519 966M45 971L129 967M45 971L-41 966M2605 971L2519 966M129 967L162 1055M225 1012L302 992M225 1012L151 1062M225 1012L162 1055M225 1012L286 1063M302 992L334 965M302 992L286 1063M302 992L385 1048M334 965L385 1048M436 1034L489 1033M436 1034L385 1048M436 1034L460 1082M489 1033L567 1012M489 1033L460 1082M489 1033L554 1107M567 1012L663 1032M567 1012L554 1107M567 1012L575 1107M663 1032L575 1107M663 1032L688 1064M663 1032L723 1095M792 1025L688 1064M792 1025L819 1079M875 969L926 967M875 969L966 994M926 967L966 994M966 994L919 1062M966 994L1012 1047M1071 1009L1186 986M1071 1009L1012 1047M1186 986L1251 979M1251 979L1315 1006M1251 979L1237 1061M1315 1006L1237 1061M1315 1006L1285 1060M1422 961L1455 986M1422 961L1424 1052M1455 986L1424 1052M1455 986L1468 1070M1591 1014L1634 987M1591 1014L1577 1062M1591 1014L1635 1092M1634 987L1577 1062M1634 987L1718 1045M1746 978L1777 985M1746 978L1718 1045M1777 985L1870 1018M1777 985L1718 1045M1870 1018L1944 984M1870 1018L1786 1090M1870 1018L1861 1107M1944 984L2000 1080M2065 964L2152 995M2065 964L2068 1061M2152 995L2233 969M2152 995L2068 1061M2152 995L2131 1076M2233 969L2285 962M2285 962L2329 1024M2329 1024L2429 1013M2329 1024L2246 1099M2329 1024L2394 1101M2329 1024L2411 1086M2429 1013L2519 966M2429 1013L2394 1101M2429 1013L2411 1086M2519 966L2539 1075M6 1082L-21 1075M6 1082L6 1144M2566 1082L2539 1075M151 1062L162 1055M151 1062L147 1121M151 1062L209 1124M162 1055L147 1121M162 1055L209 1124M286 1063L385 1048M286 1063L209 1124M286 1063L316 1149M385 1048L460 1082M460 1082L464 1158M460 1082L513 1152M554 1107L575 1107M554 1107L513 1152M554 1107L610 1176M575 1107L513 1152M575 1107L610 1176M688 1064L723 1095M688 1064L673 1174M688 1064L738 1137M723 1095L819 1079M723 1095L673 1174M723 1095L738 1137M819 1079L919 1062M819 1079L738 1137M819 1079L877 1189M919 1062L1012 1047M1012 1047L1044 1118M1012 1047L1012 1130M1044 1118L1012 1130M1044 1118L1062 1131M1044 1118L1038 1210M1044 1118L1044 1229M1179 1112L1237 1061M1179 1112L1285 1060M1179 1112L1170 1130M1179 1112L1238 1123M1179 1112L1228 1219M1237 1061L1285 1060M1237 1061L1238 1123M1285 1060L1238 1123M1285 1060L1338 1131M1424 1052L1468 1070M1424 1052L1338 1131M1468 1070L1577 1062M1468 1070L1410 1172M1468 1070L1506 1169M1577 1062L1635 1092M1635 1092L1718 1045M1635 1092L1597 1176M1635 1092L1663 1171M1718 1045L1786 1090M1786 1090L1861 1107M1786 1090L1723 1147M1786 1090L1802 1137M1861 1107L1802 1137M1861 1107L1894 1129M2000 1080L2068 1061M2000 1080L1894 1129M2000 1080L1999 1139M2068 1061L2131 1076M2068 1061L2113 1130M2131 1076L2223 1092M2131 1076L2246 1099M2131 1076L2113 1130M2223 1092L2246 1099M2223 1092L2113 1130M2223 1092L2206 1176M2223 1092L2259 1199M2246 1099L2206 1176M2246 1099L2259 1199M2394 1101L2411 1086M2394 1101L2380 1196M2394 1101L2454 1166M2411 1086L2454 1166M2539 1075L2566 1144M2539 1075L2490 1161M-21 1075L6 1144M6 1144L-70 1161M6 1144L-16 1238M2566 1144L2490 1161M2566 1144L2544 1238M147 1121L209 1124M209 1124L316 1149M316 1149L359 1177M316 1149L316 1200M316 1149L324 1238M359 1177L464 1158M359 1177L316 1200M359 1177L324 1238M359 1177L414 1224M464 1158L513 1152M464 1158L414 1224M513 1152L610 1176M610 1176L673 1174M610 1176L612 1272M673 1174L738 1137M673 1174L710 1254M738 1137L782 1204M877 1189L926 1185M877 1189L782 1204M877 1189L861 1271M877 1189L911 1230M926 1185L861 1271M926 1185L911 1230M926 1185L1038 1210M1012 1130L1062 1131M1012 1130L1038 1210M1012 1130L1044 1229M1062 1131L1170 1130M1062 1131L1038 1210M1062 1131L1044 1229M1170 1130L1238 1123M1170 1130L1228 1219M1238 1123L1228 1219M1338 1131L1410 1172M1410 1172L1506 1169M1410 1172L1338 1262M1410 1172L1407 1245M1506 1169L1597 1176M1506 1169L1512 1224M1506 1169L1529 1204M1597 1176L1663 1171M1597 1176L1529 1204M1597 1176L1619 1259M1663 1171L1723 1147M1663 1171L1619 1259M1663 1171L1753 1212M1723 1147L1802 1137M1723 1147L1753 1212M1723 1147L1773 1251M1802 1137L1894 1129M1802 1137L1753 1212M1894 1129L1999 1139M1894 1129L1952 1217M1999 1139L2064 1184M1999 1139L1952 1217M1999 1139L2027 1208M2064 1184L2113 1130M2064 1184L2027 1208M2064 1184L2106 1245M2064 1184L2048 1301M2206 1176L2259 1199M2206 1176L2237 1271M2206 1176L2266 1247M2259 1199L2237 1271M2259 1199L2266 1247M2380 1196L2454 1166M2380 1196L2364 1267M2380 1196L2432 1235M2454 1166L2490 1161M2454 1166L2432 1235M2490 1161L2432 1235M2490 1161L2544 1238M64 1261L139 1275M64 1261L-16 1238M64 1261L2 1340M64 1261L116 1284M2624 1261L2544 1238M139 1275L213 1272M139 1275L116 1284M139 1275L205 1318M213 1272L116 1284M213 1272L205 1318M213 1272L274 1290M316 1200L324 1238M316 1200L274 1290M324 1238L414 1224M324 1238L274 1290M414 1224L513 1265M513 1265L612 1272M513 1265L420 1318M513 1265L519 1338M612 1272L710 1254M612 1272L620 1324M612 1272L660 1315M710 1254L782 1204M710 1254L660 1315M710 1254L749 1360M861 1271L911 1230M861 1271L811 1344M861 1271L913 1341M911 1230L913 1341M1038 1210L1044 1229M1176 1265L1228 1219M1176 1265L1100 1334M1176 1265L1192 1346M1176 1265L1250 1311M1176 1265L1184 1362M1228 1219L1250 1311M1338 1262L1407 1245M1338 1262L1312 1341M1338 1262L1375 1327M1407 1245L1512 1224M1407 1245L1375 1327M1407 1245L1426 1362M1512 1224L1529 1204M1512 1224L1608 1281M1529 1204L1608 1281M1619 1259L1597 1330M1619 1259L1608 1281M1753 1212L1773 1251M1773 1251L1820 1337M1910 1279L1952 1217M1910 1279L1820 1337M1910 1279L1901 1360M1910 1279L1922 1347M1952 1217L2027 1208M2027 1208L2106 1245M2027 1208L2048 1301M2106 1245L2048 1301M2106 1245L2115 1340M2106 1245L2178 1302M2237 1271L2266 1247M2237 1271L2178 1302M2237 1271L2290 1337M2266 1247L2178 1302M2266 1247L2290 1337M2364 1267L2432 1235M2364 1267L2367 1358M2364 1267L2469 1298M2432 1235L2469 1298M2544 1238L2469 1298M2 1340L-20 1345M2 1340L76 1406M2 1340L96 1374M2 1340L-43 1423M2562 1340L2540 1345M2562 1340L2517 1423M116 1284L205 1318M116 1284L96 1374M205 1318L274 1290M205 1318L295 1373M274 1290L295 1373M387 1356L420 1318M387 1356L295 1373M387 1356L347 1426M387 1356L421 1396M420 1318L519 1338M420 1318L421 1396M420 1318L509 1369M519 1338L620 1324M519 1338L509 1369M620 1324L660 1315M620 1324L598 1420M660 1315L717 1404M749 1360L811 1344M749 1360L717 1404M749 1360L731 1400M749 1360L807 1371M811 1344L913 1341M811 1344L731 1400M811 1344L807 1371M913 1341L1022 1358M913 1341L921 1435M1022 1358L1100 1334M1022 1358L921 1435M1022 1358L994 1418M1022 1358L1045 1417M1100 1334L1192 1346M1100 1334L1045 1417M1100 1334L1184 1362M1192 1346L1250 1311M1192 1346L1184 1362M1250 1311L1312 1341M1250 1311L1184 1362M1312 1341L1375 1327M1312 1341L1279 1426M1312 1341L1298 1394M1375 1327L1426 1362M1375 1327L1446 1369M1488 1335L1426 1362M1488 1335L1446 1369M1597 1330L1608 1281M1597 1330L1694 1348M1597 1330L1582 1423M1597 1330L1625 1402M1608 1281L1694 1348M1694 1348L1625 1402M1694 1348L1682 1363M1694 1348L1793 1392M1820 1337L1901 1360M1820 1337L1793 1392M1820 1337L1860 1394M1901 1360L1922 1347M1901 1360L1860 1394M1901 1360L1937 1419M1922 1347L1860 1394M1922 1347L1937 1419M1922 1347L2036 1373M2048 1301L2115 1340M2048 1301L2036 1373M2115 1340L2178 1302M2115 1340L2036 1373M2115 1340L2153 1429M2178 1302L2198 1416M2290 1337L2367 1358M2290 1337L2257 1425M2290 1337L2388 1398M2367 1358L2388 1398M2367 1358L2422 1397M2469 1298L2540 1345M2540 1345L2517 1423M76 1406L96 1374M76 1406L176 1432M96 1374L176 1432M295 1373L347 1426M347 1426L421 1396M421 1396L509 1369M509 1369L598 1420M717 1404L731 1400M717 1404L807 1371M731 1400L807 1371M921 1435L994 1418M994 1418L1045 1417M1279 1426L1298 1394M1426 1362L1446 1369M1582 1423L1625 1402M1625 1402L1682 1363M1682 1363L1793 1392M1793 1392L1860 1394M1860 1394L1937 1419M2153 1429L2198 1416M2153 1429L2257 1425M2198 1416L2257 1425M2388 1398L2422 1397"/></svg>