<svg xmlns="http://www.w3.org/2000/svg" width="2560" height="1440" fill="#fff"><circle cx="71" cy="1" r="5"/><circle cx="71" cy="1441" r="5"/><circle cx="82" cy="27" r="4"/><circle cx="234" cy="64" r="4"/><circle cx="310" cy="48" r="6"/><circle cx="374" cy="69" r="4"/><circle cx="445" cy="58" r="5"/><circle cx="508" cy="39" r="6"/><circle cx="627" cy="68" r="5"/><circle cx="682" cy="78" r="5"/><circle cx="749" cy="19" r="4"/><circle cx="802" cy="40" r="5"/><circle cx="923" cy="33" r="5"/><circle cx="984" cy="15" r="5"/><circle cx="1094" cy="45" r="6"/><circle cx="1154" cy="65" r="6"/><circle cx="1278" cy="77" r="4"/><circle cx="1305" cy="68" r="4"/><circle cx="1403" cy="15" r="5"/><circle cx="1488" cy="72" r="4"/><circle cx="1522" cy="20" r="5"/><circle cx="1634" cy="3" r="5"/><circle cx="1634" cy="1443" r="5"/><circle cx="1707" cy="65" r="6"/><circle cx="1774" cy="55" r="6"/><circle cx="1909" cy="22" r="6"/><circle cx="1980" cy="33" r="5"/><circle cx="2050" cy="33" r="4"/><circle cx="2097" cy="49" r="5"/><circle cx="2214" cy="35" r="6"/><circle cx="2308" cy="5" r="6"/><circle cx="2308" cy="1445" r="6"/><circle cx="2399" cy="77" r="6"/><circle cx="2403" cy="54" r="4"/><circle cx="2560" cy="23" r="4"/><circle cx="-0" cy="23" r="4"/><circle cx="23" cy="81" r="6"/><circle cx="125" cy="144" r="5"/><circle cx="178" cy="160" r="6"/><circle cx="259" cy="92" r="6"/><circle cx="364" cy="93" r="6"/><circle cx="470" cy="89" r="5"/><circle cx="552" cy="129" r="5"/><circle cx="634" cy="104" r="6"/><circle cx="705" cy="80" r="6"/><circle cx="756" cy="104" r="5"/><circle cx="830" cy="159" r="5"/><circle cx="881" cy="82" r="5"/><circle cx="1000" cy="99" r="6"/><circle cx="1068" cy="130" r="5"/><circle cx="1179" cy="150" r="4"/><circle cx="1266" cy="103" r="4"/><circle cx="1333" cy="115" r="6"/><circle cx="1383" cy="89" r="6"/><circle cx="1469" cy="154" r="5"/><circle cx="1559" cy="82" r="6"/><circle cx="1621" cy="81" r="6"/><circle cx="1681" cy="156" r="5"/><circle cx="1808" cy="140" r="6"/><circle cx="1872" cy="94" r="6"/><circle cx="1957" cy="145" r="4"/><circle cx="2013" cy="132" r="4"/><circle cx="2087" cy="119" r="6"/><circle cx="2162" cy="130" r="5"/><circle cx="2309" cy="88" r="6"/><circle cx="2337" cy="104" r="5"/><circle cx="2444" cy="139" r="5"/><circle cx="2484" cy="98" r="6"/><circle cx="70" cy="188" r="5"/><circle cx="96" cy="210" r="6"/><circle cx="202" cy="222" r="5"/><circle cx="257" cy="168" r="5"/><circle cx="328" cy="176" r="5"/><circle cx="431" cy="182" r="5"/><circle cx="517" cy="214" r="6"/><circle cx="588" cy="224" r="5"/><circle cx="689" cy="195" r="4"/><circle cx="731" cy="162" r="4"/><circle cx="810" cy="182" r="5"/><circle cx="958" cy="220" r="5"/><circle cx="1020" cy="225" r="5"/><circle cx="1104" cy="196" r="5"/><circle cx="1175" cy="225" r="6"/><circle cx="1272" cy="211" r="6"/><circle cx="1301" cy="238" r="5"/><circle cx="1400" cy="187" r="6"/><circle cx="1467" cy="207" r="4"/><circle cx="1577" cy="198" r="5"/><circle cx="1628" cy="229" r="5"/><circle cx="1740" cy="203" r="4"/><circle cx="1762" cy="235" r="5"/><circle cx="1901" cy="175" r="6"/><circle cx="1965" cy="228" r="4"/><circle cx="2040" cy="195" r="5"/><circle cx="2114" cy="208" r="5"/><circle cx="2194" cy="178" r="5"/><circle cx="2300" cy="174" r="5"/><circle cx="2360" cy="165" r="5"/><circle cx="2422" cy="174" r="5"/><circle cx="2520" cy="178" r="6"/><circle cx="33" cy="244" r="6"/><circle cx="83" cy="275" r="4"/><circle cx="232" cy="266" r="4"/><circle cx="245" cy="281" r="5"/><circle cx="358" cy="269" r="6"/><circle cx="427" cy="319" r="6"/><circle cx="559" cy="284" r="4"/><circle cx="590" cy="285" r="4"/><circle cx="684" cy="309" r="6"/><circle cx="725" cy="240" r="5"/><circle cx="835" cy="241" r="4"/><circle cx="904" cy="284" r="4"/><circle cx="1029" cy="292" r="5"/><circle cx="1100" cy="259" r="5"/><circle cx="1188" cy="265" r="6"/><circle cx="1228" cy="293" r="4"/><circle cx="1328" cy="275" r="4"/><circle cx="1372" cy="297" r="6"/><circle cx="1477" cy="304" r="5"/><circle cx="1533" cy="247" r="5"/><circle cx="1639" cy="246" r="4"/><circle cx="1723" cy="263" r="4"/><circle cx="1772" cy="260" r="6"/><circle cx="1906" cy="263" r="5"/><circle cx="1962" cy="319" r="4"/><circle cx="2049" cy="244" r="5"/><circle cx="2082" cy="266" r="5"/><circle cx="2211" cy="250" r="5"/><circle cx="2288" cy="267" r="4"/><circle cx="2340" cy="291" r="5"/><circle cx="2472" cy="292" r="5"/><circle cx="2485" cy="264" r="5"/><circle cx="74" cy="388" r="5"/><circle cx="152" cy="337" r="4"/><circle cx="232" cy="354" r="5"/><circle cx="309" cy="352" r="5"/><circle cx="341" cy="332" r="5"/><circle cx="457" cy="357" r="5"/><circle cx="522" cy="325" r="5"/><circle cx="634" cy="343" r="5"/><circle cx="686" cy="382" r="5"/><circle cx="757" cy="386" r="5"/><circle cx="803" cy="365" r="4"/><circle cx="899" cy="385" r="6"/><circle cx="985" cy="381" r="5"/><circle cx="1091" cy="358" r="5"/><circle cx="1123" cy="361" r="4"/><circle cx="1213" cy="362" r="5"/><circle cx="1338" cy="337" r="5"/><circle cx="1418" cy="348" r="5"/><circle cx="1482" cy="365" r="5"/><circle cx="1595" cy="365" r="4"/><circle cx="1623" cy="378" r="6"/><circle cx="1726" cy="374" r="5"/><circle cx="1779" cy="390" r="4"/><circle cx="1855" cy="324" r="5"/><circle cx="1996" cy="336" r="5"/><circle cx="2076" cy="346" r="5"/><circle cx="2121" cy="349" r="5"/><circle cx="2174" cy="379" r="4"/><circle cx="2303" cy="380" r="5"/><circle cx="2358" cy="344" r="5"/><circle cx="2415" cy="384" r="6"/><circle cx="2501" cy="331" r="4"/><circle cx="20" cy="422" r="4"/><circle cx="158" cy="476" r="6"/><circle cx="166" cy="446" r="6"/><circle cx="241" cy="451" r="6"/><circle cx="352" cy="466" r="5"/><circle cx="456" cy="438" r="4"/><circle cx="515" cy="456" r="5"/><circle cx="568" cy="420" r="5"/><circle cx="698" cy="476" r="5"/><circle cx="733" cy="467" r="4"/><circle cx="877" cy="400" r="5"/><circle cx="893" cy="460" r="6"/><circle cx="986" cy="442" r="5"/><circle cx="1100" cy="447" r="6"/><circle cx="1140" cy="444" r="5"/><circle cx="1219" cy="440" r="4"/><circle cx="1310" cy="411" r="4"/><circle cx="1395" cy="456" r="5"/><circle cx="1505" cy="427" r="4"/><circle cx="1555" cy="470" r="4"/><circle cx="1604" cy="441" r="5"/><circle cx="1756" cy="447" r="5"/><circle cx="1784" cy="476" r="4"/><circle cx="1886" cy="460" r="4"/><circle cx="1999" cy="464" r="5"/><circle cx="2064" cy="478" r="5"/><circle cx="2098" cy="437" r="4"/><circle cx="2207" cy="427" r="4"/><circle cx="2288" cy="431" r="5"/><circle cx="2399" cy="404" r="5"/><circle cx="2477" cy="423" r="5"/><circle cx="2514" cy="470" r="5"/><circle cx="44" cy="536" r="4"/><circle cx="128" cy="550" r="4"/><circle cx="225" cy="499" r="5"/><circle cx="316" cy="537" r="6"/><circle cx="380" cy="491" r="5"/><circle cx="477" cy="509" r="6"/><circle cx="487" cy="538" r="5"/><circle cx="585" cy="540" r="6"/><circle cx="695" cy="546" r="5"/><circle cx="787" cy="552" r="5"/><circle cx="858" cy="484" r="6"/><circle cx="957" cy="506" r="6"/><circle cx="1023" cy="552" r="6"/><circle cx="1070" cy="504" r="5"/><circle cx="1170" cy="536" r="6"/><circle cx="1208" cy="509" r="6"/><circle cx="1345" cy="549" r="4"/><circle cx="1410" cy="524" r="5"/><circle cx="1454" cy="559" r="4"/><circle cx="1530" cy="510" r="6"/><circle cx="1673" cy="530" r="5"/><circle cx="1725" cy="484" r="5"/><circle cx="1831" cy="554" r="6"/><circle cx="1899" cy="511" r="4"/><circle cx="1965" cy="531" r="6"/><circle cx="2020" cy="485" r="4"/><circle cx="2095" cy="532" r="5"/><circle cx="2165" cy="525" r="6"/><circle cx="2311" cy="507" r="4"/><circle cx="2391" cy="521" r="6"/><circle cx="2436" cy="531" r="6"/><circle cx="2492" cy="511" r="5"/><circle cx="30" cy="624" r="5"/><circle cx="93" cy="632" r="5"/><circle cx="170" cy="640" r="4"/><circle cx="303" cy="594" r="4"/><circle cx="337" cy="593" r="6"/><circle cx="416" cy="578" r="5"/><circle cx="535" cy="598" r="5"/><circle cx="598" cy="618" r="6"/><circle cx="695" cy="595" r="6"/><circle cx="754" cy="631" r="6"/><circle cx="863" cy="626" r="6"/><circle cx="906" cy="560" r="6"/><circle cx="991" cy="631" r="5"/><circle cx="1076" cy="598" r="4"/><circle cx="1124" cy="584" r="5"/><circle cx="1232" cy="561" r="5"/><circle cx="1284" cy="607" r="5"/><circle cx="1377" cy="595" r="5"/><circle cx="1484" cy="602" r="4"/><circle cx="1539" cy="586" r="6"/><circle cx="1671" cy="638" r="5"/><circle cx="1743" cy="575" r="4"/><circle cx="1838" cy="561" r="6"/><circle cx="1892" cy="577" r="5"/><circle cx="1970" cy="634" r="5"/><circle cx="2010" cy="578" r="5"/><circle cx="2087" cy="627" r="5"/><circle cx="2238" cy="570" r="6"/><circle cx="2277" cy="574" r="5"/><circle cx="2369" cy="624" r="5"/><circle cx="2439" cy="619" r="5"/><circle cx="2519" cy="614" r="4"/><circle cx="16" cy="676" r="5"/><circle cx="89" cy="663" r="6"/><circle cx="229" cy="718" r="5"/><circle cx="269" cy="702" r="4"/><circle cx="340" cy="674" r="5"/><circle cx="440" cy="659" r="4"/><circle cx="546" cy="717" r="5"/><circle cx="635" cy="668" r="4"/><circle cx="717" cy="664" r="6"/><circle cx="729" cy="648" r="6"/><circle cx="854" cy="688" r="4"/><circle cx="941" cy="689" r="4"/><circle cx="961" cy="710" r="5"/><circle cx="1060" cy="640" r="5"/><circle cx="1159" cy="658" r="5"/><circle cx="1208" cy="712" r="5"/><circle cx="1355" cy="660" r="6"/><circle cx="1380" cy="716" r="5"/><circle cx="1470" cy="681" r="5"/><circle cx="1528" cy="690" r="4"/><circle cx="1659" cy="661" r="5"/><circle cx="1758" cy="647" r="6"/><circle cx="1798" cy="657" r="4"/><circle cx="1851" cy="653" r="5"/><circle cx="1935" cy="650" r="4"/><circle cx="2073" cy="678" r="5"/><circle cx="2157" cy="659" r="6"/><circle cx="2240" cy="644" r="6"/><circle cx="2316" cy="674" r="5"/><circle cx="2368" cy="677" r="5"/><circle cx="2445" cy="668" r="5"/><circle cx="2482" cy="695" r="5"/><circle cx="28" cy="783" r="5"/><circle cx="157" cy="733" r="5"/><circle cx="202" cy="780" r="5"/><circle cx="259" cy="762" r="6"/><circle cx="358" cy="737" r="5"/><circle cx="416" cy="778" r="5"/><circle cx="516" cy="798" r="6"/><circle cx="586" cy="754" r="6"/><circle cx="690" cy="741" r="4"/><circle cx="759" cy="755" r="5"/><circle cx="814" cy="761" r="5"/><circle cx="895" cy="797" r="5"/><circle cx="1029" cy="770" r="5"/><circle cx="1100" cy="798" r="5"/><circle cx="1159" cy="748" r="6"/><circle cx="1252" cy="782" r="4"/><circle cx="1281" cy="733" r="6"/><circle cx="1410" cy="791" r="5"/><circle cx="1510" cy="766" r="4"/><circle cx="1569" cy="795" r="6"/><circle cx="1635" cy="755" r="5"/><circle cx="1683" cy="765" r="5"/><circle cx="1837" cy="766" r="4"/><circle cx="1859" cy="728" r="6"/><circle cx="1964" cy="739" r="4"/><circle cx="2075" cy="734" r="5"/><circle cx="2155" cy="738" r="5"/><circle cx="2223" cy="789" r="5"/><circle cx="2249" cy="772" r="4"/><circle cx="2377" cy="753" r="5"/><circle cx="2405" cy="722" r="5"/><circle cx="2500" cy="785" r="5"/><circle cx="28" cy="862" r="5"/><circle cx="117" cy="808" r="5"/><circle cx="161" cy="854" r="6"/><circle cx="262" cy="843" r="6"/><circle cx="393" cy="844" r="5"/><circle cx="442" cy="834" r="5"/><circle cx="496" cy="855" r="5"/><circle cx="588" cy="839" r="5"/><circle cx="695" cy="819" r="5"/><circle cx="780" cy="858" r="5"/><circle cx="817" cy="866" r="6"/><circle cx="917" cy="858" r="5"/><circle cx="1016" cy="836" r="4"/><circle cx="1092" cy="874" r="6"/><circle cx="1142" cy="876" r="5"/><circle cx="1236" cy="850" r="6"/><circle cx="1320" cy="859" r="6"/><circle cx="1428" cy="816" r="4"/><circle cx="1489" cy="828" r="5"/><circle cx="1589" cy="879" r="5"/><circle cx="1650" cy="860" r="5"/><circle cx="1690" cy="847" r="5"/><circle cx="1822" cy="853" r="6"/><circle cx="1908" cy="864" r="5"/><circle cx="1927" cy="810" r="6"/><circle cx="2008" cy="866" r="5"/><circle cx="2158" cy="859" r="5"/><circle cx="2224" cy="820" r="5"/><circle cx="2270" cy="844" r="5"/><circle cx="2378" cy="815" r="5"/><circle cx="2403" cy="828" r="5"/><circle cx="2503" cy="838" r="6"/><circle cx="41" cy="926" r="6"/><circle cx="103" cy="929" r="5"/><circle cx="200" cy="901" r="4"/><circle cx="255" cy="901" r="5"/><circle cx="322" cy="903" r="5"/><circle cx="477" cy="901" r="6"/><circle cx="481" cy="957" r="5"/><circle cx="608" cy="911" r="6"/><circle cx="642" cy="891" r="5"/><circle cx="729" cy="937" r="6"/><circle cx="854" cy="909" r="4"/><circle cx="886" cy="911" r="5"/><circle cx="1034" cy="909" r="4"/><circle cx="1049" cy="908" r="4"/><circle cx="1129" cy="941" r="5"/><circle cx="1256" cy="899" r="5"/><circle cx="1291" cy="952" r="5"/><circle cx="1408" cy="922" r="5"/><circle cx="1506" cy="957" r="5"/><circle cx="1582" cy="885" r="5"/><circle cx="1604" cy="927" r="6"/><circle cx="1686" cy="952" r="5"/><circle cx="1783" cy="918" r="4"/><circle cx="1869" cy="916" r="5"/><circle cx="1977" cy="893" r="5"/><circle cx="2002" cy="958" r="5"/><circle cx="2106" cy="914" r="6"/><circle cx="2231" cy="925" r="5"/><circle cx="2307" cy="947" r="5"/><circle cx="2396" cy="934" r="4"/><circle cx="2455" cy="922" r="5"/><circle cx="2486" cy="940" r="5"/><circle cx="58" cy="1030" r="6"/><circle cx="95" cy="965" r="6"/><circle cx="199" cy="1028" r="5"/><circle cx="287" cy="971" r="6"/><circle cx="366" cy="976" r="4"/><circle cx="427" cy="1033" r="4"/><circle cx="554" cy="975" r="6"/><circle cx="605" cy="1001" r="6"/><circle cx="684" cy="967" r="4"/><circle cx="767" cy="979" r="5"/><circle cx="867" cy="999" r="4"/><circle cx="909" cy="1017" r="5"/><circle cx="1016" cy="1007" r="6"/><circle cx="1118" cy="1022" r="6"/><circle cx="1167" cy="1025" r="6"/><circle cx="1253" cy="1002" r="5"/><circle cx="1335" cy="981" r="4"/><circle cx="1380" cy="1032" r="5"/><circle cx="1462" cy="1016" r="5"/><circle cx="1595" cy="1011" r="4"/><circle cx="1674" cy="1007" r="4"/><circle cx="1744" cy="991" r="4"/><circle cx="1776" cy="988" r="6"/><circle cx="1848" cy="1021" r="6"/><circle cx="1998" cy="961" r="5"/><circle cx="2058" cy="999" r="5"/><circle cx="2115" cy="977" r="5"/><circle cx="2169" cy="988" r="6"/><circle cx="2276" cy="985" r="4"/><circle cx="2327" cy="1014" r="5"/><circle cx="2474" cy="1022" r="4"/><circle cx="2497" cy="1025" r="5"/><circle cx="18" cy="1040" r="5"/><circle cx="90" cy="1096" r="6"/><circle cx="180" cy="1094" r="5"/><circle cx="272" cy="1054" r="5"/><circle cx="386" cy="1089" r="6"/><circle cx="426" cy="1073" r="5"/><circle cx="488" cy="1109" r="5"/><circle cx="634" cy="1047" r="5"/><circle cx="653" cy="1067" r="5"/><circle cx="757" cy="1070" r="5"/><circle cx="809" cy="1077" r="4"/><circle cx="887" cy="1070" r="5"/><circle cx="984" cy="1119" r="4"/><circle cx="1071" cy="1041" r="5"/><circle cx="1131" cy="1047" r="6"/><circle cx="1207" cy="1062" r="6"/><circle cx="1288" cy="1098" r="4"/><circle cx="1424" cy="1053" r="4"/><circle cx="1457" cy="1068" r="4"/><circle cx="1580" cy="1119" r="5"/><circle cx="1669" cy="1046" r="5"/><circle cx="1691" cy="1105" r="4"/><circle cx="1769" cy="1083" r="4"/><circle cx="1893" cy="1095" r="6"/><circle cx="1977" cy="1071" r="5"/><circle cx="2015" cy="1095" r="5"/><circle cx="2137" cy="1108" r="5"/><circle cx="2229" cy="1088" r="5"/><circle cx="2290" cy="1065" r="5"/><circle cx="2386" cy="1098" r="4"/><circle cx="2438" cy="1057" r="6"/><circle cx="2503" cy="1111" r="5"/><circle cx="61" cy="1145" r="6"/><circle cx="124" cy="1125" r="5"/><circle cx="165" cy="1150" r="5"/><circle cx="309" cy="1168" r="5"/><circle cx="376" cy="1184" r="6"/><circle cx="462" cy="1192" r="4"/><circle cx="556" cy="1161" r="5"/><circle cx="632" cy="1170" r="4"/><circle cx="699" cy="1187" r="4"/><circle cx="758" cy="1143" r="5"/><circle cx="854" cy="1186" r="6"/><circle cx="930" cy="1161" r="5"/><circle cx="991" cy="1129" r="5"/><circle cx="1086" cy="1139" r="5"/><circle cx="1126" cy="1193" r="5"/><circle cx="1249" cy="1179" r="5"/><circle cx="1315" cy="1192" r="5"/><circle cx="1436" cy="1166" r="4"/><circle cx="1503" cy="1164" r="6"/><circle cx="1579" cy="1147" r="5"/><circle cx="1634" cy="1167" r="5"/><circle cx="1709" cy="1132" r="6"/><circle cx="1778" cy="1200" r="6"/><circle cx="1882" cy="1181" r="6"/><circle cx="1935" cy="1187" r="4"/><circle cx="2023" cy="1122" r="5"/><circle cx="2110" cy="1191" r="6"/><circle cx="2220" cy="1140" r="5"/><circle cx="2291" cy="1191" r="4"/><circle cx="2368" cy="1167" r="6"/><circle cx="2471" cy="1138" r="4"/><circle cx="2555" cy="1195" r="5"/><circle cx="-5" cy="1195" r="5"/><circle cx="53" cy="1202" r="4"/><circle cx="118" cy="1229" r="6"/><circle cx="204" cy="1257" r="5"/><circle cx="241" cy="1264" r="5"/><circle cx="321" cy="1233" r="4"/><circle cx="466" cy="1237" r="6"/><circle cx="511" cy="1203" r="6"/><circle cx="637" cy="1259" r="6"/><circle cx="686" cy="1267" r="5"/><circle cx="744" cy="1273" r="5"/><circle cx="831" cy="1215" r="5"/><circle cx="930" cy="1201" r="5"/><circle cx="986" cy="1230" r="4"/><circle cx="1062" cy="1273" r="5"/><circle cx="1137" cy="1270" r="4"/><circle cx="1208" cy="1257" r="5"/><circle cx="1336" cy="1244" r="6"/><circle cx="1371" cy="1256" r="6"/><circle cx="1471" cy="1201" r="6"/><circle cx="1543" cy="1216" r="6"/><circle cx="1672" cy="1257" r="5"/><circle cx="1692" cy="1223" r="5"/><circle cx="1779" cy="1212" r="4"/><circle cx="1840" cy="1204" r="6"/><circle cx="1956" cy="1260" r="4"/><circle cx="2032" cy="1217" r="5"/><circle cx="2124" cy="1216" r="5"/><circle cx="2162" cy="1250" r="6"/><circle cx="2247" cy="1211" r="5"/><circle cx="2334" cy="1272" r="5"/><circle cx="2456" cy="1240" r="5"/><circle cx="2488" cy="1242" r="6"/><circle cx="47" cy="1317" r="5"/><circle cx="101" cy="1329" r="5"/><circle cx="192" cy="1338" r="4"/><circle cx="287" cy="1348" r="5"/><circle cx="392" cy="1355" r="6"/><circle cx="412" cy="1323" r="4"/><circle cx="535" cy="1359" r="4"/><circle cx="590" cy="1299" r="4"/><circle cx="670" cy="1333" r="5"/><circle cx="770" cy="1319" r="6"/><circle cx="857" cy="1280" r="6"/><circle cx="928" cy="1311" r="5"/><circle cx="1025" cy="1353" r="6"/><circle cx="1061" cy="1285" r="5"/><circle cx="1122" cy="1317" r="4"/><circle cx="1217" cy="1347" r="5"/><circle cx="1346" cy="1317" r="5"/><circle cx="1362" cy="1287" r="5"/><circle cx="1513" cy="1292" r="5"/><circle cx="1520" cy="1328" r="4"/><circle cx="1667" cy="1295" r="4"/><circle cx="1743" cy="1315" r="5"/><circle cx="1825" cy="1301" r="5"/><circle cx="1903" cy="1296" r="4"/><circle cx="1989" cy="1286" r="6"/><circle cx="2047" cy="1346" r="4"/><circle cx="2144" cy="1344" r="4"/><circle cx="2206" cy="1352" r="5"/><circle cx="2264" cy="1347" r="5"/><circle cx="2332" cy="1309" r="6"/><circle cx="2412" cy="1338" r="5"/><circle cx="2485" cy="1335" r="6"/><circle cx="26" cy="1425" r="4"/><circle cx="157" cy="1372" r="6"/><circle cx="192" cy="1417" r="6"/><circle cx="312" cy="1423" r="4"/><circle cx="366" cy="1425" r="5"/><circle cx="404" cy="1410" r="5"/><circle cx="482" cy="1373" r="4"/><circle cx="567" cy="1424" r="6"/><circle cx="660" cy="1402" r="5"/><circle cx="765" cy="1368" r="6"/><circle cx="801" cy="1400" r="6"/><circle cx="906" cy="1432" r="6"/><circle cx="968" cy="1433" r="5"/><circle cx="1055" cy="1414" r="4"/><circle cx="1128" cy="1411" r="4"/><circle cx="1271" cy="1375" r="6"/><circle cx="1339" cy="1370" r="4"/><circle cx="1384" cy="1400" r="4"/><circle cx="1466" cy="1410" r="4"/><circle cx="1599" cy="1431" r="5"/><circle cx="1630" cy="1375" r="5"/><circle cx="1714" cy="1419" r="5"/><circle cx="1831" cy="1374" r="6"/><circle cx="1848" cy="1439" r="5"/><circle cx="1848" cy="-1" r="5"/><circle cx="1940" cy="1424" r="4"/><circle cx="2040" cy="1410" r="6"/><circle cx="2105" cy="1421" r="6"/><circle cx="2215" cy="1406" r="5"/><circle cx="2277" cy="1360" r="4"/><circle cx="2383" cy="1410" r="5"/><circle cx="2424" cy="1381" r="6"/><circle cx="2495" cy="1375" r="4"/><path stroke="#fff" d="M71 1L82 27M71 1L-0 23M71 1L23 81M71 1L26 -15M71 1L157 -68M2631 1L2560 23M71 1441L26 1425M71 1441L157 1372M82 27L-0 23M82 27L23 81M82 27L26 -15M2642 27L2560 23M82 1467L26 1425M234 64L310 48M234 64L259 92M234 64L192 -23M234 1504L192 1417M310 48L374 69M310 48L259 92M310 48L364 93M310 48L312 -17M310 1488L312 1423M374 69L445 58M374 69L364 93M374 69L470 89M374 69L366 -15M374 1509L366 1425M445 58L508 39M445 58L364 93M445 58L470 89M508 39L470 89M508 39L552 129M508 39L567 -16M508 1479L567 1424M627 68L682 78M627 68L552 129M627 68L634 104M627 68L705 80M627 68L567 -16M627 1508L567 1424M682 78L749 19M682 78L634 104M682 78L705 80M682 78L756 104M749 19L802 40M749 19L705 80M749 19L756 104M749 19L801 -40M749 1459L801 1400M802 40L756 104M802 40L881 82M802 40L801 -40M802 1480L801 1400M923 33L984 15M923 33L881 82M923 33L1000 99M923 33L906 -8M923 33L968 -7M923 1473L906 1432M923 1473L968 1433M984 15L1000 99M984 15L906 -8M984 15L968 -7M984 15L1055 -26M984 1455L906 1432M984 1455L968 1433M984 1455L1055 1414M1094 45L1154 65M1094 45L1000 99M1094 45L1068 130M1094 45L1055 -26M1094 45L1128 -29M1094 1485L1055 1414M1094 1485L1128 1411M1154 65L1068 130M1154 65L1179 150M1154 65L1266 103M1154 65L1128 -29M1154 1505L1128 1411M1278 77L1305 68M1278 77L1266 103M1278 77L1333 115M1305 68L1266 103M1305 68L1333 115M1305 68L1383 89M1403 15L1488 72M1403 15L1383 89M1403 15L1384 -40M1403 15L1466 -30M1403 1455L1384 1400M1403 1455L1466 1410M1488 72L1522 20M1488 72L1469 154M1488 72L1559 82M1522 20L1559 82M1522 20L1466 -30M1522 20L1599 -9M1522 1460L1466 1410M1522 1460L1599 1431M1634 3L1707 65M1634 3L1621 81M1634 3L1599 -9M1634 3L1630 -65M1634 3L1714 -21M1634 1443L1599 1431M1634 1443L1630 1375M1634 1443L1714 1419M1707 65L1774 55M1707 65L1621 81M1707 65L1681 156M1707 65L1714 -21M1707 1505L1714 1419M1774 55L1808 140M1774 55L1872 94M1774 55L1714 -21M1774 55L1848 -1M1774 1495L1714 1419M1774 1495L1848 1439M1909 22L1980 33M1909 22L1872 94M1909 22L1831 -66M1909 22L1848 -1M1909 22L1940 -16M1909 1462L1831 1374M1909 1462L1848 1439M1909 1462L1940 1424M1980 33L2050 33M1980 33L2013 132M1980 33L1940 -16M1980 33L2040 -30M1980 1473L1940 1424M1980 1473L2040 1410M2050 33L2097 49M2050 33L2040 -30M2050 33L2105 -19M2050 1473L2040 1410M2050 1473L2105 1421M2097 49L2087 119M2097 49L2162 130M2097 49L2040 -30M2097 49L2105 -19M2097 1489L2040 1410M2097 1489L2105 1421M2214 35L2308 5M2214 35L2162 130M2214 35L2215 -34M2214 1475L2215 1406M2308 5L2309 88M2308 5L2277 -80M2308 5L2383 -30M2308 1445L2277 1360M2308 1445L2383 1410M2399 77L2403 54M2399 77L2309 88M2399 77L2337 104M2399 77L2444 139M2399 77L2484 98M2403 54L2337 104M2403 54L2383 -30M2403 1494L2383 1410M2560 23L2583 81M2560 23L2586 -15M-0 23L23 81M-0 23L26 -15M-0 1463L26 1425M2560 1463L2586 1425M23 81L-76 98M23 81L26 -15M2583 81L2484 98M23 1521L26 1425M125 144L178 160M125 144L70 188M125 144L96 210M125 144L202 222M178 160L259 92M178 160L96 210M178 160L202 222M178 160L257 168M259 92L364 93M259 92L257 168M364 93L328 176M470 89L552 129M470 89L431 182M552 129L634 104M552 129L517 214M634 104L705 80M634 104L689 195M705 80L756 104M756 104L731 162M830 159L881 82M830 159L731 162M830 159L810 182M830 159L835 241M881 82L906 -8M881 1522L906 1432M1000 99L1068 130M1068 130L1020 225M1068 130L1104 196M1179 150L1104 196M1179 150L1175 225M1266 103L1333 115M1333 115L1383 89M1333 115L1400 187M1383 89L1469 154M1383 89L1400 187M1469 154L1559 82M1469 154L1400 187M1469 154L1467 207M1559 82L1621 81M1559 82L1599 -9M1559 1522L1599 1431M1621 81L1681 156M1621 81L1599 -9M1621 1521L1599 1431M1681 156L1628 229M1681 156L1740 203M1681 156L1639 246M1808 140L1872 94M1808 140L1740 203M1808 140L1762 235M1808 140L1901 175M1872 94L1901 175M1872 94L1848 -1M1872 1534L1848 1439M1957 145L2013 132M1957 145L1901 175M1957 145L1965 228M2013 132L2087 119M2013 132L2040 195M2087 119L2162 130M2087 119L2040 195M2087 119L2114 208M2162 130L2194 178M2309 88L2337 104M2309 88L2300 174M2309 88L2360 165M2337 104L2300 174M2337 104L2360 165M2444 139L2484 98M2444 139L2360 165M2444 139L2422 174M2444 139L2520 178M2484 98L2422 174M2484 98L2520 178M70 188L96 210M70 188L33 244M70 188L83 275M96 210L33 244M96 210L83 275M202 222L257 168M202 222L232 266M202 222L245 281M257 168L328 176M257 168L232 266M328 176L431 182M328 176L358 269M431 182L517 214M431 182L358 269M517 214L588 224M517 214L559 284M588 224L689 195M588 224L559 284M588 224L590 285M689 195L731 162M689 195L725 240M731 162L810 182M731 162L725 240M810 182L725 240M810 182L835 241M958 220L1020 225M958 220L904 284M958 220L1029 292M1020 225L1104 196M1020 225L1029 292M1020 225L1100 259M1104 196L1175 225M1104 196L1100 259M1175 225L1272 211M1175 225L1100 259M1175 225L1188 265M1272 211L1301 238M1272 211L1188 265M1272 211L1228 293M1272 211L1328 275M1301 238L1228 293M1301 238L1328 275M1301 238L1372 297M1301 238L1338 337M1400 187L1467 207M1467 207L1577 198M1467 207L1477 304M1467 207L1533 247M1577 198L1628 229M1577 198L1533 247M1577 198L1639 246M1628 229L1533 247M1628 229L1639 246M1628 229L1723 263M1740 203L1762 235M1740 203L1723 263M1740 203L1772 260M1762 235L1723 263M1762 235L1772 260M1901 175L1965 228M1901 175L1906 263M1965 228L1906 263M1965 228L2049 244M2040 195L2114 208M2040 195L2049 244M2040 195L2082 266M2114 208L2194 178M2114 208L2049 244M2114 208L2082 266M2194 178L2300 174M2194 178L2211 250M2300 174L2360 165M2300 174L2288 267M2360 165L2422 174M2422 174L2520 178M2422 174L2485 264M2520 178L2593 244M2520 178L2485 264M-40 178L33 244M33 244L83 275M33 244L-75 264M2593 244L2485 264M83 275L74 388M83 275L152 337M232 266L245 281M232 266L232 354M245 281L232 354M245 281L309 352M245 281L341 332M358 269L427 319M358 269L309 352M358 269L341 332M427 319L341 332M427 319L457 357M427 319L522 325M559 284L590 285M559 284L522 325M559 284L634 343M590 285L684 309M590 285L522 325M590 285L634 343M684 309L725 240M684 309L634 343M684 309L686 382M684 309L757 386M725 240L835 241M835 241L904 284M1029 292L1100 259M1029 292L985 381M1029 292L1091 358M1100 259L1188 265M1188 265L1228 293M1188 265L1213 362M1228 293L1328 275M1228 293L1213 362M1328 275L1372 297M1328 275L1338 337M1372 297L1477 304M1372 297L1338 337M1372 297L1418 348M1477 304L1533 247M1477 304L1418 348M1477 304L1482 365M1533 247L1639 246M1639 246L1723 263M1723 263L1772 260M1772 260L1726 374M1772 260L1855 324M1906 263L1962 319M1906 263L1855 324M1906 263L1996 336M1962 319L1855 324M1962 319L1996 336M2049 244L2082 266M2049 244L2076 346M2082 266L2076 346M2082 266L2121 349M2211 250L2288 267M2288 267L2340 291M2340 291L2303 380M2340 291L2358 344M2472 292L2485 264M2472 292L2415 384M2472 292L2501 331M2485 264L2501 331M74 388L152 337M74 388L20 422M74 388L158 476M74 388L166 446M152 337L232 354M232 354L309 352M232 354L241 451M309 352L341 332M341 332L457 357M457 357L522 325M457 357L456 438M522 325L568 420M634 343L686 382M634 343L568 420M686 382L757 386M686 382L698 476M686 382L733 467M757 386L803 365M757 386L698 476M757 386L733 467M803 365L877 400M899 385L985 381M899 385L877 400M899 385L893 460M899 385L986 442M985 381L1091 358M985 381L877 400M985 381L986 442M1091 358L1123 361M1091 358L1100 447M1123 361L1213 362M1123 361L1100 447M1123 361L1140 444M1213 362L1219 440M1338 337L1418 348M1338 337L1310 411M1418 348L1482 365M1418 348L1395 456M1482 365L1595 365M1482 365L1395 456M1482 365L1505 427M1595 365L1623 378M1595 365L1505 427M1595 365L1604 441M1623 378L1726 374M1623 378L1555 470M1623 378L1604 441M1726 374L1779 390M1726 374L1756 447M1726 374L1725 484M1779 390L1855 324M1779 390L1756 447M1779 390L1784 476M1996 336L2076 346M2076 346L2121 349M2076 346L2098 437M2121 349L2174 379M2121 349L2098 437M2121 349L2207 427M2174 379L2207 427M2303 380L2358 344M2303 380L2288 431M2303 380L2399 404M2358 344L2415 384M2358 344L2288 431M2358 344L2399 404M2415 384L2501 331M2415 384L2399 404M2415 384L2477 423M2501 331L2477 423M20 422L-46 470M2580 422L2514 470M158 476L166 446M158 476L241 451M158 476L128 550M158 476L225 499M166 446L241 451M166 446L128 550M166 446L225 499M241 451L225 499M352 466L316 537M352 466L380 491M456 438L515 456M456 438L477 509M515 456L568 420M515 456L477 509M515 456L487 538M515 456L585 540M698 476L733 467M698 476L695 546M733 467L695 546M877 400L893 460M877 400L858 484M893 460L986 442M893 460L858 484M893 460L957 506M986 442L957 506M1100 447L1140 444M1100 447L1070 504M1100 447L1170 536M1140 444L1219 440M1140 444L1170 536M1140 444L1208 509M1219 440L1310 411M1219 440L1208 509M1310 411L1395 456M1395 456L1345 549M1395 456L1410 524M1505 427L1555 470M1505 427L1604 441M1505 427L1530 510M1555 470L1604 441M1555 470L1530 510M1604 441L1530 510M1756 447L1784 476M1756 447L1673 530M1756 447L1725 484M1784 476L1725 484M1784 476L1831 554M1886 460L1899 511M1999 464L2064 478M1999 464L1965 531M1999 464L2020 485M2064 478L2098 437M2064 478L2020 485M2064 478L2095 532M2064 478L2165 525M2207 427L2288 431M2207 427L2165 525M2288 431L2311 507M2399 404L2477 423M2477 423L2514 470M2477 423L2492 511M2514 470L2604 536M2514 470L2436 531M2514 470L2492 511M-46 470L44 536M44 536L128 550M44 536L30 624M128 550L93 632M128 550L170 640M225 499L316 537M316 537L380 491M316 537L303 594M316 537L337 593M380 491L477 509M380 491L337 593M380 491L416 578M477 509L487 538M477 509L416 578M487 538L585 540M487 538L416 578M487 538L535 598M585 540L535 598M585 540L598 618M695 546L787 552M695 546L695 595M787 552L858 484M787 552L754 631M787 552L863 626M858 484L957 506M858 484L906 560M957 506L1023 552M957 506L906 560M1023 552L1070 504M1023 552L991 631M1023 552L1076 598M1023 552L1060 640M1070 504L1076 598M1070 504L1124 584M1170 536L1208 509M1170 536L1124 584M1170 536L1232 561M1208 509L1232 561M1345 549L1410 524M1345 549L1284 607M1345 549L1377 595M1410 524L1454 559M1410 524L1377 595M1410 524L1484 602M1454 559L1530 510M1454 559L1377 595M1454 559L1484 602M1454 559L1539 586M1530 510L1539 586M1673 530L1725 484M1673 530L1671 638M1673 530L1743 575M1725 484L1743 575M1831 554L1899 511M1831 554L1743 575M1831 554L1838 561M1831 554L1892 577M1899 511L1965 531M1899 511L1838 561M1899 511L1892 577M1965 531L2020 485M1965 531L1892 577M1965 531L2010 578M2020 485L2095 532M2020 485L2010 578M2095 532L2165 525M2095 532L2010 578M2095 532L2087 627M2165 525L2238 570M2311 507L2391 521M2311 507L2238 570M2311 507L2277 574M2391 521L2436 531M2391 521L2492 511M2391 521L2369 624M2436 531L2492 511M2436 531L2439 619M30 624L93 632M30 624L-41 614M30 624L16 676M30 624L89 663M2590 624L2519 614M93 632L170 640M93 632L16 676M93 632L89 663M170 640L89 663M170 640L229 718M303 594L337 593M303 594L340 674M337 593L416 578M337 593L340 674M416 578L440 659M535 598L598 618M535 598L440 659M535 598L546 717M598 618L695 595M598 618L546 717M598 618L635 668M695 595L754 631M695 595L717 664M695 595L729 648M754 631L863 626M754 631L717 664M754 631L729 648M863 626L906 560M863 626L854 688M863 626L941 689M991 631L1076 598M991 631L941 689M991 631L961 710M991 631L1060 640M1076 598L1124 584M1076 598L1060 640M1124 584L1060 640M1124 584L1159 658M1232 561L1284 607M1284 607L1377 595M1284 607L1355 660M1377 595L1355 660M1484 602L1539 586M1484 602L1470 681M1484 602L1528 690M1539 586L1470 681M1539 586L1528 690M1671 638L1659 661M1671 638L1758 647M1743 575L1838 561M1743 575L1758 647M1838 561L1892 577M1838 561L1851 653M1892 577L1935 650M1970 634L2010 578M1970 634L1935 650M1970 634L2073 678M1970 634L1964 739M2010 578L2087 627M2087 627L2073 678M2087 627L2157 659M2087 627L2075 734M2238 570L2277 574M2238 570L2240 644M2277 574L2240 644M2369 624L2439 619M2369 624L2316 674M2369 624L2368 677M2369 624L2445 668M2439 619L2519 614M2439 619L2445 668M2439 619L2482 695M2519 614L2576 676M2519 614L2482 695M-41 614L16 676M16 676L89 663M89 663L157 733M229 718L269 702M229 718L157 733M229 718L202 780M229 718L259 762M269 702L340 674M269 702L259 762M269 702L358 737M340 674L440 659M340 674L358 737M546 717L516 798M546 717L586 754M635 668L717 664M635 668L729 648M635 668L586 754M717 664L729 648M717 664L690 741M729 648L690 741M854 688L941 689M854 688L814 761M941 689L961 710M961 710L895 797M961 710L1029 770M1060 640L1159 658M1159 658L1208 712M1159 658L1159 748M1208 712L1159 748M1208 712L1252 782M1208 712L1281 733M1355 660L1380 716M1355 660L1281 733M1380 716L1470 681M1380 716L1281 733M1380 716L1410 791M1380 716L1428 816M1470 681L1528 690M1470 681L1510 766M1528 690L1510 766M1659 661L1758 647M1659 661L1635 755M1659 661L1683 765M1758 647L1798 657M1758 647L1851 653M1798 657L1851 653M1798 657L1859 728M1851 653L1935 650M1851 653L1859 728M1935 650L1964 739M2073 678L2157 659M2073 678L2075 734M2073 678L2155 738M2157 659L2240 644M2157 659L2075 734M2157 659L2155 738M2240 644L2316 674M2316 674L2368 677M2316 674L2377 753M2368 677L2445 668M2368 677L2377 753M2368 677L2405 722M2445 668L2482 695M2445 668L2405 722M2482 695L2405 722M2482 695L2500 785M28 783L-60 785M28 783L28 862M28 783L117 808M28 783L-57 838M2588 783L2500 785M2588 783L2503 838M157 733L202 780M157 733L117 808M202 780L259 762M202 780L161 854M202 780L262 843M259 762L358 737M259 762L262 843M358 737L416 778M416 778L393 844M416 778L442 834M516 798L586 754M516 798L442 834M516 798L496 855M516 798L588 839M586 754L690 741M586 754L588 839M690 741L759 755M690 741L695 819M759 755L814 761M759 755L695 819M814 761L895 797M814 761L780 858M814 761L817 866M895 797L917 858M1029 770L1100 798M1029 770L1016 836M1100 798L1159 748M1100 798L1016 836M1100 798L1092 874M1100 798L1142 876M1159 748L1252 782M1159 748L1281 733M1252 782L1281 733M1252 782L1236 850M1252 782L1320 859M1410 791L1510 766M1410 791L1428 816M1410 791L1489 828M1510 766L1569 795M1510 766L1489 828M1569 795L1635 755M1569 795L1489 828M1569 795L1589 879M1569 795L1582 885M1635 755L1683 765M1635 755L1690 847M1683 765L1650 860M1683 765L1690 847M1837 766L1859 728M1837 766L1822 853M1859 728L1964 739M1859 728L1927 810M1964 739L2075 734M1964 739L1927 810M2075 734L2155 738M2155 738L2223 789M2155 738L2249 772M2223 789L2249 772M2223 789L2158 859M2223 789L2224 820M2223 789L2270 844M2249 772L2224 820M2249 772L2270 844M2377 753L2405 722M2377 753L2378 815M2377 753L2403 828M2405 722L2378 815M2500 785L2403 828M2500 785L2503 838M28 862L117 808M28 862L-57 838M28 862L41 926M28 862L103 929M2588 862L2503 838M117 808L161 854M161 854L103 929M161 854L200 901M262 843L200 901M262 843L255 901M262 843L322 903M393 844L442 834M393 844L496 855M393 844L322 903M393 844L477 901M442 834L496 855M442 834L477 901M496 855L588 839M496 855L477 901M588 839L608 911M588 839L642 891M695 819L780 858M695 819L642 891M695 819L729 937M780 858L817 866M780 858L729 937M780 858L854 909M817 866L917 858M817 866L854 909M817 866L886 911M917 858L854 909M917 858L886 911M1016 836L1034 909M1016 836L1049 908M1092 874L1142 876M1092 874L1034 909M1092 874L1049 908M1092 874L1129 941M1142 876L1236 850M1142 876L1129 941M1236 850L1320 859M1236 850L1256 899M1236 850L1291 952M1320 859L1256 899M1320 859L1291 952M1320 859L1408 922M1428 816L1489 828M1589 879L1650 860M1589 879L1582 885M1589 879L1604 927M1650 860L1690 847M1650 860L1582 885M1650 860L1604 927M1822 853L1908 864M1822 853L1783 918M1822 853L1869 916M1908 864L1927 810M1908 864L2008 866M1908 864L1869 916M1908 864L1977 893M1927 810L2008 866M1927 810L1977 893M2008 866L1977 893M2008 866L2002 958M2008 866L1998 961M2158 859L2224 820M2158 859L2270 844M2158 859L2106 914M2158 859L2231 925M2224 820L2270 844M2270 844L2231 925M2378 815L2403 828M2378 815L2396 934M2403 828L2503 838M2403 828L2455 922M2503 838L2455 922M41 926L103 929M41 926L58 1030M41 926L95 965M103 929L95 965M200 901L255 901M255 901L322 903M255 901L287 971M322 903L287 971M322 903L366 976M477 901L481 957M477 901L554 975M481 957L427 1033M481 957L554 975M608 911L642 891M608 911L554 975M608 911L605 1001M608 911L684 967M642 891L729 937M642 891L684 967M729 937L684 967M729 937L767 979M854 909L886 911M854 909L867 999M886 911L867 999M886 911L909 1017M1034 909L1049 908M1034 909L1016 1007M1049 908L1129 941M1049 908L1016 1007M1129 941L1118 1022M1256 899L1291 952M1256 899L1253 1002M1256 899L1335 981M1291 952L1253 1002M1291 952L1335 981M1408 922L1506 957M1408 922L1335 981M1408 922L1380 1032M1408 922L1462 1016M1506 957L1582 885M1506 957L1462 1016M1506 957L1595 1011M1582 885L1604 927M1604 927L1686 952M1604 927L1595 1011M1686 952L1674 1007M1686 952L1744 991M1686 952L1776 988M1686 952L1669 1046M1783 918L1869 916M1783 918L1744 991M1783 918L1776 988M1783 918L1848 1021M1869 916L1848 1021M1977 893L2002 958M1977 893L1998 961M2002 958L2106 914M2002 958L1998 961M2002 958L2058 999M2106 914L2058 999M2106 914L2115 977M2106 914L2169 988M2231 925L2307 947M2231 925L2169 988M2231 925L2276 985M2307 947L2396 934M2307 947L2276 985M2307 947L2327 1014M2396 934L2455 922M2396 934L2486 940M2396 934L2327 1014M2455 922L2486 940M2486 940L2474 1022M2486 940L2497 1025M58 1030L95 965M58 1030L18 1040M58 1030L90 1096M95 965L199 1028M95 965L18 1040M199 1028L287 971M199 1028L180 1094M199 1028L272 1054M287 971L366 976M287 971L272 1054M366 976L427 1033M366 976L426 1073M427 1033L386 1089M427 1033L426 1073M554 975L605 1001M554 975L634 1047M605 1001L684 967M605 1001L634 1047M605 1001L653 1067M684 967L767 979M767 979L867 999M767 979L757 1070M767 979L809 1077M867 999L909 1017M867 999L887 1070M909 1017L1016 1007M909 1017L887 1070M1016 1007L1071 1041M1118 1022L1167 1025M1118 1022L1071 1041M1118 1022L1131 1047M1118 1022L1207 1062M1167 1025L1253 1002M1167 1025L1071 1041M1167 1025L1131 1047M1167 1025L1207 1062M1253 1002L1335 981M1253 1002L1207 1062M1335 981L1380 1032M1380 1032L1462 1016M1380 1032L1424 1053M1380 1032L1457 1068M1462 1016L1424 1053M1462 1016L1457 1068M1595 1011L1674 1007M1595 1011L1669 1046M1674 1007L1744 991M1674 1007L1669 1046M1744 991L1776 988M1776 988L1848 1021M1776 988L1769 1083M1848 1021L1769 1083M1848 1021L1893 1095M1998 961L2058 999M1998 961L1977 1071M2058 999L2115 977M2058 999L2169 988M2115 977L2169 988M2169 988L2276 985M2276 985L2327 1014M2276 985L2290 1065M2327 1014L2290 1065M2474 1022L2497 1025M2474 1022L2438 1057M2497 1025L2578 1040M2497 1025L2438 1057M2497 1025L2503 1111M-63 1025L18 1040M18 1040L90 1096M18 1040L-57 1111M2578 1040L2503 1111M90 1096L61 1145M90 1096L124 1125M90 1096L165 1150M180 1094L272 1054M180 1094L124 1125M180 1094L165 1150M272 1054L309 1168M386 1089L426 1073M386 1089L488 1109M386 1089L309 1168M386 1089L376 1184M426 1073L488 1109M488 1109L462 1192M488 1109L556 1161M488 1109L511 1203M634 1047L653 1067M653 1067L757 1070M653 1067L632 1170M757 1070L809 1077M757 1070L758 1143M809 1077L887 1070M809 1077L758 1143M984 1119L930 1161M984 1119L991 1129M984 1119L1086 1139M1071 1041L1131 1047M1071 1041L1086 1139M1131 1047L1207 1062M1131 1047L1086 1139M1207 1062L1288 1098M1288 1098L1249 1179M1288 1098L1315 1192M1424 1053L1457 1068M1457 1068L1436 1166M1580 1119L1503 1164M1580 1119L1579 1147M1580 1119L1634 1167M1580 1119L1543 1216M1669 1046L1691 1105M1691 1105L1769 1083M1691 1105L1634 1167M1691 1105L1709 1132M1769 1083L1709 1132M1893 1095L1977 1071M1893 1095L1882 1181M1893 1095L1935 1187M1977 1071L2015 1095M1977 1071L2023 1122M2015 1095L2023 1122M2137 1108L2229 1088M2137 1108L2110 1191M2137 1108L2220 1140M2137 1108L2124 1216M2229 1088L2290 1065M2229 1088L2220 1140M2290 1065L2386 1098M2290 1065L2220 1140M2386 1098L2438 1057M2386 1098L2368 1167M2438 1057L2503 1111M2438 1057L2471 1138M2503 1111L2471 1138M2503 1111L2555 1195M61 1145L124 1125M61 1145L-5 1195M61 1145L53 1202M61 1145L118 1229M2621 1145L2555 1195M124 1125L165 1150M124 1125L118 1229M165 1150L118 1229M165 1150L204 1257M309 1168L376 1184M309 1168L241 1264M309 1168L321 1233M376 1184L462 1192M376 1184L321 1233M376 1184L466 1237M462 1192L556 1161M462 1192L466 1237M462 1192L511 1203M556 1161L632 1170M556 1161L466 1237M556 1161L511 1203M632 1170L699 1187M632 1170L637 1259M699 1187L758 1143M699 1187L637 1259M699 1187L686 1267M699 1187L744 1273M758 1143L854 1186M758 1143L831 1215M854 1186L930 1161M854 1186L831 1215M854 1186L930 1201M854 1186L857 1280M930 1161L991 1129M930 1161L930 1201M930 1161L986 1230M991 1129L1086 1139M991 1129L930 1201M1086 1139L1126 1193M1126 1193L1137 1270M1126 1193L1208 1257M1249 1179L1315 1192M1249 1179L1208 1257M1249 1179L1336 1244M1315 1192L1336 1244M1315 1192L1371 1256M1315 1192L1362 1287M1436 1166L1503 1164M1436 1166L1471 1201M1503 1164L1579 1147M1503 1164L1471 1201M1503 1164L1543 1216M1579 1147L1634 1167M1579 1147L1543 1216M1634 1167L1709 1132M1634 1167L1692 1223M1709 1132L1778 1200M1709 1132L1692 1223M1778 1200L1882 1181M1778 1200L1692 1223M1778 1200L1779 1212M1778 1200L1840 1204M1882 1181L1935 1187M1882 1181L1779 1212M1882 1181L1840 1204M1935 1187L2023 1122M1935 1187L1840 1204M1935 1187L1956 1260M2023 1122L2110 1191M2023 1122L2032 1217M2110 1191L2032 1217M2110 1191L2124 1216M2110 1191L2162 1250M2220 1140L2291 1191M2220 1140L2247 1211M2291 1191L2368 1167M2291 1191L2247 1211M2291 1191L2334 1272M2368 1167L2471 1138M2368 1167L2334 1272M2368 1167L2456 1240M2471 1138L2488 1242M2555 1195L2613 1202M2555 1195L2456 1240M2555 1195L2488 1242M-5 1195L53 1202M53 1202L118 1229M53 1202L47 1317M118 1229L204 1257M204 1257L241 1264M204 1257L192 1338M241 1264L321 1233M241 1264L192 1338M241 1264L287 1348M466 1237L511 1203M466 1237L412 1323M637 1259L686 1267M637 1259L590 1299M637 1259L670 1333M686 1267L744 1273M686 1267L670 1333M686 1267L770 1319M744 1273L770 1319M744 1273L765 1368M831 1215L857 1280M930 1201L986 1230M930 1201L857 1280M986 1230L1062 1273M986 1230L928 1311M986 1230L1061 1285M1062 1273L1137 1270M1062 1273L1025 1353M1062 1273L1061 1285M1062 1273L1122 1317M1137 1270L1208 1257M1137 1270L1061 1285M1137 1270L1122 1317M1208 1257L1122 1317M1208 1257L1217 1347M1336 1244L1371 1256M1336 1244L1346 1317M1336 1244L1362 1287M1371 1256L1471 1201M1371 1256L1346 1317M1371 1256L1362 1287M1471 1201L1543 1216M1471 1201L1513 1292M1543 1216L1513 1292M1672 1257L1692 1223M1672 1257L1667 1295M1672 1257L1743 1315M1672 1257L1630 1375M1692 1223L1667 1295M1779 1212L1840 1204M1779 1212L1825 1301M1840 1204L1825 1301M1956 1260L2032 1217M1956 1260L1903 1296M1956 1260L1989 1286M2032 1217L2124 1216M2032 1217L1989 1286M2124 1216L2162 1250M2162 1250L2247 1211M2162 1250L2144 1344M2162 1250L2206 1352M2334 1272L2264 1347M2334 1272L2332 1309M2456 1240L2488 1242M2456 1240L2485 1335M2488 1242L2485 1335M47 1317L101 1329M47 1317L26 1425M47 1317L157 1372M101 1329L192 1338M101 1329L157 1372M192 1338L157 1372M192 1338L192 1417M287 1348L392 1355M287 1348L192 1417M287 1348L312 1423M287 1348L366 1425M392 1355L412 1323M392 1355L366 1425M392 1355L404 1410M392 1355L482 1373M412 1323L404 1410M412 1323L482 1373M535 1359L590 1299M535 1359L482 1373M535 1359L567 1424M590 1299L670 1333M670 1333L660 1402M770 1319L857 1280M770 1319L765 1368M770 1319L801 1400M857 1280L928 1311M928 1311L1025 1353M1025 1353L1061 1285M1025 1353L968 1433M1025 1353L1055 1414M1061 1285L1122 1317M1122 1317L1217 1347M1217 1347L1128 1411M1217 1347L1271 1375M1346 1317L1362 1287M1346 1317L1271 1375M1346 1317L1339 1370M1362 1287L1339 1370M1513 1292L1520 1328M1520 1328L1466 1410M1667 1295L1743 1315M1667 1295L1630 1375M1743 1315L1825 1301M1743 1315L1714 1419M1743 1315L1831 1374M1825 1301L1903 1296M1825 1301L1831 1374M1903 1296L1989 1286M1903 1296L1831 1374M1989 1286L2047 1346M2047 1346L2144 1344M2047 1346L2040 1410M2047 1346L2105 1421M2144 1344L2206 1352M2144 1344L2105 1421M2144 1344L2215 1406M2206 1352L2264 1347M2206 1352L2215 1406M2206 1352L2277 1360M2264 1347L2332 1309M2264 1347L2215 1406M2264 1347L2277 1360M2332 1309L2412 1338M2332 1309L2277 1360M2332 1309L2383 1410M2412 1338L2485 1335M2412 1338L2383 1410M2412 1338L2424 1381M2412 1338L2495 1375M2485 1335L2424 1381M2485 1335L2495 1375M157 1372L192 1417M192 1417L312 1423M312 1423L366 1425M312 1423L404 1410M366 1425L404 1410M404 1410L482 1373M482 1373L567 1424M567 1424L660 1402M660 1402L765 1368M765 1368L801 1400M801 1400L906 1432M906 1432L968 1433M968 1433L1055 1414M1055 1414L1128 1411M1271 1375L1339 1370M1271 1375L1384 1400M1339 1370L1384 1400M1384 1400L1466 1410M1599 1431L1630 1375M1630 1375L1714 1419M1831 1374L1848 1439M1848 1439L1940 1424M2040 1410L2105 1421M2215 1406L2277 1360M2383 1410L2424 1381M2424 1381L2495 1375"/></svg>