<svg xmlns="http://www.w3.org/2000/svg" width="2560" height="1440" fill="#fff"><circle cx="54" cy="71" r="4"/><circle cx="129" cy="14" r="4"/><circle cx="238" cy="28" r="6"/><circle cx="310" cy="42" r="5"/><circle cx="364" cy="49" r="5"/><circle cx="454" cy="69" r="5"/><circle cx="489" cy="5" r="5"/><circle cx="489" cy="1445" r="5"/><circle cx="587" cy="57" r="5"/><circle cx="671" cy="40" r="5"/><circle cx="762" cy="1" r="5"/><circle cx="762" cy="1441" r="5"/><circle cx="828" cy="25" r="5"/><circle cx="929" cy="50" r="6"/><circle cx="1026" cy="72" r="5"/><circle cx="1118" cy="0" r="5"/><circle cx="1118" cy="1440" r="5"/><circle cx="1125" cy="8" r="6"/><circle cx="1237" cy="2" r="5"/><circle cx="1237" cy="1442" r="5"/><circle cx="1321" cy="73" r="4"/><circle cx="1393" cy="56" r="5"/><circle cx="1462" cy="5" r="5"/><circle cx="1560" cy="26" r="5"/><circle cx="1661" cy="9" r="5"/><circle cx="1717" cy="63" r="6"/><circle cx="1834" cy="55" r="5"/><circle cx="1899" cy="26" r="5"/><circle cx="1973" cy="72" r="6"/><circle cx="2042" cy="23" r="5"/><circle cx="2093" cy="43" r="5"/><circle cx="2176" cy="0" r="5"/><circle cx="2176" cy="1440" r="5"/><circle cx="2319" cy="28" r="5"/><circle cx="2334" cy="46" r="5"/><circle cx="2400" cy="41" r="5"/><circle cx="2492" cy="40" r="5"/><circle cx="35" cy="84" r="5"/><circle cx="137" cy="115" r="4"/><circle cx="188" cy="159" r="4"/><circle cx="244" cy="126" r="6"/><circle cx="390" cy="128" r="4"/><circle cx="456" cy="128" r="5"/><circle cx="508" cy="99" r="6"/><circle cx="631" cy="149" r="5"/><circle cx="664" cy="123" r="4"/><circle cx="789" cy="89" r="6"/><circle cx="824" cy="137" r="4"/><circle cx="913" cy="80" r="5"/><circle cx="994" cy="147" r="5"/><circle cx="1058" cy="136" r="5"/><circle cx="1131" cy="102" r="6"/><circle cx="1220" cy="108" r="4"/><circle cx="1354" cy="83" r="5"/><circle cx="1436" cy="97" r="4"/><circle cx="1450" cy="107" r="5"/><circle cx="1549" cy="81" r="5"/><circle cx="1676" cy="93" r="4"/><circle cx="1742" cy="90" r="6"/><circle cx="1832" cy="123" r="6"/><circle cx="1884" cy="84" r="5"/><circle cx="1937" cy="100" r="5"/><circle cx="2052" cy="137" r="5"/><circle cx="2139" cy="138" r="6"/><circle cx="2235" cy="154" r="5"/><circle cx="2294" cy="153" r="6"/><circle cx="2336" cy="125" r="6"/><circle cx="2475" cy="96" r="4"/><circle cx="2487" cy="97" r="4"/><circle cx="17" cy="223" r="5"/><circle cx="143" cy="228" r="4"/><circle cx="162" cy="210" r="5"/><circle cx="289" cy="235" r="6"/><circle cx="331" cy="233" r="5"/><circle cx="434" cy="175" r="5"/><circle cx="552" cy="200" r="6"/><circle cx="625" cy="198" r="6"/><circle cx="715" cy="190" r="6"/><circle cx="724" cy="239" r="4"/><circle cx="848" cy="199" r="6"/><circle cx="900" cy="167" r="5"/><circle cx="1028" cy="199" r="6"/><circle cx="1059" cy="172" r="5"/><circle cx="1130" cy="172" r="6"/><circle cx="1261" cy="195" r="5"/><circle cx="1315" cy="186" r="5"/><circle cx="1367" cy="179" r="5"/><circle cx="1499" cy="161" r="6"/><circle cx="1570" cy="233" r="4"/><circle cx="1633" cy="209" r="6"/><circle cx="1743" cy="216" r="5"/><circle cx="1812" cy="228" r="4"/><circle cx="1906" cy="181" r="4"/><circle cx="1993" cy="227" r="6"/><circle cx="2045" cy="206" r="5"/><circle cx="2109" cy="202" r="6"/><circle cx="2203" cy="198" r="5"/><circle cx="2284" cy="161" r="6"/><circle cx="2364" cy="198" r="5"/><circle cx="2422" cy="198" r="5"/><circle cx="2481" cy="209" r="6"/><circle cx="37" cy="246" r="4"/><circle cx="140" cy="279" r="5"/><circle cx="169" cy="308" r="6"/><circle cx="303" cy="255" r="5"/><circle cx="363" cy="269" r="5"/><circle cx="475" cy="286" r="5"/><circle cx="510" cy="305" r="4"/><circle cx="617" cy="249" r="5"/><circle cx="680" cy="292" r="4"/><circle cx="767" cy="285" r="6"/><circle cx="853" cy="260" r="5"/><circle cx="902" cy="295" r="5"/><circle cx="979" cy="245" r="5"/><circle cx="1110" cy="253" r="5"/><circle cx="1145" cy="247" r="5"/><circle cx="1260" cy="246" r="5"/><circle cx="1360" cy="241" r="5"/><circle cx="1424" cy="267" r="6"/><circle cx="1494" cy="270" r="5"/><circle cx="1581" cy="272" r="5"/><circle cx="1664" cy="311" r="5"/><circle cx="1723" cy="313" r="5"/><circle cx="1792" cy="247" r="4"/><circle cx="1852" cy="320" r="4"/><circle cx="1989" cy="318" r="5"/><circle cx="2045" cy="242" r="5"/><circle cx="2117" cy="265" r="5"/><circle cx="2164" cy="314" r="4"/><circle cx="2290" cy="303" r="4"/><circle cx="2367" cy="267" r="4"/><circle cx="2462" cy="316" r="6"/><circle cx="2523" cy="252" r="6"/><circle cx="17" cy="357" r="4"/><circle cx="100" cy="368" r="5"/><circle cx="163" cy="343" r="6"/><circle cx="268" cy="348" r="5"/><circle cx="376" cy="385" r="6"/><circle cx="479" cy="323" r="6"/><circle cx="521" cy="322" r="5"/><circle cx="565" cy="333" r="6"/><circle cx="648" cy="356" r="4"/><circle cx="786" cy="336" r="6"/><circle cx="859" cy="355" r="5"/><circle cx="894" cy="330" r="4"/><circle cx="979" cy="367" r="6"/><circle cx="1071" cy="399" r="6"/><circle cx="1126" cy="374" r="5"/><circle cx="1228" cy="335" r="4"/><circle cx="1304" cy="329" r="5"/><circle cx="1436" cy="387" r="6"/><circle cx="1453" cy="355" r="5"/><circle cx="1539" cy="381" r="5"/><circle cx="1603" cy="383" r="6"/><circle cx="1696" cy="394" r="4"/><circle cx="1817" cy="377" r="6"/><circle cx="1914" cy="383" r="6"/><circle cx="1940" cy="339" r="5"/><circle cx="2019" cy="330" r="4"/><circle cx="2099" cy="371" r="4"/><circle cx="2184" cy="373" r="5"/><circle cx="2256" cy="361" r="4"/><circle cx="2344" cy="344" r="5"/><circle cx="2408" cy="395" r="5"/><circle cx="2543" cy="332" r="6"/><circle cx="27" cy="466" r="5"/><circle cx="114" cy="441" r="4"/><circle cx="223" cy="427" r="6"/><circle cx="285" cy="415" r="4"/><circle cx="340" cy="425" r="5"/><circle cx="461" cy="452" r="4"/><circle cx="494" cy="403" r="5"/><circle cx="573" cy="430" r="6"/><circle cx="647" cy="466" r="5"/><circle cx="726" cy="409" r="5"/><circle cx="837" cy="476" r="4"/><circle cx="938" cy="448" r="5"/><circle cx="1026" cy="403" r="4"/><circle cx="1059" cy="457" r="5"/><circle cx="1132" cy="418" r="5"/><circle cx="1235" cy="454" r="4"/><circle cx="1321" cy="409" r="4"/><circle cx="1431" cy="470" r="4"/><circle cx="1489" cy="429" r="5"/><circle cx="1539" cy="429" r="4"/><circle cx="1620" cy="420" r="5"/><circle cx="1704" cy="480" r="5"/><circle cx="1812" cy="417" r="5"/><circle cx="1908" cy="452" r="4"/><circle cx="1989" cy="467" r="5"/><circle cx="2060" cy="464" r="4"/><circle cx="2151" cy="466" r="6"/><circle cx="2214" cy="466" r="6"/><circle cx="2248" cy="459" r="5"/><circle cx="2386" cy="414" r="6"/><circle cx="2428" cy="457" r="4"/><circle cx="2553" cy="461" r="6"/><circle cx="73" cy="493" r="5"/><circle cx="98" cy="523" r="5"/><circle cx="162" cy="483" r="4"/><circle cx="244" cy="523" r="6"/><circle cx="342" cy="520" r="4"/><circle cx="467" cy="514" r="4"/><circle cx="494" cy="485" r="5"/><circle cx="600" cy="551" r="4"/><circle cx="682" cy="532" r="6"/><circle cx="731" cy="493" r="6"/><circle cx="842" cy="549" r="5"/><circle cx="901" cy="554" r="4"/><circle cx="990" cy="523" r="5"/><circle cx="1111" cy="518" r="5"/><circle cx="1161" cy="553" r="4"/><circle cx="1246" cy="486" r="4"/><circle cx="1321" cy="550" r="4"/><circle cx="1425" cy="527" r="5"/><circle cx="1496" cy="538" r="6"/><circle cx="1574" cy="519" r="5"/><circle cx="1680" cy="528" r="6"/><circle cx="1757" cy="542" r="5"/><circle cx="1823" cy="506" r="6"/><circle cx="1849" cy="510" r="5"/><circle cx="1992" cy="533" r="5"/><circle cx="2033" cy="543" r="5"/><circle cx="2081" cy="558" r="4"/><circle cx="2239" cy="522" r="5"/><circle cx="2286" cy="553" r="4"/><circle cx="2369" cy="531" r="5"/><circle cx="2458" cy="482" r="4"/><circle cx="2491" cy="520" r="4"/><circle cx="43" cy="605" r="6"/><circle cx="84" cy="576" r="4"/><circle cx="217" cy="622" r="4"/><circle cx="311" cy="633" r="5"/><circle cx="364" cy="597" r="5"/><circle cx="436" cy="581" r="5"/><circle cx="487" cy="597" r="5"/><circle cx="614" cy="581" r="5"/><circle cx="685" cy="603" r="5"/><circle cx="796" cy="568" r="6"/><circle cx="835" cy="590" r="6"/><circle cx="929" cy="579" r="6"/><circle cx="968" cy="581" r="4"/><circle cx="1067" cy="588" r="5"/><circle cx="1137" cy="628" r="5"/><circle cx="1274" cy="581" r="5"/><circle cx="1318" cy="626" r="4"/><circle cx="1439" cy="599" r="6"/><circle cx="1478" cy="607" r="6"/><circle cx="1596" cy="564" r="6"/><circle cx="1665" cy="630" r="5"/><circle cx="1736" cy="599" r="5"/><circle cx="1839" cy="589" r="4"/><circle cx="1874" cy="573" r="6"/><circle cx="1993" cy="622" r="5"/><circle cx="2039" cy="595" r="6"/><circle cx="2150" cy="580" r="5"/><circle cx="2173" cy="610" r="5"/><circle cx="2293" cy="637" r="6"/><circle cx="2400" cy="634" r="4"/><circle cx="2410" cy="631" r="5"/><circle cx="2540" cy="591" r="4"/><circle cx="40" cy="681" r="6"/><circle cx="86" cy="705" r="5"/><circle cx="204" cy="667" r="4"/><circle cx="306" cy="681" r="4"/><circle cx="349" cy="700" r="5"/><circle cx="448" cy="698" r="4"/><circle cx="485" cy="664" r="5"/><circle cx="618" cy="715" r="5"/><circle cx="714" cy="671" r="5"/><circle cx="733" cy="665" r="4"/><circle cx="802" cy="696" r="4"/><circle cx="918" cy="656" r="4"/><circle cx="964" cy="709" r="4"/><circle cx="1059" cy="697" r="6"/><circle cx="1170" cy="677" r="4"/><circle cx="1242" cy="673" r="4"/><circle cx="1333" cy="666" r="5"/><circle cx="1372" cy="672" r="5"/><circle cx="1485" cy="685" r="5"/><circle cx="1548" cy="663" r="6"/><circle cx="1654" cy="684" r="4"/><circle cx="1736" cy="674" r="5"/><circle cx="1811" cy="687" r="4"/><circle cx="1866" cy="663" r="5"/><circle cx="1961" cy="666" r="5"/><circle cx="2076" cy="686" r="4"/><circle cx="2133" cy="667" r="5"/><circle cx="2191" cy="715" r="4"/><circle cx="2285" cy="657" r="4"/><circle cx="2378" cy="662" r="5"/><circle cx="2470" cy="687" r="5"/><circle cx="2518" cy="708" r="4"/><circle cx="77" cy="780" r="5"/><circle cx="152" cy="768" r="5"/><circle cx="193" cy="789" r="4"/><circle cx="315" cy="742" r="4"/><circle cx="332" cy="780" r="4"/><circle cx="467" cy="740" r="6"/><circle cx="528" cy="722" r="5"/><circle cx="598" cy="796" r="6"/><circle cx="678" cy="737" r="6"/><circle cx="778" cy="794" r="6"/><circle cx="864" cy="740" r="5"/><circle cx="932" cy="722" r="4"/><circle cx="964" cy="764" r="5"/><circle cx="1083" cy="793" r="5"/><circle cx="1183" cy="750" r="4"/><circle cx="1229" cy="773" r="6"/><circle cx="1335" cy="740" r="4"/><circle cx="1361" cy="781" r="6"/><circle cx="1447" cy="740" r="5"/><circle cx="1546" cy="759" r="5"/><circle cx="1627" cy="769" r="5"/><circle cx="1729" cy="756" r="4"/><circle cx="1768" cy="786" r="4"/><circle cx="1903" cy="774" r="4"/><circle cx="1953" cy="732" r="5"/><circle cx="2022" cy="722" r="4"/><circle cx="2112" cy="751" r="5"/><circle cx="2204" cy="783" r="4"/><circle cx="2309" cy="750" r="5"/><circle cx="2376" cy="735" r="6"/><circle cx="2476" cy="748" r="4"/><circle cx="2517" cy="777" r="4"/><circle cx="65" cy="829" r="6"/><circle cx="105" cy="876" r="5"/><circle cx="194" cy="855" r="6"/><circle cx="267" cy="880" r="5"/><circle cx="370" cy="858" r="5"/><circle cx="476" cy="859" r="6"/><circle cx="497" cy="834" r="6"/><circle cx="639" cy="870" r="6"/><circle cx="660" cy="820" r="4"/><circle cx="789" cy="875" r="6"/><circle cx="809" cy="870" r="5"/><circle cx="896" cy="871" r="4"/><circle cx="997" cy="868" r="4"/><circle cx="1063" cy="867" r="6"/><circle cx="1128" cy="840" r="5"/><circle cx="1263" cy="814" r="5"/><circle cx="1282" cy="814" r="5"/><circle cx="1408" cy="800" r="4"/><circle cx="1470" cy="844" r="4"/><circle cx="1575" cy="838" r="6"/><circle cx="1618" cy="872" r="6"/><circle cx="1683" cy="846" r="5"/><circle cx="1796" cy="843" r="5"/><circle cx="1886" cy="871" r="5"/><circle cx="1942" cy="812" r="4"/><circle cx="2014" cy="856" r="4"/><circle cx="2154" cy="867" r="5"/><circle cx="2231" cy="833" r="5"/><circle cx="2261" cy="876" r="5"/><circle cx="2334" cy="875" r="5"/><circle cx="2413" cy="859" r="4"/><circle cx="2539" cy="880" r="5"/><circle cx="32" cy="921" r="5"/><circle cx="84" cy="933" r="5"/><circle cx="160" cy="908" r="5"/><circle cx="258" cy="927" r="5"/><circle cx="337" cy="907" r="5"/><circle cx="410" cy="935" r="6"/><circle cx="485" cy="916" r="5"/><circle cx="588" cy="958" r="5"/><circle cx="701" cy="960" r="5"/><circle cx="794" cy="958" r="5"/><circle cx="834" cy="931" r="5"/><circle cx="903" cy="915" r="5"/><circle cx="961" cy="937" r="5"/><circle cx="1086" cy="941" r="5"/><circle cx="1139" cy="955" r="6"/><circle cx="1202" cy="915" r="5"/><circle cx="1336" cy="890" r="5"/><circle cx="1416" cy="890" r="5"/><circle cx="1513" cy="931" r="5"/><circle cx="1521" cy="928" r="4"/><circle cx="1626" cy="959" r="4"/><circle cx="1692" cy="908" r="5"/><circle cx="1762" cy="943" r="6"/><circle cx="1878" cy="952" r="4"/><circle cx="1923" cy="907" r="6"/><circle cx="2050" cy="933" r="4"/><circle cx="2135" cy="951" r="5"/><circle cx="2210" cy="916" r="6"/><circle cx="2259" cy="956" r="5"/><circle cx="2347" cy="939" r="5"/><circle cx="2446" cy="934" r="4"/><circle cx="2542" cy="953" r="6"/><circle cx="58" cy="971" r="5"/><circle cx="130" cy="1016" r="5"/><circle cx="215" cy="970" r="6"/><circle cx="273" cy="972" r="5"/><circle cx="365" cy="965" r="6"/><circle cx="429" cy="970" r="5"/><circle cx="530" cy="1013" r="6"/><circle cx="566" cy="961" r="4"/><circle cx="688" cy="1012" r="5"/><circle cx="725" cy="971" r="6"/><circle cx="857" cy="1026" r="5"/><circle cx="927" cy="1006" r="5"/><circle cx="962" cy="1036" r="5"/><circle cx="1060" cy="1008" r="4"/><circle cx="1187" cy="993" r="5"/><circle cx="1209" cy="971" r="4"/><circle cx="1309" cy="994" r="5"/><circle cx="1434" cy="1003" r="4"/><circle cx="1470" cy="976" r="6"/><circle cx="1524" cy="983" r="5"/><circle cx="1643" cy="996" r="5"/><circle cx="1708" cy="1036" r="5"/><circle cx="1795" cy="963" r="4"/><circle cx="1855" cy="1021" r="4"/><circle cx="1965" cy="1031" r="6"/><circle cx="2055" cy="1005" r="6"/><circle cx="2121" cy="1009" r="5"/><circle cx="2189" cy="995" r="6"/><circle cx="2282" cy="1038" r="5"/><circle cx="2376" cy="995" r="5"/><circle cx="2428" cy="1005" r="4"/><circle cx="2481" cy="1017" r="6"/><circle cx="18" cy="1088" r="6"/><circle cx="158" cy="1104" r="5"/><circle cx="205" cy="1099" r="5"/><circle cx="311" cy="1079" r="4"/><circle cx="380" cy="1091" r="5"/><circle cx="412" cy="1061" r="5"/><circle cx="545" cy="1095" r="5"/><circle cx="636" cy="1065" r="5"/><circle cx="695" cy="1065" r="4"/><circle cx="741" cy="1106" r="5"/><circle cx="878" cy="1066" r="6"/><circle cx="957" cy="1062" r="6"/><circle cx="1014" cy="1065" r="5"/><circle cx="1104" cy="1075" r="6"/><circle cx="1191" cy="1053" r="5"/><circle cx="1268" cy="1048" r="5"/><circle cx="1313" cy="1071" r="4"/><circle cx="1383" cy="1106" r="6"/><circle cx="1517" cy="1048" r="4"/><circle cx="1524" cy="1049" r="5"/><circle cx="1602" cy="1094" r="5"/><circle cx="1721" cy="1056" r="6"/><circle cx="1815" cy="1115" r="4"/><circle cx="1913" cy="1062" r="5"/><circle cx="1962" cy="1073" r="5"/><circle cx="2041" cy="1093" r="6"/><circle cx="2140" cy="1115" r="5"/><circle cx="2229" cy="1090" r="5"/><circle cx="2313" cy="1054" r="4"/><circle cx="2335" cy="1104" r="5"/><circle cx="2440" cy="1115" r="6"/><circle cx="2506" cy="1113" r="6"/><circle cx="24" cy="1138" r="6"/><circle cx="93" cy="1141" r="4"/><circle cx="208" cy="1133" r="5"/><circle cx="274" cy="1140" r="5"/><circle cx="351" cy="1191" r="5"/><circle cx="418" cy="1193" r="6"/><circle cx="490" cy="1148" r="5"/><circle cx="597" cy="1149" r="5"/><circle cx="658" cy="1154" r="5"/><circle cx="735" cy="1157" r="4"/><circle cx="838" cy="1177" r="4"/><circle cx="934" cy="1136" r="5"/><circle cx="1002" cy="1153" r="4"/><circle cx="1079" cy="1134" r="4"/><circle cx="1141" cy="1180" r="4"/><circle cx="1234" cy="1151" r="6"/><circle cx="1300" cy="1138" r="4"/><circle cx="1370" cy="1122" r="5"/><circle cx="1508" cy="1143" r="6"/><circle cx="1559" cy="1123" r="4"/><circle cx="1673" cy="1173" r="6"/><circle cx="1701" cy="1171" r="5"/><circle cx="1779" cy="1133" r="6"/><circle cx="1867" cy="1121" r="6"/><circle cx="1936" cy="1160" r="6"/><circle cx="2041" cy="1125" r="5"/><circle cx="2081" cy="1128" r="5"/><circle cx="2215" cy="1199" r="4"/><circle cx="2282" cy="1145" r="5"/><circle cx="2363" cy="1167" r="5"/><circle cx="2458" cy="1190" r="6"/><circle cx="2527" cy="1190" r="5"/><circle cx="15" cy="1233" r="6"/><circle cx="89" cy="1276" r="5"/><circle cx="189" cy="1266" r="6"/><circle cx="258" cy="1251" r="6"/><circle cx="388" cy="1267" r="5"/><circle cx="436" cy="1242" r="5"/><circle cx="508" cy="1225" r="4"/><circle cx="573" cy="1200" r="5"/><circle cx="715" cy="1258" r="6"/><circle cx="774" cy="1221" r="6"/><circle cx="803" cy="1216" r="5"/><circle cx="885" cy="1277" r="5"/><circle cx="981" cy="1200" r="5"/><circle cx="1101" cy="1209" r="5"/><circle cx="1176" cy="1277" r="5"/><circle cx="1225" cy="1233" r="6"/><circle cx="1316" cy="1222" r="6"/><circle cx="1423" cy="1220" r="6"/><circle cx="1505" cy="1209" r="5"/><circle cx="1528" cy="1217" r="4"/><circle cx="1649" cy="1264" r="6"/><circle cx="1694" cy="1227" r="5"/><circle cx="1768" cy="1265" r="5"/><circle cx="1907" cy="1269" r="5"/><circle cx="1944" cy="1253" r="4"/><circle cx="2004" cy="1269" r="6"/><circle cx="2156" cy="1216" r="6"/><circle cx="2234" cy="1261" r="5"/><circle cx="2296" cy="1256" r="5"/><circle cx="2349" cy="1263" r="4"/><circle cx="2423" cy="1209" r="4"/><circle cx="2497" cy="1244" r="5"/><circle cx="10" cy="1335" r="5"/><circle cx="109" cy="1289" r="6"/><circle cx="186" cy="1283" r="4"/><circle cx="249" cy="1326" r="6"/><circle cx="342" cy="1325" r="5"/><circle cx="423" cy="1333" r="4"/><circle cx="500" cy="1286" r="4"/><circle cx="632" cy="1339" r="5"/><circle cx="684" cy="1319" r="5"/><circle cx="781" cy="1350" r="5"/><circle cx="872" cy="1336" r="4"/><circle cx="885" cy="1331" r="6"/><circle cx="1007" cy="1326" r="4"/><circle cx="1057" cy="1348" r="4"/><circle cx="1175" cy="1349" r="5"/><circle cx="1244" cy="1344" r="4"/><circle cx="1299" cy="1340" r="5"/><circle cx="1432" cy="1321" r="6"/><circle cx="1490" cy="1282" r="5"/><circle cx="1558" cy="1357" r="4"/><circle cx="1678" cy="1292" r="5"/><circle cx="1747" cy="1306" r="6"/><circle cx="1836" cy="1300" r="5"/><circle cx="1873" cy="1342" r="5"/><circle cx="1960" cy="1321" r="4"/><circle cx="2053" cy="1329" r="5"/><circle cx="2146" cy="1292" r="5"/><circle cx="2191" cy="1352" r="5"/><circle cx="2303" cy="1341" r="5"/><circle cx="2369" cy="1324" r="6"/><circle cx="2408" cy="1332" r="5"/><circle cx="2548" cy="1302" r="4"/><circle cx="55" cy="1423" r="5"/><circle cx="98" cy="1402" r="5"/><circle cx="197" cy="1418" r="5"/><circle cx="265" cy="1408" r="5"/><circle cx="325" cy="1376" r="4"/><circle cx="463" cy="1428" r="6"/><circle cx="516" cy="1367" r="5"/><circle cx="626" cy="1432" r="4"/><circle cx="663" cy="1401" r="5"/><circle cx="761" cy="1375" r="5"/><circle cx="808" cy="1435" r="6"/><circle cx="808" cy="-5" r="6"/><circle cx="892" cy="1396" r="4"/><circle cx="991" cy="1365" r="5"/><circle cx="1083" cy="1387" r="5"/><circle cx="1170" cy="1438" r="5"/><circle cx="1170" cy="-2" r="5"/><circle cx="1219" cy="1367" r="6"/><circle cx="1345" cy="1435" r="5"/><circle cx="1420" cy="1425" r="4"/><circle cx="1441" cy="1372" r="6"/><circle cx="1529" cy="1420" r="4"/><circle cx="1601" cy="1409" r="6"/><circle cx="1753" cy="1381" r="6"/><circle cx="1807" cy="1371" r="6"/><circle cx="1863" cy="1435" r="5"/><circle cx="1863" cy="-5" r="5"/><circle cx="1955" cy="1386" r="6"/><circle cx="2064" cy="1389" r="5"/><circle cx="2130" cy="1435" r="5"/><circle cx="2130" cy="-5" r="5"/><circle cx="2176" cy="1429" r="5"/><circle cx="2281" cy="1389" r="4"/><circle cx="2330" cy="1418" r="5"/><circle cx="2472" cy="1426" r="6"/><circle cx="2532" cy="1388" r="6"/><path stroke="#fff" d="M54 71L129 14M54 71L35 84M54 71L137 115M54 71L55 -17M54 1511L55 1423M129 14L238 28M129 14L55 -17M129 14L98 -38M129 14L197 -22M129 1454L55 1423M129 1454L98 1402M129 1454L197 1418M238 28L310 42M238 28L244 126M238 28L197 -22M238 28L265 -32M238 1468L197 1418M238 1468L265 1408M310 42L364 49M310 42L244 126M310 42L265 -32M310 42L325 -64M310 1482L265 1408M310 1482L325 1376M364 49L454 69M364 49L390 128M364 49L463 -12M364 1489L463 1428M454 69L489 5M454 69L456 128M454 69L508 99M454 69L463 -12M454 1509L463 1428M489 5L508 99M489 5L463 -12M489 5L516 -73M489 1445L463 1428M489 1445L516 1367M587 57L671 40M587 57L508 99M587 57L664 123M587 57L626 -8M587 1497L626 1432M671 40L664 123M671 40L626 -8M671 40L663 -39M671 1480L626 1432M671 1480L663 1401M762 1L828 25M762 1L789 89M762 1L781 -90M762 1L761 -65M762 1L808 -5M762 1441L781 1350M762 1441L761 1375M762 1441L808 1435M828 25L929 50M828 25L789 89M828 25L913 80M828 25L808 -5M828 1465L808 1435M929 50L1026 72M929 50L913 80M929 50L892 -44M929 1490L892 1396M1026 72L994 147M1026 72L1058 136M1118 0L1125 8M1118 0L1131 102M1118 0L1083 -53M1118 0L1170 -2M1118 1440L1083 1387M1118 1440L1170 1438M1125 8L1131 102M1125 8L1175 -91M1125 8L1083 -53M1125 8L1170 -2M1125 1448L1175 1349M1125 1448L1083 1387M1125 1448L1170 1438M1237 2L1244 -96M1237 2L1170 -2M1237 2L1219 -73M1237 1442L1244 1344M1237 1442L1170 1438M1237 1442L1219 1367M1321 73L1393 56M1321 73L1354 83M1321 73L1315 186M1321 73L1345 -5M1321 1513L1345 1435M1393 56L1354 83M1393 56L1436 97M1393 56L1450 107M1393 56L1345 -5M1393 1496L1345 1435M1462 5L1560 26M1462 5L1436 97M1462 5L1420 -15M1462 5L1441 -68M1462 5L1529 -20M1462 1445L1420 1425M1462 1445L1441 1372M1462 1445L1529 1420M1560 26L1661 9M1560 26L1549 81M1560 26L1529 -20M1560 26L1601 -31M1560 1466L1529 1420M1560 1466L1601 1409M1661 9L1717 63M1661 9L1676 93M1661 9L1742 90M1661 9L1601 -31M1661 1449L1601 1409M1717 63L1676 93M1717 63L1742 90M1717 63L1753 -59M1717 1503L1753 1381M1834 55L1899 26M1834 55L1742 90M1834 55L1832 123M1834 55L1884 84M1834 55L1863 -5M1834 1495L1863 1435M1899 26L1973 72M1899 26L1884 84M1899 26L1937 100M1899 26L1863 -5M1899 1466L1863 1435M1973 72L2042 23M1973 72L1884 84M1973 72L1937 100M1973 72L2052 137M2042 23L2093 43M2042 23L1955 -54M2042 23L2064 -51M2042 23L2130 -5M2042 1463L1955 1386M2042 1463L2064 1389M2042 1463L2130 1435M2093 43L2176 0M2093 43L2139 138M2093 43L2064 -51M2093 43L2130 -5M2093 1483L2064 1389M2093 1483L2130 1435M2176 0L2191 -88M2176 0L2130 -5M2176 0L2176 -11M2176 1440L2191 1352M2176 1440L2130 1435M2176 1440L2176 1429M2319 28L2334 46M2319 28L2400 41M2319 28L2336 125M2319 28L2281 -51M2319 28L2330 -22M2319 1468L2281 1389M2319 1468L2330 1418M2334 46L2400 41M2334 46L2336 125M2334 46L2330 -22M2334 1486L2330 1418M2400 41L2492 40M2400 41L2330 -22M2400 41L2472 -14M2400 1481L2330 1418M2400 1481L2472 1426M2492 40L2475 96M2492 40L2487 97M2492 40L2472 -14M2492 40L2532 -52M2492 1480L2472 1426M2492 1480L2532 1388M35 84L137 115M35 84L-85 96M35 84L-73 97M2595 84L2475 96M2595 84L2487 97M137 115L188 159M137 115L244 126M137 115L162 210M188 159L244 126M188 159L143 228M188 159L162 210M244 126L289 235M390 128L456 128M390 128L331 233M390 128L434 175M456 128L508 99M456 128L434 175M508 99L552 200M631 149L664 123M631 149L552 200M631 149L625 198M631 149L715 190M631 149L617 249M664 123L625 198M664 123L715 190M789 89L824 137M789 89L808 -5M789 1529L808 1435M824 137L913 80M824 137L848 199M824 137L900 167M913 80L900 167M994 147L1058 136M994 147L900 167M994 147L1028 199M994 147L1059 172M1058 136L1028 199M1058 136L1059 172M1058 136L1130 172M1131 102L1220 108M1131 102L1130 172M1220 108L1261 195M1354 83L1436 97M1354 83L1367 179M1354 83L1345 -5M1354 1523L1345 1435M1436 97L1450 107M1436 97L1499 161M1450 107L1549 81M1450 107L1499 161M1549 81L1499 161M1549 81L1601 -31M1549 1521L1601 1409M1676 93L1742 90M1676 93L1633 209M1742 90L1832 123M1832 123L1884 84M1832 123L1937 100M1832 123L1906 181M1884 84L1937 100M1937 100L1906 181M2052 137L2139 138M2052 137L1993 227M2052 137L2045 206M2052 137L2109 202M2139 138L2235 154M2139 138L2109 202M2139 138L2203 198M2235 154L2294 153M2235 154L2203 198M2235 154L2284 161M2294 153L2336 125M2294 153L2203 198M2294 153L2284 161M2294 153L2364 198M2336 125L2284 161M2336 125L2364 198M2475 96L2487 97M2475 96L2472 -14M2475 1536L2472 1426M2487 97L2481 209M17 223L-79 209M17 223L37 246M17 223L-37 252M17 223L-17 332M2577 223L2481 209M2577 223L2523 252M2577 223L2543 332M143 228L162 210M143 228L140 279M143 228L169 308M162 210L140 279M162 210L169 308M289 235L331 233M289 235L303 255M289 235L363 269M331 233L303 255M331 233L363 269M552 200L625 198M552 200L475 286M552 200L617 249M625 198L715 190M625 198L617 249M715 190L724 239M715 190L767 285M724 239L680 292M724 239L767 285M848 199L900 167M848 199L853 260M1028 199L1059 172M1028 199L979 245M1028 199L1110 253M1059 172L1130 172M1059 172L1110 253M1130 172L1110 253M1130 172L1145 247M1261 195L1315 186M1261 195L1367 179M1261 195L1260 246M1261 195L1360 241M1315 186L1367 179M1315 186L1260 246M1315 186L1360 241M1367 179L1360 241M1367 179L1424 267M1499 161L1570 233M1499 161L1494 270M1570 233L1633 209M1570 233L1494 270M1570 233L1581 272M1633 209L1743 216M1633 209L1581 272M1633 209L1664 311M1743 216L1812 228M1743 216L1723 313M1743 216L1792 247M1812 228L1906 181M1812 228L1792 247M1906 181L1993 227M1993 227L2045 206M1993 227L1989 318M1993 227L2045 242M2045 206L2109 202M2045 206L2045 242M2045 206L2117 265M2109 202L2045 242M2109 202L2117 265M2203 198L2284 161M2284 161L2364 198M2364 198L2422 198M2364 198L2367 267M2422 198L2481 209M2422 198L2367 267M2481 209L2462 316M2481 209L2523 252M37 246L-37 252M37 246L17 357M37 246L-17 332M2597 246L2523 252M2597 246L2543 332M140 279L169 308M140 279L100 368M140 279L163 343M169 308L100 368M169 308L163 343M303 255L363 269M303 255L268 348M363 269L376 385M475 286L510 305M475 286L479 323M475 286L521 322M510 305L479 323M510 305L521 322M510 305L565 333M617 249L680 292M680 292L767 285M680 292L648 356M680 292L786 336M767 285L853 260M767 285L786 336M853 260L902 295M853 260L859 355M853 260L894 330M902 295L979 245M902 295L859 355M902 295L894 330M902 295L979 367M1110 253L1145 247M1110 253L1126 374M1145 247L1228 335M1260 246L1360 241M1260 246L1228 335M1260 246L1304 329M1360 241L1424 267M1424 267L1494 270M1424 267L1436 387M1424 267L1453 355M1494 270L1581 272M1494 270L1453 355M1581 272L1664 311M1664 311L1723 313M1664 311L1603 383M1664 311L1696 394M1723 313L1792 247M1723 313L1696 394M1723 313L1817 377M1792 247L1852 320M1852 320L1817 377M1852 320L1914 383M1852 320L1940 339M1852 320L1812 417M1989 318L2045 242M1989 318L1914 383M1989 318L1940 339M1989 318L2019 330M2045 242L2117 265M2117 265L2164 314M2117 265L2099 371M2164 314L2099 371M2164 314L2184 373M2290 303L2367 267M2290 303L2256 361M2290 303L2344 344M2367 267L2344 344M2462 316L2523 252M2462 316L2408 395M2462 316L2543 332M2462 316L2386 414M2523 252L2543 332M17 357L100 368M17 357L-17 332M17 357L27 466M17 357L-7 461M2577 357L2543 332M2577 357L2553 461M100 368L163 343M100 368L114 441M163 343L268 348M163 343L223 427M268 348L223 427M268 348L285 415M268 348L340 425M376 385L285 415M376 385L340 425M376 385L461 452M479 323L521 322M479 323L565 333M479 323L494 403M521 322L565 333M521 322L494 403M565 333L648 356M565 333L573 430M648 356L573 430M648 356L726 409M786 336L859 355M786 336L894 330M786 336L726 409M859 355L894 330M894 330L979 367M979 367L1071 399M979 367L938 448M979 367L1026 403M1071 399L1126 374M1071 399L1026 403M1071 399L1059 457M1071 399L1132 418M1126 374L1026 403M1126 374L1132 418M1228 335L1304 329M1304 329L1321 409M1436 387L1453 355M1436 387L1431 470M1436 387L1489 429M1453 355L1539 381M1453 355L1489 429M1539 381L1603 383M1539 381L1489 429M1539 381L1539 429M1539 381L1620 420M1603 383L1696 394M1603 383L1539 429M1603 383L1620 420M1696 394L1620 420M1696 394L1704 480M1817 377L1914 383M1817 377L1812 417M1914 383L1940 339M1914 383L1908 452M1940 339L2019 330M2019 330L2099 371M2099 371L2184 373M2184 373L2256 361M2184 373L2151 466M2184 373L2214 466M2256 361L2344 344M2256 361L2248 459M2344 344L2408 395M2344 344L2386 414M2408 395L2386 414M2408 395L2428 457M2408 395L2458 482M27 466L114 441M27 466L-7 461M27 466L73 493M27 466L98 523M2587 466L2553 461M114 441L73 493M114 441L162 483M223 427L285 415M223 427L162 483M223 427L244 523M285 415L340 425M340 425L342 520M461 452L494 403M461 452L467 514M461 452L494 485M494 403L573 430M494 403L494 485M573 430L647 466M573 430L494 485M647 466L726 409M647 466L600 551M647 466L682 532M647 466L731 493M726 409L731 493M837 476L938 448M837 476L731 493M837 476L842 549M837 476L796 568M938 448L1026 403M938 448L990 523M1026 403L1059 457M1059 457L1132 418M1059 457L990 523M1059 457L1111 518M1132 418L1235 454M1132 418L1111 518M1235 454L1321 409M1235 454L1246 486M1321 409L1246 486M1431 470L1489 429M1431 470L1425 527M1489 429L1539 429M1539 429L1620 420M1539 429L1574 519M1620 420L1704 480M1704 480L1680 528M1704 480L1757 542M1812 417L1908 452M1812 417L1823 506M1908 452L1989 467M1908 452L1849 510M1989 467L2060 464M1989 467L1992 533M1989 467L2033 543M2060 464L2151 466M2060 464L2081 558M2151 466L2214 466M2151 466L2248 459M2151 466L2239 522M2214 466L2248 459M2214 466L2239 522M2214 466L2286 553M2248 459L2239 522M2248 459L2286 553M2386 414L2428 457M2386 414L2458 482M2428 457L2369 531M2428 457L2458 482M2428 457L2491 520M2553 461L2633 493M2553 461L2458 482M2553 461L2491 520M-7 461L73 493M73 493L98 523M73 493L84 576M98 523L162 483M98 523L43 605M98 523L84 576M162 483L244 523M244 523L342 520M244 523L217 622M342 520L364 597M467 514L494 485M467 514L436 581M467 514L487 597M494 485L436 581M600 551L682 532M600 551L614 581M600 551L685 603M682 532L731 493M682 532L614 581M682 532L685 603M731 493L796 568M842 549L901 554M842 549L796 568M842 549L835 590M901 554L835 590M901 554L929 579M901 554L968 581M990 523L929 579M990 523L968 581M990 523L1067 588M1111 518L1161 553M1111 518L1067 588M1111 518L1137 628M1161 553L1067 588M1161 553L1137 628M1246 486L1321 550M1246 486L1274 581M1321 550L1425 527M1321 550L1274 581M1321 550L1318 626M1425 527L1496 538M1425 527L1439 599M1425 527L1478 607M1496 538L1574 519M1496 538L1439 599M1496 538L1478 607M1496 538L1596 564M1574 519L1680 528M1574 519L1596 564M1680 528L1757 542M1680 528L1596 564M1680 528L1736 599M1757 542L1823 506M1757 542L1849 510M1757 542L1736 599M1823 506L1849 510M1823 506L1839 589M1823 506L1874 573M1849 510L1839 589M1849 510L1874 573M1992 533L2033 543M1992 533L2081 558M1992 533L1993 622M1992 533L2039 595M2033 543L2081 558M2033 543L1993 622M2033 543L2039 595M2081 558L2039 595M2081 558L2150 580M2239 522L2286 553M2239 522L2150 580M2286 553L2369 531M2286 553L2293 637M2369 531L2410 631M2458 482L2491 520M2491 520L2540 591M43 605L84 576M43 605L-20 591M43 605L40 681M43 605L86 705M2603 605L2540 591M84 576L-20 591M2644 576L2540 591M217 622L311 633M217 622L204 667M311 633L364 597M311 633L306 681M311 633L349 700M311 633L315 742M364 597L436 581M364 597L306 681M364 597L349 700M436 581L487 597M436 581L485 664M487 597L448 698M487 597L485 664M614 581L685 603M685 603L714 671M685 603L733 665M796 568L835 590M835 590L929 579M835 590L918 656M929 579L968 581M929 579L918 656M1067 588L1137 628M1067 588L1059 697M1137 628L1059 697M1137 628L1170 677M1274 581L1318 626M1274 581L1242 673M1274 581L1333 666M1318 626L1242 673M1318 626L1333 666M1318 626L1372 672M1439 599L1478 607M1439 599L1372 672M1439 599L1485 685M1478 607L1485 685M1478 607L1548 663M1596 564L1665 630M1596 564L1548 663M1665 630L1736 599M1665 630L1654 684M1665 630L1736 674M1736 599L1839 589M1736 599L1736 674M1839 589L1874 573M1839 589L1866 663M1874 573L1866 663M1993 622L2039 595M1993 622L1961 666M1993 622L2022 722M2039 595L1961 666M2150 580L2173 610M2150 580L2133 667M2173 610L2133 667M2173 610L2191 715M2293 637L2400 634M2293 637L2285 657M2293 637L2378 662M2293 637L2309 750M2400 634L2410 631M2400 634L2378 662M2400 634L2470 687M2400 634L2376 735M2410 631L2378 662M2410 631L2470 687M2410 631L2376 735M2540 591L2600 681M-20 591L40 681M40 681L86 705M40 681L-42 708M40 681L77 780M2600 681L2518 708M86 705L77 780M86 705L152 768M204 667L306 681M306 681L349 700M306 681L315 742M349 700L315 742M349 700L332 780M448 698L485 664M448 698L467 740M448 698L528 722M485 664L467 740M485 664L528 722M618 715L714 671M618 715L528 722M618 715L598 796M618 715L678 737M618 715L660 820M714 671L733 665M714 671L802 696M714 671L678 737M733 665L802 696M733 665L678 737M802 696L778 794M802 696L864 740M918 656L964 709M918 656L864 740M918 656L932 722M964 709L1059 697M964 709L932 722M964 709L964 764M1059 697L964 764M1059 697L1083 793M1170 677L1242 673M1170 677L1183 750M1242 673L1333 666M1242 673L1229 773M1333 666L1372 672M1333 666L1335 740M1372 672L1335 740M1485 685L1548 663M1485 685L1447 740M1485 685L1546 759M1548 663L1654 684M1548 663L1546 759M1654 684L1736 674M1654 684L1627 769M1654 684L1729 756M1736 674L1811 687M1736 674L1729 756M1811 687L1866 663M1811 687L1768 786M1866 663L1961 666M1866 663L1953 732M1961 666L1953 732M1961 666L2022 722M2076 686L2133 667M2076 686L2022 722M2076 686L2112 751M2133 667L2191 715M2133 667L2112 751M2191 715L2112 751M2191 715L2204 783M2285 657L2309 750M2378 662L2470 687M2378 662L2376 735M2470 687L2518 708M2470 687L2476 748M2518 708L2476 748M2518 708L2517 777M77 780L152 768M77 780L65 829M152 768L193 789M193 789L194 855M315 742L332 780M332 780L370 858M467 740L528 722M467 740L476 859M467 740L497 834M528 722L598 796M598 796L678 737M598 796L639 870M598 796L660 820M678 737L660 820M778 794L864 740M778 794L660 820M778 794L789 875M778 794L809 870M864 740L932 722M864 740L964 764M932 722L964 764M964 764L997 868M1083 793L1183 750M1083 793L1063 867M1083 793L1128 840M1183 750L1229 773M1183 750L1128 840M1183 750L1263 814M1229 773L1263 814M1229 773L1282 814M1335 740L1361 781M1335 740L1282 814M1335 740L1408 800M1361 781L1447 740M1361 781L1263 814M1361 781L1282 814M1361 781L1408 800M1447 740L1546 759M1447 740L1408 800M1447 740L1470 844M1546 759L1627 769M1546 759L1575 838M1627 769L1575 838M1627 769L1618 872M1627 769L1683 846M1729 756L1768 786M1729 756L1683 846M1729 756L1796 843M1768 786L1796 843M1903 774L1953 732M1903 774L1886 871M1903 774L1942 812M1953 732L2022 722M1953 732L1942 812M2022 722L2112 751M2112 751L2204 783M2204 783L2309 750M2204 783L2154 867M2204 783L2231 833M2309 750L2376 735M2376 735L2476 748M2476 748L2517 777M2517 777L2539 880M65 829L105 876M65 829L-21 880M2625 829L2539 880M105 876L194 855M105 876L32 921M105 876L84 933M105 876L160 908M194 855L267 880M194 855L160 908M194 855L258 927M267 880L258 927M267 880L337 907M267 880L215 970M267 880L273 972M370 858L476 859M370 858L337 907M370 858L410 935M476 859L497 834M476 859L485 916M497 834L485 916M639 870L660 820M639 870L588 958M639 870L701 960M789 875L809 870M789 875L794 958M789 875L834 931M789 875L725 971M809 870L896 871M809 870L794 958M809 870L834 931M896 871L997 868M896 871L834 931M896 871L903 915M896 871L961 937M997 868L1063 867M997 868L903 915M997 868L961 937M1063 867L1128 840M1063 867L1086 941M1128 840L1202 915M1263 814L1282 814M1263 814L1336 890M1282 814L1336 890M1408 800L1470 844M1408 800L1416 890M1470 844L1575 838M1470 844L1416 890M1470 844L1513 931M1575 838L1618 872M1575 838L1683 846M1618 872L1683 846M1618 872L1626 959M1618 872L1692 908M1683 846L1692 908M1796 843L1886 871M1796 843L1762 943M1886 871L1942 812M1886 871L1878 952M1886 871L1923 907M1942 812L2014 856M1942 812L1923 907M2014 856L1923 907M2014 856L2050 933M2154 867L2231 833M2154 867L2261 876M2154 867L2135 951M2154 867L2210 916M2231 833L2261 876M2231 833L2334 875M2261 876L2334 875M2261 876L2210 916M2261 876L2259 956M2334 875L2413 859M2334 875L2347 939M2413 859L2446 934M2539 880L2592 921M2539 880L2542 953M-21 880L32 921M32 921L84 933M32 921L-18 953M32 921L58 971M2592 921L2542 953M84 933L160 908M84 933L58 971M84 933L130 1016M160 908L215 970M258 927L337 907M258 927L215 970M258 927L273 972M337 907L410 935M337 907L365 965M410 935L485 916M410 935L365 965M410 935L429 970M485 916L429 970M485 916L530 1013M588 958L530 1013M588 958L566 961M701 960L794 958M701 960L688 1012M701 960L725 971M794 958L834 931M794 958L725 971M834 931L903 915M903 915L961 937M961 937L927 1006M961 937L962 1036M1086 941L1139 955M1086 941L1202 915M1086 941L1060 1008M1139 955L1202 915M1139 955L1060 1008M1139 955L1187 993M1139 955L1209 971M1202 915L1187 993M1202 915L1209 971M1336 890L1416 890M1336 890L1309 994M1416 890L1513 931M1513 931L1521 928M1513 931L1470 976M1513 931L1524 983M1521 928L1470 976M1521 928L1524 983M1626 959L1692 908M1626 959L1643 996M1692 908L1762 943M1692 908L1643 996M1762 943L1708 1036M1762 943L1795 963M1762 943L1721 1056M1878 952L1923 907M1878 952L1795 963M1878 952L1855 1021M2050 933L2055 1005M2135 951L2210 916M2135 951L2055 1005M2135 951L2121 1009M2135 951L2189 995M2210 916L2259 956M2210 916L2189 995M2259 956L2347 939M2259 956L2189 995M2259 956L2282 1038M2347 939L2376 995M2347 939L2428 1005M2446 934L2542 953M2446 934L2376 995M2446 934L2428 1005M2446 934L2481 1017M2542 953L2618 971M2542 953L2481 1017M-18 953L58 971M58 971L130 1016M58 971L18 1088M130 1016L215 970M130 1016L158 1104M130 1016L205 1099M215 970L273 972M273 972L365 965M365 965L429 970M365 965L412 1061M429 970L530 1013M429 970L412 1061M530 1013L566 961M530 1013L545 1095M688 1012L725 971M688 1012L636 1065M688 1012L695 1065M688 1012L741 1106M725 971L695 1065M857 1026L927 1006M857 1026L878 1066M927 1006L962 1036M927 1006L878 1066M927 1006L957 1062M962 1036L878 1066M962 1036L957 1062M962 1036L1014 1065M1060 1008L1014 1065M1060 1008L1104 1075M1187 993L1209 971M1187 993L1191 1053M1187 993L1268 1048M1209 971L1309 994M1209 971L1191 1053M1309 994L1268 1048M1309 994L1313 1071M1434 1003L1470 976M1434 1003L1383 1106M1470 976L1524 983M1470 976L1517 1048M1524 983L1517 1048M1524 983L1524 1049M1643 996L1708 1036M1643 996L1602 1094M1643 996L1721 1056M1708 1036L1721 1056M1795 963L1855 1021M1855 1021L1913 1062M1855 1021L1867 1121M1965 1031L2055 1005M1965 1031L1913 1062M1965 1031L1962 1073M1965 1031L2041 1093M2055 1005L2121 1009M2055 1005L2041 1093M2121 1009L2189 995M2121 1009L2140 1115M2189 995L2229 1090M2282 1038L2229 1090M2282 1038L2313 1054M2282 1038L2335 1104M2376 995L2428 1005M2376 995L2313 1054M2428 1005L2481 1017M2481 1017L2440 1115M18 1088L-54 1113M18 1088L24 1138M18 1088L93 1141M2578 1088L2506 1113M158 1104L205 1099M158 1104L93 1141M158 1104L208 1133M205 1099L311 1079M205 1099L208 1133M205 1099L274 1140M311 1079L380 1091M311 1079L412 1061M311 1079L274 1140M380 1091L412 1061M545 1095L636 1065M545 1095L490 1148M545 1095L597 1149M545 1095L573 1200M636 1065L695 1065M636 1065L597 1149M636 1065L658 1154M695 1065L741 1106M741 1106L658 1154M741 1106L735 1157M741 1106L774 1221M878 1066L957 1062M878 1066L934 1136M957 1062L1014 1065M957 1062L934 1136M1014 1065L1104 1075M1014 1065L1002 1153M1104 1075L1191 1053M1104 1075L1079 1134M1104 1075L1141 1180M1191 1053L1268 1048M1191 1053L1234 1151M1268 1048L1313 1071M1313 1071L1383 1106M1313 1071L1300 1138M1313 1071L1370 1122M1383 1106L1300 1138M1383 1106L1370 1122M1517 1048L1524 1049M1517 1048L1508 1143M1517 1048L1559 1123M1524 1049L1602 1094M1524 1049L1508 1143M1524 1049L1559 1123M1602 1094L1559 1123M1602 1094L1673 1173M1721 1056L1701 1171M1721 1056L1779 1133M1815 1115L1779 1133M1815 1115L1867 1121M1913 1062L1962 1073M1913 1062L1867 1121M1913 1062L1936 1160M1962 1073L2041 1093M1962 1073L1936 1160M1962 1073L2041 1125M2041 1093L2041 1125M2041 1093L2081 1128M2140 1115L2229 1090M2140 1115L2041 1125M2140 1115L2081 1128M2140 1115L2156 1216M2229 1090L2313 1054M2229 1090L2282 1145M2313 1054L2335 1104M2313 1054L2282 1145M2335 1104L2282 1145M2335 1104L2363 1167M2440 1115L2506 1113M2440 1115L2363 1167M2440 1115L2458 1190M2440 1115L2423 1209M2506 1113L2584 1138M2506 1113L2458 1190M2506 1113L2527 1190M-54 1113L24 1138M24 1138L93 1141M24 1138L-33 1190M24 1138L15 1233M2584 1138L2527 1190M93 1141L208 1133M208 1133L274 1140M274 1140L351 1191M351 1191L418 1193M351 1191L258 1251M351 1191L388 1267M351 1191L436 1242M418 1193L490 1148M418 1193L388 1267M418 1193L436 1242M418 1193L508 1225M490 1148L508 1225M490 1148L573 1200M597 1149L658 1154M597 1149L573 1200M658 1154L735 1157M658 1154L573 1200M735 1157L715 1258M735 1157L774 1221M735 1157L803 1216M838 1177L934 1136M838 1177L774 1221M838 1177L803 1216M838 1177L885 1277M934 1136L1002 1153M934 1136L981 1200M1002 1153L1079 1134M1002 1153L981 1200M1079 1134L1141 1180M1079 1134L981 1200M1079 1134L1101 1209M1141 1180L1234 1151M1141 1180L1101 1209M1141 1180L1225 1233M1234 1151L1300 1138M1234 1151L1225 1233M1234 1151L1316 1222M1300 1138L1370 1122M1300 1138L1316 1222M1370 1122L1316 1222M1508 1143L1559 1123M1508 1143L1505 1209M1508 1143L1528 1217M1559 1123L1528 1217M1673 1173L1701 1171M1673 1173L1779 1133M1673 1173L1649 1264M1673 1173L1694 1227M1701 1171L1779 1133M1701 1171L1649 1264M1701 1171L1694 1227M1779 1133L1867 1121M1867 1121L1936 1160M1936 1160L2041 1125M1936 1160L1944 1253M2041 1125L2081 1128M2081 1128L2156 1216M2215 1199L2282 1145M2215 1199L2156 1216M2215 1199L2234 1261M2215 1199L2296 1256M2282 1145L2363 1167M2363 1167L2423 1209M2458 1190L2527 1190M2458 1190L2423 1209M2458 1190L2497 1244M2527 1190L2575 1233M2527 1190L2497 1244M-33 1190L15 1233M15 1233L89 1276M15 1233L-63 1244M15 1233L-12 1302M2575 1233L2497 1244M2575 1233L2548 1302M89 1276L189 1266M89 1276L10 1335M89 1276L109 1289M89 1276L186 1283M189 1266L258 1251M189 1266L109 1289M189 1266L186 1283M189 1266L249 1326M258 1251L186 1283M258 1251L249 1326M258 1251L342 1325M388 1267L436 1242M388 1267L342 1325M388 1267L423 1333M436 1242L508 1225M436 1242L500 1286M508 1225L573 1200M508 1225L500 1286M715 1258L774 1221M715 1258L803 1216M715 1258L684 1319M774 1221L803 1216M803 1216L885 1277M885 1277L981 1200M885 1277L872 1336M885 1277L885 1331M981 1200L1101 1209M1101 1209L1176 1277M1101 1209L1225 1233M1176 1277L1225 1233M1176 1277L1175 1349M1176 1277L1244 1344M1225 1233L1316 1222M1316 1222L1423 1220M1423 1220L1505 1209M1423 1220L1528 1217M1423 1220L1432 1321M1423 1220L1490 1282M1505 1209L1528 1217M1505 1209L1490 1282M1528 1217L1490 1282M1649 1264L1694 1227M1649 1264L1678 1292M1694 1227L1768 1265M1694 1227L1678 1292M1768 1265L1678 1292M1768 1265L1747 1306M1768 1265L1836 1300M1907 1269L1944 1253M1907 1269L2004 1269M1907 1269L1836 1300M1907 1269L1873 1342M1907 1269L1960 1321M1944 1253L2004 1269M1944 1253L1960 1321M2004 1269L1960 1321M2004 1269L2053 1329M2156 1216L2234 1261M2156 1216L2146 1292M2234 1261L2296 1256M2234 1261L2146 1292M2234 1261L2191 1352M2296 1256L2349 1263M2296 1256L2303 1341M2296 1256L2369 1324M2349 1263L2423 1209M2349 1263L2303 1341M2349 1263L2369 1324M2349 1263L2408 1332M2423 1209L2497 1244M2497 1244L2548 1302M10 1335L109 1289M10 1335L-12 1302M10 1335L55 1423M10 1335L-28 1388M2570 1335L2548 1302M2570 1335L2532 1388M109 1289L186 1283M109 1289L98 1402M186 1283L249 1326M249 1326L342 1325M249 1326L265 1408M342 1325L423 1333M342 1325L325 1376M423 1333L500 1286M423 1333L463 1428M423 1333L516 1367M500 1286L516 1367M632 1339L684 1319M632 1339L516 1367M632 1339L626 1432M632 1339L663 1401M684 1319L781 1350M684 1319L663 1401M684 1319L761 1375M781 1350L885 1331M781 1350L761 1375M781 1350L808 1435M872 1336L885 1331M872 1336L892 1396M885 1331L892 1396M885 1331L991 1365M1007 1326L1057 1348M1007 1326L991 1365M1057 1348L991 1365M1057 1348L1083 1387M1175 1349L1244 1344M1175 1349L1170 1438M1175 1349L1219 1367M1244 1344L1299 1340M1244 1344L1219 1367M1299 1340L1432 1321M1299 1340L1219 1367M1299 1340L1345 1435M1432 1321L1490 1282M1432 1321L1420 1425M1432 1321L1441 1372M1490 1282L1441 1372M1558 1357L1529 1420M1558 1357L1601 1409M1678 1292L1747 1306M1678 1292L1753 1381M1747 1306L1836 1300M1747 1306L1753 1381M1747 1306L1807 1371M1836 1300L1873 1342M1836 1300L1807 1371M1873 1342L1807 1371M1873 1342L1863 1435M1873 1342L1955 1386M1960 1321L2053 1329M1960 1321L1955 1386M2053 1329L2146 1292M2053 1329L2064 1389M2146 1292L2191 1352M2191 1352L2176 1429M2303 1341L2369 1324M2303 1341L2281 1389M2303 1341L2330 1418M2369 1324L2408 1332M2408 1332L2472 1426M2548 1302L2532 1388M55 1423L98 1402M55 1423L-28 1388M2615 1423L2532 1388M98 1402L197 1418M197 1418L265 1408M265 1408L325 1376M463 1428L516 1367M626 1432L663 1401M663 1401L761 1375M761 1375L808 1435M892 1396L991 1365M991 1365L1083 1387M1170 1438L1219 1367M1345 1435L1420 1425M1420 1425L1441 1372M1441 1372L1529 1420M1529 1420L1601 1409M1753 1381L1807 1371M1807 1371L1863 1435M1863 1435L1955 1386M1955 1386L2064 1389M2064 1389L2130 1435M2130 1435L2176 1429M2176 1429L2281 1389M2281 1389L2330 1418M2472 1426L2532 1388"/></svg>