<svg xmlns="http://www.w3.org/2000/svg" width="2560" height="1440" fill="#fff"><circle cx="3" cy="26" r="5"/><circle cx="2563" cy="26" r="5"/><circle cx="88" cy="63" r="5"/><circle cx="234" cy="2" r="6"/><circle cx="234" cy="1442" r="6"/><circle cx="259" cy="39" r="6"/><circle cx="363" cy="17" r="5"/><circle cx="465" cy="56" r="4"/><circle cx="550" cy="35" r="6"/><circle cx="593" cy="0" r="5"/><circle cx="593" cy="1440" r="5"/><circle cx="660" cy="13" r="6"/><circle cx="730" cy="68" r="6"/><circle cx="814" cy="58" r="5"/><circle cx="907" cy="75" r="5"/><circle cx="1009" cy="65" r="5"/><circle cx="1113" cy="49" r="4"/><circle cx="1145" cy="16" r="4"/><circle cx="1277" cy="57" r="4"/><circle cx="1347" cy="49" r="5"/><circle cx="1413" cy="44" r="5"/><circle cx="1507" cy="54" r="4"/><circle cx="1554" cy="17" r="5"/><circle cx="1621" cy="60" r="5"/><circle cx="1681" cy="25" r="4"/><circle cx="1793" cy="54" r="5"/><circle cx="1885" cy="49" r="5"/><circle cx="1959" cy="63" r="6"/><circle cx="2054" cy="59" r="6"/><circle cx="2126" cy="64" r="5"/><circle cx="2200" cy="3" r="5"/><circle cx="2200" cy="1443" r="5"/><circle cx="2268" cy="75" r="4"/><circle cx="2358" cy="61" r="6"/><circle cx="2467" cy="19" r="4"/><circle cx="2553" cy="80" r="5"/><circle cx="66" cy="92" r="4"/><circle cx="145" cy="97" r="6"/><circle cx="180" cy="141" r="6"/><circle cx="274" cy="121" r="5"/><circle cx="350" cy="90" r="6"/><circle cx="402" cy="142" r="5"/><circle cx="504" cy="152" r="4"/><circle cx="628" cy="87" r="5"/><circle cx="664" cy="126" r="5"/><circle cx="736" cy="150" r="5"/><circle cx="841" cy="133" r="5"/><circle cx="950" cy="149" r="5"/><circle cx="963" cy="151" r="4"/><circle cx="1089" cy="120" r="5"/><circle cx="1132" cy="154" r="4"/><circle cx="1212" cy="119" r="5"/><circle cx="1316" cy="133" r="4"/><circle cx="1427" cy="127" r="4"/><circle cx="1448" cy="108" r="4"/><circle cx="1571" cy="155" r="5"/><circle cx="1625" cy="117" r="5"/><circle cx="1691" cy="86" r="5"/><circle cx="1791" cy="129" r="4"/><circle cx="1903" cy="140" r="4"/><circle cx="1975" cy="128" r="5"/><circle cx="2049" cy="98" r="4"/><circle cx="2081" cy="101" r="5"/><circle cx="2226" cy="86" r="6"/><circle cx="2283" cy="96" r="5"/><circle cx="2336" cy="115" r="5"/><circle cx="2413" cy="140" r="4"/><circle cx="2535" cy="147" r="6"/><circle cx="11" cy="194" r="5"/><circle cx="142" cy="193" r="6"/><circle cx="235" cy="205" r="5"/><circle cx="299" cy="211" r="5"/><circle cx="376" cy="163" r="4"/><circle cx="457" cy="206" r="5"/><circle cx="539" cy="166" r="6"/><circle cx="591" cy="239" r="5"/><circle cx="690" cy="201" r="5"/><circle cx="778" cy="225" r="6"/><circle cx="878" cy="195" r="6"/><circle cx="931" cy="169" r="5"/><circle cx="1007" cy="233" r="5"/><circle cx="1049" cy="170" r="4"/><circle cx="1153" cy="192" r="4"/><circle cx="1219" cy="235" r="5"/><circle cx="1337" cy="172" r="6"/><circle cx="1433" cy="165" r="5"/><circle cx="1457" cy="180" r="6"/><circle cx="1523" cy="237" r="4"/><circle cx="1661" cy="202" r="5"/><circle cx="1687" cy="192" r="4"/><circle cx="1799" cy="180" r="5"/><circle cx="1844" cy="192" r="4"/><circle cx="1978" cy="191" r="4"/><circle cx="2051" cy="237" r="5"/><circle cx="2086" cy="230" r="6"/><circle cx="2165" cy="184" r="5"/><circle cx="2261" cy="236" r="4"/><circle cx="2368" cy="212" r="5"/><circle cx="2448" cy="178" r="5"/><circle cx="2489" cy="223" r="6"/><circle cx="30" cy="296" r="5"/><circle cx="104" cy="258" r="5"/><circle cx="209" cy="276" r="5"/><circle cx="301" cy="252" r="5"/><circle cx="384" cy="290" r="5"/><circle cx="473" cy="293" r="5"/><circle cx="531" cy="251" r="4"/><circle cx="639" cy="319" r="5"/><circle cx="697" cy="294" r="5"/><circle cx="775" cy="243" r="5"/><circle cx="873" cy="309" r="5"/><circle cx="902" cy="301" r="6"/><circle cx="994" cy="260" r="4"/><circle cx="1042" cy="266" r="5"/><circle cx="1165" cy="302" r="4"/><circle cx="1263" cy="278" r="5"/><circle cx="1340" cy="298" r="5"/><circle cx="1368" cy="250" r="6"/><circle cx="1480" cy="291" r="4"/><circle cx="1553" cy="243" r="4"/><circle cx="1617" cy="263" r="6"/><circle cx="1711" cy="249" r="5"/><circle cx="1830" cy="266" r="4"/><circle cx="1873" cy="286" r="5"/><circle cx="1961" cy="243" r="4"/><circle cx="2031" cy="255" r="5"/><circle cx="2112" cy="308" r="6"/><circle cx="2179" cy="306" r="5"/><circle cx="2319" cy="297" r="5"/><circle cx="2337" cy="314" r="4"/><circle cx="2409" cy="248" r="6"/><circle cx="2505" cy="266" r="5"/><circle cx="56" cy="333" r="5"/><circle cx="146" cy="340" r="5"/><circle cx="209" cy="325" r="4"/><circle cx="244" cy="394" r="6"/><circle cx="396" cy="338" r="5"/><circle cx="438" cy="391" r="5"/><circle cx="497" cy="387" r="5"/><circle cx="587" cy="353" r="4"/><circle cx="709" cy="386" r="4"/><circle cx="763" cy="367" r="5"/><circle cx="818" cy="374" r="4"/><circle cx="886" cy="324" r="5"/><circle cx="965" cy="327" r="5"/><circle cx="1105" cy="394" r="5"/><circle cx="1199" cy="386" r="5"/><circle cx="1268" cy="389" r="5"/><circle cx="1300" cy="382" r="5"/><circle cx="1426" cy="377" r="4"/><circle cx="1483" cy="355" r="5"/><circle cx="1537" cy="357" r="6"/><circle cx="1623" cy="347" r="6"/><circle cx="1697" cy="369" r="5"/><circle cx="1829" cy="347" r="5"/><circle cx="1842" cy="362" r="6"/><circle cx="1939" cy="376" r="5"/><circle cx="2055" cy="355" r="4"/><circle cx="2139" cy="379" r="5"/><circle cx="2175" cy="350" r="6"/><circle cx="2249" cy="366" r="4"/><circle cx="2357" cy="346" r="5"/><circle cx="2477" cy="377" r="6"/><circle cx="2502" cy="395" r="4"/><circle cx="1" cy="477" r="4"/><circle cx="2561" cy="477" r="4"/><circle cx="155" cy="424" r="5"/><circle cx="218" cy="419" r="5"/><circle cx="277" cy="474" r="4"/><circle cx="397" cy="439" r="5"/><circle cx="417" cy="422" r="5"/><circle cx="539" cy="471" r="5"/><circle cx="595" cy="462" r="5"/><circle cx="683" cy="426" r="5"/><circle cx="770" cy="442" r="5"/><circle cx="873" cy="457" r="5"/><circle cx="888" cy="438" r="5"/><circle cx="990" cy="462" r="5"/><circle cx="1052" cy="414" r="5"/><circle cx="1183" cy="443" r="5"/><circle cx="1218" cy="464" r="4"/><circle cx="1308" cy="478" r="5"/><circle cx="1399" cy="441" r="5"/><circle cx="1457" cy="428" r="4"/><circle cx="1530" cy="445" r="5"/><circle cx="1612" cy="419" r="5"/><circle cx="1712" cy="435" r="4"/><circle cx="1804" cy="468" r="5"/><circle cx="1876" cy="440" r="5"/><circle cx="1931" cy="412" r="6"/><circle cx="2004" cy="432" r="5"/><circle cx="2153" cy="433" r="4"/><circle cx="2230" cy="402" r="6"/><circle cx="2303" cy="447" r="6"/><circle cx="2359" cy="446" r="5"/><circle cx="2408" cy="475" r="5"/><circle cx="2505" cy="428" r="4"/><circle cx="58" cy="489" r="5"/><circle cx="119" cy="503" r="5"/><circle cx="202" cy="500" r="6"/><circle cx="283" cy="544" r="5"/><circle cx="349" cy="497" r="5"/><circle cx="446" cy="557" r="5"/><circle cx="559" cy="486" r="6"/><circle cx="561" cy="539" r="4"/><circle cx="674" cy="494" r="5"/><circle cx="752" cy="487" r="4"/><circle cx="809" cy="536" r="4"/><circle cx="923" cy="503" r="6"/><circle cx="975" cy="482" r="6"/><circle cx="1110" cy="502" r="4"/><circle cx="1142" cy="497" r="5"/><circle cx="1207" cy="490" r="5"/><circle cx="1341" cy="481" r="5"/><circle cx="1388" cy="549" r="5"/><circle cx="1446" cy="524" r="5"/><circle cx="1558" cy="543" r="5"/><circle cx="1665" cy="524" r="5"/><circle cx="1712" cy="552" r="5"/><circle cx="1760" cy="547" r="5"/><circle cx="1886" cy="524" r="6"/><circle cx="1990" cy="526" r="4"/><circle cx="2044" cy="513" r="5"/><circle cx="2112" cy="512" r="4"/><circle cx="2211" cy="539" r="5"/><circle cx="2244" cy="528" r="5"/><circle cx="2329" cy="557" r="6"/><circle cx="2467" cy="484" r="4"/><circle cx="2481" cy="489" r="4"/><circle cx="45" cy="618" r="4"/><circle cx="108" cy="589" r="5"/><circle cx="169" cy="599" r="4"/><circle cx="298" cy="581" r="5"/><circle cx="344" cy="617" r="5"/><circle cx="451" cy="616" r="6"/><circle cx="516" cy="584" r="5"/><circle cx="626" cy="585" r="6"/><circle cx="710" cy="633" r="5"/><circle cx="789" cy="568" r="6"/><circle cx="845" cy="626" r="5"/><circle cx="944" cy="564" r="5"/><circle cx="1026" cy="619" r="4"/><circle cx="1064" cy="637" r="4"/><circle cx="1185" cy="562" r="4"/><circle cx="1201" cy="616" r="4"/><circle cx="1341" cy="564" r="5"/><circle cx="1382" cy="567" r="6"/><circle cx="1461" cy="618" r="6"/><circle cx="1556" cy="627" r="5"/><circle cx="1615" cy="639" r="4"/><circle cx="1737" cy="620" r="6"/><circle cx="1803" cy="588" r="4"/><circle cx="1851" cy="576" r="6"/><circle cx="1974" cy="597" r="4"/><circle cx="2018" cy="581" r="6"/><circle cx="2105" cy="569" r="4"/><circle cx="2189" cy="633" r="5"/><circle cx="2286" cy="566" r="5"/><circle cx="2340" cy="583" r="5"/><circle cx="2450" cy="581" r="6"/><circle cx="2486" cy="603" r="4"/><circle cx="68" cy="697" r="5"/><circle cx="158" cy="640" r="5"/><circle cx="198" cy="684" r="5"/><circle cx="254" cy="652" r="5"/><circle cx="348" cy="662" r="5"/><circle cx="440" cy="686" r="6"/><circle cx="508" cy="648" r="4"/><circle cx="636" cy="657" r="6"/><circle cx="713" cy="706" r="5"/><circle cx="780" cy="715" r="5"/><circle cx="822" cy="655" r="4"/><circle cx="951" cy="655" r="5"/><circle cx="1016" cy="651" r="4"/><circle cx="1100" cy="710" r="5"/><circle cx="1160" cy="646" r="6"/><circle cx="1211" cy="641" r="5"/><circle cx="1356" cy="719" r="5"/><circle cx="1437" cy="672" r="6"/><circle cx="1515" cy="671" r="6"/><circle cx="1565" cy="652" r="5"/><circle cx="1604" cy="690" r="4"/><circle cx="1724" cy="684" r="6"/><circle cx="1796" cy="655" r="6"/><circle cx="1867" cy="667" r="5"/><circle cx="1961" cy="674" r="6"/><circle cx="2036" cy="663" r="6"/><circle cx="2135" cy="672" r="5"/><circle cx="2188" cy="704" r="5"/><circle cx="2270" cy="694" r="6"/><circle cx="2394" cy="708" r="6"/><circle cx="2411" cy="688" r="5"/><circle cx="2506" cy="703" r="5"/><circle cx="22" cy="746" r="6"/><circle cx="152" cy="752" r="4"/><circle cx="179" cy="739" r="5"/><circle cx="250" cy="767" r="4"/><circle cx="353" cy="733" r="5"/><circle cx="401" cy="781" r="4"/><circle cx="529" cy="780" r="4"/><circle cx="573" cy="743" r="5"/><circle cx="706" cy="727" r="5"/><circle cx="756" cy="786" r="6"/><circle cx="862" cy="793" r="5"/><circle cx="940" cy="726" r="6"/><circle cx="971" cy="789" r="5"/><circle cx="1053" cy="760" r="5"/><circle cx="1176" cy="790" r="5"/><circle cx="1279" cy="740" r="5"/><circle cx="1354" cy="785" r="4"/><circle cx="1363" cy="741" r="6"/><circle cx="1475" cy="783" r="6"/><circle cx="1551" cy="796" r="5"/><circle cx="1671" cy="750" r="6"/><circle cx="1732" cy="794" r="5"/><circle cx="1838" cy="732" r="4"/><circle cx="1862" cy="732" r="6"/><circle cx="1970" cy="774" r="5"/><circle cx="2021" cy="793" r="5"/><circle cx="2086" cy="762" r="5"/><circle cx="2161" cy="729" r="6"/><circle cx="2256" cy="769" r="6"/><circle cx="2398" cy="736" r="6"/><circle cx="2473" cy="753" r="6"/><circle cx="2481" cy="724" r="5"/><circle cx="4" cy="871" r="6"/><circle cx="2564" cy="871" r="6"/><circle cx="149" cy="807" r="4"/><circle cx="164" cy="857" r="5"/><circle cx="316" cy="840" r="5"/><circle cx="328" cy="832" r="5"/><circle cx="403" cy="869" r="5"/><circle cx="540" cy="849" r="5"/><circle cx="603" cy="808" r="5"/><circle cx="683" cy="851" r="6"/><circle cx="742" cy="859" r="5"/><circle cx="823" cy="856" r="4"/><circle cx="898" cy="876" r="4"/><circle cx="1010" cy="828" r="5"/><circle cx="1114" cy="860" r="6"/><circle cx="1161" cy="803" r="4"/><circle cx="1233" cy="823" r="6"/><circle cx="1282" cy="866" r="5"/><circle cx="1393" cy="809" r="6"/><circle cx="1473" cy="862" r="4"/><circle cx="1535" cy="862" r="5"/><circle cx="1637" cy="856" r="4"/><circle cx="1688" cy="812" r="5"/><circle cx="1776" cy="847" r="4"/><circle cx="1890" cy="855" r="4"/><circle cx="1966" cy="862" r="5"/><circle cx="2051" cy="861" r="4"/><circle cx="2118" cy="834" r="5"/><circle cx="2197" cy="854" r="5"/><circle cx="2311" cy="817" r="5"/><circle cx="2339" cy="869" r="6"/><circle cx="2461" cy="800" r="6"/><circle cx="2489" cy="821" r="5"/><circle cx="34" cy="944" r="4"/><circle cx="101" cy="905" r="5"/><circle cx="232" cy="884" r="5"/><circle cx="311" cy="903" r="6"/><circle cx="385" cy="890" r="5"/><circle cx="470" cy="948" r="5"/><circle cx="549" cy="885" r="5"/><circle cx="582" cy="880" r="5"/><circle cx="700" cy="913" r="4"/><circle cx="754" cy="919" r="6"/><circle cx="862" cy="951" r="6"/><circle cx="936" cy="948" r="6"/><circle cx="975" cy="918" r="6"/><circle cx="1098" cy="944" r="4"/><circle cx="1134" cy="940" r="6"/><circle cx="1238" cy="884" r="6"/><circle cx="1334" cy="913" r="5"/><circle cx="1397" cy="938" r="5"/><circle cx="1509" cy="894" r="4"/><circle cx="1531" cy="941" r="5"/><circle cx="1600" cy="929" r="5"/><circle cx="1715" cy="944" r="5"/><circle cx="1818" cy="897" r="6"/><circle cx="1900" cy="939" r="5"/><circle cx="1940" cy="913" r="4"/><circle cx="2053" cy="948" r="5"/><circle cx="2142" cy="905" r="5"/><circle cx="2199" cy="959" r="5"/><circle cx="2306" cy="896" r="6"/><circle cx="2387" cy="894" r="5"/><circle cx="2415" cy="916" r="5"/><circle cx="2517" cy="926" r="4"/><circle cx="4" cy="985" r="5"/><circle cx="2564" cy="985" r="5"/><circle cx="83" cy="1003" r="4"/><circle cx="229" cy="998" r="5"/><circle cx="254" cy="975" r="4"/><circle cx="349" cy="961" r="5"/><circle cx="442" cy="1011" r="4"/><circle cx="543" cy="1001" r="5"/><circle cx="568" cy="1017" r="5"/><circle cx="698" cy="1011" r="5"/><circle cx="756" cy="1023" r="4"/><circle cx="848" cy="980" r="5"/><circle cx="960" cy="1030" r="4"/><circle cx="1029" cy="980" r="4"/><circle cx="1085" cy="1002" r="6"/><circle cx="1187" cy="1014" r="5"/><circle cx="1239" cy="1000" r="6"/><circle cx="1306" cy="991" r="4"/><circle cx="1400" cy="1018" r="5"/><circle cx="1490" cy="1002" r="6"/><circle cx="1547" cy="1007" r="6"/><circle cx="1631" cy="1024" r="5"/><circle cx="1732" cy="995" r="5"/><circle cx="1813" cy="996" r="5"/><circle cx="1877" cy="1002" r="5"/><circle cx="1943" cy="1032" r="4"/><circle cx="2002" cy="1028" r="5"/><circle cx="2090" cy="979" r="5"/><circle cx="2202" cy="988" r="5"/><circle cx="2318" cy="971" r="4"/><circle cx="2322" cy="1003" r="5"/><circle cx="2430" cy="1009" r="6"/><circle cx="2485" cy="998" r="4"/><circle cx="4" cy="1098" r="6"/><circle cx="2564" cy="1098" r="6"/><circle cx="144" cy="1066" r="5"/><circle cx="165" cy="1103" r="5"/><circle cx="313" cy="1090" r="6"/><circle cx="337" cy="1094" r="4"/><circle cx="458" cy="1058" r="5"/><circle cx="550" cy="1086" r="4"/><circle cx="603" cy="1064" r="5"/><circle cx="675" cy="1047" r="6"/><circle cx="751" cy="1089" r="4"/><circle cx="859" cy="1091" r="5"/><circle cx="959" cy="1106" r="6"/><circle cx="1019" cy="1045" r="5"/><circle cx="1096" cy="1067" r="4"/><circle cx="1171" cy="1087" r="4"/><circle cx="1226" cy="1091" r="6"/><circle cx="1355" cy="1044" r="6"/><circle cx="1439" cy="1070" r="5"/><circle cx="1466" cy="1057" r="5"/><circle cx="1542" cy="1101" r="5"/><circle cx="1656" cy="1068" r="4"/><circle cx="1727" cy="1103" r="6"/><circle cx="1802" cy="1098" r="4"/><circle cx="1881" cy="1082" r="5"/><circle cx="1945" cy="1060" r="5"/><circle cx="2068" cy="1111" r="5"/><circle cx="2108" cy="1050" r="5"/><circle cx="2166" cy="1051" r="5"/><circle cx="2299" cy="1120" r="5"/><circle cx="2356" cy="1088" r="4"/><circle cx="2459" cy="1116" r="6"/><circle cx="2525" cy="1049" r="4"/><circle cx="9" cy="1161" r="5"/><circle cx="150" cy="1178" r="6"/><circle cx="235" cy="1192" r="4"/><circle cx="287" cy="1124" r="5"/><circle cx="328" cy="1136" r="5"/><circle cx="417" cy="1148" r="4"/><circle cx="482" cy="1145" r="6"/><circle cx="613" cy="1196" r="5"/><circle cx="685" cy="1144" r="5"/><circle cx="728" cy="1189" r="5"/><circle cx="813" cy="1153" r="4"/><circle cx="902" cy="1183" r="5"/><circle cx="976" cy="1200" r="5"/><circle cx="1054" cy="1185" r="6"/><circle cx="1158" cy="1161" r="5"/><circle cx="1242" cy="1133" r="5"/><circle cx="1352" cy="1171" r="6"/><circle cx="1377" cy="1197" r="4"/><circle cx="1492" cy="1155" r="5"/><circle cx="1574" cy="1136" r="5"/><circle cx="1618" cy="1191" r="5"/><circle cx="1713" cy="1144" r="4"/><circle cx="1772" cy="1135" r="6"/><circle cx="1917" cy="1167" r="4"/><circle cx="1942" cy="1162" r="6"/><circle cx="2032" cy="1134" r="5"/><circle cx="2137" cy="1172" r="5"/><circle cx="2220" cy="1160" r="5"/><circle cx="2276" cy="1139" r="4"/><circle cx="2341" cy="1200" r="5"/><circle cx="2463" cy="1195" r="4"/><circle cx="2542" cy="1160" r="5"/><circle cx="71" cy="1278" r="5"/><circle cx="117" cy="1206" r="6"/><circle cx="238" cy="1215" r="5"/><circle cx="304" cy="1216" r="4"/><circle cx="329" cy="1275" r="4"/><circle cx="426" cy="1219" r="5"/><circle cx="536" cy="1207" r="5"/><circle cx="601" cy="1239" r="4"/><circle cx="713" cy="1252" r="6"/><circle cx="795" cy="1280" r="5"/><circle cx="862" cy="1257" r="4"/><circle cx="949" cy="1263" r="6"/><circle cx="1023" cy="1252" r="5"/><circle cx="1097" cy="1235" r="6"/><circle cx="1159" cy="1212" r="5"/><circle cx="1238" cy="1215" r="6"/><circle cx="1307" cy="1252" r="5"/><circle cx="1368" cy="1220" r="4"/><circle cx="1472" cy="1252" r="4"/><circle cx="1577" cy="1259" r="5"/><circle cx="1663" cy="1233" r="4"/><circle cx="1694" cy="1273" r="6"/><circle cx="1775" cy="1230" r="6"/><circle cx="1901" cy="1225" r="5"/><circle cx="1991" cy="1268" r="5"/><circle cx="2058" cy="1260" r="6"/><circle cx="2087" cy="1214" r="4"/><circle cx="2165" cy="1215" r="4"/><circle cx="2283" cy="1271" r="4"/><circle cx="2398" cy="1254" r="6"/><circle cx="2403" cy="1260" r="4"/><circle cx="2515" cy="1218" r="5"/><circle cx="49" cy="1341" r="6"/><circle cx="155" cy="1306" r="6"/><circle cx="191" cy="1360" r="4"/><circle cx="253" cy="1302" r="5"/><circle cx="389" cy="1302" r="6"/><circle cx="412" cy="1288" r="6"/><circle cx="516" cy="1356" r="6"/><circle cx="638" cy="1282" r="6"/><circle cx="678" cy="1291" r="5"/><circle cx="764" cy="1314" r="4"/><circle cx="867" cy="1359" r="4"/><circle cx="886" cy="1343" r="5"/><circle cx="988" cy="1342" r="4"/><circle cx="1082" cy="1327" r="5"/><circle cx="1121" cy="1334" r="4"/><circle cx="1210" cy="1356" r="6"/><circle cx="1327" cy="1332" r="5"/><circle cx="1401" cy="1346" r="5"/><circle cx="1508" cy="1300" r="4"/><circle cx="1583" cy="1308" r="4"/><circle cx="1619" cy="1354" r="5"/><circle cx="1687" cy="1347" r="5"/><circle cx="1812" cy="1313" r="5"/><circle cx="1869" cy="1345" r="6"/><circle cx="1926" cy="1323" r="5"/><circle cx="2038" cy="1349" r="5"/><circle cx="2160" cy="1358" r="5"/><circle cx="2209" cy="1301" r="5"/><circle cx="2245" cy="1298" r="4"/><circle cx="2373" cy="1348" r="4"/><circle cx="2459" cy="1306" r="5"/><circle cx="2510" cy="1316" r="5"/><circle cx="45" cy="1397" r="4"/><circle cx="101" cy="1398" r="4"/><circle cx="220" cy="1362" r="6"/><circle cx="315" cy="1372" r="4"/><circle cx="372" cy="1377" r="5"/><circle cx="432" cy="1415" r="6"/><circle cx="490" cy="1438" r="5"/><circle cx="490" cy="-2" r="5"/><circle cx="611" cy="1381" r="5"/><circle cx="712" cy="1361" r="4"/><circle cx="758" cy="1393" r="5"/><circle cx="836" cy="1402" r="5"/><circle cx="955" cy="1365" r="4"/><circle cx="1004" cy="1360" r="5"/><circle cx="1041" cy="1365" r="5"/><circle cx="1152" cy="1407" r="4"/><circle cx="1208" cy="1405" r="5"/><circle cx="1327" cy="1385" r="6"/><circle cx="1417" cy="1431" r="6"/><circle cx="1479" cy="1418" r="5"/><circle cx="1531" cy="1368" r="5"/><circle cx="1604" cy="1414" r="5"/><circle cx="1748" cy="1426" r="5"/><circle cx="1814" cy="1369" r="5"/><circle cx="1863" cy="1371" r="5"/><circle cx="1945" cy="1380" r="5"/><circle cx="2053" cy="1388" r="5"/><circle cx="2139" cy="1423" r="5"/><circle cx="2220" cy="1431" r="5"/><circle cx="2317" cy="1439" r="5"/><circle cx="2317" cy="-1" r="5"/><circle cx="2342" cy="1373" r="5"/><circle cx="2445" cy="1408" r="6"/><circle cx="2500" cy="1438" r="5"/><circle cx="2500" cy="-2" r="5"/><path stroke="#fff" d="M3 26L88 63M3 26L-7 80M3 26L66 92M3 26L45 -43M3 26L-60 -2M2563 26L2553 80M2563 26L2500 -2M3 1466L45 1397M3 1466L-60 1438M2563 1466L2500 1438M88 63L-7 80M88 63L66 92M88 63L145 97M88 63L180 141M2648 63L2553 80M234 2L259 39M234 2L145 97M234 2L191 -80M234 2L220 -78M234 2L315 -68M234 1442L191 1360M234 1442L220 1362M234 1442L315 1372M259 39L363 17M259 39L274 121M259 39L350 90M363 17L350 90M363 17L315 -68M363 17L372 -63M363 17L432 -25M363 1457L315 1372M363 1457L372 1377M363 1457L432 1415M465 56L550 35M465 56L402 142M465 56L432 -25M465 56L490 -2M465 1496L432 1415M465 1496L490 1438M550 35L593 0M550 35L660 13M550 35L628 87M550 35L490 -2M550 1475L490 1438M593 0L660 13M593 0L628 87M593 0L516 -84M593 0L611 -59M593 1440L516 1356M593 1440L611 1381M660 13L730 68M660 13L628 87M660 13L611 -59M660 1453L611 1381M730 68L814 58M730 68L628 87M730 68L664 126M730 68L736 150M814 58L907 75M814 58L841 133M814 58L758 -47M814 58L836 -38M814 1498L758 1393M814 1498L836 1402M907 75L1009 65M907 75L841 133M907 75L950 149M907 75L931 169M1009 65L1113 49M1009 65L950 149M1009 65L963 151M1009 65L1089 120M1113 49L1145 16M1113 49L1089 120M1113 49L1132 154M1113 49L1152 -33M1113 1489L1152 1407M1145 16L1152 -33M1145 16L1208 -35M1145 1456L1152 1407M1145 1456L1208 1405M1277 57L1347 49M1277 57L1212 119M1277 57L1316 133M1347 49L1413 44M1347 49L1316 133M1347 49L1327 -55M1347 49L1417 -9M1347 1489L1327 1385M1347 1489L1417 1431M1413 44L1427 127M1413 44L1448 108M1413 44L1417 -9M1413 44L1479 -22M1413 1484L1417 1431M1413 1484L1479 1418M1507 54L1554 17M1507 54L1448 108M1507 54L1479 -22M1507 1494L1479 1418M1554 17L1621 60M1554 17L1479 -22M1554 17L1604 -26M1554 1457L1479 1418M1554 1457L1604 1414M1621 60L1681 25M1621 60L1625 117M1621 60L1691 86M1621 60L1604 -26M1621 1500L1604 1414M1681 25L1691 86M1681 25L1604 -26M1681 25L1748 -14M1681 1465L1604 1414M1681 1465L1748 1426M1793 54L1885 49M1793 54L1691 86M1793 54L1791 129M1793 54L1799 180M1793 54L1748 -14M1793 1494L1748 1426M1885 49L1959 63M1885 49L1903 140M1959 63L2054 59M1959 63L1903 140M1959 63L1975 128M1959 63L2049 98M2054 59L2126 64M2054 59L1975 128M2054 59L2049 98M2054 59L2081 101M2126 64L2049 98M2126 64L2081 101M2126 64L2226 86M2126 64L2139 -17M2126 1504L2139 1423M2200 3L2226 86M2200 3L2160 -82M2200 3L2139 -17M2200 3L2220 -9M2200 1443L2160 1358M2200 1443L2139 1423M2200 1443L2220 1431M2268 75L2358 61M2268 75L2226 86M2268 75L2283 96M2268 75L2336 115M2268 75L2317 -1M2268 1515L2317 1439M2358 61L2283 96M2358 61L2336 115M2358 61L2413 140M2358 61L2317 -1M2358 1501L2317 1439M2467 19L2445 -32M2467 19L2500 -2M2467 1459L2445 1408M2467 1459L2500 1438M2553 80L2626 92M2553 80L2535 147M2553 80L2500 -2M-7 80L66 92M2553 1520L2500 1438M66 92L145 97M66 92L-25 147M2626 92L2535 147M145 97L180 141M145 97L142 193M180 141L274 121M180 141L142 193M180 141L235 205M274 121L350 90M274 121L299 211M350 90L402 142M350 90L376 163M402 142L504 152M402 142L376 163M402 142L457 206M504 152L457 206M504 152L539 166M504 152L531 251M628 87L664 126M664 126L736 150M664 126L539 166M664 126L690 201M736 150L690 201M736 150L778 225M736 150L775 243M841 133L778 225M841 133L878 195M841 133L931 169M950 149L963 151M950 149L878 195M950 149L931 169M963 151L931 169M963 151L1049 170M1089 120L1132 154M1089 120L1049 170M1089 120L1153 192M1132 154L1212 119M1132 154L1049 170M1132 154L1153 192M1212 119L1316 133M1212 119L1153 192M1212 119L1219 235M1316 133L1337 172M1427 127L1448 108M1427 127L1337 172M1427 127L1433 165M1427 127L1457 180M1448 108L1433 165M1448 108L1457 180M1571 155L1625 117M1571 155L1523 237M1571 155L1661 202M1571 155L1553 243M1625 117L1691 86M1625 117L1661 202M1625 117L1687 192M1791 129L1799 180M1791 129L1844 192M1903 140L1975 128M1903 140L1844 192M1903 140L1978 191M1975 128L2049 98M1975 128L1978 191M2049 98L2081 101M2081 101L2165 184M2226 86L2283 96M2226 86L2220 -9M2226 1526L2220 1431M2283 96L2336 115M2283 96L2317 -1M2283 1536L2317 1439M2336 115L2413 140M2336 115L2368 212M2413 140L2368 212M2413 140L2448 178M2535 147L2571 194M2535 147L2448 178M2535 147L2489 223M-25 147L11 194M11 194L-71 223M11 194L30 296M11 194L-55 266M2571 194L2489 223M2571 194L2505 266M142 193L235 205M142 193L104 258M142 193L209 276M235 205L299 211M235 205L209 276M235 205L301 252M299 211L376 163M299 211L301 252M376 163L301 252M457 206L539 166M457 206L473 293M457 206L531 251M539 166L591 239M539 166L531 251M591 239L531 251M591 239L639 319M591 239L587 353M690 201L778 225M690 201L697 294M690 201L775 243M778 225L878 195M778 225L775 243M878 195L931 169M878 195L902 301M1007 233L1049 170M1007 233L994 260M1007 233L1042 266M1049 170L1042 266M1153 192L1219 235M1153 192L1165 302M1219 235L1165 302M1219 235L1263 278M1337 172L1433 165M1337 172L1368 250M1433 165L1457 180M1433 165L1368 250M1457 180L1523 237M1457 180L1368 250M1523 237L1480 291M1523 237L1553 243M1523 237L1617 263M1661 202L1687 192M1661 202L1617 263M1661 202L1711 249M1687 192L1711 249M1799 180L1844 192M1799 180L1711 249M1799 180L1830 266M1844 192L1830 266M1978 191L2051 237M1978 191L1961 243M1978 191L2031 255M2051 237L2086 230M2051 237L1961 243M2051 237L2031 255M2086 230L2165 184M2086 230L2031 255M2086 230L2112 308M2165 184L2261 236M2261 236L2319 297M2261 236L2337 314M2368 212L2448 178M2368 212L2319 297M2368 212L2409 248M2448 178L2489 223M2448 178L2409 248M2489 223L2409 248M2489 223L2505 266M30 296L104 258M30 296L-55 266M30 296L56 333M2590 296L2505 266M104 258L56 333M104 258L146 340M209 276L301 252M209 276L146 340M209 276L209 325M301 252L384 290M384 290L473 293M384 290L396 338M384 290L438 391M473 293L531 251M473 293L396 338M473 293L497 387M639 319L697 294M639 319L587 353M639 319L709 386M697 294L775 243M697 294L709 386M697 294L763 367M775 243L873 309M873 309L902 301M873 309L818 374M873 309L886 324M873 309L965 327M902 301L994 260M902 301L886 324M902 301L965 327M994 260L1042 266M994 260L965 327M1042 266L965 327M1165 302L1263 278M1165 302L1199 386M1263 278L1340 298M1263 278L1368 250M1263 278L1300 382M1340 298L1368 250M1340 298L1300 382M1480 291L1553 243M1480 291L1426 377M1480 291L1483 355M1480 291L1537 357M1553 243L1617 263M1617 263L1711 249M1617 263L1623 347M1711 249L1697 369M1830 266L1873 286M1830 266L1829 347M1873 286L1961 243M1873 286L1829 347M1873 286L1842 362M1873 286L1939 376M1961 243L2031 255M2112 308L2179 306M2112 308L2055 355M2112 308L2139 379M2112 308L2175 350M2179 306L2139 379M2179 306L2175 350M2179 306L2249 366M2319 297L2337 314M2319 297L2357 346M2337 314L2409 248M2337 314L2249 366M2337 314L2357 346M2409 248L2505 266M2505 266L2477 377M56 333L146 340M146 340L209 325M146 340L155 424M209 325L244 394M209 325L218 419M244 394L155 424M244 394L218 419M244 394L277 474M396 338L438 391M396 338L397 439M396 338L417 422M438 391L497 387M438 391L397 439M438 391L417 422M497 387L587 353M497 387L417 422M497 387L539 471M709 386L763 367M709 386L683 426M709 386L770 442M763 367L818 374M763 367L683 426M763 367L770 442M818 374L886 324M818 374L770 442M818 374L888 438M886 324L965 327M1105 394L1199 386M1105 394L1052 414M1105 394L1183 443M1105 394L1110 502M1199 386L1268 389M1199 386L1183 443M1199 386L1218 464M1268 389L1300 382M1268 389L1218 464M1268 389L1308 478M1300 382L1308 478M1426 377L1483 355M1426 377L1399 441M1426 377L1457 428M1483 355L1537 357M1483 355L1457 428M1483 355L1530 445M1537 357L1623 347M1537 357L1530 445M1537 357L1612 419M1623 347L1697 369M1623 347L1612 419M1697 369L1612 419M1697 369L1712 435M1829 347L1842 362M1842 362L1939 376M1842 362L1876 440M1842 362L1931 412M1939 376L1876 440M1939 376L1931 412M1939 376L2004 432M2055 355L2004 432M2139 379L2175 350M2139 379L2153 433M2139 379L2230 402M2175 350L2249 366M2175 350L2230 402M2249 366L2230 402M2249 366L2303 447M2357 346L2359 446M2477 377L2502 395M2477 377L2505 428M2502 395L2561 477M2502 395L2505 428M-58 395L1 477M1 477L-55 428M1 477L58 489M1 477L-93 484M1 477L-79 489M2561 477L2505 428M2561 477L2467 484M2561 477L2481 489M155 424L218 419M155 424L119 503M155 424L202 500M218 419L277 474M218 419L202 500M277 474L202 500M277 474L283 544M277 474L349 497M397 439L417 422M397 439L349 497M417 422L349 497M539 471L595 462M539 471L559 486M539 471L561 539M595 462L683 426M595 462L559 486M595 462L561 539M595 462L674 494M683 426L770 442M683 426L674 494M770 442L752 487M873 457L888 438M873 457L809 536M873 457L923 503M888 438L990 462M888 438L923 503M888 438L975 482M990 462L1052 414M990 462L923 503M990 462L975 482M990 462L944 564M1052 414L975 482M1052 414L1110 502M1183 443L1218 464M1183 443L1142 497M1183 443L1207 490M1218 464L1142 497M1218 464L1207 490M1308 478L1341 481M1308 478L1341 564M1399 441L1457 428M1399 441L1341 481M1399 441L1446 524M1457 428L1530 445M1457 428L1446 524M1530 445L1612 419M1530 445L1558 543M1612 419L1712 435M1712 435L1804 468M1712 435L1665 524M1804 468L1876 440M1804 468L1760 547M1804 468L1886 524M1876 440L1931 412M1876 440L1886 524M1931 412L2004 432M1931 412L1886 524M2004 432L1990 526M2004 432L2044 513M2153 433L2230 402M2153 433L2112 512M2230 402L2303 447M2303 447L2359 446M2303 447L2244 528M2303 447L2329 557M2359 446L2408 475M2408 475L2467 484M2408 475L2481 489M2505 428L2467 484M2505 428L2481 489M58 489L119 503M58 489L108 589M119 503L202 500M119 503L108 589M119 503L169 599M202 500L283 544M283 544L349 497M283 544L298 581M283 544L344 617M349 497L298 581M446 557L451 616M446 557L516 584M446 557L508 648M559 486L561 539M559 486L516 584M559 486L626 585M561 539L516 584M561 539L626 585M674 494L752 487M674 494L626 585M752 487L809 536M752 487L789 568M809 536L789 568M809 536L845 626M923 503L975 482M923 503L944 564M975 482L944 564M1110 502L1142 497M1110 502L1207 490M1142 497L1207 490M1142 497L1185 562M1207 490L1185 562M1341 481L1388 549M1341 481L1341 564M1341 481L1382 567M1388 549L1446 524M1388 549L1341 564M1388 549L1382 567M1446 524L1382 567M1446 524L1461 618M1558 543L1665 524M1558 543L1556 627M1558 543L1565 652M1665 524L1712 552M1712 552L1760 547M1712 552L1737 620M1760 547L1737 620M1760 547L1803 588M1760 547L1851 576M1886 524L1990 526M1886 524L1851 576M1990 526L2044 513M1990 526L1974 597M1990 526L2018 581M2044 513L2112 512M2044 513L2018 581M2044 513L2105 569M2112 512L2211 539M2112 512L2105 569M2211 539L2244 528M2211 539L2189 633M2211 539L2286 566M2244 528L2329 557M2244 528L2286 566M2244 528L2340 583M2329 557L2286 566M2329 557L2340 583M2329 557L2450 581M2467 484L2481 489M2467 484L2450 581M2481 489L2450 581M45 618L108 589M45 618L68 697M108 589L169 599M108 589L158 640M169 599L158 640M169 599L198 684M298 581L344 617M298 581L254 652M298 581L348 662M344 617L451 616M344 617L254 652M344 617L348 662M451 616L516 584M451 616L440 686M451 616L508 648M516 584L508 648M626 585L710 633M626 585L636 657M710 633L789 568M710 633L636 657M710 633L713 706M710 633L706 727M789 568L845 626M789 568L822 655M845 626L780 715M845 626L822 655M845 626L951 655M944 564L1026 619M944 564L951 655M1026 619L1064 637M1026 619L951 655M1026 619L1016 651M1064 637L1016 651M1064 637L1100 710M1064 637L1160 646M1185 562L1201 616M1185 562L1160 646M1185 562L1211 641M1201 616L1160 646M1201 616L1211 641M1341 564L1382 567M1382 567L1461 618M1461 618L1437 672M1461 618L1515 671M1556 627L1615 639M1556 627L1515 671M1556 627L1565 652M1556 627L1604 690M1615 639L1565 652M1615 639L1604 690M1615 639L1724 684M1737 620L1803 588M1737 620L1724 684M1737 620L1796 655M1803 588L1851 576M1803 588L1796 655M1851 576L1796 655M1851 576L1867 667M1974 597L2018 581M1974 597L1961 674M1974 597L2036 663M2018 581L2105 569M2018 581L2036 663M2189 633L2135 672M2189 633L2188 704M2189 633L2270 694M2189 633L2161 729M2286 566L2340 583M2340 583L2450 581M2450 581L2486 603M68 697L22 746M68 697L152 752M158 640L198 684M158 640L254 652M158 640L179 739M198 684L254 652M198 684L152 752M198 684L179 739M254 652L348 662M348 662L440 686M348 662L353 733M440 686L508 648M440 686L353 733M440 686L401 781M636 657L713 706M636 657L573 743M636 657L706 727M713 706L780 715M713 706L706 727M713 706L756 786M780 715L822 655M780 715L706 727M780 715L756 786M951 655L1016 651M951 655L940 726M1016 651L1100 710M1016 651L940 726M1100 710L1160 646M1100 710L1053 760M1100 710L1176 790M1160 646L1211 641M1211 641L1279 740M1356 719L1437 672M1356 719L1279 740M1356 719L1354 785M1356 719L1363 741M1356 719L1393 809M1437 672L1515 671M1437 672L1363 741M1437 672L1475 783M1515 671L1565 652M1515 671L1604 690M1565 652L1604 690M1604 690L1671 750M1724 684L1796 655M1724 684L1671 750M1724 684L1732 794M1796 655L1867 667M1867 667L1961 674M1867 667L1838 732M1867 667L1862 732M1961 674L2036 663M1961 674L1862 732M1961 674L1970 774M2036 663L2135 672M2036 663L2086 762M2135 672L2188 704M2135 672L2086 762M2135 672L2161 729M2188 704L2270 694M2188 704L2161 729M2188 704L2256 769M2270 694L2256 769M2394 708L2411 688M2394 708L2398 736M2411 688L2506 703M2411 688L2398 736M2411 688L2481 724M2506 703L2582 746M2506 703L2473 753M2506 703L2481 724M2506 703L2461 800M-54 703L22 746M152 752L179 739M152 752L149 807M152 752L164 857M179 739L250 767M179 739L149 807M353 733L401 781M401 781L328 832M401 781L403 869M529 780L573 743M529 780L540 849M529 780L603 808M529 780L549 885M529 780L582 880M573 743L540 849M573 743L603 808M706 727L756 786M756 786L683 851M756 786L742 859M862 793L940 726M862 793L971 789M862 793L823 856M862 793L898 876M940 726L971 789M940 726L1053 760M971 789L1053 760M971 789L1010 828M1053 760L1010 828M1176 790L1114 860M1176 790L1161 803M1176 790L1233 823M1279 740L1354 785M1279 740L1363 741M1279 740L1233 823M1354 785L1363 741M1354 785L1393 809M1363 741L1393 809M1475 783L1551 796M1475 783L1393 809M1475 783L1473 862M1551 796L1535 862M1551 796L1637 856M1551 796L1509 894M1671 750L1732 794M1671 750L1637 856M1671 750L1688 812M1732 794L1637 856M1732 794L1688 812M1732 794L1776 847M1838 732L1862 732M1862 732L1970 774M1862 732L1890 855M1970 774L2021 793M1970 774L1966 862M2021 793L2086 762M2021 793L1966 862M2021 793L2051 861M2021 793L2118 834M2086 762L2161 729M2086 762L2118 834M2161 729L2256 769M2256 769L2197 854M2256 769L2311 817M2398 736L2473 753M2398 736L2481 724M2398 736L2461 800M2473 753L2481 724M2473 753L2461 800M2473 753L2489 821M2481 724L2461 800M4 871L-71 821M4 871L34 944M4 871L101 905M4 871L-43 926M2564 871L2489 821M2564 871L2517 926M149 807L164 857M149 807L101 905M164 857L101 905M164 857L232 884M316 840L328 832M316 840L403 869M316 840L232 884M316 840L311 903M316 840L385 890M328 832L403 869M328 832L311 903M328 832L385 890M403 869L385 890M540 849L603 808M540 849L549 885M540 849L582 880M603 808L683 851M603 808L582 880M683 851L742 859M683 851L700 913M683 851L754 919M742 859L823 856M742 859L700 913M742 859L754 919M823 856L898 876M823 856L754 919M823 856L862 951M898 876L862 951M898 876L936 948M898 876L975 918M1010 828L1114 860M1010 828L975 918M1114 860L1161 803M1114 860L1098 944M1114 860L1134 940M1161 803L1233 823M1233 823L1282 866M1233 823L1238 884M1282 866L1238 884M1282 866L1334 913M1393 809L1473 862M1473 862L1535 862M1473 862L1509 894M1535 862L1509 894M1535 862L1531 941M1535 862L1600 929M1637 856L1688 812M1637 856L1600 929M1688 812L1776 847M1776 847L1715 944M1776 847L1818 897M1890 855L1966 862M1890 855L1818 897M1890 855L1900 939M1890 855L1940 913M1966 862L2051 861M1966 862L1940 913M2051 861L2118 834M2051 861L2053 948M2118 834L2197 854M2118 834L2142 905M2197 854L2142 905M2197 854L2199 959M2311 817L2339 869M2311 817L2306 896M2311 817L2387 894M2339 869L2306 896M2339 869L2387 894M2339 869L2415 916M2339 869L2318 971M2461 800L2489 821M34 944L101 905M34 944L-43 926M34 944L4 985M34 944L83 1003M2594 944L2517 926M101 905L83 1003M232 884L311 903M232 884L229 998M232 884L254 975M311 903L385 890M311 903L349 961M385 890L349 961M470 948L549 885M470 948L442 1011M470 948L543 1001M470 948L568 1017M549 885L582 880M700 913L754 919M700 913L698 1011M754 919L862 951M862 951L936 948M862 951L848 980M936 948L975 918M936 948L848 980M936 948L960 1030M975 918L960 1030M975 918L1029 980M1098 944L1134 940M1098 944L1029 980M1098 944L1085 1002M1134 940L1238 884M1134 940L1085 1002M1134 940L1187 1014M1238 884L1334 913M1238 884L1239 1000M1334 913L1397 938M1334 913L1306 991M1397 938L1306 991M1397 938L1400 1018M1397 938L1355 1044M1509 894L1531 941M1531 941L1600 929M1531 941L1490 1002M1531 941L1547 1007M1600 929L1547 1007M1600 929L1631 1024M1715 944L1818 897M1715 944L1732 995M1715 944L1813 996M1818 897L1900 939M1818 897L1813 996M1900 939L1940 913M1900 939L1813 996M1900 939L1877 1002M2053 948L2142 905M2053 948L2002 1028M2053 948L2090 979M2142 905L2199 959M2142 905L2090 979M2199 959L2202 988M2199 959L2166 1051M2306 896L2387 894M2306 896L2318 971M2306 896L2322 1003M2387 894L2415 916M2387 894L2318 971M2415 916L2517 926M2415 916L2430 1009M2415 916L2485 998M2517 926L2564 985M2517 926L2485 998M-43 926L4 985M4 985L83 1003M4 985L-75 998M4 985L-35 1049M2564 985L2485 998M2564 985L2525 1049M83 1003L144 1066M229 998L254 975M229 998L144 1066M229 998L165 1103M229 998L313 1090M254 975L349 961M349 961L442 1011M442 1011L458 1058M543 1001L568 1017M543 1001L458 1058M543 1001L550 1086M543 1001L603 1064M568 1017L550 1086M568 1017L603 1064M698 1011L756 1023M698 1011L675 1047M698 1011L751 1089M756 1023L848 980M756 1023L675 1047M756 1023L751 1089M756 1023L859 1091M848 980L859 1091M960 1030L1029 980M960 1030L959 1106M960 1030L1019 1045M1029 980L1085 1002M1029 980L1019 1045M1085 1002L1019 1045M1085 1002L1096 1067M1187 1014L1239 1000M1187 1014L1096 1067M1187 1014L1171 1087M1187 1014L1226 1091M1239 1000L1306 991M1239 1000L1226 1091M1306 991L1355 1044M1400 1018L1490 1002M1400 1018L1355 1044M1400 1018L1439 1070M1400 1018L1466 1057M1490 1002L1547 1007M1490 1002L1439 1070M1490 1002L1466 1057M1547 1007L1631 1024M1547 1007L1466 1057M1631 1024L1732 995M1631 1024L1656 1068M1732 995L1813 996M1732 995L1656 1068M1732 995L1727 1103M1813 996L1877 1002M1877 1002L1943 1032M1877 1002L1881 1082M1877 1002L1945 1060M1943 1032L2002 1028M1943 1032L1881 1082M1943 1032L1945 1060M2002 1028L2090 979M2002 1028L1945 1060M2002 1028L2068 1111M2090 979L2108 1050M2090 979L2166 1051M2202 988L2322 1003M2202 988L2108 1050M2202 988L2166 1051M2318 971L2322 1003M2322 1003L2430 1009M2322 1003L2356 1088M2430 1009L2485 998M2430 1009L2459 1116M2430 1009L2525 1049M2485 998L2525 1049M4 1098L-101 1116M4 1098L-35 1049M4 1098L9 1161M4 1098L-18 1160M2564 1098L2459 1116M2564 1098L2525 1049M2564 1098L2542 1160M144 1066L165 1103M144 1066L150 1178M165 1103L150 1178M165 1103L117 1206M313 1090L337 1094M313 1090L287 1124M313 1090L328 1136M337 1094L287 1124M337 1094L328 1136M337 1094L417 1148M458 1058L550 1086M458 1058L417 1148M458 1058L482 1145M550 1086L603 1064M550 1086L482 1145M603 1064L675 1047M675 1047L751 1089M675 1047L685 1144M751 1089L685 1144M751 1089L813 1153M859 1091L959 1106M859 1091L813 1153M859 1091L902 1183M959 1106L1019 1045M959 1106L902 1183M959 1106L976 1200M1019 1045L1096 1067M1096 1067L1171 1087M1171 1087L1226 1091M1171 1087L1158 1161M1171 1087L1242 1133M1226 1091L1158 1161M1226 1091L1242 1133M1355 1044L1439 1070M1439 1070L1466 1057M1439 1070L1492 1155M1466 1057L1542 1101M1542 1101L1492 1155M1542 1101L1574 1136M1656 1068L1727 1103M1656 1068L1574 1136M1656 1068L1713 1144M1727 1103L1802 1098M1727 1103L1713 1144M1727 1103L1772 1135M1802 1098L1881 1082M1802 1098L1772 1135M1881 1082L1945 1060M1881 1082L1942 1162M1945 1060L1942 1162M2068 1111L2108 1050M2068 1111L2166 1051M2068 1111L2032 1134M2068 1111L2137 1172M2108 1050L2166 1051M2108 1050L2032 1134M2299 1120L2356 1088M2299 1120L2220 1160M2299 1120L2276 1139M2299 1120L2341 1200M2356 1088L2276 1139M2459 1116L2525 1049M2459 1116L2463 1195M2459 1116L2542 1160M9 1161L-18 1160M9 1161L117 1206M9 1161L-45 1218M2569 1161L2542 1160M2569 1161L2515 1218M150 1178L235 1192M150 1178L117 1206M150 1178L238 1215M235 1192L287 1124M235 1192L238 1215M235 1192L304 1216M287 1124L328 1136M287 1124L304 1216M328 1136L417 1148M328 1136L304 1216M417 1148L482 1145M417 1148L426 1219M482 1145L426 1219M482 1145L536 1207M613 1196L685 1144M613 1196L536 1207M613 1196L601 1239M613 1196L638 1282M685 1144L728 1189M728 1189L813 1153M728 1189L713 1252M902 1183L976 1200M902 1183L862 1257M902 1183L949 1263M976 1200L1054 1185M976 1200L949 1263M976 1200L1023 1252M1054 1185L1023 1252M1054 1185L1097 1235M1054 1185L1159 1212M1158 1161L1097 1235M1158 1161L1159 1212M1158 1161L1238 1215M1242 1133L1352 1171M1242 1133L1159 1212M1242 1133L1238 1215M1352 1171L1377 1197M1352 1171L1238 1215M1352 1171L1307 1252M1352 1171L1368 1220M1377 1197L1492 1155M1377 1197L1307 1252M1377 1197L1368 1220M1492 1155L1574 1136M1492 1155L1472 1252M1574 1136L1618 1191M1618 1191L1713 1144M1618 1191L1577 1259M1618 1191L1663 1233M1618 1191L1694 1273M1713 1144L1772 1135M1713 1144L1775 1230M1772 1135L1775 1230M1917 1167L1942 1162M1917 1167L1901 1225M1942 1162L2032 1134M1942 1162L1901 1225M2032 1134L2137 1172M2032 1134L2087 1214M2137 1172L2220 1160M2137 1172L2087 1214M2137 1172L2165 1215M2220 1160L2276 1139M2220 1160L2165 1215M2276 1139L2341 1200M2341 1200L2283 1271M2341 1200L2398 1254M2341 1200L2403 1260M2463 1195L2542 1160M2463 1195L2398 1254M2463 1195L2403 1260M2463 1195L2515 1218M2542 1160L2515 1218M71 1278L117 1206M71 1278L49 1341M71 1278L155 1306M117 1206L155 1306M238 1215L304 1216M238 1215L253 1302M304 1216L329 1275M329 1275L253 1302M329 1275L389 1302M329 1275L412 1288M426 1219L536 1207M426 1219L389 1302M426 1219L412 1288M536 1207L601 1239M601 1239L638 1282M601 1239L678 1291M713 1252L795 1280M713 1252L638 1282M713 1252L678 1291M713 1252L764 1314M795 1280L862 1257M795 1280L764 1314M862 1257L949 1263M862 1257L867 1359M862 1257L886 1343M949 1263L1023 1252M949 1263L988 1342M1023 1252L1097 1235M1023 1252L1082 1327M1097 1235L1159 1212M1097 1235L1082 1327M1159 1212L1238 1215M1238 1215L1307 1252M1307 1252L1368 1220M1307 1252L1327 1332M1368 1220L1472 1252M1472 1252L1401 1346M1472 1252L1508 1300M1577 1259L1663 1233M1577 1259L1508 1300M1577 1259L1583 1308M1663 1233L1694 1273M1663 1233L1775 1230M1694 1273L1775 1230M1694 1273L1619 1354M1694 1273L1687 1347M1775 1230L1812 1313M1901 1225L1991 1268M1901 1225L1926 1323M1991 1268L2058 1260M1991 1268L1926 1323M1991 1268L2038 1349M2058 1260L2087 1214M2058 1260L2165 1215M2058 1260L2038 1349M2058 1260L2053 1388M2087 1214L2165 1215M2165 1215L2209 1301M2283 1271L2209 1301M2283 1271L2245 1298M2283 1271L2342 1373M2398 1254L2403 1260M2398 1254L2373 1348M2398 1254L2459 1306M2403 1260L2373 1348M2403 1260L2459 1306M2515 1218L2510 1316M49 1341L-50 1316M49 1341L45 1397M49 1341L101 1398M2609 1341L2510 1316M155 1306L191 1360M155 1306L253 1302M155 1306L220 1362M191 1360L253 1302M191 1360L101 1398M191 1360L220 1362M253 1302L220 1362M389 1302L412 1288M389 1302L315 1372M389 1302L372 1377M412 1288L516 1356M412 1288L372 1377M516 1356L432 1415M516 1356L490 1438M516 1356L611 1381M638 1282L678 1291M638 1282L611 1381M678 1291L764 1314M678 1291L712 1361M764 1314L712 1361M764 1314L758 1393M867 1359L886 1343M867 1359L758 1393M867 1359L836 1402M867 1359L955 1365M886 1343L836 1402M886 1343L955 1365M988 1342L955 1365M988 1342L1004 1360M988 1342L1041 1365M1082 1327L1121 1334M1082 1327L1004 1360M1082 1327L1041 1365M1121 1334L1210 1356M1121 1334L1041 1365M1121 1334L1152 1407M1121 1334L1208 1405M1210 1356L1327 1332M1210 1356L1152 1407M1210 1356L1208 1405M1210 1356L1327 1385M1327 1332L1401 1346M1327 1332L1327 1385M1401 1346L1327 1385M1401 1346L1417 1431M1508 1300L1583 1308M1508 1300L1531 1368M1583 1308L1619 1354M1583 1308L1531 1368M1619 1354L1687 1347M1619 1354L1531 1368M1619 1354L1604 1414M1687 1347L1748 1426M1812 1313L1869 1345M1812 1313L1814 1369M1812 1313L1863 1371M1869 1345L1926 1323M1869 1345L1814 1369M1869 1345L1863 1371M1869 1345L1945 1380M1926 1323L1863 1371M1926 1323L1945 1380M2038 1349L1945 1380M2038 1349L2053 1388M2160 1358L2209 1301M2160 1358L2245 1298M2160 1358L2139 1423M2160 1358L2220 1431M2209 1301L2245 1298M2373 1348L2459 1306M2373 1348L2342 1373M2373 1348L2445 1408M2459 1306L2510 1316M2459 1306L2445 1408M45 1397L101 1398M45 1397L-60 1438M2605 1397L2500 1438M220 1362L315 1372M315 1372L372 1377M372 1377L432 1415M432 1415L490 1438M611 1381L712 1361M712 1361L758 1393M758 1393L836 1402M955 1365L1004 1360M955 1365L1041 1365M1004 1360L1041 1365M1152 1407L1208 1405M1327 1385L1417 1431M1417 1431L1479 1418M1479 1418L1531 1368M1531 1368L1604 1414M1748 1426L1814 1369M1814 1369L1863 1371M1863 1371L1945 1380M1945 1380L2053 1388M2053 1388L2139 1423M2139 1423L2220 1431M2220 1431L2317 1439M2317 1439L2342 1373M2342 1373L2445 1408M2445 1408L2500 1438"/></svg>