<svg xmlns="http://www.w3.org/2000/svg" width="2560" height="1440" fill="#fff"><circle cx="56" cy="43" r="5"/><circle cx="88" cy="62" r="5"/><circle cx="193" cy="69" r="5"/><circle cx="296" cy="72" r="4"/><circle cx="363" cy="74" r="6"/><circle cx="471" cy="18" r="5"/><circle cx="533" cy="78" r="5"/><circle cx="619" cy="19" r="6"/><circle cx="690" cy="6" r="4"/><circle cx="737" cy="43" r="6"/><circle cx="871" cy="31" r="5"/><circle cx="923" cy="48" r="6"/><circle cx="987" cy="37" r="5"/><circle cx="1111" cy="51" r="4"/><circle cx="1168" cy="18" r="6"/><circle cx="1267" cy="67" r="5"/><circle cx="1356" cy="18" r="6"/><circle cx="1430" cy="12" r="5"/><circle cx="1518" cy="79" r="6"/><circle cx="1596" cy="37" r="5"/><circle cx="1638" cy="32" r="5"/><circle cx="1706" cy="62" r="6"/><circle cx="1790" cy="54" r="4"/><circle cx="1864" cy="59" r="5"/><circle cx="1980" cy="18" r="4"/><circle cx="2006" cy="13" r="6"/><circle cx="2113" cy="59" r="5"/><circle cx="2213" cy="9" r="6"/><circle cx="2263" cy="39" r="5"/><circle cx="2323" cy="50" r="6"/><circle cx="2451" cy="40" r="5"/><circle cx="2536" cy="35" r="4"/><circle cx="80" cy="147" r="5"/><circle cx="125" cy="92" r="5"/><circle cx="225" cy="90" r="4"/><circle cx="308" cy="136" r="6"/><circle cx="400" cy="138" r="4"/><circle cx="478" cy="153" r="5"/><circle cx="559" cy="124" r="6"/><circle cx="575" cy="127" r="5"/><circle cx="689" cy="147" r="6"/><circle cx="757" cy="91" r="6"/><circle cx="853" cy="86" r="5"/><circle cx="948" cy="159" r="6"/><circle cx="967" cy="148" r="5"/><circle cx="1097" cy="113" r="6"/><circle cx="1193" cy="93" r="5"/><circle cx="1203" cy="81" r="5"/><circle cx="1287" cy="160" r="5"/><circle cx="1393" cy="125" r="4"/><circle cx="1503" cy="157" r="4"/><circle cx="1554" cy="146" r="6"/><circle cx="1632" cy="84" r="4"/><circle cx="1754" cy="133" r="5"/><circle cx="1824" cy="84" r="4"/><circle cx="1886" cy="100" r="6"/><circle cx="1994" cy="122" r="6"/><circle cx="2073" cy="122" r="5"/><circle cx="2084" cy="118" r="5"/><circle cx="2191" cy="131" r="4"/><circle cx="2284" cy="147" r="5"/><circle cx="2380" cy="147" r="6"/><circle cx="2455" cy="86" r="6"/><circle cx="2553" cy="126" r="6"/><circle cx="16" cy="239" r="5"/><circle cx="120" cy="166" r="5"/><circle cx="232" cy="239" r="5"/><circle cx="275" cy="185" r="4"/><circle cx="380" cy="211" r="4"/><circle cx="477" cy="217" r="5"/><circle cx="535" cy="189" r="6"/><circle cx="600" cy="233" r="5"/><circle cx="669" cy="199" r="5"/><circle cx="738" cy="161" r="4"/><circle cx="868" cy="182" r="5"/><circle cx="928" cy="182" r="4"/><circle cx="964" cy="199" r="5"/><circle cx="1054" cy="225" r="6"/><circle cx="1194" cy="166" r="5"/><circle cx="1206" cy="203" r="5"/><circle cx="1284" cy="169" r="5"/><circle cx="1370" cy="167" r="5"/><circle cx="1493" cy="220" r="6"/><circle cx="1545" cy="231" r="6"/><circle cx="1644" cy="214" r="5"/><circle cx="1719" cy="186" r="4"/><circle cx="1835" cy="181" r="4"/><circle cx="1896" cy="230" r="5"/><circle cx="1980" cy="239" r="4"/><circle cx="2039" cy="162" r="4"/><circle cx="2153" cy="189" r="5"/><circle cx="2222" cy="196" r="5"/><circle cx="2299" cy="221" r="4"/><circle cx="2329" cy="174" r="4"/><circle cx="2432" cy="238" r="5"/><circle cx="2502" cy="167" r="6"/><circle cx="45" cy="299" r="4"/><circle cx="84" cy="292" r="4"/><circle cx="197" cy="266" r="5"/><circle cx="267" cy="286" r="5"/><circle cx="337" cy="250" r="5"/><circle cx="449" cy="257" r="5"/><circle cx="493" cy="315" r="6"/><circle cx="587" cy="310" r="5"/><circle cx="704" cy="318" r="5"/><circle cx="778" cy="263" r="4"/><circle cx="807" cy="312" r="5"/><circle cx="903" cy="297" r="5"/><circle cx="960" cy="286" r="5"/><circle cx="1099" cy="299" r="5"/><circle cx="1190" cy="259" r="6"/><circle cx="1269" cy="252" r="5"/><circle cx="1331" cy="292" r="5"/><circle cx="1388" cy="245" r="4"/><circle cx="1469" cy="291" r="6"/><circle cx="1591" cy="288" r="6"/><circle cx="1615" cy="263" r="6"/><circle cx="1755" cy="252" r="6"/><circle cx="1771" cy="270" r="6"/><circle cx="1871" cy="310" r="4"/><circle cx="1961" cy="240" r="5"/><circle cx="2056" cy="258" r="5"/><circle cx="2158" cy="320" r="6"/><circle cx="2189" cy="272" r="4"/><circle cx="2296" cy="278" r="4"/><circle cx="2391" cy="250" r="6"/><circle cx="2404" cy="290" r="5"/><circle cx="2490" cy="240" r="4"/><circle cx="69" cy="387" r="4"/><circle cx="160" cy="321" r="5"/><circle cx="234" cy="332" r="4"/><circle cx="292" cy="376" r="5"/><circle cx="397" cy="396" r="4"/><circle cx="446" cy="340" r="6"/><circle cx="544" cy="375" r="5"/><circle cx="573" cy="382" r="5"/><circle cx="698" cy="376" r="5"/><circle cx="743" cy="329" r="4"/><circle cx="829" cy="339" r="4"/><circle cx="939" cy="395" r="5"/><circle cx="1029" cy="387" r="5"/><circle cx="1041" cy="348" r="5"/><circle cx="1135" cy="355" r="5"/><circle cx="1268" cy="324" r="4"/><circle cx="1311" cy="375" r="5"/><circle cx="1362" cy="336" r="6"/><circle cx="1496" cy="374" r="4"/><circle cx="1579" cy="347" r="6"/><circle cx="1617" cy="362" r="4"/><circle cx="1726" cy="370" r="5"/><circle cx="1806" cy="325" r="4"/><circle cx="1904" cy="334" r="5"/><circle cx="1929" cy="368" r="5"/><circle cx="2053" cy="392" r="6"/><circle cx="2152" cy="389" r="4"/><circle cx="2173" cy="368" r="4"/><circle cx="2260" cy="394" r="6"/><circle cx="2349" cy="376" r="5"/><circle cx="2410" cy="352" r="6"/><circle cx="2485" cy="336" r="5"/><circle cx="76" cy="476" r="5"/><circle cx="104" cy="458" r="4"/><circle cx="188" cy="423" r="5"/><circle cx="301" cy="419" r="5"/><circle cx="324" cy="464" r="5"/><circle cx="436" cy="464" r="5"/><circle cx="522" cy="400" r="6"/><circle cx="606" cy="415" r="4"/><circle cx="666" cy="433" r="4"/><circle cx="739" cy="465" r="6"/><circle cx="875" cy="471" r="4"/><circle cx="943" cy="422" r="5"/><circle cx="1015" cy="479" r="5"/><circle cx="1107" cy="449" r="5"/><circle cx="1138" cy="453" r="4"/><circle cx="1275" cy="414" r="6"/><circle cx="1341" cy="401" r="6"/><circle cx="1364" cy="400" r="6"/><circle cx="1464" cy="466" r="5"/><circle cx="1576" cy="460" r="5"/><circle cx="1651" cy="456" r="6"/><circle cx="1730" cy="418" r="6"/><circle cx="1828" cy="424" r="5"/><circle cx="1854" cy="476" r="6"/><circle cx="1990" cy="452" r="6"/><circle cx="2027" cy="451" r="6"/><circle cx="2115" cy="467" r="5"/><circle cx="2184" cy="438" r="5"/><circle cx="2268" cy="414" r="4"/><circle cx="2379" cy="434" r="5"/><circle cx="2450" cy="448" r="4"/><circle cx="2555" cy="435" r="5"/><circle cx="31" cy="511" r="5"/><circle cx="97" cy="545" r="5"/><circle cx="209" cy="544" r="5"/><circle cx="292" cy="494" r="5"/><circle cx="374" cy="536" r="4"/><circle cx="420" cy="538" r="4"/><circle cx="539" cy="553" r="6"/><circle cx="575" cy="516" r="4"/><circle cx="672" cy="528" r="5"/><circle cx="738" cy="534" r="6"/><circle cx="838" cy="502" r="4"/><circle cx="927" cy="541" r="5"/><circle cx="1035" cy="535" r="4"/><circle cx="1094" cy="487" r="5"/><circle cx="1156" cy="490" r="6"/><circle cx="1232" cy="488" r="4"/><circle cx="1343" cy="544" r="6"/><circle cx="1416" cy="480" r="5"/><circle cx="1444" cy="506" r="5"/><circle cx="1578" cy="559" r="6"/><circle cx="1608" cy="504" r="5"/><circle cx="1735" cy="484" r="6"/><circle cx="1789" cy="490" r="5"/><circle cx="1918" cy="542" r="5"/><circle cx="1958" cy="481" r="5"/><circle cx="2001" cy="486" r="5"/><circle cx="2135" cy="528" r="4"/><circle cx="2187" cy="503" r="5"/><circle cx="2279" cy="558" r="5"/><circle cx="2369" cy="500" r="6"/><circle cx="2411" cy="487" r="5"/><circle cx="2540" cy="555" r="5"/><circle cx="11" cy="627" r="4"/><circle cx="158" cy="633" r="5"/><circle cx="190" cy="562" r="4"/><circle cx="319" cy="616" r="4"/><circle cx="380" cy="628" r="4"/><circle cx="448" cy="639" r="6"/><circle cx="540" cy="573" r="6"/><circle cx="562" cy="567" r="6"/><circle cx="680" cy="605" r="4"/><circle cx="758" cy="620" r="5"/><circle cx="862" cy="634" r="5"/><circle cx="933" cy="608" r="5"/><circle cx="1015" cy="561" r="4"/><circle cx="1093" cy="593" r="5"/><circle cx="1198" cy="636" r="4"/><circle cx="1248" cy="601" r="4"/><circle cx="1287" cy="630" r="5"/><circle cx="1438" cy="565" r="6"/><circle cx="1502" cy="605" r="5"/><circle cx="1564" cy="603" r="4"/><circle cx="1637" cy="568" r="6"/><circle cx="1720" cy="617" r="4"/><circle cx="1775" cy="620" r="5"/><circle cx="1857" cy="592" r="6"/><circle cx="1979" cy="564" r="4"/><circle cx="2038" cy="563" r="5"/><circle cx="2090" cy="640" r="5"/><circle cx="2185" cy="631" r="4"/><circle cx="2266" cy="607" r="6"/><circle cx="2338" cy="614" r="5"/><circle cx="2425" cy="569" r="5"/><circle cx="2560" cy="608" r="5"/><circle cx="-0" cy="608" r="5"/><circle cx="55" cy="713" r="6"/><circle cx="138" cy="662" r="5"/><circle cx="178" cy="656" r="4"/><circle cx="304" cy="642" r="5"/><circle cx="380" cy="663" r="6"/><circle cx="420" cy="655" r="5"/><circle cx="533" cy="697" r="4"/><circle cx="612" cy="719" r="5"/><circle cx="680" cy="715" r="5"/><circle cx="727" cy="667" r="5"/><circle cx="869" cy="649" r="5"/><circle cx="916" cy="652" r="5"/><circle cx="966" cy="695" r="4"/><circle cx="1045" cy="688" r="4"/><circle cx="1162" cy="694" r="5"/><circle cx="1230" cy="655" r="5"/><circle cx="1288" cy="690" r="5"/><circle cx="1363" cy="712" r="4"/><circle cx="1500" cy="672" r="5"/><circle cx="1540" cy="640" r="5"/><circle cx="1669" cy="653" r="5"/><circle cx="1759" cy="672" r="5"/><circle cx="1819" cy="681" r="5"/><circle cx="1847" cy="660" r="6"/><circle cx="1941" cy="645" r="6"/><circle cx="2065" cy="699" r="6"/><circle cx="2104" cy="655" r="5"/><circle cx="2183" cy="701" r="5"/><circle cx="2273" cy="661" r="5"/><circle cx="2392" cy="692" r="5"/><circle cx="2464" cy="653" r="5"/><circle cx="2496" cy="683" r="6"/><circle cx="31" cy="744" r="4"/><circle cx="96" cy="759" r="5"/><circle cx="185" cy="782" r="4"/><circle cx="283" cy="729" r="6"/><circle cx="374" cy="759" r="5"/><circle cx="449" cy="771" r="5"/><circle cx="537" cy="735" r="6"/><circle cx="597" cy="771" r="5"/><circle cx="659" cy="752" r="4"/><circle cx="779" cy="727" r="6"/><circle cx="823" cy="794" r="4"/><circle cx="953" cy="767" r="5"/><circle cx="993" cy="794" r="4"/><circle cx="1085" cy="742" r="6"/><circle cx="1187" cy="758" r="4"/><circle cx="1205" cy="794" r="6"/><circle cx="1282" cy="755" r="5"/><circle cx="1395" cy="771" r="5"/><circle cx="1494" cy="728" r="4"/><circle cx="1566" cy="751" r="4"/><circle cx="1606" cy="784" r="6"/><circle cx="1734" cy="731" r="5"/><circle cx="1775" cy="762" r="5"/><circle cx="1914" cy="797" r="4"/><circle cx="1956" cy="763" r="4"/><circle cx="2061" cy="778" r="5"/><circle cx="2129" cy="751" r="5"/><circle cx="2224" cy="738" r="6"/><circle cx="2248" cy="742" r="4"/><circle cx="2353" cy="734" r="6"/><circle cx="2437" cy="744" r="5"/><circle cx="2547" cy="728" r="6"/><circle cx="21" cy="807" r="5"/><circle cx="118" cy="807" r="5"/><circle cx="183" cy="821" r="6"/><circle cx="309" cy="864" r="5"/><circle cx="394" cy="847" r="4"/><circle cx="421" cy="817" r="5"/><circle cx="491" cy="817" r="6"/><circle cx="639" cy="873" r="6"/><circle cx="703" cy="877" r="6"/><circle cx="764" cy="824" r="6"/><circle cx="821" cy="867" r="4"/><circle cx="889" cy="858" r="5"/><circle cx="1007" cy="859" r="5"/><circle cx="1047" cy="838" r="4"/><circle cx="1176" cy="856" r="6"/><circle cx="1211" cy="875" r="6"/><circle cx="1310" cy="863" r="5"/><circle cx="1388" cy="835" r="4"/><circle cx="1512" cy="819" r="5"/><circle cx="1568" cy="875" r="6"/><circle cx="1668" cy="869" r="6"/><circle cx="1718" cy="828" r="6"/><circle cx="1777" cy="871" r="5"/><circle cx="1871" cy="876" r="5"/><circle cx="1934" cy="871" r="5"/><circle cx="2012" cy="833" r="4"/><circle cx="2088" cy="844" r="5"/><circle cx="2192" cy="852" r="6"/><circle cx="2242" cy="857" r="4"/><circle cx="2355" cy="864" r="6"/><circle cx="2402" cy="812" r="6"/><circle cx="2513" cy="879" r="5"/><circle cx="7" cy="908" r="6"/><circle cx="90" cy="885" r="5"/><circle cx="238" cy="881" r="5"/><circle cx="263" cy="907" r="4"/><circle cx="384" cy="950" r="5"/><circle cx="415" cy="918" r="5"/><circle cx="546" cy="914" r="5"/><circle cx="638" cy="900" r="6"/><circle cx="650" cy="887" r="4"/><circle cx="749" cy="921" r="4"/><circle cx="871" cy="896" r="5"/><circle cx="901" cy="908" r="6"/><circle cx="973" cy="924" r="5"/><circle cx="1056" cy="934" r="5"/><circle cx="1148" cy="921" r="6"/><circle cx="1242" cy="926" r="5"/><circle cx="1323" cy="891" r="5"/><circle cx="1382" cy="924" r="5"/><circle cx="1517" cy="905" r="5"/><circle cx="1544" cy="926" r="4"/><circle cx="1611" cy="899" r="4"/><circle cx="1706" cy="886" r="4"/><circle cx="1793" cy="948" r="6"/><circle cx="1913" cy="916" r="4"/><circle cx="1993" cy="897" r="5"/><circle cx="2022" cy="898" r="5"/><circle cx="2115" cy="925" r="5"/><circle cx="2188" cy="917" r="5"/><circle cx="2312" cy="953" r="6"/><circle cx="2348" cy="891" r="4"/><circle cx="2449" cy="889" r="5"/><circle cx="2538" cy="882" r="5"/><circle cx="64" cy="1001" r="5"/><circle cx="125" cy="996" r="6"/><circle cx="192" cy="1023" r="6"/><circle cx="290" cy="984" r="5"/><circle cx="390" cy="1010" r="6"/><circle cx="419" cy="981" r="4"/><circle cx="558" cy="999" r="5"/><circle cx="616" cy="1009" r="4"/><circle cx="714" cy="1038" r="6"/><circle cx="796" cy="976" r="5"/><circle cx="866" cy="987" r="5"/><circle cx="898" cy="999" r="4"/><circle cx="1011" cy="1020" r="5"/><circle cx="1107" cy="1035" r="6"/><circle cx="1185" cy="962" r="5"/><circle cx="1268" cy="1034" r="5"/><circle cx="1288" cy="1007" r="4"/><circle cx="1407" cy="965" r="6"/><circle cx="1476" cy="977" r="5"/><circle cx="1550" cy="1035" r="5"/><circle cx="1658" cy="974" r="5"/><circle cx="1713" cy="1033" r="5"/><circle cx="1835" cy="968" r="5"/><circle cx="1889" cy="1025" r="6"/><circle cx="1929" cy="964" r="5"/><circle cx="2001" cy="992" r="6"/><circle cx="2144" cy="1006" r="4"/><circle cx="2232" cy="1010" r="5"/><circle cx="2243" cy="967" r="4"/><circle cx="2330" cy="963" r="6"/><circle cx="2432" cy="1017" r="6"/><circle cx="2525" cy="984" r="4"/><circle cx="4" cy="1072" r="5"/><circle cx="2564" cy="1072" r="5"/><circle cx="122" cy="1088" r="4"/><circle cx="224" cy="1091" r="5"/><circle cx="277" cy="1115" r="4"/><circle cx="329" cy="1050" r="5"/><circle cx="412" cy="1049" r="5"/><circle cx="509" cy="1098" r="4"/><circle cx="614" cy="1112" r="4"/><circle cx="641" cy="1070" r="5"/><circle cx="761" cy="1061" r="6"/><circle cx="855" cy="1104" r="5"/><circle cx="910" cy="1089" r="5"/><circle cx="996" cy="1087" r="6"/><circle cx="1098" cy="1090" r="5"/><circle cx="1136" cy="1112" r="5"/><circle cx="1277" cy="1072" r="6"/><circle cx="1327" cy="1093" r="6"/><circle cx="1381" cy="1117" r="5"/><circle cx="1503" cy="1116" r="5"/><circle cx="1556" cy="1064" r="5"/><circle cx="1614" cy="1091" r="5"/><circle cx="1710" cy="1082" r="4"/><circle cx="1827" cy="1116" r="5"/><circle cx="1916" cy="1095" r="5"/><circle cx="1992" cy="1075" r="5"/><circle cx="2078" cy="1097" r="5"/><circle cx="2081" cy="1042" r="4"/><circle cx="2208" cy="1107" r="5"/><circle cx="2257" cy="1052" r="5"/><circle cx="2359" cy="1080" r="5"/><circle cx="2401" cy="1081" r="6"/><circle cx="2508" cy="1072" r="4"/><circle cx="65" cy="1164" r="5"/><circle cx="103" cy="1145" r="4"/><circle cx="172" cy="1191" r="4"/><circle cx="253" cy="1142" r="4"/><circle cx="386" cy="1198" r="4"/><circle cx="477" cy="1158" r="5"/><circle cx="559" cy="1139" r="5"/><circle cx="625" cy="1180" r="6"/><circle cx="653" cy="1155" r="4"/><circle cx="744" cy="1124" r="6"/><circle cx="842" cy="1122" r="5"/><circle cx="881" cy="1172" r="5"/><circle cx="962" cy="1156" r="5"/><circle cx="1060" cy="1186" r="5"/><circle cx="1165" cy="1128" r="5"/><circle cx="1209" cy="1128" r="6"/><circle cx="1305" cy="1168" r="5"/><circle cx="1384" cy="1173" r="5"/><circle cx="1456" cy="1183" r="4"/><circle cx="1561" cy="1144" r="5"/><circle cx="1601" cy="1147" r="6"/><circle cx="1711" cy="1145" r="5"/><circle cx="1786" cy="1154" r="5"/><circle cx="1842" cy="1174" r="5"/><circle cx="1941" cy="1124" r="5"/><circle cx="2062" cy="1194" r="6"/><circle cx="2089" cy="1164" r="4"/><circle cx="2193" cy="1148" r="4"/><circle cx="2317" cy="1197" r="6"/><circle cx="2323" cy="1160" r="5"/><circle cx="2449" cy="1160" r="5"/><circle cx="2489" cy="1121" r="6"/><circle cx="22" cy="1208" r="5"/><circle cx="112" cy="1235" r="6"/><circle cx="164" cy="1211" r="4"/><circle cx="303" cy="1253" r="5"/><circle cx="333" cy="1247" r="5"/><circle cx="472" cy="1240" r="5"/><circle cx="543" cy="1204" r="5"/><circle cx="637" cy="1237" r="4"/><circle cx="672" cy="1211" r="4"/><circle cx="777" cy="1270" r="6"/><circle cx="876" cy="1253" r="4"/><circle cx="888" cy="1261" r="5"/><circle cx="1038" cy="1255" r="6"/><circle cx="1097" cy="1242" r="4"/><circle cx="1169" cy="1255" r="5"/><circle cx="1248" cy="1221" r="6"/><circle cx="1316" cy="1271" r="6"/><circle cx="1408" cy="1270" r="5"/><circle cx="1466" cy="1211" r="6"/><circle cx="1572" cy="1215" r="4"/><circle cx="1618" cy="1244" r="5"/><circle cx="1696" cy="1269" r="6"/><circle cx="1786" cy="1236" r="5"/><circle cx="1848" cy="1223" r="6"/><circle cx="1993" cy="1237" r="4"/><circle cx="2020" cy="1279" r="6"/><circle cx="2117" cy="1261" r="5"/><circle cx="2222" cy="1270" r="5"/><circle cx="2313" cy="1202" r="5"/><circle cx="2365" cy="1223" r="6"/><circle cx="2451" cy="1230" r="5"/><circle cx="2493" cy="1243" r="5"/><circle cx="45" cy="1323" r="6"/><circle cx="97" cy="1348" r="6"/><circle cx="215" cy="1285" r="4"/><circle cx="305" cy="1322" r="5"/><circle cx="336" cy="1351" r="4"/><circle cx="430" cy="1284" r="5"/><circle cx="515" cy="1341" r="5"/><circle cx="602" cy="1316" r="5"/><circle cx="692" cy="1282" r="5"/><circle cx="747" cy="1346" r="6"/><circle cx="861" cy="1316" r="4"/><circle cx="949" cy="1293" r="5"/><circle cx="1027" cy="1293" r="4"/><circle cx="1054" cy="1359" r="4"/><circle cx="1127" cy="1322" r="5"/><circle cx="1214" cy="1332" r="5"/><circle cx="1360" cy="1331" r="6"/><circle cx="1388" cy="1314" r="5"/><circle cx="1518" cy="1286" r="5"/><circle cx="1590" cy="1310" r="6"/><circle cx="1659" cy="1286" r="5"/><circle cx="1706" cy="1317" r="5"/><circle cx="1798" cy="1324" r="5"/><circle cx="1858" cy="1294" r="5"/><circle cx="1955" cy="1318" r="5"/><circle cx="2078" cy="1298" r="6"/><circle cx="2143" cy="1352" r="5"/><circle cx="2217" cy="1356" r="4"/><circle cx="2298" cy="1293" r="4"/><circle cx="2350" cy="1346" r="6"/><circle cx="2447" cy="1352" r="5"/><circle cx="2558" cy="1338" r="5"/><circle cx="-2" cy="1338" r="5"/><circle cx="57" cy="1418" r="6"/><circle cx="160" cy="1385" r="5"/><circle cx="176" cy="1395" r="4"/><circle cx="244" cy="1395" r="6"/><circle cx="344" cy="1420" r="6"/><circle cx="430" cy="1372" r="5"/><circle cx="506" cy="1396" r="6"/><circle cx="637" cy="1409" r="4"/><circle cx="660" cy="1439" r="4"/><circle cx="660" cy="-1" r="4"/><circle cx="785" cy="1412" r="4"/><circle cx="841" cy="1433" r="5"/><circle cx="932" cy="1372" r="5"/><circle cx="993" cy="1374" r="6"/><circle cx="1101" cy="1400" r="4"/><circle cx="1128" cy="1409" r="5"/><circle cx="1237" cy="1424" r="5"/><circle cx="1335" cy="1373" r="4"/><circle cx="1370" cy="1432" r="6"/><circle cx="1476" cy="1388" r="6"/><circle cx="1554" cy="1403" r="4"/><circle cx="1680" cy="1420" r="5"/><circle cx="1740" cy="1387" r="5"/><circle cx="1808" cy="1378" r="5"/><circle cx="1905" cy="1437" r="5"/><circle cx="1905" cy="-3" r="5"/><circle cx="1993" cy="1405" r="4"/><circle cx="2050" cy="1398" r="5"/><circle cx="2095" cy="1385" r="4"/><circle cx="2174" cy="1424" r="4"/><circle cx="2245" cy="1398" r="6"/><circle cx="2353" cy="1414" r="4"/><circle cx="2443" cy="1367" r="4"/><circle cx="2497" cy="1410" r="4"/><path stroke="#fff" d="M56 43L88 62M56 43L-24 35M56 43L125 92M56 43L-7 126M56 43L57 -22M2616 43L2536 35M2616 43L2553 126M56 1483L57 1418M88 62L193 69M88 62L80 147M88 62L125 92M88 62L57 -22M88 1502L57 1418M193 69L296 72M193 69L125 92M193 69L225 90M296 72L363 74M296 72L225 90M296 72L308 136M363 74L471 18M363 74L308 136M363 74L400 138M363 74L344 -20M363 1514L344 1420M471 18L533 78M471 18L430 -68M471 18L506 -44M471 1458L430 1372M471 1458L506 1396M533 78L619 19M533 78L478 153M533 78L559 124M533 78L575 127M619 19L690 6M619 19L637 -31M619 19L660 -1M619 1459L637 1409M619 1459L660 1439M690 6L737 43M690 6L757 91M690 6L637 -31M690 6L660 -1M690 1446L637 1409M690 1446L660 1439M737 43L689 147M737 43L757 91M737 43L660 -1M737 43L785 -28M737 1483L660 1439M737 1483L785 1412M871 31L923 48M871 31L853 86M871 31L785 -28M871 31L841 -7M871 1471L785 1412M871 1471L841 1433M923 48L987 37M923 48L853 86M923 48L948 159M923 48L841 -7M923 1488L841 1433M987 37L932 -68M987 37L993 -66M987 1477L932 1372M987 1477L993 1374M1111 51L1168 18M1111 51L1097 113M1111 51L1128 -31M1111 1491L1128 1409M1168 18L1193 93M1168 18L1203 81M1168 18L1128 -31M1168 18L1237 -16M1168 1458L1128 1409M1168 1458L1237 1424M1267 67L1356 18M1267 67L1193 93M1267 67L1203 81M1267 67L1237 -16M1267 1507L1237 1424M1356 18L1430 12M1356 18L1393 125M1356 18L1335 -67M1356 18L1370 -8M1356 1458L1335 1373M1356 1458L1370 1432M1430 12L1518 79M1430 12L1393 125M1430 12L1370 -8M1430 12L1476 -52M1430 1452L1370 1432M1430 1452L1476 1388M1518 79L1596 37M1518 79L1503 157M1518 79L1554 146M1518 79L1632 84M1596 37L1638 32M1596 37L1632 84M1596 37L1554 -37M1596 37L1680 -20M1596 1477L1554 1403M1596 1477L1680 1420M1638 32L1706 62M1638 32L1632 84M1638 32L1554 -37M1638 32L1680 -20M1638 1472L1554 1403M1638 1472L1680 1420M1706 62L1790 54M1706 62L1632 84M1706 62L1754 133M1706 62L1680 -20M1706 1502L1680 1420M1790 54L1864 59M1790 54L1754 133M1790 54L1824 84M1864 59L1824 84M1864 59L1886 100M1864 59L1905 -3M1864 1499L1905 1437M1980 18L2006 13M1980 18L1905 -3M1980 18L1993 -35M1980 18L2050 -42M1980 1458L1905 1437M1980 1458L1993 1405M1980 1458L2050 1398M2006 13L1994 122M2006 13L1905 -3M2006 13L1993 -35M2006 13L2050 -42M2006 1453L1905 1437M2006 1453L1993 1405M2006 1453L2050 1398M2113 59L2213 9M2113 59L2073 122M2113 59L2084 118M2113 59L2191 131M2113 59L2174 -16M2113 1499L2174 1424M2213 9L2263 39M2213 9L2217 -84M2213 9L2174 -16M2213 9L2245 -42M2213 1449L2217 1356M2213 1449L2174 1424M2213 1449L2245 1398M2263 39L2323 50M2263 39L2245 -42M2263 1479L2245 1398M2323 50L2284 147M2323 50L2353 -26M2323 1490L2353 1414M2451 40L2536 35M2451 40L2455 86M2451 40L2497 -30M2451 1480L2497 1410M2536 35L2455 86M2536 35L2553 126M2536 35L2497 -30M2536 1475L2497 1410M80 147L125 92M80 147L-7 126M80 147L16 239M80 147L120 166M2640 147L2553 126M125 92L120 166M225 90L308 136M308 136L400 138M308 136L275 185M400 138L478 153M400 138L380 211M478 153L559 124M478 153L477 217M478 153L535 189M559 124L575 127M559 124L535 189M575 127L689 147M575 127L535 189M575 127L600 233M689 147L757 91M689 147L669 199M689 147L738 161M757 91L853 86M757 91L738 161M853 86L868 182M853 86L841 -7M853 1526L841 1433M948 159L967 148M948 159L868 182M948 159L928 182M948 159L964 199M967 148L868 182M967 148L928 182M967 148L964 199M967 148L1054 225M1097 113L1193 93M1097 113L1203 81M1097 113L1054 225M1193 93L1203 81M1193 93L1194 166M1203 81L1194 166M1287 160L1206 203M1287 160L1284 169M1287 160L1370 167M1393 125L1503 157M1393 125L1370 167M1503 157L1554 146M1503 157L1493 220M1554 146L1632 84M1554 146L1493 220M1554 146L1545 231M1754 133L1824 84M1754 133L1719 186M1754 133L1835 181M1824 84L1886 100M1886 100L1994 122M1886 100L1835 181M1886 100L1905 -3M1886 1540L1905 1437M1994 122L2073 122M1994 122L2084 118M1994 122L2039 162M2073 122L2084 118M2073 122L2039 162M2073 122L2153 189M2084 118L2039 162M2084 118L2153 189M2191 131L2153 189M2191 131L2222 196M2284 147L2380 147M2284 147L2222 196M2284 147L2299 221M2284 147L2329 174M2380 147L2455 86M2380 147L2329 174M2380 147L2432 238M2380 147L2391 250M2455 86L2553 126M2455 86L2502 167M2553 126L2502 167M16 239L-58 167M16 239L45 299M16 239L84 292M16 239L-70 240M2576 239L2502 167M2576 239L2490 240M232 239L275 185M232 239L197 266M232 239L267 286M232 239L337 250M232 239L234 332M275 185L337 250M380 211L477 217M380 211L337 250M380 211L449 257M477 217L535 189M477 217L449 257M535 189L600 233M600 233L669 199M600 233L587 310M669 199L738 161M669 199L704 318M738 161L778 263M868 182L928 182M928 182L964 199M964 199L1054 225M964 199L960 286M1054 225L960 286M1054 225L1099 299M1194 166L1206 203M1194 166L1284 169M1194 166L1190 259M1206 203L1284 169M1206 203L1190 259M1206 203L1269 252M1284 169L1370 167M1284 169L1269 252M1370 167L1388 245M1493 220L1545 231M1493 220L1469 291M1545 231L1469 291M1545 231L1591 288M1545 231L1615 263M1644 214L1719 186M1644 214L1591 288M1644 214L1615 263M1644 214L1755 252M1719 186L1755 252M1719 186L1771 270M1835 181L1896 230M1835 181L1755 252M1896 230L1980 239M1896 230L1871 310M1896 230L1961 240M1896 230L1904 334M1980 239L2039 162M1980 239L1961 240M1980 239L2056 258M2039 162L2056 258M2153 189L2222 196M2153 189L2189 272M2222 196L2299 221M2222 196L2189 272M2299 221L2329 174M2299 221L2296 278M2299 221L2391 250M2432 238L2502 167M2432 238L2391 250M2432 238L2404 290M2432 238L2490 240M2502 167L2490 240M45 299L84 292M45 299L69 387M45 299L160 321M84 292L197 266M84 292L69 387M84 292L160 321M197 266L267 286M197 266L160 321M197 266L234 332M267 286L337 250M267 286L234 332M267 286L292 376M337 250L449 257M449 257L493 315M449 257L446 340M493 315L587 310M493 315L446 340M493 315L544 375M493 315L522 400M587 310L544 375M587 310L573 382M704 318L778 263M704 318L807 312M704 318L698 376M704 318L743 329M778 263L807 312M778 263L743 329M778 263L829 339M807 312L903 297M807 312L743 329M807 312L829 339M903 297L960 286M903 297L829 339M903 297L939 395M960 286L1041 348M1099 299L1190 259M1099 299L1041 348M1099 299L1135 355M1190 259L1269 252M1190 259L1135 355M1269 252L1331 292M1269 252L1268 324M1331 292L1388 245M1331 292L1268 324M1331 292L1362 336M1388 245L1469 291M1388 245L1362 336M1469 291L1496 374M1591 288L1615 263M1591 288L1579 347M1591 288L1617 362M1615 263L1579 347M1615 263L1617 362M1755 252L1771 270M1755 252L1806 325M1771 270L1871 310M1771 270L1726 370M1771 270L1806 325M1871 310L1806 325M1871 310L1904 334M1871 310L1929 368M1961 240L2056 258M1961 240L1904 334M2158 320L2189 272M2158 320L2152 389M2158 320L2173 368M2158 320L2260 394M2189 272L2173 368M2391 250L2404 290M2391 250L2410 352M2404 290L2349 376M2404 290L2410 352M2404 290L2485 336M2490 240L2485 336M69 387L76 476M69 387L104 458M69 387L-5 435M2629 387L2555 435M160 321L234 332M160 321L188 423M234 332L292 376M292 376L397 396M292 376L301 419M292 376L324 464M397 396L446 340M397 396L301 419M397 396L436 464M446 340L522 400M544 375L573 382M544 375L522 400M544 375L606 415M573 382L522 400M573 382L606 415M573 382L666 433M698 376L743 329M698 376L606 415M698 376L666 433M698 376L739 465M743 329L829 339M939 395L1029 387M939 395L1041 348M939 395L875 471M939 395L943 422M1029 387L1041 348M1029 387L943 422M1029 387L1015 479M1029 387L1107 449M1041 348L1135 355M1135 355L1107 449M1135 355L1138 453M1268 324L1311 375M1268 324L1275 414M1311 375L1362 336M1311 375L1275 414M1311 375L1341 401M1311 375L1364 400M1362 336L1341 401M1362 336L1364 400M1496 374L1579 347M1496 374L1464 466M1579 347L1617 362M1579 347L1576 460M1726 370L1806 325M1726 370L1730 418M1726 370L1735 484M1806 325L1904 334M1904 334L1929 368M1929 368L1990 452M2053 392L2152 389M2053 392L1990 452M2053 392L2027 451M2053 392L2115 467M2152 389L2173 368M2152 389L2184 438M2173 368L2260 394M2173 368L2184 438M2260 394L2349 376M2260 394L2184 438M2260 394L2268 414M2349 376L2410 352M2349 376L2268 414M2349 376L2379 434M2410 352L2485 336M2410 352L2379 434M2485 336L2450 448M76 476L104 458M76 476L-5 435M76 476L31 511M76 476L97 545M2636 476L2555 435M104 458L188 423M104 458L31 511M104 458L97 545M188 423L301 419M301 419L324 464M301 419L292 494M324 464L436 464M324 464L292 494M324 464L374 536M436 464L374 536M436 464L420 538M522 400L606 415M606 415L666 433M666 433L739 465M666 433L672 528M739 465L672 528M739 465L738 534M739 465L838 502M875 471L943 422M875 471L838 502M875 471L927 541M943 422L1015 479M1015 479L1035 535M1015 479L1094 487M1015 479L1015 561M1107 449L1138 453M1107 449L1094 487M1107 449L1156 490M1138 453L1094 487M1138 453L1156 490M1138 453L1232 488M1275 414L1341 401M1275 414L1364 400M1275 414L1232 488M1341 401L1364 400M1364 400L1416 480M1464 466L1576 460M1464 466L1416 480M1464 466L1444 506M1464 466L1438 565M1576 460L1651 456M1576 460L1608 504M1651 456L1730 418M1651 456L1608 504M1651 456L1735 484M1730 418L1828 424M1730 418L1735 484M1730 418L1789 490M1828 424L1854 476M1828 424L1735 484M1828 424L1789 490M1854 476L1789 490M1854 476L1918 542M1990 452L2027 451M1990 452L1958 481M1990 452L2001 486M2027 451L2115 467M2027 451L1958 481M2027 451L2001 486M2115 467L2184 438M2115 467L2135 528M2115 467L2187 503M2184 438L2187 503M2379 434L2450 448M2379 434L2369 500M2379 434L2411 487M2450 448L2555 435M2450 448L2369 500M2450 448L2411 487M2555 435L2591 511M-5 435L31 511M31 511L97 545M31 511L-20 555M2591 511L2540 555M97 545L209 544M97 545L190 562M209 544L292 494M209 544L158 633M209 544L190 562M209 544L178 656M292 494L374 536M374 536L420 538M539 553L575 516M539 553L540 573M539 553L562 567M575 516L672 528M575 516L540 573M575 516L562 567M672 528L738 534M672 528L680 605M738 534L838 502M738 534L680 605M738 534L758 620M838 502L927 541M927 541L862 634M927 541L933 608M927 541L1015 561M1035 535L1094 487M1035 535L1015 561M1035 535L1093 593M1094 487L1156 490M1156 490L1232 488M1156 490L1093 593M1343 544L1416 480M1343 544L1444 506M1343 544L1248 601M1343 544L1287 630M1343 544L1438 565M1416 480L1444 506M1416 480L1438 565M1444 506L1438 565M1578 559L1608 504M1578 559L1502 605M1578 559L1564 603M1578 559L1637 568M1578 559L1540 640M1608 504L1637 568M1735 484L1789 490M1918 542L1958 481M1918 542L1857 592M1918 542L1979 564M1918 542L1941 645M1958 481L2001 486M1958 481L1979 564M2001 486L1979 564M2001 486L2038 563M2135 528L2187 503M2135 528L2038 563M2187 503L2279 558M2279 558L2369 500M2279 558L2266 607M2279 558L2338 614M2369 500L2411 487M2369 500L2425 569M2411 487L2425 569M2540 555L2571 627M2540 555L2425 569M2540 555L2560 608M-20 555L11 627M11 627L-0 608M2571 627L2560 608M158 633L190 562M158 633L138 662M158 633L178 656M190 562L138 662M190 562L178 656M319 616L380 628M319 616L304 642M319 616L380 663M319 616L420 655M319 616L283 729M380 628L448 639M380 628L304 642M380 628L380 663M380 628L420 655M448 639L540 573M448 639L380 663M448 639L420 655M448 639L533 697M540 573L562 567M540 573L533 697M680 605L758 620M680 605L727 667M758 620L862 634M758 620L727 667M758 620L779 727M862 634L933 608M862 634L869 649M862 634L916 652M933 608L1015 561M933 608L869 649M933 608L916 652M1015 561L1093 593M1093 593L1045 688M1198 636L1248 601M1198 636L1287 630M1198 636L1162 694M1198 636L1230 655M1248 601L1287 630M1248 601L1230 655M1248 601L1288 690M1287 630L1230 655M1287 630L1288 690M1438 565L1502 605M1502 605L1564 603M1502 605L1500 672M1502 605L1540 640M1564 603L1637 568M1564 603L1500 672M1564 603L1540 640M1637 568L1720 617M1637 568L1669 653M1720 617L1775 620M1720 617L1669 653M1720 617L1759 672M1720 617L1734 731M1775 620L1857 592M1775 620L1759 672M1775 620L1819 681M1775 620L1847 660M1857 592L1819 681M1857 592L1847 660M1857 592L1941 645M1979 564L2038 563M1979 564L1941 645M2038 563L2090 640M2090 640L2185 631M2090 640L2065 699M2090 640L2104 655M2185 631L2266 607M2185 631L2104 655M2185 631L2183 701M2266 607L2338 614M2266 607L2273 661M2338 614L2425 569M2338 614L2273 661M2338 614L2392 692M2425 569L2464 653M2560 608L2496 683M55 713L138 662M55 713L31 744M55 713L96 759M55 713L-13 728M55 713L21 807M2615 713L2547 728M138 662L178 656M304 642L380 663M304 642L283 729M380 663L420 655M420 655L374 759M533 697L612 719M533 697L537 735M612 719L680 715M612 719L537 735M612 719L597 771M612 719L659 752M680 715L727 667M680 715L597 771M680 715L659 752M680 715L779 727M727 667L659 752M727 667L779 727M869 649L916 652M869 649L966 695M916 652L966 695M916 652L953 767M966 695L1045 688M966 695L953 767M966 695L993 794M1045 688L1085 742M1162 694L1230 655M1162 694L1085 742M1162 694L1187 758M1162 694L1205 794M1230 655L1288 690M1288 690L1363 712M1288 690L1282 755M1363 712L1282 755M1363 712L1395 771M1500 672L1540 640M1500 672L1494 728M1500 672L1566 751M1540 640L1494 728M1669 653L1734 731M1759 672L1819 681M1759 672L1847 660M1759 672L1734 731M1819 681L1847 660M1819 681L1775 762M1847 660L1941 645M2065 699L2104 655M2065 699L2061 778M2065 699L2129 751M2104 655L2183 701M2104 655L2129 751M2183 701L2129 751M2183 701L2224 738M2183 701L2248 742M2273 661L2224 738M2273 661L2248 742M2273 661L2353 734M2392 692L2464 653M2392 692L2496 683M2392 692L2353 734M2392 692L2437 744M2464 653L2496 683M2464 653L2437 744M2464 653L2547 728M2496 683L2437 744M2496 683L2547 728M31 744L96 759M31 744L-13 728M31 744L21 807M31 744L118 807M2591 744L2547 728M96 759L21 807M96 759L118 807M96 759L183 821M185 782L283 729M185 782L118 807M185 782L183 821M185 782L238 881M283 729L374 759M374 759L449 771M374 759L394 847M374 759L421 817M449 771L537 735M449 771L421 817M449 771L491 817M537 735L597 771M537 735L491 817M597 771L659 752M597 771L639 873M779 727L823 794M779 727L764 824M823 794L764 824M823 794L821 867M823 794L889 858M953 767L993 794M953 767L1007 859M993 794L1085 742M993 794L1007 859M993 794L1047 838M1085 742L1187 758M1085 742L1047 838M1187 758L1205 794M1187 758L1282 755M1187 758L1176 856M1205 794L1282 755M1205 794L1176 856M1205 794L1211 875M1282 755L1310 863M1395 771L1494 728M1395 771L1388 835M1494 728L1566 751M1494 728L1512 819M1566 751L1606 784M1566 751L1512 819M1606 784L1512 819M1606 784L1668 869M1734 731L1775 762M1734 731L1718 828M1775 762L1718 828M1775 762L1777 871M1914 797L1956 763M1914 797L1871 876M1914 797L1934 871M1956 763L2061 778M1956 763L2012 833M2061 778L2129 751M2061 778L2012 833M2061 778L2088 844M2129 751L2224 738M2224 738L2248 742M2224 738L2192 852M2248 742L2353 734M2353 734L2437 744M2353 734L2402 812M2437 744L2402 812M2547 728L2581 807M-13 728L21 807M21 807L-22 882M2581 807L2538 882M118 807L183 821M118 807L90 885M183 821L90 885M183 821L238 881M309 864L394 847M309 864L238 881M309 864L263 907M394 847L421 817M394 847L491 817M394 847L415 918M421 817L491 817M421 817L415 918M491 817L546 914M639 873L703 877M639 873L546 914M639 873L638 900M639 873L650 887M703 877L764 824M703 877L638 900M703 877L650 887M703 877L749 921M764 824L821 867M764 824L749 921M821 867L889 858M821 867L871 896M821 867L901 908M889 858L871 896M889 858L901 908M1007 859L1047 838M1007 859L973 924M1007 859L1056 934M1047 838L1056 934M1176 856L1211 875M1176 856L1148 921M1176 856L1242 926M1211 875L1148 921M1211 875L1242 926M1211 875L1185 962M1310 863L1388 835M1310 863L1323 891M1310 863L1382 924M1388 835L1323 891M1388 835L1382 924M1512 819L1568 875M1512 819L1517 905M1568 875L1668 869M1568 875L1517 905M1568 875L1544 926M1568 875L1611 899M1668 869L1718 828M1668 869L1611 899M1668 869L1706 886M1718 828L1777 871M1718 828L1706 886M1777 871L1871 876M1777 871L1706 886M1777 871L1793 948M1871 876L1934 871M1871 876L1793 948M1871 876L1913 916M1934 871L1913 916M1934 871L1993 897M1934 871L1929 964M2012 833L2088 844M2012 833L1993 897M2012 833L2022 898M2088 844L2192 852M2088 844L2022 898M2088 844L2115 925M2192 852L2242 857M2192 852L2115 925M2192 852L2188 917M2242 857L2188 917M2355 864L2402 812M2355 864L2312 953M2355 864L2348 891M2355 864L2449 889M2355 864L2330 963M2402 812L2348 891M2402 812L2449 889M2513 879L2567 908M2513 879L2449 889M2513 879L2538 882M-47 879L7 908M7 908L90 885M7 908L-22 882M7 908L64 1001M7 908L-35 984M2567 908L2538 882M2567 908L2525 984M90 885L-22 882M90 885L125 996M2650 885L2538 882M238 881L263 907M263 907L290 984M384 950L415 918M384 950L290 984M384 950L390 1010M384 950L419 981M384 950L412 1049M415 918L390 1010M415 918L419 981M546 914L638 900M546 914L650 887M546 914L558 999M638 900L650 887M638 900L749 921M749 921L796 976M871 896L901 908M871 896L973 924M871 896L866 987M901 908L973 924M901 908L866 987M973 924L1056 934M973 924L1011 1020M1056 934L1148 921M1056 934L1011 1020M1148 921L1242 926M1148 921L1185 962M1242 926L1323 891M1242 926L1185 962M1323 891L1382 924M1323 891L1407 965M1382 924L1407 965M1382 924L1476 977M1517 905L1544 926M1517 905L1611 899M1517 905L1476 977M1544 926L1611 899M1544 926L1476 977M1611 899L1658 974M1706 886L1658 974M1793 948L1713 1033M1793 948L1835 968M1913 916L1993 897M1913 916L1835 968M1913 916L1929 964M1993 897L2022 898M1993 897L2001 992M2022 898L2115 925M2022 898L2001 992M2115 925L2188 917M2115 925L2144 1006M2188 917L2144 1006M2188 917L2243 967M2312 953L2348 891M2312 953L2232 1010M2312 953L2243 967M2312 953L2330 963M2348 891L2449 889M2348 891L2330 963M2449 889L2538 882M64 1001L125 996M64 1001L-35 984M64 1001L4 1072M2624 1001L2525 984M125 996L192 1023M125 996L122 1088M192 1023L290 984M192 1023L122 1088M192 1023L224 1091M192 1023L277 1115M290 984L329 1050M390 1010L419 981M390 1010L329 1050M390 1010L412 1049M419 981L412 1049M558 999L616 1009M558 999L509 1098M616 1009L714 1038M616 1009L614 1112M616 1009L641 1070M714 1038L796 976M714 1038L641 1070M714 1038L761 1061M714 1038L744 1124M796 976L866 987M796 976L898 999M796 976L761 1061M866 987L898 999M1011 1020L1107 1035M1011 1020L996 1087M1107 1035L1185 962M1107 1035L1098 1090M1107 1035L1136 1112M1107 1035L1165 1128M1185 962L1268 1034M1268 1034L1288 1007M1268 1034L1277 1072M1268 1034L1327 1093M1288 1007L1407 965M1288 1007L1277 1072M1407 965L1476 977M1476 977L1550 1035M1550 1035L1503 1116M1550 1035L1556 1064M1550 1035L1614 1091M1658 974L1713 1033M1658 974L1710 1082M1713 1033L1710 1082M1713 1033L1711 1145M1835 968L1889 1025M1835 968L1929 964M1889 1025L1929 964M1889 1025L1827 1116M1889 1025L1916 1095M1929 964L2001 992M2001 992L1992 1075M2001 992L2081 1042M2144 1006L2232 1010M2144 1006L2078 1097M2144 1006L2081 1042M2232 1010L2243 967M2232 1010L2208 1107M2232 1010L2257 1052M2243 967L2330 963M2243 967L2257 1052M2330 963L2432 1017M2432 1017L2525 984M2432 1017L2359 1080M2432 1017L2401 1081M2432 1017L2508 1072M2525 984L2564 1072M2525 984L2508 1072M-35 984L4 1072M4 1072L-52 1072M4 1072L65 1164M4 1072L-71 1121M2564 1072L2508 1072M2564 1072L2489 1121M122 1088L224 1091M122 1088L65 1164M122 1088L103 1145M224 1091L277 1115M224 1091L329 1050M224 1091L253 1142M277 1115L329 1050M277 1115L253 1142M329 1050L412 1049M412 1049L509 1098M509 1098L477 1158M509 1098L559 1139M509 1098L543 1204M614 1112L641 1070M614 1112L559 1139M614 1112L625 1180M614 1112L653 1155M641 1070L653 1155M761 1061L855 1104M761 1061L744 1124M761 1061L842 1122M855 1104L910 1089M855 1104L744 1124M855 1104L842 1122M855 1104L881 1172M910 1089L996 1087M910 1089L842 1122M910 1089L881 1172M910 1089L962 1156M996 1087L1098 1090M996 1087L962 1156M1098 1090L1136 1112M1098 1090L1060 1186M1098 1090L1165 1128M1136 1112L1060 1186M1136 1112L1165 1128M1136 1112L1209 1128M1277 1072L1327 1093M1277 1072L1209 1128M1327 1093L1381 1117M1327 1093L1305 1168M1327 1093L1384 1173M1381 1117L1305 1168M1381 1117L1384 1173M1381 1117L1456 1183M1503 1116L1556 1064M1503 1116L1456 1183M1503 1116L1561 1144M1503 1116L1466 1211M1556 1064L1614 1091M1556 1064L1561 1144M1556 1064L1601 1147M1614 1091L1710 1082M1614 1091L1561 1144M1614 1091L1601 1147M1710 1082L1711 1145M1827 1116L1916 1095M1827 1116L1786 1154M1827 1116L1842 1174M1827 1116L1848 1223M1916 1095L1992 1075M1916 1095L1842 1174M1916 1095L1941 1124M1992 1075L2078 1097M1992 1075L2081 1042M1992 1075L1941 1124M2078 1097L2081 1042M2078 1097L2062 1194M2078 1097L2089 1164M2208 1107L2257 1052M2208 1107L2193 1148M2257 1052L2359 1080M2257 1052L2193 1148M2359 1080L2401 1081M2359 1080L2323 1160M2401 1081L2323 1160M2401 1081L2449 1160M2401 1081L2489 1121M2508 1072L2489 1121M65 1164L103 1145M65 1164L22 1208M65 1164L112 1235M103 1145L172 1191M103 1145L112 1235M103 1145L164 1211M172 1191L253 1142M172 1191L112 1235M172 1191L164 1211M386 1198L477 1158M386 1198L303 1253M386 1198L333 1247M386 1198L472 1240M386 1198L430 1284M477 1158L559 1139M477 1158L472 1240M477 1158L543 1204M559 1139L625 1180M559 1139L543 1204M625 1180L653 1155M625 1180L637 1237M625 1180L672 1211M653 1155L637 1237M653 1155L672 1211M744 1124L842 1122M744 1124L672 1211M842 1122L881 1172M881 1172L962 1156M881 1172L876 1253M962 1156L1060 1186M1060 1186L1038 1255M1060 1186L1097 1242M1165 1128L1209 1128M1209 1128L1248 1221M1305 1168L1384 1173M1305 1168L1248 1221M1305 1168L1316 1271M1384 1173L1456 1183M1384 1173L1466 1211M1456 1183L1408 1270M1456 1183L1466 1211M1561 1144L1601 1147M1561 1144L1572 1215M1601 1147L1572 1215M1601 1147L1618 1244M1711 1145L1786 1154M1786 1154L1842 1174M1786 1154L1786 1236M1786 1154L1848 1223M1842 1174L1786 1236M1842 1174L1848 1223M2062 1194L2089 1164M2062 1194L1993 1237M2062 1194L2020 1279M2062 1194L2117 1261M2089 1164L2193 1148M2317 1197L2323 1160M2317 1197L2222 1270M2317 1197L2313 1202M2317 1197L2365 1223M2317 1197L2298 1293M2323 1160L2313 1202M2323 1160L2365 1223M2449 1160L2489 1121M2449 1160L2451 1230M2449 1160L2493 1243M2489 1121L2451 1230M22 1208L112 1235M22 1208L-67 1243M22 1208L45 1323M2582 1208L2493 1243M112 1235L164 1211M164 1211L215 1285M303 1253L333 1247M303 1253L215 1285M303 1253L305 1322M303 1253L336 1351M333 1247L305 1322M333 1247L430 1284M472 1240L543 1204M472 1240L430 1284M472 1240L515 1341M637 1237L672 1211M637 1237L602 1316M637 1237L692 1282M672 1211L692 1282M777 1270L876 1253M777 1270L888 1261M777 1270L692 1282M777 1270L747 1346M777 1270L861 1316M876 1253L888 1261M876 1253L861 1316M888 1261L861 1316M888 1261L949 1293M1038 1255L1097 1242M1038 1255L949 1293M1038 1255L1027 1293M1097 1242L1169 1255M1097 1242L1027 1293M1169 1255L1248 1221M1169 1255L1127 1322M1169 1255L1214 1332M1248 1221L1316 1271M1248 1221L1214 1332M1316 1271L1408 1270M1316 1271L1360 1331M1316 1271L1388 1314M1408 1270L1466 1211M1408 1270L1360 1331M1408 1270L1388 1314M1466 1211L1518 1286M1572 1215L1618 1244M1572 1215L1518 1286M1572 1215L1590 1310M1618 1244L1696 1269M1618 1244L1590 1310M1618 1244L1659 1286M1696 1269L1786 1236M1696 1269L1590 1310M1696 1269L1659 1286M1696 1269L1706 1317M1786 1236L1848 1223M1786 1236L1798 1324M1848 1223L1858 1294M1993 1237L2020 1279M1993 1237L1955 1318M2020 1279L2117 1261M2020 1279L1955 1318M2020 1279L2078 1298M2117 1261L2222 1270M2117 1261L2078 1298M2117 1261L2143 1352M2222 1270L2217 1356M2222 1270L2298 1293M2313 1202L2365 1223M2313 1202L2298 1293M2365 1223L2451 1230M2365 1223L2298 1293M2451 1230L2493 1243M45 1323L97 1348M45 1323L-2 1338M45 1323L57 1418M45 1323L160 1385M2605 1323L2558 1338M97 1348L-2 1338M97 1348L57 1418M97 1348L160 1385M97 1348L176 1395M2657 1348L2558 1338M215 1285L160 1385M305 1322L336 1351M305 1322L244 1395M305 1322L344 1420M336 1351L244 1395M336 1351L344 1420M430 1284L515 1341M430 1284L430 1372M515 1341L602 1316M515 1341L430 1372M515 1341L506 1396M602 1316L692 1282M602 1316L506 1396M602 1316L637 1409M692 1282L747 1346M747 1346L785 1412M861 1316L932 1372M949 1293L1027 1293M949 1293L932 1372M949 1293L993 1374M1027 1293L1054 1359M1027 1293L993 1374M1054 1359L1127 1322M1054 1359L993 1374M1054 1359L1101 1400M1054 1359L1128 1409M1127 1322L1214 1332M1127 1322L1101 1400M1127 1322L1128 1409M1214 1332L1237 1424M1360 1331L1388 1314M1360 1331L1335 1373M1360 1331L1370 1432M1388 1314L1335 1373M1388 1314L1476 1388M1518 1286L1590 1310M1518 1286L1476 1388M1518 1286L1554 1403M1590 1310L1659 1286M1659 1286L1706 1317M1659 1286L1740 1387M1706 1317L1798 1324M1706 1317L1680 1420M1706 1317L1740 1387M1798 1324L1858 1294M1798 1324L1740 1387M1798 1324L1808 1378M1858 1294L1955 1318M1858 1294L1808 1378M1955 1318L1993 1405M2078 1298L2143 1352M2078 1298L2050 1398M2078 1298L2095 1385M2143 1352L2217 1356M2143 1352L2095 1385M2143 1352L2174 1424M2217 1356L2174 1424M2217 1356L2245 1398M2298 1293L2350 1346M2350 1346L2447 1352M2350 1346L2245 1398M2350 1346L2353 1414M2350 1346L2443 1367M2447 1352L2558 1338M2447 1352L2353 1414M2447 1352L2443 1367M2447 1352L2497 1410M2558 1338L2617 1418M2558 1338L2497 1410M-2 1338L57 1418M160 1385L176 1395M160 1385L244 1395M176 1395L244 1395M244 1395L344 1420M344 1420L430 1372M430 1372L506 1396M506 1396L637 1409M637 1409L660 1439M785 1412L841 1433M841 1433L932 1372M932 1372L993 1374M1101 1400L1128 1409M1237 1424L1335 1373M1335 1373L1370 1432M1370 1432L1476 1388M1476 1388L1554 1403M1680 1420L1740 1387M1740 1387L1808 1378M1905 1437L1993 1405M1993 1405L2050 1398M2050 1398L2095 1385M2174 1424L2245 1398M2353 1414L2443 1367M2443 1367L2497 1410"/></svg>