<svg xmlns="http://www.w3.org/2000/svg" width="2560" height="1440" fill="#fff"><circle cx="49" cy="15" r="6"/><circle cx="91" cy="72" r="4"/><circle cx="195" cy="13" r="5"/><circle cx="298" cy="79" r="5"/><circle cx="340" cy="27" r="5"/><circle cx="433" cy="45" r="4"/><circle cx="484" cy="41" r="6"/><circle cx="637" cy="43" r="4"/><circle cx="646" cy="15" r="5"/><circle cx="755" cy="44" r="5"/><circle cx="867" cy="41" r="6"/><circle cx="905" cy="47" r="6"/><circle cx="977" cy="19" r="4"/><circle cx="1102" cy="45" r="5"/><circle cx="1134" cy="32" r="4"/><circle cx="1242" cy="71" r="4"/><circle cx="1282" cy="2" r="5"/><circle cx="1282" cy="1442" r="5"/><circle cx="1386" cy="68" r="5"/><circle cx="1485" cy="56" r="4"/><circle cx="1569" cy="5" r="5"/><circle cx="1569" cy="1445" r="5"/><circle cx="1603" cy="41" r="5"/><circle cx="1758" cy="49" r="6"/><circle cx="1832" cy="69" r="5"/><circle cx="1848" cy="1" r="5"/><circle cx="1848" cy="1441" r="5"/><circle cx="1925" cy="79" r="5"/><circle cx="2010" cy="72" r="5"/><circle cx="2086" cy="76" r="4"/><circle cx="2216" cy="37" r="6"/><circle cx="2289" cy="12" r="4"/><circle cx="2339" cy="63" r="5"/><circle cx="2425" cy="80" r="6"/><circle cx="2557" cy="73" r="6"/><circle cx="-3" cy="73" r="6"/><circle cx="61" cy="102" r="4"/><circle cx="142" cy="151" r="6"/><circle cx="233" cy="105" r="5"/><circle cx="273" cy="126" r="6"/><circle cx="365" cy="141" r="4"/><circle cx="412" cy="144" r="5"/><circle cx="494" cy="141" r="4"/><circle cx="595" cy="123" r="5"/><circle cx="677" cy="145" r="6"/><circle cx="744" cy="97" r="5"/><circle cx="842" cy="144" r="6"/><circle cx="900" cy="157" r="5"/><circle cx="994" cy="127" r="5"/><circle cx="1057" cy="97" r="6"/><circle cx="1171" cy="125" r="5"/><circle cx="1207" cy="159" r="6"/><circle cx="1305" cy="156" r="5"/><circle cx="1428" cy="134" r="4"/><circle cx="1496" cy="116" r="4"/><circle cx="1576" cy="116" r="6"/><circle cx="1649" cy="99" r="6"/><circle cx="1704" cy="153" r="5"/><circle cx="1821" cy="150" r="5"/><circle cx="1880" cy="83" r="5"/><circle cx="1936" cy="158" r="4"/><circle cx="2058" cy="137" r="5"/><circle cx="2102" cy="144" r="6"/><circle cx="2168" cy="147" r="6"/><circle cx="2245" cy="130" r="6"/><circle cx="2398" cy="116" r="5"/><circle cx="2442" cy="116" r="6"/><circle cx="2483" cy="95" r="5"/><circle cx="71" cy="236" r="5"/><circle cx="130" cy="199" r="5"/><circle cx="200" cy="238" r="4"/><circle cx="244" cy="175" r="5"/><circle cx="356" cy="174" r="5"/><circle cx="461" cy="166" r="5"/><circle cx="510" cy="213" r="5"/><circle cx="631" cy="220" r="4"/><circle cx="708" cy="203" r="5"/><circle cx="743" cy="234" r="5"/><circle cx="815" cy="165" r="4"/><circle cx="892" cy="205" r="5"/><circle cx="965" cy="236" r="6"/><circle cx="1045" cy="184" r="6"/><circle cx="1182" cy="167" r="6"/><circle cx="1240" cy="174" r="4"/><circle cx="1303" cy="173" r="5"/><circle cx="1384" cy="207" r="4"/><circle cx="1477" cy="207" r="4"/><circle cx="1585" cy="163" r="5"/><circle cx="1667" cy="228" r="5"/><circle cx="1720" cy="209" r="4"/><circle cx="1803" cy="161" r="6"/><circle cx="1900" cy="220" r="6"/><circle cx="1962" cy="186" r="5"/><circle cx="2054" cy="187" r="5"/><circle cx="2138" cy="167" r="4"/><circle cx="2194" cy="219" r="5"/><circle cx="2271" cy="212" r="5"/><circle cx="2385" cy="178" r="5"/><circle cx="2473" cy="180" r="5"/><circle cx="2485" cy="235" r="4"/><circle cx="59" cy="317" r="4"/><circle cx="138" cy="255" r="4"/><circle cx="216" cy="312" r="4"/><circle cx="302" cy="309" r="6"/><circle cx="374" cy="314" r="6"/><circle cx="405" cy="267" r="6"/><circle cx="481" cy="315" r="4"/><circle cx="597" cy="258" r="6"/><circle cx="683" cy="245" r="5"/><circle cx="724" cy="272" r="5"/><circle cx="854" cy="274" r="6"/><circle cx="913" cy="263" r="5"/><circle cx="980" cy="284" r="5"/><circle cx="1047" cy="248" r="5"/><circle cx="1191" cy="316" r="6"/><circle cx="1227" cy="252" r="5"/><circle cx="1306" cy="289" r="5"/><circle cx="1406" cy="244" r="4"/><circle cx="1511" cy="280" r="5"/><circle cx="1561" cy="259" r="5"/><circle cx="1659" cy="316" r="5"/><circle cx="1707" cy="255" r="4"/><circle cx="1831" cy="273" r="5"/><circle cx="1852" cy="261" r="5"/><circle cx="1983" cy="302" r="5"/><circle cx="2042" cy="259" r="5"/><circle cx="2126" cy="300" r="6"/><circle cx="2212" cy="262" r="5"/><circle cx="2267" cy="266" r="5"/><circle cx="2323" cy="275" r="5"/><circle cx="2425" cy="316" r="4"/><circle cx="2495" cy="295" r="5"/><circle cx="60" cy="375" r="4"/><circle cx="132" cy="348" r="4"/><circle cx="169" cy="335" r="4"/><circle cx="297" cy="390" r="5"/><circle cx="390" cy="330" r="6"/><circle cx="474" cy="372" r="6"/><circle cx="489" cy="341" r="5"/><circle cx="628" cy="322" r="4"/><circle cx="690" cy="344" r="4"/><circle cx="759" cy="374" r="5"/><circle cx="877" cy="351" r="4"/><circle cx="905" cy="357" r="6"/><circle cx="1001" cy="337" r="6"/><circle cx="1095" cy="324" r="5"/><circle cx="1128" cy="337" r="5"/><circle cx="1265" cy="325" r="5"/><circle cx="1283" cy="397" r="5"/><circle cx="1384" cy="390" r="6"/><circle cx="1519" cy="353" r="4"/><circle cx="1564" cy="353" r="5"/><circle cx="1636" cy="377" r="6"/><circle cx="1721" cy="346" r="6"/><circle cx="1797" cy="360" r="5"/><circle cx="1843" cy="396" r="5"/><circle cx="1994" cy="332" r="5"/><circle cx="2013" cy="341" r="4"/><circle cx="2101" cy="344" r="5"/><circle cx="2194" cy="323" r="4"/><circle cx="2256" cy="360" r="5"/><circle cx="2336" cy="339" r="6"/><circle cx="2469" cy="379" r="4"/><circle cx="2499" cy="395" r="6"/><circle cx="23" cy="404" r="6"/><circle cx="119" cy="402" r="5"/><circle cx="214" cy="455" r="5"/><circle cx="271" cy="470" r="4"/><circle cx="349" cy="411" r="6"/><circle cx="410" cy="437" r="5"/><circle cx="497" cy="401" r="4"/><circle cx="624" cy="453" r="5"/><circle cx="642" cy="438" r="5"/><circle cx="772" cy="440" r="5"/><circle cx="822" cy="466" r="6"/><circle cx="927" cy="429" r="5"/><circle cx="972" cy="404" r="6"/><circle cx="1055" cy="464" r="4"/><circle cx="1136" cy="458" r="5"/><circle cx="1253" cy="411" r="6"/><circle cx="1298" cy="456" r="6"/><circle cx="1372" cy="404" r="5"/><circle cx="1442" cy="418" r="5"/><circle cx="1535" cy="458" r="5"/><circle cx="1626" cy="477" r="4"/><circle cx="1720" cy="441" r="5"/><circle cx="1802" cy="422" r="4"/><circle cx="1908" cy="429" r="6"/><circle cx="1928" cy="446" r="5"/><circle cx="2068" cy="437" r="6"/><circle cx="2138" cy="472" r="6"/><circle cx="2168" cy="433" r="4"/><circle cx="2312" cy="426" r="6"/><circle cx="2320" cy="427" r="6"/><circle cx="2413" cy="429" r="5"/><circle cx="2484" cy="423" r="6"/><circle cx="77" cy="484" r="4"/><circle cx="125" cy="534" r="5"/><circle cx="178" cy="510" r="5"/><circle cx="298" cy="520" r="5"/><circle cx="368" cy="486" r="5"/><circle cx="446" cy="539" r="6"/><circle cx="488" cy="559" r="4"/><circle cx="633" cy="513" r="5"/><circle cx="718" cy="520" r="5"/><circle cx="778" cy="483" r="6"/><circle cx="832" cy="527" r="4"/><circle cx="944" cy="482" r="4"/><circle cx="992" cy="522" r="6"/><circle cx="1119" cy="486" r="5"/><circle cx="1177" cy="542" r="4"/><circle cx="1264" cy="517" r="5"/><circle cx="1319" cy="528" r="5"/><circle cx="1361" cy="552" r="4"/><circle cx="1491" cy="523" r="6"/><circle cx="1544" cy="513" r="5"/><circle cx="1630" cy="487" r="5"/><circle cx="1712" cy="505" r="5"/><circle cx="1796" cy="486" r="5"/><circle cx="1907" cy="559" r="5"/><circle cx="1990" cy="542" r="4"/><circle cx="2055" cy="491" r="5"/><circle cx="2096" cy="532" r="5"/><circle cx="2208" cy="544" r="5"/><circle cx="2276" cy="546" r="6"/><circle cx="2324" cy="533" r="5"/><circle cx="2452" cy="520" r="5"/><circle cx="2512" cy="553" r="6"/><circle cx="74" cy="619" r="5"/><circle cx="103" cy="597" r="5"/><circle cx="219" cy="629" r="5"/><circle cx="276" cy="624" r="5"/><circle cx="348" cy="631" r="6"/><circle cx="406" cy="578" r="5"/><circle cx="516" cy="623" r="5"/><circle cx="613" cy="639" r="5"/><circle cx="659" cy="601" r="5"/><circle cx="775" cy="605" r="6"/><circle cx="825" cy="575" r="6"/><circle cx="907" cy="576" r="5"/><circle cx="983" cy="610" r="5"/><circle cx="1066" cy="600" r="5"/><circle cx="1167" cy="621" r="5"/><circle cx="1236" cy="588" r="4"/><circle cx="1348" cy="578" r="6"/><circle cx="1401" cy="569" r="4"/><circle cx="1498" cy="583" r="4"/><circle cx="1525" cy="631" r="5"/><circle cx="1667" cy="629" r="5"/><circle cx="1752" cy="611" r="5"/><circle cx="1782" cy="560" r="4"/><circle cx="1888" cy="639" r="6"/><circle cx="1949" cy="604" r="4"/><circle cx="2034" cy="614" r="5"/><circle cx="2087" cy="631" r="6"/><circle cx="2181" cy="633" r="6"/><circle cx="2244" cy="629" r="6"/><circle cx="2361" cy="565" r="5"/><circle cx="2412" cy="591" r="6"/><circle cx="2492" cy="626" r="5"/><circle cx="65" cy="701" r="4"/><circle cx="160" cy="675" r="6"/><circle cx="191" cy="696" r="4"/><circle cx="250" cy="660" r="6"/><circle cx="383" cy="675" r="6"/><circle cx="452" cy="673" r="6"/><circle cx="531" cy="640" r="5"/><circle cx="617" cy="710" r="6"/><circle cx="664" cy="681" r="4"/><circle cx="800" cy="710" r="5"/><circle cx="818" cy="671" r="4"/><circle cx="947" cy="679" r="5"/><circle cx="1014" cy="681" r="4"/><circle cx="1048" cy="642" r="5"/><circle cx="1197" cy="695" r="5"/><circle cx="1246" cy="671" r="4"/><circle cx="1335" cy="679" r="4"/><circle cx="1408" cy="675" r="4"/><circle cx="1442" cy="697" r="4"/><circle cx="1528" cy="663" r="5"/><circle cx="1675" cy="680" r="6"/><circle cx="1720" cy="662" r="5"/><circle cx="1781" cy="679" r="6"/><circle cx="1845" cy="703" r="5"/><circle cx="1994" cy="652" r="5"/><circle cx="2054" cy="643" r="6"/><circle cx="2092" cy="702" r="6"/><circle cx="2222" cy="665" r="6"/><circle cx="2299" cy="653" r="5"/><circle cx="2363" cy="675" r="6"/><circle cx="2421" cy="664" r="6"/><circle cx="2481" cy="683" r="5"/><circle cx="1" cy="780" r="5"/><circle cx="2561" cy="780" r="5"/><circle cx="160" cy="739" r="5"/><circle cx="192" cy="723" r="4"/><circle cx="262" cy="729" r="5"/><circle cx="361" cy="758" r="5"/><circle cx="442" cy="724" r="6"/><circle cx="509" cy="755" r="6"/><circle cx="624" cy="764" r="5"/><circle cx="646" cy="769" r="5"/><circle cx="782" cy="779" r="6"/><circle cx="823" cy="760" r="5"/><circle cx="885" cy="799" r="5"/><circle cx="974" cy="727" r="6"/><circle cx="1049" cy="750" r="5"/><circle cx="1184" cy="741" r="5"/><circle cx="1233" cy="728" r="6"/><circle cx="1331" cy="754" r="4"/><circle cx="1394" cy="783" r="4"/><circle cx="1499" cy="760" r="5"/><circle cx="1524" cy="767" r="6"/><circle cx="1650" cy="723" r="5"/><circle cx="1759" cy="742" r="6"/><circle cx="1806" cy="792" r="4"/><circle cx="1842" cy="768" r="5"/><circle cx="1989" cy="790" r="4"/><circle cx="2071" cy="762" r="5"/><circle cx="2114" cy="725" r="4"/><circle cx="2195" cy="782" r="6"/><circle cx="2287" cy="776" r="4"/><circle cx="2333" cy="759" r="4"/><circle cx="2447" cy="770" r="5"/><circle cx="2493" cy="792" r="6"/><circle cx="76" cy="822" r="6"/><circle cx="107" cy="826" r="5"/><circle cx="195" cy="836" r="5"/><circle cx="306" cy="803" r="5"/><circle cx="344" cy="814" r="6"/><circle cx="469" cy="804" r="4"/><circle cx="503" cy="829" r="4"/><circle cx="562" cy="809" r="5"/><circle cx="665" cy="844" r="4"/><circle cx="769" cy="863" r="4"/><circle cx="815" cy="824" r="6"/><circle cx="896" cy="819" r="4"/><circle cx="969" cy="818" r="4"/><circle cx="1065" cy="813" r="5"/><circle cx="1149" cy="814" r="6"/><circle cx="1250" cy="833" r="4"/><circle cx="1327" cy="837" r="5"/><circle cx="1410" cy="863" r="6"/><circle cx="1463" cy="869" r="5"/><circle cx="1544" cy="825" r="6"/><circle cx="1611" cy="860" r="5"/><circle cx="1700" cy="856" r="6"/><circle cx="1800" cy="827" r="4"/><circle cx="1900" cy="844" r="5"/><circle cx="1940" cy="808" r="4"/><circle cx="2016" cy="811" r="5"/><circle cx="2122" cy="826" r="5"/><circle cx="2225" cy="806" r="5"/><circle cx="2256" cy="855" r="5"/><circle cx="2324" cy="879" r="6"/><circle cx="2419" cy="838" r="6"/><circle cx="2528" cy="857" r="5"/><circle cx="13" cy="953" r="4"/><circle cx="102" cy="956" r="5"/><circle cx="225" cy="959" r="6"/><circle cx="315" cy="931" r="5"/><circle cx="346" cy="897" r="4"/><circle cx="434" cy="890" r="6"/><circle cx="524" cy="927" r="5"/><circle cx="567" cy="892" r="5"/><circle cx="718" cy="893" r="5"/><circle cx="727" cy="950" r="6"/><circle cx="848" cy="904" r="5"/><circle cx="918" cy="912" r="4"/><circle cx="977" cy="884" r="4"/><circle cx="1112" cy="883" r="6"/><circle cx="1138" cy="926" r="6"/><circle cx="1268" cy="918" r="5"/><circle cx="1355" cy="943" r="5"/><circle cx="1381" cy="938" r="4"/><circle cx="1475" cy="930" r="4"/><circle cx="1574" cy="938" r="6"/><circle cx="1675" cy="893" r="5"/><circle cx="1686" cy="950" r="6"/><circle cx="1788" cy="928" r="4"/><circle cx="1883" cy="955" r="6"/><circle cx="1988" cy="897" r="4"/><circle cx="2016" cy="914" r="5"/><circle cx="2153" cy="888" r="5"/><circle cx="2172" cy="940" r="6"/><circle cx="2317" cy="902" r="5"/><circle cx="2359" cy="907" r="4"/><circle cx="2472" cy="947" r="6"/><circle cx="2498" cy="948" r="6"/><circle cx="59" cy="985" r="5"/><circle cx="155" cy="980" r="4"/><circle cx="204" cy="1018" r="6"/><circle cx="289" cy="968" r="5"/><circle cx="374" cy="977" r="5"/><circle cx="452" cy="961" r="5"/><circle cx="508" cy="1017" r="6"/><circle cx="629" cy="978" r="6"/><circle cx="667" cy="996" r="5"/><circle cx="754" cy="965" r="5"/><circle cx="801" cy="997" r="6"/><circle cx="957" cy="981" r="5"/><circle cx="982" cy="977" r="5"/><circle cx="1056" cy="973" r="4"/><circle cx="1140" cy="1038" r="6"/><circle cx="1253" cy="1018" r="5"/><circle cx="1297" cy="999" r="4"/><circle cx="1379" cy="976" r="6"/><circle cx="1488" cy="983" r="5"/><circle cx="1581" cy="979" r="6"/><circle cx="1606" cy="1034" r="4"/><circle cx="1733" cy="1020" r="6"/><circle cx="1832" cy="1013" r="5"/><circle cx="1885" cy="1015" r="5"/><circle cx="1944" cy="977" r="5"/><circle cx="2059" cy="985" r="6"/><circle cx="2087" cy="1020" r="6"/><circle cx="2217" cy="977" r="4"/><circle cx="2306" cy="1024" r="5"/><circle cx="2378" cy="1016" r="4"/><circle cx="2402" cy="1013" r="4"/><circle cx="2511" cy="1001" r="5"/><circle cx="65" cy="1102" r="4"/><circle cx="106" cy="1098" r="5"/><circle cx="232" cy="1052" r="5"/><circle cx="265" cy="1063" r="6"/><circle cx="328" cy="1113" r="5"/><circle cx="420" cy="1073" r="4"/><circle cx="552" cy="1093" r="5"/><circle cx="633" cy="1049" r="4"/><circle cx="653" cy="1088" r="5"/><circle cx="783" cy="1080" r="5"/><circle cx="821" cy="1094" r="5"/><circle cx="907" cy="1097" r="5"/><circle cx="1026" cy="1079" r="5"/><circle cx="1055" cy="1075" r="4"/><circle cx="1174" cy="1067" r="5"/><circle cx="1251" cy="1045" r="5"/><circle cx="1296" cy="1070" r="5"/><circle cx="1427" cy="1064" r="5"/><circle cx="1496" cy="1043" r="5"/><circle cx="1554" cy="1076" r="5"/><circle cx="1616" cy="1092" r="4"/><circle cx="1752" cy="1119" r="5"/><circle cx="1809" cy="1058" r="6"/><circle cx="1880" cy="1090" r="5"/><circle cx="1939" cy="1114" r="4"/><circle cx="2053" cy="1118" r="4"/><circle cx="2111" cy="1059" r="5"/><circle cx="2232" cy="1049" r="5"/><circle cx="2253" cy="1080" r="6"/><circle cx="2375" cy="1107" r="5"/><circle cx="2462" cy="1058" r="5"/><circle cx="2492" cy="1097" r="4"/><circle cx="44" cy="1127" r="6"/><circle cx="159" cy="1166" r="4"/><circle cx="173" cy="1152" r="4"/><circle cx="305" cy="1153" r="5"/><circle cx="347" cy="1165" r="5"/><circle cx="473" cy="1182" r="6"/><circle cx="544" cy="1169" r="5"/><circle cx="636" cy="1153" r="5"/><circle cx="683" cy="1132" r="4"/><circle cx="786" cy="1173" r="6"/><circle cx="875" cy="1146" r="5"/><circle cx="882" cy="1151" r="6"/><circle cx="963" cy="1121" r="4"/><circle cx="1063" cy="1174" r="5"/><circle cx="1151" cy="1144" r="5"/><circle cx="1219" cy="1146" r="6"/><circle cx="1342" cy="1174" r="5"/><circle cx="1412" cy="1162" r="5"/><circle cx="1486" cy="1179" r="4"/><circle cx="1600" cy="1187" r="6"/><circle cx="1608" cy="1195" r="6"/><circle cx="1744" cy="1136" r="4"/><circle cx="1798" cy="1160" r="5"/><circle cx="1865" cy="1164" r="5"/><circle cx="1948" cy="1173" r="5"/><circle cx="2036" cy="1160" r="5"/><circle cx="2103" cy="1145" r="5"/><circle cx="2218" cy="1136" r="5"/><circle cx="2311" cy="1192" r="6"/><circle cx="2361" cy="1192" r="5"/><circle cx="2407" cy="1155" r="6"/><circle cx="2516" cy="1127" r="5"/><circle cx="47" cy="1248" r="6"/><circle cx="152" cy="1240" r="4"/><circle cx="175" cy="1242" r="5"/><circle cx="252" cy="1263" r="5"/><circle cx="378" cy="1202" r="6"/><circle cx="407" cy="1252" r="4"/><circle cx="522" cy="1219" r="5"/><circle cx="633" cy="1244" r="5"/><circle cx="669" cy="1274" r="6"/><circle cx="767" cy="1221" r="6"/><circle cx="831" cy="1222" r="4"/><circle cx="898" cy="1262" r="6"/><circle cx="994" cy="1269" r="5"/><circle cx="1085" cy="1277" r="6"/><circle cx="1163" cy="1237" r="5"/><circle cx="1229" cy="1208" r="5"/><circle cx="1320" cy="1246" r="5"/><circle cx="1385" cy="1271" r="5"/><circle cx="1442" cy="1227" r="6"/><circle cx="1561" cy="1219" r="5"/><circle cx="1677" cy="1221" r="4"/><circle cx="1756" cy="1205" r="6"/><circle cx="1770" cy="1214" r="6"/><circle cx="1905" cy="1254" r="5"/><circle cx="1986" cy="1239" r="5"/><circle cx="2069" cy="1206" r="6"/><circle cx="2096" cy="1266" r="5"/><circle cx="2217" cy="1239" r="5"/><circle cx="2293" cy="1269" r="6"/><circle cx="2396" cy="1216" r="5"/><circle cx="2416" cy="1259" r="4"/><circle cx="2555" cy="1223" r="6"/><circle cx="-5" cy="1223" r="6"/><circle cx="50" cy="1334" r="5"/><circle cx="141" cy="1325" r="5"/><circle cx="211" cy="1335" r="5"/><circle cx="295" cy="1324" r="5"/><circle cx="329" cy="1348" r="6"/><circle cx="470" cy="1339" r="6"/><circle cx="548" cy="1325" r="6"/><circle cx="636" cy="1355" r="6"/><circle cx="668" cy="1299" r="6"/><circle cx="731" cy="1295" r="6"/><circle cx="871" cy="1351" r="5"/><circle cx="919" cy="1335" r="4"/><circle cx="1032" cy="1289" r="4"/><circle cx="1064" cy="1320" r="6"/><circle cx="1189" cy="1355" r="4"/><circle cx="1252" cy="1360" r="4"/><circle cx="1313" cy="1312" r="5"/><circle cx="1410" cy="1285" r="5"/><circle cx="1467" cy="1290" r="5"/><circle cx="1531" cy="1331" r="4"/><circle cx="1617" cy="1320" r="4"/><circle cx="1726" cy="1323" r="5"/><circle cx="1817" cy="1315" r="5"/><circle cx="1849" cy="1339" r="4"/><circle cx="1986" cy="1326" r="5"/><circle cx="2046" cy="1337" r="4"/><circle cx="2090" cy="1355" r="5"/><circle cx="2237" cy="1343" r="4"/><circle cx="2318" cy="1334" r="5"/><circle cx="2345" cy="1341" r="4"/><circle cx="2421" cy="1299" r="4"/><circle cx="2513" cy="1334" r="5"/><circle cx="7" cy="1408" r="4"/><circle cx="124" cy="1361" r="5"/><circle cx="230" cy="1369" r="4"/><circle cx="257" cy="1416" r="4"/><circle cx="333" cy="1426" r="4"/><circle cx="412" cy="1395" r="4"/><circle cx="512" cy="1428" r="5"/><circle cx="637" cy="1385" r="5"/><circle cx="666" cy="1378" r="5"/><circle cx="784" cy="1423" r="5"/><circle cx="808" cy="1379" r="5"/><circle cx="885" cy="1401" r="4"/><circle cx="1000" cy="1432" r="4"/><circle cx="1049" cy="1378" r="5"/><circle cx="1193" cy="1376" r="6"/><circle cx="1222" cy="1385" r="4"/><circle cx="1287" cy="1368" r="5"/><circle cx="1429" cy="1409" r="4"/><circle cx="1476" cy="1404" r="4"/><circle cx="1580" cy="1430" r="4"/><circle cx="1628" cy="1399" r="6"/><circle cx="1720" cy="1412" r="5"/><circle cx="1795" cy="1364" r="4"/><circle cx="1868" cy="1383" r="6"/><circle cx="1934" cy="1368" r="5"/><circle cx="2053" cy="1431" r="4"/><circle cx="2102" cy="1418" r="5"/><circle cx="2209" cy="1429" r="5"/><circle cx="2316" cy="1435" r="4"/><circle cx="2371" cy="1381" r="5"/><circle cx="2432" cy="1390" r="4"/><circle cx="2540" cy="1409" r="5"/><path stroke="#fff" d="M49 15L91 72M49 15L-3 73M49 15L61 102M49 15L7 -32M49 15L-20 -31M2609 15L2557 73M2609 15L2540 -31M49 1455L7 1408M49 1455L-20 1409M2609 1455L2540 1409M91 72L-3 73M91 72L61 102M91 72L142 151M2651 72L2557 73M195 13L233 105M195 13L124 -79M195 13L230 -71M195 13L257 -24M195 1453L124 1361M195 1453L230 1369M195 1453L257 1416M298 79L340 27M298 79L233 105M298 79L273 126M298 79L365 141M298 79L333 -14M298 1519L333 1426M340 27L433 45M340 27L333 -14M340 1467L333 1426M433 45L484 41M433 45L412 144M433 45L412 -45M433 45L512 -12M433 1485L412 1395M433 1485L512 1428M484 41L494 141M484 41L412 -45M484 41L512 -12M484 1481L412 1395M484 1481L512 1428M637 43L646 15M637 43L595 123M637 43L637 -55M637 1483L637 1385M646 15L755 44M646 15L637 -55M646 15L666 -62M646 1455L637 1385M646 1455L666 1378M755 44L867 41M755 44L744 97M755 44L784 -17M755 1484L784 1423M867 41L905 47M867 41L842 144M867 41L784 -17M867 41L885 -39M867 1481L784 1423M867 1481L885 1401M905 47L977 19M905 47L900 157M905 47L885 -39M905 1487L885 1401M977 19L994 127M977 19L1057 97M977 19L1000 -8M977 19L1049 -62M977 1459L1000 1432M977 1459L1049 1378M1102 45L1134 32M1102 45L1057 97M1102 45L1171 125M1102 45L1000 -8M1102 45L1049 -62M1102 1485L1000 1432M1102 1485L1049 1378M1134 32L1057 97M1242 71L1282 2M1242 71L1171 125M1242 71L1305 156M1242 71L1182 167M1282 2L1193 -64M1282 2L1222 -55M1282 2L1287 -72M1282 1442L1193 1376M1282 1442L1222 1385M1282 1442L1287 1368M1386 68L1485 56M1386 68L1428 134M1386 68L1429 -31M1386 1508L1429 1409M1485 56L1569 5M1485 56L1496 116M1485 56L1476 -36M1485 1496L1476 1404M1569 5L1603 41M1569 5L1576 116M1569 5L1580 -10M1569 5L1628 -41M1569 1445L1580 1430M1569 1445L1628 1399M1603 41L1576 116M1603 41L1649 99M1603 41L1580 -10M1603 41L1628 -41M1603 1481L1580 1430M1603 1481L1628 1399M1758 49L1832 69M1758 49L1848 1M1758 49L1649 99M1758 49L1720 -28M1758 1489L1720 1412M1832 69L1848 1M1832 69L1821 150M1832 69L1880 83M1832 69L1803 161M1848 1L1880 83M1848 1L1868 -57M1848 1441L1868 1383M1925 79L2010 72M1925 79L1880 83M1925 79L1936 158M1925 79L1962 186M2010 72L2086 76M2010 72L2058 137M2010 72L2053 -9M2010 1512L2053 1431M2086 76L2058 137M2086 76L2102 144M2086 76L2053 -9M2086 1516L2053 1431M2216 37L2289 12M2216 37L2168 147M2216 37L2245 130M2216 37L2209 -11M2216 37L2316 -5M2216 1477L2209 1429M2216 1477L2316 1435M2289 12L2339 63M2289 12L2209 -11M2289 12L2316 -5M2289 1452L2209 1429M2289 1452L2316 1435M2339 63L2425 80M2339 63L2398 116M2339 63L2316 -5M2339 1503L2316 1435M2425 80L2398 116M2425 80L2442 116M2425 80L2483 95M2425 80L2473 180M2557 73L2621 102M2557 73L2483 95M2557 73L2540 -31M-3 73L61 102M2557 1513L2540 1409M61 102L142 151M142 151L233 105M142 151L130 199M142 151L244 175M233 105L273 126M233 105L244 175M273 126L365 141M273 126L244 175M273 126L356 174M365 141L412 144M365 141L356 174M365 141L461 166M412 144L494 141M412 144L356 174M412 144L461 166M494 141L595 123M494 141L461 166M494 141L510 213M595 123L677 145M595 123L631 220M677 145L744 97M677 145L631 220M677 145L708 203M744 97L842 144M744 97L815 165M842 144L900 157M842 144L815 165M842 144L892 205M900 157L815 165M900 157L892 205M994 127L1057 97M994 127L1045 184M1057 97L1045 184M1171 125L1207 159M1171 125L1182 167M1207 159L1305 156M1207 159L1182 167M1207 159L1240 174M1207 159L1227 252M1305 156L1240 174M1305 156L1303 173M1305 156L1384 207M1428 134L1496 116M1428 134L1384 207M1428 134L1477 207M1428 134L1406 244M1496 116L1576 116M1496 116L1477 207M1496 116L1585 163M1576 116L1649 99M1576 116L1585 163M1649 99L1704 153M1649 99L1585 163M1704 153L1667 228M1704 153L1720 209M1704 153L1803 161M1704 153L1707 255M1821 150L1880 83M1821 150L1803 161M1821 150L1852 261M1936 158L1900 220M1936 158L1962 186M2058 137L2102 144M2058 137L2054 187M2058 137L2138 167M2102 144L2168 147M2102 144L2054 187M2102 144L2138 167M2168 147L2245 130M2168 147L2138 167M2168 147L2194 219M2245 130L2271 212M2398 116L2442 116M2398 116L2483 95M2398 116L2385 178M2442 116L2483 95M2442 116L2385 178M2442 116L2473 180M2483 95L2473 180M71 236L130 199M71 236L59 317M71 236L138 255M130 199L200 238M130 199L138 255M200 238L244 175M200 238L138 255M200 238L216 312M200 238L169 335M356 174L405 267M461 166L510 213M510 213L597 258M631 220L708 203M631 220L597 258M631 220L683 245M708 203L743 234M708 203L683 245M708 203L724 272M743 234L815 165M743 234L683 245M743 234L724 272M743 234L854 274M892 205L965 236M892 205L854 274M892 205L913 263M965 236L1045 184M965 236L913 263M965 236L980 284M965 236L1047 248M1045 184L1047 248M1182 167L1240 174M1240 174L1303 173M1240 174L1227 252M1303 173L1384 207M1384 207L1406 244M1477 207L1406 244M1477 207L1511 280M1585 163L1667 228M1585 163L1561 259M1667 228L1720 209M1667 228L1659 316M1667 228L1707 255M1720 209L1803 161M1720 209L1707 255M1803 161L1900 220M1900 220L1962 186M1900 220L1831 273M1900 220L1852 261M1962 186L2054 187M2054 187L2138 167M2054 187L2042 259M2138 167L2194 219M2194 219L2271 212M2194 219L2212 262M2194 219L2267 266M2271 212L2212 262M2271 212L2267 266M2271 212L2323 275M2385 178L2473 180M2385 178L2485 235M2473 180L2485 235M2485 235L2495 295M59 317L60 375M59 317L132 348M138 255L169 335M216 312L302 309M216 312L132 348M216 312L169 335M302 309L374 314M302 309L405 267M302 309L297 390M302 309L390 330M374 314L405 267M374 314L297 390M374 314L390 330M374 314L349 411M405 267L481 315M405 267L390 330M481 315L474 372M481 315L489 341M481 315L497 401M597 258L683 245M597 258L628 322M683 245L724 272M724 272L690 344M724 272L759 374M854 274L913 263M854 274L877 351M854 274L905 357M913 263L980 284M980 284L1047 248M980 284L1001 337M1047 248L1001 337M1047 248L1095 324M1191 316L1227 252M1191 316L1095 324M1191 316L1128 337M1191 316L1265 325M1191 316L1253 411M1227 252L1306 289M1227 252L1265 325M1306 289L1406 244M1306 289L1265 325M1406 244L1511 280M1511 280L1561 259M1511 280L1519 353M1511 280L1564 353M1561 259L1519 353M1561 259L1564 353M1659 316L1707 255M1659 316L1564 353M1659 316L1636 377M1659 316L1721 346M1707 255L1721 346M1831 273L1852 261M1831 273L1797 360M1983 302L2042 259M1983 302L1994 332M1983 302L2013 341M2042 259L2126 300M2042 259L1994 332M2042 259L2013 341M2126 300L2212 262M2126 300L2101 344M2126 300L2194 323M2212 262L2267 266M2212 262L2194 323M2267 266L2323 275M2323 275L2425 316M2323 275L2256 360M2323 275L2336 339M2425 316L2495 295M2425 316L2336 339M2425 316L2469 379M2495 295L2469 379M2495 295L2499 395M60 375L132 348M60 375L23 404M60 375L119 402M132 348L169 335M132 348L119 402M169 335L119 402M297 390L271 470M297 390L349 411M390 330L474 372M390 330L349 411M474 372L489 341M474 372L410 437M474 372L497 401M489 341L497 401M628 322L690 344M628 322L642 438M690 344L759 374M690 344L642 438M759 374L772 440M877 351L905 357M877 351L927 429M905 357L1001 337M905 357L927 429M905 357L972 404M1001 337L1095 324M1001 337L972 404M1095 324L1128 337M1128 337L1136 458M1265 325L1283 397M1265 325L1253 411M1283 397L1384 390M1283 397L1253 411M1283 397L1298 456M1283 397L1372 404M1384 390L1372 404M1384 390L1442 418M1519 353L1564 353M1519 353L1442 418M1564 353L1636 377M1636 377L1721 346M1636 377L1626 477M1636 377L1720 441M1721 346L1797 360M1721 346L1720 441M1797 360L1843 396M1797 360L1802 422M1843 396L1802 422M1843 396L1908 429M1843 396L1928 446M1843 396L1796 486M1994 332L2013 341M1994 332L2101 344M2013 341L2101 344M2101 344L2194 323M2101 344L2068 437M2194 323L2256 360M2256 360L2336 339M2256 360L2312 426M2256 360L2320 427M2336 339L2312 426M2336 339L2320 427M2469 379L2499 395M2469 379L2413 429M2469 379L2484 423M2499 395L2583 404M2499 395L2413 429M2499 395L2484 423M-61 395L23 404M23 404L119 402M23 404L-76 423M23 404L77 484M2583 404L2484 423M119 402L77 484M214 455L271 470M214 455L125 534M214 455L178 510M214 455L298 520M271 470L298 520M349 411L410 437M349 411L368 486M410 437L497 401M410 437L368 486M410 437L446 539M624 453L642 438M624 453L633 513M642 438L633 513M772 440L822 466M772 440L718 520M772 440L778 483M822 466L927 429M822 466L778 483M822 466L832 527M822 466L825 575M927 429L972 404M927 429L944 482M972 404L1055 464M972 404L944 482M1055 464L1136 458M1055 464L944 482M1055 464L992 522M1055 464L1119 486M1136 458L1119 486M1136 458L1177 542M1253 411L1298 456M1298 456L1372 404M1298 456L1264 517M1298 456L1319 528M1372 404L1442 418M1442 418L1535 458M1442 418L1491 523M1535 458L1626 477M1535 458L1491 523M1535 458L1544 513M1535 458L1630 487M1626 477L1544 513M1626 477L1630 487M1626 477L1712 505M1720 441L1802 422M1720 441L1712 505M1720 441L1796 486M1802 422L1908 429M1802 422L1796 486M1908 429L1928 446M1908 429L1907 559M1928 446L1907 559M2068 437L2138 472M2068 437L2168 433M2068 437L2055 491M2068 437L2096 532M2138 472L2168 433M2138 472L2055 491M2138 472L2096 532M2138 472L2208 544M2312 426L2320 427M2312 426L2413 429M2312 426L2324 533M2320 427L2413 429M2320 427L2324 533M2413 429L2484 423M2484 423L2452 520M77 484L125 534M77 484L178 510M125 534L178 510M125 534L74 619M125 534L103 597M178 510L103 597M298 520L368 486M298 520L276 624M368 486L446 539M368 486L406 578M446 539L488 559M446 539L406 578M446 539L516 623M488 559L406 578M488 559L516 623M488 559L531 640M633 513L718 520M633 513L659 601M718 520L778 483M718 520L659 601M718 520L775 605M778 483L832 527M778 483L825 575M832 527L775 605M832 527L825 575M832 527L907 576M944 482L992 522M944 482L907 576M992 522L907 576M992 522L983 610M992 522L1066 600M1119 486L1177 542M1177 542L1264 517M1177 542L1167 621M1177 542L1236 588M1264 517L1319 528M1264 517L1236 588M1264 517L1348 578M1319 528L1361 552M1319 528L1348 578M1319 528L1401 569M1361 552L1348 578M1361 552L1401 569M1491 523L1544 513M1491 523L1401 569M1491 523L1498 583M1544 513L1630 487M1544 513L1498 583M1630 487L1712 505M1712 505L1796 486M1712 505L1782 560M1796 486L1782 560M1907 559L1990 542M1907 559L1888 639M1907 559L1949 604M1990 542L2055 491M1990 542L1949 604M1990 542L2034 614M2055 491L2096 532M2208 544L2276 546M2208 544L2181 633M2208 544L2244 629M2208 544L2222 665M2276 546L2324 533M2276 546L2244 629M2276 546L2361 565M2276 546L2299 653M2324 533L2361 565M2452 520L2512 553M2452 520L2361 565M2452 520L2412 591M2452 520L2492 626M2512 553L2492 626M2512 553L2481 683M74 619L103 597M74 619L65 701M103 597L65 701M219 629L276 624M219 629L160 675M219 629L191 696M219 629L250 660M219 629L192 723M276 624L348 631M276 624L250 660M348 631L406 578M348 631L383 675M406 578L383 675M516 623L613 639M516 623L452 673M516 623L531 640M613 639L659 601M613 639L531 640M613 639L617 710M613 639L664 681M659 601L664 681M775 605L825 575M775 605L800 710M775 605L818 671M825 575L907 576M907 576L983 610M983 610L1066 600M983 610L947 679M983 610L1048 642M1066 600L1167 621M1066 600L1014 681M1066 600L1048 642M1167 621L1236 588M1167 621L1197 695M1167 621L1246 671M1236 588L1246 671M1348 578L1401 569M1348 578L1335 679M1401 569L1498 583M1498 583L1525 631M1498 583L1528 663M1525 631L1528 663M1667 629L1752 611M1667 629L1675 680M1667 629L1720 662M1667 629L1650 723M1752 611L1782 560M1752 611L1720 662M1752 611L1781 679M1888 639L1949 604M1888 639L1845 703M1888 639L1994 652M1949 604L2034 614M1949 604L1994 652M2034 614L2087 631M2034 614L1994 652M2034 614L2054 643M2087 631L2181 633M2087 631L1994 652M2087 631L2054 643M2087 631L2092 702M2181 633L2244 629M2181 633L2092 702M2181 633L2222 665M2244 629L2222 665M2244 629L2299 653M2361 565L2412 591M2361 565L2363 675M2412 591L2492 626M2412 591L2363 675M2412 591L2421 664M2492 626L2421 664M2492 626L2481 683M65 701L1 780M160 675L191 696M160 675L250 660M160 675L160 739M160 675L192 723M191 696L250 660M191 696L160 739M191 696L192 723M250 660L262 729M383 675L452 673M383 675L361 758M383 675L442 724M452 673L531 640M452 673L442 724M452 673L509 755M617 710L664 681M617 710L624 764M617 710L646 769M664 681L624 764M664 681L646 769M800 710L818 671M800 710L782 779M800 710L823 760M818 671L823 760M947 679L1014 681M947 679L974 727M1014 681L1048 642M1014 681L974 727M1014 681L1049 750M1048 642L974 727M1048 642L1049 750M1197 695L1246 671M1197 695L1184 741M1197 695L1233 728M1246 671L1184 741M1246 671L1233 728M1335 679L1408 675M1335 679L1331 754M1408 675L1442 697M1408 675L1331 754M1442 697L1528 663M1442 697L1394 783M1442 697L1499 760M1442 697L1524 767M1528 663L1499 760M1528 663L1524 767M1675 680L1720 662M1675 680L1781 679M1675 680L1650 723M1720 662L1781 679M1720 662L1759 742M1781 679L1845 703M1781 679L1759 742M1845 703L1759 742M1845 703L1806 792M1845 703L1842 768M1994 652L2054 643M2054 643L2092 702M2054 643L2114 725M2092 702L2071 762M2092 702L2114 725M2222 665L2299 653M2299 653L2363 675M2363 675L2421 664M2363 675L2333 759M2421 664L2481 683M2421 664L2447 770M2481 683L2447 770M2481 683L2493 792M1 780L-67 792M1 780L76 822M1 780L-32 857M2561 780L2493 792M2561 780L2528 857M160 739L192 723M160 739L107 826M160 739L195 836M192 723L262 729M262 729L361 758M262 729L306 803M262 729L344 814M361 758L442 724M361 758L306 803M361 758L344 814M442 724L509 755M442 724L469 804M509 755L469 804M509 755L503 829M509 755L562 809M624 764L646 769M624 764L562 809M624 764L665 844M646 769L562 809M646 769L665 844M782 779L823 760M782 779L885 799M782 779L769 863M782 779L815 824M823 760L885 799M823 760L815 824M885 799L815 824M885 799L896 819M885 799L969 818M974 727L1049 750M974 727L969 818M1049 750L1065 813M1184 741L1233 728M1184 741L1149 814M1184 741L1250 833M1233 728L1331 754M1233 728L1149 814M1331 754L1394 783M1331 754L1327 837M1394 783L1327 837M1394 783L1410 863M1499 760L1524 767M1499 760L1544 825M1524 767L1463 869M1524 767L1544 825M1759 742L1806 792M1759 742L1842 768M1806 792L1842 768M1806 792L1800 827M1842 768L1800 827M1842 768L1900 844M1989 790L2071 762M1989 790L1900 844M1989 790L1940 808M1989 790L2016 811M2071 762L2114 725M2071 762L2016 811M2071 762L2122 826M2114 725L2195 782M2114 725L2122 826M2195 782L2287 776M2195 782L2122 826M2195 782L2225 806M2195 782L2256 855M2287 776L2333 759M2287 776L2225 806M2287 776L2256 855M2287 776L2324 879M2447 770L2493 792M2447 770L2419 838M2493 792L2419 838M2493 792L2528 857M76 822L107 826M76 822L195 836M107 826L195 836M195 836L306 803M306 803L344 814M344 814L346 897M469 804L503 829M469 804L434 890M503 829L562 809M503 829L434 890M503 829L567 892M562 809L567 892M665 844L567 892M665 844L718 893M769 863L815 824M769 863L718 893M769 863L848 904M815 824L896 819M896 819L969 818M896 819L848 904M896 819L918 912M969 818L1065 813M969 818L977 884M1065 813L1149 814M1065 813L977 884M1065 813L1112 883M1149 814L1112 883M1149 814L1138 926M1250 833L1327 837M1250 833L1268 918M1327 837L1410 863M1327 837L1268 918M1410 863L1463 869M1410 863L1381 938M1410 863L1475 930M1463 869L1544 825M1463 869L1381 938M1463 869L1475 930M1544 825L1611 860M1611 860L1700 856M1611 860L1574 938M1611 860L1675 893M1700 856L1800 827M1700 856L1675 893M1700 856L1686 950M1700 856L1788 928M1800 827L1788 928M1900 844L1940 808M1900 844L1883 955M1900 844L1988 897M1940 808L2016 811M2016 811L1988 897M2016 811L2016 914M2122 826L2225 806M2122 826L2153 888M2225 806L2256 855M2256 855L2324 879M2256 855L2317 902M2324 879L2419 838M2324 879L2317 902M2324 879L2359 907M2419 838L2528 857M2419 838L2359 907M2528 857L2472 947M2528 857L2498 948M13 953L102 956M13 953L-88 947M13 953L-62 948M13 953L59 985M13 953L-49 1001M2573 953L2472 947M2573 953L2498 948M2573 953L2511 1001M102 956L59 985M102 956L155 980M225 959L315 931M225 959L155 980M225 959L204 1018M225 959L289 968M225 959L232 1052M315 931L346 897M315 931L289 968M315 931L374 977M346 897L434 890M346 897L374 977M434 890L524 927M434 890L452 961M524 927L567 892M524 927L452 961M524 927L508 1017M524 927L629 978M567 892L629 978M718 893L727 950M718 893L754 965M727 950L629 978M727 950L667 996M727 950L754 965M727 950L801 997M848 904L918 912M848 904L801 997M918 912L977 884M918 912L957 981M918 912L982 977M977 884L957 981M977 884L982 977M1112 883L1138 926M1112 883L1056 973M1138 926L1056 973M1138 926L1140 1038M1268 918L1355 943M1268 918L1253 1018M1268 918L1297 999M1355 943L1381 938M1355 943L1379 976M1381 938L1379 976M1475 930L1574 938M1475 930L1488 983M1574 938L1686 950M1574 938L1488 983M1574 938L1581 979M1675 893L1686 950M1686 950L1581 979M1686 950L1733 1020M1788 928L1883 955M1788 928L1733 1020M1883 955L1832 1013M1883 955L1885 1015M1883 955L1944 977M1988 897L2016 914M1988 897L1944 977M2016 914L1944 977M2016 914L2059 985M2016 914L2087 1020M2153 888L2172 940M2153 888L2217 977M2172 940L2059 985M2172 940L2087 1020M2172 940L2217 977M2172 940L2232 1049M2317 902L2359 907M2472 947L2498 948M2472 947L2402 1013M2472 947L2511 1001M2498 948L2511 1001M59 985L155 980M59 985L106 1098M155 980L204 1018M155 980L232 1052M204 1018L289 968M204 1018L232 1052M204 1018L265 1063M289 968L374 977M289 968L265 1063M374 977L452 961M374 977L420 1073M452 961L508 1017M508 1017L420 1073M508 1017L552 1093M629 978L667 996M629 978L633 1049M667 996L754 965M667 996L633 1049M667 996L653 1088M754 965L801 997M754 965L783 1080M801 997L783 1080M957 981L982 977M957 981L1056 973M957 981L1026 1079M982 977L1056 973M982 977L1026 1079M1140 1038L1055 1075M1140 1038L1174 1067M1140 1038L1151 1144M1253 1018L1297 999M1253 1018L1174 1067M1253 1018L1251 1045M1253 1018L1296 1070M1297 999L1379 976M1297 999L1251 1045M1297 999L1296 1070M1379 976L1488 983M1379 976L1427 1064M1488 983L1581 979M1488 983L1496 1043M1581 979L1606 1034M1581 979L1554 1076M1606 1034L1496 1043M1606 1034L1554 1076M1606 1034L1616 1092M1733 1020L1832 1013M1733 1020L1809 1058M1832 1013L1885 1015M1832 1013L1809 1058M1832 1013L1880 1090M1885 1015L1944 977M1885 1015L1809 1058M1885 1015L1880 1090M1944 977L2059 985M2059 985L2087 1020M2059 985L2111 1059M2087 1020L2053 1118M2087 1020L2111 1059M2217 977L2306 1024M2217 977L2232 1049M2217 977L2253 1080M2306 1024L2378 1016M2306 1024L2402 1013M2306 1024L2232 1049M2306 1024L2253 1080M2378 1016L2402 1013M2378 1016L2375 1107M2402 1013L2462 1058M2511 1001L2462 1058M2511 1001L2492 1097M65 1102L106 1098M65 1102L44 1127M65 1102L159 1166M65 1102L-44 1127M2625 1102L2516 1127M106 1098L44 1127M106 1098L159 1166M106 1098L173 1152M232 1052L265 1063M232 1052L328 1113M265 1063L328 1113M265 1063L305 1153M328 1113L305 1153M328 1113L347 1165M328 1113L378 1202M552 1093L633 1049M552 1093L653 1088M552 1093L544 1169M552 1093L636 1153M633 1049L653 1088M633 1049L683 1132M653 1088L636 1153M653 1088L683 1132M783 1080L821 1094M783 1080L786 1173M821 1094L907 1097M821 1094L786 1173M821 1094L875 1146M821 1094L882 1151M907 1097L875 1146M907 1097L882 1151M907 1097L963 1121M1026 1079L1055 1075M1026 1079L963 1121M1026 1079L1063 1174M1055 1075L963 1121M1055 1075L1063 1174M1174 1067L1251 1045M1174 1067L1151 1144M1174 1067L1219 1146M1251 1045L1296 1070M1251 1045L1219 1146M1296 1070L1219 1146M1296 1070L1342 1174M1427 1064L1496 1043M1427 1064L1412 1162M1496 1043L1554 1076M1554 1076L1616 1092M1554 1076L1600 1187M1616 1092L1600 1187M1616 1092L1608 1195M1752 1119L1809 1058M1752 1119L1744 1136M1752 1119L1798 1160M1752 1119L1756 1205M1752 1119L1770 1214M1809 1058L1880 1090M1880 1090L1939 1114M1880 1090L1865 1164M1939 1114L1865 1164M1939 1114L1948 1173M2053 1118L2111 1059M2053 1118L2036 1160M2053 1118L2103 1145M2053 1118L2069 1206M2111 1059L2103 1145M2232 1049L2253 1080M2232 1049L2218 1136M2253 1080L2218 1136M2375 1107L2462 1058M2375 1107L2361 1192M2375 1107L2407 1155M2462 1058L2492 1097M2462 1058L2516 1127M2492 1097L2516 1127M44 1127L-44 1127M44 1127L47 1248M44 1127L-5 1223M2604 1127L2516 1127M2604 1127L2555 1223M159 1166L173 1152M159 1166L152 1240M159 1166L175 1242M173 1152L152 1240M173 1152L175 1242M305 1153L347 1165M305 1153L378 1202M347 1165L473 1182M347 1165L378 1202M347 1165L407 1252M473 1182L544 1169M473 1182L378 1202M473 1182L407 1252M473 1182L522 1219M544 1169L636 1153M544 1169L522 1219M636 1153L683 1132M636 1153L633 1244M786 1173L882 1151M786 1173L767 1221M786 1173L831 1222M875 1146L882 1151M875 1146L963 1121M875 1146L831 1222M882 1151L831 1222M1063 1174L1151 1144M1063 1174L1085 1277M1151 1144L1219 1146M1151 1144L1163 1237M1219 1146L1229 1208M1342 1174L1412 1162M1342 1174L1320 1246M1412 1162L1486 1179M1412 1162L1442 1227M1486 1179L1442 1227M1486 1179L1561 1219M1600 1187L1608 1195M1600 1187L1561 1219M1600 1187L1677 1221M1608 1195L1561 1219M1608 1195L1677 1221M1608 1195L1617 1320M1744 1136L1798 1160M1744 1136L1756 1205M1744 1136L1770 1214M1798 1160L1865 1164M1798 1160L1756 1205M1798 1160L1770 1214M1865 1164L1948 1173M1865 1164L1905 1254M1948 1173L2036 1160M1948 1173L1905 1254M1948 1173L1986 1239M2036 1160L2103 1145M2036 1160L1986 1239M2036 1160L2069 1206M2103 1145L2218 1136M2103 1145L2069 1206M2218 1136L2311 1192M2218 1136L2217 1239M2311 1192L2361 1192M2311 1192L2407 1155M2311 1192L2293 1269M2311 1192L2396 1216M2361 1192L2407 1155M2361 1192L2396 1216M2361 1192L2416 1259M2407 1155L2396 1216M2407 1155L2416 1259M2516 1127L2555 1223M47 1248L152 1240M47 1248L-5 1223M47 1248L50 1334M2607 1248L2555 1223M152 1240L175 1242M152 1240L141 1325M175 1242L252 1263M175 1242L141 1325M252 1263L211 1335M252 1263L295 1324M378 1202L407 1252M407 1252L470 1339M522 1219L470 1339M522 1219L548 1325M633 1244L669 1274M633 1244L668 1299M633 1244L731 1295M669 1274L636 1355M669 1274L668 1299M669 1274L731 1295M767 1221L831 1222M767 1221L898 1262M767 1221L731 1295M831 1222L898 1262M898 1262L994 1269M898 1262L871 1351M898 1262L919 1335M994 1269L1085 1277M994 1269L919 1335M994 1269L1032 1289M994 1269L1064 1320M1085 1277L1163 1237M1085 1277L1032 1289M1085 1277L1064 1320M1163 1237L1229 1208M1163 1237L1064 1320M1229 1208L1320 1246M1320 1246L1385 1271M1320 1246L1313 1312M1320 1246L1410 1285M1385 1271L1442 1227M1385 1271L1313 1312M1385 1271L1410 1285M1385 1271L1467 1290M1442 1227L1410 1285M1442 1227L1467 1290M1561 1219L1467 1290M1677 1221L1756 1205M1677 1221L1770 1214M1756 1205L1770 1214M1905 1254L1986 1239M1905 1254L1849 1339M1905 1254L1986 1326M1986 1239L2069 1206M1986 1239L1986 1326M2069 1206L2096 1266M2096 1266L2217 1239M2096 1266L2046 1337M2096 1266L2090 1355M2217 1239L2293 1269M2217 1239L2237 1343M2293 1269L2237 1343M2293 1269L2318 1334M2293 1269L2345 1341M2396 1216L2416 1259M2396 1216L2421 1299M2416 1259L2421 1299M50 1334L141 1325M50 1334L-47 1334M50 1334L7 1408M50 1334L124 1361M2610 1334L2513 1334M141 1325L211 1335M141 1325L124 1361M211 1335L295 1324M211 1335L124 1361M211 1335L230 1369M295 1324L329 1348M295 1324L230 1369M295 1324L257 1416M329 1348L230 1369M329 1348L257 1416M329 1348L333 1426M329 1348L412 1395M470 1339L548 1325M470 1339L412 1395M470 1339L512 1428M548 1325L636 1355M548 1325L512 1428M548 1325L637 1385M636 1355L668 1299M636 1355L637 1385M636 1355L666 1378M668 1299L731 1295M668 1299L666 1378M731 1295L666 1378M871 1351L919 1335M871 1351L784 1423M871 1351L808 1379M871 1351L885 1401M919 1335L885 1401M1032 1289L1064 1320M1032 1289L1049 1378M1064 1320L1049 1378M1189 1355L1252 1360M1189 1355L1193 1376M1189 1355L1222 1385M1252 1360L1313 1312M1252 1360L1193 1376M1252 1360L1222 1385M1252 1360L1287 1368M1313 1312L1410 1285M1313 1312L1287 1368M1410 1285L1467 1290M1467 1290L1531 1331M1531 1331L1617 1320M1531 1331L1476 1404M1531 1331L1580 1430M1617 1320L1726 1323M1617 1320L1628 1399M1726 1323L1817 1315M1726 1323L1720 1412M1726 1323L1795 1364M1817 1315L1849 1339M1817 1315L1795 1364M1817 1315L1868 1383M1817 1315L1934 1368M1849 1339L1795 1364M1849 1339L1868 1383M1849 1339L1934 1368M1986 1326L2046 1337M1986 1326L2090 1355M1986 1326L1934 1368M2046 1337L2090 1355M2046 1337L2053 1431M2046 1337L2102 1418M2090 1355L2053 1431M2090 1355L2102 1418M2237 1343L2318 1334M2237 1343L2209 1429M2318 1334L2345 1341M2318 1334L2316 1435M2318 1334L2371 1381M2345 1341L2421 1299M2345 1341L2371 1381M2421 1299L2513 1334M2421 1299L2371 1381M2513 1334L2567 1408M2513 1334L2432 1390M2513 1334L2540 1409M-47 1334L7 1408M7 1408L-20 1409M2567 1408L2540 1409M230 1369L257 1416M257 1416L333 1426M333 1426L412 1395M637 1385L666 1378M784 1423L808 1379M808 1379L885 1401M1000 1432L1049 1378M1193 1376L1222 1385M1193 1376L1287 1368M1222 1385L1287 1368M1429 1409L1476 1404M1476 1404L1580 1430M1580 1430L1628 1399M1628 1399L1720 1412M1720 1412L1795 1364M1795 1364L1868 1383M1868 1383L1934 1368M2053 1431L2102 1418M2102 1418L2209 1429M2316 1435L2371 1381M2371 1381L2432 1390M2432 1390L2540 1409"/></svg>