<svg xmlns="http://www.w3.org/2000/svg" width="2560" height="1440" fill="#fff"><circle cx="14" cy="44" r="6"/><circle cx="155" cy="45" r="5"/><circle cx="192" cy="38" r="5"/><circle cx="310" cy="65" r="5"/><circle cx="388" cy="63" r="5"/><circle cx="459" cy="35" r="4"/><circle cx="554" cy="26" r="4"/><circle cx="611" cy="8" r="5"/><circle cx="712" cy="51" r="5"/><circle cx="751" cy="10" r="4"/><circle cx="826" cy="51" r="5"/><circle cx="953" cy="52" r="5"/><circle cx="1039" cy="71" r="6"/><circle cx="1098" cy="66" r="4"/><circle cx="1162" cy="18" r="6"/><circle cx="1228" cy="55" r="4"/><circle cx="1290" cy="0" r="5"/><circle cx="1290" cy="1440" r="5"/><circle cx="1385" cy="22" r="4"/><circle cx="1457" cy="26" r="6"/><circle cx="1525" cy="26" r="5"/><circle cx="1657" cy="63" r="6"/><circle cx="1758" cy="7" r="6"/><circle cx="1775" cy="38" r="4"/><circle cx="1864" cy="66" r="5"/><circle cx="1990" cy="14" r="5"/><circle cx="2051" cy="71" r="6"/><circle cx="2136" cy="1" r="5"/><circle cx="2136" cy="1441" r="5"/><circle cx="2213" cy="18" r="6"/><circle cx="2275" cy="52" r="4"/><circle cx="2381" cy="32" r="5"/><circle cx="2433" cy="76" r="4"/><circle cx="2532" cy="16" r="4"/><circle cx="38" cy="93" r="6"/><circle cx="118" cy="140" r="5"/><circle cx="171" cy="100" r="5"/><circle cx="310" cy="137" r="5"/><circle cx="400" cy="129" r="5"/><circle cx="470" cy="131" r="6"/><circle cx="515" cy="89" r="4"/><circle cx="588" cy="138" r="5"/><circle cx="717" cy="120" r="5"/><circle cx="727" cy="89" r="6"/><circle cx="858" cy="117" r="4"/><circle cx="946" cy="149" r="6"/><circle cx="990" cy="108" r="4"/><circle cx="1079" cy="82" r="5"/><circle cx="1193" cy="106" r="6"/><circle cx="1261" cy="139" r="6"/><circle cx="1356" cy="117" r="4"/><circle cx="1375" cy="108" r="6"/><circle cx="1506" cy="138" r="5"/><circle cx="1553" cy="90" r="5"/><circle cx="1645" cy="121" r="6"/><circle cx="1691" cy="157" r="6"/><circle cx="1773" cy="133" r="4"/><circle cx="1847" cy="130" r="5"/><circle cx="1998" cy="94" r="5"/><circle cx="2003" cy="131" r="5"/><circle cx="2092" cy="115" r="5"/><circle cx="2205" cy="103" r="5"/><circle cx="2302" cy="99" r="4"/><circle cx="2354" cy="148" r="6"/><circle cx="2437" cy="154" r="6"/><circle cx="2542" cy="81" r="4"/><circle cx="5" cy="236" r="6"/><circle cx="2565" cy="236" r="6"/><circle cx="116" cy="191" r="5"/><circle cx="161" cy="188" r="5"/><circle cx="297" cy="225" r="5"/><circle cx="396" cy="180" r="4"/><circle cx="403" cy="188" r="6"/><circle cx="509" cy="178" r="4"/><circle cx="629" cy="211" r="4"/><circle cx="641" cy="223" r="5"/><circle cx="767" cy="223" r="4"/><circle cx="871" cy="227" r="5"/><circle cx="881" cy="161" r="6"/><circle cx="968" cy="185" r="5"/><circle cx="1054" cy="165" r="4"/><circle cx="1146" cy="234" r="4"/><circle cx="1229" cy="164" r="5"/><circle cx="1325" cy="197" r="6"/><circle cx="1388" cy="182" r="4"/><circle cx="1454" cy="189" r="6"/><circle cx="1543" cy="201" r="5"/><circle cx="1647" cy="223" r="5"/><circle cx="1717" cy="188" r="5"/><circle cx="1763" cy="212" r="4"/><circle cx="1853" cy="161" r="5"/><circle cx="1952" cy="232" r="6"/><circle cx="2005" cy="204" r="5"/><circle cx="2129" cy="185" r="5"/><circle cx="2160" cy="184" r="6"/><circle cx="2286" cy="220" r="4"/><circle cx="2347" cy="197" r="4"/><circle cx="2453" cy="195" r="6"/><circle cx="2508" cy="170" r="5"/><circle cx="16" cy="300" r="6"/><circle cx="141" cy="260" r="6"/><circle cx="201" cy="314" r="4"/><circle cx="299" cy="268" r="6"/><circle cx="347" cy="276" r="5"/><circle cx="404" cy="265" r="6"/><circle cx="506" cy="267" r="5"/><circle cx="586" cy="260" r="5"/><circle cx="676" cy="254" r="4"/><circle cx="798" cy="285" r="4"/><circle cx="836" cy="320" r="4"/><circle cx="936" cy="274" r="5"/><circle cx="967" cy="272" r="6"/><circle cx="1081" cy="284" r="4"/><circle cx="1141" cy="268" r="6"/><circle cx="1214" cy="242" r="5"/><circle cx="1348" cy="250" r="4"/><circle cx="1418" cy="290" r="5"/><circle cx="1462" cy="294" r="6"/><circle cx="1523" cy="273" r="6"/><circle cx="1667" cy="297" r="5"/><circle cx="1744" cy="285" r="5"/><circle cx="1782" cy="271" r="5"/><circle cx="1911" cy="292" r="5"/><circle cx="1965" cy="266" r="6"/><circle cx="2066" cy="240" r="5"/><circle cx="2102" cy="264" r="4"/><circle cx="2165" cy="319" r="6"/><circle cx="2260" cy="292" r="5"/><circle cx="2357" cy="289" r="5"/><circle cx="2444" cy="255" r="4"/><circle cx="2509" cy="288" r="6"/><circle cx="46" cy="361" r="6"/><circle cx="138" cy="321" r="5"/><circle cx="181" cy="325" r="5"/><circle cx="286" cy="322" r="5"/><circle cx="394" cy="321" r="6"/><circle cx="444" cy="394" r="6"/><circle cx="507" cy="399" r="5"/><circle cx="574" cy="390" r="6"/><circle cx="715" cy="394" r="4"/><circle cx="751" cy="371" r="4"/><circle cx="815" cy="354" r="5"/><circle cx="948" cy="351" r="5"/><circle cx="1005" cy="350" r="5"/><circle cx="1067" cy="346" r="6"/><circle cx="1143" cy="382" r="6"/><circle cx="1257" cy="347" r="4"/><circle cx="1281" cy="392" r="5"/><circle cx="1422" cy="328" r="4"/><circle cx="1501" cy="357" r="5"/><circle cx="1544" cy="347" r="6"/><circle cx="1612" cy="351" r="5"/><circle cx="1740" cy="398" r="6"/><circle cx="1815" cy="334" r="6"/><circle cx="1881" cy="367" r="5"/><circle cx="1971" cy="379" r="4"/><circle cx="2031" cy="398" r="5"/><circle cx="2154" cy="321" r="6"/><circle cx="2168" cy="343" r="5"/><circle cx="2284" cy="359" r="4"/><circle cx="2321" cy="392" r="4"/><circle cx="2473" cy="324" r="5"/><circle cx="2516" cy="329" r="5"/><circle cx="40" cy="428" r="4"/><circle cx="119" cy="434" r="5"/><circle cx="181" cy="466" r="5"/><circle cx="247" cy="453" r="6"/><circle cx="388" cy="441" r="4"/><circle cx="441" cy="428" r="5"/><circle cx="550" cy="405" r="5"/><circle cx="581" cy="439" r="5"/><circle cx="703" cy="458" r="4"/><circle cx="744" cy="472" r="4"/><circle cx="845" cy="452" r="6"/><circle cx="933" cy="433" r="5"/><circle cx="974" cy="416" r="5"/><circle cx="1045" cy="436" r="4"/><circle cx="1156" cy="422" r="4"/><circle cx="1235" cy="457" r="5"/><circle cx="1289" cy="406" r="6"/><circle cx="1377" cy="429" r="5"/><circle cx="1489" cy="451" r="5"/><circle cx="1540" cy="413" r="5"/><circle cx="1605" cy="449" r="6"/><circle cx="1727" cy="440" r="4"/><circle cx="1780" cy="441" r="5"/><circle cx="1843" cy="437" r="4"/><circle cx="1993" cy="468" r="4"/><circle cx="2032" cy="424" r="6"/><circle cx="2086" cy="479" r="5"/><circle cx="2211" cy="412" r="5"/><circle cx="2290" cy="445" r="5"/><circle cx="2343" cy="423" r="5"/><circle cx="2458" cy="459" r="5"/><circle cx="2524" cy="457" r="4"/><circle cx="73" cy="547" r="6"/><circle cx="132" cy="494" r="6"/><circle cx="168" cy="536" r="6"/><circle cx="317" cy="496" r="5"/><circle cx="390" cy="541" r="5"/><circle cx="463" cy="498" r="6"/><circle cx="487" cy="489" r="5"/><circle cx="632" cy="497" r="5"/><circle cx="709" cy="556" r="5"/><circle cx="774" cy="540" r="5"/><circle cx="874" cy="503" r="5"/><circle cx="909" cy="548" r="5"/><circle cx="1001" cy="527" r="6"/><circle cx="1115" cy="552" r="4"/><circle cx="1144" cy="546" r="4"/><circle cx="1241" cy="547" r="5"/><circle cx="1345" cy="499" r="5"/><circle cx="1405" cy="528" r="6"/><circle cx="1482" cy="516" r="6"/><circle cx="1573" cy="547" r="4"/><circle cx="1648" cy="520" r="5"/><circle cx="1755" cy="532" r="5"/><circle cx="1819" cy="544" r="4"/><circle cx="1869" cy="510" r="6"/><circle cx="1943" cy="540" r="5"/><circle cx="2028" cy="501" r="5"/><circle cx="2136" cy="526" r="4"/><circle cx="2182" cy="499" r="4"/><circle cx="2245" cy="551" r="5"/><circle cx="2322" cy="480" r="5"/><circle cx="2435" cy="546" r="5"/><circle cx="2535" cy="482" r="5"/><circle cx="57" cy="577" r="4"/><circle cx="85" cy="613" r="5"/><circle cx="192" cy="574" r="4"/><circle cx="281" cy="597" r="4"/><circle cx="341" cy="569" r="5"/><circle cx="465" cy="579" r="5"/><circle cx="519" cy="626" r="5"/><circle cx="581" cy="616" r="6"/><circle cx="657" cy="600" r="6"/><circle cx="767" cy="569" r="6"/><circle cx="853" cy="569" r="5"/><circle cx="927" cy="594" r="4"/><circle cx="1038" cy="615" r="5"/><circle cx="1043" cy="565" r="4"/><circle cx="1135" cy="616" r="5"/><circle cx="1220" cy="621" r="5"/><circle cx="1346" cy="625" r="6"/><circle cx="1420" cy="601" r="6"/><circle cx="1459" cy="573" r="5"/><circle cx="1571" cy="603" r="4"/><circle cx="1672" cy="590" r="6"/><circle cx="1687" cy="611" r="4"/><circle cx="1770" cy="639" r="4"/><circle cx="1873" cy="588" r="5"/><circle cx="1920" cy="618" r="5"/><circle cx="2027" cy="574" r="4"/><circle cx="2085" cy="632" r="5"/><circle cx="2238" cy="599" r="6"/><circle cx="2280" cy="636" r="4"/><circle cx="2331" cy="584" r="6"/><circle cx="2466" cy="573" r="5"/><circle cx="2520" cy="581" r="5"/><circle cx="64" cy="680" r="5"/><circle cx="119" cy="716" r="5"/><circle cx="168" cy="656" r="4"/><circle cx="290" cy="659" r="6"/><circle cx="398" cy="697" r="4"/><circle cx="456" cy="646" r="6"/><circle cx="542" cy="668" r="4"/><circle cx="626" cy="659" r="6"/><circle cx="675" cy="643" r="5"/><circle cx="783" cy="650" r="5"/><circle cx="873" cy="708" r="6"/><circle cx="942" cy="656" r="6"/><circle cx="1032" cy="705" r="4"/><circle cx="1047" cy="705" r="5"/><circle cx="1159" cy="661" r="5"/><circle cx="1238" cy="692" r="5"/><circle cx="1335" cy="695" r="5"/><circle cx="1433" cy="688" r="6"/><circle cx="1470" cy="683" r="6"/><circle cx="1554" cy="714" r="5"/><circle cx="1662" cy="699" r="6"/><circle cx="1742" cy="716" r="5"/><circle cx="1768" cy="649" r="6"/><circle cx="1884" cy="649" r="4"/><circle cx="1932" cy="705" r="4"/><circle cx="2054" cy="718" r="5"/><circle cx="2133" cy="688" r="5"/><circle cx="2174" cy="672" r="5"/><circle cx="2271" cy="644" r="5"/><circle cx="2322" cy="661" r="5"/><circle cx="2445" cy="673" r="6"/><circle cx="2513" cy="697" r="5"/><circle cx="10" cy="755" r="5"/><circle cx="144" cy="777" r="4"/><circle cx="229" cy="776" r="6"/><circle cx="249" cy="799" r="4"/><circle cx="344" cy="755" r="5"/><circle cx="469" cy="751" r="4"/><circle cx="534" cy="748" r="5"/><circle cx="630" cy="744" r="5"/><circle cx="679" cy="735" r="4"/><circle cx="798" cy="765" r="6"/><circle cx="832" cy="779" r="6"/><circle cx="891" cy="741" r="6"/><circle cx="1012" cy="727" r="4"/><circle cx="1078" cy="788" r="6"/><circle cx="1196" cy="755" r="4"/><circle cx="1236" cy="776" r="5"/><circle cx="1344" cy="729" r="6"/><circle cx="1436" cy="791" r="5"/><circle cx="1464" cy="741" r="5"/><circle cx="1550" cy="773" r="5"/><circle cx="1638" cy="762" r="5"/><circle cx="1718" cy="786" r="5"/><circle cx="1829" cy="739" r="4"/><circle cx="1886" cy="752" r="5"/><circle cx="1997" cy="797" r="5"/><circle cx="2001" cy="790" r="4"/><circle cx="2129" cy="788" r="6"/><circle cx="2187" cy="792" r="6"/><circle cx="2280" cy="756" r="4"/><circle cx="2373" cy="764" r="6"/><circle cx="2414" cy="797" r="4"/><circle cx="2546" cy="746" r="5"/><circle cx="6" cy="839" r="6"/><circle cx="139" cy="812" r="6"/><circle cx="195" cy="848" r="4"/><circle cx="282" cy="801" r="4"/><circle cx="384" cy="814" r="5"/><circle cx="471" cy="810" r="5"/><circle cx="489" cy="836" r="5"/><circle cx="597" cy="835" r="4"/><circle cx="656" cy="840" r="5"/><circle cx="768" cy="823" r="5"/><circle cx="862" cy="862" r="5"/><circle cx="884" cy="824" r="6"/><circle cx="1026" cy="855" r="5"/><circle cx="1045" cy="832" r="5"/><circle cx="1194" cy="844" r="5"/><circle cx="1206" cy="821" r="4"/><circle cx="1333" cy="858" r="5"/><circle cx="1422" cy="800" r="5"/><circle cx="1504" cy="804" r="4"/><circle cx="1542" cy="874" r="6"/><circle cx="1629" cy="826" r="4"/><circle cx="1710" cy="875" r="6"/><circle cx="1835" cy="879" r="4"/><circle cx="1910" cy="814" r="6"/><circle cx="1976" cy="830" r="5"/><circle cx="2020" cy="840" r="5"/><circle cx="2159" cy="821" r="5"/><circle cx="2228" cy="851" r="6"/><circle cx="2262" cy="808" r="5"/><circle cx="2378" cy="841" r="5"/><circle cx="2465" cy="856" r="4"/><circle cx="2555" cy="826" r="5"/><circle cx="31" cy="890" r="5"/><circle cx="106" cy="883" r="5"/><circle cx="180" cy="895" r="6"/><circle cx="245" cy="946" r="5"/><circle cx="353" cy="908" r="6"/><circle cx="431" cy="891" r="5"/><circle cx="559" cy="895" r="6"/><circle cx="598" cy="901" r="5"/><circle cx="673" cy="913" r="6"/><circle cx="786" cy="907" r="6"/><circle cx="863" cy="956" r="4"/><circle cx="933" cy="953" r="5"/><circle cx="971" cy="911" r="4"/><circle cx="1041" cy="912" r="5"/><circle cx="1166" cy="894" r="4"/><circle cx="1244" cy="890" r="4"/><circle cx="1288" cy="929" r="5"/><circle cx="1435" cy="909" r="5"/><circle cx="1447" cy="942" r="4"/><circle cx="1563" cy="922" r="6"/><circle cx="1677" cy="907" r="5"/><circle cx="1724" cy="945" r="5"/><circle cx="1790" cy="899" r="5"/><circle cx="1848" cy="899" r="4"/><circle cx="1942" cy="920" r="6"/><circle cx="2041" cy="938" r="5"/><circle cx="2135" cy="916" r="5"/><circle cx="2219" cy="939" r="5"/><circle cx="2292" cy="917" r="4"/><circle cx="2381" cy="930" r="6"/><circle cx="2438" cy="917" r="6"/><circle cx="2547" cy="906" r="4"/><circle cx="12" cy="971" r="5"/><circle cx="148" cy="1034" r="5"/><circle cx="205" cy="963" r="5"/><circle cx="275" cy="968" r="6"/><circle cx="356" cy="1013" r="4"/><circle cx="446" cy="984" r="5"/><circle cx="515" cy="978" r="5"/><circle cx="578" cy="1030" r="6"/><circle cx="669" cy="1027" r="5"/><circle cx="729" cy="995" r="5"/><circle cx="805" cy="1011" r="4"/><circle cx="950" cy="1025" r="4"/><circle cx="1035" cy="1031" r="5"/><circle cx="1079" cy="1002" r="4"/><circle cx="1178" cy="1034" r="5"/><circle cx="1261" cy="1025" r="5"/><circle cx="1311" cy="994" r="6"/><circle cx="1422" cy="1012" r="5"/><circle cx="1473" cy="970" r="4"/><circle cx="1526" cy="994" r="5"/><circle cx="1605" cy="962" r="5"/><circle cx="1686" cy="999" r="5"/><circle cx="1793" cy="1034" r="4"/><circle cx="1876" cy="998" r="6"/><circle cx="1949" cy="1007" r="4"/><circle cx="2079" cy="1017" r="5"/><circle cx="2152" cy="1017" r="5"/><circle cx="2223" cy="973" r="5"/><circle cx="2288" cy="1037" r="6"/><circle cx="2378" cy="998" r="4"/><circle cx="2414" cy="1011" r="5"/><circle cx="2533" cy="964" r="4"/><circle cx="78" cy="1088" r="6"/><circle cx="82" cy="1111" r="5"/><circle cx="167" cy="1081" r="4"/><circle cx="272" cy="1076" r="4"/><circle cx="367" cy="1096" r="5"/><circle cx="478" cy="1110" r="5"/><circle cx="537" cy="1064" r="4"/><circle cx="561" cy="1093" r="4"/><circle cx="642" cy="1098" r="5"/><circle cx="761" cy="1084" r="4"/><circle cx="871" cy="1101" r="6"/><circle cx="889" cy="1046" r="4"/><circle cx="978" cy="1097" r="5"/><circle cx="1105" cy="1057" r="6"/><circle cx="1195" cy="1114" r="5"/><circle cx="1259" cy="1044" r="6"/><circle cx="1300" cy="1053" r="6"/><circle cx="1422" cy="1087" r="5"/><circle cx="1513" cy="1049" r="5"/><circle cx="1593" cy="1093" r="5"/><circle cx="1670" cy="1111" r="4"/><circle cx="1685" cy="1110" r="5"/><circle cx="1805" cy="1108" r="6"/><circle cx="1913" cy="1068" r="6"/><circle cx="1951" cy="1081" r="4"/><circle cx="2048" cy="1086" r="6"/><circle cx="2104" cy="1114" r="6"/><circle cx="2175" cy="1115" r="5"/><circle cx="2291" cy="1054" r="5"/><circle cx="2360" cy="1050" r="5"/><circle cx="2465" cy="1066" r="6"/><circle cx="2497" cy="1111" r="5"/><circle cx="61" cy="1164" r="6"/><circle cx="95" cy="1190" r="4"/><circle cx="229" cy="1149" r="5"/><circle cx="242" cy="1161" r="5"/><circle cx="333" cy="1141" r="6"/><circle cx="450" cy="1131" r="6"/><circle cx="519" cy="1167" r="6"/><circle cx="568" cy="1160" r="6"/><circle cx="660" cy="1128" r="5"/><circle cx="734" cy="1181" r="5"/><circle cx="868" cy="1185" r="5"/><circle cx="916" cy="1143" r="6"/><circle cx="986" cy="1137" r="5"/><circle cx="1109" cy="1198" r="5"/><circle cx="1159" cy="1149" r="6"/><circle cx="1252" cy="1127" r="5"/><circle cx="1339" cy="1122" r="4"/><circle cx="1430" cy="1164" r="5"/><circle cx="1498" cy="1195" r="5"/><circle cx="1589" cy="1183" r="5"/><circle cx="1608" cy="1179" r="5"/><circle cx="1758" cy="1187" r="5"/><circle cx="1792" cy="1186" r="4"/><circle cx="1847" cy="1173" r="6"/><circle cx="1981" cy="1124" r="4"/><circle cx="2048" cy="1142" r="4"/><circle cx="2155" cy="1191" r="5"/><circle cx="2186" cy="1127" r="5"/><circle cx="2293" cy="1144" r="4"/><circle cx="2360" cy="1189" r="6"/><circle cx="2460" cy="1195" r="5"/><circle cx="2485" cy="1140" r="6"/><circle cx="41" cy="1213" r="4"/><circle cx="91" cy="1251" r="4"/><circle cx="182" cy="1222" r="4"/><circle cx="311" cy="1243" r="5"/><circle cx="339" cy="1268" r="6"/><circle cx="447" cy="1262" r="5"/><circle cx="555" cy="1209" r="5"/><circle cx="596" cy="1236" r="4"/><circle cx="711" cy="1235" r="4"/><circle cx="762" cy="1207" r="6"/><circle cx="804" cy="1252" r="5"/><circle cx="953" cy="1239" r="5"/><circle cx="1028" cy="1279" r="4"/><circle cx="1046" cy="1242" r="5"/><circle cx="1143" cy="1272" r="4"/><circle cx="1271" cy="1225" r="6"/><circle cx="1335" cy="1259" r="6"/><circle cx="1365" cy="1257" r="6"/><circle cx="1491" cy="1256" r="6"/><circle cx="1566" cy="1249" r="4"/><circle cx="1673" cy="1242" r="5"/><circle cx="1693" cy="1236" r="5"/><circle cx="1764" cy="1276" r="6"/><circle cx="1853" cy="1225" r="4"/><circle cx="1945" cy="1206" r="6"/><circle cx="2041" cy="1247" r="5"/><circle cx="2086" cy="1243" r="5"/><circle cx="2234" cy="1207" r="4"/><circle cx="2300" cy="1246" r="6"/><circle cx="2327" cy="1206" r="6"/><circle cx="2441" cy="1231" r="4"/><circle cx="2536" cy="1279" r="5"/><circle cx="45" cy="1347" r="5"/><circle cx="99" cy="1303" r="5"/><circle cx="175" cy="1335" r="6"/><circle cx="296" cy="1328" r="6"/><circle cx="367" cy="1342" r="4"/><circle cx="448" cy="1313" r="5"/><circle cx="549" cy="1359" r="5"/><circle cx="610" cy="1318" r="5"/><circle cx="686" cy="1353" r="5"/><circle cx="776" cy="1290" r="4"/><circle cx="822" cy="1299" r="6"/><circle cx="959" cy="1318" r="6"/><circle cx="1004" cy="1325" r="4"/><circle cx="1094" cy="1282" r="6"/><circle cx="1135" cy="1333" r="5"/><circle cx="1201" cy="1325" r="6"/><circle cx="1333" cy="1315" r="4"/><circle cx="1396" cy="1288" r="5"/><circle cx="1511" cy="1326" r="6"/><circle cx="1589" cy="1350" r="5"/><circle cx="1678" cy="1319" r="6"/><circle cx="1710" cy="1337" r="6"/><circle cx="1788" cy="1336" r="5"/><circle cx="1907" cy="1321" r="6"/><circle cx="1990" cy="1360" r="4"/><circle cx="2040" cy="1300" r="5"/><circle cx="2134" cy="1335" r="5"/><circle cx="2194" cy="1331" r="6"/><circle cx="2285" cy="1313" r="6"/><circle cx="2367" cy="1329" r="6"/><circle cx="2436" cy="1316" r="6"/><circle cx="2504" cy="1345" r="5"/><circle cx="8" cy="1431" r="6"/><circle cx="112" cy="1410" r="5"/><circle cx="195" cy="1420" r="6"/><circle cx="318" cy="1415" r="5"/><circle cx="371" cy="1382" r="5"/><circle cx="400" cy="1376" r="5"/><circle cx="538" cy="1368" r="6"/><circle cx="595" cy="1436" r="5"/><circle cx="595" cy="-4" r="5"/><circle cx="672" cy="1375" r="5"/><circle cx="726" cy="1373" r="6"/><circle cx="870" cy="1436" r="6"/><circle cx="870" cy="-4" r="6"/><circle cx="887" cy="1400" r="6"/><circle cx="982" cy="1383" r="5"/><circle cx="1078" cy="1410" r="5"/><circle cx="1160" cy="1416" r="5"/><circle cx="1229" cy="1406" r="5"/><circle cx="1296" cy="1408" r="5"/><circle cx="1363" cy="1373" r="5"/><circle cx="1446" cy="1402" r="5"/><circle cx="1583" cy="1403" r="5"/><circle cx="1655" cy="1433" r="6"/><circle cx="1734" cy="1383" r="5"/><circle cx="1784" cy="1401" r="6"/><circle cx="1856" cy="1408" r="4"/><circle cx="1932" cy="1406" r="4"/><circle cx="2065" cy="1407" r="4"/><circle cx="2152" cy="1383" r="5"/><circle cx="2182" cy="1396" r="4"/><circle cx="2284" cy="1389" r="5"/><circle cx="2379" cy="1429" r="4"/><circle cx="2433" cy="1390" r="4"/><circle cx="2547" cy="1384" r="4"/><path stroke="#fff" d="M14 44L-28 16M14 44L38 93M14 44L-18 81M14 44L8 -9M14 44L-13 -56M2574 44L2532 16M2574 44L2542 81M2574 44L2547 -56M14 1484L8 1431M14 1484L-13 1384M2574 1484L2547 1384M155 45L192 38M155 45L118 140M155 45L171 100M155 45L112 -30M155 45L195 -20M155 1485L112 1410M155 1485L195 1420M192 38L310 65M192 38L171 100M192 38L112 -30M192 38L195 -20M192 1478L112 1410M192 1478L195 1420M310 65L388 63M310 65L310 137M310 65L318 -25M310 1505L318 1415M388 63L459 35M388 63L400 129M459 35L554 26M459 35L515 89M554 26L611 8M554 26L515 89M554 26L595 -4M554 1466L595 1436M611 8L712 51M611 8L538 -72M611 8L595 -4M611 8L672 -65M611 1448L538 1368M611 1448L595 1436M611 1448L672 1375M712 51L751 10M712 51L717 120M712 51L727 89M751 10L826 51M751 10L727 89M751 10L726 -67M751 1450L726 1373M826 51L727 89M826 51L858 117M826 51L870 -4M826 51L887 -40M826 1491L870 1436M826 1491L887 1400M953 52L1039 71M953 52L946 149M953 52L990 108M953 52L870 -4M953 1492L870 1436M1039 71L1098 66M1039 71L990 108M1039 71L1079 82M1039 71L1054 165M1098 66L1162 18M1098 66L1079 82M1098 66L1193 106M1098 66L1078 -30M1098 1506L1078 1410M1162 18L1228 55M1162 18L1193 106M1162 18L1160 -24M1162 18L1229 -34M1162 1458L1160 1416M1162 1458L1229 1406M1228 55L1290 0M1228 55L1193 106M1228 55L1261 139M1290 0L1385 22M1290 0L1229 -34M1290 0L1296 -32M1290 0L1363 -67M1290 1440L1229 1406M1290 1440L1296 1408M1290 1440L1363 1373M1385 22L1457 26M1385 22L1375 108M1385 22L1446 -38M1385 1462L1446 1402M1457 26L1525 26M1457 26L1446 -38M1457 1466L1446 1402M1525 26L1506 138M1525 26L1553 90M1525 26L1446 -38M1525 26L1583 -37M1525 1466L1446 1402M1525 1466L1583 1403M1657 63L1758 7M1657 63L1553 90M1657 63L1645 121M1657 63L1691 157M1657 63L1655 -7M1657 1503L1655 1433M1758 7L1775 38M1758 7L1655 -7M1758 7L1734 -57M1758 7L1784 -39M1758 1447L1655 1433M1758 1447L1734 1383M1758 1447L1784 1401M1775 38L1864 66M1775 38L1784 -39M1775 1478L1784 1401M1864 66L1847 130M1864 66L1853 161M1864 66L1856 -32M1864 1506L1856 1408M1990 14L2051 71M1990 14L1998 94M1990 14L1990 -80M1990 14L1932 -34M1990 14L2065 -33M1990 1454L1990 1360M1990 1454L1932 1406M1990 1454L2065 1407M2051 71L2136 1M2051 71L1998 94M2051 71L2003 131M2051 71L2092 115M2136 1L2213 18M2136 1L2065 -33M2136 1L2152 -57M2136 1L2182 -44M2136 1441L2065 1407M2136 1441L2152 1383M2136 1441L2182 1396M2213 18L2275 52M2213 18L2205 103M2213 18L2152 -57M2213 18L2182 -44M2213 1458L2152 1383M2213 1458L2182 1396M2275 52L2205 103M2275 52L2302 99M2275 52L2284 -51M2275 1492L2284 1389M2381 32L2433 76M2381 32L2302 99M2381 32L2379 -11M2381 32L2433 -50M2381 1472L2379 1429M2381 1472L2433 1390M2433 76L2437 154M2433 76L2379 -11M2433 1516L2379 1429M2532 16L2598 93M2532 16L2542 81M2532 16L2568 -9M2532 16L2547 -56M-28 16L38 93M-28 16L8 -9M-28 1456L8 1431M2532 1456L2568 1431M2532 1456L2547 1384M38 93L118 140M38 93L-18 81M38 93L8 -9M2598 93L2542 81M38 1533L8 1431M118 140L171 100M118 140L116 191M118 140L161 188M171 100L116 191M171 100L161 188M310 137L400 129M310 137L297 225M310 137L396 180M310 137L403 188M400 129L470 131M400 129L396 180M400 129L403 188M470 131L515 89M470 131L396 180M470 131L403 188M470 131L509 178M515 89L588 138M515 89L509 178M588 138L509 178M588 138L629 211M588 138L641 223M717 120L727 89M717 120L629 211M717 120L641 223M717 120L767 223M858 117L946 149M858 117L881 161M858 117L870 -4M858 1557L870 1436M946 149L990 108M946 149L881 161M946 149L968 185M990 108L968 185M990 108L1054 165M1079 82L1054 165M1079 82L1078 -30M1079 1522L1078 1410M1193 106L1261 139M1193 106L1229 164M1261 139L1356 117M1261 139L1229 164M1261 139L1325 197M1356 117L1375 108M1356 117L1325 197M1356 117L1388 182M1375 108L1325 197M1375 108L1388 182M1506 138L1553 90M1506 138L1454 189M1506 138L1543 201M1553 90L1645 121M1553 90L1543 201M1645 121L1691 157M1645 121L1647 223M1645 121L1717 188M1691 157L1773 133M1691 157L1647 223M1691 157L1717 188M1773 133L1847 130M1773 133L1717 188M1773 133L1763 212M1773 133L1853 161M1847 130L1853 161M1998 94L2003 131M1998 94L2092 115M1998 94L2005 204M2003 131L2092 115M2003 131L1952 232M2003 131L2005 204M2092 115L2129 185M2092 115L2160 184M2205 103L2302 99M2205 103L2129 185M2205 103L2160 184M2302 99L2354 148M2302 99L2347 197M2354 148L2437 154M2354 148L2286 220M2354 148L2347 197M2354 148L2453 195M2437 154L2453 195M2437 154L2508 170M2437 154L2444 255M2542 81L2508 170M5 236L-52 170M5 236L16 300M5 236L-51 288M5 236L-44 329M2565 236L2508 170M2565 236L2509 288M2565 236L2516 329M116 191L161 188M116 191L141 260M161 188L141 260M297 225L299 268M297 225L347 276M297 225L286 322M396 180L403 188M396 180L404 265M403 188L404 265M509 178L506 267M629 211L641 223M629 211L586 260M629 211L676 254M641 223L586 260M641 223L676 254M767 223L676 254M767 223L798 285M871 227L881 161M871 227L798 285M871 227L836 320M871 227L936 274M871 227L967 272M881 161L968 185M968 185L936 274M968 185L967 272M1146 234L1229 164M1146 234L1081 284M1146 234L1141 268M1146 234L1214 242M1229 164L1214 242M1325 197L1388 182M1325 197L1348 250M1388 182L1454 189M1388 182L1348 250M1454 189L1543 201M1454 189L1523 273M1543 201L1647 223M1543 201L1523 273M1647 223L1717 188M1647 223L1667 297M1717 188L1763 212M1763 212L1853 161M1763 212L1744 285M1763 212L1782 271M1952 232L2005 204M1952 232L1911 292M1952 232L1965 266M2005 204L1965 266M2005 204L2066 240M2129 185L2160 184M2129 185L2066 240M2129 185L2102 264M2160 184L2066 240M2160 184L2102 264M2286 220L2347 197M2286 220L2260 292M2286 220L2357 289M2347 197L2357 289M2453 195L2508 170M2453 195L2444 255M16 300L-51 288M16 300L46 361M16 300L-87 324M16 300L-44 329M2576 300L2509 288M2576 300L2473 324M2576 300L2516 329M141 260L201 314M141 260L138 321M141 260L181 325M201 314L138 321M201 314L181 325M201 314L286 322M299 268L347 276M299 268L404 265M299 268L286 322M299 268L394 321M347 276L404 265M347 276L286 322M347 276L394 321M404 265L394 321M506 267L586 260M586 260L676 254M586 260L574 390M798 285L836 320M798 285L751 371M798 285L815 354M836 320L815 354M936 274L967 272M936 274L948 351M936 274L1005 350M967 272L948 351M967 272L1005 350M1081 284L1141 268M1081 284L1067 346M1141 268L1214 242M1141 268L1067 346M1141 268L1143 382M1214 242L1257 347M1348 250L1418 290M1418 290L1462 294M1418 290L1422 328M1462 294L1523 273M1462 294L1422 328M1462 294L1501 357M1462 294L1544 347M1523 273L1501 357M1523 273L1544 347M1667 297L1744 285M1667 297L1782 271M1667 297L1612 351M1744 285L1782 271M1744 285L1740 398M1744 285L1815 334M1782 271L1815 334M1911 292L1965 266M1911 292L1815 334M1911 292L1881 367M1911 292L1971 379M1965 266L2066 240M2066 240L2102 264M2102 264L2165 319M2102 264L2154 321M2165 319L2260 292M2165 319L2154 321M2165 319L2168 343M2165 319L2211 412M2260 292L2357 289M2260 292L2154 321M2260 292L2284 359M2357 289L2444 255M2444 255L2509 288M2444 255L2473 324M2509 288L2473 324M2509 288L2516 329M46 361L138 321M46 361L-44 329M46 361L40 428M46 361L119 434M2606 361L2516 329M138 321L181 325M286 322L394 321M394 321L444 394M444 394L507 399M444 394L388 441M444 394L441 428M444 394L463 498M507 399L574 390M507 399L441 428M507 399L550 405M507 399L581 439M574 390L550 405M574 390L581 439M574 390L632 497M715 394L751 371M715 394L815 354M715 394L703 458M715 394L744 472M751 371L815 354M815 354L845 452M948 351L1005 350M948 351L933 433M948 351L974 416M1005 350L1067 346M1005 350L974 416M1067 346L1143 382M1067 346L1045 436M1143 382L1045 436M1143 382L1156 422M1143 382L1235 457M1257 347L1281 392M1257 347L1289 406M1281 392L1235 457M1281 392L1289 406M1281 392L1377 429M1422 328L1501 357M1501 357L1544 347M1501 357L1540 413M1544 347L1612 351M1544 347L1540 413M1612 351L1540 413M1612 351L1605 449M1740 398L1815 334M1740 398L1727 440M1740 398L1780 441M1740 398L1843 437M1815 334L1881 367M1881 367L1971 379M1881 367L1843 437M1971 379L2031 398M1971 379L1993 468M1971 379L2032 424M2031 398L1993 468M2031 398L2032 424M2031 398L2086 479M2154 321L2168 343M2154 321L2211 412M2168 343L2211 412M2284 359L2321 392M2284 359L2211 412M2284 359L2290 445M2284 359L2343 423M2321 392L2290 445M2321 392L2343 423M2321 392L2322 480M2473 324L2516 329M40 428L119 434M40 428L-36 457M40 428L-25 482M2600 428L2524 457M2600 428L2535 482M119 434L181 466M119 434L132 494M181 466L247 453M181 466L132 494M181 466L168 536M181 466L192 574M247 453L168 536M247 453L317 496M388 441L441 428M388 441L317 496M388 441L390 541M441 428L463 498M441 428L487 489M550 405L581 439M550 405L487 489M581 439L487 489M581 439L632 497M703 458L744 472M703 458L632 497M744 472L709 556M744 472L774 540M744 472L767 569M845 452L933 433M845 452L874 503M933 433L974 416M933 433L874 503M974 416L1045 436M1045 436L1156 422M1045 436L1001 527M1156 422L1235 457M1235 457L1289 406M1235 457L1241 547M1289 406L1377 429M1289 406L1345 499M1377 429L1489 451M1377 429L1345 499M1377 429L1405 528M1489 451L1540 413M1489 451L1605 449M1489 451L1482 516M1540 413L1605 449M1605 449L1573 547M1605 449L1648 520M1727 440L1780 441M1727 440L1755 532M1780 441L1843 437M1780 441L1755 532M1780 441L1869 510M1843 437L1869 510M1993 468L2032 424M1993 468L1943 540M1993 468L2028 501M2032 424L2086 479M2032 424L2028 501M2086 479L2028 501M2086 479L2136 526M2086 479L2182 499M2211 412L2290 445M2290 445L2343 423M2290 445L2322 480M2343 423L2458 459M2343 423L2322 480M2458 459L2524 457M2458 459L2435 546M2458 459L2535 482M2458 459L2466 573M2524 457L2535 482M73 547L132 494M73 547L168 536M73 547L57 577M73 547L85 613M73 547L-40 581M2633 547L2520 581M132 494L168 536M132 494L192 574M168 536L192 574M317 496L390 541M317 496L281 597M317 496L341 569M390 541L463 498M390 541L341 569M390 541L465 579M463 498L487 489M463 498L465 579M487 489L465 579M709 556L774 540M709 556L657 600M709 556L767 569M709 556L675 643M774 540L767 569M774 540L853 569M774 540L783 650M874 503L909 548M874 503L853 569M874 503L927 594M909 548L1001 527M909 548L853 569M909 548L927 594M1001 527L927 594M1001 527L1038 615M1001 527L1043 565M1115 552L1144 546M1115 552L1043 565M1115 552L1135 616M1144 546L1241 547M1144 546L1043 565M1144 546L1135 616M1241 547L1220 621M1345 499L1405 528M1405 528L1482 516M1405 528L1420 601M1405 528L1459 573M1482 516L1573 547M1482 516L1459 573M1573 547L1648 520M1573 547L1571 603M1648 520L1755 532M1648 520L1672 590M1648 520L1687 611M1755 532L1819 544M1755 532L1672 590M1819 544L1869 510M1819 544L1770 639M1819 544L1873 588M1869 510L1943 540M1869 510L1873 588M1943 540L2028 501M1943 540L1873 588M1943 540L1920 618M2028 501L2027 574M2136 526L2182 499M2182 499L2245 551M2245 551L2238 599M2245 551L2280 636M2245 551L2331 584M2245 551L2271 644M2435 546L2466 573M2435 546L2520 581M2435 546L2445 673M2535 482L2466 573M2535 482L2520 581M57 577L85 613M57 577L-40 581M57 577L64 680M2617 577L2520 581M85 613L64 680M85 613L119 716M85 613L168 656M192 574L281 597M192 574L168 656M281 597L341 569M281 597L290 659M341 569L290 659M465 579L519 626M465 579L456 646M519 626L581 616M519 626L456 646M519 626L542 668M581 616L657 600M581 616L542 668M581 616L626 659M581 616L675 643M657 600L626 659M657 600L675 643M767 569L853 569M767 569L783 650M853 569L927 594M927 594L942 656M1038 615L1043 565M1038 615L1135 616M1038 615L1032 705M1038 615L1047 705M1135 616L1220 621M1135 616L1159 661M1220 621L1346 625M1220 621L1159 661M1220 621L1238 692M1346 625L1420 601M1346 625L1335 695M1346 625L1433 688M1346 625L1344 729M1420 601L1459 573M1420 601L1433 688M1420 601L1470 683M1672 590L1687 611M1672 590L1662 699M1672 590L1768 649M1687 611L1770 639M1687 611L1662 699M1687 611L1768 649M1770 639L1742 716M1770 639L1768 649M1873 588L1920 618M1873 588L1884 649M1920 618L2027 574M1920 618L1884 649M1920 618L1932 705M2027 574L2085 632M2085 632L2054 718M2085 632L2133 688M2085 632L2174 672M2238 599L2280 636M2238 599L2331 584M2238 599L2174 672M2238 599L2271 644M2280 636L2331 584M2280 636L2271 644M2280 636L2322 661M2331 584L2271 644M2331 584L2322 661M2466 573L2520 581M2466 573L2445 673M64 680L119 716M64 680L10 755M64 680L-14 746M2624 680L2546 746M119 716L168 656M119 716L144 777M290 659L398 697M290 659L344 755M398 697L456 646M398 697L344 755M398 697L469 751M456 646L542 668M456 646L469 751M542 668L626 659M542 668L534 748M626 659L675 643M626 659L630 744M675 643L679 735M783 650L873 708M873 708L942 656M873 708L798 765M873 708L832 779M873 708L891 741M942 656L1032 705M942 656L891 741M942 656L1012 727M1032 705L1047 705M1032 705L1012 727M1032 705L1078 788M1047 705L1159 661M1047 705L1012 727M1047 705L1078 788M1159 661L1238 692M1159 661L1196 755M1238 692L1335 695M1238 692L1196 755M1238 692L1236 776M1335 695L1344 729M1433 688L1470 683M1433 688L1344 729M1433 688L1464 741M1470 683L1554 714M1470 683L1436 791M1470 683L1464 741M1554 714L1550 773M1554 714L1638 762M1662 699L1742 716M1662 699L1638 762M1662 699L1718 786M1742 716L1768 649M1742 716L1718 786M1742 716L1829 739M1768 649L1829 739M1884 649L1932 705M1884 649L1829 739M1884 649L1886 752M1932 705L1886 752M2054 718L2133 688M2054 718L1997 797M2054 718L2001 790M2054 718L2129 788M2133 688L2174 672M2133 688L2129 788M2271 644L2322 661M2322 661L2280 756M2445 673L2513 697M2445 673L2373 764M2513 697L2570 755M2513 697L2546 746M-47 697L10 755M10 755L-14 746M10 755L6 839M10 755L-5 826M2570 755L2546 746M2570 755L2555 826M144 777L229 776M144 777L139 812M144 777L106 883M229 776L249 799M229 776L139 812M229 776L195 848M229 776L282 801M249 799L344 755M249 799L195 848M249 799L282 801M344 755L282 801M344 755L384 814M469 751L534 748M469 751L471 810M469 751L489 836M534 748L630 744M534 748L471 810M534 748L489 836M630 744L679 735M630 744L597 835M630 744L656 840M798 765L832 779M798 765L891 741M798 765L768 823M798 765L884 824M832 779L891 741M832 779L768 823M832 779L884 824M891 741L884 824M1012 727L1078 788M1012 727L1045 832M1078 788L1026 855M1078 788L1045 832M1196 755L1236 776M1196 755L1194 844M1196 755L1206 821M1236 776L1194 844M1236 776L1206 821M1344 729L1436 791M1344 729L1422 800M1436 791L1464 741M1436 791L1422 800M1436 791L1504 804M1464 741L1422 800M1464 741L1504 804M1550 773L1638 762M1550 773L1504 804M1550 773L1542 874M1550 773L1629 826M1638 762L1718 786M1638 762L1629 826M1718 786L1629 826M1718 786L1710 875M1829 739L1886 752M1886 752L1910 814M1997 797L2001 790M1997 797L1910 814M1997 797L1976 830M1997 797L2020 840M2001 790L1910 814M2001 790L1976 830M2001 790L2020 840M2129 788L2187 792M2129 788L2159 821M2187 792L2280 756M2187 792L2159 821M2187 792L2228 851M2187 792L2262 808M2280 756L2373 764M2280 756L2262 808M2373 764L2414 797M2373 764L2262 808M2373 764L2378 841M2414 797L2378 841M2414 797L2465 856M2546 746L2566 839M2546 746L2555 826M-14 746L6 839M6 839L-5 826M6 839L31 890M6 839L-13 906M2566 839L2555 826M2566 839L2547 906M139 812L195 848M139 812L106 883M139 812L180 895M195 848L106 883M195 848L180 895M384 814L471 810M384 814L353 908M384 814L431 891M471 810L489 836M471 810L431 891M489 836L431 891M489 836L559 895M597 835L656 840M597 835L559 895M597 835L598 901M656 840L598 901M656 840L673 913M768 823L862 862M768 823L884 824M768 823L786 907M862 862L884 824M862 862L786 907M862 862L863 956M862 862L933 953M1026 855L1045 832M1026 855L971 911M1026 855L1041 912M1045 832L971 911M1045 832L1041 912M1194 844L1206 821M1194 844L1166 894M1194 844L1244 890M1206 821L1166 894M1206 821L1244 890M1333 858L1422 800M1333 858L1244 890M1333 858L1288 929M1333 858L1435 909M1422 800L1504 804M1504 804L1542 874M1542 874L1629 826M1542 874L1563 922M1542 874L1605 962M1629 826L1710 875M1710 875L1677 907M1710 875L1724 945M1710 875L1790 899M1835 879L1790 899M1835 879L1848 899M1910 814L1976 830M1976 830L2020 840M1976 830L1942 920M2020 840L2041 938M2159 821L2228 851M2159 821L2262 808M2159 821L2135 916M2228 851L2262 808M2228 851L2219 939M2228 851L2292 917M2378 841L2465 856M2378 841L2381 930M2378 841L2438 917M2465 856L2438 917M2555 826L2591 890M2555 826L2547 906M-5 826L31 890M31 890L106 883M31 890L-13 906M31 890L12 971M2591 890L2547 906M106 883L180 895M180 895L245 946M180 895L205 963M245 946L353 908M245 946L148 1034M245 946L205 963M245 946L275 968M353 908L431 891M353 908L275 968M353 908L356 1013M431 891L446 984M559 895L598 901M559 895L673 913M559 895L515 978M598 901L673 913M598 901L515 978M673 913L786 907M673 913L729 995M786 907L863 956M786 907L729 995M863 956L933 953M863 956L805 1011M863 956L889 1046M933 953L971 911M933 953L950 1025M971 911L1041 912M1041 912L1079 1002M1166 894L1244 890M1244 890L1288 929M1288 929L1311 994M1435 909L1447 942M1435 909L1422 1012M1435 909L1473 970M1447 942L1422 1012M1447 942L1473 970M1447 942L1526 994M1563 922L1677 907M1563 922L1526 994M1563 922L1605 962M1677 907L1724 945M1677 907L1605 962M1677 907L1686 999M1724 945L1790 899M1724 945L1686 999M1724 945L1793 1034M1790 899L1848 899M1848 899L1942 920M1848 899L1876 998M1942 920L2041 938M1942 920L1876 998M1942 920L1949 1007M2041 938L2135 916M2041 938L2079 1017M2135 916L2219 939M2219 939L2292 917M2219 939L2152 1017M2219 939L2223 973M2292 917L2381 930M2292 917L2223 973M2381 930L2438 917M2381 930L2378 998M2381 930L2414 1011M2438 917L2378 998M2438 917L2414 1011M2547 906L2572 971M2547 906L2533 964M-13 906L12 971M12 971L-27 964M2572 971L2533 964M148 1034L205 963M148 1034L78 1088M148 1034L82 1111M148 1034L167 1081M205 963L275 968M275 968L356 1013M275 968L272 1076M356 1013L446 984M356 1013L367 1096M446 984L515 978M515 978L578 1030M515 978L537 1064M578 1030L669 1027M578 1030L537 1064M578 1030L561 1093M578 1030L642 1098M669 1027L729 995M669 1027L642 1098M669 1027L660 1128M729 995L805 1011M729 995L761 1084M805 1011L761 1084M805 1011L889 1046M950 1025L1035 1031M950 1025L889 1046M950 1025L978 1097M1035 1031L1079 1002M1035 1031L978 1097M1035 1031L1105 1057M1035 1031L986 1137M1079 1002L1105 1057M1178 1034L1261 1025M1178 1034L1105 1057M1178 1034L1195 1114M1178 1034L1259 1044M1178 1034L1159 1149M1261 1025L1311 994M1261 1025L1259 1044M1261 1025L1300 1053M1311 994L1259 1044M1311 994L1300 1053M1422 1012L1473 970M1422 1012L1422 1087M1422 1012L1513 1049M1473 970L1526 994M1473 970L1513 1049M1526 994L1605 962M1526 994L1513 1049M1605 962L1686 999M1686 999L1793 1034M1793 1034L1876 998M1793 1034L1805 1108M1876 998L1949 1007M1876 998L1913 1068M1949 1007L1913 1068M1949 1007L1951 1081M2079 1017L2152 1017M2079 1017L2048 1086M2152 1017L2223 973M2152 1017L2175 1115M2223 973L2288 1037M2223 973L2291 1054M2288 1037L2378 998M2288 1037L2291 1054M2288 1037L2360 1050M2378 998L2414 1011M2378 998L2360 1050M2414 1011L2360 1050M2414 1011L2465 1066M78 1088L82 1111M78 1088L167 1081M78 1088L61 1164M78 1088L95 1190M82 1111L167 1081M82 1111L61 1164M82 1111L95 1190M167 1081L229 1149M272 1076L367 1096M272 1076L229 1149M272 1076L242 1161M272 1076L333 1141M367 1096L333 1141M367 1096L450 1131M478 1110L537 1064M478 1110L561 1093M478 1110L450 1131M478 1110L519 1167M537 1064L561 1093M561 1093L519 1167M561 1093L568 1160M642 1098L660 1128M761 1084L660 1128M761 1084L734 1181M871 1101L889 1046M871 1101L978 1097M871 1101L868 1185M871 1101L916 1143M871 1101L986 1137M978 1097L916 1143M978 1097L986 1137M1105 1057L1195 1114M1105 1057L1159 1149M1195 1114L1159 1149M1195 1114L1252 1127M1259 1044L1300 1053M1259 1044L1252 1127M1300 1053L1252 1127M1300 1053L1339 1122M1422 1087L1513 1049M1422 1087L1339 1122M1422 1087L1430 1164M1513 1049L1593 1093M1593 1093L1670 1111M1593 1093L1685 1110M1593 1093L1589 1183M1593 1093L1608 1179M1670 1111L1685 1110M1805 1108L1913 1068M1805 1108L1758 1187M1805 1108L1792 1186M1805 1108L1847 1173M1913 1068L1951 1081M1913 1068L1981 1124M1951 1081L2048 1086M1951 1081L1981 1124M2048 1086L2104 1114M2048 1086L1981 1124M2048 1086L2048 1142M2104 1114L2175 1115M2104 1114L2048 1142M2104 1114L2155 1191M2104 1114L2186 1127M2175 1115L2155 1191M2175 1115L2186 1127M2291 1054L2360 1050M2291 1054L2293 1144M2360 1050L2465 1066M2465 1066L2497 1111M2465 1066L2485 1140M2497 1111L2460 1195M2497 1111L2485 1140M61 1164L95 1190M61 1164L41 1213M61 1164L91 1251M95 1190L41 1213M95 1190L91 1251M229 1149L242 1161M229 1149L333 1141M229 1149L182 1222M242 1161L333 1141M242 1161L182 1222M242 1161L311 1243M333 1141L311 1243M450 1131L519 1167M450 1131L447 1262M519 1167L568 1160M519 1167L555 1209M568 1160L660 1128M568 1160L555 1209M568 1160L596 1236M660 1128L734 1181M734 1181L711 1235M734 1181L762 1207M734 1181L804 1252M868 1185L916 1143M868 1185L804 1252M916 1143L986 1137M916 1143L953 1239M986 1137L953 1239M1109 1198L1159 1149M1109 1198L1046 1242M1109 1198L1143 1272M1109 1198L1094 1282M1159 1149L1252 1127M1252 1127L1271 1225M1339 1122L1430 1164M1430 1164L1498 1195M1430 1164L1365 1257M1430 1164L1491 1256M1498 1195L1589 1183M1498 1195L1491 1256M1498 1195L1566 1249M1589 1183L1608 1179M1589 1183L1566 1249M1608 1179L1566 1249M1608 1179L1673 1242M1758 1187L1792 1186M1758 1187L1847 1173M1758 1187L1693 1236M1758 1187L1764 1276M1792 1186L1847 1173M1792 1186L1853 1225M1847 1173L1853 1225M1847 1173L1945 1206M1981 1124L2048 1142M1981 1124L1945 1206M2048 1142L2041 1247M2048 1142L2086 1243M2155 1191L2186 1127M2155 1191L2086 1243M2155 1191L2234 1207M2186 1127L2234 1207M2293 1144L2360 1189M2293 1144L2234 1207M2293 1144L2327 1206M2360 1189L2460 1195M2360 1189L2300 1246M2360 1189L2327 1206M2360 1189L2441 1231M2460 1195L2485 1140M2460 1195L2441 1231M2485 1140L2441 1231M41 1213L91 1251M41 1213L-24 1279M41 1213L99 1303M2601 1213L2536 1279M91 1251L182 1222M91 1251L99 1303M182 1222L175 1335M311 1243L339 1268M311 1243L296 1328M339 1268L447 1262M339 1268L296 1328M339 1268L367 1342M339 1268L448 1313M447 1262L555 1209M447 1262L448 1313M555 1209L596 1236M596 1236L610 1318M711 1235L762 1207M711 1235L776 1290M762 1207L804 1252M762 1207L776 1290M762 1207L822 1299M804 1252L776 1290M804 1252L822 1299M953 1239L1028 1279M953 1239L1046 1242M953 1239L959 1318M1028 1279L1046 1242M1028 1279L959 1318M1028 1279L1004 1325M1028 1279L1094 1282M1046 1242L1004 1325M1046 1242L1094 1282M1143 1272L1094 1282M1143 1272L1135 1333M1143 1272L1201 1325M1271 1225L1335 1259M1271 1225L1365 1257M1271 1225L1201 1325M1271 1225L1333 1315M1335 1259L1365 1257M1335 1259L1333 1315M1335 1259L1396 1288M1365 1257L1333 1315M1365 1257L1396 1288M1491 1256L1566 1249M1491 1256L1396 1288M1491 1256L1511 1326M1566 1249L1511 1326M1673 1242L1693 1236M1673 1242L1678 1319M1693 1236L1764 1276M1693 1236L1678 1319M1764 1276L1678 1319M1764 1276L1710 1337M1764 1276L1788 1336M1853 1225L1945 1206M1853 1225L1907 1321M1945 1206L2041 1247M1945 1206L1907 1321M2041 1247L2086 1243M2041 1247L2040 1300M2086 1243L2040 1300M2234 1207L2300 1246M2234 1207L2327 1206M2300 1246L2327 1206M2300 1246L2285 1313M2300 1246L2367 1329M2327 1206L2285 1313M2441 1231L2436 1316M2536 1279L2605 1347M2536 1279L2436 1316M2536 1279L2504 1345M-24 1279L45 1347M45 1347L99 1303M45 1347L8 1431M45 1347L112 1410M45 1347L-13 1384M2605 1347L2547 1384M99 1303L175 1335M175 1335L112 1410M175 1335L195 1420M296 1328L367 1342M296 1328L318 1415M296 1328L371 1382M367 1342L318 1415M367 1342L371 1382M367 1342L400 1376M448 1313L371 1382M448 1313L400 1376M448 1313L538 1368M549 1359L610 1318M549 1359L538 1368M549 1359L595 1436M610 1318L686 1353M610 1318L538 1368M610 1318L672 1375M686 1353L672 1375M686 1353L726 1373M776 1290L822 1299M776 1290L726 1373M822 1299L726 1373M822 1299L887 1400M959 1318L1004 1325M959 1318L887 1400M959 1318L982 1383M1004 1325L982 1383M1094 1282L1135 1333M1135 1333L1201 1325M1135 1333L1078 1410M1135 1333L1160 1416M1201 1325L1160 1416M1201 1325L1229 1406M1333 1315L1396 1288M1333 1315L1363 1373M1396 1288L1363 1373M1511 1326L1589 1350M1511 1326L1446 1402M1511 1326L1583 1403M1589 1350L1583 1403M1589 1350L1655 1433M1678 1319L1710 1337M1678 1319L1734 1383M1710 1337L1788 1336M1710 1337L1734 1383M1788 1336L1734 1383M1788 1336L1784 1401M1788 1336L1856 1408M1907 1321L1990 1360M1907 1321L1856 1408M1907 1321L1932 1406M1990 1360L2040 1300M1990 1360L1932 1406M1990 1360L2065 1407M2040 1300L2134 1335M2134 1335L2194 1331M2134 1335L2065 1407M2134 1335L2152 1383M2134 1335L2182 1396M2194 1331L2285 1313M2194 1331L2152 1383M2194 1331L2182 1396M2194 1331L2284 1389M2285 1313L2367 1329M2285 1313L2284 1389M2367 1329L2436 1316M2367 1329L2284 1389M2367 1329L2433 1390M2436 1316L2504 1345M2436 1316L2433 1390M2504 1345L2433 1390M2504 1345L2547 1384M8 1431L-13 1384M2568 1431L2547 1384M112 1410L195 1420M318 1415L371 1382M318 1415L400 1376M371 1382L400 1376M538 1368L595 1436M595 1436L672 1375M672 1375L726 1373M870 1436L887 1400M870 1436L982 1383M887 1400L982 1383M982 1383L1078 1410M1078 1410L1160 1416M1160 1416L1229 1406M1229 1406L1296 1408M1296 1408L1363 1373M1363 1373L1446 1402M1583 1403L1655 1433M1734 1383L1784 1401M1784 1401L1856 1408M1856 1408L1932 1406M2152 1383L2182 1396M2284 1389L2379 1429M2379 1429L2433 1390"/></svg>