<svg xmlns="http://www.w3.org/2000/svg" width="2560" height="1440" fill="#fff"><circle cx="49" cy="11" r="6"/><circle cx="138" cy="42" r="4"/><circle cx="234" cy="62" r="5"/><circle cx="315" cy="49" r="4"/><circle cx="334" cy="57" r="4"/><circle cx="444" cy="79" r="6"/><circle cx="494" cy="59" r="4"/><circle cx="606" cy="31" r="5"/><circle cx="666" cy="58" r="5"/><circle cx="781" cy="45" r="5"/><circle cx="828" cy="0" r="6"/><circle cx="828" cy="1440" r="6"/><circle cx="883" cy="33" r="5"/><circle cx="1032" cy="12" r="6"/><circle cx="1114" cy="58" r="5"/><circle cx="1145" cy="15" r="5"/><circle cx="1250" cy="35" r="5"/><circle cx="1327" cy="75" r="4"/><circle cx="1385" cy="24" r="5"/><circle cx="1457" cy="5" r="5"/><circle cx="1553" cy="50" r="5"/><circle cx="1610" cy="17" r="6"/><circle cx="1715" cy="26" r="5"/><circle cx="1781" cy="72" r="5"/><circle cx="1897" cy="31" r="5"/><circle cx="1964" cy="27" r="5"/><circle cx="2066" cy="25" r="5"/><circle cx="2124" cy="43" r="5"/><circle cx="2199" cy="44" r="5"/><circle cx="2294" cy="29" r="5"/><circle cx="2340" cy="51" r="5"/><circle cx="2412" cy="12" r="6"/><circle cx="2495" cy="40" r="6"/><circle cx="12" cy="145" r="4"/><circle cx="129" cy="124" r="5"/><circle cx="226" cy="128" r="5"/><circle cx="280" cy="142" r="4"/><circle cx="328" cy="146" r="4"/><circle cx="404" cy="88" r="5"/><circle cx="482" cy="100" r="4"/><circle cx="635" cy="146" r="4"/><circle cx="660" cy="116" r="6"/><circle cx="753" cy="84" r="5"/><circle cx="809" cy="132" r="4"/><circle cx="944" cy="114" r="4"/><circle cx="976" cy="111" r="5"/><circle cx="1081" cy="95" r="5"/><circle cx="1184" cy="92" r="5"/><circle cx="1272" cy="118" r="5"/><circle cx="1288" cy="146" r="5"/><circle cx="1376" cy="99" r="4"/><circle cx="1449" cy="136" r="6"/><circle cx="1567" cy="146" r="5"/><circle cx="1668" cy="156" r="4"/><circle cx="1711" cy="97" r="6"/><circle cx="1762" cy="123" r="4"/><circle cx="1854" cy="93" r="6"/><circle cx="1939" cy="122" r="6"/><circle cx="2071" cy="126" r="6"/><circle cx="2117" cy="108" r="6"/><circle cx="2195" cy="129" r="4"/><circle cx="2316" cy="160" r="5"/><circle cx="2379" cy="113" r="5"/><circle cx="2446" cy="156" r="6"/><circle cx="2480" cy="114" r="5"/><circle cx="40" cy="205" r="6"/><circle cx="133" cy="221" r="4"/><circle cx="229" cy="213" r="6"/><circle cx="299" cy="239" r="6"/><circle cx="348" cy="174" r="4"/><circle cx="430" cy="197" r="5"/><circle cx="482" cy="183" r="5"/><circle cx="595" cy="209" r="5"/><circle cx="679" cy="192" r="4"/><circle cx="740" cy="193" r="5"/><circle cx="809" cy="238" r="6"/><circle cx="907" cy="229" r="4"/><circle cx="1006" cy="202" r="5"/><circle cx="1060" cy="237" r="5"/><circle cx="1149" cy="179" r="4"/><circle cx="1206" cy="203" r="6"/><circle cx="1288" cy="236" r="5"/><circle cx="1429" cy="231" r="5"/><circle cx="1455" cy="178" r="4"/><circle cx="1552" cy="192" r="6"/><circle cx="1609" cy="178" r="5"/><circle cx="1756" cy="169" r="6"/><circle cx="1822" cy="227" r="5"/><circle cx="1897" cy="175" r="4"/><circle cx="1981" cy="224" r="6"/><circle cx="2077" cy="174" r="5"/><circle cx="2142" cy="212" r="5"/><circle cx="2166" cy="204" r="6"/><circle cx="2283" cy="171" r="4"/><circle cx="2391" cy="193" r="4"/><circle cx="2415" cy="188" r="4"/><circle cx="2498" cy="235" r="5"/><circle cx="66" cy="243" r="5"/><circle cx="155" cy="297" r="4"/><circle cx="215" cy="297" r="4"/><circle cx="271" cy="269" r="5"/><circle cx="327" cy="267" r="4"/><circle cx="424" cy="276" r="4"/><circle cx="482" cy="313" r="5"/><circle cx="607" cy="296" r="5"/><circle cx="653" cy="302" r="6"/><circle cx="756" cy="283" r="5"/><circle cx="809" cy="311" r="4"/><circle cx="949" cy="286" r="5"/><circle cx="1022" cy="278" r="6"/><circle cx="1057" cy="312" r="5"/><circle cx="1121" cy="295" r="5"/><circle cx="1260" cy="265" r="6"/><circle cx="1301" cy="256" r="5"/><circle cx="1396" cy="309" r="4"/><circle cx="1443" cy="265" r="6"/><circle cx="1584" cy="263" r="5"/><circle cx="1636" cy="274" r="6"/><circle cx="1686" cy="254" r="5"/><circle cx="1771" cy="275" r="6"/><circle cx="1893" cy="256" r="4"/><circle cx="1996" cy="241" r="6"/><circle cx="2039" cy="285" r="5"/><circle cx="2112" cy="259" r="4"/><circle cx="2217" cy="299" r="4"/><circle cx="2277" cy="261" r="5"/><circle cx="2332" cy="307" r="4"/><circle cx="2435" cy="288" r="6"/><circle cx="2526" cy="297" r="4"/><circle cx="16" cy="386" r="5"/><circle cx="129" cy="397" r="6"/><circle cx="233" cy="383" r="6"/><circle cx="268" cy="340" r="5"/><circle cx="346" cy="370" r="5"/><circle cx="458" cy="323" r="5"/><circle cx="499" cy="343" r="5"/><circle cx="589" cy="366" r="5"/><circle cx="650" cy="347" r="5"/><circle cx="751" cy="377" r="4"/><circle cx="851" cy="353" r="6"/><circle cx="881" cy="388" r="4"/><circle cx="1016" cy="352" r="5"/><circle cx="1085" cy="358" r="6"/><circle cx="1121" cy="358" r="5"/><circle cx="1203" cy="329" r="6"/><circle cx="1356" cy="349" r="4"/><circle cx="1388" cy="358" r="6"/><circle cx="1503" cy="357" r="5"/><circle cx="1597" cy="332" r="4"/><circle cx="1626" cy="399" r="6"/><circle cx="1736" cy="331" r="4"/><circle cx="1820" cy="375" r="4"/><circle cx="1913" cy="372" r="6"/><circle cx="1933" cy="321" r="5"/><circle cx="2010" cy="368" r="4"/><circle cx="2102" cy="337" r="6"/><circle cx="2192" cy="362" r="5"/><circle cx="2319" cy="335" r="5"/><circle cx="2364" cy="360" r="5"/><circle cx="2426" cy="394" r="6"/><circle cx="2496" cy="380" r="5"/><circle cx="25" cy="420" r="5"/><circle cx="145" cy="405" r="5"/><circle cx="213" cy="458" r="5"/><circle cx="257" cy="412" r="6"/><circle cx="332" cy="433" r="4"/><circle cx="406" cy="462" r="5"/><circle cx="528" cy="478" r="6"/><circle cx="590" cy="467" r="6"/><circle cx="649" cy="411" r="5"/><circle cx="735" cy="453" r="6"/><circle cx="855" cy="407" r="4"/><circle cx="904" cy="413" r="4"/><circle cx="1007" cy="466" r="6"/><circle cx="1080" cy="448" r="5"/><circle cx="1130" cy="455" r="5"/><circle cx="1235" cy="472" r="5"/><circle cx="1353" cy="476" r="6"/><circle cx="1400" cy="442" r="6"/><circle cx="1460" cy="474" r="5"/><circle cx="1576" cy="403" r="6"/><circle cx="1636" cy="473" r="5"/><circle cx="1685" cy="453" r="5"/><circle cx="1839" cy="437" r="5"/><circle cx="1851" cy="454" r="5"/><circle cx="1944" cy="401" r="5"/><circle cx="2045" cy="423" r="5"/><circle cx="2101" cy="449" r="4"/><circle cx="2173" cy="413" r="5"/><circle cx="2290" cy="477" r="5"/><circle cx="2388" cy="433" r="5"/><circle cx="2441" cy="428" r="5"/><circle cx="2487" cy="406" r="4"/><circle cx="42" cy="491" r="5"/><circle cx="110" cy="489" r="4"/><circle cx="217" cy="541" r="5"/><circle cx="269" cy="539" r="6"/><circle cx="348" cy="489" r="5"/><circle cx="425" cy="513" r="5"/><circle cx="529" cy="482" r="5"/><circle cx="577" cy="543" r="5"/><circle cx="661" cy="517" r="4"/><circle cx="767" cy="524" r="6"/><circle cx="854" cy="559" r="6"/><circle cx="880" cy="554" r="5"/><circle cx="983" cy="514" r="5"/><circle cx="1114" cy="559" r="5"/><circle cx="1159" cy="485" r="6"/><circle cx="1247" cy="515" r="5"/><circle cx="1305" cy="485" r="5"/><circle cx="1418" cy="524" r="5"/><circle cx="1513" cy="490" r="4"/><circle cx="1546" cy="558" r="5"/><circle cx="1657" cy="515" r="4"/><circle cx="1731" cy="510" r="4"/><circle cx="1794" cy="514" r="6"/><circle cx="1844" cy="500" r="4"/><circle cx="1946" cy="536" r="6"/><circle cx="2014" cy="486" r="6"/><circle cx="2090" cy="549" r="4"/><circle cx="2171" cy="530" r="5"/><circle cx="2263" cy="525" r="6"/><circle cx="2347" cy="540" r="4"/><circle cx="2414" cy="543" r="5"/><circle cx="2505" cy="504" r="5"/><circle cx="34" cy="637" r="5"/><circle cx="97" cy="635" r="4"/><circle cx="164" cy="568" r="6"/><circle cx="280" cy="630" r="5"/><circle cx="391" cy="596" r="4"/><circle cx="432" cy="606" r="5"/><circle cx="496" cy="596" r="4"/><circle cx="615" cy="623" r="5"/><circle cx="650" cy="589" r="5"/><circle cx="772" cy="563" r="4"/><circle cx="836" cy="567" r="5"/><circle cx="938" cy="604" r="4"/><circle cx="987" cy="565" r="5"/><circle cx="1081" cy="640" r="4"/><circle cx="1167" cy="602" r="5"/><circle cx="1211" cy="575" r="6"/><circle cx="1326" cy="595" r="6"/><circle cx="1439" cy="574" r="6"/><circle cx="1473" cy="564" r="5"/><circle cx="1580" cy="563" r="6"/><circle cx="1604" cy="566" r="6"/><circle cx="1708" cy="583" r="4"/><circle cx="1806" cy="591" r="6"/><circle cx="1892" cy="614" r="4"/><circle cx="1923" cy="627" r="4"/><circle cx="2018" cy="606" r="5"/><circle cx="2102" cy="610" r="5"/><circle cx="2187" cy="607" r="4"/><circle cx="2256" cy="563" r="5"/><circle cx="2350" cy="592" r="4"/><circle cx="2426" cy="589" r="5"/><circle cx="2548" cy="616" r="6"/><circle cx="36" cy="667" r="5"/><circle cx="113" cy="685" r="4"/><circle cx="216" cy="668" r="5"/><circle cx="257" cy="640" r="5"/><circle cx="355" cy="674" r="5"/><circle cx="439" cy="664" r="5"/><circle cx="539" cy="643" r="4"/><circle cx="630" cy="685" r="4"/><circle cx="641" cy="649" r="5"/><circle cx="783" cy="677" r="5"/><circle cx="807" cy="644" r="4"/><circle cx="922" cy="661" r="6"/><circle cx="989" cy="696" r="5"/><circle cx="1043" cy="714" r="5"/><circle cx="1145" cy="655" r="5"/><circle cx="1260" cy="712" r="6"/><circle cx="1320" cy="651" r="5"/><circle cx="1384" cy="654" r="4"/><circle cx="1507" cy="716" r="4"/><circle cx="1543" cy="719" r="4"/><circle cx="1654" cy="712" r="6"/><circle cx="1681" cy="709" r="5"/><circle cx="1773" cy="682" r="6"/><circle cx="1904" cy="678" r="5"/><circle cx="1921" cy="643" r="5"/><circle cx="2010" cy="646" r="5"/><circle cx="2122" cy="658" r="5"/><circle cx="2202" cy="680" r="5"/><circle cx="2258" cy="700" r="4"/><circle cx="2351" cy="685" r="4"/><circle cx="2446" cy="713" r="4"/><circle cx="2498" cy="710" r="5"/><circle cx="28" cy="787" r="5"/><circle cx="81" cy="777" r="6"/><circle cx="196" cy="720" r="5"/><circle cx="319" cy="733" r="5"/><circle cx="397" cy="759" r="5"/><circle cx="443" cy="776" r="6"/><circle cx="518" cy="763" r="4"/><circle cx="591" cy="728" r="4"/><circle cx="669" cy="754" r="6"/><circle cx="774" cy="798" r="6"/><circle cx="803" cy="762" r="4"/><circle cx="941" cy="723" r="6"/><circle cx="971" cy="746" r="5"/><circle cx="1051" cy="720" r="4"/><circle cx="1142" cy="745" r="4"/><circle cx="1208" cy="777" r="6"/><circle cx="1301" cy="781" r="5"/><circle cx="1427" cy="794" r="5"/><circle cx="1495" cy="760" r="5"/><circle cx="1585" cy="730" r="4"/><circle cx="1675" cy="763" r="5"/><circle cx="1706" cy="750" r="4"/><circle cx="1800" cy="764" r="4"/><circle cx="1854" cy="790" r="4"/><circle cx="1971" cy="754" r="5"/><circle cx="2054" cy="733" r="6"/><circle cx="2120" cy="732" r="5"/><circle cx="2207" cy="726" r="6"/><circle cx="2249" cy="764" r="5"/><circle cx="2384" cy="787" r="6"/><circle cx="2404" cy="744" r="5"/><circle cx="2500" cy="770" r="4"/><circle cx="29" cy="863" r="5"/><circle cx="111" cy="819" r="5"/><circle cx="165" cy="815" r="5"/><circle cx="295" cy="843" r="5"/><circle cx="368" cy="864" r="5"/><circle cx="457" cy="843" r="4"/><circle cx="499" cy="842" r="5"/><circle cx="589" cy="820" r="5"/><circle cx="682" cy="828" r="6"/><circle cx="736" cy="873" r="4"/><circle cx="864" cy="823" r="6"/><circle cx="917" cy="869" r="6"/><circle cx="1005" cy="832" r="5"/><circle cx="1046" cy="810" r="6"/><circle cx="1131" cy="858" r="5"/><circle cx="1257" cy="804" r="5"/><circle cx="1307" cy="868" r="5"/><circle cx="1400" cy="809" r="5"/><circle cx="1488" cy="802" r="6"/><circle cx="1541" cy="854" r="4"/><circle cx="1606" cy="867" r="4"/><circle cx="1719" cy="832" r="5"/><circle cx="1828" cy="805" r="6"/><circle cx="1897" cy="852" r="4"/><circle cx="1935" cy="879" r="5"/><circle cx="2014" cy="817" r="5"/><circle cx="2129" cy="851" r="6"/><circle cx="2208" cy="845" r="5"/><circle cx="2287" cy="831" r="6"/><circle cx="2376" cy="818" r="5"/><circle cx="2456" cy="872" r="5"/><circle cx="2502" cy="816" r="5"/><circle cx="80" cy="920" r="5"/><circle cx="126" cy="928" r="4"/><circle cx="194" cy="955" r="5"/><circle cx="302" cy="927" r="5"/><circle cx="350" cy="907" r="6"/><circle cx="427" cy="943" r="5"/><circle cx="525" cy="957" r="5"/><circle cx="604" cy="901" r="5"/><circle cx="686" cy="916" r="5"/><circle cx="773" cy="959" r="4"/><circle cx="843" cy="941" r="6"/><circle cx="900" cy="960" r="5"/><circle cx="978" cy="939" r="4"/><circle cx="1091" cy="935" r="5"/><circle cx="1182" cy="915" r="5"/><circle cx="1275" cy="947" r="4"/><circle cx="1314" cy="921" r="4"/><circle cx="1411" cy="890" r="4"/><circle cx="1443" cy="940" r="5"/><circle cx="1534" cy="897" r="5"/><circle cx="1630" cy="919" r="5"/><circle cx="1717" cy="941" r="6"/><circle cx="1788" cy="923" r="4"/><circle cx="1873" cy="938" r="4"/><circle cx="1939" cy="959" r="5"/><circle cx="2068" cy="882" r="4"/><circle cx="2149" cy="935" r="5"/><circle cx="2229" cy="888" r="4"/><circle cx="2296" cy="918" r="4"/><circle cx="2354" cy="888" r="6"/><circle cx="2431" cy="940" r="5"/><circle cx="2512" cy="896" r="4"/><circle cx="20" cy="1019" r="4"/><circle cx="133" cy="983" r="6"/><circle cx="210" cy="1018" r="5"/><circle cx="281" cy="1013" r="5"/><circle cx="352" cy="1006" r="6"/><circle cx="441" cy="964" r="5"/><circle cx="556" cy="975" r="6"/><circle cx="608" cy="1034" r="5"/><circle cx="645" cy="985" r="4"/><circle cx="764" cy="1016" r="6"/><circle cx="863" cy="1027" r="4"/><circle cx="935" cy="1029" r="6"/><circle cx="1003" cy="985" r="6"/><circle cx="1075" cy="961" r="4"/><circle cx="1159" cy="1036" r="6"/><circle cx="1243" cy="1030" r="5"/><circle cx="1332" cy="1033" r="4"/><circle cx="1410" cy="1032" r="4"/><circle cx="1515" cy="1032" r="4"/><circle cx="1523" cy="1038" r="5"/><circle cx="1612" cy="1006" r="4"/><circle cx="1690" cy="1036" r="4"/><circle cx="1838" cy="1006" r="6"/><circle cx="1901" cy="982" r="5"/><circle cx="1925" cy="993" r="6"/><circle cx="2042" cy="975" r="5"/><circle cx="2106" cy="967" r="5"/><circle cx="2182" cy="1037" r="6"/><circle cx="2290" cy="961" r="5"/><circle cx="2387" cy="997" r="5"/><circle cx="2472" cy="966" r="5"/><circle cx="2495" cy="997" r="6"/><circle cx="60" cy="1040" r="5"/><circle cx="113" cy="1064" r="6"/><circle cx="184" cy="1081" r="6"/><circle cx="292" cy="1120" r="5"/><circle cx="352" cy="1046" r="5"/><circle cx="472" cy="1079" r="4"/><circle cx="492" cy="1111" r="5"/><circle cx="562" cy="1090" r="5"/><circle cx="657" cy="1110" r="4"/><circle cx="721" cy="1089" r="5"/><circle cx="826" cy="1119" r="5"/><circle cx="884" cy="1076" r="5"/><circle cx="1010" cy="1102" r="4"/><circle cx="1077" cy="1091" r="5"/><circle cx="1140" cy="1093" r="5"/><circle cx="1220" cy="1046" r="5"/><circle cx="1332" cy="1103" r="6"/><circle cx="1371" cy="1064" r="5"/><circle cx="1450" cy="1089" r="6"/><circle cx="1530" cy="1082" r="5"/><circle cx="1650" cy="1102" r="4"/><circle cx="1732" cy="1090" r="4"/><circle cx="1794" cy="1092" r="4"/><circle cx="1850" cy="1082" r="4"/><circle cx="1989" cy="1099" r="5"/><circle cx="2033" cy="1112" r="5"/><circle cx="2123" cy="1081" r="4"/><circle cx="2187" cy="1057" r="5"/><circle cx="2270" cy="1077" r="4"/><circle cx="2350" cy="1065" r="6"/><circle cx="2459" cy="1069" r="4"/><circle cx="2482" cy="1098" r="4"/><circle cx="2" cy="1199" r="4"/><circle cx="2562" cy="1199" r="4"/><circle cx="86" cy="1166" r="5"/><circle cx="199" cy="1148" r="6"/><circle cx="243" cy="1142" r="4"/><circle cx="338" cy="1128" r="5"/><circle cx="473" cy="1193" r="6"/><circle cx="526" cy="1196" r="4"/><circle cx="605" cy="1161" r="4"/><circle cx="715" cy="1196" r="5"/><circle cx="743" cy="1196" r="5"/><circle cx="879" cy="1137" r="5"/><circle cx="897" cy="1144" r="4"/><circle cx="990" cy="1188" r="4"/><circle cx="1041" cy="1181" r="5"/><circle cx="1149" cy="1183" r="5"/><circle cx="1265" cy="1168" r="5"/><circle cx="1284" cy="1127" r="6"/><circle cx="1411" cy="1193" r="4"/><circle cx="1446" cy="1147" r="5"/><circle cx="1574" cy="1169" r="5"/><circle cx="1680" cy="1135" r="5"/><circle cx="1728" cy="1195" r="5"/><circle cx="1827" cy="1125" r="5"/><circle cx="1887" cy="1158" r="4"/><circle cx="1937" cy="1178" r="5"/><circle cx="2020" cy="1190" r="5"/><circle cx="2157" cy="1142" r="6"/><circle cx="2232" cy="1153" r="4"/><circle cx="2308" cy="1129" r="4"/><circle cx="2328" cy="1148" r="6"/><circle cx="2450" cy="1198" r="4"/><circle cx="2521" cy="1176" r="4"/><circle cx="18" cy="1215" r="5"/><circle cx="116" cy="1264" r="6"/><circle cx="207" cy="1212" r="4"/><circle cx="275" cy="1200" r="5"/><circle cx="343" cy="1265" r="4"/><circle cx="436" cy="1208" r="5"/><circle cx="559" cy="1218" r="6"/><circle cx="569" cy="1264" r="6"/><circle cx="714" cy="1244" r="4"/><circle cx="732" cy="1272" r="5"/><circle cx="849" cy="1225" r="5"/><circle cx="929" cy="1249" r="4"/><circle cx="1023" cy="1234" r="5"/><circle cx="1080" cy="1231" r="6"/><circle cx="1186" cy="1230" r="5"/><circle cx="1207" cy="1216" r="6"/><circle cx="1323" cy="1210" r="5"/><circle cx="1437" cy="1206" r="4"/><circle cx="1442" cy="1249" r="5"/><circle cx="1572" cy="1217" r="4"/><circle cx="1605" cy="1223" r="5"/><circle cx="1721" cy="1218" r="4"/><circle cx="1808" cy="1256" r="4"/><circle cx="1888" cy="1243" r="4"/><circle cx="1992" cy="1215" r="5"/><circle cx="2037" cy="1260" r="5"/><circle cx="2147" cy="1265" r="5"/><circle cx="2196" cy="1233" r="4"/><circle cx="2293" cy="1271" r="6"/><circle cx="2334" cy="1275" r="5"/><circle cx="2443" cy="1221" r="5"/><circle cx="2538" cy="1273" r="4"/><circle cx="6" cy="1307" r="5"/><circle cx="160" cy="1343" r="5"/><circle cx="233" cy="1296" r="5"/><circle cx="258" cy="1291" r="5"/><circle cx="368" cy="1308" r="4"/><circle cx="411" cy="1339" r="6"/><circle cx="500" cy="1343" r="5"/><circle cx="625" cy="1353" r="5"/><circle cx="649" cy="1288" r="5"/><circle cx="774" cy="1350" r="4"/><circle cx="833" cy="1330" r="4"/><circle cx="881" cy="1336" r="5"/><circle cx="1022" cy="1348" r="4"/><circle cx="1118" cy="1312" r="6"/><circle cx="1143" cy="1352" r="5"/><circle cx="1253" cy="1338" r="5"/><circle cx="1332" cy="1284" r="6"/><circle cx="1403" cy="1349" r="5"/><circle cx="1467" cy="1281" r="5"/><circle cx="1532" cy="1356" r="6"/><circle cx="1680" cy="1289" r="4"/><circle cx="1723" cy="1282" r="4"/><circle cx="1827" cy="1328" r="5"/><circle cx="1879" cy="1291" r="5"/><circle cx="1925" cy="1315" r="4"/><circle cx="2033" cy="1295" r="5"/><circle cx="2115" cy="1306" r="5"/><circle cx="2199" cy="1319" r="5"/><circle cx="2267" cy="1352" r="4"/><circle cx="2357" cy="1349" r="4"/><circle cx="2431" cy="1314" r="4"/><circle cx="2493" cy="1317" r="5"/><circle cx="52" cy="1433" r="5"/><circle cx="140" cy="1439" r="5"/><circle cx="140" cy="-1" r="5"/><circle cx="164" cy="1406" r="4"/><circle cx="295" cy="1425" r="5"/><circle cx="366" cy="1363" r="4"/><circle cx="447" cy="1400" r="6"/><circle cx="536" cy="1423" r="5"/><circle cx="638" cy="1395" r="5"/><circle cx="649" cy="1365" r="6"/><circle cx="782" cy="1378" r="5"/><circle cx="860" cy="1435" r="6"/><circle cx="860" cy="-5" r="6"/><circle cx="941" cy="1416" r="5"/><circle cx="987" cy="1387" r="5"/><circle cx="1054" cy="1406" r="5"/><circle cx="1164" cy="1413" r="5"/><circle cx="1247" cy="1420" r="5"/><circle cx="1294" cy="1381" r="5"/><circle cx="1367" cy="1398" r="4"/><circle cx="1463" cy="1430" r="5"/><circle cx="1561" cy="1416" r="5"/><circle cx="1649" cy="1365" r="6"/><circle cx="1754" cy="1409" r="4"/><circle cx="1792" cy="1392" r="4"/><circle cx="1905" cy="1423" r="5"/><circle cx="1997" cy="1379" r="6"/><circle cx="2076" cy="1382" r="5"/><circle cx="2145" cy="1371" r="5"/><circle cx="2171" cy="1437" r="4"/><circle cx="2171" cy="-3" r="4"/><circle cx="2292" cy="1378" r="4"/><circle cx="2336" cy="1367" r="6"/><circle cx="2441" cy="1409" r="4"/><circle cx="2485" cy="1365" r="6"/><path stroke="#fff" d="M49 11L138 42M49 11L-65 40M49 11L52 -7M49 11L140 -1M49 11L164 -34M2609 11L2495 40M49 1451L52 1433M49 1451L140 1439M49 1451L164 1406M138 42L234 62M138 42L129 124M138 42L140 -1M138 42L164 -34M138 1482L140 1439M138 1482L164 1406M234 62L315 49M234 62L226 128M234 62L280 142M234 62L295 -15M234 1502L295 1425M315 49L334 57M315 49L404 88M315 49L295 -15M315 1489L295 1425M334 57L328 146M334 57L404 88M334 57L295 -15M334 1497L295 1425M444 79L494 59M444 79L404 88M444 79L482 100M444 79L482 183M444 79L447 -40M444 1519L447 1400M494 59L482 100M494 59L536 -17M494 1499L536 1423M606 31L666 58M606 31L660 116M606 31L536 -17M606 31L638 -45M606 31L649 -75M606 1471L536 1423M606 1471L638 1395M606 1471L649 1365M666 58L635 146M666 58L660 116M666 58L753 84M666 58L638 -45M666 1498L638 1395M781 45L828 0M781 45L753 84M781 45L809 132M781 45L782 -62M781 45L860 -5M781 1485L782 1378M781 1485L860 1435M828 0L883 33M828 0L782 -62M828 0L860 -5M828 1440L782 1378M828 1440L860 1435M883 33L944 114M883 33L976 111M883 33L860 -5M883 33L941 -24M883 1473L860 1435M883 1473L941 1416M1032 12L1114 58M1032 12L1081 95M1032 12L941 -24M1032 12L987 -53M1032 12L1054 -34M1032 1452L941 1416M1032 1452L987 1387M1032 1452L1054 1406M1114 58L1145 15M1114 58L1081 95M1114 58L1184 92M1114 58L1164 -27M1114 1498L1164 1413M1145 15L1081 95M1145 15L1184 92M1145 15L1054 -34M1145 15L1164 -27M1145 1455L1054 1406M1145 1455L1164 1413M1250 35L1327 75M1250 35L1184 92M1250 35L1272 118M1250 35L1164 -27M1250 35L1247 -20M1250 1475L1164 1413M1250 1475L1247 1420M1327 75L1385 24M1327 75L1272 118M1327 75L1288 146M1327 75L1376 99M1385 24L1457 5M1385 24L1376 99M1385 24L1367 -42M1385 24L1463 -10M1385 1464L1367 1398M1385 1464L1463 1430M1457 5L1553 50M1457 5L1463 -10M1457 1445L1463 1430M1553 50L1610 17M1553 50L1567 146M1553 50L1561 -24M1553 1490L1561 1416M1610 17L1715 26M1610 17L1532 -84M1610 17L1561 -24M1610 17L1649 -75M1610 1457L1532 1356M1610 1457L1561 1416M1610 1457L1649 1365M1715 26L1781 72M1715 26L1711 97M1715 26L1649 -75M1715 26L1754 -31M1715 1466L1649 1365M1715 1466L1754 1409M1781 72L1711 97M1781 72L1762 123M1781 72L1854 93M1897 31L1964 27M1897 31L1854 93M1897 31L1939 122M1897 31L1905 -17M1897 1471L1905 1423M1964 27L2066 25M1964 27L1939 122M1964 27L1905 -17M1964 27L1997 -61M1964 1467L1905 1423M1964 1467L1997 1379M2066 25L2124 43M2066 25L2071 126M2066 25L2117 108M2066 25L2076 -58M2066 1465L2076 1382M2124 43L2199 44M2124 43L2071 126M2124 43L2117 108M2124 43L2171 -3M2124 1483L2171 1437M2199 44L2294 29M2199 44L2195 129M2199 44L2171 -3M2199 1484L2171 1437M2294 29L2340 51M2294 29L2292 -62M2294 1469L2292 1378M2340 51L2412 12M2340 51L2379 113M2412 12L2495 40M2412 12L2441 -31M2412 1452L2441 1409M2495 40L2480 114M2495 40L2441 -31M2495 40L2485 -75M2495 1480L2441 1409M2495 1480L2485 1365M12 145L-80 114M12 145L40 205M12 145L66 243M2572 145L2480 114M129 124L226 128M129 124L40 205M129 124L133 221M226 128L280 142M226 128L229 213M280 142L328 146M280 142L229 213M280 142L348 174M328 146L404 88M328 146L299 239M328 146L348 174M404 88L482 100M482 100L430 197M482 100L482 183M635 146L660 116M635 146L595 209M635 146L679 192M660 116L753 84M660 116L679 192M753 84L809 132M753 84L740 193M809 132L740 193M944 114L976 111M976 111L1081 95M976 111L1006 202M1081 95L1184 92M1184 92L1272 118M1272 118L1288 146M1272 118L1206 203M1288 146L1376 99M1288 146L1206 203M1288 146L1288 236M1376 99L1449 136M1376 99L1455 178M1449 136L1429 231M1449 136L1455 178M1567 146L1668 156M1567 146L1552 192M1567 146L1609 178M1668 156L1711 97M1668 156L1609 178M1668 156L1756 169M1668 156L1686 254M1711 97L1762 123M1711 97L1756 169M1762 123L1854 93M1762 123L1756 169M1762 123L1822 227M1854 93L1939 122M1854 93L1897 175M1939 122L1897 175M1939 122L1981 224M2071 126L2117 108M2071 126L2077 174M2071 126L2142 212M2117 108L2195 129M2117 108L2077 174M2195 129L2142 212M2195 129L2166 204M2195 129L2283 171M2316 160L2379 113M2316 160L2283 171M2316 160L2391 193M2316 160L2277 261M2379 113L2446 156M2379 113L2391 193M2379 113L2415 188M2446 156L2480 114M2446 156L2391 193M2446 156L2415 188M2446 156L2498 235M2480 114L2415 188M2480 114L2498 235M40 205L133 221M40 205L-62 235M40 205L66 243M2600 205L2498 235M133 221L66 243M133 221L155 297M229 213L299 239M229 213L215 297M229 213L271 269M299 239L348 174M299 239L271 269M299 239L327 267M348 174L430 197M348 174L327 267M430 197L482 183M430 197L424 276M482 183L595 209M482 183L424 276M595 209L679 192M595 209L607 296M595 209L653 302M679 192L740 193M740 193L809 238M740 193L756 283M809 238L907 229M809 238L756 283M809 238L809 311M907 229L1006 202M907 229L949 286M1006 202L1060 237M1006 202L949 286M1006 202L1022 278M1060 237L1022 278M1060 237L1057 312M1060 237L1121 295M1149 179L1206 203M1206 203L1288 236M1206 203L1260 265M1288 236L1260 265M1288 236L1301 256M1288 236L1203 329M1429 231L1455 178M1429 231L1396 309M1429 231L1443 265M1455 178L1552 192M1455 178L1443 265M1552 192L1609 178M1552 192L1584 263M1552 192L1636 274M1609 178L1584 263M1609 178L1636 274M1756 169L1822 227M1756 169L1771 275M1822 227L1897 175M1822 227L1771 275M1822 227L1893 256M1897 175L1981 224M1897 175L1893 256M1981 224L1893 256M1981 224L1996 241M1981 224L2039 285M2077 174L2142 212M2077 174L2166 204M2077 174L1996 241M2142 212L2166 204M2142 212L2112 259M2166 204L2112 259M2166 204L2217 299M2283 171L2277 261M2391 193L2415 188M2415 188L2435 288M2498 235L2435 288M2498 235L2526 297M66 243L155 297M66 243L-34 297M2626 243L2526 297M155 297L215 297M215 297L271 269M215 297L233 383M215 297L268 340M271 269L327 267M271 269L268 340M327 267L346 370M424 276L482 313M424 276L458 323M424 276L499 343M482 313L607 296M482 313L458 323M482 313L499 343M607 296L653 302M607 296L589 366M607 296L650 347M653 302L756 283M653 302L589 366M653 302L650 347M756 283L809 311M756 283L751 377M809 311L751 377M809 311L851 353M809 311L881 388M949 286L1022 278M949 286L1016 352M1022 278L1057 312M1022 278L1016 352M1057 312L1121 295M1057 312L1016 352M1057 312L1085 358M1121 295L1085 358M1121 295L1121 358M1121 295L1203 329M1260 265L1301 256M1260 265L1203 329M1260 265L1356 349M1301 256L1396 309M1301 256L1203 329M1301 256L1356 349M1396 309L1443 265M1396 309L1356 349M1396 309L1388 358M1443 265L1388 358M1443 265L1503 357M1584 263L1636 274M1584 263L1686 254M1584 263L1597 332M1636 274L1686 254M1636 274L1597 332M1686 254L1771 275M1686 254L1736 331M1771 275L1736 331M1771 275L1820 375M1893 256L1996 241M1893 256L1933 321M1996 241L2039 285M1996 241L1933 321M2039 285L2112 259M2039 285L2010 368M2039 285L2102 337M2112 259L2102 337M2217 299L2277 261M2217 299L2192 362M2217 299L2319 335M2277 261L2332 307M2277 261L2319 335M2332 307L2319 335M2332 307L2364 360M2435 288L2526 297M2435 288L2364 360M2526 297L2496 380M16 386L-64 380M16 386L25 420M16 386L-73 406M16 386L42 491M2576 386L2496 380M2576 386L2487 406M129 397L25 420M129 397L145 405M129 397L110 489M233 383L268 340M233 383L145 405M233 383L213 458M233 383L257 412M268 340L346 370M268 340L257 412M346 370L257 412M346 370L332 433M346 370L406 462M458 323L499 343M589 366L650 347M589 366L649 411M650 347L751 377M650 347L649 411M751 377L851 353M751 377L735 453M851 353L881 388M851 353L855 407M851 353L904 413M881 388L855 407M881 388L904 413M1016 352L1085 358M1016 352L1007 466M1085 358L1121 358M1085 358L1080 448M1121 358L1203 329M1121 358L1080 448M1121 358L1130 455M1356 349L1388 358M1388 358L1400 442M1503 357L1597 332M1503 357L1576 403M1597 332L1626 399M1597 332L1576 403M1626 399L1576 403M1626 399L1636 473M1626 399L1685 453M1736 331L1820 375M1820 375L1913 372M1820 375L1839 437M1820 375L1851 454M1913 372L1933 321M1913 372L1839 437M1913 372L1851 454M1913 372L1944 401M1933 321L2010 368M1933 321L1944 401M2010 368L1944 401M2010 368L2045 423M2102 337L2192 362M2102 337L2045 423M2102 337L2173 413M2192 362L2173 413M2319 335L2364 360M2364 360L2426 394M2364 360L2388 433M2426 394L2496 380M2426 394L2388 433M2426 394L2441 428M2426 394L2487 406M2496 380L2441 428M2496 380L2487 406M25 420L42 491M145 405L213 458M145 405L110 489M213 458L257 412M213 458L217 541M213 458L269 539M257 412L332 433M332 433L406 462M332 433L348 489M406 462L528 478M406 462L348 489M406 462L425 513M528 478L590 467M528 478L425 513M528 478L529 482M528 478L577 543M590 467L649 411M590 467L529 482M590 467L577 543M590 467L661 517M649 411L735 453M735 453L661 517M735 453L767 524M735 453L772 563M855 407L904 413M1007 466L1080 448M1007 466L983 514M1007 466L987 565M1080 448L1130 455M1080 448L1159 485M1130 455L1235 472M1130 455L1114 559M1130 455L1159 485M1235 472L1159 485M1235 472L1247 515M1235 472L1305 485M1235 472L1211 575M1353 476L1400 442M1353 476L1247 515M1353 476L1305 485M1353 476L1418 524M1400 442L1460 474M1400 442L1305 485M1400 442L1418 524M1460 474L1418 524M1460 474L1513 490M1460 474L1439 574M1460 474L1473 564M1576 403L1636 473M1576 403L1513 490M1636 473L1685 453M1636 473L1657 515M1636 473L1604 566M1685 453L1657 515M1685 453L1731 510M1839 437L1851 454M1839 437L1794 514M1839 437L1844 500M1851 454L1794 514M1851 454L1844 500M1944 401L2045 423M1944 401L2014 486M2045 423L2101 449M2045 423L2014 486M2101 449L2173 413M2101 449L2014 486M2173 413L2290 477M2290 477L2388 433M2290 477L2263 525M2290 477L2347 540M2290 477L2256 563M2388 433L2441 428M2441 428L2487 406M2441 428L2505 504M2487 406L2505 504M42 491L110 489M42 491L-55 504M2602 491L2505 504M110 489L164 568M217 541L269 539M217 541L164 568M217 541L280 630M269 539L348 489M269 539L280 630M269 539L257 640M348 489L425 513M348 489L391 596M425 513L391 596M425 513L432 606M529 482L577 543M529 482L496 596M577 543L615 623M577 543L650 589M661 517L767 524M661 517L650 589M767 524L854 559M767 524L772 563M767 524L836 567M854 559L880 554M854 559L772 563M854 559L836 567M854 559L938 604M880 554L836 567M880 554L938 604M880 554L987 565M880 554L922 661M983 514L938 604M983 514L987 565M1114 559L1159 485M1114 559L1081 640M1114 559L1167 602M1114 559L1211 575M1159 485L1247 515M1247 515L1305 485M1247 515L1211 575M1305 485L1326 595M1418 524L1439 574M1418 524L1473 564M1513 490L1546 558M1513 490L1473 564M1513 490L1580 563M1546 558L1439 574M1546 558L1473 564M1546 558L1580 563M1546 558L1604 566M1657 515L1731 510M1657 515L1580 563M1657 515L1604 566M1731 510L1794 514M1731 510L1708 583M1794 514L1844 500M1794 514L1806 591M1844 500L1806 591M1946 536L2014 486M1946 536L1892 614M1946 536L1923 627M1946 536L2018 606M2014 486L2090 549M2090 549L2171 530M2090 549L2018 606M2090 549L2102 610M2171 530L2263 525M2171 530L2187 607M2171 530L2256 563M2263 525L2347 540M2263 525L2256 563M2347 540L2414 543M2347 540L2256 563M2347 540L2350 592M2414 543L2505 504M2414 543L2350 592M2414 543L2426 589M2505 504L2548 616M34 637L97 635M34 637L-12 616M34 637L36 667M34 637L113 685M2594 637L2548 616M97 635L164 568M97 635L-12 616M97 635L36 667M97 635L113 685M2657 635L2548 616M164 568L216 668M280 630L216 668M280 630L257 640M280 630L355 674M391 596L432 606M391 596L355 674M391 596L439 664M432 606L496 596M432 606L439 664M496 596L439 664M496 596L539 643M615 623L650 589M615 623L539 643M615 623L630 685M615 623L641 649M650 589L630 685M650 589L641 649M772 563L836 567M772 563L807 644M836 567L807 644M938 604L987 565M938 604L922 661M1081 640L1167 602M1081 640L1043 714M1081 640L1145 655M1081 640L1051 720M1167 602L1211 575M1167 602L1145 655M1211 575L1145 655M1326 595L1260 712M1326 595L1320 651M1326 595L1384 654M1439 574L1473 564M1439 574L1384 654M1580 563L1604 566M1580 563L1708 583M1604 566L1708 583M1708 583L1806 591M1806 591L1892 614M1806 591L1773 682M1892 614L1923 627M1892 614L1904 678M1892 614L1921 643M1923 627L1904 678M1923 627L1921 643M1923 627L2010 646M2018 606L2102 610M2018 606L1921 643M2018 606L2010 646M2102 610L2187 607M2102 610L2010 646M2102 610L2122 658M2187 607L2256 563M2187 607L2122 658M2187 607L2202 680M2350 592L2426 589M2350 592L2351 685M2548 616L2596 667M2548 616L2498 710M-12 616L36 667M36 667L113 685M113 685L81 777M113 685L196 720M216 668L257 640M216 668L196 720M216 668L319 733M257 640L196 720M355 674L439 664M355 674L319 733M355 674L397 759M630 685L641 649M630 685L591 728M630 685L669 754M641 649L591 728M783 677L807 644M783 677L803 762M922 661L989 696M922 661L941 723M989 696L1043 714M989 696L941 723M989 696L971 746M989 696L1051 720M1043 714L971 746M1043 714L1051 720M1043 714L1046 810M1145 655L1142 745M1260 712L1320 651M1260 712L1208 777M1260 712L1301 781M1260 712L1257 804M1320 651L1384 654M1507 716L1543 719M1507 716L1427 794M1507 716L1495 760M1507 716L1585 730M1507 716L1488 802M1543 719L1495 760M1543 719L1585 730M1654 712L1681 709M1654 712L1773 682M1654 712L1585 730M1654 712L1675 763M1654 712L1706 750M1681 709L1773 682M1681 709L1675 763M1681 709L1706 750M1773 682L1706 750M1773 682L1800 764M1904 678L1921 643M1904 678L1971 754M1921 643L2010 646M2010 646L2054 733M2122 658L2202 680M2122 658L2054 733M2122 658L2120 732M2202 680L2258 700M2202 680L2207 726M2202 680L2249 764M2258 700L2351 685M2258 700L2207 726M2258 700L2249 764M2351 685L2446 713M2351 685L2404 744M2446 713L2498 710M2446 713L2384 787M2446 713L2404 744M2446 713L2500 770M2498 710L2404 744M2498 710L2500 770M2498 710L2502 816M28 787L81 777M28 787L-60 770M28 787L29 863M28 787L111 819M28 787L-58 816M2588 787L2500 770M2588 787L2502 816M81 777L29 863M81 777L111 819M81 777L165 815M196 720L165 815M319 733L397 759M319 733L295 843M397 759L443 776M397 759L457 843M443 776L518 763M443 776L457 843M443 776L499 842M518 763L591 728M518 763L499 842M518 763L589 820M591 728L669 754M669 754L774 798M669 754L589 820M669 754L682 828M774 798L803 762M774 798L682 828M774 798L736 873M774 798L864 823M803 762L864 823M941 723L971 746M941 723L864 823M971 746L1051 720M971 746L1005 832M1051 720L1046 810M1142 745L1208 777M1142 745L1046 810M1142 745L1131 858M1208 777L1301 781M1208 777L1131 858M1208 777L1257 804M1301 781L1257 804M1301 781L1307 868M1301 781L1400 809M1427 794L1495 760M1427 794L1400 809M1427 794L1488 802M1427 794L1411 890M1495 760L1585 730M1495 760L1488 802M1585 730L1675 763M1675 763L1706 750M1675 763L1719 832M1706 750L1719 832M1800 764L1854 790M1800 764L1719 832M1800 764L1828 805M1854 790L1971 754M1854 790L1828 805M1854 790L1897 852M1971 754L2054 733M1971 754L2014 817M2054 733L2120 732M2054 733L2014 817M2120 732L2207 726M2207 726L2249 764M2249 764L2208 845M2249 764L2287 831M2384 787L2404 744M2384 787L2376 818M2404 744L2376 818M2500 770L2502 816M29 863L111 819M29 863L80 920M29 863L-48 896M2589 863L2512 896M111 819L165 815M111 819L80 920M165 815L295 843M165 815L126 928M295 843L368 864M295 843L302 927M295 843L350 907M368 864L457 843M368 864L302 927M368 864L350 907M368 864L427 943M457 843L499 842M499 842L589 820M589 820L682 828M589 820L604 901M682 828L736 873M682 828L686 916M736 873L686 916M736 873L773 959M864 823L917 869M917 869L1005 832M917 869L843 941M917 869L900 960M917 869L978 939M1005 832L1046 810M1005 832L978 939M1046 810L1131 858M1131 858L1091 935M1131 858L1182 915M1257 804L1307 868M1307 868L1400 809M1307 868L1275 947M1307 868L1314 921M1400 809L1488 802M1400 809L1411 890M1488 802L1541 854M1541 854L1606 867M1541 854L1534 897M1541 854L1630 919M1606 867L1534 897M1606 867L1630 919M1719 832L1828 805M1719 832L1717 941M1828 805L1897 852M1897 852L1935 879M1935 879L2014 817M1935 879L1873 938M1935 879L1939 959M2014 817L2068 882M2129 851L2208 845M2129 851L2068 882M2129 851L2149 935M2129 851L2106 967M2208 845L2287 831M2208 845L2149 935M2208 845L2229 888M2287 831L2229 888M2287 831L2296 918M2287 831L2354 888M2376 818L2354 888M2456 872L2502 816M2456 872L2431 940M2456 872L2512 896M2456 872L2472 966M2502 816L2512 896M80 920L126 928M80 920L133 983M80 920L60 1040M126 928L194 955M126 928L133 983M194 955L133 983M194 955L210 1018M302 927L350 907M302 927L281 1013M302 927L352 1006M350 907L427 943M350 907L352 1006M427 943L525 957M427 943L441 964M525 957L604 901M525 957L441 964M525 957L556 975M525 957L608 1034M604 901L686 916M604 901L556 975M604 901L645 985M686 916L773 959M686 916L645 985M773 959L843 941M773 959L764 1016M843 941L900 960M843 941L764 1016M843 941L863 1027M900 960L978 939M900 960L863 1027M900 960L935 1029M978 939L935 1029M978 939L1003 985M1091 935L1182 915M1091 935L1003 985M1091 935L1075 961M1182 915L1275 947M1182 915L1075 961M1182 915L1159 1036M1275 947L1314 921M1275 947L1243 1030M1314 921L1411 890M1411 890L1443 940M1411 890L1534 897M1443 940L1534 897M1443 940L1410 1032M1443 940L1515 1032M1443 940L1523 1038M1534 897L1630 919M1630 919L1717 941M1630 919L1612 1006M1717 941L1788 923M1717 941L1690 1036M1788 923L1838 1006M1873 938L1939 959M1873 938L1838 1006M1873 938L1901 982M1873 938L1925 993M1939 959L1901 982M1939 959L1925 993M1939 959L2042 975M2068 882L2042 975M2068 882L2106 967M2149 935L2229 888M2149 935L2106 967M2229 888L2296 918M2229 888L2290 961M2296 918L2354 888M2296 918L2290 961M2354 888L2431 940M2354 888L2290 961M2431 940L2387 997M2431 940L2472 966M2431 940L2495 997M2512 896L2472 966M2512 896L2495 997M20 1019L-65 997M20 1019L60 1040M2580 1019L2495 997M133 983L210 1018M133 983L113 1064M210 1018L281 1013M210 1018L113 1064M210 1018L184 1081M281 1013L352 1006M281 1013L352 1046M352 1006L441 964M352 1006L352 1046M441 964L472 1079M556 975L608 1034M556 975L645 985M608 1034L645 985M608 1034L562 1090M608 1034L657 1110M764 1016L863 1027M764 1016L721 1089M863 1027L935 1029M863 1027L884 1076M935 1029L1003 985M935 1029L884 1076M1003 985L1075 961M1159 1036L1243 1030M1159 1036L1077 1091M1159 1036L1140 1093M1159 1036L1220 1046M1243 1030L1332 1033M1243 1030L1220 1046M1243 1030L1284 1127M1332 1033L1410 1032M1332 1033L1332 1103M1332 1033L1371 1064M1410 1032L1371 1064M1410 1032L1450 1089M1515 1032L1523 1038M1515 1032L1612 1006M1515 1032L1530 1082M1523 1038L1612 1006M1523 1038L1450 1089M1523 1038L1530 1082M1612 1006L1690 1036M1690 1036L1650 1102M1690 1036L1732 1090M1690 1036L1680 1135M1838 1006L1901 982M1838 1006L1925 993M1838 1006L1850 1082M1901 982L1925 993M1901 982L1850 1082M1925 993L2042 975M2042 975L2106 967M2106 967L2182 1037M2182 1037L2123 1081M2182 1037L2187 1057M2182 1037L2270 1077M2182 1037L2157 1142M2290 961L2387 997M2387 997L2472 966M2387 997L2350 1065M2472 966L2495 997M2495 997L2459 1069M60 1040L113 1064M113 1064L184 1081M113 1064L86 1166M184 1081L199 1148M184 1081L243 1142M292 1120L352 1046M292 1120L199 1148M292 1120L243 1142M292 1120L338 1128M292 1120L275 1200M352 1046L338 1128M472 1079L492 1111M472 1079L562 1090M492 1111L562 1090M492 1111L473 1193M492 1111L436 1208M562 1090L657 1110M562 1090L605 1161M657 1110L721 1089M657 1110L605 1161M657 1110L715 1196M721 1089L826 1119M721 1089L715 1196M721 1089L743 1196M826 1119L884 1076M826 1119L743 1196M826 1119L879 1137M826 1119L897 1144M884 1076L879 1137M884 1076L897 1144M1010 1102L1077 1091M1010 1102L990 1188M1010 1102L1041 1181M1077 1091L1140 1093M1077 1091L1041 1181M1077 1091L1149 1183M1140 1093L1220 1046M1140 1093L1149 1183M1220 1046L1284 1127M1332 1103L1371 1064M1332 1103L1265 1168M1332 1103L1284 1127M1332 1103L1323 1210M1371 1064L1450 1089M1450 1089L1530 1082M1450 1089L1446 1147M1530 1082L1446 1147M1530 1082L1574 1169M1650 1102L1732 1090M1650 1102L1574 1169M1650 1102L1680 1135M1732 1090L1794 1092M1732 1090L1680 1135M1732 1090L1827 1125M1794 1092L1850 1082M1794 1092L1827 1125M1850 1082L1827 1125M1850 1082L1887 1158M1989 1099L2033 1112M1989 1099L1887 1158M1989 1099L1937 1178M1989 1099L2020 1190M2033 1112L2123 1081M2033 1112L2020 1190M2033 1112L1992 1215M2123 1081L2187 1057M2123 1081L2157 1142M2187 1057L2270 1077M2187 1057L2157 1142M2187 1057L2232 1153M2270 1077L2350 1065M2270 1077L2308 1129M2270 1077L2328 1148M2350 1065L2459 1069M2350 1065L2308 1129M2350 1065L2328 1148M2459 1069L2482 1098M2482 1098L2450 1198M2482 1098L2521 1176M2 1199L86 1166M2 1199L-39 1176M2 1199L18 1215M2 1199L-22 1273M2562 1199L2521 1176M2562 1199L2538 1273M86 1166L18 1215M86 1166L116 1264M199 1148L243 1142M199 1148L207 1212M199 1148L275 1200M243 1142L207 1212M243 1142L275 1200M473 1193L526 1196M473 1193L436 1208M473 1193L559 1218M526 1196L605 1161M526 1196L436 1208M526 1196L559 1218M526 1196L569 1264M605 1161L559 1218M715 1196L743 1196M715 1196L714 1244M715 1196L732 1272M743 1196L714 1244M743 1196L732 1272M879 1137L897 1144M879 1137L849 1225M897 1144L849 1225M990 1188L1041 1181M990 1188L929 1249M990 1188L1023 1234M1041 1181L1023 1234M1041 1181L1080 1231M1149 1183L1080 1231M1149 1183L1186 1230M1149 1183L1207 1216M1265 1168L1284 1127M1265 1168L1186 1230M1265 1168L1207 1216M1265 1168L1323 1210M1284 1127L1323 1210M1411 1193L1446 1147M1411 1193L1323 1210M1411 1193L1437 1206M1411 1193L1442 1249M1411 1193L1467 1281M1446 1147L1437 1206M1446 1147L1442 1249M1574 1169L1572 1217M1574 1169L1605 1223M1680 1135L1728 1195M1680 1135L1721 1218M1728 1195L1721 1218M1728 1195L1680 1289M1728 1195L1723 1282M1827 1125L1887 1158M1887 1158L1937 1178M1887 1158L1888 1243M1937 1178L2020 1190M1937 1178L1888 1243M1937 1178L1992 1215M2020 1190L1992 1215M2020 1190L2037 1260M2157 1142L2232 1153M2157 1142L2196 1233M2232 1153L2308 1129M2232 1153L2328 1148M2232 1153L2196 1233M2308 1129L2328 1148M2450 1198L2521 1176M2450 1198L2443 1221M2521 1176L2578 1215M2521 1176L2443 1221M-39 1176L18 1215M18 1215L-22 1273M18 1215L6 1307M2578 1215L2538 1273M116 1264L6 1307M116 1264L160 1343M116 1264L233 1296M207 1212L275 1200M207 1212L233 1296M207 1212L258 1291M275 1200L258 1291M343 1265L436 1208M343 1265L258 1291M343 1265L368 1308M343 1265L411 1339M343 1265L366 1363M559 1218L569 1264M569 1264L500 1343M569 1264L625 1353M569 1264L649 1288M714 1244L732 1272M714 1244L649 1288M732 1272L649 1288M732 1272L774 1350M849 1225L929 1249M849 1225L833 1330M929 1249L1023 1234M929 1249L881 1336M1023 1234L1080 1231M1080 1231L1186 1230M1080 1231L1118 1312M1186 1230L1207 1216M1186 1230L1118 1312M1323 1210L1332 1284M1437 1206L1442 1249M1437 1206L1467 1281M1442 1249L1403 1349M1442 1249L1467 1281M1572 1217L1605 1223M1605 1223L1680 1289M1721 1218L1808 1256M1721 1218L1680 1289M1721 1218L1723 1282M1808 1256L1888 1243M1808 1256L1723 1282M1808 1256L1827 1328M1808 1256L1879 1291M1888 1243L1879 1291M1888 1243L1925 1315M1992 1215L2037 1260M1992 1215L2033 1295M2037 1260L2147 1265M2037 1260L2033 1295M2147 1265L2196 1233M2147 1265L2115 1306M2147 1265L2199 1319M2147 1265L2145 1371M2196 1233L2199 1319M2293 1271L2334 1275M2293 1271L2267 1352M2293 1271L2357 1349M2293 1271L2336 1367M2334 1275L2357 1349M2334 1275L2336 1367M2443 1221L2431 1314M2443 1221L2493 1317M2538 1273L2566 1307M2538 1273L2493 1317M-22 1273L6 1307M6 1307L-67 1317M6 1307L-75 1365M2566 1307L2493 1317M2566 1307L2485 1365M160 1343L233 1296M160 1343L258 1291M160 1343L140 1439M160 1343L164 1406M233 1296L258 1291M368 1308L411 1339M368 1308L366 1363M411 1339L500 1343M411 1339L366 1363M411 1339L447 1400M500 1343L447 1400M500 1343L536 1423M625 1353L649 1288M625 1353L638 1395M625 1353L649 1365M649 1288L649 1365M774 1350L833 1330M774 1350L782 1378M833 1330L881 1336M833 1330L782 1378M881 1336L941 1416M1022 1348L1118 1312M1022 1348L987 1387M1022 1348L1054 1406M1118 1312L1143 1352M1143 1352L1253 1338M1143 1352L1054 1406M1143 1352L1164 1413M1143 1352L1247 1420M1253 1338L1332 1284M1253 1338L1247 1420M1253 1338L1294 1381M1332 1284L1403 1349M1332 1284L1294 1381M1332 1284L1367 1398M1403 1349L1467 1281M1403 1349L1367 1398M1403 1349L1463 1430M1467 1281L1532 1356M1532 1356L1463 1430M1532 1356L1561 1416M1532 1356L1649 1365M1680 1289L1723 1282M1680 1289L1649 1365M1827 1328L1879 1291M1827 1328L1925 1315M1827 1328L1754 1409M1827 1328L1792 1392M1879 1291L1925 1315M1925 1315L1905 1423M1925 1315L1997 1379M2033 1295L2115 1306M2033 1295L1997 1379M2033 1295L2076 1382M2115 1306L2199 1319M2115 1306L2076 1382M2115 1306L2145 1371M2199 1319L2267 1352M2199 1319L2145 1371M2267 1352L2292 1378M2267 1352L2336 1367M2357 1349L2431 1314M2357 1349L2292 1378M2357 1349L2336 1367M2431 1314L2493 1317M2431 1314L2485 1365M2493 1317L2485 1365M52 1433L140 1439M52 1433L164 1406M140 1439L164 1406M295 1425L366 1363M366 1363L447 1400M447 1400L536 1423M536 1423L638 1395M638 1395L649 1365M782 1378L860 1435M860 1435L941 1416M941 1416L987 1387M987 1387L1054 1406M1164 1413L1247 1420M1247 1420L1294 1381M1294 1381L1367 1398M1463 1430L1561 1416M1561 1416L1649 1365M1754 1409L1792 1392M1792 1392L1905 1423M1905 1423L1997 1379M1997 1379L2076 1382M2076 1382L2145 1371M2145 1371L2171 1437M2292 1378L2336 1367M2441 1409L2485 1365"/></svg>