<svg xmlns="http://www.w3.org/2000/svg" width="2560" height="1440" fill="#fff"><circle cx="26" cy="62" r="5"/><circle cx="101" cy="30" r="6"/><circle cx="180" cy="65" r="5"/><circle cx="285" cy="58" r="5"/><circle cx="321" cy="29" r="5"/><circle cx="443" cy="19" r="4"/><circle cx="523" cy="77" r="6"/><circle cx="602" cy="26" r="5"/><circle cx="682" cy="34" r="6"/><circle cx="794" cy="59" r="6"/><circle cx="822" cy="52" r="5"/><circle cx="907" cy="13" r="5"/><circle cx="974" cy="54" r="4"/><circle cx="1074" cy="20" r="5"/><circle cx="1136" cy="23" r="5"/><circle cx="1233" cy="45" r="5"/><circle cx="1296" cy="54" r="5"/><circle cx="1361" cy="65" r="5"/><circle cx="1471" cy="67" r="5"/><circle cx="1531" cy="76" r="6"/><circle cx="1630" cy="41" r="4"/><circle cx="1722" cy="37" r="6"/><circle cx="1829" cy="5" r="5"/><circle cx="1849" cy="24" r="4"/><circle cx="1921" cy="60" r="5"/><circle cx="2023" cy="19" r="5"/><circle cx="2098" cy="55" r="5"/><circle cx="2237" cy="22" r="6"/><circle cx="2283" cy="46" r="4"/><circle cx="2342" cy="46" r="4"/><circle cx="2465" cy="19" r="5"/><circle cx="2488" cy="51" r="6"/><circle cx="5" cy="100" r="6"/><circle cx="2565" cy="100" r="6"/><circle cx="101" cy="109" r="4"/><circle cx="210" cy="147" r="5"/><circle cx="295" cy="104" r="5"/><circle cx="360" cy="125" r="4"/><circle cx="455" cy="136" r="4"/><circle cx="541" cy="119" r="5"/><circle cx="608" cy="145" r="6"/><circle cx="699" cy="149" r="4"/><circle cx="748" cy="128" r="5"/><circle cx="821" cy="132" r="6"/><circle cx="887" cy="105" r="5"/><circle cx="979" cy="151" r="5"/><circle cx="1100" cy="83" r="5"/><circle cx="1200" cy="94" r="4"/><circle cx="1246" cy="136" r="6"/><circle cx="1336" cy="150" r="5"/><circle cx="1435" cy="125" r="4"/><circle cx="1469" cy="94" r="6"/><circle cx="1543" cy="111" r="6"/><circle cx="1658" cy="153" r="4"/><circle cx="1711" cy="117" r="5"/><circle cx="1797" cy="136" r="6"/><circle cx="1919" cy="126" r="5"/><circle cx="1966" cy="123" r="5"/><circle cx="2007" cy="121" r="5"/><circle cx="2105" cy="86" r="4"/><circle cx="2223" cy="147" r="5"/><circle cx="2260" cy="98" r="5"/><circle cx="2324" cy="126" r="6"/><circle cx="2404" cy="80" r="4"/><circle cx="2555" cy="114" r="5"/><circle cx="-5" cy="114" r="5"/><circle cx="53" cy="165" r="5"/><circle cx="141" cy="196" r="6"/><circle cx="212" cy="195" r="5"/><circle cx="300" cy="229" r="5"/><circle cx="351" cy="202" r="5"/><circle cx="436" cy="189" r="5"/><circle cx="503" cy="179" r="5"/><circle cx="599" cy="216" r="6"/><circle cx="710" cy="226" r="5"/><circle cx="762" cy="176" r="5"/><circle cx="878" cy="232" r="5"/><circle cx="947" cy="221" r="5"/><circle cx="1027" cy="172" r="5"/><circle cx="1069" cy="166" r="5"/><circle cx="1133" cy="236" r="6"/><circle cx="1248" cy="165" r="5"/><circle cx="1301" cy="218" r="5"/><circle cx="1390" cy="238" r="5"/><circle cx="1503" cy="182" r="6"/><circle cx="1584" cy="227" r="5"/><circle cx="1668" cy="224" r="5"/><circle cx="1698" cy="226" r="4"/><circle cx="1805" cy="214" r="5"/><circle cx="1872" cy="169" r="4"/><circle cx="1939" cy="170" r="6"/><circle cx="2034" cy="222" r="6"/><circle cx="2089" cy="189" r="5"/><circle cx="2182" cy="234" r="5"/><circle cx="2308" cy="229" r="5"/><circle cx="2388" cy="173" r="4"/><circle cx="2403" cy="222" r="6"/><circle cx="2490" cy="169" r="6"/><circle cx="32" cy="242" r="4"/><circle cx="141" cy="276" r="5"/><circle cx="191" cy="252" r="5"/><circle cx="278" cy="272" r="4"/><circle cx="330" cy="299" r="6"/><circle cx="427" cy="313" r="5"/><circle cx="519" cy="284" r="6"/><circle cx="580" cy="306" r="5"/><circle cx="645" cy="260" r="5"/><circle cx="748" cy="280" r="6"/><circle cx="838" cy="303" r="5"/><circle cx="921" cy="301" r="5"/><circle cx="994" cy="286" r="5"/><circle cx="1085" cy="267" r="4"/><circle cx="1170" cy="282" r="5"/><circle cx="1236" cy="315" r="4"/><circle cx="1310" cy="244" r="5"/><circle cx="1408" cy="297" r="4"/><circle cx="1450" cy="318" r="6"/><circle cx="1565" cy="308" r="6"/><circle cx="1636" cy="258" r="6"/><circle cx="1685" cy="255" r="5"/><circle cx="1817" cy="278" r="6"/><circle cx="1868" cy="249" r="5"/><circle cx="1930" cy="269" r="6"/><circle cx="2016" cy="243" r="6"/><circle cx="2148" cy="247" r="6"/><circle cx="2223" cy="318" r="5"/><circle cx="2317" cy="297" r="6"/><circle cx="2388" cy="267" r="5"/><circle cx="2458" cy="256" r="6"/><circle cx="2552" cy="319" r="5"/><circle cx="63" cy="323" r="4"/><circle cx="113" cy="351" r="4"/><circle cx="203" cy="339" r="4"/><circle cx="288" cy="320" r="5"/><circle cx="345" cy="359" r="6"/><circle cx="429" cy="398" r="4"/><circle cx="541" cy="354" r="4"/><circle cx="588" cy="371" r="5"/><circle cx="673" cy="374" r="4"/><circle cx="776" cy="369" r="6"/><circle cx="813" cy="381" r="4"/><circle cx="902" cy="354" r="6"/><circle cx="988" cy="380" r="4"/><circle cx="1068" cy="377" r="5"/><circle cx="1193" cy="365" r="4"/><circle cx="1239" cy="375" r="5"/><circle cx="1333" cy="392" r="6"/><circle cx="1372" cy="394" r="4"/><circle cx="1520" cy="351" r="4"/><circle cx="1545" cy="383" r="4"/><circle cx="1667" cy="354" r="5"/><circle cx="1688" cy="386" r="5"/><circle cx="1823" cy="344" r="5"/><circle cx="1875" cy="350" r="5"/><circle cx="1994" cy="351" r="5"/><circle cx="2045" cy="399" r="5"/><circle cx="2106" cy="389" r="5"/><circle cx="2213" cy="357" r="5"/><circle cx="2314" cy="341" r="6"/><circle cx="2357" cy="348" r="5"/><circle cx="2466" cy="353" r="4"/><circle cx="2546" cy="393" r="6"/><circle cx="64" cy="404" r="5"/><circle cx="105" cy="408" r="6"/><circle cx="207" cy="415" r="5"/><circle cx="244" cy="469" r="4"/><circle cx="362" cy="458" r="5"/><circle cx="448" cy="475" r="5"/><circle cx="553" cy="465" r="6"/><circle cx="627" cy="468" r="5"/><circle cx="692" cy="462" r="4"/><circle cx="764" cy="400" r="5"/><circle cx="878" cy="424" r="4"/><circle cx="908" cy="462" r="5"/><circle cx="1010" cy="439" r="4"/><circle cx="1046" cy="434" r="6"/><circle cx="1174" cy="450" r="4"/><circle cx="1215" cy="400" r="5"/><circle cx="1283" cy="418" r="5"/><circle cx="1421" cy="402" r="6"/><circle cx="1464" cy="480" r="5"/><circle cx="1534" cy="440" r="5"/><circle cx="1656" cy="427" r="5"/><circle cx="1694" cy="448" r="5"/><circle cx="1805" cy="437" r="6"/><circle cx="1864" cy="418" r="4"/><circle cx="1989" cy="471" r="4"/><circle cx="2072" cy="422" r="5"/><circle cx="2127" cy="422" r="4"/><circle cx="2235" cy="476" r="4"/><circle cx="2296" cy="403" r="5"/><circle cx="2328" cy="453" r="5"/><circle cx="2466" cy="409" r="5"/><circle cx="2534" cy="471" r="6"/><circle cx="33" cy="549" r="4"/><circle cx="94" cy="516" r="4"/><circle cx="195" cy="487" r="4"/><circle cx="277" cy="513" r="5"/><circle cx="381" cy="488" r="6"/><circle cx="478" cy="500" r="5"/><circle cx="538" cy="503" r="5"/><circle cx="624" cy="526" r="6"/><circle cx="703" cy="550" r="5"/><circle cx="772" cy="486" r="5"/><circle cx="827" cy="492" r="6"/><circle cx="908" cy="498" r="5"/><circle cx="1029" cy="520" r="5"/><circle cx="1065" cy="518" r="5"/><circle cx="1193" cy="547" r="4"/><circle cx="1222" cy="504" r="5"/><circle cx="1353" cy="515" r="6"/><circle cx="1418" cy="500" r="4"/><circle cx="1471" cy="483" r="5"/><circle cx="1587" cy="538" r="4"/><circle cx="1675" cy="497" r="6"/><circle cx="1737" cy="560" r="5"/><circle cx="1839" cy="554" r="5"/><circle cx="1890" cy="536" r="5"/><circle cx="1956" cy="550" r="6"/><circle cx="2030" cy="516" r="5"/><circle cx="2124" cy="514" r="4"/><circle cx="2180" cy="521" r="4"/><circle cx="2272" cy="491" r="4"/><circle cx="2350" cy="523" r="5"/><circle cx="2438" cy="516" r="4"/><circle cx="2548" cy="545" r="4"/><circle cx="61" cy="587" r="5"/><circle cx="81" cy="611" r="6"/><circle cx="209" cy="608" r="4"/><circle cx="311" cy="575" r="6"/><circle cx="392" cy="562" r="5"/><circle cx="400" cy="568" r="4"/><circle cx="547" cy="583" r="6"/><circle cx="625" cy="629" r="6"/><circle cx="710" cy="599" r="5"/><circle cx="757" cy="578" r="4"/><circle cx="827" cy="562" r="5"/><circle cx="907" cy="580" r="6"/><circle cx="1019" cy="598" r="6"/><circle cx="1042" cy="602" r="4"/><circle cx="1179" cy="634" r="4"/><circle cx="1263" cy="626" r="4"/><circle cx="1302" cy="575" r="5"/><circle cx="1418" cy="593" r="5"/><circle cx="1492" cy="574" r="4"/><circle cx="1564" cy="602" r="4"/><circle cx="1659" cy="570" r="4"/><circle cx="1687" cy="608" r="5"/><circle cx="1824" cy="565" r="5"/><circle cx="1865" cy="568" r="5"/><circle cx="1946" cy="583" r="6"/><circle cx="2006" cy="570" r="5"/><circle cx="2143" cy="603" r="6"/><circle cx="2183" cy="566" r="5"/><circle cx="2292" cy="608" r="4"/><circle cx="2327" cy="592" r="6"/><circle cx="2403" cy="626" r="5"/><circle cx="2495" cy="635" r="5"/><circle cx="57" cy="715" r="5"/><circle cx="114" cy="655" r="5"/><circle cx="160" cy="686" r="5"/><circle cx="316" cy="688" r="5"/><circle cx="394" cy="655" r="4"/><circle cx="445" cy="659" r="5"/><circle cx="494" cy="652" r="5"/><circle cx="634" cy="720" r="5"/><circle cx="647" cy="673" r="4"/><circle cx="753" cy="649" r="5"/><circle cx="863" cy="663" r="6"/><circle cx="921" cy="644" r="5"/><circle cx="1004" cy="642" r="5"/><circle cx="1064" cy="697" r="6"/><circle cx="1149" cy="698" r="5"/><circle cx="1241" cy="644" r="5"/><circle cx="1309" cy="690" r="5"/><circle cx="1417" cy="694" r="6"/><circle cx="1497" cy="677" r="6"/><circle cx="1531" cy="717" r="5"/><circle cx="1621" cy="649" r="6"/><circle cx="1743" cy="644" r="6"/><circle cx="1782" cy="699" r="6"/><circle cx="1914" cy="656" r="6"/><circle cx="1921" cy="640" r="4"/><circle cx="2007" cy="664" r="5"/><circle cx="2104" cy="694" r="5"/><circle cx="2239" cy="709" r="5"/><circle cx="2301" cy="703" r="6"/><circle cx="2341" cy="654" r="5"/><circle cx="2420" cy="687" r="4"/><circle cx="2555" cy="685" r="6"/><circle cx="-5" cy="685" r="6"/><circle cx="18" cy="743" r="6"/><circle cx="116" cy="792" r="4"/><circle cx="233" cy="750" r="6"/><circle cx="272" cy="752" r="5"/><circle cx="371" cy="734" r="5"/><circle cx="441" cy="796" r="4"/><circle cx="555" cy="799" r="6"/><circle cx="614" cy="732" r="5"/><circle cx="720" cy="754" r="5"/><circle cx="740" cy="776" r="6"/><circle cx="841" cy="735" r="4"/><circle cx="912" cy="738" r="6"/><circle cx="1033" cy="784" r="5"/><circle cx="1082" cy="784" r="4"/><circle cx="1149" cy="733" r="6"/><circle cx="1221" cy="736" r="5"/><circle cx="1312" cy="766" r="5"/><circle cx="1361" cy="782" r="5"/><circle cx="1483" cy="798" r="5"/><circle cx="1538" cy="754" r="4"/><circle cx="1637" cy="784" r="6"/><circle cx="1707" cy="747" r="5"/><circle cx="1800" cy="757" r="4"/><circle cx="1875" cy="777" r="4"/><circle cx="1960" cy="777" r="5"/><circle cx="2026" cy="739" r="5"/><circle cx="2147" cy="742" r="5"/><circle cx="2180" cy="742" r="4"/><circle cx="2253" cy="788" r="5"/><circle cx="2377" cy="797" r="5"/><circle cx="2479" cy="759" r="4"/><circle cx="2552" cy="800" r="4"/><circle cx="77" cy="871" r="5"/><circle cx="92" cy="833" r="6"/><circle cx="198" cy="870" r="5"/><circle cx="256" cy="835" r="6"/><circle cx="386" cy="858" r="4"/><circle cx="419" cy="854" r="5"/><circle cx="544" cy="865" r="5"/><circle cx="612" cy="823" r="6"/><circle cx="646" cy="880" r="5"/><circle cx="758" cy="835" r="5"/><circle cx="848" cy="864" r="5"/><circle cx="931" cy="817" r="6"/><circle cx="1009" cy="842" r="6"/><circle cx="1044" cy="840" r="5"/><circle cx="1182" cy="846" r="5"/><circle cx="1259" cy="843" r="4"/><circle cx="1359" cy="814" r="5"/><circle cx="1362" cy="857" r="5"/><circle cx="1453" cy="851" r="5"/><circle cx="1546" cy="845" r="4"/><circle cx="1650" cy="828" r="5"/><circle cx="1745" cy="844" r="4"/><circle cx="1800" cy="817" r="5"/><circle cx="1891" cy="859" r="5"/><circle cx="1973" cy="868" r="6"/><circle cx="2023" cy="806" r="6"/><circle cx="2116" cy="858" r="5"/><circle cx="2218" cy="814" r="5"/><circle cx="2243" cy="871" r="5"/><circle cx="2357" cy="808" r="5"/><circle cx="2444" cy="872" r="6"/><circle cx="2504" cy="867" r="5"/><circle cx="42" cy="936" r="5"/><circle cx="146" cy="905" r="4"/><circle cx="162" cy="935" r="5"/><circle cx="249" cy="949" r="4"/><circle cx="329" cy="955" r="4"/><circle cx="478" cy="960" r="4"/><circle cx="513" cy="892" r="4"/><circle cx="577" cy="908" r="5"/><circle cx="692" cy="884" r="5"/><circle cx="792" cy="888" r="5"/><circle cx="836" cy="895" r="4"/><circle cx="898" cy="900" r="5"/><circle cx="1004" cy="881" r="4"/><circle cx="1100" cy="884" r="5"/><circle cx="1150" cy="896" r="5"/><circle cx="1252" cy="902" r="6"/><circle cx="1319" cy="892" r="4"/><circle cx="1385" cy="922" r="5"/><circle cx="1460" cy="952" r="4"/><circle cx="1534" cy="913" r="5"/><circle cx="1618" cy="883" r="4"/><circle cx="1707" cy="905" r="5"/><circle cx="1814" cy="928" r="5"/><circle cx="1892" cy="934" r="5"/><circle cx="1978" cy="915" r="5"/><circle cx="2011" cy="947" r="5"/><circle cx="2104" cy="944" r="6"/><circle cx="2187" cy="937" r="6"/><circle cx="2309" cy="906" r="5"/><circle cx="2337" cy="903" r="5"/><circle cx="2417" cy="932" r="5"/><circle cx="2547" cy="921" r="4"/><circle cx="45" cy="978" r="5"/><circle cx="102" cy="1036" r="5"/><circle cx="163" cy="973" r="6"/><circle cx="309" cy="982" r="5"/><circle cx="385" cy="1026" r="5"/><circle cx="418" cy="998" r="5"/><circle cx="551" cy="1015" r="4"/><circle cx="597" cy="1016" r="4"/><circle cx="657" cy="978" r="6"/><circle cx="746" cy="977" r="4"/><circle cx="846" cy="967" r="5"/><circle cx="886" cy="1010" r="6"/><circle cx="1010" cy="974" r="6"/><circle cx="1097" cy="997" r="5"/><circle cx="1163" cy="965" r="4"/><circle cx="1262" cy="1002" r="6"/><circle cx="1331" cy="964" r="6"/><circle cx="1400" cy="991" r="5"/><circle cx="1492" cy="971" r="5"/><circle cx="1598" cy="986" r="6"/><circle cx="1617" cy="1013" r="6"/><circle cx="1702" cy="973" r="6"/><circle cx="1764" cy="987" r="6"/><circle cx="1885" cy="1027" r="4"/><circle cx="1940" cy="983" r="5"/><circle cx="2033" cy="980" r="5"/><circle cx="2121" cy="1036" r="5"/><circle cx="2165" cy="1021" r="5"/><circle cx="2272" cy="972" r="4"/><circle cx="2389" cy="1016" r="6"/><circle cx="2425" cy="964" r="5"/><circle cx="2553" cy="1004" r="6"/><circle cx="10" cy="1042" r="5"/><circle cx="132" cy="1065" r="4"/><circle cx="193" cy="1095" r="6"/><circle cx="317" cy="1093" r="4"/><circle cx="326" cy="1111" r="4"/><circle cx="452" cy="1095" r="5"/><circle cx="514" cy="1114" r="4"/><circle cx="605" cy="1047" r="5"/><circle cx="701" cy="1068" r="5"/><circle cx="741" cy="1066" r="4"/><circle cx="860" cy="1099" r="4"/><circle cx="917" cy="1069" r="4"/><circle cx="1027" cy="1107" r="5"/><circle cx="1102" cy="1086" r="4"/><circle cx="1151" cy="1109" r="4"/><circle cx="1240" cy="1084" r="6"/><circle cx="1335" cy="1059" r="4"/><circle cx="1433" cy="1072" r="4"/><circle cx="1496" cy="1116" r="4"/><circle cx="1567" cy="1099" r="6"/><circle cx="1605" cy="1072" r="5"/><circle cx="1743" cy="1115" r="4"/><circle cx="1772" cy="1061" r="5"/><circle cx="1863" cy="1054" r="5"/><circle cx="1956" cy="1079" r="4"/><circle cx="2007" cy="1099" r="5"/><circle cx="2088" cy="1081" r="5"/><circle cx="2177" cy="1064" r="5"/><circle cx="2316" cy="1059" r="5"/><circle cx="2324" cy="1062" r="5"/><circle cx="2417" cy="1040" r="5"/><circle cx="2537" cy="1081" r="6"/><circle cx="75" cy="1150" r="4"/><circle cx="89" cy="1169" r="5"/><circle cx="197" cy="1170" r="5"/><circle cx="244" cy="1148" r="6"/><circle cx="375" cy="1194" r="5"/><circle cx="419" cy="1157" r="5"/><circle cx="517" cy="1178" r="5"/><circle cx="575" cy="1134" r="4"/><circle cx="696" cy="1137" r="4"/><circle cx="730" cy="1191" r="5"/><circle cx="808" cy="1142" r="4"/><circle cx="893" cy="1158" r="5"/><circle cx="973" cy="1146" r="4"/><circle cx="1067" cy="1168" r="4"/><circle cx="1194" cy="1192" r="6"/><circle cx="1230" cy="1139" r="6"/><circle cx="1296" cy="1130" r="5"/><circle cx="1389" cy="1168" r="5"/><circle cx="1474" cy="1165" r="4"/><circle cx="1575" cy="1170" r="5"/><circle cx="1644" cy="1130" r="4"/><circle cx="1706" cy="1143" r="5"/><circle cx="1823" cy="1130" r="5"/><circle cx="1900" cy="1196" r="5"/><circle cx="1947" cy="1197" r="6"/><circle cx="2051" cy="1172" r="5"/><circle cx="2156" cy="1182" r="4"/><circle cx="2226" cy="1130" r="4"/><circle cx="2284" cy="1197" r="5"/><circle cx="2396" cy="1163" r="4"/><circle cx="2448" cy="1186" r="5"/><circle cx="2523" cy="1195" r="5"/><circle cx="4" cy="1260" r="6"/><circle cx="2564" cy="1260" r="6"/><circle cx="136" cy="1258" r="4"/><circle cx="232" cy="1258" r="5"/><circle cx="288" cy="1258" r="4"/><circle cx="322" cy="1234" r="5"/><circle cx="443" cy="1241" r="4"/><circle cx="543" cy="1229" r="6"/><circle cx="584" cy="1238" r="6"/><circle cx="647" cy="1274" r="5"/><circle cx="772" cy="1275" r="5"/><circle cx="862" cy="1226" r="4"/><circle cx="926" cy="1203" r="5"/><circle cx="981" cy="1243" r="5"/><circle cx="1087" cy="1262" r="6"/><circle cx="1155" cy="1230" r="6"/><circle cx="1213" cy="1239" r="6"/><circle cx="1331" cy="1253" r="6"/><circle cx="1392" cy="1280" r="5"/><circle cx="1485" cy="1279" r="5"/><circle cx="1582" cy="1226" r="4"/><circle cx="1621" cy="1261" r="6"/><circle cx="1752" cy="1279" r="5"/><circle cx="1825" cy="1269" r="5"/><circle cx="1888" cy="1203" r="6"/><circle cx="1996" cy="1250" r="5"/><circle cx="2022" cy="1270" r="5"/><circle cx="2112" cy="1202" r="5"/><circle cx="2174" cy="1234" r="6"/><circle cx="2244" cy="1236" r="5"/><circle cx="2387" cy="1240" r="5"/><circle cx="2418" cy="1258" r="5"/><circle cx="2490" cy="1271" r="6"/><circle cx="32" cy="1318" r="5"/><circle cx="120" cy="1345" r="4"/><circle cx="238" cy="1310" r="5"/><circle cx="298" cy="1360" r="6"/><circle cx="369" cy="1281" r="4"/><circle cx="424" cy="1360" r="4"/><circle cx="512" cy="1349" r="5"/><circle cx="591" cy="1330" r="4"/><circle cx="665" cy="1349" r="5"/><circle cx="739" cy="1343" r="5"/><circle cx="848" cy="1359" r="5"/><circle cx="881" cy="1310" r="5"/><circle cx="962" cy="1360" r="4"/><circle cx="1069" cy="1342" r="5"/><circle cx="1126" cy="1325" r="5"/><circle cx="1268" cy="1330" r="5"/><circle cx="1301" cy="1309" r="5"/><circle cx="1367" cy="1322" r="5"/><circle cx="1516" cy="1334" r="4"/><circle cx="1557" cy="1307" r="5"/><circle cx="1655" cy="1337" r="5"/><circle cx="1706" cy="1350" r="5"/><circle cx="1768" cy="1320" r="4"/><circle cx="1847" cy="1295" r="5"/><circle cx="1994" cy="1326" r="6"/><circle cx="2006" cy="1340" r="5"/><circle cx="2092" cy="1305" r="4"/><circle cx="2189" cy="1327" r="4"/><circle cx="2288" cy="1305" r="5"/><circle cx="2331" cy="1360" r="5"/><circle cx="2465" cy="1350" r="4"/><circle cx="2503" cy="1292" r="4"/><circle cx="12" cy="1390" r="5"/><circle cx="83" cy="1404" r="5"/><circle cx="209" cy="1417" r="5"/><circle cx="309" cy="1387" r="4"/><circle cx="375" cy="1389" r="5"/><circle cx="449" cy="1367" r="6"/><circle cx="549" cy="1437" r="6"/><circle cx="549" cy="-3" r="6"/><circle cx="593" cy="1395" r="5"/><circle cx="652" cy="1389" r="5"/><circle cx="760" cy="1418" r="6"/><circle cx="860" cy="1372" r="5"/><circle cx="908" cy="1392" r="5"/><circle cx="1010" cy="1385" r="5"/><circle cx="1042" cy="1401" r="5"/><circle cx="1191" cy="1389" r="4"/><circle cx="1210" cy="1412" r="6"/><circle cx="1282" cy="1386" r="5"/><circle cx="1375" cy="1410" r="5"/><circle cx="1454" cy="1374" r="5"/><circle cx="1563" cy="1390" r="5"/><circle cx="1656" cy="1365" r="4"/><circle cx="1729" cy="1379" r="6"/><circle cx="1782" cy="1420" r="4"/><circle cx="1863" cy="1387" r="5"/><circle cx="1948" cy="1438" r="5"/><circle cx="1948" cy="-2" r="5"/><circle cx="2015" cy="1391" r="5"/><circle cx="2153" cy="1380" r="6"/><circle cx="2221" cy="1410" r="6"/><circle cx="2246" cy="1410" r="4"/><circle cx="2390" cy="1411" r="6"/><circle cx="2459" cy="1407" r="5"/><circle cx="2499" cy="1394" r="5"/><path stroke="#fff" d="M26 62L101 30M26 62L5 100M26 62L101 109M26 62L-5 114M2586 62L2555 114M101 30L180 65M101 30L101 109M101 30L83 -36M101 1470L83 1404M180 65L285 58M180 65L101 109M180 65L210 147M180 65L209 -23M180 1505L209 1417M285 58L321 29M285 58L295 104M285 58L360 125M321 29L295 104M321 29L309 -53M321 29L375 -51M321 1469L309 1387M321 1469L375 1389M443 19L424 -80M443 19L449 -73M443 1459L424 1360M443 1459L449 1367M523 77L602 26M523 77L455 136M523 77L541 119M523 77L608 145M523 77L549 -3M523 1517L549 1437M602 26L682 34M602 26L549 -3M602 26L593 -45M602 26L652 -51M602 1466L549 1437M602 1466L593 1395M602 1466L652 1389M682 34L652 -51M682 34L760 -22M682 1474L652 1389M682 1474L760 1418M794 59L822 52M794 59L748 128M794 59L821 132M794 59L887 105M794 59L760 -22M794 1499L760 1418M822 52L907 13M822 52L821 132M822 52L887 105M822 52L760 -22M822 1492L760 1418M907 13L974 54M907 13L887 105M907 13L860 -68M907 13L908 -48M907 1453L860 1372M907 1453L908 1392M974 54L1074 20M974 54L979 151M1074 20L1136 23M1074 20L1100 83M1074 20L1010 -55M1074 20L1042 -39M1074 1460L1010 1385M1074 1460L1042 1401M1136 23L1233 45M1136 23L1100 83M1136 23L1191 -51M1136 23L1210 -28M1136 1463L1191 1389M1136 1463L1210 1412M1233 45L1296 54M1233 45L1200 94M1233 45L1246 136M1233 45L1210 -28M1233 1485L1210 1412M1296 54L1361 65M1296 54L1246 136M1296 54L1375 -30M1296 1494L1375 1410M1361 65L1336 150M1361 65L1435 125M1361 65L1375 -30M1361 1505L1375 1410M1471 67L1531 76M1471 67L1435 125M1471 67L1469 94M1471 67L1543 111M1531 76L1630 41M1531 76L1469 94M1531 76L1543 111M1531 76L1503 182M1630 41L1722 37M1630 41L1543 111M1630 41L1711 117M1722 37L1829 5M1722 37L1711 117M1722 37L1782 -20M1722 1477L1782 1420M1829 5L1849 24M1829 5L1782 -20M1829 5L1863 -53M1829 1445L1782 1420M1829 1445L1863 1387M1849 24L1921 60M1849 24L1782 -20M1849 24L1863 -53M1849 24L1948 -2M1849 1464L1782 1420M1849 1464L1863 1387M1849 1464L1948 1438M1921 60L1919 126M1921 60L1966 123M1921 60L1948 -2M1921 1500L1948 1438M2023 19L2098 55M2023 19L2007 121M2023 19L2105 86M2023 19L1948 -2M2023 19L2015 -49M2023 1459L1948 1438M2023 1459L2015 1391M2098 55L2105 86M2098 55L2015 -49M2098 1495L2015 1391M2237 22L2283 46M2237 22L2260 98M2237 22L2153 -60M2237 22L2221 -30M2237 22L2246 -30M2237 1462L2153 1380M2237 1462L2221 1410M2237 1462L2246 1410M2283 46L2342 46M2283 46L2260 98M2283 46L2324 126M2283 46L2221 -30M2283 1486L2221 1410M2342 46L2260 98M2342 46L2324 126M2342 46L2404 80M2342 46L2390 -29M2342 1486L2390 1411M2465 19L2488 51M2465 19L2404 80M2465 19L2390 -29M2465 19L2459 -33M2465 19L2499 -46M2465 1459L2390 1411M2465 1459L2459 1407M2465 1459L2499 1394M2488 51L2565 100M2488 51L2404 80M2488 51L2555 114M2488 51L2459 -33M-72 51L5 100M2488 1491L2459 1407M5 100L-5 114M5 100L53 165M5 100L-70 169M2565 100L2555 114M2565 100L2490 169M101 109L53 165M210 147L295 104M210 147L141 196M210 147L212 195M295 104L360 125M360 125L455 136M360 125L351 202M360 125L436 189M455 136L541 119M455 136L436 189M455 136L503 179M541 119L608 145M541 119L503 179M608 145L699 149M608 145L599 216M699 149L748 128M699 149L710 226M699 149L762 176M748 128L821 132M748 128L710 226M748 128L762 176M821 132L887 105M821 132L762 176M887 105L979 151M979 151L947 221M979 151L1027 172M979 151L1069 166M1100 83L1200 94M1100 83L1027 172M1100 83L1069 166M1200 94L1246 136M1200 94L1248 165M1246 136L1336 150M1246 136L1248 165M1336 150L1248 165M1336 150L1301 218M1336 150L1310 244M1435 125L1469 94M1435 125L1503 182M1469 94L1543 111M1469 94L1503 182M1543 111L1503 182M1658 153L1711 117M1658 153L1668 224M1658 153L1698 226M1711 117L1797 136M1711 117L1698 226M1797 136L1805 214M1797 136L1872 169M1919 126L1966 123M1919 126L2007 121M1919 126L1872 169M1919 126L1939 170M1966 123L2007 121M1966 123L1939 170M2007 121L1939 170M2007 121L2034 222M2105 86L2089 189M2223 147L2260 98M2223 147L2182 234M2223 147L2148 247M2260 98L2324 126M2324 126L2404 80M2324 126L2388 173M2555 114L2613 165M2555 114L2490 169M-5 114L53 165M53 165L141 196M53 165L32 242M141 196L212 195M141 196L141 276M141 196L191 252M212 195L300 229M212 195L191 252M300 229L351 202M300 229L278 272M300 229L330 299M300 229L288 320M351 202L436 189M436 189L503 179M503 179L599 216M503 179L519 284M599 216L519 284M599 216L580 306M599 216L645 260M710 226L762 176M710 226L645 260M710 226L748 280M762 176L748 280M878 232L947 221M878 232L838 303M878 232L921 301M947 221L1027 172M947 221L921 301M947 221L994 286M1027 172L1069 166M1069 166L1133 236M1069 166L1085 267M1133 236L1085 267M1133 236L1170 282M1248 165L1301 218M1248 165L1310 244M1301 218L1390 238M1301 218L1310 244M1390 238L1310 244M1390 238L1408 297M1390 238L1450 318M1503 182L1584 227M1584 227L1668 224M1584 227L1565 308M1584 227L1636 258M1584 227L1685 255M1668 224L1698 226M1668 224L1636 258M1668 224L1685 255M1698 226L1636 258M1698 226L1685 255M1805 214L1872 169M1805 214L1817 278M1805 214L1868 249M1872 169L1939 170M1872 169L1868 249M1939 170L1930 269M2034 222L2089 189M2034 222L1930 269M2034 222L2016 243M2034 222L2148 247M2089 189L2182 234M2089 189L2016 243M2089 189L2148 247M2182 234L2148 247M2182 234L2223 318M2308 229L2388 173M2308 229L2403 222M2308 229L2317 297M2308 229L2388 267M2388 173L2403 222M2388 173L2490 169M2403 222L2490 169M2403 222L2388 267M2403 222L2458 256M2490 169L2458 256M32 242L-8 319M2592 242L2552 319M141 276L191 252M141 276L63 323M141 276L113 351M141 276L203 339M191 252L278 272M191 252L203 339M278 272L330 299M278 272L288 320M330 299L427 313M330 299L288 320M330 299L345 359M427 313L519 284M427 313L345 359M427 313L429 398M519 284L580 306M519 284L541 354M580 306L645 260M580 306L541 354M580 306L588 371M645 260L748 280M748 280L776 369M838 303L921 301M838 303L776 369M838 303L813 381M838 303L902 354M921 301L994 286M921 301L902 354M994 286L1085 267M994 286L988 380M1085 267L1170 282M1085 267L1068 377M1170 282L1236 315M1170 282L1193 365M1236 315L1310 244M1236 315L1193 365M1236 315L1239 375M1236 315L1215 400M1408 297L1450 318M1408 297L1372 394M1450 318L1565 308M1450 318L1520 351M1450 318L1421 402M1565 308L1636 258M1565 308L1520 351M1565 308L1545 383M1636 258L1685 255M1685 255L1667 354M1817 278L1868 249M1817 278L1823 344M1817 278L1875 350M1868 249L1930 269M1868 249L1823 344M1930 269L2016 243M1930 269L1875 350M2016 243L1994 351M2148 247L2223 318M2223 318L2317 297M2223 318L2213 357M2223 318L2314 341M2317 297L2388 267M2317 297L2314 341M2317 297L2357 348M2388 267L2458 256M2388 267L2357 348M2458 256L2552 319M2458 256L2466 353M2552 319L2623 323M2552 319L2466 353M2552 319L2546 393M-8 319L63 323M63 323L113 351M63 323L64 404M63 323L105 408M113 351L203 339M113 351L64 404M113 351L105 408M203 339L288 320M203 339L207 415M288 320L345 359M345 359L429 398M345 359L362 458M429 398L362 458M429 398L448 475M541 354L588 371M588 371L673 374M588 371L553 465M588 371L627 468M673 374L776 369M673 374L764 400M776 369L813 381M776 369L764 400M813 381L902 354M813 381L764 400M813 381L878 424M902 354L988 380M902 354L878 424M988 380L1068 377M988 380L1010 439M988 380L1046 434M1068 377L1010 439M1068 377L1046 434M1193 365L1239 375M1193 365L1174 450M1193 365L1215 400M1239 375L1333 392M1239 375L1215 400M1239 375L1283 418M1333 392L1372 394M1333 392L1283 418M1333 392L1421 402M1372 394L1283 418M1372 394L1421 402M1520 351L1545 383M1520 351L1534 440M1545 383L1534 440M1667 354L1688 386M1667 354L1656 427M1667 354L1694 448M1688 386L1656 427M1688 386L1694 448M1823 344L1875 350M1823 344L1805 437M1823 344L1864 418M1875 350L1805 437M1875 350L1864 418M1994 351L2045 399M1994 351L2106 389M2045 399L2106 389M2045 399L1989 471M2045 399L2072 422M2045 399L2127 422M2106 389L2213 357M2106 389L2072 422M2106 389L2127 422M2213 357L2314 341M2213 357L2127 422M2213 357L2296 403M2314 341L2357 348M2314 341L2296 403M2357 348L2296 403M2357 348L2328 453M2466 353L2546 393M2466 353L2466 409M2546 393L2624 404M2546 393L2466 409M2546 393L2534 471M-14 393L64 404M64 404L105 408M64 404L-26 471M2624 404L2534 471M105 408L207 415M105 408L94 516M207 415L244 469M207 415L195 487M244 469L195 487M244 469L277 513M362 458L448 475M362 458L277 513M362 458L381 488M448 475L381 488M448 475L478 500M448 475L538 503M553 465L627 468M553 465L478 500M553 465L538 503M553 465L624 526M627 468L692 462M627 468L624 526M692 462L764 400M692 462L703 550M692 462L772 486M764 400L772 486M878 424L908 462M878 424L827 492M878 424L908 498M908 462L827 492M908 462L908 498M1010 439L1046 434M1010 439L1029 520M1010 439L1065 518M1046 434L1029 520M1046 434L1065 518M1174 450L1215 400M1174 450L1193 547M1174 450L1222 504M1215 400L1283 418M1283 418L1222 504M1421 402L1464 480M1421 402L1471 483M1464 480L1534 440M1464 480L1418 500M1464 480L1471 483M1464 480L1492 574M1534 440L1471 483M1656 427L1694 448M1656 427L1675 497M1694 448L1805 437M1694 448L1675 497M1805 437L1864 418M1989 471L2072 422M1989 471L1956 550M1989 471L2030 516M1989 471L2006 570M2072 422L2127 422M2072 422L2030 516M2127 422L2124 514M2235 476L2328 453M2235 476L2180 521M2235 476L2272 491M2235 476L2183 566M2296 403L2328 453M2296 403L2272 491M2328 453L2272 491M2328 453L2350 523M2466 409L2534 471M2466 409L2438 516M2534 471L2593 549M2534 471L2548 545M-26 471L33 549M33 549L94 516M33 549L-12 545M33 549L61 587M33 549L81 611M2593 549L2548 545M94 516L195 487M94 516L61 587M94 516L81 611M195 487L277 513M277 513L311 575M381 488L478 500M381 488L392 562M381 488L400 568M478 500L538 503M478 500L547 583M538 503L624 526M538 503L547 583M624 526L703 550M624 526L547 583M703 550L772 486M703 550L710 599M703 550L757 578M772 486L827 492M772 486L827 562M827 492L908 498M827 492L827 562M908 498L907 580M1029 520L1065 518M1029 520L1019 598M1029 520L1042 602M1065 518L1019 598M1065 518L1042 602M1193 547L1222 504M1193 547L1179 634M1222 504L1353 515M1222 504L1302 575M1353 515L1418 500M1353 515L1302 575M1353 515L1418 593M1418 500L1471 483M1418 500L1418 593M1471 483L1492 574M1587 538L1675 497M1587 538L1564 602M1587 538L1659 570M1675 497L1737 560M1675 497L1659 570M1737 560L1659 570M1737 560L1687 608M1737 560L1824 565M1737 560L1743 644M1839 554L1890 536M1839 554L1824 565M1839 554L1865 568M1890 536L1956 550M1890 536L1824 565M1890 536L1865 568M1890 536L1946 583M1956 550L2030 516M1956 550L1946 583M1956 550L2006 570M2030 516L2006 570M2124 514L2180 521M2124 514L2143 603M2124 514L2183 566M2180 521L2143 603M2180 521L2183 566M2272 491L2350 523M2350 523L2438 516M2350 523L2292 608M2350 523L2327 592M2548 545L2621 587M2548 545L2495 635M-12 545L61 587M61 587L81 611M61 587L114 655M81 611L114 655M81 611L160 686M209 608L311 575M209 608L160 686M311 575L392 562M311 575L400 568M311 575L316 688M392 562L400 568M392 562L394 655M392 562L445 659M400 568L394 655M400 568L445 659M547 583L625 629M547 583L494 652M625 629L710 599M625 629L634 720M625 629L647 673M625 629L614 732M710 599L757 578M710 599L647 673M710 599L753 649M757 578L827 562M757 578L753 649M827 562L907 580M827 562L863 663M907 580L863 663M907 580L921 644M1019 598L1042 602M1019 598L1004 642M1042 602L1004 642M1179 634L1263 626M1179 634L1149 698M1179 634L1241 644M1179 634L1149 733M1263 626L1302 575M1263 626L1241 644M1263 626L1309 690M1302 575L1241 644M1418 593L1492 574M1418 593L1417 694M1492 574L1564 602M1492 574L1497 677M1564 602L1497 677M1564 602L1621 649M1659 570L1687 608M1659 570L1621 649M1687 608L1621 649M1687 608L1743 644M1824 565L1865 568M1824 565L1743 644M1865 568L1914 656M1946 583L2006 570M1946 583L1914 656M1946 583L1921 640M2006 570L2007 664M2143 603L2183 566M2143 603L2104 694M2292 608L2327 592M2292 608L2301 703M2292 608L2341 654M2327 592L2403 626M2327 592L2301 703M2327 592L2341 654M2403 626L2495 635M2403 626L2341 654M2403 626L2420 687M2495 635L2420 687M2495 635L2555 685M57 715L114 655M57 715L160 686M57 715L-5 685M57 715L18 743M57 715L116 792M2617 715L2555 685M114 655L160 686M160 686L233 750M316 688L394 655M316 688L233 750M316 688L272 752M316 688L371 734M394 655L445 659M394 655L371 734M445 659L494 652M445 659L371 734M634 720L647 673M634 720L614 732M634 720L720 754M647 673L753 649M647 673L614 732M753 649L720 754M863 663L921 644M863 663L841 735M863 663L912 738M921 644L1004 642M921 644L841 735M921 644L912 738M1004 642L1064 697M1004 642L912 738M1064 697L1149 698M1064 697L1033 784M1064 697L1082 784M1064 697L1149 733M1149 698L1149 733M1149 698L1221 736M1241 644L1309 690M1241 644L1221 736M1309 690L1221 736M1309 690L1312 766M1309 690L1361 782M1417 694L1497 677M1417 694L1531 717M1417 694L1361 782M1497 677L1531 717M1497 677L1538 754M1531 717L1621 649M1531 717L1483 798M1531 717L1538 754M1743 644L1782 699M1743 644L1707 747M1782 699L1707 747M1782 699L1800 757M1782 699L1800 817M1914 656L1921 640M1914 656L2007 664M1921 640L2007 664M2007 664L2104 694M2007 664L2026 739M2104 694L2026 739M2104 694L2147 742M2104 694L2180 742M2239 709L2301 703M2239 709L2147 742M2239 709L2180 742M2239 709L2253 788M2239 709L2218 814M2301 703L2341 654M2301 703L2253 788M2341 654L2420 687M2420 687L2377 797M2420 687L2479 759M2555 685L2578 743M2555 685L2479 759M-5 685L18 743M18 743L-81 759M18 743L-8 800M18 743L92 833M2578 743L2479 759M2578 743L2552 800M116 792L77 871M116 792L92 833M233 750L272 752M233 750L256 835M272 752L371 734M272 752L256 835M371 734L441 796M441 796L386 858M441 796L419 854M555 799L614 732M555 799L544 865M555 799L612 823M555 799L513 892M614 732L612 823M720 754L740 776M720 754L758 835M740 776L841 735M740 776L758 835M740 776L692 884M841 735L912 738M912 738L931 817M1033 784L1082 784M1033 784L1009 842M1033 784L1044 840M1082 784L1149 733M1082 784L1044 840M1149 733L1221 736M1221 736L1312 766M1312 766L1361 782M1312 766L1359 814M1361 782L1359 814M1361 782L1362 857M1483 798L1538 754M1483 798L1453 851M1483 798L1546 845M1538 754L1637 784M1538 754L1546 845M1637 784L1707 747M1637 784L1650 828M1637 784L1618 883M1707 747L1800 757M1707 747L1650 828M1800 757L1875 777M1800 757L1745 844M1800 757L1800 817M1875 777L1960 777M1875 777L1800 817M1875 777L1891 859M1960 777L2026 739M1960 777L1973 868M1960 777L2023 806M2026 739L2023 806M2147 742L2180 742M2147 742L2218 814M2180 742L2253 788M2180 742L2218 814M2253 788L2218 814M2253 788L2243 871M2377 797L2479 759M2377 797L2357 808M2377 797L2444 872M2479 759L2552 800M2552 800L2504 867M77 871L92 833M77 871L42 936M77 871L146 905M77 871L162 935M92 833L42 936M92 833L146 905M198 870L256 835M198 870L146 905M198 870L162 935M198 870L249 949M386 858L419 854M386 858L329 955M419 854L513 892M544 865L612 823M544 865L646 880M544 865L513 892M544 865L577 908M612 823L646 880M612 823L577 908M646 880L577 908M646 880L692 884M646 880L657 978M758 835L848 864M758 835L692 884M758 835L792 888M848 864L931 817M848 864L792 888M848 864L836 895M848 864L898 900M931 817L1009 842M931 817L898 900M931 817L1004 881M1009 842L1044 840M1009 842L1004 881M1009 842L1100 884M1044 840L1004 881M1044 840L1100 884M1182 846L1259 843M1182 846L1100 884M1182 846L1150 896M1182 846L1252 902M1182 846L1163 965M1259 843L1252 902M1259 843L1319 892M1359 814L1362 857M1359 814L1453 851M1362 857L1453 851M1362 857L1319 892M1362 857L1385 922M1453 851L1546 845M1546 845L1534 913M1546 845L1618 883M1650 828L1745 844M1650 828L1618 883M1650 828L1707 905M1745 844L1800 817M1745 844L1707 905M1745 844L1814 928M1800 817L1891 859M1891 859L1973 868M1891 859L1892 934M1973 868L2023 806M1973 868L1978 915M1973 868L2011 947M2023 806L2116 858M2116 858L2104 944M2116 858L2187 937M2218 814L2243 871M2243 871L2187 937M2243 871L2309 906M2243 871L2337 903M2357 808L2444 872M2357 808L2309 906M2357 808L2337 903M2444 872L2504 867M2444 872L2417 932M2444 872L2425 964M2504 867L2417 932M2504 867L2547 921M42 936L-13 921M42 936L45 978M42 936L-7 1004M2602 936L2547 921M2602 936L2553 1004M146 905L162 935M146 905L163 973M162 935L249 949M162 935L163 973M249 949L329 955M249 949L163 973M249 949L309 982M329 955L309 982M329 955L385 1026M329 955L418 998M478 960L513 892M478 960L418 998M478 960L551 1015M513 892L577 908M692 884L792 888M692 884L657 978M792 888L836 895M792 888L846 967M836 895L898 900M836 895L846 967M898 900L846 967M898 900L886 1010M1004 881L1100 884M1004 881L1010 974M1100 884L1150 896M1150 896L1097 997M1150 896L1163 965M1252 902L1319 892M1252 902L1262 1002M1252 902L1331 964M1319 892L1385 922M1319 892L1331 964M1385 922L1460 952M1385 922L1331 964M1385 922L1400 991M1460 952L1534 913M1460 952L1400 991M1460 952L1492 971M1534 913L1618 883M1534 913L1492 971M1534 913L1598 986M1618 883L1707 905M1707 905L1702 973M1707 905L1764 987M1814 928L1892 934M1814 928L1764 987M1892 934L1978 915M1892 934L1885 1027M1892 934L1940 983M1978 915L2011 947M1978 915L1940 983M1978 915L2033 980M2011 947L2104 944M2011 947L1940 983M2011 947L2033 980M2104 944L2187 937M2104 944L2033 980M2104 944L2121 1036M2187 937L2165 1021M2187 937L2272 972M2309 906L2337 903M2309 906L2272 972M2337 903L2417 932M2337 903L2272 972M2417 932L2389 1016M2417 932L2425 964M2547 921L2605 978M2547 921L2553 1004M2547 921L2570 1042M-13 921L45 978M-13 921L10 1042M45 978L102 1036M45 978L-7 1004M45 978L10 1042M2605 978L2553 1004M102 1036L163 973M102 1036L10 1042M102 1036L132 1065M102 1036L193 1095M163 973L132 1065M309 982L385 1026M309 982L418 998M309 982L317 1093M385 1026L418 998M385 1026L317 1093M385 1026L452 1095M418 998L452 1095M551 1015L597 1016M551 1015L605 1047M597 1016L657 978M597 1016L605 1047M597 1016L701 1068M657 978L746 977M657 978L605 1047M746 977L846 967M746 977L701 1068M746 977L741 1066M846 967L886 1010M886 1010L1010 974M886 1010L860 1099M886 1010L917 1069M1010 974L1097 997M1010 974L1027 1107M1097 997L1163 965M1097 997L1102 1086M1163 965L1262 1002M1262 1002L1331 964M1262 1002L1240 1084M1262 1002L1335 1059M1331 964L1400 991M1400 991L1492 971M1400 991L1433 1072M1492 971L1598 986M1598 986L1617 1013M1598 986L1702 973M1598 986L1605 1072M1617 1013L1702 973M1617 1013L1567 1099M1617 1013L1605 1072M1617 1013L1644 1130M1702 973L1764 987M1764 987L1772 1061M1764 987L1863 1054M1885 1027L1940 983M1885 1027L1863 1054M1885 1027L1956 1079M1940 983L2033 980M2033 980L2121 1036M2121 1036L2165 1021M2121 1036L2088 1081M2121 1036L2177 1064M2165 1021L2088 1081M2165 1021L2177 1064M2272 972L2316 1059M2272 972L2324 1062M2389 1016L2425 964M2389 1016L2316 1059M2389 1016L2324 1062M2389 1016L2417 1040M2425 964L2417 1040M2553 1004L2570 1042M2553 1004L2537 1081M-7 1004L10 1042M10 1042L-23 1081M2570 1042L2537 1081M132 1065L193 1095M132 1065L75 1150M193 1095L89 1169M193 1095L197 1170M193 1095L244 1148M317 1093L326 1111M317 1093L244 1148M326 1111L244 1148M326 1111L375 1194M326 1111L419 1157M452 1095L514 1114M452 1095L419 1157M514 1114L517 1178M514 1114L575 1134M605 1047L701 1068M605 1047L575 1134M701 1068L741 1066M701 1068L696 1137M741 1066L696 1137M741 1066L808 1142M860 1099L917 1069M860 1099L808 1142M860 1099L893 1158M917 1069L1027 1107M917 1069L973 1146M1027 1107L1102 1086M1027 1107L973 1146M1027 1107L1067 1168M1102 1086L1151 1109M1102 1086L1067 1168M1151 1109L1240 1084M1151 1109L1194 1192M1151 1109L1230 1139M1240 1084L1335 1059M1240 1084L1230 1139M1240 1084L1296 1130M1335 1059L1433 1072M1335 1059L1296 1130M1433 1072L1496 1116M1433 1072L1389 1168M1433 1072L1474 1165M1496 1116L1567 1099M1496 1116L1474 1165M1567 1099L1605 1072M1567 1099L1575 1170M1567 1099L1644 1130M1605 1072L1575 1170M1605 1072L1644 1130M1743 1115L1772 1061M1743 1115L1706 1143M1743 1115L1823 1130M1772 1061L1863 1054M1772 1061L1706 1143M1772 1061L1823 1130M1863 1054L1956 1079M1863 1054L1823 1130M1956 1079L2007 1099M2007 1099L2088 1081M2007 1099L2051 1172M2088 1081L2177 1064M2088 1081L2051 1172M2177 1064L2156 1182M2177 1064L2226 1130M2316 1059L2324 1062M2316 1059L2417 1040M2324 1062L2417 1040M2417 1040L2537 1081M2537 1081L2635 1150M2537 1081L2523 1195M-23 1081L75 1150M75 1150L89 1169M89 1169L197 1170M89 1169L4 1260M89 1169L136 1258M197 1170L244 1148M197 1170L136 1258M197 1170L232 1258M244 1148L232 1258M375 1194L419 1157M375 1194L322 1234M375 1194L443 1241M375 1194L369 1281M419 1157L517 1178M419 1157L443 1241M517 1178L575 1134M517 1178L543 1229M517 1178L584 1238M575 1134L543 1229M575 1134L584 1238M696 1137L730 1191M730 1191L808 1142M730 1191L772 1275M808 1142L893 1158M808 1142L862 1226M893 1158L973 1146M893 1158L862 1226M893 1158L926 1203M973 1146L926 1203M973 1146L981 1243M1067 1168L981 1243M1067 1168L1087 1262M1067 1168L1155 1230M1194 1192L1230 1139M1194 1192L1296 1130M1194 1192L1155 1230M1194 1192L1213 1239M1230 1139L1296 1130M1230 1139L1213 1239M1296 1130L1389 1168M1389 1168L1474 1165M1389 1168L1331 1253M1389 1168L1392 1280M1575 1170L1644 1130M1575 1170L1582 1226M1575 1170L1621 1261M1644 1130L1706 1143M1823 1130L1900 1196M1823 1130L1888 1203M1900 1196L1947 1197M1900 1196L1825 1269M1900 1196L1888 1203M1947 1197L2051 1172M1947 1197L1888 1203M1947 1197L1996 1250M1947 1197L2022 1270M2051 1172L1996 1250M2051 1172L2112 1202M2156 1182L2226 1130M2156 1182L2112 1202M2156 1182L2174 1234M2156 1182L2244 1236M2226 1130L2284 1197M2284 1197L2174 1234M2284 1197L2244 1236M2284 1197L2387 1240M2284 1197L2288 1305M2396 1163L2448 1186M2396 1163L2387 1240M2396 1163L2418 1258M2448 1186L2523 1195M2448 1186L2387 1240M2448 1186L2418 1258M2523 1195L2564 1260M2523 1195L2490 1271M-37 1195L4 1260M4 1260L-70 1271M4 1260L32 1318M4 1260L-57 1292M2564 1260L2490 1271M2564 1260L2503 1292M136 1258L120 1345M232 1258L288 1258M232 1258L322 1234M232 1258L238 1310M288 1258L322 1234M288 1258L238 1310M288 1258L298 1360M288 1258L369 1281M322 1234L369 1281M443 1241L543 1229M443 1241L369 1281M543 1229L584 1238M543 1229L647 1274M584 1238L647 1274M584 1238L591 1330M647 1274L591 1330M647 1274L665 1349M772 1275L862 1226M772 1275L739 1343M862 1226L926 1203M862 1226L881 1310M926 1203L981 1243M981 1243L1087 1262M1087 1262L1155 1230M1087 1262L1069 1342M1087 1262L1126 1325M1155 1230L1213 1239M1155 1230L1126 1325M1331 1253L1392 1280M1331 1253L1268 1330M1331 1253L1301 1309M1331 1253L1367 1322M1392 1280L1485 1279M1392 1280L1301 1309M1392 1280L1367 1322M1485 1279L1582 1226M1485 1279L1516 1334M1485 1279L1557 1307M1485 1279L1454 1374M1582 1226L1621 1261M1582 1226L1557 1307M1621 1261L1557 1307M1621 1261L1655 1337M1621 1261L1656 1365M1752 1279L1825 1269M1752 1279L1706 1350M1752 1279L1768 1320M1752 1279L1847 1295M1825 1269L1888 1203M1825 1269L1768 1320M1825 1269L1847 1295M1888 1203L1847 1295M1996 1250L2022 1270M1996 1250L1994 1326M1996 1250L2006 1340M2022 1270L1994 1326M2022 1270L2006 1340M2022 1270L2092 1305M2112 1202L2174 1234M2112 1202L2092 1305M2174 1234L2244 1236M2174 1234L2189 1327M2244 1236L2189 1327M2244 1236L2288 1305M2387 1240L2418 1258M2418 1258L2490 1271M2418 1258L2503 1292M2490 1271L2465 1350M2490 1271L2503 1292M32 1318L120 1345M32 1318L-57 1292M32 1318L12 1390M32 1318L83 1404M2592 1318L2503 1292M120 1345L12 1390M120 1345L83 1404M238 1310L298 1360M238 1310L209 1417M238 1310L309 1387M298 1360L209 1417M298 1360L309 1387M298 1360L375 1389M369 1281L424 1360M424 1360L512 1349M424 1360L375 1389M424 1360L449 1367M512 1349L449 1367M512 1349L549 1437M591 1330L665 1349M591 1330L593 1395M665 1349L739 1343M665 1349L593 1395M665 1349L652 1389M739 1343L848 1359M739 1343L652 1389M739 1343L760 1418M848 1359L881 1310M848 1359L760 1418M848 1359L860 1372M848 1359L908 1392M881 1310L962 1360M881 1310L860 1372M881 1310L908 1392M962 1360L860 1372M962 1360L908 1392M962 1360L1010 1385M962 1360L1042 1401M1069 1342L1126 1325M1069 1342L1010 1385M1069 1342L1042 1401M1126 1325L1042 1401M1126 1325L1191 1389M1268 1330L1301 1309M1268 1330L1367 1322M1268 1330L1210 1412M1268 1330L1282 1386M1301 1309L1367 1322M1301 1309L1282 1386M1367 1322L1375 1410M1516 1334L1557 1307M1516 1334L1454 1374M1516 1334L1563 1390M1557 1307L1563 1390M1655 1337L1706 1350M1655 1337L1563 1390M1655 1337L1656 1365M1655 1337L1729 1379M1706 1350L1768 1320M1706 1350L1656 1365M1706 1350L1729 1379M1768 1320L1847 1295M1768 1320L1729 1379M1847 1295L1863 1387M1994 1326L2006 1340M1994 1326L2092 1305M1994 1326L2015 1391M2006 1340L2092 1305M2006 1340L2015 1391M2092 1305L2153 1380M2189 1327L2288 1305M2189 1327L2153 1380M2189 1327L2221 1410M2288 1305L2331 1360M2331 1360L2246 1410M2331 1360L2390 1411M2465 1350L2503 1292M2465 1350L2390 1411M2465 1350L2459 1407M2465 1350L2499 1394M12 1390L83 1404M12 1390L-61 1394M2572 1390L2499 1394M83 1404L209 1417M209 1417L309 1387M309 1387L375 1389M375 1389L449 1367M549 1437L593 1395M593 1395L652 1389M860 1372L908 1392M1010 1385L1042 1401M1191 1389L1210 1412M1191 1389L1282 1386M1210 1412L1282 1386M1282 1386L1375 1410M1375 1410L1454 1374M1454 1374L1563 1390M1563 1390L1656 1365M1656 1365L1729 1379M1729 1379L1782 1420M1782 1420L1863 1387M1863 1387L1948 1438M1948 1438L2015 1391M2153 1380L2221 1410M2153 1380L2246 1410M2221 1410L2246 1410M2390 1411L2459 1407M2459 1407L2499 1394"/></svg>