<svg xmlns="http://www.w3.org/2000/svg" width="2560" height="1440" fill="#fff"><circle cx="7" cy="20" r="5"/><circle cx="98" cy="11" r="4"/><circle cx="176" cy="7" r="4"/><circle cx="247" cy="52" r="5"/><circle cx="374" cy="74" r="5"/><circle cx="431" cy="25" r="4"/><circle cx="547" cy="44" r="4"/><circle cx="584" cy="5" r="6"/><circle cx="584" cy="1445" r="6"/><circle cx="645" cy="77" r="5"/><circle cx="767" cy="33" r="4"/><circle cx="878" cy="73" r="4"/><circle cx="895" cy="32" r="6"/><circle cx="961" cy="58" r="5"/><circle cx="1091" cy="21" r="6"/><circle cx="1179" cy="67" r="6"/><circle cx="1208" cy="39" r="4"/><circle cx="1352" cy="78" r="4"/><circle cx="1417" cy="76" r="6"/><circle cx="1467" cy="70" r="6"/><circle cx="1590" cy="65" r="5"/><circle cx="1613" cy="22" r="4"/><circle cx="1691" cy="45" r="5"/><circle cx="1811" cy="27" r="5"/><circle cx="1898" cy="67" r="6"/><circle cx="1936" cy="50" r="6"/><circle cx="2005" cy="45" r="5"/><circle cx="2089" cy="45" r="6"/><circle cx="2205" cy="67" r="6"/><circle cx="2277" cy="15" r="4"/><circle cx="2362" cy="52" r="5"/><circle cx="2425" cy="7" r="4"/><circle cx="2491" cy="38" r="4"/><circle cx="45" cy="135" r="6"/><circle cx="81" cy="113" r="5"/><circle cx="208" cy="135" r="5"/><circle cx="301" cy="107" r="4"/><circle cx="323" cy="114" r="6"/><circle cx="433" cy="154" r="4"/><circle cx="484" cy="153" r="6"/><circle cx="598" cy="152" r="4"/><circle cx="662" cy="137" r="4"/><circle cx="797" cy="146" r="4"/><circle cx="835" cy="104" r="5"/><circle cx="886" cy="149" r="5"/><circle cx="1031" cy="131" r="6"/><circle cx="1100" cy="124" r="5"/><circle cx="1190" cy="109" r="4"/><circle cx="1209" cy="150" r="6"/><circle cx="1289" cy="122" r="5"/><circle cx="1361" cy="118" r="6"/><circle cx="1471" cy="129" r="5"/><circle cx="1583" cy="112" r="4"/><circle cx="1675" cy="106" r="6"/><circle cx="1718" cy="103" r="4"/><circle cx="1832" cy="122" r="6"/><circle cx="1914" cy="126" r="4"/><circle cx="1961" cy="138" r="6"/><circle cx="2033" cy="149" r="4"/><circle cx="2098" cy="160" r="5"/><circle cx="2165" cy="140" r="5"/><circle cx="2246" cy="126" r="5"/><circle cx="2343" cy="148" r="5"/><circle cx="2451" cy="142" r="5"/><circle cx="2534" cy="85" r="6"/><circle cx="60" cy="239" r="5"/><circle cx="145" cy="173" r="4"/><circle cx="233" cy="211" r="5"/><circle cx="270" cy="175" r="4"/><circle cx="371" cy="180" r="4"/><circle cx="469" cy="169" r="4"/><circle cx="508" cy="194" r="4"/><circle cx="617" cy="182" r="5"/><circle cx="680" cy="176" r="5"/><circle cx="773" cy="228" r="5"/><circle cx="837" cy="162" r="4"/><circle cx="916" cy="173" r="4"/><circle cx="1039" cy="222" r="5"/><circle cx="1081" cy="211" r="6"/><circle cx="1195" cy="161" r="5"/><circle cx="1232" cy="238" r="5"/><circle cx="1280" cy="197" r="5"/><circle cx="1383" cy="194" r="4"/><circle cx="1480" cy="197" r="5"/><circle cx="1522" cy="221" r="5"/><circle cx="1675" cy="232" r="6"/><circle cx="1758" cy="239" r="4"/><circle cx="1802" cy="238" r="4"/><circle cx="1908" cy="217" r="5"/><circle cx="1971" cy="183" r="6"/><circle cx="2017" cy="172" r="5"/><circle cx="2096" cy="172" r="5"/><circle cx="2223" cy="193" r="5"/><circle cx="2270" cy="230" r="6"/><circle cx="2372" cy="230" r="5"/><circle cx="2435" cy="175" r="4"/><circle cx="2512" cy="200" r="5"/><circle cx="67" cy="263" r="6"/><circle cx="90" cy="262" r="4"/><circle cx="180" cy="307" r="4"/><circle cx="286" cy="298" r="5"/><circle cx="358" cy="277" r="5"/><circle cx="451" cy="309" r="6"/><circle cx="526" cy="313" r="5"/><circle cx="639" cy="318" r="6"/><circle cx="684" cy="248" r="5"/><circle cx="769" cy="266" r="5"/><circle cx="875" cy="318" r="6"/><circle cx="901" cy="318" r="5"/><circle cx="998" cy="256" r="5"/><circle cx="1084" cy="287" r="5"/><circle cx="1148" cy="303" r="5"/><circle cx="1231" cy="286" r="5"/><circle cx="1292" cy="243" r="5"/><circle cx="1394" cy="259" r="6"/><circle cx="1479" cy="283" r="4"/><circle cx="1599" cy="273" r="6"/><circle cx="1621" cy="279" r="5"/><circle cx="1685" cy="264" r="5"/><circle cx="1775" cy="295" r="5"/><circle cx="1910" cy="252" r="4"/><circle cx="1923" cy="251" r="5"/><circle cx="2020" cy="285" r="6"/><circle cx="2123" cy="313" r="5"/><circle cx="2174" cy="255" r="4"/><circle cx="2258" cy="288" r="6"/><circle cx="2365" cy="243" r="5"/><circle cx="2443" cy="298" r="6"/><circle cx="2514" cy="292" r="5"/><circle cx="7" cy="393" r="4"/><circle cx="93" cy="323" r="4"/><circle cx="233" cy="327" r="5"/><circle cx="272" cy="341" r="5"/><circle cx="395" cy="379" r="6"/><circle cx="422" cy="341" r="4"/><circle cx="557" cy="329" r="5"/><circle cx="564" cy="357" r="6"/><circle cx="655" cy="372" r="5"/><circle cx="791" cy="376" r="4"/><circle cx="852" cy="394" r="5"/><circle cx="949" cy="364" r="6"/><circle cx="985" cy="335" r="6"/><circle cx="1048" cy="379" r="5"/><circle cx="1130" cy="337" r="5"/><circle cx="1219" cy="335" r="4"/><circle cx="1339" cy="377" r="6"/><circle cx="1386" cy="334" r="6"/><circle cx="1473" cy="354" r="6"/><circle cx="1597" cy="350" r="5"/><circle cx="1670" cy="344" r="4"/><circle cx="1714" cy="341" r="5"/><circle cx="1788" cy="388" r="6"/><circle cx="1914" cy="381" r="4"/><circle cx="1985" cy="394" r="4"/><circle cx="2075" cy="396" r="4"/><circle cx="2123" cy="393" r="4"/><circle cx="2217" cy="363" r="5"/><circle cx="2301" cy="385" r="6"/><circle cx="2331" cy="322" r="4"/><circle cx="2447" cy="392" r="6"/><circle cx="2499" cy="382" r="5"/><circle cx="53" cy="405" r="6"/><circle cx="106" cy="423" r="5"/><circle cx="170" cy="450" r="5"/><circle cx="298" cy="431" r="4"/><circle cx="369" cy="458" r="5"/><circle cx="429" cy="459" r="6"/><circle cx="557" cy="472" r="5"/><circle cx="565" cy="426" r="6"/><circle cx="652" cy="458" r="5"/><circle cx="778" cy="408" r="5"/><circle cx="859" cy="411" r="5"/><circle cx="922" cy="414" r="5"/><circle cx="980" cy="477" r="6"/><circle cx="1048" cy="433" r="6"/><circle cx="1138" cy="436" r="4"/><circle cx="1231" cy="407" r="5"/><circle cx="1312" cy="433" r="5"/><circle cx="1434" cy="460" r="4"/><circle cx="1500" cy="440" r="5"/><circle cx="1540" cy="469" r="5"/><circle cx="1630" cy="405" r="4"/><circle cx="1752" cy="413" r="5"/><circle cx="1804" cy="470" r="6"/><circle cx="1861" cy="428" r="4"/><circle cx="1949" cy="445" r="4"/><circle cx="2008" cy="428" r="6"/><circle cx="2145" cy="434" r="5"/><circle cx="2228" cy="415" r="5"/><circle cx="2273" cy="405" r="4"/><circle cx="2386" cy="401" r="5"/><circle cx="2452" cy="406" r="5"/><circle cx="2505" cy="447" r="5"/><circle cx="30" cy="500" r="4"/><circle cx="100" cy="491" r="5"/><circle cx="219" cy="509" r="5"/><circle cx="296" cy="518" r="6"/><circle cx="390" cy="496" r="4"/><circle cx="411" cy="536" r="4"/><circle cx="530" cy="510" r="5"/><circle cx="592" cy="539" r="5"/><circle cx="643" cy="496" r="4"/><circle cx="774" cy="517" r="4"/><circle cx="831" cy="536" r="6"/><circle cx="930" cy="553" r="5"/><circle cx="989" cy="558" r="5"/><circle cx="1113" cy="543" r="4"/><circle cx="1155" cy="491" r="5"/><circle cx="1274" cy="492" r="5"/><circle cx="1283" cy="558" r="5"/><circle cx="1369" cy="542" r="6"/><circle cx="1487" cy="517" r="5"/><circle cx="1526" cy="508" r="5"/><circle cx="1640" cy="491" r="4"/><circle cx="1715" cy="499" r="4"/><circle cx="1809" cy="523" r="4"/><circle cx="1913" cy="543" r="5"/><circle cx="1968" cy="530" r="4"/><circle cx="2062" cy="536" r="5"/><circle cx="2114" cy="522" r="5"/><circle cx="2163" cy="523" r="6"/><circle cx="2285" cy="557" r="5"/><circle cx="2336" cy="519" r="6"/><circle cx="2402" cy="558" r="5"/><circle cx="2527" cy="542" r="4"/><circle cx="7" cy="624" r="5"/><circle cx="104" cy="596" r="5"/><circle cx="169" cy="614" r="5"/><circle cx="265" cy="575" r="5"/><circle cx="339" cy="629" r="4"/><circle cx="416" cy="567" r="5"/><circle cx="515" cy="638" r="4"/><circle cx="611" cy="577" r="4"/><circle cx="681" cy="565" r="5"/><circle cx="772" cy="568" r="5"/><circle cx="803" cy="582" r="6"/><circle cx="905" cy="560" r="4"/><circle cx="983" cy="565" r="5"/><circle cx="1069" cy="620" r="5"/><circle cx="1189" cy="569" r="6"/><circle cx="1267" cy="586" r="4"/><circle cx="1334" cy="598" r="4"/><circle cx="1415" cy="612" r="6"/><circle cx="1472" cy="575" r="6"/><circle cx="1599" cy="564" r="4"/><circle cx="1636" cy="583" r="6"/><circle cx="1727" cy="607" r="4"/><circle cx="1774" cy="571" r="4"/><circle cx="1907" cy="626" r="4"/><circle cx="1990" cy="567" r="5"/><circle cx="2011" cy="606" r="4"/><circle cx="2095" cy="634" r="6"/><circle cx="2180" cy="620" r="5"/><circle cx="2299" cy="629" r="5"/><circle cx="2398" cy="633" r="6"/><circle cx="2463" cy="566" r="5"/><circle cx="2499" cy="570" r="4"/><circle cx="42" cy="689" r="4"/><circle cx="154" cy="681" r="4"/><circle cx="190" cy="684" r="5"/><circle cx="275" cy="667" r="5"/><circle cx="356" cy="676" r="4"/><circle cx="449" cy="693" r="4"/><circle cx="519" cy="654" r="5"/><circle cx="603" cy="642" r="5"/><circle cx="668" cy="664" r="5"/><circle cx="732" cy="675" r="5"/><circle cx="818" cy="659" r="6"/><circle cx="904" cy="692" r="4"/><circle cx="1006" cy="671" r="6"/><circle cx="1041" cy="694" r="5"/><circle cx="1131" cy="656" r="6"/><circle cx="1240" cy="641" r="5"/><circle cx="1325" cy="661" r="5"/><circle cx="1379" cy="670" r="6"/><circle cx="1485" cy="643" r="5"/><circle cx="1586" cy="712" r="4"/><circle cx="1639" cy="688" r="4"/><circle cx="1724" cy="692" r="5"/><circle cx="1809" cy="715" r="5"/><circle cx="1871" cy="699" r="6"/><circle cx="1980" cy="692" r="5"/><circle cx="2015" cy="657" r="5"/><circle cx="2102" cy="708" r="5"/><circle cx="2227" cy="648" r="6"/><circle cx="2276" cy="673" r="5"/><circle cx="2338" cy="718" r="5"/><circle cx="2413" cy="709" r="6"/><circle cx="2535" cy="678" r="4"/><circle cx="55" cy="751" r="5"/><circle cx="133" cy="772" r="5"/><circle cx="205" cy="742" r="6"/><circle cx="273" cy="795" r="4"/><circle cx="358" cy="769" r="4"/><circle cx="412" cy="770" r="5"/><circle cx="516" cy="741" r="6"/><circle cx="620" cy="752" r="5"/><circle cx="647" cy="791" r="5"/><circle cx="759" cy="793" r="6"/><circle cx="821" cy="747" r="5"/><circle cx="891" cy="793" r="5"/><circle cx="961" cy="798" r="5"/><circle cx="1069" cy="735" r="4"/><circle cx="1162" cy="729" r="5"/><circle cx="1225" cy="771" r="5"/><circle cx="1310" cy="751" r="6"/><circle cx="1366" cy="733" r="5"/><circle cx="1449" cy="737" r="4"/><circle cx="1524" cy="753" r="5"/><circle cx="1660" cy="745" r="6"/><circle cx="1712" cy="741" r="4"/><circle cx="1771" cy="750" r="5"/><circle cx="1852" cy="766" r="5"/><circle cx="1998" cy="780" r="5"/><circle cx="2070" cy="788" r="5"/><circle cx="2133" cy="743" r="4"/><circle cx="2168" cy="798" r="6"/><circle cx="2241" cy="759" r="4"/><circle cx="2358" cy="721" r="5"/><circle cx="2473" cy="749" r="6"/><circle cx="2555" cy="747" r="5"/><circle cx="-5" cy="747" r="5"/><circle cx="54" cy="851" r="5"/><circle cx="152" cy="845" r="5"/><circle cx="189" cy="809" r="6"/><circle cx="240" cy="805" r="4"/><circle cx="392" cy="875" r="5"/><circle cx="480" cy="832" r="4"/><circle cx="484" cy="877" r="4"/><circle cx="561" cy="819" r="6"/><circle cx="707" cy="873" r="6"/><circle cx="785" cy="866" r="4"/><circle cx="842" cy="856" r="5"/><circle cx="944" cy="857" r="4"/><circle cx="976" cy="840" r="5"/><circle cx="1067" cy="822" r="4"/><circle cx="1177" cy="802" r="4"/><circle cx="1205" cy="858" r="5"/><circle cx="1311" cy="810" r="5"/><circle cx="1406" cy="819" r="4"/><circle cx="1492" cy="821" r="5"/><circle cx="1565" cy="880" r="5"/><circle cx="1630" cy="837" r="5"/><circle cx="1718" cy="853" r="5"/><circle cx="1804" cy="870" r="5"/><circle cx="1858" cy="841" r="5"/><circle cx="1935" cy="856" r="6"/><circle cx="2027" cy="865" r="5"/><circle cx="2141" cy="816" r="6"/><circle cx="2217" cy="879" r="5"/><circle cx="2297" cy="859" r="4"/><circle cx="2365" cy="819" r="5"/><circle cx="2421" cy="828" r="4"/><circle cx="2555" cy="807" r="5"/><circle cx="56" cy="896" r="4"/><circle cx="152" cy="911" r="6"/><circle cx="229" cy="923" r="4"/><circle cx="304" cy="892" r="4"/><circle cx="376" cy="901" r="5"/><circle cx="422" cy="887" r="6"/><circle cx="522" cy="918" r="6"/><circle cx="569" cy="921" r="5"/><circle cx="668" cy="934" r="6"/><circle cx="782" cy="916" r="5"/><circle cx="802" cy="900" r="6"/><circle cx="927" cy="953" r="4"/><circle cx="1002" cy="957" r="4"/><circle cx="1108" cy="957" r="5"/><circle cx="1170" cy="950" r="5"/><circle cx="1230" cy="884" r="6"/><circle cx="1312" cy="911" r="5"/><circle cx="1417" cy="900" r="4"/><circle cx="1484" cy="955" r="6"/><circle cx="1541" cy="889" r="4"/><circle cx="1676" cy="958" r="5"/><circle cx="1739" cy="898" r="5"/><circle cx="1825" cy="921" r="6"/><circle cx="1872" cy="920" r="5"/><circle cx="1941" cy="932" r="5"/><circle cx="2073" cy="957" r="4"/><circle cx="2129" cy="893" r="4"/><circle cx="2197" cy="946" r="6"/><circle cx="2253" cy="894" r="6"/><circle cx="2353" cy="947" r="5"/><circle cx="2455" cy="893" r="5"/><circle cx="2523" cy="955" r="5"/><circle cx="51" cy="1005" r="4"/><circle cx="90" cy="1037" r="4"/><circle cx="234" cy="1007" r="5"/><circle cx="284" cy="968" r="5"/><circle cx="382" cy="1028" r="5"/><circle cx="431" cy="962" r="4"/><circle cx="483" cy="1015" r="6"/><circle cx="586" cy="964" r="5"/><circle cx="685" cy="981" r="5"/><circle cx="799" cy="981" r="6"/><circle cx="812" cy="1019" r="5"/><circle cx="900" cy="1011" r="5"/><circle cx="1037" cy="1001" r="5"/><circle cx="1075" cy="978" r="5"/><circle cx="1167" cy="1020" r="5"/><circle cx="1211" cy="963" r="5"/><circle cx="1335" cy="1017" r="5"/><circle cx="1380" cy="1040" r="5"/><circle cx="1512" cy="982" r="6"/><circle cx="1578" cy="1038" r="5"/><circle cx="1631" cy="1010" r="4"/><circle cx="1711" cy="964" r="6"/><circle cx="1828" cy="1009" r="5"/><circle cx="1868" cy="1039" r="4"/><circle cx="1966" cy="980" r="5"/><circle cx="2013" cy="1010" r="5"/><circle cx="2094" cy="961" r="6"/><circle cx="2167" cy="1032" r="5"/><circle cx="2265" cy="962" r="5"/><circle cx="2337" cy="1012" r="5"/><circle cx="2459" cy="983" r="6"/><circle cx="2508" cy="1014" r="5"/><circle cx="44" cy="1044" r="5"/><circle cx="101" cy="1090" r="6"/><circle cx="192" cy="1077" r="6"/><circle cx="297" cy="1092" r="5"/><circle cx="398" cy="1102" r="4"/><circle cx="416" cy="1055" r="5"/><circle cx="545" cy="1113" r="5"/><circle cx="640" cy="1061" r="6"/><circle cx="697" cy="1083" r="5"/><circle cx="752" cy="1097" r="6"/><circle cx="826" cy="1080" r="4"/><circle cx="958" cy="1070" r="4"/><circle cx="984" cy="1099" r="6"/><circle cx="1117" cy="1073" r="6"/><circle cx="1182" cy="1107" r="4"/><circle cx="1256" cy="1080" r="5"/><circle cx="1319" cy="1075" r="5"/><circle cx="1400" cy="1053" r="5"/><circle cx="1441" cy="1070" r="5"/><circle cx="1556" cy="1048" r="6"/><circle cx="1613" cy="1114" r="5"/><circle cx="1736" cy="1104" r="6"/><circle cx="1834" cy="1103" r="5"/><circle cx="1913" cy="1071" r="6"/><circle cx="1985" cy="1109" r="4"/><circle cx="2020" cy="1087" r="5"/><circle cx="2083" cy="1108" r="4"/><circle cx="2206" cy="1115" r="5"/><circle cx="2265" cy="1042" r="5"/><circle cx="2392" cy="1049" r="4"/><circle cx="2409" cy="1110" r="5"/><circle cx="2548" cy="1055" r="6"/><circle cx="55" cy="1121" r="6"/><circle cx="92" cy="1171" r="6"/><circle cx="186" cy="1172" r="4"/><circle cx="245" cy="1198" r="6"/><circle cx="391" cy="1153" r="6"/><circle cx="407" cy="1148" r="6"/><circle cx="496" cy="1172" r="5"/><circle cx="602" cy="1156" r="4"/><circle cx="683" cy="1166" r="5"/><circle cx="772" cy="1183" r="5"/><circle cx="802" cy="1164" r="5"/><circle cx="928" cy="1141" r="5"/><circle cx="986" cy="1144" r="5"/><circle cx="1103" cy="1174" r="5"/><circle cx="1142" cy="1175" r="5"/><circle cx="1205" cy="1137" r="6"/><circle cx="1349" cy="1138" r="5"/><circle cx="1400" cy="1197" r="5"/><circle cx="1476" cy="1195" r="6"/><circle cx="1529" cy="1171" r="6"/><circle cx="1628" cy="1131" r="4"/><circle cx="1722" cy="1125" r="5"/><circle cx="1825" cy="1193" r="4"/><circle cx="1919" cy="1158" r="6"/><circle cx="1954" cy="1197" r="4"/><circle cx="2048" cy="1134" r="5"/><circle cx="2115" cy="1145" r="4"/><circle cx="2180" cy="1145" r="6"/><circle cx="2247" cy="1197" r="6"/><circle cx="2340" cy="1178" r="5"/><circle cx="2418" cy="1120" r="4"/><circle cx="2549" cy="1163" r="6"/><circle cx="41" cy="1231" r="5"/><circle cx="89" cy="1236" r="5"/><circle cx="202" cy="1225" r="4"/><circle cx="258" cy="1221" r="5"/><circle cx="332" cy="1211" r="6"/><circle cx="424" cy="1261" r="4"/><circle cx="507" cy="1230" r="5"/><circle cx="563" cy="1234" r="4"/><circle cx="647" cy="1261" r="4"/><circle cx="764" cy="1263" r="6"/><circle cx="814" cy="1246" r="5"/><circle cx="880" cy="1229" r="5"/><circle cx="991" cy="1269" r="5"/><circle cx="1110" cy="1225" r="6"/><circle cx="1135" cy="1277" r="6"/><circle cx="1275" cy="1278" r="5"/><circle cx="1359" cy="1216" r="6"/><circle cx="1368" cy="1279" r="5"/><circle cx="1519" cy="1278" r="4"/><circle cx="1522" cy="1209" r="5"/><circle cx="1625" cy="1258" r="6"/><circle cx="1728" cy="1251" r="5"/><circle cx="1778" cy="1209" r="4"/><circle cx="1858" cy="1263" r="5"/><circle cx="1929" cy="1239" r="5"/><circle cx="2024" cy="1221" r="4"/><circle cx="2126" cy="1221" r="5"/><circle cx="2193" cy="1261" r="5"/><circle cx="2298" cy="1201" r="5"/><circle cx="2321" cy="1214" r="6"/><circle cx="2406" cy="1225" r="5"/><circle cx="2514" cy="1216" r="6"/><circle cx="72" cy="1354" r="4"/><circle cx="95" cy="1290" r="5"/><circle cx="229" cy="1298" r="6"/><circle cx="272" cy="1329" r="4"/><circle cx="394" cy="1345" r="5"/><circle cx="425" cy="1311" r="5"/><circle cx="537" cy="1346" r="5"/><circle cx="601" cy="1332" r="5"/><circle cx="667" cy="1303" r="6"/><circle cx="778" cy="1303" r="5"/><circle cx="810" cy="1335" r="4"/><circle cx="880" cy="1313" r="5"/><circle cx="1011" cy="1281" r="5"/><circle cx="1118" cy="1312" r="6"/><circle cx="1164" cy="1355" r="4"/><circle cx="1240" cy="1308" r="6"/><circle cx="1304" cy="1336" r="6"/><circle cx="1425" cy="1316" r="6"/><circle cx="1503" cy="1354" r="5"/><circle cx="1523" cy="1328" r="6"/><circle cx="1622" cy="1298" r="6"/><circle cx="1748" cy="1281" r="5"/><circle cx="1778" cy="1312" r="6"/><circle cx="1850" cy="1359" r="4"/><circle cx="1980" cy="1353" r="5"/><circle cx="2046" cy="1335" r="5"/><circle cx="2128" cy="1344" r="5"/><circle cx="2161" cy="1331" r="5"/><circle cx="2306" cy="1297" r="4"/><circle cx="2345" cy="1292" r="6"/><circle cx="2413" cy="1328" r="4"/><circle cx="2556" cy="1313" r="5"/><circle cx="-4" cy="1313" r="5"/><circle cx="4" cy="1422" r="6"/><circle cx="2564" cy="1422" r="6"/><circle cx="133" cy="1424" r="4"/><circle cx="206" cy="1436" r="5"/><circle cx="206" cy="-4" r="5"/><circle cx="277" cy="1418" r="6"/><circle cx="375" cy="1368" r="6"/><circle cx="449" cy="1396" r="4"/><circle cx="536" cy="1438" r="6"/><circle cx="536" cy="-2" r="6"/><circle cx="599" cy="1408" r="5"/><circle cx="643" cy="1433" r="6"/><circle cx="762" cy="1387" r="4"/><circle cx="828" cy="1415" r="4"/><circle cx="924" cy="1389" r="4"/><circle cx="994" cy="1422" r="6"/><circle cx="1060" cy="1398" r="4"/><circle cx="1181" cy="1381" r="5"/><circle cx="1219" cy="1364" r="5"/><circle cx="1325" cy="1426" r="6"/><circle cx="1439" cy="1363" r="5"/><circle cx="1482" cy="1420" r="5"/><circle cx="1520" cy="1436" r="5"/><circle cx="1520" cy="-4" r="5"/><circle cx="1646" cy="1397" r="5"/><circle cx="1716" cy="1419" r="4"/><circle cx="1810" cy="1404" r="5"/><circle cx="1842" cy="1435" r="5"/><circle cx="1933" cy="1402" r="4"/><circle cx="2018" cy="1373" r="6"/><circle cx="2155" cy="1367" r="5"/><circle cx="2212" cy="1436" r="6"/><circle cx="2212" cy="-4" r="6"/><circle cx="2317" cy="1428" r="4"/><circle cx="2360" cy="1438" r="5"/><circle cx="2360" cy="-2" r="5"/><circle cx="2458" cy="1367" r="6"/><circle cx="2490" cy="1437" r="6"/><circle cx="2490" cy="-3" r="6"/><path stroke="#fff" d="M7 20L98 11M7 20L-69 38M7 20L-26 85M7 20L4 -18M7 20L-70 -3M2567 20L2491 38M2567 20L2534 85M2567 20L2490 -3M7 1460L4 1422M7 1460L-70 1437M2567 1460L2490 1437M98 11L176 7M98 11L81 113M98 11L4 -18M98 11L133 -16M98 1451L4 1422M98 1451L133 1424M176 7L133 -16M176 7L206 -4M176 7L277 -22M176 1447L133 1424M176 1447L206 1436M176 1447L277 1418M247 52L208 135M247 52L301 107M247 52L323 114M247 52L206 -4M247 52L277 -22M247 1492L206 1436M247 1492L277 1418M374 74L431 25M374 74L301 107M374 74L323 114M374 74L433 154M431 25L449 -44M431 1465L449 1396M547 44L584 5M547 44L536 -2M547 44L643 -7M547 1484L536 1438M547 1484L643 1433M584 5L645 77M584 5L536 -2M584 5L599 -32M584 5L643 -7M584 1445L536 1438M584 1445L599 1408M584 1445L643 1433M645 77L598 152M645 77L662 137M645 77L680 176M645 77L643 -7M645 1517L643 1433M767 33L762 -53M767 33L828 -25M767 1473L762 1387M767 1473L828 1415M878 73L895 32M878 73L961 58M878 73L835 104M878 73L886 149M895 32L961 58M895 32L835 104M895 32L828 -25M895 32L924 -51M895 1472L828 1415M895 1472L924 1389M961 58L1031 131M961 58L994 -18M961 1498L994 1422M1091 21L1179 67M1091 21L1100 124M1091 21L994 -18M1091 21L1060 -42M1091 21L1181 -59M1091 1461L994 1422M1091 1461L1060 1398M1091 1461L1181 1381M1179 67L1208 39M1179 67L1100 124M1179 67L1190 109M1179 67L1209 150M1208 39L1190 109M1352 78L1417 76M1352 78L1289 122M1352 78L1361 118M1352 78L1325 -14M1352 1518L1325 1426M1417 76L1467 70M1417 76L1361 118M1417 76L1471 129M1417 76L1482 -20M1417 1516L1482 1420M1467 70L1361 118M1467 70L1471 129M1467 70L1482 -20M1467 70L1520 -4M1467 1510L1482 1420M1467 1510L1520 1436M1590 65L1613 22M1590 65L1583 112M1590 65L1675 106M1590 65L1520 -4M1590 1505L1520 1436M1613 22L1691 45M1613 22L1675 106M1613 22L1520 -4M1613 22L1646 -43M1613 1462L1520 1436M1613 1462L1646 1397M1691 45L1675 106M1691 45L1718 103M1691 45L1646 -43M1691 45L1716 -21M1691 1485L1646 1397M1691 1485L1716 1419M1811 27L1832 122M1811 27L1716 -21M1811 27L1810 -36M1811 27L1842 -5M1811 1467L1716 1419M1811 1467L1810 1404M1811 1467L1842 1435M1898 67L1936 50M1898 67L1832 122M1898 67L1914 126M1898 67L1842 -5M1898 1507L1842 1435M1936 50L2005 45M1936 50L1914 126M1936 50L1961 138M1936 50L1933 -38M1936 1490L1933 1402M2005 45L2089 45M2005 45L2018 -67M2005 1485L2018 1373M2089 45L2205 67M2089 45L2098 160M2205 67L2277 15M2205 67L2165 140M2205 67L2246 126M2205 67L2212 -4M2205 1507L2212 1436M2277 15L2362 52M2277 15L2212 -4M2277 15L2317 -12M2277 15L2360 -2M2277 1455L2212 1436M2277 1455L2317 1428M2277 1455L2360 1438M2362 52L2425 7M2362 52L2343 148M2362 52L2317 -12M2362 52L2360 -2M2362 1492L2317 1428M2362 1492L2360 1438M2425 7L2491 38M2425 7L2360 -2M2425 7L2458 -73M2425 7L2490 -3M2425 1447L2360 1438M2425 1447L2458 1367M2425 1447L2490 1437M2491 38L2534 85M2491 38L2564 -18M2491 38L2490 -3M-69 38L4 -18M-69 1478L4 1422M2491 1478L2564 1422M2491 1478L2490 1437M45 135L81 113M45 135L-26 85M45 135L60 239M45 135L145 173M45 135L-48 200M2605 135L2534 85M2605 135L2512 200M81 113L145 173M208 135L301 107M208 135L145 173M208 135L233 211M208 135L270 175M301 107L323 114M301 107L270 175M323 114L270 175M323 114L371 180M433 154L484 153M433 154L371 180M433 154L469 169M433 154L508 194M484 153L371 180M484 153L469 169M484 153L508 194M598 152L662 137M598 152L508 194M598 152L617 182M598 152L680 176M662 137L617 182M662 137L680 176M797 146L835 104M797 146L886 149M797 146L773 228M797 146L837 162M835 104L886 149M835 104L837 162M886 149L837 162M886 149L916 173M1031 131L1100 124M1031 131L916 173M1031 131L1039 222M1031 131L1081 211M1100 124L1190 109M1100 124L1081 211M1190 109L1209 150M1190 109L1195 161M1209 150L1289 122M1209 150L1195 161M1209 150L1280 197M1289 122L1361 118M1289 122L1195 161M1289 122L1280 197M1361 118L1383 194M1471 129L1383 194M1471 129L1480 197M1471 129L1522 221M1583 112L1675 106M1675 106L1718 103M1832 122L1914 126M1914 126L1961 138M1961 138L2033 149M1961 138L1971 183M1961 138L2017 172M2033 149L2098 160M2033 149L1971 183M2033 149L2017 172M2033 149L2096 172M2098 160L2165 140M2098 160L2017 172M2098 160L2096 172M2165 140L2246 126M2165 140L2096 172M2165 140L2223 193M2246 126L2343 148M2246 126L2223 193M2343 148L2372 230M2343 148L2365 243M2451 142L2534 85M2451 142L2435 175M2451 142L2512 200M60 239L-48 200M60 239L67 263M60 239L90 262M60 239L93 323M2620 239L2512 200M145 173L233 211M233 211L270 175M233 211L286 298M233 211L233 327M371 180L469 169M371 180L358 277M469 169L508 194M508 194L617 182M617 182L680 176M617 182L684 248M680 176L684 248M773 228L837 162M773 228L684 248M773 228L769 266M837 162L916 173M1039 222L1081 211M1039 222L998 256M1039 222L1084 287M1081 211L998 256M1081 211L1084 287M1195 161L1232 238M1195 161L1280 197M1232 238L1280 197M1232 238L1148 303M1232 238L1231 286M1232 238L1292 243M1280 197L1292 243M1383 194L1480 197M1383 194L1292 243M1383 194L1394 259M1480 197L1522 221M1480 197L1394 259M1480 197L1479 283M1522 221L1479 283M1522 221L1599 273M1675 232L1758 239M1675 232L1599 273M1675 232L1621 279M1675 232L1685 264M1758 239L1802 238M1758 239L1685 264M1758 239L1775 295M1802 238L1908 217M1802 238L1775 295M1802 238L1910 252M1802 238L1923 251M1908 217L1971 183M1908 217L1910 252M1908 217L1923 251M1971 183L2017 172M1971 183L1923 251M2017 172L2096 172M2223 193L2270 230M2223 193L2174 255M2270 230L2372 230M2270 230L2174 255M2270 230L2258 288M2270 230L2365 243M2372 230L2435 175M2372 230L2365 243M2372 230L2443 298M2435 175L2512 200M2512 200L2514 292M67 263L90 262M67 263L-46 292M67 263L93 323M2627 263L2514 292M90 262L180 307M90 262L93 323M180 307L286 298M180 307L93 323M180 307L233 327M180 307L272 341M286 298L358 277M286 298L233 327M286 298L272 341M358 277L451 309M358 277L395 379M358 277L422 341M451 309L526 313M451 309L395 379M451 309L422 341M451 309L557 329M526 313L639 318M526 313L557 329M526 313L564 357M639 318L684 248M639 318L557 329M639 318L564 357M639 318L655 372M684 248L769 266M769 266L791 376M875 318L901 318M875 318L852 394M875 318L949 364M875 318L859 411M901 318L949 364M901 318L985 335M998 256L1084 287M998 256L985 335M1084 287L1148 303M1084 287L1130 337M1148 303L1231 286M1148 303L1130 337M1148 303L1219 335M1231 286L1292 243M1231 286L1219 335M1292 243L1394 259M1394 259L1479 283M1394 259L1386 334M1479 283L1386 334M1479 283L1473 354M1599 273L1621 279M1599 273L1685 264M1599 273L1597 350M1621 279L1685 264M1621 279L1597 350M1621 279L1670 344M1685 264L1714 341M1775 295L1714 341M1775 295L1788 388M1910 252L1923 251M1910 252L2020 285M1923 251L2020 285M2020 285L2123 313M2020 285L1985 394M2123 313L2174 255M2123 313L2075 396M2123 313L2123 393M2174 255L2258 288M2258 288L2217 363M2258 288L2331 322M2365 243L2443 298M2365 243L2331 322M2443 298L2514 292M2443 298L2447 392M2514 292L2499 382M7 393L-61 382M7 393L53 405M7 393L106 423M7 393L-55 447M2567 393L2499 382M2567 393L2505 447M93 323L53 405M233 327L272 341M272 341L298 431M395 379L422 341M395 379L369 458M395 379L429 459M557 329L564 357M557 329L565 426M564 357L655 372M564 357L565 426M655 372L652 458M655 372L778 408M791 376L852 394M791 376L778 408M791 376L859 411M852 394L778 408M852 394L859 411M852 394L922 414M949 364L985 335M949 364L922 414M985 335L1048 379M985 335L922 414M1048 379L1130 337M1048 379L1048 433M1048 379L1138 436M1130 337L1219 335M1130 337L1138 436M1219 335L1231 407M1339 377L1386 334M1339 377L1231 407M1339 377L1312 433M1386 334L1473 354M1386 334L1312 433M1473 354L1597 350M1473 354L1500 440M1597 350L1670 344M1597 350L1630 405M1670 344L1714 341M1670 344L1630 405M1670 344L1752 413M1714 341L1788 388M1714 341L1752 413M1788 388L1752 413M1788 388L1804 470M1788 388L1861 428M1914 381L1985 394M1914 381L1861 428M1914 381L1949 445M1914 381L2008 428M1985 394L2075 396M1985 394L1949 445M1985 394L2008 428M2075 396L2123 393M2075 396L2008 428M2075 396L2145 434M2123 393L2145 434M2123 393L2228 415M2217 363L2301 385M2217 363L2228 415M2217 363L2273 405M2301 385L2331 322M2301 385L2228 415M2301 385L2273 405M2301 385L2386 401M2331 322L2273 405M2331 322L2386 401M2447 392L2499 382M2447 392L2386 401M2447 392L2452 406M2447 392L2505 447M2499 382L2452 406M2499 382L2505 447M53 405L106 423M53 405L30 500M53 405L100 491M106 423L170 450M106 423L30 500M106 423L100 491M170 450L100 491M170 450L219 509M298 431L369 458M298 431L219 509M298 431L296 518M369 458L429 459M369 458L296 518M369 458L390 496M429 459L390 496M429 459L411 536M429 459L416 567M557 472L565 426M557 472L652 458M557 472L530 510M557 472L592 539M557 472L643 496M565 426L652 458M565 426L530 510M652 458L643 496M778 408L859 411M778 408L774 517M859 411L922 414M922 414L980 477M980 477L1048 433M980 477L930 553M980 477L989 558M980 477L983 565M1048 433L1138 436M1048 433L1113 543M1048 433L1155 491M1138 436L1231 407M1138 436L1155 491M1231 407L1312 433M1231 407L1274 492M1312 433L1274 492M1434 460L1500 440M1434 460L1540 469M1434 460L1487 517M1500 440L1540 469M1500 440L1487 517M1500 440L1526 508M1540 469L1487 517M1540 469L1526 508M1540 469L1640 491M1630 405L1640 491M1752 413L1804 470M1752 413L1715 499M1804 470L1861 428M1804 470L1715 499M1804 470L1809 523M1861 428L1949 445M1861 428L1809 523M1949 445L2008 428M1949 445L1968 530M2145 434L2228 415M2145 434L2114 522M2145 434L2163 523M2228 415L2273 405M2386 401L2452 406M2386 401L2336 519M2452 406L2505 447M2505 447L2527 542M30 500L100 491M30 500L-33 542M2590 500L2527 542M100 491L104 596M219 509L296 518M219 509L265 575M296 518L390 496M296 518L265 575M390 496L411 536M390 496L416 567M411 536L416 567M530 510L592 539M530 510L416 567M530 510L611 577M592 539L643 496M592 539L611 577M592 539L681 565M643 496L611 577M643 496L681 565M774 517L831 536M774 517L772 568M774 517L803 582M831 536L930 553M831 536L772 568M831 536L803 582M831 536L905 560M930 553L989 558M930 553L905 560M930 553L983 565M989 558L905 560M989 558L983 565M989 558L1069 620M1113 543L1155 491M1113 543L1069 620M1113 543L1189 569M1155 491L1189 569M1274 492L1283 558M1274 492L1369 542M1274 492L1267 586M1283 558L1369 542M1283 558L1189 569M1283 558L1267 586M1283 558L1334 598M1369 542L1334 598M1369 542L1415 612M1369 542L1472 575M1487 517L1526 508M1487 517L1472 575M1526 508L1472 575M1526 508L1599 564M1640 491L1715 499M1640 491L1599 564M1640 491L1636 583M1715 499L1809 523M1715 499L1774 571M1809 523L1913 543M1809 523L1774 571M1913 543L1968 530M1913 543L1907 626M1913 543L1990 567M1968 530L1990 567M2062 536L2114 522M2062 536L2163 523M2062 536L1990 567M2062 536L2011 606M2062 536L2095 634M2114 522L2163 523M2163 523L2180 620M2285 557L2336 519M2285 557L2402 558M2285 557L2299 629M2285 557L2227 648M2336 519L2402 558M2402 558L2398 633M2402 558L2463 566M2402 558L2499 570M2527 542L2567 624M2527 542L2463 566M2527 542L2499 570M-33 542L7 624M7 624L104 596M7 624L-61 570M7 624L42 689M7 624L-25 678M2567 624L2499 570M2567 624L2535 678M104 596L169 614M104 596L154 681M169 614L265 575M169 614L154 681M169 614L190 684M265 575L339 629M265 575L275 667M339 629L416 567M339 629L275 667M339 629L356 676M515 638L449 693M515 638L519 654M515 638L603 642M611 577L681 565M611 577L603 642M681 565L772 568M681 565L668 664M772 568L803 582M772 568L818 659M803 582L905 560M803 582L818 659M905 560L983 565M983 565L1006 671M1069 620L1006 671M1069 620L1041 694M1069 620L1131 656M1189 569L1267 586M1189 569L1240 641M1267 586L1334 598M1267 586L1240 641M1334 598L1415 612M1334 598L1325 661M1415 612L1472 575M1415 612L1379 670M1415 612L1485 643M1472 575L1485 643M1599 564L1636 583M1636 583L1727 607M1636 583L1639 688M1727 607L1774 571M1907 626L1871 699M1907 626L1980 692M1990 567L2011 606M1990 567L2015 657M2011 606L2095 634M2011 606L1980 692M2011 606L2015 657M2095 634L2180 620M2095 634L2015 657M2095 634L2102 708M2180 620L2227 648M2299 629L2398 633M2299 629L2227 648M2299 629L2276 673M2299 629L2338 718M2398 633L2463 566M2398 633L2413 709M2398 633L2358 721M2463 566L2499 570M42 689L-25 678M42 689L55 751M42 689L-5 747M2602 689L2535 678M2602 689L2555 747M154 681L190 684M154 681L205 742M190 684L275 667M190 684L133 772M190 684L205 742M275 667L356 676M356 676L449 693M356 676L358 769M449 693L519 654M449 693L412 770M449 693L516 741M519 654L603 642M519 654L516 741M603 642L668 664M603 642L620 752M668 664L732 675M668 664L620 752M668 664L647 791M732 675L818 659M818 659L904 692M818 659L821 747M904 692L1006 671M904 692L821 747M1006 671L1041 694M1006 671L1069 735M1041 694L1131 656M1041 694L1069 735M1131 656L1240 641M1131 656L1069 735M1131 656L1162 729M1240 641L1325 661M1240 641L1162 729M1325 661L1379 670M1325 661L1310 751M1325 661L1366 733M1379 670L1310 751M1379 670L1366 733M1379 670L1449 737M1485 643L1586 712M1485 643L1524 753M1586 712L1639 688M1586 712L1524 753M1586 712L1660 745M1639 688L1724 692M1639 688L1660 745M1639 688L1712 741M1724 692L1809 715M1724 692L1660 745M1724 692L1712 741M1724 692L1771 750M1809 715L1871 699M1809 715L1712 741M1809 715L1771 750M1809 715L1852 766M1871 699L1980 692M1871 699L1771 750M1871 699L1852 766M1980 692L2015 657M1980 692L1998 780M2015 657L2102 708M2102 708L2070 788M2102 708L2133 743M2102 708L2168 798M2227 648L2276 673M2227 648L2241 759M2276 673L2338 718M2276 673L2241 759M2276 673L2358 721M2338 718L2413 709M2338 718L2358 721M2338 718L2365 819M2413 709L2358 721M2413 709L2473 749M2413 709L2365 819M2535 678L2473 749M2535 678L2555 747M55 751L133 772M55 751L-5 747M55 751L54 851M55 751L-5 807M2615 751L2555 747M2615 751L2555 807M133 772L205 742M133 772L152 845M133 772L189 809M205 742L189 809M205 742L240 805M273 795L358 769M273 795L189 809M273 795L240 805M358 769L412 770M516 741L620 752M516 741L480 832M516 741L561 819M620 752L647 791M620 752L561 819M647 791L561 819M759 793L821 747M759 793L707 873M759 793L785 866M759 793L842 856M821 747L891 793M891 793L961 798M891 793L842 856M891 793L944 857M891 793L976 840M961 798L944 857M961 798L976 840M961 798L1067 822M1069 735L1162 729M1069 735L1067 822M1162 729L1225 771M1162 729L1177 802M1225 771L1310 751M1225 771L1177 802M1225 771L1205 858M1225 771L1311 810M1310 751L1366 733M1310 751L1311 810M1366 733L1449 737M1366 733L1311 810M1449 737L1524 753M1449 737L1406 819M1449 737L1492 821M1524 753L1492 821M1660 745L1712 741M1660 745L1630 837M1712 741L1771 750M1771 750L1852 766M1852 766L1858 841M1998 780L2070 788M1998 780L1935 856M1998 780L2027 865M2070 788L2133 743M2070 788L2027 865M2070 788L2141 816M2133 743L2168 798M2133 743L2241 759M2133 743L2141 816M2168 798L2241 759M2168 798L2141 816M2168 798L2217 879M2358 721L2365 819M2473 749L2555 747M2473 749L2421 828M2473 749L2555 807M2555 747L2555 807M54 851L152 845M54 851L-5 807M54 851L56 896M54 851L152 911M2614 851L2555 807M152 845L189 809M152 845L240 805M152 845L152 911M189 809L240 805M392 875L484 877M392 875L304 892M392 875L376 901M392 875L422 887M480 832L484 877M480 832L561 819M480 832L422 887M484 877L422 887M484 877L522 918M561 819L522 918M707 873L785 866M707 873L668 934M707 873L782 916M707 873L802 900M785 866L842 856M785 866L782 916M785 866L802 900M842 856L782 916M842 856L802 900M944 857L976 840M944 857L927 953M976 840L1067 822M1067 822L1177 802M1177 802L1205 858M1177 802L1230 884M1205 858L1230 884M1205 858L1211 963M1311 810L1406 819M1406 819L1492 821M1406 819L1417 900M1492 821L1565 880M1492 821L1541 889M1565 880L1630 837M1565 880L1484 955M1565 880L1541 889M1630 837L1718 853M1630 837L1541 889M1718 853L1804 870M1718 853L1676 958M1718 853L1739 898M1718 853L1711 964M1804 870L1858 841M1804 870L1739 898M1804 870L1825 921M1804 870L1872 920M1858 841L1935 856M1858 841L1825 921M1858 841L1872 920M1935 856L2027 865M1935 856L1872 920M1935 856L1941 932M2027 865L1941 932M2027 865L2094 961M2141 816L2217 879M2141 816L2129 893M2217 879L2297 859M2217 879L2197 946M2217 879L2253 894M2297 859L2365 819M2297 859L2253 894M2297 859L2353 947M2365 819L2421 828M2421 828L2455 893M2555 807L2616 896M-5 807L56 896M56 896L152 911M152 911L229 923M152 911L234 1007M229 923L304 892M229 923L234 1007M229 923L284 968M304 892L376 901M304 892L284 968M376 901L422 887M376 901L284 968M376 901L431 962M422 887L431 962M522 918L569 921M522 918L483 1015M522 918L586 964M569 921L668 934M569 921L586 964M668 934L586 964M668 934L685 981M782 916L802 900M782 916L799 981M802 900L799 981M927 953L1002 957M927 953L900 1011M1002 957L1037 1001M1002 957L1075 978M1108 957L1170 950M1108 957L1037 1001M1108 957L1075 978M1108 957L1167 1020M1108 957L1211 963M1170 950L1230 884M1170 950L1075 978M1170 950L1167 1020M1170 950L1211 963M1230 884L1312 911M1230 884L1211 963M1312 911L1417 900M1312 911L1335 1017M1417 900L1484 955M1484 955L1541 889M1484 955L1512 982M1484 955L1556 1048M1541 889L1512 982M1676 958L1739 898M1676 958L1631 1010M1676 958L1711 964M1739 898L1825 921M1739 898L1711 964M1825 921L1872 920M1825 921L1828 1009M1872 920L1941 932M1941 932L1966 980M1941 932L2013 1010M2073 957L2129 893M2073 957L2013 1010M2073 957L2094 961M2129 893L2197 946M2129 893L2094 961M2197 946L2253 894M2197 946L2167 1032M2197 946L2265 962M2253 894L2353 947M2253 894L2265 962M2353 947L2265 962M2353 947L2337 1012M2455 893L2523 955M2455 893L2459 983M2523 955L2611 1005M2523 955L2459 983M2523 955L2508 1014M-37 955L51 1005M51 1005L90 1037M51 1005L44 1044M51 1005L-12 1055M2611 1005L2548 1055M90 1037L44 1044M90 1037L101 1090M234 1007L284 968M234 1007L192 1077M234 1007L297 1092M382 1028L431 962M382 1028L483 1015M382 1028L398 1102M382 1028L416 1055M431 962L483 1015M483 1015L416 1055M586 964L685 981M586 964L640 1061M685 981L640 1061M685 981L697 1083M799 981L812 1019M799 981L900 1011M799 981L826 1080M812 1019L900 1011M812 1019L697 1083M812 1019L826 1080M900 1011L826 1080M900 1011L958 1070M1037 1001L1075 978M1037 1001L984 1099M1075 978L1117 1073M1167 1020L1211 963M1167 1020L1117 1073M1167 1020L1182 1107M1335 1017L1380 1040M1335 1017L1256 1080M1335 1017L1319 1075M1335 1017L1400 1053M1380 1040L1319 1075M1380 1040L1400 1053M1380 1040L1441 1070M1380 1040L1349 1138M1512 982L1578 1038M1512 982L1441 1070M1512 982L1556 1048M1578 1038L1631 1010M1578 1038L1556 1048M1578 1038L1613 1114M1578 1038L1628 1131M1631 1010L1711 964M1631 1010L1556 1048M1711 964L1828 1009M1828 1009L1868 1039M1828 1009L1834 1103M1828 1009L1913 1071M1868 1039L1834 1103M1868 1039L1913 1071M1966 980L2013 1010M2013 1010L2094 961M2013 1010L2020 1087M2094 961L2167 1032M2167 1032L2206 1115M2167 1032L2265 1042M2167 1032L2180 1145M2265 962L2337 1012M2265 962L2265 1042M2337 1012L2265 1042M2337 1012L2392 1049M2459 983L2508 1014M2459 983L2392 1049M2508 1014L2392 1049M2508 1014L2548 1055M44 1044L101 1090M44 1044L-12 1055M44 1044L55 1121M2604 1044L2548 1055M101 1090L192 1077M101 1090L55 1121M101 1090L92 1171M192 1077L297 1092M192 1077L186 1172M297 1092L398 1102M398 1102L416 1055M398 1102L391 1153M398 1102L407 1148M416 1055L391 1153M416 1055L407 1148M545 1113L640 1061M545 1113L496 1172M545 1113L602 1156M640 1061L697 1083M697 1083L752 1097M697 1083L683 1166M752 1097L826 1080M752 1097L683 1166M752 1097L772 1183M752 1097L802 1164M826 1080L802 1164M958 1070L984 1099M958 1070L928 1141M958 1070L986 1144M984 1099L928 1141M984 1099L986 1144M1117 1073L1182 1107M1117 1073L1103 1174M1117 1073L1205 1137M1182 1107L1256 1080M1182 1107L1142 1175M1182 1107L1205 1137M1256 1080L1319 1075M1256 1080L1205 1137M1319 1075L1400 1053M1319 1075L1349 1138M1400 1053L1441 1070M1400 1053L1349 1138M1556 1048L1613 1114M1613 1114L1529 1171M1613 1114L1628 1131M1613 1114L1722 1125M1736 1104L1834 1103M1736 1104L1628 1131M1736 1104L1722 1125M1834 1103L1913 1071M1834 1103L1919 1158M1913 1071L1985 1109M1913 1071L1919 1158M1985 1109L2020 1087M1985 1109L1919 1158M1985 1109L1954 1197M1985 1109L2048 1134M2020 1087L2083 1108M2020 1087L2048 1134M2083 1108L2048 1134M2083 1108L2115 1145M2206 1115L2265 1042M2206 1115L2115 1145M2206 1115L2180 1145M2392 1049L2409 1110M2392 1049L2418 1120M2409 1110L2340 1178M2409 1110L2418 1120M2548 1055L2615 1121M2548 1055L2549 1163M-12 1055L55 1121M55 1121L92 1171M55 1121L-11 1163M2615 1121L2549 1163M92 1171L-11 1163M92 1171L41 1231M92 1171L89 1236M2652 1171L2549 1163M186 1172L245 1198M186 1172L202 1225M186 1172L258 1221M245 1198L202 1225M245 1198L258 1221M245 1198L332 1211M245 1198L229 1298M391 1153L407 1148M391 1153L496 1172M391 1153L332 1211M407 1148L496 1172M407 1148L332 1211M496 1172L507 1230M496 1172L563 1234M602 1156L683 1166M602 1156L563 1234M683 1166L772 1183M683 1166L647 1261M772 1183L802 1164M772 1183L764 1263M772 1183L814 1246M802 1164L814 1246M928 1141L986 1144M928 1141L880 1229M1103 1174L1142 1175M1103 1174L1205 1137M1103 1174L1110 1225M1142 1175L1205 1137M1142 1175L1110 1225M1142 1175L1135 1277M1349 1138L1400 1197M1349 1138L1359 1216M1400 1197L1476 1195M1400 1197L1359 1216M1400 1197L1368 1279M1476 1195L1529 1171M1476 1195L1359 1216M1476 1195L1519 1278M1476 1195L1522 1209M1529 1171L1628 1131M1529 1171L1522 1209M1628 1131L1722 1125M1825 1193L1778 1209M1825 1193L1858 1263M1825 1193L1929 1239M1919 1158L1954 1197M1919 1158L1929 1239M1954 1197L1929 1239M1954 1197L2024 1221M2048 1134L2115 1145M2048 1134L2024 1221M2115 1145L2180 1145M2115 1145L2126 1221M2180 1145L2247 1197M2180 1145L2126 1221M2247 1197L2340 1178M2247 1197L2193 1261M2247 1197L2298 1201M2247 1197L2321 1214M2340 1178L2298 1201M2340 1178L2321 1214M2340 1178L2406 1225M2549 1163L2601 1231M2549 1163L2514 1216M-11 1163L41 1231M41 1231L89 1236M41 1231L-46 1216M41 1231L95 1290M2601 1231L2514 1216M89 1236L202 1225M89 1236L95 1290M202 1225L258 1221M202 1225L229 1298M258 1221L332 1211M258 1221L229 1298M332 1211L424 1261M424 1261L507 1230M424 1261L394 1345M424 1261L425 1311M507 1230L563 1234M563 1234L647 1261M647 1261L601 1332M647 1261L667 1303M764 1263L814 1246M764 1263L667 1303M764 1263L778 1303M764 1263L810 1335M814 1246L880 1229M814 1246L778 1303M880 1229L991 1269M880 1229L880 1313M991 1269L880 1313M991 1269L1011 1281M1110 1225L1135 1277M1110 1225L1011 1281M1110 1225L1118 1312M1135 1277L1118 1312M1135 1277L1164 1355M1275 1278L1359 1216M1275 1278L1368 1279M1275 1278L1240 1308M1275 1278L1304 1336M1275 1278L1219 1364M1359 1216L1368 1279M1368 1279L1304 1336M1368 1279L1425 1316M1519 1278L1522 1209M1519 1278L1425 1316M1519 1278L1523 1328M1522 1209L1625 1258M1625 1258L1728 1251M1625 1258L1622 1298M1625 1258L1748 1281M1728 1251L1778 1209M1728 1251L1622 1298M1728 1251L1748 1281M1728 1251L1778 1312M1778 1209L1858 1263M1778 1209L1748 1281M1858 1263L1929 1239M1858 1263L1778 1312M1858 1263L1850 1359M1929 1239L2024 1221M2024 1221L2126 1221M2126 1221L2193 1261M2126 1221L2161 1331M2193 1261L2128 1344M2193 1261L2161 1331M2193 1261L2155 1367M2298 1201L2321 1214M2298 1201L2306 1297M2298 1201L2345 1292M2321 1214L2406 1225M2321 1214L2345 1292M2406 1225L2514 1216M2406 1225L2345 1292M2406 1225L2413 1328M2514 1216L2556 1313M72 1354L95 1290M72 1354L-4 1313M72 1354L4 1422M72 1354L133 1424M2632 1354L2556 1313M95 1290L-4 1313M2655 1290L2556 1313M229 1298L272 1329M272 1329L277 1418M272 1329L375 1368M394 1345L425 1311M394 1345L375 1368M394 1345L449 1396M425 1311L537 1346M425 1311L375 1368M425 1311L449 1396M537 1346L601 1332M537 1346L536 1438M537 1346L599 1408M601 1332L667 1303M601 1332L599 1408M601 1332L643 1433M778 1303L810 1335M778 1303L880 1313M778 1303L762 1387M810 1335L880 1313M810 1335L762 1387M810 1335L828 1415M880 1313L924 1389M1011 1281L1118 1312M1011 1281L994 1422M1118 1312L1164 1355M1118 1312L1181 1381M1164 1355L1240 1308M1164 1355L1181 1381M1164 1355L1219 1364M1240 1308L1304 1336M1240 1308L1181 1381M1240 1308L1219 1364M1304 1336L1219 1364M1304 1336L1325 1426M1425 1316L1503 1354M1425 1316L1523 1328M1425 1316L1439 1363M1503 1354L1523 1328M1503 1354L1439 1363M1503 1354L1482 1420M1503 1354L1520 1436M1523 1328L1622 1298M1523 1328L1439 1363M1622 1298L1748 1281M1622 1298L1646 1397M1748 1281L1778 1312M1778 1312L1850 1359M1778 1312L1810 1404M1850 1359L1810 1404M1850 1359L1842 1435M1850 1359L1933 1402M1980 1353L2046 1335M1980 1353L1933 1402M1980 1353L2018 1373M2046 1335L2128 1344M2046 1335L2018 1373M2046 1335L2155 1367M2128 1344L2161 1331M2128 1344L2018 1373M2128 1344L2155 1367M2161 1331L2155 1367M2161 1331L2212 1436M2306 1297L2345 1292M2306 1297L2413 1328M2345 1292L2413 1328M2413 1328L2458 1367M2556 1313L2458 1367M4 1422L-70 1437M2564 1422L2490 1437M133 1424L206 1436M206 1436L277 1418M277 1418L375 1368M375 1368L449 1396M449 1396L536 1438M536 1438L599 1408M599 1408L643 1433M762 1387L828 1415M828 1415L924 1389M924 1389L994 1422M994 1422L1060 1398M1181 1381L1219 1364M1439 1363L1482 1420M1482 1420L1520 1436M1646 1397L1716 1419M1716 1419L1810 1404M1810 1404L1842 1435M1842 1435L1933 1402M1933 1402L2018 1373M2155 1367L2212 1436M2212 1436L2317 1428M2317 1428L2360 1438M2360 1438L2458 1367M2458 1367L2490 1437"/></svg>