<svg xmlns="http://www.w3.org/2000/svg" width="2560" height="1440" fill="#fff"><circle cx="40" cy="34" r="6"/><circle cx="151" cy="29" r="5"/><circle cx="168" cy="14" r="5"/><circle cx="254" cy="67" r="6"/><circle cx="334" cy="39" r="5"/><circle cx="442" cy="19" r="6"/><circle cx="501" cy="50" r="5"/><circle cx="574" cy="78" r="6"/><circle cx="713" cy="20" r="5"/><circle cx="729" cy="52" r="6"/><circle cx="868" cy="47" r="4"/><circle cx="957" cy="66" r="5"/><circle cx="982" cy="78" r="4"/><circle cx="1051" cy="4" r="5"/><circle cx="1051" cy="1444" r="5"/><circle cx="1126" cy="7" r="5"/><circle cx="1230" cy="49" r="5"/><circle cx="1338" cy="1" r="5"/><circle cx="1338" cy="1441" r="5"/><circle cx="1418" cy="39" r="5"/><circle cx="1477" cy="12" r="6"/><circle cx="1559" cy="11" r="4"/><circle cx="1671" cy="70" r="5"/><circle cx="1758" cy="12" r="5"/><circle cx="1786" cy="73" r="4"/><circle cx="1863" cy="70" r="5"/><circle cx="1998" cy="11" r="4"/><circle cx="2052" cy="66" r="5"/><circle cx="2108" cy="26" r="6"/><circle cx="2176" cy="43" r="5"/><circle cx="2265" cy="42" r="5"/><circle cx="2339" cy="38" r="4"/><circle cx="2452" cy="16" r="5"/><circle cx="2501" cy="24" r="6"/><circle cx="9" cy="149" r="6"/><circle cx="115" cy="142" r="6"/><circle cx="233" cy="93" r="4"/><circle cx="315" cy="87" r="6"/><circle cx="373" cy="152" r="4"/><circle cx="409" cy="154" r="6"/><circle cx="524" cy="97" r="5"/><circle cx="620" cy="138" r="4"/><circle cx="653" cy="94" r="4"/><circle cx="765" cy="106" r="5"/><circle cx="874" cy="87" r="5"/><circle cx="893" cy="154" r="4"/><circle cx="1026" cy="148" r="5"/><circle cx="1079" cy="139" r="5"/><circle cx="1134" cy="103" r="6"/><circle cx="1235" cy="116" r="6"/><circle cx="1349" cy="117" r="6"/><circle cx="1397" cy="124" r="5"/><circle cx="1454" cy="84" r="5"/><circle cx="1559" cy="125" r="5"/><circle cx="1640" cy="91" r="4"/><circle cx="1712" cy="151" r="5"/><circle cx="1809" cy="145" r="5"/><circle cx="1917" cy="123" r="5"/><circle cx="1928" cy="158" r="5"/><circle cx="2012" cy="132" r="5"/><circle cx="2128" cy="139" r="4"/><circle cx="2229" cy="121" r="5"/><circle cx="2243" cy="155" r="6"/><circle cx="2378" cy="110" r="5"/><circle cx="2473" cy="122" r="4"/><circle cx="2557" cy="83" r="6"/><circle cx="-3" cy="83" r="6"/><circle cx="73" cy="167" r="4"/><circle cx="142" cy="174" r="4"/><circle cx="191" cy="213" r="4"/><circle cx="262" cy="225" r="5"/><circle cx="391" cy="194" r="4"/><circle cx="474" cy="231" r="5"/><circle cx="515" cy="202" r="5"/><circle cx="623" cy="234" r="6"/><circle cx="713" cy="198" r="6"/><circle cx="762" cy="221" r="4"/><circle cx="805" cy="216" r="4"/><circle cx="914" cy="164" r="5"/><circle cx="1027" cy="204" r="5"/><circle cx="1102" cy="175" r="5"/><circle cx="1141" cy="186" r="5"/><circle cx="1267" cy="213" r="6"/><circle cx="1295" cy="219" r="5"/><circle cx="1397" cy="222" r="6"/><circle cx="1445" cy="161" r="4"/><circle cx="1538" cy="174" r="4"/><circle cx="1614" cy="221" r="5"/><circle cx="1745" cy="234" r="6"/><circle cx="1773" cy="204" r="6"/><circle cx="1873" cy="198" r="5"/><circle cx="1971" cy="190" r="5"/><circle cx="2062" cy="167" r="4"/><circle cx="2137" cy="197" r="6"/><circle cx="2230" cy="165" r="6"/><circle cx="2283" cy="198" r="5"/><circle cx="2325" cy="208" r="5"/><circle cx="2459" cy="218" r="5"/><circle cx="2535" cy="169" r="5"/><circle cx="31" cy="305" r="5"/><circle cx="154" cy="300" r="5"/><circle cx="211" cy="313" r="6"/><circle cx="310" cy="247" r="5"/><circle cx="333" cy="313" r="5"/><circle cx="431" cy="296" r="5"/><circle cx="491" cy="305" r="6"/><circle cx="587" cy="296" r="6"/><circle cx="717" cy="262" r="5"/><circle cx="759" cy="266" r="5"/><circle cx="865" cy="271" r="5"/><circle cx="889" cy="269" r="5"/><circle cx="997" cy="308" r="6"/><circle cx="1107" cy="272" r="6"/><circle cx="1169" cy="314" r="4"/><circle cx="1255" cy="276" r="5"/><circle cx="1307" cy="270" r="5"/><circle cx="1374" cy="262" r="4"/><circle cx="1464" cy="253" r="6"/><circle cx="1570" cy="268" r="4"/><circle cx="1676" cy="316" r="6"/><circle cx="1720" cy="300" r="5"/><circle cx="1763" cy="278" r="6"/><circle cx="1860" cy="306" r="5"/><circle cx="1994" cy="264" r="5"/><circle cx="2012" cy="289" r="4"/><circle cx="2112" cy="258" r="5"/><circle cx="2234" cy="289" r="5"/><circle cx="2284" cy="243" r="5"/><circle cx="2340" cy="300" r="4"/><circle cx="2463" cy="294" r="5"/><circle cx="2534" cy="245" r="6"/><circle cx="48" cy="346" r="4"/><circle cx="157" cy="345" r="4"/><circle cx="175" cy="354" r="4"/><circle cx="275" cy="372" r="5"/><circle cx="339" cy="334" r="5"/><circle cx="424" cy="359" r="5"/><circle cx="544" cy="337" r="6"/><circle cx="567" cy="370" r="5"/><circle cx="683" cy="361" r="4"/><circle cx="782" cy="358" r="5"/><circle cx="829" cy="377" r="5"/><circle cx="924" cy="359" r="6"/><circle cx="965" cy="341" r="4"/><circle cx="1052" cy="324" r="4"/><circle cx="1163" cy="379" r="6"/><circle cx="1252" cy="329" r="4"/><circle cx="1346" cy="334" r="5"/><circle cx="1431" cy="354" r="6"/><circle cx="1486" cy="390" r="5"/><circle cx="1595" cy="375" r="5"/><circle cx="1622" cy="354" r="4"/><circle cx="1693" cy="345" r="5"/><circle cx="1788" cy="381" r="5"/><circle cx="1845" cy="393" r="5"/><circle cx="1994" cy="378" r="5"/><circle cx="2038" cy="381" r="6"/><circle cx="2090" cy="367" r="4"/><circle cx="2165" cy="341" r="5"/><circle cx="2286" cy="330" r="5"/><circle cx="2322" cy="331" r="5"/><circle cx="2439" cy="337" r="4"/><circle cx="2505" cy="331" r="5"/><circle cx="4" cy="461" r="6"/><circle cx="2564" cy="461" r="6"/><circle cx="111" cy="462" r="6"/><circle cx="229" cy="461" r="4"/><circle cx="305" cy="449" r="6"/><circle cx="371" cy="446" r="5"/><circle cx="436" cy="449" r="6"/><circle cx="554" cy="409" r="6"/><circle cx="635" cy="409" r="5"/><circle cx="668" cy="401" r="4"/><circle cx="785" cy="416" r="5"/><circle cx="815" cy="457" r="5"/><circle cx="898" cy="469" r="5"/><circle cx="1038" cy="460" r="5"/><circle cx="1051" cy="477" r="6"/><circle cx="1147" cy="454" r="6"/><circle cx="1229" cy="445" r="5"/><circle cx="1298" cy="451" r="4"/><circle cx="1372" cy="409" r="5"/><circle cx="1477" cy="456" r="5"/><circle cx="1566" cy="406" r="4"/><circle cx="1623" cy="450" r="5"/><circle cx="1746" cy="473" r="5"/><circle cx="1760" cy="473" r="4"/><circle cx="1871" cy="452" r="4"/><circle cx="1947" cy="464" r="5"/><circle cx="2005" cy="458" r="5"/><circle cx="2096" cy="401" r="5"/><circle cx="2193" cy="417" r="5"/><circle cx="2316" cy="429" r="6"/><circle cx="2349" cy="419" r="4"/><circle cx="2429" cy="465" r="4"/><circle cx="2518" cy="468" r="6"/><circle cx="22" cy="480" r="5"/><circle cx="99" cy="481" r="5"/><circle cx="200" cy="498" r="5"/><circle cx="252" cy="492" r="6"/><circle cx="325" cy="496" r="6"/><circle cx="469" cy="553" r="5"/><circle cx="531" cy="541" r="6"/><circle cx="593" cy="546" r="6"/><circle cx="647" cy="523" r="5"/><circle cx="794" cy="552" r="4"/><circle cx="819" cy="521" r="4"/><circle cx="880" cy="509" r="5"/><circle cx="1035" cy="504" r="5"/><circle cx="1099" cy="493" r="4"/><circle cx="1139" cy="550" r="6"/><circle cx="1206" cy="505" r="4"/><circle cx="1324" cy="544" r="5"/><circle cx="1419" cy="512" r="5"/><circle cx="1476" cy="535" r="5"/><circle cx="1563" cy="518" r="4"/><circle cx="1623" cy="560" r="4"/><circle cx="1756" cy="549" r="5"/><circle cx="1801" cy="489" r="5"/><circle cx="1874" cy="485" r="5"/><circle cx="1949" cy="543" r="4"/><circle cx="2067" cy="548" r="6"/><circle cx="2127" cy="549" r="4"/><circle cx="2202" cy="512" r="6"/><circle cx="2315" cy="484" r="5"/><circle cx="2383" cy="511" r="5"/><circle cx="2474" cy="526" r="4"/><circle cx="2492" cy="484" r="4"/><circle cx="52" cy="619" r="6"/><circle cx="140" cy="566" r="5"/><circle cx="162" cy="564" r="5"/><circle cx="268" cy="568" r="4"/><circle cx="384" cy="599" r="6"/><circle cx="450" cy="564" r="5"/><circle cx="535" cy="572" r="4"/><circle cx="568" cy="561" r="5"/><circle cx="687" cy="566" r="6"/><circle cx="780" cy="598" r="5"/><circle cx="830" cy="573" r="6"/><circle cx="930" cy="609" r="4"/><circle cx="1011" cy="610" r="5"/><circle cx="1050" cy="599" r="6"/><circle cx="1136" cy="613" r="5"/><circle cx="1233" cy="624" r="4"/><circle cx="1355" cy="604" r="6"/><circle cx="1379" cy="624" r="6"/><circle cx="1517" cy="626" r="6"/><circle cx="1588" cy="582" r="5"/><circle cx="1650" cy="607" r="6"/><circle cx="1720" cy="561" r="6"/><circle cx="1766" cy="568" r="4"/><circle cx="1886" cy="630" r="5"/><circle cx="1978" cy="620" r="6"/><circle cx="2054" cy="607" r="5"/><circle cx="2112" cy="625" r="4"/><circle cx="2160" cy="615" r="6"/><circle cx="2244" cy="615" r="5"/><circle cx="2360" cy="633" r="5"/><circle cx="2439" cy="629" r="5"/><circle cx="2485" cy="583" r="6"/><circle cx="54" cy="709" r="6"/><circle cx="118" cy="668" r="6"/><circle cx="169" cy="684" r="5"/><circle cx="305" cy="661" r="4"/><circle cx="380" cy="674" r="5"/><circle cx="403" cy="667" r="5"/><circle cx="534" cy="680" r="6"/><circle cx="581" cy="668" r="4"/><circle cx="653" cy="709" r="6"/><circle cx="734" cy="656" r="5"/><circle cx="843" cy="661" r="6"/><circle cx="933" cy="670" r="4"/><circle cx="1034" cy="658" r="6"/><circle cx="1118" cy="662" r="6"/><circle cx="1124" cy="666" r="4"/><circle cx="1241" cy="670" r="6"/><circle cx="1322" cy="697" r="5"/><circle cx="1428" cy="687" r="6"/><circle cx="1505" cy="705" r="6"/><circle cx="1564" cy="657" r="5"/><circle cx="1636" cy="701" r="5"/><circle cx="1750" cy="695" r="5"/><circle cx="1766" cy="644" r="5"/><circle cx="1888" cy="642" r="5"/><circle cx="1933" cy="715" r="4"/><circle cx="2050" cy="646" r="5"/><circle cx="2096" cy="681" r="5"/><circle cx="2225" cy="669" r="4"/><circle cx="2288" cy="700" r="6"/><circle cx="2374" cy="679" r="5"/><circle cx="2401" cy="667" r="6"/><circle cx="2528" cy="719" r="5"/><circle cx="17" cy="743" r="4"/><circle cx="119" cy="785" r="6"/><circle cx="210" cy="750" r="5"/><circle cx="271" cy="775" r="4"/><circle cx="322" cy="785" r="5"/><circle cx="438" cy="778" r="5"/><circle cx="533" cy="768" r="5"/><circle cx="576" cy="778" r="6"/><circle cx="682" cy="791" r="6"/><circle cx="776" cy="746" r="4"/><circle cx="833" cy="767" r="6"/><circle cx="899" cy="794" r="5"/><circle cx="1024" cy="792" r="6"/><circle cx="1116" cy="761" r="5"/><circle cx="1138" cy="783" r="5"/><circle cx="1236" cy="748" r="6"/><circle cx="1321" cy="776" r="4"/><circle cx="1429" cy="798" r="5"/><circle cx="1461" cy="778" r="5"/><circle cx="1521" cy="778" r="5"/><circle cx="1678" cy="744" r="5"/><circle cx="1725" cy="748" r="6"/><circle cx="1820" cy="778" r="5"/><circle cx="1915" cy="727" r="6"/><circle cx="1978" cy="744" r="5"/><circle cx="2078" cy="751" r="6"/><circle cx="2108" cy="778" r="6"/><circle cx="2228" cy="745" r="4"/><circle cx="2262" cy="792" r="5"/><circle cx="2383" cy="736" r="5"/><circle cx="2451" cy="761" r="6"/><circle cx="2484" cy="744" r="5"/><circle cx="52" cy="874" r="5"/><circle cx="121" cy="804" r="5"/><circle cx="238" cy="801" r="4"/><circle cx="268" cy="820" r="4"/><circle cx="349" cy="867" r="5"/><circle cx="402" cy="866" r="5"/><circle cx="521" cy="856" r="6"/><circle cx="630" cy="850" r="6"/><circle cx="695" cy="860" r="4"/><circle cx="800" cy="862" r="4"/><circle cx="877" cy="880" r="4"/><circle cx="947" cy="802" r="5"/><circle cx="1020" cy="857" r="5"/><circle cx="1052" cy="840" r="6"/><circle cx="1137" cy="851" r="5"/><circle cx="1265" cy="862" r="4"/><circle cx="1324" cy="810" r="5"/><circle cx="1377" cy="823" r="6"/><circle cx="1511" cy="848" r="6"/><circle cx="1563" cy="880" r="4"/><circle cx="1618" cy="873" r="5"/><circle cx="1696" cy="838" r="5"/><circle cx="1826" cy="877" r="6"/><circle cx="1870" cy="846" r="5"/><circle cx="1963" cy="807" r="5"/><circle cx="2045" cy="825" r="4"/><circle cx="2114" cy="841" r="6"/><circle cx="2210" cy="876" r="6"/><circle cx="2286" cy="844" r="5"/><circle cx="2374" cy="826" r="5"/><circle cx="2465" cy="833" r="5"/><circle cx="2541" cy="851" r="5"/><circle cx="32" cy="902" r="4"/><circle cx="114" cy="904" r="6"/><circle cx="236" cy="903" r="5"/><circle cx="257" cy="927" r="5"/><circle cx="348" cy="918" r="6"/><circle cx="427" cy="899" r="5"/><circle cx="559" cy="946" r="6"/><circle cx="572" cy="948" r="6"/><circle cx="657" cy="923" r="4"/><circle cx="750" cy="946" r="5"/><circle cx="813" cy="894" r="5"/><circle cx="910" cy="925" r="4"/><circle cx="1023" cy="915" r="5"/><circle cx="1074" cy="916" r="6"/><circle cx="1199" cy="958" r="6"/><circle cx="1212" cy="916" r="4"/><circle cx="1357" cy="930" r="5"/><circle cx="1411" cy="952" r="5"/><circle cx="1486" cy="940" r="5"/><circle cx="1532" cy="958" r="5"/><circle cx="1676" cy="957" r="5"/><circle cx="1731" cy="902" r="4"/><circle cx="1839" cy="959" r="5"/><circle cx="1910" cy="916" r="5"/><circle cx="1977" cy="937" r="6"/><circle cx="2008" cy="892" r="4"/><circle cx="2109" cy="931" r="4"/><circle cx="2191" cy="939" r="6"/><circle cx="2295" cy="960" r="5"/><circle cx="2348" cy="906" r="4"/><circle cx="2464" cy="915" r="5"/><circle cx="2491" cy="894" r="5"/><circle cx="78" cy="995" r="5"/><circle cx="145" cy="968" r="5"/><circle cx="218" cy="990" r="5"/><circle cx="316" cy="977" r="5"/><circle cx="365" cy="997" r="5"/><circle cx="412" cy="964" r="5"/><circle cx="486" cy="1000" r="5"/><circle cx="610" cy="1010" r="4"/><circle cx="645" cy="1007" r="6"/><circle cx="742" cy="970" r="5"/><circle cx="857" cy="963" r="4"/><circle cx="906" cy="1009" r="5"/><circle cx="1035" cy="982" r="4"/><circle cx="1109" cy="972" r="5"/><circle cx="1150" cy="1017" r="6"/><circle cx="1232" cy="976" r="4"/><circle cx="1351" cy="997" r="6"/><circle cx="1429" cy="1026" r="4"/><circle cx="1452" cy="992" r="5"/><circle cx="1567" cy="999" r="5"/><circle cx="1679" cy="1001" r="6"/><circle cx="1700" cy="1008" r="4"/><circle cx="1805" cy="1011" r="5"/><circle cx="1862" cy="992" r="5"/><circle cx="1936" cy="1001" r="6"/><circle cx="2001" cy="978" r="4"/><circle cx="2144" cy="996" r="4"/><circle cx="2187" cy="985" r="4"/><circle cx="2315" cy="979" r="4"/><circle cx="2334" cy="976" r="5"/><circle cx="2408" cy="1037" r="5"/><circle cx="2534" cy="1033" r="4"/><circle cx="62" cy="1060" r="5"/><circle cx="135" cy="1095" r="5"/><circle cx="206" cy="1096" r="5"/><circle cx="246" cy="1103" r="5"/><circle cx="393" cy="1059" r="4"/><circle cx="472" cy="1096" r="6"/><circle cx="550" cy="1093" r="5"/><circle cx="578" cy="1049" r="5"/><circle cx="651" cy="1078" r="5"/><circle cx="769" cy="1103" r="4"/><circle cx="865" cy="1116" r="5"/><circle cx="956" cy="1102" r="4"/><circle cx="981" cy="1082" r="5"/><circle cx="1098" cy="1079" r="6"/><circle cx="1121" cy="1105" r="5"/><circle cx="1269" cy="1088" r="6"/><circle cx="1349" cy="1081" r="5"/><circle cx="1431" cy="1118" r="5"/><circle cx="1452" cy="1096" r="4"/><circle cx="1578" cy="1106" r="6"/><circle cx="1645" cy="1081" r="6"/><circle cx="1736" cy="1118" r="5"/><circle cx="1795" cy="1117" r="5"/><circle cx="1908" cy="1063" r="4"/><circle cx="1942" cy="1100" r="5"/><circle cx="2026" cy="1051" r="5"/><circle cx="2153" cy="1055" r="6"/><circle cx="2227" cy="1068" r="4"/><circle cx="2274" cy="1115" r="4"/><circle cx="2350" cy="1093" r="6"/><circle cx="2447" cy="1088" r="5"/><circle cx="2495" cy="1119" r="5"/><circle cx="75" cy="1183" r="5"/><circle cx="127" cy="1123" r="5"/><circle cx="203" cy="1167" r="6"/><circle cx="311" cy="1135" r="5"/><circle cx="383" cy="1143" r="6"/><circle cx="450" cy="1134" r="5"/><circle cx="483" cy="1180" r="5"/><circle cx="591" cy="1194" r="6"/><circle cx="663" cy="1141" r="6"/><circle cx="721" cy="1153" r="5"/><circle cx="806" cy="1144" r="5"/><circle cx="959" cy="1154" r="5"/><circle cx="987" cy="1120" r="4"/><circle cx="1073" cy="1180" r="6"/><circle cx="1199" cy="1151" r="5"/><circle cx="1258" cy="1196" r="4"/><circle cx="1329" cy="1163" r="5"/><circle cx="1379" cy="1126" r="6"/><circle cx="1453" cy="1173" r="5"/><circle cx="1573" cy="1191" r="5"/><circle cx="1601" cy="1171" r="5"/><circle cx="1740" cy="1155" r="6"/><circle cx="1783" cy="1121" r="5"/><circle cx="1854" cy="1145" r="5"/><circle cx="1927" cy="1190" r="5"/><circle cx="2023" cy="1157" r="5"/><circle cx="2095" cy="1127" r="5"/><circle cx="2170" cy="1154" r="6"/><circle cx="2319" cy="1120" r="6"/><circle cx="2331" cy="1123" r="4"/><circle cx="2428" cy="1176" r="4"/><circle cx="2548" cy="1148" r="6"/><circle cx="6" cy="1258" r="5"/><circle cx="93" cy="1243" r="5"/><circle cx="161" cy="1252" r="5"/><circle cx="311" cy="1211" r="5"/><circle cx="343" cy="1258" r="5"/><circle cx="411" cy="1278" r="5"/><circle cx="556" cy="1253" r="5"/><circle cx="585" cy="1248" r="5"/><circle cx="666" cy="1216" r="6"/><circle cx="740" cy="1226" r="4"/><circle cx="857" cy="1251" r="5"/><circle cx="901" cy="1280" r="5"/><circle cx="989" cy="1256" r="6"/><circle cx="1110" cy="1271" r="5"/><circle cx="1144" cy="1214" r="5"/><circle cx="1201" cy="1243" r="6"/><circle cx="1316" cy="1263" r="5"/><circle cx="1399" cy="1270" r="5"/><circle cx="1503" cy="1239" r="5"/><circle cx="1561" cy="1219" r="6"/><circle cx="1659" cy="1232" r="6"/><circle cx="1685" cy="1203" r="5"/><circle cx="1836" cy="1229" r="4"/><circle cx="1869" cy="1266" r="4"/><circle cx="1931" cy="1241" r="5"/><circle cx="2080" cy="1253" r="4"/><circle cx="2145" cy="1226" r="6"/><circle cx="2195" cy="1242" r="5"/><circle cx="2310" cy="1220" r="6"/><circle cx="2348" cy="1210" r="4"/><circle cx="2445" cy="1229" r="4"/><circle cx="2485" cy="1246" r="5"/><circle cx="31" cy="1350" r="5"/><circle cx="124" cy="1289" r="5"/><circle cx="231" cy="1287" r="6"/><circle cx="279" cy="1296" r="4"/><circle cx="360" cy="1332" r="6"/><circle cx="430" cy="1325" r="5"/><circle cx="500" cy="1300" r="6"/><circle cx="573" cy="1313" r="6"/><circle cx="680" cy="1298" r="6"/><circle cx="800" cy="1312" r="5"/><circle cx="806" cy="1289" r="6"/><circle cx="893" cy="1340" r="6"/><circle cx="962" cy="1360" r="4"/><circle cx="1110" cy="1303" r="4"/><circle cx="1142" cy="1331" r="5"/><circle cx="1252" cy="1333" r="5"/><circle cx="1349" cy="1342" r="6"/><circle cx="1387" cy="1297" r="5"/><circle cx="1455" cy="1304" r="6"/><circle cx="1580" cy="1339" r="5"/><circle cx="1628" cy="1309" r="6"/><circle cx="1691" cy="1297" r="4"/><circle cx="1824" cy="1306" r="5"/><circle cx="1890" cy="1304" r="6"/><circle cx="1933" cy="1302" r="6"/><circle cx="2064" cy="1303" r="4"/><circle cx="2091" cy="1327" r="5"/><circle cx="2189" cy="1336" r="4"/><circle cx="2291" cy="1302" r="4"/><circle cx="2354" cy="1301" r="5"/><circle cx="2421" cy="1293" r="4"/><circle cx="2506" cy="1302" r="5"/><circle cx="43" cy="1394" r="4"/><circle cx="142" cy="1367" r="5"/><circle cx="212" cy="1414" r="6"/><circle cx="260" cy="1436" r="4"/><circle cx="260" cy="-4" r="4"/><circle cx="336" cy="1425" r="6"/><circle cx="474" cy="1410" r="4"/><circle cx="549" cy="1363" r="5"/><circle cx="596" cy="1389" r="5"/><circle cx="657" cy="1386" r="6"/><circle cx="743" cy="1425" r="5"/><circle cx="823" cy="1395" r="6"/><circle cx="894" cy="1377" r="6"/><circle cx="968" cy="1403" r="6"/><circle cx="1087" cy="1361" r="5"/><circle cx="1177" cy="1435" r="5"/><circle cx="1270" cy="1392" r="6"/><circle cx="1320" cy="1402" r="5"/><circle cx="1427" cy="1362" r="5"/><circle cx="1478" cy="1403" r="6"/><circle cx="1555" cy="1386" r="5"/><circle cx="1609" cy="1429" r="4"/><circle cx="1747" cy="1439" r="6"/><circle cx="1747" cy="-1" r="6"/><circle cx="1839" cy="1401" r="5"/><circle cx="1888" cy="1409" r="5"/><circle cx="1938" cy="1402" r="5"/><circle cx="2065" cy="1435" r="6"/><circle cx="2065" cy="-5" r="6"/><circle cx="2097" cy="1369" r="4"/><circle cx="2206" cy="1370" r="4"/><circle cx="2272" cy="1439" r="5"/><circle cx="2272" cy="-1" r="5"/><circle cx="2393" cy="1411" r="4"/><circle cx="2474" cy="1382" r="5"/><circle cx="2540" cy="1377" r="5"/><path stroke="#fff" d="M40 34L151 29M40 34L-59 24M40 34L-3 83M40 34L43 -46M2600 34L2501 24M2600 34L2557 83M40 1474L43 1394M151 29L168 14M151 29L142 -73M151 29L212 -26M151 1469L142 1367M151 1469L212 1414M168 14L142 -73M168 14L212 -26M168 14L260 -4M168 1454L142 1367M168 1454L212 1414M168 1454L260 1436M254 67L334 39M254 67L233 93M254 67L315 87M254 67L212 -26M254 67L260 -4M254 1507L212 1414M254 1507L260 1436M334 39L442 19M334 39L315 87M334 39L260 -4M334 39L336 -15M334 1479L260 1436M334 1479L336 1425M442 19L501 50M442 19L524 97M442 19L336 -15M442 19L474 -30M442 1459L336 1425M442 1459L474 1410M501 50L574 78M501 50L524 97M501 50L474 -30M501 1490L474 1410M574 78L524 97M574 78L620 138M574 78L653 94M574 78L596 -51M574 1518L596 1389M713 20L729 52M713 20L653 94M713 20L765 106M713 20L657 -54M713 20L743 -15M713 1460L657 1386M713 1460L743 1425M729 52L653 94M729 52L765 106M729 52L743 -15M729 1492L743 1425M868 47L957 66M868 47L874 87M868 47L823 -45M868 1487L823 1395M957 66L982 78M957 66L874 87M957 66L1026 148M957 66L968 -37M957 1506L968 1403M982 78L1051 4M982 78L1026 148M1051 4L1126 7M1051 4L968 -37M1051 4L1087 -79M1051 1444L968 1403M1051 1444L1087 1361M1126 7L1230 49M1126 7L1134 103M1126 7L1087 -79M1126 7L1177 -5M1126 1447L1087 1361M1126 1447L1177 1435M1230 49L1235 116M1230 49L1177 -5M1230 1489L1177 1435M1338 1L1418 39M1338 1L1270 -48M1338 1L1320 -38M1338 1441L1270 1392M1338 1441L1320 1402M1418 39L1477 12M1418 39L1397 124M1418 39L1454 84M1418 39L1478 -37M1418 1479L1478 1403M1477 12L1559 11M1477 12L1454 84M1477 12L1427 -78M1477 12L1478 -37M1477 1452L1427 1362M1477 1452L1478 1403M1559 11L1559 125M1559 11L1555 -54M1559 11L1609 -11M1559 1451L1555 1386M1559 1451L1609 1429M1671 70L1758 12M1671 70L1640 91M1671 70L1712 151M1671 70L1609 -11M1671 70L1747 -1M1671 1510L1609 1429M1671 1510L1747 1439M1758 12L1786 73M1758 12L1747 -1M1758 12L1839 -39M1758 1452L1747 1439M1758 1452L1839 1401M1786 73L1863 70M1786 73L1809 145M1786 73L1747 -1M1786 1513L1747 1439M1863 70L1809 145M1863 70L1917 123M1863 70L1928 158M1863 70L1888 -31M1863 1510L1888 1409M1998 11L2052 66M1998 11L2108 26M1998 11L1888 -31M1998 11L1938 -38M1998 11L2065 -5M1998 1451L1888 1409M1998 1451L1938 1402M1998 1451L2065 1435M2052 66L2108 26M2052 66L2012 132M2052 66L2062 167M2052 66L2065 -5M2052 1506L2065 1435M2108 26L2176 43M2108 26L2065 -5M2108 26L2097 -71M2108 1466L2065 1435M2108 1466L2097 1369M2176 43L2265 42M2176 43L2229 121M2176 43L2065 -5M2176 43L2272 -1M2176 1483L2065 1435M2176 1483L2272 1439M2265 42L2339 38M2265 42L2229 121M2265 42L2272 -1M2265 1482L2272 1439M2339 38L2378 110M2339 38L2272 -1M2339 38L2393 -29M2339 1478L2272 1439M2339 1478L2393 1411M2452 16L2501 24M2452 16L2393 -29M2452 16L2474 -58M2452 1456L2393 1411M2452 1456L2474 1382M2501 24L2557 83M2501 24L2474 -58M2501 24L2540 -63M2501 1464L2474 1382M2501 1464L2540 1377M9 149L115 142M9 149L-3 83M9 149L73 167M9 149L-25 169M2569 149L2557 83M2569 149L2535 169M115 142L73 167M115 142L142 174M115 142L191 213M233 93L315 87M315 87L373 152M315 87L336 -15M315 1527L336 1425M373 152L409 154M373 152L391 194M373 152L310 247M409 154L391 194M409 154L474 231M409 154L515 202M524 97L620 138M524 97L515 202M620 138L653 94M620 138L623 234M653 94L765 106M765 106L874 87M874 87L893 154M874 87L914 164M893 154L914 164M1026 148L1079 139M1026 148L1027 204M1026 148L1102 175M1079 139L1134 103M1079 139L1027 204M1079 139L1102 175M1079 139L1141 186M1134 103L1235 116M1134 103L1102 175M1134 103L1141 186M1235 116L1349 117M1235 116L1267 213M1349 117L1397 124M1349 117L1454 84M1349 117L1445 161M1397 124L1454 84M1397 124L1397 222M1397 124L1445 161M1454 84L1445 161M1559 125L1640 91M1559 125L1538 174M1559 125L1614 221M1640 91L1712 151M1640 91L1609 -11M1640 1531L1609 1429M1712 151L1809 145M1712 151L1745 234M1712 151L1773 204M1809 145L1773 204M1809 145L1873 198M1917 123L1928 158M1917 123L2012 132M1917 123L1873 198M1917 123L1971 190M1928 158L2012 132M1928 158L1873 198M1928 158L1971 190M2012 132L1971 190M2012 132L2062 167M2128 139L2062 167M2128 139L2137 197M2229 121L2243 155M2229 121L2230 165M2229 121L2283 198M2243 155L2230 165M2243 155L2283 198M2243 155L2325 208M2378 110L2473 122M2378 110L2325 208M2473 122L2557 83M2473 122L2459 218M2473 122L2535 169M2557 83L2535 169M73 167L142 174M142 174L191 213M191 213L262 225M191 213L154 300M262 225L211 313M262 225L310 247M391 194L474 231M391 194L310 247M474 231L515 202M474 231L431 296M474 231L491 305M515 202L623 234M623 234L713 198M623 234L587 296M623 234L717 262M713 198L762 221M713 198L805 216M713 198L717 262M713 198L759 266M762 221L805 216M762 221L717 262M762 221L759 266M805 216L717 262M805 216L759 266M805 216L865 271M914 164L865 271M914 164L889 269M1027 204L1102 175M1027 204L997 308M1027 204L1107 272M1102 175L1141 186M1141 186L1107 272M1267 213L1295 219M1267 213L1255 276M1267 213L1307 270M1295 219L1255 276M1295 219L1307 270M1295 219L1374 262M1397 222L1445 161M1397 222L1374 262M1397 222L1464 253M1445 161L1464 253M1538 174L1614 221M1538 174L1464 253M1538 174L1570 268M1614 221L1570 268M1745 234L1773 204M1745 234L1676 316M1745 234L1720 300M1745 234L1763 278M1773 204L1873 198M1773 204L1763 278M1873 198L1971 190M1971 190L1994 264M2062 167L2137 197M2062 167L2112 258M2137 197L2230 165M2137 197L2112 258M2230 165L2283 198M2230 165L2284 243M2283 198L2325 208M2283 198L2284 243M2325 208L2284 243M2325 208L2340 300M2459 218L2535 169M2459 218L2463 294M2459 218L2534 245M2535 169L2534 245M31 305L-97 294M31 305L-26 245M31 305L48 346M31 305L-55 331M2591 305L2463 294M2591 305L2534 245M2591 305L2505 331M154 300L211 313M154 300L48 346M154 300L157 345M154 300L175 354M211 313L157 345M211 313L175 354M211 313L275 372M310 247L333 313M310 247L339 334M333 313L431 296M333 313L275 372M333 313L339 334M431 296L491 305M431 296L339 334M431 296L424 359M491 305L587 296M491 305L424 359M491 305L544 337M587 296L544 337M587 296L567 370M587 296L554 409M717 262L759 266M759 266L782 358M865 271L889 269M865 271L924 359M889 269L924 359M889 269L965 341M997 308L1107 272M997 308L924 359M997 308L965 341M997 308L1052 324M1107 272L1169 314M1107 272L1052 324M1169 314L1255 276M1169 314L1163 379M1169 314L1252 329M1255 276L1307 270M1255 276L1252 329M1307 270L1374 262M1307 270L1346 334M1374 262L1464 253M1374 262L1346 334M1464 253L1431 354M1676 316L1720 300M1676 316L1763 278M1676 316L1622 354M1676 316L1693 345M1720 300L1763 278M1720 300L1693 345M1763 278L1693 345M1860 306L1788 381M1860 306L1845 393M1994 264L2012 289M1994 264L2112 258M2012 289L2112 258M2012 289L1994 378M2012 289L2038 381M2012 289L2090 367M2112 258L2165 341M2234 289L2284 243M2234 289L2340 300M2234 289L2165 341M2234 289L2286 330M2234 289L2322 331M2284 243L2286 330M2340 300L2286 330M2340 300L2322 331M2340 300L2439 337M2463 294L2534 245M2463 294L2439 337M2463 294L2505 331M2534 245L2505 331M48 346L157 345M48 346L-55 331M2608 346L2505 331M157 345L175 354M275 372L339 334M275 372L229 461M275 372L305 449M339 334L424 359M424 359L371 446M424 359L436 449M544 337L567 370M544 337L554 409M544 337L635 409M567 370L554 409M567 370L635 409M567 370L668 401M683 361L782 358M683 361L635 409M683 361L668 401M782 358L829 377M782 358L785 416M829 377L924 359M829 377L785 416M829 377L815 457M829 377L898 469M924 359L965 341M965 341L1052 324M1052 324L1163 379M1163 379L1252 329M1163 379L1147 454M1163 379L1229 445M1252 329L1346 334M1252 329L1229 445M1346 334L1431 354M1346 334L1372 409M1431 354L1486 390M1431 354L1372 409M1431 354L1477 456M1486 390L1595 375M1486 390L1477 456M1486 390L1566 406M1595 375L1622 354M1595 375L1566 406M1595 375L1623 450M1622 354L1693 345M1622 354L1566 406M1622 354L1623 450M1693 345L1788 381M1788 381L1845 393M1788 381L1746 473M1788 381L1760 473M1845 393L1871 452M1845 393L1874 485M1994 378L2038 381M1994 378L1947 464M1994 378L2005 458M1994 378L2096 401M2038 381L2090 367M2038 381L2005 458M2038 381L2096 401M2090 367L2165 341M2090 367L2096 401M2090 367L2193 417M2165 341L2096 401M2165 341L2193 417M2286 330L2322 331M2286 330L2316 429M2322 331L2316 429M2322 331L2349 419M2439 337L2505 331M4 461L111 462M4 461L-42 468M4 461L22 480M4 461L99 481M4 461L-68 484M2564 461L2518 468M2564 461L2492 484M111 462L22 480M111 462L99 481M111 462L200 498M229 461L305 449M229 461L200 498M229 461L252 492M229 461L325 496M305 449L371 446M305 449L252 492M305 449L325 496M371 446L436 449M371 446L325 496M436 449L469 553M436 449L450 564M554 409L635 409M554 409L668 401M635 409L668 401M785 416L815 457M815 457L898 469M815 457L819 521M815 457L880 509M898 469L880 509M1038 460L1051 477M1038 460L1035 504M1038 460L1099 493M1051 477L1035 504M1051 477L1099 493M1147 454L1229 445M1147 454L1099 493M1147 454L1139 550M1147 454L1206 505M1229 445L1298 451M1229 445L1206 505M1298 451L1372 409M1298 451L1206 505M1298 451L1324 544M1477 456L1566 406M1477 456L1419 512M1477 456L1476 535M1566 406L1623 450M1623 450L1563 518M1623 450L1623 560M1746 473L1760 473M1746 473L1756 549M1746 473L1801 489M1746 473L1720 561M1760 473L1756 549M1760 473L1801 489M1871 452L1947 464M1871 452L1801 489M1871 452L1874 485M1947 464L2005 458M1947 464L1874 485M1947 464L1949 543M2096 401L2193 417M2193 417L2202 512M2316 429L2349 419M2316 429L2315 484M2316 429L2383 511M2349 419L2429 465M2349 419L2315 484M2349 419L2383 511M2429 465L2518 468M2429 465L2383 511M2429 465L2474 526M2429 465L2492 484M2518 468L2582 480M2518 468L2474 526M2518 468L2492 484M-42 468L22 480M22 480L99 481M22 480L-68 484M2582 480L2492 484M99 481L140 566M200 498L252 492M200 498L140 566M200 498L162 564M252 492L325 496M252 492L268 568M325 496L268 568M469 553L531 541M469 553L384 599M469 553L450 564M469 553L535 572M531 541L593 546M531 541L450 564M531 541L535 572M531 541L568 561M593 546L647 523M593 546L535 572M593 546L568 561M593 546L687 566M647 523L568 561M647 523L687 566M794 552L819 521M794 552L880 509M794 552L687 566M794 552L780 598M794 552L830 573M819 521L880 509M819 521L830 573M880 509L830 573M1035 504L1099 493M1099 493L1139 550M1139 550L1206 505M1139 550L1050 599M1139 550L1136 613M1324 544L1419 512M1324 544L1355 604M1324 544L1379 624M1419 512L1476 535M1419 512L1355 604M1419 512L1379 624M1476 535L1563 518M1476 535L1517 626M1563 518L1623 560M1563 518L1588 582M1623 560L1588 582M1623 560L1650 607M1756 549L1801 489M1756 549L1720 561M1756 549L1766 568M1801 489L1874 485M1874 485L1949 543M1949 543L1886 630M1949 543L1978 620M2067 548L2127 549M2067 548L2054 607M2067 548L2112 625M2067 548L2050 646M2127 549L2202 512M2127 549L2160 615M2202 512L2315 484M2202 512L2244 615M2315 484L2383 511M2383 511L2474 526M2474 526L2492 484M2474 526L2485 583M52 619L140 566M52 619L162 564M52 619L-75 583M52 619L54 709M52 619L118 668M2612 619L2485 583M140 566L162 564M140 566L118 668M162 564L268 568M268 568L305 661M384 599L450 564M384 599L305 661M384 599L380 674M384 599L403 667M450 564L535 572M535 572L568 561M687 566L780 598M687 566L734 656M780 598L830 573M780 598L734 656M780 598L843 661M830 573L843 661M930 609L1011 610M930 609L843 661M930 609L933 670M1011 610L1050 599M1011 610L933 670M1011 610L1034 658M1050 599L1136 613M1050 599L1034 658M1050 599L1118 662M1136 613L1118 662M1136 613L1124 666M1233 624L1241 670M1355 604L1379 624M1355 604L1322 697M1355 604L1428 687M1379 624L1322 697M1379 624L1428 687M1517 626L1588 582M1517 626L1428 687M1517 626L1505 705M1517 626L1564 657M1588 582L1650 607M1588 582L1564 657M1650 607L1720 561M1650 607L1564 657M1650 607L1636 701M1720 561L1766 568M1720 561L1766 644M1766 568L1766 644M1886 630L1978 620M1886 630L1888 642M1886 630L1933 715M1886 630L1915 727M1978 620L2054 607M1978 620L1888 642M1978 620L2050 646M2054 607L2112 625M2054 607L2050 646M2054 607L2096 681M2112 625L2160 615M2112 625L2050 646M2112 625L2096 681M2160 615L2244 615M2160 615L2096 681M2160 615L2225 669M2244 615L2225 669M2244 615L2288 700M2360 633L2439 629M2360 633L2288 700M2360 633L2374 679M2360 633L2401 667M2360 633L2383 736M2439 629L2485 583M2439 629L2374 679M2439 629L2401 667M54 709L118 668M54 709L-32 719M54 709L17 743M54 709L119 785M2614 709L2528 719M118 668L169 684M118 668L119 785M169 684L210 750M305 661L380 674M305 661L403 667M380 674L403 667M380 674L438 778M403 667L534 680M403 667L438 778M534 680L581 668M534 680L653 709M534 680L533 768M581 668L653 709M653 709L734 656M653 709L576 778M653 709L682 791M734 656L776 746M843 661L933 670M843 661L833 767M933 670L1034 658M1034 658L1118 662M1034 658L1124 666M1118 662L1124 666M1118 662L1116 761M1124 666L1241 670M1241 670L1322 697M1241 670L1236 748M1322 697L1236 748M1322 697L1321 776M1428 687L1505 705M1505 705L1564 657M1505 705L1461 778M1505 705L1521 778M1564 657L1636 701M1636 701L1750 695M1636 701L1678 744M1636 701L1725 748M1750 695L1766 644M1750 695L1678 744M1750 695L1725 748M1750 695L1820 778M1766 644L1888 642M1888 642L1933 715M1888 642L1915 727M1933 715L1915 727M1933 715L1978 744M1933 715L1963 807M2050 646L2096 681M2096 681L2078 751M2225 669L2288 700M2225 669L2228 745M2288 700L2374 679M2288 700L2228 745M2374 679L2401 667M2374 679L2383 736M2401 667L2383 736M2528 719L2577 743M2528 719L2451 761M2528 719L2484 744M-32 719L17 743M17 743L-76 744M2577 743L2484 744M119 785L210 750M119 785L121 804M210 750L271 775M210 750L238 801M210 750L268 820M271 775L322 785M271 775L238 801M271 775L268 820M322 785L238 801M322 785L268 820M322 785L349 867M438 778L533 768M438 778L402 866M533 768L576 778M533 768L521 856M576 778L682 791M576 778L521 856M576 778L630 850M682 791L776 746M682 791L630 850M682 791L695 860M776 746L833 767M833 767L899 794M833 767L800 862M833 767L947 802M899 794L877 880M899 794L947 802M1024 792L1116 761M1024 792L1138 783M1024 792L947 802M1024 792L1020 857M1024 792L1052 840M1116 761L1138 783M1116 761L1137 851M1138 783L1236 748M1138 783L1137 851M1236 748L1321 776M1236 748L1324 810M1321 776L1265 862M1321 776L1324 810M1321 776L1377 823M1429 798L1461 778M1429 798L1521 778M1429 798L1324 810M1429 798L1377 823M1429 798L1511 848M1461 778L1521 778M1461 778L1377 823M1461 778L1511 848M1521 778L1511 848M1521 778L1563 880M1678 744L1725 748M1678 744L1696 838M1725 748L1820 778M1725 748L1696 838M1820 778L1826 877M1820 778L1870 846M1915 727L1978 744M1915 727L1963 807M1978 744L2078 751M1978 744L1963 807M2078 751L2108 778M2078 751L2045 825M2078 751L2114 841M2108 778L2228 745M2108 778L2045 825M2108 778L2114 841M2228 745L2262 792M2262 792L2210 876M2262 792L2286 844M2383 736L2451 761M2383 736L2374 826M2451 761L2484 744M2451 761L2374 826M2451 761L2465 833M52 874L121 804M52 874L-19 851M52 874L32 902M52 874L114 904M52 874L-69 894M2612 874L2541 851M2612 874L2491 894M121 804L114 904M238 801L268 820M268 820L236 903M349 867L402 866M349 867L257 927M349 867L348 918M349 867L427 899M402 866L348 918M402 866L427 899M521 856L630 850M521 856L559 946M521 856L572 948M630 850L695 860M630 850L657 923M695 860L800 862M695 860L657 923M800 862L877 880M800 862L750 946M800 862L813 894M877 880L813 894M877 880L910 925M877 880L857 963M947 802L1020 857M1020 857L1052 840M1020 857L1023 915M1020 857L1074 916M1052 840L1137 851M1052 840L1023 915M1052 840L1074 916M1137 851L1212 916M1265 862L1324 810M1265 862L1199 958M1265 862L1212 916M1324 810L1377 823M1377 823L1357 930M1511 848L1563 880M1511 848L1486 940M1563 880L1618 873M1563 880L1532 958M1618 873L1696 838M1618 873L1532 958M1618 873L1676 957M1618 873L1731 902M1696 838L1731 902M1826 877L1870 846M1826 877L1731 902M1826 877L1839 959M1826 877L1910 916M1870 846L1963 807M1870 846L1910 916M1963 807L2045 825M2045 825L2114 841M2045 825L2008 892M2114 841L2210 876M2114 841L2109 931M2210 876L2286 844M2210 876L2191 939M2210 876L2187 985M2286 844L2374 826M2286 844L2295 960M2286 844L2348 906M2374 826L2465 833M2374 826L2348 906M2465 833L2541 851M2465 833L2464 915M2465 833L2491 894M2541 851L2592 902M2541 851L2464 915M2541 851L2491 894M-19 851L32 902M32 902L114 904M32 902L-69 894M32 902L78 995M2592 902L2491 894M114 904L78 995M114 904L145 968M236 903L257 927M236 903L145 968M236 903L218 990M257 927L218 990M257 927L316 977M348 918L427 899M348 918L316 977M348 918L412 964M427 899L365 997M427 899L412 964M559 946L572 948M559 946L486 1000M559 946L610 1010M572 948L657 923M572 948L610 1010M572 948L645 1007M657 923L750 946M657 923L645 1007M750 946L813 894M750 946L742 970M813 894L742 970M813 894L857 963M910 925L857 963M910 925L906 1009M1023 915L1074 916M1023 915L1035 982M1074 916L1035 982M1074 916L1109 972M1199 958L1212 916M1199 958L1109 972M1199 958L1150 1017M1199 958L1232 976M1212 916L1232 976M1357 930L1411 952M1357 930L1351 997M1411 952L1486 940M1411 952L1351 997M1411 952L1429 1026M1411 952L1452 992M1486 940L1532 958M1486 940L1452 992M1486 940L1567 999M1532 958L1452 992M1532 958L1567 999M1676 957L1731 902M1676 957L1679 1001M1676 957L1700 1008M1731 902L1679 1001M1839 959L1910 916M1839 959L1805 1011M1839 959L1862 992M1910 916L1977 937M1910 916L1936 1001M1977 937L2008 892M1977 937L1936 1001M1977 937L2001 978M1977 937L2026 1051M2008 892L2109 931M2008 892L2001 978M2109 931L2191 939M2109 931L2144 996M2191 939L2295 960M2191 939L2144 996M2191 939L2187 985M2295 960L2348 906M2295 960L2315 979M2295 960L2334 976M2348 906L2315 979M2348 906L2334 976M2464 915L2491 894M78 995L145 968M78 995L-26 1033M78 995L62 1060M2638 995L2534 1033M145 968L218 990M218 990L316 977M218 990L206 1096M316 977L365 997M316 977L412 964M365 997L412 964M365 997L393 1059M412 964L486 1000M486 1000L578 1049M610 1010L645 1007M610 1010L578 1049M610 1010L651 1078M645 1007L578 1049M645 1007L651 1078M742 970L857 963M857 963L906 1009M906 1009L865 1116M906 1009L956 1102M906 1009L981 1082M1035 982L1109 972M1109 972L1150 1017M1109 972L1098 1079M1150 1017L1232 976M1150 1017L1098 1079M1150 1017L1121 1105M1351 997L1429 1026M1351 997L1452 992M1351 997L1349 1081M1429 1026L1452 992M1429 1026L1431 1118M1429 1026L1452 1096M1567 999L1679 1001M1567 999L1578 1106M1679 1001L1700 1008M1679 1001L1645 1081M1700 1008L1805 1011M1700 1008L1645 1081M1805 1011L1862 992M1805 1011L1795 1117M1805 1011L1783 1121M1862 992L1936 1001M1862 992L1908 1063M1936 1001L2001 978M1936 1001L1908 1063M2001 978L2026 1051M2144 996L2187 985M2144 996L2153 1055M2187 985L2153 1055M2187 985L2227 1068M2315 979L2334 976M2315 979L2408 1037M2334 976L2408 1037M2408 1037L2350 1093M2408 1037L2447 1088M2534 1033L2622 1060M2534 1033L2495 1119M-26 1033L62 1060M62 1060L135 1095M62 1060L127 1123M62 1060L-12 1148M2622 1060L2548 1148M135 1095L206 1096M135 1095L127 1123M135 1095L203 1167M206 1096L246 1103M206 1096L127 1123M206 1096L203 1167M246 1103L203 1167M246 1103L311 1135M393 1059L472 1096M393 1059L311 1135M393 1059L383 1143M393 1059L450 1134M472 1096L550 1093M472 1096L383 1143M472 1096L450 1134M472 1096L483 1180M550 1093L578 1049M550 1093L450 1134M578 1049L651 1078M651 1078L663 1141M769 1103L865 1116M769 1103L663 1141M769 1103L721 1153M769 1103L806 1144M865 1116L956 1102M865 1116L806 1144M865 1116L959 1154M956 1102L981 1082M956 1102L959 1154M956 1102L987 1120M981 1082L1098 1079M981 1082L959 1154M981 1082L987 1120M1098 1079L1121 1105M1098 1079L1073 1180M1121 1105L1073 1180M1121 1105L1199 1151M1269 1088L1349 1081M1269 1088L1199 1151M1269 1088L1258 1196M1269 1088L1329 1163M1349 1081L1431 1118M1349 1081L1329 1163M1349 1081L1379 1126M1431 1118L1452 1096M1431 1118L1379 1126M1431 1118L1453 1173M1452 1096L1379 1126M1452 1096L1453 1173M1578 1106L1645 1081M1578 1106L1573 1191M1578 1106L1601 1171M1645 1081L1736 1118M1736 1118L1795 1117M1736 1118L1740 1155M1736 1118L1783 1121M1736 1118L1685 1203M1795 1117L1740 1155M1795 1117L1783 1121M1795 1117L1854 1145M1908 1063L1942 1100M1942 1100L2026 1051M1942 1100L1854 1145M1942 1100L1927 1190M1942 1100L2023 1157M2026 1051L2023 1157M2026 1051L2095 1127M2153 1055L2227 1068M2153 1055L2095 1127M2153 1055L2170 1154M2227 1068L2274 1115M2227 1068L2170 1154M2274 1115L2350 1093M2274 1115L2319 1120M2274 1115L2331 1123M2350 1093L2447 1088M2350 1093L2319 1120M2350 1093L2331 1123M2447 1088L2495 1119M2447 1088L2428 1176M2495 1119L2428 1176M2495 1119L2548 1148M75 1183L127 1123M75 1183L-12 1148M75 1183L6 1258M75 1183L93 1243M75 1183L161 1252M2635 1183L2548 1148M127 1123L203 1167M203 1167L161 1252M311 1135L383 1143M311 1135L311 1211M383 1143L450 1134M383 1143L311 1211M450 1134L483 1180M483 1180L591 1194M483 1180L556 1253M591 1194L663 1141M591 1194L556 1253M591 1194L585 1248M591 1194L666 1216M663 1141L721 1153M663 1141L666 1216M721 1153L806 1144M721 1153L666 1216M721 1153L740 1226M806 1144L857 1251M959 1154L987 1120M959 1154L989 1256M1073 1180L989 1256M1073 1180L1110 1271M1073 1180L1144 1214M1199 1151L1258 1196M1199 1151L1144 1214M1199 1151L1201 1243M1258 1196L1329 1163M1258 1196L1201 1243M1258 1196L1316 1263M1329 1163L1379 1126M1379 1126L1453 1173M1453 1173L1503 1239M1573 1191L1601 1171M1573 1191L1503 1239M1573 1191L1561 1219M1601 1171L1561 1219M1601 1171L1659 1232M1601 1171L1685 1203M1740 1155L1783 1121M1740 1155L1685 1203M1783 1121L1854 1145M1854 1145L1927 1190M1854 1145L1836 1229M1927 1190L2023 1157M1927 1190L1931 1241M2023 1157L2095 1127M2023 1157L2080 1253M2095 1127L2170 1154M2095 1127L2145 1226M2170 1154L2145 1226M2170 1154L2195 1242M2319 1120L2331 1123M2319 1120L2310 1220M2319 1120L2348 1210M2331 1123L2310 1220M2331 1123L2348 1210M2428 1176L2348 1210M2428 1176L2445 1229M2428 1176L2485 1246M6 1258L93 1243M6 1258L-75 1246M6 1258L31 1350M6 1258L-54 1302M2566 1258L2485 1246M2566 1258L2506 1302M93 1243L161 1252M93 1243L124 1289M161 1252L124 1289M161 1252L231 1287M311 1211L343 1258M311 1211L231 1287M311 1211L279 1296M343 1258L411 1278M343 1258L279 1296M343 1258L360 1332M411 1278L360 1332M411 1278L430 1325M411 1278L500 1300M556 1253L585 1248M556 1253L500 1300M556 1253L573 1313M585 1248L573 1313M666 1216L740 1226M666 1216L680 1298M740 1226L680 1298M740 1226L806 1289M857 1251L901 1280M857 1251L800 1312M857 1251L806 1289M901 1280L989 1256M901 1280L806 1289M901 1280L893 1340M901 1280L894 1377M989 1256L962 1360M1110 1271L1144 1214M1110 1271L1201 1243M1110 1271L1110 1303M1110 1271L1142 1331M1144 1214L1201 1243M1144 1214L1110 1303M1201 1243L1252 1333M1316 1263L1399 1270M1316 1263L1252 1333M1316 1263L1349 1342M1316 1263L1387 1297M1399 1270L1387 1297M1399 1270L1455 1304M1503 1239L1561 1219M1503 1239L1455 1304M1561 1219L1659 1232M1561 1219L1628 1309M1659 1232L1685 1203M1659 1232L1628 1309M1659 1232L1691 1297M1685 1203L1691 1297M1836 1229L1869 1266M1836 1229L1931 1241M1836 1229L1824 1306M1836 1229L1890 1304M1869 1266L1931 1241M1869 1266L1824 1306M1869 1266L1890 1304M1869 1266L1933 1302M1931 1241L1890 1304M1931 1241L1933 1302M2080 1253L2145 1226M2080 1253L2064 1303M2080 1253L2091 1327M2145 1226L2195 1242M2145 1226L2091 1327M2195 1242L2189 1336M2195 1242L2291 1302M2310 1220L2348 1210M2310 1220L2291 1302M2310 1220L2354 1301M2348 1210L2354 1301M2445 1229L2485 1246M2445 1229L2421 1293M2485 1246L2421 1293M2485 1246L2506 1302M31 1350L43 1394M31 1350L142 1367M31 1350L-20 1377M2591 1350L2540 1377M124 1289L231 1287M124 1289L142 1367M231 1287L279 1296M279 1296L360 1332M360 1332L430 1325M360 1332L336 1425M430 1325L500 1300M430 1325L474 1410M500 1300L573 1313M500 1300L549 1363M573 1313L549 1363M573 1313L596 1389M680 1298L657 1386M800 1312L806 1289M800 1312L823 1395M893 1340L962 1360M893 1340L823 1395M893 1340L894 1377M893 1340L968 1403M962 1360L894 1377M962 1360L968 1403M1110 1303L1142 1331M1110 1303L1087 1361M1142 1331L1087 1361M1142 1331L1177 1435M1252 1333L1270 1392M1252 1333L1320 1402M1349 1342L1387 1297M1349 1342L1270 1392M1349 1342L1320 1402M1349 1342L1427 1362M1387 1297L1455 1304M1387 1297L1427 1362M1455 1304L1427 1362M1455 1304L1478 1403M1580 1339L1628 1309M1580 1339L1555 1386M1580 1339L1609 1429M1628 1309L1691 1297M1628 1309L1555 1386M1824 1306L1890 1304M1824 1306L1933 1302M1824 1306L1839 1401M1890 1304L1933 1302M1933 1302L1938 1402M2064 1303L2091 1327M2064 1303L2097 1369M2091 1327L2189 1336M2091 1327L2097 1369M2189 1336L2291 1302M2189 1336L2097 1369M2189 1336L2206 1370M2291 1302L2354 1301M2291 1302L2206 1370M2354 1301L2421 1293M2354 1301L2393 1411M2421 1293L2506 1302M2506 1302L2474 1382M2506 1302L2540 1377M43 1394L-20 1377M2603 1394L2540 1377M142 1367L212 1414M212 1414L260 1436M260 1436L336 1425M474 1410L549 1363M549 1363L596 1389M549 1363L657 1386M596 1389L657 1386M657 1386L743 1425M743 1425L823 1395M823 1395L894 1377M894 1377L968 1403M1087 1361L1177 1435M1177 1435L1270 1392M1270 1392L1320 1402M1427 1362L1478 1403M1478 1403L1555 1386M1555 1386L1609 1429M1747 1439L1839 1401M1747 1439L1888 1409M1839 1401L1888 1409M1839 1401L1938 1402M1888 1409L1938 1402M2065 1435L2097 1369M2206 1370L2272 1439M2393 1411L2474 1382M2474 1382L2540 1377"/></svg>