<svg xmlns="http://www.w3.org/2000/svg" width="2560" height="1440" fill="#fff"><circle cx="12" cy="41" r="5"/><circle cx="110" cy="66" r="5"/><circle cx="225" cy="20" r="5"/><circle cx="250" cy="42" r="6"/><circle cx="326" cy="4" r="6"/><circle cx="326" cy="1444" r="6"/><circle cx="457" cy="45" r="5"/><circle cx="492" cy="78" r="5"/><circle cx="572" cy="78" r="6"/><circle cx="646" cy="34" r="5"/><circle cx="773" cy="40" r="6"/><circle cx="823" cy="3" r="5"/><circle cx="823" cy="1443" r="5"/><circle cx="951" cy="22" r="6"/><circle cx="967" cy="23" r="6"/><circle cx="1062" cy="42" r="6"/><circle cx="1162" cy="62" r="6"/><circle cx="1242" cy="51" r="5"/><circle cx="1297" cy="76" r="4"/><circle cx="1380" cy="1" r="5"/><circle cx="1380" cy="1441" r="5"/><circle cx="1486" cy="68" r="5"/><circle cx="1573" cy="44" r="5"/><circle cx="1620" cy="8" r="4"/><circle cx="1703" cy="19" r="5"/><circle cx="1818" cy="56" r="6"/><circle cx="1891" cy="51" r="5"/><circle cx="1954" cy="18" r="4"/><circle cx="2051" cy="67" r="5"/><circle cx="2109" cy="68" r="5"/><circle cx="2209" cy="28" r="5"/><circle cx="2295" cy="75" r="5"/><circle cx="2365" cy="71" r="4"/><circle cx="2463" cy="16" r="5"/><circle cx="2530" cy="68" r="5"/><circle cx="27" cy="82" r="4"/><circle cx="143" cy="83" r="5"/><circle cx="193" cy="108" r="6"/><circle cx="292" cy="104" r="6"/><circle cx="326" cy="157" r="4"/><circle cx="469" cy="133" r="5"/><circle cx="557" cy="119" r="5"/><circle cx="574" cy="90" r="5"/><circle cx="684" cy="141" r="6"/><circle cx="738" cy="93" r="5"/><circle cx="856" cy="92" r="5"/><circle cx="899" cy="107" r="6"/><circle cx="1039" cy="141" r="6"/><circle cx="1077" cy="135" r="5"/><circle cx="1190" cy="128" r="6"/><circle cx="1203" cy="144" r="5"/><circle cx="1291" cy="87" r="6"/><circle cx="1391" cy="115" r="5"/><circle cx="1482" cy="122" r="5"/><circle cx="1545" cy="82" r="5"/><circle cx="1676" cy="110" r="5"/><circle cx="1743" cy="147" r="5"/><circle cx="1805" cy="81" r="5"/><circle cx="1903" cy="108" r="4"/><circle cx="1942" cy="132" r="6"/><circle cx="2012" cy="143" r="6"/><circle cx="2082" cy="104" r="5"/><circle cx="2198" cy="138" r="5"/><circle cx="2287" cy="105" r="5"/><circle cx="2365" cy="89" r="5"/><circle cx="2422" cy="88" r="5"/><circle cx="2558" cy="152" r="5"/><circle cx="-2" cy="152" r="5"/><circle cx="9" cy="237" r="5"/><circle cx="98" cy="161" r="6"/><circle cx="239" cy="197" r="5"/><circle cx="269" cy="223" r="5"/><circle cx="395" cy="217" r="6"/><circle cx="458" cy="190" r="6"/><circle cx="546" cy="180" r="4"/><circle cx="584" cy="207" r="5"/><circle cx="654" cy="207" r="4"/><circle cx="800" cy="203" r="5"/><circle cx="829" cy="188" r="5"/><circle cx="913" cy="222" r="6"/><circle cx="988" cy="231" r="4"/><circle cx="1090" cy="193" r="5"/><circle cx="1164" cy="209" r="5"/><circle cx="1279" cy="231" r="5"/><circle cx="1293" cy="239" r="5"/><circle cx="1425" cy="174" r="5"/><circle cx="1519" cy="219" r="5"/><circle cx="1562" cy="207" r="5"/><circle cx="1646" cy="219" r="5"/><circle cx="1757" cy="171" r="5"/><circle cx="1831" cy="176" r="5"/><circle cx="1915" cy="194" r="5"/><circle cx="1970" cy="226" r="5"/><circle cx="2029" cy="216" r="5"/><circle cx="2093" cy="217" r="6"/><circle cx="2237" cy="171" r="4"/><circle cx="2299" cy="190" r="5"/><circle cx="2375" cy="195" r="5"/><circle cx="2413" cy="223" r="6"/><circle cx="2540" cy="178" r="6"/><circle cx="52" cy="258" r="5"/><circle cx="126" cy="259" r="5"/><circle cx="206" cy="307" r="6"/><circle cx="265" cy="253" r="4"/><circle cx="372" cy="280" r="5"/><circle cx="447" cy="304" r="6"/><circle cx="484" cy="277" r="4"/><circle cx="601" cy="291" r="6"/><circle cx="660" cy="242" r="5"/><circle cx="792" cy="275" r="5"/><circle cx="820" cy="289" r="4"/><circle cx="899" cy="308" r="6"/><circle cx="1002" cy="286" r="5"/><circle cx="1048" cy="256" r="6"/><circle cx="1177" cy="300" r="6"/><circle cx="1231" cy="282" r="6"/><circle cx="1301" cy="271" r="4"/><circle cx="1383" cy="283" r="5"/><circle cx="1509" cy="303" r="5"/><circle cx="1535" cy="267" r="4"/><circle cx="1658" cy="310" r="6"/><circle cx="1731" cy="319" r="5"/><circle cx="1819" cy="296" r="5"/><circle cx="1865" cy="306" r="5"/><circle cx="1951" cy="288" r="5"/><circle cx="2078" cy="303" r="4"/><circle cx="2123" cy="311" r="5"/><circle cx="2169" cy="291" r="6"/><circle cx="2245" cy="259" r="4"/><circle cx="2351" cy="307" r="5"/><circle cx="2454" cy="282" r="5"/><circle cx="2499" cy="315" r="4"/><circle cx="75" cy="349" r="5"/><circle cx="89" cy="385" r="6"/><circle cx="232" cy="390" r="4"/><circle cx="293" cy="396" r="5"/><circle cx="324" cy="378" r="6"/><circle cx="452" cy="350" r="5"/><circle cx="536" cy="382" r="5"/><circle cx="584" cy="372" r="5"/><circle cx="645" cy="340" r="6"/><circle cx="767" cy="336" r="6"/><circle cx="806" cy="386" r="5"/><circle cx="904" cy="368" r="5"/><circle cx="1006" cy="334" r="6"/><circle cx="1099" cy="357" r="5"/><circle cx="1173" cy="370" r="5"/><circle cx="1206" cy="338" r="6"/><circle cx="1314" cy="373" r="4"/><circle cx="1381" cy="379" r="4"/><circle cx="1442" cy="360" r="6"/><circle cx="1563" cy="347" r="5"/><circle cx="1676" cy="349" r="5"/><circle cx="1709" cy="383" r="6"/><circle cx="1801" cy="397" r="6"/><circle cx="1870" cy="359" r="5"/><circle cx="1957" cy="360" r="6"/><circle cx="2044" cy="339" r="5"/><circle cx="2149" cy="374" r="4"/><circle cx="2229" cy="337" r="4"/><circle cx="2304" cy="339" r="5"/><circle cx="2347" cy="330" r="6"/><circle cx="2430" cy="385" r="5"/><circle cx="2560" cy="379" r="6"/><circle cx="-0" cy="379" r="6"/><circle cx="22" cy="421" r="4"/><circle cx="145" cy="457" r="5"/><circle cx="161" cy="403" r="6"/><circle cx="301" cy="470" r="5"/><circle cx="379" cy="454" r="5"/><circle cx="407" cy="479" r="5"/><circle cx="497" cy="430" r="5"/><circle cx="629" cy="457" r="6"/><circle cx="643" cy="480" r="6"/><circle cx="766" cy="426" r="4"/><circle cx="837" cy="418" r="5"/><circle cx="916" cy="474" r="5"/><circle cx="966" cy="462" r="5"/><circle cx="1056" cy="431" r="5"/><circle cx="1165" cy="410" r="6"/><circle cx="1251" cy="448" r="4"/><circle cx="1281" cy="405" r="5"/><circle cx="1371" cy="445" r="4"/><circle cx="1441" cy="414" r="5"/><circle cx="1537" cy="434" r="4"/><circle cx="1629" cy="461" r="6"/><circle cx="1752" cy="478" r="6"/><circle cx="1788" cy="436" r="6"/><circle cx="1852" cy="420" r="4"/><circle cx="1949" cy="452" r="5"/><circle cx="2002" cy="432" r="4"/><circle cx="2150" cy="474" r="5"/><circle cx="2220" cy="475" r="6"/><circle cx="2303" cy="454" r="6"/><circle cx="2340" cy="413" r="6"/><circle cx="2427" cy="436" r="4"/><circle cx="2526" cy="474" r="5"/><circle cx="5" cy="499" r="5"/><circle cx="2565" cy="499" r="5"/><circle cx="158" cy="535" r="5"/><circle cx="174" cy="483" r="5"/><circle cx="245" cy="546" r="5"/><circle cx="339" cy="527" r="6"/><circle cx="461" cy="491" r="4"/><circle cx="537" cy="510" r="6"/><circle cx="571" cy="525" r="4"/><circle cx="647" cy="536" r="5"/><circle cx="797" cy="505" r="6"/><circle cx="860" cy="524" r="5"/><circle cx="943" cy="536" r="5"/><circle cx="979" cy="554" r="4"/><circle cx="1085" cy="526" r="5"/><circle cx="1200" cy="488" r="4"/><circle cx="1270" cy="518" r="5"/><circle cx="1320" cy="533" r="6"/><circle cx="1417" cy="555" r="5"/><circle cx="1441" cy="540" r="6"/><circle cx="1561" cy="535" r="4"/><circle cx="1669" cy="505" r="5"/><circle cx="1714" cy="536" r="4"/><circle cx="1763" cy="554" r="5"/><circle cx="1874" cy="551" r="5"/><circle cx="1952" cy="483" r="6"/><circle cx="2058" cy="516" r="6"/><circle cx="2120" cy="525" r="4"/><circle cx="2199" cy="550" r="5"/><circle cx="2298" cy="495" r="6"/><circle cx="2392" cy="546" r="5"/><circle cx="2479" cy="552" r="5"/><circle cx="2518" cy="557" r="5"/><circle cx="68" cy="629" r="4"/><circle cx="158" cy="632" r="4"/><circle cx="171" cy="612" r="5"/><circle cx="247" cy="599" r="5"/><circle cx="336" cy="611" r="6"/><circle cx="465" cy="624" r="5"/><circle cx="516" cy="614" r="5"/><circle cx="574" cy="584" r="5"/><circle cx="641" cy="561" r="4"/><circle cx="720" cy="622" r="5"/><circle cx="807" cy="582" r="5"/><circle cx="881" cy="627" r="5"/><circle cx="979" cy="574" r="5"/><circle cx="1081" cy="624" r="6"/><circle cx="1161" cy="579" r="5"/><circle cx="1266" cy="615" r="6"/><circle cx="1297" cy="570" r="4"/><circle cx="1401" cy="585" r="6"/><circle cx="1455" cy="629" r="6"/><circle cx="1558" cy="581" r="4"/><circle cx="1637" cy="594" r="6"/><circle cx="1704" cy="621" r="4"/><circle cx="1823" cy="584" r="4"/><circle cx="1866" cy="588" r="6"/><circle cx="1990" cy="618" r="5"/><circle cx="2071" cy="597" r="5"/><circle cx="2137" cy="617" r="5"/><circle cx="2192" cy="608" r="5"/><circle cx="2309" cy="605" r="5"/><circle cx="2381" cy="591" r="4"/><circle cx="2452" cy="620" r="5"/><circle cx="2498" cy="605" r="5"/><circle cx="2" cy="697" r="5"/><circle cx="2562" cy="697" r="5"/><circle cx="127" cy="642" r="5"/><circle cx="176" cy="655" r="5"/><circle cx="315" cy="675" r="6"/><circle cx="383" cy="714" r="4"/><circle cx="438" cy="677" r="5"/><circle cx="524" cy="664" r="4"/><circle cx="572" cy="713" r="5"/><circle cx="711" cy="652" r="4"/><circle cx="727" cy="671" r="5"/><circle cx="854" cy="672" r="5"/><circle cx="941" cy="700" r="6"/><circle cx="1015" cy="710" r="4"/><circle cx="1059" cy="646" r="5"/><circle cx="1178" cy="653" r="5"/><circle cx="1255" cy="674" r="4"/><circle cx="1347" cy="657" r="5"/><circle cx="1367" cy="693" r="5"/><circle cx="1462" cy="643" r="5"/><circle cx="1528" cy="690" r="5"/><circle cx="1624" cy="650" r="5"/><circle cx="1688" cy="673" r="5"/><circle cx="1805" cy="685" r="5"/><circle cx="1845" cy="690" r="5"/><circle cx="1994" cy="647" r="4"/><circle cx="2052" cy="708" r="4"/><circle cx="2159" cy="683" r="5"/><circle cx="2227" cy="670" r="6"/><circle cx="2313" cy="646" r="5"/><circle cx="2366" cy="698" r="5"/><circle cx="2428" cy="642" r="4"/><circle cx="2557" cy="678" r="6"/><circle cx="-3" cy="678" r="6"/><circle cx="3" cy="753" r="5"/><circle cx="2563" cy="753" r="5"/><circle cx="89" cy="786" r="4"/><circle cx="211" cy="760" r="4"/><circle cx="285" cy="773" r="5"/><circle cx="343" cy="741" r="5"/><circle cx="401" cy="732" r="6"/><circle cx="527" cy="721" r="5"/><circle cx="615" cy="767" r="5"/><circle cx="718" cy="730" r="5"/><circle cx="752" cy="776" r="6"/><circle cx="819" cy="759" r="4"/><circle cx="901" cy="747" r="5"/><circle cx="1001" cy="742" r="5"/><circle cx="1062" cy="777" r="4"/><circle cx="1178" cy="778" r="5"/><circle cx="1268" cy="765" r="4"/><circle cx="1301" cy="739" r="5"/><circle cx="1397" cy="770" r="5"/><circle cx="1463" cy="735" r="6"/><circle cx="1593" cy="725" r="5"/><circle cx="1620" cy="797" r="5"/><circle cx="1745" cy="737" r="6"/><circle cx="1814" cy="757" r="5"/><circle cx="1863" cy="752" r="6"/><circle cx="1981" cy="737" r="4"/><circle cx="2024" cy="761" r="5"/><circle cx="2091" cy="739" r="4"/><circle cx="2193" cy="722" r="4"/><circle cx="2282" cy="770" r="6"/><circle cx="2363" cy="759" r="6"/><circle cx="2404" cy="790" r="4"/><circle cx="2500" cy="798" r="4"/><circle cx="53" cy="848" r="6"/><circle cx="156" cy="874" r="4"/><circle cx="204" cy="843" r="4"/><circle cx="246" cy="823" r="5"/><circle cx="396" cy="872" r="5"/><circle cx="405" cy="821" r="4"/><circle cx="526" cy="850" r="4"/><circle cx="584" cy="870" r="6"/><circle cx="673" cy="851" r="5"/><circle cx="766" cy="871" r="5"/><circle cx="880" cy="866" r="5"/><circle cx="907" cy="847" r="5"/><circle cx="986" cy="819" r="6"/><circle cx="1109" cy="874" r="4"/><circle cx="1134" cy="815" r="5"/><circle cx="1241" cy="845" r="5"/><circle cx="1336" cy="876" r="6"/><circle cx="1383" cy="815" r="5"/><circle cx="1465" cy="807" r="6"/><circle cx="1528" cy="880" r="5"/><circle cx="1610" cy="859" r="5"/><circle cx="1728" cy="849" r="5"/><circle cx="1808" cy="832" r="6"/><circle cx="1910" cy="832" r="6"/><circle cx="1987" cy="843" r="5"/><circle cx="2010" cy="818" r="5"/><circle cx="2094" cy="839" r="5"/><circle cx="2196" cy="804" r="5"/><circle cx="2283" cy="873" r="4"/><circle cx="2367" cy="832" r="4"/><circle cx="2446" cy="838" r="4"/><circle cx="2500" cy="828" r="4"/><circle cx="6" cy="951" r="5"/><circle cx="104" cy="910" r="5"/><circle cx="235" cy="890" r="5"/><circle cx="299" cy="937" r="5"/><circle cx="378" cy="906" r="4"/><circle cx="446" cy="942" r="6"/><circle cx="539" cy="930" r="5"/><circle cx="623" cy="930" r="5"/><circle cx="666" cy="916" r="5"/><circle cx="748" cy="901" r="5"/><circle cx="817" cy="938" r="4"/><circle cx="892" cy="930" r="5"/><circle cx="987" cy="902" r="4"/><circle cx="1088" cy="889" r="4"/><circle cx="1196" cy="901" r="5"/><circle cx="1234" cy="942" r="6"/><circle cx="1328" cy="903" r="5"/><circle cx="1398" cy="898" r="5"/><circle cx="1501" cy="954" r="4"/><circle cx="1568" cy="926" r="6"/><circle cx="1676" cy="926" r="5"/><circle cx="1725" cy="885" r="5"/><circle cx="1834" cy="918" r="5"/><circle cx="1907" cy="957" r="4"/><circle cx="1965" cy="919" r="5"/><circle cx="2028" cy="898" r="4"/><circle cx="2154" cy="923" r="5"/><circle cx="2222" cy="907" r="5"/><circle cx="2282" cy="946" r="4"/><circle cx="2378" cy="902" r="5"/><circle cx="2427" cy="930" r="5"/><circle cx="2522" cy="903" r="6"/><circle cx="71" cy="968" r="4"/><circle cx="111" cy="973" r="4"/><circle cx="165" cy="997" r="5"/><circle cx="246" cy="991" r="4"/><circle cx="390" cy="1005" r="6"/><circle cx="453" cy="1021" r="6"/><circle cx="494" cy="966" r="4"/><circle cx="634" cy="967" r="4"/><circle cx="664" cy="981" r="5"/><circle cx="753" cy="981" r="6"/><circle cx="880" cy="988" r="5"/><circle cx="942" cy="996" r="4"/><circle cx="1032" cy="1031" r="4"/><circle cx="1058" cy="1008" r="5"/><circle cx="1181" cy="971" r="6"/><circle cx="1214" cy="1028" r="5"/><circle cx="1355" cy="968" r="6"/><circle cx="1367" cy="1020" r="5"/><circle cx="1462" cy="967" r="6"/><circle cx="1599" cy="1035" r="4"/><circle cx="1627" cy="1036" r="5"/><circle cx="1725" cy="1015" r="5"/><circle cx="1774" cy="997" r="6"/><circle cx="1864" cy="1026" r="4"/><circle cx="1987" cy="1038" r="4"/><circle cx="2060" cy="1032" r="6"/><circle cx="2130" cy="987" r="4"/><circle cx="2169" cy="969" r="4"/><circle cx="2247" cy="1030" r="5"/><circle cx="2389" cy="969" r="5"/><circle cx="2401" cy="967" r="4"/><circle cx="2526" cy="986" r="4"/><circle cx="22" cy="1083" r="5"/><circle cx="135" cy="1075" r="5"/><circle cx="163" cy="1074" r="6"/><circle cx="296" cy="1062" r="5"/><circle cx="334" cy="1087" r="5"/><circle cx="419" cy="1104" r="4"/><circle cx="507" cy="1042" r="5"/><circle cx="569" cy="1085" r="4"/><circle cx="708" cy="1104" r="6"/><circle cx="783" cy="1086" r="5"/><circle cx="853" cy="1057" r="5"/><circle cx="881" cy="1054" r="5"/><circle cx="1038" cy="1109" r="4"/><circle cx="1078" cy="1112" r="5"/><circle cx="1191" cy="1043" r="4"/><circle cx="1268" cy="1063" r="5"/><circle cx="1310" cy="1074" r="5"/><circle cx="1422" cy="1064" r="4"/><circle cx="1459" cy="1077" r="6"/><circle cx="1595" cy="1102" r="5"/><circle cx="1603" cy="1067" r="6"/><circle cx="1738" cy="1072" r="6"/><circle cx="1779" cy="1098" r="5"/><circle cx="1888" cy="1120" r="5"/><circle cx="1934" cy="1068" r="4"/><circle cx="2059" cy="1061" r="5"/><circle cx="2154" cy="1060" r="4"/><circle cx="2213" cy="1058" r="6"/><circle cx="2254" cy="1041" r="5"/><circle cx="2321" cy="1093" r="5"/><circle cx="2442" cy="1083" r="5"/><circle cx="2490" cy="1093" r="6"/><circle cx="14" cy="1136" r="5"/><circle cx="104" cy="1181" r="5"/><circle cx="219" cy="1194" r="5"/><circle cx="280" cy="1165" r="6"/><circle cx="325" cy="1153" r="4"/><circle cx="408" cy="1149" r="5"/><circle cx="503" cy="1133" r="4"/><circle cx="575" cy="1169" r="6"/><circle cx="712" cy="1159" r="6"/><circle cx="768" cy="1175" r="4"/><circle cx="878" cy="1120" r="4"/><circle cx="904" cy="1147" r="5"/><circle cx="976" cy="1163" r="5"/><circle cx="1119" cy="1172" r="4"/><circle cx="1141" cy="1153" r="5"/><circle cx="1254" cy="1174" r="6"/><circle cx="1325" cy="1193" r="4"/><circle cx="1418" cy="1150" r="5"/><circle cx="1502" cy="1157" r="4"/><circle cx="1545" cy="1123" r="6"/><circle cx="1642" cy="1175" r="4"/><circle cx="1752" cy="1171" r="4"/><circle cx="1781" cy="1191" r="6"/><circle cx="1852" cy="1157" r="4"/><circle cx="1974" cy="1146" r="4"/><circle cx="2062" cy="1148" r="6"/><circle cx="2157" cy="1141" r="5"/><circle cx="2231" cy="1180" r="5"/><circle cx="2296" cy="1193" r="5"/><circle cx="2335" cy="1190" r="5"/><circle cx="2423" cy="1134" r="6"/><circle cx="2523" cy="1178" r="5"/><circle cx="77" cy="1272" r="6"/><circle cx="99" cy="1211" r="4"/><circle cx="201" cy="1230" r="5"/><circle cx="244" cy="1273" r="6"/><circle cx="334" cy="1209" r="5"/><circle cx="449" cy="1201" r="5"/><circle cx="524" cy="1235" r="5"/><circle cx="587" cy="1261" r="5"/><circle cx="657" cy="1251" r="4"/><circle cx="749" cy="1211" r="5"/><circle cx="835" cy="1261" r="4"/><circle cx="954" cy="1274" r="4"/><circle cx="1000" cy="1238" r="4"/><circle cx="1119" cy="1272" r="5"/><circle cx="1125" cy="1234" r="4"/><circle cx="1256" cy="1205" r="4"/><circle cx="1295" cy="1203" r="6"/><circle cx="1399" cy="1205" r="6"/><circle cx="1493" cy="1254" r="4"/><circle cx="1547" cy="1234" r="4"/><circle cx="1642" cy="1214" r="5"/><circle cx="1706" cy="1249" r="6"/><circle cx="1820" cy="1245" r="4"/><circle cx="1863" cy="1217" r="6"/><circle cx="1921" cy="1266" r="5"/><circle cx="2059" cy="1217" r="4"/><circle cx="2112" cy="1268" r="5"/><circle cx="2204" cy="1207" r="6"/><circle cx="2311" cy="1207" r="5"/><circle cx="2398" cy="1242" r="5"/><circle cx="2405" cy="1218" r="5"/><circle cx="2530" cy="1259" r="6"/><circle cx="39" cy="1357" r="6"/><circle cx="120" cy="1302" r="4"/><circle cx="190" cy="1345" r="6"/><circle cx="280" cy="1317" r="5"/><circle cx="351" cy="1335" r="6"/><circle cx="455" cy="1308" r="5"/><circle cx="532" cy="1284" r="5"/><circle cx="567" cy="1342" r="5"/><circle cx="714" cy="1310" r="5"/><circle cx="797" cy="1284" r="4"/><circle cx="824" cy="1325" r="5"/><circle cx="881" cy="1352" r="6"/><circle cx="983" cy="1334" r="6"/><circle cx="1074" cy="1300" r="6"/><circle cx="1167" cy="1304" r="6"/><circle cx="1261" cy="1306" r="4"/><circle cx="1315" cy="1290" r="6"/><circle cx="1409" cy="1283" r="6"/><circle cx="1504" cy="1329" r="4"/><circle cx="1586" cy="1309" r="6"/><circle cx="1637" cy="1320" r="6"/><circle cx="1738" cy="1316" r="5"/><circle cx="1822" cy="1360" r="5"/><circle cx="1872" cy="1298" r="4"/><circle cx="1941" cy="1320" r="6"/><circle cx="2046" cy="1299" r="5"/><circle cx="2106" cy="1284" r="5"/><circle cx="2206" cy="1342" r="5"/><circle cx="2246" cy="1290" r="5"/><circle cx="2361" cy="1360" r="4"/><circle cx="2479" cy="1297" r="6"/><circle cx="2506" cy="1305" r="5"/><circle cx="30" cy="1368" r="5"/><circle cx="105" cy="1420" r="6"/><circle cx="169" cy="1390" r="6"/><circle cx="247" cy="1369" r="6"/><circle cx="342" cy="1379" r="5"/><circle cx="409" cy="1388" r="5"/><circle cx="536" cy="1410" r="6"/><circle cx="576" cy="1394" r="5"/><circle cx="692" cy="1433" r="4"/><circle cx="755" cy="1405" r="6"/><circle cx="830" cy="1362" r="5"/><circle cx="909" cy="1429" r="6"/><circle cx="965" cy="1410" r="5"/><circle cx="1079" cy="1373" r="6"/><circle cx="1172" cy="1385" r="4"/><circle cx="1206" cy="1407" r="5"/><circle cx="1312" cy="1375" r="4"/><circle cx="1369" cy="1431" r="4"/><circle cx="1507" cy="1419" r="6"/><circle cx="1544" cy="1384" r="4"/><circle cx="1648" cy="1414" r="5"/><circle cx="1758" cy="1424" r="5"/><circle cx="1785" cy="1438" r="5"/><circle cx="1785" cy="-2" r="5"/><circle cx="1911" cy="1362" r="5"/><circle cx="1969" cy="1408" r="5"/><circle cx="2017" cy="1408" r="5"/><circle cx="2093" cy="1376" r="5"/><circle cx="2181" cy="1411" r="5"/><circle cx="2242" cy="1384" r="5"/><circle cx="2328" cy="1369" r="5"/><circle cx="2431" cy="1431" r="4"/><circle cx="2545" cy="1398" r="5"/><path stroke="#fff" d="M12 41L-30 68M12 41L27 82M12 41L-15 -42M2572 41L2530 68M2572 41L2545 -42M12 1481L-15 1398M2572 1481L2545 1398M110 66L27 82M110 66L143 83M110 66L193 108M110 66L98 161M110 66L105 -20M110 1506L105 1420M225 20L250 42M225 20L193 108M225 20L169 -50M225 1460L169 1390M250 42L326 4M250 42L193 108M250 42L292 104M326 4L292 104M326 4L342 -61M326 4L409 -52M326 1444L342 1379M326 1444L409 1388M457 45L492 78M457 45L469 133M457 45L409 -52M457 45L536 -30M457 1485L409 1388M457 1485L536 1410M492 78L572 78M492 78L469 133M492 78L557 119M492 78L574 90M572 78L646 34M572 78L557 119M572 78L574 90M572 78L536 -30M572 1518L536 1410M646 34L574 90M646 34L738 93M646 34L576 -46M646 34L692 -7M646 1474L576 1394M646 1474L692 1433M773 40L823 3M773 40L738 93M773 40L856 92M773 40L692 -7M773 40L755 -35M773 1480L692 1433M773 1480L755 1405M823 3L856 92M823 3L755 -35M823 3L830 -78M823 3L909 -11M823 1443L755 1405M823 1443L830 1362M823 1443L909 1429M951 22L967 23M951 22L899 107M951 22L909 -11M951 22L965 -30M951 1462L909 1429M951 1462L965 1410M967 23L1062 42M967 23L899 107M967 23L909 -11M967 23L965 -30M967 1463L909 1429M967 1463L965 1410M1062 42L1162 62M1062 42L1039 141M1062 42L1077 135M1062 42L1079 -67M1062 1482L1079 1373M1162 62L1242 51M1162 62L1190 128M1162 62L1203 144M1162 62L1206 -33M1162 1502L1206 1407M1242 51L1297 76M1242 51L1190 128M1242 51L1291 87M1242 51L1206 -33M1242 1491L1206 1407M1297 76L1291 87M1297 76L1391 115M1380 1L1312 -65M1380 1L1369 -9M1380 1441L1312 1375M1380 1441L1369 1431M1486 68L1573 44M1486 68L1391 115M1486 68L1482 122M1486 68L1545 82M1486 68L1507 -21M1486 1508L1507 1419M1573 44L1620 8M1573 44L1545 82M1573 44L1507 -21M1573 44L1648 -26M1573 1484L1507 1419M1573 1484L1648 1414M1620 8L1703 19M1620 8L1545 82M1620 8L1648 -26M1620 1448L1648 1414M1703 19L1676 110M1703 19L1648 -26M1703 19L1758 -16M1703 19L1785 -2M1703 1459L1648 1414M1703 1459L1758 1424M1703 1459L1785 1438M1818 56L1891 51M1818 56L1805 81M1818 56L1903 108M1818 56L1758 -16M1818 56L1785 -2M1818 1496L1758 1424M1818 1496L1785 1438M1891 51L1954 18M1891 51L1805 81M1891 51L1903 108M1891 51L1942 132M1954 18L1969 -32M1954 18L2017 -32M1954 1458L1969 1408M1954 1458L2017 1408M2051 67L2109 68M2051 67L2012 143M2051 67L2082 104M2051 67L2017 -32M2051 1507L2017 1408M2109 68L2082 104M2109 68L2198 138M2209 28L2295 75M2209 28L2198 138M2209 28L2181 -29M2209 28L2242 -56M2209 1468L2181 1411M2209 1468L2242 1384M2295 75L2365 71M2295 75L2287 105M2295 75L2365 89M2365 71L2365 89M2365 71L2422 88M2463 16L2530 68M2463 16L2422 88M2463 16L2431 -9M2463 16L2545 -42M2463 1456L2431 1431M2463 1456L2545 1398M2530 68L2587 82M2530 68L2558 152M2530 68L2540 178M-30 68L27 82M27 82L-2 152M27 82L-20 178M2587 82L2558 152M2587 82L2540 178M143 83L193 108M143 83L98 161M143 83L105 -20M143 1523L105 1420M193 108L292 104M292 104L326 157M292 104L239 197M326 157L239 197M326 157L269 223M326 157L395 217M469 133L557 119M469 133L458 190M469 133L546 180M557 119L574 90M557 119L546 180M574 90L546 180M684 141L738 93M684 141L584 207M684 141L654 207M684 141L800 203M684 141L660 242M738 93L692 -7M738 1533L692 1433M856 92L899 107M856 92L829 188M899 107L829 188M899 107L913 222M1039 141L1077 135M1039 141L988 231M1039 141L1090 193M1039 141L1048 256M1077 135L1090 193M1190 128L1203 144M1190 128L1291 87M1190 128L1164 209M1203 144L1291 87M1203 144L1164 209M1203 144L1279 231M1291 87L1391 115M1391 115L1482 122M1391 115L1425 174M1482 122L1545 82M1482 122L1425 174M1482 122L1519 219M1545 82L1507 -21M1545 1522L1507 1419M1676 110L1743 147M1676 110L1646 219M1676 110L1757 171M1743 147L1805 81M1743 147L1646 219M1743 147L1757 171M1743 147L1831 176M1805 81L1831 176M1805 81L1785 -2M1805 1521L1785 1438M1903 108L1942 132M1903 108L1831 176M1903 108L1915 194M1942 132L2012 143M1942 132L1915 194M1942 132L1970 226M2012 143L2082 104M2012 143L1970 226M2012 143L2029 216M2082 104L2093 217M2198 138L2287 105M2198 138L2237 171M2198 138L2299 190M2287 105L2365 89M2287 105L2237 171M2287 105L2299 190M2365 89L2422 88M2365 89L2375 195M2422 88L2375 195M2422 88L2431 -9M2422 1528L2431 1431M2558 152L2569 237M2558 152L2658 161M2558 152L2540 178M-2 152L9 237M-2 152L98 161M9 237L-20 178M9 237L52 258M9 237L-61 315M2569 237L2540 178M2569 237L2499 315M98 161L52 258M98 161L126 259M239 197L269 223M239 197L265 253M269 223L206 307M269 223L265 253M395 217L458 190M395 217L372 280M395 217L447 304M395 217L484 277M458 190L546 180M458 190L447 304M458 190L484 277M546 180L584 207M584 207L654 207M584 207L601 291M584 207L660 242M654 207L601 291M654 207L660 242M800 203L829 188M800 203L792 275M800 203L820 289M829 188L913 222M829 188L792 275M913 222L988 231M913 222L899 308M913 222L1002 286M988 231L1002 286M988 231L1048 256M1090 193L1164 209M1090 193L1048 256M1164 209L1177 300M1279 231L1293 239M1279 231L1231 282M1279 231L1301 271M1293 239L1231 282M1293 239L1301 271M1293 239L1383 283M1425 174L1519 219M1425 174L1383 283M1519 219L1562 207M1519 219L1509 303M1519 219L1535 267M1562 207L1646 219M1562 207L1509 303M1562 207L1535 267M1646 219L1757 171M1646 219L1658 310M1757 171L1831 176M1831 176L1915 194M1915 194L1970 226M1915 194L1951 288M1970 226L2029 216M1970 226L1951 288M2029 216L2093 217M2029 216L2078 303M2093 217L2078 303M2093 217L2123 311M2237 171L2299 190M2237 171L2245 259M2299 190L2375 195M2299 190L2245 259M2375 195L2413 223M2413 223L2351 307M2413 223L2454 282M2413 223L2347 330M2540 178L2612 258M-20 178L52 258M52 258L126 259M52 258L75 349M126 259L206 307M206 307L265 253M206 307L232 390M206 307L161 403M265 253L372 280M372 280L447 304M372 280L324 378M372 280L452 350M447 304L484 277M447 304L452 350M484 277L452 350M601 291L660 242M601 291L584 372M601 291L645 340M660 242L645 340M792 275L820 289M792 275L767 336M820 289L899 308M820 289L767 336M820 289L806 386M899 308L1002 286M899 308L904 368M899 308L1006 334M1002 286L1048 256M1002 286L1006 334M1048 256L1006 334M1177 300L1231 282M1177 300L1099 357M1177 300L1173 370M1177 300L1206 338M1231 282L1301 271M1231 282L1206 338M1301 271L1383 283M1383 283L1381 379M1383 283L1442 360M1509 303L1535 267M1509 303L1442 360M1509 303L1563 347M1535 267L1563 347M1658 310L1731 319M1658 310L1563 347M1658 310L1676 349M1658 310L1709 383M1731 319L1819 296M1731 319L1676 349M1731 319L1709 383M1819 296L1865 306M1819 296L1870 359M1865 306L1951 288M1865 306L1870 359M1951 288L1957 360M1951 288L2044 339M2078 303L2123 311M2078 303L2169 291M2078 303L2044 339M2123 311L2169 291M2123 311L2044 339M2123 311L2149 374M2169 291L2245 259M2169 291L2149 374M2169 291L2229 337M2245 259L2229 337M2351 307L2454 282M2351 307L2304 339M2351 307L2347 330M2454 282L2499 315M2454 282L2430 385M2499 315L2430 385M2499 315L2560 379M75 349L89 385M75 349L-0 379M75 349L22 421M2635 349L2560 379M89 385L-0 379M89 385L22 421M89 385L145 457M89 385L161 403M2649 385L2560 379M232 390L293 396M232 390L324 378M232 390L161 403M293 396L324 378M293 396L301 470M324 378L301 470M324 378L379 454M452 350L536 382M452 350L497 430M536 382L584 372M536 382L497 430M584 372L645 340M584 372L629 457M767 336L806 386M767 336L766 426M806 386L904 368M806 386L766 426M806 386L837 418M904 368L1006 334M904 368L837 418M1006 334L1099 357M1099 357L1173 370M1099 357L1056 431M1099 357L1165 410M1173 370L1206 338M1173 370L1165 410M1206 338L1165 410M1206 338L1281 405M1314 373L1381 379M1314 373L1281 405M1314 373L1371 445M1381 379L1442 360M1381 379L1371 445M1381 379L1441 414M1442 360L1441 414M1563 347L1676 349M1563 347L1537 434M1676 349L1709 383M1709 383L1801 397M1709 383L1788 436M1801 397L1870 359M1801 397L1752 478M1801 397L1788 436M1801 397L1852 420M1870 359L1957 360M1870 359L1852 420M1957 360L2044 339M1957 360L1949 452M1957 360L2002 432M2044 339L2002 432M2149 374L2229 337M2149 374L2150 474M2229 337L2304 339M2304 339L2347 330M2304 339L2303 454M2304 339L2340 413M2347 330L2430 385M2347 330L2340 413M2430 385L2340 413M2430 385L2427 436M2560 379L2582 421M2560 379L2526 474M-0 379L22 421M22 421L-34 474M22 421L5 499M2582 421L2526 474M145 457L161 403M145 457L158 535M145 457L174 483M161 403L174 483M301 470L379 454M301 470L245 546M301 470L339 527M379 454L407 479M379 454L339 527M379 454L461 491M407 479L497 430M407 479L339 527M407 479L461 491M497 430L461 491M497 430L537 510M629 457L643 480M629 457L537 510M629 457L571 525M629 457L647 536M643 480L571 525M643 480L647 536M643 480L641 561M766 426L837 418M766 426L797 505M837 418L916 474M837 418L797 505M916 474L966 462M916 474L860 524M916 474L943 536M916 474L979 554M966 462L1056 431M966 462L943 536M966 462L979 554M966 462L979 574M1056 431L1085 526M1165 410L1251 448M1165 410L1200 488M1251 448L1281 405M1251 448L1200 488M1251 448L1270 518M1281 405L1371 445M1371 445L1441 414M1441 414L1537 434M1441 414L1441 540M1537 434L1629 461M1537 434L1561 535M1629 461L1561 535M1629 461L1669 505M1752 478L1788 436M1752 478L1669 505M1752 478L1714 536M1752 478L1763 554M1788 436L1852 420M1852 420L1949 452M1949 452L2002 432M1949 452L1952 483M2002 432L1952 483M2002 432L2058 516M2150 474L2220 475M2150 474L2058 516M2150 474L2120 525M2150 474L2199 550M2220 475L2303 454M2220 475L2199 550M2220 475L2298 495M2303 454L2340 413M2303 454L2298 495M2340 413L2298 495M2526 474L2565 499M2526 474L2479 552M2526 474L2518 557M-34 474L5 499M5 499L-42 557M2565 499L2518 557M158 535L174 483M158 535L245 546M158 535L158 632M158 535L171 612M174 483L245 546M245 546L339 527M245 546L247 599M339 527L336 611M461 491L537 510M537 510L571 525M537 510L574 584M571 525L647 536M571 525L574 584M647 536L574 584M647 536L641 561M797 505L860 524M797 505L807 582M860 524L943 536M860 524L807 582M860 524L881 627M943 536L979 554M943 536L979 574M979 554L1085 526M979 554L979 574M1085 526L1081 624M1085 526L1161 579M1200 488L1270 518M1200 488L1161 579M1270 518L1320 533M1270 518L1297 570M1320 533L1417 555M1320 533L1266 615M1320 533L1297 570M1417 555L1441 540M1417 555L1401 585M1417 555L1455 629M1441 540L1401 585M1441 540L1455 629M1441 540L1462 643M1561 535L1558 581M1669 505L1714 536M1669 505L1637 594M1714 536L1763 554M1714 536L1704 621M1763 554L1704 621M1763 554L1823 584M1763 554L1866 588M1874 551L1952 483M1874 551L1823 584M1874 551L1866 588M1874 551L1990 618M1952 483L2058 516M2058 516L2120 525M2058 516L2071 597M2120 525L2199 550M2120 525L2071 597M2199 550L2137 617M2199 550L2192 608M2298 495L2392 546M2298 495L2309 605M2392 546L2479 552M2392 546L2309 605M2392 546L2381 591M2479 552L2518 557M2479 552L2452 620M2479 552L2498 605M2518 557L2452 620M2518 557L2498 605M68 629L2 697M68 629L127 642M68 629L-3 678M2628 629L2557 678M158 632L171 612M158 632L127 642M158 632L176 655M171 612L247 599M171 612L127 642M171 612L176 655M247 599L336 611M247 599L176 655M247 599L315 675M336 611L315 675M336 611L383 714M465 624L516 614M465 624L438 677M465 624L524 664M516 614L574 584M516 614L524 664M516 614L527 721M574 584L641 561M641 561L720 622M720 622L807 582M720 622L711 652M720 622L727 671M720 622L718 730M807 582L881 627M807 582L854 672M881 627L979 574M881 627L854 672M881 627L941 700M979 574L1081 624M1081 624L1161 579M1081 624L1059 646M1081 624L1178 653M1161 579L1178 653M1266 615L1297 570M1266 615L1178 653M1266 615L1255 674M1266 615L1347 657M1401 585L1455 629M1401 585L1347 657M1401 585L1462 643M1455 629L1462 643M1455 629L1528 690M1558 581L1637 594M1558 581L1624 650M1637 594L1704 621M1637 594L1624 650M1637 594L1688 673M1704 621L1624 650M1704 621L1688 673M1823 584L1866 588M1866 588L1805 685M1866 588L1845 690M1990 618L2071 597M1990 618L1994 647M2071 597L2137 617M2071 597L1994 647M2137 617L2192 608M2137 617L2159 683M2192 608L2159 683M2192 608L2227 670M2309 605L2381 591M2309 605L2227 670M2309 605L2313 646M2381 591L2452 620M2381 591L2313 646M2381 591L2428 642M2452 620L2498 605M2452 620L2428 642M2498 605L2428 642M2498 605L2557 678M2 697L-3 678M2 697L3 753M2 697L89 786M2562 697L2557 678M127 642L176 655M127 642L-3 678M2687 642L2557 678M176 655L211 760M315 675L383 714M315 675L343 741M315 675L401 732M383 714L438 677M383 714L343 741M383 714L401 732M438 677L524 664M438 677L401 732M438 677L527 721M524 664L572 713M524 664L527 721M572 713L527 721M572 713L615 767M711 652L727 671M711 652L718 730M727 671L718 730M727 671L752 776M854 672L941 700M854 672L819 759M854 672L901 747M941 700L1015 710M941 700L901 747M941 700L1001 742M1015 710L1059 646M1015 710L1001 742M1015 710L1062 777M1059 646L1178 653M1178 653L1255 674M1255 674L1347 657M1255 674L1268 765M1255 674L1301 739M1347 657L1367 693M1347 657L1301 739M1367 693L1301 739M1367 693L1397 770M1367 693L1463 735M1462 643L1528 690M1462 643L1463 735M1528 690L1463 735M1528 690L1593 725M1624 650L1688 673M1624 650L1593 725M1688 673L1593 725M1688 673L1745 737M1805 685L1845 690M1805 685L1745 737M1805 685L1814 757M1805 685L1863 752M1845 690L1814 757M1845 690L1863 752M1994 647L2052 708M1994 647L1981 737M2052 708L1981 737M2052 708L2024 761M2052 708L2091 739M2159 683L2227 670M2159 683L2091 739M2159 683L2193 722M2227 670L2313 646M2227 670L2193 722M2313 646L2366 698M2366 698L2428 642M2366 698L2282 770M2366 698L2363 759M2366 698L2404 790M2557 678L2563 753M-3 678L3 753M3 753L89 786M3 753L-60 798M3 753L53 848M2563 753L2500 798M89 786L53 848M89 786L156 874M211 760L285 773M211 760L204 843M211 760L246 823M285 773L343 741M285 773L204 843M285 773L246 823M343 741L401 732M343 741L405 821M401 732L405 821M527 721L615 767M718 730L752 776M718 730L819 759M752 776L819 759M752 776L766 871M819 759L901 747M901 747L1001 742M901 747L907 847M1001 742L1062 777M1001 742L986 819M1062 777L1178 778M1062 777L986 819M1062 777L1134 815M1178 778L1268 765M1178 778L1134 815M1178 778L1241 845M1268 765L1301 739M1268 765L1241 845M1301 739L1397 770M1397 770L1463 735M1397 770L1383 815M1397 770L1465 807M1463 735L1465 807M1593 725L1620 797M1620 797L1610 859M1745 737L1814 757M1745 737L1728 849M1814 757L1863 752M1814 757L1808 832M1863 752L1808 832M1863 752L1910 832M1981 737L2024 761M1981 737L2010 818M2024 761L2091 739M2024 761L1987 843M2024 761L2010 818M2091 739L2094 839M2193 722L2282 770M2193 722L2196 804M2282 770L2363 759M2282 770L2196 804M2282 770L2283 873M2363 759L2404 790M2363 759L2367 832M2404 790L2500 798M2404 790L2367 832M2404 790L2446 838M2500 798L2446 838M2500 798L2500 828M53 848L6 951M53 848L104 910M53 848L-38 903M2613 848L2522 903M156 874L204 843M156 874L246 823M156 874L104 910M156 874L235 890M204 843L246 823M204 843L235 890M246 823L235 890M396 872L405 821M396 872L378 906M396 872L446 942M405 821L378 906M526 850L584 870M526 850L539 930M584 870L673 851M584 870L539 930M584 870L623 930M673 851L766 871M673 851L666 916M673 851L748 901M766 871L748 901M766 871L817 938M766 871L753 981M880 866L907 847M880 866L986 819M880 866L892 930M907 847L986 819M907 847L892 930M907 847L987 902M986 819L987 902M1109 874L1134 815M1109 874L1088 889M1109 874L1196 901M1134 815L1088 889M1134 815L1196 901M1241 845L1336 876M1241 845L1196 901M1241 845L1234 942M1336 876L1383 815M1336 876L1328 903M1336 876L1398 898M1336 876L1355 968M1383 815L1465 807M1383 815L1328 903M1383 815L1398 898M1465 807L1528 880M1528 880L1610 859M1528 880L1501 954M1528 880L1568 926M1610 859L1728 849M1610 859L1568 926M1610 859L1676 926M1728 849L1808 832M1728 849L1676 926M1728 849L1725 885M1808 832L1910 832M1808 832L1834 918M1910 832L1987 843M1910 832L1965 919M1987 843L2010 818M1987 843L1965 919M1987 843L2028 898M2010 818L2094 839M2010 818L2028 898M2094 839L2196 804M2094 839L2028 898M2094 839L2154 923M2196 804L2222 907M2283 873L2367 832M2283 873L2222 907M2283 873L2282 946M2367 832L2446 838M2367 832L2378 902M2446 838L2500 828M2446 838L2378 902M2500 828L2522 903M6 951L104 910M6 951L-38 903M6 951L71 968M6 951L-34 986M2566 951L2522 903M2566 951L2526 986M104 910L71 968M104 910L111 973M235 890L299 937M235 890L246 991M299 937L378 906M299 937L246 991M378 906L446 942M378 906L390 1005M446 942L390 1005M446 942L453 1021M446 942L494 966M539 930L623 930M539 930L494 966M623 930L666 916M623 930L634 967M623 930L664 981M666 916L748 901M666 916L634 967M666 916L664 981M748 901L817 938M748 901L753 981M817 938L892 930M817 938L753 981M817 938L880 988M892 930L880 988M892 930L942 996M987 902L1088 889M1196 901L1234 942M1196 901L1181 971M1234 942L1328 903M1234 942L1181 971M1234 942L1214 1028M1328 903L1398 898M1328 903L1355 968M1398 898L1355 968M1398 898L1462 967M1501 954L1568 926M1501 954L1462 967M1568 926L1676 926M1568 926L1462 967M1676 926L1725 885M1676 926L1725 1015M1725 885L1834 918M1834 918L1907 957M1834 918L1774 997M1834 918L1864 1026M1907 957L1965 919M1907 957L1864 1026M1907 957L1934 1068M1965 919L2028 898M1965 919L1987 1038M2028 898L2154 923M2154 923L2222 907M2154 923L2130 987M2154 923L2169 969M2222 907L2282 946M2222 907L2169 969M2282 946L2247 1030M2282 946L2254 1041M2378 902L2427 930M2378 902L2389 969M2378 902L2401 967M2427 930L2522 903M2427 930L2389 969M2427 930L2401 967M2522 903L2526 986M71 968L111 973M71 968L165 997M71 968L-34 986M2631 968L2526 986M111 973L165 997M111 973L135 1075M111 973L163 1074M165 997L246 991M165 997L135 1075M165 997L163 1074M246 991L163 1074M246 991L296 1062M390 1005L453 1021M390 1005L296 1062M390 1005L334 1087M453 1021L494 966M453 1021L419 1104M453 1021L507 1042M494 966L507 1042M634 967L664 981M664 981L753 981M664 981L708 1104M753 981L783 1086M880 988L942 996M880 988L853 1057M880 988L881 1054M942 996L1032 1031M942 996L881 1054M1032 1031L1058 1008M1032 1031L1038 1109M1032 1031L1078 1112M1058 1008L1181 971M1058 1008L1038 1109M1058 1008L1078 1112M1181 971L1214 1028M1181 971L1191 1043M1214 1028L1191 1043M1214 1028L1268 1063M1214 1028L1310 1074M1355 968L1367 1020M1355 968L1462 967M1367 1020L1310 1074M1367 1020L1422 1064M1462 967L1459 1077M1599 1035L1627 1036M1599 1035L1595 1102M1599 1035L1603 1067M1599 1035L1545 1123M1627 1036L1725 1015M1627 1036L1595 1102M1627 1036L1603 1067M1627 1036L1738 1072M1725 1015L1774 997M1725 1015L1738 1072M1725 1015L1779 1098M1774 997L1864 1026M1774 997L1738 1072M1774 997L1779 1098M1864 1026L1888 1120M1864 1026L1934 1068M1987 1038L2060 1032M1987 1038L1934 1068M1987 1038L2059 1061M1987 1038L1974 1146M2060 1032L2130 987M2060 1032L2059 1061M2060 1032L2154 1060M2060 1032L2062 1148M2130 987L2169 969M2130 987L2154 1060M2169 969L2213 1058M2247 1030L2154 1060M2247 1030L2213 1058M2247 1030L2254 1041M2247 1030L2321 1093M2389 969L2401 967M2389 969L2442 1083M2401 967L2442 1083M2526 986L2582 1083M-34 986L22 1083M22 1083L135 1075M22 1083L-70 1093M22 1083L14 1136M22 1083L-37 1178M2582 1083L2490 1093M2582 1083L2523 1178M135 1075L163 1074M135 1075L104 1181M296 1062L334 1087M296 1062L280 1165M296 1062L325 1153M334 1087L280 1165M334 1087L325 1153M334 1087L408 1149M419 1104L507 1042M419 1104L408 1149M419 1104L503 1133M419 1104L449 1201M507 1042L569 1085M507 1042L503 1133M569 1085L503 1133M569 1085L575 1169M708 1104L783 1086M708 1104L712 1159M708 1104L768 1175M708 1104L749 1211M783 1086L853 1057M783 1086L712 1159M783 1086L768 1175M853 1057L881 1054M853 1057L878 1120M853 1057L904 1147M881 1054L878 1120M881 1054L904 1147M1038 1109L1078 1112M1038 1109L976 1163M1038 1109L1141 1153M1078 1112L1119 1172M1078 1112L1141 1153M1191 1043L1268 1063M1268 1063L1310 1074M1268 1063L1254 1174M1310 1074L1422 1064M1422 1064L1459 1077M1422 1064L1418 1150M1459 1077L1418 1150M1459 1077L1502 1157M1459 1077L1545 1123M1595 1102L1603 1067M1595 1102L1545 1123M1595 1102L1642 1175M1603 1067L1545 1123M1603 1067L1642 1175M1738 1072L1779 1098M1738 1072L1752 1171M1779 1098L1752 1171M1888 1120L1934 1068M1888 1120L1852 1157M1888 1120L1974 1146M1934 1068L1974 1146M2059 1061L2062 1148M2154 1060L2213 1058M2154 1060L2157 1141M2213 1058L2254 1041M2213 1058L2157 1141M2254 1041L2321 1093M2442 1083L2490 1093M2442 1083L2423 1134M2490 1093L2574 1136M2490 1093L2423 1134M2490 1093L2523 1178M-70 1093L14 1136M14 1136L104 1181M14 1136L-37 1178M2574 1136L2523 1178M104 1181L77 1272M104 1181L99 1211M104 1181L201 1230M219 1194L280 1165M219 1194L201 1230M219 1194L244 1273M219 1194L334 1209M280 1165L325 1153M280 1165L334 1209M325 1153L408 1149M325 1153L334 1209M408 1149L334 1209M408 1149L449 1201M503 1133L575 1169M503 1133L449 1201M575 1169L524 1235M575 1169L587 1261M575 1169L532 1284M712 1159L768 1175M712 1159L657 1251M712 1159L749 1211M768 1175L749 1211M878 1120L904 1147M878 1120L976 1163M904 1147L976 1163M976 1163L954 1274M976 1163L1000 1238M1119 1172L1141 1153M1119 1172L1119 1272M1119 1172L1125 1234M1141 1153L1254 1174M1141 1153L1125 1234M1254 1174L1325 1193M1254 1174L1256 1205M1254 1174L1295 1203M1325 1193L1256 1205M1325 1193L1295 1203M1325 1193L1399 1205M1325 1193L1315 1290M1418 1150L1502 1157M1418 1150L1399 1205M1418 1150L1409 1283M1502 1157L1545 1123M1502 1157L1547 1234M1642 1175L1642 1214M1752 1171L1781 1191M1752 1171L1706 1249M1781 1191L1852 1157M1781 1191L1706 1249M1781 1191L1820 1245M1781 1191L1863 1217M1852 1157L1820 1245M1852 1157L1863 1217M1974 1146L2062 1148M2062 1148L2157 1141M2062 1148L2059 1217M2157 1141L2231 1180M2157 1141L2204 1207M2231 1180L2296 1193M2231 1180L2204 1207M2231 1180L2311 1207M2296 1193L2335 1190M2296 1193L2204 1207M2296 1193L2311 1207M2296 1193L2246 1290M2335 1190L2423 1134M2335 1190L2311 1207M2335 1190L2398 1242M2335 1190L2405 1218M2423 1134L2398 1242M2423 1134L2405 1218M2523 1178L2530 1259M77 1272L99 1211M77 1272L-30 1259M77 1272L39 1357M77 1272L120 1302M2637 1272L2530 1259M99 1211L201 1230M99 1211L120 1302M201 1230L244 1273M244 1273L190 1345M244 1273L280 1317M244 1273L247 1369M449 1201L524 1235M449 1201L455 1308M524 1235L587 1261M524 1235L455 1308M524 1235L532 1284M587 1261L657 1251M587 1261L532 1284M587 1261L567 1342M657 1251L714 1310M749 1211L835 1261M749 1211L797 1284M835 1261L797 1284M835 1261L824 1325M954 1274L1000 1238M954 1274L983 1334M1119 1272L1125 1234M1119 1272L1074 1300M1119 1272L1167 1304M1125 1234L1074 1300M1125 1234L1167 1304M1256 1205L1295 1203M1256 1205L1261 1306M1295 1203L1399 1205M1295 1203L1315 1290M1399 1205L1409 1283M1493 1254L1547 1234M1493 1254L1409 1283M1493 1254L1504 1329M1547 1234L1642 1214M1547 1234L1586 1309M1642 1214L1706 1249M1642 1214L1586 1309M1642 1214L1637 1320M1706 1249L1637 1320M1706 1249L1738 1316M1820 1245L1863 1217M1820 1245L1921 1266M1863 1217L1921 1266M1863 1217L1872 1298M1921 1266L1872 1298M1921 1266L1941 1320M1921 1266L1911 1362M2059 1217L2112 1268M2059 1217L2046 1299M2059 1217L2106 1284M2112 1268L2046 1299M2112 1268L2106 1284M2112 1268L2093 1376M2204 1207L2246 1290M2311 1207L2398 1242M2311 1207L2405 1218M2398 1242L2405 1218M2398 1242L2479 1297M2405 1218L2479 1297M2530 1259L2479 1297M2530 1259L2506 1305M39 1357L120 1302M39 1357L30 1368M39 1357L105 1420M39 1357L-15 1398M2599 1357L2545 1398M120 1302L190 1345M120 1302L169 1390M190 1345L280 1317M190 1345L169 1390M190 1345L247 1369M280 1317L351 1335M280 1317L247 1369M280 1317L342 1379M351 1335L455 1308M351 1335L342 1379M351 1335L409 1388M455 1308L532 1284M455 1308L409 1388M532 1284L567 1342M567 1342L536 1410M567 1342L576 1394M714 1310L797 1284M797 1284L824 1325M797 1284L830 1362M824 1325L881 1352M824 1325L755 1405M824 1325L830 1362M881 1352L983 1334M881 1352L830 1362M881 1352L909 1429M881 1352L965 1410M983 1334L1074 1300M983 1334L965 1410M983 1334L1079 1373M1074 1300L1167 1304M1074 1300L1079 1373M1167 1304L1079 1373M1167 1304L1172 1385M1261 1306L1315 1290M1261 1306L1206 1407M1261 1306L1312 1375M1315 1290L1409 1283M1315 1290L1312 1375M1409 1283L1504 1329M1504 1329L1586 1309M1504 1329L1507 1419M1504 1329L1544 1384M1586 1309L1637 1320M1586 1309L1544 1384M1637 1320L1738 1316M1637 1320L1648 1414M1738 1316L1822 1360M1738 1316L1758 1424M1822 1360L1872 1298M1822 1360L1758 1424M1822 1360L1785 1438M1822 1360L1911 1362M1872 1298L1941 1320M1872 1298L1911 1362M1941 1320L2046 1299M1941 1320L1911 1362M1941 1320L1969 1408M2046 1299L2106 1284M2046 1299L2093 1376M2106 1284L2206 1342M2106 1284L2093 1376M2206 1342L2246 1290M2206 1342L2181 1411M2206 1342L2242 1384M2246 1290L2242 1384M2246 1290L2328 1369M2361 1360L2328 1369M2361 1360L2431 1431M2479 1297L2506 1305M2506 1305L2590 1368M2506 1305L2545 1398M-54 1305L30 1368M30 1368L105 1420M30 1368L-15 1398M2590 1368L2545 1398M105 1420L169 1390M169 1390L247 1369M247 1369L342 1379M342 1379L409 1388M536 1410L576 1394M576 1394L692 1433M692 1433L755 1405M755 1405L830 1362M909 1429L965 1410M1079 1373L1172 1385M1172 1385L1206 1407M1206 1407L1312 1375M1312 1375L1369 1431M1507 1419L1544 1384M1758 1424L1785 1438M1911 1362L1969 1408M1969 1408L2017 1408M2017 1408L2093 1376M2093 1376L2181 1411M2181 1411L2242 1384M2242 1384L2328 1369"/></svg>