<svg xmlns="http://www.w3.org/2000/svg" width="2560" height="1440" fill="#fff"><circle cx="52" cy="77" r="5"/><circle cx="126" cy="67" r="5"/><circle cx="174" cy="48" r="5"/><circle cx="312" cy="28" r="5"/><circle cx="381" cy="4" r="5"/><circle cx="381" cy="1444" r="5"/><circle cx="465" cy="14" r="6"/><circle cx="548" cy="35" r="5"/><circle cx="582" cy="52" r="5"/><circle cx="702" cy="63" r="4"/><circle cx="731" cy="2" r="5"/><circle cx="731" cy="1442" r="5"/><circle cx="821" cy="47" r="6"/><circle cx="949" cy="42" r="5"/><circle cx="970" cy="75" r="5"/><circle cx="1093" cy="11" r="6"/><circle cx="1185" cy="20" r="5"/><circle cx="1204" cy="18" r="6"/><circle cx="1297" cy="79" r="5"/><circle cx="1415" cy="61" r="6"/><circle cx="1502" cy="36" r="5"/><circle cx="1546" cy="52" r="5"/><circle cx="1608" cy="76" r="5"/><circle cx="1745" cy="36" r="5"/><circle cx="1832" cy="79" r="4"/><circle cx="1912" cy="10" r="5"/><circle cx="1972" cy="24" r="5"/><circle cx="2002" cy="75" r="6"/><circle cx="2157" cy="63" r="5"/><circle cx="2194" cy="54" r="4"/><circle cx="2310" cy="61" r="4"/><circle cx="2357" cy="6" r="4"/><circle cx="2421" cy="25" r="5"/><circle cx="2559" cy="29" r="4"/><circle cx="-1" cy="29" r="4"/><circle cx="13" cy="153" r="4"/><circle cx="141" cy="127" r="4"/><circle cx="201" cy="153" r="5"/><circle cx="279" cy="143" r="4"/><circle cx="335" cy="118" r="5"/><circle cx="446" cy="114" r="6"/><circle cx="525" cy="96" r="5"/><circle cx="610" cy="82" r="4"/><circle cx="704" cy="134" r="5"/><circle cx="757" cy="101" r="6"/><circle cx="810" cy="116" r="5"/><circle cx="945" cy="130" r="4"/><circle cx="1023" cy="134" r="5"/><circle cx="1087" cy="108" r="5"/><circle cx="1156" cy="158" r="5"/><circle cx="1222" cy="128" r="5"/><circle cx="1350" cy="120" r="5"/><circle cx="1379" cy="103" r="6"/><circle cx="1494" cy="155" r="6"/><circle cx="1536" cy="81" r="4"/><circle cx="1621" cy="136" r="5"/><circle cx="1701" cy="141" r="4"/><circle cx="1801" cy="125" r="4"/><circle cx="1888" cy="109" r="4"/><circle cx="1950" cy="85" r="5"/><circle cx="2035" cy="148" r="5"/><circle cx="2095" cy="130" r="6"/><circle cx="2230" cy="141" r="5"/><circle cx="2249" cy="115" r="5"/><circle cx="2335" cy="142" r="5"/><circle cx="2403" cy="142" r="6"/><circle cx="2501" cy="129" r="6"/><circle cx="67" cy="160" r="5"/><circle cx="94" cy="195" r="5"/><circle cx="172" cy="215" r="6"/><circle cx="319" cy="211" r="6"/><circle cx="332" cy="231" r="5"/><circle cx="473" cy="165" r="6"/><circle cx="494" cy="193" r="6"/><circle cx="569" cy="200" r="5"/><circle cx="643" cy="226" r="6"/><circle cx="772" cy="235" r="6"/><circle cx="863" cy="216" r="5"/><circle cx="920" cy="164" r="6"/><circle cx="989" cy="183" r="4"/><circle cx="1078" cy="235" r="6"/><circle cx="1144" cy="183" r="6"/><circle cx="1241" cy="205" r="6"/><circle cx="1299" cy="206" r="4"/><circle cx="1376" cy="222" r="5"/><circle cx="1441" cy="201" r="5"/><circle cx="1572" cy="174" r="6"/><circle cx="1604" cy="229" r="5"/><circle cx="1697" cy="237" r="5"/><circle cx="1794" cy="200" r="6"/><circle cx="1867" cy="161" r="6"/><circle cx="1991" cy="189" r="5"/><circle cx="2017" cy="183" r="5"/><circle cx="2091" cy="215" r="5"/><circle cx="2226" cy="229" r="4"/><circle cx="2301" cy="161" r="5"/><circle cx="2361" cy="222" r="4"/><circle cx="2404" cy="233" r="5"/><circle cx="2485" cy="189" r="6"/><circle cx="22" cy="288" r="6"/><circle cx="135" cy="316" r="4"/><circle cx="228" cy="293" r="6"/><circle cx="244" cy="247" r="4"/><circle cx="359" cy="252" r="6"/><circle cx="464" cy="289" r="5"/><circle cx="558" cy="296" r="5"/><circle cx="564" cy="274" r="5"/><circle cx="710" cy="259" r="5"/><circle cx="795" cy="311" r="4"/><circle cx="832" cy="285" r="4"/><circle cx="953" cy="295" r="5"/><circle cx="964" cy="266" r="5"/><circle cx="1100" cy="285" r="6"/><circle cx="1144" cy="302" r="4"/><circle cx="1253" cy="241" r="5"/><circle cx="1332" cy="259" r="4"/><circle cx="1380" cy="242" r="4"/><circle cx="1483" cy="304" r="4"/><circle cx="1533" cy="311" r="5"/><circle cx="1668" cy="273" r="5"/><circle cx="1680" cy="292" r="5"/><circle cx="1794" cy="314" r="5"/><circle cx="1894" cy="290" r="4"/><circle cx="1938" cy="289" r="4"/><circle cx="2063" cy="274" r="4"/><circle cx="2137" cy="320" r="5"/><circle cx="2203" cy="255" r="4"/><circle cx="2255" cy="318" r="5"/><circle cx="2342" cy="301" r="5"/><circle cx="2411" cy="283" r="5"/><circle cx="2511" cy="319" r="6"/><circle cx="39" cy="359" r="4"/><circle cx="89" cy="389" r="4"/><circle cx="239" cy="397" r="5"/><circle cx="277" cy="391" r="5"/><circle cx="361" cy="355" r="5"/><circle cx="438" cy="389" r="6"/><circle cx="501" cy="321" r="5"/><circle cx="588" cy="372" r="6"/><circle cx="650" cy="345" r="5"/><circle cx="780" cy="328" r="5"/><circle cx="830" cy="371" r="6"/><circle cx="934" cy="331" r="6"/><circle cx="1007" cy="394" r="4"/><circle cx="1049" cy="356" r="4"/><circle cx="1173" cy="375" r="4"/><circle cx="1233" cy="385" r="4"/><circle cx="1296" cy="325" r="6"/><circle cx="1439" cy="331" r="4"/><circle cx="1474" cy="367" r="5"/><circle cx="1553" cy="324" r="4"/><circle cx="1668" cy="328" r="6"/><circle cx="1692" cy="366" r="5"/><circle cx="1785" cy="396" r="6"/><circle cx="1878" cy="367" r="4"/><circle cx="1941" cy="378" r="4"/><circle cx="2004" cy="348" r="5"/><circle cx="2096" cy="383" r="5"/><circle cx="2222" cy="388" r="4"/><circle cx="2289" cy="323" r="5"/><circle cx="2324" cy="360" r="5"/><circle cx="2443" cy="329" r="6"/><circle cx="2501" cy="384" r="5"/><circle cx="34" cy="440" r="5"/><circle cx="133" cy="479" r="6"/><circle cx="163" cy="408" r="6"/><circle cx="257" cy="449" r="5"/><circle cx="353" cy="450" r="5"/><circle cx="465" cy="465" r="6"/><circle cx="491" cy="453" r="4"/><circle cx="580" cy="480" r="6"/><circle cx="657" cy="434" r="5"/><circle cx="729" cy="475" r="5"/><circle cx="863" cy="428" r="5"/><circle cx="958" cy="468" r="5"/><circle cx="1014" cy="405" r="5"/><circle cx="1102" cy="468" r="5"/><circle cx="1148" cy="448" r="6"/><circle cx="1241" cy="471" r="6"/><circle cx="1350" cy="439" r="5"/><circle cx="1399" cy="419" r="5"/><circle cx="1508" cy="437" r="6"/><circle cx="1575" cy="412" r="5"/><circle cx="1663" cy="412" r="4"/><circle cx="1732" cy="472" r="5"/><circle cx="1782" cy="406" r="5"/><circle cx="1860" cy="449" r="4"/><circle cx="1931" cy="444" r="6"/><circle cx="2045" cy="414" r="4"/><circle cx="2101" cy="438" r="5"/><circle cx="2187" cy="411" r="5"/><circle cx="2287" cy="471" r="4"/><circle cx="2398" cy="437" r="4"/><circle cx="2468" cy="450" r="5"/><circle cx="2537" cy="450" r="6"/><circle cx="71" cy="517" r="6"/><circle cx="115" cy="559" r="6"/><circle cx="228" cy="486" r="5"/><circle cx="290" cy="553" r="5"/><circle cx="352" cy="533" r="6"/><circle cx="462" cy="480" r="5"/><circle cx="546" cy="485" r="4"/><circle cx="620" cy="508" r="5"/><circle cx="650" cy="501" r="6"/><circle cx="729" cy="557" r="5"/><circle cx="802" cy="531" r="4"/><circle cx="952" cy="494" r="5"/><circle cx="1012" cy="558" r="6"/><circle cx="1064" cy="548" r="4"/><circle cx="1133" cy="505" r="6"/><circle cx="1229" cy="481" r="4"/><circle cx="1337" cy="560" r="5"/><circle cx="1435" cy="536" r="4"/><circle cx="1513" cy="556" r="6"/><circle cx="1539" cy="502" r="4"/><circle cx="1678" cy="556" r="5"/><circle cx="1752" cy="485" r="4"/><circle cx="1804" cy="511" r="5"/><circle cx="1909" cy="520" r="4"/><circle cx="1956" cy="549" r="4"/><circle cx="2035" cy="505" r="6"/><circle cx="2137" cy="509" r="6"/><circle cx="2195" cy="491" r="5"/><circle cx="2257" cy="543" r="4"/><circle cx="2390" cy="527" r="4"/><circle cx="2456" cy="536" r="6"/><circle cx="2497" cy="489" r="5"/><circle cx="22" cy="609" r="4"/><circle cx="104" cy="627" r="4"/><circle cx="217" cy="618" r="6"/><circle cx="285" cy="598" r="6"/><circle cx="369" cy="567" r="4"/><circle cx="439" cy="618" r="4"/><circle cx="512" cy="577" r="6"/><circle cx="596" cy="580" r="5"/><circle cx="651" cy="608" r="5"/><circle cx="722" cy="562" r="5"/><circle cx="867" cy="584" r="6"/><circle cx="939" cy="584" r="6"/><circle cx="993" cy="603" r="6"/><circle cx="1068" cy="566" r="5"/><circle cx="1141" cy="633" r="4"/><circle cx="1218" cy="627" r="4"/><circle cx="1352" cy="574" r="5"/><circle cx="1410" cy="607" r="5"/><circle cx="1466" cy="580" r="6"/><circle cx="1540" cy="618" r="5"/><circle cx="1664" cy="639" r="6"/><circle cx="1752" cy="578" r="4"/><circle cx="1812" cy="634" r="6"/><circle cx="1867" cy="603" r="4"/><circle cx="1930" cy="582" r="6"/><circle cx="2009" cy="612" r="6"/><circle cx="2110" cy="571" r="5"/><circle cx="2212" cy="580" r="6"/><circle cx="2308" cy="633" r="5"/><circle cx="2351" cy="623" r="5"/><circle cx="2409" cy="601" r="5"/><circle cx="2504" cy="606" r="4"/><circle cx="63" cy="717" r="5"/><circle cx="139" cy="680" r="5"/><circle cx="235" cy="669" r="4"/><circle cx="273" cy="666" r="6"/><circle cx="394" cy="662" r="6"/><circle cx="438" cy="647" r="4"/><circle cx="504" cy="701" r="4"/><circle cx="619" cy="656" r="5"/><circle cx="643" cy="669" r="4"/><circle cx="777" cy="701" r="4"/><circle cx="828" cy="654" r="5"/><circle cx="882" cy="669" r="6"/><circle cx="1017" cy="711" r="6"/><circle cx="1064" cy="657" r="5"/><circle cx="1190" cy="659" r="5"/><circle cx="1224" cy="655" r="4"/><circle cx="1352" cy="645" r="5"/><circle cx="1408" cy="702" r="6"/><circle cx="1510" cy="692" r="4"/><circle cx="1588" cy="658" r="5"/><circle cx="1639" cy="683" r="6"/><circle cx="1723" cy="709" r="6"/><circle cx="1813" cy="682" r="6"/><circle cx="1845" cy="662" r="4"/><circle cx="1955" cy="674" r="5"/><circle cx="2040" cy="672" r="5"/><circle cx="2105" cy="653" r="4"/><circle cx="2168" cy="667" r="6"/><circle cx="2303" cy="710" r="4"/><circle cx="2332" cy="648" r="5"/><circle cx="2459" cy="663" r="4"/><circle cx="2520" cy="648" r="6"/><circle cx="66" cy="767" r="6"/><circle cx="116" cy="739" r="5"/><circle cx="235" cy="735" r="5"/><circle cx="252" cy="800" r="5"/><circle cx="379" cy="732" r="4"/><circle cx="467" cy="755" r="6"/><circle cx="524" cy="768" r="4"/><circle cx="622" cy="727" r="4"/><circle cx="657" cy="793" r="5"/><circle cx="726" cy="722" r="5"/><circle cx="852" cy="791" r="5"/><circle cx="935" cy="724" r="5"/><circle cx="1000" cy="792" r="5"/><circle cx="1064" cy="734" r="5"/><circle cx="1162" cy="797" r="5"/><circle cx="1270" cy="750" r="4"/><circle cx="1354" cy="790" r="5"/><circle cx="1416" cy="734" r="5"/><circle cx="1487" cy="766" r="5"/><circle cx="1553" cy="767" r="4"/><circle cx="1663" cy="791" r="4"/><circle cx="1726" cy="770" r="5"/><circle cx="1775" cy="749" r="6"/><circle cx="1886" cy="789" r="5"/><circle cx="1949" cy="744" r="5"/><circle cx="2013" cy="763" r="5"/><circle cx="2122" cy="768" r="4"/><circle cx="2212" cy="747" r="6"/><circle cx="2304" cy="762" r="6"/><circle cx="2374" cy="734" r="6"/><circle cx="2410" cy="729" r="4"/><circle cx="2533" cy="777" r="4"/><circle cx="43" cy="841" r="5"/><circle cx="143" cy="802" r="5"/><circle cx="166" cy="814" r="5"/><circle cx="273" cy="850" r="6"/><circle cx="385" cy="856" r="6"/><circle cx="403" cy="834" r="5"/><circle cx="532" cy="832" r="6"/><circle cx="614" cy="840" r="5"/><circle cx="686" cy="870" r="4"/><circle cx="768" cy="802" r="5"/><circle cx="812" cy="875" r="5"/><circle cx="933" cy="858" r="5"/><circle cx="1031" cy="878" r="5"/><circle cx="1108" cy="837" r="4"/><circle cx="1194" cy="841" r="4"/><circle cx="1203" cy="809" r="5"/><circle cx="1300" cy="801" r="4"/><circle cx="1429" cy="829" r="5"/><circle cx="1489" cy="809" r="5"/><circle cx="1543" cy="852" r="5"/><circle cx="1660" cy="858" r="4"/><circle cx="1694" cy="877" r="4"/><circle cx="1776" cy="807" r="5"/><circle cx="1842" cy="846" r="6"/><circle cx="1974" cy="826" r="4"/><circle cx="2029" cy="876" r="5"/><circle cx="2097" cy="811" r="4"/><circle cx="2181" cy="808" r="6"/><circle cx="2300" cy="878" r="6"/><circle cx="2366" cy="855" r="5"/><circle cx="2441" cy="804" r="4"/><circle cx="2522" cy="828" r="5"/><circle cx="41" cy="941" r="4"/><circle cx="150" cy="928" r="4"/><circle cx="162" cy="951" r="5"/><circle cx="241" cy="950" r="6"/><circle cx="339" cy="932" r="5"/><circle cx="431" cy="960" r="6"/><circle cx="531" cy="935" r="5"/><circle cx="612" cy="952" r="6"/><circle cx="718" cy="926" r="5"/><circle cx="778" cy="913" r="5"/><circle cx="863" cy="894" r="6"/><circle cx="888" cy="921" r="6"/><circle cx="985" cy="905" r="4"/><circle cx="1087" cy="915" r="6"/><circle cx="1129" cy="919" r="5"/><circle cx="1219" cy="910" r="4"/><circle cx="1345" cy="897" r="5"/><circle cx="1395" cy="889" r="6"/><circle cx="1441" cy="919" r="4"/><circle cx="1593" cy="956" r="6"/><circle cx="1670" cy="908" r="5"/><circle cx="1690" cy="944" r="4"/><circle cx="1786" cy="925" r="6"/><circle cx="1852" cy="930" r="4"/><circle cx="1958" cy="928" r="4"/><circle cx="2050" cy="899" r="5"/><circle cx="2111" cy="912" r="5"/><circle cx="2225" cy="886" r="5"/><circle cx="2281" cy="941" r="6"/><circle cx="2331" cy="919" r="5"/><circle cx="2480" cy="937" r="5"/><circle cx="2551" cy="896" r="4"/><circle cx="3" cy="979" r="6"/><circle cx="2563" cy="979" r="6"/><circle cx="130" cy="1000" r="5"/><circle cx="193" cy="1038" r="6"/><circle cx="278" cy="999" r="5"/><circle cx="396" cy="1036" r="5"/><circle cx="455" cy="1030" r="6"/><circle cx="521" cy="999" r="5"/><circle cx="580" cy="986" r="4"/><circle cx="688" cy="1031" r="5"/><circle cx="773" cy="987" r="5"/><circle cx="848" cy="982" r="6"/><circle cx="905" cy="989" r="6"/><circle cx="1006" cy="969" r="5"/><circle cx="1067" cy="1037" r="5"/><circle cx="1183" cy="973" r="4"/><circle cx="1266" cy="1005" r="6"/><circle cx="1330" cy="997" r="5"/><circle cx="1418" cy="978" r="6"/><circle cx="1477" cy="976" r="5"/><circle cx="1583" cy="964" r="6"/><circle cx="1658" cy="995" r="4"/><circle cx="1693" cy="1020" r="5"/><circle cx="1802" cy="1022" r="5"/><circle cx="1858" cy="965" r="6"/><circle cx="1968" cy="1027" r="4"/><circle cx="2006" cy="1013" r="5"/><circle cx="2084" cy="1007" r="6"/><circle cx="2216" cy="1004" r="4"/><circle cx="2266" cy="977" r="6"/><circle cx="2345" cy="992" r="4"/><circle cx="2466" cy="1020" r="4"/><circle cx="2550" cy="982" r="5"/><circle cx="31" cy="1094" r="5"/><circle cx="97" cy="1081" r="5"/><circle cx="197" cy="1093" r="6"/><circle cx="281" cy="1057" r="6"/><circle cx="322" cy="1057" r="5"/><circle cx="427" cy="1116" r="6"/><circle cx="554" cy="1097" r="6"/><circle cx="577" cy="1100" r="5"/><circle cx="694" cy="1110" r="5"/><circle cx="792" cy="1084" r="5"/><circle cx="827" cy="1042" r="5"/><circle cx="947" cy="1108" r="5"/><circle cx="993" cy="1055" r="5"/><circle cx="1052" cy="1055" r="6"/><circle cx="1200" cy="1046" r="6"/><circle cx="1245" cy="1093" r="5"/><circle cx="1314" cy="1107" r="5"/><circle cx="1392" cy="1106" r="4"/><circle cx="1516" cy="1110" r="6"/><circle cx="1577" cy="1076" r="4"/><circle cx="1648" cy="1107" r="5"/><circle cx="1685" cy="1063" r="4"/><circle cx="1771" cy="1064" r="5"/><circle cx="1850" cy="1087" r="6"/><circle cx="1994" cy="1116" r="6"/><circle cx="2060" cy="1051" r="4"/><circle cx="2113" cy="1088" r="5"/><circle cx="2188" cy="1045" r="5"/><circle cx="2313" cy="1054" r="5"/><circle cx="2399" cy="1057" r="4"/><circle cx="2480" cy="1100" r="5"/><circle cx="2495" cy="1044" r="5"/><circle cx="63" cy="1178" r="4"/><circle cx="126" cy="1159" r="5"/><circle cx="224" cy="1173" r="5"/><circle cx="243" cy="1186" r="6"/><circle cx="348" cy="1185" r="4"/><circle cx="426" cy="1175" r="6"/><circle cx="509" cy="1144" r="5"/><circle cx="603" cy="1189" r="4"/><circle cx="679" cy="1158" r="5"/><circle cx="797" cy="1127" r="5"/><circle cx="831" cy="1146" r="6"/><circle cx="941" cy="1135" r="5"/><circle cx="987" cy="1127" r="6"/><circle cx="1075" cy="1160" r="4"/><circle cx="1152" cy="1136" r="6"/><circle cx="1247" cy="1138" r="4"/><circle cx="1342" cy="1154" r="4"/><circle cx="1434" cy="1175" r="5"/><circle cx="1487" cy="1180" r="4"/><circle cx="1557" cy="1128" r="5"/><circle cx="1604" cy="1197" r="6"/><circle cx="1712" cy="1153" r="5"/><circle cx="1815" cy="1184" r="5"/><circle cx="1870" cy="1171" r="6"/><circle cx="1983" cy="1195" r="5"/><circle cx="2005" cy="1142" r="5"/><circle cx="2102" cy="1161" r="5"/><circle cx="2224" cy="1162" r="4"/><circle cx="2244" cy="1189" r="6"/><circle cx="2365" cy="1127" r="5"/><circle cx="2405" cy="1127" r="5"/><circle cx="2496" cy="1127" r="6"/><circle cx="77" cy="1209" r="5"/><circle cx="89" cy="1204" r="4"/><circle cx="195" cy="1212" r="4"/><circle cx="294" cy="1207" r="6"/><circle cx="356" cy="1253" r="6"/><circle cx="409" cy="1212" r="4"/><circle cx="480" cy="1274" r="6"/><circle cx="561" cy="1227" r="6"/><circle cx="669" cy="1212" r="5"/><circle cx="770" cy="1265" r="4"/><circle cx="858" cy="1215" r="6"/><circle cx="951" cy="1264" r="4"/><circle cx="995" cy="1279" r="5"/><circle cx="1090" cy="1219" r="5"/><circle cx="1155" cy="1278" r="5"/><circle cx="1246" cy="1269" r="5"/><circle cx="1354" cy="1231" r="4"/><circle cx="1420" cy="1268" r="5"/><circle cx="1466" cy="1252" r="5"/><circle cx="1573" cy="1265" r="5"/><circle cx="1677" cy="1257" r="5"/><circle cx="1705" cy="1209" r="4"/><circle cx="1807" cy="1226" r="5"/><circle cx="1877" cy="1254" r="6"/><circle cx="1941" cy="1218" r="4"/><circle cx="2018" cy="1255" r="6"/><circle cx="2149" cy="1274" r="4"/><circle cx="2174" cy="1258" r="6"/><circle cx="2274" cy="1232" r="5"/><circle cx="2339" cy="1233" r="5"/><circle cx="2405" cy="1249" r="5"/><circle cx="2511" cy="1223" r="5"/><circle cx="51" cy="1316" r="6"/><circle cx="141" cy="1357" r="5"/><circle cx="182" cy="1311" r="5"/><circle cx="291" cy="1359" r="4"/><circle cx="356" cy="1280" r="5"/><circle cx="433" cy="1292" r="5"/><circle cx="537" cy="1329" r="6"/><circle cx="617" cy="1334" r="5"/><circle cx="648" cy="1346" r="5"/><circle cx="800" cy="1305" r="4"/><circle cx="844" cy="1306" r="5"/><circle cx="887" cy="1320" r="5"/><circle cx="1028" cy="1307" r="4"/><circle cx="1063" cy="1296" r="5"/><circle cx="1144" cy="1339" r="6"/><circle cx="1244" cy="1308" r="6"/><circle cx="1292" cy="1313" r="5"/><circle cx="1408" cy="1347" r="5"/><circle cx="1497" cy="1308" r="5"/><circle cx="1592" cy="1338" r="6"/><circle cx="1622" cy="1291" r="4"/><circle cx="1682" cy="1283" r="5"/><circle cx="1836" cy="1326" r="5"/><circle cx="1889" cy="1357" r="5"/><circle cx="1986" cy="1350" r="5"/><circle cx="2027" cy="1343" r="6"/><circle cx="2098" cy="1337" r="4"/><circle cx="2169" cy="1304" r="4"/><circle cx="2262" cy="1347" r="5"/><circle cx="2341" cy="1338" r="4"/><circle cx="2460" cy="1330" r="6"/><circle cx="2501" cy="1297" r="6"/><circle cx="60" cy="1430" r="6"/><circle cx="80" cy="1392" r="4"/><circle cx="198" cy="1380" r="6"/><circle cx="261" cy="1380" r="5"/><circle cx="380" cy="1370" r="5"/><circle cx="461" cy="1383" r="5"/><circle cx="530" cy="1402" r="6"/><circle cx="634" cy="1405" r="5"/><circle cx="679" cy="1375" r="5"/><circle cx="788" cy="1401" r="6"/><circle cx="858" cy="1391" r="4"/><circle cx="895" cy="1393" r="4"/><circle cx="983" cy="1401" r="6"/><circle cx="1041" cy="1408" r="4"/><circle cx="1187" cy="1362" r="4"/><circle cx="1230" cy="1415" r="6"/><circle cx="1296" cy="1399" r="5"/><circle cx="1384" cy="1417" r="5"/><circle cx="1465" cy="1413" r="5"/><circle cx="1558" cy="1416" r="4"/><circle cx="1644" cy="1422" r="6"/><circle cx="1719" cy="1363" r="6"/><circle cx="1820" cy="1364" r="5"/><circle cx="1860" cy="1427" r="5"/><circle cx="1965" cy="1436" r="4"/><circle cx="1965" cy="-4" r="4"/><circle cx="2018" cy="1401" r="6"/><circle cx="2089" cy="1362" r="5"/><circle cx="2222" cy="1438" r="5"/><circle cx="2222" cy="-2" r="5"/><circle cx="2276" cy="1437" r="5"/><circle cx="2276" cy="-3" r="5"/><circle cx="2389" cy="1413" r="6"/><circle cx="2425" cy="1368" r="5"/><circle cx="2525" cy="1426" r="5"/><path stroke="#fff" d="M52 77L126 67M52 77L-1 29M52 77L13 153M52 77L67 160M52 77L60 -10M2612 77L2559 29M52 1517L60 1430M126 67L174 48M126 67L141 127M126 67L67 160M126 67L60 -10M126 1507L60 1430M174 48L141 127M174 48L201 153M174 48L198 -60M174 1488L198 1380M312 28L381 4M312 28L335 118M312 28L291 -81M312 28L261 -60M312 28L380 -70M312 1468L291 1359M312 1468L261 1380M312 1468L380 1370M381 4L465 14M381 4L380 -70M381 1444L380 1370M465 14L548 35M465 14L446 114M465 14L461 -57M465 14L530 -38M465 1454L461 1383M465 1454L530 1402M548 35L582 52M548 35L525 96M548 35L610 82M548 35L530 -38M548 1475L530 1402M582 52L525 96M582 52L610 82M582 52L530 -38M582 52L634 -35M582 1492L530 1402M582 1492L634 1405M702 63L731 2M702 63L610 82M702 63L704 134M702 63L757 101M731 2L821 47M731 2L757 101M731 2L679 -65M731 2L788 -39M731 1442L679 1375M731 1442L788 1401M821 47L757 101M821 47L810 116M821 47L788 -39M821 47L858 -49M821 1487L788 1401M821 1487L858 1391M949 42L970 75M949 42L945 130M949 42L895 -47M949 42L983 -39M949 1482L895 1393M949 1482L983 1401M970 75L945 130M970 75L1023 134M970 75L920 164M1093 11L1185 20M1093 11L1204 18M1093 11L1087 108M1093 11L983 -39M1093 11L1041 -32M1093 1451L983 1401M1093 1451L1041 1408M1185 20L1204 18M1185 20L1222 128M1185 20L1187 -78M1185 20L1230 -25M1185 1460L1187 1362M1185 1460L1230 1415M1204 18L1187 -78M1204 18L1230 -25M1204 18L1296 -41M1204 1458L1187 1362M1204 1458L1230 1415M1204 1458L1296 1399M1297 79L1222 128M1297 79L1350 120M1297 79L1379 103M1415 61L1502 36M1415 61L1350 120M1415 61L1379 103M1415 61L1384 -23M1415 61L1465 -27M1415 1501L1384 1417M1415 1501L1465 1413M1502 36L1546 52M1502 36L1536 81M1502 36L1465 -27M1502 36L1558 -24M1502 1476L1465 1413M1502 1476L1558 1416M1546 52L1608 76M1546 52L1494 155M1546 52L1536 81M1546 52L1558 -24M1546 1492L1558 1416M1608 76L1536 81M1608 76L1621 136M1608 76L1572 174M1608 76L1644 -18M1608 1516L1644 1422M1745 36L1832 79M1745 36L1701 141M1745 36L1801 125M1745 36L1644 -18M1745 36L1719 -77M1745 1476L1644 1422M1745 1476L1719 1363M1832 79L1801 125M1832 79L1888 109M1832 79L1867 161M1832 79L1860 -13M1832 1519L1860 1427M1912 10L1972 24M1912 10L1950 85M1912 10L1889 -83M1912 10L1860 -13M1912 10L1965 -4M1912 1450L1889 1357M1912 1450L1860 1427M1912 1450L1965 1436M1972 24L2002 75M1972 24L1950 85M1972 24L1965 -4M1972 24L2018 -39M1972 1464L1965 1436M1972 1464L2018 1401M2002 75L1950 85M2002 75L2035 148M2002 75L2095 130M2002 75L1965 -4M2002 1515L1965 1436M2157 63L2194 54M2157 63L2095 130M2157 63L2230 141M2157 63L2222 -2M2157 1503L2222 1438M2194 54L2230 141M2194 54L2249 115M2194 54L2222 -2M2194 1494L2222 1438M2310 61L2357 6M2310 61L2249 115M2310 61L2335 142M2310 61L2276 -3M2310 1501L2276 1437M2357 6L2421 25M2357 6L2276 -3M2357 6L2389 -27M2357 1446L2276 1437M2357 1446L2389 1413M2421 25L2389 -27M2421 25L2425 -72M2421 25L2525 -14M2421 1465L2389 1413M2421 1465L2425 1368M2421 1465L2525 1426M2559 29L2501 129M2559 29L2620 -10M2559 29L2525 -14M-1 29L60 -10M-1 1469L60 1430M2559 1469L2620 1430M2559 1469L2525 1426M13 153L-59 129M13 153L67 160M13 153L94 195M13 153L-75 189M2573 153L2501 129M2573 153L2485 189M141 127L201 153M141 127L67 160M141 127L94 195M201 153L279 143M201 153L172 215M201 153L244 247M279 143L335 118M279 143L319 211M279 143L332 231M335 118L446 114M335 118L319 211M335 118L332 231M446 114L525 96M446 114L473 165M446 114L494 193M525 96L473 165M525 96L494 193M610 82L634 -35M610 1522L634 1405M704 134L757 101M704 134L810 116M704 134L643 226M757 101L810 116M810 116L863 216M945 130L1023 134M945 130L920 164M945 130L989 183M1023 134L1087 108M1023 134L920 164M1023 134L989 183M1087 108L1156 158M1087 108L1144 183M1156 158L1222 128M1156 158L1078 235M1156 158L1144 183M1156 158L1241 205M1222 128L1144 183M1222 128L1241 205M1350 120L1379 103M1350 120L1376 222M1379 103L1494 155M1379 103L1441 201M1494 155L1536 81M1494 155L1441 201M1494 155L1572 174M1536 81L1572 174M1621 136L1701 141M1621 136L1572 174M1621 136L1604 229M1701 141L1794 200M1801 125L1888 109M1801 125L1794 200M1801 125L1867 161M1888 109L1950 85M1888 109L1867 161M2035 148L2095 130M2035 148L1991 189M2035 148L2017 183M2035 148L2091 215M2095 130L2017 183M2095 130L2091 215M2230 141L2249 115M2230 141L2226 229M2230 141L2301 161M2249 115L2335 142M2249 115L2301 161M2335 142L2403 142M2335 142L2301 161M2403 142L2501 129M2403 142L2361 222M2403 142L2404 233M2403 142L2485 189M2501 129L2485 189M67 160L94 195M94 195L172 215M94 195L22 288M172 215L135 316M172 215L228 293M172 215L244 247M319 211L332 231M319 211L244 247M319 211L359 252M332 231L244 247M332 231L359 252M473 165L494 193M473 165L569 200M494 193L569 200M494 193L464 289M569 200L643 226M569 200L558 296M569 200L564 274M643 226L564 274M643 226L710 259M772 235L863 216M772 235L710 259M772 235L795 311M772 235L832 285M772 235L780 328M863 216L920 164M863 216L832 285M863 216L964 266M920 164L989 183M989 183L1078 235M989 183L964 266M1078 235L1144 183M1078 235L1100 285M1078 235L1144 302M1144 183L1241 205M1241 205L1299 206M1241 205L1253 241M1299 206L1376 222M1299 206L1253 241M1299 206L1332 259M1299 206L1380 242M1376 222L1441 201M1376 222L1332 259M1376 222L1380 242M1441 201L1380 242M1441 201L1483 304M1572 174L1604 229M1604 229L1697 237M1604 229L1668 273M1604 229L1680 292M1697 237L1794 200M1697 237L1668 273M1697 237L1680 292M1697 237L1668 328M1794 200L1867 161M1794 200L1794 314M1867 161L1991 189M1991 189L2017 183M1991 189L2091 215M2017 183L2091 215M2017 183L2063 274M2091 215L2063 274M2226 229L2301 161M2226 229L2203 255M2301 161L2361 222M2361 222L2404 233M2361 222L2342 301M2361 222L2411 283M2404 233L2485 189M2404 233L2411 283M2404 233L2443 329M22 288L135 316M22 288L-49 319M22 288L39 359M2582 288L2511 319M135 316L228 293M135 316L89 389M135 316L163 408M228 293L244 247M228 293L239 397M228 293L277 391M359 252L361 355M464 289L558 296M464 289L501 321M558 296L564 274M558 296L501 321M558 296L588 372M564 274L501 321M564 274L588 372M710 259L795 311M710 259L650 345M710 259L780 328M795 311L832 285M795 311L780 328M795 311L830 371M832 285L780 328M832 285L830 371M953 295L964 266M953 295L934 331M953 295L1049 356M964 266L1100 285M964 266L934 331M1100 285L1144 302M1100 285L1049 356M1100 285L1173 375M1144 302L1049 356M1144 302L1173 375M1253 241L1332 259M1253 241L1296 325M1332 259L1380 242M1332 259L1296 325M1380 242L1296 325M1483 304L1533 311M1483 304L1439 331M1483 304L1474 367M1483 304L1553 324M1533 311L1439 331M1533 311L1474 367M1533 311L1553 324M1533 311L1575 412M1668 273L1680 292M1668 273L1668 328M1668 273L1692 366M1680 292L1668 328M1680 292L1692 366M1794 314L1894 290M1794 314L1785 396M1794 314L1878 367M1794 314L1782 406M1894 290L1938 289M1894 290L1878 367M1894 290L1941 378M1938 289L1941 378M1938 289L2004 348M2063 274L2137 320M2063 274L2004 348M2137 320L2203 255M2137 320L2096 383M2203 255L2255 318M2203 255L2289 323M2255 318L2342 301M2255 318L2222 388M2255 318L2289 323M2255 318L2324 360M2342 301L2411 283M2342 301L2289 323M2342 301L2324 360M2411 283L2511 319M2411 283L2443 329M2511 319L2599 359M2511 319L2443 329M2511 319L2501 384M-49 319L39 359M39 359L89 389M39 359L-59 384M39 359L34 440M2599 359L2501 384M89 389L34 440M89 389L133 479M89 389L163 408M239 397L277 391M239 397L163 408M239 397L257 449M239 397L228 486M277 391L361 355M277 391L257 449M277 391L353 450M361 355L438 389M361 355L353 450M438 389L501 321M438 389L465 465M438 389L491 453M438 389L462 480M501 321L588 372M588 372L650 345M588 372L657 434M780 328L830 371M830 371L934 331M830 371L863 428M934 331L1007 394M934 331L1014 405M1007 394L1049 356M1007 394L958 468M1007 394L1014 405M1049 356L1014 405M1173 375L1233 385M1173 375L1148 448M1233 385L1296 325M1233 385L1241 471M1233 385L1229 481M1296 325L1350 439M1439 331L1474 367M1439 331L1399 419M1474 367L1399 419M1474 367L1508 437M1553 324L1575 412M1668 328L1692 366M1668 328L1663 412M1692 366L1785 396M1692 366L1663 412M1785 396L1732 472M1785 396L1782 406M1785 396L1860 449M1878 367L1941 378M1878 367L1860 449M1878 367L1931 444M1941 378L2004 348M1941 378L1931 444M2004 348L2096 383M2004 348L2045 414M2096 383L2045 414M2096 383L2101 438M2096 383L2187 411M2222 388L2289 323M2222 388L2324 360M2222 388L2187 411M2289 323L2324 360M2443 329L2501 384M2501 384L2468 450M2501 384L2537 450M34 440L-23 450M34 440L71 517M2594 440L2537 450M133 479L163 408M133 479L71 517M133 479L115 559M133 479L228 486M163 408L228 486M257 449L353 450M257 449L228 486M353 450L352 533M465 465L491 453M465 465L462 480M465 465L546 485M491 453L462 480M491 453L546 485M580 480L657 434M580 480L546 485M580 480L620 508M580 480L650 501M580 480L596 580M657 434L729 475M657 434L620 508M657 434L650 501M729 475L650 501M729 475L729 557M729 475L802 531M729 475L722 562M863 428L958 468M863 428L802 531M863 428L952 494M958 468L1014 405M958 468L952 494M1102 468L1148 448M1102 468L1064 548M1102 468L1133 505M1148 448L1241 471M1148 448L1133 505M1148 448L1229 481M1241 471L1350 439M1241 471L1229 481M1350 439L1399 419M1350 439L1337 560M1399 419L1508 437M1508 437L1575 412M1508 437L1513 556M1508 437L1539 502M1575 412L1663 412M1575 412L1539 502M1663 412L1732 472M1732 472L1782 406M1732 472L1752 485M1732 472L1804 511M1782 406L1860 449M1782 406L1752 485M1860 449L1931 444M1860 449L1804 511M1931 444L1909 520M2045 414L2101 438M2045 414L2035 505M2101 438L2187 411M2101 438L2035 505M2101 438L2137 509M2187 411L2195 491M2287 471L2195 491M2287 471L2257 543M2398 437L2468 450M2398 437L2390 527M2398 437L2497 489M2468 450L2537 450M2468 450L2456 536M2468 450L2497 489M2537 450L2631 517M2537 450L2497 489M-23 450L71 517M71 517L115 559M71 517L22 609M115 559L22 609M115 559L104 627M228 486L290 553M290 553L352 533M290 553L217 618M290 553L285 598M290 553L369 567M352 533L285 598M352 533L369 567M462 480L546 485M462 480L512 577M546 485L620 508M620 508L650 501M620 508L596 580M650 501L722 562M729 557L802 531M729 557L651 608M729 557L722 562M802 531L722 562M802 531L867 584M952 494L1012 558M952 494L939 584M1012 558L1064 548M1012 558L939 584M1012 558L993 603M1012 558L1068 566M1064 548L1133 505M1064 548L993 603M1064 548L1068 566M1133 505L1229 481M1133 505L1068 566M1337 560L1435 536M1337 560L1352 574M1337 560L1352 645M1435 536L1513 556M1435 536L1352 574M1435 536L1410 607M1435 536L1466 580M1513 556L1539 502M1513 556L1466 580M1513 556L1540 618M1678 556L1752 485M1678 556L1664 639M1678 556L1752 578M1752 485L1804 511M1752 485L1752 578M1804 511L1909 520M1804 511L1752 578M1909 520L1956 549M1909 520L1867 603M1909 520L1930 582M1956 549L2035 505M1956 549L1930 582M1956 549L2009 612M2035 505L2137 509M2035 505L2110 571M2137 509L2195 491M2137 509L2110 571M2137 509L2212 580M2195 491L2257 543M2195 491L2212 580M2257 543L2212 580M2390 527L2456 536M2390 527L2497 489M2390 527L2409 601M2456 536L2497 489M2456 536L2409 601M2456 536L2504 606M22 609L104 627M22 609L-56 606M22 609L-40 648M2582 609L2504 606M2582 609L2520 648M104 627L63 717M104 627L139 680M217 618L285 598M217 618L139 680M217 618L235 669M217 618L273 666M285 598L369 567M285 598L273 666M369 567L439 618M369 567L394 662M439 618L512 577M439 618L394 662M439 618L438 647M439 618L504 701M512 577L596 580M512 577L438 647M512 577L504 701M596 580L651 608M596 580L619 656M651 608L722 562M651 608L619 656M651 608L643 669M867 584L939 584M867 584L828 654M867 584L882 669M939 584L993 603M939 584L882 669M993 603L1068 566M993 603L1064 657M1068 566L1064 657M1141 633L1218 627M1141 633L1064 657M1141 633L1190 659M1141 633L1224 655M1218 627L1190 659M1218 627L1224 655M1352 574L1410 607M1352 574L1466 580M1352 574L1352 645M1410 607L1466 580M1410 607L1352 645M1410 607L1408 702M1466 580L1540 618M1540 618L1510 692M1540 618L1588 658M1540 618L1639 683M1664 639L1752 578M1664 639L1588 658M1664 639L1639 683M1664 639L1723 709M1752 578L1812 634M1812 634L1867 603M1812 634L1813 682M1812 634L1845 662M1867 603L1930 582M1867 603L1813 682M1867 603L1845 662M1930 582L2009 612M1930 582L1955 674M2009 612L2110 571M2009 612L1955 674M2009 612L2040 672M2110 571L2212 580M2110 571L2105 653M2212 580L2168 667M2308 633L2351 623M2308 633L2303 710M2308 633L2332 648M2351 623L2409 601M2351 623L2332 648M2409 601L2332 648M2409 601L2459 663M2504 606L2459 663M2504 606L2520 648M63 717L139 680M63 717L66 767M63 717L116 739M63 717L143 802M139 680L116 739M235 669L273 666M235 669L235 735M273 666L235 735M394 662L438 647M394 662L379 732M438 647L504 701M504 701L467 755M504 701L524 768M619 656L643 669M619 656L622 727M643 669L622 727M643 669L726 722M777 701L828 654M777 701L882 669M777 701L726 722M777 701L768 802M828 654L882 669M882 669L935 724M1017 711L1064 657M1017 711L935 724M1017 711L1000 792M1017 711L1064 734M1064 657L1064 734M1190 659L1224 655M1190 659L1270 750M1352 645L1408 702M1408 702L1354 790M1408 702L1416 734M1510 692L1588 658M1510 692L1487 766M1510 692L1553 767M1588 658L1639 683M1588 658L1553 767M1639 683L1723 709M1639 683L1663 791M1723 709L1813 682M1723 709L1726 770M1723 709L1775 749M1813 682L1845 662M1813 682L1775 749M1955 674L2040 672M1955 674L1949 744M1955 674L2013 763M2040 672L2105 653M2040 672L1949 744M2040 672L2013 763M2105 653L2168 667M2168 667L2122 768M2168 667L2212 747M2303 710L2332 648M2303 710L2212 747M2303 710L2304 762M2303 710L2374 734M2332 648L2374 734M2459 663L2520 648M2459 663L2410 729M2520 648L2533 777M66 767L116 739M66 767L-27 777M66 767L43 841M66 767L143 802M2626 767L2533 777M116 739L143 802M116 739L166 814M235 735L252 800M235 735L166 814M252 800L143 802M252 800L166 814M252 800L273 850M379 732L467 755M379 732L385 856M379 732L403 834M467 755L524 768M467 755L403 834M467 755L532 832M524 768L532 832M622 727L657 793M622 727L726 722M622 727L614 840M657 793L726 722M657 793L614 840M657 793L686 870M657 793L768 802M726 722L768 802M852 791L935 724M852 791L768 802M852 791L812 875M935 724L1000 792M1000 792L1064 734M1000 792L933 858M1000 792L1031 878M1064 734L1162 797M1162 797L1270 750M1162 797L1108 837M1162 797L1194 841M1162 797L1203 809M1270 750L1203 809M1270 750L1300 801M1354 790L1416 734M1354 790L1300 801M1354 790L1429 829M1354 790L1395 889M1416 734L1487 766M1416 734L1429 829M1416 734L1489 809M1487 766L1553 767M1487 766L1429 829M1487 766L1489 809M1553 767L1489 809M1553 767L1543 852M1663 791L1726 770M1663 791L1660 858M1663 791L1694 877M1726 770L1775 749M1726 770L1776 807M1775 749L1776 807M1886 789L1949 744M1886 789L1776 807M1886 789L1842 846M1886 789L1974 826M1949 744L2013 763M1949 744L1974 826M2013 763L1974 826M2013 763L2097 811M2122 768L2212 747M2122 768L2097 811M2122 768L2181 808M2212 747L2304 762M2212 747L2181 808M2304 762L2374 734M2304 762L2366 855M2374 734L2410 729M2374 734L2441 804M2410 729L2441 804M2533 777L2603 841M2533 777L2441 804M2533 777L2522 828M-27 777L43 841M43 841L-38 828M43 841L41 941M43 841L-9 896M2603 841L2522 828M2603 841L2551 896M143 802L166 814M166 814L273 850M273 850L385 856M273 850L241 950M273 850L339 932M385 856L403 834M385 856L339 932M385 856L431 960M532 832L614 840M532 832L531 935M614 840L686 870M686 870L718 926M768 802L812 875M812 875L778 913M812 875L863 894M812 875L888 921M933 858L863 894M933 858L888 921M933 858L985 905M1031 878L1108 837M1031 878L985 905M1031 878L1087 915M1108 837L1194 841M1108 837L1087 915M1108 837L1129 919M1194 841L1203 809M1194 841L1129 919M1194 841L1219 910M1203 809L1300 801M1203 809L1219 910M1300 801L1345 897M1429 829L1489 809M1429 829L1395 889M1489 809L1543 852M1543 852L1593 956M1660 858L1694 877M1660 858L1670 908M1694 877L1670 908M1694 877L1690 944M1776 807L1842 846M1842 846L1786 925M1842 846L1852 930M1842 846L1858 965M1974 826L2029 876M2029 876L2097 811M2029 876L1958 928M2029 876L2050 899M2029 876L2111 912M2097 811L2181 808M2097 811L2050 899M2181 808L2225 886M2300 878L2366 855M2300 878L2225 886M2300 878L2281 941M2300 878L2331 919M2366 855L2441 804M2366 855L2331 919M2441 804L2522 828M2522 828L2551 896M41 941L-9 896M41 941L3 979M41 941L-10 982M2601 941L2551 896M2601 941L2550 982M150 928L162 951M150 928L130 1000M162 951L241 950M162 951L130 1000M162 951L193 1038M241 950L339 932M241 950L278 999M339 932L431 960M339 932L278 999M431 960L396 1036M431 960L455 1030M431 960L521 999M531 935L612 952M531 935L521 999M531 935L580 986M612 952L718 926M612 952L580 986M612 952L688 1031M718 926L778 913M718 926L688 1031M718 926L773 987M778 913L863 894M778 913L773 987M863 894L888 921M863 894L848 982M888 921L848 982M888 921L905 989M985 905L1087 915M985 905L1006 969M1087 915L1129 919M1087 915L1006 969M1129 919L1219 910M1129 919L1183 973M1219 910L1183 973M1345 897L1395 889M1345 897L1441 919M1345 897L1330 997M1345 897L1418 978M1395 889L1441 919M1395 889L1418 978M1441 919L1418 978M1441 919L1477 976M1593 956L1670 908M1593 956L1583 964M1593 956L1658 995M1670 908L1690 944M1670 908L1583 964M1690 944L1786 925M1690 944L1658 995M1690 944L1693 1020M1786 925L1852 930M1786 925L1802 1022M1786 925L1858 965M1852 930L1802 1022M1852 930L1858 965M1958 928L2050 899M1958 928L1968 1027M1958 928L2006 1013M2050 899L2111 912M2111 912L2084 1007M2225 886L2281 941M2281 941L2331 919M2281 941L2266 977M2281 941L2345 992M2331 919L2266 977M2331 919L2345 992M2480 937L2551 896M2480 937L2563 979M2480 937L2466 1020M2480 937L2550 982M-80 937L3 979M2551 896L2563 979M-9 896L3 979M3 979L-10 982M3 979L-65 1044M2563 979L2550 982M2563 979L2495 1044M130 1000L193 1038M130 1000L97 1081M193 1038L278 999M193 1038L197 1093M193 1038L281 1057M278 999L281 1057M278 999L322 1057M396 1036L455 1030M396 1036L281 1057M396 1036L322 1057M396 1036L427 1116M455 1030L521 999M455 1030L427 1116M455 1030L554 1097M521 999L580 986M521 999L554 1097M580 986L577 1100M688 1031L773 987M688 1031L694 1110M688 1031L792 1084M773 987L848 982M773 987L827 1042M848 982L905 989M848 982L827 1042M905 989L827 1042M1006 969L1067 1037M1006 969L993 1055M1006 969L1052 1055M1067 1037L993 1055M1067 1037L1052 1055M1183 973L1266 1005M1183 973L1200 1046M1266 1005L1330 997M1266 1005L1200 1046M1266 1005L1245 1093M1266 1005L1314 1107M1330 997L1418 978M1418 978L1477 976M1477 976L1583 964M1583 964L1658 995M1583 964L1577 1076M1658 995L1693 1020M1658 995L1685 1063M1693 1020L1648 1107M1693 1020L1685 1063M1693 1020L1771 1064M1802 1022L1858 965M1802 1022L1771 1064M1802 1022L1850 1087M1858 965L1850 1087M1968 1027L2006 1013M1968 1027L1994 1116M1968 1027L2060 1051M2006 1013L2084 1007M2006 1013L1994 1116M2006 1013L2060 1051M2084 1007L2060 1051M2084 1007L2113 1088M2084 1007L2188 1045M2216 1004L2266 977M2216 1004L2188 1045M2266 977L2345 992M2266 977L2313 1054M2345 992L2313 1054M2466 1020L2550 982M2466 1020L2399 1057M2466 1020L2480 1100M2466 1020L2495 1044M2550 982L2495 1044M31 1094L97 1081M31 1094L63 1178M31 1094L-64 1127M2591 1094L2496 1127M97 1081L63 1178M97 1081L126 1159M197 1093L281 1057M197 1093L126 1159M197 1093L224 1173M197 1093L243 1186M281 1057L322 1057M427 1116L426 1175M427 1116L509 1144M554 1097L577 1100M554 1097L509 1144M554 1097L603 1189M577 1100L509 1144M577 1100L603 1189M694 1110L792 1084M694 1110L679 1158M694 1110L797 1127M694 1110L669 1212M792 1084L827 1042M792 1084L797 1127M792 1084L831 1146M827 1042L797 1127M947 1108L993 1055M947 1108L831 1146M947 1108L941 1135M947 1108L987 1127M993 1055L1052 1055M993 1055L987 1127M1052 1055L987 1127M1052 1055L1075 1160M1200 1046L1245 1093M1200 1046L1152 1136M1200 1046L1247 1138M1245 1093L1314 1107M1245 1093L1152 1136M1245 1093L1247 1138M1314 1107L1392 1106M1314 1107L1247 1138M1314 1107L1342 1154M1392 1106L1342 1154M1392 1106L1434 1175M1516 1110L1577 1076M1516 1110L1434 1175M1516 1110L1487 1180M1516 1110L1557 1128M1577 1076L1648 1107M1577 1076L1557 1128M1648 1107L1685 1063M1648 1107L1604 1197M1648 1107L1712 1153M1685 1063L1771 1064M1685 1063L1712 1153M1771 1064L1850 1087M1850 1087L1815 1184M1850 1087L1870 1171M1994 1116L2060 1051M1994 1116L1983 1195M1994 1116L2005 1142M2060 1051L2113 1088M2113 1088L2188 1045M2113 1088L2102 1161M2313 1054L2399 1057M2313 1054L2365 1127M2313 1054L2405 1127M2399 1057L2365 1127M2399 1057L2405 1127M2480 1100L2495 1044M2480 1100L2365 1127M2480 1100L2405 1127M2480 1100L2496 1127M2495 1044L2496 1127M63 1178L126 1159M63 1178L77 1209M63 1178L89 1204M126 1159L77 1209M126 1159L89 1204M224 1173L243 1186M224 1173L195 1212M224 1173L294 1207M243 1186L195 1212M243 1186L294 1207M348 1185L426 1175M348 1185L294 1207M348 1185L356 1253M348 1185L409 1212M426 1175L509 1144M426 1175L409 1212M509 1144L561 1227M603 1189L679 1158M603 1189L561 1227M603 1189L669 1212M679 1158L669 1212M797 1127L831 1146M797 1127L858 1215M831 1146L941 1135M831 1146L858 1215M941 1135L987 1127M987 1127L1075 1160M1075 1160L1152 1136M1075 1160L1090 1219M1152 1136L1247 1138M1152 1136L1090 1219M1247 1138L1342 1154M1342 1154L1354 1231M1434 1175L1487 1180M1434 1175L1420 1268M1434 1175L1466 1252M1487 1180L1557 1128M1487 1180L1466 1252M1557 1128L1604 1197M1604 1197L1573 1265M1604 1197L1677 1257M1604 1197L1622 1291M1712 1153L1815 1184M1712 1153L1705 1209M1815 1184L1870 1171M1815 1184L1807 1226M1815 1184L1877 1254M1870 1171L1807 1226M1870 1171L1877 1254M1870 1171L1941 1218M1983 1195L2005 1142M1983 1195L1941 1218M1983 1195L2018 1255M2005 1142L2102 1161M2005 1142L1941 1218M2005 1142L2018 1255M2224 1162L2244 1189M2224 1162L2174 1258M2224 1162L2274 1232M2244 1189L2174 1258M2244 1189L2274 1232M2244 1189L2339 1233M2365 1127L2405 1127M2365 1127L2339 1233M2405 1127L2496 1127M2496 1127L2511 1223M77 1209L89 1204M77 1209L51 1316M89 1204L195 1212M195 1212L182 1311M294 1207L356 1253M294 1207L356 1280M356 1253L409 1212M356 1253L356 1280M356 1253L433 1292M409 1212L356 1280M409 1212L433 1292M480 1274L561 1227M480 1274L433 1292M480 1274L537 1329M561 1227L669 1212M561 1227L537 1329M669 1212L770 1265M770 1265L858 1215M770 1265L800 1305M770 1265L844 1306M858 1215L844 1306M951 1264L995 1279M951 1264L887 1320M951 1264L1028 1307M995 1279L1090 1219M995 1279L1028 1307M995 1279L1063 1296M1090 1219L1155 1278M1090 1219L1063 1296M1155 1278L1246 1269M1155 1278L1063 1296M1155 1278L1144 1339M1155 1278L1244 1308M1246 1269L1244 1308M1246 1269L1292 1313M1354 1231L1420 1268M1354 1231L1292 1313M1420 1268L1466 1252M1420 1268L1408 1347M1420 1268L1497 1308M1466 1252L1408 1347M1466 1252L1497 1308M1573 1265L1497 1308M1573 1265L1592 1338M1573 1265L1622 1291M1677 1257L1705 1209M1677 1257L1622 1291M1677 1257L1682 1283M1677 1257L1719 1363M1705 1209L1807 1226M1705 1209L1682 1283M1807 1226L1877 1254M1807 1226L1836 1326M1877 1254L1941 1218M1877 1254L1836 1326M1941 1218L2018 1255M2018 1255L1986 1350M2018 1255L2027 1343M2149 1274L2174 1258M2149 1274L2098 1337M2149 1274L2169 1304M2149 1274L2089 1362M2174 1258L2274 1232M2174 1258L2169 1304M2274 1232L2339 1233M2274 1232L2262 1347M2339 1233L2405 1249M2339 1233L2341 1338M2405 1249L2511 1223M2405 1249L2460 1330M2405 1249L2501 1297M2511 1223L2501 1297M51 1316L141 1357M51 1316L-59 1297M51 1316L80 1392M2611 1316L2501 1297M141 1357L182 1311M141 1357L80 1392M141 1357L198 1380M182 1311L198 1380M182 1311L261 1380M291 1359L198 1380M291 1359L261 1380M291 1359L380 1370M356 1280L433 1292M356 1280L380 1370M433 1292L461 1383M537 1329L617 1334M537 1329L461 1383M537 1329L530 1402M617 1334L648 1346M617 1334L634 1405M617 1334L679 1375M648 1346L634 1405M648 1346L679 1375M800 1305L844 1306M800 1305L887 1320M800 1305L788 1401M844 1306L887 1320M844 1306L858 1391M887 1320L858 1391M887 1320L895 1393M1028 1307L1063 1296M1028 1307L983 1401M1063 1296L1144 1339M1144 1339L1244 1308M1144 1339L1187 1362M1144 1339L1230 1415M1244 1308L1292 1313M1244 1308L1187 1362M1292 1313L1296 1399M1408 1347L1497 1308M1408 1347L1384 1417M1408 1347L1465 1413M1497 1308L1592 1338M1592 1338L1622 1291M1592 1338L1558 1416M1592 1338L1644 1422M1622 1291L1682 1283M1682 1283L1719 1363M1836 1326L1889 1357M1836 1326L1820 1364M1836 1326L1860 1427M1889 1357L1986 1350M1889 1357L1820 1364M1889 1357L1860 1427M1986 1350L2027 1343M1986 1350L1965 1436M1986 1350L2018 1401M2027 1343L2098 1337M2027 1343L2018 1401M2027 1343L2089 1362M2098 1337L2169 1304M2098 1337L2089 1362M2169 1304L2262 1347M2169 1304L2089 1362M2262 1347L2341 1338M2262 1347L2222 1438M2262 1347L2276 1437M2341 1338L2389 1413M2341 1338L2425 1368M2460 1330L2501 1297M2460 1330L2389 1413M2460 1330L2425 1368M2460 1330L2525 1426M2501 1297L2425 1368M60 1430L80 1392M60 1430L-35 1426M2620 1430L2525 1426M198 1380L261 1380M380 1370L461 1383M461 1383L530 1402M634 1405L679 1375M788 1401L858 1391M788 1401L895 1393M858 1391L895 1393M895 1393L983 1401M983 1401L1041 1408M1187 1362L1230 1415M1230 1415L1296 1399M1296 1399L1384 1417M1384 1417L1465 1413M1465 1413L1558 1416M1558 1416L1644 1422M1644 1422L1719 1363M1719 1363L1820 1364M1820 1364L1860 1427M1965 1436L2018 1401M2018 1401L2089 1362M2222 1438L2276 1437M2389 1413L2425 1368"/></svg>