<svg xmlns="http://www.w3.org/2000/svg" width="2560" height="1440" fill="#fff"><circle cx="6" cy="10" r="6"/><circle cx="121" cy="51" r="5"/><circle cx="198" cy="51" r="5"/><circle cx="292" cy="10" r="4"/><circle cx="343" cy="35" r="6"/><circle cx="416" cy="30" r="4"/><circle cx="544" cy="63" r="5"/><circle cx="599" cy="38" r="4"/><circle cx="714" cy="78" r="6"/><circle cx="762" cy="10" r="5"/><circle cx="867" cy="57" r="5"/><circle cx="920" cy="50" r="5"/><circle cx="1000" cy="34" r="5"/><circle cx="1094" cy="65" r="4"/><circle cx="1149" cy="53" r="6"/><circle cx="1254" cy="54" r="4"/><circle cx="1301" cy="14" r="6"/><circle cx="1407" cy="15" r="5"/><circle cx="1516" cy="45" r="5"/><circle cx="1567" cy="71" r="5"/><circle cx="1640" cy="57" r="5"/><circle cx="1713" cy="37" r="5"/><circle cx="1803" cy="13" r="5"/><circle cx="1870" cy="16" r="5"/><circle cx="1972" cy="30" r="4"/><circle cx="2050" cy="51" r="5"/><circle cx="2101" cy="63" r="5"/><circle cx="2177" cy="25" r="4"/><circle cx="2299" cy="50" r="5"/><circle cx="2359" cy="25" r="6"/><circle cx="2416" cy="41" r="5"/><circle cx="2494" cy="16" r="5"/><circle cx="55" cy="107" r="4"/><circle cx="151" cy="92" r="4"/><circle cx="236" cy="120" r="6"/><circle cx="319" cy="104" r="6"/><circle cx="376" cy="116" r="4"/><circle cx="401" cy="96" r="5"/><circle cx="497" cy="108" r="5"/><circle cx="610" cy="82" r="4"/><circle cx="701" cy="96" r="6"/><circle cx="772" cy="101" r="5"/><circle cx="831" cy="109" r="6"/><circle cx="881" cy="91" r="5"/><circle cx="971" cy="104" r="6"/><circle cx="1103" cy="94" r="4"/><circle cx="1123" cy="94" r="5"/><circle cx="1209" cy="142" r="6"/><circle cx="1351" cy="157" r="5"/><circle cx="1432" cy="95" r="5"/><circle cx="1482" cy="158" r="5"/><circle cx="1577" cy="142" r="6"/><circle cx="1613" cy="133" r="6"/><circle cx="1747" cy="148" r="5"/><circle cx="1823" cy="125" r="5"/><circle cx="1876" cy="132" r="6"/><circle cx="1993" cy="91" r="5"/><circle cx="2057" cy="86" r="5"/><circle cx="2105" cy="144" r="5"/><circle cx="2222" cy="118" r="5"/><circle cx="2303" cy="111" r="6"/><circle cx="2349" cy="117" r="6"/><circle cx="2450" cy="96" r="4"/><circle cx="2497" cy="93" r="6"/><circle cx="71" cy="230" r="4"/><circle cx="93" cy="221" r="4"/><circle cx="164" cy="231" r="6"/><circle cx="267" cy="234" r="5"/><circle cx="378" cy="218" r="6"/><circle cx="479" cy="172" r="5"/><circle cx="542" cy="224" r="4"/><circle cx="601" cy="213" r="6"/><circle cx="662" cy="168" r="4"/><circle cx="752" cy="209" r="5"/><circle cx="869" cy="231" r="5"/><circle cx="912" cy="220" r="6"/><circle cx="989" cy="184" r="5"/><circle cx="1068" cy="180" r="4"/><circle cx="1159" cy="205" r="5"/><circle cx="1276" cy="217" r="5"/><circle cx="1315" cy="239" r="5"/><circle cx="1386" cy="220" r="6"/><circle cx="1481" cy="195" r="4"/><circle cx="1574" cy="222" r="4"/><circle cx="1626" cy="173" r="6"/><circle cx="1740" cy="183" r="4"/><circle cx="1771" cy="163" r="4"/><circle cx="1864" cy="230" r="5"/><circle cx="1937" cy="176" r="5"/><circle cx="2037" cy="205" r="5"/><circle cx="2139" cy="183" r="5"/><circle cx="2161" cy="197" r="5"/><circle cx="2289" cy="178" r="4"/><circle cx="2382" cy="160" r="6"/><circle cx="2459" cy="162" r="6"/><circle cx="2530" cy="234" r="6"/><circle cx="25" cy="284" r="4"/><circle cx="125" cy="241" r="6"/><circle cx="232" cy="304" r="5"/><circle cx="309" cy="297" r="5"/><circle cx="395" cy="296" r="5"/><circle cx="476" cy="251" r="5"/><circle cx="534" cy="314" r="4"/><circle cx="620" cy="279" r="5"/><circle cx="716" cy="255" r="6"/><circle cx="727" cy="312" r="5"/><circle cx="808" cy="290" r="4"/><circle cx="939" cy="318" r="4"/><circle cx="980" cy="294" r="4"/><circle cx="1065" cy="295" r="5"/><circle cx="1178" cy="300" r="4"/><circle cx="1212" cy="315" r="6"/><circle cx="1345" cy="289" r="4"/><circle cx="1405" cy="316" r="4"/><circle cx="1440" cy="254" r="6"/><circle cx="1549" cy="303" r="5"/><circle cx="1642" cy="305" r="4"/><circle cx="1740" cy="277" r="6"/><circle cx="1776" cy="289" r="4"/><circle cx="1868" cy="269" r="5"/><circle cx="1975" cy="314" r="5"/><circle cx="2058" cy="272" r="4"/><circle cx="2149" cy="241" r="5"/><circle cx="2184" cy="282" r="5"/><circle cx="2243" cy="302" r="4"/><circle cx="2367" cy="295" r="4"/><circle cx="2406" cy="304" r="6"/><circle cx="2538" cy="279" r="4"/><circle cx="7" cy="370" r="4"/><circle cx="85" cy="332" r="5"/><circle cx="167" cy="379" r="5"/><circle cx="309" cy="389" r="4"/><circle cx="332" cy="386" r="4"/><circle cx="470" cy="325" r="5"/><circle cx="555" cy="348" r="6"/><circle cx="602" cy="360" r="5"/><circle cx="692" cy="363" r="5"/><circle cx="757" cy="368" r="5"/><circle cx="835" cy="361" r="5"/><circle cx="930" cy="349" r="5"/><circle cx="984" cy="389" r="5"/><circle cx="1087" cy="375" r="5"/><circle cx="1166" cy="340" r="5"/><circle cx="1264" cy="367" r="6"/><circle cx="1304" cy="338" r="5"/><circle cx="1371" cy="366" r="5"/><circle cx="1501" cy="355" r="6"/><circle cx="1598" cy="361" r="5"/><circle cx="1608" cy="364" r="6"/><circle cx="1731" cy="399" r="6"/><circle cx="1783" cy="387" r="4"/><circle cx="1872" cy="387" r="6"/><circle cx="1979" cy="332" r="5"/><circle cx="2012" cy="323" r="4"/><circle cx="2145" cy="336" r="5"/><circle cx="2227" cy="344" r="5"/><circle cx="2278" cy="345" r="6"/><circle cx="2329" cy="398" r="5"/><circle cx="2408" cy="347" r="5"/><circle cx="2540" cy="379" r="5"/><circle cx="51" cy="432" r="4"/><circle cx="156" cy="468" r="6"/><circle cx="181" cy="432" r="5"/><circle cx="254" cy="429" r="4"/><circle cx="359" cy="403" r="4"/><circle cx="460" cy="454" r="5"/><circle cx="481" cy="460" r="5"/><circle cx="574" cy="409" r="5"/><circle cx="656" cy="469" r="4"/><circle cx="739" cy="410" r="5"/><circle cx="872" cy="401" r="5"/><circle cx="939" cy="404" r="5"/><circle cx="966" cy="454" r="5"/><circle cx="1042" cy="423" r="5"/><circle cx="1166" cy="448" r="5"/><circle cx="1218" cy="440" r="6"/><circle cx="1300" cy="454" r="5"/><circle cx="1395" cy="406" r="5"/><circle cx="1502" cy="478" r="4"/><circle cx="1530" cy="468" r="6"/><circle cx="1640" cy="422" r="6"/><circle cx="1723" cy="446" r="5"/><circle cx="1804" cy="401" r="5"/><circle cx="1861" cy="458" r="4"/><circle cx="1999" cy="414" r="5"/><circle cx="2044" cy="438" r="6"/><circle cx="2144" cy="443" r="6"/><circle cx="2171" cy="407" r="4"/><circle cx="2250" cy="431" r="5"/><circle cx="2383" cy="475" r="4"/><circle cx="2414" cy="425" r="4"/><circle cx="2503" cy="465" r="5"/><circle cx="50" cy="542" r="5"/><circle cx="87" cy="507" r="5"/><circle cx="217" cy="544" r="6"/><circle cx="278" cy="510" r="5"/><circle cx="354" cy="532" r="5"/><circle cx="415" cy="545" r="5"/><circle cx="556" cy="500" r="5"/><circle cx="594" cy="501" r="5"/><circle cx="664" cy="485" r="4"/><circle cx="763" cy="552" r="5"/><circle cx="859" cy="541" r="5"/><circle cx="944" cy="558" r="6"/><circle cx="977" cy="511" r="6"/><circle cx="1090" cy="545" r="6"/><circle cx="1122" cy="490" r="5"/><circle cx="1239" cy="506" r="5"/><circle cx="1297" cy="494" r="4"/><circle cx="1385" cy="499" r="4"/><circle cx="1442" cy="505" r="4"/><circle cx="1591" cy="554" r="5"/><circle cx="1605" cy="492" r="4"/><circle cx="1759" cy="494" r="6"/><circle cx="1807" cy="498" r="4"/><circle cx="1917" cy="515" r="4"/><circle cx="1981" cy="501" r="5"/><circle cx="2073" cy="487" r="4"/><circle cx="2087" cy="539" r="5"/><circle cx="2199" cy="541" r="6"/><circle cx="2255" cy="484" r="6"/><circle cx="2375" cy="556" r="6"/><circle cx="2420" cy="527" r="5"/><circle cx="2555" cy="482" r="6"/><circle cx="-5" cy="482" r="6"/><circle cx="61" cy="571" r="5"/><circle cx="151" cy="586" r="6"/><circle cx="207" cy="574" r="5"/><circle cx="251" cy="640" r="4"/><circle cx="387" cy="613" r="6"/><circle cx="447" cy="568" r="5"/><circle cx="538" cy="583" r="5"/><circle cx="635" cy="595" r="6"/><circle cx="700" cy="594" r="5"/><circle cx="755" cy="614" r="6"/><circle cx="816" cy="590" r="5"/><circle cx="885" cy="570" r="5"/><circle cx="985" cy="574" r="4"/><circle cx="1077" cy="608" r="5"/><circle cx="1161" cy="573" r="4"/><circle cx="1206" cy="585" r="5"/><circle cx="1350" cy="579" r="4"/><circle cx="1381" cy="597" r="5"/><circle cx="1486" cy="618" r="5"/><circle cx="1589" cy="631" r="6"/><circle cx="1638" cy="639" r="6"/><circle cx="1729" cy="560" r="4"/><circle cx="1787" cy="574" r="4"/><circle cx="1844" cy="596" r="5"/><circle cx="1939" cy="611" r="6"/><circle cx="2003" cy="560" r="5"/><circle cx="2125" cy="603" r="5"/><circle cx="2220" cy="637" r="5"/><circle cx="2257" cy="562" r="6"/><circle cx="2344" cy="640" r="4"/><circle cx="2441" cy="603" r="5"/><circle cx="2513" cy="584" r="4"/><circle cx="29" cy="713" r="6"/><circle cx="157" cy="642" r="5"/><circle cx="188" cy="684" r="4"/><circle cx="283" cy="718" r="4"/><circle cx="398" cy="645" r="4"/><circle cx="425" cy="709" r="4"/><circle cx="536" cy="646" r="5"/><circle cx="564" cy="675" r="5"/><circle cx="719" cy="691" r="4"/><circle cx="779" cy="677" r="4"/><circle cx="873" cy="703" r="6"/><circle cx="960" cy="663" r="5"/><circle cx="1029" cy="649" r="5"/><circle cx="1107" cy="665" r="6"/><circle cx="1160" cy="643" r="5"/><circle cx="1211" cy="719" r="6"/><circle cx="1332" cy="708" r="5"/><circle cx="1419" cy="666" r="6"/><circle cx="1477" cy="709" r="6"/><circle cx="1599" cy="678" r="5"/><circle cx="1657" cy="663" r="4"/><circle cx="1691" cy="665" r="4"/><circle cx="1780" cy="680" r="5"/><circle cx="1853" cy="716" r="6"/><circle cx="1980" cy="646" r="5"/><circle cx="2053" cy="691" r="6"/><circle cx="2094" cy="642" r="6"/><circle cx="2178" cy="641" r="5"/><circle cx="2264" cy="685" r="5"/><circle cx="2377" cy="714" r="5"/><circle cx="2440" cy="717" r="5"/><circle cx="2522" cy="683" r="6"/><circle cx="68" cy="786" r="6"/><circle cx="98" cy="788" r="5"/><circle cx="189" cy="760" r="4"/><circle cx="256" cy="729" r="4"/><circle cx="323" cy="722" r="6"/><circle cx="441" cy="787" r="6"/><circle cx="509" cy="759" r="4"/><circle cx="589" cy="789" r="5"/><circle cx="685" cy="770" r="5"/><circle cx="726" cy="785" r="5"/><circle cx="861" cy="730" r="5"/><circle cx="948" cy="726" r="5"/><circle cx="1025" cy="786" r="5"/><circle cx="1040" cy="728" r="5"/><circle cx="1164" cy="766" r="6"/><circle cx="1216" cy="742" r="5"/><circle cx="1338" cy="752" r="5"/><circle cx="1403" cy="789" r="5"/><circle cx="1499" cy="749" r="6"/><circle cx="1521" cy="742" r="5"/><circle cx="1644" cy="746" r="5"/><circle cx="1733" cy="784" r="5"/><circle cx="1835" cy="800" r="6"/><circle cx="1851" cy="774" r="5"/><circle cx="1950" cy="728" r="5"/><circle cx="2080" cy="739" r="5"/><circle cx="2090" cy="729" r="5"/><circle cx="2232" cy="735" r="5"/><circle cx="2248" cy="795" r="5"/><circle cx="2324" cy="731" r="5"/><circle cx="2461" cy="730" r="5"/><circle cx="2501" cy="741" r="6"/><circle cx="12" cy="819" r="6"/><circle cx="150" cy="870" r="5"/><circle cx="231" cy="826" r="5"/><circle cx="301" cy="855" r="6"/><circle cx="354" cy="828" r="5"/><circle cx="449" cy="867" r="5"/><circle cx="498" cy="869" r="5"/><circle cx="607" cy="868" r="5"/><circle cx="691" cy="815" r="5"/><circle cx="761" cy="846" r="6"/><circle cx="838" cy="867" r="6"/><circle cx="934" cy="867" r="6"/><circle cx="971" cy="833" r="5"/><circle cx="1067" cy="875" r="6"/><circle cx="1174" cy="875" r="4"/><circle cx="1230" cy="855" r="5"/><circle cx="1340" cy="808" r="6"/><circle cx="1410" cy="855" r="4"/><circle cx="1476" cy="838" r="5"/><circle cx="1586" cy="869" r="4"/><circle cx="1646" cy="821" r="5"/><circle cx="1714" cy="857" r="6"/><circle cx="1783" cy="815" r="5"/><circle cx="1880" cy="867" r="5"/><circle cx="1975" cy="863" r="4"/><circle cx="2019" cy="864" r="6"/><circle cx="2107" cy="830" r="4"/><circle cx="2206" cy="836" r="5"/><circle cx="2272" cy="844" r="5"/><circle cx="2386" cy="839" r="6"/><circle cx="2445" cy="806" r="4"/><circle cx="2542" cy="861" r="5"/><circle cx="57" cy="950" r="4"/><circle cx="132" cy="954" r="4"/><circle cx="217" cy="906" r="6"/><circle cx="244" cy="925" r="4"/><circle cx="346" cy="893" r="5"/><circle cx="424" cy="953" r="5"/><circle cx="548" cy="916" r="5"/><circle cx="579" cy="929" r="6"/><circle cx="691" cy="939" r="5"/><circle cx="784" cy="957" r="6"/><circle cx="810" cy="915" r="5"/><circle cx="883" cy="907" r="4"/><circle cx="1019" cy="891" r="4"/><circle cx="1044" cy="899" r="4"/><circle cx="1172" cy="885" r="5"/><circle cx="1254" cy="909" r="5"/><circle cx="1323" cy="902" r="5"/><circle cx="1412" cy="923" r="5"/><circle cx="1481" cy="897" r="6"/><circle cx="1582" cy="885" r="4"/><circle cx="1661" cy="904" r="4"/><circle cx="1736" cy="947" r="6"/><circle cx="1808" cy="907" r="4"/><circle cx="1890" cy="896" r="5"/><circle cx="1950" cy="892" r="6"/><circle cx="2080" cy="918" r="5"/><circle cx="2143" cy="910" r="4"/><circle cx="2194" cy="959" r="5"/><circle cx="2313" cy="887" r="5"/><circle cx="2355" cy="888" r="5"/><circle cx="2478" cy="948" r="5"/><circle cx="2509" cy="937" r="4"/><circle cx="9" cy="983" r="4"/><circle cx="127" cy="997" r="4"/><circle cx="173" cy="1029" r="5"/><circle cx="294" cy="1014" r="5"/><circle cx="321" cy="976" r="4"/><circle cx="458" cy="1020" r="5"/><circle cx="508" cy="1009" r="5"/><circle cx="564" cy="1004" r="6"/><circle cx="670" cy="1010" r="5"/><circle cx="799" cy="965" r="5"/><circle cx="809" cy="1003" r="5"/><circle cx="906" cy="961" r="5"/><circle cx="1038" cy="1005" r="6"/><circle cx="1040" cy="994" r="5"/><circle cx="1161" cy="989" r="5"/><circle cx="1237" cy="985" r="5"/><circle cx="1345" cy="1017" r="4"/><circle cx="1402" cy="1036" r="4"/><circle cx="1454" cy="980" r="4"/><circle cx="1530" cy="964" r="6"/><circle cx="1666" cy="983" r="5"/><circle cx="1706" cy="964" r="5"/><circle cx="1832" cy="1007" r="5"/><circle cx="1878" cy="1008" r="5"/><circle cx="1941" cy="1021" r="4"/><circle cx="2077" cy="964" r="5"/><circle cx="2157" cy="976" r="4"/><circle cx="2239" cy="991" r="4"/><circle cx="2272" cy="1021" r="5"/><circle cx="2329" cy="964" r="4"/><circle cx="2443" cy="1031" r="5"/><circle cx="2508" cy="1015" r="5"/><circle cx="74" cy="1060" r="4"/><circle cx="125" cy="1085" r="6"/><circle cx="196" cy="1099" r="4"/><circle cx="281" cy="1094" r="5"/><circle cx="388" cy="1117" r="4"/><circle cx="443" cy="1102" r="4"/><circle cx="515" cy="1058" r="5"/><circle cx="611" cy="1062" r="6"/><circle cx="668" cy="1047" r="6"/><circle cx="791" cy="1085" r="6"/><circle cx="806" cy="1091" r="6"/><circle cx="958" cy="1053" r="5"/><circle cx="969" cy="1046" r="5"/><circle cx="1117" cy="1087" r="5"/><circle cx="1181" cy="1092" r="5"/><circle cx="1233" cy="1086" r="5"/><circle cx="1359" cy="1065" r="5"/><circle cx="1375" cy="1106" r="5"/><circle cx="1444" cy="1099" r="4"/><circle cx="1568" cy="1076" r="6"/><circle cx="1604" cy="1109" r="4"/><circle cx="1705" cy="1059" r="5"/><circle cx="1777" cy="1094" r="6"/><circle cx="1840" cy="1112" r="6"/><circle cx="1925" cy="1088" r="6"/><circle cx="2033" cy="1098" r="5"/><circle cx="2113" cy="1047" r="4"/><circle cx="2212" cy="1095" r="4"/><circle cx="2272" cy="1110" r="6"/><circle cx="2354" cy="1105" r="5"/><circle cx="2407" cy="1062" r="5"/><circle cx="2533" cy="1106" r="5"/><circle cx="34" cy="1130" r="4"/><circle cx="82" cy="1127" r="5"/><circle cx="161" cy="1140" r="5"/><circle cx="308" cy="1144" r="5"/><circle cx="398" cy="1170" r="4"/><circle cx="429" cy="1160" r="5"/><circle cx="503" cy="1153" r="5"/><circle cx="601" cy="1181" r="6"/><circle cx="654" cy="1182" r="5"/><circle cx="725" cy="1154" r="4"/><circle cx="869" cy="1126" r="5"/><circle cx="928" cy="1136" r="6"/><circle cx="1003" cy="1127" r="6"/><circle cx="1048" cy="1165" r="4"/><circle cx="1184" cy="1143" r="4"/><circle cx="1266" cy="1183" r="5"/><circle cx="1281" cy="1158" r="5"/><circle cx="1392" cy="1153" r="5"/><circle cx="1497" cy="1199" r="5"/><circle cx="1537" cy="1150" r="4"/><circle cx="1613" cy="1144" r="6"/><circle cx="1748" cy="1154" r="5"/><circle cx="1814" cy="1168" r="5"/><circle cx="1887" cy="1189" r="6"/><circle cx="1987" cy="1180" r="5"/><circle cx="2016" cy="1151" r="5"/><circle cx="2090" cy="1128" r="6"/><circle cx="2237" cy="1184" r="4"/><circle cx="2317" cy="1171" r="6"/><circle cx="2326" cy="1133" r="5"/><circle cx="2428" cy="1179" r="5"/><circle cx="2532" cy="1165" r="5"/><circle cx="64" cy="1222" r="6"/><circle cx="159" cy="1266" r="6"/><circle cx="217" cy="1214" r="4"/><circle cx="295" cy="1261" r="4"/><circle cx="375" cy="1219" r="4"/><circle cx="438" cy="1236" r="5"/><circle cx="500" cy="1256" r="4"/><circle cx="609" cy="1245" r="5"/><circle cx="698" cy="1216" r="5"/><circle cx="766" cy="1208" r="4"/><circle cx="873" cy="1251" r="4"/><circle cx="899" cy="1246" r="6"/><circle cx="992" cy="1252" r="4"/><circle cx="1107" cy="1254" r="5"/><circle cx="1167" cy="1208" r="4"/><circle cx="1207" cy="1276" r="5"/><circle cx="1341" cy="1273" r="5"/><circle cx="1385" cy="1261" r="5"/><circle cx="1469" cy="1228" r="5"/><circle cx="1588" cy="1207" r="4"/><circle cx="1621" cy="1234" r="6"/><circle cx="1692" cy="1276" r="5"/><circle cx="1822" cy="1274" r="4"/><circle cx="1920" cy="1257" r="5"/><circle cx="1970" cy="1278" r="5"/><circle cx="2051" cy="1260" r="5"/><circle cx="2108" cy="1221" r="6"/><circle cx="2211" cy="1212" r="6"/><circle cx="2252" cy="1218" r="5"/><circle cx="2349" cy="1231" r="5"/><circle cx="2404" cy="1253" r="6"/><circle cx="2532" cy="1230" r="4"/><circle cx="66" cy="1291" r="4"/><circle cx="98" cy="1321" r="5"/><circle cx="192" cy="1286" r="5"/><circle cx="289" cy="1341" r="6"/><circle cx="321" cy="1333" r="5"/><circle cx="402" cy="1306" r="4"/><circle cx="524" cy="1293" r="5"/><circle cx="613" cy="1287" r="6"/><circle cx="640" cy="1337" r="4"/><circle cx="730" cy="1356" r="4"/><circle cx="821" cy="1358" r="5"/><circle cx="913" cy="1341" r="4"/><circle cx="1015" cy="1330" r="5"/><circle cx="1090" cy="1348" r="4"/><circle cx="1189" cy="1301" r="5"/><circle cx="1222" cy="1296" r="4"/><circle cx="1283" cy="1321" r="5"/><circle cx="1430" cy="1317" r="5"/><circle cx="1489" cy="1355" r="5"/><circle cx="1573" cy="1350" r="5"/><circle cx="1651" cy="1360" r="5"/><circle cx="1704" cy="1358" r="4"/><circle cx="1782" cy="1334" r="5"/><circle cx="1908" cy="1308" r="6"/><circle cx="1947" cy="1315" r="5"/><circle cx="2073" cy="1331" r="4"/><circle cx="2103" cy="1304" r="4"/><circle cx="2209" cy="1348" r="6"/><circle cx="2301" cy="1290" r="5"/><circle cx="2324" cy="1329" r="5"/><circle cx="2448" cy="1317" r="6"/><circle cx="2524" cy="1360" r="4"/><circle cx="28" cy="1420" r="4"/><circle cx="125" cy="1400" r="6"/><circle cx="165" cy="1428" r="6"/><circle cx="264" cy="1372" r="4"/><circle cx="372" cy="1413" r="4"/><circle cx="476" cy="1417" r="4"/><circle cx="508" cy="1391" r="5"/><circle cx="613" cy="1376" r="5"/><circle cx="714" cy="1414" r="6"/><circle cx="776" cy="1360" r="4"/><circle cx="878" cy="1386" r="4"/><circle cx="927" cy="1419" r="6"/><circle cx="1003" cy="1438" r="6"/><circle cx="1003" cy="-2" r="6"/><circle cx="1043" cy="1370" r="5"/><circle cx="1135" cy="1425" r="5"/><circle cx="1273" cy="1364" r="6"/><circle cx="1350" cy="1409" r="6"/><circle cx="1375" cy="1372" r="6"/><circle cx="1485" cy="1391" r="6"/><circle cx="1525" cy="1379" r="6"/><circle cx="1646" cy="1434" r="4"/><circle cx="1752" cy="1403" r="5"/><circle cx="1837" cy="1394" r="6"/><circle cx="1846" cy="1381" r="6"/><circle cx="1975" cy="1430" r="5"/><circle cx="2059" cy="1388" r="6"/><circle cx="2090" cy="1436" r="5"/><circle cx="2090" cy="-4" r="5"/><circle cx="2187" cy="1398" r="4"/><circle cx="2290" cy="1383" r="5"/><circle cx="2346" cy="1396" r="5"/><circle cx="2467" cy="1433" r="6"/><circle cx="2491" cy="1385" r="5"/><path stroke="#fff" d="M6 10L-66 16M6 10L28 -20M6 10L-93 -7M6 10L-69 -55M2566 10L2494 16M2566 10L2467 -7M2566 10L2491 -55M6 1450L28 1420M6 1450L-93 1433M6 1450L-69 1385M2566 1450L2467 1433M2566 1450L2491 1385M121 51L198 51M121 51L55 107M121 51L151 92M121 51L125 -40M121 51L165 -12M121 1491L125 1400M121 1491L165 1428M198 51L151 92M198 51L236 120M198 51L165 -12M198 1491L165 1428M292 10L343 35M292 10L319 104M292 10L289 -99M292 10L264 -68M292 10L372 -27M292 1450L289 1341M292 1450L264 1372M292 1450L372 1413M343 35L416 30M343 35L319 104M343 35L401 96M343 35L372 -27M343 1475L372 1413M416 30L376 116M416 30L401 96M416 30L372 -27M416 30L476 -23M416 1470L372 1413M416 1470L476 1417M544 63L599 38M544 63L497 108M544 63L610 82M544 63L476 -23M544 63L508 -49M544 1503L476 1417M544 1503L508 1391M599 38L610 82M599 38L613 -64M599 1478L613 1376M714 78L762 10M714 78L701 96M714 78L772 101M714 78L662 168M714 78L714 -26M714 1518L714 1414M762 10L701 96M762 10L772 101M762 10L714 -26M762 10L776 -80M762 1450L714 1414M762 1450L776 1360M867 57L920 50M867 57L831 109M867 57L881 91M920 50L1000 34M920 50L881 91M920 50L971 104M920 50L927 -21M920 1490L927 1419M1000 34L971 104M1000 34L927 -21M1000 34L1003 -2M1000 34L1043 -70M1000 1474L927 1419M1000 1474L1003 1438M1000 1474L1043 1370M1094 65L1149 53M1094 65L1103 94M1094 65L1123 94M1094 65L1135 -15M1094 1505L1135 1425M1149 53L1103 94M1149 53L1123 94M1149 53L1209 142M1149 53L1135 -15M1149 1493L1135 1425M1254 54L1301 14M1254 54L1209 142M1301 14L1407 15M1301 14L1273 -76M1301 14L1350 -31M1301 14L1375 -68M1301 1454L1273 1364M1301 1454L1350 1409M1301 1454L1375 1372M1407 15L1432 95M1407 15L1350 -31M1407 15L1375 -68M1407 1455L1350 1409M1407 1455L1375 1372M1516 45L1567 71M1516 45L1432 95M1516 45L1485 -49M1516 45L1525 -61M1516 1485L1485 1391M1516 1485L1525 1379M1567 71L1640 57M1567 71L1577 142M1567 71L1613 133M1567 71L1626 173M1640 57L1713 37M1640 57L1613 133M1640 57L1646 -6M1640 1497L1646 1434M1713 37L1803 13M1713 37L1646 -6M1713 37L1752 -37M1713 1477L1646 1434M1713 1477L1752 1403M1803 13L1870 16M1803 13L1752 -37M1803 13L1837 -46M1803 13L1846 -59M1803 1453L1752 1403M1803 1453L1837 1394M1803 1453L1846 1381M1870 16L1972 30M1870 16L1876 132M1870 16L1837 -46M1870 16L1846 -59M1870 1456L1837 1394M1870 1456L1846 1381M1972 30L2050 51M1972 30L1993 91M1972 30L1975 -10M1972 1470L1975 1430M2050 51L2101 63M2050 51L1993 91M2050 51L2057 86M2050 51L2090 -4M2050 1491L2090 1436M2101 63L2177 25M2101 63L2057 86M2101 63L2105 144M2101 63L2090 -4M2101 1503L2090 1436M2177 25L2090 -4M2177 25L2187 -42M2177 1465L2090 1436M2177 1465L2187 1398M2299 50L2359 25M2299 50L2222 118M2299 50L2303 111M2299 50L2349 117M2299 50L2346 -44M2299 1490L2346 1396M2359 25L2416 41M2359 25L2349 117M2359 25L2346 -44M2359 1465L2346 1396M2416 41L2494 16M2416 41L2450 96M2416 41L2497 93M2416 41L2467 -7M2416 1481L2467 1433M2494 16L2497 93M2494 16L2467 -7M2494 16L2491 -55M2494 1456L2467 1433M2494 1456L2491 1385M55 107L151 92M151 92L236 120M151 92L165 -12M151 1532L165 1428M236 120L319 104M236 120L267 234M319 104L376 116M319 104L401 96M376 116L401 96M376 116L378 218M401 96L497 108M497 108L610 82M497 108L479 172M610 82L701 96M701 96L772 101M701 96L662 168M772 101L831 109M772 101L752 209M831 109L881 91M831 109L869 231M881 91L971 104M971 104L989 184M971 104L1003 -2M971 1544L1003 1438M1103 94L1123 94M1103 94L1068 180M1123 94L1209 142M1123 94L1135 -15M1123 1534L1135 1425M1209 142L1159 205M1209 142L1276 217M1351 157L1432 95M1351 157L1276 217M1351 157L1315 239M1351 157L1386 220M1432 95L1482 158M1432 95L1481 195M1482 158L1577 142M1482 158L1481 195M1482 158L1440 254M1577 142L1613 133M1577 142L1574 222M1577 142L1626 173M1613 133L1574 222M1613 133L1626 173M1747 148L1823 125M1747 148L1740 183M1747 148L1771 163M1823 125L1876 132M1823 125L1740 183M1823 125L1771 163M1823 125L1864 230M1876 132L1771 163M1876 132L1864 230M1876 132L1937 176M1993 91L2057 86M1993 91L1937 176M1993 91L1975 -10M1993 1531L1975 1430M2057 86L2105 144M2057 86L2090 -4M2057 1526L2090 1436M2105 144L2037 205M2105 144L2139 183M2105 144L2161 197M2222 118L2303 111M2222 118L2139 183M2222 118L2161 197M2222 118L2289 178M2303 111L2349 117M2303 111L2289 178M2303 111L2382 160M2349 117L2289 178M2349 117L2382 160M2450 96L2497 93M2450 96L2382 160M2450 96L2459 162M2497 93L2459 162M71 230L93 221M71 230L164 231M71 230L-30 234M71 230L25 284M71 230L125 241M2631 230L2530 234M93 221L164 231M93 221L125 241M164 231L267 234M164 231L125 241M164 231L232 304M267 234L232 304M267 234L309 297M378 218L479 172M378 218L309 297M378 218L395 296M479 172L542 224M479 172L601 213M479 172L476 251M542 224L601 213M542 224L476 251M542 224L620 279M601 213L662 168M601 213L620 279M662 168L752 209M662 168L716 255M752 209L716 255M869 231L912 220M869 231L808 290M912 220L989 184M912 220L939 318M912 220L980 294M989 184L1068 180M1068 180L1159 205M1159 205L1178 300M1276 217L1315 239M1315 239L1386 220M1315 239L1345 289M1315 239L1304 338M1386 220L1345 289M1386 220L1405 316M1386 220L1440 254M1481 195L1574 222M1481 195L1440 254M1574 222L1626 173M1574 222L1549 303M1626 173L1740 183M1740 183L1771 163M1740 183L1740 277M1771 163L1740 277M1864 230L1937 176M1864 230L1776 289M1864 230L1868 269M1937 176L2037 205M1937 176L1868 269M2037 205L2139 183M2037 205L2058 272M2139 183L2161 197M2139 183L2149 241M2161 197L2149 241M2161 197L2184 282M2289 178L2382 160M2382 160L2459 162M2459 162L2530 234M2530 234L2585 284M2530 234L2538 279M-30 234L25 284M25 284L-22 279M25 284L7 370M25 284L85 332M2585 284L2538 279M125 241L232 304M125 241L85 332M232 304L309 297M232 304L167 379M309 297L395 296M309 297L332 386M395 296L476 251M395 296L332 386M395 296L470 325M476 251L534 314M476 251L470 325M534 314L470 325M534 314L555 348M534 314L602 360M620 279L716 255M620 279L555 348M620 279L602 360M716 255L727 312M716 255L808 290M727 312L808 290M727 312L692 363M727 312L757 368M727 312L739 410M808 290L757 368M808 290L835 361M939 318L980 294M939 318L930 349M939 318L984 389M939 318L939 404M980 294L1065 295M980 294L930 349M1065 295L1178 300M1065 295L1087 375M1178 300L1212 315M1178 300L1166 340M1212 315L1166 340M1212 315L1264 367M1212 315L1304 338M1345 289L1405 316M1345 289L1304 338M1345 289L1371 366M1405 316L1440 254M1405 316L1371 366M1405 316L1395 406M1440 254L1501 355M1549 303L1642 305M1549 303L1501 355M1549 303L1598 361M1549 303L1608 364M1642 305L1740 277M1642 305L1598 361M1642 305L1608 364M1740 277L1776 289M1776 289L1868 269M1868 269L1872 387M1975 314L2058 272M1975 314L1979 332M1975 314L2012 323M1975 314L1999 414M2058 272L2149 241M2058 272L1979 332M2058 272L2012 323M2149 241L2184 282M2149 241L2145 336M2184 282L2243 302M2184 282L2145 336M2184 282L2227 344M2243 302L2227 344M2243 302L2278 345M2367 295L2406 304M2367 295L2278 345M2367 295L2408 347M2406 304L2408 347M2538 279L2540 379M7 370L85 332M7 370L-20 379M7 370L51 432M2567 370L2540 379M85 332L167 379M167 379L156 468M167 379L181 432M167 379L254 429M309 389L332 386M309 389L254 429M309 389L359 403M309 389L278 510M332 386L254 429M332 386L359 403M470 325L555 348M555 348L602 360M555 348L574 409M602 360L692 363M602 360L574 409M692 363L757 368M692 363L739 410M757 368L835 361M757 368L739 410M835 361L739 410M835 361L872 401M930 349L984 389M930 349L872 401M930 349L939 404M984 389L939 404M984 389L966 454M984 389L1042 423M1087 375L1166 340M1087 375L1042 423M1087 375L1166 448M1166 340L1264 367M1166 340L1166 448M1264 367L1304 338M1264 367L1218 440M1264 367L1300 454M1304 338L1371 366M1371 366L1395 406M1501 355L1598 361M1501 355L1608 364M1598 361L1608 364M1598 361L1640 422M1608 364L1640 422M1731 399L1783 387M1731 399L1640 422M1731 399L1723 446M1731 399L1804 401M1731 399L1759 494M1783 387L1872 387M1783 387L1723 446M1783 387L1804 401M1872 387L1979 332M1872 387L1804 401M1872 387L1861 458M1979 332L2012 323M1979 332L1999 414M2012 323L1999 414M2145 336L2227 344M2145 336L2171 407M2227 344L2278 345M2227 344L2250 431M2278 345L2329 398M2278 345L2250 431M2329 398L2408 347M2329 398L2250 431M2329 398L2383 475M2329 398L2414 425M2408 347L2414 425M2540 379L2611 432M2540 379L2503 465M2540 379L2555 482M-20 379L51 432M51 432L87 507M51 432L-5 482M2611 432L2555 482M156 468L181 432M156 468L87 507M156 468L217 544M181 432L254 429M254 429L278 510M460 454L481 460M460 454L415 545M460 454L556 500M481 460L574 409M481 460L556 500M574 409L556 500M574 409L594 501M656 469L739 410M656 469L594 501M656 469L664 485M872 401L939 404M939 404L966 454M966 454L1042 423M966 454L977 511M1042 423L977 511M1042 423L1122 490M1166 448L1218 440M1166 448L1122 490M1166 448L1239 506M1218 440L1300 454M1218 440L1122 490M1218 440L1239 506M1300 454L1239 506M1300 454L1297 494M1300 454L1385 499M1395 406L1385 499M1395 406L1442 505M1502 478L1530 468M1502 478L1442 505M1502 478L1605 492M1530 468L1442 505M1530 468L1591 554M1530 468L1605 492M1640 422L1723 446M1640 422L1605 492M1723 446L1804 401M1723 446L1759 494M1804 401L1861 458M1861 458L1807 498M1861 458L1917 515M1999 414L2044 438M1999 414L1981 501M2044 438L2144 443M2044 438L1981 501M2044 438L2073 487M2044 438L2087 539M2144 443L2171 407M2144 443L2073 487M2171 407L2250 431M2171 407L2255 484M2250 431L2255 484M2383 475L2414 425M2383 475L2375 556M2383 475L2420 527M2414 425L2503 465M2414 425L2420 527M2503 465L2420 527M2503 465L2555 482M50 542L87 507M50 542L-5 482M50 542L61 571M50 542L151 586M50 542L-47 584M2610 542L2555 482M2610 542L2513 584M87 507L-5 482M87 507L61 571M2647 507L2555 482M217 544L278 510M217 544L151 586M217 544L207 574M217 544L251 640M278 510L354 532M278 510L207 574M354 532L415 545M354 532L387 613M354 532L447 568M415 545L387 613M415 545L447 568M415 545L398 645M556 500L594 501M556 500L538 583M594 501L664 485M594 501L635 595M763 552L859 541M763 552L700 594M763 552L755 614M763 552L816 590M859 541L944 558M859 541L816 590M859 541L885 570M944 558L977 511M944 558L885 570M944 558L985 574M944 558L960 663M977 511L885 570M977 511L985 574M1090 545L1122 490M1090 545L1077 608M1090 545L1161 573M1122 490L1161 573M1239 506L1297 494M1239 506L1206 585M1297 494L1385 499M1297 494L1350 579M1385 499L1442 505M1385 499L1350 579M1442 505L1381 597M1591 554L1605 492M1591 554L1486 618M1591 554L1589 631M1591 554L1638 639M1759 494L1807 498M1759 494L1729 560M1759 494L1787 574M1807 498L1729 560M1807 498L1787 574M1917 515L1981 501M1917 515L1844 596M1917 515L1939 611M1917 515L2003 560M1981 501L2073 487M1981 501L2003 560M2073 487L2087 539M2087 539L2003 560M2087 539L2125 603M2087 539L2094 642M2199 541L2255 484M2199 541L2125 603M2199 541L2220 637M2199 541L2257 562M2199 541L2178 641M2255 484L2257 562M2375 556L2420 527M2375 556L2257 562M2375 556L2344 640M2375 556L2441 603M2420 527L2441 603M61 571L151 586M61 571L-47 584M61 571L157 642M2621 571L2513 584M151 586L207 574M151 586L157 642M207 574L251 640M207 574L157 642M251 640L157 642M251 640L188 684M251 640L283 718M387 613L447 568M387 613L398 645M387 613L425 709M447 568L538 583M447 568L398 645M538 583L635 595M538 583L536 646M538 583L564 675M635 595L700 594M635 595L564 675M700 594L755 614M700 594L719 691M755 614L816 590M755 614L719 691M755 614L779 677M816 590L885 570M816 590L779 677M885 570L985 574M985 574L1029 649M1077 608L1161 573M1077 608L1029 649M1077 608L1107 665M1077 608L1160 643M1161 573L1206 585M1161 573L1160 643M1206 585L1160 643M1350 579L1381 597M1381 597L1486 618M1381 597L1419 666M1486 618L1589 631M1486 618L1419 666M1486 618L1477 709M1589 631L1638 639M1589 631L1599 678M1589 631L1657 663M1638 639L1599 678M1638 639L1657 663M1638 639L1691 665M1729 560L1787 574M1729 560L1691 665M1787 574L1844 596M1787 574L1780 680M1844 596L1939 611M1844 596L1780 680M1844 596L1853 716M1939 611L2003 560M1939 611L1980 646M1939 611L1950 728M2003 560L1980 646M2125 603L2094 642M2125 603L2178 641M2220 637L2257 562M2220 637L2178 641M2220 637L2264 685M2220 637L2232 735M2344 640L2441 603M2344 640L2264 685M2344 640L2377 714M2344 640L2324 731M2441 603L2513 584M2513 584L2522 683M29 713L-38 683M29 713L68 786M29 713L98 788M29 713L-59 741M29 713L12 819M2589 713L2522 683M2589 713L2501 741M157 642L188 684M188 684L283 718M188 684L189 760M188 684L256 729M283 718L189 760M283 718L256 729M283 718L323 722M398 645L425 709M398 645L323 722M425 709L323 722M425 709L441 787M425 709L509 759M536 646L564 675M564 675L509 759M564 675L589 789M719 691L779 677M719 691L685 770M719 691L726 785M779 677L873 703M779 677L861 730M873 703L960 663M873 703L861 730M873 703L948 726M960 663L1029 649M960 663L948 726M960 663L1040 728M1029 649L1107 665M1029 649L1040 728M1107 665L1160 643M1107 665L1040 728M1107 665L1164 766M1160 643L1211 719M1211 719L1332 708M1211 719L1164 766M1211 719L1216 742M1211 719L1338 752M1332 708L1419 666M1332 708L1338 752M1332 708L1340 808M1419 666L1477 709M1419 666L1499 749M1477 709L1499 749M1477 709L1521 742M1599 678L1657 663M1599 678L1521 742M1599 678L1644 746M1657 663L1691 665M1657 663L1644 746M1691 665L1780 680M1691 665L1644 746M1780 680L1853 716M1853 716L1835 800M1853 716L1851 774M1853 716L1950 728M1980 646L2053 691M1980 646L1950 728M2053 691L2094 642M2053 691L1950 728M2053 691L2080 739M2053 691L2090 729M2094 642L2178 641M2094 642L2090 729M2178 641L2264 685M2264 685L2232 735M2264 685L2324 731M2377 714L2440 717M2377 714L2324 731M2377 714L2461 730M2377 714L2386 839M2440 717L2522 683M2440 717L2461 730M2440 717L2501 741M2440 717L2445 806M2522 683L2461 730M2522 683L2501 741M68 786L98 788M68 786L12 819M68 786L150 870M68 786L-18 861M2628 786L2542 861M98 788L189 760M98 788L12 819M98 788L150 870M189 760L256 729M189 760L231 826M256 729L323 722M323 722L354 828M441 787L509 759M441 787L354 828M441 787L449 867M441 787L498 869M509 759L589 789M589 789L685 770M589 789L607 868M589 789L691 815M685 770L726 785M685 770L691 815M726 785L691 815M726 785L761 846M861 730L948 726M948 726L1025 786M948 726L1040 728M1025 786L1040 728M1025 786L971 833M1025 786L1067 875M1164 766L1216 742M1164 766L1230 855M1216 742L1338 752M1338 752L1403 789M1338 752L1340 808M1403 789L1499 749M1403 789L1340 808M1403 789L1410 855M1403 789L1476 838M1499 749L1521 742M1499 749L1476 838M1521 742L1476 838M1644 746L1733 784M1644 746L1646 821M1733 784L1835 800M1733 784L1714 857M1733 784L1783 815M1835 800L1851 774M1835 800L1783 815M1835 800L1880 867M1851 774L1950 728M1851 774L1783 815M1851 774L1880 867M2080 739L2090 729M2080 739L2107 830M2090 729L2107 830M2232 735L2248 795M2232 735L2324 731M2232 735L2206 836M2248 795L2324 731M2248 795L2206 836M2248 795L2272 844M2248 795L2313 887M2461 730L2501 741M2461 730L2445 806M2501 741L2445 806M12 819L-18 861M2572 819L2542 861M150 870L231 826M150 870L132 954M150 870L217 906M231 826L301 855M231 826L217 906M231 826L244 925M301 855L354 828M301 855L217 906M301 855L244 925M301 855L346 893M354 828L449 867M354 828L346 893M449 867L498 869M449 867L346 893M449 867L424 953M498 869L607 868M498 869L548 916M498 869L579 929M607 868L691 815M607 868L548 916M607 868L579 929M691 815L761 846M761 846L838 867M761 846L810 915M838 867L934 867M838 867L784 957M838 867L810 915M838 867L883 907M934 867L971 833M934 867L883 907M934 867L1019 891M934 867L906 961M971 833L1067 875M971 833L1019 891M971 833L1044 899M1067 875L1019 891M1067 875L1044 899M1067 875L1172 885M1174 875L1230 855M1174 875L1172 885M1174 875L1254 909M1230 855L1172 885M1230 855L1254 909M1230 855L1323 902M1340 808L1410 855M1340 808L1323 902M1410 855L1476 838M1410 855L1412 923M1410 855L1481 897M1476 838L1481 897M1586 869L1646 821M1586 869L1582 885M1586 869L1530 964M1646 821L1714 857M1646 821L1582 885M1714 857L1783 815M1714 857L1661 904M1714 857L1736 947M1783 815L1808 907M1880 867L1808 907M1880 867L1890 896M1880 867L1950 892M1975 863L2019 864M1975 863L1890 896M1975 863L1950 892M2019 864L2107 830M2019 864L1950 892M2019 864L2080 918M2019 864L2077 964M2107 830L2080 918M2107 830L2143 910M2206 836L2272 844M2272 844L2386 839M2272 844L2313 887M2272 844L2355 888M2386 839L2445 806M2386 839L2313 887M2386 839L2355 888M2445 806L2542 861M2542 861L2478 948M2542 861L2509 937M57 950L132 954M57 950L9 983M57 950L127 997M132 954L217 906M132 954L127 997M132 954L173 1029M217 906L244 925M244 925L294 1014M244 925L321 976M346 893L424 953M346 893L321 976M424 953L321 976M424 953L458 1020M548 916L579 929M548 916L508 1009M548 916L564 1004M579 929L508 1009M579 929L564 1004M691 939L784 957M691 939L670 1010M691 939L668 1047M784 957L810 915M784 957L799 965M784 957L809 1003M810 915L883 907M810 915L799 965M883 907L799 965M883 907L906 961M1019 891L1044 899M1019 891L1040 994M1044 899L1038 1005M1044 899L1040 994M1172 885L1254 909M1172 885L1161 989M1254 909L1323 902M1254 909L1237 985M1323 902L1412 923M1323 902L1237 985M1412 923L1481 897M1412 923L1454 980M1481 897L1454 980M1481 897L1530 964M1582 885L1661 904M1582 885L1530 964M1661 904L1736 947M1661 904L1666 983M1661 904L1706 964M1736 947L1808 907M1736 947L1666 983M1736 947L1706 964M1808 907L1890 896M1808 907L1832 1007M1890 896L1950 892M1890 896L1878 1008M2080 918L2143 910M2080 918L2077 964M2080 918L2157 976M2143 910L2194 959M2143 910L2077 964M2143 910L2157 976M2194 959L2157 976M2194 959L2239 991M2194 959L2272 1021M2313 887L2355 888M2313 887L2329 964M2355 888L2329 964M2478 948L2509 937M2478 948L2569 983M2478 948L2443 1031M2478 948L2508 1015M-82 948L9 983M2509 937L2569 983M2509 937L2508 1015M-51 937L9 983M9 983L-52 1015M2569 983L2508 1015M127 997L173 1029M127 997L74 1060M173 1029L125 1085M173 1029L196 1099M173 1029L161 1140M294 1014L321 976M294 1014L281 1094M458 1020L508 1009M458 1020L443 1102M458 1020L515 1058M508 1009L564 1004M508 1009L515 1058M564 1004L515 1058M564 1004L611 1062M670 1010L611 1062M670 1010L668 1047M799 965L809 1003M799 965L906 961M809 1003L906 961M809 1003L791 1085M809 1003L806 1091M1038 1005L1040 994M1038 1005L958 1053M1038 1005L969 1046M1038 1005L1117 1087M1040 994L958 1053M1040 994L969 1046M1161 989L1237 985M1161 989L1117 1087M1161 989L1181 1092M1237 985L1345 1017M1237 985L1233 1086M1345 1017L1402 1036M1345 1017L1359 1065M1345 1017L1375 1106M1402 1036L1454 980M1402 1036L1359 1065M1402 1036L1375 1106M1402 1036L1444 1099M1454 980L1530 964M1530 964L1568 1076M1666 983L1706 964M1666 983L1568 1076M1666 983L1705 1059M1706 964L1705 1059M1832 1007L1878 1008M1832 1007L1777 1094M1878 1008L1941 1021M1878 1008L1925 1088M1941 1021L1925 1088M2077 964L2157 976M2077 964L2113 1047M2157 976L2239 991M2239 991L2272 1021M2239 991L2329 964M2272 1021L2329 964M2272 1021L2212 1095M2272 1021L2272 1110M2443 1031L2508 1015M2443 1031L2407 1062M2443 1031L2533 1106M2508 1015L2533 1106M74 1060L125 1085M74 1060L34 1130M74 1060L82 1127M125 1085L196 1099M125 1085L82 1127M125 1085L161 1140M196 1099L281 1094M196 1099L161 1140M281 1094L388 1117M281 1094L308 1144M388 1117L443 1102M388 1117L308 1144M388 1117L398 1170M388 1117L429 1160M443 1102L515 1058M443 1102L429 1160M443 1102L503 1153M515 1058L611 1062M611 1062L668 1047M668 1047L791 1085M791 1085L806 1091M791 1085L725 1154M791 1085L869 1126M806 1091L725 1154M806 1091L869 1126M958 1053L969 1046M958 1053L928 1136M958 1053L1003 1127M969 1046L928 1136M969 1046L1003 1127M1117 1087L1181 1092M1117 1087L1048 1165M1117 1087L1184 1143M1181 1092L1233 1086M1181 1092L1184 1143M1233 1086L1184 1143M1233 1086L1266 1183M1233 1086L1281 1158M1359 1065L1375 1106M1359 1065L1444 1099M1359 1065L1392 1153M1375 1106L1444 1099M1375 1106L1392 1153M1444 1099L1392 1153M1568 1076L1604 1109M1568 1076L1537 1150M1568 1076L1613 1144M1604 1109L1537 1150M1604 1109L1613 1144M1604 1109L1588 1207M1705 1059L1777 1094M1705 1059L1748 1154M1777 1094L1840 1112M1777 1094L1748 1154M1777 1094L1814 1168M1840 1112L1925 1088M1840 1112L1748 1154M1840 1112L1814 1168M1840 1112L1887 1189M1925 1088L2033 1098M1925 1088L1887 1189M2033 1098L2113 1047M2033 1098L1987 1180M2033 1098L2016 1151M2033 1098L2090 1128M2113 1047L2090 1128M2212 1095L2272 1110M2212 1095L2237 1184M2212 1095L2211 1212M2272 1110L2354 1105M2272 1110L2317 1171M2272 1110L2326 1133M2354 1105L2407 1062M2354 1105L2317 1171M2354 1105L2326 1133M2354 1105L2428 1179M2407 1062L2326 1133M2407 1062L2428 1179M2533 1106L2594 1130M2533 1106L2532 1165M-27 1106L34 1130M34 1130L82 1127M34 1130L-28 1165M34 1130L64 1222M2594 1130L2532 1165M82 1127L161 1140M82 1127L64 1222M161 1140L217 1214M308 1144L398 1170M308 1144L217 1214M308 1144L375 1219M398 1170L429 1160M398 1170L375 1219M398 1170L438 1236M429 1160L503 1153M429 1160L438 1236M503 1153L601 1181M503 1153L500 1256M601 1181L654 1182M601 1181L609 1245M601 1181L698 1216M601 1181L613 1287M654 1182L725 1154M654 1182L609 1245M654 1182L698 1216M725 1154L698 1216M725 1154L766 1208M869 1126L928 1136M869 1126L1003 1127M869 1126L899 1246M928 1136L1003 1127M928 1136L899 1246M1003 1127L1048 1165M1048 1165L992 1252M1048 1165L1107 1254M1184 1143L1266 1183M1184 1143L1167 1208M1266 1183L1281 1158M1266 1183L1167 1208M1392 1153L1385 1261M1392 1153L1469 1228M1497 1199L1537 1150M1497 1199L1469 1228M1497 1199L1588 1207M1497 1199L1621 1234M1537 1150L1613 1144M1537 1150L1588 1207M1613 1144L1588 1207M1613 1144L1621 1234M1748 1154L1814 1168M1748 1154L1692 1276M1814 1168L1887 1189M1814 1168L1822 1274M1887 1189L1987 1180M1887 1189L1920 1257M1987 1180L2016 1151M1987 1180L1970 1278M1987 1180L2051 1260M2016 1151L2090 1128M2016 1151L2108 1221M2090 1128L2108 1221M2237 1184L2211 1212M2237 1184L2252 1218M2317 1171L2326 1133M2317 1171L2252 1218M2317 1171L2349 1231M2428 1179L2532 1165M2428 1179L2349 1231M2428 1179L2404 1253M2532 1165L2532 1230M64 1222L159 1266M64 1222L-28 1230M64 1222L66 1291M2624 1222L2532 1230M159 1266L217 1214M159 1266L66 1291M159 1266L98 1321M159 1266L192 1286M217 1214L295 1261M217 1214L192 1286M295 1261L375 1219M295 1261L192 1286M295 1261L289 1341M295 1261L321 1333M375 1219L438 1236M375 1219L402 1306M438 1236L500 1256M438 1236L402 1306M500 1256L524 1293M609 1245L698 1216M609 1245L524 1293M609 1245L613 1287M698 1216L766 1208M873 1251L899 1246M899 1246L992 1252M899 1246L913 1341M992 1252L1015 1330M1107 1254L1167 1208M1107 1254L1207 1276M1107 1254L1090 1348M1107 1254L1189 1301M1167 1208L1207 1276M1207 1276L1189 1301M1207 1276L1222 1296M1207 1276L1283 1321M1341 1273L1385 1261M1341 1273L1283 1321M1385 1261L1469 1228M1385 1261L1430 1317M1469 1228L1430 1317M1588 1207L1621 1234M1621 1234L1692 1276M1621 1234L1573 1350M1692 1276L1651 1360M1692 1276L1704 1358M1822 1274L1920 1257M1822 1274L1782 1334M1822 1274L1908 1308M1920 1257L1970 1278M1920 1257L1908 1308M1920 1257L1947 1315M1970 1278L2051 1260M1970 1278L1908 1308M1970 1278L1947 1315M2051 1260L2108 1221M2051 1260L2073 1331M2051 1260L2103 1304M2108 1221L2211 1212M2108 1221L2103 1304M2211 1212L2252 1218M2252 1218L2301 1290M2349 1231L2404 1253M2349 1231L2301 1290M2349 1231L2324 1329M2404 1253L2301 1290M2404 1253L2324 1329M2404 1253L2448 1317M2532 1230L2626 1291M-28 1230L66 1291M66 1291L98 1321M66 1291L125 1400M98 1321L192 1286M98 1321L125 1400M192 1286L289 1341M289 1341L321 1333M289 1341L264 1372M321 1333L402 1306M321 1333L264 1372M321 1333L372 1413M524 1293L613 1287M524 1293L508 1391M613 1287L640 1337M613 1287L613 1376M640 1337L730 1356M640 1337L613 1376M730 1356L821 1358M730 1356L714 1414M730 1356L776 1360M821 1358L913 1341M821 1358L776 1360M821 1358L878 1386M913 1341L1015 1330M913 1341L878 1386M913 1341L927 1419M1015 1330L1090 1348M1015 1330L1003 1438M1015 1330L1043 1370M1090 1348L1043 1370M1090 1348L1135 1425M1189 1301L1222 1296M1189 1301L1283 1321M1222 1296L1283 1321M1222 1296L1273 1364M1283 1321L1273 1364M1430 1317L1489 1355M1430 1317L1375 1372M1430 1317L1485 1391M1489 1355L1573 1350M1489 1355L1485 1391M1489 1355L1525 1379M1573 1350L1651 1360M1573 1350L1485 1391M1573 1350L1525 1379M1651 1360L1704 1358M1651 1360L1646 1434M1704 1358L1782 1334M1704 1358L1646 1434M1704 1358L1752 1403M1782 1334L1752 1403M1782 1334L1837 1394M1782 1334L1846 1381M1908 1308L1947 1315M1908 1308L1846 1381M1947 1315L1975 1430M2073 1331L2103 1304M2073 1331L2059 1388M2103 1304L2209 1348M2103 1304L2059 1388M2209 1348L2187 1398M2209 1348L2290 1383M2301 1290L2324 1329M2301 1290L2290 1383M2324 1329L2290 1383M2324 1329L2346 1396M2448 1317L2524 1360M2448 1317L2491 1385M2524 1360L2588 1420M2524 1360L2467 1433M2524 1360L2491 1385M-36 1360L28 1420M28 1420L125 1400M125 1400L165 1428M165 1428L264 1372M372 1413L476 1417M476 1417L508 1391M508 1391L613 1376M613 1376L714 1414M714 1414L776 1360M776 1360L878 1386M878 1386L927 1419M927 1419L1003 1438M1003 1438L1043 1370M1043 1370L1135 1425M1273 1364L1350 1409M1273 1364L1375 1372M1350 1409L1375 1372M1485 1391L1525 1379M1752 1403L1837 1394M1837 1394L1846 1381M1975 1430L2059 1388M2059 1388L2090 1436M2059 1388L2187 1398M2187 1398L2290 1383M2290 1383L2346 1396M2467 1433L2491 1385"/></svg>