<svg xmlns="http://www.w3.org/2000/svg" width="2560" height="1440" fill="#fff"><circle cx="72" cy="48" r="5"/><circle cx="143" cy="61" r="4"/><circle cx="233" cy="73" r="4"/><circle cx="285" cy="18" r="5"/><circle cx="353" cy="62" r="5"/><circle cx="407" cy="28" r="4"/><circle cx="483" cy="15" r="4"/><circle cx="604" cy="68" r="4"/><circle cx="680" cy="27" r="5"/><circle cx="790" cy="79" r="5"/><circle cx="857" cy="67" r="5"/><circle cx="955" cy="72" r="4"/><circle cx="994" cy="67" r="4"/><circle cx="1057" cy="6" r="6"/><circle cx="1167" cy="29" r="5"/><circle cx="1215" cy="49" r="4"/><circle cx="1337" cy="10" r="5"/><circle cx="1378" cy="75" r="5"/><circle cx="1482" cy="68" r="5"/><circle cx="1542" cy="61" r="6"/><circle cx="1663" cy="47" r="5"/><circle cx="1711" cy="71" r="5"/><circle cx="1831" cy="61" r="5"/><circle cx="1920" cy="59" r="6"/><circle cx="1982" cy="55" r="6"/><circle cx="2005" cy="71" r="5"/><circle cx="2119" cy="64" r="5"/><circle cx="2190" cy="53" r="5"/><circle cx="2251" cy="5" r="4"/><circle cx="2349" cy="59" r="6"/><circle cx="2423" cy="62" r="4"/><circle cx="2511" cy="52" r="4"/><circle cx="77" cy="155" r="5"/><circle cx="88" cy="152" r="5"/><circle cx="231" cy="108" r="4"/><circle cx="304" cy="156" r="4"/><circle cx="356" cy="134" r="4"/><circle cx="403" cy="81" r="4"/><circle cx="532" cy="131" r="5"/><circle cx="617" cy="120" r="6"/><circle cx="654" cy="136" r="5"/><circle cx="759" cy="119" r="6"/><circle cx="805" cy="117" r="6"/><circle cx="959" cy="93" r="6"/><circle cx="979" cy="114" r="6"/><circle cx="1100" cy="98" r="5"/><circle cx="1180" cy="157" r="4"/><circle cx="1228" cy="111" r="4"/><circle cx="1341" cy="110" r="5"/><circle cx="1417" cy="139" r="4"/><circle cx="1479" cy="86" r="5"/><circle cx="1540" cy="142" r="5"/><circle cx="1625" cy="123" r="5"/><circle cx="1740" cy="122" r="6"/><circle cx="1827" cy="134" r="4"/><circle cx="1869" cy="131" r="5"/><circle cx="1932" cy="140" r="4"/><circle cx="2017" cy="155" r="6"/><circle cx="2093" cy="102" r="4"/><circle cx="2213" cy="120" r="5"/><circle cx="2265" cy="155" r="6"/><circle cx="2369" cy="132" r="5"/><circle cx="2426" cy="118" r="6"/><circle cx="2499" cy="93" r="5"/><circle cx="56" cy="167" r="5"/><circle cx="97" cy="168" r="6"/><circle cx="169" cy="173" r="6"/><circle cx="267" cy="198" r="6"/><circle cx="356" cy="190" r="4"/><circle cx="450" cy="188" r="6"/><circle cx="481" cy="169" r="4"/><circle cx="564" cy="171" r="6"/><circle cx="693" cy="209" r="6"/><circle cx="726" cy="216" r="4"/><circle cx="848" cy="168" r="5"/><circle cx="884" cy="237" r="5"/><circle cx="1007" cy="179" r="5"/><circle cx="1069" cy="220" r="4"/><circle cx="1149" cy="204" r="5"/><circle cx="1280" cy="201" r="5"/><circle cx="1334" cy="190" r="4"/><circle cx="1438" cy="193" r="5"/><circle cx="1468" cy="201" r="5"/><circle cx="1529" cy="197" r="6"/><circle cx="1666" cy="161" r="4"/><circle cx="1704" cy="169" r="4"/><circle cx="1795" cy="207" r="6"/><circle cx="1853" cy="200" r="5"/><circle cx="1996" cy="188" r="5"/><circle cx="2054" cy="200" r="4"/><circle cx="2130" cy="197" r="5"/><circle cx="2180" cy="170" r="4"/><circle cx="2279" cy="231" r="4"/><circle cx="2378" cy="200" r="6"/><circle cx="2451" cy="223" r="6"/><circle cx="2481" cy="221" r="5"/><circle cx="38" cy="311" r="5"/><circle cx="95" cy="258" r="5"/><circle cx="181" cy="263" r="5"/><circle cx="276" cy="276" r="6"/><circle cx="336" cy="283" r="5"/><circle cx="459" cy="313" r="5"/><circle cx="488" cy="266" r="5"/><circle cx="628" cy="285" r="5"/><circle cx="705" cy="284" r="5"/><circle cx="730" cy="244" r="6"/><circle cx="837" cy="294" r="6"/><circle cx="923" cy="284" r="5"/><circle cx="976" cy="251" r="5"/><circle cx="1040" cy="273" r="6"/><circle cx="1147" cy="266" r="5"/><circle cx="1218" cy="271" r="4"/><circle cx="1358" cy="271" r="6"/><circle cx="1387" cy="291" r="6"/><circle cx="1518" cy="283" r="6"/><circle cx="1595" cy="290" r="4"/><circle cx="1616" cy="281" r="5"/><circle cx="1682" cy="296" r="6"/><circle cx="1791" cy="291" r="4"/><circle cx="1877" cy="253" r="4"/><circle cx="1922" cy="252" r="6"/><circle cx="2037" cy="318" r="4"/><circle cx="2126" cy="276" r="4"/><circle cx="2240" cy="285" r="4"/><circle cx="2294" cy="242" r="5"/><circle cx="2322" cy="253" r="5"/><circle cx="2461" cy="287" r="4"/><circle cx="2534" cy="289" r="5"/><circle cx="15" cy="383" r="4"/><circle cx="109" cy="384" r="6"/><circle cx="183" cy="378" r="5"/><circle cx="273" cy="321" r="5"/><circle cx="390" cy="356" r="6"/><circle cx="447" cy="364" r="6"/><circle cx="494" cy="329" r="4"/><circle cx="611" cy="334" r="5"/><circle cx="708" cy="327" r="5"/><circle cx="778" cy="389" r="6"/><circle cx="824" cy="379" r="6"/><circle cx="940" cy="399" r="5"/><circle cx="995" cy="357" r="4"/><circle cx="1071" cy="385" r="6"/><circle cx="1126" cy="386" r="5"/><circle cx="1248" cy="385" r="4"/><circle cx="1340" cy="398" r="5"/><circle cx="1384" cy="360" r="6"/><circle cx="1495" cy="378" r="4"/><circle cx="1530" cy="384" r="4"/><circle cx="1611" cy="382" r="5"/><circle cx="1689" cy="359" r="5"/><circle cx="1837" cy="322" r="5"/><circle cx="1908" cy="360" r="6"/><circle cx="1979" cy="334" r="4"/><circle cx="2013" cy="384" r="5"/><circle cx="2113" cy="337" r="4"/><circle cx="2223" cy="335" r="5"/><circle cx="2274" cy="332" r="4"/><circle cx="2390" cy="322" r="5"/><circle cx="2444" cy="361" r="6"/><circle cx="2492" cy="391" r="4"/><circle cx="28" cy="461" r="5"/><circle cx="125" cy="437" r="6"/><circle cx="161" cy="459" r="5"/><circle cx="268" cy="412" r="5"/><circle cx="383" cy="456" r="5"/><circle cx="480" cy="422" r="6"/><circle cx="531" cy="443" r="6"/><circle cx="571" cy="442" r="4"/><circle cx="703" cy="432" r="6"/><circle cx="779" cy="430" r="5"/><circle cx="803" cy="460" r="5"/><circle cx="912" cy="456" r="6"/><circle cx="1009" cy="473" r="6"/><circle cx="1118" cy="440" r="6"/><circle cx="1121" cy="467" r="5"/><circle cx="1229" cy="462" r="5"/><circle cx="1359" cy="449" r="6"/><circle cx="1395" cy="459" r="4"/><circle cx="1493" cy="400" r="4"/><circle cx="1546" cy="429" r="4"/><circle cx="1612" cy="443" r="5"/><circle cx="1701" cy="412" r="5"/><circle cx="1820" cy="424" r="6"/><circle cx="1889" cy="430" r="5"/><circle cx="1983" cy="446" r="5"/><circle cx="2062" cy="412" r="5"/><circle cx="2119" cy="467" r="5"/><circle cx="2202" cy="407" r="6"/><circle cx="2317" cy="416" r="5"/><circle cx="2377" cy="440" r="5"/><circle cx="2457" cy="434" r="4"/><circle cx="2519" cy="417" r="6"/><circle cx="57" cy="494" r="5"/><circle cx="84" cy="553" r="6"/><circle cx="217" cy="500" r="6"/><circle cx="251" cy="513" r="6"/><circle cx="336" cy="499" r="5"/><circle cx="462" cy="532" r="4"/><circle cx="514" cy="548" r="6"/><circle cx="605" cy="550" r="6"/><circle cx="711" cy="490" r="5"/><circle cx="784" cy="543" r="5"/><circle cx="818" cy="560" r="5"/><circle cx="915" cy="559" r="4"/><circle cx="1028" cy="524" r="6"/><circle cx="1092" cy="536" r="4"/><circle cx="1142" cy="552" r="5"/><circle cx="1240" cy="526" r="4"/><circle cx="1329" cy="511" r="5"/><circle cx="1375" cy="545" r="5"/><circle cx="1510" cy="540" r="5"/><circle cx="1558" cy="510" r="6"/><circle cx="1643" cy="556" r="5"/><circle cx="1739" cy="495" r="4"/><circle cx="1790" cy="525" r="5"/><circle cx="1912" cy="539" r="4"/><circle cx="1939" cy="522" r="4"/><circle cx="2072" cy="559" r="5"/><circle cx="2084" cy="486" r="6"/><circle cx="2162" cy="506" r="5"/><circle cx="2285" cy="527" r="6"/><circle cx="2396" cy="537" r="4"/><circle cx="2454" cy="551" r="5"/><circle cx="2490" cy="547" r="5"/><circle cx="72" cy="579" r="5"/><circle cx="81" cy="610" r="6"/><circle cx="200" cy="566" r="6"/><circle cx="269" cy="592" r="4"/><circle cx="330" cy="578" r="5"/><circle cx="480" cy="633" r="5"/><circle cx="548" cy="563" r="5"/><circle cx="604" cy="586" r="4"/><circle cx="647" cy="592" r="5"/><circle cx="778" cy="601" r="5"/><circle cx="813" cy="639" r="6"/><circle cx="903" cy="612" r="4"/><circle cx="984" cy="635" r="6"/><circle cx="1090" cy="618" r="4"/><circle cx="1169" cy="628" r="4"/><circle cx="1268" cy="575" r="4"/><circle cx="1342" cy="596" r="6"/><circle cx="1374" cy="604" r="5"/><circle cx="1488" cy="626" r="4"/><circle cx="1595" cy="621" r="4"/><circle cx="1609" cy="623" r="5"/><circle cx="1725" cy="595" r="5"/><circle cx="1761" cy="580" r="5"/><circle cx="1866" cy="628" r="6"/><circle cx="1931" cy="581" r="5"/><circle cx="2043" cy="591" r="5"/><circle cx="2124" cy="629" r="5"/><circle cx="2238" cy="620" r="5"/><circle cx="2255" cy="622" r="5"/><circle cx="2332" cy="623" r="5"/><circle cx="2469" cy="595" r="4"/><circle cx="2545" cy="599" r="4"/><circle cx="23" cy="681" r="6"/><circle cx="100" cy="650" r="5"/><circle cx="190" cy="666" r="4"/><circle cx="304" cy="715" r="4"/><circle cx="348" cy="663" r="4"/><circle cx="424" cy="715" r="4"/><circle cx="538" cy="661" r="5"/><circle cx="629" cy="719" r="5"/><circle cx="697" cy="709" r="5"/><circle cx="740" cy="678" r="6"/><circle cx="834" cy="668" r="4"/><circle cx="912" cy="659" r="4"/><circle cx="1037" cy="685" r="6"/><circle cx="1082" cy="712" r="5"/><circle cx="1171" cy="711" r="6"/><circle cx="1277" cy="662" r="6"/><circle cx="1301" cy="688" r="4"/><circle cx="1395" cy="647" r="5"/><circle cx="1485" cy="717" r="4"/><circle cx="1561" cy="653" r="5"/><circle cx="1625" cy="644" r="6"/><circle cx="1727" cy="664" r="5"/><circle cx="1805" cy="671" r="4"/><circle cx="1840" cy="684" r="5"/><circle cx="1933" cy="678" r="5"/><circle cx="2070" cy="645" r="4"/><circle cx="2149" cy="672" r="4"/><circle cx="2223" cy="686" r="5"/><circle cx="2296" cy="709" r="6"/><circle cx="2395" cy="642" r="4"/><circle cx="2424" cy="660" r="5"/><circle cx="2558" cy="702" r="6"/><circle cx="-2" cy="702" r="6"/><circle cx="77" cy="737" r="4"/><circle cx="128" cy="753" r="4"/><circle cx="208" cy="741" r="4"/><circle cx="314" cy="742" r="4"/><circle cx="375" cy="782" r="5"/><circle cx="419" cy="721" r="5"/><circle cx="516" cy="743" r="5"/><circle cx="612" cy="772" r="5"/><circle cx="675" cy="730" r="5"/><circle cx="765" cy="725" r="5"/><circle cx="844" cy="737" r="6"/><circle cx="910" cy="771" r="5"/><circle cx="1033" cy="759" r="5"/><circle cx="1092" cy="785" r="4"/><circle cx="1143" cy="755" r="6"/><circle cx="1203" cy="732" r="4"/><circle cx="1323" cy="752" r="4"/><circle cx="1434" cy="760" r="6"/><circle cx="1494" cy="794" r="5"/><circle cx="1582" cy="782" r="6"/><circle cx="1639" cy="734" r="6"/><circle cx="1686" cy="767" r="6"/><circle cx="1798" cy="793" r="5"/><circle cx="1890" cy="737" r="5"/><circle cx="1940" cy="735" r="5"/><circle cx="2031" cy="750" r="6"/><circle cx="2102" cy="747" r="4"/><circle cx="2233" cy="729" r="4"/><circle cx="2294" cy="745" r="5"/><circle cx="2360" cy="729" r="5"/><circle cx="2452" cy="746" r="5"/><circle cx="2518" cy="728" r="6"/><circle cx="61" cy="824" r="5"/><circle cx="96" cy="879" r="6"/><circle cx="209" cy="827" r="5"/><circle cx="287" cy="838" r="6"/><circle cx="370" cy="807" r="5"/><circle cx="432" cy="811" r="5"/><circle cx="534" cy="861" r="5"/><circle cx="563" cy="862" r="4"/><circle cx="679" cy="831" r="4"/><circle cx="762" cy="829" r="5"/><circle cx="818" cy="859" r="6"/><circle cx="916" cy="808" r="4"/><circle cx="962" cy="861" r="5"/><circle cx="1075" cy="859" r="4"/><circle cx="1183" cy="816" r="5"/><circle cx="1221" cy="803" r="4"/><circle cx="1306" cy="803" r="5"/><circle cx="1416" cy="837" r="4"/><circle cx="1508" cy="845" r="4"/><circle cx="1597" cy="810" r="5"/><circle cx="1635" cy="864" r="5"/><circle cx="1711" cy="848" r="5"/><circle cx="1811" cy="846" r="5"/><circle cx="1881" cy="878" r="4"/><circle cx="1923" cy="843" r="6"/><circle cx="2052" cy="865" r="5"/><circle cx="2138" cy="840" r="5"/><circle cx="2227" cy="823" r="5"/><circle cx="2282" cy="849" r="5"/><circle cx="2391" cy="819" r="4"/><circle cx="2456" cy="859" r="4"/><circle cx="2539" cy="876" r="4"/><circle cx="18" cy="887" r="4"/><circle cx="130" cy="917" r="4"/><circle cx="194" cy="943" r="6"/><circle cx="246" cy="915" r="5"/><circle cx="351" cy="919" r="5"/><circle cx="424" cy="889" r="6"/><circle cx="483" cy="911" r="6"/><circle cx="560" cy="913" r="5"/><circle cx="642" cy="924" r="4"/><circle cx="769" cy="928" r="6"/><circle cx="865" cy="942" r="5"/><circle cx="898" cy="904" r="4"/><circle cx="960" cy="907" r="6"/><circle cx="1113" cy="892" r="4"/><circle cx="1180" cy="912" r="5"/><circle cx="1228" cy="947" r="4"/><circle cx="1289" cy="916" r="5"/><circle cx="1380" cy="913" r="6"/><circle cx="1485" cy="908" r="5"/><circle cx="1539" cy="905" r="5"/><circle cx="1676" cy="959" r="4"/><circle cx="1706" cy="939" r="4"/><circle cx="1816" cy="944" r="5"/><circle cx="1916" cy="947" r="5"/><circle cx="1971" cy="889" r="4"/><circle cx="2052" cy="954" r="5"/><circle cx="2141" cy="932" r="5"/><circle cx="2182" cy="893" r="4"/><circle cx="2283" cy="941" r="6"/><circle cx="2336" cy="924" r="5"/><circle cx="2455" cy="946" r="5"/><circle cx="2555" cy="923" r="5"/><circle cx="-5" cy="923" r="5"/><circle cx="3" cy="975" r="4"/><circle cx="2563" cy="975" r="4"/><circle cx="113" cy="977" r="5"/><circle cx="173" cy="969" r="5"/><circle cx="278" cy="1021" r="4"/><circle cx="323" cy="969" r="4"/><circle cx="474" cy="995" r="6"/><circle cx="494" cy="960" r="6"/><circle cx="605" cy="984" r="6"/><circle cx="690" cy="976" r="6"/><circle cx="746" cy="1008" r="4"/><circle cx="857" cy="981" r="4"/><circle cx="927" cy="1018" r="5"/><circle cx="1014" cy="969" r="5"/><circle cx="1104" cy="1013" r="5"/><circle cx="1190" cy="1026" r="5"/><circle cx="1253" cy="1007" r="5"/><circle cx="1295" cy="1030" r="4"/><circle cx="1372" cy="974" r="5"/><circle cx="1448" cy="969" r="4"/><circle cx="1522" cy="1004" r="4"/><circle cx="1657" cy="1010" r="5"/><circle cx="1745" cy="1024" r="6"/><circle cx="1815" cy="964" r="5"/><circle cx="1902" cy="964" r="6"/><circle cx="1944" cy="990" r="6"/><circle cx="2040" cy="980" r="5"/><circle cx="2116" cy="995" r="5"/><circle cx="2216" cy="990" r="5"/><circle cx="2295" cy="972" r="5"/><circle cx="2354" cy="1017" r="5"/><circle cx="2444" cy="978" r="4"/><circle cx="2527" cy="976" r="6"/><circle cx="30" cy="1118" r="6"/><circle cx="122" cy="1071" r="4"/><circle cx="176" cy="1053" r="4"/><circle cx="289" cy="1112" r="6"/><circle cx="342" cy="1064" r="5"/><circle cx="422" cy="1074" r="4"/><circle cx="514" cy="1095" r="5"/><circle cx="603" cy="1070" r="5"/><circle cx="642" cy="1094" r="6"/><circle cx="725" cy="1107" r="5"/><circle cx="816" cy="1053" r="4"/><circle cx="893" cy="1098" r="6"/><circle cx="997" cy="1076" r="4"/><circle cx="1077" cy="1111" r="5"/><circle cx="1176" cy="1094" r="6"/><circle cx="1256" cy="1057" r="5"/><circle cx="1295" cy="1050" r="5"/><circle cx="1411" cy="1103" r="4"/><circle cx="1454" cy="1044" r="6"/><circle cx="1558" cy="1066" r="5"/><circle cx="1655" cy="1091" r="6"/><circle cx="1696" cy="1064" r="5"/><circle cx="1810" cy="1052" r="5"/><circle cx="1875" cy="1072" r="6"/><circle cx="1942" cy="1067" r="4"/><circle cx="2040" cy="1044" r="5"/><circle cx="2143" cy="1059" r="5"/><circle cx="2226" cy="1098" r="5"/><circle cx="2289" cy="1054" r="5"/><circle cx="2392" cy="1044" r="5"/><circle cx="2443" cy="1063" r="5"/><circle cx="2515" cy="1109" r="4"/><circle cx="66" cy="1135" r="6"/><circle cx="92" cy="1163" r="5"/><circle cx="185" cy="1143" r="5"/><circle cx="310" cy="1184" r="5"/><circle cx="367" cy="1171" r="5"/><circle cx="469" cy="1128" r="5"/><circle cx="559" cy="1138" r="6"/><circle cx="611" cy="1163" r="6"/><circle cx="657" cy="1168" r="4"/><circle cx="743" cy="1124" r="4"/><circle cx="843" cy="1180" r="5"/><circle cx="927" cy="1183" r="6"/><circle cx="969" cy="1135" r="5"/><circle cx="1096" cy="1127" r="6"/><circle cx="1176" cy="1121" r="4"/><circle cx="1216" cy="1143" r="5"/><circle cx="1357" cy="1158" r="4"/><circle cx="1398" cy="1161" r="6"/><circle cx="1516" cy="1138" r="6"/><circle cx="1573" cy="1166" r="5"/><circle cx="1624" cy="1173" r="5"/><circle cx="1734" cy="1169" r="4"/><circle cx="1775" cy="1184" r="5"/><circle cx="1856" cy="1138" r="6"/><circle cx="1929" cy="1181" r="5"/><circle cx="2037" cy="1123" r="5"/><circle cx="2151" cy="1154" r="5"/><circle cx="2164" cy="1123" r="4"/><circle cx="2310" cy="1143" r="4"/><circle cx="2367" cy="1200" r="4"/><circle cx="2446" cy="1138" r="5"/><circle cx="2520" cy="1144" r="6"/><circle cx="42" cy="1217" r="6"/><circle cx="158" cy="1219" r="6"/><circle cx="236" cy="1256" r="5"/><circle cx="252" cy="1242" r="4"/><circle cx="342" cy="1228" r="6"/><circle cx="469" cy="1265" r="5"/><circle cx="519" cy="1225" r="6"/><circle cx="601" cy="1235" r="4"/><circle cx="672" cy="1222" r="5"/><circle cx="798" cy="1232" r="5"/><circle cx="874" cy="1208" r="5"/><circle cx="912" cy="1221" r="5"/><circle cx="1033" cy="1231" r="5"/><circle cx="1082" cy="1220" r="6"/><circle cx="1159" cy="1277" r="4"/><circle cx="1254" cy="1279" r="4"/><circle cx="1312" cy="1204" r="4"/><circle cx="1408" cy="1251" r="5"/><circle cx="1500" cy="1223" r="5"/><circle cx="1547" cy="1265" r="4"/><circle cx="1661" cy="1218" r="5"/><circle cx="1708" cy="1217" r="6"/><circle cx="1807" cy="1269" r="6"/><circle cx="1879" cy="1249" r="4"/><circle cx="1959" cy="1258" r="5"/><circle cx="2080" cy="1211" r="5"/><circle cx="2094" cy="1248" r="5"/><circle cx="2187" cy="1265" r="5"/><circle cx="2291" cy="1276" r="4"/><circle cx="2328" cy="1201" r="6"/><circle cx="2433" cy="1205" r="5"/><circle cx="2487" cy="1201" r="6"/><circle cx="18" cy="1280" r="5"/><circle cx="148" cy="1350" r="6"/><circle cx="170" cy="1338" r="6"/><circle cx="306" cy="1320" r="5"/><circle cx="340" cy="1311" r="5"/><circle cx="480" cy="1320" r="5"/><circle cx="522" cy="1323" r="6"/><circle cx="570" cy="1318" r="6"/><circle cx="706" cy="1332" r="5"/><circle cx="768" cy="1325" r="5"/><circle cx="872" cy="1308" r="5"/><circle cx="947" cy="1336" r="4"/><circle cx="1019" cy="1359" r="5"/><circle cx="1098" cy="1319" r="4"/><circle cx="1178" cy="1333" r="6"/><circle cx="1220" cy="1351" r="4"/><circle cx="1328" cy="1358" r="5"/><circle cx="1394" cy="1345" r="6"/><circle cx="1463" cy="1295" r="5"/><circle cx="1579" cy="1311" r="4"/><circle cx="1609" cy="1289" r="5"/><circle cx="1745" cy="1356" r="6"/><circle cx="1812" cy="1351" r="4"/><circle cx="1875" cy="1357" r="4"/><circle cx="1940" cy="1352" r="6"/><circle cx="2032" cy="1346" r="6"/><circle cx="2096" cy="1317" r="4"/><circle cx="2189" cy="1306" r="5"/><circle cx="2242" cy="1281" r="5"/><circle cx="2327" cy="1308" r="4"/><circle cx="2465" cy="1330" r="6"/><circle cx="2538" cy="1283" r="5"/><circle cx="41" cy="1364" r="5"/><circle cx="154" cy="1370" r="5"/><circle cx="188" cy="1374" r="4"/><circle cx="249" cy="1403" r="6"/><circle cx="368" cy="1400" r="6"/><circle cx="410" cy="1394" r="5"/><circle cx="489" cy="1395" r="5"/><circle cx="601" cy="1368" r="4"/><circle cx="643" cy="1366" r="6"/><circle cx="789" cy="1418" r="5"/><circle cx="847" cy="1366" r="5"/><circle cx="886" cy="1416" r="5"/><circle cx="985" cy="1422" r="6"/><circle cx="1120" cy="1415" r="4"/><circle cx="1156" cy="1361" r="4"/><circle cx="1209" cy="1431" r="6"/><circle cx="1292" cy="1404" r="4"/><circle cx="1420" cy="1384" r="4"/><circle cx="1504" cy="1387" r="5"/><circle cx="1584" cy="1425" r="5"/><circle cx="1644" cy="1403" r="5"/><circle cx="1735" cy="1402" r="5"/><circle cx="1778" cy="1426" r="5"/><circle cx="1861" cy="1438" r="5"/><circle cx="1861" cy="-2" r="5"/><circle cx="1979" cy="1385" r="6"/><circle cx="2063" cy="1428" r="5"/><circle cx="2135" cy="1376" r="5"/><circle cx="2178" cy="1384" r="5"/><circle cx="2301" cy="1370" r="5"/><circle cx="2335" cy="1401" r="4"/><circle cx="2430" cy="1362" r="6"/><circle cx="2494" cy="1431" r="6"/><path stroke="#fff" d="M72 48L143 61M72 48L77 155M72 48L88 152M143 61L233 73M233 73L285 18M233 73L231 108M285 18L353 62M285 18L231 108M285 18L249 -37M285 18L368 -40M285 1458L249 1403M285 1458L368 1400M353 62L407 28M353 62L356 134M353 62L403 81M353 62L368 -40M353 1502L368 1400M407 28L483 15M407 28L403 81M407 28L368 -40M407 28L410 -46M407 1468L368 1400M407 1468L410 1394M483 15L403 81M483 15L410 -46M483 15L489 -45M483 1455L410 1394M483 1455L489 1395M604 68L680 27M604 68L532 131M604 68L617 120M604 68L654 136M680 27L643 -74M680 1467L643 1366M790 79L857 67M790 79L759 119M790 79L805 117M790 79L848 168M790 79L789 -22M790 1519L789 1418M857 67L805 117M857 67L959 93M857 67L886 -24M857 1507L886 1416M955 72L994 67M955 72L959 93M955 72L979 114M955 72L985 -18M955 1512L985 1422M994 67L1057 6M994 67L959 93M994 67L979 114M994 67L985 -18M994 1507L985 1422M1057 6L1100 98M1057 6L1019 -81M1057 6L985 -18M1057 6L1120 -25M1057 1446L1019 1359M1057 1446L985 1422M1057 1446L1120 1415M1167 29L1215 49M1167 29L1100 98M1167 29L1228 111M1167 29L1120 -25M1167 29L1209 -9M1167 1469L1120 1415M1167 1469L1209 1431M1215 49L1228 111M1215 49L1209 -9M1215 1489L1209 1431M1337 10L1378 75M1337 10L1341 110M1337 10L1328 -82M1337 10L1292 -36M1337 1450L1328 1358M1337 1450L1292 1404M1378 75L1482 68M1378 75L1341 110M1378 75L1417 139M1378 75L1479 86M1482 68L1542 61M1482 68L1479 86M1542 61L1479 86M1542 61L1540 142M1542 61L1625 123M1542 61L1584 -15M1542 1501L1584 1425M1663 47L1711 71M1663 47L1625 123M1663 47L1584 -15M1663 47L1644 -37M1663 1487L1584 1425M1663 1487L1644 1403M1711 71L1740 122M1711 71L1666 161M1711 71L1704 169M1831 61L1827 134M1831 61L1869 131M1831 61L1778 -14M1831 61L1861 -2M1831 1501L1778 1426M1831 1501L1861 1438M1920 59L1982 55M1920 59L2005 71M1920 59L1869 131M1920 59L1932 140M1920 59L1861 -2M1920 1499L1861 1438M1982 55L2005 71M1982 55L2017 155M1982 55L1979 -55M1982 55L2063 -12M1982 1495L1979 1385M1982 1495L2063 1428M2005 71L2017 155M2005 71L2093 102M2119 64L2190 53M2119 64L2093 102M2119 64L2213 120M2119 64L2063 -12M2119 1504L2063 1428M2190 53L2251 5M2190 53L2093 102M2190 53L2213 120M2190 53L2178 -56M2190 1493L2178 1384M2251 5L2349 59M2251 5L2178 -56M2251 5L2301 -70M2251 5L2335 -39M2251 1445L2178 1384M2251 1445L2301 1370M2251 1445L2335 1401M2349 59L2423 62M2349 59L2369 132M2349 59L2426 118M2349 59L2335 -39M2349 1499L2335 1401M2423 62L2369 132M2423 62L2426 118M2423 62L2499 93M2423 62L2494 -9M2423 1502L2494 1431M2511 52L2499 93M2511 52L2494 -9M2511 1492L2494 1431M77 155L88 152M77 155L56 167M77 155L97 168M88 152L56 167M88 152L97 168M88 152L169 173M231 108L304 156M231 108L169 173M231 108L267 198M304 156L356 134M304 156L267 198M304 156L356 190M356 134L403 81M356 134L356 190M532 131L617 120M532 131L450 188M532 131L481 169M532 131L564 171M617 120L654 136M617 120L564 171M654 136L759 119M654 136L564 171M654 136L693 209M759 119L805 117M759 119L848 168M805 117L848 168M959 93L979 114M959 93L1007 179M979 114L1100 98M979 114L1007 179M1100 98L1180 157M1100 98L1149 204M1180 157L1228 111M1180 157L1149 204M1180 157L1280 201M1180 157L1147 266M1341 110L1417 139M1341 110L1280 201M1341 110L1334 190M1417 139L1479 86M1417 139L1438 193M1417 139L1468 201M1479 86L1540 142M1540 142L1625 123M1540 142L1468 201M1540 142L1529 197M1625 123L1666 161M1625 123L1704 169M1740 122L1827 134M1740 122L1666 161M1740 122L1704 169M1740 122L1795 207M1827 134L1869 131M1827 134L1795 207M1827 134L1853 200M1869 131L1932 140M1869 131L1853 200M1932 140L2017 155M1932 140L1996 188M2017 155L1996 188M2017 155L2054 200M2093 102L2130 197M2213 120L2265 155M2213 120L2130 197M2213 120L2180 170M2265 155L2369 132M2265 155L2180 170M2265 155L2279 231M2265 155L2294 242M2369 132L2426 118M2369 132L2378 200M2426 118L2499 93M2426 118L2378 200M2499 93L2494 -9M2499 1533L2494 1431M56 167L97 168M56 167L95 258M97 168L169 173M97 168L95 258M169 173L267 198M169 173L181 263M267 198L356 190M267 198L276 276M356 190L450 188M356 190L336 283M450 188L481 169M450 188L564 171M450 188L488 266M481 169L564 171M481 169L488 266M693 209L726 216M693 209L628 285M693 209L705 284M693 209L730 244M726 216L705 284M726 216L730 244M848 168L884 237M884 237L837 294M884 237L923 284M884 237L976 251M1007 179L1069 220M1007 179L976 251M1007 179L1040 273M1069 220L1149 204M1069 220L976 251M1069 220L1040 273M1069 220L1147 266M1149 204L1147 266M1149 204L1218 271M1280 201L1334 190M1280 201L1218 271M1280 201L1358 271M1334 190L1358 271M1438 193L1468 201M1438 193L1529 197M1438 193L1358 271M1438 193L1387 291M1468 201L1529 197M1468 201L1518 283M1529 197L1518 283M1666 161L1704 169M1795 207L1853 200M1795 207L1791 291M1795 207L1877 253M1853 200L1877 253M1853 200L1922 252M1996 188L2054 200M1996 188L1922 252M2054 200L2130 197M2054 200L2126 276M2130 197L2180 170M2130 197L2126 276M2279 231L2240 285M2279 231L2294 242M2279 231L2322 253M2378 200L2451 223M2378 200L2294 242M2378 200L2322 253M2451 223L2481 221M2451 223L2461 287M2451 223L2534 289M2451 223L2390 322M2481 221L2461 287M2481 221L2534 289M38 311L95 258M38 311L-26 289M38 311L15 383M38 311L109 384M2598 311L2534 289M95 258L181 263M181 263L276 276M181 263L273 321M276 276L336 283M276 276L273 321M336 283L273 321M336 283L390 356M459 313L488 266M459 313L390 356M459 313L447 364M459 313L494 329M459 313L480 422M488 266L494 329M628 285L705 284M628 285L611 334M628 285L708 327M705 284L730 244M705 284L708 327M730 244L837 294M730 244L708 327M837 294L923 284M837 294L824 379M923 284L976 251M923 284L995 357M976 251L1040 273M1040 273L1147 266M1040 273L995 357M1147 266L1218 271M1358 271L1387 291M1358 271L1384 360M1387 291L1340 398M1387 291L1384 360M1518 283L1595 290M1518 283L1616 281M1518 283L1495 378M1595 290L1616 281M1595 290L1682 296M1616 281L1682 296M1616 281L1611 382M1616 281L1689 359M1682 296L1791 291M1682 296L1689 359M1791 291L1837 322M1877 253L1922 252M1877 253L1837 322M1922 252L1908 360M1922 252L1979 334M2037 318L2126 276M2037 318L1979 334M2037 318L2013 384M2037 318L2113 337M2126 276L2113 337M2126 276L2223 335M2240 285L2294 242M2240 285L2322 253M2240 285L2223 335M2240 285L2274 332M2294 242L2322 253M2322 253L2390 322M2461 287L2534 289M2461 287L2390 322M2461 287L2444 361M15 383L109 384M15 383L-68 391M15 383L28 461M15 383L-41 417M2575 383L2492 391M2575 383L2519 417M109 384L183 378M109 384L125 437M109 384L161 459M183 378L273 321M183 378L125 437M183 378L161 459M183 378L268 412M273 321L268 412M390 356L447 364M390 356L383 456M447 364L494 329M447 364L480 422M447 364L531 443M494 329L480 422M611 334L571 442M708 327L778 389M708 327L703 432M778 389L824 379M778 389L703 432M778 389L779 430M778 389L803 460M824 379L779 430M824 379L803 460M824 379L912 456M940 399L995 357M940 399L912 456M940 399L1009 473M995 357L1071 385M1071 385L1126 386M1071 385L1009 473M1071 385L1118 440M1071 385L1121 467M1126 386L1118 440M1126 386L1121 467M1248 385L1340 398M1248 385L1229 462M1340 398L1384 360M1340 398L1359 449M1340 398L1395 459M1384 360L1359 449M1384 360L1395 459M1495 378L1530 384M1495 378L1493 400M1495 378L1546 429M1530 384L1611 382M1530 384L1493 400M1530 384L1546 429M1530 384L1612 443M1611 382L1689 359M1611 382L1612 443M1689 359L1701 412M1837 322L1908 360M1837 322L1820 424M1908 360L1979 334M1908 360L1820 424M1908 360L1889 430M1979 334L2013 384M2013 384L1983 446M2013 384L2062 412M2113 337L2223 335M2113 337L2062 412M2223 335L2274 332M2223 335L2202 407M2274 332L2202 407M2274 332L2317 416M2390 322L2444 361M2390 322L2377 440M2444 361L2492 391M2444 361L2457 434M2444 361L2519 417M2492 391L2457 434M2492 391L2519 417M28 461L125 437M28 461L-41 417M28 461L57 494M2588 461L2519 417M125 437L161 459M125 437L57 494M161 459L217 500M161 459L251 513M268 412L217 500M268 412L336 499M383 456L336 499M383 456L462 532M480 422L531 443M480 422L571 442M531 443L571 442M531 443L462 532M531 443L514 548M571 442L605 550M703 432L779 430M703 432L803 460M703 432L711 490M779 430L803 460M779 430L711 490M803 460L784 543M912 456L1009 473M912 456L915 559M1009 473L1118 440M1009 473L1028 524M1118 440L1121 467M1118 440L1092 536M1121 467L1092 536M1121 467L1142 552M1229 462L1240 526M1359 449L1395 459M1359 449L1329 511M1359 449L1375 545M1395 459L1329 511M1395 459L1375 545M1493 400L1546 429M1546 429L1612 443M1546 429L1558 510M1612 443L1701 412M1612 443L1558 510M1701 412L1739 495M1820 424L1889 430M1820 424L1739 495M1820 424L1790 525M1889 430L1983 446M1889 430L1912 539M1889 430L1939 522M1983 446L2062 412M1983 446L1939 522M1983 446L2084 486M2062 412L2119 467M2062 412L2084 486M2119 467L2202 407M2119 467L2084 486M2119 467L2162 506M2202 407L2317 416M2202 407L2162 506M2317 416L2377 440M2317 416L2285 527M2377 440L2457 434M2377 440L2396 537M2457 434L2519 417M57 494L84 553M57 494L72 579M84 553L72 579M84 553L81 610M84 553L200 566M84 553L100 650M217 500L251 513M217 500L200 566M217 500L269 592M251 513L336 499M251 513L200 566M251 513L269 592M336 499L269 592M336 499L330 578M462 532L514 548M462 532L548 563M514 548L605 550M514 548L480 633M514 548L548 563M605 550L548 563M605 550L604 586M605 550L647 592M711 490L784 543M711 490L647 592M784 543L818 560M784 543L778 601M818 560L915 559M818 560L778 601M818 560L813 639M818 560L903 612M915 559L903 612M915 559L984 635M915 559L912 659M1028 524L1092 536M1028 524L984 635M1092 536L1142 552M1092 536L1090 618M1142 552L1240 526M1142 552L1090 618M1142 552L1169 628M1240 526L1329 511M1240 526L1268 575M1329 511L1375 545M1375 545L1342 596M1375 545L1374 604M1510 540L1558 510M1510 540L1488 626M1558 510L1643 556M1643 556L1595 621M1643 556L1609 623M1643 556L1725 595M1643 556L1625 644M1739 495L1790 525M1739 495L1761 580M1790 525L1725 595M1790 525L1761 580M1912 539L1939 522M1912 539L1866 628M1912 539L1931 581M1939 522L1931 581M2072 559L2084 486M2072 559L2162 506M2072 559L2043 591M2072 559L2124 629M2072 559L2070 645M2084 486L2162 506M2285 527L2396 537M2285 527L2238 620M2285 527L2255 622M2285 527L2332 623M2396 537L2454 551M2396 537L2490 547M2454 551L2490 547M2454 551L2469 595M2490 547L2469 595M2490 547L2545 599M72 579L81 610M72 579L-15 599M72 579L100 650M2632 579L2545 599M81 610L-15 599M81 610L23 681M81 610L100 650M2641 610L2545 599M200 566L269 592M200 566L190 666M269 592L330 578M330 578L348 663M480 633L548 563M480 633L424 715M480 633L538 661M548 563L604 586M604 586L647 592M604 586L538 661M778 601L813 639M778 601L740 678M778 601L834 668M813 639L740 678M813 639L834 668M813 639L844 737M903 612L984 635M903 612L912 659M984 635L912 659M984 635L1037 685M1090 618L1169 628M1090 618L1037 685M1169 628L1171 711M1268 575L1342 596M1268 575L1277 662M1342 596L1374 604M1342 596L1277 662M1342 596L1395 647M1374 604L1277 662M1374 604L1301 688M1374 604L1395 647M1488 626L1395 647M1488 626L1485 717M1488 626L1561 653M1595 621L1609 623M1595 621L1561 653M1595 621L1625 644M1609 623L1561 653M1609 623L1625 644M1725 595L1761 580M1725 595L1727 664M1761 580L1727 664M1761 580L1805 671M1866 628L1931 581M1866 628L1805 671M1866 628L1840 684M1866 628L1933 678M1931 581L2043 591M1931 581L1933 678M2043 591L2124 629M2043 591L2070 645M2124 629L2070 645M2124 629L2149 672M2238 620L2255 622M2238 620L2223 686M2255 622L2332 623M2255 622L2223 686M2332 623L2296 709M2332 623L2395 642M2332 623L2424 660M2469 595L2545 599M2469 595L2395 642M2469 595L2424 660M23 681L100 650M23 681L-2 702M23 681L77 737M23 681L-42 728M2583 681L2558 702M2583 681L2518 728M100 650L77 737M190 666L128 753M190 666L208 741M304 715L348 663M304 715L208 741M304 715L314 742M348 663L314 742M348 663L419 721M424 715L375 782M424 715L419 721M424 715L516 743M538 661L629 719M538 661L516 743M629 719L697 709M629 719L612 772M629 719L675 730M697 709L740 678M697 709L612 772M697 709L675 730M697 709L765 725M740 678L675 730M740 678L765 725M834 668L912 659M834 668L765 725M834 668L844 737M1037 685L1082 712M1037 685L1033 759M1082 712L1171 711M1082 712L1033 759M1082 712L1092 785M1082 712L1143 755M1171 711L1143 755M1171 711L1203 732M1171 711L1183 816M1277 662L1301 688M1277 662L1323 752M1301 688L1395 647M1301 688L1323 752M1301 688L1306 803M1485 717L1434 760M1485 717L1494 794M1561 653L1625 644M1561 653L1639 734M1625 644L1639 734M1727 664L1805 671M1727 664L1686 767M1805 671L1840 684M1840 684L1933 678M1840 684L1890 737M1840 684L1940 735M1933 678L1890 737M1933 678L1940 735M2070 645L2149 672M2070 645L2031 750M2149 672L2223 686M2149 672L2102 747M2149 672L2233 729M2223 686L2296 709M2223 686L2233 729M2296 709L2233 729M2296 709L2294 745M2296 709L2360 729M2395 642L2424 660M2395 642L2360 729M2424 660L2360 729M2424 660L2452 746M2558 702L2637 737M2558 702L2452 746M2558 702L2518 728M-2 702L77 737M77 737L128 753M77 737L61 824M128 753L208 741M128 753L61 824M128 753L209 827M208 741L209 827M314 742L375 782M314 742L287 838M314 742L370 807M375 782L419 721M375 782L370 807M375 782L432 811M419 721L516 743M419 721L432 811M516 743L612 772M612 772L675 730M612 772L679 831M675 730L765 725M765 725L844 737M844 737L910 771M844 737L916 808M910 771L916 808M910 771L962 861M1033 759L1092 785M1033 759L1075 859M1092 785L1143 755M1092 785L1075 859M1143 755L1203 732M1143 755L1183 816M1203 732L1183 816M1203 732L1221 803M1323 752L1434 760M1323 752L1306 803M1434 760L1494 794M1434 760L1416 837M1494 794L1582 782M1494 794L1416 837M1494 794L1508 845M1582 782L1639 734M1582 782L1686 767M1582 782L1597 810M1582 782L1635 864M1639 734L1686 767M1639 734L1597 810M1686 767L1597 810M1686 767L1711 848M1798 793L1890 737M1798 793L1711 848M1798 793L1811 846M1890 737L1940 735M1890 737L1923 843M1940 735L2031 750M1940 735L1923 843M2031 750L2102 747M2031 750L2052 865M2102 747L2138 840M2233 729L2294 745M2233 729L2227 823M2294 745L2360 729M2294 745L2227 823M2294 745L2282 849M2360 729L2452 746M2452 746L2518 728M2452 746L2391 819M61 824L96 879M61 824L-21 876M61 824L18 887M2621 824L2539 876M96 879L18 887M96 879L130 917M96 879L113 977M209 827L287 838M209 827L246 915M287 838L370 807M287 838L246 915M287 838L351 919M370 807L432 811M370 807L424 889M432 811L424 889M534 861L563 862M534 861L483 911M534 861L560 913M563 862L560 913M563 862L642 924M679 831L762 829M679 831L642 924M762 829L818 859M762 829L769 928M818 859L916 808M818 859L769 928M818 859L865 942M818 859L898 904M916 808L962 861M916 808L960 907M962 861L898 904M962 861L960 907M962 861L1014 969M1075 859L1113 892M1183 816L1221 803M1183 816L1180 912M1221 803L1306 803M1306 803L1289 916M1416 837L1508 845M1416 837L1380 913M1416 837L1485 908M1508 845L1597 810M1508 845L1485 908M1508 845L1539 905M1597 810L1635 864M1635 864L1711 848M1635 864L1539 905M1635 864L1676 959M1711 848L1811 846M1711 848L1706 939M1811 846L1881 878M1881 878L1923 843M1881 878L1816 944M1881 878L1916 947M1881 878L1902 964M1923 843L1916 947M1923 843L1971 889M2052 865L2138 840M2052 865L1971 889M2052 865L2052 954M2138 840L2227 823M2138 840L2141 932M2138 840L2182 893M2227 823L2282 849M2227 823L2182 893M2282 849L2283 941M2282 849L2336 924M2391 819L2456 859M2456 859L2539 876M2456 859L2455 946M2539 876L2578 887M2539 876L2555 923M-21 876L18 887M18 887L-5 923M18 887L-33 976M2578 887L2555 923M2578 887L2527 976M130 917L194 943M130 917L113 977M130 917L173 969M194 943L246 915M194 943L113 977M194 943L173 969M194 943L176 1053M246 915L173 969M246 915L323 969M351 919L424 889M351 919L278 1021M351 919L323 969M424 889L483 911M424 889L494 960M483 911L560 913M483 911L474 995M483 911L494 960M560 913L494 960M560 913L605 984M642 924L605 984M642 924L690 976M769 928L865 942M769 928L690 976M769 928L746 1008M865 942L898 904M865 942L960 907M865 942L857 981M898 904L960 907M898 904L857 981M960 907L1014 969M1113 892L1180 912M1180 912L1228 947M1228 947L1289 916M1228 947L1190 1026M1228 947L1253 1007M1289 916L1380 913M1289 916L1372 974M1380 913L1485 908M1380 913L1372 974M1380 913L1448 969M1485 908L1539 905M1485 908L1448 969M1539 905L1522 1004M1676 959L1706 939M1676 959L1657 1010M1676 959L1696 1064M1706 939L1657 1010M1706 939L1745 1024M1816 944L1815 964M1816 944L1902 964M1916 947L1971 889M1916 947L1902 964M1916 947L1944 990M2052 954L2141 932M2052 954L2040 980M2052 954L2116 995M2052 954L2040 1044M2141 932L2182 893M2141 932L2116 995M2141 932L2216 990M2283 941L2336 924M2283 941L2216 990M2283 941L2295 972M2283 941L2354 1017M2336 924L2295 972M2336 924L2354 1017M2455 946L2555 923M2455 946L2444 978M2455 946L2527 976M2455 946L2392 1044M2555 923L2563 975M2555 923L2527 976M-5 923L3 975M3 975L-33 976M2563 975L2527 976M113 977L173 969M113 977L122 1071M173 969L176 1053M278 1021L323 969M278 1021L176 1053M278 1021L289 1112M278 1021L342 1064M323 969L342 1064M474 995L494 960M474 995L422 1074M474 995L514 1095M494 960L605 984M605 984L690 976M605 984L603 1070M690 976L746 1008M746 1008L725 1107M746 1008L816 1053M857 981L927 1018M857 981L816 1053M927 1018L1014 969M927 1018L893 1098M927 1018L997 1076M1014 969L1104 1013M1014 969L997 1076M1104 1013L1190 1026M1104 1013L1077 1111M1104 1013L1096 1127M1190 1026L1253 1007M1190 1026L1176 1094M1190 1026L1256 1057M1253 1007L1295 1030M1253 1007L1256 1057M1253 1007L1295 1050M1295 1030L1372 974M1295 1030L1256 1057M1295 1030L1295 1050M1372 974L1448 969M1448 969L1522 1004M1448 969L1454 1044M1522 1004L1454 1044M1522 1004L1558 1066M1657 1010L1745 1024M1657 1010L1655 1091M1657 1010L1696 1064M1745 1024L1815 964M1745 1024L1696 1064M1745 1024L1810 1052M1815 964L1902 964M1815 964L1810 1052M1902 964L1944 990M1944 990L2040 980M1944 990L1875 1072M1944 990L1942 1067M2040 980L2116 995M2040 980L2040 1044M2116 995L2040 1044M2116 995L2143 1059M2216 990L2295 972M2216 990L2143 1059M2216 990L2289 1054M2295 972L2354 1017M2295 972L2289 1054M2354 1017L2289 1054M2354 1017L2392 1044M2444 978L2527 976M2444 978L2392 1044M2444 978L2443 1063M30 1118L-45 1109M30 1118L66 1135M30 1118L92 1163M30 1118L-40 1144M30 1118L42 1217M2590 1118L2515 1109M2590 1118L2520 1144M122 1071L176 1053M122 1071L66 1135M122 1071L185 1143M176 1053L185 1143M289 1112L342 1064M289 1112L185 1143M289 1112L310 1184M289 1112L367 1171M342 1064L422 1074M342 1064L367 1171M422 1074L514 1095M422 1074L469 1128M514 1095L603 1070M514 1095L469 1128M514 1095L559 1138M603 1070L642 1094M603 1070L559 1138M642 1094L725 1107M642 1094L559 1138M642 1094L611 1163M642 1094L657 1168M725 1107L816 1053M725 1107L657 1168M725 1107L743 1124M816 1053L893 1098M816 1053L743 1124M893 1098L843 1180M893 1098L927 1183M893 1098L969 1135M997 1076L1077 1111M997 1076L969 1135M1077 1111L1096 1127M1077 1111L1082 1220M1176 1094L1256 1057M1176 1094L1096 1127M1176 1094L1176 1121M1176 1094L1216 1143M1256 1057L1295 1050M1295 1050L1216 1143M1295 1050L1357 1158M1411 1103L1454 1044M1411 1103L1357 1158M1411 1103L1398 1161M1454 1044L1558 1066M1454 1044L1516 1138M1558 1066L1655 1091M1558 1066L1516 1138M1558 1066L1573 1166M1655 1091L1696 1064M1655 1091L1624 1173M1696 1064L1810 1052M1810 1052L1875 1072M1810 1052L1856 1138M1875 1072L1942 1067M1875 1072L1856 1138M1875 1072L1929 1181M1942 1067L1856 1138M1942 1067L2037 1123M2040 1044L2037 1123M2143 1059L2226 1098M2143 1059L2151 1154M2143 1059L2164 1123M2226 1098L2289 1054M2226 1098L2151 1154M2226 1098L2164 1123M2226 1098L2310 1143M2289 1054L2310 1143M2392 1044L2443 1063M2443 1063L2515 1109M2443 1063L2446 1138M2515 1109L2446 1138M2515 1109L2520 1144M2515 1109L2487 1201M66 1135L92 1163M66 1135L-40 1144M66 1135L42 1217M2626 1135L2520 1144M92 1163L185 1143M92 1163L42 1217M92 1163L158 1219M185 1143L158 1219M310 1184L367 1171M310 1184L252 1242M310 1184L342 1228M367 1171L469 1128M367 1171L342 1228M559 1138L611 1163M559 1138L519 1225M611 1163L657 1168M611 1163L601 1235M611 1163L672 1222M657 1168L601 1235M657 1168L672 1222M843 1180L927 1183M843 1180L798 1232M843 1180L874 1208M843 1180L912 1221M927 1183L969 1135M927 1183L874 1208M927 1183L912 1221M969 1135L912 1221M969 1135L1033 1231M1096 1127L1176 1121M1096 1127L1082 1220M1176 1121L1216 1143M1216 1143L1312 1204M1357 1158L1398 1161M1357 1158L1312 1204M1357 1158L1408 1251M1398 1161L1312 1204M1398 1161L1408 1251M1516 1138L1573 1166M1516 1138L1624 1173M1516 1138L1500 1223M1573 1166L1624 1173M1573 1166L1500 1223M1573 1166L1661 1218M1624 1173L1661 1218M1624 1173L1708 1217M1734 1169L1775 1184M1734 1169L1661 1218M1734 1169L1708 1217M1775 1184L1856 1138M1775 1184L1708 1217M1775 1184L1807 1269M1856 1138L1929 1181M1929 1181L2037 1123M1929 1181L1879 1249M1929 1181L1959 1258M2037 1123L2080 1211M2151 1154L2164 1123M2151 1154L2080 1211M2151 1154L2094 1248M2310 1143L2367 1200M2310 1143L2328 1201M2367 1200L2328 1201M2367 1200L2433 1205M2446 1138L2520 1144M2446 1138L2433 1205M2446 1138L2487 1201M2520 1144L2487 1201M42 1217L18 1280M42 1217L-22 1283M2602 1217L2538 1283M158 1219L236 1256M158 1219L252 1242M236 1256L252 1242M236 1256L170 1338M236 1256L306 1320M252 1242L342 1228M342 1228L306 1320M342 1228L340 1311M469 1265L519 1225M469 1265L480 1320M469 1265L522 1323M519 1225L601 1235M519 1225L522 1323M601 1235L672 1222M601 1235L570 1318M672 1222L706 1332M798 1232L874 1208M798 1232L768 1325M874 1208L912 1221M874 1208L872 1308M912 1221L872 1308M1033 1231L1082 1220M1082 1220L1159 1277M1082 1220L1098 1319M1159 1277L1254 1279M1159 1277L1098 1319M1159 1277L1178 1333M1254 1279L1312 1204M1254 1279L1220 1351M1254 1279L1328 1358M1408 1251L1500 1223M1408 1251L1394 1345M1408 1251L1463 1295M1500 1223L1547 1265M1500 1223L1463 1295M1547 1265L1463 1295M1547 1265L1579 1311M1547 1265L1609 1289M1661 1218L1708 1217M1661 1218L1609 1289M1708 1217L1807 1269M1807 1269L1879 1249M1807 1269L1745 1356M1807 1269L1812 1351M1879 1249L1959 1258M1879 1249L1875 1357M1959 1258L1940 1352M2080 1211L2094 1248M2080 1211L2096 1317M2094 1248L2187 1265M2094 1248L2096 1317M2187 1265L2189 1306M2187 1265L2242 1281M2291 1276L2328 1201M2291 1276L2242 1281M2291 1276L2327 1308M2291 1276L2301 1370M2328 1201L2433 1205M2328 1201L2327 1308M2433 1205L2487 1201M2433 1205L2465 1330M2487 1201L2538 1283M18 1280L-95 1330M18 1280L-22 1283M18 1280L41 1364M2578 1280L2465 1330M2578 1280L2538 1283M148 1350L170 1338M148 1350L41 1364M148 1350L154 1370M148 1350L188 1374M170 1338L154 1370M170 1338L188 1374M170 1338L249 1403M306 1320L340 1311M306 1320L249 1403M340 1311L368 1400M480 1320L522 1323M480 1320L570 1318M480 1320L410 1394M480 1320L489 1395M522 1323L570 1318M522 1323L489 1395M570 1318L601 1368M570 1318L643 1366M706 1332L768 1325M706 1332L601 1368M706 1332L643 1366M706 1332L789 1418M768 1325L872 1308M768 1325L789 1418M768 1325L847 1366M872 1308L947 1336M872 1308L847 1366M947 1336L1019 1359M947 1336L847 1366M947 1336L886 1416M1019 1359L1098 1319M1019 1359L985 1422M1019 1359L1120 1415M1098 1319L1178 1333M1098 1319L1156 1361M1178 1333L1220 1351M1178 1333L1156 1361M1178 1333L1209 1431M1220 1351L1156 1361M1220 1351L1209 1431M1220 1351L1292 1404M1328 1358L1394 1345M1328 1358L1292 1404M1328 1358L1420 1384M1394 1345L1463 1295M1394 1345L1420 1384M1394 1345L1504 1387M1463 1295L1504 1387M1579 1311L1609 1289M1579 1311L1504 1387M1579 1311L1584 1425M1609 1289L1644 1403M1745 1356L1812 1351M1745 1356L1644 1403M1745 1356L1735 1402M1745 1356L1778 1426M1812 1351L1875 1357M1812 1351L1735 1402M1812 1351L1778 1426M1875 1357L1940 1352M1875 1357L1861 1438M1875 1357L1979 1385M1940 1352L2032 1346M1940 1352L1861 1438M1940 1352L1979 1385M2032 1346L2096 1317M2032 1346L1979 1385M2032 1346L2063 1428M2032 1346L2135 1376M2096 1317L2189 1306M2096 1317L2135 1376M2189 1306L2242 1281M2189 1306L2135 1376M2189 1306L2178 1384M2242 1281L2327 1308M2242 1281L2301 1370M2327 1308L2301 1370M2327 1308L2335 1401M2465 1330L2538 1283M2465 1330L2430 1362M2465 1330L2494 1431M2538 1283L2601 1364M-22 1283L41 1364M41 1364L154 1370M154 1370L188 1374M154 1370L249 1403M188 1374L249 1403M368 1400L410 1394M410 1394L489 1395M489 1395L601 1368M601 1368L643 1366M789 1418L847 1366M789 1418L886 1416M847 1366L886 1416M886 1416L985 1422M1120 1415L1156 1361M1209 1431L1292 1404M1420 1384L1504 1387M1504 1387L1584 1425M1584 1425L1644 1403M1644 1403L1735 1402M1735 1402L1778 1426M1778 1426L1861 1438M1979 1385L2063 1428M2063 1428L2135 1376M2135 1376L2178 1384M2301 1370L2335 1401M2335 1401L2430 1362M2430 1362L2494 1431"/></svg>