<svg xmlns="http://www.w3.org/2000/svg" width="2560" height="1440" fill="#fff"><circle cx="37" cy="47" r="6"/><circle cx="118" cy="51" r="5"/><circle cx="199" cy="1" r="5"/><circle cx="199" cy="1441" r="5"/><circle cx="283" cy="48" r="6"/><circle cx="342" cy="22" r="5"/><circle cx="406" cy="51" r="5"/><circle cx="497" cy="55" r="4"/><circle cx="572" cy="41" r="6"/><circle cx="670" cy="71" r="4"/><circle cx="742" cy="34" r="5"/><circle cx="855" cy="10" r="5"/><circle cx="939" cy="7" r="6"/><circle cx="1013" cy="21" r="6"/><circle cx="1086" cy="62" r="6"/><circle cx="1164" cy="3" r="5"/><circle cx="1164" cy="1443" r="5"/><circle cx="1212" cy="42" r="6"/><circle cx="1326" cy="67" r="5"/><circle cx="1377" cy="9" r="4"/><circle cx="1509" cy="56" r="5"/><circle cx="1575" cy="51" r="5"/><circle cx="1606" cy="23" r="5"/><circle cx="1712" cy="7" r="5"/><circle cx="1817" cy="8" r="5"/><circle cx="1844" cy="17" r="5"/><circle cx="1982" cy="16" r="5"/><circle cx="2018" cy="68" r="5"/><circle cx="2135" cy="11" r="6"/><circle cx="2177" cy="34" r="5"/><circle cx="2248" cy="79" r="6"/><circle cx="2358" cy="54" r="6"/><circle cx="2425" cy="32" r="5"/><circle cx="2540" cy="16" r="6"/><circle cx="35" cy="141" r="6"/><circle cx="153" cy="83" r="5"/><circle cx="180" cy="136" r="5"/><circle cx="281" cy="160" r="6"/><circle cx="357" cy="113" r="5"/><circle cx="415" cy="149" r="4"/><circle cx="514" cy="134" r="5"/><circle cx="598" cy="105" r="6"/><circle cx="642" cy="99" r="6"/><circle cx="787" cy="139" r="5"/><circle cx="836" cy="115" r="5"/><circle cx="921" cy="84" r="6"/><circle cx="1019" cy="90" r="4"/><circle cx="1067" cy="106" r="6"/><circle cx="1161" cy="124" r="6"/><circle cx="1272" cy="90" r="4"/><circle cx="1330" cy="158" r="5"/><circle cx="1370" cy="106" r="5"/><circle cx="1457" cy="96" r="5"/><circle cx="1556" cy="134" r="5"/><circle cx="1650" cy="116" r="5"/><circle cx="1685" cy="86" r="4"/><circle cx="1826" cy="101" r="5"/><circle cx="1860" cy="90" r="6"/><circle cx="1998" cy="113" r="5"/><circle cx="2044" cy="99" r="5"/><circle cx="2157" cy="93" r="6"/><circle cx="2228" cy="88" r="5"/><circle cx="2244" cy="115" r="4"/><circle cx="2337" cy="85" r="5"/><circle cx="2468" cy="127" r="5"/><circle cx="2529" cy="92" r="5"/><circle cx="71" cy="164" r="5"/><circle cx="107" cy="226" r="6"/><circle cx="169" cy="238" r="5"/><circle cx="314" cy="233" r="6"/><circle cx="367" cy="229" r="4"/><circle cx="472" cy="189" r="5"/><circle cx="517" cy="205" r="5"/><circle cx="636" cy="175" r="6"/><circle cx="686" cy="164" r="5"/><circle cx="797" cy="194" r="4"/><circle cx="862" cy="194" r="5"/><circle cx="908" cy="170" r="6"/><circle cx="1030" cy="213" r="6"/><circle cx="1060" cy="188" r="4"/><circle cx="1155" cy="216" r="5"/><circle cx="1239" cy="204" r="5"/><circle cx="1354" cy="201" r="5"/><circle cx="1389" cy="188" r="5"/><circle cx="1500" cy="227" r="4"/><circle cx="1550" cy="224" r="5"/><circle cx="1665" cy="211" r="4"/><circle cx="1715" cy="179" r="6"/><circle cx="1789" cy="195" r="5"/><circle cx="1871" cy="217" r="5"/><circle cx="1998" cy="165" r="4"/><circle cx="2039" cy="170" r="5"/><circle cx="2136" cy="239" r="4"/><circle cx="2220" cy="238" r="6"/><circle cx="2266" cy="213" r="5"/><circle cx="2331" cy="166" r="6"/><circle cx="2403" cy="218" r="5"/><circle cx="2555" cy="200" r="5"/><circle cx="-5" cy="200" r="5"/><circle cx="40" cy="317" r="6"/><circle cx="81" cy="291" r="5"/><circle cx="221" cy="292" r="6"/><circle cx="283" cy="303" r="6"/><circle cx="376" cy="316" r="6"/><circle cx="455" cy="302" r="6"/><circle cx="501" cy="242" r="5"/><circle cx="571" cy="310" r="6"/><circle cx="652" cy="294" r="5"/><circle cx="784" cy="319" r="4"/><circle cx="831" cy="297" r="5"/><circle cx="891" cy="264" r="6"/><circle cx="965" cy="286" r="6"/><circle cx="1096" cy="271" r="5"/><circle cx="1138" cy="242" r="5"/><circle cx="1230" cy="283" r="6"/><circle cx="1320" cy="283" r="5"/><circle cx="1393" cy="260" r="5"/><circle cx="1516" cy="292" r="4"/><circle cx="1589" cy="254" r="5"/><circle cx="1651" cy="254" r="6"/><circle cx="1722" cy="299" r="6"/><circle cx="1770" cy="266" r="5"/><circle cx="1919" cy="301" r="5"/><circle cx="1985" cy="253" r="5"/><circle cx="2063" cy="311" r="6"/><circle cx="2080" cy="276" r="5"/><circle cx="2162" cy="319" r="6"/><circle cx="2264" cy="300" r="6"/><circle cx="2334" cy="241" r="5"/><circle cx="2470" cy="276" r="5"/><circle cx="2483" cy="251" r="5"/><circle cx="27" cy="382" r="5"/><circle cx="129" cy="375" r="5"/><circle cx="231" cy="326" r="6"/><circle cx="308" cy="339" r="5"/><circle cx="383" cy="358" r="4"/><circle cx="412" cy="356" r="6"/><circle cx="492" cy="360" r="5"/><circle cx="612" cy="399" r="4"/><circle cx="680" cy="371" r="6"/><circle cx="740" cy="374" r="5"/><circle cx="821" cy="347" r="6"/><circle cx="910" cy="324" r="4"/><circle cx="1035" cy="345" r="5"/><circle cx="1119" cy="371" r="5"/><circle cx="1185" cy="361" r="6"/><circle cx="1270" cy="347" r="5"/><circle cx="1306" cy="377" r="4"/><circle cx="1370" cy="361" r="5"/><circle cx="1470" cy="327" r="5"/><circle cx="1549" cy="335" r="4"/><circle cx="1607" cy="398" r="5"/><circle cx="1717" cy="386" r="5"/><circle cx="1835" cy="370" r="5"/><circle cx="1879" cy="352" r="5"/><circle cx="1976" cy="376" r="6"/><circle cx="2025" cy="364" r="5"/><circle cx="2137" cy="340" r="5"/><circle cx="2175" cy="384" r="6"/><circle cx="2301" cy="357" r="6"/><circle cx="2375" cy="342" r="4"/><circle cx="2451" cy="398" r="5"/><circle cx="2488" cy="332" r="4"/><circle cx="40" cy="428" r="5"/><circle cx="137" cy="428" r="5"/><circle cx="214" cy="422" r="5"/><circle cx="312" cy="461" r="6"/><circle cx="372" cy="408" r="6"/><circle cx="427" cy="474" r="5"/><circle cx="553" cy="454" r="4"/><circle cx="636" cy="421" r="5"/><circle cx="680" cy="439" r="5"/><circle cx="785" cy="450" r="5"/><circle cx="805" cy="431" r="5"/><circle cx="940" cy="457" r="5"/><circle cx="1025" cy="449" r="5"/><circle cx="1071" cy="470" r="6"/><circle cx="1139" cy="433" r="5"/><circle cx="1226" cy="447" r="6"/><circle cx="1282" cy="418" r="5"/><circle cx="1377" cy="456" r="5"/><circle cx="1479" cy="410" r="5"/><circle cx="1566" cy="453" r="4"/><circle cx="1654" cy="427" r="5"/><circle cx="1702" cy="451" r="5"/><circle cx="1779" cy="403" r="5"/><circle cx="1881" cy="427" r="4"/><circle cx="1981" cy="457" r="6"/><circle cx="2024" cy="472" r="5"/><circle cx="2153" cy="421" r="5"/><circle cx="2198" cy="476" r="6"/><circle cx="2271" cy="475" r="4"/><circle cx="2339" cy="471" r="4"/><circle cx="2420" cy="416" r="5"/><circle cx="2557" cy="414" r="6"/><circle cx="-3" cy="414" r="6"/><circle cx="76" cy="548" r="5"/><circle cx="134" cy="509" r="6"/><circle cx="178" cy="499" r="5"/><circle cx="251" cy="528" r="5"/><circle cx="346" cy="481" r="4"/><circle cx="424" cy="560" r="6"/><circle cx="558" cy="532" r="5"/><circle cx="567" cy="497" r="5"/><circle cx="720" cy="525" r="5"/><circle cx="764" cy="505" r="4"/><circle cx="853" cy="524" r="4"/><circle cx="893" cy="544" r="5"/><circle cx="998" cy="556" r="4"/><circle cx="1069" cy="494" r="4"/><circle cx="1145" cy="506" r="4"/><circle cx="1224" cy="515" r="5"/><circle cx="1283" cy="543" r="5"/><circle cx="1426" cy="542" r="4"/><circle cx="1465" cy="546" r="5"/><circle cx="1547" cy="512" r="5"/><circle cx="1654" cy="555" r="5"/><circle cx="1749" cy="494" r="6"/><circle cx="1800" cy="546" r="5"/><circle cx="1849" cy="559" r="6"/><circle cx="1953" cy="545" r="6"/><circle cx="2030" cy="485" r="6"/><circle cx="2112" cy="487" r="6"/><circle cx="2185" cy="513" r="5"/><circle cx="2241" cy="511" r="5"/><circle cx="2365" cy="551" r="6"/><circle cx="2455" cy="556" r="4"/><circle cx="2502" cy="547" r="6"/><circle cx="19" cy="623" r="6"/><circle cx="84" cy="608" r="4"/><circle cx="199" cy="573" r="5"/><circle cx="245" cy="572" r="5"/><circle cx="375" cy="609" r="5"/><circle cx="463" cy="600" r="5"/><circle cx="501" cy="607" r="5"/><circle cx="600" cy="575" r="5"/><circle cx="676" cy="591" r="5"/><circle cx="730" cy="639" r="6"/><circle cx="820" cy="575" r="5"/><circle cx="907" cy="564" r="5"/><circle cx="980" cy="635" r="5"/><circle cx="1057" cy="617" r="5"/><circle cx="1121" cy="569" r="4"/><circle cx="1210" cy="600" r="5"/><circle cx="1303" cy="618" r="6"/><circle cx="1393" cy="577" r="5"/><circle cx="1455" cy="621" r="5"/><circle cx="1551" cy="639" r="6"/><circle cx="1658" cy="620" r="5"/><circle cx="1731" cy="583" r="6"/><circle cx="1770" cy="584" r="5"/><circle cx="1856" cy="614" r="5"/><circle cx="1928" cy="588" r="5"/><circle cx="2044" cy="589" r="5"/><circle cx="2092" cy="632" r="5"/><circle cx="2188" cy="597" r="5"/><circle cx="2312" cy="561" r="5"/><circle cx="2330" cy="583" r="5"/><circle cx="2447" cy="608" r="5"/><circle cx="2505" cy="603" r="4"/><circle cx="49" cy="662" r="5"/><circle cx="129" cy="687" r="4"/><circle cx="210" cy="650" r="5"/><circle cx="261" cy="688" r="5"/><circle cx="391" cy="702" r="4"/><circle cx="410" cy="707" r="6"/><circle cx="545" cy="680" r="5"/><circle cx="615" cy="664" r="4"/><circle cx="700" cy="666" r="6"/><circle cx="743" cy="708" r="4"/><circle cx="851" cy="708" r="6"/><circle cx="924" cy="641" r="5"/><circle cx="999" cy="687" r="4"/><circle cx="1093" cy="686" r="5"/><circle cx="1120" cy="649" r="4"/><circle cx="1231" cy="704" r="6"/><circle cx="1347" cy="671" r="5"/><circle cx="1385" cy="654" r="6"/><circle cx="1452" cy="706" r="4"/><circle cx="1596" cy="701" r="4"/><circle cx="1611" cy="668" r="6"/><circle cx="1720" cy="674" r="5"/><circle cx="1787" cy="692" r="5"/><circle cx="1912" cy="718" r="5"/><circle cx="1955" cy="711" r="5"/><circle cx="2058" cy="677" r="5"/><circle cx="2115" cy="648" r="4"/><circle cx="2194" cy="646" r="5"/><circle cx="2257" cy="694" r="5"/><circle cx="2322" cy="674" r="5"/><circle cx="2420" cy="648" r="5"/><circle cx="2556" cy="692" r="5"/><circle cx="-4" cy="692" r="5"/><circle cx="40" cy="735" r="5"/><circle cx="110" cy="748" r="6"/><circle cx="224" cy="742" r="5"/><circle cx="267" cy="735" r="4"/><circle cx="330" cy="762" r="5"/><circle cx="403" cy="745" r="5"/><circle cx="532" cy="756" r="5"/><circle cx="574" cy="758" r="5"/><circle cx="696" cy="773" r="4"/><circle cx="748" cy="764" r="6"/><circle cx="827" cy="784" r="5"/><circle cx="954" cy="793" r="6"/><circle cx="969" cy="788" r="5"/><circle cx="1079" cy="740" r="5"/><circle cx="1191" cy="766" r="5"/><circle cx="1223" cy="765" r="5"/><circle cx="1288" cy="762" r="5"/><circle cx="1409" cy="787" r="6"/><circle cx="1465" cy="749" r="6"/><circle cx="1589" cy="752" r="4"/><circle cx="1625" cy="759" r="5"/><circle cx="1691" cy="750" r="6"/><circle cx="1792" cy="800" r="6"/><circle cx="1914" cy="746" r="5"/><circle cx="1930" cy="777" r="5"/><circle cx="2047" cy="723" r="6"/><circle cx="2148" cy="770" r="5"/><circle cx="2203" cy="736" r="4"/><circle cx="2296" cy="793" r="6"/><circle cx="2397" cy="774" r="4"/><circle cx="2426" cy="782" r="4"/><circle cx="2550" cy="768" r="6"/><circle cx="79" cy="808" r="5"/><circle cx="142" cy="840" r="6"/><circle cx="174" cy="857" r="6"/><circle cx="297" cy="853" r="6"/><circle cx="351" cy="821" r="5"/><circle cx="413" cy="813" r="5"/><circle cx="486" cy="821" r="6"/><circle cx="631" cy="854" r="6"/><circle cx="677" cy="849" r="4"/><circle cx="760" cy="831" r="5"/><circle cx="804" cy="846" r="5"/><circle cx="956" cy="864" r="4"/><circle cx="1015" cy="814" r="5"/><circle cx="1112" cy="852" r="5"/><circle cx="1179" cy="853" r="5"/><circle cx="1224" cy="832" r="5"/><circle cx="1315" cy="800" r="5"/><circle cx="1425" cy="842" r="5"/><circle cx="1480" cy="854" r="4"/><circle cx="1542" cy="847" r="6"/><circle cx="1616" cy="835" r="5"/><circle cx="1693" cy="844" r="5"/><circle cx="1816" cy="856" r="4"/><circle cx="1861" cy="818" r="5"/><circle cx="1947" cy="861" r="5"/><circle cx="2076" cy="866" r="4"/><circle cx="2148" cy="808" r="4"/><circle cx="2202" cy="825" r="5"/><circle cx="2290" cy="839" r="5"/><circle cx="2332" cy="806" r="5"/><circle cx="2465" cy="865" r="5"/><circle cx="2517" cy="863" r="4"/><circle cx="60" cy="933" r="5"/><circle cx="142" cy="934" r="6"/><circle cx="196" cy="905" r="4"/><circle cx="266" cy="912" r="4"/><circle cx="374" cy="939" r="6"/><circle cx="474" cy="959" r="4"/><circle cx="533" cy="910" r="4"/><circle cx="583" cy="899" r="5"/><circle cx="661" cy="942" r="5"/><circle cx="765" cy="920" r="5"/><circle cx="844" cy="927" r="6"/><circle cx="952" cy="893" r="5"/><circle cx="1035" cy="952" r="4"/><circle cx="1091" cy="881" r="4"/><circle cx="1172" cy="882" r="6"/><circle cx="1271" cy="937" r="5"/><circle cx="1345" cy="948" r="5"/><circle cx="1435" cy="888" r="5"/><circle cx="1495" cy="922" r="6"/><circle cx="1521" cy="940" r="4"/><circle cx="1618" cy="952" r="6"/><circle cx="1731" cy="936" r="4"/><circle cx="1830" cy="950" r="4"/><circle cx="1862" cy="894" r="5"/><circle cx="1986" cy="927" r="5"/><circle cx="2043" cy="930" r="4"/><circle cx="2152" cy="918" r="6"/><circle cx="2202" cy="944" r="5"/><circle cx="2311" cy="893" r="6"/><circle cx="2320" cy="938" r="6"/><circle cx="2461" cy="894" r="4"/><circle cx="2484" cy="929" r="5"/><circle cx="31" cy="1002" r="4"/><circle cx="156" cy="1000" r="6"/><circle cx="164" cy="994" r="5"/><circle cx="284" cy="1018" r="5"/><circle cx="326" cy="1017" r="5"/><circle cx="435" cy="1023" r="6"/><circle cx="538" cy="1012" r="6"/><circle cx="586" cy="978" r="6"/><circle cx="675" cy="984" r="4"/><circle cx="722" cy="1026" r="5"/><circle cx="845" cy="1035" r="6"/><circle cx="892" cy="1015" r="4"/><circle cx="993" cy="985" r="5"/><circle cx="1089" cy="977" r="6"/><circle cx="1162" cy="995" r="6"/><circle cx="1267" cy="1014" r="6"/><circle cx="1281" cy="985" r="6"/><circle cx="1370" cy="997" r="5"/><circle cx="1494" cy="1036" r="4"/><circle cx="1534" cy="1035" r="4"/><circle cx="1661" cy="1004" r="4"/><circle cx="1740" cy="1038" r="5"/><circle cx="1834" cy="1018" r="6"/><circle cx="1873" cy="991" r="4"/><circle cx="1944" cy="986" r="5"/><circle cx="2022" cy="1031" r="5"/><circle cx="2103" cy="986" r="4"/><circle cx="2181" cy="1018" r="4"/><circle cx="2317" cy="960" r="4"/><circle cx="2381" cy="1016" r="5"/><circle cx="2459" cy="1039" r="5"/><circle cx="2546" cy="1028" r="5"/><circle cx="68" cy="1101" r="4"/><circle cx="126" cy="1096" r="4"/><circle cx="166" cy="1082" r="6"/><circle cx="316" cy="1081" r="5"/><circle cx="395" cy="1058" r="6"/><circle cx="449" cy="1071" r="6"/><circle cx="538" cy="1067" r="6"/><circle cx="611" cy="1045" r="5"/><circle cx="648" cy="1056" r="4"/><circle cx="786" cy="1048" r="6"/><circle cx="859" cy="1044" r="6"/><circle cx="915" cy="1048" r="4"/><circle cx="1003" cy="1048" r="5"/><circle cx="1107" cy="1108" r="6"/><circle cx="1170" cy="1087" r="6"/><circle cx="1217" cy="1085" r="5"/><circle cx="1299" cy="1059" r="6"/><circle cx="1426" cy="1053" r="4"/><circle cx="1492" cy="1102" r="6"/><circle cx="1524" cy="1075" r="6"/><circle cx="1624" cy="1055" r="5"/><circle cx="1725" cy="1060" r="5"/><circle cx="1834" cy="1059" r="5"/><circle cx="1852" cy="1116" r="6"/><circle cx="1929" cy="1040" r="4"/><circle cx="2038" cy="1060" r="5"/><circle cx="2141" cy="1044" r="5"/><circle cx="2161" cy="1099" r="5"/><circle cx="2295" cy="1097" r="4"/><circle cx="2395" cy="1105" r="5"/><circle cx="2460" cy="1041" r="4"/><circle cx="2483" cy="1101" r="5"/><circle cx="64" cy="1196" r="5"/><circle cx="125" cy="1181" r="5"/><circle cx="200" cy="1200" r="5"/><circle cx="307" cy="1172" r="6"/><circle cx="339" cy="1134" r="6"/><circle cx="439" cy="1195" r="6"/><circle cx="559" cy="1151" r="5"/><circle cx="592" cy="1174" r="5"/><circle cx="682" cy="1133" r="4"/><circle cx="749" cy="1195" r="6"/><circle cx="849" cy="1193" r="4"/><circle cx="924" cy="1144" r="5"/><circle cx="971" cy="1141" r="6"/><circle cx="1079" cy="1175" r="5"/><circle cx="1138" cy="1186" r="6"/><circle cx="1245" cy="1156" r="5"/><circle cx="1332" cy="1125" r="5"/><circle cx="1374" cy="1146" r="5"/><circle cx="1455" cy="1166" r="4"/><circle cx="1590" cy="1178" r="5"/><circle cx="1661" cy="1126" r="5"/><circle cx="1738" cy="1141" r="4"/><circle cx="1827" cy="1192" r="5"/><circle cx="1855" cy="1199" r="5"/><circle cx="1948" cy="1150" r="6"/><circle cx="2060" cy="1177" r="4"/><circle cx="2126" cy="1138" r="6"/><circle cx="2239" cy="1164" r="6"/><circle cx="2291" cy="1152" r="5"/><circle cx="2366" cy="1181" r="6"/><circle cx="2410" cy="1140" r="5"/><circle cx="2501" cy="1166" r="5"/><circle cx="6" cy="1208" r="6"/><circle cx="143" cy="1257" r="5"/><circle cx="222" cy="1232" r="4"/><circle cx="262" cy="1275" r="4"/><circle cx="349" cy="1202" r="5"/><circle cx="454" cy="1274" r="6"/><circle cx="538" cy="1214" r="6"/><circle cx="570" cy="1213" r="5"/><circle cx="681" cy="1214" r="5"/><circle cx="732" cy="1238" r="6"/><circle cx="841" cy="1218" r="5"/><circle cx="955" cy="1233" r="6"/><circle cx="993" cy="1278" r="6"/><circle cx="1094" cy="1210" r="5"/><circle cx="1178" cy="1248" r="5"/><circle cx="1249" cy="1213" r="5"/><circle cx="1337" cy="1236" r="5"/><circle cx="1383" cy="1276" r="6"/><circle cx="1469" cy="1262" r="5"/><circle cx="1581" cy="1277" r="6"/><circle cx="1639" cy="1277" r="5"/><circle cx="1740" cy="1200" r="6"/><circle cx="1816" cy="1225" r="4"/><circle cx="1875" cy="1216" r="5"/><circle cx="1937" cy="1274" r="4"/><circle cx="2042" cy="1202" r="5"/><circle cx="2150" cy="1265" r="5"/><circle cx="2168" cy="1211" r="5"/><circle cx="2298" cy="1228" r="4"/><circle cx="2366" cy="1272" r="4"/><circle cx="2418" cy="1273" r="6"/><circle cx="2560" cy="1239" r="5"/><circle cx="-0" cy="1239" r="5"/><circle cx="75" cy="1289" r="4"/><circle cx="93" cy="1335" r="6"/><circle cx="224" cy="1338" r="4"/><circle cx="308" cy="1352" r="4"/><circle cx="331" cy="1317" r="5"/><circle cx="423" cy="1318" r="4"/><circle cx="556" cy="1327" r="6"/><circle cx="608" cy="1328" r="4"/><circle cx="654" cy="1320" r="5"/><circle cx="744" cy="1319" r="5"/><circle cx="833" cy="1310" r="5"/><circle cx="900" cy="1352" r="5"/><circle cx="1030" cy="1296" r="6"/><circle cx="1095" cy="1348" r="5"/><circle cx="1180" cy="1296" r="5"/><circle cx="1267" cy="1291" r="5"/><circle cx="1330" cy="1332" r="5"/><circle cx="1429" cy="1335" r="4"/><circle cx="1512" cy="1311" r="5"/><circle cx="1561" cy="1296" r="5"/><circle cx="1602" cy="1307" r="5"/><circle cx="1754" cy="1355" r="5"/><circle cx="1838" cy="1352" r="6"/><circle cx="1846" cy="1284" r="6"/><circle cx="1928" cy="1303" r="4"/><circle cx="2064" cy="1303" r="4"/><circle cx="2128" cy="1314" r="5"/><circle cx="2234" cy="1308" r="6"/><circle cx="2297" cy="1287" r="5"/><circle cx="2343" cy="1326" r="5"/><circle cx="2431" cy="1341" r="4"/><circle cx="2530" cy="1333" r="5"/><circle cx="47" cy="1389" r="5"/><circle cx="88" cy="1400" r="5"/><circle cx="168" cy="1363" r="6"/><circle cx="308" cy="1403" r="5"/><circle cx="375" cy="1419" r="5"/><circle cx="439" cy="1372" r="4"/><circle cx="535" cy="1394" r="5"/><circle cx="588" cy="1366" r="5"/><circle cx="651" cy="1436" r="4"/><circle cx="651" cy="-4" r="4"/><circle cx="748" cy="1362" r="5"/><circle cx="817" cy="1376" r="5"/><circle cx="933" cy="1397" r="5"/><circle cx="1009" cy="1385" r="6"/><circle cx="1070" cy="1434" r="4"/><circle cx="1196" cy="1420" r="4"/><circle cx="1252" cy="1429" r="5"/><circle cx="1349" cy="1365" r="4"/><circle cx="1394" cy="1383" r="6"/><circle cx="1476" cy="1404" r="4"/><circle cx="1588" cy="1427" r="5"/><circle cx="1633" cy="1381" r="5"/><circle cx="1696" cy="1370" r="5"/><circle cx="1819" cy="1402" r="5"/><circle cx="1874" cy="1418" r="4"/><circle cx="1983" cy="1429" r="5"/><circle cx="2019" cy="1381" r="6"/><circle cx="2135" cy="1402" r="6"/><circle cx="2217" cy="1399" r="6"/><circle cx="2313" cy="1425" r="5"/><circle cx="2371" cy="1413" r="4"/><circle cx="2477" cy="1379" r="5"/><circle cx="2545" cy="1432" r="5"/><path stroke="#fff" d="M37 47L118 51M37 47L-20 16M37 47L35 141M37 47L-31 92M37 47L-15 -8M2597 47L2540 16M2597 47L2529 92M2597 47L2545 -8M37 1487L-15 1432M2597 1487L2545 1432M118 51L199 1M118 51L153 83M118 51L180 136M118 51L88 -40M118 1491L88 1400M199 1L283 48M199 1L153 83M199 1L224 -102M199 1L168 -77M199 1441L224 1338M199 1441L168 1363M283 48L342 22M283 48L281 160M283 48L357 113M283 48L308 -37M283 1488L308 1403M342 22L406 51M342 22L357 113M342 22L308 -37M342 22L375 -21M342 1462L308 1403M342 1462L375 1419M406 51L497 55M406 51L357 113M406 51L415 149M406 51L375 -21M406 1491L375 1419M497 55L572 41M497 55L514 134M572 41L598 105M572 41L642 99M572 41L535 -46M572 41L651 -4M572 1481L535 1394M572 1481L651 1436M670 71L742 34M670 71L598 105M670 71L642 99M670 71L686 164M670 71L651 -4M670 1511L651 1436M742 34L651 -4M742 34L748 -78M742 1474L651 1436M742 1474L748 1362M855 10L939 7M855 10L921 84M855 10L900 -88M855 10L817 -64M855 10L933 -43M855 1450L900 1352M855 1450L817 1376M855 1450L933 1397M939 7L1013 21M939 7L921 84M939 7L933 -43M939 7L1009 -55M939 1447L933 1397M939 1447L1009 1385M1013 21L1086 62M1013 21L1019 90M1013 21L1009 -55M1013 21L1070 -6M1013 1461L1009 1385M1013 1461L1070 1434M1086 62L1019 90M1086 62L1067 106M1086 62L1161 124M1086 62L1070 -6M1086 1502L1070 1434M1164 3L1212 42M1164 3L1070 -6M1164 3L1196 -20M1164 3L1252 -11M1164 1443L1070 1434M1164 1443L1196 1420M1164 1443L1252 1429M1212 42L1161 124M1212 42L1272 90M1212 42L1196 -20M1212 42L1252 -11M1212 1482L1196 1420M1212 1482L1252 1429M1326 67L1377 9M1326 67L1272 90M1326 67L1330 158M1326 67L1370 106M1326 67L1252 -11M1326 1507L1252 1429M1377 9L1349 -75M1377 9L1394 -57M1377 9L1476 -36M1377 1449L1349 1365M1377 1449L1394 1383M1377 1449L1476 1404M1509 56L1575 51M1509 56L1457 96M1509 56L1556 134M1509 56L1476 -36M1509 56L1588 -13M1509 1496L1476 1404M1509 1496L1588 1427M1575 51L1606 23M1575 51L1556 134M1575 51L1650 116M1575 51L1588 -13M1575 1491L1588 1427M1606 23L1588 -13M1606 23L1633 -59M1606 1463L1588 1427M1606 1463L1633 1381M1712 7L1685 86M1712 7L1754 -85M1712 7L1696 -70M1712 1447L1754 1355M1712 1447L1696 1370M1817 8L1844 17M1817 8L1860 90M1817 8L1838 -88M1817 8L1819 -38M1817 8L1874 -22M1817 1448L1838 1352M1817 1448L1819 1402M1817 1448L1874 1418M1844 17L1826 101M1844 17L1860 90M1844 17L1819 -38M1844 17L1874 -22M1844 1457L1819 1402M1844 1457L1874 1418M1982 16L2018 68M1982 16L1998 113M1982 16L2044 99M1982 16L1983 -11M1982 16L2019 -59M1982 1456L1983 1429M1982 1456L2019 1381M2018 68L1998 113M2018 68L2044 99M2018 68L2039 170M2018 68L1983 -11M2018 1508L1983 1429M2135 11L2177 34M2135 11L2157 93M2135 11L2135 -38M2135 11L2217 -41M2135 1451L2135 1402M2135 1451L2217 1399M2177 34L2157 93M2177 34L2228 88M2177 34L2135 -38M2177 34L2217 -41M2177 1474L2135 1402M2177 1474L2217 1399M2248 79L2358 54M2248 79L2157 93M2248 79L2228 88M2248 79L2244 115M2248 79L2337 85M2358 54L2425 32M2358 54L2337 85M2358 54L2313 -15M2358 54L2371 -27M2358 1494L2313 1425M2358 1494L2371 1413M2425 32L2337 85M2425 32L2468 127M2425 32L2371 -27M2425 1472L2371 1413M2540 16L2529 92M2540 16L2607 -51M2540 16L2477 -61M2540 16L2545 -8M-20 16L47 -51M-20 1456L47 1389M2540 1456L2607 1389M2540 1456L2477 1379M2540 1456L2545 1432M35 141L-31 92M35 141L71 164M35 141L107 226M35 141L-5 200M2595 141L2529 92M2595 141L2555 200M153 83L180 136M153 83L71 164M180 136L281 160M180 136L169 238M281 160L357 113M281 160L314 233M281 160L367 229M357 113L415 149M415 149L367 229M415 149L472 189M514 134L598 105M514 134L472 189M514 134L517 205M514 134L501 242M598 105L642 99M598 105L636 175M642 99L636 175M642 99L686 164M787 139L836 115M787 139L686 164M787 139L797 194M787 139L862 194M836 115L921 84M836 115L797 194M836 115L862 194M836 115L908 170M921 84L1019 90M921 84L908 170M1019 90L1067 106M1067 106L1161 124M1067 106L1030 213M1067 106L1060 188M1161 124L1155 216M1161 124L1239 204M1272 90L1330 158M1272 90L1252 -11M1272 1530L1252 1429M1330 158L1370 106M1330 158L1354 201M1330 158L1389 188M1370 106L1457 96M1370 106L1354 201M1370 106L1389 188M1457 96L1556 134M1556 134L1650 116M1556 134L1550 224M1650 116L1685 86M1650 116L1665 211M1650 116L1715 179M1826 101L1860 90M1826 101L1789 195M1826 101L1871 217M1860 90L1789 195M1860 90L1874 -22M1860 1530L1874 1418M1998 113L2044 99M1998 113L1998 165M1998 113L2039 170M2044 99L1998 165M2044 99L2039 170M2157 93L2228 88M2157 93L2244 115M2228 88L2244 115M2244 115L2331 166M2337 85L2331 166M2337 85L2313 -15M2337 1525L2313 1425M2468 127L2529 92M2468 127L2403 218M2468 127L2555 200M2468 127L2483 251M71 164L107 226M71 164L-5 200M2631 164L2555 200M107 226L169 238M107 226L40 317M107 226L81 291M169 238L81 291M169 238L221 292M169 238L231 326M314 233L367 229M314 233L221 292M314 233L283 303M472 189L517 205M472 189L501 242M517 205L501 242M636 175L686 164M636 175L652 294M797 194L862 194M797 194L908 170M797 194L831 297M862 194L908 170M862 194L891 264M908 170L891 264M1030 213L1060 188M1030 213L965 286M1030 213L1096 271M1030 213L1138 242M1060 188L1096 271M1060 188L1138 242M1155 216L1239 204M1155 216L1096 271M1155 216L1138 242M1239 204L1230 283M1354 201L1389 188M1354 201L1320 283M1354 201L1393 260M1389 188L1393 260M1500 227L1550 224M1500 227L1516 292M1500 227L1470 327M1550 224L1516 292M1550 224L1589 254M1550 224L1651 254M1665 211L1715 179M1665 211L1589 254M1665 211L1651 254M1665 211L1722 299M1715 179L1789 195M1715 179L1651 254M1715 179L1770 266M1789 195L1871 217M1789 195L1770 266M1871 217L1770 266M1871 217L1919 301M1998 165L2039 170M1998 165L1985 253M2039 170L1985 253M2136 239L2220 238M2136 239L2080 276M2136 239L2162 319M2220 238L2266 213M2220 238L2264 300M2220 238L2334 241M2266 213L2331 166M2266 213L2264 300M2266 213L2334 241M2331 166L2403 218M2331 166L2334 241M2403 218L2334 241M2403 218L2470 276M2403 218L2483 251M2555 200L2470 276M2555 200L2483 251M40 317L81 291M40 317L27 382M40 317L129 375M40 317L-3 414M2600 317L2557 414M81 291L27 382M81 291L129 375M221 292L283 303M221 292L231 326M283 303L376 316M283 303L231 326M283 303L308 339M376 316L455 302M376 316L308 339M376 316L383 358M376 316L412 356M455 302L501 242M455 302L383 358M455 302L412 356M455 302L492 360M501 242L571 310M571 310L652 294M571 310L492 360M571 310L612 399M652 294L680 371M784 319L831 297M784 319L740 374M784 319L821 347M831 297L891 264M831 297L821 347M831 297L910 324M891 264L965 286M891 264L910 324M965 286L910 324M965 286L1035 345M1096 271L1138 242M1096 271L1035 345M1138 242L1230 283M1230 283L1320 283M1230 283L1185 361M1230 283L1270 347M1320 283L1393 260M1320 283L1270 347M1320 283L1370 361M1393 260L1370 361M1393 260L1470 327M1516 292L1589 254M1516 292L1470 327M1516 292L1549 335M1589 254L1651 254M1589 254L1549 335M1651 254L1722 299M1722 299L1770 266M1722 299L1717 386M1770 266L1835 370M1919 301L1985 253M1919 301L1835 370M1919 301L1879 352M1919 301L1976 376M1985 253L2063 311M1985 253L2080 276M2063 311L2080 276M2063 311L2162 319M2063 311L2025 364M2063 311L2137 340M2080 276L2162 319M2080 276L2137 340M2162 319L2137 340M2162 319L2175 384M2264 300L2334 241M2264 300L2301 357M2470 276L2483 251M2470 276L2375 342M2470 276L2488 332M2483 251L2488 332M27 382L40 428M27 382L-3 414M2587 382L2557 414M129 375L137 428M129 375L214 422M231 326L308 339M231 326L214 422M308 339L383 358M383 358L412 356M383 358L372 408M412 356L492 360M412 356L372 408M492 360L553 454M612 399L680 371M612 399L553 454M612 399L636 421M612 399L680 439M680 371L740 374M680 371L636 421M680 371L680 439M740 374L821 347M740 374L680 439M740 374L785 450M821 347L910 324M821 347L805 431M1035 345L1119 371M1035 345L1025 449M1119 371L1185 361M1119 371L1071 470M1119 371L1139 433M1185 361L1270 347M1185 361L1139 433M1185 361L1226 447M1270 347L1306 377M1270 347L1282 418M1306 377L1370 361M1306 377L1282 418M1306 377L1377 456M1370 361L1282 418M1370 361L1377 456M1470 327L1549 335M1470 327L1479 410M1549 335L1607 398M1549 335L1479 410M1607 398L1566 453M1607 398L1654 427M1607 398L1702 451M1717 386L1654 427M1717 386L1702 451M1717 386L1779 403M1835 370L1879 352M1835 370L1779 403M1835 370L1881 427M1879 352L1976 376M1879 352L1779 403M1879 352L1881 427M1976 376L2025 364M1976 376L1981 457M1976 376L2024 472M2025 364L1981 457M2137 340L2175 384M2137 340L2153 421M2175 384L2153 421M2301 357L2375 342M2301 357L2420 416M2375 342L2451 398M2375 342L2420 416M2451 398L2488 332M2451 398L2420 416M2451 398L2557 414M2488 332L2420 416M2488 332L2557 414M40 428L137 428M40 428L-3 414M2600 428L2557 414M137 428L214 422M137 428L134 509M137 428L178 499M214 422L312 461M214 422L178 499M312 461L372 408M312 461L427 474M312 461L251 528M312 461L346 481M372 408L427 474M372 408L346 481M427 474L346 481M427 474L424 560M553 454L636 421M553 454L558 532M553 454L567 497M636 421L680 439M636 421L567 497M680 439L720 525M785 450L805 431M785 450L720 525M785 450L764 505M785 450L853 524M805 431L764 505M940 457L1025 449M940 457L893 544M1025 449L1071 470M1025 449L1069 494M1071 470L1139 433M1071 470L1069 494M1071 470L1145 506M1139 433L1226 447M1139 433L1145 506M1226 447L1282 418M1226 447L1224 515M1226 447L1283 543M1282 418L1377 456M1377 456L1479 410M1377 456L1426 542M1479 410L1566 453M1479 410L1547 512M1566 453L1654 427M1566 453L1547 512M1654 427L1702 451M1702 451L1779 403M1702 451L1749 494M1779 403L1749 494M1981 457L2024 472M1981 457L1953 545M1981 457L2030 485M2024 472L2030 485M2024 472L2112 487M2153 421L2198 476M2153 421L2112 487M2153 421L2185 513M2198 476L2271 475M2198 476L2112 487M2198 476L2185 513M2198 476L2241 511M2271 475L2339 471M2271 475L2241 511M2271 475L2312 561M2339 471L2420 416M2339 471L2365 551M2339 471L2312 561M76 548L134 509M76 548L19 623M76 548L84 608M134 509L178 499M134 509L199 573M178 499L251 528M178 499L199 573M251 528L346 481M251 528L199 573M251 528L245 572M346 481L424 560M424 560L375 609M424 560L463 600M424 560L501 607M558 532L567 497M558 532L501 607M558 532L600 575M567 497L600 575M720 525L764 505M720 525L676 591M720 525L730 639M764 505L853 524M764 505L820 575M853 524L893 544M853 524L820 575M853 524L907 564M893 544L820 575M893 544L907 564M893 544L924 641M998 556L1069 494M998 556L980 635M998 556L1057 617M1069 494L1145 506M1069 494L1121 569M1145 506L1224 515M1145 506L1121 569M1224 515L1283 543M1224 515L1210 600M1283 543L1210 600M1283 543L1303 618M1426 542L1465 546M1426 542L1393 577M1426 542L1455 621M1465 546L1547 512M1465 546L1393 577M1465 546L1455 621M1465 546L1551 639M1547 512L1654 555M1654 555L1658 620M1654 555L1731 583M1749 494L1800 546M1749 494L1731 583M1749 494L1770 584M1800 546L1849 559M1800 546L1731 583M1800 546L1770 584M1800 546L1856 614M1849 559L1953 545M1849 559L1770 584M1849 559L1856 614M1849 559L1928 588M1953 545L2030 485M1953 545L1928 588M1953 545L2044 589M2030 485L2112 487M2030 485L2044 589M2112 487L2185 513M2185 513L2241 511M2185 513L2188 597M2241 511L2188 597M2241 511L2312 561M2365 551L2455 556M2365 551L2312 561M2365 551L2330 583M2365 551L2447 608M2455 556L2502 547M2455 556L2447 608M2455 556L2505 603M2455 556L2420 648M2502 547L2447 608M2502 547L2505 603M19 623L84 608M19 623L-55 603M19 623L49 662M19 623L-4 692M2579 623L2505 603M2579 623L2556 692M84 608L49 662M84 608L129 687M199 573L245 572M199 573L210 650M245 572L210 650M245 572L261 688M375 609L463 600M375 609L391 702M375 609L410 707M463 600L501 607M463 600L545 680M501 607L600 575M501 607L545 680M600 575L676 591M600 575L615 664M676 591L730 639M676 591L615 664M676 591L700 666M730 639L820 575M730 639L700 666M730 639L743 708M820 575L907 564M907 564L980 635M907 564L924 641M980 635L1057 617M980 635L924 641M980 635L999 687M1057 617L1121 569M1057 617L1093 686M1057 617L1120 649M1121 569L1210 600M1121 569L1120 649M1210 600L1303 618M1210 600L1231 704M1303 618L1393 577M1303 618L1347 671M1303 618L1385 654M1393 577L1455 621M1393 577L1385 654M1455 621L1551 639M1455 621L1385 654M1551 639L1658 620M1551 639L1596 701M1551 639L1611 668M1658 620L1731 583M1658 620L1611 668M1658 620L1720 674M1731 583L1770 584M1770 584L1856 614M1856 614L1928 588M1856 614L1787 692M2044 589L2092 632M2044 589L2058 677M2044 589L2115 648M2092 632L2188 597M2092 632L2058 677M2092 632L2115 648M2092 632L2047 723M2188 597L2115 648M2188 597L2194 646M2312 561L2330 583M2330 583L2322 674M2330 583L2420 648M2447 608L2505 603M2447 608L2420 648M2505 603L2420 648M49 662L129 687M49 662L-4 692M49 662L40 735M2609 662L2556 692M129 687L210 650M129 687L110 748M210 650L261 688M210 650L224 742M261 688L224 742M261 688L267 735M391 702L410 707M391 702L330 762M391 702L403 745M391 702L413 813M410 707L403 745M410 707L413 813M545 680L615 664M545 680L532 756M545 680L574 758M615 664L700 666M615 664L574 758M700 666L743 708M743 708L851 708M743 708L696 773M743 708L748 764M851 708L924 641M851 708L827 784M851 708L954 793M924 641L999 687M999 687L1093 686M999 687L969 788M999 687L1079 740M1093 686L1120 649M1093 686L1079 740M1120 649L1079 740M1231 704L1191 766M1231 704L1223 765M1231 704L1288 762M1347 671L1385 654M1347 671L1452 706M1385 654L1452 706M1452 706L1409 787M1452 706L1465 749M1596 701L1611 668M1596 701L1589 752M1596 701L1625 759M1611 668L1589 752M1611 668L1625 759M1720 674L1787 692M1720 674L1691 750M1787 692L1792 800M1912 718L1955 711M1912 718L1914 746M1912 718L1930 777M1912 718L2047 723M1955 711L2058 677M1955 711L1914 746M1955 711L1930 777M1955 711L2047 723M2058 677L2115 648M2058 677L2047 723M2115 648L2194 646M2194 646L2257 694M2194 646L2322 674M2194 646L2203 736M2257 694L2322 674M2257 694L2203 736M2257 694L2296 793M2322 674L2420 648M2556 692L2600 735M2556 692L2550 768M-4 692L40 735M40 735L110 748M40 735L-10 768M40 735L79 808M2600 735L2550 768M110 748L224 742M110 748L79 808M110 748L142 840M224 742L267 735M267 735L330 762M330 762L403 745M330 762L297 853M330 762L351 821M403 745L351 821M403 745L413 813M532 756L574 758M532 756L486 821M574 758L486 821M574 758L631 854M696 773L748 764M696 773L631 854M696 773L677 849M748 764L827 784M748 764L760 831M748 764L804 846M827 784L760 831M827 784L804 846M954 793L969 788M954 793L956 864M954 793L1015 814M954 793L952 893M969 788L956 864M969 788L1015 814M969 788L952 893M1191 766L1223 765M1191 766L1288 762M1191 766L1179 853M1191 766L1224 832M1223 765L1288 762M1223 765L1224 832M1288 762L1224 832M1288 762L1315 800M1409 787L1465 749M1409 787L1315 800M1409 787L1425 842M1409 787L1435 888M1465 749L1425 842M1465 749L1480 854M1589 752L1625 759M1589 752L1691 750M1589 752L1616 835M1625 759L1691 750M1625 759L1616 835M1691 750L1792 800M1691 750L1693 844M1792 800L1693 844M1792 800L1816 856M1792 800L1861 818M1914 746L1930 777M1914 746L1861 818M1914 746L1947 861M1930 777L1861 818M1930 777L1947 861M2047 723L2148 770M2148 770L2203 736M2148 770L2076 866M2148 770L2148 808M2148 770L2202 825M2203 736L2148 808M2203 736L2202 825M2296 793L2202 825M2296 793L2290 839M2296 793L2332 806M2296 793L2311 893M2397 774L2426 782M2397 774L2332 806M2426 782L2332 806M2426 782L2465 865M2550 768L2639 808M2550 768L2465 865M2550 768L2517 863M-10 768L79 808M79 808L142 840M79 808L174 857M142 840L174 857M142 840L196 905M174 857L297 853M174 857L142 934M174 857L196 905M297 853L351 821M297 853L266 912M297 853L374 939M351 821L413 813M413 813L486 821M486 821L533 910M631 854L677 849M631 854L583 899M631 854L661 942M677 849L760 831M760 831L804 846M760 831L765 920M804 846L765 920M804 846L844 927M956 864L1015 814M956 864L952 893M1015 814L1112 852M1015 814L952 893M1112 852L1179 853M1112 852L1091 881M1112 852L1172 882M1179 853L1224 832M1179 853L1091 881M1179 853L1172 882M1224 832L1172 882M1425 842L1480 854M1425 842L1435 888M1425 842L1495 922M1480 854L1542 847M1480 854L1435 888M1480 854L1495 922M1542 847L1616 835M1542 847L1495 922M1542 847L1521 940M1616 835L1693 844M1616 835L1618 952M1693 844L1731 936M1816 856L1861 818M1816 856L1830 950M1816 856L1862 894M1861 818L1862 894M1947 861L1862 894M1947 861L1986 927M2076 866L2148 808M2076 866L1986 927M2076 866L2043 930M2076 866L2152 918M2148 808L2202 825M2202 825L2290 839M2290 839L2332 806M2290 839L2311 893M2290 839L2320 938M2332 806L2311 893M2465 865L2517 863M2465 865L2461 894M2465 865L2484 929M2517 863L2461 894M2517 863L2484 929M60 933L142 934M60 933L31 1002M142 934L196 905M142 934L156 1000M142 934L164 994M196 905L266 912M196 905L156 1000M266 912L284 1018M374 939L474 959M374 939L326 1017M374 939L435 1023M474 959L533 910M474 959L435 1023M474 959L538 1012M533 910L583 899M533 910L586 978M583 899L661 942M583 899L586 978M661 942L586 978M661 942L675 984M661 942L722 1026M765 920L844 927M765 920L675 984M844 927L845 1035M844 927L892 1015M844 927L859 1044M952 893L993 985M1035 952L1091 881M1035 952L993 985M1035 952L1089 977M1035 952L1003 1048M1091 881L1172 882M1091 881L1089 977M1172 882L1162 995M1271 937L1345 948M1271 937L1267 1014M1271 937L1281 985M1345 948L1281 985M1345 948L1370 997M1435 888L1495 922M1435 888L1521 940M1495 922L1521 940M1521 940L1618 952M1521 940L1534 1035M1618 952L1731 936M1618 952L1661 1004M1618 952L1624 1055M1731 936L1661 1004M1830 950L1862 894M1830 950L1834 1018M1830 950L1873 991M1986 927L2043 930M1986 927L1944 986M1986 927L2022 1031M2043 930L2152 918M2043 930L2103 986M2152 918L2202 944M2152 918L2103 986M2152 918L2181 1018M2202 944L2320 938M2202 944L2181 1018M2311 893L2320 938M2311 893L2317 960M2320 938L2317 960M2320 938L2381 1016M2461 894L2484 929M31 1002L-14 1028M2591 1002L2546 1028M156 1000L164 994M156 1000L126 1096M156 1000L166 1082M164 994L126 1096M164 994L166 1082M284 1018L326 1017M284 1018L316 1081M326 1017L316 1081M326 1017L395 1058M435 1023L538 1012M435 1023L395 1058M435 1023L449 1071M538 1012L586 978M538 1012L538 1067M538 1012L611 1045M586 978L611 1045M675 984L722 1026M675 984L611 1045M675 984L648 1056M722 1026L648 1056M722 1026L786 1048M845 1035L892 1015M845 1035L786 1048M845 1035L859 1044M845 1035L915 1048M892 1015L859 1044M892 1015L915 1048M993 985L1089 977M993 985L915 1048M993 985L1003 1048M1089 977L1162 995M1089 977L1003 1048M1162 995L1267 1014M1162 995L1170 1087M1162 995L1217 1085M1267 1014L1281 985M1267 1014L1217 1085M1267 1014L1299 1059M1281 985L1370 997M1281 985L1299 1059M1370 997L1299 1059M1370 997L1426 1053M1494 1036L1534 1035M1494 1036L1426 1053M1494 1036L1492 1102M1494 1036L1524 1075M1534 1035L1492 1102M1534 1035L1524 1075M1534 1035L1624 1055M1661 1004L1740 1038M1661 1004L1624 1055M1661 1004L1725 1060M1740 1038L1834 1018M1740 1038L1725 1060M1740 1038L1834 1059M1740 1038L1738 1141M1834 1018L1873 991M1834 1018L1834 1059M1834 1018L1852 1116M1873 991L1944 986M1873 991L1834 1059M1873 991L1929 1040M1944 986L2022 1031M1944 986L1929 1040M1944 986L2038 1060M2022 1031L2103 986M2022 1031L1929 1040M2022 1031L2038 1060M2103 986L2181 1018M2103 986L2141 1044M2181 1018L2141 1044M2181 1018L2161 1099M2317 960L2381 1016M2381 1016L2459 1039M2381 1016L2395 1105M2381 1016L2460 1041M2459 1039L2546 1028M2459 1039L2395 1105M2459 1039L2460 1041M2459 1039L2483 1101M2546 1028L2628 1101M2546 1028L2460 1041M-14 1028L68 1101M68 1101L126 1096M68 1101L166 1082M126 1096L166 1082M126 1096L125 1181M166 1082L125 1181M316 1081L395 1058M316 1081L307 1172M316 1081L339 1134M395 1058L449 1071M395 1058L339 1134M449 1071L538 1067M449 1071L439 1195M538 1067L611 1045M538 1067L648 1056M538 1067L559 1151M611 1045L648 1056M648 1056L682 1133M786 1048L859 1044M859 1044L915 1048M915 1048L1003 1048M1003 1048L971 1141M1107 1108L1170 1087M1107 1108L1079 1175M1107 1108L1138 1186M1107 1108L1094 1210M1170 1087L1217 1085M1170 1087L1138 1186M1170 1087L1245 1156M1217 1085L1299 1059M1217 1085L1245 1156M1299 1059L1332 1125M1426 1053L1492 1102M1426 1053L1524 1075M1426 1053L1374 1146M1492 1102L1524 1075M1492 1102L1455 1166M1524 1075L1624 1055M1624 1055L1661 1126M1725 1060L1661 1126M1725 1060L1738 1141M1834 1059L1852 1116M1834 1059L1929 1040M1852 1116L1827 1192M1852 1116L1855 1199M1852 1116L1948 1150M1929 1040L1948 1150M2038 1060L2141 1044M2141 1044L2161 1099M2141 1044L2126 1138M2161 1099L2126 1138M2161 1099L2239 1164M2295 1097L2239 1164M2295 1097L2291 1152M2395 1105L2483 1101M2395 1105L2366 1181M2395 1105L2410 1140M2460 1041L2483 1101M2460 1041L2410 1140M2483 1101L2410 1140M2483 1101L2501 1166M64 1196L125 1181M64 1196L6 1208M64 1196L-0 1239M64 1196L75 1289M2624 1196L2560 1239M125 1181L200 1200M125 1181L143 1257M200 1200L307 1172M200 1200L143 1257M200 1200L222 1232M200 1200L262 1275M307 1172L339 1134M307 1172L222 1232M307 1172L349 1202M339 1134L439 1195M339 1134L349 1202M439 1195L349 1202M439 1195L454 1274M439 1195L538 1214M559 1151L592 1174M559 1151L538 1214M559 1151L570 1213M592 1174L682 1133M592 1174L538 1214M592 1174L570 1213M592 1174L681 1214M682 1133L749 1195M682 1133L681 1214M749 1195L849 1193M749 1195L681 1214M749 1195L732 1238M749 1195L841 1218M849 1193L924 1144M849 1193L841 1218M849 1193L955 1233M924 1144L971 1141M924 1144L955 1233M971 1141L1079 1175M971 1141L955 1233M1079 1175L1138 1186M1079 1175L1094 1210M1138 1186L1094 1210M1138 1186L1178 1248M1245 1156L1332 1125M1245 1156L1249 1213M1332 1125L1374 1146M1374 1146L1455 1166M1374 1146L1337 1236M1455 1166L1469 1262M1590 1178L1661 1126M1590 1178L1581 1277M1590 1178L1639 1277M1661 1126L1738 1141M1661 1126L1740 1200M1738 1141L1740 1200M1827 1192L1855 1199M1827 1192L1740 1200M1827 1192L1816 1225M1827 1192L1875 1216M1855 1199L1816 1225M1855 1199L1875 1216M1855 1199L1846 1284M1948 1150L2060 1177M1948 1150L1875 1216M1948 1150L2042 1202M2060 1177L2126 1138M2060 1177L2042 1202M2126 1138L2168 1211M2239 1164L2291 1152M2239 1164L2168 1211M2239 1164L2298 1228M2291 1152L2366 1181M2291 1152L2298 1228M2366 1181L2410 1140M2366 1181L2298 1228M2366 1181L2418 1273M2410 1140L2501 1166M2501 1166L2566 1208M2501 1166L2560 1239M-59 1166L6 1208M6 1208L-0 1239M6 1208L75 1289M2566 1208L2560 1239M143 1257L222 1232M143 1257L75 1289M143 1257L93 1335M222 1232L262 1275M262 1275L224 1338M262 1275L308 1352M262 1275L331 1317M349 1202L331 1317M454 1274L538 1214M454 1274L423 1318M454 1274L556 1327M454 1274L439 1372M538 1214L570 1213M681 1214L732 1238M732 1238L841 1218M732 1238L744 1319M841 1218L833 1310M955 1233L993 1278M955 1233L1030 1296M993 1278L1030 1296M1094 1210L1178 1248M1094 1210L1030 1296M1178 1248L1249 1213M1178 1248L1180 1296M1178 1248L1267 1291M1249 1213L1337 1236M1249 1213L1180 1296M1249 1213L1267 1291M1337 1236L1383 1276M1337 1236L1267 1291M1337 1236L1330 1332M1383 1276L1469 1262M1383 1276L1330 1332M1383 1276L1429 1335M1469 1262L1429 1335M1469 1262L1512 1311M1469 1262L1561 1296M1581 1277L1639 1277M1581 1277L1512 1311M1581 1277L1561 1296M1581 1277L1602 1307M1639 1277L1561 1296M1639 1277L1602 1307M1639 1277L1633 1381M1740 1200L1816 1225M1816 1225L1875 1216M1816 1225L1846 1284M1875 1216L1846 1284M1937 1274L1928 1303M2042 1202L2064 1303M2150 1265L2168 1211M2150 1265L2064 1303M2150 1265L2128 1314M2150 1265L2234 1308M2168 1211L2128 1314M2168 1211L2234 1308M2298 1228L2366 1272M2298 1228L2297 1287M2366 1272L2418 1273M2366 1272L2297 1287M2366 1272L2343 1326M2366 1272L2431 1341M2418 1273L2343 1326M2418 1273L2431 1341M2560 1239L2635 1289M2560 1239L2530 1333M-0 1239L75 1289M75 1289L93 1335M93 1335L47 1389M93 1335L88 1400M93 1335L168 1363M224 1338L308 1352M224 1338L168 1363M308 1352L331 1317M308 1352L308 1403M308 1352L375 1419M331 1317L423 1318M331 1317L308 1403M423 1318L439 1372M556 1327L608 1328M556 1327L654 1320M556 1327L535 1394M556 1327L588 1366M608 1328L654 1320M608 1328L535 1394M608 1328L588 1366M654 1320L744 1319M654 1320L588 1366M654 1320L748 1362M744 1319L833 1310M744 1319L748 1362M744 1319L817 1376M833 1310L900 1352M833 1310L748 1362M833 1310L817 1376M900 1352L817 1376M900 1352L933 1397M1030 1296L1095 1348M1030 1296L1009 1385M1095 1348L1180 1296M1095 1348L1070 1434M1180 1296L1267 1291M1267 1291L1330 1332M1330 1332L1349 1365M1330 1332L1394 1383M1429 1335L1512 1311M1429 1335L1394 1383M1429 1335L1476 1404M1512 1311L1561 1296M1512 1311L1602 1307M1561 1296L1602 1307M1602 1307L1633 1381M1754 1355L1838 1352M1754 1355L1696 1370M1754 1355L1819 1402M1838 1352L1846 1284M1838 1352L1819 1402M1838 1352L1874 1418M1846 1284L1928 1303M1928 1303L2019 1381M2064 1303L2128 1314M2064 1303L2019 1381M2128 1314L2234 1308M2128 1314L2135 1402M2234 1308L2297 1287M2234 1308L2217 1399M2297 1287L2343 1326M2343 1326L2431 1341M2343 1326L2371 1413M2431 1341L2530 1333M2431 1341L2477 1379M2530 1333L2607 1389M2530 1333L2477 1379M2530 1333L2545 1432M-30 1333L47 1389M47 1389L88 1400M47 1389L-15 1432M2607 1389L2545 1432M88 1400L168 1363M308 1403L375 1419M375 1419L439 1372M439 1372L535 1394M535 1394L588 1366M588 1366L651 1436M748 1362L817 1376M933 1397L1009 1385M1009 1385L1070 1434M1196 1420L1252 1429M1349 1365L1394 1383M1394 1383L1476 1404M1476 1404L1588 1427M1588 1427L1633 1381M1633 1381L1696 1370M1819 1402L1874 1418M1983 1429L2019 1381M2019 1381L2135 1402M2135 1402L2217 1399M2217 1399L2313 1425M2313 1425L2371 1413M2371 1413L2477 1379M2477 1379L2545 1432"/></svg>