<svg xmlns="http://www.w3.org/2000/svg" width="2560" height="1440" fill="#fff"><circle cx="33" cy="76" r="5"/><circle cx="96" cy="27" r="5"/><circle cx="229" cy="21" r="6"/><circle cx="265" cy="20" r="5"/><circle cx="335" cy="19" r="4"/><circle cx="418" cy="10" r="5"/><circle cx="537" cy="17" r="5"/><circle cx="582" cy="51" r="6"/><circle cx="702" cy="1" r="4"/><circle cx="702" cy="1441" r="4"/><circle cx="791" cy="37" r="5"/><circle cx="868" cy="79" r="5"/><circle cx="954" cy="5" r="5"/><circle cx="954" cy="1445" r="5"/><circle cx="976" cy="43" r="5"/><circle cx="1083" cy="49" r="4"/><circle cx="1153" cy="30" r="5"/><circle cx="1206" cy="19" r="6"/><circle cx="1300" cy="61" r="5"/><circle cx="1365" cy="35" r="5"/><circle cx="1493" cy="2" r="6"/><circle cx="1493" cy="1442" r="6"/><circle cx="1584" cy="56" r="5"/><circle cx="1631" cy="39" r="5"/><circle cx="1728" cy="22" r="5"/><circle cx="1816" cy="30" r="4"/><circle cx="1867" cy="52" r="6"/><circle cx="1925" cy="44" r="6"/><circle cx="2042" cy="9" r="6"/><circle cx="2142" cy="43" r="5"/><circle cx="2212" cy="63" r="5"/><circle cx="2272" cy="9" r="5"/><circle cx="2342" cy="3" r="5"/><circle cx="2342" cy="1443" r="5"/><circle cx="2447" cy="63" r="6"/><circle cx="2544" cy="24" r="4"/><circle cx="22" cy="122" r="5"/><circle cx="155" cy="156" r="5"/><circle cx="175" cy="103" r="6"/><circle cx="274" cy="99" r="6"/><circle cx="349" cy="122" r="6"/><circle cx="441" cy="83" r="5"/><circle cx="529" cy="140" r="4"/><circle cx="604" cy="98" r="4"/><circle cx="717" cy="152" r="4"/><circle cx="751" cy="131" r="5"/><circle cx="814" cy="140" r="6"/><circle cx="905" cy="129" r="6"/><circle cx="1012" cy="149" r="5"/><circle cx="1114" cy="132" r="4"/><circle cx="1191" cy="100" r="6"/><circle cx="1268" cy="118" r="4"/><circle cx="1288" cy="144" r="5"/><circle cx="1407" cy="115" r="5"/><circle cx="1451" cy="91" r="5"/><circle cx="1589" cy="122" r="5"/><circle cx="1604" cy="106" r="5"/><circle cx="1724" cy="144" r="5"/><circle cx="1781" cy="156" r="4"/><circle cx="1891" cy="114" r="5"/><circle cx="1979" cy="99" r="5"/><circle cx="2023" cy="89" r="5"/><circle cx="2139" cy="142" r="5"/><circle cx="2163" cy="123" r="5"/><circle cx="2241" cy="118" r="5"/><circle cx="2336" cy="86" r="6"/><circle cx="2457" cy="139" r="5"/><circle cx="2540" cy="135" r="6"/><circle cx="46" cy="224" r="5"/><circle cx="108" cy="188" r="5"/><circle cx="190" cy="236" r="5"/><circle cx="318" cy="186" r="5"/><circle cx="388" cy="171" r="4"/><circle cx="470" cy="213" r="6"/><circle cx="492" cy="202" r="6"/><circle cx="596" cy="166" r="4"/><circle cx="684" cy="171" r="6"/><circle cx="759" cy="208" r="5"/><circle cx="803" cy="215" r="4"/><circle cx="914" cy="165" r="5"/><circle cx="969" cy="192" r="5"/><circle cx="1044" cy="175" r="4"/><circle cx="1183" cy="209" r="5"/><circle cx="1278" cy="197" r="4"/><circle cx="1332" cy="211" r="5"/><circle cx="1414" cy="175" r="6"/><circle cx="1515" cy="214" r="6"/><circle cx="1546" cy="207" r="4"/><circle cx="1629" cy="176" r="4"/><circle cx="1752" cy="200" r="6"/><circle cx="1790" cy="215" r="6"/><circle cx="1855" cy="174" r="4"/><circle cx="1938" cy="181" r="6"/><circle cx="2074" cy="218" r="5"/><circle cx="2117" cy="235" r="5"/><circle cx="2204" cy="179" r="6"/><circle cx="2252" cy="192" r="6"/><circle cx="2325" cy="210" r="4"/><circle cx="2475" cy="181" r="5"/><circle cx="2524" cy="160" r="4"/><circle cx="57" cy="247" r="5"/><circle cx="156" cy="244" r="5"/><circle cx="176" cy="278" r="6"/><circle cx="244" cy="261" r="5"/><circle cx="388" cy="310" r="5"/><circle cx="459" cy="249" r="6"/><circle cx="502" cy="282" r="4"/><circle cx="590" cy="256" r="4"/><circle cx="655" cy="254" r="5"/><circle cx="734" cy="276" r="4"/><circle cx="860" cy="286" r="5"/><circle cx="896" cy="245" r="4"/><circle cx="1016" cy="306" r="5"/><circle cx="1097" cy="243" r="5"/><circle cx="1164" cy="240" r="6"/><circle cx="1223" cy="276" r="5"/><circle cx="1296" cy="242" r="5"/><circle cx="1398" cy="320" r="6"/><circle cx="1467" cy="311" r="4"/><circle cx="1553" cy="285" r="5"/><circle cx="1622" cy="306" r="6"/><circle cx="1724" cy="262" r="5"/><circle cx="1773" cy="315" r="5"/><circle cx="1898" cy="301" r="5"/><circle cx="1962" cy="306" r="4"/><circle cx="2072" cy="295" r="4"/><circle cx="2129" cy="266" r="6"/><circle cx="2200" cy="258" r="4"/><circle cx="2275" cy="274" r="5"/><circle cx="2325" cy="256" r="6"/><circle cx="2479" cy="299" r="4"/><circle cx="2504" cy="298" r="6"/><circle cx="44" cy="359" r="6"/><circle cx="109" cy="354" r="4"/><circle cx="233" cy="376" r="6"/><circle cx="314" cy="373" r="5"/><circle cx="359" cy="329" r="5"/><circle cx="443" cy="356" r="5"/><circle cx="489" cy="363" r="4"/><circle cx="585" cy="368" r="4"/><circle cx="713" cy="320" r="4"/><circle cx="723" cy="369" r="4"/><circle cx="843" cy="324" r="6"/><circle cx="888" cy="328" r="5"/><circle cx="983" cy="380" r="6"/><circle cx="1107" cy="391" r="5"/><circle cx="1131" cy="380" r="4"/><circle cx="1272" cy="396" r="5"/><circle cx="1346" cy="327" r="5"/><circle cx="1404" cy="327" r="6"/><circle cx="1456" cy="371" r="6"/><circle cx="1563" cy="331" r="5"/><circle cx="1654" cy="396" r="4"/><circle cx="1759" cy="335" r="6"/><circle cx="1805" cy="371" r="5"/><circle cx="1859" cy="336" r="4"/><circle cx="1968" cy="368" r="4"/><circle cx="2079" cy="378" r="4"/><circle cx="2104" cy="351" r="6"/><circle cx="2213" cy="356" r="5"/><circle cx="2300" cy="353" r="5"/><circle cx="2399" cy="398" r="5"/><circle cx="2446" cy="325" r="4"/><circle cx="2493" cy="394" r="5"/><circle cx="54" cy="433" r="6"/><circle cx="119" cy="440" r="4"/><circle cx="193" cy="405" r="6"/><circle cx="305" cy="421" r="5"/><circle cx="388" cy="431" r="5"/><circle cx="459" cy="431" r="4"/><circle cx="548" cy="476" r="6"/><circle cx="592" cy="460" r="6"/><circle cx="702" cy="411" r="6"/><circle cx="762" cy="477" r="5"/><circle cx="837" cy="420" r="4"/><circle cx="947" cy="465" r="6"/><circle cx="1021" cy="402" r="5"/><circle cx="1064" cy="416" r="4"/><circle cx="1155" cy="456" r="4"/><circle cx="1208" cy="457" r="5"/><circle cx="1338" cy="464" r="4"/><circle cx="1431" cy="448" r="4"/><circle cx="1477" cy="428" r="5"/><circle cx="1524" cy="404" r="5"/><circle cx="1661" cy="459" r="5"/><circle cx="1726" cy="401" r="4"/><circle cx="1778" cy="480" r="6"/><circle cx="1846" cy="454" r="5"/><circle cx="1940" cy="439" r="5"/><circle cx="2012" cy="422" r="5"/><circle cx="2154" cy="411" r="5"/><circle cx="2197" cy="433" r="6"/><circle cx="2314" cy="433" r="5"/><circle cx="2324" cy="455" r="4"/><circle cx="2454" cy="423" r="5"/><circle cx="2537" cy="433" r="4"/><circle cx="77" cy="543" r="5"/><circle cx="150" cy="529" r="6"/><circle cx="194" cy="522" r="4"/><circle cx="284" cy="489" r="6"/><circle cx="325" cy="550" r="5"/><circle cx="435" cy="540" r="5"/><circle cx="484" cy="547" r="6"/><circle cx="624" cy="546" r="6"/><circle cx="673" cy="537" r="5"/><circle cx="731" cy="487" r="5"/><circle cx="833" cy="544" r="6"/><circle cx="936" cy="539" r="4"/><circle cx="989" cy="556" r="5"/><circle cx="1041" cy="495" r="5"/><circle cx="1137" cy="506" r="5"/><circle cx="1206" cy="516" r="4"/><circle cx="1283" cy="515" r="4"/><circle cx="1397" cy="540" r="6"/><circle cx="1487" cy="517" r="6"/><circle cx="1569" cy="509" r="5"/><circle cx="1626" cy="506" r="5"/><circle cx="1697" cy="524" r="6"/><circle cx="1798" cy="505" r="5"/><circle cx="1909" cy="487" r="4"/><circle cx="1955" cy="515" r="5"/><circle cx="2035" cy="491" r="5"/><circle cx="2118" cy="555" r="6"/><circle cx="2215" cy="503" r="5"/><circle cx="2273" cy="512" r="6"/><circle cx="2326" cy="511" r="4"/><circle cx="2431" cy="494" r="5"/><circle cx="2513" cy="539" r="5"/><circle cx="60" cy="589" r="5"/><circle cx="117" cy="633" r="5"/><circle cx="161" cy="586" r="4"/><circle cx="269" cy="570" r="6"/><circle cx="354" cy="568" r="5"/><circle cx="479" cy="630" r="6"/><circle cx="514" cy="601" r="5"/><circle cx="581" cy="590" r="4"/><circle cx="680" cy="576" r="5"/><circle cx="751" cy="638" r="5"/><circle cx="867" cy="615" r="4"/><circle cx="953" cy="569" r="6"/><circle cx="1018" cy="569" r="5"/><circle cx="1082" cy="606" r="5"/><circle cx="1152" cy="572" r="4"/><circle cx="1237" cy="595" r="5"/><circle cx="1356" cy="603" r="6"/><circle cx="1363" cy="632" r="4"/><circle cx="1516" cy="586" r="5"/><circle cx="1582" cy="578" r="6"/><circle cx="1628" cy="594" r="5"/><circle cx="1703" cy="626" r="4"/><circle cx="1837" cy="606" r="5"/><circle cx="1871" cy="578" r="4"/><circle cx="1932" cy="638" r="4"/><circle cx="2005" cy="596" r="5"/><circle cx="2104" cy="567" r="5"/><circle cx="2180" cy="612" r="6"/><circle cx="2244" cy="583" r="5"/><circle cx="2393" cy="588" r="4"/><circle cx="2457" cy="596" r="5"/><circle cx="2537" cy="614" r="5"/><circle cx="19" cy="665" r="6"/><circle cx="149" cy="664" r="4"/><circle cx="237" cy="681" r="5"/><circle cx="252" cy="719" r="5"/><circle cx="324" cy="666" r="4"/><circle cx="404" cy="670" r="6"/><circle cx="559" cy="687" r="6"/><circle cx="582" cy="703" r="4"/><circle cx="668" cy="691" r="5"/><circle cx="800" cy="690" r="6"/><circle cx="824" cy="716" r="5"/><circle cx="956" cy="712" r="6"/><circle cx="987" cy="704" r="6"/><circle cx="1055" cy="683" r="6"/><circle cx="1121" cy="654" r="4"/><circle cx="1260" cy="686" r="6"/><circle cx="1302" cy="672" r="6"/><circle cx="1390" cy="687" r="6"/><circle cx="1443" cy="706" r="5"/><circle cx="1547" cy="643" r="4"/><circle cx="1677" cy="647" r="5"/><circle cx="1692" cy="645" r="5"/><circle cx="1763" cy="717" r="6"/><circle cx="1882" cy="692" r="5"/><circle cx="1941" cy="678" r="4"/><circle cx="2039" cy="702" r="4"/><circle cx="2110" cy="642" r="5"/><circle cx="2179" cy="670" r="4"/><circle cx="2316" cy="709" r="6"/><circle cx="2323" cy="649" r="5"/><circle cx="2415" cy="675" r="4"/><circle cx="2519" cy="690" r="6"/><circle cx="72" cy="746" r="5"/><circle cx="105" cy="767" r="5"/><circle cx="226" cy="773" r="5"/><circle cx="242" cy="760" r="5"/><circle cx="346" cy="773" r="5"/><circle cx="448" cy="725" r="4"/><circle cx="505" cy="748" r="5"/><circle cx="568" cy="728" r="6"/><circle cx="659" cy="760" r="5"/><circle cx="741" cy="772" r="5"/><circle cx="824" cy="725" r="4"/><circle cx="934" cy="729" r="5"/><circle cx="1017" cy="775" r="6"/><circle cx="1100" cy="778" r="5"/><circle cx="1121" cy="759" r="5"/><circle cx="1206" cy="791" r="5"/><circle cx="1333" cy="765" r="5"/><circle cx="1410" cy="730" r="5"/><circle cx="1510" cy="736" r="5"/><circle cx="1523" cy="728" r="5"/><circle cx="1671" cy="768" r="4"/><circle cx="1731" cy="745" r="5"/><circle cx="1804" cy="723" r="4"/><circle cx="1866" cy="786" r="5"/><circle cx="1935" cy="770" r="6"/><circle cx="2007" cy="785" r="4"/><circle cx="2129" cy="761" r="5"/><circle cx="2231" cy="764" r="4"/><circle cx="2293" cy="785" r="6"/><circle cx="2323" cy="781" r="4"/><circle cx="2417" cy="780" r="6"/><circle cx="2559" cy="771" r="5"/><circle cx="-1" cy="771" r="5"/><circle cx="69" cy="851" r="5"/><circle cx="112" cy="871" r="6"/><circle cx="196" cy="820" r="6"/><circle cx="314" cy="872" r="6"/><circle cx="394" cy="858" r="5"/><circle cx="475" cy="808" r="5"/><circle cx="505" cy="869" r="5"/><circle cx="574" cy="834" r="5"/><circle cx="679" cy="859" r="6"/><circle cx="755" cy="873" r="6"/><circle cx="818" cy="862" r="5"/><circle cx="908" cy="841" r="5"/><circle cx="967" cy="865" r="5"/><circle cx="1070" cy="848" r="5"/><circle cx="1187" cy="815" r="5"/><circle cx="1244" cy="863" r="5"/><circle cx="1336" cy="816" r="4"/><circle cx="1437" cy="855" r="5"/><circle cx="1470" cy="829" r="5"/><circle cx="1553" cy="803" r="6"/><circle cx="1657" cy="825" r="5"/><circle cx="1697" cy="850" r="6"/><circle cx="1828" cy="864" r="6"/><circle cx="1859" cy="874" r="5"/><circle cx="1982" cy="812" r="4"/><circle cx="2005" cy="826" r="6"/><circle cx="2153" cy="841" r="4"/><circle cx="2204" cy="837" r="5"/><circle cx="2268" cy="828" r="6"/><circle cx="2383" cy="802" r="6"/><circle cx="2428" cy="871" r="4"/><circle cx="2496" cy="812" r="4"/><circle cx="67" cy="902" r="5"/><circle cx="97" cy="885" r="6"/><circle cx="215" cy="952" r="5"/><circle cx="269" cy="887" r="5"/><circle cx="389" cy="949" r="5"/><circle cx="402" cy="892" r="5"/><circle cx="484" cy="907" r="6"/><circle cx="636" cy="944" r="5"/><circle cx="699" cy="901" r="5"/><circle cx="798" cy="896" r="5"/><circle cx="823" cy="916" r="6"/><circle cx="914" cy="884" r="6"/><circle cx="965" cy="952" r="6"/><circle cx="1067" cy="952" r="6"/><circle cx="1131" cy="960" r="6"/><circle cx="1264" cy="917" r="5"/><circle cx="1310" cy="947" r="5"/><circle cx="1419" cy="944" r="5"/><circle cx="1482" cy="908" r="5"/><circle cx="1531" cy="928" r="5"/><circle cx="1667" cy="938" r="6"/><circle cx="1704" cy="946" r="5"/><circle cx="1771" cy="917" r="5"/><circle cx="1850" cy="882" r="4"/><circle cx="1921" cy="914" r="4"/><circle cx="2070" cy="920" r="6"/><circle cx="2115" cy="952" r="6"/><circle cx="2164" cy="953" r="6"/><circle cx="2244" cy="901" r="6"/><circle cx="2384" cy="929" r="5"/><circle cx="2463" cy="938" r="4"/><circle cx="2547" cy="949" r="6"/><circle cx="20" cy="994" r="5"/><circle cx="130" cy="1032" r="5"/><circle cx="191" cy="1006" r="4"/><circle cx="315" cy="971" r="4"/><circle cx="366" cy="1028" r="5"/><circle cx="464" cy="971" r="5"/><circle cx="505" cy="996" r="5"/><circle cx="620" cy="989" r="5"/><circle cx="660" cy="963" r="6"/><circle cx="777" cy="1004" r="4"/><circle cx="808" cy="985" r="4"/><circle cx="924" cy="974" r="5"/><circle cx="960" cy="1014" r="4"/><circle cx="1078" cy="1019" r="4"/><circle cx="1131" cy="1021" r="5"/><circle cx="1271" cy="966" r="4"/><circle cx="1341" cy="996" r="5"/><circle cx="1414" cy="982" r="5"/><circle cx="1492" cy="1000" r="6"/><circle cx="1599" cy="985" r="5"/><circle cx="1655" cy="996" r="4"/><circle cx="1717" cy="970" r="5"/><circle cx="1821" cy="1021" r="5"/><circle cx="1841" cy="1004" r="5"/><circle cx="1973" cy="1012" r="6"/><circle cx="2079" cy="968" r="5"/><circle cx="2126" cy="1012" r="6"/><circle cx="2213" cy="974" r="4"/><circle cx="2315" cy="1007" r="4"/><circle cx="2396" cy="989" r="5"/><circle cx="2451" cy="1000" r="6"/><circle cx="2512" cy="1004" r="4"/><circle cx="75" cy="1067" r="5"/><circle cx="135" cy="1049" r="5"/><circle cx="238" cy="1080" r="4"/><circle cx="286" cy="1093" r="5"/><circle cx="329" cy="1083" r="5"/><circle cx="460" cy="1083" r="6"/><circle cx="506" cy="1062" r="4"/><circle cx="595" cy="1060" r="4"/><circle cx="695" cy="1062" r="4"/><circle cx="738" cy="1042" r="4"/><circle cx="855" cy="1064" r="5"/><circle cx="924" cy="1046" r="4"/><circle cx="1016" cy="1065" r="5"/><circle cx="1054" cy="1103" r="4"/><circle cx="1152" cy="1103" r="5"/><circle cx="1251" cy="1043" r="5"/><circle cx="1296" cy="1079" r="6"/><circle cx="1410" cy="1117" r="6"/><circle cx="1494" cy="1086" r="5"/><circle cx="1554" cy="1058" r="5"/><circle cx="1619" cy="1092" r="4"/><circle cx="1758" cy="1065" r="4"/><circle cx="1815" cy="1052" r="6"/><circle cx="1916" cy="1066" r="4"/><circle cx="1936" cy="1060" r="6"/><circle cx="2045" cy="1060" r="5"/><circle cx="2151" cy="1053" r="5"/><circle cx="2203" cy="1071" r="4"/><circle cx="2307" cy="1064" r="5"/><circle cx="2382" cy="1064" r="5"/><circle cx="2445" cy="1092" r="5"/><circle cx="2484" cy="1053" r="6"/><circle cx="54" cy="1164" r="5"/><circle cx="140" cy="1196" r="5"/><circle cx="189" cy="1123" r="4"/><circle cx="260" cy="1178" r="5"/><circle cx="384" cy="1124" r="5"/><circle cx="452" cy="1166" r="5"/><circle cx="497" cy="1167" r="6"/><circle cx="582" cy="1165" r="5"/><circle cx="644" cy="1171" r="6"/><circle cx="771" cy="1194" r="5"/><circle cx="804" cy="1181" r="4"/><circle cx="929" cy="1193" r="5"/><circle cx="1012" cy="1152" r="6"/><circle cx="1101" cy="1155" r="6"/><circle cx="1164" cy="1161" r="4"/><circle cx="1273" cy="1169" r="6"/><circle cx="1356" cy="1161" r="6"/><circle cx="1435" cy="1171" r="5"/><circle cx="1511" cy="1147" r="4"/><circle cx="1576" cy="1136" r="5"/><circle cx="1630" cy="1178" r="5"/><circle cx="1719" cy="1136" r="6"/><circle cx="1799" cy="1174" r="4"/><circle cx="1868" cy="1199" r="4"/><circle cx="1934" cy="1166" r="4"/><circle cx="2067" cy="1137" r="4"/><circle cx="2143" cy="1152" r="5"/><circle cx="2197" cy="1187" r="6"/><circle cx="2317" cy="1145" r="4"/><circle cx="2387" cy="1154" r="5"/><circle cx="2425" cy="1140" r="4"/><circle cx="2503" cy="1180" r="4"/><circle cx="72" cy="1221" r="5"/><circle cx="131" cy="1263" r="6"/><circle cx="197" cy="1216" r="6"/><circle cx="268" cy="1231" r="6"/><circle cx="390" cy="1219" r="4"/><circle cx="410" cy="1252" r="5"/><circle cx="485" cy="1264" r="4"/><circle cx="577" cy="1269" r="5"/><circle cx="709" cy="1232" r="6"/><circle cx="766" cy="1249" r="5"/><circle cx="810" cy="1268" r="4"/><circle cx="914" cy="1242" r="5"/><circle cx="970" cy="1209" r="6"/><circle cx="1066" cy="1227" r="6"/><circle cx="1157" cy="1236" r="5"/><circle cx="1228" cy="1231" r="5"/><circle cx="1350" cy="1211" r="4"/><circle cx="1364" cy="1271" r="4"/><circle cx="1505" cy="1251" r="5"/><circle cx="1590" cy="1262" r="5"/><circle cx="1637" cy="1244" r="5"/><circle cx="1688" cy="1280" r="5"/><circle cx="1820" cy="1276" r="6"/><circle cx="1848" cy="1208" r="5"/><circle cx="1994" cy="1206" r="4"/><circle cx="2009" cy="1237" r="4"/><circle cx="2132" cy="1280" r="6"/><circle cx="2233" cy="1259" r="4"/><circle cx="2302" cy="1274" r="4"/><circle cx="2393" cy="1211" r="5"/><circle cx="2430" cy="1201" r="6"/><circle cx="2529" cy="1206" r="4"/><circle cx="48" cy="1320" r="4"/><circle cx="107" cy="1303" r="5"/><circle cx="219" cy="1303" r="5"/><circle cx="311" cy="1305" r="5"/><circle cx="363" cy="1326" r="5"/><circle cx="408" cy="1349" r="5"/><circle cx="496" cy="1326" r="5"/><circle cx="608" cy="1356" r="6"/><circle cx="674" cy="1356" r="4"/><circle cx="766" cy="1332" r="6"/><circle cx="805" cy="1307" r="5"/><circle cx="957" cy="1352" r="5"/><circle cx="964" cy="1339" r="5"/><circle cx="1049" cy="1345" r="5"/><circle cx="1166" cy="1347" r="5"/><circle cx="1212" cy="1342" r="5"/><circle cx="1333" cy="1293" r="6"/><circle cx="1407" cy="1300" r="6"/><circle cx="1446" cy="1302" r="5"/><circle cx="1544" cy="1303" r="4"/><circle cx="1665" cy="1322" r="4"/><circle cx="1722" cy="1306" r="5"/><circle cx="1832" cy="1336" r="4"/><circle cx="1853" cy="1357" r="4"/><circle cx="1980" cy="1347" r="4"/><circle cx="2013" cy="1330" r="4"/><circle cx="2099" cy="1320" r="5"/><circle cx="2216" cy="1308" r="5"/><circle cx="2311" cy="1319" r="4"/><circle cx="2360" cy="1305" r="6"/><circle cx="2429" cy="1349" r="4"/><circle cx="2545" cy="1303" r="5"/><circle cx="49" cy="1412" r="6"/><circle cx="154" cy="1365" r="5"/><circle cx="225" cy="1411" r="5"/><circle cx="246" cy="1432" r="6"/><circle cx="368" cy="1432" r="6"/><circle cx="432" cy="1397" r="5"/><circle cx="481" cy="1393" r="5"/><circle cx="611" cy="1376" r="4"/><circle cx="682" cy="1365" r="5"/><circle cx="722" cy="1424" r="5"/><circle cx="832" cy="1436" r="6"/><circle cx="832" cy="-4" r="6"/><circle cx="886" cy="1364" r="4"/><circle cx="969" cy="1405" r="5"/><circle cx="1050" cy="1428" r="4"/><circle cx="1168" cy="1435" r="4"/><circle cx="1225" cy="1386" r="4"/><circle cx="1313" cy="1414" r="4"/><circle cx="1427" cy="1411" r="4"/><circle cx="1472" cy="1361" r="6"/><circle cx="1591" cy="1372" r="5"/><circle cx="1634" cy="1401" r="5"/><circle cx="1714" cy="1392" r="6"/><circle cx="1771" cy="1422" r="5"/><circle cx="1897" cy="1418" r="4"/><circle cx="1999" cy="1421" r="5"/><circle cx="2016" cy="1388" r="6"/><circle cx="2148" cy="1389" r="5"/><circle cx="2190" cy="1389" r="6"/><circle cx="2303" cy="1419" r="6"/><circle cx="2322" cy="1402" r="5"/><circle cx="2454" cy="1369" r="6"/><circle cx="2498" cy="1411" r="6"/><path stroke="#fff" d="M33 76L96 27M33 76L-16 24M33 76L22 122M33 76L-20 135M33 76L49 -28M2593 76L2544 24M2593 76L2540 135M33 1516L49 1412M96 27L175 103M96 27L49 -28M96 27L154 -75M96 1467L49 1412M96 1467L154 1365M229 21L265 20M229 21L175 103M229 21L274 99M229 21L225 -29M229 21L246 -8M229 1461L225 1411M229 1461L246 1432M265 20L335 19M265 20L274 99M265 20L225 -29M265 20L246 -8M265 1460L225 1411M265 1460L246 1432M335 19L418 10M335 19L246 -8M335 19L368 -8M335 1459L246 1432M335 1459L368 1432M418 10L441 83M418 10L368 -8M418 10L432 -43M418 10L481 -47M418 1450L368 1432M418 1450L432 1397M418 1450L481 1393M537 17L582 51M537 17L441 83M537 17L604 98M537 17L608 -84M537 17L481 -47M537 1457L608 1356M537 1457L481 1393M582 51L529 140M582 51L604 98M582 51L596 166M582 51L611 -64M582 1491L611 1376M702 1L791 37M702 1L722 -16M702 1L832 -4M702 1441L722 1424M702 1441L832 1436M791 37L868 79M791 37L722 -16M791 37L832 -4M791 1477L722 1424M791 1477L832 1436M868 79L814 140M868 79L905 129M868 79L914 165M868 79L832 -4M868 1519L832 1436M954 5L976 43M954 5L957 -88M954 5L964 -101M954 5L969 -35M954 5L1050 -12M954 1445L957 1352M954 1445L964 1339M954 1445L969 1405M954 1445L1050 1428M976 43L1012 149M976 43L969 -35M976 43L1050 -12M976 1483L969 1405M976 1483L1050 1428M1083 49L1153 30M1083 49L1114 132M1083 49L1050 -12M1083 1489L1050 1428M1153 30L1206 19M1153 30L1191 100M1153 30L1168 -5M1153 1470L1168 1435M1206 19L1300 61M1206 19L1191 100M1206 19L1168 -5M1206 19L1225 -54M1206 1459L1168 1435M1206 1459L1225 1386M1300 61L1365 35M1300 61L1268 118M1300 61L1288 144M1300 61L1313 -26M1300 1501L1313 1414M1365 35L1407 115M1365 35L1451 91M1365 35L1313 -26M1365 35L1427 -29M1365 1475L1313 1414M1365 1475L1427 1411M1493 2L1584 56M1493 2L1451 91M1493 2L1427 -29M1493 2L1472 -79M1493 2L1591 -68M1493 1442L1427 1411M1493 1442L1472 1361M1493 1442L1591 1372M1584 56L1631 39M1584 56L1589 122M1584 56L1604 106M1584 56L1634 -39M1584 1496L1634 1401M1631 39L1728 22M1631 39L1589 122M1631 39L1604 106M1631 39L1634 -39M1631 1479L1634 1401M1728 22L1816 30M1728 22L1714 -48M1728 22L1771 -18M1728 1462L1714 1392M1728 1462L1771 1422M1816 30L1867 52M1816 30L1771 -18M1816 30L1897 -22M1816 1470L1771 1422M1816 1470L1897 1418M1867 52L1925 44M1867 52L1891 114M1867 52L1771 -18M1867 52L1897 -22M1867 1492L1771 1422M1867 1492L1897 1418M1925 44L1891 114M1925 44L1979 99M1925 44L1897 -22M1925 44L1999 -19M1925 1484L1897 1418M1925 1484L1999 1421M2042 9L2142 43M2042 9L1979 99M2042 9L2023 89M2042 9L1999 -19M2042 9L2016 -52M2042 1449L1999 1421M2042 1449L2016 1388M2142 43L2212 63M2142 43L2163 123M2142 43L2148 -51M2142 43L2190 -51M2142 1483L2148 1389M2142 1483L2190 1389M2212 63L2272 9M2212 63L2163 123M2212 63L2241 118M2272 9L2342 3M2272 9L2190 -51M2272 9L2303 -21M2272 9L2322 -38M2272 1449L2190 1389M2272 1449L2303 1419M2272 1449L2322 1402M2342 3L2336 86M2342 3L2303 -21M2342 3L2322 -38M2342 1443L2303 1419M2342 1443L2322 1402M2447 63L2544 24M2447 63L2336 86M2447 63L2457 139M2447 63L2498 -29M2447 1503L2498 1411M2544 24L2582 122M2544 24L2609 -28M2544 24L2498 -29M-16 24L22 122M-16 24L49 -28M-16 1464L49 1412M2544 1464L2609 1412M2544 1464L2498 1411M22 122L-20 135M22 122L46 224M22 122L-36 160M2582 122L2540 135M2582 122L2524 160M155 156L175 103M155 156L108 188M155 156L190 236M155 156L156 244M175 103L274 99M274 99L349 122M274 99L318 186M349 122L441 83M349 122L318 186M349 122L388 171M529 140L604 98M529 140L470 213M529 140L492 202M529 140L596 166M604 98L596 166M717 152L751 131M717 152L684 171M717 152L759 208M751 131L814 140M751 131L684 171M751 131L803 215M814 140L905 129M814 140L759 208M814 140L803 215M905 129L1012 149M905 129L914 165M905 129L969 192M1012 149L914 165M1012 149L969 192M1012 149L1044 175M1114 132L1191 100M1114 132L1044 175M1114 132L1164 240M1191 100L1268 118M1268 118L1288 144M1268 118L1278 197M1288 144L1278 197M1288 144L1332 211M1288 144L1296 242M1407 115L1451 91M1407 115L1414 175M1451 91L1414 175M1589 122L1604 106M1589 122L1546 207M1589 122L1629 176M1604 106L1629 176M1724 144L1781 156M1724 144L1629 176M1724 144L1752 200M1781 156L1752 200M1781 156L1790 215M1781 156L1855 174M1891 114L1979 99M1891 114L1855 174M1891 114L1938 181M1979 99L2023 89M1979 99L1938 181M2023 89L1938 181M2139 142L2163 123M2139 142L2074 218M2139 142L2117 235M2139 142L2204 179M2163 123L2241 118M2163 123L2204 179M2241 118L2336 86M2241 118L2204 179M2241 118L2252 192M2336 86L2303 -21M2336 1526L2303 1419M2457 139L2540 135M2457 139L2475 181M2457 139L2524 160M2540 135L2475 181M2540 135L2524 160M46 224L108 188M46 224L-36 160M46 224L57 247M2606 224L2524 160M108 188L190 236M108 188L57 247M108 188L156 244M190 236L156 244M190 236L176 278M190 236L244 261M318 186L388 171M318 186L244 261M388 171L470 213M388 171L492 202M470 213L492 202M470 213L459 249M470 213L502 282M492 202L459 249M492 202L502 282M596 166L684 171M596 166L590 256M684 171L759 208M684 171L655 254M759 208L803 215M759 208L734 276M803 215L734 276M803 215L860 286M914 165L969 192M914 165L896 245M969 192L1044 175M969 192L896 245M1044 175L1097 243M1183 209L1278 197M1183 209L1097 243M1183 209L1164 240M1183 209L1223 276M1278 197L1332 211M1278 197L1296 242M1332 211L1414 175M1332 211L1296 242M1332 211L1398 320M1414 175L1515 214M1515 214L1546 207M1515 214L1467 311M1515 214L1553 285M1515 214L1563 331M1546 207L1629 176M1546 207L1553 285M1752 200L1790 215M1752 200L1724 262M1790 215L1855 174M1790 215L1724 262M1790 215L1773 315M1855 174L1938 181M1938 181L1898 301M2074 218L2117 235M2074 218L2072 295M2074 218L2129 266M2117 235L2072 295M2117 235L2129 266M2117 235L2200 258M2204 179L2252 192M2204 179L2200 258M2252 192L2325 210M2252 192L2200 258M2252 192L2275 274M2325 210L2275 274M2325 210L2325 256M2475 181L2524 160M2475 181L2479 299M2475 181L2504 298M156 244L176 278M156 244L244 261M176 278L244 261M176 278L109 354M176 278L233 376M244 261L233 376M388 310L459 249M388 310L314 373M388 310L359 329M388 310L443 356M459 249L502 282M502 282L489 363M590 256L655 254M655 254L734 276M655 254L713 320M734 276L713 320M734 276L723 369M860 286L896 245M860 286L843 324M860 286L888 328M896 245L843 324M896 245L888 328M1016 306L1097 243M1016 306L983 380M1097 243L1164 240M1164 240L1223 276M1223 276L1296 242M1296 242L1346 327M1398 320L1467 311M1398 320L1346 327M1398 320L1404 327M1398 320L1456 371M1467 311L1553 285M1467 311L1404 327M1467 311L1456 371M1553 285L1622 306M1553 285L1563 331M1622 306L1724 262M1622 306L1563 331M1622 306L1654 396M1724 262L1773 315M1724 262L1759 335M1773 315L1759 335M1773 315L1805 371M1773 315L1859 336M1898 301L1962 306M1898 301L1859 336M1898 301L1968 368M1962 306L1859 336M1962 306L1968 368M2072 295L2129 266M2072 295L2079 378M2072 295L2104 351M2129 266L2200 258M2129 266L2104 351M2200 258L2275 274M2275 274L2325 256M2275 274L2300 353M2325 256L2300 353M2479 299L2504 298M2479 299L2446 325M2504 298L2604 359M2504 298L2446 325M2504 298L2493 394M-56 298L44 359M44 359L109 354M44 359L54 433M44 359L119 440M44 359L-23 433M2604 359L2537 433M109 354L54 433M109 354L119 440M109 354L193 405M233 376L314 373M233 376L193 405M233 376L305 421M314 373L359 329M314 373L305 421M314 373L388 431M359 329L443 356M359 329L388 431M443 356L489 363M443 356L388 431M443 356L459 431M489 363L585 368M489 363L459 431M585 368L548 476M585 368L592 460M713 320L723 369M713 320L702 411M723 369L702 411M843 324L888 328M843 324L837 420M888 328L983 380M888 328L837 420M983 380L947 465M983 380L1021 402M983 380L1064 416M1107 391L1131 380M1107 391L1021 402M1107 391L1064 416M1107 391L1155 456M1131 380L1064 416M1131 380L1155 456M1272 396L1346 327M1272 396L1208 457M1272 396L1338 464M1346 327L1404 327M1404 327L1456 371M1404 327L1477 428M1456 371L1477 428M1456 371L1524 404M1563 331L1524 404M1654 396L1661 459M1654 396L1726 401M1759 335L1805 371M1759 335L1859 336M1759 335L1726 401M1805 371L1859 336M1805 371L1726 401M1805 371L1846 454M1968 368L2079 378M1968 368L1940 439M1968 368L2012 422M2079 378L2104 351M2079 378L2012 422M2079 378L2154 411M2104 351L2213 356M2104 351L2154 411M2213 356L2300 353M2213 356L2154 411M2213 356L2197 433M2300 353L2314 433M2399 398L2446 325M2399 398L2493 394M2399 398L2314 433M2399 398L2454 423M2399 398L2431 494M2446 325L2493 394M2446 325L2454 423M2493 394L2454 423M2493 394L2537 433M54 433L119 440M54 433L-23 433M54 433L77 543M2614 433L2537 433M119 440L193 405M119 440L150 529M193 405L305 421M305 421L388 431M305 421L284 489M388 431L459 431M459 431L548 476M548 476L592 460M548 476L484 547M548 476L624 546M592 460L702 411M592 460L624 546M592 460L673 537M702 411L762 477M702 411L731 487M762 477L837 420M762 477L673 537M762 477L731 487M762 477L833 544M947 465L1021 402M947 465L936 539M947 465L1041 495M947 465L953 569M1021 402L1064 416M1021 402L1041 495M1064 416L1041 495M1155 456L1208 457M1155 456L1137 506M1208 457L1137 506M1208 457L1206 516M1208 457L1283 515M1338 464L1431 448M1338 464L1283 515M1338 464L1397 540M1431 448L1477 428M1431 448L1524 404M1431 448L1397 540M1431 448L1487 517M1477 428L1524 404M1477 428L1487 517M1661 459L1726 401M1661 459L1569 509M1661 459L1626 506M1661 459L1697 524M1726 401L1778 480M1778 480L1846 454M1778 480L1697 524M1778 480L1798 505M1778 480L1909 487M1846 454L1940 439M1846 454L1798 505M1846 454L1909 487M1940 439L2012 422M1940 439L1909 487M1940 439L1955 515M2012 422L1955 515M2012 422L2035 491M2154 411L2197 433M2197 433L2215 503M2314 433L2324 455M2314 433L2273 512M2314 433L2326 511M2324 455L2273 512M2324 455L2326 511M2454 423L2537 433M2454 423L2431 494M2537 433L2513 539M77 543L150 529M77 543L60 589M77 543L117 633M77 543L161 586M150 529L194 522M150 529L161 586M194 522L284 489M194 522L161 586M194 522L269 570M284 489L325 550M284 489L269 570M284 489L354 568M325 550L435 540M325 550L269 570M325 550L354 568M325 550L324 666M435 540L484 547M435 540L354 568M435 540L479 630M435 540L514 601M484 547L479 630M484 547L514 601M484 547L581 590M624 546L673 537M624 546L581 590M624 546L680 576M673 537L731 487M673 537L680 576M731 487L833 544M731 487L680 576M833 544L936 539M833 544L867 615M936 539L989 556M936 539L953 569M936 539L1018 569M989 556L1041 495M989 556L953 569M989 556L1018 569M989 556L1082 606M1041 495L1018 569M1137 506L1206 516M1137 506L1152 572M1206 516L1283 515M1206 516L1152 572M1206 516L1237 595M1283 515L1237 595M1397 540L1487 517M1397 540L1356 603M1397 540L1363 632M1487 517L1569 509M1487 517L1516 586M1569 509L1626 506M1569 509L1516 586M1569 509L1582 578M1626 506L1697 524M1626 506L1582 578M1626 506L1628 594M1697 524L1798 505M1798 505L1837 606M1798 505L1871 578M1909 487L1955 515M1909 487L1871 578M1955 515L2035 491M1955 515L2005 596M2035 491L2118 555M2035 491L2005 596M2035 491L2104 567M2118 555L2215 503M2118 555L2104 567M2118 555L2180 612M2118 555L2110 642M2215 503L2273 512M2215 503L2244 583M2273 512L2326 511M2273 512L2244 583M2326 511L2244 583M2431 494L2513 539M2431 494L2393 588M2431 494L2457 596M2513 539L2620 589M2513 539L2457 596M2513 539L2537 614M-47 539L60 589M60 589L117 633M60 589L-23 614M60 589L19 665M2620 589L2537 614M117 633L161 586M117 633L19 665M117 633L149 664M161 586L149 664M269 570L354 568M354 568L404 670M479 630L514 601M479 630L404 670M479 630L559 687M514 601L581 590M514 601L559 687M581 590L680 576M680 576L751 638M751 638L668 691M751 638L800 690M751 638L824 716M751 638L824 725M867 615L953 569M867 615L800 690M953 569L1018 569M1018 569L1082 606M1082 606L1152 572M1082 606L1055 683M1082 606L1121 654M1152 572L1237 595M1152 572L1121 654M1237 595L1260 686M1237 595L1302 672M1356 603L1363 632M1356 603L1260 686M1356 603L1302 672M1356 603L1390 687M1363 632L1302 672M1363 632L1390 687M1516 586L1582 578M1516 586L1547 643M1582 578L1628 594M1582 578L1547 643M1628 594L1703 626M1628 594L1677 647M1628 594L1692 645M1703 626L1677 647M1703 626L1692 645M1837 606L1871 578M1837 606L1932 638M1837 606L1882 692M1871 578L1932 638M1932 638L2005 596M1932 638L1882 692M1932 638L1941 678M2005 596L2104 567M2005 596L1941 678M2104 567L2180 612M2104 567L2110 642M2180 612L2244 583M2180 612L2110 642M2180 612L2179 670M2244 583L2323 649M2393 588L2457 596M2393 588L2323 649M2393 588L2415 675M2457 596L2537 614M2457 596L2415 675M2537 614L2579 665M2537 614L2519 690M-23 614L19 665M19 665L-41 690M19 665L72 746M2579 665L2519 690M149 664L237 681M237 681L252 719M237 681L324 666M237 681L226 773M237 681L242 760M252 719L324 666M252 719L226 773M252 719L242 760M252 719L346 773M324 666L404 670M404 670L346 773M404 670L448 725M559 687L582 703M559 687L505 748M559 687L568 728M582 703L668 691M582 703L505 748M582 703L568 728M582 703L659 760M668 691L659 760M800 690L824 716M800 690L741 772M800 690L824 725M824 716L741 772M824 716L824 725M824 716L934 729M956 712L987 704M956 712L1055 683M956 712L934 729M956 712L1017 775M987 704L1055 683M987 704L934 729M987 704L1017 775M1055 683L1121 654M1055 683L1017 775M1121 654L1121 759M1260 686L1302 672M1260 686L1206 791M1260 686L1333 765M1302 672L1390 687M1390 687L1443 706M1390 687L1410 730M1443 706L1333 765M1443 706L1410 730M1443 706L1510 736M1443 706L1523 728M1547 643L1523 728M1677 647L1692 645M1677 647L1763 717M1692 645L1763 717M1763 717L1671 768M1763 717L1731 745M1763 717L1804 723M1882 692L1941 678M1882 692L1804 723M1941 678L2039 702M1941 678L1935 770M2039 702L2110 642M2039 702L2007 785M2039 702L2129 761M2110 642L2179 670M2179 670L2129 761M2316 709L2323 649M2316 709L2231 764M2316 709L2293 785M2316 709L2323 781M2316 709L2383 802M2323 649L2415 675M2415 675L2519 690M2415 675L2417 780M2519 690L2559 771M72 746L105 767M72 746L-1 771M72 746L69 851M2632 746L2559 771M105 767L-1 771M105 767L69 851M105 767L112 871M105 767L196 820M2665 767L2559 771M226 773L242 760M226 773L196 820M226 773L269 887M242 760L346 773M242 760L196 820M346 773L314 872M448 725L505 748M448 725L475 808M505 748L568 728M505 748L475 808M568 728L659 760M568 728L574 834M659 760L741 772M659 760L679 859M934 729L1017 775M934 729L908 841M1017 775L1100 778M1100 778L1121 759M1100 778L1206 791M1100 778L1070 848M1100 778L1187 815M1121 759L1206 791M1121 759L1070 848M1121 759L1187 815M1206 791L1187 815M1206 791L1244 863M1333 765L1410 730M1333 765L1336 816M1410 730L1510 736M1410 730L1523 728M1510 736L1523 728M1510 736L1470 829M1510 736L1553 803M1523 728L1553 803M1671 768L1731 745M1671 768L1657 825M1671 768L1697 850M1731 745L1804 723M1731 745L1657 825M1804 723L1866 786M1866 786L1935 770M1866 786L1828 864M1866 786L1859 874M1866 786L1850 882M1935 770L2007 785M1935 770L1982 812M1935 770L2005 826M2007 785L1982 812M2007 785L2005 826M2129 761L2153 841M2129 761L2204 837M2231 764L2293 785M2231 764L2204 837M2231 764L2268 828M2293 785L2323 781M2293 785L2268 828M2293 785L2383 802M2323 781L2417 780M2323 781L2268 828M2323 781L2383 802M2417 780L2383 802M2417 780L2428 871M2417 780L2496 812M2559 771L2496 812M69 851L112 871M69 851L67 902M69 851L97 885M112 871L196 820M112 871L67 902M112 871L97 885M196 820L269 887M314 872L394 858M314 872L269 887M314 872L402 892M314 872L315 971M394 858L475 808M394 858L389 949M394 858L402 892M475 808L505 869M475 808L484 907M505 869L574 834M505 869L484 907M574 834L636 944M679 859L755 873M679 859L636 944M679 859L699 901M679 859L660 963M755 873L818 862M755 873L699 901M755 873L798 896M755 873L823 916M818 862L908 841M818 862L798 896M818 862L823 916M908 841L967 865M908 841L914 884M967 865L1070 848M967 865L914 884M967 865L965 952M967 865L924 974M1070 848L1067 952M1070 848L1131 960M1187 815L1244 863M1244 863L1336 816M1244 863L1264 917M1336 816L1437 855M1437 855L1470 829M1437 855L1419 944M1437 855L1482 908M1470 829L1553 803M1470 829L1482 908M1470 829L1531 928M1553 803L1657 825M1657 825L1697 850M1697 850L1667 938M1697 850L1704 946M1697 850L1771 917M1828 864L1859 874M1828 864L1771 917M1828 864L1850 882M1828 864L1921 914M1859 874L1771 917M1859 874L1850 882M1859 874L1921 914M1982 812L2005 826M2005 826L1921 914M2005 826L2070 920M2153 841L2204 837M2153 841L2244 901M2204 837L2268 828M2204 837L2244 901M2268 828L2244 901M2383 802L2428 871M2428 871L2496 812M2428 871L2384 929M2428 871L2463 938M67 902L97 885M67 902L-13 949M67 902L20 994M2627 902L2547 949M215 952L269 887M215 952L130 1032M215 952L191 1006M215 952L315 971M269 887L315 971M389 949L402 892M389 949L315 971M389 949L366 1028M389 949L464 971M402 892L484 907M402 892L464 971M484 907L464 971M484 907L505 996M636 944L699 901M636 944L620 989M636 944L660 963M699 901L798 896M699 901L660 963M798 896L823 916M798 896L808 985M823 916L914 884M823 916L808 985M914 884L965 952M914 884L924 974M965 952L1067 952M965 952L924 974M965 952L960 1014M1067 952L1131 960M1067 952L1078 1019M1067 952L1131 1021M1131 960L1078 1019M1131 960L1131 1021M1264 917L1310 947M1264 917L1271 966M1310 947L1271 966M1310 947L1341 996M1310 947L1251 1043M1419 944L1482 908M1419 944L1341 996M1419 944L1414 982M1419 944L1492 1000M1482 908L1531 928M1531 928L1492 1000M1531 928L1599 985M1667 938L1704 946M1667 938L1599 985M1667 938L1655 996M1667 938L1717 970M1704 946L1771 917M1704 946L1655 996M1704 946L1717 970M1771 917L1717 970M1850 882L1921 914M1921 914L1973 1012M2070 920L2115 952M2070 920L2079 968M2115 952L2164 953M2115 952L2079 968M2115 952L2126 1012M2115 952L2151 1053M2164 953L2244 901M2164 953L2079 968M2164 953L2126 1012M2164 953L2213 974M2244 901L2213 974M2384 929L2463 938M2384 929L2315 1007M2384 929L2396 989M2463 938L2547 949M2463 938L2396 989M2463 938L2451 1000M2547 949L2580 994M2547 949L2512 1004M-13 949L20 994M20 994L-48 1004M20 994L75 1067M20 994L-76 1053M2580 994L2512 1004M2580 994L2484 1053M130 1032L191 1006M130 1032L75 1067M130 1032L135 1049M191 1006L135 1049M191 1006L238 1080M315 971L366 1028M366 1028L329 1083M366 1028L384 1124M464 971L505 996M505 996L620 989M505 996L460 1083M505 996L506 1062M620 989L660 963M620 989L595 1060M620 989L695 1062M660 963L695 1062M777 1004L808 985M777 1004L695 1062M777 1004L738 1042M777 1004L855 1064M808 985L738 1042M808 985L855 1064M924 974L960 1014M924 974L924 1046M960 1014L855 1064M960 1014L924 1046M960 1014L1016 1065M1078 1019L1131 1021M1078 1019L1016 1065M1078 1019L1054 1103M1131 1021L1152 1103M1131 1021L1251 1043M1271 966L1341 996M1271 966L1251 1043M1341 996L1414 982M1341 996L1296 1079M1414 982L1492 1000M1492 1000L1494 1086M1492 1000L1554 1058M1599 985L1655 996M1599 985L1554 1058M1655 996L1717 970M1717 970L1758 1065M1821 1021L1841 1004M1821 1021L1758 1065M1821 1021L1815 1052M1821 1021L1916 1066M1841 1004L1758 1065M1841 1004L1815 1052M1841 1004L1916 1066M1841 1004L1936 1060M1973 1012L1916 1066M1973 1012L1936 1060M1973 1012L2045 1060M2079 968L2126 1012M2079 968L2045 1060M2126 1012L2045 1060M2126 1012L2151 1053M2213 974L2315 1007M2213 974L2151 1053M2213 974L2203 1071M2315 1007L2396 989M2315 1007L2307 1064M2396 989L2451 1000M2396 989L2382 1064M2451 1000L2512 1004M2451 1000L2382 1064M2451 1000L2484 1053M2512 1004L2484 1053M75 1067L135 1049M75 1067L54 1164M135 1049L189 1123M238 1080L286 1093M238 1080L329 1083M238 1080L189 1123M238 1080L260 1178M286 1093L329 1083M286 1093L260 1178M286 1093L384 1124M329 1083L384 1124M460 1083L506 1062M460 1083L384 1124M460 1083L452 1166M460 1083L497 1167M506 1062L595 1060M506 1062L497 1167M595 1060L695 1062M595 1060L582 1165M595 1060L644 1171M695 1062L738 1042M738 1042L855 1064M855 1064L924 1046M924 1046L1016 1065M1016 1065L1054 1103M1016 1065L1012 1152M1054 1103L1152 1103M1054 1103L1012 1152M1054 1103L1101 1155M1152 1103L1251 1043M1152 1103L1101 1155M1152 1103L1164 1161M1251 1043L1296 1079M1296 1079L1410 1117M1296 1079L1273 1169M1296 1079L1356 1161M1410 1117L1494 1086M1410 1117L1356 1161M1410 1117L1435 1171M1410 1117L1511 1147M1494 1086L1554 1058M1494 1086L1511 1147M1494 1086L1576 1136M1554 1058L1619 1092M1554 1058L1576 1136M1619 1092L1576 1136M1619 1092L1630 1178M1619 1092L1719 1136M1758 1065L1815 1052M1758 1065L1719 1136M1815 1052L1916 1066M1815 1052L1936 1060M1916 1066L1936 1060M1936 1060L2045 1060M2045 1060L2067 1137M2151 1053L2203 1071M2151 1053L2143 1152M2203 1071L2307 1064M2203 1071L2143 1152M2203 1071L2197 1187M2307 1064L2382 1064M2307 1064L2317 1145M2382 1064L2445 1092M2445 1092L2484 1053M2445 1092L2387 1154M2445 1092L2425 1140M54 1164L140 1196M54 1164L72 1221M54 1164L-31 1206M2614 1164L2529 1206M140 1196L189 1123M140 1196L72 1221M140 1196L131 1263M140 1196L197 1216M189 1123L260 1178M260 1178L197 1216M260 1178L268 1231M384 1124L452 1166M452 1166L497 1167M452 1166L390 1219M452 1166L410 1252M497 1167L582 1165M497 1167L485 1264M582 1165L644 1171M582 1165L577 1269M644 1171L577 1269M644 1171L709 1232M771 1194L804 1181M771 1194L709 1232M771 1194L766 1249M771 1194L810 1268M804 1181L810 1268M929 1193L914 1242M929 1193L970 1209M1012 1152L1101 1155M1012 1152L970 1209M1012 1152L1066 1227M1101 1155L1164 1161M1101 1155L1066 1227M1164 1161L1273 1169M1164 1161L1157 1236M1164 1161L1228 1231M1273 1169L1356 1161M1273 1169L1228 1231M1273 1169L1350 1211M1356 1161L1435 1171M1356 1161L1350 1211M1435 1171L1511 1147M1435 1171L1350 1211M1435 1171L1505 1251M1511 1147L1576 1136M1576 1136L1630 1178M1630 1178L1719 1136M1630 1178L1590 1262M1630 1178L1637 1244M1719 1136L1799 1174M1799 1174L1868 1199M1799 1174L1848 1208M1868 1199L1934 1166M1868 1199L1820 1276M1868 1199L1848 1208M1934 1166L1848 1208M1934 1166L1994 1206M1934 1166L2009 1237M2067 1137L2143 1152M2067 1137L1994 1206M2067 1137L2009 1237M2143 1152L2197 1187M2197 1187L2132 1280M2197 1187L2233 1259M2317 1145L2387 1154M2317 1145L2393 1211M2387 1154L2425 1140M2387 1154L2393 1211M2387 1154L2430 1201M2425 1140L2503 1180M2425 1140L2393 1211M2425 1140L2430 1201M2503 1180L2430 1201M2503 1180L2529 1206M72 1221L131 1263M72 1221L48 1320M72 1221L107 1303M131 1263L197 1216M131 1263L107 1303M131 1263L219 1303M197 1216L268 1231M197 1216L219 1303M268 1231L219 1303M268 1231L311 1305M390 1219L410 1252M390 1219L485 1264M390 1219L311 1305M410 1252L485 1264M410 1252L363 1326M410 1252L408 1349M485 1264L577 1269M485 1264L496 1326M577 1269L496 1326M577 1269L608 1356M709 1232L766 1249M766 1249L810 1268M766 1249L766 1332M766 1249L805 1307M810 1268L766 1332M810 1268L805 1307M914 1242L970 1209M970 1209L1066 1227M1066 1227L1157 1236M1066 1227L1049 1345M1157 1236L1228 1231M1157 1236L1166 1347M1157 1236L1212 1342M1228 1231L1212 1342M1228 1231L1333 1293M1350 1211L1364 1271M1350 1211L1333 1293M1364 1271L1333 1293M1364 1271L1407 1300M1364 1271L1446 1302M1505 1251L1590 1262M1505 1251L1407 1300M1505 1251L1446 1302M1505 1251L1544 1303M1590 1262L1637 1244M1590 1262L1544 1303M1637 1244L1688 1280M1637 1244L1665 1322M1637 1244L1722 1306M1688 1280L1665 1322M1688 1280L1722 1306M1820 1276L1848 1208M1820 1276L1722 1306M1820 1276L1832 1336M1820 1276L1853 1357M1994 1206L2009 1237M2009 1237L2013 1330M2132 1280L2233 1259M2132 1280L2099 1320M2132 1280L2216 1308M2132 1280L2148 1389M2233 1259L2302 1274M2233 1259L2216 1308M2302 1274L2216 1308M2302 1274L2311 1319M2302 1274L2360 1305M2393 1211L2430 1201M2393 1211L2360 1305M2430 1201L2529 1206M2529 1206L2545 1303M48 1320L107 1303M48 1320L-15 1303M48 1320L49 1412M2608 1320L2545 1303M107 1303L154 1365M219 1303L311 1305M219 1303L154 1365M311 1305L363 1326M363 1326L408 1349M363 1326L368 1432M363 1326L432 1397M408 1349L368 1432M408 1349L432 1397M408 1349L481 1393M496 1326L481 1393M608 1356L674 1356M608 1356L611 1376M608 1356L682 1365M674 1356L611 1376M674 1356L682 1365M674 1356L722 1424M766 1332L805 1307M766 1332L682 1365M766 1332L722 1424M805 1307L832 1436M805 1307L886 1364M957 1352L964 1339M957 1352L1049 1345M957 1352L886 1364M957 1352L969 1405M964 1339L1049 1345M964 1339L886 1364M964 1339L969 1405M1049 1345L1050 1428M1166 1347L1212 1342M1166 1347L1168 1435M1166 1347L1225 1386M1212 1342L1168 1435M1212 1342L1225 1386M1333 1293L1407 1300M1407 1300L1446 1302M1407 1300L1472 1361M1446 1302L1544 1303M1446 1302L1472 1361M1544 1303L1472 1361M1544 1303L1591 1372M1665 1322L1722 1306M1665 1322L1634 1401M1665 1322L1714 1392M1722 1306L1714 1392M1832 1336L1853 1357M1853 1357L1771 1422M1853 1357L1897 1418M1980 1347L2013 1330M1980 1347L1999 1421M1980 1347L2016 1388M2013 1330L2099 1320M2013 1330L1999 1421M2013 1330L2016 1388M2099 1320L2016 1388M2099 1320L2148 1389M2216 1308L2311 1319M2216 1308L2190 1389M2311 1319L2360 1305M2311 1319L2322 1402M2360 1305L2429 1349M2360 1305L2454 1369M2429 1349L2454 1369M2429 1349L2498 1411M2545 1303L2454 1369M49 1412L-62 1411M2609 1412L2498 1411M154 1365L225 1411M154 1365L246 1432M225 1411L246 1432M368 1432L432 1397M432 1397L481 1393M611 1376L682 1365M682 1365L722 1424M832 1436L886 1364M969 1405L1050 1428M1168 1435L1225 1386M1225 1386L1313 1414M1427 1411L1472 1361M1591 1372L1634 1401M1634 1401L1714 1392M1714 1392L1771 1422M1999 1421L2016 1388M2148 1389L2190 1389M2190 1389L2303 1419M2303 1419L2322 1402M2322 1402L2454 1369M2454 1369L2498 1411"/></svg>