<svg xmlns="http://www.w3.org/2000/svg" width="2560" height="1440" fill="#fff"><circle cx="72" cy="37" r="6"/><circle cx="83" cy="29" r="5"/><circle cx="226" cy="27" r="4"/><circle cx="254" cy="61" r="6"/><circle cx="399" cy="33" r="5"/><circle cx="416" cy="21" r="6"/><circle cx="517" cy="31" r="5"/><circle cx="583" cy="4" r="4"/><circle cx="583" cy="1444" r="4"/><circle cx="649" cy="15" r="4"/><circle cx="726" cy="30" r="5"/><circle cx="861" cy="22" r="4"/><circle cx="896" cy="40" r="6"/><circle cx="997" cy="39" r="4"/><circle cx="1054" cy="26" r="6"/><circle cx="1166" cy="26" r="6"/><circle cx="1235" cy="49" r="5"/><circle cx="1312" cy="75" r="5"/><circle cx="1399" cy="18" r="5"/><circle cx="1503" cy="8" r="4"/><circle cx="1581" cy="39" r="6"/><circle cx="1612" cy="42" r="5"/><circle cx="1702" cy="14" r="4"/><circle cx="1809" cy="56" r="5"/><circle cx="1886" cy="1" r="4"/><circle cx="1886" cy="1441" r="4"/><circle cx="1978" cy="56" r="5"/><circle cx="2043" cy="76" r="5"/><circle cx="2081" cy="57" r="5"/><circle cx="2229" cy="21" r="5"/><circle cx="2300" cy="58" r="4"/><circle cx="2397" cy="18" r="4"/><circle cx="2432" cy="9" r="5"/><circle cx="2550" cy="80" r="4"/><circle cx="29" cy="125" r="6"/><circle cx="142" cy="153" r="5"/><circle cx="208" cy="112" r="6"/><circle cx="282" cy="138" r="6"/><circle cx="384" cy="143" r="5"/><circle cx="468" cy="105" r="6"/><circle cx="481" cy="84" r="5"/><circle cx="573" cy="87" r="5"/><circle cx="647" cy="88" r="4"/><circle cx="800" cy="120" r="5"/><circle cx="856" cy="160" r="5"/><circle cx="951" cy="98" r="4"/><circle cx="1027" cy="90" r="4"/><circle cx="1111" cy="88" r="4"/><circle cx="1167" cy="89" r="5"/><circle cx="1253" cy="118" r="5"/><circle cx="1320" cy="143" r="4"/><circle cx="1437" cy="140" r="4"/><circle cx="1477" cy="153" r="5"/><circle cx="1599" cy="133" r="6"/><circle cx="1677" cy="101" r="5"/><circle cx="1704" cy="122" r="5"/><circle cx="1825" cy="149" r="5"/><circle cx="1858" cy="132" r="5"/><circle cx="1988" cy="99" r="5"/><circle cx="2050" cy="116" r="5"/><circle cx="2139" cy="107" r="4"/><circle cx="2198" cy="90" r="5"/><circle cx="2312" cy="121" r="4"/><circle cx="2354" cy="124" r="6"/><circle cx="2466" cy="141" r="4"/><circle cx="2560" cy="119" r="4"/><circle cx="-0" cy="119" r="4"/><circle cx="64" cy="210" r="4"/><circle cx="89" cy="197" r="6"/><circle cx="180" cy="172" r="5"/><circle cx="244" cy="168" r="5"/><circle cx="348" cy="225" r="4"/><circle cx="439" cy="228" r="6"/><circle cx="551" cy="230" r="4"/><circle cx="624" cy="239" r="5"/><circle cx="711" cy="211" r="5"/><circle cx="722" cy="219" r="5"/><circle cx="866" cy="216" r="5"/><circle cx="913" cy="229" r="5"/><circle cx="1009" cy="236" r="4"/><circle cx="1113" cy="221" r="5"/><circle cx="1126" cy="227" r="5"/><circle cx="1254" cy="174" r="4"/><circle cx="1280" cy="194" r="6"/><circle cx="1386" cy="180" r="5"/><circle cx="1464" cy="235" r="5"/><circle cx="1538" cy="179" r="5"/><circle cx="1626" cy="163" r="6"/><circle cx="1743" cy="225" r="5"/><circle cx="1779" cy="228" r="6"/><circle cx="1878" cy="170" r="5"/><circle cx="1933" cy="164" r="5"/><circle cx="2017" cy="188" r="5"/><circle cx="2132" cy="182" r="4"/><circle cx="2231" cy="202" r="5"/><circle cx="2265" cy="209" r="4"/><circle cx="2380" cy="221" r="5"/><circle cx="2402" cy="198" r="5"/><circle cx="2496" cy="230" r="5"/><circle cx="3" cy="260" r="4"/><circle cx="2563" cy="260" r="4"/><circle cx="83" cy="305" r="5"/><circle cx="192" cy="258" r="5"/><circle cx="248" cy="306" r="6"/><circle cx="358" cy="302" r="5"/><circle cx="465" cy="275" r="5"/><circle cx="507" cy="302" r="6"/><circle cx="595" cy="282" r="5"/><circle cx="674" cy="313" r="5"/><circle cx="764" cy="285" r="5"/><circle cx="856" cy="302" r="6"/><circle cx="885" cy="262" r="6"/><circle cx="1004" cy="261" r="5"/><circle cx="1101" cy="281" r="5"/><circle cx="1177" cy="254" r="5"/><circle cx="1259" cy="250" r="6"/><circle cx="1292" cy="282" r="6"/><circle cx="1371" cy="312" r="5"/><circle cx="1510" cy="284" r="4"/><circle cx="1581" cy="251" r="4"/><circle cx="1630" cy="282" r="6"/><circle cx="1712" cy="281" r="5"/><circle cx="1773" cy="243" r="5"/><circle cx="1864" cy="249" r="5"/><circle cx="1992" cy="311" r="6"/><circle cx="2019" cy="257" r="4"/><circle cx="2116" cy="247" r="5"/><circle cx="2214" cy="295" r="6"/><circle cx="2281" cy="287" r="5"/><circle cx="2334" cy="292" r="4"/><circle cx="2433" cy="273" r="6"/><circle cx="2506" cy="246" r="5"/><circle cx="6" cy="358" r="6"/><circle cx="109" cy="395" r="6"/><circle cx="202" cy="364" r="5"/><circle cx="283" cy="340" r="5"/><circle cx="384" cy="364" r="5"/><circle cx="468" cy="395" r="5"/><circle cx="525" cy="354" r="5"/><circle cx="580" cy="379" r="5"/><circle cx="647" cy="384" r="5"/><circle cx="748" cy="349" r="5"/><circle cx="862" cy="384" r="5"/><circle cx="909" cy="387" r="5"/><circle cx="1005" cy="396" r="5"/><circle cx="1120" cy="385" r="4"/><circle cx="1158" cy="343" r="6"/><circle cx="1217" cy="370" r="4"/><circle cx="1294" cy="387" r="6"/><circle cx="1399" cy="348" r="5"/><circle cx="1482" cy="352" r="6"/><circle cx="1552" cy="324" r="6"/><circle cx="1669" cy="379" r="5"/><circle cx="1740" cy="341" r="4"/><circle cx="1819" cy="370" r="6"/><circle cx="1918" cy="386" r="4"/><circle cx="1922" cy="386" r="5"/><circle cx="2037" cy="336" r="4"/><circle cx="2133" cy="381" r="5"/><circle cx="2191" cy="338" r="5"/><circle cx="2276" cy="370" r="5"/><circle cx="2352" cy="340" r="5"/><circle cx="2402" cy="386" r="4"/><circle cx="2505" cy="330" r="5"/><circle cx="45" cy="419" r="6"/><circle cx="118" cy="437" r="5"/><circle cx="230" cy="477" r="4"/><circle cx="264" cy="418" r="5"/><circle cx="322" cy="454" r="5"/><circle cx="459" cy="441" r="5"/><circle cx="526" cy="434" r="4"/><circle cx="636" cy="473" r="5"/><circle cx="646" cy="447" r="6"/><circle cx="773" cy="402" r="6"/><circle cx="819" cy="401" r="5"/><circle cx="893" cy="438" r="6"/><circle cx="982" cy="421" r="6"/><circle cx="1066" cy="407" r="6"/><circle cx="1176" cy="445" r="5"/><circle cx="1227" cy="422" r="6"/><circle cx="1357" cy="406" r="4"/><circle cx="1378" cy="432" r="5"/><circle cx="1518" cy="405" r="5"/><circle cx="1579" cy="456" r="5"/><circle cx="1621" cy="423" r="4"/><circle cx="1692" cy="472" r="4"/><circle cx="1815" cy="468" r="4"/><circle cx="1896" cy="415" r="6"/><circle cx="1995" cy="426" r="6"/><circle cx="2032" cy="400" r="5"/><circle cx="2116" cy="423" r="5"/><circle cx="2166" cy="468" r="6"/><circle cx="2263" cy="454" r="4"/><circle cx="2321" cy="422" r="5"/><circle cx="2470" cy="458" r="6"/><circle cx="2502" cy="417" r="5"/><circle cx="25" cy="520" r="5"/><circle cx="134" cy="482" r="4"/><circle cx="232" cy="491" r="5"/><circle cx="310" cy="509" r="5"/><circle cx="339" cy="532" r="5"/><circle cx="471" cy="540" r="5"/><circle cx="506" cy="500" r="6"/><circle cx="597" cy="531" r="4"/><circle cx="689" cy="549" r="4"/><circle cx="733" cy="546" r="5"/><circle cx="833" cy="540" r="5"/><circle cx="938" cy="537" r="5"/><circle cx="997" cy="489" r="4"/><circle cx="1058" cy="539" r="5"/><circle cx="1187" cy="494" r="4"/><circle cx="1239" cy="553" r="5"/><circle cx="1342" cy="506" r="5"/><circle cx="1379" cy="549" r="5"/><circle cx="1462" cy="510" r="5"/><circle cx="1569" cy="554" r="5"/><circle cx="1616" cy="532" r="4"/><circle cx="1727" cy="539" r="5"/><circle cx="1812" cy="483" r="5"/><circle cx="1911" cy="504" r="4"/><circle cx="1920" cy="491" r="6"/><circle cx="2001" cy="513" r="4"/><circle cx="2096" cy="540" r="6"/><circle cx="2164" cy="549" r="6"/><circle cx="2288" cy="533" r="6"/><circle cx="2344" cy="530" r="4"/><circle cx="2462" cy="492" r="4"/><circle cx="2486" cy="492" r="6"/><circle cx="76" cy="565" r="5"/><circle cx="99" cy="619" r="6"/><circle cx="221" cy="621" r="6"/><circle cx="290" cy="640" r="6"/><circle cx="356" cy="616" r="5"/><circle cx="477" cy="639" r="4"/><circle cx="520" cy="588" r="5"/><circle cx="599" cy="607" r="5"/><circle cx="687" cy="598" r="5"/><circle cx="726" cy="603" r="5"/><circle cx="827" cy="568" r="4"/><circle cx="940" cy="614" r="5"/><circle cx="1007" cy="639" r="6"/><circle cx="1062" cy="617" r="5"/><circle cx="1194" cy="621" r="5"/><circle cx="1209" cy="595" r="4"/><circle cx="1298" cy="624" r="5"/><circle cx="1419" cy="635" r="4"/><circle cx="1496" cy="616" r="5"/><circle cx="1540" cy="616" r="6"/><circle cx="1643" cy="595" r="5"/><circle cx="1682" cy="574" r="6"/><circle cx="1788" cy="613" r="5"/><circle cx="1868" cy="621" r="6"/><circle cx="1952" cy="602" r="5"/><circle cx="2062" cy="599" r="4"/><circle cx="2131" cy="598" r="4"/><circle cx="2179" cy="617" r="5"/><circle cx="2243" cy="574" r="5"/><circle cx="2323" cy="610" r="5"/><circle cx="2416" cy="589" r="5"/><circle cx="2549" cy="636" r="5"/><circle cx="33" cy="650" r="4"/><circle cx="94" cy="701" r="6"/><circle cx="207" cy="676" r="6"/><circle cx="310" cy="667" r="6"/><circle cx="397" cy="709" r="5"/><circle cx="439" cy="651" r="6"/><circle cx="547" cy="642" r="6"/><circle cx="585" cy="645" r="5"/><circle cx="641" cy="717" r="4"/><circle cx="791" cy="702" r="5"/><circle cx="868" cy="719" r="5"/><circle cx="917" cy="699" r="6"/><circle cx="1009" cy="672" r="5"/><circle cx="1054" cy="708" r="4"/><circle cx="1150" cy="676" r="5"/><circle cx="1277" cy="706" r="5"/><circle cx="1334" cy="644" r="5"/><circle cx="1410" cy="708" r="4"/><circle cx="1443" cy="686" r="5"/><circle cx="1555" cy="645" r="6"/><circle cx="1663" cy="703" r="6"/><circle cx="1692" cy="640" r="5"/><circle cx="1790" cy="651" r="6"/><circle cx="1851" cy="647" r="5"/><circle cx="1997" cy="671" r="4"/><circle cx="2055" cy="692" r="6"/><circle cx="2133" cy="650" r="5"/><circle cx="2178" cy="707" r="6"/><circle cx="2293" cy="701" r="5"/><circle cx="2324" cy="706" r="6"/><circle cx="2432" cy="674" r="5"/><circle cx="2548" cy="665" r="5"/><circle cx="53" cy="733" r="5"/><circle cx="139" cy="791" r="4"/><circle cx="185" cy="729" r="4"/><circle cx="280" cy="783" r="5"/><circle cx="377" cy="795" r="4"/><circle cx="405" cy="790" r="4"/><circle cx="484" cy="750" r="5"/><circle cx="583" cy="797" r="4"/><circle cx="673" cy="745" r="6"/><circle cx="747" cy="785" r="5"/><circle cx="862" cy="758" r="4"/><circle cx="919" cy="756" r="5"/><circle cx="1003" cy="786" r="5"/><circle cx="1084" cy="725" r="5"/><circle cx="1200" cy="751" r="6"/><circle cx="1218" cy="754" r="5"/><circle cx="1357" cy="768" r="5"/><circle cx="1406" cy="728" r="6"/><circle cx="1507" cy="752" r="6"/><circle cx="1590" cy="731" r="5"/><circle cx="1605" cy="731" r="5"/><circle cx="1739" cy="800" r="5"/><circle cx="1801" cy="788" r="6"/><circle cx="1845" cy="723" r="5"/><circle cx="1968" cy="799" r="5"/><circle cx="2006" cy="764" r="5"/><circle cx="2133" cy="724" r="4"/><circle cx="2231" cy="781" r="6"/><circle cx="2278" cy="738" r="6"/><circle cx="2393" cy="739" r="4"/><circle cx="2465" cy="771" r="5"/><circle cx="2483" cy="767" r="5"/><circle cx="48" cy="832" r="5"/><circle cx="128" cy="839" r="5"/><circle cx="171" cy="843" r="5"/><circle cx="258" cy="837" r="4"/><circle cx="389" cy="807" r="5"/><circle cx="419" cy="857" r="6"/><circle cx="522" cy="851" r="5"/><circle cx="606" cy="839" r="6"/><circle cx="708" cy="853" r="5"/><circle cx="756" cy="877" r="4"/><circle cx="870" cy="831" r="5"/><circle cx="959" cy="827" r="5"/><circle cx="985" cy="801" r="4"/><circle cx="1042" cy="822" r="4"/><circle cx="1132" cy="825" r="5"/><circle cx="1273" cy="874" r="6"/><circle cx="1303" cy="843" r="4"/><circle cx="1425" cy="819" r="5"/><circle cx="1504" cy="815" r="4"/><circle cx="1573" cy="870" r="5"/><circle cx="1629" cy="879" r="5"/><circle cx="1696" cy="852" r="6"/><circle cx="1773" cy="840" r="4"/><circle cx="1854" cy="813" r="6"/><circle cx="1952" cy="804" r="5"/><circle cx="2066" cy="847" r="4"/><circle cx="2116" cy="848" r="4"/><circle cx="2162" cy="812" r="6"/><circle cx="2284" cy="838" r="6"/><circle cx="2382" cy="870" r="4"/><circle cx="2468" cy="817" r="5"/><circle cx="2559" cy="817" r="5"/><circle cx="-1" cy="817" r="5"/><circle cx="61" cy="893" r="5"/><circle cx="156" cy="928" r="4"/><circle cx="214" cy="909" r="5"/><circle cx="252" cy="943" r="5"/><circle cx="367" cy="928" r="5"/><circle cx="450" cy="946" r="4"/><circle cx="498" cy="930" r="5"/><circle cx="631" cy="880" r="6"/><circle cx="689" cy="907" r="5"/><circle cx="766" cy="917" r="4"/><circle cx="836" cy="921" r="6"/><circle cx="940" cy="951" r="6"/><circle cx="968" cy="945" r="5"/><circle cx="1059" cy="918" r="6"/><circle cx="1127" cy="951" r="5"/><circle cx="1215" cy="921" r="6"/><circle cx="1317" cy="944" r="4"/><circle cx="1388" cy="941" r="5"/><circle cx="1458" cy="904" r="6"/><circle cx="1552" cy="943" r="6"/><circle cx="1644" cy="957" r="6"/><circle cx="1732" cy="959" r="5"/><circle cx="1778" cy="920" r="4"/><circle cx="1882" cy="921" r="5"/><circle cx="1921" cy="918" r="5"/><circle cx="2047" cy="915" r="6"/><circle cx="2144" cy="900" r="6"/><circle cx="2204" cy="895" r="4"/><circle cx="2275" cy="947" r="4"/><circle cx="2371" cy="954" r="4"/><circle cx="2404" cy="904" r="4"/><circle cx="2508" cy="928" r="4"/><circle cx="70" cy="1028" r="4"/><circle cx="90" cy="998" r="6"/><circle cx="171" cy="988" r="4"/><circle cx="297" cy="970" r="5"/><circle cx="339" cy="980" r="5"/><circle cx="408" cy="1020" r="6"/><circle cx="484" cy="1013" r="5"/><circle cx="612" cy="1010" r="5"/><circle cx="702" cy="978" r="5"/><circle cx="743" cy="1026" r="6"/><circle cx="803" cy="1010" r="4"/><circle cx="907" cy="1025" r="6"/><circle cx="1001" cy="1031" r="4"/><circle cx="1053" cy="965" r="6"/><circle cx="1172" cy="1027" r="6"/><circle cx="1234" cy="1000" r="5"/><circle cx="1323" cy="967" r="4"/><circle cx="1373" cy="1012" r="5"/><circle cx="1455" cy="1004" r="5"/><circle cx="1580" cy="989" r="5"/><circle cx="1621" cy="965" r="4"/><circle cx="1738" cy="1012" r="5"/><circle cx="1813" cy="964" r="6"/><circle cx="1900" cy="1005" r="6"/><circle cx="1934" cy="986" r="6"/><circle cx="2045" cy="983" r="6"/><circle cx="2111" cy="988" r="6"/><circle cx="2176" cy="963" r="4"/><circle cx="2299" cy="965" r="6"/><circle cx="2323" cy="986" r="5"/><circle cx="2444" cy="961" r="6"/><circle cx="2499" cy="967" r="4"/><circle cx="5" cy="1057" r="5"/><circle cx="95" cy="1047" r="4"/><circle cx="191" cy="1061" r="5"/><circle cx="264" cy="1068" r="5"/><circle cx="342" cy="1053" r="5"/><circle cx="429" cy="1075" r="5"/><circle cx="543" cy="1057" r="5"/><circle cx="634" cy="1052" r="5"/><circle cx="714" cy="1065" r="4"/><circle cx="722" cy="1102" r="5"/><circle cx="817" cy="1089" r="4"/><circle cx="920" cy="1116" r="5"/><circle cx="986" cy="1069" r="4"/><circle cx="1088" cy="1120" r="5"/><circle cx="1135" cy="1043" r="5"/><circle cx="1226" cy="1078" r="5"/><circle cx="1313" cy="1047" r="5"/><circle cx="1411" cy="1046" r="6"/><circle cx="1454" cy="1120" r="5"/><circle cx="1568" cy="1060" r="5"/><circle cx="1605" cy="1050" r="5"/><circle cx="1749" cy="1067" r="4"/><circle cx="1787" cy="1075" r="5"/><circle cx="1843" cy="1079" r="5"/><circle cx="1928" cy="1114" r="5"/><circle cx="2011" cy="1093" r="5"/><circle cx="2091" cy="1118" r="4"/><circle cx="2228" cy="1112" r="6"/><circle cx="2261" cy="1079" r="4"/><circle cx="2371" cy="1078" r="5"/><circle cx="2456" cy="1100" r="4"/><circle cx="2492" cy="1101" r="5"/><circle cx="25" cy="1196" r="5"/><circle cx="112" cy="1167" r="4"/><circle cx="178" cy="1141" r="4"/><circle cx="290" cy="1169" r="5"/><circle cx="381" cy="1171" r="4"/><circle cx="439" cy="1164" r="5"/><circle cx="495" cy="1127" r="5"/><circle cx="618" cy="1189" r="4"/><circle cx="719" cy="1199" r="4"/><circle cx="723" cy="1174" r="4"/><circle cx="837" cy="1190" r="6"/><circle cx="946" cy="1139" r="5"/><circle cx="997" cy="1158" r="5"/><circle cx="1075" cy="1190" r="6"/><circle cx="1165" cy="1153" r="5"/><circle cx="1204" cy="1168" r="6"/><circle cx="1321" cy="1151" r="4"/><circle cx="1368" cy="1126" r="5"/><circle cx="1467" cy="1149" r="4"/><circle cx="1540" cy="1164" r="5"/><circle cx="1662" cy="1168" r="4"/><circle cx="1720" cy="1134" r="5"/><circle cx="1798" cy="1121" r="4"/><circle cx="1898" cy="1155" r="6"/><circle cx="1968" cy="1137" r="6"/><circle cx="2024" cy="1166" r="4"/><circle cx="2141" cy="1172" r="5"/><circle cx="2218" cy="1176" r="5"/><circle cx="2271" cy="1145" r="5"/><circle cx="2369" cy="1180" r="5"/><circle cx="2451" cy="1130" r="5"/><circle cx="2515" cy="1146" r="5"/><circle cx="21" cy="1273" r="5"/><circle cx="81" cy="1226" r="5"/><circle cx="176" cy="1213" r="5"/><circle cx="258" cy="1209" r="5"/><circle cx="375" cy="1215" r="5"/><circle cx="434" cy="1275" r="5"/><circle cx="553" cy="1227" r="4"/><circle cx="600" cy="1209" r="5"/><circle cx="686" cy="1248" r="5"/><circle cx="775" cy="1251" r="5"/><circle cx="861" cy="1212" r="5"/><circle cx="937" cy="1227" r="5"/><circle cx="991" cy="1257" r="4"/><circle cx="1069" cy="1203" r="5"/><circle cx="1200" cy="1229" r="6"/><circle cx="1250" cy="1203" r="5"/><circle cx="1287" cy="1215" r="5"/><circle cx="1424" cy="1211" r="6"/><circle cx="1465" cy="1255" r="5"/><circle cx="1534" cy="1278" r="5"/><circle cx="1644" cy="1253" r="5"/><circle cx="1753" cy="1262" r="4"/><circle cx="1821" cy="1251" r="5"/><circle cx="1918" cy="1220" r="4"/><circle cx="1991" cy="1207" r="6"/><circle cx="2026" cy="1245" r="4"/><circle cx="2131" cy="1253" r="5"/><circle cx="2177" cy="1257" r="5"/><circle cx="2307" cy="1255" r="5"/><circle cx="2346" cy="1264" r="5"/><circle cx="2420" cy="1257" r="6"/><circle cx="2516" cy="1202" r="6"/><circle cx="46" cy="1322" r="6"/><circle cx="128" cy="1355" r="4"/><circle cx="198" cy="1356" r="4"/><circle cx="250" cy="1321" r="5"/><circle cx="355" cy="1352" r="6"/><circle cx="477" cy="1321" r="4"/><circle cx="523" cy="1358" r="4"/><circle cx="599" cy="1322" r="5"/><circle cx="699" cy="1329" r="5"/><circle cx="755" cy="1352" r="5"/><circle cx="807" cy="1299" r="4"/><circle cx="934" cy="1323" r="5"/><circle cx="1030" cy="1322" r="5"/><circle cx="1089" cy="1342" r="5"/><circle cx="1120" cy="1351" r="5"/><circle cx="1266" cy="1318" r="5"/><circle cx="1356" cy="1321" r="4"/><circle cx="1369" cy="1353" r="5"/><circle cx="1499" cy="1325" r="4"/><circle cx="1591" cy="1294" r="4"/><circle cx="1628" cy="1355" r="6"/><circle cx="1697" cy="1326" r="6"/><circle cx="1776" cy="1285" r="6"/><circle cx="1850" cy="1300" r="6"/><circle cx="1935" cy="1355" r="5"/><circle cx="2024" cy="1284" r="5"/><circle cx="2115" cy="1329" r="5"/><circle cx="2169" cy="1328" r="5"/><circle cx="2312" cy="1303" r="5"/><circle cx="2357" cy="1299" r="4"/><circle cx="2419" cy="1285" r="5"/><circle cx="2544" cy="1289" r="4"/><circle cx="47" cy="1413" r="5"/><circle cx="117" cy="1419" r="5"/><circle cx="168" cy="1429" r="5"/><circle cx="275" cy="1411" r="5"/><circle cx="339" cy="1367" r="5"/><circle cx="464" cy="1416" r="5"/><circle cx="527" cy="1385" r="5"/><circle cx="594" cy="1381" r="5"/><circle cx="654" cy="1385" r="5"/><circle cx="732" cy="1373" r="6"/><circle cx="819" cy="1417" r="4"/><circle cx="928" cy="1370" r="5"/><circle cx="1029" cy="1382" r="6"/><circle cx="1117" cy="1373" r="5"/><circle cx="1141" cy="1385" r="4"/><circle cx="1243" cy="1398" r="5"/><circle cx="1338" cy="1413" r="5"/><circle cx="1425" cy="1428" r="5"/><circle cx="1518" cy="1400" r="6"/><circle cx="1521" cy="1436" r="4"/><circle cx="1521" cy="-4" r="4"/><circle cx="1651" cy="1384" r="5"/><circle cx="1725" cy="1416" r="6"/><circle cx="1793" cy="1413" r="5"/><circle cx="1843" cy="1392" r="5"/><circle cx="1990" cy="1435" r="5"/><circle cx="1990" cy="-5" r="5"/><circle cx="2011" cy="1368" r="6"/><circle cx="2159" cy="1401" r="5"/><circle cx="2192" cy="1397" r="5"/><circle cx="2241" cy="1399" r="5"/><circle cx="2320" cy="1389" r="5"/><circle cx="2479" cy="1362" r="5"/><circle cx="2503" cy="1391" r="6"/><path stroke="#fff" d="M72 37L83 29M72 37L-10 80M72 37L29 125M72 37L47 -27M72 37L117 -21M2632 37L2550 80M72 1477L47 1413M72 1477L117 1419M83 29L47 -27M83 29L117 -21M83 29L168 -11M83 1469L47 1413M83 1469L117 1419M83 1469L168 1429M226 27L254 61M226 27L168 -11M226 27L275 -29M226 1467L168 1429M226 1467L275 1411M254 61L208 112M254 61L282 138M254 61L275 -29M254 1501L275 1411M399 33L416 21M399 33L468 105M399 33L481 84M399 33L464 -24M399 1473L464 1416M416 21L468 105M416 21L481 84M416 21L464 -24M416 1461L464 1416M517 31L583 4M517 31L468 105M517 31L481 84M517 31L573 87M517 31L464 -24M517 1471L464 1416M583 4L649 15M583 4L573 87M583 4L527 -55M583 4L594 -59M583 1444L527 1385M583 1444L594 1381M649 15L726 30M649 15L647 88M649 15L654 -55M649 1455L654 1385M726 30L647 88M726 30L732 -67M726 30L819 -23M726 1470L732 1373M726 1470L819 1417M861 22L896 40M861 22L800 120M861 22L819 -23M861 22L928 -70M861 1462L819 1417M861 1462L928 1370M896 40L997 39M896 40L951 98M896 40L819 -23M896 40L928 -70M896 1480L819 1417M896 1480L928 1370M997 39L1054 26M997 39L951 98M997 39L1027 90M1054 26L1166 26M1054 26L1027 90M1054 26L1111 88M1054 26L1029 -58M1054 1466L1029 1382M1166 26L1235 49M1166 26L1111 88M1166 26L1167 89M1166 26L1141 -55M1166 1466L1141 1385M1235 49L1312 75M1235 49L1167 89M1235 49L1253 118M1235 49L1243 -42M1235 1489L1243 1398M1312 75L1399 18M1312 75L1253 118M1312 75L1320 143M1399 18L1503 8M1399 18L1369 -87M1399 18L1338 -27M1399 18L1425 -12M1399 1458L1369 1353M1399 1458L1338 1413M1399 1458L1425 1428M1503 8L1581 39M1503 8L1425 -12M1503 8L1518 -40M1503 8L1521 -4M1503 1448L1425 1428M1503 1448L1518 1400M1503 1448L1521 1436M1581 39L1612 42M1581 39L1599 133M1581 39L1518 -40M1581 39L1521 -4M1581 1479L1518 1400M1581 1479L1521 1436M1612 42L1702 14M1612 42L1599 133M1612 42L1677 101M1612 42L1651 -56M1612 1482L1651 1384M1702 14L1677 101M1702 14L1651 -56M1702 14L1725 -24M1702 14L1793 -27M1702 1454L1651 1384M1702 1454L1725 1416M1702 1454L1793 1413M1809 56L1886 1M1809 56L1825 149M1809 56L1858 132M1809 56L1793 -27M1809 1496L1793 1413M1886 1L1935 -85M1886 1L1793 -27M1886 1L1843 -48M1886 1L1990 -5M1886 1441L1935 1355M1886 1441L1793 1413M1886 1441L1843 1392M1886 1441L1990 1435M1978 56L2043 76M1978 56L2081 57M1978 56L1988 99M1978 56L2050 116M1978 56L1990 -5M1978 1496L1990 1435M2043 76L2081 57M2043 76L1988 99M2043 76L2050 116M2043 76L1990 -5M2043 1516L1990 1435M2081 57L2050 116M2081 57L2139 107M2229 21L2300 58M2229 21L2198 90M2229 21L2159 -39M2229 21L2192 -43M2229 21L2241 -41M2229 1461L2159 1401M2229 1461L2192 1397M2229 1461L2241 1399M2300 58L2198 90M2300 58L2312 121M2300 58L2354 124M2300 58L2241 -41M2300 1498L2241 1399M2397 18L2432 9M2397 18L2320 -51M2397 18L2479 -78M2397 18L2503 -49M2397 1458L2320 1389M2397 1458L2479 1362M2397 1458L2503 1391M2432 9L2320 -51M2432 9L2479 -78M2432 9L2503 -49M2432 1449L2320 1389M2432 1449L2479 1362M2432 1449L2503 1391M2550 80L2589 125M2550 80L2560 119M-10 80L29 125M29 125L-0 119M29 125L64 210M29 125L89 197M2589 125L2560 119M142 153L208 112M142 153L64 210M142 153L89 197M142 153L180 172M142 153L244 168M208 112L282 138M208 112L180 172M208 112L244 168M282 138L384 143M282 138L244 168M384 143L468 105M384 143L348 225M384 143L439 228M468 105L481 84M481 84L573 87M573 87L647 88M800 120L856 160M800 120L722 219M800 120L866 216M856 160L951 98M856 160L866 216M856 160L913 229M856 160L885 262M951 98L1027 90M1027 90L1111 88M1111 88L1167 89M1253 118L1320 143M1253 118L1254 174M1253 118L1280 194M1320 143L1254 174M1320 143L1280 194M1320 143L1386 180M1437 140L1477 153M1437 140L1386 180M1437 140L1464 235M1477 153L1386 180M1477 153L1464 235M1477 153L1538 179M1599 133L1677 101M1599 133L1538 179M1599 133L1626 163M1677 101L1704 122M1677 101L1626 163M1704 122L1626 163M1704 122L1743 225M1825 149L1858 132M1825 149L1779 228M1825 149L1878 170M1825 149L1773 243M1858 132L1878 170M1858 132L1933 164M1858 132L1864 249M1988 99L2050 116M1988 99L1933 164M1988 99L2017 188M2050 116L2017 188M2139 107L2198 90M2139 107L2132 182M2198 90L2132 182M2198 90L2231 202M2312 121L2354 124M2312 121L2265 209M2354 124L2466 141M2354 124L2380 221M2354 124L2402 198M2466 141L2560 119M2466 141L2402 198M2466 141L2496 230M64 210L89 197M64 210L3 260M64 210L83 305M89 197L180 172M89 197L83 305M180 172L244 168M180 172L192 258M244 168L192 258M348 225L439 228M348 225L358 302M439 228L358 302M439 228L465 275M439 228L507 302M551 230L624 239M551 230L465 275M551 230L507 302M551 230L595 282M624 239L711 211M624 239L722 219M624 239L595 282M624 239L674 313M711 211L722 219M711 211L764 285M722 219L764 285M866 216L913 229M866 216L856 302M866 216L885 262M913 229L856 302M913 229L885 262M913 229L1004 261M1009 236L1113 221M1009 236L1004 261M1113 221L1126 227M1113 221L1004 261M1113 221L1101 281M1113 221L1177 254M1126 227L1101 281M1126 227L1177 254M1254 174L1280 194M1254 174L1259 250M1254 174L1292 282M1280 194L1259 250M1280 194L1292 282M1386 180L1464 235M1464 235L1538 179M1464 235L1510 284M1538 179L1626 163M1538 179L1581 251M1626 163L1581 251M1743 225L1779 228M1743 225L1712 281M1743 225L1773 243M1779 228L1712 281M1779 228L1773 243M1779 228L1864 249M1878 170L1933 164M1878 170L1864 249M1933 164L2017 188M1933 164L1864 249M2017 188L2019 257M2132 182L2231 202M2132 182L2116 247M2231 202L2265 209M2231 202L2214 295M2265 209L2214 295M2265 209L2281 287M2380 221L2402 198M2380 221L2334 292M2380 221L2433 273M2402 198L2496 230M2402 198L2433 273M2496 230L2563 260M2496 230L2433 273M2496 230L2506 246M-64 230L3 260M3 260L83 305M3 260L-54 246M3 260L-55 330M2563 260L2506 246M2563 260L2505 330M83 305L6 358M83 305L109 395M192 258L248 306M192 258L202 364M248 306L358 302M248 306L202 364M248 306L283 340M358 302L283 340M358 302L384 364M465 275L507 302M465 275L525 354M507 302L595 282M507 302L525 354M595 282L674 313M595 282L580 379M674 313L764 285M674 313L647 384M674 313L748 349M764 285L856 302M764 285L748 349M856 302L885 262M856 302L862 384M885 262L1004 261M1004 261L1101 281M1101 281L1177 254M1101 281L1158 343M1177 254L1259 250M1177 254L1158 343M1259 250L1292 282M1292 282L1371 312M1292 282L1294 387M1371 312L1399 348M1371 312L1482 352M1371 312L1357 406M1510 284L1581 251M1510 284L1630 282M1510 284L1482 352M1510 284L1552 324M1581 251L1630 282M1581 251L1552 324M1630 282L1712 281M1630 282L1552 324M1630 282L1669 379M1712 281L1773 243M1712 281L1740 341M1773 243L1864 249M1992 311L2019 257M1992 311L1922 386M1992 311L2037 336M1992 311L2032 400M2019 257L2116 247M2019 257L2037 336M2214 295L2281 287M2214 295L2191 338M2214 295L2276 370M2281 287L2334 292M2281 287L2276 370M2281 287L2352 340M2334 292L2352 340M2433 273L2506 246M2433 273L2505 330M2506 246L2505 330M6 358L-55 330M6 358L45 419M6 358L-58 417M2566 358L2505 330M2566 358L2502 417M109 395L202 364M109 395L45 419M109 395L118 437M109 395L134 482M202 364L283 340M202 364L264 418M283 340L384 364M283 340L264 418M384 364L468 395M384 364L459 441M468 395L525 354M468 395L459 441M468 395L526 434M525 354L580 379M525 354L526 434M580 379L647 384M580 379L526 434M580 379L646 447M647 384L748 349M647 384L636 473M647 384L646 447M748 349L773 402M748 349L819 401M862 384L909 387M862 384L773 402M862 384L819 401M862 384L893 438M909 387L1005 396M909 387L819 401M909 387L893 438M909 387L982 421M1005 396L982 421M1005 396L1066 407M1005 396L997 489M1120 385L1158 343M1120 385L1217 370M1120 385L1066 407M1120 385L1176 445M1158 343L1217 370M1158 343L1227 422M1217 370L1294 387M1217 370L1176 445M1217 370L1227 422M1294 387L1227 422M1294 387L1357 406M1294 387L1378 432M1399 348L1482 352M1399 348L1357 406M1399 348L1378 432M1482 352L1552 324M1482 352L1518 405M1552 324L1518 405M1669 379L1740 341M1669 379L1579 456M1669 379L1621 423M1669 379L1692 472M1740 341L1819 370M1819 370L1918 386M1819 370L1922 386M1819 370L1815 468M1819 370L1896 415M1918 386L1922 386M1918 386L1896 415M1922 386L1896 415M1922 386L1995 426M2037 336L2133 381M2037 336L2032 400M2133 381L2191 338M2133 381L2032 400M2133 381L2116 423M2133 381L2166 468M2191 338L2116 423M2276 370L2352 340M2276 370L2263 454M2276 370L2321 422M2352 340L2402 386M2352 340L2321 422M2402 386L2321 422M2402 386L2470 458M2505 330L2502 417M45 419L118 437M45 419L25 520M118 437L134 482M230 477L264 418M230 477L322 454M230 477L134 482M230 477L232 491M230 477L310 509M264 418L322 454M264 418L232 491M322 454L232 491M322 454L310 509M322 454L339 532M459 441L526 434M459 441L471 540M459 441L506 500M526 434L506 500M636 473L646 447M636 473L597 531M636 473L689 549M646 447L597 531M773 402L819 401M819 401L893 438M893 438L982 421M893 438L938 537M982 421L1066 407M982 421L997 489M1066 407L1176 445M1066 407L997 489M1176 445L1227 422M1176 445L1187 494M1227 422L1187 494M1357 406L1378 432M1357 406L1342 506M1378 432L1342 506M1378 432L1462 510M1518 405L1579 456M1518 405L1621 423M1518 405L1462 510M1579 456L1621 423M1579 456L1616 532M1621 423L1692 472M1692 472L1727 539M1692 472L1682 574M1815 468L1812 483M1815 468L1911 504M1896 415L1995 426M1896 415L1920 491M1995 426L2032 400M1995 426L1920 491M1995 426L2001 513M2032 400L2116 423M2116 423L2166 468M2166 468L2263 454M2166 468L2096 540M2166 468L2164 549M2263 454L2321 422M2263 454L2288 533M2263 454L2344 530M2321 422L2288 533M2470 458L2502 417M2470 458L2462 492M2470 458L2486 492M2502 417L2462 492M2502 417L2486 492M25 520L-74 492M25 520L76 565M2585 520L2486 492M134 482L232 491M134 482L76 565M232 491L310 509M310 509L339 532M339 532L290 640M339 532L356 616M471 540L506 500M471 540L477 639M471 540L520 588M506 500L597 531M506 500L520 588M597 531L599 607M689 549L733 546M689 549L687 598M689 549L726 603M733 546L833 540M733 546L687 598M733 546L726 603M733 546L827 568M833 540L938 537M833 540L827 568M938 537L997 489M938 537L940 614M997 489L1058 539M1058 539L1062 617M1187 494L1239 553M1187 494L1209 595M1239 553L1342 506M1239 553L1194 621M1239 553L1209 595M1239 553L1298 624M1342 506L1379 549M1379 549L1462 510M1569 554L1616 532M1569 554L1496 616M1569 554L1540 616M1569 554L1643 595M1569 554L1555 645M1616 532L1643 595M1616 532L1682 574M1727 539L1812 483M1727 539L1682 574M1727 539L1788 613M1812 483L1911 504M1812 483L1920 491M1911 504L1920 491M1911 504L2001 513M1911 504L1952 602M1920 491L2001 513M2001 513L2096 540M2001 513L1952 602M2096 540L2164 549M2096 540L2062 599M2096 540L2131 598M2164 549L2131 598M2164 549L2179 617M2164 549L2243 574M2288 533L2344 530M2288 533L2243 574M2288 533L2323 610M2344 530L2243 574M2344 530L2323 610M2344 530L2416 589M2462 492L2486 492M2462 492L2416 589M2486 492L2416 589M76 565L99 619M76 565L-11 636M2636 565L2549 636M99 619L221 621M99 619L-11 636M99 619L33 650M99 619L94 701M2659 619L2549 636M221 621L290 640M221 621L207 676M221 621L310 667M221 621L185 729M290 640L356 616M290 640L207 676M290 640L310 667M356 616L310 667M356 616L439 651M477 639L520 588M477 639L439 651M477 639L547 642M520 588L599 607M520 588L547 642M599 607L687 598M599 607L547 642M599 607L585 645M687 598L726 603M687 598L585 645M726 603L827 568M726 603L791 702M940 614L1007 639M940 614L917 699M940 614L1009 672M1007 639L1062 617M1007 639L1009 672M1007 639L1054 708M1062 617L1009 672M1062 617L1054 708M1062 617L1084 725M1194 621L1209 595M1194 621L1298 624M1194 621L1150 676M1194 621L1200 751M1209 595L1298 624M1209 595L1150 676M1298 624L1277 706M1298 624L1334 644M1419 635L1496 616M1419 635L1334 644M1419 635L1410 708M1419 635L1443 686M1496 616L1540 616M1496 616L1443 686M1496 616L1555 645M1540 616L1555 645M1643 595L1682 574M1643 595L1555 645M1643 595L1692 640M1682 574L1692 640M1788 613L1868 621M1788 613L1692 640M1788 613L1790 651M1788 613L1851 647M1868 621L1952 602M1868 621L1790 651M1868 621L1851 647M1868 621L1845 723M1952 602L1851 647M1952 602L1997 671M2062 599L2131 598M2062 599L1997 671M2062 599L2055 692M2131 598L2179 617M2131 598L2133 650M2179 617L2243 574M2179 617L2133 650M2179 617L2178 707M2243 574L2323 610M2323 610L2293 701M2323 610L2324 706M2416 589L2432 674M2549 636L2593 650M2549 636L2548 665M-11 636L33 650M33 650L94 701M33 650L-12 665M33 650L53 733M2593 650L2548 665M94 701L53 733M94 701L139 791M94 701L185 729M207 676L310 667M207 676L185 729M310 667L397 709M397 709L439 651M397 709L377 795M397 709L405 790M397 709L389 807M439 651L547 642M439 651L484 750M547 642L585 645M585 645L641 717M641 717L583 797M641 717L673 745M791 702L868 719M791 702L747 785M791 702L862 758M868 719L917 699M868 719L862 758M868 719L919 756M868 719L870 831M917 699L1009 672M917 699L862 758M917 699L919 756M1009 672L1054 708M1054 708L1084 725M1150 676L1084 725M1150 676L1200 751M1150 676L1218 754M1277 706L1334 644M1277 706L1200 751M1277 706L1218 754M1277 706L1357 768M1410 708L1443 686M1410 708L1357 768M1410 708L1406 728M1443 686L1406 728M1443 686L1507 752M1555 645L1590 731M1663 703L1692 640M1663 703L1590 731M1663 703L1605 731M1663 703L1739 800M1692 640L1790 651M1790 651L1851 647M1790 651L1845 723M1851 647L1845 723M1997 671L2055 692M1997 671L2006 764M2055 692L2133 650M2055 692L2006 764M2055 692L2133 724M2133 650L2178 707M2133 650L2133 724M2178 707L2133 724M2178 707L2231 781M2178 707L2278 738M2293 701L2324 706M2293 701L2231 781M2293 701L2278 738M2324 706L2432 674M2324 706L2278 738M2324 706L2393 739M2432 674L2393 739M2432 674L2465 771M2432 674L2483 767M2548 665L2613 733M-12 665L53 733M53 733L48 832M53 733L-1 817M2613 733L2559 817M139 791L185 729M139 791L48 832M139 791L128 839M139 791L171 843M185 729L280 783M280 783L377 795M280 783L258 837M280 783L389 807M377 795L405 790M377 795L389 807M377 795L419 857M405 790L484 750M405 790L389 807M405 790L419 857M484 750L522 851M583 797L673 745M583 797L522 851M583 797L606 839M583 797L631 880M673 745L747 785M747 785L708 853M747 785L756 877M862 758L919 756M862 758L870 831M919 756L1003 786M919 756L959 827M1003 786L1084 725M1003 786L959 827M1003 786L985 801M1003 786L1042 822M1084 725L1132 825M1200 751L1218 754M1200 751L1132 825M1218 754L1132 825M1357 768L1406 728M1357 768L1303 843M1357 768L1425 819M1406 728L1507 752M1406 728L1425 819M1507 752L1590 731M1507 752L1605 731M1507 752L1504 815M1590 731L1605 731M1739 800L1801 788M1739 800L1696 852M1739 800L1773 840M1801 788L1845 723M1801 788L1773 840M1801 788L1854 813M1845 723L1854 813M1968 799L2006 764M1968 799L1952 804M2006 764L1952 804M2006 764L2066 847M2133 724L2162 812M2231 781L2278 738M2231 781L2162 812M2231 781L2284 838M2278 738L2284 838M2393 739L2465 771M2393 739L2483 767M2465 771L2483 767M2465 771L2468 817M2483 767L2468 817M2483 767L2559 817M48 832L128 839M48 832L-1 817M48 832L61 893M2608 832L2559 817M128 839L171 843M128 839L61 893M128 839L156 928M171 843L258 837M171 843L156 928M171 843L214 909M258 837L214 909M389 807L419 857M419 857L367 928M419 857L450 946M522 851L606 839M522 851L498 930M522 851L631 880M606 839L708 853M606 839L631 880M708 853L756 877M708 853L631 880M708 853L689 907M756 877L689 907M756 877L766 917M756 877L836 921M870 831L959 827M870 831L985 801M870 831L836 921M959 827L985 801M959 827L1042 822M985 801L1042 822M1042 822L1132 825M1042 822L1059 918M1132 825L1059 918M1273 874L1303 843M1273 874L1215 921M1273 874L1317 944M1425 819L1504 815M1425 819L1458 904M1504 815L1573 870M1504 815L1458 904M1573 870L1629 879M1573 870L1552 943M1629 879L1696 852M1629 879L1644 957M1629 879L1621 965M1696 852L1773 840M1696 852L1732 959M1773 840L1854 813M1773 840L1778 920M1854 813L1952 804M1854 813L1882 921M2066 847L2116 848M2066 847L2047 915M2116 848L2162 812M2116 848L2047 915M2116 848L2144 900M2162 812L2144 900M2162 812L2204 895M2284 838L2382 870M2284 838L2204 895M2284 838L2275 947M2382 870L2468 817M2382 870L2371 954M2382 870L2404 904M2382 870L2444 961M2468 817L2559 817M2468 817L2404 904M2559 817L2621 893M-1 817L61 893M156 928L214 909M156 928L90 998M156 928L171 988M214 909L252 943M214 909L171 988M252 943L171 988M252 943L297 970M252 943L339 980M367 928L450 946M367 928L297 970M367 928L339 980M450 946L498 930M450 946L408 1020M450 946L484 1013M498 930L484 1013M631 880L689 907M689 907L766 917M689 907L702 978M766 917L836 921M836 921L940 951M836 921L803 1010M940 951L968 945M940 951L907 1025M940 951L1001 1031M940 951L1053 965M968 945L1059 918M968 945L907 1025M968 945L1001 1031M968 945L1053 965M1059 918L1127 951M1059 918L1053 965M1127 951L1215 921M1127 951L1053 965M1127 951L1172 1027M1127 951L1135 1043M1215 921L1317 944M1215 921L1172 1027M1215 921L1234 1000M1317 944L1388 941M1317 944L1323 967M1388 941L1458 904M1388 941L1323 967M1388 941L1373 1012M1388 941L1455 1004M1458 904L1552 943M1458 904L1455 1004M1552 943L1644 957M1552 943L1580 989M1552 943L1621 965M1644 957L1732 959M1644 957L1580 989M1644 957L1621 965M1732 959L1778 920M1732 959L1738 1012M1732 959L1813 964M1778 920L1738 1012M1778 920L1813 964M1882 921L1921 918M1882 921L1813 964M1882 921L1900 1005M1882 921L1934 986M1921 918L1900 1005M1921 918L1934 986M2047 915L2045 983M2047 915L2111 988M2144 900L2204 895M2144 900L2111 988M2144 900L2176 963M2204 895L2275 947M2204 895L2176 963M2275 947L2299 965M2275 947L2323 986M2371 954L2404 904M2371 954L2299 965M2371 954L2323 986M2371 954L2444 961M2404 904L2299 965M2404 904L2444 961M2508 928L2444 961M2508 928L2499 967M70 1028L90 998M70 1028L5 1057M70 1028L95 1047M70 1028L191 1061M90 998L171 988M90 998L5 1057M90 998L95 1047M171 988L191 1061M297 970L339 980M297 970L264 1068M297 970L342 1053M339 980L408 1020M339 980L342 1053M408 1020L484 1013M408 1020L342 1053M408 1020L429 1075M484 1013L429 1075M484 1013L543 1057M612 1010L702 978M612 1010L543 1057M612 1010L634 1052M702 978L743 1026M702 978L634 1052M702 978L714 1065M743 1026L803 1010M743 1026L714 1065M743 1026L722 1102M743 1026L817 1089M803 1010L714 1065M803 1010L817 1089M907 1025L1001 1031M907 1025L920 1116M907 1025L986 1069M1001 1031L1053 965M1001 1031L986 1069M1172 1027L1234 1000M1172 1027L1135 1043M1172 1027L1226 1078M1234 1000L1323 967M1234 1000L1226 1078M1234 1000L1313 1047M1323 967L1373 1012M1323 967L1313 1047M1373 1012L1455 1004M1373 1012L1313 1047M1373 1012L1411 1046M1455 1004L1411 1046M1580 989L1621 965M1580 989L1568 1060M1580 989L1605 1050M1621 965L1605 1050M1738 1012L1813 964M1738 1012L1749 1067M1738 1012L1787 1075M1813 964L1900 1005M1900 1005L1934 986M1900 1005L1843 1079M1934 986L2045 983M2045 983L2111 988M2111 988L2176 963M2111 988L2091 1118M2299 965L2323 986M2299 965L2261 1079M2323 986L2371 1078M2444 961L2499 967M5 1057L95 1047M5 1057L-68 1101M2565 1057L2492 1101M95 1047L191 1061M191 1061L264 1068M191 1061L178 1141M264 1068L342 1053M264 1068L290 1169M342 1053L429 1075M429 1075L439 1164M429 1075L495 1127M543 1057L634 1052M543 1057L495 1127M634 1052L714 1065M634 1052L722 1102M714 1065L722 1102M722 1102L719 1199M722 1102L723 1174M817 1089L837 1190M920 1116L986 1069M920 1116L837 1190M920 1116L946 1139M920 1116L997 1158M986 1069L946 1139M1088 1120L1135 1043M1088 1120L1075 1190M1088 1120L1165 1153M1088 1120L1069 1203M1226 1078L1313 1047M1226 1078L1165 1153M1226 1078L1204 1168M1313 1047L1411 1046M1411 1046L1454 1120M1411 1046L1368 1126M1454 1120L1368 1126M1454 1120L1467 1149M1454 1120L1540 1164M1454 1120L1424 1211M1568 1060L1605 1050M1568 1060L1540 1164M1749 1067L1787 1075M1749 1067L1720 1134M1749 1067L1798 1121M1787 1075L1843 1079M1787 1075L1720 1134M1787 1075L1798 1121M1843 1079L1928 1114M1843 1079L1798 1121M1843 1079L1898 1155M1928 1114L2011 1093M1928 1114L1898 1155M1928 1114L1968 1137M2011 1093L2091 1118M2011 1093L1968 1137M2011 1093L2024 1166M2091 1118L2024 1166M2091 1118L2141 1172M2228 1112L2261 1079M2228 1112L2141 1172M2228 1112L2218 1176M2228 1112L2271 1145M2261 1079L2371 1078M2261 1079L2218 1176M2261 1079L2271 1145M2371 1078L2456 1100M2456 1100L2492 1101M2456 1100L2451 1130M2456 1100L2515 1146M2492 1101L2451 1130M2492 1101L2515 1146M25 1196L112 1167M25 1196L-45 1146M25 1196L21 1273M25 1196L81 1226M25 1196L-44 1202M2585 1196L2515 1146M2585 1196L2516 1202M112 1167L178 1141M112 1167L81 1226M112 1167L176 1213M178 1141L290 1169M178 1141L176 1213M178 1141L258 1209M290 1169L381 1171M290 1169L258 1209M290 1169L375 1215M381 1171L439 1164M381 1171L495 1127M381 1171L375 1215M381 1171L434 1275M439 1164L495 1127M439 1164L375 1215M439 1164L434 1275M495 1127L553 1227M618 1189L553 1227M618 1189L600 1209M719 1199L723 1174M719 1199L686 1248M719 1199L775 1251M723 1174L686 1248M837 1190L775 1251M837 1190L861 1212M946 1139L997 1158M946 1139L861 1212M946 1139L937 1227M997 1158L1075 1190M997 1158L937 1227M997 1158L1069 1203M1075 1190L1165 1153M1075 1190L991 1257M1075 1190L1069 1203M1165 1153L1204 1168M1165 1153L1200 1229M1204 1168L1200 1229M1204 1168L1250 1203M1204 1168L1287 1215M1321 1151L1368 1126M1321 1151L1250 1203M1321 1151L1287 1215M1321 1151L1424 1211M1368 1126L1467 1149M1368 1126L1424 1211M1467 1149L1540 1164M1467 1149L1424 1211M1467 1149L1465 1255M1540 1164L1465 1255M1662 1168L1720 1134M1662 1168L1644 1253M1720 1134L1798 1121M1898 1155L1968 1137M1898 1155L1918 1220M1968 1137L2024 1166M1968 1137L1991 1207M2024 1166L1991 1207M2024 1166L2026 1245M2141 1172L2218 1176M2141 1172L2131 1253M2141 1172L2177 1257M2218 1176L2271 1145M2218 1176L2177 1257M2271 1145L2369 1180M2369 1180L2451 1130M2369 1180L2307 1255M2369 1180L2420 1257M2451 1130L2515 1146M2451 1130L2516 1202M2515 1146L2516 1202M21 1273L81 1226M21 1273L-44 1202M21 1273L46 1322M21 1273L-16 1289M2581 1273L2516 1202M2581 1273L2544 1289M81 1226L176 1213M81 1226L46 1322M176 1213L258 1209M258 1209L375 1215M258 1209L250 1321M375 1215L434 1275M434 1275L355 1352M434 1275L477 1321M553 1227L600 1209M600 1209L686 1248M686 1248L775 1251M686 1248L699 1329M775 1251L861 1212M775 1251L807 1299M861 1212L937 1227M861 1212L807 1299M937 1227L991 1257M937 1227L934 1323M991 1257L1069 1203M991 1257L934 1323M991 1257L1030 1322M1200 1229L1250 1203M1200 1229L1287 1215M1200 1229L1266 1318M1250 1203L1287 1215M1250 1203L1266 1318M1287 1215L1266 1318M1424 1211L1465 1255M1465 1255L1534 1278M1465 1255L1499 1325M1534 1278L1499 1325M1534 1278L1591 1294M1644 1253L1753 1262M1644 1253L1591 1294M1644 1253L1628 1355M1644 1253L1697 1326M1753 1262L1821 1251M1753 1262L1776 1285M1821 1251L1918 1220M1821 1251L1776 1285M1821 1251L1850 1300M1918 1220L1991 1207M1918 1220L1850 1300M1991 1207L2026 1245M1991 1207L2024 1284M2026 1245L2024 1284M2026 1245L2011 1368M2131 1253L2177 1257M2131 1253L2024 1284M2131 1253L2115 1329M2131 1253L2169 1328M2177 1257L2115 1329M2177 1257L2169 1328M2307 1255L2346 1264M2307 1255L2312 1303M2307 1255L2357 1299M2346 1264L2420 1257M2346 1264L2312 1303M2346 1264L2357 1299M2346 1264L2419 1285M2420 1257L2357 1299M2420 1257L2419 1285M2516 1202L2544 1289M46 1322L128 1355M46 1322L-16 1289M46 1322L47 1413M2606 1322L2544 1289M128 1355L198 1356M128 1355L117 1419M128 1355L168 1429M198 1356L250 1321M198 1356L168 1429M250 1321L355 1352M250 1321L275 1411M250 1321L339 1367M355 1352L275 1411M355 1352L339 1367M477 1321L523 1358M477 1321L527 1385M523 1358L599 1322M523 1358L464 1416M523 1358L527 1385M523 1358L594 1381M599 1322L699 1329M599 1322L594 1381M599 1322L654 1385M699 1329L755 1352M699 1329L654 1385M699 1329L732 1373M755 1352L807 1299M755 1352L732 1373M755 1352L819 1417M934 1323L1030 1322M934 1323L928 1370M1030 1322L1089 1342M1030 1322L1120 1351M1030 1322L1029 1382M1089 1342L1120 1351M1089 1342L1029 1382M1089 1342L1117 1373M1089 1342L1141 1385M1120 1351L1029 1382M1120 1351L1117 1373M1120 1351L1141 1385M1266 1318L1356 1321M1266 1318L1243 1398M1356 1321L1369 1353M1356 1321L1338 1413M1369 1353L1338 1413M1369 1353L1425 1428M1499 1325L1591 1294M1499 1325L1518 1400M1591 1294L1628 1355M1628 1355L1697 1326M1628 1355L1651 1384M1628 1355L1725 1416M1697 1326L1776 1285M1697 1326L1651 1384M1697 1326L1725 1416M1776 1285L1850 1300M1850 1300L1935 1355M1850 1300L1843 1392M1935 1355L1843 1392M1935 1355L1990 1435M1935 1355L2011 1368M2024 1284L2115 1329M2024 1284L2011 1368M2115 1329L2169 1328M2115 1329L2159 1401M2169 1328L2159 1401M2169 1328L2192 1397M2312 1303L2357 1299M2312 1303L2419 1285M2312 1303L2320 1389M2357 1299L2419 1285M2419 1285L2479 1362M2544 1289L2479 1362M2544 1289L2503 1391M47 1413L117 1419M47 1413L-57 1391M2607 1413L2503 1391M117 1419L168 1429M275 1411L339 1367M464 1416L527 1385M527 1385L594 1381M594 1381L654 1385M654 1385L732 1373M732 1373L819 1417M1029 1382L1117 1373M1117 1373L1141 1385M1141 1385L1243 1398M1243 1398L1338 1413M1338 1413L1425 1428M1425 1428L1518 1400M1518 1400L1521 1436M1651 1384L1725 1416M1725 1416L1793 1413M1793 1413L1843 1392M1990 1435L2011 1368M2159 1401L2192 1397M2159 1401L2241 1399M2192 1397L2241 1399M2241 1399L2320 1389M2479 1362L2503 1391"/></svg>