<svg xmlns="http://www.w3.org/2000/svg" width="2560" height="1440" fill="#fff"><circle cx="72" cy="43" r="5"/><circle cx="127" cy="20" r="5"/><circle cx="207" cy="22" r="5"/><circle cx="312" cy="65" r="4"/><circle cx="385" cy="50" r="5"/><circle cx="413" cy="30" r="4"/><circle cx="528" cy="11" r="6"/><circle cx="613" cy="52" r="5"/><circle cx="697" cy="60" r="5"/><circle cx="758" cy="60" r="4"/><circle cx="831" cy="3" r="6"/><circle cx="831" cy="1443" r="6"/><circle cx="902" cy="59" r="4"/><circle cx="976" cy="54" r="5"/><circle cx="1081" cy="1" r="5"/><circle cx="1081" cy="1441" r="5"/><circle cx="1121" cy="14" r="6"/><circle cx="1237" cy="19" r="5"/><circle cx="1303" cy="19" r="6"/><circle cx="1392" cy="12" r="5"/><circle cx="1513" cy="71" r="5"/><circle cx="1588" cy="39" r="4"/><circle cx="1601" cy="27" r="5"/><circle cx="1714" cy="25" r="5"/><circle cx="1796" cy="48" r="5"/><circle cx="1862" cy="4" r="6"/><circle cx="1862" cy="1444" r="6"/><circle cx="1953" cy="48" r="6"/><circle cx="2013" cy="57" r="6"/><circle cx="2095" cy="2" r="5"/><circle cx="2095" cy="1442" r="5"/><circle cx="2173" cy="55" r="4"/><circle cx="2287" cy="51" r="5"/><circle cx="2393" cy="21" r="4"/><circle cx="2416" cy="49" r="6"/><circle cx="2531" cy="47" r="5"/><circle cx="55" cy="119" r="5"/><circle cx="100" cy="140" r="6"/><circle cx="172" cy="139" r="6"/><circle cx="260" cy="127" r="5"/><circle cx="334" cy="84" r="5"/><circle cx="421" cy="137" r="5"/><circle cx="542" cy="104" r="5"/><circle cx="595" cy="87" r="5"/><circle cx="696" cy="94" r="6"/><circle cx="751" cy="105" r="5"/><circle cx="813" cy="154" r="5"/><circle cx="901" cy="128" r="6"/><circle cx="1034" cy="103" r="5"/><circle cx="1074" cy="132" r="4"/><circle cx="1157" cy="114" r="5"/><circle cx="1206" cy="153" r="5"/><circle cx="1336" cy="114" r="4"/><circle cx="1424" cy="134" r="5"/><circle cx="1449" cy="119" r="4"/><circle cx="1575" cy="128" r="4"/><circle cx="1621" cy="84" r="4"/><circle cx="1746" cy="125" r="5"/><circle cx="1808" cy="151" r="6"/><circle cx="1901" cy="136" r="5"/><circle cx="1949" cy="149" r="6"/><circle cx="2012" cy="125" r="6"/><circle cx="2103" cy="114" r="5"/><circle cx="2164" cy="141" r="4"/><circle cx="2253" cy="153" r="4"/><circle cx="2341" cy="93" r="5"/><circle cx="2423" cy="126" r="6"/><circle cx="2480" cy="103" r="5"/><circle cx="13" cy="239" r="5"/><circle cx="157" cy="172" r="5"/><circle cx="223" cy="169" r="5"/><circle cx="255" cy="180" r="5"/><circle cx="373" cy="167" r="6"/><circle cx="455" cy="199" r="6"/><circle cx="553" cy="219" r="5"/><circle cx="568" cy="167" r="6"/><circle cx="705" cy="216" r="6"/><circle cx="722" cy="227" r="6"/><circle cx="834" cy="178" r="4"/><circle cx="901" cy="165" r="5"/><circle cx="980" cy="232" r="4"/><circle cx="1085" cy="193" r="6"/><circle cx="1195" cy="223" r="6"/><circle cx="1231" cy="163" r="5"/><circle cx="1344" cy="217" r="5"/><circle cx="1396" cy="182" r="6"/><circle cx="1494" cy="169" r="6"/><circle cx="1588" cy="185" r="5"/><circle cx="1661" cy="205" r="6"/><circle cx="1716" cy="172" r="4"/><circle cx="1832" cy="236" r="5"/><circle cx="1880" cy="225" r="4"/><circle cx="1951" cy="179" r="5"/><circle cx="2059" cy="215" r="5"/><circle cx="2123" cy="217" r="6"/><circle cx="2173" cy="205" r="6"/><circle cx="2300" cy="202" r="5"/><circle cx="2371" cy="214" r="6"/><circle cx="2429" cy="230" r="5"/><circle cx="2546" cy="211" r="5"/><circle cx="10" cy="248" r="5"/><circle cx="115" cy="253" r="5"/><circle cx="173" cy="313" r="5"/><circle cx="244" cy="312" r="6"/><circle cx="370" cy="257" r="6"/><circle cx="407" cy="250" r="5"/><circle cx="482" cy="318" r="6"/><circle cx="608" cy="252" r="6"/><circle cx="643" cy="289" r="5"/><circle cx="728" cy="245" r="5"/><circle cx="861" cy="303" r="5"/><circle cx="921" cy="281" r="5"/><circle cx="998" cy="262" r="5"/><circle cx="1059" cy="263" r="5"/><circle cx="1121" cy="253" r="4"/><circle cx="1208" cy="284" r="6"/><circle cx="1333" cy="252" r="5"/><circle cx="1436" cy="291" r="5"/><circle cx="1511" cy="287" r="6"/><circle cx="1568" cy="246" r="5"/><circle cx="1634" cy="251" r="6"/><circle cx="1752" cy="316" r="4"/><circle cx="1764" cy="301" r="4"/><circle cx="1912" cy="293" r="6"/><circle cx="1976" cy="302" r="5"/><circle cx="2003" cy="250" r="6"/><circle cx="2155" cy="314" r="5"/><circle cx="2216" cy="247" r="4"/><circle cx="2254" cy="255" r="5"/><circle cx="2334" cy="282" r="5"/><circle cx="2410" cy="274" r="5"/><circle cx="2538" cy="307" r="6"/><circle cx="72" cy="396" r="4"/><circle cx="141" cy="326" r="4"/><circle cx="224" cy="396" r="4"/><circle cx="254" cy="394" r="5"/><circle cx="345" cy="336" r="4"/><circle cx="471" cy="356" r="5"/><circle cx="488" cy="358" r="5"/><circle cx="595" cy="398" r="6"/><circle cx="652" cy="389" r="5"/><circle cx="728" cy="381" r="5"/><circle cx="861" cy="353" r="5"/><circle cx="907" cy="354" r="4"/><circle cx="978" cy="397" r="5"/><circle cx="1101" cy="354" r="6"/><circle cx="1128" cy="364" r="5"/><circle cx="1244" cy="350" r="4"/><circle cx="1325" cy="329" r="6"/><circle cx="1361" cy="384" r="5"/><circle cx="1448" cy="338" r="5"/><circle cx="1578" cy="368" r="6"/><circle cx="1622" cy="370" r="5"/><circle cx="1686" cy="355" r="4"/><circle cx="1838" cy="377" r="5"/><circle cx="1908" cy="392" r="5"/><circle cx="1974" cy="367" r="5"/><circle cx="2026" cy="326" r="6"/><circle cx="2107" cy="393" r="4"/><circle cx="2215" cy="382" r="4"/><circle cx="2256" cy="384" r="5"/><circle cx="2354" cy="322" r="6"/><circle cx="2404" cy="336" r="4"/><circle cx="2522" cy="383" r="5"/><circle cx="57" cy="415" r="5"/><circle cx="100" cy="431" r="4"/><circle cx="233" cy="446" r="5"/><circle cx="308" cy="477" r="6"/><circle cx="333" cy="459" r="4"/><circle cx="431" cy="454" r="5"/><circle cx="487" cy="431" r="5"/><circle cx="563" cy="434" r="5"/><circle cx="645" cy="451" r="5"/><circle cx="757" cy="465" r="6"/><circle cx="846" cy="401" r="6"/><circle cx="951" cy="475" r="5"/><circle cx="983" cy="448" r="5"/><circle cx="1045" cy="433" r="6"/><circle cx="1145" cy="412" r="5"/><circle cx="1238" cy="446" r="5"/><circle cx="1345" cy="403" r="4"/><circle cx="1420" cy="479" r="5"/><circle cx="1519" cy="448" r="5"/><circle cx="1574" cy="462" r="5"/><circle cx="1608" cy="417" r="6"/><circle cx="1749" cy="466" r="4"/><circle cx="1765" cy="413" r="5"/><circle cx="1843" cy="462" r="5"/><circle cx="1996" cy="478" r="5"/><circle cx="2062" cy="432" r="6"/><circle cx="2129" cy="409" r="5"/><circle cx="2196" cy="406" r="4"/><circle cx="2254" cy="405" r="5"/><circle cx="2380" cy="478" r="5"/><circle cx="2476" cy="448" r="6"/><circle cx="2510" cy="441" r="4"/><circle cx="21" cy="544" r="6"/><circle cx="92" cy="491" r="4"/><circle cx="164" cy="500" r="6"/><circle cx="307" cy="489" r="6"/><circle cx="383" cy="494" r="5"/><circle cx="448" cy="508" r="6"/><circle cx="494" cy="501" r="5"/><circle cx="610" cy="549" r="5"/><circle cx="653" cy="515" r="4"/><circle cx="775" cy="507" r="5"/><circle cx="807" cy="496" r="4"/><circle cx="903" cy="483" r="6"/><circle cx="1005" cy="495" r="5"/><circle cx="1048" cy="557" r="4"/><circle cx="1196" cy="559" r="5"/><circle cx="1263" cy="559" r="4"/><circle cx="1339" cy="538" r="6"/><circle cx="1435" cy="492" r="5"/><circle cx="1496" cy="506" r="6"/><circle cx="1531" cy="559" r="6"/><circle cx="1637" cy="483" r="6"/><circle cx="1722" cy="522" r="5"/><circle cx="1840" cy="518" r="5"/><circle cx="1914" cy="498" r="5"/><circle cx="1987" cy="546" r="4"/><circle cx="2077" cy="551" r="5"/><circle cx="2119" cy="552" r="6"/><circle cx="2209" cy="556" r="6"/><circle cx="2278" cy="545" r="4"/><circle cx="2392" cy="512" r="4"/><circle cx="2430" cy="538" r="5"/><circle cx="2558" cy="512" r="4"/><circle cx="-2" cy="512" r="4"/><circle cx="47" cy="618" r="4"/><circle cx="126" cy="620" r="6"/><circle cx="182" cy="627" r="5"/><circle cx="306" cy="563" r="6"/><circle cx="391" cy="586" r="5"/><circle cx="467" cy="577" r="4"/><circle cx="497" cy="625" r="6"/><circle cx="578" cy="581" r="5"/><circle cx="692" cy="638" r="5"/><circle cx="796" cy="613" r="5"/><circle cx="860" cy="576" r="5"/><circle cx="914" cy="573" r="5"/><circle cx="1017" cy="633" r="5"/><circle cx="1099" cy="594" r="5"/><circle cx="1179" cy="594" r="6"/><circle cx="1212" cy="606" r="6"/><circle cx="1339" cy="596" r="4"/><circle cx="1364" cy="564" r="5"/><circle cx="1492" cy="631" r="5"/><circle cx="1565" cy="584" r="5"/><circle cx="1614" cy="586" r="4"/><circle cx="1708" cy="587" r="5"/><circle cx="1781" cy="606" r="5"/><circle cx="1854" cy="612" r="5"/><circle cx="1997" cy="629" r="5"/><circle cx="2023" cy="626" r="6"/><circle cx="2148" cy="568" r="5"/><circle cx="2187" cy="606" r="4"/><circle cx="2295" cy="634" r="5"/><circle cx="2346" cy="574" r="4"/><circle cx="2457" cy="623" r="5"/><circle cx="2559" cy="575" r="5"/><circle cx="-1" cy="575" r="5"/><circle cx="69" cy="660" r="4"/><circle cx="124" cy="706" r="5"/><circle cx="232" cy="673" r="5"/><circle cx="292" cy="677" r="5"/><circle cx="399" cy="681" r="6"/><circle cx="462" cy="699" r="6"/><circle cx="552" cy="663" r="6"/><circle cx="605" cy="709" r="5"/><circle cx="667" cy="675" r="6"/><circle cx="789" cy="656" r="4"/><circle cx="828" cy="641" r="5"/><circle cx="956" cy="707" r="4"/><circle cx="986" cy="672" r="5"/><circle cx="1067" cy="705" r="5"/><circle cx="1142" cy="643" r="4"/><circle cx="1233" cy="654" r="5"/><circle cx="1351" cy="692" r="5"/><circle cx="1398" cy="714" r="5"/><circle cx="1504" cy="647" r="4"/><circle cx="1561" cy="656" r="5"/><circle cx="1646" cy="697" r="5"/><circle cx="1694" cy="709" r="5"/><circle cx="1824" cy="694" r="5"/><circle cx="1867" cy="647" r="4"/><circle cx="1948" cy="678" r="5"/><circle cx="2078" cy="701" r="5"/><circle cx="2131" cy="708" r="5"/><circle cx="2221" cy="672" r="5"/><circle cx="2299" cy="687" r="4"/><circle cx="2392" cy="706" r="5"/><circle cx="2432" cy="713" r="6"/><circle cx="2554" cy="685" r="5"/><circle cx="56" cy="783" r="5"/><circle cx="115" cy="764" r="5"/><circle cx="202" cy="721" r="5"/><circle cx="241" cy="735" r="6"/><circle cx="383" cy="723" r="5"/><circle cx="417" cy="781" r="5"/><circle cx="497" cy="795" r="6"/><circle cx="624" cy="729" r="5"/><circle cx="704" cy="769" r="4"/><circle cx="739" cy="740" r="5"/><circle cx="865" cy="741" r="6"/><circle cx="889" cy="744" r="5"/><circle cx="1031" cy="788" r="5"/><circle cx="1065" cy="787" r="6"/><circle cx="1193" cy="794" r="4"/><circle cx="1268" cy="797" r="6"/><circle cx="1345" cy="793" r="5"/><circle cx="1395" cy="777" r="6"/><circle cx="1517" cy="758" r="5"/><circle cx="1575" cy="746" r="5"/><circle cx="1668" cy="769" r="6"/><circle cx="1727" cy="733" r="5"/><circle cx="1813" cy="722" r="5"/><circle cx="1871" cy="735" r="5"/><circle cx="1943" cy="731" r="5"/><circle cx="2034" cy="723" r="5"/><circle cx="2091" cy="742" r="6"/><circle cx="2170" cy="734" r="4"/><circle cx="2296" cy="720" r="5"/><circle cx="2375" cy="786" r="5"/><circle cx="2416" cy="793" r="4"/><circle cx="2485" cy="725" r="5"/><circle cx="42" cy="811" r="5"/><circle cx="98" cy="807" r="5"/><circle cx="176" cy="871" r="5"/><circle cx="315" cy="873" r="5"/><circle cx="384" cy="820" r="5"/><circle cx="470" cy="863" r="4"/><circle cx="481" cy="823" r="6"/><circle cx="600" cy="854" r="6"/><circle cx="702" cy="810" r="6"/><circle cx="763" cy="820" r="5"/><circle cx="854" cy="876" r="5"/><circle cx="899" cy="878" r="6"/><circle cx="1024" cy="835" r="5"/><circle cx="1057" cy="825" r="5"/><circle cx="1181" cy="848" r="4"/><circle cx="1251" cy="867" r="6"/><circle cx="1356" cy="820" r="6"/><circle cx="1426" cy="856" r="5"/><circle cx="1478" cy="813" r="4"/><circle cx="1565" cy="824" r="5"/><circle cx="1607" cy="850" r="6"/><circle cx="1739" cy="816" r="5"/><circle cx="1789" cy="829" r="5"/><circle cx="1913" cy="861" r="4"/><circle cx="1988" cy="869" r="4"/><circle cx="2000" cy="879" r="5"/><circle cx="2130" cy="802" r="4"/><circle cx="2191" cy="829" r="5"/><circle cx="2296" cy="829" r="5"/><circle cx="2379" cy="811" r="4"/><circle cx="2435" cy="820" r="5"/><circle cx="2513" cy="809" r="6"/><circle cx="21" cy="937" r="5"/><circle cx="110" cy="951" r="5"/><circle cx="197" cy="942" r="5"/><circle cx="281" cy="886" r="5"/><circle cx="393" cy="935" r="5"/><circle cx="422" cy="960" r="5"/><circle cx="553" cy="898" r="5"/><circle cx="617" cy="920" r="4"/><circle cx="715" cy="909" r="5"/><circle cx="772" cy="906" r="6"/><circle cx="807" cy="938" r="4"/><circle cx="929" cy="959" r="5"/><circle cx="1004" cy="941" r="4"/><circle cx="1046" cy="899" r="6"/><circle cx="1166" cy="918" r="4"/><circle cx="1278" cy="882" r="6"/><circle cx="1346" cy="940" r="4"/><circle cx="1380" cy="918" r="6"/><circle cx="1492" cy="947" r="5"/><circle cx="1561" cy="890" r="5"/><circle cx="1660" cy="884" r="6"/><circle cx="1698" cy="919" r="6"/><circle cx="1791" cy="925" r="4"/><circle cx="1891" cy="949" r="4"/><circle cx="1924" cy="882" r="5"/><circle cx="2078" cy="918" r="6"/><circle cx="2090" cy="892" r="4"/><circle cx="2184" cy="908" r="5"/><circle cx="2312" cy="929" r="5"/><circle cx="2385" cy="953" r="4"/><circle cx="2437" cy="921" r="6"/><circle cx="2517" cy="930" r="5"/><circle cx="30" cy="982" r="5"/><circle cx="82" cy="1034" r="5"/><circle cx="198" cy="1011" r="4"/><circle cx="294" cy="992" r="5"/><circle cx="387" cy="1011" r="6"/><circle cx="475" cy="976" r="5"/><circle cx="503" cy="981" r="6"/><circle cx="572" cy="1032" r="5"/><circle cx="697" cy="1030" r="5"/><circle cx="791" cy="1031" r="5"/><circle cx="819" cy="1036" r="6"/><circle cx="895" cy="1006" r="5"/><circle cx="1001" cy="1013" r="5"/><circle cx="1096" cy="1038" r="4"/><circle cx="1184" cy="1004" r="6"/><circle cx="1276" cy="1039" r="4"/><circle cx="1330" cy="1020" r="5"/><circle cx="1379" cy="1031" r="5"/><circle cx="1467" cy="968" r="5"/><circle cx="1591" cy="1006" r="6"/><circle cx="1651" cy="1035" r="6"/><circle cx="1751" cy="1004" r="5"/><circle cx="1825" cy="998" r="6"/><circle cx="1842" cy="998" r="5"/><circle cx="1942" cy="985" r="6"/><circle cx="2078" cy="989" r="5"/><circle cx="2081" cy="1015" r="4"/><circle cx="2233" cy="991" r="6"/><circle cx="2259" cy="1033" r="5"/><circle cx="2368" cy="985" r="5"/><circle cx="2478" cy="965" r="4"/><circle cx="2552" cy="1033" r="5"/><circle cx="44" cy="1114" r="4"/><circle cx="102" cy="1047" r="4"/><circle cx="165" cy="1084" r="6"/><circle cx="303" cy="1068" r="5"/><circle cx="329" cy="1057" r="5"/><circle cx="416" cy="1105" r="5"/><circle cx="534" cy="1052" r="6"/><circle cx="618" cy="1050" r="5"/><circle cx="681" cy="1095" r="5"/><circle cx="743" cy="1053" r="6"/><circle cx="822" cy="1091" r="6"/><circle cx="931" cy="1065" r="5"/><circle cx="1002" cy="1086" r="5"/><circle cx="1048" cy="1108" r="4"/><circle cx="1129" cy="1041" r="6"/><circle cx="1254" cy="1087" r="5"/><circle cx="1345" cy="1049" r="4"/><circle cx="1362" cy="1061" r="5"/><circle cx="1500" cy="1095" r="4"/><circle cx="1595" cy="1099" r="5"/><circle cx="1669" cy="1045" r="4"/><circle cx="1691" cy="1107" r="4"/><circle cx="1773" cy="1049" r="5"/><circle cx="1887" cy="1106" r="6"/><circle cx="1975" cy="1115" r="5"/><circle cx="2077" cy="1111" r="5"/><circle cx="2155" cy="1084" r="4"/><circle cx="2201" cy="1067" r="6"/><circle cx="2284" cy="1108" r="5"/><circle cx="2347" cy="1049" r="5"/><circle cx="2423" cy="1074" r="5"/><circle cx="2527" cy="1045" r="5"/><circle cx="57" cy="1196" r="5"/><circle cx="86" cy="1200" r="6"/><circle cx="168" cy="1125" r="5"/><circle cx="304" cy="1181" r="4"/><circle cx="327" cy="1168" r="5"/><circle cx="465" cy="1167" r="5"/><circle cx="525" cy="1173" r="5"/><circle cx="629" cy="1158" r="5"/><circle cx="678" cy="1194" r="6"/><circle cx="735" cy="1126" r="4"/><circle cx="811" cy="1197" r="4"/><circle cx="944" cy="1195" r="4"/><circle cx="988" cy="1187" r="5"/><circle cx="1102" cy="1158" r="5"/><circle cx="1184" cy="1147" r="6"/><circle cx="1246" cy="1137" r="5"/><circle cx="1289" cy="1170" r="4"/><circle cx="1396" cy="1154" r="5"/><circle cx="1441" cy="1158" r="5"/><circle cx="1568" cy="1129" r="6"/><circle cx="1606" cy="1160" r="4"/><circle cx="1691" cy="1123" r="5"/><circle cx="1766" cy="1178" r="4"/><circle cx="1842" cy="1138" r="6"/><circle cx="1966" cy="1188" r="4"/><circle cx="2039" cy="1148" r="5"/><circle cx="2156" cy="1121" r="5"/><circle cx="2190" cy="1188" r="4"/><circle cx="2266" cy="1197" r="5"/><circle cx="2374" cy="1152" r="5"/><circle cx="2402" cy="1177" r="5"/><circle cx="2486" cy="1124" r="4"/><circle cx="17" cy="1234" r="5"/><circle cx="149" cy="1218" r="5"/><circle cx="198" cy="1277" r="5"/><circle cx="317" cy="1279" r="6"/><circle cx="378" cy="1225" r="6"/><circle cx="471" cy="1246" r="5"/><circle cx="533" cy="1219" r="6"/><circle cx="608" cy="1201" r="4"/><circle cx="679" cy="1217" r="5"/><circle cx="768" cy="1224" r="6"/><circle cx="840" cy="1256" r="5"/><circle cx="921" cy="1225" r="5"/><circle cx="995" cy="1237" r="5"/><circle cx="1060" cy="1206" r="4"/><circle cx="1120" cy="1210" r="5"/><circle cx="1245" cy="1277" r="5"/><circle cx="1325" cy="1243" r="5"/><circle cx="1420" cy="1217" r="5"/><circle cx="1493" cy="1270" r="4"/><circle cx="1582" cy="1213" r="6"/><circle cx="1602" cy="1231" r="5"/><circle cx="1760" cy="1216" r="4"/><circle cx="1796" cy="1208" r="4"/><circle cx="1843" cy="1228" r="5"/><circle cx="1999" cy="1272" r="5"/><circle cx="2067" cy="1261" r="5"/><circle cx="2114" cy="1221" r="4"/><circle cx="2201" cy="1248" r="6"/><circle cx="2254" cy="1271" r="6"/><circle cx="2374" cy="1247" r="6"/><circle cx="2477" cy="1220" r="5"/><circle cx="2535" cy="1223" r="6"/><circle cx="31" cy="1317" r="5"/><circle cx="151" cy="1344" r="4"/><circle cx="205" cy="1351" r="5"/><circle cx="295" cy="1292" r="5"/><circle cx="375" cy="1311" r="4"/><circle cx="434" cy="1284" r="5"/><circle cx="486" cy="1312" r="5"/><circle cx="565" cy="1352" r="4"/><circle cx="652" cy="1345" r="6"/><circle cx="794" cy="1354" r="6"/><circle cx="859" cy="1287" r="5"/><circle cx="926" cy="1281" r="5"/><circle cx="1007" cy="1319" r="4"/><circle cx="1045" cy="1335" r="6"/><circle cx="1186" cy="1333" r="5"/><circle cx="1219" cy="1337" r="4"/><circle cx="1305" cy="1339" r="4"/><circle cx="1374" cy="1294" r="4"/><circle cx="1446" cy="1347" r="4"/><circle cx="1588" cy="1300" r="5"/><circle cx="1652" cy="1350" r="6"/><circle cx="1728" cy="1304" r="6"/><circle cx="1788" cy="1311" r="5"/><circle cx="1916" cy="1283" r="4"/><circle cx="1971" cy="1342" r="6"/><circle cx="2063" cy="1294" r="6"/><circle cx="2103" cy="1298" r="5"/><circle cx="2171" cy="1284" r="4"/><circle cx="2296" cy="1307" r="5"/><circle cx="2337" cy="1308" r="6"/><circle cx="2479" cy="1344" r="4"/><circle cx="2481" cy="1329" r="4"/><circle cx="20" cy="1397" r="5"/><circle cx="144" cy="1382" r="5"/><circle cx="199" cy="1407" r="5"/><circle cx="311" cy="1424" r="5"/><circle cx="389" cy="1378" r="5"/><circle cx="416" cy="1413" r="5"/><circle cx="519" cy="1364" r="6"/><circle cx="612" cy="1412" r="5"/><circle cx="680" cy="1363" r="4"/><circle cx="771" cy="1371" r="4"/><circle cx="869" cy="1377" r="5"/><circle cx="946" cy="1402" r="5"/><circle cx="1011" cy="1374" r="4"/><circle cx="1044" cy="1392" r="5"/><circle cx="1121" cy="1427" r="4"/><circle cx="1260" cy="1389" r="4"/><circle cx="1285" cy="1425" r="4"/><circle cx="1429" cy="1430" r="5"/><circle cx="1450" cy="1372" r="4"/><circle cx="1534" cy="1375" r="5"/><circle cx="1631" cy="1382" r="5"/><circle cx="1689" cy="1408" r="4"/><circle cx="1820" cy="1373" r="4"/><circle cx="1876" cy="1416" r="5"/><circle cx="1997" cy="1382" r="5"/><circle cx="2012" cy="1381" r="6"/><circle cx="2139" cy="1404" r="4"/><circle cx="2230" cy="1394" r="4"/><circle cx="2249" cy="1409" r="5"/><circle cx="2336" cy="1386" r="4"/><circle cx="2413" cy="1397" r="5"/><circle cx="2550" cy="1389" r="5"/><path stroke="#fff" d="M72 43L127 20M72 43L-29 47M72 43L55 119M72 43L100 140M72 43L20 -43M2632 43L2531 47M72 1483L20 1397M127 20L207 22M127 20L144 -58M127 20L199 -33M127 1460L144 1382M127 1460L199 1407M207 22L144 -58M207 22L199 -33M207 1462L144 1382M207 1462L199 1407M312 65L385 50M312 65L260 127M312 65L334 84M312 65L311 -16M312 1505L311 1424M385 50L413 30M385 50L334 84M385 50L311 -16M385 50L416 -27M385 1490L311 1424M385 1490L416 1413M413 30L389 -62M413 30L416 -27M413 1470L389 1378M413 1470L416 1413M528 11L613 52M528 11L542 104M528 11L595 87M528 11L519 -76M528 11L612 -28M528 1451L519 1364M528 1451L612 1412M613 52L697 60M613 52L595 87M613 52L696 94M613 52L612 -28M613 1492L612 1412M697 60L758 60M697 60L696 94M697 60L751 105M758 60L831 3M758 60L696 94M758 60L751 105M831 3L902 59M831 3L794 -86M831 3L771 -69M831 3L869 -63M831 1443L794 1354M831 1443L771 1371M831 1443L869 1377M902 59L976 54M902 59L901 128M902 59L901 165M976 54L901 128M976 54L1034 103M976 54L946 -38M976 1494L946 1402M1081 1L1121 14M1081 1L1045 -105M1081 1L1011 -66M1081 1L1044 -48M1081 1L1121 -13M1081 1441L1045 1335M1081 1441L1011 1374M1081 1441L1044 1392M1081 1441L1121 1427M1121 14L1237 19M1121 14L1157 114M1121 14L1044 -48M1121 14L1121 -13M1121 1454L1044 1392M1121 1454L1121 1427M1237 19L1303 19M1237 19L1260 -51M1237 19L1285 -15M1237 1459L1260 1389M1237 1459L1285 1425M1303 19L1392 12M1303 19L1336 114M1303 19L1260 -51M1303 19L1285 -15M1303 1459L1260 1389M1303 1459L1285 1425M1392 12L1336 114M1392 12L1285 -15M1392 12L1429 -10M1392 12L1450 -68M1392 1452L1285 1425M1392 1452L1429 1430M1392 1452L1450 1372M1513 71L1588 39M1513 71L1601 27M1513 71L1449 119M1513 71L1575 128M1513 71L1494 169M1588 39L1601 27M1588 39L1575 128M1588 39L1621 84M1601 27L1621 84M1601 27L1631 -58M1601 1467L1631 1382M1714 25L1796 48M1714 25L1621 84M1714 25L1746 125M1714 25L1689 -32M1714 1465L1689 1408M1796 48L1862 4M1796 48L1746 125M1796 48L1808 151M1796 48L1876 -24M1796 1488L1876 1416M1862 4L1953 48M1862 4L1820 -67M1862 4L1876 -24M1862 1444L1820 1373M1862 1444L1876 1416M1953 48L2013 57M1953 48L1901 136M1953 48L1949 149M1953 48L2012 125M2013 57L2095 2M2013 57L1949 149M2013 57L2012 125M2013 57L2103 114M2095 2L2173 55M2095 2L2012 -59M2095 2L2139 -36M2095 1442L2012 1381M2095 1442L2139 1404M2173 55L2103 114M2173 55L2164 141M2173 55L2139 -36M2173 1495L2139 1404M2287 51L2341 93M2287 51L2230 -46M2287 51L2249 -31M2287 1491L2230 1394M2287 1491L2249 1409M2393 21L2416 49M2393 21L2341 93M2393 21L2336 -54M2393 21L2413 -43M2393 1461L2336 1386M2393 1461L2413 1397M2416 49L2341 93M2416 49L2423 126M2416 49L2480 103M2416 49L2413 -43M2416 1489L2413 1397M2531 47L2615 119M2531 47L2480 103M2531 47L2580 -43M2531 47L2550 -51M-29 47L55 119M-29 47L20 -43M-29 1487L20 1397M2531 1487L2580 1397M2531 1487L2550 1389M55 119L100 140M55 119L-14 211M2615 119L2546 211M100 140L172 139M100 140L157 172M172 139L260 127M172 139L157 172M172 139L223 169M172 139L255 180M260 127L334 84M260 127L223 169M260 127L255 180M334 84L373 167M334 84L311 -16M334 1524L311 1424M421 137L373 167M421 137L455 199M542 104L595 87M542 104L568 167M595 87L696 94M595 87L568 167M696 94L751 105M751 105L813 154M751 105L705 216M813 154L901 128M813 154L722 227M813 154L834 178M813 154L901 165M901 128L834 178M901 128L901 165M1034 103L1074 132M1034 103L1085 193M1074 132L1157 114M1074 132L1085 193M1157 114L1206 153M1157 114L1085 193M1157 114L1231 163M1206 153L1195 223M1206 153L1231 163M1336 114L1424 134M1336 114L1344 217M1424 134L1449 119M1424 134L1344 217M1424 134L1396 182M1424 134L1494 169M1449 119L1396 182M1449 119L1494 169M1575 128L1621 84M1575 128L1588 185M1746 125L1808 151M1746 125L1661 205M1746 125L1716 172M1808 151L1901 136M1808 151L1716 172M1808 151L1832 236M1901 136L1949 149M1901 136L1880 225M1901 136L1951 179M1949 149L2012 125M1949 149L1951 179M2012 125L2103 114M2012 125L1951 179M2103 114L2164 141M2164 141L2253 153M2164 141L2123 217M2164 141L2173 205M2253 153L2173 205M2253 153L2300 202M2253 153L2254 255M2341 93L2423 126M2423 126L2480 103M2423 126L2371 214M2423 126L2429 230M2480 103L2546 211M13 239L-14 211M13 239L10 248M13 239L115 253M13 239L-22 307M2573 239L2546 211M2573 239L2538 307M157 172L223 169M157 172L255 180M157 172L115 253M223 169L255 180M373 167L455 199M373 167L370 257M373 167L407 250M455 199L553 219M455 199L370 257M455 199L407 250M553 219L568 167M553 219L608 252M568 167L608 252M705 216L722 227M705 216L608 252M705 216L643 289M705 216L728 245M722 227L608 252M722 227L643 289M722 227L728 245M834 178L901 165M834 178L728 245M901 165L980 232M980 232L921 281M980 232L998 262M980 232L1059 263M1085 193L1059 263M1085 193L1121 253M1195 223L1231 163M1195 223L1121 253M1195 223L1208 284M1344 217L1396 182M1344 217L1333 252M1396 182L1494 169M1396 182L1333 252M1494 169L1588 185M1588 185L1661 205M1588 185L1568 246M1588 185L1634 251M1661 205L1716 172M1661 205L1568 246M1661 205L1634 251M1832 236L1880 225M1832 236L1752 316M1832 236L1764 301M1832 236L1912 293M1880 225L1951 179M1880 225L1912 293M1951 179L2003 250M2059 215L2123 217M2059 215L2003 250M2123 217L2173 205M2123 217L2155 314M2123 217L2216 247M2173 205L2216 247M2173 205L2254 255M2300 202L2371 214M2300 202L2216 247M2300 202L2254 255M2300 202L2334 282M2371 214L2429 230M2371 214L2334 282M2371 214L2410 274M2429 230L2410 274M2429 230L2354 322M2546 211L2570 248M2546 211L2538 307M-14 211L10 248M10 248L115 253M10 248L-22 307M2570 248L2538 307M115 253L173 313M115 253L141 326M173 313L244 312M173 313L141 326M173 313L224 396M244 312L141 326M244 312L224 396M244 312L254 394M244 312L345 336M370 257L407 250M370 257L482 318M370 257L345 336M407 250L482 318M407 250L345 336M482 318L471 356M482 318L488 358M608 252L643 289M643 289L728 245M643 289L652 389M728 245L728 381M861 303L921 281M861 303L861 353M861 303L907 354M861 303L846 401M921 281L998 262M921 281L861 353M921 281L907 354M998 262L1059 263M1059 263L1121 253M1059 263L1101 354M1121 253L1208 284M1121 253L1101 354M1208 284L1128 364M1208 284L1244 350M1333 252L1436 291M1333 252L1325 329M1436 291L1511 287M1436 291L1325 329M1436 291L1361 384M1436 291L1448 338M1511 287L1568 246M1511 287L1634 251M1511 287L1448 338M1511 287L1578 368M1568 246L1634 251M1752 316L1764 301M1752 316L1686 355M1752 316L1838 377M1752 316L1765 413M1764 301L1686 355M1764 301L1838 377M1912 293L1976 302M1912 293L2003 250M1912 293L1974 367M1976 302L2003 250M1976 302L1908 392M1976 302L1974 367M1976 302L2026 326M2003 250L2026 326M2155 314L2216 247M2155 314L2107 393M2155 314L2215 382M2155 314L2129 409M2216 247L2254 255M2254 255L2334 282M2334 282L2410 274M2334 282L2354 322M2410 274L2354 322M2410 274L2404 336M2538 307L2522 383M72 396L141 326M72 396L-38 383M72 396L57 415M72 396L100 431M2632 396L2522 383M224 396L254 394M224 396L233 446M224 396L164 500M254 394L233 446M471 356L488 358M471 356L487 431M488 358L595 398M488 358L487 431M595 398L652 389M595 398L563 434M595 398L645 451M652 389L728 381M652 389L563 434M652 389L645 451M728 381L757 465M861 353L907 354M861 353L846 401M907 354L978 397M907 354L846 401M978 397L951 475M978 397L983 448M978 397L1045 433M1101 354L1128 364M1101 354L1045 433M1101 354L1145 412M1128 364L1244 350M1128 364L1145 412M1244 350L1325 329M1244 350L1145 412M1244 350L1238 446M1325 329L1361 384M1325 329L1345 403M1361 384L1448 338M1361 384L1345 403M1448 338L1345 403M1578 368L1622 370M1578 368L1519 448M1578 368L1574 462M1578 368L1608 417M1622 370L1686 355M1622 370L1608 417M1622 370L1637 483M1686 355L1765 413M1838 377L1908 392M1838 377L1765 413M1838 377L1843 462M1908 392L1974 367M1908 392L1843 462M1908 392L1914 498M1974 367L2026 326M1974 367L2062 432M2026 326L2107 393M2026 326L2062 432M2107 393L2062 432M2107 393L2129 409M2107 393L2196 406M2215 382L2256 384M2215 382L2129 409M2215 382L2196 406M2215 382L2254 405M2256 384L2354 322M2256 384L2196 406M2256 384L2254 405M2354 322L2404 336M2522 383L2617 415M2522 383L2476 448M2522 383L2510 441M-38 383L57 415M57 415L100 431M57 415L-50 441M57 415L92 491M2617 415L2510 441M100 431L92 491M100 431L164 500M233 446L308 477M233 446L164 500M233 446L307 489M308 477L333 459M308 477L307 489M308 477L383 494M308 477L306 563M333 459L431 454M333 459L307 489M333 459L383 494M333 459L306 563M431 454L487 431M431 454L383 494M431 454L448 508M431 454L494 501M487 431L563 434M487 431L494 501M563 434L645 451M563 434L494 501M645 451L757 465M645 451L653 515M757 465L846 401M757 465L775 507M757 465L807 496M846 401L903 483M951 475L983 448M951 475L903 483M951 475L1005 495M983 448L1045 433M983 448L903 483M983 448L1005 495M1045 433L1145 412M1045 433L1005 495M1145 412L1238 446M1238 446L1345 403M1420 479L1339 538M1420 479L1435 492M1420 479L1496 506M1420 479L1364 564M1519 448L1574 462M1519 448L1608 417M1519 448L1435 492M1519 448L1496 506M1574 462L1608 417M1574 462L1496 506M1574 462L1637 483M1608 417L1637 483M1749 466L1765 413M1749 466L1722 522M1765 413L1843 462M1843 462L1840 518M1843 462L1914 498M1996 478L2062 432M1996 478L1914 498M1996 478L1987 546M1996 478L2077 551M2062 432L2129 409M2129 409L2196 406M2196 406L2254 405M2380 478L2476 448M2380 478L2392 512M2380 478L2430 538M2380 478L2346 574M2476 448L2510 441M2476 448L2430 538M2476 448L2558 512M2510 441L2558 512M21 544L92 491M21 544L-2 512M21 544L47 618M21 544L-1 575M2581 544L2558 512M2581 544L2559 575M92 491L164 500M92 491L-2 512M2652 491L2558 512M164 500L126 620M307 489L383 494M307 489L306 563M383 494L448 508M448 508L494 501M448 508L391 586M448 508L467 577M494 501L467 577M610 549L653 515M610 549L578 581M653 515L578 581M775 507L807 496M775 507L796 613M775 507L860 576M807 496L860 576M903 483L1005 495M903 483L914 573M1005 495L1048 557M1048 557L1017 633M1048 557L1099 594M1196 559L1263 559M1196 559L1099 594M1196 559L1179 594M1196 559L1212 606M1196 559L1233 654M1263 559L1339 538M1263 559L1212 606M1263 559L1339 596M1339 538L1435 492M1339 538L1339 596M1339 538L1364 564M1435 492L1496 506M1435 492L1364 564M1496 506L1531 559M1531 559L1492 631M1531 559L1565 584M1531 559L1614 586M1531 559L1504 647M1637 483L1722 522M1637 483L1614 586M1722 522L1840 518M1722 522L1708 587M1722 522L1781 606M1840 518L1914 498M1840 518L1854 612M1914 498L1987 546M1987 546L2077 551M1987 546L1997 629M1987 546L2023 626M2077 551L2119 552M2077 551L2023 626M2077 551L2148 568M2119 552L2209 556M2119 552L2148 568M2119 552L2187 606M2209 556L2278 545M2209 556L2148 568M2209 556L2187 606M2278 545L2295 634M2278 545L2346 574M2392 512L2430 538M2392 512L2346 574M2430 538L2346 574M2430 538L2457 623M2558 512L2559 575M47 618L126 620M47 618L-1 575M47 618L69 660M47 618L-6 685M2607 618L2559 575M2607 618L2554 685M126 620L182 627M126 620L69 660M126 620L124 706M182 627L124 706M182 627L232 673M182 627L202 721M182 627L241 735M306 563L391 586M391 586L467 577M391 586L399 681M467 577L497 625M497 625L578 581M497 625L399 681M497 625L462 699M497 625L552 663M578 581L552 663M692 638L796 613M692 638L605 709M692 638L667 675M692 638L789 656M796 613L860 576M796 613L789 656M796 613L828 641M860 576L914 573M860 576L828 641M914 573L828 641M1017 633L1099 594M1017 633L956 707M1017 633L986 672M1017 633L1067 705M1099 594L1179 594M1099 594L1142 643M1179 594L1212 606M1179 594L1142 643M1179 594L1233 654M1212 606L1142 643M1212 606L1233 654M1339 596L1364 564M1339 596L1351 692M1492 631L1565 584M1492 631L1504 647M1492 631L1561 656M1565 584L1614 586M1565 584L1504 647M1565 584L1561 656M1614 586L1708 587M1708 587L1781 606M1708 587L1694 709M1781 606L1854 612M1781 606L1824 694M1854 612L1824 694M1854 612L1867 647M1997 629L2023 626M1997 629L1948 678M1997 629L2034 723M2023 626L1948 678M2023 626L2078 701M2148 568L2187 606M2187 606L2221 672M2295 634L2346 574M2295 634L2221 672M2295 634L2299 687M2295 634L2296 720M2457 623L2432 713M2457 623L2554 685M2457 623L2485 725M2559 575L2554 685M69 660L124 706M69 660L-6 685M2629 660L2554 685M124 706L115 764M124 706L202 721M232 673L292 677M232 673L202 721M232 673L241 735M292 677L241 735M292 677L383 723M399 681L462 699M399 681L383 723M399 681L417 781M462 699L552 663M462 699L383 723M462 699L497 795M552 663L605 709M552 663L624 729M605 709L667 675M605 709L624 729M667 675L624 729M667 675L704 769M667 675L739 740M789 656L828 641M789 656L739 740M789 656L865 741M828 641L865 741M956 707L986 672M956 707L865 741M956 707L889 744M986 672L1067 705M986 672L889 744M1067 705L1142 643M1067 705L1031 788M1067 705L1065 787M1142 643L1233 654M1351 692L1398 714M1398 714L1345 793M1398 714L1395 777M1504 647L1561 656M1504 647L1517 758M1561 656L1646 697M1561 656L1575 746M1646 697L1694 709M1646 697L1575 746M1646 697L1668 769M1646 697L1727 733M1694 709L1668 769M1694 709L1727 733M1824 694L1867 647M1824 694L1813 722M1824 694L1871 735M1867 647L1948 678M1867 647L1813 722M1867 647L1871 735M1948 678L1871 735M1948 678L1943 731M2078 701L2131 708M2078 701L2034 723M2078 701L2091 742M2131 708L2034 723M2131 708L2091 742M2131 708L2170 734M2131 708L2130 802M2221 672L2299 687M2221 672L2170 734M2221 672L2296 720M2299 687L2296 720M2392 706L2432 713M2392 706L2296 720M2392 706L2375 786M2392 706L2485 725M2432 713L2375 786M2432 713L2416 793M2432 713L2485 725M2554 685L2485 725M56 783L115 764M56 783L42 811M56 783L98 807M56 783L-47 809M2616 783L2513 809M115 764L202 721M115 764L42 811M115 764L98 807M202 721L241 735M383 723L417 781M383 723L384 820M417 781L497 795M417 781L384 820M417 781L481 823M497 795L470 863M497 795L481 823M497 795L600 854M624 729L704 769M704 769L739 740M704 769L702 810M704 769L763 820M739 740L702 810M739 740L763 820M865 741L889 744M889 744L854 876M889 744L899 878M1031 788L1065 787M1031 788L1024 835M1031 788L1057 825M1031 788L1046 899M1065 787L1024 835M1065 787L1057 825M1065 787L1046 899M1193 794L1268 797M1193 794L1181 848M1193 794L1251 867M1268 797L1345 793M1268 797L1251 867M1268 797L1356 820M1268 797L1278 882M1345 793L1395 777M1345 793L1356 820M1345 793L1426 856M1395 777L1356 820M1395 777L1426 856M1395 777L1478 813M1517 758L1575 746M1517 758L1478 813M1517 758L1565 824M1575 746L1565 824M1668 769L1727 733M1668 769L1607 850M1668 769L1739 816M1727 733L1813 722M1727 733L1739 816M1813 722L1871 735M1813 722L1789 829M1871 735L1943 731M1943 731L2034 723M2034 723L2091 742M2091 742L2170 734M2091 742L2130 802M2170 734L2130 802M2170 734L2191 829M2375 786L2416 793M2375 786L2379 811M2375 786L2435 820M2416 793L2379 811M2416 793L2435 820M2416 793L2513 809M2485 725L2513 809M42 811L98 807M42 811L-47 809M2602 811L2513 809M98 807L176 871M176 871L197 942M176 871L281 886M315 873L384 820M315 873L281 886M315 873L393 935M384 820L470 863M384 820L481 823M470 863L481 823M470 863L422 960M470 863L553 898M481 823L553 898M600 854L702 810M600 854L553 898M600 854L617 920M702 810L763 820M702 810L715 909M763 820L715 909M763 820L772 906M854 876L899 878M854 876L772 906M854 876L807 938M899 878L772 906M899 878L929 959M1024 835L1057 825M1024 835L1004 941M1024 835L1046 899M1057 825L1181 848M1057 825L1046 899M1181 848L1251 867M1181 848L1166 918M1251 867L1278 882M1356 820L1426 856M1356 820L1278 882M1426 856L1478 813M1426 856L1380 918M1478 813L1565 824M1565 824L1607 850M1565 824L1561 890M1607 850L1561 890M1607 850L1660 884M1607 850L1698 919M1739 816L1789 829M1739 816L1660 884M1739 816L1698 919M1789 829L1791 925M1913 861L1988 869M1913 861L2000 879M1913 861L1891 949M1913 861L1924 882M1988 869L2000 879M1988 869L1924 882M2000 879L1924 882M2000 879L2078 918M2000 879L2090 892M2130 802L2191 829M2130 802L2090 892M2191 829L2296 829M2191 829L2184 908M2296 829L2379 811M2296 829L2312 929M2379 811L2435 820M2435 820L2513 809M2435 820L2437 921M21 937L110 951M21 937L-43 930M21 937L30 982M21 937L-8 1033M2581 937L2517 930M2581 937L2552 1033M110 951L197 942M110 951L30 982M110 951L82 1034M110 951L102 1047M197 942L281 886M197 942L198 1011M197 942L294 992M393 935L422 960M393 935L387 1011M393 935L475 976M422 960L387 1011M422 960L475 976M422 960L503 981M553 898L617 920M553 898L503 981M617 920L715 909M617 920L572 1032M715 909L772 906M715 909L807 938M772 906L807 938M807 938L791 1031M807 938L819 1036M929 959L1004 941M929 959L895 1006M929 959L1001 1013M929 959L931 1065M1004 941L1046 899M1004 941L1001 1013M1166 918L1184 1004M1278 882L1346 940M1278 882L1380 918M1346 940L1380 918M1346 940L1330 1020M1346 940L1379 1031M1380 918L1379 1031M1380 918L1467 968M1492 947L1561 890M1492 947L1467 968M1492 947L1591 1006M1561 890L1660 884M1660 884L1698 919M1698 919L1791 925M1698 919L1751 1004M1791 925L1751 1004M1791 925L1825 998M1891 949L1924 882M1891 949L1825 998M1891 949L1842 998M1891 949L1942 985M1924 882L1942 985M2078 918L2090 892M2078 918L2184 908M2078 918L2078 989M2078 918L2081 1015M2090 892L2184 908M2090 892L2078 989M2184 908L2233 991M2312 929L2385 953M2312 929L2233 991M2312 929L2259 1033M2312 929L2368 985M2385 953L2437 921M2385 953L2368 985M2385 953L2478 965M2437 921L2517 930M2437 921L2368 985M2437 921L2478 965M2517 930L2478 965M30 982L82 1034M30 982L-8 1033M30 982L-33 1045M2590 982L2552 1033M2590 982L2527 1045M82 1034L-8 1033M82 1034L102 1047M82 1034L165 1084M2642 1034L2552 1033M198 1011L294 992M198 1011L165 1084M198 1011L168 1125M294 992L387 1011M294 992L303 1068M294 992L329 1057M387 1011L475 976M387 1011L329 1057M475 976L503 981M475 976L534 1052M503 981L572 1032M503 981L534 1052M572 1032L534 1052M572 1032L618 1050M697 1030L791 1031M697 1030L618 1050M697 1030L681 1095M697 1030L743 1053M791 1031L819 1036M791 1031L743 1053M791 1031L822 1091M819 1036L895 1006M819 1036L743 1053M819 1036L822 1091M895 1006L931 1065M1001 1013L1096 1038M1001 1013L931 1065M1001 1013L1002 1086M1096 1038L1184 1004M1096 1038L1002 1086M1096 1038L1048 1108M1096 1038L1129 1041M1184 1004L1276 1039M1184 1004L1129 1041M1184 1004L1254 1087M1276 1039L1330 1020M1276 1039L1254 1087M1276 1039L1345 1049M1276 1039L1362 1061M1330 1020L1379 1031M1330 1020L1345 1049M1330 1020L1362 1061M1379 1031L1345 1049M1379 1031L1362 1061M1591 1006L1651 1035M1591 1006L1595 1099M1591 1006L1669 1045M1651 1035L1595 1099M1651 1035L1669 1045M1651 1035L1691 1107M1751 1004L1825 998M1751 1004L1842 998M1751 1004L1773 1049M1825 998L1842 998M1825 998L1773 1049M1842 998L1942 985M1842 998L1773 1049M1942 985L1887 1106M1942 985L1975 1115M2078 989L2081 1015M2081 1015L2077 1111M2081 1015L2155 1084M2233 991L2259 1033M2233 991L2201 1067M2259 1033L2201 1067M2259 1033L2284 1108M2259 1033L2347 1049M2368 985L2347 1049M2368 985L2423 1074M2478 965L2527 1045M2552 1033L2604 1114M2552 1033L2527 1045M-8 1033L44 1114M44 1114L102 1047M44 1114L-33 1045M44 1114L57 1196M44 1114L86 1200M2604 1114L2527 1045M102 1047L165 1084M102 1047L168 1125M165 1084L168 1125M303 1068L329 1057M303 1068L304 1181M303 1068L327 1168M329 1057L416 1105M416 1105L327 1168M416 1105L465 1167M534 1052L618 1050M618 1050L681 1095M681 1095L743 1053M681 1095L629 1158M681 1095L735 1126M743 1053L735 1126M822 1091L931 1065M822 1091L735 1126M822 1091L811 1197M931 1065L1002 1086M1002 1086L1048 1108M1002 1086L988 1187M1048 1108L1129 1041M1048 1108L1102 1158M1129 1041L1102 1158M1129 1041L1184 1147M1254 1087L1184 1147M1254 1087L1246 1137M1254 1087L1289 1170M1345 1049L1362 1061M1362 1061L1396 1154M1500 1095L1595 1099M1500 1095L1441 1158M1500 1095L1568 1129M1595 1099L1568 1129M1595 1099L1606 1160M1669 1045L1691 1107M1669 1045L1691 1123M1691 1107L1773 1049M1691 1107L1691 1123M1773 1049L1842 1138M1887 1106L1975 1115M1887 1106L1842 1138M1887 1106L1966 1188M1975 1115L2077 1111M1975 1115L1966 1188M1975 1115L2039 1148M2077 1111L2155 1084M2077 1111L2039 1148M2077 1111L2156 1121M2155 1084L2201 1067M2155 1084L2156 1121M2201 1067L2284 1108M2201 1067L2156 1121M2284 1108L2347 1049M2284 1108L2266 1197M2284 1108L2374 1152M2347 1049L2423 1074M2347 1049L2374 1152M2423 1074L2374 1152M2423 1074L2402 1177M2423 1074L2486 1124M2527 1045L2486 1124M57 1196L86 1200M57 1196L17 1234M57 1196L149 1218M57 1196L-25 1223M2617 1196L2535 1223M86 1200L168 1125M86 1200L17 1234M86 1200L149 1218M168 1125L149 1218M304 1181L327 1168M304 1181L317 1279M304 1181L378 1225M304 1181L295 1292M327 1168L378 1225M465 1167L525 1173M465 1167L471 1246M465 1167L533 1219M525 1173L629 1158M525 1173L471 1246M525 1173L533 1219M525 1173L608 1201M629 1158L678 1194M629 1158L608 1201M629 1158L679 1217M678 1194L735 1126M678 1194L608 1201M678 1194L679 1217M678 1194L768 1224M811 1197L768 1224M811 1197L840 1256M944 1195L988 1187M944 1195L921 1225M944 1195L995 1237M944 1195L926 1281M988 1187L921 1225M988 1187L995 1237M988 1187L1060 1206M1102 1158L1184 1147M1102 1158L1060 1206M1102 1158L1120 1210M1184 1147L1246 1137M1184 1147L1120 1210M1246 1137L1289 1170M1289 1170L1396 1154M1289 1170L1325 1243M1396 1154L1441 1158M1396 1154L1420 1217M1441 1158L1420 1217M1568 1129L1606 1160M1568 1129L1582 1213M1568 1129L1602 1231M1606 1160L1691 1123M1606 1160L1582 1213M1606 1160L1602 1231M1691 1123L1766 1178M1766 1178L1842 1138M1766 1178L1760 1216M1766 1178L1796 1208M1766 1178L1843 1228M1842 1138L1796 1208M1842 1138L1843 1228M1966 1188L2039 1148M1966 1188L1999 1272M1966 1188L1916 1283M2039 1148L2067 1261M2156 1121L2190 1188M2190 1188L2266 1197M2190 1188L2114 1221M2190 1188L2201 1248M2266 1197L2201 1248M2266 1197L2254 1271M2374 1152L2402 1177M2374 1152L2374 1247M2402 1177L2486 1124M2402 1177L2374 1247M2402 1177L2477 1220M2486 1124L2477 1220M2486 1124L2535 1223M17 1234L-83 1220M17 1234L-25 1223M17 1234L31 1317M2577 1234L2477 1220M2577 1234L2535 1223M149 1218L198 1277M198 1277L317 1279M198 1277L151 1344M198 1277L205 1351M198 1277L295 1292M317 1279L378 1225M317 1279L295 1292M317 1279L375 1311M378 1225L375 1311M378 1225L434 1284M471 1246L533 1219M471 1246L434 1284M471 1246L486 1312M533 1219L608 1201M533 1219L486 1312M608 1201L679 1217M679 1217L768 1224M679 1217L652 1345M768 1224L840 1256M840 1256L859 1287M840 1256L926 1281M921 1225L995 1237M921 1225L859 1287M921 1225L926 1281M995 1237L1060 1206M995 1237L926 1281M1060 1206L1120 1210M1245 1277L1325 1243M1245 1277L1186 1333M1245 1277L1219 1337M1245 1277L1305 1339M1325 1243L1420 1217M1325 1243L1305 1339M1325 1243L1374 1294M1420 1217L1493 1270M1420 1217L1374 1294M1493 1270L1582 1213M1493 1270L1446 1347M1582 1213L1602 1231M1582 1213L1588 1300M1602 1231L1588 1300M1760 1216L1796 1208M1760 1216L1843 1228M1760 1216L1728 1304M1760 1216L1788 1311M1796 1208L1843 1228M1796 1208L1788 1311M1843 1228L1916 1283M1999 1272L2067 1261M1999 1272L1916 1283M1999 1272L1971 1342M1999 1272L2063 1294M2067 1261L2114 1221M2067 1261L2063 1294M2067 1261L2103 1298M2114 1221L2201 1248M2114 1221L2103 1298M2201 1248L2254 1271M2201 1248L2171 1284M2254 1271L2171 1284M2254 1271L2296 1307M2254 1271L2337 1308M2374 1247L2477 1220M2374 1247L2296 1307M2374 1247L2337 1308M2477 1220L2535 1223M2535 1223L2591 1317M-25 1223L31 1317M31 1317L-79 1329M31 1317L20 1397M31 1317L-10 1389M2591 1317L2481 1329M2591 1317L2550 1389M151 1344L205 1351M151 1344L144 1382M151 1344L199 1407M205 1351L295 1292M205 1351L144 1382M205 1351L199 1407M295 1292L375 1311M375 1311L434 1284M375 1311L389 1378M434 1284L486 1312M434 1284L389 1378M486 1312L565 1352M486 1312L519 1364M565 1352L652 1345M565 1352L519 1364M565 1352L612 1412M652 1345L612 1412M652 1345L680 1363M794 1354L859 1287M794 1354L680 1363M794 1354L771 1371M794 1354L869 1377M859 1287L926 1281M859 1287L869 1377M1007 1319L1045 1335M1007 1319L1011 1374M1007 1319L1044 1392M1045 1335L946 1402M1045 1335L1011 1374M1045 1335L1044 1392M1186 1333L1219 1337M1186 1333L1121 1427M1219 1337L1305 1339M1219 1337L1260 1389M1305 1339L1374 1294M1305 1339L1260 1389M1374 1294L1446 1347M1374 1294L1450 1372M1446 1347L1429 1430M1446 1347L1450 1372M1446 1347L1534 1375M1588 1300L1652 1350M1588 1300L1534 1375M1588 1300L1631 1382M1652 1350L1728 1304M1652 1350L1534 1375M1652 1350L1631 1382M1652 1350L1689 1408M1728 1304L1788 1311M1728 1304L1689 1408M1788 1311L1820 1373M1916 1283L1971 1342M1971 1342L2063 1294M1971 1342L1997 1382M1971 1342L2012 1381M2063 1294L2103 1298M2063 1294L2012 1381M2103 1298L2171 1284M2103 1298L2012 1381M2296 1307L2337 1308M2296 1307L2249 1409M2296 1307L2336 1386M2337 1308L2336 1386M2479 1344L2481 1329M2479 1344L2580 1397M2479 1344L2413 1397M2479 1344L2550 1389M-81 1344L20 1397M2481 1329L2413 1397M2481 1329L2550 1389M20 1397L-10 1389M2580 1397L2550 1389M144 1382L199 1407M311 1424L389 1378M311 1424L416 1413M389 1378L416 1413M416 1413L519 1364M612 1412L680 1363M680 1363L771 1371M771 1371L869 1377M869 1377L946 1402M946 1402L1011 1374M1011 1374L1044 1392M1260 1389L1285 1425M1429 1430L1450 1372M1450 1372L1534 1375M1534 1375L1631 1382M1631 1382L1689 1408M1820 1373L1876 1416M1876 1416L1997 1382M1997 1382L2012 1381M2139 1404L2230 1394M2139 1404L2249 1409M2230 1394L2249 1409M2249 1409L2336 1386M2336 1386L2413 1397"/></svg>