<svg xmlns="http://www.w3.org/2000/svg" width="2560" height="1440" fill="#fff"><circle cx="32" cy="24" r="5"/><circle cx="87" cy="22" r="4"/><circle cx="164" cy="22" r="4"/><circle cx="304" cy="47" r="6"/><circle cx="393" cy="34" r="4"/><circle cx="463" cy="54" r="4"/><circle cx="502" cy="64" r="6"/><circle cx="634" cy="54" r="6"/><circle cx="658" cy="48" r="5"/><circle cx="746" cy="38" r="6"/><circle cx="875" cy="73" r="6"/><circle cx="953" cy="7" r="4"/><circle cx="993" cy="43" r="4"/><circle cx="1055" cy="45" r="6"/><circle cx="1138" cy="11" r="6"/><circle cx="1226" cy="69" r="6"/><circle cx="1281" cy="63" r="4"/><circle cx="1427" cy="74" r="5"/><circle cx="1452" cy="73" r="4"/><circle cx="1543" cy="63" r="5"/><circle cx="1606" cy="71" r="6"/><circle cx="1756" cy="0" r="5"/><circle cx="1756" cy="1440" r="5"/><circle cx="1828" cy="35" r="6"/><circle cx="1886" cy="37" r="6"/><circle cx="1996" cy="16" r="5"/><circle cx="2072" cy="24" r="4"/><circle cx="2120" cy="17" r="6"/><circle cx="2236" cy="33" r="4"/><circle cx="2270" cy="56" r="6"/><circle cx="2375" cy="52" r="5"/><circle cx="2426" cy="30" r="5"/><circle cx="2560" cy="38" r="4"/><circle cx="-0" cy="38" r="4"/><circle cx="33" cy="81" r="6"/><circle cx="91" cy="104" r="5"/><circle cx="238" cy="88" r="5"/><circle cx="309" cy="85" r="6"/><circle cx="353" cy="85" r="5"/><circle cx="404" cy="125" r="5"/><circle cx="515" cy="153" r="5"/><circle cx="572" cy="130" r="6"/><circle cx="646" cy="88" r="4"/><circle cx="763" cy="159" r="5"/><circle cx="866" cy="100" r="4"/><circle cx="920" cy="158" r="5"/><circle cx="1005" cy="125" r="4"/><circle cx="1118" cy="108" r="5"/><circle cx="1167" cy="124" r="5"/><circle cx="1249" cy="112" r="5"/><circle cx="1310" cy="82" r="5"/><circle cx="1424" cy="149" r="6"/><circle cx="1519" cy="136" r="4"/><circle cx="1592" cy="101" r="4"/><circle cx="1633" cy="88" r="6"/><circle cx="1693" cy="119" r="6"/><circle cx="1812" cy="150" r="4"/><circle cx="1856" cy="134" r="6"/><circle cx="1969" cy="110" r="5"/><circle cx="2034" cy="123" r="4"/><circle cx="2136" cy="88" r="6"/><circle cx="2214" cy="126" r="5"/><circle cx="2298" cy="101" r="5"/><circle cx="2346" cy="150" r="6"/><circle cx="2445" cy="138" r="4"/><circle cx="2529" cy="91" r="6"/><circle cx="62" cy="193" r="5"/><circle cx="97" cy="206" r="4"/><circle cx="195" cy="197" r="4"/><circle cx="279" cy="238" r="5"/><circle cx="384" cy="172" r="5"/><circle cx="446" cy="210" r="6"/><circle cx="538" cy="201" r="5"/><circle cx="566" cy="183" r="5"/><circle cx="699" cy="184" r="6"/><circle cx="746" cy="163" r="4"/><circle cx="817" cy="195" r="5"/><circle cx="909" cy="170" r="5"/><circle cx="1029" cy="197" r="5"/><circle cx="1102" cy="239" r="5"/><circle cx="1194" cy="220" r="5"/><circle cx="1228" cy="227" r="6"/><circle cx="1291" cy="169" r="5"/><circle cx="1433" cy="215" r="4"/><circle cx="1518" cy="212" r="5"/><circle cx="1561" cy="208" r="6"/><circle cx="1615" cy="217" r="5"/><circle cx="1717" cy="238" r="5"/><circle cx="1792" cy="187" r="5"/><circle cx="1876" cy="180" r="5"/><circle cx="1937" cy="163" r="4"/><circle cx="2033" cy="167" r="4"/><circle cx="2155" cy="200" r="4"/><circle cx="2164" cy="176" r="5"/><circle cx="2303" cy="198" r="6"/><circle cx="2333" cy="178" r="4"/><circle cx="2471" cy="219" r="4"/><circle cx="2513" cy="226" r="6"/><circle cx="45" cy="261" r="4"/><circle cx="135" cy="288" r="5"/><circle cx="186" cy="318" r="5"/><circle cx="283" cy="267" r="6"/><circle cx="375" cy="258" r="5"/><circle cx="436" cy="310" r="6"/><circle cx="535" cy="313" r="5"/><circle cx="623" cy="313" r="5"/><circle cx="719" cy="275" r="5"/><circle cx="752" cy="251" r="5"/><circle cx="842" cy="292" r="5"/><circle cx="890" cy="271" r="5"/><circle cx="1001" cy="266" r="5"/><circle cx="1089" cy="312" r="5"/><circle cx="1133" cy="277" r="5"/><circle cx="1268" cy="244" r="5"/><circle cx="1300" cy="244" r="4"/><circle cx="1370" cy="277" r="5"/><circle cx="1447" cy="313" r="4"/><circle cx="1563" cy="272" r="5"/><circle cx="1654" cy="259" r="5"/><circle cx="1720" cy="316" r="5"/><circle cx="1771" cy="313" r="5"/><circle cx="1846" cy="257" r="5"/><circle cx="1927" cy="256" r="5"/><circle cx="2040" cy="310" r="6"/><circle cx="2125" cy="251" r="6"/><circle cx="2195" cy="255" r="6"/><circle cx="2260" cy="308" r="5"/><circle cx="2346" cy="252" r="5"/><circle cx="2464" cy="247" r="5"/><circle cx="2551" cy="306" r="4"/><circle cx="33" cy="391" r="4"/><circle cx="96" cy="351" r="5"/><circle cx="189" cy="337" r="6"/><circle cx="287" cy="325" r="6"/><circle cx="393" cy="371" r="6"/><circle cx="434" cy="367" r="5"/><circle cx="487" cy="384" r="5"/><circle cx="603" cy="375" r="4"/><circle cx="650" cy="382" r="5"/><circle cx="795" cy="392" r="4"/><circle cx="855" cy="330" r="6"/><circle cx="890" cy="358" r="5"/><circle cx="1017" cy="360" r="6"/><circle cx="1105" cy="363" r="6"/><circle cx="1121" cy="363" r="5"/><circle cx="1254" cy="323" r="5"/><circle cx="1309" cy="338" r="6"/><circle cx="1415" cy="348" r="6"/><circle cx="1470" cy="400" r="6"/><circle cx="1576" cy="338" r="5"/><circle cx="1626" cy="339" r="5"/><circle cx="1744" cy="332" r="6"/><circle cx="1780" cy="393" r="4"/><circle cx="1867" cy="385" r="4"/><circle cx="1928" cy="366" r="5"/><circle cx="2028" cy="398" r="6"/><circle cx="2155" cy="385" r="6"/><circle cx="2218" cy="378" r="6"/><circle cx="2257" cy="391" r="6"/><circle cx="2320" cy="336" r="4"/><circle cx="2470" cy="374" r="5"/><circle cx="2545" cy="348" r="6"/><circle cx="10" cy="415" r="5"/><circle cx="82" cy="453" r="6"/><circle cx="175" cy="468" r="6"/><circle cx="302" cy="469" r="5"/><circle cx="377" cy="460" r="4"/><circle cx="478" cy="460" r="5"/><circle cx="509" cy="464" r="4"/><circle cx="588" cy="467" r="5"/><circle cx="693" cy="435" r="4"/><circle cx="791" cy="469" r="6"/><circle cx="877" cy="465" r="5"/><circle cx="886" cy="444" r="5"/><circle cx="1009" cy="463" r="5"/><circle cx="1086" cy="469" r="4"/><circle cx="1133" cy="403" r="5"/><circle cx="1261" cy="465" r="6"/><circle cx="1325" cy="440" r="6"/><circle cx="1402" cy="474" r="5"/><circle cx="1461" cy="475" r="5"/><circle cx="1520" cy="465" r="5"/><circle cx="1633" cy="446" r="5"/><circle cx="1755" cy="474" r="4"/><circle cx="1833" cy="457" r="6"/><circle cx="1851" cy="424" r="4"/><circle cx="1961" cy="466" r="5"/><circle cx="2015" cy="408" r="5"/><circle cx="2128" cy="438" r="5"/><circle cx="2166" cy="448" r="5"/><circle cx="2274" cy="471" r="5"/><circle cx="2385" cy="475" r="5"/><circle cx="2472" cy="472" r="6"/><circle cx="2503" cy="423" r="5"/><circle cx="29" cy="551" r="6"/><circle cx="145" cy="534" r="4"/><circle cx="213" cy="524" r="6"/><circle cx="288" cy="541" r="5"/><circle cx="368" cy="514" r="4"/><circle cx="444" cy="487" r="5"/><circle cx="516" cy="548" r="4"/><circle cx="575" cy="502" r="6"/><circle cx="707" cy="481" r="6"/><circle cx="757" cy="554" r="5"/><circle cx="870" cy="501" r="5"/><circle cx="932" cy="482" r="5"/><circle cx="985" cy="558" r="5"/><circle cx="1080" cy="554" r="5"/><circle cx="1151" cy="518" r="4"/><circle cx="1260" cy="493" r="6"/><circle cx="1284" cy="513" r="5"/><circle cx="1438" cy="509" r="5"/><circle cx="1467" cy="550" r="5"/><circle cx="1563" cy="511" r="5"/><circle cx="1650" cy="548" r="6"/><circle cx="1710" cy="527" r="5"/><circle cx="1837" cy="520" r="4"/><circle cx="1914" cy="506" r="6"/><circle cx="1930" cy="511" r="5"/><circle cx="2039" cy="489" r="5"/><circle cx="2144" cy="492" r="4"/><circle cx="2183" cy="491" r="5"/><circle cx="2259" cy="550" r="5"/><circle cx="2377" cy="535" r="4"/><circle cx="2436" cy="536" r="5"/><circle cx="2488" cy="541" r="6"/><circle cx="4" cy="608" r="6"/><circle cx="2564" cy="608" r="6"/><circle cx="147" cy="585" r="4"/><circle cx="185" cy="588" r="4"/><circle cx="273" cy="621" r="5"/><circle cx="326" cy="561" r="4"/><circle cx="440" cy="575" r="4"/><circle cx="549" cy="638" r="5"/><circle cx="639" cy="607" r="5"/><circle cx="659" cy="633" r="5"/><circle cx="743" cy="561" r="6"/><circle cx="812" cy="605" r="6"/><circle cx="905" cy="587" r="5"/><circle cx="1040" cy="596" r="5"/><circle cx="1042" cy="588" r="5"/><circle cx="1136" cy="638" r="4"/><circle cx="1234" cy="619" r="5"/><circle cx="1357" cy="638" r="4"/><circle cx="1406" cy="629" r="5"/><circle cx="1447" cy="583" r="5"/><circle cx="1558" cy="597" r="6"/><circle cx="1628" cy="629" r="4"/><circle cx="1747" cy="565" r="5"/><circle cx="1806" cy="573" r="5"/><circle cx="1874" cy="577" r="5"/><circle cx="1940" cy="626" r="4"/><circle cx="2057" cy="579" r="4"/><circle cx="2127" cy="626" r="5"/><circle cx="2234" cy="620" r="6"/><circle cx="2301" cy="566" r="4"/><circle cx="2346" cy="569" r="4"/><circle cx="2447" cy="609" r="4"/><circle cx="2521" cy="630" r="4"/><circle cx="73" cy="712" r="5"/><circle cx="132" cy="648" r="5"/><circle cx="221" cy="656" r="4"/><circle cx="258" cy="650" r="4"/><circle cx="347" cy="656" r="6"/><circle cx="451" cy="692" r="6"/><circle cx="539" cy="683" r="6"/><circle cx="570" cy="701" r="5"/><circle cx="690" cy="699" r="6"/><circle cx="753" cy="641" r="4"/><circle cx="873" cy="718" r="5"/><circle cx="946" cy="658" r="5"/><circle cx="998" cy="714" r="5"/><circle cx="1089" cy="683" r="5"/><circle cx="1184" cy="682" r="4"/><circle cx="1200" cy="712" r="4"/><circle cx="1281" cy="698" r="4"/><circle cx="1378" cy="710" r="5"/><circle cx="1485" cy="699" r="5"/><circle cx="1586" cy="668" r="5"/><circle cx="1659" cy="672" r="5"/><circle cx="1683" cy="659" r="4"/><circle cx="1817" cy="695" r="6"/><circle cx="1918" cy="669" r="6"/><circle cx="1992" cy="653" r="5"/><circle cx="2047" cy="684" r="5"/><circle cx="2086" cy="650" r="4"/><circle cx="2238" cy="673" r="6"/><circle cx="2271" cy="682" r="6"/><circle cx="2399" cy="668" r="5"/><circle cx="2461" cy="705" r="4"/><circle cx="2503" cy="642" r="5"/><circle cx="21" cy="745" r="6"/><circle cx="141" cy="789" r="5"/><circle cx="167" cy="721" r="5"/><circle cx="248" cy="787" r="5"/><circle cx="355" cy="787" r="5"/><circle cx="429" cy="747" r="5"/><circle cx="523" cy="757" r="5"/><circle cx="617" cy="724" r="5"/><circle cx="681" cy="737" r="5"/><circle cx="789" cy="726" r="6"/><circle cx="838" cy="796" r="4"/><circle cx="921" cy="766" r="5"/><circle cx="1024" cy="741" r="4"/><circle cx="1113" cy="773" r="4"/><circle cx="1127" cy="737" r="4"/><circle cx="1225" cy="772" r="5"/><circle cx="1321" cy="724" r="4"/><circle cx="1386" cy="751" r="4"/><circle cx="1459" cy="786" r="6"/><circle cx="1538" cy="793" r="5"/><circle cx="1662" cy="744" r="5"/><circle cx="1741" cy="773" r="6"/><circle cx="1786" cy="750" r="6"/><circle cx="1884" cy="755" r="6"/><circle cx="1980" cy="729" r="4"/><circle cx="2072" cy="775" r="6"/><circle cx="2151" cy="727" r="5"/><circle cx="2201" cy="775" r="5"/><circle cx="2274" cy="732" r="5"/><circle cx="2328" cy="745" r="6"/><circle cx="2476" cy="742" r="5"/><circle cx="2506" cy="725" r="4"/><circle cx="45" cy="817" r="5"/><circle cx="123" cy="873" r="6"/><circle cx="217" cy="821" r="4"/><circle cx="269" cy="877" r="5"/><circle cx="342" cy="821" r="4"/><circle cx="424" cy="878" r="6"/><circle cx="518" cy="818" r="6"/><circle cx="609" cy="858" r="6"/><circle cx="665" cy="875" r="5"/><circle cx="748" cy="863" r="5"/><circle cx="832" cy="839" r="5"/><circle cx="903" cy="812" r="4"/><circle cx="992" cy="865" r="5"/><circle cx="1050" cy="804" r="5"/><circle cx="1200" cy="877" r="5"/><circle cx="1270" cy="854" r="5"/><circle cx="1323" cy="880" r="4"/><circle cx="1372" cy="858" r="5"/><circle cx="1508" cy="832" r="6"/><circle cx="1557" cy="846" r="4"/><circle cx="1655" cy="868" r="6"/><circle cx="1738" cy="863" r="4"/><circle cx="1829" cy="850" r="5"/><circle cx="1915" cy="824" r="5"/><circle cx="1933" cy="816" r="4"/><circle cx="2047" cy="800" r="6"/><circle cx="2099" cy="823" r="5"/><circle cx="2178" cy="880" r="5"/><circle cx="2264" cy="877" r="4"/><circle cx="2395" cy="835" r="4"/><circle cx="2453" cy="811" r="5"/><circle cx="2484" cy="837" r="4"/><circle cx="43" cy="948" r="5"/><circle cx="123" cy="957" r="5"/><circle cx="214" cy="886" r="4"/><circle cx="301" cy="939" r="6"/><circle cx="381" cy="948" r="4"/><circle cx="470" cy="951" r="4"/><circle cx="550" cy="912" r="6"/><circle cx="561" cy="888" r="5"/><circle cx="720" cy="883" r="4"/><circle cx="776" cy="912" r="5"/><circle cx="840" cy="898" r="4"/><circle cx="924" cy="924" r="4"/><circle cx="1020" cy="923" r="5"/><circle cx="1056" cy="946" r="6"/><circle cx="1151" cy="939" r="6"/><circle cx="1266" cy="883" r="6"/><circle cx="1325" cy="946" r="5"/><circle cx="1379" cy="956" r="6"/><circle cx="1510" cy="899" r="5"/><circle cx="1582" cy="899" r="5"/><circle cx="1660" cy="885" r="5"/><circle cx="1712" cy="932" r="5"/><circle cx="1766" cy="937" r="6"/><circle cx="1909" cy="954" r="5"/><circle cx="1989" cy="901" r="6"/><circle cx="2056" cy="928" r="5"/><circle cx="2144" cy="960" r="5"/><circle cx="2214" cy="942" r="4"/><circle cx="2313" cy="882" r="4"/><circle cx="2345" cy="914" r="5"/><circle cx="2443" cy="950" r="4"/><circle cx="2555" cy="945" r="5"/><circle cx="52" cy="975" r="5"/><circle cx="111" cy="968" r="4"/><circle cx="192" cy="970" r="5"/><circle cx="246" cy="988" r="4"/><circle cx="348" cy="1031" r="6"/><circle cx="440" cy="978" r="6"/><circle cx="496" cy="986" r="4"/><circle cx="601" cy="1003" r="5"/><circle cx="669" cy="1004" r="5"/><circle cx="742" cy="1038" r="5"/><circle cx="818" cy="1030" r="5"/><circle cx="932" cy="1033" r="6"/><circle cx="961" cy="982" r="4"/><circle cx="1102" cy="1027" r="4"/><circle cx="1191" cy="1010" r="5"/><circle cx="1215" cy="980" r="5"/><circle cx="1354" cy="1033" r="5"/><circle cx="1436" cy="1026" r="5"/><circle cx="1441" cy="960" r="5"/><circle cx="1535" cy="993" r="5"/><circle cx="1603" cy="1037" r="5"/><circle cx="1747" cy="1013" r="6"/><circle cx="1789" cy="1002" r="5"/><circle cx="1900" cy="983" r="5"/><circle cx="1932" cy="990" r="6"/><circle cx="2023" cy="1033" r="6"/><circle cx="2107" cy="1029" r="4"/><circle cx="2188" cy="1011" r="6"/><circle cx="2254" cy="984" r="4"/><circle cx="2367" cy="974" r="4"/><circle cx="2473" cy="982" r="5"/><circle cx="2504" cy="994" r="6"/><circle cx="16" cy="1115" r="4"/><circle cx="137" cy="1060" r="4"/><circle cx="190" cy="1118" r="6"/><circle cx="292" cy="1082" r="5"/><circle cx="361" cy="1040" r="6"/><circle cx="417" cy="1098" r="6"/><circle cx="559" cy="1095" r="5"/><circle cx="608" cy="1075" r="6"/><circle cx="656" cy="1050" r="6"/><circle cx="779" cy="1063" r="5"/><circle cx="864" cy="1118" r="6"/><circle cx="889" cy="1049" r="5"/><circle cx="964" cy="1058" r="6"/><circle cx="1075" cy="1064" r="6"/><circle cx="1157" cy="1111" r="5"/><circle cx="1216" cy="1072" r="6"/><circle cx="1327" cy="1099" r="6"/><circle cx="1429" cy="1046" r="4"/><circle cx="1469" cy="1041" r="5"/><circle cx="1530" cy="1091" r="5"/><circle cx="1673" cy="1059" r="5"/><circle cx="1723" cy="1085" r="5"/><circle cx="1803" cy="1103" r="5"/><circle cx="1884" cy="1091" r="6"/><circle cx="1992" cy="1064" r="5"/><circle cx="2020" cy="1114" r="5"/><circle cx="2124" cy="1100" r="6"/><circle cx="2204" cy="1077" r="5"/><circle cx="2283" cy="1107" r="5"/><circle cx="2335" cy="1091" r="4"/><circle cx="2434" cy="1070" r="6"/><circle cx="2526" cy="1083" r="5"/><circle cx="48" cy="1132" r="5"/><circle cx="96" cy="1137" r="5"/><circle cx="207" cy="1175" r="5"/><circle cx="317" cy="1121" r="5"/><circle cx="327" cy="1138" r="6"/><circle cx="439" cy="1164" r="6"/><circle cx="488" cy="1141" r="5"/><circle cx="562" cy="1169" r="6"/><circle cx="644" cy="1156" r="6"/><circle cx="761" cy="1171" r="5"/><circle cx="867" cy="1183" r="5"/><circle cx="957" cy="1167" r="5"/><circle cx="1003" cy="1156" r="4"/><circle cx="1063" cy="1199" r="5"/><circle cx="1193" cy="1184" r="5"/><circle cx="1209" cy="1164" r="4"/><circle cx="1352" cy="1173" r="5"/><circle cx="1410" cy="1168" r="5"/><circle cx="1512" cy="1180" r="6"/><circle cx="1541" cy="1128" r="4"/><circle cx="1651" cy="1136" r="4"/><circle cx="1747" cy="1161" r="5"/><circle cx="1789" cy="1179" r="5"/><circle cx="1856" cy="1138" r="4"/><circle cx="1948" cy="1126" r="5"/><circle cx="2032" cy="1178" r="4"/><circle cx="2099" cy="1188" r="5"/><circle cx="2171" cy="1180" r="4"/><circle cx="2293" cy="1152" r="5"/><circle cx="2370" cy="1139" r="4"/><circle cx="2450" cy="1143" r="5"/><circle cx="2527" cy="1124" r="6"/><circle cx="21" cy="1246" r="5"/><circle cx="118" cy="1267" r="5"/><circle cx="172" cy="1238" r="5"/><circle cx="273" cy="1234" r="5"/><circle cx="370" cy="1274" r="5"/><circle cx="465" cy="1219" r="5"/><circle cx="560" cy="1279" r="6"/><circle cx="611" cy="1267" r="6"/><circle cx="706" cy="1244" r="5"/><circle cx="782" cy="1268" r="5"/><circle cx="853" cy="1263" r="4"/><circle cx="883" cy="1211" r="5"/><circle cx="1024" cy="1221" r="5"/><circle cx="1056" cy="1243" r="5"/><circle cx="1179" cy="1255" r="4"/><circle cx="1217" cy="1263" r="5"/><circle cx="1344" cy="1204" r="6"/><circle cx="1389" cy="1224" r="5"/><circle cx="1483" cy="1213" r="6"/><circle cx="1521" cy="1235" r="4"/><circle cx="1614" cy="1214" r="4"/><circle cx="1703" cy="1233" r="4"/><circle cx="1778" cy="1235" r="5"/><circle cx="1850" cy="1237" r="6"/><circle cx="1925" cy="1242" r="5"/><circle cx="2033" cy="1255" r="5"/><circle cx="2140" cy="1275" r="5"/><circle cx="2240" cy="1279" r="6"/><circle cx="2262" cy="1235" r="4"/><circle cx="2328" cy="1271" r="5"/><circle cx="2424" cy="1214" r="6"/><circle cx="2537" cy="1266" r="5"/><circle cx="18" cy="1328" r="5"/><circle cx="102" cy="1289" r="6"/><circle cx="174" cy="1303" r="5"/><circle cx="252" cy="1317" r="4"/><circle cx="370" cy="1301" r="4"/><circle cx="435" cy="1328" r="6"/><circle cx="553" cy="1331" r="6"/><circle cx="639" cy="1297" r="4"/><circle cx="707" cy="1337" r="4"/><circle cx="739" cy="1334" r="5"/><circle cx="852" cy="1335" r="6"/><circle cx="892" cy="1281" r="4"/><circle cx="1021" cy="1343" r="4"/><circle cx="1092" cy="1334" r="6"/><circle cx="1123" cy="1301" r="5"/><circle cx="1263" cy="1281" r="5"/><circle cx="1347" cy="1291" r="4"/><circle cx="1392" cy="1290" r="5"/><circle cx="1497" cy="1342" r="5"/><circle cx="1594" cy="1289" r="5"/><circle cx="1631" cy="1358" r="6"/><circle cx="1728" cy="1347" r="4"/><circle cx="1794" cy="1281" r="6"/><circle cx="1878" cy="1311" r="6"/><circle cx="1934" cy="1349" r="5"/><circle cx="2064" cy="1343" r="4"/><circle cx="2098" cy="1356" r="6"/><circle cx="2187" cy="1288" r="5"/><circle cx="2266" cy="1284" r="5"/><circle cx="2337" cy="1334" r="6"/><circle cx="2411" cy="1330" r="5"/><circle cx="2554" cy="1292" r="4"/><circle cx="11" cy="1389" r="5"/><circle cx="106" cy="1395" r="5"/><circle cx="219" cy="1400" r="5"/><circle cx="267" cy="1413" r="5"/><circle cx="330" cy="1376" r="5"/><circle cx="466" cy="1433" r="6"/><circle cx="543" cy="1433" r="6"/><circle cx="640" cy="1401" r="5"/><circle cx="643" cy="1362" r="6"/><circle cx="793" cy="1365" r="4"/><circle cx="822" cy="1394" r="6"/><circle cx="919" cy="1429" r="6"/><circle cx="997" cy="1417" r="5"/><circle cx="1055" cy="1394" r="6"/><circle cx="1121" cy="1404" r="5"/><circle cx="1218" cy="1417" r="4"/><circle cx="1297" cy="1380" r="4"/><circle cx="1430" cy="1385" r="5"/><circle cx="1486" cy="1378" r="4"/><circle cx="1563" cy="1364" r="6"/><circle cx="1651" cy="1363" r="5"/><circle cx="1747" cy="1407" r="5"/><circle cx="1777" cy="1406" r="5"/><circle cx="1896" cy="1416" r="5"/><circle cx="1948" cy="1380" r="5"/><circle cx="2053" cy="1404" r="5"/><circle cx="2139" cy="1367" r="5"/><circle cx="2169" cy="1407" r="6"/><circle cx="2314" cy="1373" r="5"/><circle cx="2395" cy="1402" r="4"/><circle cx="2431" cy="1421" r="5"/><circle cx="2559" cy="1382" r="4"/><circle cx="-1" cy="1382" r="4"/><path stroke="#fff" d="M32 24L87 22M32 24L-0 38M32 24L33 81M32 24L-31 91M32 24L11 -51M2592 24L2560 38M2592 24L2529 91M32 1464L11 1389M87 22L164 22M87 22L33 81M87 22L91 104M87 22L106 -45M87 1462L106 1395M164 22L238 88M164 22L106 -45M164 22L219 -40M164 1462L106 1395M164 1462L219 1400M304 47L393 34M304 47L238 88M304 47L309 85M304 47L353 85M304 47L267 -27M304 1487L267 1413M393 34L463 54M393 34L353 85M393 34L404 125M393 34L466 -7M393 1474L466 1433M463 54L502 64M463 54L466 -7M463 54L543 -7M463 1494L466 1433M463 1494L543 1433M502 64L515 153M502 64L572 130M502 64L466 -7M502 64L543 -7M502 1504L466 1433M502 1504L543 1433M634 54L658 48M634 54L646 88M634 54L543 -7M634 54L640 -39M634 1494L543 1433M634 1494L640 1401M658 48L746 38M658 48L646 88M658 48L640 -39M658 1488L640 1401M746 38L646 88M746 38L763 159M746 38L822 -46M746 1478L822 1394M875 73L953 7M875 73L866 100M875 73L920 158M875 73L909 170M875 73L919 -11M875 1513L919 1429M953 7L993 43M953 7L919 -11M953 7L997 -23M953 1447L919 1429M953 1447L997 1417M993 43L1055 45M993 43L1005 125M993 43L919 -11M993 43L997 -23M993 1483L919 1429M993 1483L997 1417M1055 45L1138 11M1055 45L1118 108M1055 45L997 -23M1055 45L1055 -46M1055 1485L997 1417M1055 1485L1055 1394M1138 11L1226 69M1138 11L1121 -36M1138 11L1218 -23M1138 1451L1121 1404M1138 1451L1218 1417M1226 69L1281 63M1226 69L1167 124M1226 69L1249 112M1226 69L1310 82M1281 63L1249 112M1281 63L1310 82M1281 63L1218 -23M1281 1503L1218 1417M1427 74L1452 73M1427 74L1310 82M1427 74L1424 149M1452 73L1543 63M1452 73L1424 149M1543 63L1606 71M1543 63L1519 136M1543 63L1592 101M1543 63L1633 88M1606 71L1592 101M1606 71L1633 88M1606 71L1693 119M1756 0L1828 35M1756 0L1747 -33M1756 0L1777 -34M1756 1440L1747 1407M1756 1440L1777 1406M1828 35L1886 37M1828 35L1777 -34M1828 35L1896 -24M1828 1475L1777 1406M1828 1475L1896 1416M1886 37L1856 134M1886 37L1969 110M1886 37L1896 -24M1886 1477L1896 1416M1996 16L2072 24M1996 16L1969 110M1996 16L1896 -24M1996 16L1948 -60M1996 16L2053 -36M1996 1456L1896 1416M1996 1456L1948 1380M1996 1456L2053 1404M2072 24L2120 17M2072 24L2136 88M2072 24L2053 -36M2072 24L2169 -33M2072 1464L2053 1404M2072 1464L2169 1407M2120 17L2136 88M2120 17L2053 -36M2120 17L2139 -73M2120 17L2169 -33M2120 1457L2053 1404M2120 1457L2139 1367M2120 1457L2169 1407M2236 33L2270 56M2236 33L2214 126M2236 33L2169 -33M2236 1473L2169 1407M2270 56L2375 52M2270 56L2214 126M2270 56L2298 101M2375 52L2426 30M2375 52L2346 150M2375 52L2431 -19M2375 1492L2431 1421M2426 30L2445 138M2426 30L2529 91M2426 30L2395 -38M2426 30L2431 -19M2426 1470L2395 1402M2426 1470L2431 1421M2560 38L2593 81M2560 38L2529 91M2560 38L2571 -51M2560 38L2559 -58M-0 38L33 81M-0 38L11 -51M-0 1478L11 1389M2560 1478L2571 1389M2560 1478L2559 1382M33 81L91 104M33 81L-31 91M2593 81L2529 91M91 104L62 193M91 104L97 206M238 88L309 85M238 88L267 -27M238 1528L267 1413M309 85L353 85M309 85L404 125M309 85L384 172M353 85L404 125M353 85L384 172M404 125L384 172M404 125L446 210M515 153L572 130M515 153L446 210M515 153L538 201M515 153L566 183M572 130L646 88M572 130L538 201M572 130L566 183M646 88L699 184M763 159L699 184M763 159L746 163M763 159L817 195M763 159L752 251M866 100L920 158M866 100L909 170M920 158L1005 125M920 158L909 170M1005 125L1118 108M1005 125L1029 197M1118 108L1167 124M1118 108L1029 197M1167 124L1249 112M1167 124L1194 220M1249 112L1310 82M1249 112L1291 169M1310 82L1291 169M1424 149L1519 136M1424 149L1433 215M1519 136L1592 101M1519 136L1518 212M1519 136L1561 208M1592 101L1633 88M1592 101L1693 119M1633 88L1693 119M1812 150L1856 134M1812 150L1792 187M1812 150L1876 180M1856 134L1792 187M1856 134L1876 180M1856 134L1937 163M1969 110L2034 123M1969 110L1937 163M1969 110L2033 167M2034 123L2136 88M2034 123L2033 167M2136 88L2214 126M2136 88L2164 176M2214 126L2298 101M2214 126L2164 176M2298 101L2346 150M2298 101L2303 198M2298 101L2333 178M2346 150L2303 198M2346 150L2333 178M2346 150L2346 252M2445 138L2529 91M2445 138L2471 219M2445 138L2464 247M62 193L97 206M62 193L-47 226M62 193L45 261M2622 193L2513 226M97 206L195 197M97 206L45 261M97 206L135 288M195 197L279 238M279 238L283 267M279 238L375 258M279 238L287 325M384 172L446 210M384 172L375 258M446 210L538 201M446 210L375 258M538 201L566 183M538 201L535 313M699 184L746 163M699 184L719 275M699 184L752 251M746 163L817 195M746 163L719 275M746 163L752 251M817 195L909 170M817 195L752 251M817 195L842 292M909 170L890 271M1029 197L1102 239M1029 197L1001 266M1102 239L1194 220M1102 239L1001 266M1102 239L1089 312M1102 239L1133 277M1194 220L1228 227M1194 220L1133 277M1194 220L1268 244M1228 227L1291 169M1228 227L1268 244M1228 227L1300 244M1228 227L1254 323M1291 169L1268 244M1291 169L1300 244M1433 215L1518 212M1433 215L1370 277M1433 215L1447 313M1518 212L1561 208M1518 212L1615 217M1518 212L1563 272M1561 208L1615 217M1561 208L1563 272M1615 217L1563 272M1615 217L1654 259M1717 238L1792 187M1717 238L1654 259M1717 238L1720 316M1717 238L1771 313M1717 238L1744 332M1792 187L1876 180M1792 187L1846 257M1876 180L1937 163M1876 180L1846 257M1937 163L2033 167M1937 163L1927 256M2155 200L2164 176M2155 200L2125 251M2155 200L2195 255M2164 176L2125 251M2164 176L2195 255M2303 198L2333 178M2303 198L2195 255M2303 198L2346 252M2333 178L2346 252M2471 219L2513 226M2471 219L2464 247M2513 226L2605 261M2513 226L2464 247M2513 226L2551 306M-47 226L45 261M45 261L135 288M45 261L-9 306M2605 261L2551 306M135 288L186 318M135 288L96 351M135 288L189 337M186 318L283 267M186 318L96 351M186 318L189 337M186 318L287 325M283 267L375 258M283 267L189 337M283 267L287 325M375 258L436 310M436 310L535 313M436 310L393 371M436 310L434 367M436 310L487 384M535 313L623 313M535 313L487 384M535 313L603 375M623 313L719 275M623 313L603 375M623 313L650 382M719 275L752 251M842 292L890 271M842 292L795 392M842 292L855 330M842 292L890 358M890 271L1001 266M890 271L855 330M890 271L890 358M1001 266L1017 360M1089 312L1133 277M1089 312L1017 360M1089 312L1105 363M1089 312L1121 363M1133 277L1105 363M1133 277L1121 363M1268 244L1300 244M1268 244L1254 323M1300 244L1370 277M1300 244L1309 338M1370 277L1447 313M1370 277L1309 338M1370 277L1415 348M1447 313L1415 348M1447 313L1470 400M1563 272L1654 259M1563 272L1576 338M1654 259L1720 316M1654 259L1626 339M1720 316L1771 313M1720 316L1626 339M1720 316L1744 332M1771 313L1846 257M1771 313L1744 332M1771 313L1780 393M1846 257L1927 256M1927 256L2040 310M2040 310L2125 251M2040 310L2028 398M2040 310L2015 408M2125 251L2195 255M2195 255L2260 308M2260 308L2346 252M2260 308L2218 378M2260 308L2257 391M2260 308L2320 336M2346 252L2320 336M2551 306L2470 374M2551 306L2545 348M33 391L96 351M33 391L-15 348M33 391L10 415M33 391L82 453M33 391L-57 423M2593 391L2545 348M2593 391L2503 423M96 351L189 337M96 351L82 453M189 337L287 325M287 325L393 371M393 371L434 367M393 371L487 384M393 371L377 460M434 367L487 384M434 367L478 460M487 384L478 460M603 375L650 382M603 375L588 467M603 375L693 435M650 382L588 467M650 382L693 435M650 382L707 481M795 392L855 330M795 392L890 358M795 392L791 469M855 330L890 358M855 330L886 444M890 358L886 444M1017 360L1105 363M1017 360L1121 363M1017 360L1009 463M1105 363L1121 363M1105 363L1133 403M1121 363L1133 403M1254 323L1309 338M1309 338L1415 348M1309 338L1325 440M1415 348L1470 400M1470 400L1402 474M1470 400L1461 475M1470 400L1520 465M1576 338L1626 339M1576 338L1633 446M1626 339L1744 332M1626 339L1633 446M1744 332L1780 393M1780 393L1755 474M1780 393L1833 457M1780 393L1851 424M1867 385L1928 366M1867 385L1833 457M1867 385L1851 424M1928 366L2028 398M1928 366L1851 424M1928 366L2015 408M2028 398L1961 466M2028 398L2015 408M2028 398L2039 489M2155 385L2218 378M2155 385L2257 391M2155 385L2128 438M2155 385L2166 448M2218 378L2257 391M2218 378L2128 438M2218 378L2166 448M2257 391L2320 336M2257 391L2274 471M2470 374L2545 348M2470 374L2570 415M2470 374L2472 472M2470 374L2503 423M-90 374L10 415M2545 348L2570 415M2545 348L2503 423M-15 348L10 415M10 415L82 453M10 415L-57 423M2570 415L2503 423M82 453L175 468M82 453L29 551M175 468L145 534M175 468L213 524M302 469L377 460M302 469L288 541M302 469L368 514M302 469L326 561M377 460L368 514M377 460L444 487M478 460L509 464M478 460L444 487M478 460L575 502M509 464L588 467M509 464L444 487M509 464L516 548M509 464L575 502M588 467L575 502M693 435L707 481M791 469L877 465M791 469L707 481M791 469L757 554M791 469L870 501M877 465L886 444M877 465L870 501M877 465L932 482M877 465L905 587M886 444L870 501M886 444L932 482M1009 463L1086 469M1009 463L932 482M1009 463L985 558M1086 469L1133 403M1086 469L1080 554M1086 469L1151 518M1133 403L1151 518M1261 465L1325 440M1261 465L1151 518M1261 465L1260 493M1261 465L1284 513M1325 440L1402 474M1325 440L1260 493M1325 440L1284 513M1402 474L1461 475M1402 474L1438 509M1461 475L1520 465M1461 475L1438 509M1461 475L1467 550M1520 465L1438 509M1520 465L1563 511M1633 446L1563 511M1633 446L1650 548M1633 446L1710 527M1755 474L1833 457M1755 474L1710 527M1755 474L1747 565M1833 457L1851 424M1833 457L1837 520M1851 424L1914 506M1961 466L2015 408M1961 466L1914 506M1961 466L1930 511M1961 466L2039 489M2015 408L2039 489M2128 438L2166 448M2128 438L2144 492M2128 438L2183 491M2166 448L2144 492M2166 448L2183 491M2274 471L2385 475M2274 471L2183 491M2274 471L2259 550M2274 471L2301 566M2385 475L2472 472M2385 475L2377 535M2385 475L2436 536M2385 475L2346 569M2472 472L2503 423M2472 472L2436 536M2472 472L2488 541M29 551L-72 541M29 551L4 608M29 551L-39 630M2589 551L2488 541M2589 551L2521 630M145 534L213 524M145 534L147 585M145 534L185 588M213 524L288 541M213 524L147 585M213 524L185 588M288 541L368 514M288 541L273 621M288 541L326 561M368 514L444 487M368 514L326 561M444 487L440 575M516 548L575 502M516 548L440 575M516 548L549 638M575 502L639 607M707 481L757 554M707 481L743 561M757 554L743 561M757 554L812 605M757 554L753 641M870 501L932 482M870 501L905 587M932 482L985 558M985 558L905 587M985 558L1040 596M985 558L1042 588M1080 554L1151 518M1080 554L1040 596M1080 554L1042 588M1080 554L1136 638M1151 518L1260 493M1260 493L1284 513M1284 513L1234 619M1438 509L1467 550M1438 509L1447 583M1467 550L1406 629M1467 550L1447 583M1467 550L1558 597M1563 511L1650 548M1563 511L1558 597M1650 548L1710 527M1650 548L1558 597M1650 548L1628 629M1710 527L1747 565M1710 527L1806 573M1837 520L1914 506M1837 520L1930 511M1837 520L1806 573M1837 520L1874 577M1914 506L1930 511M1914 506L1874 577M1930 511L2039 489M1930 511L1874 577M2039 489L2057 579M2144 492L2183 491M2183 491L2259 550M2259 550L2234 620M2259 550L2301 566M2259 550L2346 569M2377 535L2436 536M2377 535L2301 566M2377 535L2346 569M2436 536L2488 541M2436 536L2447 609M2488 541L2564 608M2488 541L2447 609M-72 541L4 608M4 608L-39 630M4 608L-57 642M2564 608L2521 630M2564 608L2503 642M147 585L185 588M147 585L132 648M185 588L132 648M185 588L221 656M273 621L326 561M273 621L221 656M273 621L258 650M273 621L347 656M326 561L347 656M549 638L639 607M549 638L451 692M549 638L539 683M549 638L570 701M639 607L659 633M659 633L743 561M659 633L690 699M659 633L617 724M743 561L812 605M743 561L753 641M812 605L905 587M812 605L753 641M905 587L946 658M1040 596L1042 588M1040 596L946 658M1040 596L1089 683M1042 588L1136 638M1136 638L1234 619M1136 638L1089 683M1136 638L1184 682M1234 619L1184 682M1234 619L1200 712M1234 619L1281 698M1357 638L1406 629M1357 638L1447 583M1357 638L1378 710M1357 638L1321 724M1406 629L1447 583M1406 629L1378 710M1406 629L1485 699M1558 597L1628 629M1558 597L1586 668M1628 629L1586 668M1628 629L1659 672M1628 629L1683 659M1747 565L1806 573M1747 565L1683 659M1806 573L1874 577M1806 573L1817 695M1874 577L1940 626M1940 626L1918 669M1940 626L1992 653M2057 579L2127 626M2057 579L2086 650M2127 626L2234 620M2127 626L2047 684M2127 626L2086 650M2127 626L2151 727M2234 620L2301 566M2234 620L2238 673M2234 620L2271 682M2301 566L2346 569M2447 609L2521 630M2447 609L2399 668M2447 609L2503 642M2521 630L2503 642M73 712L132 648M73 712L21 745M73 712L141 789M73 712L167 721M73 712L45 817M132 648L221 656M132 648L167 721M221 656L258 650M221 656L167 721M258 650L347 656M347 656L451 692M347 656L429 747M451 692L539 683M451 692L429 747M451 692L523 757M539 683L570 701M539 683L523 757M539 683L617 724M570 701L523 757M570 701L617 724M690 699L753 641M690 699L617 724M690 699L681 737M690 699L789 726M753 641L789 726M873 718L946 658M873 718L789 726M873 718L838 796M873 718L921 766M873 718L903 812M946 658L998 714M946 658L921 766M998 714L1089 683M998 714L921 766M998 714L1024 741M998 714L1050 804M1089 683L1024 741M1089 683L1127 737M1184 682L1200 712M1184 682L1127 737M1184 682L1225 772M1200 712L1281 698M1200 712L1127 737M1200 712L1225 772M1281 698L1225 772M1281 698L1321 724M1378 710L1321 724M1378 710L1386 751M1485 699L1586 668M1485 699L1386 751M1485 699L1459 786M1485 699L1538 793M1586 668L1659 672M1586 668L1662 744M1659 672L1683 659M1659 672L1662 744M1683 659L1662 744M1817 695L1918 669M1817 695L1741 773M1817 695L1786 750M1817 695L1884 755M1918 669L1992 653M1918 669L1884 755M1918 669L1980 729M1992 653L2047 684M1992 653L2086 650M1992 653L1980 729M2047 684L2086 650M2047 684L1980 729M2047 684L2072 775M2086 650L2151 727M2238 673L2271 682M2238 673L2151 727M2238 673L2201 775M2238 673L2274 732M2271 682L2201 775M2271 682L2274 732M2271 682L2328 745M2399 668L2461 705M2399 668L2328 745M2399 668L2476 742M2461 705L2503 642M2461 705L2476 742M2461 705L2506 725M2461 705L2453 811M2503 642L2506 725M21 745L-84 742M21 745L-54 725M21 745L45 817M2581 745L2476 742M2581 745L2506 725M141 789L167 721M141 789L45 817M141 789L123 873M141 789L217 821M167 721L248 787M248 787L355 787M248 787L217 821M248 787L269 877M248 787L342 821M355 787L429 747M355 787L342 821M429 747L523 757M523 757L518 818M617 724L681 737M681 737L789 726M789 726L838 796M838 796L921 766M838 796L832 839M838 796L903 812M921 766L903 812M1024 741L1113 773M1024 741L1050 804M1113 773L1127 737M1113 773L1050 804M1127 737L1050 804M1225 772L1200 877M1225 772L1270 854M1321 724L1386 751M1386 751L1459 786M1459 786L1538 793M1459 786L1508 832M1538 793L1508 832M1538 793L1557 846M1662 744L1741 773M1662 744L1786 750M1741 773L1786 750M1741 773L1738 863M1741 773L1829 850M1786 750L1884 755M1786 750L1829 850M1884 755L1915 824M1884 755L1933 816M1980 729L2072 775M1980 729L2047 800M2072 775L2151 727M2072 775L2047 800M2072 775L2099 823M2151 727L2201 775M2201 775L2274 732M2201 775L2178 880M2274 732L2328 745M2328 745L2395 835M2476 742L2506 725M2476 742L2453 811M2506 725L2453 811M45 817L123 873M123 873L123 957M123 873L214 886M123 873L111 968M217 821L269 877M217 821L214 886M269 877L342 821M269 877L214 886M269 877L301 939M342 821L424 878M424 878L518 818M424 878L381 948M424 878L470 951M424 878L440 978M518 818L609 858M518 818L550 912M518 818L561 888M609 858L665 875M609 858L550 912M609 858L561 888M609 858L720 883M665 875L748 863M665 875L561 888M665 875L720 883M748 863L832 839M748 863L720 883M748 863L776 912M748 863L840 898M832 839L903 812M832 839L776 912M832 839L840 898M903 812L992 865M992 865L1050 804M992 865L924 924M992 865L1020 923M992 865L1056 946M1200 877L1270 854M1200 877L1151 939M1200 877L1266 883M1200 877L1215 980M1270 854L1323 880M1270 854L1372 858M1270 854L1266 883M1323 880L1372 858M1323 880L1266 883M1323 880L1325 946M1372 858L1266 883M1372 858L1325 946M1372 858L1379 956M1508 832L1557 846M1508 832L1510 899M1508 832L1582 899M1557 846L1655 868M1557 846L1510 899M1557 846L1582 899M1655 868L1738 863M1655 868L1582 899M1655 868L1660 885M1655 868L1712 932M1738 863L1660 885M1738 863L1712 932M1738 863L1766 937M1829 850L1915 824M1829 850L1933 816M1829 850L1766 937M1915 824L1933 816M1933 816L2047 800M1933 816L1989 901M2047 800L2099 823M2047 800L1989 901M2099 823L2178 880M2099 823L2056 928M2178 880L2264 877M2178 880L2144 960M2178 880L2214 942M2264 877L2214 942M2264 877L2313 882M2264 877L2345 914M2264 877L2254 984M2395 835L2453 811M2395 835L2484 837M2395 835L2313 882M2395 835L2345 914M2453 811L2484 837M43 948L123 957M43 948L-5 945M43 948L52 975M43 948L111 968M2603 948L2555 945M123 957L52 975M123 957L111 968M123 957L192 970M214 886L192 970M301 939L381 948M301 939L246 988M301 939L348 1031M381 948L440 978M470 951L550 912M470 951L561 888M470 951L440 978M470 951L496 986M550 912L561 888M550 912L496 986M720 883L776 912M776 912L840 898M840 898L924 924M924 924L1020 923M924 924L961 982M1020 923L1056 946M1020 923L961 982M1056 946L1151 939M1056 946L961 982M1056 946L1102 1027M1151 939L1102 1027M1151 939L1191 1010M1151 939L1215 980M1266 883L1325 946M1325 946L1379 956M1325 946L1354 1033M1379 956L1354 1033M1379 956L1436 1026M1379 956L1441 960M1510 899L1582 899M1510 899L1441 960M1510 899L1535 993M1582 899L1660 885M1660 885L1712 932M1712 932L1766 937M1712 932L1747 1013M1766 937L1747 1013M1766 937L1789 1002M1909 954L1989 901M1909 954L1900 983M1909 954L1932 990M1989 901L2056 928M1989 901L1932 990M2056 928L2144 960M2056 928L2023 1033M2144 960L2214 942M2144 960L2107 1029M2144 960L2188 1011M2214 942L2188 1011M2214 942L2254 984M2313 882L2345 914M2313 882L2367 974M2345 914L2443 950M2345 914L2367 974M2443 950L2367 974M2443 950L2473 982M2443 950L2504 994M2555 945L2612 975M2555 945L2473 982M2555 945L2504 994M-5 945L52 975M52 975L111 968M111 968L192 970M192 970L246 988M192 970L137 1060M348 1031L292 1082M348 1031L361 1040M348 1031L417 1098M348 1031L317 1121M440 978L496 986M440 978L361 1040M496 986L601 1003M601 1003L669 1004M601 1003L608 1075M601 1003L656 1050M669 1004L742 1038M669 1004L608 1075M669 1004L656 1050M742 1038L818 1030M742 1038L656 1050M742 1038L779 1063M818 1030L932 1033M818 1030L779 1063M818 1030L864 1118M818 1030L889 1049M932 1033L961 982M932 1033L889 1049M932 1033L964 1058M961 982L964 1058M1102 1027L1191 1010M1102 1027L1075 1064M1191 1010L1215 980M1191 1010L1157 1111M1191 1010L1216 1072M1215 980L1216 1072M1354 1033L1436 1026M1354 1033L1327 1099M1354 1033L1429 1046M1436 1026L1441 960M1436 1026L1429 1046M1436 1026L1469 1041M1441 960L1429 1046M1441 960L1469 1041M1535 993L1603 1037M1535 993L1469 1041M1535 993L1530 1091M1603 1037L1530 1091M1603 1037L1673 1059M1603 1037L1541 1128M1603 1037L1651 1136M1747 1013L1789 1002M1747 1013L1673 1059M1747 1013L1723 1085M1789 1002L1900 983M1900 983L1932 990M1900 983L1884 1091M1932 990L2023 1033M1932 990L1992 1064M2023 1033L2107 1029M2023 1033L1992 1064M2023 1033L2020 1114M2107 1029L2188 1011M2107 1029L2124 1100M2188 1011L2254 984M2188 1011L2204 1077M2254 984L2204 1077M2254 984L2283 1107M2473 982L2504 994M2473 982L2434 1070M2504 994L2434 1070M2504 994L2526 1083M16 1115L-34 1083M16 1115L48 1132M16 1115L96 1137M16 1115L-33 1124M2576 1115L2526 1083M2576 1115L2527 1124M137 1060L190 1118M137 1060L48 1132M137 1060L96 1137M190 1118L292 1082M190 1118L96 1137M190 1118L207 1175M292 1082L361 1040M292 1082L317 1121M292 1082L327 1138M361 1040L417 1098M361 1040L317 1121M417 1098L327 1138M417 1098L439 1164M417 1098L488 1141M559 1095L608 1075M559 1095L488 1141M559 1095L562 1169M559 1095L644 1156M608 1075L656 1050M608 1075L644 1156M656 1050L644 1156M779 1063L889 1049M779 1063L761 1171M864 1118L889 1049M864 1118L867 1183M864 1118L957 1167M864 1118L883 1211M889 1049L964 1058M964 1058L1075 1064M1075 1064L1157 1111M1075 1064L1003 1156M1075 1064L1063 1199M1157 1111L1216 1072M1157 1111L1193 1184M1157 1111L1209 1164M1216 1072L1327 1099M1216 1072L1209 1164M1327 1099L1352 1173M1327 1099L1344 1204M1429 1046L1469 1041M1469 1041L1530 1091M1530 1091L1512 1180M1530 1091L1541 1128M1673 1059L1723 1085M1673 1059L1651 1136M1723 1085L1803 1103M1723 1085L1651 1136M1723 1085L1747 1161M1803 1103L1884 1091M1803 1103L1747 1161M1803 1103L1789 1179M1803 1103L1856 1138M1884 1091L1992 1064M1884 1091L1856 1138M1884 1091L1948 1126M1992 1064L2020 1114M1992 1064L1948 1126M2020 1114L2124 1100M2020 1114L1948 1126M2020 1114L2032 1178M2124 1100L2204 1077M2124 1100L2099 1188M2124 1100L2171 1180M2204 1077L2283 1107M2204 1077L2293 1152M2283 1107L2335 1091M2283 1107L2293 1152M2283 1107L2370 1139M2335 1091L2293 1152M2335 1091L2370 1139M2434 1070L2526 1083M2434 1070L2450 1143M2434 1070L2527 1124M2526 1083L2608 1132M2526 1083L2527 1124M-34 1083L48 1132M48 1132L96 1137M48 1132L-33 1124M2608 1132L2527 1124M96 1137L207 1175M207 1175L172 1238M207 1175L273 1234M317 1121L327 1138M327 1138L439 1164M327 1138L273 1234M439 1164L488 1141M439 1164L465 1219M488 1141L562 1169M488 1141L465 1219M562 1169L644 1156M562 1169L560 1279M761 1171L867 1183M761 1171L706 1244M761 1171L782 1268M867 1183L957 1167M867 1183L853 1263M867 1183L883 1211M957 1167L1003 1156M957 1167L883 1211M957 1167L1024 1221M1003 1156L1063 1199M1003 1156L1024 1221M1003 1156L1056 1243M1063 1199L1024 1221M1063 1199L1056 1243M1193 1184L1209 1164M1193 1184L1179 1255M1193 1184L1217 1263M1193 1184L1263 1281M1209 1164L1179 1255M1209 1164L1217 1263M1352 1173L1410 1168M1352 1173L1344 1204M1352 1173L1389 1224M1410 1168L1512 1180M1410 1168L1344 1204M1410 1168L1389 1224M1410 1168L1483 1213M1512 1180L1541 1128M1512 1180L1483 1213M1512 1180L1521 1235M1541 1128L1483 1213M1651 1136L1614 1214M1747 1161L1789 1179M1747 1161L1703 1233M1747 1161L1778 1235M1789 1179L1856 1138M1789 1179L1778 1235M1789 1179L1850 1237M1856 1138L1948 1126M1948 1126L2032 1178M2032 1178L2099 1188M2032 1178L2033 1255M2099 1188L2171 1180M2099 1188L2033 1255M2099 1188L2140 1275M2293 1152L2370 1139M2293 1152L2262 1235M2370 1139L2450 1143M2370 1139L2424 1214M2450 1143L2527 1124M2450 1143L2424 1214M21 1246L118 1267M21 1246L-23 1266M21 1246L18 1328M21 1246L102 1289M21 1246L-6 1292M2581 1246L2537 1266M2581 1246L2554 1292M118 1267L172 1238M118 1267L102 1289M118 1267L174 1303M172 1238L273 1234M172 1238L102 1289M172 1238L174 1303M273 1234L370 1274M273 1234L252 1317M370 1274L465 1219M370 1274L370 1301M370 1274L435 1328M370 1274L330 1376M465 1219L435 1328M560 1279L611 1267M560 1279L553 1331M560 1279L639 1297M611 1267L706 1244M611 1267L553 1331M611 1267L639 1297M611 1267L643 1362M706 1244L782 1268M706 1244L639 1297M706 1244L739 1334M782 1268L853 1263M782 1268L739 1334M782 1268L852 1335M853 1263L883 1211M853 1263L852 1335M853 1263L892 1281M883 1211L892 1281M1024 1221L1056 1243M1056 1243L1092 1334M1056 1243L1123 1301M1179 1255L1217 1263M1179 1255L1123 1301M1179 1255L1263 1281M1217 1263L1123 1301M1217 1263L1263 1281M1344 1204L1389 1224M1344 1204L1347 1291M1389 1224L1347 1291M1389 1224L1392 1290M1483 1213L1521 1235M1483 1213L1392 1290M1521 1235L1614 1214M1521 1235L1594 1289M1614 1214L1703 1233M1614 1214L1594 1289M1703 1233L1778 1235M1703 1233L1794 1281M1778 1235L1850 1237M1778 1235L1794 1281M1850 1237L1925 1242M1850 1237L1794 1281M1850 1237L1878 1311M1925 1242L2033 1255M1925 1242L1878 1311M1925 1242L1934 1349M2033 1255L2064 1343M2140 1275L2240 1279M2140 1275L2098 1356M2140 1275L2187 1288M2140 1275L2139 1367M2240 1279L2262 1235M2240 1279L2328 1271M2240 1279L2187 1288M2240 1279L2266 1284M2262 1235L2328 1271M2262 1235L2187 1288M2262 1235L2266 1284M2328 1271L2266 1284M2328 1271L2337 1334M2328 1271L2411 1330M2424 1214L2537 1266M2537 1266L2578 1328M2537 1266L2554 1292M-23 1266L18 1328M18 1328L-6 1292M18 1328L11 1389M18 1328L-1 1382M2578 1328L2554 1292M2578 1328L2559 1382M102 1289L174 1303M102 1289L106 1395M174 1303L252 1317M174 1303L219 1400M252 1317L219 1400M252 1317L267 1413M252 1317L330 1376M370 1301L435 1328M370 1301L330 1376M435 1328L466 1433M553 1331L639 1297M553 1331L543 1433M553 1331L643 1362M639 1297L643 1362M707 1337L739 1334M707 1337L640 1401M707 1337L643 1362M707 1337L793 1365M739 1334L793 1365M852 1335L892 1281M852 1335L793 1365M852 1335L822 1394M1021 1343L1092 1334M1021 1343L1055 1394M1092 1334L1123 1301M1092 1334L1055 1394M1092 1334L1121 1404M1123 1301L1121 1404M1263 1281L1347 1291M1263 1281L1297 1380M1347 1291L1392 1290M1347 1291L1297 1380M1392 1290L1497 1342M1392 1290L1430 1385M1497 1342L1430 1385M1497 1342L1486 1378M1497 1342L1563 1364M1594 1289L1631 1358M1594 1289L1563 1364M1594 1289L1651 1363M1631 1358L1728 1347M1631 1358L1563 1364M1631 1358L1651 1363M1631 1358L1747 1407M1728 1347L1794 1281M1728 1347L1651 1363M1728 1347L1747 1407M1728 1347L1777 1406M1794 1281L1878 1311M1878 1311L1934 1349M1878 1311L1948 1380M1934 1349L1896 1416M1934 1349L1948 1380M2064 1343L2098 1356M2064 1343L2053 1404M2064 1343L2139 1367M2098 1356L2053 1404M2098 1356L2139 1367M2098 1356L2169 1407M2187 1288L2266 1284M2266 1284L2337 1334M2337 1334L2411 1330M2337 1334L2314 1373M2337 1334L2395 1402M2411 1330L2314 1373M2411 1330L2395 1402M2411 1330L2431 1421M2554 1292L2559 1382M11 1389L106 1395M11 1389L-1 1382M2571 1389L2559 1382M106 1395L219 1400M219 1400L267 1413M267 1413L330 1376M466 1433L543 1433M640 1401L643 1362M793 1365L822 1394M822 1394L919 1429M919 1429L997 1417M997 1417L1055 1394M1055 1394L1121 1404M1121 1404L1218 1417M1218 1417L1297 1380M1430 1385L1486 1378M1486 1378L1563 1364M1563 1364L1651 1363M1651 1363L1747 1407M1747 1407L1777 1406M1896 1416L1948 1380M2139 1367L2169 1407M2314 1373L2395 1402M2314 1373L2431 1421M2395 1402L2431 1421"/></svg>