<svg xmlns="http://www.w3.org/2000/svg" width="2560" height="1440" fill="#fff"><circle cx="14" cy="9" r="5"/><circle cx="146" cy="63" r="5"/><circle cx="225" cy="70" r="6"/><circle cx="276" cy="21" r="5"/><circle cx="356" cy="27" r="5"/><circle cx="413" cy="28" r="4"/><circle cx="492" cy="78" r="4"/><circle cx="586" cy="21" r="4"/><circle cx="666" cy="52" r="6"/><circle cx="779" cy="69" r="5"/><circle cx="805" cy="34" r="5"/><circle cx="934" cy="46" r="5"/><circle cx="1034" cy="8" r="5"/><circle cx="1047" cy="42" r="4"/><circle cx="1129" cy="28" r="6"/><circle cx="1244" cy="39" r="6"/><circle cx="1332" cy="16" r="5"/><circle cx="1421" cy="5" r="6"/><circle cx="1421" cy="1445" r="6"/><circle cx="1462" cy="37" r="5"/><circle cx="1554" cy="2" r="6"/><circle cx="1554" cy="1442" r="6"/><circle cx="1608" cy="17" r="4"/><circle cx="1727" cy="51" r="4"/><circle cx="1783" cy="78" r="5"/><circle cx="1913" cy="75" r="5"/><circle cx="1969" cy="5" r="4"/><circle cx="2042" cy="42" r="6"/><circle cx="2102" cy="78" r="5"/><circle cx="2232" cy="10" r="4"/><circle cx="2281" cy="44" r="5"/><circle cx="2332" cy="79" r="5"/><circle cx="2473" cy="76" r="5"/><circle cx="2541" cy="23" r="6"/><circle cx="68" cy="123" r="6"/><circle cx="116" cy="151" r="4"/><circle cx="196" cy="136" r="5"/><circle cx="293" cy="93" r="5"/><circle cx="342" cy="152" r="5"/><circle cx="438" cy="89" r="6"/><circle cx="508" cy="159" r="6"/><circle cx="622" cy="141" r="5"/><circle cx="643" cy="152" r="5"/><circle cx="760" cy="96" r="5"/><circle cx="853" cy="105" r="5"/><circle cx="921" cy="150" r="6"/><circle cx="1039" cy="114" r="4"/><circle cx="1097" cy="126" r="4"/><circle cx="1138" cy="127" r="4"/><circle cx="1253" cy="157" r="4"/><circle cx="1331" cy="139" r="6"/><circle cx="1430" cy="120" r="6"/><circle cx="1517" cy="139" r="4"/><circle cx="1569" cy="160" r="6"/><circle cx="1654" cy="105" r="5"/><circle cx="1702" cy="118" r="4"/><circle cx="1776" cy="107" r="5"/><circle cx="1863" cy="103" r="5"/><circle cx="1990" cy="96" r="6"/><circle cx="2035" cy="134" r="5"/><circle cx="2130" cy="97" r="5"/><circle cx="2174" cy="144" r="5"/><circle cx="2314" cy="139" r="4"/><circle cx="2395" cy="104" r="5"/><circle cx="2469" cy="134" r="5"/><circle cx="2485" cy="107" r="6"/><circle cx="65" cy="220" r="6"/><circle cx="154" cy="171" r="5"/><circle cx="217" cy="235" r="5"/><circle cx="268" cy="181" r="4"/><circle cx="381" cy="169" r="4"/><circle cx="460" cy="162" r="5"/><circle cx="544" cy="161" r="5"/><circle cx="585" cy="171" r="4"/><circle cx="702" cy="222" r="4"/><circle cx="787" cy="206" r="5"/><circle cx="855" cy="203" r="5"/><circle cx="908" cy="201" r="5"/><circle cx="990" cy="194" r="4"/><circle cx="1098" cy="181" r="6"/><circle cx="1189" cy="186" r="4"/><circle cx="1202" cy="177" r="6"/><circle cx="1360" cy="196" r="6"/><circle cx="1372" cy="176" r="5"/><circle cx="1466" cy="220" r="5"/><circle cx="1571" cy="186" r="6"/><circle cx="1626" cy="227" r="5"/><circle cx="1681" cy="169" r="5"/><circle cx="1826" cy="197" r="5"/><circle cx="1849" cy="227" r="5"/><circle cx="1967" cy="163" r="5"/><circle cx="2052" cy="229" r="5"/><circle cx="2112" cy="207" r="4"/><circle cx="2221" cy="164" r="4"/><circle cx="2303" cy="188" r="5"/><circle cx="2367" cy="210" r="5"/><circle cx="2464" cy="217" r="5"/><circle cx="2496" cy="237" r="4"/><circle cx="9" cy="262" r="6"/><circle cx="142" cy="257" r="5"/><circle cx="171" cy="317" r="5"/><circle cx="308" cy="252" r="6"/><circle cx="376" cy="305" r="5"/><circle cx="464" cy="289" r="5"/><circle cx="510" cy="308" r="6"/><circle cx="578" cy="275" r="5"/><circle cx="674" cy="261" r="5"/><circle cx="791" cy="258" r="5"/><circle cx="815" cy="288" r="5"/><circle cx="912" cy="263" r="6"/><circle cx="1031" cy="293" r="6"/><circle cx="1105" cy="278" r="4"/><circle cx="1179" cy="304" r="4"/><circle cx="1262" cy="313" r="6"/><circle cx="1282" cy="287" r="6"/><circle cx="1400" cy="265" r="5"/><circle cx="1477" cy="307" r="5"/><circle cx="1537" cy="312" r="4"/><circle cx="1627" cy="303" r="5"/><circle cx="1755" cy="308" r="4"/><circle cx="1787" cy="297" r="5"/><circle cx="1860" cy="319" r="5"/><circle cx="1973" cy="264" r="5"/><circle cx="2001" cy="299" r="6"/><circle cx="2150" cy="247" r="5"/><circle cx="2183" cy="310" r="5"/><circle cx="2306" cy="280" r="6"/><circle cx="2324" cy="298" r="6"/><circle cx="2470" cy="284" r="4"/><circle cx="2533" cy="250" r="5"/><circle cx="18" cy="396" r="5"/><circle cx="85" cy="375" r="5"/><circle cx="221" cy="321" r="5"/><circle cx="253" cy="371" r="5"/><circle cx="350" cy="327" r="5"/><circle cx="455" cy="389" r="6"/><circle cx="482" cy="336" r="4"/><circle cx="636" cy="331" r="4"/><circle cx="700" cy="400" r="5"/><circle cx="779" cy="380" r="5"/><circle cx="820" cy="342" r="5"/><circle cx="936" cy="361" r="6"/><circle cx="982" cy="382" r="6"/><circle cx="1075" cy="391" r="5"/><circle cx="1124" cy="384" r="5"/><circle cx="1272" cy="384" r="5"/><circle cx="1320" cy="334" r="4"/><circle cx="1363" cy="379" r="6"/><circle cx="1497" cy="370" r="5"/><circle cx="1564" cy="368" r="6"/><circle cx="1635" cy="332" r="4"/><circle cx="1730" cy="332" r="5"/><circle cx="1797" cy="367" r="6"/><circle cx="1873" cy="348" r="5"/><circle cx="1983" cy="360" r="5"/><circle cx="2020" cy="383" r="4"/><circle cx="2105" cy="387" r="4"/><circle cx="2208" cy="375" r="6"/><circle cx="2283" cy="347" r="5"/><circle cx="2380" cy="356" r="4"/><circle cx="2469" cy="356" r="4"/><circle cx="2553" cy="366" r="4"/><circle cx="43" cy="419" r="5"/><circle cx="153" cy="449" r="6"/><circle cx="235" cy="451" r="4"/><circle cx="276" cy="436" r="6"/><circle cx="385" cy="423" r="4"/><circle cx="409" cy="476" r="5"/><circle cx="504" cy="424" r="6"/><circle cx="617" cy="451" r="4"/><circle cx="656" cy="475" r="5"/><circle cx="759" cy="441" r="6"/><circle cx="843" cy="403" r="5"/><circle cx="883" cy="409" r="4"/><circle cx="986" cy="443" r="5"/><circle cx="1048" cy="448" r="4"/><circle cx="1128" cy="460" r="5"/><circle cx="1258" cy="469" r="4"/><circle cx="1358" cy="460" r="5"/><circle cx="1389" cy="429" r="5"/><circle cx="1495" cy="440" r="5"/><circle cx="1543" cy="401" r="4"/><circle cx="1615" cy="456" r="6"/><circle cx="1690" cy="412" r="4"/><circle cx="1819" cy="447" r="5"/><circle cx="1867" cy="430" r="5"/><circle cx="1994" cy="416" r="5"/><circle cx="2044" cy="414" r="6"/><circle cx="2126" cy="441" r="5"/><circle cx="2213" cy="439" r="5"/><circle cx="2296" cy="453" r="6"/><circle cx="2347" cy="438" r="4"/><circle cx="2446" cy="407" r="5"/><circle cx="2504" cy="461" r="5"/><circle cx="30" cy="532" r="5"/><circle cx="99" cy="553" r="5"/><circle cx="211" cy="504" r="6"/><circle cx="241" cy="482" r="5"/><circle cx="375" cy="528" r="4"/><circle cx="406" cy="523" r="5"/><circle cx="530" cy="502" r="5"/><circle cx="574" cy="535" r="5"/><circle cx="657" cy="518" r="5"/><circle cx="746" cy="518" r="4"/><circle cx="810" cy="532" r="5"/><circle cx="950" cy="486" r="5"/><circle cx="983" cy="496" r="4"/><circle cx="1045" cy="506" r="5"/><circle cx="1145" cy="545" r="6"/><circle cx="1237" cy="523" r="6"/><circle cx="1356" cy="524" r="5"/><circle cx="1373" cy="558" r="5"/><circle cx="1492" cy="480" r="5"/><circle cx="1526" cy="511" r="5"/><circle cx="1623" cy="521" r="4"/><circle cx="1704" cy="546" r="4"/><circle cx="1816" cy="488" r="5"/><circle cx="1895" cy="531" r="5"/><circle cx="1970" cy="553" r="5"/><circle cx="2052" cy="550" r="6"/><circle cx="2089" cy="509" r="5"/><circle cx="2162" cy="530" r="5"/><circle cx="2305" cy="553" r="4"/><circle cx="2328" cy="508" r="4"/><circle cx="2423" cy="523" r="5"/><circle cx="2510" cy="533" r="6"/><circle cx="65" cy="560" r="4"/><circle cx="128" cy="590" r="5"/><circle cx="200" cy="620" r="5"/><circle cx="301" cy="600" r="4"/><circle cx="338" cy="637" r="4"/><circle cx="461" cy="602" r="5"/><circle cx="523" cy="620" r="6"/><circle cx="598" cy="625" r="4"/><circle cx="642" cy="561" r="5"/><circle cx="737" cy="598" r="5"/><circle cx="813" cy="600" r="4"/><circle cx="935" cy="567" r="5"/><circle cx="989" cy="590" r="5"/><circle cx="1060" cy="561" r="6"/><circle cx="1138" cy="568" r="5"/><circle cx="1231" cy="605" r="5"/><circle cx="1316" cy="577" r="5"/><circle cx="1390" cy="605" r="6"/><circle cx="1486" cy="563" r="6"/><circle cx="1578" cy="618" r="5"/><circle cx="1606" cy="571" r="4"/><circle cx="1747" cy="623" r="5"/><circle cx="1820" cy="632" r="5"/><circle cx="1894" cy="636" r="4"/><circle cx="1960" cy="617" r="5"/><circle cx="2059" cy="597" r="5"/><circle cx="2091" cy="602" r="4"/><circle cx="2206" cy="561" r="4"/><circle cx="2250" cy="610" r="5"/><circle cx="2372" cy="628" r="5"/><circle cx="2470" cy="589" r="6"/><circle cx="2538" cy="621" r="5"/><circle cx="42" cy="708" r="5"/><circle cx="98" cy="681" r="5"/><circle cx="205" cy="645" r="4"/><circle cx="285" cy="640" r="5"/><circle cx="336" cy="676" r="5"/><circle cx="413" cy="719" r="5"/><circle cx="502" cy="703" r="5"/><circle cx="635" cy="652" r="5"/><circle cx="695" cy="701" r="6"/><circle cx="763" cy="650" r="4"/><circle cx="844" cy="718" r="5"/><circle cx="904" cy="717" r="4"/><circle cx="1011" cy="649" r="6"/><circle cx="1064" cy="676" r="4"/><circle cx="1180" cy="671" r="5"/><circle cx="1276" cy="716" r="5"/><circle cx="1300" cy="687" r="5"/><circle cx="1384" cy="664" r="6"/><circle cx="1497" cy="671" r="4"/><circle cx="1563" cy="713" r="5"/><circle cx="1639" cy="703" r="5"/><circle cx="1684" cy="675" r="5"/><circle cx="1779" cy="651" r="4"/><circle cx="1890" cy="713" r="5"/><circle cx="1958" cy="693" r="4"/><circle cx="2076" cy="685" r="6"/><circle cx="2150" cy="697" r="5"/><circle cx="2165" cy="657" r="6"/><circle cx="2244" cy="699" r="4"/><circle cx="2370" cy="692" r="5"/><circle cx="2474" cy="707" r="5"/><circle cx="2533" cy="718" r="6"/><circle cx="74" cy="722" r="5"/><circle cx="155" cy="773" r="4"/><circle cx="211" cy="777" r="4"/><circle cx="304" cy="735" r="6"/><circle cx="395" cy="798" r="5"/><circle cx="451" cy="769" r="6"/><circle cx="553" cy="726" r="6"/><circle cx="607" cy="764" r="5"/><circle cx="655" cy="775" r="5"/><circle cx="779" cy="725" r="4"/><circle cx="867" cy="778" r="5"/><circle cx="943" cy="752" r="4"/><circle cx="977" cy="789" r="5"/><circle cx="1073" cy="737" r="4"/><circle cx="1187" cy="763" r="5"/><circle cx="1221" cy="754" r="4"/><circle cx="1354" cy="785" r="5"/><circle cx="1395" cy="796" r="5"/><circle cx="1491" cy="733" r="6"/><circle cx="1598" cy="743" r="5"/><circle cx="1655" cy="782" r="5"/><circle cx="1715" cy="739" r="5"/><circle cx="1820" cy="785" r="5"/><circle cx="1844" cy="757" r="5"/><circle cx="1969" cy="759" r="6"/><circle cx="2079" cy="749" r="5"/><circle cx="2129" cy="755" r="4"/><circle cx="2165" cy="789" r="4"/><circle cx="2306" cy="779" r="5"/><circle cx="2351" cy="740" r="4"/><circle cx="2461" cy="793" r="5"/><circle cx="2559" cy="789" r="5"/><circle cx="-1" cy="789" r="5"/><circle cx="46" cy="809" r="5"/><circle cx="88" cy="845" r="5"/><circle cx="201" cy="836" r="5"/><circle cx="294" cy="826" r="5"/><circle cx="368" cy="811" r="4"/><circle cx="456" cy="876" r="5"/><circle cx="533" cy="813" r="5"/><circle cx="630" cy="876" r="5"/><circle cx="675" cy="839" r="5"/><circle cx="762" cy="831" r="6"/><circle cx="851" cy="804" r="5"/><circle cx="887" cy="835" r="6"/><circle cx="993" cy="807" r="5"/><circle cx="1041" cy="840" r="5"/><circle cx="1195" cy="856" r="4"/><circle cx="1261" cy="818" r="5"/><circle cx="1330" cy="871" r="6"/><circle cx="1388" cy="843" r="5"/><circle cx="1474" cy="808" r="5"/><circle cx="1594" cy="802" r="6"/><circle cx="1679" cy="830" r="4"/><circle cx="1724" cy="814" r="4"/><circle cx="1817" cy="834" r="4"/><circle cx="1919" cy="807" r="4"/><circle cx="1980" cy="827" r="4"/><circle cx="2041" cy="814" r="6"/><circle cx="2093" cy="806" r="6"/><circle cx="2212" cy="855" r="6"/><circle cx="2268" cy="806" r="6"/><circle cx="2379" cy="863" r="5"/><circle cx="2414" cy="863" r="4"/><circle cx="2540" cy="818" r="4"/><circle cx="36" cy="887" r="5"/><circle cx="122" cy="899" r="4"/><circle cx="200" cy="907" r="5"/><circle cx="243" cy="919" r="5"/><circle cx="332" cy="930" r="5"/><circle cx="403" cy="954" r="5"/><circle cx="535" cy="883" r="6"/><circle cx="579" cy="887" r="5"/><circle cx="692" cy="935" r="6"/><circle cx="730" cy="931" r="5"/><circle cx="871" cy="944" r="6"/><circle cx="941" cy="912" r="6"/><circle cx="988" cy="947" r="4"/><circle cx="1110" cy="945" r="5"/><circle cx="1153" cy="894" r="5"/><circle cx="1243" cy="956" r="5"/><circle cx="1316" cy="924" r="4"/><circle cx="1407" cy="944" r="5"/><circle cx="1475" cy="930" r="5"/><circle cx="1587" cy="953" r="5"/><circle cx="1679" cy="956" r="5"/><circle cx="1731" cy="901" r="5"/><circle cx="1772" cy="953" r="4"/><circle cx="1858" cy="949" r="4"/><circle cx="1968" cy="915" r="4"/><circle cx="2057" cy="932" r="4"/><circle cx="2147" cy="903" r="6"/><circle cx="2233" cy="928" r="5"/><circle cx="2249" cy="889" r="5"/><circle cx="2367" cy="959" r="6"/><circle cx="2475" cy="954" r="4"/><circle cx="2488" cy="898" r="5"/><circle cx="16" cy="1013" r="4"/><circle cx="119" cy="1006" r="6"/><circle cx="180" cy="982" r="4"/><circle cx="245" cy="968" r="4"/><circle cx="355" cy="996" r="5"/><circle cx="452" cy="1010" r="6"/><circle cx="500" cy="992" r="5"/><circle cx="579" cy="1032" r="4"/><circle cx="718" cy="1038" r="6"/><circle cx="786" cy="1035" r="6"/><circle cx="879" cy="1014" r="5"/><circle cx="887" cy="1022" r="5"/><circle cx="1021" cy="1003" r="6"/><circle cx="1069" cy="992" r="4"/><circle cx="1126" cy="1019" r="6"/><circle cx="1221" cy="1008" r="6"/><circle cx="1353" cy="985" r="6"/><circle cx="1434" cy="1009" r="4"/><circle cx="1515" cy="1005" r="4"/><circle cx="1581" cy="974" r="5"/><circle cx="1611" cy="1034" r="5"/><circle cx="1747" cy="982" r="4"/><circle cx="1831" cy="966" r="6"/><circle cx="1919" cy="1000" r="5"/><circle cx="1970" cy="1015" r="6"/><circle cx="2057" cy="976" r="4"/><circle cx="2116" cy="982" r="5"/><circle cx="2216" cy="1020" r="6"/><circle cx="2248" cy="961" r="6"/><circle cx="2347" cy="1003" r="5"/><circle cx="2473" cy="965" r="5"/><circle cx="2499" cy="1031" r="5"/><circle cx="59" cy="1103" r="6"/><circle cx="156" cy="1099" r="4"/><circle cx="199" cy="1081" r="5"/><circle cx="298" cy="1085" r="4"/><circle cx="356" cy="1090" r="5"/><circle cx="420" cy="1081" r="5"/><circle cx="490" cy="1042" r="5"/><circle cx="631" cy="1096" r="5"/><circle cx="713" cy="1108" r="4"/><circle cx="724" cy="1053" r="5"/><circle cx="807" cy="1054" r="5"/><circle cx="901" cy="1094" r="5"/><circle cx="1025" cy="1112" r="4"/><circle cx="1102" cy="1095" r="5"/><circle cx="1129" cy="1088" r="5"/><circle cx="1227" cy="1112" r="5"/><circle cx="1323" cy="1087" r="4"/><circle cx="1417" cy="1114" r="5"/><circle cx="1487" cy="1080" r="6"/><circle cx="1596" cy="1063" r="5"/><circle cx="1666" cy="1052" r="5"/><circle cx="1722" cy="1087" r="5"/><circle cx="1770" cy="1117" r="6"/><circle cx="1849" cy="1083" r="5"/><circle cx="1961" cy="1081" r="5"/><circle cx="2040" cy="1074" r="5"/><circle cx="2091" cy="1088" r="5"/><circle cx="2237" cy="1086" r="6"/><circle cx="2253" cy="1113" r="5"/><circle cx="2367" cy="1048" r="5"/><circle cx="2411" cy="1069" r="6"/><circle cx="2495" cy="1077" r="5"/><circle cx="4" cy="1147" r="5"/><circle cx="2564" cy="1147" r="5"/><circle cx="121" cy="1185" r="5"/><circle cx="192" cy="1141" r="4"/><circle cx="286" cy="1140" r="5"/><circle cx="335" cy="1129" r="5"/><circle cx="440" cy="1168" r="5"/><circle cx="495" cy="1197" r="6"/><circle cx="577" cy="1163" r="6"/><circle cx="647" cy="1159" r="5"/><circle cx="724" cy="1171" r="5"/><circle cx="872" cy="1142" r="5"/><circle cx="954" cy="1193" r="4"/><circle cx="975" cy="1127" r="5"/><circle cx="1062" cy="1184" r="5"/><circle cx="1163" cy="1140" r="5"/><circle cx="1253" cy="1197" r="6"/><circle cx="1341" cy="1129" r="4"/><circle cx="1417" cy="1153" r="4"/><circle cx="1465" cy="1193" r="5"/><circle cx="1586" cy="1128" r="4"/><circle cx="1622" cy="1200" r="6"/><circle cx="1700" cy="1147" r="6"/><circle cx="1761" cy="1125" r="5"/><circle cx="1911" cy="1129" r="5"/><circle cx="1935" cy="1194" r="5"/><circle cx="2036" cy="1135" r="4"/><circle cx="2156" cy="1142" r="5"/><circle cx="2164" cy="1157" r="6"/><circle cx="2243" cy="1144" r="6"/><circle cx="2375" cy="1135" r="5"/><circle cx="2446" cy="1181" r="5"/><circle cx="2541" cy="1198" r="5"/><circle cx="76" cy="1231" r="5"/><circle cx="107" cy="1267" r="4"/><circle cx="215" cy="1247" r="5"/><circle cx="311" cy="1248" r="4"/><circle cx="375" cy="1256" r="4"/><circle cx="421" cy="1218" r="6"/><circle cx="495" cy="1229" r="6"/><circle cx="585" cy="1257" r="5"/><circle cx="717" cy="1230" r="6"/><circle cx="797" cy="1252" r="4"/><circle cx="814" cy="1224" r="5"/><circle cx="946" cy="1256" r="4"/><circle cx="961" cy="1237" r="5"/><circle cx="1063" cy="1223" r="5"/><circle cx="1126" cy="1216" r="5"/><circle cx="1222" cy="1272" r="5"/><circle cx="1291" cy="1273" r="5"/><circle cx="1370" cy="1225" r="5"/><circle cx="1477" cy="1251" r="5"/><circle cx="1580" cy="1247" r="6"/><circle cx="1661" cy="1265" r="4"/><circle cx="1701" cy="1209" r="6"/><circle cx="1805" cy="1259" r="5"/><circle cx="1848" cy="1251" r="6"/><circle cx="1994" cy="1269" r="6"/><circle cx="2075" cy="1273" r="5"/><circle cx="2090" cy="1234" r="5"/><circle cx="2228" cy="1254" r="4"/><circle cx="2250" cy="1224" r="4"/><circle cx="2331" cy="1232" r="4"/><circle cx="2412" cy="1202" r="5"/><circle cx="2482" cy="1240" r="4"/><circle cx="65" cy="1300" r="5"/><circle cx="110" cy="1291" r="4"/><circle cx="194" cy="1341" r="5"/><circle cx="243" cy="1299" r="6"/><circle cx="369" cy="1352" r="5"/><circle cx="406" cy="1284" r="6"/><circle cx="547" cy="1360" r="5"/><circle cx="590" cy="1351" r="6"/><circle cx="658" cy="1323" r="6"/><circle cx="769" cy="1311" r="5"/><circle cx="873" cy="1347" r="5"/><circle cx="894" cy="1345" r="5"/><circle cx="967" cy="1346" r="5"/><circle cx="1087" cy="1305" r="5"/><circle cx="1155" cy="1351" r="4"/><circle cx="1224" cy="1317" r="6"/><circle cx="1351" cy="1298" r="4"/><circle cx="1436" cy="1311" r="4"/><circle cx="1495" cy="1292" r="4"/><circle cx="1590" cy="1347" r="6"/><circle cx="1646" cy="1326" r="5"/><circle cx="1683" cy="1301" r="5"/><circle cx="1801" cy="1280" r="6"/><circle cx="1885" cy="1296" r="5"/><circle cx="1995" cy="1313" r="5"/><circle cx="2056" cy="1335" r="5"/><circle cx="2150" cy="1357" r="5"/><circle cx="2190" cy="1297" r="6"/><circle cx="2319" cy="1349" r="5"/><circle cx="2338" cy="1295" r="4"/><circle cx="2435" cy="1359" r="6"/><circle cx="2485" cy="1355" r="6"/><circle cx="45" cy="1427" r="5"/><circle cx="122" cy="1367" r="5"/><circle cx="217" cy="1381" r="6"/><circle cx="274" cy="1383" r="5"/><circle cx="368" cy="1392" r="5"/><circle cx="446" cy="1394" r="6"/><circle cx="485" cy="1411" r="6"/><circle cx="630" cy="1394" r="6"/><circle cx="690" cy="1373" r="5"/><circle cx="750" cy="1415" r="5"/><circle cx="831" cy="1398" r="6"/><circle cx="954" cy="1383" r="5"/><circle cx="977" cy="1364" r="5"/><circle cx="1051" cy="1435" r="5"/><circle cx="1051" cy="-5" r="5"/><circle cx="1160" cy="1440" r="4"/><circle cx="1160" cy="-0" r="4"/><circle cx="1202" cy="1406" r="5"/><circle cx="1288" cy="1417" r="5"/><circle cx="1371" cy="1380" r="4"/><circle cx="1500" cy="1402" r="5"/><circle cx="1581" cy="1425" r="4"/><circle cx="1645" cy="1392" r="6"/><circle cx="1750" cy="1397" r="5"/><circle cx="1788" cy="1428" r="4"/><circle cx="1847" cy="1380" r="6"/><circle cx="1948" cy="1387" r="5"/><circle cx="2000" cy="1418" r="4"/><circle cx="2146" cy="1374" r="4"/><circle cx="2231" cy="1387" r="5"/><circle cx="2245" cy="1397" r="4"/><circle cx="2378" cy="1380" r="5"/><circle cx="2458" cy="1382" r="4"/><circle cx="2509" cy="1400" r="4"/><path stroke="#fff" d="M14 9L-87 76M14 9L-19 23M14 9L45 -13M14 9L-51 -40M2574 9L2473 76M2574 9L2541 23M2574 9L2509 -40M14 1449L45 1427M14 1449L-51 1400M2574 1449L2509 1400M146 63L225 70M146 63L68 123M146 63L116 151M146 63L196 136M225 70L276 21M225 70L196 136M225 70L293 93M276 21L356 27M276 21L293 93M276 21L217 -59M276 21L274 -57M276 1461L217 1381M276 1461L274 1383M356 27L413 28M356 27L293 93M356 27L438 89M356 27L368 -48M356 1467L368 1392M413 28L438 89M413 28L368 -48M413 28L446 -46M413 28L485 -29M413 1468L368 1392M413 1468L446 1394M413 1468L485 1411M492 78L438 89M492 78L508 159M492 78L460 162M492 78L485 -29M492 1518L485 1411M586 21L666 52M586 21L485 -29M586 21L630 -46M586 1461L485 1411M586 1461L630 1394M666 52L622 141M666 52L643 152M666 52L760 96M779 69L805 34M779 69L760 96M779 69L853 105M779 69L750 -25M779 1509L750 1415M805 34L760 96M805 34L853 105M805 34L750 -25M805 34L831 -42M805 1474L750 1415M805 1474L831 1398M1034 8L1047 42M1034 8L1129 28M1034 8L1051 -5M1034 1448L1051 1435M1047 42L1129 28M1047 42L1039 114M1047 42L1097 126M1047 42L1051 -5M1047 1482L1051 1435M1129 28L1051 -5M1129 28L1160 -0M1129 1468L1051 1435M1129 1468L1160 1440M1244 39L1332 16M1244 39L1331 139M1244 39L1160 -0M1244 39L1202 -34M1244 39L1288 -23M1244 1479L1160 1440M1244 1479L1202 1406M1244 1479L1288 1417M1332 16L1421 5M1332 16L1288 -23M1332 16L1371 -60M1332 1456L1288 1417M1332 1456L1371 1380M1421 5L1462 37M1421 5L1371 -60M1421 5L1500 -38M1421 1445L1371 1380M1421 1445L1500 1402M1462 37L1554 2M1462 37L1430 120M1462 37L1517 139M1462 37L1500 -38M1462 1477L1500 1402M1554 2L1608 17M1554 2L1590 -93M1554 2L1500 -38M1554 2L1581 -15M1554 1442L1590 1347M1554 1442L1500 1402M1554 1442L1581 1425M1608 17L1581 -15M1608 17L1645 -48M1608 1457L1581 1425M1608 1457L1645 1392M1727 51L1783 78M1727 51L1654 105M1727 51L1702 118M1727 51L1776 107M1727 51L1788 -12M1727 1491L1788 1428M1783 78L1702 118M1783 78L1776 107M1783 78L1863 103M1783 78L1788 -12M1783 1518L1788 1428M1913 75L1969 5M1913 75L1863 103M1913 75L1990 96M1913 75L1967 163M1969 5L2042 42M1969 5L1990 96M1969 5L1948 -53M1969 5L2000 -22M1969 1445L1948 1387M1969 1445L2000 1418M2042 42L2102 78M2042 42L1990 96M2042 42L2035 134M2042 42L2000 -22M2042 1482L2000 1418M2102 78L2035 134M2102 78L2130 97M2102 78L2174 144M2232 10L2281 44M2232 10L2231 -53M2232 10L2245 -43M2232 1450L2231 1387M2232 1450L2245 1397M2281 44L2332 79M2281 44L2245 -43M2281 1484L2245 1397M2332 79L2314 139M2332 79L2395 104M2473 76L2541 23M2473 76L2395 104M2473 76L2469 134M2473 76L2485 107M2541 23L2485 107M2541 23L2605 -13M2541 23L2509 -40M-19 23L45 -13M-19 1463L45 1427M2541 1463L2605 1427M2541 1463L2509 1400M68 123L116 151M68 123L65 220M68 123L154 171M116 151L196 136M116 151L65 220M116 151L154 171M196 136L154 171M196 136L268 181M293 93L342 152M293 93L268 181M342 152L268 181M342 152L381 169M342 152L308 252M438 89L508 159M438 89L460 162M508 159L460 162M508 159L544 161M508 159L585 171M622 141L643 152M622 141L544 161M622 141L585 171M622 141L702 222M643 152L544 161M643 152L585 171M643 152L702 222M760 96L853 105M760 96L787 206M853 105L921 150M921 150L855 203M921 150L908 201M921 150L990 194M921 150L912 263M1039 114L1097 126M1039 114L1138 127M1039 114L1098 181M1097 126L1138 127M1097 126L1098 181M1138 127L1098 181M1138 127L1189 186M1138 127L1202 177M1253 157L1331 139M1253 157L1189 186M1253 157L1202 177M1331 139L1430 120M1331 139L1360 196M1331 139L1372 176M1430 120L1517 139M1430 120L1360 196M1430 120L1372 176M1517 139L1569 160M1517 139L1466 220M1517 139L1571 186M1569 160L1654 105M1569 160L1571 186M1569 160L1626 227M1569 160L1681 169M1654 105L1702 118M1654 105L1681 169M1702 118L1776 107M1702 118L1681 169M1776 107L1863 103M1776 107L1826 197M1863 103L1826 197M1990 96L2035 134M1990 96L1967 163M2035 134L2130 97M2035 134L1967 163M2130 97L2174 144M2130 97L2112 207M2130 97L2221 164M2174 144L2112 207M2174 144L2221 164M2174 144L2150 247M2314 139L2395 104M2314 139L2221 164M2314 139L2303 188M2314 139L2367 210M2395 104L2469 134M2395 104L2485 107M2469 134L2485 107M2469 134L2464 217M2469 134L2496 237M65 220L9 262M65 220L142 257M65 220L-27 250M2625 220L2533 250M154 171L217 235M154 171L142 257M217 235L268 181M217 235L142 257M217 235L308 252M217 235L221 321M268 181L308 252M381 169L460 162M460 162L544 161M544 161L585 171M585 171L578 275M702 222L787 206M702 222L674 261M702 222L791 258M787 206L855 203M787 206L791 258M787 206L815 288M855 203L908 201M855 203L791 258M855 203L912 263M908 201L990 194M908 201L912 263M990 194L1031 293M1098 181L1189 186M1098 181L1202 177M1189 186L1202 177M1360 196L1372 176M1360 196L1466 220M1360 196L1400 265M1372 176L1400 265M1466 220L1571 186M1466 220L1400 265M1466 220L1477 307M1571 186L1626 227M1571 186L1681 169M1626 227L1681 169M1626 227L1627 303M1626 227L1635 332M1826 197L1849 227M1849 227L1787 297M1849 227L1860 319M1967 163L2052 229M1967 163L1973 264M2052 229L2112 207M2052 229L1973 264M2052 229L2001 299M2052 229L2150 247M2112 207L2150 247M2221 164L2303 188M2221 164L2150 247M2303 188L2367 210M2303 188L2306 280M2303 188L2324 298M2367 210L2464 217M2367 210L2306 280M2367 210L2324 298M2464 217L2496 237M2464 217L2470 284M2464 217L2533 250M2496 237L2569 262M2496 237L2470 284M2496 237L2533 250M-64 237L9 262M9 262L-90 284M9 262L-27 250M9 262L-7 366M2569 262L2470 284M2569 262L2533 250M2569 262L2553 366M142 257L171 317M142 257L221 321M171 317L85 375M171 317L221 321M171 317L253 371M308 252L376 305M308 252L350 327M376 305L464 289M376 305L350 327M376 305L482 336M464 289L510 308M464 289L578 275M464 289L482 336M510 308L578 275M510 308L455 389M510 308L482 336M510 308L504 424M578 275L674 261M578 275L636 331M674 261L636 331M791 258L815 288M791 258L820 342M815 288L912 263M815 288L779 380M815 288L820 342M912 263L936 361M1031 293L1105 278M1031 293L982 382M1105 278L1179 304M1105 278L1124 384M1179 304L1262 313M1179 304L1282 287M1179 304L1124 384M1262 313L1282 287M1262 313L1272 384M1262 313L1320 334M1282 287L1272 384M1282 287L1320 334M1282 287L1363 379M1400 265L1477 307M1477 307L1537 312M1477 307L1497 370M1537 312L1627 303M1537 312L1497 370M1537 312L1564 368M1627 303L1564 368M1627 303L1635 332M1755 308L1787 297M1755 308L1730 332M1755 308L1797 367M1787 297L1860 319M1787 297L1730 332M1787 297L1797 367M1860 319L1797 367M1860 319L1873 348M1860 319L1867 430M1973 264L2001 299M1973 264L1983 360M2001 299L1983 360M2001 299L2020 383M2001 299L1994 416M2150 247L2183 310M2183 310L2105 387M2183 310L2208 375M2183 310L2283 347M2306 280L2324 298M2306 280L2283 347M2306 280L2380 356M2324 298L2283 347M2324 298L2380 356M2470 284L2533 250M2470 284L2469 356M18 396L85 375M18 396L-7 366M18 396L43 419M18 396L-56 461M2578 396L2553 366M2578 396L2504 461M85 375L-7 366M85 375L43 419M85 375L153 449M2645 375L2553 366M221 321L253 371M253 371L350 327M253 371L235 451M253 371L276 436M350 327L385 423M455 389L482 336M455 389L385 423M455 389L409 476M455 389L504 424M482 336L504 424M636 331L700 400M700 400L779 380M700 400L617 451M700 400L656 475M700 400L759 441M779 380L820 342M779 380L759 441M779 380L843 403M820 342L843 403M820 342L883 409M936 361L982 382M936 361L843 403M936 361L883 409M982 382L1075 391M982 382L986 443M982 382L1048 448M1075 391L1124 384M1075 391L1048 448M1075 391L1128 460M1124 384L1128 460M1272 384L1320 334M1272 384L1363 379M1272 384L1258 469M1320 334L1363 379M1363 379L1358 460M1363 379L1389 429M1497 370L1564 368M1497 370L1495 440M1497 370L1543 401M1564 368L1635 332M1564 368L1543 401M1635 332L1730 332M1635 332L1690 412M1730 332L1797 367M1730 332L1690 412M1797 367L1873 348M1873 348L1819 447M1873 348L1867 430M1983 360L2020 383M1983 360L1994 416M1983 360L2044 414M2020 383L2105 387M2020 383L1994 416M2020 383L2044 414M2105 387L2044 414M2105 387L2126 441M2208 375L2283 347M2208 375L2213 439M2208 375L2296 453M2380 356L2469 356M2380 356L2347 438M2380 356L2446 407M2469 356L2553 366M2469 356L2446 407M2553 366L2603 419M-7 366L43 419M43 419L153 449M43 419L-56 461M2603 419L2504 461M153 449L235 451M153 449L211 504M153 449L241 482M235 451L276 436M235 451L211 504M235 451L241 482M276 436L385 423M276 436L211 504M276 436L241 482M385 423L409 476M385 423L406 523M409 476L504 424M409 476L375 528M409 476L406 523M504 424L530 502M617 451L656 475M617 451L530 502M617 451L657 518M656 475L657 518M656 475L642 561M759 441L843 403M759 441L746 518M759 441L810 532M843 403L883 409M883 409L950 486M986 443L1048 448M986 443L950 486M986 443L983 496M986 443L1045 506M1048 448L1128 460M1048 448L1045 506M1128 460L1045 506M1128 460L1145 545M1258 469L1358 460M1258 469L1237 523M1358 460L1389 429M1358 460L1356 524M1358 460L1373 558M1389 429L1495 440M1389 429L1356 524M1389 429L1492 480M1495 440L1543 401M1495 440L1492 480M1495 440L1526 511M1543 401L1615 456M1543 401L1492 480M1615 456L1690 412M1615 456L1526 511M1615 456L1623 521M1819 447L1867 430M1819 447L1816 488M1867 430L1816 488M1867 430L1895 531M1994 416L2044 414M2044 414L2126 441M2126 441L2213 439M2126 441L2089 509M2126 441L2162 530M2213 439L2296 453M2213 439L2162 530M2213 439L2206 561M2296 453L2347 438M2296 453L2305 553M2296 453L2328 508M2347 438L2446 407M2347 438L2328 508M2446 407L2504 461M2446 407L2423 523M2504 461L2423 523M2504 461L2510 533M30 532L99 553M30 532L-50 533M30 532L65 560M30 532L-22 621M2590 532L2510 533M2590 532L2538 621M99 553L65 560M99 553L128 590M211 504L241 482M211 504L200 620M375 528L406 523M375 528L301 600M375 528L461 602M406 523L461 602M530 502L574 535M530 502L461 602M574 535L657 518M574 535L523 620M574 535L598 625M574 535L642 561M657 518L746 518M657 518L642 561M746 518L810 532M746 518L737 598M810 532L737 598M810 532L813 600M950 486L983 496M950 486L935 567M983 496L1045 506M983 496L935 567M1045 506L1060 561M1145 545L1237 523M1145 545L1060 561M1145 545L1138 568M1145 545L1231 605M1237 523L1138 568M1237 523L1231 605M1237 523L1316 577M1356 524L1373 558M1356 524L1316 577M1356 524L1390 605M1373 558L1316 577M1373 558L1390 605M1373 558L1384 664M1492 480L1526 511M1492 480L1486 563M1526 511L1623 521M1526 511L1486 563M1623 521L1704 546M1623 521L1606 571M1704 546L1606 571M1704 546L1747 623M1816 488L1895 531M1895 531L1970 553M1895 531L1894 636M1895 531L1960 617M1970 553L2052 550M1970 553L1960 617M2052 550L2089 509M2052 550L2162 530M2052 550L2059 597M2052 550L2091 602M2089 509L2162 530M2089 509L2059 597M2089 509L2091 602M2162 530L2206 561M2305 553L2328 508M2305 553L2206 561M2305 553L2250 610M2305 553L2372 628M2328 508L2423 523M2423 523L2510 533M2423 523L2470 589M2510 533L2470 589M2510 533L2538 621M65 560L128 590M128 590L200 620M128 590L98 681M128 590L205 645M200 620L301 600M200 620L205 645M200 620L285 640M301 600L338 637M301 600L285 640M301 600L336 676M338 637L285 640M338 637L336 676M461 602L523 620M461 602L502 703M523 620L598 625M523 620L502 703M523 620L553 726M598 625L642 561M598 625L635 652M642 561L635 652M737 598L813 600M737 598L763 650M813 600L763 650M935 567L989 590M935 567L1011 649M989 590L1060 561M989 590L1011 649M989 590L1064 676M1060 561L1138 568M1060 561L1011 649M1138 568L1231 605M1138 568L1180 671M1231 605L1316 577M1231 605L1180 671M1316 577L1390 605M1390 605L1486 563M1390 605L1384 664M1486 563L1578 618M1486 563L1497 671M1578 618L1606 571M1578 618L1497 671M1747 623L1820 632M1747 623L1684 675M1747 623L1779 651M1820 632L1894 636M1820 632L1779 651M1894 636L1960 617M1894 636L1890 713M1894 636L1958 693M1960 617L2059 597M1960 617L1958 693M2059 597L2091 602M2059 597L2076 685M2091 602L2076 685M2091 602L2165 657M2206 561L2250 610M2250 610L2372 628M2250 610L2165 657M2250 610L2244 699M2372 628L2470 589M2372 628L2370 692M2372 628L2351 740M2470 589L2538 621M2470 589L2474 707M2538 621L2474 707M2538 621L2533 718M42 708L98 681M42 708L-27 718M42 708L74 722M42 708L-1 789M2602 708L2533 718M2602 708L2559 789M98 681L74 722M98 681L155 773M205 645L285 640M285 640L336 676M336 676L413 719M336 676L304 735M413 719L502 703M413 719L395 798M413 719L451 769M502 703L451 769M502 703L553 726M635 652L695 701M635 652L553 726M695 701L763 650M695 701L607 764M695 701L655 775M695 701L779 725M763 650L844 718M763 650L779 725M844 718L904 717M844 718L779 725M844 718L867 778M844 718L851 804M904 717L867 778M904 717L943 752M904 717L977 789M904 717L851 804M1011 649L1064 676M1011 649L1073 737M1064 676L1073 737M1180 671L1276 716M1180 671L1187 763M1180 671L1221 754M1276 716L1300 687M1276 716L1187 763M1276 716L1221 754M1276 716L1354 785M1300 687L1384 664M1300 687L1221 754M1384 664L1497 671M1497 671L1563 713M1497 671L1491 733M1563 713L1639 703M1563 713L1491 733M1563 713L1598 743M1563 713L1594 802M1639 703L1684 675M1639 703L1598 743M1639 703L1715 739M1684 675L1779 651M1684 675L1715 739M1890 713L1958 693M1890 713L1820 785M1890 713L1844 757M1890 713L1969 759M1958 693L1969 759M2076 685L2150 697M2076 685L2165 657M2076 685L2079 749M2150 697L2165 657M2150 697L2244 699M2150 697L2079 749M2150 697L2129 755M2165 657L2244 699M2244 699L2306 779M2370 692L2474 707M2370 692L2306 779M2370 692L2351 740M2474 707L2533 718M2474 707L2461 793M2533 718L2461 793M2533 718L2559 789M74 722L155 773M74 722L46 809M155 773L211 777M155 773L88 845M155 773L201 836M211 777L304 735M211 777L201 836M211 777L294 826M304 735L395 798M304 735L294 826M304 735L368 811M395 798L451 769M395 798L368 811M395 798L456 876M451 769L368 811M451 769L533 813M553 726L607 764M553 726L533 813M607 764L655 775M607 764L533 813M607 764L675 839M655 775L630 876M655 775L675 839M779 725L762 831M867 778L943 752M867 778L851 804M867 778L887 835M943 752L977 789M943 752L993 807M977 789L887 835M977 789L993 807M977 789L1041 840M1073 737L993 807M1073 737L1041 840M1187 763L1221 754M1187 763L1195 856M1187 763L1261 818M1221 754L1261 818M1354 785L1395 796M1354 785L1261 818M1354 785L1330 871M1354 785L1388 843M1395 796L1491 733M1395 796L1330 871M1395 796L1388 843M1395 796L1474 808M1491 733L1598 743M1491 733L1474 808M1598 743L1655 782M1598 743L1594 802M1655 782L1715 739M1655 782L1594 802M1655 782L1679 830M1655 782L1724 814M1715 739L1679 830M1715 739L1724 814M1820 785L1844 757M1820 785L1724 814M1820 785L1817 834M1820 785L1919 807M1844 757L1817 834M1844 757L1919 807M1969 759L1919 807M1969 759L1980 827M1969 759L2041 814M2079 749L2129 755M2079 749L2041 814M2079 749L2093 806M2129 755L2165 789M2129 755L2041 814M2129 755L2093 806M2165 789L2093 806M2165 789L2212 855M2165 789L2268 806M2306 779L2351 740M2306 779L2268 806M2351 740L2268 806M2461 793L2559 789M2461 793L2414 863M2461 793L2540 818M2559 789L2606 809M2559 789L2540 818M-1 789L46 809M46 809L88 845M46 809L-20 818M46 809L36 887M2606 809L2540 818M88 845L36 887M88 845L122 899M201 836L294 826M201 836L200 907M201 836L243 919M294 826L368 811M294 826L332 930M368 811L456 876M456 876L403 954M456 876L535 883M533 813L535 883M533 813L579 887M630 876L675 839M630 876L535 883M630 876L579 887M630 876L692 935M675 839L762 831M675 839L692 935M762 831L851 804M762 831L730 931M851 804L887 835M887 835L871 944M887 835L941 912M993 807L1041 840M993 807L941 912M1195 856L1261 818M1195 856L1153 894M1195 856L1243 956M1261 818L1330 871M1330 871L1388 843M1330 871L1316 924M1388 843L1474 808M1388 843L1407 944M1474 808L1594 802M1594 802L1679 830M1679 830L1724 814M1679 830L1731 901M1724 814L1731 901M1919 807L1980 827M1980 827L2041 814M1980 827L1968 915M2041 814L2093 806M2093 806L2147 903M2212 855L2268 806M2212 855L2147 903M2212 855L2233 928M2212 855L2249 889M2268 806L2249 889M2379 863L2414 863M2379 863L2367 959M2414 863L2475 954M2414 863L2488 898M2540 818L2596 887M2540 818L2488 898M-20 818L36 887M36 887L122 899M36 887L-72 898M2596 887L2488 898M122 899L200 907M122 899L119 1006M200 907L243 919M200 907L180 982M200 907L245 968M243 919L332 930M243 919L180 982M243 919L245 968M332 930L403 954M332 930L245 968M332 930L355 996M403 954L355 996M403 954L452 1010M403 954L500 992M535 883L579 887M535 883L500 992M692 935L730 931M692 935L718 1038M871 944L941 912M871 944L879 1014M871 944L887 1022M941 912L988 947M941 912L1021 1003M988 947L1021 1003M988 947L1069 992M1110 945L1153 894M1110 945L1021 1003M1110 945L1069 992M1110 945L1126 1019M1153 894L1243 956M1243 956L1316 924M1243 956L1221 1008M1243 956L1353 985M1316 924L1407 944M1316 924L1353 985M1407 944L1475 930M1407 944L1353 985M1407 944L1434 1009M1475 930L1434 1009M1475 930L1515 1005M1587 953L1679 956M1587 953L1515 1005M1587 953L1581 974M1587 953L1611 1034M1679 956L1731 901M1679 956L1772 953M1679 956L1747 982M1679 956L1666 1052M1731 901L1772 953M1731 901L1747 982M1772 953L1858 949M1772 953L1747 982M1772 953L1831 966M1858 949L1831 966M1858 949L1919 1000M1968 915L2057 932M1968 915L1970 1015M2057 932L2147 903M2057 932L2057 976M2057 932L2116 982M2147 903L2233 928M2147 903L2116 982M2233 928L2249 889M2233 928L2216 1020M2233 928L2248 961M2249 889L2248 961M2367 959L2248 961M2367 959L2347 1003M2367 959L2473 965M2367 959L2367 1048M2475 954L2488 898M2475 954L2473 965M2475 954L2499 1031M2488 898L2473 965M16 1013L119 1006M16 1013L-61 1031M16 1013L59 1103M16 1013L-65 1077M2576 1013L2499 1031M2576 1013L2495 1077M119 1006L180 982M119 1006L59 1103M119 1006L156 1099M180 982L245 968M180 982L199 1081M355 996L452 1010M355 996L356 1090M452 1010L500 992M452 1010L420 1081M452 1010L490 1042M500 992L579 1032M500 992L490 1042M579 1032L490 1042M579 1032L631 1096M718 1038L786 1035M718 1038L713 1108M718 1038L724 1053M718 1038L807 1054M786 1035L879 1014M786 1035L887 1022M786 1035L724 1053M786 1035L807 1054M879 1014L887 1022M879 1014L807 1054M879 1014L901 1094M887 1022L807 1054M887 1022L901 1094M1021 1003L1069 992M1069 992L1126 1019M1126 1019L1221 1008M1126 1019L1102 1095M1126 1019L1129 1088M1221 1008L1129 1088M1221 1008L1227 1112M1353 985L1434 1009M1353 985L1323 1087M1434 1009L1515 1005M1434 1009L1487 1080M1515 1005L1581 974M1515 1005L1487 1080M1581 974L1611 1034M1581 974L1596 1063M1611 1034L1596 1063M1611 1034L1666 1052M1611 1034L1586 1128M1747 982L1831 966M1831 966L1919 1000M1919 1000L1970 1015M1919 1000L1849 1083M1919 1000L1961 1081M1970 1015L2057 976M1970 1015L1961 1081M1970 1015L2040 1074M2057 976L2116 982M2057 976L2040 1074M2116 982L2216 1020M2116 982L2091 1088M2216 1020L2248 961M2216 1020L2237 1086M2216 1020L2253 1113M2248 961L2347 1003M2347 1003L2367 1048M2347 1003L2411 1069M2473 965L2499 1031M2499 1031L2411 1069M2499 1031L2495 1077M59 1103L156 1099M59 1103L4 1147M59 1103L121 1185M156 1099L199 1081M156 1099L121 1185M156 1099L192 1141M199 1081L298 1085M199 1081L192 1141M199 1081L286 1140M298 1085L356 1090M298 1085L286 1140M298 1085L335 1129M356 1090L420 1081M356 1090L286 1140M356 1090L335 1129M420 1081L490 1042M420 1081L335 1129M420 1081L440 1168M631 1096L713 1108M631 1096L724 1053M631 1096L577 1163M631 1096L647 1159M713 1108L724 1053M713 1108L647 1159M713 1108L724 1171M724 1053L807 1054M901 1094L872 1142M901 1094L975 1127M1025 1112L1102 1095M1025 1112L975 1127M1025 1112L1062 1184M1025 1112L1063 1223M1102 1095L1129 1088M1102 1095L1062 1184M1102 1095L1163 1140M1129 1088L1227 1112M1129 1088L1163 1140M1227 1112L1323 1087M1227 1112L1163 1140M1227 1112L1253 1197M1323 1087L1417 1114M1323 1087L1341 1129M1417 1114L1487 1080M1417 1114L1341 1129M1417 1114L1417 1153M1417 1114L1465 1193M1487 1080L1596 1063M1487 1080L1417 1153M1596 1063L1666 1052M1596 1063L1586 1128M1666 1052L1722 1087M1722 1087L1770 1117M1722 1087L1700 1147M1722 1087L1761 1125M1770 1117L1849 1083M1770 1117L1700 1147M1770 1117L1761 1125M1849 1083L1761 1125M1849 1083L1911 1129M1961 1081L2040 1074M1961 1081L1911 1129M1961 1081L2036 1135M2040 1074L2091 1088M2040 1074L2036 1135M2091 1088L2036 1135M2091 1088L2156 1142M2091 1088L2164 1157M2237 1086L2253 1113M2237 1086L2156 1142M2237 1086L2164 1157M2237 1086L2243 1144M2253 1113L2156 1142M2253 1113L2164 1157M2253 1113L2243 1144M2367 1048L2411 1069M2367 1048L2375 1135M2411 1069L2495 1077M2411 1069L2375 1135M2495 1077L2564 1147M2495 1077L2446 1181M-65 1077L4 1147M4 1147L-19 1198M2564 1147L2541 1198M121 1185L192 1141M121 1185L76 1231M121 1185L107 1267M192 1141L286 1140M192 1141L215 1247M286 1140L335 1129M335 1129L440 1168M440 1168L495 1197M440 1168L421 1218M440 1168L495 1229M495 1197L577 1163M495 1197L421 1218M495 1197L495 1229M495 1197L585 1257M577 1163L647 1159M577 1163L585 1257M647 1159L724 1171M647 1159L717 1230M724 1171L717 1230M724 1171L797 1252M724 1171L814 1224M872 1142L954 1193M872 1142L975 1127M872 1142L814 1224M872 1142L961 1237M954 1193L975 1127M954 1193L946 1256M954 1193L961 1237M975 1127L1062 1184M1062 1184L1063 1223M1062 1184L1126 1216M1163 1140L1253 1197M1163 1140L1126 1216M1253 1197L1222 1272M1253 1197L1291 1273M1253 1197L1224 1317M1341 1129L1417 1153M1417 1153L1465 1193M1417 1153L1370 1225M1465 1193L1370 1225M1465 1193L1477 1251M1465 1193L1495 1292M1586 1128L1622 1200M1622 1200L1700 1147M1622 1200L1580 1247M1622 1200L1661 1265M1622 1200L1701 1209M1700 1147L1761 1125M1700 1147L1701 1209M1761 1125L1701 1209M1911 1129L1935 1194M1935 1194L2036 1135M1935 1194L1848 1251M1935 1194L1994 1269M1935 1194L1885 1296M2036 1135L2090 1234M2156 1142L2164 1157M2156 1142L2243 1144M2164 1157L2243 1144M2243 1144L2250 1224M2375 1135L2446 1181M2375 1135L2331 1232M2375 1135L2412 1202M2446 1181L2541 1198M2446 1181L2412 1202M2446 1181L2482 1240M2541 1198L2636 1231M2541 1198L2482 1240M-19 1198L76 1231M76 1231L107 1267M76 1231L65 1300M76 1231L110 1291M107 1267L65 1300M107 1267L110 1291M215 1247L311 1248M215 1247L194 1341M215 1247L243 1299M311 1248L375 1256M311 1248L243 1299M375 1256L421 1218M375 1256L369 1352M375 1256L406 1284M421 1218L495 1229M421 1218L406 1284M495 1229L585 1257M495 1229L406 1284M585 1257L590 1351M585 1257L658 1323M717 1230L797 1252M717 1230L814 1224M717 1230L769 1311M797 1252L814 1224M797 1252L769 1311M814 1224L769 1311M946 1256L961 1237M946 1256L967 1346M961 1237L1063 1223M1063 1223L1126 1216M1063 1223L1087 1305M1126 1216L1222 1272M1126 1216L1087 1305M1222 1272L1291 1273M1222 1272L1155 1351M1222 1272L1224 1317M1291 1273L1370 1225M1291 1273L1224 1317M1291 1273L1351 1298M1370 1225L1477 1251M1370 1225L1351 1298M1477 1251L1580 1247M1477 1251L1436 1311M1477 1251L1495 1292M1580 1247L1661 1265M1580 1247L1495 1292M1580 1247L1590 1347M1661 1265L1701 1209M1661 1265L1646 1326M1661 1265L1683 1301M1701 1209L1683 1301M1805 1259L1848 1251M1805 1259L1801 1280M1805 1259L1885 1296M1848 1251L1801 1280M1848 1251L1885 1296M1994 1269L2075 1273M1994 1269L2090 1234M1994 1269L1995 1313M1994 1269L2056 1335M2075 1273L2090 1234M2075 1273L1995 1313M2075 1273L2056 1335M2228 1254L2250 1224M2228 1254L2331 1232M2228 1254L2190 1297M2250 1224L2331 1232M2250 1224L2190 1297M2331 1232L2412 1202M2331 1232L2338 1295M2412 1202L2482 1240M2482 1240L2485 1355M65 1300L110 1291M65 1300L45 1427M65 1300L122 1367M110 1291L122 1367M194 1341L243 1299M194 1341L122 1367M194 1341L217 1381M194 1341L274 1383M243 1299L217 1381M243 1299L274 1383M369 1352L406 1284M369 1352L368 1392M369 1352L446 1394M406 1284L446 1394M547 1360L590 1351M547 1360L485 1411M547 1360L630 1394M590 1351L658 1323M590 1351L630 1394M590 1351L690 1373M658 1323L630 1394M658 1323L690 1373M769 1311L690 1373M769 1311L831 1398M873 1347L894 1345M873 1347L967 1346M873 1347L831 1398M873 1347L954 1383M873 1347L977 1364M894 1345L967 1346M894 1345L831 1398M894 1345L954 1383M894 1345L977 1364M967 1346L954 1383M967 1346L977 1364M1087 1305L1155 1351M1155 1351L1224 1317M1155 1351L1160 1440M1155 1351L1202 1406M1224 1317L1202 1406M1351 1298L1436 1311M1351 1298L1371 1380M1436 1311L1495 1292M1436 1311L1371 1380M1436 1311L1500 1402M1590 1347L1646 1326M1590 1347L1581 1425M1590 1347L1645 1392M1646 1326L1683 1301M1646 1326L1645 1392M1683 1301L1801 1280M1683 1301L1645 1392M1801 1280L1885 1296M1801 1280L1847 1380M1885 1296L1847 1380M1995 1313L2056 1335M1995 1313L1948 1387M1995 1313L2000 1418M2056 1335L2150 1357M2056 1335L2146 1374M2150 1357L2190 1297M2150 1357L2146 1374M2150 1357L2231 1387M2150 1357L2245 1397M2190 1297L2146 1374M2190 1297L2231 1387M2319 1349L2338 1295M2319 1349L2435 1359M2319 1349L2245 1397M2319 1349L2378 1380M2338 1295L2378 1380M2435 1359L2485 1355M2435 1359L2378 1380M2435 1359L2458 1382M2435 1359L2509 1400M2485 1355L2378 1380M2485 1355L2458 1382M2485 1355L2509 1400M45 1427L122 1367M122 1367L217 1381M217 1381L274 1383M274 1383L368 1392M368 1392L446 1394M446 1394L485 1411M630 1394L690 1373M690 1373L750 1415M750 1415L831 1398M954 1383L977 1364M954 1383L1051 1435M977 1364L1051 1435M1160 1440L1202 1406M1202 1406L1288 1417M1288 1417L1371 1380M1500 1402L1581 1425M1581 1425L1645 1392M1750 1397L1788 1428M1750 1397L1847 1380M1788 1428L1847 1380M1847 1380L1948 1387M1948 1387L2000 1418M2146 1374L2231 1387M2231 1387L2245 1397M2378 1380L2458 1382M2458 1382L2509 1400"/></svg>