<svg xmlns="http://www.w3.org/2000/svg" width="2560" height="1440" fill="#fff"><circle cx="24" cy="11" r="6"/><circle cx="116" cy="44" r="5"/><circle cx="227" cy="73" r="5"/><circle cx="317" cy="54" r="5"/><circle cx="377" cy="22" r="5"/><circle cx="442" cy="63" r="6"/><circle cx="490" cy="18" r="4"/><circle cx="618" cy="47" r="6"/><circle cx="644" cy="58" r="6"/><circle cx="734" cy="57" r="5"/><circle cx="876" cy="55" r="5"/><circle cx="895" cy="40" r="6"/><circle cx="987" cy="15" r="6"/><circle cx="1099" cy="36" r="6"/><circle cx="1134" cy="50" r="5"/><circle cx="1216" cy="2" r="5"/><circle cx="1216" cy="1442" r="5"/><circle cx="1331" cy="45" r="5"/><circle cx="1437" cy="67" r="6"/><circle cx="1443" cy="19" r="5"/><circle cx="1600" cy="9" r="4"/><circle cx="1679" cy="23" r="5"/><circle cx="1740" cy="78" r="5"/><circle cx="1793" cy="38" r="6"/><circle cx="1858" cy="26" r="5"/><circle cx="1975" cy="22" r="5"/><circle cx="2038" cy="62" r="4"/><circle cx="2125" cy="74" r="5"/><circle cx="2176" cy="11" r="5"/><circle cx="2284" cy="17" r="6"/><circle cx="2390" cy="60" r="5"/><circle cx="2419" cy="67" r="5"/><circle cx="2500" cy="66" r="5"/><circle cx="65" cy="119" r="5"/><circle cx="132" cy="133" r="5"/><circle cx="238" cy="153" r="6"/><circle cx="313" cy="89" r="5"/><circle cx="329" cy="141" r="5"/><circle cx="464" cy="144" r="4"/><circle cx="542" cy="147" r="4"/><circle cx="605" cy="131" r="5"/><circle cx="695" cy="95" r="6"/><circle cx="788" cy="158" r="4"/><circle cx="864" cy="131" r="5"/><circle cx="881" cy="101" r="6"/><circle cx="1026" cy="156" r="5"/><circle cx="1115" cy="103" r="4"/><circle cx="1159" cy="146" r="4"/><circle cx="1220" cy="90" r="4"/><circle cx="1318" cy="112" r="4"/><circle cx="1435" cy="123" r="5"/><circle cx="1468" cy="107" r="5"/><circle cx="1558" cy="147" r="5"/><circle cx="1626" cy="102" r="4"/><circle cx="1721" cy="103" r="4"/><circle cx="1836" cy="138" r="6"/><circle cx="1896" cy="119" r="5"/><circle cx="1952" cy="119" r="5"/><circle cx="2033" cy="102" r="5"/><circle cx="2133" cy="138" r="6"/><circle cx="2200" cy="88" r="6"/><circle cx="2252" cy="82" r="4"/><circle cx="2368" cy="148" r="5"/><circle cx="2462" cy="92" r="5"/><circle cx="2548" cy="93" r="5"/><circle cx="25" cy="161" r="5"/><circle cx="129" cy="166" r="5"/><circle cx="178" cy="180" r="5"/><circle cx="281" cy="221" r="5"/><circle cx="330" cy="239" r="5"/><circle cx="410" cy="212" r="4"/><circle cx="495" cy="205" r="5"/><circle cx="627" cy="189" r="4"/><circle cx="669" cy="232" r="6"/><circle cx="728" cy="205" r="4"/><circle cx="822" cy="192" r="5"/><circle cx="913" cy="197" r="6"/><circle cx="973" cy="229" r="6"/><circle cx="1094" cy="184" r="5"/><circle cx="1180" cy="204" r="5"/><circle cx="1280" cy="172" r="5"/><circle cx="1355" cy="221" r="6"/><circle cx="1409" cy="212" r="5"/><circle cx="1456" cy="163" r="5"/><circle cx="1539" cy="198" r="6"/><circle cx="1673" cy="183" r="5"/><circle cx="1699" cy="195" r="4"/><circle cx="1788" cy="216" r="6"/><circle cx="1881" cy="180" r="6"/><circle cx="1951" cy="239" r="4"/><circle cx="2026" cy="213" r="5"/><circle cx="2116" cy="201" r="5"/><circle cx="2213" cy="218" r="6"/><circle cx="2256" cy="175" r="4"/><circle cx="2344" cy="169" r="6"/><circle cx="2429" cy="168" r="5"/><circle cx="2524" cy="227" r="6"/><circle cx="46" cy="302" r="6"/><circle cx="113" cy="303" r="5"/><circle cx="168" cy="296" r="6"/><circle cx="289" cy="256" r="5"/><circle cx="378" cy="282" r="4"/><circle cx="476" cy="248" r="5"/><circle cx="517" cy="266" r="5"/><circle cx="581" cy="277" r="6"/><circle cx="656" cy="256" r="4"/><circle cx="779" cy="249" r="5"/><circle cx="850" cy="300" r="5"/><circle cx="916" cy="275" r="5"/><circle cx="1035" cy="278" r="5"/><circle cx="1082" cy="308" r="5"/><circle cx="1154" cy="318" r="6"/><circle cx="1271" cy="301" r="4"/><circle cx="1357" cy="262" r="5"/><circle cx="1407" cy="299" r="4"/><circle cx="1443" cy="303" r="5"/><circle cx="1522" cy="315" r="6"/><circle cx="1622" cy="290" r="5"/><circle cx="1715" cy="246" r="4"/><circle cx="1829" cy="300" r="4"/><circle cx="1867" cy="309" r="6"/><circle cx="1972" cy="311" r="5"/><circle cx="2053" cy="307" r="6"/><circle cx="2136" cy="283" r="4"/><circle cx="2206" cy="301" r="5"/><circle cx="2308" cy="265" r="5"/><circle cx="2379" cy="264" r="5"/><circle cx="2444" cy="246" r="5"/><circle cx="2499" cy="315" r="5"/><circle cx="25" cy="350" r="5"/><circle cx="93" cy="385" r="4"/><circle cx="208" cy="365" r="5"/><circle cx="266" cy="357" r="4"/><circle cx="372" cy="359" r="5"/><circle cx="439" cy="398" r="5"/><circle cx="506" cy="323" r="5"/><circle cx="638" cy="368" r="6"/><circle cx="717" cy="320" r="5"/><circle cx="758" cy="365" r="6"/><circle cx="822" cy="364" r="5"/><circle cx="934" cy="368" r="6"/><circle cx="990" cy="345" r="4"/><circle cx="1071" cy="335" r="4"/><circle cx="1191" cy="353" r="4"/><circle cx="1215" cy="357" r="5"/><circle cx="1290" cy="368" r="5"/><circle cx="1420" cy="347" r="6"/><circle cx="1441" cy="375" r="5"/><circle cx="1592" cy="325" r="4"/><circle cx="1658" cy="323" r="4"/><circle cx="1692" cy="392" r="4"/><circle cx="1774" cy="326" r="4"/><circle cx="1893" cy="382" r="4"/><circle cx="1981" cy="339" r="4"/><circle cx="2056" cy="391" r="6"/><circle cx="2153" cy="375" r="4"/><circle cx="2167" cy="324" r="4"/><circle cx="2316" cy="323" r="4"/><circle cx="2366" cy="366" r="5"/><circle cx="2418" cy="371" r="5"/><circle cx="2497" cy="343" r="4"/><circle cx="26" cy="442" r="5"/><circle cx="84" cy="464" r="6"/><circle cx="209" cy="416" r="6"/><circle cx="304" cy="408" r="4"/><circle cx="374" cy="405" r="4"/><circle cx="461" cy="468" r="6"/><circle cx="495" cy="450" r="6"/><circle cx="582" cy="469" r="5"/><circle cx="695" cy="454" r="5"/><circle cx="755" cy="428" r="6"/><circle cx="848" cy="457" r="4"/><circle cx="942" cy="477" r="4"/><circle cx="1027" cy="448" r="5"/><circle cx="1051" cy="477" r="5"/><circle cx="1120" cy="420" r="5"/><circle cx="1203" cy="424" r="5"/><circle cx="1294" cy="424" r="6"/><circle cx="1412" cy="430" r="4"/><circle cx="1497" cy="407" r="5"/><circle cx="1543" cy="434" r="6"/><circle cx="1635" cy="469" r="5"/><circle cx="1684" cy="401" r="4"/><circle cx="1826" cy="441" r="5"/><circle cx="1913" cy="454" r="6"/><circle cx="1994" cy="480" r="6"/><circle cx="2010" cy="419" r="6"/><circle cx="2088" cy="405" r="5"/><circle cx="2178" cy="469" r="6"/><circle cx="2316" cy="465" r="6"/><circle cx="2331" cy="472" r="5"/><circle cx="2404" cy="430" r="4"/><circle cx="2501" cy="405" r="4"/><circle cx="14" cy="514" r="5"/><circle cx="110" cy="501" r="4"/><circle cx="213" cy="525" r="5"/><circle cx="286" cy="557" r="6"/><circle cx="392" cy="505" r="6"/><circle cx="469" cy="486" r="5"/><circle cx="506" cy="534" r="4"/><circle cx="578" cy="498" r="6"/><circle cx="717" cy="535" r="4"/><circle cx="764" cy="543" r="5"/><circle cx="827" cy="550" r="6"/><circle cx="941" cy="496" r="5"/><circle cx="1035" cy="544" r="4"/><circle cx="1058" cy="486" r="6"/><circle cx="1187" cy="497" r="6"/><circle cx="1207" cy="549" r="5"/><circle cx="1327" cy="482" r="5"/><circle cx="1398" cy="541" r="5"/><circle cx="1440" cy="531" r="4"/><circle cx="1595" cy="481" r="4"/><circle cx="1668" cy="546" r="6"/><circle cx="1739" cy="556" r="5"/><circle cx="1771" cy="484" r="5"/><circle cx="1891" cy="546" r="4"/><circle cx="1948" cy="519" r="6"/><circle cx="2050" cy="511" r="5"/><circle cx="2147" cy="481" r="5"/><circle cx="2173" cy="481" r="6"/><circle cx="2273" cy="542" r="4"/><circle cx="2336" cy="505" r="5"/><circle cx="2444" cy="497" r="6"/><circle cx="2558" cy="498" r="4"/><circle cx="-2" cy="498" r="4"/><circle cx="20" cy="600" r="4"/><circle cx="136" cy="614" r="5"/><circle cx="227" cy="586" r="5"/><circle cx="284" cy="561" r="5"/><circle cx="325" cy="583" r="4"/><circle cx="454" cy="611" r="4"/><circle cx="516" cy="588" r="5"/><circle cx="609" cy="628" r="6"/><circle cx="698" cy="616" r="6"/><circle cx="765" cy="609" r="6"/><circle cx="872" cy="637" r="5"/><circle cx="956" cy="570" r="5"/><circle cx="998" cy="598" r="4"/><circle cx="1111" cy="569" r="5"/><circle cx="1162" cy="638" r="5"/><circle cx="1205" cy="616" r="5"/><circle cx="1306" cy="584" r="4"/><circle cx="1438" cy="560" r="6"/><circle cx="1481" cy="568" r="5"/><circle cx="1554" cy="630" r="4"/><circle cx="1631" cy="566" r="5"/><circle cx="1698" cy="587" r="6"/><circle cx="1835" cy="622" r="5"/><circle cx="1890" cy="628" r="4"/><circle cx="1952" cy="562" r="5"/><circle cx="2011" cy="581" r="5"/><circle cx="2105" cy="621" r="5"/><circle cx="2173" cy="614" r="5"/><circle cx="2315" cy="634" r="6"/><circle cx="2387" cy="571" r="4"/><circle cx="2429" cy="610" r="5"/><circle cx="2547" cy="617" r="6"/><circle cx="7" cy="704" r="4"/><circle cx="141" cy="711" r="6"/><circle cx="213" cy="709" r="4"/><circle cx="293" cy="645" r="5"/><circle cx="354" cy="716" r="5"/><circle cx="472" cy="672" r="5"/><circle cx="552" cy="707" r="5"/><circle cx="615" cy="720" r="4"/><circle cx="675" cy="678" r="5"/><circle cx="749" cy="654" r="5"/><circle cx="813" cy="684" r="4"/><circle cx="934" cy="681" r="5"/><circle cx="1001" cy="697" r="4"/><circle cx="1062" cy="642" r="4"/><circle cx="1152" cy="641" r="6"/><circle cx="1221" cy="651" r="5"/><circle cx="1341" cy="696" r="5"/><circle cx="1439" cy="649" r="5"/><circle cx="1488" cy="674" r="6"/><circle cx="1587" cy="687" r="5"/><circle cx="1649" cy="675" r="5"/><circle cx="1709" cy="711" r="5"/><circle cx="1784" cy="717" r="4"/><circle cx="1886" cy="653" r="6"/><circle cx="1925" cy="661" r="5"/><circle cx="2031" cy="696" r="5"/><circle cx="2130" cy="659" r="4"/><circle cx="2182" cy="680" r="6"/><circle cx="2258" cy="662" r="5"/><circle cx="2344" cy="717" r="5"/><circle cx="2401" cy="667" r="5"/><circle cx="2493" cy="718" r="4"/><circle cx="35" cy="736" r="5"/><circle cx="100" cy="757" r="6"/><circle cx="164" cy="739" r="5"/><circle cx="316" cy="746" r="5"/><circle cx="356" cy="763" r="4"/><circle cx="468" cy="794" r="4"/><circle cx="487" cy="754" r="5"/><circle cx="618" cy="770" r="5"/><circle cx="707" cy="797" r="5"/><circle cx="739" cy="799" r="5"/><circle cx="857" cy="751" r="6"/><circle cx="953" cy="778" r="5"/><circle cx="1038" cy="755" r="5"/><circle cx="1078" cy="757" r="4"/><circle cx="1141" cy="794" r="5"/><circle cx="1254" cy="766" r="5"/><circle cx="1345" cy="744" r="4"/><circle cx="1371" cy="722" r="6"/><circle cx="1481" cy="768" r="4"/><circle cx="1563" cy="787" r="6"/><circle cx="1607" cy="733" r="4"/><circle cx="1693" cy="729" r="5"/><circle cx="1792" cy="731" r="5"/><circle cx="1885" cy="734" r="6"/><circle cx="1931" cy="733" r="4"/><circle cx="2021" cy="737" r="5"/><circle cx="2127" cy="786" r="5"/><circle cx="2227" cy="793" r="5"/><circle cx="2262" cy="724" r="5"/><circle cx="2352" cy="739" r="5"/><circle cx="2439" cy="767" r="6"/><circle cx="2516" cy="767" r="6"/><circle cx="4" cy="865" r="5"/><circle cx="2564" cy="865" r="5"/><circle cx="111" cy="872" r="4"/><circle cx="215" cy="840" r="4"/><circle cx="310" cy="819" r="6"/><circle cx="326" cy="839" r="6"/><circle cx="420" cy="859" r="5"/><circle cx="543" cy="850" r="4"/><circle cx="590" cy="840" r="4"/><circle cx="707" cy="869" r="4"/><circle cx="734" cy="802" r="4"/><circle cx="880" cy="870" r="5"/><circle cx="960" cy="818" r="6"/><circle cx="1007" cy="844" r="4"/><circle cx="1040" cy="856" r="6"/><circle cx="1174" cy="809" r="4"/><circle cx="1268" cy="806" r="6"/><circle cx="1319" cy="879" r="4"/><circle cx="1414" cy="843" r="5"/><circle cx="1510" cy="812" r="5"/><circle cx="1597" cy="810" r="5"/><circle cx="1608" cy="860" r="4"/><circle cx="1743" cy="843" r="4"/><circle cx="1774" cy="816" r="4"/><circle cx="1864" cy="827" r="4"/><circle cx="1978" cy="816" r="6"/><circle cx="2059" cy="823" r="5"/><circle cx="2159" cy="836" r="5"/><circle cx="2227" cy="849" r="5"/><circle cx="2278" cy="879" r="4"/><circle cx="2379" cy="873" r="5"/><circle cx="2436" cy="810" r="5"/><circle cx="2559" cy="845" r="5"/><circle cx="-1" cy="845" r="5"/><circle cx="73" cy="940" r="4"/><circle cx="87" cy="958" r="5"/><circle cx="160" cy="957" r="4"/><circle cx="309" cy="930" r="5"/><circle cx="346" cy="953" r="5"/><circle cx="448" cy="928" r="6"/><circle cx="542" cy="943" r="5"/><circle cx="582" cy="904" r="4"/><circle cx="673" cy="889" r="6"/><circle cx="796" cy="925" r="6"/><circle cx="849" cy="958" r="5"/><circle cx="945" cy="942" r="5"/><circle cx="1003" cy="920" r="5"/><circle cx="1060" cy="907" r="4"/><circle cx="1139" cy="929" r="4"/><circle cx="1219" cy="908" r="4"/><circle cx="1351" cy="920" r="6"/><circle cx="1381" cy="924" r="4"/><circle cx="1516" cy="959" r="6"/><circle cx="1594" cy="960" r="4"/><circle cx="1613" cy="934" r="5"/><circle cx="1716" cy="956" r="5"/><circle cx="1786" cy="882" r="4"/><circle cx="1867" cy="899" r="5"/><circle cx="1983" cy="903" r="4"/><circle cx="2038" cy="943" r="4"/><circle cx="2155" cy="897" r="5"/><circle cx="2218" cy="956" r="4"/><circle cx="2292" cy="956" r="4"/><circle cx="2385" cy="918" r="4"/><circle cx="2461" cy="946" r="4"/><circle cx="2543" cy="953" r="6"/><circle cx="39" cy="987" r="6"/><circle cx="155" cy="999" r="5"/><circle cx="202" cy="1009" r="5"/><circle cx="246" cy="1000" r="4"/><circle cx="358" cy="1009" r="6"/><circle cx="443" cy="969" r="5"/><circle cx="511" cy="982" r="4"/><circle cx="617" cy="978" r="5"/><circle cx="696" cy="1018" r="6"/><circle cx="781" cy="980" r="4"/><circle cx="836" cy="1040" r="6"/><circle cx="934" cy="1024" r="5"/><circle cx="1033" cy="1007" r="5"/><circle cx="1070" cy="972" r="6"/><circle cx="1149" cy="984" r="6"/><circle cx="1238" cy="1001" r="5"/><circle cx="1297" cy="1000" r="5"/><circle cx="1413" cy="1035" r="5"/><circle cx="1475" cy="1027" r="4"/><circle cx="1574" cy="971" r="4"/><circle cx="1633" cy="1005" r="5"/><circle cx="1735" cy="993" r="5"/><circle cx="1794" cy="965" r="4"/><circle cx="1882" cy="990" r="5"/><circle cx="1926" cy="1014" r="4"/><circle cx="2008" cy="972" r="5"/><circle cx="2156" cy="979" r="5"/><circle cx="2175" cy="995" r="5"/><circle cx="2313" cy="1022" r="5"/><circle cx="2375" cy="1023" r="6"/><circle cx="2434" cy="971" r="6"/><circle cx="2498" cy="1038" r="4"/><circle cx="78" cy="1064" r="5"/><circle cx="139" cy="1094" r="4"/><circle cx="180" cy="1076" r="4"/><circle cx="317" cy="1075" r="5"/><circle cx="353" cy="1064" r="5"/><circle cx="448" cy="1052" r="5"/><circle cx="547" cy="1077" r="5"/><circle cx="564" cy="1047" r="6"/><circle cx="685" cy="1064" r="5"/><circle cx="752" cy="1063" r="4"/><circle cx="861" cy="1105" r="5"/><circle cx="941" cy="1079" r="4"/><circle cx="1001" cy="1052" r="6"/><circle cx="1075" cy="1084" r="5"/><circle cx="1136" cy="1100" r="5"/><circle cx="1267" cy="1087" r="6"/><circle cx="1293" cy="1068" r="5"/><circle cx="1400" cy="1052" r="5"/><circle cx="1471" cy="1078" r="6"/><circle cx="1567" cy="1090" r="5"/><circle cx="1604" cy="1081" r="5"/><circle cx="1731" cy="1075" r="5"/><circle cx="1825" cy="1072" r="4"/><circle cx="1896" cy="1049" r="5"/><circle cx="1995" cy="1053" r="6"/><circle cx="2008" cy="1116" r="4"/><circle cx="2124" cy="1060" r="4"/><circle cx="2166" cy="1054" r="5"/><circle cx="2298" cy="1094" r="6"/><circle cx="2367" cy="1076" r="4"/><circle cx="2479" cy="1088" r="6"/><circle cx="2485" cy="1072" r="5"/><circle cx="41" cy="1138" r="6"/><circle cx="106" cy="1150" r="6"/><circle cx="219" cy="1183" r="5"/><circle cx="263" cy="1133" r="4"/><circle cx="399" cy="1139" r="5"/><circle cx="419" cy="1138" r="5"/><circle cx="493" cy="1137" r="6"/><circle cx="610" cy="1142" r="4"/><circle cx="679" cy="1136" r="4"/><circle cx="720" cy="1144" r="4"/><circle cx="810" cy="1124" r="6"/><circle cx="922" cy="1187" r="5"/><circle cx="1001" cy="1152" r="5"/><circle cx="1091" cy="1156" r="5"/><circle cx="1121" cy="1137" r="5"/><circle cx="1265" cy="1145" r="5"/><circle cx="1313" cy="1168" r="5"/><circle cx="1378" cy="1186" r="5"/><circle cx="1474" cy="1184" r="5"/><circle cx="1598" cy="1150" r="5"/><circle cx="1660" cy="1133" r="4"/><circle cx="1710" cy="1179" r="5"/><circle cx="1827" cy="1196" r="4"/><circle cx="1849" cy="1147" r="5"/><circle cx="1927" cy="1150" r="5"/><circle cx="2045" cy="1169" r="4"/><circle cx="2084" cy="1131" r="4"/><circle cx="2219" cy="1197" r="6"/><circle cx="2304" cy="1189" r="6"/><circle cx="2336" cy="1140" r="5"/><circle cx="2471" cy="1180" r="5"/><circle cx="2536" cy="1135" r="4"/><circle cx="51" cy="1240" r="4"/><circle cx="90" cy="1273" r="4"/><circle cx="205" cy="1248" r="4"/><circle cx="283" cy="1231" r="4"/><circle cx="374" cy="1231" r="5"/><circle cx="471" cy="1247" r="4"/><circle cx="495" cy="1203" r="6"/><circle cx="626" cy="1212" r="5"/><circle cx="683" cy="1227" r="5"/><circle cx="796" cy="1205" r="5"/><circle cx="809" cy="1256" r="5"/><circle cx="935" cy="1236" r="5"/><circle cx="1020" cy="1223" r="5"/><circle cx="1109" cy="1267" r="6"/><circle cx="1176" cy="1201" r="5"/><circle cx="1273" cy="1219" r="4"/><circle cx="1344" cy="1247" r="6"/><circle cx="1388" cy="1248" r="5"/><circle cx="1493" cy="1207" r="4"/><circle cx="1527" cy="1253" r="5"/><circle cx="1640" cy="1215" r="5"/><circle cx="1710" cy="1267" r="5"/><circle cx="1771" cy="1235" r="4"/><circle cx="1889" cy="1238" r="4"/><circle cx="1955" cy="1253" r="5"/><circle cx="2051" cy="1227" r="5"/><circle cx="2098" cy="1257" r="5"/><circle cx="2227" cy="1249" r="5"/><circle cx="2243" cy="1278" r="5"/><circle cx="2377" cy="1267" r="6"/><circle cx="2421" cy="1209" r="5"/><circle cx="2560" cy="1235" r="5"/><circle cx="-0" cy="1235" r="5"/><circle cx="48" cy="1348" r="6"/><circle cx="119" cy="1309" r="5"/><circle cx="222" cy="1291" r="4"/><circle cx="251" cy="1282" r="5"/><circle cx="370" cy="1296" r="6"/><circle cx="409" cy="1309" r="6"/><circle cx="495" cy="1357" r="5"/><circle cx="609" cy="1335" r="6"/><circle cx="695" cy="1335" r="5"/><circle cx="756" cy="1302" r="6"/><circle cx="859" cy="1310" r="5"/><circle cx="937" cy="1357" r="4"/><circle cx="998" cy="1340" r="6"/><circle cx="1065" cy="1281" r="6"/><circle cx="1138" cy="1323" r="6"/><circle cx="1219" cy="1336" r="5"/><circle cx="1338" cy="1289" r="5"/><circle cx="1364" cy="1345" r="5"/><circle cx="1450" cy="1302" r="5"/><circle cx="1531" cy="1326" r="5"/><circle cx="1616" cy="1342" r="5"/><circle cx="1726" cy="1328" r="4"/><circle cx="1818" cy="1343" r="5"/><circle cx="1864" cy="1326" r="5"/><circle cx="1978" cy="1339" r="5"/><circle cx="2038" cy="1322" r="4"/><circle cx="2102" cy="1283" r="5"/><circle cx="2173" cy="1340" r="6"/><circle cx="2290" cy="1283" r="6"/><circle cx="2382" cy="1342" r="5"/><circle cx="2472" cy="1294" r="4"/><circle cx="2556" cy="1357" r="4"/><circle cx="-4" cy="1357" r="4"/><circle cx="35" cy="1393" r="6"/><circle cx="149" cy="1438" r="5"/><circle cx="149" cy="-2" r="5"/><circle cx="200" cy="1360" r="5"/><circle cx="304" cy="1381" r="6"/><circle cx="380" cy="1399" r="6"/><circle cx="414" cy="1427" r="5"/><circle cx="486" cy="1397" r="4"/><circle cx="625" cy="1404" r="5"/><circle cx="678" cy="1433" r="5"/><circle cx="779" cy="1434" r="4"/><circle cx="876" cy="1395" r="4"/><circle cx="914" cy="1433" r="5"/><circle cx="1011" cy="1375" r="5"/><circle cx="1080" cy="1427" r="5"/><circle cx="1171" cy="1378" r="4"/><circle cx="1240" cy="1399" r="4"/><circle cx="1289" cy="1383" r="4"/><circle cx="1431" cy="1366" r="6"/><circle cx="1457" cy="1400" r="6"/><circle cx="1599" cy="1404" r="5"/><circle cx="1639" cy="1382" r="6"/><circle cx="1695" cy="1408" r="5"/><circle cx="1809" cy="1371" r="5"/><circle cx="1862" cy="1367" r="5"/><circle cx="1922" cy="1408" r="5"/><circle cx="2049" cy="1403" r="5"/><circle cx="2148" cy="1433" r="4"/><circle cx="2233" cy="1407" r="5"/><circle cx="2262" cy="1421" r="5"/><circle cx="2370" cy="1434" r="5"/><circle cx="2470" cy="1383" r="5"/><circle cx="2551" cy="1404" r="5"/><path stroke="#fff" d="M24 11L116 44M24 11L-60 66M24 11L-12 93M24 11L35 -47M24 11L-9 -36M2584 11L2500 66M2584 11L2548 93M2584 11L2551 -36M24 1451L35 1393M24 1451L-9 1404M2584 1451L2551 1404M116 44L65 119M116 44L132 133M116 44L149 -2M116 1484L149 1438M227 73L317 54M227 73L238 153M227 73L313 89M227 73L149 -2M227 1513L149 1438M317 54L377 22M317 54L313 89M317 54L329 141M317 54L304 -59M317 1494L304 1381M377 22L442 63M377 22L313 89M377 22L380 -41M377 22L414 -13M377 1462L380 1399M377 1462L414 1427M442 63L490 18M442 63L464 144M442 63L414 -13M442 1503L414 1427M490 18L495 -83M490 18L414 -13M490 18L486 -43M490 1458L495 1357M490 1458L414 1427M490 1458L486 1397M618 47L644 58M618 47L605 131M618 47L695 95M618 47L625 -36M618 47L678 -7M618 1487L625 1404M618 1487L678 1433M644 58L734 57M644 58L605 131M644 58L695 95M644 58L678 -7M644 1498L678 1433M734 57L695 95M734 57L678 -7M734 57L779 -6M734 1497L678 1433M734 1497L779 1434M876 55L895 40M876 55L864 131M876 55L881 101M876 55L876 -45M876 55L914 -7M876 1495L876 1395M876 1495L914 1433M895 40L987 15M895 40L881 101M895 40L876 -45M895 40L914 -7M895 1480L876 1395M895 1480L914 1433M987 15L998 -100M987 15L914 -7M987 15L1011 -65M987 15L1080 -13M987 1455L998 1340M987 1455L914 1433M987 1455L1011 1375M987 1455L1080 1427M1099 36L1134 50M1099 36L1115 103M1099 36L1080 -13M1099 36L1171 -62M1099 1476L1080 1427M1099 1476L1171 1378M1134 50L1216 2M1134 50L1115 103M1134 50L1220 90M1134 50L1080 -13M1134 1490L1080 1427M1216 2L1220 90M1216 2L1171 -62M1216 2L1240 -41M1216 2L1289 -57M1216 1442L1171 1378M1216 1442L1240 1399M1216 1442L1289 1383M1331 45L1318 112M1331 45L1289 -57M1331 1485L1289 1383M1437 67L1443 19M1437 67L1435 123M1437 67L1468 107M1437 67L1456 163M1437 67L1457 -40M1437 1507L1457 1400M1443 19L1435 123M1443 19L1468 107M1443 19L1431 -74M1443 19L1457 -40M1443 1459L1431 1366M1443 1459L1457 1400M1600 9L1679 23M1600 9L1599 -36M1600 9L1639 -58M1600 1449L1599 1404M1600 1449L1639 1382M1679 23L1740 78M1679 23L1599 -36M1679 23L1639 -58M1679 23L1695 -32M1679 1463L1599 1404M1679 1463L1639 1382M1679 1463L1695 1408M1740 78L1793 38M1740 78L1721 103M1740 78L1836 138M1793 38L1858 26M1793 38L1721 103M1793 38L1836 138M1793 38L1809 -69M1793 1478L1809 1371M1858 26L1896 119M1858 26L1862 -73M1858 26L1922 -32M1858 1466L1862 1367M1858 1466L1922 1408M1975 22L2038 62M1975 22L1952 119M1975 22L2033 102M1975 22L1922 -32M1975 22L2049 -37M1975 1462L1922 1408M1975 1462L2049 1403M2038 62L1952 119M2038 62L2033 102M2038 62L2049 -37M2038 1502L2049 1403M2125 74L2176 11M2125 74L2033 102M2125 74L2133 138M2125 74L2200 88M2125 74L2148 -7M2125 1514L2148 1433M2176 11L2200 88M2176 11L2148 -7M2176 11L2233 -33M2176 11L2262 -19M2176 1451L2148 1433M2176 1451L2233 1407M2176 1451L2262 1421M2284 17L2200 88M2284 17L2252 82M2284 17L2233 -33M2284 17L2262 -19M2284 17L2370 -6M2284 1457L2233 1407M2284 1457L2262 1421M2284 1457L2370 1434M2390 60L2419 67M2390 60L2500 66M2390 60L2368 148M2390 60L2462 92M2390 60L2370 -6M2390 1500L2370 1434M2419 67L2500 66M2419 67L2368 148M2419 67L2462 92M2419 67L2370 -6M2419 1507L2370 1434M2500 66L2462 92M2500 66L2548 93M65 119L132 133M65 119L-12 93M65 119L25 161M65 119L129 166M2625 119L2548 93M132 133L129 166M132 133L178 180M238 153L313 89M238 153L329 141M238 153L178 180M238 153L281 221M313 89L329 141M329 141L281 221M329 141L330 239M464 144L542 147M464 144L410 212M464 144L495 205M542 147L605 131M542 147L495 205M542 147L627 189M605 131L695 95M605 131L627 189M788 158L864 131M788 158L728 205M788 158L822 192M788 158L779 249M864 131L881 101M864 131L822 192M864 131L913 197M881 101L822 192M881 101L913 197M1026 156L1115 103M1026 156L973 229M1026 156L1094 184M1115 103L1159 146M1115 103L1094 184M1159 146L1220 90M1159 146L1094 184M1159 146L1180 204M1220 90L1318 112M1220 90L1280 172M1318 112L1280 172M1435 123L1468 107M1435 123L1409 212M1435 123L1456 163M1468 107L1558 147M1468 107L1456 163M1558 147L1626 102M1558 147L1539 198M1626 102L1721 103M1626 102L1673 183M1721 103L1673 183M1721 103L1699 195M1836 138L1896 119M1836 138L1788 216M1836 138L1881 180M1896 119L1952 119M1896 119L1881 180M1952 119L2033 102M1952 119L1881 180M2033 102L2133 138M2133 138L2200 88M2133 138L2116 201M2133 138L2213 218M2200 88L2252 82M2252 82L2256 175M2252 82L2262 -19M2252 1522L2262 1421M2368 148L2344 169M2368 148L2429 168M2462 92L2548 93M2462 92L2429 168M2548 93L2585 161M-12 93L25 161M25 161L129 166M25 161L-36 227M2585 161L2524 227M129 166L178 180M178 180L281 221M178 180L168 296M281 221L330 239M281 221L289 256M330 239L410 212M330 239L289 256M330 239L378 282M410 212L495 205M410 212L378 282M410 212L476 248M495 205L476 248M495 205L517 266M627 189L669 232M627 189L656 256M669 232L728 205M669 232L581 277M669 232L656 256M669 232L717 320M728 205L656 256M728 205L779 249M822 192L913 197M822 192L779 249M913 197L973 229M913 197L916 275M973 229L916 275M973 229L1035 278M1094 184L1180 204M1094 184L1035 278M1180 204L1280 172M1280 172L1355 221M1355 221L1409 212M1355 221L1357 262M1355 221L1407 299M1409 212L1456 163M1409 212L1357 262M1456 163L1539 198M1539 198L1622 290M1673 183L1699 195M1673 183L1715 246M1699 195L1788 216M1699 195L1622 290M1699 195L1715 246M1788 216L1881 180M1788 216L1715 246M1788 216L1829 300M1881 180L1951 239M1951 239L2026 213M1951 239L1867 309M1951 239L1972 311M2026 213L2116 201M2026 213L2053 307M2116 201L2213 218M2116 201L2136 283M2213 218L2256 175M2213 218L2136 283M2213 218L2206 301M2256 175L2344 169M2256 175L2308 265M2344 169L2429 168M2344 169L2308 265M2344 169L2379 264M2429 168L2444 246M2524 227L2606 302M2524 227L2444 246M2524 227L2499 315M-36 227L46 302M46 302L113 303M46 302L25 350M46 302L93 385M113 303L168 296M113 303L93 385M113 303L208 365M168 296L289 256M168 296L208 365M168 296L209 416M289 256L378 282M289 256L266 357M378 282L372 359M476 248L517 266M476 248L506 323M517 266L581 277M517 266L506 323M581 277L656 256M581 277L506 323M581 277L638 368M656 256L717 320M779 249L850 300M779 249L717 320M850 300L916 275M850 300L758 365M850 300L822 364M850 300L934 368M916 275L934 368M916 275L990 345M1035 278L1082 308M1035 278L990 345M1035 278L1071 335M1082 308L1154 318M1082 308L990 345M1082 308L1071 335M1154 318L1071 335M1154 318L1191 353M1154 318L1215 357M1271 301L1191 353M1271 301L1215 357M1271 301L1290 368M1357 262L1407 299M1357 262L1443 303M1407 299L1443 303M1407 299L1420 347M1407 299L1441 375M1443 303L1522 315M1443 303L1420 347M1443 303L1441 375M1522 315L1420 347M1522 315L1592 325M1522 315L1497 407M1622 290L1715 246M1622 290L1592 325M1622 290L1658 323M1715 246L1658 323M1829 300L1867 309M1829 300L1774 326M1867 309L1972 311M1867 309L1774 326M1867 309L1893 382M1972 311L2053 307M1972 311L1981 339M2053 307L2136 283M2053 307L1981 339M2053 307L2056 391M2136 283L2206 301M2136 283L2167 324M2206 301L2308 265M2206 301L2153 375M2206 301L2167 324M2308 265L2379 264M2308 265L2316 323M2379 264L2444 246M2379 264L2316 323M2379 264L2366 366M2444 246L2499 315M2444 246L2497 343M2499 315L2585 350M2499 315L2418 371M2499 315L2497 343M-61 315L25 350M25 350L93 385M25 350L-63 343M25 350L26 442M2585 350L2497 343M93 385L26 442M93 385L84 464M208 365L266 357M208 365L209 416M208 365L304 408M266 357L372 359M266 357L209 416M266 357L304 408M372 359L439 398M372 359L304 408M372 359L374 405M439 398L374 405M439 398L461 468M439 398L495 450M439 398L469 486M638 368L717 320M638 368L582 469M638 368L695 454M717 320L758 365M758 365L822 364M758 365L695 454M758 365L755 428M822 364L934 368M822 364L755 428M822 364L848 457M934 368L990 345M934 368L942 477M990 345L1071 335M1191 353L1215 357M1191 353L1203 424M1215 357L1290 368M1215 357L1203 424M1290 368L1294 424M1420 347L1441 375M1420 347L1412 430M1441 375L1412 430M1441 375L1497 407M1592 325L1658 323M1592 325L1543 434M1658 323L1692 392M1658 323L1684 401M1692 392L1774 326M1692 392L1684 401M1692 392L1771 484M1893 382L1981 339M1893 382L1826 441M1893 382L1913 454M1981 339L2056 391M1981 339L2010 419M2056 391L2010 419M2056 391L2088 405M2153 375L2167 324M2153 375L2088 405M2153 375L2178 469M2153 375L2173 481M2316 323L2366 366M2366 366L2418 371M2366 366L2316 465M2366 366L2404 430M2418 371L2497 343M2418 371L2404 430M2418 371L2501 405M2497 343L2501 405M26 442L84 464M26 442L14 514M26 442L-2 498M2586 442L2558 498M84 464L14 514M84 464L110 501M84 464L-2 498M2644 464L2558 498M209 416L304 408M209 416L213 525M304 408L374 405M374 405L392 505M461 468L495 450M461 468L392 505M461 468L469 486M461 468L506 534M495 450L469 486M495 450L506 534M495 450L578 498M582 469L578 498M695 454L755 428M695 454L717 535M755 428L848 457M755 428L764 543M848 457L942 477M848 457L827 550M848 457L941 496M942 477L1027 448M942 477L941 496M942 477L956 570M1027 448L1051 477M1027 448L1120 420M1027 448L941 496M1027 448L1058 486M1051 477L1120 420M1051 477L941 496M1051 477L1035 544M1051 477L1058 486M1120 420L1203 424M1120 420L1058 486M1120 420L1187 497M1203 424L1294 424M1203 424L1187 497M1294 424L1412 430M1294 424L1187 497M1294 424L1327 482M1412 430L1497 407M1412 430L1327 482M1497 407L1543 434M1497 407L1595 481M1543 434L1635 469M1543 434L1595 481M1635 469L1684 401M1635 469L1595 481M1635 469L1668 546M1635 469L1631 566M1684 401L1771 484M1826 441L1913 454M1826 441L1771 484M1913 454L1994 480M1913 454L1948 519M1994 480L2010 419M1994 480L1948 519M1994 480L2050 511M1994 480L1952 562M2010 419L2088 405M2010 419L2050 511M2088 405L2178 469M2088 405L2147 481M2178 469L2147 481M2178 469L2173 481M2316 465L2331 472M2316 465L2404 430M2316 465L2273 542M2316 465L2336 505M2331 472L2404 430M2331 472L2273 542M2331 472L2336 505M2331 472L2444 497M2404 430L2444 497M14 514L-2 498M14 514L20 600M14 514L-13 617M2574 514L2558 498M2574 514L2547 617M110 501L136 614M213 525L286 557M213 525L136 614M213 525L227 586M213 525L284 561M286 557L227 586M286 557L284 561M286 557L325 583M286 557L293 645M392 505L469 486M392 505L325 583M469 486L506 534M506 534L578 498M506 534L516 588M578 498L516 588M717 535L764 543M717 535L827 550M717 535L698 616M717 535L765 609M764 543L827 550M764 543L765 609M827 550L765 609M827 550L872 637M941 496L956 570M1035 544L1058 486M1035 544L956 570M1035 544L998 598M1035 544L1111 569M1058 486L1111 569M1187 497L1207 549M1207 549L1162 638M1207 549L1205 616M1327 482L1398 541M1327 482L1306 584M1398 541L1440 531M1398 541L1306 584M1398 541L1438 560M1398 541L1481 568M1440 531L1438 560M1440 531L1481 568M1595 481L1668 546M1595 481L1631 566M1668 546L1739 556M1668 546L1631 566M1668 546L1698 587M1739 556L1771 484M1739 556L1698 587M1771 484L1698 587M1891 546L1948 519M1891 546L1835 622M1891 546L1890 628M1891 546L1952 562M1948 519L1952 562M1948 519L2011 581M2050 511L2147 481M2050 511L2011 581M2147 481L2173 481M2173 481L2273 542M2173 481L2173 614M2273 542L2336 505M2336 505L2444 497M2336 505L2387 571M2444 497L2387 571M2444 497L2429 610M2558 498L2580 600M-2 498L20 600M20 600L-13 617M2580 600L2547 617M136 614L227 586M136 614L141 711M136 614L164 739M227 586L284 561M227 586L293 645M284 561L325 583M284 561L293 645M325 583L293 645M454 611L516 588M454 611L472 672M516 588L609 628M516 588L472 672M609 628L698 616M609 628L552 707M609 628L615 720M609 628L675 678M698 616L765 609M698 616L675 678M698 616L749 654M765 609L749 654M872 637L956 570M872 637L813 684M872 637L934 681M872 637L857 751M956 570L998 598M998 598L934 681M998 598L1062 642M1111 569L1162 638M1111 569L1062 642M1111 569L1152 641M1162 638L1205 616M1162 638L1152 641M1162 638L1221 651M1205 616L1306 584M1205 616L1152 641M1205 616L1221 651M1306 584L1221 651M1438 560L1481 568M1438 560L1439 649M1481 568L1439 649M1481 568L1488 674M1554 630L1488 674M1554 630L1587 687M1631 566L1698 587M1698 587L1649 675M1835 622L1890 628M1835 622L1886 653M1835 622L1925 661M1890 628L1952 562M1890 628L1886 653M1890 628L1925 661M1952 562L2011 581M2011 581L2105 621M2011 581L2031 696M2105 621L2173 614M2105 621L2031 696M2105 621L2130 659M2105 621L2182 680M2173 614L2130 659M2173 614L2182 680M2173 614L2258 662M2315 634L2387 571M2315 634L2258 662M2315 634L2344 717M2315 634L2401 667M2387 571L2429 610M2429 610L2547 617M2429 610L2401 667M2547 617L2567 704M2547 617L2493 718M-13 617L7 704M7 704L-67 718M7 704L35 736M7 704L100 757M7 704L-44 767M2567 704L2493 718M2567 704L2516 767M141 711L213 709M141 711L35 736M141 711L100 757M141 711L164 739M213 709L164 739M213 709L316 746M293 645L354 716M354 716L316 746M354 716L356 763M354 716L310 819M472 672L552 707M472 672L468 794M472 672L487 754M552 707L615 720M552 707L487 754M552 707L618 770M615 720L675 678M615 720L618 770M675 678L749 654M675 678L618 770M749 654L813 684M813 684L857 751M934 681L1001 697M934 681L857 751M934 681L953 778M1001 697L1062 642M1001 697L1038 755M1001 697L1078 757M1062 642L1152 641M1152 641L1221 651M1341 696L1439 649M1341 696L1254 766M1341 696L1345 744M1341 696L1371 722M1439 649L1488 674M1439 649L1371 722M1488 674L1587 687M1488 674L1481 768M1587 687L1649 675M1587 687L1607 733M1649 675L1709 711M1649 675L1607 733M1649 675L1693 729M1709 711L1784 717M1709 711L1693 729M1709 711L1792 731M1784 717L1693 729M1784 717L1792 731M1784 717L1774 816M1886 653L1925 661M1886 653L1885 734M1886 653L1931 733M1925 661L1885 734M1925 661L1931 733M2031 696L2130 659M2031 696L2021 737M2130 659L2182 680M2182 680L2258 662M2182 680L2262 724M2258 662L2262 724M2344 717L2401 667M2344 717L2262 724M2344 717L2352 739M2401 667L2352 739M2401 667L2439 767M2493 718L2439 767M2493 718L2516 767M35 736L100 757M35 736L-44 767M35 736L-1 845M2595 736L2516 767M2595 736L2559 845M100 757L164 739M100 757L111 872M164 739L215 840M316 746L356 763M316 746L310 819M316 746L326 839M356 763L310 819M356 763L326 839M468 794L487 754M468 794L420 859M468 794L543 850M487 754L543 850M618 770L707 797M618 770L590 840M707 797L739 799M707 797L707 869M707 797L734 802M707 797L673 889M739 799L707 869M739 799L734 802M857 751L953 778M953 778L1038 755M953 778L960 818M953 778L1007 844M1038 755L1078 757M1038 755L960 818M1038 755L1040 856M1078 757L1141 794M1078 757L1174 809M1141 794L1174 809M1254 766L1345 744M1254 766L1371 722M1254 766L1174 809M1254 766L1268 806M1345 744L1371 722M1345 744L1268 806M1371 722L1481 768M1481 768L1563 787M1481 768L1414 843M1481 768L1510 812M1563 787L1607 733M1563 787L1510 812M1563 787L1597 810M1563 787L1608 860M1607 733L1693 729M1607 733L1597 810M1693 729L1792 731M1792 731L1885 734M1792 731L1774 816M1885 734L1931 733M1885 734L1864 827M1931 733L2021 737M1931 733L1978 816M2021 737L2127 786M2021 737L1978 816M2021 737L2059 823M2127 786L2227 793M2127 786L2059 823M2127 786L2159 836M2227 793L2262 724M2227 793L2159 836M2227 793L2227 849M2227 793L2278 879M2262 724L2352 739M2352 739L2439 767M2352 739L2436 810M2439 767L2516 767M2439 767L2436 810M2516 767L2559 845M4 865L111 872M4 865L-1 845M4 865L-17 953M2564 865L2559 845M2564 865L2543 953M111 872L73 940M215 840L310 819M310 819L326 839M326 839L420 859M326 839L309 930M420 859L448 928M543 850L590 840M543 850L582 904M590 840L582 904M590 840L673 889M707 869L734 802M707 869L673 889M707 869L796 925M880 870L960 818M880 870L796 925M880 870L849 958M880 870L945 942M960 818L1007 844M960 818L1040 856M1007 844L1040 856M1007 844L1003 920M1007 844L1060 907M1040 856L1003 920M1040 856L1060 907M1174 809L1268 806M1268 806L1319 879M1268 806L1219 908M1319 879L1414 843M1319 879L1219 908M1319 879L1351 920M1319 879L1381 924M1414 843L1510 812M1414 843L1351 920M1414 843L1381 924M1510 812L1597 810M1510 812L1608 860M1597 810L1608 860M1608 860L1594 960M1608 860L1613 934M1743 843L1774 816M1743 843L1786 882M1774 816L1864 827M1774 816L1786 882M1864 827L1978 816M1864 827L1867 899M1978 816L2059 823M1978 816L1983 903M2059 823L2159 836M2059 823L1983 903M2159 836L2227 849M2159 836L2155 897M2227 849L2278 879M2227 849L2155 897M2278 879L2379 873M2278 879L2218 956M2278 879L2292 956M2379 873L2436 810M2379 873L2385 918M2379 873L2461 946M2379 873L2434 971M73 940L87 958M73 940L160 957M73 940L-17 953M73 940L39 987M2633 940L2543 953M87 958L160 957M87 958L39 987M87 958L155 999M160 957L155 999M160 957L202 1009M160 957L246 1000M309 930L346 953M309 930L246 1000M309 930L358 1009M346 953L448 928M346 953L358 1009M346 953L443 969M448 928L542 943M448 928L443 969M448 928L511 982M542 943L582 904M542 943L511 982M542 943L617 978M542 943L564 1047M582 904L673 889M582 904L617 978M673 889L617 978M796 925L849 958M796 925L781 980M849 958L945 942M849 958L781 980M849 958L836 1040M945 942L1003 920M945 942L934 1024M945 942L1033 1007M1003 920L1060 907M1003 920L1070 972M1060 907L1139 929M1060 907L1070 972M1139 929L1219 908M1139 929L1070 972M1139 929L1149 984M1219 908L1149 984M1219 908L1238 1001M1351 920L1381 924M1351 920L1297 1000M1351 920L1413 1035M1516 959L1594 960M1516 959L1613 934M1516 959L1475 1027M1516 959L1574 971M1594 960L1613 934M1594 960L1574 971M1594 960L1633 1005M1613 934L1574 971M1613 934L1633 1005M1716 956L1786 882M1716 956L1633 1005M1716 956L1735 993M1716 956L1794 965M1716 956L1731 1075M1786 882L1867 899M1786 882L1794 965M1867 899L1983 903M1867 899L1794 965M1867 899L1882 990M1983 903L2038 943M1983 903L2008 972M2038 943L2008 972M2155 897L2218 956M2155 897L2156 979M2155 897L2175 995M2218 956L2292 956M2218 956L2156 979M2218 956L2175 995M2292 956L2385 918M2292 956L2313 1022M2292 956L2375 1023M2385 918L2461 946M2385 918L2434 971M2461 946L2543 953M2461 946L2434 971M2543 953L2599 987M2543 953L2498 1038M-17 953L39 987M39 987L78 1064M155 999L202 1009M155 999L78 1064M155 999L180 1076M202 1009L246 1000M202 1009L139 1094M202 1009L180 1076M246 1000L317 1075M358 1009L443 969M358 1009L317 1075M358 1009L353 1064M443 969L511 982M443 969L448 1052M511 982L564 1047M617 978L696 1018M617 978L564 1047M696 1018L781 980M696 1018L685 1064M696 1018L752 1063M781 980L836 1040M836 1040L752 1063M836 1040L861 1105M836 1040L810 1124M934 1024L1033 1007M934 1024L861 1105M934 1024L941 1079M934 1024L1001 1052M1033 1007L1070 972M1033 1007L1001 1052M1033 1007L1075 1084M1070 972L1149 984M1149 984L1238 1001M1238 1001L1297 1000M1238 1001L1267 1087M1238 1001L1293 1068M1297 1000L1267 1087M1297 1000L1293 1068M1297 1000L1400 1052M1413 1035L1475 1027M1413 1035L1400 1052M1413 1035L1471 1078M1475 1027L1400 1052M1475 1027L1471 1078M1475 1027L1567 1090M1574 971L1633 1005M1574 971L1604 1081M1633 1005L1604 1081M1735 993L1794 965M1735 993L1731 1075M1735 993L1825 1072M1794 965L1882 990M1882 990L1926 1014M1882 990L1825 1072M1882 990L1896 1049M1926 1014L2008 972M1926 1014L1896 1049M1926 1014L1995 1053M2008 972L1995 1053M2156 979L2175 995M2156 979L2124 1060M2156 979L2166 1054M2175 995L2124 1060M2175 995L2166 1054M2313 1022L2375 1023M2313 1022L2298 1094M2313 1022L2367 1076M2375 1023L2434 971M2375 1023L2298 1094M2375 1023L2367 1076M2434 971L2498 1038M2498 1038L2479 1088M2498 1038L2485 1072M78 1064L139 1094M78 1064L41 1138M78 1064L106 1150M139 1094L180 1076M139 1094L106 1150M180 1076L106 1150M317 1075L353 1064M317 1075L263 1133M353 1064L448 1052M353 1064L399 1139M353 1064L419 1138M448 1052L399 1139M448 1052L419 1138M448 1052L493 1137M547 1077L564 1047M547 1077L493 1137M547 1077L610 1142M685 1064L752 1063M685 1064L610 1142M685 1064L679 1136M685 1064L720 1144M752 1063L810 1124M861 1105L941 1079M861 1105L810 1124M861 1105L922 1187M941 1079L1001 1052M941 1079L922 1187M941 1079L1001 1152M1001 1052L1075 1084M1001 1052L1001 1152M1075 1084L1136 1100M1075 1084L1091 1156M1075 1084L1121 1137M1136 1100L1091 1156M1136 1100L1121 1137M1267 1087L1293 1068M1267 1087L1265 1145M1267 1087L1313 1168M1293 1068L1265 1145M1400 1052L1471 1078M1471 1078L1567 1090M1471 1078L1474 1184M1567 1090L1604 1081M1567 1090L1598 1150M1604 1081L1598 1150M1604 1081L1660 1133M1731 1075L1825 1072M1731 1075L1660 1133M1731 1075L1710 1179M1825 1072L1896 1049M1825 1072L1849 1147M1896 1049L1995 1053M1896 1049L1927 1150M1995 1053L2008 1116M1995 1053L1927 1150M2008 1116L1927 1150M2008 1116L2045 1169M2008 1116L2084 1131M2124 1060L2166 1054M2124 1060L2084 1131M2166 1054L2084 1131M2298 1094L2367 1076M2298 1094L2304 1189M2298 1094L2336 1140M2367 1076L2479 1088M2367 1076L2336 1140M2479 1088L2485 1072M2479 1088L2471 1180M2479 1088L2536 1135M2485 1072L2471 1180M2485 1072L2536 1135M41 1138L106 1150M41 1138L-24 1135M41 1138L51 1240M41 1138L-0 1235M2601 1138L2536 1135M2601 1138L2560 1235M106 1150L51 1240M219 1183L263 1133M219 1183L205 1248M219 1183L283 1231M219 1183L222 1291M219 1183L251 1282M399 1139L419 1138M399 1139L493 1137M399 1139L374 1231M419 1138L493 1137M419 1138L495 1203M493 1137L495 1203M610 1142L679 1136M610 1142L626 1212M679 1136L720 1144M679 1136L626 1212M679 1136L683 1227M720 1144L810 1124M720 1144L683 1227M720 1144L796 1205M810 1124L796 1205M922 1187L1001 1152M922 1187L935 1236M922 1187L1020 1223M1001 1152L1091 1156M1001 1152L1020 1223M1091 1156L1121 1137M1091 1156L1176 1201M1121 1137L1176 1201M1265 1145L1313 1168M1265 1145L1176 1201M1265 1145L1273 1219M1313 1168L1378 1186M1313 1168L1273 1219M1313 1168L1344 1247M1378 1186L1474 1184M1378 1186L1344 1247M1378 1186L1388 1248M1378 1186L1338 1289M1474 1184L1493 1207M1474 1184L1527 1253M1598 1150L1660 1133M1598 1150L1640 1215M1660 1133L1710 1179M1660 1133L1640 1215M1710 1179L1640 1215M1710 1179L1710 1267M1710 1179L1771 1235M1827 1196L1849 1147M1827 1196L1771 1235M1827 1196L1889 1238M1849 1147L1927 1150M1849 1147L1889 1238M1927 1150L1889 1238M2045 1169L2084 1131M2045 1169L2051 1227M2045 1169L2098 1257M2219 1197L2304 1189M2219 1197L2227 1249M2219 1197L2243 1278M2219 1197L2290 1283M2304 1189L2336 1140M2304 1189L2227 1249M2304 1189L2290 1283M2336 1140L2421 1209M2471 1180L2536 1135M2471 1180L2421 1209M2471 1180L2560 1235M2536 1135L2560 1235M51 1240L90 1273M51 1240L-0 1235M51 1240L119 1309M2611 1240L2560 1235M90 1273L-0 1235M90 1273L48 1348M90 1273L119 1309M2650 1273L2560 1235M205 1248L283 1231M205 1248L222 1291M205 1248L251 1282M283 1231L374 1231M283 1231L222 1291M283 1231L251 1282M374 1231L471 1247M374 1231L370 1296M374 1231L409 1309M471 1247L495 1203M471 1247L370 1296M471 1247L409 1309M495 1203L626 1212M626 1212L683 1227M626 1212L609 1335M683 1227L695 1335M683 1227L756 1302M796 1205L809 1256M796 1205L756 1302M809 1256L756 1302M809 1256L859 1310M935 1236L1020 1223M935 1236L859 1310M935 1236L998 1340M1020 1223L1109 1267M1020 1223L1065 1281M1109 1267L1176 1201M1109 1267L1065 1281M1109 1267L1138 1323M1176 1201L1273 1219M1273 1219L1344 1247M1273 1219L1338 1289M1344 1247L1388 1248M1344 1247L1338 1289M1388 1248L1338 1289M1388 1248L1364 1345M1388 1248L1450 1302M1493 1207L1527 1253M1527 1253L1640 1215M1527 1253L1450 1302M1527 1253L1531 1326M1640 1215L1710 1267M1710 1267L1771 1235M1710 1267L1726 1328M1889 1238L1955 1253M1889 1238L1864 1326M1955 1253L2051 1227M1955 1253L1978 1339M2051 1227L2098 1257M2051 1227L2038 1322M2051 1227L2102 1283M2098 1257L2038 1322M2098 1257L2102 1283M2227 1249L2243 1278M2227 1249L2173 1340M2227 1249L2290 1283M2243 1278L2377 1267M2243 1278L2173 1340M2243 1278L2290 1283M2377 1267L2421 1209M2377 1267L2290 1283M2377 1267L2382 1342M2377 1267L2472 1294M2421 1209L2472 1294M48 1348L119 1309M48 1348L-4 1357M48 1348L35 1393M48 1348L-9 1404M2608 1348L2556 1357M2608 1348L2551 1404M119 1309L35 1393M119 1309L200 1360M222 1291L251 1282M222 1291L200 1360M251 1282L200 1360M370 1296L409 1309M370 1296L304 1381M370 1296L380 1399M409 1309L495 1357M409 1309L380 1399M495 1357L609 1335M495 1357L486 1397M609 1335L695 1335M609 1335L625 1404M695 1335L756 1302M695 1335L625 1404M695 1335L678 1433M756 1302L859 1310M859 1310L937 1357M859 1310L876 1395M937 1357L998 1340M937 1357L876 1395M937 1357L914 1433M937 1357L1011 1375M998 1340L1065 1281M998 1340L1011 1375M1065 1281L1138 1323M1065 1281L1011 1375M1138 1323L1219 1336M1138 1323L1080 1427M1138 1323L1171 1378M1219 1336L1171 1378M1219 1336L1240 1399M1219 1336L1289 1383M1338 1289L1364 1345M1364 1345L1289 1383M1364 1345L1431 1366M1364 1345L1457 1400M1450 1302L1531 1326M1450 1302L1431 1366M1450 1302L1457 1400M1531 1326L1616 1342M1531 1326L1431 1366M1616 1342L1599 1404M1616 1342L1639 1382M1616 1342L1695 1408M1726 1328L1818 1343M1726 1328L1695 1408M1726 1328L1809 1371M1818 1343L1864 1326M1818 1343L1809 1371M1818 1343L1862 1367M1864 1326L1809 1371M1864 1326L1862 1367M1864 1326L1922 1408M1978 1339L2038 1322M1978 1339L1922 1408M1978 1339L2049 1403M2038 1322L2102 1283M2038 1322L2049 1403M2102 1283L2173 1340M2173 1340L2148 1433M2173 1340L2233 1407M2382 1342L2472 1294M2382 1342L2370 1434M2382 1342L2470 1383M2472 1294L2556 1357M2472 1294L2470 1383M2556 1357L2595 1393M2556 1357L2470 1383M2556 1357L2551 1404M-4 1357L35 1393M35 1393L-9 1404M2595 1393L2551 1404M149 1438L200 1360M200 1360L304 1381M304 1381L380 1399M380 1399L414 1427M414 1427L486 1397M625 1404L678 1433M876 1395L914 1433M1011 1375L1080 1427M1171 1378L1240 1399M1240 1399L1289 1383M1431 1366L1457 1400M1599 1404L1639 1382M1599 1404L1695 1408M1639 1382L1695 1408M1809 1371L1862 1367M1862 1367L1922 1408M2049 1403L2148 1433M2148 1433L2233 1407M2233 1407L2262 1421M2370 1434L2470 1383M2470 1383L2551 1404"/></svg>