<svg xmlns="http://www.w3.org/2000/svg" width="2560" height="1440" fill="#fff"><circle cx="66" cy="30" r="5"/><circle cx="120" cy="11" r="5"/><circle cx="170" cy="32" r="5"/><circle cx="283" cy="46" r="5"/><circle cx="374" cy="63" r="5"/><circle cx="461" cy="65" r="6"/><circle cx="502" cy="40" r="5"/><circle cx="618" cy="54" r="6"/><circle cx="676" cy="9" r="5"/><circle cx="796" cy="4" r="5"/><circle cx="796" cy="1444" r="5"/><circle cx="836" cy="52" r="5"/><circle cx="897" cy="9" r="5"/><circle cx="1019" cy="57" r="5"/><circle cx="1091" cy="69" r="5"/><circle cx="1146" cy="24" r="5"/><circle cx="1217" cy="76" r="6"/><circle cx="1337" cy="27" r="5"/><circle cx="1391" cy="24" r="5"/><circle cx="1487" cy="60" r="5"/><circle cx="1525" cy="4" r="4"/><circle cx="1675" cy="35" r="5"/><circle cx="1683" cy="58" r="4"/><circle cx="1778" cy="52" r="4"/><circle cx="1843" cy="19" r="5"/><circle cx="1934" cy="8" r="6"/><circle cx="2066" cy="11" r="5"/><circle cx="2156" cy="65" r="5"/><circle cx="2217" cy="18" r="6"/><circle cx="2315" cy="68" r="6"/><circle cx="2371" cy="43" r="5"/><circle cx="2454" cy="70" r="5"/><circle cx="2554" cy="23" r="5"/><circle cx="26" cy="101" r="4"/><circle cx="149" cy="130" r="5"/><circle cx="239" cy="106" r="6"/><circle cx="279" cy="127" r="4"/><circle cx="338" cy="142" r="4"/><circle cx="434" cy="91" r="5"/><circle cx="490" cy="147" r="6"/><circle cx="597" cy="139" r="5"/><circle cx="689" cy="89" r="5"/><circle cx="768" cy="150" r="5"/><circle cx="834" cy="159" r="6"/><circle cx="899" cy="147" r="4"/><circle cx="1034" cy="135" r="4"/><circle cx="1054" cy="157" r="4"/><circle cx="1127" cy="134" r="6"/><circle cx="1255" cy="147" r="5"/><circle cx="1302" cy="115" r="4"/><circle cx="1424" cy="156" r="4"/><circle cx="1452" cy="152" r="5"/><circle cx="1565" cy="117" r="4"/><circle cx="1631" cy="84" r="4"/><circle cx="1724" cy="81" r="5"/><circle cx="1806" cy="117" r="5"/><circle cx="1852" cy="101" r="5"/><circle cx="1921" cy="100" r="5"/><circle cx="2026" cy="90" r="4"/><circle cx="2089" cy="93" r="5"/><circle cx="2178" cy="128" r="4"/><circle cx="2281" cy="152" r="5"/><circle cx="2360" cy="103" r="5"/><circle cx="2410" cy="94" r="5"/><circle cx="2488" cy="127" r="6"/><circle cx="49" cy="198" r="6"/><circle cx="120" cy="233" r="6"/><circle cx="224" cy="190" r="6"/><circle cx="252" cy="209" r="4"/><circle cx="369" cy="166" r="6"/><circle cx="455" cy="160" r="4"/><circle cx="526" cy="187" r="5"/><circle cx="616" cy="214" r="4"/><circle cx="648" cy="199" r="5"/><circle cx="723" cy="191" r="5"/><circle cx="822" cy="198" r="4"/><circle cx="884" cy="176" r="5"/><circle cx="977" cy="201" r="4"/><circle cx="1045" cy="239" r="5"/><circle cx="1147" cy="207" r="4"/><circle cx="1247" cy="185" r="5"/><circle cx="1296" cy="235" r="6"/><circle cx="1380" cy="172" r="4"/><circle cx="1488" cy="197" r="4"/><circle cx="1547" cy="168" r="5"/><circle cx="1663" cy="180" r="6"/><circle cx="1738" cy="193" r="5"/><circle cx="1801" cy="174" r="4"/><circle cx="1880" cy="162" r="5"/><circle cx="1994" cy="188" r="5"/><circle cx="2009" cy="224" r="5"/><circle cx="2087" cy="166" r="4"/><circle cx="2178" cy="215" r="5"/><circle cx="2250" cy="172" r="5"/><circle cx="2394" cy="171" r="5"/><circle cx="2448" cy="194" r="5"/><circle cx="2486" cy="209" r="5"/><circle cx="16" cy="272" r="5"/><circle cx="159" cy="318" r="4"/><circle cx="176" cy="255" r="6"/><circle cx="242" cy="268" r="6"/><circle cx="322" cy="287" r="6"/><circle cx="480" cy="295" r="6"/><circle cx="514" cy="278" r="5"/><circle cx="577" cy="276" r="6"/><circle cx="718" cy="263" r="4"/><circle cx="733" cy="291" r="5"/><circle cx="827" cy="267" r="4"/><circle cx="927" cy="270" r="5"/><circle cx="998" cy="304" r="5"/><circle cx="1052" cy="316" r="5"/><circle cx="1143" cy="289" r="5"/><circle cx="1204" cy="266" r="5"/><circle cx="1296" cy="248" r="5"/><circle cx="1415" cy="276" r="5"/><circle cx="1482" cy="294" r="6"/><circle cx="1560" cy="282" r="6"/><circle cx="1666" cy="274" r="6"/><circle cx="1759" cy="266" r="5"/><circle cx="1772" cy="289" r="5"/><circle cx="1920" cy="291" r="5"/><circle cx="1949" cy="273" r="5"/><circle cx="2004" cy="246" r="5"/><circle cx="2117" cy="317" r="5"/><circle cx="2216" cy="261" r="6"/><circle cx="2276" cy="291" r="4"/><circle cx="2353" cy="264" r="4"/><circle cx="2405" cy="279" r="4"/><circle cx="2529" cy="245" r="4"/><circle cx="2" cy="364" r="5"/><circle cx="2562" cy="364" r="5"/><circle cx="158" cy="370" r="5"/><circle cx="195" cy="343" r="5"/><circle cx="299" cy="358" r="5"/><circle cx="345" cy="352" r="4"/><circle cx="474" cy="366" r="5"/><circle cx="514" cy="389" r="5"/><circle cx="593" cy="356" r="5"/><circle cx="714" cy="360" r="4"/><circle cx="780" cy="328" r="4"/><circle cx="878" cy="335" r="5"/><circle cx="919" cy="378" r="5"/><circle cx="974" cy="369" r="5"/><circle cx="1104" cy="381" r="5"/><circle cx="1197" cy="398" r="6"/><circle cx="1221" cy="346" r="4"/><circle cx="1336" cy="329" r="5"/><circle cx="1400" cy="347" r="5"/><circle cx="1497" cy="371" r="6"/><circle cx="1547" cy="322" r="5"/><circle cx="1655" cy="389" r="4"/><circle cx="1691" cy="349" r="5"/><circle cx="1836" cy="384" r="5"/><circle cx="1849" cy="334" r="6"/><circle cx="1941" cy="360" r="4"/><circle cx="2041" cy="342" r="6"/><circle cx="2087" cy="364" r="5"/><circle cx="2185" cy="368" r="5"/><circle cx="2273" cy="336" r="5"/><circle cx="2388" cy="386" r="5"/><circle cx="2441" cy="361" r="5"/><circle cx="2529" cy="398" r="5"/><circle cx="19" cy="414" r="5"/><circle cx="105" cy="471" r="5"/><circle cx="177" cy="430" r="5"/><circle cx="307" cy="407" r="5"/><circle cx="391" cy="439" r="6"/><circle cx="406" cy="412" r="6"/><circle cx="542" cy="401" r="6"/><circle cx="638" cy="448" r="5"/><circle cx="697" cy="462" r="5"/><circle cx="735" cy="454" r="6"/><circle cx="845" cy="447" r="5"/><circle cx="883" cy="421" r="6"/><circle cx="1029" cy="435" r="6"/><circle cx="1046" cy="431" r="6"/><circle cx="1143" cy="439" r="4"/><circle cx="1224" cy="434" r="4"/><circle cx="1304" cy="421" r="5"/><circle cx="1422" cy="478" r="5"/><circle cx="1451" cy="437" r="6"/><circle cx="1576" cy="429" r="6"/><circle cx="1677" cy="419" r="5"/><circle cx="1701" cy="410" r="5"/><circle cx="1832" cy="466" r="6"/><circle cx="1901" cy="465" r="5"/><circle cx="1932" cy="446" r="4"/><circle cx="2074" cy="459" r="5"/><circle cx="2151" cy="438" r="5"/><circle cx="2179" cy="407" r="4"/><circle cx="2245" cy="454" r="4"/><circle cx="2355" cy="443" r="6"/><circle cx="2480" cy="427" r="5"/><circle cx="2485" cy="433" r="5"/><circle cx="17" cy="500" r="5"/><circle cx="145" cy="509" r="4"/><circle cx="167" cy="534" r="5"/><circle cx="286" cy="482" r="4"/><circle cx="378" cy="481" r="4"/><circle cx="442" cy="525" r="6"/><circle cx="546" cy="538" r="5"/><circle cx="568" cy="532" r="5"/><circle cx="647" cy="486" r="5"/><circle cx="726" cy="514" r="5"/><circle cx="864" cy="486" r="6"/><circle cx="902" cy="483" r="5"/><circle cx="1027" cy="546" r="6"/><circle cx="1095" cy="498" r="5"/><circle cx="1137" cy="496" r="6"/><circle cx="1237" cy="508" r="5"/><circle cx="1355" cy="530" r="5"/><circle cx="1401" cy="506" r="4"/><circle cx="1449" cy="549" r="4"/><circle cx="1580" cy="539" r="5"/><circle cx="1639" cy="506" r="4"/><circle cx="1720" cy="519" r="5"/><circle cx="1832" cy="526" r="5"/><circle cx="1851" cy="500" r="5"/><circle cx="1963" cy="554" r="5"/><circle cx="2044" cy="516" r="5"/><circle cx="2153" cy="535" r="6"/><circle cx="2215" cy="513" r="5"/><circle cx="2269" cy="503" r="4"/><circle cx="2377" cy="514" r="4"/><circle cx="2441" cy="558" r="6"/><circle cx="2496" cy="543" r="5"/><circle cx="64" cy="635" r="4"/><circle cx="124" cy="622" r="4"/><circle cx="205" cy="608" r="6"/><circle cx="303" cy="631" r="4"/><circle cx="322" cy="629" r="4"/><circle cx="432" cy="623" r="5"/><circle cx="556" cy="626" r="6"/><circle cx="631" cy="610" r="6"/><circle cx="669" cy="593" r="5"/><circle cx="794" cy="623" r="5"/><circle cx="839" cy="613" r="5"/><circle cx="948" cy="638" r="5"/><circle cx="972" cy="627" r="5"/><circle cx="1093" cy="639" r="4"/><circle cx="1129" cy="628" r="5"/><circle cx="1243" cy="611" r="6"/><circle cx="1314" cy="588" r="5"/><circle cx="1404" cy="580" r="5"/><circle cx="1441" cy="592" r="6"/><circle cx="1581" cy="586" r="6"/><circle cx="1675" cy="639" r="4"/><circle cx="1716" cy="637" r="4"/><circle cx="1831" cy="584" r="6"/><circle cx="1886" cy="595" r="4"/><circle cx="1966" cy="619" r="5"/><circle cx="2073" cy="621" r="6"/><circle cx="2093" cy="627" r="5"/><circle cx="2181" cy="611" r="6"/><circle cx="2297" cy="622" r="5"/><circle cx="2327" cy="573" r="5"/><circle cx="2418" cy="597" r="5"/><circle cx="2507" cy="618" r="5"/><circle cx="74" cy="647" r="5"/><circle cx="91" cy="685" r="4"/><circle cx="178" cy="717" r="5"/><circle cx="278" cy="675" r="6"/><circle cx="366" cy="654" r="5"/><circle cx="427" cy="678" r="5"/><circle cx="533" cy="716" r="5"/><circle cx="632" cy="718" r="4"/><circle cx="684" cy="667" r="5"/><circle cx="779" cy="663" r="6"/><circle cx="807" cy="680" r="5"/><circle cx="910" cy="696" r="4"/><circle cx="967" cy="675" r="5"/><circle cx="1043" cy="680" r="4"/><circle cx="1181" cy="660" r="4"/><circle cx="1203" cy="662" r="5"/><circle cx="1330" cy="711" r="6"/><circle cx="1420" cy="690" r="5"/><circle cx="1505" cy="683" r="5"/><circle cx="1583" cy="657" r="4"/><circle cx="1601" cy="689" r="5"/><circle cx="1721" cy="662" r="6"/><circle cx="1809" cy="654" r="6"/><circle cx="1898" cy="681" r="5"/><circle cx="1988" cy="642" r="4"/><circle cx="2059" cy="717" r="6"/><circle cx="2103" cy="695" r="4"/><circle cx="2204" cy="690" r="5"/><circle cx="2296" cy="665" r="4"/><circle cx="2325" cy="707" r="5"/><circle cx="2457" cy="680" r="5"/><circle cx="2533" cy="701" r="5"/><circle cx="18" cy="775" r="5"/><circle cx="83" cy="737" r="5"/><circle cx="182" cy="721" r="5"/><circle cx="245" cy="760" r="5"/><circle cx="324" cy="775" r="5"/><circle cx="449" cy="787" r="5"/><circle cx="528" cy="749" r="5"/><circle cx="600" cy="722" r="5"/><circle cx="695" cy="738" r="4"/><circle cx="789" cy="798" r="6"/><circle cx="805" cy="740" r="6"/><circle cx="938" cy="786" r="5"/><circle cx="1020" cy="760" r="5"/><circle cx="1054" cy="788" r="5"/><circle cx="1187" cy="754" r="6"/><circle cx="1216" cy="771" r="4"/><circle cx="1283" cy="725" r="5"/><circle cx="1375" cy="783" r="6"/><circle cx="1515" cy="740" r="6"/><circle cx="1563" cy="773" r="4"/><circle cx="1659" cy="772" r="5"/><circle cx="1735" cy="767" r="6"/><circle cx="1822" cy="789" r="5"/><circle cx="1841" cy="784" r="5"/><circle cx="1967" cy="730" r="5"/><circle cx="2042" cy="779" r="4"/><circle cx="2094" cy="778" r="5"/><circle cx="2160" cy="779" r="6"/><circle cx="2243" cy="779" r="6"/><circle cx="2331" cy="772" r="5"/><circle cx="2401" cy="732" r="5"/><circle cx="2536" cy="729" r="5"/><circle cx="3" cy="870" r="6"/><circle cx="2563" cy="870" r="6"/><circle cx="115" cy="818" r="4"/><circle cx="234" cy="849" r="4"/><circle cx="287" cy="856" r="5"/><circle cx="387" cy="809" r="4"/><circle cx="419" cy="815" r="6"/><circle cx="542" cy="846" r="5"/><circle cx="595" cy="833" r="6"/><circle cx="688" cy="811" r="6"/><circle cx="767" cy="875" r="5"/><circle cx="865" cy="868" r="5"/><circle cx="905" cy="832" r="4"/><circle cx="996" cy="836" r="5"/><circle cx="1097" cy="839" r="4"/><circle cx="1155" cy="822" r="6"/><circle cx="1209" cy="851" r="5"/><circle cx="1341" cy="841" r="5"/><circle cx="1399" cy="848" r="6"/><circle cx="1509" cy="850" r="5"/><circle cx="1569" cy="863" r="6"/><circle cx="1636" cy="865" r="5"/><circle cx="1701" cy="848" r="5"/><circle cx="1781" cy="842" r="5"/><circle cx="1882" cy="859" r="5"/><circle cx="1955" cy="813" r="6"/><circle cx="2032" cy="809" r="5"/><circle cx="2120" cy="801" r="4"/><circle cx="2186" cy="849" r="4"/><circle cx="2312" cy="830" r="4"/><circle cx="2371" cy="831" r="5"/><circle cx="2425" cy="821" r="5"/><circle cx="2555" cy="869" r="6"/><circle cx="-5" cy="869" r="6"/><circle cx="4" cy="911" r="6"/><circle cx="2564" cy="911" r="6"/><circle cx="93" cy="890" r="4"/><circle cx="168" cy="936" r="4"/><circle cx="248" cy="897" r="5"/><circle cx="374" cy="919" r="6"/><circle cx="431" cy="915" r="5"/><circle cx="508" cy="905" r="5"/><circle cx="607" cy="944" r="5"/><circle cx="658" cy="918" r="5"/><circle cx="739" cy="934" r="6"/><circle cx="821" cy="888" r="4"/><circle cx="908" cy="938" r="5"/><circle cx="1025" cy="898" r="5"/><circle cx="1055" cy="913" r="5"/><circle cx="1120" cy="890" r="5"/><circle cx="1251" cy="885" r="5"/><circle cx="1310" cy="905" r="5"/><circle cx="1401" cy="927" r="5"/><circle cx="1492" cy="930" r="5"/><circle cx="1575" cy="889" r="4"/><circle cx="1671" cy="901" r="5"/><circle cx="1746" cy="934" r="5"/><circle cx="1766" cy="949" r="5"/><circle cx="1852" cy="929" r="5"/><circle cx="1958" cy="914" r="5"/><circle cx="2017" cy="929" r="4"/><circle cx="2087" cy="943" r="4"/><circle cx="2230" cy="926" r="5"/><circle cx="2250" cy="883" r="4"/><circle cx="2385" cy="944" r="5"/><circle cx="2439" cy="933" r="5"/><circle cx="2494" cy="893" r="5"/><circle cx="29" cy="1009" r="4"/><circle cx="106" cy="967" r="4"/><circle cx="213" cy="1032" r="5"/><circle cx="318" cy="1038" r="5"/><circle cx="391" cy="966" r="4"/><circle cx="416" cy="980" r="5"/><circle cx="519" cy="1004" r="6"/><circle cx="590" cy="987" r="5"/><circle cx="676" cy="969" r="5"/><circle cx="789" cy="976" r="5"/><circle cx="811" cy="1027" r="5"/><circle cx="954" cy="973" r="5"/><circle cx="1026" cy="1003" r="6"/><circle cx="1113" cy="1025" r="6"/><circle cx="1161" cy="1004" r="5"/><circle cx="1234" cy="1026" r="6"/><circle cx="1283" cy="983" r="6"/><circle cx="1439" cy="1031" r="6"/><circle cx="1454" cy="970" r="5"/><circle cx="1560" cy="1000" r="5"/><circle cx="1649" cy="1040" r="4"/><circle cx="1742" cy="1022" r="4"/><circle cx="1821" cy="961" r="4"/><circle cx="1883" cy="1019" r="6"/><circle cx="1952" cy="1040" r="5"/><circle cx="2047" cy="987" r="6"/><circle cx="2100" cy="1025" r="6"/><circle cx="2191" cy="1036" r="5"/><circle cx="2309" cy="1027" r="6"/><circle cx="2325" cy="963" r="5"/><circle cx="2408" cy="1013" r="5"/><circle cx="2556" cy="971" r="5"/><circle cx="-4" cy="971" r="5"/><circle cx="32" cy="1071" r="4"/><circle cx="147" cy="1052" r="5"/><circle cx="160" cy="1070" r="5"/><circle cx="261" cy="1076" r="5"/><circle cx="321" cy="1071" r="5"/><circle cx="451" cy="1049" r="4"/><circle cx="545" cy="1118" r="4"/><circle cx="565" cy="1081" r="6"/><circle cx="676" cy="1046" r="5"/><circle cx="775" cy="1082" r="5"/><circle cx="822" cy="1100" r="5"/><circle cx="942" cy="1061" r="4"/><circle cx="1025" cy="1071" r="6"/><circle cx="1057" cy="1094" r="4"/><circle cx="1122" cy="1064" r="5"/><circle cx="1267" cy="1070" r="5"/><circle cx="1295" cy="1101" r="6"/><circle cx="1430" cy="1102" r="6"/><circle cx="1461" cy="1097" r="5"/><circle cx="1555" cy="1062" r="6"/><circle cx="1652" cy="1072" r="5"/><circle cx="1685" cy="1096" r="5"/><circle cx="1782" cy="1070" r="4"/><circle cx="1845" cy="1112" r="4"/><circle cx="1948" cy="1112" r="5"/><circle cx="2053" cy="1054" r="6"/><circle cx="2153" cy="1070" r="5"/><circle cx="2163" cy="1097" r="5"/><circle cx="2245" cy="1054" r="4"/><circle cx="2349" cy="1113" r="6"/><circle cx="2462" cy="1074" r="6"/><circle cx="2484" cy="1119" r="5"/><circle cx="46" cy="1193" r="5"/><circle cx="96" cy="1148" r="5"/><circle cx="190" cy="1171" r="6"/><circle cx="250" cy="1144" r="5"/><circle cx="352" cy="1135" r="5"/><circle cx="404" cy="1153" r="5"/><circle cx="544" cy="1121" r="6"/><circle cx="639" cy="1160" r="5"/><circle cx="714" cy="1181" r="6"/><circle cx="736" cy="1170" r="4"/><circle cx="815" cy="1141" r="5"/><circle cx="886" cy="1191" r="5"/><circle cx="1006" cy="1170" r="5"/><circle cx="1076" cy="1126" r="5"/><circle cx="1120" cy="1172" r="4"/><circle cx="1272" cy="1148" r="4"/><circle cx="1283" cy="1162" r="4"/><circle cx="1408" cy="1195" r="6"/><circle cx="1479" cy="1164" r="5"/><circle cx="1571" cy="1133" r="6"/><circle cx="1674" cy="1133" r="4"/><circle cx="1686" cy="1156" r="6"/><circle cx="1822" cy="1146" r="5"/><circle cx="1909" cy="1172" r="4"/><circle cx="1966" cy="1184" r="6"/><circle cx="2007" cy="1189" r="5"/><circle cx="2083" cy="1155" r="5"/><circle cx="2169" cy="1159" r="4"/><circle cx="2286" cy="1129" r="4"/><circle cx="2327" cy="1187" r="5"/><circle cx="2425" cy="1146" r="6"/><circle cx="2554" cy="1177" r="5"/><circle cx="21" cy="1248" r="6"/><circle cx="143" cy="1267" r="6"/><circle cx="237" cy="1253" r="6"/><circle cx="278" cy="1265" r="6"/><circle cx="321" cy="1215" r="4"/><circle cx="449" cy="1217" r="5"/><circle cx="559" cy="1267" r="4"/><circle cx="578" cy="1221" r="5"/><circle cx="656" cy="1241" r="5"/><circle cx="760" cy="1202" r="4"/><circle cx="830" cy="1213" r="4"/><circle cx="959" cy="1279" r="5"/><circle cx="986" cy="1275" r="4"/><circle cx="1118" cy="1219" r="5"/><circle cx="1188" cy="1248" r="5"/><circle cx="1205" cy="1249" r="6"/><circle cx="1357" cy="1234" r="4"/><circle cx="1366" cy="1225" r="5"/><circle cx="1445" cy="1272" r="5"/><circle cx="1597" cy="1272" r="6"/><circle cx="1674" cy="1269" r="4"/><circle cx="1747" cy="1211" r="5"/><circle cx="1778" cy="1236" r="4"/><circle cx="1869" cy="1229" r="5"/><circle cx="1984" cy="1214" r="4"/><circle cx="2024" cy="1212" r="5"/><circle cx="2134" cy="1202" r="5"/><circle cx="2237" cy="1215" r="5"/><circle cx="2257" cy="1271" r="5"/><circle cx="2342" cy="1234" r="5"/><circle cx="2429" cy="1243" r="5"/><circle cx="2550" cy="1247" r="4"/><circle cx="53" cy="1302" r="5"/><circle cx="115" cy="1327" r="6"/><circle cx="214" cy="1333" r="5"/><circle cx="268" cy="1285" r="5"/><circle cx="350" cy="1302" r="4"/><circle cx="455" cy="1315" r="6"/><circle cx="542" cy="1309" r="4"/><circle cx="609" cy="1301" r="4"/><circle cx="717" cy="1352" r="5"/><circle cx="746" cy="1352" r="5"/><circle cx="867" cy="1338" r="4"/><circle cx="926" cy="1281" r="6"/><circle cx="966" cy="1334" r="4"/><circle cx="1058" cy="1323" r="5"/><circle cx="1164" cy="1341" r="5"/><circle cx="1242" cy="1315" r="6"/><circle cx="1350" cy="1328" r="6"/><circle cx="1396" cy="1304" r="5"/><circle cx="1482" cy="1285" r="4"/><circle cx="1557" cy="1304" r="5"/><circle cx="1605" cy="1353" r="4"/><circle cx="1705" cy="1300" r="5"/><circle cx="1825" cy="1281" r="5"/><circle cx="1897" cy="1289" r="5"/><circle cx="1986" cy="1340" r="5"/><circle cx="2067" cy="1297" r="5"/><circle cx="2098" cy="1350" r="6"/><circle cx="2163" cy="1310" r="6"/><circle cx="2253" cy="1332" r="5"/><circle cx="2324" cy="1319" r="4"/><circle cx="2470" cy="1329" r="6"/><circle cx="2538" cy="1345" r="5"/><circle cx="76" cy="1416" r="5"/><circle cx="128" cy="1426" r="6"/><circle cx="191" cy="1395" r="4"/><circle cx="245" cy="1396" r="5"/><circle cx="351" cy="1367" r="5"/><circle cx="435" cy="1368" r="6"/><circle cx="533" cy="1437" r="4"/><circle cx="533" cy="-3" r="4"/><circle cx="623" cy="1390" r="5"/><circle cx="719" cy="1399" r="6"/><circle cx="789" cy="1363" r="4"/><circle cx="823" cy="1376" r="5"/><circle cx="951" cy="1404" r="6"/><circle cx="1027" cy="1437" r="4"/><circle cx="1027" cy="-3" r="4"/><circle cx="1113" cy="1398" r="6"/><circle cx="1176" cy="1437" r="5"/><circle cx="1176" cy="-3" r="5"/><circle cx="1268" cy="1422" r="5"/><circle cx="1324" cy="1385" r="5"/><circle cx="1377" cy="1420" r="6"/><circle cx="1447" cy="1434" r="5"/><circle cx="1521" cy="1429" r="5"/><circle cx="1630" cy="1395" r="5"/><circle cx="1682" cy="1419" r="6"/><circle cx="1766" cy="1374" r="5"/><circle cx="1917" cy="1416" r="6"/><circle cx="1930" cy="1376" r="4"/><circle cx="2068" cy="1380" r="4"/><circle cx="2129" cy="1412" r="5"/><circle cx="2165" cy="1423" r="5"/><circle cx="2317" cy="1409" r="5"/><circle cx="2360" cy="1430" r="4"/><circle cx="2419" cy="1419" r="4"/><circle cx="2549" cy="1422" r="4"/><path stroke="#fff" d="M66 30L120 11M66 30L-6 23M66 30L26 101M66 30L76 -24M66 30L128 -14M2626 30L2554 23M66 1470L76 1416M66 1470L128 1426M120 11L170 32M120 11L76 -24M120 11L128 -14M120 11L191 -45M120 1451L76 1416M120 1451L128 1426M120 1451L191 1395M170 32L149 130M170 32L239 106M170 32L128 -14M170 32L191 -45M170 1472L128 1426M170 1472L191 1395M283 46L374 63M283 46L239 106M283 46L279 127M283 46L338 142M283 46L245 -44M283 1486L245 1396M374 63L461 65M374 63L338 142M374 63L434 91M374 63L369 166M461 65L502 40M461 65L434 91M461 65L490 147M461 65L455 160M502 40L434 91M502 40L490 147M502 40L533 -3M502 1480L533 1437M618 54L676 9M618 54L597 139M618 54L689 89M618 54L533 -3M618 54L623 -50M618 1494L533 1437M618 1494L623 1390M676 9L689 89M676 9L717 -88M676 9L623 -50M676 9L719 -41M676 1449L717 1352M676 1449L623 1390M676 1449L719 1399M796 4L836 52M796 4L897 9M796 4L719 -41M796 4L789 -77M796 4L823 -64M796 1444L719 1399M796 1444L789 1363M796 1444L823 1376M836 52L897 9M836 52L834 159M897 9L867 -102M897 9L823 -64M897 9L951 -36M897 1449L867 1338M897 1449L823 1376M897 1449L951 1404M1019 57L1091 69M1019 57L1034 135M1019 57L1054 157M1019 57L951 -36M1019 57L1027 -3M1019 1497L951 1404M1019 1497L1027 1437M1091 69L1146 24M1091 69L1034 135M1091 69L1127 134M1146 24L1217 76M1146 24L1113 -42M1146 24L1176 -3M1146 1464L1113 1398M1146 1464L1176 1437M1217 76L1127 134M1217 76L1255 147M1217 76L1302 115M1217 76L1176 -3M1217 1516L1176 1437M1337 27L1391 24M1337 27L1302 115M1337 27L1268 -18M1337 27L1324 -55M1337 27L1377 -20M1337 1467L1268 1422M1337 1467L1324 1385M1337 1467L1377 1420M1391 24L1487 60M1391 24L1324 -55M1391 24L1377 -20M1391 24L1447 -6M1391 1464L1324 1385M1391 1464L1377 1420M1391 1464L1447 1434M1487 60L1525 4M1487 60L1452 152M1487 60L1447 -6M1487 60L1521 -11M1487 1500L1447 1434M1487 1500L1521 1429M1525 4L1447 -6M1525 4L1521 -11M1525 1444L1447 1434M1525 1444L1521 1429M1675 35L1683 58M1675 35L1631 84M1675 35L1724 81M1675 35L1630 -45M1675 35L1682 -21M1675 1475L1630 1395M1675 1475L1682 1419M1683 58L1778 52M1683 58L1631 84M1683 58L1724 81M1683 58L1682 -21M1683 1498L1682 1419M1778 52L1843 19M1778 52L1724 81M1778 52L1806 117M1843 19L1934 8M1843 19L1852 101M1843 19L1917 -24M1843 1459L1917 1416M1934 8L1921 100M1934 8L1917 -24M1934 8L1930 -64M1934 1448L1917 1416M1934 1448L1930 1376M2066 11L2026 90M2066 11L2089 93M2066 11L2068 -60M2066 11L2129 -28M2066 1451L2068 1380M2066 1451L2129 1412M2156 65L2217 18M2156 65L2089 93M2156 65L2178 128M2156 65L2165 -17M2156 1505L2165 1423M2217 18L2129 -28M2217 18L2165 -17M2217 18L2317 -31M2217 1458L2129 1412M2217 1458L2165 1423M2217 1458L2317 1409M2315 68L2371 43M2315 68L2281 152M2315 68L2360 103M2315 68L2317 -31M2315 68L2360 -10M2315 1508L2317 1409M2315 1508L2360 1430M2371 43L2454 70M2371 43L2360 103M2371 43L2410 94M2371 43L2360 -10M2371 1483L2360 1430M2454 70L2410 94M2454 70L2488 127M2454 70L2419 -21M2454 1510L2419 1419M2554 23L2586 101M2554 23L2549 -18M-6 23L26 101M2554 1463L2549 1422M26 101L49 198M149 130L239 106M149 130L49 198M149 130L120 233M239 106L279 127M239 106L224 190M279 127L338 142M279 127L224 190M279 127L369 166M338 142L369 166M434 91L490 147M434 91L455 160M490 147L455 160M490 147L526 187M597 139L689 89M597 139L526 187M597 139L616 214M597 139L648 199M689 89L768 150M768 150L834 159M768 150L723 191M768 150L822 198M834 159L899 147M834 159L822 198M834 159L884 176M899 147L884 176M1034 135L1054 157M1034 135L1127 134M1034 135L977 201M1054 157L1127 134M1054 157L977 201M1054 157L1045 239M1127 134L1147 207M1255 147L1302 115M1255 147L1247 185M1255 147L1296 235M1255 147L1296 248M1302 115L1247 185M1302 115L1380 172M1424 156L1452 152M1424 156L1380 172M1424 156L1488 197M1452 152L1380 172M1452 152L1488 197M1452 152L1547 168M1565 117L1631 84M1565 117L1547 168M1631 84L1724 81M1631 84L1663 180M1724 81L1806 117M1806 117L1852 101M1806 117L1801 174M1806 117L1880 162M1852 101L1921 100M1852 101L1801 174M1852 101L1880 162M1921 100L2026 90M1921 100L1880 162M1921 100L1917 -24M1921 1540L1917 1416M2026 90L2089 93M2026 90L1994 188M2026 90L2087 166M2089 93L2178 128M2089 93L2087 166M2178 128L2178 215M2178 128L2250 172M2281 152L2360 103M2281 152L2250 172M2360 103L2410 94M2360 103L2394 171M2410 94L2488 127M2410 94L2394 171M2488 127L2394 171M2488 127L2448 194M2488 127L2486 209M49 198L120 233M49 198L16 272M49 198L-31 245M2609 198L2529 245M120 233L159 318M120 233L176 255M224 190L252 209M224 190L176 255M224 190L242 268M252 209L242 268M252 209L322 287M369 166L455 160M455 160L526 187M526 187L514 278M526 187L577 276M616 214L648 199M616 214L577 276M648 199L723 191M648 199L718 263M723 191L822 198M723 191L718 263M723 191L733 291M822 198L884 176M822 198L827 267M884 176L977 201M884 176L927 270M977 201L1045 239M977 201L927 270M1045 239L998 304M1045 239L1052 316M1147 207L1143 289M1147 207L1204 266M1247 185L1296 235M1247 185L1296 248M1296 235L1204 266M1296 235L1296 248M1296 235L1336 329M1380 172L1415 276M1488 197L1547 168M1547 168L1663 180M1547 168L1560 282M1663 180L1738 193M1663 180L1666 274M1738 193L1801 174M1738 193L1666 274M1738 193L1759 266M1738 193L1772 289M1801 174L1880 162M1801 174L1759 266M1994 188L2009 224M1994 188L2087 166M1994 188L1949 273M1994 188L2004 246M2009 224L2087 166M2009 224L1920 291M2009 224L1949 273M2009 224L2004 246M2087 166L2178 215M2178 215L2250 172M2178 215L2216 261M2250 172L2216 261M2250 172L2276 291M2394 171L2448 194M2394 171L2486 209M2448 194L2486 209M2448 194L2405 279M2448 194L2529 245M2486 209L2576 272M2486 209L2529 245M-74 209L16 272M16 272L-31 245M16 272L2 364M2576 272L2529 245M159 318L176 255M159 318L158 370M159 318L195 343M176 255L242 268M176 255L195 343M242 268L322 287M242 268L195 343M322 287L299 358M322 287L345 352M480 295L514 278M480 295L577 276M480 295L474 366M480 295L514 389M480 295L542 401M514 278L577 276M514 278L474 366M577 276L593 356M718 263L733 291M718 263L714 360M718 263L780 328M733 291L827 267M733 291L714 360M733 291L780 328M827 267L780 328M827 267L878 335M927 270L998 304M927 270L878 335M998 304L1052 316M998 304L919 378M998 304L974 369M1052 316L1143 289M1052 316L974 369M1052 316L1104 381M1143 289L1204 266M1143 289L1221 346M1204 266L1296 248M1204 266L1221 346M1296 248L1336 329M1415 276L1482 294M1415 276L1336 329M1415 276L1400 347M1482 294L1560 282M1482 294L1400 347M1482 294L1497 371M1482 294L1547 322M1560 282L1666 274M1560 282L1547 322M1666 274L1759 266M1666 274L1691 349M1759 266L1772 289M1759 266L1849 334M1772 289L1691 349M1772 289L1836 384M1772 289L1849 334M1920 291L1949 273M1920 291L2004 246M1920 291L1849 334M1920 291L1941 360M1949 273L2004 246M1949 273L1941 360M2004 246L2041 342M2117 317L2041 342M2117 317L2087 364M2117 317L2185 368M2117 317L2179 407M2216 261L2276 291M2216 261L2273 336M2276 291L2353 264M2276 291L2273 336M2353 264L2405 279M2353 264L2273 336M2405 279L2388 386M2405 279L2441 361M2 364L-31 398M2 364L19 414M2 364L-75 433M2562 364L2529 398M2562 364L2485 433M158 370L195 343M158 370L105 471M158 370L177 430M195 343L177 430M299 358L345 352M299 358L307 407M345 352L307 407M345 352L391 439M345 352L406 412M474 366L514 389M474 366L406 412M474 366L542 401M514 389L593 356M514 389L542 401M593 356L542 401M593 356L638 448M714 360L780 328M714 360L697 462M714 360L735 454M878 335L919 378M878 335L883 421M919 378L974 369M919 378L845 447M919 378L883 421M974 369L1029 435M974 369L1046 431M1104 381L1197 398M1104 381L1029 435M1104 381L1046 431M1104 381L1143 439M1197 398L1221 346M1197 398L1143 439M1197 398L1224 434M1197 398L1137 496M1221 346L1304 421M1336 329L1400 347M1336 329L1304 421M1400 347L1497 371M1400 347L1451 437M1497 371L1547 322M1497 371L1451 437M1497 371L1576 429M1547 322L1576 429M1655 389L1691 349M1655 389L1576 429M1655 389L1677 419M1655 389L1701 410M1691 349L1677 419M1691 349L1701 410M1836 384L1849 334M1836 384L1832 466M1836 384L1901 465M1849 334L1941 360M1941 360L2041 342M1941 360L1932 446M2041 342L2087 364M2041 342L2074 459M2087 364L2185 368M2087 364L2074 459M2185 368L2273 336M2185 368L2151 438M2185 368L2179 407M2388 386L2441 361M2388 386L2355 443M2388 386L2480 427M2441 361L2529 398M2441 361L2480 427M2441 361L2485 433M2529 398L2579 414M2529 398L2480 427M2529 398L2485 433M-31 398L19 414M19 414L-80 427M19 414L-75 433M19 414L17 500M2579 414L2480 427M2579 414L2485 433M105 471L177 430M105 471L17 500M105 471L145 509M105 471L167 534M177 430L145 509M177 430L167 534M307 407L391 439M307 407L406 412M307 407L286 482M391 439L406 412M391 439L378 481M391 439L442 525M406 412L378 481M542 401L638 448M638 448L697 462M638 448L735 454M638 448L647 486M697 462L735 454M697 462L647 486M697 462L726 514M735 454L647 486M735 454L726 514M845 447L883 421M845 447L864 486M845 447L902 483M883 421L864 486M883 421L902 483M1029 435L1046 431M1029 435L1027 546M1029 435L1095 498M1046 431L1095 498M1046 431L1137 496M1143 439L1224 434M1143 439L1095 498M1143 439L1137 496M1224 434L1304 421M1224 434L1237 508M1304 421L1237 508M1422 478L1451 437M1422 478L1355 530M1422 478L1401 506M1422 478L1449 549M1451 437L1401 506M1576 429L1677 419M1576 429L1639 506M1677 419L1701 410M1677 419L1639 506M1701 410L1720 519M1832 466L1901 465M1832 466L1932 446M1832 466L1832 526M1832 466L1851 500M1901 465L1932 446M1901 465L1832 526M1901 465L1851 500M1932 446L1851 500M1932 446L1963 554M2074 459L2151 438M2074 459L2044 516M2074 459L2153 535M2151 438L2179 407M2151 438L2153 535M2151 438L2215 513M2179 407L2245 454M2245 454L2355 443M2245 454L2215 513M2245 454L2269 503M2355 443L2269 503M2355 443L2377 514M2480 427L2485 433M17 500L-64 543M2577 500L2496 543M145 509L167 534M167 534L124 622M167 534L205 608M286 482L378 481M378 481L442 525M442 525L546 538M442 525L568 532M442 525L432 623M546 538L568 532M546 538L556 626M568 532L647 486M568 532L556 626M568 532L631 610M647 486L726 514M726 514L669 593M864 486L902 483M1027 546L1095 498M1027 546L972 627M1095 498L1137 496M1137 496L1237 508M1237 508L1243 611M1237 508L1314 588M1355 530L1401 506M1355 530L1314 588M1355 530L1404 580M1355 530L1441 592M1401 506L1449 549M1401 506L1404 580M1449 549L1404 580M1449 549L1441 592M1580 539L1639 506M1580 539L1581 586M1639 506L1720 519M1639 506L1581 586M1832 526L1851 500M1832 526L1831 584M1832 526L1886 595M1851 500L1831 584M1963 554L2044 516M1963 554L1886 595M1963 554L1966 619M1963 554L1988 642M2044 516L2153 535M2153 535L2215 513M2153 535L2181 611M2215 513L2269 503M2215 513L2181 611M2269 503L2377 514M2269 503L2327 573M2377 514L2441 558M2377 514L2327 573M2441 558L2496 543M2441 558L2418 597M2441 558L2507 618M2496 543L2418 597M2496 543L2507 618M64 635L124 622M64 635L74 647M64 635L91 685M124 622L205 608M124 622L74 647M124 622L91 685M205 608L303 631M205 608L278 675M205 608L182 721M303 631L322 629M303 631L278 675M303 631L366 654M322 629L432 623M322 629L278 675M322 629L366 654M322 629L427 678M432 623L366 654M432 623L427 678M556 626L631 610M556 626L533 716M556 626L600 722M631 610L669 593M631 610L684 667M669 593L684 667M794 623L839 613M794 623L779 663M794 623L807 680M794 623L805 740M839 613L948 638M839 613L779 663M839 613L807 680M948 638L972 627M948 638L910 696M948 638L967 675M948 638L1043 680M972 627L910 696M972 627L967 675M972 627L1043 680M1093 639L1129 628M1093 639L1043 680M1093 639L1181 660M1129 628L1243 611M1129 628L1181 660M1129 628L1203 662M1243 611L1314 588M1243 611L1181 660M1243 611L1203 662M1314 588L1404 580M1314 588L1330 711M1404 580L1441 592M1441 592L1420 690M1441 592L1505 683M1581 586L1675 639M1581 586L1583 657M1581 586L1601 689M1675 639L1716 637M1675 639L1583 657M1675 639L1601 689M1675 639L1721 662M1716 637L1721 662M1716 637L1809 654M1831 584L1886 595M1831 584L1809 654M1886 595L1966 619M1886 595L1898 681M1966 619L1898 681M1966 619L1988 642M2073 621L2093 627M2073 621L2181 611M2073 621L1988 642M2073 621L2059 717M2073 621L2103 695M2093 627L2181 611M2093 627L2103 695M2181 611L2204 690M2297 622L2327 573M2297 622L2296 665M2297 622L2325 707M2327 573L2418 597M2327 573L2296 665M2418 597L2507 618M2418 597L2457 680M2507 618L2457 680M2507 618L2533 701M74 647L91 685M74 647L-27 701M74 647L83 737M2634 647L2533 701M91 685L178 717M91 685L83 737M178 717L182 721M178 717L245 760M278 675L366 654M278 675L245 760M366 654L427 678M427 678L533 716M427 678L449 787M533 716L632 718M533 716L528 749M533 716L600 722M632 718L684 667M632 718L600 722M632 718L695 738M684 667L779 663M684 667L695 738M779 663L807 680M779 663L805 740M807 680L805 740M910 696L967 675M910 696L805 740M910 696L938 786M967 675L1043 680M967 675L1020 760M1043 680L1020 760M1181 660L1203 662M1181 660L1187 754M1203 662L1187 754M1203 662L1283 725M1330 711L1420 690M1330 711L1283 725M1330 711L1375 783M1420 690L1505 683M1420 690L1375 783M1420 690L1515 740M1505 683L1583 657M1505 683L1601 689M1505 683L1515 740M1583 657L1601 689M1601 689L1515 740M1721 662L1809 654M1721 662L1735 767M1809 654L1898 681M1898 681L1967 730M1988 642L1967 730M2059 717L2103 695M2059 717L1967 730M2059 717L2042 779M2059 717L2094 778M2204 690L2296 665M2204 690L2160 779M2204 690L2243 779M2296 665L2325 707M2325 707L2331 772M2325 707L2401 732M2457 680L2533 701M2457 680L2401 732M2457 680L2536 729M2533 701L2578 775M2533 701L2536 729M-27 701L18 775M18 775L83 737M18 775L-24 729M18 775L3 870M18 775L-5 869M2578 775L2536 729M2578 775L2555 869M83 737L182 721M83 737L115 818M182 721L245 760M182 721L115 818M245 760L324 775M245 760L234 849M324 775L234 849M324 775L287 856M324 775L387 809M324 775L419 815M449 787L528 749M449 787L387 809M449 787L419 815M449 787L542 846M528 749L600 722M528 749L542 846M528 749L595 833M600 722L695 738M695 738L688 811M789 798L805 740M789 798L688 811M789 798L767 875M789 798L865 868M789 798L821 888M938 786L1020 760M938 786L905 832M938 786L996 836M1020 760L1054 788M1020 760L996 836M1054 788L996 836M1054 788L1097 839M1187 754L1216 771M1187 754L1155 822M1187 754L1209 851M1216 771L1283 725M1216 771L1155 822M1216 771L1209 851M1216 771L1251 885M1283 725L1375 783M1375 783L1341 841M1375 783L1399 848M1515 740L1563 773M1515 740L1509 850M1563 773L1659 772M1563 773L1509 850M1563 773L1569 863M1659 772L1735 767M1659 772L1636 865M1659 772L1701 848M1735 767L1822 789M1735 767L1701 848M1735 767L1781 842M1822 789L1841 784M1822 789L1781 842M1822 789L1882 859M1841 784L1781 842M1841 784L1882 859M1967 730L1955 813M2042 779L2094 778M2042 779L1955 813M2042 779L2032 809M2042 779L2120 801M2094 778L2160 779M2094 778L2032 809M2094 778L2120 801M2160 779L2243 779M2160 779L2120 801M2160 779L2186 849M2243 779L2331 772M2243 779L2186 849M2243 779L2312 830M2331 772L2401 732M2331 772L2312 830M2331 772L2371 831M2401 732L2371 831M2401 732L2425 821M3 870L-5 869M3 870L4 911M3 870L93 890M3 870L-66 893M2563 870L2555 869M2563 870L2494 893M115 818L93 890M234 849L287 856M234 849L168 936M234 849L248 897M287 856L248 897M287 856L374 919M387 809L419 815M419 815L374 919M419 815L431 915M542 846L595 833M542 846L508 905M595 833L688 811M595 833L607 944M595 833L658 918M688 811L767 875M767 875L865 868M767 875L739 934M767 875L821 888M865 868L905 832M865 868L821 888M865 868L908 938M905 832L908 938M996 836L1025 898M996 836L1055 913M1097 839L1155 822M1097 839L1025 898M1097 839L1055 913M1097 839L1120 890M1155 822L1209 851M1155 822L1120 890M1209 851L1120 890M1209 851L1251 885M1341 841L1399 848M1341 841L1251 885M1341 841L1310 905M1341 841L1401 927M1399 848L1310 905M1399 848L1401 927M1509 850L1569 863M1509 850L1492 930M1509 850L1575 889M1569 863L1636 865M1569 863L1492 930M1569 863L1575 889M1636 865L1701 848M1636 865L1575 889M1636 865L1671 901M1701 848L1781 842M1701 848L1671 901M1781 842L1746 934M1882 859L1955 813M1882 859L1852 929M1882 859L1958 914M1955 813L2032 809M1955 813L1958 914M2032 809L2120 801M2120 801L2186 849M2186 849L2230 926M2186 849L2250 883M2312 830L2371 831M2312 830L2425 821M2312 830L2250 883M2371 831L2425 821M2371 831L2385 944M2425 821L2439 933M2425 821L2494 893M2555 869L2564 911M2555 869L2494 893M2555 869L2556 971M-5 869L4 911M4 911L93 890M4 911L-66 893M4 911L-4 971M2564 911L2494 893M2564 911L2556 971M93 890L168 936M93 890L106 967M168 936L248 897M168 936L106 967M168 936L213 1032M374 919L431 915M374 919L391 966M374 919L416 980M431 915L508 905M431 915L391 966M431 915L416 980M508 905L519 1004M607 944L658 918M607 944L590 987M607 944L676 969M658 918L739 934M658 918L590 987M658 918L676 969M739 934L821 888M739 934L676 969M739 934L789 976M821 888L789 976M908 938L954 973M1025 898L1055 913M1025 898L1120 890M1025 898L1026 1003M1055 913L1120 890M1055 913L1026 1003M1251 885L1310 905M1251 885L1283 983M1310 905L1401 927M1310 905L1283 983M1401 927L1492 930M1401 927L1454 970M1492 930L1454 970M1492 930L1560 1000M1575 889L1671 901M1575 889L1560 1000M1671 901L1746 934M1671 901L1766 949M1746 934L1766 949M1746 934L1742 1022M1746 934L1821 961M1766 949L1852 929M1766 949L1742 1022M1766 949L1821 961M1852 929L1958 914M1852 929L1821 961M1852 929L1883 1019M1958 914L2017 929M2017 929L2087 943M2017 929L2047 987M2087 943L2047 987M2087 943L2100 1025M2230 926L2250 883M2230 926L2191 1036M2230 926L2325 963M2385 944L2439 933M2385 944L2309 1027M2385 944L2325 963M2385 944L2408 1013M2439 933L2494 893M2439 933L2325 963M2439 933L2408 1013M29 1009L106 967M29 1009L-4 971M29 1009L32 1071M2589 1009L2556 971M106 967L-4 971M106 967L147 1052M2666 967L2556 971M213 1032L318 1038M213 1032L147 1052M213 1032L160 1070M213 1032L261 1076M318 1038L391 966M318 1038L261 1076M318 1038L321 1071M318 1038L352 1135M391 966L416 980M391 966L451 1049M416 980L519 1004M416 980L451 1049M519 1004L590 987M519 1004L451 1049M519 1004L565 1081M590 987L676 969M590 987L565 1081M676 969L676 1046M789 976L811 1027M811 1027L775 1082M811 1027L822 1100M954 973L1026 1003M954 973L942 1061M1026 1003L1113 1025M1026 1003L1025 1071M1113 1025L1161 1004M1113 1025L1025 1071M1113 1025L1057 1094M1113 1025L1122 1064M1161 1004L1234 1026M1161 1004L1122 1064M1234 1026L1283 983M1234 1026L1122 1064M1234 1026L1267 1070M1234 1026L1295 1101M1283 983L1267 1070M1283 983L1295 1101M1439 1031L1454 970M1439 1031L1430 1102M1439 1031L1461 1097M1454 970L1560 1000M1560 1000L1649 1040M1560 1000L1555 1062M1649 1040L1742 1022M1649 1040L1555 1062M1649 1040L1652 1072M1649 1040L1685 1096M1742 1022L1685 1096M1742 1022L1782 1070M1821 961L1883 1019M1883 1019L1952 1040M1883 1019L1845 1112M1883 1019L1948 1112M1952 1040L2047 987M1952 1040L1948 1112M1952 1040L2053 1054M2047 987L2100 1025M2047 987L2053 1054M2100 1025L2053 1054M2100 1025L2153 1070M2100 1025L2163 1097M2191 1036L2153 1070M2191 1036L2163 1097M2191 1036L2245 1054M2309 1027L2325 963M2309 1027L2408 1013M2309 1027L2245 1054M2309 1027L2349 1113M2325 963L2408 1013M2408 1013L2462 1074M2556 971L2592 1071M-4 971L32 1071M32 1071L-76 1119M32 1071L96 1148M2592 1071L2484 1119M147 1052L160 1070M160 1070L261 1076M160 1070L96 1148M160 1070L190 1171M261 1076L321 1071M261 1076L250 1144M321 1071L250 1144M321 1071L352 1135M321 1071L404 1153M451 1049L544 1121M545 1118L565 1081M545 1118L544 1121M565 1081L544 1121M565 1081L639 1160M676 1046L775 1082M775 1082L822 1100M775 1082L736 1170M775 1082L815 1141M822 1100L815 1141M822 1100L886 1191M822 1100L830 1213M942 1061L1025 1071M1025 1071L1057 1094M1025 1071L1076 1126M1057 1094L1122 1064M1057 1094L1006 1170M1057 1094L1076 1126M1122 1064L1076 1126M1267 1070L1295 1101M1267 1070L1272 1148M1267 1070L1283 1162M1295 1101L1272 1148M1295 1101L1283 1162M1430 1102L1461 1097M1430 1102L1408 1195M1430 1102L1479 1164M1461 1097L1555 1062M1461 1097L1479 1164M1555 1062L1652 1072M1555 1062L1571 1133M1652 1072L1685 1096M1652 1072L1674 1133M1652 1072L1686 1156M1685 1096L1674 1133M1685 1096L1686 1156M1782 1070L1845 1112M1782 1070L1822 1146M1845 1112L1822 1146M1948 1112L1909 1172M1948 1112L1966 1184M1948 1112L2007 1189M2053 1054L2153 1070M2053 1054L2083 1155M2153 1070L2163 1097M2153 1070L2169 1159M2163 1097L2245 1054M2163 1097L2169 1159M2245 1054L2286 1129M2349 1113L2462 1074M2349 1113L2286 1129M2349 1113L2327 1187M2349 1113L2425 1146M2462 1074L2484 1119M2462 1074L2425 1146M2484 1119L2425 1146M2484 1119L2554 1177M46 1193L96 1148M46 1193L-6 1177M46 1193L21 1248M46 1193L-10 1247M2606 1193L2554 1177M2606 1193L2550 1247M96 1148L190 1171M96 1148L-6 1177M2656 1148L2554 1177M190 1171L250 1144M190 1171L143 1267M190 1171L237 1253M250 1144L352 1135M352 1135L404 1153M352 1135L321 1215M404 1153L321 1215M404 1153L449 1217M544 1121L639 1160M544 1121L578 1221M639 1160L714 1181M639 1160L578 1221M639 1160L656 1241M714 1181L736 1170M714 1181L656 1241M714 1181L760 1202M736 1170L760 1202M815 1141L886 1191M815 1141L760 1202M815 1141L830 1213M886 1191L830 1213M886 1191L959 1279M886 1191L926 1281M1006 1170L1076 1126M1006 1170L986 1275M1006 1170L1118 1219M1076 1126L1120 1172M1120 1172L1118 1219M1120 1172L1188 1248M1120 1172L1205 1249M1272 1148L1283 1162M1408 1195L1479 1164M1408 1195L1357 1234M1408 1195L1366 1225M1408 1195L1445 1272M1479 1164L1571 1133M1571 1133L1674 1133M1571 1133L1686 1156M1674 1133L1686 1156M1686 1156L1747 1211M1822 1146L1909 1172M1822 1146L1869 1229M1909 1172L1966 1184M1909 1172L1869 1229M1909 1172L1984 1214M1966 1184L2007 1189M1966 1184L1984 1214M1966 1184L2024 1212M2007 1189L2083 1155M2007 1189L1984 1214M2007 1189L2024 1212M2083 1155L2169 1159M2083 1155L2024 1212M2083 1155L2134 1202M2169 1159L2134 1202M2169 1159L2237 1215M2286 1129L2327 1187M2327 1187L2425 1146M2327 1187L2237 1215M2327 1187L2342 1234M2425 1146L2429 1243M2554 1177L2581 1248M2554 1177L2550 1247M-6 1177L21 1248M21 1248L-10 1247M21 1248L53 1302M21 1248L-22 1345M2581 1248L2550 1247M2581 1248L2538 1345M143 1267L237 1253M143 1267L53 1302M143 1267L115 1327M237 1253L278 1265M237 1253L214 1333M237 1253L268 1285M278 1265L321 1215M278 1265L214 1333M278 1265L268 1285M278 1265L350 1302M321 1215L268 1285M321 1215L350 1302M449 1217L455 1315M559 1267L578 1221M559 1267L656 1241M559 1267L455 1315M559 1267L542 1309M559 1267L609 1301M578 1221L656 1241M578 1221L609 1301M656 1241L609 1301M760 1202L830 1213M959 1279L986 1275M959 1279L926 1281M959 1279L966 1334M959 1279L1058 1323M986 1275L926 1281M986 1275L966 1334M986 1275L1058 1323M1118 1219L1188 1248M1118 1219L1205 1249M1188 1248L1205 1249M1188 1248L1164 1341M1188 1248L1242 1315M1205 1249L1164 1341M1205 1249L1242 1315M1357 1234L1366 1225M1357 1234L1350 1328M1357 1234L1396 1304M1366 1225L1445 1272M1366 1225L1350 1328M1366 1225L1396 1304M1445 1272L1396 1304M1445 1272L1482 1285M1597 1272L1674 1269M1597 1272L1482 1285M1597 1272L1557 1304M1597 1272L1605 1353M1597 1272L1705 1300M1674 1269L1747 1211M1674 1269L1557 1304M1674 1269L1705 1300M1747 1211L1778 1236M1747 1211L1705 1300M1747 1211L1825 1281M1778 1236L1869 1229M1778 1236L1705 1300M1778 1236L1825 1281M1869 1229L1825 1281M1869 1229L1897 1289M1984 1214L2024 1212M2024 1212L2067 1297M2134 1202L2237 1215M2237 1215L2257 1271M2237 1215L2342 1234M2257 1271L2342 1234M2257 1271L2163 1310M2257 1271L2253 1332M2257 1271L2324 1319M2342 1234L2429 1243M2342 1234L2324 1319M2429 1243L2470 1329M2550 1247L2613 1302M2550 1247L2538 1345M-10 1247L53 1302M53 1302L115 1327M53 1302L-22 1345M2613 1302L2538 1345M115 1327L76 1416M214 1333L268 1285M214 1333L191 1395M214 1333L245 1396M268 1285L350 1302M350 1302L351 1367M350 1302L435 1368M455 1315L542 1309M455 1315L351 1367M455 1315L435 1368M542 1309L609 1301M542 1309L435 1368M609 1301L623 1390M717 1352L746 1352M717 1352L623 1390M717 1352L719 1399M717 1352L789 1363M746 1352L719 1399M746 1352L789 1363M746 1352L823 1376M867 1338L926 1281M867 1338L823 1376M867 1338L951 1404M926 1281L966 1334M966 1334L1058 1323M966 1334L951 1404M1058 1323L1113 1398M1164 1341L1242 1315M1164 1341L1113 1398M1164 1341L1176 1437M1242 1315L1268 1422M1350 1328L1396 1304M1350 1328L1324 1385M1350 1328L1377 1420M1396 1304L1482 1285M1482 1285L1557 1304M1557 1304L1605 1353M1557 1304L1630 1395M1605 1353L1630 1395M1605 1353L1682 1419M1705 1300L1766 1374M1825 1281L1897 1289M1825 1281L1766 1374M1897 1289L1930 1376M1986 1340L2067 1297M1986 1340L1917 1416M1986 1340L1930 1376M1986 1340L2068 1380M2067 1297L2098 1350M2067 1297L2163 1310M2067 1297L2068 1380M2098 1350L2163 1310M2098 1350L2068 1380M2098 1350L2129 1412M2098 1350L2165 1423M2163 1310L2253 1332M2163 1310L2165 1423M2253 1332L2324 1319M2253 1332L2317 1409M2324 1319L2317 1409M2470 1329L2538 1345M2470 1329L2419 1419M2470 1329L2549 1422M2538 1345L2549 1422M76 1416L128 1426M76 1416L-11 1422M2636 1416L2549 1422M128 1426L191 1395M191 1395L245 1396M245 1396L351 1367M351 1367L435 1368M435 1368L533 1437M719 1399L789 1363M789 1363L823 1376M951 1404L1027 1437M1027 1437L1113 1398M1113 1398L1176 1437M1176 1437L1268 1422M1268 1422L1324 1385M1324 1385L1377 1420M1377 1420L1447 1434M1447 1434L1521 1429M1521 1429L1630 1395M1630 1395L1682 1419M1682 1419L1766 1374M1917 1416L1930 1376M2068 1380L2129 1412M2129 1412L2165 1423M2317 1409L2360 1430M2360 1430L2419 1419"/></svg>