<svg xmlns="http://www.w3.org/2000/svg" width="2560" height="1440" fill="#fff"><circle cx="73" cy="70" r="5"/><circle cx="158" cy="64" r="5"/><circle cx="160" cy="60" r="4"/><circle cx="246" cy="55" r="4"/><circle cx="373" cy="76" r="5"/><circle cx="442" cy="61" r="6"/><circle cx="540" cy="36" r="5"/><circle cx="581" cy="68" r="5"/><circle cx="670" cy="64" r="4"/><circle cx="744" cy="1" r="5"/><circle cx="744" cy="1441" r="5"/><circle cx="848" cy="52" r="5"/><circle cx="932" cy="29" r="4"/><circle cx="1023" cy="75" r="5"/><circle cx="1103" cy="80" r="4"/><circle cx="1151" cy="35" r="5"/><circle cx="1219" cy="4" r="4"/><circle cx="1219" cy="1444" r="4"/><circle cx="1285" cy="5" r="5"/><circle cx="1416" cy="15" r="4"/><circle cx="1488" cy="53" r="5"/><circle cx="1544" cy="24" r="5"/><circle cx="1672" cy="0" r="4"/><circle cx="1672" cy="1440" r="4"/><circle cx="1695" cy="54" r="5"/><circle cx="1770" cy="26" r="4"/><circle cx="1880" cy="20" r="6"/><circle cx="1978" cy="38" r="5"/><circle cx="2055" cy="66" r="4"/><circle cx="2144" cy="56" r="5"/><circle cx="2168" cy="28" r="5"/><circle cx="2261" cy="37" r="5"/><circle cx="2348" cy="28" r="5"/><circle cx="2405" cy="43" r="4"/><circle cx="2504" cy="76" r="6"/><circle cx="77" cy="93" r="6"/><circle cx="105" cy="143" r="6"/><circle cx="227" cy="103" r="4"/><circle cx="319" cy="130" r="4"/><circle cx="392" cy="142" r="5"/><circle cx="404" cy="160" r="6"/><circle cx="546" cy="149" r="5"/><circle cx="632" cy="104" r="5"/><circle cx="652" cy="98" r="5"/><circle cx="726" cy="147" r="6"/><circle cx="817" cy="151" r="6"/><circle cx="949" cy="133" r="6"/><circle cx="1037" cy="157" r="5"/><circle cx="1100" cy="83" r="5"/><circle cx="1183" cy="154" r="6"/><circle cx="1270" cy="134" r="6"/><circle cx="1318" cy="159" r="5"/><circle cx="1414" cy="96" r="4"/><circle cx="1454" cy="153" r="5"/><circle cx="1557" cy="150" r="6"/><circle cx="1633" cy="151" r="5"/><circle cx="1754" cy="150" r="5"/><circle cx="1794" cy="90" r="5"/><circle cx="1876" cy="119" r="5"/><circle cx="1976" cy="88" r="6"/><circle cx="2049" cy="133" r="4"/><circle cx="2105" cy="127" r="5"/><circle cx="2200" cy="156" r="4"/><circle cx="2302" cy="115" r="4"/><circle cx="2332" cy="120" r="5"/><circle cx="2459" cy="90" r="5"/><circle cx="2513" cy="133" r="4"/><circle cx="15" cy="190" r="5"/><circle cx="84" cy="170" r="5"/><circle cx="206" cy="187" r="5"/><circle cx="308" cy="239" r="5"/><circle cx="354" cy="200" r="5"/><circle cx="433" cy="171" r="6"/><circle cx="542" cy="185" r="5"/><circle cx="606" cy="208" r="4"/><circle cx="648" cy="183" r="4"/><circle cx="740" cy="195" r="6"/><circle cx="823" cy="208" r="4"/><circle cx="881" cy="163" r="5"/><circle cx="985" cy="238" r="6"/><circle cx="1067" cy="230" r="4"/><circle cx="1179" cy="228" r="4"/><circle cx="1250" cy="186" r="4"/><circle cx="1351" cy="178" r="6"/><circle cx="1364" cy="172" r="5"/><circle cx="1484" cy="169" r="5"/><circle cx="1560" cy="189" r="5"/><circle cx="1632" cy="201" r="4"/><circle cx="1748" cy="239" r="5"/><circle cx="1790" cy="203" r="6"/><circle cx="1875" cy="221" r="4"/><circle cx="1950" cy="190" r="6"/><circle cx="2079" cy="182" r="4"/><circle cx="2143" cy="217" r="6"/><circle cx="2190" cy="238" r="5"/><circle cx="2312" cy="193" r="4"/><circle cx="2378" cy="176" r="4"/><circle cx="2437" cy="205" r="6"/><circle cx="2487" cy="184" r="4"/><circle cx="28" cy="305" r="5"/><circle cx="118" cy="302" r="5"/><circle cx="189" cy="302" r="4"/><circle cx="319" cy="240" r="6"/><circle cx="329" cy="264" r="4"/><circle cx="435" cy="305" r="5"/><circle cx="544" cy="244" r="5"/><circle cx="618" cy="309" r="4"/><circle cx="653" cy="261" r="6"/><circle cx="758" cy="299" r="4"/><circle cx="862" cy="305" r="5"/><circle cx="890" cy="312" r="5"/><circle cx="1039" cy="316" r="6"/><circle cx="1056" cy="243" r="5"/><circle cx="1194" cy="244" r="4"/><circle cx="1232" cy="300" r="5"/><circle cx="1293" cy="264" r="6"/><circle cx="1382" cy="270" r="5"/><circle cx="1489" cy="282" r="4"/><circle cx="1547" cy="296" r="5"/><circle cx="1618" cy="294" r="6"/><circle cx="1750" cy="256" r="6"/><circle cx="1797" cy="304" r="5"/><circle cx="1886" cy="315" r="5"/><circle cx="1943" cy="249" r="4"/><circle cx="2035" cy="288" r="5"/><circle cx="2159" cy="250" r="4"/><circle cx="2188" cy="258" r="5"/><circle cx="2265" cy="305" r="4"/><circle cx="2382" cy="260" r="6"/><circle cx="2444" cy="256" r="4"/><circle cx="2552" cy="245" r="5"/><circle cx="14" cy="337" r="4"/><circle cx="95" cy="355" r="5"/><circle cx="200" cy="332" r="6"/><circle cx="295" cy="384" r="5"/><circle cx="370" cy="364" r="6"/><circle cx="444" cy="393" r="4"/><circle cx="555" cy="366" r="5"/><circle cx="571" cy="329" r="4"/><circle cx="676" cy="333" r="6"/><circle cx="777" cy="340" r="5"/><circle cx="813" cy="324" r="6"/><circle cx="934" cy="369" r="5"/><circle cx="988" cy="332" r="6"/><circle cx="1111" cy="345" r="4"/><circle cx="1173" cy="394" r="6"/><circle cx="1274" cy="392" r="6"/><circle cx="1286" cy="368" r="5"/><circle cx="1433" cy="321" r="5"/><circle cx="1443" cy="396" r="5"/><circle cx="1530" cy="353" r="4"/><circle cx="1612" cy="332" r="4"/><circle cx="1701" cy="328" r="5"/><circle cx="1817" cy="339" r="5"/><circle cx="1870" cy="394" r="5"/><circle cx="1937" cy="350" r="5"/><circle cx="2031" cy="339" r="5"/><circle cx="2111" cy="339" r="6"/><circle cx="2195" cy="353" r="4"/><circle cx="2317" cy="389" r="4"/><circle cx="2351" cy="356" r="5"/><circle cx="2404" cy="327" r="4"/><circle cx="2491" cy="392" r="5"/><circle cx="65" cy="468" r="6"/><circle cx="147" cy="434" r="5"/><circle cx="209" cy="467" r="5"/><circle cx="267" cy="462" r="4"/><circle cx="383" cy="414" r="4"/><circle cx="416" cy="446" r="4"/><circle cx="510" cy="439" r="4"/><circle cx="608" cy="468" r="5"/><circle cx="668" cy="427" r="5"/><circle cx="798" cy="449" r="5"/><circle cx="875" cy="411" r="6"/><circle cx="891" cy="415" r="6"/><circle cx="973" cy="418" r="4"/><circle cx="1114" cy="447" r="6"/><circle cx="1142" cy="458" r="5"/><circle cx="1263" cy="432" r="4"/><circle cx="1282" cy="403" r="5"/><circle cx="1372" cy="415" r="5"/><circle cx="1494" cy="433" r="6"/><circle cx="1570" cy="462" r="6"/><circle cx="1658" cy="462" r="5"/><circle cx="1689" cy="429" r="4"/><circle cx="1800" cy="427" r="5"/><circle cx="1872" cy="479" r="4"/><circle cx="1942" cy="411" r="5"/><circle cx="2028" cy="451" r="5"/><circle cx="2150" cy="436" r="5"/><circle cx="2201" cy="444" r="5"/><circle cx="2258" cy="407" r="6"/><circle cx="2382" cy="462" r="6"/><circle cx="2461" cy="403" r="5"/><circle cx="2510" cy="453" r="6"/><circle cx="42" cy="534" r="4"/><circle cx="88" cy="533" r="4"/><circle cx="203" cy="544" r="5"/><circle cx="256" cy="485" r="5"/><circle cx="364" cy="539" r="6"/><circle cx="473" cy="515" r="4"/><circle cx="512" cy="499" r="4"/><circle cx="564" cy="509" r="6"/><circle cx="693" cy="518" r="6"/><circle cx="726" cy="555" r="4"/><circle cx="830" cy="501" r="5"/><circle cx="955" cy="559" r="4"/><circle cx="964" cy="556" r="4"/><circle cx="1098" cy="504" r="5"/><circle cx="1142" cy="548" r="5"/><circle cx="1248" cy="536" r="6"/><circle cx="1326" cy="545" r="5"/><circle cx="1393" cy="505" r="5"/><circle cx="1488" cy="519" r="6"/><circle cx="1575" cy="555" r="4"/><circle cx="1631" cy="544" r="4"/><circle cx="1704" cy="553" r="5"/><circle cx="1834" cy="498" r="5"/><circle cx="1860" cy="481" r="4"/><circle cx="1978" cy="537" r="4"/><circle cx="2066" cy="495" r="6"/><circle cx="2096" cy="557" r="5"/><circle cx="2172" cy="540" r="4"/><circle cx="2309" cy="532" r="6"/><circle cx="2337" cy="503" r="6"/><circle cx="2432" cy="523" r="5"/><circle cx="2504" cy="489" r="5"/><circle cx="23" cy="635" r="6"/><circle cx="138" cy="630" r="4"/><circle cx="179" cy="599" r="6"/><circle cx="308" cy="596" r="6"/><circle cx="394" cy="608" r="6"/><circle cx="402" cy="564" r="5"/><circle cx="496" cy="640" r="4"/><circle cx="595" cy="565" r="4"/><circle cx="689" cy="595" r="5"/><circle cx="780" cy="590" r="4"/><circle cx="829" cy="587" r="6"/><circle cx="919" cy="624" r="6"/><circle cx="988" cy="638" r="5"/><circle cx="1099" cy="579" r="4"/><circle cx="1192" cy="596" r="6"/><circle cx="1249" cy="639" r="6"/><circle cx="1322" cy="570" r="4"/><circle cx="1423" cy="561" r="6"/><circle cx="1458" cy="624" r="5"/><circle cx="1581" cy="594" r="6"/><circle cx="1673" cy="629" r="5"/><circle cx="1730" cy="574" r="6"/><circle cx="1816" cy="624" r="5"/><circle cx="1884" cy="573" r="5"/><circle cx="1944" cy="607" r="4"/><circle cx="2031" cy="580" r="4"/><circle cx="2093" cy="588" r="4"/><circle cx="2183" cy="638" r="6"/><circle cx="2276" cy="611" r="4"/><circle cx="2379" cy="592" r="5"/><circle cx="2460" cy="563" r="5"/><circle cx="2537" cy="602" r="5"/><circle cx="34" cy="715" r="5"/><circle cx="105" cy="681" r="5"/><circle cx="191" cy="683" r="5"/><circle cx="312" cy="663" r="6"/><circle cx="346" cy="650" r="5"/><circle cx="459" cy="658" r="5"/><circle cx="488" cy="680" r="5"/><circle cx="569" cy="713" r="6"/><circle cx="688" cy="645" r="5"/><circle cx="796" cy="687" r="6"/><circle cx="859" cy="688" r="5"/><circle cx="888" cy="651" r="6"/><circle cx="965" cy="654" r="4"/><circle cx="1105" cy="698" r="6"/><circle cx="1163" cy="669" r="6"/><circle cx="1236" cy="665" r="6"/><circle cx="1326" cy="660" r="6"/><circle cx="1405" cy="652" r="6"/><circle cx="1453" cy="671" r="5"/><circle cx="1526" cy="697" r="5"/><circle cx="1620" cy="649" r="5"/><circle cx="1706" cy="687" r="5"/><circle cx="1760" cy="694" r="4"/><circle cx="1851" cy="703" r="5"/><circle cx="1923" cy="664" r="6"/><circle cx="2058" cy="682" r="5"/><circle cx="2142" cy="683" r="5"/><circle cx="2230" cy="706" r="5"/><circle cx="2244" cy="694" r="5"/><circle cx="2378" cy="644" r="5"/><circle cx="2433" cy="652" r="4"/><circle cx="2532" cy="684" r="4"/><circle cx="62" cy="771" r="5"/><circle cx="124" cy="791" r="6"/><circle cx="227" cy="739" r="5"/><circle cx="293" cy="798" r="5"/><circle cx="397" cy="764" r="6"/><circle cx="470" cy="746" r="6"/><circle cx="505" cy="795" r="5"/><circle cx="563" cy="771" r="5"/><circle cx="712" cy="741" r="4"/><circle cx="749" cy="748" r="6"/><circle cx="837" cy="786" r="5"/><circle cx="951" cy="738" r="4"/><circle cx="972" cy="794" r="5"/><circle cx="1093" cy="790" r="4"/><circle cx="1122" cy="777" r="5"/><circle cx="1263" cy="757" r="5"/><circle cx="1304" cy="746" r="5"/><circle cx="1434" cy="786" r="5"/><circle cx="1449" cy="797" r="5"/><circle cx="1566" cy="722" r="6"/><circle cx="1656" cy="724" r="5"/><circle cx="1723" cy="782" r="5"/><circle cx="1766" cy="782" r="5"/><circle cx="1859" cy="722" r="5"/><circle cx="1995" cy="732" r="4"/><circle cx="2035" cy="724" r="5"/><circle cx="2110" cy="721" r="5"/><circle cx="2187" cy="729" r="5"/><circle cx="2296" cy="778" r="5"/><circle cx="2377" cy="755" r="6"/><circle cx="2448" cy="745" r="6"/><circle cx="2552" cy="723" r="5"/><circle cx="34" cy="803" r="5"/><circle cx="133" cy="803" r="4"/><circle cx="199" cy="864" r="5"/><circle cx="293" cy="863" r="4"/><circle cx="367" cy="857" r="5"/><circle cx="440" cy="880" r="6"/><circle cx="511" cy="848" r="5"/><circle cx="592" cy="822" r="5"/><circle cx="715" cy="827" r="6"/><circle cx="768" cy="850" r="5"/><circle cx="840" cy="870" r="5"/><circle cx="884" cy="812" r="5"/><circle cx="1022" cy="863" r="6"/><circle cx="1089" cy="819" r="6"/><circle cx="1179" cy="873" r="4"/><circle cx="1224" cy="864" r="4"/><circle cx="1298" cy="833" r="5"/><circle cx="1410" cy="865" r="4"/><circle cx="1494" cy="830" r="4"/><circle cx="1558" cy="833" r="5"/><circle cx="1612" cy="800" r="4"/><circle cx="1753" cy="843" r="5"/><circle cx="1814" cy="808" r="5"/><circle cx="1857" cy="853" r="4"/><circle cx="1984" cy="833" r="6"/><circle cx="2042" cy="875" r="6"/><circle cx="2160" cy="862" r="5"/><circle cx="2222" cy="862" r="5"/><circle cx="2303" cy="813" r="4"/><circle cx="2358" cy="806" r="4"/><circle cx="2441" cy="812" r="6"/><circle cx="2480" cy="806" r="6"/><circle cx="71" cy="892" r="5"/><circle cx="121" cy="922" r="6"/><circle cx="201" cy="909" r="4"/><circle cx="303" cy="939" r="6"/><circle cx="385" cy="897" r="6"/><circle cx="411" cy="913" r="6"/><circle cx="506" cy="934" r="4"/><circle cx="578" cy="897" r="4"/><circle cx="711" cy="881" r="6"/><circle cx="742" cy="899" r="4"/><circle cx="827" cy="960" r="5"/><circle cx="932" cy="905" r="4"/><circle cx="1001" cy="899" r="5"/><circle cx="1071" cy="892" r="6"/><circle cx="1123" cy="897" r="5"/><circle cx="1250" cy="885" r="5"/><circle cx="1316" cy="941" r="5"/><circle cx="1394" cy="909" r="6"/><circle cx="1497" cy="926" r="5"/><circle cx="1536" cy="945" r="4"/><circle cx="1630" cy="892" r="6"/><circle cx="1705" cy="888" r="6"/><circle cx="1767" cy="903" r="4"/><circle cx="1898" cy="891" r="6"/><circle cx="1946" cy="952" r="5"/><circle cx="2052" cy="934" r="4"/><circle cx="2124" cy="890" r="5"/><circle cx="2166" cy="942" r="5"/><circle cx="2253" cy="917" r="5"/><circle cx="2342" cy="932" r="4"/><circle cx="2437" cy="907" r="6"/><circle cx="2514" cy="924" r="5"/><circle cx="24" cy="969" r="5"/><circle cx="84" cy="1031" r="4"/><circle cx="190" cy="990" r="5"/><circle cx="287" cy="1011" r="6"/><circle cx="386" cy="994" r="6"/><circle cx="456" cy="1026" r="5"/><circle cx="545" cy="999" r="6"/><circle cx="565" cy="1032" r="5"/><circle cx="643" cy="998" r="4"/><circle cx="784" cy="1021" r="4"/><circle cx="826" cy="1033" r="6"/><circle cx="938" cy="1013" r="5"/><circle cx="989" cy="1005" r="5"/><circle cx="1071" cy="1034" r="6"/><circle cx="1132" cy="983" r="4"/><circle cx="1211" cy="982" r="5"/><circle cx="1302" cy="1029" r="6"/><circle cx="1432" cy="1009" r="6"/><circle cx="1503" cy="999" r="6"/><circle cx="1524" cy="994" r="5"/><circle cx="1641" cy="960" r="4"/><circle cx="1698" cy="1039" r="4"/><circle cx="1811" cy="967" r="5"/><circle cx="1893" cy="966" r="6"/><circle cx="1981" cy="1009" r="5"/><circle cx="2059" cy="980" r="5"/><circle cx="2120" cy="993" r="5"/><circle cx="2235" cy="1017" r="4"/><circle cx="2288" cy="991" r="5"/><circle cx="2365" cy="994" r="5"/><circle cx="2400" cy="960" r="6"/><circle cx="2528" cy="965" r="6"/><circle cx="41" cy="1112" r="6"/><circle cx="116" cy="1087" r="6"/><circle cx="238" cy="1076" r="5"/><circle cx="305" cy="1051" r="5"/><circle cx="364" cy="1054" r="4"/><circle cx="437" cy="1064" r="5"/><circle cx="516" cy="1107" r="6"/><circle cx="605" cy="1062" r="4"/><circle cx="659" cy="1051" r="5"/><circle cx="761" cy="1091" r="5"/><circle cx="857" cy="1083" r="4"/><circle cx="918" cy="1119" r="5"/><circle cx="981" cy="1041" r="5"/><circle cx="1083" cy="1110" r="5"/><circle cx="1145" cy="1045" r="6"/><circle cx="1253" cy="1070" r="5"/><circle cx="1341" cy="1094" r="5"/><circle cx="1404" cy="1085" r="4"/><circle cx="1487" cy="1049" r="5"/><circle cx="1539" cy="1100" r="5"/><circle cx="1611" cy="1111" r="5"/><circle cx="1683" cy="1086" r="6"/><circle cx="1826" cy="1096" r="6"/><circle cx="1874" cy="1088" r="5"/><circle cx="1944" cy="1046" r="6"/><circle cx="2053" cy="1071" r="4"/><circle cx="2096" cy="1059" r="6"/><circle cx="2179" cy="1105" r="5"/><circle cx="2281" cy="1043" r="5"/><circle cx="2340" cy="1059" r="4"/><circle cx="2435" cy="1081" r="5"/><circle cx="2534" cy="1074" r="5"/><circle cx="55" cy="1164" r="6"/><circle cx="83" cy="1198" r="5"/><circle cx="178" cy="1140" r="5"/><circle cx="316" cy="1148" r="6"/><circle cx="369" cy="1194" r="4"/><circle cx="429" cy="1157" r="5"/><circle cx="505" cy="1172" r="4"/><circle cx="572" cy="1129" r="5"/><circle cx="705" cy="1154" r="6"/><circle cx="744" cy="1126" r="5"/><circle cx="875" cy="1194" r="5"/><circle cx="899" cy="1154" r="5"/><circle cx="974" cy="1153" r="5"/><circle cx="1045" cy="1159" r="5"/><circle cx="1199" cy="1185" r="5"/><circle cx="1278" cy="1181" r="5"/><circle cx="1333" cy="1168" r="5"/><circle cx="1439" cy="1173" r="5"/><circle cx="1471" cy="1136" r="4"/><circle cx="1560" cy="1133" r="5"/><circle cx="1643" cy="1166" r="6"/><circle cx="1701" cy="1198" r="5"/><circle cx="1809" cy="1198" r="5"/><circle cx="1858" cy="1167" r="5"/><circle cx="1945" cy="1146" r="5"/><circle cx="2054" cy="1192" r="5"/><circle cx="2111" cy="1190" r="6"/><circle cx="2173" cy="1184" r="4"/><circle cx="2240" cy="1158" r="5"/><circle cx="2361" cy="1144" r="4"/><circle cx="2451" cy="1188" r="4"/><circle cx="2502" cy="1192" r="5"/><circle cx="74" cy="1271" r="6"/><circle cx="111" cy="1241" r="4"/><circle cx="197" cy="1261" r="5"/><circle cx="273" cy="1219" r="6"/><circle cx="373" cy="1226" r="4"/><circle cx="471" cy="1219" r="4"/><circle cx="559" cy="1235" r="5"/><circle cx="621" cy="1241" r="6"/><circle cx="687" cy="1221" r="5"/><circle cx="725" cy="1249" r="4"/><circle cx="864" cy="1264" r="5"/><circle cx="955" cy="1206" r="6"/><circle cx="975" cy="1253" r="5"/><circle cx="1095" cy="1255" r="4"/><circle cx="1173" cy="1253" r="5"/><circle cx="1221" cy="1263" r="6"/><circle cx="1357" cy="1219" r="5"/><circle cx="1416" cy="1215" r="5"/><circle cx="1492" cy="1206" r="4"/><circle cx="1575" cy="1208" r="5"/><circle cx="1651" cy="1221" r="5"/><circle cx="1719" cy="1203" r="6"/><circle cx="1813" cy="1268" r="5"/><circle cx="1841" cy="1268" r="6"/><circle cx="1930" cy="1277" r="6"/><circle cx="2044" cy="1210" r="5"/><circle cx="2123" cy="1227" r="5"/><circle cx="2217" cy="1263" r="4"/><circle cx="2267" cy="1211" r="5"/><circle cx="2386" cy="1276" r="6"/><circle cx="2417" cy="1227" r="5"/><circle cx="2491" cy="1256" r="6"/><circle cx="3" cy="1283" r="5"/><circle cx="2563" cy="1283" r="5"/><circle cx="113" cy="1301" r="5"/><circle cx="201" cy="1342" r="5"/><circle cx="315" cy="1291" r="4"/><circle cx="329" cy="1354" r="4"/><circle cx="448" cy="1346" r="4"/><circle cx="548" cy="1355" r="6"/><circle cx="604" cy="1357" r="5"/><circle cx="679" cy="1289" r="4"/><circle cx="760" cy="1354" r="5"/><circle cx="857" cy="1315" r="6"/><circle cx="957" cy="1333" r="4"/><circle cx="1026" cy="1280" r="5"/><circle cx="1075" cy="1360" r="4"/><circle cx="1146" cy="1311" r="5"/><circle cx="1205" cy="1304" r="5"/><circle cx="1286" cy="1286" r="5"/><circle cx="1369" cy="1351" r="6"/><circle cx="1494" cy="1303" r="5"/><circle cx="1551" cy="1325" r="5"/><circle cx="1661" cy="1335" r="6"/><circle cx="1695" cy="1339" r="6"/><circle cx="1784" cy="1290" r="6"/><circle cx="1889" cy="1327" r="6"/><circle cx="1956" cy="1321" r="4"/><circle cx="2011" cy="1360" r="5"/><circle cx="2131" cy="1319" r="6"/><circle cx="2163" cy="1345" r="4"/><circle cx="2276" cy="1290" r="5"/><circle cx="2389" cy="1298" r="5"/><circle cx="2407" cy="1356" r="5"/><circle cx="2507" cy="1315" r="6"/><circle cx="60" cy="1419" r="4"/><circle cx="117" cy="1407" r="6"/><circle cx="197" cy="1384" r="5"/><circle cx="312" cy="1361" r="4"/><circle cx="399" cy="1412" r="5"/><circle cx="406" cy="1430" r="5"/><circle cx="532" cy="1408" r="6"/><circle cx="566" cy="1398" r="4"/><circle cx="657" cy="1364" r="4"/><circle cx="787" cy="1388" r="5"/><circle cx="860" cy="1383" r="4"/><circle cx="946" cy="1367" r="4"/><circle cx="995" cy="1429" r="5"/><circle cx="1113" cy="1399" r="5"/><circle cx="1154" cy="1394" r="5"/><circle cx="1244" cy="1418" r="5"/><circle cx="1357" cy="1427" r="5"/><circle cx="1408" cy="1415" r="4"/><circle cx="1507" cy="1399" r="5"/><circle cx="1543" cy="1432" r="6"/><circle cx="1648" cy="1360" r="4"/><circle cx="1696" cy="1414" r="4"/><circle cx="1812" cy="1437" r="5"/><circle cx="1812" cy="-3" r="5"/><circle cx="1883" cy="1399" r="4"/><circle cx="1940" cy="1381" r="5"/><circle cx="2065" cy="1369" r="4"/><circle cx="2156" cy="1425" r="5"/><circle cx="2168" cy="1423" r="5"/><circle cx="2241" cy="1393" r="5"/><circle cx="2357" cy="1382" r="5"/><circle cx="2442" cy="1427" r="5"/><circle cx="2498" cy="1366" r="5"/><path stroke="#fff" d="M73 70L158 64M73 70L160 60M73 70L77 93M73 70L105 143M73 70L60 -21M73 1510L60 1419M158 64L160 60M158 64L77 93M158 64L105 143M158 64L227 103M160 60L246 55M160 60L77 93M160 60L227 103M246 55L227 103M246 55L197 -56M246 1495L197 1384M373 76L442 61M373 76L319 130M373 76L392 142M373 76L404 160M373 76L406 -10M373 1516L406 1430M442 61L399 -28M442 61L406 -10M442 1501L399 1412M442 1501L406 1430M540 36L581 68M540 36L532 -32M540 36L566 -42M540 1476L532 1408M540 1476L566 1398M581 68L670 64M581 68L546 149M581 68L632 104M581 68L652 98M670 64L744 1M670 64L632 104M670 64L652 98M670 64L726 147M744 1L760 -86M744 1L787 -52M744 1441L760 1354M744 1441L787 1388M848 52L932 29M848 52L817 151M848 52L787 -52M848 52L860 -57M848 1492L787 1388M848 1492L860 1383M932 29L949 133M932 29L946 -73M932 29L995 -11M932 1469L946 1367M932 1469L995 1429M1023 75L1103 80M1023 75L949 133M1023 75L1037 157M1023 75L1100 83M1023 75L995 -11M1023 1515L995 1429M1103 80L1151 35M1103 80L1100 83M1151 35L1219 4M1151 35L1100 83M1151 35L1113 -41M1151 35L1154 -46M1151 1475L1113 1399M1151 1475L1154 1394M1219 4L1285 5M1219 4L1113 -41M1219 4L1154 -46M1219 4L1244 -22M1219 1444L1113 1399M1219 1444L1154 1394M1219 1444L1244 1418M1285 5L1369 -89M1285 5L1244 -22M1285 5L1357 -13M1285 1445L1369 1351M1285 1445L1244 1418M1285 1445L1357 1427M1416 15L1488 53M1416 15L1414 96M1416 15L1357 -13M1416 15L1408 -25M1416 1455L1357 1427M1416 1455L1408 1415M1488 53L1544 24M1488 53L1414 96M1488 53L1507 -41M1488 53L1543 -8M1488 1493L1507 1399M1488 1493L1543 1432M1544 24L1507 -41M1544 24L1543 -8M1544 1464L1507 1399M1544 1464L1543 1432M1672 0L1695 54M1672 0L1661 -105M1672 0L1695 -101M1672 0L1648 -80M1672 0L1696 -26M1672 1440L1661 1335M1672 1440L1695 1339M1672 1440L1648 1360M1672 1440L1696 1414M1695 54L1770 26M1695 54L1754 150M1695 54L1794 90M1695 54L1696 -26M1695 1494L1696 1414M1770 26L1794 90M1770 26L1812 -3M1770 1466L1812 1437M1880 20L1978 38M1880 20L1876 119M1880 20L1812 -3M1880 20L1883 -41M1880 20L1940 -59M1880 1460L1812 1437M1880 1460L1883 1399M1880 1460L1940 1381M1978 38L2055 66M1978 38L1976 88M2055 66L2144 56M2055 66L1976 88M2055 66L2049 133M2055 66L2105 127M2144 56L2168 28M2144 56L2105 127M2144 56L2156 -15M2144 56L2168 -17M2144 1496L2156 1425M2144 1496L2168 1423M2168 28L2261 37M2168 28L2156 -15M2168 28L2168 -17M2168 28L2241 -47M2168 1468L2156 1425M2168 1468L2168 1423M2168 1468L2241 1393M2261 37L2348 28M2261 37L2302 115M2261 37L2241 -47M2261 1477L2241 1393M2348 28L2405 43M2348 28L2302 115M2348 28L2332 120M2348 28L2357 -58M2348 1468L2357 1382M2405 43L2504 76M2405 43L2332 120M2405 43L2459 90M2405 43L2442 -13M2405 1483L2442 1427M2504 76L2459 90M2504 76L2513 133M2504 76L2442 -13M2504 1516L2442 1427M77 93L105 143M77 93L84 170M105 143L15 190M105 143L84 170M227 103L319 130M227 103L206 187M319 130L392 142M319 130L404 160M392 142L404 160M392 142L354 200M392 142L433 171M404 160L354 200M404 160L433 171M546 149L632 104M546 149L542 185M546 149L606 208M546 149L544 244M632 104L652 98M632 104L648 183M652 98L726 147M726 147L817 151M726 147L648 183M726 147L740 195M817 151L740 195M817 151L823 208M817 151L881 163M949 133L1037 157M949 133L881 163M1037 157L985 238M1037 157L1067 230M1037 157L1056 243M1100 83L1183 154M1100 83L1113 -41M1100 1523L1113 1399M1183 154L1270 134M1183 154L1179 228M1183 154L1250 186M1183 154L1194 244M1270 134L1318 159M1270 134L1250 186M1270 134L1351 178M1270 134L1364 172M1318 159L1250 186M1318 159L1351 178M1318 159L1364 172M1414 96L1454 153M1454 153L1557 150M1454 153L1364 172M1454 153L1484 169M1557 150L1633 151M1557 150L1484 169M1557 150L1560 189M1557 150L1632 201M1633 151L1560 189M1633 151L1632 201M1754 150L1794 90M1754 150L1748 239M1754 150L1790 203M1794 90L1876 119M1794 90L1812 -3M1794 1530L1812 1437M1876 119L1976 88M1876 119L1875 221M1876 119L1950 190M1976 88L2049 133M1976 88L1950 190M2049 133L2105 127M2049 133L1950 190M2049 133L2079 182M2105 127L2079 182M2200 156L2143 217M2200 156L2190 238M2200 156L2159 250M2302 115L2332 120M2302 115L2312 193M2302 115L2378 176M2332 120L2312 193M2332 120L2378 176M2459 90L2513 133M2513 133L2575 190M2513 133L2437 205M2513 133L2487 184M-47 133L15 190M15 190L84 170M15 190L-73 184M15 190L-8 245M2575 190L2487 184M2575 190L2552 245M84 170L206 187M206 187L308 239M206 187L189 302M206 187L319 240M308 239L354 200M308 239L319 240M308 239L329 264M354 200L319 240M354 200L329 264M433 171L542 185M433 171L435 305M542 185L606 208M542 185L544 244M606 208L648 183M606 208L544 244M606 208L653 261M648 183L740 195M648 183L653 261M740 195L823 208M740 195L653 261M823 208L881 163M985 238L1067 230M985 238L1039 316M985 238L1056 243M985 238L988 332M1067 230L1039 316M1067 230L1056 243M1179 228L1194 244M1179 228L1232 300M1250 186L1194 244M1250 186L1293 264M1351 178L1364 172M1351 178L1293 264M1351 178L1382 270M1364 172L1382 270M1484 169L1560 189M1484 169L1489 282M1560 189L1632 201M1560 189L1547 296M1632 201L1618 294M1748 239L1790 203M1748 239L1750 256M1748 239L1797 304M1748 239L1701 328M1790 203L1875 221M1790 203L1750 256M1790 203L1797 304M1875 221L1950 190M1875 221L1943 249M1950 190L1943 249M2079 182L2143 217M2079 182L2035 288M2143 217L2190 238M2143 217L2159 250M2143 217L2188 258M2190 238L2159 250M2190 238L2188 258M2190 238L2265 305M2312 193L2378 176M2312 193L2382 260M2378 176L2437 205M2378 176L2382 260M2437 205L2487 184M2437 205L2382 260M2437 205L2444 256M2487 184L2444 256M2487 184L2552 245M28 305L118 302M28 305L-8 245M28 305L14 337M28 305L95 355M2588 305L2552 245M118 302L189 302M118 302L14 337M118 302L95 355M118 302L200 332M189 302L200 332M319 240L329 264M329 264L435 305M435 305L370 364M435 305L444 393M544 244L571 329M618 309L653 261M618 309L555 366M618 309L571 329M618 309L676 333M653 261L676 333M758 299L676 333M758 299L777 340M758 299L813 324M862 305L890 312M862 305L777 340M862 305L813 324M890 312L813 324M890 312L934 369M890 312L988 332M1039 316L1056 243M1039 316L988 332M1039 316L1111 345M1194 244L1232 300M1194 244L1293 264M1232 300L1293 264M1232 300L1286 368M1293 264L1382 270M1382 270L1489 282M1382 270L1433 321M1489 282L1547 296M1489 282L1433 321M1489 282L1530 353M1547 296L1618 294M1547 296L1530 353M1547 296L1612 332M1618 294L1612 332M1618 294L1701 328M1750 256L1797 304M1750 256L1701 328M1750 256L1817 339M1797 304L1886 315M1797 304L1817 339M1886 315L1943 249M1886 315L1817 339M1886 315L1870 394M1886 315L1937 350M1943 249L2035 288M1943 249L1937 350M2035 288L2031 339M2035 288L2111 339M2159 250L2188 258M2159 250L2111 339M2188 258L2265 305M2188 258L2195 353M2265 305L2195 353M2265 305L2351 356M2265 305L2258 407M2382 260L2444 256M2382 260L2404 327M2444 256L2552 245M2444 256L2404 327M2552 245L2574 337M-8 245L14 337M14 337L95 355M14 337L-69 392M2574 337L2491 392M95 355L200 332M95 355L147 434M200 332L295 384M200 332L147 434M295 384L370 364M295 384L267 462M295 384L383 414M295 384L256 485M370 364L444 393M370 364L383 414M370 364L416 446M444 393L383 414M444 393L416 446M444 393L510 439M555 366L571 329M555 366L510 439M676 333L777 340M676 333L668 427M777 340L813 324M813 324L875 411M934 369L988 332M934 369L875 411M934 369L891 415M934 369L973 418M988 332L973 418M1111 345L1173 394M1111 345L1114 447M1173 394L1274 392M1173 394L1114 447M1173 394L1142 458M1173 394L1282 403M1274 392L1286 368M1274 392L1263 432M1274 392L1282 403M1274 392L1372 415M1286 368L1263 432M1286 368L1282 403M1286 368L1372 415M1433 321L1443 396M1443 396L1530 353M1443 396L1372 415M1443 396L1494 433M1530 353L1612 332M1530 353L1494 433M1612 332L1701 328M1701 328L1689 429M1817 339L1870 394M1817 339L1800 427M1870 394L1937 350M1870 394L1800 427M1870 394L1942 411M1937 350L2031 339M1937 350L1942 411M2031 339L2111 339M2031 339L1942 411M2031 339L2028 451M2111 339L2195 353M2111 339L2150 436M2195 353L2201 444M2195 353L2258 407M2317 389L2351 356M2317 389L2258 407M2317 389L2382 462M2317 389L2337 503M2351 356L2404 327M2351 356L2258 407M2404 327L2491 392M2404 327L2461 403M2491 392L2461 403M2491 392L2510 453M2491 392L2504 489M65 468L147 434M65 468L-50 453M65 468L42 534M65 468L88 533M2625 468L2510 453M147 434L209 467M209 467L267 462M209 467L203 544M209 467L256 485M267 462L203 544M267 462L256 485M383 414L416 446M416 446L364 539M416 446L473 515M510 439L473 515M510 439L512 499M510 439L564 509M608 468L668 427M608 468L512 499M608 468L564 509M608 468L693 518M608 468L595 565M668 427L693 518M798 449L875 411M798 449L891 415M798 449L830 501M875 411L891 415M875 411L830 501M891 415L973 418M891 415L830 501M1114 447L1142 458M1114 447L1098 504M1114 447L1142 548M1142 458L1098 504M1142 458L1142 548M1263 432L1282 403M1263 432L1248 536M1282 403L1372 415M1372 415L1393 505M1494 433L1570 462M1494 433L1488 519M1570 462L1658 462M1570 462L1488 519M1570 462L1575 555M1570 462L1631 544M1658 462L1689 429M1658 462L1631 544M1658 462L1704 553M1800 427L1872 479M1800 427L1834 498M1800 427L1860 481M1872 479L1942 411M1872 479L1834 498M1872 479L1860 481M1872 479L1884 573M1942 411L2028 451M2028 451L1978 537M2028 451L2066 495M2150 436L2201 444M2150 436L2172 540M2201 444L2258 407M2201 444L2172 540M2382 462L2461 403M2382 462L2309 532M2382 462L2337 503M2382 462L2432 523M2461 403L2510 453M2461 403L2504 489M2510 453L2504 489M42 534L88 533M42 534L-23 602M2602 534L2537 602M88 533L179 599M203 544L256 485M203 544L179 599M364 539L308 596M364 539L394 608M364 539L402 564M364 539L346 650M473 515L512 499M473 515L564 509M473 515L402 564M512 499L564 509M512 499L595 565M564 509L595 565M693 518L726 555M693 518L595 565M693 518L689 595M726 555L689 595M726 555L780 590M726 555L688 645M830 501L780 590M830 501L829 587M955 559L964 556M955 559L919 624M955 559L988 638M955 559L965 654M964 556L988 638M1098 504L1142 548M1098 504L1099 579M1142 548L1099 579M1142 548L1192 596M1248 536L1326 545M1248 536L1192 596M1248 536L1249 639M1248 536L1322 570M1326 545L1393 505M1326 545L1322 570M1326 545L1423 561M1393 505L1488 519M1393 505L1322 570M1393 505L1423 561M1488 519L1575 555M1488 519L1423 561M1575 555L1631 544M1575 555L1581 594M1631 544L1704 553M1631 544L1581 594M1704 553L1673 629M1704 553L1730 574M1834 498L1860 481M1834 498L1730 574M1834 498L1884 573M1978 537L2066 495M1978 537L1944 607M1978 537L2031 580M2066 495L2096 557M2066 495L2031 580M2066 495L2093 588M2096 557L2172 540M2096 557L2031 580M2096 557L2093 588M2309 532L2337 503M2309 532L2276 611M2309 532L2379 592M2337 503L2432 523M2432 523L2504 489M2432 523L2379 592M2432 523L2460 563M2504 489L2460 563M23 635L-23 602M23 635L34 715M23 635L105 681M23 635L-28 684M23 635L-8 723M2583 635L2537 602M2583 635L2532 684M2583 635L2552 723M138 630L179 599M138 630L105 681M138 630L191 683M179 599L191 683M308 596L394 608M308 596L402 564M308 596L312 663M308 596L346 650M394 608L402 564M394 608L346 650M394 608L459 658M402 564L346 650M496 640L459 658M496 640L488 680M595 565L689 595M689 595L780 590M689 595L688 645M780 590L829 587M829 587L796 687M829 587L888 651M919 624L988 638M919 624L859 688M919 624L888 651M919 624L965 654M988 638L965 654M1192 596L1249 639M1192 596L1163 669M1192 596L1236 665M1249 639L1163 669M1249 639L1236 665M1249 639L1326 660M1322 570L1326 660M1423 561L1458 624M1423 561L1405 652M1458 624L1405 652M1458 624L1453 671M1458 624L1526 697M1581 594L1526 697M1581 594L1620 649M1673 629L1730 574M1673 629L1620 649M1673 629L1706 687M1730 574L1816 624M1816 624L1884 573M1816 624L1760 694M1816 624L1851 703M1884 573L1944 607M1884 573L1923 664M1944 607L2031 580M1944 607L1923 664M2031 580L2093 588M2093 588L2058 682M2183 638L2276 611M2183 638L2142 683M2183 638L2230 706M2183 638L2244 694M2183 638L2187 729M2276 611L2244 694M2276 611L2378 644M2379 592L2460 563M2379 592L2378 644M2379 592L2433 652M2460 563L2537 602M2460 563L2433 652M2537 602L2532 684M34 715L105 681M34 715L-28 684M34 715L62 771M34 715L-8 723M2594 715L2532 684M2594 715L2552 723M105 681L191 683M191 683L312 663M191 683L227 739M312 663L346 650M312 663L227 739M459 658L488 680M459 658L470 746M488 680L569 713M488 680L470 746M569 713L505 795M569 713L563 771M569 713L592 822M688 645L712 741M796 687L859 688M796 687L888 651M796 687L749 748M859 688L888 651M859 688L837 786M859 688L951 738M888 651L965 654M965 654L951 738M1105 698L1163 669M1105 698L1093 790M1105 698L1122 777M1163 669L1236 665M1163 669L1122 777M1236 665L1326 660M1236 665L1263 757M1326 660L1405 652M1326 660L1304 746M1405 652L1453 671M1453 671L1526 697M1453 671L1434 786M1526 697L1566 722M1620 649L1706 687M1620 649L1566 722M1620 649L1656 724M1706 687L1760 694M1706 687L1656 724M1706 687L1723 782M1760 694L1851 703M1760 694L1766 782M1851 703L1923 664M1851 703L1859 722M1923 664L1859 722M1923 664L1995 732M2058 682L2142 683M2058 682L1995 732M2058 682L2035 724M2058 682L2110 721M2142 683L2230 706M2142 683L2110 721M2142 683L2187 729M2230 706L2244 694M2230 706L2187 729M2230 706L2296 778M2244 694L2187 729M2244 694L2296 778M2378 644L2433 652M2433 652L2448 745M2532 684L2552 723M62 771L124 791M62 771L-8 723M62 771L34 803M62 771L133 803M2622 771L2552 723M124 791L227 739M124 791L34 803M124 791L133 803M124 791L199 864M227 739L293 798M293 798L397 764M293 798L293 863M397 764L470 746M397 764L367 857M470 746L505 795M470 746L563 771M505 795L563 771M505 795L511 848M505 795L592 822M563 771L511 848M563 771L592 822M712 741L749 748M712 741L715 827M749 748L837 786M749 748L715 827M837 786L768 850M837 786L840 870M837 786L884 812M951 738L972 794M951 738L884 812M972 794L884 812M972 794L1022 863M972 794L1001 899M1093 790L1122 777M1093 790L1089 819M1093 790L1071 892M1122 777L1089 819M1263 757L1304 746M1263 757L1224 864M1263 757L1298 833M1304 746L1298 833M1434 786L1449 797M1434 786L1410 865M1434 786L1494 830M1449 797L1410 865M1449 797L1494 830M1449 797L1394 909M1566 722L1656 724M1566 722L1558 833M1566 722L1612 800M1656 724L1723 782M1656 724L1612 800M1723 782L1766 782M1723 782L1753 843M1723 782L1814 808M1766 782L1859 722M1766 782L1753 843M1766 782L1814 808M1859 722L1814 808M1995 732L2035 724M1995 732L2110 721M1995 732L1984 833M2035 724L2110 721M2035 724L1984 833M2110 721L2187 729M2296 778L2377 755M2296 778L2303 813M2296 778L2358 806M2377 755L2448 745M2377 755L2303 813M2377 755L2358 806M2377 755L2441 812M2448 745L2441 812M2448 745L2480 806M2552 723L2594 803M-8 723L34 803M34 803L-80 806M34 803L71 892M2594 803L2480 806M133 803L199 864M133 803L71 892M199 864L293 863M199 864L121 922M199 864L201 909M293 863L367 857M293 863L303 939M367 857L440 880M367 857L385 897M367 857L411 913M440 880L511 848M440 880L385 897M440 880L411 913M440 880L506 934M511 848L592 822M511 848L578 897M592 822L578 897M715 827L768 850M715 827L711 881M715 827L742 899M768 850L840 870M768 850L711 881M768 850L742 899M840 870L884 812M840 870L827 960M840 870L932 905M884 812L932 905M1022 863L1089 819M1022 863L1001 899M1022 863L1071 892M1022 863L1123 897M1089 819L1071 892M1089 819L1123 897M1179 873L1224 864M1179 873L1123 897M1179 873L1250 885M1224 864L1298 833M1224 864L1250 885M1298 833L1250 885M1298 833L1316 941M1410 865L1494 830M1410 865L1394 909M1494 830L1558 833M1558 833L1612 800M1558 833L1630 892M1612 800L1630 892M1753 843L1814 808M1753 843L1705 888M1753 843L1767 903M1814 808L1857 853M1857 853L1767 903M1857 853L1898 891M1984 833L2042 875M1984 833L1898 891M2042 875L2160 862M2042 875L2052 934M2042 875L2124 890M2160 862L2222 862M2160 862L2124 890M2160 862L2166 942M2160 862L2253 917M2222 862L2303 813M2222 862L2124 890M2222 862L2166 942M2222 862L2253 917M2303 813L2358 806M2358 806L2441 812M2441 812L2480 806M2441 812L2437 907M2480 806L2437 907M2480 806L2514 924M71 892L121 922M71 892L24 969M121 922L201 909M121 922L24 969M121 922L190 990M201 909L190 990M303 939L385 897M303 939L411 913M303 939L287 1011M385 897L411 913M385 897L386 994M411 913L386 994M506 934L578 897M506 934L545 999M711 881L742 899M742 899L827 960M827 960L784 1021M827 960L826 1033M932 905L1001 899M932 905L989 1005M1001 899L1071 892M1001 899L989 1005M1071 892L1123 897M1123 897L1132 983M1250 885L1316 941M1250 885L1211 982M1316 941L1394 909M1316 941L1302 1029M1394 909L1497 926M1394 909L1432 1009M1497 926L1536 945M1497 926L1503 999M1497 926L1524 994M1536 945L1630 892M1536 945L1503 999M1536 945L1524 994M1630 892L1705 888M1630 892L1641 960M1705 888L1767 903M1705 888L1641 960M1705 888L1811 967M1767 903L1811 967M1898 891L1946 952M1898 891L1811 967M1898 891L1893 966M1946 952L1893 966M1946 952L1981 1009M1946 952L1944 1046M2052 934L2124 890M2052 934L2059 980M2052 934L2120 993M2124 890L2166 942M2166 942L2253 917M2166 942L2120 993M2253 917L2342 932M2253 917L2288 991M2342 932L2288 991M2342 932L2365 994M2342 932L2400 960M2437 907L2514 924M2437 907L2400 960M2437 907L2528 965M2514 924L2584 969M2514 924L2400 960M2514 924L2528 965M-46 924L24 969M24 969L84 1031M24 969L-32 965M2584 969L2528 965M84 1031L41 1112M84 1031L116 1087M190 990L116 1087M190 990L238 1076M287 1011L238 1076M287 1011L305 1051M287 1011L364 1054M386 994L456 1026M386 994L364 1054M386 994L437 1064M456 1026L545 999M456 1026L437 1064M545 999L565 1032M545 999L605 1062M565 1032L643 998M565 1032L516 1107M565 1032L605 1062M565 1032L659 1051M643 998L605 1062M643 998L659 1051M784 1021L826 1033M784 1021L761 1091M784 1021L857 1083M784 1021L744 1126M826 1033L938 1013M826 1033L761 1091M826 1033L857 1083M938 1013L989 1005M938 1013L981 1041M989 1005L1071 1034M989 1005L981 1041M1071 1034L1132 983M1071 1034L981 1041M1071 1034L1083 1110M1071 1034L1145 1045M1132 983L1211 982M1132 983L1145 1045M1211 982L1302 1029M1211 982L1145 1045M1211 982L1253 1070M1302 1029L1253 1070M1302 1029L1341 1094M1432 1009L1503 999M1432 1009L1524 994M1432 1009L1404 1085M1432 1009L1487 1049M1503 999L1524 994M1503 999L1487 1049M1524 994L1487 1049M1641 960L1698 1039M1698 1039L1683 1086M1811 967L1893 966M1811 967L1826 1096M1893 966L1981 1009M1893 966L1944 1046M1981 1009L2059 980M1981 1009L1944 1046M1981 1009L2053 1071M2059 980L2120 993M2059 980L2053 1071M2059 980L2096 1059M2120 993L2053 1071M2120 993L2096 1059M2235 1017L2288 991M2235 1017L2179 1105M2235 1017L2281 1043M2235 1017L2340 1059M2288 991L2365 994M2288 991L2281 1043M2365 994L2400 960M2365 994L2281 1043M2365 994L2340 1059M2400 960L2528 965M2528 965L2534 1074M41 1112L116 1087M41 1112L-26 1074M41 1112L55 1164M41 1112L83 1198M2601 1112L2534 1074M116 1087L55 1164M116 1087L178 1140M238 1076L305 1051M238 1076L178 1140M238 1076L316 1148M305 1051L364 1054M305 1051L316 1148M364 1054L437 1064M437 1064L516 1107M437 1064L429 1157M516 1107L429 1157M516 1107L505 1172M516 1107L572 1129M605 1062L659 1051M605 1062L572 1129M761 1091L857 1083M761 1091L705 1154M761 1091L744 1126M857 1083L918 1119M857 1083L899 1154M918 1119L875 1194M918 1119L899 1154M918 1119L974 1153M981 1041L1083 1110M1083 1110L1145 1045M1083 1110L1045 1159M1145 1045L1253 1070M1253 1070L1341 1094M1341 1094L1404 1085M1341 1094L1278 1181M1341 1094L1333 1168M1404 1085L1439 1173M1404 1085L1471 1136M1487 1049L1539 1100M1539 1100L1611 1111M1539 1100L1471 1136M1539 1100L1560 1133M1611 1111L1683 1086M1611 1111L1560 1133M1611 1111L1643 1166M1611 1111L1575 1208M1683 1086L1701 1198M1826 1096L1874 1088M1826 1096L1858 1167M1874 1088L1944 1046M1874 1088L1858 1167M1874 1088L1945 1146M1944 1046L1945 1146M2053 1071L2096 1059M2096 1059L2179 1105M2179 1105L2111 1190M2179 1105L2173 1184M2179 1105L2240 1158M2281 1043L2340 1059M2281 1043L2240 1158M2340 1059L2435 1081M2340 1059L2361 1144M2435 1081L2534 1074M2435 1081L2361 1144M2435 1081L2451 1188M55 1164L83 1198M55 1164L74 1271M55 1164L111 1241M83 1198L74 1271M83 1198L111 1241M316 1148L369 1194M316 1148L273 1219M316 1148L373 1226M369 1194L429 1157M369 1194L273 1219M369 1194L373 1226M369 1194L471 1219M429 1157L505 1172M429 1157L471 1219M505 1172L572 1129M505 1172L471 1219M505 1172L559 1235M572 1129L559 1235M705 1154L744 1126M705 1154L621 1241M705 1154L687 1221M705 1154L725 1249M744 1126L687 1221M875 1194L899 1154M875 1194L864 1264M875 1194L955 1206M899 1154L974 1153M899 1154L955 1206M974 1153L1045 1159M974 1153L955 1206M974 1153L975 1253M1045 1159L955 1206M1045 1159L1095 1255M1199 1185L1278 1181M1199 1185L1173 1253M1199 1185L1221 1263M1278 1181L1333 1168M1278 1181L1357 1219M1333 1168L1357 1219M1333 1168L1416 1215M1439 1173L1471 1136M1439 1173L1357 1219M1439 1173L1416 1215M1439 1173L1492 1206M1471 1136L1560 1133M1471 1136L1492 1206M1560 1133L1575 1208M1643 1166L1701 1198M1643 1166L1575 1208M1643 1166L1651 1221M1643 1166L1719 1203M1701 1198L1651 1221M1701 1198L1719 1203M1809 1198L1858 1167M1809 1198L1719 1203M1809 1198L1813 1268M1809 1198L1841 1268M1809 1198L1784 1290M1858 1167L1945 1146M1945 1146L2054 1192M1945 1146L2044 1210M2054 1192L2111 1190M2054 1192L2044 1210M2054 1192L2123 1227M2111 1190L2173 1184M2111 1190L2044 1210M2111 1190L2123 1227M2173 1184L2240 1158M2173 1184L2123 1227M2173 1184L2217 1263M2240 1158L2217 1263M2240 1158L2267 1211M2361 1144L2267 1211M2451 1188L2502 1192M2451 1188L2417 1227M2451 1188L2491 1256M2502 1192L2417 1227M2502 1192L2491 1256M2502 1192L2563 1283M2502 1192L2507 1315M-58 1192L3 1283M74 1271L111 1241M74 1271L3 1283M74 1271L113 1301M111 1241L197 1261M111 1241L113 1301M197 1261L273 1219M197 1261L113 1301M197 1261L201 1342M197 1261L197 1384M273 1219L373 1226M273 1219L315 1291M373 1226L471 1219M373 1226L315 1291M471 1219L559 1235M559 1235L621 1241M621 1241L687 1221M621 1241L725 1249M621 1241L679 1289M687 1221L725 1249M687 1221L679 1289M725 1249L679 1289M864 1264L975 1253M864 1264L857 1315M955 1206L975 1253M975 1253L957 1333M975 1253L1026 1280M1095 1255L1173 1253M1095 1255L1026 1280M1095 1255L1146 1311M1173 1253L1221 1263M1173 1253L1146 1311M1173 1253L1205 1304M1221 1263L1146 1311M1221 1263L1205 1304M1221 1263L1286 1286M1357 1219L1416 1215M1357 1219L1286 1286M1416 1215L1492 1206M1416 1215L1494 1303M1492 1206L1575 1208M1492 1206L1494 1303M1575 1208L1651 1221M1651 1221L1719 1203M1719 1203L1784 1290M1813 1268L1841 1268M1813 1268L1784 1290M1841 1268L1930 1277M1841 1268L1784 1290M1841 1268L1889 1327M1930 1277L1889 1327M1930 1277L1956 1321M1930 1277L2011 1360M2044 1210L2123 1227M2123 1227L2131 1319M2217 1263L2267 1211M2217 1263L2131 1319M2217 1263L2276 1290M2267 1211L2276 1290M2386 1276L2417 1227M2386 1276L2276 1290M2386 1276L2389 1298M2386 1276L2407 1356M2417 1227L2491 1256M2417 1227L2389 1298M2491 1256L2563 1283M2491 1256L2507 1315M-69 1256L3 1283M3 1283L-53 1315M3 1283L-62 1366M2563 1283L2507 1315M2563 1283L2498 1366M113 1301L201 1342M113 1301L117 1407M201 1342L117 1407M201 1342L197 1384M201 1342L312 1361M315 1291L329 1354M315 1291L312 1361M329 1354L312 1361M329 1354L399 1412M329 1354L406 1430M448 1346L548 1355M448 1346L399 1412M448 1346L406 1430M448 1346L532 1408M548 1355L604 1357M548 1355L532 1408M548 1355L566 1398M548 1355L657 1364M604 1357L679 1289M604 1357L532 1408M604 1357L566 1398M604 1357L657 1364M679 1289L657 1364M760 1354L857 1315M760 1354L657 1364M760 1354L787 1388M760 1354L860 1383M857 1315L957 1333M857 1315L787 1388M857 1315L860 1383M957 1333L1026 1280M957 1333L946 1367M957 1333L995 1429M1026 1280L1075 1360M1075 1360L995 1429M1075 1360L1113 1399M1146 1311L1205 1304M1146 1311L1154 1394M1205 1304L1286 1286M1286 1286L1369 1351M1369 1351L1244 1418M1369 1351L1357 1427M1369 1351L1408 1415M1494 1303L1551 1325M1494 1303L1507 1399M1551 1325L1661 1335M1551 1325L1507 1399M1551 1325L1543 1432M1551 1325L1648 1360M1661 1335L1695 1339M1661 1335L1648 1360M1661 1335L1696 1414M1695 1339L1784 1290M1695 1339L1648 1360M1695 1339L1696 1414M1889 1327L1956 1321M1889 1327L1883 1399M1889 1327L1940 1381M1956 1321L2011 1360M1956 1321L1883 1399M1956 1321L1940 1381M2011 1360L1940 1381M2011 1360L2065 1369M2131 1319L2163 1345M2131 1319L2065 1369M2163 1345L2065 1369M2163 1345L2156 1425M2163 1345L2168 1423M2163 1345L2241 1393M2276 1290L2389 1298M2389 1298L2407 1356M2389 1298L2357 1382M2407 1356L2357 1382M2407 1356L2442 1427M2407 1356L2498 1366M2507 1315L2498 1366M60 1419L117 1407M117 1407L197 1384M312 1361L399 1412M399 1412L406 1430M532 1408L566 1398M566 1398L657 1364M787 1388L860 1383M860 1383L946 1367M946 1367L995 1429M1113 1399L1154 1394M1154 1394L1244 1418M1244 1418L1357 1427M1357 1427L1408 1415M1507 1399L1543 1432M1648 1360L1696 1414M1812 1437L1883 1399M1883 1399L1940 1381M2156 1425L2168 1423M2156 1425L2241 1393M2168 1423L2241 1393M2357 1382L2442 1427M2442 1427L2498 1366"/></svg>