<svg xmlns="http://www.w3.org/2000/svg" width="2560" height="1440" fill="#fff"><circle cx="52" cy="58" r="6"/><circle cx="146" cy="31" r="5"/><circle cx="195" cy="29" r="5"/><circle cx="299" cy="48" r="5"/><circle cx="386" cy="11" r="6"/><circle cx="445" cy="60" r="6"/><circle cx="530" cy="71" r="5"/><circle cx="597" cy="25" r="4"/><circle cx="719" cy="5" r="5"/><circle cx="719" cy="1445" r="5"/><circle cx="783" cy="72" r="4"/><circle cx="880" cy="28" r="4"/><circle cx="890" cy="54" r="5"/><circle cx="983" cy="10" r="6"/><circle cx="1089" cy="25" r="6"/><circle cx="1169" cy="80" r="6"/><circle cx="1278" cy="59" r="4"/><circle cx="1330" cy="40" r="5"/><circle cx="1409" cy="1" r="6"/><circle cx="1409" cy="1441" r="6"/><circle cx="1449" cy="42" r="5"/><circle cx="1546" cy="36" r="5"/><circle cx="1629" cy="76" r="4"/><circle cx="1697" cy="40" r="4"/><circle cx="1781" cy="33" r="6"/><circle cx="1903" cy="25" r="5"/><circle cx="1956" cy="38" r="6"/><circle cx="2074" cy="56" r="4"/><circle cx="2119" cy="79" r="6"/><circle cx="2176" cy="66" r="5"/><circle cx="2277" cy="46" r="5"/><circle cx="2321" cy="17" r="6"/><circle cx="2451" cy="2" r="5"/><circle cx="2451" cy="1442" r="5"/><circle cx="2528" cy="22" r="4"/><circle cx="66" cy="94" r="5"/><circle cx="86" cy="134" r="4"/><circle cx="161" cy="136" r="5"/><circle cx="297" cy="127" r="4"/><circle cx="346" cy="93" r="5"/><circle cx="450" cy="95" r="6"/><circle cx="554" cy="123" r="4"/><circle cx="622" cy="150" r="5"/><circle cx="695" cy="98" r="4"/><circle cx="797" cy="159" r="5"/><circle cx="842" cy="130" r="5"/><circle cx="954" cy="154" r="4"/><circle cx="1038" cy="114" r="5"/><circle cx="1092" cy="114" r="5"/><circle cx="1180" cy="153" r="6"/><circle cx="1218" cy="90" r="6"/><circle cx="1297" cy="100" r="4"/><circle cx="1372" cy="97" r="4"/><circle cx="1472" cy="91" r="6"/><circle cx="1563" cy="142" r="4"/><circle cx="1609" cy="155" r="5"/><circle cx="1736" cy="134" r="6"/><circle cx="1836" cy="143" r="4"/><circle cx="1856" cy="92" r="5"/><circle cx="1939" cy="111" r="5"/><circle cx="2004" cy="109" r="5"/><circle cx="2109" cy="132" r="4"/><circle cx="2174" cy="93" r="4"/><circle cx="2244" cy="107" r="5"/><circle cx="2387" cy="155" r="4"/><circle cx="2410" cy="98" r="5"/><circle cx="2525" cy="99" r="5"/><circle cx="33" cy="192" r="5"/><circle cx="149" cy="217" r="4"/><circle cx="234" cy="197" r="5"/><circle cx="248" cy="167" r="5"/><circle cx="368" cy="172" r="4"/><circle cx="459" cy="237" r="6"/><circle cx="542" cy="170" r="5"/><circle cx="617" cy="200" r="6"/><circle cx="694" cy="183" r="4"/><circle cx="780" cy="210" r="4"/><circle cx="878" cy="190" r="4"/><circle cx="952" cy="209" r="6"/><circle cx="987" cy="185" r="5"/><circle cx="1084" cy="223" r="4"/><circle cx="1136" cy="223" r="6"/><circle cx="1277" cy="197" r="5"/><circle cx="1330" cy="213" r="4"/><circle cx="1390" cy="230" r="5"/><circle cx="1497" cy="235" r="5"/><circle cx="1535" cy="226" r="6"/><circle cx="1679" cy="181" r="6"/><circle cx="1734" cy="191" r="5"/><circle cx="1822" cy="199" r="4"/><circle cx="1850" cy="205" r="6"/><circle cx="1934" cy="184" r="5"/><circle cx="2054" cy="161" r="5"/><circle cx="2092" cy="210" r="4"/><circle cx="2214" cy="169" r="5"/><circle cx="2273" cy="215" r="5"/><circle cx="2372" cy="170" r="5"/><circle cx="2442" cy="175" r="5"/><circle cx="2557" cy="209" r="4"/><circle cx="-3" cy="209" r="4"/><circle cx="8" cy="254" r="6"/><circle cx="100" cy="299" r="6"/><circle cx="239" cy="266" r="5"/><circle cx="310" cy="297" r="5"/><circle cx="343" cy="243" r="4"/><circle cx="401" cy="280" r="4"/><circle cx="534" cy="240" r="5"/><circle cx="588" cy="279" r="5"/><circle cx="666" cy="253" r="5"/><circle cx="794" cy="275" r="5"/><circle cx="861" cy="320" r="5"/><circle cx="929" cy="289" r="5"/><circle cx="993" cy="270" r="4"/><circle cx="1051" cy="243" r="5"/><circle cx="1173" cy="285" r="5"/><circle cx="1271" cy="282" r="4"/><circle cx="1326" cy="256" r="5"/><circle cx="1421" cy="250" r="4"/><circle cx="1445" cy="319" r="6"/><circle cx="1552" cy="302" r="5"/><circle cx="1641" cy="299" r="5"/><circle cx="1735" cy="262" r="4"/><circle cx="1795" cy="312" r="4"/><circle cx="1862" cy="287" r="4"/><circle cx="1984" cy="255" r="4"/><circle cx="2078" cy="277" r="6"/><circle cx="2112" cy="301" r="4"/><circle cx="2176" cy="274" r="5"/><circle cx="2252" cy="305" r="5"/><circle cx="2358" cy="298" r="6"/><circle cx="2438" cy="310" r="5"/><circle cx="2483" cy="300" r="5"/><circle cx="23" cy="322" r="6"/><circle cx="112" cy="328" r="4"/><circle cx="224" cy="385" r="5"/><circle cx="294" cy="381" r="5"/><circle cx="335" cy="356" r="6"/><circle cx="423" cy="350" r="5"/><circle cx="492" cy="374" r="5"/><circle cx="571" cy="338" r="5"/><circle cx="698" cy="384" r="4"/><circle cx="772" cy="384" r="6"/><circle cx="820" cy="399" r="4"/><circle cx="892" cy="364" r="4"/><circle cx="994" cy="398" r="5"/><circle cx="1091" cy="343" r="5"/><circle cx="1173" cy="368" r="5"/><circle cx="1234" cy="396" r="4"/><circle cx="1282" cy="327" r="5"/><circle cx="1431" cy="360" r="5"/><circle cx="1444" cy="399" r="4"/><circle cx="1580" cy="379" r="6"/><circle cx="1662" cy="357" r="5"/><circle cx="1755" cy="386" r="5"/><circle cx="1764" cy="338" r="5"/><circle cx="1859" cy="344" r="5"/><circle cx="1934" cy="400" r="6"/><circle cx="2069" cy="376" r="6"/><circle cx="2153" cy="364" r="5"/><circle cx="2206" cy="340" r="6"/><circle cx="2260" cy="335" r="5"/><circle cx="2384" cy="369" r="5"/><circle cx="2409" cy="323" r="5"/><circle cx="2531" cy="357" r="5"/><circle cx="60" cy="439" r="6"/><circle cx="111" cy="404" r="5"/><circle cx="226" cy="429" r="4"/><circle cx="308" cy="458" r="6"/><circle cx="329" cy="476" r="5"/><circle cx="429" cy="439" r="5"/><circle cx="547" cy="413" r="5"/><circle cx="629" cy="477" r="4"/><circle cx="718" cy="462" r="4"/><circle cx="800" cy="411" r="5"/><circle cx="825" cy="455" r="6"/><circle cx="946" cy="427" r="6"/><circle cx="1019" cy="472" r="5"/><circle cx="1120" cy="403" r="4"/><circle cx="1165" cy="449" r="6"/><circle cx="1256" cy="479" r="5"/><circle cx="1308" cy="412" r="5"/><circle cx="1421" cy="459" r="4"/><circle cx="1456" cy="409" r="4"/><circle cx="1563" cy="410" r="5"/><circle cx="1626" cy="473" r="4"/><circle cx="1755" cy="460" r="4"/><circle cx="1829" cy="470" r="5"/><circle cx="1854" cy="445" r="6"/><circle cx="1978" cy="447" r="5"/><circle cx="2000" cy="447" r="5"/><circle cx="2137" cy="465" r="5"/><circle cx="2219" cy="477" r="5"/><circle cx="2300" cy="451" r="5"/><circle cx="2328" cy="445" r="6"/><circle cx="2441" cy="446" r="5"/><circle cx="2508" cy="454" r="6"/><circle cx="2" cy="534" r="4"/><circle cx="2562" cy="534" r="4"/><circle cx="106" cy="517" r="5"/><circle cx="162" cy="521" r="5"/><circle cx="276" cy="549" r="5"/><circle cx="362" cy="494" r="6"/><circle cx="402" cy="540" r="4"/><circle cx="558" cy="518" r="5"/><circle cx="617" cy="556" r="5"/><circle cx="659" cy="550" r="6"/><circle cx="755" cy="507" r="6"/><circle cx="822" cy="527" r="4"/><circle cx="929" cy="488" r="4"/><circle cx="1039" cy="529" r="5"/><circle cx="1069" cy="487" r="5"/><circle cx="1180" cy="481" r="4"/><circle cx="1206" cy="513" r="6"/><circle cx="1289" cy="537" r="6"/><circle cx="1405" cy="535" r="5"/><circle cx="1472" cy="559" r="4"/><circle cx="1579" cy="534" r="5"/><circle cx="1662" cy="487" r="6"/><circle cx="1757" cy="496" r="4"/><circle cx="1773" cy="543" r="5"/><circle cx="1861" cy="552" r="4"/><circle cx="1972" cy="489" r="4"/><circle cx="2031" cy="530" r="6"/><circle cx="2106" cy="539" r="6"/><circle cx="2215" cy="486" r="5"/><circle cx="2266" cy="495" r="5"/><circle cx="2330" cy="505" r="5"/><circle cx="2401" cy="515" r="5"/><circle cx="2548" cy="527" r="4"/><circle cx="78" cy="610" r="6"/><circle cx="153" cy="614" r="5"/><circle cx="183" cy="584" r="5"/><circle cx="279" cy="634" r="6"/><circle cx="336" cy="565" r="4"/><circle cx="466" cy="588" r="5"/><circle cx="531" cy="571" r="6"/><circle cx="622" cy="604" r="5"/><circle cx="675" cy="569" r="5"/><circle cx="773" cy="583" r="5"/><circle cx="809" cy="596" r="6"/><circle cx="955" cy="584" r="5"/><circle cx="966" cy="626" r="5"/><circle cx="1071" cy="590" r="5"/><circle cx="1170" cy="596" r="4"/><circle cx="1278" cy="621" r="5"/><circle cx="1317" cy="606" r="6"/><circle cx="1363" cy="580" r="5"/><circle cx="1450" cy="621" r="4"/><circle cx="1572" cy="606" r="6"/><circle cx="1619" cy="637" r="6"/><circle cx="1752" cy="565" r="5"/><circle cx="1785" cy="629" r="6"/><circle cx="1846" cy="585" r="6"/><circle cx="1954" cy="582" r="4"/><circle cx="2029" cy="562" r="4"/><circle cx="2090" cy="590" r="5"/><circle cx="2237" cy="583" r="5"/><circle cx="2310" cy="629" r="5"/><circle cx="2364" cy="604" r="5"/><circle cx="2419" cy="583" r="4"/><circle cx="2487" cy="582" r="5"/><circle cx="17" cy="647" r="6"/><circle cx="119" cy="649" r="5"/><circle cx="230" cy="641" r="5"/><circle cx="250" cy="703" r="5"/><circle cx="377" cy="686" r="5"/><circle cx="410" cy="649" r="4"/><circle cx="558" cy="708" r="5"/><circle cx="626" cy="703" r="4"/><circle cx="689" cy="670" r="5"/><circle cx="748" cy="698" r="5"/><circle cx="816" cy="701" r="6"/><circle cx="903" cy="713" r="4"/><circle cx="1017" cy="652" r="5"/><circle cx="1051" cy="688" r="5"/><circle cx="1152" cy="673" r="4"/><circle cx="1280" cy="720" r="6"/><circle cx="1331" cy="673" r="6"/><circle cx="1433" cy="683" r="6"/><circle cx="1473" cy="654" r="5"/><circle cx="1572" cy="704" r="5"/><circle cx="1639" cy="663" r="4"/><circle cx="1726" cy="710" r="4"/><circle cx="1810" cy="709" r="5"/><circle cx="1900" cy="702" r="5"/><circle cx="1959" cy="678" r="5"/><circle cx="2071" cy="641" r="4"/><circle cx="2086" cy="709" r="5"/><circle cx="2205" cy="643" r="5"/><circle cx="2282" cy="671" r="5"/><circle cx="2393" cy="703" r="5"/><circle cx="2437" cy="678" r="5"/><circle cx="2487" cy="690" r="4"/><circle cx="49" cy="779" r="5"/><circle cx="103" cy="740" r="5"/><circle cx="233" cy="783" r="6"/><circle cx="310" cy="721" r="5"/><circle cx="384" cy="760" r="6"/><circle cx="441" cy="727" r="5"/><circle cx="483" cy="766" r="5"/><circle cx="570" cy="790" r="5"/><circle cx="672" cy="751" r="5"/><circle cx="776" cy="740" r="6"/><circle cx="846" cy="740" r="5"/><circle cx="897" cy="769" r="5"/><circle cx="963" cy="793" r="6"/><circle cx="1110" cy="762" r="5"/><circle cx="1162" cy="788" r="5"/><circle cx="1276" cy="771" r="4"/><circle cx="1296" cy="743" r="5"/><circle cx="1396" cy="726" r="4"/><circle cx="1466" cy="778" r="5"/><circle cx="1563" cy="756" r="5"/><circle cx="1606" cy="792" r="4"/><circle cx="1733" cy="796" r="6"/><circle cx="1825" cy="799" r="6"/><circle cx="1865" cy="741" r="4"/><circle cx="1971" cy="746" r="6"/><circle cx="2030" cy="724" r="4"/><circle cx="2111" cy="750" r="4"/><circle cx="2225" cy="769" r="6"/><circle cx="2304" cy="792" r="5"/><circle cx="2373" cy="789" r="5"/><circle cx="2430" cy="739" r="4"/><circle cx="2513" cy="731" r="5"/><circle cx="5" cy="804" r="6"/><circle cx="2565" cy="804" r="6"/><circle cx="139" cy="856" r="5"/><circle cx="214" cy="801" r="4"/><circle cx="285" cy="850" r="5"/><circle cx="356" cy="817" r="5"/><circle cx="475" cy="808" r="5"/><circle cx="514" cy="856" r="5"/><circle cx="602" cy="830" r="6"/><circle cx="674" cy="874" r="5"/><circle cx="795" cy="875" r="4"/><circle cx="837" cy="874" r="4"/><circle cx="956" cy="843" r="5"/><circle cx="964" cy="814" r="6"/><circle cx="1078" cy="831" r="4"/><circle cx="1184" cy="845" r="5"/><circle cx="1277" cy="833" r="4"/><circle cx="1343" cy="802" r="6"/><circle cx="1375" cy="872" r="5"/><circle cx="1454" cy="828" r="4"/><circle cx="1571" cy="821" r="5"/><circle cx="1664" cy="868" r="6"/><circle cx="1698" cy="871" r="5"/><circle cx="1838" cy="806" r="4"/><circle cx="1848" cy="815" r="5"/><circle cx="1976" cy="824" r="6"/><circle cx="2047" cy="840" r="6"/><circle cx="2135" cy="839" r="6"/><circle cx="2231" cy="821" r="5"/><circle cx="2264" cy="854" r="5"/><circle cx="2394" cy="880" r="5"/><circle cx="2465" cy="878" r="6"/><circle cx="2512" cy="854" r="4"/><circle cx="51" cy="908" r="5"/><circle cx="147" cy="957" r="5"/><circle cx="205" cy="932" r="5"/><circle cx="318" cy="928" r="5"/><circle cx="324" cy="892" r="5"/><circle cx="451" cy="891" r="5"/><circle cx="497" cy="928" r="6"/><circle cx="614" cy="906" r="5"/><circle cx="670" cy="958" r="5"/><circle cx="743" cy="910" r="6"/><circle cx="810" cy="901" r="5"/><circle cx="938" cy="929" r="5"/><circle cx="1005" cy="935" r="6"/><circle cx="1105" cy="907" r="5"/><circle cx="1167" cy="900" r="4"/><circle cx="1222" cy="935" r="6"/><circle cx="1299" cy="898" r="4"/><circle cx="1379" cy="921" r="6"/><circle cx="1514" cy="947" r="5"/><circle cx="1585" cy="913" r="5"/><circle cx="1673" cy="936" r="6"/><circle cx="1681" cy="958" r="4"/><circle cx="1803" cy="917" r="4"/><circle cx="1907" cy="946" r="6"/><circle cx="1955" cy="943" r="4"/><circle cx="2022" cy="895" r="4"/><circle cx="2093" cy="884" r="5"/><circle cx="2235" cy="921" r="5"/><circle cx="2280" cy="883" r="5"/><circle cx="2325" cy="929" r="5"/><circle cx="2476" cy="913" r="5"/><circle cx="2524" cy="887" r="5"/><circle cx="68" cy="1018" r="6"/><circle cx="155" cy="964" r="4"/><circle cx="213" cy="1025" r="4"/><circle cx="250" cy="1026" r="6"/><circle cx="393" cy="1030" r="5"/><circle cx="478" cy="1003" r="6"/><circle cx="487" cy="978" r="5"/><circle cx="638" cy="1031" r="4"/><circle cx="718" cy="977" r="5"/><circle cx="799" cy="991" r="6"/><circle cx="848" cy="964" r="4"/><circle cx="950" cy="966" r="5"/><circle cx="976" cy="1022" r="4"/><circle cx="1072" cy="1004" r="4"/><circle cx="1167" cy="1024" r="4"/><circle cx="1213" cy="982" r="5"/><circle cx="1342" cy="991" r="4"/><circle cx="1384" cy="998" r="6"/><circle cx="1455" cy="1038" r="6"/><circle cx="1597" cy="1014" r="5"/><circle cx="1673" cy="1037" r="5"/><circle cx="1719" cy="1018" r="5"/><circle cx="1824" cy="1008" r="6"/><circle cx="1880" cy="1031" r="6"/><circle cx="1966" cy="993" r="4"/><circle cx="2048" cy="969" r="5"/><circle cx="2095" cy="997" r="5"/><circle cx="2167" cy="971" r="4"/><circle cx="2311" cy="1021" r="6"/><circle cx="2341" cy="969" r="4"/><circle cx="2435" cy="1034" r="5"/><circle cx="2498" cy="1031" r="5"/><circle cx="30" cy="1077" r="5"/><circle cx="88" cy="1112" r="6"/><circle cx="232" cy="1054" r="6"/><circle cx="246" cy="1056" r="5"/><circle cx="324" cy="1045" r="6"/><circle cx="416" cy="1099" r="5"/><circle cx="538" cy="1114" r="5"/><circle cx="573" cy="1105" r="5"/><circle cx="645" cy="1100" r="5"/><circle cx="720" cy="1050" r="6"/><circle cx="836" cy="1053" r="4"/><circle cx="889" cy="1098" r="4"/><circle cx="1003" cy="1115" r="4"/><circle cx="1107" cy="1053" r="6"/><circle cx="1200" cy="1091" r="5"/><circle cx="1231" cy="1115" r="4"/><circle cx="1300" cy="1076" r="5"/><circle cx="1405" cy="1119" r="5"/><circle cx="1514" cy="1104" r="6"/><circle cx="1552" cy="1068" r="4"/><circle cx="1652" cy="1103" r="5"/><circle cx="1758" cy="1092" r="5"/><circle cx="1802" cy="1050" r="5"/><circle cx="1912" cy="1092" r="6"/><circle cx="1931" cy="1105" r="5"/><circle cx="2054" cy="1119" r="5"/><circle cx="2138" cy="1061" r="5"/><circle cx="2216" cy="1056" r="5"/><circle cx="2251" cy="1043" r="6"/><circle cx="2346" cy="1054" r="6"/><circle cx="2428" cy="1045" r="5"/><circle cx="2499" cy="1095" r="5"/><circle cx="80" cy="1169" r="5"/><circle cx="157" cy="1168" r="5"/><circle cx="208" cy="1198" r="5"/><circle cx="262" cy="1181" r="5"/><circle cx="338" cy="1131" r="6"/><circle cx="450" cy="1179" r="4"/><circle cx="511" cy="1122" r="5"/><circle cx="572" cy="1192" r="6"/><circle cx="684" cy="1148" r="5"/><circle cx="721" cy="1166" r="5"/><circle cx="869" cy="1193" r="6"/><circle cx="922" cy="1181" r="5"/><circle cx="1022" cy="1160" r="5"/><circle cx="1087" cy="1195" r="5"/><circle cx="1155" cy="1194" r="5"/><circle cx="1209" cy="1168" r="6"/><circle cx="1338" cy="1189" r="5"/><circle cx="1434" cy="1149" r="4"/><circle cx="1488" cy="1176" r="6"/><circle cx="1524" cy="1125" r="6"/><circle cx="1612" cy="1189" r="6"/><circle cx="1731" cy="1152" r="5"/><circle cx="1768" cy="1131" r="6"/><circle cx="1897" cy="1175" r="5"/><circle cx="1941" cy="1152" r="6"/><circle cx="2005" cy="1188" r="5"/><circle cx="2150" cy="1134" r="4"/><circle cx="2181" cy="1153" r="6"/><circle cx="2291" cy="1123" r="4"/><circle cx="2376" cy="1122" r="6"/><circle cx="2425" cy="1122" r="4"/><circle cx="2524" cy="1188" r="4"/><circle cx="68" cy="1214" r="5"/><circle cx="91" cy="1244" r="4"/><circle cx="201" cy="1265" r="5"/><circle cx="248" cy="1266" r="6"/><circle cx="340" cy="1238" r="6"/><circle cx="436" cy="1225" r="4"/><circle cx="553" cy="1267" r="6"/><circle cx="565" cy="1243" r="4"/><circle cx="678" cy="1265" r="5"/><circle cx="780" cy="1235" r="4"/><circle cx="812" cy="1221" r="5"/><circle cx="900" cy="1236" r="5"/><circle cx="1025" cy="1272" r="5"/><circle cx="1052" cy="1256" r="5"/><circle cx="1172" cy="1227" r="5"/><circle cx="1206" cy="1257" r="5"/><circle cx="1328" cy="1268" r="6"/><circle cx="1439" cy="1224" r="4"/><circle cx="1516" cy="1255" r="5"/><circle cx="1587" cy="1221" r="6"/><circle cx="1650" cy="1269" r="5"/><circle cx="1739" cy="1233" r="5"/><circle cx="1792" cy="1226" r="5"/><circle cx="1885" cy="1256" r="4"/><circle cx="1936" cy="1263" r="4"/><circle cx="2014" cy="1256" r="5"/><circle cx="2093" cy="1249" r="6"/><circle cx="2218" cy="1261" r="4"/><circle cx="2305" cy="1268" r="5"/><circle cx="2375" cy="1275" r="5"/><circle cx="2456" cy="1231" r="4"/><circle cx="2541" cy="1278" r="5"/><circle cx="50" cy="1360" r="4"/><circle cx="127" cy="1354" r="5"/><circle cx="166" cy="1287" r="6"/><circle cx="241" cy="1288" r="4"/><circle cx="360" cy="1285" r="4"/><circle cx="413" cy="1283" r="6"/><circle cx="492" cy="1307" r="5"/><circle cx="626" cy="1306" r="4"/><circle cx="674" cy="1302" r="5"/><circle cx="778" cy="1327" r="6"/><circle cx="870" cy="1325" r="4"/><circle cx="917" cy="1285" r="6"/><circle cx="1026" cy="1302" r="6"/><circle cx="1111" cy="1287" r="6"/><circle cx="1146" cy="1330" r="6"/><circle cx="1214" cy="1347" r="4"/><circle cx="1342" cy="1356" r="5"/><circle cx="1432" cy="1282" r="6"/><circle cx="1468" cy="1304" r="4"/><circle cx="1552" cy="1284" r="5"/><circle cx="1617" cy="1314" r="5"/><circle cx="1752" cy="1327" r="5"/><circle cx="1778" cy="1285" r="5"/><circle cx="1860" cy="1322" r="4"/><circle cx="1935" cy="1286" r="5"/><circle cx="2027" cy="1350" r="5"/><circle cx="2094" cy="1330" r="5"/><circle cx="2229" cy="1295" r="5"/><circle cx="2271" cy="1290" r="5"/><circle cx="2367" cy="1359" r="5"/><circle cx="2424" cy="1306" r="5"/><circle cx="2480" cy="1338" r="5"/><circle cx="67" cy="1434" r="6"/><circle cx="119" cy="1396" r="5"/><circle cx="231" cy="1431" r="6"/><circle cx="282" cy="1425" r="5"/><circle cx="327" cy="1438" r="5"/><circle cx="327" cy="-2" r="5"/><circle cx="476" cy="1412" r="5"/><circle cx="506" cy="1404" r="5"/><circle cx="577" cy="1378" r="5"/><circle cx="655" cy="1399" r="5"/><circle cx="788" cy="1405" r="5"/><circle cx="874" cy="1430" r="4"/><circle cx="899" cy="1372" r="4"/><circle cx="967" cy="1376" r="4"/><circle cx="1087" cy="1420" r="4"/><circle cx="1189" cy="1433" r="4"/><circle cx="1267" cy="1433" r="4"/><circle cx="1356" cy="1401" r="5"/><circle cx="1424" cy="1429" r="4"/><circle cx="1485" cy="1386" r="6"/><circle cx="1593" cy="1389" r="5"/><circle cx="1603" cy="1419" r="5"/><circle cx="1701" cy="1439" r="5"/><circle cx="1701" cy="-1" r="5"/><circle cx="1788" cy="1420" r="4"/><circle cx="1875" cy="1417" r="6"/><circle cx="1955" cy="1413" r="5"/><circle cx="2010" cy="1418" r="4"/><circle cx="2081" cy="1415" r="5"/><circle cx="2209" cy="1429" r="5"/><circle cx="2308" cy="1426" r="5"/><circle cx="2329" cy="1363" r="6"/><circle cx="2437" cy="1408" r="6"/><circle cx="2544" cy="1385" r="5"/><path stroke="#fff" d="M52 58L-32 22M52 58L66 94M52 58L86 134M52 58L-35 99M52 58L67 -6M2612 58L2528 22M2612 58L2525 99M52 1498L67 1434M146 31L195 29M146 31L161 136M146 31L67 -6M146 31L119 -44M146 31L231 -9M146 1471L67 1434M146 1471L119 1396M146 1471L231 1431M195 29L231 -9M195 29L282 -15M195 1469L231 1431M195 1469L282 1425M299 48L297 127M299 48L346 93M299 48L231 -9M299 48L282 -15M299 48L327 -2M299 1488L231 1431M299 1488L282 1425M299 1488L327 1438M386 11L445 60M386 11L346 93M386 11L450 95M386 11L327 -2M386 11L476 -28M386 1451L327 1438M386 1451L476 1412M445 60L530 71M445 60L450 95M445 60L476 -28M445 1500L476 1412M530 71L597 25M530 71L450 95M530 71L554 123M530 71L542 170M597 25L506 -36M597 25L577 -62M597 25L655 -41M597 1465L506 1404M597 1465L577 1378M597 1465L655 1399M719 5L783 72M719 5L695 98M719 5L655 -41M719 5L788 -35M719 1445L655 1399M719 1445L788 1405M783 72L890 54M783 72L695 98M783 72L797 159M783 72L842 130M880 28L890 54M880 28L983 10M880 28L874 -10M880 28L899 -68M880 1468L874 1430M880 1468L899 1372M890 54L983 10M890 54L842 130M890 54L874 -10M890 1494L874 1430M983 10L1089 25M983 10L1038 114M983 10L967 -64M983 1450L967 1376M1089 25L1169 80M1089 25L1038 114M1089 25L1092 114M1089 25L1087 -20M1089 1465L1087 1420M1169 80L1092 114M1169 80L1180 153M1169 80L1218 90M1169 80L1189 -7M1169 1520L1189 1433M1278 59L1330 40M1278 59L1218 90M1278 59L1297 100M1278 59L1372 97M1278 59L1267 -7M1278 1499L1267 1433M1330 40L1409 1M1330 40L1297 100M1330 40L1372 97M1330 40L1267 -7M1330 1480L1267 1433M1409 1L1449 42M1409 1L1356 -39M1409 1L1424 -11M1409 1L1485 -54M1409 1441L1356 1401M1409 1441L1424 1429M1409 1441L1485 1386M1449 42L1546 36M1449 42L1472 91M1449 42L1424 -11M1449 42L1485 -54M1449 1482L1424 1429M1449 1482L1485 1386M1546 36L1629 76M1546 36L1472 91M1546 36L1603 -21M1546 1476L1603 1419M1629 76L1697 40M1629 76L1563 142M1629 76L1609 155M1629 76L1603 -21M1629 1516L1603 1419M1697 40L1781 33M1697 40L1736 134M1697 40L1701 -1M1697 1480L1701 1439M1781 33L1856 92M1781 33L1701 -1M1781 33L1788 -20M1781 33L1875 -23M1781 1473L1701 1439M1781 1473L1788 1420M1781 1473L1875 1417M1903 25L1956 38M1903 25L1856 92M1903 25L1939 111M1903 25L1875 -23M1903 25L1955 -27M1903 1465L1875 1417M1903 1465L1955 1413M1956 38L1939 111M1956 38L2004 109M1956 38L1955 -27M1956 38L2010 -22M1956 1478L1955 1413M1956 1478L2010 1418M2074 56L2119 79M2074 56L2004 109M2074 56L2109 132M2074 56L2081 -25M2074 1496L2081 1415M2119 79L2176 66M2119 79L2109 132M2119 79L2174 93M2119 79L2054 161M2176 66L2277 46M2176 66L2174 93M2176 66L2244 107M2176 66L2209 -11M2176 1506L2209 1429M2277 46L2321 17M2277 46L2244 107M2277 46L2209 -11M2277 46L2308 -14M2277 1486L2209 1429M2277 1486L2308 1426M2321 17L2244 107M2321 17L2308 -14M2321 17L2329 -77M2321 1457L2308 1426M2321 1457L2329 1363M2451 2L2528 22M2451 2L2410 98M2451 2L2480 -102M2451 2L2437 -32M2451 1442L2480 1338M2451 1442L2437 1408M2528 22L2525 99M2528 22L2544 -55M2528 1462L2544 1385M66 94L86 134M66 94L33 192M86 134L161 136M86 134L33 192M161 136L149 217M161 136L234 197M161 136L248 167M297 127L346 93M297 127L234 197M297 127L248 167M297 127L368 172M346 93L450 95M346 93L368 172M554 123L622 150M554 123L542 170M554 123L534 240M622 150L695 98M622 150L542 170M622 150L617 200M622 150L694 183M695 98L694 183M797 159L842 130M797 159L780 210M797 159L878 190M797 159L794 275M842 130L780 210M842 130L878 190M954 154L1038 114M954 154L878 190M954 154L952 209M954 154L987 185M1038 114L1092 114M1038 114L987 185M1092 114L1180 153M1092 114L1136 223M1180 153L1218 90M1180 153L1136 223M1180 153L1277 197M1218 90L1297 100M1218 90L1189 -7M1218 1530L1189 1433M1297 100L1372 97M1297 100L1277 197M1372 97L1472 91M1472 91L1563 142M1472 91L1424 -11M1472 1531L1424 1429M1563 142L1609 155M1563 142L1535 226M1609 155L1535 226M1609 155L1679 181M1736 134L1836 143M1736 134L1679 181M1736 134L1734 191M1736 134L1822 199M1836 143L1856 92M1836 143L1822 199M1836 143L1850 205M1836 143L1934 184M1856 92L1939 111M1856 92L1850 205M1939 111L2004 109M1939 111L1934 184M2004 109L1934 184M2004 109L2054 161M2109 132L2174 93M2109 132L2054 161M2109 132L2092 210M2174 93L2244 107M2174 93L2214 169M2244 107L2214 169M2387 155L2410 98M2387 155L2372 170M2387 155L2442 175M2410 98L2525 99M2410 98L2372 170M2410 98L2442 175M2525 99L2442 175M33 192L-3 209M33 192L8 254M2593 192L2557 209M149 217L234 197M149 217L248 167M149 217L100 299M149 217L239 266M234 197L248 167M234 197L239 266M248 167L239 266M368 172L459 237M368 172L343 243M459 237L401 280M459 237L534 240M459 237L423 350M542 170L617 200M542 170L534 240M617 200L694 183M617 200L588 279M617 200L666 253M694 183L780 210M694 183L666 253M780 210L794 275M878 190L952 209M952 209L987 185M952 209L929 289M952 209L993 270M987 185L993 270M987 185L1051 243M1084 223L1136 223M1084 223L993 270M1084 223L1051 243M1136 223L1051 243M1136 223L1173 285M1277 197L1330 213M1277 197L1271 282M1277 197L1326 256M1330 213L1390 230M1330 213L1271 282M1330 213L1326 256M1330 213L1421 250M1390 230L1497 235M1390 230L1326 256M1390 230L1421 250M1497 235L1535 226M1497 235L1421 250M1497 235L1445 319M1497 235L1552 302M1535 226L1552 302M1679 181L1734 191M1679 181L1641 299M1679 181L1735 262M1734 191L1822 199M1734 191L1735 262M1822 199L1850 205M1822 199L1862 287M1850 205L1934 184M1850 205L1862 287M1934 184L1984 255M2054 161L2092 210M2092 210L2078 277M2214 169L2273 215M2273 215L2372 170M2273 215L2252 305M2372 170L2442 175M2442 175L2557 209M2557 209L2568 254M-3 209L8 254M8 254L100 299M8 254L-77 300M8 254L23 322M2568 254L2483 300M100 299L23 322M100 299L112 328M100 299L111 404M239 266L310 297M239 266L343 243M310 297L343 243M310 297L401 280M310 297L294 381M310 297L335 356M343 243L401 280M401 280L335 356M401 280L423 350M534 240L588 279M534 240L571 338M588 279L666 253M588 279L492 374M588 279L571 338M666 253L794 275M666 253L571 338M794 275L861 320M861 320L929 289M861 320L820 399M861 320L892 364M929 289L993 270M929 289L892 364M993 270L1051 243M1051 243L1091 343M1173 285L1271 282M1173 285L1091 343M1173 285L1173 368M1173 285L1282 327M1271 282L1326 256M1271 282L1282 327M1326 256L1282 327M1421 250L1445 319M1421 250L1431 360M1445 319L1431 360M1445 319L1444 399M1445 319L1456 409M1552 302L1641 299M1552 302L1580 379M1552 302L1563 410M1641 299L1735 262M1641 299L1580 379M1641 299L1662 357M1735 262L1795 312M1735 262L1764 338M1795 312L1862 287M1795 312L1755 386M1795 312L1764 338M1795 312L1859 344M1862 287L1859 344M1984 255L2078 277M2078 277L2112 301M2078 277L2176 274M2078 277L2069 376M2112 301L2176 274M2112 301L2069 376M2112 301L2153 364M2112 301L2206 340M2176 274L2252 305M2176 274L2153 364M2176 274L2206 340M2252 305L2358 298M2252 305L2206 340M2252 305L2260 335M2358 298L2438 310M2358 298L2260 335M2358 298L2384 369M2358 298L2409 323M2438 310L2483 300M2438 310L2384 369M2438 310L2409 323M2438 310L2531 357M2483 300L2583 322M2483 300L2409 323M2483 300L2531 357M-77 300L23 322M23 322L112 328M23 322L-29 357M2583 322L2531 357M112 328L111 404M224 385L294 381M224 385L111 404M224 385L226 429M294 381L335 356M294 381L226 429M294 381L308 458M335 356L423 350M423 350L492 374M423 350L429 439M492 374L571 338M492 374L429 439M492 374L547 413M571 338L547 413M698 384L772 384M698 384L718 462M772 384L820 399M772 384L718 462M772 384L800 411M772 384L825 455M820 399L892 364M820 399L800 411M820 399L825 455M892 364L946 427M994 398L1091 343M994 398L946 427M994 398L1019 472M994 398L929 488M994 398L1069 487M1091 343L1173 368M1091 343L1120 403M1173 368L1234 396M1173 368L1120 403M1173 368L1165 449M1234 396L1282 327M1234 396L1165 449M1234 396L1256 479M1234 396L1308 412M1282 327L1308 412M1431 360L1444 399M1431 360L1421 459M1431 360L1456 409M1444 399L1421 459M1444 399L1456 409M1580 379L1662 357M1580 379L1563 410M1580 379L1626 473M1662 357L1755 386M1662 357L1764 338M1662 357L1563 410M1755 386L1764 338M1755 386L1755 460M1764 338L1859 344M1859 344L1934 400M1859 344L1854 445M1934 400L1854 445M1934 400L1978 447M1934 400L2000 447M1934 400L1972 489M2069 376L2153 364M2069 376L1978 447M2069 376L2000 447M2153 364L2206 340M2153 364L2137 465M2206 340L2260 335M2384 369L2409 323M2384 369L2328 445M2384 369L2441 446M2409 323L2441 446M2531 357L2508 454M60 439L111 404M60 439L-52 454M60 439L2 534M60 439L106 517M60 439L-12 527M2620 439L2508 454M2620 439L2548 527M226 429L308 458M308 458L329 476M308 458L276 549M308 458L362 494M329 476L429 439M329 476L276 549M329 476L362 494M329 476L336 565M429 439L362 494M429 439L402 540M547 413L558 518M629 477L558 518M629 477L659 550M718 462L800 411M718 462L755 507M800 411L825 455M825 455L755 507M825 455L822 527M946 427L1019 472M946 427L929 488M1019 472L929 488M1019 472L1039 529M1019 472L1069 487M1120 403L1165 449M1120 403L1069 487M1120 403L1180 481M1165 449L1180 481M1165 449L1206 513M1256 479L1308 412M1256 479L1180 481M1256 479L1206 513M1256 479L1289 537M1421 459L1456 409M1421 459L1405 535M1456 409L1563 410M1563 410L1626 473M1626 473L1579 534M1626 473L1662 487M1755 460L1829 470M1755 460L1662 487M1755 460L1757 496M1755 460L1773 543M1829 470L1854 445M1829 470L1757 496M1829 470L1861 552M1854 445L1861 552M1978 447L2000 447M1978 447L1972 489M2000 447L1972 489M2000 447L2031 530M2137 465L2219 477M2137 465L2106 539M2137 465L2215 486M2219 477L2300 451M2219 477L2215 486M2219 477L2266 495M2219 477L2237 583M2300 451L2328 445M2300 451L2215 486M2300 451L2266 495M2300 451L2330 505M2328 445L2266 495M2328 445L2330 505M2328 445L2401 515M2441 446L2508 454M2441 446L2401 515M2508 454L2562 534M2508 454L2548 527M-52 454L2 534M2 534L-12 527M2 534L-73 582M2562 534L2548 527M2562 534L2487 582M106 517L162 521M106 517L78 610M106 517L183 584M162 521L153 614M162 521L183 584M276 549L279 634M276 549L336 565M362 494L402 540M362 494L336 565M402 540L336 565M402 540L466 588M402 540L410 649M558 518L617 556M558 518L531 571M617 556L659 550M617 556L531 571M617 556L622 604M617 556L675 569M659 550L622 604M659 550L675 569M755 507L822 527M755 507L773 583M755 507L809 596M822 527L929 488M822 527L773 583M822 527L809 596M929 488L955 584M1039 529L1069 487M1039 529L955 584M1039 529L1071 590M1039 529L1017 652M1069 487L1071 590M1180 481L1206 513M1206 513L1289 537M1206 513L1170 596M1289 537L1278 621M1289 537L1317 606M1289 537L1363 580M1405 535L1472 559M1405 535L1317 606M1405 535L1363 580M1405 535L1450 621M1472 559L1579 534M1472 559L1450 621M1472 559L1473 654M1579 534L1662 487M1579 534L1572 606M1579 534L1619 637M1662 487L1757 496M1662 487L1752 565M1757 496L1773 543M1757 496L1752 565M1773 543L1752 565M1773 543L1785 629M1773 543L1846 585M1861 552L1846 585M1861 552L1954 582M1972 489L2031 530M2031 530L2106 539M2031 530L2029 562M2031 530L2090 590M2106 539L2029 562M2106 539L2090 590M2215 486L2266 495M2215 486L2237 583M2266 495L2330 505M2330 505L2401 515M2401 515L2364 604M2401 515L2419 583M2548 527L2487 582M78 610L153 614M78 610L17 647M78 610L119 649M153 614L183 584M153 614L119 649M153 614L230 641M183 584L119 649M183 584L230 641M279 634L336 565M279 634L230 641M279 634L250 703M279 634L310 721M466 588L531 571M466 588L377 686M466 588L410 649M531 571L622 604M622 604L675 569M622 604L689 670M675 569L773 583M675 569L689 670M773 583L809 596M809 596L816 701M955 584L966 626M955 584L1017 652M966 626L903 713M966 626L1017 652M966 626L1051 688M1071 590L1170 596M1071 590L1017 652M1071 590L1051 688M1170 596L1152 673M1278 621L1317 606M1278 621L1363 580M1278 621L1280 720M1278 621L1331 673M1317 606L1363 580M1317 606L1331 673M1450 621L1433 683M1450 621L1473 654M1572 606L1619 637M1572 606L1473 654M1572 606L1572 704M1572 606L1639 663M1619 637L1572 704M1619 637L1639 663M1619 637L1563 756M1752 565L1785 629M1752 565L1846 585M1785 629L1846 585M1785 629L1726 710M1785 629L1810 709M1846 585L1954 582M1954 582L2029 562M1954 582L1959 678M2029 562L2090 590M2029 562L2071 641M2090 590L2071 641M2090 590L2086 709M2237 583L2310 629M2237 583L2205 643M2237 583L2282 671M2310 629L2364 604M2310 629L2205 643M2310 629L2282 671M2364 604L2419 583M2364 604L2393 703M2364 604L2437 678M2419 583L2487 582M2487 582L2577 647M-73 582L17 647M17 647L119 649M17 647L-73 690M17 647L-47 731M2577 647L2487 690M2577 647L2513 731M119 649L103 740M230 641L250 703M250 703L233 783M250 703L310 721M250 703L214 801M377 686L410 649M377 686L310 721M377 686L384 760M377 686L441 727M410 649L441 727M558 708L626 703M558 708L483 766M558 708L570 790M626 703L689 670M626 703L672 751M689 670L748 698M689 670L672 751M748 698L816 701M748 698L672 751M748 698L776 740M748 698L846 740M816 701L903 713M816 701L776 740M816 701L846 740M903 713L846 740M903 713L897 769M903 713L963 793M1017 652L1051 688M1051 688L1152 673M1051 688L1110 762M1152 673L1110 762M1152 673L1162 788M1280 720L1331 673M1280 720L1276 771M1280 720L1296 743M1280 720L1343 802M1331 673L1296 743M1331 673L1396 726M1433 683L1473 654M1433 683L1396 726M1433 683L1466 778M1473 654L1396 726M1572 704L1639 663M1572 704L1563 756M1572 704L1606 792M1639 663L1726 710M1726 710L1810 709M1726 710L1733 796M1810 709L1900 702M1810 709L1825 799M1810 709L1865 741M1900 702L1959 678M1900 702L1865 741M1900 702L1971 746M1959 678L1971 746M1959 678L2030 724M2071 641L2086 709M2071 641L2030 724M2086 709L2030 724M2086 709L2111 750M2205 643L2282 671M2282 671L2225 769M2393 703L2437 678M2393 703L2487 690M2393 703L2373 789M2393 703L2430 739M2437 678L2487 690M2437 678L2430 739M2437 678L2513 731M2487 690L2430 739M2487 690L2513 731M49 779L103 740M49 779L5 804M103 740L5 804M233 783L310 721M233 783L139 856M233 783L214 801M233 783L285 850M310 721L384 760M384 760L441 727M384 760L356 817M384 760L475 808M441 727L483 766M441 727L475 808M483 766L570 790M483 766L475 808M570 790L514 856M570 790L602 830M672 751L776 740M672 751L602 830M776 740L846 740M846 740L897 769M897 769L963 793M897 769L956 843M897 769L964 814M963 793L956 843M963 793L964 814M963 793L1078 831M1110 762L1162 788M1110 762L1078 831M1162 788L1078 831M1162 788L1184 845M1162 788L1167 900M1276 771L1296 743M1276 771L1277 833M1276 771L1343 802M1296 743L1277 833M1296 743L1343 802M1396 726L1466 778M1466 778L1563 756M1466 778L1454 828M1466 778L1571 821M1563 756L1606 792M1563 756L1571 821M1606 792L1571 821M1733 796L1825 799M1733 796L1664 868M1733 796L1698 871M1733 796L1838 806M1825 799L1865 741M1825 799L1838 806M1825 799L1848 815M1865 741L1838 806M1865 741L1848 815M1971 746L2030 724M1971 746L1976 824M1971 746L2047 840M2030 724L2111 750M2111 750L2135 839M2225 769L2304 792M2225 769L2135 839M2225 769L2231 821M2225 769L2264 854M2304 792L2373 789M2304 792L2231 821M2304 792L2264 854M2304 792L2280 883M2373 789L2430 739M2373 789L2394 880M2373 789L2465 878M2430 739L2513 731M2513 731L2565 804M-47 731L5 804M5 804L-48 854M5 804L-36 887M2565 804L2512 854M2565 804L2524 887M139 856L214 801M139 856L51 908M139 856L147 957M139 856L205 932M214 801L285 850M285 850L356 817M285 850L318 928M285 850L324 892M356 817L324 892M475 808L514 856M475 808L451 891M514 856L602 830M514 856L451 891M514 856L497 928M602 830L674 874M602 830L614 906M674 874L614 906M674 874L670 958M674 874L743 910M795 875L837 874M795 875L743 910M795 875L810 901M837 874L810 901M837 874L848 964M956 843L964 814M956 843L938 929M1078 831L1105 907M1184 845L1277 833M1184 845L1105 907M1184 845L1167 900M1184 845L1222 935M1277 833L1343 802M1277 833L1299 898M1343 802L1375 872M1375 872L1454 828M1375 872L1299 898M1375 872L1379 921M1375 872L1384 998M1454 828L1379 921M1571 821L1585 913M1664 868L1698 871M1664 868L1585 913M1664 868L1673 936M1664 868L1681 958M1698 871L1673 936M1698 871L1681 958M1838 806L1848 815M1848 815L1976 824M1848 815L1803 917M1976 824L2047 840M1976 824L2022 895M2047 840L2135 839M2047 840L2022 895M2047 840L2093 884M2135 839L2231 821M2135 839L2093 884M2231 821L2264 854M2231 821L2280 883M2264 854L2235 921M2264 854L2280 883M2394 880L2465 878M2394 880L2325 929M2394 880L2476 913M2394 880L2341 969M2465 878L2512 854M2465 878L2476 913M2465 878L2524 887M2512 854L2611 908M2512 854L2476 913M2512 854L2524 887M-48 854L51 908M51 908L-36 887M51 908L68 1018M2611 908L2524 887M147 957L205 932M147 957L68 1018M147 957L155 964M147 957L213 1025M205 932L155 964M205 932L250 1026M318 928L324 892M451 891L497 928M451 891L478 1003M451 891L487 978M497 928L614 906M497 928L478 1003M497 928L487 978M614 906L670 958M670 958L743 910M670 958L638 1031M670 958L718 977M743 910L810 901M743 910L718 977M810 901L799 991M810 901L848 964M938 929L1005 935M938 929L950 966M938 929L976 1022M1005 935L1105 907M1005 935L950 966M1005 935L976 1022M1005 935L1072 1004M1105 907L1167 900M1105 907L1072 1004M1167 900L1222 935M1167 900L1213 982M1222 935L1299 898M1222 935L1167 1024M1222 935L1213 982M1299 898L1379 921M1299 898L1342 991M1379 921L1342 991M1379 921L1384 998M1514 947L1585 913M1514 947L1455 1038M1514 947L1597 1014M1585 913L1673 936M1585 913L1597 1014M1673 936L1681 958M1673 936L1719 1018M1681 958L1673 1037M1681 958L1719 1018M1803 917L1907 946M1803 917L1824 1008M1907 946L1955 943M1907 946L1824 1008M1907 946L1880 1031M1907 946L1966 993M1955 943L2022 895M1955 943L1966 993M1955 943L2048 969M2022 895L2093 884M2022 895L2048 969M2093 884L2048 969M2093 884L2095 997M2235 921L2280 883M2235 921L2325 929M2235 921L2167 971M2280 883L2325 929M2325 929L2311 1021M2325 929L2341 969M2476 913L2524 887M2476 913L2498 1031M68 1018L155 964M68 1018L30 1077M68 1018L88 1112M155 964L213 1025M213 1025L250 1026M213 1025L232 1054M213 1025L246 1056M250 1026L232 1054M250 1026L246 1056M250 1026L324 1045M393 1030L478 1003M393 1030L487 978M393 1030L324 1045M393 1030L416 1099M393 1030L338 1131M478 1003L487 978M478 1003L416 1099M638 1031L718 977M638 1031L573 1105M638 1031L645 1100M638 1031L720 1050M718 977L799 991M718 977L720 1050M799 991L848 964M799 991L720 1050M799 991L836 1053M848 964L950 966M848 964L836 1053M950 966L976 1022M976 1022L1072 1004M976 1022L1003 1115M1072 1004L1167 1024M1072 1004L1107 1053M1167 1024L1213 982M1167 1024L1107 1053M1167 1024L1200 1091M1213 982L1107 1053M1342 991L1384 998M1342 991L1300 1076M1384 998L1455 1038M1384 998L1300 1076M1455 1038L1405 1119M1455 1038L1514 1104M1597 1014L1673 1037M1597 1014L1552 1068M1597 1014L1652 1103M1673 1037L1719 1018M1673 1037L1652 1103M1673 1037L1758 1092M1719 1018L1758 1092M1719 1018L1802 1050M1824 1008L1880 1031M1824 1008L1802 1050M1880 1031L1802 1050M1880 1031L1912 1092M1880 1031L1931 1105M1966 993L2048 969M1966 993L1912 1092M2048 969L2095 997M2095 997L2167 971M2095 997L2138 1061M2167 971L2138 1061M2167 971L2216 1056M2311 1021L2341 969M2311 1021L2216 1056M2311 1021L2251 1043M2311 1021L2346 1054M2435 1034L2498 1031M2435 1034L2346 1054M2435 1034L2428 1045M2435 1034L2499 1095M2435 1034L2425 1122M2498 1031L2590 1077M2498 1031L2428 1045M2498 1031L2499 1095M-62 1031L30 1077M30 1077L88 1112M30 1077L-61 1095M30 1077L80 1169M2590 1077L2499 1095M88 1112L80 1169M88 1112L157 1168M88 1112L68 1214M232 1054L246 1056M232 1054L324 1045M246 1056L324 1045M324 1045L338 1131M416 1099L338 1131M416 1099L450 1179M416 1099L511 1122M538 1114L573 1105M538 1114L450 1179M538 1114L511 1122M538 1114L572 1192M573 1105L645 1100M573 1105L511 1122M573 1105L572 1192M645 1100L720 1050M645 1100L684 1148M645 1100L721 1166M720 1050L684 1148M836 1053L889 1098M889 1098L869 1193M889 1098L922 1181M1003 1115L1107 1053M1003 1115L1022 1160M1107 1053L1200 1091M1200 1091L1231 1115M1200 1091L1300 1076M1200 1091L1209 1168M1231 1115L1300 1076M1231 1115L1209 1168M1405 1119L1338 1189M1405 1119L1434 1149M1514 1104L1552 1068M1514 1104L1434 1149M1514 1104L1488 1176M1514 1104L1524 1125M1552 1068L1524 1125M1652 1103L1612 1189M1652 1103L1731 1152M1758 1092L1802 1050M1758 1092L1731 1152M1758 1092L1768 1131M1802 1050L1768 1131M1912 1092L1931 1105M1912 1092L1897 1175M1912 1092L1941 1152M1931 1105L1897 1175M1931 1105L1941 1152M1931 1105L2005 1188M2054 1119L2005 1188M2054 1119L2150 1134M2138 1061L2216 1056M2138 1061L2150 1134M2138 1061L2181 1153M2216 1056L2251 1043M2216 1056L2181 1153M2251 1043L2346 1054M2251 1043L2181 1153M2251 1043L2291 1123M2346 1054L2428 1045M2346 1054L2376 1122M2428 1045L2376 1122M2428 1045L2425 1122M2499 1095L2425 1122M2499 1095L2524 1188M80 1169L157 1168M80 1169L68 1214M80 1169L91 1244M157 1168L208 1198M157 1168L68 1214M208 1198L262 1181M208 1198L201 1265M208 1198L248 1266M262 1181L338 1131M262 1181L201 1265M262 1181L248 1266M262 1181L340 1238M338 1131L340 1238M450 1179L511 1122M450 1179L436 1225M450 1179L413 1283M511 1122L572 1192M572 1192L553 1267M572 1192L565 1243M684 1148L721 1166M684 1148L678 1265M721 1166L678 1265M721 1166L780 1235M721 1166L812 1221M869 1193L922 1181M869 1193L812 1221M869 1193L900 1236M869 1193L917 1285M922 1181L1022 1160M922 1181L900 1236M922 1181L917 1285M1022 1160L1087 1195M1022 1160L1025 1272M1022 1160L1052 1256M1087 1195L1155 1194M1087 1195L1052 1256M1087 1195L1172 1227M1155 1194L1209 1168M1155 1194L1172 1227M1155 1194L1206 1257M1209 1168L1172 1227M1209 1168L1206 1257M1338 1189L1328 1268M1434 1149L1488 1176M1434 1149L1524 1125M1434 1149L1439 1224M1488 1176L1524 1125M1488 1176L1439 1224M1488 1176L1516 1255M1524 1125L1612 1189M1612 1189L1587 1221M1612 1189L1650 1269M1731 1152L1768 1131M1731 1152L1739 1233M1731 1152L1792 1226M1768 1131L1792 1226M1897 1175L1941 1152M1897 1175L1885 1256M1897 1175L1936 1263M1941 1152L2005 1188M2005 1188L2014 1256M2005 1188L2093 1249M2150 1134L2181 1153M2181 1153L2218 1261M2291 1123L2376 1122M2376 1122L2425 1122M2524 1188L2456 1231M2524 1188L2541 1278M68 1214L91 1244M68 1214L-19 1278M2628 1214L2541 1278M91 1244L166 1287M201 1265L248 1266M201 1265L166 1287M201 1265L241 1288M248 1266L166 1287M248 1266L241 1288M340 1238L436 1225M340 1238L360 1285M340 1238L413 1283M436 1225L360 1285M436 1225L413 1283M553 1267L565 1243M553 1267L492 1307M553 1267L626 1306M553 1267L577 1378M565 1243L492 1307M678 1265L626 1306M678 1265L674 1302M780 1235L812 1221M780 1235L778 1327M812 1221L900 1236M812 1221L778 1327M900 1236L870 1325M900 1236L917 1285M1025 1272L1052 1256M1025 1272L1026 1302M1025 1272L1111 1287M1052 1256L1026 1302M1052 1256L1111 1287M1172 1227L1206 1257M1172 1227L1111 1287M1206 1257L1146 1330M1328 1268L1342 1356M1328 1268L1432 1282M1439 1224L1432 1282M1439 1224L1468 1304M1516 1255L1587 1221M1516 1255L1432 1282M1516 1255L1468 1304M1516 1255L1552 1284M1587 1221L1650 1269M1587 1221L1552 1284M1587 1221L1617 1314M1650 1269L1739 1233M1650 1269L1552 1284M1650 1269L1617 1314M1739 1233L1792 1226M1739 1233L1752 1327M1739 1233L1778 1285M1792 1226L1885 1256M1792 1226L1778 1285M1885 1256L1936 1263M1885 1256L1860 1322M1885 1256L1935 1286M1936 1263L2014 1256M1936 1263L1860 1322M1936 1263L1935 1286M2014 1256L2093 1249M2014 1256L1935 1286M2014 1256L2027 1350M2093 1249L2218 1261M2093 1249L2094 1330M2218 1261L2305 1268M2218 1261L2229 1295M2218 1261L2271 1290M2305 1268L2375 1275M2305 1268L2229 1295M2305 1268L2271 1290M2375 1275L2456 1231M2375 1275L2367 1359M2375 1275L2424 1306M2375 1275L2329 1363M2456 1231L2541 1278M2456 1231L2424 1306M2541 1278L2480 1338M50 1360L127 1354M50 1360L67 1434M50 1360L119 1396M50 1360L-16 1385M2610 1360L2544 1385M127 1354L166 1287M127 1354L119 1396M166 1287L241 1288M360 1285L413 1283M413 1283L492 1307M492 1307L506 1404M626 1306L674 1302M626 1306L577 1378M626 1306L655 1399M674 1302L778 1327M674 1302L655 1399M778 1327L870 1325M778 1327L788 1405M870 1325L917 1285M870 1325L874 1430M870 1325L899 1372M917 1285L899 1372M1026 1302L1111 1287M1026 1302L1146 1330M1026 1302L967 1376M1111 1287L1146 1330M1146 1330L1214 1347M1146 1330L1087 1420M1214 1347L1189 1433M1214 1347L1267 1433M1342 1356L1356 1401M1432 1282L1468 1304M1432 1282L1485 1386M1468 1304L1552 1284M1468 1304L1485 1386M1552 1284L1617 1314M1617 1314L1593 1389M1617 1314L1603 1419M1752 1327L1778 1285M1752 1327L1788 1420M1778 1285L1860 1322M1860 1322L1935 1286M1860 1322L1875 1417M2027 1350L2094 1330M2027 1350L1955 1413M2027 1350L2010 1418M2027 1350L2081 1415M2094 1330L2081 1415M2229 1295L2271 1290M2271 1290L2329 1363M2367 1359L2424 1306M2367 1359L2308 1426M2367 1359L2329 1363M2367 1359L2437 1408M2424 1306L2480 1338M2424 1306L2437 1408M2480 1338L2437 1408M2480 1338L2544 1385M67 1434L119 1396M67 1434L-16 1385M2627 1434L2544 1385M231 1431L282 1425M231 1431L327 1438M282 1425L327 1438M476 1412L506 1404M506 1404L577 1378M577 1378L655 1399M788 1405L874 1430M874 1430L899 1372M899 1372L967 1376M1087 1420L1189 1433M1189 1433L1267 1433M1267 1433L1356 1401M1356 1401L1424 1429M1424 1429L1485 1386M1593 1389L1603 1419M1593 1389L1701 1439M1603 1419L1701 1439M1701 1439L1788 1420M1788 1420L1875 1417M1875 1417L1955 1413M1955 1413L2010 1418M2010 1418L2081 1415M2081 1415L2209 1429M2209 1429L2308 1426M2308 1426L2329 1363M2437 1408L2544 1385"/></svg>