<svg xmlns="http://www.w3.org/2000/svg" width="2560" height="1440" fill="#fff"><circle cx="56" cy="38" r="5"/><circle cx="87" cy="2" r="6"/><circle cx="87" cy="1442" r="6"/><circle cx="221" cy="76" r="4"/><circle cx="265" cy="71" r="5"/><circle cx="393" cy="57" r="5"/><circle cx="450" cy="22" r="5"/><circle cx="516" cy="30" r="5"/><circle cx="618" cy="45" r="5"/><circle cx="716" cy="43" r="6"/><circle cx="769" cy="27" r="6"/><circle cx="801" cy="1" r="4"/><circle cx="801" cy="1441" r="4"/><circle cx="911" cy="27" r="5"/><circle cx="961" cy="73" r="6"/><circle cx="1068" cy="40" r="5"/><circle cx="1166" cy="65" r="5"/><circle cx="1261" cy="4" r="6"/><circle cx="1261" cy="1444" r="6"/><circle cx="1340" cy="61" r="4"/><circle cx="1382" cy="63" r="6"/><circle cx="1519" cy="32" r="6"/><circle cx="1582" cy="12" r="6"/><circle cx="1625" cy="57" r="6"/><circle cx="1695" cy="7" r="4"/><circle cx="1813" cy="4" r="5"/><circle cx="1813" cy="1444" r="5"/><circle cx="1859" cy="48" r="4"/><circle cx="1972" cy="24" r="5"/><circle cx="2073" cy="61" r="4"/><circle cx="2099" cy="8" r="5"/><circle cx="2227" cy="36" r="4"/><circle cx="2313" cy="31" r="5"/><circle cx="2393" cy="77" r="4"/><circle cx="2407" cy="59" r="5"/><circle cx="2523" cy="17" r="5"/><circle cx="16" cy="124" r="5"/><circle cx="94" cy="156" r="5"/><circle cx="175" cy="112" r="4"/><circle cx="298" cy="112" r="5"/><circle cx="340" cy="143" r="5"/><circle cx="415" cy="137" r="4"/><circle cx="505" cy="126" r="5"/><circle cx="605" cy="92" r="6"/><circle cx="655" cy="99" r="4"/><circle cx="744" cy="133" r="5"/><circle cx="828" cy="147" r="5"/><circle cx="909" cy="128" r="4"/><circle cx="977" cy="85" r="6"/><circle cx="1055" cy="146" r="4"/><circle cx="1132" cy="124" r="5"/><circle cx="1229" cy="157" r="5"/><circle cx="1294" cy="87" r="4"/><circle cx="1433" cy="129" r="4"/><circle cx="1441" cy="109" r="5"/><circle cx="1572" cy="155" r="6"/><circle cx="1625" cy="140" r="5"/><circle cx="1739" cy="143" r="5"/><circle cx="1809" cy="104" r="5"/><circle cx="1893" cy="143" r="4"/><circle cx="1952" cy="139" r="4"/><circle cx="2035" cy="104" r="4"/><circle cx="2125" cy="141" r="5"/><circle cx="2165" cy="97" r="4"/><circle cx="2297" cy="120" r="5"/><circle cx="2358" cy="148" r="6"/><circle cx="2470" cy="81" r="5"/><circle cx="2487" cy="102" r="6"/><circle cx="21" cy="226" r="5"/><circle cx="94" cy="227" r="5"/><circle cx="204" cy="170" r="4"/><circle cx="301" cy="192" r="5"/><circle cx="333" cy="187" r="5"/><circle cx="426" cy="220" r="5"/><circle cx="529" cy="232" r="6"/><circle cx="581" cy="169" r="5"/><circle cx="657" cy="220" r="6"/><circle cx="762" cy="215" r="6"/><circle cx="815" cy="175" r="6"/><circle cx="911" cy="187" r="4"/><circle cx="991" cy="237" r="6"/><circle cx="1098" cy="182" r="4"/><circle cx="1133" cy="166" r="5"/><circle cx="1236" cy="237" r="4"/><circle cx="1293" cy="213" r="4"/><circle cx="1400" cy="212" r="5"/><circle cx="1467" cy="222" r="6"/><circle cx="1579" cy="197" r="6"/><circle cx="1642" cy="204" r="5"/><circle cx="1750" cy="181" r="6"/><circle cx="1837" cy="191" r="6"/><circle cx="1858" cy="216" r="5"/><circle cx="1974" cy="228" r="5"/><circle cx="2053" cy="165" r="5"/><circle cx="2153" cy="191" r="4"/><circle cx="2199" cy="171" r="5"/><circle cx="2257" cy="186" r="5"/><circle cx="2387" cy="223" r="6"/><circle cx="2449" cy="187" r="4"/><circle cx="2538" cy="184" r="5"/><circle cx="14" cy="248" r="5"/><circle cx="87" cy="242" r="6"/><circle cx="171" cy="309" r="6"/><circle cx="242" cy="251" r="5"/><circle cx="372" cy="270" r="5"/><circle cx="461" cy="308" r="5"/><circle cx="488" cy="277" r="6"/><circle cx="626" cy="301" r="6"/><circle cx="678" cy="292" r="4"/><circle cx="757" cy="261" r="5"/><circle cx="878" cy="311" r="4"/><circle cx="936" cy="312" r="6"/><circle cx="968" cy="288" r="5"/><circle cx="1064" cy="296" r="5"/><circle cx="1147" cy="289" r="5"/><circle cx="1214" cy="284" r="6"/><circle cx="1286" cy="289" r="5"/><circle cx="1373" cy="247" r="4"/><circle cx="1452" cy="291" r="4"/><circle cx="1525" cy="277" r="4"/><circle cx="1657" cy="293" r="5"/><circle cx="1748" cy="302" r="6"/><circle cx="1812" cy="291" r="6"/><circle cx="1912" cy="301" r="5"/><circle cx="1973" cy="255" r="4"/><circle cx="2031" cy="269" r="6"/><circle cx="2153" cy="295" r="5"/><circle cx="2170" cy="293" r="5"/><circle cx="2258" cy="288" r="4"/><circle cx="2331" cy="275" r="6"/><circle cx="2463" cy="317" r="5"/><circle cx="2486" cy="281" r="5"/><circle cx="11" cy="387" r="6"/><circle cx="142" cy="356" r="4"/><circle cx="230" cy="347" r="5"/><circle cx="263" cy="329" r="5"/><circle cx="387" cy="373" r="5"/><circle cx="405" cy="373" r="5"/><circle cx="495" cy="339" r="5"/><circle cx="584" cy="323" r="5"/><circle cx="659" cy="344" r="6"/><circle cx="770" cy="395" r="5"/><circle cx="815" cy="376" r="4"/><circle cx="957" cy="345" r="5"/><circle cx="991" cy="332" r="5"/><circle cx="1064" cy="327" r="6"/><circle cx="1146" cy="340" r="5"/><circle cx="1239" cy="330" r="5"/><circle cx="1288" cy="386" r="5"/><circle cx="1367" cy="334" r="6"/><circle cx="1518" cy="327" r="6"/><circle cx="1522" cy="374" r="6"/><circle cx="1609" cy="323" r="4"/><circle cx="1733" cy="352" r="5"/><circle cx="1794" cy="328" r="6"/><circle cx="1913" cy="334" r="5"/><circle cx="1974" cy="377" r="4"/><circle cx="2068" cy="351" r="5"/><circle cx="2121" cy="372" r="6"/><circle cx="2213" cy="324" r="4"/><circle cx="2254" cy="339" r="4"/><circle cx="2334" cy="324" r="4"/><circle cx="2472" cy="367" r="4"/><circle cx="2522" cy="323" r="5"/><circle cx="26" cy="436" r="5"/><circle cx="152" cy="465" r="5"/><circle cx="240" cy="403" r="5"/><circle cx="261" cy="459" r="5"/><circle cx="389" cy="412" r="6"/><circle cx="424" cy="474" r="4"/><circle cx="537" cy="457" r="5"/><circle cx="625" cy="405" r="5"/><circle cx="704" cy="476" r="6"/><circle cx="770" cy="468" r="5"/><circle cx="873" cy="418" r="4"/><circle cx="909" cy="474" r="5"/><circle cx="1020" cy="443" r="6"/><circle cx="1103" cy="449" r="6"/><circle cx="1124" cy="412" r="5"/><circle cx="1222" cy="443" r="5"/><circle cx="1329" cy="468" r="6"/><circle cx="1405" cy="447" r="5"/><circle cx="1517" cy="428" r="4"/><circle cx="1570" cy="435" r="6"/><circle cx="1614" cy="456" r="5"/><circle cx="1682" cy="456" r="5"/><circle cx="1803" cy="411" r="4"/><circle cx="1873" cy="477" r="5"/><circle cx="1935" cy="448" r="6"/><circle cx="2080" cy="458" r="6"/><circle cx="2151" cy="415" r="5"/><circle cx="2215" cy="450" r="5"/><circle cx="2260" cy="477" r="5"/><circle cx="2330" cy="438" r="5"/><circle cx="2424" cy="428" r="4"/><circle cx="2542" cy="439" r="6"/><circle cx="1" cy="482" r="4"/><circle cx="2561" cy="482" r="4"/><circle cx="141" cy="528" r="5"/><circle cx="197" cy="514" r="4"/><circle cx="259" cy="498" r="5"/><circle cx="388" cy="489" r="6"/><circle cx="403" cy="552" r="5"/><circle cx="534" cy="535" r="5"/><circle cx="621" cy="524" r="5"/><circle cx="714" cy="526" r="5"/><circle cx="746" cy="484" r="5"/><circle cx="817" cy="500" r="6"/><circle cx="945" cy="533" r="5"/><circle cx="989" cy="551" r="5"/><circle cx="1082" cy="503" r="5"/><circle cx="1193" cy="517" r="5"/><circle cx="1267" cy="481" r="5"/><circle cx="1289" cy="494" r="5"/><circle cx="1394" cy="554" r="5"/><circle cx="1468" cy="497" r="5"/><circle cx="1557" cy="556" r="5"/><circle cx="1628" cy="530" r="6"/><circle cx="1748" cy="516" r="4"/><circle cx="1810" cy="493" r="6"/><circle cx="1876" cy="540" r="5"/><circle cx="1998" cy="497" r="5"/><circle cx="2012" cy="530" r="6"/><circle cx="2080" cy="485" r="4"/><circle cx="2183" cy="491" r="5"/><circle cx="2268" cy="504" r="5"/><circle cx="2356" cy="555" r="5"/><circle cx="2463" cy="545" r="5"/><circle cx="2490" cy="493" r="5"/><circle cx="76" cy="609" r="5"/><circle cx="95" cy="623" r="6"/><circle cx="214" cy="591" r="5"/><circle cx="294" cy="603" r="5"/><circle cx="393" cy="592" r="6"/><circle cx="479" cy="622" r="6"/><circle cx="534" cy="580" r="4"/><circle cx="571" cy="595" r="5"/><circle cx="682" cy="601" r="5"/><circle cx="797" cy="578" r="4"/><circle cx="843" cy="608" r="6"/><circle cx="911" cy="597" r="5"/><circle cx="982" cy="618" r="4"/><circle cx="1066" cy="620" r="5"/><circle cx="1152" cy="621" r="6"/><circle cx="1206" cy="593" r="6"/><circle cx="1331" cy="622" r="5"/><circle cx="1400" cy="633" r="5"/><circle cx="1442" cy="594" r="6"/><circle cx="1583" cy="583" r="6"/><circle cx="1611" cy="573" r="5"/><circle cx="1713" cy="587" r="5"/><circle cx="1770" cy="628" r="4"/><circle cx="1883" cy="563" r="6"/><circle cx="1990" cy="635" r="4"/><circle cx="2057" cy="589" r="6"/><circle cx="2083" cy="563" r="6"/><circle cx="2184" cy="579" r="6"/><circle cx="2275" cy="567" r="5"/><circle cx="2367" cy="565" r="6"/><circle cx="2473" cy="571" r="4"/><circle cx="2503" cy="634" r="5"/><circle cx="65" cy="685" r="6"/><circle cx="102" cy="646" r="6"/><circle cx="218" cy="704" r="4"/><circle cx="291" cy="694" r="6"/><circle cx="395" cy="670" r="5"/><circle cx="462" cy="683" r="6"/><circle cx="492" cy="650" r="5"/><circle cx="631" cy="650" r="6"/><circle cx="640" cy="693" r="5"/><circle cx="777" cy="690" r="5"/><circle cx="844" cy="719" r="5"/><circle cx="930" cy="647" r="5"/><circle cx="1003" cy="647" r="6"/><circle cx="1072" cy="693" r="5"/><circle cx="1157" cy="707" r="6"/><circle cx="1243" cy="643" r="6"/><circle cx="1310" cy="669" r="5"/><circle cx="1361" cy="690" r="6"/><circle cx="1464" cy="671" r="5"/><circle cx="1563" cy="667" r="4"/><circle cx="1603" cy="658" r="5"/><circle cx="1716" cy="660" r="5"/><circle cx="1810" cy="718" r="4"/><circle cx="1878" cy="651" r="4"/><circle cx="1956" cy="671" r="5"/><circle cx="2070" cy="647" r="5"/><circle cx="2109" cy="663" r="6"/><circle cx="2216" cy="714" r="5"/><circle cx="2260" cy="659" r="5"/><circle cx="2345" cy="677" r="5"/><circle cx="2450" cy="660" r="5"/><circle cx="2510" cy="713" r="5"/><circle cx="38" cy="764" r="4"/><circle cx="117" cy="743" r="5"/><circle cx="232" cy="764" r="5"/><circle cx="248" cy="724" r="4"/><circle cx="358" cy="724" r="6"/><circle cx="412" cy="789" r="5"/><circle cx="531" cy="734" r="4"/><circle cx="620" cy="756" r="5"/><circle cx="678" cy="774" r="5"/><circle cx="779" cy="788" r="5"/><circle cx="843" cy="731" r="5"/><circle cx="907" cy="766" r="4"/><circle cx="984" cy="767" r="4"/><circle cx="1097" cy="732" r="5"/><circle cx="1141" cy="751" r="4"/><circle cx="1254" cy="799" r="6"/><circle cx="1350" cy="736" r="5"/><circle cx="1419" cy="771" r="5"/><circle cx="1511" cy="724" r="4"/><circle cx="1578" cy="730" r="5"/><circle cx="1637" cy="731" r="5"/><circle cx="1719" cy="780" r="6"/><circle cx="1825" cy="761" r="5"/><circle cx="1908" cy="755" r="5"/><circle cx="1980" cy="793" r="5"/><circle cx="2023" cy="772" r="6"/><circle cx="2083" cy="728" r="4"/><circle cx="2185" cy="792" r="5"/><circle cx="2243" cy="779" r="5"/><circle cx="2327" cy="723" r="5"/><circle cx="2465" cy="721" r="5"/><circle cx="2515" cy="748" r="5"/><circle cx="59" cy="838" r="5"/><circle cx="93" cy="867" r="5"/><circle cx="164" cy="825" r="4"/><circle cx="274" cy="801" r="4"/><circle cx="357" cy="829" r="6"/><circle cx="401" cy="835" r="5"/><circle cx="503" cy="843" r="6"/><circle cx="635" cy="862" r="5"/><circle cx="687" cy="878" r="4"/><circle cx="769" cy="858" r="5"/><circle cx="876" cy="839" r="4"/><circle cx="948" cy="838" r="6"/><circle cx="962" cy="858" r="5"/><circle cx="1043" cy="812" r="5"/><circle cx="1196" cy="862" r="6"/><circle cx="1273" cy="853" r="4"/><circle cx="1354" cy="875" r="5"/><circle cx="1405" cy="831" r="5"/><circle cx="1446" cy="821" r="5"/><circle cx="1578" cy="840" r="5"/><circle cx="1618" cy="860" r="6"/><circle cx="1713" cy="825" r="5"/><circle cx="1766" cy="811" r="4"/><circle cx="1910" cy="828" r="5"/><circle cx="1970" cy="824" r="6"/><circle cx="2076" cy="864" r="4"/><circle cx="2132" cy="860" r="6"/><circle cx="2192" cy="872" r="4"/><circle cx="2245" cy="818" r="6"/><circle cx="2329" cy="808" r="5"/><circle cx="2472" cy="880" r="5"/><circle cx="2533" cy="874" r="6"/><circle cx="69" cy="901" r="6"/><circle cx="105" cy="948" r="4"/><circle cx="165" cy="908" r="6"/><circle cx="247" cy="909" r="6"/><circle cx="381" cy="893" r="4"/><circle cx="477" cy="953" r="4"/><circle cx="558" cy="897" r="5"/><circle cx="586" cy="920" r="6"/><circle cx="710" cy="922" r="6"/><circle cx="800" cy="890" r="5"/><circle cx="878" cy="913" r="5"/><circle cx="902" cy="936" r="6"/><circle cx="973" cy="958" r="4"/><circle cx="1065" cy="900" r="5"/><circle cx="1125" cy="942" r="6"/><circle cx="1258" cy="956" r="5"/><circle cx="1337" cy="888" r="4"/><circle cx="1390" cy="958" r="6"/><circle cx="1475" cy="936" r="4"/><circle cx="1530" cy="945" r="5"/><circle cx="1665" cy="886" r="5"/><circle cx="1752" cy="911" r="6"/><circle cx="1783" cy="954" r="4"/><circle cx="1920" cy="915" r="4"/><circle cx="1979" cy="913" r="5"/><circle cx="2016" cy="938" r="4"/><circle cx="2156" cy="950" r="5"/><circle cx="2219" cy="891" r="5"/><circle cx="2249" cy="923" r="6"/><circle cx="2341" cy="899" r="5"/><circle cx="2457" cy="914" r="6"/><circle cx="2515" cy="929" r="6"/><circle cx="49" cy="962" r="5"/><circle cx="149" cy="972" r="5"/><circle cx="161" cy="981" r="6"/><circle cx="283" cy="970" r="5"/><circle cx="361" cy="1028" r="5"/><circle cx="435" cy="999" r="6"/><circle cx="518" cy="1018" r="5"/><circle cx="630" cy="1037" r="5"/><circle cx="693" cy="1009" r="4"/><circle cx="740" cy="1013" r="6"/><circle cx="850" cy="1025" r="5"/><circle cx="924" cy="1028" r="6"/><circle cx="986" cy="1016" r="6"/><circle cx="1078" cy="993" r="5"/><circle cx="1124" cy="1005" r="6"/><circle cx="1206" cy="975" r="4"/><circle cx="1298" cy="1031" r="5"/><circle cx="1382" cy="962" r="4"/><circle cx="1451" cy="1011" r="5"/><circle cx="1583" cy="984" r="6"/><circle cx="1677" cy="997" r="6"/><circle cx="1700" cy="1030" r="5"/><circle cx="1809" cy="1038" r="6"/><circle cx="1867" cy="1016" r="5"/><circle cx="1923" cy="974" r="5"/><circle cx="2074" cy="999" r="5"/><circle cx="2157" cy="974" r="6"/><circle cx="2197" cy="1024" r="4"/><circle cx="2251" cy="984" r="4"/><circle cx="2334" cy="987" r="5"/><circle cx="2439" cy="973" r="6"/><circle cx="2500" cy="970" r="5"/><circle cx="79" cy="1058" r="5"/><circle cx="126" cy="1101" r="5"/><circle cx="191" cy="1060" r="6"/><circle cx="268" cy="1105" r="4"/><circle cx="389" cy="1106" r="6"/><circle cx="408" cy="1111" r="6"/><circle cx="555" cy="1041" r="4"/><circle cx="589" cy="1068" r="6"/><circle cx="716" cy="1064" r="4"/><circle cx="752" cy="1079" r="4"/><circle cx="859" cy="1110" r="5"/><circle cx="906" cy="1108" r="4"/><circle cx="990" cy="1100" r="6"/><circle cx="1050" cy="1102" r="4"/><circle cx="1135" cy="1106" r="5"/><circle cx="1214" cy="1097" r="5"/><circle cx="1324" cy="1080" r="5"/><circle cx="1361" cy="1050" r="4"/><circle cx="1447" cy="1052" r="4"/><circle cx="1570" cy="1090" r="6"/><circle cx="1667" cy="1041" r="5"/><circle cx="1702" cy="1071" r="6"/><circle cx="1790" cy="1109" r="4"/><circle cx="1859" cy="1096" r="6"/><circle cx="1981" cy="1078" r="5"/><circle cx="2037" cy="1072" r="5"/><circle cx="2139" cy="1044" r="6"/><circle cx="2237" cy="1107" r="5"/><circle cx="2268" cy="1087" r="5"/><circle cx="2332" cy="1109" r="5"/><circle cx="2400" cy="1066" r="4"/><circle cx="2488" cy="1099" r="4"/><circle cx="55" cy="1166" r="5"/><circle cx="131" cy="1164" r="6"/><circle cx="183" cy="1170" r="4"/><circle cx="270" cy="1126" r="4"/><circle cx="362" cy="1140" r="5"/><circle cx="408" cy="1143" r="5"/><circle cx="521" cy="1142" r="5"/><circle cx="608" cy="1136" r="5"/><circle cx="710" cy="1170" r="5"/><circle cx="765" cy="1165" r="4"/><circle cx="855" cy="1168" r="6"/><circle cx="907" cy="1196" r="6"/><circle cx="1009" cy="1167" r="5"/><circle cx="1093" cy="1146" r="5"/><circle cx="1195" cy="1171" r="6"/><circle cx="1220" cy="1188" r="5"/><circle cx="1324" cy="1161" r="4"/><circle cx="1425" cy="1157" r="4"/><circle cx="1450" cy="1187" r="5"/><circle cx="1538" cy="1184" r="4"/><circle cx="1606" cy="1129" r="5"/><circle cx="1759" cy="1166" r="4"/><circle cx="1793" cy="1194" r="6"/><circle cx="1904" cy="1172" r="5"/><circle cx="1947" cy="1159" r="4"/><circle cx="2008" cy="1167" r="6"/><circle cx="2155" cy="1164" r="5"/><circle cx="2173" cy="1137" r="6"/><circle cx="2313" cy="1133" r="5"/><circle cx="2341" cy="1135" r="6"/><circle cx="2476" cy="1194" r="4"/><circle cx="2525" cy="1160" r="5"/><circle cx="48" cy="1244" r="6"/><circle cx="134" cy="1210" r="4"/><circle cx="202" cy="1200" r="5"/><circle cx="301" cy="1279" r="5"/><circle cx="346" cy="1279" r="6"/><circle cx="436" cy="1266" r="5"/><circle cx="539" cy="1276" r="5"/><circle cx="599" cy="1214" r="6"/><circle cx="710" cy="1277" r="4"/><circle cx="729" cy="1240" r="6"/><circle cx="875" cy="1246" r="6"/><circle cx="948" cy="1232" r="5"/><circle cx="974" cy="1268" r="5"/><circle cx="1063" cy="1219" r="6"/><circle cx="1139" cy="1215" r="5"/><circle cx="1254" cy="1202" r="6"/><circle cx="1325" cy="1207" r="4"/><circle cx="1437" cy="1213" r="5"/><circle cx="1463" cy="1231" r="5"/><circle cx="1561" cy="1245" r="6"/><circle cx="1626" cy="1277" r="5"/><circle cx="1753" cy="1233" r="5"/><circle cx="1771" cy="1202" r="5"/><circle cx="1865" cy="1245" r="4"/><circle cx="1948" cy="1245" r="5"/><circle cx="2053" cy="1231" r="4"/><circle cx="2126" cy="1236" r="6"/><circle cx="2197" cy="1274" r="5"/><circle cx="2297" cy="1232" r="5"/><circle cx="2368" cy="1217" r="5"/><circle cx="2472" cy="1274" r="5"/><circle cx="2541" cy="1255" r="4"/><circle cx="10" cy="1322" r="4"/><circle cx="112" cy="1336" r="5"/><circle cx="209" cy="1303" r="5"/><circle cx="266" cy="1341" r="6"/><circle cx="349" cy="1328" r="4"/><circle cx="401" cy="1332" r="6"/><circle cx="548" cy="1338" r="4"/><circle cx="587" cy="1311" r="5"/><circle cx="655" cy="1282" r="5"/><circle cx="740" cy="1319" r="5"/><circle cx="808" cy="1339" r="5"/><circle cx="935" cy="1355" r="5"/><circle cx="967" cy="1326" r="4"/><circle cx="1083" cy="1358" r="5"/><circle cx="1197" cy="1336" r="4"/><circle cx="1225" cy="1341" r="5"/><circle cx="1323" cy="1284" r="4"/><circle cx="1390" cy="1309" r="5"/><circle cx="1490" cy="1315" r="5"/><circle cx="1564" cy="1341" r="4"/><circle cx="1635" cy="1325" r="6"/><circle cx="1724" cy="1308" r="5"/><circle cx="1833" cy="1307" r="5"/><circle cx="1852" cy="1357" r="5"/><circle cx="1920" cy="1314" r="4"/><circle cx="2043" cy="1313" r="5"/><circle cx="2138" cy="1350" r="4"/><circle cx="2228" cy="1313" r="6"/><circle cx="2295" cy="1328" r="5"/><circle cx="2351" cy="1312" r="6"/><circle cx="2419" cy="1328" r="6"/><circle cx="2495" cy="1285" r="5"/><circle cx="46" cy="1392" r="4"/><circle cx="112" cy="1426" r="6"/><circle cx="238" cy="1425" r="5"/><circle cx="301" cy="1382" r="5"/><circle cx="326" cy="1387" r="5"/><circle cx="462" cy="1405" r="4"/><circle cx="540" cy="1395" r="5"/><circle cx="638" cy="1382" r="6"/><circle cx="686" cy="1408" r="6"/><circle cx="785" cy="1384" r="6"/><circle cx="863" cy="1431" r="4"/><circle cx="908" cy="1421" r="5"/><circle cx="989" cy="1394" r="5"/><circle cx="1073" cy="1426" r="5"/><circle cx="1195" cy="1382" r="5"/><circle cx="1224" cy="1434" r="5"/><circle cx="1340" cy="1436" r="6"/><circle cx="1340" cy="-4" r="6"/><circle cx="1401" cy="1427" r="5"/><circle cx="1467" cy="1365" r="5"/><circle cx="1589" cy="1440" r="4"/><circle cx="1589" cy="-0" r="4"/><circle cx="1658" cy="1428" r="5"/><circle cx="1739" cy="1388" r="5"/><circle cx="1761" cy="1416" r="5"/><circle cx="1864" cy="1430" r="4"/><circle cx="1978" cy="1373" r="5"/><circle cx="2028" cy="1392" r="5"/><circle cx="2093" cy="1433" r="4"/><circle cx="2221" cy="1393" r="4"/><circle cx="2258" cy="1372" r="5"/><circle cx="2338" cy="1434" r="4"/><circle cx="2453" cy="1371" r="6"/><circle cx="2509" cy="1439" r="5"/><circle cx="2509" cy="-1" r="5"/><path stroke="#fff" d="M56 38L87 2M56 38L-37 17M56 38L16 124M56 38L46 -48M56 38L112 -14M2616 38L2523 17M56 1478L46 1392M56 1478L112 1426M87 2L112 -104M87 2L46 -48M87 2L112 -14M87 1442L112 1336M87 1442L46 1392M87 1442L112 1426M221 76L265 71M221 76L175 112M221 76L298 112M221 76L204 170M221 76L238 -15M221 1516L238 1425M265 71L175 112M265 71L298 112M265 71L340 143M265 71L238 -15M265 1511L238 1425M393 57L450 22M393 57L415 137M450 22L516 30M450 22L462 -35M450 22L540 -45M450 1462L462 1405M450 1462L540 1395M516 30L505 126M516 30L462 -35M516 30L540 -45M516 1470L462 1405M516 1470L540 1395M618 45L716 43M618 45L605 92M618 45L655 99M618 45L638 -58M618 45L686 -32M618 1485L638 1382M618 1485L686 1408M716 43L769 27M716 43L655 99M716 43L744 133M716 43L686 -32M716 1483L686 1408M769 27L801 1M769 27L686 -32M769 27L785 -56M769 27L863 -9M769 1467L686 1408M769 1467L785 1384M769 1467L863 1431M801 1L808 -101M801 1L785 -56M801 1L863 -9M801 1441L808 1339M801 1441L785 1384M801 1441L863 1431M911 27L961 73M911 27L977 85M911 27L863 -9M911 27L908 -19M911 1467L863 1431M911 1467L908 1421M961 73L1068 40M961 73L909 128M961 73L977 85M961 73L908 -19M961 1513L908 1421M1068 40L1166 65M1068 40L977 85M1068 40L1073 -14M1068 1480L1073 1426M1166 65L1132 124M1166 65L1133 166M1166 65L1224 -6M1166 1505L1224 1434M1261 4L1340 61M1261 4L1294 87M1261 4L1195 -58M1261 4L1224 -6M1261 4L1340 -4M1261 1444L1195 1382M1261 1444L1224 1434M1261 1444L1340 1436M1340 61L1382 63M1340 61L1294 87M1340 61L1340 -4M1340 61L1401 -13M1340 1501L1340 1436M1340 1501L1401 1427M1382 63L1433 129M1382 63L1441 109M1382 63L1340 -4M1382 63L1401 -13M1382 1503L1340 1436M1382 1503L1401 1427M1519 32L1582 12M1519 32L1441 109M1519 32L1467 -75M1519 32L1589 -0M1519 1472L1467 1365M1519 1472L1589 1440M1582 12L1625 57M1582 12L1695 7M1582 12L1589 -0M1582 12L1658 -12M1582 1452L1589 1440M1582 1452L1658 1428M1625 57L1695 7M1625 57L1625 140M1625 57L1589 -0M1625 57L1658 -12M1625 1497L1589 1440M1625 1497L1658 1428M1695 7L1658 -12M1695 7L1739 -52M1695 7L1761 -24M1695 1447L1658 1428M1695 1447L1739 1388M1695 1447L1761 1416M1813 4L1859 48M1813 4L1852 -83M1813 4L1739 -52M1813 4L1761 -24M1813 4L1864 -10M1813 1444L1852 1357M1813 1444L1739 1388M1813 1444L1761 1416M1813 1444L1864 1430M1859 48L1809 104M1859 48L1893 143M1859 48L1864 -10M1859 1488L1864 1430M1972 24L2073 61M1972 24L2035 104M1972 24L1864 -10M1972 24L1978 -67M1972 24L2028 -48M1972 1464L1864 1430M1972 1464L1978 1373M1972 1464L2028 1392M2073 61L2099 8M2073 61L2035 104M2073 61L2093 -7M2073 1501L2093 1433M2099 8L2138 -90M2099 8L2028 -48M2099 8L2093 -7M2099 1448L2138 1350M2099 1448L2028 1392M2099 1448L2093 1433M2227 36L2313 31M2227 36L2165 97M2227 36L2297 120M2227 36L2221 -47M2227 36L2258 -68M2227 1476L2221 1393M2227 1476L2258 1372M2313 31L2393 77M2313 31L2407 59M2313 31L2297 120M2313 31L2338 -6M2313 1471L2338 1434M2393 77L2407 59M2393 77L2358 148M2393 77L2470 81M2407 59L2358 148M2407 59L2470 81M2407 59L2487 102M2523 17L2470 81M2523 17L2487 102M2523 17L2453 -69M2523 17L2509 -1M2523 1457L2453 1371M2523 1457L2509 1439M16 124L94 156M16 124L-73 102M16 124L-22 184M2576 124L2487 102M2576 124L2538 184M94 156L175 112M94 156L21 226M94 156L94 227M94 156L87 242M175 112L204 170M298 112L340 143M298 112L301 192M298 112L333 187M340 143L415 137M340 143L301 192M340 143L333 187M415 137L505 126M415 137L426 220M505 126L605 92M505 126L529 232M505 126L581 169M605 92L655 99M605 92L581 169M655 99L744 133M655 99L581 169M744 133L828 147M744 133L762 215M744 133L815 175M828 147L909 128M828 147L762 215M828 147L815 175M828 147L911 187M909 128L977 85M909 128L911 187M977 85L1055 146M1055 146L1132 124M1055 146L1098 182M1055 146L1133 166M1132 124L1229 157M1132 124L1098 182M1132 124L1133 166M1229 157L1294 87M1229 157L1133 166M1229 157L1236 237M1229 157L1293 213M1294 87L1340 -4M1294 1527L1340 1436M1433 129L1441 109M1433 129L1400 212M1433 129L1467 222M1441 109L1400 212M1572 155L1625 140M1572 155L1579 197M1572 155L1642 204M1625 140L1739 143M1625 140L1579 197M1625 140L1642 204M1739 143L1809 104M1739 143L1750 181M1809 104L1893 143M1809 104L1750 181M1809 104L1837 191M1893 143L1952 139M1893 143L1837 191M1893 143L1858 216M1952 139L2035 104M1952 139L1974 228M1952 139L2053 165M2035 104L2125 141M2035 104L2053 165M2125 141L2165 97M2125 141L2053 165M2125 141L2153 191M2125 141L2199 171M2165 97L2199 171M2297 120L2358 148M2297 120L2199 171M2297 120L2257 186M2358 148L2257 186M2358 148L2387 223M2470 81L2487 102M2470 81L2509 -1M2470 1521L2509 1439M2487 102L2538 184M21 226L94 227M21 226L-22 184M21 226L14 248M21 226L87 242M2581 226L2538 184M94 227L14 248M94 227L87 242M204 170L242 251M301 192L333 187M301 192L242 251M301 192L372 270M333 187L426 220M333 187L372 270M426 220L529 232M426 220L372 270M426 220L488 277M529 232L581 169M529 232L461 308M529 232L488 277M581 169L657 220M657 220L762 215M657 220L626 301M657 220L678 292M657 220L757 261M762 215L815 175M762 215L757 261M815 175L911 187M815 175L757 261M911 187L991 237M991 237L936 312M991 237L968 288M991 237L1064 296M1098 182L1133 166M1236 237L1293 213M1236 237L1214 284M1236 237L1286 289M1236 237L1239 330M1293 213L1286 289M1293 213L1373 247M1400 212L1467 222M1400 212L1373 247M1467 222L1373 247M1467 222L1452 291M1467 222L1525 277M1579 197L1642 204M1579 197L1525 277M1579 197L1657 293M1642 204L1750 181M1642 204L1657 293M1750 181L1837 191M1750 181L1748 302M1837 191L1858 216M1837 191L1812 291M1858 216L1812 291M1858 216L1912 301M1974 228L2053 165M1974 228L1912 301M1974 228L1973 255M1974 228L2031 269M2053 165L2031 269M2153 191L2199 171M2199 171L2257 186M2257 186L2331 275M2387 223L2449 187M2387 223L2331 275M2387 223L2463 317M2387 223L2486 281M2449 187L2538 184M2449 187L2486 281M2538 184L2574 248M-22 184L14 248M14 248L87 242M14 248L-38 323M2574 248L2522 323M87 242L171 309M171 309L242 251M171 309L142 356M171 309L230 347M171 309L263 329M242 251L230 347M242 251L263 329M372 270L461 308M372 270L405 373M461 308L488 277M461 308L405 373M461 308L495 339M488 277L495 339M488 277L584 323M626 301L678 292M626 301L584 323M626 301L659 344M626 301L625 405M678 292L757 261M678 292L659 344M757 261L659 344M878 311L936 312M878 311L815 376M878 311L957 345M936 312L968 288M936 312L957 345M936 312L991 332M968 288L957 345M968 288L991 332M968 288L1064 327M1064 296L1147 289M1064 296L991 332M1064 296L1064 327M1147 289L1214 284M1147 289L1064 327M1147 289L1146 340M1214 284L1286 289M1214 284L1146 340M1214 284L1239 330M1286 289L1239 330M1286 289L1367 334M1373 247L1452 291M1373 247L1367 334M1452 291L1525 277M1452 291L1367 334M1452 291L1518 327M1525 277L1518 327M1525 277L1522 374M1657 293L1748 302M1657 293L1609 323M1657 293L1733 352M1748 302L1812 291M1748 302L1733 352M1748 302L1794 328M1812 291L1733 352M1812 291L1794 328M1912 301L1973 255M1912 301L1913 334M1912 301L1974 377M1973 255L2031 269M1973 255L1913 334M2031 269L2068 351M2153 295L2170 293M2153 295L2068 351M2153 295L2121 372M2153 295L2213 324M2170 293L2258 288M2170 293L2121 372M2170 293L2213 324M2170 293L2254 339M2258 288L2331 275M2258 288L2213 324M2258 288L2254 339M2258 288L2334 324M2331 275L2254 339M2331 275L2334 324M2463 317L2486 281M2463 317L2472 367M2463 317L2522 323M2486 281L2472 367M2486 281L2522 323M11 387L-88 367M11 387L-38 323M11 387L26 436M11 387L-18 439M11 387L1 482M2571 387L2472 367M2571 387L2522 323M2571 387L2542 439M142 356L230 347M230 347L263 329M230 347L240 403M263 329L240 403M263 329L261 459M387 373L405 373M387 373L389 412M387 373L424 474M387 373L388 489M405 373L495 339M405 373L389 412M495 339L584 323M495 339L389 412M584 323L659 344M584 323L625 405M659 344L625 405M770 395L815 376M770 395L770 468M770 395L746 484M815 376L873 418M957 345L991 332M991 332L1064 327M1064 327L1146 340M1146 340L1239 330M1146 340L1124 412M1239 330L1288 386M1288 386L1367 334M1288 386L1222 443M1288 386L1329 468M1288 386L1267 481M1367 334L1405 447M1518 327L1522 374M1518 327L1609 323M1518 327L1517 428M1522 374L1609 323M1522 374L1517 428M1522 374L1570 435M1733 352L1794 328M1733 352L1803 411M1794 328L1913 334M1794 328L1803 411M1913 334L1974 377M1974 377L1935 448M2068 351L2121 372M2068 351L2151 415M2121 372L2080 458M2121 372L2151 415M2213 324L2254 339M2254 339L2334 324M2472 367L2522 323M2472 367L2424 428M26 436L-18 439M26 436L1 482M2586 436L2542 439M152 465L240 403M152 465L261 459M152 465L141 528M152 465L197 514M240 403L261 459M240 403L259 498M261 459L197 514M261 459L259 498M389 412L424 474M389 412L388 489M424 474L537 457M424 474L388 489M424 474L403 552M537 457L625 405M537 457L534 535M625 405L704 476M704 476L770 468M704 476L621 524M704 476L714 526M704 476L746 484M770 468L714 526M770 468L746 484M770 468L817 500M873 418L909 474M909 474L817 500M909 474L945 533M1020 443L1103 449M1020 443L1124 412M1020 443L945 533M1020 443L1082 503M1103 449L1124 412M1103 449L1082 503M1124 412L1082 503M1222 443L1193 517M1222 443L1267 481M1222 443L1289 494M1329 468L1405 447M1329 468L1267 481M1329 468L1289 494M1329 468L1394 554M1405 447L1468 497M1517 428L1570 435M1517 428L1614 456M1517 428L1468 497M1570 435L1614 456M1570 435L1682 456M1614 456L1682 456M1614 456L1628 530M1682 456L1628 530M1682 456L1748 516M1803 411L1873 477M1803 411L1810 493M1873 477L1935 448M1873 477L1810 493M1873 477L1876 540M1873 477L1883 563M1935 448L1876 540M1935 448L1998 497M2080 458L2151 415M2080 458L1998 497M2080 458L2012 530M2080 458L2080 485M2151 415L2215 450M2151 415L2183 491M2215 450L2260 477M2215 450L2330 438M2215 450L2183 491M2215 450L2268 504M2260 477L2330 438M2260 477L2183 491M2260 477L2268 504M2260 477L2275 567M2330 438L2424 428M2330 438L2268 504M2330 438L2356 555M2424 428L2542 439M2424 428L2490 493M2542 439L2561 482M2542 439L2490 493M-18 439L1 482M1 482L-70 493M2561 482L2490 493M141 528L197 514M141 528L76 609M141 528L95 623M141 528L214 591M197 514L259 498M197 514L214 591M259 498L214 591M259 498L294 603M388 489L403 552M388 489L393 592M403 552L393 592M534 535L621 524M534 535L534 580M534 535L571 595M621 524L714 526M621 524L571 595M621 524L682 601M714 526L746 484M714 526L682 601M746 484L817 500M817 500L797 578M817 500L843 608M945 533L989 551M945 533L911 597M989 551L1082 503M989 551L911 597M989 551L982 618M989 551L1003 647M1193 517L1267 481M1193 517L1289 494M1193 517L1152 621M1193 517L1206 593M1267 481L1289 494M1394 554L1468 497M1394 554L1331 622M1394 554L1400 633M1394 554L1442 594M1468 497L1557 556M1468 497L1442 594M1557 556L1628 530M1557 556L1583 583M1557 556L1611 573M1628 530L1583 583M1628 530L1611 573M1748 516L1810 493M1748 516L1713 587M1748 516L1770 628M1810 493L1876 540M1810 493L1883 563M1876 540L1883 563M1876 540L1878 651M1998 497L2012 530M1998 497L2080 485M2012 530L2080 485M2012 530L2057 589M2012 530L2083 563M2080 485L2083 563M2183 491L2268 504M2183 491L2184 579M2268 504L2275 567M2356 555L2463 545M2356 555L2275 567M2356 555L2367 565M2356 555L2345 677M2463 545L2490 493M2463 545L2367 565M2463 545L2473 571M2463 545L2503 634M2490 493L2473 571M76 609L95 623M76 609L65 685M76 609L102 646M95 623L214 591M95 623L65 685M95 623L102 646M214 591L294 603M294 603L393 592M294 603L291 694M393 592L479 622M393 592L395 670M479 622L534 580M479 622L395 670M479 622L462 683M479 622L492 650M534 580L571 595M534 580L492 650M534 580L631 650M571 595L631 650M682 601L797 578M682 601L631 650M682 601L640 693M797 578L843 608M797 578L777 690M843 608L911 597M843 608L844 719M843 608L930 647M911 597L982 618M911 597L930 647M982 618L1066 620M982 618L930 647M982 618L1003 647M1066 620L1152 621M1066 620L1003 647M1066 620L1072 693M1066 620L1097 732M1152 621L1206 593M1152 621L1157 707M1152 621L1243 643M1206 593L1243 643M1331 622L1400 633M1331 622L1243 643M1331 622L1310 669M1331 622L1361 690M1400 633L1442 594M1400 633L1361 690M1400 633L1464 671M1442 594L1464 671M1583 583L1611 573M1583 583L1563 667M1583 583L1603 658M1611 573L1713 587M1611 573L1603 658M1713 587L1770 628M1713 587L1716 660M1770 628L1716 660M1770 628L1810 718M1883 563L1878 651M1990 635L2057 589M1990 635L1956 671M1990 635L2070 647M2057 589L2083 563M2057 589L2070 647M2057 589L2109 663M2083 563L2070 647M2083 563L2109 663M2184 579L2275 567M2184 579L2109 663M2184 579L2260 659M2275 567L2367 565M2367 565L2473 571M2367 565L2345 677M2473 571L2503 634M2473 571L2450 660M2503 634L2450 660M2503 634L2510 713M2503 634L2465 721M65 685L102 646M65 685L38 764M65 685L117 743M102 646L218 704M102 646L117 743M218 704L291 694M218 704L232 764M218 704L248 724M291 694L232 764M291 694L248 724M291 694L358 724M395 670L462 683M395 670L492 650M395 670L358 724M462 683L492 650M462 683L358 724M462 683L531 734M492 650L531 734M631 650L640 693M631 650L620 756M640 693L531 734M640 693L620 756M640 693L678 774M777 690L844 719M777 690L779 788M777 690L843 731M844 719L779 788M844 719L843 731M844 719L907 766M930 647L1003 647M930 647L843 731M1003 647L1072 693M1072 693L1157 707M1072 693L1097 732M1072 693L1141 751M1157 707L1243 643M1157 707L1097 732M1157 707L1141 751M1243 643L1310 669M1310 669L1361 690M1310 669L1350 736M1361 690L1464 671M1361 690L1350 736M1464 671L1563 667M1464 671L1511 724M1563 667L1603 658M1563 667L1511 724M1563 667L1578 730M1603 658L1578 730M1603 658L1637 731M1716 660L1637 731M1810 718L1878 651M1810 718L1719 780M1810 718L1825 761M1878 651L1956 671M1956 671L1908 755M1956 671L2023 772M2070 647L2109 663M2070 647L2083 728M2109 663L2083 728M2216 714L2260 659M2216 714L2185 792M2216 714L2243 779M2216 714L2327 723M2260 659L2345 677M2260 659L2327 723M2345 677L2450 660M2345 677L2327 723M2450 660L2510 713M2450 660L2465 721M2510 713L2598 764M2510 713L2465 721M2510 713L2515 748M-50 713L38 764M38 764L117 743M38 764L-45 748M38 764L59 838M2598 764L2515 748M117 743L164 825M232 764L248 724M232 764L164 825M232 764L274 801M248 724L274 801M358 724L412 789M358 724L357 829M412 789L357 829M412 789L401 835M412 789L503 843M412 789L381 893M531 734L620 756M531 734L503 843M620 756L678 774M678 774L779 788M678 774L635 862M678 774L687 878M779 788L843 731M779 788L769 858M843 731L907 766M907 766L984 767M907 766L876 839M907 766L948 838M984 767L948 838M984 767L1043 812M1097 732L1141 751M1097 732L1043 812M1254 799L1350 736M1254 799L1196 862M1254 799L1273 853M1350 736L1419 771M1350 736L1405 831M1419 771L1511 724M1419 771L1405 831M1419 771L1446 821M1511 724L1578 730M1511 724L1446 821M1578 730L1637 731M1578 730L1578 840M1637 731L1719 780M1719 780L1825 761M1719 780L1713 825M1719 780L1766 811M1825 761L1908 755M1825 761L1766 811M1825 761L1910 828M1908 755L1980 793M1908 755L1910 828M1908 755L1970 824M1980 793L2023 772M1980 793L1910 828M1980 793L1970 824M2023 772L2083 728M2023 772L1970 824M2023 772L2076 864M2185 792L2243 779M2185 792L2132 860M2185 792L2192 872M2185 792L2245 818M2243 779L2327 723M2243 779L2245 818M2243 779L2329 808M2327 723L2329 808M2465 721L2515 748M59 838L93 867M59 838L164 825M59 838L-27 874M59 838L69 901M2619 838L2533 874M93 867L164 825M93 867L69 901M93 867L165 908M274 801L357 829M274 801L247 909M357 829L401 835M357 829L381 893M401 835L503 843M401 835L381 893M503 843L558 897M503 843L586 920M635 862L687 878M635 862L558 897M635 862L586 920M687 878L769 858M687 878L710 922M769 858L710 922M769 858L800 890M876 839L948 838M876 839L962 858M876 839L878 913M948 838L962 858M948 838L1043 812M962 858L1043 812M962 858L878 913M962 858L902 936M1043 812L1065 900M1196 862L1273 853M1196 862L1125 942M1196 862L1258 956M1196 862L1206 975M1273 853L1354 875M1273 853L1258 956M1273 853L1337 888M1354 875L1405 831M1354 875L1337 888M1354 875L1390 958M1354 875L1382 962M1405 831L1446 821M1405 831L1337 888M1446 821L1578 840M1578 840L1618 860M1578 840L1530 945M1578 840L1665 886M1618 860L1713 825M1618 860L1530 945M1618 860L1665 886M1618 860L1583 984M1713 825L1766 811M1713 825L1665 886M1713 825L1752 911M1766 811L1752 911M1910 828L1970 824M1910 828L1920 915M1970 824L1979 913M2076 864L2132 860M2076 864L1979 913M2076 864L2016 938M2132 860L2192 872M2132 860L2156 950M2132 860L2219 891M2192 872L2245 818M2192 872L2219 891M2192 872L2249 923M2245 818L2329 808M2245 818L2219 891M2329 808L2341 899M2472 880L2533 874M2472 880L2457 914M2472 880L2515 929M2472 880L2439 973M2472 880L2500 970M2533 874L2457 914M2533 874L2515 929M69 901L105 948M69 901L49 962M105 948L165 908M105 948L49 962M105 948L149 972M105 948L161 981M165 908L247 909M165 908L149 972M165 908L161 981M247 909L161 981M247 909L283 970M477 953L558 897M477 953L435 999M477 953L518 1018M558 897L586 920M710 922L800 890M710 922L693 1009M710 922L740 1013M800 890L878 913M878 913L902 936M902 936L973 958M902 936L850 1025M902 936L924 1028M973 958L1065 900M973 958L986 1016M973 958L1078 993M1065 900L1125 942M1065 900L1078 993M1065 900L1124 1005M1125 942L1078 993M1125 942L1124 1005M1125 942L1206 975M1258 956L1206 975M1258 956L1298 1031M1337 888L1390 958M1337 888L1382 962M1390 958L1475 936M1390 958L1382 962M1390 958L1451 1011M1475 936L1530 945M1475 936L1451 1011M1530 945L1451 1011M1530 945L1583 984M1665 886L1752 911M1752 911L1783 954M1752 911L1677 997M1783 954L1700 1030M1783 954L1809 1038M1783 954L1867 1016M1920 915L1979 913M1920 915L2016 938M1920 915L1867 1016M1920 915L1923 974M1979 913L2016 938M1979 913L1923 974M2016 938L1923 974M2016 938L2074 999M2156 950L2219 891M2156 950L2157 974M2156 950L2139 1044M2219 891L2249 923M2249 923L2341 899M2249 923L2157 974M2249 923L2251 984M2341 899L2334 987M2457 914L2515 929M2457 914L2439 973M2457 914L2500 970M2515 929L2439 973M2515 929L2500 970M49 962L149 972M49 962L-60 970M49 962L79 1058M2609 962L2500 970M149 972L161 981M149 972L191 1060M161 981L191 1060M283 970L361 1028M361 1028L435 999M361 1028L389 1106M361 1028L408 1111M361 1028L362 1140M435 999L518 1018M435 999L389 1106M435 999L408 1111M518 1018L555 1041M518 1018L589 1068M630 1037L693 1009M630 1037L555 1041M630 1037L589 1068M630 1037L716 1064M630 1037L608 1136M693 1009L740 1013M693 1009L716 1064M693 1009L752 1079M740 1013L850 1025M740 1013L716 1064M740 1013L752 1079M850 1025L924 1028M850 1025L859 1110M924 1028L986 1016M924 1028L906 1108M924 1028L990 1100M986 1016L1078 993M986 1016L990 1100M986 1016L1050 1102M1078 993L1124 1005M1124 1005L1206 975M1124 1005L1135 1106M1298 1031L1214 1097M1298 1031L1324 1080M1298 1031L1361 1050M1382 962L1451 1011M1382 962L1361 1050M1451 1011L1447 1052M1583 984L1677 997M1583 984L1570 1090M1583 984L1667 1041M1677 997L1700 1030M1677 997L1667 1041M1677 997L1702 1071M1700 1030L1667 1041M1700 1030L1702 1071M1809 1038L1867 1016M1809 1038L1702 1071M1809 1038L1790 1109M1809 1038L1859 1096M1867 1016L1923 974M1867 1016L1859 1096M1923 974L1981 1078M2074 999L2157 974M2074 999L2037 1072M2074 999L2139 1044M2157 974L2197 1024M2157 974L2139 1044M2197 1024L2251 984M2197 1024L2139 1044M2197 1024L2237 1107M2197 1024L2268 1087M2251 984L2334 987M2334 987L2439 973M2334 987L2400 1066M2439 973L2500 970M79 1058L126 1101M126 1101L191 1060M126 1101L55 1166M126 1101L131 1164M126 1101L183 1170M191 1060L268 1105M191 1060L270 1126M268 1105L270 1126M389 1106L408 1111M389 1106L362 1140M389 1106L408 1143M408 1111L362 1140M408 1111L408 1143M555 1041L589 1068M555 1041L521 1142M589 1068L521 1142M589 1068L608 1136M716 1064L752 1079M752 1079L710 1170M752 1079L765 1165M859 1110L906 1108M859 1110L765 1165M859 1110L855 1168M859 1110L907 1196M906 1108L990 1100M906 1108L855 1168M906 1108L907 1196M990 1100L1050 1102M990 1100L1009 1167M1050 1102L1135 1106M1050 1102L1009 1167M1050 1102L1093 1146M1135 1106L1214 1097M1135 1106L1093 1146M1135 1106L1195 1171M1214 1097L1195 1171M1214 1097L1220 1188M1324 1080L1361 1050M1324 1080L1324 1161M1361 1050L1447 1052M1447 1052L1425 1157M1570 1090L1667 1041M1570 1090L1538 1184M1570 1090L1606 1129M1667 1041L1702 1071M1702 1071L1790 1109M1790 1109L1859 1096M1790 1109L1759 1166M1790 1109L1793 1194M1859 1096L1904 1172M1981 1078L2037 1072M1981 1078L1947 1159M1981 1078L2008 1167M2037 1072L1947 1159M2037 1072L2008 1167M2139 1044L2173 1137M2237 1107L2268 1087M2237 1107L2173 1137M2237 1107L2313 1133M2268 1087L2332 1109M2268 1087L2313 1133M2268 1087L2341 1135M2332 1109L2400 1066M2332 1109L2313 1133M2332 1109L2341 1135M2400 1066L2488 1099M2400 1066L2341 1135M2488 1099L2476 1194M2488 1099L2525 1160M55 1166L131 1164M55 1166L-35 1160M55 1166L48 1244M55 1166L134 1210M2615 1166L2525 1160M131 1164L183 1170M131 1164L134 1210M131 1164L202 1200M183 1170L270 1126M183 1170L134 1210M183 1170L202 1200M270 1126L362 1140M270 1126L202 1200M362 1140L408 1143M408 1143L521 1142M521 1142L608 1136M521 1142L599 1214M608 1136L710 1170M608 1136L599 1214M710 1170L765 1165M710 1170L729 1240M765 1165L855 1168M765 1165L729 1240M855 1168L907 1196M855 1168L875 1246M907 1196L875 1246M907 1196L948 1232M1009 1167L1093 1146M1009 1167L948 1232M1009 1167L1063 1219M1093 1146L1063 1219M1093 1146L1139 1215M1195 1171L1220 1188M1195 1171L1139 1215M1195 1171L1254 1202M1220 1188L1139 1215M1220 1188L1254 1202M1220 1188L1325 1207M1324 1161L1425 1157M1324 1161L1254 1202M1324 1161L1325 1207M1425 1157L1450 1187M1425 1157L1437 1213M1425 1157L1463 1231M1450 1187L1538 1184M1450 1187L1437 1213M1450 1187L1463 1231M1538 1184L1606 1129M1538 1184L1561 1245M1759 1166L1793 1194M1759 1166L1753 1233M1759 1166L1771 1202M1793 1194L1753 1233M1793 1194L1771 1202M1793 1194L1865 1245M1904 1172L1947 1159M1904 1172L1865 1245M1904 1172L1948 1245M1947 1159L2008 1167M1947 1159L1948 1245M2008 1167L1948 1245M2008 1167L2053 1231M2155 1164L2173 1137M2155 1164L2126 1236M2173 1137L2126 1236M2313 1133L2341 1135M2313 1133L2297 1232M2341 1135L2368 1217M2476 1194L2525 1160M2476 1194L2472 1274M2476 1194L2541 1255M48 1244L134 1210M48 1244L-19 1255M48 1244L10 1322M48 1244L112 1336M2608 1244L2541 1255M134 1210L202 1200M202 1200L209 1303M301 1279L346 1279M301 1279L209 1303M301 1279L266 1341M301 1279L349 1328M301 1279L301 1382M346 1279L436 1266M346 1279L349 1328M346 1279L401 1332M436 1266L539 1276M436 1266L401 1332M539 1276L599 1214M539 1276L548 1338M539 1276L587 1311M599 1214L587 1311M599 1214L655 1282M710 1277L729 1240M710 1277L655 1282M710 1277L740 1319M729 1240L655 1282M729 1240L740 1319M875 1246L948 1232M875 1246L974 1268M875 1246L808 1339M948 1232L974 1268M948 1232L967 1326M974 1268L1063 1219M974 1268L935 1355M974 1268L967 1326M1063 1219L1139 1215M1063 1219L1083 1358M1139 1215L1254 1202M1254 1202L1325 1207M1325 1207L1323 1284M1437 1213L1463 1231M1437 1213L1390 1309M1463 1231L1561 1245M1463 1231L1490 1315M1561 1245L1626 1277M1561 1245L1490 1315M1561 1245L1635 1325M1626 1277L1564 1341M1626 1277L1635 1325M1626 1277L1724 1308M1753 1233L1771 1202M1753 1233L1724 1308M1753 1233L1833 1307M1865 1245L1948 1245M1865 1245L1833 1307M1865 1245L1920 1314M1948 1245L1920 1314M2053 1231L2126 1236M2053 1231L2043 1313M2126 1236L2197 1274M2126 1236L2043 1313M2197 1274L2138 1350M2197 1274L2228 1313M2297 1232L2368 1217M2297 1232L2228 1313M2297 1232L2295 1328M2297 1232L2351 1312M2368 1217L2351 1312M2368 1217L2419 1328M2472 1274L2541 1255M2472 1274L2419 1328M2472 1274L2495 1285M2472 1274L2453 1371M2541 1255L2570 1322M2541 1255L2495 1285M-19 1255L10 1322M10 1322L-65 1285M10 1322L46 1392M2570 1322L2495 1285M112 1336L209 1303M112 1336L46 1392M112 1336L112 1426M209 1303L266 1341M266 1341L301 1382M266 1341L326 1387M349 1328L401 1332M349 1328L301 1382M349 1328L326 1387M401 1332L326 1387M401 1332L462 1405M548 1338L587 1311M548 1338L462 1405M548 1338L540 1395M548 1338L638 1382M587 1311L655 1282M587 1311L638 1382M655 1282L740 1319M740 1319L808 1339M740 1319L785 1384M808 1339L785 1384M935 1355L967 1326M935 1355L908 1421M935 1355L989 1394M967 1326L989 1394M1083 1358L1197 1336M1083 1358L989 1394M1083 1358L1073 1426M1083 1358L1195 1382M1197 1336L1225 1341M1197 1336L1195 1382M1225 1341L1323 1284M1225 1341L1195 1382M1225 1341L1224 1434M1323 1284L1390 1309M1390 1309L1490 1315M1390 1309L1401 1427M1390 1309L1467 1365M1490 1315L1564 1341M1490 1315L1467 1365M1564 1341L1635 1325M1564 1341L1467 1365M1564 1341L1589 1440M1635 1325L1724 1308M1724 1308L1833 1307M1724 1308L1739 1388M1833 1307L1852 1357M1833 1307L1920 1314M1852 1357L1920 1314M1852 1357L1761 1416M1852 1357L1864 1430M1920 1314L1978 1373M2043 1313L2138 1350M2043 1313L1978 1373M2043 1313L2028 1392M2138 1350L2221 1393M2228 1313L2295 1328M2228 1313L2221 1393M2228 1313L2258 1372M2295 1328L2351 1312M2295 1328L2221 1393M2295 1328L2258 1372M2351 1312L2419 1328M2419 1328L2495 1285M2419 1328L2453 1371M2495 1285L2453 1371M46 1392L112 1426M112 1426L238 1425M238 1425L301 1382M238 1425L326 1387M301 1382L326 1387M462 1405L540 1395M540 1395L638 1382M638 1382L686 1408M785 1384L863 1431M863 1431L908 1421M908 1421L989 1394M989 1394L1073 1426M1195 1382L1224 1434M1340 1436L1401 1427M1401 1427L1467 1365M1589 1440L1658 1428M1658 1428L1739 1388M1739 1388L1761 1416M1761 1416L1864 1430M1978 1373L2028 1392M2028 1392L2093 1433M2221 1393L2258 1372M2258 1372L2338 1434M2453 1371L2509 1439"/></svg>