<svg xmlns="http://www.w3.org/2000/svg" width="2560" height="1440" fill="#fff"><circle cx="58" cy="23" r="4"/><circle cx="90" cy="37" r="6"/><circle cx="181" cy="19" r="6"/><circle cx="242" cy="70" r="5"/><circle cx="339" cy="23" r="5"/><circle cx="467" cy="14" r="6"/><circle cx="501" cy="0" r="6"/><circle cx="501" cy="1440" r="6"/><circle cx="631" cy="45" r="5"/><circle cx="658" cy="74" r="5"/><circle cx="770" cy="19" r="5"/><circle cx="848" cy="21" r="6"/><circle cx="933" cy="75" r="5"/><circle cx="1029" cy="73" r="5"/><circle cx="1042" cy="28" r="4"/><circle cx="1163" cy="24" r="5"/><circle cx="1251" cy="11" r="4"/><circle cx="1325" cy="71" r="5"/><circle cx="1392" cy="69" r="5"/><circle cx="1508" cy="18" r="6"/><circle cx="1546" cy="15" r="5"/><circle cx="1652" cy="41" r="5"/><circle cx="1755" cy="18" r="6"/><circle cx="1793" cy="9" r="5"/><circle cx="1849" cy="48" r="5"/><circle cx="1935" cy="45" r="6"/><circle cx="2068" cy="35" r="5"/><circle cx="2136" cy="6" r="6"/><circle cx="2136" cy="1446" r="6"/><circle cx="2182" cy="9" r="6"/><circle cx="2275" cy="71" r="5"/><circle cx="2331" cy="53" r="5"/><circle cx="2456" cy="22" r="6"/><circle cx="2509" cy="3" r="5"/><circle cx="2509" cy="1443" r="5"/><circle cx="31" cy="144" r="5"/><circle cx="155" cy="132" r="5"/><circle cx="164" cy="109" r="5"/><circle cx="249" cy="115" r="5"/><circle cx="340" cy="152" r="6"/><circle cx="443" cy="92" r="5"/><circle cx="511" cy="94" r="6"/><circle cx="633" cy="146" r="5"/><circle cx="668" cy="110" r="5"/><circle cx="731" cy="154" r="4"/><circle cx="822" cy="109" r="4"/><circle cx="944" cy="138" r="5"/><circle cx="1028" cy="151" r="5"/><circle cx="1043" cy="142" r="5"/><circle cx="1128" cy="156" r="5"/><circle cx="1261" cy="137" r="6"/><circle cx="1325" cy="108" r="5"/><circle cx="1440" cy="97" r="4"/><circle cx="1482" cy="154" r="5"/><circle cx="1561" cy="114" r="5"/><circle cx="1616" cy="99" r="4"/><circle cx="1748" cy="83" r="6"/><circle cx="1811" cy="111" r="5"/><circle cx="1883" cy="129" r="5"/><circle cx="1987" cy="154" r="5"/><circle cx="2041" cy="106" r="6"/><circle cx="2131" cy="80" r="5"/><circle cx="2164" cy="149" r="5"/><circle cx="2288" cy="124" r="4"/><circle cx="2395" cy="97" r="4"/><circle cx="2416" cy="158" r="6"/><circle cx="2534" cy="144" r="5"/><circle cx="9" cy="214" r="5"/><circle cx="84" cy="176" r="5"/><circle cx="214" cy="181" r="6"/><circle cx="298" cy="215" r="5"/><circle cx="328" cy="240" r="4"/><circle cx="433" cy="210" r="5"/><circle cx="526" cy="181" r="5"/><circle cx="597" cy="238" r="5"/><circle cx="693" cy="236" r="4"/><circle cx="748" cy="221" r="4"/><circle cx="803" cy="193" r="5"/><circle cx="942" cy="179" r="6"/><circle cx="1022" cy="166" r="5"/><circle cx="1111" cy="171" r="4"/><circle cx="1125" cy="193" r="4"/><circle cx="1203" cy="188" r="6"/><circle cx="1315" cy="226" r="4"/><circle cx="1391" cy="169" r="5"/><circle cx="1470" cy="223" r="4"/><circle cx="1535" cy="178" r="4"/><circle cx="1646" cy="193" r="5"/><circle cx="1685" cy="233" r="5"/><circle cx="1769" cy="198" r="4"/><circle cx="1844" cy="175" r="4"/><circle cx="1945" cy="239" r="5"/><circle cx="2005" cy="238" r="4"/><circle cx="2101" cy="184" r="4"/><circle cx="2221" cy="191" r="5"/><circle cx="2260" cy="203" r="4"/><circle cx="2353" cy="236" r="4"/><circle cx="2455" cy="204" r="5"/><circle cx="2492" cy="232" r="4"/><circle cx="52" cy="296" r="6"/><circle cx="148" cy="255" r="5"/><circle cx="164" cy="245" r="5"/><circle cx="293" cy="292" r="6"/><circle cx="340" cy="241" r="5"/><circle cx="447" cy="320" r="5"/><circle cx="544" cy="301" r="5"/><circle cx="602" cy="300" r="4"/><circle cx="699" cy="295" r="5"/><circle cx="772" cy="305" r="4"/><circle cx="876" cy="274" r="4"/><circle cx="917" cy="265" r="5"/><circle cx="1020" cy="296" r="5"/><circle cx="1047" cy="288" r="6"/><circle cx="1184" cy="310" r="5"/><circle cx="1268" cy="306" r="5"/><circle cx="1324" cy="249" r="5"/><circle cx="1371" cy="257" r="5"/><circle cx="1478" cy="312" r="5"/><circle cx="1555" cy="296" r="6"/><circle cx="1663" cy="298" r="6"/><circle cx="1710" cy="275" r="6"/><circle cx="1773" cy="304" r="5"/><circle cx="1864" cy="252" r="6"/><circle cx="1946" cy="304" r="6"/><circle cx="2073" cy="295" r="5"/><circle cx="2136" cy="275" r="5"/><circle cx="2235" cy="256" r="4"/><circle cx="2307" cy="278" r="5"/><circle cx="2394" cy="266" r="6"/><circle cx="2407" cy="310" r="5"/><circle cx="2547" cy="313" r="5"/><circle cx="52" cy="325" r="5"/><circle cx="106" cy="389" r="5"/><circle cx="190" cy="334" r="5"/><circle cx="288" cy="346" r="4"/><circle cx="341" cy="367" r="6"/><circle cx="413" cy="341" r="6"/><circle cx="541" cy="392" r="5"/><circle cx="583" cy="387" r="5"/><circle cx="647" cy="338" r="5"/><circle cx="779" cy="355" r="5"/><circle cx="843" cy="346" r="5"/><circle cx="924" cy="375" r="6"/><circle cx="1018" cy="398" r="6"/><circle cx="1117" cy="327" r="4"/><circle cx="1146" cy="394" r="6"/><circle cx="1206" cy="376" r="4"/><circle cx="1310" cy="341" r="5"/><circle cx="1421" cy="324" r="6"/><circle cx="1514" cy="354" r="6"/><circle cx="1566" cy="358" r="6"/><circle cx="1602" cy="388" r="4"/><circle cx="1748" cy="389" r="6"/><circle cx="1784" cy="372" r="6"/><circle cx="1861" cy="390" r="5"/><circle cx="1967" cy="381" r="5"/><circle cx="2076" cy="333" r="5"/><circle cx="2095" cy="358" r="5"/><circle cx="2166" cy="367" r="4"/><circle cx="2312" cy="382" r="6"/><circle cx="2322" cy="370" r="4"/><circle cx="2451" cy="351" r="5"/><circle cx="2500" cy="327" r="6"/><circle cx="23" cy="422" r="6"/><circle cx="119" cy="475" r="5"/><circle cx="212" cy="456" r="4"/><circle cx="275" cy="473" r="6"/><circle cx="354" cy="459" r="5"/><circle cx="426" cy="409" r="6"/><circle cx="514" cy="423" r="5"/><circle cx="618" cy="418" r="4"/><circle cx="655" cy="470" r="5"/><circle cx="777" cy="408" r="5"/><circle cx="838" cy="472" r="4"/><circle cx="913" cy="459" r="4"/><circle cx="991" cy="478" r="5"/><circle cx="1043" cy="413" r="5"/><circle cx="1139" cy="429" r="5"/><circle cx="1273" cy="468" r="5"/><circle cx="1341" cy="418" r="5"/><circle cx="1370" cy="451" r="5"/><circle cx="1472" cy="463" r="5"/><circle cx="1585" cy="451" r="5"/><circle cx="1644" cy="407" r="5"/><circle cx="1759" cy="447" r="5"/><circle cx="1810" cy="402" r="5"/><circle cx="1842" cy="434" r="5"/><circle cx="1950" cy="404" r="5"/><circle cx="2072" cy="432" r="5"/><circle cx="2083" cy="423" r="4"/><circle cx="2211" cy="469" r="5"/><circle cx="2315" cy="471" r="4"/><circle cx="2380" cy="466" r="6"/><circle cx="2445" cy="479" r="6"/><circle cx="2525" cy="477" r="5"/><circle cx="38" cy="494" r="5"/><circle cx="129" cy="509" r="4"/><circle cx="173" cy="486" r="5"/><circle cx="267" cy="542" r="4"/><circle cx="368" cy="524" r="5"/><circle cx="472" cy="520" r="4"/><circle cx="510" cy="539" r="4"/><circle cx="615" cy="512" r="5"/><circle cx="679" cy="517" r="4"/><circle cx="768" cy="509" r="4"/><circle cx="801" cy="490" r="6"/><circle cx="909" cy="556" r="4"/><circle cx="1004" cy="519" r="6"/><circle cx="1081" cy="517" r="5"/><circle cx="1163" cy="503" r="6"/><circle cx="1232" cy="505" r="6"/><circle cx="1317" cy="516" r="5"/><circle cx="1422" cy="490" r="6"/><circle cx="1457" cy="481" r="5"/><circle cx="1542" cy="507" r="4"/><circle cx="1632" cy="481" r="5"/><circle cx="1748" cy="497" r="4"/><circle cx="1805" cy="557" r="5"/><circle cx="1869" cy="499" r="6"/><circle cx="1985" cy="489" r="5"/><circle cx="2034" cy="500" r="5"/><circle cx="2160" cy="502" r="5"/><circle cx="2236" cy="528" r="5"/><circle cx="2303" cy="516" r="5"/><circle cx="2398" cy="529" r="5"/><circle cx="2439" cy="509" r="5"/><circle cx="2503" cy="559" r="5"/><circle cx="6" cy="595" r="4"/><circle cx="119" cy="575" r="5"/><circle cx="189" cy="616" r="6"/><circle cx="286" cy="578" r="4"/><circle cx="389" cy="561" r="5"/><circle cx="468" cy="627" r="5"/><circle cx="507" cy="631" r="5"/><circle cx="563" cy="601" r="5"/><circle cx="649" cy="564" r="5"/><circle cx="721" cy="610" r="5"/><circle cx="801" cy="580" r="4"/><circle cx="921" cy="629" r="5"/><circle cx="962" cy="572" r="4"/><circle cx="1048" cy="610" r="5"/><circle cx="1148" cy="608" r="5"/><circle cx="1273" cy="577" r="6"/><circle cx="1304" cy="592" r="5"/><circle cx="1394" cy="605" r="6"/><circle cx="1516" cy="576" r="5"/><circle cx="1596" cy="573" r="4"/><circle cx="1668" cy="563" r="5"/><circle cx="1713" cy="628" r="6"/><circle cx="1776" cy="632" r="5"/><circle cx="1856" cy="632" r="5"/><circle cx="1980" cy="624" r="5"/><circle cx="2062" cy="603" r="4"/><circle cx="2157" cy="625" r="5"/><circle cx="2226" cy="569" r="5"/><circle cx="2307" cy="593" r="5"/><circle cx="2332" cy="592" r="6"/><circle cx="2430" cy="611" r="4"/><circle cx="2524" cy="578" r="5"/><circle cx="46" cy="658" r="5"/><circle cx="83" cy="651" r="6"/><circle cx="181" cy="652" r="6"/><circle cx="285" cy="714" r="6"/><circle cx="353" cy="691" r="5"/><circle cx="434" cy="653" r="4"/><circle cx="540" cy="688" r="5"/><circle cx="598" cy="651" r="5"/><circle cx="697" cy="648" r="4"/><circle cx="774" cy="645" r="5"/><circle cx="880" cy="705" r="5"/><circle cx="906" cy="650" r="4"/><circle cx="966" cy="648" r="5"/><circle cx="1118" cy="695" r="5"/><circle cx="1188" cy="659" r="6"/><circle cx="1276" cy="691" r="4"/><circle cx="1295" cy="688" r="6"/><circle cx="1397" cy="647" r="4"/><circle cx="1445" cy="719" r="5"/><circle cx="1549" cy="692" r="5"/><circle cx="1674" cy="686" r="4"/><circle cx="1693" cy="651" r="5"/><circle cx="1784" cy="672" r="6"/><circle cx="1855" cy="696" r="4"/><circle cx="2000" cy="657" r="5"/><circle cx="2042" cy="667" r="5"/><circle cx="2105" cy="718" r="6"/><circle cx="2215" cy="705" r="5"/><circle cx="2283" cy="712" r="5"/><circle cx="2395" cy="669" r="6"/><circle cx="2429" cy="658" r="4"/><circle cx="2556" cy="700" r="5"/><circle cx="-4" cy="700" r="5"/><circle cx="31" cy="752" r="6"/><circle cx="89" cy="786" r="4"/><circle cx="182" cy="749" r="5"/><circle cx="250" cy="772" r="6"/><circle cx="346" cy="759" r="4"/><circle cx="448" cy="764" r="5"/><circle cx="513" cy="784" r="5"/><circle cx="597" cy="721" r="6"/><circle cx="713" cy="756" r="6"/><circle cx="749" cy="741" r="5"/><circle cx="854" cy="782" r="5"/><circle cx="881" cy="799" r="5"/><circle cx="1035" cy="737" r="4"/><circle cx="1043" cy="755" r="5"/><circle cx="1152" cy="776" r="4"/><circle cx="1224" cy="766" r="6"/><circle cx="1287" cy="734" r="5"/><circle cx="1384" cy="765" r="5"/><circle cx="1499" cy="778" r="6"/><circle cx="1524" cy="780" r="6"/><circle cx="1630" cy="762" r="5"/><circle cx="1686" cy="796" r="5"/><circle cx="1765" cy="742" r="5"/><circle cx="1912" cy="791" r="5"/><circle cx="1983" cy="739" r="5"/><circle cx="2001" cy="787" r="5"/><circle cx="2103" cy="796" r="5"/><circle cx="2185" cy="752" r="5"/><circle cx="2264" cy="758" r="6"/><circle cx="2328" cy="780" r="5"/><circle cx="2422" cy="726" r="6"/><circle cx="2525" cy="744" r="5"/><circle cx="79" cy="872" r="5"/><circle cx="93" cy="839" r="6"/><circle cx="170" cy="825" r="5"/><circle cx="255" cy="872" r="6"/><circle cx="372" cy="846" r="4"/><circle cx="472" cy="854" r="5"/><circle cx="497" cy="820" r="5"/><circle cx="638" cy="838" r="4"/><circle cx="681" cy="821" r="5"/><circle cx="786" cy="837" r="6"/><circle cx="869" cy="826" r="6"/><circle cx="946" cy="862" r="6"/><circle cx="972" cy="807" r="4"/><circle cx="1089" cy="860" r="5"/><circle cx="1174" cy="865" r="4"/><circle cx="1232" cy="825" r="4"/><circle cx="1323" cy="838" r="6"/><circle cx="1391" cy="878" r="4"/><circle cx="1453" cy="806" r="5"/><circle cx="1562" cy="871" r="5"/><circle cx="1675" cy="866" r="6"/><circle cx="1728" cy="849" r="5"/><circle cx="1789" cy="869" r="6"/><circle cx="1871" cy="805" r="4"/><circle cx="1926" cy="808" r="5"/><circle cx="2018" cy="835" r="5"/><circle cx="2096" cy="847" r="5"/><circle cx="2202" cy="844" r="6"/><circle cx="2276" cy="870" r="5"/><circle cx="2394" cy="845" r="5"/><circle cx="2439" cy="842" r="4"/><circle cx="2543" cy="815" r="6"/><circle cx="24" cy="939" r="6"/><circle cx="152" cy="957" r="5"/><circle cx="232" cy="882" r="6"/><circle cx="308" cy="958" r="5"/><circle cx="365" cy="891" r="5"/><circle cx="415" cy="895" r="5"/><circle cx="543" cy="941" r="4"/><circle cx="626" cy="936" r="6"/><circle cx="710" cy="904" r="4"/><circle cx="748" cy="918" r="5"/><circle cx="829" cy="907" r="6"/><circle cx="957" cy="889" r="6"/><circle cx="975" cy="953" r="5"/><circle cx="1059" cy="906" r="6"/><circle cx="1148" cy="895" r="4"/><circle cx="1222" cy="914" r="5"/><circle cx="1327" cy="893" r="4"/><circle cx="1404" cy="916" r="4"/><circle cx="1488" cy="935" r="4"/><circle cx="1542" cy="913" r="5"/><circle cx="1678" cy="929" r="5"/><circle cx="1740" cy="940" r="4"/><circle cx="1783" cy="930" r="5"/><circle cx="1842" cy="918" r="5"/><circle cx="1931" cy="939" r="5"/><circle cx="2001" cy="904" r="5"/><circle cx="2126" cy="908" r="4"/><circle cx="2228" cy="950" r="6"/><circle cx="2257" cy="921" r="5"/><circle cx="2376" cy="947" r="5"/><circle cx="2424" cy="891" r="5"/><circle cx="2539" cy="883" r="5"/><circle cx="46" cy="1032" r="6"/><circle cx="112" cy="1014" r="4"/><circle cx="179" cy="978" r="5"/><circle cx="287" cy="1019" r="6"/><circle cx="329" cy="962" r="5"/><circle cx="479" cy="1033" r="6"/><circle cx="553" cy="1012" r="5"/><circle cx="621" cy="973" r="5"/><circle cx="696" cy="960" r="5"/><circle cx="745" cy="1017" r="5"/><circle cx="841" cy="1014" r="5"/><circle cx="905" cy="1010" r="6"/><circle cx="1010" cy="990" r="4"/><circle cx="1047" cy="1002" r="4"/><circle cx="1128" cy="998" r="5"/><circle cx="1273" cy="1012" r="4"/><circle cx="1354" cy="1026" r="6"/><circle cx="1427" cy="1015" r="6"/><circle cx="1482" cy="996" r="5"/><circle cx="1578" cy="969" r="6"/><circle cx="1608" cy="1008" r="5"/><circle cx="1739" cy="1017" r="5"/><circle cx="1762" cy="962" r="5"/><circle cx="1856" cy="1030" r="5"/><circle cx="1981" cy="1001" r="6"/><circle cx="2079" cy="1005" r="5"/><circle cx="2113" cy="974" r="5"/><circle cx="2171" cy="974" r="4"/><circle cx="2249" cy="1002" r="6"/><circle cx="2390" cy="999" r="4"/><circle cx="2419" cy="1024" r="6"/><circle cx="2503" cy="1032" r="6"/><circle cx="64" cy="1051" r="4"/><circle cx="125" cy="1070" r="6"/><circle cx="176" cy="1116" r="6"/><circle cx="289" cy="1049" r="4"/><circle cx="384" cy="1072" r="5"/><circle cx="444" cy="1105" r="5"/><circle cx="539" cy="1119" r="5"/><circle cx="593" cy="1081" r="5"/><circle cx="701" cy="1053" r="5"/><circle cx="756" cy="1043" r="5"/><circle cx="861" cy="1064" r="5"/><circle cx="927" cy="1105" r="5"/><circle cx="994" cy="1112" r="5"/><circle cx="1086" cy="1046" r="5"/><circle cx="1157" cy="1053" r="6"/><circle cx="1239" cy="1072" r="5"/><circle cx="1345" cy="1109" r="5"/><circle cx="1428" cy="1086" r="5"/><circle cx="1452" cy="1117" r="5"/><circle cx="1531" cy="1067" r="5"/><circle cx="1613" cy="1109" r="5"/><circle cx="1680" cy="1103" r="5"/><circle cx="1789" cy="1119" r="4"/><circle cx="1918" cy="1115" r="5"/><circle cx="1946" cy="1100" r="4"/><circle cx="2074" cy="1061" r="4"/><circle cx="2102" cy="1091" r="5"/><circle cx="2183" cy="1065" r="6"/><circle cx="2256" cy="1088" r="5"/><circle cx="2375" cy="1090" r="5"/><circle cx="2477" cy="1082" r="5"/><circle cx="2524" cy="1057" r="5"/><circle cx="74" cy="1187" r="4"/><circle cx="136" cy="1189" r="5"/><circle cx="166" cy="1164" r="6"/><circle cx="257" cy="1172" r="6"/><circle cx="328" cy="1159" r="5"/><circle cx="465" cy="1186" r="4"/><circle cx="494" cy="1167" r="4"/><circle cx="609" cy="1168" r="4"/><circle cx="650" cy="1160" r="4"/><circle cx="736" cy="1139" r="6"/><circle cx="820" cy="1184" r="6"/><circle cx="914" cy="1182" r="6"/><circle cx="1032" cy="1170" r="5"/><circle cx="1075" cy="1173" r="4"/><circle cx="1133" cy="1199" r="4"/><circle cx="1271" cy="1188" r="5"/><circle cx="1324" cy="1194" r="6"/><circle cx="1425" cy="1171" r="6"/><circle cx="1487" cy="1138" r="5"/><circle cx="1576" cy="1134" r="5"/><circle cx="1662" cy="1123" r="5"/><circle cx="1720" cy="1169" r="5"/><circle cx="1795" cy="1184" r="5"/><circle cx="1892" cy="1196" r="5"/><circle cx="1985" cy="1183" r="4"/><circle cx="2070" cy="1179" r="6"/><circle cx="2155" cy="1141" r="4"/><circle cx="2204" cy="1164" r="5"/><circle cx="2253" cy="1127" r="4"/><circle cx="2356" cy="1188" r="5"/><circle cx="2452" cy="1155" r="6"/><circle cx="2551" cy="1137" r="4"/><circle cx="6" cy="1246" r="6"/><circle cx="160" cy="1277" r="6"/><circle cx="227" cy="1273" r="6"/><circle cx="272" cy="1205" r="4"/><circle cx="337" cy="1201" r="4"/><circle cx="471" cy="1260" r="4"/><circle cx="540" cy="1242" r="5"/><circle cx="583" cy="1236" r="5"/><circle cx="680" cy="1280" r="4"/><circle cx="790" cy="1265" r="6"/><circle cx="872" cy="1243" r="5"/><circle cx="906" cy="1230" r="5"/><circle cx="974" cy="1247" r="4"/><circle cx="1086" cy="1248" r="5"/><circle cx="1154" cy="1202" r="4"/><circle cx="1274" cy="1256" r="5"/><circle cx="1332" cy="1226" r="5"/><circle cx="1364" cy="1211" r="5"/><circle cx="1511" cy="1205" r="4"/><circle cx="1589" cy="1216" r="4"/><circle cx="1631" cy="1203" r="5"/><circle cx="1744" cy="1260" r="5"/><circle cx="1784" cy="1248" r="6"/><circle cx="1871" cy="1204" r="4"/><circle cx="1993" cy="1273" r="5"/><circle cx="2063" cy="1259" r="5"/><circle cx="2132" cy="1216" r="5"/><circle cx="2237" cy="1250" r="5"/><circle cx="2274" cy="1212" r="5"/><circle cx="2386" cy="1267" r="4"/><circle cx="2457" cy="1268" r="5"/><circle cx="2532" cy="1276" r="6"/><circle cx="38" cy="1316" r="4"/><circle cx="90" cy="1323" r="5"/><circle cx="172" cy="1305" r="5"/><circle cx="255" cy="1285" r="6"/><circle cx="345" cy="1353" r="6"/><circle cx="405" cy="1321" r="6"/><circle cx="540" cy="1321" r="6"/><circle cx="597" cy="1299" r="6"/><circle cx="717" cy="1299" r="5"/><circle cx="783" cy="1351" r="6"/><circle cx="824" cy="1344" r="4"/><circle cx="951" cy="1336" r="4"/><circle cx="989" cy="1283" r="5"/><circle cx="1053" cy="1314" r="4"/><circle cx="1189" cy="1343" r="5"/><circle cx="1263" cy="1329" r="6"/><circle cx="1334" cy="1333" r="6"/><circle cx="1422" cy="1288" r="5"/><circle cx="1454" cy="1284" r="6"/><circle cx="1553" cy="1308" r="5"/><circle cx="1676" cy="1321" r="6"/><circle cx="1752" cy="1331" r="6"/><circle cx="1773" cy="1290" r="5"/><circle cx="1861" cy="1285" r="5"/><circle cx="1999" cy="1285" r="5"/><circle cx="2070" cy="1314" r="5"/><circle cx="2121" cy="1342" r="4"/><circle cx="2236" cy="1327" r="6"/><circle cx="2246" cy="1351" r="5"/><circle cx="2337" cy="1351" r="5"/><circle cx="2460" cy="1339" r="5"/><circle cx="2508" cy="1334" r="4"/><circle cx="65" cy="1412" r="4"/><circle cx="148" cy="1438" r="5"/><circle cx="148" cy="-2" r="5"/><circle cx="206" cy="1408" r="4"/><circle cx="307" cy="1385" r="4"/><circle cx="392" cy="1377" r="6"/><circle cx="433" cy="1383" r="5"/><circle cx="494" cy="1413" r="5"/><circle cx="605" cy="1395" r="6"/><circle cx="666" cy="1406" r="5"/><circle cx="762" cy="1418" r="5"/><circle cx="819" cy="1411" r="5"/><circle cx="906" cy="1376" r="5"/><circle cx="995" cy="1433" r="5"/><circle cx="1055" cy="1406" r="5"/><circle cx="1125" cy="1396" r="6"/><circle cx="1218" cy="1426" r="4"/><circle cx="1304" cy="1363" r="6"/><circle cx="1402" cy="1403" r="5"/><circle cx="1487" cy="1418" r="4"/><circle cx="1597" cy="1382" r="6"/><circle cx="1618" cy="1429" r="6"/><circle cx="1746" cy="1402" r="4"/><circle cx="1774" cy="1425" r="6"/><circle cx="1857" cy="1410" r="5"/><circle cx="1984" cy="1370" r="4"/><circle cx="2013" cy="1403" r="6"/><circle cx="2099" cy="1371" r="4"/><circle cx="2233" cy="1373" r="5"/><circle cx="2285" cy="1394" r="6"/><circle cx="2343" cy="1384" r="4"/><circle cx="2404" cy="1384" r="4"/><circle cx="2501" cy="1420" r="5"/><path stroke="#fff" d="M58 23L90 37M58 23L-51 3M58 23L65 -28M58 23L148 -2M2618 23L2509 3M58 1463L65 1412M58 1463L148 1438M90 37L181 19M90 37L65 -28M90 37L148 -2M90 1477L65 1412M90 1477L148 1438M181 19L242 70M181 19L164 109M181 19L148 -2M181 19L206 -32M181 1459L148 1438M181 1459L206 1408M242 70L155 132M242 70L164 109M242 70L249 115M339 23L307 -55M339 23L392 -63M339 1463L307 1385M339 1463L392 1377M467 14L501 0M467 14L443 92M467 14L511 94M467 14L433 -57M467 14L494 -27M467 1454L433 1383M467 1454L494 1413M501 0L443 92M501 0L511 94M501 0L433 -57M501 0L494 -27M501 1440L433 1383M501 1440L494 1413M631 45L658 74M631 45L633 146M631 45L668 110M631 45L605 -45M631 45L666 -34M631 1485L605 1395M631 1485L666 1406M658 74L633 146M658 74L668 110M658 74L666 -34M658 1514L666 1406M770 19L848 21M770 19L822 109M770 19L762 -22M770 19L819 -29M770 1459L762 1418M770 1459L819 1411M848 21L822 109M848 21L762 -22M848 21L819 -29M848 21L906 -64M848 1461L762 1418M848 1461L819 1411M848 1461L906 1376M933 75L944 138M933 75L942 179M933 75L995 -7M933 1515L995 1433M1029 73L1042 28M1029 73L1028 151M1029 73L1043 142M1029 73L1022 166M1029 73L995 -7M1029 1513L995 1433M1042 28L995 -7M1042 28L1055 -34M1042 28L1125 -44M1042 1468L995 1433M1042 1468L1055 1406M1042 1468L1125 1396M1163 24L1251 11M1163 24L1189 -97M1163 24L1055 -34M1163 24L1125 -44M1163 24L1218 -14M1163 1464L1189 1343M1163 1464L1055 1406M1163 1464L1125 1396M1163 1464L1218 1426M1251 11L1325 71M1251 11L1218 -14M1251 11L1304 -77M1251 1451L1218 1426M1251 1451L1304 1363M1325 71L1392 69M1325 71L1261 137M1325 71L1325 108M1392 69L1325 108M1392 69L1440 97M1392 69L1402 -37M1392 1509L1402 1403M1508 18L1546 15M1508 18L1561 114M1508 18L1487 -22M1508 18L1597 -58M1508 18L1618 -11M1508 1458L1487 1418M1508 1458L1597 1382M1508 1458L1618 1429M1546 15L1561 114M1546 15L1487 -22M1546 15L1597 -58M1546 15L1618 -11M1546 1455L1487 1418M1546 1455L1597 1382M1546 1455L1618 1429M1652 41L1616 99M1652 41L1748 83M1652 41L1618 -11M1652 1481L1618 1429M1755 18L1793 9M1755 18L1748 83M1755 18L1746 -38M1755 18L1774 -15M1755 1458L1746 1402M1755 1458L1774 1425M1793 9L1849 48M1793 9L1746 -38M1793 9L1774 -15M1793 9L1857 -30M1793 1449L1746 1402M1793 1449L1774 1425M1793 1449L1857 1410M1849 48L1935 45M1849 48L1811 111M1849 48L1883 129M1849 48L1857 -30M1849 1488L1857 1410M1935 45L1883 129M1935 45L2041 106M1935 45L1857 -30M1935 45L2013 -37M1935 1485L1857 1410M1935 1485L2013 1403M2068 35L2136 6M2068 35L2041 106M2068 35L2131 80M2068 35L2013 -37M2068 1475L2013 1403M2136 6L2182 9M2136 6L2131 80M2136 6L2121 -98M2136 6L2099 -69M2136 1446L2121 1342M2136 1446L2099 1371M2182 9L2131 80M2182 9L2233 -67M2182 1449L2233 1373M2275 71L2331 53M2275 71L2288 124M2331 53L2288 124M2331 53L2395 97M2331 53L2343 -56M2331 1493L2343 1384M2456 22L2509 3M2456 22L2395 97M2456 22L2404 -56M2456 22L2501 -20M2456 1462L2404 1384M2456 1462L2501 1420M2509 3L2501 -20M2509 1443L2501 1420M31 144L-26 144M31 144L9 214M31 144L84 176M2591 144L2534 144M155 132L164 109M155 132L249 115M155 132L84 176M155 132L214 181M164 109L249 115M164 109L214 181M249 115L340 152M249 115L214 181M340 152L298 215M340 152L328 240M340 152L433 210M340 152L340 241M443 92L511 94M443 92L526 181M511 94L526 181M511 94L494 -27M511 1534L494 1413M633 146L668 110M633 146L731 154M633 146L597 238M668 110L731 154M731 154L693 236M731 154L748 221M731 154L803 193M822 109L803 193M944 138L1028 151M944 138L942 179M944 138L1022 166M1028 151L1043 142M1028 151L942 179M1028 151L1022 166M1043 142L1128 156M1043 142L1022 166M1043 142L1111 171M1128 156L1111 171M1128 156L1125 193M1128 156L1203 188M1261 137L1325 108M1261 137L1203 188M1261 137L1315 226M1325 108L1440 97M1325 108L1391 169M1440 97L1482 154M1440 97L1391 169M1482 154L1561 114M1482 154L1391 169M1482 154L1470 223M1482 154L1535 178M1561 114L1616 99M1561 114L1535 178M1616 99L1646 193M1616 99L1618 -11M1616 1539L1618 1429M1748 83L1811 111M1748 83L1774 -15M1748 1523L1774 1425M1811 111L1883 129M1811 111L1769 198M1811 111L1844 175M1883 129L1987 154M1883 129L1844 175M1987 154L2041 106M1987 154L1945 239M1987 154L2005 238M1987 154L2101 184M2041 106L2131 80M2041 106L2101 184M2131 80L2164 149M2164 149L2101 184M2164 149L2221 191M2164 149L2260 203M2288 124L2395 97M2288 124L2221 191M2288 124L2260 203M2395 97L2416 158M2416 158L2353 236M2416 158L2455 204M2534 144L2569 214M2534 144L2455 204M2534 144L2492 232M-26 144L9 214M9 214L84 176M9 214L-68 232M9 214L52 296M2569 214L2492 232M84 176L148 255M84 176L164 245M214 181L298 215M214 181L164 245M298 215L328 240M298 215L293 292M298 215L340 241M328 240L433 210M328 240L293 292M328 240L340 241M433 210L526 181M433 210L340 241M433 210L447 320M526 181L597 238M597 238L693 236M597 238L544 301M597 238L602 300M693 236L748 221M693 236L699 295M693 236L647 338M748 221L803 193M748 221L699 295M748 221L772 305M803 193L876 274M942 179L1022 166M942 179L917 265M1111 171L1125 193M1111 171L1203 188M1125 193L1203 188M1125 193L1047 288M1203 188L1184 310M1315 226L1268 306M1315 226L1324 249M1315 226L1371 257M1391 169L1324 249M1391 169L1371 257M1470 223L1535 178M1470 223L1478 312M1470 223L1421 324M1535 178L1646 193M1646 193L1685 233M1646 193L1663 298M1646 193L1710 275M1685 233L1769 198M1685 233L1663 298M1685 233L1710 275M1769 198L1844 175M1769 198L1710 275M1769 198L1864 252M1844 175L1945 239M1844 175L1864 252M1945 239L2005 238M1945 239L1864 252M1945 239L1946 304M2005 238L1946 304M2005 238L2073 295M2101 184L2073 295M2101 184L2136 275M2221 191L2260 203M2221 191L2235 256M2260 203L2235 256M2260 203L2307 278M2353 236L2307 278M2353 236L2394 266M2353 236L2407 310M2455 204L2492 232M2455 204L2394 266M2492 232L2500 327M52 296L148 255M52 296L-13 313M52 296L52 325M52 296L106 389M2612 296L2547 313M148 255L164 245M148 255L190 334M164 245L190 334M293 292L340 241M293 292L288 346M293 292L341 367M447 320L544 301M447 320L413 341M447 320L426 409M544 301L602 300M544 301L541 392M602 300L583 387M602 300L647 338M699 295L772 305M699 295L647 338M699 295L779 355M772 305L779 355M772 305L843 346M876 274L917 265M876 274L843 346M876 274L924 375M917 265L1020 296M917 265L924 375M1020 296L1047 288M1020 296L1018 398M1020 296L1117 327M1047 288L1018 398M1047 288L1117 327M1184 310L1268 306M1184 310L1117 327M1184 310L1146 394M1184 310L1206 376M1268 306L1324 249M1268 306L1206 376M1268 306L1310 341M1324 249L1371 257M1324 249L1310 341M1371 257L1310 341M1371 257L1421 324M1478 312L1555 296M1478 312L1421 324M1478 312L1514 354M1555 296L1663 298M1555 296L1514 354M1555 296L1566 358M1663 298L1710 275M1710 275L1773 304M1773 304L1864 252M1773 304L1748 389M1773 304L1784 372M1864 252L1946 304M1946 304L1967 381M1946 304L1950 404M2073 295L2136 275M2073 295L2076 333M2073 295L2095 358M2136 275L2076 333M2136 275L2166 367M2235 256L2307 278M2307 278L2394 266M2307 278L2312 382M2394 266L2407 310M2394 266L2451 351M2407 310L2312 382M2407 310L2451 351M2407 310L2500 327M2547 313L2612 325M2547 313L2451 351M2547 313L2500 327M-13 313L52 325M52 325L106 389M52 325L-60 327M52 325L23 422M2612 325L2500 327M106 389L190 334M106 389L23 422M106 389L119 475M190 334L288 346M288 346L341 367M288 346L413 341M341 367L413 341M341 367L354 459M341 367L426 409M413 341L426 409M541 392L583 387M541 392L514 423M541 392L618 418M583 387L647 338M583 387L514 423M583 387L618 418M647 338L618 418M779 355L843 346M779 355L777 408M843 346L924 375M843 346L777 408M924 375L1018 398M924 375L913 459M1018 398L991 478M1018 398L1043 413M1117 327L1146 394M1146 394L1206 376M1146 394L1139 429M1146 394L1163 503M1206 376L1139 429M1310 341L1421 324M1310 341L1341 418M1421 324L1514 354M1514 354L1566 358M1514 354L1602 388M1566 358L1602 388M1566 358L1585 451M1566 358L1644 407M1602 388L1585 451M1602 388L1644 407M1602 388L1632 481M1748 389L1784 372M1748 389L1759 447M1748 389L1810 402M1748 389L1842 434M1784 372L1861 390M1784 372L1759 447M1784 372L1810 402M1861 390L1810 402M1861 390L1842 434M1861 390L1950 404M1861 390L1869 499M1967 381L1950 404M1967 381L1985 489M2076 333L2095 358M2076 333L2072 432M2076 333L2083 423M2095 358L2166 367M2095 358L2072 432M2095 358L2083 423M2312 382L2322 370M2312 382L2315 471M2451 351L2500 327M23 422L-35 477M23 422L38 494M2583 422L2525 477M119 475L38 494M119 475L129 509M119 475L173 486M119 475L119 575M212 456L275 473M212 456L129 509M212 456L173 486M212 456L267 542M275 473L354 459M275 473L173 486M275 473L267 542M275 473L368 524M354 459L426 409M354 459L368 524M354 459L389 561M426 409L514 423M514 423L472 520M618 418L655 470M618 418L615 512M655 470L615 512M655 470L679 517M655 470L649 564M777 408L838 472M777 408L768 509M777 408L801 490M838 472L913 459M838 472L768 509M838 472L801 490M913 459L991 478M913 459L801 490M991 478L1043 413M991 478L1004 519M991 478L1081 517M1043 413L1139 429M1043 413L1004 519M1139 429L1081 517M1139 429L1163 503M1273 468L1341 418M1273 468L1370 451M1273 468L1232 505M1273 468L1317 516M1273 468L1273 577M1341 418L1370 451M1341 418L1422 490M1370 451L1317 516M1370 451L1422 490M1370 451L1457 481M1472 463L1422 490M1472 463L1457 481M1472 463L1542 507M1472 463L1516 576M1585 451L1644 407M1585 451L1542 507M1585 451L1632 481M1644 407L1632 481M1759 447L1810 402M1759 447L1842 434M1759 447L1748 497M1810 402L1842 434M1842 434L1869 499M1950 404L1869 499M1950 404L1985 489M2072 432L2083 423M2072 432L1985 489M2072 432L2034 500M2083 423L2034 500M2083 423L2160 502M2211 469L2160 502M2211 469L2236 528M2211 469L2226 569M2315 471L2380 466M2315 471L2303 516M2380 466L2445 479M2380 466L2303 516M2380 466L2398 529M2380 466L2439 509M2445 479L2525 477M2445 479L2398 529M2445 479L2439 509M2445 479L2503 559M2525 477L2598 494M2525 477L2439 509M2525 477L2503 559M-35 477L38 494M38 494L129 509M129 509L173 486M129 509L119 575M267 542L368 524M267 542L189 616M267 542L286 578M368 524L286 578M368 524L389 561M472 520L510 539M472 520L389 561M510 539L563 601M615 512L679 517M615 512L649 564M679 517L768 509M679 517L649 564M679 517L721 610M768 509L801 490M768 509L801 580M801 490L801 580M909 556L921 629M909 556L962 572M909 556L906 650M1004 519L1081 517M1004 519L962 572M1004 519L1048 610M1081 517L1163 503M1081 517L1048 610M1163 503L1232 505M1163 503L1148 608M1232 505L1317 516M1232 505L1273 577M1232 505L1304 592M1317 516L1273 577M1317 516L1304 592M1422 490L1457 481M1422 490L1394 605M1457 481L1542 507M1457 481L1516 576M1542 507L1516 576M1542 507L1596 573M1632 481L1596 573M1632 481L1668 563M1748 497L1805 557M1748 497L1668 563M1805 557L1869 499M1805 557L1776 632M1805 557L1856 632M1869 499L1985 489M1985 489L2034 500M2034 500L2160 502M2034 500L2062 603M2160 502L2236 528M2160 502L2226 569M2236 528L2303 516M2236 528L2226 569M2236 528L2307 593M2303 516L2307 593M2303 516L2332 592M2398 529L2439 509M2398 529L2332 592M2398 529L2430 611M2439 509L2503 559M2503 559L2566 595M2503 559L2524 578M-57 559L6 595M6 595L-36 578M6 595L46 658M2566 595L2524 578M119 575L189 616M119 575L83 651M119 575L181 652M189 616L286 578M189 616L83 651M189 616L181 652M389 561L468 627M389 561L434 653M468 627L507 631M468 627L434 653M468 627L540 688M507 631L563 601M507 631L434 653M507 631L540 688M507 631L598 651M563 601L649 564M563 601L540 688M563 601L598 651M649 564L721 610M721 610L801 580M721 610L697 648M721 610L774 645M801 580L774 645M921 629L962 572M921 629L880 705M921 629L906 650M921 629L966 648M962 572L1048 610M962 572L966 648M1048 610L1148 608M1048 610L966 648M1148 608L1118 695M1148 608L1188 659M1273 577L1304 592M1304 592L1394 605M1304 592L1295 688M1394 605L1397 647M1516 576L1596 573M1516 576L1549 692M1596 573L1668 563M1668 563L1713 628M1668 563L1693 651M1713 628L1776 632M1713 628L1674 686M1713 628L1693 651M1713 628L1784 672M1776 632L1856 632M1776 632L1693 651M1776 632L1784 672M1856 632L1980 624M1856 632L1784 672M1856 632L1855 696M1980 624L2062 603M1980 624L2000 657M1980 624L2042 667M2062 603L2157 625M2062 603L2000 657M2062 603L2042 667M2157 625L2226 569M2157 625L2105 718M2157 625L2215 705M2226 569L2307 593M2307 593L2332 592M2307 593L2395 669M2332 592L2430 611M2332 592L2395 669M2430 611L2524 578M2430 611L2395 669M2430 611L2429 658M46 658L83 651M46 658L-4 700M46 658L31 752M46 658L-35 744M2606 658L2556 700M2606 658L2525 744M83 651L181 652M83 651L-4 700M2643 651L2556 700M181 652L285 714M181 652L182 749M285 714L353 691M285 714L182 749M285 714L250 772M285 714L346 759M353 691L434 653M353 691L346 759M353 691L448 764M540 688L598 651M540 688L597 721M598 651L697 648M598 651L597 721M697 648L774 645M697 648L713 756M774 645L749 741M880 705L906 650M880 705L966 648M880 705L854 782M880 705L881 799M906 650L966 648M1118 695L1188 659M1118 695L1035 737M1118 695L1043 755M1118 695L1152 776M1188 659L1276 691M1188 659L1295 688M1276 691L1295 688M1276 691L1224 766M1276 691L1287 734M1295 688L1224 766M1295 688L1287 734M1397 647L1445 719M1445 719L1384 765M1445 719L1499 778M1445 719L1524 780M1445 719L1453 806M1549 692L1499 778M1549 692L1524 780M1549 692L1630 762M1674 686L1693 651M1674 686L1630 762M1674 686L1765 742M1784 672L1855 696M1784 672L1765 742M1855 696L1765 742M1855 696L1871 805M2000 657L2042 667M2000 657L1983 739M2042 667L2105 718M2042 667L1983 739M2105 718L2215 705M2105 718L2103 796M2105 718L2185 752M2215 705L2283 712M2215 705L2185 752M2215 705L2264 758M2283 712L2264 758M2283 712L2328 780M2395 669L2429 658M2395 669L2422 726M2429 658L2422 726M2556 700L2591 752M2556 700L2525 744M-4 700L31 752M31 752L89 786M31 752L-35 744M31 752L-17 815M2591 752L2525 744M2591 752L2543 815M89 786L182 749M89 786L79 872M89 786L93 839M182 749L250 772M182 749L170 825M250 772L346 759M250 772L170 825M250 772L255 872M346 759L448 764M346 759L372 846M448 764L513 784M448 764L472 854M448 764L497 820M513 784L597 721M513 784L472 854M513 784L497 820M597 721L713 756M713 756L749 741M713 756L681 821M749 741L681 821M854 782L881 799M854 782L786 837M854 782L869 826M881 799L786 837M881 799L869 826M881 799L946 862M1035 737L1043 755M1035 737L972 807M1043 755L972 807M1043 755L1089 860M1152 776L1224 766M1152 776L1089 860M1152 776L1174 865M1152 776L1232 825M1224 766L1287 734M1224 766L1232 825M1287 734L1384 765M1287 734L1323 838M1384 765L1323 838M1384 765L1453 806M1499 778L1524 780M1499 778L1453 806M1499 778L1562 871M1524 780L1453 806M1524 780L1562 871M1630 762L1686 796M1686 796L1765 742M1686 796L1675 866M1686 796L1728 849M1912 791L1983 739M1912 791L2001 787M1912 791L1871 805M1912 791L1926 808M1983 739L2001 787M1983 739L1926 808M2001 787L2103 796M2001 787L1926 808M2001 787L2018 835M2103 796L2185 752M2103 796L2018 835M2103 796L2096 847M2185 752L2264 758M2185 752L2202 844M2264 758L2328 780M2264 758L2202 844M2328 780L2422 726M2328 780L2276 870M2328 780L2394 845M2422 726L2525 744M2422 726L2394 845M2525 744L2543 815M79 872L93 839M79 872L-17 815M79 872L24 939M79 872L-21 883M2639 872L2543 815M2639 872L2539 883M93 839L170 825M93 839L-17 815M93 839L24 939M2653 839L2543 815M170 825L255 872M170 825L232 882M255 872L232 882M255 872L308 958M255 872L365 891M372 846L472 854M372 846L365 891M372 846L415 895M472 854L497 820M472 854L415 895M497 820L415 895M638 838L681 821M638 838L626 936M638 838L710 904M681 821L710 904M786 837L869 826M786 837L748 918M786 837L829 907M869 826L946 862M869 826L829 907M946 862L972 807M946 862L957 889M946 862L975 953M972 807L957 889M1089 860L1174 865M1089 860L1059 906M1089 860L1148 895M1174 865L1232 825M1174 865L1148 895M1174 865L1222 914M1232 825L1323 838M1232 825L1222 914M1323 838L1391 878M1323 838L1327 893M1391 878L1453 806M1391 878L1327 893M1391 878L1404 916M1562 871L1542 913M1562 871L1578 969M1675 866L1728 849M1675 866L1678 929M1728 849L1789 869M1728 849L1678 929M1789 869L1740 940M1789 869L1783 930M1789 869L1842 918M1789 869L1762 962M1871 805L1926 808M1926 808L2018 835M2018 835L2096 847M2018 835L2001 904M2096 847L2001 904M2096 847L2126 908M2202 844L2276 870M2202 844L2228 950M2202 844L2257 921M2276 870L2228 950M2276 870L2257 921M2394 845L2439 842M2394 845L2376 947M2394 845L2424 891M2439 842L2424 891M2439 842L2539 883M2543 815L2539 883M24 939L-21 883M24 939L46 1032M24 939L-57 1032M2584 939L2539 883M2584 939L2503 1032M152 957L232 882M152 957L112 1014M152 957L179 978M232 882L308 958M232 882L179 978M308 958L365 891M308 958L287 1019M308 958L329 962M365 891L415 895M365 891L329 962M415 895L329 962M543 941L626 936M543 941L479 1033M543 941L553 1012M543 941L621 973M626 936L710 904M626 936L621 973M626 936L696 960M710 904L748 918M710 904L696 960M748 918L829 907M748 918L696 960M748 918L745 1017M829 907L957 889M829 907L841 1014M957 889L975 953M957 889L1059 906M975 953L1059 906M975 953L905 1010M975 953L1010 990M1059 906L1148 895M1059 906L1047 1002M1148 895L1222 914M1148 895L1128 998M1222 914L1327 893M1222 914L1128 998M1327 893L1404 916M1404 916L1488 935M1404 916L1427 1015M1488 935L1542 913M1488 935L1482 996M1542 913L1578 969M1542 913L1608 1008M1678 929L1740 940M1678 929L1578 969M1678 929L1762 962M1740 940L1783 930M1740 940L1739 1017M1740 940L1762 962M1783 930L1842 918M1783 930L1739 1017M1783 930L1762 962M1842 918L1931 939M1842 918L1856 1030M1931 939L2001 904M1931 939L1856 1030M1931 939L1981 1001M2001 904L1981 1001M2126 908L2113 974M2126 908L2171 974M2228 950L2257 921M2228 950L2171 974M2228 950L2249 1002M2257 921L2249 1002M2376 947L2424 891M2376 947L2390 999M2376 947L2419 1024M2424 891L2539 883M2424 891L2390 999M46 1032L112 1014M46 1032L64 1051M46 1032L125 1070M46 1032L-36 1057M2606 1032L2524 1057M112 1014L179 978M112 1014L64 1051M112 1014L125 1070M179 978L287 1019M287 1019L329 962M287 1019L289 1049M287 1019L384 1072M329 962L289 1049M479 1033L553 1012M479 1033L384 1072M479 1033L444 1105M479 1033L539 1119M553 1012L621 973M553 1012L593 1081M621 973L696 960M621 973L701 1053M696 960L745 1017M745 1017L841 1014M745 1017L701 1053M745 1017L756 1043M841 1014L905 1010M841 1014L756 1043M841 1014L861 1064M905 1010L1010 990M905 1010L861 1064M905 1010L927 1105M1010 990L1047 1002M1010 990L1086 1046M1047 1002L1128 998M1047 1002L1086 1046M1047 1002L1157 1053M1128 998L1086 1046M1128 998L1157 1053M1273 1012L1354 1026M1273 1012L1157 1053M1273 1012L1239 1072M1354 1026L1427 1015M1354 1026L1239 1072M1354 1026L1345 1109M1354 1026L1428 1086M1427 1015L1482 996M1427 1015L1428 1086M1427 1015L1452 1117M1482 996L1578 969M1482 996L1531 1067M1578 969L1608 1008M1608 1008L1613 1109M1739 1017L1762 962M1739 1017L1856 1030M1739 1017L1680 1103M1856 1030L1918 1115M1981 1001L2079 1005M1981 1001L1946 1100M1981 1001L2074 1061M2079 1005L2113 974M2079 1005L2074 1061M2079 1005L2102 1091M2113 974L2171 974M2113 974L2074 1061M2171 974L2249 1002M2249 1002L2183 1065M2249 1002L2256 1088M2390 999L2419 1024M2390 999L2375 1090M2419 1024L2503 1032M2419 1024L2375 1090M2419 1024L2477 1082M2503 1032L2477 1082M2503 1032L2524 1057M2503 1032L2551 1137M64 1051L125 1070M64 1051L-36 1057M2624 1051L2524 1057M125 1070L176 1116M125 1070L166 1164M176 1116L136 1189M176 1116L166 1164M176 1116L257 1172M289 1049L384 1072M384 1072L444 1105M384 1072L328 1159M444 1105L539 1119M444 1105L465 1186M444 1105L494 1167M539 1119L593 1081M539 1119L494 1167M539 1119L609 1168M593 1081L701 1053M593 1081L609 1168M593 1081L650 1160M701 1053L756 1043M701 1053L736 1139M756 1043L861 1064M756 1043L736 1139M861 1064L927 1105M927 1105L994 1112M927 1105L914 1182M994 1112L1086 1046M994 1112L1032 1170M994 1112L1075 1173M1086 1046L1157 1053M1157 1053L1239 1072M1239 1072L1271 1188M1345 1109L1324 1194M1428 1086L1452 1117M1428 1086L1425 1171M1428 1086L1487 1138M1452 1117L1531 1067M1452 1117L1425 1171M1452 1117L1487 1138M1531 1067L1613 1109M1531 1067L1487 1138M1531 1067L1576 1134M1613 1109L1680 1103M1613 1109L1576 1134M1613 1109L1662 1123M1680 1103L1662 1123M1680 1103L1720 1169M1789 1119L1720 1169M1789 1119L1795 1184M1918 1115L1946 1100M1918 1115L1892 1196M1918 1115L1985 1183M1918 1115L1871 1204M1946 1100L1985 1183M2074 1061L2102 1091M2102 1091L2183 1065M2102 1091L2070 1179M2102 1091L2155 1141M2183 1065L2256 1088M2183 1065L2155 1141M2256 1088L2253 1127M2375 1090L2477 1082M2375 1090L2356 1188M2375 1090L2452 1155M2477 1082L2524 1057M2477 1082L2452 1155M2524 1057L2551 1137M74 1187L136 1189M74 1187L166 1164M74 1187L-9 1137M74 1187L6 1246M2634 1187L2551 1137M136 1189L166 1164M136 1189L160 1277M136 1189L227 1273M166 1164L257 1172M257 1172L328 1159M257 1172L272 1205M257 1172L337 1201M328 1159L272 1205M328 1159L337 1201M465 1186L494 1167M465 1186L471 1260M494 1167L471 1260M494 1167L540 1242M609 1168L650 1160M609 1168L583 1236M650 1160L736 1139M650 1160L583 1236M736 1139L820 1184M820 1184L914 1182M820 1184L790 1265M820 1184L872 1243M820 1184L906 1230M914 1182L872 1243M914 1182L906 1230M914 1182L974 1247M1032 1170L1075 1173M1032 1170L1133 1199M1032 1170L974 1247M1032 1170L1086 1248M1075 1173L1133 1199M1075 1173L1086 1248M1075 1173L1154 1202M1133 1199L1086 1248M1133 1199L1154 1202M1271 1188L1324 1194M1271 1188L1274 1256M1271 1188L1332 1226M1271 1188L1364 1211M1324 1194L1274 1256M1324 1194L1332 1226M1324 1194L1364 1211M1425 1171L1487 1138M1425 1171L1364 1211M1425 1171L1511 1205M1487 1138L1511 1205M1576 1134L1662 1123M1576 1134L1589 1216M1576 1134L1631 1203M1662 1123L1720 1169M1662 1123L1631 1203M1720 1169L1795 1184M1795 1184L1744 1260M1795 1184L1784 1248M1795 1184L1871 1204M1892 1196L1985 1183M1892 1196L1871 1204M1892 1196L1861 1285M1985 1183L2070 1179M1985 1183L1993 1273M2070 1179L2155 1141M2070 1179L2063 1259M2070 1179L2132 1216M2155 1141L2204 1164M2155 1141L2132 1216M2204 1164L2253 1127M2204 1164L2132 1216M2204 1164L2237 1250M2204 1164L2274 1212M2253 1127L2274 1212M2356 1188L2452 1155M2356 1188L2274 1212M2356 1188L2386 1267M2452 1155L2551 1137M6 1246L-103 1268M6 1246L-28 1276M6 1246L38 1316M6 1246L90 1323M2566 1246L2457 1268M2566 1246L2532 1276M160 1277L227 1273M160 1277L90 1323M160 1277L172 1305M160 1277L255 1285M227 1273L272 1205M227 1273L172 1305M227 1273L255 1285M272 1205L337 1201M272 1205L255 1285M471 1260L540 1242M471 1260L405 1321M471 1260L540 1321M540 1242L583 1236M540 1242L540 1321M540 1242L597 1299M583 1236L540 1321M583 1236L597 1299M680 1280L597 1299M680 1280L717 1299M790 1265L872 1243M790 1265L717 1299M790 1265L783 1351M790 1265L824 1344M872 1243L906 1230M872 1243L974 1247M906 1230L974 1247M906 1230L989 1283M974 1247L989 1283M1086 1248L1154 1202M1086 1248L1053 1314M1274 1256L1332 1226M1274 1256L1263 1329M1274 1256L1334 1333M1332 1226L1364 1211M1364 1211L1422 1288M1511 1205L1589 1216M1511 1205L1454 1284M1511 1205L1553 1308M1589 1216L1631 1203M1589 1216L1553 1308M1744 1260L1784 1248M1744 1260L1676 1321M1744 1260L1752 1331M1744 1260L1773 1290M1784 1248L1752 1331M1784 1248L1773 1290M1784 1248L1861 1285M1871 1204L1861 1285M1993 1273L2063 1259M1993 1273L1999 1285M1993 1273L2070 1314M1993 1273L1984 1370M2063 1259L2132 1216M2063 1259L1999 1285M2063 1259L2070 1314M2132 1216L2237 1250M2237 1250L2274 1212M2237 1250L2236 1327M2237 1250L2246 1351M2386 1267L2457 1268M2457 1268L2532 1276M2457 1268L2460 1339M2457 1268L2508 1334M2532 1276L2598 1316M2532 1276L2460 1339M2532 1276L2508 1334M-28 1276L38 1316M38 1316L90 1323M38 1316L-52 1334M38 1316L65 1412M2598 1316L2508 1334M90 1323L172 1305M90 1323L65 1412M172 1305L255 1285M172 1305L206 1408M255 1285L345 1353M345 1353L405 1321M345 1353L307 1385M345 1353L392 1377M405 1321L307 1385M405 1321L392 1377M405 1321L433 1383M540 1321L597 1299M540 1321L605 1395M597 1299L605 1395M717 1299L783 1351M717 1299L666 1406M783 1351L824 1344M783 1351L762 1418M783 1351L819 1411M824 1344L819 1411M824 1344L906 1376M951 1336L989 1283M951 1336L1053 1314M951 1336L906 1376M989 1283L1053 1314M989 1283L906 1376M1053 1314L1055 1406M1189 1343L1263 1329M1189 1343L1125 1396M1189 1343L1218 1426M1189 1343L1304 1363M1263 1329L1334 1333M1263 1329L1218 1426M1263 1329L1304 1363M1334 1333L1422 1288M1334 1333L1304 1363M1334 1333L1402 1403M1422 1288L1454 1284M1422 1288L1402 1403M1454 1284L1553 1308M1553 1308L1597 1382M1676 1321L1752 1331M1676 1321L1773 1290M1676 1321L1597 1382M1676 1321L1746 1402M1752 1331L1773 1290M1752 1331L1746 1402M1773 1290L1861 1285M1861 1285L1857 1410M1999 1285L2070 1314M1999 1285L1984 1370M1999 1285L2013 1403M2070 1314L2121 1342M2070 1314L2099 1371M2121 1342L2099 1371M2236 1327L2246 1351M2236 1327L2337 1351M2236 1327L2233 1373M2236 1327L2285 1394M2246 1351L2337 1351M2246 1351L2233 1373M2246 1351L2285 1394M2337 1351L2285 1394M2337 1351L2343 1384M2337 1351L2404 1384M2460 1339L2508 1334M2460 1339L2404 1384M2460 1339L2501 1420M2508 1334L2501 1420M65 1412L148 1438M148 1438L206 1408M206 1408L307 1385M307 1385L392 1377M392 1377L433 1383M433 1383L494 1413M494 1413L605 1395M605 1395L666 1406M666 1406L762 1418M762 1418L819 1411M906 1376L995 1433M995 1433L1055 1406M1055 1406L1125 1396M1125 1396L1218 1426M1304 1363L1402 1403M1402 1403L1487 1418M1597 1382L1618 1429M1746 1402L1774 1425M1774 1425L1857 1410M1984 1370L2013 1403M2013 1403L2099 1371M2233 1373L2285 1394M2233 1373L2343 1384M2285 1394L2343 1384M2343 1384L2404 1384M2404 1384L2501 1420"/></svg>