<svg xmlns="http://www.w3.org/2000/svg" width="2560" height="1440" fill="#fff"><circle cx="4" cy="10" r="4"/><circle cx="2564" cy="10" r="4"/><circle cx="139" cy="21" r="5"/><circle cx="209" cy="53" r="5"/><circle cx="294" cy="27" r="4"/><circle cx="358" cy="76" r="4"/><circle cx="467" cy="20" r="6"/><circle cx="549" cy="9" r="5"/><circle cx="575" cy="46" r="4"/><circle cx="697" cy="61" r="5"/><circle cx="781" cy="77" r="6"/><circle cx="877" cy="20" r="5"/><circle cx="935" cy="68" r="4"/><circle cx="1033" cy="19" r="6"/><circle cx="1048" cy="1" r="5"/><circle cx="1048" cy="1441" r="5"/><circle cx="1163" cy="50" r="4"/><circle cx="1220" cy="72" r="5"/><circle cx="1314" cy="76" r="5"/><circle cx="1373" cy="69" r="6"/><circle cx="1504" cy="42" r="4"/><circle cx="1563" cy="3" r="6"/><circle cx="1563" cy="1443" r="6"/><circle cx="1605" cy="77" r="5"/><circle cx="1748" cy="6" r="5"/><circle cx="1827" cy="9" r="5"/><circle cx="1901" cy="54" r="5"/><circle cx="1999" cy="4" r="5"/><circle cx="1999" cy="1444" r="5"/><circle cx="2006" cy="50" r="5"/><circle cx="2101" cy="24" r="5"/><circle cx="2217" cy="19" r="5"/><circle cx="2243" cy="24" r="5"/><circle cx="2328" cy="32" r="4"/><circle cx="2467" cy="13" r="5"/><circle cx="2525" cy="51" r="4"/><circle cx="34" cy="90" r="4"/><circle cx="120" cy="120" r="5"/><circle cx="166" cy="138" r="5"/><circle cx="291" cy="159" r="6"/><circle cx="362" cy="83" r="5"/><circle cx="414" cy="140" r="4"/><circle cx="503" cy="142" r="5"/><circle cx="623" cy="92" r="4"/><circle cx="678" cy="157" r="5"/><circle cx="786" cy="140" r="5"/><circle cx="874" cy="138" r="4"/><circle cx="890" cy="123" r="5"/><circle cx="994" cy="123" r="6"/><circle cx="1042" cy="90" r="4"/><circle cx="1181" cy="83" r="6"/><circle cx="1204" cy="118" r="5"/><circle cx="1326" cy="111" r="5"/><circle cx="1385" cy="137" r="5"/><circle cx="1485" cy="134" r="5"/><circle cx="1542" cy="137" r="4"/><circle cx="1652" cy="145" r="6"/><circle cx="1697" cy="108" r="5"/><circle cx="1824" cy="151" r="5"/><circle cx="1862" cy="115" r="5"/><circle cx="1928" cy="119" r="6"/><circle cx="2070" cy="127" r="5"/><circle cx="2107" cy="106" r="5"/><circle cx="2227" cy="121" r="4"/><circle cx="2306" cy="119" r="4"/><circle cx="2322" cy="151" r="6"/><circle cx="2401" cy="85" r="6"/><circle cx="2549" cy="85" r="5"/><circle cx="74" cy="190" r="5"/><circle cx="141" cy="239" r="5"/><circle cx="161" cy="182" r="5"/><circle cx="318" cy="234" r="5"/><circle cx="350" cy="218" r="4"/><circle cx="427" cy="163" r="5"/><circle cx="553" cy="215" r="6"/><circle cx="601" cy="239" r="5"/><circle cx="683" cy="213" r="6"/><circle cx="761" cy="198" r="5"/><circle cx="871" cy="194" r="4"/><circle cx="921" cy="209" r="5"/><circle cx="1034" cy="200" r="5"/><circle cx="1041" cy="232" r="5"/><circle cx="1145" cy="205" r="5"/><circle cx="1209" cy="200" r="5"/><circle cx="1297" cy="170" r="5"/><circle cx="1363" cy="239" r="5"/><circle cx="1455" cy="167" r="4"/><circle cx="1578" cy="223" r="5"/><circle cx="1632" cy="215" r="4"/><circle cx="1746" cy="226" r="4"/><circle cx="1790" cy="176" r="4"/><circle cx="1889" cy="191" r="5"/><circle cx="1953" cy="197" r="5"/><circle cx="2044" cy="230" r="6"/><circle cx="2084" cy="175" r="6"/><circle cx="2231" cy="194" r="4"/><circle cx="2309" cy="202" r="5"/><circle cx="2389" cy="196" r="6"/><circle cx="2439" cy="178" r="5"/><circle cx="2537" cy="184" r="5"/><circle cx="45" cy="306" r="4"/><circle cx="86" cy="246" r="6"/><circle cx="172" cy="246" r="5"/><circle cx="311" cy="269" r="5"/><circle cx="399" cy="290" r="5"/><circle cx="420" cy="286" r="4"/><circle cx="491" cy="259" r="5"/><circle cx="623" cy="261" r="4"/><circle cx="673" cy="247" r="4"/><circle cx="773" cy="308" r="5"/><circle cx="828" cy="308" r="4"/><circle cx="921" cy="244" r="5"/><circle cx="1023" cy="276" r="5"/><circle cx="1117" cy="254" r="5"/><circle cx="1121" cy="300" r="4"/><circle cx="1202" cy="261" r="6"/><circle cx="1299" cy="312" r="5"/><circle cx="1366" cy="288" r="5"/><circle cx="1447" cy="246" r="4"/><circle cx="1600" cy="304" r="4"/><circle cx="1639" cy="247" r="4"/><circle cx="1689" cy="260" r="4"/><circle cx="1811" cy="307" r="5"/><circle cx="1899" cy="257" r="6"/><circle cx="1934" cy="283" r="6"/><circle cx="2037" cy="279" r="6"/><circle cx="2135" cy="266" r="5"/><circle cx="2229" cy="283" r="6"/><circle cx="2285" cy="253" r="5"/><circle cx="2357" cy="303" r="5"/><circle cx="2417" cy="304" r="5"/><circle cx="2553" cy="269" r="5"/><circle cx="11" cy="324" r="4"/><circle cx="111" cy="355" r="5"/><circle cx="178" cy="381" r="5"/><circle cx="288" cy="400" r="5"/><circle cx="391" cy="334" r="6"/><circle cx="458" cy="387" r="4"/><circle cx="544" cy="320" r="6"/><circle cx="569" cy="396" r="5"/><circle cx="684" cy="386" r="5"/><circle cx="788" cy="325" r="5"/><circle cx="815" cy="370" r="4"/><circle cx="949" cy="344" r="5"/><circle cx="967" cy="341" r="5"/><circle cx="1081" cy="388" r="5"/><circle cx="1173" cy="354" r="4"/><circle cx="1221" cy="343" r="5"/><circle cx="1344" cy="341" r="6"/><circle cx="1389" cy="366" r="5"/><circle cx="1459" cy="385" r="4"/><circle cx="1566" cy="331" r="6"/><circle cx="1671" cy="380" r="5"/><circle cx="1757" cy="338" r="4"/><circle cx="1826" cy="349" r="5"/><circle cx="1899" cy="389" r="5"/><circle cx="1976" cy="386" r="4"/><circle cx="2001" cy="369" r="5"/><circle cx="2141" cy="379" r="5"/><circle cx="2169" cy="342" r="4"/><circle cx="2299" cy="346" r="6"/><circle cx="2329" cy="364" r="5"/><circle cx="2480" cy="354" r="5"/><circle cx="2484" cy="385" r="5"/><circle cx="29" cy="443" r="5"/><circle cx="154" cy="463" r="6"/><circle cx="237" cy="408" r="6"/><circle cx="292" cy="467" r="5"/><circle cx="390" cy="453" r="5"/><circle cx="439" cy="461" r="4"/><circle cx="492" cy="427" r="6"/><circle cx="627" cy="473" r="5"/><circle cx="699" cy="429" r="5"/><circle cx="721" cy="469" r="5"/><circle cx="869" cy="416" r="5"/><circle cx="915" cy="430" r="5"/><circle cx="1001" cy="415" r="5"/><circle cx="1096" cy="451" r="6"/><circle cx="1165" cy="477" r="6"/><circle cx="1277" cy="461" r="5"/><circle cx="1284" cy="402" r="6"/><circle cx="1427" cy="464" r="4"/><circle cx="1474" cy="425" r="5"/><circle cx="1561" cy="463" r="6"/><circle cx="1615" cy="437" r="5"/><circle cx="1745" cy="436" r="5"/><circle cx="1797" cy="456" r="5"/><circle cx="1877" cy="412" r="6"/><circle cx="1969" cy="426" r="4"/><circle cx="2046" cy="435" r="5"/><circle cx="2138" cy="472" r="4"/><circle cx="2175" cy="441" r="5"/><circle cx="2274" cy="446" r="5"/><circle cx="2334" cy="439" r="6"/><circle cx="2448" cy="432" r="6"/><circle cx="2553" cy="411" r="4"/><circle cx="39" cy="550" r="5"/><circle cx="156" cy="512" r="5"/><circle cx="231" cy="521" r="5"/><circle cx="286" cy="546" r="5"/><circle cx="362" cy="486" r="4"/><circle cx="438" cy="552" r="4"/><circle cx="488" cy="509" r="5"/><circle cx="634" cy="530" r="5"/><circle cx="666" cy="544" r="4"/><circle cx="747" cy="500" r="6"/><circle cx="836" cy="514" r="4"/><circle cx="883" cy="482" r="5"/><circle cx="964" cy="493" r="4"/><circle cx="1069" cy="502" r="6"/><circle cx="1122" cy="486" r="4"/><circle cx="1270" cy="559" r="4"/><circle cx="1353" cy="518" r="4"/><circle cx="1440" cy="486" r="5"/><circle cx="1477" cy="534" r="5"/><circle cx="1565" cy="510" r="5"/><circle cx="1636" cy="497" r="5"/><circle cx="1741" cy="483" r="6"/><circle cx="1816" cy="486" r="5"/><circle cx="1877" cy="545" r="4"/><circle cx="1953" cy="555" r="5"/><circle cx="2024" cy="538" r="5"/><circle cx="2138" cy="505" r="5"/><circle cx="2206" cy="510" r="4"/><circle cx="2304" cy="536" r="5"/><circle cx="2347" cy="526" r="5"/><circle cx="2455" cy="482" r="6"/><circle cx="2495" cy="549" r="5"/><circle cx="8" cy="629" r="5"/><circle cx="95" cy="601" r="5"/><circle cx="220" cy="623" r="6"/><circle cx="317" cy="614" r="5"/><circle cx="365" cy="566" r="5"/><circle cx="419" cy="631" r="5"/><circle cx="511" cy="613" r="6"/><circle cx="635" cy="595" r="5"/><circle cx="660" cy="574" r="5"/><circle cx="731" cy="562" r="5"/><circle cx="823" cy="636" r="5"/><circle cx="881" cy="621" r="5"/><circle cx="1003" cy="610" r="4"/><circle cx="1081" cy="580" r="5"/><circle cx="1192" cy="582" r="5"/><circle cx="1279" cy="603" r="5"/><circle cx="1292" cy="608" r="5"/><circle cx="1419" cy="618" r="5"/><circle cx="1474" cy="627" r="4"/><circle cx="1597" cy="606" r="6"/><circle cx="1665" cy="585" r="6"/><circle cx="1702" cy="637" r="4"/><circle cx="1814" cy="564" r="4"/><circle cx="1919" cy="631" r="4"/><circle cx="1988" cy="632" r="5"/><circle cx="2006" cy="578" r="5"/><circle cx="2098" cy="576" r="4"/><circle cx="2209" cy="640" r="5"/><circle cx="2287" cy="628" r="4"/><circle cx="2395" cy="638" r="5"/><circle cx="2463" cy="576" r="5"/><circle cx="2538" cy="570" r="4"/><circle cx="20" cy="708" r="5"/><circle cx="95" cy="689" r="5"/><circle cx="224" cy="690" r="5"/><circle cx="243" cy="682" r="5"/><circle cx="393" cy="707" r="6"/><circle cx="400" cy="686" r="4"/><circle cx="502" cy="681" r="6"/><circle cx="589" cy="704" r="5"/><circle cx="671" cy="653" r="6"/><circle cx="766" cy="658" r="4"/><circle cx="845" cy="675" r="5"/><circle cx="885" cy="698" r="4"/><circle cx="1039" cy="644" r="6"/><circle cx="1061" cy="648" r="5"/><circle cx="1126" cy="712" r="4"/><circle cx="1236" cy="653" r="5"/><circle cx="1346" cy="653" r="6"/><circle cx="1392" cy="651" r="4"/><circle cx="1488" cy="679" r="6"/><circle cx="1595" cy="674" r="6"/><circle cx="1606" cy="679" r="6"/><circle cx="1687" cy="651" r="5"/><circle cx="1818" cy="687" r="6"/><circle cx="1857" cy="652" r="6"/><circle cx="1928" cy="655" r="5"/><circle cx="2020" cy="662" r="4"/><circle cx="2119" cy="660" r="5"/><circle cx="2190" cy="656" r="4"/><circle cx="2265" cy="704" r="5"/><circle cx="2360" cy="658" r="5"/><circle cx="2418" cy="691" r="6"/><circle cx="2503" cy="677" r="5"/><circle cx="69" cy="756" r="6"/><circle cx="96" cy="721" r="5"/><circle cx="214" cy="723" r="4"/><circle cx="305" cy="781" r="4"/><circle cx="339" cy="722" r="5"/><circle cx="479" cy="728" r="4"/><circle cx="497" cy="721" r="4"/><circle cx="569" cy="741" r="4"/><circle cx="717" cy="786" r="5"/><circle cx="762" cy="737" r="4"/><circle cx="838" cy="751" r="5"/><circle cx="948" cy="794" r="4"/><circle cx="1032" cy="765" r="5"/><circle cx="1112" cy="775" r="6"/><circle cx="1184" cy="785" r="5"/><circle cx="1228" cy="787" r="6"/><circle cx="1316" cy="787" r="5"/><circle cx="1375" cy="749" r="5"/><circle cx="1454" cy="789" r="4"/><circle cx="1534" cy="793" r="5"/><circle cx="1678" cy="763" r="5"/><circle cx="1737" cy="723" r="6"/><circle cx="1838" cy="720" r="5"/><circle cx="1903" cy="742" r="4"/><circle cx="1950" cy="753" r="5"/><circle cx="2075" cy="752" r="4"/><circle cx="2154" cy="768" r="6"/><circle cx="2170" cy="748" r="5"/><circle cx="2249" cy="791" r="4"/><circle cx="2328" cy="765" r="6"/><circle cx="2438" cy="748" r="4"/><circle cx="2530" cy="732" r="6"/><circle cx="28" cy="842" r="5"/><circle cx="131" cy="822" r="4"/><circle cx="181" cy="852" r="5"/><circle cx="256" cy="870" r="4"/><circle cx="363" cy="828" r="6"/><circle cx="444" cy="848" r="6"/><circle cx="497" cy="868" r="6"/><circle cx="580" cy="867" r="6"/><circle cx="698" cy="824" r="5"/><circle cx="771" cy="860" r="5"/><circle cx="817" cy="821" r="5"/><circle cx="891" cy="804" r="6"/><circle cx="1021" cy="804" r="5"/><circle cx="1117" cy="822" r="6"/><circle cx="1181" cy="801" r="6"/><circle cx="1233" cy="867" r="4"/><circle cx="1295" cy="835" r="5"/><circle cx="1361" cy="818" r="4"/><circle cx="1473" cy="863" r="5"/><circle cx="1530" cy="866" r="4"/><circle cx="1602" cy="832" r="4"/><circle cx="1718" cy="809" r="5"/><circle cx="1783" cy="843" r="4"/><circle cx="1845" cy="872" r="4"/><circle cx="1962" cy="842" r="4"/><circle cx="2002" cy="806" r="5"/><circle cx="2157" cy="847" r="5"/><circle cx="2190" cy="836" r="5"/><circle cx="2313" cy="804" r="6"/><circle cx="2357" cy="821" r="4"/><circle cx="2411" cy="844" r="6"/><circle cx="2546" cy="803" r="6"/><circle cx="49" cy="959" r="5"/><circle cx="82" cy="927" r="6"/><circle cx="169" cy="916" r="6"/><circle cx="246" cy="956" r="5"/><circle cx="377" cy="923" r="5"/><circle cx="431" cy="893" r="4"/><circle cx="507" cy="956" r="4"/><circle cx="614" cy="931" r="6"/><circle cx="669" cy="890" r="5"/><circle cx="768" cy="926" r="5"/><circle cx="809" cy="946" r="6"/><circle cx="920" cy="916" r="5"/><circle cx="997" cy="912" r="5"/><circle cx="1064" cy="884" r="5"/><circle cx="1166" cy="899" r="6"/><circle cx="1275" cy="945" r="5"/><circle cx="1308" cy="947" r="6"/><circle cx="1365" cy="925" r="4"/><circle cx="1479" cy="929" r="5"/><circle cx="1580" cy="943" r="6"/><circle cx="1667" cy="955" r="5"/><circle cx="1742" cy="898" r="5"/><circle cx="1793" cy="917" r="6"/><circle cx="1899" cy="895" r="5"/><circle cx="1966" cy="940" r="5"/><circle cx="2047" cy="901" r="4"/><circle cx="2119" cy="947" r="4"/><circle cx="2235" cy="930" r="5"/><circle cx="2283" cy="940" r="6"/><circle cx="2341" cy="956" r="5"/><circle cx="2436" cy="933" r="5"/><circle cx="2527" cy="897" r="6"/><circle cx="59" cy="1007" r="4"/><circle cx="134" cy="983" r="6"/><circle cx="216" cy="996" r="6"/><circle cx="281" cy="980" r="6"/><circle cx="356" cy="994" r="4"/><circle cx="428" cy="1028" r="5"/><circle cx="530" cy="1027" r="5"/><circle cx="561" cy="978" r="6"/><circle cx="649" cy="995" r="6"/><circle cx="799" cy="1005" r="6"/><circle cx="852" cy="994" r="5"/><circle cx="908" cy="1009" r="5"/><circle cx="987" cy="1011" r="4"/><circle cx="1081" cy="975" r="5"/><circle cx="1136" cy="1000" r="6"/><circle cx="1238" cy="1012" r="5"/><circle cx="1300" cy="978" r="6"/><circle cx="1364" cy="984" r="6"/><circle cx="1504" cy="986" r="6"/><circle cx="1581" cy="983" r="5"/><circle cx="1665" cy="1001" r="5"/><circle cx="1739" cy="963" r="5"/><circle cx="1772" cy="998" r="5"/><circle cx="1869" cy="1017" r="4"/><circle cx="1921" cy="1005" r="5"/><circle cx="2027" cy="1021" r="5"/><circle cx="2110" cy="977" r="5"/><circle cx="2205" cy="980" r="4"/><circle cx="2244" cy="964" r="6"/><circle cx="2324" cy="961" r="5"/><circle cx="2429" cy="975" r="6"/><circle cx="2485" cy="980" r="5"/><circle cx="39" cy="1103" r="4"/><circle cx="99" cy="1049" r="4"/><circle cx="229" cy="1057" r="5"/><circle cx="269" cy="1069" r="4"/><circle cx="366" cy="1053" r="5"/><circle cx="432" cy="1063" r="5"/><circle cx="491" cy="1089" r="4"/><circle cx="572" cy="1054" r="6"/><circle cx="699" cy="1070" r="5"/><circle cx="770" cy="1094" r="5"/><circle cx="874" cy="1047" r="4"/><circle cx="940" cy="1064" r="6"/><circle cx="1013" cy="1060" r="6"/><circle cx="1069" cy="1044" r="4"/><circle cx="1187" cy="1072" r="6"/><circle cx="1206" cy="1045" r="5"/><circle cx="1335" cy="1049" r="5"/><circle cx="1362" cy="1080" r="5"/><circle cx="1502" cy="1085" r="6"/><circle cx="1554" cy="1065" r="6"/><circle cx="1667" cy="1109" r="6"/><circle cx="1729" cy="1098" r="6"/><circle cx="1830" cy="1052" r="5"/><circle cx="1867" cy="1072" r="4"/><circle cx="1964" cy="1080" r="4"/><circle cx="2044" cy="1072" r="5"/><circle cx="2134" cy="1119" r="4"/><circle cx="2217" cy="1095" r="6"/><circle cx="2261" cy="1071" r="5"/><circle cx="2363" cy="1076" r="4"/><circle cx="2401" cy="1055" r="5"/><circle cx="2524" cy="1110" r="6"/><circle cx="45" cy="1123" r="6"/><circle cx="147" cy="1128" r="4"/><circle cx="229" cy="1195" r="6"/><circle cx="244" cy="1189" r="4"/><circle cx="389" cy="1168" r="6"/><circle cx="438" cy="1133" r="5"/><circle cx="543" cy="1193" r="6"/><circle cx="571" cy="1127" r="4"/><circle cx="667" cy="1152" r="5"/><circle cx="753" cy="1160" r="6"/><circle cx="823" cy="1162" r="5"/><circle cx="940" cy="1156" r="4"/><circle cx="1013" cy="1159" r="6"/><circle cx="1117" cy="1185" r="5"/><circle cx="1151" cy="1130" r="5"/><circle cx="1261" cy="1195" r="4"/><circle cx="1318" cy="1123" r="4"/><circle cx="1400" cy="1120" r="6"/><circle cx="1471" cy="1177" r="4"/><circle cx="1591" cy="1171" r="5"/><circle cx="1602" cy="1131" r="5"/><circle cx="1751" cy="1197" r="5"/><circle cx="1837" cy="1147" r="6"/><circle cx="1886" cy="1182" r="6"/><circle cx="1956" cy="1190" r="5"/><circle cx="2073" cy="1135" r="4"/><circle cx="2091" cy="1167" r="4"/><circle cx="2218" cy="1143" r="5"/><circle cx="2251" cy="1158" r="4"/><circle cx="2377" cy="1165" r="5"/><circle cx="2477" cy="1147" r="6"/><circle cx="2516" cy="1160" r="4"/><circle cx="71" cy="1214" r="5"/><circle cx="86" cy="1253" r="5"/><circle cx="192" cy="1262" r="5"/><circle cx="316" cy="1264" r="5"/><circle cx="361" cy="1230" r="6"/><circle cx="479" cy="1210" r="6"/><circle cx="498" cy="1205" r="4"/><circle cx="564" cy="1232" r="5"/><circle cx="648" cy="1255" r="4"/><circle cx="782" cy="1211" r="6"/><circle cx="878" cy="1212" r="5"/><circle cx="925" cy="1280" r="6"/><circle cx="981" cy="1200" r="5"/><circle cx="1119" cy="1248" r="5"/><circle cx="1170" cy="1219" r="6"/><circle cx="1212" cy="1219" r="6"/><circle cx="1342" cy="1242" r="5"/><circle cx="1368" cy="1213" r="4"/><circle cx="1458" cy="1207" r="5"/><circle cx="1595" cy="1228" r="5"/><circle cx="1676" cy="1220" r="5"/><circle cx="1735" cy="1251" r="4"/><circle cx="1835" cy="1265" r="5"/><circle cx="1904" cy="1258" r="5"/><circle cx="1927" cy="1274" r="5"/><circle cx="2034" cy="1272" r="5"/><circle cx="2135" cy="1261" r="5"/><circle cx="2217" cy="1202" r="5"/><circle cx="2280" cy="1224" r="5"/><circle cx="2399" cy="1219" r="5"/><circle cx="2415" cy="1257" r="5"/><circle cx="2514" cy="1213" r="4"/><circle cx="79" cy="1330" r="5"/><circle cx="117" cy="1295" r="5"/><circle cx="219" cy="1308" r="5"/><circle cx="279" cy="1357" r="6"/><circle cx="348" cy="1284" r="6"/><circle cx="420" cy="1343" r="6"/><circle cx="554" cy="1296" r="4"/><circle cx="567" cy="1305" r="4"/><circle cx="641" cy="1335" r="6"/><circle cx="769" cy="1347" r="6"/><circle cx="870" cy="1357" r="4"/><circle cx="880" cy="1286" r="5"/><circle cx="980" cy="1319" r="5"/><circle cx="1066" cy="1332" r="4"/><circle cx="1188" cy="1292" r="5"/><circle cx="1214" cy="1344" r="5"/><circle cx="1291" cy="1285" r="6"/><circle cx="1433" cy="1324" r="5"/><circle cx="1452" cy="1310" r="5"/><circle cx="1525" cy="1328" r="5"/><circle cx="1620" cy="1286" r="5"/><circle cx="1689" cy="1294" r="4"/><circle cx="1789" cy="1352" r="6"/><circle cx="1914" cy="1332" r="6"/><circle cx="1959" cy="1290" r="5"/><circle cx="2058" cy="1357" r="5"/><circle cx="2121" cy="1333" r="5"/><circle cx="2225" cy="1353" r="4"/><circle cx="2314" cy="1306" r="5"/><circle cx="2391" cy="1319" r="5"/><circle cx="2428" cy="1301" r="4"/><circle cx="2542" cy="1322" r="4"/><circle cx="18" cy="1417" r="6"/><circle cx="157" cy="1439" r="6"/><circle cx="157" cy="-1" r="6"/><circle cx="189" cy="1381" r="6"/><circle cx="258" cy="1384" r="5"/><circle cx="400" cy="1364" r="4"/><circle cx="464" cy="1414" r="5"/><circle cx="545" cy="1363" r="4"/><circle cx="610" cy="1417" r="5"/><circle cx="668" cy="1365" r="5"/><circle cx="774" cy="1362" r="4"/><circle cx="846" cy="1435" r="5"/><circle cx="901" cy="1424" r="4"/><circle cx="1002" cy="1420" r="4"/><circle cx="1099" cy="1419" r="5"/><circle cx="1130" cy="1362" r="6"/><circle cx="1239" cy="1404" r="5"/><circle cx="1291" cy="1397" r="5"/><circle cx="1378" cy="1381" r="5"/><circle cx="1488" cy="1421" r="6"/><circle cx="1549" cy="1417" r="5"/><circle cx="1616" cy="1389" r="5"/><circle cx="1734" cy="1381" r="4"/><circle cx="1802" cy="1435" r="5"/><circle cx="1914" cy="1373" r="5"/><circle cx="1927" cy="1375" r="5"/><circle cx="2051" cy="1395" r="6"/><circle cx="2083" cy="1378" r="5"/><circle cx="2239" cy="1405" r="6"/><circle cx="2295" cy="1432" r="6"/><circle cx="2386" cy="1410" r="5"/><circle cx="2471" cy="1415" r="6"/><circle cx="2485" cy="1436" r="4"/><circle cx="2485" cy="-4" r="4"/><path stroke="#fff" d="M4 10L-35 51M4 10L-11 85M4 10L18 -23M4 10L-89 -25M4 10L-75 -4M2564 10L2525 51M2564 10L2549 85M2564 10L2471 -25M2564 10L2485 -4M4 1450L18 1417M4 1450L-89 1415M4 1450L-75 1436M2564 1450L2471 1415M2564 1450L2485 1436M139 21L209 53M139 21L120 120M139 21L157 -1M139 21L189 -59M139 1461L157 1439M139 1461L189 1381M209 53L294 27M209 53L166 138M209 53L157 -1M209 1493L157 1439M294 27L358 76M294 27L362 83M294 27L258 -56M294 1467L258 1384M358 76L291 159M358 76L362 83M358 76L414 140M467 20L549 9M467 20L575 46M467 20L420 -97M467 20L464 -26M467 1460L420 1343M467 1460L464 1414M549 9L575 46M549 9L464 -26M549 9L545 -77M549 9L610 -23M549 1449L464 1414M549 1449L545 1363M549 1449L610 1417M575 46L503 142M575 46L623 92M575 46L610 -23M575 1486L610 1417M697 61L781 77M697 61L623 92M697 61L678 157M781 77L877 20M781 77L786 140M781 77L846 -5M781 1517L846 1435M877 20L935 68M877 20L846 -5M877 20L901 -16M877 1460L846 1435M877 1460L901 1424M935 68L890 123M935 68L994 123M935 68L901 -16M935 1508L901 1424M1033 19L1048 1M1033 19L994 123M1033 19L1042 90M1033 19L1002 -20M1033 19L1099 -21M1033 1459L1002 1420M1033 1459L1099 1419M1048 1L1042 90M1048 1L1002 -20M1048 1L1099 -21M1048 1L1130 -78M1048 1441L1002 1420M1048 1441L1099 1419M1048 1441L1130 1362M1163 50L1220 72M1163 50L1181 83M1163 50L1204 118M1163 50L1099 -21M1163 50L1239 -36M1163 1490L1099 1419M1163 1490L1239 1404M1220 72L1314 76M1220 72L1181 83M1220 72L1204 118M1220 72L1239 -36M1220 1512L1239 1404M1314 76L1373 69M1314 76L1326 111M1314 76L1385 137M1314 76L1297 170M1373 69L1326 111M1373 69L1385 137M1373 69L1378 -59M1373 1509L1378 1381M1504 42L1563 3M1504 42L1485 134M1504 42L1488 -19M1504 42L1549 -23M1504 1482L1488 1421M1504 1482L1549 1417M1563 3L1605 77M1563 3L1488 -19M1563 3L1549 -23M1563 3L1616 -51M1563 1443L1488 1421M1563 1443L1549 1417M1563 1443L1616 1389M1605 77L1542 137M1605 77L1652 145M1605 77L1697 108M1748 6L1827 9M1748 6L1697 108M1748 6L1789 -88M1748 6L1734 -59M1748 6L1802 -5M1748 1446L1789 1352M1748 1446L1734 1381M1748 1446L1802 1435M1827 9L1901 54M1827 9L1789 -88M1827 9L1802 -5M1827 9L1914 -67M1827 1449L1789 1352M1827 1449L1802 1435M1827 1449L1914 1373M1901 54L1862 115M1901 54L1928 119M1999 4L2006 50M1999 4L1927 -65M1999 4L2051 -45M1999 4L2083 -62M1999 1444L1927 1375M1999 1444L2051 1395M1999 1444L2083 1378M2006 50L2101 24M2006 50L2070 127M2101 24L2070 127M2101 24L2107 106M2101 24L2051 -45M2101 24L2083 -62M2101 1464L2051 1395M2101 1464L2083 1378M2217 19L2243 24M2217 19L2227 121M2217 19L2225 -87M2217 19L2239 -35M2217 19L2295 -8M2217 1459L2225 1353M2217 1459L2239 1405M2217 1459L2295 1432M2243 24L2328 32M2243 24L2227 121M2243 24L2239 -35M2243 24L2295 -8M2243 1464L2239 1405M2243 1464L2295 1432M2328 32L2306 119M2328 32L2401 85M2328 32L2295 -8M2328 32L2386 -30M2328 1472L2295 1432M2328 1472L2386 1410M2467 13L2525 51M2467 13L2401 85M2467 13L2386 -30M2467 13L2471 -25M2467 13L2485 -4M2467 1453L2386 1410M2467 1453L2471 1415M2467 1453L2485 1436M2525 51L2549 85M2525 51L2578 -23M2525 51L2485 -4M-35 51L18 -23M-35 1491L18 1417M2525 1491L2578 1417M2525 1491L2485 1436M34 90L120 120M34 90L-11 85M2594 90L2549 85M120 120L166 138M120 120L74 190M120 120L161 182M166 138L141 239M166 138L161 182M166 138L172 246M291 159L362 83M291 159L318 234M291 159L350 218M291 159L311 269M362 83L414 140M362 83L427 163M414 140L503 142M414 140L427 163M503 142L427 163M503 142L553 215M623 92L678 157M678 157L683 213M678 157L761 198M678 157L673 247M786 140L874 138M786 140L761 198M786 140L871 194M874 138L890 123M874 138L871 194M874 138L921 209M890 123L994 123M890 123L871 194M890 123L921 209M994 123L1042 90M994 123L1034 200M1181 83L1204 118M1204 118L1209 200M1326 111L1385 137M1326 111L1297 170M1385 137L1297 170M1385 137L1455 167M1485 134L1542 137M1485 134L1455 167M1485 134L1447 246M1542 137L1455 167M1542 137L1578 223M1652 145L1697 108M1652 145L1578 223M1652 145L1632 215M1652 145L1639 247M1697 108L1790 176M1824 151L1862 115M1824 151L1928 119M1824 151L1746 226M1824 151L1790 176M1824 151L1889 191M1862 115L1928 119M1862 115L1790 176M1862 115L1889 191M1928 119L1889 191M1928 119L1953 197M2070 127L2107 106M2070 127L2044 230M2070 127L2084 175M2107 106L2084 175M2227 121L2306 119M2227 121L2231 194M2306 119L2322 151M2306 119L2309 202M2322 151L2401 85M2322 151L2309 202M2322 151L2389 196M2401 85L2389 196M2401 85L2439 178M2549 85L2537 184M74 190L141 239M74 190L-23 184M74 190L86 246M2634 190L2537 184M141 239L161 182M141 239L86 246M141 239L172 246M161 182L172 246M318 234L350 218M318 234L311 269M350 218L427 163M350 218L311 269M350 218L399 290M427 163L491 259M553 215L601 239M553 215L491 259M553 215L623 261M553 215L544 320M601 239L683 213M601 239L623 261M601 239L673 247M601 239L544 320M683 213L761 198M683 213L623 261M683 213L673 247M761 198L673 247M761 198L773 308M871 194L921 209M871 194L921 244M921 209L921 244M1034 200L1041 232M1034 200L1145 205M1034 200L1023 276M1034 200L1117 254M1041 232L1023 276M1041 232L1117 254M1145 205L1209 200M1145 205L1117 254M1145 205L1121 300M1145 205L1202 261M1209 200L1297 170M1209 200L1202 261M1297 170L1363 239M1363 239L1299 312M1363 239L1366 288M1363 239L1447 246M1363 239L1344 341M1455 167L1447 246M1578 223L1632 215M1578 223L1600 304M1578 223L1639 247M1632 215L1600 304M1632 215L1639 247M1632 215L1689 260M1746 226L1790 176M1746 226L1689 260M1746 226L1811 307M1889 191L1953 197M1889 191L1899 257M1953 197L2044 230M1953 197L1899 257M1953 197L1934 283M2044 230L2084 175M2044 230L2037 279M2044 230L2135 266M2084 175L2037 279M2084 175L2135 266M2231 194L2309 202M2231 194L2229 283M2231 194L2285 253M2309 202L2389 196M2309 202L2285 253M2389 196L2439 178M2389 196L2417 304M2439 178L2537 184M2537 184L2553 269M45 306L86 246M45 306L-7 269M45 306L11 324M45 306L111 355M2605 306L2553 269M86 246L172 246M86 246L-7 269M2646 246L2553 269M311 269L399 290M311 269L391 334M399 290L420 286M399 290L491 259M399 290L391 334M420 286L491 259M420 286L391 334M491 259L544 320M623 261L673 247M623 261L544 320M773 308L828 308M773 308L684 386M773 308L788 325M773 308L815 370M828 308L788 325M828 308L815 370M921 244L949 344M921 244L967 341M1023 276L949 344M1023 276L967 341M1117 254L1121 300M1117 254L1202 261M1121 300L1202 261M1121 300L1081 388M1121 300L1173 354M1202 261L1221 343M1299 312L1366 288M1299 312L1221 343M1299 312L1344 341M1299 312L1284 402M1366 288L1447 246M1366 288L1344 341M1366 288L1389 366M1600 304L1639 247M1600 304L1566 331M1639 247L1689 260M1689 260L1757 338M1811 307L1899 257M1811 307L1757 338M1811 307L1826 349M1899 257L1934 283M1899 257L1826 349M1934 283L2037 279M1934 283L1899 389M1934 283L2001 369M2037 279L2135 266M2037 279L2001 369M2135 266L2229 283M2135 266L2169 342M2229 283L2285 253M2229 283L2169 342M2229 283L2299 346M2285 253L2357 303M2285 253L2299 346M2357 303L2417 304M2357 303L2299 346M2357 303L2329 364M2417 304L2329 364M2417 304L2480 354M2417 304L2484 385M2553 269L2571 324M-7 269L11 324M11 324L111 355M11 324L-80 354M11 324L-7 411M2571 324L2480 354M2571 324L2553 411M111 355L178 381M111 355L29 443M111 355L154 463M178 381L288 400M178 381L154 463M178 381L237 408M288 400L391 334M288 400L237 408M288 400L292 467M391 334L458 387M458 387L390 453M458 387L439 461M458 387L492 427M544 320L569 396M569 396L684 386M569 396L492 427M569 396L627 473M684 386L699 429M684 386L721 469M788 325L815 370M788 325L869 416M815 370L869 416M949 344L967 341M949 344L915 430M949 344L1001 415M967 341L1001 415M1081 388L1173 354M1081 388L1001 415M1081 388L1096 451M1173 354L1221 343M1221 343L1284 402M1344 341L1389 366M1344 341L1284 402M1389 366L1459 385M1389 366L1284 402M1459 385L1566 331M1459 385L1427 464M1459 385L1474 425M1459 385L1440 486M1566 331L1671 380M1566 331L1615 437M1671 380L1757 338M1671 380L1615 437M1671 380L1745 436M1757 338L1826 349M1757 338L1745 436M1826 349L1899 389M1826 349L1877 412M1899 389L1976 386M1899 389L1877 412M1899 389L1969 426M1976 386L2001 369M1976 386L1969 426M1976 386L2046 435M2001 369L1969 426M2001 369L2046 435M2141 379L2169 342M2141 379L2138 472M2141 379L2175 441M2141 379L2138 505M2299 346L2329 364M2299 346L2334 439M2329 364L2274 446M2329 364L2334 439M2480 354L2484 385M2480 354L2448 432M2480 354L2553 411M2484 385L2448 432M2484 385L2553 411M2484 385L2455 482M29 443L-7 411M29 443L39 550M2589 443L2553 411M154 463L237 408M154 463L156 512M154 463L231 521M237 408L292 467M292 467L231 521M292 467L286 546M292 467L362 486M390 453L439 461M390 453L492 427M390 453L362 486M390 453L488 509M439 461L492 427M439 461L362 486M439 461L488 509M492 427L488 509M627 473L699 429M627 473L721 469M627 473L634 530M627 473L666 544M699 429L721 469M699 429L747 500M721 469L747 500M721 469L731 562M869 416L915 430M869 416L836 514M869 416L883 482M915 430L1001 415M915 430L883 482M915 430L964 493M1001 415L964 493M1096 451L1165 477M1096 451L1069 502M1096 451L1122 486M1165 477L1277 461M1165 477L1069 502M1165 477L1122 486M1165 477L1192 582M1277 461L1284 402M1277 461L1353 518M1427 464L1474 425M1427 464L1353 518M1427 464L1440 486M1427 464L1477 534M1474 425L1561 463M1474 425L1440 486M1561 463L1615 437M1561 463L1477 534M1561 463L1565 510M1561 463L1636 497M1615 437L1565 510M1615 437L1636 497M1745 436L1797 456M1745 436L1741 483M1745 436L1816 486M1797 456L1877 412M1797 456L1741 483M1797 456L1816 486M1877 412L1969 426M1877 412L1816 486M1969 426L2046 435M2046 435L2138 472M2046 435L2024 538M2138 472L2175 441M2138 472L2138 505M2138 472L2206 510M2175 441L2274 446M2175 441L2138 505M2175 441L2206 510M2274 446L2334 439M2274 446L2206 510M2274 446L2304 536M2334 439L2304 536M2334 439L2347 526M2448 432L2553 411M2448 432L2455 482M39 550L-65 549M39 550L8 629M39 550L95 601M39 550L-22 570M2599 550L2495 549M2599 550L2538 570M156 512L231 521M156 512L95 601M231 521L286 546M231 521L220 623M286 546L220 623M286 546L317 614M286 546L365 566M362 486L438 552M362 486L365 566M438 552L488 509M438 552L365 566M438 552L419 631M438 552L511 613M488 509L511 613M634 530L666 544M634 530L635 595M634 530L660 574M634 530L731 562M666 544L635 595M666 544L660 574M666 544L731 562M747 500L836 514M747 500L731 562M836 514L883 482M883 482L964 493M964 493L1069 502M1069 502L1122 486M1069 502L1081 580M1270 559L1353 518M1270 559L1192 582M1270 559L1279 603M1270 559L1292 608M1270 559L1236 653M1353 518L1440 486M1440 486L1477 534M1477 534L1565 510M1477 534L1474 627M1565 510L1636 497M1565 510L1597 606M1636 497L1741 483M1636 497L1665 585M1741 483L1816 486M1741 483L1814 564M1816 486L1814 564M1877 545L1953 555M1877 545L1814 564M1877 545L1919 631M1953 555L2024 538M1953 555L1919 631M1953 555L1988 632M1953 555L2006 578M2024 538L2006 578M2024 538L2098 576M2138 505L2206 510M2138 505L2098 576M2206 510L2304 536M2304 536L2347 526M2304 536L2287 628M2347 526L2455 482M2347 526L2395 638M2455 482L2495 549M2455 482L2463 576M2495 549L2463 576M2495 549L2538 570M8 629L95 601M8 629L-22 570M8 629L20 708M8 629L-57 677M2568 629L2538 570M2568 629L2503 677M95 601L95 689M220 623L317 614M220 623L224 690M220 623L243 682M317 614L365 566M317 614L243 682M365 566L419 631M419 631L511 613M419 631L393 707M419 631L400 686M511 613L502 681M511 613L497 721M635 595L660 574M635 595L671 653M660 574L731 562M660 574L671 653M823 636L881 621M823 636L766 658M823 636L845 675M823 636L885 698M881 621L845 675M881 621L885 698M1003 610L1081 580M1003 610L1039 644M1003 610L1061 648M1081 580L1039 644M1081 580L1061 648M1192 582L1279 603M1192 582L1292 608M1192 582L1236 653M1279 603L1292 608M1279 603L1236 653M1279 603L1346 653M1292 608L1236 653M1292 608L1346 653M1419 618L1474 627M1419 618L1346 653M1419 618L1392 651M1419 618L1488 679M1474 627L1392 651M1474 627L1488 679M1597 606L1665 585M1597 606L1595 674M1597 606L1606 679M1665 585L1702 637M1665 585L1606 679M1665 585L1687 651M1702 637L1687 651M1814 564L1857 652M1919 631L1988 632M1919 631L1857 652M1919 631L1928 655M1988 632L2006 578M1988 632L1928 655M1988 632L2020 662M2006 578L2098 576M2006 578L2020 662M2098 576L2119 660M2209 640L2287 628M2209 640L2119 660M2209 640L2190 656M2209 640L2265 704M2287 628L2190 656M2287 628L2265 704M2287 628L2360 658M2395 638L2463 576M2395 638L2360 658M2395 638L2418 691M2463 576L2538 570M2463 576L2503 677M20 708L95 689M20 708L69 756M20 708L96 721M20 708L-30 732M2580 708L2530 732M95 689L69 756M95 689L96 721M224 690L243 682M224 690L214 723M224 690L305 781M243 682L214 723M243 682L339 722M393 707L400 686M393 707L339 722M393 707L479 728M400 686L339 722M400 686L479 728M502 681L589 704M502 681L479 728M502 681L497 721M502 681L569 741M589 704L671 653M589 704L497 721M589 704L569 741M671 653L766 658M766 658L845 675M766 658L762 737M845 675L885 698M845 675L838 751M885 698L838 751M885 698L891 804M1039 644L1061 648M1039 644L1032 765M1061 648L1126 712M1126 712L1112 775M1346 653L1392 651M1346 653L1375 749M1392 651L1488 679M1392 651L1375 749M1488 679L1595 674M1595 674L1606 679M1595 674L1687 651M1595 674L1678 763M1606 679L1687 651M1606 679L1678 763M1687 651L1737 723M1818 687L1857 652M1818 687L1737 723M1818 687L1838 720M1818 687L1903 742M1857 652L1928 655M1857 652L1838 720M1928 655L2020 662M1928 655L1903 742M2020 662L2119 660M2020 662L1950 753M2119 660L2190 656M2190 656L2265 704M2190 656L2170 748M2265 704L2249 791M2265 704L2328 765M2360 658L2418 691M2360 658L2438 748M2418 691L2503 677M2418 691L2438 748M2503 677L2438 748M2503 677L2530 732M69 756L96 721M69 756L-30 732M69 756L-14 803M2629 756L2530 732M2629 756L2546 803M96 721L131 822M214 723L305 781M305 781L339 722M305 781L363 828M339 722L363 828M479 728L497 721M479 728L569 741M497 721L569 741M717 786L762 737M717 786L698 824M717 786L771 860M717 786L817 821M762 737L838 751M762 737L698 824M762 737L817 821M838 751L817 821M838 751L891 804M948 794L1032 765M948 794L891 804M948 794L1021 804M1032 765L1112 775M1032 765L1021 804M1112 775L1184 785M1112 775L1117 822M1112 775L1181 801M1184 785L1228 787M1184 785L1117 822M1184 785L1181 801M1228 787L1316 787M1228 787L1181 801M1228 787L1233 867M1228 787L1295 835M1316 787L1375 749M1316 787L1295 835M1316 787L1361 818M1375 749L1454 789M1375 749L1361 818M1454 789L1534 793M1454 789L1361 818M1454 789L1473 863M1534 793L1473 863M1534 793L1530 866M1534 793L1602 832M1678 763L1737 723M1678 763L1602 832M1678 763L1718 809M1737 723L1838 720M1737 723L1718 809M1838 720L1903 742M1838 720L1950 753M1903 742L1950 753M1903 742L2002 806M1950 753L1962 842M1950 753L2002 806M2075 752L2154 768M2075 752L2170 748M2075 752L2002 806M2154 768L2170 748M2154 768L2157 847M2154 768L2190 836M2170 748L2249 791M2170 748L2190 836M2249 791L2328 765M2249 791L2190 836M2249 791L2313 804M2328 765L2313 804M2328 765L2357 821M2328 765L2411 844M2438 748L2530 732M2438 748L2411 844M2530 732L2546 803M28 842L131 822M28 842L-14 803M28 842L82 927M28 842L-33 897M2588 842L2546 803M2588 842L2527 897M131 822L181 852M181 852L256 870M181 852L169 916M256 870L246 956M363 828L444 848M363 828L377 923M363 828L431 893M444 848L497 868M444 848L377 923M444 848L431 893M497 868L580 867M497 868L431 893M497 868L507 956M580 867L507 956M580 867L614 931M580 867L669 890M698 824L771 860M698 824L669 890M771 860L817 821M771 860L768 926M771 860L809 946M817 821L891 804M891 804L920 916M1021 804L997 912M1021 804L1064 884M1117 822L1181 801M1117 822L1064 884M1117 822L1166 899M1181 801L1233 867M1233 867L1295 835M1233 867L1166 899M1233 867L1275 945M1295 835L1361 818M1361 818L1365 925M1473 863L1530 866M1473 863L1479 929M1530 866L1602 832M1530 866L1479 929M1530 866L1580 943M1718 809L1783 843M1718 809L1742 898M1783 843L1845 872M1783 843L1742 898M1783 843L1793 917M1845 872L1793 917M1845 872L1899 895M1962 842L2002 806M1962 842L1899 895M1962 842L1966 940M1962 842L2047 901M2002 806L2047 901M2157 847L2190 836M2157 847L2119 947M2190 836L2235 930M2313 804L2357 821M2313 804L2411 844M2357 821L2411 844M2411 844L2436 933M2546 803L2527 897M49 959L82 927M49 959L-33 897M49 959L59 1007M2609 959L2527 897M82 927L169 916M82 927L59 1007M82 927L134 983M169 916L246 956M169 916L134 983M169 916L216 996M246 956L216 996M246 956L281 980M246 956L229 1057M377 923L431 893M377 923L356 994M507 956L530 1027M507 956L561 978M614 931L669 890M614 931L561 978M614 931L649 995M669 890L768 926M669 890L649 995M768 926L809 946M768 926L799 1005M809 946L920 916M809 946L799 1005M809 946L852 994M920 916L997 912M920 916L852 994M920 916L908 1009M997 912L1064 884M997 912L1081 975M1064 884L1166 899M1064 884L1081 975M1166 899L1136 1000M1275 945L1308 947M1275 945L1238 1012M1275 945L1300 978M1275 945L1364 984M1308 947L1365 925M1308 947L1238 1012M1308 947L1300 978M1308 947L1364 984M1365 925L1364 984M1479 929L1580 943M1479 929L1504 986M1580 943L1667 955M1580 943L1504 986M1580 943L1581 983M1667 955L1742 898M1667 955L1581 983M1667 955L1665 1001M1667 955L1739 963M1742 898L1793 917M1742 898L1739 963M1793 917L1739 963M1793 917L1772 998M1899 895L1966 940M1966 940L2047 901M1966 940L1921 1005M1966 940L2027 1021M2047 901L2119 947M2047 901L2110 977M2119 947L2110 977M2119 947L2205 980M2235 930L2283 940M2235 930L2205 980M2235 930L2244 964M2235 930L2324 961M2283 940L2341 956M2283 940L2205 980M2283 940L2244 964M2283 940L2324 961M2341 956L2436 933M2341 956L2244 964M2341 956L2324 961M2341 956L2429 975M2436 933L2527 897M2436 933L2429 975M2436 933L2485 980M2527 897L2485 980M59 1007L134 983M59 1007L39 1103M59 1007L99 1049M134 983L216 996M134 983L99 1049M216 996L281 980M216 996L229 1057M281 980L356 994M281 980L229 1057M281 980L269 1069M356 994L428 1028M356 994L366 1053M428 1028L530 1027M428 1028L366 1053M428 1028L432 1063M428 1028L491 1089M530 1027L561 978M530 1027L491 1089M530 1027L572 1054M561 978L649 995M561 978L572 1054M649 995L572 1054M649 995L699 1070M799 1005L852 994M799 1005L770 1094M799 1005L874 1047M852 994L908 1009M852 994L874 1047M908 1009L987 1011M908 1009L874 1047M908 1009L940 1064M987 1011L940 1064M987 1011L1013 1060M987 1011L1069 1044M1081 975L1136 1000M1081 975L1013 1060M1081 975L1069 1044M1136 1000L1069 1044M1136 1000L1187 1072M1136 1000L1206 1045M1238 1012L1300 978M1238 1012L1187 1072M1238 1012L1206 1045M1300 978L1364 984M1300 978L1335 1049M1364 984L1335 1049M1504 986L1581 983M1504 986L1502 1085M1504 986L1554 1065M1581 983L1665 1001M1581 983L1554 1065M1665 1001L1739 963M1665 1001L1772 998M1665 1001L1667 1109M1739 963L1772 998M1772 998L1729 1098M1772 998L1830 1052M1869 1017L1921 1005M1869 1017L1830 1052M1869 1017L1867 1072M1921 1005L1830 1052M1921 1005L1867 1072M1921 1005L1964 1080M2027 1021L2110 977M2027 1021L1964 1080M2027 1021L2044 1072M2027 1021L2073 1135M2110 977L2205 980M2205 980L2244 964M2244 964L2324 961M2324 961L2429 975M2429 975L2485 980M2429 975L2401 1055M2485 980L2401 1055M39 1103L99 1049M39 1103L-36 1110M39 1103L45 1123M39 1103L-44 1160M2599 1103L2524 1110M2599 1103L2516 1160M99 1049L45 1123M99 1049L147 1128M229 1057L269 1069M229 1057L147 1128M269 1069L366 1053M366 1053L432 1063M432 1063L491 1089M432 1063L389 1168M432 1063L438 1133M491 1089L572 1054M491 1089L438 1133M572 1054L571 1127M699 1070L770 1094M699 1070L667 1152M699 1070L753 1160M770 1094L753 1160M770 1094L823 1162M770 1094L782 1211M874 1047L940 1064M940 1064L1013 1060M940 1064L940 1156M1013 1060L1069 1044M1013 1060L1013 1159M1069 1044L1187 1072M1187 1072L1206 1045M1187 1072L1151 1130M1206 1045L1151 1130M1335 1049L1362 1080M1335 1049L1318 1123M1362 1080L1318 1123M1362 1080L1400 1120M1502 1085L1554 1065M1502 1085L1400 1120M1502 1085L1471 1177M1502 1085L1602 1131M1554 1065L1591 1171M1554 1065L1602 1131M1667 1109L1729 1098M1667 1109L1591 1171M1667 1109L1602 1131M1729 1098L1751 1197M1729 1098L1837 1147M1830 1052L1867 1072M1830 1052L1837 1147M1867 1072L1964 1080M1867 1072L1837 1147M1964 1080L2044 1072M2044 1072L2134 1119M2044 1072L2073 1135M2044 1072L2091 1167M2134 1119L2217 1095M2134 1119L2073 1135M2134 1119L2091 1167M2134 1119L2218 1143M2217 1095L2261 1071M2217 1095L2218 1143M2217 1095L2251 1158M2217 1095L2217 1202M2261 1071L2363 1076M2261 1071L2218 1143M2261 1071L2251 1158M2363 1076L2401 1055M2363 1076L2377 1165M2401 1055L2377 1165M2524 1110L2605 1123M2524 1110L2477 1147M2524 1110L2516 1160M2524 1110L2514 1213M-36 1110L45 1123M45 1123L-44 1160M45 1123L71 1214M2605 1123L2516 1160M147 1128L229 1195M229 1195L244 1189M229 1195L192 1262M229 1195L316 1264M244 1189L192 1262M389 1168L438 1133M389 1168L361 1230M389 1168L479 1210M438 1133L479 1210M438 1133L498 1205M543 1193L571 1127M543 1193L479 1210M543 1193L498 1205M543 1193L564 1232M543 1193L554 1296M571 1127L667 1152M667 1152L753 1160M667 1152L648 1255M667 1152L782 1211M753 1160L823 1162M753 1160L782 1211M823 1162L782 1211M823 1162L878 1212M940 1156L1013 1159M940 1156L878 1212M940 1156L981 1200M1013 1159L1117 1185M1013 1159L981 1200M1117 1185L1151 1130M1117 1185L1119 1248M1117 1185L1170 1219M1151 1130L1170 1219M1261 1195L1318 1123M1261 1195L1212 1219M1261 1195L1342 1242M1261 1195L1291 1285M1318 1123L1400 1120M1318 1123L1368 1213M1400 1120L1471 1177M1400 1120L1458 1207M1471 1177L1368 1213M1471 1177L1458 1207M1591 1171L1602 1131M1591 1171L1595 1228M1602 1131L1595 1228M1751 1197L1837 1147M1751 1197L1676 1220M1751 1197L1735 1251M1837 1147L1886 1182M1886 1182L1956 1190M1886 1182L1835 1265M1886 1182L1904 1258M1956 1190L1927 1274M1956 1190L2034 1272M2073 1135L2091 1167M2091 1167L2135 1261M2218 1143L2251 1158M2218 1143L2217 1202M2251 1158L2217 1202M2251 1158L2280 1224M2377 1165L2477 1147M2377 1165L2399 1219M2377 1165L2415 1257M2477 1147L2516 1160M2477 1147L2399 1219M2477 1147L2514 1213M2516 1160L2514 1213M71 1214L86 1253M71 1214L-46 1213M71 1214L117 1295M2631 1214L2514 1213M86 1253L192 1262M86 1253L79 1330M86 1253L117 1295M86 1253L-18 1322M2646 1253L2542 1322M192 1262L117 1295M192 1262L219 1308M316 1264L361 1230M316 1264L279 1357M316 1264L348 1284M361 1230L348 1284M361 1230L420 1343M479 1210L498 1205M479 1210L564 1232M498 1205L564 1232M564 1232L554 1296M564 1232L567 1305M648 1255L567 1305M648 1255L641 1335M648 1255L668 1365M782 1211L878 1212M878 1212L925 1280M878 1212L880 1286M925 1280L981 1200M925 1280L870 1357M925 1280L880 1286M925 1280L980 1319M981 1200L980 1319M1119 1248L1170 1219M1119 1248L1212 1219M1119 1248L1188 1292M1170 1219L1212 1219M1170 1219L1188 1292M1212 1219L1188 1292M1212 1219L1291 1285M1342 1242L1368 1213M1342 1242L1458 1207M1342 1242L1291 1285M1342 1242L1433 1324M1368 1213L1458 1207M1458 1207L1452 1310M1595 1228L1676 1220M1595 1228L1620 1286M1676 1220L1735 1251M1676 1220L1620 1286M1676 1220L1689 1294M1735 1251L1689 1294M1835 1265L1904 1258M1835 1265L1927 1274M1835 1265L1789 1352M1904 1258L1927 1274M1904 1258L1914 1332M1904 1258L1959 1290M1927 1274L1914 1332M1927 1274L1959 1290M2034 1272L2135 1261M2034 1272L1959 1290M2034 1272L2058 1357M2034 1272L2121 1333M2135 1261L2217 1202M2135 1261L2058 1357M2135 1261L2121 1333M2217 1202L2280 1224M2280 1224L2314 1306M2399 1219L2415 1257M2399 1219L2391 1319M2399 1219L2428 1301M2415 1257L2314 1306M2415 1257L2391 1319M2415 1257L2428 1301M2514 1213L2542 1322M79 1330L117 1295M79 1330L-18 1322M79 1330L18 1417M2639 1330L2542 1322M117 1295L219 1308M219 1308L279 1357M219 1308L189 1381M219 1308L258 1384M279 1357L348 1284M279 1357L189 1381M279 1357L258 1384M348 1284L420 1343M348 1284L400 1364M420 1343L400 1364M420 1343L464 1414M554 1296L567 1305M554 1296L641 1335M554 1296L545 1363M567 1305L641 1335M567 1305L545 1363M641 1335L610 1417M641 1335L668 1365M769 1347L870 1357M769 1347L880 1286M769 1347L668 1365M769 1347L774 1362M769 1347L846 1435M870 1357L880 1286M870 1357L846 1435M870 1357L901 1424M880 1286L980 1319M980 1319L1066 1332M980 1319L1002 1420M1066 1332L1099 1419M1066 1332L1130 1362M1188 1292L1214 1344M1188 1292L1130 1362M1214 1344L1291 1285M1214 1344L1130 1362M1214 1344L1239 1404M1214 1344L1291 1397M1291 1285L1291 1397M1433 1324L1452 1310M1433 1324L1525 1328M1433 1324L1378 1381M1433 1324L1488 1421M1452 1310L1525 1328M1452 1310L1378 1381M1525 1328L1620 1286M1525 1328L1488 1421M1525 1328L1549 1417M1620 1286L1689 1294M1620 1286L1616 1389M1689 1294L1734 1381M1789 1352L1734 1381M1789 1352L1802 1435M1914 1332L1959 1290M1914 1332L1914 1373M1914 1332L1927 1375M1959 1290L1914 1373M2058 1357L2121 1333M2058 1357L2051 1395M2058 1357L2083 1378M2121 1333L2051 1395M2121 1333L2083 1378M2225 1353L2314 1306M2225 1353L2239 1405M2314 1306L2391 1319M2391 1319L2428 1301M2391 1319L2386 1410M18 1417L-89 1415M18 1417L-75 1436M2578 1417L2471 1415M2578 1417L2485 1436M157 1439L189 1381M157 1439L258 1384M189 1381L258 1384M400 1364L464 1414M464 1414L545 1363M545 1363L610 1417M610 1417L668 1365M668 1365L774 1362M846 1435L901 1424M901 1424L1002 1420M1099 1419L1130 1362M1239 1404L1291 1397M1291 1397L1378 1381M1488 1421L1549 1417M1549 1417L1616 1389M1616 1389L1734 1381M1734 1381L1802 1435M1914 1373L1927 1375M2051 1395L2083 1378M2239 1405L2295 1432M2295 1432L2386 1410M2386 1410L2471 1415M2471 1415L2485 1436"/></svg>