<svg xmlns="http://www.w3.org/2000/svg" width="2560" height="1440" fill="#fff"><circle cx="17" cy="5" r="5"/><circle cx="84" cy="1" r="5"/><circle cx="84" cy="1441" r="5"/><circle cx="174" cy="67" r="6"/><circle cx="254" cy="66" r="5"/><circle cx="324" cy="9" r="4"/><circle cx="438" cy="4" r="5"/><circle cx="438" cy="1444" r="5"/><circle cx="506" cy="17" r="5"/><circle cx="622" cy="74" r="4"/><circle cx="673" cy="71" r="4"/><circle cx="730" cy="62" r="6"/><circle cx="847" cy="70" r="6"/><circle cx="936" cy="0" r="5"/><circle cx="936" cy="1440" r="5"/><circle cx="979" cy="17" r="5"/><circle cx="1052" cy="55" r="6"/><circle cx="1133" cy="18" r="6"/><circle cx="1215" cy="36" r="4"/><circle cx="1335" cy="31" r="5"/><circle cx="1408" cy="55" r="6"/><circle cx="1476" cy="75" r="4"/><circle cx="1529" cy="42" r="4"/><circle cx="1669" cy="48" r="5"/><circle cx="1754" cy="25" r="5"/><circle cx="1785" cy="7" r="5"/><circle cx="1888" cy="40" r="4"/><circle cx="1926" cy="53" r="4"/><circle cx="2015" cy="33" r="5"/><circle cx="2142" cy="5" r="5"/><circle cx="2210" cy="73" r="4"/><circle cx="2257" cy="66" r="5"/><circle cx="2382" cy="19" r="4"/><circle cx="2422" cy="45" r="5"/><circle cx="2538" cy="39" r="5"/><circle cx="5" cy="153" r="6"/><circle cx="2565" cy="153" r="6"/><circle cx="153" cy="122" r="5"/><circle cx="209" cy="129" r="5"/><circle cx="289" cy="159" r="6"/><circle cx="373" cy="125" r="5"/><circle cx="416" cy="113" r="4"/><circle cx="482" cy="92" r="5"/><circle cx="574" cy="113" r="4"/><circle cx="672" cy="104" r="4"/><circle cx="784" cy="131" r="5"/><circle cx="843" cy="128" r="6"/><circle cx="894" cy="110" r="4"/><circle cx="1030" cy="139" r="6"/><circle cx="1108" cy="94" r="6"/><circle cx="1132" cy="117" r="5"/><circle cx="1216" cy="88" r="4"/><circle cx="1302" cy="106" r="5"/><circle cx="1420" cy="118" r="6"/><circle cx="1481" cy="129" r="4"/><circle cx="1558" cy="104" r="4"/><circle cx="1656" cy="100" r="5"/><circle cx="1757" cy="119" r="5"/><circle cx="1815" cy="136" r="5"/><circle cx="1895" cy="146" r="5"/><circle cx="1940" cy="132" r="5"/><circle cx="2040" cy="138" r="5"/><circle cx="2112" cy="116" r="4"/><circle cx="2211" cy="87" r="5"/><circle cx="2282" cy="153" r="5"/><circle cx="2355" cy="145" r="4"/><circle cx="2431" cy="97" r="4"/><circle cx="2487" cy="113" r="6"/><circle cx="54" cy="232" r="5"/><circle cx="100" cy="194" r="5"/><circle cx="173" cy="207" r="6"/><circle cx="316" cy="229" r="4"/><circle cx="347" cy="201" r="6"/><circle cx="478" cy="207" r="4"/><circle cx="501" cy="176" r="6"/><circle cx="630" cy="203" r="6"/><circle cx="652" cy="173" r="6"/><circle cx="745" cy="196" r="5"/><circle cx="874" cy="175" r="6"/><circle cx="922" cy="233" r="5"/><circle cx="1006" cy="186" r="4"/><circle cx="1105" cy="201" r="6"/><circle cx="1195" cy="209" r="5"/><circle cx="1203" cy="174" r="4"/><circle cx="1283" cy="173" r="4"/><circle cx="1411" cy="188" r="6"/><circle cx="1452" cy="193" r="5"/><circle cx="1525" cy="166" r="6"/><circle cx="1656" cy="161" r="4"/><circle cx="1740" cy="189" r="4"/><circle cx="1818" cy="179" r="5"/><circle cx="1905" cy="185" r="6"/><circle cx="1994" cy="201" r="4"/><circle cx="2015" cy="186" r="6"/><circle cx="2146" cy="217" r="5"/><circle cx="2185" cy="226" r="6"/><circle cx="2296" cy="184" r="6"/><circle cx="2388" cy="170" r="6"/><circle cx="2454" cy="195" r="5"/><circle cx="2527" cy="201" r="5"/><circle cx="50" cy="299" r="5"/><circle cx="144" cy="292" r="5"/><circle cx="210" cy="298" r="5"/><circle cx="304" cy="273" r="5"/><circle cx="374" cy="243" r="6"/><circle cx="442" cy="318" r="6"/><circle cx="486" cy="315" r="5"/><circle cx="563" cy="297" r="5"/><circle cx="685" cy="317" r="4"/><circle cx="740" cy="303" r="4"/><circle cx="862" cy="279" r="5"/><circle cx="935" cy="285" r="5"/><circle cx="987" cy="271" r="4"/><circle cx="1041" cy="274" r="5"/><circle cx="1176" cy="243" r="5"/><circle cx="1260" cy="247" r="5"/><circle cx="1323" cy="290" r="6"/><circle cx="1373" cy="291" r="6"/><circle cx="1506" cy="261" r="5"/><circle cx="1580" cy="253" r="6"/><circle cx="1649" cy="256" r="5"/><circle cx="1704" cy="275" r="6"/><circle cx="1783" cy="318" r="5"/><circle cx="1858" cy="298" r="6"/><circle cx="1956" cy="247" r="4"/><circle cx="2001" cy="309" r="5"/><circle cx="2153" cy="242" r="4"/><circle cx="2172" cy="293" r="4"/><circle cx="2267" cy="304" r="4"/><circle cx="2363" cy="299" r="6"/><circle cx="2478" cy="275" r="5"/><circle cx="2507" cy="257" r="6"/><circle cx="79" cy="372" r="5"/><circle cx="135" cy="380" r="5"/><circle cx="167" cy="349" r="6"/><circle cx="316" cy="399" r="4"/><circle cx="374" cy="371" r="5"/><circle cx="429" cy="363" r="4"/><circle cx="488" cy="330" r="5"/><circle cx="583" cy="379" r="6"/><circle cx="648" cy="376" r="4"/><circle cx="798" cy="395" r="5"/><circle cx="850" cy="383" r="5"/><circle cx="932" cy="339" r="5"/><circle cx="1014" cy="395" r="5"/><circle cx="1109" cy="369" r="5"/><circle cx="1127" cy="326" r="4"/><circle cx="1271" cy="342" r="6"/><circle cx="1347" cy="382" r="5"/><circle cx="1383" cy="371" r="5"/><circle cx="1488" cy="395" r="5"/><circle cx="1589" cy="325" r="6"/><circle cx="1609" cy="328" r="5"/><circle cx="1688" cy="390" r="6"/><circle cx="1814" cy="368" r="4"/><circle cx="1860" cy="353" r="5"/><circle cx="2000" cy="337" r="6"/><circle cx="2014" cy="337" r="6"/><circle cx="2144" cy="398" r="6"/><circle cx="2180" cy="379" r="5"/><circle cx="2263" cy="388" r="5"/><circle cx="2345" cy="361" r="5"/><circle cx="2436" cy="358" r="6"/><circle cx="2534" cy="329" r="5"/><circle cx="37" cy="465" r="4"/><circle cx="86" cy="429" r="4"/><circle cx="239" cy="407" r="5"/><circle cx="308" cy="424" r="5"/><circle cx="356" cy="403" r="5"/><circle cx="466" cy="433" r="5"/><circle cx="496" cy="466" r="4"/><circle cx="580" cy="412" r="5"/><circle cx="719" cy="452" r="4"/><circle cx="745" cy="415" r="6"/><circle cx="806" cy="427" r="5"/><circle cx="893" cy="402" r="4"/><circle cx="1009" cy="425" r="4"/><circle cx="1094" cy="467" r="5"/><circle cx="1144" cy="467" r="6"/><circle cx="1207" cy="424" r="6"/><circle cx="1354" cy="427" r="5"/><circle cx="1385" cy="436" r="4"/><circle cx="1479" cy="473" r="4"/><circle cx="1592" cy="442" r="4"/><circle cx="1642" cy="416" r="6"/><circle cx="1699" cy="413" r="5"/><circle cx="1788" cy="473" r="4"/><circle cx="1850" cy="420" r="5"/><circle cx="1957" cy="402" r="5"/><circle cx="2058" cy="456" r="4"/><circle cx="2099" cy="452" r="4"/><circle cx="2214" cy="466" r="6"/><circle cx="2242" cy="464" r="4"/><circle cx="2385" cy="470" r="5"/><circle cx="2434" cy="417" r="6"/><circle cx="2486" cy="479" r="4"/><circle cx="30" cy="508" r="5"/><circle cx="155" cy="534" r="5"/><circle cx="174" cy="558" r="5"/><circle cx="255" cy="542" r="6"/><circle cx="340" cy="540" r="5"/><circle cx="456" cy="552" r="6"/><circle cx="486" cy="493" r="5"/><circle cx="639" cy="518" r="5"/><circle cx="689" cy="543" r="5"/><circle cx="752" cy="505" r="4"/><circle cx="822" cy="536" r="6"/><circle cx="926" cy="539" r="6"/><circle cx="1002" cy="547" r="4"/><circle cx="1085" cy="513" r="4"/><circle cx="1164" cy="546" r="4"/><circle cx="1249" cy="534" r="5"/><circle cx="1342" cy="530" r="5"/><circle cx="1434" cy="513" r="5"/><circle cx="1495" cy="536" r="4"/><circle cx="1559" cy="525" r="4"/><circle cx="1631" cy="499" r="6"/><circle cx="1686" cy="527" r="5"/><circle cx="1805" cy="495" r="5"/><circle cx="1909" cy="513" r="5"/><circle cx="1988" cy="492" r="6"/><circle cx="2052" cy="516" r="6"/><circle cx="2086" cy="483" r="5"/><circle cx="2214" cy="488" r="5"/><circle cx="2280" cy="499" r="4"/><circle cx="2373" cy="535" r="5"/><circle cx="2451" cy="516" r="5"/><circle cx="2537" cy="529" r="4"/><circle cx="75" cy="635" r="5"/><circle cx="86" cy="577" r="4"/><circle cx="210" cy="587" r="4"/><circle cx="318" cy="629" r="5"/><circle cx="341" cy="615" r="4"/><circle cx="422" cy="587" r="4"/><circle cx="488" cy="596" r="4"/><circle cx="611" cy="594" r="4"/><circle cx="692" cy="585" r="5"/><circle cx="760" cy="578" r="5"/><circle cx="843" cy="627" r="5"/><circle cx="911" cy="614" r="5"/><circle cx="1025" cy="613" r="5"/><circle cx="1091" cy="602" r="5"/><circle cx="1166" cy="640" r="5"/><circle cx="1252" cy="633" r="6"/><circle cx="1299" cy="604" r="6"/><circle cx="1431" cy="617" r="5"/><circle cx="1446" cy="573" r="6"/><circle cx="1570" cy="599" r="5"/><circle cx="1600" cy="561" r="5"/><circle cx="1706" cy="592" r="5"/><circle cx="1814" cy="600" r="4"/><circle cx="1901" cy="640" r="5"/><circle cx="1988" cy="601" r="5"/><circle cx="2073" cy="586" r="5"/><circle cx="2105" cy="604" r="4"/><circle cx="2160" cy="579" r="5"/><circle cx="2266" cy="573" r="5"/><circle cx="2377" cy="634" r="5"/><circle cx="2444" cy="590" r="5"/><circle cx="2556" cy="633" r="6"/><circle cx="-4" cy="633" r="6"/><circle cx="77" cy="685" r="5"/><circle cx="159" cy="703" r="4"/><circle cx="218" cy="706" r="5"/><circle cx="309" cy="652" r="6"/><circle cx="322" cy="711" r="5"/><circle cx="444" cy="700" r="4"/><circle cx="541" cy="680" r="6"/><circle cx="591" cy="657" r="5"/><circle cx="646" cy="661" r="5"/><circle cx="778" cy="671" r="6"/><circle cx="865" cy="674" r="4"/><circle cx="899" cy="716" r="5"/><circle cx="1018" cy="669" r="6"/><circle cx="1073" cy="678" r="4"/><circle cx="1125" cy="686" r="5"/><circle cx="1273" cy="658" r="4"/><circle cx="1331" cy="683" r="6"/><circle cx="1401" cy="692" r="4"/><circle cx="1459" cy="641" r="5"/><circle cx="1578" cy="668" r="6"/><circle cx="1663" cy="693" r="4"/><circle cx="1702" cy="662" r="5"/><circle cx="1830" cy="668" r="6"/><circle cx="1856" cy="712" r="5"/><circle cx="1981" cy="641" r="5"/><circle cx="2042" cy="706" r="5"/><circle cx="2104" cy="653" r="4"/><circle cx="2226" cy="647" r="6"/><circle cx="2261" cy="662" r="6"/><circle cx="2322" cy="663" r="5"/><circle cx="2462" cy="690" r="5"/><circle cx="2485" cy="670" r="5"/><circle cx="18" cy="781" r="4"/><circle cx="129" cy="777" r="5"/><circle cx="215" cy="740" r="5"/><circle cx="283" cy="737" r="6"/><circle cx="347" cy="723" r="4"/><circle cx="439" cy="752" r="5"/><circle cx="489" cy="781" r="5"/><circle cx="633" cy="773" r="5"/><circle cx="669" cy="779" r="6"/><circle cx="768" cy="759" r="6"/><circle cx="807" cy="728" r="6"/><circle cx="942" cy="790" r="4"/><circle cx="997" cy="763" r="5"/><circle cx="1067" cy="776" r="6"/><circle cx="1149" cy="743" r="4"/><circle cx="1276" cy="725" r="5"/><circle cx="1348" cy="781" r="4"/><circle cx="1414" cy="762" r="5"/><circle cx="1460" cy="751" r="6"/><circle cx="1577" cy="739" r="5"/><circle cx="1670" cy="758" r="5"/><circle cx="1699" cy="748" r="4"/><circle cx="1840" cy="768" r="5"/><circle cx="1862" cy="761" r="4"/><circle cx="1956" cy="754" r="6"/><circle cx="2071" cy="774" r="6"/><circle cx="2090" cy="745" r="6"/><circle cx="2218" cy="769" r="4"/><circle cx="2304" cy="752" r="6"/><circle cx="2372" cy="762" r="5"/><circle cx="2456" cy="769" r="5"/><circle cx="2533" cy="789" r="5"/><circle cx="27" cy="811" r="4"/><circle cx="85" cy="867" r="6"/><circle cx="167" cy="834" r="6"/><circle cx="313" cy="845" r="5"/><circle cx="346" cy="823" r="6"/><circle cx="476" cy="862" r="4"/><circle cx="549" cy="871" r="5"/><circle cx="616" cy="804" r="5"/><circle cx="688" cy="813" r="5"/><circle cx="749" cy="859" r="5"/><circle cx="842" cy="821" r="5"/><circle cx="924" cy="810" r="5"/><circle cx="1030" cy="830" r="6"/><circle cx="1053" cy="857" r="5"/><circle cx="1184" cy="839" r="5"/><circle cx="1248" cy="810" r="4"/><circle cx="1301" cy="857" r="5"/><circle cx="1392" cy="833" r="5"/><circle cx="1458" cy="811" r="5"/><circle cx="1540" cy="870" r="6"/><circle cx="1628" cy="811" r="5"/><circle cx="1691" cy="836" r="6"/><circle cx="1805" cy="875" r="4"/><circle cx="1893" cy="822" r="5"/><circle cx="1930" cy="817" r="5"/><circle cx="2017" cy="813" r="5"/><circle cx="2113" cy="852" r="5"/><circle cx="2170" cy="814" r="6"/><circle cx="2277" cy="875" r="5"/><circle cx="2394" cy="867" r="6"/><circle cx="2465" cy="842" r="5"/><circle cx="2540" cy="825" r="6"/><circle cx="39" cy="888" r="5"/><circle cx="123" cy="897" r="6"/><circle cx="206" cy="956" r="6"/><circle cx="313" cy="935" r="6"/><circle cx="385" cy="887" r="4"/><circle cx="474" cy="923" r="5"/><circle cx="509" cy="942" r="5"/><circle cx="635" cy="933" r="5"/><circle cx="660" cy="957" r="6"/><circle cx="735" cy="893" r="5"/><circle cx="868" cy="901" r="4"/><circle cx="911" cy="934" r="6"/><circle cx="1039" cy="939" r="4"/><circle cx="1070" cy="937" r="5"/><circle cx="1162" cy="919" r="5"/><circle cx="1247" cy="931" r="6"/><circle cx="1287" cy="888" r="4"/><circle cx="1423" cy="885" r="6"/><circle cx="1454" cy="946" r="4"/><circle cx="1600" cy="885" r="5"/><circle cx="1675" cy="952" r="5"/><circle cx="1688" cy="892" r="5"/><circle cx="1827" cy="939" r="6"/><circle cx="1891" cy="952" r="5"/><circle cx="1987" cy="930" r="5"/><circle cx="2002" cy="948" r="6"/><circle cx="2119" cy="888" r="5"/><circle cx="2177" cy="953" r="4"/><circle cx="2304" cy="946" r="5"/><circle cx="2356" cy="898" r="4"/><circle cx="2433" cy="929" r="5"/><circle cx="2498" cy="895" r="6"/><circle cx="17" cy="1039" r="5"/><circle cx="132" cy="980" r="5"/><circle cx="218" cy="980" r="4"/><circle cx="275" cy="1018" r="4"/><circle cx="375" cy="1002" r="5"/><circle cx="472" cy="983" r="6"/><circle cx="483" cy="996" r="5"/><circle cx="592" cy="1024" r="5"/><circle cx="706" cy="1025" r="4"/><circle cx="791" cy="995" r="6"/><circle cx="874" cy="983" r="5"/><circle cx="944" cy="962" r="5"/><circle cx="1029" cy="1005" r="6"/><circle cx="1085" cy="999" r="4"/><circle cx="1155" cy="984" r="6"/><circle cx="1252" cy="1017" r="6"/><circle cx="1359" cy="975" r="5"/><circle cx="1437" cy="1006" r="5"/><circle cx="1442" cy="969" r="5"/><circle cx="1577" cy="985" r="6"/><circle cx="1646" cy="972" r="6"/><circle cx="1705" cy="989" r="5"/><circle cx="1820" cy="986" r="5"/><circle cx="1851" cy="963" r="5"/><circle cx="1974" cy="993" r="6"/><circle cx="2064" cy="1012" r="4"/><circle cx="2095" cy="1018" r="4"/><circle cx="2223" cy="997" r="6"/><circle cx="2261" cy="970" r="5"/><circle cx="2381" cy="992" r="4"/><circle cx="2439" cy="1034" r="6"/><circle cx="2547" cy="1001" r="4"/><circle cx="69" cy="1096" r="5"/><circle cx="120" cy="1111" r="6"/><circle cx="225" cy="1119" r="6"/><circle cx="264" cy="1055" r="4"/><circle cx="396" cy="1075" r="6"/><circle cx="432" cy="1101" r="5"/><circle cx="537" cy="1112" r="5"/><circle cx="600" cy="1101" r="5"/><circle cx="687" cy="1102" r="4"/><circle cx="774" cy="1040" r="5"/><circle cx="853" cy="1048" r="4"/><circle cx="927" cy="1115" r="5"/><circle cx="987" cy="1096" r="6"/><circle cx="1105" cy="1067" r="6"/><circle cx="1179" cy="1070" r="6"/><circle cx="1269" cy="1087" r="5"/><circle cx="1356" cy="1086" r="5"/><circle cx="1361" cy="1112" r="6"/><circle cx="1470" cy="1097" r="6"/><circle cx="1554" cy="1096" r="4"/><circle cx="1662" cy="1041" r="6"/><circle cx="1741" cy="1106" r="5"/><circle cx="1817" cy="1091" r="5"/><circle cx="1910" cy="1093" r="5"/><circle cx="1965" cy="1055" r="5"/><circle cx="2074" cy="1115" r="5"/><circle cx="2080" cy="1063" r="4"/><circle cx="2165" cy="1045" r="4"/><circle cx="2304" cy="1080" r="6"/><circle cx="2351" cy="1090" r="5"/><circle cx="2473" cy="1114" r="5"/><circle cx="2527" cy="1116" r="6"/><circle cx="54" cy="1195" r="5"/><circle cx="147" cy="1196" r="4"/><circle cx="231" cy="1175" r="5"/><circle cx="248" cy="1136" r="5"/><circle cx="338" cy="1134" r="4"/><circle cx="430" cy="1173" r="5"/><circle cx="541" cy="1138" r="4"/><circle cx="613" cy="1195" r="4"/><circle cx="697" cy="1165" r="6"/><circle cx="767" cy="1123" r="6"/><circle cx="823" cy="1188" r="6"/><circle cx="927" cy="1148" r="6"/><circle cx="1018" cy="1188" r="6"/><circle cx="1056" cy="1147" r="6"/><circle cx="1197" cy="1145" r="6"/><circle cx="1262" cy="1162" r="5"/><circle cx="1298" cy="1162" r="4"/><circle cx="1367" cy="1187" r="5"/><circle cx="1496" cy="1155" r="6"/><circle cx="1577" cy="1184" r="5"/><circle cx="1658" cy="1181" r="4"/><circle cx="1721" cy="1136" r="6"/><circle cx="1834" cy="1199" r="5"/><circle cx="1919" cy="1193" r="5"/><circle cx="1993" cy="1153" r="5"/><circle cx="2072" cy="1180" r="6"/><circle cx="2098" cy="1147" r="4"/><circle cx="2216" cy="1166" r="5"/><circle cx="2247" cy="1165" r="6"/><circle cx="2386" cy="1136" r="6"/><circle cx="2449" cy="1159" r="5"/><circle cx="2523" cy="1168" r="6"/><circle cx="34" cy="1271" r="5"/><circle cx="103" cy="1258" r="5"/><circle cx="173" cy="1259" r="4"/><circle cx="303" cy="1270" r="5"/><circle cx="365" cy="1243" r="4"/><circle cx="402" cy="1245" r="5"/><circle cx="485" cy="1253" r="5"/><circle cx="589" cy="1246" r="6"/><circle cx="680" cy="1262" r="6"/><circle cx="727" cy="1254" r="4"/><circle cx="818" cy="1275" r="4"/><circle cx="959" cy="1280" r="5"/><circle cx="1000" cy="1230" r="6"/><circle cx="1060" cy="1277" r="6"/><circle cx="1149" cy="1233" r="4"/><circle cx="1202" cy="1226" r="6"/><circle cx="1340" cy="1218" r="6"/><circle cx="1389" cy="1253" r="6"/><circle cx="1449" cy="1208" r="5"/><circle cx="1598" cy="1231" r="6"/><circle cx="1665" cy="1253" r="4"/><circle cx="1746" cy="1242" r="4"/><circle cx="1805" cy="1238" r="5"/><circle cx="1861" cy="1259" r="6"/><circle cx="1949" cy="1276" r="5"/><circle cx="2012" cy="1256" r="5"/><circle cx="2147" cy="1275" r="6"/><circle cx="2223" cy="1251" r="5"/><circle cx="2293" cy="1213" r="4"/><circle cx="2389" cy="1216" r="4"/><circle cx="2415" cy="1224" r="6"/><circle cx="2493" cy="1240" r="5"/><circle cx="2" cy="1342" r="4"/><circle cx="2562" cy="1342" r="4"/><circle cx="126" cy="1338" r="4"/><circle cx="165" cy="1314" r="5"/><circle cx="245" cy="1337" r="4"/><circle cx="340" cy="1337" r="4"/><circle cx="429" cy="1295" r="5"/><circle cx="522" cy="1298" r="5"/><circle cx="634" cy="1283" r="5"/><circle cx="698" cy="1321" r="5"/><circle cx="771" cy="1316" r="5"/><circle cx="847" cy="1282" r="5"/><circle cx="936" cy="1312" r="6"/><circle cx="1016" cy="1348" r="5"/><circle cx="1106" cy="1281" r="6"/><circle cx="1178" cy="1289" r="6"/><circle cx="1240" cy="1317" r="5"/><circle cx="1283" cy="1334" r="5"/><circle cx="1405" cy="1312" r="5"/><circle cx="1510" cy="1325" r="6"/><circle cx="1533" cy="1352" r="5"/><circle cx="1619" cy="1286" r="5"/><circle cx="1709" cy="1334" r="4"/><circle cx="1774" cy="1293" r="4"/><circle cx="1856" cy="1287" r="6"/><circle cx="1930" cy="1307" r="5"/><circle cx="2039" cy="1280" r="6"/><circle cx="2098" cy="1318" r="5"/><circle cx="2223" cy="1328" r="5"/><circle cx="2292" cy="1317" r="4"/><circle cx="2326" cy="1325" r="5"/><circle cx="2411" cy="1341" r="5"/><circle cx="2538" cy="1301" r="5"/><circle cx="41" cy="1432" r="5"/><circle cx="121" cy="1363" r="5"/><circle cx="189" cy="1431" r="5"/><circle cx="250" cy="1436" r="6"/><circle cx="250" cy="-4" r="6"/><circle cx="369" cy="1430" r="5"/><circle cx="411" cy="1395" r="5"/><circle cx="511" cy="1386" r="4"/><circle cx="592" cy="1381" r="5"/><circle cx="668" cy="1389" r="5"/><circle cx="780" cy="1421" r="6"/><circle cx="813" cy="1372" r="5"/><circle cx="907" cy="1415" r="5"/><circle cx="974" cy="1420" r="5"/><circle cx="1046" cy="1390" r="6"/><circle cx="1173" cy="1387" r="6"/><circle cx="1261" cy="1386" r="5"/><circle cx="1297" cy="1400" r="4"/><circle cx="1375" cy="1407" r="5"/><circle cx="1486" cy="1426" r="4"/><circle cx="1572" cy="1434" r="4"/><circle cx="1611" cy="1393" r="6"/><circle cx="1754" cy="1434" r="4"/><circle cx="1780" cy="1360" r="6"/><circle cx="1889" cy="1364" r="5"/><circle cx="1989" cy="1418" r="4"/><circle cx="2005" cy="1420" r="5"/><circle cx="2093" cy="1427" r="6"/><circle cx="2179" cy="1413" r="4"/><circle cx="2262" cy="1390" r="4"/><circle cx="2372" cy="1368" r="4"/><circle cx="2413" cy="1392" r="4"/><circle cx="2500" cy="1362" r="5"/><path stroke="#fff" d="M17 5L84 1M17 5L-22 39M17 5L2 -98M17 5L41 -8M17 5L-60 -78M2577 5L2538 39M2577 5L2500 -78M17 1445L2 1342M17 1445L41 1432M17 1445L-60 1362M2577 1445L2500 1362M84 1L-22 39M84 1L41 -8M84 1L121 -77M2644 1L2538 39M84 1441L41 1432M84 1441L121 1363M174 67L254 66M174 67L153 122M174 67L209 129M174 67L189 -9M174 67L250 -4M174 1507L189 1431M174 1507L250 1436M254 66L324 9M254 66L209 129M254 66L289 159M254 66L250 -4M254 1506L250 1436M324 9L250 -4M324 9L369 -10M324 1449L250 1436M324 1449L369 1430M438 4L506 17M438 4L482 92M438 4L369 -10M438 4L411 -45M438 4L511 -54M438 1444L369 1430M438 1444L411 1395M438 1444L511 1386M506 17L482 92M506 17L511 -54M506 17L592 -59M506 1457L511 1386M506 1457L592 1381M622 74L673 71M622 74L574 113M622 74L672 104M673 71L730 62M673 71L672 104M673 71L652 173M730 62L672 104M730 62L784 131M730 62L780 -19M730 1502L780 1421M847 70L784 131M847 70L843 128M847 70L894 110M847 70L874 175M847 70L780 -19M847 1510L780 1421M936 0L979 17M936 0L907 -25M936 0L974 -20M936 1440L907 1415M936 1440L974 1420M979 17L1052 55M979 17L907 -25M979 17L974 -20M979 17L1046 -50M979 1457L907 1415M979 1457L974 1420M979 1457L1046 1390M1052 55L1133 18M1052 55L1030 139M1052 55L1108 94M1052 55L1046 -50M1052 1495L1046 1390M1133 18L1215 36M1133 18L1108 94M1133 18L1132 117M1133 18L1173 -53M1133 1458L1173 1387M1215 36L1216 88M1215 36L1302 106M1215 36L1173 -53M1215 36L1261 -54M1215 1476L1173 1387M1215 1476L1261 1386M1335 31L1408 55M1335 31L1302 106M1335 31L1297 -40M1335 31L1375 -33M1335 1471L1297 1400M1335 1471L1375 1407M1408 55L1476 75M1408 55L1420 118M1408 55L1375 -33M1408 55L1486 -14M1408 1495L1375 1407M1408 1495L1486 1426M1476 75L1529 42M1476 75L1420 118M1476 75L1481 129M1476 75L1558 104M1529 42L1558 104M1529 42L1486 -14M1529 42L1572 -6M1529 1482L1486 1426M1529 1482L1572 1434M1669 48L1754 25M1669 48L1656 100M1669 48L1611 -47M1669 48L1754 -6M1669 1488L1611 1393M1669 1488L1754 1434M1754 25L1785 7M1754 25L1757 119M1754 25L1754 -6M1754 25L1780 -80M1754 1465L1754 1434M1754 1465L1780 1360M1785 7L1888 40M1785 7L1754 -6M1785 7L1780 -80M1785 1447L1754 1434M1785 1447L1780 1360M1888 40L1926 53M1888 40L1889 -76M1888 1480L1889 1364M1926 53L2015 33M1926 53L1895 146M1926 53L1940 132M1926 53L1989 -22M1926 1493L1989 1418M2015 33L2040 138M2015 33L1989 -22M2015 33L2005 -20M2015 33L2093 -13M2015 1473L1989 1418M2015 1473L2005 1420M2015 1473L2093 1427M2142 5L2210 73M2142 5L2211 87M2142 5L2093 -13M2142 5L2179 -27M2142 1445L2093 1427M2142 1445L2179 1413M2210 73L2257 66M2210 73L2112 116M2210 73L2211 87M2210 73L2179 -27M2210 1513L2179 1413M2257 66L2211 87M2257 66L2282 153M2257 66L2296 184M2257 66L2179 -27M2257 1506L2179 1413M2382 19L2422 45M2382 19L2431 97M2382 19L2372 -72M2382 19L2413 -48M2382 1459L2372 1368M2382 1459L2413 1392M2422 45L2431 97M2422 45L2487 113M2422 45L2413 -48M2422 1485L2413 1392M2538 39L2487 113M2538 39L2601 -8M-22 39L41 -8M-22 1479L41 1432M2538 1479L2601 1432M5 153L-73 113M5 153L54 232M5 153L100 194M5 153L-33 201M2565 153L2487 113M2565 153L2527 201M153 122L209 129M153 122L100 194M153 122L173 207M209 129L289 159M209 129L173 207M289 159L373 125M289 159L316 229M289 159L347 201M373 125L416 113M373 125L347 201M373 125L374 243M416 113L482 92M416 113L501 176M482 92L574 113M482 92L501 176M574 113L501 176M574 113L630 203M574 113L652 173M672 104L630 203M672 104L652 173M784 131L843 128M784 131L745 196M784 131L874 175M843 128L894 110M843 128L745 196M843 128L874 175M894 110L874 175M1030 139L1108 94M1030 139L1132 117M1030 139L1006 186M1030 139L1105 201M1108 94L1132 117M1132 117L1216 88M1132 117L1105 201M1216 88L1302 106M1216 88L1203 174M1302 106L1283 173M1420 118L1481 129M1420 118L1411 188M1420 118L1452 193M1481 129L1411 188M1481 129L1452 193M1481 129L1525 166M1558 104L1656 100M1558 104L1525 166M1558 104L1572 -6M1558 1544L1572 1434M1656 100L1757 119M1656 100L1656 161M1757 119L1815 136M1757 119L1740 189M1757 119L1818 179M1815 136L1895 146M1815 136L1740 189M1815 136L1818 179M1895 146L1940 132M1895 146L1818 179M1895 146L1905 185M1940 132L1905 185M1940 132L1994 201M1940 132L2015 186M2040 138L2112 116M2040 138L1994 201M2040 138L2015 186M2040 138L2146 217M2112 116L2211 87M2112 116L2146 217M2211 87L2282 153M2282 153L2355 145M2282 153L2296 184M2282 153L2388 170M2355 145L2431 97M2355 145L2296 184M2355 145L2388 170M2431 97L2487 113M2431 97L2388 170M2487 113L2454 195M54 232L100 194M54 232L-33 201M54 232L50 299M54 232L-53 257M2614 232L2527 201M2614 232L2507 257M100 194L173 207M173 207L144 292M173 207L210 298M316 229L347 201M316 229L304 273M316 229L374 243M347 201L304 273M347 201L374 243M478 207L501 176M630 203L652 173M630 203L745 196M630 203L563 297M652 173L745 196M745 196L740 303M874 175L922 233M922 233L1006 186M922 233L862 279M922 233L935 285M922 233L987 271M1006 186L987 271M1006 186L1041 274M1105 201L1195 209M1105 201L1041 274M1105 201L1176 243M1195 209L1203 174M1195 209L1283 173M1195 209L1176 243M1195 209L1260 247M1203 174L1283 173M1203 174L1176 243M1283 173L1260 247M1411 188L1452 193M1411 188L1373 291M1452 193L1525 166M1452 193L1506 261M1525 166L1506 261M1525 166L1580 253M1656 161L1740 189M1656 161L1649 256M1740 189L1818 179M1740 189L1704 275M1818 179L1905 185M1905 185L1994 201M1905 185L1956 247M1994 201L2015 186M1994 201L1956 247M2015 186L1956 247M2015 186L2001 309M2146 217L2185 226M2146 217L2153 242M2146 217L2172 293M2185 226L2296 184M2185 226L2153 242M2185 226L2172 293M2185 226L2267 304M2296 184L2388 170M2388 170L2454 195M2454 195L2527 201M2454 195L2478 275M2454 195L2507 257M2527 201L2478 275M2527 201L2507 257M50 299L144 292M50 299L79 372M50 299L-26 329M2610 299L2534 329M144 292L210 298M144 292L135 380M144 292L167 349M210 298L304 273M210 298L167 349M304 273L374 243M374 243L442 318M442 318L486 315M442 318L374 371M442 318L429 363M442 318L488 330M486 315L563 297M486 315L429 363M486 315L488 330M486 315L583 379M563 297L488 330M563 297L583 379M563 297L580 412M685 317L740 303M685 317L648 376M862 279L935 285M862 279L932 339M935 285L987 271M935 285L1041 274M935 285L932 339M987 271L1041 274M987 271L932 339M1041 274L1127 326M1176 243L1260 247M1176 243L1127 326M1260 247L1323 290M1260 247L1271 342M1323 290L1373 291M1323 290L1271 342M1323 290L1383 371M1373 291L1271 342M1373 291L1347 382M1373 291L1383 371M1506 261L1580 253M1506 261L1589 325M1580 253L1649 256M1580 253L1589 325M1580 253L1609 328M1649 256L1704 275M1649 256L1589 325M1649 256L1609 328M1704 275L1783 318M1704 275L1688 390M1783 318L1858 298M1783 318L1814 368M1783 318L1860 353M1858 298L1814 368M1858 298L1860 353M1956 247L2001 309M1956 247L2000 337M2001 309L2000 337M2001 309L2014 337M2001 309L1957 402M2153 242L2172 293M2172 293L2180 379M2267 304L2363 299M2267 304L2263 388M2267 304L2345 361M2363 299L2345 361M2363 299L2436 358M2478 275L2507 257M2478 275L2436 358M2478 275L2534 329M2507 257L2534 329M79 372L135 380M79 372L167 349M79 372L-26 329M79 372L86 429M2639 372L2534 329M135 380L167 349M135 380L86 429M135 380L239 407M167 349L239 407M316 399L374 371M316 399L239 407M316 399L308 424M316 399L356 403M374 371L429 363M374 371L308 424M374 371L356 403M429 363L488 330M429 363L466 433M488 330L583 379M583 379L648 376M583 379L580 412M648 376L580 412M648 376L745 415M798 395L850 383M798 395L719 452M798 395L745 415M798 395L806 427M798 395L893 402M850 383L932 339M850 383L806 427M850 383L893 402M932 339L893 402M1014 395L1109 369M1014 395L893 402M1014 395L1009 425M1014 395L1094 467M1109 369L1127 326M1109 369L1094 467M1109 369L1144 467M1109 369L1207 424M1127 326L1207 424M1271 342L1347 382M1271 342L1207 424M1347 382L1383 371M1347 382L1354 427M1347 382L1385 436M1383 371L1354 427M1383 371L1385 436M1488 395L1479 473M1589 325L1609 328M1609 328L1688 390M1609 328L1642 416M1688 390L1592 442M1688 390L1642 416M1688 390L1699 413M1814 368L1860 353M1814 368L1850 420M1860 353L1850 420M2000 337L2014 337M2000 337L1957 402M2014 337L1957 402M2144 398L2180 379M2144 398L2058 456M2144 398L2099 452M2144 398L2214 466M2144 398L2086 483M2180 379L2263 388M2180 379L2242 464M2263 388L2345 361M2263 388L2214 466M2263 388L2242 464M2345 361L2436 358M2345 361L2434 417M2436 358L2534 329M2436 358L2434 417M37 465L86 429M37 465L30 508M37 465L-23 529M2597 465L2537 529M86 429L30 508M86 429L155 534M239 407L308 424M239 407L356 403M308 424L356 403M466 433L496 466M466 433L580 412M466 433L456 552M466 433L486 493M496 466L580 412M496 466L456 552M496 466L486 493M719 452L745 415M719 452L806 427M719 452L752 505M745 415L806 427M745 415L752 505M806 427L893 402M1009 425L1094 467M1094 467L1144 467M1094 467L1085 513M1144 467L1207 424M1144 467L1085 513M1144 467L1164 546M1207 424L1249 534M1354 427L1385 436M1354 427L1342 530M1385 436L1434 513M1479 473L1434 513M1479 473L1495 536M1592 442L1642 416M1592 442L1699 413M1592 442L1559 525M1592 442L1631 499M1642 416L1699 413M1642 416L1631 499M1699 413L1686 527M1788 473L1850 420M1788 473L1805 495M1850 420L1957 402M1850 420L1805 495M1957 402L1988 492M2058 456L2099 452M2058 456L1988 492M2058 456L2052 516M2058 456L2086 483M2099 452L2052 516M2099 452L2086 483M2214 466L2242 464M2214 466L2214 488M2214 466L2280 499M2242 464L2214 488M2242 464L2280 499M2385 470L2434 417M2385 470L2486 479M2385 470L2373 535M2385 470L2451 516M2434 417L2486 479M2434 417L2451 516M2486 479L2590 508M2486 479L2451 516M2486 479L2537 529M-74 479L30 508M30 508L-23 529M30 508L86 577M2590 508L2537 529M155 534L174 558M155 534L255 542M155 534L86 577M155 534L210 587M174 558L255 542M174 558L86 577M174 558L210 587M255 542L340 540M255 542L210 587M255 542L318 629M340 540L318 629M340 540L341 615M340 540L422 587M456 552L486 493M456 552L422 587M456 552L488 596M486 493L422 587M486 493L488 596M639 518L689 543M639 518L611 594M639 518L692 585M689 543L752 505M689 543L611 594M689 543L692 585M689 543L760 578M752 505L822 536M752 505L760 578M822 536L926 539M822 536L760 578M822 536L843 627M926 539L1002 547M926 539L911 614M926 539L1025 613M1002 547L1085 513M1002 547L1025 613M1085 513L1164 546M1164 546L1249 534M1164 546L1166 640M1249 534L1342 530M1249 534L1252 633M1249 534L1299 604M1342 530L1434 513M1342 530L1299 604M1342 530L1446 573M1434 513L1495 536M1434 513L1446 573M1495 536L1559 525M1495 536L1446 573M1495 536L1570 599M1559 525L1631 499M1559 525L1570 599M1559 525L1600 561M1631 499L1686 527M1631 499L1600 561M1686 527L1805 495M1686 527L1600 561M1686 527L1706 592M1805 495L1909 513M1805 495L1814 600M1909 513L1988 492M1909 513L1988 601M1988 492L2052 516M1988 492L2086 483M2052 516L2086 483M2052 516L2073 586M2214 488L2280 499M2214 488L2266 573M2280 499L2373 535M2280 499L2266 573M2373 535L2451 516M2373 535L2377 634M2373 535L2444 590M2451 516L2444 590M2537 529L2556 633M75 635L86 577M75 635L-4 633M75 635L77 685M75 635L159 703M2635 635L2556 633M318 629L341 615M318 629L309 652M318 629L322 711M341 615L422 587M341 615L309 652M422 587L488 596M488 596L541 680M488 596L591 657M611 594L692 585M611 594L591 657M611 594L646 661M692 585L760 578M692 585L646 661M760 578L778 671M843 627L911 614M843 627L778 671M843 627L865 674M911 614L865 674M911 614L899 716M1025 613L1091 602M1025 613L1018 669M1025 613L1073 678M1091 602L1166 640M1091 602L1018 669M1091 602L1073 678M1091 602L1125 686M1166 640L1252 633M1166 640L1125 686M1252 633L1299 604M1252 633L1273 658M1252 633L1331 683M1299 604L1273 658M1299 604L1331 683M1431 617L1446 573M1431 617L1401 692M1431 617L1459 641M1446 573L1459 641M1570 599L1600 561M1570 599L1578 668M1600 561L1578 668M1706 592L1814 600M1706 592L1702 662M1814 600L1901 640M1814 600L1830 668M1901 640L1988 601M1901 640L1830 668M1901 640L1856 712M1901 640L1981 641M1988 601L2073 586M1988 601L1981 641M2073 586L2105 604M2073 586L2160 579M2073 586L2104 653M2105 604L2160 579M2105 604L2104 653M2160 579L2266 573M2160 579L2104 653M2160 579L2226 647M2266 573L2226 647M2266 573L2261 662M2377 634L2444 590M2377 634L2261 662M2377 634L2322 663M2377 634L2462 690M2444 590L2462 690M2444 590L2485 670M2556 633L2637 685M2556 633L2462 690M2556 633L2485 670M-4 633L77 685M77 685L159 703M77 685L129 777M159 703L218 706M159 703L129 777M159 703L215 740M218 706L322 711M218 706L215 740M218 706L283 737M309 652L322 711M309 652L283 737M309 652L347 723M322 711L283 737M322 711L347 723M444 700L541 680M444 700L439 752M444 700L489 781M541 680L591 657M541 680L646 661M541 680L489 781M591 657L646 661M591 657L633 773M646 661L633 773M778 671L865 674M778 671L768 759M778 671L807 728M865 674L899 716M865 674L807 728M899 716L807 728M899 716L942 790M899 716L924 810M1018 669L1073 678M1018 669L997 763M1073 678L1125 686M1073 678L1067 776M1125 686L1149 743M1273 658L1331 683M1273 658L1276 725M1331 683L1401 692M1331 683L1276 725M1401 692L1459 641M1401 692L1414 762M1401 692L1460 751M1459 641L1578 668M1459 641L1460 751M1578 668L1663 693M1578 668L1577 739M1663 693L1702 662M1663 693L1577 739M1663 693L1670 758M1663 693L1699 748M1702 662L1699 748M1830 668L1856 712M1830 668L1840 768M1856 712L1840 768M1856 712L1862 761M1981 641L2042 706M2042 706L2104 653M2042 706L1956 754M2042 706L2071 774M2042 706L2090 745M2104 653L2090 745M2226 647L2261 662M2226 647L2322 663M2226 647L2304 752M2261 662L2322 663M2261 662L2304 752M2322 663L2304 752M2322 663L2372 762M2462 690L2485 670M2462 690L2456 769M18 781L-27 789M18 781L27 811M18 781L-20 825M18 781L39 888M2578 781L2533 789M2578 781L2540 825M129 777L215 740M129 777L85 867M129 777L167 834M215 740L283 737M215 740L167 834M283 737L347 723M347 723L439 752M347 723L346 823M439 752L489 781M439 752L346 823M489 781L476 862M633 773L669 779M633 773L616 804M633 773L688 813M669 779L768 759M669 779L616 804M669 779L688 813M669 779L749 859M768 759L807 728M768 759L688 813M768 759L842 821M807 728L842 821M942 790L997 763M942 790L924 810M942 790L1030 830M997 763L1067 776M997 763L924 810M997 763L1030 830M1067 776L1149 743M1067 776L1030 830M1067 776L1053 857M1149 743L1184 839M1276 725L1348 781M1276 725L1248 810M1348 781L1414 762M1348 781L1301 857M1348 781L1392 833M1414 762L1460 751M1414 762L1392 833M1414 762L1458 811M1460 751L1458 811M1577 739L1670 758M1577 739L1628 811M1670 758L1699 748M1670 758L1628 811M1670 758L1691 836M1699 748L1691 836M1840 768L1862 761M1840 768L1893 822M1840 768L1930 817M1862 761L1956 754M1862 761L1893 822M1862 761L1930 817M1956 754L1893 822M1956 754L1930 817M1956 754L2017 813M2071 774L2090 745M2071 774L2017 813M2071 774L2113 852M2071 774L2170 814M2090 745L2017 813M2090 745L2170 814M2218 769L2304 752M2218 769L2170 814M2304 752L2372 762M2372 762L2456 769M2372 762L2394 867M2456 769L2533 789M2456 769L2465 842M2533 789L2587 811M2533 789L2465 842M2533 789L2540 825M-27 789L27 811M27 811L85 867M27 811L-20 825M27 811L39 888M2587 811L2540 825M85 867L167 834M85 867L39 888M85 867L123 897M167 834L123 897M313 845L346 823M313 845L313 935M313 845L385 887M346 823L385 887M476 862L549 871M476 862L385 887M476 862L474 923M476 862L509 942M549 871L616 804M549 871L474 923M549 871L509 942M549 871L635 933M616 804L688 813M616 804L635 933M688 813L749 859M749 859L842 821M749 859L735 893M842 821L924 810M842 821L868 901M924 810L1030 830M1030 830L1053 857M1053 857L1039 939M1053 857L1070 937M1184 839L1248 810M1184 839L1162 919M1248 810L1301 857M1248 810L1287 888M1301 857L1392 833M1301 857L1247 931M1301 857L1287 888M1392 833L1458 811M1392 833L1423 885M1458 811L1540 870M1458 811L1423 885M1540 870L1628 811M1540 870L1600 885M1540 870L1577 985M1628 811L1691 836M1628 811L1600 885M1691 836L1688 892M1805 875L1893 822M1805 875L1827 939M1805 875L1851 963M1893 822L1930 817M1930 817L2017 813M2017 813L2113 852M2113 852L2170 814M2113 852L2119 888M2170 814L2119 888M2277 875L2304 946M2277 875L2356 898M2277 875L2261 970M2394 867L2465 842M2394 867L2356 898M2394 867L2433 929M2394 867L2498 895M2465 842L2540 825M2465 842L2498 895M2540 825L2498 895M39 888L123 897M39 888L-62 895M2599 888L2498 895M123 897L206 956M123 897L132 980M206 956L313 935M206 956L132 980M206 956L218 980M206 956L275 1018M313 935L385 887M313 935L275 1018M313 935L375 1002M474 923L509 942M474 923L472 983M474 923L483 996M509 942L472 983M509 942L483 996M635 933L660 957M635 933L735 893M635 933L592 1024M660 957L735 893M660 957L592 1024M660 957L706 1025M735 893L791 995M868 901L911 934M868 901L874 983M868 901L944 962M911 934L874 983M911 934L944 962M1039 939L1070 937M1039 939L944 962M1039 939L1029 1005M1039 939L1085 999M1070 937L1162 919M1070 937L1029 1005M1070 937L1085 999M1162 919L1247 931M1162 919L1155 984M1247 931L1287 888M1247 931L1252 1017M1423 885L1454 946M1423 885L1359 975M1423 885L1442 969M1454 946L1359 975M1454 946L1437 1006M1454 946L1442 969M1600 885L1688 892M1600 885L1577 985M1675 952L1688 892M1675 952L1577 985M1675 952L1646 972M1675 952L1705 989M1675 952L1662 1041M1688 892L1646 972M1688 892L1705 989M1827 939L1891 952M1827 939L1820 986M1827 939L1851 963M1891 952L1987 930M1891 952L1820 986M1891 952L1851 963M1891 952L1974 993M1987 930L2002 948M1987 930L1974 993M2002 948L1974 993M2002 948L2064 1012M2002 948L2095 1018M2002 948L1965 1055M2119 888L2177 953M2177 953L2223 997M2177 953L2261 970M2177 953L2165 1045M2304 946L2356 898M2304 946L2223 997M2304 946L2261 970M2304 946L2381 992M2356 898L2433 929M2356 898L2381 992M2433 929L2498 895M2433 929L2381 992M2433 929L2439 1034M17 1039L132 980M17 1039L-13 1001M17 1039L69 1096M17 1039L120 1111M17 1039L-33 1116M2577 1039L2547 1001M2577 1039L2527 1116M132 980L218 980M218 980L275 1018M218 980L264 1055M275 1018L375 1002M275 1018L264 1055M375 1002L472 983M375 1002L483 996M375 1002L396 1075M472 983L483 996M472 983L396 1075M483 996L592 1024M592 1024L537 1112M592 1024L600 1101M706 1025L791 995M706 1025L687 1102M706 1025L774 1040M791 995L874 983M791 995L774 1040M791 995L853 1048M874 983L944 962M874 983L853 1048M1029 1005L1085 999M1029 1005L987 1096M1029 1005L1105 1067M1085 999L1155 984M1085 999L1105 1067M1155 984L1252 1017M1155 984L1105 1067M1155 984L1179 1070M1252 1017L1359 975M1252 1017L1179 1070M1252 1017L1269 1087M1359 975L1437 1006M1359 975L1442 969M1437 1006L1442 969M1437 1006L1356 1086M1437 1006L1470 1097M1577 985L1646 972M1577 985L1662 1041M1646 972L1705 989M1646 972L1662 1041M1705 989L1820 986M1705 989L1662 1041M1820 986L1851 963M1820 986L1817 1091M1974 993L2064 1012M1974 993L1965 1055M2064 1012L2095 1018M2064 1012L2080 1063M2095 1018L2074 1115M2095 1018L2080 1063M2095 1018L2165 1045M2223 997L2261 970M2223 997L2165 1045M2223 997L2304 1080M2261 970L2304 1080M2381 992L2439 1034M2381 992L2351 1090M2439 1034L2351 1090M2439 1034L2473 1114M69 1096L120 1111M69 1096L-33 1116M2629 1096L2527 1116M120 1111L225 1119M120 1111L54 1195M120 1111L147 1196M225 1119L264 1055M225 1119L231 1175M225 1119L248 1136M264 1055L248 1136M264 1055L338 1134M396 1075L432 1101M396 1075L338 1134M396 1075L430 1173M432 1101L537 1112M432 1101L338 1134M432 1101L430 1173M432 1101L541 1138M537 1112L600 1101M537 1112L541 1138M600 1101L687 1102M600 1101L541 1138M600 1101L613 1195M687 1102L774 1040M687 1102L697 1165M687 1102L767 1123M774 1040L853 1048M774 1040L767 1123M853 1048L927 1115M853 1048L767 1123M927 1115L987 1096M927 1115L927 1148M987 1096L927 1148M987 1096L1018 1188M987 1096L1056 1147M1105 1067L1179 1070M1105 1067L1056 1147M1179 1070L1269 1087M1179 1070L1197 1145M1269 1087L1361 1112M1269 1087L1262 1162M1269 1087L1298 1162M1356 1086L1361 1112M1356 1086L1470 1097M1361 1112L1298 1162M1361 1112L1367 1187M1361 1112L1340 1218M1470 1097L1554 1096M1470 1097L1496 1155M1470 1097L1449 1208M1554 1096L1496 1155M1554 1096L1577 1184M1662 1041L1741 1106M1741 1106L1817 1091M1741 1106L1658 1181M1741 1106L1721 1136M1817 1091L1910 1093M1817 1091L1721 1136M1910 1093L1965 1055M1910 1093L1919 1193M1910 1093L1993 1153M1965 1055L1993 1153M2074 1115L2080 1063M2074 1115L1993 1153M2074 1115L2072 1180M2074 1115L2098 1147M2080 1063L2165 1045M2080 1063L2098 1147M2304 1080L2351 1090M2304 1080L2247 1165M2351 1090L2386 1136M2473 1114L2527 1116M2473 1114L2386 1136M2473 1114L2449 1159M2473 1114L2523 1168M2527 1116L2449 1159M2527 1116L2523 1168M54 1195L147 1196M54 1195L-37 1168M54 1195L34 1271M54 1195L103 1258M2614 1195L2523 1168M147 1196L231 1175M147 1196L103 1258M147 1196L173 1259M231 1175L248 1136M231 1175L173 1259M231 1175L303 1270M248 1136L338 1134M430 1173L365 1243M430 1173L402 1245M430 1173L485 1253M613 1195L697 1165M613 1195L589 1246M613 1195L634 1283M697 1165L767 1123M697 1165L680 1262M697 1165L727 1254M767 1123L823 1188M823 1188L927 1148M823 1188L818 1275M823 1188L847 1282M927 1148L1018 1188M1018 1188L1056 1147M1018 1188L1000 1230M1018 1188L1060 1277M1056 1147L1000 1230M1197 1145L1262 1162M1197 1145L1149 1233M1197 1145L1202 1226M1262 1162L1298 1162M1262 1162L1202 1226M1262 1162L1340 1218M1298 1162L1367 1187M1298 1162L1340 1218M1367 1187L1340 1218M1367 1187L1389 1253M1367 1187L1449 1208M1496 1155L1577 1184M1496 1155L1449 1208M1496 1155L1598 1231M1577 1184L1658 1181M1577 1184L1598 1231M1658 1181L1721 1136M1658 1181L1598 1231M1658 1181L1665 1253M1721 1136L1746 1242M1834 1199L1919 1193M1834 1199L1746 1242M1834 1199L1805 1238M1834 1199L1861 1259M1834 1199L1856 1287M1919 1193L1993 1153M1993 1153L2072 1180M2072 1180L2098 1147M2072 1180L2012 1256M2072 1180L2039 1280M2098 1147L2216 1166M2216 1166L2247 1165M2216 1166L2147 1275M2216 1166L2223 1251M2216 1166L2293 1213M2247 1165L2223 1251M2247 1165L2293 1213M2386 1136L2449 1159M2386 1136L2389 1216M2386 1136L2415 1224M2449 1159L2523 1168M2449 1159L2415 1224M2523 1168L2493 1240M34 1271L103 1258M34 1271L-67 1240M34 1271L2 1342M34 1271L-22 1301M2594 1271L2493 1240M2594 1271L2538 1301M103 1258L173 1259M103 1258L165 1314M173 1259L126 1338M173 1259L165 1314M303 1270L365 1243M303 1270L402 1245M303 1270L245 1337M303 1270L340 1337M365 1243L402 1245M365 1243L429 1295M402 1245L485 1253M402 1245L429 1295M485 1253L589 1246M485 1253L429 1295M485 1253L522 1298M589 1246L680 1262M589 1246L522 1298M589 1246L634 1283M680 1262L727 1254M680 1262L634 1283M680 1262L698 1321M727 1254L818 1275M727 1254L698 1321M727 1254L771 1316M818 1275L771 1316M818 1275L847 1282M818 1275L813 1372M959 1280L1000 1230M959 1280L1060 1277M959 1280L936 1312M959 1280L1016 1348M1000 1230L1060 1277M1000 1230L936 1312M1060 1277L1016 1348M1060 1277L1106 1281M1149 1233L1202 1226M1149 1233L1106 1281M1149 1233L1178 1289M1202 1226L1178 1289M1202 1226L1240 1317M1340 1218L1389 1253M1389 1253L1449 1208M1389 1253L1405 1312M1449 1208L1405 1312M1598 1231L1665 1253M1598 1231L1619 1286M1665 1253L1746 1242M1665 1253L1619 1286M1665 1253L1709 1334M1746 1242L1805 1238M1746 1242L1774 1293M1805 1238L1861 1259M1805 1238L1774 1293M1805 1238L1856 1287M1861 1259L1949 1276M1861 1259L1856 1287M1861 1259L1930 1307M1949 1276L2012 1256M1949 1276L1930 1307M1949 1276L2039 1280M2012 1256L1930 1307M2012 1256L2039 1280M2012 1256L2098 1318M2147 1275L2223 1251M2147 1275L2039 1280M2147 1275L2098 1318M2147 1275L2223 1328M2223 1251L2293 1213M2223 1251L2223 1328M2293 1213L2389 1216M2293 1213L2292 1317M2389 1216L2415 1224M2389 1216L2493 1240M2415 1224L2493 1240M2415 1224L2411 1341M2493 1240L2538 1301M2 1342L-22 1301M2 1342L41 1432M2 1342L-60 1362M2562 1342L2538 1301M2562 1342L2500 1362M126 1338L165 1314M126 1338L121 1363M126 1338L189 1431M165 1314L245 1337M165 1314L121 1363M245 1337L340 1337M245 1337L189 1431M245 1337L250 1436M340 1337L369 1430M340 1337L411 1395M429 1295L522 1298M429 1295L411 1395M522 1298L511 1386M522 1298L592 1381M634 1283L698 1321M634 1283L668 1389M698 1321L771 1316M698 1321L668 1389M771 1316L847 1282M771 1316L813 1372M847 1282L936 1312M847 1282L813 1372M936 1312L1016 1348M936 1312L907 1415M1016 1348L974 1420M1016 1348L1046 1390M1106 1281L1178 1289M1106 1281L1046 1390M1178 1289L1240 1317M1178 1289L1173 1387M1240 1317L1283 1334M1240 1317L1173 1387M1240 1317L1261 1386M1283 1334L1261 1386M1283 1334L1297 1400M1283 1334L1375 1407M1405 1312L1510 1325M1405 1312L1375 1407M1510 1325L1533 1352M1510 1325L1619 1286M1510 1325L1486 1426M1510 1325L1611 1393M1533 1352L1619 1286M1533 1352L1486 1426M1533 1352L1572 1434M1533 1352L1611 1393M1619 1286L1611 1393M1709 1334L1774 1293M1709 1334L1754 1434M1709 1334L1780 1360M1774 1293L1780 1360M1856 1287L1930 1307M1856 1287L1889 1364M1930 1307L1889 1364M2039 1280L2098 1318M2098 1318L2093 1427M2223 1328L2292 1317M2223 1328L2326 1325M2223 1328L2262 1390M2292 1317L2326 1325M2292 1317L2262 1390M2292 1317L2372 1368M2326 1325L2411 1341M2326 1325L2262 1390M2326 1325L2372 1368M2411 1341L2372 1368M2411 1341L2413 1392M2411 1341L2500 1362M2538 1301L2500 1362M41 1432L121 1363M121 1363L189 1431M189 1431L250 1436M369 1430L411 1395M411 1395L511 1386M511 1386L592 1381M592 1381L668 1389M668 1389L780 1421M780 1421L813 1372M813 1372L907 1415M907 1415L974 1420M974 1420L1046 1390M1173 1387L1261 1386M1261 1386L1297 1400M1297 1400L1375 1407M1486 1426L1572 1434M1572 1434L1611 1393M1754 1434L1780 1360M1889 1364L1989 1418M1889 1364L2005 1420M1989 1418L2005 1420M2005 1420L2093 1427M2093 1427L2179 1413M2179 1413L2262 1390M2372 1368L2413 1392M2413 1392L2500 1362"/></svg>