<svg xmlns="http://www.w3.org/2000/svg" width="2560" height="1440" fill="#fff"><circle cx="45" cy="16" r="5"/><circle cx="149" cy="4" r="5"/><circle cx="149" cy="1444" r="5"/><circle cx="188" cy="77" r="4"/><circle cx="273" cy="56" r="6"/><circle cx="367" cy="41" r="5"/><circle cx="404" cy="15" r="5"/><circle cx="502" cy="37" r="6"/><circle cx="596" cy="1" r="4"/><circle cx="596" cy="1441" r="4"/><circle cx="699" cy="73" r="5"/><circle cx="769" cy="51" r="4"/><circle cx="858" cy="29" r="4"/><circle cx="919" cy="2" r="5"/><circle cx="919" cy="1442" r="5"/><circle cx="975" cy="2" r="5"/><circle cx="975" cy="1442" r="5"/><circle cx="1060" cy="76" r="5"/><circle cx="1147" cy="59" r="5"/><circle cx="1222" cy="15" r="5"/><circle cx="1301" cy="8" r="4"/><circle cx="1363" cy="52" r="4"/><circle cx="1442" cy="52" r="5"/><circle cx="1553" cy="2" r="5"/><circle cx="1553" cy="1442" r="5"/><circle cx="1613" cy="63" r="6"/><circle cx="1701" cy="55" r="4"/><circle cx="1766" cy="48" r="6"/><circle cx="1904" cy="62" r="6"/><circle cx="1982" cy="45" r="5"/><circle cx="2013" cy="46" r="5"/><circle cx="2128" cy="16" r="4"/><circle cx="2216" cy="47" r="5"/><circle cx="2292" cy="15" r="6"/><circle cx="2390" cy="22" r="5"/><circle cx="2457" cy="1" r="5"/><circle cx="2457" cy="1441" r="5"/><circle cx="2531" cy="73" r="4"/><circle cx="55" cy="85" r="5"/><circle cx="89" cy="91" r="5"/><circle cx="200" cy="83" r="4"/><circle cx="255" cy="107" r="5"/><circle cx="391" cy="135" r="5"/><circle cx="452" cy="89" r="4"/><circle cx="541" cy="97" r="5"/><circle cx="593" cy="88" r="5"/><circle cx="669" cy="126" r="6"/><circle cx="775" cy="150" r="6"/><circle cx="878" cy="85" r="6"/><circle cx="915" cy="92" r="5"/><circle cx="1008" cy="105" r="6"/><circle cx="1076" cy="101" r="5"/><circle cx="1189" cy="147" r="5"/><circle cx="1245" cy="98" r="5"/><circle cx="1346" cy="155" r="6"/><circle cx="1390" cy="158" r="4"/><circle cx="1508" cy="94" r="5"/><circle cx="1571" cy="157" r="5"/><circle cx="1670" cy="122" r="5"/><circle cx="1701" cy="84" r="5"/><circle cx="1775" cy="97" r="5"/><circle cx="1895" cy="122" r="4"/><circle cx="1929" cy="139" r="5"/><circle cx="2013" cy="92" r="5"/><circle cx="2153" cy="110" r="4"/><circle cx="2170" cy="90" r="5"/><circle cx="2242" cy="100" r="6"/><circle cx="2352" cy="157" r="6"/><circle cx="2465" cy="152" r="5"/><circle cx="2529" cy="118" r="6"/><circle cx="1" cy="230" r="5"/><circle cx="2561" cy="230" r="5"/><circle cx="105" cy="178" r="4"/><circle cx="161" cy="197" r="5"/><circle cx="295" cy="172" r="6"/><circle cx="369" cy="171" r="5"/><circle cx="436" cy="189" r="4"/><circle cx="542" cy="171" r="4"/><circle cx="576" cy="176" r="4"/><circle cx="666" cy="181" r="6"/><circle cx="799" cy="234" r="6"/><circle cx="817" cy="216" r="5"/><circle cx="915" cy="209" r="4"/><circle cx="1032" cy="227" r="6"/><circle cx="1100" cy="199" r="5"/><circle cx="1197" cy="203" r="6"/><circle cx="1264" cy="204" r="5"/><circle cx="1309" cy="208" r="5"/><circle cx="1427" cy="160" r="6"/><circle cx="1486" cy="228" r="6"/><circle cx="1544" cy="209" r="5"/><circle cx="1632" cy="171" r="4"/><circle cx="1712" cy="223" r="5"/><circle cx="1776" cy="222" r="4"/><circle cx="1873" cy="215" r="6"/><circle cx="1986" cy="162" r="4"/><circle cx="2056" cy="187" r="4"/><circle cx="2094" cy="225" r="6"/><circle cx="2200" cy="213" r="6"/><circle cx="2317" cy="233" r="6"/><circle cx="2356" cy="215" r="5"/><circle cx="2457" cy="176" r="5"/><circle cx="2526" cy="218" r="5"/><circle cx="22" cy="257" r="5"/><circle cx="147" cy="278" r="6"/><circle cx="194" cy="298" r="5"/><circle cx="279" cy="262" r="4"/><circle cx="368" cy="257" r="5"/><circle cx="437" cy="242" r="5"/><circle cx="545" cy="296" r="6"/><circle cx="636" cy="284" r="4"/><circle cx="664" cy="315" r="6"/><circle cx="739" cy="273" r="5"/><circle cx="878" cy="278" r="5"/><circle cx="959" cy="247" r="5"/><circle cx="1011" cy="271" r="5"/><circle cx="1086" cy="282" r="5"/><circle cx="1176" cy="249" r="4"/><circle cx="1245" cy="305" r="4"/><circle cx="1301" cy="308" r="4"/><circle cx="1432" cy="273" r="5"/><circle cx="1466" cy="253" r="6"/><circle cx="1592" cy="265" r="5"/><circle cx="1658" cy="264" r="5"/><circle cx="1734" cy="265" r="6"/><circle cx="1771" cy="292" r="5"/><circle cx="1855" cy="259" r="6"/><circle cx="1967" cy="267" r="6"/><circle cx="2076" cy="261" r="5"/><circle cx="2145" cy="243" r="4"/><circle cx="2163" cy="257" r="5"/><circle cx="2316" cy="305" r="5"/><circle cx="2376" cy="309" r="6"/><circle cx="2436" cy="307" r="5"/><circle cx="2527" cy="262" r="6"/><circle cx="5" cy="374" r="4"/><circle cx="81" cy="355" r="5"/><circle cx="180" cy="326" r="6"/><circle cx="243" cy="339" r="5"/><circle cx="361" cy="339" r="4"/><circle cx="417" cy="394" r="5"/><circle cx="555" cy="332" r="4"/><circle cx="611" cy="344" r="4"/><circle cx="674" cy="350" r="6"/><circle cx="759" cy="390" r="6"/><circle cx="832" cy="389" r="5"/><circle cx="910" cy="324" r="4"/><circle cx="975" cy="344" r="5"/><circle cx="1103" cy="326" r="4"/><circle cx="1192" cy="334" r="4"/><circle cx="1240" cy="367" r="5"/><circle cx="1343" cy="349" r="5"/><circle cx="1376" cy="353" r="4"/><circle cx="1513" cy="354" r="5"/><circle cx="1524" cy="345" r="6"/><circle cx="1665" cy="382" r="5"/><circle cx="1744" cy="358" r="5"/><circle cx="1777" cy="350" r="6"/><circle cx="1858" cy="386" r="5"/><circle cx="1927" cy="322" r="4"/><circle cx="2043" cy="347" r="5"/><circle cx="2092" cy="348" r="4"/><circle cx="2231" cy="370" r="4"/><circle cx="2284" cy="371" r="5"/><circle cx="2367" cy="350" r="4"/><circle cx="2477" cy="345" r="4"/><circle cx="2555" cy="398" r="6"/><circle cx="-5" cy="398" r="6"/><circle cx="28" cy="414" r="5"/><circle cx="147" cy="473" r="5"/><circle cx="205" cy="446" r="6"/><circle cx="265" cy="469" r="5"/><circle cx="342" cy="409" r="6"/><circle cx="473" cy="432" r="5"/><circle cx="499" cy="415" r="5"/><circle cx="605" cy="421" r="4"/><circle cx="708" cy="455" r="5"/><circle cx="736" cy="426" r="4"/><circle cx="867" cy="406" r="5"/><circle cx="892" cy="450" r="6"/><circle cx="995" cy="474" r="4"/><circle cx="1079" cy="428" r="5"/><circle cx="1155" cy="432" r="6"/><circle cx="1274" cy="435" r="4"/><circle cx="1312" cy="453" r="4"/><circle cx="1387" cy="418" r="5"/><circle cx="1511" cy="474" r="6"/><circle cx="1570" cy="446" r="4"/><circle cx="1635" cy="477" r="5"/><circle cx="1707" cy="426" r="6"/><circle cx="1770" cy="434" r="5"/><circle cx="1904" cy="436" r="4"/><circle cx="1953" cy="471" r="6"/><circle cx="2072" cy="459" r="5"/><circle cx="2151" cy="429" r="5"/><circle cx="2231" cy="462" r="4"/><circle cx="2292" cy="479" r="5"/><circle cx="2373" cy="462" r="5"/><circle cx="2400" cy="461" r="6"/><circle cx="2480" cy="410" r="5"/><circle cx="70" cy="525" r="5"/><circle cx="147" cy="528" r="5"/><circle cx="170" cy="483" r="5"/><circle cx="244" cy="556" r="5"/><circle cx="388" cy="526" r="5"/><circle cx="416" cy="499" r="6"/><circle cx="521" cy="554" r="5"/><circle cx="581" cy="500" r="5"/><circle cx="684" cy="551" r="5"/><circle cx="784" cy="540" r="4"/><circle cx="865" cy="551" r="5"/><circle cx="880" cy="516" r="5"/><circle cx="1023" cy="482" r="6"/><circle cx="1049" cy="559" r="4"/><circle cx="1143" cy="532" r="5"/><circle cx="1208" cy="522" r="5"/><circle cx="1306" cy="529" r="5"/><circle cx="1394" cy="500" r="6"/><circle cx="1513" cy="505" r="6"/><circle cx="1592" cy="497" r="5"/><circle cx="1649" cy="552" r="5"/><circle cx="1740" cy="487" r="5"/><circle cx="1807" cy="536" r="5"/><circle cx="1887" cy="542" r="6"/><circle cx="1960" cy="505" r="5"/><circle cx="2044" cy="552" r="6"/><circle cx="2095" cy="541" r="5"/><circle cx="2219" cy="547" r="6"/><circle cx="2298" cy="492" r="6"/><circle cx="2328" cy="543" r="5"/><circle cx="2465" cy="536" r="6"/><circle cx="2525" cy="545" r="4"/><circle cx="27" cy="587" r="5"/><circle cx="93" cy="579" r="5"/><circle cx="207" cy="596" r="4"/><circle cx="271" cy="609" r="4"/><circle cx="400" cy="618" r="5"/><circle cx="417" cy="618" r="5"/><circle cx="486" cy="605" r="5"/><circle cx="631" cy="561" r="5"/><circle cx="687" cy="571" r="5"/><circle cx="729" cy="631" r="5"/><circle cx="842" cy="587" r="5"/><circle cx="888" cy="615" r="4"/><circle cx="997" cy="617" r="4"/><circle cx="1108" cy="594" r="5"/><circle cx="1180" cy="574" r="4"/><circle cx="1237" cy="607" r="6"/><circle cx="1285" cy="595" r="4"/><circle cx="1388" cy="594" r="5"/><circle cx="1471" cy="638" r="5"/><circle cx="1531" cy="612" r="5"/><circle cx="1627" cy="576" r="5"/><circle cx="1738" cy="592" r="5"/><circle cx="1828" cy="565" r="6"/><circle cx="1842" cy="611" r="5"/><circle cx="1948" cy="597" r="6"/><circle cx="2070" cy="596" r="5"/><circle cx="2112" cy="607" r="5"/><circle cx="2186" cy="587" r="5"/><circle cx="2304" cy="562" r="4"/><circle cx="2367" cy="574" r="4"/><circle cx="2455" cy="580" r="4"/><circle cx="2523" cy="565" r="4"/><circle cx="31" cy="649" r="5"/><circle cx="129" cy="703" r="4"/><circle cx="216" cy="647" r="6"/><circle cx="297" cy="708" r="5"/><circle cx="345" cy="715" r="5"/><circle cx="454" cy="696" r="6"/><circle cx="545" cy="671" r="6"/><circle cx="626" cy="674" r="6"/><circle cx="642" cy="668" r="5"/><circle cx="737" cy="696" r="4"/><circle cx="874" cy="680" r="4"/><circle cx="910" cy="652" r="5"/><circle cx="1035" cy="652" r="5"/><circle cx="1088" cy="651" r="4"/><circle cx="1176" cy="705" r="6"/><circle cx="1249" cy="696" r="6"/><circle cx="1309" cy="704" r="5"/><circle cx="1376" cy="701" r="5"/><circle cx="1471" cy="643" r="6"/><circle cx="1566" cy="648" r="5"/><circle cx="1624" cy="679" r="4"/><circle cx="1709" cy="696" r="5"/><circle cx="1808" cy="645" r="5"/><circle cx="1898" cy="641" r="5"/><circle cx="1987" cy="648" r="6"/><circle cx="2018" cy="641" r="4"/><circle cx="2096" cy="644" r="4"/><circle cx="2173" cy="660" r="6"/><circle cx="2315" cy="690" r="6"/><circle cx="2360" cy="716" r="5"/><circle cx="2405" cy="640" r="5"/><circle cx="2487" cy="653" r="4"/><circle cx="53" cy="756" r="4"/><circle cx="117" cy="749" r="5"/><circle cx="207" cy="762" r="6"/><circle cx="312" cy="793" r="4"/><circle cx="395" cy="740" r="6"/><circle cx="420" cy="786" r="6"/><circle cx="517" cy="742" r="5"/><circle cx="615" cy="757" r="4"/><circle cx="661" cy="797" r="5"/><circle cx="755" cy="747" r="5"/><circle cx="848" cy="733" r="5"/><circle cx="954" cy="727" r="4"/><circle cx="976" cy="725" r="5"/><circle cx="1071" cy="757" r="5"/><circle cx="1178" cy="744" r="6"/><circle cx="1200" cy="727" r="4"/><circle cx="1355" cy="751" r="6"/><circle cx="1419" cy="768" r="5"/><circle cx="1441" cy="730" r="5"/><circle cx="1593" cy="726" r="4"/><circle cx="1629" cy="740" r="5"/><circle cx="1690" cy="735" r="5"/><circle cx="1774" cy="796" r="4"/><circle cx="1851" cy="751" r="6"/><circle cx="1984" cy="744" r="5"/><circle cx="2067" cy="733" r="5"/><circle cx="2082" cy="756" r="4"/><circle cx="2230" cy="760" r="5"/><circle cx="2288" cy="747" r="5"/><circle cx="2370" cy="770" r="5"/><circle cx="2405" cy="746" r="6"/><circle cx="2522" cy="769" r="4"/><circle cx="67" cy="851" r="4"/><circle cx="160" cy="816" r="4"/><circle cx="170" cy="852" r="4"/><circle cx="272" cy="863" r="6"/><circle cx="384" cy="810" r="4"/><circle cx="477" cy="829" r="6"/><circle cx="536" cy="825" r="5"/><circle cx="633" cy="804" r="5"/><circle cx="681" cy="835" r="4"/><circle cx="766" cy="801" r="6"/><circle cx="830" cy="877" r="6"/><circle cx="955" cy="815" r="4"/><circle cx="984" cy="834" r="4"/><circle cx="1112" cy="864" r="5"/><circle cx="1148" cy="831" r="4"/><circle cx="1210" cy="816" r="5"/><circle cx="1342" cy="873" r="5"/><circle cx="1374" cy="876" r="6"/><circle cx="1485" cy="877" r="5"/><circle cx="1560" cy="854" r="6"/><circle cx="1663" cy="820" r="5"/><circle cx="1723" cy="859" r="5"/><circle cx="1791" cy="833" r="5"/><circle cx="1916" cy="841" r="4"/><circle cx="1930" cy="847" r="6"/><circle cx="2040" cy="854" r="5"/><circle cx="2080" cy="811" r="6"/><circle cx="2162" cy="861" r="5"/><circle cx="2246" cy="857" r="5"/><circle cx="2365" cy="834" r="5"/><circle cx="2456" cy="857" r="5"/><circle cx="2490" cy="805" r="5"/><circle cx="45" cy="906" r="6"/><circle cx="142" cy="942" r="5"/><circle cx="196" cy="920" r="4"/><circle cx="318" cy="935" r="6"/><circle cx="374" cy="940" r="5"/><circle cx="447" cy="895" r="5"/><circle cx="525" cy="909" r="6"/><circle cx="575" cy="938" r="5"/><circle cx="672" cy="941" r="6"/><circle cx="756" cy="882" r="5"/><circle cx="827" cy="920" r="6"/><circle cx="919" cy="952" r="4"/><circle cx="1020" cy="919" r="6"/><circle cx="1043" cy="891" r="5"/><circle cx="1126" cy="951" r="5"/><circle cx="1259" cy="892" r="5"/><circle cx="1354" cy="942" r="4"/><circle cx="1429" cy="903" r="5"/><circle cx="1480" cy="919" r="6"/><circle cx="1582" cy="945" r="5"/><circle cx="1640" cy="942" r="4"/><circle cx="1724" cy="888" r="5"/><circle cx="1825" cy="916" r="6"/><circle cx="1905" cy="934" r="4"/><circle cx="1991" cy="886" r="6"/><circle cx="2054" cy="911" r="5"/><circle cx="2101" cy="921" r="5"/><circle cx="2199" cy="894" r="6"/><circle cx="2242" cy="890" r="5"/><circle cx="2400" cy="923" r="5"/><circle cx="2471" cy="955" r="4"/><circle cx="2551" cy="894" r="5"/><circle cx="57" cy="1015" r="6"/><circle cx="153" cy="1035" r="4"/><circle cx="231" cy="971" r="5"/><circle cx="260" cy="1011" r="5"/><circle cx="363" cy="1019" r="5"/><circle cx="405" cy="1031" r="6"/><circle cx="535" cy="985" r="5"/><circle cx="574" cy="960" r="4"/><circle cx="697" cy="989" r="5"/><circle cx="800" cy="989" r="4"/><circle cx="801" cy="1024" r="5"/><circle cx="954" cy="1011" r="5"/><circle cx="1008" cy="974" r="4"/><circle cx="1044" cy="1034" r="5"/><circle cx="1163" cy="1001" r="4"/><circle cx="1207" cy="1018" r="4"/><circle cx="1316" cy="985" r="5"/><circle cx="1400" cy="982" r="6"/><circle cx="1483" cy="996" r="5"/><circle cx="1557" cy="971" r="4"/><circle cx="1617" cy="1002" r="4"/><circle cx="1709" cy="1002" r="5"/><circle cx="1819" cy="963" r="6"/><circle cx="1888" cy="982" r="4"/><circle cx="1948" cy="987" r="6"/><circle cx="2010" cy="971" r="5"/><circle cx="2094" cy="1032" r="5"/><circle cx="2239" cy="996" r="4"/><circle cx="2240" cy="965" r="5"/><circle cx="2357" cy="980" r="4"/><circle cx="2415" cy="1004" r="4"/><circle cx="2509" cy="986" r="5"/><circle cx="14" cy="1074" r="5"/><circle cx="156" cy="1055" r="6"/><circle cx="239" cy="1059" r="4"/><circle cx="253" cy="1041" r="5"/><circle cx="373" cy="1063" r="4"/><circle cx="435" cy="1101" r="5"/><circle cx="531" cy="1061" r="5"/><circle cx="582" cy="1064" r="5"/><circle cx="695" cy="1070" r="5"/><circle cx="776" cy="1066" r="6"/><circle cx="867" cy="1101" r="5"/><circle cx="882" cy="1114" r="5"/><circle cx="962" cy="1106" r="5"/><circle cx="1110" cy="1041" r="6"/><circle cx="1173" cy="1072" r="4"/><circle cx="1255" cy="1070" r="5"/><circle cx="1290" cy="1071" r="4"/><circle cx="1439" cy="1074" r="6"/><circle cx="1457" cy="1066" r="4"/><circle cx="1566" cy="1057" r="4"/><circle cx="1639" cy="1087" r="5"/><circle cx="1753" cy="1040" r="5"/><circle cx="1797" cy="1077" r="6"/><circle cx="1902" cy="1094" r="5"/><circle cx="1943" cy="1082" r="6"/><circle cx="2052" cy="1047" r="5"/><circle cx="2124" cy="1057" r="6"/><circle cx="2188" cy="1119" r="5"/><circle cx="2311" cy="1051" r="5"/><circle cx="2399" cy="1106" r="5"/><circle cx="2433" cy="1071" r="6"/><circle cx="2537" cy="1066" r="6"/><circle cx="67" cy="1154" r="6"/><circle cx="143" cy="1193" r="4"/><circle cx="186" cy="1192" r="4"/><circle cx="251" cy="1193" r="5"/><circle cx="375" cy="1149" r="6"/><circle cx="434" cy="1150" r="4"/><circle cx="523" cy="1186" r="5"/><circle cx="561" cy="1127" r="5"/><circle cx="650" cy="1132" r="6"/><circle cx="754" cy="1188" r="4"/><circle cx="808" cy="1150" r="5"/><circle cx="910" cy="1175" r="4"/><circle cx="1005" cy="1195" r="4"/><circle cx="1059" cy="1178" r="6"/><circle cx="1184" cy="1164" r="4"/><circle cx="1237" cy="1151" r="5"/><circle cx="1356" cy="1142" r="5"/><circle cx="1410" cy="1172" r="4"/><circle cx="1458" cy="1184" r="6"/><circle cx="1526" cy="1141" r="5"/><circle cx="1640" cy="1164" r="6"/><circle cx="1719" cy="1162" r="5"/><circle cx="1776" cy="1152" r="5"/><circle cx="1897" cy="1126" r="5"/><circle cx="1956" cy="1123" r="6"/><circle cx="2067" cy="1181" r="4"/><circle cx="2109" cy="1148" r="5"/><circle cx="2226" cy="1172" r="4"/><circle cx="2241" cy="1190" r="5"/><circle cx="2354" cy="1176" r="6"/><circle cx="2413" cy="1121" r="4"/><circle cx="2535" cy="1183" r="6"/><circle cx="43" cy="1202" r="5"/><circle cx="129" cy="1228" r="6"/><circle cx="187" cy="1264" r="5"/><circle cx="309" cy="1271" r="5"/><circle cx="393" cy="1264" r="5"/><circle cx="454" cy="1259" r="5"/><circle cx="491" cy="1256" r="6"/><circle cx="604" cy="1221" r="4"/><circle cx="695" cy="1273" r="6"/><circle cx="796" cy="1278" r="5"/><circle cx="832" cy="1256" r="6"/><circle cx="903" cy="1203" r="4"/><circle cx="1013" cy="1238" r="6"/><circle cx="1080" cy="1265" r="4"/><circle cx="1159" cy="1245" r="5"/><circle cx="1222" cy="1252" r="5"/><circle cx="1324" cy="1264" r="5"/><circle cx="1370" cy="1261" r="4"/><circle cx="1470" cy="1252" r="5"/><circle cx="1594" cy="1234" r="5"/><circle cx="1663" cy="1217" r="5"/><circle cx="1721" cy="1234" r="4"/><circle cx="1774" cy="1210" r="4"/><circle cx="1903" cy="1248" r="5"/><circle cx="1983" cy="1225" r="5"/><circle cx="2028" cy="1244" r="5"/><circle cx="2137" cy="1234" r="5"/><circle cx="2229" cy="1264" r="5"/><circle cx="2279" cy="1222" r="5"/><circle cx="2397" cy="1210" r="4"/><circle cx="2478" cy="1201" r="6"/><circle cx="2551" cy="1279" r="4"/><circle cx="74" cy="1352" r="5"/><circle cx="111" cy="1333" r="4"/><circle cx="204" cy="1280" r="6"/><circle cx="252" cy="1305" r="5"/><circle cx="399" cy="1286" r="4"/><circle cx="416" cy="1315" r="4"/><circle cx="491" cy="1282" r="4"/><circle cx="562" cy="1299" r="5"/><circle cx="707" cy="1337" r="5"/><circle cx="724" cy="1304" r="5"/><circle cx="847" cy="1290" r="4"/><circle cx="925" cy="1294" r="4"/><circle cx="990" cy="1311" r="5"/><circle cx="1065" cy="1357" r="6"/><circle cx="1123" cy="1353" r="5"/><circle cx="1220" cy="1355" r="4"/><circle cx="1292" cy="1320" r="4"/><circle cx="1375" cy="1357" r="6"/><circle cx="1462" cy="1334" r="5"/><circle cx="1526" cy="1358" r="5"/><circle cx="1628" cy="1315" r="6"/><circle cx="1694" cy="1350" r="5"/><circle cx="1838" cy="1282" r="5"/><circle cx="1855" cy="1309" r="4"/><circle cx="1965" cy="1283" r="6"/><circle cx="2002" cy="1320" r="5"/><circle cx="2080" cy="1356" r="5"/><circle cx="2177" cy="1287" r="6"/><circle cx="2277" cy="1302" r="6"/><circle cx="2335" cy="1287" r="5"/><circle cx="2420" cy="1347" r="6"/><circle cx="2557" cy="1325" r="5"/><circle cx="-3" cy="1325" r="5"/><circle cx="5" cy="1413" r="6"/><circle cx="2565" cy="1413" r="6"/><circle cx="103" cy="1414" r="6"/><circle cx="164" cy="1422" r="5"/><circle cx="243" cy="1402" r="6"/><circle cx="369" cy="1406" r="5"/><circle cx="410" cy="1424" r="5"/><circle cx="514" cy="1374" r="4"/><circle cx="569" cy="1429" r="5"/><circle cx="660" cy="1420" r="6"/><circle cx="758" cy="1373" r="5"/><circle cx="870" cy="1398" r="5"/><circle cx="952" cy="1368" r="4"/><circle cx="1015" cy="1422" r="5"/><circle cx="1119" cy="1383" r="5"/><circle cx="1134" cy="1425" r="5"/><circle cx="1202" cy="1414" r="4"/><circle cx="1323" cy="1364" r="5"/><circle cx="1393" cy="1418" r="4"/><circle cx="1519" cy="1399" r="4"/><circle cx="1539" cy="1394" r="4"/><circle cx="1633" cy="1366" r="5"/><circle cx="1717" cy="1416" r="4"/><circle cx="1827" cy="1439" r="6"/><circle cx="1827" cy="-1" r="6"/><circle cx="1881" cy="1436" r="4"/><circle cx="1881" cy="-4" r="4"/><circle cx="1945" cy="1408" r="5"/><circle cx="2060" cy="1409" r="4"/><circle cx="2132" cy="1385" r="5"/><circle cx="2240" cy="1373" r="5"/><circle cx="2290" cy="1401" r="5"/><circle cx="2322" cy="1419" r="5"/><circle cx="2432" cy="1385" r="6"/><circle cx="2556" cy="1399" r="4"/><circle cx="-4" cy="1399" r="4"/><path stroke="#fff" d="M45 16L55 85M45 16L89 91M45 16L5 -27M45 16L103 -26M45 16L-4 -41M2605 16L2556 -41M45 1456L5 1413M45 1456L103 1414M45 1456L-4 1399M2605 1456L2556 1399M149 4L188 77M149 4L200 83M149 4L103 -26M149 4L164 -18M149 4L243 -38M149 1444L103 1414M149 1444L164 1422M149 1444L243 1402M188 77L273 56M188 77L200 83M188 77L255 107M188 77L164 -18M188 1517L164 1422M273 56L367 41M273 56L200 83M273 56L255 107M273 56L243 -38M273 1496L243 1402M367 41L404 15M367 41L391 135M367 41L369 -34M367 41L410 -16M367 1481L369 1406M367 1481L410 1424M404 15L502 37M404 15L452 89M404 15L369 -34M404 15L410 -16M404 1455L369 1406M404 1455L410 1424M502 37L452 89M502 37L541 97M502 37L410 -16M502 37L569 -11M502 1477L410 1424M502 1477L569 1429M596 1L593 88M596 1L514 -66M596 1L569 -11M596 1L660 -20M596 1441L514 1374M596 1441L569 1429M596 1441L660 1420M699 73L769 51M699 73L669 126M699 73L666 181M699 73L660 -20M699 1513L660 1420M769 51L858 29M769 51L775 150M769 51L878 85M858 29L919 2M858 29L878 85M858 29L915 92M858 29L870 -42M858 1469L870 1398M919 2L975 2M919 2L878 85M919 2L915 92M919 2L870 -42M919 1442L870 1398M975 2L915 92M975 2L1008 105M975 2L952 -72M975 2L1015 -18M975 1442L952 1368M975 1442L1015 1422M1060 76L1147 59M1060 76L1008 105M1060 76L1076 101M1060 76L1015 -18M1060 1516L1015 1422M1147 59L1222 15M1147 59L1076 101M1147 59L1189 147M1147 59L1134 -15M1147 1499L1134 1425M1222 15L1301 8M1222 15L1245 98M1222 15L1202 -26M1222 1455L1202 1414M1301 8L1363 52M1301 8L1323 -76M1301 8L1393 -22M1301 1448L1323 1364M1301 1448L1393 1418M1363 52L1442 52M1363 52L1393 -22M1363 1492L1393 1418M1442 52L1508 94M1442 52L1393 -22M1442 1492L1393 1418M1553 2L1613 63M1553 2L1508 94M1553 2L1526 -82M1553 2L1519 -41M1553 2L1539 -46M1553 1442L1526 1358M1553 1442L1519 1399M1553 1442L1539 1394M1613 63L1701 55M1613 63L1571 157M1613 63L1670 122M1613 63L1701 84M1701 55L1766 48M1701 55L1670 122M1701 55L1701 84M1701 55L1717 -24M1701 1495L1717 1416M1766 48L1701 84M1766 48L1775 97M1766 48L1717 -24M1766 48L1827 -1M1766 1488L1717 1416M1766 1488L1827 1439M1904 62L1982 45M1904 62L1895 122M1904 62L1929 139M1904 62L1827 -1M1904 62L1881 -4M1904 1502L1827 1439M1904 1502L1881 1436M1982 45L2013 46M1982 45L2013 92M1982 45L1945 -32M1982 1485L1945 1408M2013 46L2013 92M2013 46L1945 -32M2013 46L2060 -31M2013 1486L1945 1408M2013 1486L2060 1409M2128 16L2216 47M2128 16L2153 110M2128 16L2170 90M2128 16L2060 -31M2128 16L2132 -55M2128 1456L2060 1409M2128 1456L2132 1385M2216 47L2292 15M2216 47L2153 110M2216 47L2170 90M2216 47L2242 100M2292 15L2390 22M2292 15L2242 100M2292 15L2290 -39M2292 15L2322 -21M2292 1455L2290 1401M2292 1455L2322 1419M2390 22L2457 1M2390 22L2420 -93M2390 22L2322 -21M2390 22L2432 -55M2390 1462L2420 1347M2390 1462L2322 1419M2390 1462L2432 1385M2457 1L2531 73M2457 1L2420 -93M2457 1L2432 -55M2457 1441L2420 1347M2457 1441L2432 1385M2531 73L2615 85M2531 73L2465 152M2531 73L2529 118M-29 73L55 85M55 85L89 91M55 85L-31 118M55 85L105 178M2615 85L2529 118M89 91L105 178M200 83L255 107M200 83L164 -18M200 1523L164 1422M255 107L295 172M391 135L452 89M391 135L295 172M391 135L369 171M391 135L436 189M452 89L541 97M452 89L410 -16M452 1529L410 1424M541 97L593 88M541 97L542 171M541 97L576 176M593 88L669 126M593 88L576 176M593 88L569 -11M593 1528L569 1429M669 126L775 150M669 126L576 176M669 126L666 181M775 150L666 181M775 150L799 234M775 150L817 216M878 85L915 92M915 92L1008 105M1008 105L1076 101M1008 105L1032 227M1076 101L1100 199M1189 147L1245 98M1189 147L1197 203M1189 147L1264 204M1245 98L1346 155M1245 98L1264 204M1346 155L1390 158M1346 155L1264 204M1346 155L1309 208M1346 155L1427 160M1390 158L1309 208M1390 158L1427 160M1508 94L1571 157M1508 94L1427 160M1571 157L1544 209M1571 157L1632 171M1670 122L1701 84M1670 122L1632 171M1701 84L1775 97M1775 97L1827 -1M1775 1537L1827 1439M1895 122L1929 139M1895 122L1873 215M1895 122L1986 162M1929 139L2013 92M1929 139L1873 215M1929 139L1986 162M2013 92L1986 162M2013 92L2056 187M2153 110L2170 90M2153 110L2242 100M2170 90L2242 100M2242 100L2200 213M2352 157L2465 152M2352 157L2317 233M2352 157L2356 215M2352 157L2457 176M2465 152L2529 118M2465 152L2457 176M2465 152L2526 218M2529 118L2457 176M1 230L-34 218M1 230L22 257M1 230L-33 262M2561 230L2526 218M2561 230L2527 262M105 178L161 197M105 178L147 278M161 197L147 278M161 197L194 298M295 172L369 171M295 172L279 262M295 172L368 257M369 171L436 189M369 171L368 257M369 171L437 242M436 189L542 171M436 189L437 242M542 171L576 176M576 176L666 181M666 181L739 273M799 234L817 216M799 234L915 209M799 234L739 273M799 234L878 278M817 216L915 209M817 216L739 273M817 216L878 278M915 209L878 278M915 209L959 247M1032 227L1100 199M1032 227L959 247M1032 227L1011 271M1032 227L1086 282M1100 199L1197 203M1100 199L1086 282M1100 199L1176 249M1197 203L1264 204M1197 203L1309 208M1197 203L1176 249M1264 204L1309 208M1309 208L1301 308M1427 160L1486 228M1427 160L1466 253M1486 228L1544 209M1486 228L1432 273M1486 228L1466 253M1486 228L1592 265M1544 209L1632 171M1544 209L1466 253M1544 209L1592 265M1632 171L1712 223M1632 171L1658 264M1712 223L1776 222M1712 223L1658 264M1712 223L1734 265M1776 222L1873 215M1776 222L1734 265M1776 222L1771 292M1776 222L1855 259M1873 215L1855 259M1873 215L1967 267M1986 162L2056 187M2056 187L2094 225M2056 187L2076 261M2094 225L2200 213M2094 225L2076 261M2094 225L2145 243M2094 225L2163 257M2200 213L2317 233M2200 213L2145 243M2200 213L2163 257M2317 233L2356 215M2317 233L2316 305M2317 233L2376 309M2356 215L2316 305M2356 215L2376 309M2457 176L2526 218M2526 218L2582 257M2526 218L2527 262M-34 218L22 257M22 257L-33 262M2582 257L2527 262M147 278L194 298M147 278L81 355M147 278L180 326M194 298L279 262M194 298L180 326M194 298L243 339M279 262L368 257M279 262L243 339M368 257L437 242M368 257L361 339M437 242L545 296M437 242L361 339M545 296L636 284M545 296L555 332M545 296L611 344M636 284L664 315M636 284L611 344M636 284L674 350M664 315L739 273M664 315L611 344M664 315L674 350M664 315L759 390M739 273L674 350M878 278L959 247M878 278L910 324M959 247L1011 271M959 247L910 324M1011 271L1086 282M1011 271L975 344M1011 271L1103 326M1086 282L1176 249M1086 282L1103 326M1176 249L1245 305M1176 249L1192 334M1245 305L1301 308M1245 305L1192 334M1245 305L1240 367M1245 305L1343 349M1301 308L1240 367M1301 308L1343 349M1301 308L1376 353M1432 273L1466 253M1432 273L1376 353M1432 273L1513 354M1432 273L1524 345M1466 253L1524 345M1592 265L1658 264M1592 265L1513 354M1592 265L1524 345M1658 264L1734 265M1734 265L1771 292M1734 265L1777 350M1771 292L1855 259M1771 292L1744 358M1771 292L1777 350M1855 259L1967 267M1855 259L1927 322M1967 267L1927 322M1967 267L2043 347M2076 261L2145 243M2076 261L2163 257M2076 261L2092 348M2145 243L2163 257M2163 257L2092 348M2316 305L2376 309M2316 305L2284 371M2316 305L2367 350M2376 309L2436 307M2376 309L2367 350M2436 307L2527 262M2436 307L2367 350M2436 307L2477 345M2527 262L2477 345M5 374L81 355M5 374L-83 345M5 374L-5 398M5 374L28 414M5 374L-80 410M2565 374L2477 345M2565 374L2555 398M2565 374L2480 410M81 355L180 326M81 355L-5 398M81 355L28 414M2641 355L2555 398M180 326L243 339M243 339L342 409M361 339L417 394M361 339L342 409M417 394L342 409M417 394L473 432M417 394L499 415M417 394L416 499M555 332L611 344M555 332L499 415M555 332L605 421M611 344L674 350M674 350L759 390M759 390L832 389M759 390L708 455M759 390L736 426M832 389L910 324M832 389L736 426M832 389L867 406M832 389L892 450M910 324L975 344M910 324L867 406M1103 326L1192 334M1103 326L1079 428M1192 334L1240 367M1192 334L1155 432M1240 367L1155 432M1240 367L1274 435M1343 349L1376 353M1343 349L1274 435M1343 349L1387 418M1376 353L1387 418M1513 354L1524 345M1513 354L1511 474M1513 354L1570 446M1665 382L1744 358M1665 382L1635 477M1665 382L1707 426M1744 358L1777 350M1744 358L1707 426M1744 358L1770 434M1777 350L1858 386M1777 350L1770 434M1858 386L1927 322M1858 386L1770 434M1858 386L1904 436M1927 322L2043 347M2043 347L2092 348M2043 347L2072 459M2092 348L2072 459M2092 348L2151 429M2231 370L2284 371M2231 370L2151 429M2231 370L2231 462M2284 371L2367 350M2477 345L2555 398M2477 345L2480 410M2555 398L2588 414M2555 398L2480 410M-5 398L28 414M28 414L-80 410M2588 414L2480 410M147 473L205 446M147 473L265 469M147 473L70 525M147 473L147 528M147 473L170 483M205 446L265 469M205 446L147 528M205 446L170 483M265 469L342 409M265 469L170 483M265 469L244 556M342 409L416 499M473 432L499 415M473 432L388 526M473 432L416 499M499 415L581 500M605 421L708 455M605 421L581 500M708 455L736 426M708 455L684 551M867 406L892 450M892 450L995 474M892 450L865 551M892 450L880 516M995 474L1079 428M995 474L1023 482M1079 428L1155 432M1079 428L1023 482M1155 432L1143 532M1155 432L1208 522M1274 435L1312 453M1274 435L1387 418M1312 453L1387 418M1312 453L1306 529M1312 453L1394 500M1387 418L1394 500M1511 474L1570 446M1511 474L1394 500M1511 474L1513 505M1511 474L1592 497M1570 446L1635 477M1570 446L1513 505M1570 446L1592 497M1635 477L1707 426M1635 477L1592 497M1635 477L1649 552M1707 426L1770 434M1707 426L1740 487M1770 434L1740 487M1904 436L1953 471M1904 436L1960 505M1953 471L1960 505M2072 459L2151 429M2072 459L2095 541M2151 429L2231 462M2231 462L2292 479M2231 462L2219 547M2231 462L2298 492M2292 479L2373 462M2292 479L2219 547M2292 479L2298 492M2292 479L2328 543M2373 462L2400 461M2373 462L2298 492M2373 462L2328 543M2400 461L2480 410M2400 461L2465 536M70 525L147 528M70 525L27 587M70 525L93 579M147 528L170 483M147 528L93 579M170 483L244 556M244 556L207 596M244 556L271 609M244 556L216 647M388 526L416 499M388 526L400 618M388 526L417 618M416 499L417 618M521 554L581 500M521 554L486 605M581 500L631 561M684 551L784 540M684 551L631 561M684 551L687 571M684 551L729 631M784 540L865 551M784 540L880 516M784 540L687 571M784 540L842 587M865 551L880 516M865 551L842 587M865 551L888 615M880 516L842 587M880 516L888 615M1023 482L1049 559M1049 559L1143 532M1049 559L997 617M1049 559L1108 594M1049 559L1035 652M1143 532L1208 522M1143 532L1108 594M1143 532L1180 574M1208 522L1180 574M1208 522L1237 607M1306 529L1394 500M1306 529L1237 607M1306 529L1285 595M1306 529L1388 594M1394 500L1388 594M1513 505L1592 497M1513 505L1531 612M1592 497L1649 552M1649 552L1627 576M1649 552L1738 592M1740 487L1807 536M1740 487L1738 592M1807 536L1887 542M1807 536L1738 592M1807 536L1828 565M1807 536L1842 611M1887 542L1960 505M1887 542L1828 565M1887 542L1842 611M1887 542L1948 597M1960 505L2044 552M1960 505L1948 597M2044 552L2095 541M2044 552L2070 596M2095 541L2070 596M2095 541L2112 607M2095 541L2186 587M2219 547L2186 587M2219 547L2304 562M2298 492L2328 543M2298 492L2304 562M2328 543L2304 562M2328 543L2367 574M2465 536L2525 545M2465 536L2367 574M2465 536L2455 580M2465 536L2523 565M2525 545L2587 587M2525 545L2455 580M2525 545L2523 565M-35 545L27 587M27 587L93 579M27 587L-37 565M27 587L31 649M2587 587L2523 565M93 579L207 596M93 579L31 649M207 596L271 609M207 596L216 647M271 609L216 647M400 618L417 618M400 618L486 605M417 618L486 605M417 618L454 696M486 605L545 671M631 561L687 571M631 561L626 674M687 571L729 631M687 571L642 668M729 631L626 674M729 631L642 668M729 631L737 696M842 587L888 615M842 587L910 652M888 615L874 680M888 615L910 652M997 617L1035 652M997 617L1088 651M1108 594L1180 574M1108 594L1035 652M1108 594L1088 651M1180 574L1237 607M1237 607L1285 595M1237 607L1249 696M1285 595L1309 704M1388 594L1471 638M1388 594L1471 643M1471 638L1531 612M1471 638L1471 643M1471 638L1566 648M1471 638L1441 730M1531 612L1627 576M1531 612L1471 643M1531 612L1566 648M1738 592L1828 565M1738 592L1808 645M1828 565L1842 611M1828 565L1808 645M1842 611L1808 645M1842 611L1898 641M1948 597L1898 641M1948 597L1987 648M1948 597L2018 641M2070 596L2112 607M2070 596L2018 641M2070 596L2096 644M2112 607L2186 587M2112 607L2096 644M2112 607L2173 660M2186 587L2173 660M2304 562L2367 574M2367 574L2405 640M2455 580L2523 565M2455 580L2405 640M2455 580L2487 653M2523 565L2487 653M31 649L129 703M31 649L-73 653M31 649L53 756M2591 649L2487 653M129 703L216 647M129 703L53 756M129 703L117 749M129 703L207 762M216 647L297 708M297 708L345 715M297 708L207 762M297 708L312 793M297 708L395 740M345 715L312 793M345 715L395 740M345 715L420 786M454 696L545 671M454 696L395 740M454 696L420 786M454 696L517 742M545 671L626 674M545 671L642 668M545 671L517 742M626 674L642 668M626 674L615 757M642 668L615 757M737 696L755 747M874 680L910 652M874 680L848 733M874 680L954 727M910 652L954 727M910 652L976 725M1035 652L1088 651M1035 652L976 725M1088 651L1176 705M1088 651L1071 757M1176 705L1249 696M1176 705L1178 744M1176 705L1200 727M1176 705L1210 816M1249 696L1309 704M1249 696L1178 744M1249 696L1200 727M1309 704L1376 701M1309 704L1200 727M1309 704L1355 751M1376 701L1355 751M1376 701L1419 768M1376 701L1441 730M1471 643L1566 648M1471 643L1441 730M1566 648L1624 679M1566 648L1593 726M1624 679L1709 696M1624 679L1593 726M1624 679L1629 740M1624 679L1690 735M1709 696L1629 740M1709 696L1690 735M1808 645L1898 641M1808 645L1851 751M1898 641L1987 648M1987 648L2018 641M1987 648L1984 744M2018 641L2096 644M2018 641L2067 733M2096 644L2173 660M2096 644L2067 733M2173 660L2230 760M2315 690L2360 716M2315 690L2288 747M2315 690L2370 770M2315 690L2405 746M2360 716L2405 640M2360 716L2288 747M2360 716L2370 770M2360 716L2405 746M2405 640L2487 653M53 756L117 749M53 756L-38 769M53 756L67 851M2613 756L2522 769M117 749L207 762M117 749L160 816M207 762L160 816M207 762L170 852M312 793L272 863M312 793L384 810M395 740L420 786M395 740L384 810M420 786L384 810M420 786L477 829M517 742L615 757M517 742L477 829M517 742L536 825M615 757L661 797M615 757L633 804M661 797L755 747M661 797L633 804M661 797L681 835M755 747L848 733M755 747L766 801M848 733L954 727M848 733L766 801M954 727L976 725M954 727L955 815M976 725L1071 757M976 725L955 815M1071 757L1148 831M1178 744L1200 727M1178 744L1148 831M1178 744L1210 816M1200 727L1210 816M1355 751L1419 768M1355 751L1441 730M1419 768L1441 730M1593 726L1629 740M1593 726L1690 735M1629 740L1690 735M1629 740L1663 820M1690 735L1663 820M1774 796L1851 751M1774 796L1723 859M1774 796L1791 833M1851 751L1791 833M1851 751L1916 841M1984 744L2067 733M1984 744L2082 756M1984 744L1930 847M2067 733L2082 756M2067 733L2080 811M2082 756L2080 811M2230 760L2288 747M2230 760L2246 857M2288 747L2370 770M2370 770L2405 746M2370 770L2365 834M2405 746L2365 834M2405 746L2490 805M2522 769L2490 805M67 851L160 816M67 851L45 906M67 851L-9 894M2627 851L2551 894M160 816L170 852M170 852L272 863M170 852L142 942M170 852L196 920M272 863L196 920M272 863L318 935M384 810L447 895M477 829L536 825M477 829L447 895M536 825L633 804M536 825L447 895M536 825L525 909M633 804L681 835M681 835L766 801M681 835L672 941M681 835L756 882M766 801L830 877M766 801L756 882M830 877L756 882M830 877L827 920M830 877L919 952M830 877L800 989M955 815L984 834M984 834L1020 919M984 834L1043 891M1112 864L1148 831M1112 864L1020 919M1112 864L1043 891M1112 864L1126 951M1148 831L1210 816M1210 816L1259 892M1342 873L1374 876M1342 873L1259 892M1342 873L1354 942M1342 873L1429 903M1374 876L1354 942M1374 876L1429 903M1485 877L1560 854M1485 877L1429 903M1485 877L1480 919M1560 854L1663 820M1560 854L1480 919M1560 854L1582 945M1663 820L1723 859M1663 820L1724 888M1723 859L1791 833M1723 859L1724 888M1791 833L1724 888M1791 833L1825 916M1916 841L1930 847M1916 841L1991 886M1930 847L2040 854M1930 847L1905 934M1930 847L1991 886M2040 854L2080 811M2040 854L1991 886M2040 854L2054 911M2040 854L2101 921M2080 811L2162 861M2080 811L2054 911M2162 861L2246 857M2162 861L2101 921M2162 861L2199 894M2162 861L2242 890M2246 857L2199 894M2246 857L2242 890M2246 857L2240 965M2365 834L2456 857M2365 834L2490 805M2365 834L2400 923M2456 857L2490 805M2456 857L2400 923M2456 857L2471 955M2456 857L2551 894M2490 805L2551 894M45 906L142 942M45 906L-9 894M45 906L57 1015M2605 906L2551 894M142 942L196 920M142 942L153 1035M196 920L231 971M318 935L374 940M318 935L231 971M318 935L260 1011M318 935L363 1019M374 940L447 895M374 940L363 1019M374 940L405 1031M447 895L525 909M525 909L575 938M525 909L535 985M525 909L574 960M575 938L672 941M575 938L535 985M575 938L574 960M672 941L756 882M672 941L574 960M672 941L697 989M756 882L827 920M827 920L919 952M827 920L800 989M827 920L801 1024M919 952L954 1011M919 952L1008 974M1020 919L1043 891M1020 919L1126 951M1020 919L1008 974M1043 891L1126 951M1043 891L1008 974M1126 951L1163 1001M1126 951L1110 1041M1259 892L1316 985M1354 942L1316 985M1354 942L1400 982M1429 903L1480 919M1429 903L1400 982M1480 919L1483 996M1582 945L1640 942M1582 945L1557 971M1582 945L1617 1002M1640 942L1724 888M1640 942L1557 971M1640 942L1617 1002M1640 942L1709 1002M1724 888L1825 916M1825 916L1905 934M1825 916L1819 963M1825 916L1888 982M1905 934L1819 963M1905 934L1888 982M1905 934L1948 987M1991 886L2054 911M1991 886L2010 971M2054 911L2101 921M2054 911L2010 971M2101 921L2199 894M2199 894L2242 890M2199 894L2240 965M2242 890L2239 996M2242 890L2240 965M2400 923L2471 955M2400 923L2357 980M2400 923L2415 1004M2471 955L2415 1004M2471 955L2509 986M2551 894L2509 986M57 1015L153 1035M57 1015L14 1074M57 1015L156 1055M57 1015L-23 1066M2617 1015L2537 1066M153 1035L156 1055M153 1035L239 1059M153 1035L253 1041M231 971L260 1011M231 971L239 1059M231 971L253 1041M260 1011L239 1059M260 1011L253 1041M363 1019L405 1031M363 1019L373 1063M405 1031L373 1063M405 1031L435 1101M405 1031L375 1149M535 985L574 960M535 985L531 1061M535 985L582 1064M574 960L531 1061M697 989L800 989M697 989L801 1024M697 989L695 1070M800 989L801 1024M800 989L776 1066M801 1024L776 1066M954 1011L1008 974M954 1011L1044 1034M954 1011L962 1106M1008 974L1044 1034M1044 1034L1110 1041M1163 1001L1207 1018M1163 1001L1110 1041M1163 1001L1173 1072M1207 1018L1110 1041M1207 1018L1173 1072M1207 1018L1255 1070M1207 1018L1290 1071M1316 985L1400 982M1316 985L1255 1070M1316 985L1290 1071M1400 982L1483 996M1400 982L1439 1074M1483 996L1557 971M1483 996L1439 1074M1483 996L1457 1066M1557 971L1617 1002M1557 971L1566 1057M1617 1002L1566 1057M1617 1002L1639 1087M1709 1002L1639 1087M1709 1002L1753 1040M1819 963L1888 982M1819 963L1753 1040M1819 963L1797 1077M1888 982L1948 987M1948 987L2010 971M1948 987L1902 1094M1948 987L1943 1082M2010 971L2094 1032M2010 971L2052 1047M2094 1032L2052 1047M2094 1032L2124 1057M2094 1032L2188 1119M2094 1032L2109 1148M2239 996L2240 965M2239 996L2124 1057M2239 996L2311 1051M2240 965L2311 1051M2357 980L2415 1004M2357 980L2311 1051M2415 1004L2509 986M2415 1004L2433 1071M2509 986L2433 1071M2509 986L2537 1066M14 1074L-23 1066M14 1074L67 1154M2574 1074L2537 1066M156 1055L239 1059M156 1055L253 1041M239 1059L253 1041M373 1063L435 1101M373 1063L375 1149M435 1101L531 1061M435 1101L375 1149M435 1101L434 1150M531 1061L582 1064M531 1061L561 1127M582 1064L695 1070M582 1064L561 1127M582 1064L650 1132M695 1070L776 1066M695 1070L650 1132M776 1066L867 1101M776 1066L808 1150M867 1101L882 1114M867 1101L962 1106M867 1101L808 1150M867 1101L910 1175M882 1114L962 1106M882 1114L808 1150M882 1114L910 1175M882 1114L903 1203M962 1106L910 1175M962 1106L1005 1195M1110 1041L1173 1072M1173 1072L1255 1070M1173 1072L1184 1164M1255 1070L1290 1071M1255 1070L1237 1151M1290 1071L1237 1151M1290 1071L1356 1142M1439 1074L1457 1066M1439 1074L1356 1142M1439 1074L1458 1184M1457 1066L1566 1057M1457 1066L1526 1141M1566 1057L1639 1087M1566 1057L1526 1141M1639 1087L1640 1164M1753 1040L1797 1077M1753 1040L1776 1152M1797 1077L1902 1094M1797 1077L1776 1152M1797 1077L1897 1126M1902 1094L1943 1082M1902 1094L1897 1126M1902 1094L1956 1123M1943 1082L2052 1047M1943 1082L1897 1126M1943 1082L1956 1123M2052 1047L2124 1057M2052 1047L1956 1123M2124 1057L2188 1119M2124 1057L2109 1148M2188 1119L2109 1148M2188 1119L2226 1172M2188 1119L2241 1190M2311 1051L2399 1106M2399 1106L2433 1071M2399 1106L2354 1176M2399 1106L2413 1121M2399 1106L2397 1210M2433 1071L2537 1066M2433 1071L2413 1121M2537 1066L2535 1183M67 1154L143 1193M67 1154L-25 1183M67 1154L43 1202M2627 1154L2535 1183M143 1193L186 1192M143 1193L43 1202M143 1193L129 1228M143 1193L187 1264M186 1192L251 1193M186 1192L129 1228M186 1192L187 1264M186 1192L204 1280M251 1193L309 1271M251 1193L204 1280M251 1193L252 1305M375 1149L434 1150M434 1150L523 1186M523 1186L561 1127M523 1186L491 1256M523 1186L604 1221M561 1127L650 1132M561 1127L604 1221M650 1132L754 1188M650 1132L604 1221M754 1188L808 1150M754 1188L695 1273M808 1150L832 1256M910 1175L903 1203M1005 1195L1059 1178M1005 1195L1013 1238M1059 1178L1184 1164M1059 1178L1013 1238M1059 1178L1080 1265M1059 1178L1159 1245M1184 1164L1237 1151M1184 1164L1159 1245M1184 1164L1222 1252M1237 1151L1356 1142M1237 1151L1222 1252M1356 1142L1410 1172M1356 1142L1458 1184M1410 1172L1458 1184M1410 1172L1370 1261M1410 1172L1470 1252M1458 1184L1526 1141M1458 1184L1470 1252M1526 1141L1594 1234M1640 1164L1719 1162M1640 1164L1594 1234M1640 1164L1663 1217M1640 1164L1721 1234M1719 1162L1776 1152M1719 1162L1663 1217M1719 1162L1721 1234M1719 1162L1774 1210M1776 1152L1721 1234M1776 1152L1774 1210M1897 1126L1956 1123M1956 1123L1983 1225M2067 1181L2109 1148M2067 1181L2028 1244M2067 1181L2137 1234M2109 1148L2137 1234M2226 1172L2241 1190M2226 1172L2279 1222M2241 1190L2229 1264M2241 1190L2279 1222M2354 1176L2413 1121M2354 1176L2279 1222M2354 1176L2397 1210M2354 1176L2335 1287M2413 1121L2397 1210M2413 1121L2478 1201M2535 1183L2603 1202M2535 1183L2478 1201M2535 1183L2551 1279M-25 1183L43 1202M43 1202L129 1228M43 1202L-9 1279M2603 1202L2551 1279M129 1228L187 1264M129 1228L204 1280M187 1264L204 1280M187 1264L252 1305M309 1271L393 1264M309 1271L252 1305M309 1271L399 1286M393 1264L454 1259M393 1264L399 1286M393 1264L416 1315M454 1259L491 1256M454 1259L399 1286M454 1259L416 1315M454 1259L491 1282M491 1256L416 1315M491 1256L491 1282M491 1256L562 1299M604 1221L695 1273M604 1221L562 1299M695 1273L796 1278M695 1273L707 1337M695 1273L724 1304M796 1278L832 1256M796 1278L724 1304M796 1278L847 1290M796 1278L758 1373M832 1256L903 1203M832 1256L847 1290M832 1256L925 1294M1013 1238L1080 1265M1013 1238L925 1294M1013 1238L990 1311M1080 1265L1159 1245M1080 1265L1123 1353M1159 1245L1222 1252M1222 1252L1324 1264M1222 1252L1292 1320M1324 1264L1370 1261M1324 1264L1292 1320M1324 1264L1323 1364M1370 1261L1470 1252M1370 1261L1375 1357M1470 1252L1462 1334M1594 1234L1663 1217M1594 1234L1628 1315M1663 1217L1721 1234M1663 1217L1628 1315M1721 1234L1774 1210M1774 1210L1838 1282M1903 1248L1983 1225M1903 1248L1838 1282M1903 1248L1855 1309M1903 1248L1965 1283M1983 1225L2028 1244M1983 1225L1965 1283M1983 1225L2002 1320M2028 1244L2137 1234M2028 1244L1965 1283M2028 1244L2002 1320M2137 1234L2229 1264M2137 1234L2177 1287M2229 1264L2279 1222M2229 1264L2177 1287M2229 1264L2277 1302M2279 1222L2277 1302M2397 1210L2478 1201M2397 1210L2335 1287M2478 1201L2551 1279M2551 1279L2557 1325M74 1352L111 1333M74 1352L-3 1325M74 1352L5 1413M74 1352L103 1414M74 1352L-4 1399M2634 1352L2557 1325M2634 1352L2556 1399M111 1333L103 1414M204 1280L252 1305M252 1305L243 1402M399 1286L416 1315M416 1315L491 1282M491 1282L562 1299M491 1282L514 1374M562 1299L514 1374M707 1337L724 1304M707 1337L660 1420M707 1337L758 1373M724 1304L758 1373M847 1290L925 1294M847 1290L870 1398M925 1294L990 1311M925 1294L952 1368M990 1311L1065 1357M990 1311L952 1368M1065 1357L1123 1353M1065 1357L1015 1422M1065 1357L1119 1383M1065 1357L1134 1425M1123 1353L1220 1355M1123 1353L1119 1383M1123 1353L1134 1425M1220 1355L1292 1320M1220 1355L1202 1414M1292 1320L1375 1357M1292 1320L1323 1364M1375 1357L1462 1334M1375 1357L1323 1364M1375 1357L1393 1418M1462 1334L1526 1358M1462 1334L1519 1399M1462 1334L1539 1394M1526 1358L1519 1399M1526 1358L1539 1394M1526 1358L1633 1366M1628 1315L1694 1350M1628 1315L1633 1366M1694 1350L1633 1366M1694 1350L1717 1416M1838 1282L1855 1309M1855 1309L1965 1283M1965 1283L2002 1320M2002 1320L2080 1356M2002 1320L1945 1408M2080 1356L2060 1409M2080 1356L2132 1385M2177 1287L2277 1302M2177 1287L2132 1385M2177 1287L2240 1373M2277 1302L2335 1287M2277 1302L2240 1373M2335 1287L2420 1347M2335 1287L2290 1401M2420 1347L2432 1385M2557 1325L2565 1413M2557 1325L2556 1399M-3 1325L5 1413M5 1413L-4 1399M2565 1413L2556 1399M103 1414L164 1422M164 1422L243 1402M243 1402L369 1406M369 1406L410 1424M514 1374L569 1429M569 1429L660 1420M660 1420L758 1373M758 1373L870 1398M870 1398L952 1368M952 1368L1015 1422M1015 1422L1119 1383M1119 1383L1134 1425M1119 1383L1202 1414M1134 1425L1202 1414M1323 1364L1393 1418M1519 1399L1539 1394M1539 1394L1633 1366M1633 1366L1717 1416M1717 1416L1827 1439M1827 1439L1881 1436M1881 1436L1945 1408M1945 1408L2060 1409M2060 1409L2132 1385M2132 1385L2240 1373M2240 1373L2290 1401M2240 1373L2322 1419M2290 1401L2322 1419M2322 1419L2432 1385M2432 1385L2556 1399"/></svg>