<svg xmlns="http://www.w3.org/2000/svg" width="2560" height="1440" fill="#fff"><circle cx="63" cy="4" r="5"/><circle cx="63" cy="1444" r="5"/><circle cx="87" cy="27" r="4"/><circle cx="192" cy="14" r="5"/><circle cx="300" cy="28" r="5"/><circle cx="360" cy="80" r="4"/><circle cx="476" cy="10" r="5"/><circle cx="521" cy="52" r="6"/><circle cx="592" cy="44" r="4"/><circle cx="662" cy="18" r="4"/><circle cx="753" cy="65" r="5"/><circle cx="828" cy="16" r="4"/><circle cx="884" cy="73" r="6"/><circle cx="1023" cy="20" r="5"/><circle cx="1119" cy="34" r="4"/><circle cx="1135" cy="72" r="6"/><circle cx="1253" cy="27" r="5"/><circle cx="1358" cy="44" r="6"/><circle cx="1372" cy="31" r="5"/><circle cx="1470" cy="57" r="4"/><circle cx="1571" cy="18" r="5"/><circle cx="1624" cy="35" r="5"/><circle cx="1734" cy="59" r="5"/><circle cx="1775" cy="32" r="4"/><circle cx="1851" cy="61" r="6"/><circle cx="1929" cy="14" r="5"/><circle cx="2058" cy="45" r="5"/><circle cx="2129" cy="25" r="5"/><circle cx="2223" cy="13" r="5"/><circle cx="2311" cy="37" r="4"/><circle cx="2390" cy="75" r="5"/><circle cx="2471" cy="36" r="5"/><circle cx="2533" cy="15" r="5"/><circle cx="14" cy="130" r="5"/><circle cx="145" cy="109" r="5"/><circle cx="191" cy="124" r="6"/><circle cx="279" cy="151" r="5"/><circle cx="325" cy="88" r="5"/><circle cx="474" cy="135" r="6"/><circle cx="535" cy="104" r="4"/><circle cx="609" cy="92" r="4"/><circle cx="643" cy="123" r="6"/><circle cx="770" cy="98" r="5"/><circle cx="842" cy="122" r="4"/><circle cx="920" cy="104" r="4"/><circle cx="1038" cy="83" r="5"/><circle cx="1074" cy="149" r="6"/><circle cx="1154" cy="152" r="5"/><circle cx="1215" cy="107" r="4"/><circle cx="1298" cy="122" r="6"/><circle cx="1434" cy="101" r="6"/><circle cx="1505" cy="89" r="5"/><circle cx="1547" cy="120" r="4"/><circle cx="1652" cy="159" r="5"/><circle cx="1702" cy="96" r="6"/><circle cx="1789" cy="134" r="5"/><circle cx="1885" cy="93" r="6"/><circle cx="1986" cy="117" r="5"/><circle cx="2010" cy="98" r="4"/><circle cx="2105" cy="135" r="5"/><circle cx="2238" cy="112" r="5"/><circle cx="2315" cy="129" r="6"/><circle cx="2323" cy="147" r="5"/><circle cx="2449" cy="84" r="6"/><circle cx="2532" cy="112" r="4"/><circle cx="47" cy="211" r="4"/><circle cx="127" cy="163" r="6"/><circle cx="176" cy="198" r="5"/><circle cx="251" cy="231" r="6"/><circle cx="342" cy="214" r="5"/><circle cx="451" cy="238" r="5"/><circle cx="540" cy="189" r="4"/><circle cx="589" cy="200" r="6"/><circle cx="675" cy="196" r="5"/><circle cx="727" cy="223" r="4"/><circle cx="870" cy="188" r="5"/><circle cx="896" cy="214" r="4"/><circle cx="1020" cy="189" r="5"/><circle cx="1045" cy="192" r="5"/><circle cx="1179" cy="189" r="4"/><circle cx="1229" cy="163" r="4"/><circle cx="1301" cy="219" r="6"/><circle cx="1369" cy="181" r="5"/><circle cx="1452" cy="178" r="5"/><circle cx="1599" cy="171" r="6"/><circle cx="1652" cy="223" r="6"/><circle cx="1685" cy="193" r="5"/><circle cx="1766" cy="201" r="4"/><circle cx="1874" cy="191" r="5"/><circle cx="1920" cy="186" r="5"/><circle cx="2050" cy="198" r="4"/><circle cx="2081" cy="172" r="4"/><circle cx="2208" cy="176" r="4"/><circle cx="2247" cy="231" r="6"/><circle cx="2358" cy="196" r="5"/><circle cx="2461" cy="231" r="5"/><circle cx="2494" cy="211" r="4"/><circle cx="32" cy="276" r="5"/><circle cx="95" cy="295" r="5"/><circle cx="160" cy="292" r="6"/><circle cx="300" cy="261" r="5"/><circle cx="386" cy="291" r="5"/><circle cx="416" cy="306" r="5"/><circle cx="504" cy="274" r="4"/><circle cx="573" cy="308" r="5"/><circle cx="683" cy="313" r="6"/><circle cx="726" cy="287" r="4"/><circle cx="867" cy="286" r="5"/><circle cx="935" cy="309" r="5"/><circle cx="989" cy="252" r="4"/><circle cx="1079" cy="260" r="5"/><circle cx="1139" cy="319" r="5"/><circle cx="1274" cy="294" r="5"/><circle cx="1294" cy="310" r="4"/><circle cx="1378" cy="314" r="5"/><circle cx="1460" cy="309" r="6"/><circle cx="1592" cy="314" r="5"/><circle cx="1615" cy="259" r="6"/><circle cx="1689" cy="270" r="5"/><circle cx="1822" cy="297" r="5"/><circle cx="1868" cy="276" r="6"/><circle cx="1997" cy="296" r="6"/><circle cx="2006" cy="314" r="6"/><circle cx="2110" cy="312" r="5"/><circle cx="2228" cy="309" r="6"/><circle cx="2250" cy="314" r="6"/><circle cx="2359" cy="274" r="5"/><circle cx="2472" cy="315" r="6"/><circle cx="2557" cy="260" r="6"/><circle cx="-3" cy="260" r="6"/><circle cx="33" cy="352" r="5"/><circle cx="139" cy="342" r="5"/><circle cx="202" cy="376" r="5"/><circle cx="260" cy="349" r="4"/><circle cx="400" cy="344" r="5"/><circle cx="474" cy="396" r="6"/><circle cx="524" cy="344" r="4"/><circle cx="615" cy="360" r="5"/><circle cx="642" cy="374" r="5"/><circle cx="787" cy="375" r="6"/><circle cx="816" cy="354" r="5"/><circle cx="929" cy="381" r="5"/><circle cx="1034" cy="368" r="5"/><circle cx="1053" cy="392" r="5"/><circle cx="1122" cy="321" r="5"/><circle cx="1258" cy="329" r="4"/><circle cx="1343" cy="355" r="5"/><circle cx="1375" cy="338" r="5"/><circle cx="1440" cy="370" r="6"/><circle cx="1578" cy="324" r="5"/><circle cx="1661" cy="338" r="5"/><circle cx="1690" cy="329" r="5"/><circle cx="1794" cy="390" r="5"/><circle cx="1898" cy="328" r="5"/><circle cx="1957" cy="354" r="5"/><circle cx="2040" cy="323" r="5"/><circle cx="2152" cy="397" r="5"/><circle cx="2214" cy="372" r="5"/><circle cx="2258" cy="339" r="4"/><circle cx="2341" cy="322" r="5"/><circle cx="2406" cy="347" r="6"/><circle cx="2506" cy="336" r="4"/><circle cx="15" cy="444" r="5"/><circle cx="129" cy="459" r="4"/><circle cx="209" cy="477" r="5"/><circle cx="275" cy="436" r="6"/><circle cx="378" cy="414" r="4"/><circle cx="432" cy="416" r="5"/><circle cx="489" cy="419" r="6"/><circle cx="589" cy="428" r="5"/><circle cx="650" cy="475" r="6"/><circle cx="771" cy="473" r="4"/><circle cx="813" cy="418" r="4"/><circle cx="918" cy="421" r="5"/><circle cx="980" cy="468" r="6"/><circle cx="1108" cy="405" r="5"/><circle cx="1150" cy="407" r="5"/><circle cx="1246" cy="452" r="6"/><circle cx="1331" cy="431" r="4"/><circle cx="1363" cy="469" r="5"/><circle cx="1447" cy="475" r="5"/><circle cx="1558" cy="411" r="6"/><circle cx="1609" cy="461" r="5"/><circle cx="1699" cy="407" r="6"/><circle cx="1794" cy="401" r="5"/><circle cx="1909" cy="477" r="4"/><circle cx="1959" cy="420" r="5"/><circle cx="2004" cy="416" r="5"/><circle cx="2149" cy="409" r="4"/><circle cx="2193" cy="451" r="5"/><circle cx="2272" cy="460" r="6"/><circle cx="2337" cy="407" r="5"/><circle cx="2470" cy="429" r="4"/><circle cx="2521" cy="451" r="6"/><circle cx="53" cy="539" r="5"/><circle cx="155" cy="485" r="4"/><circle cx="214" cy="554" r="4"/><circle cx="254" cy="539" r="5"/><circle cx="353" cy="557" r="5"/><circle cx="457" cy="490" r="6"/><circle cx="512" cy="550" r="6"/><circle cx="637" cy="509" r="5"/><circle cx="692" cy="519" r="5"/><circle cx="787" cy="523" r="4"/><circle cx="833" cy="531" r="4"/><circle cx="939" cy="539" r="5"/><circle cx="1009" cy="488" r="6"/><circle cx="1101" cy="482" r="5"/><circle cx="1196" cy="514" r="6"/><circle cx="1269" cy="551" r="6"/><circle cx="1343" cy="538" r="6"/><circle cx="1366" cy="534" r="5"/><circle cx="1443" cy="536" r="4"/><circle cx="1538" cy="523" r="5"/><circle cx="1639" cy="482" r="6"/><circle cx="1696" cy="545" r="5"/><circle cx="1839" cy="513" r="5"/><circle cx="1910" cy="505" r="4"/><circle cx="1966" cy="538" r="6"/><circle cx="2008" cy="505" r="6"/><circle cx="2127" cy="553" r="5"/><circle cx="2184" cy="491" r="5"/><circle cx="2276" cy="548" r="6"/><circle cx="2382" cy="543" r="6"/><circle cx="2457" cy="526" r="5"/><circle cx="2505" cy="518" r="4"/><circle cx="54" cy="634" r="6"/><circle cx="130" cy="590" r="6"/><circle cx="204" cy="637" r="6"/><circle cx="259" cy="569" r="5"/><circle cx="396" cy="566" r="6"/><circle cx="464" cy="607" r="5"/><circle cx="549" cy="596" r="5"/><circle cx="575" cy="573" r="4"/><circle cx="719" cy="630" r="5"/><circle cx="721" cy="611" r="6"/><circle cx="830" cy="590" r="6"/><circle cx="891" cy="600" r="5"/><circle cx="1040" cy="625" r="4"/><circle cx="1079" cy="593" r="5"/><circle cx="1173" cy="570" r="6"/><circle cx="1201" cy="640" r="4"/><circle cx="1322" cy="629" r="4"/><circle cx="1437" cy="563" r="4"/><circle cx="1501" cy="564" r="4"/><circle cx="1548" cy="628" r="6"/><circle cx="1602" cy="576" r="5"/><circle cx="1721" cy="596" r="5"/><circle cx="1797" cy="585" r="6"/><circle cx="1902" cy="568" r="5"/><circle cx="1945" cy="576" r="5"/><circle cx="2056" cy="596" r="4"/><circle cx="2145" cy="624" r="6"/><circle cx="2163" cy="613" r="5"/><circle cx="2283" cy="585" r="5"/><circle cx="2394" cy="589" r="6"/><circle cx="2463" cy="610" r="6"/><circle cx="2533" cy="567" r="5"/><circle cx="38" cy="661" r="4"/><circle cx="131" cy="685" r="5"/><circle cx="194" cy="692" r="5"/><circle cx="291" cy="718" r="4"/><circle cx="322" cy="682" r="4"/><circle cx="470" cy="690" r="5"/><circle cx="559" cy="651" r="5"/><circle cx="576" cy="684" r="5"/><circle cx="675" cy="709" r="6"/><circle cx="749" cy="664" r="6"/><circle cx="874" cy="686" r="6"/><circle cx="938" cy="669" r="6"/><circle cx="976" cy="664" r="5"/><circle cx="1092" cy="717" r="5"/><circle cx="1184" cy="720" r="5"/><circle cx="1256" cy="683" r="5"/><circle cx="1321" cy="640" r="6"/><circle cx="1423" cy="692" r="5"/><circle cx="1516" cy="712" r="5"/><circle cx="1594" cy="707" r="4"/><circle cx="1660" cy="687" r="5"/><circle cx="1721" cy="711" r="5"/><circle cx="1792" cy="680" r="6"/><circle cx="1885" cy="672" r="5"/><circle cx="1992" cy="678" r="4"/><circle cx="2052" cy="698" r="5"/><circle cx="2143" cy="690" r="6"/><circle cx="2224" cy="651" r="5"/><circle cx="2257" cy="647" r="5"/><circle cx="2328" cy="696" r="6"/><circle cx="2407" cy="707" r="5"/><circle cx="2488" cy="642" r="5"/><circle cx="11" cy="790" r="5"/><circle cx="123" cy="792" r="4"/><circle cx="228" cy="750" r="5"/><circle cx="314" cy="750" r="5"/><circle cx="356" cy="742" r="5"/><circle cx="441" cy="791" r="5"/><circle cx="542" cy="787" r="6"/><circle cx="630" cy="751" r="4"/><circle cx="649" cy="787" r="4"/><circle cx="796" cy="744" r="5"/><circle cx="820" cy="748" r="5"/><circle cx="899" cy="732" r="5"/><circle cx="1004" cy="724" r="4"/><circle cx="1067" cy="794" r="5"/><circle cx="1170" cy="756" r="5"/><circle cx="1260" cy="776" r="5"/><circle cx="1351" cy="745" r="4"/><circle cx="1408" cy="784" r="5"/><circle cx="1470" cy="744" r="5"/><circle cx="1586" cy="722" r="6"/><circle cx="1629" cy="799" r="5"/><circle cx="1743" cy="733" r="5"/><circle cx="1766" cy="740" r="6"/><circle cx="1904" cy="720" r="5"/><circle cx="1976" cy="742" r="5"/><circle cx="2057" cy="772" r="5"/><circle cx="2089" cy="786" r="5"/><circle cx="2234" cy="770" r="5"/><circle cx="2298" cy="741" r="6"/><circle cx="2337" cy="778" r="5"/><circle cx="2422" cy="794" r="5"/><circle cx="2496" cy="785" r="6"/><circle cx="40" cy="874" r="4"/><circle cx="99" cy="845" r="5"/><circle cx="176" cy="809" r="6"/><circle cx="305" cy="839" r="4"/><circle cx="359" cy="835" r="5"/><circle cx="432" cy="876" r="5"/><circle cx="503" cy="828" r="4"/><circle cx="563" cy="851" r="5"/><circle cx="683" cy="827" r="5"/><circle cx="727" cy="866" r="6"/><circle cx="872" cy="851" r="5"/><circle cx="939" cy="853" r="4"/><circle cx="1018" cy="842" r="4"/><circle cx="1072" cy="867" r="5"/><circle cx="1172" cy="807" r="4"/><circle cx="1225" cy="867" r="5"/><circle cx="1288" cy="835" r="4"/><circle cx="1363" cy="847" r="4"/><circle cx="1483" cy="866" r="5"/><circle cx="1576" cy="868" r="6"/><circle cx="1678" cy="846" r="5"/><circle cx="1698" cy="834" r="5"/><circle cx="1780" cy="822" r="5"/><circle cx="1893" cy="819" r="5"/><circle cx="1969" cy="873" r="5"/><circle cx="2069" cy="867" r="6"/><circle cx="2141" cy="834" r="4"/><circle cx="2160" cy="836" r="5"/><circle cx="2312" cy="870" r="6"/><circle cx="2340" cy="808" r="5"/><circle cx="2407" cy="818" r="6"/><circle cx="2506" cy="814" r="5"/><circle cx="35" cy="916" r="4"/><circle cx="110" cy="927" r="6"/><circle cx="175" cy="904" r="5"/><circle cx="308" cy="951" r="5"/><circle cx="359" cy="929" r="4"/><circle cx="404" cy="922" r="5"/><circle cx="548" cy="888" r="6"/><circle cx="571" cy="955" r="4"/><circle cx="667" cy="905" r="4"/><circle cx="779" cy="901" r="5"/><circle cx="817" cy="934" r="6"/><circle cx="914" cy="959" r="6"/><circle cx="997" cy="944" r="4"/><circle cx="1088" cy="900" r="5"/><circle cx="1130" cy="924" r="6"/><circle cx="1267" cy="911" r="5"/><circle cx="1344" cy="895" r="5"/><circle cx="1424" cy="938" r="6"/><circle cx="1454" cy="942" r="4"/><circle cx="1599" cy="944" r="4"/><circle cx="1651" cy="932" r="5"/><circle cx="1734" cy="913" r="4"/><circle cx="1800" cy="902" r="5"/><circle cx="1879" cy="928" r="5"/><circle cx="1928" cy="955" r="5"/><circle cx="2063" cy="916" r="6"/><circle cx="2097" cy="909" r="5"/><circle cx="2220" cy="897" r="5"/><circle cx="2312" cy="895" r="5"/><circle cx="2324" cy="916" r="5"/><circle cx="2437" cy="943" r="4"/><circle cx="2496" cy="882" r="4"/><circle cx="35" cy="1010" r="5"/><circle cx="116" cy="1011" r="6"/><circle cx="195" cy="995" r="4"/><circle cx="264" cy="998" r="5"/><circle cx="391" cy="1009" r="6"/><circle cx="458" cy="998" r="4"/><circle cx="526" cy="1040" r="4"/><circle cx="624" cy="1028" r="5"/><circle cx="714" cy="962" r="5"/><circle cx="726" cy="986" r="4"/><circle cx="803" cy="1027" r="4"/><circle cx="892" cy="985" r="6"/><circle cx="1016" cy="1035" r="6"/><circle cx="1042" cy="1033" r="5"/><circle cx="1177" cy="1028" r="5"/><circle cx="1200" cy="1019" r="6"/><circle cx="1303" cy="978" r="4"/><circle cx="1391" cy="1039" r="5"/><circle cx="1458" cy="965" r="6"/><circle cx="1531" cy="970" r="5"/><circle cx="1639" cy="1008" r="4"/><circle cx="1749" cy="1000" r="5"/><circle cx="1819" cy="979" r="5"/><circle cx="1879" cy="1001" r="4"/><circle cx="1926" cy="989" r="6"/><circle cx="2059" cy="975" r="5"/><circle cx="2115" cy="1014" r="5"/><circle cx="2177" cy="1025" r="4"/><circle cx="2285" cy="1039" r="5"/><circle cx="2385" cy="999" r="5"/><circle cx="2441" cy="972" r="6"/><circle cx="2505" cy="980" r="4"/><circle cx="72" cy="1068" r="5"/><circle cx="114" cy="1113" r="4"/><circle cx="193" cy="1093" r="6"/><circle cx="313" cy="1086" r="5"/><circle cx="325" cy="1103" r="4"/><circle cx="435" cy="1047" r="4"/><circle cx="505" cy="1043" r="5"/><circle cx="625" cy="1118" r="4"/><circle cx="714" cy="1054" r="5"/><circle cx="773" cy="1075" r="5"/><circle cx="824" cy="1077" r="5"/><circle cx="929" cy="1058" r="5"/><circle cx="982" cy="1067" r="5"/><circle cx="1072" cy="1040" r="4"/><circle cx="1125" cy="1067" r="4"/><circle cx="1267" cy="1050" r="4"/><circle cx="1298" cy="1048" r="5"/><circle cx="1417" cy="1041" r="4"/><circle cx="1465" cy="1110" r="6"/><circle cx="1562" cy="1064" r="5"/><circle cx="1676" cy="1082" r="5"/><circle cx="1699" cy="1114" r="5"/><circle cx="1782" cy="1051" r="5"/><circle cx="1866" cy="1086" r="5"/><circle cx="1944" cy="1111" r="5"/><circle cx="2064" cy="1092" r="6"/><circle cx="2081" cy="1111" r="4"/><circle cx="2200" cy="1089" r="4"/><circle cx="2313" cy="1106" r="4"/><circle cx="2399" cy="1089" r="4"/><circle cx="2442" cy="1105" r="6"/><circle cx="2546" cy="1063" r="5"/><circle cx="31" cy="1196" r="4"/><circle cx="124" cy="1183" r="4"/><circle cx="222" cy="1169" r="5"/><circle cx="268" cy="1139" r="5"/><circle cx="359" cy="1151" r="5"/><circle cx="401" cy="1171" r="5"/><circle cx="489" cy="1154" r="5"/><circle cx="585" cy="1134" r="5"/><circle cx="709" cy="1181" r="4"/><circle cx="789" cy="1199" r="5"/><circle cx="858" cy="1176" r="5"/><circle cx="899" cy="1129" r="6"/><circle cx="1006" cy="1154" r="6"/><circle cx="1076" cy="1188" r="5"/><circle cx="1196" cy="1152" r="5"/><circle cx="1268" cy="1124" r="5"/><circle cx="1288" cy="1193" r="6"/><circle cx="1393" cy="1132" r="5"/><circle cx="1456" cy="1198" r="5"/><circle cx="1520" cy="1150" r="6"/><circle cx="1612" cy="1135" r="5"/><circle cx="1681" cy="1144" r="4"/><circle cx="1795" cy="1196" r="5"/><circle cx="1842" cy="1142" r="5"/><circle cx="1988" cy="1140" r="5"/><circle cx="2038" cy="1133" r="4"/><circle cx="2134" cy="1187" r="5"/><circle cx="2209" cy="1149" r="5"/><circle cx="2317" cy="1185" r="5"/><circle cx="2367" cy="1123" r="6"/><circle cx="2405" cy="1129" r="6"/><circle cx="2541" cy="1172" r="4"/><circle cx="80" cy="1273" r="6"/><circle cx="84" cy="1219" r="4"/><circle cx="235" cy="1269" r="6"/><circle cx="282" cy="1234" r="5"/><circle cx="398" cy="1278" r="5"/><circle cx="473" cy="1221" r="5"/><circle cx="544" cy="1221" r="6"/><circle cx="622" cy="1271" r="4"/><circle cx="680" cy="1212" r="6"/><circle cx="779" cy="1251" r="5"/><circle cx="815" cy="1208" r="6"/><circle cx="943" cy="1277" r="6"/><circle cx="1008" cy="1243" r="6"/><circle cx="1063" cy="1226" r="5"/><circle cx="1141" cy="1277" r="6"/><circle cx="1214" cy="1251" r="5"/><circle cx="1288" cy="1266" r="6"/><circle cx="1383" cy="1202" r="6"/><circle cx="1445" cy="1260" r="5"/><circle cx="1573" cy="1223" r="5"/><circle cx="1671" cy="1224" r="5"/><circle cx="1709" cy="1210" r="5"/><circle cx="1826" cy="1234" r="4"/><circle cx="1892" cy="1247" r="6"/><circle cx="1990" cy="1244" r="6"/><circle cx="2056" cy="1267" r="5"/><circle cx="2107" cy="1229" r="4"/><circle cx="2194" cy="1278" r="4"/><circle cx="2281" cy="1249" r="6"/><circle cx="2348" cy="1225" r="5"/><circle cx="2415" cy="1244" r="4"/><circle cx="2549" cy="1221" r="4"/><circle cx="20" cy="1358" r="4"/><circle cx="130" cy="1329" r="6"/><circle cx="200" cy="1281" r="5"/><circle cx="243" cy="1351" r="6"/><circle cx="387" cy="1354" r="6"/><circle cx="418" cy="1316" r="5"/><circle cx="518" cy="1320" r="5"/><circle cx="568" cy="1326" r="5"/><circle cx="692" cy="1340" r="4"/><circle cx="769" cy="1325" r="4"/><circle cx="859" cy="1310" r="4"/><circle cx="951" cy="1294" r="5"/><circle cx="1033" cy="1358" r="4"/><circle cx="1059" cy="1326" r="5"/><circle cx="1196" cy="1330" r="6"/><circle cx="1269" cy="1284" r="5"/><circle cx="1331" cy="1319" r="4"/><circle cx="1370" cy="1346" r="5"/><circle cx="1472" cy="1323" r="5"/><circle cx="1577" cy="1321" r="4"/><circle cx="1642" cy="1341" r="6"/><circle cx="1741" cy="1336" r="6"/><circle cx="1832" cy="1283" r="5"/><circle cx="1898" cy="1289" r="5"/><circle cx="1991" cy="1286" r="4"/><circle cx="2075" cy="1297" r="4"/><circle cx="2132" cy="1358" r="6"/><circle cx="2229" cy="1320" r="5"/><circle cx="2297" cy="1321" r="4"/><circle cx="2390" cy="1333" r="6"/><circle cx="2457" cy="1296" r="5"/><circle cx="2499" cy="1327" r="5"/><circle cx="53" cy="1417" r="5"/><circle cx="133" cy="1374" r="4"/><circle cx="237" cy="1411" r="4"/><circle cx="283" cy="1412" r="5"/><circle cx="353" cy="1381" r="6"/><circle cx="476" cy="1439" r="5"/><circle cx="476" cy="-1" r="5"/><circle cx="522" cy="1371" r="5"/><circle cx="570" cy="1365" r="5"/><circle cx="715" cy="1414" r="5"/><circle cx="754" cy="1365" r="4"/><circle cx="862" cy="1378" r="6"/><circle cx="897" cy="1412" r="5"/><circle cx="1029" cy="1419" r="6"/><circle cx="1114" cy="1428" r="5"/><circle cx="1194" cy="1434" r="5"/><circle cx="1211" cy="1376" r="6"/><circle cx="1358" cy="1370" r="4"/><circle cx="1372" cy="1416" r="4"/><circle cx="1493" cy="1428" r="5"/><circle cx="1559" cy="1364" r="5"/><circle cx="1671" cy="1412" r="5"/><circle cx="1685" cy="1416" r="5"/><circle cx="1836" cy="1404" r="4"/><circle cx="1917" cy="1373" r="5"/><circle cx="1979" cy="1365" r="4"/><circle cx="2056" cy="1402" r="4"/><circle cx="2090" cy="1435" r="6"/><circle cx="2090" cy="-5" r="6"/><circle cx="2209" cy="1436" r="5"/><circle cx="2209" cy="-4" r="5"/><circle cx="2260" cy="1432" r="4"/><circle cx="2360" cy="1403" r="4"/><circle cx="2461" cy="1397" r="4"/><circle cx="2529" cy="1380" r="5"/><path stroke="#fff" d="M63 4L87 27M63 4L-27 15M63 4L20 -82M63 4L53 -23M63 4L133 -66M2623 4L2533 15M63 1444L20 1358M63 1444L53 1417M63 1444L133 1374M87 27L145 109M87 27L53 -23M87 27L133 -66M87 1467L53 1417M87 1467L133 1374M192 14L145 109M192 14L191 124M192 14L133 -66M192 14L237 -29M192 14L283 -28M192 1454L133 1374M192 1454L237 1411M192 1454L283 1412M300 28L360 80M300 28L325 88M300 28L237 -29M300 28L283 -28M300 28L353 -59M300 1468L237 1411M300 1468L283 1412M300 1468L353 1381M360 80L325 88M476 10L521 52M476 10L474 135M476 10L476 -1M476 10L522 -69M476 1450L476 1439M476 1450L522 1371M521 52L592 44M521 52L474 135M521 52L535 104M521 52L476 -1M521 1492L476 1439M592 44L662 18M592 44L535 104M592 44L609 92M592 44L643 123M662 18L753 65M662 18L609 92M662 18L643 123M662 18L715 -26M662 1458L715 1414M753 65L828 16M753 65L770 98M753 65L715 -26M753 1505L715 1414M828 16L884 73M828 16L770 98M828 16L862 -62M828 16L897 -28M828 1456L862 1378M828 1456L897 1412M884 73L842 122M884 73L920 104M884 73L870 188M884 73L897 -28M884 1513L897 1412M1023 20L1119 34M1023 20L1038 83M1023 20L1033 -82M1023 20L1029 -21M1023 20L1114 -12M1023 1460L1033 1358M1023 1460L1029 1419M1023 1460L1114 1428M1119 34L1135 72M1119 34L1114 -12M1119 34L1194 -6M1119 1474L1114 1428M1119 1474L1194 1434M1135 72L1074 149M1135 72L1154 152M1135 72L1215 107M1135 72L1114 -12M1135 1512L1114 1428M1253 27L1358 44M1253 27L1215 107M1253 27L1194 -6M1253 27L1211 -64M1253 1467L1194 1434M1253 1467L1211 1376M1358 44L1372 31M1358 44L1298 122M1358 44L1434 101M1358 44L1372 -24M1358 1484L1372 1416M1372 31L1434 101M1372 31L1358 -70M1372 31L1372 -24M1372 1471L1358 1370M1372 1471L1372 1416M1470 57L1434 101M1470 57L1505 89M1470 57L1547 120M1470 57L1493 -12M1470 1497L1493 1428M1571 18L1624 35M1571 18L1505 89M1571 18L1493 -12M1571 18L1559 -76M1571 1458L1493 1428M1571 1458L1559 1364M1624 35L1702 96M1624 35L1671 -28M1624 35L1685 -24M1624 1475L1671 1412M1624 1475L1685 1416M1734 59L1775 32M1734 59L1702 96M1734 59L1789 134M1734 59L1671 -28M1734 59L1685 -24M1734 1499L1671 1412M1734 1499L1685 1416M1775 32L1851 61M1775 32L1836 -36M1775 1472L1836 1404M1851 61L1929 14M1851 61L1789 134M1851 61L1885 93M1851 61L1836 -36M1851 1501L1836 1404M1929 14L1885 93M1929 14L1917 -67M1929 14L1979 -75M1929 1454L1917 1373M1929 1454L1979 1365M2058 45L2129 25M2058 45L1986 117M2058 45L2010 98M2058 45L2056 -38M2058 45L2090 -5M2058 1485L2056 1402M2058 1485L2090 1435M2129 25L2223 13M2129 25L2132 -82M2129 25L2090 -5M2129 25L2209 -4M2129 1465L2132 1358M2129 1465L2090 1435M2129 1465L2209 1436M2223 13L2311 37M2223 13L2238 112M2223 13L2209 -4M2223 13L2260 -8M2223 1453L2209 1436M2223 1453L2260 1432M2311 37L2390 75M2311 37L2315 129M2311 37L2260 -8M2311 37L2360 -37M2311 1477L2260 1432M2311 1477L2360 1403M2390 75L2471 36M2390 75L2315 129M2390 75L2323 147M2390 75L2449 84M2471 36L2533 15M2471 36L2449 84M2471 36L2532 112M2471 36L2461 -43M2471 1476L2461 1397M2533 15L2613 -23M2533 15L2461 -43M2533 15L2529 -60M-27 15L53 -23M-27 1455L53 1417M2533 1455L2613 1417M2533 1455L2461 1397M2533 1455L2529 1380M14 130L-28 112M14 130L47 211M14 130L127 163M14 130L-66 211M2574 130L2532 112M2574 130L2494 211M145 109L191 124M145 109L127 163M145 109L176 198M191 124L279 151M191 124L127 163M191 124L176 198M279 151L325 88M279 151L251 231M279 151L342 214M279 151L300 261M474 135L535 104M474 135L451 238M474 135L540 189M535 104L609 92M535 104L540 189M609 92L643 123M609 92L589 200M643 123L589 200M643 123L675 196M770 98L842 122M842 122L920 104M842 122L870 188M842 122L896 214M920 104L870 188M1038 83L1074 149M1038 83L1020 189M1038 83L1045 192M1038 83L1029 -21M1038 1523L1029 1419M1074 149L1154 152M1074 149L1020 189M1074 149L1045 192M1154 152L1215 107M1154 152L1179 189M1154 152L1229 163M1215 107L1298 122M1215 107L1229 163M1298 122L1229 163M1298 122L1301 219M1298 122L1369 181M1434 101L1505 89M1434 101L1452 178M1505 89L1547 120M1505 89L1493 -12M1505 1529L1493 1428M1547 120L1452 178M1547 120L1599 171M1652 159L1702 96M1652 159L1599 171M1652 159L1652 223M1652 159L1685 193M1702 96L1789 134M1789 134L1766 201M1885 93L1986 117M1885 93L1874 191M1885 93L1920 186M1986 117L2010 98M1986 117L1920 186M1986 117L2050 198M2010 98L2105 135M2010 98L2081 172M2105 135L2050 198M2105 135L2081 172M2105 135L2208 176M2238 112L2315 129M2238 112L2323 147M2238 112L2208 176M2315 129L2323 147M2315 129L2358 196M2323 147L2247 231M2323 147L2358 196M2449 84L2532 112M2532 112L2494 211M47 211L127 163M47 211L32 276M47 211L-3 260M2607 211L2557 260M127 163L176 198M176 198L251 231M176 198L160 292M251 231L342 214M251 231L160 292M251 231L300 261M342 214L300 261M342 214L386 291M451 238L540 189M451 238L386 291M451 238L416 306M451 238L504 274M540 189L589 200M540 189L504 274M589 200L675 196M589 200L573 308M675 196L727 223M675 196L726 287M727 223L683 313M727 223L726 287M870 188L896 214M870 188L867 286M896 214L867 286M896 214L935 309M896 214L989 252M1020 189L1045 192M1020 189L989 252M1020 189L1079 260M1045 192L989 252M1045 192L1079 260M1179 189L1229 163M1229 163L1301 219M1301 219L1369 181M1301 219L1274 294M1301 219L1294 310M1369 181L1452 178M1599 171L1652 223M1599 171L1685 193M1599 171L1615 259M1652 223L1685 193M1652 223L1615 259M1652 223L1689 270M1685 193L1766 201M1685 193L1689 270M1766 201L1874 191M1874 191L1920 186M1874 191L1822 297M1874 191L1868 276M1920 186L1868 276M2050 198L2081 172M2208 176L2247 231M2247 231L2358 196M2247 231L2228 309M2247 231L2250 314M2358 196L2461 231M2358 196L2359 274M2461 231L2494 211M2461 231L2359 274M2461 231L2472 315M2494 211L2472 315M2494 211L2557 260M32 276L95 295M32 276L-3 260M32 276L33 352M32 276L-54 336M2592 276L2557 260M2592 276L2506 336M95 295L160 292M95 295L33 352M95 295L139 342M160 292L139 342M160 292L202 376M300 261L386 291M300 261L260 349M386 291L416 306M386 291L400 344M416 306L504 274M416 306L400 344M504 274L573 308M504 274L524 344M573 308L524 344M573 308L615 360M573 308L642 374M683 313L726 287M683 313L615 360M683 313L642 374M683 313L787 375M726 287L787 375M867 286L935 309M867 286L816 354M935 309L989 252M935 309L929 381M935 309L918 421M989 252L1079 260M1079 260L1139 319M1079 260L1122 321M1139 319L1122 321M1139 319L1150 407M1274 294L1294 310M1274 294L1258 329M1294 310L1258 329M1294 310L1343 355M1294 310L1375 338M1378 314L1460 309M1378 314L1343 355M1378 314L1375 338M1378 314L1440 370M1460 309L1375 338M1460 309L1440 370M1592 314L1615 259M1592 314L1578 324M1592 314L1661 338M1592 314L1690 329M1592 314L1558 411M1615 259L1689 270M1615 259L1578 324M1689 270L1661 338M1689 270L1690 329M1822 297L1868 276M1822 297L1794 390M1822 297L1898 328M1822 297L1794 401M1868 276L1898 328M1997 296L2006 314M1997 296L2110 312M1997 296L1898 328M1997 296L1957 354M1997 296L2040 323M2006 314L2110 312M2006 314L1957 354M2006 314L2040 323M2006 314L2004 416M2110 312L2040 323M2110 312L2152 397M2228 309L2250 314M2228 309L2214 372M2228 309L2258 339M2250 314L2214 372M2250 314L2258 339M2250 314L2341 322M2359 274L2341 322M2359 274L2406 347M2472 315L2557 260M2472 315L2406 347M2472 315L2506 336M2557 260L2593 352M-3 260L33 352M33 352L-54 336M33 352L15 444M2593 352L2506 336M139 342L202 376M139 342L260 349M139 342L129 459M202 376L260 349M202 376L275 436M260 349L275 436M400 344L474 396M400 344L378 414M400 344L432 416M474 396L524 344M474 396L432 416M474 396L489 419M474 396L457 490M524 344L615 360M524 344L489 419M615 360L642 374M615 360L589 428M642 374L589 428M642 374L650 475M787 375L816 354M787 375L771 473M787 375L813 418M816 354L929 381M816 354L813 418M929 381L1034 368M929 381L918 421M929 381L980 468M1034 368L1053 392M1034 368L1122 321M1034 368L1108 405M1053 392L980 468M1053 392L1108 405M1053 392L1009 488M1122 321L1108 405M1122 321L1150 407M1343 355L1375 338M1343 355L1440 370M1343 355L1331 431M1375 338L1440 370M1440 370L1447 475M1578 324L1661 338M1578 324L1690 329M1578 324L1558 411M1661 338L1690 329M1661 338L1699 407M1690 329L1699 407M1794 390L1699 407M1794 390L1794 401M1898 328L1957 354M1957 354L1959 420M1957 354L2004 416M2040 323L2004 416M2152 397L2214 372M2152 397L2149 409M2152 397L2193 451M2214 372L2258 339M2214 372L2193 451M2258 339L2341 322M2258 339L2337 407M2341 322L2406 347M2341 322L2337 407M2406 347L2506 336M2406 347L2337 407M2506 336L2470 429M15 444L-90 429M15 444L-39 451M15 444L53 539M2575 444L2470 429M2575 444L2521 451M129 459L209 477M129 459L53 539M129 459L155 485M209 477L275 436M209 477L155 485M209 477L214 554M209 477L254 539M275 436L378 414M275 436L254 539M378 414L432 416M432 416L489 419M432 416L457 490M489 419L589 428M489 419L457 490M589 428L650 475M589 428L637 509M650 475L637 509M650 475L692 519M771 473L813 418M771 473L692 519M771 473L787 523M771 473L833 531M813 418L918 421M918 421L980 468M918 421L1009 488M980 468L939 539M980 468L1009 488M1108 405L1150 407M1108 405L1101 482M1150 407L1246 452M1150 407L1101 482M1246 452L1331 431M1246 452L1363 469M1246 452L1196 514M1246 452L1269 551M1331 431L1363 469M1363 469L1447 475M1363 469L1343 538M1363 469L1366 534M1447 475L1443 536M1447 475L1437 563M1558 411L1609 461M1558 411L1639 482M1609 461L1538 523M1609 461L1639 482M1609 461L1602 576M1699 407L1794 401M1699 407L1639 482M1909 477L1959 420M1909 477L1839 513M1909 477L1910 505M1909 477L1966 538M1909 477L1902 568M1959 420L2004 416M1959 420L2008 505M2004 416L2008 505M2149 409L2193 451M2149 409L2184 491M2193 451L2272 460M2193 451L2184 491M2272 460L2337 407M2272 460L2184 491M2272 460L2276 548M2470 429L2521 451M2470 429L2505 518M2521 451L2505 518M53 539L54 634M53 539L130 590M53 539L-27 567M2613 539L2533 567M214 554L254 539M214 554L130 590M214 554L204 637M214 554L259 569M254 539L353 557M254 539L259 569M353 557L259 569M353 557L396 566M457 490L512 550M457 490L396 566M512 550L396 566M512 550L464 607M512 550L549 596M512 550L575 573M637 509L692 519M637 509L575 573M692 519L787 523M692 519L721 611M787 523L833 531M787 523L830 590M833 531L939 539M833 531L830 590M833 531L891 600M939 539L1009 488M939 539L891 600M1009 488L1101 482M1101 482L1196 514M1101 482L1173 570M1196 514L1269 551M1196 514L1173 570M1196 514L1201 640M1269 551L1343 538M1269 551L1366 534M1269 551L1173 570M1343 538L1366 534M1343 538L1322 629M1343 538L1321 640M1366 534L1443 536M1366 534L1437 563M1443 536L1437 563M1443 536L1501 564M1538 523L1501 564M1538 523L1602 576M1639 482L1696 545M1639 482L1602 576M1696 545L1602 576M1696 545L1721 596M1696 545L1797 585M1839 513L1910 505M1839 513L1797 585M1839 513L1902 568M1910 505L1966 538M1910 505L1902 568M1910 505L1945 576M1966 538L2008 505M1966 538L1902 568M1966 538L1945 576M2008 505L1945 576M2008 505L2056 596M2127 553L2184 491M2127 553L2056 596M2127 553L2145 624M2127 553L2163 613M2184 491L2276 548M2276 548L2382 543M2276 548L2283 585M2276 548L2257 647M2382 543L2457 526M2382 543L2283 585M2382 543L2394 589M2382 543L2463 610M2457 526L2505 518M2457 526L2394 589M2457 526L2463 610M2457 526L2533 567M2505 518L2533 567M54 634L130 590M54 634L38 661M54 634L131 685M130 590L204 637M130 590L131 685M204 637L259 569M204 637L131 685M204 637L194 692M259 569L396 566M396 566L464 607M464 607L549 596M464 607L470 690M464 607L559 651M549 596L575 573M549 596L559 651M549 596L576 684M575 573L559 651M719 630L721 611M719 630L675 709M719 630L749 664M721 611L749 664M830 590L891 600M830 590L749 664M891 600L874 686M891 600L938 669M1040 625L1079 593M1040 625L976 664M1040 625L1092 717M1040 625L1004 724M1079 593L1173 570M1079 593L976 664M1173 570L1201 640M1201 640L1184 720M1201 640L1256 683M1322 629L1256 683M1322 629L1321 640M1437 563L1501 564M1501 564L1548 628M1548 628L1602 576M1548 628L1516 712M1548 628L1594 707M1548 628L1586 722M1721 596L1797 585M1721 596L1721 711M1797 585L1792 680M1902 568L1945 576M1945 576L1885 672M2056 596L2145 624M2145 624L2163 613M2145 624L2143 690M2145 624L2224 651M2163 613L2143 690M2163 613L2224 651M2283 585L2394 589M2283 585L2224 651M2283 585L2257 647M2394 589L2463 610M2394 589L2488 642M2463 610L2533 567M2463 610L2488 642M2533 567L2488 642M38 661L131 685M38 661L-72 642M2598 661L2488 642M131 685L194 692M194 692L291 718M194 692L228 750M194 692L176 809M291 718L322 682M291 718L228 750M291 718L314 750M291 718L356 742M322 682L314 750M322 682L356 742M470 690L559 651M559 651L576 684M576 684L675 709M576 684L630 751M675 709L749 664M675 709L630 751M675 709L649 787M749 664L796 744M874 686L938 669M874 686L796 744M874 686L820 748M874 686L899 732M938 669L976 664M938 669L899 732M938 669L1004 724M976 664L899 732M976 664L1004 724M1092 717L1184 720M1092 717L1004 724M1092 717L1067 794M1092 717L1170 756M1184 720L1256 683M1184 720L1170 756M1184 720L1260 776M1256 683L1321 640M1256 683L1260 776M1321 640L1423 692M1321 640L1351 745M1423 692L1516 712M1423 692L1351 745M1423 692L1408 784M1423 692L1470 744M1516 712L1594 707M1516 712L1470 744M1516 712L1586 722M1594 707L1660 687M1594 707L1586 722M1594 707L1629 799M1660 687L1721 711M1660 687L1586 722M1660 687L1743 733M1660 687L1766 740M1721 711L1792 680M1721 711L1743 733M1721 711L1766 740M1792 680L1885 672M1792 680L1743 733M1792 680L1766 740M1885 672L1992 678M1885 672L1904 720M1885 672L1976 742M1992 678L2052 698M1992 678L1904 720M1992 678L1976 742M2052 698L2143 690M2052 698L1976 742M2052 698L2057 772M2052 698L2089 786M2143 690L2224 651M2224 651L2257 647M2257 647L2328 696M2257 647L2298 741M2328 696L2407 707M2328 696L2298 741M2328 696L2337 778M11 790L123 792M11 790L-64 785M11 790L40 874M11 790L-54 814M2571 790L2496 785M2571 790L2506 814M123 792L228 750M123 792L99 845M123 792L176 809M228 750L314 750M228 750L176 809M314 750L356 742M356 742L441 791M356 742L359 835M441 791L542 787M441 791L359 835M441 791L432 876M441 791L503 828M542 787L630 751M542 787L503 828M542 787L563 851M542 787L548 888M630 751L649 787M630 751L683 827M649 787L683 827M796 744L820 748M796 744L899 732M820 748L899 732M820 748L872 851M1004 724L1067 794M1067 794L1170 756M1067 794L1018 842M1067 794L1072 867M1170 756L1260 776M1170 756L1172 807M1260 776L1225 867M1260 776L1288 835M1351 745L1408 784M1351 745L1363 847M1408 784L1470 744M1408 784L1363 847M1586 722L1629 799M1629 799L1576 868M1629 799L1678 846M1629 799L1698 834M1743 733L1766 740M1743 733L1780 822M1766 740L1780 822M1904 720L1976 742M1904 720L1893 819M1976 742L2057 772M2057 772L2089 786M2057 772L2069 867M2089 786L2069 867M2089 786L2141 834M2089 786L2160 836M2234 770L2298 741M2234 770L2160 836M2298 741L2337 778M2298 741L2340 808M2337 778L2422 794M2337 778L2340 808M2337 778L2407 818M2422 794L2496 785M2422 794L2340 808M2422 794L2407 818M2422 794L2506 814M2496 785L2407 818M2496 785L2506 814M2496 785L2496 882M40 874L99 845M40 874L35 916M40 874L110 927M99 845L176 809M99 845L110 927M99 845L175 904M176 809L175 904M305 839L359 835M305 839L308 951M305 839L359 929M359 835L432 876M359 835L404 922M432 876L503 828M432 876L359 929M432 876L404 922M503 828L563 851M503 828L548 888M563 851L683 827M563 851L548 888M563 851L571 955M683 827L727 866M683 827L667 905M727 866L667 905M727 866L779 901M727 866L714 962M872 851L939 853M872 851L779 901M872 851L817 934M872 851L914 959M939 853L1018 842M1018 842L1072 867M1018 842L1088 900M1072 867L997 944M1072 867L1088 900M1072 867L1130 924M1172 807L1225 867M1225 867L1288 835M1225 867L1130 924M1225 867L1267 911M1288 835L1363 847M1288 835L1267 911M1288 835L1344 895M1363 847L1344 895M1483 866L1576 868M1483 866L1424 938M1483 866L1454 942M1483 866L1531 970M1576 868L1678 846M1576 868L1599 944M1576 868L1651 932M1678 846L1698 834M1678 846L1651 932M1678 846L1734 913M1698 834L1780 822M1698 834L1734 913M1780 822L1893 819M1780 822L1800 902M1893 819L1969 873M1969 873L1928 955M1969 873L2063 916M2069 867L2141 834M2069 867L2063 916M2069 867L2097 909M2141 834L2160 836M2141 834L2097 909M2141 834L2220 897M2160 836L2097 909M2160 836L2220 897M2312 870L2340 808M2312 870L2220 897M2312 870L2312 895M2312 870L2324 916M2340 808L2407 818M2407 818L2506 814M2506 814L2496 882M35 916L110 927M35 916L35 1010M110 927L175 904M110 927L116 1011M175 904L195 995M308 951L359 929M308 951L404 922M308 951L264 998M308 951L391 1009M359 929L404 922M359 929L391 1009M404 922L391 1009M548 888L571 955M548 888L667 905M571 955L526 1040M571 955L624 1028M571 955L505 1043M667 905L714 962M779 901L817 934M779 901L714 962M779 901L726 986M817 934L914 959M817 934L803 1027M817 934L892 985M914 959L997 944M914 959L892 985M914 959L929 1058M997 944L1016 1035M997 944L1042 1033M1088 900L1130 924M1130 924L1177 1028M1130 924L1200 1019M1267 911L1344 895M1267 911L1303 978M1344 895L1424 938M1344 895L1303 978M1424 938L1454 942M1424 938L1458 965M1454 942L1458 965M1454 942L1531 970M1454 942L1417 1041M1599 944L1651 932M1599 944L1531 970M1599 944L1639 1008M1651 932L1734 913M1651 932L1639 1008M1734 913L1800 902M1734 913L1749 1000M1800 902L1879 928M1800 902L1749 1000M1800 902L1819 979M1879 928L1928 955M1879 928L1819 979M1879 928L1879 1001M1879 928L1926 989M1928 955L1879 1001M1928 955L1926 989M2063 916L2097 909M2063 916L2059 975M2063 916L2115 1014M2097 909L2059 975M2220 897L2312 895M2220 897L2324 916M2312 895L2324 916M2324 916L2385 999M2437 943L2496 882M2437 943L2385 999M2437 943L2441 972M2437 943L2505 980M2496 882L2441 972M2496 882L2505 980M35 1010L116 1011M35 1010L-55 980M35 1010L72 1068M35 1010L-14 1063M2595 1010L2505 980M2595 1010L2546 1063M116 1011L195 995M116 1011L72 1068M116 1011L193 1093M195 995L264 998M195 995L193 1093M264 998L313 1086M391 1009L458 998M391 1009L435 1047M458 998L526 1040M458 998L435 1047M458 998L505 1043M526 1040L624 1028M526 1040L435 1047M526 1040L505 1043M624 1028L625 1118M624 1028L714 1054M714 962L726 986M714 962L714 1054M726 986L714 1054M726 986L773 1075M803 1027L892 985M803 1027L714 1054M803 1027L773 1075M803 1027L824 1077M892 985L824 1077M892 985L929 1058M1016 1035L1042 1033M1016 1035L929 1058M1016 1035L982 1067M1016 1035L1072 1040M1042 1033L982 1067M1042 1033L1072 1040M1042 1033L1125 1067M1177 1028L1200 1019M1177 1028L1072 1040M1177 1028L1125 1067M1177 1028L1267 1050M1200 1019L1125 1067M1200 1019L1267 1050M1200 1019L1298 1048M1303 978L1267 1050M1303 978L1298 1048M1391 1039L1458 965M1391 1039L1298 1048M1391 1039L1417 1041M1391 1039L1465 1110M1391 1039L1393 1132M1458 965L1531 970M1458 965L1417 1041M1531 970L1562 1064M1639 1008L1562 1064M1639 1008L1676 1082M1749 1000L1819 979M1749 1000L1782 1051M1819 979L1879 1001M1819 979L1782 1051M1879 1001L1926 989M1879 1001L1866 1086M1926 989L1866 1086M2059 975L2115 1014M2059 975L2064 1092M2115 1014L2177 1025M2115 1014L2064 1092M2115 1014L2081 1111M2177 1025L2285 1039M2177 1025L2200 1089M2285 1039L2385 999M2285 1039L2200 1089M2285 1039L2313 1106M2385 999L2441 972M2385 999L2399 1089M2441 972L2505 980M2441 972L2442 1105M2505 980L2546 1063M72 1068L114 1113M72 1068L-14 1063M2632 1068L2546 1063M114 1113L193 1093M114 1113L124 1183M193 1093L222 1169M193 1093L268 1139M313 1086L325 1103M313 1086L268 1139M313 1086L359 1151M325 1103L268 1139M325 1103L359 1151M325 1103L401 1171M435 1047L505 1043M505 1043L489 1154M625 1118L585 1134M625 1118L709 1181M625 1118L680 1212M714 1054L773 1075M773 1075L824 1077M824 1077L858 1176M824 1077L899 1129M929 1058L982 1067M929 1058L899 1129M982 1067L899 1129M982 1067L1006 1154M1072 1040L1125 1067M1125 1067L1196 1152M1267 1050L1298 1048M1267 1050L1268 1124M1298 1048L1268 1124M1417 1041L1465 1110M1417 1041L1393 1132M1465 1110L1393 1132M1465 1110L1456 1198M1465 1110L1520 1150M1562 1064L1520 1150M1562 1064L1612 1135M1676 1082L1699 1114M1676 1082L1782 1051M1676 1082L1612 1135M1676 1082L1681 1144M1699 1114L1782 1051M1699 1114L1612 1135M1699 1114L1681 1144M1699 1114L1709 1210M1782 1051L1866 1086M1866 1086L1944 1111M1866 1086L1842 1142M1944 1111L1842 1142M1944 1111L1988 1140M1944 1111L2038 1133M2064 1092L2081 1111M2064 1092L1988 1140M2064 1092L2038 1133M2081 1111L1988 1140M2081 1111L2038 1133M2081 1111L2134 1187M2200 1089L2209 1149M2313 1106L2399 1089M2313 1106L2317 1185M2313 1106L2367 1123M2313 1106L2405 1129M2399 1089L2442 1105M2399 1089L2367 1123M2399 1089L2405 1129M2442 1105L2546 1063M2442 1105L2367 1123M2442 1105L2405 1129M2546 1063L2541 1172M31 1196L124 1183M31 1196L-19 1172M31 1196L80 1273M31 1196L84 1219M31 1196L-11 1221M2591 1196L2541 1172M2591 1196L2549 1221M124 1183L222 1169M124 1183L80 1273M124 1183L84 1219M222 1169L268 1139M222 1169L235 1269M222 1169L282 1234M268 1139L359 1151M359 1151L401 1171M359 1151L282 1234M401 1171L489 1154M401 1171L398 1278M401 1171L473 1221M489 1154L585 1134M489 1154L473 1221M489 1154L544 1221M585 1134L544 1221M709 1181L789 1199M709 1181L680 1212M709 1181L815 1208M789 1199L858 1176M789 1199L680 1212M789 1199L779 1251M789 1199L815 1208M858 1176L899 1129M858 1176L779 1251M858 1176L815 1208M899 1129L1006 1154M1006 1154L1076 1188M1006 1154L1008 1243M1006 1154L1063 1226M1076 1188L1008 1243M1076 1188L1063 1226M1196 1152L1268 1124M1268 1124L1288 1193M1288 1193L1214 1251M1288 1193L1288 1266M1288 1193L1383 1202M1288 1193L1269 1284M1393 1132L1456 1198M1393 1132L1383 1202M1456 1198L1520 1150M1456 1198L1383 1202M1456 1198L1445 1260M1520 1150L1612 1135M1520 1150L1573 1223M1612 1135L1681 1144M1681 1144L1671 1224M1681 1144L1709 1210M1795 1196L1842 1142M1795 1196L1709 1210M1795 1196L1826 1234M1795 1196L1832 1283M1842 1142L1826 1234M1988 1140L2038 1133M2134 1187L2209 1149M2134 1187L2056 1267M2134 1187L2107 1229M2134 1187L2194 1278M2209 1149L2107 1229M2317 1185L2367 1123M2317 1185L2405 1129M2317 1185L2281 1249M2317 1185L2348 1225M2367 1123L2405 1129M2541 1172L2549 1221M80 1273L84 1219M80 1273L-11 1221M80 1273L130 1329M2640 1273L2549 1221M84 1219L-11 1221M2644 1219L2549 1221M235 1269L282 1234M235 1269L200 1281M235 1269L243 1351M282 1234L200 1281M398 1278L473 1221M398 1278L387 1354M398 1278L418 1316M473 1221L544 1221M544 1221L622 1271M544 1221L518 1320M622 1271L680 1212M622 1271L568 1326M622 1271L692 1340M622 1271L570 1365M680 1212L779 1251M779 1251L815 1208M779 1251L769 1325M815 1208L859 1310M943 1277L1008 1243M943 1277L859 1310M943 1277L951 1294M1008 1243L1063 1226M1008 1243L951 1294M1063 1226L1141 1277M1063 1226L1059 1326M1141 1277L1214 1251M1141 1277L1059 1326M1141 1277L1196 1330M1141 1277L1211 1376M1214 1251L1288 1266M1214 1251L1196 1330M1214 1251L1269 1284M1288 1266L1269 1284M1288 1266L1331 1319M1383 1202L1445 1260M1445 1260L1370 1346M1445 1260L1472 1323M1573 1223L1671 1224M1573 1223L1577 1321M1671 1224L1709 1210M1826 1234L1892 1247M1826 1234L1832 1283M1826 1234L1898 1289M1892 1247L1990 1244M1892 1247L1832 1283M1892 1247L1898 1289M1892 1247L1991 1286M1990 1244L2056 1267M1990 1244L1898 1289M1990 1244L1991 1286M1990 1244L2075 1297M2056 1267L2107 1229M2056 1267L1991 1286M2056 1267L2075 1297M2107 1229L2194 1278M2107 1229L2075 1297M2194 1278L2281 1249M2194 1278L2229 1320M2281 1249L2348 1225M2281 1249L2229 1320M2281 1249L2297 1321M2348 1225L2415 1244M2348 1225L2297 1321M2415 1244L2390 1333M2415 1244L2457 1296M2549 1221L2499 1327M20 1358L-61 1327M20 1358L53 1417M20 1358L-31 1380M2580 1358L2499 1327M2580 1358L2529 1380M130 1329L200 1281M130 1329L133 1374M200 1281L243 1351M200 1281L133 1374M243 1351L237 1411M243 1351L283 1412M243 1351L353 1381M387 1354L418 1316M387 1354L353 1381M387 1354L476 1439M418 1316L518 1320M418 1316L353 1381M518 1320L568 1326M518 1320L522 1371M518 1320L570 1365M568 1326L522 1371M568 1326L570 1365M692 1340L769 1325M692 1340L715 1414M692 1340L754 1365M769 1325L859 1310M769 1325L754 1365M769 1325L862 1378M859 1310L951 1294M859 1310L862 1378M951 1294L1033 1358M951 1294L1059 1326M1033 1358L1059 1326M1033 1358L1029 1419M1059 1326L1029 1419M1196 1330L1269 1284M1196 1330L1194 1434M1196 1330L1211 1376M1269 1284L1331 1319M1331 1319L1370 1346M1331 1319L1358 1370M1331 1319L1372 1416M1370 1346L1472 1323M1370 1346L1358 1370M1370 1346L1372 1416M1472 1323L1577 1321M1472 1323L1493 1428M1472 1323L1559 1364M1577 1321L1642 1341M1577 1321L1559 1364M1642 1341L1741 1336M1642 1341L1559 1364M1642 1341L1671 1412M1642 1341L1685 1416M1741 1336L1832 1283M1741 1336L1671 1412M1741 1336L1685 1416M1741 1336L1836 1404M1832 1283L1898 1289M1898 1289L1917 1373M1991 1286L2075 1297M1991 1286L1979 1365M2075 1297L2132 1358M2132 1358L2229 1320M2132 1358L2056 1402M2132 1358L2090 1435M2229 1320L2297 1321M2229 1320L2209 1436M2297 1321L2390 1333M2297 1321L2360 1403M2390 1333L2457 1296M2390 1333L2360 1403M2390 1333L2461 1397M2457 1296L2499 1327M2499 1327L2461 1397M2499 1327L2529 1380M53 1417L-31 1380M2613 1417L2529 1380M237 1411L283 1412M283 1412L353 1381M476 1439L522 1371M476 1439L570 1365M522 1371L570 1365M715 1414L754 1365M754 1365L862 1378M862 1378L897 1412M1029 1419L1114 1428M1114 1428L1194 1434M1194 1434L1211 1376M1358 1370L1372 1416M1493 1428L1559 1364M1671 1412L1685 1416M1836 1404L1917 1373M1917 1373L1979 1365M1979 1365L2056 1402M2056 1402L2090 1435M2090 1435L2209 1436M2209 1436L2260 1432M2260 1432L2360 1403M2461 1397L2529 1380"/></svg>