<svg xmlns="http://www.w3.org/2000/svg" width="2560" height="1440" fill="#fff"><circle cx="9" cy="8" r="6"/><circle cx="107" cy="27" r="5"/><circle cx="227" cy="36" r="5"/><circle cx="280" cy="43" r="5"/><circle cx="399" cy="38" r="5"/><circle cx="453" cy="10" r="5"/><circle cx="541" cy="2" r="4"/><circle cx="541" cy="1442" r="4"/><circle cx="632" cy="32" r="5"/><circle cx="670" cy="18" r="5"/><circle cx="792" cy="65" r="4"/><circle cx="846" cy="42" r="4"/><circle cx="932" cy="5" r="6"/><circle cx="932" cy="1445" r="6"/><circle cx="975" cy="6" r="4"/><circle cx="1110" cy="71" r="4"/><circle cx="1153" cy="54" r="4"/><circle cx="1211" cy="6" r="5"/><circle cx="1290" cy="17" r="6"/><circle cx="1384" cy="55" r="5"/><circle cx="1511" cy="62" r="5"/><circle cx="1574" cy="13" r="6"/><circle cx="1624" cy="40" r="4"/><circle cx="1681" cy="52" r="5"/><circle cx="1816" cy="58" r="5"/><circle cx="1895" cy="71" r="5"/><circle cx="1927" cy="27" r="5"/><circle cx="2046" cy="4" r="4"/><circle cx="2142" cy="8" r="6"/><circle cx="2189" cy="59" r="5"/><circle cx="2306" cy="73" r="5"/><circle cx="2365" cy="80" r="5"/><circle cx="2419" cy="46" r="5"/><circle cx="2485" cy="35" r="5"/><circle cx="39" cy="102" r="5"/><circle cx="97" cy="136" r="5"/><circle cx="216" cy="159" r="6"/><circle cx="286" cy="158" r="4"/><circle cx="398" cy="118" r="5"/><circle cx="446" cy="129" r="6"/><circle cx="545" cy="154" r="5"/><circle cx="567" cy="141" r="5"/><circle cx="666" cy="84" r="4"/><circle cx="732" cy="97" r="6"/><circle cx="875" cy="82" r="5"/><circle cx="881" cy="155" r="5"/><circle cx="997" cy="144" r="6"/><circle cx="1071" cy="142" r="6"/><circle cx="1161" cy="140" r="6"/><circle cx="1277" cy="124" r="5"/><circle cx="1303" cy="111" r="5"/><circle cx="1421" cy="104" r="5"/><circle cx="1452" cy="131" r="5"/><circle cx="1533" cy="147" r="5"/><circle cx="1611" cy="125" r="5"/><circle cx="1732" cy="160" r="6"/><circle cx="1779" cy="157" r="5"/><circle cx="1904" cy="143" r="5"/><circle cx="1932" cy="144" r="6"/><circle cx="2048" cy="94" r="5"/><circle cx="2127" cy="128" r="4"/><circle cx="2212" cy="96" r="5"/><circle cx="2299" cy="132" r="6"/><circle cx="2351" cy="83" r="6"/><circle cx="2452" cy="137" r="6"/><circle cx="2488" cy="99" r="4"/><circle cx="8" cy="171" r="5"/><circle cx="100" cy="179" r="4"/><circle cx="169" cy="233" r="4"/><circle cx="298" cy="234" r="5"/><circle cx="371" cy="166" r="4"/><circle cx="445" cy="171" r="4"/><circle cx="547" cy="184" r="5"/><circle cx="590" cy="234" r="6"/><circle cx="717" cy="165" r="5"/><circle cx="744" cy="185" r="4"/><circle cx="817" cy="182" r="6"/><circle cx="893" cy="198" r="4"/><circle cx="1012" cy="232" r="4"/><circle cx="1059" cy="170" r="5"/><circle cx="1135" cy="221" r="6"/><circle cx="1211" cy="233" r="5"/><circle cx="1340" cy="225" r="5"/><circle cx="1375" cy="222" r="6"/><circle cx="1441" cy="230" r="6"/><circle cx="1574" cy="172" r="6"/><circle cx="1655" cy="177" r="4"/><circle cx="1685" cy="223" r="4"/><circle cx="1801" cy="189" r="4"/><circle cx="1869" cy="227" r="4"/><circle cx="1962" cy="168" r="6"/><circle cx="2068" cy="175" r="4"/><circle cx="2088" cy="190" r="6"/><circle cx="2197" cy="219" r="4"/><circle cx="2318" cy="206" r="6"/><circle cx="2323" cy="172" r="5"/><circle cx="2401" cy="164" r="6"/><circle cx="2549" cy="226" r="5"/><circle cx="73" cy="319" r="4"/><circle cx="93" cy="302" r="5"/><circle cx="213" cy="292" r="5"/><circle cx="281" cy="286" r="5"/><circle cx="359" cy="261" r="5"/><circle cx="415" cy="249" r="5"/><circle cx="525" cy="264" r="5"/><circle cx="561" cy="315" r="4"/><circle cx="679" cy="272" r="4"/><circle cx="731" cy="281" r="4"/><circle cx="822" cy="289" r="6"/><circle cx="928" cy="278" r="5"/><circle cx="1000" cy="242" r="5"/><circle cx="1078" cy="278" r="5"/><circle cx="1133" cy="314" r="5"/><circle cx="1239" cy="275" r="4"/><circle cx="1328" cy="252" r="4"/><circle cx="1433" cy="313" r="5"/><circle cx="1487" cy="313" r="4"/><circle cx="1551" cy="250" r="5"/><circle cx="1608" cy="271" r="4"/><circle cx="1694" cy="254" r="6"/><circle cx="1802" cy="292" r="5"/><circle cx="1844" cy="306" r="5"/><circle cx="1965" cy="274" r="5"/><circle cx="2073" cy="309" r="5"/><circle cx="2133" cy="276" r="5"/><circle cx="2187" cy="291" r="6"/><circle cx="2315" cy="248" r="4"/><circle cx="2336" cy="309" r="5"/><circle cx="2420" cy="284" r="5"/><circle cx="2500" cy="311" r="6"/><circle cx="65" cy="342" r="5"/><circle cx="94" cy="380" r="4"/><circle cx="222" cy="385" r="5"/><circle cx="242" cy="324" r="4"/><circle cx="367" cy="334" r="6"/><circle cx="436" cy="399" r="4"/><circle cx="547" cy="334" r="4"/><circle cx="590" cy="375" r="4"/><circle cx="656" cy="333" r="6"/><circle cx="798" cy="351" r="5"/><circle cx="807" cy="386" r="5"/><circle cx="936" cy="387" r="5"/><circle cx="978" cy="345" r="5"/><circle cx="1102" cy="375" r="6"/><circle cx="1190" cy="382" r="4"/><circle cx="1236" cy="369" r="6"/><circle cx="1341" cy="377" r="4"/><circle cx="1407" cy="393" r="6"/><circle cx="1508" cy="345" r="4"/><circle cx="1586" cy="391" r="4"/><circle cx="1648" cy="396" r="4"/><circle cx="1710" cy="370" r="6"/><circle cx="1830" cy="327" r="5"/><circle cx="1906" cy="362" r="5"/><circle cx="1923" cy="367" r="5"/><circle cx="2025" cy="364" r="5"/><circle cx="2104" cy="388" r="5"/><circle cx="2225" cy="359" r="5"/><circle cx="2259" cy="330" r="6"/><circle cx="2383" cy="386" r="6"/><circle cx="2448" cy="397" r="4"/><circle cx="2537" cy="326" r="5"/><circle cx="55" cy="418" r="6"/><circle cx="127" cy="427" r="5"/><circle cx="177" cy="452" r="4"/><circle cx="314" cy="438" r="4"/><circle cx="387" cy="437" r="5"/><circle cx="446" cy="478" r="6"/><circle cx="503" cy="436" r="5"/><circle cx="597" cy="444" r="5"/><circle cx="669" cy="437" r="5"/><circle cx="787" cy="458" r="6"/><circle cx="856" cy="427" r="4"/><circle cx="888" cy="419" r="5"/><circle cx="1020" cy="469" r="4"/><circle cx="1065" cy="461" r="6"/><circle cx="1151" cy="479" r="5"/><circle cx="1259" cy="407" r="6"/><circle cx="1296" cy="418" r="5"/><circle cx="1428" cy="439" r="5"/><circle cx="1488" cy="446" r="4"/><circle cx="1526" cy="470" r="6"/><circle cx="1625" cy="423" r="6"/><circle cx="1756" cy="457" r="4"/><circle cx="1788" cy="464" r="5"/><circle cx="1850" cy="467" r="5"/><circle cx="1982" cy="452" r="5"/><circle cx="2046" cy="413" r="5"/><circle cx="2101" cy="479" r="6"/><circle cx="2214" cy="417" r="4"/><circle cx="2283" cy="418" r="6"/><circle cx="2379" cy="437" r="5"/><circle cx="2437" cy="467" r="5"/><circle cx="2521" cy="405" r="6"/><circle cx="55" cy="523" r="5"/><circle cx="101" cy="536" r="5"/><circle cx="215" cy="492" r="4"/><circle cx="253" cy="496" r="4"/><circle cx="387" cy="496" r="5"/><circle cx="454" cy="501" r="5"/><circle cx="515" cy="491" r="6"/><circle cx="621" cy="481" r="6"/><circle cx="666" cy="528" r="4"/><circle cx="768" cy="508" r="6"/><circle cx="800" cy="526" r="6"/><circle cx="910" cy="507" r="5"/><circle cx="998" cy="530" r="5"/><circle cx="1095" cy="551" r="5"/><circle cx="1179" cy="505" r="5"/><circle cx="1216" cy="519" r="4"/><circle cx="1339" cy="522" r="5"/><circle cx="1379" cy="538" r="4"/><circle cx="1475" cy="551" r="4"/><circle cx="1546" cy="555" r="4"/><circle cx="1628" cy="536" r="4"/><circle cx="1738" cy="540" r="4"/><circle cx="1767" cy="494" r="5"/><circle cx="1883" cy="537" r="6"/><circle cx="1934" cy="492" r="6"/><circle cx="2011" cy="515" r="5"/><circle cx="2110" cy="525" r="5"/><circle cx="2164" cy="552" r="4"/><circle cx="2279" cy="527" r="4"/><circle cx="2390" cy="529" r="6"/><circle cx="2425" cy="543" r="4"/><circle cx="2503" cy="534" r="5"/><circle cx="24" cy="633" r="5"/><circle cx="110" cy="580" r="5"/><circle cx="191" cy="590" r="4"/><circle cx="319" cy="570" r="4"/><circle cx="341" cy="595" r="4"/><circle cx="452" cy="567" r="5"/><circle cx="490" cy="635" r="6"/><circle cx="635" cy="632" r="5"/><circle cx="664" cy="605" r="5"/><circle cx="784" cy="561" r="5"/><circle cx="869" cy="592" r="4"/><circle cx="895" cy="574" r="6"/><circle cx="998" cy="577" r="5"/><circle cx="1064" cy="618" r="6"/><circle cx="1190" cy="572" r="5"/><circle cx="1274" cy="624" r="5"/><circle cx="1324" cy="635" r="5"/><circle cx="1416" cy="624" r="4"/><circle cx="1509" cy="639" r="5"/><circle cx="1587" cy="617" r="5"/><circle cx="1612" cy="601" r="6"/><circle cx="1690" cy="628" r="5"/><circle cx="1785" cy="601" r="5"/><circle cx="1858" cy="561" r="6"/><circle cx="1958" cy="629" r="5"/><circle cx="2029" cy="623" r="5"/><circle cx="2087" cy="576" r="6"/><circle cx="2218" cy="585" r="6"/><circle cx="2287" cy="562" r="5"/><circle cx="2347" cy="615" r="5"/><circle cx="2457" cy="604" r="6"/><circle cx="2480" cy="611" r="6"/><circle cx="61" cy="671" r="5"/><circle cx="87" cy="673" r="5"/><circle cx="224" cy="689" r="5"/><circle cx="312" cy="713" r="5"/><circle cx="377" cy="716" r="5"/><circle cx="465" cy="717" r="5"/><circle cx="525" cy="673" r="4"/><circle cx="631" cy="654" r="5"/><circle cx="692" cy="641" r="5"/><circle cx="767" cy="720" r="5"/><circle cx="857" cy="651" r="4"/><circle cx="958" cy="717" r="5"/><circle cx="998" cy="649" r="4"/><circle cx="1048" cy="665" r="6"/><circle cx="1138" cy="643" r="5"/><circle cx="1235" cy="694" r="5"/><circle cx="1336" cy="705" r="6"/><circle cx="1399" cy="703" r="6"/><circle cx="1474" cy="648" r="5"/><circle cx="1524" cy="678" r="5"/><circle cx="1615" cy="683" r="5"/><circle cx="1746" cy="697" r="5"/><circle cx="1823" cy="666" r="6"/><circle cx="1843" cy="665" r="4"/><circle cx="1966" cy="667" r="5"/><circle cx="2039" cy="655" r="6"/><circle cx="2148" cy="693" r="6"/><circle cx="2230" cy="662" r="4"/><circle cx="2263" cy="645" r="5"/><circle cx="2387" cy="649" r="4"/><circle cx="2402" cy="677" r="5"/><circle cx="2550" cy="703" r="4"/><circle cx="54" cy="785" r="4"/><circle cx="98" cy="794" r="5"/><circle cx="231" cy="748" r="6"/><circle cx="263" cy="764" r="6"/><circle cx="379" cy="775" r="6"/><circle cx="467" cy="800" r="4"/><circle cx="527" cy="737" r="5"/><circle cx="599" cy="796" r="6"/><circle cx="710" cy="768" r="5"/><circle cx="721" cy="726" r="4"/><circle cx="808" cy="766" r="6"/><circle cx="925" cy="770" r="6"/><circle cx="1027" cy="725" r="6"/><circle cx="1090" cy="741" r="5"/><circle cx="1192" cy="756" r="5"/><circle cx="1261" cy="786" r="5"/><circle cx="1349" cy="754" r="6"/><circle cx="1403" cy="778" r="5"/><circle cx="1497" cy="747" r="4"/><circle cx="1569" cy="739" r="6"/><circle cx="1669" cy="722" r="4"/><circle cx="1733" cy="750" r="5"/><circle cx="1790" cy="772" r="4"/><circle cx="1854" cy="774" r="5"/><circle cx="1993" cy="745" r="5"/><circle cx="2022" cy="759" r="5"/><circle cx="2128" cy="745" r="6"/><circle cx="2239" cy="795" r="6"/><circle cx="2247" cy="792" r="4"/><circle cx="2375" cy="740" r="4"/><circle cx="2450" cy="790" r="5"/><circle cx="2519" cy="782" r="4"/><circle cx="22" cy="877" r="6"/><circle cx="94" cy="849" r="5"/><circle cx="212" cy="870" r="6"/><circle cx="275" cy="808" r="5"/><circle cx="397" cy="877" r="6"/><circle cx="407" cy="825" r="4"/><circle cx="530" cy="867" r="5"/><circle cx="569" cy="859" r="4"/><circle cx="717" cy="845" r="4"/><circle cx="736" cy="843" r="4"/><circle cx="835" cy="808" r="5"/><circle cx="926" cy="848" r="4"/><circle cx="975" cy="871" r="5"/><circle cx="1110" cy="853" r="5"/><circle cx="1131" cy="847" r="6"/><circle cx="1227" cy="849" r="5"/><circle cx="1337" cy="878" r="5"/><circle cx="1391" cy="861" r="4"/><circle cx="1517" cy="813" r="5"/><circle cx="1543" cy="865" r="4"/><circle cx="1607" cy="806" r="6"/><circle cx="1719" cy="853" r="5"/><circle cx="1834" cy="823" r="6"/><circle cx="1884" cy="814" r="5"/><circle cx="1926" cy="855" r="6"/><circle cx="2076" cy="859" r="6"/><circle cx="2088" cy="854" r="5"/><circle cx="2182" cy="868" r="4"/><circle cx="2266" cy="848" r="6"/><circle cx="2355" cy="803" r="5"/><circle cx="2468" cy="810" r="6"/><circle cx="2534" cy="815" r="5"/><circle cx="2" cy="893" r="5"/><circle cx="2562" cy="893" r="5"/><circle cx="139" cy="914" r="4"/><circle cx="238" cy="897" r="6"/><circle cx="286" cy="919" r="6"/><circle cx="394" cy="900" r="5"/><circle cx="424" cy="904" r="5"/><circle cx="497" cy="889" r="4"/><circle cx="581" cy="914" r="4"/><circle cx="693" cy="954" r="5"/><circle cx="794" cy="921" r="5"/><circle cx="824" cy="920" r="5"/><circle cx="888" cy="919" r="4"/><circle cx="1021" cy="937" r="5"/><circle cx="1093" cy="950" r="4"/><circle cx="1176" cy="899" r="5"/><circle cx="1265" cy="944" r="4"/><circle cx="1306" cy="923" r="5"/><circle cx="1369" cy="956" r="5"/><circle cx="1480" cy="895" r="5"/><circle cx="1583" cy="899" r="5"/><circle cx="1674" cy="889" r="4"/><circle cx="1740" cy="959" r="6"/><circle cx="1827" cy="940" r="5"/><circle cx="1896" cy="895" r="4"/><circle cx="1944" cy="887" r="5"/><circle cx="2074" cy="922" r="5"/><circle cx="2103" cy="949" r="6"/><circle cx="2168" cy="916" r="5"/><circle cx="2308" cy="932" r="5"/><circle cx="2350" cy="955" r="6"/><circle cx="2478" cy="949" r="5"/><circle cx="2494" cy="922" r="5"/><circle cx="55" cy="1018" r="4"/><circle cx="119" cy="1034" r="6"/><circle cx="216" cy="1018" r="6"/><circle cx="289" cy="981" r="5"/><circle cx="349" cy="970" r="5"/><circle cx="463" cy="1032" r="5"/><circle cx="496" cy="982" r="5"/><circle cx="596" cy="1012" r="6"/><circle cx="688" cy="962" r="4"/><circle cx="746" cy="990" r="6"/><circle cx="812" cy="1017" r="4"/><circle cx="952" cy="985" r="6"/><circle cx="1022" cy="963" r="4"/><circle cx="1091" cy="1013" r="4"/><circle cx="1137" cy="1029" r="5"/><circle cx="1240" cy="986" r="6"/><circle cx="1352" cy="981" r="5"/><circle cx="1436" cy="1003" r="5"/><circle cx="1490" cy="965" r="5"/><circle cx="1543" cy="963" r="5"/><circle cx="1680" cy="974" r="6"/><circle cx="1686" cy="998" r="6"/><circle cx="1780" cy="975" r="6"/><circle cx="1858" cy="1006" r="6"/><circle cx="1950" cy="1040" r="6"/><circle cx="2073" cy="1013" r="4"/><circle cx="2101" cy="1011" r="4"/><circle cx="2237" cy="986" r="5"/><circle cx="2247" cy="966" r="4"/><circle cx="2363" cy="1001" r="6"/><circle cx="2414" cy="1034" r="6"/><circle cx="2481" cy="1001" r="6"/><circle cx="53" cy="1054" r="4"/><circle cx="107" cy="1100" r="5"/><circle cx="182" cy="1108" r="4"/><circle cx="298" cy="1113" r="5"/><circle cx="356" cy="1074" r="5"/><circle cx="466" cy="1108" r="5"/><circle cx="530" cy="1066" r="4"/><circle cx="567" cy="1117" r="4"/><circle cx="675" cy="1089" r="6"/><circle cx="730" cy="1089" r="5"/><circle cx="842" cy="1064" r="5"/><circle cx="942" cy="1112" r="5"/><circle cx="1003" cy="1109" r="5"/><circle cx="1065" cy="1106" r="6"/><circle cx="1139" cy="1043" r="5"/><circle cx="1241" cy="1052" r="6"/><circle cx="1307" cy="1065" r="4"/><circle cx="1408" cy="1064" r="6"/><circle cx="1442" cy="1067" r="5"/><circle cx="1559" cy="1103" r="5"/><circle cx="1674" cy="1088" r="5"/><circle cx="1747" cy="1067" r="5"/><circle cx="1832" cy="1099" r="6"/><circle cx="1893" cy="1099" r="4"/><circle cx="1929" cy="1073" r="5"/><circle cx="2076" cy="1040" r="6"/><circle cx="2139" cy="1084" r="5"/><circle cx="2231" cy="1060" r="6"/><circle cx="2272" cy="1119" r="5"/><circle cx="2339" cy="1058" r="5"/><circle cx="2441" cy="1102" r="5"/><circle cx="2512" cy="1089" r="5"/><circle cx="46" cy="1139" r="5"/><circle cx="91" cy="1136" r="4"/><circle cx="176" cy="1140" r="4"/><circle cx="292" cy="1189" r="6"/><circle cx="388" cy="1168" r="6"/><circle cx="466" cy="1182" r="4"/><circle cx="553" cy="1121" r="6"/><circle cx="578" cy="1160" r="5"/><circle cx="693" cy="1123" r="6"/><circle cx="797" cy="1175" r="5"/><circle cx="849" cy="1156" r="5"/><circle cx="908" cy="1161" r="4"/><circle cx="1022" cy="1196" r="6"/><circle cx="1088" cy="1130" r="5"/><circle cx="1166" cy="1176" r="5"/><circle cx="1254" cy="1182" r="5"/><circle cx="1285" cy="1162" r="5"/><circle cx="1422" cy="1163" r="5"/><circle cx="1442" cy="1161" r="4"/><circle cx="1560" cy="1190" r="5"/><circle cx="1628" cy="1145" r="4"/><circle cx="1696" cy="1170" r="5"/><circle cx="1825" cy="1124" r="4"/><circle cx="1871" cy="1169" r="4"/><circle cx="1962" cy="1162" r="5"/><circle cx="2050" cy="1193" r="6"/><circle cx="2110" cy="1183" r="4"/><circle cx="2192" cy="1162" r="5"/><circle cx="2276" cy="1151" r="6"/><circle cx="2393" cy="1148" r="5"/><circle cx="2427" cy="1140" r="5"/><circle cx="2502" cy="1141" r="5"/><circle cx="29" cy="1259" r="4"/><circle cx="124" cy="1262" r="5"/><circle cx="213" cy="1258" r="6"/><circle cx="247" cy="1233" r="4"/><circle cx="395" cy="1238" r="5"/><circle cx="451" cy="1215" r="5"/><circle cx="555" cy="1232" r="4"/><circle cx="602" cy="1246" r="4"/><circle cx="669" cy="1236" r="5"/><circle cx="735" cy="1250" r="5"/><circle cx="843" cy="1257" r="5"/><circle cx="921" cy="1228" r="5"/><circle cx="962" cy="1258" r="6"/><circle cx="1083" cy="1210" r="6"/><circle cx="1178" cy="1265" r="5"/><circle cx="1222" cy="1268" r="4"/><circle cx="1304" cy="1251" r="5"/><circle cx="1395" cy="1250" r="4"/><circle cx="1461" cy="1279" r="6"/><circle cx="1550" cy="1203" r="6"/><circle cx="1676" cy="1249" r="4"/><circle cx="1713" cy="1245" r="4"/><circle cx="1764" cy="1277" r="5"/><circle cx="1888" cy="1267" r="6"/><circle cx="1947" cy="1239" r="5"/><circle cx="2025" cy="1268" r="5"/><circle cx="2118" cy="1210" r="4"/><circle cx="2181" cy="1242" r="6"/><circle cx="2274" cy="1253" r="5"/><circle cx="2335" cy="1260" r="5"/><circle cx="2465" cy="1218" r="5"/><circle cx="2510" cy="1200" r="5"/><circle cx="57" cy="1310" r="4"/><circle cx="97" cy="1302" r="6"/><circle cx="211" cy="1306" r="5"/><circle cx="273" cy="1355" r="5"/><circle cx="356" cy="1292" r="5"/><circle cx="403" cy="1338" r="4"/><circle cx="523" cy="1298" r="5"/><circle cx="588" cy="1315" r="6"/><circle cx="652" cy="1316" r="4"/><circle cx="754" cy="1335" r="4"/><circle cx="836" cy="1304" r="6"/><circle cx="920" cy="1324" r="6"/><circle cx="1015" cy="1346" r="4"/><circle cx="1108" cy="1306" r="5"/><circle cx="1164" cy="1312" r="5"/><circle cx="1238" cy="1324" r="5"/><circle cx="1355" cy="1293" r="6"/><circle cx="1409" cy="1290" r="5"/><circle cx="1499" cy="1328" r="6"/><circle cx="1593" cy="1324" r="4"/><circle cx="1646" cy="1309" r="4"/><circle cx="1711" cy="1348" r="6"/><circle cx="1783" cy="1331" r="4"/><circle cx="1903" cy="1339" r="5"/><circle cx="1932" cy="1281" r="5"/><circle cx="2034" cy="1343" r="6"/><circle cx="2147" cy="1347" r="4"/><circle cx="2160" cy="1321" r="4"/><circle cx="2279" cy="1316" r="5"/><circle cx="2329" cy="1313" r="5"/><circle cx="2454" cy="1288" r="4"/><circle cx="2523" cy="1338" r="4"/><circle cx="69" cy="1370" r="5"/><circle cx="94" cy="1377" r="5"/><circle cx="187" cy="1391" r="6"/><circle cx="281" cy="1389" r="5"/><circle cx="327" cy="1431" r="6"/><circle cx="451" cy="1388" r="6"/><circle cx="486" cy="1374" r="6"/><circle cx="561" cy="1406" r="5"/><circle cx="679" cy="1372" r="4"/><circle cx="727" cy="1406" r="4"/><circle cx="830" cy="1371" r="4"/><circle cx="920" cy="1424" r="6"/><circle cx="976" cy="1421" r="5"/><circle cx="1045" cy="1426" r="5"/><circle cx="1187" cy="1372" r="5"/><circle cx="1257" cy="1440" r="5"/><circle cx="1257" cy="-0" r="5"/><circle cx="1323" cy="1365" r="5"/><circle cx="1374" cy="1388" r="5"/><circle cx="1515" cy="1360" r="4"/><circle cx="1593" cy="1380" r="6"/><circle cx="1608" cy="1412" r="5"/><circle cx="1758" cy="1402" r="5"/><circle cx="1822" cy="1410" r="5"/><circle cx="1918" cy="1406" r="5"/><circle cx="1965" cy="1403" r="6"/><circle cx="2017" cy="1416" r="5"/><circle cx="2141" cy="1408" r="6"/><circle cx="2212" cy="1395" r="5"/><circle cx="2310" cy="1405" r="5"/><circle cx="2335" cy="1405" r="4"/><circle cx="2468" cy="1370" r="6"/><circle cx="2484" cy="1408" r="5"/><path stroke="#fff" d="M9 8L107 27M9 8L-75 35M9 8L39 102M9 8L69 -70M9 8L-76 -32M2569 8L2485 35M2569 8L2484 -32M9 1448L69 1370M9 1448L-76 1408M2569 1448L2484 1408M107 27L39 102M107 27L69 -70M107 27L94 -63M107 1467L69 1370M107 1467L94 1377M227 36L280 43M227 36L216 159M227 36L187 -49M227 36L281 -51M227 36L327 -9M227 1476L187 1391M227 1476L281 1389M227 1476L327 1431M280 43L281 -51M280 43L327 -9M280 1483L281 1389M280 1483L327 1431M399 38L453 10M399 38L398 118M399 38L446 129M399 38L327 -9M399 38L451 -52M399 1478L327 1431M399 1478L451 1388M453 10L541 2M453 10L451 -52M453 10L486 -66M453 1450L451 1388M453 1450L486 1374M541 2L632 32M541 2L451 -52M541 2L486 -66M541 2L561 -34M541 1442L451 1388M541 1442L486 1374M541 1442L561 1406M632 32L670 18M632 32L666 84M632 32L561 -34M632 1472L561 1406M670 18L666 84M670 18L732 97M670 18L679 -68M670 18L727 -34M670 1458L679 1372M670 1458L727 1406M792 65L846 42M792 65L732 97M792 65L875 82M846 42L932 5M846 42L875 82M846 42L920 -16M846 1482L920 1424M932 5L975 6M932 5L875 82M932 5L920 -16M932 5L976 -19M932 1445L920 1424M932 1445L976 1421M975 6L920 -16M975 6L976 -19M975 6L1045 -14M975 1446L920 1424M975 1446L976 1421M975 1446L1045 1426M1110 71L1153 54M1110 71L1071 142M1110 71L1161 140M1110 71L1045 -14M1110 1511L1045 1426M1153 54L1211 6M1153 54L1161 140M1211 6L1290 17M1211 6L1187 -68M1211 6L1257 -0M1211 1446L1187 1372M1211 1446L1257 1440M1290 17L1384 55M1290 17L1303 111M1290 17L1257 -0M1290 17L1323 -75M1290 1457L1257 1440M1290 1457L1323 1365M1384 55L1303 111M1384 55L1421 104M1384 55L1452 131M1384 55L1374 -52M1384 1495L1374 1388M1511 62L1574 13M1511 62L1421 104M1511 62L1452 131M1511 62L1533 147M1574 13L1624 40M1574 13L1681 52M1574 13L1593 -60M1574 13L1608 -28M1574 1453L1593 1380M1574 1453L1608 1412M1624 40L1681 52M1624 40L1611 125M1624 40L1608 -28M1624 1480L1608 1412M1681 52L1611 125M1681 52L1608 -28M1681 1492L1608 1412M1816 58L1895 71M1816 58L1779 157M1816 58L1758 -38M1816 58L1822 -30M1816 1498L1758 1402M1816 1498L1822 1410M1895 71L1927 27M1895 71L1904 143M1895 71L1932 144M1895 71L1962 168M1927 27L1932 144M1927 27L1918 -34M1927 27L1965 -37M1927 27L2017 -24M1927 1467L1918 1406M1927 1467L1965 1403M1927 1467L2017 1416M2046 4L2142 8M2046 4L2048 94M2046 4L2034 -97M2046 4L2017 -24M2046 1444L2034 1343M2046 1444L2017 1416M2142 8L2189 59M2142 8L2212 96M2142 8L2141 -32M2142 8L2212 -45M2142 1448L2141 1408M2142 1448L2212 1395M2189 59L2127 128M2189 59L2212 96M2189 59L2141 -32M2189 1499L2141 1408M2306 73L2365 80M2306 73L2212 96M2306 73L2299 132M2306 73L2351 83M2306 73L2323 172M2365 80L2419 46M2365 80L2299 132M2365 80L2351 83M2365 80L2401 164M2419 46L2485 35M2419 46L2351 83M2419 46L2452 137M2419 46L2488 99M2485 35L2488 99M2485 35L2468 -70M2485 35L2484 -32M2485 1475L2468 1370M2485 1475L2484 1408M39 102L97 136M39 102L8 171M39 102L100 179M97 136L216 159M97 136L8 171M97 136L100 179M97 136L169 233M216 159L286 158M216 159L169 233M216 159L298 234M286 158L298 234M286 158L371 166M398 118L446 129M398 118L371 166M398 118L445 171M446 129L545 154M446 129L371 166M446 129L445 171M545 154L567 141M545 154L445 171M545 154L547 184M545 154L590 234M567 141L666 84M567 141L547 184M567 141L590 234M666 84L732 97M666 84L717 165M732 97L717 165M732 97L744 185M875 82L881 155M881 155L997 144M881 155L817 182M881 155L893 198M997 144L1071 142M997 144L1012 232M997 144L1059 170M997 144L1000 242M1071 142L1161 140M1071 142L1059 170M1161 140L1135 221M1161 140L1211 233M1277 124L1303 111M1277 124L1211 233M1277 124L1340 225M1303 111L1257 -0M1303 1551L1257 1440M1421 104L1452 131M1421 104L1375 222M1452 131L1533 147M1452 131L1441 230M1533 147L1611 125M1533 147L1574 172M1533 147L1551 250M1611 125L1574 172M1611 125L1655 177M1732 160L1779 157M1732 160L1655 177M1732 160L1685 223M1732 160L1801 189M1732 160L1694 254M1779 157L1801 189M1904 143L1932 144M1904 143L1801 189M1904 143L1869 227M1904 143L1962 168M1932 144L1869 227M1932 144L1962 168M2048 94L2127 128M2048 94L1962 168M2048 94L2068 175M2048 94L2088 190M2127 128L2212 96M2127 128L2068 175M2127 128L2088 190M2299 132L2351 83M2299 132L2318 206M2299 132L2323 172M2351 83L2401 164M2452 137L2488 99M2452 137L2401 164M2488 99L2568 171M-72 99L8 171M8 171L100 179M8 171L-11 226M2568 171L2549 226M100 179L169 233M169 233L93 302M169 233L213 292M298 234L213 292M298 234L281 286M298 234L359 261M371 166L445 171M371 166L359 261M445 171L415 249M547 184L590 234M547 184L525 264M590 234L525 264M590 234L561 315M717 165L744 185M717 165L817 182M717 165L679 272M744 185L817 182M744 185L731 281M817 182L893 198M817 182L822 289M893 198L928 278M1012 232L1059 170M1012 232L1000 242M1012 232L1078 278M1059 170L1135 221M1059 170L1000 242M1135 221L1211 233M1135 221L1078 278M1135 221L1133 314M1211 233L1239 275M1340 225L1375 222M1340 225L1441 230M1340 225L1328 252M1375 222L1441 230M1375 222L1328 252M1375 222L1433 313M1441 230L1433 313M1441 230L1487 313M1574 172L1655 177M1574 172L1551 250M1574 172L1608 271M1655 177L1685 223M1655 177L1694 254M1685 223L1608 271M1685 223L1694 254M1801 189L1869 227M1801 189L1802 292M1869 227L1802 292M1869 227L1844 306M1962 168L1965 274M2068 175L2088 190M2088 190L2133 276M2197 219L2133 276M2197 219L2187 291M2318 206L2323 172M2318 206L2401 164M2318 206L2315 248M2318 206L2336 309M2323 172L2401 164M2323 172L2315 248M2549 226L2500 311M2549 226L2537 326M73 319L93 302M73 319L65 342M73 319L94 380M73 319L-23 326M2633 319L2537 326M93 302L65 342M93 302L94 380M213 292L281 286M213 292L222 385M213 292L242 324M281 286L359 261M281 286L242 324M281 286L367 334M359 261L415 249M359 261L367 334M415 249L525 264M415 249L367 334M525 264L561 315M525 264L547 334M561 315L547 334M561 315L590 375M561 315L656 333M679 272L731 281M679 272L656 333M731 281L822 289M731 281L656 333M731 281L798 351M822 289L928 278M822 289L798 351M822 289L807 386M928 278L1000 242M928 278L936 387M928 278L978 345M1000 242L1078 278M1078 278L1133 314M1078 278L1102 375M1133 314L1102 375M1133 314L1190 382M1239 275L1328 252M1239 275L1236 369M1433 313L1487 313M1433 313L1407 393M1433 313L1508 345M1487 313L1551 250M1487 313L1508 345M1551 250L1608 271M1551 250L1508 345M1608 271L1694 254M1694 254L1710 370M1802 292L1844 306M1802 292L1830 327M1844 306L1830 327M1844 306L1906 362M1844 306L1923 367M1965 274L1906 362M1965 274L1923 367M2073 309L2133 276M2073 309L2187 291M2073 309L2025 364M2073 309L2104 388M2073 309L2046 413M2133 276L2187 291M2133 276L2104 388M2187 291L2225 359M2187 291L2259 330M2315 248L2336 309M2315 248L2420 284M2336 309L2420 284M2336 309L2259 330M2336 309L2383 386M2420 284L2500 311M2500 311L2448 397M2500 311L2537 326M2500 311L2521 405M65 342L94 380M65 342L-23 326M65 342L55 418M2625 342L2537 326M94 380L55 418M94 380L127 427M222 385L242 324M222 385L127 427M222 385L177 452M222 385L215 492M367 334L436 399M436 399L387 437M436 399L503 436M547 334L590 375M590 375L656 333M590 375L597 444M590 375L669 437M656 333L669 437M798 351L807 386M798 351L856 427M807 386L787 458M807 386L856 427M807 386L888 419M936 387L978 345M936 387L856 427M936 387L888 419M978 345L888 419M1102 375L1190 382M1102 375L1065 461M1190 382L1236 369M1190 382L1259 407M1236 369L1341 377M1236 369L1259 407M1236 369L1296 418M1341 377L1407 393M1341 377L1259 407M1341 377L1296 418M1341 377L1428 439M1407 393L1296 418M1407 393L1428 439M1407 393L1488 446M1508 345L1586 391M1508 345L1488 446M1586 391L1648 396M1586 391L1625 423M1648 396L1710 370M1648 396L1625 423M1710 370L1625 423M1710 370L1756 457M1830 327L1906 362M1906 362L1923 367M1923 367L2025 364M1923 367L1982 452M2025 364L2104 388M2025 364L1982 452M2025 364L2046 413M2104 388L2046 413M2104 388L2101 479M2225 359L2259 330M2225 359L2214 417M2225 359L2283 418M2259 330L2214 417M2259 330L2283 418M2383 386L2448 397M2383 386L2283 418M2383 386L2379 437M2383 386L2437 467M2448 397L2379 437M2448 397L2437 467M2448 397L2521 405M2537 326L2521 405M55 418L127 427M55 418L-39 405M55 418L55 523M2615 418L2521 405M127 427L177 452M127 427L101 536M177 452L101 536M177 452L215 492M177 452L253 496M314 438L387 437M314 438L215 492M314 438L253 496M314 438L387 496M387 437L446 478M387 437L387 496M446 478L503 436M446 478L387 496M446 478L454 501M446 478L515 491M503 436L597 444M503 436L454 501M503 436L515 491M597 444L669 437M597 444L515 491M597 444L621 481M669 437L621 481M669 437L666 528M787 458L856 427M787 458L768 508M787 458L800 526M787 458L784 561M856 427L888 419M888 419L910 507M1020 469L1065 461M1020 469L998 530M1065 461L1151 479M1065 461L998 530M1065 461L1095 551M1151 479L1095 551M1151 479L1179 505M1151 479L1216 519M1151 479L1190 572M1259 407L1296 418M1259 407L1216 519M1296 418L1339 522M1428 439L1488 446M1428 439L1526 470M1428 439L1379 538M1488 446L1526 470M1526 470L1625 423M1526 470L1475 551M1526 470L1546 555M1625 423L1628 536M1756 457L1788 464M1756 457L1738 540M1756 457L1767 494M1788 464L1850 467M1788 464L1738 540M1788 464L1767 494M1788 464L1883 537M1850 467L1767 494M1850 467L1883 537M1850 467L1934 492M1850 467L1858 561M1982 452L2046 413M1982 452L1934 492M1982 452L2011 515M2046 413L2101 479M2101 479L2011 515M2101 479L2110 525M2101 479L2087 576M2214 417L2283 418M2283 418L2379 437M2379 437L2437 467M2379 437L2390 529M2437 467L2390 529M2437 467L2425 543M2521 405L2503 534M55 523L101 536M55 523L-57 534M55 523L110 580M2615 523L2503 534M101 536L110 580M101 536L191 590M215 492L253 496M215 492L191 590M253 496L319 570M387 496L454 501M387 496L452 567M454 501L515 491M454 501L452 567M515 491L452 567M621 481L666 528M621 481L664 605M666 528L768 508M666 528L635 632M666 528L664 605M768 508L800 526M768 508L784 561M800 526L784 561M800 526L869 592M800 526L895 574M910 507L998 530M910 507L869 592M910 507L895 574M998 530L998 577M1095 551L1179 505M1095 551L1064 618M1179 505L1216 519M1179 505L1190 572M1216 519L1190 572M1339 522L1379 538M1339 522L1274 624M1475 551L1546 555M1475 551L1474 648M1546 555L1587 617M1546 555L1612 601M1628 536L1612 601M1738 540L1767 494M1738 540L1785 601M1883 537L1934 492M1883 537L1858 561M1934 492L2011 515M1934 492L1858 561M2011 515L2110 525M2110 525L2164 552M2110 525L2087 576M2164 552L2087 576M2164 552L2218 585M2279 527L2218 585M2279 527L2287 562M2390 529L2425 543M2390 529L2347 615M2425 543L2503 534M2425 543L2457 604M2425 543L2480 611M2503 534L2457 604M2503 534L2480 611M24 633L61 671M24 633L87 673M24 633L-10 703M2584 633L2550 703M110 580L191 590M110 580L61 671M110 580L87 673M191 590L224 689M319 570L341 595M341 595L452 567M452 567L490 635M490 635L465 717M490 635L525 673M490 635L527 737M635 632L664 605M635 632L525 673M635 632L631 654M635 632L692 641M664 605L631 654M664 605L692 641M784 561L869 592M869 592L895 574M869 592L857 651M895 574L998 577M895 574L857 651M998 577L1064 618M998 577L998 649M1064 618L998 649M1064 618L1048 665M1064 618L1138 643M1190 572L1274 624M1190 572L1138 643M1274 624L1324 635M1274 624L1235 694M1274 624L1336 705M1324 635L1416 624M1324 635L1235 694M1324 635L1336 705M1416 624L1509 639M1416 624L1399 703M1416 624L1474 648M1509 639L1587 617M1509 639L1474 648M1509 639L1524 678M1587 617L1612 601M1587 617L1524 678M1587 617L1615 683M1612 601L1690 628M1612 601L1615 683M1690 628L1785 601M1690 628L1615 683M1690 628L1746 697M1690 628L1669 722M1785 601L1858 561M1785 601L1823 666M1785 601L1843 665M1858 561L1823 666M1958 629L2029 623M1958 629L1966 667M1958 629L2039 655M1958 629L1993 745M2029 623L2087 576M2029 623L1966 667M2029 623L2039 655M2087 576L2039 655M2218 585L2287 562M2218 585L2230 662M2218 585L2263 645M2287 562L2347 615M2287 562L2230 662M2287 562L2263 645M2347 615L2263 645M2347 615L2387 649M2347 615L2402 677M2457 604L2480 611M2457 604L2387 649M2457 604L2402 677M2480 611L2387 649M2480 611L2402 677M61 671L87 673M61 671L-10 703M2621 671L2550 703M87 673L-10 703M2647 673L2550 703M224 689L312 713M224 689L231 748M224 689L263 764M312 713L377 716M312 713L231 748M312 713L263 764M312 713L379 775M377 716L465 717M377 716L379 775M465 717L525 673M465 717L467 800M465 717L527 737M525 673L631 654M525 673L527 737M631 654L692 641M631 654L721 726M692 641L767 720M692 641L721 726M767 720L710 768M767 720L721 726M767 720L808 766M767 720L835 808M958 717L998 649M958 717L925 770M958 717L1027 725M998 649L1048 665M998 649L1027 725M1048 665L1138 643M1048 665L1027 725M1048 665L1090 741M1138 643L1090 741M1235 694L1336 705M1235 694L1192 756M1235 694L1261 786M1336 705L1399 703M1336 705L1349 754M1399 703L1474 648M1399 703L1349 754M1399 703L1403 778M1474 648L1524 678M1524 678L1497 747M1524 678L1569 739M1615 683L1569 739M1615 683L1669 722M1746 697L1823 666M1746 697L1669 722M1746 697L1733 750M1746 697L1790 772M1823 666L1843 665M1823 666L1854 774M1966 667L2039 655M1966 667L1993 745M1966 667L2022 759M2039 655L2022 759M2148 693L2230 662M2148 693L2263 645M2148 693L2128 745M2230 662L2263 645M2387 649L2402 677M2387 649L2375 740M2402 677L2375 740M2550 703L2519 782M54 785L98 794M54 785L-41 782M54 785L22 877M54 785L94 849M2614 785L2519 782M98 794L94 849M231 748L263 764M231 748L212 870M231 748L275 808M263 764L275 808M379 775L467 800M379 775L397 877M379 775L407 825M467 800L527 737M467 800L407 825M467 800L530 867M527 737L599 796M599 796L530 867M599 796L569 859M599 796L581 914M710 768L721 726M710 768L808 766M710 768L717 845M710 768L736 843M721 726L808 766M808 766L736 843M808 766L835 808M925 770L1027 725M925 770L835 808M925 770L926 848M925 770L975 871M1027 725L1090 741M1090 741L1192 756M1192 756L1261 786M1192 756L1131 847M1192 756L1227 849M1261 786L1349 754M1261 786L1227 849M1349 754L1403 778M1403 778L1497 747M1403 778L1391 861M1497 747L1569 739M1497 747L1517 813M1569 739L1517 813M1569 739L1607 806M1669 722L1733 750M1669 722L1607 806M1733 750L1790 772M1733 750L1719 853M1790 772L1854 774M1790 772L1834 823M1854 774L1834 823M1854 774L1884 814M1854 774L1926 855M1993 745L2022 759M2022 759L2128 745M2022 759L2076 859M2128 745L2239 795M2239 795L2247 792M2239 795L2182 868M2239 795L2266 848M2239 795L2355 803M2247 792L2266 848M2375 740L2450 790M2375 740L2355 803M2450 790L2519 782M2450 790L2355 803M2450 790L2468 810M2450 790L2534 815M2519 782L2468 810M2519 782L2534 815M22 877L94 849M22 877L-26 815M22 877L2 893M22 877L-66 922M2582 877L2534 815M2582 877L2494 922M94 849L2 893M94 849L139 914M212 870L275 808M212 870L139 914M212 870L238 897M212 870L286 919M275 808L238 897M275 808L286 919M397 877L407 825M397 877L394 900M397 877L424 904M397 877L349 970M407 825L394 900M407 825L424 904M530 867L569 859M530 867L497 889M530 867L581 914M569 859L497 889M569 859L581 914M717 845L736 843M717 845L693 954M736 843L794 921M835 808L926 848M835 808L824 920M926 848L975 871M926 848L888 919M975 871L888 919M975 871L1021 937M975 871L952 985M1110 853L1131 847M1110 853L1176 899M1131 847L1227 849M1131 847L1176 899M1227 849L1176 899M1337 878L1391 861M1337 878L1265 944M1337 878L1306 923M1337 878L1369 956M1391 861L1369 956M1517 813L1543 865M1517 813L1607 806M1517 813L1480 895M1543 865L1607 806M1543 865L1480 895M1543 865L1583 899M1543 865L1543 963M1607 806L1583 899M1719 853L1674 889M1834 823L1884 814M1834 823L1926 855M1834 823L1896 895M1884 814L1926 855M1884 814L1896 895M1884 814L1944 887M1926 855L1896 895M1926 855L1944 887M2076 859L2088 854M2076 859L2074 922M2076 859L2103 949M2076 859L2168 916M2088 854L2182 868M2088 854L2074 922M2182 868L2266 848M2182 868L2168 916M2266 848L2355 803M2266 848L2308 932M2355 803L2468 810M2468 810L2534 815M2468 810L2494 922M2534 815L2562 893M-26 815L2 893M2 893L-82 949M2 893L-66 922M2562 893L2478 949M2562 893L2494 922M139 914L238 897M238 897L286 919M238 897L289 981M286 919L289 981M286 919L349 970M394 900L424 904M394 900L349 970M424 904L497 889M424 904L349 970M497 889L581 914M497 889L496 982M581 914L596 1012M693 954L688 962M693 954L746 990M794 921L824 920M794 921L888 919M794 921L746 990M794 921L812 1017M824 920L888 919M824 920L812 1017M888 919L952 985M1021 937L1093 950M1021 937L952 985M1021 937L1022 963M1093 950L1176 899M1093 950L1022 963M1093 950L1091 1013M1093 950L1137 1029M1176 899L1240 986M1265 944L1306 923M1265 944L1240 986M1265 944L1352 981M1306 923L1369 956M1306 923L1240 986M1306 923L1352 981M1369 956L1352 981M1369 956L1436 1003M1480 895L1583 899M1480 895L1490 965M1480 895L1543 963M1583 899L1674 889M1583 899L1543 963M1674 889L1740 959M1674 889L1680 974M1740 959L1827 940M1740 959L1680 974M1740 959L1686 998M1740 959L1780 975M1827 940L1896 895M1827 940L1944 887M1827 940L1780 975M1827 940L1858 1006M1896 895L1944 887M2074 922L2103 949M2074 922L2168 916M2074 922L2101 1011M2103 949L2168 916M2103 949L2073 1013M2103 949L2101 1011M2168 916L2237 986M2308 932L2350 955M2308 932L2237 986M2308 932L2247 966M2308 932L2363 1001M2350 955L2247 966M2350 955L2363 1001M2350 955L2414 1034M2350 955L2339 1058M2478 949L2494 922M2478 949L2481 1001M2494 922L2481 1001M55 1018L119 1034M55 1018L53 1054M119 1034L216 1018M119 1034L53 1054M119 1034L107 1100M119 1034L182 1108M216 1018L289 981M216 1018L182 1108M216 1018L298 1113M289 981L349 970M289 981L356 1074M463 1032L496 982M463 1032L356 1074M463 1032L466 1108M463 1032L530 1066M496 982L596 1012M596 1012L530 1066M596 1012L675 1089M596 1012L553 1121M688 962L746 990M746 990L812 1017M746 990L730 1089M812 1017L730 1089M812 1017L842 1064M952 985L1022 963M1022 963L1091 1013M1091 1013L1137 1029M1091 1013L1139 1043M1137 1029L1139 1043M1137 1029L1241 1052M1240 986L1241 1052M1352 981L1436 1003M1352 981L1408 1064M1436 1003L1490 965M1436 1003L1408 1064M1436 1003L1442 1067M1490 965L1543 963M1490 965L1442 1067M1680 974L1686 998M1680 974L1780 975M1680 974L1674 1088M1686 998L1780 975M1686 998L1674 1088M1686 998L1747 1067M1780 975L1858 1006M1858 1006L1950 1040M1858 1006L1832 1099M1858 1006L1929 1073M1950 1040L1893 1099M1950 1040L1929 1073M1950 1040L2076 1040M1950 1040L1962 1162M2073 1013L2101 1011M2073 1013L2076 1040M2073 1013L2139 1084M2101 1011L2076 1040M2101 1011L2139 1084M2237 986L2247 966M2237 986L2231 1060M2247 966L2231 1060M2363 1001L2414 1034M2363 1001L2339 1058M2414 1034L2481 1001M2414 1034L2339 1058M2414 1034L2441 1102M2481 1001L2512 1089M53 1054L107 1100M53 1054L46 1139M53 1054L91 1136M107 1100L182 1108M107 1100L46 1139M107 1100L91 1136M182 1108L91 1136M182 1108L176 1140M298 1113L356 1074M298 1113L176 1140M298 1113L292 1189M466 1108L530 1066M466 1108L388 1168M466 1108L466 1182M466 1108L553 1121M530 1066L567 1117M530 1066L553 1121M567 1117L553 1121M567 1117L578 1160M675 1089L730 1089M675 1089L578 1160M675 1089L693 1123M730 1089L693 1123M730 1089L797 1175M842 1064L849 1156M942 1112L1003 1109M942 1112L908 1161M1003 1109L1065 1106M1003 1109L908 1161M1003 1109L1022 1196M1003 1109L1088 1130M1065 1106L1139 1043M1065 1106L1022 1196M1065 1106L1088 1130M1065 1106L1083 1210M1139 1043L1241 1052M1241 1052L1307 1065M1241 1052L1285 1162M1307 1065L1285 1162M1408 1064L1442 1067M1408 1064L1422 1163M1408 1064L1442 1161M1442 1067L1422 1163M1442 1067L1442 1161M1559 1103L1560 1190M1559 1103L1628 1145M1559 1103L1550 1203M1674 1088L1747 1067M1674 1088L1628 1145M1674 1088L1696 1170M1747 1067L1832 1099M1747 1067L1696 1170M1747 1067L1825 1124M1832 1099L1893 1099M1832 1099L1825 1124M1832 1099L1871 1169M1893 1099L1929 1073M1893 1099L1825 1124M1893 1099L1871 1169M1929 1073L1962 1162M2076 1040L2139 1084M2139 1084L2231 1060M2139 1084L2192 1162M2231 1060L2272 1119M2231 1060L2276 1151M2272 1119L2339 1058M2272 1119L2192 1162M2272 1119L2276 1151M2339 1058L2393 1148M2441 1102L2512 1089M2441 1102L2393 1148M2441 1102L2427 1140M2441 1102L2502 1141M2512 1089L2606 1139M2512 1089L2427 1140M2512 1089L2502 1141M-48 1089L46 1139M46 1139L91 1136M91 1136L176 1140M292 1189L388 1168M292 1189L213 1258M292 1189L247 1233M292 1189L395 1238M388 1168L466 1182M388 1168L395 1238M388 1168L451 1215M466 1182L395 1238M466 1182L451 1215M553 1121L578 1160M578 1160L555 1232M578 1160L602 1246M693 1123L797 1175M693 1123L669 1236M797 1175L849 1156M797 1175L735 1250M797 1175L843 1257M849 1156L908 1161M849 1156L921 1228M908 1161L921 1228M908 1161L962 1258M1022 1196L1088 1130M1022 1196L962 1258M1022 1196L1083 1210M1088 1130L1166 1176M1088 1130L1083 1210M1166 1176L1254 1182M1166 1176L1285 1162M1166 1176L1083 1210M1166 1176L1178 1265M1254 1182L1285 1162M1254 1182L1222 1268M1254 1182L1304 1251M1285 1162L1304 1251M1422 1163L1442 1161M1422 1163L1395 1250M1442 1161L1395 1250M1442 1161L1550 1203M1560 1190L1628 1145M1560 1190L1550 1203M1628 1145L1696 1170M1628 1145L1550 1203M1696 1170L1676 1249M1696 1170L1713 1245M1825 1124L1871 1169M1871 1169L1962 1162M1871 1169L1888 1267M1962 1162L2050 1193M1962 1162L1947 1239M2050 1193L2110 1183M2050 1193L1947 1239M2050 1193L2025 1268M2050 1193L2118 1210M2110 1183L2192 1162M2110 1183L2118 1210M2110 1183L2181 1242M2192 1162L2276 1151M2192 1162L2181 1242M2276 1151L2274 1253M2393 1148L2427 1140M2393 1148L2465 1218M2427 1140L2502 1141M2427 1140L2465 1218M2502 1141L2465 1218M2502 1141L2510 1200M29 1259L124 1262M29 1259L-50 1200M29 1259L57 1310M29 1259L97 1302M29 1259L-37 1338M2589 1259L2510 1200M2589 1259L2523 1338M124 1262L213 1258M124 1262L57 1310M124 1262L97 1302M124 1262L211 1306M213 1258L247 1233M213 1258L211 1306M247 1233L211 1306M395 1238L451 1215M395 1238L356 1292M451 1215L555 1232M451 1215L523 1298M555 1232L602 1246M555 1232L523 1298M555 1232L588 1315M602 1246L669 1236M602 1246L588 1315M602 1246L652 1316M669 1236L735 1250M669 1236L652 1316M735 1250L843 1257M735 1250L754 1335M735 1250L836 1304M843 1257L921 1228M843 1257L836 1304M921 1228L962 1258M921 1228L920 1324M962 1258L920 1324M962 1258L1015 1346M1083 1210L1108 1306M1178 1265L1222 1268M1178 1265L1108 1306M1178 1265L1164 1312M1178 1265L1238 1324M1222 1268L1304 1251M1222 1268L1164 1312M1222 1268L1238 1324M1304 1251L1355 1293M1395 1250L1461 1279M1395 1250L1355 1293M1395 1250L1409 1290M1461 1279L1409 1290M1461 1279L1499 1328M1461 1279L1515 1360M1676 1249L1713 1245M1676 1249L1764 1277M1676 1249L1646 1309M1713 1245L1764 1277M1713 1245L1646 1309M1713 1245L1711 1348M1764 1277L1888 1267M1764 1277L1711 1348M1764 1277L1783 1331M1888 1267L1947 1239M1888 1267L1903 1339M1888 1267L1932 1281M1947 1239L2025 1268M1947 1239L1932 1281M2025 1268L2118 1210M2025 1268L1932 1281M2025 1268L2034 1343M2118 1210L2181 1242M2181 1242L2274 1253M2181 1242L2160 1321M2274 1253L2335 1260M2274 1253L2279 1316M2274 1253L2329 1313M2335 1260L2279 1316M2335 1260L2329 1313M2465 1218L2510 1200M2465 1218L2454 1288M2510 1200L2454 1288M57 1310L97 1302M57 1310L69 1370M57 1310L94 1377M97 1302L69 1370M97 1302L94 1377M211 1306L273 1355M211 1306L187 1391M273 1355L356 1292M273 1355L187 1391M273 1355L281 1389M273 1355L327 1431M356 1292L403 1338M403 1338L451 1388M523 1298L588 1315M523 1298L486 1374M588 1315L652 1316M588 1315L561 1406M652 1316L679 1372M754 1335L836 1304M754 1335L679 1372M754 1335L727 1406M754 1335L830 1371M836 1304L920 1324M836 1304L830 1371M920 1324L1015 1346M920 1324L920 1424M1015 1346L1108 1306M1015 1346L976 1421M1015 1346L1045 1426M1108 1306L1164 1312M1108 1306L1187 1372M1164 1312L1238 1324M1164 1312L1187 1372M1238 1324L1187 1372M1238 1324L1323 1365M1355 1293L1409 1290M1355 1293L1323 1365M1355 1293L1374 1388M1409 1290L1499 1328M1409 1290L1374 1388M1499 1328L1593 1324M1499 1328L1515 1360M1593 1324L1646 1309M1593 1324L1515 1360M1593 1324L1593 1380M1593 1324L1608 1412M1646 1309L1711 1348M1646 1309L1593 1380M1711 1348L1783 1331M1711 1348L1758 1402M1783 1331L1758 1402M1783 1331L1822 1410M1903 1339L1932 1281M1903 1339L1822 1410M1903 1339L1918 1406M1903 1339L1965 1403M2034 1343L1965 1403M2034 1343L2017 1416M2147 1347L2160 1321M2147 1347L2141 1408M2147 1347L2212 1395M2160 1321L2141 1408M2160 1321L2212 1395M2279 1316L2329 1313M2279 1316L2310 1405M2329 1313L2310 1405M2329 1313L2335 1405M2454 1288L2523 1338M2454 1288L2468 1370M2523 1338L2468 1370M2523 1338L2484 1408M69 1370L94 1377M94 1377L187 1391M187 1391L281 1389M281 1389L327 1431M451 1388L486 1374M486 1374L561 1406M679 1372L727 1406M727 1406L830 1371M920 1424L976 1421M976 1421L1045 1426M1187 1372L1257 1440M1257 1440L1323 1365M1323 1365L1374 1388M1515 1360L1593 1380M1593 1380L1608 1412M1758 1402L1822 1410M1822 1410L1918 1406M1918 1406L1965 1403M1918 1406L2017 1416M1965 1403L2017 1416M2141 1408L2212 1395M2212 1395L2310 1405M2310 1405L2335 1405M2468 1370L2484 1408"/></svg>