<svg xmlns="http://www.w3.org/2000/svg" width="2560" height="1440" fill="#fff"><circle cx="69" cy="34" r="6"/><circle cx="130" cy="60" r="5"/><circle cx="178" cy="6" r="4"/><circle cx="241" cy="72" r="4"/><circle cx="370" cy="26" r="5"/><circle cx="474" cy="17" r="5"/><circle cx="492" cy="17" r="4"/><circle cx="638" cy="29" r="6"/><circle cx="697" cy="69" r="5"/><circle cx="797" cy="26" r="4"/><circle cx="812" cy="70" r="6"/><circle cx="920" cy="58" r="6"/><circle cx="982" cy="2" r="5"/><circle cx="982" cy="1442" r="5"/><circle cx="1118" cy="14" r="4"/><circle cx="1149" cy="51" r="4"/><circle cx="1230" cy="3" r="6"/><circle cx="1230" cy="1443" r="6"/><circle cx="1288" cy="16" r="4"/><circle cx="1406" cy="29" r="4"/><circle cx="1506" cy="54" r="4"/><circle cx="1592" cy="9" r="4"/><circle cx="1613" cy="1" r="4"/><circle cx="1613" cy="1441" r="4"/><circle cx="1724" cy="3" r="6"/><circle cx="1724" cy="1443" r="6"/><circle cx="1796" cy="39" r="5"/><circle cx="1909" cy="25" r="5"/><circle cx="1990" cy="71" r="6"/><circle cx="2020" cy="42" r="4"/><circle cx="2150" cy="41" r="4"/><circle cx="2162" cy="14" r="5"/><circle cx="2308" cy="52" r="5"/><circle cx="2347" cy="61" r="5"/><circle cx="2454" cy="36" r="5"/><circle cx="2521" cy="39" r="4"/><circle cx="31" cy="140" r="5"/><circle cx="136" cy="84" r="6"/><circle cx="168" cy="141" r="5"/><circle cx="249" cy="142" r="4"/><circle cx="379" cy="91" r="6"/><circle cx="476" cy="145" r="5"/><circle cx="554" cy="132" r="5"/><circle cx="621" cy="105" r="6"/><circle cx="707" cy="125" r="4"/><circle cx="729" cy="128" r="5"/><circle cx="843" cy="125" r="6"/><circle cx="900" cy="98" r="4"/><circle cx="974" cy="145" r="5"/><circle cx="1096" cy="96" r="5"/><circle cx="1193" cy="95" r="4"/><circle cx="1250" cy="159" r="6"/><circle cx="1286" cy="152" r="6"/><circle cx="1436" cy="128" r="4"/><circle cx="1466" cy="105" r="4"/><circle cx="1588" cy="99" r="6"/><circle cx="1662" cy="129" r="5"/><circle cx="1733" cy="148" r="4"/><circle cx="1815" cy="143" r="4"/><circle cx="1880" cy="102" r="5"/><circle cx="1984" cy="131" r="5"/><circle cx="2075" cy="148" r="6"/><circle cx="2092" cy="84" r="5"/><circle cx="2239" cy="159" r="5"/><circle cx="2259" cy="137" r="5"/><circle cx="2392" cy="98" r="5"/><circle cx="2427" cy="111" r="5"/><circle cx="2527" cy="141" r="5"/><circle cx="22" cy="205" r="6"/><circle cx="85" cy="233" r="5"/><circle cx="197" cy="180" r="5"/><circle cx="269" cy="228" r="5"/><circle cx="392" cy="230" r="6"/><circle cx="479" cy="184" r="5"/><circle cx="555" cy="225" r="5"/><circle cx="631" cy="235" r="4"/><circle cx="684" cy="170" r="6"/><circle cx="733" cy="207" r="4"/><circle cx="839" cy="180" r="5"/><circle cx="959" cy="190" r="4"/><circle cx="1028" cy="207" r="5"/><circle cx="1096" cy="223" r="4"/><circle cx="1142" cy="189" r="4"/><circle cx="1219" cy="193" r="6"/><circle cx="1343" cy="194" r="5"/><circle cx="1423" cy="172" r="6"/><circle cx="1486" cy="219" r="6"/><circle cx="1566" cy="221" r="4"/><circle cx="1622" cy="212" r="5"/><circle cx="1753" cy="234" r="5"/><circle cx="1824" cy="233" r="5"/><circle cx="1880" cy="187" r="4"/><circle cx="1941" cy="189" r="4"/><circle cx="2037" cy="200" r="6"/><circle cx="2136" cy="216" r="4"/><circle cx="2210" cy="164" r="6"/><circle cx="2309" cy="170" r="4"/><circle cx="2350" cy="219" r="4"/><circle cx="2459" cy="218" r="4"/><circle cx="2486" cy="233" r="5"/><circle cx="31" cy="260" r="5"/><circle cx="104" cy="271" r="4"/><circle cx="169" cy="283" r="6"/><circle cx="246" cy="251" r="6"/><circle cx="325" cy="241" r="6"/><circle cx="478" cy="311" r="4"/><circle cx="526" cy="276" r="6"/><circle cx="622" cy="251" r="5"/><circle cx="658" cy="270" r="5"/><circle cx="796" cy="272" r="6"/><circle cx="839" cy="268" r="6"/><circle cx="948" cy="247" r="6"/><circle cx="965" cy="291" r="6"/><circle cx="1110" cy="275" r="5"/><circle cx="1140" cy="255" r="6"/><circle cx="1232" cy="263" r="5"/><circle cx="1360" cy="314" r="6"/><circle cx="1378" cy="301" r="4"/><circle cx="1481" cy="255" r="4"/><circle cx="1583" cy="268" r="5"/><circle cx="1641" cy="245" r="6"/><circle cx="1738" cy="307" r="5"/><circle cx="1826" cy="317" r="6"/><circle cx="1895" cy="313" r="5"/><circle cx="1962" cy="275" r="5"/><circle cx="2011" cy="262" r="5"/><circle cx="2154" cy="247" r="5"/><circle cx="2165" cy="297" r="5"/><circle cx="2312" cy="296" r="5"/><circle cx="2374" cy="267" r="5"/><circle cx="2429" cy="271" r="6"/><circle cx="2485" cy="292" r="5"/><circle cx="12" cy="358" r="6"/><circle cx="101" cy="339" r="4"/><circle cx="171" cy="342" r="6"/><circle cx="275" cy="333" r="5"/><circle cx="397" cy="352" r="5"/><circle cx="460" cy="321" r="6"/><circle cx="544" cy="323" r="4"/><circle cx="581" cy="351" r="5"/><circle cx="662" cy="390" r="5"/><circle cx="729" cy="339" r="5"/><circle cx="854" cy="352" r="5"/><circle cx="931" cy="320" r="5"/><circle cx="1031" cy="386" r="6"/><circle cx="1068" cy="389" r="6"/><circle cx="1173" cy="382" r="6"/><circle cx="1223" cy="342" r="5"/><circle cx="1288" cy="356" r="4"/><circle cx="1379" cy="337" r="5"/><circle cx="1493" cy="395" r="5"/><circle cx="1532" cy="327" r="6"/><circle cx="1621" cy="367" r="6"/><circle cx="1707" cy="394" r="5"/><circle cx="1806" cy="322" r="4"/><circle cx="1915" cy="336" r="4"/><circle cx="2000" cy="354" r="4"/><circle cx="2002" cy="350" r="5"/><circle cx="2148" cy="361" r="5"/><circle cx="2232" cy="357" r="4"/><circle cx="2275" cy="399" r="4"/><circle cx="2393" cy="321" r="5"/><circle cx="2409" cy="346" r="5"/><circle cx="2528" cy="384" r="4"/><circle cx="45" cy="473" r="5"/><circle cx="115" cy="458" r="5"/><circle cx="233" cy="412" r="5"/><circle cx="289" cy="464" r="4"/><circle cx="368" cy="431" r="6"/><circle cx="454" cy="415" r="5"/><circle cx="542" cy="453" r="6"/><circle cx="564" cy="405" r="4"/><circle cx="693" cy="404" r="4"/><circle cx="761" cy="412" r="6"/><circle cx="836" cy="402" r="4"/><circle cx="907" cy="405" r="5"/><circle cx="968" cy="410" r="5"/><circle cx="1092" cy="405" r="5"/><circle cx="1187" cy="468" r="5"/><circle cx="1223" cy="464" r="4"/><circle cx="1325" cy="419" r="5"/><circle cx="1437" cy="474" r="4"/><circle cx="1465" cy="450" r="5"/><circle cx="1582" cy="414" r="5"/><circle cx="1666" cy="450" r="5"/><circle cx="1722" cy="421" r="4"/><circle cx="1768" cy="453" r="6"/><circle cx="1862" cy="474" r="5"/><circle cx="1941" cy="469" r="5"/><circle cx="2001" cy="452" r="6"/><circle cx="2133" cy="466" r="5"/><circle cx="2203" cy="454" r="6"/><circle cx="2296" cy="431" r="4"/><circle cx="2365" cy="401" r="5"/><circle cx="2428" cy="460" r="5"/><circle cx="2516" cy="401" r="5"/><circle cx="46" cy="509" r="6"/><circle cx="132" cy="551" r="5"/><circle cx="172" cy="542" r="5"/><circle cx="302" cy="515" r="5"/><circle cx="389" cy="489" r="5"/><circle cx="432" cy="528" r="5"/><circle cx="527" cy="497" r="4"/><circle cx="593" cy="501" r="5"/><circle cx="693" cy="487" r="5"/><circle cx="788" cy="544" r="5"/><circle cx="800" cy="506" r="5"/><circle cx="921" cy="509" r="5"/><circle cx="992" cy="501" r="5"/><circle cx="1055" cy="480" r="5"/><circle cx="1130" cy="502" r="5"/><circle cx="1256" cy="487" r="5"/><circle cx="1333" cy="518" r="5"/><circle cx="1424" cy="514" r="5"/><circle cx="1459" cy="534" r="5"/><circle cx="1557" cy="517" r="5"/><circle cx="1646" cy="544" r="5"/><circle cx="1743" cy="505" r="5"/><circle cx="1830" cy="540" r="6"/><circle cx="1860" cy="513" r="5"/><circle cx="1994" cy="536" r="4"/><circle cx="2014" cy="499" r="6"/><circle cx="2095" cy="539" r="5"/><circle cx="2191" cy="484" r="5"/><circle cx="2269" cy="525" r="5"/><circle cx="2362" cy="499" r="5"/><circle cx="2459" cy="507" r="6"/><circle cx="2526" cy="550" r="6"/><circle cx="22" cy="623" r="5"/><circle cx="120" cy="591" r="6"/><circle cx="222" cy="596" r="5"/><circle cx="304" cy="638" r="6"/><circle cx="356" cy="637" r="6"/><circle cx="455" cy="618" r="6"/><circle cx="511" cy="577" r="4"/><circle cx="640" cy="610" r="5"/><circle cx="676" cy="581" r="5"/><circle cx="756" cy="577" r="5"/><circle cx="845" cy="590" r="6"/><circle cx="899" cy="585" r="4"/><circle cx="996" cy="575" r="4"/><circle cx="1061" cy="588" r="5"/><circle cx="1176" cy="572" r="6"/><circle cx="1274" cy="611" r="4"/><circle cx="1326" cy="579" r="5"/><circle cx="1420" cy="610" r="5"/><circle cx="1473" cy="638" r="5"/><circle cx="1573" cy="632" r="6"/><circle cx="1629" cy="588" r="4"/><circle cx="1687" cy="622" r="6"/><circle cx="1774" cy="616" r="4"/><circle cx="1908" cy="571" r="6"/><circle cx="1949" cy="602" r="5"/><circle cx="2076" cy="574" r="5"/><circle cx="2085" cy="636" r="4"/><circle cx="2206" cy="601" r="4"/><circle cx="2316" cy="577" r="4"/><circle cx="2354" cy="583" r="6"/><circle cx="2472" cy="584" r="4"/><circle cx="2551" cy="587" r="5"/><circle cx="76" cy="680" r="4"/><circle cx="115" cy="712" r="6"/><circle cx="175" cy="657" r="6"/><circle cx="251" cy="642" r="6"/><circle cx="369" cy="681" r="5"/><circle cx="401" cy="718" r="4"/><circle cx="526" cy="665" r="5"/><circle cx="605" cy="700" r="4"/><circle cx="685" cy="682" r="6"/><circle cx="735" cy="687" r="6"/><circle cx="800" cy="670" r="6"/><circle cx="922" cy="688" r="4"/><circle cx="1039" cy="662" r="4"/><circle cx="1082" cy="652" r="5"/><circle cx="1151" cy="658" r="4"/><circle cx="1255" cy="665" r="5"/><circle cx="1332" cy="673" r="4"/><circle cx="1368" cy="719" r="5"/><circle cx="1471" cy="695" r="6"/><circle cx="1560" cy="668" r="5"/><circle cx="1608" cy="684" r="4"/><circle cx="1711" cy="696" r="5"/><circle cx="1823" cy="698" r="5"/><circle cx="1843" cy="648" r="4"/><circle cx="1977" cy="641" r="6"/><circle cx="2021" cy="672" r="6"/><circle cx="2095" cy="646" r="5"/><circle cx="2181" cy="659" r="5"/><circle cx="2306" cy="707" r="6"/><circle cx="2353" cy="707" r="6"/><circle cx="2458" cy="641" r="4"/><circle cx="2500" cy="650" r="4"/><circle cx="70" cy="781" r="5"/><circle cx="143" cy="747" r="6"/><circle cx="169" cy="722" r="4"/><circle cx="261" cy="791" r="5"/><circle cx="325" cy="793" r="5"/><circle cx="446" cy="763" r="6"/><circle cx="533" cy="788" r="5"/><circle cx="608" cy="733" r="5"/><circle cx="643" cy="787" r="4"/><circle cx="768" cy="783" r="5"/><circle cx="828" cy="731" r="5"/><circle cx="914" cy="741" r="4"/><circle cx="1018" cy="800" r="6"/><circle cx="1115" cy="750" r="4"/><circle cx="1188" cy="770" r="4"/><circle cx="1250" cy="728" r="5"/><circle cx="1335" cy="723" r="5"/><circle cx="1387" cy="742" r="4"/><circle cx="1472" cy="721" r="5"/><circle cx="1588" cy="762" r="6"/><circle cx="1661" cy="738" r="4"/><circle cx="1685" cy="793" r="5"/><circle cx="1832" cy="731" r="5"/><circle cx="1872" cy="761" r="6"/><circle cx="1962" cy="739" r="5"/><circle cx="2012" cy="752" r="6"/><circle cx="2124" cy="780" r="6"/><circle cx="2219" cy="752" r="6"/><circle cx="2257" cy="764" r="5"/><circle cx="2331" cy="771" r="6"/><circle cx="2442" cy="758" r="5"/><circle cx="2482" cy="749" r="5"/><circle cx="2" cy="802" r="4"/><circle cx="2562" cy="802" r="4"/><circle cx="145" cy="850" r="5"/><circle cx="183" cy="803" r="4"/><circle cx="308" cy="814" r="4"/><circle cx="374" cy="820" r="6"/><circle cx="447" cy="800" r="5"/><circle cx="522" cy="832" r="4"/><circle cx="607" cy="828" r="5"/><circle cx="671" cy="842" r="6"/><circle cx="784" cy="839" r="4"/><circle cx="845" cy="819" r="5"/><circle cx="893" cy="850" r="6"/><circle cx="992" cy="873" r="4"/><circle cx="1097" cy="830" r="6"/><circle cx="1143" cy="834" r="6"/><circle cx="1277" cy="879" r="5"/><circle cx="1280" cy="838" r="6"/><circle cx="1362" cy="869" r="5"/><circle cx="1484" cy="872" r="4"/><circle cx="1565" cy="855" r="6"/><circle cx="1652" cy="862" r="6"/><circle cx="1696" cy="835" r="5"/><circle cx="1810" cy="879" r="6"/><circle cx="1848" cy="821" r="5"/><circle cx="1972" cy="864" r="6"/><circle cx="2031" cy="829" r="6"/><circle cx="2151" cy="839" r="5"/><circle cx="2221" cy="809" r="6"/><circle cx="2259" cy="800" r="6"/><circle cx="2353" cy="864" r="5"/><circle cx="2471" cy="849" r="6"/><circle cx="2526" cy="880" r="6"/><circle cx="44" cy="887" r="6"/><circle cx="93" cy="891" r="4"/><circle cx="162" cy="911" r="5"/><circle cx="297" cy="924" r="6"/><circle cx="365" cy="884" r="6"/><circle cx="460" cy="927" r="5"/><circle cx="556" cy="906" r="5"/><circle cx="578" cy="959" r="5"/><circle cx="641" cy="941" r="6"/><circle cx="723" cy="917" r="5"/><circle cx="815" cy="909" r="5"/><circle cx="947" cy="883" r="5"/><circle cx="1028" cy="911" r="5"/><circle cx="1057" cy="894" r="5"/><circle cx="1160" cy="897" r="6"/><circle cx="1210" cy="946" r="4"/><circle cx="1338" cy="934" r="6"/><circle cx="1398" cy="888" r="4"/><circle cx="1517" cy="951" r="5"/><circle cx="1548" cy="905" r="5"/><circle cx="1612" cy="947" r="4"/><circle cx="1706" cy="942" r="4"/><circle cx="1824" cy="937" r="4"/><circle cx="1888" cy="932" r="5"/><circle cx="1962" cy="942" r="4"/><circle cx="2001" cy="923" r="6"/><circle cx="2125" cy="933" r="6"/><circle cx="2212" cy="902" r="5"/><circle cx="2312" cy="934" r="6"/><circle cx="2329" cy="890" r="5"/><circle cx="2456" cy="947" r="5"/><circle cx="2499" cy="955" r="4"/><circle cx="26" cy="996" r="5"/><circle cx="111" cy="1033" r="5"/><circle cx="197" cy="1032" r="5"/><circle cx="278" cy="997" r="5"/><circle cx="327" cy="997" r="6"/><circle cx="451" cy="1003" r="6"/><circle cx="506" cy="961" r="5"/><circle cx="624" cy="978" r="5"/><circle cx="690" cy="965" r="5"/><circle cx="725" cy="990" r="6"/><circle cx="864" cy="970" r="6"/><circle cx="936" cy="968" r="6"/><circle cx="992" cy="996" r="4"/><circle cx="1106" cy="1013" r="5"/><circle cx="1179" cy="1016" r="6"/><circle cx="1226" cy="968" r="6"/><circle cx="1328" cy="999" r="4"/><circle cx="1378" cy="1039" r="5"/><circle cx="1455" cy="967" r="6"/><circle cx="1538" cy="987" r="6"/><circle cx="1629" cy="1004" r="5"/><circle cx="1729" cy="1030" r="4"/><circle cx="1815" cy="1026" r="4"/><circle cx="1850" cy="1030" r="5"/><circle cx="1977" cy="1019" r="4"/><circle cx="2002" cy="962" r="5"/><circle cx="2118" cy="1019" r="6"/><circle cx="2239" cy="994" r="6"/><circle cx="2240" cy="1020" r="4"/><circle cx="2383" cy="1025" r="4"/><circle cx="2457" cy="983" r="4"/><circle cx="2481" cy="1009" r="4"/><circle cx="52" cy="1115" r="6"/><circle cx="130" cy="1046" r="5"/><circle cx="231" cy="1067" r="6"/><circle cx="256" cy="1040" r="4"/><circle cx="392" cy="1076" r="6"/><circle cx="451" cy="1056" r="4"/><circle cx="558" cy="1090" r="4"/><circle cx="597" cy="1076" r="5"/><circle cx="644" cy="1083" r="4"/><circle cx="724" cy="1096" r="5"/><circle cx="878" cy="1115" r="5"/><circle cx="901" cy="1041" r="5"/><circle cx="981" cy="1101" r="5"/><circle cx="1060" cy="1116" r="5"/><circle cx="1126" cy="1086" r="5"/><circle cx="1217" cy="1115" r="5"/><circle cx="1285" cy="1078" r="4"/><circle cx="1373" cy="1116" r="4"/><circle cx="1494" cy="1118" r="4"/><circle cx="1598" cy="1102" r="4"/><circle cx="1634" cy="1120" r="5"/><circle cx="1709" cy="1042" r="5"/><circle cx="1808" cy="1081" r="5"/><circle cx="1914" cy="1086" r="5"/><circle cx="1921" cy="1109" r="5"/><circle cx="2054" cy="1115" r="4"/><circle cx="2153" cy="1083" r="4"/><circle cx="2234" cy="1114" r="5"/><circle cx="2302" cy="1072" r="4"/><circle cx="2390" cy="1066" r="6"/><circle cx="2448" cy="1078" r="5"/><circle cx="2492" cy="1119" r="4"/><circle cx="39" cy="1124" r="5"/><circle cx="91" cy="1124" r="5"/><circle cx="233" cy="1174" r="6"/><circle cx="302" cy="1184" r="4"/><circle cx="361" cy="1179" r="6"/><circle cx="402" cy="1192" r="5"/><circle cx="498" cy="1160" r="6"/><circle cx="611" cy="1142" r="4"/><circle cx="668" cy="1131" r="5"/><circle cx="764" cy="1131" r="5"/><circle cx="824" cy="1157" r="6"/><circle cx="959" cy="1123" r="5"/><circle cx="1032" cy="1147" r="4"/><circle cx="1092" cy="1189" r="5"/><circle cx="1151" cy="1167" r="4"/><circle cx="1271" cy="1143" r="5"/><circle cx="1336" cy="1192" r="6"/><circle cx="1429" cy="1191" r="6"/><circle cx="1455" cy="1198" r="5"/><circle cx="1543" cy="1124" r="4"/><circle cx="1642" cy="1196" r="6"/><circle cx="1759" cy="1121" r="6"/><circle cx="1814" cy="1135" r="6"/><circle cx="1864" cy="1176" r="4"/><circle cx="1924" cy="1128" r="4"/><circle cx="2075" cy="1123" r="5"/><circle cx="2147" cy="1138" r="6"/><circle cx="2239" cy="1167" r="6"/><circle cx="2299" cy="1150" r="6"/><circle cx="2341" cy="1184" r="5"/><circle cx="2425" cy="1172" r="5"/><circle cx="2528" cy="1165" r="5"/><circle cx="19" cy="1269" r="5"/><circle cx="83" cy="1273" r="6"/><circle cx="203" cy="1210" r="5"/><circle cx="252" cy="1266" r="6"/><circle cx="392" cy="1219" r="4"/><circle cx="414" cy="1241" r="4"/><circle cx="485" cy="1240" r="5"/><circle cx="587" cy="1269" r="5"/><circle cx="659" cy="1234" r="4"/><circle cx="794" cy="1208" r="4"/><circle cx="877" cy="1270" r="5"/><circle cx="946" cy="1255" r="4"/><circle cx="1016" cy="1238" r="5"/><circle cx="1085" cy="1235" r="5"/><circle cx="1166" cy="1212" r="5"/><circle cx="1251" cy="1209" r="5"/><circle cx="1295" cy="1242" r="4"/><circle cx="1377" cy="1204" r="4"/><circle cx="1470" cy="1259" r="5"/><circle cx="1549" cy="1250" r="5"/><circle cx="1625" cy="1229" r="5"/><circle cx="1696" cy="1208" r="6"/><circle cx="1775" cy="1211" r="4"/><circle cx="1860" cy="1274" r="5"/><circle cx="1996" cy="1250" r="5"/><circle cx="2016" cy="1209" r="6"/><circle cx="2109" cy="1278" r="5"/><circle cx="2238" cy="1204" r="4"/><circle cx="2263" cy="1218" r="5"/><circle cx="2333" cy="1244" r="4"/><circle cx="2442" cy="1216" r="5"/><circle cx="2511" cy="1210" r="5"/><circle cx="56" cy="1302" r="5"/><circle cx="136" cy="1310" r="5"/><circle cx="201" cy="1301" r="5"/><circle cx="267" cy="1317" r="6"/><circle cx="368" cy="1356" r="5"/><circle cx="462" cy="1286" r="5"/><circle cx="504" cy="1288" r="5"/><circle cx="607" cy="1301" r="5"/><circle cx="646" cy="1332" r="5"/><circle cx="774" cy="1347" r="6"/><circle cx="857" cy="1305" r="4"/><circle cx="882" cy="1354" r="4"/><circle cx="1022" cy="1299" r="6"/><circle cx="1055" cy="1294" r="5"/><circle cx="1133" cy="1345" r="6"/><circle cx="1254" cy="1292" r="6"/><circle cx="1312" cy="1300" r="4"/><circle cx="1421" cy="1303" r="4"/><circle cx="1443" cy="1341" r="5"/><circle cx="1543" cy="1310" r="4"/><circle cx="1671" cy="1341" r="6"/><circle cx="1755" cy="1339" r="5"/><circle cx="1796" cy="1305" r="6"/><circle cx="1856" cy="1292" r="5"/><circle cx="1986" cy="1331" r="5"/><circle cx="2064" cy="1319" r="6"/><circle cx="2106" cy="1304" r="4"/><circle cx="2219" cy="1280" r="5"/><circle cx="2287" cy="1320" r="6"/><circle cx="2369" cy="1336" r="5"/><circle cx="2462" cy="1284" r="6"/><circle cx="2555" cy="1356" r="4"/><circle cx="19" cy="1422" r="4"/><circle cx="87" cy="1367" r="4"/><circle cx="223" cy="1419" r="4"/><circle cx="320" cy="1405" r="5"/><circle cx="346" cy="1402" r="4"/><circle cx="459" cy="1380" r="5"/><circle cx="545" cy="1411" r="6"/><circle cx="610" cy="1422" r="5"/><circle cx="714" cy="1415" r="4"/><circle cx="760" cy="1439" r="5"/><circle cx="760" cy="-1" r="5"/><circle cx="837" cy="1373" r="5"/><circle cx="950" cy="1398" r="6"/><circle cx="1020" cy="1378" r="4"/><circle cx="1066" cy="1379" r="5"/><circle cx="1170" cy="1425" r="5"/><circle cx="1241" cy="1438" r="5"/><circle cx="1241" cy="-2" r="5"/><circle cx="1350" cy="1409" r="4"/><circle cx="1421" cy="1372" r="4"/><circle cx="1447" cy="1377" r="6"/><circle cx="1528" cy="1384" r="5"/><circle cx="1667" cy="1415" r="6"/><circle cx="1690" cy="1434" r="4"/><circle cx="1805" cy="1406" r="6"/><circle cx="1892" cy="1409" r="5"/><circle cx="1921" cy="1424" r="5"/><circle cx="2027" cy="1391" r="5"/><circle cx="2087" cy="1423" r="4"/><circle cx="2195" cy="1421" r="5"/><circle cx="2259" cy="1377" r="6"/><circle cx="2375" cy="1389" r="4"/><circle cx="2451" cy="1439" r="5"/><circle cx="2451" cy="-1" r="5"/><circle cx="2558" cy="1420" r="4"/><circle cx="-2" cy="1420" r="4"/><path stroke="#fff" d="M69 34L130 60M69 34L31 140M69 34L136 84M69 34L19 -18M69 34L-2 -20M2629 34L2558 -20M69 1474L19 1422M69 1474L-2 1420M2629 1474L2558 1420M130 60L178 6M130 60L136 84M130 60L168 141M178 6L241 72M178 6L136 84M178 6L223 -21M178 1446L223 1419M241 72L168 141M241 72L249 142M241 72L223 -21M241 1512L223 1419M370 26L474 17M370 26L379 91M370 26L368 -84M370 26L320 -35M370 26L346 -38M370 1466L368 1356M370 1466L320 1405M370 1466L346 1402M474 17L492 17M474 17L379 91M474 17L459 -60M474 17L545 -29M474 1457L459 1380M474 1457L545 1411M492 17L459 -60M492 17L545 -29M492 1457L459 1380M492 1457L545 1411M638 29L697 69M638 29L621 105M638 29L545 -29M638 29L610 -18M638 29L714 -25M638 1469L545 1411M638 1469L610 1422M638 1469L714 1415M697 69L621 105M697 69L707 125M697 69L729 128M797 26L812 70M797 26L843 125M797 26L714 -25M797 26L760 -1M797 26L837 -67M797 1466L714 1415M797 1466L760 1439M797 1466L837 1373M812 70L729 128M812 70L843 125M812 70L900 98M812 70L760 -1M812 1510L760 1439M920 58L982 2M920 58L843 125M920 58L900 98M920 58L974 145M920 58L950 -42M920 1498L950 1398M982 2L950 -42M982 2L1020 -62M982 1442L950 1398M982 1442L1020 1378M1118 14L1149 51M1118 14L1096 96M1118 14L1133 -95M1118 14L1066 -61M1118 14L1170 -15M1118 1454L1133 1345M1118 1454L1066 1379M1118 1454L1170 1425M1149 51L1230 3M1149 51L1096 96M1149 51L1193 95M1149 51L1170 -15M1149 1491L1170 1425M1230 3L1288 16M1230 3L1193 95M1230 3L1170 -15M1230 3L1241 -2M1230 1443L1170 1425M1230 1443L1241 1438M1288 16L1241 -2M1288 16L1350 -31M1288 1456L1241 1438M1288 1456L1350 1409M1406 29L1466 105M1406 29L1350 -31M1406 29L1447 -63M1406 1469L1350 1409M1406 1469L1447 1377M1506 54L1592 9M1506 54L1436 128M1506 54L1466 105M1506 54L1588 99M1592 9L1613 1M1592 9L1588 99M1592 9L1528 -56M1592 9L1667 -25M1592 1449L1528 1384M1592 1449L1667 1415M1613 1L1588 99M1613 1L1528 -56M1613 1L1667 -25M1613 1L1690 -6M1613 1441L1528 1384M1613 1441L1667 1415M1613 1441L1690 1434M1724 3L1796 39M1724 3L1671 -99M1724 3L1667 -25M1724 3L1690 -6M1724 3L1805 -34M1724 1443L1671 1341M1724 1443L1667 1415M1724 1443L1690 1434M1724 1443L1805 1406M1796 39L1815 143M1796 39L1880 102M1796 39L1805 -34M1796 39L1892 -31M1796 1479L1805 1406M1796 1479L1892 1409M1909 25L1990 71M1909 25L1880 102M1909 25L1892 -31M1909 25L1921 -16M1909 1465L1892 1409M1909 1465L1921 1424M1990 71L2020 42M1990 71L1984 131M1990 71L2075 148M1990 71L2092 84M2020 42L1984 131M2020 42L2092 84M2020 42L2027 -49M2020 42L2087 -17M2020 1482L2027 1391M2020 1482L2087 1423M2150 41L2162 14M2150 41L2092 84M2150 41L2087 -17M2150 41L2195 -19M2150 1481L2087 1423M2150 1481L2195 1421M2162 14L2092 84M2162 14L2087 -17M2162 14L2195 -19M2162 1454L2087 1423M2162 1454L2195 1421M2308 52L2347 61M2308 52L2259 137M2308 52L2392 98M2347 61L2454 36M2347 61L2259 137M2347 61L2392 98M2347 61L2427 111M2454 36L2521 39M2454 36L2392 98M2454 36L2427 111M2454 36L2451 -1M2454 1476L2451 1439M2521 39L2579 -18M2521 39L2451 -1M2521 39L2558 -20M-39 39L19 -18M-39 1479L19 1422M2521 1479L2579 1422M2521 1479L2451 1439M2521 1479L2558 1420M31 140L-33 141M31 140L22 205M31 140L85 233M2591 140L2527 141M136 84L168 141M168 141L249 142M168 141L197 180M249 142L197 180M249 142L269 228M379 91L476 145M476 145L554 132M476 145L392 230M476 145L479 184M554 132L621 105M554 132L479 184M554 132L555 225M621 105L707 125M621 105L684 170M707 125L729 128M707 125L684 170M707 125L733 207M729 128L684 170M729 128L733 207M843 125L900 98M843 125L839 180M900 98L974 145M900 98L839 180M974 145L959 190M974 145L1028 207M1096 96L1193 95M1096 96L1142 189M1193 95L1250 159M1250 159L1286 152M1250 159L1219 193M1250 159L1343 194M1250 159L1232 263M1286 152L1219 193M1286 152L1343 194M1286 152L1232 263M1436 128L1466 105M1436 128L1423 172M1466 105L1423 172M1588 99L1662 129M1588 99L1622 212M1662 129L1733 148M1662 129L1622 212M1733 148L1815 143M1733 148L1753 234M1815 143L1880 102M1815 143L1824 233M1815 143L1880 187M1880 102L1880 187M1984 131L2075 148M1984 131L1941 189M1984 131L2037 200M2075 148L2092 84M2075 148L2037 200M2075 148L2136 216M2239 159L2259 137M2239 159L2210 164M2239 159L2309 170M2239 159L2154 247M2259 137L2210 164M2259 137L2309 170M2392 98L2427 111M2427 111L2527 141M2427 111L2451 -1M2427 1551L2451 1439M2527 141L2582 205M2527 141L2459 218M2527 141L2486 233M-33 141L22 205M22 205L85 233M22 205L-74 233M22 205L31 260M2582 205L2486 233M85 233L31 260M85 233L104 271M85 233L169 283M197 180L269 228M197 180L246 251M269 228L246 251M269 228L325 241M269 228L275 333M392 230L479 184M392 230L325 241M392 230L397 352M479 184L555 225M555 225L631 235M555 225L526 276M555 225L622 251M631 235L684 170M631 235L622 251M631 235L658 270M684 170L733 207M733 207L658 270M733 207L796 272M839 180L796 272M839 180L839 268M959 190L1028 207M959 190L948 247M959 190L965 291M1028 207L1096 223M1028 207L948 247M1028 207L965 291M1096 223L1142 189M1096 223L1110 275M1096 223L1140 255M1142 189L1219 193M1142 189L1110 275M1142 189L1140 255M1219 193L1140 255M1219 193L1232 263M1343 194L1423 172M1343 194L1360 314M1343 194L1378 301M1423 172L1486 219M1423 172L1481 255M1486 219L1566 221M1486 219L1481 255M1566 221L1622 212M1566 221L1481 255M1566 221L1583 268M1566 221L1641 245M1622 212L1583 268M1622 212L1641 245M1753 234L1824 233M1753 234L1738 307M1824 233L1880 187M1824 233L1826 317M1824 233L1806 322M1880 187L1941 189M1941 189L2037 200M1941 189L2011 262M2037 200L2011 262M2136 216L2210 164M2136 216L2154 247M2136 216L2165 297M2210 164L2309 170M2210 164L2154 247M2309 170L2350 219M2350 219L2312 296M2350 219L2374 267M2459 218L2486 233M2459 218L2429 271M2459 218L2485 292M2486 233L2429 271M2486 233L2485 292M31 260L104 271M31 260L12 358M31 260L101 339M104 271L169 283M104 271L101 339M104 271L171 342M169 283L246 251M169 283L101 339M169 283L171 342M246 251L325 241M246 251L275 333M325 241L275 333M478 311L526 276M478 311L397 352M478 311L460 321M478 311L544 323M526 276L460 321M526 276L544 323M526 276L581 351M622 251L658 270M658 270L729 339M796 272L839 268M796 272L729 339M796 272L854 352M839 268L948 247M839 268L854 352M839 268L931 320M948 247L965 291M948 247L931 320M965 291L931 320M965 291L1031 386M1110 275L1140 255M1140 255L1232 263M1232 263L1223 342M1360 314L1378 301M1360 314L1288 356M1360 314L1379 337M1360 314L1325 419M1378 301L1288 356M1378 301L1379 337M1481 255L1532 327M1583 268L1641 245M1583 268L1532 327M1583 268L1621 367M1641 245L1738 307M1738 307L1826 317M1738 307L1707 394M1738 307L1806 322M1826 317L1895 313M1826 317L1806 322M1826 317L1915 336M1895 313L1962 275M1895 313L1806 322M1895 313L1915 336M1962 275L2011 262M1962 275L1915 336M1962 275L2000 354M1962 275L2002 350M2011 262L2000 354M2011 262L2002 350M2154 247L2165 297M2154 247L2148 361M2165 297L2148 361M2165 297L2232 357M2312 296L2374 267M2312 296L2232 357M2312 296L2393 321M2312 296L2409 346M2374 267L2429 271M2374 267L2393 321M2374 267L2409 346M2429 271L2485 292M2429 271L2393 321M2485 292L2409 346M12 358L101 339M12 358L-32 384M12 358L45 473M12 358L-44 401M2572 358L2528 384M2572 358L2516 401M101 339L171 342M171 342L275 333M171 342L233 412M275 333L233 412M397 352L460 321M397 352L368 431M397 352L454 415M460 321L544 323M460 321L454 415M544 323L581 351M544 323L564 405M581 351L662 390M581 351L542 453M581 351L564 405M662 390L729 339M662 390L693 404M662 390L761 412M662 390L693 487M729 339L693 404M729 339L761 412M854 352L931 320M854 352L836 402M854 352L907 405M931 320L907 405M1031 386L1068 389M1031 386L968 410M1031 386L1092 405M1031 386L1055 480M1068 389L1173 382M1068 389L968 410M1068 389L1092 405M1068 389L1055 480M1173 382L1223 342M1173 382L1092 405M1173 382L1187 468M1173 382L1223 464M1223 342L1288 356M1288 356L1379 337M1288 356L1325 419M1379 337L1325 419M1493 395L1532 327M1493 395L1437 474M1493 395L1465 450M1493 395L1582 414M1532 327L1621 367M1532 327L1582 414M1621 367L1707 394M1621 367L1582 414M1621 367L1666 450M1707 394L1666 450M1707 394L1722 421M1707 394L1768 453M1915 336L2000 354M1915 336L2002 350M2000 354L2002 350M2000 354L2001 452M2002 350L2001 452M2148 361L2232 357M2148 361L2133 466M2232 357L2275 399M2275 399L2203 454M2275 399L2296 431M2393 321L2409 346M2393 321L2365 401M2409 346L2365 401M2528 384L2516 401M45 473L115 458M45 473L46 509M115 458L46 509M115 458L132 551M115 458L172 542M233 412L289 464M289 464L368 431M289 464L302 515M289 464L389 489M368 431L454 415M368 431L302 515M368 431L389 489M454 415L542 453M454 415L389 489M542 453L564 405M542 453L527 497M542 453L593 501M564 405L527 497M564 405L593 501M693 404L761 412M693 404L693 487M761 412L836 402M761 412L800 506M836 402L907 405M907 405L968 410M907 405L921 509M968 410L992 501M1092 405L1055 480M1092 405L1130 502M1187 468L1223 464M1187 468L1130 502M1187 468L1256 487M1187 468L1176 572M1223 464L1256 487M1325 419L1256 487M1325 419L1333 518M1437 474L1465 450M1437 474L1424 514M1437 474L1459 534M1465 450L1424 514M1465 450L1459 534M1582 414L1666 450M1582 414L1557 517M1666 450L1722 421M1666 450L1646 544M1722 421L1768 453M1722 421L1743 505M1768 453L1862 474M1768 453L1743 505M1768 453L1830 540M1862 474L1941 469M1862 474L1830 540M1862 474L1860 513M1941 469L2001 452M1941 469L1860 513M1941 469L1994 536M1941 469L2014 499M2001 452L1994 536M2001 452L2014 499M2133 466L2203 454M2133 466L2095 539M2133 466L2191 484M2203 454L2296 431M2203 454L2191 484M2203 454L2269 525M2296 431L2365 401M2365 401L2428 460M2365 401L2362 499M2428 460L2516 401M2428 460L2362 499M2428 460L2459 507M46 509L132 551M46 509L-34 550M46 509L-9 587M2606 509L2526 550M2606 509L2551 587M132 551L172 542M132 551L120 591M172 542L120 591M172 542L222 596M302 515L389 489M302 515L304 638M389 489L432 528M432 528L527 497M432 528L455 618M432 528L511 577M527 497L593 501M527 497L511 577M593 501L693 487M593 501L640 610M693 487L788 544M693 487L676 581M788 544L800 506M788 544L756 577M788 544L845 590M800 506L756 577M800 506L845 590M921 509L992 501M921 509L899 585M921 509L996 575M992 501L1055 480M992 501L996 575M1055 480L1130 502M1130 502L1061 588M1130 502L1176 572M1256 487L1333 518M1256 487L1176 572M1333 518L1424 514M1333 518L1274 611M1333 518L1326 579M1424 514L1459 534M1424 514L1420 610M1459 534L1420 610M1557 517L1646 544M1646 544L1743 505M1646 544L1629 588M1646 544L1687 622M1743 505L1830 540M1743 505L1860 513M1830 540L1860 513M1830 540L1908 571M1860 513L1908 571M1994 536L2014 499M1994 536L1908 571M1994 536L1949 602M2014 499L2095 539M2014 499L2076 574M2095 539L2076 574M2095 539L2085 636M2095 539L2095 646M2191 484L2269 525M2191 484L2206 601M2269 525L2316 577M2269 525L2354 583M2362 499L2459 507M2362 499L2316 577M2362 499L2354 583M2459 507L2526 550M2459 507L2472 584M2526 550L2582 623M2526 550L2472 584M2526 550L2551 587M-34 550L22 623M22 623L120 591M22 623L-9 587M22 623L76 680M22 623L-60 650M2582 623L2551 587M2582 623L2500 650M120 591L222 596M120 591L175 657M222 596L304 638M222 596L175 657M222 596L251 642M304 638L356 637M304 638L251 642M304 638L369 681M356 637L455 618M356 637L251 642M356 637L369 681M356 637L401 718M455 618L511 577M455 618L369 681M455 618L526 665M511 577L526 665M640 610L676 581M640 610L605 700M640 610L685 682M640 610L735 687M676 581L756 577M676 581L685 682M756 577L845 590M756 577L800 670M845 590L899 585M845 590L800 670M899 585L996 575M899 585L922 688M996 575L1061 588M996 575L1039 662M1061 588L1176 572M1061 588L1039 662M1061 588L1082 652M1176 572L1151 658M1274 611L1326 579M1274 611L1255 665M1274 611L1332 673M1326 579L1420 610M1326 579L1332 673M1420 610L1473 638M1420 610L1471 695M1473 638L1573 632M1473 638L1471 695M1473 638L1560 668M1473 638L1472 721M1573 632L1629 588M1573 632L1560 668M1573 632L1608 684M1629 588L1687 622M1687 622L1774 616M1687 622L1608 684M1687 622L1711 696M1774 616L1711 696M1774 616L1823 698M1774 616L1843 648M1908 571L1949 602M1908 571L1977 641M1949 602L1977 641M2076 574L2085 636M2076 574L2095 646M2085 636L2021 672M2085 636L2095 646M2085 636L2181 659M2206 601L2316 577M2206 601L2181 659M2316 577L2354 583M2354 583L2353 707M2472 584L2551 587M2472 584L2458 641M2472 584L2500 650M2551 587L2500 650M76 680L115 712M115 712L175 657M115 712L70 781M115 712L143 747M115 712L169 722M175 657L251 642M175 657L169 722M251 642L169 722M369 681L401 718M401 718L446 763M401 718L447 800M526 665L605 700M605 700L685 682M605 700L608 733M605 700L643 787M685 682L735 687M685 682L608 733M735 687L800 670M735 687L768 783M735 687L828 731M800 670L828 731M922 688L914 741M1039 662L1082 652M1082 652L1151 658M1082 652L1115 750M1151 658L1255 665M1151 658L1115 750M1151 658L1250 728M1255 665L1332 673M1255 665L1250 728M1255 665L1335 723M1332 673L1368 719M1332 673L1335 723M1368 719L1335 723M1368 719L1387 742M1368 719L1472 721M1471 695L1560 668M1471 695L1387 742M1471 695L1472 721M1560 668L1608 684M1560 668L1588 762M1608 684L1588 762M1608 684L1661 738M1711 696L1823 698M1711 696L1661 738M1711 696L1685 793M1823 698L1843 648M1823 698L1832 731M1823 698L1872 761M1843 648L1832 731M1977 641L2021 672M1977 641L1962 739M1977 641L2012 752M2021 672L2095 646M2021 672L1962 739M2021 672L2012 752M2095 646L2181 659M2306 707L2353 707M2306 707L2219 752M2306 707L2257 764M2306 707L2331 771M2306 707L2259 800M2353 707L2331 771M2353 707L2442 758M2458 641L2500 650M2458 641L2442 758M2458 641L2482 749M2500 650L2482 749M70 781L143 747M70 781L2 802M70 781L44 887M143 747L169 722M143 747L145 850M143 747L183 803M169 722L183 803M261 791L325 793M261 791L183 803M261 791L308 814M325 793L308 814M325 793L374 820M325 793L365 884M446 763L533 788M446 763L374 820M446 763L447 800M446 763L522 832M533 788L608 733M533 788L447 800M533 788L522 832M533 788L607 828M608 733L643 787M643 787L607 828M643 787L671 842M768 783L828 731M768 783L671 842M768 783L784 839M768 783L845 819M828 731L914 741M828 731L845 819M1018 800L992 873M1018 800L1097 830M1018 800L947 883M1018 800L1057 894M1115 750L1188 770M1115 750L1097 830M1115 750L1143 834M1188 770L1250 728M1188 770L1143 834M1188 770L1280 838M1250 728L1335 723M1250 728L1280 838M1335 723L1387 742M1387 742L1472 721M1588 762L1661 738M1588 762L1685 793M1588 762L1565 855M1661 738L1685 793M1661 738L1696 835M1685 793L1652 862M1685 793L1696 835M1832 731L1872 761M1832 731L1848 821M1872 761L1962 739M1872 761L1810 879M1872 761L1848 821M1962 739L2012 752M2012 752L2124 780M2012 752L2031 829M2124 780L2219 752M2124 780L2031 829M2124 780L2151 839M2219 752L2257 764M2219 752L2221 809M2219 752L2259 800M2257 764L2331 771M2257 764L2221 809M2257 764L2259 800M2331 771L2259 800M2331 771L2353 864M2442 758L2482 749M2442 758L2471 849M2482 749L2562 802M2482 749L2471 849M-78 749L2 802M2 802L-89 849M2 802L-34 880M2 802L44 887M2562 802L2471 849M2562 802L2526 880M145 850L183 803M145 850L44 887M145 850L93 891M145 850L162 911M183 803L162 911M308 814L374 820M308 814L297 924M308 814L365 884M374 820L447 800M374 820L365 884M447 800L522 832M522 832L607 828M522 832L556 906M607 828L671 842M671 842L723 917M784 839L845 819M784 839L815 909M845 819L893 850M845 819L815 909M893 850L992 873M893 850L815 909M893 850L947 883M992 873L947 883M992 873L1028 911M992 873L1057 894M1097 830L1143 834M1097 830L1057 894M1097 830L1160 897M1143 834L1160 897M1277 879L1280 838M1277 879L1362 869M1277 879L1210 946M1277 879L1338 934M1277 879L1226 968M1280 838L1362 869M1280 838L1338 934M1362 869L1338 934M1362 869L1398 888M1484 872L1565 855M1484 872L1398 888M1484 872L1517 951M1484 872L1548 905M1484 872L1455 967M1565 855L1652 862M1565 855L1517 951M1565 855L1548 905M1652 862L1696 835M1652 862L1612 947M1652 862L1706 942M1696 835L1810 879M1810 879L1848 821M1810 879L1824 937M1810 879L1888 932M1972 864L2031 829M1972 864L1888 932M1972 864L1962 942M1972 864L2001 923M1972 864L2002 962M2031 829L2001 923M2151 839L2221 809M2151 839L2125 933M2151 839L2212 902M2221 809L2259 800M2221 809L2212 902M2353 864L2312 934M2353 864L2329 890M2471 849L2526 880M2471 849L2456 947M2526 880L2604 887M2526 880L2456 947M2526 880L2499 955M-34 880L44 887M44 887L93 891M93 891L162 911M297 924L365 884M297 924L278 997M297 924L327 997M297 924L256 1040M365 884L460 927M460 927L451 1003M460 927L506 961M556 906L578 959M556 906L506 961M556 906L624 978M578 959L641 941M578 959L506 961M578 959L624 978M578 959L690 965M641 941L723 917M641 941L624 978M641 941L690 965M641 941L725 990M723 917L815 909M723 917L690 965M723 917L725 990M815 909L864 970M947 883L1028 911M947 883L936 968M1028 911L1057 894M1028 911L936 968M1028 911L992 996M1057 894L1160 897M1160 897L1210 946M1160 897L1226 968M1210 946L1179 1016M1210 946L1226 968M1338 934L1398 888M1338 934L1328 999M1398 888L1455 967M1517 951L1548 905M1517 951L1455 967M1517 951L1538 987M1548 905L1612 947M1548 905L1538 987M1612 947L1706 942M1612 947L1538 987M1612 947L1629 1004M1706 942L1629 1004M1706 942L1729 1030M1706 942L1709 1042M1824 937L1888 932M1824 937L1815 1026M1824 937L1850 1030M1888 932L1962 942M1962 942L2001 923M1962 942L1977 1019M1962 942L2002 962M2001 923L1977 1019M2001 923L2002 962M2125 933L2212 902M2125 933L2002 962M2125 933L2118 1019M2212 902L2312 934M2212 902L2239 994M2312 934L2329 890M2312 934L2239 994M2312 934L2240 1020M2456 947L2499 955M2456 947L2457 983M2456 947L2481 1009M2499 955L2586 996M2499 955L2457 983M2499 955L2481 1009M-61 955L26 996M26 996L111 1033M111 1033L197 1032M111 1033L52 1115M111 1033L130 1046M111 1033L91 1124M197 1032L278 997M197 1032L130 1046M197 1032L231 1067M197 1032L256 1040M278 997L327 997M278 997L231 1067M278 997L256 1040M327 997L256 1040M327 997L392 1076M451 1003L506 961M451 1003L392 1076M451 1003L451 1056M624 978L690 965M624 978L725 990M690 965L725 990M725 990L724 1096M864 970L936 968M864 970L901 1041M936 968L992 996M936 968L901 1041M992 996L1106 1013M1106 1013L1179 1016M1106 1013L1126 1086M1179 1016L1226 968M1179 1016L1126 1086M1179 1016L1217 1115M1226 968L1328 999M1328 999L1378 1039M1328 999L1285 1078M1378 1039L1455 967M1378 1039L1285 1078M1378 1039L1373 1116M1455 967L1538 987M1538 987L1629 1004M1629 1004L1598 1102M1629 1004L1709 1042M1729 1030L1815 1026M1729 1030L1709 1042M1729 1030L1808 1081M1815 1026L1850 1030M1815 1026L1808 1081M1850 1030L1808 1081M1850 1030L1914 1086M1977 1019L2002 962M1977 1019L1914 1086M1977 1019L1921 1109M2118 1019L2239 994M2118 1019L2153 1083M2118 1019L2075 1123M2239 994L2240 1020M2239 994L2302 1072M2240 1020L2302 1072M2383 1025L2457 983M2383 1025L2390 1066M2383 1025L2448 1078M2457 983L2481 1009M2481 1009L2448 1078M52 1115L130 1046M52 1115L39 1124M52 1115L91 1124M52 1115L-32 1165M2612 1115L2528 1165M130 1046L231 1067M130 1046L91 1124M231 1067L256 1040M231 1067L233 1174M392 1076L451 1056M392 1076L361 1179M451 1056L498 1160M558 1090L597 1076M558 1090L644 1083M558 1090L498 1160M558 1090L611 1142M597 1076L644 1083M597 1076L611 1142M597 1076L668 1131M644 1083L724 1096M644 1083L611 1142M644 1083L668 1131M724 1096L668 1131M724 1096L764 1131M724 1096L824 1157M878 1115L901 1041M878 1115L981 1101M878 1115L764 1131M878 1115L824 1157M878 1115L959 1123M901 1041L981 1101M901 1041L959 1123M981 1101L1060 1116M981 1101L959 1123M981 1101L1032 1147M1060 1116L1126 1086M1060 1116L959 1123M1060 1116L1032 1147M1060 1116L1092 1189M1126 1086L1217 1115M1126 1086L1151 1167M1217 1115L1285 1078M1217 1115L1151 1167M1217 1115L1271 1143M1285 1078L1373 1116M1285 1078L1271 1143M1373 1116L1429 1191M1373 1116L1377 1204M1494 1118L1598 1102M1494 1118L1455 1198M1494 1118L1543 1124M1598 1102L1634 1120M1598 1102L1543 1124M1598 1102L1642 1196M1634 1120L1543 1124M1634 1120L1642 1196M1634 1120L1625 1229M1634 1120L1696 1208M1709 1042L1759 1121M1808 1081L1759 1121M1808 1081L1814 1135M1914 1086L1921 1109M1914 1086L1924 1128M1921 1109L1814 1135M1921 1109L1864 1176M1921 1109L1924 1128M2054 1115L2075 1123M2054 1115L2147 1138M2054 1115L2016 1209M2153 1083L2234 1114M2153 1083L2075 1123M2153 1083L2147 1138M2234 1114L2302 1072M2234 1114L2147 1138M2234 1114L2239 1167M2234 1114L2299 1150M2302 1072L2390 1066M2302 1072L2299 1150M2390 1066L2448 1078M2448 1078L2492 1119M2448 1078L2425 1172M2492 1119L2425 1172M2492 1119L2528 1165M39 1124L91 1124M39 1124L-32 1165M2599 1124L2528 1165M233 1174L302 1184M233 1174L203 1210M233 1174L252 1266M302 1184L361 1179M302 1184L203 1210M302 1184L252 1266M361 1179L402 1192M361 1179L392 1219M361 1179L414 1241M402 1192L498 1160M402 1192L392 1219M402 1192L414 1241M402 1192L485 1240M498 1160L485 1240M611 1142L668 1131M611 1142L659 1234M668 1131L764 1131M764 1131L824 1157M764 1131L794 1208M824 1157L794 1208M959 1123L1032 1147M1032 1147L1092 1189M1032 1147L1016 1238M1092 1189L1151 1167M1092 1189L1085 1235M1092 1189L1166 1212M1151 1167L1166 1212M1271 1143L1336 1192M1271 1143L1251 1209M1336 1192L1429 1191M1336 1192L1251 1209M1336 1192L1295 1242M1336 1192L1377 1204M1429 1191L1455 1198M1429 1191L1377 1204M1429 1191L1470 1259M1455 1198L1377 1204M1455 1198L1470 1259M1455 1198L1549 1250M1642 1196L1549 1250M1642 1196L1625 1229M1642 1196L1696 1208M1759 1121L1814 1135M1759 1121L1696 1208M1759 1121L1775 1211M1814 1135L1864 1176M1814 1135L1775 1211M1864 1176L1924 1128M1864 1176L1860 1274M2075 1123L2147 1138M2075 1123L2016 1209M2147 1138L2239 1167M2239 1167L2299 1150M2239 1167L2238 1204M2239 1167L2263 1218M2299 1150L2341 1184M2299 1150L2263 1218M2341 1184L2425 1172M2341 1184L2333 1244M2341 1184L2442 1216M2425 1172L2442 1216M2425 1172L2511 1210M2528 1165L2442 1216M2528 1165L2511 1210M19 1269L83 1273M19 1269L-49 1210M19 1269L56 1302M19 1269L-98 1284M19 1269L-5 1356M2579 1269L2511 1210M2579 1269L2462 1284M2579 1269L2555 1356M83 1273L56 1302M83 1273L136 1310M83 1273L201 1301M83 1273L87 1367M203 1210L252 1266M203 1210L201 1301M252 1266L201 1301M252 1266L267 1317M392 1219L414 1241M392 1219L462 1286M414 1241L485 1240M414 1241L462 1286M485 1240L462 1286M485 1240L504 1288M587 1269L659 1234M587 1269L504 1288M587 1269L607 1301M587 1269L646 1332M659 1234L607 1301M659 1234L646 1332M794 1208L877 1270M877 1270L946 1255M877 1270L857 1305M877 1270L882 1354M946 1255L1016 1238M946 1255L857 1305M1016 1238L1085 1235M1016 1238L1022 1299M1016 1238L1055 1294M1085 1235L1166 1212M1085 1235L1022 1299M1085 1235L1055 1294M1166 1212L1251 1209M1166 1212L1254 1292M1251 1209L1295 1242M1251 1209L1254 1292M1295 1242L1377 1204M1295 1242L1254 1292M1295 1242L1312 1300M1470 1259L1549 1250M1470 1259L1421 1303M1470 1259L1443 1341M1549 1250L1625 1229M1549 1250L1543 1310M1625 1229L1696 1208M1625 1229L1671 1341M1696 1208L1775 1211M1775 1211L1860 1274M1775 1211L1796 1305M1860 1274L1796 1305M1860 1274L1856 1292M1996 1250L2016 1209M1996 1250L2109 1278M1996 1250L1986 1331M1996 1250L2064 1319M2016 1209L2109 1278M2109 1278L2064 1319M2109 1278L2106 1304M2109 1278L2219 1280M2238 1204L2263 1218M2238 1204L2219 1280M2263 1218L2333 1244M2263 1218L2219 1280M2333 1244L2287 1320M2333 1244L2369 1336M2442 1216L2511 1210M2442 1216L2462 1284M2511 1210L2462 1284M56 1302L136 1310M56 1302L-5 1356M56 1302L87 1367M2616 1302L2555 1356M136 1310L201 1301M136 1310L87 1367M201 1301L267 1317M267 1317L368 1356M267 1317L223 1419M267 1317L320 1405M368 1356L320 1405M368 1356L346 1402M368 1356L459 1380M462 1286L504 1288M462 1286L459 1380M504 1288L607 1301M607 1301L646 1332M646 1332L610 1422M646 1332L714 1415M774 1347L857 1305M774 1347L882 1354M774 1347L714 1415M774 1347L760 1439M774 1347L837 1373M857 1305L882 1354M857 1305L837 1373M882 1354L837 1373M882 1354L950 1398M1022 1299L1055 1294M1022 1299L1020 1378M1022 1299L1066 1379M1055 1294L1133 1345M1055 1294L1066 1379M1133 1345L1254 1292M1133 1345L1066 1379M1133 1345L1170 1425M1254 1292L1312 1300M1312 1300L1421 1303M1421 1303L1443 1341M1421 1303L1421 1372M1421 1303L1447 1377M1443 1341L1421 1372M1443 1341L1447 1377M1443 1341L1528 1384M1543 1310L1528 1384M1671 1341L1755 1339M1671 1341L1667 1415M1671 1341L1690 1434M1755 1339L1796 1305M1755 1339L1856 1292M1755 1339L1805 1406M1796 1305L1856 1292M1796 1305L1805 1406M1856 1292L1892 1409M1986 1331L2064 1319M1986 1331L1921 1424M1986 1331L2027 1391M2064 1319L2106 1304M2064 1319L2027 1391M2219 1280L2287 1320M2219 1280L2259 1377M2287 1320L2369 1336M2287 1320L2259 1377M2287 1320L2375 1389M2369 1336L2462 1284M2369 1336L2259 1377M2369 1336L2375 1389M2555 1356L2579 1422M2555 1356L2647 1367M2555 1356L2558 1420M-5 1356L19 1422M-5 1356L87 1367M19 1422L87 1367M19 1422L-2 1420M2579 1422L2558 1420M223 1419L320 1405M320 1405L346 1402M459 1380L545 1411M545 1411L610 1422M714 1415L760 1439M760 1439L837 1373M950 1398L1020 1378M1020 1378L1066 1379M1170 1425L1241 1438M1241 1438L1350 1409M1350 1409L1421 1372M1421 1372L1447 1377M1447 1377L1528 1384M1667 1415L1690 1434M1805 1406L1892 1409M1892 1409L1921 1424M1921 1424L2027 1391M2027 1391L2087 1423M2087 1423L2195 1421M2195 1421L2259 1377M2259 1377L2375 1389M2375 1389L2451 1439M2451 1439L2558 1420"/></svg>