<svg xmlns="http://www.w3.org/2000/svg" width="2560" height="1440" fill="#fff"><circle cx="53" cy="46" r="5"/><circle cx="119" cy="12" r="4"/><circle cx="216" cy="69" r="5"/><circle cx="274" cy="63" r="5"/><circle cx="367" cy="13" r="4"/><circle cx="474" cy="23" r="5"/><circle cx="491" cy="13" r="5"/><circle cx="585" cy="35" r="5"/><circle cx="701" cy="3" r="5"/><circle cx="701" cy="1443" r="5"/><circle cx="777" cy="2" r="5"/><circle cx="777" cy="1442" r="5"/><circle cx="867" cy="4" r="6"/><circle cx="867" cy="1444" r="6"/><circle cx="914" cy="10" r="6"/><circle cx="1023" cy="23" r="5"/><circle cx="1068" cy="29" r="4"/><circle cx="1196" cy="38" r="5"/><circle cx="1224" cy="74" r="6"/><circle cx="1300" cy="25" r="5"/><circle cx="1362" cy="17" r="6"/><circle cx="1457" cy="54" r="6"/><circle cx="1523" cy="65" r="6"/><circle cx="1607" cy="61" r="4"/><circle cx="1721" cy="77" r="6"/><circle cx="1812" cy="62" r="5"/><circle cx="1876" cy="2" r="5"/><circle cx="1876" cy="1442" r="5"/><circle cx="1976" cy="32" r="6"/><circle cx="2080" cy="40" r="5"/><circle cx="2146" cy="46" r="5"/><circle cx="2173" cy="18" r="5"/><circle cx="2252" cy="27" r="5"/><circle cx="2365" cy="37" r="6"/><circle cx="2453" cy="60" r="4"/><circle cx="2552" cy="38" r="5"/><circle cx="32" cy="144" r="5"/><circle cx="105" cy="155" r="4"/><circle cx="210" cy="81" r="5"/><circle cx="303" cy="82" r="6"/><circle cx="377" cy="139" r="6"/><circle cx="433" cy="143" r="4"/><circle cx="500" cy="138" r="6"/><circle cx="640" cy="93" r="6"/><circle cx="693" cy="159" r="5"/><circle cx="743" cy="117" r="4"/><circle cx="852" cy="107" r="6"/><circle cx="927" cy="140" r="6"/><circle cx="1018" cy="110" r="4"/><circle cx="1063" cy="145" r="5"/><circle cx="1188" cy="120" r="5"/><circle cx="1254" cy="121" r="6"/><circle cx="1328" cy="87" r="6"/><circle cx="1367" cy="110" r="6"/><circle cx="1464" cy="121" r="6"/><circle cx="1575" cy="111" r="6"/><circle cx="1651" cy="105" r="6"/><circle cx="1748" cy="88" r="5"/><circle cx="1794" cy="158" r="5"/><circle cx="1878" cy="97" r="6"/><circle cx="1933" cy="143" r="4"/><circle cx="2026" cy="124" r="5"/><circle cx="2148" cy="123" r="5"/><circle cx="2163" cy="115" r="5"/><circle cx="2279" cy="140" r="5"/><circle cx="2325" cy="144" r="6"/><circle cx="2470" cy="141" r="4"/><circle cx="2506" cy="155" r="5"/><circle cx="0" cy="200" r="5"/><circle cx="2560" cy="200" r="5"/><circle cx="138" cy="168" r="5"/><circle cx="179" cy="212" r="5"/><circle cx="242" cy="215" r="6"/><circle cx="349" cy="174" r="5"/><circle cx="443" cy="202" r="5"/><circle cx="534" cy="225" r="5"/><circle cx="626" cy="165" r="5"/><circle cx="654" cy="234" r="4"/><circle cx="729" cy="201" r="5"/><circle cx="852" cy="203" r="5"/><circle cx="896" cy="196" r="5"/><circle cx="1005" cy="164" r="4"/><circle cx="1067" cy="220" r="5"/><circle cx="1188" cy="221" r="4"/><circle cx="1204" cy="210" r="5"/><circle cx="1323" cy="203" r="6"/><circle cx="1364" cy="175" r="5"/><circle cx="1481" cy="203" r="6"/><circle cx="1587" cy="208" r="4"/><circle cx="1626" cy="201" r="5"/><circle cx="1683" cy="202" r="5"/><circle cx="1791" cy="175" r="6"/><circle cx="1857" cy="165" r="5"/><circle cx="1928" cy="199" r="5"/><circle cx="2038" cy="220" r="5"/><circle cx="2084" cy="217" r="5"/><circle cx="2208" cy="180" r="4"/><circle cx="2268" cy="214" r="5"/><circle cx="2351" cy="189" r="4"/><circle cx="2410" cy="238" r="5"/><circle cx="2518" cy="177" r="4"/><circle cx="31" cy="283" r="6"/><circle cx="89" cy="310" r="5"/><circle cx="188" cy="278" r="4"/><circle cx="284" cy="299" r="6"/><circle cx="336" cy="305" r="4"/><circle cx="418" cy="250" r="5"/><circle cx="501" cy="244" r="5"/><circle cx="595" cy="251" r="4"/><circle cx="652" cy="292" r="5"/><circle cx="759" cy="266" r="6"/><circle cx="843" cy="306" r="5"/><circle cx="929" cy="265" r="6"/><circle cx="1024" cy="241" r="6"/><circle cx="1097" cy="275" r="4"/><circle cx="1174" cy="266" r="5"/><circle cx="1254" cy="262" r="6"/><circle cx="1304" cy="252" r="6"/><circle cx="1365" cy="252" r="6"/><circle cx="1512" cy="264" r="5"/><circle cx="1571" cy="296" r="5"/><circle cx="1648" cy="288" r="4"/><circle cx="1739" cy="253" r="6"/><circle cx="1840" cy="318" r="6"/><circle cx="1842" cy="304" r="5"/><circle cx="1934" cy="320" r="4"/><circle cx="2013" cy="241" r="5"/><circle cx="2153" cy="303" r="5"/><circle cx="2204" cy="259" r="5"/><circle cx="2316" cy="286" r="6"/><circle cx="2343" cy="273" r="4"/><circle cx="2416" cy="243" r="5"/><circle cx="2510" cy="249" r="4"/><circle cx="34" cy="384" r="4"/><circle cx="125" cy="363" r="6"/><circle cx="166" cy="375" r="5"/><circle cx="257" cy="342" r="5"/><circle cx="326" cy="358" r="5"/><circle cx="445" cy="333" r="4"/><circle cx="554" cy="336" r="5"/><circle cx="621" cy="381" r="5"/><circle cx="715" cy="370" r="5"/><circle cx="728" cy="348" r="6"/><circle cx="828" cy="376" r="4"/><circle cx="934" cy="336" r="6"/><circle cx="1012" cy="390" r="5"/><circle cx="1065" cy="342" r="5"/><circle cx="1166" cy="383" r="4"/><circle cx="1216" cy="323" r="5"/><circle cx="1309" cy="326" r="5"/><circle cx="1406" cy="323" r="6"/><circle cx="1501" cy="351" r="6"/><circle cx="1580" cy="366" r="6"/><circle cx="1663" cy="323" r="5"/><circle cx="1687" cy="366" r="5"/><circle cx="1801" cy="338" r="5"/><circle cx="1901" cy="348" r="5"/><circle cx="1920" cy="352" r="5"/><circle cx="2016" cy="336" r="6"/><circle cx="2083" cy="400" r="5"/><circle cx="2193" cy="346" r="6"/><circle cx="2289" cy="395" r="5"/><circle cx="2339" cy="324" r="5"/><circle cx="2432" cy="389" r="6"/><circle cx="2492" cy="337" r="6"/><circle cx="62" cy="449" r="5"/><circle cx="156" cy="427" r="4"/><circle cx="230" cy="406" r="5"/><circle cx="277" cy="436" r="6"/><circle cx="382" cy="428" r="4"/><circle cx="406" cy="403" r="5"/><circle cx="495" cy="464" r="6"/><circle cx="617" cy="477" r="5"/><circle cx="685" cy="456" r="5"/><circle cx="766" cy="476" r="4"/><circle cx="827" cy="465" r="6"/><circle cx="890" cy="442" r="5"/><circle cx="1037" cy="453" r="4"/><circle cx="1041" cy="477" r="5"/><circle cx="1160" cy="422" r="5"/><circle cx="1208" cy="415" r="5"/><circle cx="1308" cy="468" r="5"/><circle cx="1371" cy="421" r="6"/><circle cx="1442" cy="440" r="5"/><circle cx="1550" cy="416" r="6"/><circle cx="1640" cy="419" r="4"/><circle cx="1746" cy="462" r="6"/><circle cx="1835" cy="414" r="6"/><circle cx="1891" cy="475" r="5"/><circle cx="1939" cy="409" r="6"/><circle cx="2039" cy="438" r="5"/><circle cx="2135" cy="460" r="5"/><circle cx="2172" cy="457" r="6"/><circle cx="2282" cy="459" r="5"/><circle cx="2343" cy="413" r="5"/><circle cx="2449" cy="412" r="6"/><circle cx="2523" cy="461" r="5"/><circle cx="31" cy="539" r="5"/><circle cx="106" cy="525" r="5"/><circle cx="223" cy="516" r="6"/><circle cx="311" cy="493" r="4"/><circle cx="380" cy="557" r="4"/><circle cx="417" cy="542" r="5"/><circle cx="532" cy="510" r="6"/><circle cx="610" cy="549" r="6"/><circle cx="710" cy="556" r="5"/><circle cx="730" cy="515" r="5"/><circle cx="825" cy="484" r="5"/><circle cx="954" cy="558" r="4"/><circle cx="965" cy="532" r="5"/><circle cx="1077" cy="545" r="5"/><circle cx="1136" cy="529" r="5"/><circle cx="1224" cy="496" r="6"/><circle cx="1327" cy="485" r="4"/><circle cx="1399" cy="504" r="5"/><circle cx="1444" cy="496" r="5"/><circle cx="1570" cy="496" r="6"/><circle cx="1625" cy="525" r="4"/><circle cx="1734" cy="552" r="4"/><circle cx="1799" cy="524" r="4"/><circle cx="1917" cy="487" r="4"/><circle cx="1941" cy="483" r="5"/><circle cx="2064" cy="500" r="6"/><circle cx="2137" cy="498" r="5"/><circle cx="2216" cy="492" r="4"/><circle cx="2320" cy="555" r="6"/><circle cx="2365" cy="554" r="5"/><circle cx="2453" cy="519" r="5"/><circle cx="2548" cy="493" r="5"/><circle cx="4" cy="591" r="6"/><circle cx="2564" cy="591" r="6"/><circle cx="137" cy="640" r="4"/><circle cx="187" cy="626" r="5"/><circle cx="289" cy="588" r="6"/><circle cx="394" cy="601" r="5"/><circle cx="427" cy="612" r="5"/><circle cx="494" cy="634" r="5"/><circle cx="630" cy="563" r="4"/><circle cx="715" cy="570" r="4"/><circle cx="727" cy="625" r="5"/><circle cx="843" cy="589" r="4"/><circle cx="890" cy="611" r="6"/><circle cx="995" cy="619" r="6"/><circle cx="1066" cy="638" r="5"/><circle cx="1199" cy="638" r="5"/><circle cx="1211" cy="632" r="4"/><circle cx="1331" cy="587" r="5"/><circle cx="1421" cy="635" r="4"/><circle cx="1490" cy="567" r="5"/><circle cx="1576" cy="635" r="5"/><circle cx="1631" cy="585" r="4"/><circle cx="1756" cy="565" r="6"/><circle cx="1761" cy="586" r="5"/><circle cx="1871" cy="618" r="5"/><circle cx="1954" cy="569" r="4"/><circle cx="2007" cy="565" r="4"/><circle cx="2121" cy="622" r="5"/><circle cx="2204" cy="627" r="6"/><circle cx="2241" cy="561" r="5"/><circle cx="2368" cy="608" r="5"/><circle cx="2471" cy="639" r="5"/><circle cx="2545" cy="588" r="6"/><circle cx="58" cy="694" r="4"/><circle cx="140" cy="718" r="5"/><circle cx="181" cy="714" r="5"/><circle cx="242" cy="692" r="5"/><circle cx="325" cy="642" r="5"/><circle cx="470" cy="712" r="5"/><circle cx="554" cy="719" r="5"/><circle cx="605" cy="700" r="5"/><circle cx="683" cy="646" r="5"/><circle cx="735" cy="694" r="4"/><circle cx="852" cy="641" r="4"/><circle cx="937" cy="714" r="6"/><circle cx="991" cy="680" r="5"/><circle cx="1090" cy="643" r="5"/><circle cx="1196" cy="703" r="5"/><circle cx="1228" cy="700" r="6"/><circle cx="1328" cy="717" r="6"/><circle cx="1413" cy="660" r="5"/><circle cx="1451" cy="695" r="6"/><circle cx="1578" cy="664" r="6"/><circle cx="1622" cy="642" r="4"/><circle cx="1701" cy="711" r="4"/><circle cx="1765" cy="684" r="5"/><circle cx="1892" cy="715" r="5"/><circle cx="1991" cy="679" r="4"/><circle cx="2037" cy="707" r="6"/><circle cx="2081" cy="710" r="4"/><circle cx="2226" cy="694" r="5"/><circle cx="2303" cy="688" r="5"/><circle cx="2368" cy="658" r="5"/><circle cx="2450" cy="712" r="4"/><circle cx="2497" cy="659" r="5"/><circle cx="29" cy="798" r="5"/><circle cx="123" cy="734" r="5"/><circle cx="210" cy="786" r="4"/><circle cx="277" cy="788" r="5"/><circle cx="331" cy="781" r="4"/><circle cx="439" cy="797" r="4"/><circle cx="491" cy="759" r="4"/><circle cx="608" cy="792" r="4"/><circle cx="687" cy="722" r="5"/><circle cx="766" cy="757" r="5"/><circle cx="828" cy="736" r="6"/><circle cx="950" cy="750" r="6"/><circle cx="986" cy="779" r="5"/><circle cx="1055" cy="780" r="4"/><circle cx="1185" cy="740" r="5"/><circle cx="1246" cy="765" r="4"/><circle cx="1357" cy="728" r="6"/><circle cx="1378" cy="727" r="4"/><circle cx="1508" cy="768" r="5"/><circle cx="1525" cy="798" r="4"/><circle cx="1657" cy="736" r="4"/><circle cx="1740" cy="782" r="5"/><circle cx="1817" cy="757" r="5"/><circle cx="1910" cy="781" r="4"/><circle cx="1971" cy="750" r="4"/><circle cx="2050" cy="734" r="4"/><circle cx="2139" cy="750" r="6"/><circle cx="2223" cy="798" r="5"/><circle cx="2246" cy="772" r="4"/><circle cx="2393" cy="753" r="6"/><circle cx="2438" cy="773" r="5"/><circle cx="2520" cy="799" r="5"/><circle cx="9" cy="876" r="5"/><circle cx="116" cy="839" r="4"/><circle cx="178" cy="856" r="5"/><circle cx="280" cy="875" r="5"/><circle cx="390" cy="862" r="6"/><circle cx="470" cy="840" r="5"/><circle cx="547" cy="825" r="5"/><circle cx="585" cy="863" r="6"/><circle cx="658" cy="804" r="5"/><circle cx="740" cy="874" r="5"/><circle cx="825" cy="838" r="5"/><circle cx="909" cy="812" r="6"/><circle cx="1016" cy="810" r="5"/><circle cx="1063" cy="836" r="4"/><circle cx="1153" cy="841" r="5"/><circle cx="1224" cy="871" r="6"/><circle cx="1287" cy="816" r="6"/><circle cx="1413" cy="818" r="5"/><circle cx="1499" cy="828" r="4"/><circle cx="1572" cy="853" r="5"/><circle cx="1671" cy="852" r="5"/><circle cx="1741" cy="836" r="5"/><circle cx="1800" cy="837" r="5"/><circle cx="1852" cy="854" r="5"/><circle cx="1971" cy="863" r="5"/><circle cx="2076" cy="839" r="5"/><circle cx="2139" cy="876" r="5"/><circle cx="2227" cy="829" r="5"/><circle cx="2241" cy="867" r="4"/><circle cx="2340" cy="843" r="5"/><circle cx="2437" cy="810" r="4"/><circle cx="2547" cy="835" r="4"/><circle cx="49" cy="919" r="5"/><circle cx="112" cy="940" r="6"/><circle cx="211" cy="929" r="4"/><circle cx="270" cy="929" r="4"/><circle cx="370" cy="928" r="5"/><circle cx="411" cy="899" r="4"/><circle cx="482" cy="937" r="5"/><circle cx="628" cy="920" r="6"/><circle cx="677" cy="926" r="6"/><circle cx="780" cy="957" r="4"/><circle cx="811" cy="903" r="5"/><circle cx="948" cy="885" r="4"/><circle cx="989" cy="885" r="4"/><circle cx="1074" cy="933" r="4"/><circle cx="1183" cy="936" r="5"/><circle cx="1212" cy="881" r="5"/><circle cx="1316" cy="938" r="4"/><circle cx="1382" cy="954" r="5"/><circle cx="1485" cy="947" r="6"/><circle cx="1597" cy="951" r="5"/><circle cx="1659" cy="920" r="4"/><circle cx="1689" cy="956" r="6"/><circle cx="1811" cy="955" r="6"/><circle cx="1846" cy="940" r="6"/><circle cx="1920" cy="906" r="5"/><circle cx="2033" cy="958" r="5"/><circle cx="2158" cy="883" r="4"/><circle cx="2187" cy="920" r="5"/><circle cx="2270" cy="950" r="5"/><circle cx="2326" cy="900" r="4"/><circle cx="2411" cy="947" r="4"/><circle cx="2550" cy="955" r="5"/><circle cx="16" cy="979" r="5"/><circle cx="103" cy="990" r="6"/><circle cx="175" cy="1020" r="5"/><circle cx="256" cy="970" r="6"/><circle cx="394" cy="1029" r="5"/><circle cx="463" cy="1036" r="4"/><circle cx="546" cy="996" r="4"/><circle cx="593" cy="1008" r="4"/><circle cx="659" cy="1020" r="6"/><circle cx="778" cy="969" r="5"/><circle cx="807" cy="1001" r="5"/><circle cx="948" cy="961" r="5"/><circle cx="966" cy="1032" r="4"/><circle cx="1059" cy="1033" r="5"/><circle cx="1134" cy="982" r="4"/><circle cx="1224" cy="968" r="6"/><circle cx="1282" cy="1036" r="6"/><circle cx="1437" cy="967" r="6"/><circle cx="1506" cy="1034" r="4"/><circle cx="1583" cy="968" r="4"/><circle cx="1631" cy="1030" r="6"/><circle cx="1746" cy="960" r="6"/><circle cx="1765" cy="1019" r="5"/><circle cx="1864" cy="980" r="4"/><circle cx="1938" cy="971" r="5"/><circle cx="2054" cy="1000" r="6"/><circle cx="2119" cy="999" r="5"/><circle cx="2191" cy="1024" r="5"/><circle cx="2245" cy="1038" r="4"/><circle cx="2330" cy="1037" r="4"/><circle cx="2475" cy="1038" r="4"/><circle cx="2539" cy="1016" r="4"/><circle cx="43" cy="1058" r="5"/><circle cx="154" cy="1050" r="6"/><circle cx="224" cy="1099" r="6"/><circle cx="283" cy="1093" r="5"/><circle cx="332" cy="1100" r="6"/><circle cx="436" cy="1057" r="5"/><circle cx="534" cy="1072" r="6"/><circle cx="604" cy="1081" r="6"/><circle cx="697" cy="1046" r="6"/><circle cx="792" cy="1084" r="5"/><circle cx="852" cy="1106" r="6"/><circle cx="941" cy="1043" r="6"/><circle cx="1008" cy="1050" r="4"/><circle cx="1061" cy="1067" r="5"/><circle cx="1131" cy="1060" r="4"/><circle cx="1238" cy="1119" r="4"/><circle cx="1305" cy="1113" r="4"/><circle cx="1386" cy="1097" r="5"/><circle cx="1464" cy="1072" r="6"/><circle cx="1590" cy="1093" r="5"/><circle cx="1670" cy="1060" r="4"/><circle cx="1759" cy="1103" r="5"/><circle cx="1815" cy="1045" r="5"/><circle cx="1872" cy="1073" r="5"/><circle cx="1976" cy="1059" r="5"/><circle cx="2019" cy="1102" r="5"/><circle cx="2129" cy="1066" r="6"/><circle cx="2183" cy="1043" r="5"/><circle cx="2262" cy="1115" r="6"/><circle cx="2322" cy="1041" r="6"/><circle cx="2452" cy="1116" r="4"/><circle cx="2540" cy="1116" r="5"/><circle cx="55" cy="1197" r="6"/><circle cx="117" cy="1146" r="5"/><circle cx="168" cy="1188" r="5"/><circle cx="244" cy="1173" r="5"/><circle cx="374" cy="1143" r="6"/><circle cx="409" cy="1154" r="5"/><circle cx="512" cy="1189" r="5"/><circle cx="567" cy="1123" r="4"/><circle cx="641" cy="1123" r="4"/><circle cx="741" cy="1145" r="5"/><circle cx="805" cy="1180" r="4"/><circle cx="902" cy="1143" r="4"/><circle cx="1008" cy="1161" r="6"/><circle cx="1078" cy="1163" r="4"/><circle cx="1185" cy="1149" r="6"/><circle cx="1215" cy="1192" r="6"/><circle cx="1308" cy="1136" r="5"/><circle cx="1389" cy="1194" r="6"/><circle cx="1516" cy="1120" r="6"/><circle cx="1599" cy="1126" r="5"/><circle cx="1653" cy="1191" r="5"/><circle cx="1703" cy="1161" r="5"/><circle cx="1760" cy="1149" r="5"/><circle cx="1903" cy="1176" r="5"/><circle cx="1981" cy="1143" r="6"/><circle cx="2078" cy="1189" r="4"/><circle cx="2084" cy="1149" r="5"/><circle cx="2181" cy="1123" r="6"/><circle cx="2278" cy="1189" r="6"/><circle cx="2363" cy="1179" r="6"/><circle cx="2447" cy="1128" r="5"/><circle cx="2525" cy="1147" r="5"/><circle cx="57" cy="1256" r="6"/><circle cx="129" cy="1268" r="5"/><circle cx="197" cy="1239" r="4"/><circle cx="253" cy="1258" r="6"/><circle cx="327" cy="1203" r="6"/><circle cx="412" cy="1258" r="4"/><circle cx="493" cy="1263" r="5"/><circle cx="600" cy="1254" r="4"/><circle cx="684" cy="1209" r="5"/><circle cx="797" cy="1275" r="4"/><circle cx="849" cy="1252" r="5"/><circle cx="945" cy="1204" r="4"/><circle cx="987" cy="1208" r="5"/><circle cx="1108" cy="1213" r="4"/><circle cx="1173" cy="1203" r="4"/><circle cx="1272" cy="1266" r="6"/><circle cx="1344" cy="1266" r="5"/><circle cx="1389" cy="1216" r="4"/><circle cx="1462" cy="1250" r="5"/><circle cx="1535" cy="1214" r="4"/><circle cx="1626" cy="1278" r="5"/><circle cx="1695" cy="1249" r="4"/><circle cx="1761" cy="1243" r="4"/><circle cx="1885" cy="1271" r="6"/><circle cx="1967" cy="1205" r="5"/><circle cx="2066" cy="1258" r="4"/><circle cx="2119" cy="1244" r="6"/><circle cx="2237" cy="1248" r="4"/><circle cx="2291" cy="1275" r="6"/><circle cx="2349" cy="1267" r="5"/><circle cx="2404" cy="1257" r="5"/><circle cx="2485" cy="1266" r="5"/><circle cx="16" cy="1339" r="4"/><circle cx="84" cy="1281" r="6"/><circle cx="197" cy="1354" r="5"/><circle cx="304" cy="1301" r="5"/><circle cx="361" cy="1317" r="5"/><circle cx="460" cy="1323" r="6"/><circle cx="543" cy="1354" r="4"/><circle cx="583" cy="1314" r="5"/><circle cx="703" cy="1310" r="6"/><circle cx="778" cy="1356" r="4"/><circle cx="863" cy="1334" r="5"/><circle cx="909" cy="1338" r="6"/><circle cx="1016" cy="1311" r="5"/><circle cx="1072" cy="1314" r="5"/><circle cx="1177" cy="1328" r="5"/><circle cx="1240" cy="1297" r="5"/><circle cx="1293" cy="1323" r="6"/><circle cx="1371" cy="1353" r="5"/><circle cx="1475" cy="1342" r="6"/><circle cx="1522" cy="1287" r="5"/><circle cx="1613" cy="1338" r="4"/><circle cx="1747" cy="1348" r="5"/><circle cx="1796" cy="1314" r="5"/><circle cx="1847" cy="1324" r="6"/><circle cx="1998" cy="1304" r="6"/><circle cx="2041" cy="1313" r="5"/><circle cx="2127" cy="1292" r="4"/><circle cx="2164" cy="1355" r="6"/><circle cx="2308" cy="1346" r="5"/><circle cx="2352" cy="1298" r="6"/><circle cx="2416" cy="1307" r="6"/><circle cx="2487" cy="1309" r="6"/><circle cx="32" cy="1424" r="5"/><circle cx="100" cy="1399" r="4"/><circle cx="223" cy="1368" r="5"/><circle cx="264" cy="1413" r="6"/><circle cx="346" cy="1409" r="6"/><circle cx="477" cy="1440" r="6"/><circle cx="477" cy="-0" r="6"/><circle cx="529" cy="1371" r="5"/><circle cx="634" cy="1360" r="6"/><circle cx="706" cy="1439" r="5"/><circle cx="706" cy="-1" r="5"/><circle cx="742" cy="1397" r="5"/><circle cx="810" cy="1402" r="6"/><circle cx="904" cy="1404" r="4"/><circle cx="1026" cy="1417" r="5"/><circle cx="1072" cy="1400" r="4"/><circle cx="1143" cy="1363" r="5"/><circle cx="1266" cy="1390" r="6"/><circle cx="1324" cy="1414" r="4"/><circle cx="1431" cy="1399" r="6"/><circle cx="1448" cy="1391" r="4"/><circle cx="1592" cy="1362" r="4"/><circle cx="1672" cy="1424" r="5"/><circle cx="1743" cy="1438" r="4"/><circle cx="1743" cy="-2" r="4"/><circle cx="1779" cy="1408" r="5"/><circle cx="1879" cy="1406" r="4"/><circle cx="1926" cy="1418" r="6"/><circle cx="2045" cy="1378" r="4"/><circle cx="2092" cy="1370" r="5"/><circle cx="2180" cy="1379" r="4"/><circle cx="2270" cy="1364" r="5"/><circle cx="2364" cy="1412" r="4"/><circle cx="2438" cy="1371" r="4"/><circle cx="2531" cy="1382" r="5"/><path stroke="#fff" d="M53 46L119 12M53 46L-8 38M53 46L32 144M53 46L32 -16M53 46L100 -41M2613 46L2552 38M53 1486L32 1424M53 1486L100 1399M119 12L216 69M119 12L100 -41M119 1452L100 1399M216 69L274 63M216 69L210 81M216 69L303 82M216 69L264 -27M216 1509L264 1413M274 63L210 81M274 63L303 82M274 63L264 -27M274 63L346 -31M274 1503L264 1413M274 1503L346 1409M367 13L303 82M367 13L346 -31M367 1453L346 1409M474 23L491 13M474 23L585 35M474 23L477 -0M474 1463L477 1440M491 13L585 35M491 13L477 -0M491 13L529 -69M491 1453L477 1440M491 1453L529 1371M585 35L640 93M585 35L477 -0M585 1475L477 1440M701 3L777 2M701 3L640 93M701 3L634 -80M701 3L706 -1M701 3L742 -43M701 1443L634 1360M701 1443L706 1439M701 1443L742 1397M777 2L867 4M777 2L706 -1M777 2L742 -43M777 2L810 -38M777 1442L706 1439M777 1442L742 1397M777 1442L810 1402M867 4L914 10M867 4L852 107M867 4L810 -38M867 4L904 -36M867 1444L810 1402M867 1444L904 1404M914 10L852 107M914 10L909 -102M914 10L904 -36M914 1450L909 1338M914 1450L904 1404M1023 23L1068 29M1023 23L1018 110M1023 23L1026 -23M1023 23L1072 -40M1023 1463L1026 1417M1023 1463L1072 1400M1068 29L1018 110M1068 29L1026 -23M1068 29L1072 -40M1068 1469L1026 1417M1068 1469L1072 1400M1196 38L1224 74M1196 38L1188 120M1224 74L1300 25M1224 74L1188 120M1224 74L1254 121M1224 74L1328 87M1300 25L1362 17M1300 25L1328 87M1300 25L1266 -50M1300 25L1324 -26M1300 1465L1266 1390M1300 1465L1324 1414M1362 17L1328 87M1362 17L1367 110M1362 17L1324 -26M1362 17L1431 -41M1362 1457L1324 1414M1362 1457L1431 1399M1457 54L1523 65M1457 54L1464 121M1457 54L1431 -41M1457 54L1448 -49M1457 1494L1431 1399M1457 1494L1448 1391M1523 65L1607 61M1523 65L1464 121M1523 65L1575 111M1607 61L1575 111M1607 61L1651 105M1607 61L1672 -16M1607 1501L1672 1424M1721 77L1812 62M1721 77L1651 105M1721 77L1748 88M1721 77L1672 -16M1721 77L1743 -2M1721 1517L1672 1424M1721 1517L1743 1438M1812 62L1876 2M1812 62L1748 88M1812 62L1878 97M1812 62L1779 -32M1812 1502L1779 1408M1876 2L1976 32M1876 2L1878 97M1876 2L1879 -34M1876 2L1926 -22M1876 1442L1879 1406M1876 1442L1926 1418M1976 32L2080 40M1976 32L2026 124M1976 32L1926 -22M1976 1472L1926 1418M2080 40L2146 46M2080 40L2173 18M2080 40L2026 124M2080 40L2148 123M2146 46L2173 18M2146 46L2252 27M2146 46L2148 123M2146 46L2163 115M2173 18L2252 27M2173 18L2164 -85M2173 18L2180 -61M2173 1458L2164 1355M2173 1458L2180 1379M2252 27L2365 37M2252 27L2279 140M2252 27L2270 -76M2252 1467L2270 1364M2365 37L2453 60M2365 37L2325 144M2365 37L2364 -28M2365 37L2438 -69M2365 1477L2364 1412M2365 1477L2438 1371M2453 60L2552 38M2453 60L2470 141M2552 38L2592 -16M2552 38L2531 -58M-8 38L32 -16M-8 1478L32 1424M2552 1478L2592 1424M2552 1478L2531 1382M32 144L105 155M32 144L-54 155M32 144L0 200M32 144L-42 177M2592 144L2506 155M2592 144L2518 177M105 155L138 168M105 155L179 212M210 81L303 82M210 81L138 168M303 82L377 139M377 139L433 143M377 139L500 138M377 139L349 174M377 139L443 202M433 143L500 138M433 143L349 174M433 143L443 202M500 138L443 202M500 138L534 225M500 138L501 244M640 93L693 159M640 93L626 165M693 159L743 117M693 159L626 165M693 159L654 234M693 159L729 201M743 117L729 201M852 107L927 140M852 107L852 203M852 107L896 196M927 140L1018 110M927 140L852 203M927 140L896 196M927 140L1005 164M1018 110L1063 145M1018 110L1005 164M1063 145L1005 164M1063 145L1067 220M1063 145L1024 241M1188 120L1254 121M1188 120L1188 221M1188 120L1204 210M1254 121L1328 87M1254 121L1204 210M1328 87L1367 110M1367 110L1464 121M1367 110L1323 203M1367 110L1364 175M1464 121L1575 111M1464 121L1481 203M1575 111L1651 105M1575 111L1626 201M1651 105L1748 88M1651 105L1683 202M1748 88L1794 158M1748 88L1791 175M1794 158L1878 97M1794 158L1791 175M1794 158L1857 165M1878 97L1933 143M1878 97L1857 165M1933 143L2026 124M1933 143L1857 165M1933 143L1928 199M2026 124L2038 220M2026 124L2084 217M2148 123L2163 115M2148 123L2084 217M2148 123L2208 180M2163 115L2208 180M2279 140L2325 144M2279 140L2208 180M2279 140L2268 214M2279 140L2351 189M2325 144L2268 214M2325 144L2351 189M2470 141L2506 155M2470 141L2518 177M2506 155L2560 200M2506 155L2518 177M-54 155L0 200M0 200L-42 177M0 200L31 283M0 200L-50 249M2560 200L2518 177M2560 200L2510 249M138 168L179 212M138 168L242 215M179 212L242 215M179 212L188 278M242 215L349 174M242 215L188 278M242 215L284 299M349 174L418 250M443 202L418 250M443 202L501 244M534 225L626 165M534 225L501 244M534 225L595 251M534 225L554 336M626 165L654 234M626 165L595 251M654 234L729 201M654 234L595 251M654 234L652 292M729 201L759 266M852 203L896 196M852 203L759 266M852 203L929 265M896 196L929 265M1005 164L1067 220M1005 164L1024 241M1067 220L1024 241M1067 220L1097 275M1188 221L1204 210M1188 221L1174 266M1188 221L1254 262M1204 210L1174 266M1204 210L1254 262M1323 203L1364 175M1323 203L1304 252M1323 203L1365 252M1364 175L1481 203M1364 175L1304 252M1364 175L1365 252M1481 203L1587 208M1481 203L1512 264M1587 208L1626 201M1587 208L1683 202M1587 208L1512 264M1587 208L1571 296M1626 201L1683 202M1683 202L1648 288M1683 202L1739 253M1791 175L1857 165M1791 175L1928 199M1791 175L1739 253M1857 165L1928 199M1928 199L2038 220M1928 199L2013 241M2038 220L2084 217M2038 220L2013 241M2084 217L2013 241M2084 217L2153 303M2208 180L2268 214M2208 180L2204 259M2268 214L2204 259M2268 214L2316 286M2351 189L2410 238M2351 189L2316 286M2351 189L2416 243M2410 238L2316 286M2410 238L2343 273M2410 238L2416 243M2410 238L2510 249M2518 177L2510 249M31 283L89 310M31 283L-50 249M31 283L34 384M31 283L-68 337M2591 283L2510 249M2591 283L2492 337M89 310L34 384M89 310L125 363M89 310L166 375M188 278L284 299M284 299L336 305M284 299L257 342M284 299L326 358M336 305L418 250M336 305L257 342M336 305L326 358M336 305L406 403M418 250L501 244M418 250L445 333M595 251L652 292M595 251L554 336M652 292L759 266M652 292L621 381M652 292L728 348M759 266L843 306M759 266L728 348M843 306L929 265M843 306L828 376M843 306L934 336M929 265L1024 241M929 265L934 336M1024 241L1097 275M1097 275L1174 266M1097 275L1065 342M1174 266L1254 262M1174 266L1216 323M1254 262L1304 252M1254 262L1216 323M1304 252L1365 252M1304 252L1309 326M1365 252L1309 326M1365 252L1406 323M1512 264L1571 296M1512 264L1501 351M1571 296L1648 288M1571 296L1501 351M1571 296L1580 366M1648 288L1739 253M1648 288L1663 323M1648 288L1687 366M1739 253L1663 323M1739 253L1801 338M1840 318L1842 304M1840 318L1801 338M1840 318L1901 348M1840 318L1920 352M1840 318L1835 414M1842 304L1934 320M1842 304L1801 338M1842 304L1901 348M1934 320L1901 348M1934 320L1920 352M1934 320L2016 336M2013 241L2016 336M2153 303L2204 259M2153 303L2193 346M2204 259L2193 346M2316 286L2343 273M2316 286L2339 324M2343 273L2416 243M2343 273L2339 324M2510 249L2492 337M34 384L125 363M34 384L62 449M125 363L166 375M125 363L62 449M125 363L156 427M166 375L156 427M166 375L230 406M257 342L326 358M257 342L230 406M257 342L277 436M326 358L277 436M326 358L406 403M445 333L554 336M445 333L382 428M445 333L406 403M554 336L621 381M621 381L715 370M621 381L617 477M621 381L685 456M715 370L728 348M715 370L685 456M728 348L828 376M828 376L934 336M828 376L827 465M828 376L890 442M934 336L1012 390M934 336L890 442M1012 390L1065 342M1012 390L1037 453M1012 390L1041 477M1065 342L1166 383M1065 342L1037 453M1065 342L1160 422M1166 383L1216 323M1166 383L1160 422M1166 383L1208 415M1216 323L1309 326M1216 323L1208 415M1309 326L1406 323M1406 323L1501 351M1406 323L1371 421M1406 323L1442 440M1501 351L1580 366M1501 351L1550 416M1580 366L1663 323M1580 366L1550 416M1580 366L1640 419M1663 323L1687 366M1687 366L1640 419M1687 366L1746 462M1801 338L1835 414M1901 348L1920 352M1901 348L1939 409M1920 352L2016 336M1920 352L1939 409M2016 336L2083 400M2083 400L2039 438M2083 400L2135 460M2083 400L2172 457M2083 400L2064 500M2193 346L2289 395M2193 346L2172 457M2289 395L2339 324M2289 395L2282 459M2289 395L2343 413M2339 324L2432 389M2339 324L2343 413M2432 389L2492 337M2432 389L2343 413M2432 389L2449 412M2432 389L2523 461M2492 337L2449 412M62 449L31 539M62 449L106 525M62 449L-12 493M2622 449L2548 493M156 427L230 406M156 427L106 525M230 406L277 436M230 406L223 516M277 436L223 516M277 436L311 493M382 428L406 403M382 428L495 464M382 428L311 493M406 403L495 464M495 464L417 542M495 464L532 510M617 477L685 456M617 477L532 510M617 477L610 549M617 477L630 563M685 456L766 476M685 456L730 515M766 476L827 465M766 476L730 515M766 476L825 484M827 465L890 442M827 465L730 515M827 465L825 484M890 442L825 484M890 442L965 532M1037 453L1041 477M1041 477L965 532M1041 477L1077 545M1041 477L1136 529M1160 422L1208 415M1160 422L1136 529M1160 422L1224 496M1208 415L1308 468M1208 415L1224 496M1308 468L1371 421M1308 468L1224 496M1308 468L1327 485M1308 468L1399 504M1371 421L1442 440M1371 421L1327 485M1371 421L1399 504M1442 440L1550 416M1442 440L1399 504M1442 440L1444 496M1550 416L1640 419M1550 416L1570 496M1640 419L1570 496M1746 462L1835 414M1746 462L1734 552M1746 462L1799 524M1746 462L1756 565M1835 414L1891 475M1891 475L1939 409M1891 475L1799 524M1891 475L1917 487M1891 475L1941 483M1939 409L1917 487M1939 409L1941 483M2039 438L1941 483M2039 438L2064 500M2039 438L2137 498M2135 460L2172 457M2135 460L2064 500M2135 460L2137 498M2135 460L2216 492M2172 457L2137 498M2172 457L2216 492M2282 459L2343 413M2282 459L2216 492M2282 459L2320 555M2282 459L2241 561M2343 413L2449 412M2449 412L2523 461M2449 412L2453 519M2523 461L2453 519M2523 461L2548 493M31 539L106 525M31 539L-12 493M31 539L4 591M31 539L-15 588M2591 539L2548 493M2591 539L2545 588M223 516L311 493M223 516L289 588M380 557L417 542M380 557L289 588M380 557L394 601M380 557L427 612M380 557L325 642M417 542L532 510M417 542L394 601M417 542L427 612M532 510L610 549M610 549L710 556M610 549L630 563M710 556L730 515M710 556L630 563M710 556L715 570M710 556L727 625M730 515L715 570M825 484L843 589M954 558L965 532M954 558L890 611M954 558L995 619M965 532L995 619M1077 545L1136 529M1077 545L1066 638M1077 545L1090 643M1136 529L1224 496M1136 529L1090 643M1224 496L1327 485M1327 485L1399 504M1327 485L1331 587M1399 504L1444 496M1444 496L1490 567M1570 496L1625 525M1570 496L1490 567M1570 496L1631 585M1625 525L1576 635M1625 525L1631 585M1734 552L1799 524M1734 552L1756 565M1734 552L1761 586M1799 524L1756 565M1799 524L1761 586M1917 487L1941 483M1917 487L1954 569M1941 483L1954 569M2064 500L2137 498M2064 500L2007 565M2137 498L2216 492M2216 492L2241 561M2320 555L2365 554M2320 555L2241 561M2320 555L2368 608M2365 554L2453 519M2365 554L2241 561M2365 554L2368 608M2548 493L2564 591M2548 493L2545 588M-12 493L4 591M4 591L-89 639M4 591L-15 588M4 591L-63 659M2564 591L2471 639M2564 591L2545 588M2564 591L2497 659M137 640L187 626M137 640L58 694M137 640L140 718M137 640L123 734M187 626L289 588M187 626L140 718M187 626L181 714M187 626L242 692M289 588L394 601M289 588L325 642M394 601L427 612M394 601L325 642M427 612L494 634M427 612L470 712M494 634L470 712M494 634L554 719M630 563L715 570M715 570L727 625M715 570L683 646M727 625L683 646M727 625L735 694M843 589L890 611M843 589L852 641M890 611L995 619M890 611L852 641M995 619L1066 638M995 619L991 680M1066 638L991 680M1066 638L1090 643M1199 638L1211 632M1199 638L1090 643M1199 638L1196 703M1199 638L1228 700M1199 638L1185 740M1211 632L1196 703M1211 632L1228 700M1331 587L1421 635M1421 635L1490 567M1421 635L1413 660M1421 635L1451 695M1490 567L1576 635M1576 635L1631 585M1576 635L1578 664M1576 635L1622 642M1631 585L1578 664M1631 585L1622 642M1756 565L1761 586M1756 565L1765 684M1761 586L1871 618M1761 586L1765 684M1871 618L1954 569M1871 618L1892 715M1954 569L2007 565M2121 622L2204 627M2121 622L2081 710M2204 627L2241 561M2204 627L2226 694M2204 627L2303 688M2368 608L2303 688M2368 608L2368 658M2471 639L2545 588M2471 639L2368 658M2471 639L2450 712M2471 639L2497 659M2545 588L2497 659M58 694L140 718M58 694L123 734M140 718L181 714M140 718L123 734M181 714L242 692M181 714L123 734M181 714L210 786M242 692L325 642M242 692L210 786M242 692L277 788M470 712L554 719M470 712L439 797M470 712L491 759M554 719L605 700M554 719L491 759M554 719L608 792M605 700L683 646M605 700L608 792M605 700L687 722M683 646L735 694M683 646L687 722M735 694L687 722M735 694L766 757M852 641L828 736M937 714L991 680M937 714L828 736M937 714L950 750M937 714L986 779M937 714L909 812M991 680L950 750M1196 703L1228 700M1196 703L1185 740M1196 703L1246 765M1228 700L1185 740M1228 700L1246 765M1328 717L1413 660M1328 717L1246 765M1328 717L1357 728M1328 717L1378 727M1328 717L1287 816M1413 660L1451 695M1413 660L1357 728M1413 660L1378 727M1451 695L1357 728M1451 695L1378 727M1451 695L1508 768M1578 664L1622 642M1578 664L1657 736M1622 642L1701 711M1622 642L1657 736M1701 711L1765 684M1701 711L1657 736M1701 711L1740 782M1765 684L1740 782M1765 684L1817 757M1892 715L1991 679M1892 715L1817 757M1892 715L1910 781M1892 715L1971 750M1991 679L2037 707M1991 679L2081 710M1991 679L1971 750M1991 679L2050 734M2037 707L2081 710M2037 707L1971 750M2037 707L2050 734M2037 707L2139 750M2081 710L2050 734M2081 710L2139 750M2226 694L2303 688M2226 694L2139 750M2226 694L2223 798M2226 694L2246 772M2303 688L2368 658M2368 658L2450 712M2368 658L2393 753M2450 712L2497 659M2450 712L2393 753M2450 712L2438 773M29 798L-40 799M29 798L9 876M29 798L116 839M29 798L-13 835M2589 798L2520 799M2589 798L2547 835M123 734L210 786M210 786L277 788M210 786L178 856M277 788L331 781M277 788L280 875M331 781L390 862M439 797L491 759M439 797L390 862M439 797L470 840M491 759L470 840M491 759L547 825M608 792L547 825M608 792L585 863M608 792L658 804M687 722L766 757M687 722L658 804M766 757L828 736M766 757L825 838M828 736L825 838M950 750L986 779M950 750L909 812M950 750L1016 810M986 779L1055 780M986 779L909 812M986 779L1016 810M1055 780L1016 810M1055 780L1063 836M1185 740L1246 765M1185 740L1153 841M1246 765L1287 816M1357 728L1378 727M1357 728L1287 816M1378 727L1413 818M1508 768L1525 798M1508 768L1413 818M1508 768L1499 828M1508 768L1572 853M1525 798L1413 818M1525 798L1499 828M1525 798L1572 853M1740 782L1817 757M1740 782L1741 836M1740 782L1800 837M1817 757L1910 781M1817 757L1800 837M1910 781L1971 750M1910 781L1852 854M1910 781L1971 863M1971 750L2050 734M2050 734L2139 750M2139 750L2223 798M2223 798L2246 772M2223 798L2227 829M2223 798L2241 867M2246 772L2227 829M2246 772L2340 843M2393 753L2438 773M2393 753L2340 843M2393 753L2437 810M2438 773L2520 799M2438 773L2340 843M2438 773L2437 810M2520 799L2569 876M2520 799L2437 810M2520 799L2547 835M-40 799L9 876M9 876L-13 835M9 876L49 919M9 876L-10 955M2569 876L2547 835M2569 876L2550 955M116 839L178 856M178 856L280 875M178 856L112 940M178 856L211 929M280 875L211 929M280 875L270 929M280 875L256 970M390 862L470 840M390 862L370 928M390 862L411 899M470 840L547 825M470 840L411 899M547 825L585 863M547 825L658 804M585 863L658 804M585 863L628 920M585 863L677 926M740 874L825 838M740 874L677 926M740 874L780 957M740 874L811 903M740 874L778 969M825 838L909 812M825 838L811 903M909 812L948 885M1016 810L1063 836M1016 810L989 885M1063 836L1153 841M1063 836L989 885M1063 836L1074 933M1153 841L1224 871M1153 841L1183 936M1153 841L1212 881M1224 871L1287 816M1224 871L1183 936M1224 871L1212 881M1224 871L1224 968M1287 816L1212 881M1413 818L1499 828M1499 828L1572 853M1572 853L1671 852M1572 853L1597 951M1671 852L1741 836M1671 852L1659 920M1741 836L1800 837M1800 837L1852 854M1852 854L1846 940M1852 854L1920 906M1971 863L2076 839M1971 863L1920 906M1971 863L2033 958M2076 839L2139 876M2076 839L2158 883M2139 876L2227 829M2139 876L2158 883M2139 876L2187 920M2227 829L2241 867M2241 867L2158 883M2241 867L2187 920M2241 867L2270 950M2340 843L2437 810M2340 843L2326 900M49 919L112 940M49 919L-10 955M49 919L16 979M49 919L103 990M2609 919L2550 955M112 940L103 990M112 940L175 1020M211 929L270 929M211 929L256 970M270 929L370 928M270 929L256 970M370 928L411 899M370 928L394 1029M411 899L482 937M482 937L463 1036M482 937L546 996M628 920L677 926M628 920L593 1008M628 920L659 1020M677 926L659 1020M677 926L778 969M780 957L811 903M780 957L778 969M780 957L807 1001M780 957L697 1046M811 903L778 969M811 903L807 1001M948 885L989 885M948 885L948 961M989 885L1074 933M989 885L948 961M1074 933L1134 982M1183 936L1212 881M1183 936L1134 982M1183 936L1224 968M1212 881L1224 968M1316 938L1382 954M1316 938L1282 1036M1316 938L1437 967M1382 954L1485 947M1382 954L1437 967M1485 947L1437 967M1485 947L1506 1034M1485 947L1583 968M1597 951L1659 920M1597 951L1689 956M1597 951L1583 968M1597 951L1631 1030M1659 920L1689 956M1659 920L1583 968M1689 956L1631 1030M1689 956L1746 960M1689 956L1765 1019M1811 955L1846 940M1811 955L1746 960M1811 955L1765 1019M1811 955L1864 980M1811 955L1815 1045M1846 940L1920 906M1846 940L1746 960M1846 940L1864 980M1920 906L1864 980M1920 906L1938 971M2033 958L1938 971M2033 958L2054 1000M2033 958L2119 999M2158 883L2187 920M2187 920L2270 950M2270 950L2326 900M2270 950L2245 1038M2270 950L2322 1041M2326 900L2411 947M2411 947L2475 1038M2550 955L2576 979M2550 955L2539 1016M-10 955L16 979M16 979L103 990M16 979L-21 1016M16 979L43 1058M2576 979L2539 1016M103 990L175 1020M103 990L154 1050M175 1020L256 970M175 1020L154 1050M175 1020L224 1099M394 1029L463 1036M394 1029L332 1100M394 1029L436 1057M463 1036L546 996M463 1036L436 1057M463 1036L534 1072M546 996L593 1008M546 996L534 1072M593 1008L659 1020M593 1008L534 1072M593 1008L604 1081M659 1020L604 1081M659 1020L697 1046M778 969L807 1001M807 1001L792 1084M807 1001L852 1106M948 961L966 1032M948 961L941 1043M966 1032L1059 1033M966 1032L941 1043M966 1032L1008 1050M1059 1033L1134 982M1059 1033L1008 1050M1059 1033L1061 1067M1059 1033L1131 1060M1134 982L1224 968M1134 982L1131 1060M1224 968L1282 1036M1282 1036L1238 1119M1282 1036L1305 1113M1282 1036L1308 1136M1437 967L1506 1034M1437 967L1464 1072M1506 1034L1464 1072M1506 1034L1590 1093M1506 1034L1516 1120M1583 968L1631 1030M1631 1030L1590 1093M1631 1030L1670 1060M1746 960L1765 1019M1765 1019L1759 1103M1765 1019L1815 1045M1864 980L1938 971M1864 980L1815 1045M1938 971L1976 1059M2054 1000L2119 999M2054 1000L1976 1059M2054 1000L2019 1102M2054 1000L2129 1066M2119 999L2191 1024M2119 999L2129 1066M2119 999L2183 1043M2191 1024L2245 1038M2191 1024L2129 1066M2191 1024L2183 1043M2191 1024L2181 1123M2245 1038L2183 1043M2245 1038L2262 1115M2245 1038L2322 1041M2330 1037L2262 1115M2330 1037L2322 1041M2475 1038L2539 1016M2475 1038L2452 1116M2475 1038L2447 1128M2539 1016L2603 1058M-21 1016L43 1058M43 1058L154 1050M43 1058L-20 1116M43 1058L117 1146M2603 1058L2540 1116M154 1050L224 1099M154 1050L117 1146M224 1099L283 1093M224 1099L244 1173M283 1093L332 1100M283 1093L374 1143M332 1100L374 1143M332 1100L409 1154M332 1100L327 1203M436 1057L374 1143M436 1057L409 1154M534 1072L604 1081M534 1072L567 1123M604 1081L567 1123M604 1081L641 1123M697 1046L792 1084M697 1046L641 1123M697 1046L741 1145M792 1084L852 1106M792 1084L741 1145M792 1084L805 1180M852 1106L941 1043M852 1106L805 1180M852 1106L902 1143M941 1043L1008 1050M941 1043L902 1143M1008 1050L1061 1067M1061 1067L1131 1060M1061 1067L1008 1161M1061 1067L1078 1163M1131 1060L1185 1149M1238 1119L1305 1113M1238 1119L1185 1149M1238 1119L1215 1192M1238 1119L1308 1136M1305 1113L1386 1097M1305 1113L1308 1136M1386 1097L1464 1072M1386 1097L1308 1136M1386 1097L1389 1194M1464 1072L1516 1120M1590 1093L1670 1060M1590 1093L1516 1120M1590 1093L1599 1126M1670 1060L1759 1103M1670 1060L1599 1126M1759 1103L1815 1045M1759 1103L1703 1161M1759 1103L1760 1149M1815 1045L1872 1073M1872 1073L1976 1059M1872 1073L1903 1176M1976 1059L2019 1102M1976 1059L1981 1143M2019 1102L1981 1143M2019 1102L2084 1149M2129 1066L2183 1043M2129 1066L2181 1123M2183 1043L2181 1123M2262 1115L2322 1041M2262 1115L2181 1123M2262 1115L2278 1189M2452 1116L2540 1116M2452 1116L2447 1128M2452 1116L2525 1147M2540 1116L2447 1128M2540 1116L2525 1147M55 1197L117 1146M55 1197L-35 1147M55 1197L57 1256M55 1197L129 1268M55 1197L84 1281M2615 1197L2525 1147M117 1146L168 1188M117 1146L57 1256M168 1188L244 1173M168 1188L129 1268M168 1188L197 1239M244 1173L197 1239M244 1173L253 1258M244 1173L327 1203M374 1143L409 1154M374 1143L327 1203M409 1154L512 1189M409 1154L327 1203M512 1189L567 1123M512 1189L493 1263M512 1189L600 1254M567 1123L641 1123M641 1123L741 1145M641 1123L684 1209M741 1145L805 1180M741 1145L684 1209M805 1180L797 1275M805 1180L849 1252M902 1143L1008 1161M902 1143L945 1204M902 1143L987 1208M1008 1161L1078 1163M1008 1161L945 1204M1008 1161L987 1208M1078 1163L987 1208M1078 1163L1108 1213M1185 1149L1215 1192M1185 1149L1108 1213M1185 1149L1173 1203M1215 1192L1173 1203M1215 1192L1272 1266M1308 1136L1389 1194M1389 1194L1344 1266M1389 1194L1389 1216M1389 1194L1462 1250M1516 1120L1599 1126M1516 1120L1535 1214M1599 1126L1653 1191M1653 1191L1703 1161M1653 1191L1760 1149M1653 1191L1626 1278M1653 1191L1695 1249M1703 1161L1760 1149M1703 1161L1695 1249M1703 1161L1761 1243M1760 1149L1695 1249M1760 1149L1761 1243M1903 1176L1981 1143M1903 1176L1885 1271M1903 1176L1967 1205M1981 1143L2084 1149M1981 1143L1967 1205M2078 1189L2084 1149M2078 1189L1967 1205M2078 1189L2066 1258M2078 1189L2119 1244M2084 1149L2181 1123M2084 1149L2119 1244M2278 1189L2363 1179M2278 1189L2237 1248M2278 1189L2291 1275M2363 1179L2447 1128M2363 1179L2349 1267M2363 1179L2404 1257M2447 1128L2525 1147M57 1256L129 1268M57 1256L16 1339M57 1256L84 1281M129 1268L197 1239M129 1268L84 1281M197 1239L253 1258M253 1258L327 1203M253 1258L197 1354M253 1258L304 1301M412 1258L493 1263M412 1258L361 1317M412 1258L460 1323M493 1263L460 1323M493 1263L583 1314M600 1254L684 1209M600 1254L583 1314M684 1209L703 1310M797 1275L849 1252M797 1275L703 1310M797 1275L778 1356M849 1252L945 1204M849 1252L863 1334M849 1252L909 1338M945 1204L987 1208M987 1208L1016 1311M1108 1213L1173 1203M1272 1266L1344 1266M1272 1266L1240 1297M1272 1266L1293 1323M1344 1266L1389 1216M1344 1266L1293 1323M1344 1266L1371 1353M1389 1216L1462 1250M1462 1250L1535 1214M1462 1250L1475 1342M1462 1250L1522 1287M1535 1214L1522 1287M1626 1278L1695 1249M1626 1278L1522 1287M1626 1278L1613 1338M1626 1278L1592 1362M1695 1249L1761 1243M1761 1243L1796 1314M1885 1271L1967 1205M1885 1271L1796 1314M1885 1271L1847 1324M1885 1271L1998 1304M1967 1205L1998 1304M2066 1258L2119 1244M2066 1258L1998 1304M2066 1258L2041 1313M2066 1258L2127 1292M2119 1244L2041 1313M2119 1244L2127 1292M2237 1248L2291 1275M2291 1275L2349 1267M2291 1275L2308 1346M2291 1275L2352 1298M2349 1267L2404 1257M2349 1267L2352 1298M2349 1267L2416 1307M2404 1257L2485 1266M2404 1257L2352 1298M2404 1257L2416 1307M2485 1266L2487 1309M16 1339L84 1281M16 1339L-73 1309M16 1339L32 1424M16 1339L-29 1382M2576 1339L2487 1309M2576 1339L2531 1382M84 1281L100 1399M197 1354L100 1399M197 1354L223 1368M197 1354L264 1413M304 1301L361 1317M304 1301L223 1368M304 1301L346 1409M361 1317L460 1323M361 1317L346 1409M460 1323L543 1354M460 1323L529 1371M543 1354L583 1314M543 1354L477 1440M543 1354L529 1371M543 1354L634 1360M583 1314L529 1371M583 1314L634 1360M703 1310L778 1356M703 1310L634 1360M778 1356L863 1334M778 1356L742 1397M778 1356L810 1402M863 1334L909 1338M863 1334L810 1402M863 1334L904 1404M909 1338L904 1404M1016 1311L1072 1314M1016 1311L1026 1417M1072 1314L1177 1328M1072 1314L1026 1417M1072 1314L1072 1400M1072 1314L1143 1363M1177 1328L1240 1297M1177 1328L1143 1363M1177 1328L1266 1390M1240 1297L1293 1323M1240 1297L1143 1363M1240 1297L1266 1390M1293 1323L1371 1353M1293 1323L1266 1390M1371 1353L1324 1414M1371 1353L1431 1399M1371 1353L1448 1391M1475 1342L1522 1287M1475 1342L1431 1399M1475 1342L1448 1391M1475 1342L1592 1362M1522 1287L1592 1362M1613 1338L1592 1362M1747 1348L1796 1314M1747 1348L1847 1324M1747 1348L1672 1424M1747 1348L1743 1438M1747 1348L1779 1408M1796 1314L1847 1324M1796 1314L1779 1408M1847 1324L1779 1408M1847 1324L1879 1406M1998 1304L2041 1313M1998 1304L2045 1378M2041 1313L2045 1378M2041 1313L2092 1370M2127 1292L2164 1355M2127 1292L2092 1370M2127 1292L2180 1379M2164 1355L2092 1370M2164 1355L2180 1379M2164 1355L2270 1364M2308 1346L2352 1298M2308 1346L2270 1364M2308 1346L2364 1412M2352 1298L2416 1307M2416 1307L2487 1309M2416 1307L2438 1371M2487 1309L2438 1371M2487 1309L2531 1382M32 1424L100 1399M32 1424L-29 1382M2592 1424L2531 1382M223 1368L264 1413M264 1413L346 1409M477 1440L529 1371M634 1360L706 1439M706 1439L742 1397M742 1397L810 1402M1026 1417L1072 1400M1072 1400L1143 1363M1266 1390L1324 1414M1431 1399L1448 1391M1672 1424L1743 1438M1743 1438L1779 1408M1879 1406L1926 1418M1926 1418L2045 1378M2045 1378L2092 1370M2092 1370L2180 1379M2180 1379L2270 1364M2270 1364L2364 1412M2364 1412L2438 1371M2438 1371L2531 1382"/></svg>