<svg xmlns="http://www.w3.org/2000/svg" width="2560" height="1440" fill="#fff"><circle cx="37" cy="0" r="5"/><circle cx="37" cy="1440" r="5"/><circle cx="151" cy="63" r="6"/><circle cx="164" cy="53" r="5"/><circle cx="293" cy="6" r="6"/><circle cx="377" cy="21" r="6"/><circle cx="426" cy="69" r="6"/><circle cx="525" cy="50" r="4"/><circle cx="562" cy="15" r="4"/><circle cx="655" cy="1" r="5"/><circle cx="655" cy="1441" r="5"/><circle cx="745" cy="54" r="5"/><circle cx="879" cy="43" r="5"/><circle cx="950" cy="15" r="4"/><circle cx="980" cy="78" r="5"/><circle cx="1065" cy="27" r="4"/><circle cx="1178" cy="45" r="4"/><circle cx="1262" cy="70" r="5"/><circle cx="1311" cy="5" r="6"/><circle cx="1311" cy="1445" r="6"/><circle cx="1427" cy="24" r="5"/><circle cx="1490" cy="12" r="4"/><circle cx="1568" cy="79" r="6"/><circle cx="1652" cy="19" r="6"/><circle cx="1754" cy="67" r="5"/><circle cx="1825" cy="20" r="5"/><circle cx="1876" cy="39" r="4"/><circle cx="1968" cy="75" r="6"/><circle cx="2038" cy="18" r="5"/><circle cx="2088" cy="27" r="4"/><circle cx="2186" cy="37" r="5"/><circle cx="2282" cy="72" r="5"/><circle cx="2327" cy="67" r="5"/><circle cx="2406" cy="55" r="4"/><circle cx="2552" cy="71" r="5"/><circle cx="12" cy="99" r="5"/><circle cx="133" cy="106" r="6"/><circle cx="234" cy="127" r="4"/><circle cx="298" cy="122" r="6"/><circle cx="343" cy="87" r="4"/><circle cx="402" cy="154" r="5"/><circle cx="489" cy="121" r="5"/><circle cx="619" cy="129" r="5"/><circle cx="646" cy="141" r="5"/><circle cx="777" cy="91" r="5"/><circle cx="860" cy="119" r="6"/><circle cx="934" cy="138" r="5"/><circle cx="971" cy="133" r="6"/><circle cx="1049" cy="143" r="6"/><circle cx="1133" cy="118" r="6"/><circle cx="1265" cy="83" r="5"/><circle cx="1340" cy="133" r="6"/><circle cx="1381" cy="137" r="6"/><circle cx="1500" cy="85" r="5"/><circle cx="1582" cy="88" r="5"/><circle cx="1604" cy="138" r="6"/><circle cx="1698" cy="156" r="5"/><circle cx="1810" cy="85" r="4"/><circle cx="1868" cy="88" r="5"/><circle cx="1950" cy="158" r="6"/><circle cx="2063" cy="105" r="5"/><circle cx="2135" cy="89" r="4"/><circle cx="2209" cy="154" r="5"/><circle cx="2304" cy="145" r="5"/><circle cx="2362" cy="90" r="4"/><circle cx="2431" cy="147" r="5"/><circle cx="2505" cy="135" r="5"/><circle cx="60" cy="226" r="5"/><circle cx="159" cy="170" r="5"/><circle cx="219" cy="210" r="4"/><circle cx="312" cy="222" r="4"/><circle cx="344" cy="187" r="6"/><circle cx="453" cy="212" r="5"/><circle cx="522" cy="180" r="4"/><circle cx="564" cy="167" r="6"/><circle cx="715" cy="210" r="5"/><circle cx="734" cy="211" r="5"/><circle cx="800" cy="164" r="6"/><circle cx="899" cy="182" r="5"/><circle cx="968" cy="177" r="5"/><circle cx="1083" cy="168" r="5"/><circle cx="1153" cy="208" r="5"/><circle cx="1280" cy="184" r="5"/><circle cx="1318" cy="175" r="6"/><circle cx="1382" cy="190" r="4"/><circle cx="1453" cy="176" r="5"/><circle cx="1564" cy="231" r="6"/><circle cx="1601" cy="167" r="6"/><circle cx="1695" cy="188" r="4"/><circle cx="1833" cy="238" r="5"/><circle cx="1883" cy="177" r="6"/><circle cx="1967" cy="179" r="4"/><circle cx="2064" cy="189" r="5"/><circle cx="2082" cy="231" r="5"/><circle cx="2177" cy="205" r="4"/><circle cx="2271" cy="224" r="5"/><circle cx="2392" cy="204" r="4"/><circle cx="2429" cy="180" r="5"/><circle cx="2491" cy="176" r="6"/><circle cx="4" cy="288" r="4"/><circle cx="2564" cy="288" r="4"/><circle cx="113" cy="276" r="4"/><circle cx="237" cy="286" r="6"/><circle cx="309" cy="257" r="6"/><circle cx="369" cy="308" r="6"/><circle cx="422" cy="251" r="5"/><circle cx="498" cy="255" r="4"/><circle cx="618" cy="268" r="5"/><circle cx="663" cy="276" r="5"/><circle cx="799" cy="249" r="5"/><circle cx="874" cy="258" r="6"/><circle cx="951" cy="303" r="4"/><circle cx="1018" cy="247" r="5"/><circle cx="1059" cy="282" r="5"/><circle cx="1160" cy="280" r="6"/><circle cx="1223" cy="297" r="4"/><circle cx="1357" cy="283" r="5"/><circle cx="1429" cy="249" r="6"/><circle cx="1458" cy="292" r="5"/><circle cx="1586" cy="298" r="4"/><circle cx="1638" cy="251" r="5"/><circle cx="1685" cy="242" r="5"/><circle cx="1765" cy="301" r="5"/><circle cx="1881" cy="314" r="5"/><circle cx="1947" cy="275" r="5"/><circle cx="2041" cy="255" r="5"/><circle cx="2087" cy="295" r="6"/><circle cx="2238" cy="303" r="6"/><circle cx="2249" cy="308" r="6"/><circle cx="2342" cy="288" r="4"/><circle cx="2460" cy="284" r="4"/><circle cx="2484" cy="249" r="5"/><circle cx="72" cy="357" r="4"/><circle cx="124" cy="366" r="5"/><circle cx="215" cy="364" r="5"/><circle cx="294" cy="381" r="6"/><circle cx="370" cy="335" r="6"/><circle cx="446" cy="352" r="6"/><circle cx="482" cy="391" r="6"/><circle cx="582" cy="377" r="5"/><circle cx="704" cy="381" r="4"/><circle cx="729" cy="340" r="6"/><circle cx="803" cy="372" r="4"/><circle cx="944" cy="399" r="5"/><circle cx="994" cy="343" r="5"/><circle cx="1118" cy="374" r="6"/><circle cx="1182" cy="392" r="5"/><circle cx="1202" cy="364" r="6"/><circle cx="1337" cy="345" r="4"/><circle cx="1407" cy="386" r="6"/><circle cx="1469" cy="347" r="4"/><circle cx="1593" cy="367" r="5"/><circle cx="1655" cy="325" r="5"/><circle cx="1717" cy="387" r="6"/><circle cx="1769" cy="333" r="5"/><circle cx="1865" cy="378" r="4"/><circle cx="1994" cy="325" r="4"/><circle cx="2062" cy="366" r="6"/><circle cx="2159" cy="334" r="5"/><circle cx="2214" cy="325" r="5"/><circle cx="2248" cy="360" r="5"/><circle cx="2383" cy="355" r="5"/><circle cx="2410" cy="357" r="4"/><circle cx="2523" cy="337" r="5"/><circle cx="27" cy="436" r="5"/><circle cx="85" cy="433" r="6"/><circle cx="214" cy="443" r="5"/><circle cx="310" cy="437" r="5"/><circle cx="373" cy="445" r="5"/><circle cx="416" cy="419" r="5"/><circle cx="516" cy="405" r="5"/><circle cx="621" cy="409" r="6"/><circle cx="707" cy="436" r="5"/><circle cx="745" cy="413" r="6"/><circle cx="801" cy="411" r="5"/><circle cx="893" cy="406" r="4"/><circle cx="980" cy="472" r="5"/><circle cx="1056" cy="476" r="5"/><circle cx="1122" cy="422" r="5"/><circle cx="1216" cy="461" r="5"/><circle cx="1300" cy="408" r="5"/><circle cx="1418" cy="454" r="5"/><circle cx="1476" cy="413" r="6"/><circle cx="1571" cy="435" r="5"/><circle cx="1607" cy="429" r="5"/><circle cx="1680" cy="477" r="4"/><circle cx="1826" cy="462" r="6"/><circle cx="1866" cy="469" r="5"/><circle cx="1934" cy="414" r="5"/><circle cx="2066" cy="447" r="6"/><circle cx="2156" cy="402" r="5"/><circle cx="2200" cy="477" r="6"/><circle cx="2315" cy="466" r="5"/><circle cx="2329" cy="455" r="4"/><circle cx="2455" cy="462" r="6"/><circle cx="2498" cy="411" r="4"/><circle cx="31" cy="545" r="6"/><circle cx="111" cy="536" r="5"/><circle cx="162" cy="488" r="5"/><circle cx="244" cy="490" r="5"/><circle cx="323" cy="548" r="4"/><circle cx="434" cy="505" r="5"/><circle cx="540" cy="558" r="5"/><circle cx="586" cy="520" r="5"/><circle cx="708" cy="546" r="4"/><circle cx="750" cy="508" r="6"/><circle cx="856" cy="505" r="6"/><circle cx="936" cy="503" r="4"/><circle cx="1001" cy="558" r="5"/><circle cx="1099" cy="510" r="6"/><circle cx="1159" cy="518" r="6"/><circle cx="1251" cy="517" r="6"/><circle cx="1293" cy="550" r="6"/><circle cx="1431" cy="485" r="6"/><circle cx="1476" cy="560" r="4"/><circle cx="1591" cy="487" r="4"/><circle cx="1668" cy="516" r="6"/><circle cx="1755" cy="501" r="5"/><circle cx="1837" cy="513" r="5"/><circle cx="1843" cy="494" r="5"/><circle cx="1970" cy="560" r="6"/><circle cx="2024" cy="497" r="5"/><circle cx="2130" cy="490" r="6"/><circle cx="2201" cy="484" r="4"/><circle cx="2284" cy="540" r="5"/><circle cx="2348" cy="526" r="5"/><circle cx="2438" cy="501" r="5"/><circle cx="2507" cy="509" r="5"/><circle cx="33" cy="568" r="4"/><circle cx="159" cy="592" r="5"/><circle cx="166" cy="561" r="5"/><circle cx="270" cy="607" r="6"/><circle cx="381" cy="624" r="6"/><circle cx="422" cy="594" r="5"/><circle cx="548" cy="629" r="4"/><circle cx="569" cy="633" r="4"/><circle cx="685" cy="621" r="4"/><circle cx="792" cy="573" r="6"/><circle cx="826" cy="583" r="6"/><circle cx="928" cy="576" r="5"/><circle cx="1022" cy="602" r="5"/><circle cx="1109" cy="567" r="4"/><circle cx="1145" cy="580" r="5"/><circle cx="1272" cy="603" r="6"/><circle cx="1339" cy="627" r="5"/><circle cx="1406" cy="589" r="6"/><circle cx="1502" cy="632" r="4"/><circle cx="1549" cy="636" r="5"/><circle cx="1627" cy="609" r="5"/><circle cx="1760" cy="591" r="6"/><circle cx="1821" cy="584" r="4"/><circle cx="1911" cy="605" r="5"/><circle cx="1960" cy="588" r="5"/><circle cx="2050" cy="612" r="4"/><circle cx="2158" cy="610" r="6"/><circle cx="2203" cy="567" r="5"/><circle cx="2300" cy="586" r="5"/><circle cx="2382" cy="629" r="5"/><circle cx="2439" cy="614" r="4"/><circle cx="2559" cy="629" r="5"/><circle cx="-1" cy="629" r="5"/><circle cx="12" cy="701" r="5"/><circle cx="129" cy="718" r="4"/><circle cx="240" cy="714" r="6"/><circle cx="301" cy="671" r="6"/><circle cx="330" cy="688" r="6"/><circle cx="450" cy="675" r="4"/><circle cx="550" cy="679" r="5"/><circle cx="622" cy="693" r="6"/><circle cx="702" cy="708" r="6"/><circle cx="785" cy="704" r="6"/><circle cx="826" cy="663" r="4"/><circle cx="910" cy="653" r="5"/><circle cx="977" cy="683" r="5"/><circle cx="1097" cy="685" r="5"/><circle cx="1191" cy="643" r="5"/><circle cx="1249" cy="643" r="5"/><circle cx="1320" cy="679" r="5"/><circle cx="1418" cy="652" r="5"/><circle cx="1468" cy="706" r="5"/><circle cx="1549" cy="678" r="5"/><circle cx="1622" cy="661" r="5"/><circle cx="1685" cy="672" r="5"/><circle cx="1815" cy="683" r="5"/><circle cx="1841" cy="669" r="6"/><circle cx="1945" cy="714" r="4"/><circle cx="2066" cy="644" r="4"/><circle cx="2096" cy="653" r="5"/><circle cx="2229" cy="706" r="6"/><circle cx="2255" cy="647" r="6"/><circle cx="2385" cy="648" r="5"/><circle cx="2476" cy="649" r="6"/><circle cx="2520" cy="702" r="4"/><circle cx="12" cy="792" r="4"/><circle cx="131" cy="748" r="6"/><circle cx="181" cy="760" r="5"/><circle cx="319" cy="777" r="5"/><circle cx="383" cy="750" r="5"/><circle cx="426" cy="775" r="5"/><circle cx="497" cy="734" r="5"/><circle cx="567" cy="722" r="6"/><circle cx="695" cy="794" r="5"/><circle cx="776" cy="797" r="5"/><circle cx="868" cy="743" r="5"/><circle cx="907" cy="775" r="6"/><circle cx="1035" cy="780" r="5"/><circle cx="1099" cy="724" r="5"/><circle cx="1167" cy="772" r="5"/><circle cx="1222" cy="752" r="6"/><circle cx="1357" cy="781" r="4"/><circle cx="1419" cy="791" r="4"/><circle cx="1444" cy="780" r="6"/><circle cx="1583" cy="792" r="5"/><circle cx="1606" cy="752" r="4"/><circle cx="1708" cy="742" r="6"/><circle cx="1803" cy="722" r="5"/><circle cx="1872" cy="793" r="5"/><circle cx="1957" cy="774" r="5"/><circle cx="2013" cy="786" r="4"/><circle cx="2149" cy="777" r="5"/><circle cx="2216" cy="785" r="5"/><circle cx="2303" cy="747" r="5"/><circle cx="2359" cy="796" r="5"/><circle cx="2469" cy="774" r="4"/><circle cx="2554" cy="771" r="5"/><circle cx="51" cy="873" r="4"/><circle cx="137" cy="870" r="4"/><circle cx="225" cy="868" r="5"/><circle cx="259" cy="810" r="5"/><circle cx="340" cy="864" r="4"/><circle cx="468" cy="845" r="5"/><circle cx="505" cy="844" r="6"/><circle cx="608" cy="813" r="4"/><circle cx="666" cy="864" r="5"/><circle cx="769" cy="838" r="5"/><circle cx="807" cy="862" r="4"/><circle cx="924" cy="803" r="4"/><circle cx="1012" cy="829" r="4"/><circle cx="1054" cy="809" r="5"/><circle cx="1122" cy="850" r="5"/><circle cx="1236" cy="869" r="5"/><circle cx="1303" cy="833" r="6"/><circle cx="1430" cy="846" r="6"/><circle cx="1449" cy="806" r="6"/><circle cx="1536" cy="824" r="6"/><circle cx="1645" cy="869" r="5"/><circle cx="1712" cy="872" r="5"/><circle cx="1780" cy="873" r="4"/><circle cx="1907" cy="817" r="5"/><circle cx="1974" cy="801" r="4"/><circle cx="2021" cy="821" r="5"/><circle cx="2092" cy="824" r="5"/><circle cx="2233" cy="879" r="5"/><circle cx="2269" cy="805" r="4"/><circle cx="2337" cy="870" r="4"/><circle cx="2404" cy="841" r="5"/><circle cx="2545" cy="810" r="5"/><circle cx="16" cy="951" r="5"/><circle cx="121" cy="906" r="5"/><circle cx="189" cy="906" r="4"/><circle cx="257" cy="885" r="6"/><circle cx="367" cy="959" r="6"/><circle cx="456" cy="897" r="4"/><circle cx="533" cy="909" r="4"/><circle cx="566" cy="881" r="5"/><circle cx="668" cy="943" r="4"/><circle cx="723" cy="925" r="5"/><circle cx="838" cy="937" r="5"/><circle cx="921" cy="882" r="5"/><circle cx="1023" cy="944" r="5"/><circle cx="1083" cy="943" r="5"/><circle cx="1179" cy="936" r="5"/><circle cx="1256" cy="881" r="4"/><circle cx="1345" cy="884" r="6"/><circle cx="1368" cy="943" r="6"/><circle cx="1504" cy="903" r="4"/><circle cx="1539" cy="929" r="5"/><circle cx="1614" cy="915" r="4"/><circle cx="1695" cy="904" r="5"/><circle cx="1839" cy="943" r="6"/><circle cx="1917" cy="881" r="4"/><circle cx="1961" cy="898" r="5"/><circle cx="2062" cy="921" r="5"/><circle cx="2081" cy="953" r="6"/><circle cx="2201" cy="942" r="4"/><circle cx="2297" cy="907" r="5"/><circle cx="2357" cy="908" r="5"/><circle cx="2471" cy="933" r="4"/><circle cx="2540" cy="958" r="6"/><circle cx="43" cy="983" r="6"/><circle cx="138" cy="1005" r="5"/><circle cx="181" cy="1001" r="5"/><circle cx="309" cy="969" r="6"/><circle cx="399" cy="1023" r="4"/><circle cx="465" cy="995" r="5"/><circle cx="501" cy="971" r="5"/><circle cx="629" cy="969" r="6"/><circle cx="660" cy="1023" r="5"/><circle cx="763" cy="987" r="6"/><circle cx="816" cy="1037" r="4"/><circle cx="881" cy="1026" r="4"/><circle cx="984" cy="993" r="5"/><circle cx="1054" cy="1035" r="5"/><circle cx="1131" cy="1030" r="6"/><circle cx="1202" cy="1019" r="6"/><circle cx="1357" cy="1039" r="5"/><circle cx="1367" cy="1033" r="5"/><circle cx="1454" cy="961" r="5"/><circle cx="1570" cy="1015" r="4"/><circle cx="1621" cy="1011" r="5"/><circle cx="1727" cy="976" r="5"/><circle cx="1838" cy="986" r="5"/><circle cx="1885" cy="963" r="5"/><circle cx="1948" cy="980" r="4"/><circle cx="2009" cy="1025" r="4"/><circle cx="2151" cy="1002" r="6"/><circle cx="2162" cy="1001" r="4"/><circle cx="2292" cy="972" r="5"/><circle cx="2364" cy="981" r="6"/><circle cx="2469" cy="990" r="6"/><circle cx="2519" cy="1028" r="4"/><circle cx="62" cy="1047" r="6"/><circle cx="93" cy="1055" r="4"/><circle cx="239" cy="1095" r="5"/><circle cx="306" cy="1083" r="6"/><circle cx="327" cy="1086" r="5"/><circle cx="435" cy="1099" r="4"/><circle cx="545" cy="1097" r="6"/><circle cx="628" cy="1101" r="5"/><circle cx="657" cy="1114" r="5"/><circle cx="775" cy="1070" r="5"/><circle cx="800" cy="1107" r="6"/><circle cx="941" cy="1060" r="4"/><circle cx="1040" cy="1067" r="5"/><circle cx="1087" cy="1111" r="5"/><circle cx="1192" cy="1072" r="4"/><circle cx="1261" cy="1115" r="5"/><circle cx="1352" cy="1043" r="5"/><circle cx="1374" cy="1088" r="5"/><circle cx="1459" cy="1074" r="4"/><circle cx="1551" cy="1042" r="4"/><circle cx="1615" cy="1118" r="5"/><circle cx="1725" cy="1064" r="5"/><circle cx="1796" cy="1101" r="5"/><circle cx="1862" cy="1050" r="6"/><circle cx="1960" cy="1087" r="5"/><circle cx="2029" cy="1057" r="5"/><circle cx="2116" cy="1075" r="5"/><circle cx="2237" cy="1076" r="4"/><circle cx="2248" cy="1112" r="5"/><circle cx="2323" cy="1088" r="6"/><circle cx="2471" cy="1052" r="4"/><circle cx="2509" cy="1052" r="4"/><circle cx="41" cy="1181" r="4"/><circle cx="102" cy="1155" r="6"/><circle cx="225" cy="1122" r="4"/><circle cx="303" cy="1157" r="5"/><circle cx="376" cy="1122" r="6"/><circle cx="403" cy="1174" r="5"/><circle cx="526" cy="1149" r="6"/><circle cx="605" cy="1157" r="5"/><circle cx="671" cy="1164" r="5"/><circle cx="789" cy="1188" r="5"/><circle cx="871" cy="1130" r="6"/><circle cx="956" cy="1136" r="6"/><circle cx="1030" cy="1186" r="5"/><circle cx="1048" cy="1180" r="5"/><circle cx="1196" cy="1199" r="5"/><circle cx="1270" cy="1197" r="4"/><circle cx="1358" cy="1166" r="5"/><circle cx="1411" cy="1191" r="6"/><circle cx="1486" cy="1163" r="6"/><circle cx="1560" cy="1176" r="5"/><circle cx="1653" cy="1152" r="5"/><circle cx="1740" cy="1199" r="4"/><circle cx="1762" cy="1194" r="5"/><circle cx="1894" cy="1145" r="6"/><circle cx="1956" cy="1154" r="5"/><circle cx="2004" cy="1171" r="5"/><circle cx="2109" cy="1144" r="6"/><circle cx="2234" cy="1190" r="5"/><circle cx="2292" cy="1143" r="5"/><circle cx="2362" cy="1174" r="5"/><circle cx="2451" cy="1199" r="6"/><circle cx="2485" cy="1142" r="4"/><circle cx="36" cy="1224" r="4"/><circle cx="106" cy="1274" r="6"/><circle cx="189" cy="1204" r="5"/><circle cx="292" cy="1255" r="6"/><circle cx="377" cy="1257" r="5"/><circle cx="451" cy="1267" r="5"/><circle cx="485" cy="1250" r="5"/><circle cx="609" cy="1227" r="6"/><circle cx="653" cy="1216" r="6"/><circle cx="772" cy="1272" r="6"/><circle cx="865" cy="1240" r="5"/><circle cx="931" cy="1208" r="4"/><circle cx="1021" cy="1216" r="6"/><circle cx="1055" cy="1243" r="4"/><circle cx="1189" cy="1200" r="4"/><circle cx="1256" cy="1209" r="4"/><circle cx="1287" cy="1277" r="4"/><circle cx="1375" cy="1248" r="5"/><circle cx="1475" cy="1212" r="5"/><circle cx="1581" cy="1277" r="5"/><circle cx="1615" cy="1253" r="5"/><circle cx="1755" cy="1258" r="6"/><circle cx="1790" cy="1275" r="5"/><circle cx="1895" cy="1242" r="4"/><circle cx="1986" cy="1247" r="4"/><circle cx="2062" cy="1279" r="5"/><circle cx="2131" cy="1230" r="4"/><circle cx="2184" cy="1237" r="5"/><circle cx="2271" cy="1242" r="4"/><circle cx="2398" cy="1275" r="6"/><circle cx="2437" cy="1214" r="4"/><circle cx="2501" cy="1211" r="5"/><circle cx="40" cy="1349" r="6"/><circle cx="105" cy="1301" r="5"/><circle cx="181" cy="1324" r="5"/><circle cx="281" cy="1302" r="5"/><circle cx="345" cy="1360" r="6"/><circle cx="453" cy="1280" r="5"/><circle cx="511" cy="1322" r="4"/><circle cx="600" cy="1350" r="6"/><circle cx="688" cy="1301" r="5"/><circle cx="725" cy="1360" r="4"/><circle cx="865" cy="1291" r="6"/><circle cx="935" cy="1357" r="6"/><circle cx="966" cy="1335" r="5"/><circle cx="1061" cy="1295" r="4"/><circle cx="1155" cy="1304" r="5"/><circle cx="1205" cy="1303" r="6"/><circle cx="1318" cy="1342" r="4"/><circle cx="1408" cy="1289" r="5"/><circle cx="1444" cy="1327" r="6"/><circle cx="1520" cy="1286" r="6"/><circle cx="1609" cy="1296" r="5"/><circle cx="1742" cy="1344" r="5"/><circle cx="1809" cy="1322" r="4"/><circle cx="1867" cy="1296" r="5"/><circle cx="1940" cy="1289" r="5"/><circle cx="2055" cy="1288" r="5"/><circle cx="2089" cy="1286" r="4"/><circle cx="2227" cy="1329" r="5"/><circle cx="2285" cy="1347" r="6"/><circle cx="2394" cy="1305" r="5"/><circle cx="2417" cy="1344" r="6"/><circle cx="2536" cy="1285" r="5"/><circle cx="79" cy="1425" r="5"/><circle cx="157" cy="1391" r="4"/><circle cx="230" cy="1386" r="5"/><circle cx="307" cy="1374" r="4"/><circle cx="394" cy="1375" r="6"/><circle cx="421" cy="1370" r="4"/><circle cx="522" cy="1397" r="4"/><circle cx="587" cy="1394" r="5"/><circle cx="707" cy="1367" r="5"/><circle cx="744" cy="1432" r="6"/><circle cx="809" cy="1420" r="5"/><circle cx="928" cy="1395" r="5"/><circle cx="991" cy="1432" r="5"/><circle cx="1069" cy="1371" r="5"/><circle cx="1124" cy="1426" r="5"/><circle cx="1215" cy="1434" r="5"/><circle cx="1339" cy="1427" r="6"/><circle cx="1382" cy="1402" r="5"/><circle cx="1442" cy="1418" r="5"/><circle cx="1590" cy="1433" r="5"/><circle cx="1658" cy="1437" r="5"/><circle cx="1658" cy="-3" r="5"/><circle cx="1695" cy="1376" r="5"/><circle cx="1766" cy="1394" r="5"/><circle cx="1869" cy="1369" r="4"/><circle cx="1993" cy="1361" r="5"/><circle cx="2063" cy="1365" r="5"/><circle cx="2113" cy="1434" r="4"/><circle cx="2162" cy="1423" r="4"/><circle cx="2242" cy="1383" r="6"/><circle cx="2376" cy="1406" r="5"/><circle cx="2424" cy="1379" r="5"/><circle cx="2553" cy="1419" r="6"/><path stroke="#fff" d="M37 0L-8 71M37 0L12 99M37 0L79 -15M37 0L-7 -21M2597 0L2552 71M2597 0L2553 -21M37 1440L79 1425M37 1440L-7 1419M2597 1440L2553 1419M151 63L164 53M151 63L133 106M151 63L159 170M151 63L79 -15M151 1503L79 1425M164 53L133 106M164 53L234 127M164 53L157 -49M164 1493L157 1391M293 6L377 21M293 6L343 87M293 6L345 -80M293 6L230 -54M293 6L307 -66M293 1446L345 1360M293 1446L230 1386M293 1446L307 1374M377 21L426 69M377 21L343 87M377 21L394 -65M377 1461L394 1375M426 69L525 50M426 69L343 87M426 69L402 154M426 69L489 121M525 50L562 15M525 50L489 121M525 50L522 -43M525 1490L522 1397M562 15L655 1M562 15L522 -43M562 15L587 -46M562 1455L522 1397M562 1455L587 1394M655 1L600 -90M655 1L587 -46M655 1L707 -73M655 1L744 -8M655 1441L600 1350M655 1441L587 1394M655 1441L707 1367M655 1441L744 1432M745 54L777 91M745 54L744 -8M745 54L809 -20M745 1494L744 1432M745 1494L809 1420M879 43L950 15M879 43L860 119M879 43L809 -20M879 43L928 -45M879 1483L809 1420M879 1483L928 1395M950 15L980 78M950 15L935 -83M950 15L928 -45M950 15L991 -8M950 1455L935 1357M950 1455L928 1395M950 1455L991 1432M980 78L934 138M980 78L971 133M980 78L1049 143M980 78L991 -8M980 1518L991 1432M1065 27L1133 118M1065 27L991 -8M1065 27L1069 -69M1065 27L1124 -14M1065 1467L991 1432M1065 1467L1069 1371M1065 1467L1124 1426M1178 45L1262 70M1178 45L1133 118M1178 45L1124 -14M1178 45L1215 -6M1178 1485L1124 1426M1178 1485L1215 1434M1262 70L1311 5M1262 70L1265 83M1262 70L1215 -6M1262 1510L1215 1434M1311 5L1265 83M1311 5L1215 -6M1311 5L1339 -13M1311 5L1382 -38M1311 1445L1215 1434M1311 1445L1339 1427M1311 1445L1382 1402M1427 24L1490 12M1427 24L1500 85M1427 24L1339 -13M1427 24L1382 -38M1427 24L1442 -22M1427 1464L1339 1427M1427 1464L1382 1402M1427 1464L1442 1418M1490 12L1500 85M1490 12L1442 -22M1490 12L1590 -7M1490 1452L1442 1418M1490 1452L1590 1433M1568 79L1500 85M1568 79L1582 88M1568 79L1604 138M1568 79L1601 167M1568 79L1590 -7M1568 1519L1590 1433M1652 19L1754 67M1652 19L1582 88M1652 19L1590 -7M1652 19L1658 -3M1652 19L1695 -64M1652 1459L1590 1433M1652 1459L1658 1437M1652 1459L1695 1376M1754 67L1825 20M1754 67L1810 85M1825 20L1876 39M1825 20L1810 85M1825 20L1868 88M1825 20L1766 -46M1825 1460L1766 1394M1876 39L1968 75M1876 39L1810 85M1876 39L1868 88M1876 39L1869 -71M1876 1479L1869 1369M1968 75L2038 18M1968 75L1868 88M1968 75L1950 158M1968 75L2063 105M2038 18L2088 27M2038 18L2063 105M2038 18L2113 -6M2038 1458L2113 1434M2088 27L2063 105M2088 27L2135 89M2088 27L2113 -6M2088 27L2162 -17M2088 1467L2113 1434M2088 1467L2162 1423M2186 37L2282 72M2186 37L2135 89M2186 37L2113 -6M2186 37L2162 -17M2186 37L2242 -57M2186 1477L2113 1434M2186 1477L2162 1423M2186 1477L2242 1383M2282 72L2327 67M2282 72L2209 154M2282 72L2304 145M2282 72L2362 90M2327 67L2406 55M2327 67L2304 145M2327 67L2362 90M2406 55L2362 90M2406 55L2376 -34M2406 55L2424 -61M2406 1495L2376 1406M2406 1495L2424 1379M2552 71L2572 99M2552 71L2505 135M2552 71L2553 -21M-8 71L12 99M2552 1511L2553 1419M12 99L-55 135M12 99L-7 -21M2572 99L2505 135M2572 99L2553 -21M12 1539L-7 1419M2572 1539L2553 1419M133 106L234 127M133 106L159 170M234 127L298 122M234 127L159 170M234 127L219 210M298 122L343 87M298 122L312 222M298 122L344 187M343 87L402 154M402 154L489 121M402 154L344 187M402 154L453 212M489 121L522 180M489 121L564 167M619 129L646 141M619 129L522 180M619 129L564 167M646 141L564 167M646 141L715 210M646 141L734 211M646 141L618 268M777 91L860 119M777 91L800 164M777 91L809 -20M777 1531L809 1420M860 119L934 138M860 119L800 164M860 119L899 182M934 138L971 133M934 138L899 182M934 138L968 177M971 133L1049 143M971 133L899 182M971 133L968 177M1049 143L1133 118M1049 143L968 177M1049 143L1083 168M1133 118L1083 168M1133 118L1153 208M1265 83L1340 133M1265 83L1280 184M1265 83L1215 -6M1265 1523L1215 1434M1340 133L1381 137M1340 133L1280 184M1340 133L1318 175M1340 133L1382 190M1381 137L1280 184M1381 137L1318 175M1381 137L1382 190M1381 137L1453 176M1500 85L1582 88M1500 85L1453 176M1582 88L1604 138M1582 88L1601 167M1604 138L1698 156M1604 138L1564 231M1604 138L1601 167M1698 156L1695 188M1698 156L1685 242M1810 85L1868 88M1868 88L1883 177M1950 158L1883 177M1950 158L1967 179M2063 105L2135 89M2063 105L2064 189M2135 89L2209 154M2209 154L2304 145M2209 154L2177 205M2209 154L2271 224M2304 145L2362 90M2304 145L2271 224M2362 90L2431 147M2431 147L2505 135M2431 147L2392 204M2431 147L2429 180M2431 147L2491 176M2505 135L2429 180M2505 135L2491 176M60 226L159 170M60 226L4 288M60 226L113 276M159 170L219 210M219 210L237 286M312 222L344 187M312 222L237 286M312 222L309 257M344 187L309 257M344 187L422 251M453 212L522 180M453 212L422 251M453 212L498 255M522 180L564 167M522 180L498 255M564 167L618 268M715 210L734 211M715 210L800 164M715 210L663 276M715 210L799 249M734 211L800 164M734 211L663 276M734 211L799 249M800 164L799 249M899 182L968 177M899 182L874 258M968 177L1018 247M1083 168L1153 208M1083 168L1018 247M1083 168L1059 282M1153 208L1160 280M1153 208L1223 297M1280 184L1318 175M1318 175L1382 190M1318 175L1357 283M1382 190L1453 176M1382 190L1429 249M1453 176L1429 249M1564 231L1601 167M1564 231L1586 298M1564 231L1638 251M1601 167L1638 251M1695 188L1685 242M1833 238L1883 177M1833 238L1765 301M1833 238L1881 314M1833 238L1769 333M1883 177L1967 179M1883 177L1947 275M1967 179L2064 189M1967 179L1947 275M2064 189L2082 231M2064 189L2041 255M2082 231L2177 205M2082 231L2041 255M2082 231L2087 295M2271 224L2238 303M2271 224L2249 308M2271 224L2342 288M2392 204L2429 180M2392 204L2491 176M2392 204L2342 288M2429 180L2491 176M2429 180L2484 249M2491 176L2484 249M4 288L-100 284M4 288L-76 249M4 288L72 357M4 288L-37 337M2564 288L2460 284M2564 288L2484 249M2564 288L2523 337M113 276L72 357M113 276L124 366M237 286L309 257M237 286L215 364M309 257L369 308M309 257L370 335M369 308L422 251M369 308L294 381M369 308L370 335M369 308L446 352M422 251L498 255M618 268L663 276M618 268L582 377M663 276L729 340M799 249L874 258M874 258L951 303M951 303L1018 247M951 303L944 399M951 303L994 343M1018 247L1059 282M1018 247L994 343M1059 282L1160 280M1059 282L994 343M1059 282L1118 374M1160 280L1223 297M1160 280L1118 374M1160 280L1202 364M1223 297L1182 392M1223 297L1202 364M1357 283L1429 249M1357 283L1458 292M1357 283L1337 345M1429 249L1458 292M1429 249L1469 347M1458 292L1469 347M1586 298L1638 251M1586 298L1593 367M1586 298L1655 325M1638 251L1685 242M1638 251L1655 325M1685 242L1765 301M1685 242L1655 325M1765 301L1717 387M1765 301L1769 333M1881 314L1947 275M1881 314L1769 333M1881 314L1865 378M1881 314L1934 414M1947 275L2041 255M1947 275L1994 325M2041 255L2087 295M2041 255L1994 325M2087 295L1994 325M2087 295L2062 366M2087 295L2159 334M2238 303L2249 308M2238 303L2159 334M2238 303L2214 325M2238 303L2248 360M2249 308L2159 334M2249 308L2214 325M2249 308L2248 360M2342 288L2383 355M2342 288L2410 357M2460 284L2484 249M2460 284L2383 355M2460 284L2410 357M2460 284L2523 337M2484 249L2523 337M72 357L124 366M72 357L27 436M72 357L85 433M124 366L215 364M124 366L85 433M215 364L294 381M215 364L214 443M294 381L370 335M294 381L214 443M294 381L310 437M370 335L446 352M370 335L416 419M446 352L482 391M446 352L416 419M446 352L516 405M482 391L582 377M482 391L373 445M482 391L416 419M482 391L516 405M582 377L516 405M582 377L621 409M704 381L729 340M704 381L621 409M704 381L707 436M704 381L745 413M729 340L803 372M729 340L745 413M729 340L801 411M803 372L745 413M803 372L801 411M803 372L893 406M944 399L994 343M944 399L893 406M944 399L980 472M944 399L936 503M1118 374L1182 392M1118 374L1202 364M1118 374L1122 422M1182 392L1202 364M1182 392L1122 422M1182 392L1216 461M1202 364L1216 461M1337 345L1407 386M1337 345L1300 408M1407 386L1469 347M1407 386L1418 454M1407 386L1476 413M1407 386L1431 485M1469 347L1476 413M1593 367L1655 325M1593 367L1571 435M1593 367L1607 429M1655 325L1717 387M1717 387L1769 333M1717 387L1680 477M1769 333L1865 378M1865 378L1826 462M1865 378L1866 469M1865 378L1934 414M1994 325L2062 366M1994 325L1934 414M2062 366L2066 447M2062 366L2156 402M2159 334L2214 325M2159 334L2156 402M2214 325L2248 360M2383 355L2410 357M2410 357L2455 462M2523 337L2498 411M27 436L85 433M27 436L-62 411M27 436L31 545M2587 436L2498 411M85 433L162 488M214 443L310 437M214 443L162 488M214 443L244 490M310 437L373 445M310 437L244 490M373 445L416 419M373 445L434 505M416 419L434 505M516 405L621 409M621 409L707 436M707 436L745 413M707 436L801 411M707 436L750 508M745 413L801 411M801 411L893 406M980 472L1056 476M980 472L936 503M980 472L1001 558M1056 476L1122 422M1056 476L1001 558M1056 476L1099 510M1122 422L1099 510M1216 461L1300 408M1216 461L1159 518M1216 461L1251 517M1300 408L1251 517M1418 454L1476 413M1418 454L1431 485M1476 413L1571 435M1476 413L1431 485M1571 435L1607 429M1571 435L1591 487M1607 429L1680 477M1607 429L1591 487M1607 429L1668 516M1680 477L1591 487M1680 477L1668 516M1680 477L1755 501M1826 462L1866 469M1826 462L1755 501M1826 462L1837 513M1826 462L1843 494M1866 469L1934 414M1866 469L1837 513M1866 469L1843 494M2066 447L2156 402M2066 447L2024 497M2066 447L2130 490M2156 402L2200 477M2156 402L2130 490M2200 477L2130 490M2200 477L2201 484M2200 477L2284 540M2200 477L2203 567M2315 466L2329 455M2315 466L2201 484M2315 466L2284 540M2315 466L2348 526M2329 455L2348 526M2455 462L2498 411M2455 462L2438 501M2455 462L2507 509M2498 411L2438 501M2498 411L2507 509M31 545L111 536M31 545L-53 509M31 545L33 568M31 545L-1 629M2591 545L2507 509M2591 545L2559 629M111 536L162 488M111 536L33 568M111 536L159 592M111 536L166 561M162 488L244 490M162 488L166 561M244 490L323 548M244 490L166 561M323 548L270 607M323 548L422 594M434 505L540 558M434 505L422 594M540 558L586 520M540 558L548 629M540 558L569 633M708 546L750 508M708 546L685 621M708 546L792 573M750 508L856 505M750 508L792 573M750 508L826 583M856 505L936 503M856 505L792 573M856 505L826 583M856 505L928 576M936 503L1001 558M936 503L928 576M1001 558L928 576M1001 558L1022 602M1099 510L1159 518M1099 510L1109 567M1099 510L1145 580M1159 518L1251 517M1159 518L1109 567M1159 518L1145 580M1251 517L1293 550M1251 517L1272 603M1293 550L1272 603M1293 550L1339 627M1293 550L1249 643M1431 485L1476 560M1431 485L1406 589M1476 560L1406 589M1476 560L1502 632M1591 487L1668 516M1668 516L1755 501M1668 516L1627 609M1755 501L1837 513M1755 501L1760 591M1837 513L1843 494M1837 513L1821 584M1843 494L1821 584M1970 560L2024 497M1970 560L1911 605M1970 560L1960 588M1970 560L2050 612M1970 560L2066 644M2024 497L1960 588M2130 490L2201 484M2201 484L2203 567M2284 540L2348 526M2284 540L2203 567M2284 540L2300 586M2348 526L2438 501M2348 526L2300 586M2438 501L2507 509M2438 501L2439 614M2507 509L2593 568M-53 509L33 568M33 568L-1 629M2593 568L2559 629M159 592L166 561M270 607L381 624M270 607L240 714M270 607L301 671M381 624L422 594M381 624L301 671M381 624L330 688M381 624L450 675M422 594L450 675M548 629L569 633M548 629L550 679M548 629L567 722M569 633L550 679M569 633L622 693M569 633L567 722M685 621L622 693M685 621L702 708M792 573L826 583M792 573L826 663M826 583L826 663M928 576L1022 602M928 576L910 653M1022 602L1109 567M1022 602L977 683M1022 602L1097 685M1109 567L1145 580M1145 580L1097 685M1145 580L1191 643M1272 603L1339 627M1272 603L1249 643M1272 603L1320 679M1339 627L1406 589M1339 627L1320 679M1339 627L1418 652M1406 589L1418 652M1502 632L1549 636M1502 632L1418 652M1502 632L1468 706M1502 632L1549 678M1549 636L1627 609M1549 636L1549 678M1549 636L1622 661M1627 609L1622 661M1627 609L1685 672M1760 591L1821 584M1760 591L1685 672M1760 591L1815 683M1760 591L1841 669M1821 584L1911 605M1821 584L1841 669M1911 605L1960 588M1911 605L1841 669M1960 588L2050 612M2050 612L2066 644M2050 612L2096 653M2158 610L2203 567M2158 610L2066 644M2158 610L2096 653M2158 610L2229 706M2158 610L2255 647M2203 567L2255 647M2300 586L2382 629M2300 586L2255 647M2300 586L2385 648M2382 629L2439 614M2382 629L2385 648M2382 629L2476 649M2439 614L2385 648M2439 614L2476 649M2559 629L2572 701M2559 629L2476 649M2559 629L2520 702M-1 629L12 701M12 701L-40 702M12 701L12 792M12 701L-6 771M2572 701L2520 702M2572 701L2554 771M129 718L131 748M129 718L181 760M240 714L301 671M240 714L330 688M240 714L181 760M240 714L259 810M301 671L330 688M301 671L383 750M330 688L319 777M330 688L383 750M450 675L383 750M450 675L497 734M550 679L622 693M550 679L497 734M550 679L567 722M622 693L702 708M622 693L567 722M702 708L785 704M702 708L695 794M785 704L826 663M785 704L776 797M785 704L868 743M826 663L910 653M826 663L868 743M910 653L977 683M910 653L868 743M910 653L907 775M977 683L907 775M977 683L1035 780M1097 685L1191 643M1097 685L1099 724M1191 643L1249 643M1191 643L1222 752M1249 643L1320 679M1249 643L1222 752M1320 679L1418 652M1418 652L1468 706M1468 706L1549 678M1468 706L1444 780M1549 678L1622 661M1549 678L1606 752M1622 661L1685 672M1622 661L1606 752M1685 672L1708 742M1815 683L1841 669M1815 683L1708 742M1815 683L1803 722M1841 669L1803 722M1945 714L1957 774M1945 714L2013 786M2066 644L2096 653M2229 706L2255 647M2229 706L2149 777M2229 706L2216 785M2229 706L2303 747M2255 647L2303 747M2385 648L2476 649M2476 649L2520 702M2520 702L2469 774M2520 702L2554 771M12 792L-91 774M12 792L-6 771M12 792L51 873M12 792L-15 810M2572 792L2469 774M2572 792L2554 771M2572 792L2545 810M131 748L181 760M131 748L137 870M181 760L259 810M319 777L383 750M319 777L426 775M319 777L259 810M319 777L340 864M383 750L426 775M426 775L497 734M426 775L468 845M426 775L505 844M497 734L567 722M695 794L776 797M695 794L608 813M695 794L666 864M695 794L769 838M776 797L769 838M776 797L807 862M868 743L907 775M868 743L924 803M907 775L924 803M907 775L921 882M1035 780L1099 724M1035 780L1012 829M1035 780L1054 809M1035 780L1122 850M1099 724L1167 772M1099 724L1054 809M1167 772L1222 752M1167 772L1054 809M1167 772L1122 850M1222 752L1236 869M1222 752L1303 833M1357 781L1419 791M1357 781L1444 780M1357 781L1303 833M1357 781L1449 806M1419 791L1444 780M1419 791L1430 846M1419 791L1449 806M1444 780L1430 846M1444 780L1449 806M1583 792L1606 752M1583 792L1708 742M1583 792L1536 824M1583 792L1645 869M1606 752L1708 742M1606 752L1536 824M1708 742L1803 722M1803 722L1872 793M1872 793L1907 817M1872 793L1917 881M1957 774L2013 786M1957 774L1907 817M1957 774L1974 801M1957 774L2021 821M2013 786L1974 801M2013 786L2021 821M2013 786L2092 824M2149 777L2216 785M2149 777L2092 824M2216 785L2303 747M2216 785L2233 879M2216 785L2269 805M2303 747L2359 796M2303 747L2269 805M2359 796L2269 805M2359 796L2337 870M2359 796L2404 841M2469 774L2554 771M2469 774L2404 841M2469 774L2545 810M2554 771L2545 810M51 873L137 870M51 873L-15 810M51 873L16 951M51 873L121 906M2611 873L2545 810M137 870L225 868M137 870L121 906M137 870L189 906M225 868L259 810M225 868L189 906M225 868L257 885M259 810L257 885M340 864L257 885M340 864L367 959M340 864L309 969M468 845L505 844M468 845L456 897M468 845L533 909M468 845L566 881M505 844L456 897M505 844L533 909M505 844L566 881M608 813L666 864M608 813L566 881M666 864L566 881M666 864L668 943M666 864L723 925M769 838L807 862M769 838L723 925M807 862L838 937M924 803L1012 829M924 803L921 882M1012 829L1054 809M1012 829L921 882M1054 809L1122 850M1122 850L1083 943M1122 850L1179 936M1236 869L1303 833M1236 869L1179 936M1236 869L1256 881M1236 869L1345 884M1303 833L1256 881M1303 833L1345 884M1430 846L1449 806M1430 846L1345 884M1430 846L1504 903M1449 806L1536 824M1536 824L1504 903M1536 824L1539 929M1645 869L1712 872M1645 869L1614 915M1645 869L1695 904M1712 872L1780 873M1712 872L1614 915M1712 872L1695 904M1712 872L1727 976M1780 873L1695 904M1780 873L1839 943M1907 817L1974 801M1907 817L1917 881M1907 817L1961 898M1974 801L2021 821M2021 821L2092 824M2021 821L1961 898M2092 824L2062 921M2233 879L2269 805M2233 879L2201 942M2233 879L2297 907M2269 805L2337 870M2337 870L2404 841M2337 870L2297 907M2337 870L2357 908M2404 841L2357 908M2404 841L2471 933M16 951L-20 958M16 951L43 983M16 951L62 1047M2576 951L2540 958M121 906L189 906M121 906L138 1005M189 906L257 885M189 906L181 1001M257 885L309 969M367 959L309 969M367 959L399 1023M367 959L465 995M456 897L533 909M456 897L465 995M456 897L501 971M533 909L566 881M533 909L501 971M668 943L723 925M668 943L629 969M668 943L660 1023M668 943L763 987M723 925L629 969M723 925L763 987M838 937L921 882M838 937L763 987M838 937L881 1026M921 882L1023 944M1023 944L1083 943M1023 944L984 993M1083 943L1179 936M1083 943L1054 1035M1083 943L1131 1030M1179 936L1202 1019M1256 881L1345 884M1345 884L1368 943M1368 943L1357 1039M1368 943L1367 1033M1368 943L1454 961M1368 943L1352 1043M1504 903L1539 929M1504 903L1454 961M1539 929L1614 915M1539 929L1454 961M1539 929L1570 1015M1614 915L1695 904M1614 915L1621 1011M1695 904L1727 976M1839 943L1917 881M1839 943L1838 986M1839 943L1885 963M1839 943L1862 1050M1917 881L1961 898M1917 881L1885 963M1961 898L1948 980M2062 921L2081 953M2062 921L2151 1002M2081 953L2009 1025M2081 953L2151 1002M2081 953L2162 1001M2081 953L2029 1057M2201 942L2151 1002M2201 942L2162 1001M2201 942L2292 972M2297 907L2357 908M2297 907L2292 972M2297 907L2364 981M2357 908L2292 972M2357 908L2364 981M2471 933L2540 958M2471 933L2469 990M2540 958L2603 983M2540 958L2469 990M2540 958L2519 1028M-20 958L43 983M43 983L138 1005M43 983L62 1047M43 983L93 1055M138 1005L181 1001M138 1005L62 1047M138 1005L93 1055M181 1001L93 1055M181 1001L239 1095M309 969L399 1023M399 1023L465 995M399 1023L435 1099M465 995L501 971M629 969L660 1023M660 1023L628 1101M660 1023L657 1114M763 987L816 1037M763 987L775 1070M816 1037L881 1026M816 1037L775 1070M816 1037L800 1107M881 1026L800 1107M881 1026L941 1060M984 993L1054 1035M984 993L941 1060M984 993L1040 1067M1054 1035L1131 1030M1054 1035L1040 1067M1054 1035L1087 1111M1131 1030L1202 1019M1131 1030L1087 1111M1131 1030L1192 1072M1202 1019L1192 1072M1202 1019L1261 1115M1357 1039L1367 1033M1357 1039L1352 1043M1357 1039L1374 1088M1357 1039L1459 1074M1367 1033L1352 1043M1367 1033L1374 1088M1367 1033L1459 1074M1570 1015L1621 1011M1570 1015L1551 1042M1570 1015L1615 1118M1621 1011L1727 976M1621 1011L1551 1042M1621 1011L1615 1118M1727 976L1838 986M1727 976L1725 1064M1838 986L1885 963M1838 986L1948 980M1838 986L1862 1050M1885 963L1948 980M1885 963L1862 1050M1948 980L2009 1025M2009 1025L1960 1087M2009 1025L2029 1057M2009 1025L2116 1075M2151 1002L2162 1001M2151 1002L2116 1075M2162 1001L2116 1075M2162 1001L2237 1076M2292 972L2364 981M2364 981L2323 1088M2469 990L2519 1028M2469 990L2471 1052M2469 990L2509 1052M2519 1028L2471 1052M2519 1028L2509 1052M62 1047L93 1055M62 1047L102 1155M93 1055L102 1155M239 1095L306 1083M239 1095L327 1086M239 1095L225 1122M239 1095L303 1157M306 1083L327 1086M306 1083L225 1122M306 1083L303 1157M306 1083L376 1122M327 1086L225 1122M327 1086L303 1157M327 1086L376 1122M435 1099L545 1097M435 1099L376 1122M435 1099L403 1174M435 1099L526 1149M545 1097L628 1101M545 1097L526 1149M628 1101L657 1114M628 1101L605 1157M628 1101L671 1164M657 1114L605 1157M657 1114L671 1164M657 1114L653 1216M775 1070L800 1107M800 1107L789 1188M800 1107L871 1130M941 1060L1040 1067M941 1060L871 1130M941 1060L956 1136M1040 1067L1087 1111M1087 1111L1030 1186M1087 1111L1048 1180M1192 1072L1261 1115M1261 1115L1196 1199M1261 1115L1270 1197M1352 1043L1374 1088M1374 1088L1459 1074M1374 1088L1358 1166M1459 1074L1551 1042M1459 1074L1486 1163M1551 1042L1615 1118M1615 1118L1560 1176M1615 1118L1653 1152M1725 1064L1796 1101M1725 1064L1653 1152M1796 1101L1862 1050M1796 1101L1740 1199M1796 1101L1762 1194M1796 1101L1894 1145M1862 1050L1894 1145M1960 1087L2029 1057M1960 1087L1894 1145M1960 1087L1956 1154M1960 1087L2004 1171M2029 1057L2116 1075M2029 1057L2109 1144M2116 1075L2109 1144M2237 1076L2248 1112M2237 1076L2323 1088M2237 1076L2292 1143M2248 1112L2323 1088M2248 1112L2234 1190M2248 1112L2292 1143M2323 1088L2292 1143M2323 1088L2362 1174M2471 1052L2509 1052M2471 1052L2485 1142M2509 1052L2485 1142M41 1181L102 1155M41 1181L36 1224M102 1155L36 1224M102 1155L189 1204M225 1122L303 1157M225 1122L189 1204M303 1157L376 1122M376 1122L403 1174M403 1174L377 1257M403 1174L451 1267M403 1174L485 1250M526 1149L485 1250M526 1149L609 1227M605 1157L671 1164M605 1157L609 1227M605 1157L653 1216M671 1164L609 1227M671 1164L653 1216M789 1188L871 1130M789 1188L772 1272M789 1188L865 1240M871 1130L956 1136M871 1130L931 1208M956 1136L1030 1186M956 1136L931 1208M956 1136L1021 1216M1030 1186L1048 1180M1030 1186L1021 1216M1030 1186L1055 1243M1048 1180L1021 1216M1048 1180L1055 1243M1048 1180L1061 1295M1196 1199L1270 1197M1196 1199L1189 1200M1196 1199L1256 1209M1196 1199L1205 1303M1270 1197L1189 1200M1270 1197L1256 1209M1270 1197L1287 1277M1358 1166L1411 1191M1358 1166L1375 1248M1411 1191L1486 1163M1411 1191L1375 1248M1411 1191L1475 1212M1411 1191L1408 1289M1486 1163L1560 1176M1486 1163L1475 1212M1560 1176L1653 1152M1560 1176L1475 1212M1560 1176L1615 1253M1653 1152L1740 1199M1653 1152L1615 1253M1740 1199L1762 1194M1740 1199L1755 1258M1762 1194L1755 1258M1762 1194L1790 1275M1894 1145L1956 1154M1894 1145L1895 1242M1956 1154L2004 1171M1956 1154L1895 1242M1956 1154L1986 1247M2004 1171L2109 1144M2004 1171L1986 1247M2109 1144L2131 1230M2109 1144L2184 1237M2234 1190L2292 1143M2234 1190L2184 1237M2234 1190L2271 1242M2292 1143L2362 1174M2362 1174L2451 1199M2362 1174L2398 1275M2362 1174L2437 1214M2451 1199L2485 1142M2451 1199L2398 1275M2451 1199L2437 1214M2451 1199L2501 1211M2485 1142L2437 1214M2485 1142L2501 1211M36 1224L106 1274M36 1224L-59 1211M36 1224L-24 1285M2596 1224L2501 1211M2596 1224L2536 1285M106 1274L189 1204M106 1274L40 1349M106 1274L105 1301M106 1274L181 1324M189 1204L292 1255M292 1255L377 1257M292 1255L281 1302M377 1257L451 1267M377 1257L453 1280M451 1267L485 1250M451 1267L453 1280M451 1267L511 1322M485 1250L453 1280M485 1250L511 1322M609 1227L653 1216M653 1216L688 1301M772 1272L865 1240M772 1272L688 1301M772 1272L725 1360M772 1272L865 1291M865 1240L931 1208M865 1240L865 1291M931 1208L865 1291M1021 1216L1055 1243M1021 1216L1061 1295M1055 1243L1061 1295M1189 1200L1256 1209M1189 1200L1155 1304M1189 1200L1205 1303M1256 1209L1287 1277M1256 1209L1205 1303M1287 1277L1375 1248M1287 1277L1205 1303M1287 1277L1318 1342M1375 1248L1408 1289M1375 1248L1444 1327M1475 1212L1408 1289M1475 1212L1520 1286M1581 1277L1615 1253M1581 1277L1520 1286M1581 1277L1609 1296M1615 1253L1520 1286M1615 1253L1609 1296M1755 1258L1790 1275M1755 1258L1742 1344M1755 1258L1809 1322M1790 1275L1742 1344M1790 1275L1809 1322M1790 1275L1867 1296M1895 1242L1867 1296M1895 1242L1940 1289M1986 1247L2062 1279M1986 1247L1940 1289M1986 1247L2055 1288M2062 1279L2131 1230M2062 1279L2055 1288M2062 1279L2089 1286M2062 1279L2063 1365M2131 1230L2184 1237M2131 1230L2089 1286M2184 1237L2271 1242M2184 1237L2227 1329M2271 1242L2227 1329M2271 1242L2285 1347M2398 1275L2437 1214M2398 1275L2394 1305M2398 1275L2417 1344M2437 1214L2501 1211M2501 1211L2536 1285M40 1349L105 1301M40 1349L-24 1285M40 1349L79 1425M40 1349L-7 1419M2600 1349L2536 1285M2600 1349L2553 1419M105 1301L181 1324M105 1301L157 1391M181 1324L281 1302M181 1324L157 1391M181 1324L230 1386M281 1302L345 1360M281 1302L230 1386M281 1302L307 1374M345 1360L307 1374M345 1360L394 1375M345 1360L421 1370M453 1280L511 1322M453 1280L394 1375M511 1322L600 1350M511 1322L522 1397M600 1350L688 1301M600 1350L522 1397M600 1350L587 1394M688 1301L725 1360M688 1301L707 1367M725 1360L707 1367M725 1360L744 1432M865 1291L935 1357M865 1291L966 1335M935 1357L966 1335M935 1357L928 1395M935 1357L991 1432M966 1335L928 1395M966 1335L1069 1371M1061 1295L1155 1304M1061 1295L1069 1371M1155 1304L1205 1303M1155 1304L1069 1371M1155 1304L1124 1426M1318 1342L1339 1427M1408 1289L1444 1327M1444 1327L1520 1286M1444 1327L1382 1402M1444 1327L1442 1418M1520 1286L1609 1296M1609 1296L1695 1376M1742 1344L1809 1322M1742 1344L1695 1376M1742 1344L1766 1394M1809 1322L1867 1296M1809 1322L1766 1394M1867 1296L1940 1289M1867 1296L1869 1369M1940 1289L1993 1361M2055 1288L2089 1286M2055 1288L1993 1361M2055 1288L2063 1365M2089 1286L2063 1365M2227 1329L2285 1347M2227 1329L2162 1423M2227 1329L2242 1383M2285 1347L2394 1305M2285 1347L2242 1383M2285 1347L2376 1406M2394 1305L2417 1344M2394 1305L2376 1406M2394 1305L2424 1379M2417 1344L2536 1285M2417 1344L2376 1406M2417 1344L2424 1379M79 1425L157 1391M79 1425L-7 1419M2639 1425L2553 1419M157 1391L230 1386M230 1386L307 1374M307 1374L394 1375M394 1375L421 1370M522 1397L587 1394M707 1367L744 1432M707 1367L809 1420M744 1432L809 1420M928 1395L991 1432M1069 1371L1124 1426M1124 1426L1215 1434M1339 1427L1382 1402M1339 1427L1442 1418M1382 1402L1442 1418M1590 1433L1658 1437M1658 1437L1695 1376M1695 1376L1766 1394M1766 1394L1869 1369M1993 1361L2063 1365M2063 1365L2113 1434M2113 1434L2162 1423M2162 1423L2242 1383M2376 1406L2424 1379"/></svg>