<svg xmlns="http://www.w3.org/2000/svg" width="2560" height="1440" fill="#fff"><circle cx="68" cy="18" r="5"/><circle cx="160" cy="43" r="4"/><circle cx="178" cy="1" r="5"/><circle cx="178" cy="1441" r="5"/><circle cx="296" cy="18" r="4"/><circle cx="383" cy="30" r="5"/><circle cx="465" cy="30" r="6"/><circle cx="484" cy="75" r="5"/><circle cx="560" cy="35" r="5"/><circle cx="715" cy="43" r="4"/><circle cx="799" cy="15" r="5"/><circle cx="813" cy="32" r="6"/><circle cx="935" cy="59" r="4"/><circle cx="1003" cy="27" r="5"/><circle cx="1063" cy="51" r="4"/><circle cx="1133" cy="80" r="5"/><circle cx="1220" cy="16" r="4"/><circle cx="1308" cy="11" r="5"/><circle cx="1415" cy="6" r="6"/><circle cx="1499" cy="4" r="6"/><circle cx="1499" cy="1444" r="6"/><circle cx="1530" cy="47" r="6"/><circle cx="1601" cy="1" r="5"/><circle cx="1601" cy="1441" r="5"/><circle cx="1681" cy="60" r="5"/><circle cx="1775" cy="61" r="4"/><circle cx="1844" cy="60" r="6"/><circle cx="1938" cy="14" r="4"/><circle cx="2018" cy="70" r="6"/><circle cx="2094" cy="4" r="4"/><circle cx="2094" cy="1444" r="4"/><circle cx="2166" cy="8" r="6"/><circle cx="2286" cy="59" r="5"/><circle cx="2334" cy="46" r="5"/><circle cx="2410" cy="32" r="6"/><circle cx="2523" cy="65" r="5"/><circle cx="47" cy="157" r="6"/><circle cx="89" cy="106" r="5"/><circle cx="171" cy="90" r="4"/><circle cx="251" cy="96" r="6"/><circle cx="320" cy="131" r="4"/><circle cx="443" cy="158" r="5"/><circle cx="540" cy="135" r="5"/><circle cx="623" cy="135" r="6"/><circle cx="672" cy="142" r="5"/><circle cx="770" cy="80" r="6"/><circle cx="878" cy="155" r="6"/><circle cx="907" cy="110" r="4"/><circle cx="1038" cy="138" r="4"/><circle cx="1071" cy="102" r="4"/><circle cx="1173" cy="145" r="6"/><circle cx="1224" cy="95" r="4"/><circle cx="1341" cy="120" r="5"/><circle cx="1415" cy="87" r="5"/><circle cx="1457" cy="121" r="5"/><circle cx="1520" cy="86" r="5"/><circle cx="1624" cy="98" r="6"/><circle cx="1708" cy="137" r="5"/><circle cx="1827" cy="97" r="6"/><circle cx="1853" cy="97" r="6"/><circle cx="1995" cy="127" r="4"/><circle cx="2056" cy="97" r="6"/><circle cx="2155" cy="97" r="5"/><circle cx="2170" cy="157" r="5"/><circle cx="2259" cy="100" r="6"/><circle cx="2398" cy="111" r="4"/><circle cx="2425" cy="137" r="5"/><circle cx="2535" cy="148" r="4"/><circle cx="74" cy="163" r="5"/><circle cx="132" cy="218" r="4"/><circle cx="228" cy="221" r="5"/><circle cx="317" cy="202" r="5"/><circle cx="359" cy="184" r="6"/><circle cx="451" cy="178" r="6"/><circle cx="501" cy="209" r="5"/><circle cx="579" cy="198" r="6"/><circle cx="683" cy="215" r="5"/><circle cx="758" cy="218" r="6"/><circle cx="821" cy="165" r="4"/><circle cx="947" cy="175" r="6"/><circle cx="1003" cy="175" r="5"/><circle cx="1117" cy="209" r="5"/><circle cx="1126" cy="189" r="5"/><circle cx="1233" cy="193" r="6"/><circle cx="1295" cy="203" r="4"/><circle cx="1423" cy="223" r="6"/><circle cx="1464" cy="186" r="5"/><circle cx="1581" cy="192" r="6"/><circle cx="1654" cy="161" r="4"/><circle cx="1683" cy="171" r="5"/><circle cx="1829" cy="213" r="5"/><circle cx="1840" cy="174" r="5"/><circle cx="1966" cy="204" r="6"/><circle cx="2071" cy="213" r="6"/><circle cx="2091" cy="188" r="5"/><circle cx="2239" cy="238" r="5"/><circle cx="2256" cy="212" r="5"/><circle cx="2341" cy="219" r="4"/><circle cx="2477" cy="177" r="6"/><circle cx="2527" cy="170" r="5"/><circle cx="30" cy="275" r="5"/><circle cx="94" cy="306" r="6"/><circle cx="173" cy="248" r="5"/><circle cx="286" cy="292" r="5"/><circle cx="394" cy="252" r="5"/><circle cx="474" cy="270" r="6"/><circle cx="504" cy="256" r="5"/><circle cx="617" cy="262" r="6"/><circle cx="698" cy="286" r="5"/><circle cx="743" cy="282" r="5"/><circle cx="811" cy="253" r="4"/><circle cx="886" cy="248" r="6"/><circle cx="1036" cy="244" r="6"/><circle cx="1092" cy="289" r="6"/><circle cx="1148" cy="264" r="6"/><circle cx="1210" cy="260" r="6"/><circle cx="1296" cy="264" r="5"/><circle cx="1394" cy="272" r="5"/><circle cx="1446" cy="300" r="6"/><circle cx="1521" cy="254" r="5"/><circle cx="1614" cy="314" r="4"/><circle cx="1706" cy="263" r="5"/><circle cx="1768" cy="297" r="5"/><circle cx="1844" cy="276" r="5"/><circle cx="1925" cy="241" r="4"/><circle cx="2033" cy="264" r="4"/><circle cx="2142" cy="245" r="5"/><circle cx="2227" cy="295" r="6"/><circle cx="2317" cy="278" r="4"/><circle cx="2320" cy="256" r="5"/><circle cx="2404" cy="294" r="5"/><circle cx="2500" cy="284" r="5"/><circle cx="23" cy="376" r="5"/><circle cx="136" cy="365" r="6"/><circle cx="233" cy="392" r="6"/><circle cx="273" cy="351" r="5"/><circle cx="391" cy="376" r="4"/><circle cx="436" cy="381" r="6"/><circle cx="484" cy="390" r="4"/><circle cx="614" cy="385" r="5"/><circle cx="705" cy="385" r="6"/><circle cx="767" cy="349" r="6"/><circle cx="819" cy="329" r="6"/><circle cx="928" cy="329" r="5"/><circle cx="986" cy="364" r="6"/><circle cx="1044" cy="400" r="5"/><circle cx="1178" cy="398" r="5"/><circle cx="1210" cy="378" r="5"/><circle cx="1308" cy="384" r="5"/><circle cx="1430" cy="342" r="6"/><circle cx="1466" cy="338" r="4"/><circle cx="1538" cy="363" r="5"/><circle cx="1635" cy="359" r="6"/><circle cx="1714" cy="352" r="6"/><circle cx="1771" cy="357" r="5"/><circle cx="1909" cy="324" r="4"/><circle cx="1992" cy="394" r="5"/><circle cx="2023" cy="331" r="5"/><circle cx="2158" cy="360" r="4"/><circle cx="2177" cy="329" r="6"/><circle cx="2274" cy="343" r="6"/><circle cx="2324" cy="336" r="4"/><circle cx="2436" cy="369" r="5"/><circle cx="2548" cy="395" r="5"/><circle cx="35" cy="452" r="5"/><circle cx="88" cy="438" r="5"/><circle cx="184" cy="430" r="5"/><circle cx="271" cy="453" r="5"/><circle cx="395" cy="409" r="6"/><circle cx="440" cy="422" r="5"/><circle cx="493" cy="459" r="5"/><circle cx="568" cy="415" r="5"/><circle cx="647" cy="406" r="6"/><circle cx="791" cy="440" r="5"/><circle cx="801" cy="474" r="5"/><circle cx="954" cy="404" r="5"/><circle cx="1005" cy="442" r="4"/><circle cx="1101" cy="432" r="6"/><circle cx="1172" cy="436" r="6"/><circle cx="1261" cy="408" r="5"/><circle cx="1303" cy="447" r="6"/><circle cx="1427" cy="465" r="5"/><circle cx="1494" cy="473" r="5"/><circle cx="1565" cy="454" r="4"/><circle cx="1634" cy="441" r="5"/><circle cx="1700" cy="403" r="5"/><circle cx="1769" cy="447" r="5"/><circle cx="1880" cy="455" r="6"/><circle cx="1944" cy="412" r="5"/><circle cx="2060" cy="466" r="6"/><circle cx="2092" cy="436" r="5"/><circle cx="2207" cy="478" r="5"/><circle cx="2304" cy="402" r="5"/><circle cx="2328" cy="418" r="6"/><circle cx="2437" cy="451" r="6"/><circle cx="2517" cy="424" r="5"/><circle cx="27" cy="555" r="5"/><circle cx="149" cy="520" r="5"/><circle cx="169" cy="501" r="4"/><circle cx="293" cy="501" r="5"/><circle cx="346" cy="512" r="5"/><circle cx="470" cy="503" r="6"/><circle cx="490" cy="490" r="5"/><circle cx="602" cy="550" r="4"/><circle cx="707" cy="558" r="5"/><circle cx="743" cy="533" r="5"/><circle cx="813" cy="521" r="5"/><circle cx="944" cy="515" r="5"/><circle cx="1016" cy="512" r="6"/><circle cx="1078" cy="486" r="5"/><circle cx="1152" cy="486" r="5"/><circle cx="1278" cy="488" r="4"/><circle cx="1301" cy="544" r="6"/><circle cx="1438" cy="514" r="5"/><circle cx="1447" cy="485" r="4"/><circle cx="1535" cy="518" r="4"/><circle cx="1622" cy="515" r="5"/><circle cx="1704" cy="553" r="5"/><circle cx="1806" cy="496" r="4"/><circle cx="1840" cy="512" r="5"/><circle cx="1994" cy="515" r="6"/><circle cx="2078" cy="554" r="4"/><circle cx="2145" cy="527" r="6"/><circle cx="2181" cy="538" r="4"/><circle cx="2298" cy="506" r="4"/><circle cx="2360" cy="485" r="6"/><circle cx="2427" cy="535" r="5"/><circle cx="2559" cy="502" r="5"/><circle cx="-1" cy="502" r="5"/><circle cx="58" cy="564" r="5"/><circle cx="148" cy="573" r="5"/><circle cx="179" cy="564" r="4"/><circle cx="268" cy="604" r="5"/><circle cx="333" cy="625" r="6"/><circle cx="449" cy="629" r="5"/><circle cx="558" cy="619" r="5"/><circle cx="582" cy="637" r="6"/><circle cx="688" cy="573" r="5"/><circle cx="788" cy="620" r="5"/><circle cx="871" cy="606" r="6"/><circle cx="948" cy="603" r="6"/><circle cx="990" cy="560" r="4"/><circle cx="1117" cy="618" r="5"/><circle cx="1153" cy="588" r="6"/><circle cx="1224" cy="633" r="4"/><circle cx="1298" cy="572" r="6"/><circle cx="1407" cy="594" r="4"/><circle cx="1450" cy="582" r="4"/><circle cx="1539" cy="606" r="5"/><circle cx="1622" cy="563" r="5"/><circle cx="1689" cy="611" r="6"/><circle cx="1822" cy="625" r="5"/><circle cx="1882" cy="570" r="5"/><circle cx="1980" cy="613" r="4"/><circle cx="2043" cy="603" r="5"/><circle cx="2105" cy="584" r="4"/><circle cx="2199" cy="618" r="5"/><circle cx="2278" cy="638" r="4"/><circle cx="2381" cy="633" r="5"/><circle cx="2403" cy="637" r="4"/><circle cx="2525" cy="607" r="6"/><circle cx="13" cy="655" r="5"/><circle cx="108" cy="684" r="6"/><circle cx="194" cy="687" r="5"/><circle cx="279" cy="656" r="6"/><circle cx="393" cy="682" r="6"/><circle cx="444" cy="705" r="4"/><circle cx="499" cy="689" r="4"/><circle cx="627" cy="695" r="6"/><circle cx="674" cy="662" r="5"/><circle cx="792" cy="699" r="5"/><circle cx="832" cy="661" r="6"/><circle cx="958" cy="678" r="4"/><circle cx="994" cy="715" r="4"/><circle cx="1078" cy="719" r="5"/><circle cx="1144" cy="685" r="5"/><circle cx="1218" cy="688" r="5"/><circle cx="1330" cy="656" r="4"/><circle cx="1398" cy="692" r="5"/><circle cx="1441" cy="718" r="5"/><circle cx="1566" cy="709" r="5"/><circle cx="1626" cy="674" r="5"/><circle cx="1704" cy="712" r="5"/><circle cx="1828" cy="680" r="4"/><circle cx="1864" cy="663" r="5"/><circle cx="1986" cy="719" r="5"/><circle cx="2031" cy="672" r="5"/><circle cx="2122" cy="661" r="5"/><circle cx="2167" cy="659" r="4"/><circle cx="2300" cy="679" r="6"/><circle cx="2368" cy="694" r="5"/><circle cx="2431" cy="704" r="4"/><circle cx="2501" cy="655" r="4"/><circle cx="68" cy="771" r="4"/><circle cx="103" cy="785" r="6"/><circle cx="212" cy="783" r="5"/><circle cx="254" cy="776" r="5"/><circle cx="343" cy="777" r="4"/><circle cx="408" cy="731" r="5"/><circle cx="513" cy="798" r="5"/><circle cx="606" cy="728" r="4"/><circle cx="696" cy="740" r="5"/><circle cx="738" cy="780" r="6"/><circle cx="827" cy="781" r="6"/><circle cx="925" cy="752" r="6"/><circle cx="1019" cy="755" r="4"/><circle cx="1115" cy="771" r="6"/><circle cx="1152" cy="795" r="4"/><circle cx="1211" cy="768" r="6"/><circle cx="1343" cy="782" r="6"/><circle cx="1426" cy="736" r="4"/><circle cx="1447" cy="785" r="6"/><circle cx="1522" cy="789" r="6"/><circle cx="1656" cy="764" r="5"/><circle cx="1730" cy="734" r="6"/><circle cx="1770" cy="728" r="6"/><circle cx="1891" cy="766" r="6"/><circle cx="1925" cy="779" r="4"/><circle cx="2057" cy="759" r="5"/><circle cx="2125" cy="799" r="4"/><circle cx="2236" cy="773" r="5"/><circle cx="2246" cy="765" r="5"/><circle cx="2380" cy="790" r="5"/><circle cx="2400" cy="752" r="6"/><circle cx="2488" cy="762" r="6"/><circle cx="59" cy="869" r="5"/><circle cx="119" cy="806" r="6"/><circle cx="229" cy="803" r="5"/><circle cx="303" cy="858" r="6"/><circle cx="382" cy="803" r="5"/><circle cx="431" cy="869" r="5"/><circle cx="544" cy="816" r="4"/><circle cx="571" cy="863" r="5"/><circle cx="703" cy="831" r="6"/><circle cx="730" cy="805" r="5"/><circle cx="880" cy="856" r="5"/><circle cx="932" cy="802" r="5"/><circle cx="966" cy="821" r="6"/><circle cx="1045" cy="867" r="5"/><circle cx="1175" cy="850" r="5"/><circle cx="1219" cy="856" r="5"/><circle cx="1280" cy="837" r="5"/><circle cx="1376" cy="831" r="5"/><circle cx="1442" cy="804" r="5"/><circle cx="1535" cy="858" r="4"/><circle cx="1641" cy="835" r="5"/><circle cx="1748" cy="845" r="5"/><circle cx="1764" cy="841" r="6"/><circle cx="1892" cy="838" r="6"/><circle cx="1969" cy="863" r="6"/><circle cx="2039" cy="845" r="5"/><circle cx="2112" cy="825" r="5"/><circle cx="2237" cy="874" r="4"/><circle cx="2277" cy="826" r="5"/><circle cx="2340" cy="855" r="4"/><circle cx="2402" cy="816" r="5"/><circle cx="2499" cy="859" r="6"/><circle cx="48" cy="929" r="5"/><circle cx="106" cy="885" r="6"/><circle cx="213" cy="883" r="6"/><circle cx="273" cy="940" r="4"/><circle cx="378" cy="889" r="4"/><circle cx="456" cy="911" r="6"/><circle cx="529" cy="959" r="5"/><circle cx="611" cy="881" r="5"/><circle cx="699" cy="887" r="4"/><circle cx="765" cy="922" r="6"/><circle cx="836" cy="941" r="6"/><circle cx="940" cy="918" r="4"/><circle cx="976" cy="950" r="4"/><circle cx="1104" cy="910" r="4"/><circle cx="1187" cy="885" r="6"/><circle cx="1222" cy="891" r="6"/><circle cx="1335" cy="953" r="5"/><circle cx="1433" cy="936" r="6"/><circle cx="1465" cy="954" r="5"/><circle cx="1537" cy="937" r="5"/><circle cx="1664" cy="924" r="5"/><circle cx="1681" cy="886" r="5"/><circle cx="1802" cy="912" r="5"/><circle cx="1915" cy="902" r="5"/><circle cx="1951" cy="887" r="4"/><circle cx="2056" cy="911" r="5"/><circle cx="2158" cy="960" r="6"/><circle cx="2216" cy="933" r="6"/><circle cx="2283" cy="955" r="4"/><circle cx="2355" cy="946" r="4"/><circle cx="2409" cy="951" r="4"/><circle cx="2485" cy="917" r="6"/><circle cx="4" cy="995" r="4"/><circle cx="114" cy="999" r="5"/><circle cx="201" cy="973" r="5"/><circle cx="290" cy="1012" r="5"/><circle cx="341" cy="985" r="6"/><circle cx="452" cy="1027" r="6"/><circle cx="487" cy="1022" r="6"/><circle cx="604" cy="990" r="5"/><circle cx="672" cy="993" r="5"/><circle cx="782" cy="1003" r="6"/><circle cx="831" cy="964" r="6"/><circle cx="916" cy="1003" r="4"/><circle cx="971" cy="985" r="5"/><circle cx="1080" cy="1009" r="5"/><circle cx="1128" cy="1015" r="6"/><circle cx="1256" cy="1036" r="5"/><circle cx="1310" cy="1020" r="5"/><circle cx="1375" cy="1003" r="5"/><circle cx="1455" cy="1017" r="5"/><circle cx="1577" cy="960" r="5"/><circle cx="1660" cy="1009" r="5"/><circle cx="1731" cy="1020" r="4"/><circle cx="1785" cy="1039" r="5"/><circle cx="1870" cy="988" r="6"/><circle cx="1981" cy="1034" r="5"/><circle cx="2065" cy="987" r="5"/><circle cx="2100" cy="972" r="5"/><circle cx="2236" cy="977" r="5"/><circle cx="2278" cy="1019" r="6"/><circle cx="2372" cy="960" r="5"/><circle cx="2473" cy="1009" r="6"/><circle cx="2541" cy="980" r="4"/><circle cx="50" cy="1081" r="6"/><circle cx="119" cy="1043" r="6"/><circle cx="200" cy="1043" r="6"/><circle cx="283" cy="1118" r="6"/><circle cx="382" cy="1055" r="5"/><circle cx="435" cy="1045" r="4"/><circle cx="511" cy="1102" r="6"/><circle cx="634" cy="1066" r="5"/><circle cx="698" cy="1078" r="5"/><circle cx="773" cy="1094" r="6"/><circle cx="823" cy="1116" r="5"/><circle cx="882" cy="1064" r="5"/><circle cx="1012" cy="1073" r="4"/><circle cx="1108" cy="1078" r="5"/><circle cx="1132" cy="1049" r="5"/><circle cx="1203" cy="1055" r="5"/><circle cx="1357" cy="1094" r="4"/><circle cx="1420" cy="1117" r="6"/><circle cx="1443" cy="1119" r="6"/><circle cx="1540" cy="1043" r="5"/><circle cx="1659" cy="1062" r="5"/><circle cx="1681" cy="1056" r="5"/><circle cx="1805" cy="1081" r="4"/><circle cx="1914" cy="1073" r="4"/><circle cx="1957" cy="1065" r="5"/><circle cx="2050" cy="1116" r="5"/><circle cx="2098" cy="1088" r="4"/><circle cx="2186" cy="1075" r="4"/><circle cx="2264" cy="1091" r="5"/><circle cx="2322" cy="1046" r="4"/><circle cx="2407" cy="1042" r="5"/><circle cx="2556" cy="1067" r="5"/><circle cx="-4" cy="1067" r="5"/><circle cx="16" cy="1132" r="4"/><circle cx="81" cy="1120" r="4"/><circle cx="195" cy="1139" r="5"/><circle cx="303" cy="1143" r="5"/><circle cx="368" cy="1200" r="6"/><circle cx="420" cy="1121" r="5"/><circle cx="516" cy="1194" r="5"/><circle cx="624" cy="1181" r="5"/><circle cx="684" cy="1147" r="5"/><circle cx="774" cy="1176" r="5"/><circle cx="857" cy="1163" r="5"/><circle cx="939" cy="1178" r="6"/><circle cx="1039" cy="1158" r="5"/><circle cx="1086" cy="1140" r="5"/><circle cx="1127" cy="1164" r="4"/><circle cx="1277" cy="1122" r="4"/><circle cx="1349" cy="1169" r="6"/><circle cx="1416" cy="1138" r="5"/><circle cx="1469" cy="1173" r="6"/><circle cx="1589" cy="1144" r="6"/><circle cx="1628" cy="1139" r="5"/><circle cx="1723" cy="1134" r="4"/><circle cx="1787" cy="1145" r="5"/><circle cx="1854" cy="1199" r="5"/><circle cx="1977" cy="1143" r="6"/><circle cx="2024" cy="1157" r="5"/><circle cx="2088" cy="1164" r="5"/><circle cx="2206" cy="1125" r="4"/><circle cx="2262" cy="1186" r="5"/><circle cx="2357" cy="1165" r="5"/><circle cx="2474" cy="1175" r="6"/><circle cx="2549" cy="1165" r="6"/><circle cx="49" cy="1225" r="6"/><circle cx="98" cy="1249" r="5"/><circle cx="205" cy="1275" r="6"/><circle cx="318" cy="1203" r="5"/><circle cx="333" cy="1250" r="4"/><circle cx="461" cy="1266" r="5"/><circle cx="525" cy="1211" r="5"/><circle cx="587" cy="1243" r="5"/><circle cx="654" cy="1263" r="4"/><circle cx="768" cy="1251" r="6"/><circle cx="827" cy="1277" r="4"/><circle cx="939" cy="1264" r="5"/><circle cx="989" cy="1238" r="6"/><circle cx="1069" cy="1248" r="6"/><circle cx="1162" cy="1211" r="5"/><circle cx="1207" cy="1280" r="5"/><circle cx="1282" cy="1224" r="6"/><circle cx="1417" cy="1248" r="6"/><circle cx="1461" cy="1253" r="4"/><circle cx="1579" cy="1246" r="5"/><circle cx="1665" cy="1253" r="6"/><circle cx="1728" cy="1212" r="5"/><circle cx="1794" cy="1254" r="5"/><circle cx="1917" cy="1238" r="5"/><circle cx="1955" cy="1245" r="5"/><circle cx="2051" cy="1246" r="6"/><circle cx="2093" cy="1235" r="5"/><circle cx="2231" cy="1257" r="4"/><circle cx="2312" cy="1267" r="6"/><circle cx="2344" cy="1205" r="5"/><circle cx="2450" cy="1238" r="4"/><circle cx="2484" cy="1256" r="5"/><circle cx="39" cy="1320" r="4"/><circle cx="132" cy="1305" r="5"/><circle cx="205" cy="1343" r="4"/><circle cx="271" cy="1285" r="5"/><circle cx="356" cy="1313" r="6"/><circle cx="404" cy="1352" r="4"/><circle cx="486" cy="1308" r="4"/><circle cx="577" cy="1289" r="4"/><circle cx="667" cy="1330" r="5"/><circle cx="780" cy="1344" r="4"/><circle cx="868" cy="1327" r="5"/><circle cx="935" cy="1301" r="5"/><circle cx="993" cy="1357" r="4"/><circle cx="1084" cy="1313" r="5"/><circle cx="1121" cy="1295" r="5"/><circle cx="1239" cy="1288" r="5"/><circle cx="1284" cy="1310" r="6"/><circle cx="1404" cy="1304" r="4"/><circle cx="1481" cy="1283" r="6"/><circle cx="1524" cy="1345" r="5"/><circle cx="1673" cy="1354" r="6"/><circle cx="1739" cy="1334" r="5"/><circle cx="1839" cy="1283" r="4"/><circle cx="1864" cy="1289" r="5"/><circle cx="1933" cy="1338" r="4"/><circle cx="2020" cy="1351" r="4"/><circle cx="2119" cy="1293" r="6"/><circle cx="2185" cy="1325" r="4"/><circle cx="2307" cy="1305" r="6"/><circle cx="2330" cy="1342" r="6"/><circle cx="2455" cy="1332" r="4"/><circle cx="2554" cy="1353" r="5"/><circle cx="14" cy="1403" r="4"/><circle cx="110" cy="1403" r="6"/><circle cx="227" cy="1386" r="4"/><circle cx="287" cy="1373" r="4"/><circle cx="329" cy="1374" r="4"/><circle cx="428" cy="1373" r="5"/><circle cx="488" cy="1438" r="5"/><circle cx="488" cy="-2" r="5"/><circle cx="563" cy="1429" r="5"/><circle cx="658" cy="1434" r="5"/><circle cx="730" cy="1420" r="4"/><circle cx="830" cy="1420" r="6"/><circle cx="895" cy="1435" r="5"/><circle cx="895" cy="-5" r="5"/><circle cx="984" cy="1387" r="5"/><circle cx="1096" cy="1419" r="6"/><circle cx="1137" cy="1378" r="5"/><circle cx="1257" cy="1395" r="5"/><circle cx="1313" cy="1425" r="5"/><circle cx="1362" cy="1384" r="4"/><circle cx="1493" cy="1364" r="4"/><circle cx="1579" cy="1399" r="4"/><circle cx="1609" cy="1431" r="5"/><circle cx="1726" cy="1413" r="5"/><circle cx="1792" cy="1379" r="4"/><circle cx="1899" cy="1388" r="5"/><circle cx="1988" cy="1383" r="5"/><circle cx="2076" cy="1394" r="4"/><circle cx="2151" cy="1382" r="5"/><circle cx="2162" cy="1412" r="5"/><circle cx="2312" cy="1421" r="5"/><circle cx="2364" cy="1411" r="4"/><circle cx="2414" cy="1394" r="4"/><circle cx="2523" cy="1425" r="5"/><path stroke="#fff" d="M68 18L89 106M68 18L14 -37M68 18L110 -37M68 18L-37 -15M2628 18L2523 -15M68 1458L14 1403M68 1458L110 1403M68 1458L-37 1425M2628 1458L2523 1425M160 43L178 1M160 43L89 106M160 43L171 90M160 43L251 96M160 43L110 -37M160 1483L110 1403M178 1L171 90M178 1L110 -37M178 1L227 -54M178 1441L110 1403M178 1441L227 1386M296 18L383 30M296 18L251 96M296 18L227 -54M296 18L287 -67M296 18L329 -66M296 1458L227 1386M296 1458L287 1373M296 1458L329 1374M383 30L465 30M465 30L484 75M465 30L560 35M465 30L428 -67M465 30L488 -2M465 1470L428 1373M465 1470L488 1438M484 75L560 35M484 75L443 158M484 75L540 135M484 75L488 -2M484 1515L488 1438M560 35L488 -2M560 35L563 -11M560 35L658 -6M560 1475L488 1438M560 1475L563 1429M560 1475L658 1434M715 43L799 15M715 43L813 32M715 43L770 80M715 43L658 -6M715 43L730 -20M715 1483L658 1434M715 1483L730 1420M799 15L813 32M799 15L770 80M799 15L730 -20M799 15L830 -20M799 1455L730 1420M799 1455L830 1420M813 32L770 80M813 32L830 -20M813 32L895 -5M813 1472L830 1420M813 1472L895 1435M935 59L1003 27M935 59L878 155M935 59L907 110M935 59L895 -5M935 1499L895 1435M1003 27L1063 51M1003 27L984 -53M1003 27L1096 -21M1003 1467L984 1387M1003 1467L1096 1419M1063 51L1133 80M1063 51L1038 138M1063 51L1071 102M1063 51L1096 -21M1063 1491L1096 1419M1133 80L1071 102M1133 80L1173 145M1133 80L1224 95M1133 80L1096 -21M1133 1520L1096 1419M1220 16L1308 11M1220 16L1224 95M1220 16L1137 -62M1220 16L1257 -45M1220 16L1313 -15M1220 1456L1137 1378M1220 1456L1257 1395M1220 1456L1313 1425M1308 11L1415 6M1308 11L1257 -45M1308 11L1313 -15M1308 11L1362 -56M1308 1451L1257 1395M1308 1451L1313 1425M1308 1451L1362 1384M1415 6L1499 4M1415 6L1415 87M1415 6L1313 -15M1415 6L1362 -56M1415 1446L1313 1425M1415 1446L1362 1384M1499 4L1530 47M1499 4L1520 86M1499 4L1493 -76M1499 4L1579 -41M1499 1444L1493 1364M1499 1444L1579 1399M1530 47L1601 1M1530 47L1520 86M1530 47L1609 -9M1530 1487L1609 1431M1601 1L1579 -41M1601 1L1609 -9M1601 1441L1579 1399M1601 1441L1609 1431M1681 60L1775 61M1681 60L1624 98M1681 60L1708 137M1681 60L1609 -9M1681 60L1726 -27M1681 1500L1609 1431M1681 1500L1726 1413M1775 61L1844 60M1775 61L1827 97M1775 61L1853 97M1775 61L1726 -27M1775 1501L1726 1413M1844 60L1938 14M1844 60L1827 97M1844 60L1853 97M1844 60L1840 174M1938 14L2018 70M1938 14L1899 -52M1938 14L1988 -57M1938 1454L1899 1388M1938 1454L1988 1383M2018 70L1995 127M2018 70L2056 97M2094 4L2166 8M2094 4L2056 97M2094 4L2076 -46M2094 4L2162 -28M2094 1444L2076 1394M2094 1444L2162 1412M2166 8L2155 97M2166 8L2151 -58M2166 8L2162 -28M2166 1448L2151 1382M2166 1448L2162 1412M2286 59L2334 46M2286 59L2259 100M2286 59L2312 -19M2286 1499L2312 1421M2334 46L2410 32M2334 46L2259 100M2334 46L2312 -19M2334 46L2364 -29M2334 1486L2312 1421M2334 1486L2364 1411M2410 32L2398 111M2410 32L2425 137M2410 32L2364 -29M2410 32L2414 -46M2410 1472L2364 1411M2410 1472L2414 1394M2523 65L2535 148M2523 65L2527 170M2523 65L2523 -15M2523 1505L2523 1425M47 157L89 106M47 157L-25 148M47 157L74 163M47 157L132 218M47 157L-33 170M2607 157L2535 148M2607 157L2527 170M89 106L171 90M89 106L74 163M171 90L251 96M251 96L320 131M320 131L317 202M320 131L359 184M443 158L359 184M443 158L451 178M443 158L501 209M540 135L623 135M540 135L579 198M623 135L672 142M623 135L579 198M623 135L617 262M672 142L683 215M770 80L821 165M878 155L907 110M878 155L821 165M878 155L947 175M878 155L886 248M907 110L947 175M1038 138L1071 102M1038 138L947 175M1038 138L1003 175M1071 102L1003 175M1173 145L1224 95M1173 145L1117 209M1173 145L1126 189M1173 145L1233 193M1341 120L1415 87M1341 120L1457 121M1341 120L1295 203M1415 87L1457 121M1415 87L1520 86M1457 121L1520 86M1457 121L1464 186M1624 98L1708 137M1624 98L1581 192M1624 98L1654 161M1624 98L1683 171M1708 137L1654 161M1708 137L1683 171M1827 97L1853 97M1827 97L1829 213M1827 97L1840 174M1853 97L1840 174M1995 127L2056 97M1995 127L1966 204M1995 127L2071 213M2056 97L2155 97M2056 97L2091 188M2155 97L2170 157M2155 97L2259 100M2170 157L2259 100M2170 157L2091 188M2170 157L2142 245M2398 111L2425 137M2398 111L2477 177M2425 137L2477 177M2535 148L2634 163M2535 148L2477 177M2535 148L2527 170M-25 148L74 163M74 163L132 218M74 163L-33 170M2634 163L2527 170M132 218L228 221M132 218L94 306M132 218L173 248M228 221L317 202M228 221L173 248M228 221L286 292M317 202L359 184M317 202L286 292M317 202L394 252M359 184L451 178M359 184L394 252M451 178L501 209M451 178L394 252M451 178L474 270M501 209L579 198M501 209L474 270M501 209L504 256M579 198L504 256M579 198L617 262M683 215L758 218M683 215L617 262M683 215L698 286M758 218L821 165M758 218L698 286M758 218L743 282M758 218L811 253M821 165L811 253M947 175L1003 175M947 175L886 248M1003 175L1036 244M1117 209L1126 189M1117 209L1036 244M1117 209L1092 289M1117 209L1148 264M1126 189L1036 244M1126 189L1092 289M1126 189L1148 264M1233 193L1295 203M1233 193L1148 264M1233 193L1210 260M1233 193L1296 264M1295 203L1210 260M1295 203L1296 264M1423 223L1464 186M1423 223L1394 272M1423 223L1446 300M1423 223L1521 254M1423 223L1430 342M1464 186L1521 254M1581 192L1654 161M1581 192L1683 171M1581 192L1521 254M1581 192L1614 314M1654 161L1683 171M1683 171L1706 263M1829 213L1840 174M1829 213L1768 297M1829 213L1844 276M1829 213L1925 241M1840 174L1844 276M1966 204L2071 213M1966 204L1925 241M1966 204L2033 264M2071 213L2091 188M2071 213L2033 264M2071 213L2142 245M2091 188L2033 264M2091 188L2142 245M2239 238L2256 212M2239 238L2227 295M2239 238L2320 256M2256 212L2341 219M2256 212L2227 295M2256 212L2320 256M2341 219L2317 278M2341 219L2320 256M2341 219L2404 294M2477 177L2527 170M2477 177L2500 284M30 275L94 306M30 275L-60 284M2590 275L2500 284M94 306L173 248M94 306L23 376M94 306L136 365M173 248L136 365M286 292L394 252M286 292L233 392M286 292L273 351M394 252L474 270M474 270L504 256M504 256L617 262M617 262L698 286M698 286L743 282M698 286L767 349M743 282L811 253M743 282L767 349M743 282L819 329M811 253L886 248M811 253L819 329M886 248L819 329M886 248L928 329M1036 244L1092 289M1092 289L1148 264M1148 264L1210 260M1210 260L1296 264M1296 264L1394 272M1394 272L1446 300M1394 272L1430 342M1394 272L1466 338M1446 300L1521 254M1446 300L1430 342M1446 300L1466 338M1614 314L1538 363M1614 314L1635 359M1706 263L1768 297M1706 263L1714 352M1706 263L1771 357M1768 297L1844 276M1768 297L1714 352M1768 297L1771 357M1844 276L1925 241M1844 276L1909 324M1925 241L1909 324M2033 264L2023 331M2142 245L2227 295M2142 245L2177 329M2227 295L2177 329M2227 295L2274 343M2317 278L2320 256M2317 278L2404 294M2317 278L2274 343M2317 278L2324 336M2320 256L2324 336M2404 294L2500 284M2404 294L2436 369M2500 284L2436 369M23 376L-12 395M23 376L35 452M23 376L88 438M23 376L-43 424M2583 376L2548 395M2583 376L2517 424M136 365L233 392M136 365L88 438M136 365L184 430M233 392L273 351M233 392L184 430M233 392L271 453M273 351L271 453M391 376L436 381M391 376L395 409M391 376L440 422M436 381L484 390M436 381L395 409M436 381L440 422M484 390L395 409M484 390L440 422M484 390L493 459M484 390L568 415M614 385L705 385M614 385L568 415M614 385L647 406M705 385L767 349M705 385L647 406M705 385L791 440M767 349L819 329M767 349L791 440M819 329L928 329M928 329L986 364M928 329L954 404M986 364L1044 400M986 364L954 404M986 364L1005 442M1044 400L954 404M1044 400L1005 442M1044 400L1101 432M1044 400L1078 486M1178 398L1210 378M1178 398L1101 432M1178 398L1172 436M1178 398L1261 408M1178 398L1152 486M1210 378L1308 384M1210 378L1172 436M1210 378L1261 408M1210 378L1303 447M1308 384L1261 408M1308 384L1303 447M1308 384L1278 488M1430 342L1466 338M1430 342L1538 363M1466 338L1538 363M1538 363L1635 359M1538 363L1565 454M1635 359L1714 352M1635 359L1634 441M1635 359L1700 403M1714 352L1771 357M1714 352L1700 403M1771 357L1700 403M1771 357L1769 447M1909 324L2023 331M1909 324L1944 412M1992 394L2023 331M1992 394L1944 412M1992 394L2060 466M1992 394L2092 436M2023 331L1944 412M2158 360L2177 329M2158 360L2092 436M2274 343L2324 336M2274 343L2304 402M2274 343L2328 418M2324 336L2304 402M2324 336L2328 418M2436 369L2437 451M2548 395L2595 452M2548 395L2517 424M-12 395L35 452M35 452L88 438M35 452L-43 424M35 452L-1 502M2595 452L2517 424M2595 452L2559 502M88 438L184 430M88 438L149 520M184 430L271 453M184 430L169 501M271 453L293 501M271 453L346 512M395 409L440 422M395 409L470 503M440 422L493 459M493 459L568 415M493 459L470 503M493 459L490 490M568 415L647 406M568 415L490 490M791 440L801 474M791 440L813 521M801 474L743 533M801 474L813 521M954 404L1005 442M1005 442L1016 512M1005 442L1078 486M1101 432L1172 436M1101 432L1078 486M1101 432L1152 486M1172 436L1152 486M1261 408L1303 447M1261 408L1278 488M1303 447L1278 488M1303 447L1301 544M1427 465L1494 473M1427 465L1438 514M1427 465L1447 485M1427 465L1450 582M1494 473L1565 454M1494 473L1438 514M1494 473L1447 485M1494 473L1535 518M1565 454L1634 441M1565 454L1535 518M1565 454L1622 515M1634 441L1700 403M1634 441L1622 515M1700 403L1769 447M1769 447L1880 455M1769 447L1806 496M1769 447L1840 512M1880 455L1944 412M1880 455L1806 496M1880 455L1840 512M1880 455L1882 570M1944 412L1994 515M2060 466L2092 436M2060 466L1994 515M2060 466L2078 554M2060 466L2145 527M2207 478L2145 527M2207 478L2181 538M2207 478L2298 506M2304 402L2328 418M2304 402L2298 506M2304 402L2360 485M2328 418L2298 506M2328 418L2360 485M2437 451L2517 424M2437 451L2360 485M2437 451L2427 535M2517 424L2559 502M27 555L-1 502M27 555L58 564M27 555L-35 607M27 555L13 655M2587 555L2559 502M2587 555L2525 607M149 520L169 501M149 520L148 573M149 520L179 564M169 501L293 501M169 501L148 573M169 501L179 564M293 501L346 512M293 501L268 604M346 512L470 503M346 512L333 625M470 503L490 490M490 490L602 550M602 550L558 619M602 550L582 637M602 550L688 573M707 558L743 533M707 558L688 573M743 533L813 521M743 533L688 573M743 533L788 620M813 521L788 620M813 521L871 606M944 515L1016 512M944 515L948 603M944 515L990 560M1016 512L1078 486M1016 512L948 603M1016 512L990 560M1078 486L1152 486M1152 486L1153 588M1278 488L1301 544M1278 488L1298 572M1301 544L1298 572M1301 544L1330 656M1438 514L1447 485M1438 514L1407 594M1438 514L1450 582M1447 485L1450 582M1535 518L1622 515M1535 518L1539 606M1535 518L1622 563M1622 515L1704 553M1622 515L1622 563M1704 553L1806 496M1704 553L1622 563M1704 553L1689 611M1806 496L1840 512M1840 512L1822 625M1840 512L1882 570M1994 515L2078 554M1994 515L1980 613M1994 515L2043 603M2078 554L2145 527M2078 554L2043 603M2078 554L2105 584M2145 527L2181 538M2145 527L2105 584M2181 538L2105 584M2181 538L2199 618M2298 506L2360 485M2360 485L2427 535M2427 535L2381 633M2427 535L2403 637M2559 502L2618 564M2559 502L2525 607M-1 502L58 564M58 564L148 573M58 564L-35 607M58 564L13 655M2618 564L2525 607M148 573L179 564M179 564L268 604M268 604L333 625M268 604L194 687M268 604L279 656M333 625L449 629M333 625L279 656M333 625L393 682M449 629L393 682M449 629L444 705M449 629L499 689M449 629L408 731M558 619L582 637M558 619L499 689M558 619L627 695M582 637L627 695M582 637L674 662M582 637L606 728M688 573L674 662M788 620L871 606M788 620L792 699M788 620L832 661M871 606L948 603M871 606L832 661M871 606L958 678M948 603L990 560M948 603L958 678M1117 618L1153 588M1117 618L1224 633M1117 618L1078 719M1117 618L1144 685M1117 618L1218 688M1153 588L1224 633M1153 588L1144 685M1153 588L1218 688M1224 633L1298 572M1224 633L1218 688M1298 572L1407 594M1298 572L1330 656M1407 594L1450 582M1407 594L1330 656M1450 582L1539 606M1539 606L1622 563M1539 606L1566 709M1539 606L1626 674M1622 563L1689 611M1689 611L1626 674M1689 611L1704 712M1822 625L1882 570M1822 625L1828 680M1822 625L1864 663M1822 625L1770 728M1882 570L1980 613M1882 570L1864 663M1980 613L2043 603M1980 613L1986 719M1980 613L2031 672M2043 603L2105 584M2043 603L2031 672M2105 584L2122 661M2199 618L2278 638M2199 618L2122 661M2199 618L2167 659M2278 638L2167 659M2278 638L2300 679M2381 633L2403 637M2381 633L2300 679M2381 633L2368 694M2381 633L2431 704M2403 637L2368 694M2403 637L2431 704M2525 607L2573 655M2525 607L2501 655M-35 607L13 655M13 655L108 684M13 655L-59 655M2573 655L2501 655M108 684L194 687M108 684L68 771M108 684L103 785M194 687L279 656M194 687L212 783M194 687L254 776M279 656L393 682M393 682L444 705M393 682L408 731M444 705L499 689M444 705L408 731M499 689L513 798M627 695L674 662M627 695L606 728M627 695L696 740M674 662L606 728M674 662L696 740M792 699L832 661M792 699L738 780M792 699L827 781M958 678L994 715M958 678L925 752M994 715L1078 719M994 715L925 752M994 715L1019 755M1078 719L1144 685M1078 719L1019 755M1078 719L1115 771M1144 685L1218 688M1144 685L1115 771M1218 688L1211 768M1330 656L1398 692M1398 692L1441 718M1398 692L1426 736M1441 718L1426 736M1441 718L1447 785M1441 718L1522 789M1441 718L1442 804M1566 709L1626 674M1566 709L1522 789M1566 709L1656 764M1626 674L1704 712M1626 674L1656 764M1704 712L1656 764M1704 712L1730 734M1704 712L1770 728M1828 680L1864 663M1828 680L1770 728M1828 680L1891 766M1864 663L1891 766M1986 719L2031 672M1986 719L1891 766M1986 719L1925 779M1986 719L2057 759M2031 672L2122 661M2031 672L2057 759M2122 661L2167 659M2300 679L2368 694M2300 679L2236 773M2300 679L2246 765M2368 694L2431 704M2368 694L2400 752M2431 704L2400 752M2431 704L2488 762M68 771L103 785M68 771L59 869M68 771L119 806M103 785L59 869M103 785L119 806M103 785L106 885M212 783L254 776M212 783L119 806M212 783L229 803M212 783L213 883M254 776L343 777M254 776L229 803M254 776L303 858M343 777L408 731M343 777L229 803M343 777L382 803M408 731L382 803M513 798L431 869M513 798L544 816M513 798L571 863M606 728L544 816M696 740L738 780M696 740L703 831M696 740L730 805M738 780L827 781M738 780L703 831M738 780L730 805M827 781L925 752M827 781L730 805M827 781L880 856M925 752L932 802M925 752L966 821M1019 755L932 802M1019 755L966 821M1115 771L1152 795M1115 771L1211 768M1152 795L1211 768M1152 795L1175 850M1152 795L1187 885M1211 768L1175 850M1211 768L1219 856M1343 782L1426 736M1343 782L1280 837M1343 782L1376 831M1426 736L1447 785M1426 736L1442 804M1447 785L1522 789M1447 785L1376 831M1447 785L1442 804M1522 789L1442 804M1522 789L1535 858M1656 764L1730 734M1656 764L1641 835M1730 734L1770 728M1730 734L1748 845M1730 734L1764 841M1770 728L1764 841M1891 766L1925 779M1891 766L1892 838M1925 779L1892 838M1925 779L1969 863M2057 759L2125 799M2057 759L2039 845M2057 759L2112 825M2125 799L2236 773M2125 799L2112 825M2236 773L2246 765M2236 773L2237 874M2236 773L2277 826M2246 765L2277 826M2380 790L2400 752M2380 790L2488 762M2380 790L2277 826M2380 790L2340 855M2380 790L2402 816M2400 752L2488 762M2400 752L2402 816M2488 762L2402 816M2488 762L2499 859M59 869L119 806M59 869L48 929M59 869L106 885M119 806L106 885M229 803L303 858M229 803L213 883M303 858L382 803M303 858L213 883M303 858L378 889M382 803L431 869M382 803L378 889M431 869L378 889M431 869L456 911M544 816L571 863M544 816L611 881M571 863L529 959M571 863L611 881M703 831L730 805M703 831L699 887M703 831L765 922M730 805L699 887M880 856L932 802M880 856L966 821M880 856L836 941M880 856L940 918M932 802L966 821M966 821L1045 867M1045 867L976 950M1045 867L1104 910M1175 850L1219 856M1175 850L1187 885M1175 850L1222 891M1219 856L1280 837M1219 856L1187 885M1219 856L1222 891M1280 837L1376 831M1280 837L1222 891M1376 831L1442 804M1535 858L1537 937M1641 835L1748 845M1641 835L1664 924M1641 835L1681 886M1748 845L1764 841M1748 845L1681 886M1748 845L1802 912M1764 841L1681 886M1764 841L1802 912M1892 838L1969 863M1892 838L1915 902M1892 838L1951 887M1969 863L2039 845M1969 863L1915 902M1969 863L1951 887M2039 845L2112 825M2039 845L1951 887M2039 845L2056 911M2112 825L2056 911M2237 874L2277 826M2237 874L2216 933M2237 874L2236 977M2277 826L2340 855M2340 855L2402 816M2340 855L2355 946M2402 816L2499 859M2499 859L2485 917M48 929L106 885M48 929L4 995M48 929L114 999M48 929L-19 980M2608 929L2541 980M213 883L273 940M213 883L201 973M273 940L201 973M273 940L290 1012M273 940L341 985M378 889L456 911M378 889L341 985M456 911L529 959M456 911L487 1022M529 959L487 1022M529 959L604 990M611 881L699 887M611 881L604 990M699 887L765 922M699 887L672 993M765 922L836 941M765 922L782 1003M765 922L831 964M836 941L782 1003M836 941L831 964M836 941L916 1003M940 918L976 950M940 918L971 985M976 950L916 1003M976 950L971 985M1104 910L1187 885M1104 910L1222 891M1104 910L1128 1015M1187 885L1222 891M1335 953L1433 936M1335 953L1256 1036M1335 953L1310 1020M1335 953L1375 1003M1433 936L1465 954M1433 936L1537 937M1433 936L1375 1003M1433 936L1455 1017M1465 954L1537 937M1465 954L1455 1017M1465 954L1577 960M1537 937L1577 960M1664 924L1681 886M1664 924L1577 960M1664 924L1660 1009M1681 886L1802 912M1802 912L1915 902M1802 912L1870 988M1915 902L1951 887M1915 902L1870 988M2056 911L2158 960M2056 911L2065 987M2056 911L2100 972M2158 960L2216 933M2158 960L2065 987M2158 960L2100 972M2158 960L2236 977M2216 933L2283 955M2216 933L2236 977M2216 933L2278 1019M2283 955L2355 946M2283 955L2236 977M2283 955L2278 1019M2283 955L2372 960M2355 946L2409 951M2355 946L2372 960M2409 951L2485 917M2409 951L2372 960M2409 951L2473 1009M2409 951L2407 1042M2485 917L2473 1009M2485 917L2541 980M4 995L-19 980M4 995L-4 1067M2564 995L2541 980M2564 995L2556 1067M114 999L201 973M114 999L119 1043M114 999L200 1043M201 973L290 1012M201 973L200 1043M290 1012L341 985M290 1012L200 1043M290 1012L382 1055M341 985L382 1055M452 1027L487 1022M452 1027L382 1055M452 1027L435 1045M452 1027L511 1102M452 1027L420 1121M487 1022L435 1045M487 1022L511 1102M604 990L672 993M604 990L634 1066M672 993L782 1003M672 993L634 1066M672 993L698 1078M782 1003L831 964M782 1003L773 1094M831 964L916 1003M831 964L882 1064M916 1003L971 985M916 1003L882 1064M971 985L1080 1009M971 985L1012 1073M1080 1009L1128 1015M1080 1009L1012 1073M1080 1009L1108 1078M1080 1009L1132 1049M1128 1015L1108 1078M1128 1015L1132 1049M1128 1015L1203 1055M1256 1036L1310 1020M1256 1036L1203 1055M1256 1036L1277 1122M1310 1020L1375 1003M1310 1020L1357 1094M1310 1020L1277 1122M1375 1003L1455 1017M1455 1017L1443 1119M1455 1017L1540 1043M1577 960L1660 1009M1577 960L1540 1043M1660 1009L1731 1020M1660 1009L1659 1062M1660 1009L1681 1056M1731 1020L1785 1039M1731 1020L1659 1062M1731 1020L1681 1056M1731 1020L1805 1081M1785 1039L1870 988M1785 1039L1805 1081M1785 1039L1787 1145M1870 988L1914 1073M1870 988L1957 1065M1981 1034L2065 987M1981 1034L1914 1073M1981 1034L1957 1065M1981 1034L2050 1116M2065 987L2100 972M2065 987L2098 1088M2236 977L2278 1019M2278 1019L2264 1091M2278 1019L2322 1046M2372 960L2407 1042M2473 1009L2541 980M2473 1009L2407 1042M2541 980L2556 1067M50 1081L119 1043M50 1081L-4 1067M50 1081L16 1132M50 1081L81 1120M50 1081L-11 1165M2610 1081L2556 1067M2610 1081L2549 1165M119 1043L200 1043M119 1043L81 1120M119 1043L195 1139M200 1043L195 1139M283 1118L195 1139M283 1118L303 1143M283 1118L318 1203M382 1055L435 1045M382 1055L420 1121M435 1045L511 1102M435 1045L420 1121M511 1102L420 1121M511 1102L516 1194M634 1066L698 1078M634 1066L684 1147M698 1078L773 1094M698 1078L684 1147M773 1094L823 1116M773 1094L684 1147M773 1094L774 1176M823 1116L882 1064M823 1116L774 1176M823 1116L857 1163M882 1064L857 1163M882 1064L939 1178M1012 1073L1039 1158M1108 1078L1132 1049M1108 1078L1086 1140M1108 1078L1127 1164M1132 1049L1203 1055M1132 1049L1086 1140M1203 1055L1277 1122M1357 1094L1420 1117M1357 1094L1443 1119M1357 1094L1349 1169M1357 1094L1416 1138M1420 1117L1443 1119M1420 1117L1349 1169M1420 1117L1416 1138M1420 1117L1469 1173M1443 1119L1416 1138M1443 1119L1469 1173M1540 1043L1589 1144M1659 1062L1681 1056M1659 1062L1589 1144M1659 1062L1628 1139M1681 1056L1628 1139M1681 1056L1723 1134M1805 1081L1914 1073M1805 1081L1723 1134M1805 1081L1787 1145M1914 1073L1957 1065M1914 1073L1977 1143M1957 1065L1977 1143M2050 1116L2098 1088M2050 1116L1977 1143M2050 1116L2024 1157M2050 1116L2088 1164M2098 1088L2186 1075M2098 1088L2088 1164M2186 1075L2264 1091M2186 1075L2206 1125M2264 1091L2322 1046M2264 1091L2206 1125M2264 1091L2262 1186M2322 1046L2407 1042M2556 1067L2576 1132M2556 1067L2549 1165M-4 1067L16 1132M16 1132L81 1120M16 1132L-11 1165M16 1132L49 1225M2576 1132L2549 1165M195 1139L303 1143M303 1143L368 1200M303 1143L318 1203M368 1200L420 1121M368 1200L318 1203M368 1200L333 1250M516 1194L624 1181M516 1194L461 1266M516 1194L525 1211M516 1194L587 1243M624 1181L684 1147M624 1181L525 1211M624 1181L587 1243M624 1181L654 1263M684 1147L774 1176M774 1176L857 1163M774 1176L768 1251M857 1163L939 1178M939 1178L1039 1158M939 1178L939 1264M939 1178L989 1238M1039 1158L1086 1140M1039 1158L989 1238M1039 1158L1069 1248M1086 1140L1127 1164M1127 1164L1162 1211M1277 1122L1349 1169M1277 1122L1282 1224M1349 1169L1416 1138M1349 1169L1282 1224M1416 1138L1469 1173M1469 1173L1417 1248M1469 1173L1461 1253M1589 1144L1628 1139M1589 1144L1579 1246M1628 1139L1723 1134M1628 1139L1665 1253M1723 1134L1787 1145M1723 1134L1728 1212M1787 1145L1854 1199M1787 1145L1728 1212M1854 1199L1794 1254M1854 1199L1917 1238M1854 1199L1839 1283M1854 1199L1864 1289M1977 1143L2024 1157M1977 1143L1955 1245M2024 1157L2088 1164M2024 1157L2051 1246M2024 1157L2093 1235M2088 1164L2051 1246M2088 1164L2093 1235M2206 1125L2262 1186M2262 1186L2231 1257M2262 1186L2312 1267M2262 1186L2344 1205M2357 1165L2474 1175M2357 1165L2344 1205M2357 1165L2450 1238M2474 1175L2549 1165M2474 1175L2450 1238M2474 1175L2484 1256M2549 1165L2609 1225M-11 1165L49 1225M49 1225L98 1249M49 1225L39 1320M98 1249L205 1275M98 1249L39 1320M98 1249L132 1305M205 1275L132 1305M205 1275L205 1343M205 1275L271 1285M205 1275L227 1386M318 1203L333 1250M318 1203L271 1285M333 1250L271 1285M333 1250L356 1313M461 1266L525 1211M461 1266L486 1308M525 1211L587 1243M525 1211L577 1289M587 1243L654 1263M587 1243L577 1289M654 1263L768 1251M654 1263L577 1289M654 1263L667 1330M768 1251L827 1277M768 1251L780 1344M827 1277L780 1344M827 1277L868 1327M939 1264L989 1238M939 1264L868 1327M939 1264L935 1301M939 1264L993 1357M989 1238L1069 1248M989 1238L935 1301M1069 1248L1162 1211M1069 1248L1084 1313M1069 1248L1121 1295M1162 1211L1207 1280M1162 1211L1121 1295M1162 1211L1239 1288M1207 1280L1282 1224M1207 1280L1121 1295M1207 1280L1239 1288M1207 1280L1284 1310M1282 1224L1239 1288M1282 1224L1284 1310M1417 1248L1461 1253M1417 1248L1404 1304M1417 1248L1481 1283M1461 1253L1404 1304M1461 1253L1481 1283M1461 1253L1524 1345M1579 1246L1665 1253M1579 1246L1524 1345M1665 1253L1728 1212M1665 1253L1673 1354M1665 1253L1739 1334M1728 1212L1794 1254M1794 1254L1739 1334M1794 1254L1839 1283M1794 1254L1864 1289M1917 1238L1955 1245M1917 1238L1839 1283M1917 1238L1864 1289M1955 1245L2051 1246M1955 1245L1933 1338M2051 1246L2093 1235M2051 1246L2119 1293M2093 1235L2119 1293M2231 1257L2312 1267M2231 1257L2185 1325M2231 1257L2307 1305M2312 1267L2344 1205M2312 1267L2307 1305M2312 1267L2330 1342M2344 1205L2450 1238M2344 1205L2307 1305M2450 1238L2484 1256M2450 1238L2455 1332M2484 1256L2455 1332M2484 1256L2554 1353M39 1320L132 1305M39 1320L-6 1353M39 1320L14 1403M2599 1320L2554 1353M132 1305L205 1343M132 1305L110 1403M205 1343L271 1285M205 1343L227 1386M205 1343L287 1373M271 1285L356 1313M356 1313L404 1352M356 1313L329 1374M356 1313L428 1373M404 1352L486 1308M404 1352L329 1374M404 1352L428 1373M486 1308L577 1289M486 1308L428 1373M577 1289L667 1330M667 1330L658 1434M780 1344L868 1327M780 1344L730 1420M780 1344L830 1420M868 1327L935 1301M868 1327L830 1420M935 1301L993 1357M935 1301L984 1387M993 1357L1084 1313M993 1357L984 1387M1084 1313L1121 1295M1084 1313L1096 1419M1084 1313L1137 1378M1121 1295L1137 1378M1239 1288L1284 1310M1239 1288L1257 1395M1284 1310L1257 1395M1284 1310L1362 1384M1404 1304L1481 1283M1404 1304L1362 1384M1404 1304L1493 1364M1481 1283L1524 1345M1481 1283L1493 1364M1524 1345L1493 1364M1524 1345L1579 1399M1673 1354L1739 1334M1673 1354L1579 1399M1673 1354L1609 1431M1673 1354L1726 1413M1739 1334L1726 1413M1739 1334L1792 1379M1839 1283L1864 1289M1839 1283L1792 1379M1864 1289L1933 1338M1933 1338L2020 1351M1933 1338L1899 1388M1933 1338L1988 1383M2020 1351L1988 1383M2020 1351L2076 1394M2119 1293L2185 1325M2119 1293L2151 1382M2185 1325L2151 1382M2185 1325L2162 1412M2307 1305L2330 1342M2307 1305L2312 1421M2330 1342L2312 1421M2330 1342L2364 1411M2330 1342L2414 1394M2455 1332L2554 1353M2455 1332L2414 1394M2554 1353L2574 1403M2554 1353L2523 1425M-6 1353L14 1403M14 1403L110 1403M14 1403L-37 1425M2574 1403L2523 1425M227 1386L287 1373M287 1373L329 1374M428 1373L488 1438M488 1438L563 1429M563 1429L658 1434M658 1434L730 1420M830 1420L895 1435M895 1435L984 1387M1096 1419L1137 1378M1257 1395L1313 1425M1313 1425L1362 1384M1579 1399L1609 1431M1726 1413L1792 1379M1792 1379L1899 1388M1899 1388L1988 1383M1988 1383L2076 1394M2076 1394L2151 1382M2076 1394L2162 1412M2151 1382L2162 1412M2312 1421L2364 1411M2364 1411L2414 1394M2414 1394L2523 1425"/></svg>