<svg xmlns="http://www.w3.org/2000/svg" width="2560" height="1440" fill="#fff"><circle cx="77" cy="38" r="5"/><circle cx="142" cy="74" r="4"/><circle cx="192" cy="41" r="5"/><circle cx="245" cy="1" r="4"/><circle cx="245" cy="1441" r="4"/><circle cx="349" cy="70" r="6"/><circle cx="444" cy="56" r="6"/><circle cx="541" cy="74" r="4"/><circle cx="590" cy="80" r="5"/><circle cx="718" cy="62" r="4"/><circle cx="747" cy="1" r="4"/><circle cx="747" cy="1441" r="4"/><circle cx="824" cy="13" r="5"/><circle cx="934" cy="9" r="4"/><circle cx="994" cy="14" r="5"/><circle cx="1090" cy="65" r="4"/><circle cx="1185" cy="51" r="4"/><circle cx="1251" cy="31" r="5"/><circle cx="1294" cy="47" r="5"/><circle cx="1431" cy="58" r="6"/><circle cx="1459" cy="73" r="5"/><circle cx="1580" cy="66" r="5"/><circle cx="1676" cy="16" r="4"/><circle cx="1757" cy="6" r="5"/><circle cx="1821" cy="24" r="4"/><circle cx="1846" cy="63" r="4"/><circle cx="1922" cy="16" r="5"/><circle cx="2074" cy="56" r="4"/><circle cx="2111" cy="64" r="5"/><circle cx="2219" cy="30" r="6"/><circle cx="2278" cy="77" r="5"/><circle cx="2347" cy="4" r="5"/><circle cx="2347" cy="1444" r="5"/><circle cx="2416" cy="71" r="5"/><circle cx="2555" cy="15" r="5"/><circle cx="-5" cy="15" r="5"/><circle cx="25" cy="123" r="5"/><circle cx="107" cy="107" r="6"/><circle cx="165" cy="82" r="4"/><circle cx="271" cy="147" r="5"/><circle cx="384" cy="108" r="4"/><circle cx="462" cy="99" r="6"/><circle cx="522" cy="137" r="5"/><circle cx="593" cy="138" r="5"/><circle cx="689" cy="130" r="5"/><circle cx="760" cy="120" r="6"/><circle cx="821" cy="115" r="6"/><circle cx="912" cy="142" r="5"/><circle cx="1014" cy="110" r="5"/><circle cx="1069" cy="116" r="5"/><circle cx="1145" cy="102" r="5"/><circle cx="1215" cy="105" r="5"/><circle cx="1324" cy="87" r="6"/><circle cx="1423" cy="152" r="4"/><circle cx="1449" cy="123" r="4"/><circle cx="1591" cy="95" r="4"/><circle cx="1639" cy="148" r="5"/><circle cx="1733" cy="95" r="5"/><circle cx="1803" cy="120" r="6"/><circle cx="1866" cy="96" r="6"/><circle cx="1970" cy="147" r="4"/><circle cx="2070" cy="132" r="5"/><circle cx="2120" cy="102" r="5"/><circle cx="2224" cy="130" r="5"/><circle cx="2254" cy="134" r="5"/><circle cx="2364" cy="91" r="5"/><circle cx="2445" cy="90" r="6"/><circle cx="2504" cy="154" r="5"/><circle cx="58" cy="168" r="4"/><circle cx="114" cy="219" r="6"/><circle cx="197" cy="220" r="5"/><circle cx="299" cy="200" r="4"/><circle cx="368" cy="197" r="5"/><circle cx="405" cy="175" r="6"/><circle cx="549" cy="238" r="4"/><circle cx="598" cy="184" r="5"/><circle cx="650" cy="206" r="6"/><circle cx="763" cy="182" r="5"/><circle cx="867" cy="206" r="6"/><circle cx="897" cy="228" r="6"/><circle cx="961" cy="168" r="5"/><circle cx="1084" cy="240" r="6"/><circle cx="1171" cy="220" r="6"/><circle cx="1268" cy="193" r="6"/><circle cx="1295" cy="163" r="4"/><circle cx="1402" cy="179" r="5"/><circle cx="1488" cy="206" r="5"/><circle cx="1540" cy="187" r="6"/><circle cx="1602" cy="200" r="5"/><circle cx="1707" cy="222" r="5"/><circle cx="1804" cy="213" r="5"/><circle cx="1846" cy="192" r="6"/><circle cx="1980" cy="198" r="5"/><circle cx="2041" cy="214" r="4"/><circle cx="2100" cy="233" r="4"/><circle cx="2228" cy="192" r="4"/><circle cx="2253" cy="177" r="4"/><circle cx="2352" cy="176" r="5"/><circle cx="2458" cy="161" r="5"/><circle cx="2530" cy="198" r="4"/><circle cx="18" cy="257" r="6"/><circle cx="133" cy="298" r="6"/><circle cx="221" cy="250" r="6"/><circle cx="311" cy="251" r="5"/><circle cx="355" cy="302" r="6"/><circle cx="410" cy="317" r="5"/><circle cx="489" cy="262" r="5"/><circle cx="639" cy="312" r="5"/><circle cx="713" cy="283" r="6"/><circle cx="788" cy="272" r="5"/><circle cx="874" cy="283" r="6"/><circle cx="887" cy="304" r="5"/><circle cx="1013" cy="314" r="5"/><circle cx="1047" cy="253" r="5"/><circle cx="1192" cy="274" r="5"/><circle cx="1266" cy="272" r="5"/><circle cx="1342" cy="314" r="6"/><circle cx="1374" cy="294" r="5"/><circle cx="1517" cy="316" r="6"/><circle cx="1540" cy="314" r="6"/><circle cx="1618" cy="293" r="4"/><circle cx="1734" cy="306" r="5"/><circle cx="1780" cy="307" r="5"/><circle cx="1891" cy="317" r="5"/><circle cx="1968" cy="267" r="5"/><circle cx="2030" cy="314" r="5"/><circle cx="2152" cy="270" r="6"/><circle cx="2171" cy="285" r="5"/><circle cx="2279" cy="276" r="5"/><circle cx="2374" cy="248" r="4"/><circle cx="2401" cy="256" r="5"/><circle cx="2540" cy="254" r="5"/><circle cx="52" cy="326" r="5"/><circle cx="109" cy="360" r="4"/><circle cx="217" cy="368" r="5"/><circle cx="290" cy="381" r="6"/><circle cx="334" cy="391" r="5"/><circle cx="454" cy="325" r="6"/><circle cx="485" cy="343" r="4"/><circle cx="591" cy="393" r="5"/><circle cx="685" cy="364" r="6"/><circle cx="780" cy="398" r="5"/><circle cx="805" cy="372" r="5"/><circle cx="945" cy="391" r="6"/><circle cx="1012" cy="357" r="5"/><circle cx="1066" cy="388" r="5"/><circle cx="1150" cy="373" r="4"/><circle cx="1245" cy="348" r="5"/><circle cx="1359" cy="361" r="5"/><circle cx="1413" cy="383" r="5"/><circle cx="1520" cy="361" r="5"/><circle cx="1590" cy="394" r="4"/><circle cx="1638" cy="379" r="6"/><circle cx="1743" cy="376" r="5"/><circle cx="1811" cy="331" r="6"/><circle cx="1905" cy="376" r="4"/><circle cx="1954" cy="354" r="5"/><circle cx="2035" cy="362" r="4"/><circle cx="2126" cy="357" r="5"/><circle cx="2183" cy="374" r="5"/><circle cx="2303" cy="394" r="4"/><circle cx="2337" cy="352" r="5"/><circle cx="2467" cy="394" r="5"/><circle cx="2488" cy="326" r="4"/><circle cx="4" cy="453" r="6"/><circle cx="2564" cy="453" r="6"/><circle cx="113" cy="463" r="6"/><circle cx="165" cy="424" r="4"/><circle cx="244" cy="449" r="6"/><circle cx="356" cy="424" r="4"/><circle cx="440" cy="463" r="5"/><circle cx="555" cy="463" r="6"/><circle cx="578" cy="471" r="5"/><circle cx="706" cy="436" r="4"/><circle cx="752" cy="411" r="5"/><circle cx="834" cy="449" r="5"/><circle cx="886" cy="407" r="4"/><circle cx="1013" cy="453" r="5"/><circle cx="1081" cy="447" r="5"/><circle cx="1180" cy="466" r="5"/><circle cx="1241" cy="424" r="6"/><circle cx="1355" cy="418" r="5"/><circle cx="1365" cy="418" r="5"/><circle cx="1512" cy="434" r="6"/><circle cx="1592" cy="461" r="5"/><circle cx="1669" cy="425" r="4"/><circle cx="1712" cy="449" r="4"/><circle cx="1831" cy="458" r="5"/><circle cx="1887" cy="471" r="5"/><circle cx="1925" cy="422" r="5"/><circle cx="2062" cy="430" r="6"/><circle cx="2157" cy="428" r="4"/><circle cx="2185" cy="426" r="4"/><circle cx="2269" cy="402" r="4"/><circle cx="2375" cy="439" r="5"/><circle cx="2470" cy="470" r="5"/><circle cx="2550" cy="408" r="4"/><circle cx="50" cy="541" r="6"/><circle cx="126" cy="527" r="5"/><circle cx="184" cy="492" r="5"/><circle cx="250" cy="533" r="6"/><circle cx="367" cy="535" r="5"/><circle cx="425" cy="492" r="5"/><circle cx="513" cy="486" r="5"/><circle cx="562" cy="482" r="5"/><circle cx="689" cy="520" r="5"/><circle cx="781" cy="504" r="6"/><circle cx="832" cy="512" r="5"/><circle cx="947" cy="481" r="4"/><circle cx="966" cy="502" r="4"/><circle cx="1060" cy="499" r="5"/><circle cx="1172" cy="537" r="6"/><circle cx="1277" cy="559" r="5"/><circle cx="1287" cy="515" r="4"/><circle cx="1437" cy="535" r="5"/><circle cx="1503" cy="557" r="4"/><circle cx="1530" cy="506" r="5"/><circle cx="1622" cy="512" r="6"/><circle cx="1694" cy="501" r="5"/><circle cx="1762" cy="553" r="5"/><circle cx="1873" cy="505" r="5"/><circle cx="1942" cy="511" r="4"/><circle cx="2012" cy="560" r="5"/><circle cx="2136" cy="537" r="4"/><circle cx="2168" cy="550" r="5"/><circle cx="2302" cy="503" r="5"/><circle cx="2371" cy="502" r="4"/><circle cx="2405" cy="520" r="4"/><circle cx="2522" cy="490" r="4"/><circle cx="66" cy="623" r="5"/><circle cx="157" cy="622" r="5"/><circle cx="226" cy="620" r="5"/><circle cx="270" cy="571" r="4"/><circle cx="359" cy="561" r="5"/><circle cx="432" cy="581" r="5"/><circle cx="505" cy="584" r="5"/><circle cx="616" cy="608" r="6"/><circle cx="666" cy="636" r="4"/><circle cx="791" cy="567" r="4"/><circle cx="858" cy="596" r="5"/><circle cx="908" cy="632" r="5"/><circle cx="980" cy="621" r="6"/><circle cx="1079" cy="612" r="5"/><circle cx="1176" cy="570" r="5"/><circle cx="1269" cy="575" r="5"/><circle cx="1317" cy="571" r="5"/><circle cx="1407" cy="611" r="5"/><circle cx="1513" cy="565" r="4"/><circle cx="1591" cy="567" r="5"/><circle cx="1634" cy="636" r="5"/><circle cx="1740" cy="598" r="5"/><circle cx="1777" cy="587" r="6"/><circle cx="1855" cy="571" r="6"/><circle cx="1963" cy="602" r="5"/><circle cx="2051" cy="590" r="6"/><circle cx="2148" cy="619" r="6"/><circle cx="2168" cy="614" r="5"/><circle cx="2317" cy="589" r="5"/><circle cx="2353" cy="573" r="5"/><circle cx="2470" cy="561" r="4"/><circle cx="2527" cy="623" r="6"/><circle cx="9" cy="660" r="4"/><circle cx="156" cy="698" r="5"/><circle cx="188" cy="683" r="4"/><circle cx="254" cy="642" r="5"/><circle cx="392" cy="652" r="5"/><circle cx="473" cy="659" r="6"/><circle cx="558" cy="647" r="5"/><circle cx="610" cy="646" r="4"/><circle cx="683" cy="649" r="5"/><circle cx="722" cy="684" r="6"/><circle cx="805" cy="714" r="4"/><circle cx="924" cy="661" r="6"/><circle cx="1026" cy="655" r="5"/><circle cx="1079" cy="644" r="5"/><circle cx="1175" cy="667" r="6"/><circle cx="1209" cy="665" r="4"/><circle cx="1334" cy="648" r="5"/><circle cx="1434" cy="697" r="5"/><circle cx="1455" cy="699" r="4"/><circle cx="1532" cy="672" r="4"/><circle cx="1639" cy="688" r="5"/><circle cx="1718" cy="692" r="5"/><circle cx="1762" cy="644" r="6"/><circle cx="1851" cy="697" r="5"/><circle cx="1978" cy="692" r="6"/><circle cx="2045" cy="649" r="5"/><circle cx="2133" cy="658" r="5"/><circle cx="2234" cy="708" r="5"/><circle cx="2251" cy="693" r="5"/><circle cx="2321" cy="679" r="4"/><circle cx="2432" cy="689" r="5"/><circle cx="2519" cy="713" r="4"/><circle cx="74" cy="764" r="4"/><circle cx="160" cy="788" r="6"/><circle cx="200" cy="784" r="6"/><circle cx="252" cy="798" r="4"/><circle cx="334" cy="761" r="4"/><circle cx="458" cy="760" r="5"/><circle cx="516" cy="777" r="4"/><circle cx="638" cy="784" r="6"/><circle cx="649" cy="785" r="5"/><circle cx="734" cy="753" r="4"/><circle cx="817" cy="731" r="5"/><circle cx="889" cy="756" r="6"/><circle cx="972" cy="778" r="6"/><circle cx="1093" cy="724" r="5"/><circle cx="1172" cy="773" r="5"/><circle cx="1220" cy="767" r="5"/><circle cx="1339" cy="743" r="5"/><circle cx="1394" cy="783" r="6"/><circle cx="1466" cy="725" r="5"/><circle cx="1523" cy="723" r="4"/><circle cx="1612" cy="723" r="5"/><circle cx="1735" cy="747" r="4"/><circle cx="1833" cy="746" r="5"/><circle cx="1916" cy="731" r="5"/><circle cx="1981" cy="746" r="5"/><circle cx="2068" cy="762" r="5"/><circle cx="2101" cy="780" r="6"/><circle cx="2189" cy="779" r="5"/><circle cx="2307" cy="788" r="5"/><circle cx="2324" cy="744" r="6"/><circle cx="2430" cy="735" r="5"/><circle cx="2526" cy="784" r="4"/><circle cx="62" cy="813" r="5"/><circle cx="83" cy="837" r="4"/><circle cx="175" cy="810" r="4"/><circle cx="266" cy="855" r="5"/><circle cx="340" cy="805" r="5"/><circle cx="452" cy="869" r="5"/><circle cx="497" cy="835" r="4"/><circle cx="584" cy="874" r="5"/><circle cx="707" cy="873" r="6"/><circle cx="732" cy="868" r="5"/><circle cx="847" cy="837" r="4"/><circle cx="938" cy="870" r="5"/><circle cx="1016" cy="800" r="6"/><circle cx="1085" cy="830" r="4"/><circle cx="1142" cy="880" r="6"/><circle cx="1200" cy="848" r="5"/><circle cx="1358" cy="852" r="4"/><circle cx="1389" cy="876" r="4"/><circle cx="1464" cy="804" r="5"/><circle cx="1523" cy="836" r="6"/><circle cx="1649" cy="879" r="5"/><circle cx="1734" cy="866" r="6"/><circle cx="1785" cy="813" r="6"/><circle cx="1901" cy="810" r="5"/><circle cx="1924" cy="851" r="5"/><circle cx="2080" cy="829" r="4"/><circle cx="2148" cy="820" r="4"/><circle cx="2207" cy="841" r="4"/><circle cx="2256" cy="868" r="5"/><circle cx="2394" cy="835" r="6"/><circle cx="2422" cy="878" r="5"/><circle cx="2531" cy="836" r="6"/><circle cx="17" cy="937" r="6"/><circle cx="143" cy="952" r="5"/><circle cx="215" cy="953" r="5"/><circle cx="262" cy="909" r="6"/><circle cx="353" cy="893" r="5"/><circle cx="429" cy="920" r="6"/><circle cx="493" cy="902" r="5"/><circle cx="566" cy="884" r="5"/><circle cx="677" cy="949" r="5"/><circle cx="735" cy="924" r="4"/><circle cx="874" cy="902" r="6"/><circle cx="913" cy="913" r="5"/><circle cx="965" cy="901" r="5"/><circle cx="1091" cy="933" r="5"/><circle cx="1170" cy="951" r="4"/><circle cx="1203" cy="932" r="6"/><circle cx="1284" cy="914" r="6"/><circle cx="1384" cy="896" r="4"/><circle cx="1474" cy="950" r="6"/><circle cx="1557" cy="895" r="5"/><circle cx="1629" cy="935" r="5"/><circle cx="1682" cy="882" r="4"/><circle cx="1828" cy="887" r="6"/><circle cx="1902" cy="908" r="5"/><circle cx="1969" cy="919" r="4"/><circle cx="2050" cy="914" r="4"/><circle cx="2124" cy="919" r="5"/><circle cx="2235" cy="924" r="5"/><circle cx="2257" cy="917" r="5"/><circle cx="2394" cy="894" r="5"/><circle cx="2442" cy="915" r="4"/><circle cx="2553" cy="939" r="5"/><circle cx="67" cy="1003" r="5"/><circle cx="113" cy="1027" r="4"/><circle cx="186" cy="995" r="4"/><circle cx="250" cy="967" r="5"/><circle cx="337" cy="971" r="5"/><circle cx="475" cy="1008" r="5"/><circle cx="552" cy="1037" r="5"/><circle cx="575" cy="1030" r="4"/><circle cx="697" cy="981" r="6"/><circle cx="736" cy="1017" r="6"/><circle cx="844" cy="966" r="6"/><circle cx="882" cy="1010" r="4"/><circle cx="983" cy="982" r="4"/><circle cx="1103" cy="1007" r="4"/><circle cx="1153" cy="990" r="5"/><circle cx="1266" cy="965" r="5"/><circle cx="1314" cy="1020" r="6"/><circle cx="1392" cy="1001" r="5"/><circle cx="1514" cy="967" r="6"/><circle cx="1572" cy="1024" r="4"/><circle cx="1619" cy="1016" r="4"/><circle cx="1734" cy="1014" r="6"/><circle cx="1829" cy="995" r="6"/><circle cx="1865" cy="960" r="4"/><circle cx="1984" cy="977" r="6"/><circle cx="2028" cy="970" r="5"/><circle cx="2151" cy="1021" r="6"/><circle cx="2207" cy="1029" r="5"/><circle cx="2256" cy="1001" r="5"/><circle cx="2324" cy="981" r="6"/><circle cx="2428" cy="1029" r="5"/><circle cx="2511" cy="962" r="5"/><circle cx="10" cy="1114" r="6"/><circle cx="89" cy="1090" r="4"/><circle cx="235" cy="1107" r="6"/><circle cx="297" cy="1087" r="6"/><circle cx="355" cy="1095" r="6"/><circle cx="450" cy="1088" r="5"/><circle cx="536" cy="1080" r="4"/><circle cx="593" cy="1098" r="5"/><circle cx="685" cy="1045" r="5"/><circle cx="752" cy="1095" r="5"/><circle cx="823" cy="1066" r="6"/><circle cx="903" cy="1095" r="5"/><circle cx="1001" cy="1043" r="5"/><circle cx="1052" cy="1103" r="4"/><circle cx="1185" cy="1109" r="6"/><circle cx="1277" cy="1063" r="4"/><circle cx="1297" cy="1078" r="5"/><circle cx="1382" cy="1086" r="4"/><circle cx="1447" cy="1096" r="5"/><circle cx="1558" cy="1054" r="6"/><circle cx="1638" cy="1108" r="5"/><circle cx="1715" cy="1057" r="5"/><circle cx="1808" cy="1046" r="5"/><circle cx="1870" cy="1093" r="5"/><circle cx="1951" cy="1103" r="5"/><circle cx="2006" cy="1102" r="5"/><circle cx="2145" cy="1054" r="6"/><circle cx="2188" cy="1118" r="6"/><circle cx="2290" cy="1083" r="5"/><circle cx="2385" cy="1083" r="4"/><circle cx="2401" cy="1090" r="5"/><circle cx="2545" cy="1090" r="5"/><circle cx="45" cy="1142" r="5"/><circle cx="106" cy="1125" r="4"/><circle cx="227" cy="1176" r="5"/><circle cx="253" cy="1133" r="4"/><circle cx="337" cy="1130" r="4"/><circle cx="466" cy="1154" r="6"/><circle cx="511" cy="1186" r="4"/><circle cx="627" cy="1131" r="4"/><circle cx="677" cy="1149" r="4"/><circle cx="745" cy="1153" r="4"/><circle cx="813" cy="1177" r="4"/><circle cx="943" cy="1149" r="5"/><circle cx="1004" cy="1147" r="5"/><circle cx="1058" cy="1159" r="5"/><circle cx="1141" cy="1136" r="4"/><circle cx="1219" cy="1151" r="5"/><circle cx="1282" cy="1181" r="6"/><circle cx="1439" cy="1146" r="4"/><circle cx="1441" cy="1141" r="5"/><circle cx="1562" cy="1132" r="6"/><circle cx="1648" cy="1189" r="6"/><circle cx="1696" cy="1143" r="5"/><circle cx="1772" cy="1128" r="5"/><circle cx="1860" cy="1171" r="5"/><circle cx="1978" cy="1128" r="5"/><circle cx="2005" cy="1171" r="5"/><circle cx="2137" cy="1190" r="4"/><circle cx="2227" cy="1189" r="5"/><circle cx="2308" cy="1131" r="4"/><circle cx="2370" cy="1150" r="5"/><circle cx="2403" cy="1177" r="6"/><circle cx="2523" cy="1182" r="4"/><circle cx="24" cy="1260" r="5"/><circle cx="107" cy="1210" r="4"/><circle cx="203" cy="1214" r="6"/><circle cx="247" cy="1220" r="5"/><circle cx="390" cy="1212" r="6"/><circle cx="477" cy="1207" r="5"/><circle cx="505" cy="1243" r="6"/><circle cx="613" cy="1215" r="5"/><circle cx="713" cy="1250" r="6"/><circle cx="739" cy="1239" r="6"/><circle cx="804" cy="1249" r="4"/><circle cx="945" cy="1208" r="5"/><circle cx="979" cy="1209" r="5"/><circle cx="1072" cy="1254" r="5"/><circle cx="1120" cy="1270" r="4"/><circle cx="1259" cy="1277" r="5"/><circle cx="1357" cy="1242" r="5"/><circle cx="1386" cy="1244" r="4"/><circle cx="1512" cy="1247" r="4"/><circle cx="1587" cy="1234" r="5"/><circle cx="1637" cy="1261" r="5"/><circle cx="1734" cy="1221" r="6"/><circle cx="1774" cy="1241" r="4"/><circle cx="1905" cy="1262" r="4"/><circle cx="1946" cy="1214" r="6"/><circle cx="2016" cy="1277" r="4"/><circle cx="2096" cy="1210" r="5"/><circle cx="2195" cy="1279" r="4"/><circle cx="2284" cy="1217" r="4"/><circle cx="2356" cy="1251" r="4"/><circle cx="2463" cy="1245" r="4"/><circle cx="2548" cy="1218" r="6"/><circle cx="37" cy="1332" r="6"/><circle cx="134" cy="1290" r="5"/><circle cx="173" cy="1329" r="4"/><circle cx="250" cy="1309" r="6"/><circle cx="387" cy="1318" r="5"/><circle cx="441" cy="1341" r="4"/><circle cx="495" cy="1330" r="5"/><circle cx="602" cy="1290" r="6"/><circle cx="658" cy="1357" r="5"/><circle cx="739" cy="1322" r="6"/><circle cx="817" cy="1326" r="6"/><circle cx="905" cy="1355" r="6"/><circle cx="1019" cy="1333" r="6"/><circle cx="1075" cy="1313" r="5"/><circle cx="1142" cy="1310" r="6"/><circle cx="1220" cy="1291" r="5"/><circle cx="1355" cy="1352" r="6"/><circle cx="1409" cy="1330" r="6"/><circle cx="1479" cy="1286" r="6"/><circle cx="1550" cy="1341" r="5"/><circle cx="1652" cy="1281" r="5"/><circle cx="1714" cy="1319" r="5"/><circle cx="1783" cy="1330" r="5"/><circle cx="1886" cy="1282" r="5"/><circle cx="1945" cy="1327" r="6"/><circle cx="2015" cy="1336" r="4"/><circle cx="2116" cy="1304" r="5"/><circle cx="2167" cy="1285" r="5"/><circle cx="2278" cy="1357" r="5"/><circle cx="2341" cy="1357" r="4"/><circle cx="2459" cy="1319" r="5"/><circle cx="2524" cy="1295" r="4"/><circle cx="58" cy="1422" r="5"/><circle cx="106" cy="1427" r="5"/><circle cx="202" cy="1435" r="6"/><circle cx="202" cy="-5" r="6"/><circle cx="290" cy="1363" r="5"/><circle cx="383" cy="1375" r="6"/><circle cx="419" cy="1387" r="5"/><circle cx="515" cy="1436" r="5"/><circle cx="515" cy="-4" r="5"/><circle cx="572" cy="1399" r="4"/><circle cx="716" cy="1370" r="4"/><circle cx="738" cy="1368" r="4"/><circle cx="822" cy="1439" r="5"/><circle cx="822" cy="-1" r="5"/><circle cx="887" cy="1384" r="5"/><circle cx="965" cy="1370" r="6"/><circle cx="1049" cy="1409" r="5"/><circle cx="1185" cy="1387" r="5"/><circle cx="1203" cy="1415" r="4"/><circle cx="1336" cy="1401" r="5"/><circle cx="1406" cy="1376" r="6"/><circle cx="1491" cy="1400" r="5"/><circle cx="1546" cy="1373" r="6"/><circle cx="1645" cy="1408" r="5"/><circle cx="1738" cy="1414" r="5"/><circle cx="1815" cy="1409" r="5"/><circle cx="1844" cy="1405" r="5"/><circle cx="1974" cy="1374" r="6"/><circle cx="2045" cy="1396" r="5"/><circle cx="2135" cy="1388" r="4"/><circle cx="2187" cy="1430" r="5"/><circle cx="2248" cy="1383" r="6"/><circle cx="2344" cy="1367" r="5"/><circle cx="2478" cy="1383" r="5"/><circle cx="2513" cy="1369" r="4"/><path stroke="#fff" d="M77 38L142 74M77 38L-5 15M77 38L107 107M77 38L58 -18M77 38L106 -13M2637 38L2555 15M77 1478L58 1422M77 1478L106 1427M142 74L192 41M142 74L107 107M142 74L165 82M142 74L202 -5M142 1514L202 1435M192 41L245 1M192 41L165 82M192 41L202 -5M192 1481L202 1435M245 1L202 -5M245 1L290 -77M245 1441L202 1435M245 1441L290 1363M349 70L444 56M349 70L271 147M349 70L384 108M349 70L405 175M444 56L384 108M444 56L462 99M444 56L515 -4M444 1496L515 1436M541 74L590 80M541 74L462 99M541 74L522 137M541 74L593 138M541 74L515 -4M541 1514L515 1436M590 80L522 137M590 80L593 138M718 62L747 1M718 62L689 130M718 62L760 120M747 1L824 13M747 1L716 -70M747 1L738 -72M747 1L822 -1M747 1441L716 1370M747 1441L738 1368M747 1441L822 1439M824 13L760 120M824 13L821 115M824 13L822 -1M824 1453L822 1439M934 9L994 14M934 9L905 -85M934 9L822 -1M934 9L887 -56M934 9L965 -70M934 1449L905 1355M934 1449L822 1439M934 1449L887 1384M934 1449L965 1370M994 14L1014 110M994 14L965 -70M994 14L1049 -31M994 1454L965 1370M994 1454L1049 1409M1090 65L1014 110M1090 65L1069 116M1090 65L1145 102M1090 65L1049 -31M1090 1505L1049 1409M1185 51L1251 31M1185 51L1145 102M1185 51L1215 105M1185 51L1185 -53M1185 51L1203 -25M1185 1491L1185 1387M1185 1491L1203 1415M1251 31L1294 47M1251 31L1215 105M1251 31L1324 87M1251 31L1203 -25M1251 1471L1203 1415M1294 47L1324 87M1294 47L1203 -25M1294 47L1336 -39M1294 1487L1203 1415M1294 1487L1336 1401M1431 58L1459 73M1431 58L1324 87M1431 58L1423 152M1431 58L1449 123M1431 58L1491 -40M1431 1498L1491 1400M1459 73L1423 152M1459 73L1449 123M1459 73L1402 179M1459 73L1491 -40M1459 1513L1491 1400M1580 66L1676 16M1580 66L1591 95M1580 66L1639 148M1580 66L1645 -32M1580 1506L1645 1408M1676 16L1757 6M1676 16L1733 95M1676 16L1645 -32M1676 16L1738 -26M1676 1456L1645 1408M1676 1456L1738 1414M1757 6L1821 24M1757 6L1733 95M1757 6L1738 -26M1757 6L1815 -31M1757 1446L1738 1414M1757 1446L1815 1409M1821 24L1846 63M1821 24L1866 96M1821 24L1815 -31M1821 24L1844 -35M1821 1464L1815 1409M1821 1464L1844 1405M1846 63L1922 16M1846 63L1803 120M1846 63L1866 96M1846 63L1844 -35M1846 1503L1844 1405M1922 16L1866 96M1922 16L1844 -35M1922 16L1974 -66M1922 1456L1844 1405M1922 1456L1974 1374M2074 56L2111 64M2074 56L2070 132M2074 56L2120 102M2074 56L2045 -44M2074 1496L2045 1396M2111 64L2070 132M2111 64L2120 102M2111 64L2187 -10M2111 1504L2187 1430M2219 30L2278 77M2219 30L2224 130M2219 30L2254 134M2219 30L2187 -10M2219 30L2248 -57M2219 1470L2187 1430M2219 1470L2248 1383M2278 77L2347 4M2278 77L2224 130M2278 77L2254 134M2278 77L2364 91M2347 4L2416 71M2347 4L2364 91M2347 4L2341 -83M2347 4L2344 -73M2347 1444L2341 1357M2347 1444L2344 1367M2416 71L2364 91M2416 71L2445 90M2416 71L2458 161M2555 15L2585 123M2555 15L2618 -18M2555 15L2478 -57M2555 15L2513 -71M-5 15L25 123M-5 15L58 -18M-5 1455L58 1422M2555 1455L2618 1422M2555 1455L2478 1383M2555 1455L2513 1369M25 123L107 107M25 123L-56 154M25 123L58 168M25 123L-30 198M2585 123L2504 154M2585 123L2530 198M107 107L165 82M107 107L58 168M165 82L106 -13M165 82L202 -5M165 1522L106 1427M165 1522L202 1435M271 147L197 220M271 147L299 200M384 108L462 99M384 108L368 197M384 108L405 175M462 99L522 137M462 99L405 175M522 137L593 138M522 137L598 184M593 138L598 184M593 138L650 206M689 130L760 120M689 130L598 184M689 130L650 206M689 130L763 182M760 120L821 115M760 120L763 182M821 115L912 142M821 115L763 182M821 115L867 206M912 142L1014 110M912 142L867 206M912 142L897 228M912 142L961 168M1014 110L1069 116M1014 110L961 168M1069 116L1145 102M1069 116L961 168M1069 116L1084 240M1145 102L1215 105M1145 102L1171 220M1215 105L1324 87M1215 105L1268 193M1324 87L1295 163M1423 152L1449 123M1423 152L1402 179M1423 152L1488 206M1449 123L1402 179M1449 123L1488 206M1591 95L1639 148M1591 95L1540 187M1591 95L1602 200M1639 148L1540 187M1639 148L1602 200M1639 148L1707 222M1733 95L1803 120M1803 120L1866 96M1803 120L1804 213M1803 120L1846 192M1866 96L1846 192M1970 147L2070 132M1970 147L1980 198M2070 132L2120 102M2070 132L2041 214M2224 130L2254 134M2224 130L2228 192M2224 130L2253 177M2254 134L2228 192M2254 134L2253 177M2364 91L2445 90M2364 91L2352 176M2445 90L2504 154M2445 90L2458 161M2504 154L2458 161M2504 154L2530 198M2504 154L2540 254M58 168L114 219M58 168L18 257M114 219L197 220M114 219L18 257M114 219L133 298M114 219L221 250M197 220L133 298M197 220L221 250M299 200L368 197M299 200L405 175M299 200L221 250M299 200L311 251M368 197L405 175M368 197L311 251M549 238L598 184M549 238L489 262M549 238L639 312M549 238L454 325M598 184L650 206M650 206L639 312M650 206L713 283M763 182L788 272M867 206L897 228M867 206L874 283M867 206L887 304M897 228L961 168M897 228L874 283M897 228L887 304M961 168L1047 253M1084 240L1171 220M1084 240L1013 314M1084 240L1047 253M1084 240L1192 274M1171 220L1268 193M1171 220L1192 274M1171 220L1266 272M1268 193L1295 163M1268 193L1192 274M1268 193L1266 272M1295 163L1402 179M1402 179L1488 206M1488 206L1540 187M1488 206L1517 316M1540 187L1602 200M1602 200L1707 222M1602 200L1618 293M1707 222L1804 213M1707 222L1734 306M1804 213L1846 192M1804 213L1780 307M1980 198L2041 214M1980 198L1968 267M2041 214L2100 233M2041 214L1968 267M2100 233L2152 270M2100 233L2171 285M2228 192L2253 177M2228 192L2152 270M2228 192L2279 276M2253 177L2352 176M2253 177L2279 276M2352 176L2458 161M2352 176L2374 248M2352 176L2401 256M2458 161L2530 198M2530 198L2578 257M2530 198L2540 254M-30 198L18 257M18 257L-20 254M18 257L52 326M2578 257L2540 254M133 298L221 250M133 298L52 326M133 298L109 360M221 250L311 251M311 251L355 302M355 302L410 317M355 302L290 381M355 302L334 391M355 302L454 325M410 317L489 262M410 317L334 391M410 317L454 325M410 317L485 343M489 262L454 325M489 262L485 343M639 312L713 283M639 312L591 393M639 312L685 364M713 283L788 272M713 283L685 364M788 272L874 283M788 272L887 304M788 272L805 372M874 283L887 304M1013 314L1047 253M1013 314L945 391M1013 314L1012 357M1013 314L1066 388M1047 253L1012 357M1192 274L1266 272M1192 274L1245 348M1266 272L1342 314M1266 272L1245 348M1342 314L1374 294M1342 314L1245 348M1342 314L1359 361M1342 314L1365 418M1374 294L1359 361M1374 294L1413 383M1517 316L1540 314M1517 316L1618 293M1517 316L1520 361M1517 316L1512 434M1540 314L1618 293M1540 314L1520 361M1540 314L1590 394M1618 293L1638 379M1734 306L1780 307M1734 306L1743 376M1734 306L1811 331M1780 307L1891 317M1780 307L1743 376M1780 307L1811 331M1891 317L1968 267M1891 317L1811 331M1891 317L1905 376M1891 317L1954 354M1968 267L2030 314M1968 267L1954 354M2030 314L2035 362M2030 314L2062 430M2152 270L2171 285M2152 270L2126 357M2171 285L2279 276M2171 285L2126 357M2171 285L2183 374M2279 276L2374 248M2279 276L2337 352M2374 248L2401 256M2401 256L2337 352M2401 256L2488 326M2540 254L2612 326M2540 254L2488 326M-20 254L52 326M52 326L109 360M52 326L-10 408M2612 326L2550 408M109 360L217 368M109 360L165 424M217 368L290 381M217 368L165 424M217 368L244 449M290 381L334 391M290 381L244 449M290 381L356 424M334 391L356 424M454 325L485 343M591 393L685 364M591 393L555 463M591 393L578 471M591 393L562 482M685 364L706 436M685 364L752 411M780 398L805 372M780 398L706 436M780 398L752 411M780 398L834 449M805 372L752 411M805 372L834 449M805 372L886 407M945 391L1012 357M945 391L886 407M945 391L1013 453M945 391L947 481M1012 357L1066 388M1066 388L1150 373M1066 388L1081 447M1150 373L1245 348M1150 373L1081 447M1150 373L1180 466M1150 373L1241 424M1245 348L1241 424M1359 361L1413 383M1359 361L1355 418M1359 361L1365 418M1413 383L1355 418M1413 383L1365 418M1520 361L1590 394M1520 361L1512 434M1590 394L1638 379M1590 394L1512 434M1590 394L1592 461M1638 379L1743 376M1638 379L1592 461M1638 379L1669 425M1743 376L1811 331M1743 376L1712 449M1811 331L1905 376M1905 376L1954 354M1905 376L1925 422M1954 354L2035 362M1954 354L1925 422M2035 362L2062 430M2126 357L2183 374M2126 357L2062 430M2126 357L2157 428M2183 374L2157 428M2183 374L2185 426M2183 374L2269 402M2303 394L2337 352M2303 394L2269 402M2303 394L2375 439M2337 352L2269 402M2337 352L2375 439M2467 394L2488 326M2467 394L2470 470M2467 394L2550 408M2488 326L2550 408M4 453L113 463M4 453L-90 470M4 453L-10 408M4 453L50 541M4 453L-38 490M2564 453L2470 470M2564 453L2550 408M2564 453L2522 490M113 463L165 424M113 463L50 541M113 463L126 527M113 463L184 492M165 424L244 449M165 424L184 492M244 449L184 492M244 449L250 533M356 424L440 463M440 463L555 463M440 463L367 535M440 463L425 492M440 463L513 486M555 463L578 471M555 463L513 486M555 463L562 482M578 471L513 486M578 471L562 482M578 471L689 520M706 436L752 411M706 436L689 520M706 436L781 504M834 449L886 407M834 449L781 504M834 449L832 512M886 407L832 512M886 407L947 481M1013 453L1081 447M1013 453L947 481M1013 453L966 502M1013 453L1060 499M1081 447L1180 466M1081 447L1060 499M1180 466L1241 424M1180 466L1172 537M1180 466L1176 570M1241 424L1365 418M1241 424L1287 515M1355 418L1365 418M1512 434L1592 461M1512 434L1530 506M1592 461L1530 506M1592 461L1622 512M1669 425L1712 449M1669 425L1622 512M1669 425L1694 501M1712 449L1694 501M1831 458L1887 471M1831 458L1873 505M1887 471L1925 422M1887 471L1873 505M1887 471L1942 511M1887 471L1855 571M1925 422L1873 505M1925 422L1942 511M2062 430L2157 428M2062 430L2185 426M2157 428L2185 426M2185 426L2269 402M2375 439L2302 503M2375 439L2371 502M2375 439L2405 520M2470 470L2405 520M2470 470L2522 490M2470 470L2470 561M2550 408L2522 490M50 541L126 527M50 541L66 623M50 541L-33 623M2610 541L2527 623M126 527L184 492M126 527L66 623M126 527L157 622M184 492L250 533M250 533L226 620M250 533L270 571M367 535L425 492M367 535L270 571M367 535L359 561M367 535L432 581M425 492L513 486M425 492L359 561M513 486L562 482M562 482L505 584M689 520L781 504M689 520L616 608M689 520L791 567M781 504L832 512M781 504L791 567M832 512L791 567M832 512L858 596M947 481L966 502M966 502L1060 499M1060 499L1172 537M1172 537L1277 559M1172 537L1176 570M1172 537L1269 575M1277 559L1287 515M1277 559L1176 570M1277 559L1269 575M1277 559L1317 571M1287 515L1269 575M1287 515L1317 571M1437 535L1503 557M1437 535L1407 611M1437 535L1513 565M1503 557L1530 506M1503 557L1513 565M1503 557L1591 567M1530 506L1622 512M1530 506L1513 565M1622 512L1694 501M1622 512L1591 567M1694 501L1762 553M1762 553L1740 598M1762 553L1777 587M1762 553L1855 571M1762 553L1762 644M1873 505L1942 511M1873 505L1855 571M1942 511L2012 560M1942 511L1963 602M2012 560L1963 602M2012 560L2051 590M2012 560L2045 649M2136 537L2168 550M2136 537L2148 619M2136 537L2168 614M2168 550L2148 619M2168 550L2168 614M2168 550L2133 658M2302 503L2371 502M2302 503L2317 589M2302 503L2353 573M2371 502L2405 520M2371 502L2317 589M2371 502L2353 573M2405 520L2353 573M2405 520L2470 561M2522 490L2470 561M66 623L157 622M66 623L-33 623M66 623L9 660M2626 623L2527 623M157 622L226 620M157 622L156 698M157 622L188 683M226 620L270 571M226 620L188 683M226 620L254 642M270 571L359 561M270 571L254 642M359 561L432 581M359 561L392 652M432 581L505 584M432 581L392 652M432 581L473 659M505 584L473 659M505 584L558 647M616 608L666 636M616 608L558 647M616 608L610 646M616 608L683 649M666 636L558 647M666 636L610 646M666 636L683 649M666 636L722 684M791 567L858 596M858 596L908 632M858 596L924 661M908 632L980 621M908 632L924 661M980 621L1079 612M980 621L924 661M980 621L1026 655M980 621L1079 644M1079 612L1026 655M1079 612L1079 644M1176 570L1269 575M1176 570L1175 667M1269 575L1317 571M1317 571L1407 611M1317 571L1334 648M1407 611L1334 648M1407 611L1434 697M1513 565L1591 567M1591 567L1634 636M1634 636L1740 598M1634 636L1639 688M1634 636L1718 692M1634 636L1612 723M1740 598L1777 587M1740 598L1718 692M1740 598L1762 644M1777 587L1855 571M1777 587L1762 644M1963 602L2051 590M1963 602L1978 692M1963 602L2045 649M2051 590L2148 619M2051 590L2045 649M2051 590L2133 658M2148 619L2168 614M2148 619L2133 658M2168 614L2133 658M2317 589L2353 573M2317 589L2321 679M2353 573L2321 679M2470 561L2527 623M2527 623L2569 660M2527 623L2519 713M-33 623L9 660M9 660L-41 713M2569 660L2519 713M156 698L188 683M156 698L74 764M156 698L160 788M156 698L200 784M188 683L254 642M392 652L473 659M473 659L558 647M473 659L458 760M558 647L610 646M610 646L683 649M683 649L722 684M722 684L805 714M722 684L734 753M722 684L817 731M805 714L734 753M805 714L817 731M805 714L889 756M924 661L1026 655M924 661L889 756M1026 655L1079 644M1026 655L1093 724M1079 644L1175 667M1079 644L1093 724M1175 667L1209 665M1175 667L1093 724M1175 667L1172 773M1209 665L1220 767M1334 648L1339 743M1434 697L1455 699M1434 697L1466 725M1434 697L1523 723M1455 699L1532 672M1455 699L1466 725M1455 699L1523 723M1532 672L1639 688M1532 672L1523 723M1532 672L1612 723M1639 688L1718 692M1639 688L1612 723M1718 692L1762 644M1718 692L1735 747M1762 644L1851 697M1851 697L1833 746M1851 697L1916 731M1978 692L2045 649M1978 692L1916 731M1978 692L1981 746M1978 692L2068 762M2045 649L2133 658M2234 708L2251 693M2234 708L2321 679M2234 708L2189 779M2234 708L2307 788M2234 708L2324 744M2251 693L2321 679M2251 693L2189 779M2251 693L2307 788M2251 693L2324 744M2321 679L2324 744M2432 689L2519 713M2432 689L2430 735M2519 713L2430 735M2519 713L2526 784M74 764L160 788M74 764L-34 784M74 764L62 813M74 764L83 837M2634 764L2526 784M160 788L200 784M160 788L62 813M160 788L175 810M200 784L252 798M200 784L175 810M200 784L266 855M252 798L334 761M252 798L175 810M252 798L266 855M252 798L340 805M334 761L340 805M458 760L516 777M458 760L340 805M458 760L452 869M458 760L497 835M516 777L497 835M638 784L649 785M638 784L734 753M638 784L584 874M638 784L566 884M649 785L734 753M649 785L584 874M649 785L707 873M649 785L732 868M734 753L817 731M817 731L889 756M817 731L847 837M889 756L972 778M889 756L847 837M972 778L938 870M972 778L1016 800M972 778L1085 830M1093 724L1172 773M1093 724L1016 800M1172 773L1220 767M1172 773L1200 848M1220 767L1339 743M1220 767L1200 848M1339 743L1394 783M1339 743L1358 852M1394 783L1466 725M1394 783L1358 852M1394 783L1389 876M1394 783L1464 804M1466 725L1523 723M1466 725L1464 804M1523 723L1612 723M1612 723L1523 836M1735 747L1833 746M1735 747L1785 813M1833 746L1916 731M1833 746L1785 813M1833 746L1901 810M1916 731L1981 746M1916 731L1901 810M1981 746L2068 762M1981 746L2101 780M1981 746L1901 810M2068 762L2101 780M2068 762L2080 829M2101 780L2189 779M2101 780L2080 829M2101 780L2148 820M2189 779L2148 820M2189 779L2207 841M2307 788L2324 744M2307 788L2256 868M2307 788L2394 835M2324 744L2394 835M2430 735L2526 784M2526 784L2622 813M2526 784L2531 836M-34 784L62 813M62 813L83 837M62 813L-29 836M2622 813L2531 836M83 837L175 810M266 855L340 805M266 855L262 909M266 855L353 893M340 805L353 893M452 869L497 835M452 869L429 920M452 869L493 902M497 835L493 902M497 835L566 884M584 874L493 902M584 874L566 884M707 873L732 868M707 873L677 949M707 873L735 924M707 873L697 981M732 868L677 949M732 868L735 924M847 837L874 902M847 837L913 913M938 870L1016 800M938 870L874 902M938 870L913 913M938 870L965 901M1016 800L1085 830M1016 800L965 901M1085 830L1142 880M1142 880L1200 848M1142 880L1091 933M1142 880L1170 951M1142 880L1203 932M1200 848L1284 914M1358 852L1389 876M1358 852L1284 914M1358 852L1384 896M1389 876L1384 896M1464 804L1523 836M1523 836L1474 950M1523 836L1557 895M1649 879L1734 866M1649 879L1557 895M1649 879L1629 935M1649 879L1682 882M1734 866L1785 813M1734 866L1682 882M1734 866L1828 887M1785 813L1828 887M1901 810L1924 851M1924 851L1828 887M1924 851L1902 908M1924 851L1969 919M2080 829L2148 820M2080 829L2050 914M2080 829L2124 919M2148 820L2207 841M2148 820L2124 919M2207 841L2256 868M2207 841L2235 924M2207 841L2257 917M2256 868L2235 924M2256 868L2257 917M2394 835L2422 878M2394 835L2394 894M2394 835L2442 915M2422 878L2531 836M2422 878L2394 894M2422 878L2442 915M2422 878L2511 962M2531 836L2577 937M2531 836L2553 939M-29 836L17 937M17 937L-7 939M17 937L67 1003M17 937L-49 962M2577 937L2553 939M2577 937L2511 962M143 952L215 953M143 952L67 1003M143 952L113 1027M143 952L186 995M143 952L250 967M215 953L262 909M215 953L186 995M215 953L250 967M262 909L353 893M262 909L250 967M262 909L337 971M353 893L429 920M353 893L337 971M429 920L493 902M429 920L337 971M429 920L475 1008M493 902L566 884M677 949L735 924M677 949L697 981M677 949L736 1017M735 924L697 981M874 902L913 913M874 902L965 901M874 902L844 966M913 913L965 901M913 913L844 966M965 901L983 982M1091 933L1170 951M1091 933L1103 1007M1091 933L1153 990M1170 951L1203 932M1170 951L1103 1007M1170 951L1153 990M1203 932L1284 914M1203 932L1153 990M1203 932L1266 965M1284 914L1266 965M1384 896L1474 950M1384 896L1392 1001M1474 950L1557 895M1474 950L1392 1001M1474 950L1514 967M1557 895L1629 935M1557 895L1514 967M1629 935L1682 882M1629 935L1514 967M1629 935L1619 1016M1828 887L1902 908M1828 887L1865 960M1902 908L1969 919M1902 908L1865 960M1902 908L1984 977M1969 919L2050 914M1969 919L1984 977M1969 919L2028 970M2050 914L2124 919M2050 914L1984 977M2050 914L2028 970M2124 919L2151 1021M2235 924L2257 917M2235 924L2256 1001M2235 924L2324 981M2257 917L2256 1001M2257 917L2324 981M2394 894L2442 915M2394 894L2324 981M2442 915L2428 1029M2442 915L2511 962M2553 939L2627 1003M2553 939L2511 962M-7 939L67 1003M67 1003L113 1027M67 1003L89 1090M113 1027L186 995M113 1027L89 1090M113 1027L106 1125M186 995L250 967M250 967L337 971M475 1008L552 1037M475 1008L575 1030M475 1008L450 1088M552 1037L575 1030M552 1037L450 1088M552 1037L536 1080M552 1037L593 1098M575 1030L536 1080M575 1030L593 1098M697 981L736 1017M697 981L685 1045M736 1017L685 1045M736 1017L752 1095M736 1017L823 1066M844 966L882 1010M844 966L823 1066M882 1010L983 982M882 1010L823 1066M882 1010L903 1095M983 982L1001 1043M1103 1007L1153 990M1103 1007L1001 1043M1103 1007L1052 1103M1266 965L1314 1020M1266 965L1277 1063M1314 1020L1392 1001M1314 1020L1277 1063M1314 1020L1297 1078M1314 1020L1382 1086M1392 1001L1382 1086M1392 1001L1447 1096M1514 967L1572 1024M1514 967L1558 1054M1572 1024L1619 1016M1572 1024L1558 1054M1572 1024L1562 1132M1619 1016L1734 1014M1619 1016L1558 1054M1734 1014L1829 995M1734 1014L1715 1057M1734 1014L1808 1046M1829 995L1865 960M1829 995L1808 1046M1829 995L1870 1093M1984 977L2028 970M1984 977L2006 1102M2151 1021L2207 1029M2151 1021L2145 1054M2151 1021L2188 1118M2207 1029L2256 1001M2207 1029L2145 1054M2207 1029L2188 1118M2207 1029L2290 1083M2256 1001L2324 981M2256 1001L2290 1083M2324 981L2290 1083M2428 1029L2511 962M2428 1029L2385 1083M2428 1029L2401 1090M2428 1029L2545 1090M10 1114L89 1090M10 1114L-15 1090M10 1114L45 1142M10 1114L-37 1182M2570 1114L2545 1090M2570 1114L2523 1182M89 1090L45 1142M89 1090L106 1125M235 1107L297 1087M235 1107L227 1176M235 1107L253 1133M235 1107L337 1130M297 1087L355 1095M297 1087L227 1176M297 1087L253 1133M297 1087L337 1130M355 1095L450 1088M355 1095L337 1130M450 1088L536 1080M450 1088L466 1154M536 1080L593 1098M593 1098L627 1131M593 1098L677 1149M685 1045L752 1095M685 1045L627 1131M752 1095L823 1066M752 1095L677 1149M752 1095L745 1153M823 1066L903 1095M903 1095L1001 1043M903 1095L943 1149M1001 1043L1052 1103M1052 1103L1004 1147M1052 1103L1058 1159M1052 1103L1141 1136M1185 1109L1277 1063M1185 1109L1297 1078M1185 1109L1141 1136M1185 1109L1219 1151M1185 1109L1282 1181M1277 1063L1297 1078M1297 1078L1382 1086M1297 1078L1282 1181M1382 1086L1447 1096M1382 1086L1441 1141M1447 1096L1439 1146M1447 1096L1441 1141M1558 1054L1638 1108M1558 1054L1562 1132M1638 1108L1715 1057M1638 1108L1562 1132M1638 1108L1648 1189M1638 1108L1696 1143M1715 1057L1808 1046M1715 1057L1696 1143M1715 1057L1772 1128M1808 1046L1870 1093M1808 1046L1772 1128M1870 1093L1951 1103M1870 1093L1860 1171M1951 1103L2006 1102M1951 1103L1978 1128M1951 1103L2005 1171M2006 1102L1978 1128M2006 1102L2005 1171M2145 1054L2188 1118M2188 1118L2137 1190M2188 1118L2227 1189M2290 1083L2385 1083M2290 1083L2308 1131M2385 1083L2401 1090M2385 1083L2370 1150M2385 1083L2403 1177M2401 1090L2308 1131M2401 1090L2370 1150M2401 1090L2403 1177M2545 1090L2605 1142M2545 1090L2523 1182M-15 1090L45 1142M45 1142L106 1125M45 1142L-12 1218M2605 1142L2548 1218M106 1125L107 1210M227 1176L253 1133M227 1176L203 1214M227 1176L247 1220M253 1133L203 1214M253 1133L247 1220M337 1130L390 1212M466 1154L511 1186M466 1154L390 1212M466 1154L477 1207M466 1154L505 1243M511 1186L477 1207M511 1186L505 1243M511 1186L613 1215M627 1131L677 1149M627 1131L613 1215M677 1149L745 1153M677 1149L613 1215M745 1153L813 1177M745 1153L713 1250M745 1153L739 1239M813 1177L739 1239M813 1177L804 1249M943 1149L1004 1147M943 1149L945 1208M943 1149L979 1209M1004 1147L1058 1159M1004 1147L945 1208M1004 1147L979 1209M1058 1159L1141 1136M1058 1159L979 1209M1058 1159L1072 1254M1141 1136L1219 1151M1219 1151L1282 1181M1282 1181L1259 1277M1282 1181L1357 1242M1439 1146L1441 1141M1441 1141L1386 1244M1562 1132L1587 1234M1648 1189L1696 1143M1648 1189L1587 1234M1648 1189L1637 1261M1648 1189L1734 1221M1696 1143L1772 1128M1696 1143L1734 1221M1772 1128L1860 1171M1860 1171L1905 1262M1860 1171L1946 1214M1860 1171L1886 1282M1978 1128L2005 1171M1978 1128L1946 1214M2005 1171L1946 1214M2005 1171L2096 1210M2137 1190L2227 1189M2137 1190L2096 1210M2137 1190L2167 1285M2227 1189L2195 1279M2227 1189L2284 1217M2308 1131L2370 1150M2308 1131L2284 1217M2370 1150L2403 1177M2370 1150L2356 1251M2403 1177L2356 1251M2403 1177L2463 1245M2523 1182L2584 1260M2523 1182L2463 1245M2523 1182L2548 1218M-37 1182L24 1260M24 1260L107 1210M24 1260L-12 1218M24 1260L37 1332M24 1260L-36 1295M2584 1260L2548 1218M2584 1260L2524 1295M107 1210L134 1290M203 1214L247 1220M203 1214L134 1290M203 1214L250 1309M247 1220L250 1309M390 1212L477 1207M390 1212L387 1318M477 1207L505 1243M505 1243L495 1330M505 1243L602 1290M613 1215L713 1250M613 1215L602 1290M713 1250L739 1239M713 1250L804 1249M713 1250L739 1322M739 1239L804 1249M739 1239L739 1322M804 1249L817 1326M945 1208L979 1209M1072 1254L1120 1270M1072 1254L1019 1333M1072 1254L1075 1313M1072 1254L1142 1310M1120 1270L1075 1313M1120 1270L1142 1310M1120 1270L1220 1291M1259 1277L1357 1242M1259 1277L1220 1291M1357 1242L1386 1244M1357 1242L1355 1352M1386 1244L1355 1352M1386 1244L1409 1330M1512 1247L1587 1234M1512 1247L1479 1286M1512 1247L1550 1341M1587 1234L1637 1261M1587 1234L1652 1281M1637 1261L1652 1281M1637 1261L1714 1319M1734 1221L1774 1241M1734 1221L1652 1281M1734 1221L1714 1319M1774 1241L1783 1330M1905 1262L1946 1214M1905 1262L1886 1282M1905 1262L1945 1327M1946 1214L1886 1282M2016 1277L2096 1210M2016 1277L1945 1327M2016 1277L2015 1336M2016 1277L1974 1374M2096 1210L2116 1304M2096 1210L2167 1285M2195 1279L2116 1304M2195 1279L2167 1285M2195 1279L2278 1357M2284 1217L2356 1251M2356 1251L2341 1357M2463 1245L2548 1218M2463 1245L2459 1319M2548 1218L2524 1295M37 1332L134 1290M37 1332L-36 1295M37 1332L58 1422M37 1332L-47 1369M2597 1332L2524 1295M2597 1332L2513 1369M134 1290L173 1329M134 1290L250 1309M173 1329L250 1309M173 1329L106 1427M173 1329L290 1363M250 1309L290 1363M387 1318L441 1341M387 1318L383 1375M387 1318L419 1387M441 1341L495 1330M441 1341L383 1375M441 1341L419 1387M495 1330L602 1290M495 1330L419 1387M495 1330L515 1436M602 1290L658 1357M602 1290L572 1399M658 1357L572 1399M658 1357L716 1370M658 1357L738 1368M739 1322L817 1326M739 1322L716 1370M739 1322L738 1368M817 1326L905 1355M817 1326L738 1368M817 1326L887 1384M905 1355L1019 1333M905 1355L887 1384M905 1355L965 1370M1019 1333L1075 1313M1019 1333L965 1370M1019 1333L1049 1409M1075 1313L1142 1310M1075 1313L1049 1409M1142 1310L1220 1291M1142 1310L1185 1387M1220 1291L1185 1387M1220 1291L1203 1415M1355 1352L1409 1330M1355 1352L1336 1401M1355 1352L1406 1376M1409 1330L1479 1286M1409 1330L1336 1401M1409 1330L1406 1376M1479 1286L1550 1341M1479 1286L1406 1376M1479 1286L1546 1373M1550 1341L1652 1281M1550 1341L1491 1400M1550 1341L1546 1373M1652 1281L1714 1319M1714 1319L1783 1330M1714 1319L1738 1414M1783 1330L1738 1414M1783 1330L1815 1409M1783 1330L1844 1405M1886 1282L1945 1327M1945 1327L2015 1336M1945 1327L1974 1374M2015 1336L2116 1304M2015 1336L1974 1374M2015 1336L2045 1396M2116 1304L2167 1285M2116 1304L2135 1388M2167 1285L2135 1388M2278 1357L2341 1357M2278 1357L2187 1430M2278 1357L2248 1383M2278 1357L2344 1367M2341 1357L2248 1383M2341 1357L2344 1367M2459 1319L2524 1295M2459 1319L2478 1383M2459 1319L2513 1369M2524 1295L2513 1369M58 1422L106 1427M106 1427L202 1435M290 1363L383 1375M383 1375L419 1387M419 1387L515 1436M515 1436L572 1399M716 1370L738 1368M822 1439L887 1384M887 1384L965 1370M1049 1409L1185 1387M1185 1387L1203 1415M1336 1401L1406 1376M1406 1376L1491 1400M1491 1400L1546 1373M1546 1373L1645 1408M1738 1414L1815 1409M1815 1409L1844 1405M1974 1374L2045 1396M2045 1396L2135 1388M2135 1388L2187 1430M2187 1430L2248 1383M2248 1383L2344 1367M2478 1383L2513 1369"/></svg>