<svg xmlns="http://www.w3.org/2000/svg" width="2560" height="1440" fill="#fff"><circle cx="2" cy="68" r="5"/><circle cx="2562" cy="68" r="5"/><circle cx="144" cy="8" r="5"/><circle cx="195" cy="71" r="6"/><circle cx="269" cy="5" r="5"/><circle cx="269" cy="1445" r="5"/><circle cx="385" cy="34" r="4"/><circle cx="467" cy="65" r="4"/><circle cx="500" cy="34" r="5"/><circle cx="574" cy="61" r="6"/><circle cx="706" cy="60" r="5"/><circle cx="751" cy="34" r="6"/><circle cx="800" cy="50" r="6"/><circle cx="892" cy="63" r="4"/><circle cx="1006" cy="27" r="5"/><circle cx="1061" cy="61" r="5"/><circle cx="1161" cy="43" r="5"/><circle cx="1245" cy="24" r="5"/><circle cx="1337" cy="20" r="6"/><circle cx="1427" cy="59" r="5"/><circle cx="1489" cy="27" r="6"/><circle cx="1586" cy="78" r="5"/><circle cx="1649" cy="68" r="4"/><circle cx="1730" cy="31" r="5"/><circle cx="1809" cy="74" r="5"/><circle cx="1900" cy="11" r="4"/><circle cx="1947" cy="59" r="5"/><circle cx="2003" cy="54" r="4"/><circle cx="2156" cy="10" r="6"/><circle cx="2196" cy="44" r="6"/><circle cx="2268" cy="9" r="6"/><circle cx="2349" cy="27" r="6"/><circle cx="2468" cy="75" r="6"/><circle cx="2483" cy="35" r="5"/><circle cx="7" cy="91" r="5"/><circle cx="91" cy="157" r="5"/><circle cx="222" cy="143" r="4"/><circle cx="302" cy="154" r="5"/><circle cx="392" cy="88" r="5"/><circle cx="447" cy="131" r="4"/><circle cx="495" cy="151" r="5"/><circle cx="588" cy="136" r="4"/><circle cx="682" cy="130" r="5"/><circle cx="764" cy="95" r="4"/><circle cx="839" cy="120" r="4"/><circle cx="898" cy="154" r="6"/><circle cx="961" cy="154" r="6"/><circle cx="1108" cy="89" r="6"/><circle cx="1180" cy="134" r="6"/><circle cx="1235" cy="143" r="4"/><circle cx="1306" cy="108" r="5"/><circle cx="1402" cy="102" r="4"/><circle cx="1466" cy="91" r="6"/><circle cx="1547" cy="145" r="4"/><circle cx="1621" cy="125" r="5"/><circle cx="1741" cy="91" r="6"/><circle cx="1763" cy="152" r="6"/><circle cx="1919" cy="104" r="6"/><circle cx="1954" cy="123" r="4"/><circle cx="2007" cy="154" r="6"/><circle cx="2160" cy="83" r="5"/><circle cx="2213" cy="127" r="5"/><circle cx="2267" cy="80" r="5"/><circle cx="2328" cy="93" r="5"/><circle cx="2427" cy="117" r="4"/><circle cx="2557" cy="123" r="5"/><circle cx="-3" cy="123" r="5"/><circle cx="77" cy="167" r="5"/><circle cx="88" cy="211" r="6"/><circle cx="202" cy="219" r="4"/><circle cx="245" cy="167" r="5"/><circle cx="325" cy="203" r="6"/><circle cx="452" cy="220" r="5"/><circle cx="537" cy="200" r="5"/><circle cx="574" cy="212" r="5"/><circle cx="718" cy="171" r="5"/><circle cx="759" cy="193" r="5"/><circle cx="805" cy="234" r="6"/><circle cx="888" cy="218" r="6"/><circle cx="996" cy="170" r="5"/><circle cx="1085" cy="219" r="6"/><circle cx="1142" cy="212" r="6"/><circle cx="1202" cy="161" r="4"/><circle cx="1341" cy="227" r="5"/><circle cx="1434" cy="235" r="6"/><circle cx="1470" cy="236" r="6"/><circle cx="1521" cy="195" r="5"/><circle cx="1611" cy="185" r="6"/><circle cx="1758" cy="203" r="6"/><circle cx="1824" cy="219" r="6"/><circle cx="1853" cy="227" r="5"/><circle cx="1921" cy="231" r="4"/><circle cx="2002" cy="211" r="4"/><circle cx="2142" cy="194" r="5"/><circle cx="2171" cy="228" r="5"/><circle cx="2257" cy="227" r="5"/><circle cx="2337" cy="217" r="4"/><circle cx="2454" cy="198" r="6"/><circle cx="2535" cy="223" r="4"/><circle cx="70" cy="299" r="5"/><circle cx="124" cy="244" r="5"/><circle cx="176" cy="260" r="6"/><circle cx="253" cy="300" r="6"/><circle cx="357" cy="280" r="5"/><circle cx="472" cy="257" r="4"/><circle cx="554" cy="304" r="5"/><circle cx="588" cy="261" r="6"/><circle cx="707" cy="293" r="5"/><circle cx="754" cy="249" r="5"/><circle cx="868" cy="255" r="5"/><circle cx="899" cy="241" r="6"/><circle cx="1005" cy="247" r="6"/><circle cx="1102" cy="313" r="6"/><circle cx="1149" cy="305" r="5"/><circle cx="1279" cy="318" r="4"/><circle cx="1318" cy="267" r="5"/><circle cx="1402" cy="308" r="5"/><circle cx="1513" cy="260" r="5"/><circle cx="1532" cy="281" r="4"/><circle cx="1651" cy="251" r="5"/><circle cx="1688" cy="293" r="4"/><circle cx="1831" cy="268" r="6"/><circle cx="1854" cy="309" r="5"/><circle cx="1963" cy="268" r="4"/><circle cx="2030" cy="258" r="5"/><circle cx="2085" cy="250" r="5"/><circle cx="2225" cy="281" r="4"/><circle cx="2248" cy="303" r="4"/><circle cx="2390" cy="281" r="4"/><circle cx="2420" cy="305" r="5"/><circle cx="2513" cy="312" r="5"/><circle cx="65" cy="389" r="6"/><circle cx="157" cy="338" r="5"/><circle cx="199" cy="334" r="5"/><circle cx="278" cy="359" r="5"/><circle cx="380" cy="321" r="4"/><circle cx="443" cy="389" r="6"/><circle cx="491" cy="327" r="6"/><circle cx="598" cy="365" r="5"/><circle cx="697" cy="375" r="6"/><circle cx="743" cy="375" r="4"/><circle cx="859" cy="376" r="4"/><circle cx="897" cy="366" r="5"/><circle cx="984" cy="343" r="4"/><circle cx="1104" cy="327" r="4"/><circle cx="1183" cy="325" r="6"/><circle cx="1272" cy="364" r="4"/><circle cx="1352" cy="391" r="4"/><circle cx="1375" cy="323" r="4"/><circle cx="1459" cy="393" r="4"/><circle cx="1541" cy="320" r="5"/><circle cx="1671" cy="325" r="4"/><circle cx="1683" cy="382" r="5"/><circle cx="1825" cy="332" r="5"/><circle cx="1887" cy="364" r="5"/><circle cx="1938" cy="334" r="4"/><circle cx="2077" cy="327" r="6"/><circle cx="2104" cy="339" r="4"/><circle cx="2222" cy="335" r="6"/><circle cx="2280" cy="369" r="5"/><circle cx="2379" cy="395" r="5"/><circle cx="2447" cy="334" r="6"/><circle cx="2545" cy="341" r="5"/><circle cx="24" cy="405" r="4"/><circle cx="95" cy="430" r="5"/><circle cx="214" cy="406" r="6"/><circle cx="301" cy="480" r="5"/><circle cx="322" cy="420" r="6"/><circle cx="475" cy="417" r="5"/><circle cx="560" cy="404" r="4"/><circle cx="568" cy="417" r="5"/><circle cx="714" cy="446" r="4"/><circle cx="744" cy="423" r="5"/><circle cx="830" cy="472" r="4"/><circle cx="940" cy="445" r="4"/><circle cx="1009" cy="450" r="4"/><circle cx="1113" cy="417" r="6"/><circle cx="1142" cy="429" r="6"/><circle cx="1277" cy="444" r="4"/><circle cx="1358" cy="427" r="4"/><circle cx="1373" cy="437" r="6"/><circle cx="1441" cy="444" r="5"/><circle cx="1571" cy="424" r="4"/><circle cx="1612" cy="477" r="4"/><circle cx="1732" cy="447" r="4"/><circle cx="1794" cy="460" r="4"/><circle cx="1918" cy="409" r="4"/><circle cx="1960" cy="430" r="4"/><circle cx="2052" cy="432" r="4"/><circle cx="2132" cy="438" r="6"/><circle cx="2234" cy="425" r="5"/><circle cx="2292" cy="415" r="6"/><circle cx="2390" cy="432" r="5"/><circle cx="2452" cy="443" r="4"/><circle cx="2503" cy="431" r="6"/><circle cx="24" cy="517" r="5"/><circle cx="104" cy="537" r="6"/><circle cx="216" cy="533" r="6"/><circle cx="296" cy="550" r="5"/><circle cx="384" cy="535" r="6"/><circle cx="451" cy="533" r="6"/><circle cx="529" cy="512" r="6"/><circle cx="572" cy="553" r="6"/><circle cx="710" cy="500" r="6"/><circle cx="729" cy="530" r="5"/><circle cx="808" cy="535" r="6"/><circle cx="890" cy="526" r="6"/><circle cx="1012" cy="535" r="5"/><circle cx="1103" cy="529" r="6"/><circle cx="1138" cy="551" r="5"/><circle cx="1254" cy="546" r="4"/><circle cx="1350" cy="553" r="4"/><circle cx="1378" cy="537" r="5"/><circle cx="1518" cy="547" r="4"/><circle cx="1590" cy="493" r="5"/><circle cx="1612" cy="481" r="6"/><circle cx="1686" cy="504" r="4"/><circle cx="1836" cy="512" r="5"/><circle cx="1857" cy="508" r="4"/><circle cx="1992" cy="489" r="5"/><circle cx="2026" cy="518" r="5"/><circle cx="2158" cy="542" r="5"/><circle cx="2230" cy="545" r="5"/><circle cx="2281" cy="516" r="6"/><circle cx="2324" cy="532" r="5"/><circle cx="2414" cy="560" r="4"/><circle cx="2548" cy="490" r="6"/><circle cx="51" cy="621" r="5"/><circle cx="140" cy="593" r="4"/><circle cx="167" cy="583" r="5"/><circle cx="309" cy="596" r="5"/><circle cx="326" cy="581" r="6"/><circle cx="473" cy="591" r="4"/><circle cx="497" cy="621" r="4"/><circle cx="604" cy="592" r="4"/><circle cx="705" cy="571" r="5"/><circle cx="730" cy="571" r="6"/><circle cx="804" cy="628" r="5"/><circle cx="949" cy="580" r="4"/><circle cx="965" cy="628" r="4"/><circle cx="1070" cy="573" r="5"/><circle cx="1132" cy="616" r="5"/><circle cx="1201" cy="587" r="5"/><circle cx="1323" cy="617" r="4"/><circle cx="1390" cy="600" r="5"/><circle cx="1479" cy="566" r="6"/><circle cx="1598" cy="620" r="6"/><circle cx="1603" cy="576" r="5"/><circle cx="1748" cy="620" r="4"/><circle cx="1798" cy="612" r="5"/><circle cx="1868" cy="589" r="5"/><circle cx="1946" cy="610" r="5"/><circle cx="2016" cy="572" r="6"/><circle cx="2136" cy="623" r="5"/><circle cx="2194" cy="617" r="4"/><circle cx="2255" cy="632" r="5"/><circle cx="2352" cy="636" r="6"/><circle cx="2417" cy="583" r="5"/><circle cx="2544" cy="612" r="4"/><circle cx="49" cy="669" r="5"/><circle cx="82" cy="651" r="5"/><circle cx="191" cy="669" r="4"/><circle cx="268" cy="674" r="5"/><circle cx="331" cy="687" r="4"/><circle cx="440" cy="653" r="5"/><circle cx="526" cy="716" r="6"/><circle cx="608" cy="695" r="4"/><circle cx="669" cy="676" r="5"/><circle cx="734" cy="699" r="4"/><circle cx="879" cy="677" r="5"/><circle cx="881" cy="643" r="5"/><circle cx="1007" cy="680" r="5"/><circle cx="1063" cy="656" r="5"/><circle cx="1157" cy="681" r="5"/><circle cx="1265" cy="659" r="5"/><circle cx="1300" cy="652" r="5"/><circle cx="1423" cy="718" r="5"/><circle cx="1451" cy="667" r="5"/><circle cx="1522" cy="679" r="5"/><circle cx="1610" cy="679" r="5"/><circle cx="1715" cy="688" r="5"/><circle cx="1795" cy="644" r="6"/><circle cx="1866" cy="713" r="5"/><circle cx="1979" cy="657" r="6"/><circle cx="2028" cy="668" r="5"/><circle cx="2147" cy="679" r="5"/><circle cx="2160" cy="706" r="6"/><circle cx="2275" cy="666" r="5"/><circle cx="2386" cy="692" r="4"/><circle cx="2453" cy="716" r="5"/><circle cx="2518" cy="684" r="5"/><circle cx="35" cy="775" r="6"/><circle cx="148" cy="728" r="6"/><circle cx="178" cy="730" r="5"/><circle cx="240" cy="726" r="5"/><circle cx="355" cy="766" r="5"/><circle cx="458" cy="732" r="6"/><circle cx="540" cy="768" r="6"/><circle cx="626" cy="786" r="4"/><circle cx="680" cy="735" r="5"/><circle cx="799" cy="752" r="5"/><circle cx="825" cy="745" r="6"/><circle cx="920" cy="731" r="6"/><circle cx="1036" cy="773" r="5"/><circle cx="1100" cy="782" r="6"/><circle cx="1146" cy="798" r="4"/><circle cx="1280" cy="738" r="4"/><circle cx="1341" cy="747" r="5"/><circle cx="1420" cy="729" r="4"/><circle cx="1490" cy="794" r="6"/><circle cx="1569" cy="736" r="5"/><circle cx="1608" cy="729" r="5"/><circle cx="1684" cy="790" r="5"/><circle cx="1831" cy="748" r="6"/><circle cx="1900" cy="754" r="5"/><circle cx="1985" cy="749" r="6"/><circle cx="2076" cy="754" r="5"/><circle cx="2134" cy="722" r="5"/><circle cx="2187" cy="781" r="6"/><circle cx="2242" cy="762" r="5"/><circle cx="2320" cy="755" r="5"/><circle cx="2470" cy="760" r="6"/><circle cx="2483" cy="760" r="4"/><circle cx="7" cy="840" r="5"/><circle cx="117" cy="821" r="5"/><circle cx="169" cy="847" r="6"/><circle cx="249" cy="847" r="5"/><circle cx="345" cy="842" r="6"/><circle cx="408" cy="832" r="4"/><circle cx="504" cy="835" r="4"/><circle cx="586" cy="812" r="5"/><circle cx="713" cy="848" r="6"/><circle cx="788" cy="809" r="6"/><circle cx="851" cy="815" r="4"/><circle cx="945" cy="824" r="5"/><circle cx="970" cy="848" r="5"/><circle cx="1101" cy="880" r="5"/><circle cx="1166" cy="839" r="6"/><circle cx="1216" cy="835" r="6"/><circle cx="1312" cy="866" r="4"/><circle cx="1379" cy="872" r="4"/><circle cx="1480" cy="805" r="4"/><circle cx="1539" cy="805" r="4"/><circle cx="1649" cy="826" r="5"/><circle cx="1710" cy="801" r="4"/><circle cx="1826" cy="853" r="6"/><circle cx="1860" cy="861" r="4"/><circle cx="1927" cy="875" r="5"/><circle cx="2050" cy="845" r="4"/><circle cx="2119" cy="807" r="6"/><circle cx="2222" cy="859" r="6"/><circle cx="2289" cy="838" r="5"/><circle cx="2354" cy="869" r="5"/><circle cx="2453" cy="827" r="6"/><circle cx="2496" cy="839" r="6"/><circle cx="67" cy="894" r="5"/><circle cx="114" cy="895" r="5"/><circle cx="231" cy="887" r="6"/><circle cx="275" cy="939" r="5"/><circle cx="339" cy="934" r="5"/><circle cx="427" cy="915" r="5"/><circle cx="544" cy="950" r="6"/><circle cx="609" cy="938" r="6"/><circle cx="655" cy="950" r="6"/><circle cx="720" cy="907" r="5"/><circle cx="873" cy="916" r="6"/><circle cx="890" cy="924" r="6"/><circle cx="1029" cy="946" r="4"/><circle cx="1108" cy="944" r="5"/><circle cx="1129" cy="931" r="5"/><circle cx="1273" cy="927" r="6"/><circle cx="1291" cy="943" r="4"/><circle cx="1439" cy="896" r="4"/><circle cx="1510" cy="905" r="4"/><circle cx="1577" cy="945" r="5"/><circle cx="1665" cy="958" r="4"/><circle cx="1709" cy="922" r="6"/><circle cx="1778" cy="907" r="6"/><circle cx="1847" cy="904" r="5"/><circle cx="1978" cy="934" r="5"/><circle cx="2014" cy="954" r="5"/><circle cx="2119" cy="959" r="5"/><circle cx="2173" cy="888" r="5"/><circle cx="2244" cy="946" r="5"/><circle cx="2328" cy="917" r="6"/><circle cx="2418" cy="935" r="5"/><circle cx="2535" cy="887" r="5"/><circle cx="80" cy="1019" r="5"/><circle cx="132" cy="963" r="5"/><circle cx="181" cy="982" r="5"/><circle cx="242" cy="1011" r="5"/><circle cx="364" cy="999" r="4"/><circle cx="419" cy="1015" r="5"/><circle cx="483" cy="1008" r="5"/><circle cx="622" cy="1039" r="5"/><circle cx="652" cy="962" r="5"/><circle cx="735" cy="962" r="5"/><circle cx="877" cy="982" r="6"/><circle cx="957" cy="969" r="5"/><circle cx="983" cy="1001" r="4"/><circle cx="1061" cy="1031" r="5"/><circle cx="1134" cy="1032" r="5"/><circle cx="1218" cy="1033" r="4"/><circle cx="1298" cy="975" r="4"/><circle cx="1367" cy="1023" r="6"/><circle cx="1446" cy="1008" r="4"/><circle cx="1559" cy="992" r="6"/><circle cx="1604" cy="1017" r="5"/><circle cx="1705" cy="1006" r="5"/><circle cx="1783" cy="993" r="5"/><circle cx="1854" cy="1015" r="5"/><circle cx="1986" cy="972" r="5"/><circle cx="2015" cy="1035" r="5"/><circle cx="2109" cy="1022" r="5"/><circle cx="2198" cy="969" r="4"/><circle cx="2294" cy="1027" r="5"/><circle cx="2361" cy="1007" r="5"/><circle cx="2438" cy="1004" r="4"/><circle cx="2536" cy="977" r="6"/><circle cx="13" cy="1077" r="4"/><circle cx="101" cy="1075" r="5"/><circle cx="215" cy="1102" r="5"/><circle cx="308" cy="1054" r="5"/><circle cx="373" cy="1086" r="5"/><circle cx="404" cy="1043" r="4"/><circle cx="500" cy="1084" r="4"/><circle cx="621" cy="1116" r="5"/><circle cx="669" cy="1043" r="6"/><circle cx="799" cy="1048" r="6"/><circle cx="825" cy="1100" r="5"/><circle cx="892" cy="1058" r="4"/><circle cx="1025" cy="1067" r="5"/><circle cx="1059" cy="1074" r="5"/><circle cx="1122" cy="1050" r="4"/><circle cx="1213" cy="1076" r="5"/><circle cx="1330" cy="1109" r="5"/><circle cx="1372" cy="1058" r="5"/><circle cx="1444" cy="1084" r="6"/><circle cx="1583" cy="1092" r="5"/><circle cx="1652" cy="1053" r="5"/><circle cx="1728" cy="1089" r="4"/><circle cx="1836" cy="1089" r="6"/><circle cx="1867" cy="1078" r="4"/><circle cx="1998" cy="1092" r="4"/><circle cx="2077" cy="1066" r="5"/><circle cx="2142" cy="1067" r="4"/><circle cx="2223" cy="1067" r="6"/><circle cx="2243" cy="1056" r="6"/><circle cx="2351" cy="1065" r="5"/><circle cx="2408" cy="1044" r="6"/><circle cx="2550" cy="1074" r="4"/><circle cx="72" cy="1160" r="5"/><circle cx="129" cy="1198" r="5"/><circle cx="187" cy="1187" r="5"/><circle cx="307" cy="1133" r="4"/><circle cx="373" cy="1176" r="4"/><circle cx="436" cy="1145" r="5"/><circle cx="497" cy="1146" r="6"/><circle cx="601" cy="1177" r="6"/><circle cx="650" cy="1171" r="5"/><circle cx="762" cy="1130" r="5"/><circle cx="878" cy="1126" r="5"/><circle cx="928" cy="1158" r="5"/><circle cx="1026" cy="1180" r="4"/><circle cx="1088" cy="1173" r="6"/><circle cx="1137" cy="1175" r="5"/><circle cx="1211" cy="1153" r="5"/><circle cx="1343" cy="1166" r="4"/><circle cx="1390" cy="1162" r="5"/><circle cx="1482" cy="1145" r="5"/><circle cx="1599" cy="1174" r="6"/><circle cx="1605" cy="1189" r="5"/><circle cx="1718" cy="1177" r="5"/><circle cx="1783" cy="1181" r="4"/><circle cx="1913" cy="1132" r="5"/><circle cx="1973" cy="1184" r="4"/><circle cx="2002" cy="1155" r="5"/><circle cx="2146" cy="1176" r="5"/><circle cx="2186" cy="1190" r="5"/><circle cx="2277" cy="1190" r="5"/><circle cx="2373" cy="1144" r="5"/><circle cx="2440" cy="1191" r="6"/><circle cx="2534" cy="1148" r="5"/><circle cx="7" cy="1207" r="6"/><circle cx="109" cy="1230" r="4"/><circle cx="207" cy="1216" r="5"/><circle cx="246" cy="1241" r="5"/><circle cx="371" cy="1205" r="6"/><circle cx="459" cy="1226" r="4"/><circle cx="489" cy="1243" r="5"/><circle cx="620" cy="1207" r="6"/><circle cx="680" cy="1220" r="5"/><circle cx="789" cy="1238" r="6"/><circle cx="830" cy="1212" r="6"/><circle cx="932" cy="1206" r="4"/><circle cx="965" cy="1254" r="5"/><circle cx="1088" cy="1220" r="4"/><circle cx="1185" cy="1227" r="5"/><circle cx="1244" cy="1263" r="5"/><circle cx="1347" cy="1234" r="5"/><circle cx="1386" cy="1231" r="5"/><circle cx="1471" cy="1215" r="4"/><circle cx="1555" cy="1273" r="5"/><circle cx="1640" cy="1225" r="6"/><circle cx="1716" cy="1229" r="6"/><circle cx="1793" cy="1204" r="5"/><circle cx="1908" cy="1216" r="5"/><circle cx="1952" cy="1275" r="6"/><circle cx="2079" cy="1270" r="5"/><circle cx="2142" cy="1256" r="5"/><circle cx="2222" cy="1237" r="6"/><circle cx="2303" cy="1203" r="5"/><circle cx="2373" cy="1260" r="4"/><circle cx="2454" cy="1244" r="5"/><circle cx="2482" cy="1247" r="6"/><circle cx="64" cy="1316" r="5"/><circle cx="96" cy="1333" r="6"/><circle cx="190" cy="1337" r="4"/><circle cx="244" cy="1331" r="5"/><circle cx="337" cy="1311" r="6"/><circle cx="436" cy="1322" r="4"/><circle cx="485" cy="1348" r="5"/><circle cx="598" cy="1331" r="5"/><circle cx="706" cy="1337" r="6"/><circle cx="758" cy="1291" r="5"/><circle cx="841" cy="1325" r="4"/><circle cx="930" cy="1303" r="4"/><circle cx="1012" cy="1285" r="6"/><circle cx="1103" cy="1339" r="5"/><circle cx="1162" cy="1316" r="6"/><circle cx="1245" cy="1295" r="5"/><circle cx="1348" cy="1333" r="6"/><circle cx="1437" cy="1311" r="5"/><circle cx="1459" cy="1357" r="4"/><circle cx="1568" cy="1300" r="4"/><circle cx="1644" cy="1323" r="5"/><circle cx="1734" cy="1316" r="6"/><circle cx="1828" cy="1325" r="6"/><circle cx="1858" cy="1283" r="6"/><circle cx="1972" cy="1327" r="5"/><circle cx="2027" cy="1297" r="5"/><circle cx="2155" cy="1335" r="4"/><circle cx="2219" cy="1353" r="4"/><circle cx="2267" cy="1318" r="5"/><circle cx="2337" cy="1310" r="4"/><circle cx="2450" cy="1312" r="5"/><circle cx="2536" cy="1304" r="4"/><circle cx="67" cy="1418" r="6"/><circle cx="120" cy="1436" r="5"/><circle cx="120" cy="-4" r="5"/><circle cx="182" cy="1364" r="5"/><circle cx="285" cy="1386" r="5"/><circle cx="336" cy="1394" r="6"/><circle cx="468" cy="1393" r="4"/><circle cx="501" cy="1403" r="5"/><circle cx="631" cy="1377" r="4"/><circle cx="710" cy="1372" r="5"/><circle cx="726" cy="1384" r="5"/><circle cx="874" cy="1418" r="5"/><circle cx="881" cy="1432" r="5"/><circle cx="981" cy="1375" r="4"/><circle cx="1044" cy="1424" r="5"/><circle cx="1159" cy="1431" r="6"/><circle cx="1275" cy="1419" r="5"/><circle cx="1359" cy="1371" r="6"/><circle cx="1374" cy="1418" r="4"/><circle cx="1509" cy="1430" r="6"/><circle cx="1565" cy="1425" r="5"/><circle cx="1631" cy="1438" r="5"/><circle cx="1631" cy="-2" r="5"/><circle cx="1729" cy="1365" r="5"/><circle cx="1818" cy="1439" r="6"/><circle cx="1818" cy="-1" r="6"/><circle cx="1907" cy="1379" r="5"/><circle cx="1962" cy="1374" r="5"/><circle cx="2037" cy="1419" r="5"/><circle cx="2091" cy="1432" r="6"/><circle cx="2202" cy="1398" r="5"/><circle cx="2284" cy="1434" r="4"/><circle cx="2397" cy="1414" r="5"/><circle cx="2419" cy="1438" r="5"/><circle cx="2419" cy="-2" r="5"/><circle cx="2496" cy="1394" r="5"/><path stroke="#fff" d="M2 68L-92 75M2 68L-77 35M2 68L7 91M2 68L-3 123M2 68L67 -22M2562 68L2468 75M2562 68L2483 35M2562 68L2557 123M2 1508L67 1418M144 8L195 71M144 8L67 -22M144 8L120 -4M144 8L182 -76M144 1448L67 1418M144 1448L120 1436M144 1448L182 1364M195 71L269 5M195 71L222 143M195 71L245 167M195 71L120 -4M195 1511L120 1436M269 5L285 -54M269 5L336 -46M269 1445L285 1386M269 1445L336 1394M385 34L467 65M385 34L392 88M385 34L336 -46M385 1474L336 1394M467 65L500 34M467 65L392 88M467 65L447 131M467 65L495 151M500 34L574 61M500 34L392 88M500 34L468 -47M500 34L501 -37M500 1474L468 1393M500 1474L501 1403M574 61L588 136M574 61L501 -37M574 1501L501 1403M706 60L751 34M706 60L800 50M706 60L682 130M706 60L764 95M706 60L718 171M751 34L800 50M751 34L764 95M751 34L710 -68M751 34L726 -56M751 1474L710 1372M751 1474L726 1384M800 50L764 95M800 50L839 120M800 50L881 -8M800 1490L881 1432M892 63L839 120M892 63L898 154M892 63L874 -22M892 63L881 -8M892 1503L874 1418M892 1503L881 1432M1006 27L1061 61M1006 27L981 -65M1006 27L1044 -16M1006 1467L981 1375M1006 1467L1044 1424M1061 61L1161 43M1061 61L1108 89M1061 61L1044 -16M1061 1501L1044 1424M1161 43L1245 24M1161 43L1108 89M1161 43L1180 134M1161 43L1159 -9M1161 1483L1159 1431M1245 24L1337 20M1245 24L1306 108M1245 24L1159 -9M1245 24L1275 -21M1245 1464L1159 1431M1245 1464L1275 1419M1337 20L1306 108M1337 20L1275 -21M1337 20L1359 -69M1337 20L1374 -22M1337 1460L1275 1419M1337 1460L1359 1371M1337 1460L1374 1418M1427 59L1489 27M1427 59L1402 102M1427 59L1466 91M1427 59L1374 -22M1427 59L1509 -10M1427 1499L1374 1418M1427 1499L1509 1430M1489 27L1466 91M1489 27L1509 -10M1489 27L1565 -15M1489 1467L1509 1430M1489 1467L1565 1425M1586 78L1649 68M1586 78L1547 145M1586 78L1621 125M1586 78L1565 -15M1586 78L1631 -2M1586 1518L1565 1425M1586 1518L1631 1438M1649 68L1730 31M1649 68L1621 125M1649 68L1741 91M1649 68L1631 -2M1649 1508L1631 1438M1730 31L1809 74M1730 31L1741 91M1730 31L1729 -75M1730 31L1818 -1M1730 1471L1729 1365M1730 1471L1818 1439M1809 74L1741 91M1809 74L1763 152M1809 74L1818 -1M1809 1514L1818 1439M1900 11L1947 59M1900 11L1919 104M1900 11L1818 -1M1900 11L1907 -61M1900 1451L1818 1439M1900 1451L1907 1379M1947 59L2003 54M1947 59L1919 104M1947 59L1954 123M2003 54L1919 104M2003 54L1954 123M2003 54L2007 154M2003 54L2037 -21M2003 1494L2037 1419M2156 10L2196 44M2156 10L2160 83M2156 10L2091 -8M2156 10L2202 -42M2156 1450L2091 1432M2156 1450L2202 1398M2196 44L2268 9M2196 44L2160 83M2196 44L2267 80M2196 44L2202 -42M2196 1484L2202 1398M2268 9L2349 27M2268 9L2267 80M2268 9L2202 -42M2268 9L2284 -6M2268 1449L2202 1398M2268 1449L2284 1434M2349 27L2328 93M2349 27L2284 -6M2349 27L2397 -26M2349 27L2419 -2M2349 1467L2284 1434M2349 1467L2397 1414M2349 1467L2419 1438M2468 75L2483 35M2468 75L2567 91M2468 75L2427 117M2468 75L2419 -2M-92 75L7 91M2468 1515L2419 1438M2483 35L2567 91M2483 35L2419 -2M2483 35L2496 -46M-77 35L7 91M2483 1475L2419 1438M2483 1475L2496 1394M7 91L-3 123M7 91L77 167M2567 91L2557 123M91 157L-3 123M91 157L77 167M91 157L88 211M2651 157L2557 123M222 143L302 154M222 143L202 219M222 143L245 167M222 143L325 203M302 154L392 88M302 154L245 167M302 154L325 203M392 88L447 131M447 131L495 151M447 131L452 220M495 151L588 136M495 151L452 220M495 151L537 200M588 136L682 130M588 136L537 200M588 136L574 212M682 130L764 95M682 130L718 171M682 130L759 193M764 95L839 120M839 120L898 154M898 154L961 154M898 154L888 218M898 154L899 241M961 154L888 218M961 154L996 170M961 154L1005 247M1108 89L1180 134M1108 89L1159 -9M1108 1529L1159 1431M1180 134L1235 143M1180 134L1142 212M1180 134L1202 161M1235 143L1306 108M1235 143L1202 161M1306 108L1402 102M1306 108L1202 161M1402 102L1466 91M1466 91L1547 145M1466 91L1509 -10M1466 1531L1509 1430M1547 145L1621 125M1547 145L1521 195M1547 145L1611 185M1621 125L1611 185M1741 91L1763 152M1741 91L1758 203M1763 152L1758 203M1763 152L1824 219M1919 104L1954 123M1919 104L2007 154M1954 123L2007 154M2007 154L2002 211M2007 154L2030 258M2160 83L2213 127M2160 83L2091 -8M2160 1523L2091 1432M2213 127L2267 80M2213 127L2142 194M2267 80L2328 93M2267 80L2284 -6M2267 1520L2284 1434M2328 93L2427 117M2328 93L2284 -6M2328 1533L2284 1434M2427 117L2454 198M2557 123L2637 167M2557 123L2535 223M-3 123L77 167M77 167L88 211M77 167L124 244M88 211L70 299M88 211L124 244M202 219L245 167M202 219L124 244M202 219L176 260M202 219L253 300M245 167L325 203M325 203L357 280M452 220L537 200M452 220L472 257M537 200L574 212M537 200L588 261M574 212L472 257M574 212L554 304M574 212L588 261M718 171L759 193M718 171L754 249M759 193L805 234M759 193L707 293M759 193L754 249M805 234L888 218M805 234L754 249M805 234L868 255M805 234L899 241M888 218L868 255M888 218L899 241M996 170L1085 219M996 170L1005 247M1085 219L1142 212M1085 219L1005 247M1085 219L1102 313M1085 219L1149 305M1142 212L1202 161M1142 212L1149 305M1341 227L1434 235M1341 227L1318 267M1341 227L1402 308M1341 227L1375 323M1434 235L1470 236M1434 235L1521 195M1434 235L1402 308M1434 235L1513 260M1470 236L1521 195M1470 236L1402 308M1470 236L1513 260M1470 236L1532 281M1521 195L1611 185M1521 195L1513 260M1611 185L1651 251M1758 203L1824 219M1758 203L1853 227M1758 203L1831 268M1824 219L1853 227M1824 219L1831 268M1824 219L1854 309M1853 227L1921 231M1853 227L1831 268M1853 227L1854 309M1921 231L2002 211M1921 231L1963 268M2002 211L1963 268M2002 211L2030 258M2002 211L2085 250M2142 194L2171 228M2142 194L2085 250M2171 228L2257 227M2171 228L2085 250M2171 228L2225 281M2257 227L2337 217M2257 227L2225 281M2257 227L2248 303M2337 217L2390 281M2454 198L2535 223M2454 198L2390 281M2454 198L2420 305M2535 223L2513 312M70 299L124 244M70 299L65 389M70 299L157 338M124 244L176 260M176 260L253 300M176 260L157 338M176 260L199 334M253 300L157 338M253 300L199 334M253 300L278 359M357 280L278 359M357 280L380 321M472 257L554 304M472 257L491 327M554 304L588 261M554 304L491 327M554 304L598 365M588 261L491 327M588 261L598 365M707 293L754 249M707 293L697 375M707 293L743 375M754 249L868 255M868 255L899 241M868 255L897 366M899 241L1005 247M1005 247L984 343M1102 313L1149 305M1102 313L1104 327M1102 313L1183 325M1102 313L1113 417M1149 305L1104 327M1149 305L1183 325M1279 318L1318 267M1279 318L1183 325M1279 318L1272 364M1318 267L1402 308M1318 267L1272 364M1318 267L1375 323M1402 308L1375 323M1513 260L1532 281M1513 260L1541 320M1532 281L1541 320M1651 251L1688 293M1651 251L1671 325M1688 293L1671 325M1688 293L1683 382M1831 268L1854 309M1831 268L1825 332M1854 309L1825 332M1854 309L1887 364M1963 268L2030 258M1963 268L1938 334M2030 258L2085 250M2030 258L2077 327M2085 250L2077 327M2225 281L2248 303M2225 281L2222 335M2248 303L2222 335M2248 303L2280 369M2390 281L2420 305M2390 281L2447 334M2420 305L2513 312M2420 305L2379 395M2420 305L2447 334M2513 312L2447 334M2513 312L2545 341M2513 312L2503 431M65 389L-15 341M65 389L24 405M65 389L95 430M2625 389L2545 341M157 338L199 334M157 338L214 406M199 334L278 359M199 334L214 406M278 359L214 406M278 359L322 420M380 321L443 389M380 321L322 420M443 389L491 327M443 389L322 420M443 389L475 417M443 389L568 417M491 327L475 417M598 365L697 375M598 365L560 404M598 365L568 417M697 375L743 375M697 375L714 446M697 375L744 423M743 375L714 446M743 375L744 423M859 376L897 366M859 376L830 472M859 376L940 445M897 366L984 343M897 366L940 445M984 343L1009 450M1104 327L1183 325M1104 327L1113 417M1104 327L1142 429M1183 325L1142 429M1272 364L1352 391M1272 364L1277 444M1352 391L1375 323M1352 391L1277 444M1352 391L1358 427M1352 391L1373 437M1459 393L1541 320M1459 393L1373 437M1459 393L1441 444M1541 320L1571 424M1671 325L1683 382M1683 382L1732 447M1825 332L1887 364M1825 332L1938 334M1825 332L1918 409M1887 364L1938 334M1887 364L1918 409M1887 364L1960 430M1938 334L1918 409M2077 327L2104 339M2077 327L2052 432M2077 327L2132 438M2104 339L2132 438M2222 335L2280 369M2222 335L2234 425M2222 335L2292 415M2280 369L2234 425M2280 369L2292 415M2379 395L2447 334M2379 395L2292 415M2379 395L2390 432M2379 395L2452 443M2447 334L2545 341M2545 341L2584 405M2545 341L2503 431M-15 341L24 405M24 405L95 430M24 405L-57 431M24 405L-12 490M2584 405L2503 431M2584 405L2548 490M95 430L-12 490M2655 430L2548 490M214 406L322 420M301 480L322 420M301 480L216 533M301 480L296 550M301 480L384 535M301 480L326 581M475 417L560 404M475 417L568 417M475 417L529 512M560 404L568 417M568 417L529 512M714 446L744 423M714 446L710 500M714 446L729 530M744 423L830 472M744 423L710 500M830 472L808 535M830 472L890 526M940 445L1009 450M940 445L890 526M1009 450L1113 417M1009 450L1012 535M1113 417L1142 429M1142 429L1103 529M1142 429L1138 551M1277 444L1358 427M1277 444L1254 546M1358 427L1373 437M1358 427L1441 444M1373 437L1441 444M1373 437L1378 537M1571 424L1612 477M1571 424L1590 493M1571 424L1612 481M1612 477L1590 493M1612 477L1612 481M1612 477L1686 504M1612 477L1603 576M1732 447L1794 460M1732 447L1686 504M1794 460L1836 512M1794 460L1857 508M1918 409L1960 430M1918 409L1992 489M1960 430L2052 432M1960 430L1992 489M1960 430L2026 518M2052 432L2132 438M2052 432L1992 489M2052 432L2026 518M2132 438L2234 425M2132 438L2158 542M2234 425L2292 415M2234 425L2281 516M2292 415L2281 516M2390 432L2452 443M2452 443L2503 431M2452 443L2548 490M2503 431L2548 490M24 517L104 537M24 517L-12 490M24 517L-16 612M2584 517L2548 490M2584 517L2544 612M104 537L216 533M104 537L51 621M104 537L140 593M104 537L167 583M216 533L296 550M216 533L140 593M216 533L167 583M296 550L384 535M296 550L309 596M296 550L326 581M384 535L451 533M384 535L309 596M384 535L326 581M451 533L529 512M451 533L572 553M451 533L473 591M451 533L497 621M529 512L572 553M529 512L473 591M572 553L473 591M572 553L497 621M572 553L604 592M710 500L729 530M710 500L705 571M710 500L730 571M729 530L808 535M729 530L705 571M729 530L730 571M808 535L890 526M808 535L730 571M808 535L804 628M890 526L949 580M1012 535L1103 529M1012 535L949 580M1012 535L1070 573M1103 529L1138 551M1103 529L1070 573M1138 551L1070 573M1138 551L1132 616M1138 551L1201 587M1254 546L1350 553M1254 546L1201 587M1350 553L1378 537M1350 553L1323 617M1350 553L1390 600M1350 553L1300 652M1378 537L1323 617M1378 537L1390 600M1378 537L1479 566M1518 547L1590 493M1518 547L1479 566M1518 547L1603 576M1590 493L1612 481M1590 493L1603 576M1612 481L1686 504M1612 481L1603 576M1836 512L1857 508M1836 512L1798 612M1836 512L1868 589M1857 508L1868 589M1992 489L2026 518M1992 489L2016 572M2026 518L1946 610M2026 518L2016 572M2158 542L2230 545M2158 542L2136 623M2158 542L2194 617M2230 545L2281 516M2230 545L2324 532M2230 545L2194 617M2230 545L2255 632M2281 516L2324 532M2324 532L2414 560M2324 532L2352 636M2324 532L2417 583M2414 560L2417 583M51 621L140 593M51 621L-16 612M51 621L49 669M51 621L82 651M2611 621L2544 612M140 593L167 583M140 593L82 651M167 583L82 651M167 583L191 669M309 596L326 581M309 596L268 674M309 596L331 687M326 581L268 674M473 591L497 621M473 591L440 653M497 621L440 653M497 621L526 716M604 592L705 571M604 592L669 676M705 571L730 571M705 571L669 676M730 571L804 628M804 628L879 677M804 628L881 643M949 580L965 628M949 580L881 643M949 580L1007 680M965 628L879 677M965 628L881 643M965 628L1007 680M965 628L1063 656M1070 573L1132 616M1070 573L1063 656M1132 616L1201 587M1132 616L1063 656M1132 616L1157 681M1201 587L1157 681M1201 587L1265 659M1323 617L1390 600M1323 617L1265 659M1323 617L1300 652M1390 600L1479 566M1390 600L1451 667M1479 566L1451 667M1598 620L1603 576M1598 620L1522 679M1598 620L1610 679M1598 620L1608 729M1748 620L1798 612M1748 620L1715 688M1748 620L1795 644M1798 612L1868 589M1798 612L1715 688M1798 612L1795 644M1868 589L1946 610M1868 589L1795 644M1946 610L2016 572M1946 610L1979 657M1946 610L2028 668M2016 572L1979 657M2016 572L2028 668M2136 623L2194 617M2136 623L2147 679M2136 623L2160 706M2194 617L2255 632M2194 617L2147 679M2255 632L2352 636M2255 632L2275 666M2352 636L2417 583M2352 636L2275 666M2352 636L2386 692M2417 583L2386 692M2544 612L2609 669M2544 612L2518 684M-16 612L49 669M49 669L82 651M49 669L-42 684M49 669L35 775M2609 669L2518 684M82 651L148 728M191 669L268 674M191 669L148 728M191 669L178 730M191 669L240 726M268 674L331 687M268 674L240 726M331 687L440 653M331 687L240 726M331 687L355 766M440 653L458 732M526 716L608 695M526 716L458 732M526 716L540 768M526 716L586 812M608 695L669 676M608 695L626 786M608 695L680 735M669 676L734 699M669 676L680 735M734 699L680 735M734 699L799 752M879 677L881 643M879 677L825 745M879 677L920 731M881 643L920 731M1007 680L1063 656M1007 680L920 731M1007 680L1036 773M1063 656L1157 681M1157 681L1265 659M1157 681L1100 782M1265 659L1300 652M1265 659L1280 738M1300 652L1280 738M1300 652L1341 747M1423 718L1451 667M1423 718L1341 747M1423 718L1420 729M1423 718L1490 794M1451 667L1522 679M1451 667L1420 729M1522 679L1610 679M1522 679L1569 736M1522 679L1608 729M1610 679L1715 688M1610 679L1569 736M1610 679L1608 729M1715 688L1795 644M1715 688L1684 790M1795 644L1866 713M1866 713L1979 657M1866 713L1831 748M1866 713L1900 754M1866 713L1985 749M1979 657L2028 668M1979 657L1985 749M2028 668L1985 749M2028 668L2076 754M2147 679L2160 706M2147 679L2134 722M2160 706L2076 754M2160 706L2134 722M2160 706L2187 781M2275 666L2242 762M2275 666L2320 755M2386 692L2453 716M2386 692L2320 755M2453 716L2518 684M2453 716L2470 760M2453 716L2483 760M2518 684L2470 760M2518 684L2483 760M35 775L7 840M35 775L117 821M148 728L178 730M148 728L240 726M148 728L117 821M178 730L240 726M355 766L458 732M355 766L249 847M355 766L345 842M355 766L408 832M458 732L540 768M458 732L504 835M540 768L626 786M540 768L504 835M540 768L586 812M626 786L680 735M626 786L586 812M626 786L713 848M680 735L713 848M799 752L825 745M799 752L788 809M799 752L851 815M825 745L920 731M825 745L788 809M825 745L851 815M920 731L945 824M1036 773L1100 782M1036 773L945 824M1036 773L970 848M1100 782L1146 798M1100 782L1101 880M1100 782L1166 839M1146 798L1101 880M1146 798L1166 839M1146 798L1216 835M1280 738L1341 747M1341 747L1420 729M1420 729L1490 794M1420 729L1480 805M1490 794L1569 736M1490 794L1480 805M1490 794L1539 805M1569 736L1608 729M1569 736L1539 805M1608 729L1684 790M1684 790L1649 826M1684 790L1710 801M1831 748L1900 754M1831 748L1826 853M1831 748L1860 861M1900 754L1985 749M1985 749L2076 754M2076 754L2134 722M2076 754L2119 807M2134 722L2187 781M2134 722L2119 807M2187 781L2242 762M2187 781L2119 807M2187 781L2222 859M2242 762L2320 755M2242 762L2222 859M2242 762L2289 838M2320 755L2289 838M2320 755L2354 869M2470 760L2483 760M2470 760L2453 827M2470 760L2496 839M2483 760L2453 827M2483 760L2496 839M7 840L-64 839M7 840L67 894M7 840L-25 887M2567 840L2496 839M2567 840L2535 887M117 821L169 847M117 821L67 894M117 821L114 895M169 847L249 847M169 847L114 895M169 847L231 887M249 847L345 842M249 847L231 887M249 847L275 939M345 842L408 832M345 842L339 934M345 842L427 915M408 832L504 835M408 832L427 915M504 835L586 812M713 848L788 809M713 848L720 907M788 809L851 815M788 809L720 907M851 815L945 824M851 815L873 916M945 824L970 848M945 824L890 924M970 848L873 916M970 848L890 924M1101 880L1166 839M1101 880L1108 944M1101 880L1129 931M1166 839L1216 835M1166 839L1129 931M1216 835L1312 866M1216 835L1273 927M1312 866L1379 872M1312 866L1273 927M1312 866L1291 943M1379 872L1439 896M1480 805L1539 805M1480 805L1439 896M1480 805L1510 905M1539 805L1649 826M1539 805L1510 905M1649 826L1710 801M1649 826L1709 922M1826 853L1860 861M1826 853L1927 875M1826 853L1778 907M1826 853L1847 904M1860 861L1927 875M1860 861L1778 907M1860 861L1847 904M1927 875L1847 904M1927 875L1978 934M2050 845L2119 807M2050 845L1978 934M2119 807L2173 888M2222 859L2289 838M2222 859L2173 888M2222 859L2244 946M2289 838L2354 869M2289 838L2328 917M2354 869L2453 827M2354 869L2328 917M2354 869L2418 935M2453 827L2496 839M2453 827L2535 887M2496 839L2535 887M67 894L114 895M67 894L-25 887M67 894L132 963M2627 894L2535 887M114 895L231 887M114 895L132 963M231 887L275 939M231 887L181 982M275 939L339 934M275 939L181 982M275 939L242 1011M339 934L427 915M339 934L364 999M427 915L419 1015M427 915L483 1008M544 950L609 938M544 950L483 1008M544 950L622 1039M609 938L655 950M609 938L622 1039M609 938L652 962M655 950L720 907M655 950L652 962M655 950L735 962M655 950L669 1043M720 907L735 962M873 916L890 924M873 916L877 982M873 916L957 969M890 924L877 982M890 924L957 969M1029 946L1108 944M1029 946L1129 931M1029 946L957 969M1029 946L983 1001M1108 944L1129 931M1108 944L1134 1032M1273 927L1291 943M1273 927L1298 975M1291 943L1298 975M1439 896L1510 905M1510 905L1577 945M1510 905L1559 992M1577 945L1665 958M1577 945L1559 992M1577 945L1604 1017M1665 958L1709 922M1665 958L1604 1017M1665 958L1705 1006M1709 922L1778 907M1709 922L1705 1006M1709 922L1783 993M1778 907L1847 904M1778 907L1783 993M1847 904L1854 1015M1978 934L2014 954M1978 934L1986 972M2014 954L2119 959M2014 954L1986 972M2014 954L2015 1035M2014 954L2109 1022M2119 959L2173 888M2119 959L2109 1022M2119 959L2198 969M2173 888L2244 946M2173 888L2198 969M2244 946L2328 917M2244 946L2198 969M2244 946L2294 1027M2328 917L2418 935M2328 917L2361 1007M2418 935L2438 1004M2418 935L2408 1044M2535 887L2536 977M80 1019L132 963M80 1019L181 982M80 1019L-24 977M80 1019L13 1077M80 1019L101 1075M2640 1019L2536 977M132 963L181 982M132 963L101 1075M181 982L242 1011M242 1011L215 1102M242 1011L308 1054M364 999L419 1015M364 999L308 1054M364 999L404 1043M419 1015L483 1008M419 1015L373 1086M419 1015L404 1043M483 1008L404 1043M483 1008L500 1084M622 1039L652 962M622 1039L621 1116M622 1039L669 1043M652 962L735 962M652 962L669 1043M735 962L669 1043M877 982L957 969M877 982L799 1048M877 982L892 1058M957 969L983 1001M983 1001L1061 1031M983 1001L1025 1067M1061 1031L1134 1032M1061 1031L1025 1067M1061 1031L1059 1074M1061 1031L1122 1050M1134 1032L1059 1074M1134 1032L1122 1050M1134 1032L1213 1076M1218 1033L1298 975M1218 1033L1213 1076M1218 1033L1211 1153M1298 975L1367 1023M1367 1023L1446 1008M1367 1023L1330 1109M1367 1023L1372 1058M1367 1023L1444 1084M1446 1008L1372 1058M1446 1008L1444 1084M1559 992L1604 1017M1559 992L1583 1092M1559 992L1652 1053M1604 1017L1583 1092M1604 1017L1652 1053M1705 1006L1783 993M1705 1006L1652 1053M1705 1006L1728 1089M1783 993L1854 1015M1783 993L1836 1089M1854 1015L1836 1089M1854 1015L1867 1078M1986 972L2015 1035M2015 1035L2109 1022M2015 1035L1998 1092M2015 1035L2077 1066M2109 1022L2077 1066M2109 1022L2142 1067M2198 969L2223 1067M2198 969L2243 1056M2294 1027L2361 1007M2294 1027L2223 1067M2294 1027L2243 1056M2294 1027L2351 1065M2361 1007L2438 1004M2361 1007L2351 1065M2361 1007L2408 1044M2438 1004L2536 977M2438 1004L2408 1044M2536 977L2573 1077M2536 977L2550 1074M-24 977L13 1077M13 1077L101 1075M13 1077L-10 1074M13 1077L-26 1148M2573 1077L2550 1074M2573 1077L2534 1148M101 1075L-10 1074M101 1075L72 1160M2661 1075L2550 1074M215 1102L187 1187M215 1102L307 1133M215 1102L207 1216M308 1054L373 1086M308 1054L404 1043M308 1054L307 1133M373 1086L404 1043M373 1086L307 1133M373 1086L436 1145M500 1084L497 1146M621 1116L669 1043M621 1116L601 1177M621 1116L650 1171M621 1116L620 1207M799 1048L825 1100M799 1048L892 1058M799 1048L762 1130M825 1100L892 1058M825 1100L762 1130M825 1100L878 1126M825 1100L830 1212M892 1058L878 1126M1025 1067L1059 1074M1025 1067L1122 1050M1059 1074L1122 1050M1059 1074L1088 1173M1122 1050L1213 1076M1213 1076L1137 1175M1213 1076L1211 1153M1330 1109L1372 1058M1330 1109L1343 1166M1330 1109L1390 1162M1372 1058L1444 1084M1444 1084L1390 1162M1444 1084L1482 1145M1583 1092L1652 1053M1583 1092L1599 1174M1583 1092L1605 1189M1652 1053L1728 1089M1728 1089L1718 1177M1836 1089L1867 1078M1836 1089L1783 1181M1836 1089L1913 1132M1867 1078L1913 1132M1998 1092L2077 1066M1998 1092L1973 1184M1998 1092L2002 1155M2077 1066L2142 1067M2077 1066L2002 1155M2142 1067L2223 1067M2142 1067L2243 1056M2142 1067L2146 1176M2223 1067L2243 1056M2243 1056L2351 1065M2351 1065L2408 1044M2351 1065L2373 1144M2408 1044L2373 1144M2550 1074L2534 1148M72 1160L129 1198M72 1160L-26 1148M72 1160L7 1207M72 1160L109 1230M2632 1160L2534 1148M129 1198L187 1187M129 1198L109 1230M129 1198L207 1216M187 1187L109 1230M187 1187L207 1216M187 1187L246 1241M307 1133L373 1176M307 1133L371 1205M373 1176L436 1145M373 1176L371 1205M373 1176L459 1226M436 1145L497 1146M436 1145L371 1205M436 1145L459 1226M497 1146L601 1177M497 1146L459 1226M497 1146L489 1243M601 1177L650 1171M601 1177L620 1207M601 1177L680 1220M650 1171L620 1207M650 1171L680 1220M762 1130L789 1238M762 1130L830 1212M878 1126L928 1158M878 1126L830 1212M878 1126L932 1206M928 1158L1026 1180M928 1158L932 1206M928 1158L965 1254M1026 1180L1088 1173M1026 1180L965 1254M1026 1180L1088 1220M1088 1173L1137 1175M1088 1173L1088 1220M1137 1175L1211 1153M1137 1175L1088 1220M1137 1175L1185 1227M1211 1153L1185 1227M1211 1153L1244 1263M1343 1166L1390 1162M1343 1166L1347 1234M1343 1166L1386 1231M1390 1162L1347 1234M1390 1162L1386 1231M1482 1145L1471 1215M1599 1174L1605 1189M1599 1174L1555 1273M1599 1174L1640 1225M1605 1189L1555 1273M1605 1189L1640 1225M1718 1177L1783 1181M1718 1177L1640 1225M1718 1177L1716 1229M1718 1177L1793 1204M1783 1181L1716 1229M1783 1181L1793 1204M1913 1132L1973 1184M1913 1132L2002 1155M1913 1132L1908 1216M1973 1184L2002 1155M1973 1184L1908 1216M2002 1155L1908 1216M2146 1176L2186 1190M2146 1176L2079 1270M2146 1176L2142 1256M2186 1190L2277 1190M2186 1190L2142 1256M2186 1190L2222 1237M2277 1190L2373 1144M2277 1190L2222 1237M2277 1190L2303 1203M2373 1144L2440 1191M2373 1144L2303 1203M2440 1191L2534 1148M2440 1191L2373 1260M2440 1191L2454 1244M2440 1191L2482 1247M2534 1148L2567 1207M-26 1148L7 1207M7 1207L109 1230M7 1207L-78 1247M7 1207L-24 1304M2567 1207L2482 1247M2567 1207L2536 1304M207 1216L246 1241M246 1241L190 1337M246 1241L244 1331M371 1205L459 1226M371 1205L337 1311M459 1226L489 1243M489 1243L436 1322M489 1243L485 1348M620 1207L680 1220M620 1207L598 1331M680 1220L789 1238M789 1238L830 1212M789 1238L758 1291M789 1238L841 1325M830 1212L932 1206M932 1206L965 1254M932 1206L930 1303M965 1254L930 1303M965 1254L1012 1285M1088 1220L1012 1285M1185 1227L1244 1263M1185 1227L1162 1316M1185 1227L1245 1295M1244 1263L1347 1234M1244 1263L1162 1316M1244 1263L1245 1295M1347 1234L1386 1231M1347 1234L1348 1333M1386 1231L1471 1215M1386 1231L1437 1311M1471 1215L1437 1311M1555 1273L1568 1300M1555 1273L1644 1323M1640 1225L1716 1229M1640 1225L1644 1323M1716 1229L1793 1204M1716 1229L1734 1316M1793 1204L1858 1283M1908 1216L1952 1275M1908 1216L1858 1283M1952 1275L1858 1283M1952 1275L1972 1327M1952 1275L2027 1297M1952 1275L1962 1374M2079 1270L2142 1256M2079 1270L2027 1297M2079 1270L2155 1335M2142 1256L2222 1237M2142 1256L2155 1335M2222 1237L2303 1203M2222 1237L2267 1318M2303 1203L2373 1260M2373 1260L2454 1244M2373 1260L2337 1310M2373 1260L2450 1312M2454 1244L2482 1247M2454 1244L2450 1312M2482 1247L2450 1312M2482 1247L2536 1304M64 1316L96 1333M64 1316L-24 1304M64 1316L67 1418M2624 1316L2536 1304M96 1333L190 1337M96 1333L67 1418M96 1333L120 1436M96 1333L182 1364M190 1337L244 1331M190 1337L182 1364M190 1337L285 1386M244 1331L337 1311M244 1331L182 1364M244 1331L285 1386M337 1311L436 1322M337 1311L285 1386M337 1311L336 1394M436 1322L485 1348M436 1322L468 1393M436 1322L501 1403M485 1348L598 1331M485 1348L468 1393M485 1348L501 1403M598 1331L706 1337M598 1331L631 1377M706 1337L758 1291M706 1337L631 1377M706 1337L710 1372M706 1337L726 1384M758 1291L841 1325M758 1291L710 1372M758 1291L726 1384M841 1325L930 1303M841 1325L874 1418M841 1325L881 1432M930 1303L1012 1285M930 1303L981 1375M1012 1285L1103 1339M1012 1285L981 1375M1103 1339L1162 1316M1103 1339L1044 1424M1103 1339L1159 1431M1162 1316L1245 1295M1162 1316L1159 1431M1245 1295L1348 1333M1348 1333L1437 1311M1348 1333L1359 1371M1348 1333L1374 1418M1437 1311L1459 1357M1437 1311L1359 1371M1459 1357L1509 1430M1568 1300L1644 1323M1644 1323L1734 1316M1644 1323L1729 1365M1734 1316L1828 1325M1734 1316L1729 1365M1828 1325L1858 1283M1828 1325L1729 1365M1828 1325L1818 1439M1828 1325L1907 1379M1972 1327L2027 1297M1972 1327L1907 1379M1972 1327L1962 1374M1972 1327L2037 1419M2027 1297L1962 1374M2027 1297L2037 1419M2155 1335L2219 1353M2155 1335L2091 1432M2155 1335L2202 1398M2219 1353L2267 1318M2219 1353L2202 1398M2267 1318L2337 1310M2267 1318L2284 1434M2450 1312L2536 1304M2450 1312L2496 1394M2536 1304L2496 1394M67 1418L120 1436M120 1436L182 1364M285 1386L336 1394M336 1394L468 1393M468 1393L501 1403M631 1377L710 1372M631 1377L726 1384M710 1372L726 1384M874 1418L881 1432M881 1432L981 1375M981 1375L1044 1424M1275 1419L1359 1371M1275 1419L1374 1418M1359 1371L1374 1418M1509 1430L1565 1425M1565 1425L1631 1438M1818 1439L1907 1379M1907 1379L1962 1374M1962 1374L2037 1419M2037 1419L2091 1432M2397 1414L2419 1438M2397 1414L2496 1394M2419 1438L2496 1394"/></svg>