<svg xmlns="http://www.w3.org/2000/svg" width="2560" height="1440" fill="#fff"><circle cx="45" cy="46" r="6"/><circle cx="100" cy="9" r="6"/><circle cx="208" cy="39" r="5"/><circle cx="292" cy="0" r="5"/><circle cx="292" cy="1440" r="5"/><circle cx="359" cy="54" r="4"/><circle cx="408" cy="58" r="6"/><circle cx="507" cy="49" r="6"/><circle cx="565" cy="19" r="4"/><circle cx="682" cy="41" r="5"/><circle cx="738" cy="80" r="5"/><circle cx="821" cy="64" r="4"/><circle cx="955" cy="10" r="4"/><circle cx="1021" cy="73" r="4"/><circle cx="1061" cy="63" r="5"/><circle cx="1148" cy="61" r="6"/><circle cx="1257" cy="59" r="5"/><circle cx="1294" cy="64" r="6"/><circle cx="1366" cy="66" r="6"/><circle cx="1485" cy="5" r="5"/><circle cx="1576" cy="64" r="5"/><circle cx="1672" cy="58" r="5"/><circle cx="1680" cy="28" r="5"/><circle cx="1775" cy="17" r="5"/><circle cx="1913" cy="57" r="4"/><circle cx="1986" cy="10" r="6"/><circle cx="2014" cy="49" r="4"/><circle cx="2143" cy="43" r="5"/><circle cx="2232" cy="38" r="5"/><circle cx="2318" cy="63" r="5"/><circle cx="2386" cy="11" r="5"/><circle cx="2471" cy="54" r="5"/><circle cx="2502" cy="39" r="5"/><circle cx="67" cy="116" r="4"/><circle cx="120" cy="83" r="4"/><circle cx="228" cy="85" r="5"/><circle cx="281" cy="121" r="6"/><circle cx="369" cy="123" r="5"/><circle cx="417" cy="94" r="4"/><circle cx="482" cy="107" r="6"/><circle cx="623" cy="140" r="6"/><circle cx="653" cy="154" r="4"/><circle cx="754" cy="123" r="4"/><circle cx="809" cy="109" r="5"/><circle cx="913" cy="87" r="5"/><circle cx="999" cy="160" r="6"/><circle cx="1050" cy="111" r="5"/><circle cx="1152" cy="148" r="4"/><circle cx="1256" cy="118" r="6"/><circle cx="1322" cy="122" r="4"/><circle cx="1413" cy="135" r="6"/><circle cx="1454" cy="98" r="5"/><circle cx="1580" cy="122" r="5"/><circle cx="1679" cy="83" r="5"/><circle cx="1714" cy="105" r="4"/><circle cx="1805" cy="104" r="4"/><circle cx="1869" cy="103" r="6"/><circle cx="1941" cy="127" r="4"/><circle cx="2041" cy="115" r="6"/><circle cx="2145" cy="141" r="6"/><circle cx="2231" cy="158" r="5"/><circle cx="2245" cy="133" r="6"/><circle cx="2398" cy="140" r="4"/><circle cx="2480" cy="101" r="4"/><circle cx="2522" cy="102" r="4"/><circle cx="64" cy="201" r="4"/><circle cx="133" cy="204" r="4"/><circle cx="223" cy="160" r="5"/><circle cx="275" cy="169" r="5"/><circle cx="370" cy="229" r="6"/><circle cx="436" cy="202" r="6"/><circle cx="495" cy="194" r="4"/><circle cx="570" cy="217" r="6"/><circle cx="674" cy="216" r="6"/><circle cx="762" cy="216" r="5"/><circle cx="800" cy="207" r="6"/><circle cx="894" cy="168" r="4"/><circle cx="1013" cy="163" r="5"/><circle cx="1070" cy="174" r="5"/><circle cx="1196" cy="236" r="5"/><circle cx="1255" cy="207" r="4"/><circle cx="1313" cy="171" r="5"/><circle cx="1400" cy="228" r="5"/><circle cx="1448" cy="197" r="5"/><circle cx="1532" cy="180" r="6"/><circle cx="1666" cy="192" r="5"/><circle cx="1691" cy="162" r="6"/><circle cx="1839" cy="215" r="5"/><circle cx="1891" cy="164" r="5"/><circle cx="1927" cy="219" r="4"/><circle cx="2010" cy="191" r="5"/><circle cx="2143" cy="217" r="5"/><circle cx="2199" cy="175" r="5"/><circle cx="2254" cy="213" r="5"/><circle cx="2320" cy="205" r="6"/><circle cx="2430" cy="227" r="6"/><circle cx="2546" cy="234" r="5"/><circle cx="18" cy="250" r="6"/><circle cx="121" cy="270" r="5"/><circle cx="207" cy="269" r="6"/><circle cx="277" cy="316" r="4"/><circle cx="347" cy="300" r="4"/><circle cx="434" cy="270" r="4"/><circle cx="518" cy="295" r="4"/><circle cx="635" cy="284" r="4"/><circle cx="659" cy="246" r="4"/><circle cx="765" cy="287" r="6"/><circle cx="842" cy="264" r="5"/><circle cx="884" cy="281" r="4"/><circle cx="985" cy="290" r="5"/><circle cx="1093" cy="262" r="5"/><circle cx="1144" cy="273" r="6"/><circle cx="1208" cy="262" r="4"/><circle cx="1341" cy="312" r="4"/><circle cx="1434" cy="272" r="5"/><circle cx="1506" cy="271" r="5"/><circle cx="1526" cy="241" r="6"/><circle cx="1610" cy="288" r="5"/><circle cx="1732" cy="294" r="6"/><circle cx="1774" cy="275" r="4"/><circle cx="1883" cy="320" r="5"/><circle cx="1962" cy="275" r="5"/><circle cx="2060" cy="267" r="5"/><circle cx="2109" cy="314" r="5"/><circle cx="2212" cy="313" r="5"/><circle cx="2266" cy="302" r="5"/><circle cx="2328" cy="291" r="6"/><circle cx="2402" cy="315" r="6"/><circle cx="2491" cy="315" r="5"/><circle cx="36" cy="366" r="4"/><circle cx="124" cy="360" r="4"/><circle cx="211" cy="321" r="5"/><circle cx="249" cy="349" r="5"/><circle cx="331" cy="365" r="5"/><circle cx="421" cy="365" r="4"/><circle cx="522" cy="330" r="5"/><circle cx="569" cy="344" r="4"/><circle cx="719" cy="385" r="5"/><circle cx="776" cy="332" r="5"/><circle cx="878" cy="332" r="4"/><circle cx="882" cy="329" r="6"/><circle cx="977" cy="327" r="6"/><circle cx="1108" cy="375" r="5"/><circle cx="1156" cy="377" r="4"/><circle cx="1237" cy="382" r="5"/><circle cx="1322" cy="368" r="5"/><circle cx="1378" cy="368" r="5"/><circle cx="1465" cy="396" r="5"/><circle cx="1561" cy="379" r="4"/><circle cx="1607" cy="341" r="5"/><circle cx="1752" cy="391" r="5"/><circle cx="1801" cy="386" r="5"/><circle cx="1898" cy="328" r="5"/><circle cx="1954" cy="395" r="4"/><circle cx="2067" cy="369" r="4"/><circle cx="2090" cy="366" r="5"/><circle cx="2189" cy="331" r="5"/><circle cx="2312" cy="385" r="5"/><circle cx="2352" cy="389" r="4"/><circle cx="2416" cy="356" r="4"/><circle cx="2553" cy="366" r="4"/><circle cx="6" cy="426" r="6"/><circle cx="149" cy="433" r="5"/><circle cx="210" cy="445" r="4"/><circle cx="313" cy="459" r="5"/><circle cx="372" cy="403" r="6"/><circle cx="433" cy="450" r="5"/><circle cx="504" cy="458" r="5"/><circle cx="588" cy="451" r="6"/><circle cx="656" cy="420" r="4"/><circle cx="744" cy="449" r="5"/><circle cx="819" cy="422" r="5"/><circle cx="915" cy="463" r="6"/><circle cx="995" cy="463" r="5"/><circle cx="1077" cy="448" r="5"/><circle cx="1188" cy="409" r="5"/><circle cx="1231" cy="412" r="6"/><circle cx="1333" cy="412" r="6"/><circle cx="1376" cy="454" r="5"/><circle cx="1500" cy="438" r="5"/><circle cx="1584" cy="411" r="4"/><circle cx="1676" cy="429" r="5"/><circle cx="1755" cy="432" r="4"/><circle cx="1768" cy="478" r="5"/><circle cx="1854" cy="406" r="6"/><circle cx="1980" cy="418" r="5"/><circle cx="2047" cy="423" r="4"/><circle cx="2092" cy="456" r="5"/><circle cx="2207" cy="480" r="4"/><circle cx="2279" cy="406" r="6"/><circle cx="2398" cy="445" r="6"/><circle cx="2455" cy="412" r="4"/><circle cx="2507" cy="466" r="6"/><circle cx="41" cy="528" r="5"/><circle cx="119" cy="488" r="4"/><circle cx="210" cy="496" r="6"/><circle cx="314" cy="527" r="5"/><circle cx="373" cy="515" r="5"/><circle cx="417" cy="557" r="4"/><circle cx="504" cy="540" r="4"/><circle cx="631" cy="511" r="4"/><circle cx="688" cy="553" r="4"/><circle cx="795" cy="556" r="6"/><circle cx="863" cy="553" r="4"/><circle cx="906" cy="527" r="4"/><circle cx="1000" cy="559" r="5"/><circle cx="1112" cy="536" r="5"/><circle cx="1199" cy="501" r="5"/><circle cx="1230" cy="506" r="6"/><circle cx="1344" cy="544" r="6"/><circle cx="1411" cy="551" r="5"/><circle cx="1519" cy="546" r="4"/><circle cx="1585" cy="514" r="6"/><circle cx="1630" cy="508" r="6"/><circle cx="1705" cy="522" r="6"/><circle cx="1777" cy="492" r="5"/><circle cx="1884" cy="553" r="5"/><circle cx="1933" cy="508" r="4"/><circle cx="2031" cy="558" r="6"/><circle cx="2140" cy="532" r="5"/><circle cx="2200" cy="483" r="5"/><circle cx="2319" cy="552" r="5"/><circle cx="2387" cy="502" r="5"/><circle cx="2402" cy="494" r="6"/><circle cx="2500" cy="503" r="4"/><circle cx="80" cy="612" r="5"/><circle cx="81" cy="602" r="6"/><circle cx="212" cy="631" r="6"/><circle cx="291" cy="584" r="6"/><circle cx="327" cy="623" r="5"/><circle cx="475" cy="569" r="6"/><circle cx="540" cy="629" r="6"/><circle cx="625" cy="564" r="6"/><circle cx="715" cy="636" r="5"/><circle cx="798" cy="569" r="5"/><circle cx="866" cy="601" r="5"/><circle cx="897" cy="623" r="5"/><circle cx="1006" cy="630" r="5"/><circle cx="1063" cy="634" r="4"/><circle cx="1134" cy="631" r="5"/><circle cx="1279" cy="585" r="5"/><circle cx="1300" cy="575" r="5"/><circle cx="1394" cy="589" r="4"/><circle cx="1447" cy="596" r="6"/><circle cx="1569" cy="578" r="5"/><circle cx="1603" cy="581" r="5"/><circle cx="1703" cy="632" r="5"/><circle cx="1781" cy="597" r="5"/><circle cx="1857" cy="564" r="4"/><circle cx="1938" cy="579" r="6"/><circle cx="2055" cy="625" r="5"/><circle cx="2141" cy="602" r="5"/><circle cx="2212" cy="618" r="6"/><circle cx="2276" cy="593" r="4"/><circle cx="2381" cy="620" r="6"/><circle cx="2407" cy="634" r="5"/><circle cx="2530" cy="588" r="6"/><circle cx="61" cy="693" r="6"/><circle cx="98" cy="651" r="4"/><circle cx="177" cy="692" r="5"/><circle cx="242" cy="713" r="6"/><circle cx="348" cy="681" r="4"/><circle cx="448" cy="688" r="6"/><circle cx="530" cy="658" r="5"/><circle cx="629" cy="662" r="5"/><circle cx="683" cy="696" r="6"/><circle cx="765" cy="695" r="5"/><circle cx="838" cy="691" r="5"/><circle cx="957" cy="692" r="5"/><circle cx="1023" cy="701" r="5"/><circle cx="1100" cy="706" r="5"/><circle cx="1134" cy="697" r="5"/><circle cx="1227" cy="654" r="5"/><circle cx="1287" cy="654" r="5"/><circle cx="1409" cy="715" r="5"/><circle cx="1464" cy="692" r="6"/><circle cx="1566" cy="706" r="6"/><circle cx="1676" cy="704" r="6"/><circle cx="1754" cy="711" r="5"/><circle cx="1805" cy="672" r="5"/><circle cx="1846" cy="691" r="6"/><circle cx="1977" cy="713" r="4"/><circle cx="2037" cy="670" r="6"/><circle cx="2146" cy="699" r="5"/><circle cx="2167" cy="675" r="5"/><circle cx="2316" cy="693" r="5"/><circle cx="2327" cy="678" r="5"/><circle cx="2452" cy="668" r="5"/><circle cx="2513" cy="713" r="4"/><circle cx="64" cy="729" r="5"/><circle cx="127" cy="723" r="5"/><circle cx="180" cy="763" r="5"/><circle cx="271" cy="730" r="5"/><circle cx="385" cy="722" r="4"/><circle cx="471" cy="729" r="6"/><circle cx="519" cy="747" r="5"/><circle cx="567" cy="792" r="6"/><circle cx="693" cy="737" r="4"/><circle cx="795" cy="728" r="5"/><circle cx="832" cy="790" r="5"/><circle cx="920" cy="746" r="6"/><circle cx="987" cy="772" r="5"/><circle cx="1082" cy="727" r="6"/><circle cx="1147" cy="731" r="4"/><circle cx="1252" cy="761" r="5"/><circle cx="1295" cy="736" r="5"/><circle cx="1385" cy="755" r="5"/><circle cx="1497" cy="799" r="6"/><circle cx="1524" cy="735" r="6"/><circle cx="1654" cy="752" r="5"/><circle cx="1681" cy="742" r="6"/><circle cx="1789" cy="748" r="5"/><circle cx="1842" cy="770" r="5"/><circle cx="1944" cy="795" r="6"/><circle cx="2068" cy="731" r="4"/><circle cx="2125" cy="782" r="5"/><circle cx="2207" cy="745" r="5"/><circle cx="2314" cy="758" r="5"/><circle cx="2362" cy="736" r="4"/><circle cx="2432" cy="751" r="5"/><circle cx="2516" cy="741" r="5"/><circle cx="28" cy="855" r="4"/><circle cx="144" cy="879" r="5"/><circle cx="186" cy="865" r="5"/><circle cx="265" cy="868" r="5"/><circle cx="331" cy="800" r="5"/><circle cx="443" cy="817" r="4"/><circle cx="559" cy="827" r="4"/><circle cx="602" cy="835" r="6"/><circle cx="715" cy="839" r="5"/><circle cx="768" cy="822" r="5"/><circle cx="808" cy="859" r="4"/><circle cx="888" cy="809" r="5"/><circle cx="977" cy="861" r="6"/><circle cx="1047" cy="827" r="6"/><circle cx="1168" cy="878" r="5"/><circle cx="1229" cy="837" r="4"/><circle cx="1334" cy="826" r="5"/><circle cx="1438" cy="872" r="4"/><circle cx="1445" cy="825" r="5"/><circle cx="1578" cy="855" r="5"/><circle cx="1614" cy="809" r="5"/><circle cx="1751" cy="807" r="5"/><circle cx="1836" cy="816" r="4"/><circle cx="1910" cy="846" r="5"/><circle cx="1959" cy="810" r="5"/><circle cx="2052" cy="833" r="5"/><circle cx="2125" cy="802" r="5"/><circle cx="2162" cy="856" r="6"/><circle cx="2320" cy="838" r="5"/><circle cx="2333" cy="871" r="6"/><circle cx="2411" cy="867" r="5"/><circle cx="2504" cy="877" r="4"/><circle cx="11" cy="889" r="6"/><circle cx="95" cy="945" r="5"/><circle cx="192" cy="910" r="5"/><circle cx="304" cy="922" r="6"/><circle cx="326" cy="909" r="4"/><circle cx="440" cy="931" r="5"/><circle cx="492" cy="892" r="5"/><circle cx="584" cy="887" r="5"/><circle cx="717" cy="937" r="6"/><circle cx="737" cy="901" r="6"/><circle cx="825" cy="898" r="4"/><circle cx="896" cy="956" r="6"/><circle cx="1021" cy="937" r="6"/><circle cx="1115" cy="954" r="5"/><circle cx="1175" cy="922" r="6"/><circle cx="1212" cy="919" r="5"/><circle cx="1284" cy="935" r="5"/><circle cx="1394" cy="891" r="5"/><circle cx="1479" cy="948" r="4"/><circle cx="1527" cy="931" r="5"/><circle cx="1626" cy="909" r="6"/><circle cx="1754" cy="922" r="5"/><circle cx="1768" cy="958" r="4"/><circle cx="1852" cy="881" r="5"/><circle cx="1991" cy="922" r="4"/><circle cx="2014" cy="913" r="5"/><circle cx="2119" cy="901" r="5"/><circle cx="2234" cy="942" r="4"/><circle cx="2285" cy="941" r="6"/><circle cx="2392" cy="941" r="6"/><circle cx="2432" cy="930" r="5"/><circle cx="2528" cy="941" r="5"/><circle cx="65" cy="1015" r="5"/><circle cx="84" cy="991" r="5"/><circle cx="169" cy="1018" r="5"/><circle cx="316" cy="993" r="5"/><circle cx="375" cy="991" r="5"/><circle cx="407" cy="1035" r="5"/><circle cx="544" cy="971" r="4"/><circle cx="630" cy="1030" r="5"/><circle cx="648" cy="978" r="5"/><circle cx="752" cy="1030" r="6"/><circle cx="811" cy="978" r="5"/><circle cx="880" cy="961" r="5"/><circle cx="1000" cy="1022" r="6"/><circle cx="1118" cy="964" r="6"/><circle cx="1166" cy="975" r="5"/><circle cx="1216" cy="1018" r="5"/><circle cx="1321" cy="1037" r="4"/><circle cx="1435" cy="963" r="6"/><circle cx="1443" cy="1029" r="5"/><circle cx="1565" cy="961" r="4"/><circle cx="1651" cy="969" r="6"/><circle cx="1759" cy="1013" r="5"/><circle cx="1826" cy="1007" r="5"/><circle cx="1847" cy="996" r="4"/><circle cx="1934" cy="995" r="6"/><circle cx="2043" cy="1038" r="5"/><circle cx="2154" cy="1012" r="6"/><circle cx="2199" cy="1002" r="4"/><circle cx="2259" cy="1018" r="5"/><circle cx="2346" cy="1003" r="5"/><circle cx="2420" cy="990" r="6"/><circle cx="2521" cy="994" r="5"/><circle cx="50" cy="1048" r="6"/><circle cx="112" cy="1041" r="5"/><circle cx="161" cy="1061" r="4"/><circle cx="279" cy="1067" r="4"/><circle cx="371" cy="1075" r="5"/><circle cx="417" cy="1107" r="6"/><circle cx="550" cy="1112" r="4"/><circle cx="571" cy="1090" r="6"/><circle cx="719" cy="1067" r="6"/><circle cx="769" cy="1056" r="4"/><circle cx="826" cy="1067" r="6"/><circle cx="960" cy="1050" r="4"/><circle cx="1000" cy="1108" r="5"/><circle cx="1051" cy="1051" r="4"/><circle cx="1164" cy="1081" r="5"/><circle cx="1261" cy="1067" r="4"/><circle cx="1340" cy="1117" r="5"/><circle cx="1404" cy="1115" r="6"/><circle cx="1513" cy="1103" r="4"/><circle cx="1568" cy="1042" r="4"/><circle cx="1648" cy="1041" r="4"/><circle cx="1716" cy="1098" r="4"/><circle cx="1769" cy="1102" r="5"/><circle cx="1884" cy="1117" r="6"/><circle cx="1944" cy="1069" r="4"/><circle cx="2020" cy="1041" r="5"/><circle cx="2123" cy="1112" r="4"/><circle cx="2216" cy="1114" r="6"/><circle cx="2248" cy="1091" r="5"/><circle cx="2365" cy="1045" r="5"/><circle cx="2479" cy="1087" r="4"/><circle cx="2488" cy="1060" r="5"/><circle cx="24" cy="1139" r="4"/><circle cx="141" cy="1129" r="5"/><circle cx="233" cy="1158" r="5"/><circle cx="294" cy="1188" r="5"/><circle cx="339" cy="1121" r="5"/><circle cx="450" cy="1132" r="4"/><circle cx="529" cy="1191" r="5"/><circle cx="591" cy="1126" r="5"/><circle cx="671" cy="1134" r="6"/><circle cx="775" cy="1122" r="5"/><circle cx="853" cy="1145" r="5"/><circle cx="915" cy="1149" r="5"/><circle cx="998" cy="1158" r="6"/><circle cx="1110" cy="1159" r="6"/><circle cx="1162" cy="1175" r="4"/><circle cx="1206" cy="1135" r="5"/><circle cx="1326" cy="1152" r="6"/><circle cx="1417" cy="1185" r="4"/><circle cx="1471" cy="1166" r="4"/><circle cx="1587" cy="1187" r="6"/><circle cx="1607" cy="1176" r="5"/><circle cx="1681" cy="1163" r="6"/><circle cx="1820" cy="1123" r="5"/><circle cx="1883" cy="1143" r="5"/><circle cx="1992" cy="1175" r="4"/><circle cx="2067" cy="1133" r="5"/><circle cx="2153" cy="1137" r="5"/><circle cx="2188" cy="1125" r="6"/><circle cx="2302" cy="1191" r="4"/><circle cx="2370" cy="1156" r="5"/><circle cx="2466" cy="1153" r="5"/><circle cx="2512" cy="1168" r="4"/><circle cx="22" cy="1271" r="5"/><circle cx="102" cy="1252" r="4"/><circle cx="237" cy="1279" r="5"/><circle cx="270" cy="1211" r="5"/><circle cx="372" cy="1221" r="5"/><circle cx="479" cy="1239" r="4"/><circle cx="532" cy="1268" r="4"/><circle cx="596" cy="1225" r="5"/><circle cx="675" cy="1234" r="5"/><circle cx="767" cy="1210" r="6"/><circle cx="806" cy="1266" r="4"/><circle cx="921" cy="1241" r="5"/><circle cx="1011" cy="1253" r="4"/><circle cx="1048" cy="1203" r="6"/><circle cx="1190" cy="1267" r="6"/><circle cx="1238" cy="1251" r="5"/><circle cx="1312" cy="1230" r="6"/><circle cx="1386" cy="1206" r="4"/><circle cx="1455" cy="1225" r="5"/><circle cx="1544" cy="1272" r="5"/><circle cx="1663" cy="1272" r="6"/><circle cx="1754" cy="1202" r="5"/><circle cx="1761" cy="1205" r="6"/><circle cx="1863" cy="1266" r="6"/><circle cx="1934" cy="1269" r="5"/><circle cx="2052" cy="1245" r="4"/><circle cx="2133" cy="1260" r="5"/><circle cx="2197" cy="1252" r="5"/><circle cx="2286" cy="1264" r="5"/><circle cx="2350" cy="1238" r="5"/><circle cx="2429" cy="1224" r="5"/><circle cx="2487" cy="1209" r="4"/><circle cx="27" cy="1286" r="5"/><circle cx="116" cy="1290" r="6"/><circle cx="237" cy="1310" r="4"/><circle cx="241" cy="1358" r="4"/><circle cx="354" cy="1284" r="4"/><circle cx="453" cy="1353" r="5"/><circle cx="552" cy="1351" r="4"/><circle cx="578" cy="1345" r="6"/><circle cx="709" cy="1294" r="6"/><circle cx="785" cy="1305" r="5"/><circle cx="845" cy="1303" r="6"/><circle cx="903" cy="1299" r="4"/><circle cx="1024" cy="1337" r="6"/><circle cx="1109" cy="1335" r="5"/><circle cx="1130" cy="1334" r="4"/><circle cx="1247" cy="1330" r="5"/><circle cx="1305" cy="1331" r="5"/><circle cx="1423" cy="1310" r="4"/><circle cx="1503" cy="1333" r="5"/><circle cx="1533" cy="1284" r="5"/><circle cx="1627" cy="1309" r="5"/><circle cx="1748" cy="1352" r="4"/><circle cx="1814" cy="1338" r="5"/><circle cx="1898" cy="1349" r="4"/><circle cx="1942" cy="1334" r="5"/><circle cx="2030" cy="1352" r="5"/><circle cx="2101" cy="1349" r="6"/><circle cx="2204" cy="1313" r="5"/><circle cx="2265" cy="1333" r="5"/><circle cx="2337" cy="1340" r="5"/><circle cx="2452" cy="1352" r="5"/><circle cx="2547" cy="1304" r="6"/><circle cx="56" cy="1421" r="5"/><circle cx="97" cy="1432" r="5"/><circle cx="198" cy="1410" r="5"/><circle cx="248" cy="1361" r="4"/><circle cx="393" cy="1417" r="4"/><circle cx="439" cy="1415" r="4"/><circle cx="499" cy="1440" r="5"/><circle cx="499" cy="-0" r="5"/><circle cx="628" cy="1392" r="6"/><circle cx="710" cy="1391" r="6"/><circle cx="734" cy="1401" r="5"/><circle cx="832" cy="1405" r="5"/><circle cx="927" cy="1363" r="5"/><circle cx="1030" cy="1422" r="6"/><circle cx="1052" cy="1385" r="4"/><circle cx="1131" cy="1394" r="5"/><circle cx="1213" cy="1401" r="5"/><circle cx="1287" cy="1364" r="5"/><circle cx="1368" cy="1363" r="5"/><circle cx="1457" cy="1363" r="6"/><circle cx="1555" cy="1438" r="5"/><circle cx="1555" cy="-2" r="5"/><circle cx="1666" cy="1369" r="6"/><circle cx="1715" cy="1415" r="4"/><circle cx="1822" cy="1377" r="4"/><circle cx="1912" cy="1426" r="5"/><circle cx="1951" cy="1424" r="5"/><circle cx="2060" cy="1378" r="6"/><circle cx="2143" cy="1371" r="5"/><circle cx="2191" cy="1368" r="6"/><circle cx="2271" cy="1375" r="4"/><circle cx="2392" cy="1413" r="6"/><circle cx="2432" cy="1429" r="4"/><circle cx="2496" cy="1392" r="5"/><path stroke="#fff" d="M45 46L100 9M45 46L67 116M45 46L120 83M45 46L56 -19M45 46L97 -8M45 1486L56 1421M45 1486L97 1432M100 9L120 83M100 9L56 -19M100 9L97 -8M100 9L198 -30M100 1449L56 1421M100 1449L97 1432M100 1449L198 1410M208 39L292 0M208 39L120 83M208 39L228 85M208 39L281 121M208 39L198 -30M208 1479L198 1410M292 0L359 54M292 0L241 -82M292 0L198 -30M292 0L248 -79M292 1440L241 1358M292 1440L198 1410M292 1440L248 1361M359 54L408 58M359 54L369 123M359 54L417 94M359 54L393 -23M359 1494L393 1417M408 58L369 123M408 58L417 94M408 58L482 107M408 58L393 -23M408 1498L393 1417M507 49L565 19M507 49L417 94M507 49L482 107M507 49L439 -25M507 49L499 -0M507 1489L439 1415M507 1489L499 1440M565 19L578 -95M565 19L499 -0M565 19L628 -48M565 1459L578 1345M565 1459L499 1440M565 1459L628 1392M682 41L738 80M682 41L623 140M682 41L710 -49M682 41L734 -39M682 1481L710 1391M682 1481L734 1401M738 80L821 64M738 80L754 123M738 80L809 109M821 64L754 123M821 64L809 109M821 64L913 87M821 64L832 -35M821 1504L832 1405M955 10L913 87M955 10L927 -77M955 10L1030 -18M955 1450L927 1363M955 1450L1030 1422M1021 73L1061 63M1021 73L999 160M1021 73L1050 111M1021 73L1013 163M1021 73L1030 -18M1021 1513L1030 1422M1061 63L1148 61M1061 63L1050 111M1061 63L1030 -18M1061 1503L1030 1422M1148 61L1257 59M1148 61L1152 148M1148 61L1131 -46M1148 1501L1131 1394M1257 59L1294 64M1257 59L1366 66M1257 59L1256 118M1294 64L1366 66M1294 64L1256 118M1294 64L1322 122M1294 64L1313 171M1366 66L1322 122M1366 66L1413 135M1366 66L1454 98M1485 5L1576 64M1485 5L1454 98M1485 5L1503 -107M1485 5L1457 -77M1485 5L1555 -2M1485 1445L1503 1333M1485 1445L1457 1363M1485 1445L1555 1438M1576 64L1672 58M1576 64L1580 122M1576 64L1555 -2M1576 1504L1555 1438M1672 58L1680 28M1672 58L1679 83M1672 58L1714 105M1672 58L1691 162M1680 28L1679 83M1680 28L1714 105M1680 28L1666 -71M1680 28L1715 -25M1680 1468L1666 1369M1680 1468L1715 1415M1775 17L1805 104M1775 17L1715 -25M1775 17L1822 -63M1775 1457L1715 1415M1775 1457L1822 1377M1913 57L1986 10M1913 57L1869 103M1913 57L1941 127M1913 57L1912 -14M1913 57L1951 -16M1913 1497L1912 1426M1913 1497L1951 1424M1986 10L2014 49M1986 10L1912 -14M1986 10L1951 -16M1986 10L2060 -62M1986 1450L1912 1426M1986 1450L1951 1424M1986 1450L2060 1378M2014 49L2041 115M2014 49L1951 -16M2014 1489L1951 1424M2143 43L2232 38M2143 43L2041 115M2143 43L2145 141M2143 43L2143 -69M2143 1483L2143 1371M2232 38L2318 63M2232 38L2245 133M2232 38L2271 -65M2232 1478L2271 1375M2318 63L2386 11M2318 63L2398 140M2386 11L2471 54M2386 11L2392 -27M2386 11L2432 -11M2386 1451L2392 1413M2386 1451L2432 1429M2471 54L2502 39M2471 54L2480 101M2471 54L2522 102M2471 54L2432 -11M2471 1494L2432 1429M2502 39L2480 101M2502 39L2522 102M2502 39L2496 -48M2502 1479L2496 1392M67 116L120 83M67 116L-38 102M67 116L64 201M2627 116L2522 102M120 83L97 -8M120 1523L97 1432M228 85L281 121M228 85L223 160M228 85L275 169M281 121L369 123M281 121L223 160M281 121L275 169M369 123L417 94M369 123L436 202M417 94L482 107M482 107L436 202M482 107L495 194M623 140L653 154M623 140L570 217M623 140L674 216M623 140L659 246M653 154L674 216M653 154L659 246M754 123L809 109M754 123L762 216M754 123L800 207M809 109L913 87M809 109L800 207M913 87L999 160M913 87L894 168M999 160L1050 111M999 160L1013 163M999 160L1070 174M1050 111L1013 163M1050 111L1070 174M1152 148L1070 174M1152 148L1196 236M1256 118L1322 122M1256 118L1255 207M1256 118L1313 171M1322 122L1413 135M1322 122L1313 171M1413 135L1454 98M1413 135L1400 228M1413 135L1448 197M1454 98L1532 180M1580 122L1679 83M1580 122L1532 180M1580 122L1666 192M1580 122L1691 162M1679 83L1714 105M1679 83L1691 162M1714 105L1805 104M1714 105L1691 162M1805 104L1869 103M1805 104L1891 164M1869 103L1941 127M1869 103L1839 215M1869 103L1891 164M1941 127L2041 115M1941 127L1891 164M1941 127L2010 191M2041 115L2010 191M2145 141L2231 158M2145 141L2245 133M2145 141L2143 217M2145 141L2199 175M2231 158L2245 133M2231 158L2199 175M2231 158L2254 213M2231 158L2320 205M2245 133L2199 175M2245 133L2254 213M2398 140L2480 101M2398 140L2320 205M2398 140L2430 227M2480 101L2522 102M64 201L133 204M64 201L-14 234M64 201L18 250M64 201L121 270M2624 201L2546 234M133 204L223 160M133 204L121 270M223 160L275 169M223 160L207 269M275 169L370 229M370 229L436 202M370 229L347 300M370 229L434 270M436 202L495 194M436 202L434 270M495 194L570 217M495 194L518 295M570 217L518 295M570 217L635 284M674 216L762 216M674 216L635 284M674 216L659 246M762 216L800 207M762 216L765 287M800 207L765 287M800 207L842 264M894 168L1013 163M1013 163L1070 174M1070 174L1093 262M1196 236L1255 207M1196 236L1093 262M1196 236L1144 273M1196 236L1208 262M1255 207L1313 171M1255 207L1208 262M1313 171L1400 228M1400 228L1448 197M1400 228L1341 312M1400 228L1434 272M1448 197L1532 180M1448 197L1434 272M1448 197L1526 241M1532 180L1506 271M1532 180L1526 241M1666 192L1691 162M1666 192L1610 288M1666 192L1732 294M1839 215L1891 164M1839 215L1927 219M1839 215L1774 275M1891 164L1927 219M1927 219L2010 191M1927 219L1962 275M2010 191L1962 275M2010 191L2060 267M2143 217L2199 175M2143 217L2060 267M2143 217L2109 314M2199 175L2254 213M2254 213L2320 205M2254 213L2266 302M2320 205L2430 227M2320 205L2328 291M2430 227L2402 315M2430 227L2491 315M2546 234L2578 250M2546 234L2491 315M-14 234L18 250M18 250L36 366M121 270L207 269M121 270L124 360M121 270L211 321M207 269L277 316M207 269L211 321M207 269L249 349M277 316L347 300M277 316L211 321M277 316L249 349M277 316L331 365M347 300L434 270M347 300L331 365M434 270L518 295M434 270L421 365M518 295L522 330M518 295L569 344M635 284L659 246M635 284L569 344M765 287L842 264M765 287L719 385M765 287L776 332M842 264L884 281M842 264L878 332M842 264L882 329M884 281L985 290M884 281L878 332M884 281L882 329M884 281L977 327M985 290L1093 262M985 290L977 327M1093 262L1144 273M1093 262L1108 375M1144 273L1208 262M1144 273L1108 375M1144 273L1156 377M1341 312L1434 272M1341 312L1322 368M1341 312L1378 368M1341 312L1333 412M1434 272L1506 271M1434 272L1526 241M1506 271L1526 241M1506 271L1610 288M1506 271L1607 341M1526 241L1610 288M1610 288L1732 294M1610 288L1607 341M1732 294L1774 275M1732 294L1752 391M1883 320L1962 275M1883 320L1801 386M1883 320L1898 328M1883 320L1954 395M1883 320L1854 406M1962 275L2060 267M1962 275L1898 328M2060 267L2109 314M2109 314L2067 369M2109 314L2090 366M2109 314L2189 331M2212 313L2266 302M2212 313L2189 331M2266 302L2328 291M2266 302L2189 331M2266 302L2279 406M2328 291L2402 315M2328 291L2312 385M2402 315L2491 315M2402 315L2352 389M2402 315L2416 356M2491 315L2416 356M2491 315L2553 366M36 366L124 360M36 366L-7 366M36 366L6 426M2596 366L2553 366M124 360L211 321M124 360L149 433M211 321L249 349M249 349L331 365M249 349L210 445M331 365L421 365M331 365L372 403M421 365L522 330M421 365L372 403M421 365L433 450M522 330L569 344M569 344L588 451M719 385L776 332M719 385L656 420M719 385L744 449M719 385L819 422M776 332L878 332M776 332L882 329M776 332L819 422M878 332L882 329M878 332L977 327M882 329L977 327M1108 375L1156 377M1108 375L1077 448M1108 375L1188 409M1156 377L1237 382M1156 377L1188 409M1156 377L1231 412M1237 382L1322 368M1237 382L1188 409M1237 382L1231 412M1237 382L1333 412M1322 368L1378 368M1322 368L1333 412M1378 368L1465 396M1378 368L1333 412M1378 368L1376 454M1465 396L1561 379M1465 396L1376 454M1465 396L1500 438M1561 379L1607 341M1561 379L1500 438M1561 379L1584 411M1607 341L1584 411M1752 391L1801 386M1752 391L1676 429M1752 391L1755 432M1752 391L1768 478M1801 386L1755 432M1801 386L1768 478M1801 386L1854 406M1898 328L1954 395M1898 328L1854 406M1954 395L1854 406M1954 395L1980 418M1954 395L2047 423M2067 369L2090 366M2067 369L1980 418M2067 369L2047 423M2067 369L2092 456M2090 366L2189 331M2090 366L2047 423M2090 366L2092 456M2312 385L2352 389M2312 385L2279 406M2352 389L2416 356M2352 389L2279 406M2352 389L2398 445M2416 356L2398 445M2416 356L2455 412M2553 366L2566 426M-7 366L6 426M6 426L-53 466M6 426L41 528M6 426L-60 503M2566 426L2507 466M2566 426L2500 503M149 433L210 445M149 433L119 488M149 433L210 496M210 445L313 459M210 445L119 488M210 445L210 496M313 459L372 403M313 459L314 527M313 459L373 515M372 403L433 450M433 450L504 458M433 450L373 515M504 458L588 451M504 458L504 540M588 451L656 420M588 451L631 511M588 451L625 564M656 420L744 449M656 420L631 511M744 449L819 422M744 449L688 553M744 449L795 556M819 422L915 463M915 463L995 463M915 463L906 527M995 463L1077 448M995 463L1000 559M1077 448L1112 536M1188 409L1231 412M1188 409L1199 501M1231 412L1199 501M1231 412L1230 506M1333 412L1376 454M1376 454L1344 544M1376 454L1411 551M1500 438L1584 411M1584 411L1676 429M1584 411L1585 514M1676 429L1755 432M1676 429L1630 508M1676 429L1705 522M1755 432L1768 478M1755 432L1777 492M1768 478L1705 522M1768 478L1777 492M1854 406L1777 492M1980 418L2047 423M1980 418L1933 508M2047 423L2092 456M2092 456L2140 532M2207 480L2279 406M2207 480L2140 532M2207 480L2200 483M2279 406L2200 483M2398 445L2455 412M2398 445L2387 502M2398 445L2402 494M2455 412L2507 466M2455 412L2500 503M2507 466L2402 494M2507 466L2500 503M41 528L119 488M41 528L80 612M41 528L81 602M41 528L-30 588M2601 528L2530 588M119 488L210 496M210 496L314 527M210 496L291 584M314 527L373 515M314 527L291 584M314 527L327 623M373 515L417 557M373 515L291 584M417 557L504 540M417 557L475 569M504 540L475 569M504 540L540 629M631 511L688 553M631 511L625 564M688 553L625 564M688 553L715 636M795 556L863 553M795 556L715 636M795 556L798 569M795 556L866 601M863 553L906 527M863 553L798 569M863 553L866 601M863 553L897 623M906 527L1000 559M906 527L866 601M906 527L897 623M1000 559L1112 536M1000 559L1006 630M1112 536L1199 501M1112 536L1134 631M1199 501L1230 506M1230 506L1279 585M1230 506L1300 575M1344 544L1411 551M1344 544L1279 585M1344 544L1300 575M1344 544L1394 589M1411 551L1394 589M1411 551L1447 596M1519 546L1585 514M1519 546L1447 596M1519 546L1569 578M1519 546L1603 581M1585 514L1630 508M1585 514L1569 578M1585 514L1603 581M1630 508L1705 522M1630 508L1569 578M1630 508L1603 581M1705 522L1777 492M1705 522L1781 597M1777 492L1781 597M1884 553L1933 508M1884 553L1857 564M1884 553L1938 579M1933 508L2031 558M1933 508L1857 564M1933 508L1938 579M2031 558L2140 532M2031 558L1938 579M2031 558L2055 625M2031 558L2037 670M2140 532L2200 483M2140 532L2141 602M2319 552L2387 502M2319 552L2402 494M2319 552L2276 593M2319 552L2381 620M2387 502L2402 494M2402 494L2500 503M2500 503L2530 588M80 612L81 602M80 612L-30 588M80 612L61 693M80 612L98 651M2640 612L2530 588M81 602L-30 588M81 602L61 693M81 602L98 651M2641 602L2530 588M212 631L291 584M212 631L327 623M212 631L177 692M212 631L242 713M291 584L327 623M327 623L348 681M475 569L540 629M540 629L625 564M540 629L530 658M540 629L629 662M625 564L629 662M715 636L629 662M715 636L683 696M715 636L765 695M798 569L866 601M866 601L897 623M897 623L838 691M897 623L957 692M1006 630L1063 634M1006 630L957 692M1006 630L1023 701M1063 634L1134 631M1134 631L1100 706M1134 631L1134 697M1134 631L1227 654M1279 585L1300 575M1279 585L1227 654M1279 585L1287 654M1300 575L1394 589M1300 575L1287 654M1394 589L1447 596M1447 596L1569 578M1447 596L1464 692M1569 578L1603 581M1603 581L1703 632M1703 632L1781 597M1703 632L1676 704M1781 597L1857 564M1781 597L1805 672M1857 564L1938 579M2055 625L2141 602M2055 625L2037 670M2141 602L2212 618M2141 602L2167 675M2212 618L2276 593M2212 618L2146 699M2212 618L2167 675M2381 620L2407 634M2381 620L2316 693M2381 620L2327 678M2381 620L2452 668M2407 634L2316 693M2407 634L2327 678M2407 634L2452 668M2407 634L2432 751M61 693L98 651M61 693L64 729M61 693L127 723M98 651L64 729M98 651L127 723M177 692L242 713M177 692L127 723M177 692L180 763M177 692L271 730M242 713L180 763M242 713L271 730M348 681L448 688M348 681L271 730M348 681L385 722M448 688L530 658M448 688L385 722M448 688L471 729M448 688L519 747M530 658L629 662M530 658L471 729M530 658L519 747M629 662L683 696M683 696L765 695M683 696L693 737M765 695L838 691M765 695L693 737M765 695L795 728M838 691L795 728M838 691L920 746M957 692L1023 701M957 692L920 746M957 692L987 772M1023 701L1100 706M1023 701L987 772M1023 701L1082 727M1100 706L1134 697M1100 706L1082 727M1100 706L1147 731M1134 697L1227 654M1134 697L1082 727M1134 697L1147 731M1227 654L1287 654M1227 654L1295 736M1287 654L1252 761M1287 654L1295 736M1409 715L1464 692M1409 715L1385 755M1464 692L1566 706M1464 692L1385 755M1464 692L1524 735M1566 706L1676 704M1566 706L1497 799M1566 706L1524 735M1566 706L1654 752M1676 704L1754 711M1676 704L1654 752M1676 704L1681 742M1754 711L1805 672M1754 711L1846 691M1754 711L1681 742M1754 711L1789 748M1805 672L1846 691M1805 672L1789 748M1846 691L1789 748M1846 691L1842 770M1977 713L2037 670M1977 713L1944 795M1977 713L2068 731M1977 713L1959 810M2037 670L2068 731M2146 699L2167 675M2146 699L2068 731M2146 699L2125 782M2146 699L2207 745M2167 675L2207 745M2316 693L2327 678M2316 693L2314 758M2316 693L2362 736M2327 678L2314 758M2327 678L2362 736M2452 668L2513 713M2452 668L2432 751M2452 668L2516 741M2513 713L2432 751M2513 713L2516 741M64 729L127 723M64 729L-44 741M2624 729L2516 741M127 723L180 763M180 763L271 730M180 763L186 865M271 730L331 800M385 722L471 729M385 722L331 800M385 722L443 817M471 729L519 747M471 729L443 817M519 747L567 792M519 747L559 827M567 792L559 827M567 792L602 835M567 792L584 887M693 737L795 728M795 728L832 790M795 728L768 822M832 790L920 746M832 790L768 822M832 790L808 859M832 790L888 809M920 746L987 772M920 746L888 809M987 772L977 861M987 772L1047 827M1082 727L1147 731M1082 727L1047 827M1147 731L1252 761M1252 761L1295 736M1252 761L1229 837M1252 761L1334 826M1295 736L1385 755M1295 736L1334 826M1385 755L1334 826M1385 755L1445 825M1497 799L1524 735M1497 799L1438 872M1497 799L1445 825M1497 799L1578 855M1524 735L1445 825M1524 735L1614 809M1654 752L1681 742M1654 752L1614 809M1654 752L1751 807M1681 742L1614 809M1681 742L1751 807M1789 748L1842 770M1789 748L1751 807M1842 770L1944 795M1842 770L1751 807M1842 770L1836 816M1944 795L1836 816M1944 795L1910 846M1944 795L1959 810M2068 731L2125 782M2068 731L2125 802M2125 782L2207 745M2125 782L2125 802M2125 782L2162 856M2207 745L2125 802M2207 745L2162 856M2314 758L2362 736M2314 758L2320 838M2314 758L2333 871M2362 736L2432 751M2432 751L2516 741M28 855L-56 877M28 855L11 889M2588 855L2504 877M144 879L186 865M144 879L95 945M144 879L192 910M186 865L265 868M186 865L192 910M265 868L331 800M265 868L192 910M265 868L304 922M265 868L326 909M443 817L440 931M443 817L492 892M559 827L602 835M559 827L492 892M559 827L584 887M602 835L715 839M602 835L584 887M715 839L768 822M715 839L717 937M715 839L737 901M768 822L808 859M768 822L737 901M808 859L888 809M808 859L737 901M808 859L825 898M888 809L977 861M977 861L1047 827M977 861L896 956M977 861L1021 937M1047 827L1021 937M1168 878L1229 837M1168 878L1115 954M1168 878L1175 922M1168 878L1212 919M1168 878L1118 964M1229 837L1212 919M1229 837L1284 935M1334 826L1394 891M1438 872L1445 825M1438 872L1394 891M1438 872L1479 948M1438 872L1435 963M1445 825L1394 891M1578 855L1614 809M1578 855L1527 931M1578 855L1626 909M1614 809L1626 909M1751 807L1836 816M1836 816L1910 846M1836 816L1852 881M1910 846L1959 810M1910 846L1852 881M1959 810L2052 833M1959 810L2014 913M2052 833L2125 802M2052 833L2162 856M2052 833L2014 913M2052 833L2119 901M2125 802L2162 856M2162 856L2119 901M2320 838L2333 871M2320 838L2411 867M2333 871L2411 867M2333 871L2285 941M2333 871L2392 941M2411 867L2504 877M2411 867L2392 941M2411 867L2432 930M2504 877L2571 889M2504 877L2432 930M2504 877L2528 941M-56 877L11 889M11 889L95 945M11 889L-32 941M2571 889L2528 941M95 945L65 1015M95 945L84 991M192 910L304 922M192 910L169 1018M304 922L326 909M304 922L316 993M304 922L375 991M326 909L316 993M440 931L492 892M440 931L375 991M440 931L407 1035M440 931L544 971M492 892L584 887M492 892L544 971M584 887L544 971M717 937L737 901M717 937L648 978M717 937L752 1030M737 901L825 898M825 898L896 956M825 898L811 978M825 898L880 961M896 956L811 978M896 956L880 961M896 956L1000 1022M1021 937L1115 954M1021 937L1000 1022M1021 937L1118 964M1115 954L1175 922M1115 954L1118 964M1115 954L1166 975M1175 922L1212 919M1175 922L1118 964M1175 922L1166 975M1212 919L1284 935M1212 919L1166 975M1284 935L1216 1018M1284 935L1321 1037M1394 891L1435 963M1479 948L1527 931M1479 948L1435 963M1479 948L1443 1029M1479 948L1565 961M1527 931L1626 909M1527 931L1435 963M1527 931L1565 961M1626 909L1565 961M1626 909L1651 969M1754 922L1768 958M1754 922L1852 881M1754 922L1651 969M1754 922L1759 1013M1768 958L1759 1013M1768 958L1826 1007M1768 958L1847 996M1991 922L2014 913M1991 922L1934 995M2014 913L2119 901M2119 901L2234 942M2234 942L2285 941M2234 942L2154 1012M2234 942L2199 1002M2234 942L2259 1018M2285 941L2259 1018M2285 941L2346 1003M2392 941L2432 930M2392 941L2346 1003M2392 941L2420 990M2432 930L2528 941M2432 930L2420 990M2528 941L2521 994M65 1015L84 991M65 1015L169 1018M65 1015L50 1048M65 1015L112 1041M84 991L169 1018M84 991L50 1048M84 991L112 1041M169 1018L112 1041M169 1018L161 1061M316 993L375 991M316 993L407 1035M316 993L279 1067M375 991L407 1035M375 991L371 1075M407 1035L371 1075M407 1035L417 1107M544 971L648 978M630 1030L648 978M630 1030L571 1090M630 1030L719 1067M752 1030L811 978M752 1030L719 1067M752 1030L769 1056M752 1030L826 1067M811 978L880 961M811 978L826 1067M1000 1022L960 1050M1000 1022L1000 1108M1000 1022L1051 1051M1118 964L1166 975M1166 975L1216 1018M1216 1018L1321 1037M1216 1018L1164 1081M1216 1018L1261 1067M1321 1037L1261 1067M1321 1037L1340 1117M1435 963L1443 1029M1443 1029L1404 1115M1443 1029L1513 1103M1565 961L1651 969M1565 961L1568 1042M1651 969L1568 1042M1651 969L1648 1041M1759 1013L1826 1007M1759 1013L1847 996M1759 1013L1769 1102M1826 1007L1847 996M1826 1007L1934 995M1847 996L1934 995M1847 996L1884 1117M1934 995L1944 1069M1934 995L2020 1041M2043 1038L1944 1069M2043 1038L2020 1041M2043 1038L2123 1112M2043 1038L2067 1133M2154 1012L2199 1002M2154 1012L2216 1114M2154 1012L2188 1125M2199 1002L2259 1018M2199 1002L2248 1091M2259 1018L2346 1003M2259 1018L2248 1091M2346 1003L2420 990M2346 1003L2365 1045M2420 990L2521 994M2420 990L2365 1045M2521 994L2610 1048M2521 994L2479 1087M2521 994L2488 1060M-39 994L50 1048M50 1048L112 1041M50 1048L24 1139M112 1041L161 1061M161 1061L141 1129M279 1067L371 1075M279 1067L233 1158M279 1067L339 1121M371 1075L417 1107M371 1075L339 1121M417 1107L339 1121M417 1107L450 1132M417 1107L372 1221M550 1112L571 1090M550 1112L450 1132M550 1112L529 1191M550 1112L591 1126M571 1090L591 1126M571 1090L671 1134M719 1067L769 1056M719 1067L671 1134M719 1067L775 1122M769 1056L826 1067M769 1056L775 1122M826 1067L775 1122M826 1067L853 1145M960 1050L1000 1108M960 1050L1051 1051M960 1050L915 1149M1000 1108L1051 1051M1000 1108L915 1149M1000 1108L998 1158M1164 1081L1261 1067M1164 1081L1110 1159M1164 1081L1162 1175M1164 1081L1206 1135M1261 1067L1340 1117M1261 1067L1206 1135M1340 1117L1404 1115M1340 1117L1326 1152M1404 1115L1326 1152M1404 1115L1417 1185M1404 1115L1471 1166M1513 1103L1568 1042M1513 1103L1471 1166M1513 1103L1607 1176M1568 1042L1648 1041M1648 1041L1716 1098M1716 1098L1769 1102M1716 1098L1681 1163M1769 1102L1820 1123M1769 1102L1761 1205M1884 1117L1944 1069M1884 1117L1820 1123M1884 1117L1883 1143M1884 1117L1992 1175M1944 1069L2020 1041M1944 1069L1883 1143M2020 1041L2067 1133M2123 1112L2216 1114M2123 1112L2067 1133M2123 1112L2153 1137M2123 1112L2188 1125M2216 1114L2248 1091M2216 1114L2153 1137M2216 1114L2188 1125M2248 1091L2153 1137M2248 1091L2188 1125M2365 1045L2479 1087M2365 1045L2488 1060M2365 1045L2370 1156M2479 1087L2488 1060M2479 1087L2466 1153M2479 1087L2512 1168M24 1139L141 1129M24 1139L-48 1168M2584 1139L2512 1168M141 1129L233 1158M233 1158L294 1188M233 1158L270 1211M294 1188L339 1121M294 1188L237 1279M294 1188L270 1211M294 1188L372 1221M339 1121L372 1221M450 1132L479 1239M529 1191L591 1126M529 1191L479 1239M529 1191L532 1268M529 1191L596 1225M591 1126L671 1134M591 1126L596 1225M671 1134L675 1234M775 1122L853 1145M775 1122L767 1210M853 1145L915 1149M853 1145L921 1241M915 1149L998 1158M915 1149L921 1241M998 1158L1110 1159M998 1158L1011 1253M998 1158L1048 1203M1110 1159L1162 1175M1110 1159L1206 1135M1110 1159L1048 1203M1162 1175L1206 1135M1162 1175L1048 1203M1162 1175L1190 1267M1326 1152L1417 1185M1326 1152L1312 1230M1326 1152L1386 1206M1417 1185L1471 1166M1417 1185L1386 1206M1417 1185L1455 1225M1471 1166L1386 1206M1471 1166L1455 1225M1587 1187L1607 1176M1587 1187L1681 1163M1587 1187L1544 1272M1587 1187L1663 1272M1607 1176L1681 1163M1607 1176L1663 1272M1681 1163L1754 1202M1681 1163L1761 1205M1820 1123L1883 1143M1820 1123L1754 1202M1820 1123L1761 1205M1883 1143L1863 1266M1992 1175L2067 1133M1992 1175L1934 1269M1992 1175L2052 1245M2067 1133L2153 1137M2153 1137L2188 1125M2302 1191L2370 1156M2302 1191L2286 1264M2302 1191L2350 1238M2370 1156L2466 1153M2370 1156L2350 1238M2370 1156L2429 1224M2466 1153L2512 1168M2466 1153L2429 1224M2466 1153L2487 1209M2512 1168L2429 1224M2512 1168L2487 1209M22 1271L102 1252M22 1271L-73 1209M22 1271L27 1286M22 1271L116 1290M22 1271L-13 1304M2582 1271L2487 1209M2582 1271L2547 1304M102 1252L27 1286M102 1252L116 1290M237 1279L270 1211M237 1279L237 1310M237 1279L241 1358M237 1279L248 1361M270 1211L372 1221M270 1211L237 1310M372 1221L354 1284M479 1239L532 1268M532 1268L596 1225M532 1268L552 1351M532 1268L578 1345M596 1225L675 1234M675 1234L767 1210M675 1234L709 1294M767 1210L806 1266M767 1210L709 1294M767 1210L785 1305M806 1266L785 1305M806 1266L845 1303M806 1266L903 1299M921 1241L1011 1253M921 1241L845 1303M921 1241L903 1299M1011 1253L1048 1203M1011 1253L1024 1337M1190 1267L1238 1251M1190 1267L1109 1335M1190 1267L1130 1334M1190 1267L1247 1330M1238 1251L1312 1230M1238 1251L1247 1330M1238 1251L1305 1331M1238 1251L1287 1364M1312 1230L1386 1206M1312 1230L1305 1331M1386 1206L1455 1225M1455 1225L1423 1310M1455 1225L1533 1284M1544 1272L1503 1333M1544 1272L1533 1284M1544 1272L1627 1309M1663 1272L1761 1205M1663 1272L1627 1309M1663 1272L1666 1369M1754 1202L1761 1205M1863 1266L1934 1269M1863 1266L1814 1338M1863 1266L1898 1349M1934 1269L1942 1334M2052 1245L2133 1260M2052 1245L2030 1352M2133 1260L2197 1252M2133 1260L2101 1349M2133 1260L2204 1313M2197 1252L2286 1264M2197 1252L2204 1313M2286 1264L2350 1238M2286 1264L2265 1333M2286 1264L2337 1340M2350 1238L2429 1224M2350 1238L2337 1340M2429 1224L2487 1209M27 1286L116 1290M27 1286L-13 1304M2587 1286L2547 1304M116 1290L-13 1304M2676 1290L2547 1304M237 1310L241 1358M237 1310L248 1361M241 1358L198 1410M241 1358L248 1361M453 1353L552 1351M453 1353L393 1417M453 1353L439 1415M453 1353L499 1440M552 1351L578 1345M552 1351L499 1440M552 1351L628 1392M578 1345L628 1392M709 1294L785 1305M709 1294L710 1391M709 1294L734 1401M785 1305L845 1303M845 1303L903 1299M845 1303L832 1405M903 1299L927 1363M1024 1337L1109 1335M1024 1337L927 1363M1024 1337L1030 1422M1024 1337L1052 1385M1109 1335L1130 1334M1109 1335L1052 1385M1109 1335L1131 1394M1130 1334L1052 1385M1130 1334L1131 1394M1130 1334L1213 1401M1247 1330L1305 1331M1247 1330L1213 1401M1247 1330L1287 1364M1305 1331L1287 1364M1305 1331L1368 1363M1423 1310L1503 1333M1423 1310L1368 1363M1423 1310L1457 1363M1503 1333L1533 1284M1503 1333L1457 1363M1533 1284L1627 1309M1533 1284L1457 1363M1627 1309L1666 1369M1748 1352L1814 1338M1748 1352L1666 1369M1748 1352L1715 1415M1748 1352L1822 1377M1814 1338L1898 1349M1814 1338L1822 1377M1898 1349L1942 1334M1898 1349L1912 1426M1942 1334L2030 1352M1942 1334L1912 1426M1942 1334L1951 1424M2030 1352L2101 1349M2030 1352L2060 1378M2101 1349L2060 1378M2101 1349L2143 1371M2101 1349L2191 1368M2204 1313L2265 1333M2204 1313L2143 1371M2204 1313L2191 1368M2265 1333L2337 1340M2265 1333L2191 1368M2265 1333L2271 1375M2337 1340L2271 1375M2337 1340L2392 1413M2452 1352L2547 1304M2452 1352L2392 1413M2452 1352L2432 1429M2452 1352L2496 1392M2547 1304L2496 1392M56 1421L97 1432M198 1410L248 1361M393 1417L439 1415M439 1415L499 1440M628 1392L710 1391M628 1392L734 1401M710 1391L734 1401M710 1391L832 1405M734 1401L832 1405M832 1405L927 1363M1030 1422L1052 1385M1052 1385L1131 1394M1131 1394L1213 1401M1213 1401L1287 1364M1287 1364L1368 1363M1368 1363L1457 1363M1666 1369L1715 1415M1715 1415L1822 1377M1912 1426L1951 1424M2060 1378L2143 1371M2143 1371L2191 1368M2191 1368L2271 1375M2392 1413L2432 1429M2392 1413L2496 1392M2432 1429L2496 1392"/></svg>