<svg xmlns="http://www.w3.org/2000/svg" width="2560" height="1440" fill="#fff"><circle cx="3" cy="47" r="5"/><circle cx="2563" cy="47" r="5"/><circle cx="157" cy="44" r="5"/><circle cx="168" cy="23" r="5"/><circle cx="310" cy="80" r="4"/><circle cx="356" cy="7" r="6"/><circle cx="448" cy="60" r="5"/><circle cx="524" cy="57" r="4"/><circle cx="599" cy="56" r="6"/><circle cx="679" cy="48" r="4"/><circle cx="728" cy="71" r="4"/><circle cx="811" cy="71" r="4"/><circle cx="887" cy="55" r="5"/><circle cx="995" cy="36" r="4"/><circle cx="1088" cy="19" r="6"/><circle cx="1196" cy="25" r="6"/><circle cx="1230" cy="33" r="5"/><circle cx="1295" cy="65" r="5"/><circle cx="1396" cy="1" r="6"/><circle cx="1396" cy="1441" r="6"/><circle cx="1483" cy="59" r="5"/><circle cx="1583" cy="65" r="5"/><circle cx="1676" cy="10" r="6"/><circle cx="1698" cy="69" r="5"/><circle cx="1834" cy="39" r="4"/><circle cx="1879" cy="69" r="4"/><circle cx="1924" cy="7" r="4"/><circle cx="2032" cy="73" r="5"/><circle cx="2098" cy="47" r="6"/><circle cx="2209" cy="47" r="5"/><circle cx="2245" cy="80" r="6"/><circle cx="2345" cy="4" r="5"/><circle cx="2345" cy="1444" r="5"/><circle cx="2431" cy="41" r="5"/><circle cx="2538" cy="56" r="4"/><circle cx="7" cy="136" r="5"/><circle cx="134" cy="85" r="5"/><circle cx="167" cy="121" r="5"/><circle cx="242" cy="153" r="5"/><circle cx="378" cy="107" r="6"/><circle cx="452" cy="82" r="5"/><circle cx="515" cy="99" r="6"/><circle cx="570" cy="88" r="4"/><circle cx="702" cy="156" r="6"/><circle cx="755" cy="126" r="5"/><circle cx="839" cy="143" r="6"/><circle cx="928" cy="104" r="6"/><circle cx="973" cy="99" r="5"/><circle cx="1100" cy="153" r="4"/><circle cx="1198" cy="103" r="6"/><circle cx="1271" cy="136" r="5"/><circle cx="1342" cy="109" r="5"/><circle cx="1436" cy="94" r="4"/><circle cx="1507" cy="94" r="4"/><circle cx="1534" cy="141" r="6"/><circle cx="1656" cy="113" r="5"/><circle cx="1744" cy="123" r="5"/><circle cx="1838" cy="116" r="6"/><circle cx="1892" cy="157" r="5"/><circle cx="1990" cy="111" r="5"/><circle cx="2076" cy="116" r="5"/><circle cx="2089" cy="122" r="4"/><circle cx="2232" cy="88" r="5"/><circle cx="2256" cy="132" r="4"/><circle cx="2375" cy="85" r="5"/><circle cx="2437" cy="136" r="5"/><circle cx="2516" cy="86" r="5"/><circle cx="66" cy="162" r="6"/><circle cx="142" cy="238" r="5"/><circle cx="201" cy="235" r="4"/><circle cx="313" cy="206" r="5"/><circle cx="370" cy="193" r="5"/><circle cx="461" cy="189" r="5"/><circle cx="490" cy="217" r="5"/><circle cx="603" cy="163" r="4"/><circle cx="692" cy="160" r="5"/><circle cx="734" cy="171" r="5"/><circle cx="877" cy="217" r="4"/><circle cx="940" cy="220" r="4"/><circle cx="1005" cy="235" r="6"/><circle cx="1048" cy="199" r="4"/><circle cx="1135" cy="238" r="5"/><circle cx="1208" cy="231" r="5"/><circle cx="1325" cy="161" r="4"/><circle cx="1422" cy="191" r="4"/><circle cx="1445" cy="206" r="5"/><circle cx="1532" cy="160" r="5"/><circle cx="1633" cy="200" r="5"/><circle cx="1707" cy="195" r="5"/><circle cx="1777" cy="205" r="5"/><circle cx="1889" cy="200" r="6"/><circle cx="1961" cy="218" r="5"/><circle cx="2037" cy="236" r="6"/><circle cx="2094" cy="186" r="6"/><circle cx="2185" cy="224" r="5"/><circle cx="2317" cy="235" r="6"/><circle cx="2394" cy="238" r="5"/><circle cx="2453" cy="222" r="5"/><circle cx="2536" cy="188" r="6"/><circle cx="32" cy="249" r="5"/><circle cx="94" cy="245" r="5"/><circle cx="192" cy="265" r="4"/><circle cx="271" cy="243" r="5"/><circle cx="373" cy="292" r="5"/><circle cx="462" cy="283" r="4"/><circle cx="547" cy="259" r="5"/><circle cx="635" cy="286" r="5"/><circle cx="680" cy="263" r="6"/><circle cx="782" cy="318" r="5"/><circle cx="801" cy="289" r="6"/><circle cx="929" cy="300" r="6"/><circle cx="1002" cy="281" r="6"/><circle cx="1048" cy="313" r="5"/><circle cx="1185" cy="264" r="6"/><circle cx="1247" cy="315" r="5"/><circle cx="1353" cy="265" r="5"/><circle cx="1382" cy="297" r="5"/><circle cx="1440" cy="312" r="5"/><circle cx="1571" cy="288" r="5"/><circle cx="1631" cy="246" r="6"/><circle cx="1685" cy="259" r="6"/><circle cx="1829" cy="246" r="4"/><circle cx="1847" cy="313" r="5"/><circle cx="1967" cy="290" r="5"/><circle cx="2006" cy="312" r="6"/><circle cx="2108" cy="303" r="5"/><circle cx="2237" cy="303" r="6"/><circle cx="2296" cy="309" r="4"/><circle cx="2327" cy="299" r="6"/><circle cx="2418" cy="245" r="5"/><circle cx="2485" cy="292" r="5"/><circle cx="74" cy="392" r="4"/><circle cx="126" cy="377" r="5"/><circle cx="179" cy="386" r="4"/><circle cx="297" cy="364" r="4"/><circle cx="325" cy="382" r="5"/><circle cx="472" cy="322" r="6"/><circle cx="550" cy="391" r="4"/><circle cx="609" cy="348" r="5"/><circle cx="662" cy="343" r="4"/><circle cx="733" cy="341" r="6"/><circle cx="837" cy="355" r="5"/><circle cx="936" cy="339" r="5"/><circle cx="1024" cy="387" r="6"/><circle cx="1119" cy="384" r="6"/><circle cx="1158" cy="397" r="5"/><circle cx="1256" cy="373" r="4"/><circle cx="1359" cy="395" r="4"/><circle cx="1430" cy="380" r="4"/><circle cx="1497" cy="322" r="5"/><circle cx="1560" cy="325" r="5"/><circle cx="1676" cy="322" r="5"/><circle cx="1698" cy="329" r="5"/><circle cx="1809" cy="334" r="6"/><circle cx="1863" cy="353" r="5"/><circle cx="1980" cy="380" r="5"/><circle cx="2064" cy="399" r="5"/><circle cx="2120" cy="340" r="5"/><circle cx="2204" cy="395" r="4"/><circle cx="2314" cy="323" r="6"/><circle cx="2347" cy="334" r="6"/><circle cx="2431" cy="382" r="5"/><circle cx="2486" cy="327" r="5"/><circle cx="47" cy="420" r="6"/><circle cx="111" cy="451" r="5"/><circle cx="218" cy="431" r="5"/><circle cx="311" cy="466" r="4"/><circle cx="376" cy="474" r="5"/><circle cx="422" cy="441" r="5"/><circle cx="491" cy="443" r="5"/><circle cx="636" cy="444" r="5"/><circle cx="653" cy="432" r="4"/><circle cx="743" cy="445" r="5"/><circle cx="866" cy="466" r="5"/><circle cx="957" cy="438" r="5"/><circle cx="1004" cy="417" r="4"/><circle cx="1042" cy="415" r="4"/><circle cx="1168" cy="440" r="4"/><circle cx="1275" cy="480" r="5"/><circle cx="1318" cy="452" r="4"/><circle cx="1379" cy="460" r="6"/><circle cx="1501" cy="474" r="6"/><circle cx="1600" cy="448" r="5"/><circle cx="1652" cy="439" r="6"/><circle cx="1745" cy="451" r="5"/><circle cx="1762" cy="467" r="4"/><circle cx="1862" cy="457" r="4"/><circle cx="1924" cy="459" r="6"/><circle cx="2044" cy="436" r="4"/><circle cx="2096" cy="421" r="5"/><circle cx="2168" cy="419" r="4"/><circle cx="2257" cy="462" r="5"/><circle cx="2372" cy="460" r="5"/><circle cx="2457" cy="421" r="5"/><circle cx="2529" cy="469" r="5"/><circle cx="54" cy="556" r="4"/><circle cx="133" cy="514" r="5"/><circle cx="175" cy="558" r="4"/><circle cx="304" cy="514" r="4"/><circle cx="395" cy="551" r="6"/><circle cx="410" cy="553" r="6"/><circle cx="515" cy="546" r="6"/><circle cx="565" cy="555" r="5"/><circle cx="646" cy="490" r="5"/><circle cx="731" cy="499" r="5"/><circle cx="824" cy="498" r="6"/><circle cx="914" cy="505" r="6"/><circle cx="1038" cy="521" r="5"/><circle cx="1047" cy="544" r="5"/><circle cx="1164" cy="550" r="4"/><circle cx="1275" cy="534" r="4"/><circle cx="1298" cy="484" r="5"/><circle cx="1439" cy="507" r="5"/><circle cx="1485" cy="507" r="4"/><circle cx="1534" cy="491" r="4"/><circle cx="1671" cy="528" r="5"/><circle cx="1725" cy="483" r="5"/><circle cx="1823" cy="540" r="5"/><circle cx="1917" cy="529" r="5"/><circle cx="1967" cy="529" r="4"/><circle cx="2031" cy="489" r="4"/><circle cx="2157" cy="547" r="5"/><circle cx="2171" cy="543" r="5"/><circle cx="2253" cy="504" r="5"/><circle cx="2373" cy="555" r="5"/><circle cx="2446" cy="512" r="5"/><circle cx="2548" cy="528" r="5"/><circle cx="10" cy="576" r="5"/><circle cx="135" cy="637" r="5"/><circle cx="170" cy="629" r="5"/><circle cx="269" cy="582" r="6"/><circle cx="332" cy="612" r="6"/><circle cx="474" cy="593" r="5"/><circle cx="557" cy="578" r="4"/><circle cx="573" cy="607" r="4"/><circle cx="707" cy="564" r="4"/><circle cx="787" cy="581" r="6"/><circle cx="828" cy="573" r="5"/><circle cx="923" cy="621" r="4"/><circle cx="1002" cy="563" r="5"/><circle cx="1116" cy="605" r="5"/><circle cx="1140" cy="605" r="6"/><circle cx="1279" cy="607" r="5"/><circle cx="1294" cy="585" r="6"/><circle cx="1434" cy="581" r="5"/><circle cx="1464" cy="611" r="5"/><circle cx="1540" cy="587" r="5"/><circle cx="1604" cy="575" r="4"/><circle cx="1704" cy="639" r="4"/><circle cx="1791" cy="574" r="5"/><circle cx="1873" cy="608" r="5"/><circle cx="1964" cy="568" r="5"/><circle cx="2015" cy="564" r="5"/><circle cx="2151" cy="639" r="5"/><circle cx="2198" cy="602" r="5"/><circle cx="2285" cy="613" r="4"/><circle cx="2398" cy="621" r="6"/><circle cx="2429" cy="578" r="5"/><circle cx="2520" cy="611" r="6"/><circle cx="61" cy="693" r="5"/><circle cx="154" cy="696" r="5"/><circle cx="223" cy="710" r="5"/><circle cx="303" cy="693" r="5"/><circle cx="361" cy="719" r="5"/><circle cx="424" cy="682" r="4"/><circle cx="516" cy="719" r="5"/><circle cx="576" cy="708" r="5"/><circle cx="694" cy="653" r="4"/><circle cx="758" cy="670" r="6"/><circle cx="809" cy="671" r="6"/><circle cx="912" cy="708" r="4"/><circle cx="1004" cy="651" r="5"/><circle cx="1050" cy="663" r="5"/><circle cx="1186" cy="658" r="5"/><circle cx="1217" cy="650" r="4"/><circle cx="1290" cy="699" r="4"/><circle cx="1415" cy="695" r="5"/><circle cx="1497" cy="663" r="4"/><circle cx="1596" cy="648" r="5"/><circle cx="1615" cy="706" r="4"/><circle cx="1713" cy="688" r="6"/><circle cx="1777" cy="653" r="5"/><circle cx="1841" cy="719" r="4"/><circle cx="1958" cy="715" r="5"/><circle cx="2050" cy="702" r="4"/><circle cx="2114" cy="688" r="6"/><circle cx="2215" cy="710" r="5"/><circle cx="2312" cy="654" r="5"/><circle cx="2378" cy="687" r="6"/><circle cx="2431" cy="648" r="4"/><circle cx="2505" cy="662" r="4"/><circle cx="30" cy="733" r="6"/><circle cx="101" cy="798" r="4"/><circle cx="191" cy="759" r="5"/><circle cx="290" cy="754" r="6"/><circle cx="349" cy="734" r="6"/><circle cx="402" cy="787" r="5"/><circle cx="529" cy="726" r="6"/><circle cx="571" cy="796" r="6"/><circle cx="674" cy="747" r="6"/><circle cx="739" cy="750" r="5"/><circle cx="851" cy="790" r="4"/><circle cx="955" cy="758" r="5"/><circle cx="1022" cy="731" r="5"/><circle cx="1074" cy="728" r="5"/><circle cx="1179" cy="795" r="5"/><circle cx="1276" cy="748" r="6"/><circle cx="1351" cy="772" r="5"/><circle cx="1418" cy="743" r="5"/><circle cx="1488" cy="781" r="6"/><circle cx="1563" cy="796" r="5"/><circle cx="1662" cy="767" r="4"/><circle cx="1750" cy="797" r="4"/><circle cx="1763" cy="740" r="5"/><circle cx="1916" cy="785" r="6"/><circle cx="1998" cy="769" r="5"/><circle cx="2004" cy="742" r="5"/><circle cx="2149" cy="746" r="6"/><circle cx="2221" cy="759" r="5"/><circle cx="2273" cy="774" r="4"/><circle cx="2382" cy="749" r="6"/><circle cx="2450" cy="770" r="6"/><circle cx="2493" cy="723" r="5"/><circle cx="56" cy="803" r="5"/><circle cx="118" cy="839" r="5"/><circle cx="208" cy="808" r="4"/><circle cx="243" cy="874" r="4"/><circle cx="384" cy="834" r="5"/><circle cx="407" cy="870" r="4"/><circle cx="510" cy="853" r="4"/><circle cx="596" cy="839" r="5"/><circle cx="681" cy="806" r="4"/><circle cx="730" cy="847" r="4"/><circle cx="817" cy="879" r="4"/><circle cx="958" cy="864" r="6"/><circle cx="971" cy="846" r="5"/><circle cx="1093" cy="853" r="5"/><circle cx="1184" cy="875" r="5"/><circle cx="1229" cy="861" r="5"/><circle cx="1282" cy="859" r="5"/><circle cx="1371" cy="803" r="6"/><circle cx="1514" cy="870" r="4"/><circle cx="1596" cy="805" r="4"/><circle cx="1663" cy="847" r="6"/><circle cx="1720" cy="853" r="5"/><circle cx="1767" cy="837" r="6"/><circle cx="1847" cy="854" r="5"/><circle cx="1970" cy="871" r="6"/><circle cx="2065" cy="864" r="4"/><circle cx="2133" cy="845" r="4"/><circle cx="2180" cy="838" r="5"/><circle cx="2279" cy="811" r="4"/><circle cx="2347" cy="865" r="5"/><circle cx="2423" cy="859" r="5"/><circle cx="2518" cy="837" r="5"/><circle cx="74" cy="892" r="6"/><circle cx="106" cy="945" r="4"/><circle cx="207" cy="939" r="6"/><circle cx="301" cy="920" r="4"/><circle cx="356" cy="954" r="4"/><circle cx="409" cy="940" r="5"/><circle cx="503" cy="909" r="5"/><circle cx="621" cy="942" r="4"/><circle cx="646" cy="947" r="4"/><circle cx="760" cy="897" r="4"/><circle cx="867" cy="941" r="6"/><circle cx="953" cy="885" r="4"/><circle cx="1019" cy="932" r="4"/><circle cx="1085" cy="924" r="5"/><circle cx="1192" cy="910" r="4"/><circle cx="1258" cy="895" r="4"/><circle cx="1349" cy="924" r="5"/><circle cx="1365" cy="890" r="6"/><circle cx="1503" cy="938" r="4"/><circle cx="1570" cy="888" r="4"/><circle cx="1607" cy="947" r="5"/><circle cx="1737" cy="896" r="4"/><circle cx="1782" cy="960" r="4"/><circle cx="1914" cy="931" r="6"/><circle cx="1930" cy="890" r="6"/><circle cx="2070" cy="899" r="5"/><circle cx="2120" cy="938" r="5"/><circle cx="2233" cy="956" r="5"/><circle cx="2254" cy="950" r="5"/><circle cx="2395" cy="912" r="5"/><circle cx="2472" cy="960" r="5"/><circle cx="2531" cy="896" r="4"/><circle cx="71" cy="994" r="5"/><circle cx="101" cy="1033" r="4"/><circle cx="178" cy="987" r="6"/><circle cx="280" cy="1035" r="6"/><circle cx="393" cy="973" r="5"/><circle cx="422" cy="1016" r="5"/><circle cx="513" cy="972" r="4"/><circle cx="621" cy="1008" r="4"/><circle cx="670" cy="995" r="5"/><circle cx="768" cy="1037" r="5"/><circle cx="834" cy="988" r="5"/><circle cx="892" cy="1015" r="4"/><circle cx="999" cy="1013" r="5"/><circle cx="1095" cy="1019" r="5"/><circle cx="1128" cy="962" r="5"/><circle cx="1200" cy="1037" r="6"/><circle cx="1310" cy="994" r="5"/><circle cx="1435" cy="984" r="6"/><circle cx="1441" cy="990" r="4"/><circle cx="1584" cy="998" r="5"/><circle cx="1629" cy="1026" r="4"/><circle cx="1702" cy="1002" r="6"/><circle cx="1765" cy="1030" r="5"/><circle cx="1889" cy="1009" r="5"/><circle cx="1996" cy="1009" r="6"/><circle cx="2062" cy="1001" r="4"/><circle cx="2148" cy="974" r="5"/><circle cx="2237" cy="1026" r="5"/><circle cx="2305" cy="997" r="6"/><circle cx="2361" cy="993" r="5"/><circle cx="2414" cy="1019" r="4"/><circle cx="2481" cy="1004" r="5"/><circle cx="76" cy="1066" r="6"/><circle cx="122" cy="1077" r="6"/><circle cx="207" cy="1087" r="4"/><circle cx="302" cy="1071" r="6"/><circle cx="337" cy="1099" r="5"/><circle cx="415" cy="1094" r="6"/><circle cx="523" cy="1099" r="5"/><circle cx="630" cy="1051" r="4"/><circle cx="661" cy="1057" r="6"/><circle cx="778" cy="1052" r="5"/><circle cx="818" cy="1103" r="6"/><circle cx="902" cy="1078" r="6"/><circle cx="963" cy="1076" r="6"/><circle cx="1096" cy="1098" r="4"/><circle cx="1156" cy="1044" r="5"/><circle cx="1229" cy="1102" r="5"/><circle cx="1334" cy="1043" r="4"/><circle cx="1370" cy="1099" r="5"/><circle cx="1504" cy="1112" r="6"/><circle cx="1572" cy="1107" r="4"/><circle cx="1649" cy="1086" r="5"/><circle cx="1706" cy="1082" r="6"/><circle cx="1789" cy="1046" r="5"/><circle cx="1894" cy="1051" r="4"/><circle cx="1950" cy="1112" r="6"/><circle cx="2029" cy="1046" r="6"/><circle cx="2115" cy="1068" r="5"/><circle cx="2201" cy="1118" r="6"/><circle cx="2272" cy="1088" r="5"/><circle cx="2361" cy="1114" r="4"/><circle cx="2422" cy="1070" r="5"/><circle cx="2516" cy="1074" r="6"/><circle cx="43" cy="1183" r="6"/><circle cx="81" cy="1195" r="5"/><circle cx="161" cy="1161" r="6"/><circle cx="256" cy="1158" r="5"/><circle cx="337" cy="1175" r="6"/><circle cx="462" cy="1126" r="4"/><circle cx="504" cy="1189" r="5"/><circle cx="637" cy="1189" r="4"/><circle cx="675" cy="1126" r="5"/><circle cx="785" cy="1180" r="5"/><circle cx="840" cy="1157" r="4"/><circle cx="918" cy="1173" r="6"/><circle cx="971" cy="1176" r="5"/><circle cx="1083" cy="1150" r="5"/><circle cx="1171" cy="1195" r="5"/><circle cx="1242" cy="1189" r="5"/><circle cx="1335" cy="1200" r="4"/><circle cx="1363" cy="1179" r="6"/><circle cx="1518" cy="1144" r="6"/><circle cx="1548" cy="1178" r="6"/><circle cx="1611" cy="1138" r="4"/><circle cx="1727" cy="1136" r="5"/><circle cx="1818" cy="1145" r="5"/><circle cx="1895" cy="1135" r="4"/><circle cx="1983" cy="1199" r="4"/><circle cx="2002" cy="1193" r="4"/><circle cx="2090" cy="1145" r="5"/><circle cx="2198" cy="1173" r="5"/><circle cx="2313" cy="1125" r="5"/><circle cx="2396" cy="1125" r="5"/><circle cx="2433" cy="1186" r="5"/><circle cx="2515" cy="1158" r="4"/><circle cx="74" cy="1226" r="4"/><circle cx="89" cy="1256" r="5"/><circle cx="161" cy="1251" r="5"/><circle cx="303" cy="1231" r="4"/><circle cx="399" cy="1250" r="4"/><circle cx="408" cy="1228" r="6"/><circle cx="506" cy="1229" r="6"/><circle cx="571" cy="1251" r="5"/><circle cx="711" cy="1223" r="5"/><circle cx="785" cy="1215" r="4"/><circle cx="877" cy="1254" r="4"/><circle cx="937" cy="1263" r="5"/><circle cx="991" cy="1273" r="4"/><circle cx="1069" cy="1279" r="5"/><circle cx="1167" cy="1267" r="5"/><circle cx="1207" cy="1268" r="4"/><circle cx="1334" cy="1237" r="6"/><circle cx="1401" cy="1256" r="5"/><circle cx="1461" cy="1252" r="5"/><circle cx="1536" cy="1266" r="5"/><circle cx="1672" cy="1268" r="5"/><circle cx="1751" cy="1253" r="6"/><circle cx="1764" cy="1250" r="5"/><circle cx="1858" cy="1226" r="6"/><circle cx="1963" cy="1271" r="5"/><circle cx="2014" cy="1212" r="4"/><circle cx="2122" cy="1213" r="5"/><circle cx="2169" cy="1238" r="5"/><circle cx="2306" cy="1217" r="5"/><circle cx="2322" cy="1238" r="6"/><circle cx="2426" cy="1251" r="6"/><circle cx="2507" cy="1227" r="6"/><circle cx="14" cy="1311" r="6"/><circle cx="119" cy="1308" r="6"/><circle cx="183" cy="1300" r="4"/><circle cx="303" cy="1300" r="5"/><circle cx="344" cy="1357" r="5"/><circle cx="430" cy="1309" r="5"/><circle cx="496" cy="1305" r="5"/><circle cx="594" cy="1325" r="5"/><circle cx="695" cy="1331" r="6"/><circle cx="769" cy="1353" r="6"/><circle cx="868" cy="1359" r="6"/><circle cx="880" cy="1352" r="5"/><circle cx="990" cy="1325" r="5"/><circle cx="1050" cy="1322" r="5"/><circle cx="1133" cy="1353" r="4"/><circle cx="1265" cy="1330" r="4"/><circle cx="1300" cy="1321" r="5"/><circle cx="1380" cy="1352" r="5"/><circle cx="1496" cy="1349" r="5"/><circle cx="1592" cy="1322" r="4"/><circle cx="1650" cy="1324" r="5"/><circle cx="1689" cy="1335" r="6"/><circle cx="1833" cy="1310" r="5"/><circle cx="1918" cy="1343" r="5"/><circle cx="1924" cy="1311" r="6"/><circle cx="2024" cy="1315" r="4"/><circle cx="2125" cy="1316" r="4"/><circle cx="2211" cy="1313" r="6"/><circle cx="2302" cy="1353" r="5"/><circle cx="2359" cy="1359" r="5"/><circle cx="2422" cy="1313" r="6"/><circle cx="2555" cy="1298" r="5"/><circle cx="34" cy="1387" r="5"/><circle cx="102" cy="1370" r="5"/><circle cx="184" cy="1416" r="4"/><circle cx="244" cy="1386" r="4"/><circle cx="395" cy="1386" r="4"/><circle cx="439" cy="1410" r="6"/><circle cx="510" cy="1395" r="4"/><circle cx="629" cy="1396" r="5"/><circle cx="663" cy="1428" r="5"/><circle cx="783" cy="1433" r="6"/><circle cx="858" cy="1397" r="4"/><circle cx="890" cy="1364" r="4"/><circle cx="1011" cy="1421" r="5"/><circle cx="1106" cy="1390" r="4"/><circle cx="1200" cy="1393" r="5"/><circle cx="1251" cy="1372" r="5"/><circle cx="1334" cy="1399" r="5"/><circle cx="1411" cy="1374" r="5"/><circle cx="1490" cy="1429" r="4"/><circle cx="1529" cy="1364" r="4"/><circle cx="1625" cy="1381" r="4"/><circle cx="1684" cy="1396" r="5"/><circle cx="1805" cy="1370" r="5"/><circle cx="1910" cy="1409" r="5"/><circle cx="1972" cy="1440" r="5"/><circle cx="1972" cy="-0" r="5"/><circle cx="2077" cy="1368" r="5"/><circle cx="2159" cy="1428" r="5"/><circle cx="2170" cy="1407" r="4"/><circle cx="2278" cy="1439" r="6"/><circle cx="2278" cy="-1" r="6"/><circle cx="2357" cy="1438" r="6"/><circle cx="2357" cy="-2" r="6"/><circle cx="2432" cy="1373" r="5"/><circle cx="2493" cy="1386" r="5"/><path stroke="#fff" d="M3 47L-22 56M3 47L7 136M3 47L-44 86M3 47L34 -53M2563 47L2538 56M2563 47L2516 86M3 1487L34 1387M157 44L168 23M157 44L134 85M157 44L167 121M157 44L184 -24M157 1484L184 1416M168 23L134 85M168 23L167 121M168 23L102 -70M168 23L184 -24M168 1463L102 1370M168 1463L184 1416M310 80L356 7M310 80L242 153M310 80L378 107M356 7L378 107M356 7L344 -83M356 7L395 -54M356 7L439 -30M356 1447L344 1357M356 1447L395 1386M356 1447L439 1410M448 60L524 57M448 60L378 107M448 60L452 82M448 60L515 99M448 60L439 -30M448 1500L439 1410M524 57L599 56M524 57L452 82M524 57L515 99M524 57L570 88M599 56L679 48M599 56L515 99M599 56L570 88M599 56L663 -12M599 1496L663 1428M679 48L728 71M679 48L629 -44M679 48L663 -12M679 1488L629 1396M679 1488L663 1428M728 71L811 71M728 71L702 156M728 71L755 126M728 71L783 -7M728 1511L783 1433M811 71L887 55M811 71L839 143M811 71L783 -7M811 1511L783 1433M887 55L839 143M887 55L928 104M887 55L973 99M995 36L1088 19M995 36L928 104M995 36L973 99M995 36L1011 -19M995 1476L1011 1421M1088 19L1196 25M1088 19L1011 -19M1088 19L1106 -50M1088 1459L1011 1421M1088 1459L1106 1390M1196 25L1230 33M1196 25L1295 65M1196 25L1198 103M1196 25L1200 -47M1196 1465L1200 1393M1230 33L1295 65M1230 33L1198 103M1230 33L1200 -47M1230 33L1251 -68M1230 1473L1200 1393M1230 1473L1251 1372M1295 65L1198 103M1295 65L1271 136M1295 65L1342 109M1396 1L1380 -88M1396 1L1334 -41M1396 1L1411 -66M1396 1L1490 -11M1396 1441L1380 1352M1396 1441L1334 1399M1396 1441L1411 1374M1396 1441L1490 1429M1483 59L1583 65M1483 59L1436 94M1483 59L1507 94M1483 59L1534 141M1483 59L1490 -11M1483 1499L1490 1429M1583 65L1676 10M1583 65L1507 94M1583 65L1534 141M1583 65L1656 113M1676 10L1698 69M1676 10L1625 -59M1676 10L1684 -44M1676 1450L1625 1381M1676 1450L1684 1396M1698 69L1656 113M1698 69L1744 123M1698 69L1684 -44M1698 1509L1684 1396M1834 39L1879 69M1834 39L1924 7M1834 39L1838 116M1834 39L1805 -70M1834 1479L1805 1370M1879 69L1924 7M1879 69L1838 116M1879 69L1892 157M1879 69L1910 -31M1879 1509L1910 1409M1924 7L1910 -31M1924 7L1972 -0M1924 1447L1910 1409M1924 1447L1972 1440M2032 73L2098 47M2032 73L1990 111M2032 73L2076 116M2032 73L2089 122M2032 73L1972 -0M2032 1513L1972 1440M2098 47L2076 116M2098 47L2089 122M2098 47L2159 -12M2098 1487L2159 1428M2209 47L2245 80M2209 47L2232 88M2209 47L2159 -12M2209 47L2170 -33M2209 47L2278 -1M2209 1487L2159 1428M2209 1487L2170 1407M2209 1487L2278 1439M2245 80L2232 88M2245 80L2256 132M2245 80L2278 -1M2245 1520L2278 1439M2345 4L2431 41M2345 4L2375 85M2345 4L2359 -81M2345 4L2278 -1M2345 4L2357 -2M2345 1444L2359 1359M2345 1444L2278 1439M2345 1444L2357 1438M2431 41L2375 85M2431 41L2437 136M2431 41L2357 -2M2431 1481L2357 1438M2538 56L2567 136M2538 56L2516 86M-22 56L7 136M7 136L-44 86M7 136L66 162M7 136L-24 188M2567 136L2516 86M2567 136L2536 188M134 85L167 121M134 85L66 162M134 85L184 -24M134 1525L184 1416M167 121L242 153M242 153L201 235M242 153L313 206M242 153L271 243M378 107L452 82M378 107L370 193M452 82L515 99M515 99L570 88M570 88L603 163M702 156L755 126M702 156L692 160M702 156L734 171M702 156L680 263M755 126L839 143M755 126L692 160M755 126L734 171M839 143L928 104M839 143L877 217M928 104L973 99M928 104L940 220M1100 153L1198 103M1100 153L1048 199M1100 153L1135 238M1198 103L1271 136M1271 136L1342 109M1271 136L1208 231M1271 136L1325 161M1342 109L1436 94M1342 109L1325 161M1436 94L1507 94M1436 94L1422 191M1507 94L1534 141M1507 94L1532 160M1534 141L1445 206M1534 141L1532 160M1656 113L1744 123M1656 113L1633 200M1744 123L1838 116M1744 123L1707 195M1744 123L1777 205M1838 116L1892 157M1838 116L1889 200M1892 157L1990 111M1892 157L1889 200M1892 157L1961 218M1990 111L2076 116M1990 111L2089 122M2076 116L2089 122M2076 116L2094 186M2089 122L2094 186M2232 88L2256 132M2256 132L2185 224M2375 85L2437 136M2375 85L2357 -2M2375 1525L2357 1438M2437 136L2516 86M2437 136L2453 222M2516 86L2536 188M66 162L-24 188M66 162L32 249M66 162L94 245M2626 162L2536 188M142 238L201 235M142 238L32 249M142 238L94 245M142 238L192 265M201 235L94 245M201 235L192 265M201 235L271 243M313 206L370 193M313 206L271 243M313 206L373 292M370 193L461 189M370 193L271 243M370 193L373 292M461 189L490 217M461 189L462 283M490 217L462 283M490 217L547 259M490 217L472 322M603 163L692 160M692 160L734 171M692 160L680 263M877 217L940 220M877 217L801 289M940 220L1005 235M940 220L929 300M940 220L1002 281M1005 235L1048 199M1005 235L929 300M1005 235L1002 281M1005 235L1048 313M1048 199L1135 238M1135 238L1208 231M1135 238L1185 264M1208 231L1185 264M1208 231L1247 315M1325 161L1422 191M1325 161L1353 265M1422 191L1445 206M1422 191L1353 265M1445 206L1532 160M1445 206L1382 297M1445 206L1440 312M1532 160L1633 200M1633 200L1707 195M1633 200L1631 246M1633 200L1685 259M1707 195L1777 205M1707 195L1631 246M1707 195L1685 259M1777 205L1889 200M1777 205L1829 246M1889 200L1961 218M1889 200L1829 246M1961 218L2037 236M1961 218L1967 290M1961 218L2006 312M2037 236L2094 186M2037 236L1967 290M2037 236L2006 312M2037 236L2108 303M2094 186L2185 224M2185 224L2108 303M2185 224L2237 303M2317 235L2394 238M2317 235L2296 309M2317 235L2327 299M2317 235L2314 323M2317 235L2347 334M2394 238L2453 222M2394 238L2418 245M2453 222L2536 188M2453 222L2418 245M2453 222L2485 292M2536 188L2592 249M-24 188L32 249M32 249L94 245M32 249L-75 292M2592 249L2485 292M94 245L192 265M192 265L271 243M373 292L462 283M373 292L325 382M373 292L472 322M462 283L547 259M462 283L472 322M547 259L635 286M547 259L472 322M635 286L680 263M635 286L609 348M635 286L662 343M680 263L662 343M680 263L733 341M782 318L801 289M782 318L733 341M782 318L837 355M801 289L733 341M801 289L837 355M929 300L1002 281M929 300L837 355M929 300L936 339M1002 281L1048 313M1002 281L936 339M1048 313L1024 387M1048 313L1119 384M1185 264L1247 315M1185 264L1158 397M1247 315L1353 265M1247 315L1158 397M1247 315L1256 373M1353 265L1382 297M1353 265L1440 312M1382 297L1440 312M1382 297L1359 395M1382 297L1430 380M1440 312L1430 380M1440 312L1497 322M1571 288L1631 246M1571 288L1497 322M1571 288L1560 325M1571 288L1676 322M1631 246L1685 259M1631 246L1676 322M1685 259L1676 322M1685 259L1698 329M1829 246L1847 313M1829 246L1809 334M1829 246L1863 353M1847 313L1967 290M1847 313L1809 334M1847 313L1863 353M1967 290L2006 312M1967 290L1980 380M2006 312L2108 303M2006 312L1980 380M2108 303L2064 399M2108 303L2120 340M2237 303L2296 309M2237 303L2327 299M2237 303L2204 395M2237 303L2314 323M2296 309L2327 299M2296 309L2314 323M2296 309L2347 334M2327 299L2314 323M2327 299L2347 334M2418 245L2485 292M2418 245L2486 327M2485 292L2431 382M2485 292L2486 327M74 392L126 377M74 392L179 386M74 392L47 420M74 392L111 451M126 377L179 386M126 377L47 420M126 377L111 451M126 377L218 431M179 386L111 451M179 386L218 431M297 364L325 382M297 364L218 431M325 382L311 466M325 382L422 441M472 322L550 391M550 391L609 348M550 391L491 443M609 348L662 343M609 348L636 444M609 348L653 432M662 343L733 341M662 343L653 432M733 341L743 445M837 355L936 339M837 355L866 466M1024 387L1119 384M1024 387L957 438M1024 387L1004 417M1024 387L1042 415M1119 384L1158 397M1119 384L1042 415M1119 384L1168 440M1158 397L1256 373M1158 397L1168 440M1359 395L1430 380M1359 395L1318 452M1359 395L1379 460M1430 380L1497 322M1430 380L1379 460M1497 322L1560 325M1676 322L1698 329M1698 329L1809 334M1698 329L1652 439M1809 334L1863 353M1863 353L1862 457M1980 380L2064 399M1980 380L1924 459M1980 380L2044 436M2064 399L2120 340M2064 399L2044 436M2064 399L2096 421M2120 340L2204 395M2120 340L2096 421M2120 340L2168 419M2204 395L2168 419M2204 395L2257 462M2314 323L2347 334M2347 334L2431 382M2431 382L2486 327M2431 382L2372 460M2431 382L2457 421M2486 327L2457 421M47 420L111 451M47 420L-31 469M47 420L133 514M2607 420L2529 469M111 451L133 514M218 431L311 466M218 431L133 514M311 466L376 474M311 466L304 514M376 474L422 441M376 474L304 514M376 474L395 551M376 474L410 553M422 441L491 443M636 444L653 432M636 444L646 490M653 432L743 445M653 432L646 490M743 445L646 490M743 445L731 499M866 466L957 438M866 466L824 498M866 466L914 505M957 438L1004 417M957 438L1042 415M957 438L914 505M1004 417L1042 415M1004 417L1038 521M1042 415L1038 521M1275 480L1318 452M1275 480L1275 534M1275 480L1298 484M1275 480L1294 585M1318 452L1379 460M1318 452L1275 534M1318 452L1298 484M1379 460L1298 484M1379 460L1439 507M1501 474L1600 448M1501 474L1439 507M1501 474L1485 507M1501 474L1534 491M1600 448L1652 439M1600 448L1534 491M1600 448L1671 528M1652 439L1745 451M1652 439L1671 528M1652 439L1725 483M1745 451L1762 467M1745 451L1671 528M1745 451L1725 483M1762 467L1862 457M1762 467L1725 483M1762 467L1823 540M1762 467L1791 574M1862 457L1924 459M1862 457L1823 540M1924 459L1917 529M1924 459L1967 529M1924 459L1964 568M2044 436L2096 421M2044 436L2031 489M2096 421L2168 419M2096 421L2031 489M2168 419L2257 462M2257 462L2372 460M2257 462L2171 543M2257 462L2253 504M2372 460L2457 421M2372 460L2373 555M2372 460L2446 512M2457 421L2529 469M2457 421L2446 512M2529 469L2446 512M2529 469L2548 528M2529 469L2570 576M-31 469L10 576M54 556L133 514M54 556L-12 528M54 556L10 576M2614 556L2548 528M133 514L175 558M175 558L135 637M175 558L170 629M175 558L269 582M304 514L395 551M304 514L269 582M304 514L332 612M395 551L410 553M395 551L332 612M395 551L474 593M410 553L515 546M410 553L332 612M410 553L474 593M515 546L565 555M515 546L474 593M515 546L557 578M515 546L573 607M565 555L646 490M565 555L474 593M565 555L557 578M565 555L573 607M646 490L731 499M731 499L824 498M731 499L707 564M824 498L914 505M824 498L787 581M824 498L828 573M914 505L828 573M914 505L1002 563M1038 521L1047 544M1038 521L1002 563M1047 544L1002 563M1047 544L1116 605M1164 550L1116 605M1164 550L1140 605M1164 550L1186 658M1275 534L1298 484M1275 534L1279 607M1275 534L1294 585M1298 484L1294 585M1439 507L1485 507M1439 507L1434 581M1439 507L1464 611M1485 507L1534 491M1485 507L1434 581M1485 507L1540 587M1534 491L1604 575M1671 528L1725 483M1671 528L1604 575M1823 540L1917 529M1823 540L1791 574M1823 540L1873 608M1917 529L1967 529M1917 529L1873 608M1917 529L1964 568M1967 529L2031 489M1967 529L1964 568M1967 529L2015 564M2031 489L2015 564M2157 547L2171 543M2157 547L2253 504M2157 547L2151 639M2157 547L2198 602M2171 543L2253 504M2171 543L2198 602M2373 555L2446 512M2373 555L2285 613M2373 555L2398 621M2373 555L2429 578M2446 512L2429 578M2548 528L2570 576M2548 528L2520 611M-12 528L10 576M10 576L-40 611M2570 576L2520 611M135 637L170 629M135 637L61 693M135 637L154 696M170 629L269 582M170 629L154 696M170 629L223 710M269 582L332 612M332 612L303 693M474 593L557 578M557 578L573 607M573 607L576 708M573 607L529 726M707 564L787 581M707 564L694 653M787 581L828 573M787 581L758 670M787 581L809 671M828 573L809 671M923 621L1002 563M923 621L912 708M923 621L1004 651M1002 563L1004 651M1116 605L1140 605M1116 605L1050 663M1116 605L1186 658M1140 605L1050 663M1140 605L1186 658M1140 605L1217 650M1279 607L1294 585M1279 607L1186 658M1279 607L1217 650M1279 607L1290 699M1294 585L1217 650M1434 581L1464 611M1434 581L1497 663M1464 611L1540 587M1464 611L1415 695M1464 611L1497 663M1540 587L1604 575M1540 587L1497 663M1540 587L1596 648M1604 575L1596 648M1704 639L1791 574M1704 639L1713 688M1704 639L1777 653M1791 574L1873 608M1791 574L1777 653M1873 608L1964 568M1964 568L2015 564M2151 639L2198 602M2151 639L2114 688M2151 639L2215 710M2151 639L2149 746M2198 602L2285 613M2285 613L2312 654M2398 621L2429 578M2398 621L2312 654M2398 621L2378 687M2398 621L2431 648M2429 578L2520 611M2429 578L2431 648M2520 611L2431 648M2520 611L2505 662M61 693L154 696M61 693L30 733M154 696L223 710M154 696L191 759M223 710L303 693M223 710L191 759M223 710L290 754M303 693L361 719M303 693L290 754M303 693L349 734M361 719L424 682M361 719L290 754M361 719L349 734M361 719L402 787M424 682L516 719M424 682L349 734M424 682L402 787M424 682L529 726M516 719L576 708M516 719L529 726M516 719L571 796M576 708L529 726M576 708L571 796M576 708L674 747M694 653L758 670M694 653L674 747M758 670L809 671M758 670L674 747M758 670L739 750M809 671L912 708M809 671L739 750M912 708L955 758M912 708L1022 731M1004 651L1050 663M1004 651L1022 731M1004 651L1074 728M1050 663L1022 731M1050 663L1074 728M1186 658L1217 650M1217 650L1290 699M1290 699L1276 748M1290 699L1351 772M1415 695L1497 663M1415 695L1351 772M1415 695L1418 743M1415 695L1488 781M1497 663L1596 648M1596 648L1615 706M1615 706L1713 688M1615 706L1662 767M1615 706L1596 805M1713 688L1777 653M1713 688L1662 767M1713 688L1763 740M1777 653L1841 719M1777 653L1763 740M1841 719L1958 715M1841 719L1763 740M1958 715L2050 702M1958 715L1916 785M1958 715L1998 769M1958 715L2004 742M2050 702L2114 688M2050 702L1998 769M2050 702L2004 742M2114 688L2215 710M2114 688L2004 742M2114 688L2149 746M2215 710L2149 746M2215 710L2221 759M2215 710L2273 774M2312 654L2378 687M2312 654L2382 749M2378 687L2431 648M2378 687L2382 749M2378 687L2450 770M2431 648L2505 662M2505 662L2590 733M2505 662L2493 723M-55 662L30 733M30 733L101 798M30 733L-67 723M30 733L56 803M2590 733L2493 723M101 798L191 759M101 798L56 803M101 798L118 839M101 798L74 892M191 759L290 754M191 759L208 808M290 754L349 734M349 734L402 787M402 787L384 834M402 787L407 870M529 726L571 796M571 796L510 853M571 796L596 839M674 747L739 750M674 747L681 806M739 750L681 806M739 750L730 847M851 790L955 758M851 790L817 879M955 758L1022 731M955 758L958 864M955 758L971 846M1022 731L1074 728M1074 728L1179 795M1179 795L1276 748M1179 795L1093 853M1179 795L1184 875M1179 795L1229 861M1276 748L1351 772M1276 748L1371 803M1351 772L1418 743M1351 772L1371 803M1418 743L1488 781M1418 743L1371 803M1488 781L1563 796M1488 781L1514 870M1563 796L1514 870M1563 796L1596 805M1563 796L1570 888M1662 767L1596 805M1662 767L1663 847M1750 797L1763 740M1750 797L1720 853M1750 797L1767 837M1763 740L1767 837M1916 785L1998 769M1916 785L2004 742M1916 785L1847 854M1916 785L1970 871M1998 769L2004 742M1998 769L1970 871M2149 746L2221 759M2149 746L2180 838M2221 759L2273 774M2221 759L2180 838M2221 759L2279 811M2273 774L2279 811M2382 749L2450 770M2382 749L2493 723M2382 749L2347 865M2450 770L2493 723M2450 770L2423 859M2450 770L2518 837M2493 723L2518 837M56 803L118 839M56 803L-42 837M56 803L74 892M2616 803L2518 837M118 839L208 808M118 839L74 892M208 808L243 874M243 874L207 939M243 874L301 920M384 834L407 870M407 870L409 940M407 870L503 909M407 870L393 973M510 853L596 839M510 853L503 909M596 839L681 806M596 839L503 909M596 839L621 942M681 806L730 847M730 847L817 879M730 847L760 897M817 879L760 897M817 879L867 941M958 864L971 846M958 864L867 941M958 864L953 885M958 864L1019 932M971 846L953 885M971 846L1019 932M1093 853L1184 875M1093 853L1085 924M1184 875L1229 861M1184 875L1192 910M1184 875L1258 895M1229 861L1282 859M1229 861L1192 910M1229 861L1258 895M1282 859L1371 803M1282 859L1258 895M1282 859L1349 924M1282 859L1365 890M1371 803L1365 890M1514 870L1503 938M1514 870L1570 888M1596 805L1663 847M1596 805L1570 888M1663 847L1720 853M1663 847L1737 896M1720 853L1767 837M1720 853L1737 896M1767 837L1847 854M1767 837L1737 896M1847 854L1914 931M1847 854L1930 890M1970 871L2065 864M1970 871L1914 931M1970 871L1930 890M2065 864L2133 845M2065 864L2070 899M2065 864L2120 938M2133 845L2180 838M2133 845L2070 899M2133 845L2120 938M2180 838L2279 811M2279 811L2347 865M2347 865L2423 859M2347 865L2395 912M2423 859L2518 837M2423 859L2395 912M2518 837L2531 896M74 892L106 945M74 892L71 994M106 945L207 939M106 945L71 994M106 945L101 1033M106 945L178 987M207 939L301 920M207 939L178 987M207 939L280 1035M301 920L356 954M356 954L409 940M356 954L393 973M356 954L422 1016M409 940L503 909M409 940L393 973M409 940L422 1016M503 909L513 972M621 942L646 947M621 942L621 1008M621 942L670 995M646 947L621 1008M646 947L670 995M646 947L630 1051M867 941L953 885M867 941L834 988M867 941L892 1015M953 885L1019 932M1019 932L1085 924M1019 932L999 1013M1085 924L1192 910M1085 924L1095 1019M1085 924L1128 962M1192 910L1258 895M1192 910L1128 962M1258 895L1349 924M1349 924L1365 890M1349 924L1310 994M1349 924L1435 984M1365 890L1310 994M1365 890L1435 984M1503 938L1570 888M1503 938L1435 984M1503 938L1441 990M1503 938L1584 998M1570 888L1607 947M1607 947L1584 998M1607 947L1629 1026M1737 896L1782 960M1782 960L1702 1002M1782 960L1765 1030M1782 960L1789 1046M1914 931L1930 890M1914 931L1889 1009M1914 931L1996 1009M2070 899L2120 938M2120 938L2062 1001M2120 938L2148 974M2233 956L2254 950M2233 956L2148 974M2233 956L2237 1026M2233 956L2305 997M2254 950L2237 1026M2254 950L2305 997M2395 912L2472 960M2395 912L2361 993M2472 960L2531 896M2472 960L2361 993M2472 960L2414 1019M2472 960L2481 1004M2531 896L2481 1004M71 994L101 1033M71 994L76 1066M71 994L122 1077M101 1033L178 987M101 1033L76 1066M101 1033L122 1077M178 987L280 1035M280 1035L207 1087M280 1035L302 1071M280 1035L337 1099M393 973L422 1016M422 1016L513 972M422 1016L415 1094M621 1008L670 995M621 1008L630 1051M621 1008L661 1057M670 995L630 1051M670 995L661 1057M768 1037L834 988M768 1037L661 1057M768 1037L778 1052M768 1037L818 1103M834 988L892 1015M834 988L778 1052M892 1015L999 1013M892 1015L902 1078M892 1015L963 1076M999 1013L1095 1019M999 1013L963 1076M1095 1019L1128 962M1095 1019L1096 1098M1095 1019L1156 1044M1128 962L1200 1037M1128 962L1156 1044M1200 1037L1310 994M1200 1037L1096 1098M1200 1037L1156 1044M1200 1037L1229 1102M1310 994L1334 1043M1435 984L1441 990M1435 984L1334 1043M1584 998L1629 1026M1629 1026L1702 1002M1629 1026L1649 1086M1702 1002L1765 1030M1702 1002L1706 1082M1702 1002L1789 1046M1765 1030L1706 1082M1765 1030L1789 1046M1765 1030L1727 1136M1889 1009L1996 1009M1889 1009L1894 1051M1996 1009L2062 1001M1996 1009L2029 1046M2062 1001L2148 974M2062 1001L2029 1046M2062 1001L2115 1068M2148 974L2115 1068M2237 1026L2305 997M2237 1026L2201 1118M2237 1026L2272 1088M2305 997L2361 993M2305 997L2272 1088M2361 993L2414 1019M2414 1019L2481 1004M2414 1019L2422 1070M2414 1019L2516 1074M2481 1004L2422 1070M2481 1004L2516 1074M76 1066L122 1077M76 1066L-44 1074M2636 1066L2516 1074M122 1077L207 1087M122 1077L161 1161M207 1087L302 1071M207 1087L161 1161M207 1087L256 1158M302 1071L337 1099M302 1071L256 1158M337 1099L415 1094M337 1099L337 1175M415 1094L523 1099M415 1094L462 1126M523 1099L462 1126M523 1099L504 1189M630 1051L661 1057M630 1051L675 1126M661 1057L675 1126M778 1052L818 1103M818 1103L902 1078M818 1103L785 1180M818 1103L840 1157M902 1078L963 1076M902 1078L840 1157M902 1078L918 1173M963 1076L971 1176M1096 1098L1156 1044M1096 1098L1083 1150M1156 1044L1229 1102M1229 1102L1334 1043M1229 1102L1171 1195M1229 1102L1242 1189M1334 1043L1370 1099M1370 1099L1504 1112M1370 1099L1335 1200M1370 1099L1363 1179M1504 1112L1572 1107M1504 1112L1518 1144M1504 1112L1548 1178M1504 1112L1611 1138M1572 1107L1649 1086M1572 1107L1518 1144M1572 1107L1548 1178M1572 1107L1611 1138M1649 1086L1706 1082M1649 1086L1611 1138M1649 1086L1727 1136M1706 1082L1789 1046M1706 1082L1727 1136M1789 1046L1818 1145M1894 1051L1950 1112M1894 1051L1895 1135M1950 1112L2029 1046M1950 1112L1895 1135M1950 1112L1983 1199M1950 1112L2002 1193M2029 1046L2115 1068M2029 1046L2090 1145M2115 1068L2201 1118M2115 1068L2090 1145M2201 1118L2272 1088M2201 1118L2198 1173M2201 1118L2313 1125M2272 1088L2361 1114M2272 1088L2313 1125M2361 1114L2422 1070M2361 1114L2313 1125M2361 1114L2396 1125M2361 1114L2433 1186M2422 1070L2516 1074M2422 1070L2396 1125M2516 1074L2515 1158M43 1183L81 1195M43 1183L-45 1158M43 1183L74 1226M43 1183L89 1256M43 1183L-53 1227M2603 1183L2515 1158M2603 1183L2507 1227M81 1195L161 1161M81 1195L74 1226M81 1195L89 1256M81 1195L161 1251M161 1161L256 1158M161 1161L161 1251M256 1158L337 1175M256 1158L303 1231M337 1175L303 1231M337 1175L399 1250M337 1175L408 1228M462 1126L504 1189M504 1189L408 1228M504 1189L506 1229M504 1189L571 1251M637 1189L675 1126M637 1189L571 1251M637 1189L711 1223M675 1126L711 1223M785 1180L840 1157M785 1180L711 1223M785 1180L785 1215M840 1157L918 1173M840 1157L785 1215M918 1173L971 1176M918 1173L877 1254M918 1173L937 1263M971 1176L1083 1150M971 1176L937 1263M971 1176L991 1273M1083 1150L1171 1195M1171 1195L1242 1189M1171 1195L1167 1267M1171 1195L1207 1268M1242 1189L1335 1200M1242 1189L1207 1268M1242 1189L1334 1237M1335 1200L1363 1179M1335 1200L1334 1237M1335 1200L1401 1256M1363 1179L1334 1237M1363 1179L1401 1256M1363 1179L1461 1252M1518 1144L1548 1178M1518 1144L1611 1138M1548 1178L1611 1138M1548 1178L1536 1266M1727 1136L1818 1145M1818 1145L1895 1135M1818 1145L1858 1226M1983 1199L2002 1193M1983 1199L1963 1271M1983 1199L2014 1212M2002 1193L2090 1145M2002 1193L2014 1212M2090 1145L2014 1212M2090 1145L2122 1213M2198 1173L2122 1213M2198 1173L2169 1238M2198 1173L2306 1217M2313 1125L2396 1125M2313 1125L2306 1217M2396 1125L2433 1186M2433 1186L2515 1158M2433 1186L2426 1251M2433 1186L2507 1227M2515 1158L2507 1227M74 1226L89 1256M89 1256L161 1251M89 1256L119 1308M161 1251L119 1308M161 1251L183 1300M303 1231L399 1250M303 1231L303 1300M399 1250L408 1228M399 1250L430 1309M408 1228L506 1229M408 1228L430 1309M506 1229L571 1251M506 1229L496 1305M571 1251L496 1305M571 1251L594 1325M711 1223L785 1215M711 1223L695 1331M785 1215L877 1254M877 1254L937 1263M877 1254L880 1352M937 1263L991 1273M937 1263L990 1325M991 1273L1069 1279M991 1273L990 1325M991 1273L1050 1322M1069 1279L1167 1267M1069 1279L990 1325M1069 1279L1050 1322M1069 1279L1133 1353M1167 1267L1207 1268M1167 1267L1133 1353M1207 1268L1265 1330M1334 1237L1401 1256M1334 1237L1300 1321M1401 1256L1461 1252M1401 1256L1380 1352M1461 1252L1536 1266M1461 1252L1496 1349M1536 1266L1496 1349M1536 1266L1592 1322M1536 1266L1529 1364M1672 1268L1751 1253M1672 1268L1764 1250M1672 1268L1650 1324M1672 1268L1689 1335M1751 1253L1764 1250M1751 1253L1858 1226M1751 1253L1689 1335M1764 1250L1858 1226M1764 1250L1833 1310M1858 1226L1833 1310M1858 1226L1924 1311M1963 1271L2014 1212M1963 1271L1918 1343M1963 1271L1924 1311M1963 1271L2024 1315M2014 1212L2122 1213M2122 1213L2169 1238M2122 1213L2125 1316M2169 1238L2125 1316M2169 1238L2211 1313M2306 1217L2322 1238M2322 1238L2426 1251M2322 1238L2302 1353M2322 1238L2422 1313M2426 1251L2507 1227M2426 1251L2422 1313M2426 1251L2432 1373M2507 1227L2555 1298M14 1311L119 1308M14 1311L-5 1298M14 1311L34 1387M14 1311L102 1370M14 1311L-67 1386M2574 1311L2555 1298M2574 1311L2493 1386M119 1308L183 1300M119 1308L102 1370M183 1300L244 1386M303 1300L344 1357M303 1300L244 1386M344 1357L395 1386M430 1309L496 1305M430 1309L395 1386M430 1309L439 1410M496 1305L594 1325M496 1305L510 1395M594 1325L695 1331M594 1325L510 1395M594 1325L629 1396M695 1331L769 1353M695 1331L629 1396M695 1331L663 1428M769 1353L868 1359M769 1353L880 1352M769 1353L783 1433M769 1353L858 1397M868 1359L880 1352M868 1359L783 1433M868 1359L858 1397M868 1359L890 1364M880 1352L858 1397M880 1352L890 1364M990 1325L1050 1322M990 1325L1011 1421M1050 1322L1133 1353M1050 1322L1106 1390M1133 1353L1106 1390M1133 1353L1200 1393M1265 1330L1300 1321M1265 1330L1200 1393M1265 1330L1251 1372M1300 1321L1380 1352M1300 1321L1251 1372M1300 1321L1334 1399M1380 1352L1334 1399M1380 1352L1411 1374M1496 1349L1411 1374M1496 1349L1490 1429M1496 1349L1529 1364M1592 1322L1650 1324M1592 1322L1529 1364M1592 1322L1625 1381M1650 1324L1689 1335M1650 1324L1625 1381M1650 1324L1684 1396M1689 1335L1625 1381M1689 1335L1684 1396M1833 1310L1918 1343M1833 1310L1924 1311M1833 1310L1805 1370M1918 1343L1924 1311M1918 1343L1910 1409M1918 1343L1972 1440M1924 1311L1910 1409M2024 1315L2125 1316M2024 1315L2077 1368M2125 1316L2211 1313M2125 1316L2077 1368M2211 1313L2302 1353M2211 1313L2170 1407M2302 1353L2359 1359M2302 1353L2278 1439M2359 1359L2422 1313M2359 1359L2357 1438M2359 1359L2432 1373M2422 1313L2432 1373M2422 1313L2493 1386M2555 1298L2594 1387M2555 1298L2493 1386M-5 1298L34 1387M34 1387L102 1370M34 1387L-67 1386M2594 1387L2493 1386M102 1370L184 1416M184 1416L244 1386M395 1386L439 1410M439 1410L510 1395M510 1395L629 1396M629 1396L663 1428M783 1433L858 1397M858 1397L890 1364M1011 1421L1106 1390M1200 1393L1251 1372M1251 1372L1334 1399M1334 1399L1411 1374M1411 1374L1490 1429M1490 1429L1529 1364M1625 1381L1684 1396M1910 1409L1972 1440M1972 1440L2077 1368M2077 1368L2159 1428M2077 1368L2170 1407M2159 1428L2170 1407M2278 1439L2357 1438M2432 1373L2493 1386"/></svg>