<svg xmlns="http://www.w3.org/2000/svg" width="2560" height="1440" fill="#fff"><circle cx="25" cy="57" r="5"/><circle cx="88" cy="1" r="5"/><circle cx="88" cy="1441" r="5"/><circle cx="168" cy="64" r="5"/><circle cx="251" cy="7" r="5"/><circle cx="323" cy="45" r="6"/><circle cx="403" cy="58" r="6"/><circle cx="508" cy="62" r="6"/><circle cx="595" cy="56" r="5"/><circle cx="681" cy="10" r="5"/><circle cx="784" cy="32" r="6"/><circle cx="853" cy="58" r="6"/><circle cx="889" cy="55" r="5"/><circle cx="1012" cy="71" r="5"/><circle cx="1107" cy="72" r="6"/><circle cx="1192" cy="49" r="5"/><circle cx="1266" cy="30" r="5"/><circle cx="1360" cy="50" r="5"/><circle cx="1373" cy="60" r="4"/><circle cx="1481" cy="10" r="5"/><circle cx="1533" cy="5" r="6"/><circle cx="1533" cy="1445" r="6"/><circle cx="1666" cy="56" r="6"/><circle cx="1684" cy="49" r="4"/><circle cx="1825" cy="5" r="5"/><circle cx="1861" cy="2" r="4"/><circle cx="1861" cy="1442" r="4"/><circle cx="1952" cy="66" r="6"/><circle cx="2032" cy="13" r="4"/><circle cx="2107" cy="78" r="5"/><circle cx="2195" cy="40" r="5"/><circle cx="2299" cy="76" r="6"/><circle cx="2363" cy="51" r="4"/><circle cx="2470" cy="36" r="4"/><circle cx="2526" cy="74" r="5"/><circle cx="1" cy="110" r="5"/><circle cx="2561" cy="110" r="5"/><circle cx="149" cy="99" r="6"/><circle cx="169" cy="80" r="5"/><circle cx="319" cy="92" r="4"/><circle cx="328" cy="101" r="6"/><circle cx="445" cy="86" r="4"/><circle cx="486" cy="99" r="6"/><circle cx="638" cy="139" r="4"/><circle cx="672" cy="155" r="5"/><circle cx="796" cy="152" r="6"/><circle cx="866" cy="90" r="6"/><circle cx="916" cy="93" r="4"/><circle cx="964" cy="98" r="6"/><circle cx="1085" cy="138" r="6"/><circle cx="1184" cy="83" r="5"/><circle cx="1206" cy="98" r="5"/><circle cx="1352" cy="133" r="5"/><circle cx="1375" cy="97" r="6"/><circle cx="1447" cy="155" r="6"/><circle cx="1557" cy="135" r="5"/><circle cx="1615" cy="99" r="4"/><circle cx="1727" cy="148" r="5"/><circle cx="1822" cy="88" r="4"/><circle cx="1902" cy="146" r="6"/><circle cx="1984" cy="82" r="5"/><circle cx="2025" cy="104" r="6"/><circle cx="2115" cy="148" r="4"/><circle cx="2182" cy="82" r="6"/><circle cx="2304" cy="126" r="4"/><circle cx="2391" cy="129" r="4"/><circle cx="2449" cy="104" r="6"/><circle cx="2543" cy="107" r="4"/><circle cx="75" cy="164" r="5"/><circle cx="138" cy="187" r="6"/><circle cx="173" cy="169" r="4"/><circle cx="303" cy="225" r="4"/><circle cx="386" cy="186" r="6"/><circle cx="425" cy="181" r="6"/><circle cx="508" cy="174" r="4"/><circle cx="567" cy="164" r="5"/><circle cx="650" cy="205" r="4"/><circle cx="733" cy="194" r="4"/><circle cx="803" cy="196" r="5"/><circle cx="954" cy="225" r="5"/><circle cx="992" cy="234" r="4"/><circle cx="1103" cy="216" r="5"/><circle cx="1184" cy="236" r="5"/><circle cx="1215" cy="217" r="5"/><circle cx="1353" cy="186" r="6"/><circle cx="1389" cy="191" r="6"/><circle cx="1467" cy="232" r="5"/><circle cx="1526" cy="181" r="4"/><circle cx="1619" cy="201" r="4"/><circle cx="1714" cy="182" r="5"/><circle cx="1836" cy="230" r="4"/><circle cx="1852" cy="179" r="6"/><circle cx="1996" cy="206" r="5"/><circle cx="2024" cy="181" r="4"/><circle cx="2110" cy="178" r="5"/><circle cx="2237" cy="169" r="5"/><circle cx="2284" cy="234" r="5"/><circle cx="2345" cy="193" r="5"/><circle cx="2450" cy="222" r="6"/><circle cx="2508" cy="220" r="5"/><circle cx="1" cy="300" r="5"/><circle cx="2561" cy="300" r="5"/><circle cx="125" cy="267" r="5"/><circle cx="230" cy="262" r="5"/><circle cx="276" cy="242" r="5"/><circle cx="356" cy="278" r="5"/><circle cx="443" cy="305" r="5"/><circle cx="487" cy="267" r="5"/><circle cx="625" cy="268" r="6"/><circle cx="660" cy="319" r="5"/><circle cx="797" cy="256" r="4"/><circle cx="866" cy="312" r="5"/><circle cx="917" cy="311" r="4"/><circle cx="1011" cy="256" r="5"/><circle cx="1082" cy="248" r="5"/><circle cx="1144" cy="240" r="5"/><circle cx="1217" cy="302" r="5"/><circle cx="1285" cy="294" r="5"/><circle cx="1382" cy="257" r="5"/><circle cx="1453" cy="277" r="5"/><circle cx="1568" cy="299" r="5"/><circle cx="1672" cy="245" r="5"/><circle cx="1712" cy="263" r="5"/><circle cx="1828" cy="253" r="5"/><circle cx="1920" cy="312" r="5"/><circle cx="1961" cy="248" r="5"/><circle cx="2030" cy="319" r="4"/><circle cx="2098" cy="286" r="5"/><circle cx="2176" cy="252" r="5"/><circle cx="2296" cy="247" r="5"/><circle cx="2325" cy="286" r="5"/><circle cx="2404" cy="316" r="5"/><circle cx="2553" cy="283" r="5"/><circle cx="77" cy="373" r="6"/><circle cx="127" cy="346" r="6"/><circle cx="233" cy="393" r="5"/><circle cx="294" cy="326" r="5"/><circle cx="330" cy="366" r="5"/><circle cx="429" cy="363" r="5"/><circle cx="486" cy="380" r="6"/><circle cx="579" cy="385" r="5"/><circle cx="718" cy="376" r="6"/><circle cx="749" cy="398" r="5"/><circle cx="867" cy="388" r="6"/><circle cx="933" cy="379" r="6"/><circle cx="967" cy="390" r="5"/><circle cx="1047" cy="372" r="4"/><circle cx="1171" cy="335" r="4"/><circle cx="1279" cy="374" r="4"/><circle cx="1303" cy="349" r="6"/><circle cx="1395" cy="324" r="5"/><circle cx="1513" cy="395" r="6"/><circle cx="1556" cy="332" r="5"/><circle cx="1601" cy="370" r="5"/><circle cx="1698" cy="357" r="6"/><circle cx="1782" cy="358" r="5"/><circle cx="1840" cy="380" r="6"/><circle cx="1972" cy="355" r="5"/><circle cx="2069" cy="376" r="5"/><circle cx="2159" cy="390" r="5"/><circle cx="2199" cy="398" r="4"/><circle cx="2314" cy="369" r="4"/><circle cx="2322" cy="398" r="6"/><circle cx="2404" cy="355" r="6"/><circle cx="2543" cy="328" r="5"/><circle cx="27" cy="448" r="5"/><circle cx="137" cy="479" r="5"/><circle cx="207" cy="457" r="5"/><circle cx="250" cy="462" r="4"/><circle cx="349" cy="439" r="4"/><circle cx="452" cy="478" r="5"/><circle cx="498" cy="457" r="6"/><circle cx="624" cy="436" r="5"/><circle cx="688" cy="401" r="4"/><circle cx="798" cy="425" r="5"/><circle cx="803" cy="439" r="5"/><circle cx="907" cy="455" r="5"/><circle cx="973" cy="457" r="5"/><circle cx="1095" cy="453" r="5"/><circle cx="1135" cy="402" r="4"/><circle cx="1259" cy="442" r="5"/><circle cx="1351" cy="446" r="4"/><circle cx="1415" cy="439" r="5"/><circle cx="1442" cy="479" r="5"/><circle cx="1547" cy="471" r="5"/><circle cx="1605" cy="401" r="6"/><circle cx="1704" cy="432" r="4"/><circle cx="1814" cy="408" r="5"/><circle cx="1859" cy="439" r="6"/><circle cx="1959" cy="452" r="4"/><circle cx="2044" cy="418" r="5"/><circle cx="2094" cy="411" r="4"/><circle cx="2204" cy="431" r="5"/><circle cx="2309" cy="452" r="4"/><circle cx="2360" cy="429" r="5"/><circle cx="2467" cy="472" r="6"/><circle cx="2529" cy="466" r="4"/><circle cx="54" cy="541" r="6"/><circle cx="139" cy="494" r="5"/><circle cx="181" cy="505" r="4"/><circle cx="273" cy="533" r="4"/><circle cx="394" cy="530" r="5"/><circle cx="467" cy="532" r="6"/><circle cx="520" cy="555" r="5"/><circle cx="610" cy="542" r="5"/><circle cx="718" cy="523" r="5"/><circle cx="791" cy="539" r="4"/><circle cx="863" cy="538" r="4"/><circle cx="903" cy="527" r="5"/><circle cx="998" cy="505" r="4"/><circle cx="1101" cy="503" r="4"/><circle cx="1146" cy="497" r="5"/><circle cx="1250" cy="544" r="5"/><circle cx="1349" cy="524" r="6"/><circle cx="1437" cy="501" r="5"/><circle cx="1501" cy="496" r="4"/><circle cx="1584" cy="530" r="5"/><circle cx="1677" cy="487" r="4"/><circle cx="1751" cy="508" r="6"/><circle cx="1793" cy="559" r="5"/><circle cx="1909" cy="522" r="4"/><circle cx="1926" cy="496" r="5"/><circle cx="2056" cy="480" r="5"/><circle cx="2158" cy="491" r="5"/><circle cx="2185" cy="550" r="5"/><circle cx="2245" cy="556" r="5"/><circle cx="2395" cy="541" r="5"/><circle cx="2467" cy="526" r="5"/><circle cx="2517" cy="512" r="4"/><circle cx="17" cy="573" r="4"/><circle cx="123" cy="594" r="4"/><circle cx="160" cy="581" r="6"/><circle cx="262" cy="587" r="4"/><circle cx="328" cy="595" r="6"/><circle cx="422" cy="595" r="4"/><circle cx="524" cy="624" r="6"/><circle cx="614" cy="620" r="5"/><circle cx="707" cy="603" r="4"/><circle cx="754" cy="569" r="5"/><circle cx="813" cy="625" r="5"/><circle cx="890" cy="605" r="4"/><circle cx="1038" cy="629" r="5"/><circle cx="1113" cy="613" r="4"/><circle cx="1168" cy="599" r="4"/><circle cx="1234" cy="631" r="6"/><circle cx="1357" cy="562" r="4"/><circle cx="1413" cy="628" r="5"/><circle cx="1507" cy="608" r="5"/><circle cx="1537" cy="622" r="4"/><circle cx="1611" cy="588" r="4"/><circle cx="1706" cy="592" r="6"/><circle cx="1776" cy="618" r="5"/><circle cx="1893" cy="603" r="5"/><circle cx="1986" cy="562" r="6"/><circle cx="2029" cy="561" r="5"/><circle cx="2110" cy="625" r="4"/><circle cx="2197" cy="603" r="5"/><circle cx="2283" cy="576" r="4"/><circle cx="2369" cy="594" r="5"/><circle cx="2425" cy="566" r="4"/><circle cx="2544" cy="562" r="4"/><circle cx="47" cy="687" r="5"/><circle cx="148" cy="669" r="5"/><circle cx="170" cy="653" r="4"/><circle cx="314" cy="679" r="4"/><circle cx="325" cy="641" r="5"/><circle cx="414" cy="690" r="4"/><circle cx="492" cy="696" r="4"/><circle cx="618" cy="640" r="6"/><circle cx="662" cy="657" r="5"/><circle cx="756" cy="642" r="5"/><circle cx="851" cy="712" r="5"/><circle cx="930" cy="713" r="5"/><circle cx="1021" cy="703" r="5"/><circle cx="1102" cy="676" r="5"/><circle cx="1146" cy="717" r="4"/><circle cx="1261" cy="694" r="5"/><circle cx="1336" cy="662" r="5"/><circle cx="1440" cy="667" r="5"/><circle cx="1516" cy="667" r="5"/><circle cx="1555" cy="685" r="5"/><circle cx="1606" cy="703" r="5"/><circle cx="1702" cy="658" r="4"/><circle cx="1787" cy="688" r="5"/><circle cx="1888" cy="654" r="5"/><circle cx="1936" cy="666" r="6"/><circle cx="2052" cy="698" r="5"/><circle cx="2083" cy="654" r="5"/><circle cx="2226" cy="646" r="5"/><circle cx="2300" cy="641" r="5"/><circle cx="2347" cy="685" r="5"/><circle cx="2453" cy="718" r="4"/><circle cx="2528" cy="699" r="5"/><circle cx="62" cy="790" r="5"/><circle cx="112" cy="776" r="4"/><circle cx="218" cy="750" r="5"/><circle cx="245" cy="766" r="5"/><circle cx="393" cy="791" r="6"/><circle cx="447" cy="783" r="5"/><circle cx="527" cy="735" r="4"/><circle cx="593" cy="755" r="4"/><circle cx="661" cy="796" r="4"/><circle cx="769" cy="789" r="5"/><circle cx="861" cy="769" r="5"/><circle cx="910" cy="785" r="5"/><circle cx="982" cy="734" r="5"/><circle cx="1061" cy="724" r="4"/><circle cx="1124" cy="720" r="6"/><circle cx="1246" cy="770" r="6"/><circle cx="1324" cy="761" r="5"/><circle cx="1385" cy="759" r="6"/><circle cx="1495" cy="728" r="5"/><circle cx="1574" cy="746" r="6"/><circle cx="1610" cy="779" r="4"/><circle cx="1758" cy="730" r="5"/><circle cx="1791" cy="764" r="4"/><circle cx="1866" cy="766" r="4"/><circle cx="1974" cy="728" r="5"/><circle cx="2067" cy="729" r="6"/><circle cx="2121" cy="799" r="6"/><circle cx="2206" cy="765" r="5"/><circle cx="2264" cy="797" r="5"/><circle cx="2339" cy="782" r="5"/><circle cx="2434" cy="750" r="5"/><circle cx="2535" cy="792" r="6"/><circle cx="55" cy="823" r="6"/><circle cx="98" cy="853" r="6"/><circle cx="173" cy="823" r="5"/><circle cx="286" cy="845" r="5"/><circle cx="328" cy="852" r="5"/><circle cx="408" cy="852" r="4"/><circle cx="488" cy="804" r="5"/><circle cx="564" cy="815" r="4"/><circle cx="696" cy="842" r="6"/><circle cx="748" cy="808" r="6"/><circle cx="823" cy="803" r="4"/><circle cx="894" cy="804" r="5"/><circle cx="1036" cy="845" r="5"/><circle cx="1062" cy="851" r="4"/><circle cx="1123" cy="871" r="4"/><circle cx="1248" cy="841" r="5"/><circle cx="1349" cy="850" r="5"/><circle cx="1362" cy="835" r="6"/><circle cx="1447" cy="872" r="5"/><circle cx="1561" cy="818" r="5"/><circle cx="1601" cy="819" r="5"/><circle cx="1703" cy="832" r="5"/><circle cx="1805" cy="819" r="4"/><circle cx="1916" cy="808" r="5"/><circle cx="1983" cy="831" r="6"/><circle cx="2023" cy="805" r="4"/><circle cx="2102" cy="838" r="5"/><circle cx="2230" cy="835" r="5"/><circle cx="2299" cy="849" r="5"/><circle cx="2354" cy="823" r="6"/><circle cx="2404" cy="818" r="5"/><circle cx="2536" cy="870" r="5"/><circle cx="37" cy="909" r="6"/><circle cx="158" cy="940" r="6"/><circle cx="175" cy="925" r="5"/><circle cx="285" cy="913" r="5"/><circle cx="350" cy="912" r="5"/><circle cx="466" cy="952" r="6"/><circle cx="514" cy="900" r="6"/><circle cx="575" cy="947" r="5"/><circle cx="642" cy="896" r="6"/><circle cx="764" cy="888" r="5"/><circle cx="829" cy="894" r="5"/><circle cx="899" cy="957" r="4"/><circle cx="972" cy="918" r="5"/><circle cx="1112" cy="888" r="6"/><circle cx="1138" cy="948" r="5"/><circle cx="1258" cy="949" r="4"/><circle cx="1305" cy="927" r="5"/><circle cx="1399" cy="940" r="4"/><circle cx="1448" cy="917" r="6"/><circle cx="1533" cy="897" r="5"/><circle cx="1602" cy="949" r="6"/><circle cx="1730" cy="936" r="6"/><circle cx="1801" cy="909" r="5"/><circle cx="1888" cy="949" r="5"/><circle cx="1944" cy="945" r="5"/><circle cx="2023" cy="912" r="5"/><circle cx="2148" cy="939" r="4"/><circle cx="2213" cy="915" r="6"/><circle cx="2305" cy="945" r="5"/><circle cx="2344" cy="884" r="4"/><circle cx="2412" cy="939" r="5"/><circle cx="2528" cy="960" r="4"/><circle cx="79" cy="1009" r="5"/><circle cx="109" cy="979" r="6"/><circle cx="201" cy="1002" r="5"/><circle cx="296" cy="1033" r="5"/><circle cx="380" cy="1030" r="4"/><circle cx="441" cy="967" r="5"/><circle cx="496" cy="970" r="5"/><circle cx="586" cy="1022" r="6"/><circle cx="645" cy="976" r="5"/><circle cx="725" cy="1032" r="5"/><circle cx="809" cy="1018" r="4"/><circle cx="898" cy="1027" r="5"/><circle cx="1003" cy="985" r="5"/><circle cx="1102" cy="1011" r="5"/><circle cx="1187" cy="1014" r="6"/><circle cx="1214" cy="1003" r="5"/><circle cx="1297" cy="979" r="5"/><circle cx="1365" cy="1029" r="5"/><circle cx="1451" cy="978" r="5"/><circle cx="1586" cy="980" r="4"/><circle cx="1665" cy="994" r="5"/><circle cx="1725" cy="999" r="4"/><circle cx="1811" cy="1031" r="5"/><circle cx="1907" cy="992" r="5"/><circle cx="1990" cy="1035" r="5"/><circle cx="2011" cy="985" r="6"/><circle cx="2097" cy="1026" r="5"/><circle cx="2174" cy="973" r="5"/><circle cx="2301" cy="982" r="6"/><circle cx="2340" cy="973" r="5"/><circle cx="2435" cy="1014" r="5"/><circle cx="2518" cy="1002" r="5"/><circle cx="11" cy="1062" r="5"/><circle cx="117" cy="1061" r="5"/><circle cx="204" cy="1100" r="5"/><circle cx="319" cy="1052" r="5"/><circle cx="352" cy="1045" r="6"/><circle cx="472" cy="1072" r="5"/><circle cx="490" cy="1058" r="6"/><circle cx="567" cy="1057" r="6"/><circle cx="643" cy="1063" r="4"/><circle cx="770" cy="1089" r="5"/><circle cx="828" cy="1061" r="6"/><circle cx="954" cy="1046" r="5"/><circle cx="982" cy="1057" r="5"/><circle cx="1119" cy="1085" r="4"/><circle cx="1137" cy="1099" r="5"/><circle cx="1209" cy="1099" r="4"/><circle cx="1300" cy="1116" r="4"/><circle cx="1371" cy="1098" r="6"/><circle cx="1506" cy="1057" r="5"/><circle cx="1526" cy="1049" r="5"/><circle cx="1605" cy="1063" r="5"/><circle cx="1735" cy="1082" r="5"/><circle cx="1813" cy="1086" r="6"/><circle cx="1893" cy="1056" r="4"/><circle cx="1925" cy="1053" r="5"/><circle cx="2044" cy="1062" r="4"/><circle cx="2085" cy="1044" r="6"/><circle cx="2238" cy="1076" r="5"/><circle cx="2255" cy="1059" r="4"/><circle cx="2378" cy="1110" r="5"/><circle cx="2456" cy="1059" r="5"/><circle cx="2546" cy="1083" r="6"/><circle cx="44" cy="1174" r="6"/><circle cx="107" cy="1147" r="6"/><circle cx="181" cy="1151" r="5"/><circle cx="282" cy="1178" r="4"/><circle cx="353" cy="1165" r="5"/><circle cx="467" cy="1172" r="5"/><circle cx="519" cy="1187" r="5"/><circle cx="616" cy="1179" r="6"/><circle cx="714" cy="1164" r="5"/><circle cx="733" cy="1159" r="5"/><circle cx="852" cy="1142" r="5"/><circle cx="927" cy="1196" r="6"/><circle cx="997" cy="1151" r="5"/><circle cx="1042" cy="1155" r="5"/><circle cx="1152" cy="1171" r="4"/><circle cx="1270" cy="1158" r="6"/><circle cx="1307" cy="1146" r="4"/><circle cx="1386" cy="1168" r="6"/><circle cx="1515" cy="1141" r="5"/><circle cx="1599" cy="1139" r="5"/><circle cx="1653" cy="1175" r="5"/><circle cx="1685" cy="1198" r="5"/><circle cx="1836" cy="1155" r="4"/><circle cx="1842" cy="1140" r="5"/><circle cx="1937" cy="1156" r="4"/><circle cx="2054" cy="1191" r="5"/><circle cx="2155" cy="1150" r="6"/><circle cx="2216" cy="1178" r="5"/><circle cx="2242" cy="1134" r="5"/><circle cx="2351" cy="1153" r="6"/><circle cx="2421" cy="1196" r="6"/><circle cx="2495" cy="1150" r="6"/><circle cx="28" cy="1218" r="5"/><circle cx="139" cy="1217" r="6"/><circle cx="215" cy="1229" r="6"/><circle cx="241" cy="1215" r="4"/><circle cx="344" cy="1251" r="5"/><circle cx="411" cy="1236" r="4"/><circle cx="539" cy="1215" r="6"/><circle cx="602" cy="1216" r="5"/><circle cx="704" cy="1269" r="4"/><circle cx="728" cy="1214" r="5"/><circle cx="838" cy="1204" r="5"/><circle cx="888" cy="1256" r="5"/><circle cx="1007" cy="1226" r="6"/><circle cx="1113" cy="1246" r="5"/><circle cx="1169" cy="1236" r="6"/><circle cx="1218" cy="1252" r="6"/><circle cx="1348" cy="1251" r="4"/><circle cx="1376" cy="1222" r="5"/><circle cx="1497" cy="1261" r="5"/><circle cx="1541" cy="1279" r="5"/><circle cx="1634" cy="1201" r="4"/><circle cx="1756" cy="1269" r="5"/><circle cx="1816" cy="1279" r="4"/><circle cx="1916" cy="1226" r="5"/><circle cx="1990" cy="1249" r="4"/><circle cx="2063" cy="1210" r="6"/><circle cx="2097" cy="1221" r="6"/><circle cx="2230" cy="1212" r="5"/><circle cx="2250" cy="1218" r="4"/><circle cx="2344" cy="1229" r="6"/><circle cx="2404" cy="1262" r="6"/><circle cx="2516" cy="1253" r="5"/><circle cx="57" cy="1329" r="6"/><circle cx="136" cy="1296" r="4"/><circle cx="239" cy="1360" r="4"/><circle cx="310" cy="1315" r="6"/><circle cx="323" cy="1306" r="4"/><circle cx="431" cy="1354" r="6"/><circle cx="520" cy="1334" r="6"/><circle cx="605" cy="1317" r="6"/><circle cx="661" cy="1300" r="4"/><circle cx="725" cy="1298" r="6"/><circle cx="811" cy="1286" r="5"/><circle cx="941" cy="1354" r="5"/><circle cx="974" cy="1300" r="4"/><circle cx="1108" cy="1338" r="6"/><circle cx="1178" cy="1310" r="5"/><circle cx="1278" cy="1296" r="5"/><circle cx="1280" cy="1335" r="5"/><circle cx="1386" cy="1283" r="5"/><circle cx="1492" cy="1301" r="5"/><circle cx="1595" cy="1359" r="5"/><circle cx="1645" cy="1333" r="6"/><circle cx="1696" cy="1344" r="5"/><circle cx="1780" cy="1350" r="5"/><circle cx="1858" cy="1291" r="4"/><circle cx="1938" cy="1303" r="5"/><circle cx="2034" cy="1329" r="4"/><circle cx="2087" cy="1315" r="5"/><circle cx="2173" cy="1338" r="5"/><circle cx="2311" cy="1280" r="4"/><circle cx="2376" cy="1283" r="6"/><circle cx="2408" cy="1296" r="4"/><circle cx="2521" cy="1310" r="4"/><circle cx="7" cy="1414" r="5"/><circle cx="95" cy="1437" r="6"/><circle cx="95" cy="-3" r="6"/><circle cx="238" cy="1398" r="4"/><circle cx="309" cy="1383" r="4"/><circle cx="363" cy="1371" r="6"/><circle cx="460" cy="1400" r="5"/><circle cx="507" cy="1434" r="5"/><circle cx="620" cy="1363" r="4"/><circle cx="644" cy="1362" r="4"/><circle cx="749" cy="1378" r="4"/><circle cx="846" cy="1390" r="4"/><circle cx="914" cy="1372" r="5"/><circle cx="1017" cy="1362" r="5"/><circle cx="1079" cy="1411" r="4"/><circle cx="1122" cy="1406" r="4"/><circle cx="1225" cy="1392" r="4"/><circle cx="1313" cy="1434" r="6"/><circle cx="1313" cy="-6" r="6"/><circle cx="1431" cy="1416" r="6"/><circle cx="1503" cy="1434" r="5"/><circle cx="1522" cy="1393" r="6"/><circle cx="1627" cy="1410" r="5"/><circle cx="1752" cy="1378" r="5"/><circle cx="1832" cy="1370" r="5"/><circle cx="1901" cy="1365" r="5"/><circle cx="1974" cy="1420" r="6"/><circle cx="2028" cy="1374" r="4"/><circle cx="2114" cy="1387" r="4"/><circle cx="2204" cy="1404" r="5"/><circle cx="2242" cy="1378" r="5"/><circle cx="2382" cy="1382" r="6"/><circle cx="2427" cy="1409" r="5"/><circle cx="2508" cy="1424" r="5"/><path stroke="#fff" d="M25 57L88 1M25 57L-34 74M25 57L1 110M25 57L-17 107M25 57L95 -3M2585 57L2526 74M2585 57L2543 107M25 1497L95 1437M88 1L168 64M88 1L7 -26M88 1L95 -3M88 1441L7 1414M88 1441L95 1437M168 64L251 7M168 64L149 99M168 64L169 80M168 64L95 -3M168 1504L95 1437M251 7L323 45M251 7L239 -80M251 7L238 -42M251 7L309 -57M251 1447L239 1360M251 1447L238 1398M251 1447L309 1383M323 45L403 58M323 45L319 92M323 45L328 101M403 58L319 92M403 58L328 101M403 58L445 86M403 58L486 99M508 62L595 56M508 62L445 86M508 62L486 99M508 62L460 -40M508 62L507 -6M508 1502L460 1400M508 1502L507 1434M595 56L681 10M595 56L638 139M595 56L507 -6M595 1496L507 1434M681 10L784 32M681 10L620 -77M681 10L644 -78M681 10L749 -62M681 1450L620 1363M681 1450L644 1362M681 1450L749 1378M784 32L853 58M784 32L749 -62M784 32L846 -50M784 1472L749 1378M784 1472L846 1390M853 58L889 55M853 58L796 152M853 58L866 90M853 58L916 93M889 55L1012 71M889 55L866 90M889 55L916 93M889 55L964 98M1012 71L1107 72M1012 71L916 93M1012 71L964 98M1012 71L1085 138M1107 72L1192 49M1107 72L1085 138M1107 72L1184 83M1107 72L1206 98M1192 49L1266 30M1192 49L1184 83M1192 49L1206 98M1192 49L1225 -48M1192 1489L1225 1392M1266 30L1360 50M1266 30L1206 98M1266 30L1225 -48M1266 30L1313 -6M1266 1470L1225 1392M1266 1470L1313 1434M1360 50L1373 60M1360 50L1352 133M1360 50L1375 97M1360 50L1313 -6M1360 1490L1313 1434M1373 60L1352 133M1373 60L1375 97M1373 60L1313 -6M1373 60L1431 -24M1373 1500L1313 1434M1373 1500L1431 1416M1481 10L1533 5M1481 10L1431 -24M1481 10L1503 -6M1481 10L1522 -47M1481 1450L1431 1416M1481 1450L1503 1434M1481 1450L1522 1393M1533 5L1431 -24M1533 5L1503 -6M1533 5L1522 -47M1533 5L1627 -30M1533 1445L1431 1416M1533 1445L1503 1434M1533 1445L1522 1393M1533 1445L1627 1410M1666 56L1684 49M1666 56L1615 99M1666 56L1727 148M1666 56L1714 182M1666 56L1627 -30M1666 1496L1627 1410M1684 49L1615 99M1684 49L1727 148M1825 5L1861 2M1825 5L1822 88M1825 5L1752 -62M1825 5L1832 -70M1825 1445L1752 1378M1825 1445L1832 1370M1861 2L1822 88M1861 2L1832 -70M1861 2L1901 -75M1861 1442L1832 1370M1861 1442L1901 1365M1952 66L2032 13M1952 66L1902 146M1952 66L1984 82M1952 66L2025 104M1952 66L1974 -20M1952 1506L1974 1420M2032 13L1984 82M2032 13L2025 104M2032 13L1974 -20M2032 13L2028 -66M2032 1453L1974 1420M2032 1453L2028 1374M2107 78L2195 40M2107 78L2025 104M2107 78L2115 148M2107 78L2182 82M2107 78L2110 178M2195 40L2299 76M2195 40L2182 82M2195 40L2204 -36M2195 40L2242 -62M2195 1480L2204 1404M2195 1480L2242 1378M2299 76L2363 51M2299 76L2182 82M2299 76L2304 126M2363 51L2304 126M2363 51L2391 129M2363 51L2382 -58M2363 1491L2382 1382M2470 36L2526 74M2470 36L2449 104M2470 36L2427 -31M2470 36L2508 -16M2470 1476L2427 1409M2470 1476L2508 1424M2526 74L2561 110M2526 74L2449 104M2526 74L2543 107M-34 74L1 110M1 110L-17 107M1 110L75 164M2561 110L2543 107M149 99L169 80M149 99L75 164M149 99L138 187M149 99L173 169M169 80L138 187M169 80L173 169M319 92L328 101M328 101L386 186M445 86L486 99M445 86L425 181M486 99L425 181M486 99L508 174M638 139L672 155M638 139L567 164M638 139L650 205M672 155L567 164M672 155L650 205M672 155L733 194M672 155L625 268M796 152L866 90M796 152L733 194M796 152L803 196M796 152L797 256M866 90L916 93M866 90L964 98M916 93L964 98M1085 138L1184 83M1085 138L1103 216M1184 83L1206 98M1206 98L1215 217M1352 133L1375 97M1352 133L1353 186M1352 133L1389 191M1375 97L1447 155M1375 97L1353 186M1447 155L1353 186M1447 155L1389 191M1447 155L1467 232M1447 155L1526 181M1557 135L1615 99M1557 135L1526 181M1557 135L1619 201M1727 148L1714 182M1727 148L1672 245M1822 88L1902 146M1822 88L1852 179M1902 146L1984 82M1902 146L1852 179M1902 146L1996 206M1984 82L2025 104M1984 82L1974 -20M1984 1522L1974 1420M2025 104L2024 181M2115 148L2182 82M2115 148L2024 181M2115 148L2110 178M2182 82L2237 169M2304 126L2391 129M2304 126L2237 169M2304 126L2345 193M2391 129L2449 104M2391 129L2345 193M2391 129L2450 222M2449 104L2543 107M2449 104L2450 222M2543 107L2635 164M-17 107L75 164M75 164L138 187M75 164L173 169M138 187L173 169M138 187L125 267M173 169L230 262M303 225L386 186M303 225L230 262M303 225L276 242M303 225L356 278M386 186L425 181M386 186L276 242M386 186L356 278M425 181L508 174M425 181L487 267M508 174L567 164M508 174L487 267M567 164L650 205M567 164L625 268M650 205L733 194M650 205L625 268M733 194L803 196M733 194L797 256M803 196L797 256M954 225L992 234M954 225L866 312M954 225L917 311M954 225L1011 256M992 234L1011 256M992 234L1082 248M1103 216L1184 236M1103 216L1011 256M1103 216L1082 248M1103 216L1144 240M1184 236L1215 217M1184 236L1082 248M1184 236L1144 240M1184 236L1217 302M1215 217L1144 240M1215 217L1217 302M1215 217L1285 294M1353 186L1389 191M1353 186L1382 257M1389 191L1467 232M1389 191L1382 257M1467 232L1526 181M1467 232L1382 257M1467 232L1453 277M1526 181L1619 201M1619 201L1714 182M1619 201L1672 245M1714 182L1672 245M1714 182L1712 263M1836 230L1852 179M1836 230L1828 253M1852 179L1828 253M1996 206L2024 181M1996 206L1961 248M2024 181L2110 178M2024 181L1961 248M2110 178L2098 286M2110 178L2176 252M2237 169L2284 234M2237 169L2176 252M2237 169L2296 247M2284 234L2345 193M2284 234L2176 252M2284 234L2296 247M2284 234L2325 286M2345 193L2296 247M2345 193L2325 286M2450 222L2508 220M2450 222L2404 316M2450 222L2553 283M2508 220L2561 300M2508 220L2553 283M2508 220L2543 328M-52 220L1 300M1 300L-7 283M1 300L77 373M1 300L127 346M1 300L-17 328M2561 300L2553 283M2561 300L2543 328M125 267L230 262M125 267L77 373M125 267L127 346M230 262L276 242M230 262L294 326M276 242L356 278M276 242L294 326M356 278L443 305M356 278L294 326M443 305L487 267M443 305L330 366M443 305L429 363M443 305L486 380M487 267L429 363M625 268L660 319M625 268L579 385M660 319L579 385M660 319L718 376M660 319L688 401M797 256L866 312M866 312L917 311M866 312L867 388M917 311L933 379M917 311L967 390M1011 256L1082 248M1082 248L1144 240M1144 240L1217 302M1217 302L1285 294M1217 302L1171 335M1285 294L1279 374M1285 294L1303 349M1382 257L1453 277M1382 257L1395 324M1453 277L1568 299M1453 277L1395 324M1453 277L1556 332M1568 299L1556 332M1568 299L1601 370M1672 245L1712 263M1712 263L1828 253M1712 263L1698 357M1712 263L1782 358M1828 253L1920 312M1920 312L1961 248M1920 312L1840 380M1920 312L1972 355M1961 248L2030 319M2030 319L2098 286M2030 319L1972 355M2030 319L2069 376M2098 286L2176 252M2098 286L2069 376M2176 252L2296 247M2296 247L2325 286M2325 286L2404 316M2325 286L2314 369M2404 316L2322 398M2404 316L2404 355M2553 283L2543 328M77 373L127 346M77 373L-17 328M77 373L27 448M2637 373L2543 328M127 346L233 393M233 393L294 326M233 393L330 366M233 393L207 457M233 393L250 462M294 326L330 366M330 366L429 363M330 366L349 439M429 363L486 380M486 380L579 385M486 380L452 478M486 380L498 457M579 385L498 457M579 385L624 436M718 376L749 398M718 376L688 401M718 376L798 425M718 376L803 439M749 398L688 401M749 398L798 425M749 398L803 439M867 388L933 379M867 388L798 425M867 388L803 439M867 388L907 455M933 379L967 390M933 379L907 455M933 379L973 457M967 390L1047 372M967 390L907 455M967 390L973 457M1047 372L1095 453M1047 372L1135 402M1171 335L1135 402M1279 374L1303 349M1279 374L1259 442M1303 349L1395 324M1303 349L1259 442M1303 349L1351 446M1513 395L1556 332M1513 395L1601 370M1513 395L1415 439M1513 395L1547 471M1513 395L1605 401M1556 332L1601 370M1556 332L1605 401M1601 370L1698 357M1601 370L1605 401M1698 357L1782 358M1698 357L1605 401M1698 357L1704 432M1782 358L1840 380M1782 358L1814 408M1840 380L1814 408M1840 380L1859 439M1972 355L1959 452M1972 355L2044 418M2069 376L2159 390M2069 376L2044 418M2069 376L2094 411M2159 390L2199 398M2159 390L2094 411M2159 390L2204 431M2159 390L2158 491M2199 398L2204 431M2199 398L2158 491M2314 369L2322 398M2314 369L2404 355M2314 369L2309 452M2314 369L2360 429M2322 398L2404 355M2322 398L2309 452M2322 398L2360 429M2404 355L2360 429M27 448L-31 466M27 448L54 541M2587 448L2529 466M137 479L207 457M137 479L139 494M137 479L181 505M207 457L250 462M207 457L139 494M207 457L181 505M250 462L349 439M250 462L181 505M250 462L273 533M349 439L394 530M452 478L498 457M452 478L394 530M452 478L467 532M452 478L520 555M498 457L467 532M498 457L520 555M624 436L688 401M798 425L803 439M907 455L973 457M907 455L903 527M973 457L903 527M973 457L998 505M1095 453L1135 402M1095 453L998 505M1095 453L1101 503M1095 453L1146 497M1135 402L1101 503M1135 402L1146 497M1259 442L1351 446M1259 442L1250 544M1351 446L1415 439M1351 446L1442 479M1351 446L1349 524M1415 439L1442 479M1415 439L1437 501M1442 479L1349 524M1442 479L1437 501M1442 479L1501 496M1547 471L1605 401M1547 471L1501 496M1547 471L1584 530M1704 432L1814 408M1704 432L1677 487M1704 432L1751 508M1814 408L1859 439M1859 439L1959 452M1859 439L1909 522M1859 439L1926 496M1959 452L2044 418M1959 452L1909 522M1959 452L1926 496M2044 418L2094 411M2044 418L2056 480M2094 411L2056 480M2204 431L2309 452M2204 431L2158 491M2309 452L2360 429M2467 472L2529 466M2467 472L2395 541M2467 472L2467 526M2467 472L2517 512M2467 472L2425 566M2529 466L2467 526M2529 466L2517 512M54 541L139 494M54 541L17 573M54 541L123 594M54 541L-16 562M2614 541L2544 562M139 494L181 505M139 494L160 581M181 505L160 581M273 533L262 587M273 533L328 595M394 530L467 532M394 530L328 595M394 530L422 595M467 532L520 555M467 532L422 595M520 555L610 542M520 555L524 624M610 542L718 523M610 542L614 620M610 542L618 640M718 523L791 539M718 523L707 603M718 523L754 569M791 539L863 538M791 539L754 569M791 539L813 625M863 538L903 527M863 538L890 605M903 527L998 505M903 527L890 605M998 505L1101 503M1101 503L1146 497M1146 497L1250 544M1146 497L1168 599M1250 544L1349 524M1250 544L1168 599M1250 544L1234 631M1349 524L1437 501M1349 524L1357 562M1437 501L1501 496M1437 501L1357 562M1501 496L1584 530M1584 530L1677 487M1584 530L1611 588M1677 487L1751 508M1751 508L1793 559M1751 508L1706 592M1751 508L1776 618M1793 559L1706 592M1793 559L1776 618M1793 559L1893 603M1909 522L1926 496M1909 522L1893 603M1909 522L1986 562M1926 496L1986 562M2056 480L2158 491M2056 480L2029 561M2158 491L2185 550M2185 550L2245 556M2185 550L2197 603M2185 550L2226 646M2245 556L2197 603M2245 556L2283 576M2245 556L2226 646M2245 556L2300 641M2395 541L2467 526M2395 541L2369 594M2395 541L2425 566M2467 526L2517 512M2467 526L2425 566M2517 512L2577 573M2517 512L2544 562M-43 512L17 573M17 573L123 594M17 573L-16 562M2577 573L2544 562M123 594L160 581M123 594L148 669M123 594L170 653M160 581L148 669M160 581L170 653M262 587L328 595M262 587L325 641M328 595L314 679M328 595L325 641M422 595L524 624M422 595L325 641M524 624L614 620M524 624L492 696M524 624L618 640M614 620L618 640M614 620L662 657M707 603L754 569M707 603L618 640M707 603L662 657M707 603L756 642M754 569L813 625M754 569L756 642M813 625L890 605M813 625L756 642M813 625L851 712M1038 629L1113 613M1038 629L1021 703M1038 629L1102 676M1038 629L1124 720M1113 613L1168 599M1113 613L1102 676M1113 613L1124 720M1168 599L1234 631M1234 631L1261 694M1234 631L1336 662M1357 562L1413 628M1413 628L1507 608M1413 628L1336 662M1413 628L1440 667M1507 608L1537 622M1507 608L1440 667M1507 608L1516 667M1537 622L1611 588M1537 622L1516 667M1537 622L1555 685M1611 588L1706 592M1706 592L1776 618M1706 592L1702 658M1776 618L1702 658M1776 618L1787 688M1893 603L1986 562M1893 603L1888 654M1893 603L1936 666M1986 562L2029 561M1986 562L1936 666M2029 561L2110 625M2029 561L2083 654M2110 625L2197 603M2110 625L2052 698M2110 625L2083 654M2197 603L2283 576M2197 603L2226 646M2283 576L2369 594M2283 576L2226 646M2283 576L2300 641M2369 594L2425 566M2369 594L2300 641M2369 594L2347 685M47 687L148 669M47 687L-32 699M47 687L62 790M2607 687L2528 699M148 669L170 653M148 669L218 750M170 653L218 750M314 679L325 641M314 679L414 690M314 679L245 766M325 641L414 690M414 690L492 696M414 690L393 791M492 696L447 783M492 696L527 735M618 640L662 657M662 657L756 642M851 712L930 713M851 712L861 769M851 712L910 785M851 712L894 804M930 713L1021 703M930 713L861 769M930 713L910 785M930 713L982 734M1021 703L982 734M1021 703L1061 724M1102 676L1146 717M1102 676L1061 724M1102 676L1124 720M1146 717L1261 694M1146 717L1061 724M1146 717L1124 720M1146 717L1246 770M1261 694L1336 662M1261 694L1246 770M1261 694L1324 761M1336 662L1385 759M1440 667L1516 667M1440 667L1385 759M1440 667L1495 728M1516 667L1555 685M1516 667L1495 728M1555 685L1606 703M1555 685L1495 728M1555 685L1574 746M1606 703L1702 658M1606 703L1495 728M1606 703L1574 746M1606 703L1610 779M1702 658L1787 688M1702 658L1758 730M1787 688L1888 654M1787 688L1758 730M1787 688L1791 764M1888 654L1936 666M1888 654L1866 766M1936 666L2052 698M1936 666L1974 728M2052 698L2083 654M2052 698L1974 728M2052 698L2067 729M2083 654L2067 729M2226 646L2300 641M2300 641L2347 685M2347 685L2453 718M2347 685L2339 782M2347 685L2434 750M2453 718L2528 699M2453 718L2434 750M2453 718L2404 818M2528 699L2535 792M62 790L112 776M62 790L-25 792M62 790L55 823M62 790L98 853M2622 790L2535 792M112 776L55 823M112 776L98 853M112 776L173 823M218 750L245 766M218 750L173 823M218 750L286 845M245 766L173 823M245 766L286 845M393 791L447 783M393 791L328 852M393 791L408 852M393 791L488 804M447 783L527 735M447 783L408 852M447 783L488 804M527 735L593 755M527 735L488 804M527 735L564 815M593 755L661 796M593 755L564 815M661 796L696 842M661 796L748 808M661 796L642 896M769 789L696 842M769 789L748 808M769 789L823 803M769 789L764 888M861 769L910 785M861 769L823 803M861 769L894 804M910 785L982 734M910 785L894 804M982 734L1061 724M1061 724L1124 720M1246 770L1324 761M1246 770L1248 841M1324 761L1385 759M1324 761L1349 850M1324 761L1362 835M1385 759L1349 850M1385 759L1362 835M1574 746L1610 779M1574 746L1561 818M1574 746L1601 819M1610 779L1561 818M1610 779L1601 819M1610 779L1703 832M1758 730L1791 764M1758 730L1866 766M1758 730L1805 819M1791 764L1866 766M1791 764L1805 819M1866 766L1805 819M1866 766L1916 808M1974 728L2067 729M1974 728L1983 831M1974 728L2023 805M2067 729L2121 799M2067 729L2023 805M2121 799L2206 765M2121 799L2023 805M2121 799L2102 838M2121 799L2230 835M2206 765L2264 797M2206 765L2230 835M2264 797L2339 782M2264 797L2230 835M2264 797L2299 849M2264 797L2354 823M2339 782L2299 849M2339 782L2354 823M2339 782L2404 818M2434 750L2535 792M2434 750L2404 818M2535 792L2615 823M2535 792L2536 870M-25 792L55 823M55 823L98 853M55 823L37 909M98 853L173 823M98 853L37 909M173 823L175 925M286 845L328 852M286 845L285 913M286 845L350 912M328 852L408 852M328 852L285 913M328 852L350 912M408 852L350 912M488 804L564 815M488 804L514 900M564 815L642 896M696 842L748 808M696 842L642 896M696 842L764 888M748 808L823 803M748 808L764 888M823 803L894 804M823 803L829 894M894 804L829 894M1036 845L1062 851M1036 845L1123 871M1036 845L972 918M1036 845L1112 888M1062 851L1123 871M1062 851L972 918M1062 851L1112 888M1123 871L1112 888M1123 871L1138 948M1248 841L1258 949M1248 841L1305 927M1349 850L1362 835M1349 850L1447 872M1349 850L1305 927M1362 835L1447 872M1362 835L1448 917M1447 872L1399 940M1447 872L1448 917M1447 872L1533 897M1561 818L1601 819M1561 818L1533 897M1601 819L1703 832M1703 832L1805 819M1703 832L1730 936M1805 819L1801 909M1916 808L1983 831M1983 831L2023 805M1983 831L2102 838M1983 831L2023 912M2023 805L2102 838M2102 838L2023 912M2102 838L2148 939M2230 835L2299 849M2230 835L2213 915M2299 849L2354 823M2299 849L2344 884M2354 823L2404 818M2354 823L2344 884M2536 870L2597 909M2536 870L2528 960M-24 870L37 909M37 909L-32 960M2597 909L2528 960M158 940L175 925M158 940L79 1009M158 940L109 979M158 940L201 1002M175 925L285 913M175 925L109 979M175 925L201 1002M285 913L350 912M466 952L514 900M466 952L441 967M466 952L496 970M514 900L575 947M514 900L441 967M514 900L496 970M575 947L642 896M575 947L496 970M575 947L586 1022M575 947L645 976M642 896L645 976M764 888L829 894M829 894L899 957M899 957L972 918M899 957L898 1027M899 957L1003 985M899 957L954 1046M972 918L1003 985M1112 888L1138 948M1138 948L1102 1011M1138 948L1187 1014M1138 948L1214 1003M1258 949L1305 927M1258 949L1187 1014M1258 949L1214 1003M1258 949L1297 979M1305 927L1399 940M1305 927L1297 979M1399 940L1448 917M1399 940L1365 1029M1399 940L1451 978M1448 917L1533 897M1448 917L1451 978M1533 897L1602 949M1533 897L1586 980M1602 949L1730 936M1602 949L1586 980M1602 949L1665 994M1730 936L1801 909M1730 936L1665 994M1730 936L1725 999M1801 909L1888 949M1888 949L1944 945M1888 949L1907 992M1888 949L1925 1053M1944 945L2023 912M1944 945L1907 992M1944 945L2011 985M2023 912L2011 985M2148 939L2213 915M2148 939L2097 1026M2148 939L2174 973M2213 915L2305 945M2213 915L2174 973M2213 915L2301 982M2305 945L2344 884M2305 945L2412 939M2305 945L2301 982M2305 945L2340 973M2344 884L2412 939M2344 884L2340 973M2412 939L2340 973M2412 939L2435 1014M2528 960L2518 1002M79 1009L109 979M79 1009L11 1062M79 1009L117 1061M109 979L201 1002M109 979L117 1061M201 1002L296 1033M201 1002L204 1100M296 1033L380 1030M296 1033L204 1100M296 1033L319 1052M296 1033L352 1045M380 1030L441 967M380 1030L319 1052M380 1030L352 1045M380 1030L472 1072M441 967L496 970M441 967L490 1058M496 970L490 1058M586 1022L645 976M586 1022L490 1058M586 1022L567 1057M586 1022L643 1063M645 976L725 1032M645 976L643 1063M725 1032L809 1018M725 1032L643 1063M725 1032L770 1089M725 1032L828 1061M809 1018L898 1027M809 1018L770 1089M809 1018L828 1061M898 1027L828 1061M898 1027L954 1046M898 1027L982 1057M1003 985L1102 1011M1003 985L954 1046M1003 985L982 1057M1102 1011L1187 1014M1102 1011L1119 1085M1102 1011L1137 1099M1187 1014L1214 1003M1187 1014L1209 1099M1214 1003L1297 979M1214 1003L1209 1099M1297 979L1365 1029M1365 1029L1451 978M1365 1029L1300 1116M1365 1029L1371 1098M1451 978L1506 1057M1451 978L1526 1049M1586 980L1665 994M1586 980L1526 1049M1586 980L1605 1063M1665 994L1725 999M1665 994L1605 1063M1725 999L1811 1031M1725 999L1735 1082M1811 1031L1735 1082M1811 1031L1813 1086M1811 1031L1893 1056M1907 992L1990 1035M1907 992L1893 1056M1907 992L1925 1053M1990 1035L2011 985M1990 1035L1925 1053M1990 1035L2044 1062M1990 1035L2085 1044M2011 985L2044 1062M2011 985L2085 1044M2097 1026L2174 973M2097 1026L2044 1062M2097 1026L2085 1044M2174 973L2085 1044M2301 982L2340 973M2301 982L2238 1076M2301 982L2255 1059M2340 973L2435 1014M2435 1014L2518 1002M2435 1014L2378 1110M2435 1014L2456 1059M2518 1002L2571 1062M2518 1002L2456 1059M2518 1002L2546 1083M-42 1002L11 1062M11 1062L117 1061M11 1062L-14 1083M2571 1062L2546 1083M117 1061L204 1100M117 1061L107 1147M204 1100L107 1147M204 1100L181 1151M319 1052L352 1045M319 1052L353 1165M352 1045L472 1072M352 1045L353 1165M472 1072L490 1058M472 1072L567 1057M472 1072L467 1172M490 1058L567 1057M567 1057L643 1063M770 1089L828 1061M770 1089L714 1164M770 1089L733 1159M828 1061L852 1142M954 1046L982 1057M954 1046L997 1151M982 1057L997 1151M1119 1085L1137 1099M1119 1085L1209 1099M1119 1085L1042 1155M1119 1085L1152 1171M1137 1099L1209 1099M1137 1099L1042 1155M1137 1099L1152 1171M1209 1099L1270 1158M1300 1116L1371 1098M1300 1116L1270 1158M1300 1116L1307 1146M1300 1116L1386 1168M1371 1098L1270 1158M1371 1098L1307 1146M1371 1098L1386 1168M1506 1057L1526 1049M1506 1057L1605 1063M1506 1057L1515 1141M1526 1049L1605 1063M1526 1049L1515 1141M1605 1063L1599 1139M1735 1082L1813 1086M1735 1082L1685 1198M1813 1086L1893 1056M1813 1086L1836 1155M1813 1086L1842 1140M1893 1056L1925 1053M1893 1056L1842 1140M1925 1053L1937 1156M2044 1062L2085 1044M2238 1076L2255 1059M2238 1076L2216 1178M2238 1076L2242 1134M2255 1059L2242 1134M2378 1110L2456 1059M2378 1110L2351 1153M2456 1059L2546 1083M2456 1059L2495 1150M2546 1083L2604 1174M2546 1083L2495 1150M-14 1083L44 1174M44 1174L107 1147M44 1174L-65 1150M44 1174L28 1218M44 1174L139 1217M2604 1174L2495 1150M107 1147L181 1151M107 1147L139 1217M181 1151L139 1217M181 1151L215 1229M181 1151L241 1215M282 1178L353 1165M282 1178L215 1229M282 1178L241 1215M282 1178L344 1251M353 1165L344 1251M353 1165L411 1236M467 1172L519 1187M467 1172L411 1236M467 1172L539 1215M519 1187L616 1179M519 1187L539 1215M519 1187L602 1216M616 1179L714 1164M616 1179L539 1215M616 1179L602 1216M714 1164L733 1159M714 1164L704 1269M714 1164L728 1214M733 1159L852 1142M733 1159L728 1214M733 1159L838 1204M852 1142L927 1196M852 1142L838 1204M927 1196L997 1151M927 1196L838 1204M927 1196L888 1256M927 1196L1007 1226M997 1151L1042 1155M997 1151L1007 1226M1042 1155L1007 1226M1152 1171L1113 1246M1152 1171L1169 1236M1270 1158L1307 1146M1270 1158L1218 1252M1307 1146L1386 1168M1307 1146L1376 1222M1386 1168L1348 1251M1386 1168L1376 1222M1515 1141L1599 1139M1515 1141L1497 1261M1599 1139L1653 1175M1599 1139L1685 1198M1599 1139L1634 1201M1653 1175L1685 1198M1653 1175L1634 1201M1685 1198L1634 1201M1685 1198L1756 1269M1836 1155L1842 1140M1836 1155L1937 1156M1842 1140L1937 1156M1842 1140L1916 1226M1937 1156L1916 1226M2054 1191L1990 1249M2054 1191L2063 1210M2054 1191L2097 1221M2155 1150L2216 1178M2155 1150L2242 1134M2155 1150L2063 1210M2155 1150L2097 1221M2155 1150L2230 1212M2216 1178L2242 1134M2216 1178L2230 1212M2216 1178L2250 1218M2242 1134L2230 1212M2351 1153L2421 1196M2351 1153L2344 1229M2421 1196L2495 1150M2421 1196L2344 1229M2421 1196L2404 1262M2495 1150L2516 1253M28 1218L-44 1253M28 1218L57 1329M28 1218L-39 1310M2588 1218L2516 1253M2588 1218L2521 1310M139 1217L215 1229M139 1217L136 1296M215 1229L241 1215M215 1229L136 1296M344 1251L411 1236M344 1251L310 1315M344 1251L323 1306M539 1215L602 1216M602 1216L605 1317M704 1269L728 1214M704 1269L661 1300M704 1269L725 1298M728 1214L725 1298M728 1214L811 1286M838 1204L888 1256M838 1204L811 1286M888 1256L811 1286M888 1256L941 1354M888 1256L974 1300M1007 1226L1113 1246M1007 1226L974 1300M1113 1246L1169 1236M1113 1246L1108 1338M1113 1246L1178 1310M1169 1236L1218 1252M1169 1236L1178 1310M1218 1252L1178 1310M1218 1252L1278 1296M1218 1252L1280 1335M1348 1251L1376 1222M1348 1251L1278 1296M1348 1251L1280 1335M1348 1251L1386 1283M1376 1222L1386 1283M1497 1261L1541 1279M1497 1261L1386 1283M1497 1261L1492 1301M1541 1279L1492 1301M1541 1279L1595 1359M1541 1279L1645 1333M1756 1269L1816 1279M1756 1269L1696 1344M1756 1269L1780 1350M1756 1269L1752 1378M1816 1279L1780 1350M1816 1279L1858 1291M1916 1226L1990 1249M1916 1226L1858 1291M1916 1226L1938 1303M1990 1249L2063 1210M1990 1249L2097 1221M1990 1249L1938 1303M2063 1210L2097 1221M2097 1221L2087 1315M2230 1212L2250 1218M2250 1218L2311 1280M2344 1229L2404 1262M2344 1229L2311 1280M2344 1229L2376 1283M2404 1262L2311 1280M2404 1262L2376 1283M2404 1262L2408 1296M2516 1253L2521 1310M57 1329L136 1296M57 1329L-39 1310M57 1329L7 1414M57 1329L95 1437M2617 1329L2521 1310M239 1360L310 1315M239 1360L238 1398M239 1360L309 1383M310 1315L323 1306M310 1315L309 1383M310 1315L363 1371M323 1306L431 1354M323 1306L363 1371M431 1354L520 1334M431 1354L363 1371M431 1354L460 1400M431 1354L507 1434M520 1334L605 1317M520 1334L460 1400M520 1334L507 1434M520 1334L620 1363M605 1317L661 1300M605 1317L620 1363M605 1317L644 1362M661 1300L725 1298M661 1300L620 1363M661 1300L644 1362M725 1298L811 1286M725 1298L749 1378M811 1286L846 1390M941 1354L974 1300M941 1354L846 1390M941 1354L914 1372M941 1354L1017 1362M974 1300L914 1372M974 1300L1017 1362M1108 1338L1178 1310M1108 1338L1017 1362M1108 1338L1079 1411M1108 1338L1122 1406M1178 1310L1225 1392M1278 1296L1280 1335M1278 1296L1386 1283M1280 1335L1225 1392M1280 1335L1313 1434M1386 1283L1492 1301M1595 1359L1645 1333M1595 1359L1522 1393M1595 1359L1627 1410M1645 1333L1696 1344M1645 1333L1627 1410M1696 1344L1780 1350M1696 1344L1627 1410M1696 1344L1752 1378M1780 1350L1752 1378M1780 1350L1832 1370M1858 1291L1938 1303M1858 1291L1901 1365M1938 1303L2034 1329M1938 1303L1901 1365M2034 1329L2087 1315M2034 1329L2028 1374M2034 1329L2114 1387M2087 1315L2173 1338M2087 1315L2028 1374M2087 1315L2114 1387M2173 1338L2114 1387M2173 1338L2204 1404M2173 1338L2242 1378M2311 1280L2376 1283M2311 1280L2408 1296M2376 1283L2408 1296M2376 1283L2382 1382M2408 1296L2382 1382M2408 1296L2427 1409M2521 1310L2567 1414M2521 1310L2508 1424M-39 1310L7 1414M7 1414L95 1437M7 1414L-52 1424M2567 1414L2508 1424M238 1398L309 1383M309 1383L363 1371M363 1371L460 1400M460 1400L507 1434M620 1363L644 1362M644 1362L749 1378M749 1378L846 1390M846 1390L914 1372M914 1372L1017 1362M1017 1362L1079 1411M1079 1411L1122 1406M1225 1392L1313 1434M1431 1416L1503 1434M1431 1416L1522 1393M1503 1434L1522 1393M1752 1378L1832 1370M1832 1370L1901 1365M1901 1365L1974 1420M1974 1420L2028 1374M2028 1374L2114 1387M2114 1387L2204 1404M2204 1404L2242 1378M2382 1382L2427 1409M2382 1382L2508 1424M2427 1409L2508 1424"/></svg>