<svg xmlns="http://www.w3.org/2000/svg" width="2560" height="1440" fill="#fff"><circle cx="71" cy="57" r="5"/><circle cx="149" cy="61" r="6"/><circle cx="227" cy="24" r="6"/><circle cx="294" cy="74" r="5"/><circle cx="394" cy="8" r="5"/><circle cx="425" cy="27" r="5"/><circle cx="553" cy="20" r="5"/><circle cx="616" cy="13" r="5"/><circle cx="645" cy="11" r="5"/><circle cx="767" cy="57" r="5"/><circle cx="852" cy="15" r="5"/><circle cx="883" cy="32" r="5"/><circle cx="1002" cy="66" r="6"/><circle cx="1052" cy="27" r="6"/><circle cx="1197" cy="51" r="6"/><circle cx="1225" cy="72" r="4"/><circle cx="1286" cy="38" r="5"/><circle cx="1411" cy="11" r="5"/><circle cx="1505" cy="13" r="6"/><circle cx="1579" cy="32" r="4"/><circle cx="1614" cy="79" r="5"/><circle cx="1699" cy="49" r="5"/><circle cx="1791" cy="25" r="4"/><circle cx="1895" cy="32" r="6"/><circle cx="1934" cy="74" r="5"/><circle cx="2003" cy="20" r="5"/><circle cx="2149" cy="70" r="5"/><circle cx="2211" cy="62" r="6"/><circle cx="2263" cy="62" r="4"/><circle cx="2350" cy="28" r="5"/><circle cx="2439" cy="10" r="5"/><circle cx="2505" cy="48" r="5"/><circle cx="42" cy="133" r="5"/><circle cx="95" cy="87" r="4"/><circle cx="162" cy="134" r="4"/><circle cx="260" cy="133" r="5"/><circle cx="357" cy="153" r="6"/><circle cx="437" cy="126" r="4"/><circle cx="516" cy="132" r="6"/><circle cx="632" cy="120" r="5"/><circle cx="695" cy="114" r="5"/><circle cx="785" cy="135" r="4"/><circle cx="825" cy="133" r="5"/><circle cx="940" cy="141" r="5"/><circle cx="997" cy="99" r="5"/><circle cx="1079" cy="92" r="4"/><circle cx="1192" cy="91" r="6"/><circle cx="1270" cy="103" r="4"/><circle cx="1338" cy="80" r="4"/><circle cx="1418" cy="118" r="5"/><circle cx="1473" cy="91" r="5"/><circle cx="1550" cy="141" r="5"/><circle cx="1642" cy="131" r="5"/><circle cx="1716" cy="97" r="5"/><circle cx="1798" cy="94" r="5"/><circle cx="1901" cy="148" r="5"/><circle cx="1964" cy="144" r="6"/><circle cx="2023" cy="139" r="5"/><circle cx="2138" cy="114" r="5"/><circle cx="2200" cy="123" r="4"/><circle cx="2247" cy="143" r="6"/><circle cx="2343" cy="159" r="5"/><circle cx="2474" cy="120" r="5"/><circle cx="2497" cy="132" r="5"/><circle cx="34" cy="213" r="4"/><circle cx="158" cy="229" r="5"/><circle cx="238" cy="178" r="4"/><circle cx="314" cy="228" r="5"/><circle cx="399" cy="228" r="5"/><circle cx="471" cy="240" r="6"/><circle cx="541" cy="205" r="6"/><circle cx="590" cy="162" r="5"/><circle cx="649" cy="235" r="4"/><circle cx="746" cy="214" r="6"/><circle cx="818" cy="210" r="4"/><circle cx="900" cy="209" r="4"/><circle cx="1021" cy="177" r="6"/><circle cx="1055" cy="176" r="5"/><circle cx="1177" cy="214" r="4"/><circle cx="1211" cy="179" r="5"/><circle cx="1348" cy="208" r="5"/><circle cx="1419" cy="182" r="4"/><circle cx="1478" cy="210" r="5"/><circle cx="1569" cy="213" r="6"/><circle cx="1620" cy="167" r="5"/><circle cx="1743" cy="199" r="5"/><circle cx="1814" cy="206" r="5"/><circle cx="1875" cy="207" r="5"/><circle cx="1942" cy="177" r="6"/><circle cx="2058" cy="181" r="5"/><circle cx="2107" cy="231" r="6"/><circle cx="2227" cy="169" r="5"/><circle cx="2293" cy="192" r="6"/><circle cx="2383" cy="214" r="5"/><circle cx="2422" cy="218" r="5"/><circle cx="2515" cy="217" r="4"/><circle cx="50" cy="248" r="5"/><circle cx="115" cy="247" r="5"/><circle cx="214" cy="311" r="6"/><circle cx="297" cy="296" r="4"/><circle cx="336" cy="241" r="4"/><circle cx="414" cy="267" r="5"/><circle cx="526" cy="269" r="6"/><circle cx="590" cy="267" r="6"/><circle cx="646" cy="315" r="4"/><circle cx="742" cy="319" r="5"/><circle cx="814" cy="245" r="6"/><circle cx="904" cy="248" r="6"/><circle cx="961" cy="295" r="5"/><circle cx="1116" cy="308" r="6"/><circle cx="1186" cy="279" r="5"/><circle cx="1212" cy="280" r="4"/><circle cx="1300" cy="266" r="6"/><circle cx="1395" cy="253" r="5"/><circle cx="1509" cy="297" r="4"/><circle cx="1556" cy="312" r="5"/><circle cx="1665" cy="274" r="4"/><circle cx="1732" cy="252" r="6"/><circle cx="1792" cy="281" r="5"/><circle cx="1898" cy="268" r="5"/><circle cx="1944" cy="293" r="5"/><circle cx="2043" cy="319" r="6"/><circle cx="2139" cy="266" r="5"/><circle cx="2169" cy="263" r="6"/><circle cx="2250" cy="271" r="6"/><circle cx="2350" cy="294" r="4"/><circle cx="2432" cy="277" r="6"/><circle cx="2498" cy="259" r="6"/><circle cx="46" cy="399" r="6"/><circle cx="148" cy="326" r="5"/><circle cx="184" cy="366" r="5"/><circle cx="318" cy="388" r="5"/><circle cx="358" cy="340" r="6"/><circle cx="473" cy="347" r="5"/><circle cx="529" cy="378" r="4"/><circle cx="573" cy="378" r="5"/><circle cx="693" cy="357" r="6"/><circle cx="757" cy="394" r="6"/><circle cx="807" cy="368" r="6"/><circle cx="936" cy="392" r="5"/><circle cx="980" cy="327" r="5"/><circle cx="1055" cy="349" r="4"/><circle cx="1122" cy="365" r="5"/><circle cx="1259" cy="347" r="5"/><circle cx="1351" cy="367" r="5"/><circle cx="1377" cy="394" r="6"/><circle cx="1502" cy="387" r="6"/><circle cx="1590" cy="324" r="5"/><circle cx="1652" cy="387" r="4"/><circle cx="1693" cy="378" r="6"/><circle cx="1833" cy="375" r="6"/><circle cx="1898" cy="337" r="5"/><circle cx="1934" cy="381" r="5"/><circle cx="2024" cy="345" r="5"/><circle cx="2126" cy="366" r="5"/><circle cx="2184" cy="348" r="5"/><circle cx="2245" cy="383" r="5"/><circle cx="2358" cy="359" r="5"/><circle cx="2429" cy="370" r="6"/><circle cx="2556" cy="385" r="5"/><circle cx="-4" cy="385" r="5"/><circle cx="32" cy="443" r="6"/><circle cx="105" cy="421" r="5"/><circle cx="198" cy="426" r="5"/><circle cx="314" cy="414" r="5"/><circle cx="364" cy="444" r="5"/><circle cx="401" cy="469" r="4"/><circle cx="534" cy="428" r="4"/><circle cx="569" cy="422" r="6"/><circle cx="720" cy="438" r="4"/><circle cx="731" cy="471" r="5"/><circle cx="817" cy="454" r="4"/><circle cx="921" cy="468" r="6"/><circle cx="1006" cy="401" r="5"/><circle cx="1089" cy="440" r="5"/><circle cx="1124" cy="432" r="5"/><circle cx="1247" cy="415" r="4"/><circle cx="1320" cy="419" r="5"/><circle cx="1404" cy="421" r="5"/><circle cx="1495" cy="479" r="5"/><circle cx="1538" cy="464" r="6"/><circle cx="1666" cy="449" r="5"/><circle cx="1719" cy="473" r="6"/><circle cx="1837" cy="470" r="5"/><circle cx="1849" cy="457" r="5"/><circle cx="1997" cy="459" r="5"/><circle cx="2072" cy="467" r="5"/><circle cx="2112" cy="445" r="5"/><circle cx="2199" cy="440" r="6"/><circle cx="2290" cy="445" r="5"/><circle cx="2358" cy="456" r="4"/><circle cx="2419" cy="460" r="6"/><circle cx="2533" cy="401" r="4"/><circle cx="35" cy="537" r="5"/><circle cx="156" cy="495" r="5"/><circle cx="191" cy="524" r="6"/><circle cx="307" cy="537" r="5"/><circle cx="338" cy="499" r="6"/><circle cx="445" cy="557" r="5"/><circle cx="526" cy="553" r="4"/><circle cx="616" cy="490" r="6"/><circle cx="656" cy="554" r="6"/><circle cx="728" cy="498" r="5"/><circle cx="880" cy="555" r="6"/><circle cx="935" cy="535" r="5"/><circle cx="1011" cy="546" r="5"/><circle cx="1058" cy="494" r="6"/><circle cx="1124" cy="524" r="4"/><circle cx="1210" cy="504" r="5"/><circle cx="1322" cy="487" r="4"/><circle cx="1411" cy="502" r="4"/><circle cx="1476" cy="524" r="5"/><circle cx="1555" cy="528" r="4"/><circle cx="1626" cy="538" r="5"/><circle cx="1750" cy="487" r="5"/><circle cx="1805" cy="527" r="6"/><circle cx="1889" cy="534" r="4"/><circle cx="1999" cy="556" r="6"/><circle cx="2067" cy="518" r="6"/><circle cx="2084" cy="540" r="4"/><circle cx="2212" cy="510" r="5"/><circle cx="2307" cy="535" r="5"/><circle cx="2355" cy="506" r="5"/><circle cx="2473" cy="501" r="5"/><circle cx="2534" cy="485" r="5"/><circle cx="68" cy="583" r="5"/><circle cx="91" cy="564" r="5"/><circle cx="162" cy="621" r="5"/><circle cx="284" cy="590" r="5"/><circle cx="320" cy="561" r="4"/><circle cx="478" cy="622" r="5"/><circle cx="534" cy="594" r="4"/><circle cx="596" cy="560" r="5"/><circle cx="663" cy="564" r="5"/><circle cx="769" cy="598" r="6"/><circle cx="841" cy="604" r="4"/><circle cx="925" cy="576" r="5"/><circle cx="972" cy="602" r="5"/><circle cx="1084" cy="600" r="5"/><circle cx="1122" cy="565" r="4"/><circle cx="1268" cy="640" r="6"/><circle cx="1331" cy="627" r="6"/><circle cx="1407" cy="634" r="5"/><circle cx="1478" cy="569" r="4"/><circle cx="1579" cy="623" r="5"/><circle cx="1651" cy="604" r="5"/><circle cx="1725" cy="621" r="5"/><circle cx="1836" cy="611" r="4"/><circle cx="1887" cy="602" r="5"/><circle cx="1929" cy="598" r="6"/><circle cx="2071" cy="626" r="5"/><circle cx="2153" cy="633" r="5"/><circle cx="2182" cy="612" r="5"/><circle cx="2313" cy="633" r="5"/><circle cx="2384" cy="583" r="5"/><circle cx="2421" cy="566" r="6"/><circle cx="2501" cy="634" r="5"/><circle cx="41" cy="673" r="5"/><circle cx="93" cy="711" r="5"/><circle cx="190" cy="672" r="4"/><circle cx="275" cy="681" r="5"/><circle cx="374" cy="670" r="4"/><circle cx="407" cy="719" r="4"/><circle cx="499" cy="671" r="5"/><circle cx="622" cy="651" r="5"/><circle cx="707" cy="716" r="6"/><circle cx="771" cy="718" r="5"/><circle cx="840" cy="680" r="5"/><circle cx="909" cy="640" r="5"/><circle cx="1027" cy="719" r="6"/><circle cx="1098" cy="709" r="6"/><circle cx="1137" cy="661" r="6"/><circle cx="1202" cy="673" r="6"/><circle cx="1294" cy="662" r="5"/><circle cx="1387" cy="697" r="5"/><circle cx="1451" cy="641" r="4"/><circle cx="1563" cy="701" r="5"/><circle cx="1631" cy="716" r="5"/><circle cx="1683" cy="695" r="4"/><circle cx="1784" cy="701" r="4"/><circle cx="1916" cy="679" r="4"/><circle cx="1940" cy="696" r="5"/><circle cx="2011" cy="718" r="5"/><circle cx="2087" cy="710" r="6"/><circle cx="2200" cy="716" r="6"/><circle cx="2249" cy="674" r="6"/><circle cx="2399" cy="683" r="6"/><circle cx="2417" cy="685" r="6"/><circle cx="2489" cy="655" r="5"/><circle cx="29" cy="792" r="4"/><circle cx="116" cy="756" r="6"/><circle cx="206" cy="760" r="5"/><circle cx="279" cy="760" r="5"/><circle cx="350" cy="779" r="5"/><circle cx="421" cy="730" r="5"/><circle cx="540" cy="789" r="6"/><circle cx="614" cy="761" r="5"/><circle cx="655" cy="793" r="6"/><circle cx="737" cy="786" r="6"/><circle cx="864" cy="766" r="5"/><circle cx="933" cy="800" r="5"/><circle cx="1033" cy="727" r="6"/><circle cx="1098" cy="756" r="6"/><circle cx="1121" cy="726" r="5"/><circle cx="1257" cy="784" r="5"/><circle cx="1289" cy="785" r="5"/><circle cx="1400" cy="749" r="4"/><circle cx="1450" cy="734" r="5"/><circle cx="1580" cy="722" r="6"/><circle cx="1649" cy="770" r="5"/><circle cx="1759" cy="790" r="6"/><circle cx="1779" cy="753" r="6"/><circle cx="1915" cy="738" r="6"/><circle cx="1939" cy="787" r="5"/><circle cx="2026" cy="771" r="6"/><circle cx="2149" cy="797" r="4"/><circle cx="2189" cy="744" r="6"/><circle cx="2268" cy="766" r="6"/><circle cx="2321" cy="728" r="4"/><circle cx="2471" cy="751" r="5"/><circle cx="2522" cy="763" r="5"/><circle cx="1" cy="859" r="6"/><circle cx="2561" cy="859" r="6"/><circle cx="136" cy="856" r="5"/><circle cx="176" cy="817" r="5"/><circle cx="284" cy="847" r="4"/><circle cx="322" cy="837" r="5"/><circle cx="443" cy="863" r="5"/><circle cx="506" cy="834" r="4"/><circle cx="629" cy="822" r="6"/><circle cx="652" cy="842" r="6"/><circle cx="744" cy="828" r="6"/><circle cx="852" cy="844" r="4"/><circle cx="887" cy="876" r="6"/><circle cx="967" cy="835" r="6"/><circle cx="1043" cy="849" r="4"/><circle cx="1158" cy="851" r="6"/><circle cx="1237" cy="875" r="5"/><circle cx="1357" cy="807" r="6"/><circle cx="1424" cy="846" r="4"/><circle cx="1442" cy="837" r="5"/><circle cx="1555" cy="848" r="5"/><circle cx="1612" cy="821" r="4"/><circle cx="1732" cy="832" r="6"/><circle cx="1797" cy="872" r="6"/><circle cx="1867" cy="845" r="5"/><circle cx="1947" cy="829" r="6"/><circle cx="2010" cy="875" r="5"/><circle cx="2085" cy="804" r="5"/><circle cx="2170" cy="809" r="5"/><circle cx="2251" cy="816" r="6"/><circle cx="2380" cy="806" r="4"/><circle cx="2447" cy="802" r="4"/><circle cx="2506" cy="803" r="5"/><circle cx="38" cy="927" r="5"/><circle cx="153" cy="883" r="5"/><circle cx="223" cy="935" r="5"/><circle cx="313" cy="941" r="4"/><circle cx="387" cy="931" r="5"/><circle cx="447" cy="926" r="5"/><circle cx="552" cy="898" r="5"/><circle cx="625" cy="954" r="4"/><circle cx="704" cy="899" r="5"/><circle cx="780" cy="884" r="5"/><circle cx="873" cy="904" r="5"/><circle cx="958" cy="916" r="6"/><circle cx="977" cy="915" r="6"/><circle cx="1119" cy="948" r="5"/><circle cx="1144" cy="926" r="5"/><circle cx="1208" cy="915" r="5"/><circle cx="1330" cy="949" r="6"/><circle cx="1380" cy="916" r="5"/><circle cx="1499" cy="911" r="6"/><circle cx="1593" cy="956" r="6"/><circle cx="1678" cy="888" r="4"/><circle cx="1723" cy="888" r="5"/><circle cx="1796" cy="893" r="5"/><circle cx="1853" cy="947" r="5"/><circle cx="1927" cy="901" r="5"/><circle cx="2039" cy="905" r="4"/><circle cx="2159" cy="881" r="4"/><circle cx="2239" cy="941" r="4"/><circle cx="2284" cy="888" r="4"/><circle cx="2393" cy="933" r="5"/><circle cx="2418" cy="896" r="5"/><circle cx="2514" cy="954" r="5"/><circle cx="51" cy="1035" r="5"/><circle cx="126" cy="1022" r="5"/><circle cx="240" cy="991" r="6"/><circle cx="293" cy="1011" r="5"/><circle cx="365" cy="960" r="5"/><circle cx="444" cy="1034" r="6"/><circle cx="517" cy="964" r="5"/><circle cx="632" cy="1038" r="6"/><circle cx="656" cy="1023" r="6"/><circle cx="755" cy="1033" r="5"/><circle cx="869" cy="970" r="6"/><circle cx="945" cy="1013" r="6"/><circle cx="1002" cy="969" r="4"/><circle cx="1046" cy="1021" r="5"/><circle cx="1195" cy="1027" r="5"/><circle cx="1280" cy="973" r="5"/><circle cx="1286" cy="1025" r="5"/><circle cx="1390" cy="989" r="5"/><circle cx="1474" cy="1039" r="6"/><circle cx="1558" cy="997" r="4"/><circle cx="1638" cy="992" r="6"/><circle cx="1685" cy="1026" r="4"/><circle cx="1813" cy="1037" r="5"/><circle cx="1901" cy="1016" r="5"/><circle cx="1948" cy="1008" r="4"/><circle cx="2059" cy="1037" r="5"/><circle cx="2129" cy="1003" r="5"/><circle cx="2166" cy="1018" r="4"/><circle cx="2319" cy="1015" r="6"/><circle cx="2324" cy="1005" r="4"/><circle cx="2448" cy="997" r="5"/><circle cx="2537" cy="985" r="4"/><circle cx="75" cy="1062" r="4"/><circle cx="120" cy="1108" r="5"/><circle cx="162" cy="1097" r="5"/><circle cx="298" cy="1092" r="6"/><circle cx="352" cy="1044" r="5"/><circle cx="407" cy="1080" r="5"/><circle cx="543" cy="1069" r="4"/><circle cx="588" cy="1073" r="6"/><circle cx="674" cy="1107" r="5"/><circle cx="795" cy="1050" r="5"/><circle cx="867" cy="1088" r="4"/><circle cx="939" cy="1060" r="5"/><circle cx="996" cy="1082" r="5"/><circle cx="1078" cy="1072" r="4"/><circle cx="1189" cy="1040" r="5"/><circle cx="1244" cy="1058" r="5"/><circle cx="1293" cy="1078" r="5"/><circle cx="1435" cy="1117" r="6"/><circle cx="1465" cy="1094" r="4"/><circle cx="1569" cy="1084" r="6"/><circle cx="1613" cy="1093" r="6"/><circle cx="1704" cy="1054" r="5"/><circle cx="1831" cy="1110" r="5"/><circle cx="1867" cy="1100" r="5"/><circle cx="1936" cy="1063" r="5"/><circle cx="2023" cy="1103" r="4"/><circle cx="2136" cy="1040" r="5"/><circle cx="2168" cy="1061" r="5"/><circle cx="2255" cy="1041" r="4"/><circle cx="2325" cy="1100" r="4"/><circle cx="2402" cy="1117" r="5"/><circle cx="2524" cy="1114" r="4"/><circle cx="0" cy="1127" r="5"/><circle cx="2560" cy="1127" r="5"/><circle cx="118" cy="1199" r="4"/><circle cx="210" cy="1187" r="5"/><circle cx="278" cy="1153" r="6"/><circle cx="345" cy="1166" r="5"/><circle cx="454" cy="1200" r="6"/><circle cx="543" cy="1131" r="5"/><circle cx="610" cy="1159" r="4"/><circle cx="656" cy="1176" r="6"/><circle cx="747" cy="1190" r="5"/><circle cx="847" cy="1126" r="4"/><circle cx="901" cy="1154" r="6"/><circle cx="1010" cy="1200" r="4"/><circle cx="1055" cy="1124" r="5"/><circle cx="1128" cy="1195" r="5"/><circle cx="1224" cy="1177" r="6"/><circle cx="1282" cy="1170" r="6"/><circle cx="1368" cy="1149" r="4"/><circle cx="1457" cy="1143" r="5"/><circle cx="1521" cy="1130" r="5"/><circle cx="1669" cy="1191" r="6"/><circle cx="1758" cy="1139" r="4"/><circle cx="1821" cy="1168" r="5"/><circle cx="1849" cy="1127" r="4"/><circle cx="1929" cy="1129" r="4"/><circle cx="2028" cy="1147" r="5"/><circle cx="2146" cy="1173" r="6"/><circle cx="2208" cy="1136" r="5"/><circle cx="2294" cy="1166" r="4"/><circle cx="2389" cy="1188" r="5"/><circle cx="2432" cy="1146" r="5"/><circle cx="2490" cy="1133" r="5"/><circle cx="16" cy="1202" r="6"/><circle cx="151" cy="1263" r="5"/><circle cx="196" cy="1201" r="5"/><circle cx="317" cy="1249" r="4"/><circle cx="395" cy="1264" r="5"/><circle cx="458" cy="1236" r="4"/><circle cx="531" cy="1206" r="5"/><circle cx="611" cy="1240" r="5"/><circle cx="650" cy="1213" r="6"/><circle cx="793" cy="1277" r="5"/><circle cx="820" cy="1244" r="5"/><circle cx="952" cy="1267" r="5"/><circle cx="1009" cy="1201" r="4"/><circle cx="1119" cy="1232" r="4"/><circle cx="1175" cy="1230" r="4"/><circle cx="1250" cy="1211" r="5"/><circle cx="1292" cy="1272" r="6"/><circle cx="1419" cy="1264" r="5"/><circle cx="1517" cy="1258" r="4"/><circle cx="1558" cy="1271" r="6"/><circle cx="1652" cy="1243" r="5"/><circle cx="1720" cy="1214" r="4"/><circle cx="1795" cy="1273" r="5"/><circle cx="1852" cy="1268" r="6"/><circle cx="1977" cy="1268" r="4"/><circle cx="2045" cy="1223" r="5"/><circle cx="2089" cy="1211" r="4"/><circle cx="2162" cy="1243" r="5"/><circle cx="2294" cy="1233" r="4"/><circle cx="2364" cy="1213" r="4"/><circle cx="2466" cy="1226" r="5"/><circle cx="2527" cy="1245" r="6"/><circle cx="65" cy="1305" r="5"/><circle cx="91" cy="1323" r="6"/><circle cx="174" cy="1315" r="5"/><circle cx="312" cy="1286" r="5"/><circle cx="357" cy="1356" r="5"/><circle cx="402" cy="1319" r="4"/><circle cx="549" cy="1281" r="5"/><circle cx="568" cy="1356" r="5"/><circle cx="655" cy="1333" r="5"/><circle cx="722" cy="1340" r="4"/><circle cx="839" cy="1348" r="6"/><circle cx="957" cy="1320" r="6"/><circle cx="960" cy="1296" r="4"/><circle cx="1119" cy="1318" r="5"/><circle cx="1125" cy="1326" r="4"/><circle cx="1211" cy="1334" r="6"/><circle cx="1286" cy="1314" r="6"/><circle cx="1399" cy="1320" r="4"/><circle cx="1496" cy="1324" r="5"/><circle cx="1563" cy="1295" r="5"/><circle cx="1646" cy="1319" r="5"/><circle cx="1712" cy="1301" r="5"/><circle cx="1768" cy="1346" r="4"/><circle cx="1914" cy="1294" r="5"/><circle cx="1944" cy="1312" r="4"/><circle cx="2066" cy="1285" r="5"/><circle cx="2105" cy="1334" r="5"/><circle cx="2239" cy="1348" r="6"/><circle cx="2265" cy="1292" r="5"/><circle cx="2380" cy="1331" r="4"/><circle cx="2478" cy="1352" r="5"/><circle cx="2488" cy="1327" r="5"/><circle cx="65" cy="1372" r="5"/><circle cx="97" cy="1431" r="5"/><circle cx="210" cy="1395" r="5"/><circle cx="297" cy="1420" r="4"/><circle cx="343" cy="1427" r="6"/><circle cx="427" cy="1420" r="5"/><circle cx="528" cy="1429" r="4"/><circle cx="584" cy="1383" r="5"/><circle cx="704" cy="1377" r="6"/><circle cx="732" cy="1430" r="6"/><circle cx="842" cy="1398" r="4"/><circle cx="888" cy="1393" r="6"/><circle cx="1026" cy="1430" r="5"/><circle cx="1111" cy="1432" r="6"/><circle cx="1193" cy="1369" r="4"/><circle cx="1275" cy="1436" r="4"/><circle cx="1275" cy="-4" r="4"/><circle cx="1341" cy="1419" r="5"/><circle cx="1373" cy="1433" r="5"/><circle cx="1470" cy="1410" r="6"/><circle cx="1585" cy="1376" r="6"/><circle cx="1615" cy="1434" r="6"/><circle cx="1731" cy="1431" r="5"/><circle cx="1836" cy="1386" r="5"/><circle cx="1904" cy="1381" r="5"/><circle cx="1957" cy="1430" r="5"/><circle cx="2023" cy="1369" r="5"/><circle cx="2147" cy="1440" r="6"/><circle cx="2147" cy="-0" r="6"/><circle cx="2184" cy="1393" r="4"/><circle cx="2273" cy="1412" r="6"/><circle cx="2351" cy="1410" r="4"/><circle cx="2409" cy="1402" r="5"/><circle cx="2507" cy="1420" r="6"/><path stroke="#fff" d="M71 57L149 61M71 57L-55 48M71 57L42 133M71 57L95 87M71 57L97 -9M2631 57L2505 48M71 1497L97 1431M149 61L227 24M149 61L95 87M149 61L162 134M149 61L97 -9M149 1501L97 1431M227 24L294 74M227 24L210 -45M227 24L297 -20M227 1464L210 1395M227 1464L297 1420M294 74L260 133M294 74L357 153M294 74L297 -20M294 1514L297 1420M394 8L425 27M394 8L357 -84M394 8L297 -20M394 8L343 -13M394 8L427 -20M394 1448L357 1356M394 1448L297 1420M394 1448L343 1427M394 1448L427 1420M425 27L437 126M425 27L343 -13M425 27L427 -20M425 1467L343 1427M425 1467L427 1420M553 20L616 13M553 20L645 11M553 20L568 -84M553 20L528 -11M553 20L584 -57M553 1460L568 1356M553 1460L528 1429M553 1460L584 1383M616 13L645 11M616 13L528 -11M616 13L584 -57M616 13L704 -63M616 1453L528 1429M616 1453L584 1383M616 1453L704 1377M645 11L704 -63M645 11L732 -10M645 1451L704 1377M645 1451L732 1430M767 57L852 15M767 57L695 114M767 57L785 135M767 57L825 133M767 57L732 -10M767 1497L732 1430M852 15L883 32M852 15L839 -92M852 15L842 -42M852 15L888 -47M852 1455L839 1348M852 1455L842 1398M852 1455L888 1393M883 32L842 -42M883 32L888 -47M883 1472L842 1398M883 1472L888 1393M1002 66L1052 27M1002 66L940 141M1002 66L997 99M1002 66L1079 92M1002 66L1026 -10M1002 1506L1026 1430M1052 27L997 99M1052 27L1079 92M1052 27L1026 -10M1052 27L1111 -8M1052 1467L1026 1430M1052 1467L1111 1432M1197 51L1225 72M1197 51L1192 91M1197 51L1270 103M1197 51L1111 -8M1197 1491L1111 1432M1225 72L1286 38M1225 72L1192 91M1225 72L1270 103M1225 72L1275 -4M1225 1512L1275 1436M1286 38L1270 103M1286 38L1338 80M1286 38L1275 -4M1286 38L1341 -21M1286 1478L1275 1436M1286 1478L1341 1419M1411 11L1505 13M1411 11L1473 91M1411 11L1341 -21M1411 11L1373 -7M1411 11L1470 -30M1411 1451L1341 1419M1411 1451L1373 1433M1411 1451L1470 1410M1505 13L1579 32M1505 13L1473 91M1505 13L1470 -30M1505 1453L1470 1410M1579 32L1614 79M1579 32L1585 -64M1579 32L1615 -6M1579 1472L1585 1376M1579 1472L1615 1434M1614 79L1699 49M1614 79L1642 131M1614 79L1620 167M1614 79L1615 -6M1614 1519L1615 1434M1699 49L1642 131M1699 49L1716 97M1699 49L1615 -6M1699 49L1731 -9M1699 1489L1615 1434M1699 1489L1731 1431M1791 25L1798 94M1791 25L1731 -9M1791 25L1836 -54M1791 1465L1731 1431M1791 1465L1836 1386M1895 32L1934 74M1895 32L2003 20M1895 32L1836 -54M1895 32L1904 -59M1895 32L1957 -10M1895 1472L1836 1386M1895 1472L1904 1381M1895 1472L1957 1430M1934 74L2003 20M1934 74L1901 148M1934 74L1964 144M1934 74L1957 -10M1934 1514L1957 1430M2003 20L1957 -10M2003 20L2023 -71M2003 1460L1957 1430M2003 1460L2023 1369M2149 70L2211 62M2149 70L2138 114M2149 70L2200 123M2149 70L2147 -0M2149 1510L2147 1440M2211 62L2263 62M2211 62L2200 123M2211 62L2247 143M2211 62L2147 -0M2211 1502L2147 1440M2263 62L2350 28M2263 62L2247 143M2263 62L2273 -28M2263 1502L2273 1412M2350 28L2439 10M2350 28L2273 -28M2350 28L2351 -30M2350 28L2409 -38M2350 1468L2273 1412M2350 1468L2351 1410M2350 1468L2409 1402M2439 10L2505 48M2439 10L2478 -88M2439 10L2409 -38M2439 10L2507 -20M2439 1450L2478 1352M2439 1450L2409 1402M2439 1450L2507 1420M2505 48L2474 120M2505 48L2497 132M2505 48L2507 -20M2505 1488L2507 1420M42 133L95 87M42 133L-63 132M42 133L34 213M42 133L50 248M2602 133L2497 132M95 87L162 134M95 87L97 -9M95 1527L97 1431M162 134L260 133M162 134L158 229M162 134L238 178M260 133L238 178M357 153L437 126M357 153L314 228M357 153L399 228M357 153L336 241M437 126L516 132M516 132L632 120M516 132L541 205M516 132L590 162M632 120L695 114M632 120L590 162M695 114L785 135M785 135L825 133M785 135L746 214M825 133L818 210M940 141L997 99M940 141L900 209M940 141L1021 177M997 99L1079 92M997 99L1021 177M1079 92L1055 176M1192 91L1270 103M1192 91L1211 179M1270 103L1338 80M1338 80L1418 118M1338 80L1373 -7M1338 1520L1373 1433M1418 118L1473 91M1418 118L1348 208M1418 118L1419 182M1473 91L1550 141M1473 91L1419 182M1550 141L1642 131M1550 141L1478 210M1550 141L1569 213M1550 141L1620 167M1642 131L1716 97M1642 131L1620 167M1716 97L1798 94M1716 97L1743 199M1716 97L1731 -9M1716 1537L1731 1431M1901 148L1964 144M1901 148L1875 207M1901 148L1942 177M1964 144L2023 139M1964 144L1942 177M1964 144L2058 181M2023 139L1942 177M2023 139L2058 181M2023 139L2107 231M2138 114L2200 123M2138 114L2058 181M2138 114L2147 -0M2138 1554L2147 1440M2200 123L2247 143M2200 123L2227 169M2247 143L2227 169M2247 143L2293 192M2343 159L2293 192M2343 159L2383 214M2343 159L2422 218M2474 120L2497 132M2497 132L2515 217M34 213L-45 217M34 213L50 248M34 213L115 247M34 213L-62 259M2594 213L2515 217M2594 213L2498 259M158 229L238 178M158 229L115 247M158 229L214 311M158 229L148 326M238 178L314 228M314 228L399 228M314 228L297 296M314 228L336 241M399 228L471 240M399 228L336 241M399 228L414 267M471 240L541 205M471 240L414 267M471 240L526 269M471 240L473 347M541 205L590 162M541 205L526 269M541 205L590 267M590 162L649 235M590 162L590 267M649 235L746 214M649 235L590 267M649 235L646 315M746 214L818 210M746 214L742 319M746 214L814 245M818 210L900 209M818 210L814 245M818 210L904 248M900 209L814 245M900 209L904 248M900 209L961 295M1021 177L1055 176M1177 214L1211 179M1177 214L1116 308M1177 214L1186 279M1177 214L1212 280M1211 179L1186 279M1348 208L1419 182M1348 208L1300 266M1348 208L1395 253M1419 182L1478 210M1419 182L1395 253M1478 210L1569 213M1478 210L1395 253M1478 210L1509 297M1569 213L1620 167M1569 213L1509 297M1569 213L1556 312M1620 167L1665 274M1743 199L1814 206M1743 199L1665 274M1743 199L1732 252M1743 199L1792 281M1814 206L1875 207M1814 206L1732 252M1814 206L1792 281M1814 206L1898 268M1875 207L1942 177M1875 207L1898 268M1942 177L1898 268M2058 181L2107 231M2107 231L2043 319M2107 231L2139 266M2107 231L2169 263M2227 169L2293 192M2227 169L2250 271M2293 192L2383 214M2293 192L2250 271M2383 214L2422 218M2383 214L2350 294M2383 214L2432 277M2422 218L2515 217M2422 218L2432 277M2422 218L2498 259M2515 217L2498 259M50 248L115 247M50 248L-62 259M2610 248L2498 259M115 247L148 326M214 311L297 296M214 311L148 326M214 311L184 366M214 311L198 426M297 296L336 241M297 296L318 388M297 296L358 340M336 241L414 267M414 267L358 340M414 267L473 347M526 269L590 267M526 269L473 347M590 267L646 315M646 315L573 378M646 315L693 357M742 319L814 245M742 319L693 357M742 319L757 394M742 319L807 368M814 245L904 248M904 248L961 295M904 248L980 327M961 295L936 392M961 295L980 327M1116 308L1186 279M1116 308L1212 280M1116 308L1055 349M1116 308L1122 365M1186 279L1212 280M1212 280L1300 266M1212 280L1259 347M1300 266L1395 253M1300 266L1259 347M1300 266L1351 367M1509 297L1556 312M1509 297L1502 387M1509 297L1590 324M1556 312L1502 387M1556 312L1590 324M1665 274L1732 252M1665 274L1590 324M1665 274L1693 378M1732 252L1792 281M1792 281L1833 375M1898 268L1944 293M1898 268L1898 337M1944 293L2043 319M1944 293L1898 337M1944 293L1934 381M1944 293L2024 345M2043 319L2139 266M2043 319L2024 345M2043 319L2126 366M2139 266L2169 263M2139 266L2126 366M2139 266L2184 348M2169 263L2250 271M2169 263L2184 348M2250 271L2350 294M2350 294L2432 277M2350 294L2358 359M2432 277L2498 259M2432 277L2429 370M46 399L-4 385M46 399L32 443M46 399L105 421M46 399L-27 401M46 399L-26 485M2606 399L2556 385M2606 399L2533 401M2606 399L2534 485M148 326L184 366M184 366L105 421M184 366L198 426M318 388L358 340M318 388L314 414M318 388L364 444M358 340L314 414M358 340L364 444M473 347L529 378M473 347L573 378M529 378L573 378M529 378L534 428M529 378L569 422M573 378L534 428M573 378L569 422M693 357L757 394M693 357L807 368M693 357L720 438M757 394L807 368M757 394L720 438M757 394L731 471M807 368L720 438M807 368L817 454M936 392L980 327M936 392L921 468M936 392L1006 401M980 327L1055 349M980 327L1006 401M1055 349L1122 365M1055 349L1006 401M1122 365L1089 440M1122 365L1124 432M1259 347L1351 367M1259 347L1247 415M1351 367L1377 394M1351 367L1320 419M1351 367L1404 421M1377 394L1320 419M1377 394L1404 421M1377 394L1322 487M1502 387L1404 421M1502 387L1495 479M1502 387L1538 464M1590 324L1652 387M1590 324L1693 378M1652 387L1693 378M1652 387L1666 449M1693 378L1666 449M1693 378L1719 473M1833 375L1898 337M1833 375L1934 381M1833 375L1837 470M1833 375L1849 457M1898 337L1934 381M1934 381L2024 345M1934 381L1997 459M2126 366L2184 348M2126 366L2112 445M2184 348L2245 383M2184 348L2199 440M2245 383L2199 440M2245 383L2290 445M2358 359L2429 370M2358 359L2358 456M2429 370L2419 460M2429 370L2533 401M2556 385L2592 443M2556 385L2533 401M-4 385L32 443M32 443L105 421M32 443L-27 401M32 443L-26 485M2592 443L2533 401M2592 443L2534 485M105 421L198 426M105 421L156 495M198 426L156 495M198 426L191 524M314 414L364 444M314 414L401 469M314 414L338 499M364 444L401 469M364 444L338 499M401 469L307 537M401 469L338 499M401 469L445 557M534 428L569 422M534 428L616 490M569 422L616 490M720 438L731 471M720 438L728 498M731 471L817 454M731 471L728 498M817 454L921 468M921 468L880 555M921 468L935 535M1006 401L1089 440M1089 440L1124 432M1089 440L1058 494M1089 440L1124 524M1124 432L1058 494M1124 432L1210 504M1247 415L1320 419M1247 415L1210 504M1247 415L1322 487M1320 419L1404 421M1320 419L1322 487M1404 421L1411 502M1495 479L1538 464M1495 479L1411 502M1495 479L1476 524M1495 479L1555 528M1538 464L1476 524M1538 464L1555 528M1538 464L1626 538M1666 449L1719 473M1666 449L1626 538M1666 449L1750 487M1719 473L1750 487M1837 470L1849 457M1837 470L1750 487M1837 470L1805 527M1837 470L1889 534M1849 457L1750 487M1849 457L1805 527M1849 457L1889 534M1997 459L2072 467M1997 459L1999 556M1997 459L2067 518M2072 467L2112 445M2072 467L2067 518M2072 467L2084 540M2112 445L2199 440M2112 445L2067 518M2112 445L2084 540M2199 440L2290 445M2199 440L2212 510M2290 445L2358 456M2290 445L2307 535M2358 456L2419 460M2358 456L2307 535M2358 456L2355 506M2419 460L2355 506M2419 460L2473 501M2419 460L2421 566M2533 401L2534 485M35 537L156 495M35 537L-87 501M35 537L-26 485M35 537L68 583M35 537L91 564M2595 537L2473 501M2595 537L2534 485M156 495L191 524M156 495L91 564M191 524L91 564M191 524L162 621M191 524L284 590M307 537L338 499M307 537L284 590M307 537L320 561M338 499L320 561M445 557L526 553M445 557L478 622M445 557L534 594M526 553L478 622M526 553L534 594M526 553L596 560M616 490L656 554M616 490L596 560M616 490L663 564M656 554L728 498M656 554L596 560M656 554L663 564M656 554L622 651M728 498L663 564M728 498L769 598M880 555L935 535M880 555L841 604M880 555L925 576M880 555L909 640M935 535L1011 546M935 535L925 576M935 535L972 602M1011 546L1058 494M1011 546L972 602M1011 546L1084 600M1058 494L1124 524M1058 494L1122 565M1124 524L1210 504M1124 524L1084 600M1124 524L1122 565M1210 504L1322 487M1210 504L1122 565M1322 487L1411 502M1411 502L1476 524M1411 502L1478 569M1476 524L1555 528M1476 524L1478 569M1555 528L1626 538M1555 528L1478 569M1626 538L1579 623M1626 538L1651 604M1750 487L1805 527M1805 527L1889 534M1805 527L1836 611M1889 534L1887 602M1889 534L1929 598M1999 556L2067 518M1999 556L2084 540M1999 556L1929 598M1999 556L2071 626M2067 518L2084 540M2084 540L2071 626M2212 510L2182 612M2307 535L2355 506M2307 535L2313 633M2307 535L2384 583M2355 506L2384 583M2355 506L2421 566M2473 501L2534 485M2473 501L2421 566M68 583L91 564M68 583L162 621M68 583L41 673M91 564L162 621M162 621L93 711M162 621L190 672M284 590L320 561M284 590L275 681M284 590L374 670M478 622L534 594M478 622L499 671M478 622L421 730M534 594L596 560M534 594L499 671M596 560L663 564M663 564L622 651M769 598L841 604M769 598L840 680M841 604L925 576M841 604L840 680M841 604L909 640M925 576L972 602M925 576L909 640M972 602L909 640M1084 600L1122 565M1084 600L1137 661M1268 640L1331 627M1268 640L1202 673M1268 640L1294 662M1331 627L1407 634M1331 627L1294 662M1331 627L1387 697M1331 627L1451 641M1407 634L1478 569M1407 634L1387 697M1407 634L1451 641M1407 634L1450 734M1478 569L1451 641M1579 623L1651 604M1579 623L1563 701M1579 623L1631 716M1579 623L1580 722M1651 604L1725 621M1651 604L1683 695M1725 621L1836 611M1725 621L1683 695M1725 621L1784 701M1836 611L1887 602M1887 602L1929 598M1887 602L1916 679M1929 598L1916 679M1929 598L1940 696M2071 626L2153 633M2071 626L2087 710M2153 633L2182 612M2153 633L2200 716M2182 612L2249 674M2313 633L2384 583M2313 633L2249 674M2313 633L2399 683M2313 633L2321 728M2384 583L2421 566M2421 566L2501 634M2501 634L2601 673M2501 634L2417 685M2501 634L2489 655M-59 634L41 673M41 673L93 711M93 711L190 672M93 711L29 792M93 711L116 756M190 672L275 681M190 672L206 760M275 681L374 670M275 681L206 760M275 681L279 760M374 670L407 719M374 670L421 730M407 719L499 671M407 719L350 779M407 719L421 730M499 671L421 730M622 651L707 716M707 716L771 718M707 716L614 761M707 716L655 793M707 716L737 786M771 718L840 680M771 718L737 786M771 718L864 766M840 680L909 640M840 680L864 766M1027 719L1098 709M1027 719L1033 727M1027 719L1098 756M1027 719L1121 726M1098 709L1137 661M1098 709L1033 727M1098 709L1098 756M1098 709L1121 726M1137 661L1202 673M1137 661L1098 756M1137 661L1121 726M1202 673L1294 662M1294 662L1289 785M1387 697L1451 641M1387 697L1400 749M1387 697L1450 734M1451 641L1450 734M1563 701L1631 716M1563 701L1580 722M1631 716L1683 695M1631 716L1580 722M1631 716L1649 770M1683 695L1649 770M1784 701L1759 790M1784 701L1779 753M1916 679L1940 696M1916 679L1915 738M1940 696L2011 718M1940 696L1915 738M1940 696L1939 787M2011 718L2087 710M2011 718L1915 738M2011 718L2026 771M2087 710L2026 771M2087 710L2085 804M2200 716L2249 674M2200 716L2189 744M2200 716L2268 766M2249 674L2189 744M2249 674L2268 766M2399 683L2417 685M2399 683L2489 655M2399 683L2321 728M2399 683L2471 751M2417 685L2489 655M2417 685L2321 728M2417 685L2471 751M29 792L116 756M29 792L-38 763M29 792L1 859M29 792L-54 803M2589 792L2522 763M2589 792L2506 803M116 756L206 760M116 756L136 856M116 756L176 817M206 760L279 760M206 760L176 817M279 760L350 779M279 760L284 847M279 760L322 837M350 779L421 730M350 779L284 847M350 779L322 837M540 789L614 761M540 789L506 834M540 789L629 822M540 789L552 898M614 761L655 793M614 761L629 822M614 761L652 842M655 793L737 786M655 793L629 822M655 793L652 842M737 786L744 828M864 766L933 800M864 766L852 844M933 800L852 844M933 800L887 876M933 800L967 835M1033 727L1098 756M1033 727L1121 726M1098 756L1121 726M1257 784L1289 785M1257 784L1158 851M1257 784L1237 875M1257 784L1357 807M1289 785L1237 875M1289 785L1357 807M1400 749L1450 734M1400 749L1357 807M1400 749L1424 846M1450 734L1442 837M1580 722L1649 770M1580 722L1612 821M1649 770L1612 821M1759 790L1779 753M1759 790L1732 832M1759 790L1797 872M1759 790L1723 888M1779 753L1732 832M1915 738L1939 787M1915 738L1947 829M1939 787L2026 771M1939 787L1867 845M1939 787L1947 829M2026 771L2085 804M2149 797L2189 744M2149 797L2085 804M2149 797L2170 809M2149 797L2251 816M2149 797L2159 881M2189 744L2268 766M2189 744L2170 809M2268 766L2321 728M2268 766L2251 816M2471 751L2522 763M2471 751L2447 802M2471 751L2506 803M2522 763L2561 859M2522 763L2447 802M2522 763L2506 803M-38 763L1 859M1 859L-54 803M1 859L38 927M1 859L-46 954M2561 859L2506 803M2561 859L2514 954M136 856L176 817M136 856L153 883M176 817L153 883M284 847L322 837M284 847L223 935M443 863L506 834M443 863L387 931M443 863L447 926M443 863L552 898M506 834L552 898M629 822L652 842M629 822L744 828M652 842L744 828M652 842L704 899M744 828L704 899M744 828L780 884M852 844L887 876M852 844L780 884M852 844L873 904M887 876L967 835M887 876L873 904M887 876L958 916M967 835L1043 849M967 835L958 916M967 835L977 915M1043 849L977 915M1158 851L1237 875M1158 851L1119 948M1158 851L1144 926M1158 851L1208 915M1237 875L1144 926M1237 875L1208 915M1357 807L1424 846M1357 807L1442 837M1424 846L1442 837M1424 846L1380 916M1424 846L1499 911M1442 837L1380 916M1442 837L1499 911M1555 848L1612 821M1555 848L1499 911M1555 848L1593 956M1612 821L1678 888M1732 832L1797 872M1732 832L1678 888M1732 832L1723 888M1797 872L1867 845M1797 872L1723 888M1797 872L1796 893M1867 845L1947 829M1867 845L1796 893M1867 845L1927 901M1947 829L2010 875M1947 829L1927 901M2010 875L2085 804M2010 875L1927 901M2010 875L2039 905M2085 804L2170 809M2170 809L2251 816M2170 809L2159 881M2251 816L2159 881M2251 816L2284 888M2380 806L2447 802M2380 806L2418 896M2447 802L2506 803M2447 802L2418 896M38 927L153 883M38 927L-46 954M38 927L-23 985M2598 927L2514 954M2598 927L2537 985M153 883L223 935M223 935L313 941M223 935L240 991M313 941L387 931M313 941L240 991M313 941L293 1011M313 941L365 960M387 931L447 926M387 931L365 960M447 926L365 960M447 926L444 1034M447 926L517 964M552 898L625 954M552 898L517 964M625 954L704 899M625 954L517 964M625 954L632 1038M625 954L656 1023M704 899L780 884M780 884L873 904M780 884L869 970M873 904L958 916M873 904L869 970M958 916L977 915M958 916L1002 969M977 915L945 1013M977 915L1002 969M1119 948L1144 926M1119 948L1208 915M1119 948L1046 1021M1144 926L1208 915M1144 926L1195 1027M1208 915L1280 973M1330 949L1380 916M1330 949L1280 973M1330 949L1286 1025M1330 949L1390 989M1380 916L1390 989M1499 911L1593 956M1499 911L1558 997M1593 956L1678 888M1593 956L1558 997M1593 956L1638 992M1678 888L1723 888M1723 888L1796 893M1796 893L1853 947M1853 947L1927 901M1853 947L1813 1037M1853 947L1901 1016M1853 947L1948 1008M1927 901L1948 1008M2159 881L2239 941M2239 941L2284 888M2239 941L2166 1018M2239 941L2319 1015M2393 933L2418 896M2393 933L2319 1015M2393 933L2324 1005M2393 933L2448 997M2418 896L2514 954M2418 896L2448 997M2514 954L2448 997M2514 954L2537 985M51 1035L126 1022M51 1035L-23 985M51 1035L75 1062M51 1035L120 1108M51 1035L0 1127M2611 1035L2537 985M126 1022L240 991M126 1022L75 1062M126 1022L120 1108M126 1022L162 1097M240 991L293 1011M240 991L298 1092M293 1011L365 960M293 1011L298 1092M293 1011L352 1044M365 960L352 1044M444 1034L517 964M444 1034L352 1044M444 1034L407 1080M444 1034L543 1069M517 964L543 1069M632 1038L656 1023M632 1038L543 1069M632 1038L588 1073M632 1038L674 1107M656 1023L755 1033M656 1023L588 1073M656 1023L674 1107M755 1033L795 1050M869 970L945 1013M869 970L795 1050M869 970L939 1060M945 1013L1002 969M945 1013L939 1060M945 1013L996 1082M1002 969L1046 1021M1046 1021L996 1082M1046 1021L1078 1072M1046 1021L1055 1124M1195 1027L1280 973M1195 1027L1286 1025M1195 1027L1189 1040M1195 1027L1244 1058M1280 973L1286 1025M1280 973L1244 1058M1286 1025L1244 1058M1286 1025L1293 1078M1390 989L1474 1039M1474 1039L1558 997M1474 1039L1435 1117M1474 1039L1465 1094M1474 1039L1569 1084M1558 997L1638 992M1558 997L1569 1084M1638 992L1685 1026M1638 992L1613 1093M1638 992L1704 1054M1685 1026L1613 1093M1685 1026L1704 1054M1813 1037L1901 1016M1813 1037L1831 1110M1813 1037L1849 1127M1901 1016L1948 1008M1901 1016L1936 1063M1948 1008L1936 1063M2059 1037L2129 1003M2059 1037L2023 1103M2059 1037L2136 1040M2129 1003L2166 1018M2129 1003L2136 1040M2129 1003L2168 1061M2166 1018L2136 1040M2166 1018L2168 1061M2166 1018L2255 1041M2319 1015L2324 1005M2319 1015L2255 1041M2319 1015L2325 1100M2324 1005L2255 1041M2324 1005L2325 1100M2448 997L2537 985M75 1062L120 1108M75 1062L162 1097M75 1062L0 1127M120 1108L162 1097M120 1108L118 1199M162 1097L210 1187M162 1097L196 1201M298 1092L352 1044M298 1092L278 1153M298 1092L345 1166M352 1044L407 1080M407 1080L345 1166M543 1069L588 1073M543 1069L543 1131M588 1073L674 1107M588 1073L543 1131M674 1107L610 1159M674 1107L656 1176M795 1050L867 1088M795 1050L847 1126M867 1088L939 1060M867 1088L847 1126M867 1088L901 1154M939 1060L996 1082M939 1060L901 1154M996 1082L1078 1072M996 1082L1055 1124M1078 1072L1189 1040M1078 1072L1055 1124M1189 1040L1244 1058M1244 1058L1293 1078M1293 1078L1282 1170M1293 1078L1368 1149M1435 1117L1465 1094M1435 1117L1368 1149M1435 1117L1457 1143M1435 1117L1521 1130M1465 1094L1569 1084M1465 1094L1457 1143M1465 1094L1521 1130M1569 1084L1613 1093M1569 1084L1521 1130M1613 1093L1704 1054M1613 1093L1521 1130M1704 1054L1758 1139M1831 1110L1867 1100M1831 1110L1758 1139M1831 1110L1821 1168M1831 1110L1849 1127M1867 1100L1936 1063M1867 1100L1821 1168M1867 1100L1849 1127M1867 1100L1929 1129M1936 1063L2023 1103M1936 1063L1929 1129M2023 1103L1929 1129M2023 1103L2028 1147M2136 1040L2168 1061M2136 1040L2208 1136M2168 1061L2255 1041M2168 1061L2208 1136M2255 1041L2325 1100M2325 1100L2402 1117M2325 1100L2294 1166M2402 1117L2389 1188M2402 1117L2432 1146M2402 1117L2490 1133M2402 1117L2364 1213M2524 1114L2560 1127M2524 1114L2490 1133M2524 1114L2576 1202M-36 1114L0 1127M-36 1114L16 1202M0 1127L-70 1133M0 1127L16 1202M2560 1127L2490 1133M118 1199L210 1187M118 1199L16 1202M118 1199L151 1263M118 1199L196 1201M210 1187L278 1153M210 1187L196 1201M278 1153L345 1166M278 1153L196 1201M278 1153L317 1249M345 1166L454 1200M345 1166L317 1249M454 1200L543 1131M454 1200L395 1264M454 1200L458 1236M454 1200L531 1206M543 1131L610 1159M543 1131L531 1206M610 1159L656 1176M610 1159L611 1240M610 1159L650 1213M656 1176L747 1190M656 1176L611 1240M656 1176L650 1213M747 1190L847 1126M747 1190L650 1213M747 1190L793 1277M747 1190L820 1244M847 1126L901 1154M847 1126L820 1244M901 1154L820 1244M901 1154L952 1267M1010 1200L1055 1124M1010 1200L952 1267M1010 1200L1009 1201M1010 1200L960 1296M1055 1124L1009 1201M1128 1195L1224 1177M1128 1195L1119 1232M1128 1195L1175 1230M1224 1177L1282 1170M1224 1177L1175 1230M1224 1177L1250 1211M1224 1177L1292 1272M1282 1170L1368 1149M1282 1170L1250 1211M1282 1170L1292 1272M1368 1149L1457 1143M1457 1143L1521 1130M1457 1143L1419 1264M1669 1191L1758 1139M1669 1191L1652 1243M1669 1191L1720 1214M1758 1139L1821 1168M1758 1139L1720 1214M1821 1168L1849 1127M1821 1168L1852 1268M1849 1127L1929 1129M1929 1129L2028 1147M2028 1147L2146 1173M2028 1147L2045 1223M2028 1147L2089 1211M2146 1173L2208 1136M2146 1173L2045 1223M2146 1173L2089 1211M2146 1173L2162 1243M2208 1136L2294 1166M2294 1166L2389 1188M2294 1166L2294 1233M2294 1166L2364 1213M2389 1188L2432 1146M2389 1188L2364 1213M2389 1188L2466 1226M2432 1146L2490 1133M2432 1146L2364 1213M2432 1146L2466 1226M2490 1133L2466 1226M16 1202L-94 1226M16 1202L-33 1245M2576 1202L2466 1226M2576 1202L2527 1245M151 1263L196 1201M151 1263L65 1305M151 1263L91 1323M151 1263L174 1315M317 1249L395 1264M317 1249L312 1286M395 1264L458 1236M395 1264L312 1286M395 1264L402 1319M458 1236L531 1206M458 1236L402 1319M458 1236L549 1281M531 1206L611 1240M531 1206L549 1281M611 1240L650 1213M611 1240L549 1281M650 1213L655 1333M793 1277L820 1244M793 1277L722 1340M793 1277L839 1348M820 1244L839 1348M952 1267L1009 1201M952 1267L957 1320M952 1267L960 1296M1009 1201L957 1320M1009 1201L960 1296M1119 1232L1175 1230M1119 1232L1119 1318M1119 1232L1125 1326M1175 1230L1250 1211M1250 1211L1292 1272M1250 1211L1286 1314M1292 1272L1211 1334M1292 1272L1286 1314M1419 1264L1517 1258M1419 1264L1399 1320M1517 1258L1558 1271M1517 1258L1496 1324M1517 1258L1563 1295M1558 1271L1652 1243M1558 1271L1496 1324M1558 1271L1563 1295M1558 1271L1646 1319M1652 1243L1720 1214M1652 1243L1646 1319M1652 1243L1712 1301M1720 1214L1795 1273M1720 1214L1712 1301M1795 1273L1852 1268M1795 1273L1712 1301M1795 1273L1768 1346M1795 1273L1914 1294M1852 1268L1914 1294M1852 1268L1944 1312M1852 1268L1836 1386M1977 1268L2045 1223M1977 1268L1914 1294M1977 1268L1944 1312M1977 1268L2066 1285M2045 1223L2089 1211M2045 1223L2066 1285M2089 1211L2162 1243M2089 1211L2066 1285M2162 1243L2105 1334M2162 1243L2265 1292M2294 1233L2364 1213M2294 1233L2265 1292M2466 1226L2527 1245M2527 1245L2625 1305M2527 1245L2488 1327M-33 1245L65 1305M65 1305L91 1323M65 1305L174 1315M65 1305L65 1372M91 1323L174 1315M91 1323L65 1372M91 1323L97 1431M174 1315L65 1372M174 1315L210 1395M312 1286L357 1356M312 1286L402 1319M357 1356L402 1319M357 1356L343 1427M357 1356L427 1420M549 1281L568 1356M568 1356L655 1333M568 1356L528 1429M568 1356L584 1383M655 1333L722 1340M655 1333L584 1383M655 1333L704 1377M722 1340L704 1377M722 1340L732 1430M839 1348L842 1398M839 1348L888 1393M957 1320L960 1296M957 1320L888 1393M957 1320L1026 1430M1119 1318L1125 1326M1119 1318L1211 1334M1119 1318L1111 1432M1119 1318L1193 1369M1125 1326L1211 1334M1125 1326L1193 1369M1211 1334L1286 1314M1211 1334L1193 1369M1286 1314L1193 1369M1286 1314L1341 1419M1496 1324L1563 1295M1496 1324L1470 1410M1496 1324L1585 1376M1563 1295L1646 1319M1563 1295L1585 1376M1646 1319L1712 1301M1646 1319L1585 1376M1712 1301L1768 1346M1768 1346L1731 1431M1768 1346L1836 1386M1914 1294L1944 1312M1914 1294L1904 1381M1944 1312L1904 1381M1944 1312L2023 1369M2066 1285L2105 1334M2066 1285L2023 1369M2105 1334L2023 1369M2105 1334L2147 1440M2105 1334L2184 1393M2239 1348L2265 1292M2239 1348L2184 1393M2239 1348L2273 1412M2239 1348L2351 1410M2265 1292L2380 1331M2380 1331L2478 1352M2380 1331L2488 1327M2380 1331L2351 1410M2380 1331L2409 1402M2478 1352L2488 1327M2478 1352L2409 1402M2478 1352L2507 1420M2488 1327L2507 1420M65 1372L97 1431M65 1372L-53 1420M2625 1372L2507 1420M210 1395L297 1420M297 1420L343 1427M343 1427L427 1420M427 1420L528 1429M528 1429L584 1383M704 1377L732 1430M732 1430L842 1398M842 1398L888 1393M1026 1430L1111 1432M1111 1432L1193 1369M1275 1436L1341 1419M1275 1436L1373 1433M1341 1419L1373 1433M1373 1433L1470 1410M1585 1376L1615 1434M1615 1434L1731 1431M1836 1386L1904 1381M1904 1381L1957 1430M1957 1430L2023 1369M2147 1440L2184 1393M2184 1393L2273 1412M2273 1412L2351 1410M2351 1410L2409 1402"/></svg>