<svg xmlns="http://www.w3.org/2000/svg" width="2560" height="1440" fill="#fff"><circle cx="48" cy="61" r="4"/><circle cx="121" cy="18" r="5"/><circle cx="228" cy="29" r="5"/><circle cx="266" cy="63" r="6"/><circle cx="387" cy="20" r="5"/><circle cx="460" cy="57" r="5"/><circle cx="498" cy="64" r="5"/><circle cx="601" cy="65" r="6"/><circle cx="695" cy="71" r="4"/><circle cx="745" cy="33" r="4"/><circle cx="880" cy="76" r="6"/><circle cx="887" cy="59" r="5"/><circle cx="1004" cy="69" r="4"/><circle cx="1085" cy="60" r="5"/><circle cx="1128" cy="29" r="5"/><circle cx="1228" cy="4" r="6"/><circle cx="1228" cy="1444" r="6"/><circle cx="1331" cy="31" r="6"/><circle cx="1433" cy="16" r="5"/><circle cx="1488" cy="24" r="5"/><circle cx="1522" cy="2" r="5"/><circle cx="1522" cy="1442" r="5"/><circle cx="1632" cy="56" r="5"/><circle cx="1682" cy="28" r="4"/><circle cx="1819" cy="53" r="6"/><circle cx="1857" cy="73" r="6"/><circle cx="1987" cy="75" r="6"/><circle cx="2023" cy="56" r="6"/><circle cx="2120" cy="52" r="4"/><circle cx="2183" cy="20" r="5"/><circle cx="2294" cy="16" r="4"/><circle cx="2351" cy="1" r="6"/><circle cx="2351" cy="1441" r="6"/><circle cx="2453" cy="52" r="5"/><circle cx="2520" cy="35" r="5"/><circle cx="17" cy="118" r="6"/><circle cx="143" cy="134" r="6"/><circle cx="202" cy="86" r="5"/><circle cx="276" cy="149" r="4"/><circle cx="326" cy="120" r="4"/><circle cx="444" cy="138" r="5"/><circle cx="513" cy="135" r="4"/><circle cx="590" cy="124" r="5"/><circle cx="651" cy="84" r="6"/><circle cx="737" cy="149" r="5"/><circle cx="860" cy="89" r="6"/><circle cx="943" cy="81" r="5"/><circle cx="1001" cy="103" r="4"/><circle cx="1069" cy="128" r="5"/><circle cx="1128" cy="85" r="6"/><circle cx="1202" cy="139" r="6"/><circle cx="1331" cy="112" r="6"/><circle cx="1423" cy="85" r="5"/><circle cx="1447" cy="108" r="6"/><circle cx="1522" cy="144" r="5"/><circle cx="1624" cy="133" r="5"/><circle cx="1721" cy="86" r="6"/><circle cx="1819" cy="83" r="5"/><circle cx="1858" cy="147" r="4"/><circle cx="1988" cy="113" r="6"/><circle cx="2031" cy="126" r="5"/><circle cx="2121" cy="148" r="5"/><circle cx="2169" cy="126" r="4"/><circle cx="2306" cy="123" r="4"/><circle cx="2355" cy="114" r="4"/><circle cx="2420" cy="127" r="4"/><circle cx="2549" cy="144" r="4"/><circle cx="71" cy="207" r="6"/><circle cx="136" cy="189" r="6"/><circle cx="199" cy="193" r="6"/><circle cx="284" cy="168" r="5"/><circle cx="359" cy="198" r="6"/><circle cx="461" cy="174" r="6"/><circle cx="553" cy="222" r="4"/><circle cx="631" cy="216" r="4"/><circle cx="677" cy="166" r="5"/><circle cx="733" cy="216" r="6"/><circle cx="873" cy="233" r="5"/><circle cx="924" cy="209" r="5"/><circle cx="1017" cy="192" r="4"/><circle cx="1109" cy="175" r="5"/><circle cx="1162" cy="187" r="4"/><circle cx="1257" cy="228" r="5"/><circle cx="1328" cy="181" r="5"/><circle cx="1391" cy="200" r="4"/><circle cx="1474" cy="187" r="5"/><circle cx="1558" cy="180" r="4"/><circle cx="1654" cy="229" r="5"/><circle cx="1712" cy="233" r="5"/><circle cx="1776" cy="226" r="5"/><circle cx="1848" cy="213" r="4"/><circle cx="1970" cy="203" r="5"/><circle cx="2024" cy="192" r="4"/><circle cx="2153" cy="191" r="4"/><circle cx="2217" cy="177" r="6"/><circle cx="2307" cy="198" r="4"/><circle cx="2387" cy="164" r="6"/><circle cx="2475" cy="169" r="4"/><circle cx="2518" cy="217" r="6"/><circle cx="35" cy="247" r="5"/><circle cx="99" cy="242" r="4"/><circle cx="191" cy="262" r="4"/><circle cx="272" cy="289" r="5"/><circle cx="375" cy="256" r="5"/><circle cx="408" cy="258" r="4"/><circle cx="506" cy="265" r="5"/><circle cx="587" cy="247" r="6"/><circle cx="677" cy="308" r="6"/><circle cx="794" cy="283" r="4"/><circle cx="867" cy="251" r="5"/><circle cx="934" cy="245" r="5"/><circle cx="1006" cy="287" r="6"/><circle cx="1052" cy="255" r="5"/><circle cx="1200" cy="312" r="4"/><circle cx="1257" cy="244" r="5"/><circle cx="1286" cy="306" r="5"/><circle cx="1417" cy="281" r="4"/><circle cx="1457" cy="289" r="6"/><circle cx="1539" cy="263" r="5"/><circle cx="1646" cy="308" r="6"/><circle cx="1715" cy="293" r="6"/><circle cx="1814" cy="257" r="6"/><circle cx="1864" cy="317" r="6"/><circle cx="1965" cy="289" r="4"/><circle cx="2055" cy="246" r="6"/><circle cx="2085" cy="290" r="4"/><circle cx="2230" cy="286" r="5"/><circle cx="2270" cy="289" r="6"/><circle cx="2335" cy="250" r="5"/><circle cx="2459" cy="303" r="5"/><circle cx="2551" cy="295" r="5"/><circle cx="41" cy="365" r="5"/><circle cx="123" cy="369" r="6"/><circle cx="172" cy="373" r="5"/><circle cx="266" cy="330" r="5"/><circle cx="350" cy="388" r="4"/><circle cx="430" cy="348" r="4"/><circle cx="528" cy="369" r="6"/><circle cx="580" cy="399" r="4"/><circle cx="649" cy="324" r="6"/><circle cx="725" cy="331" r="6"/><circle cx="839" cy="354" r="5"/><circle cx="885" cy="379" r="4"/><circle cx="983" cy="327" r="5"/><circle cx="1072" cy="367" r="6"/><circle cx="1190" cy="333" r="6"/><circle cx="1258" cy="361" r="5"/><circle cx="1323" cy="377" r="5"/><circle cx="1370" cy="346" r="5"/><circle cx="1513" cy="397" r="5"/><circle cx="1547" cy="387" r="6"/><circle cx="1632" cy="334" r="6"/><circle cx="1700" cy="337" r="5"/><circle cx="1813" cy="352" r="5"/><circle cx="1886" cy="398" r="5"/><circle cx="1956" cy="321" r="4"/><circle cx="2077" cy="384" r="6"/><circle cx="2100" cy="378" r="5"/><circle cx="2164" cy="331" r="4"/><circle cx="2308" cy="361" r="5"/><circle cx="2371" cy="365" r="5"/><circle cx="2459" cy="355" r="6"/><circle cx="2484" cy="395" r="4"/><circle cx="78" cy="430" r="5"/><circle cx="112" cy="415" r="6"/><circle cx="233" cy="434" r="5"/><circle cx="246" cy="444" r="5"/><circle cx="335" cy="448" r="6"/><circle cx="402" cy="415" r="5"/><circle cx="502" cy="426" r="6"/><circle cx="579" cy="415" r="5"/><circle cx="704" cy="435" r="6"/><circle cx="734" cy="460" r="6"/><circle cx="822" cy="447" r="5"/><circle cx="906" cy="429" r="5"/><circle cx="973" cy="418" r="5"/><circle cx="1056" cy="477" r="6"/><circle cx="1166" cy="416" r="4"/><circle cx="1222" cy="480" r="4"/><circle cx="1307" cy="437" r="6"/><circle cx="1401" cy="467" r="5"/><circle cx="1456" cy="411" r="5"/><circle cx="1534" cy="476" r="4"/><circle cx="1651" cy="401" r="5"/><circle cx="1727" cy="419" r="5"/><circle cx="1825" cy="455" r="5"/><circle cx="1910" cy="424" r="5"/><circle cx="1993" cy="450" r="6"/><circle cx="2022" cy="438" r="5"/><circle cx="2093" cy="416" r="5"/><circle cx="2183" cy="479" r="4"/><circle cx="2318" cy="420" r="5"/><circle cx="2379" cy="436" r="5"/><circle cx="2437" cy="464" r="4"/><circle cx="2490" cy="401" r="5"/><circle cx="8" cy="534" r="5"/><circle cx="156" cy="538" r="5"/><circle cx="165" cy="500" r="5"/><circle cx="311" cy="508" r="5"/><circle cx="378" cy="483" r="4"/><circle cx="445" cy="518" r="5"/><circle cx="490" cy="487" r="5"/><circle cx="626" cy="493" r="4"/><circle cx="708" cy="529" r="4"/><circle cx="749" cy="485" r="4"/><circle cx="869" cy="543" r="6"/><circle cx="946" cy="482" r="6"/><circle cx="984" cy="499" r="5"/><circle cx="1102" cy="555" r="6"/><circle cx="1156" cy="557" r="4"/><circle cx="1243" cy="548" r="6"/><circle cx="1296" cy="518" r="4"/><circle cx="1431" cy="483" r="6"/><circle cx="1500" cy="533" r="5"/><circle cx="1522" cy="485" r="5"/><circle cx="1648" cy="507" r="4"/><circle cx="1735" cy="515" r="5"/><circle cx="1811" cy="539" r="5"/><circle cx="1908" cy="539" r="5"/><circle cx="1931" cy="555" r="5"/><circle cx="2024" cy="550" r="4"/><circle cx="2083" cy="502" r="5"/><circle cx="2204" cy="538" r="6"/><circle cx="2252" cy="518" r="6"/><circle cx="2337" cy="556" r="4"/><circle cx="2460" cy="526" r="5"/><circle cx="2499" cy="539" r="5"/><circle cx="58" cy="575" r="6"/><circle cx="115" cy="564" r="4"/><circle cx="217" cy="623" r="4"/><circle cx="270" cy="634" r="4"/><circle cx="330" cy="605" r="5"/><circle cx="460" cy="612" r="5"/><circle cx="540" cy="632" r="4"/><circle cx="610" cy="573" r="4"/><circle cx="650" cy="583" r="6"/><circle cx="725" cy="609" r="4"/><circle cx="801" cy="621" r="5"/><circle cx="955" cy="628" r="5"/><circle cx="1029" cy="590" r="5"/><circle cx="1114" cy="602" r="4"/><circle cx="1139" cy="620" r="6"/><circle cx="1214" cy="585" r="5"/><circle cx="1321" cy="577" r="5"/><circle cx="1418" cy="583" r="5"/><circle cx="1482" cy="602" r="5"/><circle cx="1575" cy="629" r="5"/><circle cx="1635" cy="599" r="4"/><circle cx="1751" cy="615" r="4"/><circle cx="1823" cy="603" r="5"/><circle cx="1855" cy="592" r="4"/><circle cx="1995" cy="634" r="5"/><circle cx="2001" cy="589" r="6"/><circle cx="2106" cy="602" r="4"/><circle cx="2236" cy="632" r="5"/><circle cx="2290" cy="603" r="5"/><circle cx="2365" cy="592" r="5"/><circle cx="2408" cy="636" r="6"/><circle cx="2518" cy="584" r="6"/><circle cx="19" cy="653" r="5"/><circle cx="124" cy="646" r="6"/><circle cx="205" cy="701" r="6"/><circle cx="246" cy="695" r="5"/><circle cx="396" cy="690" r="4"/><circle cx="428" cy="668" r="4"/><circle cx="557" cy="653" r="5"/><circle cx="640" cy="720" r="5"/><circle cx="698" cy="650" r="5"/><circle cx="720" cy="673" r="4"/><circle cx="855" cy="667" r="6"/><circle cx="887" cy="708" r="4"/><circle cx="999" cy="685" r="6"/><circle cx="1042" cy="674" r="6"/><circle cx="1125" cy="701" r="6"/><circle cx="1261" cy="684" r="5"/><circle cx="1334" cy="691" r="4"/><circle cx="1413" cy="687" r="5"/><circle cx="1465" cy="711" r="4"/><circle cx="1569" cy="695" r="5"/><circle cx="1661" cy="713" r="5"/><circle cx="1754" cy="700" r="4"/><circle cx="1767" cy="712" r="4"/><circle cx="1845" cy="688" r="5"/><circle cx="1948" cy="672" r="5"/><circle cx="2017" cy="689" r="5"/><circle cx="2137" cy="667" r="5"/><circle cx="2219" cy="706" r="5"/><circle cx="2280" cy="715" r="6"/><circle cx="2346" cy="641" r="5"/><circle cx="2462" cy="666" r="6"/><circle cx="2530" cy="689" r="6"/><circle cx="43" cy="733" r="5"/><circle cx="127" cy="732" r="6"/><circle cx="167" cy="785" r="6"/><circle cx="278" cy="742" r="5"/><circle cx="365" cy="753" r="5"/><circle cx="417" cy="790" r="6"/><circle cx="509" cy="763" r="4"/><circle cx="596" cy="757" r="5"/><circle cx="717" cy="768" r="5"/><circle cx="726" cy="790" r="6"/><circle cx="816" cy="783" r="5"/><circle cx="897" cy="799" r="6"/><circle cx="980" cy="753" r="5"/><circle cx="1092" cy="740" r="4"/><circle cx="1147" cy="726" r="5"/><circle cx="1259" cy="770" r="4"/><circle cx="1348" cy="734" r="5"/><circle cx="1435" cy="742" r="4"/><circle cx="1469" cy="787" r="5"/><circle cx="1593" cy="797" r="6"/><circle cx="1615" cy="742" r="5"/><circle cx="1703" cy="791" r="6"/><circle cx="1790" cy="737" r="5"/><circle cx="1889" cy="789" r="6"/><circle cx="1936" cy="725" r="5"/><circle cx="2010" cy="728" r="4"/><circle cx="2142" cy="756" r="5"/><circle cx="2230" cy="751" r="5"/><circle cx="2297" cy="730" r="5"/><circle cx="2341" cy="780" r="4"/><circle cx="2404" cy="722" r="4"/><circle cx="2524" cy="786" r="5"/><circle cx="66" cy="860" r="5"/><circle cx="108" cy="839" r="5"/><circle cx="186" cy="841" r="4"/><circle cx="295" cy="805" r="5"/><circle cx="341" cy="857" r="5"/><circle cx="455" cy="820" r="5"/><circle cx="496" cy="880" r="5"/><circle cx="569" cy="844" r="5"/><circle cx="650" cy="814" r="6"/><circle cx="747" cy="816" r="5"/><circle cx="819" cy="874" r="6"/><circle cx="939" cy="841" r="4"/><circle cx="1032" cy="854" r="5"/><circle cx="1074" cy="824" r="6"/><circle cx="1169" cy="842" r="6"/><circle cx="1266" cy="808" r="5"/><circle cx="1318" cy="811" r="6"/><circle cx="1429" cy="870" r="5"/><circle cx="1492" cy="838" r="5"/><circle cx="1597" cy="805" r="4"/><circle cx="1619" cy="838" r="6"/><circle cx="1700" cy="864" r="6"/><circle cx="1830" cy="844" r="4"/><circle cx="1851" cy="872" r="4"/><circle cx="1928" cy="805" r="5"/><circle cx="2001" cy="838" r="5"/><circle cx="2136" cy="816" r="5"/><circle cx="2193" cy="808" r="5"/><circle cx="2265" cy="871" r="4"/><circle cx="2361" cy="840" r="4"/><circle cx="2447" cy="802" r="5"/><circle cx="2482" cy="864" r="5"/><circle cx="40" cy="943" r="6"/><circle cx="139" cy="939" r="5"/><circle cx="199" cy="883" r="5"/><circle cx="295" cy="935" r="5"/><circle cx="378" cy="883" r="4"/><circle cx="465" cy="906" r="4"/><circle cx="507" cy="942" r="6"/><circle cx="561" cy="944" r="4"/><circle cx="655" cy="931" r="4"/><circle cx="726" cy="952" r="5"/><circle cx="859" cy="929" r="5"/><circle cx="890" cy="881" r="5"/><circle cx="962" cy="935" r="5"/><circle cx="1084" cy="950" r="4"/><circle cx="1133" cy="951" r="5"/><circle cx="1261" cy="933" r="5"/><circle cx="1343" cy="883" r="6"/><circle cx="1371" cy="935" r="5"/><circle cx="1450" cy="887" r="5"/><circle cx="1560" cy="907" r="6"/><circle cx="1677" cy="883" r="5"/><circle cx="1747" cy="932" r="6"/><circle cx="1810" cy="915" r="5"/><circle cx="1848" cy="883" r="5"/><circle cx="1946" cy="931" r="5"/><circle cx="2026" cy="882" r="5"/><circle cx="2083" cy="900" r="4"/><circle cx="2200" cy="930" r="5"/><circle cx="2292" cy="942" r="5"/><circle cx="2328" cy="913" r="5"/><circle cx="2457" cy="917" r="4"/><circle cx="2544" cy="947" r="5"/><circle cx="18" cy="1031" r="5"/><circle cx="128" cy="1006" r="5"/><circle cx="234" cy="1006" r="6"/><circle cx="251" cy="962" r="5"/><circle cx="388" cy="1012" r="5"/><circle cx="404" cy="994" r="4"/><circle cx="532" cy="1021" r="5"/><circle cx="632" cy="1027" r="4"/><circle cx="682" cy="1027" r="4"/><circle cx="775" cy="1017" r="5"/><circle cx="868" cy="979" r="4"/><circle cx="934" cy="961" r="6"/><circle cx="1036" cy="1034" r="5"/><circle cx="1072" cy="1000" r="6"/><circle cx="1128" cy="1011" r="4"/><circle cx="1246" cy="1032" r="6"/><circle cx="1334" cy="982" r="4"/><circle cx="1366" cy="1015" r="6"/><circle cx="1518" cy="964" r="5"/><circle cx="1525" cy="961" r="5"/><circle cx="1647" cy="964" r="4"/><circle cx="1698" cy="1031" r="6"/><circle cx="1780" cy="963" r="5"/><circle cx="1850" cy="1016" r="4"/><circle cx="1991" cy="1032" r="6"/><circle cx="2037" cy="977" r="6"/><circle cx="2123" cy="971" r="4"/><circle cx="2213" cy="990" r="5"/><circle cx="2286" cy="984" r="5"/><circle cx="2337" cy="1038" r="5"/><circle cx="2444" cy="1034" r="6"/><circle cx="2544" cy="992" r="5"/><circle cx="32" cy="1111" r="6"/><circle cx="92" cy="1049" r="6"/><circle cx="206" cy="1080" r="5"/><circle cx="257" cy="1058" r="4"/><circle cx="369" cy="1065" r="6"/><circle cx="433" cy="1109" r="4"/><circle cx="493" cy="1073" r="4"/><circle cx="594" cy="1052" r="4"/><circle cx="719" cy="1081" r="5"/><circle cx="764" cy="1099" r="5"/><circle cx="837" cy="1045" r="6"/><circle cx="925" cy="1042" r="5"/><circle cx="987" cy="1109" r="6"/><circle cx="1093" cy="1072" r="6"/><circle cx="1132" cy="1084" r="4"/><circle cx="1273" cy="1095" r="4"/><circle cx="1320" cy="1059" r="5"/><circle cx="1402" cy="1086" r="5"/><circle cx="1488" cy="1097" r="6"/><circle cx="1554" cy="1120" r="6"/><circle cx="1634" cy="1047" r="5"/><circle cx="1756" cy="1100" r="5"/><circle cx="1770" cy="1095" r="5"/><circle cx="1859" cy="1109" r="4"/><circle cx="1991" cy="1088" r="5"/><circle cx="2070" cy="1099" r="5"/><circle cx="2141" cy="1082" r="4"/><circle cx="2216" cy="1083" r="5"/><circle cx="2300" cy="1065" r="5"/><circle cx="2328" cy="1085" r="5"/><circle cx="2452" cy="1108" r="4"/><circle cx="2488" cy="1052" r="5"/><circle cx="16" cy="1162" r="5"/><circle cx="117" cy="1140" r="4"/><circle cx="184" cy="1182" r="5"/><circle cx="256" cy="1163" r="5"/><circle cx="374" cy="1172" r="6"/><circle cx="437" cy="1159" r="4"/><circle cx="535" cy="1147" r="4"/><circle cx="614" cy="1155" r="5"/><circle cx="689" cy="1195" r="4"/><circle cx="770" cy="1125" r="5"/><circle cx="829" cy="1188" r="4"/><circle cx="937" cy="1125" r="5"/><circle cx="964" cy="1122" r="4"/><circle cx="1048" cy="1139" r="5"/><circle cx="1177" cy="1162" r="4"/><circle cx="1258" cy="1156" r="6"/><circle cx="1283" cy="1177" r="5"/><circle cx="1364" cy="1197" r="5"/><circle cx="1504" cy="1169" r="5"/><circle cx="1544" cy="1167" r="5"/><circle cx="1618" cy="1127" r="5"/><circle cx="1720" cy="1165" r="6"/><circle cx="1802" cy="1180" r="4"/><circle cx="1844" cy="1145" r="4"/><circle cx="1922" cy="1137" r="5"/><circle cx="2034" cy="1186" r="4"/><circle cx="2157" cy="1124" r="5"/><circle cx="2226" cy="1131" r="6"/><circle cx="2309" cy="1161" r="5"/><circle cx="2355" cy="1181" r="5"/><circle cx="2426" cy="1137" r="4"/><circle cx="2508" cy="1175" r="6"/><circle cx="6" cy="1269" r="5"/><circle cx="90" cy="1279" r="5"/><circle cx="233" cy="1270" r="5"/><circle cx="276" cy="1241" r="5"/><circle cx="397" cy="1247" r="6"/><circle cx="479" cy="1280" r="4"/><circle cx="484" cy="1266" r="6"/><circle cx="622" cy="1209" r="4"/><circle cx="642" cy="1248" r="4"/><circle cx="768" cy="1228" r="5"/><circle cx="819" cy="1245" r="5"/><circle cx="937" cy="1223" r="6"/><circle cx="1011" cy="1246" r="4"/><circle cx="1068" cy="1275" r="5"/><circle cx="1183" cy="1224" r="5"/><circle cx="1245" cy="1236" r="6"/><circle cx="1311" cy="1224" r="4"/><circle cx="1371" cy="1263" r="5"/><circle cx="1455" cy="1239" r="4"/><circle cx="1538" cy="1218" r="5"/><circle cx="1644" cy="1213" r="5"/><circle cx="1688" cy="1246" r="6"/><circle cx="1812" cy="1225" r="5"/><circle cx="1895" cy="1238" r="5"/><circle cx="1992" cy="1270" r="6"/><circle cx="2049" cy="1260" r="4"/><circle cx="2088" cy="1279" r="4"/><circle cx="2166" cy="1272" r="5"/><circle cx="2257" cy="1226" r="4"/><circle cx="2355" cy="1229" r="5"/><circle cx="2447" cy="1207" r="6"/><circle cx="2491" cy="1202" r="5"/><circle cx="52" cy="1325" r="5"/><circle cx="91" cy="1295" r="5"/><circle cx="223" cy="1325" r="6"/><circle cx="262" cy="1295" r="4"/><circle cx="339" cy="1335" r="5"/><circle cx="464" cy="1295" r="5"/><circle cx="502" cy="1346" r="5"/><circle cx="573" cy="1336" r="6"/><circle cx="667" cy="1349" r="4"/><circle cx="742" cy="1333" r="6"/><circle cx="815" cy="1310" r="5"/><circle cx="925" cy="1358" r="6"/><circle cx="991" cy="1316" r="5"/><circle cx="1051" cy="1289" r="5"/><circle cx="1170" cy="1350" r="5"/><circle cx="1255" cy="1336" r="4"/><circle cx="1319" cy="1308" r="4"/><circle cx="1412" cy="1306" r="5"/><circle cx="1498" cy="1283" r="6"/><circle cx="1565" cy="1337" r="5"/><circle cx="1609" cy="1284" r="5"/><circle cx="1718" cy="1355" r="6"/><circle cx="1782" cy="1296" r="6"/><circle cx="1902" cy="1351" r="5"/><circle cx="1971" cy="1335" r="5"/><circle cx="2040" cy="1310" r="5"/><circle cx="2124" cy="1304" r="5"/><circle cx="2236" cy="1336" r="4"/><circle cx="2291" cy="1358" r="5"/><circle cx="2322" cy="1305" r="4"/><circle cx="2458" cy="1303" r="4"/><circle cx="2549" cy="1320" r="6"/><circle cx="58" cy="1439" r="5"/><circle cx="58" cy="-1" r="5"/><circle cx="159" cy="1369" r="5"/><circle cx="201" cy="1382" r="5"/><circle cx="273" cy="1414" r="5"/><circle cx="352" cy="1384" r="5"/><circle cx="452" cy="1438" r="5"/><circle cx="452" cy="-2" r="5"/><circle cx="496" cy="1417" r="4"/><circle cx="574" cy="1382" r="4"/><circle cx="716" cy="1361" r="6"/><circle cx="740" cy="1433" r="6"/><circle cx="814" cy="1434" r="5"/><circle cx="934" cy="1386" r="5"/><circle cx="992" cy="1395" r="5"/><circle cx="1107" cy="1416" r="5"/><circle cx="1153" cy="1416" r="6"/><circle cx="1248" cy="1431" r="6"/><circle cx="1301" cy="1368" r="5"/><circle cx="1402" cy="1360" r="4"/><circle cx="1516" cy="1410" r="5"/><circle cx="1531" cy="1397" r="5"/><circle cx="1638" cy="1361" r="6"/><circle cx="1681" cy="1369" r="5"/><circle cx="1822" cy="1404" r="5"/><circle cx="1856" cy="1383" r="6"/><circle cx="1993" cy="1382" r="5"/><circle cx="2045" cy="1432" r="4"/><circle cx="2085" cy="1391" r="5"/><circle cx="2179" cy="1426" r="5"/><circle cx="2276" cy="1428" r="6"/><circle cx="2391" cy="1384" r="6"/><circle cx="2445" cy="1422" r="4"/><circle cx="2501" cy="1372" r="4"/><path stroke="#fff" d="M48 61L121 18M48 61L-40 35M48 61L17 118M48 61L58 -1M2608 61L2520 35M48 1501L58 1439M121 18L228 29M121 18L58 -1M121 18L159 -71M121 1458L58 1439M121 1458L159 1369M228 29L266 63M228 29L202 86M228 29L201 -58M228 29L273 -26M228 1469L201 1382M228 1469L273 1414M266 63L202 86M266 63L276 149M266 63L326 120M266 63L273 -26M266 1503L273 1414M387 20L460 57M387 20L352 -56M387 20L452 -2M387 1460L352 1384M387 1460L452 1438M460 57L498 64M460 57L444 138M460 57L452 -2M460 57L496 -23M460 1497L452 1438M460 1497L496 1417M498 64L601 65M498 64L444 138M498 64L513 135M498 64L452 -2M498 1504L452 1438M601 65L695 71M601 65L590 124M601 65L651 84M695 71L745 33M695 71L651 84M695 71L737 149M695 71L740 -7M695 1511L740 1433M745 33L740 -7M745 33L814 -6M745 1473L740 1433M745 1473L814 1434M880 76L887 59M880 76L860 89M880 76L943 81M880 76L814 -6M880 1516L814 1434M887 59L860 89M887 59L943 81M887 59L814 -6M887 59L934 -54M887 1499L814 1434M887 1499L934 1386M1004 69L1085 60M1004 69L943 81M1004 69L1001 103M1085 60L1128 29M1085 60L1069 128M1085 60L1128 85M1085 60L1107 -24M1085 1500L1107 1416M1128 29L1228 4M1128 29L1128 85M1128 29L1107 -24M1128 29L1153 -24M1128 1469L1107 1416M1128 1469L1153 1416M1228 4L1331 31M1228 4L1153 -24M1228 4L1248 -9M1228 4L1301 -72M1228 1444L1153 1416M1228 1444L1248 1431M1228 1444L1301 1368M1331 31L1331 112M1331 31L1248 -9M1331 31L1301 -72M1331 1471L1248 1431M1331 1471L1301 1368M1433 16L1488 24M1433 16L1522 2M1433 16L1423 85M1433 16L1447 108M1433 16L1516 -30M1433 1456L1516 1410M1488 24L1522 2M1488 24L1447 108M1488 24L1516 -30M1488 24L1531 -43M1488 1464L1516 1410M1488 1464L1531 1397M1522 2L1516 -30M1522 2L1531 -43M1522 1442L1516 1410M1522 1442L1531 1397M1632 56L1682 28M1632 56L1624 133M1632 56L1721 86M1682 28L1721 86M1682 28L1681 -71M1682 1468L1681 1369M1819 53L1857 73M1819 53L1721 86M1819 53L1819 83M1819 53L1822 -36M1819 53L1856 -57M1819 1493L1822 1404M1819 1493L1856 1383M1857 73L1819 83M1857 73L1858 147M1857 73L1822 -36M1857 73L1856 -57M1857 1513L1822 1404M1857 1513L1856 1383M1987 75L2023 56M1987 75L1988 113M1987 75L2031 126M1987 75L2024 192M1987 75L2045 -8M1987 1515L2045 1432M2023 56L2120 52M2023 56L1988 113M2023 56L2031 126M2023 56L2045 -8M2023 1496L2045 1432M2120 52L2183 20M2120 52L2121 148M2120 52L2169 126M2120 52L2179 -14M2120 1492L2179 1426M2183 20L2169 126M2183 20L2179 -14M2183 20L2276 -12M2183 1460L2179 1426M2183 1460L2276 1428M2294 16L2351 1M2294 16L2306 123M2294 16L2276 -12M2294 1456L2276 1428M2351 1L2291 -82M2351 1L2276 -12M2351 1L2391 -56M2351 1L2445 -18M2351 1441L2291 1358M2351 1441L2276 1428M2351 1441L2391 1384M2351 1441L2445 1422M2453 52L2520 35M2453 52L2355 114M2453 52L2420 127M2453 52L2445 -18M2453 1492L2445 1422M2520 35L2577 118M2520 35L2618 -1M2520 35L2445 -18M-40 35L17 118M-40 35L58 -1M-40 1475L58 1439M2520 1475L2618 1439M2520 1475L2445 1422M17 118L-11 144M17 118L71 207M17 118L-42 217M2577 118L2549 144M2577 118L2518 217M143 134L202 86M143 134L71 207M143 134L136 189M143 134L199 193M143 134L99 242M276 149L326 120M276 149L199 193M276 149L284 168M326 120L284 168M326 120L359 198M444 138L513 135M444 138L461 174M513 135L590 124M513 135L461 174M513 135L553 222M590 124L651 84M590 124L677 166M651 84L737 149M651 84L677 166M737 149L677 166M737 149L733 216M860 89L943 81M860 89L814 -6M860 1529L814 1434M943 81L1001 103M1001 103L1069 128M1069 128L1128 85M1069 128L1017 192M1069 128L1109 175M1128 85L1202 139M1128 85L1109 175M1202 139L1109 175M1202 139L1162 187M1202 139L1257 228M1331 112L1423 85M1331 112L1328 181M1331 112L1391 200M1423 85L1447 108M1423 85L1522 144M1447 108L1522 144M1447 108L1474 187M1522 144L1624 133M1522 144L1474 187M1522 144L1558 180M1624 133L1721 86M1624 133L1558 180M1624 133L1654 229M1721 86L1819 83M1819 83L1858 147M1858 147L1848 213M1988 113L2031 126M1988 113L1970 203M1988 113L2024 192M2031 126L2121 148M2031 126L2024 192M2121 148L2169 126M2121 148L2153 191M2121 148L2217 177M2169 126L2153 191M2169 126L2217 177M2306 123L2355 114M2306 123L2307 198M2306 123L2387 164M2355 114L2420 127M2355 114L2387 164M2420 127L2387 164M2420 127L2475 169M2549 144L2475 169M2549 144L2518 217M71 207L136 189M71 207L35 247M71 207L99 242M136 189L199 193M136 189L99 242M136 189L191 262M199 193L284 168M199 193L191 262M284 168L359 198M284 168L272 289M359 198L461 174M359 198L375 256M359 198L408 258M461 174L408 258M461 174L506 265M553 222L631 216M553 222L506 265M553 222L587 247M631 216L677 166M631 216L587 247M631 216L677 308M677 166L733 216M733 216L677 308M733 216L794 283M733 216L725 331M873 233L924 209M873 233L794 283M873 233L867 251M873 233L934 245M924 209L1017 192M924 209L867 251M924 209L934 245M1017 192L1109 175M1017 192L1006 287M1017 192L1052 255M1109 175L1162 187M1257 228L1328 181M1257 228L1200 312M1257 228L1257 244M1257 228L1286 306M1328 181L1391 200M1328 181L1257 244M1391 200L1474 187M1391 200L1417 281M1391 200L1457 289M1474 187L1558 180M1474 187L1457 289M1558 180L1539 263M1654 229L1712 233M1654 229L1646 308M1654 229L1715 293M1712 233L1776 226M1712 233L1715 293M1712 233L1814 257M1776 226L1848 213M1776 226L1814 257M1848 213L1814 257M1970 203L2024 192M1970 203L1965 289M1970 203L2055 246M2024 192L2055 246M2153 191L2217 177M2153 191L2055 246M2217 177L2307 198M2217 177L2230 286M2307 198L2387 164M2307 198L2270 289M2307 198L2335 250M2387 164L2475 169M2475 169L2518 217M2518 217L2595 247M2518 217L2551 295M-42 217L35 247M35 247L99 242M35 247L-9 295M2595 247L2551 295M99 242L191 262M191 262L272 289M191 262L266 330M272 289L375 256M272 289L266 330M375 256L408 258M408 258L506 265M408 258L430 348M506 265L587 247M506 265L528 369M587 247L677 308M587 247L649 324M677 308L649 324M677 308L725 331M794 283L867 251M794 283L725 331M794 283L839 354M867 251L934 245M867 251L839 354M934 245L1006 287M934 245L983 327M1006 287L1052 255M1006 287L983 327M1006 287L1072 367M1052 255L983 327M1200 312L1257 244M1200 312L1190 333M1200 312L1258 361M1257 244L1286 306M1257 244L1190 333M1286 306L1258 361M1286 306L1323 377M1286 306L1370 346M1417 281L1457 289M1417 281L1370 346M1457 289L1539 263M1457 289L1370 346M1646 308L1715 293M1646 308L1632 334M1646 308L1700 337M1646 308L1651 401M1715 293L1632 334M1715 293L1700 337M1814 257L1864 317M1814 257L1813 352M1864 317L1813 352M1864 317L1886 398M1864 317L1956 321M1864 317L1910 424M1965 289L2055 246M1965 289L1956 321M2055 246L2085 290M2085 290L2077 384M2085 290L2100 378M2085 290L2164 331M2230 286L2270 289M2230 286L2335 250M2230 286L2164 331M2230 286L2308 361M2270 289L2335 250M2270 289L2164 331M2270 289L2308 361M2459 303L2551 295M2459 303L2371 365M2459 303L2459 355M2459 303L2484 395M2459 303L2490 401M2551 295L2601 365M2551 295L2459 355M-9 295L41 365M41 365L123 369M41 365L78 430M41 365L112 415M123 369L172 373M123 369L78 430M123 369L112 415M172 373L266 330M172 373L112 415M172 373L233 434M172 373L246 444M266 330L350 388M350 388L430 348M350 388L335 448M350 388L402 415M430 348L528 369M430 348L402 415M528 369L580 399M528 369L502 426M528 369L579 415M580 399L649 324M580 399L502 426M580 399L579 415M649 324L725 331M725 331L704 435M839 354L885 379M839 354L822 447M839 354L906 429M885 379L822 447M885 379L906 429M983 327L1072 367M983 327L973 418M1072 367L1190 333M1072 367L1056 477M1190 333L1258 361M1190 333L1166 416M1258 361L1323 377M1258 361L1307 437M1323 377L1370 346M1323 377L1307 437M1323 377L1401 467M1513 397L1547 387M1513 397L1456 411M1513 397L1534 476M1513 397L1522 485M1547 387L1632 334M1547 387L1456 411M1547 387L1534 476M1547 387L1522 485M1632 334L1700 337M1632 334L1651 401M1700 337L1651 401M1700 337L1727 419M1813 352L1886 398M1813 352L1727 419M1813 352L1825 455M1886 398L1825 455M1886 398L1910 424M2077 384L2100 378M2077 384L1993 450M2077 384L2022 438M2077 384L2093 416M2100 378L2164 331M2100 378L2022 438M2100 378L2093 416M2308 361L2371 365M2308 361L2318 420M2308 361L2379 436M2371 365L2459 355M2371 365L2318 420M2371 365L2379 436M2459 355L2484 395M2459 355L2490 401M2484 395L2437 464M2484 395L2490 401M78 430L112 415M112 415L165 500M233 434L246 444M233 434L165 500M233 434L311 508M246 444L335 448M246 444L165 500M246 444L311 508M335 448L402 415M335 448L311 508M335 448L378 483M402 415L502 426M402 415L378 483M502 426L579 415M502 426L490 487M579 415L490 487M579 415L626 493M704 435L734 460M704 435L626 493M704 435L708 529M704 435L749 485M734 460L822 447M734 460L708 529M734 460L749 485M822 447L906 429M822 447L749 485M906 429L973 418M906 429L946 482M973 418L1056 477M973 418L946 482M973 418L984 499M1056 477L946 482M1056 477L984 499M1056 477L1102 555M1166 416L1222 480M1222 480L1307 437M1222 480L1243 548M1222 480L1296 518M1307 437L1401 467M1307 437L1296 518M1401 467L1456 411M1401 467L1431 483M1456 411L1431 483M1534 476L1500 533M1534 476L1522 485M1651 401L1727 419M1651 401L1648 507M1727 419L1825 455M1727 419L1735 515M1825 455L1910 424M1825 455L1811 539M1910 424L1993 450M1993 450L2022 438M1993 450L2024 550M1993 450L2083 502M2022 438L2093 416M2022 438L2083 502M2093 416L2183 479M2093 416L2083 502M2183 479L2083 502M2183 479L2204 538M2183 479L2252 518M2318 420L2379 436M2318 420L2252 518M2379 436L2437 464M2379 436L2490 401M2437 464L2490 401M2437 464L2460 526M2437 464L2499 539M8 534L-100 526M8 534L-61 539M8 534L58 575M8 534L-42 584M2568 534L2460 526M2568 534L2499 539M2568 534L2518 584M156 538L165 500M156 538L115 564M156 538L217 623M165 500L115 564M311 508L378 483M311 508L330 605M378 483L445 518M378 483L490 487M445 518L490 487M445 518L460 612M626 493L610 573M626 493L650 583M708 529L749 485M708 529L650 583M708 529L725 609M869 543L946 482M869 543L984 499M869 543L801 621M869 543L855 667M946 482L984 499M1102 555L1156 557M1102 555L1029 590M1102 555L1114 602M1102 555L1139 620M1156 557L1243 548M1156 557L1114 602M1156 557L1139 620M1156 557L1214 585M1243 548L1296 518M1243 548L1214 585M1243 548L1321 577M1296 518L1321 577M1431 483L1500 533M1431 483L1522 485M1431 483L1418 583M1500 533L1522 485M1500 533L1418 583M1500 533L1482 602M1648 507L1735 515M1648 507L1635 599M1735 515L1811 539M1735 515L1751 615M1811 539L1908 539M1811 539L1823 603M1811 539L1855 592M1908 539L1931 555M1908 539L1823 603M1908 539L1855 592M1908 539L2001 589M1931 555L2024 550M1931 555L1855 592M1931 555L1995 634M1931 555L2001 589M2024 550L2083 502M2024 550L1995 634M2024 550L2001 589M2204 538L2252 518M2204 538L2106 602M2204 538L2236 632M2252 518L2337 556M2252 518L2290 603M2337 556L2290 603M2337 556L2365 592M2337 556L2346 641M2460 526L2499 539M2460 526L2518 584M2499 539L2518 584M58 575L115 564M58 575L19 653M58 575L124 646M115 564L124 646M217 623L270 634M217 623L124 646M217 623L205 701M217 623L246 695M270 634L330 605M270 634L246 695M270 634L278 742M330 605L396 690M330 605L428 668M460 612L540 632M460 612L396 690M460 612L428 668M460 612L557 653M540 632L610 573M540 632L557 653M610 573L650 583M610 573L557 653M650 583L725 609M650 583L698 650M725 609L801 621M725 609L698 650M725 609L720 673M801 621L698 650M801 621L720 673M801 621L855 667M955 628L1029 590M955 628L855 667M955 628L887 708M955 628L999 685M955 628L1042 674M1029 590L1114 602M1029 590L999 685M1029 590L1042 674M1114 602L1139 620M1114 602L1125 701M1139 620L1214 585M1139 620L1125 701M1214 585L1321 577M1214 585L1261 684M1321 577L1418 583M1321 577L1334 691M1418 583L1482 602M1418 583L1413 687M1482 602L1575 629M1482 602L1465 711M1575 629L1635 599M1575 629L1569 695M1751 615L1823 603M1751 615L1754 700M1751 615L1767 712M1823 603L1855 592M1823 603L1845 688M1995 634L2001 589M1995 634L1948 672M1995 634L2017 689M2001 589L1948 672M2106 602L2137 667M2236 632L2290 603M2236 632L2137 667M2236 632L2219 706M2236 632L2280 715M2290 603L2365 592M2290 603L2346 641M2365 592L2408 636M2365 592L2346 641M2365 592L2462 666M2408 636L2346 641M2408 636L2462 666M2408 636L2404 722M2518 584L2579 653M2518 584L2462 666M-42 584L19 653M19 653L-30 689M19 653L43 733M2579 653L2530 689M124 646L127 732M205 701L246 695M205 701L127 732M205 701L167 785M205 701L278 742M246 695L278 742M396 690L428 668M396 690L365 753M396 690L417 790M557 653L596 757M640 720L698 650M640 720L720 673M640 720L596 757M640 720L717 768M640 720L650 814M698 650L720 673M855 667L887 708M887 708L897 799M887 708L980 753M999 685L1042 674M999 685L980 753M999 685L1092 740M1042 674L1125 701M1042 674L1092 740M1125 701L1092 740M1125 701L1147 726M1261 684L1334 691M1261 684L1147 726M1261 684L1259 770M1334 691L1413 687M1334 691L1348 734M1413 687L1465 711M1413 687L1348 734M1413 687L1435 742M1465 711L1569 695M1465 711L1435 742M1465 711L1469 787M1569 695L1661 713M1569 695L1615 742M1661 713L1754 700M1661 713L1593 797M1661 713L1615 742M1661 713L1703 791M1754 700L1767 712M1754 700L1845 688M1754 700L1790 737M1767 712L1845 688M1767 712L1790 737M1845 688L1790 737M1948 672L2017 689M1948 672L1936 725M1948 672L2010 728M2017 689L1936 725M2017 689L2010 728M2137 667L2219 706M2137 667L2142 756M2219 706L2280 715M2219 706L2230 751M2219 706L2297 730M2280 715L2230 751M2280 715L2297 730M2280 715L2341 780M2346 641L2297 730M2462 666L2530 689M2462 666L2404 722M2530 689L2603 733M2530 689L2524 786M-30 689L43 733M43 733L127 732M43 733L-36 786M2603 733L2524 786M127 732L167 785M127 732L108 839M167 785L108 839M167 785L186 841M167 785L199 883M278 742L365 753M278 742L295 805M365 753L417 790M365 753L295 805M365 753L341 857M417 790L509 763M417 790L341 857M417 790L455 820M509 763L596 757M509 763L455 820M596 757L569 844M596 757L650 814M717 768L726 790M717 768L816 783M717 768L650 814M717 768L747 816M726 790L816 783M726 790L650 814M726 790L747 816M816 783L897 799M816 783L747 816M816 783L819 874M897 799L980 753M897 799L939 841M897 799L890 881M980 753L939 841M980 753L1074 824M1092 740L1147 726M1092 740L1074 824M1147 726L1074 824M1147 726L1169 842M1259 770L1348 734M1259 770L1169 842M1259 770L1266 808M1259 770L1318 811M1348 734L1435 742M1348 734L1318 811M1435 742L1469 787M1435 742L1492 838M1469 787L1429 870M1469 787L1492 838M1469 787L1450 887M1593 797L1615 742M1593 797L1703 791M1593 797L1597 805M1593 797L1619 838M1615 742L1597 805M1703 791L1700 864M1703 791L1677 883M1889 789L1936 725M1889 789L1830 844M1889 789L1851 872M1889 789L1928 805M1889 789L1848 883M1936 725L2010 728M1936 725L1928 805M2010 728L2001 838M2142 756L2230 751M2142 756L2136 816M2142 756L2193 808M2230 751L2297 730M2230 751L2193 808M2297 730L2341 780M2341 780L2404 722M2341 780L2361 840M2341 780L2447 802M2404 722L2447 802M2524 786L2626 860M2524 786L2447 802M2524 786L2482 864M-36 786L66 860M66 860L108 839M66 860L40 943M66 860L139 939M108 839L186 841M108 839L139 939M186 841L295 805M186 841L199 883M295 805L341 857M295 805L378 883M341 857L295 935M341 857L378 883M455 820L496 880M455 820L378 883M455 820L465 906M496 880L569 844M496 880L465 906M496 880L507 942M496 880L561 944M569 844L650 814M569 844L507 942M569 844L561 944M747 816L819 874M819 874L726 952M819 874L859 929M819 874L890 881M939 841L1032 854M939 841L890 881M939 841L962 935M1032 854L1074 824M1032 854L962 935M1032 854L1084 950M1074 824L1169 842M1169 842L1266 808M1169 842L1133 951M1266 808L1318 811M1318 811L1343 883M1429 870L1492 838M1429 870L1343 883M1429 870L1371 935M1429 870L1450 887M1492 838L1450 887M1492 838L1560 907M1597 805L1619 838M1619 838L1700 864M1619 838L1560 907M1619 838L1677 883M1700 864L1677 883M1700 864L1747 932M1700 864L1647 964M1830 844L1851 872M1830 844L1810 915M1830 844L1848 883M1851 872L1928 805M1851 872L1810 915M1851 872L1848 883M1928 805L2001 838M2001 838L1946 931M2001 838L2026 882M2001 838L2083 900M2136 816L2193 808M2136 816L2026 882M2136 816L2083 900M2193 808L2265 871M2265 871L2361 840M2265 871L2200 930M2265 871L2292 942M2265 871L2328 913M2361 840L2447 802M2361 840L2328 913M2447 802L2482 864M2482 864L2457 917M2482 864L2544 947M40 943L139 939M40 943L-16 947M40 943L18 1031M40 943L-16 992M2600 943L2544 947M2600 943L2544 992M139 939L199 883M139 939L128 1006M199 883L295 935M199 883L251 962M295 935L378 883M295 935L234 1006M295 935L251 962M378 883L465 906M465 906L507 942M507 942L561 944M507 942L532 1021M561 944L655 931M561 944L532 1021M655 931L726 952M655 931L632 1027M726 952L682 1027M726 952L775 1017M859 929L890 881M859 929L962 935M859 929L868 979M859 929L934 961M890 881L934 961M962 935L934 961M1084 950L1133 951M1084 950L1072 1000M1084 950L1128 1011M1133 951L1072 1000M1133 951L1128 1011M1261 933L1343 883M1261 933L1246 1032M1261 933L1334 982M1343 883L1371 935M1343 883L1334 982M1371 935L1450 887M1371 935L1334 982M1371 935L1366 1015M1450 887L1518 964M1560 907L1518 964M1560 907L1525 961M1560 907L1647 964M1677 883L1747 932M1677 883L1647 964M1747 932L1810 915M1747 932L1698 1031M1747 932L1780 963M1810 915L1848 883M1810 915L1780 963M1848 883L1780 963M1946 931L2026 882M1946 931L1850 1016M1946 931L1991 1032M1946 931L2037 977M2026 882L2083 900M2026 882L2037 977M2083 900L2037 977M2083 900L2123 971M2200 930L2292 942M2200 930L2123 971M2200 930L2213 990M2292 942L2328 913M2292 942L2213 990M2292 942L2286 984M2328 913L2286 984M2328 913L2337 1038M2457 917L2544 947M2544 947L2544 992M18 1031L-16 992M18 1031L32 1111M18 1031L92 1049M18 1031L-72 1052M2578 1031L2544 992M2578 1031L2488 1052M128 1006L234 1006M128 1006L92 1049M234 1006L251 962M234 1006L206 1080M234 1006L257 1058M251 962L257 1058M388 1012L404 994M388 1012L369 1065M388 1012L433 1109M404 994L369 1065M532 1021L632 1027M532 1021L493 1073M532 1021L594 1052M632 1027L682 1027M632 1027L594 1052M632 1027L719 1081M682 1027L775 1017M682 1027L594 1052M682 1027L719 1081M775 1017L719 1081M775 1017L764 1099M775 1017L837 1045M868 979L934 961M868 979L837 1045M868 979L925 1042M934 961L925 1042M1036 1034L1072 1000M1036 1034L987 1109M1036 1034L1093 1072M1036 1034L1048 1139M1072 1000L1128 1011M1072 1000L1093 1072M1128 1011L1093 1072M1128 1011L1132 1084M1246 1032L1366 1015M1246 1032L1273 1095M1246 1032L1320 1059M1334 982L1366 1015M1334 982L1320 1059M1366 1015L1320 1059M1366 1015L1402 1086M1518 964L1525 961M1647 964L1698 1031M1647 964L1634 1047M1698 1031L1634 1047M1698 1031L1756 1100M1698 1031L1770 1095M1780 963L1850 1016M1850 1016L1859 1109M1991 1032L2037 977M1991 1032L1991 1088M1991 1032L2070 1099M1991 1032L1922 1137M2037 977L2123 971M2123 971L2213 990M2213 990L2286 984M2213 990L2216 1083M2286 984L2337 1038M2286 984L2300 1065M2337 1038L2444 1034M2337 1038L2300 1065M2337 1038L2328 1085M2444 1034L2544 992M2444 1034L2452 1108M2444 1034L2488 1052M2544 992L2488 1052M32 1111L92 1049M32 1111L16 1162M32 1111L117 1140M92 1049L206 1080M92 1049L117 1140M206 1080L257 1058M206 1080L184 1182M206 1080L256 1163M257 1058L369 1065M257 1058L256 1163M369 1065L433 1109M369 1065L374 1172M433 1109L493 1073M433 1109L374 1172M433 1109L437 1159M493 1073L594 1052M493 1073L535 1147M594 1052L614 1155M719 1081L764 1099M719 1081L770 1125M764 1099L837 1045M764 1099L770 1125M764 1099L829 1188M837 1045L925 1042M837 1045L770 1125M925 1042L987 1109M925 1042L937 1125M987 1109L937 1125M987 1109L964 1122M987 1109L1048 1139M1093 1072L1132 1084M1093 1072L1048 1139M1132 1084L1048 1139M1132 1084L1177 1162M1273 1095L1320 1059M1273 1095L1258 1156M1273 1095L1283 1177M1320 1059L1402 1086M1402 1086L1488 1097M1488 1097L1554 1120M1488 1097L1504 1169M1488 1097L1544 1167M1554 1120L1504 1169M1554 1120L1544 1167M1554 1120L1618 1127M1554 1120L1538 1218M1634 1047L1618 1127M1756 1100L1770 1095M1756 1100L1720 1165M1756 1100L1802 1180M1770 1095L1859 1109M1770 1095L1720 1165M1770 1095L1802 1180M1859 1109L1844 1145M1859 1109L1922 1137M1991 1088L2070 1099M1991 1088L1922 1137M1991 1088L2034 1186M2070 1099L2141 1082M2070 1099L2034 1186M2070 1099L2157 1124M2141 1082L2216 1083M2141 1082L2157 1124M2216 1083L2300 1065M2216 1083L2157 1124M2216 1083L2226 1131M2300 1065L2328 1085M2300 1065L2226 1131M2328 1085L2309 1161M2328 1085L2355 1181M2452 1108L2488 1052M2452 1108L2426 1137M2452 1108L2508 1175M16 1162L117 1140M16 1162L-52 1175M16 1162L6 1269M16 1162L-69 1202M2576 1162L2508 1175M2576 1162L2491 1202M117 1140L184 1182M184 1182L256 1163M184 1182L233 1270M184 1182L276 1241M256 1163L374 1172M256 1163L276 1241M374 1172L437 1159M374 1172L397 1247M437 1159L535 1147M437 1159L397 1247M535 1147L614 1155M535 1147L622 1209M614 1155L689 1195M614 1155L622 1209M614 1155L642 1248M689 1195L622 1209M689 1195L642 1248M689 1195L768 1228M770 1125L829 1188M829 1188L768 1228M829 1188L819 1245M937 1125L964 1122M937 1125L937 1223M964 1122L1048 1139M964 1122L937 1223M1177 1162L1258 1156M1177 1162L1183 1224M1258 1156L1283 1177M1258 1156L1245 1236M1258 1156L1311 1224M1283 1177L1364 1197M1283 1177L1245 1236M1283 1177L1311 1224M1364 1197L1311 1224M1364 1197L1371 1263M1504 1169L1544 1167M1504 1169L1455 1239M1504 1169L1538 1218M1544 1167L1618 1127M1544 1167L1538 1218M1618 1127L1644 1213M1720 1165L1802 1180M1720 1165L1644 1213M1720 1165L1688 1246M1802 1180L1844 1145M1802 1180L1812 1225M1844 1145L1922 1137M1844 1145L1812 1225M1844 1145L1895 1238M1922 1137L1895 1238M2034 1186L1992 1270M2034 1186L2049 1260M2157 1124L2226 1131M2226 1131L2309 1161M2226 1131L2257 1226M2309 1161L2355 1181M2309 1161L2257 1226M2309 1161L2355 1229M2355 1181L2426 1137M2355 1181L2355 1229M2355 1181L2447 1207M2426 1137L2508 1175M2426 1137L2447 1207M2426 1137L2491 1202M2508 1175L2447 1207M2508 1175L2491 1202M6 1269L90 1279M6 1269L52 1325M6 1269L91 1295M6 1269L-11 1320M2566 1269L2549 1320M90 1279L52 1325M90 1279L91 1295M90 1279L-11 1320M90 1279L159 1369M2650 1279L2549 1320M233 1270L276 1241M233 1270L223 1325M233 1270L262 1295M276 1241L223 1325M276 1241L262 1295M397 1247L479 1280M397 1247L484 1266M397 1247L464 1295M479 1280L484 1266M479 1280L464 1295M479 1280L502 1346M484 1266L464 1295M484 1266L502 1346M484 1266L573 1336M622 1209L642 1248M768 1228L819 1245M768 1228L742 1333M768 1228L815 1310M819 1245L937 1223M819 1245L815 1310M937 1223L1011 1246M1011 1246L1068 1275M1011 1246L991 1316M1011 1246L1051 1289M1068 1275L1183 1224M1068 1275L1051 1289M1183 1224L1245 1236M1183 1224L1170 1350M1245 1236L1311 1224M1245 1236L1255 1336M1311 1224L1371 1263M1371 1263L1455 1239M1371 1263L1319 1308M1371 1263L1412 1306M1455 1239L1538 1218M1455 1239L1412 1306M1455 1239L1498 1283M1538 1218L1498 1283M1644 1213L1688 1246M1644 1213L1609 1284M1688 1246L1609 1284M1688 1246L1718 1355M1688 1246L1782 1296M1812 1225L1895 1238M1812 1225L1782 1296M1895 1238L1992 1270M1992 1270L2049 1260M1992 1270L1971 1335M1992 1270L2040 1310M2049 1260L2088 1279M2049 1260L2040 1310M2049 1260L2124 1304M2088 1279L2166 1272M2088 1279L2040 1310M2088 1279L2124 1304M2088 1279L2085 1391M2166 1272L2257 1226M2166 1272L2124 1304M2166 1272L2236 1336M2257 1226L2355 1229M2257 1226L2322 1305M2355 1229L2447 1207M2355 1229L2322 1305M2447 1207L2491 1202M2491 1202L2458 1303M52 1325L91 1295M52 1325L-11 1320M52 1325L58 1439M2612 1325L2549 1320M91 1295L159 1369M223 1325L262 1295M223 1325L159 1369M223 1325L201 1382M262 1295L339 1335M262 1295L201 1382M339 1335L273 1414M339 1335L352 1384M464 1295L502 1346M464 1295L573 1336M502 1346L573 1336M502 1346L496 1417M573 1336L667 1349M573 1336L574 1382M667 1349L742 1333M667 1349L574 1382M667 1349L716 1361M742 1333L815 1310M742 1333L716 1361M742 1333L740 1433M815 1310L925 1358M815 1310L716 1361M925 1358L991 1316M925 1358L934 1386M925 1358L992 1395M991 1316L1051 1289M991 1316L934 1386M991 1316L992 1395M1051 1289L992 1395M1170 1350L1255 1336M1170 1350L1107 1416M1170 1350L1153 1416M1255 1336L1319 1308M1255 1336L1248 1431M1255 1336L1301 1368M1319 1308L1412 1306M1319 1308L1301 1368M1319 1308L1402 1360M1412 1306L1498 1283M1412 1306L1402 1360M1498 1283L1565 1337M1498 1283L1609 1284M1565 1337L1609 1284M1565 1337L1516 1410M1565 1337L1531 1397M1565 1337L1638 1361M1609 1284L1638 1361M1718 1355L1782 1296M1718 1355L1638 1361M1718 1355L1681 1369M1782 1296L1822 1404M1782 1296L1856 1383M1902 1351L1971 1335M1902 1351L1822 1404M1902 1351L1856 1383M1902 1351L1993 1382M1971 1335L2040 1310M1971 1335L1993 1382M2040 1310L2124 1304M2124 1304L2085 1391M2236 1336L2291 1358M2236 1336L2322 1305M2236 1336L2179 1426M2291 1358L2322 1305M2291 1358L2276 1428M2291 1358L2391 1384M2322 1305L2391 1384M2458 1303L2549 1320M2458 1303L2391 1384M2458 1303L2501 1372M2549 1320L2501 1372M159 1369L201 1382M201 1382L273 1414M273 1414L352 1384M352 1384L452 1438M452 1438L496 1417M496 1417L574 1382M716 1361L740 1433M740 1433L814 1434M934 1386L992 1395M992 1395L1107 1416M1107 1416L1153 1416M1153 1416L1248 1431M1248 1431L1301 1368M1516 1410L1531 1397M1531 1397L1638 1361M1638 1361L1681 1369M1822 1404L1856 1383M1993 1382L2045 1432M1993 1382L2085 1391M2045 1432L2085 1391M2085 1391L2179 1426M2179 1426L2276 1428M2391 1384L2445 1422M2445 1422L2501 1372"/></svg>