<svg xmlns="http://www.w3.org/2000/svg" width="2560" height="1440" fill="#fff"><circle cx="32" cy="34" r="6"/><circle cx="122" cy="1" r="6"/><circle cx="122" cy="1441" r="6"/><circle cx="203" cy="15" r="4"/><circle cx="252" cy="16" r="5"/><circle cx="381" cy="62" r="5"/><circle cx="440" cy="78" r="4"/><circle cx="520" cy="49" r="4"/><circle cx="590" cy="77" r="5"/><circle cx="689" cy="9" r="5"/><circle cx="748" cy="4" r="5"/><circle cx="748" cy="1444" r="5"/><circle cx="876" cy="71" r="5"/><circle cx="939" cy="55" r="6"/><circle cx="998" cy="68" r="4"/><circle cx="1077" cy="32" r="5"/><circle cx="1172" cy="45" r="4"/><circle cx="1249" cy="10" r="6"/><circle cx="1302" cy="52" r="6"/><circle cx="1376" cy="19" r="6"/><circle cx="1471" cy="49" r="5"/><circle cx="1547" cy="78" r="5"/><circle cx="1664" cy="60" r="5"/><circle cx="1696" cy="74" r="5"/><circle cx="1771" cy="75" r="4"/><circle cx="1858" cy="2" r="5"/><circle cx="1858" cy="1442" r="5"/><circle cx="1968" cy="44" r="4"/><circle cx="2069" cy="71" r="5"/><circle cx="2100" cy="34" r="5"/><circle cx="2195" cy="80" r="4"/><circle cx="2291" cy="35" r="5"/><circle cx="2367" cy="11" r="4"/><circle cx="2456" cy="63" r="5"/><circle cx="2527" cy="44" r="4"/><circle cx="61" cy="86" r="5"/><circle cx="153" cy="91" r="5"/><circle cx="211" cy="114" r="4"/><circle cx="271" cy="144" r="5"/><circle cx="343" cy="151" r="4"/><circle cx="421" cy="134" r="5"/><circle cx="554" cy="152" r="6"/><circle cx="632" cy="155" r="4"/><circle cx="713" cy="85" r="4"/><circle cx="723" cy="90" r="5"/><circle cx="871" cy="85" r="4"/><circle cx="904" cy="137" r="5"/><circle cx="989" cy="140" r="5"/><circle cx="1093" cy="159" r="5"/><circle cx="1166" cy="104" r="4"/><circle cx="1276" cy="112" r="5"/><circle cx="1313" cy="134" r="6"/><circle cx="1377" cy="113" r="4"/><circle cx="1520" cy="157" r="4"/><circle cx="1581" cy="88" r="6"/><circle cx="1630" cy="139" r="5"/><circle cx="1753" cy="97" r="5"/><circle cx="1799" cy="122" r="4"/><circle cx="1913" cy="93" r="4"/><circle cx="1973" cy="157" r="6"/><circle cx="2025" cy="156" r="5"/><circle cx="2103" cy="135" r="6"/><circle cx="2179" cy="82" r="6"/><circle cx="2243" cy="128" r="5"/><circle cx="2372" cy="107" r="5"/><circle cx="2453" cy="116" r="5"/><circle cx="2531" cy="140" r="5"/><circle cx="71" cy="234" r="6"/><circle cx="112" cy="181" r="6"/><circle cx="209" cy="207" r="5"/><circle cx="276" cy="171" r="5"/><circle cx="357" cy="212" r="5"/><circle cx="412" cy="164" r="4"/><circle cx="512" cy="178" r="5"/><circle cx="577" cy="225" r="6"/><circle cx="668" cy="219" r="5"/><circle cx="766" cy="175" r="5"/><circle cx="856" cy="204" r="4"/><circle cx="938" cy="201" r="4"/><circle cx="962" cy="178" r="5"/><circle cx="1055" cy="222" r="5"/><circle cx="1193" cy="209" r="6"/><circle cx="1261" cy="176" r="5"/><circle cx="1285" cy="198" r="5"/><circle cx="1438" cy="176" r="5"/><circle cx="1503" cy="182" r="5"/><circle cx="1590" cy="173" r="5"/><circle cx="1672" cy="224" r="5"/><circle cx="1696" cy="208" r="5"/><circle cx="1789" cy="174" r="6"/><circle cx="1851" cy="167" r="6"/><circle cx="1969" cy="187" r="6"/><circle cx="2000" cy="232" r="4"/><circle cx="2148" cy="196" r="5"/><circle cx="2161" cy="223" r="5"/><circle cx="2308" cy="236" r="5"/><circle cx="2350" cy="193" r="5"/><circle cx="2448" cy="165" r="5"/><circle cx="2496" cy="168" r="5"/><circle cx="60" cy="295" r="5"/><circle cx="141" cy="263" r="6"/><circle cx="223" cy="257" r="5"/><circle cx="266" cy="295" r="5"/><circle cx="320" cy="254" r="6"/><circle cx="417" cy="301" r="6"/><circle cx="543" cy="253" r="6"/><circle cx="602" cy="260" r="6"/><circle cx="645" cy="286" r="5"/><circle cx="726" cy="286" r="5"/><circle cx="816" cy="298" r="6"/><circle cx="925" cy="319" r="6"/><circle cx="1027" cy="276" r="4"/><circle cx="1049" cy="269" r="5"/><circle cx="1176" cy="250" r="5"/><circle cx="1240" cy="269" r="4"/><circle cx="1339" cy="270" r="6"/><circle cx="1424" cy="289" r="4"/><circle cx="1511" cy="256" r="4"/><circle cx="1543" cy="294" r="5"/><circle cx="1621" cy="315" r="5"/><circle cx="1729" cy="303" r="5"/><circle cx="1812" cy="260" r="6"/><circle cx="1877" cy="317" r="5"/><circle cx="1936" cy="261" r="5"/><circle cx="2061" cy="252" r="4"/><circle cx="2082" cy="282" r="6"/><circle cx="2185" cy="260" r="5"/><circle cx="2308" cy="255" r="6"/><circle cx="2376" cy="282" r="4"/><circle cx="2433" cy="297" r="4"/><circle cx="2534" cy="319" r="6"/><circle cx="64" cy="374" r="5"/><circle cx="88" cy="398" r="4"/><circle cx="235" cy="387" r="5"/><circle cx="251" cy="369" r="5"/><circle cx="333" cy="328" r="4"/><circle cx="427" cy="321" r="5"/><circle cx="489" cy="391" r="6"/><circle cx="584" cy="387" r="4"/><circle cx="698" cy="322" r="4"/><circle cx="721" cy="357" r="6"/><circle cx="806" cy="355" r="5"/><circle cx="940" cy="357" r="6"/><circle cx="1028" cy="347" r="4"/><circle cx="1044" cy="339" r="5"/><circle cx="1125" cy="395" r="4"/><circle cx="1225" cy="338" r="4"/><circle cx="1288" cy="355" r="6"/><circle cx="1384" cy="378" r="5"/><circle cx="1514" cy="330" r="5"/><circle cx="1549" cy="396" r="4"/><circle cx="1636" cy="388" r="6"/><circle cx="1750" cy="385" r="5"/><circle cx="1797" cy="322" r="5"/><circle cx="1886" cy="375" r="6"/><circle cx="1926" cy="337" r="4"/><circle cx="2018" cy="380" r="6"/><circle cx="2159" cy="354" r="5"/><circle cx="2232" cy="350" r="6"/><circle cx="2312" cy="350" r="5"/><circle cx="2361" cy="324" r="5"/><circle cx="2415" cy="346" r="6"/><circle cx="2528" cy="360" r="4"/><circle cx="10" cy="450" r="4"/><circle cx="96" cy="413" r="5"/><circle cx="161" cy="449" r="4"/><circle cx="242" cy="457" r="5"/><circle cx="357" cy="452" r="6"/><circle cx="425" cy="437" r="4"/><circle cx="481" cy="418" r="4"/><circle cx="623" cy="460" r="5"/><circle cx="677" cy="454" r="6"/><circle cx="789" cy="437" r="5"/><circle cx="875" cy="444" r="5"/><circle cx="893" cy="410" r="4"/><circle cx="969" cy="408" r="5"/><circle cx="1101" cy="437" r="5"/><circle cx="1139" cy="410" r="5"/><circle cx="1208" cy="427" r="5"/><circle cx="1314" cy="402" r="5"/><circle cx="1433" cy="430" r="5"/><circle cx="1461" cy="463" r="5"/><circle cx="1596" cy="418" r="6"/><circle cx="1631" cy="447" r="5"/><circle cx="1758" cy="470" r="4"/><circle cx="1798" cy="442" r="6"/><circle cx="1906" cy="458" r="6"/><circle cx="1931" cy="474" r="4"/><circle cx="2061" cy="410" r="6"/><circle cx="2087" cy="472" r="6"/><circle cx="2227" cy="420" r="6"/><circle cx="2296" cy="475" r="5"/><circle cx="2389" cy="447" r="6"/><circle cx="2473" cy="457" r="4"/><circle cx="2536" cy="464" r="6"/><circle cx="77" cy="480" r="5"/><circle cx="152" cy="527" r="4"/><circle cx="185" cy="555" r="6"/><circle cx="291" cy="558" r="6"/><circle cx="329" cy="543" r="5"/><circle cx="445" cy="494" r="5"/><circle cx="483" cy="547" r="6"/><circle cx="616" cy="491" r="5"/><circle cx="697" cy="540" r="5"/><circle cx="771" cy="521" r="5"/><circle cx="823" cy="525" r="4"/><circle cx="924" cy="492" r="6"/><circle cx="1036" cy="541" r="6"/><circle cx="1052" cy="530" r="4"/><circle cx="1149" cy="518" r="5"/><circle cx="1237" cy="480" r="5"/><circle cx="1338" cy="517" r="5"/><circle cx="1418" cy="513" r="5"/><circle cx="1479" cy="502" r="4"/><circle cx="1590" cy="542" r="5"/><circle cx="1652" cy="537" r="5"/><circle cx="1698" cy="512" r="5"/><circle cx="1766" cy="500" r="6"/><circle cx="1841" cy="540" r="6"/><circle cx="1921" cy="520" r="5"/><circle cx="2058" cy="481" r="6"/><circle cx="2138" cy="483" r="5"/><circle cx="2234" cy="484" r="6"/><circle cx="2263" cy="534" r="5"/><circle cx="2335" cy="529" r="5"/><circle cx="2444" cy="558" r="5"/><circle cx="2554" cy="541" r="5"/><circle cx="28" cy="585" r="5"/><circle cx="154" cy="629" r="5"/><circle cx="217" cy="610" r="5"/><circle cx="271" cy="623" r="4"/><circle cx="396" cy="629" r="5"/><circle cx="418" cy="591" r="5"/><circle cx="493" cy="585" r="5"/><circle cx="616" cy="575" r="4"/><circle cx="662" cy="597" r="4"/><circle cx="741" cy="580" r="5"/><circle cx="837" cy="573" r="4"/><circle cx="937" cy="564" r="5"/><circle cx="1013" cy="594" r="4"/><circle cx="1103" cy="589" r="6"/><circle cx="1177" cy="594" r="5"/><circle cx="1238" cy="605" r="4"/><circle cx="1289" cy="621" r="6"/><circle cx="1434" cy="626" r="5"/><circle cx="1471" cy="600" r="5"/><circle cx="1570" cy="630" r="6"/><circle cx="1652" cy="567" r="4"/><circle cx="1688" cy="565" r="5"/><circle cx="1833" cy="561" r="4"/><circle cx="1850" cy="574" r="5"/><circle cx="1936" cy="615" r="5"/><circle cx="2041" cy="616" r="4"/><circle cx="2115" cy="615" r="4"/><circle cx="2239" cy="566" r="4"/><circle cx="2281" cy="614" r="6"/><circle cx="2385" cy="604" r="5"/><circle cx="2430" cy="577" r="6"/><circle cx="2556" cy="626" r="6"/><circle cx="-4" cy="626" r="6"/><circle cx="70" cy="678" r="5"/><circle cx="106" cy="666" r="5"/><circle cx="228" cy="689" r="5"/><circle cx="302" cy="684" r="5"/><circle cx="372" cy="712" r="5"/><circle cx="443" cy="657" r="5"/><circle cx="515" cy="710" r="5"/><circle cx="594" cy="688" r="5"/><circle cx="705" cy="691" r="6"/><circle cx="754" cy="657" r="4"/><circle cx="825" cy="706" r="4"/><circle cx="905" cy="679" r="5"/><circle cx="979" cy="692" r="4"/><circle cx="1046" cy="673" r="5"/><circle cx="1181" cy="695" r="6"/><circle cx="1258" cy="664" r="4"/><circle cx="1342" cy="662" r="4"/><circle cx="1378" cy="653" r="6"/><circle cx="1480" cy="702" r="5"/><circle cx="1524" cy="678" r="4"/><circle cx="1608" cy="641" r="4"/><circle cx="1719" cy="674" r="4"/><circle cx="1776" cy="642" r="6"/><circle cx="1843" cy="646" r="6"/><circle cx="1969" cy="687" r="5"/><circle cx="2014" cy="706" r="6"/><circle cx="2133" cy="670" r="4"/><circle cx="2185" cy="702" r="6"/><circle cx="2296" cy="677" r="5"/><circle cx="2340" cy="657" r="5"/><circle cx="2411" cy="659" r="5"/><circle cx="2481" cy="701" r="6"/><circle cx="61" cy="772" r="5"/><circle cx="132" cy="781" r="5"/><circle cx="240" cy="763" r="6"/><circle cx="277" cy="737" r="5"/><circle cx="347" cy="757" r="6"/><circle cx="463" cy="763" r="5"/><circle cx="539" cy="759" r="5"/><circle cx="601" cy="762" r="5"/><circle cx="671" cy="740" r="6"/><circle cx="768" cy="729" r="6"/><circle cx="853" cy="739" r="4"/><circle cx="901" cy="736" r="5"/><circle cx="1006" cy="797" r="4"/><circle cx="1069" cy="776" r="6"/><circle cx="1148" cy="788" r="4"/><circle cx="1250" cy="792" r="6"/><circle cx="1302" cy="789" r="5"/><circle cx="1423" cy="798" r="4"/><circle cx="1508" cy="723" r="6"/><circle cx="1579" cy="752" r="5"/><circle cx="1605" cy="774" r="5"/><circle cx="1727" cy="780" r="5"/><circle cx="1764" cy="722" r="4"/><circle cx="1874" cy="731" r="5"/><circle cx="1949" cy="748" r="4"/><circle cx="2067" cy="783" r="6"/><circle cx="2120" cy="721" r="4"/><circle cx="2167" cy="731" r="6"/><circle cx="2305" cy="764" r="4"/><circle cx="2396" cy="723" r="6"/><circle cx="2410" cy="762" r="6"/><circle cx="2529" cy="770" r="5"/><circle cx="65" cy="803" r="5"/><circle cx="149" cy="812" r="4"/><circle cx="227" cy="862" r="5"/><circle cx="287" cy="828" r="5"/><circle cx="331" cy="802" r="4"/><circle cx="425" cy="874" r="6"/><circle cx="504" cy="823" r="5"/><circle cx="627" cy="849" r="4"/><circle cx="692" cy="804" r="4"/><circle cx="759" cy="826" r="5"/><circle cx="817" cy="852" r="6"/><circle cx="931" cy="833" r="5"/><circle cx="1001" cy="815" r="5"/><circle cx="1091" cy="809" r="4"/><circle cx="1163" cy="851" r="5"/><circle cx="1213" cy="876" r="5"/><circle cx="1341" cy="829" r="6"/><circle cx="1436" cy="855" r="4"/><circle cx="1442" cy="846" r="5"/><circle cx="1545" cy="836" r="5"/><circle cx="1672" cy="802" r="4"/><circle cx="1686" cy="848" r="6"/><circle cx="1808" cy="829" r="6"/><circle cx="1912" cy="872" r="6"/><circle cx="1943" cy="847" r="5"/><circle cx="2052" cy="835" r="4"/><circle cx="2131" cy="859" r="5"/><circle cx="2229" cy="866" r="4"/><circle cx="2308" cy="844" r="5"/><circle cx="2375" cy="831" r="6"/><circle cx="2414" cy="817" r="4"/><circle cx="2512" cy="880" r="6"/><circle cx="57" cy="926" r="5"/><circle cx="146" cy="919" r="4"/><circle cx="175" cy="896" r="6"/><circle cx="302" cy="950" r="6"/><circle cx="337" cy="922" r="6"/><circle cx="426" cy="958" r="5"/><circle cx="551" cy="956" r="4"/><circle cx="576" cy="881" r="5"/><circle cx="689" cy="955" r="5"/><circle cx="745" cy="896" r="5"/><circle cx="804" cy="919" r="5"/><circle cx="941" cy="927" r="5"/><circle cx="994" cy="921" r="5"/><circle cx="1105" cy="949" r="6"/><circle cx="1178" cy="943" r="6"/><circle cx="1240" cy="892" r="5"/><circle cx="1293" cy="890" r="6"/><circle cx="1370" cy="938" r="5"/><circle cx="1492" cy="951" r="4"/><circle cx="1589" cy="922" r="6"/><circle cx="1645" cy="952" r="5"/><circle cx="1724" cy="911" r="5"/><circle cx="1765" cy="942" r="4"/><circle cx="1916" cy="911" r="5"/><circle cx="1969" cy="903" r="5"/><circle cx="2051" cy="894" r="5"/><circle cx="2103" cy="929" r="6"/><circle cx="2163" cy="920" r="5"/><circle cx="2319" cy="908" r="5"/><circle cx="2352" cy="911" r="5"/><circle cx="2400" cy="914" r="5"/><circle cx="2493" cy="922" r="5"/><circle cx="4" cy="977" r="5"/><circle cx="2564" cy="977" r="5"/><circle cx="138" cy="1021" r="6"/><circle cx="224" cy="1037" r="6"/><circle cx="278" cy="1011" r="5"/><circle cx="354" cy="1006" r="5"/><circle cx="428" cy="1024" r="5"/><circle cx="497" cy="1007" r="5"/><circle cx="605" cy="987" r="4"/><circle cx="687" cy="989" r="5"/><circle cx="756" cy="1025" r="4"/><circle cx="817" cy="1017" r="5"/><circle cx="902" cy="1025" r="5"/><circle cx="1004" cy="989" r="5"/><circle cx="1051" cy="1017" r="5"/><circle cx="1142" cy="969" r="5"/><circle cx="1267" cy="1020" r="6"/><circle cx="1300" cy="961" r="4"/><circle cx="1399" cy="1023" r="5"/><circle cx="1457" cy="1013" r="5"/><circle cx="1560" cy="978" r="4"/><circle cx="1670" cy="1010" r="4"/><circle cx="1733" cy="1010" r="5"/><circle cx="1791" cy="1011" r="6"/><circle cx="1885" cy="983" r="5"/><circle cx="1942" cy="997" r="5"/><circle cx="2076" cy="1039" r="5"/><circle cx="2097" cy="964" r="4"/><circle cx="2240" cy="971" r="4"/><circle cx="2286" cy="991" r="5"/><circle cx="2382" cy="1005" r="5"/><circle cx="2455" cy="1033" r="6"/><circle cx="2529" cy="964" r="6"/><circle cx="33" cy="1064" r="5"/><circle cx="152" cy="1049" r="5"/><circle cx="188" cy="1108" r="5"/><circle cx="282" cy="1040" r="5"/><circle cx="388" cy="1075" r="6"/><circle cx="478" cy="1074" r="6"/><circle cx="546" cy="1105" r="4"/><circle cx="620" cy="1051" r="5"/><circle cx="645" cy="1079" r="6"/><circle cx="762" cy="1053" r="4"/><circle cx="879" cy="1084" r="5"/><circle cx="931" cy="1067" r="5"/><circle cx="983" cy="1071" r="4"/><circle cx="1085" cy="1117" r="6"/><circle cx="1180" cy="1075" r="5"/><circle cx="1246" cy="1106" r="5"/><circle cx="1284" cy="1113" r="5"/><circle cx="1433" cy="1051" r="4"/><circle cx="1496" cy="1101" r="6"/><circle cx="1583" cy="1109" r="4"/><circle cx="1648" cy="1106" r="5"/><circle cx="1716" cy="1043" r="6"/><circle cx="1811" cy="1048" r="5"/><circle cx="1854" cy="1079" r="5"/><circle cx="1958" cy="1069" r="5"/><circle cx="2014" cy="1111" r="5"/><circle cx="2088" cy="1042" r="4"/><circle cx="2167" cy="1073" r="4"/><circle cx="2312" cy="1073" r="5"/><circle cx="2344" cy="1070" r="5"/><circle cx="2449" cy="1044" r="5"/><circle cx="2532" cy="1079" r="5"/><circle cx="10" cy="1164" r="5"/><circle cx="160" cy="1200" r="5"/><circle cx="225" cy="1130" r="5"/><circle cx="302" cy="1145" r="6"/><circle cx="367" cy="1164" r="5"/><circle cx="448" cy="1193" r="5"/><circle cx="559" cy="1129" r="5"/><circle cx="603" cy="1136" r="5"/><circle cx="651" cy="1177" r="5"/><circle cx="775" cy="1192" r="5"/><circle cx="832" cy="1151" r="4"/><circle cx="880" cy="1157" r="6"/><circle cx="984" cy="1152" r="4"/><circle cx="1058" cy="1154" r="5"/><circle cx="1154" cy="1166" r="5"/><circle cx="1232" cy="1196" r="5"/><circle cx="1304" cy="1158" r="4"/><circle cx="1399" cy="1162" r="6"/><circle cx="1482" cy="1162" r="6"/><circle cx="1581" cy="1145" r="4"/><circle cx="1670" cy="1171" r="5"/><circle cx="1740" cy="1152" r="6"/><circle cx="1794" cy="1197" r="5"/><circle cx="1861" cy="1154" r="6"/><circle cx="1950" cy="1180" r="6"/><circle cx="2032" cy="1146" r="5"/><circle cx="2139" cy="1155" r="5"/><circle cx="2211" cy="1144" r="4"/><circle cx="2312" cy="1150" r="4"/><circle cx="2400" cy="1131" r="4"/><circle cx="2459" cy="1149" r="4"/><circle cx="2533" cy="1148" r="5"/><circle cx="24" cy="1219" r="5"/><circle cx="127" cy="1219" r="5"/><circle cx="193" cy="1238" r="4"/><circle cx="256" cy="1256" r="4"/><circle cx="351" cy="1269" r="5"/><circle cx="426" cy="1278" r="6"/><circle cx="548" cy="1250" r="6"/><circle cx="611" cy="1247" r="6"/><circle cx="677" cy="1270" r="5"/><circle cx="794" cy="1279" r="4"/><circle cx="839" cy="1211" r="5"/><circle cx="908" cy="1280" r="4"/><circle cx="1027" cy="1267" r="5"/><circle cx="1102" cy="1252" r="5"/><circle cx="1126" cy="1229" r="4"/><circle cx="1265" cy="1234" r="5"/><circle cx="1336" cy="1224" r="6"/><circle cx="1376" cy="1239" r="5"/><circle cx="1456" cy="1246" r="4"/><circle cx="1574" cy="1221" r="4"/><circle cx="1624" cy="1242" r="4"/><circle cx="1720" cy="1214" r="6"/><circle cx="1835" cy="1255" r="4"/><circle cx="1848" cy="1223" r="4"/><circle cx="1996" cy="1216" r="5"/><circle cx="2054" cy="1222" r="5"/><circle cx="2135" cy="1243" r="6"/><circle cx="2194" cy="1252" r="4"/><circle cx="2247" cy="1239" r="5"/><circle cx="2322" cy="1205" r="4"/><circle cx="2419" cy="1239" r="5"/><circle cx="2491" cy="1267" r="5"/><circle cx="10" cy="1357" r="4"/><circle cx="157" cy="1291" r="6"/><circle cx="230" cy="1323" r="6"/><circle cx="275" cy="1344" r="6"/><circle cx="326" cy="1286" r="5"/><circle cx="422" cy="1344" r="5"/><circle cx="505" cy="1319" r="5"/><circle cx="625" cy="1350" r="5"/><circle cx="650" cy="1301" r="5"/><circle cx="782" cy="1282" r="4"/><circle cx="870" cy="1305" r="5"/><circle cx="936" cy="1350" r="6"/><circle cx="991" cy="1292" r="4"/><circle cx="1107" cy="1314" r="5"/><circle cx="1129" cy="1281" r="5"/><circle cx="1240" cy="1336" r="6"/><circle cx="1354" cy="1309" r="5"/><circle cx="1423" cy="1317" r="6"/><circle cx="1496" cy="1293" r="5"/><circle cx="1591" cy="1292" r="4"/><circle cx="1677" cy="1284" r="5"/><circle cx="1747" cy="1302" r="5"/><circle cx="1830" cy="1347" r="4"/><circle cx="1876" cy="1339" r="4"/><circle cx="1981" cy="1302" r="5"/><circle cx="2029" cy="1286" r="5"/><circle cx="2110" cy="1350" r="5"/><circle cx="2210" cy="1295" r="5"/><circle cx="2256" cy="1289" r="6"/><circle cx="2380" cy="1348" r="6"/><circle cx="2433" cy="1318" r="5"/><circle cx="2490" cy="1359" r="5"/><circle cx="7" cy="1392" r="6"/><circle cx="157" cy="1394" r="4"/><circle cx="239" cy="1400" r="5"/><circle cx="247" cy="1440" r="6"/><circle cx="247" cy="-0" r="6"/><circle cx="350" cy="1384" r="5"/><circle cx="412" cy="1397" r="5"/><circle cx="538" cy="1439" r="6"/><circle cx="538" cy="-1" r="6"/><circle cx="563" cy="1369" r="4"/><circle cx="709" cy="1415" r="4"/><circle cx="774" cy="1408" r="5"/><circle cx="836" cy="1385" r="6"/><circle cx="890" cy="1435" r="5"/><circle cx="999" cy="1365" r="5"/><circle cx="1103" cy="1412" r="6"/><circle cx="1147" cy="1387" r="5"/><circle cx="1274" cy="1379" r="5"/><circle cx="1351" cy="1437" r="5"/><circle cx="1351" cy="-3" r="5"/><circle cx="1396" cy="1369" r="4"/><circle cx="1488" cy="1363" r="5"/><circle cx="1533" cy="1419" r="5"/><circle cx="1660" cy="1400" r="4"/><circle cx="1701" cy="1404" r="6"/><circle cx="1777" cy="1408" r="4"/><circle cx="1871" cy="1415" r="6"/><circle cx="1946" cy="1432" r="5"/><circle cx="2005" cy="1399" r="6"/><circle cx="2101" cy="1362" r="4"/><circle cx="2185" cy="1391" r="5"/><circle cx="2311" cy="1429" r="5"/><circle cx="2385" cy="1380" r="6"/><circle cx="2410" cy="1412" r="6"/><circle cx="2513" cy="1440" r="4"/><circle cx="2513" cy="-0" r="4"/><path stroke="#fff" d="M32 34L122 1M32 34L-33 44M32 34L61 86M32 34L7 -48M32 34L-47 -0M2592 34L2527 44M2592 34L2513 -0M32 1474L7 1392M32 1474L-47 1440M2592 1474L2513 1440M122 1L203 15M122 1L61 86M122 1L153 91M122 1L157 -46M122 1441L157 1394M203 15L252 16M203 15L157 -46M203 15L239 -40M203 15L247 -0M203 1455L157 1394M203 1455L239 1400M203 1455L247 1440M252 16L211 114M252 16L239 -40M252 16L247 -0M252 1456L239 1400M252 1456L247 1440M381 62L440 78M381 62L421 134M381 62L412 -43M381 1502L412 1397M440 78L520 49M440 78L421 134M440 78L412 164M520 49L590 77M520 49L538 -1M520 1489L538 1439M590 77L554 152M590 77L632 155M590 77L538 -1M590 1517L538 1439M689 9L748 4M689 9L713 85M689 9L723 90M689 9L709 -25M689 9L774 -32M689 1449L709 1415M689 1449L774 1408M748 4L713 85M748 4L723 90M748 4L709 -25M748 4L774 -32M748 1444L709 1415M748 1444L774 1408M876 71L939 55M876 71L871 85M876 71L904 137M876 71L890 -5M876 1511L890 1435M939 55L998 68M939 55L871 85M939 55L890 -5M939 1495L890 1435M998 68L1077 32M998 68L989 140M1077 32L1172 45M1077 32L1166 104M1077 32L1103 -28M1077 1472L1103 1412M1172 45L1249 10M1172 45L1166 104M1172 45L1103 -28M1172 45L1147 -53M1172 1485L1103 1412M1172 1485L1147 1387M1249 10L1302 52M1249 10L1240 -104M1249 10L1274 -61M1249 10L1351 -3M1249 1450L1240 1336M1249 1450L1274 1379M1249 1450L1351 1437M1302 52L1376 19M1302 52L1276 112M1302 52L1313 134M1302 52L1351 -3M1302 1492L1351 1437M1376 19L1471 49M1376 19L1377 113M1376 19L1351 -3M1376 19L1396 -71M1376 1459L1351 1437M1376 1459L1396 1369M1471 49L1547 78M1471 49L1533 -21M1471 1489L1533 1419M1547 78L1520 157M1547 78L1581 88M1547 78L1533 -21M1547 1518L1533 1419M1664 60L1696 74M1664 60L1581 88M1664 60L1630 139M1664 60L1753 97M1664 60L1701 -36M1664 1500L1701 1404M1696 74L1771 75M1696 74L1753 97M1696 74L1701 -36M1696 1514L1701 1404M1771 75L1753 97M1771 75L1799 122M1858 2L1830 -93M1858 2L1876 -101M1858 2L1777 -32M1858 2L1871 -25M1858 2L1946 -8M1858 1442L1830 1347M1858 1442L1876 1339M1858 1442L1777 1408M1858 1442L1871 1415M1858 1442L1946 1432M1968 44L2069 71M1968 44L1913 93M1968 44L1946 -8M1968 44L2005 -41M1968 1484L1946 1432M1968 1484L2005 1399M2069 71L2100 34M2069 71L2025 156M2069 71L2103 135M2069 71L2179 82M2100 34L2195 80M2100 34L2103 135M2100 34L2179 82M2195 80L2179 82M2195 80L2243 128M2291 35L2367 11M2291 35L2243 128M2291 35L2311 -11M2291 1475L2311 1429M2367 11L2372 107M2367 11L2311 -11M2367 11L2385 -60M2367 11L2410 -28M2367 1451L2311 1429M2367 1451L2385 1380M2367 1451L2410 1412M2456 63L2527 44M2456 63L2372 107M2456 63L2453 116M2456 63L2410 -28M2456 63L2513 -0M2456 1503L2410 1412M2456 1503L2513 1440M2527 44L2531 140M2527 44L2567 -48M2527 44L2513 -0M-33 44L7 -48M-33 1484L7 1392M2527 1484L2567 1392M2527 1484L2513 1440M61 86L153 91M61 86L-29 140M61 86L112 181M2621 86L2531 140M153 91L211 114M153 91L112 181M211 114L271 144M271 144L343 151M271 144L209 207M271 144L276 171M343 151L421 134M343 151L276 171M343 151L357 212M343 151L412 164M421 134L357 212M421 134L412 164M554 152L632 155M554 152L512 178M554 152L577 225M554 152L543 253M632 155L668 219M632 155L602 260M713 85L723 90M713 85L766 175M713 85L709 -25M713 1525L709 1415M723 90L766 175M871 85L904 137M871 85L890 -5M871 1525L890 1435M904 137L989 140M904 137L938 201M904 137L962 178M989 140L1093 159M989 140L938 201M989 140L962 178M1093 159L1166 104M1093 159L1055 222M1093 159L1193 209M1093 159L1049 269M1276 112L1313 134M1276 112L1377 113M1276 112L1261 176M1276 112L1285 198M1313 134L1377 113M1313 134L1261 176M1313 134L1285 198M1377 113L1438 176M1520 157L1581 88M1520 157L1438 176M1520 157L1503 182M1520 157L1590 173M1581 88L1630 139M1581 88L1590 173M1630 139L1590 173M1630 139L1672 224M1630 139L1696 208M1753 97L1799 122M1753 97L1789 174M1799 122L1789 174M1799 122L1851 167M1913 93L1973 157M1913 93L1851 167M1913 93L1946 -8M1913 1533L1946 1432M1973 157L2025 156M1973 157L1969 187M1973 157L2000 232M1973 157L1936 261M2025 156L2103 135M2025 156L1969 187M2025 156L2000 232M2103 135L2179 82M2103 135L2148 196M2179 82L2243 128M2243 128L2161 223M2372 107L2453 116M2372 107L2350 193M2372 107L2448 165M2453 116L2531 140M2453 116L2448 165M2453 116L2496 168M2531 140L2448 165M2531 140L2496 168M71 234L112 181M71 234L60 295M71 234L141 263M112 181L209 207M112 181L141 263M209 207L276 171M209 207L141 263M209 207L223 257M276 171L357 212M276 171L320 254M357 212L412 164M357 212L320 254M412 164L512 178M512 178L577 225M512 178L543 253M577 225L543 253M577 225L602 260M577 225L645 286M668 219L766 175M668 219L602 260M668 219L645 286M668 219L726 286M766 175L856 204M856 204L938 201M856 204L962 178M856 204L816 298M938 201L962 178M962 178L1055 222M1055 222L1027 276M1055 222L1049 269M1193 209L1261 176M1193 209L1285 198M1193 209L1176 250M1193 209L1240 269M1261 176L1285 198M1285 198L1339 270M1438 176L1503 182M1438 176L1424 289M1438 176L1511 256M1503 182L1590 173M1503 182L1511 256M1503 182L1543 294M1590 173L1672 224M1672 224L1696 208M1672 224L1621 315M1672 224L1729 303M1696 208L1789 174M1696 208L1729 303M1789 174L1851 167M1789 174L1812 260M1851 167L1969 187M1851 167L1812 260M1969 187L2000 232M1969 187L1936 261M2000 232L1936 261M2000 232L2061 252M2148 196L2161 223M2148 196L2061 252M2148 196L2185 260M2161 223L2061 252M2161 223L2082 282M2161 223L2185 260M2308 236L2350 193M2308 236L2308 255M2308 236L2376 282M2350 193L2448 165M2350 193L2308 255M2448 165L2496 168M60 295L141 263M60 295L-26 319M60 295L64 374M2620 295L2534 319M141 263L223 257M223 257L266 295M223 257L320 254M223 257L251 369M266 295L320 254M266 295L235 387M266 295L251 369M266 295L333 328M320 254L333 328M417 301L333 328M417 301L427 321M417 301L489 391M543 253L602 260M602 260L645 286M645 286L726 286M645 286L698 322M726 286L816 298M726 286L698 322M726 286L721 357M816 298L925 319M816 298L806 355M925 319L940 357M925 319L893 410M925 319L969 408M1027 276L1049 269M1027 276L1028 347M1027 276L1044 339M1049 269L1028 347M1049 269L1044 339M1176 250L1240 269M1176 250L1225 338M1240 269L1339 270M1240 269L1225 338M1240 269L1288 355M1339 270L1424 289M1339 270L1288 355M1339 270L1384 378M1424 289L1511 256M1424 289L1384 378M1424 289L1514 330M1511 256L1543 294M1511 256L1514 330M1543 294L1621 315M1543 294L1514 330M1543 294L1549 396M1621 315L1636 388M1621 315L1596 418M1729 303L1812 260M1729 303L1750 385M1729 303L1797 322M1812 260L1877 317M1812 260L1797 322M1877 317L1936 261M1877 317L1797 322M1877 317L1886 375M1877 317L1926 337M1936 261L1926 337M2061 252L2082 282M2082 282L2185 260M2082 282L2018 380M2082 282L2159 354M2185 260L2159 354M2185 260L2232 350M2308 255L2376 282M2308 255L2312 350M2308 255L2361 324M2376 282L2433 297M2376 282L2361 324M2376 282L2415 346M2433 297L2534 319M2433 297L2361 324M2433 297L2415 346M2433 297L2528 360M2534 319L2624 374M2534 319L2528 360M-26 319L64 374M64 374L88 398M64 374L10 450M64 374L96 413M88 398L96 413M88 398L77 480M235 387L251 369M235 387L161 449M235 387L242 457M251 369L333 328M251 369L242 457M333 328L427 321M427 321L489 391M427 321L425 437M427 321L481 418M489 391L584 387M489 391L425 437M489 391L481 418M584 387L623 460M584 387L616 491M698 322L721 357M721 357L806 355M721 357L677 454M721 357L789 437M806 355L789 437M940 357L1028 347M940 357L1044 339M940 357L893 410M940 357L969 408M1028 347L1044 339M1028 347L969 408M1125 395L1101 437M1125 395L1139 410M1125 395L1208 427M1225 338L1288 355M1225 338L1208 427M1288 355L1384 378M1288 355L1314 402M1384 378L1314 402M1384 378L1433 430M1514 330L1549 396M1514 330L1596 418M1549 396L1636 388M1549 396L1596 418M1636 388L1750 385M1636 388L1596 418M1636 388L1631 447M1750 385L1797 322M1750 385L1758 470M1750 385L1798 442M1797 322L1886 375M1886 375L1926 337M1886 375L1798 442M1886 375L1906 458M1926 337L2018 380M2018 380L2061 410M2018 380L2087 472M2018 380L2058 481M2159 354L2232 350M2159 354L2061 410M2159 354L2227 420M2232 350L2312 350M2232 350L2227 420M2312 350L2361 324M2312 350L2415 346M2361 324L2415 346M2415 346L2389 447M2528 360L2536 464M10 450L96 413M10 450L-24 464M10 450L77 480M10 450L-6 541M2570 450L2536 464M2570 450L2554 541M96 413L161 449M96 413L77 480M161 449L242 457M161 449L152 527M242 457L185 555M242 457L291 558M357 452L425 437M357 452L329 543M357 452L445 494M425 437L481 418M425 437L445 494M481 418L445 494M623 460L677 454M623 460L616 491M623 460L616 575M677 454L616 491M677 454L697 540M789 437L875 444M789 437L771 521M789 437L823 525M875 444L893 410M875 444L823 525M875 444L924 492M893 410L969 408M893 410L924 492M969 408L924 492M1101 437L1139 410M1101 437L1149 518M1139 410L1208 427M1139 410L1237 480M1208 427L1314 402M1208 427L1237 480M1314 402L1237 480M1314 402L1338 517M1433 430L1461 463M1433 430L1338 517M1433 430L1418 513M1433 430L1479 502M1461 463L1418 513M1461 463L1479 502M1596 418L1631 447M1631 447L1590 542M1631 447L1652 537M1758 470L1798 442M1758 470L1698 512M1758 470L1766 500M1798 442L1766 500M1906 458L1931 474M1906 458L1841 540M1906 458L1921 520M1931 474L1921 520M1931 474L2058 481M2061 410L2087 472M2061 410L2058 481M2061 410L2138 483M2087 472L2058 481M2087 472L2138 483M2227 420L2296 475M2227 420L2138 483M2227 420L2234 484M2296 475L2389 447M2296 475L2234 484M2296 475L2263 534M2296 475L2335 529M2389 447L2473 457M2389 447L2335 529M2473 457L2536 464M2473 457L2444 558M2536 464L2637 480M2536 464L2554 541M-24 464L77 480M77 480L-6 541M2637 480L2554 541M152 527L185 555M185 555L291 558M185 555L154 629M185 555L217 610M291 558L329 543M291 558L217 610M291 558L271 623M329 543L271 623M329 543L396 629M445 494L483 547M445 494L418 591M483 547L418 591M483 547L493 585M616 491L697 540M616 491L616 575M697 540L771 521M697 540L662 597M697 540L741 580M771 521L823 525M771 521L741 580M771 521L837 573M823 525L837 573M924 492L937 564M1036 541L1052 530M1036 541L937 564M1036 541L1013 594M1036 541L1103 589M1052 530L1149 518M1052 530L1013 594M1052 530L1103 589M1149 518L1237 480M1149 518L1103 589M1149 518L1177 594M1237 480L1338 517M1338 517L1418 513M1338 517L1289 621M1418 513L1479 502M1418 513L1471 600M1590 542L1652 537M1590 542L1570 630M1590 542L1652 567M1590 542L1688 565M1652 537L1698 512M1652 537L1652 567M1652 537L1688 565M1698 512L1766 500M1698 512L1652 567M1698 512L1688 565M1766 500L1841 540M1766 500L1833 561M1841 540L1921 520M1841 540L1833 561M1841 540L1850 574M1921 520L1850 574M1921 520L1936 615M2058 481L2138 483M2138 483L2234 484M2234 484L2263 534M2234 484L2239 566M2263 534L2335 529M2263 534L2239 566M2263 534L2281 614M2335 529L2385 604M2444 558L2385 604M2444 558L2430 577M2554 541L2588 585M2554 541L2556 626M-6 541L28 585M28 585L-4 626M28 585L70 678M28 585L106 666M2588 585L2556 626M154 629L217 610M154 629L70 678M154 629L106 666M217 610L271 623M217 610L228 689M271 623L228 689M271 623L302 684M396 629L418 591M396 629L493 585M396 629L372 712M396 629L443 657M418 591L493 585M418 591L443 657M493 585L443 657M616 575L662 597M662 597L741 580M662 597L705 691M741 580L837 573M741 580L754 657M837 573L937 564M937 564L1013 594M937 564L905 679M1013 594L1103 589M1013 594L1046 673M1103 589L1177 594M1177 594L1238 605M1177 594L1181 695M1238 605L1289 621M1238 605L1181 695M1238 605L1258 664M1289 621L1258 664M1289 621L1342 662M1289 621L1378 653M1434 626L1471 600M1434 626L1342 662M1434 626L1378 653M1434 626L1480 702M1471 600L1570 630M1471 600L1378 653M1471 600L1524 678M1570 630L1524 678M1570 630L1608 641M1570 630L1508 723M1652 567L1688 565M1652 567L1608 641M1833 561L1850 574M1833 561L1776 642M1833 561L1843 646M1850 574L1776 642M1850 574L1843 646M1936 615L2041 616M1936 615L1843 646M1936 615L1969 687M2041 616L2115 615M2041 616L1969 687M2041 616L2014 706M2041 616L2133 670M2115 615L2133 670M2115 615L2185 702M2239 566L2281 614M2281 614L2296 677M2281 614L2340 657M2385 604L2430 577M2385 604L2340 657M2385 604L2411 659M2430 577L2411 659M2556 626L2630 678M2556 626L2666 666M2556 626L2481 701M-4 626L70 678M-4 626L106 666M70 678L106 666M70 678L61 772M228 689L302 684M228 689L240 763M228 689L277 737M302 684L372 712M302 684L277 737M302 684L347 757M372 712L443 657M372 712L347 757M443 657L515 710M515 710L594 688M515 710L463 763M515 710L539 759M515 710L601 762M594 688L705 691M594 688L539 759M594 688L601 762M594 688L671 740M705 691L754 657M705 691L671 740M705 691L768 729M754 657L825 706M754 657L768 729M825 706L905 679M825 706L768 729M825 706L853 739M825 706L901 736M905 679L979 692M905 679L853 739M905 679L901 736M979 692L1046 673M979 692L901 736M979 692L1006 797M1046 673L1069 776M1181 695L1258 664M1181 695L1148 788M1258 664L1342 662M1342 662L1378 653M1378 653L1480 702M1480 702L1524 678M1480 702L1508 723M1480 702L1579 752M1524 678L1508 723M1524 678L1579 752M1608 641L1719 674M1719 674L1776 642M1719 674L1727 780M1719 674L1764 722M1776 642L1843 646M1776 642L1764 722M1843 646L1874 731M1969 687L2014 706M1969 687L1874 731M1969 687L1949 748M2014 706L1949 748M2014 706L2067 783M2014 706L2120 721M2133 670L2185 702M2133 670L2120 721M2133 670L2167 731M2185 702L2296 677M2185 702L2120 721M2185 702L2167 731M2296 677L2340 657M2296 677L2305 764M2340 657L2411 659M2340 657L2396 723M2411 659L2481 701M2411 659L2396 723M2481 701L2396 723M2481 701L2410 762M2481 701L2529 770M61 772L132 781M61 772L-31 770M61 772L65 803M61 772L149 812M2621 772L2529 770M132 781L65 803M132 781L149 812M240 763L277 737M240 763L227 862M240 763L287 828M277 737L347 757M277 737L287 828M347 757L287 828M347 757L331 802M463 763L539 759M463 763L425 874M463 763L504 823M539 759L601 762M539 759L504 823M601 762L671 740M601 762L627 849M671 740L768 729M671 740L692 804M768 729L853 739M853 739L901 736M853 739L817 852M901 736L931 833M1006 797L1069 776M1006 797L931 833M1006 797L1001 815M1006 797L1091 809M1069 776L1148 788M1069 776L1001 815M1069 776L1091 809M1148 788L1091 809M1148 788L1163 851M1250 792L1302 789M1250 792L1213 876M1250 792L1341 829M1250 792L1240 892M1302 789L1341 829M1423 798L1341 829M1423 798L1436 855M1423 798L1442 846M1508 723L1579 752M1508 723L1605 774M1579 752L1605 774M1579 752L1545 836M1605 774L1545 836M1605 774L1672 802M1605 774L1686 848M1727 780L1764 722M1727 780L1672 802M1727 780L1686 848M1727 780L1808 829M1764 722L1874 731M1764 722L1808 829M1874 731L1949 748M1874 731L1808 829M1949 748L1943 847M2067 783L2120 721M2067 783L2167 731M2067 783L2052 835M2067 783L2131 859M2120 721L2167 731M2305 764L2410 762M2305 764L2308 844M2396 723L2410 762M2410 762L2375 831M2410 762L2414 817M2529 770L2625 803M2529 770L2512 880M-31 770L65 803M65 803L149 812M149 812L227 862M149 812L175 896M227 862L287 828M227 862L146 919M227 862L175 896M287 828L331 802M331 802L425 874M425 874L504 823M425 874L337 922M425 874L426 958M504 823L576 881M627 849L692 804M627 849L576 881M692 804L759 826M759 826L817 852M759 826L745 896M759 826L804 919M817 852L931 833M817 852L745 896M817 852L804 919M931 833L1001 815M931 833L941 927M1001 815L1091 809M1001 815L994 921M1091 809L1163 851M1163 851L1213 876M1163 851L1178 943M1163 851L1240 892M1213 876L1178 943M1213 876L1240 892M1213 876L1293 890M1341 829L1442 846M1341 829L1293 890M1436 855L1442 846M1436 855L1545 836M1436 855L1370 938M1442 846L1545 836M1442 846L1370 938M1545 836L1589 922M1672 802L1686 848M1686 848L1589 922M1686 848L1724 911M1808 829L1912 872M1808 829L1724 911M1912 872L1943 847M1912 872L1916 911M1912 872L1969 903M1912 872L1885 983M1943 847L1916 911M1943 847L1969 903M2052 835L2131 859M2052 835L2051 894M2131 859L2051 894M2131 859L2103 929M2131 859L2163 920M2229 866L2308 844M2229 866L2163 920M2229 866L2319 908M2229 866L2240 971M2308 844L2375 831M2308 844L2319 908M2308 844L2352 911M2375 831L2414 817M2375 831L2352 911M2375 831L2400 914M2512 880L2493 922M2512 880L2564 977M2512 880L2529 964M-48 880L4 977M57 926L146 919M57 926L175 896M57 926L4 977M57 926L-31 964M2617 926L2529 964M146 919L175 896M146 919L138 1021M302 950L337 922M302 950L278 1011M302 950L354 1006M302 950L282 1040M337 922L426 958M337 922L278 1011M337 922L354 1006M426 958L428 1024M426 958L497 1007M551 956L576 881M551 956L497 1007M551 956L605 987M689 955L745 896M689 955L605 987M689 955L687 989M689 955L756 1025M745 896L804 919M804 919L817 1017M941 927L994 921M941 927L1004 989M994 921L1105 949M994 921L1004 989M1105 949L1178 943M1105 949L1004 989M1105 949L1051 1017M1105 949L1142 969M1178 943L1240 892M1178 943L1142 969M1240 892L1293 890M1293 890L1370 938M1293 890L1300 961M1370 938L1300 961M1370 938L1399 1023M1492 951L1589 922M1492 951L1457 1013M1492 951L1560 978M1589 922L1645 952M1589 922L1560 978M1645 952L1724 911M1645 952L1560 978M1645 952L1670 1010M1724 911L1765 942M1765 942L1733 1010M1765 942L1791 1011M1916 911L1969 903M1916 911L1885 983M1916 911L1942 997M1969 903L2051 894M1969 903L1942 997M2051 894L2103 929M2051 894L2097 964M2103 929L2163 920M2103 929L2076 1039M2103 929L2097 964M2163 920L2097 964M2163 920L2240 971M2319 908L2352 911M2319 908L2400 914M2319 908L2286 991M2352 911L2400 914M2400 914L2493 922M2400 914L2382 1005M2493 922L2564 977M2493 922L2455 1033M2493 922L2529 964M-67 922L4 977M4 977L-31 964M4 977L33 1064M2564 977L2529 964M138 1021L224 1037M138 1021L33 1064M138 1021L152 1049M138 1021L188 1108M224 1037L278 1011M224 1037L152 1049M224 1037L188 1108M224 1037L282 1040M278 1011L354 1006M278 1011L282 1040M354 1006L428 1024M354 1006L388 1075M428 1024L497 1007M428 1024L388 1075M428 1024L478 1074M497 1007L478 1074M605 987L687 989M605 987L620 1051M687 989L756 1025M687 989L620 1051M687 989L645 1079M756 1025L817 1017M756 1025L762 1053M817 1017L902 1025M817 1017L762 1053M817 1017L879 1084M902 1025L879 1084M902 1025L931 1067M902 1025L983 1071M1004 989L1051 1017M1004 989L983 1071M1051 1017L1142 969M1051 1017L983 1071M1051 1017L1085 1117M1142 969L1267 1020M1267 1020L1300 961M1267 1020L1180 1075M1267 1020L1246 1106M1267 1020L1284 1113M1300 961L1399 1023M1399 1023L1457 1013M1399 1023L1433 1051M1457 1013L1560 978M1457 1013L1433 1051M1457 1013L1496 1101M1670 1010L1733 1010M1670 1010L1716 1043M1733 1010L1791 1011M1733 1010L1716 1043M1733 1010L1811 1048M1791 1011L1716 1043M1791 1011L1811 1048M1791 1011L1854 1079M1885 983L1942 997M1885 983L1811 1048M1885 983L1854 1079M1942 997L1958 1069M2076 1039L2097 964M2076 1039L2014 1111M2076 1039L2088 1042M2076 1039L2167 1073M2097 964L2088 1042M2240 971L2286 991M2286 991L2312 1073M2286 991L2344 1070M2382 1005L2455 1033M2382 1005L2312 1073M2382 1005L2344 1070M2382 1005L2449 1044M2455 1033L2529 964M2455 1033L2449 1044M2455 1033L2532 1079M33 1064L-28 1079M33 1064L10 1164M33 1064L-27 1148M2593 1064L2532 1079M2593 1064L2533 1148M152 1049L188 1108M152 1049L225 1130M188 1108L160 1200M188 1108L225 1130M282 1040L225 1130M282 1040L302 1145M388 1075L478 1074M388 1075L302 1145M388 1075L367 1164M478 1074L546 1105M478 1074L559 1129M546 1105L620 1051M546 1105L559 1129M546 1105L603 1136M620 1051L645 1079M620 1051L603 1136M645 1079L559 1129M645 1079L603 1136M645 1079L651 1177M879 1084L931 1067M879 1084L832 1151M879 1084L880 1157M931 1067L983 1071M931 1067L880 1157M931 1067L984 1152M983 1071L984 1152M1085 1117L1180 1075M1085 1117L984 1152M1085 1117L1058 1154M1085 1117L1154 1166M1180 1075L1246 1106M1180 1075L1284 1113M1180 1075L1154 1166M1246 1106L1284 1113M1246 1106L1232 1196M1246 1106L1304 1158M1284 1113L1232 1196M1284 1113L1304 1158M1433 1051L1496 1101M1496 1101L1583 1109M1496 1101L1482 1162M1496 1101L1581 1145M1583 1109L1648 1106M1583 1109L1482 1162M1583 1109L1581 1145M1648 1106L1716 1043M1648 1106L1581 1145M1648 1106L1670 1171M1648 1106L1740 1152M1716 1043L1811 1048M1811 1048L1854 1079M1854 1079L1958 1069M1854 1079L1861 1154M1958 1069L2014 1111M1958 1069L2032 1146M2014 1111L2088 1042M2014 1111L1950 1180M2014 1111L2032 1146M2088 1042L2167 1073M2167 1073L2139 1155M2167 1073L2211 1144M2312 1073L2344 1070M2312 1073L2312 1150M2312 1073L2400 1131M2344 1070L2312 1150M2344 1070L2400 1131M2449 1044L2532 1079M2449 1044L2400 1131M2449 1044L2459 1149M2532 1079L2570 1164M2532 1079L2533 1148M-28 1079L10 1164M10 1164L-101 1149M10 1164L-27 1148M10 1164L24 1219M2570 1164L2459 1149M2570 1164L2533 1148M160 1200L225 1130M160 1200L127 1219M160 1200L193 1238M160 1200L157 1291M225 1130L302 1145M302 1145L367 1164M367 1164L448 1193M448 1193L426 1278M448 1193L548 1250M559 1129L603 1136M559 1129L651 1177M603 1136L651 1177M651 1177L611 1247M651 1177L677 1270M775 1192L832 1151M775 1192L880 1157M775 1192L794 1279M775 1192L839 1211M775 1192L782 1282M832 1151L880 1157M832 1151L839 1211M880 1157L839 1211M984 1152L1058 1154M1058 1154L1154 1166M1058 1154L1102 1252M1058 1154L1126 1229M1154 1166L1232 1196M1154 1166L1126 1229M1232 1196L1304 1158M1232 1196L1265 1234M1304 1158L1399 1162M1304 1158L1336 1224M1399 1162L1482 1162M1399 1162L1336 1224M1399 1162L1376 1239M1399 1162L1456 1246M1482 1162L1456 1246M1581 1145L1670 1171M1581 1145L1574 1221M1670 1171L1740 1152M1670 1171L1624 1242M1670 1171L1720 1214M1740 1152L1794 1197M1740 1152L1720 1214M1794 1197L1861 1154M1794 1197L1720 1214M1794 1197L1835 1255M1794 1197L1848 1223M1861 1154L1950 1180M1861 1154L1835 1255M1861 1154L1848 1223M1950 1180L2032 1146M1950 1180L1996 1216M1950 1180L2054 1222M2032 1146L1996 1216M2032 1146L2054 1222M2139 1155L2211 1144M2139 1155L2135 1243M2139 1155L2194 1252M2211 1144L2312 1150M2211 1144L2247 1239M2312 1150L2400 1131M2312 1150L2322 1205M2400 1131L2459 1149M2459 1149L2533 1148M2459 1149L2419 1239M2533 1148L2584 1219M-27 1148L24 1219M24 1219L127 1219M24 1219L-69 1267M2584 1219L2491 1267M127 1219L193 1238M127 1219L157 1291M193 1238L256 1256M193 1238L157 1291M193 1238L230 1323M256 1256L351 1269M256 1256L230 1323M256 1256L326 1286M351 1269L426 1278M351 1269L326 1286M351 1269L422 1344M426 1278L326 1286M426 1278L422 1344M426 1278L505 1319M548 1250L611 1247M548 1250L505 1319M548 1250L650 1301M611 1247L677 1270M611 1247L625 1350M611 1247L650 1301M677 1270L625 1350M677 1270L650 1301M794 1279L839 1211M794 1279L782 1282M794 1279L870 1305M794 1279L836 1385M839 1211L782 1282M908 1280L870 1305M908 1280L936 1350M908 1280L991 1292M1027 1267L1102 1252M1027 1267L991 1292M1027 1267L1107 1314M1027 1267L1129 1281M1027 1267L999 1365M1102 1252L1126 1229M1102 1252L1107 1314M1102 1252L1129 1281M1126 1229L1129 1281M1265 1234L1336 1224M1265 1234L1240 1336M1336 1224L1376 1239M1336 1224L1354 1309M1376 1239L1456 1246M1376 1239L1354 1309M1456 1246L1423 1317M1456 1246L1496 1293M1574 1221L1624 1242M1574 1221L1496 1293M1574 1221L1591 1292M1624 1242L1591 1292M1624 1242L1677 1284M1720 1214L1677 1284M1720 1214L1747 1302M1835 1255L1848 1223M1835 1255L1876 1339M1996 1216L2054 1222M1996 1216L1981 1302M1996 1216L2029 1286M2054 1222L2135 1243M2054 1222L2029 1286M2135 1243L2194 1252M2135 1243L2110 1350M2135 1243L2210 1295M2194 1252L2247 1239M2194 1252L2210 1295M2194 1252L2256 1289M2247 1239L2322 1205M2247 1239L2210 1295M2247 1239L2256 1289M2322 1205L2419 1239M2322 1205L2256 1289M2419 1239L2491 1267M2419 1239L2433 1318M2491 1267L2570 1357M2491 1267L2433 1318M2491 1267L2490 1359M-69 1267L10 1357M10 1357L-70 1359M10 1357L7 1392M10 1357L-47 1440M2570 1357L2490 1359M2570 1357L2513 1440M157 1291L230 1323M157 1291L157 1394M230 1323L275 1344M230 1323L239 1400M275 1344L326 1286M275 1344L239 1400M275 1344L247 1440M275 1344L350 1384M326 1286L350 1384M422 1344L505 1319M422 1344L350 1384M422 1344L412 1397M505 1319L538 1439M505 1319L563 1369M625 1350L650 1301M625 1350L538 1439M625 1350L563 1369M650 1301L563 1369M782 1282L870 1305M870 1305L936 1350M870 1305L836 1385M936 1350L991 1292M936 1350L836 1385M936 1350L999 1365M991 1292L999 1365M1107 1314L1129 1281M1107 1314L1103 1412M1107 1314L1147 1387M1129 1281L1147 1387M1240 1336L1147 1387M1240 1336L1274 1379M1354 1309L1423 1317M1354 1309L1274 1379M1354 1309L1396 1369M1423 1317L1496 1293M1423 1317L1396 1369M1423 1317L1488 1363M1496 1293L1591 1292M1496 1293L1488 1363M1591 1292L1677 1284M1677 1284L1747 1302M1747 1302L1830 1347M1747 1302L1701 1404M1747 1302L1777 1408M1830 1347L1876 1339M1830 1347L1777 1408M1830 1347L1871 1415M1876 1339L1981 1302M1876 1339L1871 1415M1981 1302L2029 1286M1981 1302L2005 1399M2029 1286L2110 1350M2110 1350L2005 1399M2110 1350L2101 1362M2110 1350L2185 1391M2210 1295L2256 1289M2210 1295L2185 1391M2256 1289L2185 1391M2380 1348L2433 1318M2380 1348L2311 1429M2380 1348L2385 1380M2380 1348L2410 1412M2433 1318L2490 1359M2433 1318L2385 1380M2490 1359L2567 1392M2490 1359L2410 1412M-70 1359L7 1392M7 1392L-47 1440M2567 1392L2513 1440M157 1394L247 1440M239 1400L247 1440M350 1384L412 1397M538 1439L563 1369M709 1415L774 1408M774 1408L836 1385M774 1408L890 1435M836 1385L890 1435M999 1365L1103 1412M1103 1412L1147 1387M1274 1379L1351 1437M1351 1437L1396 1369M1396 1369L1488 1363M1488 1363L1533 1419M1660 1400L1701 1404M1701 1404L1777 1408M1777 1408L1871 1415M1871 1415L1946 1432M1946 1432L2005 1399M2005 1399L2101 1362M2101 1362L2185 1391M2311 1429L2385 1380M2385 1380L2410 1412"/></svg>