<svg xmlns="http://www.w3.org/2000/svg" width="2560" height="1440" fill="#fff"><circle cx="37" cy="14" r="4"/><circle cx="94" cy="36" r="4"/><circle cx="202" cy="62" r="4"/><circle cx="245" cy="9" r="5"/><circle cx="356" cy="56" r="6"/><circle cx="448" cy="73" r="4"/><circle cx="514" cy="72" r="6"/><circle cx="618" cy="27" r="4"/><circle cx="700" cy="18" r="5"/><circle cx="757" cy="6" r="5"/><circle cx="843" cy="74" r="5"/><circle cx="925" cy="64" r="5"/><circle cx="1034" cy="54" r="5"/><circle cx="1089" cy="7" r="4"/><circle cx="1163" cy="24" r="5"/><circle cx="1251" cy="42" r="4"/><circle cx="1345" cy="23" r="6"/><circle cx="1405" cy="19" r="6"/><circle cx="1488" cy="73" r="6"/><circle cx="1570" cy="12" r="5"/><circle cx="1666" cy="24" r="6"/><circle cx="1723" cy="34" r="6"/><circle cx="1769" cy="75" r="4"/><circle cx="1885" cy="24" r="5"/><circle cx="1930" cy="72" r="5"/><circle cx="2075" cy="49" r="5"/><circle cx="2105" cy="16" r="5"/><circle cx="2232" cy="50" r="4"/><circle cx="2241" cy="21" r="4"/><circle cx="2332" cy="22" r="5"/><circle cx="2416" cy="41" r="6"/><circle cx="2491" cy="47" r="6"/><circle cx="22" cy="124" r="5"/><circle cx="118" cy="98" r="6"/><circle cx="203" cy="135" r="6"/><circle cx="304" cy="88" r="5"/><circle cx="381" cy="103" r="5"/><circle cx="439" cy="128" r="5"/><circle cx="549" cy="84" r="5"/><circle cx="616" cy="86" r="4"/><circle cx="686" cy="98" r="6"/><circle cx="740" cy="106" r="5"/><circle cx="841" cy="92" r="5"/><circle cx="885" cy="101" r="4"/><circle cx="1030" cy="102" r="5"/><circle cx="1049" cy="107" r="6"/><circle cx="1191" cy="138" r="4"/><circle cx="1215" cy="145" r="5"/><circle cx="1336" cy="128" r="4"/><circle cx="1403" cy="140" r="5"/><circle cx="1514" cy="85" r="5"/><circle cx="1581" cy="109" r="5"/><circle cx="1672" cy="152" r="5"/><circle cx="1703" cy="99" r="6"/><circle cx="1790" cy="158" r="5"/><circle cx="1857" cy="112" r="5"/><circle cx="1966" cy="147" r="4"/><circle cx="2052" cy="138" r="5"/><circle cx="2148" cy="150" r="5"/><circle cx="2209" cy="99" r="5"/><circle cx="2276" cy="135" r="6"/><circle cx="2321" cy="127" r="5"/><circle cx="2402" cy="80" r="4"/><circle cx="2553" cy="110" r="5"/><circle cx="14" cy="224" r="5"/><circle cx="145" cy="160" r="4"/><circle cx="189" cy="188" r="6"/><circle cx="295" cy="185" r="4"/><circle cx="339" cy="202" r="4"/><circle cx="447" cy="235" r="6"/><circle cx="556" cy="225" r="5"/><circle cx="620" cy="199" r="5"/><circle cx="694" cy="188" r="6"/><circle cx="797" cy="163" r="5"/><circle cx="802" cy="180" r="6"/><circle cx="951" cy="178" r="5"/><circle cx="1007" cy="191" r="5"/><circle cx="1115" cy="221" r="5"/><circle cx="1179" cy="219" r="5"/><circle cx="1229" cy="197" r="5"/><circle cx="1297" cy="191" r="4"/><circle cx="1433" cy="230" r="5"/><circle cx="1460" cy="166" r="6"/><circle cx="1599" cy="196" r="5"/><circle cx="1627" cy="229" r="4"/><circle cx="1754" cy="217" r="6"/><circle cx="1795" cy="223" r="5"/><circle cx="1871" cy="175" r="4"/><circle cx="1972" cy="216" r="6"/><circle cx="2073" cy="222" r="5"/><circle cx="2122" cy="181" r="5"/><circle cx="2177" cy="204" r="4"/><circle cx="2284" cy="227" r="5"/><circle cx="2386" cy="189" r="5"/><circle cx="2448" cy="173" r="5"/><circle cx="2510" cy="181" r="5"/><circle cx="5" cy="262" r="5"/><circle cx="115" cy="287" r="4"/><circle cx="191" cy="265" r="5"/><circle cx="310" cy="303" r="5"/><circle cx="337" cy="282" r="5"/><circle cx="468" cy="287" r="5"/><circle cx="488" cy="312" r="4"/><circle cx="578" cy="295" r="5"/><circle cx="714" cy="292" r="4"/><circle cx="798" cy="244" r="5"/><circle cx="861" cy="255" r="5"/><circle cx="901" cy="298" r="6"/><circle cx="980" cy="291" r="6"/><circle cx="1079" cy="289" r="4"/><circle cx="1188" cy="269" r="5"/><circle cx="1212" cy="277" r="5"/><circle cx="1359" cy="275" r="5"/><circle cx="1381" cy="244" r="5"/><circle cx="1476" cy="241" r="6"/><circle cx="1574" cy="241" r="6"/><circle cx="1608" cy="269" r="4"/><circle cx="1690" cy="245" r="5"/><circle cx="1796" cy="300" r="4"/><circle cx="1872" cy="266" r="5"/><circle cx="1962" cy="294" r="5"/><circle cx="2027" cy="240" r="5"/><circle cx="2113" cy="289" r="6"/><circle cx="2191" cy="293" r="6"/><circle cx="2268" cy="245" r="5"/><circle cx="2356" cy="281" r="5"/><circle cx="2461" cy="283" r="5"/><circle cx="2559" cy="314" r="4"/><circle cx="-1" cy="314" r="4"/><circle cx="22" cy="397" r="5"/><circle cx="142" cy="385" r="6"/><circle cx="172" cy="343" r="5"/><circle cx="285" cy="379" r="6"/><circle cx="377" cy="346" r="6"/><circle cx="418" cy="374" r="5"/><circle cx="534" cy="398" r="5"/><circle cx="630" cy="369" r="5"/><circle cx="693" cy="326" r="6"/><circle cx="744" cy="339" r="5"/><circle cx="870" cy="322" r="6"/><circle cx="917" cy="366" r="5"/><circle cx="972" cy="337" r="5"/><circle cx="1057" cy="386" r="4"/><circle cx="1179" cy="373" r="4"/><circle cx="1244" cy="323" r="6"/><circle cx="1280" cy="343" r="4"/><circle cx="1429" cy="360" r="4"/><circle cx="1458" cy="394" r="5"/><circle cx="1576" cy="373" r="5"/><circle cx="1636" cy="337" r="4"/><circle cx="1693" cy="375" r="4"/><circle cx="1822" cy="324" r="5"/><circle cx="1856" cy="352" r="6"/><circle cx="1962" cy="341" r="4"/><circle cx="2034" cy="324" r="4"/><circle cx="2082" cy="392" r="4"/><circle cx="2164" cy="341" r="5"/><circle cx="2316" cy="370" r="5"/><circle cx="2374" cy="387" r="5"/><circle cx="2418" cy="359" r="4"/><circle cx="2511" cy="367" r="5"/><circle cx="49" cy="446" r="4"/><circle cx="131" cy="417" r="5"/><circle cx="213" cy="455" r="6"/><circle cx="303" cy="464" r="6"/><circle cx="397" cy="424" r="4"/><circle cx="417" cy="437" r="6"/><circle cx="539" cy="440" r="5"/><circle cx="567" cy="429" r="5"/><circle cx="664" cy="477" r="5"/><circle cx="787" cy="476" r="4"/><circle cx="878" cy="460" r="5"/><circle cx="929" cy="466" r="5"/><circle cx="964" cy="441" r="5"/><circle cx="1100" cy="440" r="5"/><circle cx="1182" cy="415" r="5"/><circle cx="1272" cy="449" r="6"/><circle cx="1307" cy="431" r="6"/><circle cx="1423" cy="432" r="4"/><circle cx="1458" cy="403" r="6"/><circle cx="1561" cy="474" r="4"/><circle cx="1613" cy="468" r="5"/><circle cx="1693" cy="432" r="5"/><circle cx="1800" cy="423" r="6"/><circle cx="1897" cy="410" r="5"/><circle cx="1956" cy="419" r="6"/><circle cx="2001" cy="458" r="5"/><circle cx="2113" cy="477" r="6"/><circle cx="2227" cy="452" r="6"/><circle cx="2275" cy="442" r="4"/><circle cx="2339" cy="461" r="5"/><circle cx="2474" cy="470" r="5"/><circle cx="2535" cy="457" r="5"/><circle cx="67" cy="524" r="4"/><circle cx="145" cy="495" r="4"/><circle cx="167" cy="545" r="5"/><circle cx="278" cy="506" r="4"/><circle cx="376" cy="485" r="5"/><circle cx="407" cy="485" r="6"/><circle cx="532" cy="494" r="6"/><circle cx="572" cy="557" r="4"/><circle cx="720" cy="481" r="5"/><circle cx="735" cy="554" r="6"/><circle cx="816" cy="529" r="4"/><circle cx="934" cy="504" r="5"/><circle cx="960" cy="498" r="5"/><circle cx="1062" cy="486" r="6"/><circle cx="1124" cy="545" r="5"/><circle cx="1216" cy="550" r="5"/><circle cx="1280" cy="526" r="6"/><circle cx="1415" cy="496" r="5"/><circle cx="1476" cy="549" r="5"/><circle cx="1550" cy="505" r="6"/><circle cx="1618" cy="486" r="5"/><circle cx="1704" cy="536" r="5"/><circle cx="1781" cy="555" r="6"/><circle cx="1856" cy="489" r="5"/><circle cx="1935" cy="521" r="5"/><circle cx="2062" cy="491" r="4"/><circle cx="2082" cy="550" r="5"/><circle cx="2234" cy="485" r="6"/><circle cx="2242" cy="505" r="5"/><circle cx="2379" cy="487" r="4"/><circle cx="2421" cy="526" r="5"/><circle cx="2535" cy="511" r="5"/><circle cx="34" cy="570" r="5"/><circle cx="137" cy="605" r="4"/><circle cx="236" cy="580" r="5"/><circle cx="249" cy="611" r="5"/><circle cx="345" cy="617" r="5"/><circle cx="444" cy="621" r="4"/><circle cx="483" cy="561" r="6"/><circle cx="566" cy="618" r="4"/><circle cx="688" cy="574" r="5"/><circle cx="770" cy="565" r="6"/><circle cx="845" cy="607" r="5"/><circle cx="882" cy="615" r="5"/><circle cx="998" cy="617" r="4"/><circle cx="1088" cy="587" r="5"/><circle cx="1175" cy="634" r="5"/><circle cx="1212" cy="629" r="5"/><circle cx="1286" cy="620" r="4"/><circle cx="1390" cy="626" r="4"/><circle cx="1517" cy="574" r="5"/><circle cx="1573" cy="570" r="5"/><circle cx="1606" cy="628" r="5"/><circle cx="1759" cy="614" r="5"/><circle cx="1831" cy="606" r="6"/><circle cx="1856" cy="560" r="5"/><circle cx="1977" cy="631" r="5"/><circle cx="2061" cy="587" r="4"/><circle cx="2118" cy="616" r="5"/><circle cx="2204" cy="563" r="5"/><circle cx="2266" cy="585" r="4"/><circle cx="2384" cy="600" r="4"/><circle cx="2459" cy="615" r="6"/><circle cx="2550" cy="598" r="5"/><circle cx="57" cy="688" r="4"/><circle cx="114" cy="674" r="6"/><circle cx="161" cy="676" r="6"/><circle cx="272" cy="673" r="5"/><circle cx="362" cy="697" r="4"/><circle cx="447" cy="645" r="5"/><circle cx="508" cy="674" r="6"/><circle cx="620" cy="657" r="6"/><circle cx="689" cy="674" r="6"/><circle cx="750" cy="688" r="4"/><circle cx="841" cy="716" r="6"/><circle cx="892" cy="652" r="4"/><circle cx="1025" cy="652" r="6"/><circle cx="1103" cy="675" r="5"/><circle cx="1164" cy="720" r="4"/><circle cx="1246" cy="710" r="5"/><circle cx="1289" cy="677" r="5"/><circle cx="1396" cy="677" r="6"/><circle cx="1510" cy="709" r="6"/><circle cx="1581" cy="652" r="6"/><circle cx="1619" cy="663" r="4"/><circle cx="1680" cy="681" r="6"/><circle cx="1810" cy="656" r="6"/><circle cx="1917" cy="678" r="4"/><circle cx="1981" cy="701" r="5"/><circle cx="2049" cy="661" r="5"/><circle cx="2143" cy="661" r="6"/><circle cx="2214" cy="677" r="6"/><circle cx="2313" cy="684" r="4"/><circle cx="2332" cy="677" r="5"/><circle cx="2406" cy="716" r="6"/><circle cx="2559" cy="641" r="6"/><circle cx="-1" cy="641" r="6"/><circle cx="58" cy="746" r="5"/><circle cx="142" cy="730" r="5"/><circle cx="199" cy="786" r="5"/><circle cx="309" cy="780" r="4"/><circle cx="397" cy="729" r="5"/><circle cx="432" cy="725" r="4"/><circle cx="519" cy="763" r="4"/><circle cx="562" cy="743" r="4"/><circle cx="670" cy="769" r="4"/><circle cx="769" cy="789" r="4"/><circle cx="869" cy="745" r="5"/><circle cx="949" cy="789" r="4"/><circle cx="1021" cy="727" r="5"/><circle cx="1041" cy="726" r="4"/><circle cx="1182" cy="772" r="4"/><circle cx="1267" cy="743" r="5"/><circle cx="1340" cy="789" r="4"/><circle cx="1412" cy="754" r="4"/><circle cx="1471" cy="733" r="5"/><circle cx="1554" cy="785" r="4"/><circle cx="1635" cy="746" r="6"/><circle cx="1735" cy="737" r="6"/><circle cx="1812" cy="754" r="5"/><circle cx="1851" cy="786" r="4"/><circle cx="1932" cy="775" r="4"/><circle cx="2012" cy="796" r="5"/><circle cx="2130" cy="794" r="5"/><circle cx="2232" cy="728" r="6"/><circle cx="2277" cy="737" r="6"/><circle cx="2391" cy="752" r="6"/><circle cx="2406" cy="733" r="5"/><circle cx="2480" cy="778" r="6"/><circle cx="43" cy="825" r="4"/><circle cx="91" cy="830" r="4"/><circle cx="172" cy="811" r="5"/><circle cx="295" cy="846" r="6"/><circle cx="366" cy="869" r="4"/><circle cx="452" cy="829" r="5"/><circle cx="523" cy="814" r="6"/><circle cx="579" cy="850" r="5"/><circle cx="646" cy="875" r="5"/><circle cx="760" cy="866" r="5"/><circle cx="842" cy="841" r="4"/><circle cx="894" cy="806" r="5"/><circle cx="972" cy="808" r="5"/><circle cx="1102" cy="814" r="5"/><circle cx="1139" cy="836" r="4"/><circle cx="1274" cy="871" r="4"/><circle cx="1309" cy="852" r="5"/><circle cx="1373" cy="819" r="4"/><circle cx="1450" cy="810" r="6"/><circle cx="1564" cy="853" r="5"/><circle cx="1664" cy="870" r="6"/><circle cx="1745" cy="869" r="6"/><circle cx="1818" cy="826" r="5"/><circle cx="1907" cy="817" r="4"/><circle cx="1952" cy="824" r="6"/><circle cx="2079" cy="867" r="5"/><circle cx="2156" cy="832" r="4"/><circle cx="2228" cy="812" r="5"/><circle cx="2274" cy="853" r="6"/><circle cx="2337" cy="822" r="4"/><circle cx="2440" cy="849" r="5"/><circle cx="2511" cy="831" r="4"/><circle cx="6" cy="901" r="6"/><circle cx="87" cy="927" r="4"/><circle cx="168" cy="898" r="5"/><circle cx="241" cy="933" r="5"/><circle cx="362" cy="946" r="5"/><circle cx="413" cy="881" r="5"/><circle cx="520" cy="945" r="5"/><circle cx="630" cy="932" r="5"/><circle cx="681" cy="892" r="4"/><circle cx="747" cy="901" r="5"/><circle cx="868" cy="947" r="5"/><circle cx="916" cy="908" r="4"/><circle cx="1015" cy="929" r="5"/><circle cx="1072" cy="930" r="5"/><circle cx="1167" cy="900" r="4"/><circle cx="1256" cy="954" r="5"/><circle cx="1285" cy="923" r="5"/><circle cx="1433" cy="905" r="4"/><circle cx="1518" cy="907" r="5"/><circle cx="1596" cy="944" r="4"/><circle cx="1671" cy="933" r="6"/><circle cx="1742" cy="885" r="5"/><circle cx="1787" cy="888" r="6"/><circle cx="1920" cy="906" r="5"/><circle cx="1944" cy="914" r="6"/><circle cx="2005" cy="906" r="4"/><circle cx="2128" cy="918" r="5"/><circle cx="2208" cy="881" r="4"/><circle cx="2308" cy="930" r="5"/><circle cx="2395" cy="913" r="6"/><circle cx="2442" cy="929" r="5"/><circle cx="2535" cy="952" r="5"/><circle cx="5" cy="1014" r="5"/><circle cx="2565" cy="1014" r="5"/><circle cx="129" cy="966" r="4"/><circle cx="181" cy="984" r="5"/><circle cx="265" cy="978" r="5"/><circle cx="342" cy="992" r="6"/><circle cx="402" cy="1035" r="5"/><circle cx="515" cy="986" r="5"/><circle cx="564" cy="1024" r="5"/><circle cx="691" cy="1018" r="5"/><circle cx="762" cy="1029" r="5"/><circle cx="877" cy="992" r="5"/><circle cx="906" cy="1022" r="4"/><circle cx="968" cy="1023" r="5"/><circle cx="1086" cy="1006" r="6"/><circle cx="1171" cy="1008" r="6"/><circle cx="1263" cy="964" r="6"/><circle cx="1302" cy="1021" r="6"/><circle cx="1431" cy="1002" r="5"/><circle cx="1476" cy="971" r="5"/><circle cx="1553" cy="974" r="5"/><circle cx="1666" cy="1014" r="6"/><circle cx="1739" cy="980" r="5"/><circle cx="1774" cy="967" r="5"/><circle cx="1908" cy="989" r="4"/><circle cx="1930" cy="989" r="5"/><circle cx="2054" cy="1035" r="6"/><circle cx="2145" cy="982" r="5"/><circle cx="2172" cy="1025" r="4"/><circle cx="2245" cy="1017" r="6"/><circle cx="2334" cy="1029" r="5"/><circle cx="2402" cy="1029" r="5"/><circle cx="2549" cy="1036" r="5"/><circle cx="52" cy="1048" r="5"/><circle cx="86" cy="1056" r="5"/><circle cx="213" cy="1048" r="4"/><circle cx="307" cy="1056" r="4"/><circle cx="393" cy="1040" r="5"/><circle cx="445" cy="1105" r="4"/><circle cx="516" cy="1090" r="5"/><circle cx="616" cy="1047" r="5"/><circle cx="709" cy="1059" r="5"/><circle cx="762" cy="1100" r="5"/><circle cx="871" cy="1053" r="6"/><circle cx="888" cy="1088" r="5"/><circle cx="993" cy="1116" r="5"/><circle cx="1059" cy="1065" r="5"/><circle cx="1121" cy="1106" r="5"/><circle cx="1274" cy="1102" r="4"/><circle cx="1331" cy="1083" r="6"/><circle cx="1372" cy="1086" r="6"/><circle cx="1497" cy="1115" r="5"/><circle cx="1535" cy="1057" r="5"/><circle cx="1621" cy="1054" r="5"/><circle cx="1682" cy="1052" r="6"/><circle cx="1831" cy="1045" r="5"/><circle cx="1879" cy="1106" r="5"/><circle cx="1981" cy="1105" r="6"/><circle cx="2025" cy="1077" r="4"/><circle cx="2114" cy="1108" r="5"/><circle cx="2200" cy="1046" r="5"/><circle cx="2312" cy="1045" r="6"/><circle cx="2388" cy="1091" r="5"/><circle cx="2412" cy="1057" r="5"/><circle cx="2491" cy="1071" r="6"/><circle cx="80" cy="1162" r="4"/><circle cx="158" cy="1179" r="4"/><circle cx="168" cy="1121" r="4"/><circle cx="253" cy="1195" r="4"/><circle cx="373" cy="1125" r="4"/><circle cx="400" cy="1154" r="5"/><circle cx="511" cy="1186" r="6"/><circle cx="638" cy="1161" r="5"/><circle cx="658" cy="1134" r="5"/><circle cx="721" cy="1162" r="5"/><circle cx="807" cy="1188" r="5"/><circle cx="957" cy="1190" r="4"/><circle cx="999" cy="1177" r="6"/><circle cx="1045" cy="1133" r="6"/><circle cx="1181" cy="1179" r="5"/><circle cx="1277" cy="1156" r="6"/><circle cx="1302" cy="1141" r="5"/><circle cx="1362" cy="1136" r="5"/><circle cx="1452" cy="1151" r="6"/><circle cx="1537" cy="1130" r="4"/><circle cx="1644" cy="1145" r="5"/><circle cx="1683" cy="1187" r="5"/><circle cx="1837" cy="1179" r="5"/><circle cx="1897" cy="1178" r="5"/><circle cx="1969" cy="1171" r="4"/><circle cx="2001" cy="1129" r="5"/><circle cx="2094" cy="1167" r="6"/><circle cx="2170" cy="1162" r="4"/><circle cx="2286" cy="1168" r="6"/><circle cx="2333" cy="1135" r="6"/><circle cx="2413" cy="1143" r="5"/><circle cx="2511" cy="1131" r="4"/><circle cx="44" cy="1204" r="5"/><circle cx="103" cy="1254" r="4"/><circle cx="222" cy="1228" r="5"/><circle cx="296" cy="1254" r="5"/><circle cx="320" cy="1211" r="6"/><circle cx="462" cy="1204" r="6"/><circle cx="482" cy="1231" r="5"/><circle cx="633" cy="1208" r="5"/><circle cx="719" cy="1229" r="6"/><circle cx="794" cy="1274" r="6"/><circle cx="868" cy="1237" r="4"/><circle cx="885" cy="1237" r="4"/><circle cx="1018" cy="1252" r="4"/><circle cx="1080" cy="1241" r="5"/><circle cx="1146" cy="1278" r="5"/><circle cx="1255" cy="1225" r="6"/><circle cx="1343" cy="1225" r="4"/><circle cx="1430" cy="1272" r="5"/><circle cx="1486" cy="1246" r="4"/><circle cx="1564" cy="1220" r="6"/><circle cx="1650" cy="1259" r="6"/><circle cx="1715" cy="1280" r="5"/><circle cx="1794" cy="1243" r="5"/><circle cx="1919" cy="1254" r="4"/><circle cx="1995" cy="1254" r="5"/><circle cx="2019" cy="1231" r="6"/><circle cx="2084" cy="1211" r="4"/><circle cx="2168" cy="1237" r="6"/><circle cx="2311" cy="1277" r="6"/><circle cx="2379" cy="1204" r="5"/><circle cx="2449" cy="1230" r="6"/><circle cx="2507" cy="1216" r="6"/><circle cx="50" cy="1324" r="5"/><circle cx="139" cy="1350" r="6"/><circle cx="203" cy="1316" r="4"/><circle cx="285" cy="1302" r="5"/><circle cx="338" cy="1288" r="5"/><circle cx="472" cy="1339" r="5"/><circle cx="560" cy="1282" r="4"/><circle cx="601" cy="1358" r="5"/><circle cx="642" cy="1304" r="4"/><circle cx="791" cy="1324" r="6"/><circle cx="859" cy="1302" r="5"/><circle cx="886" cy="1304" r="6"/><circle cx="1031" cy="1293" r="5"/><circle cx="1078" cy="1297" r="4"/><circle cx="1145" cy="1318" r="5"/><circle cx="1275" cy="1350" r="6"/><circle cx="1333" cy="1324" r="6"/><circle cx="1410" cy="1311" r="5"/><circle cx="1478" cy="1297" r="4"/><circle cx="1521" cy="1326" r="6"/><circle cx="1675" cy="1309" r="5"/><circle cx="1700" cy="1287" r="5"/><circle cx="1823" cy="1282" r="4"/><circle cx="1870" cy="1313" r="4"/><circle cx="1931" cy="1316" r="4"/><circle cx="2063" cy="1285" r="5"/><circle cx="2151" cy="1357" r="5"/><circle cx="2184" cy="1320" r="5"/><circle cx="2286" cy="1284" r="5"/><circle cx="2341" cy="1352" r="4"/><circle cx="2466" cy="1287" r="6"/><circle cx="2530" cy="1329" r="5"/><circle cx="66" cy="1438" r="4"/><circle cx="66" cy="-2" r="4"/><circle cx="84" cy="1382" r="4"/><circle cx="163" cy="1384" r="5"/><circle cx="257" cy="1400" r="6"/><circle cx="377" cy="1361" r="4"/><circle cx="455" cy="1431" r="4"/><circle cx="527" cy="1423" r="5"/><circle cx="633" cy="1371" r="5"/><circle cx="678" cy="1368" r="5"/><circle cx="769" cy="1420" r="5"/><circle cx="870" cy="1390" r="6"/><circle cx="934" cy="1418" r="5"/><circle cx="1023" cy="1367" r="5"/><circle cx="1041" cy="1364" r="6"/><circle cx="1140" cy="1382" r="5"/><circle cx="1266" cy="1363" r="5"/><circle cx="1292" cy="1365" r="5"/><circle cx="1371" cy="1412" r="5"/><circle cx="1483" cy="1400" r="4"/><circle cx="1578" cy="1413" r="4"/><circle cx="1616" cy="1401" r="4"/><circle cx="1721" cy="1434" r="5"/><circle cx="1806" cy="1420" r="5"/><circle cx="1901" cy="1378" r="4"/><circle cx="1961" cy="1401" r="4"/><circle cx="2067" cy="1389" r="5"/><circle cx="2082" cy="1433" r="5"/><circle cx="2162" cy="1429" r="5"/><circle cx="2293" cy="1409" r="4"/><circle cx="2371" cy="1402" r="5"/><circle cx="2415" cy="1377" r="4"/><circle cx="2547" cy="1417" r="5"/><path stroke="#fff" d="M37 14L94 36M37 14L-69 47M37 14L66 -2M37 14L84 -58M37 14L-13 -23M2597 14L2491 47M2597 14L2547 -23M37 1454L66 1438M37 1454L84 1382M37 1454L-13 1417M2597 1454L2547 1417M94 36L118 98M94 36L66 -2M94 1476L66 1438M202 62L245 9M202 62L118 98M202 62L203 135M202 62L304 88M202 62L257 -40M202 1502L257 1400M245 9L356 56M245 9L304 88M245 9L163 -56M245 9L257 -40M245 1449L163 1384M245 1449L257 1400M356 56L448 73M356 56L304 88M356 56L381 103M356 56L439 128M448 73L514 72M448 73L381 103M448 73L439 128M448 73L455 -9M448 1513L455 1431M514 72L439 128M514 72L549 84M514 72L455 -9M514 72L527 -17M514 1512L455 1431M514 1512L527 1423M618 27L700 18M618 27L549 84M618 27L616 86M618 27L686 98M618 27L633 -69M618 1467L633 1371M700 18L757 6M700 18L686 98M700 18L678 -72M700 18L769 -20M700 1458L678 1368M700 1458L769 1420M757 6L740 106M757 6L769 -20M757 1446L769 1420M843 74L925 64M843 74L841 92M843 74L885 101M843 74L797 163M925 64L1034 54M925 64L841 92M925 64L885 101M925 64L934 -22M925 1504L934 1418M1034 54L1089 7M1034 54L1030 102M1034 54L1049 107M1089 7L1163 24M1089 7L1049 107M1089 7L1041 -76M1089 7L1140 -58M1089 1447L1041 1364M1089 1447L1140 1382M1163 24L1251 42M1163 24L1140 -58M1163 1464L1140 1382M1251 42L1345 23M1251 42L1215 145M1251 42L1266 -77M1251 1482L1266 1363M1345 23L1405 19M1345 23L1336 128M1345 23L1292 -75M1345 23L1371 -28M1345 1463L1292 1365M1345 1463L1371 1412M1405 19L1488 73M1405 19L1371 -28M1405 19L1483 -40M1405 1459L1371 1412M1405 1459L1483 1400M1488 73L1403 140M1488 73L1514 85M1488 73L1581 109M1488 73L1460 166M1570 12L1666 24M1570 12L1514 85M1570 12L1581 109M1570 12L1578 -27M1570 12L1616 -39M1570 1452L1578 1413M1570 1452L1616 1401M1666 24L1723 34M1666 24L1703 99M1666 24L1616 -39M1666 24L1721 -6M1666 1464L1616 1401M1666 1464L1721 1434M1723 34L1769 75M1723 34L1703 99M1723 34L1721 -6M1723 34L1806 -20M1723 1474L1721 1434M1723 1474L1806 1420M1769 75L1703 99M1769 75L1790 158M1769 75L1857 112M1769 75L1721 -6M1769 1515L1721 1434M1885 24L1930 72M1885 24L1857 112M1885 24L1806 -20M1885 24L1901 -62M1885 24L1961 -39M1885 1464L1806 1420M1885 1464L1901 1378M1885 1464L1961 1401M1930 72L1857 112M1930 72L1966 147M1930 72L1961 -39M1930 1512L1961 1401M2075 49L2105 16M2075 49L2052 138M2075 49L2067 -51M2075 49L2082 -7M2075 1489L2067 1389M2075 1489L2082 1433M2105 16L2151 -83M2105 16L2067 -51M2105 16L2082 -7M2105 16L2162 -11M2105 1456L2151 1357M2105 1456L2067 1389M2105 1456L2082 1433M2105 1456L2162 1429M2232 50L2241 21M2232 50L2209 99M2232 50L2276 135M2232 50L2162 -11M2232 1490L2162 1429M2241 21L2332 22M2241 21L2209 99M2241 21L2162 -11M2241 21L2293 -31M2241 1461L2162 1429M2241 1461L2293 1409M2332 22L2416 41M2332 22L2402 80M2332 22L2293 -31M2332 22L2371 -38M2332 1462L2293 1409M2332 1462L2371 1402M2416 41L2491 47M2416 41L2402 80M2416 41L2371 -38M2416 41L2415 -63M2416 1481L2371 1402M2416 1481L2415 1377M2491 47L2402 80M2491 47L2553 110M2491 47L2547 -23M2491 1487L2547 1417M22 124L118 98M22 124L-7 110M22 124L14 224M22 124L-50 181M2582 124L2553 110M2582 124L2510 181M118 98L203 135M118 98L145 160M203 135L145 160M203 135L189 188M203 135L295 185M304 88L381 103M304 88L295 185M381 103L439 128M381 103L339 202M439 128L447 235M549 84L616 86M549 84L527 -17M549 1524L527 1423M616 86L686 98M616 86L620 199M686 98L740 106M686 98L694 188M740 106L694 188M740 106L797 163M740 106L802 180M841 92L885 101M841 92L797 163M841 92L802 180M885 101L951 178M1030 102L1049 107M1030 102L951 178M1030 102L1007 191M1049 107L951 178M1049 107L1007 191M1191 138L1215 145M1191 138L1229 197M1215 145L1179 219M1215 145L1229 197M1215 145L1297 191M1336 128L1403 140M1336 128L1297 191M1403 140L1433 230M1403 140L1460 166M1403 140L1381 244M1514 85L1581 109M1514 85L1460 166M1581 109L1672 152M1581 109L1599 196M1672 152L1703 99M1672 152L1599 196M1672 152L1627 229M1672 152L1690 245M1703 99L1721 -6M1703 1539L1721 1434M1790 158L1857 112M1790 158L1754 217M1790 158L1795 223M1790 158L1871 175M1857 112L1871 175M1966 147L2052 138M1966 147L1972 216M2052 138L2148 150M2052 138L2073 222M2052 138L2122 181M2148 150L2209 99M2148 150L2122 181M2148 150L2177 204M2209 99L2276 135M2276 135L2321 127M2276 135L2284 227M2276 135L2268 245M2321 127L2402 80M2321 127L2284 227M2321 127L2386 189M2402 80L2448 173M2553 110L2574 224M2553 110L2448 173M2553 110L2510 181M-7 110L14 224M14 224L-50 181M14 224L5 262M14 224L-1 314M2574 224L2510 181M2574 224L2559 314M145 160L189 188M145 160L191 265M189 188L295 185M189 188L115 287M189 188L191 265M295 185L339 202M339 202L310 303M339 202L337 282M447 235L556 225M447 235L337 282M447 235L468 287M447 235L488 312M556 225L620 199M556 225L468 287M556 225L578 295M620 199L694 188M620 199L578 295M797 163L802 180M797 163L798 244M802 180L798 244M802 180L861 255M951 178L1007 191M1007 191L1115 221M1007 191L980 291M1115 221L1179 219M1115 221L1079 289M1115 221L1188 269M1179 219L1229 197M1179 219L1188 269M1179 219L1212 277M1229 197L1297 191M1229 197L1188 269M1297 191L1359 275M1297 191L1381 244M1433 230L1460 166M1433 230L1359 275M1433 230L1381 244M1433 230L1476 241M1460 166L1476 241M1599 196L1627 229M1599 196L1574 241M1599 196L1608 269M1627 229L1574 241M1627 229L1608 269M1627 229L1690 245M1754 217L1795 223M1754 217L1690 245M1754 217L1796 300M1795 223L1871 175M1795 223L1796 300M1795 223L1872 266M1972 216L2073 222M1972 216L1962 294M1972 216L2027 240M2073 222L2122 181M2073 222L2027 240M2073 222L2113 289M2122 181L2177 204M2177 204L2191 293M2177 204L2268 245M2284 227L2191 293M2284 227L2268 245M2284 227L2356 281M2386 189L2448 173M2386 189L2356 281M2448 173L2510 181M2448 173L2461 283M2510 181L2565 262M-50 181L5 262M5 262L-99 283M5 262L-1 314M2565 262L2461 283M2565 262L2559 314M115 287L191 265M115 287L142 385M115 287L172 343M191 265L172 343M310 303L337 282M310 303L285 379M310 303L377 346M337 282L285 379M337 282L377 346M468 287L488 312M488 312L578 295M488 312L418 374M488 312L534 398M578 295L630 369M714 292L693 326M714 292L744 339M798 244L861 255M798 244L870 322M861 255L901 298M861 255L870 322M901 298L980 291M901 298L870 322M901 298L917 366M901 298L972 337M980 291L1079 289M980 291L917 366M980 291L972 337M1079 289L1057 386M1188 269L1212 277M1188 269L1244 323M1212 277L1179 373M1212 277L1244 323M1212 277L1280 343M1359 275L1381 244M1359 275L1476 241M1359 275L1280 343M1381 244L1476 241M1476 241L1574 241M1574 241L1608 269M1574 241L1690 245M1608 269L1690 245M1608 269L1636 337M1796 300L1872 266M1796 300L1822 324M1796 300L1856 352M1872 266L1962 294M1872 266L1822 324M1872 266L1856 352M1962 294L2027 240M1962 294L1962 341M1962 294L2034 324M2027 240L2113 289M2027 240L2034 324M2113 289L2191 293M2113 289L2034 324M2113 289L2164 341M2191 293L2268 245M2191 293L2164 341M2268 245L2356 281M2356 281L2316 370M2356 281L2374 387M2461 283L2559 314M2461 283L2418 359M2461 283L2511 367M2559 314L2582 397M2559 314L2511 367M-1 314L22 397M22 397L-49 367M22 397L49 446M22 397L-25 457M2582 397L2511 367M2582 397L2535 457M142 385L172 343M142 385L131 417M142 385L213 455M142 385L145 495M172 343L131 417M285 379L377 346M285 379L303 464M377 346L418 374M377 346L397 424M418 374L397 424M418 374L417 437M534 398L630 369M534 398L539 440M534 398L567 429M534 398L532 494M630 369L693 326M630 369L567 429M630 369L664 477M693 326L744 339M870 322L917 366M870 322L972 337M917 366L972 337M917 366L964 441M1057 386L1100 440M1057 386L1062 486M1179 373L1244 323M1179 373L1100 440M1179 373L1182 415M1244 323L1280 343M1244 323L1182 415M1280 343L1272 449M1280 343L1307 431M1429 360L1458 394M1429 360L1423 432M1429 360L1458 403M1458 394L1423 432M1458 394L1458 403M1458 394L1415 496M1576 373L1636 337M1576 373L1458 403M1576 373L1613 468M1636 337L1693 375M1693 375L1693 432M1822 324L1856 352M1822 324L1800 423M1856 352L1800 423M1856 352L1897 410M1962 341L2034 324M1962 341L1897 410M1962 341L1956 419M2034 324L2082 392M2082 392L2164 341M2082 392L2001 458M2082 392L2113 477M2082 392L2062 491M2316 370L2374 387M2316 370L2418 359M2316 370L2275 442M2316 370L2339 461M2374 387L2418 359M2374 387L2339 461M2374 387L2379 487M2418 359L2511 367M2418 359L2474 470M2511 367L2535 457M49 446L131 417M49 446L-25 457M49 446L67 524M2609 446L2535 457M131 417L213 455M131 417L145 495M213 455L303 464M213 455L145 495M213 455L278 506M303 464L278 506M303 464L376 485M303 464L407 485M397 424L417 437M397 424L376 485M397 424L407 485M417 437L376 485M417 437L407 485M539 440L567 429M539 440L532 494M567 429L664 477M567 429L532 494M664 477L720 481M787 476L878 460M787 476L720 481M787 476L735 554M787 476L816 529M878 460L929 466M878 460L964 441M878 460L934 504M878 460L960 498M929 466L964 441M929 466L934 504M929 466L960 498M964 441L934 504M964 441L960 498M1100 440L1182 415M1100 440L1062 486M1100 440L1124 545M1182 415L1272 449M1182 415L1307 431M1272 449L1307 431M1272 449L1280 526M1307 431L1423 432M1307 431L1280 526M1423 432L1458 403M1423 432L1415 496M1458 403L1415 496M1561 474L1613 468M1561 474L1550 505M1561 474L1618 486M1613 468L1693 432M1613 468L1550 505M1613 468L1618 486M1693 432L1800 423M1693 432L1618 486M1693 432L1704 536M1800 423L1897 410M1800 423L1856 489M1897 410L1956 419M1897 410L1856 489M1956 419L2001 458M1956 419L1856 489M1956 419L1935 521M2001 458L1935 521M2001 458L2062 491M2113 477L2227 452M2113 477L2062 491M2113 477L2082 550M2227 452L2275 442M2227 452L2234 485M2227 452L2242 505M2275 442L2339 461M2275 442L2234 485M2275 442L2242 505M2339 461L2234 485M2339 461L2379 487M2474 470L2535 457M2474 470L2379 487M2474 470L2421 526M2474 470L2535 511M2535 457L2535 511M67 524L145 495M67 524L167 545M67 524L-25 511M67 524L34 570M2627 524L2535 511M145 495L167 545M167 545L137 605M167 545L236 580M167 545L249 611M278 506L376 485M278 506L236 580M376 485L407 485M407 485L483 561M532 494L572 557M532 494L483 561M572 557L483 561M572 557L566 618M572 557L620 657M720 481L735 554M720 481L688 574M720 481L770 565M735 554L816 529M735 554L688 574M735 554L770 565M816 529L770 565M816 529L845 607M816 529L882 615M934 504L960 498M960 498L1062 486M1062 486L1124 545M1062 486L1088 587M1124 545L1216 550M1124 545L1088 587M1124 545L1175 634M1216 550L1280 526M1216 550L1175 634M1216 550L1212 629M1216 550L1286 620M1280 526L1286 620M1415 496L1476 549M1476 549L1390 626M1476 549L1517 574M1476 549L1573 570M1550 505L1618 486M1550 505L1517 574M1550 505L1573 570M1618 486L1704 536M1704 536L1781 555M1704 536L1759 614M1781 555L1759 614M1781 555L1831 606M1781 555L1856 560M1781 555L1810 656M1856 489L1935 521M1856 489L1856 560M1935 521L1856 560M1935 521L1977 631M2062 491L2082 550M2082 550L2061 587M2082 550L2118 616M2234 485L2242 505M2234 485L2204 563M2242 505L2204 563M2242 505L2266 585M2379 487L2421 526M2421 526L2384 600M2421 526L2459 615M2535 511L2594 570M2535 511L2550 598M-25 511L34 570M34 570L137 605M34 570L-10 598M34 570L-1 641M2594 570L2550 598M2594 570L2559 641M137 605L236 580M137 605L114 674M137 605L161 676M236 580L249 611M236 580L272 673M249 611L345 617M249 611L161 676M249 611L272 673M345 617L444 621M345 617L272 673M345 617L362 697M444 621L483 561M444 621L447 645M444 621L508 674M483 561L447 645M566 618L508 674M566 618L620 657M688 574L770 565M688 574L620 657M688 574L689 674M770 565L845 607M845 607L882 615M845 607L841 716M845 607L892 652M882 615L998 617M882 615L892 652M998 617L1088 587M998 617L892 652M998 617L1025 652M1088 587L1025 652M1088 587L1103 675M1175 634L1212 629M1175 634L1103 675M1175 634L1164 720M1212 629L1286 620M1212 629L1246 710M1212 629L1289 677M1286 620L1289 677M1390 626L1396 677M1517 574L1573 570M1517 574L1606 628M1573 570L1606 628M1573 570L1581 652M1606 628L1581 652M1606 628L1619 663M1606 628L1680 681M1759 614L1831 606M1759 614L1810 656M1831 606L1856 560M1831 606L1810 656M1831 606L1917 678M1977 631L2061 587M1977 631L1917 678M1977 631L1981 701M1977 631L2049 661M2061 587L2118 616M2061 587L2049 661M2118 616L2049 661M2118 616L2143 661M2118 616L2214 677M2204 563L2266 585M2204 563L2143 661M2384 600L2459 615M2459 615L2550 598M2459 615L2406 716M2459 615L2559 641M2550 598L2559 641M57 688L114 674M57 688L-1 641M57 688L58 746M2617 688L2559 641M114 674L161 676M114 674L58 746M114 674L142 730M161 676L272 673M161 676L142 730M272 673L362 697M362 697L397 729M362 697L432 725M447 645L508 674M447 645L397 729M447 645L432 725M508 674L519 763M508 674L562 743M620 657L689 674M620 657L562 743M689 674L750 688M689 674L670 769M750 688L841 716M750 688L670 769M750 688L769 789M841 716L892 652M841 716L869 745M841 716L894 806M892 652L869 745M1025 652L1103 675M1025 652L1021 727M1025 652L1041 726M1103 675L1164 720M1103 675L1041 726M1164 720L1246 710M1164 720L1182 772M1246 710L1289 677M1246 710L1182 772M1246 710L1267 743M1289 677L1396 677M1289 677L1267 743M1396 677L1510 709M1396 677L1412 754M1396 677L1471 733M1510 709L1581 652M1510 709L1471 733M1510 709L1554 785M1510 709L1450 810M1581 652L1619 663M1581 652L1680 681M1619 663L1680 681M1619 663L1635 746M1680 681L1635 746M1680 681L1735 737M1810 656L1735 737M1810 656L1812 754M1917 678L1981 701M1981 701L2049 661M1981 701L1932 775M1981 701L2012 796M2049 661L2143 661M2143 661L2214 677M2143 661L2232 728M2214 677L2313 684M2214 677L2232 728M2214 677L2277 737M2313 684L2332 677M2313 684L2232 728M2313 684L2277 737M2332 677L2406 716M2332 677L2277 737M2332 677L2391 752M2332 677L2406 733M2406 716L2391 752M2406 716L2406 733M2406 716L2480 778M58 746L142 730M58 746L43 825M58 746L91 830M142 730L199 786M142 730L172 811M199 786L309 780M199 786L172 811M199 786L295 846M309 780L397 729M309 780L295 846M309 780L366 869M397 729L432 725M397 729L452 829M432 725L519 763M519 763L562 743M519 763L452 829M519 763L523 814M562 743L523 814M562 743L579 850M670 769L769 789M769 789L760 866M769 789L842 841M869 745L949 789M869 745L842 841M869 745L894 806M949 789L1021 727M949 789L894 806M949 789L972 808M1021 727L1041 726M1021 727L972 808M1021 727L1102 814M1041 726L972 808M1041 726L1102 814M1182 772L1267 743M1182 772L1102 814M1182 772L1139 836M1267 743L1340 789M1340 789L1412 754M1340 789L1309 852M1340 789L1373 819M1412 754L1471 733M1412 754L1373 819M1412 754L1450 810M1471 733L1554 785M1471 733L1450 810M1554 785L1635 746M1554 785L1564 853M1635 746L1735 737M1735 737L1812 754M1812 754L1851 786M1812 754L1818 826M1851 786L1932 775M1851 786L1818 826M1851 786L1907 817M1932 775L2012 796M1932 775L1907 817M1932 775L1952 824M2012 796L2130 794M2012 796L1952 824M2012 796L2079 867M2130 794L2079 867M2130 794L2156 832M2232 728L2277 737M2232 728L2228 812M2277 737L2228 812M2391 752L2406 733M2391 752L2480 778M2391 752L2337 822M2406 733L2480 778M2480 778L2440 849M2480 778L2511 831M43 825L91 830M43 825L-49 831M43 825L6 901M2603 825L2511 831M91 830L172 811M172 811L168 898M295 846L366 869M295 846L241 933M366 869L452 829M366 869L362 946M366 869L413 881M452 829L523 814M452 829L413 881M523 814L579 850M523 814L413 881M579 850L646 875M579 850L520 945M579 850L630 932M646 875L760 866M646 875L630 932M646 875L681 892M646 875L747 901M760 866L842 841M760 866L681 892M760 866L747 901M842 841L894 806M842 841L916 908M894 806L972 808M972 808L916 908M1102 814L1139 836M1102 814L1167 900M1139 836L1072 930M1139 836L1167 900M1274 871L1309 852M1274 871L1256 954M1274 871L1285 923M1274 871L1263 964M1309 852L1373 819M1309 852L1285 923M1373 819L1450 810M1373 819L1433 905M1450 810L1433 905M1564 853L1664 870M1564 853L1518 907M1664 870L1745 869M1664 870L1596 944M1664 870L1671 933M1664 870L1742 885M1745 869L1818 826M1745 869L1742 885M1745 869L1787 888M1818 826L1907 817M1818 826L1787 888M1907 817L1952 824M1952 824L1920 906M1952 824L1944 914M2079 867L2156 832M2079 867L2005 906M2079 867L2128 918M2156 832L2228 812M2156 832L2128 918M2156 832L2208 881M2228 812L2274 853M2228 812L2208 881M2274 853L2337 822M2274 853L2208 881M2274 853L2308 930M2337 822L2440 849M2337 822L2395 913M2440 849L2511 831M2440 849L2395 913M2440 849L2442 929M2511 831L2566 901M-49 831L6 901M6 901L87 927M6 901L-25 952M2566 901L2535 952M87 927L168 898M87 927L129 966M168 898L241 933M168 898L129 966M168 898L181 984M241 933L181 984M241 933L265 978M362 946L413 881M362 946L342 992M520 945L630 932M520 945L515 986M520 945L564 1024M630 932L681 892M630 932L691 1018M681 892L747 901M868 947L916 908M868 947L877 992M868 947L906 1022M868 947L871 1053M916 908L1015 929M1015 929L1072 930M1015 929L1086 1006M1072 930L1167 900M1072 930L1086 1006M1167 900L1171 1008M1256 954L1285 923M1256 954L1171 1008M1256 954L1263 964M1256 954L1302 1021M1285 923L1263 964M1433 905L1518 907M1433 905L1431 1002M1433 905L1476 971M1518 907L1596 944M1518 907L1476 971M1518 907L1553 974M1596 944L1671 933M1596 944L1553 974M1596 944L1666 1014M1671 933L1742 885M1671 933L1666 1014M1671 933L1739 980M1742 885L1787 888M1742 885L1774 967M1787 888L1739 980M1787 888L1774 967M1920 906L1944 914M1920 906L2005 906M1920 906L1908 989M1920 906L1930 989M1944 914L2005 906M1944 914L1908 989M1944 914L1930 989M2128 918L2208 881M2128 918L2145 982M2128 918L2172 1025M2308 930L2395 913M2308 930L2245 1017M2395 913L2442 929M2442 929L2535 952M2535 952L2565 1014M2535 952L2549 1036M-25 952L5 1014M5 1014L-11 1036M5 1014L52 1048M5 1014L86 1056M5 1014L-69 1071M2565 1014L2549 1036M2565 1014L2491 1071M129 966L181 984M129 966L52 1048M129 966L86 1056M181 984L265 978M181 984L213 1048M265 978L342 992M265 978L213 1048M265 978L307 1056M342 992L402 1035M342 992L307 1056M342 992L393 1040M402 1035L307 1056M402 1035L393 1040M402 1035L445 1105M402 1035L373 1125M515 986L564 1024M515 986L516 1090M564 1024L516 1090M564 1024L616 1047M691 1018L762 1029M691 1018L616 1047M691 1018L709 1059M691 1018L762 1100M762 1029L709 1059M762 1029L762 1100M877 992L906 1022M877 992L968 1023M877 992L871 1053M877 992L888 1088M906 1022L968 1023M906 1022L871 1053M906 1022L888 1088M968 1023L871 1053M968 1023L993 1116M968 1023L1059 1065M1086 1006L1171 1008M1086 1006L1059 1065M1086 1006L1121 1106M1171 1008L1263 964M1171 1008L1121 1106M1263 964L1302 1021M1302 1021L1274 1102M1302 1021L1331 1083M1302 1021L1372 1086M1431 1002L1476 971M1476 971L1553 974M1476 971L1535 1057M1553 974L1535 1057M1553 974L1621 1054M1666 1014L1739 980M1666 1014L1621 1054M1666 1014L1682 1052M1739 980L1774 967M1739 980L1682 1052M1774 967L1682 1052M1774 967L1831 1045M1908 989L1930 989M1908 989L1831 1045M1930 989L1831 1045M2054 1035L2145 982M2054 1035L1981 1105M2054 1035L2025 1077M2054 1035L2114 1108M2145 982L2172 1025M2145 982L2200 1046M2172 1025L2245 1017M2172 1025L2200 1046M2245 1017L2334 1029M2245 1017L2200 1046M2245 1017L2312 1045M2334 1029L2402 1029M2334 1029L2312 1045M2334 1029L2388 1091M2334 1029L2412 1057M2402 1029L2312 1045M2402 1029L2388 1091M2402 1029L2412 1057M2402 1029L2491 1071M2549 1036L2612 1048M2549 1036L2646 1056M2549 1036L2491 1071M-11 1036L52 1048M-11 1036L86 1056M52 1048L86 1056M86 1056L168 1121M213 1048L168 1121M307 1056L393 1040M393 1040L445 1105M393 1040L373 1125M445 1105L516 1090M445 1105L373 1125M445 1105L400 1154M516 1090L616 1047M516 1090L511 1186M616 1047L709 1059M616 1047L658 1134M709 1059L762 1100M709 1059L658 1134M762 1100L721 1162M871 1053L888 1088M993 1116L1059 1065M993 1116L957 1190M993 1116L999 1177M993 1116L1045 1133M1059 1065L1121 1106M1059 1065L1045 1133M1121 1106L1045 1133M1121 1106L1181 1179M1274 1102L1331 1083M1274 1102L1277 1156M1274 1102L1302 1141M1331 1083L1372 1086M1331 1083L1302 1141M1331 1083L1362 1136M1372 1086L1302 1141M1372 1086L1362 1136M1372 1086L1452 1151M1497 1115L1535 1057M1497 1115L1452 1151M1497 1115L1537 1130M1535 1057L1621 1054M1535 1057L1537 1130M1621 1054L1682 1052M1621 1054L1644 1145M1682 1052L1644 1145M1831 1045L1879 1106M1879 1106L1981 1105M1879 1106L1837 1179M1879 1106L1897 1178M1981 1105L2025 1077M1981 1105L1969 1171M1981 1105L2001 1129M2025 1077L2114 1108M2025 1077L2001 1129M2114 1108L2200 1046M2114 1108L2094 1167M2114 1108L2170 1162M2312 1045L2333 1135M2388 1091L2412 1057M2388 1091L2333 1135M2388 1091L2413 1143M2412 1057L2491 1071M2412 1057L2413 1143M2491 1071L2511 1131M80 1162L158 1179M80 1162L168 1121M80 1162L44 1204M80 1162L103 1254M158 1179L168 1121M158 1179L253 1195M158 1179L103 1254M158 1179L222 1228M253 1195L222 1228M253 1195L296 1254M253 1195L320 1211M373 1125L400 1154M400 1154L511 1186M400 1154L320 1211M400 1154L462 1204M511 1186L462 1204M511 1186L482 1231M511 1186L560 1282M638 1161L658 1134M638 1161L721 1162M638 1161L633 1208M638 1161L719 1229M658 1134L721 1162M658 1134L633 1208M721 1162L807 1188M721 1162L719 1229M807 1188L719 1229M807 1188L794 1274M807 1188L868 1237M807 1188L885 1237M957 1190L999 1177M957 1190L885 1237M957 1190L1018 1252M999 1177L1045 1133M999 1177L1018 1252M999 1177L1080 1241M1181 1179L1277 1156M1181 1179L1146 1278M1181 1179L1255 1225M1277 1156L1302 1141M1277 1156L1362 1136M1277 1156L1255 1225M1302 1141L1362 1136M1362 1136L1452 1151M1452 1151L1537 1130M1452 1151L1486 1246M1537 1130L1564 1220M1644 1145L1683 1187M1644 1145L1564 1220M1683 1187L1650 1259M1683 1187L1715 1280M1683 1187L1700 1287M1837 1179L1897 1178M1837 1179L1794 1243M1837 1179L1823 1282M1897 1178L1969 1171M1897 1178L1919 1254M1969 1171L2001 1129M1969 1171L1995 1254M1969 1171L2019 1231M2094 1167L2170 1162M2094 1167L2019 1231M2094 1167L2084 1211M2094 1167L2168 1237M2170 1162L2286 1168M2170 1162L2084 1211M2170 1162L2168 1237M2286 1168L2333 1135M2286 1168L2311 1277M2286 1168L2379 1204M2286 1168L2286 1284M2333 1135L2413 1143M2333 1135L2379 1204M2413 1143L2379 1204M2413 1143L2449 1230M2511 1131L2604 1204M2511 1131L2449 1230M2511 1131L2507 1216M-49 1131L44 1204M44 1204L103 1254M44 1204L-53 1216M2604 1204L2507 1216M103 1254L50 1324M103 1254L139 1350M222 1228L296 1254M222 1228L320 1211M222 1228L203 1316M296 1254L320 1211M296 1254L285 1302M296 1254L338 1288M320 1211L338 1288M462 1204L482 1231M482 1231L472 1339M482 1231L560 1282M633 1208L719 1229M633 1208L642 1304M719 1229L794 1274M794 1274L868 1237M794 1274L791 1324M794 1274L859 1302M868 1237L885 1237M868 1237L859 1302M868 1237L886 1304M885 1237L859 1302M885 1237L886 1304M1018 1252L1080 1241M1018 1252L1031 1293M1080 1241L1146 1278M1080 1241L1031 1293M1080 1241L1078 1297M1146 1278L1078 1297M1146 1278L1145 1318M1146 1278L1140 1382M1255 1225L1343 1225M1255 1225L1275 1350M1430 1272L1486 1246M1430 1272L1410 1311M1430 1272L1478 1297M1430 1272L1521 1326M1486 1246L1564 1220M1486 1246L1478 1297M1486 1246L1521 1326M1564 1220L1650 1259M1564 1220L1521 1326M1650 1259L1715 1280M1650 1259L1675 1309M1650 1259L1700 1287M1715 1280L1794 1243M1715 1280L1675 1309M1715 1280L1700 1287M1794 1243L1700 1287M1794 1243L1823 1282M1794 1243L1870 1313M1919 1254L1995 1254M1919 1254L1870 1313M1919 1254L1931 1316M1995 1254L2019 1231M1995 1254L1931 1316M1995 1254L2063 1285M2019 1231L2084 1211M2019 1231L2063 1285M2084 1211L2168 1237M2084 1211L2063 1285M2168 1237L2063 1285M2168 1237L2184 1320M2311 1277L2379 1204M2311 1277L2286 1284M2311 1277L2341 1352M2379 1204L2449 1230M2449 1230L2507 1216M2449 1230L2466 1287M2507 1216L2466 1287M2507 1216L2530 1329M50 1324L139 1350M50 1324L-30 1329M50 1324L84 1382M50 1324L-13 1417M2610 1324L2530 1329M2610 1324L2547 1417M139 1350L203 1316M139 1350L84 1382M139 1350L163 1384M203 1316L285 1302M203 1316L163 1384M203 1316L257 1400M285 1302L338 1288M285 1302L257 1400M285 1302L377 1361M338 1288L377 1361M472 1339L560 1282M472 1339L377 1361M472 1339L455 1431M472 1339L527 1423M560 1282L601 1358M560 1282L642 1304M601 1358L642 1304M601 1358L527 1423M601 1358L633 1371M601 1358L678 1368M642 1304L633 1371M642 1304L678 1368M791 1324L859 1302M791 1324L886 1304M791 1324L769 1420M791 1324L870 1390M859 1302L886 1304M886 1304L870 1390M1031 1293L1078 1297M1031 1293L1023 1367M1031 1293L1041 1364M1078 1297L1145 1318M1078 1297L1041 1364M1145 1318L1140 1382M1275 1350L1333 1324M1275 1350L1266 1363M1275 1350L1292 1365M1275 1350L1371 1412M1333 1324L1410 1311M1333 1324L1266 1363M1333 1324L1292 1365M1333 1324L1371 1412M1410 1311L1478 1297M1478 1297L1521 1326M1478 1297L1483 1400M1521 1326L1483 1400M1675 1309L1700 1287M1675 1309L1616 1401M1823 1282L1870 1313M1870 1313L1931 1316M1870 1313L1901 1378M1931 1316L1901 1378M1931 1316L1961 1401M2151 1357L2184 1320M2151 1357L2067 1389M2151 1357L2082 1433M2151 1357L2162 1429M2184 1320L2286 1284M2286 1284L2341 1352M2286 1284L2293 1409M2341 1352L2293 1409M2341 1352L2371 1402M2341 1352L2415 1377M2466 1287L2530 1329M2466 1287L2415 1377M2530 1329L2547 1417M66 1438L84 1382M66 1438L-13 1417M2626 1438L2547 1417M84 1382L163 1384M163 1384L257 1400M377 1361L455 1431M455 1431L527 1423M633 1371L678 1368M678 1368L769 1420M769 1420L870 1390M870 1390L934 1418M934 1418L1023 1367M1023 1367L1041 1364M1041 1364L1140 1382M1266 1363L1292 1365M1292 1365L1371 1412M1483 1400L1578 1413M1578 1413L1616 1401M1721 1434L1806 1420M1806 1420L1901 1378M1901 1378L1961 1401M2067 1389L2082 1433M2082 1433L2162 1429M2293 1409L2371 1402M2371 1402L2415 1377"/></svg>