<svg xmlns="http://www.w3.org/2000/svg" width="2560" height="1440" fill="#fff"><circle cx="43" cy="35" r="4"/><circle cx="139" cy="1" r="6"/><circle cx="139" cy="1441" r="6"/><circle cx="202" cy="26" r="5"/><circle cx="310" cy="50" r="4"/><circle cx="327" cy="58" r="5"/><circle cx="421" cy="36" r="5"/><circle cx="519" cy="73" r="4"/><circle cx="596" cy="36" r="5"/><circle cx="704" cy="50" r="4"/><circle cx="793" cy="23" r="5"/><circle cx="855" cy="67" r="5"/><circle cx="940" cy="66" r="4"/><circle cx="994" cy="60" r="5"/><circle cx="1071" cy="61" r="4"/><circle cx="1166" cy="6" r="5"/><circle cx="1275" cy="33" r="6"/><circle cx="1346" cy="53" r="5"/><circle cx="1409" cy="58" r="5"/><circle cx="1504" cy="48" r="5"/><circle cx="1592" cy="65" r="6"/><circle cx="1650" cy="56" r="4"/><circle cx="1687" cy="41" r="4"/><circle cx="1772" cy="70" r="5"/><circle cx="1914" cy="4" r="5"/><circle cx="1914" cy="1444" r="5"/><circle cx="1980" cy="13" r="4"/><circle cx="2008" cy="69" r="5"/><circle cx="2099" cy="61" r="5"/><circle cx="2161" cy="53" r="4"/><circle cx="2242" cy="72" r="4"/><circle cx="2349" cy="64" r="6"/><circle cx="2470" cy="45" r="6"/><circle cx="2523" cy="52" r="6"/><circle cx="34" cy="115" r="5"/><circle cx="106" cy="96" r="4"/><circle cx="223" cy="143" r="6"/><circle cx="271" cy="125" r="5"/><circle cx="341" cy="94" r="4"/><circle cx="442" cy="135" r="5"/><circle cx="558" cy="87" r="5"/><circle cx="585" cy="116" r="6"/><circle cx="653" cy="110" r="6"/><circle cx="735" cy="141" r="6"/><circle cx="850" cy="132" r="4"/><circle cx="944" cy="100" r="5"/><circle cx="963" cy="152" r="5"/><circle cx="1071" cy="156" r="6"/><circle cx="1198" cy="145" r="6"/><circle cx="1213" cy="111" r="4"/><circle cx="1335" cy="113" r="6"/><circle cx="1366" cy="153" r="4"/><circle cx="1482" cy="142" r="6"/><circle cx="1540" cy="148" r="6"/><circle cx="1634" cy="134" r="5"/><circle cx="1686" cy="102" r="5"/><circle cx="1784" cy="100" r="5"/><circle cx="1870" cy="108" r="6"/><circle cx="1997" cy="97" r="6"/><circle cx="2066" cy="117" r="6"/><circle cx="2123" cy="95" r="4"/><circle cx="2208" cy="84" r="4"/><circle cx="2313" cy="94" r="6"/><circle cx="2324" cy="149" r="4"/><circle cx="2445" cy="141" r="5"/><circle cx="2559" cy="154" r="5"/><circle cx="-1" cy="154" r="5"/><circle cx="21" cy="198" r="4"/><circle cx="114" cy="172" r="6"/><circle cx="179" cy="211" r="6"/><circle cx="277" cy="189" r="5"/><circle cx="337" cy="195" r="6"/><circle cx="454" cy="177" r="4"/><circle cx="520" cy="237" r="6"/><circle cx="622" cy="200" r="5"/><circle cx="686" cy="202" r="5"/><circle cx="784" cy="218" r="4"/><circle cx="831" cy="180" r="5"/><circle cx="953" cy="198" r="4"/><circle cx="1020" cy="223" r="4"/><circle cx="1067" cy="233" r="5"/><circle cx="1157" cy="172" r="5"/><circle cx="1252" cy="179" r="5"/><circle cx="1317" cy="203" r="5"/><circle cx="1396" cy="188" r="5"/><circle cx="1486" cy="222" r="5"/><circle cx="1560" cy="228" r="5"/><circle cx="1653" cy="200" r="5"/><circle cx="1725" cy="183" r="5"/><circle cx="1778" cy="164" r="6"/><circle cx="1902" cy="170" r="6"/><circle cx="1925" cy="176" r="5"/><circle cx="2016" cy="187" r="4"/><circle cx="2139" cy="181" r="4"/><circle cx="2196" cy="195" r="6"/><circle cx="2308" cy="233" r="6"/><circle cx="2330" cy="164" r="6"/><circle cx="2419" cy="208" r="6"/><circle cx="2542" cy="236" r="5"/><circle cx="48" cy="243" r="4"/><circle cx="102" cy="242" r="5"/><circle cx="209" cy="248" r="5"/><circle cx="259" cy="278" r="5"/><circle cx="365" cy="279" r="4"/><circle cx="408" cy="270" r="5"/><circle cx="487" cy="299" r="4"/><circle cx="562" cy="262" r="5"/><circle cx="716" cy="319" r="4"/><circle cx="773" cy="295" r="5"/><circle cx="863" cy="315" r="5"/><circle cx="950" cy="267" r="5"/><circle cx="962" cy="283" r="5"/><circle cx="1113" cy="246" r="4"/><circle cx="1128" cy="259" r="5"/><circle cx="1262" cy="266" r="6"/><circle cx="1306" cy="298" r="5"/><circle cx="1374" cy="245" r="6"/><circle cx="1519" cy="240" r="4"/><circle cx="1568" cy="257" r="5"/><circle cx="1641" cy="309" r="6"/><circle cx="1693" cy="260" r="6"/><circle cx="1824" cy="279" r="4"/><circle cx="1859" cy="266" r="6"/><circle cx="1995" cy="287" r="5"/><circle cx="2055" cy="280" r="5"/><circle cx="2132" cy="260" r="6"/><circle cx="2174" cy="272" r="5"/><circle cx="2318" cy="245" r="5"/><circle cx="2384" cy="253" r="5"/><circle cx="2407" cy="313" r="5"/><circle cx="2530" cy="268" r="5"/><circle cx="48" cy="353" r="6"/><circle cx="101" cy="377" r="4"/><circle cx="161" cy="347" r="5"/><circle cx="302" cy="331" r="5"/><circle cx="371" cy="330" r="5"/><circle cx="477" cy="359" r="4"/><circle cx="550" cy="329" r="5"/><circle cx="616" cy="364" r="4"/><circle cx="671" cy="322" r="5"/><circle cx="787" cy="334" r="4"/><circle cx="819" cy="380" r="6"/><circle cx="901" cy="371" r="5"/><circle cx="1002" cy="364" r="5"/><circle cx="1072" cy="372" r="6"/><circle cx="1189" cy="334" r="6"/><circle cx="1200" cy="389" r="4"/><circle cx="1302" cy="329" r="5"/><circle cx="1409" cy="321" r="4"/><circle cx="1473" cy="348" r="4"/><circle cx="1542" cy="360" r="4"/><circle cx="1657" cy="325" r="5"/><circle cx="1760" cy="392" r="4"/><circle cx="1824" cy="348" r="4"/><circle cx="1877" cy="382" r="5"/><circle cx="1930" cy="360" r="6"/><circle cx="2005" cy="380" r="4"/><circle cx="2086" cy="368" r="4"/><circle cx="2212" cy="352" r="5"/><circle cx="2251" cy="397" r="5"/><circle cx="2334" cy="338" r="6"/><circle cx="2401" cy="390" r="6"/><circle cx="2514" cy="330" r="5"/><circle cx="21" cy="430" r="5"/><circle cx="126" cy="458" r="5"/><circle cx="161" cy="453" r="6"/><circle cx="280" cy="417" r="4"/><circle cx="371" cy="439" r="5"/><circle cx="427" cy="434" r="4"/><circle cx="511" cy="430" r="5"/><circle cx="629" cy="446" r="4"/><circle cx="692" cy="414" r="6"/><circle cx="724" cy="428" r="5"/><circle cx="850" cy="456" r="6"/><circle cx="893" cy="461" r="5"/><circle cx="1036" cy="422" r="6"/><circle cx="1052" cy="415" r="5"/><circle cx="1158" cy="431" r="4"/><circle cx="1262" cy="413" r="5"/><circle cx="1333" cy="461" r="6"/><circle cx="1402" cy="461" r="4"/><circle cx="1509" cy="421" r="4"/><circle cx="1592" cy="455" r="6"/><circle cx="1635" cy="439" r="6"/><circle cx="1685" cy="478" r="4"/><circle cx="1811" cy="412" r="5"/><circle cx="1884" cy="446" r="4"/><circle cx="1923" cy="419" r="5"/><circle cx="2026" cy="478" r="4"/><circle cx="2108" cy="411" r="6"/><circle cx="2240" cy="443" r="5"/><circle cx="2279" cy="420" r="5"/><circle cx="2339" cy="431" r="6"/><circle cx="2467" cy="465" r="5"/><circle cx="2553" cy="433" r="5"/><circle cx="58" cy="556" r="5"/><circle cx="135" cy="536" r="6"/><circle cx="227" cy="504" r="4"/><circle cx="251" cy="520" r="5"/><circle cx="333" cy="540" r="5"/><circle cx="457" cy="530" r="6"/><circle cx="535" cy="556" r="6"/><circle cx="590" cy="533" r="6"/><circle cx="708" cy="516" r="5"/><circle cx="756" cy="486" r="5"/><circle cx="870" cy="489" r="4"/><circle cx="940" cy="537" r="5"/><circle cx="961" cy="541" r="5"/><circle cx="1052" cy="547" r="5"/><circle cx="1140" cy="543" r="6"/><circle cx="1257" cy="484" r="5"/><circle cx="1293" cy="536" r="6"/><circle cx="1414" cy="534" r="5"/><circle cx="1475" cy="538" r="4"/><circle cx="1550" cy="485" r="5"/><circle cx="1650" cy="489" r="6"/><circle cx="1760" cy="509" r="4"/><circle cx="1786" cy="558" r="6"/><circle cx="1879" cy="486" r="6"/><circle cx="1933" cy="484" r="5"/><circle cx="2034" cy="500" r="6"/><circle cx="2108" cy="507" r="5"/><circle cx="2175" cy="485" r="5"/><circle cx="2298" cy="514" r="5"/><circle cx="2335" cy="521" r="4"/><circle cx="2470" cy="541" r="5"/><circle cx="2532" cy="552" r="6"/><circle cx="79" cy="616" r="4"/><circle cx="87" cy="585" r="6"/><circle cx="196" cy="574" r="4"/><circle cx="311" cy="568" r="4"/><circle cx="382" cy="639" r="5"/><circle cx="464" cy="612" r="5"/><circle cx="531" cy="596" r="6"/><circle cx="576" cy="578" r="6"/><circle cx="658" cy="577" r="5"/><circle cx="730" cy="585" r="5"/><circle cx="838" cy="589" r="4"/><circle cx="880" cy="570" r="6"/><circle cx="1021" cy="576" r="6"/><circle cx="1085" cy="610" r="6"/><circle cx="1158" cy="574" r="6"/><circle cx="1223" cy="591" r="6"/><circle cx="1326" cy="614" r="5"/><circle cx="1432" cy="566" r="6"/><circle cx="1477" cy="583" r="4"/><circle cx="1581" cy="635" r="4"/><circle cx="1654" cy="616" r="4"/><circle cx="1753" cy="577" r="6"/><circle cx="1769" cy="581" r="5"/><circle cx="1891" cy="636" r="6"/><circle cx="1938" cy="581" r="5"/><circle cx="2069" cy="589" r="5"/><circle cx="2116" cy="624" r="4"/><circle cx="2168" cy="594" r="4"/><circle cx="2308" cy="633" r="5"/><circle cx="2350" cy="621" r="4"/><circle cx="2421" cy="583" r="4"/><circle cx="2490" cy="587" r="5"/><circle cx="26" cy="715" r="5"/><circle cx="133" cy="700" r="4"/><circle cx="216" cy="715" r="5"/><circle cx="287" cy="658" r="6"/><circle cx="360" cy="687" r="6"/><circle cx="423" cy="647" r="5"/><circle cx="516" cy="680" r="6"/><circle cx="603" cy="677" r="5"/><circle cx="706" cy="643" r="5"/><circle cx="767" cy="680" r="6"/><circle cx="870" cy="662" r="4"/><circle cx="910" cy="693" r="4"/><circle cx="961" cy="674" r="5"/><circle cx="1093" cy="684" r="4"/><circle cx="1175" cy="682" r="5"/><circle cx="1228" cy="640" r="4"/><circle cx="1357" cy="662" r="5"/><circle cx="1417" cy="657" r="4"/><circle cx="1445" cy="663" r="6"/><circle cx="1526" cy="713" r="6"/><circle cx="1605" cy="660" r="5"/><circle cx="1700" cy="707" r="5"/><circle cx="1821" cy="688" r="6"/><circle cx="1905" cy="660" r="6"/><circle cx="1930" cy="697" r="5"/><circle cx="2063" cy="644" r="4"/><circle cx="2100" cy="685" r="5"/><circle cx="2163" cy="668" r="5"/><circle cx="2307" cy="710" r="6"/><circle cx="2343" cy="675" r="5"/><circle cx="2462" cy="711" r="6"/><circle cx="2520" cy="709" r="5"/><circle cx="3" cy="745" r="4"/><circle cx="2563" cy="745" r="4"/><circle cx="85" cy="791" r="5"/><circle cx="231" cy="764" r="5"/><circle cx="243" cy="757" r="5"/><circle cx="366" cy="731" r="4"/><circle cx="467" cy="726" r="5"/><circle cx="555" cy="799" r="5"/><circle cx="568" cy="732" r="4"/><circle cx="710" cy="753" r="5"/><circle cx="781" cy="759" r="6"/><circle cx="822" cy="778" r="6"/><circle cx="889" cy="734" r="5"/><circle cx="1020" cy="724" r="5"/><circle cx="1097" cy="749" r="5"/><circle cx="1179" cy="743" r="5"/><circle cx="1231" cy="757" r="5"/><circle cx="1342" cy="794" r="5"/><circle cx="1412" cy="789" r="5"/><circle cx="1473" cy="795" r="5"/><circle cx="1555" cy="730" r="5"/><circle cx="1675" cy="761" r="5"/><circle cx="1752" cy="797" r="5"/><circle cx="1816" cy="795" r="4"/><circle cx="1877" cy="762" r="6"/><circle cx="1948" cy="723" r="4"/><circle cx="2046" cy="785" r="5"/><circle cx="2131" cy="775" r="4"/><circle cx="2225" cy="772" r="6"/><circle cx="2279" cy="774" r="5"/><circle cx="2338" cy="761" r="5"/><circle cx="2459" cy="755" r="4"/><circle cx="2524" cy="777" r="5"/><circle cx="47" cy="833" r="5"/><circle cx="132" cy="820" r="5"/><circle cx="207" cy="867" r="6"/><circle cx="316" cy="818" r="5"/><circle cx="360" cy="844" r="6"/><circle cx="409" cy="837" r="4"/><circle cx="549" cy="839" r="6"/><circle cx="615" cy="843" r="6"/><circle cx="713" cy="804" r="5"/><circle cx="750" cy="853" r="6"/><circle cx="876" cy="811" r="4"/><circle cx="951" cy="870" r="5"/><circle cx="992" cy="868" r="5"/><circle cx="1064" cy="854" r="5"/><circle cx="1156" cy="869" r="6"/><circle cx="1227" cy="879" r="5"/><circle cx="1340" cy="867" r="5"/><circle cx="1360" cy="868" r="5"/><circle cx="1504" cy="826" r="5"/><circle cx="1585" cy="818" r="5"/><circle cx="1611" cy="819" r="5"/><circle cx="1698" cy="850" r="4"/><circle cx="1767" cy="835" r="5"/><circle cx="1872" cy="848" r="4"/><circle cx="1920" cy="823" r="6"/><circle cx="2046" cy="841" r="5"/><circle cx="2115" cy="823" r="5"/><circle cx="2168" cy="856" r="6"/><circle cx="2247" cy="862" r="6"/><circle cx="2329" cy="801" r="6"/><circle cx="2427" cy="869" r="5"/><circle cx="2554" cy="868" r="6"/><circle cx="32" cy="960" r="4"/><circle cx="116" cy="894" r="6"/><circle cx="229" cy="897" r="4"/><circle cx="246" cy="897" r="5"/><circle cx="365" cy="937" r="5"/><circle cx="416" cy="946" r="5"/><circle cx="510" cy="954" r="6"/><circle cx="596" cy="947" r="6"/><circle cx="684" cy="943" r="5"/><circle cx="758" cy="950" r="4"/><circle cx="808" cy="892" r="5"/><circle cx="905" cy="885" r="5"/><circle cx="1007" cy="957" r="5"/><circle cx="1042" cy="934" r="5"/><circle cx="1120" cy="906" r="4"/><circle cx="1237" cy="887" r="5"/><circle cx="1348" cy="916" r="5"/><circle cx="1427" cy="927" r="4"/><circle cx="1502" cy="896" r="6"/><circle cx="1596" cy="949" r="6"/><circle cx="1613" cy="954" r="5"/><circle cx="1717" cy="944" r="6"/><circle cx="1809" cy="911" r="4"/><circle cx="1864" cy="888" r="4"/><circle cx="1987" cy="940" r="6"/><circle cx="2006" cy="891" r="5"/><circle cx="2094" cy="918" r="6"/><circle cx="2189" cy="949" r="6"/><circle cx="2259" cy="900" r="5"/><circle cx="2378" cy="888" r="4"/><circle cx="2426" cy="938" r="6"/><circle cx="2489" cy="947" r="5"/><circle cx="11" cy="1040" r="5"/><circle cx="99" cy="1000" r="5"/><circle cx="201" cy="965" r="6"/><circle cx="257" cy="1029" r="6"/><circle cx="394" cy="1006" r="5"/><circle cx="416" cy="987" r="5"/><circle cx="488" cy="993" r="5"/><circle cx="599" cy="1024" r="4"/><circle cx="666" cy="975" r="4"/><circle cx="727" cy="1014" r="5"/><circle cx="851" cy="1033" r="6"/><circle cx="916" cy="1018" r="4"/><circle cx="1004" cy="972" r="6"/><circle cx="1102" cy="987" r="4"/><circle cx="1141" cy="1033" r="4"/><circle cx="1204" cy="969" r="6"/><circle cx="1349" cy="972" r="4"/><circle cx="1372" cy="1036" r="5"/><circle cx="1468" cy="1009" r="5"/><circle cx="1600" cy="960" r="4"/><circle cx="1666" cy="1028" r="5"/><circle cx="1724" cy="1034" r="6"/><circle cx="1786" cy="977" r="4"/><circle cx="1893" cy="1003" r="5"/><circle cx="1925" cy="1026" r="5"/><circle cx="2030" cy="1000" r="5"/><circle cx="2099" cy="999" r="4"/><circle cx="2216" cy="1034" r="5"/><circle cx="2285" cy="963" r="6"/><circle cx="2360" cy="994" r="5"/><circle cx="2413" cy="965" r="6"/><circle cx="2528" cy="1005" r="4"/><circle cx="38" cy="1074" r="4"/><circle cx="110" cy="1115" r="5"/><circle cx="164" cy="1090" r="5"/><circle cx="309" cy="1102" r="5"/><circle cx="331" cy="1103" r="6"/><circle cx="428" cy="1069" r="4"/><circle cx="553" cy="1066" r="6"/><circle cx="592" cy="1061" r="5"/><circle cx="653" cy="1104" r="6"/><circle cx="769" cy="1112" r="6"/><circle cx="811" cy="1068" r="6"/><circle cx="908" cy="1042" r="5"/><circle cx="1024" cy="1049" r="4"/><circle cx="1082" cy="1119" r="6"/><circle cx="1190" cy="1111" r="4"/><circle cx="1219" cy="1052" r="6"/><circle cx="1325" cy="1085" r="4"/><circle cx="1377" cy="1094" r="5"/><circle cx="1455" cy="1050" r="5"/><circle cx="1577" cy="1104" r="6"/><circle cx="1631" cy="1093" r="5"/><circle cx="1756" cy="1058" r="6"/><circle cx="1780" cy="1069" r="5"/><circle cx="1885" cy="1045" r="4"/><circle cx="1929" cy="1109" r="4"/><circle cx="2073" cy="1093" r="6"/><circle cx="2148" cy="1110" r="4"/><circle cx="2166" cy="1088" r="6"/><circle cx="2254" cy="1062" r="5"/><circle cx="2351" cy="1116" r="6"/><circle cx="2450" cy="1043" r="5"/><circle cx="2537" cy="1102" r="5"/><circle cx="77" cy="1132" r="5"/><circle cx="84" cy="1177" r="4"/><circle cx="210" cy="1187" r="6"/><circle cx="279" cy="1162" r="5"/><circle cx="348" cy="1146" r="4"/><circle cx="422" cy="1133" r="4"/><circle cx="525" cy="1136" r="6"/><circle cx="597" cy="1127" r="5"/><circle cx="704" cy="1144" r="5"/><circle cx="792" cy="1187" r="4"/><circle cx="820" cy="1142" r="6"/><circle cx="925" cy="1166" r="4"/><circle cx="969" cy="1137" r="5"/><circle cx="1055" cy="1150" r="5"/><circle cx="1199" cy="1144" r="6"/><circle cx="1244" cy="1147" r="5"/><circle cx="1289" cy="1193" r="5"/><circle cx="1404" cy="1125" r="5"/><circle cx="1462" cy="1152" r="5"/><circle cx="1587" cy="1153" r="4"/><circle cx="1667" cy="1183" r="5"/><circle cx="1731" cy="1196" r="6"/><circle cx="1767" cy="1135" r="5"/><circle cx="1850" cy="1169" r="5"/><circle cx="1941" cy="1146" r="5"/><circle cx="2052" cy="1172" r="4"/><circle cx="2103" cy="1146" r="5"/><circle cx="2163" cy="1155" r="6"/><circle cx="2310" cy="1141" r="5"/><circle cx="2334" cy="1151" r="5"/><circle cx="2404" cy="1135" r="5"/><circle cx="2513" cy="1150" r="5"/><circle cx="75" cy="1244" r="5"/><circle cx="106" cy="1245" r="6"/><circle cx="174" cy="1256" r="5"/><circle cx="283" cy="1269" r="5"/><circle cx="394" cy="1234" r="6"/><circle cx="429" cy="1260" r="5"/><circle cx="489" cy="1249" r="4"/><circle cx="633" cy="1221" r="4"/><circle cx="679" cy="1223" r="4"/><circle cx="745" cy="1234" r="6"/><circle cx="824" cy="1205" r="4"/><circle cx="935" cy="1273" r="4"/><circle cx="989" cy="1224" r="4"/><circle cx="1118" cy="1266" r="5"/><circle cx="1178" cy="1215" r="5"/><circle cx="1218" cy="1248" r="5"/><circle cx="1317" cy="1214" r="5"/><circle cx="1376" cy="1220" r="4"/><circle cx="1477" cy="1237" r="5"/><circle cx="1557" cy="1224" r="5"/><circle cx="1633" cy="1237" r="6"/><circle cx="1703" cy="1272" r="5"/><circle cx="1840" cy="1241" r="5"/><circle cx="1882" cy="1252" r="6"/><circle cx="1922" cy="1221" r="5"/><circle cx="2035" cy="1248" r="4"/><circle cx="2114" cy="1215" r="6"/><circle cx="2216" cy="1268" r="4"/><circle cx="2243" cy="1276" r="5"/><circle cx="2377" cy="1242" r="4"/><circle cx="2437" cy="1205" r="5"/><circle cx="2511" cy="1259" r="5"/><circle cx="61" cy="1342" r="5"/><circle cx="117" cy="1329" r="5"/><circle cx="194" cy="1319" r="4"/><circle cx="272" cy="1315" r="5"/><circle cx="359" cy="1351" r="5"/><circle cx="439" cy="1313" r="4"/><circle cx="554" cy="1331" r="6"/><circle cx="614" cy="1359" r="5"/><circle cx="718" cy="1334" r="4"/><circle cx="758" cy="1326" r="5"/><circle cx="821" cy="1353" r="6"/><circle cx="956" cy="1341" r="6"/><circle cx="1030" cy="1291" r="4"/><circle cx="1071" cy="1357" r="5"/><circle cx="1147" cy="1338" r="4"/><circle cx="1217" cy="1322" r="6"/><circle cx="1309" cy="1288" r="4"/><circle cx="1425" cy="1331" r="5"/><circle cx="1474" cy="1296" r="5"/><circle cx="1596" cy="1305" r="5"/><circle cx="1621" cy="1339" r="6"/><circle cx="1721" cy="1338" r="4"/><circle cx="1834" cy="1335" r="5"/><circle cx="1920" cy="1292" r="4"/><circle cx="1952" cy="1348" r="5"/><circle cx="2069" cy="1311" r="6"/><circle cx="2158" cy="1345" r="4"/><circle cx="2228" cy="1316" r="5"/><circle cx="2249" cy="1307" r="6"/><circle cx="2338" cy="1294" r="4"/><circle cx="2429" cy="1299" r="6"/><circle cx="2505" cy="1347" r="4"/><circle cx="13" cy="1407" r="5"/><circle cx="86" cy="1396" r="6"/><circle cx="230" cy="1397" r="5"/><circle cx="252" cy="1389" r="5"/><circle cx="386" cy="1429" r="6"/><circle cx="478" cy="1434" r="6"/><circle cx="480" cy="1379" r="5"/><circle cx="612" cy="1431" r="5"/><circle cx="693" cy="1380" r="5"/><circle cx="779" cy="1387" r="4"/><circle cx="849" cy="1439" r="4"/><circle cx="849" cy="-1" r="4"/><circle cx="944" cy="1429" r="5"/><circle cx="965" cy="1374" r="5"/><circle cx="1078" cy="1399" r="4"/><circle cx="1150" cy="1361" r="5"/><circle cx="1216" cy="1392" r="6"/><circle cx="1300" cy="1416" r="6"/><circle cx="1417" cy="1393" r="6"/><circle cx="1464" cy="1433" r="6"/><circle cx="1544" cy="1419" r="5"/><circle cx="1641" cy="1424" r="4"/><circle cx="1733" cy="1386" r="5"/><circle cx="1810" cy="1422" r="5"/><circle cx="1905" cy="1396" r="5"/><circle cx="1961" cy="1361" r="4"/><circle cx="2010" cy="1380" r="4"/><circle cx="2093" cy="1382" r="4"/><circle cx="2160" cy="1408" r="5"/><circle cx="2275" cy="1377" r="6"/><circle cx="2321" cy="1369" r="5"/><circle cx="2421" cy="1368" r="5"/><circle cx="2551" cy="1371" r="5"/><path stroke="#fff" d="M43 35L139 1M43 35L-37 52M43 35L34 115M43 35L13 -33M2603 35L2523 52M43 1475L13 1407M139 1L202 26M139 1L106 96M139 1L86 -44M139 1L230 -43M139 1441L86 1396M139 1441L230 1397M202 26L230 -43M202 26L252 -51M202 1466L230 1397M202 1466L252 1389M310 50L327 58M310 50L341 94M327 58L421 36M327 58L271 125M327 58L341 94M327 58L386 -11M327 1498L386 1429M421 36L341 94M421 36L442 135M421 36L386 -11M421 36L478 -6M421 1476L386 1429M421 1476L478 1434M519 73L596 36M519 73L442 135M519 73L558 87M519 73L585 116M519 73L478 -6M519 1513L478 1434M596 36L558 87M596 36L585 116M596 36L653 110M596 36L612 -9M596 1476L612 1431M704 50L793 23M704 50L653 110M704 50L735 141M793 23L855 67M793 23L821 -87M793 23L779 -53M793 23L849 -1M793 1463L821 1353M793 1463L779 1387M793 1463L849 1439M855 67L940 66M855 67L850 132M855 67L944 100M855 67L849 -1M855 1507L849 1439M940 66L994 60M940 66L944 100M940 66L963 152M940 66L944 -11M940 1506L944 1429M994 60L1071 61M994 60L944 100M994 60L963 152M994 60L944 -11M994 1500L944 1429M1071 61L1166 6M1071 61L1071 156M1071 61L1078 -41M1071 1501L1078 1399M1166 6L1078 -41M1166 6L1150 -79M1166 6L1216 -48M1166 1446L1078 1399M1166 1446L1150 1361M1166 1446L1216 1392M1275 33L1346 53M1275 33L1213 111M1275 33L1335 113M1275 33L1216 -48M1275 33L1300 -24M1275 1473L1216 1392M1275 1473L1300 1416M1346 53L1409 58M1346 53L1335 113M1346 53L1366 153M1346 53L1300 -24M1346 1493L1300 1416M1409 58L1504 48M1409 58L1335 113M1409 58L1417 -47M1409 58L1464 -7M1409 1498L1417 1393M1409 1498L1464 1433M1504 48L1592 65M1504 48L1482 142M1504 48L1464 -7M1504 48L1544 -21M1504 1488L1464 1433M1504 1488L1544 1419M1592 65L1650 56M1592 65L1540 148M1592 65L1634 134M1592 65L1544 -21M1592 1505L1544 1419M1650 56L1687 41M1650 56L1634 134M1650 56L1686 102M1650 56L1641 -16M1650 1496L1641 1424M1687 41L1686 102M1687 41L1641 -16M1687 41L1733 -54M1687 1481L1641 1424M1687 1481L1733 1386M1772 70L1686 102M1772 70L1784 100M1772 70L1870 108M1772 70L1778 164M1772 70L1810 -18M1772 1510L1810 1422M1914 4L1980 13M1914 4L1810 -18M1914 4L1905 -44M1914 4L1961 -79M1914 1444L1810 1422M1914 1444L1905 1396M1914 1444L1961 1361M1980 13L2008 69M1980 13L1997 97M1980 13L2010 -60M1980 1453L2010 1380M2008 69L2099 61M2008 69L1997 97M2008 69L2066 117M2099 61L2161 53M2099 61L2066 117M2099 61L2123 95M2161 53L2242 72M2161 53L2123 95M2161 53L2208 84M2161 53L2160 -32M2161 1493L2160 1408M2242 72L2349 64M2242 72L2208 84M2242 72L2313 94M2349 64L2470 45M2349 64L2313 94M2349 64L2324 149M2470 45L2523 52M2470 45L2445 141M2470 45L2421 -72M2470 1485L2421 1368M2523 52L2594 115M2523 52L2559 154M2523 52L2573 -33M-37 52L34 115M-37 52L13 -33M-37 1492L13 1407M2523 1492L2573 1407M34 115L106 96M34 115L-1 154M34 115L21 198M2594 115L2559 154M106 96L114 172M223 143L271 125M223 143L114 172M223 143L179 211M223 143L277 189M223 143L209 248M271 125L341 94M271 125L277 189M271 125L337 195M341 94L337 195M442 135L454 177M558 87L585 116M558 87L612 -9M558 1527L612 1431M585 116L653 110M585 116L622 200M653 110L735 141M653 110L622 200M735 141L686 202M735 141L784 218M735 141L831 180M850 132L944 100M850 132L784 218M850 132L831 180M944 100L963 152M963 152L953 198M1071 156L1020 223M1071 156L1067 233M1071 156L1157 172M1071 156L1113 246M1198 145L1213 111M1198 145L1157 172M1198 145L1252 179M1213 111L1157 172M1213 111L1252 179M1335 113L1366 153M1335 113L1317 203M1366 153L1317 203M1366 153L1396 188M1366 153L1374 245M1482 142L1540 148M1482 142L1396 188M1482 142L1486 222M1482 142L1519 240M1540 148L1634 134M1540 148L1486 222M1540 148L1560 228M1634 134L1686 102M1634 134L1653 200M1686 102L1725 183M1784 100L1870 108M1784 100L1725 183M1784 100L1778 164M1870 108L1778 164M1870 108L1902 170M1870 108L1925 176M1997 97L2066 117M1997 97L1925 176M1997 97L2016 187M2066 117L2123 95M2066 117L2016 187M2123 95L2208 84M2123 95L2139 181M2208 84L2313 94M2208 84L2196 195M2313 94L2324 149M2313 94L2330 164M2324 149L2308 233M2324 149L2330 164M2445 141L2419 208M2559 154L2581 198M2559 154L2542 236M-1 154L21 198M21 198L-18 236M21 198L48 243M21 198L-30 268M2581 198L2542 236M2581 198L2530 268M114 172L179 211M114 172L48 243M114 172L102 242M179 211L102 242M179 211L209 248M277 189L337 195M277 189L209 248M277 189L259 278M337 195L365 279M337 195L408 270M454 177L520 237M454 177L408 270M520 237L622 200M520 237L487 299M520 237L562 262M520 237L550 329M622 200L686 202M622 200L562 262M686 202L784 218M686 202L671 322M784 218L831 180M784 218L773 295M953 198L1020 223M953 198L950 267M953 198L962 283M1020 223L1067 233M1020 223L950 267M1020 223L962 283M1067 233L1113 246M1067 233L1128 259M1157 172L1113 246M1157 172L1128 259M1252 179L1317 203M1252 179L1262 266M1317 203L1262 266M1317 203L1374 245M1396 188L1374 245M1486 222L1560 228M1486 222L1519 240M1486 222L1568 257M1560 228L1653 200M1560 228L1519 240M1560 228L1568 257M1653 200L1725 183M1653 200L1568 257M1653 200L1693 260M1725 183L1778 164M1725 183L1693 260M1778 164L1902 170M1902 170L1925 176M1902 170L1859 266M1925 176L2016 187M1925 176L1859 266M2016 187L1995 287M2016 187L2055 280M2139 181L2196 195M2139 181L2132 260M2139 181L2174 272M2196 195L2132 260M2196 195L2174 272M2308 233L2330 164M2308 233L2318 245M2308 233L2384 253M2330 164L2419 208M2330 164L2318 245M2419 208L2318 245M2419 208L2384 253M2419 208L2407 313M2542 236L2608 243M2542 236L2530 268M2542 236L2514 330M-18 236L48 243M48 243L102 242M48 243L-30 268M2608 243L2530 268M209 248L259 278M209 248L161 347M259 278L365 279M259 278L161 347M259 278L302 331M365 279L408 270M365 279L302 331M365 279L371 330M408 270L487 299M408 270L371 330M487 299L562 262M487 299L477 359M487 299L550 329M562 262L550 329M562 262L616 364M716 319L773 295M716 319L671 322M716 319L787 334M773 295L863 315M773 295L787 334M773 295L819 380M863 315L950 267M863 315L787 334M863 315L819 380M863 315L901 371M950 267L962 283M962 283L901 371M962 283L1002 364M1113 246L1128 259M1128 259L1189 334M1262 266L1306 298M1262 266L1189 334M1262 266L1302 329M1306 298L1374 245M1306 298L1302 329M1306 298L1409 321M1374 245L1409 321M1519 240L1568 257M1568 257L1641 309M1641 309L1693 260M1641 309L1542 360M1641 309L1657 325M1693 260L1824 279M1693 260L1657 325M1824 279L1859 266M1824 279L1824 348M1859 266L1824 348M1995 287L2055 280M1995 287L1930 360M1995 287L2005 380M2055 280L2132 260M2055 280L2086 368M2132 260L2174 272M2174 272L2212 352M2318 245L2384 253M2318 245L2334 338M2384 253L2407 313M2384 253L2334 338M2407 313L2334 338M2407 313L2401 390M2407 313L2514 330M2530 268L2514 330M48 353L101 377M48 353L161 347M48 353L-46 330M48 353L21 430M48 353L-7 433M2608 353L2514 330M2608 353L2553 433M101 377L161 347M101 377L21 430M101 377L126 458M101 377L161 453M161 347L161 453M302 331L371 330M302 331L280 417M371 330L477 359M371 330L371 439M477 359L550 329M477 359L427 434M477 359L511 430M550 329L616 364M616 364L671 322M616 364L629 446M616 364L692 414M671 322L692 414M787 334L819 380M819 380L901 371M819 380L850 456M901 371L850 456M901 371L893 461M1002 364L1072 372M1002 364L1036 422M1002 364L1052 415M1072 372L1036 422M1072 372L1052 415M1072 372L1158 431M1189 334L1200 389M1189 334L1158 431M1189 334L1262 413M1200 389L1302 329M1200 389L1158 431M1200 389L1262 413M1200 389L1257 484M1302 329L1409 321M1302 329L1262 413M1409 321L1473 348M1473 348L1542 360M1473 348L1509 421M1542 360L1509 421M1657 325L1760 392M1657 325L1635 439M1760 392L1824 348M1760 392L1811 412M1824 348L1877 382M1824 348L1811 412M1877 382L1930 360M1877 382L1811 412M1877 382L1884 446M1877 382L1923 419M1930 360L2005 380M1930 360L1923 419M2005 380L2086 368M2005 380L2108 411M2086 368L2108 411M2212 352L2251 397M2212 352L2279 420M2251 397L2240 443M2251 397L2279 420M2251 397L2339 431M2334 338L2401 390M2334 338L2339 431M2401 390L2339 431M2401 390L2467 465M2514 330L2553 433M21 430L126 458M21 430L-93 465M21 430L-7 433M2581 430L2467 465M2581 430L2553 433M126 458L161 453M126 458L135 536M161 453L135 536M161 453L227 504M280 417L371 439M280 417L227 504M280 417L251 520M371 439L427 434M371 439L333 540M427 434L511 430M427 434L457 530M511 430L457 530M629 446L692 414M629 446L724 428M629 446L590 533M629 446L708 516M692 414L724 428M692 414L756 486M724 428L708 516M724 428L756 486M850 456L893 461M850 456L756 486M850 456L870 489M893 461L870 489M893 461L940 537M1036 422L1052 415M1052 415L1158 431M1262 413L1333 461M1262 413L1257 484M1333 461L1402 461M1333 461L1257 484M1333 461L1293 536M1333 461L1414 534M1402 461L1414 534M1509 421L1592 455M1509 421L1550 485M1592 455L1635 439M1592 455L1685 478M1592 455L1550 485M1592 455L1650 489M1635 439L1685 478M1635 439L1550 485M1635 439L1650 489M1685 478L1650 489M1685 478L1760 509M1811 412L1884 446M1811 412L1879 486M1884 446L1923 419M1884 446L1879 486M1884 446L1933 484M1923 419L1879 486M1923 419L1933 484M2026 478L2034 500M2026 478L2108 507M2108 411L2034 500M2108 411L2108 507M2108 411L2175 485M2240 443L2279 420M2240 443L2175 485M2240 443L2298 514M2279 420L2339 431M2279 420L2298 514M2339 431L2298 514M2467 465L2553 433M2467 465L2470 541M2467 465L2532 552M58 556L135 536M58 556L-28 552M58 556L79 616M58 556L87 585M2618 556L2532 552M135 536L87 585M135 536L196 574M227 504L251 520M227 504L196 574M227 504L311 568M251 520L333 540M251 520L196 574M251 520L311 568M333 540L311 568M457 530L535 556M457 530L464 612M535 556L590 533M535 556L531 596M535 556L576 578M590 533L531 596M590 533L576 578M590 533L658 577M708 516L756 486M708 516L658 577M708 516L730 585M756 486L730 585M870 489L940 537M870 489L961 541M870 489L880 570M940 537L961 541M940 537L880 570M940 537L1021 576M961 541L1052 547M961 541L880 570M961 541L1021 576M1052 547L1140 543M1052 547L1021 576M1052 547L1085 610M1052 547L1158 574M1140 543L1085 610M1140 543L1158 574M1140 543L1223 591M1257 484L1293 536M1293 536L1223 591M1293 536L1326 614M1414 534L1475 538M1414 534L1432 566M1414 534L1477 583M1475 538L1550 485M1475 538L1432 566M1475 538L1477 583M1550 485L1650 489M1650 489L1760 509M1760 509L1786 558M1760 509L1753 577M1760 509L1769 581M1786 558L1879 486M1786 558L1753 577M1786 558L1769 581M1879 486L1933 484M1933 484L2034 500M1933 484L1938 581M2034 500L2108 507M2034 500L2069 589M2108 507L2175 485M2108 507L2069 589M2175 485L2168 594M2298 514L2335 521M2298 514L2308 633M2335 521L2308 633M2335 521L2350 621M2335 521L2421 583M2470 541L2532 552M2470 541L2421 583M2470 541L2490 587M2532 552L2647 585M2532 552L2490 587M-28 552L87 585M79 616L87 585M79 616L133 700M87 585L196 574M311 568L287 658M382 639L464 612M382 639L287 658M382 639L360 687M382 639L423 647M382 639L366 731M464 612L531 596M464 612L423 647M464 612L516 680M531 596L576 578M531 596L516 680M576 578L658 577M576 578L603 677M658 577L730 585M658 577L706 643M730 585L706 643M730 585L767 680M838 589L880 570M838 589L870 662M880 570L870 662M1021 576L1085 610M1021 576L961 674M1085 610L1158 574M1085 610L1093 684M1158 574L1223 591M1158 574L1228 640M1223 591L1175 682M1223 591L1228 640M1326 614L1228 640M1326 614L1357 662M1326 614L1417 657M1432 566L1477 583M1432 566L1417 657M1432 566L1445 663M1477 583L1417 657M1477 583L1445 663M1581 635L1654 616M1581 635L1526 713M1581 635L1605 660M1581 635L1555 730M1654 616L1753 577M1654 616L1605 660M1654 616L1700 707M1753 577L1769 581M1891 636L1938 581M1891 636L1821 688M1891 636L1905 660M1891 636L1930 697M1891 636L1948 723M1938 581L1905 660M2069 589L2116 624M2069 589L2063 644M2069 589L2100 685M2116 624L2168 594M2116 624L2063 644M2116 624L2100 685M2116 624L2163 668M2168 594L2163 668M2308 633L2350 621M2308 633L2307 710M2308 633L2343 675M2350 621L2421 583M2350 621L2343 675M2421 583L2490 587M26 715L-98 711M26 715L-40 709M26 715L3 745M26 715L85 791M26 715L-36 777M2586 715L2462 711M2586 715L2520 709M2586 715L2524 777M133 700L216 715M216 715L287 658M216 715L231 764M216 715L243 757M287 658L360 687M287 658L243 757M360 687L423 647M360 687L366 731M360 687L467 726M423 647L467 726M516 680L603 677M516 680L467 726M516 680L568 732M603 677L706 643M603 677L555 799M603 677L568 732M706 643L767 680M706 643L710 753M767 680L710 753M767 680L781 759M767 680L822 778M870 662L910 693M870 662L961 674M870 662L889 734M910 693L961 674M910 693L889 734M910 693L1020 724M961 674L889 734M961 674L1020 724M1093 684L1175 682M1093 684L1020 724M1093 684L1097 749M1093 684L1179 743M1175 682L1228 640M1175 682L1179 743M1175 682L1231 757M1357 662L1417 657M1357 662L1445 663M1417 657L1445 663M1445 663L1526 713M1526 713L1605 660M1526 713L1473 795M1526 713L1555 730M1605 660L1700 707M1605 660L1555 730M1700 707L1675 761M1700 707L1752 797M1821 688L1905 660M1821 688L1930 697M1821 688L1816 795M1821 688L1877 762M1905 660L1930 697M1905 660L1948 723M1930 697L1877 762M1930 697L1948 723M2063 644L2100 685M2063 644L2163 668M2100 685L2163 668M2100 685L2131 775M2307 710L2343 675M2307 710L2279 774M2307 710L2338 761M2307 710L2329 801M2343 675L2338 761M2462 711L2520 709M2462 711L2563 745M2462 711L2459 755M2462 711L2524 777M-98 711L3 745M2520 709L2563 745M2520 709L2459 755M2520 709L2524 777M-40 709L3 745M3 745L85 791M3 745L-36 777M2563 745L2524 777M85 791L47 833M85 791L132 820M231 764L243 757M231 764L132 820M231 764L316 818M243 757L316 818M366 731L467 726M366 731L360 844M467 726L568 732M555 799L568 732M555 799L549 839M555 799L615 843M568 732L549 839M710 753L781 759M710 753L713 804M781 759L822 778M781 759L713 804M781 759L750 853M822 778L889 734M822 778L750 853M822 778L876 811M889 734L876 811M1020 724L1097 749M1097 749L1179 743M1097 749L1064 854M1179 743L1231 757M1231 757L1342 794M1342 794L1412 789M1342 794L1340 867M1342 794L1360 868M1412 789L1473 795M1412 789L1340 867M1412 789L1360 868M1412 789L1504 826M1473 795L1555 730M1473 795L1504 826M1473 795L1502 896M1555 730L1585 818M1675 761L1752 797M1675 761L1585 818M1675 761L1611 819M1675 761L1698 850M1752 797L1816 795M1752 797L1698 850M1752 797L1767 835M1816 795L1877 762M1816 795L1767 835M1816 795L1872 848M1877 762L1948 723M1877 762L1920 823M1948 723L1920 823M2046 785L2131 775M2046 785L2046 841M2046 785L2115 823M2131 775L2225 772M2131 775L2115 823M2131 775L2168 856M2225 772L2279 774M2225 772L2247 862M2225 772L2329 801M2279 774L2338 761M2279 774L2247 862M2279 774L2329 801M2338 761L2329 801M2459 755L2524 777M47 833L132 820M47 833L-6 868M47 833L116 894M2607 833L2554 868M132 820L207 867M132 820L116 894M207 867L116 894M207 867L229 897M207 867L246 897M207 867L201 965M316 818L360 844M316 818L409 837M316 818L246 897M360 844L409 837M360 844L365 937M409 837L365 937M549 839L615 843M615 843L713 804M615 843L596 947M615 843L684 943M713 804L750 853M750 853L758 950M750 853L808 892M876 811L951 870M876 811L808 892M876 811L905 885M951 870L992 868M951 870L905 885M951 870L1007 957M992 868L1064 854M992 868L905 885M992 868L1007 957M992 868L1042 934M1064 854L1156 869M1064 854L1042 934M1064 854L1120 906M1156 869L1227 879M1156 869L1120 906M1156 869L1237 887M1156 869L1204 969M1227 879L1237 887M1227 879L1204 969M1340 867L1360 868M1340 867L1237 887M1340 867L1348 916M1360 868L1348 916M1360 868L1427 927M1504 826L1585 818M1504 826L1611 819M1504 826L1502 896M1585 818L1611 819M1611 819L1698 850M1698 850L1767 835M1698 850L1717 944M1767 835L1809 911M1872 848L1920 823M1872 848L1809 911M1872 848L1864 888M1920 823L1864 888M1920 823L2006 891M2046 841L2115 823M2046 841L2006 891M2046 841L2094 918M2115 823L2168 856M2168 856L2247 862M2168 856L2094 918M2168 856L2189 949M2247 862L2329 801M2247 862L2259 900M2427 869L2554 868M2427 869L2378 888M2427 869L2426 938M2427 869L2489 947M2554 868L2592 960M2554 868L2489 947M-6 868L32 960M32 960L11 1040M32 960L99 1000M32 960L-32 1005M2592 960L2528 1005M116 894L99 1000M116 894L201 965M229 897L246 897M229 897L201 965M246 897L201 965M365 937L416 946M365 937L394 1006M365 937L416 987M416 946L510 954M416 946L394 1006M416 946L416 987M416 946L488 993M510 954L596 947M510 954L488 993M596 947L684 943M596 947L599 1024M596 947L666 975M684 943L758 950M684 943L666 975M684 943L727 1014M758 950L808 892M758 950L666 975M758 950L727 1014M808 892L905 885M1007 957L1042 934M1007 957L1004 972M1007 957L1024 1049M1042 934L1120 906M1042 934L1004 972M1120 906L1102 987M1237 887L1348 916M1237 887L1204 969M1348 916L1427 927M1348 916L1349 972M1427 927L1502 896M1427 927L1349 972M1427 927L1468 1009M1502 896L1596 949M1502 896L1468 1009M1596 949L1613 954M1596 949L1600 960M1613 954L1600 960M1613 954L1666 1028M1717 944L1809 911M1717 944L1666 1028M1717 944L1724 1034M1717 944L1786 977M1809 911L1864 888M1809 911L1786 977M1864 888L1893 1003M1987 940L2006 891M1987 940L1893 1003M1987 940L1925 1026M1987 940L2030 1000M2006 891L2094 918M2006 891L2030 1000M2094 918L2189 949M2094 918L2099 999M2189 949L2259 900M2189 949L2216 1034M2189 949L2285 963M2259 900L2285 963M2378 888L2426 938M2378 888L2413 965M2426 938L2489 947M2426 938L2360 994M2426 938L2413 965M2489 947L2413 965M2489 947L2528 1005M11 1040L99 1000M11 1040L-32 1005M11 1040L38 1074M11 1040L-23 1102M2571 1040L2528 1005M2571 1040L2537 1102M99 1000L38 1074M201 965L257 1029M257 1029L164 1090M257 1029L309 1102M257 1029L331 1103M394 1006L416 987M394 1006L488 993M394 1006L428 1069M416 987L488 993M416 987L428 1069M488 993L553 1066M599 1024L666 975M599 1024L553 1066M599 1024L592 1061M599 1024L653 1104M666 975L727 1014M727 1014L769 1112M727 1014L811 1068M851 1033L916 1018M851 1033L811 1068M851 1033L908 1042M851 1033L820 1142M916 1018L1004 972M916 1018L908 1042M1004 972L1102 987M1004 972L1024 1049M1102 987L1141 1033M1141 1033L1204 969M1141 1033L1082 1119M1141 1033L1190 1111M1141 1033L1219 1052M1204 969L1219 1052M1349 972L1372 1036M1372 1036L1325 1085M1372 1036L1377 1094M1372 1036L1455 1050M1372 1036L1404 1125M1468 1009L1455 1050M1666 1028L1724 1034M1666 1028L1631 1093M1666 1028L1756 1058M1724 1034L1786 977M1724 1034L1756 1058M1724 1034L1780 1069M1786 977L1756 1058M1786 977L1780 1069M1893 1003L1925 1026M1893 1003L1885 1045M1893 1003L1929 1109M1925 1026L2030 1000M1925 1026L1885 1045M1925 1026L1929 1109M2030 1000L2099 999M2030 1000L2073 1093M2216 1034L2285 963M2216 1034L2166 1088M2216 1034L2254 1062M2285 963L2360 994M2285 963L2254 1062M2360 994L2413 965M2360 994L2351 1116M2360 994L2450 1043M2413 965L2450 1043M2528 1005L2450 1043M2528 1005L2537 1102M38 1074L110 1115M38 1074L-23 1102M38 1074L77 1132M2598 1074L2537 1102M110 1115L164 1090M110 1115L77 1132M110 1115L84 1177M164 1090L77 1132M164 1090L210 1187M309 1102L331 1103M309 1102L279 1162M309 1102L348 1146M331 1103L279 1162M331 1103L348 1146M331 1103L422 1133M428 1069L422 1133M428 1069L525 1136M553 1066L592 1061M553 1066L525 1136M553 1066L597 1127M592 1061L653 1104M592 1061L525 1136M592 1061L597 1127M653 1104L597 1127M653 1104L704 1144M769 1112L811 1068M769 1112L704 1144M769 1112L792 1187M769 1112L820 1142M811 1068L908 1042M811 1068L820 1142M1024 1049L1082 1119M1024 1049L969 1137M1024 1049L1055 1150M1082 1119L969 1137M1082 1119L1055 1150M1190 1111L1219 1052M1190 1111L1199 1144M1190 1111L1244 1147M1219 1052L1199 1144M1219 1052L1244 1147M1325 1085L1377 1094M1325 1085L1404 1125M1377 1094L1455 1050M1377 1094L1404 1125M1377 1094L1462 1152M1455 1050L1404 1125M1455 1050L1462 1152M1577 1104L1631 1093M1577 1104L1462 1152M1577 1104L1587 1153M1577 1104L1557 1224M1631 1093L1587 1153M1631 1093L1667 1183M1756 1058L1780 1069M1756 1058L1767 1135M1780 1069L1885 1045M1780 1069L1767 1135M1885 1045L1929 1109M1929 1109L1941 1146M2073 1093L2148 1110M2073 1093L2166 1088M2073 1093L2052 1172M2073 1093L2103 1146M2148 1110L2166 1088M2148 1110L2103 1146M2148 1110L2163 1155M2166 1088L2163 1155M2254 1062L2351 1116M2254 1062L2310 1141M2351 1116L2310 1141M2351 1116L2334 1151M2351 1116L2404 1135M2450 1043L2404 1135M2537 1102L2637 1132M2537 1102L2513 1150M-23 1102L77 1132M77 1132L84 1177M84 1177L75 1244M84 1177L106 1245M210 1187L279 1162M210 1187L174 1256M210 1187L283 1269M279 1162L348 1146M279 1162L283 1269M348 1146L422 1133M348 1146L394 1234M422 1133L525 1136M525 1136L597 1127M704 1144L792 1187M704 1144L679 1223M704 1144L745 1234M792 1187L820 1142M792 1187L745 1234M792 1187L824 1205M820 1142L824 1205M925 1166L969 1137M925 1166L824 1205M925 1166L935 1273M925 1166L989 1224M969 1137L1055 1150M969 1137L989 1224M1055 1150L989 1224M1199 1144L1244 1147M1199 1144L1289 1193M1199 1144L1178 1215M1244 1147L1289 1193M1244 1147L1178 1215M1289 1193L1218 1248M1289 1193L1317 1214M1289 1193L1376 1220M1404 1125L1462 1152M1462 1152L1477 1237M1587 1153L1667 1183M1587 1153L1557 1224M1667 1183L1731 1196M1667 1183L1633 1237M1667 1183L1703 1272M1731 1196L1767 1135M1731 1196L1703 1272M1767 1135L1850 1169M1850 1169L1941 1146M1850 1169L1840 1241M1850 1169L1882 1252M1850 1169L1922 1221M1941 1146L1922 1221M2052 1172L2103 1146M2052 1172L2163 1155M2052 1172L2035 1248M2052 1172L2114 1215M2103 1146L2163 1155M2103 1146L2114 1215M2163 1155L2114 1215M2310 1141L2334 1151M2310 1141L2404 1135M2310 1141L2377 1242M2334 1151L2404 1135M2334 1151L2377 1242M2404 1135L2437 1205M2513 1150L2437 1205M2513 1150L2511 1259M75 1244L106 1245M75 1244L174 1256M106 1245L174 1256M106 1245L61 1342M106 1245L117 1329M174 1256L117 1329M174 1256L194 1319M283 1269L394 1234M283 1269L272 1315M283 1269L359 1351M394 1234L429 1260M394 1234L489 1249M394 1234L439 1313M429 1260L489 1249M429 1260L439 1313M489 1249L439 1313M489 1249L554 1331M633 1221L679 1223M679 1223L745 1234M745 1234L824 1205M745 1234L758 1326M935 1273L989 1224M935 1273L956 1341M935 1273L1030 1291M935 1273L965 1374M989 1224L1030 1291M1118 1266L1178 1215M1118 1266L1218 1248M1118 1266L1030 1291M1118 1266L1071 1357M1118 1266L1147 1338M1178 1215L1218 1248M1218 1248L1217 1322M1218 1248L1309 1288M1317 1214L1376 1220M1317 1214L1309 1288M1376 1220L1477 1237M1376 1220L1309 1288M1376 1220L1425 1331M1477 1237L1557 1224M1477 1237L1425 1331M1477 1237L1474 1296M1557 1224L1633 1237M1557 1224L1596 1305M1633 1237L1703 1272M1633 1237L1596 1305M1633 1237L1621 1339M1703 1272L1621 1339M1703 1272L1721 1338M1840 1241L1882 1252M1840 1241L1922 1221M1840 1241L1834 1335M1840 1241L1920 1292M1882 1252L1922 1221M1882 1252L1834 1335M1882 1252L1920 1292M1922 1221L1920 1292M2035 1248L2114 1215M2035 1248L2069 1311M2114 1215L2069 1311M2216 1268L2243 1276M2216 1268L2228 1316M2216 1268L2249 1307M2243 1276L2228 1316M2243 1276L2249 1307M2243 1276L2338 1294M2243 1276L2275 1377M2377 1242L2437 1205M2377 1242L2338 1294M2377 1242L2429 1299M2437 1205L2511 1259M2437 1205L2429 1299M2511 1259L2429 1299M2511 1259L2505 1347M2511 1259L2551 1371M61 1342L117 1329M61 1342L13 1407M61 1342L86 1396M61 1342L-9 1371M2621 1342L2551 1371M117 1329L194 1319M117 1329L86 1396M194 1319L272 1315M194 1319L230 1397M194 1319L252 1389M272 1315L359 1351M272 1315L230 1397M272 1315L252 1389M359 1351L439 1313M359 1351L252 1389M359 1351L386 1429M439 1313L480 1379M554 1331L614 1359M554 1331L478 1434M554 1331L480 1379M554 1331L612 1431M614 1359L718 1334M614 1359L480 1379M614 1359L612 1431M614 1359L693 1380M718 1334L758 1326M718 1334L821 1353M718 1334L693 1380M718 1334L779 1387M758 1326L821 1353M758 1326L693 1380M758 1326L779 1387M821 1353L779 1387M821 1353L849 1439M956 1341L1030 1291M956 1341L944 1429M956 1341L965 1374M1030 1291L1071 1357M1071 1357L1147 1338M1071 1357L1078 1399M1071 1357L1150 1361M1147 1338L1217 1322M1147 1338L1150 1361M1217 1322L1309 1288M1217 1322L1150 1361M1217 1322L1216 1392M1309 1288L1300 1416M1425 1331L1474 1296M1425 1331L1417 1393M1425 1331L1464 1433M1474 1296L1596 1305M1474 1296L1417 1393M1596 1305L1621 1339M1596 1305L1544 1419M1621 1339L1721 1338M1621 1339L1641 1424M1721 1338L1733 1386M1834 1335L1810 1422M1834 1335L1905 1396M1920 1292L1952 1348M1920 1292L1961 1361M1952 1348L1905 1396M1952 1348L1961 1361M1952 1348L2010 1380M2069 1311L2158 1345M2069 1311L2010 1380M2069 1311L2093 1382M2158 1345L2228 1316M2158 1345L2093 1382M2158 1345L2160 1408M2228 1316L2249 1307M2228 1316L2275 1377M2249 1307L2275 1377M2249 1307L2321 1369M2338 1294L2275 1377M2338 1294L2321 1369M2429 1299L2505 1347M2429 1299L2421 1368M2505 1347L2421 1368M2505 1347L2551 1371M13 1407L86 1396M13 1407L-9 1371M2573 1407L2551 1371M86 1396L-9 1371M2646 1396L2551 1371M230 1397L252 1389M386 1429L478 1434M386 1429L480 1379M478 1434L480 1379M612 1431L693 1380M693 1380L779 1387M849 1439L944 1429M944 1429L965 1374M965 1374L1078 1399M1150 1361L1216 1392M1216 1392L1300 1416M1300 1416L1417 1393M1417 1393L1464 1433M1464 1433L1544 1419M1544 1419L1641 1424M1641 1424L1733 1386M1733 1386L1810 1422M1810 1422L1905 1396M1905 1396L1961 1361M1961 1361L2010 1380M2010 1380L2093 1382M2093 1382L2160 1408M2275 1377L2321 1369M2321 1369L2421 1368"/></svg>