<svg xmlns="http://www.w3.org/2000/svg" width="2560" height="1440" fill="#fff"><circle cx="72" cy="22" r="5"/><circle cx="150" cy="22" r="4"/><circle cx="178" cy="55" r="5"/><circle cx="246" cy="22" r="4"/><circle cx="342" cy="37" r="4"/><circle cx="462" cy="16" r="5"/><circle cx="532" cy="76" r="5"/><circle cx="597" cy="33" r="5"/><circle cx="718" cy="42" r="5"/><circle cx="764" cy="17" r="4"/><circle cx="848" cy="55" r="5"/><circle cx="938" cy="65" r="5"/><circle cx="1039" cy="76" r="4"/><circle cx="1050" cy="21" r="5"/><circle cx="1177" cy="31" r="5"/><circle cx="1231" cy="11" r="5"/><circle cx="1347" cy="14" r="4"/><circle cx="1365" cy="52" r="6"/><circle cx="1451" cy="78" r="6"/><circle cx="1581" cy="22" r="4"/><circle cx="1664" cy="52" r="6"/><circle cx="1758" cy="30" r="5"/><circle cx="1770" cy="42" r="4"/><circle cx="1869" cy="47" r="5"/><circle cx="1992" cy="54" r="5"/><circle cx="2073" cy="60" r="5"/><circle cx="2131" cy="19" r="4"/><circle cx="2185" cy="11" r="6"/><circle cx="2272" cy="26" r="5"/><circle cx="2362" cy="9" r="5"/><circle cx="2403" cy="71" r="5"/><circle cx="2513" cy="23" r="5"/><circle cx="11" cy="102" r="5"/><circle cx="87" cy="146" r="6"/><circle cx="182" cy="85" r="5"/><circle cx="302" cy="125" r="6"/><circle cx="395" cy="97" r="5"/><circle cx="436" cy="112" r="6"/><circle cx="488" cy="134" r="5"/><circle cx="589" cy="137" r="4"/><circle cx="681" cy="141" r="4"/><circle cx="758" cy="110" r="5"/><circle cx="850" cy="135" r="5"/><circle cx="934" cy="98" r="6"/><circle cx="1028" cy="106" r="4"/><circle cx="1078" cy="124" r="5"/><circle cx="1157" cy="89" r="4"/><circle cx="1201" cy="138" r="4"/><circle cx="1327" cy="147" r="5"/><circle cx="1367" cy="124" r="4"/><circle cx="1515" cy="159" r="4"/><circle cx="1550" cy="91" r="4"/><circle cx="1646" cy="130" r="4"/><circle cx="1726" cy="119" r="6"/><circle cx="1771" cy="153" r="6"/><circle cx="1868" cy="125" r="5"/><circle cx="1936" cy="110" r="5"/><circle cx="2071" cy="89" r="4"/><circle cx="2150" cy="116" r="5"/><circle cx="2166" cy="109" r="5"/><circle cx="2289" cy="97" r="5"/><circle cx="2364" cy="105" r="6"/><circle cx="2407" cy="142" r="5"/><circle cx="2525" cy="131" r="5"/><circle cx="12" cy="195" r="4"/><circle cx="83" cy="235" r="4"/><circle cx="221" cy="196" r="4"/><circle cx="306" cy="214" r="5"/><circle cx="331" cy="188" r="5"/><circle cx="424" cy="186" r="4"/><circle cx="491" cy="220" r="5"/><circle cx="627" cy="225" r="6"/><circle cx="703" cy="207" r="5"/><circle cx="737" cy="222" r="5"/><circle cx="861" cy="182" r="5"/><circle cx="900" cy="235" r="6"/><circle cx="965" cy="177" r="6"/><circle cx="1102" cy="177" r="4"/><circle cx="1136" cy="185" r="5"/><circle cx="1280" cy="204" r="5"/><circle cx="1322" cy="236" r="4"/><circle cx="1416" cy="176" r="4"/><circle cx="1443" cy="235" r="5"/><circle cx="1574" cy="218" r="6"/><circle cx="1659" cy="222" r="6"/><circle cx="1698" cy="160" r="4"/><circle cx="1817" cy="161" r="4"/><circle cx="1876" cy="179" r="6"/><circle cx="1993" cy="217" r="4"/><circle cx="2004" cy="170" r="5"/><circle cx="2154" cy="213" r="5"/><circle cx="2224" cy="225" r="4"/><circle cx="2319" cy="192" r="6"/><circle cx="2338" cy="163" r="5"/><circle cx="2428" cy="238" r="5"/><circle cx="2555" cy="167" r="5"/><circle cx="8" cy="319" r="4"/><circle cx="92" cy="249" r="4"/><circle cx="226" cy="315" r="4"/><circle cx="265" cy="253" r="5"/><circle cx="376" cy="254" r="5"/><circle cx="476" cy="248" r="6"/><circle cx="503" cy="317" r="4"/><circle cx="588" cy="254" r="4"/><circle cx="677" cy="312" r="4"/><circle cx="766" cy="299" r="5"/><circle cx="851" cy="264" r="6"/><circle cx="898" cy="277" r="6"/><circle cx="1031" cy="247" r="6"/><circle cx="1092" cy="276" r="5"/><circle cx="1151" cy="285" r="4"/><circle cx="1209" cy="297" r="4"/><circle cx="1303" cy="265" r="4"/><circle cx="1361" cy="284" r="4"/><circle cx="1491" cy="280" r="5"/><circle cx="1590" cy="277" r="4"/><circle cx="1632" cy="278" r="5"/><circle cx="1703" cy="283" r="6"/><circle cx="1773" cy="268" r="4"/><circle cx="1903" cy="255" r="6"/><circle cx="1959" cy="298" r="5"/><circle cx="2021" cy="320" r="6"/><circle cx="2158" cy="312" r="5"/><circle cx="2203" cy="269" r="5"/><circle cx="2256" cy="262" r="5"/><circle cx="2322" cy="245" r="5"/><circle cx="2401" cy="266" r="5"/><circle cx="2496" cy="245" r="5"/><circle cx="30" cy="330" r="5"/><circle cx="89" cy="384" r="5"/><circle cx="237" cy="334" r="4"/><circle cx="252" cy="360" r="6"/><circle cx="400" cy="363" r="5"/><circle cx="469" cy="366" r="4"/><circle cx="514" cy="343" r="5"/><circle cx="583" cy="394" r="5"/><circle cx="672" cy="379" r="6"/><circle cx="760" cy="364" r="6"/><circle cx="822" cy="393" r="5"/><circle cx="957" cy="362" r="5"/><circle cx="1010" cy="396" r="5"/><circle cx="1051" cy="326" r="5"/><circle cx="1151" cy="347" r="5"/><circle cx="1263" cy="326" r="4"/><circle cx="1336" cy="333" r="4"/><circle cx="1413" cy="373" r="5"/><circle cx="1516" cy="399" r="4"/><circle cx="1538" cy="333" r="5"/><circle cx="1619" cy="349" r="5"/><circle cx="1688" cy="353" r="5"/><circle cx="1761" cy="330" r="6"/><circle cx="1855" cy="395" r="5"/><circle cx="1926" cy="362" r="6"/><circle cx="2018" cy="386" r="6"/><circle cx="2144" cy="393" r="5"/><circle cx="2188" cy="354" r="4"/><circle cx="2254" cy="321" r="5"/><circle cx="2377" cy="390" r="4"/><circle cx="2409" cy="334" r="4"/><circle cx="2525" cy="337" r="6"/><circle cx="12" cy="472" r="5"/><circle cx="109" cy="465" r="5"/><circle cx="224" cy="461" r="6"/><circle cx="311" cy="471" r="4"/><circle cx="393" cy="409" r="4"/><circle cx="478" cy="422" r="4"/><circle cx="497" cy="453" r="6"/><circle cx="639" cy="452" r="6"/><circle cx="713" cy="407" r="6"/><circle cx="789" cy="426" r="5"/><circle cx="839" cy="477" r="5"/><circle cx="948" cy="432" r="5"/><circle cx="1023" cy="476" r="6"/><circle cx="1060" cy="460" r="6"/><circle cx="1176" cy="466" r="5"/><circle cx="1263" cy="433" r="5"/><circle cx="1354" cy="422" r="4"/><circle cx="1421" cy="437" r="5"/><circle cx="1442" cy="409" r="6"/><circle cx="1594" cy="437" r="4"/><circle cx="1612" cy="456" r="4"/><circle cx="1702" cy="457" r="5"/><circle cx="1781" cy="464" r="6"/><circle cx="1892" cy="442" r="4"/><circle cx="1996" cy="471" r="5"/><circle cx="2023" cy="429" r="5"/><circle cx="2102" cy="454" r="6"/><circle cx="2205" cy="407" r="4"/><circle cx="2268" cy="422" r="4"/><circle cx="2345" cy="417" r="4"/><circle cx="2400" cy="465" r="5"/><circle cx="2544" cy="426" r="4"/><circle cx="42" cy="532" r="5"/><circle cx="127" cy="558" r="6"/><circle cx="170" cy="546" r="6"/><circle cx="318" cy="558" r="4"/><circle cx="366" cy="482" r="5"/><circle cx="459" cy="512" r="6"/><circle cx="543" cy="522" r="5"/><circle cx="560" cy="535" r="5"/><circle cx="650" cy="545" r="4"/><circle cx="776" cy="531" r="5"/><circle cx="827" cy="486" r="5"/><circle cx="934" cy="510" r="5"/><circle cx="1029" cy="495" r="5"/><circle cx="1079" cy="519" r="5"/><circle cx="1158" cy="543" r="4"/><circle cx="1206" cy="485" r="5"/><circle cx="1310" cy="548" r="5"/><circle cx="1411" cy="559" r="4"/><circle cx="1517" cy="521" r="6"/><circle cx="1525" cy="493" r="5"/><circle cx="1678" cy="542" r="4"/><circle cx="1718" cy="548" r="5"/><circle cx="1819" cy="491" r="5"/><circle cx="1862" cy="499" r="6"/><circle cx="1975" cy="519" r="5"/><circle cx="2071" cy="513" r="5"/><circle cx="2148" cy="528" r="6"/><circle cx="2204" cy="520" r="5"/><circle cx="2267" cy="487" r="5"/><circle cx="2390" cy="491" r="5"/><circle cx="2416" cy="494" r="5"/><circle cx="2540" cy="497" r="5"/><circle cx="59" cy="606" r="6"/><circle cx="157" cy="612" r="4"/><circle cx="169" cy="629" r="5"/><circle cx="288" cy="619" r="5"/><circle cx="379" cy="595" r="5"/><circle cx="457" cy="599" r="5"/><circle cx="508" cy="570" r="5"/><circle cx="632" cy="619" r="4"/><circle cx="677" cy="615" r="6"/><circle cx="724" cy="607" r="5"/><circle cx="832" cy="607" r="6"/><circle cx="881" cy="601" r="5"/><circle cx="1038" cy="588" r="5"/><circle cx="1104" cy="573" r="6"/><circle cx="1168" cy="604" r="6"/><circle cx="1258" cy="567" r="4"/><circle cx="1321" cy="594" r="6"/><circle cx="1411" cy="617" r="5"/><circle cx="1488" cy="572" r="5"/><circle cx="1582" cy="565" r="5"/><circle cx="1676" cy="586" r="4"/><circle cx="1694" cy="573" r="6"/><circle cx="1779" cy="579" r="6"/><circle cx="1888" cy="602" r="6"/><circle cx="1922" cy="605" r="5"/><circle cx="2022" cy="568" r="4"/><circle cx="2131" cy="623" r="6"/><circle cx="2178" cy="609" r="5"/><circle cx="2274" cy="573" r="6"/><circle cx="2380" cy="603" r="5"/><circle cx="2474" cy="618" r="4"/><circle cx="2518" cy="599" r="5"/><circle cx="70" cy="662" r="5"/><circle cx="147" cy="685" r="5"/><circle cx="182" cy="666" r="4"/><circle cx="242" cy="716" r="6"/><circle cx="395" cy="692" r="5"/><circle cx="407" cy="686" r="5"/><circle cx="508" cy="656" r="6"/><circle cx="571" cy="641" r="5"/><circle cx="678" cy="718" r="5"/><circle cx="792" cy="683" r="5"/><circle cx="832" cy="686" r="5"/><circle cx="897" cy="652" r="5"/><circle cx="971" cy="678" r="6"/><circle cx="1066" cy="687" r="5"/><circle cx="1172" cy="677" r="5"/><circle cx="1276" cy="683" r="6"/><circle cx="1287" cy="687" r="5"/><circle cx="1399" cy="689" r="5"/><circle cx="1447" cy="716" r="5"/><circle cx="1580" cy="710" r="6"/><circle cx="1649" cy="658" r="4"/><circle cx="1713" cy="662" r="5"/><circle cx="1784" cy="681" r="5"/><circle cx="1885" cy="645" r="4"/><circle cx="1962" cy="704" r="5"/><circle cx="2033" cy="703" r="6"/><circle cx="2110" cy="716" r="5"/><circle cx="2232" cy="700" r="5"/><circle cx="2261" cy="711" r="5"/><circle cx="2375" cy="667" r="6"/><circle cx="2473" cy="643" r="5"/><circle cx="2493" cy="671" r="5"/><circle cx="79" cy="781" r="4"/><circle cx="87" cy="797" r="5"/><circle cx="215" cy="748" r="6"/><circle cx="319" cy="788" r="4"/><circle cx="387" cy="777" r="5"/><circle cx="442" cy="740" r="4"/><circle cx="509" cy="754" r="4"/><circle cx="628" cy="747" r="5"/><circle cx="645" cy="764" r="5"/><circle cx="732" cy="721" r="6"/><circle cx="825" cy="745" r="6"/><circle cx="952" cy="733" r="4"/><circle cx="1016" cy="728" r="5"/><circle cx="1081" cy="750" r="4"/><circle cx="1131" cy="779" r="5"/><circle cx="1211" cy="729" r="5"/><circle cx="1333" cy="785" r="5"/><circle cx="1381" cy="800" r="6"/><circle cx="1498" cy="792" r="6"/><circle cx="1531" cy="759" r="5"/><circle cx="1673" cy="800" r="6"/><circle cx="1723" cy="769" r="5"/><circle cx="1768" cy="748" r="6"/><circle cx="1848" cy="721" r="4"/><circle cx="1922" cy="761" r="5"/><circle cx="2044" cy="776" r="5"/><circle cx="2101" cy="793" r="5"/><circle cx="2170" cy="758" r="4"/><circle cx="2249" cy="743" r="5"/><circle cx="2353" cy="775" r="4"/><circle cx="2411" cy="734" r="5"/><circle cx="2510" cy="770" r="5"/><circle cx="63" cy="852" r="5"/><circle cx="95" cy="818" r="5"/><circle cx="237" cy="808" r="6"/><circle cx="299" cy="841" r="5"/><circle cx="383" cy="808" r="6"/><circle cx="473" cy="839" r="5"/><circle cx="526" cy="864" r="5"/><circle cx="593" cy="844" r="5"/><circle cx="697" cy="816" r="5"/><circle cx="729" cy="842" r="4"/><circle cx="844" cy="816" r="5"/><circle cx="893" cy="813" r="5"/><circle cx="979" cy="829" r="5"/><circle cx="1106" cy="836" r="4"/><circle cx="1128" cy="832" r="6"/><circle cx="1227" cy="870" r="6"/><circle cx="1291" cy="853" r="6"/><circle cx="1425" cy="860" r="4"/><circle cx="1497" cy="822" r="6"/><circle cx="1598" cy="825" r="6"/><circle cx="1638" cy="839" r="4"/><circle cx="1755" cy="803" r="6"/><circle cx="1813" cy="815" r="4"/><circle cx="1859" cy="846" r="5"/><circle cx="1944" cy="830" r="5"/><circle cx="2052" cy="848" r="5"/><circle cx="2083" cy="827" r="5"/><circle cx="2188" cy="809" r="4"/><circle cx="2311" cy="878" r="5"/><circle cx="2358" cy="832" r="6"/><circle cx="2433" cy="844" r="5"/><circle cx="2516" cy="878" r="5"/><circle cx="7" cy="918" r="5"/><circle cx="113" cy="915" r="5"/><circle cx="174" cy="899" r="5"/><circle cx="292" cy="959" r="6"/><circle cx="359" cy="883" r="6"/><circle cx="450" cy="883" r="5"/><circle cx="508" cy="916" r="5"/><circle cx="571" cy="914" r="4"/><circle cx="686" cy="948" r="6"/><circle cx="731" cy="891" r="6"/><circle cx="817" cy="938" r="5"/><circle cx="895" cy="925" r="4"/><circle cx="970" cy="893" r="6"/><circle cx="1105" cy="907" r="5"/><circle cx="1144" cy="895" r="5"/><circle cx="1220" cy="920" r="5"/><circle cx="1289" cy="891" r="5"/><circle cx="1380" cy="922" r="6"/><circle cx="1487" cy="895" r="6"/><circle cx="1588" cy="953" r="5"/><circle cx="1610" cy="957" r="6"/><circle cx="1726" cy="939" r="4"/><circle cx="1795" cy="941" r="5"/><circle cx="1912" cy="886" r="6"/><circle cx="1975" cy="949" r="4"/><circle cx="2018" cy="942" r="5"/><circle cx="2107" cy="958" r="6"/><circle cx="2239" cy="920" r="5"/><circle cx="2280" cy="953" r="6"/><circle cx="2396" cy="884" r="6"/><circle cx="2403" cy="881" r="6"/><circle cx="2483" cy="932" r="5"/><circle cx="31" cy="1016" r="5"/><circle cx="135" cy="987" r="5"/><circle cx="189" cy="1015" r="6"/><circle cx="314" cy="979" r="5"/><circle cx="364" cy="1032" r="5"/><circle cx="422" cy="996" r="5"/><circle cx="556" cy="968" r="5"/><circle cx="634" cy="1030" r="4"/><circle cx="649" cy="1008" r="4"/><circle cx="767" cy="1010" r="4"/><circle cx="820" cy="1018" r="4"/><circle cx="950" cy="1023" r="5"/><circle cx="997" cy="964" r="4"/><circle cx="1066" cy="967" r="6"/><circle cx="1132" cy="999" r="5"/><circle cx="1227" cy="1022" r="5"/><circle cx="1307" cy="1007" r="5"/><circle cx="1399" cy="1028" r="5"/><circle cx="1482" cy="978" r="6"/><circle cx="1554" cy="969" r="4"/><circle cx="1644" cy="967" r="6"/><circle cx="1683" cy="1034" r="4"/><circle cx="1797" cy="1034" r="5"/><circle cx="1903" cy="1002" r="5"/><circle cx="1929" cy="1034" r="5"/><circle cx="2055" cy="1003" r="5"/><circle cx="2139" cy="976" r="5"/><circle cx="2162" cy="994" r="4"/><circle cx="2282" cy="965" r="4"/><circle cx="2395" cy="965" r="5"/><circle cx="2400" cy="996" r="5"/><circle cx="2546" cy="986" r="5"/><circle cx="51" cy="1055" r="5"/><circle cx="159" cy="1095" r="4"/><circle cx="175" cy="1060" r="4"/><circle cx="291" cy="1046" r="5"/><circle cx="322" cy="1078" r="6"/><circle cx="414" cy="1115" r="5"/><circle cx="500" cy="1088" r="5"/><circle cx="563" cy="1113" r="4"/><circle cx="688" cy="1108" r="5"/><circle cx="773" cy="1043" r="4"/><circle cx="803" cy="1104" r="6"/><circle cx="892" cy="1057" r="5"/><circle cx="970" cy="1074" r="6"/><circle cx="1040" cy="1051" r="6"/><circle cx="1184" cy="1083" r="4"/><circle cx="1216" cy="1087" r="6"/><circle cx="1334" cy="1043" r="5"/><circle cx="1436" cy="1060" r="6"/><circle cx="1461" cy="1081" r="5"/><circle cx="1543" cy="1061" r="5"/><circle cx="1661" cy="1077" r="6"/><circle cx="1741" cy="1054" r="5"/><circle cx="1763" cy="1064" r="5"/><circle cx="1897" cy="1068" r="5"/><circle cx="1931" cy="1104" r="4"/><circle cx="2031" cy="1052" r="6"/><circle cx="2104" cy="1120" r="5"/><circle cx="2182" cy="1083" r="5"/><circle cx="2282" cy="1089" r="5"/><circle cx="2387" cy="1103" r="5"/><circle cx="2480" cy="1059" r="6"/><circle cx="2531" cy="1059" r="6"/><circle cx="21" cy="1161" r="5"/><circle cx="121" cy="1167" r="4"/><circle cx="239" cy="1169" r="4"/><circle cx="248" cy="1131" r="5"/><circle cx="396" cy="1176" r="6"/><circle cx="413" cy="1142" r="5"/><circle cx="481" cy="1135" r="4"/><circle cx="570" cy="1151" r="5"/><circle cx="642" cy="1164" r="5"/><circle cx="799" cy="1187" r="5"/><circle cx="873" cy="1172" r="5"/><circle cx="918" cy="1130" r="5"/><circle cx="969" cy="1182" r="5"/><circle cx="1109" cy="1135" r="4"/><circle cx="1129" cy="1181" r="6"/><circle cx="1232" cy="1175" r="6"/><circle cx="1284" cy="1126" r="5"/><circle cx="1385" cy="1151" r="6"/><circle cx="1491" cy="1145" r="6"/><circle cx="1565" cy="1172" r="6"/><circle cx="1647" cy="1134" r="5"/><circle cx="1696" cy="1189" r="6"/><circle cx="1776" cy="1138" r="4"/><circle cx="1850" cy="1156" r="6"/><circle cx="1964" cy="1194" r="6"/><circle cx="2018" cy="1192" r="4"/><circle cx="2103" cy="1200" r="5"/><circle cx="2239" cy="1120" r="5"/><circle cx="2318" cy="1133" r="5"/><circle cx="2377" cy="1190" r="4"/><circle cx="2450" cy="1163" r="5"/><circle cx="2484" cy="1172" r="5"/><circle cx="46" cy="1222" r="5"/><circle cx="150" cy="1280" r="5"/><circle cx="196" cy="1262" r="6"/><circle cx="249" cy="1267" r="4"/><circle cx="359" cy="1279" r="4"/><circle cx="453" cy="1236" r="4"/><circle cx="509" cy="1249" r="4"/><circle cx="567" cy="1217" r="4"/><circle cx="707" cy="1266" r="4"/><circle cx="765" cy="1201" r="5"/><circle cx="801" cy="1227" r="5"/><circle cx="931" cy="1257" r="5"/><circle cx="967" cy="1204" r="5"/><circle cx="1048" cy="1209" r="6"/><circle cx="1137" cy="1206" r="6"/><circle cx="1278" cy="1230" r="5"/><circle cx="1313" cy="1252" r="4"/><circle cx="1410" cy="1266" r="6"/><circle cx="1483" cy="1209" r="5"/><circle cx="1570" cy="1254" r="5"/><circle cx="1623" cy="1279" r="4"/><circle cx="1718" cy="1270" r="4"/><circle cx="1806" cy="1225" r="6"/><circle cx="1880" cy="1235" r="6"/><circle cx="1962" cy="1263" r="5"/><circle cx="2053" cy="1268" r="5"/><circle cx="2127" cy="1224" r="4"/><circle cx="2223" cy="1268" r="6"/><circle cx="2281" cy="1274" r="5"/><circle cx="2342" cy="1234" r="5"/><circle cx="2473" cy="1221" r="4"/><circle cx="2552" cy="1280" r="5"/><circle cx="17" cy="1313" r="4"/><circle cx="85" cy="1325" r="5"/><circle cx="198" cy="1306" r="4"/><circle cx="249" cy="1358" r="5"/><circle cx="374" cy="1300" r="6"/><circle cx="475" cy="1322" r="5"/><circle cx="521" cy="1297" r="5"/><circle cx="604" cy="1348" r="5"/><circle cx="710" cy="1303" r="5"/><circle cx="774" cy="1353" r="5"/><circle cx="856" cy="1334" r="5"/><circle cx="950" cy="1282" r="5"/><circle cx="1023" cy="1286" r="5"/><circle cx="1076" cy="1344" r="6"/><circle cx="1147" cy="1337" r="6"/><circle cx="1250" cy="1295" r="5"/><circle cx="1335" cy="1293" r="5"/><circle cx="1385" cy="1344" r="5"/><circle cx="1461" cy="1356" r="5"/><circle cx="1594" cy="1324" r="4"/><circle cx="1612" cy="1310" r="4"/><circle cx="1682" cy="1342" r="4"/><circle cx="1814" cy="1282" r="4"/><circle cx="1881" cy="1359" r="5"/><circle cx="1939" cy="1299" r="6"/><circle cx="2073" cy="1302" r="5"/><circle cx="2146" cy="1357" r="5"/><circle cx="2163" cy="1356" r="5"/><circle cx="2280" cy="1315" r="5"/><circle cx="2331" cy="1343" r="5"/><circle cx="2437" cy="1300" r="5"/><circle cx="2505" cy="1317" r="6"/><circle cx="25" cy="1404" r="5"/><circle cx="86" cy="1395" r="5"/><circle cx="201" cy="1427" r="4"/><circle cx="309" cy="1415" r="5"/><circle cx="377" cy="1360" r="5"/><circle cx="413" cy="1425" r="5"/><circle cx="482" cy="1417" r="5"/><circle cx="617" cy="1404" r="5"/><circle cx="709" cy="1361" r="5"/><circle cx="779" cy="1377" r="6"/><circle cx="867" cy="1375" r="5"/><circle cx="950" cy="1402" r="5"/><circle cx="1023" cy="1394" r="5"/><circle cx="1114" cy="1416" r="5"/><circle cx="1198" cy="1366" r="4"/><circle cx="1221" cy="1412" r="5"/><circle cx="1294" cy="1417" r="6"/><circle cx="1409" cy="1369" r="5"/><circle cx="1479" cy="1378" r="5"/><circle cx="1565" cy="1399" r="4"/><circle cx="1628" cy="1440" r="5"/><circle cx="1628" cy="-0" r="5"/><circle cx="1728" cy="1385" r="4"/><circle cx="1790" cy="1424" r="6"/><circle cx="1891" cy="1425" r="6"/><circle cx="1945" cy="1391" r="6"/><circle cx="2014" cy="1408" r="4"/><circle cx="2096" cy="1435" r="6"/><circle cx="2096" cy="-5" r="6"/><circle cx="2193" cy="1412" r="5"/><circle cx="2254" cy="1418" r="5"/><circle cx="2397" cy="1366" r="6"/><circle cx="2419" cy="1428" r="4"/><circle cx="2505" cy="1388" r="5"/><path stroke="#fff" d="M72 22L150 22M72 22L178 55M72 22L11 102M72 22L25 -36M72 22L86 -45M72 1462L25 1404M72 1462L86 1395M150 22L178 55M150 22L182 85M150 22L86 -45M150 22L201 -13M150 1462L86 1395M150 1462L201 1427M178 55L246 22M178 55L182 85M178 55L201 -13M178 1495L201 1427M246 22L342 37M246 22L182 85M246 22L201 -13M246 22L309 -25M246 1462L201 1427M246 1462L309 1415M342 37L302 125M342 37L395 97M342 37L309 -25M342 37L413 -15M342 1477L309 1415M342 1477L413 1425M462 16L532 76M462 16L436 112M462 16L413 -15M462 16L482 -23M462 1456L413 1425M462 1456L482 1417M532 76L597 33M532 76L436 112M532 76L488 134M532 76L589 137M597 33L589 137M597 33L604 -92M597 33L617 -36M597 1473L604 1348M597 1473L617 1404M718 42L764 17M718 42L758 110M764 17L848 55M764 17L758 110M764 17L779 -63M764 1457L779 1377M848 55L938 65M848 55L758 110M848 55L850 135M848 55L934 98M938 65L934 98M938 65L950 -38M938 1505L950 1402M1039 76L1050 21M1039 76L1028 106M1039 76L1078 124M1050 21L1028 106M1050 21L1023 -46M1050 21L1114 -24M1050 1461L1023 1394M1050 1461L1114 1416M1177 31L1231 11M1177 31L1157 89M1177 31L1114 -24M1177 31L1221 -28M1177 1471L1114 1416M1177 1471L1221 1412M1231 11L1157 89M1231 11L1198 -74M1231 11L1221 -28M1231 11L1294 -23M1231 1451L1198 1366M1231 1451L1221 1412M1231 1451L1294 1417M1347 14L1365 52M1347 14L1294 -23M1347 14L1409 -71M1347 1454L1294 1417M1347 1454L1409 1369M1365 52L1451 78M1365 52L1327 147M1365 52L1367 124M1365 52L1294 -23M1365 1492L1294 1417M1451 78L1367 124M1451 78L1515 159M1451 78L1550 91M1451 78L1416 176M1581 22L1664 52M1581 22L1550 91M1581 22L1565 -41M1581 22L1628 -0M1581 1462L1565 1399M1581 1462L1628 1440M1664 52L1758 30M1664 52L1646 130M1664 52L1726 119M1664 52L1628 -0M1664 1492L1628 1440M1758 30L1770 42M1758 30L1726 119M1758 30L1728 -55M1758 30L1790 -16M1758 1470L1728 1385M1758 1470L1790 1424M1770 42L1869 47M1770 42L1790 -16M1770 1482L1790 1424M1869 47L1868 125M1869 47L1936 110M1869 47L1790 -16M1869 47L1891 -15M1869 1487L1790 1424M1869 1487L1891 1425M1992 54L2073 60M1992 54L1936 110M1992 54L2071 89M1992 54L1945 -49M1992 54L2014 -32M1992 1494L1945 1391M1992 1494L2014 1408M2073 60L2131 19M2073 60L2071 89M2073 60L2150 116M2073 60L2096 -5M2073 1500L2096 1435M2131 19L2185 11M2131 19L2150 116M2131 19L2096 -5M2131 19L2193 -28M2131 1459L2096 1435M2131 1459L2193 1412M2185 11L2272 26M2185 11L2096 -5M2185 11L2193 -28M2185 11L2254 -22M2185 1451L2096 1435M2185 1451L2193 1412M2185 1451L2254 1418M2272 26L2362 9M2272 26L2289 97M2272 26L2254 -22M2272 1466L2254 1418M2362 9L2403 71M2362 9L2397 -74M2362 9L2419 -12M2362 1449L2397 1366M2362 1449L2419 1428M2403 71L2364 105M2403 71L2407 142M2403 71L2419 -12M2403 1511L2419 1428M2513 23L2525 131M2513 23L2585 -36M2513 23L2419 -12M2513 23L2505 -52M-47 23L25 -36M-47 1463L25 1404M2513 1463L2585 1404M2513 1463L2419 1428M2513 1463L2505 1388M11 102L87 146M11 102L-35 131M11 102L-5 167M2571 102L2525 131M2571 102L2555 167M87 146L12 195M87 146L83 235M87 146L-5 167M87 146L92 249M2647 146L2555 167M182 85L201 -13M182 1525L201 1427M302 125L395 97M302 125L221 196M302 125L306 214M302 125L331 188M395 97L436 112M395 97L488 134M436 112L488 134M436 112L424 186M488 134L424 186M488 134L491 220M589 137L681 141M589 137L627 225M681 141L758 110M681 141L627 225M681 141L703 207M681 141L737 222M758 110L850 135M850 135L934 98M850 135L861 182M850 135L900 235M934 98L1028 106M934 98L965 177M1028 106L1078 124M1028 106L965 177M1078 124L1157 89M1078 124L1102 177M1078 124L1136 185M1157 89L1201 138M1157 89L1136 185M1201 138L1102 177M1201 138L1136 185M1201 138L1280 204M1327 147L1367 124M1327 147L1280 204M1327 147L1322 236M1327 147L1416 176M1367 124L1416 176M1515 159L1550 91M1515 159L1416 176M1515 159L1443 235M1515 159L1574 218M1646 130L1726 119M1646 130L1698 160M1726 119L1771 153M1726 119L1698 160M1771 153L1868 125M1771 153L1698 160M1771 153L1817 161M1771 153L1876 179M1868 125L1936 110M1868 125L1817 161M1868 125L1876 179M1936 110L1876 179M1936 110L2004 170M2071 89L2150 116M2071 89L2004 170M2150 116L2166 109M2150 116L2154 213M2166 109L2154 213M2289 97L2364 105M2289 97L2338 163M2364 105L2407 142M2364 105L2319 192M2364 105L2338 163M2407 142L2319 192M2407 142L2338 163M2407 142L2428 238M2525 131L2572 195M2525 131L2555 167M-35 131L12 195M12 195L83 235M12 195L-5 167M12 195L-64 245M2572 195L2555 167M2572 195L2496 245M83 235L92 249M221 196L306 214M221 196L265 253M306 214L331 188M306 214L265 253M306 214L376 254M331 188L265 253M331 188L376 254M424 186L491 220M424 186L376 254M424 186L476 248M491 220L476 248M491 220L503 317M491 220L588 254M627 225L703 207M627 225L588 254M627 225L677 312M703 207L737 222M737 222L766 299M737 222L851 264M861 182L900 235M861 182L965 177M861 182L851 264M861 182L898 277M900 235L965 177M900 235L851 264M900 235L898 277M965 177L1031 247M1102 177L1136 185M1102 177L1031 247M1136 185L1092 276M1280 204L1322 236M1280 204L1303 265M1322 236L1303 265M1322 236L1361 284M1416 176L1443 235M1443 235L1361 284M1443 235L1491 280M1574 218L1659 222M1574 218L1491 280M1574 218L1590 277M1574 218L1632 278M1659 222L1698 160M1659 222L1590 277M1659 222L1632 278M1659 222L1703 283M1817 161L1876 179M1876 179L1903 255M1993 217L2004 170M1993 217L1903 255M1993 217L1959 298M1993 217L2021 320M2004 170L1903 255M2154 213L2224 225M2154 213L2158 312M2154 213L2203 269M2224 225L2203 269M2224 225L2256 262M2224 225L2322 245M2319 192L2338 163M2319 192L2256 262M2319 192L2322 245M2338 163L2322 245M2428 238L2401 266M2428 238L2496 245M2428 238L2409 334M2555 167L2496 245M8 319L30 330M8 319L89 384M8 319L-35 337M2568 319L2525 337M92 249L30 330M226 315L265 253M226 315L237 334M226 315L252 360M265 253L237 334M376 254L476 248M376 254L400 363M476 248L503 317M476 248L514 343M503 317L469 366M503 317L514 343M677 312L766 299M677 312L672 379M766 299L851 264M766 299L760 364M851 264L898 277M898 277L1031 247M898 277L957 362M1031 247L1092 276M1031 247L1051 326M1092 276L1151 285M1092 276L1051 326M1092 276L1151 347M1151 285L1209 297M1151 285L1151 347M1209 297L1151 347M1209 297L1263 326M1303 265L1361 284M1303 265L1263 326M1303 265L1336 333M1361 284L1336 333M1361 284L1413 373M1491 280L1538 333M1590 277L1632 278M1590 277L1538 333M1590 277L1619 349M1632 278L1703 283M1632 278L1619 349M1703 283L1773 268M1703 283L1688 353M1703 283L1761 330M1773 268L1688 353M1773 268L1761 330M1903 255L1959 298M1959 298L2021 320M1959 298L1926 362M2021 320L1926 362M2021 320L2018 386M2158 312L2203 269M2158 312L2144 393M2158 312L2188 354M2158 312L2254 321M2203 269L2256 262M2203 269L2254 321M2256 262L2322 245M2256 262L2254 321M2322 245L2401 266M2401 266L2496 245M2401 266L2409 334M2496 245L2525 337M30 330L89 384M30 330L-35 337M30 330L-16 426M2590 330L2525 337M2590 330L2544 426M89 384L12 472M89 384L109 465M89 384L-16 426M2649 384L2544 426M237 334L252 360M237 334L224 461M252 360L224 461M252 360L311 471M400 363L469 366M400 363L393 409M469 366L514 343M469 366L478 422M469 366L497 453M514 343L583 394M514 343L478 422M583 394L672 379M583 394L639 452M672 379L760 364M672 379L639 452M672 379L713 407M760 364L822 393M760 364L713 407M760 364L789 426M822 393L713 407M822 393L789 426M822 393L839 477M822 393L827 486M957 362L1010 396M957 362L1051 326M957 362L948 432M1010 396L1051 326M1010 396L948 432M1010 396L1023 476M1010 396L1060 460M1051 326L1151 347M1151 347L1263 326M1263 326L1336 333M1263 326L1263 433M1336 333L1413 373M1336 333L1354 422M1413 373L1354 422M1413 373L1421 437M1413 373L1442 409M1516 399L1538 333M1516 399L1421 437M1516 399L1442 409M1516 399L1594 437M1538 333L1619 349M1619 349L1688 353M1619 349L1594 437M1688 353L1761 330M1688 353L1702 457M1761 330L1855 395M1855 395L1926 362M1855 395L1781 464M1855 395L1892 442M1855 395L1862 499M1926 362L2018 386M1926 362L1892 442M2018 386L1996 471M2018 386L2023 429M2018 386L2102 454M2144 393L2188 354M2144 393L2102 454M2144 393L2205 407M2188 354L2254 321M2188 354L2205 407M2188 354L2268 422M2254 321L2268 422M2377 390L2409 334M2377 390L2345 417M2377 390L2400 465M2377 390L2390 491M2377 390L2416 494M2409 334L2525 337M2525 337L2544 426M12 472L109 465M12 472L-16 426M12 472L42 532M12 472L-20 497M2572 472L2544 426M2572 472L2540 497M109 465L42 532M109 465L170 546M224 461L311 471M224 461L170 546M311 471L393 409M311 471L318 558M311 471L366 482M393 409L478 422M393 409L366 482M478 422L497 453M497 453L459 512M497 453L543 522M497 453L560 535M639 452L713 407M639 452L650 545M713 407L789 426M789 426L839 477M789 426L827 486M839 477L776 531M839 477L827 486M839 477L934 510M948 432L1023 476M948 432L934 510M1023 476L1060 460M1023 476L1029 495M1023 476L1079 519M1060 460L1029 495M1060 460L1079 519M1060 460L1104 573M1176 466L1263 433M1176 466L1158 543M1176 466L1206 485M1263 433L1354 422M1263 433L1206 485M1263 433L1310 548M1354 422L1421 437M1354 422L1442 409M1421 437L1442 409M1594 437L1612 456M1594 437L1525 493M1612 456L1702 457M1612 456L1517 521M1612 456L1525 493M1702 457L1781 464M1702 457L1678 542M1702 457L1718 548M1781 464L1819 491M1781 464L1862 499M1892 442L1819 491M1892 442L1862 499M1996 471L2023 429M1996 471L1975 519M1996 471L2071 513M2023 429L2102 454M2023 429L1975 519M2102 454L2071 513M2102 454L2148 528M2205 407L2268 422M2205 407L2267 487M2268 422L2345 417M2268 422L2267 487M2345 417L2400 465M2345 417L2390 491M2345 417L2416 494M2400 465L2390 491M2400 465L2416 494M2544 426L2540 497M42 532L127 558M42 532L-20 497M42 532L59 606M2602 532L2540 497M127 558L170 546M127 558L59 606M127 558L157 612M127 558L169 629M170 546L157 612M170 546L169 629M318 558L366 482M318 558L288 619M318 558L379 595M366 482L459 512M459 512L543 522M459 512L457 599M459 512L508 570M543 522L560 535M543 522L508 570M560 535L650 545M560 535L508 570M560 535L571 641M650 545L632 619M650 545L677 615M776 531L827 486M776 531L724 607M776 531L832 607M827 486L934 510M934 510L1029 495M934 510L881 601M1029 495L1079 519M1029 495L1038 588M1079 519L1038 588M1079 519L1104 573M1158 543L1206 485M1158 543L1104 573M1158 543L1168 604M1206 485L1168 604M1206 485L1258 567M1310 548L1411 559M1310 548L1258 567M1310 548L1321 594M1411 559L1517 521M1411 559L1411 617M1411 559L1488 572M1517 521L1525 493M1517 521L1488 572M1517 521L1582 565M1525 493L1488 572M1525 493L1582 565M1678 542L1718 548M1678 542L1582 565M1678 542L1676 586M1678 542L1694 573M1718 548L1676 586M1718 548L1694 573M1718 548L1779 579M1819 491L1862 499M1819 491L1779 579M1862 499L1888 602M1975 519L2071 513M1975 519L1922 605M1975 519L2022 568M2071 513L2148 528M2071 513L2022 568M2148 528L2204 520M2148 528L2131 623M2148 528L2178 609M2204 520L2267 487M2204 520L2131 623M2204 520L2178 609M2204 520L2274 573M2267 487L2274 573M2390 491L2416 494M2416 494L2380 603M2540 497L2518 599M59 606L-42 599M59 606L70 662M2619 606L2518 599M157 612L169 629M157 612L147 685M157 612L182 666M169 629L147 685M169 629L182 666M288 619L379 595M288 619L242 716M379 595L457 599M379 595L395 692M379 595L407 686M457 599L508 570M457 599L508 656M508 570L508 656M632 619L677 615M632 619L724 607M632 619L571 641M677 615L724 607M677 615L571 641M677 615L678 718M724 607L792 683M832 607L881 601M832 607L792 683M832 607L832 686M832 607L897 652M881 601L832 686M881 601L897 652M1038 588L1104 573M1038 588L971 678M1038 588L1066 687M1104 573L1168 604M1168 604L1258 567M1168 604L1172 677M1258 567L1321 594M1321 594L1411 617M1321 594L1276 683M1321 594L1287 687M1411 617L1488 572M1411 617L1399 689M1411 617L1447 716M1488 572L1582 565M1676 586L1694 573M1676 586L1649 658M1676 586L1713 662M1694 573L1779 579M1694 573L1713 662M1779 579L1888 602M1779 579L1784 681M1888 602L1922 605M1888 602L1885 645M1922 605L2022 568M1922 605L1885 645M1922 605L1962 704M2131 623L2178 609M2131 623L2033 703M2131 623L2110 716M2178 609L2274 573M2178 609L2232 700M2274 573L2380 603M2380 603L2474 618M2380 603L2375 667M2380 603L2473 643M2474 618L2518 599M2474 618L2375 667M2474 618L2473 643M2474 618L2493 671M2518 599L2473 643M2518 599L2493 671M70 662L147 685M147 685L182 666M147 685L215 748M182 666L242 716M182 666L215 748M242 716L215 748M242 716L237 808M395 692L407 686M395 692L387 777M395 692L442 740M407 686L508 656M407 686L387 777M407 686L442 740M508 656L571 641M508 656L509 754M678 718L628 747M678 718L645 764M678 718L732 721M792 683L832 686M792 683L732 721M792 683L825 745M832 686L897 652M832 686L825 745M897 652L971 678M897 652L952 733M971 678L1066 687M971 678L952 733M971 678L1016 728M1066 687L1016 728M1066 687L1081 750M1172 677L1276 683M1172 677L1131 779M1172 677L1211 729M1276 683L1287 687M1276 683L1211 729M1276 683L1333 785M1287 687L1399 689M1287 687L1211 729M1287 687L1333 785M1399 689L1447 716M1447 716L1498 792M1447 716L1531 759M1580 710L1649 658M1580 710L1531 759M1649 658L1713 662M1713 662L1784 681M1784 681L1723 769M1784 681L1768 748M1784 681L1848 721M1885 645L1962 704M1885 645L1848 721M1962 704L2033 703M1962 704L1922 761M2033 703L2110 716M2033 703L2044 776M2110 716L2044 776M2110 716L2101 793M2110 716L2170 758M2232 700L2261 711M2232 700L2170 758M2232 700L2249 743M2232 700L2188 809M2261 711L2249 743M2375 667L2473 643M2375 667L2353 775M2375 667L2411 734M2473 643L2493 671M2493 671L2411 734M2493 671L2510 770M79 781L87 797M79 781L63 852M79 781L95 818M87 797L63 852M87 797L95 818M215 748L237 808M319 788L387 777M319 788L237 808M319 788L299 841M319 788L383 808M319 788L359 883M387 777L442 740M387 777L383 808M442 740L509 754M509 754L473 839M628 747L645 764M628 747L593 844M628 747L697 816M645 764L732 721M645 764L593 844M645 764L697 816M732 721L825 745M732 721L697 816M825 745L844 816M825 745L893 813M952 733L1016 728M952 733L893 813M952 733L979 829M1016 728L1081 750M1016 728L979 829M1081 750L1131 779M1081 750L1106 836M1131 779L1211 729M1131 779L1106 836M1131 779L1128 832M1333 785L1381 800M1333 785L1291 853M1333 785L1289 891M1381 800L1291 853M1381 800L1425 860M1498 792L1531 759M1498 792L1497 822M1498 792L1598 825M1498 792L1487 895M1531 759L1497 822M1531 759L1598 825M1673 800L1723 769M1673 800L1598 825M1673 800L1638 839M1673 800L1755 803M1723 769L1768 748M1723 769L1755 803M1723 769L1813 815M1768 748L1848 721M1768 748L1755 803M1768 748L1813 815M1848 721L1922 761M1848 721L1813 815M1922 761L1859 846M1922 761L1944 830M2044 776L2101 793M2044 776L2052 848M2044 776L2083 827M2101 793L2170 758M2101 793L2052 848M2101 793L2083 827M2170 758L2249 743M2170 758L2188 809M2249 743L2353 775M2249 743L2188 809M2353 775L2411 734M2353 775L2358 832M2411 734L2510 770M63 852L95 818M63 852L7 918M63 852L113 915M95 818L113 915M95 818L174 899M237 808L299 841M237 808L174 899M299 841L383 808M299 841L359 883M383 808L473 839M383 808L359 883M473 839L526 864M473 839L450 883M473 839L508 916M526 864L593 844M526 864L450 883M526 864L508 916M526 864L571 914M593 844L571 914M697 816L729 842M697 816L731 891M729 842L686 948M729 842L731 891M844 816L893 813M844 816L895 925M893 813L979 829M893 813L970 893M979 829L970 893M1106 836L1128 832M1106 836L1105 907M1106 836L1144 895M1128 832L1227 870M1128 832L1105 907M1128 832L1144 895M1227 870L1291 853M1227 870L1144 895M1227 870L1220 920M1227 870L1289 891M1291 853L1220 920M1291 853L1289 891M1425 860L1497 822M1425 860L1380 922M1425 860L1487 895M1497 822L1598 825M1497 822L1487 895M1598 825L1638 839M1755 803L1813 815M1755 803L1859 846M1813 815L1859 846M1859 846L1944 830M1859 846L1912 886M1944 830L1912 886M2052 848L2083 827M2052 848L2018 942M2083 827L2188 809M2311 878L2358 832M2311 878L2239 920M2311 878L2280 953M2311 878L2396 884M2358 832L2433 844M2358 832L2396 884M2358 832L2403 881M2433 844L2516 878M2433 844L2396 884M2433 844L2403 881M2516 878L2567 918M2516 878L2483 932M-44 878L7 918M7 918L-77 932M7 918L31 1016M7 918L-14 986M2567 918L2483 932M2567 918L2546 986M113 915L174 899M113 915L135 987M174 899L135 987M292 959L359 883M292 959L189 1015M292 959L314 979M292 959L364 1032M292 959L291 1046M359 883L450 883M450 883L508 916M450 883L422 996M508 916L571 914M508 916L556 968M571 914L556 968M686 948L731 891M686 948L634 1030M686 948L649 1008M686 948L767 1010M731 891L817 938M817 938L895 925M817 938L767 1010M817 938L820 1018M817 938L773 1043M895 925L970 893M970 893L997 964M970 893L1066 967M1105 907L1144 895M1105 907L1066 967M1105 907L1132 999M1144 895L1220 920M1220 920L1289 891M1289 891L1380 922M1380 922L1487 895M1487 895L1482 978M1588 953L1610 957M1588 953L1554 969M1588 953L1644 967M1610 957L1554 969M1610 957L1644 967M1610 957L1683 1034M1726 939L1795 941M1726 939L1644 967M1795 941L1797 1034M1912 886L1975 949M1912 886L1903 1002M1975 949L2018 942M1975 949L1903 1002M1975 949L1929 1034M1975 949L2055 1003M2018 942L2107 958M2018 942L2055 1003M2018 942L2031 1052M2107 958L2055 1003M2107 958L2139 976M2107 958L2162 994M2107 958L2031 1052M2239 920L2280 953M2239 920L2139 976M2239 920L2162 994M2239 920L2282 965M2280 953L2282 965M2280 953L2395 965M2280 953L2400 996M2396 884L2403 881M2396 884L2395 965M2403 881L2483 932M2403 881L2395 965M2483 932L2395 965M2483 932L2546 986M31 1016L-14 986M31 1016L51 1055M31 1016L-29 1059M2591 1016L2546 986M2591 1016L2531 1059M135 987L189 1015M135 987L51 1055M135 987L175 1060M189 1015L159 1095M189 1015L175 1060M314 979L364 1032M314 979L422 996M314 979L291 1046M314 979L322 1078M364 1032L422 996M364 1032L291 1046M364 1032L322 1078M556 968L634 1030M556 968L649 1008M634 1030L649 1008M634 1030L688 1108M649 1008L688 1108M767 1010L820 1018M767 1010L773 1043M820 1018L773 1043M820 1018L803 1104M820 1018L892 1057M950 1023L997 964M950 1023L892 1057M950 1023L970 1074M950 1023L1040 1051M997 964L1066 967M997 964L1040 1051M1066 967L1132 999M1066 967L1040 1051M1132 999L1227 1022M1132 999L1040 1051M1132 999L1184 1083M1227 1022L1307 1007M1227 1022L1184 1083M1227 1022L1216 1087M1227 1022L1334 1043M1307 1007L1399 1028M1307 1007L1216 1087M1307 1007L1334 1043M1399 1028L1482 978M1399 1028L1334 1043M1399 1028L1436 1060M1399 1028L1461 1081M1482 978L1554 969M1482 978L1436 1060M1482 978L1543 1061M1554 969L1644 967M1554 969L1543 1061M1644 967L1683 1034M1683 1034L1661 1077M1683 1034L1741 1054M1683 1034L1763 1064M1797 1034L1903 1002M1797 1034L1741 1054M1797 1034L1763 1064M1797 1034L1897 1068M1903 1002L1929 1034M1903 1002L1897 1068M1929 1034L1897 1068M1929 1034L1931 1104M1929 1034L2031 1052M2055 1003L2139 976M2055 1003L2031 1052M2139 976L2162 994M2139 976L2182 1083M2162 994L2182 1083M2282 965L2400 996M2282 965L2282 1089M2395 965L2400 996M2400 996L2480 1059M2546 986L2480 1059M2546 986L2531 1059M51 1055L159 1095M51 1055L-29 1059M51 1055L21 1161M2611 1055L2531 1059M159 1095L175 1060M159 1095L121 1167M159 1095L248 1131M175 1060L248 1131M291 1046L322 1078M291 1046L248 1131M322 1078L414 1115M322 1078L248 1131M414 1115L500 1088M414 1115L396 1176M414 1115L413 1142M414 1115L481 1135M500 1088L563 1113M500 1088L413 1142M500 1088L481 1135M500 1088L570 1151M563 1113L481 1135M563 1113L570 1151M563 1113L642 1164M563 1113L567 1217M688 1108L773 1043M688 1108L642 1164M773 1043L803 1104M803 1104L892 1057M803 1104L799 1187M803 1104L873 1172M892 1057L970 1074M892 1057L918 1130M970 1074L1040 1051M970 1074L918 1130M1184 1083L1216 1087M1184 1083L1109 1135M1216 1087L1232 1175M1216 1087L1284 1126M1334 1043L1284 1126M1436 1060L1461 1081M1436 1060L1385 1151M1436 1060L1491 1145M1461 1081L1543 1061M1461 1081L1385 1151M1461 1081L1491 1145M1543 1061L1565 1172M1661 1077L1741 1054M1661 1077L1763 1064M1661 1077L1647 1134M1661 1077L1696 1189M1741 1054L1763 1064M1741 1054L1776 1138M1763 1064L1776 1138M1897 1068L1931 1104M1897 1068L1850 1156M1931 1104L1850 1156M1931 1104L1964 1194M2031 1052L2104 1120M2104 1120L2182 1083M2104 1120L2018 1192M2104 1120L2103 1200M2104 1120L2127 1224M2182 1083L2282 1089M2182 1083L2239 1120M2282 1089L2387 1103M2282 1089L2239 1120M2282 1089L2318 1133M2387 1103L2480 1059M2387 1103L2318 1133M2387 1103L2377 1190M2387 1103L2450 1163M2480 1059L2531 1059M2480 1059L2450 1163M2531 1059L2581 1161M-29 1059L21 1161M21 1161L121 1167M21 1161L-76 1172M21 1161L46 1222M2581 1161L2484 1172M121 1167L46 1222M121 1167L150 1280M239 1169L248 1131M239 1169L196 1262M239 1169L249 1267M396 1176L413 1142M396 1176L481 1135M396 1176L359 1279M396 1176L453 1236M413 1142L481 1135M570 1151L642 1164M570 1151L509 1249M570 1151L567 1217M642 1164L567 1217M642 1164L765 1201M799 1187L873 1172M799 1187L765 1201M799 1187L801 1227M873 1172L918 1130M873 1172L969 1182M873 1172L801 1227M918 1130L969 1182M918 1130L967 1204M969 1182L931 1257M969 1182L967 1204M969 1182L1048 1209M1109 1135L1129 1181M1109 1135L1137 1206M1129 1181L1232 1175M1129 1181L1048 1209M1129 1181L1137 1206M1232 1175L1284 1126M1232 1175L1137 1206M1232 1175L1278 1230M1284 1126L1385 1151M1284 1126L1278 1230M1385 1151L1491 1145M1491 1145L1565 1172M1491 1145L1483 1209M1565 1172L1647 1134M1565 1172L1483 1209M1565 1172L1570 1254M1647 1134L1696 1189M1696 1189L1776 1138M1696 1189L1718 1270M1776 1138L1850 1156M1776 1138L1806 1225M1850 1156L1806 1225M1850 1156L1880 1235M1964 1194L2018 1192M1964 1194L1880 1235M1964 1194L1962 1263M1964 1194L1939 1299M2018 1192L2103 1200M2018 1192L1962 1263M2018 1192L2053 1268M2103 1200L2053 1268M2103 1200L2127 1224M2103 1200L2073 1302M2239 1120L2318 1133M2318 1133L2377 1190M2318 1133L2342 1234M2377 1190L2450 1163M2377 1190L2484 1172M2377 1190L2342 1234M2450 1163L2484 1172M2450 1163L2473 1221M2484 1172L2473 1221M46 1222L-8 1280M46 1222L17 1313M46 1222L85 1325M2606 1222L2552 1280M150 1280L196 1262M150 1280L249 1267M150 1280L85 1325M150 1280L198 1306M196 1262L249 1267M196 1262L198 1306M196 1262L249 1358M249 1267L198 1306M249 1267L249 1358M359 1279L374 1300M359 1279L377 1360M453 1236L509 1249M453 1236L374 1300M453 1236L475 1322M453 1236L521 1297M509 1249L567 1217M509 1249L475 1322M509 1249L521 1297M567 1217L521 1297M707 1266L765 1201M707 1266L801 1227M707 1266L710 1303M707 1266L709 1361M765 1201L801 1227M765 1201L710 1303M931 1257L967 1204M931 1257L856 1334M931 1257L950 1282M931 1257L1023 1286M967 1204L1048 1209M967 1204L950 1282M1048 1209L1137 1206M1048 1209L1023 1286M1278 1230L1313 1252M1278 1230L1250 1295M1278 1230L1335 1293M1313 1252L1250 1295M1313 1252L1335 1293M1410 1266L1483 1209M1410 1266L1335 1293M1410 1266L1385 1344M1410 1266L1461 1356M1410 1266L1409 1369M1483 1209L1570 1254M1570 1254L1623 1279M1570 1254L1594 1324M1570 1254L1612 1310M1623 1279L1718 1270M1623 1279L1594 1324M1623 1279L1612 1310M1623 1279L1682 1342M1718 1270L1806 1225M1718 1270L1682 1342M1718 1270L1814 1282M1806 1225L1880 1235M1806 1225L1814 1282M1880 1235L1814 1282M1880 1235L1939 1299M1962 1263L2053 1268M1962 1263L1939 1299M2053 1268L2127 1224M2053 1268L2073 1302M2127 1224L2223 1268M2127 1224L2073 1302M2223 1268L2281 1274M2223 1268L2146 1357M2223 1268L2163 1356M2223 1268L2280 1315M2281 1274L2342 1234M2281 1274L2280 1315M2281 1274L2331 1343M2342 1234L2280 1315M2342 1234L2331 1343M2473 1221L2552 1280M2473 1221L2437 1300M2552 1280L2577 1313M2552 1280L2505 1317M-8 1280L17 1313M17 1313L85 1325M17 1313L-55 1317M17 1313L25 1404M2577 1313L2505 1317M85 1325L86 1395M198 1306L249 1358M249 1358L201 1427M249 1358L309 1415M374 1300L475 1322M374 1300L377 1360M475 1322L521 1297M475 1322L482 1417M521 1297L604 1348M604 1348L617 1404M710 1303L774 1353M710 1303L709 1361M774 1353L856 1334M774 1353L709 1361M774 1353L779 1377M774 1353L867 1375M856 1334L950 1282M856 1334L779 1377M856 1334L867 1375M950 1282L1023 1286M950 1282L950 1402M1023 1286L1076 1344M1023 1286L1023 1394M1076 1344L1147 1337M1076 1344L1023 1394M1076 1344L1114 1416M1147 1337L1250 1295M1147 1337L1114 1416M1147 1337L1198 1366M1147 1337L1221 1412M1250 1295L1335 1293M1250 1295L1198 1366M1335 1293L1385 1344M1385 1344L1461 1356M1385 1344L1409 1369M1385 1344L1479 1378M1461 1356L1409 1369M1461 1356L1479 1378M1594 1324L1612 1310M1594 1324L1682 1342M1594 1324L1565 1399M1612 1310L1682 1342M1612 1310L1565 1399M1682 1342L1728 1385M1814 1282L1881 1359M1881 1359L1939 1299M1881 1359L1891 1425M1881 1359L1945 1391M1939 1299L1945 1391M2073 1302L2146 1357M2073 1302L2163 1356M2146 1357L2163 1356M2146 1357L2096 1435M2146 1357L2193 1412M2163 1356L2193 1412M2280 1315L2331 1343M2280 1315L2254 1418M2331 1343L2254 1418M2331 1343L2397 1366M2437 1300L2505 1317M2437 1300L2397 1366M2505 1317L2505 1388M25 1404L86 1395M25 1404L-55 1388M2585 1404L2505 1388M309 1415L377 1360M309 1415L413 1425M377 1360L413 1425M377 1360L482 1417M413 1425L482 1417M617 1404L709 1361M709 1361L779 1377M779 1377L867 1375M867 1375L950 1402M950 1402L1023 1394M1023 1394L1114 1416M1198 1366L1221 1412M1198 1366L1294 1417M1221 1412L1294 1417M1409 1369L1479 1378M1479 1378L1565 1399M1565 1399L1628 1440M1628 1440L1728 1385M1728 1385L1790 1424M1790 1424L1891 1425M1891 1425L1945 1391M1891 1425L2014 1408M1945 1391L2014 1408M2014 1408L2096 1435M2193 1412L2254 1418M2397 1366L2419 1428M2397 1366L2505 1388M2419 1428L2505 1388"/></svg>