<svg xmlns="http://www.w3.org/2000/svg" width="2560" height="1440" fill="#fff"><circle cx="78" cy="56" r="6"/><circle cx="97" cy="12" r="5"/><circle cx="179" cy="11" r="5"/><circle cx="272" cy="13" r="5"/><circle cx="323" cy="54" r="5"/><circle cx="460" cy="67" r="5"/><circle cx="559" cy="60" r="5"/><circle cx="561" cy="12" r="4"/><circle cx="670" cy="15" r="6"/><circle cx="732" cy="3" r="5"/><circle cx="732" cy="1443" r="5"/><circle cx="877" cy="78" r="5"/><circle cx="893" cy="27" r="5"/><circle cx="1037" cy="26" r="5"/><circle cx="1088" cy="74" r="5"/><circle cx="1199" cy="24" r="6"/><circle cx="1274" cy="76" r="4"/><circle cx="1344" cy="67" r="4"/><circle cx="1438" cy="74" r="5"/><circle cx="1516" cy="70" r="5"/><circle cx="1547" cy="79" r="5"/><circle cx="1647" cy="2" r="5"/><circle cx="1647" cy="1442" r="5"/><circle cx="1709" cy="13" r="5"/><circle cx="1831" cy="23" r="5"/><circle cx="1889" cy="66" r="6"/><circle cx="1953" cy="26" r="6"/><circle cx="2036" cy="51" r="5"/><circle cx="2146" cy="43" r="6"/><circle cx="2178" cy="15" r="5"/><circle cx="2259" cy="34" r="6"/><circle cx="2349" cy="57" r="5"/><circle cx="2425" cy="64" r="4"/><circle cx="2526" cy="45" r="5"/><circle cx="58" cy="110" r="5"/><circle cx="119" cy="137" r="6"/><circle cx="221" cy="148" r="5"/><circle cx="301" cy="155" r="6"/><circle cx="362" cy="86" r="5"/><circle cx="409" cy="129" r="5"/><circle cx="494" cy="115" r="6"/><circle cx="570" cy="128" r="5"/><circle cx="658" cy="95" r="5"/><circle cx="726" cy="91" r="6"/><circle cx="810" cy="129" r="5"/><circle cx="932" cy="102" r="5"/><circle cx="982" cy="124" r="5"/><circle cx="1107" cy="160" r="4"/><circle cx="1139" cy="87" r="5"/><circle cx="1272" cy="157" r="6"/><circle cx="1357" cy="80" r="6"/><circle cx="1394" cy="145" r="5"/><circle cx="1462" cy="84" r="5"/><circle cx="1580" cy="96" r="4"/><circle cx="1610" cy="114" r="5"/><circle cx="1711" cy="122" r="5"/><circle cx="1836" cy="121" r="4"/><circle cx="1919" cy="135" r="5"/><circle cx="1948" cy="105" r="6"/><circle cx="2011" cy="114" r="4"/><circle cx="2104" cy="134" r="4"/><circle cx="2167" cy="105" r="4"/><circle cx="2298" cy="130" r="5"/><circle cx="2379" cy="91" r="6"/><circle cx="2416" cy="103" r="4"/><circle cx="2530" cy="121" r="5"/><circle cx="45" cy="238" r="5"/><circle cx="134" cy="204" r="5"/><circle cx="208" cy="184" r="4"/><circle cx="288" cy="236" r="5"/><circle cx="345" cy="238" r="4"/><circle cx="433" cy="168" r="5"/><circle cx="533" cy="169" r="5"/><circle cx="573" cy="178" r="4"/><circle cx="650" cy="238" r="4"/><circle cx="734" cy="185" r="5"/><circle cx="827" cy="237" r="4"/><circle cx="957" cy="211" r="4"/><circle cx="975" cy="173" r="5"/><circle cx="1042" cy="201" r="4"/><circle cx="1196" cy="163" r="5"/><circle cx="1211" cy="234" r="5"/><circle cx="1350" cy="165" r="5"/><circle cx="1360" cy="222" r="6"/><circle cx="1520" cy="193" r="6"/><circle cx="1575" cy="229" r="4"/><circle cx="1643" cy="180" r="4"/><circle cx="1683" cy="206" r="4"/><circle cx="1779" cy="185" r="4"/><circle cx="1914" cy="201" r="6"/><circle cx="1924" cy="181" r="5"/><circle cx="2020" cy="204" r="5"/><circle cx="2113" cy="172" r="6"/><circle cx="2202" cy="208" r="6"/><circle cx="2297" cy="165" r="5"/><circle cx="2354" cy="214" r="5"/><circle cx="2418" cy="171" r="4"/><circle cx="2485" cy="175" r="4"/><circle cx="49" cy="303" r="5"/><circle cx="84" cy="254" r="4"/><circle cx="162" cy="286" r="4"/><circle cx="314" cy="315" r="5"/><circle cx="395" cy="306" r="5"/><circle cx="441" cy="294" r="6"/><circle cx="535" cy="257" r="5"/><circle cx="621" cy="305" r="4"/><circle cx="651" cy="255" r="5"/><circle cx="749" cy="316" r="4"/><circle cx="804" cy="278" r="5"/><circle cx="940" cy="316" r="5"/><circle cx="963" cy="287" r="6"/><circle cx="1085" cy="296" r="4"/><circle cx="1156" cy="318" r="5"/><circle cx="1235" cy="291" r="5"/><circle cx="1321" cy="304" r="6"/><circle cx="1371" cy="261" r="5"/><circle cx="1519" cy="252" r="5"/><circle cx="1551" cy="254" r="4"/><circle cx="1610" cy="279" r="5"/><circle cx="1757" cy="267" r="5"/><circle cx="1812" cy="273" r="6"/><circle cx="1917" cy="296" r="5"/><circle cx="1931" cy="267" r="5"/><circle cx="2012" cy="313" r="5"/><circle cx="2112" cy="318" r="6"/><circle cx="2228" cy="273" r="4"/><circle cx="2293" cy="264" r="6"/><circle cx="2365" cy="241" r="5"/><circle cx="2433" cy="241" r="6"/><circle cx="2487" cy="315" r="4"/><circle cx="44" cy="322" r="5"/><circle cx="108" cy="363" r="6"/><circle cx="208" cy="375" r="5"/><circle cx="251" cy="325" r="5"/><circle cx="326" cy="368" r="6"/><circle cx="480" cy="354" r="6"/><circle cx="509" cy="365" r="5"/><circle cx="613" cy="329" r="6"/><circle cx="717" cy="364" r="4"/><circle cx="770" cy="321" r="6"/><circle cx="804" cy="333" r="6"/><circle cx="896" cy="377" r="4"/><circle cx="986" cy="400" r="5"/><circle cx="1060" cy="325" r="6"/><circle cx="1125" cy="361" r="5"/><circle cx="1246" cy="397" r="5"/><circle cx="1344" cy="386" r="5"/><circle cx="1430" cy="371" r="5"/><circle cx="1512" cy="341" r="5"/><circle cx="1584" cy="347" r="5"/><circle cx="1650" cy="332" r="6"/><circle cx="1711" cy="386" r="5"/><circle cx="1777" cy="336" r="6"/><circle cx="1842" cy="378" r="5"/><circle cx="1966" cy="338" r="4"/><circle cx="2042" cy="362" r="4"/><circle cx="2113" cy="336" r="5"/><circle cx="2173" cy="322" r="5"/><circle cx="2259" cy="326" r="4"/><circle cx="2325" cy="397" r="5"/><circle cx="2433" cy="357" r="5"/><circle cx="2545" cy="328" r="5"/><circle cx="49" cy="460" r="5"/><circle cx="84" cy="420" r="5"/><circle cx="164" cy="449" r="5"/><circle cx="308" cy="477" r="6"/><circle cx="396" cy="468" r="6"/><circle cx="434" cy="423" r="5"/><circle cx="554" cy="427" r="4"/><circle cx="618" cy="478" r="5"/><circle cx="704" cy="443" r="5"/><circle cx="742" cy="424" r="5"/><circle cx="854" cy="461" r="5"/><circle cx="885" cy="461" r="4"/><circle cx="997" cy="426" r="5"/><circle cx="1101" cy="445" r="4"/><circle cx="1149" cy="430" r="5"/><circle cx="1210" cy="442" r="6"/><circle cx="1351" cy="402" r="5"/><circle cx="1396" cy="409" r="6"/><circle cx="1514" cy="407" r="5"/><circle cx="1529" cy="474" r="6"/><circle cx="1628" cy="452" r="5"/><circle cx="1734" cy="442" r="5"/><circle cx="1787" cy="455" r="6"/><circle cx="1919" cy="453" r="4"/><circle cx="1987" cy="421" r="4"/><circle cx="2014" cy="464" r="6"/><circle cx="2152" cy="470" r="5"/><circle cx="2229" cy="404" r="5"/><circle cx="2304" cy="461" r="5"/><circle cx="2330" cy="450" r="5"/><circle cx="2430" cy="466" r="5"/><circle cx="2530" cy="449" r="4"/><circle cx="19" cy="524" r="5"/><circle cx="143" cy="481" r="5"/><circle cx="212" cy="528" r="6"/><circle cx="306" cy="523" r="4"/><circle cx="384" cy="481" r="5"/><circle cx="451" cy="536" r="5"/><circle cx="547" cy="503" r="4"/><circle cx="575" cy="514" r="5"/><circle cx="700" cy="498" r="6"/><circle cx="742" cy="493" r="4"/><circle cx="849" cy="554" r="4"/><circle cx="915" cy="496" r="5"/><circle cx="1018" cy="485" r="5"/><circle cx="1105" cy="484" r="4"/><circle cx="1194" cy="522" r="5"/><circle cx="1203" cy="495" r="5"/><circle cx="1316" cy="496" r="5"/><circle cx="1407" cy="522" r="4"/><circle cx="1477" cy="535" r="5"/><circle cx="1554" cy="538" r="6"/><circle cx="1673" cy="502" r="5"/><circle cx="1746" cy="487" r="5"/><circle cx="1782" cy="557" r="6"/><circle cx="1920" cy="526" r="5"/><circle cx="1921" cy="482" r="5"/><circle cx="2028" cy="490" r="6"/><circle cx="2104" cy="554" r="6"/><circle cx="2166" cy="532" r="5"/><circle cx="2279" cy="489" r="6"/><circle cx="2390" cy="526" r="6"/><circle cx="2467" cy="558" r="5"/><circle cx="2533" cy="545" r="5"/><circle cx="62" cy="585" r="5"/><circle cx="154" cy="576" r="4"/><circle cx="223" cy="607" r="5"/><circle cx="308" cy="629" r="4"/><circle cx="368" cy="568" r="4"/><circle cx="467" cy="622" r="4"/><circle cx="532" cy="614" r="4"/><circle cx="618" cy="612" r="4"/><circle cx="701" cy="612" r="5"/><circle cx="759" cy="629" r="5"/><circle cx="830" cy="565" r="4"/><circle cx="960" cy="591" r="6"/><circle cx="979" cy="569" r="4"/><circle cx="1114" cy="584" r="5"/><circle cx="1156" cy="581" r="5"/><circle cx="1266" cy="579" r="5"/><circle cx="1299" cy="568" r="5"/><circle cx="1369" cy="598" r="4"/><circle cx="1494" cy="621" r="5"/><circle cx="1532" cy="573" r="5"/><circle cx="1612" cy="612" r="5"/><circle cx="1682" cy="585" r="5"/><circle cx="1771" cy="570" r="4"/><circle cx="1881" cy="627" r="4"/><circle cx="1965" cy="600" r="5"/><circle cx="2018" cy="585" r="5"/><circle cx="2120" cy="584" r="5"/><circle cx="2239" cy="626" r="4"/><circle cx="2307" cy="583" r="4"/><circle cx="2367" cy="620" r="5"/><circle cx="2405" cy="621" r="4"/><circle cx="2559" cy="569" r="5"/><circle cx="-1" cy="569" r="5"/><circle cx="33" cy="701" r="6"/><circle cx="123" cy="719" r="6"/><circle cx="182" cy="641" r="5"/><circle cx="315" cy="679" r="5"/><circle cx="390" cy="686" r="5"/><circle cx="432" cy="665" r="6"/><circle cx="548" cy="706" r="4"/><circle cx="625" cy="694" r="4"/><circle cx="671" cy="659" r="6"/><circle cx="725" cy="675" r="4"/><circle cx="805" cy="696" r="5"/><circle cx="901" cy="692" r="6"/><circle cx="1000" cy="674" r="4"/><circle cx="1049" cy="683" r="5"/><circle cx="1182" cy="695" r="4"/><circle cx="1233" cy="652" r="5"/><circle cx="1303" cy="709" r="6"/><circle cx="1437" cy="644" r="6"/><circle cx="1492" cy="654" r="4"/><circle cx="1536" cy="675" r="4"/><circle cx="1626" cy="714" r="5"/><circle cx="1682" cy="690" r="5"/><circle cx="1839" cy="706" r="6"/><circle cx="1858" cy="667" r="5"/><circle cx="1964" cy="712" r="5"/><circle cx="2059" cy="714" r="4"/><circle cx="2081" cy="699" r="5"/><circle cx="2220" cy="658" r="5"/><circle cx="2297" cy="679" r="5"/><circle cx="2380" cy="704" r="6"/><circle cx="2412" cy="709" r="6"/><circle cx="2554" cy="661" r="6"/><circle cx="26" cy="756" r="4"/><circle cx="116" cy="741" r="4"/><circle cx="165" cy="799" r="4"/><circle cx="314" cy="799" r="5"/><circle cx="374" cy="740" r="5"/><circle cx="468" cy="778" r="4"/><circle cx="538" cy="736" r="5"/><circle cx="638" cy="799" r="5"/><circle cx="644" cy="789" r="5"/><circle cx="779" cy="756" r="5"/><circle cx="877" cy="789" r="5"/><circle cx="932" cy="783" r="5"/><circle cx="1004" cy="769" r="5"/><circle cx="1117" cy="751" r="6"/><circle cx="1176" cy="750" r="5"/><circle cx="1232" cy="744" r="4"/><circle cx="1285" cy="720" r="6"/><circle cx="1432" cy="742" r="5"/><circle cx="1480" cy="727" r="5"/><circle cx="1583" cy="759" r="5"/><circle cx="1663" cy="764" r="5"/><circle cx="1712" cy="786" r="5"/><circle cx="1801" cy="725" r="5"/><circle cx="1849" cy="728" r="5"/><circle cx="1989" cy="759" r="4"/><circle cx="2065" cy="746" r="5"/><circle cx="2139" cy="769" r="5"/><circle cx="2176" cy="760" r="6"/><circle cx="2314" cy="723" r="4"/><circle cx="2393" cy="777" r="6"/><circle cx="2400" cy="721" r="5"/><circle cx="2489" cy="725" r="5"/><circle cx="49" cy="804" r="4"/><circle cx="128" cy="867" r="6"/><circle cx="169" cy="865" r="4"/><circle cx="302" cy="829" r="5"/><circle cx="320" cy="838" r="5"/><circle cx="471" cy="849" r="5"/><circle cx="509" cy="843" r="5"/><circle cx="592" cy="836" r="6"/><circle cx="641" cy="813" r="5"/><circle cx="754" cy="812" r="4"/><circle cx="880" cy="844" r="6"/><circle cx="888" cy="829" r="6"/><circle cx="1039" cy="841" r="5"/><circle cx="1060" cy="845" r="6"/><circle cx="1167" cy="866" r="5"/><circle cx="1230" cy="846" r="4"/><circle cx="1348" cy="831" r="6"/><circle cx="1427" cy="855" r="4"/><circle cx="1497" cy="814" r="5"/><circle cx="1527" cy="846" r="4"/><circle cx="1673" cy="804" r="4"/><circle cx="1702" cy="872" r="5"/><circle cx="1768" cy="831" r="5"/><circle cx="1865" cy="820" r="5"/><circle cx="1927" cy="870" r="5"/><circle cx="2018" cy="836" r="5"/><circle cx="2144" cy="824" r="6"/><circle cx="2179" cy="821" r="6"/><circle cx="2292" cy="821" r="5"/><circle cx="2377" cy="866" r="5"/><circle cx="2452" cy="873" r="5"/><circle cx="2483" cy="869" r="4"/><circle cx="60" cy="917" r="6"/><circle cx="132" cy="917" r="4"/><circle cx="168" cy="950" r="5"/><circle cx="310" cy="932" r="5"/><circle cx="393" cy="882" r="5"/><circle cx="411" cy="951" r="4"/><circle cx="512" cy="922" r="5"/><circle cx="604" cy="897" r="5"/><circle cx="653" cy="893" r="4"/><circle cx="768" cy="915" r="6"/><circle cx="813" cy="911" r="6"/><circle cx="945" cy="903" r="4"/><circle cx="1009" cy="899" r="5"/><circle cx="1069" cy="943" r="6"/><circle cx="1188" cy="891" r="5"/><circle cx="1269" cy="887" r="5"/><circle cx="1315" cy="919" r="6"/><circle cx="1405" cy="953" r="5"/><circle cx="1448" cy="947" r="6"/><circle cx="1580" cy="952" r="4"/><circle cx="1616" cy="931" r="5"/><circle cx="1740" cy="912" r="6"/><circle cx="1802" cy="912" r="5"/><circle cx="1867" cy="949" r="5"/><circle cx="1950" cy="911" r="5"/><circle cx="2062" cy="921" r="6"/><circle cx="2093" cy="945" r="5"/><circle cx="2182" cy="896" r="5"/><circle cx="2284" cy="918" r="5"/><circle cx="2368" cy="895" r="4"/><circle cx="2417" cy="946" r="6"/><circle cx="2557" cy="935" r="6"/><circle cx="-3" cy="935" r="6"/><circle cx="70" cy="1020" r="5"/><circle cx="102" cy="1019" r="4"/><circle cx="211" cy="1020" r="6"/><circle cx="304" cy="967" r="6"/><circle cx="345" cy="982" r="6"/><circle cx="468" cy="996" r="4"/><circle cx="553" cy="1007" r="5"/><circle cx="581" cy="1028" r="5"/><circle cx="666" cy="978" r="4"/><circle cx="788" cy="996" r="4"/><circle cx="848" cy="1002" r="5"/><circle cx="881" cy="990" r="5"/><circle cx="996" cy="1035" r="5"/><circle cx="1084" cy="1021" r="5"/><circle cx="1151" cy="974" r="6"/><circle cx="1273" cy="1012" r="4"/><circle cx="1297" cy="974" r="4"/><circle cx="1434" cy="1020" r="6"/><circle cx="1508" cy="986" r="5"/><circle cx="1593" cy="1038" r="6"/><circle cx="1636" cy="992" r="5"/><circle cx="1714" cy="1027" r="4"/><circle cx="1763" cy="1037" r="4"/><circle cx="1873" cy="1024" r="4"/><circle cx="1927" cy="1004" r="5"/><circle cx="2015" cy="1019" r="4"/><circle cx="2099" cy="993" r="5"/><circle cx="2172" cy="1004" r="5"/><circle cx="2288" cy="1024" r="5"/><circle cx="2345" cy="966" r="4"/><circle cx="2479" cy="1014" r="5"/><circle cx="2549" cy="1004" r="5"/><circle cx="60" cy="1054" r="5"/><circle cx="118" cy="1088" r="6"/><circle cx="186" cy="1089" r="5"/><circle cx="260" cy="1052" r="6"/><circle cx="360" cy="1094" r="4"/><circle cx="409" cy="1087" r="6"/><circle cx="513" cy="1103" r="4"/><circle cx="633" cy="1090" r="5"/><circle cx="717" cy="1096" r="5"/><circle cx="742" cy="1076" r="5"/><circle cx="804" cy="1108" r="6"/><circle cx="920" cy="1042" r="5"/><circle cx="982" cy="1112" r="5"/><circle cx="1070" cy="1052" r="5"/><circle cx="1194" cy="1085" r="4"/><circle cx="1203" cy="1072" r="6"/><circle cx="1293" cy="1077" r="6"/><circle cx="1410" cy="1111" r="4"/><circle cx="1470" cy="1084" r="5"/><circle cx="1531" cy="1050" r="6"/><circle cx="1613" cy="1084" r="4"/><circle cx="1684" cy="1065" r="6"/><circle cx="1804" cy="1108" r="5"/><circle cx="1864" cy="1061" r="5"/><circle cx="1999" cy="1056" r="4"/><circle cx="2028" cy="1075" r="5"/><circle cx="2145" cy="1070" r="4"/><circle cx="2223" cy="1061" r="6"/><circle cx="2255" cy="1112" r="6"/><circle cx="2339" cy="1060" r="4"/><circle cx="2407" cy="1092" r="5"/><circle cx="2543" cy="1056" r="4"/><circle cx="13" cy="1190" r="5"/><circle cx="120" cy="1155" r="5"/><circle cx="168" cy="1183" r="5"/><circle cx="250" cy="1147" r="5"/><circle cx="331" cy="1146" r="5"/><circle cx="477" cy="1137" r="4"/><circle cx="487" cy="1135" r="5"/><circle cx="588" cy="1125" r="6"/><circle cx="643" cy="1138" r="4"/><circle cx="788" cy="1137" r="5"/><circle cx="827" cy="1174" r="5"/><circle cx="902" cy="1132" r="6"/><circle cx="999" cy="1123" r="6"/><circle cx="1057" cy="1149" r="5"/><circle cx="1191" cy="1157" r="5"/><circle cx="1258" cy="1164" r="4"/><circle cx="1305" cy="1133" r="6"/><circle cx="1434" cy="1193" r="5"/><circle cx="1501" cy="1137" r="5"/><circle cx="1583" cy="1175" r="4"/><circle cx="1666" cy="1192" r="6"/><circle cx="1711" cy="1181" r="4"/><circle cx="1824" cy="1137" r="6"/><circle cx="1899" cy="1151" r="4"/><circle cx="1946" cy="1161" r="5"/><circle cx="2023" cy="1156" r="6"/><circle cx="2129" cy="1169" r="6"/><circle cx="2228" cy="1170" r="6"/><circle cx="2256" cy="1140" r="6"/><circle cx="2333" cy="1151" r="5"/><circle cx="2444" cy="1153" r="5"/><circle cx="2553" cy="1189" r="5"/><circle cx="67" cy="1243" r="4"/><circle cx="90" cy="1265" r="5"/><circle cx="193" cy="1224" r="4"/><circle cx="281" cy="1269" r="6"/><circle cx="340" cy="1218" r="4"/><circle cx="404" cy="1255" r="5"/><circle cx="515" cy="1208" r="5"/><circle cx="636" cy="1259" r="5"/><circle cx="648" cy="1215" r="5"/><circle cx="782" cy="1203" r="6"/><circle cx="817" cy="1265" r="5"/><circle cx="958" cy="1229" r="4"/><circle cx="1007" cy="1207" r="6"/><circle cx="1064" cy="1224" r="5"/><circle cx="1155" cy="1248" r="5"/><circle cx="1262" cy="1235" r="6"/><circle cx="1297" cy="1202" r="5"/><circle cx="1398" cy="1231" r="5"/><circle cx="1491" cy="1267" r="5"/><circle cx="1548" cy="1234" r="5"/><circle cx="1678" cy="1218" r="5"/><circle cx="1724" cy="1234" r="6"/><circle cx="1807" cy="1249" r="6"/><circle cx="1913" cy="1217" r="4"/><circle cx="1984" cy="1268" r="6"/><circle cx="2054" cy="1250" r="5"/><circle cx="2119" cy="1227" r="6"/><circle cx="2175" cy="1201" r="5"/><circle cx="2292" cy="1239" r="4"/><circle cx="2324" cy="1204" r="5"/><circle cx="2460" cy="1275" r="6"/><circle cx="2499" cy="1217" r="4"/><circle cx="49" cy="1307" r="5"/><circle cx="113" cy="1334" r="6"/><circle cx="234" cy="1313" r="4"/><circle cx="304" cy="1320" r="5"/><circle cx="370" cy="1323" r="4"/><circle cx="417" cy="1280" r="5"/><circle cx="491" cy="1329" r="5"/><circle cx="630" cy="1320" r="5"/><circle cx="668" cy="1341" r="6"/><circle cx="750" cy="1353" r="6"/><circle cx="876" cy="1284" r="6"/><circle cx="947" cy="1300" r="5"/><circle cx="1027" cy="1305" r="4"/><circle cx="1111" cy="1317" r="4"/><circle cx="1180" cy="1309" r="5"/><circle cx="1228" cy="1346" r="4"/><circle cx="1351" cy="1294" r="5"/><circle cx="1438" cy="1350" r="5"/><circle cx="1504" cy="1326" r="5"/><circle cx="1553" cy="1324" r="5"/><circle cx="1660" cy="1297" r="5"/><circle cx="1742" cy="1322" r="6"/><circle cx="1812" cy="1280" r="5"/><circle cx="1884" cy="1319" r="5"/><circle cx="1929" cy="1356" r="5"/><circle cx="2021" cy="1299" r="5"/><circle cx="2121" cy="1346" r="4"/><circle cx="2196" cy="1330" r="6"/><circle cx="2300" cy="1292" r="5"/><circle cx="2334" cy="1327" r="5"/><circle cx="2412" cy="1306" r="4"/><circle cx="2542" cy="1316" r="6"/><circle cx="66" cy="1381" r="4"/><circle cx="142" cy="1440" r="4"/><circle cx="142" cy="-0" r="4"/><circle cx="222" cy="1400" r="6"/><circle cx="278" cy="1413" r="6"/><circle cx="340" cy="1405" r="5"/><circle cx="414" cy="1368" r="6"/><circle cx="514" cy="1434" r="4"/><circle cx="578" cy="1380" r="5"/><circle cx="643" cy="1431" r="5"/><circle cx="798" cy="1435" r="4"/><circle cx="856" cy="1422" r="6"/><circle cx="884" cy="1431" r="5"/><circle cx="1030" cy="1372" r="5"/><circle cx="1057" cy="1434" r="6"/><circle cx="1127" cy="1404" r="5"/><circle cx="1252" cy="1438" r="6"/><circle cx="1252" cy="-2" r="6"/><circle cx="1345" cy="1431" r="5"/><circle cx="1421" cy="1402" r="4"/><circle cx="1487" cy="1410" r="4"/><circle cx="1542" cy="1428" r="6"/><circle cx="1615" cy="1406" r="4"/><circle cx="1717" cy="1361" r="4"/><circle cx="1829" cy="1436" r="5"/><circle cx="1829" cy="-4" r="5"/><circle cx="1899" cy="1393" r="6"/><circle cx="1995" cy="1425" r="5"/><circle cx="2051" cy="1364" r="4"/><circle cx="2160" cy="1376" r="6"/><circle cx="2211" cy="1431" r="4"/><circle cx="2280" cy="1410" r="5"/><circle cx="2376" cy="1361" r="4"/><circle cx="2453" cy="1377" r="5"/><circle cx="2497" cy="1440" r="6"/><circle cx="2497" cy="-0" r="6"/><path stroke="#fff" d="M78 56L97 12M78 56L-34 45M78 56L58 110M78 56L119 137M78 56L142 -0M2638 56L2526 45M78 1496L142 1440M97 12L179 11M97 12L58 110M97 12L66 -59M97 12L142 -0M97 1452L66 1381M97 1452L142 1440M179 11L272 13M179 11L142 -0M179 11L222 -40M179 1451L142 1440M179 1451L222 1400M272 13L323 54M272 13L222 -40M272 13L278 -27M272 13L340 -35M272 1453L222 1400M272 1453L278 1413M272 1453L340 1405M323 54L301 155M323 54L362 86M323 54L278 -27M323 54L340 -35M323 1494L278 1413M323 1494L340 1405M460 67L559 60M460 67L362 86M460 67L409 129M460 67L494 115M460 67L514 -6M460 1507L514 1434M559 60L561 12M559 60L570 128M559 60L514 -6M559 1500L514 1434M561 12L514 -6M561 12L578 -60M561 12L643 -9M561 1452L514 1434M561 1452L578 1380M561 1452L643 1431M670 15L732 3M670 15L658 95M670 15L726 91M670 15L643 -9M670 1455L643 1431M732 3L726 91M732 3L750 -87M732 3L643 -9M732 3L798 -5M732 1443L750 1353M732 1443L643 1431M732 1443L798 1435M877 78L893 27M877 78L810 129M877 78L932 102M877 78L856 -18M877 78L884 -9M877 1518L856 1422M877 1518L884 1431M893 27L932 102M893 27L798 -5M893 27L856 -18M893 27L884 -9M893 1467L798 1435M893 1467L856 1422M893 1467L884 1431M1037 26L1088 74M1037 26L982 124M1037 26L1030 -68M1037 26L1057 -6M1037 1466L1030 1372M1037 1466L1057 1434M1088 74L1199 24M1088 74L1107 160M1088 74L1139 87M1088 74L1057 -6M1088 1514L1057 1434M1199 24L1274 76M1199 24L1139 87M1199 24L1127 -36M1199 24L1252 -2M1199 1464L1127 1404M1199 1464L1252 1438M1274 76L1344 67M1274 76L1272 157M1274 76L1252 -2M1274 1516L1252 1438M1344 67L1438 74M1344 67L1357 80M1344 67L1345 -9M1344 1507L1345 1431M1438 74L1516 70M1438 74L1357 80M1438 74L1394 145M1438 74L1462 84M1516 70L1547 79M1516 70L1462 84M1516 70L1580 96M1516 70L1542 -12M1516 1510L1542 1428M1547 79L1462 84M1547 79L1580 96M1547 79L1610 114M1547 79L1542 -12M1547 1519L1542 1428M1647 2L1709 13M1647 2L1615 -34M1647 2L1717 -79M1647 1442L1615 1406M1647 1442L1717 1361M1709 13L1711 122M1709 13L1615 -34M1709 13L1717 -79M1709 13L1829 -4M1709 1453L1615 1406M1709 1453L1717 1361M1709 1453L1829 1436M1831 23L1889 66M1831 23L1836 121M1831 23L1829 -4M1831 23L1899 -47M1831 1463L1829 1436M1831 1463L1899 1393M1889 66L1953 26M1889 66L1836 121M1889 66L1919 135M1889 66L1948 105M1953 26L2036 51M1953 26L1948 105M1953 26L1899 -47M1953 26L1995 -15M1953 1466L1899 1393M1953 1466L1995 1425M2036 51L2011 114M2036 51L1995 -15M2036 1491L1995 1425M2146 43L2178 15M2146 43L2167 105M2146 43L2160 -64M2146 43L2211 -9M2146 1483L2160 1376M2146 1483L2211 1431M2178 15L2259 34M2178 15L2167 105M2178 15L2160 -64M2178 15L2211 -9M2178 1455L2160 1376M2178 1455L2211 1431M2259 34L2349 57M2259 34L2298 130M2259 34L2211 -9M2259 34L2280 -30M2259 1474L2211 1431M2259 1474L2280 1410M2349 57L2425 64M2349 57L2298 130M2349 57L2379 91M2349 57L2416 103M2425 64L2526 45M2425 64L2379 91M2425 64L2416 103M2425 64L2497 -0M2425 1504L2497 1440M2526 45L2618 110M2526 45L2530 121M2526 45L2497 -0M-34 45L58 110M2526 1485L2497 1440M58 110L119 137M58 110L-30 121M2618 110L2530 121M119 137L221 148M119 137L134 204M119 137L208 184M221 148L301 155M221 148L208 184M301 155L362 86M301 155L288 236M301 155L345 238M362 86L409 129M362 86L433 168M409 129L494 115M409 129L433 168M494 115L570 128M494 115L433 168M494 115L533 169M570 128L658 95M570 128L533 169M570 128L573 178M658 95L726 91M726 91L810 129M726 91L734 185M810 129L734 185M810 129L827 237M932 102L982 124M932 102L975 173M932 102L884 -9M932 1542L884 1431M982 124L957 211M982 124L975 173M982 124L1042 201M1107 160L1139 87M1107 160L1042 201M1107 160L1196 163M1139 87L1196 163M1139 87L1057 -6M1139 1527L1057 1434M1272 157L1196 163M1272 157L1211 234M1272 157L1350 165M1272 157L1360 222M1357 80L1394 145M1357 80L1350 165M1357 80L1345 -9M1357 1520L1345 1431M1394 145L1462 84M1394 145L1350 165M1394 145L1360 222M1580 96L1610 114M1610 114L1711 122M1610 114L1520 193M1610 114L1643 180M1711 122L1643 180M1711 122L1683 206M1711 122L1779 185M1836 121L1919 135M1836 121L1779 185M1919 135L1948 105M1919 135L1914 201M1919 135L1924 181M1948 105L2011 114M1948 105L1924 181M2011 114L2104 134M2011 114L2020 204M2011 114L2113 172M2104 134L2167 105M2104 134L2113 172M2167 105L2113 172M2167 105L2202 208M2298 130L2379 91M2298 130L2297 165M2379 91L2416 103M2379 91L2418 171M2416 103L2418 171M2416 103L2485 175M2530 121L2485 175M2530 121L2497 -0M2530 1561L2497 1440M45 238L134 204M45 238L49 303M45 238L84 254M45 238L44 322M45 238L-15 328M2605 238L2545 328M134 204L208 184M134 204L84 254M134 204L162 286M208 184L288 236M288 236L345 238M288 236L314 315M288 236L251 325M345 238L314 315M345 238L395 306M345 238L441 294M433 168L533 169M533 169L573 178M533 169L535 257M573 178L650 238M573 178L535 257M573 178L651 255M650 238L734 185M650 238L621 305M650 238L651 255M650 238L613 329M734 185L651 255M734 185L804 278M827 237L804 278M827 237L804 333M957 211L975 173M957 211L1042 201M957 211L940 316M957 211L963 287M975 173L1042 201M975 173L963 287M1196 163L1211 234M1211 234L1156 318M1211 234L1235 291M1350 165L1360 222M1350 165L1371 261M1360 222L1321 304M1360 222L1371 261M1520 193L1575 229M1520 193L1519 252M1520 193L1551 254M1575 229L1643 180M1575 229L1519 252M1575 229L1551 254M1575 229L1610 279M1643 180L1683 206M1683 206L1779 185M1683 206L1757 267M1779 185L1757 267M1779 185L1812 273M1914 201L1924 181M1914 201L2020 204M1914 201L1917 296M1914 201L1931 267M1924 181L2020 204M1924 181L1931 267M2020 204L2113 172M2113 172L2202 208M2202 208L2297 165M2202 208L2228 273M2202 208L2293 264M2297 165L2354 214M2297 165L2365 241M2354 214L2418 171M2354 214L2293 264M2354 214L2365 241M2354 214L2433 241M2418 171L2485 175M2418 171L2433 241M2485 175L2433 241M49 303L84 254M49 303L44 322M49 303L108 363M49 303L-15 328M2609 303L2545 328M84 254L162 286M84 254L44 322M162 286L108 363M162 286L208 375M162 286L251 325M314 315L395 306M314 315L251 325M314 315L326 368M395 306L441 294M395 306L326 368M395 306L480 354M441 294L535 257M441 294L480 354M441 294L509 365M535 257L613 329M621 305L651 255M621 305L613 329M651 255L613 329M749 316L804 278M749 316L717 364M749 316L770 321M749 316L804 333M804 278L770 321M804 278L804 333M940 316L963 287M940 316L896 377M940 316L986 400M963 287L1060 325M1085 296L1156 318M1085 296L1060 325M1085 296L1125 361M1156 318L1235 291M1156 318L1060 325M1156 318L1125 361M1235 291L1321 304M1235 291L1246 397M1321 304L1371 261M1321 304L1344 386M1321 304L1351 402M1519 252L1551 254M1519 252L1610 279M1519 252L1512 341M1551 254L1610 279M1551 254L1584 347M1610 279L1584 347M1610 279L1650 332M1757 267L1812 273M1757 267L1650 332M1757 267L1777 336M1812 273L1917 296M1812 273L1777 336M1812 273L1842 378M1917 296L1931 267M1917 296L2012 313M1917 296L1966 338M1931 267L2012 313M1931 267L1966 338M2012 313L2112 318M2012 313L1966 338M2012 313L2042 362M2112 318L2228 273M2112 318L2042 362M2112 318L2113 336M2112 318L2173 322M2228 273L2293 264M2228 273L2173 322M2228 273L2259 326M2293 264L2365 241M2293 264L2259 326M2365 241L2433 241M2433 241L2487 315M2487 315L2433 357M2487 315L2545 328M44 322L108 363M44 322L-15 328M2604 322L2545 328M108 363L84 420M108 363L164 449M208 375L251 325M208 375L164 449M251 325L326 368M326 368L308 477M480 354L509 365M480 354L434 423M480 354L554 427M509 365L613 329M509 365L434 423M509 365L554 427M717 364L770 321M717 364L804 333M717 364L704 443M717 364L742 424M770 321L804 333M770 321L742 424M896 377L986 400M896 377L854 461M896 377L885 461M896 377L997 426M986 400L1060 325M986 400L997 426M986 400L1018 485M1060 325L1125 361M1125 361L1101 445M1125 361L1149 430M1246 397L1344 386M1246 397L1210 442M1344 386L1430 371M1344 386L1351 402M1344 386L1396 409M1430 371L1512 341M1430 371L1351 402M1430 371L1396 409M1430 371L1514 407M1512 341L1584 347M1512 341L1514 407M1584 347L1650 332M1584 347L1514 407M1650 332L1711 386M1711 386L1777 336M1711 386L1628 452M1711 386L1734 442M1711 386L1787 455M1777 336L1842 378M1842 378L1787 455M1842 378L1919 453M1966 338L2042 362M2042 362L2113 336M2042 362L1987 421M2113 336L2173 322M2173 322L2259 326M2259 326L2325 397M2259 326L2229 404M2325 397L2229 404M2325 397L2304 461M2325 397L2330 450M2325 397L2279 489M2433 357L2545 328M2433 357L2430 466M49 460L84 420M49 460L-30 449M49 460L19 524M49 460L143 481M2609 460L2530 449M84 420L164 449M84 420L143 481M164 449L143 481M164 449L212 528M308 477L396 468M308 477L306 523M308 477L384 481M396 468L434 423M396 468L384 481M396 468L451 536M396 468L368 568M434 423L384 481M554 427L618 478M554 427L547 503M554 427L575 514M618 478L704 443M618 478L547 503M618 478L575 514M618 478L700 498M704 443L742 424M704 443L700 498M704 443L742 493M742 424L700 498M742 424L742 493M854 461L885 461M854 461L849 554M854 461L915 496M854 461L830 565M885 461L849 554M885 461L915 496M997 426L1018 485M1101 445L1149 430M1101 445L1210 442M1101 445L1018 485M1101 445L1105 484M1149 430L1210 442M1149 430L1105 484M1149 430L1203 495M1210 442L1194 522M1210 442L1203 495M1351 402L1396 409M1351 402L1316 496M1396 409L1514 407M1396 409L1316 496M1514 407L1529 474M1529 474L1628 452M1529 474L1477 535M1529 474L1554 538M1529 474L1532 573M1628 452L1734 442M1628 452L1673 502M1734 442L1787 455M1734 442L1673 502M1734 442L1746 487M1787 455L1746 487M1787 455L1782 557M1919 453L1987 421M1919 453L2014 464M1919 453L1920 526M1919 453L1921 482M1987 421L2014 464M1987 421L1921 482M1987 421L2028 490M2014 464L1920 526M2014 464L1921 482M2014 464L2028 490M2152 470L2229 404M2152 470L2104 554M2152 470L2166 532M2229 404L2304 461M2229 404L2279 489M2304 461L2330 450M2304 461L2279 489M2330 450L2430 466M2330 450L2279 489M2330 450L2390 526M2430 466L2530 449M2430 466L2390 526M2430 466L2467 558M2530 449L2579 524M2530 449L2533 545M-30 449L19 524M19 524L-27 545M19 524L62 585M19 524L-1 569M2579 524L2533 545M2579 524L2559 569M143 481L212 528M143 481L154 576M212 528L306 523M212 528L154 576M212 528L223 607M306 523L308 629M306 523L368 568M384 481L451 536M384 481L368 568M451 536L547 503M451 536L368 568M451 536L467 622M547 503L575 514M547 503L532 614M575 514L618 612M700 498L742 493M700 498L701 612M849 554L915 496M849 554L830 565M849 554L960 591M915 496L960 591M1018 485L1105 484M1018 485L979 569M1105 484L1114 584M1194 522L1203 495M1194 522L1114 584M1194 522L1156 581M1194 522L1266 579M1203 495L1156 581M1203 495L1266 579M1316 496L1407 522M1316 496L1266 579M1316 496L1299 568M1407 522L1477 535M1407 522L1369 598M1477 535L1554 538M1477 535L1494 621M1477 535L1532 573M1554 538L1532 573M1554 538L1612 612M1673 502L1746 487M1673 502L1782 557M1673 502L1682 585M1746 487L1782 557M1746 487L1771 570M1782 557L1682 585M1782 557L1771 570M1920 526L1921 482M1920 526L1965 600M1921 482L2028 490M2028 490L2104 554M2028 490L2018 585M2104 554L2166 532M2104 554L2018 585M2104 554L2120 584M2166 532L2120 584M2279 489L2307 583M2390 526L2467 558M2390 526L2367 620M2390 526L2405 621M2467 558L2533 545M2467 558L2405 621M2467 558L2559 569M2533 545L2622 585M2533 545L2559 569M-27 545L62 585M62 585L154 576M62 585L-1 569M62 585L-6 661M2622 585L2559 569M2622 585L2554 661M154 576L223 607M154 576L182 641M223 607L308 629M223 607L182 641M223 607L315 679M308 629L368 568M308 629L315 679M308 629L390 686M467 622L532 614M467 622L390 686M467 622L432 665M532 614L618 612M532 614L432 665M532 614L548 706M618 612L701 612M618 612L625 694M618 612L671 659M701 612L759 629M701 612L671 659M701 612L725 675M759 629L830 565M759 629L671 659M759 629L725 675M759 629L805 696M960 591L979 569M960 591L901 692M960 591L1000 674M979 569L1000 674M1114 584L1156 581M1114 584L1049 683M1266 579L1299 568M1266 579L1233 652M1299 568L1369 598M1369 598L1437 644M1494 621L1532 573M1494 621L1437 644M1494 621L1492 654M1494 621L1536 675M1532 573L1612 612M1612 612L1682 585M1612 612L1626 714M1682 585L1771 570M1682 585L1682 690M1881 627L1965 600M1881 627L1839 706M1881 627L1858 667M1881 627L1849 728M1965 600L2018 585M2018 585L2120 584M2239 626L2307 583M2239 626L2220 658M2239 626L2297 679M2307 583L2367 620M2307 583L2220 658M2367 620L2405 621M2367 620L2297 679M2405 621L2412 709M2559 569L2554 661M33 701L123 719M33 701L-6 661M33 701L26 756M33 701L116 741M33 701L49 804M2593 701L2554 661M123 719L182 641M123 719L26 756M123 719L116 741M123 719L165 799M315 679L390 686M315 679L432 665M315 679L374 740M390 686L432 665M390 686L374 740M432 665L374 740M548 706L625 694M548 706L468 778M548 706L538 736M625 694L671 659M625 694L538 736M625 694L644 789M671 659L725 675M725 675L805 696M725 675L779 756M805 696L901 692M805 696L779 756M901 692L1000 674M901 692L877 789M901 692L932 783M1000 674L1049 683M1000 674L1004 769M1049 683L1004 769M1049 683L1117 751M1182 695L1233 652M1182 695L1117 751M1182 695L1176 750M1182 695L1232 744M1182 695L1285 720M1233 652L1303 709M1233 652L1232 744M1233 652L1285 720M1303 709L1232 744M1303 709L1285 720M1303 709L1348 831M1437 644L1492 654M1437 644L1432 742M1437 644L1480 727M1492 654L1536 675M1492 654L1432 742M1492 654L1480 727M1536 675L1626 714M1536 675L1480 727M1536 675L1583 759M1626 714L1682 690M1626 714L1583 759M1626 714L1663 764M1682 690L1663 764M1682 690L1712 786M1839 706L1858 667M1839 706L1801 725M1839 706L1849 728M1858 667L1964 712M1858 667L1801 725M1858 667L1849 728M1964 712L2059 714M1964 712L1989 759M2059 714L2081 699M2059 714L1989 759M2059 714L2065 746M2081 699L1989 759M2081 699L2065 746M2081 699L2139 769M2081 699L2176 760M2220 658L2297 679M2220 658L2176 760M2297 679L2380 704M2297 679L2314 723M2380 704L2412 709M2380 704L2314 723M2380 704L2393 777M2380 704L2400 721M2412 709L2393 777M2412 709L2400 721M2412 709L2489 725M2554 661L2586 756M2554 661L2489 725M-6 661L26 756M26 756L116 741M26 756L49 804M116 741L165 799M116 741L49 804M165 799L128 867M165 799L169 865M314 799L374 740M314 799L302 829M314 799L320 838M374 740L468 778M468 778L538 736M468 778L471 849M468 778L509 843M638 799L644 789M638 799L592 836M638 799L641 813M638 799L604 897M638 799L653 893M644 789L592 836M644 789L641 813M779 756L877 789M779 756L754 812M877 789L932 783M877 789L880 844M877 789L888 829M932 783L1004 769M932 783L880 844M932 783L888 829M1004 769L1039 841M1004 769L1060 845M1117 751L1176 750M1117 751L1039 841M1117 751L1060 845M1176 750L1232 744M1176 750L1285 720M1176 750L1230 846M1232 744L1285 720M1432 742L1480 727M1432 742L1348 831M1432 742L1497 814M1480 727L1497 814M1583 759L1663 764M1583 759L1497 814M1583 759L1673 804M1663 764L1712 786M1663 764L1673 804M1712 786L1673 804M1712 786L1702 872M1712 786L1768 831M1801 725L1849 728M1801 725L1865 820M1849 728L1865 820M1989 759L2065 746M1989 759L2018 836M2065 746L2139 769M2065 746L2144 824M2139 769L2176 760M2139 769L2144 824M2139 769L2179 821M2176 760L2144 824M2176 760L2179 821M2314 723L2393 777M2314 723L2400 721M2314 723L2292 821M2393 777L2400 721M2393 777L2377 866M2400 721L2489 725M128 867L169 865M128 867L60 917M128 867L132 917M128 867L168 950M169 865L132 917M169 865L168 950M302 829L320 838M302 829L310 932M320 838L310 932M320 838L393 882M471 849L509 843M471 849L393 882M471 849L512 922M509 843L592 836M509 843L512 922M592 836L641 813M592 836L604 897M641 813L604 897M641 813L653 893M754 812L768 915M880 844L888 829M880 844L813 911M880 844L945 903M888 829L945 903M1039 841L1060 845M1039 841L1009 899M1039 841L1069 943M1060 845L1009 899M1060 845L1069 943M1167 866L1230 846M1167 866L1188 891M1167 866L1151 974M1230 846L1188 891M1230 846L1269 887M1348 831L1427 855M1348 831L1269 887M1348 831L1315 919M1427 855L1497 814M1427 855L1527 846M1427 855L1405 953M1427 855L1448 947M1497 814L1527 846M1673 804L1702 872M1702 872L1768 831M1702 872L1616 931M1702 872L1740 912M1768 831L1865 820M1768 831L1740 912M1768 831L1802 912M1865 820L1927 870M1865 820L1802 912M1927 870L2018 836M1927 870L1867 949M1927 870L1950 911M2018 836L1950 911M2018 836L2062 921M2144 824L2179 821M2144 824L2182 896M2179 821L2292 821M2179 821L2182 896M2292 821L2377 866M2292 821L2284 918M2377 866L2452 873M2377 866L2368 895M2377 866L2417 946M2452 873L2483 869M2452 873L2368 895M2452 873L2417 946M2483 869L2557 935M60 917L132 917M60 917L168 950M60 917L-3 935M60 917L70 1020M2620 917L2557 935M132 917L168 950M168 950L211 1020M310 932L393 882M310 932L304 967M310 932L345 982M393 882L411 951M393 882L345 982M411 951L304 967M411 951L345 982M411 951L468 996M512 922L604 897M512 922L468 996M512 922L553 1007M604 897L653 893M653 893L666 978M768 915L813 911M768 915L666 978M768 915L788 996M813 911L788 996M813 911L848 1002M813 911L881 990M945 903L1009 899M1009 899L1069 943M1069 943L1084 1021M1069 943L1151 974M1188 891L1269 887M1188 891L1151 974M1269 887L1315 919M1269 887L1297 974M1315 919L1405 953M1315 919L1273 1012M1315 919L1297 974M1405 953L1448 947M1405 953L1434 1020M1448 947L1434 1020M1448 947L1508 986M1580 952L1616 931M1580 952L1508 986M1580 952L1593 1038M1580 952L1636 992M1616 931L1740 912M1616 931L1636 992M1740 912L1802 912M1740 912L1714 1027M1802 912L1867 949M1867 949L1950 911M1867 949L1873 1024M1867 949L1927 1004M1950 911L2062 921M1950 911L1927 1004M2062 921L2093 945M2062 921L2015 1019M2062 921L2099 993M2093 945L2182 896M2093 945L2015 1019M2093 945L2099 993M2093 945L2172 1004M2182 896L2284 918M2182 896L2172 1004M2284 918L2368 895M2284 918L2288 1024M2284 918L2345 966M2368 895L2417 946M2368 895L2345 966M2417 946L2345 966M2417 946L2479 1014M2557 935L2479 1014M2557 935L2549 1004M70 1020L102 1019M70 1020L-11 1004M70 1020L60 1054M70 1020L118 1088M2630 1020L2549 1004M102 1019L60 1054M102 1019L118 1088M211 1020L304 967M211 1020L186 1089M211 1020L260 1052M304 967L345 982M304 967L260 1052M345 982L260 1052M468 996L553 1007M553 1007L581 1028M553 1007L513 1103M581 1028L666 978M581 1028L633 1090M581 1028L588 1125M788 996L848 1002M788 996L881 990M788 996L742 1076M848 1002L881 990M848 1002L920 1042M881 990L920 1042M996 1035L1084 1021M996 1035L920 1042M996 1035L982 1112M996 1035L1070 1052M996 1035L999 1123M1084 1021L1151 974M1084 1021L1070 1052M1151 974L1203 1072M1273 1012L1297 974M1273 1012L1203 1072M1273 1012L1293 1077M1297 974L1293 1077M1434 1020L1508 986M1434 1020L1470 1084M1434 1020L1531 1050M1508 986L1531 1050M1593 1038L1636 992M1593 1038L1531 1050M1593 1038L1613 1084M1593 1038L1684 1065M1636 992L1714 1027M1636 992L1684 1065M1714 1027L1763 1037M1714 1027L1684 1065M1763 1037L1684 1065M1763 1037L1804 1108M1873 1024L1927 1004M1873 1024L1804 1108M1873 1024L1864 1061M1927 1004L1864 1061M1927 1004L1999 1056M2015 1019L2099 993M2015 1019L1999 1056M2015 1019L2028 1075M2099 993L2172 1004M2099 993L2145 1070M2172 1004L2145 1070M2172 1004L2223 1061M2288 1024L2345 966M2288 1024L2223 1061M2288 1024L2255 1112M2288 1024L2339 1060M2345 966L2339 1060M2479 1014L2549 1004M2479 1014L2407 1092M2479 1014L2543 1056M2549 1004L2620 1054M2549 1004L2543 1056M-11 1004L60 1054M60 1054L118 1088M60 1054L-17 1056M2620 1054L2543 1056M118 1088L186 1089M118 1088L120 1155M186 1089L260 1052M186 1089L120 1155M186 1089L250 1147M260 1052L250 1147M360 1094L409 1087M360 1094L331 1146M409 1087L513 1103M409 1087L331 1146M409 1087L477 1137M409 1087L487 1135M513 1103L477 1137M513 1103L487 1135M513 1103L588 1125M633 1090L717 1096M633 1090L742 1076M633 1090L588 1125M633 1090L643 1138M717 1096L742 1076M717 1096L804 1108M717 1096L643 1138M717 1096L788 1137M742 1076L804 1108M742 1076L788 1137M804 1108L788 1137M804 1108L827 1174M804 1108L782 1203M920 1042L902 1132M982 1112L902 1132M982 1112L999 1123M982 1112L1057 1149M982 1112L1007 1207M1070 1052L1057 1149M1194 1085L1203 1072M1194 1085L1191 1157M1203 1072L1293 1077M1203 1072L1191 1157M1293 1077L1258 1164M1293 1077L1305 1133M1410 1111L1470 1084M1410 1111L1305 1133M1410 1111L1434 1193M1410 1111L1501 1137M1470 1084L1531 1050M1470 1084L1434 1193M1470 1084L1501 1137M1531 1050L1501 1137M1613 1084L1684 1065M1613 1084L1583 1175M1804 1108L1864 1061M1804 1108L1824 1137M1804 1108L1899 1151M1864 1061L1824 1137M1864 1061L1899 1151M1999 1056L2028 1075M1999 1056L2023 1156M2028 1075L2023 1156M2145 1070L2223 1061M2145 1070L2129 1169M2223 1061L2255 1112M2223 1061L2256 1140M2255 1112L2228 1170M2255 1112L2256 1140M2255 1112L2333 1151M2339 1060L2407 1092M2339 1060L2333 1151M2407 1092L2333 1151M2407 1092L2444 1153M13 1190L120 1155M13 1190L-7 1189M13 1190L67 1243M13 1190L90 1265M13 1190L-61 1217M2573 1190L2553 1189M2573 1190L2499 1217M120 1155L168 1183M120 1155L193 1224M168 1183L250 1147M168 1183L193 1224M250 1147L331 1146M250 1147L193 1224M331 1146L340 1218M477 1137L487 1135M477 1137L515 1208M487 1135L588 1125M487 1135L515 1208M588 1125L643 1138M643 1138L636 1259M643 1138L648 1215M788 1137L827 1174M788 1137L782 1203M827 1174L902 1132M827 1174L782 1203M827 1174L817 1265M902 1132L999 1123M902 1132L958 1229M999 1123L1057 1149M999 1123L1007 1207M1057 1149L1007 1207M1057 1149L1064 1224M1191 1157L1258 1164M1191 1157L1155 1248M1191 1157L1262 1235M1258 1164L1305 1133M1258 1164L1262 1235M1258 1164L1297 1202M1305 1133L1262 1235M1305 1133L1297 1202M1434 1193L1501 1137M1434 1193L1398 1231M1434 1193L1491 1267M1501 1137L1583 1175M1583 1175L1666 1192M1583 1175L1548 1234M1666 1192L1711 1181M1666 1192L1678 1218M1666 1192L1724 1234M1666 1192L1660 1297M1711 1181L1678 1218M1711 1181L1724 1234M1824 1137L1899 1151M1824 1137L1946 1161M1824 1137L1807 1249M1899 1151L1946 1161M1899 1151L1913 1217M1946 1161L2023 1156M1946 1161L1913 1217M1946 1161L1984 1268M2023 1156L2129 1169M2023 1156L2054 1250M2129 1169L2228 1170M2129 1169L2119 1227M2129 1169L2175 1201M2228 1170L2256 1140M2228 1170L2175 1201M2228 1170L2324 1204M2256 1140L2333 1151M2256 1140L2324 1204M2333 1151L2324 1204M2444 1153L2553 1189M2444 1153L2460 1275M2444 1153L2499 1217M2553 1189L2627 1243M2553 1189L2499 1217M-7 1189L67 1243M67 1243L90 1265M67 1243L49 1307M67 1243L113 1334M90 1265L49 1307M90 1265L113 1334M193 1224L281 1269M193 1224L234 1313M281 1269L340 1218M281 1269L234 1313M281 1269L304 1320M340 1218L404 1255M340 1218L417 1280M404 1255L370 1323M404 1255L417 1280M404 1255L491 1329M404 1255L414 1368M515 1208L636 1259M636 1259L648 1215M636 1259L630 1320M636 1259L668 1341M648 1215L630 1320M782 1203L817 1265M782 1203L876 1284M817 1265L750 1353M817 1265L876 1284M958 1229L1007 1207M958 1229L876 1284M958 1229L947 1300M1007 1207L1064 1224M1064 1224L1155 1248M1064 1224L1027 1305M1155 1248L1262 1235M1155 1248L1111 1317M1155 1248L1180 1309M1262 1235L1297 1202M1297 1202L1398 1231M1297 1202L1351 1294M1398 1231L1351 1294M1491 1267L1548 1234M1491 1267L1438 1350M1491 1267L1504 1326M1491 1267L1553 1324M1548 1234L1553 1324M1678 1218L1724 1234M1678 1218L1660 1297M1724 1234L1807 1249M1724 1234L1742 1322M1807 1249L1742 1322M1807 1249L1812 1280M1807 1249L1884 1319M1913 1217L1984 1268M1913 1217L1884 1319M1984 1268L2054 1250M1984 1268L1929 1356M1984 1268L2021 1299M2054 1250L2119 1227M2054 1250L2021 1299M2054 1250L2051 1364M2119 1227L2175 1201M2119 1227L2021 1299M2292 1239L2324 1204M2292 1239L2300 1292M2292 1239L2334 1327M2324 1204L2300 1292M2460 1275L2499 1217M2460 1275L2412 1306M2460 1275L2542 1316M2460 1275L2453 1377M2499 1217L2542 1316M49 1307L113 1334M49 1307L-18 1316M49 1307L66 1381M2609 1307L2542 1316M113 1334L66 1381M113 1334L142 1440M234 1313L304 1320M234 1313L222 1400M304 1320L370 1323M304 1320L278 1413M304 1320L340 1405M370 1323L417 1280M370 1323L414 1368M417 1280L491 1329M417 1280L414 1368M491 1329L414 1368M491 1329L514 1434M630 1320L668 1341M630 1320L578 1380M668 1341L750 1353M668 1341L578 1380M668 1341L643 1431M750 1353L798 1435M750 1353L856 1422M876 1284L947 1300M947 1300L1027 1305M1027 1305L1111 1317M1027 1305L1030 1372M1111 1317L1180 1309M1111 1317L1030 1372M1111 1317L1127 1404M1180 1309L1228 1346M1180 1309L1127 1404M1228 1346L1252 1438M1351 1294L1438 1350M1438 1350L1504 1326M1438 1350L1421 1402M1438 1350L1487 1410M1504 1326L1553 1324M1504 1326L1487 1410M1553 1324L1660 1297M1553 1324L1542 1428M1660 1297L1742 1322M1660 1297L1717 1361M1742 1322L1812 1280M1742 1322L1717 1361M1812 1280L1884 1319M1884 1319L1929 1356M1884 1319L1899 1393M1929 1356L2021 1299M1929 1356L1899 1393M1929 1356L1995 1425M2021 1299L2051 1364M2121 1346L2196 1330M2121 1346L2051 1364M2121 1346L2160 1376M2196 1330L2300 1292M2196 1330L2160 1376M2196 1330L2280 1410M2300 1292L2334 1327M2300 1292L2376 1361M2334 1327L2412 1306M2334 1327L2280 1410M2334 1327L2376 1361M2412 1306L2376 1361M2412 1306L2453 1377M2542 1316L2626 1381M2542 1316L2453 1377M-18 1316L66 1381M142 1440L222 1400M222 1400L278 1413M278 1413L340 1405M340 1405L414 1368M514 1434L578 1380M578 1380L643 1431M798 1435L856 1422M798 1435L884 1431M856 1422L884 1431M1030 1372L1057 1434M1030 1372L1127 1404M1057 1434L1127 1404M1252 1438L1345 1431M1345 1431L1421 1402M1421 1402L1487 1410M1487 1410L1542 1428M1542 1428L1615 1406M1615 1406L1717 1361M1829 1436L1899 1393M1995 1425L2051 1364M2160 1376L2211 1431M2211 1431L2280 1410M2280 1410L2376 1361M2376 1361L2453 1377M2453 1377L2497 1440"/></svg>