<svg xmlns="http://www.w3.org/2000/svg" width="2560" height="1440" fill="#fff"><circle cx="73" cy="47" r="5"/><circle cx="105" cy="39" r="4"/><circle cx="191" cy="24" r="5"/><circle cx="243" cy="69" r="4"/><circle cx="367" cy="25" r="5"/><circle cx="410" cy="47" r="5"/><circle cx="503" cy="18" r="5"/><circle cx="565" cy="17" r="6"/><circle cx="700" cy="38" r="4"/><circle cx="745" cy="1" r="6"/><circle cx="745" cy="1441" r="6"/><circle cx="838" cy="30" r="4"/><circle cx="931" cy="40" r="4"/><circle cx="991" cy="6" r="4"/><circle cx="1069" cy="2" r="4"/><circle cx="1069" cy="1442" r="4"/><circle cx="1172" cy="0" r="5"/><circle cx="1172" cy="1440" r="5"/><circle cx="1214" cy="77" r="4"/><circle cx="1339" cy="48" r="4"/><circle cx="1403" cy="39" r="6"/><circle cx="1502" cy="2" r="4"/><circle cx="1502" cy="1442" r="4"/><circle cx="1578" cy="2" r="5"/><circle cx="1578" cy="1442" r="5"/><circle cx="1614" cy="60" r="5"/><circle cx="1743" cy="16" r="4"/><circle cx="1822" cy="24" r="5"/><circle cx="1844" cy="52" r="5"/><circle cx="1991" cy="38" r="6"/><circle cx="2073" cy="46" r="4"/><circle cx="2149" cy="30" r="6"/><circle cx="2216" cy="15" r="5"/><circle cx="2305" cy="9" r="5"/><circle cx="2383" cy="50" r="4"/><circle cx="2432" cy="53" r="6"/><circle cx="2559" cy="11" r="5"/><circle cx="-1" cy="11" r="5"/><circle cx="42" cy="118" r="5"/><circle cx="85" cy="101" r="6"/><circle cx="210" cy="88" r="5"/><circle cx="300" cy="158" r="6"/><circle cx="341" cy="138" r="5"/><circle cx="460" cy="107" r="4"/><circle cx="550" cy="159" r="5"/><circle cx="607" cy="139" r="6"/><circle cx="714" cy="99" r="6"/><circle cx="757" cy="92" r="6"/><circle cx="814" cy="147" r="5"/><circle cx="935" cy="122" r="4"/><circle cx="996" cy="86" r="5"/><circle cx="1063" cy="126" r="5"/><circle cx="1121" cy="107" r="5"/><circle cx="1242" cy="152" r="6"/><circle cx="1339" cy="118" r="6"/><circle cx="1383" cy="92" r="6"/><circle cx="1493" cy="143" r="6"/><circle cx="1581" cy="99" r="6"/><circle cx="1656" cy="156" r="4"/><circle cx="1741" cy="136" r="4"/><circle cx="1825" cy="87" r="6"/><circle cx="1864" cy="156" r="6"/><circle cx="1970" cy="85" r="5"/><circle cx="2052" cy="155" r="6"/><circle cx="2103" cy="107" r="4"/><circle cx="2208" cy="121" r="5"/><circle cx="2267" cy="157" r="5"/><circle cx="2398" cy="145" r="5"/><circle cx="2435" cy="124" r="5"/><circle cx="2486" cy="97" r="4"/><circle cx="2" cy="222" r="5"/><circle cx="2562" cy="222" r="5"/><circle cx="105" cy="174" r="5"/><circle cx="222" cy="225" r="5"/><circle cx="255" cy="239" r="4"/><circle cx="371" cy="198" r="6"/><circle cx="454" cy="203" r="5"/><circle cx="540" cy="240" r="6"/><circle cx="606" cy="226" r="5"/><circle cx="681" cy="197" r="5"/><circle cx="735" cy="185" r="5"/><circle cx="840" cy="186" r="6"/><circle cx="926" cy="175" r="5"/><circle cx="981" cy="218" r="5"/><circle cx="1082" cy="236" r="5"/><circle cx="1135" cy="163" r="6"/><circle cx="1251" cy="240" r="5"/><circle cx="1309" cy="180" r="5"/><circle cx="1385" cy="216" r="6"/><circle cx="1518" cy="181" r="4"/><circle cx="1561" cy="212" r="4"/><circle cx="1633" cy="180" r="5"/><circle cx="1684" cy="223" r="5"/><circle cx="1807" cy="183" r="5"/><circle cx="1848" cy="224" r="5"/><circle cx="1988" cy="169" r="5"/><circle cx="2015" cy="210" r="4"/><circle cx="2095" cy="224" r="5"/><circle cx="2163" cy="186" r="6"/><circle cx="2261" cy="192" r="5"/><circle cx="2346" cy="226" r="4"/><circle cx="2426" cy="176" r="6"/><circle cx="2552" cy="196" r="5"/><circle cx="57" cy="269" r="6"/><circle cx="129" cy="290" r="5"/><circle cx="220" cy="255" r="6"/><circle cx="294" cy="310" r="5"/><circle cx="351" cy="311" r="5"/><circle cx="456" cy="293" r="5"/><circle cx="488" cy="240" r="6"/><circle cx="608" cy="286" r="5"/><circle cx="675" cy="314" r="5"/><circle cx="729" cy="290" r="6"/><circle cx="832" cy="272" r="5"/><circle cx="947" cy="312" r="5"/><circle cx="971" cy="315" r="5"/><circle cx="1105" cy="306" r="4"/><circle cx="1153" cy="310" r="4"/><circle cx="1270" cy="295" r="4"/><circle cx="1327" cy="288" r="4"/><circle cx="1363" cy="284" r="5"/><circle cx="1499" cy="262" r="5"/><circle cx="1570" cy="303" r="5"/><circle cx="1677" cy="290" r="5"/><circle cx="1727" cy="271" r="5"/><circle cx="1826" cy="295" r="4"/><circle cx="1847" cy="309" r="4"/><circle cx="1973" cy="250" r="5"/><circle cx="2049" cy="263" r="5"/><circle cx="2083" cy="318" r="4"/><circle cx="2171" cy="266" r="4"/><circle cx="2271" cy="312" r="5"/><circle cx="2381" cy="303" r="4"/><circle cx="2478" cy="250" r="4"/><circle cx="2514" cy="255" r="6"/><circle cx="30" cy="326" r="4"/><circle cx="81" cy="397" r="6"/><circle cx="192" cy="379" r="5"/><circle cx="258" cy="381" r="5"/><circle cx="321" cy="368" r="4"/><circle cx="414" cy="372" r="6"/><circle cx="504" cy="383" r="6"/><circle cx="572" cy="391" r="5"/><circle cx="662" cy="355" r="5"/><circle cx="736" cy="363" r="6"/><circle cx="830" cy="326" r="4"/><circle cx="958" cy="369" r="5"/><circle cx="1037" cy="336" r="5"/><circle cx="1108" cy="363" r="6"/><circle cx="1168" cy="396" r="6"/><circle cx="1214" cy="340" r="6"/><circle cx="1309" cy="367" r="5"/><circle cx="1387" cy="357" r="5"/><circle cx="1457" cy="325" r="4"/><circle cx="1550" cy="328" r="5"/><circle cx="1635" cy="323" r="4"/><circle cx="1709" cy="337" r="5"/><circle cx="1813" cy="385" r="4"/><circle cx="1905" cy="370" r="5"/><circle cx="1943" cy="368" r="5"/><circle cx="2027" cy="338" r="4"/><circle cx="2157" cy="327" r="6"/><circle cx="2194" cy="341" r="6"/><circle cx="2292" cy="395" r="5"/><circle cx="2350" cy="395" r="6"/><circle cx="2434" cy="323" r="4"/><circle cx="2537" cy="354" r="5"/><circle cx="74" cy="420" r="5"/><circle cx="151" cy="444" r="4"/><circle cx="178" cy="431" r="4"/><circle cx="319" cy="406" r="4"/><circle cx="367" cy="442" r="5"/><circle cx="406" cy="454" r="6"/><circle cx="539" cy="469" r="5"/><circle cx="587" cy="402" r="5"/><circle cx="702" cy="462" r="4"/><circle cx="728" cy="465" r="5"/><circle cx="841" cy="475" r="5"/><circle cx="922" cy="415" r="4"/><circle cx="976" cy="463" r="4"/><circle cx="1070" cy="480" r="4"/><circle cx="1158" cy="435" r="5"/><circle cx="1265" cy="458" r="5"/><circle cx="1314" cy="459" r="5"/><circle cx="1392" cy="418" r="5"/><circle cx="1446" cy="476" r="5"/><circle cx="1531" cy="467" r="6"/><circle cx="1616" cy="465" r="4"/><circle cx="1732" cy="445" r="6"/><circle cx="1789" cy="451" r="5"/><circle cx="1858" cy="407" r="4"/><circle cx="1967" cy="441" r="4"/><circle cx="2014" cy="435" r="5"/><circle cx="2158" cy="412" r="5"/><circle cx="2190" cy="415" r="6"/><circle cx="2286" cy="449" r="6"/><circle cx="2399" cy="424" r="6"/><circle cx="2425" cy="472" r="5"/><circle cx="2507" cy="428" r="4"/><circle cx="63" cy="523" r="4"/><circle cx="102" cy="507" r="5"/><circle cx="214" cy="556" r="6"/><circle cx="271" cy="490" r="5"/><circle cx="384" cy="545" r="5"/><circle cx="433" cy="515" r="6"/><circle cx="525" cy="524" r="5"/><circle cx="573" cy="544" r="5"/><circle cx="645" cy="552" r="6"/><circle cx="738" cy="493" r="4"/><circle cx="822" cy="496" r="5"/><circle cx="945" cy="559" r="4"/><circle cx="960" cy="552" r="5"/><circle cx="1074" cy="515" r="5"/><circle cx="1159" cy="545" r="4"/><circle cx="1207" cy="529" r="6"/><circle cx="1338" cy="552" r="5"/><circle cx="1372" cy="491" r="4"/><circle cx="1459" cy="517" r="5"/><circle cx="1550" cy="505" r="6"/><circle cx="1657" cy="540" r="5"/><circle cx="1738" cy="500" r="5"/><circle cx="1791" cy="484" r="4"/><circle cx="1908" cy="546" r="6"/><circle cx="1941" cy="495" r="5"/><circle cx="2039" cy="534" r="6"/><circle cx="2088" cy="481" r="5"/><circle cx="2233" cy="546" r="6"/><circle cx="2313" cy="545" r="5"/><circle cx="2334" cy="508" r="5"/><circle cx="2472" cy="504" r="6"/><circle cx="2545" cy="518" r="4"/><circle cx="40" cy="569" r="5"/><circle cx="84" cy="608" r="4"/><circle cx="206" cy="634" r="6"/><circle cx="311" cy="609" r="5"/><circle cx="354" cy="572" r="5"/><circle cx="410" cy="611" r="5"/><circle cx="549" cy="606" r="5"/><circle cx="596" cy="607" r="6"/><circle cx="659" cy="579" r="5"/><circle cx="757" cy="566" r="6"/><circle cx="869" cy="585" r="5"/><circle cx="950" cy="564" r="4"/><circle cx="975" cy="619" r="4"/><circle cx="1117" cy="621" r="5"/><circle cx="1173" cy="640" r="6"/><circle cx="1215" cy="611" r="5"/><circle cx="1342" cy="574" r="6"/><circle cx="1421" cy="638" r="5"/><circle cx="1513" cy="609" r="5"/><circle cx="1524" cy="595" r="6"/><circle cx="1628" cy="607" r="6"/><circle cx="1710" cy="637" r="5"/><circle cx="1795" cy="596" r="6"/><circle cx="1873" cy="606" r="4"/><circle cx="1956" cy="589" r="5"/><circle cx="2011" cy="576" r="5"/><circle cx="2098" cy="571" r="6"/><circle cx="2220" cy="634" r="5"/><circle cx="2315" cy="613" r="6"/><circle cx="2341" cy="624" r="6"/><circle cx="2458" cy="633" r="4"/><circle cx="2522" cy="604" r="5"/><circle cx="39" cy="708" r="5"/><circle cx="98" cy="686" r="5"/><circle cx="178" cy="692" r="4"/><circle cx="288" cy="688" r="4"/><circle cx="357" cy="644" r="4"/><circle cx="447" cy="668" r="5"/><circle cx="537" cy="641" r="4"/><circle cx="596" cy="673" r="4"/><circle cx="693" cy="716" r="5"/><circle cx="733" cy="647" r="4"/><circle cx="856" cy="670" r="4"/><circle cx="925" cy="694" r="4"/><circle cx="1033" cy="683" r="4"/><circle cx="1083" cy="709" r="5"/><circle cx="1125" cy="658" r="5"/><circle cx="1251" cy="681" r="5"/><circle cx="1339" cy="714" r="4"/><circle cx="1372" cy="656" r="4"/><circle cx="1458" cy="642" r="6"/><circle cx="1531" cy="691" r="5"/><circle cx="1668" cy="668" r="5"/><circle cx="1695" cy="695" r="5"/><circle cx="1807" cy="643" r="5"/><circle cx="1868" cy="708" r="5"/><circle cx="1989" cy="700" r="6"/><circle cx="2058" cy="675" r="5"/><circle cx="2141" cy="719" r="5"/><circle cx="2167" cy="688" r="4"/><circle cx="2307" cy="661" r="5"/><circle cx="2386" cy="658" r="5"/><circle cx="2467" cy="719" r="5"/><circle cx="2483" cy="642" r="5"/><circle cx="27" cy="767" r="5"/><circle cx="140" cy="733" r="5"/><circle cx="193" cy="796" r="4"/><circle cx="297" cy="785" r="4"/><circle cx="374" cy="726" r="5"/><circle cx="462" cy="759" r="6"/><circle cx="539" cy="745" r="6"/><circle cx="589" cy="796" r="5"/><circle cx="706" cy="752" r="4"/><circle cx="748" cy="797" r="6"/><circle cx="807" cy="785" r="4"/><circle cx="946" cy="755" r="5"/><circle cx="1010" cy="777" r="5"/><circle cx="1080" cy="748" r="6"/><circle cx="1188" cy="722" r="4"/><circle cx="1266" cy="721" r="6"/><circle cx="1300" cy="736" r="5"/><circle cx="1405" cy="779" r="6"/><circle cx="1442" cy="729" r="6"/><circle cx="1592" cy="741" r="5"/><circle cx="1674" cy="771" r="6"/><circle cx="1698" cy="766" r="6"/><circle cx="1762" cy="759" r="4"/><circle cx="1888" cy="794" r="5"/><circle cx="1966" cy="745" r="6"/><circle cx="2028" cy="730" r="6"/><circle cx="2081" cy="740" r="4"/><circle cx="2171" cy="747" r="5"/><circle cx="2314" cy="736" r="4"/><circle cx="2390" cy="732" r="5"/><circle cx="2455" cy="794" r="5"/><circle cx="2484" cy="799" r="6"/><circle cx="75" cy="868" r="6"/><circle cx="150" cy="808" r="5"/><circle cx="229" cy="823" r="5"/><circle cx="299" cy="836" r="4"/><circle cx="374" cy="839" r="4"/><circle cx="414" cy="815" r="5"/><circle cx="554" cy="840" r="4"/><circle cx="609" cy="861" r="5"/><circle cx="676" cy="811" r="5"/><circle cx="762" cy="843" r="5"/><circle cx="816" cy="810" r="4"/><circle cx="884" cy="861" r="4"/><circle cx="1035" cy="809" r="6"/><circle cx="1112" cy="820" r="4"/><circle cx="1180" cy="867" r="5"/><circle cx="1267" cy="840" r="5"/><circle cx="1305" cy="828" r="5"/><circle cx="1433" cy="808" r="5"/><circle cx="1483" cy="877" r="6"/><circle cx="1566" cy="827" r="4"/><circle cx="1650" cy="802" r="4"/><circle cx="1699" cy="878" r="5"/><circle cx="1805" cy="865" r="6"/><circle cx="1847" cy="873" r="4"/><circle cx="1930" cy="853" r="4"/><circle cx="2017" cy="860" r="4"/><circle cx="2105" cy="871" r="4"/><circle cx="2208" cy="832" r="5"/><circle cx="2240" cy="872" r="5"/><circle cx="2399" cy="880" r="4"/><circle cx="2451" cy="847" r="5"/><circle cx="2521" cy="866" r="5"/><circle cx="60" cy="892" r="5"/><circle cx="138" cy="882" r="6"/><circle cx="228" cy="950" r="5"/><circle cx="307" cy="900" r="6"/><circle cx="384" cy="888" r="4"/><circle cx="449" cy="952" r="6"/><circle cx="494" cy="949" r="4"/><circle cx="611" cy="949" r="5"/><circle cx="716" cy="958" r="6"/><circle cx="764" cy="903" r="5"/><circle cx="811" cy="914" r="4"/><circle cx="889" cy="932" r="4"/><circle cx="1003" cy="908" r="5"/><circle cx="1058" cy="891" r="5"/><circle cx="1181" cy="941" r="5"/><circle cx="1271" cy="913" r="5"/><circle cx="1342" cy="924" r="6"/><circle cx="1407" cy="890" r="5"/><circle cx="1466" cy="955" r="6"/><circle cx="1549" cy="918" r="5"/><circle cx="1665" cy="931" r="5"/><circle cx="1682" cy="885" r="5"/><circle cx="1838" cy="923" r="6"/><circle cx="1843" cy="958" r="6"/><circle cx="1996" cy="920" r="6"/><circle cx="2063" cy="926" r="5"/><circle cx="2141" cy="892" r="6"/><circle cx="2170" cy="898" r="6"/><circle cx="2260" cy="947" r="6"/><circle cx="2382" cy="890" r="5"/><circle cx="2470" cy="914" r="4"/><circle cx="2493" cy="893" r="5"/><circle cx="45" cy="969" r="4"/><circle cx="134" cy="1005" r="5"/><circle cx="219" cy="989" r="5"/><circle cx="309" cy="966" r="5"/><circle cx="337" cy="1005" r="5"/><circle cx="468" cy="963" r="5"/><circle cx="493" cy="970" r="4"/><circle cx="593" cy="965" r="4"/><circle cx="702" cy="965" r="4"/><circle cx="720" cy="1038" r="4"/><circle cx="878" cy="1031" r="4"/><circle cx="950" cy="1010" r="5"/><circle cx="976" cy="970" r="4"/><circle cx="1100" cy="1015" r="6"/><circle cx="1122" cy="961" r="4"/><circle cx="1204" cy="1037" r="5"/><circle cx="1357" cy="978" r="4"/><circle cx="1376" cy="992" r="6"/><circle cx="1450" cy="1008" r="5"/><circle cx="1543" cy="998" r="6"/><circle cx="1627" cy="984" r="5"/><circle cx="1732" cy="980" r="6"/><circle cx="1831" cy="989" r="5"/><circle cx="1881" cy="1010" r="5"/><circle cx="1989" cy="1023" r="4"/><circle cx="2079" cy="1000" r="4"/><circle cx="2119" cy="1037" r="5"/><circle cx="2189" cy="969" r="5"/><circle cx="2240" cy="1023" r="5"/><circle cx="2392" cy="1009" r="6"/><circle cx="2416" cy="970" r="5"/><circle cx="2502" cy="1012" r="4"/><circle cx="33" cy="1108" r="6"/><circle cx="100" cy="1087" r="6"/><circle cx="176" cy="1051" r="5"/><circle cx="314" cy="1083" r="5"/><circle cx="397" cy="1082" r="5"/><circle cx="459" cy="1064" r="4"/><circle cx="502" cy="1080" r="5"/><circle cx="573" cy="1047" r="6"/><circle cx="719" cy="1050" r="6"/><circle cx="727" cy="1117" r="5"/><circle cx="822" cy="1069" r="5"/><circle cx="934" cy="1043" r="5"/><circle cx="966" cy="1045" r="4"/><circle cx="1107" cy="1042" r="6"/><circle cx="1128" cy="1119" r="5"/><circle cx="1208" cy="1109" r="4"/><circle cx="1331" cy="1094" r="5"/><circle cx="1409" cy="1093" r="5"/><circle cx="1495" cy="1116" r="5"/><circle cx="1520" cy="1118" r="6"/><circle cx="1604" cy="1050" r="6"/><circle cx="1708" cy="1085" r="5"/><circle cx="1785" cy="1111" r="6"/><circle cx="1884" cy="1107" r="5"/><circle cx="1999" cy="1075" r="5"/><circle cx="2042" cy="1041" r="5"/><circle cx="2117" cy="1087" r="5"/><circle cx="2230" cy="1089" r="5"/><circle cx="2295" cy="1041" r="5"/><circle cx="2330" cy="1042" r="5"/><circle cx="2478" cy="1094" r="5"/><circle cx="2534" cy="1091" r="4"/><circle cx="20" cy="1191" r="5"/><circle cx="119" cy="1160" r="5"/><circle cx="186" cy="1160" r="5"/><circle cx="259" cy="1138" r="5"/><circle cx="383" cy="1180" r="6"/><circle cx="468" cy="1185" r="6"/><circle cx="483" cy="1133" r="6"/><circle cx="598" cy="1136" r="6"/><circle cx="671" cy="1198" r="4"/><circle cx="766" cy="1190" r="6"/><circle cx="828" cy="1150" r="6"/><circle cx="899" cy="1146" r="4"/><circle cx="1013" cy="1158" r="6"/><circle cx="1071" cy="1160" r="5"/><circle cx="1143" cy="1193" r="5"/><circle cx="1211" cy="1181" r="4"/><circle cx="1305" cy="1121" r="6"/><circle cx="1431" cy="1136" r="4"/><circle cx="1505" cy="1132" r="5"/><circle cx="1541" cy="1190" r="4"/><circle cx="1626" cy="1149" r="5"/><circle cx="1746" cy="1154" r="4"/><circle cx="1789" cy="1190" r="6"/><circle cx="1846" cy="1192" r="5"/><circle cx="1931" cy="1183" r="5"/><circle cx="2030" cy="1158" r="5"/><circle cx="2139" cy="1175" r="5"/><circle cx="2212" cy="1188" r="6"/><circle cx="2306" cy="1169" r="5"/><circle cx="2326" cy="1159" r="4"/><circle cx="2445" cy="1145" r="6"/><circle cx="2547" cy="1142" r="5"/><circle cx="65" cy="1257" r="5"/><circle cx="105" cy="1229" r="4"/><circle cx="202" cy="1261" r="4"/><circle cx="314" cy="1212" r="6"/><circle cx="350" cy="1230" r="4"/><circle cx="434" cy="1270" r="5"/><circle cx="503" cy="1227" r="5"/><circle cx="571" cy="1269" r="5"/><circle cx="668" cy="1231" r="4"/><circle cx="758" cy="1203" r="6"/><circle cx="810" cy="1268" r="5"/><circle cx="923" cy="1262" r="4"/><circle cx="975" cy="1201" r="5"/><circle cx="1071" cy="1251" r="4"/><circle cx="1200" cy="1248" r="4"/><circle cx="1202" cy="1279" r="6"/><circle cx="1295" cy="1270" r="5"/><circle cx="1400" cy="1261" r="5"/><circle cx="1481" cy="1237" r="5"/><circle cx="1596" cy="1266" r="5"/><circle cx="1663" cy="1270" r="5"/><circle cx="1701" cy="1208" r="5"/><circle cx="1828" cy="1252" r="4"/><circle cx="1861" cy="1276" r="6"/><circle cx="1939" cy="1243" r="5"/><circle cx="2016" cy="1256" r="4"/><circle cx="2149" cy="1237" r="4"/><circle cx="2173" cy="1277" r="5"/><circle cx="2298" cy="1244" r="6"/><circle cx="2378" cy="1201" r="4"/><circle cx="2433" cy="1242" r="6"/><circle cx="2519" cy="1237" r="4"/><circle cx="74" cy="1290" r="6"/><circle cx="86" cy="1343" r="5"/><circle cx="167" cy="1327" r="5"/><circle cx="284" cy="1339" r="5"/><circle cx="329" cy="1319" r="6"/><circle cx="428" cy="1350" r="4"/><circle cx="525" cy="1286" r="6"/><circle cx="635" cy="1350" r="4"/><circle cx="662" cy="1294" r="4"/><circle cx="773" cy="1308" r="6"/><circle cx="828" cy="1334" r="5"/><circle cx="948" cy="1343" r="5"/><circle cx="1023" cy="1341" r="6"/><circle cx="1054" cy="1346" r="4"/><circle cx="1137" cy="1305" r="6"/><circle cx="1232" cy="1328" r="5"/><circle cx="1310" cy="1336" r="6"/><circle cx="1420" cy="1353" r="6"/><circle cx="1483" cy="1326" r="6"/><circle cx="1599" cy="1329" r="6"/><circle cx="1622" cy="1297" r="6"/><circle cx="1734" cy="1281" r="5"/><circle cx="1772" cy="1345" r="6"/><circle cx="1873" cy="1351" r="5"/><circle cx="1964" cy="1298" r="6"/><circle cx="2055" cy="1324" r="5"/><circle cx="2148" cy="1290" r="5"/><circle cx="2207" cy="1297" r="5"/><circle cx="2302" cy="1351" r="6"/><circle cx="2341" cy="1334" r="4"/><circle cx="2435" cy="1292" r="6"/><circle cx="2500" cy="1340" r="6"/><circle cx="21" cy="1418" r="5"/><circle cx="97" cy="1375" r="4"/><circle cx="180" cy="1365" r="4"/><circle cx="263" cy="1382" r="5"/><circle cx="395" cy="1408" r="5"/><circle cx="442" cy="1373" r="5"/><circle cx="482" cy="1393" r="5"/><circle cx="579" cy="1367" r="5"/><circle cx="717" cy="1395" r="5"/><circle cx="788" cy="1371" r="4"/><circle cx="879" cy="1415" r="5"/><circle cx="881" cy="1418" r="4"/><circle cx="1012" cy="1399" r="4"/><circle cx="1114" cy="1365" r="4"/><circle cx="1199" cy="1368" r="6"/><circle cx="1262" cy="1389" r="6"/><circle cx="1285" cy="1399" r="6"/><circle cx="1409" cy="1420" r="6"/><circle cx="1496" cy="1405" r="5"/><circle cx="1546" cy="1410" r="5"/><circle cx="1606" cy="1360" r="5"/><circle cx="1743" cy="1371" r="6"/><circle cx="1820" cy="1387" r="4"/><circle cx="1878" cy="1373" r="5"/><circle cx="1952" cy="1378" r="6"/><circle cx="2007" cy="1408" r="4"/><circle cx="2139" cy="1419" r="4"/><circle cx="2238" cy="1364" r="6"/><circle cx="2243" cy="1362" r="5"/><circle cx="2334" cy="1372" r="4"/><circle cx="2428" cy="1398" r="4"/><circle cx="2536" cy="1397" r="5"/><path stroke="#fff" d="M73 47L105 39M73 47L-1 11M73 47L42 118M73 47L85 101M73 47L21 -22M2633 47L2559 11M73 1487L21 1418M105 39L191 24M105 39L42 118M105 39L85 101M191 24L243 69M191 24L210 88M191 24L180 -75M191 24L263 -58M191 1464L180 1365M191 1464L263 1382M243 69L210 88M243 69L341 138M367 25L410 47M367 25L341 138M367 25L395 -32M367 25L442 -67M367 1465L395 1408M367 1465L442 1373M410 47L503 18M410 47L460 107M410 47L395 -32M410 1487L395 1408M503 18L565 17M503 18L460 107M503 18L442 -67M503 18L482 -47M503 1458L442 1373M503 1458L482 1393M565 17L635 -90M565 17L482 -47M565 17L579 -73M565 1457L635 1350M565 1457L482 1393M565 1457L579 1367M700 38L745 1M700 38L714 99M700 38L757 92M700 38L717 -45M700 1478L717 1395M745 1L714 99M745 1L757 92M745 1L717 -45M745 1L788 -69M745 1441L717 1395M745 1441L788 1371M838 30L879 -25M838 30L881 -22M838 1470L879 1415M838 1470L881 1418M931 40L991 6M931 40L935 122M931 40L996 86M931 40L879 -25M931 40L881 -22M931 1480L879 1415M931 1480L881 1418M991 6L1069 2M991 6L996 86M991 6L1012 -41M991 1446L1012 1399M1069 2L1012 -41M1069 2L1114 -75M1069 1442L1012 1399M1069 1442L1114 1365M1172 0L1214 77M1172 0L1199 -72M1172 0L1262 -51M1172 0L1285 -41M1172 1440L1199 1368M1172 1440L1262 1389M1172 1440L1285 1399M1214 77L1121 107M1214 77L1242 152M1214 77L1135 163M1339 48L1403 39M1339 48L1339 118M1339 48L1383 92M1339 48L1285 -41M1339 48L1409 -20M1339 1488L1285 1399M1339 1488L1409 1420M1403 39L1502 2M1403 39L1339 118M1403 39L1383 92M1403 39L1409 -20M1403 1479L1409 1420M1502 2L1578 2M1502 2L1409 -20M1502 2L1496 -35M1502 2L1546 -30M1502 1442L1409 1420M1502 1442L1496 1405M1502 1442L1546 1410M1578 2L1614 60M1578 2L1581 99M1578 2L1546 -30M1578 2L1606 -80M1578 1442L1546 1410M1578 1442L1606 1360M1614 60L1581 99M1614 60L1656 156M1743 16L1822 24M1743 16L1844 52M1743 16L1743 -69M1743 1456L1743 1371M1822 24L1844 52M1822 24L1825 87M1822 24L1820 -53M1822 24L1878 -67M1822 1464L1820 1387M1822 1464L1878 1373M1844 52L1825 87M1844 52L1864 156M1991 38L2073 46M1991 38L1970 85M1991 38L1952 -62M1991 38L2007 -32M1991 1478L1952 1378M1991 1478L2007 1408M2073 46L2149 30M2073 46L2103 107M2073 46L2139 -21M2073 1486L2139 1419M2149 30L2216 15M2149 30L2103 107M2149 30L2208 121M2149 30L2139 -21M2149 1470L2139 1419M2216 15L2305 9M2216 15L2139 -21M2216 15L2238 -76M2216 15L2243 -78M2216 1455L2139 1419M2216 1455L2238 1364M2216 1455L2243 1362M2305 9L2383 50M2305 9L2302 -89M2305 9L2334 -68M2305 1449L2302 1351M2305 1449L2334 1372M2383 50L2432 53M2383 50L2398 145M2383 50L2435 124M2383 50L2428 -42M2383 1490L2428 1398M2432 53L2398 145M2432 53L2435 124M2432 53L2486 97M2432 53L2428 -42M2432 1493L2428 1398M2559 11L2581 -22M2559 11L2536 -43M-1 11L21 -22M-1 1451L21 1418M2559 1451L2581 1418M2559 1451L2536 1397M42 118L85 101M42 118L105 174M42 118L-8 196M2602 118L2552 196M85 101L210 88M85 101L105 174M210 88L300 158M300 158L341 138M300 158L222 225M300 158L255 239M300 158L371 198M341 138L371 198M460 107L454 203M550 159L607 139M550 159L540 240M550 159L606 226M550 159L488 240M607 139L606 226M607 139L681 197M714 99L757 92M714 99L681 197M714 99L735 185M757 92L814 147M757 92L735 185M814 147L735 185M814 147L840 186M814 147L926 175M935 122L996 86M935 122L840 186M935 122L926 175M935 122L981 218M996 86L1063 126M996 86L926 175M1063 126L1121 107M1063 126L1135 163M1121 107L1135 163M1242 152L1339 118M1242 152L1135 163M1242 152L1251 240M1242 152L1309 180M1339 118L1383 92M1339 118L1309 180M1383 92L1309 180M1493 143L1581 99M1493 143L1385 216M1493 143L1518 181M1493 143L1561 212M1581 99L1656 156M1581 99L1633 180M1656 156L1741 136M1656 156L1633 180M1656 156L1684 223M1741 136L1825 87M1741 136L1684 223M1741 136L1807 183M1825 87L1864 156M1825 87L1807 183M1864 156L1807 183M1864 156L1848 224M1970 85L2052 155M1970 85L1988 169M2052 155L2103 107M2052 155L1988 169M2052 155L2015 210M2052 155L2095 224M2103 107L2208 121M2103 107L2163 186M2208 121L2267 157M2208 121L2163 186M2208 121L2261 192M2267 157L2261 192M2267 157L2346 226M2398 145L2435 124M2398 145L2346 226M2398 145L2426 176M2435 124L2486 97M2435 124L2426 176M2486 97L2426 176M2 222L-8 196M2 222L57 269M2 222L-82 250M2 222L-46 255M2 222L30 326M2562 222L2552 196M2562 222L2478 250M2562 222L2514 255M222 225L255 239M222 225L129 290M222 225L220 255M255 239L220 255M255 239L294 310M371 198L454 203M371 198L351 311M371 198L488 240M454 203L540 240M454 203L456 293M454 203L488 240M540 240L606 226M540 240L488 240M540 240L608 286M606 226L681 197M606 226L608 286M681 197L735 185M735 185L729 290M840 186L926 175M840 186L832 272M926 175L981 218M981 218L1082 236M981 218L947 312M981 218L971 315M1082 236L1135 163M1082 236L1105 306M1082 236L1153 310M1251 240L1309 180M1251 240L1270 295M1251 240L1327 288M1251 240L1214 340M1309 180L1385 216M1385 216L1327 288M1385 216L1363 284M1518 181L1561 212M1518 181L1633 180M1518 181L1499 262M1561 212L1633 180M1561 212L1499 262M1561 212L1570 303M1633 180L1684 223M1684 223L1677 290M1684 223L1727 271M1807 183L1848 224M1848 224L1826 295M1848 224L1847 309M1988 169L2015 210M1988 169L1973 250M2015 210L2095 224M2015 210L1973 250M2015 210L2049 263M2095 224L2163 186M2095 224L2049 263M2095 224L2171 266M2163 186L2261 192M2163 186L2171 266M2261 192L2346 226M2261 192L2271 312M2346 226L2426 176M2346 226L2381 303M2426 176L2478 250M2552 196L2617 269M2552 196L2478 250M2552 196L2514 255M-8 196L57 269M57 269L129 290M57 269L-46 255M57 269L30 326M2617 269L2514 255M129 290L220 255M129 290L192 379M220 255L294 310M220 255L192 379M294 310L351 311M294 310L258 381M294 310L321 368M351 311L456 293M351 311L321 368M351 311L414 372M456 293L488 240M456 293L414 372M456 293L504 383M608 286L675 314M608 286L572 391M608 286L662 355M675 314L729 290M675 314L662 355M675 314L736 363M729 290L832 272M729 290L662 355M729 290L736 363M832 272L830 326M947 312L971 315M947 312L958 369M947 312L1037 336M947 312L922 415M971 315L958 369M971 315L1037 336M971 315L922 415M1105 306L1153 310M1105 306L1037 336M1105 306L1108 363M1153 310L1108 363M1153 310L1168 396M1153 310L1214 340M1270 295L1327 288M1270 295L1363 284M1270 295L1214 340M1270 295L1309 367M1327 288L1363 284M1327 288L1309 367M1363 284L1387 357M1499 262L1570 303M1499 262L1457 325M1499 262L1550 328M1570 303L1677 290M1570 303L1550 328M1570 303L1635 323M1677 290L1727 271M1677 290L1635 323M1677 290L1709 337M1727 271L1826 295M1727 271L1635 323M1727 271L1709 337M1826 295L1847 309M1847 309L1813 385M1847 309L1905 370M1847 309L1858 407M1973 250L2049 263M1973 250L2027 338M2049 263L2083 318M2049 263L2027 338M2083 318L2027 338M2083 318L2157 327M2171 266L2157 327M2171 266L2194 341M2271 312L2194 341M2271 312L2292 395M2381 303L2350 395M2381 303L2434 323M2478 250L2514 255M2478 250L2434 323M2514 255L2537 354M30 326L81 397M30 326L-23 354M30 326L74 420M2590 326L2537 354M81 397L74 420M81 397L151 444M81 397L178 431M81 397L102 507M192 379L258 381M192 379L151 444M192 379L178 431M258 381L321 368M258 381L178 431M258 381L319 406M321 368L319 406M321 368L367 442M414 372L504 383M414 372L367 442M414 372L406 454M504 383L572 391M504 383L539 469M504 383L587 402M572 391L539 469M572 391L587 402M662 355L736 363M662 355L587 402M736 363L830 326M736 363L728 465M958 369L1037 336M958 369L922 415M958 369L976 463M1037 336L1108 363M1108 363L1168 396M1108 363L1158 435M1168 396L1214 340M1168 396L1158 435M1168 396L1265 458M1214 340L1309 367M1309 367L1387 357M1309 367L1314 459M1387 357L1457 325M1387 357L1392 418M1457 325L1550 328M1457 325L1392 418M1550 328L1635 323M1635 323L1709 337M1709 337L1732 445M1813 385L1905 370M1813 385L1732 445M1813 385L1789 451M1813 385L1858 407M1905 370L1943 368M1905 370L1858 407M1905 370L1967 441M1943 368L2027 338M1943 368L1858 407M1943 368L1967 441M1943 368L2014 435M2157 327L2194 341M2157 327L2158 412M2157 327L2190 415M2194 341L2158 412M2194 341L2190 415M2292 395L2350 395M2292 395L2190 415M2292 395L2286 449M2350 395L2286 449M2350 395L2399 424M2434 323L2537 354M2537 354L2507 428M74 420L151 444M74 420L178 431M74 420L102 507M151 444L178 431M151 444L102 507M319 406L367 442M319 406L406 454M319 406L271 490M367 442L406 454M367 442L433 515M406 454L384 545M406 454L433 515M539 469L587 402M539 469L525 524M539 469L573 544M702 462L728 465M702 462L738 493M728 465L738 493M728 465L822 496M728 465L757 566M841 475L922 415M841 475L738 493M841 475L822 496M922 415L976 463M976 463L1070 480M976 463L960 552M976 463L1074 515M1070 480L1158 435M1070 480L1074 515M1158 435L1265 458M1158 435L1207 529M1265 458L1314 459M1265 458L1207 529M1314 459L1392 418M1314 459L1338 552M1314 459L1372 491M1392 418L1446 476M1392 418L1372 491M1446 476L1531 467M1446 476L1372 491M1446 476L1459 517M1531 467L1616 465M1531 467L1459 517M1531 467L1550 505M1616 465L1550 505M1616 465L1657 540M1732 445L1789 451M1732 445L1738 500M1732 445L1791 484M1789 451L1858 407M1789 451L1738 500M1789 451L1791 484M1967 441L2014 435M1967 441L1941 495M2014 435L1941 495M2014 435L2039 534M2014 435L2088 481M2158 412L2190 415M2158 412L2088 481M2190 415L2286 449M2286 449L2313 545M2286 449L2334 508M2399 424L2425 472M2399 424L2507 428M2399 424L2334 508M2399 424L2472 504M2425 472L2507 428M2425 472L2472 504M2507 428L2472 504M2507 428L2545 518M63 523L102 507M63 523L-15 518M63 523L40 569M63 523L84 608M2623 523L2545 518M102 507L40 569M214 556L271 490M214 556L206 634M271 490L354 572M384 545L433 515M384 545L354 572M384 545L410 611M433 515L525 524M433 515L410 611M525 524L573 544M525 524L549 606M573 544L645 552M573 544L549 606M573 544L596 607M645 552L596 607M645 552L659 579M738 493L822 496M738 493L757 566M822 496L757 566M822 496L869 585M945 559L960 552M945 559L869 585M945 559L950 564M945 559L975 619M960 552L869 585M960 552L950 564M960 552L975 619M1074 515L1159 545M1159 545L1207 529M1159 545L1117 621M1159 545L1215 611M1207 529L1215 611M1338 552L1372 491M1338 552L1342 574M1372 491L1342 574M1459 517L1550 505M1550 505L1513 609M1550 505L1524 595M1657 540L1738 500M1657 540L1628 607M1738 500L1791 484M1738 500L1795 596M1908 546L1941 495M1908 546L1795 596M1908 546L1873 606M1908 546L1956 589M1908 546L2011 576M1941 495L1956 589M2039 534L2088 481M2039 534L1956 589M2039 534L2011 576M2039 534L2098 571M2088 481L2098 571M2233 546L2313 545M2233 546L2334 508M2233 546L2220 634M2313 545L2334 508M2313 545L2315 613M2313 545L2341 624M2472 504L2545 518M2472 504L2522 604M2545 518L2600 569M2545 518L2522 604M-15 518L40 569M40 569L84 608M40 569L-38 604M2600 569L2522 604M84 608L39 708M84 608L98 686M206 634L311 609M206 634L178 692M206 634L288 688M311 609L354 572M311 609L288 688M311 609L357 644M354 572L410 611M354 572L357 644M410 611L357 644M410 611L447 668M549 606L596 607M549 606L537 641M549 606L596 673M596 607L659 579M596 607L596 673M659 579L757 566M659 579L733 647M757 566L733 647M869 585L950 564M869 585L856 670M950 564L975 619M975 619L925 694M975 619L1033 683M1117 621L1173 640M1117 621L1215 611M1117 621L1083 709M1117 621L1125 658M1173 640L1215 611M1173 640L1125 658M1173 640L1251 681M1173 640L1188 722M1215 611L1251 681M1342 574L1421 638M1342 574L1372 656M1421 638L1513 609M1421 638L1372 656M1421 638L1458 642M1421 638L1442 729M1513 609L1524 595M1513 609L1458 642M1513 609L1531 691M1524 595L1628 607M1524 595L1458 642M1524 595L1531 691M1628 607L1710 637M1628 607L1668 668M1710 637L1795 596M1710 637L1668 668M1710 637L1695 695M1710 637L1807 643M1795 596L1873 606M1795 596L1807 643M1873 606L1956 589M1873 606L1807 643M1873 606L1868 708M1956 589L2011 576M2011 576L2098 571M2098 571L2058 675M2220 634L2315 613M2220 634L2167 688M2220 634L2307 661M2315 613L2341 624M2315 613L2307 661M2315 613L2386 658M2341 624L2307 661M2341 624L2386 658M2458 633L2522 604M2458 633L2386 658M2458 633L2467 719M2458 633L2483 642M2522 604L2483 642M39 708L98 686M39 708L-77 642M39 708L27 767M39 708L140 733M2599 708L2483 642M98 686L178 692M98 686L27 767M98 686L140 733M178 692L140 733M178 692L193 796M288 688L357 644M288 688L374 726M357 644L374 726M447 668L537 641M447 668L374 726M447 668L462 759M537 641L596 673M537 641L539 745M596 673L693 716M596 673L539 745M693 716L733 647M693 716L706 752M693 716L676 811M856 670L925 694M925 694L946 755M1033 683L1083 709M1033 683L1010 777M1033 683L1080 748M1083 709L1125 658M1083 709L1010 777M1083 709L1080 748M1125 658L1188 722M1251 681L1188 722M1251 681L1266 721M1251 681L1300 736M1339 714L1372 656M1339 714L1266 721M1339 714L1300 736M1339 714L1405 779M1458 642L1531 691M1458 642L1442 729M1531 691L1442 729M1531 691L1592 741M1668 668L1695 695M1668 668L1698 766M1695 695L1674 771M1695 695L1698 766M1695 695L1762 759M1807 643L1868 708M1807 643L1762 759M1868 708L1989 700M1868 708L1888 794M1868 708L1966 745M1989 700L2058 675M1989 700L1966 745M1989 700L2028 730M1989 700L2081 740M2058 675L2141 719M2058 675L2028 730M2058 675L2081 740M2141 719L2167 688M2141 719L2028 730M2141 719L2081 740M2141 719L2171 747M2167 688L2171 747M2307 661L2386 658M2307 661L2314 736M2386 658L2390 732M2467 719L2483 642M2467 719L2390 732M2467 719L2455 794M2467 719L2484 799M27 767L75 868M140 733L193 796M140 733L150 808M193 796L150 808M193 796L229 823M193 796L138 882M297 785L229 823M297 785L299 836M297 785L374 839M374 726L462 759M374 726L414 815M462 759L539 745M462 759L414 815M539 745L589 796M539 745L554 840M589 796L554 840M589 796L609 861M589 796L676 811M706 752L748 797M706 752L807 785M706 752L676 811M748 797L807 785M748 797L676 811M748 797L762 843M748 797L816 810M807 785L762 843M807 785L816 810M807 785L884 861M946 755L1010 777M1010 777L1080 748M1010 777L1035 809M1080 748L1035 809M1080 748L1112 820M1188 722L1266 721M1266 721L1300 736M1266 721L1305 828M1300 736L1305 828M1405 779L1442 729M1405 779L1433 808M1442 729L1433 808M1592 741L1674 771M1592 741L1566 827M1592 741L1650 802M1674 771L1698 766M1674 771L1762 759M1674 771L1650 802M1698 766L1762 759M1698 766L1650 802M1888 794L1966 745M1888 794L1805 865M1888 794L1847 873M1888 794L1930 853M1966 745L2028 730M1966 745L1930 853M2028 730L2081 740M2081 740L2171 747M2171 747L2208 832M2314 736L2390 732M2390 732L2455 794M2455 794L2484 799M2455 794L2451 847M2484 799L2451 847M2484 799L2521 866M2484 799L2493 893M75 868L150 808M75 868L60 892M75 868L138 882M75 868L45 969M150 808L229 823M150 808L138 882M229 823L299 836M299 836L374 839M299 836L307 900M374 839L414 815M374 839L307 900M374 839L384 888M414 815L384 888M554 840L609 861M609 861L676 811M609 861L611 949M609 861L593 965M762 843L816 810M762 843L764 903M762 843L811 914M816 810L884 861M816 810L764 903M884 861L811 914M884 861L889 932M884 861L1003 908M1035 809L1112 820M1035 809L1003 908M1035 809L1058 891M1112 820L1180 867M1112 820L1058 891M1180 867L1267 840M1180 867L1181 941M1180 867L1271 913M1267 840L1305 828M1267 840L1271 913M1305 828L1271 913M1305 828L1342 924M1433 808L1483 877M1433 808L1407 890M1483 877L1566 827M1483 877L1407 890M1483 877L1466 955M1483 877L1549 918M1566 827L1549 918M1650 802L1699 878M1650 802L1682 885M1699 878L1805 865M1699 878L1665 931M1699 878L1682 885M1805 865L1847 873M1805 865L1838 923M1805 865L1843 958M1847 873L1930 853M1847 873L1838 923M1847 873L1843 958M1930 853L2017 860M1930 853L1996 920M2017 860L2105 871M2017 860L1996 920M2017 860L2063 926M2105 871L2063 926M2105 871L2141 892M2105 871L2170 898M2208 832L2240 872M2208 832L2141 892M2208 832L2170 898M2240 872L2170 898M2240 872L2260 947M2399 880L2451 847M2399 880L2382 890M2399 880L2470 914M2399 880L2493 893M2399 880L2416 970M2451 847L2521 866M2451 847L2493 893M2521 866L2620 892M2521 866L2470 914M2521 866L2493 893M-39 866L60 892M60 892L138 882M60 892L45 969M138 882L228 950M228 950L307 900M228 950L134 1005M228 950L219 989M228 950L309 966M307 900L384 888M307 900L309 966M384 888L449 952M384 888L468 963M449 952L494 949M449 952L468 963M449 952L493 970M449 952L459 1064M494 949L468 963M494 949L493 970M494 949L593 965M611 949L716 958M611 949L593 965M611 949L702 965M611 949L573 1047M716 958L764 903M716 958L702 965M716 958L720 1038M716 958L719 1050M764 903L811 914M764 903L702 965M811 914L889 932M889 932L878 1031M889 932L950 1010M889 932L976 970M1003 908L1058 891M1003 908L976 970M1058 891L1122 961M1181 941L1271 913M1181 941L1100 1015M1181 941L1122 961M1181 941L1204 1037M1271 913L1342 924M1342 924L1407 890M1342 924L1357 978M1342 924L1376 992M1407 890L1466 955M1407 890L1376 992M1466 955L1376 992M1466 955L1450 1008M1466 955L1543 998M1549 918L1665 931M1549 918L1543 998M1549 918L1627 984M1665 931L1682 885M1665 931L1627 984M1665 931L1732 980M1682 885L1732 980M1838 923L1843 958M1838 923L1831 989M1838 923L1881 1010M1843 958L1831 989M1843 958L1881 1010M1996 920L2063 926M1996 920L1989 1023M2063 926L2141 892M2063 926L2079 1000M2141 892L2170 898M2141 892L2189 969M2170 898L2189 969M2260 947L2189 969M2260 947L2240 1023M2260 947L2295 1041M2260 947L2330 1042M2382 890L2470 914M2382 890L2416 970M2470 914L2493 893M2470 914L2416 970M45 969L134 1005M45 969L-58 1012M2605 969L2502 1012M134 1005L219 989M134 1005L100 1087M134 1005L176 1051M219 989L309 966M219 989L337 1005M219 989L176 1051M309 966L337 1005M309 966L314 1083M337 1005L314 1083M337 1005L397 1082M468 963L493 970M468 963L459 1064M493 970L593 965M593 965L573 1047M702 965L720 1038M702 965L719 1050M720 1038L719 1050M720 1038L727 1117M720 1038L822 1069M878 1031L950 1010M878 1031L822 1069M878 1031L934 1043M878 1031L966 1045M950 1010L976 970M950 1010L934 1043M950 1010L966 1045M976 970L934 1043M976 970L966 1045M1100 1015L1122 961M1100 1015L1204 1037M1100 1015L1107 1042M1100 1015L1128 1119M1122 961L1107 1042M1204 1037L1107 1042M1204 1037L1208 1109M1357 978L1376 992M1357 978L1450 1008M1357 978L1331 1094M1376 992L1450 1008M1450 1008L1543 998M1450 1008L1409 1093M1543 998L1627 984M1543 998L1604 1050M1627 984L1732 980M1627 984L1604 1050M1732 980L1831 989M1732 980L1708 1085M1831 989L1881 1010M1881 1010L1989 1023M1881 1010L1884 1107M1989 1023L2079 1000M1989 1023L1999 1075M1989 1023L2042 1041M2079 1000L2119 1037M2079 1000L2042 1041M2079 1000L2117 1087M2119 1037L2189 969M2119 1037L2042 1041M2119 1037L2117 1087M2189 969L2240 1023M2240 1023L2230 1089M2240 1023L2295 1041M2240 1023L2330 1042M2392 1009L2416 970M2392 1009L2502 1012M2392 1009L2295 1041M2392 1009L2330 1042M2392 1009L2478 1094M2416 970L2502 1012M2502 1012L2478 1094M2502 1012L2534 1091M33 1108L100 1087M33 1108L-26 1091M33 1108L20 1191M33 1108L119 1160M33 1108L-13 1142M2593 1108L2534 1091M2593 1108L2547 1142M100 1087L176 1051M100 1087L119 1160M100 1087L186 1160M176 1051L186 1160M176 1051L259 1138M314 1083L397 1082M314 1083L259 1138M397 1082L459 1064M397 1082L383 1180M397 1082L483 1133M459 1064L502 1080M459 1064L483 1133M502 1080L573 1047M502 1080L483 1133M502 1080L598 1136M573 1047L598 1136M719 1050L727 1117M719 1050L822 1069M727 1117L766 1190M727 1117L828 1150M727 1117L758 1203M822 1069L934 1043M822 1069L828 1150M934 1043L966 1045M966 1045L1013 1158M1107 1042L1128 1119M1128 1119L1208 1109M1128 1119L1071 1160M1128 1119L1143 1193M1208 1109L1211 1181M1208 1109L1305 1121M1331 1094L1409 1093M1331 1094L1305 1121M1409 1093L1495 1116M1409 1093L1431 1136M1409 1093L1505 1132M1495 1116L1520 1118M1495 1116L1431 1136M1495 1116L1505 1132M1495 1116L1541 1190M1520 1118L1604 1050M1520 1118L1431 1136M1520 1118L1505 1132M1520 1118L1541 1190M1604 1050L1708 1085M1604 1050L1626 1149M1708 1085L1785 1111M1708 1085L1626 1149M1708 1085L1746 1154M1785 1111L1884 1107M1785 1111L1746 1154M1785 1111L1789 1190M1884 1107L1846 1192M1884 1107L1931 1183M1999 1075L2042 1041M1999 1075L2030 1158M2042 1041L2117 1087M2117 1087L2139 1175M2230 1089L2295 1041M2230 1089L2330 1042M2230 1089L2212 1188M2230 1089L2306 1169M2295 1041L2330 1042M2478 1094L2534 1091M2478 1094L2445 1145M2478 1094L2547 1142M2534 1091L2445 1145M2534 1091L2547 1142M20 1191L-13 1142M20 1191L65 1257M20 1191L105 1229M20 1191L-41 1237M2580 1191L2547 1142M2580 1191L2519 1237M119 1160L186 1160M119 1160L65 1257M119 1160L105 1229M186 1160L259 1138M186 1160L202 1261M259 1138L314 1212M383 1180L468 1185M383 1180L314 1212M383 1180L350 1230M383 1180L434 1270M468 1185L483 1133M468 1185L434 1270M468 1185L503 1227M468 1185L525 1286M483 1133L503 1227M598 1136L671 1198M598 1136L668 1231M671 1198L766 1190M671 1198L668 1231M671 1198L758 1203M671 1198L662 1294M766 1190L828 1150M766 1190L758 1203M766 1190L810 1268M828 1150L899 1146M828 1150L758 1203M899 1146L1013 1158M899 1146L975 1201M1013 1158L1071 1160M1013 1158L975 1201M1013 1158L1071 1251M1071 1160L1143 1193M1071 1160L975 1201M1071 1160L1071 1251M1143 1193L1211 1181M1143 1193L1200 1248M1211 1181L1305 1121M1211 1181L1200 1248M1431 1136L1505 1132M1431 1136L1481 1237M1505 1132L1541 1190M1541 1190L1481 1237M1541 1190L1596 1266M1626 1149L1701 1208M1746 1154L1789 1190M1746 1154L1701 1208M1789 1190L1846 1192M1789 1190L1701 1208M1789 1190L1828 1252M1846 1192L1931 1183M1846 1192L1828 1252M1846 1192L1861 1276M1931 1183L2030 1158M1931 1183L1939 1243M2030 1158L2139 1175M2030 1158L1939 1243M2030 1158L2016 1256M2139 1175L2212 1188M2139 1175L2149 1237M2139 1175L2173 1277M2212 1188L2306 1169M2212 1188L2149 1237M2212 1188L2298 1244M2306 1169L2326 1159M2306 1169L2298 1244M2306 1169L2378 1201M2326 1159L2298 1244M2326 1159L2378 1201M2445 1145L2547 1142M2445 1145L2378 1201M2445 1145L2433 1242M65 1257L105 1229M65 1257L74 1290M65 1257L86 1343M105 1229L202 1261M105 1229L74 1290M202 1261L314 1212M202 1261L167 1327M202 1261L284 1339M314 1212L350 1230M314 1212L329 1319M350 1230L329 1319M434 1270L503 1227M434 1270L428 1350M434 1270L525 1286M503 1227L571 1269M503 1227L525 1286M571 1269L668 1231M571 1269L525 1286M571 1269L662 1294M571 1269L579 1367M668 1231L662 1294M758 1203L810 1268M810 1268L773 1308M810 1268L828 1334M810 1268L788 1371M923 1262L975 1201M923 1262L948 1343M1071 1251L1023 1341M1071 1251L1054 1346M1071 1251L1137 1305M1200 1248L1202 1279M1200 1248L1137 1305M1202 1279L1295 1270M1202 1279L1137 1305M1202 1279L1232 1328M1202 1279L1199 1368M1295 1270L1400 1261M1295 1270L1232 1328M1295 1270L1310 1336M1400 1261L1481 1237M1400 1261L1420 1353M1400 1261L1483 1326M1481 1237L1483 1326M1596 1266L1663 1270M1596 1266L1599 1329M1596 1266L1622 1297M1596 1266L1606 1360M1663 1270L1701 1208M1663 1270L1599 1329M1663 1270L1622 1297M1663 1270L1734 1281M1701 1208L1734 1281M1828 1252L1861 1276M1861 1276L1939 1243M1861 1276L1873 1351M1861 1276L1964 1298M1939 1243L2016 1256M1939 1243L1964 1298M2016 1256L1964 1298M2016 1256L2055 1324M2149 1237L2173 1277M2149 1237L2148 1290M2149 1237L2207 1297M2173 1277L2148 1290M2173 1277L2207 1297M2298 1244L2378 1201M2378 1201L2433 1242M2433 1242L2519 1237M2433 1242L2435 1292M2433 1242L2500 1340M2519 1237L2435 1292M74 1290L86 1343M74 1290L167 1327M74 1290L97 1375M86 1343L167 1327M86 1343L21 1418M86 1343L97 1375M167 1327L97 1375M167 1327L180 1365M284 1339L329 1319M284 1339L180 1365M284 1339L263 1382M329 1319L263 1382M428 1350L395 1408M428 1350L442 1373M428 1350L482 1393M525 1286L579 1367M635 1350L662 1294M635 1350L579 1367M635 1350L717 1395M662 1294L773 1308M773 1308L828 1334M773 1308L717 1395M773 1308L788 1371M828 1334L788 1371M828 1334L879 1415M828 1334L881 1418M948 1343L1023 1341M948 1343L879 1415M948 1343L881 1418M948 1343L1012 1399M1023 1341L1054 1346M1023 1341L1012 1399M1023 1341L1114 1365M1054 1346L1012 1399M1054 1346L1114 1365M1137 1305L1114 1365M1137 1305L1199 1368M1232 1328L1310 1336M1232 1328L1199 1368M1232 1328L1262 1389M1310 1336L1420 1353M1310 1336L1262 1389M1310 1336L1285 1399M1420 1353L1483 1326M1420 1353L1409 1420M1420 1353L1496 1405M1483 1326L1496 1405M1599 1329L1622 1297M1599 1329L1546 1410M1599 1329L1606 1360M1622 1297L1734 1281M1622 1297L1606 1360M1734 1281L1772 1345M1734 1281L1743 1371M1772 1345L1873 1351M1772 1345L1743 1371M1772 1345L1820 1387M1772 1345L1878 1373M1873 1351L1820 1387M1873 1351L1878 1373M1873 1351L1952 1378M1964 1298L2055 1324M1964 1298L1952 1378M2055 1324L2148 1290M2055 1324L2007 1408M2148 1290L2207 1297M2207 1297L2238 1364M2207 1297L2243 1362M2302 1351L2341 1334M2302 1351L2238 1364M2302 1351L2243 1362M2302 1351L2334 1372M2341 1334L2435 1292M2341 1334L2334 1372M2435 1292L2500 1340M2435 1292L2428 1398M2500 1340L2428 1398M2500 1340L2536 1397M21 1418L97 1375M21 1418L-24 1397M2581 1418L2536 1397M97 1375L180 1365M180 1365L263 1382M395 1408L442 1373M395 1408L482 1393M442 1373L482 1393M717 1395L788 1371M879 1415L881 1418M1199 1368L1262 1389M1262 1389L1285 1399M1409 1420L1496 1405M1496 1405L1546 1410M1546 1410L1606 1360M1743 1371L1820 1387M1820 1387L1878 1373M1878 1373L1952 1378M1952 1378L2007 1408M2238 1364L2243 1362M2238 1364L2334 1372M2243 1362L2334 1372M2428 1398L2536 1397"/></svg>