<svg xmlns="http://www.w3.org/2000/svg" width="2560" height="1440" fill="#fff"><circle cx="18" cy="44" r="4"/><circle cx="158" cy="34" r="5"/><circle cx="169" cy="13" r="6"/><circle cx="280" cy="6" r="5"/><circle cx="376" cy="1" r="6"/><circle cx="376" cy="1441" r="6"/><circle cx="465" cy="31" r="5"/><circle cx="534" cy="32" r="6"/><circle cx="629" cy="39" r="5"/><circle cx="702" cy="61" r="6"/><circle cx="791" cy="42" r="4"/><circle cx="878" cy="34" r="6"/><circle cx="895" cy="8" r="4"/><circle cx="992" cy="77" r="5"/><circle cx="1072" cy="29" r="4"/><circle cx="1181" cy="61" r="5"/><circle cx="1215" cy="35" r="5"/><circle cx="1283" cy="47" r="5"/><circle cx="1404" cy="66" r="4"/><circle cx="1458" cy="49" r="4"/><circle cx="1566" cy="22" r="6"/><circle cx="1673" cy="39" r="5"/><circle cx="1731" cy="67" r="4"/><circle cx="1792" cy="25" r="5"/><circle cx="1871" cy="38" r="5"/><circle cx="1938" cy="68" r="6"/><circle cx="2027" cy="12" r="5"/><circle cx="2091" cy="29" r="5"/><circle cx="2205" cy="71" r="5"/><circle cx="2264" cy="4" r="5"/><circle cx="2264" cy="1444" r="5"/><circle cx="2331" cy="1" r="6"/><circle cx="2331" cy="1441" r="6"/><circle cx="2406" cy="29" r="5"/><circle cx="2555" cy="4" r="5"/><circle cx="-5" cy="4" r="5"/><circle cx="-5" cy="1444" r="5"/><circle cx="2555" cy="1444" r="5"/><circle cx="42" cy="120" r="5"/><circle cx="128" cy="86" r="6"/><circle cx="195" cy="151" r="6"/><circle cx="315" cy="154" r="6"/><circle cx="393" cy="122" r="5"/><circle cx="430" cy="105" r="6"/><circle cx="515" cy="136" r="6"/><circle cx="626" cy="153" r="4"/><circle cx="673" cy="85" r="5"/><circle cx="721" cy="123" r="5"/><circle cx="828" cy="94" r="4"/><circle cx="951" cy="127" r="5"/><circle cx="992" cy="148" r="4"/><circle cx="1084" cy="125" r="4"/><circle cx="1125" cy="157" r="4"/><circle cx="1216" cy="135" r="6"/><circle cx="1287" cy="144" r="5"/><circle cx="1421" cy="81" r="4"/><circle cx="1444" cy="146" r="4"/><circle cx="1572" cy="84" r="4"/><circle cx="1666" cy="87" r="6"/><circle cx="1715" cy="137" r="5"/><circle cx="1777" cy="136" r="6"/><circle cx="1897" cy="142" r="6"/><circle cx="1982" cy="158" r="5"/><circle cx="2052" cy="131" r="5"/><circle cx="2087" cy="153" r="6"/><circle cx="2227" cy="133" r="4"/><circle cx="2247" cy="118" r="5"/><circle cx="2399" cy="154" r="5"/><circle cx="2419" cy="146" r="5"/><circle cx="2558" cy="131" r="4"/><circle cx="-2" cy="131" r="4"/><circle cx="9" cy="208" r="5"/><circle cx="135" cy="176" r="5"/><circle cx="179" cy="207" r="6"/><circle cx="279" cy="233" r="5"/><circle cx="360" cy="232" r="6"/><circle cx="463" cy="188" r="6"/><circle cx="530" cy="212" r="5"/><circle cx="622" cy="176" r="5"/><circle cx="677" cy="226" r="6"/><circle cx="757" cy="197" r="5"/><circle cx="845" cy="240" r="5"/><circle cx="897" cy="181" r="5"/><circle cx="995" cy="210" r="6"/><circle cx="1089" cy="209" r="5"/><circle cx="1174" cy="169" r="5"/><circle cx="1235" cy="214" r="5"/><circle cx="1347" cy="206" r="4"/><circle cx="1416" cy="197" r="6"/><circle cx="1466" cy="174" r="6"/><circle cx="1524" cy="183" r="6"/><circle cx="1659" cy="240" r="5"/><circle cx="1708" cy="177" r="4"/><circle cx="1808" cy="219" r="5"/><circle cx="1852" cy="165" r="4"/><circle cx="1993" cy="199" r="5"/><circle cx="2015" cy="227" r="6"/><circle cx="2154" cy="216" r="4"/><circle cx="2209" cy="167" r="4"/><circle cx="2273" cy="170" r="5"/><circle cx="2399" cy="229" r="4"/><circle cx="2416" cy="193" r="6"/><circle cx="2496" cy="177" r="5"/><circle cx="73" cy="319" r="4"/><circle cx="126" cy="252" r="5"/><circle cx="160" cy="300" r="6"/><circle cx="302" cy="246" r="5"/><circle cx="326" cy="265" r="5"/><circle cx="473" cy="303" r="5"/><circle cx="494" cy="294" r="4"/><circle cx="573" cy="295" r="6"/><circle cx="655" cy="277" r="5"/><circle cx="737" cy="275" r="4"/><circle cx="851" cy="310" r="6"/><circle cx="907" cy="316" r="4"/><circle cx="965" cy="248" r="4"/><circle cx="1091" cy="304" r="6"/><circle cx="1128" cy="308" r="4"/><circle cx="1213" cy="303" r="5"/><circle cx="1345" cy="287" r="4"/><circle cx="1374" cy="300" r="6"/><circle cx="1468" cy="288" r="5"/><circle cx="1557" cy="316" r="6"/><circle cx="1656" cy="315" r="5"/><circle cx="1751" cy="280" r="5"/><circle cx="1820" cy="310" r="4"/><circle cx="1890" cy="244" r="4"/><circle cx="1971" cy="307" r="5"/><circle cx="2078" cy="319" r="6"/><circle cx="2095" cy="250" r="5"/><circle cx="2213" cy="248" r="4"/><circle cx="2249" cy="279" r="4"/><circle cx="2348" cy="283" r="5"/><circle cx="2420" cy="255" r="6"/><circle cx="2486" cy="298" r="4"/><circle cx="35" cy="353" r="4"/><circle cx="151" cy="337" r="5"/><circle cx="180" cy="332" r="4"/><circle cx="242" cy="362" r="5"/><circle cx="391" cy="353" r="6"/><circle cx="449" cy="357" r="6"/><circle cx="520" cy="373" r="6"/><circle cx="610" cy="355" r="5"/><circle cx="644" cy="333" r="6"/><circle cx="727" cy="367" r="4"/><circle cx="869" cy="323" r="5"/><circle cx="914" cy="342" r="4"/><circle cx="980" cy="372" r="4"/><circle cx="1101" cy="321" r="5"/><circle cx="1196" cy="357" r="4"/><circle cx="1238" cy="350" r="6"/><circle cx="1308" cy="349" r="4"/><circle cx="1378" cy="373" r="5"/><circle cx="1454" cy="398" r="5"/><circle cx="1600" cy="382" r="4"/><circle cx="1647" cy="355" r="5"/><circle cx="1728" cy="371" r="5"/><circle cx="1794" cy="395" r="5"/><circle cx="1848" cy="365" r="6"/><circle cx="1944" cy="355" r="5"/><circle cx="2004" cy="384" r="4"/><circle cx="2085" cy="351" r="5"/><circle cx="2240" cy="347" r="5"/><circle cx="2319" cy="333" r="5"/><circle cx="2356" cy="380" r="6"/><circle cx="2404" cy="341" r="4"/><circle cx="2550" cy="378" r="4"/><circle cx="68" cy="447" r="4"/><circle cx="144" cy="420" r="5"/><circle cx="193" cy="473" r="6"/><circle cx="250" cy="413" r="4"/><circle cx="374" cy="404" r="5"/><circle cx="430" cy="409" r="5"/><circle cx="558" cy="461" r="4"/><circle cx="610" cy="428" r="5"/><circle cx="659" cy="432" r="4"/><circle cx="796" cy="439" r="6"/><circle cx="829" cy="438" r="5"/><circle cx="898" cy="475" r="4"/><circle cx="1008" cy="460" r="5"/><circle cx="1066" cy="418" r="5"/><circle cx="1164" cy="448" r="5"/><circle cx="1216" cy="454" r="5"/><circle cx="1316" cy="459" r="4"/><circle cx="1395" cy="464" r="5"/><circle cx="1493" cy="412" r="6"/><circle cx="1568" cy="434" r="5"/><circle cx="1618" cy="474" r="5"/><circle cx="1700" cy="476" r="6"/><circle cx="1785" cy="420" r="5"/><circle cx="1858" cy="439" r="6"/><circle cx="1951" cy="424" r="5"/><circle cx="2038" cy="447" r="5"/><circle cx="2106" cy="412" r="6"/><circle cx="2165" cy="406" r="5"/><circle cx="2292" cy="419" r="4"/><circle cx="2354" cy="416" r="6"/><circle cx="2463" cy="427" r="4"/><circle cx="2493" cy="457" r="4"/><circle cx="24" cy="526" r="4"/><circle cx="100" cy="497" r="6"/><circle cx="184" cy="493" r="6"/><circle cx="318" cy="480" r="4"/><circle cx="360" cy="535" r="6"/><circle cx="472" cy="484" r="6"/><circle cx="488" cy="517" r="5"/><circle cx="574" cy="505" r="5"/><circle cx="690" cy="551" r="5"/><circle cx="725" cy="528" r="5"/><circle cx="860" cy="503" r="5"/><circle cx="895" cy="484" r="5"/><circle cx="967" cy="528" r="4"/><circle cx="1111" cy="497" r="4"/><circle cx="1143" cy="517" r="6"/><circle cx="1267" cy="544" r="6"/><circle cx="1293" cy="529" r="4"/><circle cx="1360" cy="485" r="6"/><circle cx="1496" cy="548" r="4"/><circle cx="1570" cy="557" r="4"/><circle cx="1626" cy="499" r="4"/><circle cx="1748" cy="516" r="5"/><circle cx="1790" cy="495" r="5"/><circle cx="1912" cy="540" r="5"/><circle cx="1987" cy="494" r="4"/><circle cx="2078" cy="488" r="5"/><circle cx="2126" cy="527" r="5"/><circle cx="2231" cy="500" r="5"/><circle cx="2295" cy="529" r="6"/><circle cx="2344" cy="548" r="6"/><circle cx="2476" cy="539" r="4"/><circle cx="2520" cy="486" r="6"/><circle cx="49" cy="562" r="6"/><circle cx="85" cy="583" r="5"/><circle cx="193" cy="569" r="5"/><circle cx="281" cy="614" r="5"/><circle cx="341" cy="577" r="5"/><circle cx="473" cy="627" r="6"/><circle cx="554" cy="603" r="4"/><circle cx="616" cy="590" r="5"/><circle cx="709" cy="605" r="6"/><circle cx="743" cy="598" r="4"/><circle cx="833" cy="603" r="5"/><circle cx="886" cy="600" r="6"/><circle cx="961" cy="627" r="6"/><circle cx="1072" cy="581" r="4"/><circle cx="1151" cy="563" r="4"/><circle cx="1267" cy="608" r="5"/><circle cx="1330" cy="628" r="6"/><circle cx="1438" cy="568" r="4"/><circle cx="1497" cy="593" r="5"/><circle cx="1549" cy="575" r="4"/><circle cx="1661" cy="566" r="5"/><circle cx="1716" cy="572" r="5"/><circle cx="1801" cy="604" r="5"/><circle cx="1855" cy="616" r="6"/><circle cx="1989" cy="618" r="6"/><circle cx="2069" cy="589" r="5"/><circle cx="2099" cy="574" r="5"/><circle cx="2204" cy="610" r="5"/><circle cx="2261" cy="601" r="6"/><circle cx="2326" cy="622" r="4"/><circle cx="2475" cy="632" r="4"/><circle cx="2551" cy="603" r="5"/><circle cx="25" cy="684" r="4"/><circle cx="101" cy="707" r="5"/><circle cx="222" cy="667" r="5"/><circle cx="286" cy="650" r="5"/><circle cx="349" cy="692" r="5"/><circle cx="412" cy="664" r="4"/><circle cx="525" cy="705" r="5"/><circle cx="638" cy="714" r="6"/><circle cx="668" cy="708" r="5"/><circle cx="768" cy="678" r="4"/><circle cx="836" cy="665" r="4"/><circle cx="904" cy="652" r="6"/><circle cx="1014" cy="647" r="5"/><circle cx="1047" cy="694" r="4"/><circle cx="1148" cy="669" r="4"/><circle cx="1242" cy="665" r="5"/><circle cx="1307" cy="658" r="5"/><circle cx="1400" cy="656" r="5"/><circle cx="1445" cy="705" r="4"/><circle cx="1545" cy="664" r="5"/><circle cx="1649" cy="668" r="5"/><circle cx="1700" cy="683" r="4"/><circle cx="1767" cy="642" r="5"/><circle cx="1875" cy="646" r="4"/><circle cx="1972" cy="685" r="5"/><circle cx="2075" cy="707" r="4"/><circle cx="2157" cy="700" r="5"/><circle cx="2185" cy="690" r="4"/><circle cx="2292" cy="677" r="5"/><circle cx="2354" cy="690" r="6"/><circle cx="2449" cy="695" r="6"/><circle cx="2547" cy="667" r="6"/><circle cx="61" cy="775" r="4"/><circle cx="146" cy="800" r="5"/><circle cx="221" cy="775" r="6"/><circle cx="305" cy="784" r="6"/><circle cx="332" cy="749" r="4"/><circle cx="443" cy="745" r="6"/><circle cx="503" cy="768" r="6"/><circle cx="630" cy="793" r="5"/><circle cx="651" cy="734" r="5"/><circle cx="722" cy="792" r="6"/><circle cx="813" cy="785" r="5"/><circle cx="953" cy="748" r="5"/><circle cx="1036" cy="725" r="4"/><circle cx="1104" cy="760" r="5"/><circle cx="1189" cy="727" r="5"/><circle cx="1263" cy="775" r="5"/><circle cx="1320" cy="744" r="6"/><circle cx="1424" cy="742" r="5"/><circle cx="1520" cy="764" r="5"/><circle cx="1545" cy="722" r="4"/><circle cx="1611" cy="720" r="5"/><circle cx="1757" cy="769" r="5"/><circle cx="1803" cy="794" r="5"/><circle cx="1888" cy="794" r="5"/><circle cx="1943" cy="772" r="6"/><circle cx="2034" cy="741" r="5"/><circle cx="2110" cy="758" r="4"/><circle cx="2237" cy="795" r="6"/><circle cx="2275" cy="722" r="4"/><circle cx="2379" cy="775" r="4"/><circle cx="2423" cy="723" r="4"/><circle cx="2536" cy="771" r="5"/><circle cx="80" cy="857" r="5"/><circle cx="100" cy="871" r="5"/><circle cx="172" cy="834" r="5"/><circle cx="289" cy="807" r="6"/><circle cx="393" cy="810" r="5"/><circle cx="432" cy="840" r="4"/><circle cx="494" cy="874" r="6"/><circle cx="565" cy="801" r="5"/><circle cx="663" cy="859" r="4"/><circle cx="761" cy="833" r="5"/><circle cx="830" cy="822" r="5"/><circle cx="914" cy="806" r="6"/><circle cx="974" cy="805" r="6"/><circle cx="1096" cy="861" r="5"/><circle cx="1152" cy="805" r="5"/><circle cx="1264" cy="802" r="5"/><circle cx="1356" cy="857" r="4"/><circle cx="1434" cy="842" r="5"/><circle cx="1474" cy="859" r="5"/><circle cx="1545" cy="826" r="4"/><circle cx="1643" cy="846" r="5"/><circle cx="1758" cy="816" r="5"/><circle cx="1801" cy="814" r="6"/><circle cx="1881" cy="873" r="5"/><circle cx="1952" cy="812" r="4"/><circle cx="2044" cy="867" r="4"/><circle cx="2141" cy="815" r="5"/><circle cx="2170" cy="831" r="5"/><circle cx="2296" cy="854" r="6"/><circle cx="2354" cy="816" r="5"/><circle cx="2455" cy="866" r="6"/><circle cx="2540" cy="812" r="6"/><circle cx="7" cy="890" r="5"/><circle cx="95" cy="941" r="4"/><circle cx="231" cy="936" r="5"/><circle cx="283" cy="943" r="5"/><circle cx="338" cy="921" r="5"/><circle cx="421" cy="915" r="6"/><circle cx="536" cy="956" r="6"/><circle cx="574" cy="927" r="5"/><circle cx="653" cy="892" r="6"/><circle cx="762" cy="934" r="6"/><circle cx="802" cy="934" r="5"/><circle cx="900" cy="920" r="5"/><circle cx="975" cy="906" r="5"/><circle cx="1090" cy="881" r="4"/><circle cx="1146" cy="946" r="5"/><circle cx="1211" cy="937" r="4"/><circle cx="1326" cy="895" r="6"/><circle cx="1417" cy="937" r="4"/><circle cx="1494" cy="904" r="6"/><circle cx="1561" cy="888" r="5"/><circle cx="1605" cy="896" r="5"/><circle cx="1759" cy="929" r="5"/><circle cx="1804" cy="958" r="5"/><circle cx="1899" cy="915" r="5"/><circle cx="1993" cy="926" r="6"/><circle cx="2027" cy="955" r="6"/><circle cx="2104" cy="914" r="6"/><circle cx="2231" cy="926" r="5"/><circle cx="2277" cy="941" r="6"/><circle cx="2376" cy="944" r="4"/><circle cx="2477" cy="930" r="5"/><circle cx="2529" cy="904" r="6"/><circle cx="73" cy="966" r="5"/><circle cx="120" cy="1007" r="4"/><circle cx="235" cy="1006" r="4"/><circle cx="293" cy="973" r="6"/><circle cx="371" cy="1033" r="6"/><circle cx="438" cy="1024" r="4"/><circle cx="497" cy="1007" r="6"/><circle cx="606" cy="979" r="6"/><circle cx="648" cy="973" r="5"/><circle cx="777" cy="962" r="5"/><circle cx="837" cy="1011" r="5"/><circle cx="952" cy="997" r="6"/><circle cx="984" cy="974" r="6"/><circle cx="1108" cy="1003" r="6"/><circle cx="1158" cy="1003" r="5"/><circle cx="1260" cy="981" r="4"/><circle cx="1351" cy="983" r="4"/><circle cx="1428" cy="961" r="4"/><circle cx="1466" cy="980" r="5"/><circle cx="1584" cy="1007" r="6"/><circle cx="1623" cy="1006" r="4"/><circle cx="1716" cy="1028" r="5"/><circle cx="1770" cy="966" r="4"/><circle cx="1891" cy="1018" r="6"/><circle cx="1999" cy="962" r="5"/><circle cx="2049" cy="997" r="6"/><circle cx="2084" cy="1030" r="6"/><circle cx="2173" cy="966" r="5"/><circle cx="2314" cy="1039" r="5"/><circle cx="2390" cy="968" r="5"/><circle cx="2435" cy="1035" r="5"/><circle cx="2484" cy="972" r="6"/><circle cx="2" cy="1049" r="5"/><circle cx="2562" cy="1049" r="5"/><circle cx="140" cy="1059" r="5"/><circle cx="224" cy="1056" r="5"/><circle cx="283" cy="1103" r="6"/><circle cx="327" cy="1075" r="5"/><circle cx="467" cy="1087" r="4"/><circle cx="491" cy="1067" r="5"/><circle cx="585" cy="1074" r="5"/><circle cx="657" cy="1089" r="6"/><circle cx="767" cy="1088" r="5"/><circle cx="877" cy="1050" r="5"/><circle cx="913" cy="1091" r="5"/><circle cx="1038" cy="1043" r="6"/><circle cx="1083" cy="1053" r="6"/><circle cx="1143" cy="1090" r="6"/><circle cx="1261" cy="1059" r="4"/><circle cx="1329" cy="1046" r="5"/><circle cx="1410" cy="1106" r="5"/><circle cx="1490" cy="1101" r="4"/><circle cx="1561" cy="1096" r="5"/><circle cx="1605" cy="1115" r="5"/><circle cx="1709" cy="1109" r="6"/><circle cx="1766" cy="1119" r="5"/><circle cx="1841" cy="1090" r="6"/><circle cx="1937" cy="1102" r="5"/><circle cx="2021" cy="1103" r="6"/><circle cx="2098" cy="1074" r="4"/><circle cx="2196" cy="1098" r="4"/><circle cx="2281" cy="1114" r="4"/><circle cx="2387" cy="1104" r="5"/><circle cx="2419" cy="1041" r="5"/><circle cx="2506" cy="1073" r="5"/><circle cx="70" cy="1169" r="5"/><circle cx="94" cy="1180" r="5"/><circle cx="177" cy="1129" r="5"/><circle cx="243" cy="1143" r="5"/><circle cx="369" cy="1187" r="6"/><circle cx="478" cy="1153" r="4"/><circle cx="481" cy="1170" r="6"/><circle cx="626" cy="1156" r="6"/><circle cx="693" cy="1129" r="5"/><circle cx="772" cy="1144" r="5"/><circle cx="825" cy="1164" r="4"/><circle cx="922" cy="1158" r="5"/><circle cx="979" cy="1145" r="5"/><circle cx="1051" cy="1182" r="5"/><circle cx="1168" cy="1152" r="4"/><circle cx="1248" cy="1183" r="5"/><circle cx="1330" cy="1164" r="6"/><circle cx="1377" cy="1168" r="4"/><circle cx="1461" cy="1152" r="4"/><circle cx="1554" cy="1128" r="6"/><circle cx="1679" cy="1169" r="6"/><circle cx="1759" cy="1178" r="6"/><circle cx="1821" cy="1136" r="6"/><circle cx="1844" cy="1150" r="5"/><circle cx="1964" cy="1163" r="4"/><circle cx="2074" cy="1179" r="6"/><circle cx="2101" cy="1160" r="4"/><circle cx="2190" cy="1126" r="5"/><circle cx="2281" cy="1136" r="5"/><circle cx="2383" cy="1150" r="5"/><circle cx="2405" cy="1150" r="5"/><circle cx="2488" cy="1160" r="4"/><circle cx="43" cy="1267" r="6"/><circle cx="145" cy="1213" r="4"/><circle cx="235" cy="1263" r="5"/><circle cx="263" cy="1201" r="4"/><circle cx="321" cy="1220" r="5"/><circle cx="423" cy="1233" r="6"/><circle cx="553" cy="1242" r="5"/><circle cx="603" cy="1229" r="5"/><circle cx="653" cy="1272" r="5"/><circle cx="795" cy="1268" r="4"/><circle cx="821" cy="1265" r="4"/><circle cx="913" cy="1240" r="5"/><circle cx="983" cy="1267" r="6"/><circle cx="1043" cy="1223" r="6"/><circle cx="1179" cy="1230" r="5"/><circle cx="1267" cy="1246" r="6"/><circle cx="1329" cy="1232" r="6"/><circle cx="1385" cy="1208" r="6"/><circle cx="1457" cy="1279" r="4"/><circle cx="1543" cy="1230" r="5"/><circle cx="1662" cy="1250" r="4"/><circle cx="1758" cy="1242" r="4"/><circle cx="1796" cy="1224" r="6"/><circle cx="1850" cy="1269" r="4"/><circle cx="1982" cy="1214" r="6"/><circle cx="2014" cy="1247" r="4"/><circle cx="2087" cy="1269" r="4"/><circle cx="2162" cy="1232" r="5"/><circle cx="2274" cy="1234" r="4"/><circle cx="2365" cy="1252" r="4"/><circle cx="2464" cy="1278" r="5"/><circle cx="2511" cy="1235" r="5"/><circle cx="71" cy="1345" r="4"/><circle cx="118" cy="1294" r="5"/><circle cx="222" cy="1294" r="4"/><circle cx="302" cy="1326" r="5"/><circle cx="328" cy="1358" r="5"/><circle cx="440" cy="1340" r="5"/><circle cx="505" cy="1292" r="5"/><circle cx="633" cy="1288" r="5"/><circle cx="642" cy="1319" r="6"/><circle cx="735" cy="1350" r="6"/><circle cx="818" cy="1291" r="4"/><circle cx="933" cy="1315" r="5"/><circle cx="973" cy="1337" r="6"/><circle cx="1098" cy="1331" r="4"/><circle cx="1137" cy="1316" r="5"/><circle cx="1203" cy="1337" r="5"/><circle cx="1291" cy="1308" r="5"/><circle cx="1365" cy="1289" r="4"/><circle cx="1440" cy="1302" r="5"/><circle cx="1536" cy="1281" r="5"/><circle cx="1631" cy="1323" r="6"/><circle cx="1689" cy="1323" r="5"/><circle cx="1805" cy="1316" r="5"/><circle cx="1910" cy="1302" r="5"/><circle cx="1930" cy="1303" r="5"/><circle cx="2074" cy="1293" r="4"/><circle cx="2156" cy="1343" r="5"/><circle cx="2174" cy="1294" r="4"/><circle cx="2280" cy="1321" r="5"/><circle cx="2376" cy="1353" r="4"/><circle cx="2479" cy="1339" r="5"/><circle cx="2536" cy="1311" r="4"/><circle cx="23" cy="1400" r="5"/><circle cx="137" cy="1395" r="5"/><circle cx="216" cy="1436" r="4"/><circle cx="216" cy="-4" r="4"/><circle cx="299" cy="1373" r="5"/><circle cx="327" cy="1413" r="5"/><circle cx="449" cy="1411" r="5"/><circle cx="483" cy="1376" r="5"/><circle cx="606" cy="1372" r="4"/><circle cx="660" cy="1415" r="5"/><circle cx="799" cy="1382" r="6"/><circle cx="836" cy="1411" r="5"/><circle cx="904" cy="1364" r="4"/><circle cx="1015" cy="1385" r="5"/><circle cx="1056" cy="1418" r="5"/><circle cx="1141" cy="1408" r="4"/><circle cx="1211" cy="1364" r="5"/><circle cx="1345" cy="1416" r="5"/><circle cx="1418" cy="1424" r="5"/><circle cx="1513" cy="1401" r="4"/><circle cx="1546" cy="1397" r="4"/><circle cx="1662" cy="1362" r="5"/><circle cx="1756" cy="1395" r="5"/><circle cx="1788" cy="1379" r="5"/><circle cx="1890" cy="1373" r="5"/><circle cx="1993" cy="1362" r="5"/><circle cx="2016" cy="1411" r="5"/><circle cx="2108" cy="1383" r="5"/><circle cx="2181" cy="1434" r="5"/><circle cx="2276" cy="1402" r="6"/><circle cx="2346" cy="1407" r="5"/><circle cx="2441" cy="1378" r="5"/><circle cx="2488" cy="1425" r="6"/><path stroke="#fff" d="M18 44L-5 4M18 44L42 120M18 44L-2 131M18 44L23 -40M2578 44L2555 4M2578 44L2558 131M18 1484L23 1400M158 34L169 13M158 34L128 86M158 34L137 -45M158 34L216 -4M158 1474L137 1395M158 1474L216 1436M169 13L128 86M169 13L137 -45M169 13L216 -4M169 1453L137 1395M169 1453L216 1436M280 6L376 1M280 6L328 -82M280 6L216 -4M280 6L299 -67M280 6L327 -27M280 1446L328 1358M280 1446L216 1436M280 1446L299 1373M280 1446L327 1413M376 1L465 31M376 1L328 -82M376 1L327 -27M376 1L449 -29M376 1441L328 1358M376 1441L327 1413M376 1441L449 1411M465 31L534 32M465 31L430 105M465 31L449 -29M465 31L483 -64M465 1471L449 1411M465 1471L483 1376M534 32L629 39M534 32L515 136M534 32L449 -29M534 32L483 -64M534 1472L449 1411M534 1472L483 1376M629 39L702 61M629 39L673 85M629 39L606 -68M629 39L660 -25M629 1479L606 1372M629 1479L660 1415M702 61L791 42M702 61L673 85M702 61L721 123M702 61L660 -25M702 1501L660 1415M791 42L878 34M791 42L828 94M791 42L799 -58M791 42L836 -29M791 1482L799 1382M791 1482L836 1411M878 34L895 8M878 34L828 94M878 34L799 -58M878 34L836 -29M878 1474L799 1382M878 1474L836 1411M895 8L828 94M895 8L836 -29M895 8L904 -76M895 1448L836 1411M895 1448L904 1364M992 77L1072 29M992 77L951 127M992 77L992 148M992 77L1056 -22M992 1517L1056 1418M1072 29L1084 125M1072 29L1015 -55M1072 29L1056 -22M1072 1469L1015 1385M1072 1469L1056 1418M1181 61L1215 35M1181 61L1283 47M1181 61L1216 135M1181 61L1174 169M1215 35L1283 47M1215 35L1216 135M1215 35L1211 -76M1215 1475L1211 1364M1283 47L1287 144M1283 47L1345 -24M1283 1487L1345 1416M1404 66L1458 49M1404 66L1421 81M1404 66L1444 146M1404 66L1345 -24M1404 66L1418 -16M1404 1506L1345 1416M1404 1506L1418 1424M1458 49L1421 81M1458 49L1418 -16M1458 1489L1418 1424M1566 22L1673 39M1566 22L1572 84M1566 22L1513 -39M1566 22L1546 -43M1566 1462L1513 1401M1566 1462L1546 1397M1673 39L1731 67M1673 39L1666 87M1673 39L1715 137M1673 39L1662 -78M1673 1479L1662 1362M1731 67L1792 25M1731 67L1666 87M1731 67L1715 137M1731 67L1777 136M1792 25L1871 38M1792 25L1756 -45M1792 25L1788 -61M1792 1465L1756 1395M1792 1465L1788 1379M1871 38L1938 68M1871 38L1897 142M1938 68L2027 12M1938 68L1897 142M1938 68L1982 158M1938 68L2016 -29M1938 1508L2016 1411M2027 12L2091 29M2027 12L1993 -78M2027 12L2016 -29M2027 1452L1993 1362M2027 1452L2016 1411M2091 29L2052 131M2091 29L2016 -29M2091 29L2108 -57M2091 1469L2016 1411M2091 1469L2108 1383M2205 71L2264 4M2205 71L2227 133M2205 71L2247 118M2205 71L2181 -6M2205 1511L2181 1434M2264 4L2331 1M2264 4L2181 -6M2264 4L2276 -38M2264 4L2346 -33M2264 1444L2181 1434M2264 1444L2276 1402M2264 1444L2346 1407M2331 1L2406 29M2331 1L2376 -87M2331 1L2276 -38M2331 1L2346 -33M2331 1441L2376 1353M2331 1441L2276 1402M2331 1441L2346 1407M2406 29L2346 -33M2406 29L2441 -62M2406 29L2488 -15M2406 1469L2346 1407M2406 1469L2441 1378M2406 1469L2488 1425M2555 4L2583 -40M2555 4L2488 -15M-5 4L23 -40M-5 1444L23 1400M2555 1444L2583 1400M2555 1444L2488 1425M42 120L128 86M42 120L-2 131M42 120L9 208M42 120L135 176M2602 120L2558 131M128 86L195 151M128 86L135 176M195 151L315 154M195 151L135 176M195 151L179 207M315 154L393 122M315 154L279 233M315 154L360 232M315 154L302 246M393 122L430 105M393 122L463 188M430 105L515 136M430 105L463 188M515 136L463 188M515 136L530 212M515 136L622 176M626 153L673 85M626 153L721 123M626 153L622 176M626 153L677 226M673 85L721 123M721 123L757 197M951 127L992 148M951 127L897 181M951 127L995 210M992 148L1084 125M992 148L897 181M992 148L995 210M1084 125L1125 157M1084 125L1089 209M1125 157L1089 209M1125 157L1174 169M1216 135L1287 144M1216 135L1174 169M1216 135L1235 214M1287 144L1235 214M1287 144L1347 206M1421 81L1444 146M1421 81L1466 174M1421 81L1418 -16M1421 1521L1418 1424M1444 146L1416 197M1444 146L1466 174M1444 146L1524 183M1572 84L1666 87M1572 84L1524 183M1666 87L1715 137M1666 87L1708 177M1715 137L1777 136M1715 137L1708 177M1777 136L1708 177M1777 136L1808 219M1777 136L1852 165M1897 142L1982 158M1897 142L1852 165M1897 142L1993 199M1982 158L2052 131M1982 158L1993 199M1982 158L2015 227M2052 131L2087 153M2052 131L1993 199M2087 153L1993 199M2087 153L2015 227M2087 153L2154 216M2087 153L2095 250M2227 133L2247 118M2227 133L2154 216M2227 133L2209 167M2227 133L2273 170M2247 118L2209 167M2247 118L2273 170M2399 154L2419 146M2399 154L2399 229M2399 154L2416 193M2399 154L2496 177M2419 146L2399 229M2419 146L2416 193M2419 146L2496 177M2558 131L2569 208M2558 131L2496 177M-2 131L9 208M9 208L-64 177M2569 208L2496 177M135 176L179 207M135 176L126 252M179 207L279 233M179 207L126 252M179 207L160 300M279 233L360 232M279 233L302 246M279 233L326 265M360 232L463 188M360 232L302 246M360 232L326 265M463 188L530 212M530 212L622 176M530 212L494 294M622 176L677 226M677 226L757 197M677 226L655 277M677 226L737 275M757 197L845 240M757 197L737 275M845 240L897 181M845 240L851 310M845 240L907 316M845 240L869 323M897 181L995 210M897 181L965 248M995 210L1089 209M995 210L965 248M1089 209L1174 169M1089 209L1091 304M1174 169L1235 214M1235 214L1213 303M1347 206L1416 197M1347 206L1345 287M1416 197L1466 174M1416 197L1524 183M1416 197L1374 300M1466 174L1524 183M1466 174L1468 288M1524 183L1468 288M1659 240L1708 177M1659 240L1656 315M1659 240L1751 280M1808 219L1852 165M1808 219L1751 280M1808 219L1820 310M1808 219L1890 244M1852 165L1890 244M1993 199L2015 227M2015 227L1971 307M2015 227L2095 250M2154 216L2209 167M2154 216L2095 250M2154 216L2213 248M2209 167L2273 170M2209 167L2213 248M2273 170L2213 248M2273 170L2249 279M2399 229L2416 193M2399 229L2348 283M2399 229L2420 255M2416 193L2496 177M2416 193L2420 255M73 319L126 252M73 319L160 300M73 319L35 353M73 319L151 337M73 319L-10 378M2633 319L2550 378M126 252L160 300M126 252L151 337M160 300L151 337M160 300L180 332M302 246L326 265M326 265L391 353M473 303L494 294M473 303L391 353M473 303L449 357M473 303L520 373M494 294L573 295M494 294L449 357M494 294L520 373M573 295L655 277M573 295L520 373M573 295L610 355M573 295L644 333M655 277L737 275M655 277L610 355M655 277L644 333M737 275L727 367M851 310L907 316M851 310L869 323M851 310L914 342M851 310L829 438M907 316L965 248M907 316L869 323M907 316L914 342M965 248L914 342M1091 304L1128 308M1091 304L1101 321M1091 304L1066 418M1128 308L1213 303M1128 308L1101 321M1128 308L1196 357M1213 303L1101 321M1213 303L1196 357M1213 303L1238 350M1345 287L1374 300M1345 287L1308 349M1345 287L1378 373M1374 300L1468 288M1374 300L1308 349M1374 300L1378 373M1468 288L1557 316M1468 288L1454 398M1557 316L1656 315M1557 316L1600 382M1557 316L1647 355M1557 316L1493 412M1656 315L1600 382M1656 315L1647 355M1656 315L1728 371M1751 280L1820 310M1751 280L1728 371M1820 310L1890 244M1820 310L1794 395M1820 310L1848 365M1890 244L1971 307M1971 307L2078 319M1971 307L1944 355M1971 307L2004 384M2078 319L2095 250M2078 319L2085 351M2078 319L2106 412M2095 250L2085 351M2213 248L2249 279M2213 248L2240 347M2249 279L2240 347M2348 283L2420 255M2348 283L2319 333M2348 283L2356 380M2348 283L2404 341M2420 255L2486 298M2420 255L2404 341M35 353L-10 378M35 353L68 447M2595 353L2550 378M151 337L180 332M151 337L144 420M180 332L242 362M180 332L250 413M242 362L250 413M391 353L449 357M391 353L374 404M391 353L430 409M449 357L520 373M449 357L430 409M520 373L610 355M610 355L644 333M610 355L610 428M644 333L727 367M644 333L610 428M727 367L659 432M727 367L796 439M869 323L914 342M914 342L980 372M980 372L1008 460M1101 321L1066 418M1196 357L1238 350M1196 357L1164 448M1238 350L1308 349M1238 350L1216 454M1308 349L1378 373M1378 373L1454 398M1378 373L1395 464M1454 398L1395 464M1454 398L1493 412M1600 382L1647 355M1600 382L1568 434M1600 382L1618 474M1647 355L1728 371M1647 355L1568 434M1728 371L1794 395M1728 371L1785 420M1794 395L1848 365M1794 395L1785 420M1794 395L1858 439M1848 365L1944 355M1848 365L1785 420M1848 365L1858 439M1944 355L2004 384M1944 355L1951 424M2004 384L2085 351M2004 384L1951 424M2004 384L2038 447M2085 351L2106 412M2085 351L2165 406M2240 347L2319 333M2240 347L2165 406M2240 347L2292 419M2319 333L2356 380M2319 333L2404 341M2319 333L2354 416M2356 380L2404 341M2356 380L2292 419M2356 380L2354 416M2404 341L2354 416M2550 378L2463 427M2550 378L2493 457M68 447L144 420M68 447L100 497M144 420L193 473M144 420L184 493M193 473L250 413M193 473L184 493M193 473L193 569M250 413L184 493M250 413L318 480M374 404L430 409M374 404L318 480M374 404L360 535M430 409L472 484M558 461L610 428M558 461L659 432M558 461L472 484M558 461L488 517M558 461L574 505M610 428L659 432M610 428L574 505M659 432L690 551M796 439L829 438M796 439L725 528M796 439L860 503M796 439L895 484M829 438L898 475M829 438L860 503M829 438L895 484M898 475L1008 460M898 475L860 503M898 475L895 484M898 475L967 528M1008 460L1066 418M1008 460L967 528M1066 418L1164 448M1066 418L1111 497M1164 448L1216 454M1164 448L1111 497M1164 448L1143 517M1216 454L1316 459M1216 454L1143 517M1216 454L1267 544M1316 459L1395 464M1316 459L1293 529M1316 459L1360 485M1395 464L1493 412M1395 464L1360 485M1493 412L1568 434M1568 434L1618 474M1568 434L1626 499M1618 474L1700 476M1618 474L1626 499M1700 476L1626 499M1700 476L1748 516M1700 476L1790 495M1700 476L1661 566M1785 420L1858 439M1785 420L1790 495M1858 439L1951 424M1858 439L1790 495M1951 424L2038 447M1951 424L1987 494M2038 447L2106 412M2038 447L1987 494M2038 447L2078 488M2106 412L2165 406M2106 412L2078 488M2292 419L2354 416M2292 419L2231 500M2354 416L2463 427M2463 427L2493 457M2463 427L2476 539M2463 427L2520 486M2493 457L2476 539M2493 457L2520 486M24 526L100 497M24 526L-40 486M24 526L49 562M24 526L85 583M24 526L-9 603M2584 526L2520 486M2584 526L2551 603M100 497L184 493M100 497L49 562M100 497L85 583M184 493L193 569M318 480L360 535M318 480L341 577M360 535L472 484M360 535L341 577M472 484L488 517M472 484L574 505M488 517L574 505M488 517L473 627M488 517L554 603M574 505L616 590M690 551L725 528M690 551L616 590M690 551L709 605M690 551L743 598M725 528L709 605M725 528L743 598M860 503L895 484M860 503L886 600M895 484L967 528M967 528L961 627M1111 497L1143 517M1111 497L1072 581M1111 497L1151 563M1143 517L1072 581M1143 517L1151 563M1267 544L1293 529M1267 544L1360 485M1267 544L1267 608M1267 544L1330 628M1293 529L1360 485M1293 529L1267 608M1360 485L1438 568M1496 548L1570 557M1496 548L1438 568M1496 548L1497 593M1496 548L1549 575M1570 557L1626 499M1570 557L1497 593M1570 557L1549 575M1570 557L1661 566M1626 499L1661 566M1748 516L1790 495M1748 516L1661 566M1748 516L1716 572M1748 516L1801 604M1790 495L1716 572M1912 540L1987 494M1912 540L1855 616M1912 540L1989 618M1912 540L1875 646M2078 488L2126 527M2078 488L2069 589M2078 488L2099 574M2126 527L2231 500M2126 527L2069 589M2126 527L2099 574M2126 527L2204 610M2231 500L2295 529M2295 529L2344 548M2295 529L2261 601M2295 529L2326 622M2344 548L2261 601M2344 548L2326 622M2476 539L2520 486M2476 539L2475 632M2520 486L2609 562M-40 486L49 562M49 562L85 583M49 562L-9 603M2609 562L2551 603M85 583L193 569M85 583L-9 603M2645 583L2551 603M193 569L281 614M193 569L222 667M281 614L341 577M281 614L222 667M281 614L286 650M341 577L286 650M473 627L554 603M473 627L412 664M473 627L525 705M554 603L616 590M616 590L709 605M709 605L743 598M709 605L768 678M743 598L833 603M743 598L768 678M833 603L886 600M833 603L768 678M833 603L836 665M833 603L904 652M886 600L961 627M886 600L836 665M886 600L904 652M961 627L904 652M961 627L1014 647M961 627L1047 694M1072 581L1151 563M1072 581L1014 647M1151 563L1148 669M1267 608L1330 628M1267 608L1242 665M1267 608L1307 658M1330 628L1242 665M1330 628L1307 658M1330 628L1400 656M1438 568L1497 593M1438 568L1400 656M1497 593L1549 575M1497 593L1545 664M1549 575L1545 664M1661 566L1716 572M1716 572L1801 604M1716 572L1767 642M1801 604L1855 616M1801 604L1767 642M1801 604L1875 646M1855 616L1989 618M1855 616L1767 642M1855 616L1875 646M1989 618L2069 589M1989 618L2099 574M1989 618L1972 685M2069 589L2099 574M2069 589L2075 707M2099 574L2204 610M2204 610L2261 601M2204 610L2157 700M2204 610L2185 690M2261 601L2326 622M2261 601L2292 677M2326 622L2292 677M2326 622L2354 690M2475 632L2551 603M2475 632L2449 695M2475 632L2547 667M2475 632L2423 723M2551 603L2547 667M25 684L101 707M25 684L-13 667M25 684L-24 771M2585 684L2547 667M2585 684L2536 771M101 707L61 775M222 667L286 650M222 667L221 775M286 650L349 692M349 692L412 664M349 692L305 784M349 692L332 749M412 664L443 745M525 705L443 745M525 705L503 768M638 714L668 708M638 714L630 793M638 714L651 734M638 714L565 801M668 708L768 678M668 708L651 734M768 678L836 665M836 665L904 652M836 665L813 785M904 652L953 748M1014 647L1047 694M1014 647L1036 725M1047 694L953 748M1047 694L1036 725M1047 694L1104 760M1148 669L1242 665M1148 669L1189 727M1242 665L1307 658M1242 665L1189 727M1307 658L1400 656M1307 658L1320 744M1400 656L1445 705M1400 656L1424 742M1445 705L1424 742M1445 705L1520 764M1445 705L1545 722M1545 664L1545 722M1545 664L1611 720M1649 668L1700 683M1649 668L1611 720M1700 683L1767 642M1700 683L1611 720M1700 683L1757 769M1767 642L1875 646M1875 646L1972 685M1972 685L2075 707M1972 685L1943 772M1972 685L2034 741M2075 707L2157 700M2075 707L2034 741M2075 707L2110 758M2157 700L2185 690M2157 700L2110 758M2185 690L2292 677M2185 690L2275 722M2292 677L2354 690M2292 677L2275 722M2354 690L2449 695M2354 690L2275 722M2354 690L2423 723M2449 695L2547 667M2449 695L2379 775M2449 695L2423 723M2547 667L2536 771M61 775L146 800M61 775L-24 771M61 775L80 857M61 775L-20 812M2621 775L2536 771M2621 775L2540 812M146 800L221 775M146 800L80 857M146 800L100 871M146 800L172 834M221 775L305 784M221 775L172 834M221 775L289 807M305 784L332 749M305 784L289 807M305 784L393 810M332 749L289 807M332 749L393 810M443 745L503 768M443 745L393 810M443 745L432 840M503 768L432 840M503 768L565 801M630 793L651 734M630 793L722 792M630 793L565 801M630 793L663 859M651 734L722 792M651 734L565 801M722 792L813 785M722 792L663 859M722 792L761 833M813 785L761 833M813 785L830 822M813 785L914 806M953 748L1036 725M953 748L914 806M953 748L974 805M1036 725L1104 760M1036 725L974 805M1104 760L1189 727M1104 760L1096 861M1104 760L1152 805M1189 727L1263 775M1189 727L1152 805M1263 775L1320 744M1263 775L1264 802M1320 744L1424 742M1320 744L1264 802M1320 744L1356 857M1424 742L1520 764M1424 742L1434 842M1520 764L1545 722M1520 764L1611 720M1520 764L1545 826M1545 722L1611 720M1757 769L1803 794M1757 769L1758 816M1757 769L1801 814M1803 794L1888 794M1803 794L1758 816M1803 794L1801 814M1803 794L1881 873M1888 794L1943 772M1888 794L1801 814M1888 794L1881 873M1888 794L1952 812M1943 772L2034 741M1943 772L1952 812M2034 741L2110 758M2034 741L1952 812M2110 758L2141 815M2110 758L2170 831M2237 795L2275 722M2237 795L2141 815M2237 795L2170 831M2237 795L2296 854M2237 795L2354 816M2379 775L2423 723M2379 775L2296 854M2379 775L2354 816M2423 723L2354 816M2536 771L2540 812M80 857L100 871M80 857L7 890M80 857L95 941M100 871L172 834M100 871L7 890M100 871L95 941M172 834L289 807M289 807L393 810M393 810L432 840M432 840L494 874M432 840L421 915M494 874L565 801M494 874L421 915M494 874L536 956M494 874L574 927M663 859L761 833M663 859L653 892M761 833L830 822M761 833L762 934M830 822L914 806M830 822L802 934M914 806L974 805M914 806L900 920M974 805L1096 861M974 805L975 906M1096 861L1152 805M1096 861L1090 881M1096 861L1146 946M1152 805L1264 802M1152 805L1090 881M1264 802L1356 857M1264 802L1326 895M1356 857L1434 842M1356 857L1326 895M1434 842L1474 859M1434 842L1417 937M1434 842L1494 904M1474 859L1545 826M1474 859L1494 904M1474 859L1561 888M1545 826L1561 888M1545 826L1605 896M1643 846L1758 816M1643 846L1561 888M1643 846L1605 896M1758 816L1801 814M1758 816L1759 929M1801 814L1881 873M1881 873L1952 812M1881 873L1899 915M2044 867L2141 815M2044 867L1993 926M2044 867L2104 914M2141 815L2170 831M2170 831L2104 914M2296 854L2354 816M2296 854L2231 926M2296 854L2277 941M2354 816L2455 866M2455 866L2540 812M2455 866L2477 930M2455 866L2529 904M2540 812L2567 890M2540 812L2529 904M-20 812L7 890M7 890L-31 904M7 890L73 966M2567 890L2529 904M95 941L73 966M95 941L120 1007M231 936L283 943M231 936L338 921M231 936L235 1006M231 936L293 973M283 943L338 921M283 943L235 1006M283 943L293 973M338 921L421 915M338 921L293 973M536 956L574 927M536 956L497 1007M536 956L606 979M536 956L648 973M574 927L653 892M574 927L606 979M574 927L648 973M653 892L762 934M653 892L606 979M653 892L648 973M762 934L802 934M762 934L777 962M762 934L837 1011M802 934L900 920M802 934L777 962M802 934L837 1011M900 920L975 906M900 920L952 997M900 920L984 974M975 906L1090 881M975 906L952 997M975 906L984 974M1090 881L1146 946M1146 946L1211 937M1146 946L1108 1003M1146 946L1158 1003M1211 937L1158 1003M1211 937L1260 981M1326 895L1260 981M1326 895L1351 983M1417 937L1494 904M1417 937L1351 983M1417 937L1428 961M1417 937L1466 980M1494 904L1561 888M1494 904L1466 980M1561 888L1605 896M1605 896L1584 1007M1605 896L1623 1006M1759 929L1804 958M1759 929L1716 1028M1759 929L1770 966M1804 958L1899 915M1804 958L1770 966M1804 958L1891 1018M1899 915L1993 926M1899 915L1891 1018M1899 915L1999 962M1993 926L2027 955M1993 926L1999 962M1993 926L2049 997M2027 955L2104 914M2027 955L1999 962M2027 955L2049 997M2027 955L2084 1030M2104 914L2049 997M2104 914L2173 966M2231 926L2277 941M2231 926L2173 966M2277 941L2376 944M2277 941L2173 966M2277 941L2314 1039M2376 944L2477 930M2376 944L2390 968M2477 930L2529 904M2477 930L2390 968M2477 930L2484 972M2529 904L2484 972M73 966L120 1007M73 966L2 1049M73 966L140 1059M120 1007L2 1049M120 1007L140 1059M235 1006L293 973M235 1006L224 1056M293 973L371 1033M371 1033L438 1024M371 1033L283 1103M371 1033L327 1075M438 1024L497 1007M438 1024L327 1075M438 1024L467 1087M438 1024L491 1067M497 1007L467 1087M497 1007L491 1067M606 979L648 973M606 979L585 1074M648 973L657 1089M777 962L837 1011M777 962L877 1050M837 1011L767 1088M837 1011L877 1050M952 997L984 974M952 997L877 1050M952 997L1038 1043M984 974L1038 1043M984 974L1083 1053M1108 1003L1158 1003M1108 1003L1038 1043M1108 1003L1083 1053M1108 1003L1143 1090M1158 1003L1083 1053M1158 1003L1143 1090M1260 981L1351 983M1260 981L1261 1059M1260 981L1329 1046M1351 983L1428 961M1351 983L1329 1046M1428 961L1466 980M1584 1007L1623 1006M1584 1007L1561 1096M1584 1007L1605 1115M1623 1006L1716 1028M1623 1006L1561 1096M1716 1028L1770 966M1716 1028L1709 1109M1891 1018L1841 1090M1891 1018L1937 1102M1999 962L2049 997M1999 962L2084 1030M2049 997L2084 1030M2084 1030L2021 1103M2084 1030L2098 1074M2314 1039L2281 1114M2314 1039L2387 1104M2390 968L2435 1035M2390 968L2484 972M2390 968L2419 1041M2435 1035L2484 972M2435 1035L2387 1104M2435 1035L2419 1041M2435 1035L2506 1073M2484 972L2419 1041M2 1049L-54 1073M2562 1049L2506 1073M140 1059L224 1056M140 1059L70 1169M140 1059L177 1129M224 1056L283 1103M224 1056L177 1129M224 1056L243 1143M283 1103L327 1075M283 1103L243 1143M283 1103L263 1201M327 1075L243 1143M327 1075L369 1187M467 1087L491 1067M467 1087L478 1153M467 1087L481 1170M491 1067L585 1074M491 1067L478 1153M585 1074L657 1089M585 1074L626 1156M585 1074L693 1129M657 1089L767 1088M657 1089L626 1156M657 1089L693 1129M767 1088L693 1129M767 1088L772 1144M767 1088L825 1164M877 1050L913 1091M913 1091L922 1158M913 1091L979 1145M1038 1043L1083 1053M1038 1043L1143 1090M1083 1053L1143 1090M1143 1090L1168 1152M1261 1059L1329 1046M1410 1106L1490 1101M1410 1106L1330 1164M1410 1106L1377 1168M1410 1106L1461 1152M1490 1101L1561 1096M1490 1101L1461 1152M1490 1101L1554 1128M1561 1096L1605 1115M1561 1096L1554 1128M1605 1115L1709 1109M1605 1115L1554 1128M1605 1115L1679 1169M1709 1109L1766 1119M1709 1109L1679 1169M1766 1119L1841 1090M1766 1119L1759 1178M1766 1119L1821 1136M1766 1119L1844 1150M1841 1090L1937 1102M1841 1090L1821 1136M1841 1090L1844 1150M1937 1102L2021 1103M1937 1102L1844 1150M1937 1102L1964 1163M2021 1103L2098 1074M2021 1103L1964 1163M2021 1103L2074 1179M2098 1074L2101 1160M2196 1098L2281 1114M2196 1098L2190 1126M2196 1098L2281 1136M2281 1114L2190 1126M2281 1114L2281 1136M2387 1104L2419 1041M2387 1104L2383 1150M2387 1104L2405 1150M2419 1041L2506 1073M2506 1073L2488 1160M70 1169L94 1180M70 1169L43 1267M70 1169L145 1213M94 1180L177 1129M94 1180L145 1213M177 1129L243 1143M177 1129L145 1213M243 1143L263 1201M369 1187L481 1170M369 1187L263 1201M369 1187L321 1220M369 1187L423 1233M478 1153L481 1170M478 1153L423 1233M481 1170L423 1233M481 1170L553 1242M626 1156L693 1129M626 1156L553 1242M626 1156L603 1229M693 1129L772 1144M772 1144L825 1164M825 1164L922 1158M825 1164L821 1265M922 1158L979 1145M922 1158L913 1240M979 1145L1051 1182M979 1145L1043 1223M1051 1182L1168 1152M1051 1182L983 1267M1051 1182L1043 1223M1168 1152L1248 1183M1168 1152L1179 1230M1248 1183L1330 1164M1248 1183L1179 1230M1248 1183L1267 1246M1330 1164L1377 1168M1330 1164L1329 1232M1330 1164L1385 1208M1377 1168L1461 1152M1377 1168L1329 1232M1377 1168L1385 1208M1461 1152L1554 1128M1461 1152L1385 1208M1554 1128L1543 1230M1679 1169L1759 1178M1679 1169L1662 1250M1679 1169L1758 1242M1759 1178L1821 1136M1759 1178L1758 1242M1759 1178L1796 1224M1821 1136L1844 1150M1821 1136L1796 1224M1844 1150L1796 1224M1964 1163L1982 1214M2074 1179L2101 1160M2074 1179L1982 1214M2074 1179L2014 1247M2074 1179L2087 1269M2101 1160L2190 1126M2101 1160L2162 1232M2190 1126L2281 1136M2190 1126L2162 1232M2281 1136L2383 1150M2281 1136L2274 1234M2383 1150L2405 1150M2383 1150L2488 1160M2383 1150L2365 1252M2405 1150L2488 1160M2488 1160L2511 1235M43 1267L-49 1235M43 1267L71 1345M43 1267L118 1294M43 1267L-24 1311M2603 1267L2511 1235M2603 1267L2536 1311M145 1213L235 1263M145 1213L118 1294M235 1263L263 1201M235 1263L321 1220M235 1263L222 1294M235 1263L302 1326M263 1201L321 1220M321 1220L423 1233M423 1233L505 1292M553 1242L603 1229M553 1242L505 1292M553 1242L633 1288M603 1229L653 1272M603 1229L633 1288M603 1229L642 1319M653 1272L633 1288M653 1272L642 1319M653 1272L606 1372M795 1268L821 1265M795 1268L735 1350M795 1268L818 1291M821 1265L913 1240M821 1265L818 1291M913 1240L983 1267M913 1240L933 1315M913 1240L973 1337M983 1267L1043 1223M983 1267L933 1315M983 1267L973 1337M1179 1230L1267 1246M1179 1230L1137 1316M1267 1246L1329 1232M1267 1246L1203 1337M1267 1246L1291 1308M1329 1232L1385 1208M1329 1232L1365 1289M1385 1208L1365 1289M1457 1279L1543 1230M1457 1279L1365 1289M1457 1279L1440 1302M1457 1279L1536 1281M1543 1230L1536 1281M1662 1250L1631 1323M1662 1250L1689 1323M1662 1250L1662 1362M1758 1242L1796 1224M1758 1242L1689 1323M1758 1242L1805 1316M1796 1224L1850 1269M1850 1269L1805 1316M1850 1269L1910 1302M1850 1269L1930 1303M1982 1214L2014 1247M1982 1214L1910 1302M1982 1214L1930 1303M2014 1247L2087 1269M2014 1247L2074 1293M2087 1269L2162 1232M2087 1269L2074 1293M2087 1269L2174 1294M2162 1232L2156 1343M2162 1232L2174 1294M2274 1234L2365 1252M2274 1234L2280 1321M2365 1252L2464 1278M2365 1252L2280 1321M2464 1278L2511 1235M2464 1278L2479 1339M2464 1278L2536 1311M2464 1278L2441 1378M2511 1235L2479 1339M2511 1235L2536 1311M71 1345L118 1294M71 1345L23 1400M71 1345L137 1395M118 1294L222 1294M118 1294L137 1395M222 1294L302 1326M302 1326L328 1358M302 1326L299 1373M302 1326L327 1413M328 1358L299 1373M328 1358L327 1413M440 1340L505 1292M440 1340L449 1411M440 1340L483 1376M505 1292L483 1376M633 1288L642 1319M633 1288L606 1372M642 1319L735 1350M642 1319L606 1372M735 1350L818 1291M735 1350L660 1415M735 1350L799 1382M818 1291L799 1382M933 1315L973 1337M933 1315L904 1364M933 1315L1015 1385M973 1337L904 1364M973 1337L1015 1385M1098 1331L1137 1316M1098 1331L1015 1385M1098 1331L1056 1418M1098 1331L1141 1408M1137 1316L1203 1337M1137 1316L1141 1408M1137 1316L1211 1364M1203 1337L1291 1308M1203 1337L1141 1408M1203 1337L1211 1364M1291 1308L1365 1289M1291 1308L1211 1364M1291 1308L1345 1416M1365 1289L1440 1302M1440 1302L1536 1281M1440 1302L1513 1401M1536 1281L1631 1323M1536 1281L1546 1397M1631 1323L1689 1323M1631 1323L1546 1397M1631 1323L1662 1362M1689 1323L1662 1362M1689 1323L1756 1395M1805 1316L1756 1395M1805 1316L1788 1379M1805 1316L1890 1373M1910 1302L1930 1303M1910 1302L1890 1373M1910 1302L1993 1362M1930 1303L1890 1373M1930 1303L1993 1362M2074 1293L2156 1343M2074 1293L2108 1383M2156 1343L2174 1294M2156 1343L2108 1383M2156 1343L2181 1434M2280 1321L2376 1353M2280 1321L2276 1402M2376 1353L2346 1407M2376 1353L2441 1378M2479 1339L2536 1311M2479 1339L2441 1378M2479 1339L2488 1425M2536 1311L2583 1400M-24 1311L23 1400M23 1400L-72 1425M2583 1400L2488 1425M137 1395L216 1436M216 1436L299 1373M299 1373L327 1413M449 1411L483 1376M606 1372L660 1415M799 1382L836 1411M836 1411L904 1364M1015 1385L1056 1418M1056 1418L1141 1408M1141 1408L1211 1364M1345 1416L1418 1424M1418 1424L1513 1401M1513 1401L1546 1397M1662 1362L1756 1395M1756 1395L1788 1379M1788 1379L1890 1373M1890 1373L1993 1362M1993 1362L2016 1411M2016 1411L2108 1383M2108 1383L2181 1434M2181 1434L2276 1402M2276 1402L2346 1407M2441 1378L2488 1425"/></svg>