<svg xmlns="http://www.w3.org/2000/svg" width="2560" height="1440" fill="#fff"><circle cx="70" cy="32" r="4"/><circle cx="143" cy="49" r="6"/><circle cx="174" cy="2" r="6"/><circle cx="174" cy="1442" r="6"/><circle cx="280" cy="73" r="5"/><circle cx="338" cy="51" r="5"/><circle cx="474" cy="55" r="6"/><circle cx="484" cy="36" r="6"/><circle cx="614" cy="18" r="5"/><circle cx="705" cy="44" r="4"/><circle cx="775" cy="21" r="5"/><circle cx="801" cy="25" r="4"/><circle cx="955" cy="67" r="4"/><circle cx="994" cy="56" r="6"/><circle cx="1071" cy="62" r="5"/><circle cx="1137" cy="39" r="5"/><circle cx="1272" cy="37" r="6"/><circle cx="1313" cy="70" r="5"/><circle cx="1397" cy="17" r="6"/><circle cx="1514" cy="20" r="4"/><circle cx="1564" cy="27" r="5"/><circle cx="1656" cy="20" r="5"/><circle cx="1741" cy="33" r="6"/><circle cx="1819" cy="49" r="4"/><circle cx="1863" cy="53" r="6"/><circle cx="1951" cy="42" r="5"/><circle cx="2060" cy="8" r="5"/><circle cx="2118" cy="57" r="4"/><circle cx="2177" cy="17" r="6"/><circle cx="2307" cy="1" r="6"/><circle cx="2307" cy="1441" r="6"/><circle cx="2350" cy="21" r="5"/><circle cx="2415" cy="14" r="5"/><circle cx="2555" cy="54" r="6"/><circle cx="-5" cy="54" r="6"/><circle cx="46" cy="104" r="4"/><circle cx="103" cy="134" r="5"/><circle cx="238" cy="93" r="4"/><circle cx="314" cy="146" r="5"/><circle cx="347" cy="157" r="6"/><circle cx="469" cy="125" r="5"/><circle cx="482" cy="151" r="5"/><circle cx="610" cy="88" r="6"/><circle cx="694" cy="108" r="5"/><circle cx="771" cy="158" r="4"/><circle cx="843" cy="150" r="4"/><circle cx="942" cy="128" r="4"/><circle cx="967" cy="115" r="4"/><circle cx="1060" cy="98" r="4"/><circle cx="1199" cy="136" r="4"/><circle cx="1231" cy="108" r="5"/><circle cx="1331" cy="95" r="4"/><circle cx="1368" cy="131" r="6"/><circle cx="1462" cy="97" r="5"/><circle cx="1540" cy="86" r="6"/><circle cx="1604" cy="100" r="5"/><circle cx="1745" cy="86" r="5"/><circle cx="1822" cy="138" r="6"/><circle cx="1914" cy="90" r="5"/><circle cx="2000" cy="98" r="4"/><circle cx="2037" cy="94" r="5"/><circle cx="2093" cy="81" r="5"/><circle cx="2160" cy="118" r="6"/><circle cx="2261" cy="132" r="4"/><circle cx="2363" cy="92" r="6"/><circle cx="2441" cy="157" r="5"/><circle cx="2549" cy="148" r="4"/><circle cx="54" cy="190" r="5"/><circle cx="159" cy="239" r="4"/><circle cx="205" cy="229" r="6"/><circle cx="243" cy="193" r="6"/><circle cx="328" cy="167" r="5"/><circle cx="452" cy="181" r="5"/><circle cx="518" cy="239" r="6"/><circle cx="572" cy="185" r="5"/><circle cx="715" cy="163" r="6"/><circle cx="786" cy="170" r="5"/><circle cx="840" cy="207" r="4"/><circle cx="882" cy="195" r="5"/><circle cx="967" cy="192" r="6"/><circle cx="1044" cy="217" r="5"/><circle cx="1122" cy="222" r="5"/><circle cx="1252" cy="232" r="5"/><circle cx="1333" cy="195" r="5"/><circle cx="1387" cy="238" r="4"/><circle cx="1506" cy="206" r="6"/><circle cx="1561" cy="192" r="5"/><circle cx="1677" cy="218" r="4"/><circle cx="1752" cy="174" r="5"/><circle cx="1764" cy="168" r="6"/><circle cx="1918" cy="240" r="5"/><circle cx="1922" cy="162" r="6"/><circle cx="2060" cy="235" r="5"/><circle cx="2141" cy="227" r="5"/><circle cx="2169" cy="176" r="5"/><circle cx="2260" cy="172" r="6"/><circle cx="2377" cy="237" r="5"/><circle cx="2408" cy="223" r="5"/><circle cx="2480" cy="197" r="5"/><circle cx="24" cy="252" r="5"/><circle cx="82" cy="264" r="6"/><circle cx="216" cy="244" r="4"/><circle cx="300" cy="277" r="5"/><circle cx="359" cy="256" r="6"/><circle cx="417" cy="290" r="6"/><circle cx="557" cy="291" r="5"/><circle cx="574" cy="320" r="4"/><circle cx="672" cy="317" r="5"/><circle cx="754" cy="312" r="5"/><circle cx="865" cy="290" r="6"/><circle cx="888" cy="269" r="5"/><circle cx="1013" cy="259" r="5"/><circle cx="1053" cy="241" r="5"/><circle cx="1124" cy="310" r="6"/><circle cx="1256" cy="306" r="5"/><circle cx="1322" cy="312" r="4"/><circle cx="1363" cy="305" r="4"/><circle cx="1459" cy="314" r="6"/><circle cx="1527" cy="263" r="6"/><circle cx="1635" cy="300" r="4"/><circle cx="1687" cy="270" r="5"/><circle cx="1763" cy="307" r="6"/><circle cx="1902" cy="268" r="5"/><circle cx="1998" cy="313" r="6"/><circle cx="2024" cy="304" r="5"/><circle cx="2158" cy="310" r="4"/><circle cx="2167" cy="309" r="4"/><circle cx="2266" cy="245" r="6"/><circle cx="2375" cy="279" r="6"/><circle cx="2424" cy="271" r="4"/><circle cx="2482" cy="256" r="5"/><circle cx="75" cy="346" r="4"/><circle cx="98" cy="344" r="5"/><circle cx="210" cy="376" r="5"/><circle cx="270" cy="371" r="5"/><circle cx="329" cy="343" r="4"/><circle cx="453" cy="371" r="4"/><circle cx="513" cy="335" r="6"/><circle cx="609" cy="334" r="5"/><circle cx="659" cy="339" r="4"/><circle cx="781" cy="323" r="5"/><circle cx="861" cy="384" r="4"/><circle cx="943" cy="336" r="5"/><circle cx="967" cy="352" r="5"/><circle cx="1058" cy="367" r="4"/><circle cx="1120" cy="389" r="6"/><circle cx="1235" cy="345" r="6"/><circle cx="1338" cy="364" r="5"/><circle cx="1385" cy="337" r="5"/><circle cx="1518" cy="395" r="5"/><circle cx="1585" cy="351" r="4"/><circle cx="1678" cy="347" r="4"/><circle cx="1690" cy="324" r="5"/><circle cx="1817" cy="322" r="5"/><circle cx="1866" cy="366" r="6"/><circle cx="1935" cy="351" r="5"/><circle cx="2011" cy="351" r="6"/><circle cx="2121" cy="346" r="5"/><circle cx="2199" cy="379" r="6"/><circle cx="2261" cy="385" r="5"/><circle cx="2381" cy="367" r="5"/><circle cx="2476" cy="344" r="5"/><circle cx="2548" cy="334" r="5"/><circle cx="47" cy="469" r="5"/><circle cx="107" cy="421" r="4"/><circle cx="224" cy="433" r="5"/><circle cx="271" cy="451" r="5"/><circle cx="399" cy="474" r="5"/><circle cx="410" cy="402" r="5"/><circle cx="533" cy="402" r="5"/><circle cx="591" cy="462" r="5"/><circle cx="714" cy="406" r="5"/><circle cx="775" cy="425" r="5"/><circle cx="879" cy="441" r="6"/><circle cx="951" cy="449" r="6"/><circle cx="964" cy="442" r="5"/><circle cx="1103" cy="453" r="6"/><circle cx="1195" cy="472" r="4"/><circle cx="1270" cy="454" r="5"/><circle cx="1291" cy="454" r="5"/><circle cx="1381" cy="434" r="5"/><circle cx="1453" cy="448" r="5"/><circle cx="1535" cy="413" r="5"/><circle cx="1656" cy="443" r="6"/><circle cx="1693" cy="405" r="4"/><circle cx="1825" cy="442" r="4"/><circle cx="1901" cy="450" r="5"/><circle cx="1945" cy="474" r="5"/><circle cx="2028" cy="409" r="6"/><circle cx="2152" cy="414" r="5"/><circle cx="2190" cy="416" r="5"/><circle cx="2319" cy="407" r="5"/><circle cx="2363" cy="432" r="4"/><circle cx="2452" cy="464" r="5"/><circle cx="2549" cy="407" r="6"/><circle cx="66" cy="543" r="4"/><circle cx="96" cy="509" r="6"/><circle cx="220" cy="548" r="6"/><circle cx="274" cy="514" r="6"/><circle cx="360" cy="558" r="6"/><circle cx="428" cy="543" r="6"/><circle cx="527" cy="494" r="6"/><circle cx="605" cy="501" r="4"/><circle cx="669" cy="504" r="5"/><circle cx="762" cy="535" r="5"/><circle cx="803" cy="555" r="6"/><circle cx="920" cy="540" r="5"/><circle cx="1006" cy="513" r="5"/><circle cx="1092" cy="554" r="6"/><circle cx="1200" cy="487" r="4"/><circle cx="1246" cy="500" r="4"/><circle cx="1322" cy="499" r="6"/><circle cx="1384" cy="557" r="5"/><circle cx="1505" cy="557" r="5"/><circle cx="1569" cy="530" r="5"/><circle cx="1653" cy="503" r="5"/><circle cx="1712" cy="506" r="4"/><circle cx="1777" cy="518" r="5"/><circle cx="1853" cy="529" r="5"/><circle cx="1991" cy="523" r="5"/><circle cx="2008" cy="529" r="5"/><circle cx="2087" cy="552" r="5"/><circle cx="2185" cy="516" r="6"/><circle cx="2281" cy="542" r="6"/><circle cx="2371" cy="492" r="6"/><circle cx="2427" cy="504" r="6"/><circle cx="2532" cy="482" r="5"/><circle cx="12" cy="622" r="5"/><circle cx="138" cy="631" r="5"/><circle cx="206" cy="569" r="5"/><circle cx="313" cy="622" r="6"/><circle cx="352" cy="602" r="5"/><circle cx="416" cy="595" r="4"/><circle cx="502" cy="561" r="6"/><circle cx="594" cy="583" r="4"/><circle cx="665" cy="616" r="5"/><circle cx="784" cy="621" r="4"/><circle cx="834" cy="617" r="5"/><circle cx="932" cy="627" r="4"/><circle cx="985" cy="580" r="5"/><circle cx="1070" cy="617" r="5"/><circle cx="1153" cy="629" r="5"/><circle cx="1259" cy="561" r="5"/><circle cx="1317" cy="625" r="4"/><circle cx="1392" cy="633" r="5"/><circle cx="1499" cy="599" r="6"/><circle cx="1521" cy="633" r="4"/><circle cx="1639" cy="630" r="6"/><circle cx="1681" cy="628" r="4"/><circle cx="1772" cy="593" r="4"/><circle cx="1851" cy="608" r="5"/><circle cx="1949" cy="601" r="4"/><circle cx="2034" cy="602" r="5"/><circle cx="2135" cy="575" r="4"/><circle cx="2160" cy="607" r="6"/><circle cx="2293" cy="628" r="4"/><circle cx="2399" cy="587" r="5"/><circle cx="2476" cy="633" r="4"/><circle cx="2527" cy="628" r="5"/><circle cx="50" cy="659" r="6"/><circle cx="87" cy="680" r="4"/><circle cx="204" cy="688" r="5"/><circle cx="295" cy="670" r="5"/><circle cx="360" cy="676" r="5"/><circle cx="413" cy="692" r="6"/><circle cx="496" cy="648" r="5"/><circle cx="615" cy="710" r="6"/><circle cx="702" cy="706" r="4"/><circle cx="797" cy="694" r="4"/><circle cx="805" cy="686" r="5"/><circle cx="917" cy="712" r="4"/><circle cx="1013" cy="674" r="6"/><circle cx="1116" cy="653" r="5"/><circle cx="1165" cy="710" r="6"/><circle cx="1213" cy="668" r="6"/><circle cx="1346" cy="655" r="5"/><circle cx="1413" cy="650" r="6"/><circle cx="1513" cy="664" r="5"/><circle cx="1549" cy="646" r="6"/><circle cx="1631" cy="664" r="5"/><circle cx="1713" cy="682" r="5"/><circle cx="1814" cy="657" r="5"/><circle cx="1857" cy="650" r="5"/><circle cx="1935" cy="658" r="5"/><circle cx="2058" cy="652" r="5"/><circle cx="2102" cy="642" r="5"/><circle cx="2187" cy="676" r="5"/><circle cx="2307" cy="691" r="6"/><circle cx="2323" cy="682" r="5"/><circle cx="2414" cy="668" r="4"/><circle cx="2559" cy="706" r="5"/><circle cx="-1" cy="706" r="5"/><circle cx="5" cy="752" r="4"/><circle cx="128" cy="794" r="5"/><circle cx="177" cy="790" r="6"/><circle cx="265" cy="734" r="5"/><circle cx="329" cy="798" r="4"/><circle cx="429" cy="771" r="5"/><circle cx="488" cy="720" r="5"/><circle cx="611" cy="730" r="5"/><circle cx="702" cy="787" r="4"/><circle cx="763" cy="794" r="6"/><circle cx="880" cy="736" r="5"/><circle cx="890" cy="765" r="5"/><circle cx="1029" cy="721" r="5"/><circle cx="1119" cy="732" r="5"/><circle cx="1137" cy="786" r="5"/><circle cx="1236" cy="797" r="5"/><circle cx="1317" cy="735" r="5"/><circle cx="1417" cy="780" r="4"/><circle cx="1469" cy="727" r="5"/><circle cx="1565" cy="766" r="5"/><circle cx="1669" cy="786" r="4"/><circle cx="1706" cy="781" r="4"/><circle cx="1803" cy="756" r="5"/><circle cx="1865" cy="768" r="5"/><circle cx="1972" cy="721" r="6"/><circle cx="2036" cy="765" r="6"/><circle cx="2096" cy="746" r="6"/><circle cx="2178" cy="753" r="4"/><circle cx="2302" cy="721" r="4"/><circle cx="2365" cy="780" r="6"/><circle cx="2413" cy="744" r="4"/><circle cx="2484" cy="732" r="4"/><circle cx="42" cy="821" r="4"/><circle cx="92" cy="847" r="6"/><circle cx="204" cy="814" r="4"/><circle cx="293" cy="813" r="6"/><circle cx="390" cy="874" r="6"/><circle cx="446" cy="865" r="4"/><circle cx="528" cy="867" r="6"/><circle cx="620" cy="812" r="6"/><circle cx="718" cy="853" r="5"/><circle cx="743" cy="809" r="5"/><circle cx="847" cy="800" r="5"/><circle cx="900" cy="839" r="5"/><circle cx="1005" cy="810" r="5"/><circle cx="1042" cy="817" r="4"/><circle cx="1195" cy="839" r="5"/><circle cx="1246" cy="819" r="4"/><circle cx="1306" cy="804" r="6"/><circle cx="1368" cy="807" r="6"/><circle cx="1442" cy="850" r="6"/><circle cx="1566" cy="845" r="5"/><circle cx="1645" cy="869" r="4"/><circle cx="1708" cy="862" r="5"/><circle cx="1768" cy="863" r="5"/><circle cx="1886" cy="837" r="6"/><circle cx="1958" cy="837" r="5"/><circle cx="2048" cy="877" r="5"/><circle cx="2157" cy="833" r="5"/><circle cx="2229" cy="859" r="5"/><circle cx="2282" cy="818" r="4"/><circle cx="2380" cy="841" r="4"/><circle cx="2455" cy="870" r="4"/><circle cx="2494" cy="841" r="5"/><circle cx="65" cy="900" r="5"/><circle cx="139" cy="902" r="5"/><circle cx="187" cy="934" r="5"/><circle cx="255" cy="945" r="5"/><circle cx="347" cy="896" r="5"/><circle cx="427" cy="883" r="5"/><circle cx="543" cy="888" r="6"/><circle cx="592" cy="897" r="5"/><circle cx="652" cy="897" r="6"/><circle cx="777" cy="957" r="4"/><circle cx="830" cy="920" r="6"/><circle cx="887" cy="948" r="6"/><circle cx="963" cy="922" r="5"/><circle cx="1103" cy="882" r="4"/><circle cx="1195" cy="914" r="6"/><circle cx="1212" cy="953" r="5"/><circle cx="1293" cy="905" r="4"/><circle cx="1362" cy="929" r="5"/><circle cx="1487" cy="910" r="5"/><circle cx="1590" cy="898" r="6"/><circle cx="1657" cy="892" r="5"/><circle cx="1691" cy="900" r="6"/><circle cx="1793" cy="926" r="5"/><circle cx="1877" cy="927" r="6"/><circle cx="1984" cy="949" r="5"/><circle cx="2074" cy="897" r="5"/><circle cx="2159" cy="918" r="6"/><circle cx="2191" cy="953" r="5"/><circle cx="2275" cy="883" r="6"/><circle cx="2340" cy="931" r="5"/><circle cx="2404" cy="911" r="6"/><circle cx="2541" cy="924" r="5"/><circle cx="59" cy="1031" r="5"/><circle cx="90" cy="968" r="5"/><circle cx="232" cy="965" r="4"/><circle cx="306" cy="976" r="5"/><circle cx="354" cy="1035" r="4"/><circle cx="424" cy="1027" r="5"/><circle cx="502" cy="1033" r="6"/><circle cx="561" cy="1009" r="6"/><circle cx="685" cy="1038" r="5"/><circle cx="729" cy="1024" r="5"/><circle cx="813" cy="1002" r="6"/><circle cx="919" cy="992" r="5"/><circle cx="1011" cy="1011" r="5"/><circle cx="1116" cy="976" r="4"/><circle cx="1128" cy="982" r="5"/><circle cx="1236" cy="1039" r="5"/><circle cx="1300" cy="1025" r="5"/><circle cx="1409" cy="1016" r="4"/><circle cx="1440" cy="962" r="5"/><circle cx="1599" cy="995" r="5"/><circle cx="1650" cy="980" r="6"/><circle cx="1749" cy="982" r="6"/><circle cx="1791" cy="1017" r="5"/><circle cx="1886" cy="1029" r="5"/><circle cx="1930" cy="1014" r="5"/><circle cx="2076" cy="1011" r="6"/><circle cx="2116" cy="973" r="5"/><circle cx="2214" cy="1031" r="6"/><circle cx="2270" cy="1035" r="5"/><circle cx="2360" cy="1010" r="6"/><circle cx="2474" cy="1004" r="5"/><circle cx="2555" cy="1008" r="5"/><circle cx="-5" cy="1008" r="5"/><circle cx="42" cy="1045" r="4"/><circle cx="160" cy="1068" r="6"/><circle cx="229" cy="1063" r="6"/><circle cx="255" cy="1107" r="5"/><circle cx="399" cy="1057" r="4"/><circle cx="423" cy="1069" r="5"/><circle cx="522" cy="1096" r="4"/><circle cx="585" cy="1047" r="5"/><circle cx="645" cy="1096" r="4"/><circle cx="767" cy="1082" r="4"/><circle cx="803" cy="1068" r="5"/><circle cx="881" cy="1095" r="4"/><circle cx="1030" cy="1119" r="6"/><circle cx="1066" cy="1097" r="6"/><circle cx="1123" cy="1075" r="6"/><circle cx="1229" cy="1088" r="5"/><circle cx="1292" cy="1076" r="5"/><circle cx="1389" cy="1073" r="5"/><circle cx="1445" cy="1097" r="4"/><circle cx="1550" cy="1053" r="5"/><circle cx="1658" cy="1082" r="5"/><circle cx="1703" cy="1118" r="5"/><circle cx="1792" cy="1081" r="5"/><circle cx="1872" cy="1069" r="6"/><circle cx="1980" cy="1055" r="6"/><circle cx="2044" cy="1099" r="5"/><circle cx="2131" cy="1091" r="5"/><circle cx="2184" cy="1048" r="4"/><circle cx="2269" cy="1045" r="6"/><circle cx="2368" cy="1112" r="4"/><circle cx="2429" cy="1072" r="5"/><circle cx="2527" cy="1075" r="6"/><circle cx="21" cy="1175" r="5"/><circle cx="83" cy="1141" r="4"/><circle cx="208" cy="1187" r="6"/><circle cx="257" cy="1120" r="5"/><circle cx="363" cy="1185" r="6"/><circle cx="480" cy="1125" r="6"/><circle cx="524" cy="1157" r="5"/><circle cx="628" cy="1196" r="5"/><circle cx="701" cy="1170" r="5"/><circle cx="777" cy="1161" r="6"/><circle cx="867" cy="1189" r="4"/><circle cx="958" cy="1164" r="6"/><circle cx="1017" cy="1198" r="4"/><circle cx="1041" cy="1183" r="5"/><circle cx="1128" cy="1130" r="5"/><circle cx="1250" cy="1175" r="5"/><circle cx="1353" cy="1192" r="6"/><circle cx="1406" cy="1194" r="5"/><circle cx="1451" cy="1146" r="6"/><circle cx="1542" cy="1195" r="5"/><circle cx="1669" cy="1134" r="5"/><circle cx="1753" cy="1151" r="4"/><circle cx="1817" cy="1147" r="4"/><circle cx="1851" cy="1197" r="6"/><circle cx="1980" cy="1133" r="5"/><circle cx="2019" cy="1165" r="5"/><circle cx="2144" cy="1198" r="4"/><circle cx="2209" cy="1184" r="5"/><circle cx="2299" cy="1135" r="5"/><circle cx="2391" cy="1153" r="6"/><circle cx="2420" cy="1192" r="5"/><circle cx="2516" cy="1193" r="5"/><circle cx="24" cy="1257" r="6"/><circle cx="91" cy="1259" r="5"/><circle cx="222" cy="1207" r="5"/><circle cx="313" cy="1267" r="4"/><circle cx="394" cy="1235" r="4"/><circle cx="403" cy="1272" r="5"/><circle cx="543" cy="1278" r="5"/><circle cx="567" cy="1233" r="4"/><circle cx="661" cy="1262" r="6"/><circle cx="738" cy="1228" r="5"/><circle cx="846" cy="1226" r="5"/><circle cx="913" cy="1278" r="4"/><circle cx="984" cy="1273" r="4"/><circle cx="1070" cy="1203" r="4"/><circle cx="1171" cy="1266" r="5"/><circle cx="1219" cy="1230" r="5"/><circle cx="1292" cy="1229" r="5"/><circle cx="1428" cy="1247" r="4"/><circle cx="1512" cy="1210" r="4"/><circle cx="1599" cy="1238" r="5"/><circle cx="1633" cy="1243" r="4"/><circle cx="1699" cy="1259" r="5"/><circle cx="1819" cy="1215" r="6"/><circle cx="1908" cy="1225" r="5"/><circle cx="1939" cy="1226" r="5"/><circle cx="2012" cy="1278" r="6"/><circle cx="2120" cy="1246" r="5"/><circle cx="2207" cy="1258" r="5"/><circle cx="2297" cy="1210" r="5"/><circle cx="2394" cy="1265" r="4"/><circle cx="2440" cy="1234" r="4"/><circle cx="2495" cy="1202" r="5"/><circle cx="8" cy="1324" r="5"/><circle cx="147" cy="1294" r="4"/><circle cx="232" cy="1281" r="5"/><circle cx="288" cy="1334" r="5"/><circle cx="347" cy="1322" r="5"/><circle cx="409" cy="1349" r="6"/><circle cx="510" cy="1358" r="4"/><circle cx="576" cy="1333" r="5"/><circle cx="641" cy="1299" r="5"/><circle cx="774" cy="1299" r="4"/><circle cx="819" cy="1337" r="4"/><circle cx="909" cy="1347" r="5"/><circle cx="1017" cy="1326" r="4"/><circle cx="1111" cy="1317" r="4"/><circle cx="1194" cy="1359" r="6"/><circle cx="1216" cy="1299" r="5"/><circle cx="1306" cy="1316" r="6"/><circle cx="1399" cy="1360" r="6"/><circle cx="1478" cy="1309" r="4"/><circle cx="1563" cy="1310" r="6"/><circle cx="1666" cy="1282" r="5"/><circle cx="1720" cy="1328" r="4"/><circle cx="1804" cy="1309" r="5"/><circle cx="1897" cy="1350" r="6"/><circle cx="1924" cy="1331" r="4"/><circle cx="2006" cy="1313" r="5"/><circle cx="2120" cy="1332" r="4"/><circle cx="2207" cy="1333" r="5"/><circle cx="2289" cy="1320" r="6"/><circle cx="2343" cy="1348" r="4"/><circle cx="2458" cy="1331" r="4"/><circle cx="2550" cy="1331" r="6"/><circle cx="22" cy="1392" r="5"/><circle cx="123" cy="1370" r="4"/><circle cx="164" cy="1412" r="6"/><circle cx="312" cy="1431" r="4"/><circle cx="366" cy="1363" r="5"/><circle cx="411" cy="1386" r="5"/><circle cx="553" cy="1430" r="5"/><circle cx="568" cy="1425" r="5"/><circle cx="662" cy="1373" r="5"/><circle cx="766" cy="1371" r="6"/><circle cx="837" cy="1385" r="5"/><circle cx="960" cy="1392" r="5"/><circle cx="1035" cy="1413" r="5"/><circle cx="1048" cy="1390" r="4"/><circle cx="1182" cy="1414" r="4"/><circle cx="1221" cy="1421" r="6"/><circle cx="1310" cy="1401" r="4"/><circle cx="1376" cy="1405" r="5"/><circle cx="1506" cy="1437" r="5"/><circle cx="1506" cy="-3" r="5"/><circle cx="1559" cy="1432" r="5"/><circle cx="1602" cy="1370" r="5"/><circle cx="1681" cy="1386" r="6"/><circle cx="1792" cy="1398" r="4"/><circle cx="1890" cy="1360" r="5"/><circle cx="1941" cy="1370" r="5"/><circle cx="2049" cy="1408" r="4"/><circle cx="2102" cy="1389" r="5"/><circle cx="2196" cy="1407" r="4"/><circle cx="2274" cy="1379" r="5"/><circle cx="2337" cy="1419" r="6"/><circle cx="2424" cy="1381" r="5"/><circle cx="2488" cy="1440" r="6"/><circle cx="2488" cy="-0" r="6"/><path stroke="#fff" d="M70 32L143 49M70 32L174 2M70 32L-5 54M70 32L46 104M70 32L22 -48M2630 32L2555 54M70 1472L22 1392M143 49L174 2M143 49L103 134M143 49L238 93M143 49L164 -28M143 1489L164 1412M174 2L238 93M174 2L123 -70M174 2L164 -28M174 1442L123 1370M174 1442L164 1412M280 73L338 51M280 73L238 93M280 73L314 146M280 73L347 157M280 73L312 -9M280 1513L312 1431M338 51L314 146M338 51L347 157M338 51L312 -9M338 1491L312 1431M474 55L484 36M474 55L469 125M474 55L482 151M474 55L553 -10M474 1495L553 1430M484 36L469 125M484 36L553 -10M484 36L568 -15M484 1476L553 1430M484 1476L568 1425M614 18L705 44M614 18L610 88M614 18L553 -10M614 18L568 -15M614 18L662 -67M614 1458L553 1430M614 1458L568 1425M614 1458L662 1373M705 44L775 21M705 44L801 25M705 44L610 88M705 44L694 108M775 21L801 25M775 21L766 -69M775 21L837 -55M775 1461L766 1371M775 1461L837 1385M801 25L766 -69M801 25L837 -55M801 1465L766 1371M801 1465L837 1385M955 67L994 56M955 67L942 128M955 67L967 115M955 67L960 -48M955 1507L960 1392M994 56L1071 62M994 56L942 128M994 56L967 115M994 56L1060 98M1071 62L1137 39M1071 62L1060 98M1071 62L1035 -27M1071 1502L1035 1413M1137 39L1060 98M1137 39L1182 -26M1137 39L1221 -19M1137 1479L1182 1414M1137 1479L1221 1421M1272 37L1313 70M1272 37L1231 108M1272 37L1331 95M1272 37L1221 -19M1272 37L1310 -39M1272 1477L1221 1421M1272 1477L1310 1401M1313 70L1397 17M1313 70L1231 108M1313 70L1331 95M1313 70L1368 131M1397 17L1368 131M1397 17L1462 97M1397 17L1399 -80M1397 17L1376 -35M1397 1457L1399 1360M1397 1457L1376 1405M1514 20L1564 27M1514 20L1462 97M1514 20L1540 86M1514 20L1506 -3M1514 20L1559 -8M1514 1460L1506 1437M1514 1460L1559 1432M1564 27L1540 86M1564 27L1604 100M1564 27L1506 -3M1564 27L1559 -8M1564 1467L1506 1437M1564 1467L1559 1432M1656 20L1741 33M1656 20L1604 100M1656 20L1602 -70M1656 20L1681 -54M1656 1460L1602 1370M1656 1460L1681 1386M1741 33L1819 49M1741 33L1745 86M1741 33L1681 -54M1741 33L1792 -42M1741 1473L1681 1386M1741 1473L1792 1398M1819 49L1863 53M1819 49L1745 86M1819 49L1822 138M1819 49L1792 -42M1819 1489L1792 1398M1863 53L1951 42M1863 53L1822 138M1863 53L1914 90M1863 53L1922 162M1951 42L1914 90M1951 42L2000 98M1951 42L2037 94M1951 42L1941 -70M1951 1482L1941 1370M2060 8L2118 57M2060 8L2037 94M2060 8L2093 81M2060 8L2049 -32M2060 8L2102 -51M2060 1448L2049 1408M2060 1448L2102 1389M2118 57L2177 17M2118 57L2037 94M2118 57L2093 81M2118 57L2160 118M2177 17L2093 81M2177 17L2160 118M2177 17L2102 -51M2177 17L2196 -33M2177 1457L2102 1389M2177 1457L2196 1407M2307 1L2350 21M2307 1L2363 92M2307 1L2343 -92M2307 1L2274 -61M2307 1L2337 -21M2307 1441L2343 1348M2307 1441L2274 1379M2307 1441L2337 1419M2350 21L2415 14M2350 21L2363 92M2350 21L2337 -21M2350 21L2424 -59M2350 1461L2337 1419M2350 1461L2424 1381M2415 14L2363 92M2415 14L2337 -21M2415 14L2424 -59M2415 14L2488 -0M2415 1454L2337 1419M2415 1454L2424 1381M2415 1454L2488 1440M2555 54L2606 104M2555 54L2549 148M2555 54L2582 -48M2555 54L2488 -0M-5 54L46 104M-5 54L22 -48M-5 1494L22 1392M2555 1494L2582 1392M2555 1494L2488 1440M46 104L103 134M46 104L-11 148M46 104L54 190M2606 104L2549 148M103 134L54 190M314 146L347 157M314 146L243 193M314 146L328 167M347 157L328 167M347 157L359 256M469 125L482 151M469 125L452 181M482 151L452 181M482 151L518 239M482 151L572 185M610 88L694 108M610 88L572 185M694 108L771 158M694 108L715 163M771 158L843 150M771 158L715 163M771 158L786 170M843 150L786 170M843 150L840 207M843 150L882 195M942 128L967 115M942 128L967 192M967 115L1060 98M967 115L967 192M1199 136L1231 108M1199 136L1122 222M1199 136L1252 232M1231 108L1331 95M1331 95L1368 131M1331 95L1333 195M1368 131L1462 97M1368 131L1333 195M1462 97L1540 86M1462 97L1506 -3M1462 1537L1506 1437M1540 86L1604 100M1540 86L1559 -8M1540 1526L1559 1432M1604 100L1561 192M1745 86L1822 138M1745 86L1752 174M1745 86L1764 168M1822 138L1752 174M1822 138L1764 168M1914 90L2000 98M1914 90L1922 162M2000 98L2037 94M2000 98L1922 162M2037 94L2093 81M2093 81L2160 118M2160 118L2169 176M2160 118L2260 172M2261 132L2169 176M2261 132L2260 172M2261 132L2266 245M2363 92L2441 157M2441 157L2377 237M2441 157L2408 223M2441 157L2480 197M2549 148L2614 190M2549 148L2480 197M2549 148L2584 252M-11 148L54 190M-11 148L24 252M54 190L24 252M54 190L82 264M159 239L205 229M159 239L82 264M159 239L216 244M205 229L243 193M205 229L216 244M205 229L300 277M243 193L328 167M243 193L216 244M243 193L300 277M328 167L359 256M452 181L518 239M518 239L572 185M518 239L557 291M518 239L513 335M572 185L557 291M715 163L786 170M786 170L840 207M840 207L882 195M840 207L865 290M840 207L888 269M882 195L967 192M882 195L865 290M882 195L888 269M967 192L1044 217M967 192L1013 259M1044 217L1122 222M1044 217L1013 259M1044 217L1053 241M1122 222L1053 241M1122 222L1124 310M1252 232L1333 195M1252 232L1256 306M1333 195L1387 238M1387 238L1363 305M1387 238L1459 314M1506 206L1561 192M1506 206L1527 263M1561 192L1527 263M1677 218L1752 174M1677 218L1764 168M1677 218L1635 300M1677 218L1687 270M1752 174L1764 168M1918 240L1922 162M1918 240L1902 268M1922 162L1902 268M2060 235L2141 227M2060 235L1998 313M2060 235L2024 304M2141 227L2169 176M2141 227L2158 310M2141 227L2167 309M2169 176L2260 172M2169 176L2266 245M2260 172L2266 245M2377 237L2408 223M2377 237L2266 245M2377 237L2375 279M2377 237L2424 271M2408 223L2480 197M2408 223L2375 279M2408 223L2424 271M2480 197L2482 256M24 252L82 264M24 252L-78 256M24 252L-12 334M2584 252L2482 256M2584 252L2548 334M82 264L75 346M82 264L98 344M216 244L300 277M300 277L359 256M300 277L329 343M359 256L417 290M359 256L329 343M417 290L329 343M417 290L453 371M417 290L410 402M557 291L574 320M557 291L513 335M557 291L609 334M574 320L672 317M574 320L513 335M574 320L609 334M574 320L659 339M672 317L754 312M672 317L609 334M672 317L659 339M672 317L714 406M754 312L659 339M754 312L781 323M754 312L714 406M865 290L888 269M865 290L781 323M865 290L943 336M888 269L943 336M1013 259L1053 241M1013 259L967 352M1053 241L1124 310M1124 310L1058 367M1124 310L1120 389M1124 310L1235 345M1256 306L1322 312M1256 306L1235 345M1322 312L1363 305M1322 312L1235 345M1322 312L1338 364M1322 312L1385 337M1363 305L1459 314M1363 305L1338 364M1363 305L1385 337M1459 314L1527 263M1459 314L1385 337M1459 314L1518 395M1527 263L1585 351M1635 300L1687 270M1635 300L1585 351M1635 300L1678 347M1635 300L1690 324M1687 270L1763 307M1687 270L1678 347M1687 270L1690 324M1763 307L1678 347M1763 307L1690 324M1763 307L1817 322M1902 268L1817 322M1902 268L1866 366M1902 268L1935 351M1998 313L2024 304M1998 313L1935 351M1998 313L2011 351M1998 313L2028 409M2024 304L2011 351M2024 304L2028 409M2158 310L2167 309M2158 310L2121 346M2167 309L2121 346M2167 309L2199 379M2266 245L2375 279M2375 279L2424 271M2375 279L2381 367M2424 271L2482 256M2424 271L2476 344M2482 256L2476 344M2482 256L2548 334M75 346L98 344M75 346L-12 334M75 346L107 421M75 346L-11 407M2635 346L2548 334M2635 346L2549 407M98 344L107 421M210 376L270 371M210 376L224 433M210 376L271 451M270 371L329 343M270 371L224 433M270 371L271 451M329 343L410 402M453 371L513 335M453 371L410 402M453 371L533 402M513 335L533 402M609 334L659 339M609 334L533 402M659 339L714 406M781 323L861 384M781 323L775 425M861 384L943 336M861 384L775 425M861 384L879 441M943 336L967 352M967 352L1058 367M967 352L951 449M967 352L964 442M1058 367L1120 389M1058 367L1103 453M1120 389L1103 453M1235 345L1338 364M1338 364L1385 337M1338 364L1381 434M1385 337L1381 434M1518 395L1585 351M1518 395L1453 448M1518 395L1535 413M1585 351L1535 413M1678 347L1690 324M1678 347L1693 405M1690 324L1693 405M1817 322L1866 366M1817 322L1825 442M1866 366L1935 351M1866 366L1825 442M1866 366L1901 450M1935 351L2011 351M1935 351L2028 409M2011 351L2028 409M2121 346L2199 379M2121 346L2152 414M2121 346L2190 416M2199 379L2261 385M2199 379L2152 414M2199 379L2190 416M2261 385L2381 367M2261 385L2152 414M2261 385L2190 416M2261 385L2319 407M2381 367L2476 344M2381 367L2319 407M2381 367L2363 432M2476 344L2548 334M2476 344L2549 407M2548 334L2549 407M47 469L107 421M47 469L-11 407M47 469L66 543M47 469L96 509M47 469L-28 482M2607 469L2549 407M2607 469L2532 482M107 421L96 509M224 433L271 451M224 433L220 548M224 433L274 514M271 451L220 548M271 451L274 514M399 474L410 402M399 474L428 543M533 402L591 462M533 402L527 494M591 462L527 494M591 462L605 501M591 462L669 504M714 406L775 425M714 406L669 504M775 425L879 441M775 425L762 535M879 441L951 449M879 441L964 442M879 441L920 540M951 449L964 442M951 449L920 540M951 449L1006 513M964 442L1006 513M1103 453L1195 472M1103 453L1092 554M1103 453L1200 487M1195 472L1270 454M1195 472L1291 454M1195 472L1200 487M1195 472L1246 500M1270 454L1291 454M1270 454L1200 487M1270 454L1246 500M1270 454L1322 499M1291 454L1381 434M1291 454L1246 500M1291 454L1322 499M1381 434L1453 448M1381 434L1322 499M1453 448L1535 413M1535 413L1656 443M1656 443L1693 405M1656 443L1653 503M1656 443L1712 506M1693 405L1653 503M1693 405L1712 506M1825 442L1901 450M1825 442L1777 518M1825 442L1853 529M1901 450L1945 474M1901 450L1853 529M1945 474L2028 409M1945 474L1991 523M1945 474L2008 529M2152 414L2190 416M2152 414L2185 516M2190 416L2185 516M2319 407L2363 432M2363 432L2452 464M2363 432L2371 492M2363 432L2427 504M2452 464L2371 492M2452 464L2427 504M2452 464L2532 482M2549 407L2532 482M66 543L96 509M66 543L12 622M96 509L-28 482M2656 509L2532 482M220 548L274 514M220 548L206 569M220 548L313 622M274 514L360 558M274 514L206 569M360 558L428 543M360 558L313 622M360 558L352 602M360 558L416 595M428 543L416 595M428 543L502 561M527 494L605 501M527 494L502 561M527 494L594 583M605 501L669 504M605 501L594 583M669 504L762 535M669 504L665 616M762 535L803 555M762 535L784 621M803 555L784 621M803 555L834 617M920 540L1006 513M920 540L932 627M920 540L985 580M1006 513L1092 554M1006 513L985 580M1092 554L1070 617M1092 554L1153 629M1200 487L1246 500M1200 487L1259 561M1246 500L1259 561M1322 499L1384 557M1322 499L1259 561M1384 557L1317 625M1384 557L1392 633M1384 557L1346 655M1384 557L1413 650M1505 557L1569 530M1505 557L1499 599M1505 557L1521 633M1505 557L1513 664M1569 530L1653 503M1569 530L1639 630M1653 503L1712 506M1712 506L1777 518M1777 518L1853 529M1777 518L1772 593M1853 529L1851 608M1991 523L2008 529M1991 523L1949 601M1991 523L2034 602M2008 529L2087 552M2008 529L1949 601M2008 529L2034 602M2087 552L2034 602M2087 552L2135 575M2087 552L2160 607M2087 552L2102 642M2185 516L2281 542M2185 516L2135 575M2185 516L2160 607M2281 542L2371 492M2281 542L2293 628M2281 542L2399 587M2371 492L2427 504M2371 492L2399 587M2427 504L2532 482M2427 504L2399 587M12 622L-33 628M12 622L50 659M12 622L87 680M12 622L-1 706M2572 622L2527 628M2572 622L2559 706M138 631L206 569M138 631L50 659M138 631L87 680M138 631L204 688M206 569L204 688M313 622L352 602M313 622L295 670M313 622L360 676M352 602L416 595M352 602L295 670M352 602L360 676M416 595L502 561M416 595L413 692M502 561L594 583M502 561L496 648M594 583L665 616M594 583L496 648M665 616L615 710M665 616L702 706M665 616L611 730M784 621L834 617M784 621L797 694M784 621L805 686M834 617L932 627M834 617L797 694M834 617L805 686M932 627L985 580M932 627L917 712M932 627L1013 674M985 580L1070 617M985 580L1013 674M1070 617L1153 629M1070 617L1013 674M1070 617L1116 653M1153 629L1116 653M1153 629L1165 710M1153 629L1213 668M1259 561L1317 625M1259 561L1213 668M1317 625L1392 633M1317 625L1346 655M1392 633L1346 655M1392 633L1413 650M1499 599L1521 633M1499 599L1413 650M1499 599L1513 664M1499 599L1549 646M1521 633L1513 664M1521 633L1549 646M1639 630L1681 628M1639 630L1549 646M1639 630L1631 664M1639 630L1713 682M1681 628L1631 664M1681 628L1713 682M1772 593L1851 608M1772 593L1814 657M1772 593L1857 650M1851 608L1814 657M1851 608L1857 650M1851 608L1935 658M1949 601L1857 650M1949 601L1935 658M2034 602L2058 652M2034 602L2102 642M2135 575L2160 607M2135 575L2102 642M2135 575L2187 676M2160 607L2102 642M2160 607L2187 676M2293 628L2307 691M2293 628L2323 682M2293 628L2302 721M2399 587L2476 633M2399 587L2414 668M2476 633L2527 628M2476 633L2414 668M2527 628L2610 659M2527 628L2559 706M2527 628L2484 732M-33 628L50 659M50 659L87 680M50 659L-1 706M2610 659L2559 706M204 688L295 670M204 688L177 790M204 688L265 734M295 670L360 676M295 670L265 734M360 676L413 692M413 692L496 648M413 692L429 771M413 692L488 720M496 648L488 720M615 710L702 706M615 710L611 730M615 710L620 812M702 706L611 730M702 706L702 787M797 694L805 686M797 694L763 794M797 694L880 736M805 686L880 736M917 712L880 736M917 712L890 765M1013 674L1029 721M1116 653L1165 710M1116 653L1213 668M1116 653L1119 732M1165 710L1213 668M1165 710L1119 732M1165 710L1137 786M1213 668L1119 732M1346 655L1413 650M1346 655L1317 735M1413 650L1469 727M1513 664L1549 646M1513 664L1469 727M1549 646L1631 664M1631 664L1713 682M1631 664L1565 766M1713 682L1814 657M1713 682L1706 781M1814 657L1857 650M1814 657L1803 756M1857 650L1935 658M1935 658L1972 721M2058 652L2102 642M2058 652L1972 721M2058 652L2036 765M2058 652L2096 746M2187 676L2096 746M2187 676L2178 753M2307 691L2323 682M2307 691L2414 668M2307 691L2302 721M2307 691L2365 780M2323 682L2414 668M2323 682L2302 721M2414 668L2413 744M2559 706L2565 752M2559 706L2484 732M-1 706L5 752M5 752L-76 732M5 752L42 821M2565 752L2484 732M128 794L177 790M128 794L42 821M128 794L92 847M128 794L204 814M128 794L139 902M177 790L265 734M177 790L92 847M177 790L204 814M265 734L329 798M265 734L293 813M329 798L293 813M329 798L390 874M429 771L488 720M429 771L390 874M429 771L446 865M429 771L427 883M611 730L620 812M702 787L763 794M702 787L620 812M702 787L718 853M702 787L743 809M763 794L718 853M763 794L743 809M763 794L847 800M880 736L890 765M880 736L847 800M890 765L847 800M890 765L900 839M890 765L1005 810M1029 721L1119 732M1029 721L1005 810M1029 721L1042 817M1119 732L1137 786M1137 786L1236 797M1137 786L1042 817M1137 786L1195 839M1236 797L1317 735M1236 797L1195 839M1236 797L1246 819M1236 797L1306 804M1317 735L1306 804M1317 735L1368 807M1417 780L1469 727M1417 780L1368 807M1417 780L1442 850M1469 727L1565 766M1565 766L1669 786M1565 766L1566 845M1669 786L1706 781M1706 781L1803 756M1706 781L1708 862M1803 756L1865 768M1803 756L1886 837M1865 768L1972 721M1865 768L1886 837M1972 721L2036 765M2036 765L2096 746M2036 765L1958 837M2036 765L2048 877M2096 746L2178 753M2096 746L2157 833M2178 753L2157 833M2302 721L2365 780M2302 721L2282 818M2365 780L2413 744M2365 780L2282 818M2365 780L2380 841M2413 744L2484 732M2484 732L2494 841M42 821L92 847M42 821L-66 841M42 821L65 900M2602 821L2494 841M92 847L65 900M92 847L139 902M204 814L293 813M293 813L347 896M390 874L446 865M390 874L347 896M390 874L427 883M446 865L528 867M446 865L427 883M446 865L543 888M528 867L427 883M528 867L543 888M528 867L592 897M620 812L592 897M620 812L652 897M718 853L743 809M718 853L652 897M743 809L847 800M743 809L652 897M847 800L900 839M900 839L830 920M900 839L887 948M900 839L963 922M1005 810L1042 817M1005 810L963 922M1005 810L1103 882M1042 817L1103 882M1195 839L1246 819M1195 839L1195 914M1246 819L1306 804M1246 819L1293 905M1306 804L1368 807M1306 804L1293 905M1368 807L1442 850M1368 807L1362 929M1442 850L1362 929M1442 850L1487 910M1442 850L1440 962M1566 845L1645 869M1566 845L1487 910M1566 845L1590 898M1645 869L1708 862M1645 869L1590 898M1645 869L1657 892M1645 869L1691 900M1708 862L1768 863M1708 862L1657 892M1708 862L1691 900M1768 863L1886 837M1768 863L1691 900M1768 863L1793 926M1768 863L1749 982M1886 837L1958 837M1886 837L1877 927M1958 837L2048 877M2048 877L1984 949M2048 877L2074 897M2157 833L2229 859M2157 833L2074 897M2157 833L2159 918M2229 859L2282 818M2229 859L2159 918M2229 859L2191 953M2229 859L2275 883M2282 818L2275 883M2380 841L2455 870M2380 841L2275 883M2380 841L2340 931M2380 841L2404 911M2455 870L2494 841M2455 870L2404 911M2455 870L2541 924M2494 841L2404 911M2494 841L2541 924M65 900L139 902M65 900L-19 924M65 900L90 968M2625 900L2541 924M139 902L187 934M139 902L90 968M187 934L255 945M187 934L232 965M255 945L347 896M255 945L232 965M255 945L306 976M347 896L427 883M347 896L306 976M543 888L592 897M543 888L652 897M543 888L561 1009M592 897L652 897M592 897L561 1009M777 957L830 920M777 957L729 1024M777 957L813 1002M830 920L887 948M830 920L813 1002M830 920L919 992M887 948L963 922M887 948L813 1002M887 948L919 992M963 922L919 992M963 922L1011 1011M1103 882L1195 914M1103 882L1116 976M1103 882L1128 982M1195 914L1212 953M1195 914L1293 905M1195 914L1128 982M1212 953L1293 905M1212 953L1116 976M1212 953L1128 982M1212 953L1236 1039M1293 905L1362 929M1362 929L1409 1016M1362 929L1440 962M1487 910L1440 962M1590 898L1657 892M1590 898L1650 980M1657 892L1691 900M1657 892L1650 980M1691 900L1650 980M1793 926L1877 927M1793 926L1749 982M1793 926L1791 1017M1877 927L1984 949M1877 927L1886 1029M1877 927L1930 1014M1984 949L2074 897M1984 949L1930 1014M2074 897L2159 918M2074 897L2116 973M2159 918L2191 953M2159 918L2116 973M2191 953L2275 883M2191 953L2116 973M2191 953L2214 1031M2275 883L2340 931M2340 931L2404 911M2340 931L2360 1010M2404 911L2360 1010M2541 924L2474 1004M2541 924L2555 1008M59 1031L90 968M59 1031L-5 1008M59 1031L42 1045M59 1031L160 1068M59 1031L-33 1075M2619 1031L2555 1008M2619 1031L2527 1075M90 968L42 1045M232 965L306 976M232 965L229 1063M306 976L354 1035M306 976L229 1063M354 1035L424 1027M354 1035L399 1057M354 1035L423 1069M424 1027L502 1033M424 1027L399 1057M424 1027L423 1069M424 1027L480 1125M502 1033L561 1009M502 1033L423 1069M502 1033L522 1096M502 1033L585 1047M561 1009L522 1096M561 1009L585 1047M685 1038L729 1024M685 1038L585 1047M685 1038L645 1096M685 1038L767 1082M729 1024L813 1002M729 1024L767 1082M729 1024L803 1068M813 1002L803 1068M919 992L1011 1011M919 992L881 1095M1011 1011L1116 976M1011 1011L1066 1097M1116 976L1128 982M1116 976L1123 1075M1128 982L1123 1075M1236 1039L1300 1025M1236 1039L1229 1088M1236 1039L1292 1076M1300 1025L1409 1016M1300 1025L1229 1088M1300 1025L1292 1076M1300 1025L1389 1073M1409 1016L1440 962M1409 1016L1389 1073M1409 1016L1445 1097M1599 995L1650 980M1599 995L1550 1053M1599 995L1658 1082M1650 980L1749 982M1749 982L1791 1017M1791 1017L1886 1029M1791 1017L1792 1081M1791 1017L1872 1069M1886 1029L1930 1014M1886 1029L1872 1069M1886 1029L1980 1055M1930 1014L1872 1069M1930 1014L1980 1055M2076 1011L2116 973M2076 1011L1980 1055M2076 1011L2044 1099M2076 1011L2131 1091M2076 1011L2184 1048M2214 1031L2270 1035M2214 1031L2131 1091M2214 1031L2184 1048M2214 1031L2269 1045M2270 1035L2360 1010M2270 1035L2184 1048M2270 1035L2269 1045M2270 1035L2299 1135M2360 1010L2269 1045M2360 1010L2429 1072M2474 1004L2555 1008M2474 1004L2429 1072M2474 1004L2527 1075M2555 1008L2602 1045M2555 1008L2527 1075M-5 1008L42 1045M42 1045L-33 1075M42 1045L83 1141M2602 1045L2527 1075M160 1068L229 1063M160 1068L255 1107M160 1068L83 1141M160 1068L257 1120M229 1063L255 1107M229 1063L257 1120M255 1107L208 1187M255 1107L257 1120M255 1107L222 1207M399 1057L423 1069M399 1057L480 1125M423 1069L480 1125M522 1096L585 1047M522 1096L480 1125M522 1096L524 1157M585 1047L645 1096M645 1096L628 1196M645 1096L701 1170M767 1082L803 1068M767 1082L777 1161M803 1068L881 1095M803 1068L777 1161M881 1095L867 1189M881 1095L958 1164M1030 1119L1066 1097M1030 1119L1123 1075M1030 1119L958 1164M1030 1119L1017 1198M1030 1119L1041 1183M1066 1097L1123 1075M1066 1097L1041 1183M1066 1097L1128 1130M1123 1075L1128 1130M1229 1088L1292 1076M1229 1088L1128 1130M1229 1088L1250 1175M1292 1076L1389 1073M1292 1076L1250 1175M1389 1073L1445 1097M1389 1073L1451 1146M1445 1097L1550 1053M1445 1097L1406 1194M1445 1097L1451 1146M1550 1053L1658 1082M1658 1082L1703 1118M1658 1082L1669 1134M1703 1118L1792 1081M1703 1118L1669 1134M1703 1118L1753 1151M1792 1081L1872 1069M1792 1081L1753 1151M1792 1081L1817 1147M1872 1069L1817 1147M1980 1055L2044 1099M1980 1055L1980 1133M2044 1099L2131 1091M2044 1099L1980 1133M2044 1099L2019 1165M2131 1091L2184 1048M2131 1091L2144 1198M2184 1048L2269 1045M2269 1045L2299 1135M2368 1112L2429 1072M2368 1112L2299 1135M2368 1112L2391 1153M2429 1072L2527 1075M2429 1072L2391 1153M21 1175L83 1141M21 1175L-44 1193M21 1175L24 1257M21 1175L91 1259M21 1175L-65 1202M2581 1175L2516 1193M2581 1175L2495 1202M208 1187L257 1120M208 1187L222 1207M208 1187L147 1294M208 1187L232 1281M257 1120L222 1207M363 1185L313 1267M363 1185L394 1235M363 1185L403 1272M480 1125L524 1157M524 1157L567 1233M628 1196L701 1170M628 1196L567 1233M628 1196L661 1262M628 1196L641 1299M701 1170L777 1161M701 1170L661 1262M701 1170L738 1228M777 1161L738 1228M777 1161L846 1226M867 1189L958 1164M867 1189L846 1226M867 1189L913 1278M958 1164L1017 1198M958 1164L1041 1183M1017 1198L1041 1183M1017 1198L984 1273M1017 1198L1070 1203M1041 1183L1070 1203M1128 1130L1070 1203M1250 1175L1353 1192M1250 1175L1219 1230M1250 1175L1292 1229M1353 1192L1406 1194M1353 1192L1451 1146M1353 1192L1292 1229M1353 1192L1428 1247M1406 1194L1451 1146M1406 1194L1428 1247M1451 1146L1512 1210M1542 1195L1512 1210M1542 1195L1599 1238M1542 1195L1633 1243M1669 1134L1753 1151M1753 1151L1817 1147M1753 1151L1819 1215M1817 1147L1851 1197M1817 1147L1819 1215M1851 1197L1819 1215M1851 1197L1908 1225M1851 1197L1939 1226M1980 1133L2019 1165M1980 1133L1939 1226M2019 1165L1939 1226M2144 1198L2209 1184M2144 1198L2120 1246M2144 1198L2207 1258M2209 1184L2120 1246M2209 1184L2207 1258M2209 1184L2297 1210M2299 1135L2391 1153M2299 1135L2297 1210M2391 1153L2420 1192M2391 1153L2440 1234M2420 1192L2516 1193M2420 1192L2394 1265M2420 1192L2440 1234M2420 1192L2495 1202M2516 1193L2584 1257M2516 1193L2440 1234M2516 1193L2495 1202M-44 1193L24 1257M24 1257L91 1259M24 1257L8 1324M24 1257L-10 1331M2584 1257L2550 1331M91 1259L8 1324M91 1259L147 1294M222 1207L232 1281M313 1267L232 1281M313 1267L288 1334M313 1267L347 1322M394 1235L403 1272M403 1272L347 1322M403 1272L409 1349M543 1278L567 1233M543 1278L510 1358M543 1278L576 1333M543 1278L641 1299M567 1233L661 1262M661 1262L738 1228M661 1262L641 1299M738 1228L846 1226M738 1228L774 1299M846 1226L913 1278M846 1226L774 1299M913 1278L984 1273M913 1278L909 1347M984 1273L1070 1203M984 1273L909 1347M984 1273L1017 1326M1171 1266L1219 1230M1171 1266L1111 1317M1171 1266L1194 1359M1171 1266L1216 1299M1219 1230L1292 1229M1219 1230L1216 1299M1292 1229L1216 1299M1292 1229L1306 1316M1428 1247L1512 1210M1428 1247L1478 1309M1512 1210L1599 1238M1599 1238L1633 1243M1599 1238L1563 1310M1599 1238L1666 1282M1633 1243L1699 1259M1633 1243L1563 1310M1633 1243L1666 1282M1699 1259L1666 1282M1699 1259L1720 1328M1819 1215L1908 1225M1819 1215L1804 1309M1908 1225L1939 1226M1908 1225L2012 1278M1939 1226L2012 1278M2012 1278L2120 1246M2012 1278L1924 1331M2012 1278L2006 1313M2120 1246L2207 1258M2120 1246L2120 1332M2207 1258L2207 1333M2207 1258L2289 1320M2394 1265L2440 1234M2394 1265L2458 1331M2440 1234L2495 1202M8 1324L-102 1331M8 1324L-10 1331M8 1324L22 1392M2568 1324L2458 1331M2568 1324L2550 1331M147 1294L232 1281M147 1294L123 1370M147 1294L164 1412M232 1281L288 1334M288 1334L347 1322M288 1334L312 1431M288 1334L366 1363M347 1322L409 1349M347 1322L366 1363M409 1349L510 1358M409 1349L366 1363M409 1349L411 1386M510 1358L576 1333M510 1358L553 1430M510 1358L568 1425M576 1333L641 1299M576 1333L568 1425M641 1299L662 1373M774 1299L819 1337M774 1299L766 1371M819 1337L909 1347M819 1337L766 1371M819 1337L837 1385M909 1347L837 1385M909 1347L960 1392M1017 1326L1111 1317M1017 1326L960 1392M1017 1326L1035 1413M1017 1326L1048 1390M1111 1317L1194 1359M1111 1317L1048 1390M1194 1359L1216 1299M1194 1359L1182 1414M1194 1359L1221 1421M1216 1299L1306 1316M1306 1316L1399 1360M1306 1316L1310 1401M1306 1316L1376 1405M1399 1360L1478 1309M1399 1360L1310 1401M1399 1360L1376 1405M1478 1309L1563 1310M1563 1310L1602 1370M1666 1282L1720 1328M1666 1282L1681 1386M1720 1328L1804 1309M1720 1328L1681 1386M1720 1328L1792 1398M1804 1309L1897 1350M1804 1309L1792 1398M1804 1309L1890 1360M1897 1350L1924 1331M1897 1350L2006 1313M1897 1350L1890 1360M1897 1350L1941 1370M1924 1331L2006 1313M1924 1331L1890 1360M1924 1331L1941 1370M2006 1313L1941 1370M2006 1313L2049 1408M2120 1332L2207 1333M2120 1332L2049 1408M2120 1332L2102 1389M2120 1332L2196 1407M2207 1333L2289 1320M2207 1333L2196 1407M2207 1333L2274 1379M2289 1320L2343 1348M2289 1320L2274 1379M2343 1348L2274 1379M2343 1348L2337 1419M2343 1348L2424 1381M2458 1331L2550 1331M2458 1331L2424 1381M2550 1331L2582 1392M2550 1331L2488 1440M-10 1331L22 1392M22 1392L-72 1440M2582 1392L2488 1440M123 1370L164 1412M312 1431L366 1363M312 1431L411 1386M366 1363L411 1386M553 1430L568 1425M766 1371L837 1385M960 1392L1035 1413M960 1392L1048 1390M1035 1413L1048 1390M1182 1414L1221 1421M1221 1421L1310 1401M1310 1401L1376 1405M1506 1437L1559 1432M1506 1437L1602 1370M1559 1432L1602 1370M1602 1370L1681 1386M1792 1398L1890 1360M1890 1360L1941 1370M2049 1408L2102 1389M2102 1389L2196 1407M2274 1379L2337 1419M2424 1381L2488 1440"/></svg>