<svg xmlns="http://www.w3.org/2000/svg" width="2560" height="1440" fill="#fff"><circle cx="36" cy="11" r="4"/><circle cx="153" cy="18" r="5"/><circle cx="164" cy="11" r="4"/><circle cx="283" cy="66" r="6"/><circle cx="366" cy="34" r="5"/><circle cx="472" cy="49" r="6"/><circle cx="535" cy="31" r="4"/><circle cx="637" cy="22" r="6"/><circle cx="686" cy="3" r="6"/><circle cx="686" cy="1443" r="6"/><circle cx="726" cy="34" r="5"/><circle cx="858" cy="37" r="5"/><circle cx="906" cy="63" r="5"/><circle cx="982" cy="75" r="4"/><circle cx="1101" cy="59" r="4"/><circle cx="1154" cy="28" r="6"/><circle cx="1220" cy="22" r="5"/><circle cx="1360" cy="13" r="5"/><circle cx="1432" cy="62" r="4"/><circle cx="1441" cy="33" r="5"/><circle cx="1548" cy="47" r="6"/><circle cx="1678" cy="60" r="4"/><circle cx="1680" cy="17" r="4"/><circle cx="1781" cy="48" r="6"/><circle cx="1869" cy="75" r="5"/><circle cx="1998" cy="67" r="5"/><circle cx="2065" cy="0" r="6"/><circle cx="2065" cy="1440" r="6"/><circle cx="2129" cy="47" r="5"/><circle cx="2176" cy="57" r="4"/><circle cx="2316" cy="2" r="4"/><circle cx="2316" cy="1442" r="4"/><circle cx="2396" cy="29" r="4"/><circle cx="2435" cy="62" r="6"/><circle cx="2551" cy="46" r="5"/><circle cx="74" cy="142" r="4"/><circle cx="106" cy="150" r="4"/><circle cx="163" cy="114" r="4"/><circle cx="288" cy="104" r="6"/><circle cx="386" cy="113" r="5"/><circle cx="449" cy="111" r="5"/><circle cx="528" cy="125" r="5"/><circle cx="635" cy="153" r="6"/><circle cx="711" cy="132" r="4"/><circle cx="779" cy="121" r="5"/><circle cx="824" cy="130" r="5"/><circle cx="955" cy="125" r="6"/><circle cx="1019" cy="87" r="4"/><circle cx="1059" cy="138" r="5"/><circle cx="1122" cy="136" r="5"/><circle cx="1249" cy="156" r="6"/><circle cx="1328" cy="105" r="5"/><circle cx="1428" cy="129" r="6"/><circle cx="1480" cy="120" r="4"/><circle cx="1586" cy="128" r="6"/><circle cx="1600" cy="107" r="5"/><circle cx="1689" cy="156" r="6"/><circle cx="1774" cy="156" r="6"/><circle cx="1898" cy="103" r="5"/><circle cx="1994" cy="146" r="5"/><circle cx="2044" cy="98" r="5"/><circle cx="2113" cy="103" r="6"/><circle cx="2219" cy="84" r="6"/><circle cx="2294" cy="95" r="6"/><circle cx="2361" cy="118" r="6"/><circle cx="2456" cy="119" r="4"/><circle cx="2538" cy="133" r="6"/><circle cx="76" cy="214" r="5"/><circle cx="112" cy="196" r="5"/><circle cx="161" cy="236" r="4"/><circle cx="288" cy="232" r="6"/><circle cx="342" cy="230" r="4"/><circle cx="422" cy="231" r="4"/><circle cx="542" cy="215" r="4"/><circle cx="565" cy="227" r="5"/><circle cx="652" cy="214" r="4"/><circle cx="760" cy="225" r="5"/><circle cx="845" cy="169" r="6"/><circle cx="893" cy="189" r="6"/><circle cx="979" cy="221" r="5"/><circle cx="1076" cy="179" r="5"/><circle cx="1189" cy="202" r="5"/><circle cx="1261" cy="173" r="6"/><circle cx="1287" cy="164" r="6"/><circle cx="1400" cy="183" r="4"/><circle cx="1442" cy="180" r="6"/><circle cx="1542" cy="181" r="4"/><circle cx="1612" cy="231" r="5"/><circle cx="1747" cy="226" r="4"/><circle cx="1823" cy="210" r="6"/><circle cx="1887" cy="225" r="5"/><circle cx="1935" cy="174" r="6"/><circle cx="2080" cy="177" r="5"/><circle cx="2156" cy="186" r="5"/><circle cx="2190" cy="211" r="6"/><circle cx="2318" cy="207" r="6"/><circle cx="2343" cy="232" r="5"/><circle cx="2442" cy="174" r="6"/><circle cx="2485" cy="161" r="4"/><circle cx="41" cy="255" r="5"/><circle cx="91" cy="319" r="6"/><circle cx="211" cy="297" r="6"/><circle cx="285" cy="269" r="5"/><circle cx="379" cy="290" r="6"/><circle cx="450" cy="240" r="5"/><circle cx="533" cy="272" r="5"/><circle cx="586" cy="263" r="5"/><circle cx="675" cy="302" r="5"/><circle cx="731" cy="311" r="4"/><circle cx="815" cy="260" r="6"/><circle cx="907" cy="278" r="5"/><circle cx="977" cy="241" r="4"/><circle cx="1049" cy="276" r="6"/><circle cx="1177" cy="273" r="4"/><circle cx="1227" cy="289" r="4"/><circle cx="1282" cy="263" r="5"/><circle cx="1425" cy="242" r="5"/><circle cx="1511" cy="261" r="5"/><circle cx="1521" cy="262" r="4"/><circle cx="1679" cy="288" r="5"/><circle cx="1754" cy="290" r="5"/><circle cx="1763" cy="302" r="6"/><circle cx="1842" cy="293" r="5"/><circle cx="1940" cy="295" r="5"/><circle cx="2073" cy="254" r="5"/><circle cx="2112" cy="320" r="5"/><circle cx="2223" cy="262" r="4"/><circle cx="2285" cy="245" r="6"/><circle cx="2328" cy="260" r="4"/><circle cx="2462" cy="287" r="5"/><circle cx="2522" cy="266" r="5"/><circle cx="55" cy="367" r="5"/><circle cx="127" cy="359" r="6"/><circle cx="169" cy="335" r="5"/><circle cx="248" cy="359" r="5"/><circle cx="377" cy="396" r="6"/><circle cx="468" cy="345" r="6"/><circle cx="507" cy="331" r="4"/><circle cx="634" cy="375" r="6"/><circle cx="641" cy="344" r="5"/><circle cx="752" cy="324" r="4"/><circle cx="819" cy="393" r="4"/><circle cx="925" cy="364" r="4"/><circle cx="980" cy="368" r="5"/><circle cx="1048" cy="343" r="5"/><circle cx="1187" cy="380" r="4"/><circle cx="1277" cy="376" r="5"/><circle cx="1289" cy="327" r="5"/><circle cx="1427" cy="348" r="5"/><circle cx="1499" cy="399" r="5"/><circle cx="1558" cy="377" r="5"/><circle cx="1652" cy="394" r="4"/><circle cx="1740" cy="378" r="6"/><circle cx="1823" cy="339" r="6"/><circle cx="1874" cy="358" r="5"/><circle cx="1958" cy="387" r="5"/><circle cx="2026" cy="330" r="5"/><circle cx="2156" cy="347" r="6"/><circle cx="2239" cy="380" r="5"/><circle cx="2255" cy="377" r="5"/><circle cx="2328" cy="354" r="5"/><circle cx="2444" cy="375" r="4"/><circle cx="2498" cy="381" r="6"/><circle cx="50" cy="419" r="5"/><circle cx="87" cy="472" r="5"/><circle cx="206" cy="438" r="4"/><circle cx="251" cy="404" r="5"/><circle cx="335" cy="422" r="5"/><circle cx="458" cy="473" r="6"/><circle cx="531" cy="400" r="5"/><circle cx="606" cy="447" r="5"/><circle cx="661" cy="434" r="6"/><circle cx="768" cy="468" r="5"/><circle cx="811" cy="453" r="5"/><circle cx="948" cy="433" r="6"/><circle cx="1001" cy="478" r="6"/><circle cx="1095" cy="410" r="6"/><circle cx="1173" cy="440" r="4"/><circle cx="1263" cy="446" r="5"/><circle cx="1306" cy="475" r="5"/><circle cx="1410" cy="406" r="5"/><circle cx="1446" cy="425" r="5"/><circle cx="1578" cy="455" r="5"/><circle cx="1655" cy="423" r="6"/><circle cx="1701" cy="468" r="5"/><circle cx="1810" cy="452" r="4"/><circle cx="1874" cy="468" r="5"/><circle cx="1954" cy="451" r="5"/><circle cx="2053" cy="458" r="6"/><circle cx="2091" cy="443" r="5"/><circle cx="2227" cy="411" r="5"/><circle cx="2281" cy="403" r="5"/><circle cx="2349" cy="412" r="4"/><circle cx="2479" cy="425" r="4"/><circle cx="2482" cy="475" r="6"/><circle cx="77" cy="549" r="6"/><circle cx="124" cy="554" r="5"/><circle cx="172" cy="489" r="5"/><circle cx="267" cy="519" r="5"/><circle cx="335" cy="533" r="5"/><circle cx="401" cy="501" r="6"/><circle cx="493" cy="496" r="4"/><circle cx="581" cy="525" r="6"/><circle cx="714" cy="494" r="5"/><circle cx="753" cy="554" r="6"/><circle cx="827" cy="508" r="6"/><circle cx="943" cy="489" r="5"/><circle cx="1034" cy="528" r="6"/><circle cx="1041" cy="495" r="5"/><circle cx="1189" cy="522" r="6"/><circle cx="1227" cy="491" r="5"/><circle cx="1345" cy="511" r="6"/><circle cx="1409" cy="540" r="6"/><circle cx="1461" cy="556" r="4"/><circle cx="1543" cy="514" r="5"/><circle cx="1656" cy="481" r="6"/><circle cx="1760" cy="497" r="5"/><circle cx="1789" cy="492" r="4"/><circle cx="1859" cy="548" r="4"/><circle cx="1992" cy="559" r="4"/><circle cx="2049" cy="527" r="6"/><circle cx="2127" cy="553" r="6"/><circle cx="2189" cy="511" r="5"/><circle cx="2312" cy="492" r="5"/><circle cx="2381" cy="493" r="5"/><circle cx="2433" cy="559" r="4"/><circle cx="2504" cy="481" r="5"/><circle cx="65" cy="591" r="4"/><circle cx="116" cy="622" r="6"/><circle cx="167" cy="578" r="4"/><circle cx="271" cy="584" r="6"/><circle cx="360" cy="598" r="5"/><circle cx="454" cy="634" r="4"/><circle cx="500" cy="577" r="5"/><circle cx="582" cy="566" r="5"/><circle cx="653" cy="570" r="4"/><circle cx="752" cy="628" r="6"/><circle cx="843" cy="618" r="6"/><circle cx="942" cy="595" r="5"/><circle cx="1037" cy="603" r="5"/><circle cx="1055" cy="608" r="4"/><circle cx="1198" cy="592" r="5"/><circle cx="1230" cy="625" r="6"/><circle cx="1288" cy="566" r="6"/><circle cx="1429" cy="624" r="5"/><circle cx="1495" cy="593" r="5"/><circle cx="1529" cy="622" r="5"/><circle cx="1615" cy="639" r="5"/><circle cx="1759" cy="615" r="5"/><circle cx="1787" cy="625" r="6"/><circle cx="1858" cy="631" r="5"/><circle cx="1980" cy="637" r="6"/><circle cx="2002" cy="589" r="5"/><circle cx="2118" cy="618" r="6"/><circle cx="2209" cy="584" r="6"/><circle cx="2258" cy="562" r="6"/><circle cx="2372" cy="569" r="6"/><circle cx="2410" cy="565" r="6"/><circle cx="2528" cy="588" r="5"/><circle cx="46" cy="717" r="4"/><circle cx="142" cy="681" r="4"/><circle cx="203" cy="663" r="5"/><circle cx="307" cy="672" r="5"/><circle cx="345" cy="695" r="5"/><circle cx="469" cy="675" r="6"/><circle cx="547" cy="675" r="5"/><circle cx="588" cy="711" r="6"/><circle cx="666" cy="653" r="6"/><circle cx="772" cy="715" r="4"/><circle cx="851" cy="692" r="4"/><circle cx="914" cy="652" r="5"/><circle cx="998" cy="702" r="5"/><circle cx="1077" cy="713" r="4"/><circle cx="1145" cy="653" r="4"/><circle cx="1252" cy="719" r="6"/><circle cx="1331" cy="666" r="5"/><circle cx="1396" cy="717" r="5"/><circle cx="1512" cy="681" r="5"/><circle cx="1581" cy="648" r="5"/><circle cx="1608" cy="719" r="5"/><circle cx="1680" cy="715" r="5"/><circle cx="1772" cy="714" r="6"/><circle cx="1913" cy="694" r="4"/><circle cx="1975" cy="695" r="6"/><circle cx="2072" cy="704" r="6"/><circle cx="2120" cy="719" r="6"/><circle cx="2226" cy="688" r="5"/><circle cx="2261" cy="647" r="5"/><circle cx="2386" cy="653" r="5"/><circle cx="2430" cy="680" r="5"/><circle cx="2509" cy="699" r="4"/><circle cx="1" cy="792" r="4"/><circle cx="2561" cy="792" r="4"/><circle cx="154" cy="742" r="6"/><circle cx="210" cy="751" r="5"/><circle cx="251" cy="776" r="5"/><circle cx="323" cy="798" r="5"/><circle cx="405" cy="731" r="6"/><circle cx="551" cy="790" r="5"/><circle cx="571" cy="735" r="5"/><circle cx="660" cy="739" r="5"/><circle cx="756" cy="799" r="5"/><circle cx="833" cy="786" r="4"/><circle cx="925" cy="732" r="5"/><circle cx="1033" cy="739" r="5"/><circle cx="1083" cy="780" r="5"/><circle cx="1174" cy="757" r="6"/><circle cx="1243" cy="798" r="5"/><circle cx="1282" cy="754" r="5"/><circle cx="1400" cy="763" r="5"/><circle cx="1500" cy="780" r="5"/><circle cx="1548" cy="744" r="5"/><circle cx="1635" cy="784" r="5"/><circle cx="1681" cy="758" r="5"/><circle cx="1814" cy="772" r="5"/><circle cx="1897" cy="782" r="4"/><circle cx="1985" cy="785" r="5"/><circle cx="2074" cy="790" r="6"/><circle cx="2146" cy="776" r="4"/><circle cx="2203" cy="752" r="4"/><circle cx="2258" cy="743" r="5"/><circle cx="2348" cy="794" r="5"/><circle cx="2474" cy="737" r="6"/><circle cx="2536" cy="747" r="5"/><circle cx="67" cy="833" r="6"/><circle cx="102" cy="835" r="6"/><circle cx="215" cy="803" r="4"/><circle cx="294" cy="859" r="6"/><circle cx="327" cy="851" r="6"/><circle cx="448" cy="823" r="6"/><circle cx="481" cy="828" r="4"/><circle cx="623" cy="819" r="5"/><circle cx="678" cy="825" r="5"/><circle cx="792" cy="805" r="4"/><circle cx="862" cy="838" r="6"/><circle cx="930" cy="802" r="5"/><circle cx="986" cy="815" r="6"/><circle cx="1052" cy="877" r="5"/><circle cx="1164" cy="871" r="5"/><circle cx="1218" cy="826" r="5"/><circle cx="1288" cy="843" r="5"/><circle cx="1391" cy="851" r="5"/><circle cx="1472" cy="868" r="5"/><circle cx="1565" cy="830" r="5"/><circle cx="1680" cy="807" r="4"/><circle cx="1683" cy="801" r="4"/><circle cx="1777" cy="875" r="4"/><circle cx="1893" cy="879" r="5"/><circle cx="1963" cy="851" r="5"/><circle cx="2027" cy="870" r="5"/><circle cx="2156" cy="803" r="5"/><circle cx="2226" cy="876" r="5"/><circle cx="2314" cy="871" r="5"/><circle cx="2393" cy="821" r="5"/><circle cx="2473" cy="866" r="6"/><circle cx="2494" cy="873" r="5"/><circle cx="10" cy="936" r="5"/><circle cx="154" cy="939" r="6"/><circle cx="189" cy="953" r="6"/><circle cx="310" cy="899" r="6"/><circle cx="372" cy="950" r="5"/><circle cx="415" cy="903" r="4"/><circle cx="554" cy="958" r="5"/><circle cx="624" cy="907" r="5"/><circle cx="662" cy="939" r="4"/><circle cx="760" cy="922" r="4"/><circle cx="843" cy="944" r="5"/><circle cx="949" cy="960" r="5"/><circle cx="967" cy="890" r="5"/><circle cx="1086" cy="946" r="4"/><circle cx="1185" cy="887" r="6"/><circle cx="1231" cy="885" r="5"/><circle cx="1317" cy="945" r="5"/><circle cx="1412" cy="894" r="6"/><circle cx="1462" cy="931" r="4"/><circle cx="1564" cy="901" r="5"/><circle cx="1678" cy="941" r="5"/><circle cx="1746" cy="881" r="4"/><circle cx="1817" cy="951" r="4"/><circle cx="1843" cy="920" r="5"/><circle cx="1926" cy="888" r="4"/><circle cx="2020" cy="888" r="4"/><circle cx="2124" cy="896" r="5"/><circle cx="2188" cy="912" r="4"/><circle cx="2292" cy="894" r="5"/><circle cx="2355" cy="916" r="5"/><circle cx="2453" cy="946" r="5"/><circle cx="2481" cy="893" r="5"/><circle cx="33" cy="1040" r="6"/><circle cx="157" cy="1017" r="5"/><circle cx="178" cy="969" r="5"/><circle cx="282" cy="984" r="4"/><circle cx="348" cy="975" r="5"/><circle cx="442" cy="1025" r="5"/><circle cx="535" cy="967" r="4"/><circle cx="606" cy="986" r="5"/><circle cx="667" cy="967" r="5"/><circle cx="740" cy="1037" r="6"/><circle cx="872" cy="1000" r="6"/><circle cx="948" cy="1001" r="5"/><circle cx="968" cy="988" r="5"/><circle cx="1068" cy="1032" r="6"/><circle cx="1128" cy="965" r="5"/><circle cx="1207" cy="1004" r="6"/><circle cx="1333" cy="969" r="4"/><circle cx="1419" cy="989" r="5"/><circle cx="1447" cy="998" r="6"/><circle cx="1529" cy="987" r="5"/><circle cx="1679" cy="975" r="6"/><circle cx="1707" cy="1001" r="4"/><circle cx="1788" cy="1029" r="6"/><circle cx="1920" cy="1034" r="5"/><circle cx="1944" cy="976" r="4"/><circle cx="2025" cy="1027" r="5"/><circle cx="2130" cy="1031" r="5"/><circle cx="2238" cy="993" r="5"/><circle cx="2255" cy="978" r="5"/><circle cx="2339" cy="1012" r="5"/><circle cx="2466" cy="1037" r="4"/><circle cx="2533" cy="1007" r="4"/><circle cx="74" cy="1108" r="5"/><circle cx="105" cy="1093" r="5"/><circle cx="224" cy="1119" r="4"/><circle cx="267" cy="1078" r="5"/><circle cx="367" cy="1102" r="6"/><circle cx="425" cy="1063" r="5"/><circle cx="496" cy="1111" r="4"/><circle cx="615" cy="1051" r="6"/><circle cx="677" cy="1065" r="5"/><circle cx="734" cy="1087" r="6"/><circle cx="846" cy="1041" r="4"/><circle cx="916" cy="1098" r="5"/><circle cx="1038" cy="1119" r="5"/><circle cx="1092" cy="1088" r="5"/><circle cx="1142" cy="1079" r="6"/><circle cx="1249" cy="1097" r="5"/><circle cx="1293" cy="1047" r="4"/><circle cx="1363" cy="1079" r="5"/><circle cx="1474" cy="1080" r="5"/><circle cx="1576" cy="1096" r="5"/><circle cx="1638" cy="1058" r="4"/><circle cx="1694" cy="1080" r="6"/><circle cx="1814" cy="1044" r="4"/><circle cx="1868" cy="1068" r="5"/><circle cx="1943" cy="1075" r="5"/><circle cx="2011" cy="1084" r="5"/><circle cx="2129" cy="1059" r="5"/><circle cx="2190" cy="1078" r="5"/><circle cx="2260" cy="1044" r="6"/><circle cx="2378" cy="1084" r="4"/><circle cx="2441" cy="1047" r="5"/><circle cx="2527" cy="1042" r="5"/><circle cx="75" cy="1177" r="6"/><circle cx="89" cy="1123" r="5"/><circle cx="198" cy="1160" r="6"/><circle cx="261" cy="1191" r="6"/><circle cx="324" cy="1142" r="5"/><circle cx="402" cy="1164" r="4"/><circle cx="502" cy="1125" r="4"/><circle cx="632" cy="1153" r="5"/><circle cx="641" cy="1139" r="4"/><circle cx="771" cy="1199" r="6"/><circle cx="874" cy="1188" r="5"/><circle cx="928" cy="1164" r="6"/><circle cx="1022" cy="1181" r="6"/><circle cx="1062" cy="1156" r="6"/><circle cx="1129" cy="1166" r="6"/><circle cx="1273" cy="1124" r="5"/><circle cx="1349" cy="1195" r="5"/><circle cx="1400" cy="1162" r="5"/><circle cx="1505" cy="1163" r="4"/><circle cx="1581" cy="1124" r="5"/><circle cx="1606" cy="1188" r="4"/><circle cx="1686" cy="1127" r="5"/><circle cx="1766" cy="1154" r="4"/><circle cx="1857" cy="1151" r="5"/><circle cx="1962" cy="1122" r="5"/><circle cx="2004" cy="1181" r="5"/><circle cx="2140" cy="1137" r="5"/><circle cx="2182" cy="1161" r="6"/><circle cx="2304" cy="1131" r="5"/><circle cx="2356" cy="1190" r="4"/><circle cx="2464" cy="1194" r="6"/><circle cx="2543" cy="1131" r="6"/><circle cx="23" cy="1253" r="5"/><circle cx="84" cy="1256" r="6"/><circle cx="201" cy="1238" r="5"/><circle cx="257" cy="1252" r="5"/><circle cx="378" cy="1267" r="5"/><circle cx="463" cy="1231" r="6"/><circle cx="555" cy="1232" r="5"/><circle cx="617" cy="1235" r="5"/><circle cx="713" cy="1209" r="5"/><circle cx="729" cy="1271" r="4"/><circle cx="877" cy="1263" r="4"/><circle cx="930" cy="1261" r="6"/><circle cx="984" cy="1236" r="5"/><circle cx="1041" cy="1210" r="6"/><circle cx="1174" cy="1239" r="6"/><circle cx="1269" cy="1221" r="4"/><circle cx="1290" cy="1240" r="6"/><circle cx="1378" cy="1238" r="6"/><circle cx="1464" cy="1208" r="4"/><circle cx="1593" cy="1248" r="6"/><circle cx="1617" cy="1220" r="6"/><circle cx="1683" cy="1271" r="6"/><circle cx="1832" cy="1210" r="5"/><circle cx="1841" cy="1246" r="5"/><circle cx="1981" cy="1203" r="5"/><circle cx="2028" cy="1266" r="6"/><circle cx="2119" cy="1272" r="5"/><circle cx="2173" cy="1273" r="6"/><circle cx="2300" cy="1256" r="4"/><circle cx="2354" cy="1227" r="5"/><circle cx="2445" cy="1220" r="5"/><circle cx="2554" cy="1258" r="5"/><circle cx="22" cy="1282" r="6"/><circle cx="122" cy="1315" r="5"/><circle cx="231" cy="1311" r="5"/><circle cx="259" cy="1345" r="5"/><circle cx="384" cy="1349" r="6"/><circle cx="466" cy="1285" r="4"/><circle cx="541" cy="1337" r="5"/><circle cx="634" cy="1310" r="5"/><circle cx="657" cy="1299" r="4"/><circle cx="761" cy="1288" r="5"/><circle cx="868" cy="1358" r="6"/><circle cx="884" cy="1358" r="5"/><circle cx="1037" cy="1334" r="5"/><circle cx="1089" cy="1325" r="5"/><circle cx="1157" cy="1351" r="5"/><circle cx="1250" cy="1354" r="5"/><circle cx="1288" cy="1312" r="5"/><circle cx="1405" cy="1307" r="5"/><circle cx="1505" cy="1321" r="6"/><circle cx="1525" cy="1356" r="5"/><circle cx="1620" cy="1354" r="5"/><circle cx="1711" cy="1354" r="4"/><circle cx="1807" cy="1331" r="6"/><circle cx="1863" cy="1305" r="5"/><circle cx="1959" cy="1326" r="5"/><circle cx="2071" cy="1288" r="6"/><circle cx="2121" cy="1350" r="5"/><circle cx="2170" cy="1307" r="5"/><circle cx="2267" cy="1339" r="6"/><circle cx="2330" cy="1319" r="5"/><circle cx="2433" cy="1359" r="5"/><circle cx="2524" cy="1332" r="5"/><circle cx="26" cy="1405" r="6"/><circle cx="107" cy="1434" r="4"/><circle cx="239" cy="1392" r="5"/><circle cx="318" cy="1388" r="5"/><circle cx="349" cy="1440" r="4"/><circle cx="349" cy="-0" r="4"/><circle cx="464" cy="1406" r="5"/><circle cx="545" cy="1416" r="5"/><circle cx="600" cy="1372" r="4"/><circle cx="648" cy="1395" r="6"/><circle cx="729" cy="1412" r="4"/><circle cx="804" cy="1368" r="6"/><circle cx="901" cy="1424" r="5"/><circle cx="982" cy="1360" r="4"/><circle cx="1115" cy="1418" r="5"/><circle cx="1162" cy="1424" r="5"/><circle cx="1212" cy="1394" r="4"/><circle cx="1328" cy="1421" r="4"/><circle cx="1429" cy="1424" r="5"/><circle cx="1444" cy="1412" r="5"/><circle cx="1559" cy="1438" r="6"/><circle cx="1559" cy="-2" r="6"/><circle cx="1670" cy="1383" r="5"/><circle cx="1757" cy="1373" r="6"/><circle cx="1782" cy="1431" r="5"/><circle cx="1867" cy="1361" r="4"/><circle cx="1941" cy="1407" r="4"/><circle cx="2030" cy="1380" r="6"/><circle cx="2121" cy="1396" r="5"/><circle cx="2194" cy="1415" r="5"/><circle cx="2303" cy="1369" r="5"/><circle cx="2384" cy="1422" r="5"/><circle cx="2435" cy="1408" r="4"/><circle cx="2528" cy="1433" r="6"/><path stroke="#fff" d="M36 11L-9 46M36 11L26 -35M36 11L107 -6M36 11L-32 -7M2596 11L2551 46M2596 11L2528 -7M36 1451L26 1405M36 1451L107 1434M36 1451L-32 1433M2596 1451L2528 1433M153 18L164 11M153 18L163 114M153 18L107 -6M153 1458L107 1434M164 11L163 114M164 11L107 -6M164 11L239 -48M164 1451L107 1434M164 1451L239 1392M283 66L366 34M283 66L288 104M283 66L386 113M283 66L239 -48M283 66L349 -0M283 1506L239 1392M283 1506L349 1440M366 34L288 104M366 34L386 113M366 34L349 -0M366 1474L349 1440M472 49L535 31M472 49L449 111M472 49L528 125M472 49L464 -34M472 1489L464 1406M535 31L528 125M535 31L464 -34M535 31L545 -24M535 1471L464 1406M535 1471L545 1416M637 22L686 3M637 22L726 34M637 22L545 -24M637 22L600 -68M637 22L648 -45M637 1462L545 1416M637 1462L600 1372M637 1462L648 1395M686 3L726 34M686 3L648 -45M686 3L729 -28M686 1443L648 1395M686 1443L729 1412M726 34L779 121M726 34L729 -28M726 1474L729 1412M858 37L906 63M858 37L824 130M858 37L901 -16M858 1477L901 1424M906 63L982 75M906 63L824 130M906 63L955 125M906 63L901 -16M906 1503L901 1424M982 75L955 125M982 75L1019 87M982 75L1059 138M1101 59L1154 28M1101 59L1019 87M1101 59L1059 138M1101 59L1122 136M1101 59L1115 -22M1101 1499L1115 1418M1154 28L1220 22M1154 28L1115 -22M1154 28L1162 -16M1154 28L1212 -46M1154 1468L1115 1418M1154 1468L1162 1424M1154 1468L1212 1394M1220 22L1250 -86M1220 22L1162 -16M1220 22L1212 -46M1220 1462L1250 1354M1220 1462L1162 1424M1220 1462L1212 1394M1360 13L1432 62M1360 13L1441 33M1360 13L1328 -19M1360 13L1429 -16M1360 13L1444 -28M1360 1453L1328 1421M1360 1453L1429 1424M1360 1453L1444 1412M1432 62L1441 33M1432 62L1428 129M1432 62L1480 120M1432 62L1429 -16M1432 1502L1429 1424M1441 33L1428 129M1441 33L1429 -16M1441 33L1444 -28M1441 1473L1429 1424M1441 1473L1444 1412M1548 47L1480 120M1548 47L1586 128M1548 47L1600 107M1548 47L1559 -2M1548 1487L1559 1438M1678 60L1680 17M1678 60L1600 107M1678 60L1689 156M1680 17L1781 48M1680 17L1670 -57M1680 17L1782 -9M1680 1457L1670 1383M1680 1457L1782 1431M1781 48L1869 75M1781 48L1774 156M1781 48L1757 -67M1781 48L1782 -9M1781 1488L1757 1373M1781 1488L1782 1431M1869 75L1774 156M1869 75L1898 103M1869 75L1935 174M1869 75L1782 -9M1869 1515L1782 1431M1998 67L2065 0M1998 67L1898 103M1998 67L1994 146M1998 67L2044 98M2065 0L2129 47M2065 0L2044 98M2065 0L2030 -60M2065 0L2121 -44M2065 1440L2030 1380M2065 1440L2121 1396M2129 47L2176 57M2129 47L2113 103M2129 47L2219 84M2129 47L2121 -44M2129 1487L2121 1396M2176 57L2113 103M2176 57L2219 84M2176 57L2194 -25M2176 1497L2194 1415M2316 2L2396 29M2316 2L2294 95M2316 2L2303 -71M2316 2L2384 -18M2316 1442L2303 1369M2316 1442L2384 1422M2396 29L2435 62M2396 29L2384 -18M2396 29L2435 -32M2396 1469L2384 1422M2396 1469L2435 1408M2435 62L2361 118M2435 62L2456 119M2435 62L2384 -18M2435 62L2435 -32M2435 1502L2384 1422M2435 1502L2435 1408M2551 46L2538 133M2551 46L2586 -35M2551 46L2528 -7M-9 46L26 -35M-9 1486L26 1405M2551 1486L2586 1405M2551 1486L2528 1433M74 142L106 150M74 142L163 114M74 142L-22 133M74 142L76 214M74 142L112 196M2634 142L2538 133M106 150L163 114M106 150L76 214M106 150L112 196M288 104L386 113M288 104L288 232M288 104L349 -0M288 1544L349 1440M386 113L449 111M449 111L528 125M528 125L635 153M528 125L542 215M635 153L711 132M635 153L565 227M635 153L652 214M711 132L779 121M711 132L652 214M779 121L824 130M779 121L760 225M779 121L845 169M824 130L845 169M824 130L893 189M955 125L1019 87M955 125L893 189M955 125L979 221M1019 87L1059 138M1019 87L1076 179M1059 138L1122 136M1059 138L1076 179M1122 136L1076 179M1122 136L1189 202M1249 156L1328 105M1249 156L1189 202M1249 156L1261 173M1249 156L1287 164M1249 156L1282 263M1328 105L1261 173M1328 105L1287 164M1328 105L1400 183M1428 129L1480 120M1428 129L1400 183M1428 129L1442 180M1480 120L1442 180M1480 120L1542 181M1586 128L1600 107M1586 128L1689 156M1586 128L1542 181M1586 128L1612 231M1600 107L1689 156M1689 156L1774 156M1689 156L1747 226M1774 156L1747 226M1774 156L1823 210M1898 103L1994 146M1898 103L1935 174M1994 146L2044 98M1994 146L1935 174M1994 146L2080 177M2044 98L2113 103M2044 98L2080 177M2113 103L2080 177M2113 103L2156 186M2219 84L2294 95M2219 84L2194 -25M2219 1524L2194 1415M2294 95L2361 118M2294 95L2318 207M2361 118L2456 119M2361 118L2318 207M2361 118L2442 174M2456 119L2538 133M2456 119L2442 174M2456 119L2485 161M2538 133L2442 174M2538 133L2485 161M76 214L112 196M76 214L161 236M76 214L41 255M112 196L161 236M112 196L41 255M161 236L211 297M288 232L342 230M288 232L211 297M288 232L285 269M342 230L422 231M342 230L285 269M342 230L379 290M422 231L379 290M422 231L450 240M542 215L565 227M542 215L450 240M542 215L533 272M542 215L586 263M565 227L652 214M565 227L533 272M565 227L586 263M652 214L586 263M760 225L845 169M760 225L731 311M760 225L815 260M760 225L752 324M845 169L893 189M845 169L815 260M893 189L979 221M893 189L907 278M979 221L907 278M979 221L977 241M979 221L1049 276M1076 179L1049 276M1189 202L1261 173M1189 202L1287 164M1189 202L1177 273M1261 173L1287 164M1261 173L1282 263M1287 164L1282 263M1400 183L1442 180M1400 183L1425 242M1442 180L1425 242M1442 180L1511 261M1542 181L1612 231M1542 181L1511 261M1542 181L1521 262M1612 231L1511 261M1612 231L1521 262M1612 231L1679 288M1747 226L1823 210M1747 226L1754 290M1747 226L1763 302M1823 210L1887 225M1823 210L1842 293M1887 225L1935 174M1887 225L1842 293M1887 225L1940 295M1935 174L1940 295M2080 177L2156 186M2080 177L2073 254M2156 186L2190 211M2156 186L2073 254M2156 186L2223 262M2190 211L2223 262M2190 211L2285 245M2318 207L2343 232M2318 207L2285 245M2318 207L2328 260M2343 232L2285 245M2343 232L2328 260M2442 174L2485 161M2442 174L2462 287M2485 161L2522 266M41 255L91 319M41 255L-38 266M2601 255L2522 266M91 319L55 367M91 319L127 359M91 319L169 335M91 319L50 419M211 297L285 269M211 297L169 335M211 297L248 359M285 269L379 290M285 269L248 359M379 290L450 240M379 290L377 396M450 240L533 272M450 240L468 345M533 272L586 263M533 272L507 331M586 263L675 302M675 302L731 311M675 302L634 375M675 302L641 344M675 302L752 324M731 311L815 260M731 311L641 344M731 311L752 324M815 260L907 278M815 260L752 324M907 278L977 241M907 278L925 364M977 241L1049 276M1049 276L980 368M1049 276L1048 343M1177 273L1227 289M1177 273L1289 327M1227 289L1282 263M1227 289L1187 380M1227 289L1277 376M1227 289L1289 327M1282 263L1289 327M1425 242L1511 261M1425 242L1521 262M1425 242L1427 348M1511 261L1521 262M1679 288L1754 290M1754 290L1763 302M1754 290L1740 378M1754 290L1823 339M1763 302L1842 293M1763 302L1740 378M1763 302L1823 339M1842 293L1823 339M1842 293L1874 358M1940 295L1874 358M1940 295L1958 387M1940 295L2026 330M2073 254L2112 320M2073 254L2026 330M2112 320L2026 330M2112 320L2156 347M2112 320L2091 443M2223 262L2285 245M2223 262L2156 347M2285 245L2328 260M2328 260L2328 354M2462 287L2522 266M2462 287L2444 375M2462 287L2498 381M55 367L127 359M55 367L50 419M55 367L87 472M127 359L169 335M127 359L50 419M127 359L206 438M169 335L248 359M169 335L251 404M248 359L206 438M248 359L251 404M377 396L468 345M377 396L335 422M377 396L458 473M377 396L401 501M468 345L507 331M468 345L531 400M507 331L531 400M634 375L641 344M634 375L531 400M634 375L606 447M634 375L661 434M641 344L606 447M641 344L661 434M752 324L819 393M819 393L925 364M819 393L768 468M819 393L811 453M925 364L980 368M925 364L948 433M980 368L1048 343M980 368L948 433M980 368L1001 478M1048 343L1095 410M1187 380L1277 376M1187 380L1095 410M1187 380L1173 440M1277 376L1289 327M1277 376L1263 446M1277 376L1306 475M1427 348L1499 399M1427 348L1410 406M1427 348L1446 425M1499 399L1558 377M1499 399L1410 406M1499 399L1446 425M1499 399L1578 455M1558 377L1446 425M1558 377L1578 455M1652 394L1740 378M1652 394L1655 423M1652 394L1701 468M1652 394L1656 481M1740 378L1823 339M1740 378L1655 423M1823 339L1874 358M1874 358L1958 387M1874 358L1874 468M1958 387L2026 330M1958 387L1954 451M2156 347L2239 380M2156 347L2255 377M2156 347L2227 411M2239 380L2255 377M2239 380L2328 354M2239 380L2227 411M2239 380L2281 403M2255 377L2328 354M2255 377L2227 411M2255 377L2281 403M2328 354L2281 403M2328 354L2349 412M2444 375L2498 381M2444 375L2349 412M2444 375L2479 425M2498 381L2479 425M2498 381L2482 475M2498 381L2504 481M50 419L87 472M87 472L77 549M87 472L172 489M206 438L251 404M206 438L172 489M206 438L267 519M251 404L335 422M251 404L267 519M335 422L335 533M458 473L531 400M458 473L401 501M458 473L493 496M531 400L606 447M606 447L661 434M606 447L581 525M661 434L714 494M768 468L811 453M768 468L714 494M768 468L753 554M768 468L827 508M811 453L827 508M948 433L1001 478M948 433L943 489M948 433L1041 495M1001 478L943 489M1001 478L1034 528M1001 478L1041 495M1095 410L1173 440M1095 410L1041 495M1173 440L1189 522M1173 440L1227 491M1263 446L1306 475M1263 446L1227 491M1263 446L1345 511M1306 475L1227 491M1306 475L1345 511M1306 475L1288 566M1410 406L1446 425M1410 406L1345 511M1578 455L1655 423M1578 455L1543 514M1578 455L1656 481M1655 423L1701 468M1655 423L1656 481M1701 468L1656 481M1701 468L1760 497M1701 468L1789 492M1810 452L1874 468M1810 452L1760 497M1810 452L1789 492M1810 452L1859 548M1874 468L1954 451M1874 468L1789 492M1874 468L1859 548M1954 451L2053 458M1954 451L1992 559M2053 458L2091 443M2053 458L1992 559M2053 458L2049 527M2053 458L2127 553M2091 443L2049 527M2227 411L2281 403M2227 411L2189 511M2281 403L2349 412M2349 412L2312 492M2349 412L2381 493M2479 425L2482 475M2479 425L2504 481M2482 475L2433 559M2482 475L2504 481M77 549L124 554M77 549L65 591M77 549L116 622M77 549L167 578M124 554L172 489M124 554L65 591M124 554L116 622M124 554L167 578M172 489L267 519M172 489L167 578M267 519L335 533M267 519L271 584M335 533L401 501M335 533L271 584M335 533L360 598M401 501L493 496M401 501L360 598M493 496L581 525M493 496L500 577M581 525L500 577M581 525L582 566M581 525L653 570M714 494L753 554M714 494L827 508M714 494L653 570M753 554L827 508M753 554L752 628M827 508L843 618M943 489L1034 528M943 489L1041 495M943 489L942 595M1034 528L1041 495M1034 528L1037 603M1034 528L1055 608M1189 522L1227 491M1189 522L1198 592M1189 522L1230 625M1189 522L1288 566M1345 511L1409 540M1345 511L1288 566M1409 540L1461 556M1409 540L1429 624M1461 556L1543 514M1461 556L1429 624M1461 556L1495 593M1543 514L1495 593M1656 481L1760 497M1760 497L1789 492M1760 497L1759 615M1789 492L1859 548M1859 548L1787 625M1859 548L1858 631M1992 559L2049 527M1992 559L1980 637M1992 559L2002 589M2049 527L2127 553M2049 527L2002 589M2127 553L2189 511M2127 553L2118 618M2127 553L2209 584M2189 511L2209 584M2189 511L2258 562M2312 492L2381 493M2312 492L2258 562M2312 492L2372 569M2381 493L2433 559M2381 493L2372 569M2381 493L2410 565M2433 559L2504 481M2433 559L2372 569M2433 559L2410 565M2504 481L2528 588M65 591L116 622M65 591L-32 588M2625 591L2528 588M116 622L167 578M116 622L142 681M167 578L203 663M271 584L360 598M271 584L203 663M271 584L307 672M360 598L307 672M360 598L345 695M454 634L500 577M454 634L469 675M454 634L547 675M500 577L582 566M500 577L469 675M582 566L653 570M582 566L547 675M582 566L666 653M653 570L752 628M653 570L666 653M752 628L843 618M752 628L666 653M752 628L772 715M843 618L942 595M843 618L851 692M843 618L914 652M942 595L1037 603M942 595L914 652M1037 603L1055 608M1055 608L1145 653M1198 592L1230 625M1198 592L1288 566M1198 592L1145 653M1230 625L1288 566M1230 625L1145 653M1230 625L1252 719M1429 624L1495 593M1429 624L1529 622M1429 624L1396 717M1495 593L1529 622M1495 593L1512 681M1529 622L1615 639M1529 622L1512 681M1529 622L1581 648M1615 639L1581 648M1759 615L1787 625M1759 615L1858 631M1759 615L1772 714M1787 625L1858 631M1787 625L1772 714M1858 631L1913 694M1980 637L2002 589M1980 637L1913 694M1980 637L1975 695M1980 637L2072 704M2002 589L2118 618M2002 589L1975 695M2118 618L2209 584M2118 618L2072 704M2118 618L2120 719M2209 584L2258 562M2209 584L2261 647M2258 562L2261 647M2372 569L2410 565M2372 569L2386 653M2410 565L2386 653M2410 565L2430 680M46 717L-51 699M46 717L1 792M46 717L-24 747M46 717L67 833M2606 717L2509 699M2606 717L2536 747M142 681L203 663M142 681L154 742M142 681L210 751M203 663L154 742M203 663L210 751M307 672L345 695M307 672L405 731M345 695L405 731M469 675L547 675M469 675L405 731M547 675L588 711M547 675L571 735M588 711L666 653M588 711L551 790M588 711L571 735M588 711L660 739M666 653L660 739M772 715L851 692M772 715L756 799M772 715L833 786M772 715L792 805M851 692L914 652M851 692L925 732M914 652L998 702M914 652L925 732M998 702L1077 713M998 702L925 732M998 702L1033 739M1077 713L1145 653M1077 713L1033 739M1077 713L1083 780M1252 719L1331 666M1252 719L1174 757M1252 719L1243 798M1252 719L1282 754M1331 666L1396 717M1331 666L1282 754M1331 666L1400 763M1396 717L1400 763M1396 717L1500 780M1512 681L1581 648M1512 681L1548 744M1581 648L1608 719M1608 719L1680 715M1608 719L1548 744M1608 719L1635 784M1608 719L1681 758M1680 715L1772 714M1680 715L1635 784M1680 715L1681 758M1680 715L1683 801M1772 714L1814 772M1913 694L1975 695M1913 694L1897 782M1975 695L2072 704M1975 695L1985 785M2072 704L2120 719M2072 704L2074 790M2120 719L2074 790M2120 719L2146 776M2120 719L2156 803M2226 688L2261 647M2226 688L2203 752M2226 688L2258 743M2261 647L2386 653M2261 647L2258 743M2386 653L2430 680M2430 680L2509 699M2430 680L2474 737M2509 699L2474 737M2509 699L2536 747M1 792L-86 737M1 792L-24 747M1 792L67 833M1 792L-66 873M2561 792L2474 737M2561 792L2536 747M2561 792L2494 873M154 742L210 751M154 742L102 835M154 742L215 803M210 751L251 776M210 751L215 803M251 776L323 798M251 776L215 803M251 776L294 859M251 776L327 851M323 798L405 731M323 798L294 859M323 798L327 851M405 731L448 823M551 790L571 735M551 790L448 823M551 790L481 828M551 790L623 819M571 735L660 739M571 735L623 819M660 739L623 819M660 739L678 825M756 799L833 786M756 799L678 825M756 799L792 805M833 786L792 805M833 786L862 838M833 786L930 802M925 732L930 802M925 732L986 815M1033 739L1083 780M1033 739L986 815M1083 780L1174 757M1083 780L1052 877M1174 757L1243 798M1243 798L1282 754M1243 798L1218 826M1243 798L1288 843M1282 754L1288 843M1400 763L1500 780M1400 763L1391 851M1500 780L1548 744M1500 780L1472 868M1500 780L1565 830M1548 744L1565 830M1635 784L1681 758M1635 784L1680 807M1635 784L1683 801M1681 758L1680 807M1681 758L1683 801M1814 772L1897 782M1814 772L1777 875M1897 782L1985 785M1897 782L1893 879M1985 785L2074 790M1985 785L1963 851M1985 785L2027 870M2074 790L2146 776M2074 790L2156 803M2146 776L2203 752M2146 776L2156 803M2203 752L2258 743M2203 752L2156 803M2258 743L2348 794M2348 794L2314 871M2348 794L2393 821M2348 794L2292 894M2474 737L2536 747M2474 737L2393 821M2536 747L2627 833M-24 747L67 833M67 833L102 835M102 835L215 803M102 835L154 939M215 803L294 859M294 859L327 851M294 859L310 899M327 851L310 899M327 851L415 903M448 823L481 828M448 823L415 903M481 828L415 903M623 819L678 825M623 819L624 907M678 825L792 805M792 805L862 838M862 838L930 802M862 838L843 944M930 802L986 815M930 802L967 890M986 815L1052 877M986 815L967 890M1052 877L967 890M1052 877L1086 946M1164 871L1218 826M1164 871L1086 946M1164 871L1185 887M1164 871L1231 885M1164 871L1128 965M1218 826L1288 843M1218 826L1185 887M1218 826L1231 885M1288 843L1231 885M1288 843L1317 945M1391 851L1472 868M1391 851L1412 894M1472 868L1565 830M1472 868L1412 894M1472 868L1462 931M1565 830L1680 807M1565 830L1564 901M1680 807L1683 801M1680 807L1746 881M1777 875L1746 881M1777 875L1817 951M1777 875L1843 920M1893 879L1963 851M1893 879L1817 951M1893 879L1843 920M1893 879L1926 888M1963 851L2027 870M1963 851L1926 888M1963 851L2020 888M2027 870L2020 888M2027 870L2124 896M2156 803L2226 876M2226 876L2314 871M2226 876L2124 896M2226 876L2188 912M2226 876L2292 894M2314 871L2393 821M2314 871L2292 894M2314 871L2355 916M2393 821L2473 866M2393 821L2355 916M2473 866L2494 873M2473 866L2570 936M2473 866L2453 946M2473 866L2481 893M-87 866L10 936M2494 873L2570 936M2494 873L2453 946M2494 873L2481 893M-66 873L10 936M10 936L-79 893M10 936L-27 1007M2570 936L2481 893M2570 936L2533 1007M154 939L189 953M154 939L157 1017M154 939L178 969M189 953L157 1017M189 953L178 969M189 953L282 984M310 899L372 950M310 899L282 984M310 899L348 975M372 950L415 903M372 950L282 984M372 950L348 975M372 950L442 1025M415 903L348 975M554 958L624 907M554 958L535 967M554 958L606 986M624 907L662 939M624 907L606 986M624 907L667 967M662 939L760 922M662 939L667 967M760 922L843 944M843 944L949 960M843 944L872 1000M843 944L846 1041M949 960L967 890M949 960L872 1000M949 960L948 1001M949 960L968 988M967 890L968 988M1086 946L1068 1032M1086 946L1128 965M1185 887L1231 885M1185 887L1128 965M1185 887L1207 1004M1231 885L1317 945M1317 945L1333 969M1412 894L1462 931M1412 894L1419 989M1412 894L1447 998M1462 931L1419 989M1462 931L1447 998M1462 931L1529 987M1564 901L1678 941M1564 901L1529 987M1678 941L1746 881M1678 941L1679 975M1678 941L1707 1001M1817 951L1843 920M1817 951L1788 1029M1817 951L1814 1044M1843 920L1926 888M1926 888L2020 888M1926 888L1944 976M2020 888L2124 896M2124 896L2188 912M2188 912L2238 993M2188 912L2255 978M2292 894L2355 916M2292 894L2255 978M2355 916L2453 946M2355 916L2339 1012M2453 946L2481 893M2453 946L2466 1037M33 1040L-27 1007M33 1040L74 1108M33 1040L105 1093M33 1040L-33 1042M33 1040L89 1123M2593 1040L2533 1007M2593 1040L2527 1042M157 1017L178 969M157 1017L105 1093M282 984L348 975M282 984L267 1078M348 975L442 1025M442 1025L367 1102M442 1025L425 1063M442 1025L496 1111M535 967L606 986M606 986L667 967M606 986L615 1051M667 967L740 1037M667 967L615 1051M740 1037L677 1065M740 1037L734 1087M740 1037L846 1041M872 1000L948 1001M872 1000L968 988M872 1000L846 1041M948 1001L968 988M948 1001L916 1098M1068 1032L1128 965M1068 1032L1038 1119M1068 1032L1092 1088M1068 1032L1142 1079M1128 965L1207 1004M1207 1004L1142 1079M1207 1004L1249 1097M1207 1004L1293 1047M1333 969L1419 989M1333 969L1293 1047M1419 989L1447 998M1419 989L1474 1080M1447 998L1529 987M1447 998L1474 1080M1679 975L1707 1001M1679 975L1638 1058M1679 975L1694 1080M1707 1001L1788 1029M1707 1001L1694 1080M1788 1029L1694 1080M1788 1029L1814 1044M1788 1029L1868 1068M1920 1034L1944 976M1920 1034L1868 1068M1920 1034L1943 1075M1920 1034L2011 1084M1920 1034L1962 1122M1944 976L2025 1027M2025 1027L1943 1075M2025 1027L2011 1084M2025 1027L2129 1059M2130 1031L2129 1059M2130 1031L2190 1078M2130 1031L2140 1137M2238 993L2255 978M2238 993L2339 1012M2238 993L2260 1044M2255 978L2339 1012M2255 978L2260 1044M2339 1012L2260 1044M2339 1012L2378 1084M2466 1037L2533 1007M2466 1037L2378 1084M2466 1037L2441 1047M2466 1037L2527 1042M2533 1007L2441 1047M2533 1007L2527 1042M74 1108L105 1093M74 1108L75 1177M74 1108L89 1123M74 1108L-17 1131M2634 1108L2543 1131M105 1093L75 1177M105 1093L89 1123M224 1119L267 1078M224 1119L198 1160M224 1119L261 1191M224 1119L324 1142M267 1078L367 1102M267 1078L198 1160M267 1078L324 1142M367 1102L425 1063M367 1102L324 1142M367 1102L402 1164M425 1063L496 1111M425 1063L402 1164M425 1063L502 1125M496 1111L502 1125M615 1051L677 1065M615 1051L632 1153M615 1051L641 1139M677 1065L734 1087M677 1065L632 1153M677 1065L641 1139M734 1087L771 1199M846 1041L916 1098M916 1098L874 1188M916 1098L928 1164M1038 1119L1092 1088M1038 1119L1022 1181M1038 1119L1062 1156M1038 1119L1041 1210M1092 1088L1142 1079M1092 1088L1062 1156M1092 1088L1129 1166M1142 1079L1129 1166M1249 1097L1293 1047M1249 1097L1363 1079M1249 1097L1273 1124M1293 1047L1363 1079M1293 1047L1273 1124M1363 1079L1474 1080M1363 1079L1273 1124M1363 1079L1400 1162M1474 1080L1576 1096M1474 1080L1505 1163M1576 1096L1638 1058M1576 1096L1505 1163M1576 1096L1581 1124M1576 1096L1606 1188M1638 1058L1694 1080M1638 1058L1581 1124M1638 1058L1686 1127M1694 1080L1686 1127M1814 1044L1868 1068M1868 1068L1943 1075M1868 1068L1857 1151M1943 1075L2011 1084M1943 1075L1962 1122M2011 1084L1962 1122M2011 1084L2004 1181M2129 1059L2190 1078M2129 1059L2140 1137M2129 1059L2182 1161M2190 1078L2260 1044M2190 1078L2140 1137M2190 1078L2182 1161M2260 1044L2304 1131M2378 1084L2441 1047M2378 1084L2304 1131M2441 1047L2527 1042M2527 1042L2543 1131M75 1177L89 1123M75 1177L23 1253M75 1177L84 1256M89 1123L-17 1131M2649 1123L2543 1131M198 1160L261 1191M198 1160L201 1238M198 1160L257 1252M261 1191L324 1142M261 1191L201 1238M261 1191L257 1252M324 1142L402 1164M402 1164L378 1267M402 1164L463 1231M502 1125L463 1231M632 1153L641 1139M632 1153L617 1235M632 1153L713 1209M771 1199L874 1188M771 1199L713 1209M771 1199L729 1271M771 1199L761 1288M874 1188L928 1164M874 1188L877 1263M874 1188L930 1261M928 1164L1022 1181M928 1164L930 1261M928 1164L984 1236M1022 1181L1062 1156M1022 1181L984 1236M1022 1181L1041 1210M1062 1156L1129 1166M1062 1156L1041 1210M1129 1166L1041 1210M1129 1166L1174 1239M1273 1124L1349 1195M1273 1124L1269 1221M1349 1195L1400 1162M1349 1195L1269 1221M1349 1195L1290 1240M1349 1195L1378 1238M1400 1162L1505 1163M1400 1162L1378 1238M1400 1162L1464 1208M1505 1163L1581 1124M1505 1163L1464 1208M1581 1124L1606 1188M1581 1124L1617 1220M1606 1188L1593 1248M1606 1188L1617 1220M1686 1127L1766 1154M1686 1127L1617 1220M1766 1154L1857 1151M1766 1154L1832 1210M1857 1151L1832 1210M1857 1151L1841 1246M1962 1122L2004 1181M1962 1122L1981 1203M2004 1181L1981 1203M2004 1181L2028 1266M2140 1137L2182 1161M2182 1161L2173 1273M2304 1131L2356 1190M2356 1190L2464 1194M2356 1190L2300 1256M2356 1190L2354 1227M2356 1190L2445 1220M2464 1194L2543 1131M2464 1194L2354 1227M2464 1194L2445 1220M2464 1194L2554 1258M23 1253L84 1256M23 1253L-6 1258M23 1253L22 1282M2583 1253L2554 1258M84 1256L-6 1258M84 1256L22 1282M84 1256L122 1315M2644 1256L2554 1258M201 1238L257 1252M201 1238L122 1315M201 1238L231 1311M257 1252L231 1311M257 1252L259 1345M378 1267L463 1231M378 1267L384 1349M378 1267L466 1285M463 1231L555 1232M463 1231L466 1285M555 1232L617 1235M555 1232L466 1285M617 1235L713 1209M617 1235L634 1310M617 1235L657 1299M713 1209L729 1271M713 1209L761 1288M729 1271L657 1299M729 1271L761 1288M877 1263L930 1261M877 1263L868 1358M877 1263L884 1358M930 1261L984 1236M930 1261L868 1358M984 1236L1041 1210M984 1236L1037 1334M1174 1239L1269 1221M1174 1239L1290 1240M1174 1239L1089 1325M1269 1221L1290 1240M1269 1221L1288 1312M1290 1240L1378 1238M1290 1240L1288 1312M1378 1238L1464 1208M1378 1238L1405 1307M1593 1248L1617 1220M1593 1248L1683 1271M1593 1248L1505 1321M1617 1220L1683 1271M1683 1271L1620 1354M1683 1271L1711 1354M1683 1271L1670 1383M1832 1210L1841 1246M1832 1210L1863 1305M1841 1246L1807 1331M1841 1246L1863 1305M1841 1246L1867 1361M1981 1203L2028 1266M2028 1266L2119 1272M2028 1266L1959 1326M2028 1266L2071 1288M2119 1272L2173 1273M2119 1272L2071 1288M2119 1272L2121 1350M2119 1272L2170 1307M2173 1273L2071 1288M2173 1273L2121 1350M2173 1273L2170 1307M2300 1256L2354 1227M2300 1256L2267 1339M2300 1256L2330 1319M2354 1227L2445 1220M2354 1227L2330 1319M2554 1258L2582 1282M2554 1258L2524 1332M-6 1258L22 1282M22 1282L122 1315M22 1282L-36 1332M2582 1282L2524 1332M122 1315L231 1311M231 1311L259 1345M231 1311L239 1392M259 1345L239 1392M259 1345L318 1388M384 1349L466 1285M384 1349L318 1388M384 1349L349 1440M384 1349L464 1406M466 1285L541 1337M541 1337L634 1310M541 1337L464 1406M541 1337L545 1416M541 1337L600 1372M634 1310L657 1299M634 1310L600 1372M634 1310L648 1395M761 1288L804 1368M868 1358L884 1358M868 1358L804 1368M868 1358L901 1424M884 1358L804 1368M884 1358L901 1424M884 1358L982 1360M1037 1334L1089 1325M1037 1334L982 1360M1089 1325L1157 1351M1089 1325L982 1360M1089 1325L1115 1418M1157 1351L1250 1354M1157 1351L1115 1418M1157 1351L1162 1424M1157 1351L1212 1394M1250 1354L1288 1312M1250 1354L1212 1394M1250 1354L1328 1421M1288 1312L1405 1307M1288 1312L1328 1421M1405 1307L1505 1321M1505 1321L1525 1356M1505 1321L1444 1412M1505 1321L1559 1438M1525 1356L1620 1354M1525 1356L1444 1412M1525 1356L1559 1438M1620 1354L1711 1354M1620 1354L1559 1438M1620 1354L1670 1383M1711 1354L1670 1383M1711 1354L1757 1373M1807 1331L1863 1305M1807 1331L1757 1373M1807 1331L1782 1431M1807 1331L1867 1361M1863 1305L1959 1326M1863 1305L1867 1361M1959 1326L1867 1361M1959 1326L1941 1407M1959 1326L2030 1380M2071 1288L2121 1350M2071 1288L2030 1380M2121 1350L2170 1307M2121 1350L2121 1396M2170 1307L2267 1339M2267 1339L2330 1319M2267 1339L2194 1415M2267 1339L2303 1369M2330 1319L2433 1359M2330 1319L2303 1369M2433 1359L2524 1332M2433 1359L2384 1422M2433 1359L2435 1408M2524 1332L2586 1405M2524 1332L2528 1433M-36 1332L26 1405M26 1405L107 1434M26 1405L-32 1433M2586 1405L2528 1433M239 1392L318 1388M318 1388L349 1440M464 1406L545 1416M545 1416L600 1372M600 1372L648 1395M648 1395L729 1412M729 1412L804 1368M804 1368L901 1424M1115 1418L1162 1424M1162 1424L1212 1394M1328 1421L1429 1424M1429 1424L1444 1412M1670 1383L1757 1373M1757 1373L1782 1431M1867 1361L1941 1407M1941 1407L2030 1380M2030 1380L2121 1396M2121 1396L2194 1415M2194 1415L2303 1369M2384 1422L2435 1408M2435 1408L2528 1433"/></svg>