<svg xmlns="http://www.w3.org/2000/svg" width="2560" height="1440" fill="#fff"><circle cx="40" cy="68" r="4"/><circle cx="114" cy="72" r="6"/><circle cx="185" cy="44" r="5"/><circle cx="256" cy="77" r="6"/><circle cx="326" cy="27" r="6"/><circle cx="477" cy="51" r="4"/><circle cx="510" cy="17" r="5"/><circle cx="635" cy="57" r="5"/><circle cx="713" cy="62" r="4"/><circle cx="755" cy="54" r="6"/><circle cx="822" cy="19" r="6"/><circle cx="914" cy="20" r="5"/><circle cx="1017" cy="49" r="5"/><circle cx="1099" cy="46" r="5"/><circle cx="1153" cy="18" r="5"/><circle cx="1209" cy="37" r="6"/><circle cx="1302" cy="46" r="5"/><circle cx="1406" cy="16" r="5"/><circle cx="1489" cy="1" r="5"/><circle cx="1489" cy="1441" r="5"/><circle cx="1537" cy="46" r="6"/><circle cx="1654" cy="7" r="4"/><circle cx="1691" cy="15" r="6"/><circle cx="1822" cy="4" r="4"/><circle cx="1910" cy="79" r="4"/><circle cx="1962" cy="42" r="5"/><circle cx="2062" cy="55" r="6"/><circle cx="2103" cy="3" r="5"/><circle cx="2103" cy="1443" r="5"/><circle cx="2199" cy="74" r="6"/><circle cx="2304" cy="57" r="5"/><circle cx="2396" cy="52" r="5"/><circle cx="2466" cy="54" r="5"/><circle cx="2498" cy="30" r="4"/><circle cx="24" cy="101" r="5"/><circle cx="150" cy="153" r="5"/><circle cx="185" cy="87" r="5"/><circle cx="245" cy="92" r="5"/><circle cx="339" cy="104" r="5"/><circle cx="436" cy="119" r="5"/><circle cx="507" cy="117" r="4"/><circle cx="566" cy="120" r="5"/><circle cx="708" cy="160" r="5"/><circle cx="792" cy="140" r="5"/><circle cx="812" cy="108" r="5"/><circle cx="937" cy="147" r="6"/><circle cx="1023" cy="137" r="6"/><circle cx="1084" cy="107" r="5"/><circle cx="1192" cy="143" r="6"/><circle cx="1229" cy="98" r="6"/><circle cx="1292" cy="89" r="5"/><circle cx="1411" cy="108" r="4"/><circle cx="1466" cy="126" r="5"/><circle cx="1532" cy="123" r="5"/><circle cx="1655" cy="110" r="4"/><circle cx="1691" cy="144" r="5"/><circle cx="1808" cy="109" r="5"/><circle cx="1889" cy="159" r="5"/><circle cx="1964" cy="93" r="6"/><circle cx="2006" cy="146" r="6"/><circle cx="2086" cy="119" r="6"/><circle cx="2166" cy="104" r="4"/><circle cx="2277" cy="153" r="4"/><circle cx="2392" cy="88" r="6"/><circle cx="2479" cy="110" r="4"/><circle cx="2534" cy="107" r="6"/><circle cx="34" cy="213" r="6"/><circle cx="104" cy="234" r="5"/><circle cx="215" cy="227" r="4"/><circle cx="256" cy="174" r="5"/><circle cx="386" cy="179" r="6"/><circle cx="439" cy="160" r="6"/><circle cx="490" cy="218" r="5"/><circle cx="569" cy="201" r="4"/><circle cx="708" cy="172" r="4"/><circle cx="795" cy="224" r="4"/><circle cx="834" cy="211" r="4"/><circle cx="938" cy="187" r="6"/><circle cx="1033" cy="215" r="5"/><circle cx="1064" cy="172" r="4"/><circle cx="1181" cy="194" r="5"/><circle cx="1250" cy="196" r="5"/><circle cx="1310" cy="217" r="4"/><circle cx="1433" cy="198" r="5"/><circle cx="1495" cy="167" r="5"/><circle cx="1562" cy="238" r="6"/><circle cx="1674" cy="194" r="5"/><circle cx="1690" cy="200" r="4"/><circle cx="1778" cy="204" r="5"/><circle cx="1920" cy="232" r="5"/><circle cx="1941" cy="163" r="5"/><circle cx="2051" cy="223" r="4"/><circle cx="2135" cy="186" r="5"/><circle cx="2235" cy="201" r="5"/><circle cx="2319" cy="180" r="4"/><circle cx="2366" cy="197" r="5"/><circle cx="2446" cy="189" r="5"/><circle cx="2554" cy="233" r="4"/><circle cx="37" cy="247" r="5"/><circle cx="89" cy="251" r="5"/><circle cx="175" cy="290" r="5"/><circle cx="270" cy="297" r="4"/><circle cx="381" cy="252" r="5"/><circle cx="462" cy="315" r="5"/><circle cx="532" cy="246" r="6"/><circle cx="575" cy="250" r="5"/><circle cx="675" cy="315" r="5"/><circle cx="759" cy="261" r="6"/><circle cx="806" cy="247" r="6"/><circle cx="938" cy="288" r="5"/><circle cx="1018" cy="268" r="5"/><circle cx="1052" cy="253" r="5"/><circle cx="1158" cy="257" r="5"/><circle cx="1270" cy="266" r="5"/><circle cx="1325" cy="285" r="5"/><circle cx="1427" cy="290" r="5"/><circle cx="1515" cy="269" r="6"/><circle cx="1549" cy="292" r="4"/><circle cx="1608" cy="295" r="5"/><circle cx="1743" cy="283" r="6"/><circle cx="1828" cy="315" r="5"/><circle cx="1863" cy="264" r="5"/><circle cx="1949" cy="292" r="4"/><circle cx="2067" cy="304" r="4"/><circle cx="2147" cy="289" r="5"/><circle cx="2196" cy="268" r="6"/><circle cx="2261" cy="263" r="4"/><circle cx="2344" cy="301" r="5"/><circle cx="2478" cy="243" r="4"/><circle cx="2486" cy="314" r="5"/><circle cx="66" cy="345" r="5"/><circle cx="134" cy="369" r="5"/><circle cx="192" cy="362" r="5"/><circle cx="280" cy="381" r="5"/><circle cx="371" cy="368" r="5"/><circle cx="434" cy="358" r="5"/><circle cx="539" cy="397" r="5"/><circle cx="585" cy="323" r="6"/><circle cx="719" cy="380" r="4"/><circle cx="730" cy="379" r="5"/><circle cx="830" cy="336" r="4"/><circle cx="918" cy="362" r="6"/><circle cx="1031" cy="346" r="5"/><circle cx="1082" cy="321" r="5"/><circle cx="1199" cy="342" r="5"/><circle cx="1271" cy="377" r="5"/><circle cx="1344" cy="326" r="4"/><circle cx="1364" cy="373" r="4"/><circle cx="1481" cy="372" r="5"/><circle cx="1579" cy="330" r="5"/><circle cx="1671" cy="352" r="5"/><circle cx="1739" cy="327" r="5"/><circle cx="1789" cy="342" r="4"/><circle cx="1853" cy="325" r="4"/><circle cx="1933" cy="349" r="4"/><circle cx="2053" cy="345" r="5"/><circle cx="2141" cy="391" r="5"/><circle cx="2216" cy="333" r="6"/><circle cx="2275" cy="370" r="5"/><circle cx="2344" cy="352" r="5"/><circle cx="2442" cy="329" r="4"/><circle cx="2552" cy="397" r="5"/><circle cx="2" cy="416" r="5"/><circle cx="2562" cy="416" r="5"/><circle cx="158" cy="410" r="5"/><circle cx="167" cy="462" r="5"/><circle cx="258" cy="432" r="6"/><circle cx="338" cy="416" r="5"/><circle cx="412" cy="413" r="4"/><circle cx="546" cy="456" r="6"/><circle cx="567" cy="438" r="5"/><circle cx="661" cy="404" r="5"/><circle cx="792" cy="477" r="6"/><circle cx="832" cy="426" r="6"/><circle cx="892" cy="406" r="4"/><circle cx="1009" cy="479" r="6"/><circle cx="1106" cy="466" r="5"/><circle cx="1198" cy="446" r="5"/><circle cx="1278" cy="423" r="5"/><circle cx="1314" cy="451" r="5"/><circle cx="1430" cy="462" r="6"/><circle cx="1502" cy="408" r="5"/><circle cx="1590" cy="455" r="6"/><circle cx="1631" cy="478" r="6"/><circle cx="1705" cy="404" r="5"/><circle cx="1762" cy="404" r="4"/><circle cx="1871" cy="430" r="6"/><circle cx="1922" cy="419" r="4"/><circle cx="2054" cy="438" r="5"/><circle cx="2141" cy="428" r="6"/><circle cx="2170" cy="439" r="5"/><circle cx="2313" cy="401" r="5"/><circle cx="2367" cy="448" r="5"/><circle cx="2473" cy="458" r="6"/><circle cx="2518" cy="407" r="6"/><circle cx="36" cy="502" r="5"/><circle cx="81" cy="525" r="5"/><circle cx="180" cy="539" r="5"/><circle cx="249" cy="546" r="5"/><circle cx="383" cy="520" r="6"/><circle cx="461" cy="508" r="6"/><circle cx="557" cy="536" r="6"/><circle cx="603" cy="504" r="5"/><circle cx="687" cy="557" r="5"/><circle cx="784" cy="517" r="5"/><circle cx="837" cy="512" r="5"/><circle cx="917" cy="482" r="5"/><circle cx="1009" cy="523" r="6"/><circle cx="1068" cy="510" r="6"/><circle cx="1145" cy="528" r="6"/><circle cx="1203" cy="529" r="5"/><circle cx="1309" cy="557" r="6"/><circle cx="1438" cy="506" r="4"/><circle cx="1489" cy="544" r="5"/><circle cx="1591" cy="509" r="4"/><circle cx="1609" cy="481" r="6"/><circle cx="1687" cy="520" r="5"/><circle cx="1805" cy="506" r="5"/><circle cx="1871" cy="509" r="4"/><circle cx="1953" cy="512" r="5"/><circle cx="2003" cy="511" r="5"/><circle cx="2085" cy="516" r="5"/><circle cx="2216" cy="501" r="4"/><circle cx="2299" cy="489" r="4"/><circle cx="2328" cy="502" r="4"/><circle cx="2416" cy="556" r="6"/><circle cx="2521" cy="519" r="4"/><circle cx="34" cy="571" r="6"/><circle cx="107" cy="619" r="5"/><circle cx="164" cy="593" r="5"/><circle cx="318" cy="580" r="4"/><circle cx="398" cy="588" r="5"/><circle cx="419" cy="600" r="6"/><circle cx="486" cy="575" r="4"/><circle cx="624" cy="594" r="5"/><circle cx="703" cy="617" r="5"/><circle cx="741" cy="613" r="4"/><circle cx="816" cy="576" r="6"/><circle cx="927" cy="597" r="6"/><circle cx="994" cy="621" r="4"/><circle cx="1090" cy="622" r="5"/><circle cx="1139" cy="593" r="5"/><circle cx="1215" cy="604" r="4"/><circle cx="1353" cy="631" r="5"/><circle cx="1411" cy="636" r="6"/><circle cx="1491" cy="578" r="5"/><circle cx="1595" cy="564" r="6"/><circle cx="1608" cy="599" r="5"/><circle cx="1726" cy="568" r="4"/><circle cx="1774" cy="617" r="4"/><circle cx="1875" cy="627" r="5"/><circle cx="1986" cy="571" r="5"/><circle cx="2045" cy="572" r="5"/><circle cx="2122" cy="590" r="5"/><circle cx="2171" cy="608" r="4"/><circle cx="2241" cy="569" r="5"/><circle cx="2387" cy="615" r="6"/><circle cx="2422" cy="615" r="5"/><circle cx="2487" cy="579" r="4"/><circle cx="61" cy="702" r="5"/><circle cx="129" cy="714" r="5"/><circle cx="211" cy="698" r="4"/><circle cx="276" cy="697" r="4"/><circle cx="379" cy="662" r="5"/><circle cx="480" cy="644" r="5"/><circle cx="536" cy="710" r="4"/><circle cx="583" cy="692" r="5"/><circle cx="653" cy="720" r="5"/><circle cx="784" cy="702" r="5"/><circle cx="832" cy="713" r="5"/><circle cx="898" cy="704" r="5"/><circle cx="1002" cy="643" r="5"/><circle cx="1117" cy="703" r="4"/><circle cx="1175" cy="661" r="5"/><circle cx="1269" cy="704" r="5"/><circle cx="1320" cy="693" r="4"/><circle cx="1385" cy="709" r="6"/><circle cx="1507" cy="652" r="6"/><circle cx="1559" cy="717" r="5"/><circle cx="1670" cy="657" r="4"/><circle cx="1682" cy="655" r="5"/><circle cx="1791" cy="711" r="6"/><circle cx="1898" cy="709" r="5"/><circle cx="1990" cy="670" r="5"/><circle cx="2039" cy="714" r="6"/><circle cx="2159" cy="708" r="5"/><circle cx="2164" cy="694" r="6"/><circle cx="2281" cy="668" r="4"/><circle cx="2369" cy="661" r="6"/><circle cx="2445" cy="643" r="4"/><circle cx="2527" cy="683" r="6"/><circle cx="23" cy="721" r="6"/><circle cx="149" cy="749" r="5"/><circle cx="219" cy="771" r="4"/><circle cx="262" cy="739" r="4"/><circle cx="330" cy="738" r="6"/><circle cx="450" cy="740" r="4"/><circle cx="509" cy="758" r="5"/><circle cx="619" cy="752" r="6"/><circle cx="689" cy="751" r="5"/><circle cx="743" cy="737" r="5"/><circle cx="847" cy="730" r="5"/><circle cx="958" cy="740" r="4"/><circle cx="1005" cy="727" r="5"/><circle cx="1082" cy="774" r="6"/><circle cx="1149" cy="794" r="6"/><circle cx="1206" cy="745" r="6"/><circle cx="1303" cy="748" r="6"/><circle cx="1378" cy="792" r="4"/><circle cx="1520" cy="761" r="4"/><circle cx="1530" cy="739" r="4"/><circle cx="1627" cy="798" r="5"/><circle cx="1741" cy="760" r="6"/><circle cx="1805" cy="774" r="4"/><circle cx="1870" cy="767" r="5"/><circle cx="1940" cy="786" r="6"/><circle cx="2011" cy="724" r="4"/><circle cx="2102" cy="759" r="6"/><circle cx="2206" cy="730" r="5"/><circle cx="2276" cy="780" r="5"/><circle cx="2391" cy="763" r="4"/><circle cx="2430" cy="748" r="6"/><circle cx="2508" cy="784" r="5"/><circle cx="36" cy="868" r="6"/><circle cx="108" cy="830" r="6"/><circle cx="187" cy="829" r="4"/><circle cx="285" cy="804" r="6"/><circle cx="372" cy="804" r="6"/><circle cx="478" cy="879" r="4"/><circle cx="513" cy="850" r="5"/><circle cx="629" cy="838" r="5"/><circle cx="651" cy="852" r="5"/><circle cx="754" cy="844" r="5"/><circle cx="802" cy="814" r="6"/><circle cx="913" cy="862" r="6"/><circle cx="1026" cy="842" r="5"/><circle cx="1059" cy="802" r="5"/><circle cx="1178" cy="806" r="4"/><circle cx="1215" cy="863" r="6"/><circle cx="1321" cy="830" r="6"/><circle cx="1412" cy="846" r="5"/><circle cx="1501" cy="824" r="4"/><circle cx="1538" cy="855" r="5"/><circle cx="1611" cy="806" r="5"/><circle cx="1688" cy="845" r="4"/><circle cx="1832" cy="875" r="5"/><circle cx="1873" cy="870" r="5"/><circle cx="1958" cy="851" r="5"/><circle cx="2031" cy="830" r="6"/><circle cx="2102" cy="815" r="6"/><circle cx="2219" cy="848" r="6"/><circle cx="2318" cy="856" r="5"/><circle cx="2341" cy="801" r="5"/><circle cx="2452" cy="864" r="5"/><circle cx="2540" cy="857" r="6"/><circle cx="45" cy="905" r="6"/><circle cx="149" cy="928" r="5"/><circle cx="217" cy="941" r="5"/><circle cx="305" cy="937" r="4"/><circle cx="351" cy="897" r="5"/><circle cx="437" cy="918" r="4"/><circle cx="499" cy="917" r="4"/><circle cx="599" cy="933" r="6"/><circle cx="663" cy="942" r="5"/><circle cx="740" cy="894" r="5"/><circle cx="870" cy="960" r="6"/><circle cx="940" cy="920" r="5"/><circle cx="1040" cy="913" r="5"/><circle cx="1095" cy="895" r="4"/><circle cx="1149" cy="930" r="5"/><circle cx="1236" cy="931" r="6"/><circle cx="1297" cy="944" r="6"/><circle cx="1420" cy="901" r="4"/><circle cx="1515" cy="903" r="5"/><circle cx="1589" cy="938" r="6"/><circle cx="1623" cy="943" r="5"/><circle cx="1703" cy="940" r="5"/><circle cx="1785" cy="882" r="4"/><circle cx="1901" cy="959" r="6"/><circle cx="1936" cy="939" r="4"/><circle cx="2054" cy="944" r="5"/><circle cx="2139" cy="921" r="5"/><circle cx="2183" cy="956" r="5"/><circle cx="2287" cy="887" r="5"/><circle cx="2357" cy="909" r="6"/><circle cx="2418" cy="943" r="6"/><circle cx="2510" cy="890" r="6"/><circle cx="48" cy="968" r="4"/><circle cx="109" cy="1026" r="5"/><circle cx="168" cy="1010" r="5"/><circle cx="318" cy="1034" r="5"/><circle cx="392" cy="960" r="4"/><circle cx="477" cy="1012" r="5"/><circle cx="532" cy="1017" r="5"/><circle cx="628" cy="1026" r="6"/><circle cx="667" cy="1019" r="4"/><circle cx="794" cy="1002" r="6"/><circle cx="820" cy="1036" r="5"/><circle cx="960" cy="1036" r="4"/><circle cx="1022" cy="999" r="5"/><circle cx="1086" cy="964" r="4"/><circle cx="1185" cy="1028" r="5"/><circle cx="1201" cy="970" r="4"/><circle cx="1358" cy="1007" r="4"/><circle cx="1365" cy="967" r="4"/><circle cx="1447" cy="1005" r="5"/><circle cx="1541" cy="1026" r="5"/><circle cx="1676" cy="978" r="5"/><circle cx="1690" cy="966" r="4"/><circle cx="1765" cy="962" r="6"/><circle cx="1846" cy="1038" r="6"/><circle cx="1986" cy="1008" r="4"/><circle cx="2024" cy="987" r="5"/><circle cx="2138" cy="989" r="6"/><circle cx="2236" cy="971" r="5"/><circle cx="2251" cy="985" r="5"/><circle cx="2371" cy="1010" r="5"/><circle cx="2446" cy="1017" r="4"/><circle cx="2506" cy="961" r="6"/><circle cx="51" cy="1083" r="6"/><circle cx="86" cy="1072" r="5"/><circle cx="181" cy="1079" r="5"/><circle cx="278" cy="1097" r="5"/><circle cx="349" cy="1102" r="5"/><circle cx="418" cy="1107" r="5"/><circle cx="488" cy="1095" r="6"/><circle cx="611" cy="1091" r="5"/><circle cx="688" cy="1096" r="5"/><circle cx="795" cy="1062" r="5"/><circle cx="860" cy="1112" r="4"/><circle cx="954" cy="1077" r="5"/><circle cx="969" cy="1069" r="5"/><circle cx="1053" cy="1047" r="6"/><circle cx="1173" cy="1062" r="5"/><circle cx="1221" cy="1087" r="5"/><circle cx="1330" cy="1043" r="5"/><circle cx="1395" cy="1108" r="5"/><circle cx="1502" cy="1104" r="6"/><circle cx="1557" cy="1056" r="6"/><circle cx="1640" cy="1081" r="6"/><circle cx="1690" cy="1051" r="4"/><circle cx="1835" cy="1117" r="5"/><circle cx="1853" cy="1071" r="6"/><circle cx="1986" cy="1105" r="5"/><circle cx="2030" cy="1081" r="5"/><circle cx="2147" cy="1065" r="5"/><circle cx="2214" cy="1048" r="5"/><circle cx="2295" cy="1041" r="5"/><circle cx="2357" cy="1056" r="5"/><circle cx="2480" cy="1096" r="5"/><circle cx="2532" cy="1068" r="6"/><circle cx="14" cy="1177" r="6"/><circle cx="130" cy="1187" r="5"/><circle cx="169" cy="1146" r="4"/><circle cx="275" cy="1121" r="6"/><circle cx="387" cy="1156" r="6"/><circle cx="478" cy="1144" r="5"/><circle cx="538" cy="1151" r="4"/><circle cx="613" cy="1143" r="5"/><circle cx="687" cy="1188" r="5"/><circle cx="767" cy="1184" r="5"/><circle cx="860" cy="1144" r="6"/><circle cx="959" cy="1126" r="5"/><circle cx="999" cy="1184" r="6"/><circle cx="1099" cy="1160" r="5"/><circle cx="1197" cy="1178" r="5"/><circle cx="1215" cy="1147" r="6"/><circle cx="1324" cy="1176" r="5"/><circle cx="1426" cy="1182" r="4"/><circle cx="1445" cy="1190" r="6"/><circle cx="1535" cy="1183" r="5"/><circle cx="1612" cy="1182" r="5"/><circle cx="1682" cy="1156" r="4"/><circle cx="1784" cy="1187" r="5"/><circle cx="1905" cy="1133" r="5"/><circle cx="1939" cy="1167" r="6"/><circle cx="2028" cy="1124" r="6"/><circle cx="2108" cy="1168" r="6"/><circle cx="2230" cy="1187" r="6"/><circle cx="2301" cy="1193" r="6"/><circle cx="2396" cy="1156" r="4"/><circle cx="2426" cy="1192" r="5"/><circle cx="2490" cy="1170" r="4"/><circle cx="8" cy="1239" r="5"/><circle cx="114" cy="1232" r="5"/><circle cx="240" cy="1240" r="5"/><circle cx="252" cy="1211" r="5"/><circle cx="362" cy="1215" r="5"/><circle cx="456" cy="1220" r="5"/><circle cx="545" cy="1263" r="6"/><circle cx="576" cy="1210" r="6"/><circle cx="696" cy="1254" r="5"/><circle cx="739" cy="1224" r="5"/><circle cx="854" cy="1274" r="5"/><circle cx="919" cy="1213" r="4"/><circle cx="1006" cy="1243" r="5"/><circle cx="1117" cy="1267" r="5"/><circle cx="1170" cy="1236" r="6"/><circle cx="1280" cy="1270" r="5"/><circle cx="1305" cy="1204" r="4"/><circle cx="1403" cy="1252" r="4"/><circle cx="1500" cy="1203" r="5"/><circle cx="1586" cy="1241" r="5"/><circle cx="1610" cy="1204" r="5"/><circle cx="1720" cy="1215" r="5"/><circle cx="1839" cy="1262" r="5"/><circle cx="1897" cy="1224" r="5"/><circle cx="1980" cy="1272" r="5"/><circle cx="2028" cy="1248" r="5"/><circle cx="2154" cy="1211" r="5"/><circle cx="2210" cy="1280" r="5"/><circle cx="2297" cy="1253" r="5"/><circle cx="2345" cy="1205" r="5"/><circle cx="2419" cy="1213" r="6"/><circle cx="2541" cy="1230" r="4"/><circle cx="24" cy="1337" r="6"/><circle cx="123" cy="1354" r="5"/><circle cx="235" cy="1290" r="4"/><circle cx="274" cy="1358" r="4"/><circle cx="375" cy="1293" r="5"/><circle cx="449" cy="1322" r="5"/><circle cx="554" cy="1308" r="5"/><circle cx="574" cy="1336" r="5"/><circle cx="698" cy="1302" r="4"/><circle cx="796" cy="1309" r="4"/><circle cx="862" cy="1292" r="5"/><circle cx="959" cy="1336" r="4"/><circle cx="1014" cy="1284" r="5"/><circle cx="1058" cy="1347" r="5"/><circle cx="1187" cy="1304" r="5"/><circle cx="1230" cy="1306" r="5"/><circle cx="1311" cy="1293" r="5"/><circle cx="1392" cy="1288" r="5"/><circle cx="1509" cy="1309" r="5"/><circle cx="1586" cy="1358" r="5"/><circle cx="1638" cy="1318" r="5"/><circle cx="1717" cy="1359" r="5"/><circle cx="1796" cy="1295" r="5"/><circle cx="1847" cy="1349" r="4"/><circle cx="1990" cy="1360" r="6"/><circle cx="2028" cy="1304" r="5"/><circle cx="2088" cy="1310" r="5"/><circle cx="2214" cy="1352" r="5"/><circle cx="2266" cy="1331" r="5"/><circle cx="2349" cy="1321" r="5"/><circle cx="2421" cy="1313" r="5"/><circle cx="2499" cy="1310" r="5"/><circle cx="7" cy="1399" r="5"/><circle cx="121" cy="1372" r="4"/><circle cx="183" cy="1371" r="5"/><circle cx="284" cy="1398" r="5"/><circle cx="334" cy="1369" r="4"/><circle cx="429" cy="1384" r="6"/><circle cx="542" cy="1392" r="5"/><circle cx="595" cy="1395" r="5"/><circle cx="700" cy="1393" r="5"/><circle cx="721" cy="1366" r="6"/><circle cx="811" cy="1419" r="5"/><circle cx="943" cy="1385" r="4"/><circle cx="982" cy="1365" r="5"/><circle cx="1112" cy="1408" r="5"/><circle cx="1125" cy="1438" r="5"/><circle cx="1125" cy="-2" r="5"/><circle cx="1264" cy="1409" r="4"/><circle cx="1357" cy="1381" r="4"/><circle cx="1416" cy="1439" r="4"/><circle cx="1416" cy="-1" r="4"/><circle cx="1461" cy="1412" r="4"/><circle cx="1595" cy="1406" r="5"/><circle cx="1678" cy="1402" r="4"/><circle cx="1731" cy="1439" r="5"/><circle cx="1731" cy="-1" r="5"/><circle cx="1815" cy="1431" r="4"/><circle cx="1912" cy="1432" r="5"/><circle cx="1961" cy="1411" r="5"/><circle cx="2045" cy="1408" r="5"/><circle cx="2094" cy="1431" r="5"/><circle cx="2234" cy="1418" r="4"/><circle cx="2284" cy="1369" r="5"/><circle cx="2357" cy="1413" r="5"/><circle cx="2434" cy="1427" r="4"/><circle cx="2543" cy="1368" r="5"/><path stroke="#fff" d="M40 68L114 72M40 68L24 101M40 68L-26 107M40 68L7 -41M2600 68L2534 107M40 1508L7 1399M114 72L185 44M114 72L24 101M114 72L150 153M114 72L185 87M185 44L256 77M185 44L185 87M185 44L245 92M256 77L326 27M256 77L185 87M256 77L245 92M256 77L339 104M326 27L339 104M326 27L284 -42M326 27L334 -71M326 1467L284 1398M326 1467L334 1369M477 51L510 17M477 51L436 119M477 51L507 117M510 17L429 -56M510 17L542 -48M510 17L595 -45M510 1457L429 1384M510 1457L542 1392M510 1457L595 1395M635 57L713 62M635 57L566 120M713 62L755 54M713 62L708 160M755 54L822 19M755 54L792 140M755 54L812 108M755 54L811 -21M755 1494L811 1419M822 19L914 20M822 19L812 108M822 19L811 -21M822 1459L811 1419M914 20L1017 49M914 20L811 -21M914 20L943 -55M914 20L982 -75M914 1460L811 1419M914 1460L943 1385M914 1460L982 1365M1017 49L1099 46M1017 49L1023 137M1017 49L1084 107M1017 49L1125 -2M1017 1489L1125 1438M1099 46L1153 18M1099 46L1084 107M1099 46L1112 -32M1099 46L1125 -2M1099 1486L1112 1408M1099 1486L1125 1438M1153 18L1209 37M1153 18L1112 -32M1153 18L1125 -2M1153 1458L1112 1408M1153 1458L1125 1438M1209 37L1229 98M1209 37L1292 89M1209 37L1125 -2M1209 37L1264 -31M1209 1477L1125 1438M1209 1477L1264 1409M1302 46L1229 98M1302 46L1292 89M1302 46L1264 -31M1302 1486L1264 1409M1406 16L1489 1M1406 16L1411 108M1406 16L1357 -59M1406 16L1416 -1M1406 16L1461 -28M1406 1456L1357 1381M1406 1456L1416 1439M1406 1456L1461 1412M1489 1L1537 46M1489 1L1416 -1M1489 1L1461 -28M1489 1441L1416 1439M1489 1441L1461 1412M1537 46L1466 126M1537 46L1532 123M1537 46L1461 -28M1537 46L1595 -34M1537 1486L1461 1412M1537 1486L1595 1406M1654 7L1691 15M1654 7L1595 -34M1654 7L1678 -38M1654 7L1731 -1M1654 1447L1595 1406M1654 1447L1678 1402M1654 1447L1731 1439M1691 15L1717 -81M1691 15L1678 -38M1691 15L1731 -1M1691 1455L1717 1359M1691 1455L1678 1402M1691 1455L1731 1439M1822 4L1808 109M1822 4L1847 -91M1822 4L1815 -9M1822 4L1912 -8M1822 1444L1847 1349M1822 1444L1815 1431M1822 1444L1912 1432M1910 79L1962 42M1910 79L1889 159M1910 79L1964 93M1910 79L1941 163M1910 79L1912 -8M1910 1519L1912 1432M1962 42L1964 93M1962 42L1912 -8M1962 42L1961 -29M1962 1482L1912 1432M1962 1482L1961 1411M2062 55L2103 3M2062 55L2086 119M2062 55L2045 -32M2062 55L2094 -9M2062 1495L2045 1408M2062 1495L2094 1431M2103 3L2045 -32M2103 3L2094 -9M2103 1443L2045 1408M2103 1443L2094 1431M2199 74L2304 57M2199 74L2086 119M2199 74L2166 104M2199 74L2277 153M2199 74L2234 -22M2199 1514L2234 1418M2304 57L2396 52M2304 57L2277 153M2304 57L2392 88M2304 57L2357 -27M2304 1497L2357 1413M2396 52L2466 54M2396 52L2392 88M2396 52L2357 -27M2396 52L2434 -13M2396 1492L2357 1413M2396 1492L2434 1427M2466 54L2498 30M2466 54L2392 88M2466 54L2479 110M2466 54L2534 107M2498 30L2479 110M2498 30L2534 107M2498 30L2567 -41M2498 30L2434 -13M-62 30L7 -41M-62 1470L7 1399M2498 1470L2567 1399M2498 1470L2434 1427M24 101L-26 107M24 101L34 213M2584 101L2534 107M150 153L185 87M150 153L104 234M150 153L215 227M150 153L256 174M185 87L245 92M245 92L339 104M245 92L256 174M339 104L436 119M339 104L386 179M436 119L507 117M436 119L386 179M436 119L439 160M507 117L566 120M507 117L439 160M566 120L569 201M708 160L792 140M708 160L812 108M708 160L708 172M792 140L812 108M792 140L795 224M792 140L834 211M937 147L1023 137M937 147L938 187M1023 137L1084 107M1023 137L1033 215M1023 137L1064 172M1084 107L1192 143M1084 107L1064 172M1192 143L1229 98M1192 143L1292 89M1192 143L1181 194M1192 143L1250 196M1229 98L1292 89M1229 98L1250 196M1411 108L1466 126M1411 108L1433 198M1411 108L1416 -1M1411 1548L1416 1439M1466 126L1532 123M1466 126L1433 198M1466 126L1495 167M1532 123L1495 167M1655 110L1691 144M1655 110L1674 194M1655 110L1690 200M1691 144L1674 194M1691 144L1690 200M1808 109L1889 159M1808 109L1778 204M1808 109L1815 -9M1808 1549L1815 1431M1889 159L1964 93M1889 159L1920 232M1889 159L1941 163M1964 93L2006 146M1964 93L1941 163M2006 146L2086 119M2006 146L1920 232M2006 146L1941 163M2006 146L2051 223M2086 119L2166 104M2086 119L2135 186M2166 104L2135 186M2277 153L2235 201M2277 153L2319 180M2277 153L2366 197M2392 88L2479 110M2392 88L2366 197M2479 110L2534 107M2479 110L2446 189M34 213L104 234M34 213L-6 233M34 213L37 247M34 213L89 251M2594 213L2554 233M104 234L37 247M104 234L89 251M104 234L175 290M215 227L256 174M215 227L175 290M215 227L270 297M386 179L439 160M386 179L381 252M439 160L490 218M439 160L381 252M490 218L569 201M490 218L462 315M490 218L532 246M490 218L575 250M569 201L532 246M569 201L575 250M708 172L795 224M708 172L759 261M708 172L806 247M795 224L834 211M795 224L759 261M795 224L806 247M834 211L938 187M834 211L759 261M834 211L806 247M938 187L1033 215M938 187L938 288M1033 215L1064 172M1033 215L1018 268M1033 215L1052 253M1064 172L1052 253M1181 194L1250 196M1181 194L1158 257M1250 196L1310 217M1250 196L1270 266M1310 217L1270 266M1310 217L1325 285M1433 198L1495 167M1433 198L1427 290M1495 167L1562 238M1562 238L1515 269M1562 238L1549 292M1562 238L1608 295M1562 238L1579 330M1674 194L1690 200M1674 194L1778 204M1690 200L1778 204M1778 204L1743 283M1778 204L1863 264M1920 232L1941 163M1920 232L1863 264M1920 232L1949 292M2051 223L2135 186M2051 223L2067 304M2135 186L2235 201M2135 186L2196 268M2235 201L2319 180M2235 201L2196 268M2235 201L2261 263M2319 180L2366 197M2319 180L2261 263M2366 197L2446 189M2366 197L2344 301M2446 189L2478 243M2554 233L2597 247M2554 233L2478 243M2554 233L2486 314M-6 233L37 247M37 247L89 251M37 247L66 345M89 251L175 290M89 251L66 345M175 290L134 369M175 290L192 362M270 297L280 381M381 252L462 315M462 315L532 246M462 315L371 368M462 315L434 358M532 246L575 250M532 246L585 323M575 250L585 323M675 315L759 261M675 315L585 323M675 315L719 380M675 315L730 379M675 315L661 404M759 261L806 247M806 247L830 336M938 288L1018 268M938 288L918 362M938 288L1031 346M1018 268L1052 253M1018 268L1031 346M1018 268L1082 321M1052 253L1031 346M1052 253L1082 321M1158 257L1082 321M1158 257L1199 342M1270 266L1325 285M1270 266L1199 342M1270 266L1344 326M1325 285L1427 290M1325 285L1344 326M1325 285L1364 373M1427 290L1515 269M1427 290L1344 326M1427 290L1481 372M1515 269L1549 292M1515 269L1608 295M1515 269L1579 330M1549 292L1608 295M1549 292L1481 372M1549 292L1579 330M1608 295L1579 330M1608 295L1671 352M1743 283L1828 315M1743 283L1671 352M1743 283L1739 327M1743 283L1789 342M1828 315L1863 264M1828 315L1789 342M1828 315L1853 325M1863 264L1949 292M1863 264L1853 325M1949 292L1933 349M2067 304L2147 289M2067 304L2053 345M2147 289L2196 268M2147 289L2053 345M2147 289L2141 391M2147 289L2216 333M2196 268L2261 263M2196 268L2216 333M2261 263L2344 301M2261 263L2216 333M2344 301L2275 370M2344 301L2344 352M2344 301L2313 401M2478 243L2486 314M2478 243L2442 329M2486 314L2442 329M2486 314L2518 407M66 345L134 369M66 345L-8 397M66 345L2 416M2626 345L2552 397M134 369L192 362M134 369L158 410M134 369L167 462M192 362L280 381M192 362L158 410M192 362L258 432M280 381L371 368M280 381L258 432M280 381L338 416M371 368L434 358M371 368L338 416M371 368L412 413M434 358L539 397M434 358L412 413M539 397L585 323M539 397L546 456M539 397L567 438M585 323L661 404M719 380L730 379M719 380L661 404M730 379L661 404M730 379L792 477M830 336L918 362M830 336L832 426M830 336L892 406M918 362L1031 346M918 362L892 406M1031 346L1082 321M1199 342L1271 377M1199 342L1278 423M1271 377L1344 326M1271 377L1198 446M1271 377L1278 423M1271 377L1314 451M1344 326L1364 373M1364 373L1278 423M1364 373L1314 451M1481 372L1430 462M1481 372L1502 408M1579 330L1671 352M1671 352L1739 327M1671 352L1705 404M1739 327L1789 342M1739 327L1705 404M1739 327L1762 404M1789 342L1853 325M1789 342L1762 404M1853 325L1933 349M1933 349L1871 430M1933 349L1922 419M2053 345L2054 438M2141 391L2216 333M2141 391L2054 438M2141 391L2141 428M2141 391L2170 439M2216 333L2275 370M2275 370L2344 352M2275 370L2313 401M2344 352L2442 329M2344 352L2313 401M2344 352L2367 448M2442 329L2518 407M2552 397L2562 416M2552 397L2473 458M2552 397L2518 407M2552 397L2596 502M-8 397L2 416M-8 397L36 502M2 416L-87 458M2 416L-42 407M2 416L36 502M2562 416L2473 458M2562 416L2518 407M158 410L167 462M158 410L258 432M167 462L258 432M167 462L180 539M258 432L338 416M338 416L412 413M338 416L383 520M546 456L567 438M546 456L461 508M546 456L557 536M546 456L603 504M567 438L661 404M567 438L603 504M792 477L832 426M792 477L784 517M792 477L837 512M792 477L816 576M832 426L892 406M832 426L837 512M832 426L917 482M892 406L917 482M1009 479L1106 466M1009 479L917 482M1009 479L1009 523M1009 479L1068 510M1106 466L1198 446M1106 466L1068 510M1106 466L1145 528M1198 446L1278 423M1198 446L1145 528M1198 446L1203 529M1278 423L1314 451M1314 451L1430 462M1314 451L1309 557M1430 462L1502 408M1430 462L1438 506M1430 462L1489 544M1502 408L1590 455M1502 408L1438 506M1590 455L1631 478M1590 455L1591 509M1590 455L1609 481M1590 455L1595 564M1631 478L1591 509M1631 478L1609 481M1631 478L1687 520M1631 478L1595 564M1705 404L1762 404M1705 404L1687 520M1762 404L1805 506M1871 430L1922 419M1871 430L1805 506M1871 430L1871 509M1922 419L1871 509M1922 419L1953 512M2054 438L2141 428M2054 438L2003 511M2054 438L2085 516M2141 428L2170 439M2141 428L2085 516M2141 428L2216 501M2170 439L2216 501M2313 401L2367 448M2313 401L2299 489M2367 448L2473 458M2367 448L2299 489M2367 448L2328 502M2473 458L2518 407M2473 458L2521 519M36 502L81 525M36 502L-39 519M36 502L34 571M2596 502L2521 519M81 525L180 539M81 525L34 571M81 525L107 619M81 525L164 593M180 539L249 546M180 539L164 593M249 546L164 593M249 546L318 580M383 520L461 508M383 520L318 580M383 520L398 588M383 520L419 600M461 508L557 536M461 508L486 575M557 536L603 504M557 536L486 575M557 536L624 594M603 504L687 557M603 504L624 594M687 557L784 517M687 557L624 594M687 557L703 617M687 557L741 613M784 517L837 512M784 517L741 613M784 517L816 576M837 512L917 482M837 512L816 576M917 482L1009 523M1009 523L1068 510M1009 523L927 597M1009 523L994 621M1068 510L1145 528M1145 528L1203 529M1145 528L1139 593M1203 529L1309 557M1203 529L1139 593M1203 529L1215 604M1309 557L1215 604M1309 557L1353 631M1438 506L1489 544M1438 506L1491 578M1489 544L1491 578M1489 544L1507 652M1591 509L1609 481M1591 509L1595 564M1591 509L1608 599M1609 481L1687 520M1609 481L1595 564M1687 520L1726 568M1805 506L1871 509M1805 506L1726 568M1805 506L1774 617M1871 509L1953 512M1953 512L2003 511M1953 512L1986 571M1953 512L2045 572M2003 511L2085 516M2003 511L1986 571M2003 511L2045 572M2085 516L2045 572M2085 516L2122 590M2216 501L2299 489M2216 501L2241 569M2299 489L2328 502M2299 489L2241 569M2328 502L2241 569M2416 556L2387 615M2416 556L2422 615M2416 556L2487 579M2416 556L2445 643M2521 519L2594 571M2521 519L2487 579M-39 519L34 571M34 571L107 619M107 619L164 593M107 619L61 702M107 619L129 714M318 580L398 588M318 580L379 662M398 588L419 600M398 588L486 575M398 588L379 662M419 600L486 575M419 600L379 662M419 600L480 644M486 575L480 644M624 594L703 617M624 594L583 692M703 617L741 613M741 613L816 576M741 613L784 702M816 576L927 597M927 597L994 621M927 597L898 704M927 597L1002 643M994 621L1090 622M994 621L1002 643M1090 622L1139 593M1090 622L1002 643M1090 622L1117 703M1090 622L1175 661M1139 593L1215 604M1139 593L1175 661M1215 604L1175 661M1353 631L1411 636M1353 631L1269 704M1353 631L1320 693M1353 631L1385 709M1411 636L1491 578M1411 636L1320 693M1411 636L1385 709M1411 636L1507 652M1491 578L1507 652M1595 564L1608 599M1608 599L1670 657M1608 599L1682 655M1726 568L1774 617M1726 568L1670 657M1726 568L1682 655M1774 617L1875 627M1774 617L1682 655M1774 617L1791 711M1875 627L1986 571M1875 627L1898 709M1986 571L2045 572M1986 571L1990 670M2045 572L2122 590M2122 590L2171 608M2122 590L2164 694M2171 608L2241 569M2171 608L2159 708M2171 608L2164 694M2241 569L2281 668M2387 615L2422 615M2387 615L2487 579M2387 615L2369 661M2387 615L2445 643M2422 615L2487 579M2422 615L2369 661M2422 615L2445 643M61 702L129 714M61 702L-33 683M61 702L23 721M2621 702L2527 683M129 714L211 698M129 714L23 721M129 714L149 749M211 698L276 697M211 698L149 749M211 698L219 771M211 698L262 739M276 697L262 739M276 697L330 738M379 662L480 644M379 662L330 738M480 644L536 710M480 644L450 740M536 710L583 692M536 710L450 740M536 710L509 758M536 710L619 752M583 692L653 720M583 692L509 758M583 692L619 752M653 720L619 752M653 720L689 751M653 720L743 737M784 702L832 713M784 702L743 737M784 702L847 730M832 713L898 704M832 713L743 737M832 713L847 730M832 713L802 814M898 704L847 730M898 704L958 740M1002 643L958 740M1002 643L1005 727M1117 703L1175 661M1117 703L1082 774M1175 661L1206 745M1269 704L1320 693M1269 704L1206 745M1269 704L1303 748M1320 693L1385 709M1320 693L1303 748M1385 709L1303 748M1385 709L1378 792M1507 652L1559 717M1507 652L1530 739M1559 717L1520 761M1559 717L1530 739M1559 717L1627 798M1559 717L1611 806M1670 657L1682 655M1682 655L1741 760M1791 711L1898 709M1791 711L1741 760M1791 711L1805 774M1791 711L1870 767M1898 709L1990 670M1898 709L1870 767M1898 709L1940 786M1990 670L2039 714M1990 670L2011 724M2039 714L2011 724M2039 714L2102 759M2039 714L2031 830M2039 714L2102 815M2159 708L2164 694M2159 708L2102 759M2159 708L2206 730M2164 694L2102 759M2164 694L2206 730M2281 668L2369 661M2281 668L2206 730M2369 661L2445 643M2369 661L2430 748M2445 643L2527 683M2527 683L2583 721M2527 683L2430 748M2527 683L2508 784M-33 683L23 721M23 721L-52 784M2583 721L2508 784M149 749L219 771M149 749L108 830M149 749L187 829M219 771L262 739M219 771L187 829M219 771L285 804M262 739L330 738M262 739L285 804M330 738L285 804M330 738L372 804M450 740L509 758M450 740L372 804M509 758L513 850M619 752L689 751M619 752L629 838M689 751L743 737M689 751L629 838M689 751L754 844M743 737L802 814M847 730L958 740M847 730L802 814M958 740L1005 727M1005 727L1082 774M1005 727L1059 802M1082 774L1149 794M1082 774L1026 842M1082 774L1059 802M1149 794L1206 745M1149 794L1059 802M1149 794L1178 806M1149 794L1215 863M1206 745L1303 748M1206 745L1178 806M1303 748L1321 830M1378 792L1321 830M1378 792L1412 846M1520 761L1530 739M1520 761L1501 824M1520 761L1611 806M1530 739L1501 824M1627 798L1741 760M1627 798L1538 855M1627 798L1611 806M1627 798L1688 845M1741 760L1805 774M1741 760L1688 845M1805 774L1870 767M1805 774L1832 875M1870 767L1940 786M1940 786L2011 724M1940 786L1958 851M1940 786L2031 830M2102 759L2031 830M2102 759L2102 815M2206 730L2276 780M2276 780L2219 848M2276 780L2318 856M2276 780L2341 801M2391 763L2430 748M2391 763L2341 801M2430 748L2508 784M2430 748L2341 801M2508 784L2540 857M36 868L108 830M36 868L-20 857M36 868L45 905M36 868L-50 890M36 868L48 968M2596 868L2540 857M2596 868L2510 890M108 830L187 829M108 830L45 905M108 830L149 928M187 829L285 804M187 829L149 928M285 804L372 804M372 804L478 879M372 804L351 897M478 879L513 850M478 879L351 897M478 879L437 918M478 879L499 917M513 850L437 918M513 850L499 917M629 838L651 852M629 838L599 933M651 852L754 844M651 852L599 933M651 852L663 942M651 852L740 894M754 844L802 814M754 844L740 894M802 814L740 894M913 862L1026 842M913 862L870 960M913 862L940 920M1026 842L1059 802M1026 842L1040 913M1026 842L1095 895M1059 802L1095 895M1178 806L1215 863M1215 863L1321 830M1215 863L1149 930M1215 863L1236 931M1321 830L1412 846M1412 846L1501 824M1412 846L1420 901M1501 824L1538 855M1501 824L1515 903M1538 855L1611 806M1538 855L1515 903M1538 855L1589 938M1611 806L1688 845M1688 845L1703 940M1688 845L1785 882M1832 875L1873 870M1832 875L1785 882M1832 875L1901 959M1873 870L1958 851M1873 870L1785 882M1873 870L1901 959M1873 870L1936 939M1958 851L2031 830M1958 851L1936 939M2031 830L2102 815M2102 815L2139 921M2219 848L2318 856M2219 848L2139 921M2219 848L2287 887M2318 856L2341 801M2318 856L2287 887M2318 856L2357 909M2341 801L2287 887M2452 864L2540 857M2452 864L2357 909M2452 864L2418 943M2452 864L2510 890M2540 857L2605 905M2540 857L2510 890M-20 857L45 905M45 905L-50 890M45 905L48 968M2605 905L2510 890M149 928L217 941M149 928L168 1010M217 941L305 937M217 941L168 1010M305 937L351 897M305 937L318 1034M305 937L392 960M351 897L437 918M351 897L392 960M437 918L499 917M437 918L392 960M499 917L477 1012M599 933L663 942M599 933L532 1017M599 933L628 1026M663 942L740 894M663 942L628 1026M663 942L667 1019M740 894L794 1002M870 960L940 920M870 960L794 1002M870 960L820 1036M870 960L795 1062M940 920L1040 913M1040 913L1095 895M1040 913L1022 999M1040 913L1086 964M1095 895L1149 930M1095 895L1086 964M1149 930L1236 931M1149 930L1086 964M1149 930L1201 970M1236 931L1297 944M1236 931L1185 1028M1236 931L1201 970M1297 944L1201 970M1297 944L1358 1007M1297 944L1365 967M1297 944L1330 1043M1420 901L1515 903M1420 901L1365 967M1515 903L1589 938M1589 938L1623 943M1589 938L1541 1026M1623 943L1703 940M1623 943L1676 978M1623 943L1690 966M1703 940L1676 978M1703 940L1690 966M1703 940L1765 962M1785 882L1765 962M1901 959L1936 939M1901 959L1846 1038M1901 959L1986 1008M1936 939L1986 1008M1936 939L2024 987M2054 944L2139 921M2054 944L2024 987M2139 921L2183 956M2139 921L2138 989M2183 956L2138 989M2183 956L2236 971M2183 956L2251 985M2287 887L2357 909M2357 909L2418 943M2357 909L2371 1010M2418 943L2371 1010M2418 943L2446 1017M2418 943L2506 961M2510 890L2506 961M48 968L109 1026M48 968L-54 961M48 968L51 1083M2608 968L2506 961M109 1026L168 1010M109 1026L51 1083M109 1026L86 1072M109 1026L181 1079M168 1010L86 1072M168 1010L181 1079M318 1034L392 960M318 1034L278 1097M318 1034L349 1102M318 1034L275 1121M392 960L477 1012M477 1012L532 1017M477 1012L418 1107M477 1012L488 1095M532 1017L488 1095M628 1026L667 1019M628 1026L611 1091M628 1026L688 1096M667 1019L611 1091M667 1019L688 1096M794 1002L820 1036M794 1002L795 1062M820 1036L795 1062M820 1036L860 1112M960 1036L1022 999M960 1036L954 1077M960 1036L969 1069M960 1036L1053 1047M960 1036L959 1126M1022 999L1086 964M1022 999L969 1069M1022 999L1053 1047M1086 964L1053 1047M1185 1028L1201 970M1185 1028L1173 1062M1185 1028L1221 1087M1201 970L1173 1062M1358 1007L1365 967M1358 1007L1447 1005M1358 1007L1330 1043M1365 967L1447 1005M1365 967L1330 1043M1447 1005L1541 1026M1541 1026L1502 1104M1541 1026L1557 1056M1541 1026L1640 1081M1676 978L1690 966M1676 978L1765 962M1676 978L1690 1051M1690 966L1765 962M1690 966L1690 1051M1765 962L1846 1038M1846 1038L1835 1117M1846 1038L1853 1071M1986 1008L2024 987M1986 1008L1986 1105M1986 1008L2030 1081M2024 987L2030 1081M2138 989L2236 971M2138 989L2147 1065M2138 989L2214 1048M2236 971L2251 985M2236 971L2214 1048M2236 971L2295 1041M2251 985L2214 1048M2251 985L2295 1041M2371 1010L2446 1017M2371 1010L2295 1041M2371 1010L2357 1056M2446 1017L2506 961M2446 1017L2480 1096M2446 1017L2532 1068M2506 961L2532 1068M51 1083L86 1072M51 1083L-28 1068M51 1083L14 1177M2611 1083L2532 1068M86 1072L181 1079M181 1079L169 1146M181 1079L275 1121M278 1097L349 1102M278 1097L275 1121M349 1102L418 1107M349 1102L275 1121M349 1102L387 1156M418 1107L488 1095M418 1107L387 1156M418 1107L478 1144M488 1095L478 1144M488 1095L538 1151M611 1091L688 1096M611 1091L538 1151M611 1091L613 1143M688 1096L613 1143M688 1096L687 1188M795 1062L860 1112M795 1062L860 1144M860 1112L954 1077M860 1112L860 1144M954 1077L969 1069M954 1077L1053 1047M954 1077L959 1126M969 1069L1053 1047M969 1069L959 1126M1173 1062L1221 1087M1173 1062L1215 1147M1221 1087L1330 1043M1221 1087L1197 1178M1221 1087L1215 1147M1330 1043L1395 1108M1395 1108L1324 1176M1395 1108L1426 1182M1395 1108L1445 1190M1502 1104L1557 1056M1502 1104L1535 1183M1502 1104L1500 1203M1557 1056L1640 1081M1640 1081L1690 1051M1640 1081L1612 1182M1640 1081L1682 1156M1835 1117L1853 1071M1835 1117L1784 1187M1835 1117L1905 1133M1835 1117L1939 1167M1853 1071L1905 1133M1986 1105L2030 1081M1986 1105L1905 1133M1986 1105L1939 1167M1986 1105L2028 1124M2030 1081L2028 1124M2030 1081L2108 1168M2147 1065L2214 1048M2147 1065L2108 1168M2214 1048L2295 1041M2295 1041L2357 1056M2480 1096L2532 1068M2480 1096L2396 1156M2480 1096L2426 1192M2480 1096L2490 1170M2532 1068L2574 1177M-28 1068L14 1177M14 1177L-70 1170M14 1177L8 1239M14 1177L-19 1230M2574 1177L2490 1170M2574 1177L2541 1230M130 1187L169 1146M130 1187L114 1232M130 1187L240 1240M169 1146L114 1232M169 1146L252 1211M275 1121L252 1211M387 1156L478 1144M387 1156L362 1215M387 1156L456 1220M478 1144L538 1151M478 1144L456 1220M538 1151L613 1143M538 1151L576 1210M613 1143L687 1188M613 1143L576 1210M687 1188L767 1184M687 1188L696 1254M687 1188L739 1224M767 1184L860 1144M767 1184L696 1254M767 1184L739 1224M860 1144L959 1126M860 1144L919 1213M959 1126L999 1184M999 1184L1099 1160M999 1184L919 1213M999 1184L1006 1243M999 1184L1014 1284M1099 1160L1197 1178M1099 1160L1215 1147M1099 1160L1117 1267M1197 1178L1215 1147M1197 1178L1170 1236M1215 1147L1170 1236M1324 1176L1426 1182M1324 1176L1280 1270M1324 1176L1305 1204M1426 1182L1445 1190M1426 1182L1403 1252M1426 1182L1500 1203M1445 1190L1403 1252M1445 1190L1500 1203M1535 1183L1612 1182M1535 1183L1500 1203M1535 1183L1586 1241M1535 1183L1610 1204M1612 1182L1682 1156M1612 1182L1586 1241M1612 1182L1610 1204M1682 1156L1784 1187M1682 1156L1610 1204M1682 1156L1720 1215M1784 1187L1720 1215M1784 1187L1839 1262M1784 1187L1796 1295M1905 1133L1939 1167M1905 1133L1897 1224M1939 1167L2028 1124M1939 1167L1897 1224M2028 1124L2108 1168M2108 1168L2028 1248M2108 1168L2154 1211M2230 1187L2301 1193M2230 1187L2154 1211M2230 1187L2210 1280M2230 1187L2297 1253M2301 1193L2396 1156M2301 1193L2297 1253M2301 1193L2345 1205M2396 1156L2426 1192M2396 1156L2345 1205M2396 1156L2419 1213M2426 1192L2490 1170M2426 1192L2345 1205M2426 1192L2419 1213M2490 1170L2419 1213M2490 1170L2541 1230M8 1239L114 1232M8 1239L-19 1230M8 1239L24 1337M8 1239L-61 1310M2568 1239L2541 1230M2568 1239L2499 1310M114 1232L240 1240M114 1232L123 1354M240 1240L252 1211M240 1240L362 1215M240 1240L235 1290M252 1211L362 1215M252 1211L235 1290M362 1215L456 1220M362 1215L375 1293M456 1220L545 1263M456 1220L375 1293M545 1263L576 1210M545 1263L449 1322M545 1263L554 1308M545 1263L574 1336M576 1210L554 1308M576 1210L574 1336M696 1254L739 1224M696 1254L698 1302M696 1254L721 1366M739 1224L698 1302M739 1224L796 1309M854 1274L919 1213M854 1274L796 1309M854 1274L862 1292M919 1213L1006 1243M919 1213L862 1292M1006 1243L959 1336M1006 1243L1014 1284M1117 1267L1170 1236M1117 1267L1058 1347M1117 1267L1187 1304M1170 1236L1187 1304M1170 1236L1230 1306M1280 1270L1305 1204M1280 1270L1187 1304M1280 1270L1230 1306M1280 1270L1311 1293M1305 1204L1311 1293M1305 1204L1392 1288M1403 1252L1392 1288M1500 1203L1586 1241M1586 1241L1610 1204M1586 1241L1638 1318M1720 1215L1796 1295M1839 1262L1897 1224M1839 1262L1796 1295M1839 1262L1847 1349M1897 1224L1980 1272M1980 1272L2028 1248M1980 1272L1990 1360M1980 1272L2028 1304M1980 1272L2088 1310M2028 1248L2028 1304M2028 1248L2088 1310M2154 1211L2210 1280M2154 1211L2088 1310M2210 1280L2214 1352M2210 1280L2266 1331M2297 1253L2345 1205M2297 1253L2266 1331M2297 1253L2349 1321M2345 1205L2419 1213M2419 1213L2421 1313M2541 1230L2499 1310M24 1337L123 1354M24 1337L-61 1310M24 1337L7 1399M24 1337L-17 1368M2584 1337L2499 1310M2584 1337L2543 1368M123 1354L7 1399M123 1354L121 1372M123 1354L183 1371M235 1290L274 1358M235 1290L183 1371M235 1290L284 1398M274 1358L183 1371M274 1358L284 1398M274 1358L334 1369M375 1293L449 1322M375 1293L334 1369M375 1293L429 1384M449 1322L429 1384M554 1308L574 1336M554 1308L542 1392M554 1308L595 1395M574 1336L542 1392M574 1336L595 1395M698 1302L796 1309M698 1302L700 1393M698 1302L721 1366M796 1309L862 1292M796 1309L721 1366M862 1292L943 1385M959 1336L1014 1284M959 1336L1058 1347M959 1336L943 1385M959 1336L982 1365M1014 1284L1058 1347M1014 1284L982 1365M1058 1347L982 1365M1058 1347L1112 1408M1187 1304L1230 1306M1230 1306L1311 1293M1230 1306L1264 1409M1311 1293L1392 1288M1311 1293L1357 1381M1392 1288L1509 1309M1392 1288L1357 1381M1509 1309L1586 1358M1509 1309L1461 1412M1586 1358L1638 1318M1586 1358L1595 1406M1638 1318L1717 1359M1638 1318L1595 1406M1717 1359L1796 1295M1717 1359L1678 1402M1717 1359L1731 1439M1796 1295L1847 1349M1847 1349L1815 1431M1990 1360L2028 1304M1990 1360L1912 1432M1990 1360L1961 1411M1990 1360L2045 1408M2028 1304L2088 1310M2214 1352L2266 1331M2214 1352L2234 1418M2214 1352L2284 1369M2266 1331L2349 1321M2266 1331L2284 1369M2349 1321L2421 1313M2349 1321L2284 1369M2349 1321L2357 1413M2421 1313L2499 1310M2421 1313L2434 1427M2499 1310L2543 1368M7 1399L-17 1368M2567 1399L2543 1368M121 1372L183 1371M183 1371L284 1398M284 1398L334 1369M334 1369L429 1384M429 1384L542 1392M542 1392L595 1395M595 1395L700 1393M700 1393L721 1366M700 1393L811 1419M721 1366L811 1419M943 1385L982 1365M1112 1408L1125 1438M1264 1409L1357 1381M1357 1381L1416 1439M1416 1439L1461 1412M1595 1406L1678 1402M1678 1402L1731 1439M1731 1439L1815 1431M1912 1432L1961 1411M1961 1411L2045 1408M1961 1411L2094 1431M2045 1408L2094 1431M2234 1418L2284 1369M2284 1369L2357 1413M2357 1413L2434 1427M2434 1427L2543 1368"/></svg>