<svg xmlns="http://www.w3.org/2000/svg" width="2560" height="1440" fill="#fff"><circle cx="9" cy="25" r="5"/><circle cx="91" cy="79" r="5"/><circle cx="169" cy="49" r="4"/><circle cx="251" cy="61" r="4"/><circle cx="381" cy="62" r="5"/><circle cx="417" cy="28" r="4"/><circle cx="534" cy="5" r="4"/><circle cx="566" cy="62" r="5"/><circle cx="702" cy="66" r="5"/><circle cx="795" cy="7" r="4"/><circle cx="867" cy="51" r="4"/><circle cx="934" cy="16" r="5"/><circle cx="977" cy="6" r="4"/><circle cx="1100" cy="11" r="5"/><circle cx="1133" cy="36" r="4"/><circle cx="1233" cy="36" r="5"/><circle cx="1334" cy="59" r="5"/><circle cx="1428" cy="15" r="5"/><circle cx="1497" cy="61" r="5"/><circle cx="1559" cy="55" r="4"/><circle cx="1614" cy="33" r="4"/><circle cx="1704" cy="1" r="5"/><circle cx="1704" cy="1441" r="5"/><circle cx="1824" cy="47" r="6"/><circle cx="1866" cy="40" r="4"/><circle cx="1954" cy="32" r="5"/><circle cx="2076" cy="29" r="5"/><circle cx="2104" cy="31" r="4"/><circle cx="2207" cy="38" r="4"/><circle cx="2254" cy="60" r="5"/><circle cx="2391" cy="15" r="5"/><circle cx="2440" cy="16" r="5"/><circle cx="2502" cy="26" r="6"/><circle cx="47" cy="136" r="5"/><circle cx="145" cy="137" r="6"/><circle cx="177" cy="105" r="5"/><circle cx="252" cy="122" r="5"/><circle cx="349" cy="113" r="6"/><circle cx="440" cy="90" r="5"/><circle cx="515" cy="139" r="5"/><circle cx="589" cy="100" r="5"/><circle cx="645" cy="124" r="5"/><circle cx="720" cy="110" r="5"/><circle cx="828" cy="106" r="5"/><circle cx="923" cy="105" r="5"/><circle cx="1025" cy="120" r="5"/><circle cx="1106" cy="95" r="6"/><circle cx="1152" cy="95" r="5"/><circle cx="1242" cy="95" r="6"/><circle cx="1326" cy="149" r="5"/><circle cx="1431" cy="136" r="6"/><circle cx="1509" cy="124" r="4"/><circle cx="1599" cy="137" r="5"/><circle cx="1602" cy="120" r="4"/><circle cx="1686" cy="153" r="5"/><circle cx="1831" cy="139" r="5"/><circle cx="1913" cy="125" r="6"/><circle cx="1964" cy="115" r="5"/><circle cx="2018" cy="132" r="5"/><circle cx="2157" cy="131" r="5"/><circle cx="2182" cy="114" r="6"/><circle cx="2311" cy="158" r="5"/><circle cx="2383" cy="151" r="5"/><circle cx="2435" cy="117" r="4"/><circle cx="2535" cy="96" r="6"/><circle cx="6" cy="210" r="6"/><circle cx="118" cy="174" r="4"/><circle cx="206" cy="162" r="5"/><circle cx="289" cy="238" r="5"/><circle cx="373" cy="174" r="5"/><circle cx="466" cy="191" r="5"/><circle cx="492" cy="173" r="4"/><circle cx="638" cy="196" r="5"/><circle cx="654" cy="200" r="5"/><circle cx="772" cy="208" r="6"/><circle cx="875" cy="215" r="6"/><circle cx="910" cy="182" r="5"/><circle cx="1011" cy="218" r="6"/><circle cx="1085" cy="200" r="6"/><circle cx="1167" cy="175" r="5"/><circle cx="1272" cy="169" r="5"/><circle cx="1338" cy="200" r="5"/><circle cx="1364" cy="217" r="4"/><circle cx="1472" cy="194" r="4"/><circle cx="1574" cy="204" r="6"/><circle cx="1646" cy="168" r="6"/><circle cx="1735" cy="187" r="6"/><circle cx="1824" cy="188" r="5"/><circle cx="1880" cy="182" r="6"/><circle cx="1938" cy="205" r="6"/><circle cx="2006" cy="222" r="4"/><circle cx="2159" cy="166" r="5"/><circle cx="2193" cy="225" r="5"/><circle cx="2263" cy="167" r="5"/><circle cx="2321" cy="163" r="5"/><circle cx="2428" cy="168" r="6"/><circle cx="2548" cy="186" r="5"/><circle cx="10" cy="243" r="5"/><circle cx="134" cy="273" r="5"/><circle cx="167" cy="273" r="5"/><circle cx="244" cy="313" r="6"/><circle cx="384" cy="263" r="5"/><circle cx="435" cy="270" r="5"/><circle cx="519" cy="286" r="5"/><circle cx="615" cy="294" r="6"/><circle cx="656" cy="256" r="6"/><circle cx="778" cy="267" r="5"/><circle cx="859" cy="314" r="5"/><circle cx="891" cy="307" r="5"/><circle cx="979" cy="270" r="5"/><circle cx="1077" cy="295" r="6"/><circle cx="1194" cy="277" r="6"/><circle cx="1215" cy="285" r="4"/><circle cx="1329" cy="279" r="6"/><circle cx="1375" cy="292" r="6"/><circle cx="1487" cy="270" r="6"/><circle cx="1521" cy="282" r="5"/><circle cx="1639" cy="299" r="5"/><circle cx="1688" cy="306" r="5"/><circle cx="1786" cy="267" r="5"/><circle cx="1907" cy="256" r="6"/><circle cx="1956" cy="262" r="5"/><circle cx="2046" cy="312" r="5"/><circle cx="2122" cy="274" r="5"/><circle cx="2212" cy="316" r="4"/><circle cx="2265" cy="261" r="4"/><circle cx="2323" cy="316" r="5"/><circle cx="2406" cy="294" r="5"/><circle cx="2504" cy="317" r="5"/><circle cx="59" cy="329" r="5"/><circle cx="93" cy="378" r="5"/><circle cx="207" cy="347" r="4"/><circle cx="312" cy="353" r="4"/><circle cx="373" cy="356" r="5"/><circle cx="442" cy="360" r="5"/><circle cx="536" cy="359" r="5"/><circle cx="604" cy="374" r="5"/><circle cx="645" cy="361" r="5"/><circle cx="730" cy="341" r="4"/><circle cx="858" cy="374" r="4"/><circle cx="942" cy="362" r="4"/><circle cx="976" cy="332" r="4"/><circle cx="1113" cy="347" r="5"/><circle cx="1172" cy="379" r="4"/><circle cx="1215" cy="331" r="4"/><circle cx="1303" cy="323" r="4"/><circle cx="1422" cy="340" r="5"/><circle cx="1520" cy="328" r="5"/><circle cx="1585" cy="375" r="6"/><circle cx="1606" cy="389" r="5"/><circle cx="1741" cy="358" r="4"/><circle cx="1813" cy="353" r="6"/><circle cx="1852" cy="381" r="4"/><circle cx="1972" cy="374" r="6"/><circle cx="2005" cy="399" r="4"/><circle cx="2127" cy="362" r="6"/><circle cx="2218" cy="374" r="4"/><circle cx="2300" cy="359" r="6"/><circle cx="2381" cy="321" r="5"/><circle cx="2406" cy="364" r="4"/><circle cx="2504" cy="340" r="5"/><circle cx="39" cy="408" r="5"/><circle cx="132" cy="446" r="5"/><circle cx="188" cy="454" r="6"/><circle cx="244" cy="462" r="5"/><circle cx="398" cy="464" r="5"/><circle cx="457" cy="438" r="5"/><circle cx="553" cy="416" r="5"/><circle cx="606" cy="410" r="6"/><circle cx="652" cy="422" r="5"/><circle cx="774" cy="478" r="4"/><circle cx="819" cy="451" r="6"/><circle cx="885" cy="469" r="6"/><circle cx="1003" cy="480" r="4"/><circle cx="1068" cy="429" r="5"/><circle cx="1137" cy="437" r="5"/><circle cx="1239" cy="415" r="4"/><circle cx="1303" cy="448" r="5"/><circle cx="1438" cy="479" r="5"/><circle cx="1458" cy="402" r="5"/><circle cx="1568" cy="458" r="6"/><circle cx="1679" cy="440" r="4"/><circle cx="1753" cy="446" r="6"/><circle cx="1772" cy="422" r="4"/><circle cx="1915" cy="471" r="5"/><circle cx="1975" cy="464" r="5"/><circle cx="2074" cy="462" r="4"/><circle cx="2139" cy="408" r="5"/><circle cx="2206" cy="427" r="5"/><circle cx="2280" cy="438" r="6"/><circle cx="2393" cy="445" r="5"/><circle cx="2420" cy="404" r="5"/><circle cx="2492" cy="476" r="6"/><circle cx="19" cy="520" r="5"/><circle cx="138" cy="518" r="5"/><circle cx="205" cy="554" r="5"/><circle cx="281" cy="505" r="6"/><circle cx="335" cy="527" r="4"/><circle cx="408" cy="546" r="5"/><circle cx="552" cy="555" r="6"/><circle cx="614" cy="558" r="4"/><circle cx="692" cy="530" r="4"/><circle cx="753" cy="537" r="5"/><circle cx="854" cy="488" r="4"/><circle cx="916" cy="490" r="5"/><circle cx="1030" cy="497" r="6"/><circle cx="1082" cy="484" r="6"/><circle cx="1158" cy="533" r="5"/><circle cx="1252" cy="531" r="5"/><circle cx="1316" cy="523" r="4"/><circle cx="1388" cy="524" r="6"/><circle cx="1496" cy="550" r="6"/><circle cx="1534" cy="525" r="5"/><circle cx="1608" cy="498" r="6"/><circle cx="1724" cy="529" r="4"/><circle cx="1764" cy="487" r="5"/><circle cx="1863" cy="484" r="4"/><circle cx="1935" cy="502" r="5"/><circle cx="2016" cy="509" r="5"/><circle cx="2103" cy="548" r="4"/><circle cx="2180" cy="515" r="6"/><circle cx="2302" cy="506" r="5"/><circle cx="2328" cy="534" r="6"/><circle cx="2405" cy="555" r="6"/><circle cx="2539" cy="547" r="4"/><circle cx="15" cy="618" r="6"/><circle cx="130" cy="620" r="4"/><circle cx="239" cy="624" r="6"/><circle cx="305" cy="584" r="5"/><circle cx="337" cy="572" r="4"/><circle cx="471" cy="636" r="5"/><circle cx="514" cy="591" r="5"/><circle cx="637" cy="600" r="5"/><circle cx="718" cy="569" r="5"/><circle cx="789" cy="623" r="4"/><circle cx="876" cy="586" r="6"/><circle cx="895" cy="575" r="5"/><circle cx="1035" cy="582" r="5"/><circle cx="1074" cy="617" r="6"/><circle cx="1131" cy="618" r="5"/><circle cx="1254" cy="562" r="4"/><circle cx="1357" cy="570" r="5"/><circle cx="1410" cy="614" r="6"/><circle cx="1485" cy="592" r="5"/><circle cx="1562" cy="637" r="5"/><circle cx="1643" cy="574" r="5"/><circle cx="1755" cy="624" r="5"/><circle cx="1812" cy="594" r="5"/><circle cx="1843" cy="584" r="6"/><circle cx="1944" cy="604" r="4"/><circle cx="2002" cy="567" r="5"/><circle cx="2139" cy="620" r="5"/><circle cx="2178" cy="561" r="5"/><circle cx="2284" cy="575" r="5"/><circle cx="2349" cy="621" r="4"/><circle cx="2437" cy="569" r="4"/><circle cx="2547" cy="570" r="6"/><circle cx="62" cy="652" r="5"/><circle cx="140" cy="689" r="5"/><circle cx="174" cy="720" r="4"/><circle cx="316" cy="643" r="5"/><circle cx="395" cy="715" r="4"/><circle cx="471" cy="717" r="5"/><circle cx="528" cy="650" r="6"/><circle cx="604" cy="691" r="5"/><circle cx="706" cy="703" r="5"/><circle cx="773" cy="701" r="4"/><circle cx="838" cy="696" r="4"/><circle cx="899" cy="688" r="6"/><circle cx="1019" cy="692" r="6"/><circle cx="1087" cy="703" r="5"/><circle cx="1192" cy="678" r="5"/><circle cx="1238" cy="677" r="6"/><circle cx="1333" cy="671" r="6"/><circle cx="1404" cy="694" r="4"/><circle cx="1444" cy="714" r="6"/><circle cx="1584" cy="692" r="5"/><circle cx="1619" cy="653" r="6"/><circle cx="1735" cy="687" r="6"/><circle cx="1796" cy="694" r="5"/><circle cx="1916" cy="686" r="6"/><circle cx="1938" cy="715" r="5"/><circle cx="2075" cy="646" r="5"/><circle cx="2116" cy="674" r="6"/><circle cx="2164" cy="656" r="6"/><circle cx="2277" cy="657" r="4"/><circle cx="2394" cy="685" r="5"/><circle cx="2415" cy="642" r="5"/><circle cx="2534" cy="682" r="5"/><circle cx="42" cy="735" r="6"/><circle cx="127" cy="768" r="6"/><circle cx="162" cy="769" r="5"/><circle cx="244" cy="770" r="5"/><circle cx="354" cy="720" r="5"/><circle cx="476" cy="754" r="4"/><circle cx="539" cy="728" r="5"/><circle cx="602" cy="786" r="6"/><circle cx="717" cy="723" r="5"/><circle cx="776" cy="728" r="4"/><circle cx="821" cy="733" r="6"/><circle cx="914" cy="756" r="5"/><circle cx="962" cy="797" r="4"/><circle cx="1043" cy="727" r="5"/><circle cx="1132" cy="752" r="4"/><circle cx="1208" cy="721" r="5"/><circle cx="1306" cy="798" r="4"/><circle cx="1432" cy="791" r="5"/><circle cx="1488" cy="799" r="4"/><circle cx="1566" cy="793" r="4"/><circle cx="1639" cy="789" r="5"/><circle cx="1705" cy="780" r="5"/><circle cx="1787" cy="746" r="6"/><circle cx="1882" cy="723" r="5"/><circle cx="1961" cy="780" r="4"/><circle cx="2044" cy="786" r="4"/><circle cx="2103" cy="728" r="5"/><circle cx="2190" cy="740" r="5"/><circle cx="2270" cy="790" r="5"/><circle cx="2395" cy="722" r="6"/><circle cx="2422" cy="733" r="6"/><circle cx="2520" cy="794" r="4"/><circle cx="41" cy="800" r="5"/><circle cx="100" cy="840" r="5"/><circle cx="169" cy="846" r="4"/><circle cx="300" cy="821" r="4"/><circle cx="350" cy="813" r="5"/><circle cx="470" cy="845" r="5"/><circle cx="543" cy="822" r="4"/><circle cx="635" cy="823" r="4"/><circle cx="656" cy="813" r="5"/><circle cx="762" cy="836" r="4"/><circle cx="809" cy="841" r="5"/><circle cx="911" cy="827" r="5"/><circle cx="973" cy="822" r="4"/><circle cx="1105" cy="817" r="5"/><circle cx="1121" cy="811" r="6"/><circle cx="1229" cy="866" r="6"/><circle cx="1288" cy="857" r="5"/><circle cx="1391" cy="862" r="5"/><circle cx="1492" cy="874" r="5"/><circle cx="1537" cy="833" r="5"/><circle cx="1611" cy="863" r="4"/><circle cx="1683" cy="809" r="5"/><circle cx="1834" cy="807" r="6"/><circle cx="1905" cy="806" r="6"/><circle cx="1996" cy="816" r="4"/><circle cx="2049" cy="838" r="6"/><circle cx="2083" cy="840" r="6"/><circle cx="2189" cy="839" r="4"/><circle cx="2264" cy="858" r="4"/><circle cx="2365" cy="814" r="4"/><circle cx="2451" cy="880" r="6"/><circle cx="2540" cy="860" r="6"/><circle cx="71" cy="947" r="5"/><circle cx="155" cy="922" r="4"/><circle cx="236" cy="881" r="5"/><circle cx="249" cy="913" r="4"/><circle cx="359" cy="914" r="5"/><circle cx="442" cy="946" r="4"/><circle cx="496" cy="937" r="6"/><circle cx="627" cy="919" r="6"/><circle cx="661" cy="894" r="6"/><circle cx="791" cy="941" r="6"/><circle cx="871" cy="900" r="5"/><circle cx="921" cy="885" r="5"/><circle cx="995" cy="953" r="5"/><circle cx="1100" cy="886" r="4"/><circle cx="1186" cy="935" r="6"/><circle cx="1212" cy="941" r="5"/><circle cx="1347" cy="944" r="4"/><circle cx="1405" cy="931" r="6"/><circle cx="1443" cy="929" r="6"/><circle cx="1599" cy="948" r="5"/><circle cx="1616" cy="896" r="5"/><circle cx="1692" cy="937" r="5"/><circle cx="1793" cy="932" r="6"/><circle cx="1916" cy="960" r="5"/><circle cx="1948" cy="943" r="5"/><circle cx="2024" cy="950" r="6"/><circle cx="2087" cy="954" r="5"/><circle cx="2168" cy="902" r="4"/><circle cx="2292" cy="886" r="6"/><circle cx="2398" cy="947" r="4"/><circle cx="2409" cy="882" r="5"/><circle cx="2556" cy="910" r="5"/><circle cx="-4" cy="910" r="5"/><circle cx="28" cy="1018" r="5"/><circle cx="152" cy="992" r="4"/><circle cx="211" cy="1032" r="5"/><circle cx="242" cy="994" r="6"/><circle cx="387" cy="1012" r="5"/><circle cx="425" cy="974" r="6"/><circle cx="551" cy="996" r="5"/><circle cx="639" cy="1032" r="5"/><circle cx="642" cy="1027" r="5"/><circle cx="785" cy="996" r="5"/><circle cx="820" cy="983" r="5"/><circle cx="914" cy="982" r="5"/><circle cx="1017" cy="1013" r="6"/><circle cx="1103" cy="1007" r="5"/><circle cx="1145" cy="1015" r="5"/><circle cx="1225" cy="963" r="5"/><circle cx="1327" cy="971" r="5"/><circle cx="1361" cy="964" r="5"/><circle cx="1494" cy="982" r="5"/><circle cx="1587" cy="974" r="4"/><circle cx="1651" cy="1001" r="4"/><circle cx="1692" cy="961" r="4"/><circle cx="1798" cy="965" r="6"/><circle cx="1868" cy="1008" r="5"/><circle cx="1925" cy="984" r="6"/><circle cx="2004" cy="993" r="5"/><circle cx="2108" cy="1015" r="5"/><circle cx="2184" cy="1024" r="5"/><circle cx="2250" cy="1019" r="5"/><circle cx="2348" cy="973" r="5"/><circle cx="2420" cy="983" r="4"/><circle cx="2556" cy="1037" r="4"/><circle cx="62" cy="1067" r="5"/><circle cx="146" cy="1054" r="5"/><circle cx="214" cy="1044" r="5"/><circle cx="301" cy="1114" r="6"/><circle cx="361" cy="1096" r="6"/><circle cx="458" cy="1061" r="4"/><circle cx="526" cy="1114" r="5"/><circle cx="595" cy="1090" r="4"/><circle cx="643" cy="1115" r="5"/><circle cx="745" cy="1099" r="5"/><circle cx="806" cy="1073" r="5"/><circle cx="895" cy="1070" r="5"/><circle cx="969" cy="1114" r="5"/><circle cx="1060" cy="1074" r="5"/><circle cx="1127" cy="1115" r="5"/><circle cx="1262" cy="1090" r="4"/><circle cx="1297" cy="1094" r="6"/><circle cx="1433" cy="1047" r="5"/><circle cx="1497" cy="1048" r="6"/><circle cx="1530" cy="1094" r="5"/><circle cx="1601" cy="1086" r="4"/><circle cx="1689" cy="1094" r="5"/><circle cx="1833" cy="1094" r="6"/><circle cx="1901" cy="1059" r="5"/><circle cx="1931" cy="1090" r="5"/><circle cx="2057" cy="1099" r="5"/><circle cx="2089" cy="1056" r="4"/><circle cx="2188" cy="1103" r="6"/><circle cx="2276" cy="1078" r="6"/><circle cx="2327" cy="1062" r="4"/><circle cx="2464" cy="1043" r="6"/><circle cx="2527" cy="1075" r="4"/><circle cx="63" cy="1156" r="6"/><circle cx="119" cy="1139" r="5"/><circle cx="234" cy="1196" r="5"/><circle cx="260" cy="1133" r="5"/><circle cx="368" cy="1174" r="4"/><circle cx="401" cy="1173" r="6"/><circle cx="557" cy="1191" r="5"/><circle cx="627" cy="1156" r="5"/><circle cx="666" cy="1135" r="4"/><circle cx="752" cy="1182" r="6"/><circle cx="870" cy="1179" r="6"/><circle cx="937" cy="1122" r="4"/><circle cx="1037" cy="1161" r="4"/><circle cx="1065" cy="1137" r="6"/><circle cx="1197" cy="1131" r="6"/><circle cx="1236" cy="1140" r="5"/><circle cx="1353" cy="1146" r="5"/><circle cx="1408" cy="1135" r="5"/><circle cx="1505" cy="1153" r="5"/><circle cx="1557" cy="1145" r="6"/><circle cx="1676" cy="1140" r="5"/><circle cx="1734" cy="1195" r="5"/><circle cx="1775" cy="1140" r="6"/><circle cx="1881" cy="1185" r="5"/><circle cx="1978" cy="1163" r="6"/><circle cx="2027" cy="1124" r="4"/><circle cx="2090" cy="1143" r="4"/><circle cx="2164" cy="1137" r="5"/><circle cx="2249" cy="1127" r="4"/><circle cx="2320" cy="1169" r="5"/><circle cx="2469" cy="1168" r="5"/><circle cx="2523" cy="1130" r="4"/><circle cx="11" cy="1208" r="5"/><circle cx="158" cy="1275" r="6"/><circle cx="188" cy="1267" r="5"/><circle cx="259" cy="1273" r="6"/><circle cx="368" cy="1234" r="4"/><circle cx="475" cy="1272" r="5"/><circle cx="555" cy="1220" r="5"/><circle cx="615" cy="1259" r="6"/><circle cx="667" cy="1254" r="4"/><circle cx="750" cy="1225" r="4"/><circle cx="813" cy="1234" r="6"/><circle cx="893" cy="1219" r="5"/><circle cx="966" cy="1219" r="6"/><circle cx="1113" cy="1214" r="5"/><circle cx="1175" cy="1212" r="4"/><circle cx="1217" cy="1238" r="5"/><circle cx="1296" cy="1269" r="5"/><circle cx="1372" cy="1204" r="5"/><circle cx="1471" cy="1264" r="6"/><circle cx="1545" cy="1223" r="5"/><circle cx="1616" cy="1217" r="6"/><circle cx="1726" cy="1273" r="5"/><circle cx="1812" cy="1270" r="6"/><circle cx="1896" cy="1223" r="5"/><circle cx="1991" cy="1242" r="5"/><circle cx="2010" cy="1264" r="5"/><circle cx="2125" cy="1235" r="4"/><circle cx="2235" cy="1255" r="6"/><circle cx="2285" cy="1225" r="5"/><circle cx="2324" cy="1280" r="6"/><circle cx="2423" cy="1269" r="4"/><circle cx="2532" cy="1246" r="5"/><circle cx="38" cy="1294" r="4"/><circle cx="127" cy="1282" r="5"/><circle cx="206" cy="1309" r="4"/><circle cx="260" cy="1315" r="6"/><circle cx="366" cy="1322" r="4"/><circle cx="430" cy="1309" r="5"/><circle cx="536" cy="1325" r="5"/><circle cx="576" cy="1336" r="5"/><circle cx="651" cy="1314" r="4"/><circle cx="782" cy="1354" r="6"/><circle cx="826" cy="1319" r="5"/><circle cx="946" cy="1295" r="5"/><circle cx="990" cy="1296" r="6"/><circle cx="1066" cy="1320" r="5"/><circle cx="1157" cy="1289" r="4"/><circle cx="1253" cy="1358" r="5"/><circle cx="1314" cy="1329" r="4"/><circle cx="1399" cy="1312" r="5"/><circle cx="1481" cy="1308" r="6"/><circle cx="1586" cy="1309" r="6"/><circle cx="1621" cy="1311" r="5"/><circle cx="1747" cy="1313" r="5"/><circle cx="1782" cy="1297" r="5"/><circle cx="1917" cy="1281" r="4"/><circle cx="1970" cy="1292" r="5"/><circle cx="2067" cy="1283" r="6"/><circle cx="2098" cy="1326" r="4"/><circle cx="2205" cy="1320" r="5"/><circle cx="2260" cy="1345" r="4"/><circle cx="2390" cy="1282" r="4"/><circle cx="2464" cy="1320" r="5"/><circle cx="2532" cy="1327" r="6"/><circle cx="1" cy="1364" r="5"/><circle cx="2561" cy="1364" r="5"/><circle cx="84" cy="1402" r="5"/><circle cx="231" cy="1367" r="5"/><circle cx="276" cy="1397" r="4"/><circle cx="342" cy="1374" r="6"/><circle cx="472" cy="1423" r="6"/><circle cx="516" cy="1379" r="5"/><circle cx="609" cy="1366" r="6"/><circle cx="641" cy="1380" r="5"/><circle cx="730" cy="1384" r="5"/><circle cx="870" cy="1388" r="6"/><circle cx="889" cy="1366" r="5"/><circle cx="961" cy="1371" r="5"/><circle cx="1049" cy="1402" r="6"/><circle cx="1140" cy="1420" r="4"/><circle cx="1227" cy="1393" r="6"/><circle cx="1345" cy="1429" r="5"/><circle cx="1390" cy="1411" r="5"/><circle cx="1514" cy="1402" r="4"/><circle cx="1598" cy="1396" r="6"/><circle cx="1659" cy="1369" r="6"/><circle cx="1691" cy="1416" r="4"/><circle cx="1788" cy="1439" r="4"/><circle cx="1788" cy="-1" r="4"/><circle cx="1867" cy="1431" r="6"/><circle cx="1991" cy="1387" r="5"/><circle cx="2080" cy="1382" r="4"/><circle cx="2111" cy="1380" r="4"/><circle cx="2219" cy="1410" r="5"/><circle cx="2285" cy="1365" r="5"/><circle cx="2365" cy="1430" r="5"/><circle cx="2401" cy="1403" r="5"/><circle cx="2507" cy="1414" r="4"/><path stroke="#fff" d="M9 25L91 79M9 25L-58 26M9 25L-25 96M9 25L84 -38M9 25L-53 -26M2569 25L2502 26M2569 25L2535 96M2569 25L2507 -26M9 1465L84 1402M9 1465L-53 1414M2569 1465L2507 1414M91 79L169 49M91 79L47 136M91 79L145 137M91 79L177 105M169 49L251 61M169 49L145 137M169 49L177 105M169 49L252 122M251 61L252 122M251 61L276 -43M251 1501L276 1397M381 62L417 28M381 62L349 113M381 62L440 90M381 62L373 174M417 28L349 113M417 28L440 90M417 28L472 -17M417 1468L472 1423M534 5L566 62M534 5L472 -17M534 5L516 -61M534 1445L472 1423M534 1445L516 1379M566 62L515 139M566 62L589 100M702 66L589 100M702 66L645 124M702 66L720 110M702 66L730 -56M702 1506L730 1384M795 7L867 51M795 7L782 -86M795 7L730 -56M795 1447L782 1354M795 1447L730 1384M867 51L934 16M867 51L828 106M867 51L923 105M934 16L977 6M934 16L923 105M934 16L870 -52M934 1456L870 1388M977 6L961 -69M977 6L1049 -38M977 1446L961 1371M977 1446L1049 1402M1100 11L1133 36M1100 11L1106 95M1100 11L1049 -38M1100 11L1140 -20M1100 1451L1049 1402M1100 1451L1140 1420M1133 36L1233 36M1133 36L1106 95M1133 36L1152 95M1133 36L1140 -20M1133 1476L1140 1420M1233 36L1334 59M1233 36L1152 95M1233 36L1242 95M1233 36L1227 -47M1233 1476L1227 1393M1334 59L1242 95M1334 59L1326 149M1334 59L1345 -11M1334 59L1390 -29M1334 1499L1345 1429M1334 1499L1390 1411M1428 15L1497 61M1428 15L1345 -11M1428 15L1390 -29M1428 15L1514 -38M1428 1455L1345 1429M1428 1455L1390 1411M1428 1455L1514 1402M1497 61L1559 55M1497 61L1431 136M1497 61L1509 124M1497 61L1514 -38M1497 1501L1514 1402M1559 55L1614 33M1559 55L1509 124M1559 55L1602 120M1614 33L1704 1M1614 33L1598 -44M1614 33L1691 -24M1614 1473L1598 1396M1614 1473L1691 1416M1704 1L1659 -71M1704 1L1691 -24M1704 1L1788 -1M1704 1441L1659 1369M1704 1441L1691 1416M1704 1441L1788 1439M1824 47L1866 40M1824 47L1831 139M1824 47L1788 -1M1824 47L1867 -9M1824 1487L1788 1439M1824 1487L1867 1431M1866 40L1954 32M1866 40L1788 -1M1866 40L1867 -9M1866 1480L1788 1439M1866 1480L1867 1431M1954 32L1913 125M1954 32L1964 115M1954 32L1867 -9M1954 32L1991 -53M1954 1472L1867 1431M1954 1472L1991 1387M2076 29L2104 31M2076 29L2018 132M2076 29L1991 -53M2076 29L2080 -58M2076 29L2111 -60M2076 1469L1991 1387M2076 1469L2080 1382M2076 1469L2111 1380M2104 31L2207 38M2104 31L2080 -58M2104 31L2111 -60M2104 1471L2080 1382M2104 1471L2111 1380M2207 38L2254 60M2207 38L2157 131M2207 38L2182 114M2207 38L2219 -30M2207 1478L2219 1410M2254 60L2182 114M2254 60L2311 158M2254 60L2219 -30M2254 1500L2219 1410M2391 15L2440 16M2391 15L2502 26M2391 15L2435 117M2391 15L2365 -10M2391 15L2401 -37M2391 1455L2365 1430M2391 1455L2401 1403M2440 16L2502 26M2440 16L2365 -10M2440 16L2401 -37M2440 16L2507 -26M2440 1456L2365 1430M2440 1456L2401 1403M2440 1456L2507 1414M2502 26L2535 96M2502 26L2507 -26M2502 1466L2507 1414M47 136L-25 96M47 136L6 210M47 136L118 174M47 136L-12 186M2607 136L2535 96M2607 136L2548 186M145 137L177 105M145 137L118 174M145 137L206 162M177 105L252 122M177 105L206 162M252 122L349 113M252 122L206 162M349 113L440 90M349 113L373 174M440 90L515 139M440 90L472 -17M440 1530L472 1423M515 139L589 100M515 139L466 191M515 139L492 173M589 100L645 124M589 100L638 196M645 124L720 110M645 124L638 196M645 124L654 200M720 110L828 106M720 110L654 200M720 110L772 208M828 106L923 105M828 106L772 208M923 105L1025 120M923 105L910 182M1025 120L1106 95M1025 120L1011 218M1025 120L1085 200M1106 95L1152 95M1106 95L1085 200M1152 95L1242 95M1152 95L1167 175M1242 95L1326 149M1242 95L1272 169M1326 149L1272 169M1326 149L1338 200M1326 149L1364 217M1431 136L1509 124M1431 136L1364 217M1431 136L1472 194M1509 124L1599 137M1509 124L1472 194M1599 137L1602 120M1599 137L1686 153M1599 137L1574 204M1599 137L1646 168M1602 120L1686 153M1602 120L1574 204M1602 120L1646 168M1686 153L1646 168M1686 153L1735 187M1831 139L1913 125M1831 139L1735 187M1831 139L1824 188M1831 139L1880 182M1913 125L1964 115M1913 125L1880 182M1913 125L1938 205M1964 115L2018 132M2018 132L2006 222M2157 131L2182 114M2157 131L2159 166M2182 114L2159 166M2182 114L2263 167M2311 158L2383 151M2311 158L2263 167M2311 158L2321 163M2311 158L2428 168M2383 151L2435 117M2383 151L2321 163M2383 151L2428 168M2435 117L2535 96M2435 117L2428 168M2535 96L2548 186M6 210L118 174M6 210L-12 186M6 210L10 243M2566 210L2548 186M118 174L206 162M118 174L134 273M206 162L289 238M289 238L373 174M289 238L244 313M289 238L384 263M289 238L312 353M373 174L466 191M373 174L384 263M466 191L492 173M466 191L384 263M466 191L435 270M638 196L654 200M638 196L615 294M638 196L656 256M654 200L656 256M772 208L875 215M772 208L656 256M772 208L778 267M875 215L910 182M875 215L778 267M875 215L859 314M875 215L891 307M910 182L1011 218M1011 218L1085 200M1011 218L979 270M1011 218L1077 295M1085 200L1167 175M1085 200L1077 295M1167 175L1272 169M1167 175L1194 277M1272 169L1338 200M1338 200L1364 217M1338 200L1329 279M1338 200L1375 292M1364 217L1329 279M1364 217L1375 292M1472 194L1487 270M1472 194L1521 282M1574 204L1646 168M1574 204L1487 270M1574 204L1521 282M1646 168L1735 187M1735 187L1824 188M1735 187L1786 267M1824 188L1880 182M1824 188L1786 267M1824 188L1907 256M1880 182L1938 205M1880 182L1907 256M1938 205L2006 222M1938 205L1907 256M1938 205L1956 262M2006 222L1907 256M2006 222L1956 262M2159 166L2193 225M2159 166L2263 167M2159 166L2122 274M2193 225L2263 167M2193 225L2122 274M2193 225L2212 316M2193 225L2265 261M2263 167L2321 163M2321 163L2428 168M2321 163L2265 261M2428 168L2548 186M2548 186L2570 243M-12 186L10 243M10 243L-56 317M10 243L59 329M10 243L-56 340M2570 243L2504 317M2570 243L2504 340M134 273L167 273M134 273L244 313M134 273L59 329M134 273L93 378M167 273L244 313M167 273L207 347M244 313L207 347M244 313L312 353M384 263L435 270M384 263L373 356M435 270L519 286M435 270L373 356M435 270L442 360M519 286L615 294M519 286L442 360M519 286L536 359M615 294L656 256M615 294L645 361M778 267L859 314M778 267L730 341M859 314L891 307M859 314L858 374M859 314L942 362M891 307L979 270M891 307L858 374M891 307L942 362M979 270L1077 295M979 270L942 362M979 270L976 332M1077 295L1194 277M1077 295L1113 347M1194 277L1215 285M1194 277L1113 347M1194 277L1215 331M1215 285L1172 379M1215 285L1215 331M1215 285L1303 323M1329 279L1375 292M1329 279L1303 323M1329 279L1422 340M1375 292L1303 323M1375 292L1422 340M1487 270L1521 282M1487 270L1422 340M1487 270L1520 328M1521 282L1520 328M1521 282L1585 375M1639 299L1688 306M1639 299L1585 375M1639 299L1606 389M1688 306L1786 267M1688 306L1741 358M1786 267L1741 358M1786 267L1813 353M1907 256L1956 262M1956 262L2046 312M1956 262L1972 374M2046 312L2122 274M2046 312L1972 374M2046 312L2005 399M2046 312L2127 362M2122 274L2127 362M2212 316L2265 261M2212 316L2218 374M2212 316L2300 359M2265 261L2323 316M2323 316L2406 294M2323 316L2300 359M2323 316L2381 321M2323 316L2406 364M2406 294L2504 317M2406 294L2381 321M2406 294L2406 364M2504 317L2504 340M59 329L93 378M59 329L-56 340M59 329L39 408M2619 329L2504 340M93 378L39 408M93 378L132 446M207 347L312 353M312 353L373 356M373 356L442 360M373 356L398 464M442 360L536 359M442 360L457 438M536 359L604 374M536 359L553 416M536 359L606 410M604 374L645 361M604 374L553 416M604 374L606 410M604 374L652 422M645 361L730 341M645 361L606 410M645 361L652 422M730 341L652 422M858 374L942 362M858 374L819 451M858 374L885 469M942 362L976 332M1113 347L1172 379M1113 347L1068 429M1113 347L1137 437M1172 379L1215 331M1172 379L1137 437M1172 379L1239 415M1215 331L1303 323M1215 331L1239 415M1422 340L1520 328M1422 340L1458 402M1520 328L1585 375M1520 328L1458 402M1585 375L1606 389M1585 375L1568 458M1606 389L1568 458M1606 389L1679 440M1606 389L1608 498M1741 358L1813 353M1741 358L1753 446M1741 358L1772 422M1813 353L1852 381M1813 353L1772 422M1852 381L1772 422M1852 381L1863 484M1972 374L2005 399M1972 374L1915 471M1972 374L1975 464M2005 399L1975 464M2005 399L2074 462M2127 362L2218 374M2127 362L2139 408M2127 362L2206 427M2218 374L2300 359M2218 374L2206 427M2218 374L2280 438M2300 359L2381 321M2300 359L2280 438M2381 321L2406 364M2381 321L2420 404M2406 364L2393 445M2406 364L2420 404M2504 340L2420 404M39 408L132 446M132 446L188 454M132 446L244 462M132 446L138 518M188 454L244 462M188 454L138 518M188 454L205 554M244 462L205 554M244 462L281 505M398 464L457 438M398 464L335 527M398 464L408 546M457 438L553 416M553 416L606 410M553 416L652 422M606 410L652 422M774 478L819 451M774 478L692 530M774 478L753 537M774 478L854 488M819 451L885 469M819 451L854 488M819 451L916 490M885 469L854 488M885 469L916 490M885 469L895 575M1003 480L1068 429M1003 480L916 490M1003 480L1030 497M1003 480L1082 484M1003 480L1035 582M1068 429L1137 437M1068 429L1030 497M1068 429L1082 484M1137 437L1082 484M1137 437L1158 533M1239 415L1303 448M1303 448L1252 531M1303 448L1316 523M1438 479L1458 402M1438 479L1388 524M1438 479L1496 550M1438 479L1534 525M1568 458L1534 525M1568 458L1608 498M1679 440L1753 446M1679 440L1608 498M1679 440L1764 487M1753 446L1772 422M1753 446L1724 529M1753 446L1764 487M1772 422L1764 487M1915 471L1975 464M1915 471L1863 484M1915 471L1935 502M1975 464L1935 502M1975 464L2016 509M2074 462L2139 408M2074 462L2016 509M2139 408L2206 427M2139 408L2180 515M2206 427L2280 438M2206 427L2180 515M2280 438L2302 506M2280 438L2328 534M2393 445L2420 404M2393 445L2492 476M2420 404L2492 476M2492 476L2579 520M2492 476L2539 547M2492 476L2547 570M-68 476L19 520M19 520L138 518M19 520L-21 547M19 520L15 618M19 520L-13 570M2579 520L2539 547M2579 520L2547 570M138 518L205 554M138 518L130 620M205 554L281 505M205 554L239 624M281 505L335 527M281 505L305 584M281 505L337 572M335 527L408 546M335 527L305 584M335 527L337 572M408 546L337 572M408 546L471 636M552 555L614 558M552 555L471 636M552 555L514 591M552 555L637 600M614 558L692 530M614 558L514 591M614 558L637 600M614 558L718 569M692 530L753 537M692 530L637 600M692 530L718 569M753 537L718 569M753 537L789 623M854 488L916 490M854 488L876 586M916 490L895 575M1030 497L1082 484M1030 497L1035 582M1082 484L1158 533M1158 533L1252 531M1158 533L1131 618M1158 533L1254 562M1252 531L1316 523M1252 531L1254 562M1252 531L1357 570M1316 523L1388 524M1316 523L1254 562M1316 523L1357 570M1388 524L1496 550M1388 524L1357 570M1388 524L1410 614M1496 550L1534 525M1496 550L1485 592M1534 525L1608 498M1534 525L1485 592M1608 498L1643 574M1724 529L1764 487M1724 529L1643 574M1724 529L1755 624M1724 529L1812 594M1764 487L1863 484M1863 484L1935 502M1863 484L1843 584M1935 502L2016 509M1935 502L2002 567M2016 509L2103 548M2016 509L2002 567M2103 548L2180 515M2103 548L2139 620M2103 548L2178 561M2103 548L2075 646M2180 515L2178 561M2302 506L2328 534M2302 506L2405 555M2302 506L2284 575M2328 534L2405 555M2328 534L2284 575M2328 534L2349 621M2405 555L2349 621M2405 555L2437 569M2405 555L2415 642M2539 547L2575 618M2539 547L2437 569M2539 547L2547 570M-21 547L15 618M15 618L-13 570M15 618L62 652M15 618L-26 682M2575 618L2547 570M2575 618L2534 682M130 620L239 624M130 620L62 652M130 620L140 689M130 620L174 720M239 624L305 584M239 624L316 643M305 584L337 572M305 584L316 643M337 572L316 643M471 636L514 591M471 636L471 717M471 636L528 650M514 591L528 650M637 600L718 569M637 600L604 691M718 569L789 623M789 623L876 586M876 586L895 575M876 586L899 688M1035 582L1074 617M1035 582L1131 618M1035 582L1019 692M1074 617L1131 618M1074 617L1019 692M1074 617L1087 703M1074 617L1043 727M1131 618L1087 703M1131 618L1192 678M1254 562L1238 677M1357 570L1410 614M1357 570L1333 671M1410 614L1485 592M1410 614L1333 671M1410 614L1404 694M1485 592L1562 637M1485 592L1444 714M1562 637L1643 574M1562 637L1584 692M1562 637L1619 653M1643 574L1619 653M1755 624L1812 594M1755 624L1843 584M1755 624L1735 687M1755 624L1796 694M1812 594L1843 584M1812 594L1796 694M1843 584L1944 604M1944 604L2002 567M1944 604L1916 686M1944 604L1938 715M2139 620L2178 561M2139 620L2075 646M2139 620L2116 674M2139 620L2164 656M2178 561L2284 575M2284 575L2349 621M2284 575L2277 657M2349 621L2394 685M2349 621L2415 642M2437 569L2415 642M2547 570L2534 682M62 652L140 689M62 652L-26 682M62 652L42 735M2622 652L2534 682M140 689L174 720M140 689L127 768M140 689L162 769M174 720L127 768M174 720L162 769M174 720L244 770M316 643L395 715M316 643L354 720M395 715L471 717M395 715L354 720M395 715L476 754M395 715L350 813M471 717L528 650M471 717L476 754M471 717L539 728M528 650L604 691M528 650L539 728M604 691L706 703M604 691L539 728M604 691L602 786M706 703L773 701M706 703L717 723M706 703L776 728M773 701L838 696M773 701L717 723M773 701L776 728M773 701L821 733M838 696L899 688M838 696L776 728M838 696L821 733M899 688L1019 692M899 688L821 733M899 688L914 756M1019 692L1087 703M1019 692L1043 727M1087 703L1043 727M1087 703L1132 752M1192 678L1238 677M1192 678L1208 721M1238 677L1333 671M1238 677L1208 721M1333 671L1404 694M1333 671L1444 714M1404 694L1444 714M1444 714L1432 791M1444 714L1488 799M1584 692L1619 653M1584 692L1566 793M1619 653L1735 687M1735 687L1796 694M1735 687L1705 780M1735 687L1787 746M1796 694L1787 746M1916 686L1938 715M1916 686L1882 723M1938 715L1882 723M1938 715L1961 780M1938 715L1905 806M2075 646L2116 674M2075 646L2164 656M2075 646L2103 728M2116 674L2164 656M2116 674L2103 728M2116 674L2190 740M2164 656L2103 728M2164 656L2190 740M2394 685L2415 642M2394 685L2395 722M2394 685L2422 733M2415 642L2395 722M2534 682L2602 735M2534 682L2422 733M-26 682L42 735M42 735L127 768M42 735L-40 794M42 735L41 800M2602 735L2520 794M127 768L162 769M127 768L100 840M162 769L244 770M162 769L169 846M244 770L300 821M244 770L350 813M354 720L350 813M476 754L539 728M476 754L470 845M476 754L543 822M539 728L602 786M602 786L543 822M602 786L635 823M602 786L656 813M717 723L776 728M717 723L656 813M776 728L821 733M821 733L914 756M914 756L962 797M914 756L911 827M914 756L973 822M962 797L911 827M962 797L973 822M1043 727L1132 752M1043 727L1121 811M1132 752L1208 721M1132 752L1105 817M1132 752L1121 811M1208 721L1306 798M1306 798L1229 866M1306 798L1288 857M1432 791L1488 799M1432 791L1391 862M1432 791L1492 874M1488 799L1566 793M1488 799L1492 874M1488 799L1537 833M1566 793L1639 789M1566 793L1537 833M1566 793L1611 863M1639 789L1705 780M1639 789L1611 863M1639 789L1683 809M1705 780L1787 746M1705 780L1683 809M1705 780L1834 807M1787 746L1882 723M1787 746L1834 807M1882 723L1834 807M1882 723L1905 806M1961 780L2044 786M1961 780L1905 806M1961 780L1996 816M1961 780L2049 838M2044 786L2103 728M2044 786L1996 816M2044 786L2049 838M2044 786L2083 840M2103 728L2190 740M2190 740L2270 790M2190 740L2189 839M2270 790L2189 839M2270 790L2264 858M2270 790L2365 814M2270 790L2292 886M2395 722L2422 733M2395 722L2365 814M2422 733L2520 794M2422 733L2365 814M2520 794L2601 800M2520 794L2540 860M-40 794L41 800M41 800L100 840M41 800L-20 860M41 800L-4 910M2601 800L2540 860M2601 800L2556 910M100 840L169 846M100 840L-20 860M100 840L155 922M2660 840L2540 860M169 846L155 922M169 846L236 881M169 846L249 913M300 821L350 813M300 821L236 881M300 821L249 913M350 813L359 914M470 845L543 822M470 845L442 946M470 845L496 937M543 822L635 823M635 823L656 813M635 823L627 919M635 823L661 894M656 813L627 919M656 813L661 894M762 836L809 841M762 836L661 894M762 836L791 941M809 841L791 941M809 841L871 900M911 827L973 822M911 827L871 900M911 827L921 885M973 822L921 885M1105 817L1121 811M1105 817L1100 886M1121 811L1100 886M1229 866L1288 857M1229 866L1186 935M1229 866L1212 941M1229 866L1225 963M1288 857L1391 862M1288 857L1212 941M1391 862L1347 944M1391 862L1405 931M1391 862L1443 929M1492 874L1537 833M1492 874L1443 929M1537 833L1611 863M1537 833L1616 896M1611 863L1599 948M1611 863L1616 896M1834 807L1905 806M1834 807L1793 932M1905 806L1996 816M1996 816L2049 838M1996 816L2083 840M2049 838L2083 840M2049 838L2024 950M2083 840L2189 839M2083 840L2168 902M2189 839L2264 858M2189 839L2168 902M2264 858L2168 902M2264 858L2292 886M2365 814L2292 886M2365 814L2409 882M2451 880L2540 860M2451 880L2398 947M2451 880L2409 882M2451 880L2556 910M2451 880L2420 983M2540 860L2556 910M71 947L155 922M71 947L-4 910M71 947L28 1018M2631 947L2556 910M155 922L236 881M155 922L152 992M236 881L249 913M236 881L242 994M249 913L359 914M249 913L242 994M359 914L442 946M359 914L387 1012M359 914L425 974M442 946L496 937M442 946L387 1012M442 946L425 974M496 937L425 974M496 937L551 996M627 919L661 894M627 919L551 996M627 919L642 1027M791 941L871 900M791 941L785 996M791 941L820 983M871 900L921 885M871 900L914 982M921 885L995 953M921 885L914 982M995 953L914 982M995 953L1017 1013M995 953L1103 1007M1100 886L1186 935M1186 935L1212 941M1186 935L1145 1015M1186 935L1225 963M1212 941L1145 1015M1212 941L1225 963M1347 944L1405 931M1347 944L1327 971M1347 944L1361 964M1405 931L1443 929M1405 931L1327 971M1405 931L1361 964M1443 929L1361 964M1443 929L1494 982M1599 948L1616 896M1599 948L1692 937M1599 948L1587 974M1599 948L1651 1001M1616 896L1692 937M1616 896L1587 974M1692 937L1793 932M1692 937L1651 1001M1692 937L1692 961M1793 932L1692 961M1793 932L1798 965M1916 960L1948 943M1916 960L1868 1008M1916 960L1925 984M1916 960L2004 993M1916 960L1901 1059M1948 943L2024 950M1948 943L1925 984M1948 943L2004 993M2024 950L2087 954M2024 950L2004 993M2087 954L2168 902M2087 954L2004 993M2087 954L2108 1015M2292 886L2409 882M2292 886L2348 973M2398 947L2409 882M2398 947L2348 973M2398 947L2420 983M2398 947L2464 1043M2409 882L2420 983M28 1018L-4 1037M28 1018L62 1067M28 1018L-33 1075M2588 1018L2556 1037M2588 1018L2527 1075M152 992L211 1032M152 992L242 994M152 992L146 1054M152 992L214 1044M211 1032L242 994M211 1032L146 1054M211 1032L214 1044M211 1032L260 1133M242 994L214 1044M387 1012L425 974M387 1012L361 1096M387 1012L458 1061M425 974L458 1061M551 996L639 1032M551 996L642 1027M639 1032L642 1027M639 1032L595 1090M639 1032L643 1115M639 1032L666 1135M642 1027L595 1090M642 1027L643 1115M785 996L820 983M785 996L745 1099M785 996L806 1073M820 983L914 982M820 983L806 1073M914 982L895 1070M1017 1013L1103 1007M1017 1013L1060 1074M1103 1007L1145 1015M1103 1007L1060 1074M1145 1015L1225 963M1145 1015L1127 1115M1225 963L1327 971M1327 971L1361 964M1361 964L1433 1047M1494 982L1587 974M1494 982L1433 1047M1494 982L1497 1048M1587 974L1651 1001M1651 1001L1692 961M1651 1001L1689 1094M1692 961L1798 965M1798 965L1868 1008M1868 1008L1925 984M1868 1008L1833 1094M1868 1008L1901 1059M1925 984L2004 993M1925 984L1901 1059M2108 1015L2184 1024M2108 1015L2057 1099M2108 1015L2089 1056M2184 1024L2250 1019M2184 1024L2188 1103M2250 1019L2348 973M2250 1019L2188 1103M2250 1019L2276 1078M2250 1019L2327 1062M2348 973L2420 983M2348 973L2327 1062M2420 983L2464 1043M2556 1037L2622 1067M2556 1037L2464 1043M2556 1037L2527 1075M-4 1037L62 1067M62 1067L146 1054M62 1067L63 1156M62 1067L119 1139M146 1054L214 1044M146 1054L119 1139M214 1044L260 1133M301 1114L361 1096M301 1114L234 1196M301 1114L260 1133M301 1114L368 1174M301 1114L401 1173M361 1096L260 1133M361 1096L368 1174M361 1096L401 1173M458 1061L526 1114M526 1114L595 1090M526 1114L557 1191M526 1114L555 1220M595 1090L643 1115M595 1090L627 1156M643 1115L627 1156M643 1115L666 1135M745 1099L806 1073M745 1099L666 1135M745 1099L752 1182M806 1073L895 1070M895 1070L969 1114M895 1070L870 1179M895 1070L937 1122M969 1114L1060 1074M969 1114L937 1122M969 1114L1037 1161M969 1114L1065 1137M1060 1074L1127 1115M1060 1074L1065 1137M1127 1115L1065 1137M1127 1115L1197 1131M1127 1115L1113 1214M1262 1090L1297 1094M1262 1090L1197 1131M1262 1090L1236 1140M1262 1090L1353 1146M1297 1094L1197 1131M1297 1094L1236 1140M1297 1094L1353 1146M1297 1094L1408 1135M1433 1047L1497 1048M1433 1047L1530 1094M1433 1047L1408 1135M1497 1048L1530 1094M1497 1048L1505 1153M1530 1094L1601 1086M1530 1094L1505 1153M1530 1094L1557 1145M1601 1086L1689 1094M1601 1086L1557 1145M1601 1086L1676 1140M1689 1094L1676 1140M1689 1094L1734 1195M1689 1094L1775 1140M1833 1094L1901 1059M1833 1094L1931 1090M1833 1094L1775 1140M1833 1094L1881 1185M1901 1059L1931 1090M1931 1090L1978 1163M1931 1090L2027 1124M2057 1099L2089 1056M2057 1099L2027 1124M2057 1099L2090 1143M2089 1056L2027 1124M2089 1056L2090 1143M2188 1103L2276 1078M2188 1103L2164 1137M2188 1103L2249 1127M2276 1078L2327 1062M2276 1078L2249 1127M2276 1078L2320 1169M2464 1043L2527 1075M2464 1043L2523 1130M2527 1075L2469 1168M2527 1075L2523 1130M63 1156L119 1139M63 1156L-37 1130M63 1156L11 1208M2623 1156L2523 1130M234 1196L260 1133M234 1196L259 1273M368 1174L401 1173M368 1174L368 1234M401 1173L368 1234M401 1173L475 1272M557 1191L627 1156M557 1191L555 1220M557 1191L615 1259M627 1156L666 1135M666 1135L752 1182M752 1182L750 1225M752 1182L813 1234M870 1179L937 1122M870 1179L813 1234M870 1179L893 1219M870 1179L966 1219M1037 1161L1065 1137M1037 1161L966 1219M1037 1161L1113 1214M1065 1137L1113 1214M1197 1131L1236 1140M1197 1131L1175 1212M1236 1140L1175 1212M1236 1140L1217 1238M1353 1146L1408 1135M1353 1146L1372 1204M1408 1135L1505 1153M1408 1135L1372 1204M1505 1153L1557 1145M1505 1153L1545 1223M1557 1145L1545 1223M1557 1145L1616 1217M1676 1140L1734 1195M1676 1140L1775 1140M1676 1140L1616 1217M1734 1195L1775 1140M1734 1195L1726 1273M1734 1195L1812 1270M1775 1140L1881 1185M1881 1185L1978 1163M1881 1185L1896 1223M1978 1163L2027 1124M1978 1163L1896 1223M1978 1163L1991 1242M2027 1124L2090 1143M2090 1143L2164 1137M2090 1143L2125 1235M2164 1137L2249 1127M2164 1137L2125 1235M2249 1127L2320 1169M2249 1127L2285 1225M2320 1169L2235 1255M2320 1169L2285 1225M2469 1168L2523 1130M2469 1168L2571 1208M2469 1168L2423 1269M2469 1168L2532 1246M-91 1168L11 1208M2523 1130L2571 1208M-37 1130L11 1208M11 1208L-28 1246M11 1208L38 1294M2571 1208L2532 1246M158 1275L188 1267M158 1275L259 1273M158 1275L127 1282M158 1275L206 1309M188 1267L259 1273M188 1267L127 1282M188 1267L206 1309M188 1267L260 1315M259 1273L206 1309M259 1273L260 1315M368 1234L366 1322M368 1234L430 1309M475 1272L555 1220M475 1272L430 1309M475 1272L536 1325M555 1220L615 1259M615 1259L667 1254M615 1259L651 1314M667 1254L750 1225M667 1254L651 1314M750 1225L813 1234M813 1234L893 1219M813 1234L826 1319M893 1219L966 1219M893 1219L946 1295M966 1219L946 1295M966 1219L990 1296M1113 1214L1175 1212M1113 1214L1157 1289M1175 1212L1217 1238M1175 1212L1157 1289M1217 1238L1296 1269M1217 1238L1157 1289M1296 1269L1372 1204M1296 1269L1253 1358M1296 1269L1314 1329M1296 1269L1399 1312M1372 1204L1471 1264M1471 1264L1545 1223M1471 1264L1399 1312M1471 1264L1481 1308M1545 1223L1616 1217M1545 1223L1586 1309M1616 1217L1586 1309M1616 1217L1621 1311M1726 1273L1812 1270M1726 1273L1747 1313M1726 1273L1782 1297M1812 1270L1896 1223M1812 1270L1747 1313M1812 1270L1782 1297M1896 1223L1917 1281M1991 1242L2010 1264M1991 1242L1917 1281M1991 1242L1970 1292M1991 1242L2067 1283M2010 1264L1917 1281M2010 1264L1970 1292M2010 1264L2067 1283M2125 1235L2067 1283M2125 1235L2098 1326M2235 1255L2285 1225M2235 1255L2324 1280M2235 1255L2205 1320M2235 1255L2260 1345M2285 1225L2324 1280M2324 1280L2260 1345M2324 1280L2390 1282M2324 1280L2285 1365M2423 1269L2390 1282M2423 1269L2464 1320M2532 1246L2598 1294M2532 1246L2464 1320M2532 1246L2532 1327M-28 1246L38 1294M38 1294L127 1282M38 1294L-28 1327M38 1294L1 1364M2598 1294L2532 1327M206 1309L260 1315M206 1309L231 1367M260 1315L231 1367M260 1315L276 1397M366 1322L430 1309M366 1322L276 1397M366 1322L342 1374M430 1309L342 1374M536 1325L576 1336M536 1325L472 1423M536 1325L516 1379M536 1325L609 1366M576 1336L651 1314M576 1336L516 1379M576 1336L609 1366M576 1336L641 1380M651 1314L609 1366M651 1314L641 1380M782 1354L826 1319M782 1354L730 1384M782 1354L870 1388M782 1354L889 1366M826 1319L730 1384M826 1319L870 1388M826 1319L889 1366M946 1295L990 1296M946 1295L889 1366M946 1295L961 1371M990 1296L1066 1320M990 1296L961 1371M1066 1320L1157 1289M1066 1320L1049 1402M1157 1289L1253 1358M1253 1358L1314 1329M1253 1358L1227 1393M1253 1358L1345 1429M1314 1329L1399 1312M1314 1329L1227 1393M1314 1329L1390 1411M1399 1312L1481 1308M1399 1312L1390 1411M1481 1308L1514 1402M1586 1309L1621 1311M1586 1309L1598 1396M1586 1309L1659 1369M1621 1311L1598 1396M1621 1311L1659 1369M1747 1313L1782 1297M1747 1313L1691 1416M1917 1281L1970 1292M1970 1292L2067 1283M1970 1292L1991 1387M2067 1283L2098 1326M2098 1326L2205 1320M2098 1326L2080 1382M2098 1326L2111 1380M2205 1320L2260 1345M2205 1320L2219 1410M2205 1320L2285 1365M2260 1345L2219 1410M2260 1345L2285 1365M2390 1282L2464 1320M2464 1320L2532 1327M2464 1320L2401 1403M2532 1327L2561 1364M2532 1327L2507 1414M-28 1327L1 1364M1 1364L84 1402M1 1364L-53 1414M2561 1364L2507 1414M231 1367L276 1397M231 1367L342 1374M276 1397L342 1374M472 1423L516 1379M516 1379L609 1366M609 1366L641 1380M641 1380L730 1384M870 1388L889 1366M889 1366L961 1371M961 1371L1049 1402M1049 1402L1140 1420M1140 1420L1227 1393M1227 1393L1345 1429M1345 1429L1390 1411M1514 1402L1598 1396M1598 1396L1659 1369M1659 1369L1691 1416M1691 1416L1788 1439M1788 1439L1867 1431M1867 1431L1991 1387M1991 1387L2080 1382M2080 1382L2111 1380M2219 1410L2285 1365M2285 1365L2365 1430M2365 1430L2401 1403"/></svg>