<svg xmlns="http://www.w3.org/2000/svg" width="2560" height="1440" fill="#fff"><circle cx="12" cy="17" r="5"/><circle cx="151" cy="48" r="6"/><circle cx="237" cy="73" r="4"/><circle cx="305" cy="23" r="4"/><circle cx="385" cy="3" r="4"/><circle cx="385" cy="1443" r="4"/><circle cx="429" cy="31" r="5"/><circle cx="506" cy="27" r="5"/><circle cx="625" cy="68" r="5"/><circle cx="681" cy="2" r="4"/><circle cx="681" cy="1442" r="4"/><circle cx="753" cy="62" r="4"/><circle cx="810" cy="55" r="5"/><circle cx="930" cy="27" r="4"/><circle cx="1004" cy="14" r="5"/><circle cx="1084" cy="13" r="5"/><circle cx="1153" cy="23" r="6"/><circle cx="1250" cy="64" r="6"/><circle cx="1318" cy="12" r="4"/><circle cx="1435" cy="54" r="5"/><circle cx="1447" cy="34" r="5"/><circle cx="1575" cy="30" r="4"/><circle cx="1622" cy="15" r="5"/><circle cx="1705" cy="9" r="5"/><circle cx="1833" cy="66" r="5"/><circle cx="1860" cy="25" r="6"/><circle cx="1962" cy="6" r="6"/><circle cx="1962" cy="1446" r="6"/><circle cx="2016" cy="77" r="4"/><circle cx="2131" cy="52" r="4"/><circle cx="2190" cy="12" r="5"/><circle cx="2265" cy="31" r="6"/><circle cx="2336" cy="20" r="4"/><circle cx="2466" cy="62" r="5"/><circle cx="2517" cy="78" r="5"/><circle cx="52" cy="155" r="6"/><circle cx="80" cy="82" r="6"/><circle cx="181" cy="98" r="4"/><circle cx="296" cy="97" r="5"/><circle cx="339" cy="99" r="5"/><circle cx="409" cy="90" r="5"/><circle cx="540" cy="106" r="5"/><circle cx="623" cy="129" r="5"/><circle cx="675" cy="154" r="4"/><circle cx="790" cy="112" r="4"/><circle cx="872" cy="89" r="6"/><circle cx="886" cy="105" r="5"/><circle cx="1001" cy="97" r="5"/><circle cx="1043" cy="98" r="4"/><circle cx="1178" cy="107" r="5"/><circle cx="1276" cy="107" r="5"/><circle cx="1334" cy="123" r="5"/><circle cx="1391" cy="146" r="6"/><circle cx="1455" cy="98" r="5"/><circle cx="1551" cy="89" r="5"/><circle cx="1636" cy="149" r="5"/><circle cx="1708" cy="81" r="6"/><circle cx="1772" cy="101" r="5"/><circle cx="1864" cy="84" r="4"/><circle cx="1972" cy="89" r="5"/><circle cx="2033" cy="83" r="5"/><circle cx="2103" cy="136" r="6"/><circle cx="2175" cy="143" r="6"/><circle cx="2314" cy="125" r="4"/><circle cx="2338" cy="125" r="5"/><circle cx="2436" cy="85" r="6"/><circle cx="2546" cy="158" r="5"/><circle cx="66" cy="160" r="4"/><circle cx="89" cy="187" r="5"/><circle cx="164" cy="212" r="4"/><circle cx="260" cy="173" r="4"/><circle cx="328" cy="175" r="6"/><circle cx="419" cy="162" r="5"/><circle cx="480" cy="171" r="4"/><circle cx="585" cy="219" r="4"/><circle cx="703" cy="213" r="6"/><circle cx="773" cy="239" r="5"/><circle cx="844" cy="237" r="6"/><circle cx="885" cy="234" r="5"/><circle cx="987" cy="169" r="4"/><circle cx="1086" cy="232" r="6"/><circle cx="1157" cy="233" r="6"/><circle cx="1221" cy="228" r="4"/><circle cx="1311" cy="205" r="6"/><circle cx="1388" cy="228" r="5"/><circle cx="1502" cy="195" r="5"/><circle cx="1562" cy="189" r="5"/><circle cx="1655" cy="177" r="5"/><circle cx="1681" cy="183" r="6"/><circle cx="1779" cy="202" r="5"/><circle cx="1902" cy="211" r="4"/><circle cx="1920" cy="175" r="5"/><circle cx="2077" cy="234" r="5"/><circle cx="2095" cy="204" r="4"/><circle cx="2167" cy="218" r="5"/><circle cx="2277" cy="191" r="4"/><circle cx="2339" cy="186" r="5"/><circle cx="2479" cy="222" r="5"/><circle cx="2483" cy="209" r="5"/><circle cx="29" cy="304" r="6"/><circle cx="131" cy="274" r="6"/><circle cx="179" cy="285" r="6"/><circle cx="297" cy="297" r="5"/><circle cx="341" cy="295" r="5"/><circle cx="455" cy="296" r="5"/><circle cx="500" cy="257" r="5"/><circle cx="561" cy="309" r="6"/><circle cx="713" cy="275" r="6"/><circle cx="730" cy="292" r="4"/><circle cx="849" cy="287" r="6"/><circle cx="940" cy="251" r="5"/><circle cx="970" cy="315" r="5"/><circle cx="1098" cy="280" r="5"/><circle cx="1185" cy="261" r="5"/><circle cx="1205" cy="295" r="4"/><circle cx="1314" cy="309" r="4"/><circle cx="1377" cy="252" r="5"/><circle cx="1504" cy="304" r="5"/><circle cx="1574" cy="272" r="5"/><circle cx="1639" cy="260" r="5"/><circle cx="1750" cy="275" r="4"/><circle cx="1815" cy="312" r="4"/><circle cx="1879" cy="251" r="6"/><circle cx="1978" cy="310" r="5"/><circle cx="2056" cy="255" r="6"/><circle cx="2132" cy="282" r="5"/><circle cx="2234" cy="262" r="6"/><circle cx="2319" cy="246" r="5"/><circle cx="2384" cy="302" r="6"/><circle cx="2473" cy="254" r="5"/><circle cx="2490" cy="251" r="4"/><circle cx="35" cy="363" r="6"/><circle cx="103" cy="392" r="5"/><circle cx="237" cy="395" r="5"/><circle cx="287" cy="366" r="5"/><circle cx="334" cy="330" r="5"/><circle cx="400" cy="375" r="5"/><circle cx="520" cy="334" r="4"/><circle cx="572" cy="365" r="6"/><circle cx="666" cy="329" r="6"/><circle cx="780" cy="382" r="5"/><circle cx="807" cy="387" r="5"/><circle cx="886" cy="388" r="4"/><circle cx="975" cy="393" r="5"/><circle cx="1093" cy="326" r="5"/><circle cx="1169" cy="354" r="4"/><circle cx="1275" cy="334" r="5"/><circle cx="1319" cy="352" r="6"/><circle cx="1379" cy="321" r="4"/><circle cx="1450" cy="378" r="6"/><circle cx="1593" cy="396" r="6"/><circle cx="1604" cy="352" r="5"/><circle cx="1759" cy="322" r="5"/><circle cx="1822" cy="395" r="5"/><circle cx="1917" cy="346" r="5"/><circle cx="1992" cy="375" r="6"/><circle cx="2034" cy="354" r="5"/><circle cx="2112" cy="336" r="4"/><circle cx="2166" cy="384" r="4"/><circle cx="2248" cy="346" r="6"/><circle cx="2332" cy="375" r="5"/><circle cx="2480" cy="338" r="5"/><circle cx="2535" cy="328" r="5"/><circle cx="76" cy="423" r="4"/><circle cx="139" cy="434" r="4"/><circle cx="185" cy="448" r="4"/><circle cx="259" cy="458" r="5"/><circle cx="391" cy="462" r="4"/><circle cx="470" cy="415" r="4"/><circle cx="552" cy="473" r="5"/><circle cx="612" cy="449" r="6"/><circle cx="648" cy="479" r="4"/><circle cx="786" cy="452" r="5"/><circle cx="878" cy="428" r="4"/><circle cx="903" cy="439" r="4"/><circle cx="1028" cy="443" r="4"/><circle cx="1054" cy="424" r="5"/><circle cx="1169" cy="442" r="4"/><circle cx="1265" cy="459" r="5"/><circle cx="1300" cy="416" r="5"/><circle cx="1377" cy="425" r="5"/><circle cx="1483" cy="414" r="5"/><circle cx="1594" cy="414" r="6"/><circle cx="1609" cy="452" r="6"/><circle cx="1702" cy="409" r="5"/><circle cx="1763" cy="407" r="6"/><circle cx="1841" cy="478" r="6"/><circle cx="1966" cy="436" r="6"/><circle cx="2023" cy="432" r="4"/><circle cx="2135" cy="479" r="5"/><circle cx="2197" cy="438" r="5"/><circle cx="2288" cy="421" r="6"/><circle cx="2329" cy="471" r="4"/><circle cx="2430" cy="407" r="6"/><circle cx="2494" cy="460" r="5"/><circle cx="2" cy="524" r="5"/><circle cx="2562" cy="524" r="5"/><circle cx="91" cy="485" r="4"/><circle cx="222" cy="531" r="6"/><circle cx="247" cy="526" r="5"/><circle cx="392" cy="558" r="5"/><circle cx="475" cy="555" r="4"/><circle cx="537" cy="546" r="6"/><circle cx="589" cy="543" r="6"/><circle cx="674" cy="492" r="5"/><circle cx="731" cy="490" r="5"/><circle cx="850" cy="557" r="5"/><circle cx="929" cy="486" r="5"/><circle cx="1029" cy="499" r="4"/><circle cx="1107" cy="515" r="5"/><circle cx="1151" cy="487" r="6"/><circle cx="1276" cy="558" r="5"/><circle cx="1294" cy="502" r="5"/><circle cx="1383" cy="532" r="6"/><circle cx="1456" cy="530" r="4"/><circle cx="1538" cy="493" r="4"/><circle cx="1663" cy="550" r="4"/><circle cx="1683" cy="493" r="6"/><circle cx="1838" cy="547" r="5"/><circle cx="1856" cy="546" r="5"/><circle cx="1937" cy="504" r="4"/><circle cx="2001" cy="503" r="6"/><circle cx="2102" cy="522" r="5"/><circle cx="2228" cy="489" r="6"/><circle cx="2250" cy="519" r="5"/><circle cx="2364" cy="499" r="5"/><circle cx="2472" cy="508" r="5"/><circle cx="2489" cy="534" r="5"/><circle cx="70" cy="637" r="6"/><circle cx="107" cy="599" r="5"/><circle cx="162" cy="593" r="5"/><circle cx="307" cy="591" r="4"/><circle cx="350" cy="590" r="5"/><circle cx="422" cy="625" r="5"/><circle cx="530" cy="592" r="5"/><circle cx="584" cy="600" r="6"/><circle cx="655" cy="626" r="5"/><circle cx="767" cy="570" r="5"/><circle cx="871" cy="633" r="5"/><circle cx="924" cy="569" r="4"/><circle cx="1004" cy="635" r="5"/><circle cx="1055" cy="619" r="5"/><circle cx="1159" cy="605" r="5"/><circle cx="1240" cy="578" r="4"/><circle cx="1334" cy="583" r="4"/><circle cx="1384" cy="602" r="6"/><circle cx="1506" cy="615" r="5"/><circle cx="1596" cy="610" r="4"/><circle cx="1616" cy="636" r="4"/><circle cx="1719" cy="634" r="4"/><circle cx="1802" cy="622" r="6"/><circle cx="1880" cy="620" r="6"/><circle cx="1922" cy="595" r="5"/><circle cx="2053" cy="585" r="4"/><circle cx="2098" cy="636" r="5"/><circle cx="2166" cy="620" r="4"/><circle cx="2243" cy="596" r="4"/><circle cx="2389" cy="585" r="5"/><circle cx="2434" cy="627" r="5"/><circle cx="2554" cy="586" r="6"/><circle cx="-6" cy="586" r="6"/><circle cx="38" cy="711" r="5"/><circle cx="130" cy="674" r="5"/><circle cx="228" cy="656" r="6"/><circle cx="266" cy="666" r="5"/><circle cx="383" cy="653" r="5"/><circle cx="473" cy="643" r="5"/><circle cx="544" cy="685" r="6"/><circle cx="599" cy="670" r="5"/><circle cx="681" cy="695" r="4"/><circle cx="787" cy="684" r="5"/><circle cx="863" cy="643" r="4"/><circle cx="900" cy="655" r="6"/><circle cx="1007" cy="663" r="6"/><circle cx="1111" cy="682" r="5"/><circle cx="1143" cy="667" r="5"/><circle cx="1233" cy="683" r="6"/><circle cx="1309" cy="644" r="5"/><circle cx="1379" cy="675" r="4"/><circle cx="1473" cy="685" r="6"/><circle cx="1524" cy="683" r="5"/><circle cx="1617" cy="718" r="6"/><circle cx="1701" cy="708" r="4"/><circle cx="1813" cy="701" r="4"/><circle cx="1854" cy="647" r="5"/><circle cx="1921" cy="641" r="4"/><circle cx="2033" cy="696" r="4"/><circle cx="2159" cy="696" r="4"/><circle cx="2215" cy="693" r="5"/><circle cx="2302" cy="713" r="6"/><circle cx="2355" cy="672" r="6"/><circle cx="2403" cy="692" r="5"/><circle cx="2529" cy="706" r="4"/><circle cx="75" cy="728" r="4"/><circle cx="154" cy="720" r="5"/><circle cx="189" cy="748" r="5"/><circle cx="288" cy="753" r="5"/><circle cx="399" cy="797" r="6"/><circle cx="479" cy="790" r="4"/><circle cx="484" cy="782" r="4"/><circle cx="573" cy="775" r="5"/><circle cx="692" cy="794" r="4"/><circle cx="763" cy="737" r="6"/><circle cx="803" cy="795" r="5"/><circle cx="884" cy="751" r="4"/><circle cx="976" cy="738" r="5"/><circle cx="1057" cy="745" r="5"/><circle cx="1134" cy="758" r="4"/><circle cx="1247" cy="791" r="5"/><circle cx="1323" cy="782" r="6"/><circle cx="1436" cy="776" r="5"/><circle cx="1472" cy="791" r="4"/><circle cx="1536" cy="762" r="4"/><circle cx="1617" cy="747" r="5"/><circle cx="1698" cy="732" r="4"/><circle cx="1787" cy="778" r="5"/><circle cx="1920" cy="766" r="5"/><circle cx="1944" cy="747" r="4"/><circle cx="2040" cy="794" r="5"/><circle cx="2108" cy="797" r="6"/><circle cx="2174" cy="789" r="5"/><circle cx="2315" cy="784" r="4"/><circle cx="2365" cy="762" r="5"/><circle cx="2470" cy="751" r="6"/><circle cx="2522" cy="795" r="6"/><circle cx="70" cy="810" r="6"/><circle cx="154" cy="870" r="5"/><circle cx="235" cy="823" r="5"/><circle cx="284" cy="836" r="4"/><circle cx="368" cy="813" r="5"/><circle cx="474" cy="853" r="5"/><circle cx="509" cy="858" r="6"/><circle cx="573" cy="809" r="5"/><circle cx="705" cy="871" r="4"/><circle cx="791" cy="830" r="5"/><circle cx="872" cy="818" r="6"/><circle cx="910" cy="821" r="6"/><circle cx="1026" cy="809" r="6"/><circle cx="1097" cy="855" r="4"/><circle cx="1182" cy="860" r="6"/><circle cx="1276" cy="827" r="5"/><circle cx="1357" cy="808" r="4"/><circle cx="1363" cy="847" r="6"/><circle cx="1445" cy="848" r="5"/><circle cx="1593" cy="828" r="4"/><circle cx="1622" cy="855" r="4"/><circle cx="1698" cy="868" r="4"/><circle cx="1791" cy="803" r="5"/><circle cx="1890" cy="826" r="5"/><circle cx="1984" cy="824" r="6"/><circle cx="2040" cy="879" r="4"/><circle cx="2142" cy="820" r="5"/><circle cx="2193" cy="804" r="4"/><circle cx="2248" cy="826" r="4"/><circle cx="2376" cy="826" r="5"/><circle cx="2457" cy="868" r="4"/><circle cx="2544" cy="839" r="6"/><circle cx="62" cy="907" r="4"/><circle cx="90" cy="916" r="5"/><circle cx="185" cy="886" r="6"/><circle cx="242" cy="939" r="5"/><circle cx="362" cy="954" r="5"/><circle cx="418" cy="899" r="6"/><circle cx="481" cy="887" r="4"/><circle cx="587" cy="941" r="5"/><circle cx="667" cy="943" r="5"/><circle cx="770" cy="903" r="5"/><circle cx="859" cy="937" r="6"/><circle cx="920" cy="933" r="4"/><circle cx="994" cy="950" r="4"/><circle cx="1108" cy="927" r="4"/><circle cx="1124" cy="893" r="4"/><circle cx="1212" cy="949" r="5"/><circle cx="1334" cy="913" r="4"/><circle cx="1371" cy="924" r="5"/><circle cx="1451" cy="948" r="6"/><circle cx="1590" cy="892" r="5"/><circle cx="1635" cy="923" r="6"/><circle cx="1745" cy="902" r="4"/><circle cx="1785" cy="948" r="6"/><circle cx="1887" cy="911" r="5"/><circle cx="1923" cy="902" r="5"/><circle cx="2004" cy="956" r="5"/><circle cx="2129" cy="882" r="6"/><circle cx="2222" cy="943" r="6"/><circle cx="2245" cy="940" r="5"/><circle cx="2396" cy="955" r="6"/><circle cx="2457" cy="953" r="4"/><circle cx="2559" cy="937" r="5"/><circle cx="-1" cy="937" r="5"/><circle cx="74" cy="1016" r="6"/><circle cx="106" cy="962" r="4"/><circle cx="195" cy="998" r="4"/><circle cx="264" cy="1032" r="6"/><circle cx="337" cy="995" r="5"/><circle cx="480" cy="1029" r="5"/><circle cx="508" cy="1010" r="4"/><circle cx="592" cy="1022" r="4"/><circle cx="671" cy="988" r="4"/><circle cx="782" cy="977" r="5"/><circle cx="802" cy="997" r="5"/><circle cx="880" cy="983" r="5"/><circle cx="961" cy="981" r="4"/><circle cx="1114" cy="975" r="4"/><circle cx="1133" cy="980" r="5"/><circle cx="1276" cy="1040" r="6"/><circle cx="1312" cy="980" r="4"/><circle cx="1401" cy="1001" r="6"/><circle cx="1444" cy="1018" r="5"/><circle cx="1577" cy="1038" r="6"/><circle cx="1660" cy="1040" r="6"/><circle cx="1737" cy="980" r="4"/><circle cx="1809" cy="1009" r="4"/><circle cx="1887" cy="1026" r="5"/><circle cx="1991" cy="1038" r="4"/><circle cx="2073" cy="999" r="6"/><circle cx="2090" cy="1005" r="4"/><circle cx="2238" cy="999" r="6"/><circle cx="2254" cy="973" r="5"/><circle cx="2347" cy="1007" r="5"/><circle cx="2460" cy="1013" r="5"/><circle cx="2495" cy="1033" r="5"/><circle cx="46" cy="1104" r="5"/><circle cx="152" cy="1108" r="6"/><circle cx="232" cy="1105" r="6"/><circle cx="266" cy="1069" r="4"/><circle cx="380" cy="1117" r="4"/><circle cx="465" cy="1108" r="5"/><circle cx="482" cy="1070" r="4"/><circle cx="562" cy="1110" r="6"/><circle cx="668" cy="1048" r="6"/><circle cx="740" cy="1081" r="5"/><circle cx="825" cy="1076" r="5"/><circle cx="904" cy="1078" r="5"/><circle cx="965" cy="1045" r="5"/><circle cx="1093" cy="1052" r="5"/><circle cx="1160" cy="1083" r="5"/><circle cx="1206" cy="1059" r="5"/><circle cx="1349" cy="1117" r="5"/><circle cx="1376" cy="1114" r="5"/><circle cx="1446" cy="1047" r="5"/><circle cx="1553" cy="1117" r="6"/><circle cx="1617" cy="1095" r="5"/><circle cx="1699" cy="1064" r="4"/><circle cx="1777" cy="1090" r="4"/><circle cx="1893" cy="1061" r="5"/><circle cx="1934" cy="1115" r="6"/><circle cx="2020" cy="1092" r="5"/><circle cx="2084" cy="1050" r="5"/><circle cx="2170" cy="1104" r="5"/><circle cx="2251" cy="1054" r="6"/><circle cx="2380" cy="1079" r="5"/><circle cx="2470" cy="1085" r="6"/><circle cx="2549" cy="1068" r="4"/><circle cx="54" cy="1189" r="6"/><circle cx="117" cy="1153" r="4"/><circle cx="220" cy="1122" r="5"/><circle cx="269" cy="1137" r="4"/><circle cx="329" cy="1156" r="4"/><circle cx="455" cy="1162" r="4"/><circle cx="557" cy="1192" r="4"/><circle cx="601" cy="1165" r="6"/><circle cx="650" cy="1178" r="6"/><circle cx="781" cy="1179" r="5"/><circle cx="854" cy="1127" r="5"/><circle cx="933" cy="1170" r="4"/><circle cx="1002" cy="1167" r="5"/><circle cx="1083" cy="1130" r="4"/><circle cx="1162" cy="1137" r="5"/><circle cx="1200" cy="1190" r="6"/><circle cx="1284" cy="1167" r="4"/><circle cx="1372" cy="1142" r="4"/><circle cx="1506" cy="1129" r="5"/><circle cx="1597" cy="1179" r="6"/><circle cx="1653" cy="1176" r="5"/><circle cx="1754" cy="1193" r="5"/><circle cx="1830" cy="1168" r="5"/><circle cx="1872" cy="1145" r="6"/><circle cx="1932" cy="1197" r="4"/><circle cx="2039" cy="1147" r="4"/><circle cx="2145" cy="1140" r="4"/><circle cx="2165" cy="1185" r="5"/><circle cx="2267" cy="1151" r="4"/><circle cx="2337" cy="1161" r="4"/><circle cx="2428" cy="1121" r="5"/><circle cx="2540" cy="1182" r="6"/><circle cx="67" cy="1241" r="5"/><circle cx="99" cy="1259" r="5"/><circle cx="208" cy="1248" r="6"/><circle cx="280" cy="1239" r="6"/><circle cx="395" cy="1256" r="5"/><circle cx="427" cy="1263" r="6"/><circle cx="502" cy="1204" r="6"/><circle cx="621" cy="1232" r="5"/><circle cx="681" cy="1278" r="5"/><circle cx="788" cy="1250" r="5"/><circle cx="835" cy="1221" r="6"/><circle cx="939" cy="1270" r="4"/><circle cx="1039" cy="1264" r="4"/><circle cx="1076" cy="1278" r="4"/><circle cx="1152" cy="1248" r="5"/><circle cx="1266" cy="1207" r="6"/><circle cx="1346" cy="1261" r="4"/><circle cx="1388" cy="1255" r="5"/><circle cx="1462" cy="1276" r="6"/><circle cx="1541" cy="1272" r="5"/><circle cx="1623" cy="1253" r="6"/><circle cx="1718" cy="1279" r="6"/><circle cx="1839" cy="1270" r="5"/><circle cx="1902" cy="1233" r="6"/><circle cx="1922" cy="1236" r="5"/><circle cx="2009" cy="1250" r="4"/><circle cx="2101" cy="1257" r="5"/><circle cx="2171" cy="1204" r="5"/><circle cx="2282" cy="1205" r="6"/><circle cx="2379" cy="1276" r="6"/><circle cx="2446" cy="1279" r="6"/><circle cx="2557" cy="1238" r="5"/><circle cx="-3" cy="1238" r="5"/><circle cx="56" cy="1308" r="5"/><circle cx="123" cy="1342" r="6"/><circle cx="204" cy="1317" r="5"/><circle cx="316" cy="1330" r="5"/><circle cx="378" cy="1354" r="4"/><circle cx="455" cy="1334" r="6"/><circle cx="503" cy="1327" r="6"/><circle cx="570" cy="1303" r="5"/><circle cx="670" cy="1335" r="6"/><circle cx="793" cy="1337" r="5"/><circle cx="839" cy="1346" r="4"/><circle cx="945" cy="1303" r="5"/><circle cx="1037" cy="1290" r="4"/><circle cx="1050" cy="1336" r="5"/><circle cx="1134" cy="1288" r="5"/><circle cx="1212" cy="1337" r="5"/><circle cx="1333" cy="1327" r="5"/><circle cx="1366" cy="1344" r="4"/><circle cx="1477" cy="1335" r="5"/><circle cx="1547" cy="1354" r="4"/><circle cx="1643" cy="1294" r="4"/><circle cx="1734" cy="1355" r="5"/><circle cx="1801" cy="1303" r="6"/><circle cx="1916" cy="1333" r="4"/><circle cx="1930" cy="1357" r="4"/><circle cx="2006" cy="1328" r="6"/><circle cx="2107" cy="1323" r="5"/><circle cx="2231" cy="1328" r="5"/><circle cx="2265" cy="1323" r="5"/><circle cx="2374" cy="1282" r="5"/><circle cx="2416" cy="1309" r="5"/><circle cx="2558" cy="1348" r="6"/><circle cx="-2" cy="1348" r="6"/><circle cx="8" cy="1401" r="5"/><circle cx="90" cy="1431" r="6"/><circle cx="211" cy="1389" r="5"/><circle cx="302" cy="1392" r="5"/><circle cx="322" cy="1393" r="4"/><circle cx="456" cy="1394" r="5"/><circle cx="554" cy="1375" r="4"/><circle cx="580" cy="1389" r="5"/><circle cx="643" cy="1391" r="5"/><circle cx="799" cy="1421" r="6"/><circle cx="821" cy="1425" r="6"/><circle cx="950" cy="1361" r="6"/><circle cx="985" cy="1420" r="4"/><circle cx="1098" cy="1426" r="5"/><circle cx="1178" cy="1427" r="5"/><circle cx="1271" cy="1403" r="6"/><circle cx="1288" cy="1379" r="4"/><circle cx="1402" cy="1400" r="5"/><circle cx="1495" cy="1414" r="5"/><circle cx="1599" cy="1379" r="5"/><circle cx="1620" cy="1410" r="5"/><circle cx="1693" cy="1395" r="5"/><circle cx="1776" cy="1366" r="5"/><circle cx="1911" cy="1390" r="4"/><circle cx="1955" cy="1400" r="6"/><circle cx="2073" cy="1440" r="6"/><circle cx="2073" cy="-0" r="6"/><circle cx="2115" cy="1393" r="6"/><circle cx="2237" cy="1386" r="5"/><circle cx="2241" cy="1415" r="5"/><circle cx="2378" cy="1429" r="5"/><circle cx="2473" cy="1367" r="5"/><circle cx="2544" cy="1432" r="5"/><path stroke="#fff" d="M12 17L-43 78M12 17L80 82M12 17L8 -39M12 17L90 -9M12 17L-16 -8M2572 17L2517 78M2572 17L2544 -8M12 1457L8 1401M12 1457L90 1431M12 1457L-16 1432M2572 1457L2544 1432M151 48L237 73M151 48L80 82M151 48L181 98M151 48L90 -9M151 48L211 -51M151 1488L90 1431M151 1488L211 1389M237 73L181 98M237 73L296 97M305 23L385 3M305 23L296 97M305 23L339 99M305 23L302 -48M305 23L322 -47M305 1463L302 1392M305 1463L322 1393M385 3L429 31M385 3L409 90M385 3L322 -47M385 3L456 -46M385 1443L322 1393M385 1443L456 1394M429 31L506 27M429 31L409 90M429 31L456 -46M429 1471L456 1394M506 27L540 106M506 27L456 -46M506 27L554 -65M506 27L580 -51M506 1467L456 1394M506 1467L554 1375M506 1467L580 1389M625 68L681 2M625 68L540 106M625 68L623 129M625 68L675 154M681 2L753 62M681 2L670 -105M681 2L643 -49M681 1442L670 1335M681 1442L643 1391M753 62L810 55M753 62L790 112M753 62L799 -19M753 62L821 -15M753 1502L799 1421M753 1502L821 1425M810 55L790 112M810 55L872 89M810 55L799 -19M810 55L821 -15M810 1495L799 1421M810 1495L821 1425M930 27L1004 14M930 27L872 89M930 27L886 105M930 27L950 -79M930 27L985 -20M930 1467L950 1361M930 1467L985 1420M1004 14L1084 13M1004 14L1001 97M1004 14L985 -20M1004 14L1098 -14M1004 1454L985 1420M1004 1454L1098 1426M1084 13L1153 23M1084 13L1043 98M1084 13L1098 -14M1084 13L1178 -13M1084 1453L1098 1426M1084 1453L1178 1427M1153 23L1250 64M1153 23L1178 107M1153 23L1098 -14M1153 23L1178 -13M1153 1463L1098 1426M1153 1463L1178 1427M1250 64L1318 12M1250 64L1178 107M1250 64L1276 107M1250 64L1271 -37M1250 1504L1271 1403M1318 12L1276 107M1318 12L1271 -37M1318 12L1288 -61M1318 1452L1271 1403M1318 1452L1288 1379M1435 54L1447 34M1435 54L1391 146M1435 54L1455 98M1435 54L1402 -40M1435 54L1495 -26M1435 1494L1402 1400M1435 1494L1495 1414M1447 34L1455 98M1447 34L1402 -40M1447 34L1495 -26M1447 1474L1402 1400M1447 1474L1495 1414M1575 30L1622 15M1575 30L1551 89M1575 30L1599 -61M1575 30L1620 -30M1575 1470L1599 1379M1575 1470L1620 1410M1622 15L1705 9M1622 15L1599 -61M1622 15L1620 -30M1622 15L1693 -45M1622 1455L1599 1379M1622 1455L1620 1410M1622 1455L1693 1395M1705 9L1708 81M1705 9L1734 -85M1705 9L1620 -30M1705 9L1693 -45M1705 1449L1734 1355M1705 1449L1620 1410M1705 1449L1693 1395M1833 66L1860 25M1833 66L1772 101M1833 66L1864 84M1860 25L1962 6M1860 25L1864 84M1860 25L1911 -50M1860 1465L1911 1390M1962 6L2016 77M1962 6L1972 89M1962 6L1911 -50M1962 6L1955 -40M1962 1446L1911 1390M1962 1446L1955 1400M2016 77L1972 89M2016 77L2033 83M2016 77L2073 -0M2016 1517L2073 1440M2131 52L2190 12M2131 52L2103 136M2131 52L2175 143M2131 52L2073 -0M2131 52L2115 -47M2131 1492L2073 1440M2131 1492L2115 1393M2190 12L2265 31M2190 12L2115 -47M2190 12L2237 -54M2190 12L2241 -25M2190 1452L2115 1393M2190 1452L2237 1386M2190 1452L2241 1415M2265 31L2336 20M2265 31L2314 125M2265 31L2237 -54M2265 31L2241 -25M2265 1471L2237 1386M2265 1471L2241 1415M2336 20L2338 125M2336 20L2436 85M2336 20L2378 -11M2336 1460L2378 1429M2466 62L2517 78M2466 62L2436 85M2466 62L2378 -11M2466 1502L2378 1429M2517 78L2436 85M2517 78L2546 158M2517 78L2544 -8M2517 1518L2544 1432M52 155L80 82M52 155L-14 158M52 155L66 160M52 155L89 187M52 155L164 212M2612 155L2546 158M80 82L66 160M80 82L90 -9M80 1522L90 1431M181 98L260 173M296 97L339 99M296 97L260 173M296 97L328 175M339 99L409 90M339 99L328 175M339 99L419 162M409 90L328 175M409 90L419 162M540 106L623 129M540 106L480 171M540 106L585 219M623 129L675 154M623 129L585 219M623 129L703 213M675 154L703 213M790 112L872 89M790 112L886 105M872 89L886 105M886 105L1001 97M1001 97L1043 98M1001 97L987 169M1001 97L985 -20M1001 1537L985 1420M1043 98L987 169M1178 107L1276 107M1276 107L1334 123M1334 123L1391 146M1334 123L1311 205M1334 123L1388 228M1391 146L1455 98M1391 146L1311 205M1391 146L1388 228M1455 98L1551 89M1455 98L1502 195M1551 89L1636 149M1551 89L1502 195M1636 149L1708 81M1636 149L1562 189M1636 149L1655 177M1636 149L1681 183M1708 81L1772 101M1708 81L1655 177M1708 81L1681 183M1772 101L1864 84M1772 101L1779 202M1864 84L1972 89M1864 84L1920 175M1972 89L2033 83M1972 89L1920 175M2033 83L2103 136M2033 83L2073 -0M2033 1523L2073 1440M2103 136L2175 143M2103 136L2077 234M2103 136L2095 204M2175 143L2167 218M2314 125L2338 125M2314 125L2277 191M2314 125L2339 186M2338 125L2436 85M2338 125L2277 191M2338 125L2339 186M2436 85L2378 -11M2436 1525L2378 1429M2546 158L2626 160M2546 158L2479 222M2546 158L2483 209M-14 158L66 160M66 160L89 187M89 187L164 212M89 187L131 274M164 212L260 173M164 212L131 274M164 212L179 285M260 173L328 175M328 175L419 162M419 162L480 171M480 171L500 257M585 219L500 257M585 219L561 309M703 213L773 239M703 213L713 275M703 213L730 292M773 239L844 237M773 239L713 275M773 239L730 292M773 239L849 287M844 237L885 234M844 237L849 287M844 237L940 251M885 234L849 287M885 234L940 251M885 234L970 315M987 169L1086 232M987 169L940 251M1086 232L1157 233M1086 232L1098 280M1086 232L1185 261M1086 232L1093 326M1157 233L1221 228M1157 233L1098 280M1157 233L1185 261M1157 233L1205 295M1221 228L1311 205M1221 228L1185 261M1221 228L1205 295M1311 205L1388 228M1311 205L1377 252M1388 228L1377 252M1388 228L1379 321M1502 195L1562 189M1502 195L1504 304M1502 195L1574 272M1562 189L1655 177M1562 189L1574 272M1562 189L1639 260M1655 177L1681 183M1655 177L1639 260M1681 183L1779 202M1681 183L1639 260M1779 202L1750 275M1779 202L1879 251M1902 211L1920 175M1902 211L1879 251M1920 175L1879 251M2077 234L2095 204M2077 234L2167 218M2077 234L2056 255M2077 234L2132 282M2095 204L2167 218M2095 204L2056 255M2095 204L2132 282M2167 218L2132 282M2167 218L2234 262M2277 191L2339 186M2277 191L2234 262M2277 191L2319 246M2339 186L2319 246M2479 222L2483 209M2479 222L2473 254M2479 222L2490 251M2483 209L2473 254M2483 209L2490 251M29 304L131 274M29 304L35 363M29 304L103 392M29 304L-25 328M2589 304L2535 328M131 274L179 285M179 285L297 297M297 297L341 295M297 297L237 395M297 297L287 366M297 297L334 330M341 295L455 296M341 295L287 366M341 295L334 330M341 295L400 375M455 296L500 257M455 296L400 375M455 296L520 334M500 257L561 309M500 257L520 334M561 309L520 334M561 309L572 365M561 309L666 329M713 275L730 292M713 275L666 329M730 292L666 329M730 292L780 382M849 287L940 251M849 287L807 387M940 251L970 315M970 315L975 393M970 315L1093 326M1098 280L1185 261M1098 280L1093 326M1098 280L1169 354M1185 261L1205 295M1205 295L1169 354M1205 295L1275 334M1314 309L1377 252M1314 309L1275 334M1314 309L1319 352M1314 309L1379 321M1377 252L1379 321M1504 304L1574 272M1504 304L1450 378M1574 272L1639 260M1574 272L1604 352M1639 260L1604 352M1750 275L1815 312M1750 275L1759 322M1815 312L1879 251M1815 312L1759 322M1815 312L1822 395M1879 251L1917 346M1978 310L2056 255M1978 310L1917 346M1978 310L1992 375M1978 310L2034 354M2056 255L2132 282M2056 255L2034 354M2132 282L2112 336M2234 262L2319 246M2234 262L2248 346M2319 246L2384 302M2384 302L2473 254M2384 302L2332 375M2384 302L2480 338M2384 302L2430 407M2473 254L2490 251M2473 254L2480 338M2490 251L2480 338M2490 251L2535 328M35 363L103 392M35 363L-25 328M35 363L76 423M2595 363L2535 328M103 392L76 423M103 392L139 434M103 392L91 485M237 395L287 366M237 395L139 434M237 395L185 448M237 395L259 458M287 366L334 330M287 366L259 458M334 330L400 375M400 375L391 462M400 375L470 415M520 334L572 365M520 334L470 415M572 365L666 329M572 365L552 473M572 365L612 449M780 382L807 387M780 382L786 452M807 387L886 388M807 387L786 452M807 387L878 428M886 388L975 393M886 388L878 428M886 388L903 439M886 388L929 486M975 393L903 439M975 393L1028 443M975 393L1054 424M1093 326L1169 354M1093 326L1054 424M1169 354L1169 442M1275 334L1319 352M1275 334L1300 416M1319 352L1379 321M1319 352L1300 416M1319 352L1377 425M1379 321L1450 378M1450 378L1377 425M1450 378L1483 414M1593 396L1604 352M1593 396L1483 414M1593 396L1594 414M1593 396L1609 452M1604 352L1594 414M1759 322L1822 395M1759 322L1702 409M1759 322L1763 407M1822 395L1917 346M1822 395L1763 407M1822 395L1841 478M1917 346L1992 375M1917 346L1966 436M1992 375L2034 354M1992 375L1966 436M1992 375L2023 432M2034 354L2112 336M2034 354L2023 432M2112 336L2166 384M2166 384L2248 346M2166 384L2135 479M2166 384L2197 438M2248 346L2332 375M2248 346L2288 421M2332 375L2288 421M2332 375L2329 471M2332 375L2430 407M2480 338L2535 328M2480 338L2430 407M76 423L139 434M76 423L91 485M139 434L185 448M139 434L91 485M185 448L259 458M185 448L222 531M185 448L247 526M259 458L222 531M259 458L247 526M391 462L470 415M552 473L612 449M552 473L648 479M552 473L537 546M552 473L589 543M612 449L648 479M612 449L589 543M612 449L674 492M648 479L674 492M648 479L731 490M786 452L878 428M786 452L731 490M878 428L903 439M878 428L929 486M903 439L929 486M1028 443L1054 424M1028 443L1029 499M1054 424L1029 499M1054 424L1107 515M1169 442L1265 459M1169 442L1107 515M1169 442L1151 487M1265 459L1300 416M1265 459L1151 487M1265 459L1294 502M1300 416L1377 425M1300 416L1294 502M1377 425L1483 414M1377 425L1383 532M1483 414L1538 493M1594 414L1609 452M1594 414L1702 409M1594 414L1538 493M1609 452L1702 409M1609 452L1538 493M1609 452L1683 493M1702 409L1763 407M1702 409L1683 493M1763 407L1841 478M1763 407L1683 493M1841 478L1838 547M1841 478L1856 546M1841 478L1937 504M1966 436L2023 432M1966 436L1937 504M1966 436L2001 503M2023 432L2001 503M2135 479L2197 438M2135 479L2102 522M2135 479L2228 489M2197 438L2288 421M2197 438L2228 489M2197 438L2250 519M2288 421L2329 471M2288 421L2228 489M2329 471L2228 489M2329 471L2250 519M2329 471L2364 499M2430 407L2494 460M2430 407L2472 508M2494 460L2562 524M2494 460L2472 508M2494 460L2489 534M-66 460L2 524M2 524L91 485M2 524L-88 508M2 524L-71 534M2 524L-6 586M2562 524L2472 508M2562 524L2489 534M2562 524L2554 586M91 485L107 599M222 531L247 526M222 531L162 593M247 526L162 593M247 526L307 591M392 558L475 555M392 558L307 591M392 558L350 590M392 558L422 625M392 558L383 653M475 555L537 546M475 555L422 625M475 555L530 592M475 555L473 643M537 546L589 543M537 546L530 592M537 546L584 600M589 543L530 592M589 543L584 600M674 492L731 490M674 492L767 570M731 490L767 570M850 557L767 570M850 557L871 633M850 557L924 569M850 557L863 643M929 486L1029 499M929 486L924 569M1029 499L1107 515M1029 499L1151 487M1107 515L1151 487M1107 515L1159 605M1276 558L1294 502M1276 558L1240 578M1276 558L1334 583M1276 558L1309 644M1294 502L1383 532M1294 502L1334 583M1383 532L1456 530M1383 532L1334 583M1383 532L1384 602M1456 530L1538 493M1456 530L1384 602M1456 530L1506 615M1663 550L1683 493M1663 550L1596 610M1663 550L1616 636M1663 550L1719 634M1838 547L1856 546M1838 547L1802 622M1838 547L1922 595M1856 546L1880 620M1856 546L1922 595M1937 504L2001 503M2001 503L2102 522M2001 503L2053 585M2102 522L2053 585M2102 522L2098 636M2228 489L2250 519M2250 519L2364 499M2250 519L2243 596M2364 499L2472 508M2364 499L2389 585M2472 508L2489 534M2489 534L2389 585M2489 534L2554 586M70 637L107 599M70 637L-6 586M70 637L38 711M70 637L130 674M70 637L75 728M2630 637L2554 586M107 599L162 593M107 599L-6 586M107 599L130 674M2667 599L2554 586M162 593L130 674M162 593L228 656M307 591L350 590M307 591L266 666M307 591L383 653M350 590L422 625M350 590L266 666M350 590L383 653M422 625L383 653M422 625L473 643M530 592L584 600M530 592L473 643M584 600L655 626M584 600L599 670M655 626L544 685M655 626L599 670M655 626L681 695M871 633L924 569M871 633L787 684M871 633L863 643M871 633L900 655M924 569L863 643M924 569L900 655M1004 635L1055 619M1004 635L1007 663M1055 619L1007 663M1055 619L1111 682M1055 619L1143 667M1159 605L1240 578M1159 605L1111 682M1159 605L1143 667M1159 605L1233 683M1240 578L1233 683M1334 583L1384 602M1334 583L1309 644M1384 602L1309 644M1384 602L1379 675M1506 615L1596 610M1506 615L1473 685M1506 615L1524 683M1596 610L1616 636M1596 610L1524 683M1616 636L1719 634M1616 636L1617 718M1719 634L1802 622M1719 634L1701 708M1719 634L1698 732M1802 622L1880 620M1802 622L1813 701M1802 622L1854 647M1880 620L1922 595M1880 620L1854 647M1880 620L1921 641M1922 595L1854 647M1922 595L1921 641M2053 585L2098 636M2053 585L2033 696M2098 636L2166 620M2098 636L2033 696M2098 636L2159 696M2166 620L2243 596M2166 620L2159 696M2166 620L2215 693M2243 596L2215 693M2389 585L2434 627M2389 585L2355 672M2434 627L2554 586M2434 627L2355 672M2434 627L2403 692M38 711L-31 706M38 711L75 728M2598 711L2529 706M130 674L75 728M130 674L154 720M228 656L266 666M228 656L154 720M228 656L189 748M266 666L288 753M383 653L473 643M473 643L544 685M544 685L599 670M544 685L573 775M599 670L681 695M681 695L692 794M681 695L763 737M787 684L863 643M787 684L763 737M863 643L900 655M900 655L1007 663M900 655L884 751M1007 663L976 738M1007 663L1057 745M1111 682L1143 667M1111 682L1057 745M1111 682L1134 758M1143 667L1233 683M1143 667L1134 758M1233 683L1309 644M1233 683L1247 791M1309 644L1379 675M1379 675L1473 685M1473 685L1524 683M1473 685L1436 776M1473 685L1536 762M1524 683L1617 718M1524 683L1536 762M1617 718L1701 708M1617 718L1617 747M1617 718L1698 732M1701 708L1617 747M1701 708L1698 732M1701 708L1787 778M1813 701L1854 647M1813 701L1787 778M1813 701L1791 803M1854 647L1921 641M2033 696L1944 747M2033 696L2040 794M2159 696L2215 693M2215 693L2302 713M2302 713L2355 672M2302 713L2403 692M2302 713L2315 784M2302 713L2365 762M2355 672L2403 692M2355 672L2365 762M2403 692L2365 762M2403 692L2470 751M2529 706L2470 751M2529 706L2522 795M75 728L154 720M75 728L70 810M154 720L189 748M189 748L288 753M189 748L235 823M288 753L235 823M288 753L284 836M288 753L368 813M399 797L479 790M399 797L484 782M399 797L368 813M399 797L418 899M479 790L484 782M479 790L573 775M479 790L474 853M479 790L509 858M484 782L573 775M484 782L474 853M484 782L509 858M573 775L573 809M692 794L763 737M692 794L705 871M763 737L803 795M763 737L791 830M803 795L884 751M803 795L791 830M803 795L872 818M803 795L910 821M884 751L976 738M884 751L872 818M884 751L910 821M976 738L1057 745M976 738L910 821M976 738L1026 809M1057 745L1134 758M1057 745L1026 809M1134 758L1026 809M1247 791L1323 782M1247 791L1182 860M1247 791L1276 827M1323 782L1276 827M1323 782L1357 808M1323 782L1363 847M1436 776L1472 791M1436 776L1357 808M1436 776L1445 848M1472 791L1536 762M1472 791L1445 848M1536 762L1617 747M1536 762L1593 828M1617 747L1698 732M1617 747L1593 828M1698 732L1787 778M1787 778L1791 803M1920 766L1944 747M1920 766L1791 803M1920 766L1890 826M1920 766L1984 824M1944 747L1984 824M2040 794L2108 797M2040 794L1984 824M2040 794L2040 879M2040 794L2142 820M2108 797L2174 789M2108 797L2142 820M2108 797L2193 804M2108 797L2129 882M2174 789L2142 820M2174 789L2193 804M2174 789L2248 826M2174 789L2129 882M2315 784L2365 762M2315 784L2248 826M2315 784L2376 826M2365 762L2376 826M2470 751L2522 795M2470 751L2376 826M2470 751L2544 839M2522 795L2630 810M2522 795L2457 868M2522 795L2544 839M-38 795L70 810M70 810L154 870M70 810L-16 839M70 810L62 907M2630 810L2544 839M154 870L235 823M154 870L90 916M154 870L185 886M154 870L242 939M235 823L284 836M235 823L185 886M284 836L368 813M368 813L418 899M474 853L509 858M474 853L418 899M474 853L481 887M509 858L573 809M509 858L481 887M705 871L791 830M705 871L667 943M705 871L770 903M791 830L872 818M791 830L770 903M872 818L910 821M910 821L1026 809M1026 809L1097 855M1097 855L1182 860M1097 855L1108 927M1097 855L1124 893M1182 860L1276 827M1182 860L1124 893M1182 860L1212 949M1276 827L1357 808M1357 808L1363 847M1357 808L1445 848M1363 847L1445 848M1363 847L1334 913M1363 847L1371 924M1445 848L1451 948M1593 828L1622 855M1593 828L1590 892M1593 828L1635 923M1622 855L1698 868M1622 855L1590 892M1622 855L1635 923M1698 868L1590 892M1698 868L1635 923M1698 868L1745 902M1791 803L1890 826M1791 803L1745 902M1890 826L1887 911M1890 826L1923 902M1984 824L2040 879M1984 824L1923 902M2040 879L2004 956M2040 879L2129 882M2142 820L2193 804M2142 820L2129 882M2193 804L2248 826M2248 826L2245 940M2376 826L2457 868M2457 868L2544 839M2457 868L2396 955M2457 868L2457 953M2544 839L2559 937M62 907L90 916M62 907L-1 937M62 907L106 962M2622 907L2559 937M90 916L185 886M90 916L74 1016M90 916L106 962M185 886L242 939M185 886L106 962M242 939L195 998M242 939L264 1032M242 939L337 995M362 954L418 899M362 954L337 995M418 899L481 887M587 941L667 943M587 941L592 1022M587 941L671 988M667 943L671 988M667 943L668 1048M770 903L859 937M770 903L782 977M770 903L802 997M859 937L920 933M859 937L782 977M859 937L802 997M859 937L880 983M920 933L994 950M920 933L880 983M920 933L961 981M920 933L965 1045M994 950L961 981M994 950L965 1045M1108 927L1124 893M1108 927L1114 975M1108 927L1133 980M1124 893L1114 975M1124 893L1133 980M1212 949L1114 975M1212 949L1133 980M1212 949L1276 1040M1212 949L1206 1059M1334 913L1371 924M1334 913L1312 980M1371 924L1451 948M1371 924L1312 980M1371 924L1401 1001M1451 948L1401 1001M1451 948L1444 1018M1451 948L1446 1047M1590 892L1635 923M1635 923L1660 1040M1745 902L1785 948M1745 902L1737 980M1785 948L1887 911M1785 948L1737 980M1785 948L1809 1009M1887 911L1923 902M1923 902L2004 956M2004 956L1991 1038M2004 956L2073 999M2004 956L2090 1005M2129 882L2222 943M2222 943L2245 940M2222 943L2238 999M2222 943L2254 973M2245 940L2238 999M2245 940L2254 973M2396 955L2457 953M2396 955L2347 1007M2396 955L2460 1013M2457 953L2559 937M2457 953L2460 1013M2457 953L2495 1033M2559 937L2634 1016M-1 937L74 1016M74 1016L106 962M74 1016L46 1104M74 1016L-11 1068M2634 1016L2549 1068M106 962L195 998M195 998L264 1032M264 1032L337 995M264 1032L232 1105M264 1032L266 1069M337 995L266 1069M337 995L380 1117M480 1029L508 1010M480 1029L465 1108M480 1029L482 1070M508 1010L592 1022M508 1010L482 1070M592 1022L671 988M592 1022L562 1110M592 1022L668 1048M671 988L668 1048M782 977L802 997M782 977L825 1076M802 997L880 983M802 997L825 1076M880 983L961 981M880 983L904 1078M961 981L965 1045M1114 975L1133 980M1114 975L1093 1052M1133 980L1093 1052M1276 1040L1312 980M1276 1040L1206 1059M1276 1040L1349 1117M1312 980L1401 1001M1401 1001L1444 1018M1401 1001L1446 1047M1444 1018L1376 1114M1444 1018L1446 1047M1444 1018L1506 1129M1577 1038L1660 1040M1577 1038L1553 1117M1577 1038L1617 1095M1577 1038L1506 1129M1660 1040L1737 980M1660 1040L1617 1095M1660 1040L1699 1064M1737 980L1809 1009M1737 980L1699 1064M1809 1009L1887 1026M1809 1009L1777 1090M1809 1009L1893 1061M1887 1026L1893 1061M1887 1026L1934 1115M1991 1038L2073 999M1991 1038L2020 1092M1991 1038L2084 1050M2073 999L2090 1005M2073 999L2020 1092M2073 999L2084 1050M2090 1005L2084 1050M2238 999L2254 973M2238 999L2347 1007M2238 999L2251 1054M2254 973L2347 1007M2254 973L2251 1054M2347 1007L2251 1054M2347 1007L2380 1079M2460 1013L2495 1033M2460 1013L2380 1079M2460 1013L2470 1085M2495 1033L2470 1085M2495 1033L2549 1068M2495 1033L2428 1121M46 1104L-11 1068M46 1104L54 1189M46 1104L117 1153M46 1104L-20 1182M2606 1104L2549 1068M2606 1104L2540 1182M152 1108L232 1105M152 1108L117 1153M152 1108L220 1122M232 1105L266 1069M232 1105L220 1122M232 1105L269 1137M266 1069L220 1122M266 1069L269 1137M380 1117L465 1108M380 1117L329 1156M380 1117L455 1162M465 1108L482 1070M465 1108L562 1110M465 1108L455 1162M482 1070L562 1110M482 1070L455 1162M562 1110L557 1192M562 1110L601 1165M668 1048L740 1081M668 1048L650 1178M740 1081L825 1076M740 1081L781 1179M825 1076L904 1078M825 1076L854 1127M904 1078L965 1045M904 1078L854 1127M904 1078L933 1170M1093 1052L1160 1083M1093 1052L1083 1130M1093 1052L1162 1137M1160 1083L1206 1059M1160 1083L1083 1130M1160 1083L1162 1137M1206 1059L1162 1137M1349 1117L1376 1114M1349 1117L1284 1167M1349 1117L1372 1142M1349 1117L1266 1207M1376 1114L1446 1047M1376 1114L1284 1167M1376 1114L1372 1142M1446 1047L1506 1129M1553 1117L1617 1095M1553 1117L1506 1129M1553 1117L1597 1179M1553 1117L1653 1176M1617 1095L1597 1179M1617 1095L1653 1176M1699 1064L1777 1090M1777 1090L1830 1168M1893 1061L1934 1115M1893 1061L1872 1145M1934 1115L2020 1092M1934 1115L1872 1145M1934 1115L1932 1197M2020 1092L2084 1050M2020 1092L2039 1147M2084 1050L2170 1104M2170 1104L2251 1054M2170 1104L2145 1140M2170 1104L2165 1185M2170 1104L2171 1204M2251 1054L2267 1151M2380 1079L2470 1085M2380 1079L2337 1161M2380 1079L2428 1121M2470 1085L2549 1068M2470 1085L2428 1121M2549 1068L2540 1182M54 1189L117 1153M54 1189L-20 1182M54 1189L67 1241M54 1189L-3 1238M2614 1189L2540 1182M2614 1189L2557 1238M220 1122L269 1137M220 1122L208 1248M269 1137L329 1156M269 1137L280 1239M329 1156L280 1239M455 1162L427 1263M455 1162L502 1204M557 1192L601 1165M557 1192L650 1178M557 1192L502 1204M557 1192L621 1232M601 1165L650 1178M601 1165L502 1204M601 1165L621 1232M650 1178L621 1232M650 1178L681 1278M781 1179L854 1127M781 1179L788 1250M781 1179L835 1221M854 1127L933 1170M854 1127L835 1221M933 1170L1002 1167M933 1170L835 1221M933 1170L939 1270M1002 1167L1083 1130M1083 1130L1162 1137M1162 1137L1200 1190M1200 1190L1284 1167M1200 1190L1152 1248M1200 1190L1266 1207M1284 1167L1372 1142M1284 1167L1266 1207M1506 1129L1597 1179M1597 1179L1653 1176M1597 1179L1623 1253M1653 1176L1754 1193M1653 1176L1623 1253M1754 1193L1830 1168M1754 1193L1718 1279M1754 1193L1801 1303M1830 1168L1872 1145M1830 1168L1839 1270M1830 1168L1902 1233M1872 1145L1932 1197M1872 1145L1902 1233M1932 1197L1902 1233M1932 1197L1922 1236M1932 1197L2009 1250M2039 1147L2145 1140M2039 1147L2009 1250M2145 1140L2165 1185M2145 1140L2171 1204M2165 1185L2101 1257M2165 1185L2171 1204M2267 1151L2337 1161M2267 1151L2282 1205M2337 1161L2428 1121M2337 1161L2282 1205M2540 1182L2627 1241M2540 1182L2557 1238M-20 1182L67 1241M67 1241L99 1259M67 1241L-3 1238M67 1241L56 1308M2627 1241L2557 1238M99 1259L208 1248M99 1259L56 1308M99 1259L123 1342M208 1248L280 1239M208 1248L204 1317M280 1239L204 1317M280 1239L316 1330M395 1256L427 1263M395 1256L316 1330M395 1256L455 1334M427 1263L502 1204M427 1263L455 1334M427 1263L503 1327M621 1232L681 1278M621 1232L570 1303M681 1278L788 1250M681 1278L670 1335M681 1278L643 1391M788 1250L835 1221M788 1250L793 1337M788 1250L839 1346M835 1221L793 1337M939 1270L945 1303M939 1270L950 1361M1039 1264L1076 1278M1039 1264L945 1303M1039 1264L1037 1290M1039 1264L1050 1336M1039 1264L1134 1288M1076 1278L1152 1248M1076 1278L1037 1290M1076 1278L1050 1336M1076 1278L1134 1288M1152 1248L1266 1207M1152 1248L1134 1288M1152 1248L1212 1337M1266 1207L1346 1261M1346 1261L1388 1255M1346 1261L1462 1276M1346 1261L1333 1327M1346 1261L1366 1344M1388 1255L1462 1276M1388 1255L1333 1327M1388 1255L1366 1344M1462 1276L1541 1272M1462 1276L1477 1335M1541 1272L1623 1253M1541 1272L1477 1335M1541 1272L1547 1354M1541 1272L1643 1294M1623 1253L1718 1279M1623 1253L1643 1294M1718 1279L1643 1294M1718 1279L1734 1355M1718 1279L1801 1303M1839 1270L1902 1233M1839 1270L1922 1236M1839 1270L1801 1303M1902 1233L1922 1236M1922 1236L2009 1250M1922 1236L1916 1333M2009 1250L2101 1257M2009 1250L2006 1328M2101 1257L2171 1204M2101 1257L2107 1323M2171 1204L2282 1205M2282 1205L2379 1276M2282 1205L2265 1323M2379 1276L2446 1279M2379 1276L2265 1323M2379 1276L2374 1282M2379 1276L2416 1309M2446 1279L2374 1282M2446 1279L2416 1309M2446 1279L2473 1367M2557 1238L2616 1308M2557 1238L2558 1348M-3 1238L56 1308M56 1308L123 1342M56 1308L-2 1348M2616 1308L2558 1348M123 1342L204 1317M123 1342L90 1431M123 1342L211 1389M204 1317L211 1389M316 1330L378 1354M316 1330L302 1392M316 1330L322 1393M378 1354L455 1334M378 1354L302 1392M378 1354L322 1393M455 1334L503 1327M455 1334L456 1394M503 1327L570 1303M503 1327L456 1394M503 1327L554 1375M570 1303L670 1335M570 1303L554 1375M570 1303L580 1389M670 1335L580 1389M670 1335L643 1391M793 1337L839 1346M793 1337L799 1421M793 1337L821 1425M839 1346L799 1421M839 1346L821 1425M945 1303L1037 1290M945 1303L950 1361M1037 1290L1050 1336M1050 1336L1134 1288M1050 1336L950 1361M1134 1288L1212 1337M1212 1337L1178 1427M1212 1337L1271 1403M1212 1337L1288 1379M1333 1327L1366 1344M1333 1327L1288 1379M1366 1344L1288 1379M1366 1344L1402 1400M1477 1335L1547 1354M1477 1335L1402 1400M1477 1335L1495 1414M1547 1354L1495 1414M1547 1354L1599 1379M1734 1355L1801 1303M1734 1355L1693 1395M1734 1355L1776 1366M1801 1303L1776 1366M1916 1333L1930 1357M1916 1333L2006 1328M1916 1333L1911 1390M1916 1333L1955 1400M1930 1357L2006 1328M1930 1357L1911 1390M1930 1357L1955 1400M2006 1328L2107 1323M2006 1328L1955 1400M2107 1323L2231 1328M2107 1323L2073 1440M2107 1323L2115 1393M2231 1328L2265 1323M2231 1328L2237 1386M2231 1328L2241 1415M2265 1323L2237 1386M2265 1323L2241 1415M2374 1282L2416 1309M2416 1309L2378 1429M2416 1309L2473 1367M2558 1348L2568 1401M2558 1348L2473 1367M2558 1348L2544 1432M-2 1348L8 1401M8 1401L90 1431M8 1401L-87 1367M8 1401L-16 1432M2568 1401L2473 1367M2568 1401L2544 1432M211 1389L302 1392M302 1392L322 1393M554 1375L580 1389M554 1375L643 1391M580 1389L643 1391M799 1421L821 1425M950 1361L985 1420M985 1420L1098 1426M1098 1426L1178 1427M1178 1427L1271 1403M1271 1403L1288 1379M1402 1400L1495 1414M1599 1379L1620 1410M1620 1410L1693 1395M1693 1395L1776 1366M1911 1390L1955 1400M2073 1440L2115 1393M2237 1386L2241 1415M2473 1367L2544 1432"/></svg>