<svg xmlns="http://www.w3.org/2000/svg" width="2560" height="1440" fill="#fff"><circle cx="20" cy="48" r="4"/><circle cx="145" cy="73" r="4"/><circle cx="181" cy="4" r="5"/><circle cx="181" cy="1444" r="5"/><circle cx="298" cy="40" r="4"/><circle cx="340" cy="63" r="4"/><circle cx="475" cy="31" r="4"/><circle cx="525" cy="13" r="5"/><circle cx="627" cy="76" r="5"/><circle cx="692" cy="48" r="5"/><circle cx="752" cy="16" r="4"/><circle cx="874" cy="17" r="4"/><circle cx="945" cy="21" r="5"/><circle cx="966" cy="9" r="6"/><circle cx="1118" cy="34" r="5"/><circle cx="1156" cy="77" r="5"/><circle cx="1207" cy="60" r="4"/><circle cx="1349" cy="14" r="5"/><circle cx="1409" cy="72" r="4"/><circle cx="1504" cy="77" r="4"/><circle cx="1521" cy="62" r="6"/><circle cx="1618" cy="10" r="6"/><circle cx="1730" cy="57" r="4"/><circle cx="1776" cy="79" r="5"/><circle cx="1899" cy="53" r="5"/><circle cx="1932" cy="6" r="6"/><circle cx="2036" cy="68" r="4"/><circle cx="2154" cy="12" r="6"/><circle cx="2202" cy="75" r="5"/><circle cx="2279" cy="40" r="4"/><circle cx="2381" cy="23" r="6"/><circle cx="2433" cy="76" r="4"/><circle cx="2530" cy="67" r="5"/><circle cx="46" cy="158" r="4"/><circle cx="151" cy="98" r="5"/><circle cx="222" cy="89" r="6"/><circle cx="290" cy="158" r="5"/><circle cx="374" cy="86" r="4"/><circle cx="468" cy="118" r="5"/><circle cx="510" cy="117" r="5"/><circle cx="590" cy="105" r="4"/><circle cx="697" cy="138" r="4"/><circle cx="787" cy="141" r="5"/><circle cx="842" cy="129" r="5"/><circle cx="926" cy="88" r="5"/><circle cx="1014" cy="84" r="4"/><circle cx="1043" cy="118" r="6"/><circle cx="1156" cy="157" r="6"/><circle cx="1238" cy="111" r="4"/><circle cx="1316" cy="157" r="5"/><circle cx="1421" cy="123" r="6"/><circle cx="1453" cy="91" r="5"/><circle cx="1593" cy="98" r="5"/><circle cx="1650" cy="123" r="5"/><circle cx="1756" cy="143" r="4"/><circle cx="1777" cy="109" r="5"/><circle cx="1871" cy="115" r="5"/><circle cx="1967" cy="144" r="5"/><circle cx="2050" cy="126" r="6"/><circle cx="2128" cy="140" r="6"/><circle cx="2215" cy="113" r="4"/><circle cx="2260" cy="159" r="6"/><circle cx="2334" cy="112" r="6"/><circle cx="2469" cy="132" r="4"/><circle cx="2556" cy="116" r="5"/><circle cx="-4" cy="116" r="5"/><circle cx="11" cy="205" r="4"/><circle cx="95" cy="165" r="4"/><circle cx="193" cy="210" r="5"/><circle cx="253" cy="204" r="6"/><circle cx="338" cy="173" r="4"/><circle cx="438" cy="183" r="5"/><circle cx="519" cy="206" r="6"/><circle cx="632" cy="233" r="5"/><circle cx="687" cy="171" r="5"/><circle cx="726" cy="163" r="6"/><circle cx="816" cy="202" r="6"/><circle cx="886" cy="208" r="5"/><circle cx="974" cy="204" r="4"/><circle cx="1105" cy="198" r="5"/><circle cx="1190" cy="167" r="4"/><circle cx="1244" cy="168" r="6"/><circle cx="1338" cy="186" r="6"/><circle cx="1360" cy="185" r="5"/><circle cx="1466" cy="185" r="5"/><circle cx="1582" cy="210" r="5"/><circle cx="1662" cy="207" r="4"/><circle cx="1718" cy="184" r="6"/><circle cx="1786" cy="223" r="5"/><circle cx="1892" cy="189" r="5"/><circle cx="1959" cy="224" r="5"/><circle cx="2007" cy="217" r="4"/><circle cx="2160" cy="189" r="5"/><circle cx="2232" cy="166" r="5"/><circle cx="2292" cy="232" r="5"/><circle cx="2398" cy="204" r="4"/><circle cx="2419" cy="177" r="5"/><circle cx="2540" cy="195" r="6"/><circle cx="14" cy="265" r="5"/><circle cx="81" cy="268" r="5"/><circle cx="189" cy="262" r="4"/><circle cx="311" cy="266" r="5"/><circle cx="337" cy="261" r="5"/><circle cx="451" cy="264" r="5"/><circle cx="497" cy="299" r="5"/><circle cx="614" cy="284" r="4"/><circle cx="678" cy="309" r="6"/><circle cx="787" cy="257" r="6"/><circle cx="821" cy="243" r="6"/><circle cx="938" cy="304" r="5"/><circle cx="1014" cy="269" r="6"/><circle cx="1049" cy="241" r="4"/><circle cx="1149" cy="299" r="6"/><circle cx="1237" cy="250" r="5"/><circle cx="1358" cy="314" r="6"/><circle cx="1438" cy="284" r="4"/><circle cx="1463" cy="263" r="5"/><circle cx="1535" cy="291" r="5"/><circle cx="1669" cy="284" r="4"/><circle cx="1698" cy="289" r="5"/><circle cx="1827" cy="253" r="5"/><circle cx="1884" cy="245" r="6"/><circle cx="1932" cy="293" r="5"/><circle cx="2002" cy="283" r="4"/><circle cx="2082" cy="280" r="4"/><circle cx="2195" cy="265" r="5"/><circle cx="2270" cy="314" r="4"/><circle cx="2382" cy="298" r="5"/><circle cx="2411" cy="250" r="5"/><circle cx="2534" cy="281" r="5"/><circle cx="42" cy="400" r="5"/><circle cx="150" cy="332" r="5"/><circle cx="237" cy="365" r="5"/><circle cx="305" cy="339" r="5"/><circle cx="325" cy="341" r="5"/><circle cx="426" cy="372" r="6"/><circle cx="489" cy="322" r="4"/><circle cx="615" cy="384" r="5"/><circle cx="657" cy="339" r="6"/><circle cx="770" cy="387" r="4"/><circle cx="804" cy="362" r="5"/><circle cx="909" cy="351" r="4"/><circle cx="1037" cy="378" r="6"/><circle cx="1064" cy="356" r="6"/><circle cx="1145" cy="353" r="4"/><circle cx="1250" cy="324" r="6"/><circle cx="1327" cy="345" r="5"/><circle cx="1361" cy="391" r="6"/><circle cx="1468" cy="393" r="5"/><circle cx="1567" cy="326" r="5"/><circle cx="1637" cy="390" r="6"/><circle cx="1731" cy="342" r="5"/><circle cx="1805" cy="326" r="5"/><circle cx="1871" cy="379" r="4"/><circle cx="1986" cy="380" r="4"/><circle cx="2071" cy="344" r="6"/><circle cx="2104" cy="353" r="6"/><circle cx="2166" cy="343" r="6"/><circle cx="2314" cy="349" r="5"/><circle cx="2384" cy="383" r="6"/><circle cx="2469" cy="378" r="5"/><circle cx="2481" cy="396" r="5"/><circle cx="36" cy="467" r="6"/><circle cx="144" cy="419" r="5"/><circle cx="229" cy="453" r="5"/><circle cx="268" cy="462" r="5"/><circle cx="354" cy="431" r="6"/><circle cx="411" cy="480" r="4"/><circle cx="503" cy="425" r="6"/><circle cx="584" cy="404" r="5"/><circle cx="713" cy="453" r="4"/><circle cx="743" cy="422" r="5"/><circle cx="872" cy="422" r="5"/><circle cx="904" cy="445" r="4"/><circle cx="1011" cy="413" r="5"/><circle cx="1120" cy="448" r="4"/><circle cx="1157" cy="433" r="4"/><circle cx="1258" cy="432" r="5"/><circle cx="1354" cy="452" r="6"/><circle cx="1368" cy="433" r="6"/><circle cx="1455" cy="445" r="5"/><circle cx="1588" cy="472" r="4"/><circle cx="1653" cy="415" r="4"/><circle cx="1742" cy="401" r="5"/><circle cx="1767" cy="461" r="5"/><circle cx="1888" cy="477" r="4"/><circle cx="1992" cy="470" r="6"/><circle cx="2006" cy="467" r="4"/><circle cx="2102" cy="473" r="5"/><circle cx="2182" cy="471" r="5"/><circle cx="2264" cy="473" r="5"/><circle cx="2395" cy="422" r="5"/><circle cx="2422" cy="439" r="5"/><circle cx="2556" cy="443" r="5"/><circle cx="-4" cy="443" r="5"/><circle cx="74" cy="520" r="5"/><circle cx="124" cy="554" r="5"/><circle cx="230" cy="550" r="4"/><circle cx="304" cy="557" r="6"/><circle cx="351" cy="501" r="6"/><circle cx="408" cy="528" r="6"/><circle cx="537" cy="505" r="6"/><circle cx="616" cy="539" r="6"/><circle cx="678" cy="552" r="4"/><circle cx="779" cy="529" r="5"/><circle cx="874" cy="524" r="6"/><circle cx="907" cy="498" r="6"/><circle cx="986" cy="483" r="4"/><circle cx="1111" cy="544" r="4"/><circle cx="1168" cy="516" r="5"/><circle cx="1224" cy="534" r="5"/><circle cx="1352" cy="532" r="5"/><circle cx="1432" cy="494" r="5"/><circle cx="1517" cy="515" r="5"/><circle cx="1555" cy="521" r="5"/><circle cx="1607" cy="536" r="5"/><circle cx="1692" cy="523" r="4"/><circle cx="1829" cy="519" r="5"/><circle cx="1849" cy="544" r="6"/><circle cx="1967" cy="523" r="4"/><circle cx="2003" cy="528" r="6"/><circle cx="2138" cy="514" r="6"/><circle cx="2217" cy="501" r="5"/><circle cx="2275" cy="528" r="5"/><circle cx="2371" cy="510" r="5"/><circle cx="2474" cy="542" r="4"/><circle cx="2487" cy="487" r="6"/><circle cx="78" cy="623" r="4"/><circle cx="152" cy="586" r="6"/><circle cx="202" cy="572" r="4"/><circle cx="264" cy="572" r="4"/><circle cx="381" cy="638" r="5"/><circle cx="446" cy="568" r="5"/><circle cx="482" cy="608" r="4"/><circle cx="589" cy="601" r="5"/><circle cx="649" cy="628" r="5"/><circle cx="757" cy="598" r="6"/><circle cx="823" cy="612" r="5"/><circle cx="921" cy="630" r="5"/><circle cx="986" cy="612" r="4"/><circle cx="1088" cy="614" r="4"/><circle cx="1153" cy="586" r="5"/><circle cx="1259" cy="581" r="6"/><circle cx="1343" cy="628" r="5"/><circle cx="1426" cy="590" r="5"/><circle cx="1446" cy="590" r="5"/><circle cx="1590" cy="573" r="6"/><circle cx="1635" cy="606" r="6"/><circle cx="1715" cy="614" r="4"/><circle cx="1809" cy="611" r="4"/><circle cx="1870" cy="583" r="5"/><circle cx="1994" cy="639" r="6"/><circle cx="2049" cy="574" r="6"/><circle cx="2150" cy="638" r="5"/><circle cx="2162" cy="628" r="5"/><circle cx="2310" cy="594" r="6"/><circle cx="2354" cy="597" r="6"/><circle cx="2433" cy="602" r="4"/><circle cx="2519" cy="613" r="5"/><circle cx="19" cy="650" r="4"/><circle cx="143" cy="657" r="6"/><circle cx="226" cy="701" r="5"/><circle cx="246" cy="650" r="5"/><circle cx="372" cy="675" r="4"/><circle cx="412" cy="664" r="5"/><circle cx="512" cy="684" r="4"/><circle cx="618" cy="650" r="5"/><circle cx="672" cy="689" r="5"/><circle cx="732" cy="704" r="6"/><circle cx="803" cy="716" r="5"/><circle cx="886" cy="672" r="4"/><circle cx="1005" cy="692" r="4"/><circle cx="1059" cy="671" r="6"/><circle cx="1193" cy="661" r="5"/><circle cx="1238" cy="708" r="5"/><circle cx="1352" cy="693" r="5"/><circle cx="1394" cy="712" r="5"/><circle cx="1501" cy="695" r="6"/><circle cx="1597" cy="690" r="4"/><circle cx="1645" cy="670" r="4"/><circle cx="1685" cy="671" r="5"/><circle cx="1764" cy="693" r="4"/><circle cx="1851" cy="699" r="6"/><circle cx="1957" cy="664" r="5"/><circle cx="2053" cy="645" r="6"/><circle cx="2151" cy="671" r="6"/><circle cx="2201" cy="679" r="4"/><circle cx="2268" cy="685" r="5"/><circle cx="2365" cy="658" r="6"/><circle cx="2436" cy="684" r="5"/><circle cx="2534" cy="666" r="6"/><circle cx="58" cy="721" r="5"/><circle cx="121" cy="752" r="5"/><circle cx="203" cy="751" r="4"/><circle cx="252" cy="752" r="5"/><circle cx="372" cy="788" r="4"/><circle cx="471" cy="753" r="5"/><circle cx="495" cy="746" r="6"/><circle cx="633" cy="724" r="5"/><circle cx="678" cy="759" r="4"/><circle cx="723" cy="723" r="5"/><circle cx="876" cy="751" r="5"/><circle cx="903" cy="761" r="5"/><circle cx="962" cy="779" r="6"/><circle cx="1045" cy="784" r="4"/><circle cx="1132" cy="723" r="6"/><circle cx="1247" cy="783" r="5"/><circle cx="1294" cy="748" r="6"/><circle cx="1405" cy="727" r="6"/><circle cx="1494" cy="757" r="5"/><circle cx="1584" cy="735" r="4"/><circle cx="1643" cy="782" r="5"/><circle cx="1739" cy="788" r="6"/><circle cx="1801" cy="800" r="4"/><circle cx="1892" cy="753" r="4"/><circle cx="1952" cy="729" r="5"/><circle cx="2053" cy="746" r="6"/><circle cx="2151" cy="724" r="5"/><circle cx="2215" cy="773" r="5"/><circle cx="2315" cy="740" r="6"/><circle cx="2353" cy="796" r="5"/><circle cx="2458" cy="750" r="5"/><circle cx="2511" cy="796" r="6"/><circle cx="39" cy="813" r="4"/><circle cx="116" cy="880" r="5"/><circle cx="178" cy="861" r="6"/><circle cx="280" cy="831" r="5"/><circle cx="385" cy="838" r="5"/><circle cx="400" cy="873" r="5"/><circle cx="558" cy="863" r="5"/><circle cx="628" cy="869" r="6"/><circle cx="701" cy="819" r="5"/><circle cx="722" cy="867" r="5"/><circle cx="845" cy="801" r="6"/><circle cx="952" cy="802" r="5"/><circle cx="981" cy="875" r="5"/><circle cx="1110" cy="847" r="4"/><circle cx="1181" cy="869" r="4"/><circle cx="1234" cy="854" r="6"/><circle cx="1353" cy="846" r="5"/><circle cx="1435" cy="843" r="6"/><circle cx="1516" cy="861" r="4"/><circle cx="1598" cy="820" r="6"/><circle cx="1678" cy="815" r="4"/><circle cx="1696" cy="866" r="5"/><circle cx="1829" cy="818" r="5"/><circle cx="1858" cy="857" r="5"/><circle cx="1953" cy="871" r="6"/><circle cx="2024" cy="811" r="5"/><circle cx="2142" cy="823" r="5"/><circle cx="2213" cy="818" r="5"/><circle cx="2265" cy="815" r="5"/><circle cx="2330" cy="871" r="6"/><circle cx="2403" cy="828" r="4"/><circle cx="2513" cy="831" r="5"/><circle cx="43" cy="894" r="5"/><circle cx="108" cy="892" r="6"/><circle cx="216" cy="891" r="4"/><circle cx="302" cy="897" r="5"/><circle cx="354" cy="944" r="6"/><circle cx="465" cy="940" r="4"/><circle cx="546" cy="921" r="5"/><circle cx="625" cy="920" r="5"/><circle cx="668" cy="942" r="4"/><circle cx="762" cy="913" r="5"/><circle cx="801" cy="914" r="4"/><circle cx="895" cy="929" r="4"/><circle cx="1021" cy="898" r="6"/><circle cx="1067" cy="889" r="6"/><circle cx="1122" cy="911" r="5"/><circle cx="1248" cy="949" r="5"/><circle cx="1356" cy="946" r="5"/><circle cx="1380" cy="897" r="6"/><circle cx="1467" cy="960" r="5"/><circle cx="1576" cy="943" r="4"/><circle cx="1627" cy="957" r="5"/><circle cx="1702" cy="890" r="5"/><circle cx="1780" cy="959" r="5"/><circle cx="1891" cy="907" r="5"/><circle cx="1957" cy="906" r="6"/><circle cx="2004" cy="950" r="6"/><circle cx="2119" cy="926" r="5"/><circle cx="2210" cy="921" r="5"/><circle cx="2252" cy="894" r="4"/><circle cx="2333" cy="909" r="4"/><circle cx="2474" cy="893" r="5"/><circle cx="2535" cy="951" r="5"/><circle cx="44" cy="1002" r="4"/><circle cx="114" cy="973" r="6"/><circle cx="197" cy="984" r="5"/><circle cx="252" cy="980" r="5"/><circle cx="393" cy="972" r="5"/><circle cx="473" cy="975" r="5"/><circle cx="560" cy="1025" r="5"/><circle cx="581" cy="1015" r="5"/><circle cx="705" cy="1014" r="5"/><circle cx="754" cy="1037" r="6"/><circle cx="841" cy="1029" r="6"/><circle cx="910" cy="1003" r="6"/><circle cx="1005" cy="1005" r="4"/><circle cx="1064" cy="992" r="4"/><circle cx="1182" cy="971" r="5"/><circle cx="1268" cy="983" r="4"/><circle cx="1300" cy="1001" r="5"/><circle cx="1425" cy="1001" r="5"/><circle cx="1462" cy="1013" r="6"/><circle cx="1573" cy="1004" r="5"/><circle cx="1673" cy="990" r="5"/><circle cx="1726" cy="977" r="6"/><circle cx="1817" cy="1012" r="5"/><circle cx="1844" cy="972" r="5"/><circle cx="1926" cy="994" r="5"/><circle cx="2063" cy="1038" r="6"/><circle cx="2114" cy="1037" r="4"/><circle cx="2196" cy="960" r="5"/><circle cx="2272" cy="961" r="5"/><circle cx="2352" cy="975" r="6"/><circle cx="2443" cy="992" r="4"/><circle cx="2521" cy="962" r="4"/><circle cx="73" cy="1107" r="5"/><circle cx="132" cy="1098" r="4"/><circle cx="210" cy="1076" r="6"/><circle cx="309" cy="1066" r="5"/><circle cx="337" cy="1083" r="5"/><circle cx="431" cy="1102" r="6"/><circle cx="538" cy="1048" r="5"/><circle cx="621" cy="1057" r="4"/><circle cx="674" cy="1057" r="4"/><circle cx="765" cy="1043" r="5"/><circle cx="815" cy="1096" r="6"/><circle cx="911" cy="1102" r="4"/><circle cx="1039" cy="1087" r="5"/><circle cx="1073" cy="1093" r="4"/><circle cx="1194" cy="1074" r="6"/><circle cx="1275" cy="1057" r="5"/><circle cx="1321" cy="1092" r="5"/><circle cx="1422" cy="1105" r="4"/><circle cx="1471" cy="1066" r="5"/><circle cx="1575" cy="1054" r="5"/><circle cx="1660" cy="1054" r="6"/><circle cx="1724" cy="1072" r="5"/><circle cx="1819" cy="1060" r="5"/><circle cx="1887" cy="1050" r="6"/><circle cx="1951" cy="1074" r="5"/><circle cx="2035" cy="1105" r="6"/><circle cx="2098" cy="1082" r="5"/><circle cx="2187" cy="1066" r="5"/><circle cx="2245" cy="1072" r="5"/><circle cx="2392" cy="1096" r="6"/><circle cx="2412" cy="1046" r="4"/><circle cx="2542" cy="1115" r="4"/><circle cx="58" cy="1174" r="4"/><circle cx="158" cy="1193" r="5"/><circle cx="180" cy="1163" r="5"/><circle cx="281" cy="1137" r="6"/><circle cx="394" cy="1160" r="5"/><circle cx="461" cy="1185" r="5"/><circle cx="545" cy="1125" r="4"/><circle cx="625" cy="1158" r="5"/><circle cx="671" cy="1173" r="4"/><circle cx="738" cy="1147" r="4"/><circle cx="880" cy="1192" r="6"/><circle cx="907" cy="1198" r="5"/><circle cx="964" cy="1127" r="5"/><circle cx="1098" cy="1194" r="5"/><circle cx="1160" cy="1199" r="4"/><circle cx="1228" cy="1142" r="5"/><circle cx="1289" cy="1195" r="4"/><circle cx="1380" cy="1121" r="5"/><circle cx="1516" cy="1135" r="4"/><circle cx="1559" cy="1125" r="5"/><circle cx="1608" cy="1129" r="4"/><circle cx="1712" cy="1136" r="5"/><circle cx="1833" cy="1189" r="4"/><circle cx="1866" cy="1174" r="5"/><circle cx="1978" cy="1132" r="5"/><circle cx="2078" cy="1178" r="5"/><circle cx="2096" cy="1137" r="5"/><circle cx="2238" cy="1149" r="5"/><circle cx="2310" cy="1127" r="6"/><circle cx="2324" cy="1193" r="5"/><circle cx="2466" cy="1155" r="6"/><circle cx="2532" cy="1149" r="4"/><circle cx="80" cy="1242" r="5"/><circle cx="144" cy="1226" r="5"/><circle cx="180" cy="1221" r="6"/><circle cx="264" cy="1215" r="5"/><circle cx="359" cy="1267" r="6"/><circle cx="473" cy="1249" r="5"/><circle cx="545" cy="1217" r="6"/><circle cx="632" cy="1217" r="6"/><circle cx="663" cy="1273" r="4"/><circle cx="723" cy="1237" r="4"/><circle cx="878" cy="1236" r="6"/><circle cx="893" cy="1257" r="5"/><circle cx="978" cy="1278" r="4"/><circle cx="1046" cy="1233" r="4"/><circle cx="1137" cy="1212" r="4"/><circle cx="1231" cy="1272" r="6"/><circle cx="1308" cy="1243" r="4"/><circle cx="1410" cy="1247" r="5"/><circle cx="1482" cy="1271" r="5"/><circle cx="1524" cy="1213" r="4"/><circle cx="1653" cy="1202" r="5"/><circle cx="1737" cy="1268" r="5"/><circle cx="1809" cy="1255" r="5"/><circle cx="1854" cy="1274" r="6"/><circle cx="1926" cy="1249" r="4"/><circle cx="2031" cy="1252" r="5"/><circle cx="2084" cy="1227" r="4"/><circle cx="2174" cy="1236" r="4"/><circle cx="2248" cy="1227" r="5"/><circle cx="2321" cy="1217" r="6"/><circle cx="2456" cy="1274" r="5"/><circle cx="2544" cy="1217" r="5"/><circle cx="64" cy="1351" r="6"/><circle cx="113" cy="1286" r="4"/><circle cx="196" cy="1327" r="6"/><circle cx="250" cy="1353" r="5"/><circle cx="381" cy="1341" r="5"/><circle cx="402" cy="1298" r="4"/><circle cx="496" cy="1359" r="4"/><circle cx="616" cy="1342" r="5"/><circle cx="647" cy="1296" r="5"/><circle cx="774" cy="1314" r="5"/><circle cx="862" cy="1339" r="5"/><circle cx="956" cy="1284" r="4"/><circle cx="1031" cy="1315" r="5"/><circle cx="1076" cy="1321" r="4"/><circle cx="1153" cy="1288" r="5"/><circle cx="1276" cy="1301" r="6"/><circle cx="1287" cy="1287" r="6"/><circle cx="1379" cy="1285" r="5"/><circle cx="1506" cy="1294" r="6"/><circle cx="1554" cy="1283" r="5"/><circle cx="1616" cy="1296" r="6"/><circle cx="1756" cy="1351" r="5"/><circle cx="1773" cy="1321" r="4"/><circle cx="1915" cy="1349" r="5"/><circle cx="1983" cy="1327" r="4"/><circle cx="2031" cy="1359" r="5"/><circle cx="2113" cy="1358" r="6"/><circle cx="2216" cy="1300" r="4"/><circle cx="2285" cy="1304" r="4"/><circle cx="2325" cy="1331" r="4"/><circle cx="2472" cy="1282" r="4"/><circle cx="2493" cy="1295" r="5"/><circle cx="79" cy="1361" r="4"/><circle cx="133" cy="1382" r="6"/><circle cx="160" cy="1417" r="5"/><circle cx="268" cy="1417" r="5"/><circle cx="336" cy="1390" r="5"/><circle cx="479" cy="1381" r="4"/><circle cx="541" cy="1415" r="6"/><circle cx="592" cy="1431" r="4"/><circle cx="655" cy="1365" r="5"/><circle cx="774" cy="1422" r="6"/><circle cx="871" cy="1430" r="6"/><circle cx="923" cy="1430" r="4"/><circle cx="1030" cy="1377" r="6"/><circle cx="1085" cy="1427" r="5"/><circle cx="1193" cy="1360" r="5"/><circle cx="1215" cy="1367" r="5"/><circle cx="1324" cy="1374" r="5"/><circle cx="1374" cy="1403" r="5"/><circle cx="1511" cy="1440" r="6"/><circle cx="1511" cy="-0" r="6"/><circle cx="1555" cy="1364" r="5"/><circle cx="1609" cy="1413" r="4"/><circle cx="1728" cy="1439" r="4"/><circle cx="1728" cy="-1" r="4"/><circle cx="1830" cy="1393" r="4"/><circle cx="1915" cy="1369" r="4"/><circle cx="1991" cy="1408" r="5"/><circle cx="2019" cy="1419" r="4"/><circle cx="2086" cy="1413" r="5"/><circle cx="2179" cy="1416" r="6"/><circle cx="2320" cy="1419" r="5"/><circle cx="2349" cy="1393" r="6"/><circle cx="2437" cy="1372" r="5"/><circle cx="2524" cy="1387" r="4"/><path stroke="#fff" d="M20 48L-30 67M20 48L-4 116M2580 48L2530 67M2580 48L2556 116M145 73L181 4M145 73L151 98M145 73L222 89M145 73L160 -23M145 1513L160 1417M181 4L222 89M181 4L133 -58M181 4L160 -23M181 4L268 -23M181 1444L133 1382M181 1444L160 1417M181 1444L268 1417M298 40L340 63M298 40L222 89M298 40L374 86M298 40L268 -23M298 40L336 -50M298 1480L268 1417M298 1480L336 1390M340 63L374 86M340 63L336 -50M340 1503L336 1390M475 31L525 13M475 31L468 118M475 31L510 117M475 31L479 -59M475 31L541 -25M475 1471L479 1381M475 1471L541 1415M525 13L496 -81M525 13L479 -59M525 13L541 -25M525 13L592 -9M525 1453L496 1359M525 1453L479 1381M525 1453L541 1415M525 1453L592 1431M627 76L692 48M627 76L590 105M627 76L697 138M627 76L687 171M627 76L592 -9M627 1516L592 1431M692 48L752 16M692 48L697 138M692 48L774 -18M692 1488L774 1422M752 16L774 -18M752 1456L774 1422M874 17L945 21M874 17L926 88M874 17L871 -10M874 17L923 -10M874 1457L871 1430M874 1457L923 1430M945 21L966 9M945 21L926 88M945 21L871 -10M945 21L923 -10M945 1461L871 1430M945 1461L923 1430M966 9L926 88M966 9L923 -10M966 9L1030 -63M966 1449L923 1430M966 1449L1030 1377M1118 34L1156 77M1118 34L1207 60M1118 34L1043 118M1118 34L1085 -13M1118 1474L1085 1427M1156 77L1207 60M1156 77L1156 157M1156 77L1238 111M1207 60L1238 111M1349 14L1409 72M1349 14L1324 -66M1349 14L1374 -37M1349 1454L1324 1374M1349 1454L1374 1403M1409 72L1421 123M1409 72L1453 91M1504 77L1521 62M1504 77L1453 91M1504 77L1593 98M1504 77L1511 -0M1504 1517L1511 1440M1521 62L1618 10M1521 62L1453 91M1521 62L1593 98M1521 62L1511 -0M1521 1502L1511 1440M1618 10L1593 98M1618 10L1511 -0M1618 10L1609 -27M1618 1450L1511 1440M1618 1450L1609 1413M1730 57L1776 79M1730 57L1650 123M1730 57L1756 143M1730 57L1777 109M1730 57L1728 -1M1730 1497L1728 1439M1776 79L1756 143M1776 79L1777 109M1776 79L1871 115M1776 79L1728 -1M1776 1519L1728 1439M1899 53L1932 6M1899 53L1871 115M1932 6L1915 -91M1932 6L1915 -71M1932 6L1991 -32M1932 6L2019 -21M1932 1446L1915 1349M1932 1446L1915 1369M1932 1446L1991 1408M1932 1446L2019 1419M2036 68L2050 126M2036 68L2019 -21M2036 1508L2019 1419M2154 12L2202 75M2154 12L2113 -82M2154 12L2086 -27M2154 12L2179 -24M2154 1452L2113 1358M2154 1452L2086 1413M2154 1452L2179 1416M2202 75L2279 40M2202 75L2128 140M2202 75L2215 113M2202 75L2179 -24M2202 1515L2179 1416M2279 40L2334 112M2279 40L2320 -21M2279 1480L2320 1419M2381 23L2433 76M2381 23L2334 112M2381 23L2320 -21M2381 23L2349 -47M2381 23L2437 -68M2381 1463L2320 1419M2381 1463L2349 1393M2381 1463L2437 1372M2433 76L2530 67M2433 76L2334 112M2433 76L2469 132M2530 67L2469 132M2530 67L2556 116M46 158L-4 116M46 158L11 205M46 158L95 165M46 158L-20 195M46 158L14 265M2606 158L2556 116M2606 158L2540 195M151 98L222 89M151 98L95 165M151 98L193 210M222 89L290 158M290 158L193 210M290 158L253 204M290 158L338 173M290 158L311 266M374 86L468 118M468 118L510 117M468 118L438 183M468 118L519 206M510 117L590 105M510 117L438 183M510 117L519 206M697 138L787 141M697 138L687 171M697 138L726 163M787 141L842 129M787 141L726 163M787 141L816 202M787 141L821 243M842 129L926 88M842 129L816 202M842 129L886 208M842 129L821 243M926 88L1014 84M1014 84L1043 118M1014 84L1085 -13M1014 1524L1085 1427M1043 118L974 204M1043 118L1105 198M1156 157L1238 111M1156 157L1105 198M1156 157L1190 167M1156 157L1244 168M1238 111L1190 167M1238 111L1244 168M1316 157L1244 168M1316 157L1338 186M1316 157L1360 185M1421 123L1453 91M1421 123L1338 186M1421 123L1360 185M1421 123L1466 185M1453 91L1466 185M1593 98L1650 123M1593 98L1582 210M1650 123L1582 210M1650 123L1662 207M1650 123L1718 184M1756 143L1777 109M1756 143L1718 184M1756 143L1786 223M1777 109L1871 115M1777 109L1718 184M1871 115L1967 144M1871 115L1892 189M1967 144L2050 126M1967 144L1892 189M1967 144L1959 224M1967 144L2007 217M2050 126L2128 140M2050 126L2007 217M2128 140L2215 113M2128 140L2160 189M2128 140L2232 166M2215 113L2260 159M2215 113L2160 189M2215 113L2232 166M2260 159L2334 112M2260 159L2160 189M2260 159L2232 166M2260 159L2292 232M2334 112L2419 177M2469 132L2556 116M2469 132L2419 177M2556 116L2540 195M11 205L-20 195M11 205L14 265M11 205L81 268M11 205L-26 281M2571 205L2540 195M2571 205L2534 281M95 165L193 210M95 165L81 268M193 210L253 204M193 210L189 262M253 204L338 173M253 204L189 262M253 204L311 266M338 173L438 183M338 173L337 261M438 183L519 206M438 183L451 264M519 206L451 264M519 206L497 299M632 233L687 171M632 233L614 284M632 233L678 309M632 233L657 339M687 171L726 163M726 163L787 257M816 202L886 208M816 202L787 257M816 202L821 243M886 208L974 204M886 208L787 257M886 208L821 243M974 204L938 304M974 204L1014 269M974 204L1049 241M1105 198L1190 167M1105 198L1049 241M1105 198L1149 299M1190 167L1244 168M1190 167L1237 250M1244 168L1237 250M1338 186L1360 185M1338 186L1237 250M1360 185L1466 185M1466 185L1438 284M1466 185L1463 263M1582 210L1662 207M1582 210L1535 291M1582 210L1567 326M1662 207L1718 184M1662 207L1669 284M1662 207L1698 289M1718 184L1786 223M1786 223L1698 289M1786 223L1827 253M1786 223L1884 245M1892 189L1959 224M1892 189L1827 253M1892 189L1884 245M1959 224L2007 217M1959 224L1884 245M1959 224L1932 293M2007 217L2002 283M2160 189L2232 166M2160 189L2195 265M2232 166L2292 232M2292 232L2195 265M2292 232L2270 314M2292 232L2382 298M2398 204L2419 177M2398 204L2382 298M2398 204L2411 250M2419 177L2411 250M2540 195L2574 265M2540 195L2534 281M-20 195L14 265M14 265L81 268M14 265L-26 281M2574 265L2534 281M81 268L-26 281M81 268L150 332M2641 268L2534 281M189 262L150 332M311 266L337 261M311 266L305 339M311 266L325 341M337 261L305 339M337 261L325 341M451 264L497 299M451 264L426 372M451 264L489 322M497 299L426 372M497 299L489 322M614 284L678 309M614 284L615 384M614 284L657 339M678 309L615 384M678 309L657 339M787 257L821 243M787 257L804 362M938 304L1014 269M938 304L909 351M1014 269L1049 241M1014 269L1037 378M1014 269L1064 356M1149 299L1237 250M1149 299L1064 356M1149 299L1145 353M1149 299L1250 324M1237 250L1250 324M1358 314L1438 284M1358 314L1250 324M1358 314L1327 345M1358 314L1361 391M1438 284L1463 263M1438 284L1535 291M1463 263L1535 291M1535 291L1567 326M1669 284L1698 289M1669 284L1567 326M1669 284L1731 342M1698 289L1731 342M1827 253L1884 245M1827 253L1932 293M1827 253L1805 326M1884 245L1932 293M1932 293L2002 283M1932 293L1986 380M2002 283L2082 280M2002 283L1986 380M2002 283L2071 344M2082 280L2071 344M2082 280L2104 353M2082 280L2166 343M2195 265L2270 314M2195 265L2104 353M2195 265L2166 343M2270 314L2166 343M2270 314L2314 349M2382 298L2411 250M2382 298L2314 349M2382 298L2384 383M42 400L36 467M42 400L144 419M42 400L-4 443M2602 400L2556 443M150 332L237 365M150 332L144 419M237 365L305 339M237 365L325 341M237 365L229 453M305 339L325 341M325 341L354 431M426 372L489 322M426 372L354 431M426 372L503 425M489 322L503 425M615 384L657 339M615 384L503 425M615 384L584 404M657 339L584 404M770 387L804 362M770 387L713 453M770 387L743 422M804 362L909 351M804 362L743 422M804 362L872 422M909 351L872 422M909 351L904 445M1037 378L1064 356M1037 378L1145 353M1037 378L1011 413M1037 378L1120 448M1064 356L1145 353M1064 356L1011 413M1145 353L1157 433M1250 324L1327 345M1250 324L1258 432M1327 345L1361 391M1361 391L1468 393M1361 391L1354 452M1361 391L1368 433M1468 393L1567 326M1468 393L1455 445M1567 326L1637 390M1637 390L1731 342M1637 390L1588 472M1637 390L1653 415M1637 390L1742 401M1731 342L1805 326M1731 342L1742 401M1805 326L1871 379M1805 326L1742 401M1986 380L2071 344M1986 380L1992 470M1986 380L2006 467M2071 344L2104 353M2071 344L2166 343M2104 353L2166 343M2314 349L2384 383M2384 383L2469 378M2384 383L2395 422M2384 383L2422 439M2469 378L2481 396M2469 378L2395 422M2469 378L2422 439M2481 396L2395 422M2481 396L2422 439M2481 396L2556 443M2481 396L2487 487M36 467L144 419M36 467L-4 443M36 467L74 520M36 467L-73 487M2596 467L2556 443M2596 467L2487 487M144 419L229 453M229 453L268 462M229 453L230 550M268 462L354 431M268 462L304 557M268 462L351 501M354 431L411 480M354 431L351 501M411 480L351 501M411 480L408 528M411 480L446 568M503 425L584 404M503 425L537 505M584 404L537 505M713 453L743 422M713 453L779 529M872 422L904 445M872 422L874 524M872 422L907 498M904 445L874 524M904 445L907 498M904 445L986 483M1011 413L1120 448M1011 413L986 483M1120 448L1157 433M1120 448L1111 544M1120 448L1168 516M1157 433L1258 432M1157 433L1168 516M1258 432L1354 452M1258 432L1224 534M1354 452L1368 433M1354 452L1352 532M1354 452L1432 494M1368 433L1455 445M1368 433L1352 532M1368 433L1432 494M1455 445L1432 494M1588 472L1517 515M1588 472L1555 521M1588 472L1607 536M1588 472L1590 573M1653 415L1742 401M1742 401L1767 461M1767 461L1692 523M1767 461L1829 519M1767 461L1849 544M1888 477L1829 519M1888 477L1849 544M1888 477L1967 523M1888 477L1870 583M1992 470L2006 467M1992 470L2102 473M1992 470L1967 523M1992 470L2003 528M2006 467L2102 473M2006 467L1967 523M2006 467L2003 528M2102 473L2182 471M2102 473L2138 514M2182 471L2264 473M2182 471L2138 514M2182 471L2217 501M2264 473L2217 501M2264 473L2275 528M2395 422L2422 439M2395 422L2371 510M2422 439L2487 487M2556 443L2634 520M2556 443L2487 487M-4 443L74 520M74 520L124 554M74 520L78 623M124 554L78 623M124 554L152 586M124 554L202 572M124 554L143 657M230 550L304 557M230 550L152 586M230 550L202 572M230 550L264 572M304 557L351 501M304 557L408 528M304 557L264 572M351 501L408 528M408 528L381 638M408 528L446 568M537 505L616 539M537 505L589 601M616 539L678 552M616 539L589 601M616 539L649 628M616 539L618 650M678 552L779 529M678 552L589 601M678 552L649 628M678 552L757 598M779 529L874 524M779 529L757 598M779 529L823 612M874 524L907 498M874 524L823 612M907 498L986 483M1111 544L1168 516M1111 544L1224 534M1111 544L1088 614M1111 544L1153 586M1168 516L1224 534M1168 516L1153 586M1224 534L1153 586M1224 534L1259 581M1352 532L1432 494M1352 532L1343 628M1352 532L1426 590M1432 494L1517 515M1517 515L1555 521M1517 515L1607 536M1517 515L1590 573M1555 521L1607 536M1555 521L1590 573M1607 536L1590 573M1607 536L1635 606M1692 523L1715 614M1829 519L1849 544M1829 519L1809 611M1829 519L1870 583M1849 544L1809 611M1849 544L1870 583M1967 523L2003 528M1967 523L2049 574M2003 528L1994 639M2003 528L2049 574M2138 514L2217 501M2138 514L2049 574M2217 501L2275 528M2275 528L2371 510M2275 528L2310 594M2275 528L2354 597M2371 510L2310 594M2371 510L2354 597M2474 542L2487 487M2474 542L2433 602M2474 542L2519 613M78 623L152 586M78 623L19 650M78 623L143 657M152 586L202 572M152 586L143 657M202 572L264 572M202 572L246 650M264 572L246 650M381 638L446 568M381 638L482 608M381 638L372 675M381 638L412 664M446 568L482 608M446 568L412 664M482 608L412 664M482 608L512 684M589 601L649 628M589 601L618 650M649 628L618 650M649 628L672 689M757 598L823 612M823 612L921 630M823 612L886 672M921 630L986 612M921 630L886 672M921 630L1005 692M986 612L1088 614M986 612L1005 692M986 612L1059 671M1088 614L1153 586M1088 614L1059 671M1088 614L1132 723M1153 586L1193 661M1259 581L1343 628M1259 581L1193 661M1343 628L1426 590M1343 628L1352 693M1343 628L1394 712M1426 590L1446 590M1590 573L1635 606M1635 606L1715 614M1635 606L1645 670M1635 606L1685 671M1715 614L1645 670M1715 614L1685 671M1715 614L1764 693M1809 611L1870 583M1809 611L1764 693M1809 611L1851 699M1994 639L2049 574M1994 639L1957 664M1994 639L2053 645M1994 639L1952 729M2049 574L2053 645M2150 638L2162 628M2150 638L2053 645M2150 638L2151 671M2150 638L2201 679M2150 638L2151 724M2162 628L2151 671M2162 628L2201 679M2310 594L2354 597M2310 594L2268 685M2310 594L2365 658M2354 597L2433 602M2354 597L2365 658M2433 602L2519 613M2433 602L2365 658M2433 602L2436 684M2519 613L2579 650M2519 613L2436 684M2519 613L2534 666M-41 613L19 650M19 650L-26 666M19 650L58 721M2579 650L2534 666M143 657L226 701M143 657L121 752M226 701L246 650M226 701L121 752M226 701L203 751M226 701L252 752M246 650L252 752M372 675L412 664M372 675L372 788M412 664L471 753M512 684L471 753M512 684L495 746M618 650L672 689M618 650L633 724M672 689L732 704M672 689L633 724M672 689L723 723M732 704L803 716M732 704L633 724M732 704L678 759M732 704L723 723M803 716L886 672M803 716L723 723M803 716L876 751M803 716L845 801M886 672L876 751M886 672L903 761M1005 692L1059 671M1059 671L1132 723M1193 661L1238 708M1193 661L1132 723M1238 708L1352 693M1238 708L1132 723M1238 708L1247 783M1238 708L1294 748M1352 693L1394 712M1352 693L1294 748M1352 693L1405 727M1394 712L1501 695M1394 712L1294 748M1394 712L1405 727M1501 695L1597 690M1501 695L1405 727M1501 695L1494 757M1501 695L1584 735M1597 690L1645 670M1597 690L1685 671M1597 690L1584 735M1645 670L1685 671M1685 671L1764 693M1764 693L1851 699M1851 699L1957 664M1851 699L1892 753M1851 699L1952 729M1957 664L2053 645M1957 664L1952 729M1957 664L2053 746M2053 645L2151 671M2151 671L2201 679M2151 671L2151 724M2201 679L2268 685M2201 679L2151 724M2268 685L2315 740M2365 658L2436 684M2365 658L2315 740M2436 684L2534 666M2436 684L2458 750M2534 666L2618 721M2534 666L2458 750M-26 666L58 721M58 721L121 752M58 721L39 813M121 752L203 751M203 751L252 752M252 752L280 831M372 788L471 753M372 788L385 838M372 788L400 873M471 753L495 746M495 746L558 863M633 724L678 759M633 724L723 723M678 759L723 723M678 759L701 819M876 751L903 761M876 751L962 779M876 751L845 801M903 761L962 779M903 761L845 801M903 761L952 802M962 779L1045 784M962 779L952 802M962 779L981 875M1045 784L1132 723M1045 784L952 802M1045 784L1110 847M1247 783L1294 748M1247 783L1234 854M1247 783L1353 846M1294 748L1405 727M1405 727L1494 757M1494 757L1584 735M1494 757L1435 843M1584 735L1643 782M1584 735L1598 820M1643 782L1739 788M1643 782L1598 820M1643 782L1678 815M1643 782L1696 866M1739 788L1801 800M1739 788L1678 815M1739 788L1696 866M1739 788L1829 818M1801 800L1892 753M1801 800L1829 818M1801 800L1858 857M1892 753L1952 729M1892 753L1829 818M1952 729L2053 746M2053 746L2151 724M2053 746L2024 811M2053 746L2142 823M2151 724L2215 773M2215 773L2315 740M2215 773L2142 823M2215 773L2213 818M2215 773L2265 815M2315 740L2353 796M2315 740L2265 815M2353 796L2330 871M2353 796L2403 828M2458 750L2511 796M2458 750L2403 828M2458 750L2513 831M2511 796L2599 813M2511 796L2403 828M2511 796L2513 831M2511 796L2474 893M-49 796L39 813M39 813L-47 831M39 813L43 894M39 813L108 892M2599 813L2513 831M116 880L178 861M116 880L43 894M116 880L108 892M116 880L114 973M178 861L280 831M178 861L108 892M178 861L216 891M280 831L385 838M280 831L216 891M280 831L302 897M385 838L400 873M385 838L302 897M385 838L354 944M400 873L354 944M400 873L465 940M400 873L393 972M558 863L628 869M558 863L465 940M558 863L546 921M558 863L625 920M628 869L701 819M628 869L722 867M628 869L625 920M628 869L668 942M701 819L722 867M701 819L762 913M722 867L668 942M722 867L762 913M722 867L801 914M845 801L952 802M845 801L801 914M952 802L981 875M981 875L895 929M981 875L1021 898M981 875L1067 889M1110 847L1181 869M1110 847L1021 898M1110 847L1067 889M1110 847L1122 911M1181 869L1234 854M1181 869L1122 911M1181 869L1248 949M1181 869L1182 971M1234 854L1353 846M1234 854L1248 949M1353 846L1435 843M1353 846L1356 946M1353 846L1380 897M1435 843L1516 861M1435 843L1380 897M1516 861L1598 820M1516 861L1576 943M1598 820L1678 815M1598 820L1696 866M1678 815L1696 866M1678 815L1702 890M1696 866L1702 890M1829 818L1858 857M1858 857L1953 871M1858 857L1891 907M1858 857L1957 906M1953 871L2024 811M1953 871L1891 907M1953 871L1957 906M1953 871L2004 950M2024 811L2142 823M2142 823L2213 818M2142 823L2119 926M2213 818L2265 815M2213 818L2210 921M2213 818L2252 894M2265 815L2330 871M2265 815L2252 894M2330 871L2403 828M2330 871L2252 894M2330 871L2333 909M2403 828L2474 893M2513 831L2474 893M43 894L108 892M43 894L-25 951M43 894L114 973M2603 894L2535 951M108 892L114 973M216 891L302 897M216 891L197 984M302 897L354 944M302 897L252 980M354 944L252 980M354 944L393 972M465 940L546 921M465 940L393 972M465 940L473 975M546 921L625 920M546 921L473 975M546 921L581 1015M625 920L668 942M625 920L581 1015M668 942L762 913M668 942L705 1014M762 913L801 914M801 914L895 929M895 929L910 1003M1021 898L1067 889M1021 898L1122 911M1021 898L1064 992M1067 889L1122 911M1067 889L1064 992M1122 911L1182 971M1248 949L1182 971M1248 949L1268 983M1248 949L1300 1001M1356 946L1380 897M1356 946L1268 983M1356 946L1300 1001M1356 946L1425 1001M1380 897L1467 960M1380 897L1425 1001M1467 960L1425 1001M1467 960L1462 1013M1576 943L1627 957M1576 943L1573 1004M1627 957L1573 1004M1627 957L1673 990M1702 890L1780 959M1702 890L1726 977M1780 959L1726 977M1780 959L1817 1012M1780 959L1844 972M1891 907L1957 906M1891 907L1844 972M1957 906L2004 950M1957 906L1926 994M2004 950L2119 926M2004 950L1926 994M2004 950L2063 1038M2119 926L2210 921M2119 926L2196 960M2210 921L2252 894M2210 921L2196 960M2210 921L2272 961M2252 894L2272 961M2333 909L2272 961M2333 909L2352 975M2474 893L2535 951M2474 893L2521 962M2535 951L2604 1002M2535 951L2443 992M2535 951L2521 962M-25 951L44 1002M44 1002L114 973M44 1002L-39 962M44 1002L73 1107M2604 1002L2521 962M114 973L197 984M197 984L252 980M197 984L210 1076M252 980L309 1066M393 972L473 975M473 975L560 1025M473 975L538 1048M560 1025L581 1015M560 1025L538 1048M560 1025L621 1057M560 1025L545 1125M581 1015L538 1048M581 1015L621 1057M705 1014L754 1037M705 1014L621 1057M705 1014L674 1057M705 1014L765 1043M754 1037L841 1029M754 1037L674 1057M754 1037L765 1043M754 1037L815 1096M841 1029L910 1003M841 1029L765 1043M841 1029L815 1096M841 1029L911 1102M910 1003L1005 1005M910 1003L911 1102M1005 1005L1064 992M1005 1005L1039 1087M1064 992L1039 1087M1064 992L1073 1093M1182 971L1268 983M1182 971L1194 1074M1268 983L1300 1001M1268 983L1275 1057M1300 1001L1275 1057M1300 1001L1321 1092M1425 1001L1462 1013M1425 1001L1471 1066M1462 1013L1422 1105M1462 1013L1471 1066M1573 1004L1673 990M1573 1004L1575 1054M1573 1004L1660 1054M1673 990L1726 977M1673 990L1660 1054M1673 990L1724 1072M1726 977L1724 1072M1817 1012L1844 972M1817 1012L1819 1060M1817 1012L1887 1050M1844 972L1926 994M1844 972L1887 1050M1926 994L1887 1050M1926 994L1951 1074M2063 1038L2114 1037M2063 1038L2035 1105M2063 1038L2098 1082M2063 1038L2096 1137M2114 1037L2098 1082M2114 1037L2187 1066M2196 960L2272 961M2196 960L2187 1066M2196 960L2245 1072M2272 961L2352 975M2352 975L2443 992M2352 975L2392 1096M2352 975L2412 1046M2443 992L2521 962M2443 992L2412 1046M73 1107L132 1098M73 1107L-18 1115M73 1107L58 1174M73 1107L-28 1149M2633 1107L2542 1115M2633 1107L2532 1149M132 1098L210 1076M132 1098L158 1193M132 1098L180 1163M210 1076L309 1066M210 1076L180 1163M210 1076L281 1137M309 1066L337 1083M309 1066L431 1102M309 1066L281 1137M337 1083L431 1102M337 1083L281 1137M337 1083L394 1160M431 1102L394 1160M431 1102L461 1185M538 1048L621 1057M538 1048L545 1125M621 1057L674 1057M674 1057L765 1043M765 1043L815 1096M815 1096L911 1102M815 1096L738 1147M911 1102L880 1192M911 1102L964 1127M1039 1087L1073 1093M1039 1087L964 1127M1073 1093L1194 1074M1073 1093L964 1127M1073 1093L1098 1194M1194 1074L1275 1057M1194 1074L1228 1142M1275 1057L1321 1092M1275 1057L1228 1142M1321 1092L1422 1105M1321 1092L1228 1142M1321 1092L1380 1121M1422 1105L1471 1066M1422 1105L1380 1121M1471 1066L1380 1121M1471 1066L1516 1135M1575 1054L1660 1054M1575 1054L1516 1135M1575 1054L1559 1125M1575 1054L1608 1129M1660 1054L1724 1072M1660 1054L1712 1136M1724 1072L1819 1060M1724 1072L1712 1136M1819 1060L1887 1050M1887 1050L1951 1074M1951 1074L1978 1132M2035 1105L2098 1082M2035 1105L1978 1132M2035 1105L2078 1178M2035 1105L2096 1137M2098 1082L2187 1066M2098 1082L2096 1137M2187 1066L2245 1072M2187 1066L2238 1149M2245 1072L2238 1149M2245 1072L2310 1127M2392 1096L2412 1046M2392 1096L2310 1127M2392 1096L2324 1193M2392 1096L2466 1155M2542 1115L2466 1155M2542 1115L2532 1149M58 1174L-28 1149M58 1174L80 1242M58 1174L-16 1217M2618 1174L2532 1149M2618 1174L2544 1217M158 1193L180 1163M158 1193L80 1242M158 1193L144 1226M158 1193L180 1221M180 1163L144 1226M180 1163L180 1221M281 1137L394 1160M281 1137L264 1215M394 1160L461 1185M394 1160L359 1267M461 1185L545 1125M461 1185L473 1249M461 1185L545 1217M545 1125L625 1158M545 1125L545 1217M625 1158L671 1173M625 1158L738 1147M625 1158L545 1217M625 1158L632 1217M671 1173L738 1147M671 1173L632 1217M671 1173L723 1237M738 1147L723 1237M880 1192L907 1198M880 1192L964 1127M880 1192L878 1236M880 1192L893 1257M907 1198L964 1127M907 1198L878 1236M907 1198L893 1257M907 1198L956 1284M1098 1194L1160 1199M1098 1194L1046 1233M1098 1194L1137 1212M1160 1199L1228 1142M1160 1199L1137 1212M1160 1199L1153 1288M1228 1142L1289 1195M1289 1195L1308 1243M1380 1121L1410 1247M1516 1135L1559 1125M1516 1135L1608 1129M1516 1135L1524 1213M1559 1125L1608 1129M1559 1125L1524 1213M1559 1125L1653 1202M1608 1129L1712 1136M1608 1129L1653 1202M1712 1136L1653 1202M1833 1189L1866 1174M1833 1189L1809 1255M1833 1189L1854 1274M1866 1174L1978 1132M1866 1174L1809 1255M1866 1174L1926 1249M1978 1132L2078 1178M2078 1178L2096 1137M2078 1178L2031 1252M2078 1178L2084 1227M2096 1137L2084 1227M2238 1149L2310 1127M2238 1149L2248 1227M2238 1149L2321 1217M2310 1127L2324 1193M2310 1127L2321 1217M2324 1193L2248 1227M2324 1193L2321 1217M2466 1155L2532 1149M2466 1155L2456 1274M2466 1155L2544 1217M2532 1149L2544 1217M80 1242L144 1226M80 1242L180 1221M80 1242L113 1286M144 1226L180 1221M144 1226L113 1286M180 1221L264 1215M264 1215L359 1267M359 1267L473 1249M359 1267L381 1341M359 1267L402 1298M473 1249L545 1217M473 1249L402 1298M473 1249L496 1359M545 1217L632 1217M632 1217L663 1273M632 1217L647 1296M663 1273L723 1237M663 1273L616 1342M663 1273L647 1296M663 1273L655 1365M723 1237L647 1296M723 1237L774 1314M878 1236L893 1257M878 1236L862 1339M878 1236L956 1284M893 1257L862 1339M893 1257L956 1284M978 1278L1046 1233M978 1278L956 1284M978 1278L1031 1315M978 1278L1030 1377M1046 1233L1137 1212M1046 1233L1031 1315M1046 1233L1076 1321M1137 1212L1153 1288M1231 1272L1308 1243M1231 1272L1153 1288M1231 1272L1276 1301M1231 1272L1287 1287M1231 1272L1193 1360M1308 1243L1276 1301M1308 1243L1287 1287M1308 1243L1379 1285M1410 1247L1482 1271M1410 1247L1379 1285M1482 1271L1524 1213M1482 1271L1379 1285M1482 1271L1506 1294M1482 1271L1554 1283M1524 1213L1506 1294M1524 1213L1554 1283M1653 1202L1737 1268M1653 1202L1616 1296M1737 1268L1809 1255M1737 1268L1756 1351M1737 1268L1773 1321M1809 1255L1854 1274M1809 1255L1773 1321M1854 1274L1926 1249M1854 1274L1773 1321M1854 1274L1915 1349M1926 1249L2031 1252M2031 1252L2084 1227M2031 1252L1983 1327M2084 1227L2174 1236M2174 1236L2248 1227M2174 1236L2216 1300M2248 1227L2321 1217M2248 1227L2216 1300M2321 1217L2285 1304M2456 1274L2472 1282M2456 1274L2493 1295M2544 1217L2472 1282M2544 1217L2493 1295M64 1351L113 1286M64 1351L79 1361M64 1351L133 1382M64 1351L-36 1387M2624 1351L2524 1387M113 1286L196 1327M113 1286L79 1361M196 1327L250 1353M196 1327L133 1382M196 1327L160 1417M196 1327L268 1417M250 1353L268 1417M250 1353L336 1390M381 1341L402 1298M381 1341L496 1359M381 1341L336 1390M381 1341L479 1381M496 1359L479 1381M496 1359L541 1415M616 1342L647 1296M616 1342L592 1431M616 1342L655 1365M647 1296L655 1365M774 1314L862 1339M774 1314L774 1422M862 1339L774 1422M862 1339L871 1430M956 1284L1031 1315M1031 1315L1076 1321M1031 1315L1030 1377M1076 1321L1153 1288M1076 1321L1030 1377M1076 1321L1085 1427M1153 1288L1193 1360M1276 1301L1287 1287M1276 1301L1215 1367M1276 1301L1324 1374M1287 1287L1379 1285M1287 1287L1324 1374M1379 1285L1324 1374M1506 1294L1554 1283M1506 1294L1616 1296M1506 1294L1555 1364M1554 1283L1616 1296M1554 1283L1555 1364M1616 1296L1555 1364M1616 1296L1609 1413M1756 1351L1773 1321M1756 1351L1728 1439M1756 1351L1830 1393M1773 1321L1830 1393M1915 1349L1983 1327M1915 1349L1915 1369M1983 1327L2031 1359M1983 1327L1915 1369M1983 1327L1991 1408M2031 1359L2113 1358M2031 1359L1991 1408M2031 1359L2019 1419M2031 1359L2086 1413M2113 1358L2086 1413M2113 1358L2179 1416M2216 1300L2285 1304M2216 1300L2325 1331M2216 1300L2179 1416M2285 1304L2325 1331M2285 1304L2349 1393M2325 1331L2320 1419M2325 1331L2349 1393M2472 1282L2493 1295M2472 1282L2437 1372M2493 1295L2437 1372M2493 1295L2524 1387M79 1361L133 1382M79 1361L160 1417M133 1382L160 1417M268 1417L336 1390M479 1381L541 1415M541 1415L592 1431M592 1431L655 1365M774 1422L871 1430M871 1430L923 1430M1030 1377L1085 1427M1085 1427L1193 1360M1193 1360L1215 1367M1324 1374L1374 1403M1511 1440L1555 1364M1511 1440L1609 1413M1555 1364L1609 1413M1830 1393L1915 1369M1915 1369L1991 1408M1991 1408L2019 1419M2019 1419L2086 1413M2086 1413L2179 1416M2320 1419L2349 1393M2349 1393L2437 1372M2437 1372L2524 1387"/></svg>