<svg xmlns="http://www.w3.org/2000/svg" width="2560" height="1440" fill="#fff"><circle cx="66" cy="20" r="4"/><circle cx="114" cy="25" r="5"/><circle cx="171" cy="64" r="4"/><circle cx="260" cy="11" r="5"/><circle cx="362" cy="8" r="6"/><circle cx="403" cy="49" r="5"/><circle cx="498" cy="68" r="5"/><circle cx="569" cy="10" r="5"/><circle cx="693" cy="33" r="5"/><circle cx="760" cy="77" r="5"/><circle cx="812" cy="31" r="5"/><circle cx="896" cy="36" r="5"/><circle cx="989" cy="41" r="5"/><circle cx="1106" cy="68" r="5"/><circle cx="1192" cy="26" r="5"/><circle cx="1275" cy="22" r="5"/><circle cx="1327" cy="28" r="6"/><circle cx="1416" cy="37" r="4"/><circle cx="1511" cy="53" r="6"/><circle cx="1584" cy="28" r="6"/><circle cx="1639" cy="31" r="5"/><circle cx="1750" cy="23" r="5"/><circle cx="1810" cy="41" r="5"/><circle cx="1905" cy="31" r="6"/><circle cx="1927" cy="5" r="4"/><circle cx="2054" cy="22" r="6"/><circle cx="2103" cy="5" r="5"/><circle cx="2236" cy="73" r="4"/><circle cx="2277" cy="43" r="4"/><circle cx="2376" cy="70" r="6"/><circle cx="2431" cy="62" r="4"/><circle cx="2485" cy="53" r="6"/><circle cx="0" cy="113" r="6"/><circle cx="2560" cy="113" r="6"/><circle cx="81" cy="150" r="6"/><circle cx="177" cy="84" r="5"/><circle cx="317" cy="148" r="6"/><circle cx="353" cy="138" r="4"/><circle cx="433" cy="159" r="5"/><circle cx="536" cy="156" r="4"/><circle cx="633" cy="90" r="5"/><circle cx="681" cy="117" r="5"/><circle cx="753" cy="131" r="5"/><circle cx="850" cy="82" r="5"/><circle cx="937" cy="126" r="5"/><circle cx="989" cy="110" r="5"/><circle cx="1077" cy="152" r="4"/><circle cx="1130" cy="127" r="5"/><circle cx="1212" cy="120" r="4"/><circle cx="1330" cy="100" r="6"/><circle cx="1422" cy="103" r="5"/><circle cx="1516" cy="95" r="5"/><circle cx="1533" cy="127" r="4"/><circle cx="1680" cy="121" r="4"/><circle cx="1686" cy="110" r="5"/><circle cx="1761" cy="151" r="4"/><circle cx="1891" cy="133" r="6"/><circle cx="1934" cy="146" r="4"/><circle cx="2026" cy="99" r="5"/><circle cx="2129" cy="144" r="6"/><circle cx="2209" cy="110" r="5"/><circle cx="2286" cy="123" r="5"/><circle cx="2384" cy="81" r="4"/><circle cx="2445" cy="157" r="4"/><circle cx="2540" cy="105" r="4"/><circle cx="67" cy="170" r="5"/><circle cx="82" cy="197" r="6"/><circle cx="235" cy="193" r="6"/><circle cx="255" cy="190" r="6"/><circle cx="340" cy="238" r="5"/><circle cx="424" cy="200" r="5"/><circle cx="553" cy="190" r="5"/><circle cx="568" cy="221" r="6"/><circle cx="714" cy="238" r="5"/><circle cx="745" cy="232" r="4"/><circle cx="808" cy="194" r="6"/><circle cx="889" cy="222" r="6"/><circle cx="987" cy="207" r="4"/><circle cx="1079" cy="176" r="5"/><circle cx="1150" cy="215" r="4"/><circle cx="1254" cy="239" r="5"/><circle cx="1341" cy="201" r="5"/><circle cx="1364" cy="163" r="6"/><circle cx="1498" cy="206" r="5"/><circle cx="1551" cy="238" r="6"/><circle cx="1622" cy="214" r="5"/><circle cx="1740" cy="220" r="6"/><circle cx="1802" cy="174" r="5"/><circle cx="1911" cy="230" r="6"/><circle cx="1953" cy="216" r="6"/><circle cx="2072" cy="217" r="4"/><circle cx="2128" cy="221" r="5"/><circle cx="2174" cy="227" r="4"/><circle cx="2279" cy="192" r="5"/><circle cx="2344" cy="212" r="5"/><circle cx="2466" cy="239" r="5"/><circle cx="2539" cy="223" r="5"/><circle cx="62" cy="275" r="5"/><circle cx="113" cy="308" r="6"/><circle cx="209" cy="244" r="4"/><circle cx="249" cy="299" r="5"/><circle cx="356" cy="272" r="5"/><circle cx="438" cy="276" r="5"/><circle cx="486" cy="240" r="4"/><circle cx="605" cy="312" r="6"/><circle cx="647" cy="312" r="5"/><circle cx="797" cy="293" r="6"/><circle cx="876" cy="251" r="6"/><circle cx="891" cy="320" r="6"/><circle cx="1016" cy="268" r="5"/><circle cx="1065" cy="242" r="5"/><circle cx="1172" cy="308" r="4"/><circle cx="1220" cy="269" r="4"/><circle cx="1302" cy="300" r="5"/><circle cx="1401" cy="318" r="5"/><circle cx="1454" cy="303" r="5"/><circle cx="1587" cy="247" r="5"/><circle cx="1648" cy="247" r="5"/><circle cx="1737" cy="275" r="6"/><circle cx="1798" cy="303" r="6"/><circle cx="1879" cy="302" r="5"/><circle cx="1986" cy="307" r="5"/><circle cx="2017" cy="299" r="5"/><circle cx="2100" cy="304" r="4"/><circle cx="2186" cy="308" r="6"/><circle cx="2272" cy="299" r="4"/><circle cx="2336" cy="318" r="4"/><circle cx="2474" cy="256" r="5"/><circle cx="2525" cy="266" r="5"/><circle cx="57" cy="326" r="4"/><circle cx="159" cy="343" r="4"/><circle cx="201" cy="381" r="5"/><circle cx="257" cy="323" r="5"/><circle cx="353" cy="386" r="4"/><circle cx="471" cy="369" r="6"/><circle cx="514" cy="376" r="5"/><circle cx="608" cy="367" r="5"/><circle cx="643" cy="390" r="6"/><circle cx="787" cy="350" r="5"/><circle cx="834" cy="370" r="5"/><circle cx="944" cy="371" r="5"/><circle cx="1022" cy="339" r="6"/><circle cx="1062" cy="353" r="6"/><circle cx="1167" cy="395" r="4"/><circle cx="1232" cy="392" r="5"/><circle cx="1340" cy="324" r="6"/><circle cx="1378" cy="382" r="5"/><circle cx="1479" cy="362" r="6"/><circle cx="1531" cy="349" r="4"/><circle cx="1635" cy="355" r="6"/><circle cx="1712" cy="381" r="5"/><circle cx="1802" cy="324" r="5"/><circle cx="1916" cy="375" r="6"/><circle cx="1991" cy="372" r="5"/><circle cx="2075" cy="345" r="6"/><circle cx="2123" cy="342" r="6"/><circle cx="2177" cy="389" r="5"/><circle cx="2317" cy="362" r="6"/><circle cx="2328" cy="393" r="5"/><circle cx="2410" cy="362" r="5"/><circle cx="2515" cy="373" r="6"/><circle cx="45" cy="405" r="5"/><circle cx="123" cy="404" r="5"/><circle cx="240" cy="418" r="6"/><circle cx="302" cy="411" r="5"/><circle cx="399" cy="470" r="4"/><circle cx="478" cy="417" r="5"/><circle cx="536" cy="422" r="4"/><circle cx="631" cy="411" r="6"/><circle cx="712" cy="453" r="5"/><circle cx="753" cy="416" r="6"/><circle cx="830" cy="474" r="4"/><circle cx="923" cy="468" r="6"/><circle cx="974" cy="458" r="5"/><circle cx="1111" cy="450" r="5"/><circle cx="1151" cy="452" r="5"/><circle cx="1280" cy="425" r="4"/><circle cx="1282" cy="400" r="5"/><circle cx="1422" cy="457" r="6"/><circle cx="1507" cy="463" r="4"/><circle cx="1556" cy="404" r="5"/><circle cx="1668" cy="422" r="6"/><circle cx="1698" cy="434" r="6"/><circle cx="1823" cy="466" r="5"/><circle cx="1864" cy="407" r="4"/><circle cx="1930" cy="460" r="5"/><circle cx="2035" cy="450" r="5"/><circle cx="2147" cy="472" r="4"/><circle cx="2214" cy="468" r="6"/><circle cx="2252" cy="428" r="4"/><circle cx="2336" cy="476" r="4"/><circle cx="2467" cy="442" r="5"/><circle cx="2541" cy="415" r="5"/><circle cx="45" cy="509" r="5"/><circle cx="105" cy="549" r="5"/><circle cx="187" cy="519" r="5"/><circle cx="289" cy="480" r="4"/><circle cx="326" cy="492" r="6"/><circle cx="456" cy="540" r="4"/><circle cx="524" cy="512" r="5"/><circle cx="588" cy="537" r="6"/><circle cx="673" cy="520" r="4"/><circle cx="769" cy="480" r="5"/><circle cx="821" cy="560" r="6"/><circle cx="885" cy="514" r="6"/><circle cx="984" cy="505" r="5"/><circle cx="1078" cy="493" r="6"/><circle cx="1171" cy="481" r="6"/><circle cx="1274" cy="532" r="6"/><circle cx="1301" cy="532" r="5"/><circle cx="1440" cy="492" r="5"/><circle cx="1518" cy="519" r="6"/><circle cx="1583" cy="503" r="5"/><circle cx="1680" cy="531" r="5"/><circle cx="1702" cy="488" r="6"/><circle cx="1799" cy="490" r="6"/><circle cx="1863" cy="481" r="4"/><circle cx="1983" cy="525" r="5"/><circle cx="2045" cy="529" r="6"/><circle cx="2096" cy="523" r="6"/><circle cx="2220" cy="541" r="6"/><circle cx="2244" cy="528" r="5"/><circle cx="2360" cy="508" r="4"/><circle cx="2430" cy="511" r="5"/><circle cx="2529" cy="498" r="4"/><circle cx="37" cy="560" r="5"/><circle cx="98" cy="578" r="5"/><circle cx="220" cy="629" r="5"/><circle cx="315" cy="569" r="6"/><circle cx="346" cy="579" r="6"/><circle cx="456" cy="603" r="4"/><circle cx="506" cy="595" r="5"/><circle cx="607" cy="636" r="6"/><circle cx="690" cy="561" r="5"/><circle cx="763" cy="630" r="5"/><circle cx="819" cy="582" r="6"/><circle cx="908" cy="594" r="5"/><circle cx="977" cy="624" r="6"/><circle cx="1110" cy="600" r="5"/><circle cx="1179" cy="576" r="4"/><circle cx="1256" cy="600" r="4"/><circle cx="1327" cy="601" r="6"/><circle cx="1392" cy="607" r="4"/><circle cx="1463" cy="606" r="6"/><circle cx="1524" cy="577" r="4"/><circle cx="1644" cy="591" r="6"/><circle cx="1682" cy="579" r="5"/><circle cx="1803" cy="598" r="4"/><circle cx="1870" cy="574" r="6"/><circle cx="1946" cy="577" r="6"/><circle cx="2007" cy="632" r="6"/><circle cx="2155" cy="560" r="6"/><circle cx="2217" cy="630" r="4"/><circle cx="2280" cy="569" r="5"/><circle cx="2322" cy="607" r="5"/><circle cx="2478" cy="603" r="4"/><circle cx="2489" cy="601" r="5"/><circle cx="38" cy="696" r="5"/><circle cx="142" cy="691" r="5"/><circle cx="232" cy="641" r="6"/><circle cx="264" cy="643" r="5"/><circle cx="346" cy="678" r="5"/><circle cx="460" cy="689" r="6"/><circle cx="533" cy="714" r="6"/><circle cx="569" cy="689" r="5"/><circle cx="669" cy="643" r="5"/><circle cx="728" cy="710" r="6"/><circle cx="833" cy="670" r="6"/><circle cx="932" cy="642" r="4"/><circle cx="1001" cy="689" r="5"/><circle cx="1042" cy="684" r="4"/><circle cx="1172" cy="650" r="5"/><circle cx="1258" cy="650" r="5"/><circle cx="1285" cy="718" r="4"/><circle cx="1379" cy="660" r="6"/><circle cx="1491" cy="642" r="6"/><circle cx="1530" cy="651" r="4"/><circle cx="1622" cy="660" r="4"/><circle cx="1696" cy="690" r="6"/><circle cx="1829" cy="644" r="5"/><circle cx="1845" cy="704" r="6"/><circle cx="1974" cy="716" r="5"/><circle cx="2011" cy="702" r="5"/><circle cx="2154" cy="659" r="6"/><circle cx="2204" cy="700" r="5"/><circle cx="2315" cy="682" r="5"/><circle cx="2322" cy="705" r="6"/><circle cx="2405" cy="701" r="6"/><circle cx="2544" cy="695" r="5"/><circle cx="75" cy="784" r="6"/><circle cx="158" cy="725" r="5"/><circle cx="179" cy="721" r="5"/><circle cx="261" cy="788" r="5"/><circle cx="334" cy="741" r="6"/><circle cx="463" cy="772" r="5"/><circle cx="498" cy="787" r="5"/><circle cx="572" cy="791" r="5"/><circle cx="678" cy="747" r="4"/><circle cx="770" cy="755" r="5"/><circle cx="861" cy="775" r="6"/><circle cx="931" cy="762" r="5"/><circle cx="986" cy="781" r="5"/><circle cx="1046" cy="752" r="6"/><circle cx="1133" cy="724" r="4"/><circle cx="1245" cy="776" r="4"/><circle cx="1346" cy="741" r="5"/><circle cx="1432" cy="789" r="4"/><circle cx="1494" cy="724" r="5"/><circle cx="1566" cy="783" r="6"/><circle cx="1606" cy="759" r="5"/><circle cx="1747" cy="792" r="5"/><circle cx="1801" cy="733" r="6"/><circle cx="1903" cy="794" r="5"/><circle cx="1978" cy="768" r="4"/><circle cx="2066" cy="725" r="6"/><circle cx="2137" cy="730" r="6"/><circle cx="2213" cy="747" r="5"/><circle cx="2275" cy="773" r="5"/><circle cx="2337" cy="764" r="5"/><circle cx="2421" cy="761" r="4"/><circle cx="2498" cy="780" r="5"/><circle cx="13" cy="870" r="6"/><circle cx="127" cy="825" r="5"/><circle cx="203" cy="839" r="4"/><circle cx="281" cy="874" r="5"/><circle cx="329" cy="862" r="4"/><circle cx="432" cy="819" r="4"/><circle cx="517" cy="804" r="4"/><circle cx="626" cy="828" r="4"/><circle cx="711" cy="807" r="4"/><circle cx="730" cy="852" r="5"/><circle cx="812" cy="855" r="4"/><circle cx="881" cy="873" r="5"/><circle cx="1026" cy="813" r="5"/><circle cx="1089" cy="818" r="4"/><circle cx="1195" cy="821" r="6"/><circle cx="1276" cy="855" r="5"/><circle cx="1353" cy="816" r="4"/><circle cx="1395" cy="816" r="5"/><circle cx="1449" cy="849" r="5"/><circle cx="1561" cy="836" r="5"/><circle cx="1677" cy="803" r="5"/><circle cx="1732" cy="802" r="4"/><circle cx="1792" cy="811" r="5"/><circle cx="1897" cy="834" r="5"/><circle cx="1927" cy="849" r="6"/><circle cx="2005" cy="818" r="6"/><circle cx="2154" cy="831" r="4"/><circle cx="2221" cy="874" r="5"/><circle cx="2306" cy="814" r="5"/><circle cx="2331" cy="870" r="4"/><circle cx="2446" cy="843" r="5"/><circle cx="2539" cy="807" r="4"/><circle cx="38" cy="942" r="5"/><circle cx="121" cy="914" r="6"/><circle cx="187" cy="916" r="5"/><circle cx="287" cy="926" r="5"/><circle cx="368" cy="947" r="5"/><circle cx="435" cy="908" r="5"/><circle cx="551" cy="891" r="4"/><circle cx="588" cy="929" r="5"/><circle cx="658" cy="937" r="6"/><circle cx="767" cy="882" r="4"/><circle cx="855" cy="904" r="5"/><circle cx="901" cy="952" r="4"/><circle cx="993" cy="921" r="4"/><circle cx="1076" cy="890" r="6"/><circle cx="1134" cy="932" r="5"/><circle cx="1258" cy="894" r="5"/><circle cx="1308" cy="958" r="6"/><circle cx="1369" cy="909" r="4"/><circle cx="1503" cy="882" r="5"/><circle cx="1536" cy="908" r="4"/><circle cx="1603" cy="882" r="5"/><circle cx="1708" cy="939" r="5"/><circle cx="1830" cy="917" r="5"/><circle cx="1888" cy="895" r="5"/><circle cx="1955" cy="921" r="4"/><circle cx="2062" cy="885" r="6"/><circle cx="2104" cy="928" r="6"/><circle cx="2237" cy="909" r="4"/><circle cx="2312" cy="928" r="5"/><circle cx="2360" cy="941" r="5"/><circle cx="2462" cy="918" r="5"/><circle cx="2535" cy="959" r="4"/><circle cx="60" cy="1040" r="5"/><circle cx="105" cy="1026" r="4"/><circle cx="195" cy="983" r="6"/><circle cx="252" cy="1021" r="4"/><circle cx="368" cy="1009" r="5"/><circle cx="423" cy="1015" r="5"/><circle cx="487" cy="993" r="5"/><circle cx="566" cy="984" r="5"/><circle cx="715" cy="985" r="5"/><circle cx="759" cy="984" r="6"/><circle cx="836" cy="1014" r="4"/><circle cx="935" cy="1013" r="6"/><circle cx="998" cy="1009" r="6"/><circle cx="1053" cy="978" r="5"/><circle cx="1191" cy="965" r="4"/><circle cx="1210" cy="1009" r="4"/><circle cx="1347" cy="980" r="4"/><circle cx="1427" cy="996" r="5"/><circle cx="1507" cy="1013" r="5"/><circle cx="1522" cy="972" r="4"/><circle cx="1673" cy="964" r="6"/><circle cx="1748" cy="1015" r="4"/><circle cx="1760" cy="1008" r="6"/><circle cx="1883" cy="1003" r="6"/><circle cx="1924" cy="981" r="5"/><circle cx="2010" cy="988" r="5"/><circle cx="2131" cy="989" r="6"/><circle cx="2206" cy="994" r="5"/><circle cx="2313" cy="980" r="5"/><circle cx="2360" cy="997" r="6"/><circle cx="2453" cy="970" r="6"/><circle cx="2534" cy="981" r="6"/><circle cx="74" cy="1078" r="5"/><circle cx="108" cy="1059" r="5"/><circle cx="216" cy="1058" r="6"/><circle cx="294" cy="1083" r="6"/><circle cx="377" cy="1072" r="4"/><circle cx="405" cy="1077" r="5"/><circle cx="520" cy="1052" r="5"/><circle cx="566" cy="1074" r="4"/><circle cx="717" cy="1077" r="6"/><circle cx="786" cy="1119" r="5"/><circle cx="814" cy="1049" r="4"/><circle cx="955" cy="1072" r="5"/><circle cx="1001" cy="1078" r="4"/><circle cx="1083" cy="1113" r="4"/><circle cx="1140" cy="1070" r="6"/><circle cx="1251" cy="1096" r="4"/><circle cx="1338" cy="1094" r="6"/><circle cx="1400" cy="1083" r="6"/><circle cx="1470" cy="1090" r="5"/><circle cx="1544" cy="1041" r="5"/><circle cx="1613" cy="1119" r="5"/><circle cx="1756" cy="1114" r="6"/><circle cx="1818" cy="1107" r="5"/><circle cx="1886" cy="1119" r="6"/><circle cx="1928" cy="1110" r="5"/><circle cx="2063" cy="1081" r="4"/><circle cx="2092" cy="1049" r="6"/><circle cx="2195" cy="1116" r="6"/><circle cx="2260" cy="1092" r="4"/><circle cx="2362" cy="1082" r="4"/><circle cx="2452" cy="1066" r="4"/><circle cx="2492" cy="1094" r="4"/><circle cx="7" cy="1157" r="5"/><circle cx="88" cy="1146" r="5"/><circle cx="183" cy="1159" r="6"/><circle cx="241" cy="1125" r="5"/><circle cx="327" cy="1172" r="5"/><circle cx="478" cy="1165" r="5"/><circle cx="513" cy="1182" r="6"/><circle cx="634" cy="1186" r="4"/><circle cx="693" cy="1181" r="6"/><circle cx="788" cy="1170" r="6"/><circle cx="827" cy="1154" r="5"/><circle cx="887" cy="1195" r="5"/><circle cx="1015" cy="1136" r="5"/><circle cx="1044" cy="1153" r="5"/><circle cx="1134" cy="1141" r="4"/><circle cx="1224" cy="1155" r="6"/><circle cx="1303" cy="1195" r="6"/><circle cx="1435" cy="1186" r="6"/><circle cx="1517" cy="1128" r="6"/><circle cx="1566" cy="1158" r="5"/><circle cx="1642" cy="1156" r="5"/><circle cx="1739" cy="1198" r="5"/><circle cx="1779" cy="1154" r="4"/><circle cx="1866" cy="1199" r="4"/><circle cx="1951" cy="1184" r="6"/><circle cx="2016" cy="1155" r="4"/><circle cx="2145" cy="1159" r="5"/><circle cx="2238" cy="1188" r="5"/><circle cx="2304" cy="1173" r="4"/><circle cx="2368" cy="1142" r="4"/><circle cx="2435" cy="1149" r="6"/><circle cx="2522" cy="1161" r="5"/><circle cx="9" cy="1277" r="5"/><circle cx="158" cy="1241" r="4"/><circle cx="179" cy="1211" r="6"/><circle cx="260" cy="1261" r="6"/><circle cx="344" cy="1237" r="5"/><circle cx="479" cy="1206" r="5"/><circle cx="511" cy="1201" r="6"/><circle cx="580" cy="1207" r="5"/><circle cx="671" cy="1258" r="5"/><circle cx="767" cy="1264" r="6"/><circle cx="843" cy="1233" r="5"/><circle cx="928" cy="1212" r="5"/><circle cx="982" cy="1278" r="4"/><circle cx="1083" cy="1278" r="6"/><circle cx="1178" cy="1275" r="6"/><circle cx="1268" cy="1249" r="6"/><circle cx="1335" cy="1208" r="6"/><circle cx="1425" cy="1257" r="5"/><circle cx="1514" cy="1230" r="6"/><circle cx="1593" cy="1259" r="5"/><circle cx="1644" cy="1221" r="6"/><circle cx="1688" cy="1232" r="4"/><circle cx="1828" cy="1254" r="5"/><circle cx="1883" cy="1231" r="4"/><circle cx="1953" cy="1242" r="6"/><circle cx="2010" cy="1261" r="6"/><circle cx="2087" cy="1219" r="5"/><circle cx="2215" cy="1207" r="4"/><circle cx="2286" cy="1261" r="5"/><circle cx="2372" cy="1232" r="6"/><circle cx="2428" cy="1270" r="4"/><circle cx="2558" cy="1212" r="6"/><circle cx="-2" cy="1212" r="6"/><circle cx="4" cy="1319" r="5"/><circle cx="2564" cy="1319" r="5"/><circle cx="131" cy="1324" r="4"/><circle cx="177" cy="1304" r="5"/><circle cx="313" cy="1290" r="5"/><circle cx="367" cy="1306" r="4"/><circle cx="459" cy="1292" r="6"/><circle cx="491" cy="1357" r="5"/><circle cx="592" cy="1355" r="5"/><circle cx="699" cy="1336" r="5"/><circle cx="776" cy="1351" r="4"/><circle cx="855" cy="1281" r="5"/><circle cx="893" cy="1356" r="5"/><circle cx="992" cy="1344" r="5"/><circle cx="1042" cy="1343" r="5"/><circle cx="1136" cy="1321" r="4"/><circle cx="1216" cy="1356" r="6"/><circle cx="1313" cy="1305" r="4"/><circle cx="1435" cy="1286" r="5"/><circle cx="1443" cy="1303" r="5"/><circle cx="1586" cy="1292" r="5"/><circle cx="1626" cy="1325" r="5"/><circle cx="1733" cy="1351" r="6"/><circle cx="1763" cy="1315" r="4"/><circle cx="1891" cy="1290" r="5"/><circle cx="1930" cy="1350" r="4"/><circle cx="2053" cy="1355" r="5"/><circle cx="2132" cy="1290" r="5"/><circle cx="2189" cy="1343" r="6"/><circle cx="2304" cy="1351" r="5"/><circle cx="2356" cy="1323" r="4"/><circle cx="2420" cy="1346" r="4"/><circle cx="2518" cy="1358" r="6"/><circle cx="18" cy="1384" r="5"/><circle cx="119" cy="1409" r="5"/><circle cx="160" cy="1408" r="6"/><circle cx="292" cy="1411" r="6"/><circle cx="356" cy="1401" r="5"/><circle cx="418" cy="1422" r="6"/><circle cx="541" cy="1394" r="5"/><circle cx="575" cy="1436" r="5"/><circle cx="575" cy="-4" r="5"/><circle cx="708" cy="1425" r="4"/><circle cx="745" cy="1385" r="5"/><circle cx="824" cy="1390" r="4"/><circle cx="931" cy="1392" r="6"/><circle cx="1009" cy="1401" r="5"/><circle cx="1053" cy="1362" r="4"/><circle cx="1122" cy="1394" r="4"/><circle cx="1260" cy="1405" r="6"/><circle cx="1294" cy="1372" r="5"/><circle cx="1414" cy="1410" r="4"/><circle cx="1510" cy="1387" r="4"/><circle cx="1528" cy="1429" r="6"/><circle cx="1665" cy="1402" r="4"/><circle cx="1696" cy="1386" r="6"/><circle cx="1795" cy="1390" r="5"/><circle cx="1882" cy="1440" r="5"/><circle cx="1882" cy="-0" r="5"/><circle cx="1962" cy="1418" r="5"/><circle cx="2006" cy="1432" r="6"/><circle cx="2117" cy="1361" r="6"/><circle cx="2205" cy="1365" r="5"/><circle cx="2248" cy="1412" r="6"/><circle cx="2357" cy="1428" r="5"/><circle cx="2462" cy="1438" r="5"/><circle cx="2462" cy="-2" r="5"/><circle cx="2493" cy="1363" r="4"/><path stroke="#fff" d="M66 20L114 25M66 20L18 -56M66 20L119 -31M66 1460L18 1384M66 1460L119 1409M114 25L171 64M114 25L177 84M114 25L119 -31M114 25L160 -32M114 1465L119 1409M114 1465L160 1408M171 64L177 84M171 64L160 -32M171 1504L160 1408M260 11L362 8M260 11L177 84M260 11L292 -29M260 1451L292 1411M362 8L403 49M362 8L292 -29M362 8L356 -39M362 8L418 -18M362 1448L292 1411M362 1448L356 1401M362 1448L418 1422M403 49L498 68M403 49L353 138M403 49L356 -39M403 49L418 -18M403 1489L356 1401M403 1489L418 1422M498 68L569 10M498 68L536 156M498 68L575 -4M498 1508L575 1436M569 10L633 90M569 10L592 -85M569 10L541 -46M569 10L575 -4M569 1450L592 1355M569 1450L541 1394M569 1450L575 1436M693 33L760 77M693 33L633 90M693 33L681 117M693 33L708 -15M693 33L745 -55M693 1473L708 1425M693 1473L745 1385M760 77L812 31M760 77L681 117M760 77L753 131M760 77L850 82M812 31L896 36M812 31L850 82M812 31L824 -50M812 1471L824 1390M896 36L989 41M896 36L850 82M896 36L937 126M896 36L931 -48M896 1476L931 1392M989 41L937 126M989 41L989 110M989 41L931 -48M989 41L1009 -39M989 1481L931 1392M989 1481L1009 1401M1106 68L1192 26M1106 68L1077 152M1106 68L1130 127M1192 26L1275 22M1192 26L1212 120M1192 26L1216 -84M1192 26L1260 -35M1192 1466L1216 1356M1192 1466L1260 1405M1275 22L1327 28M1275 22L1330 100M1275 22L1260 -35M1275 22L1294 -68M1275 1462L1260 1405M1275 1462L1294 1372M1327 28L1416 37M1327 28L1330 100M1327 28L1260 -35M1327 28L1294 -68M1327 1468L1260 1405M1327 1468L1294 1372M1416 37L1422 103M1416 37L1414 -30M1416 1477L1414 1410M1511 53L1584 28M1511 53L1422 103M1511 53L1516 95M1511 53L1533 127M1511 53L1528 -11M1511 1493L1528 1429M1584 28L1639 31M1584 28L1516 95M1584 28L1528 -11M1584 28L1665 -38M1584 1468L1528 1429M1584 1468L1665 1402M1639 31L1680 121M1639 31L1686 110M1639 31L1665 -38M1639 1471L1665 1402M1750 23L1810 41M1750 23L1686 110M1750 23L1696 -54M1750 23L1795 -50M1750 1463L1696 1386M1750 1463L1795 1390M1810 41L1905 31M1810 41L1795 -50M1810 41L1882 -0M1810 1481L1795 1390M1810 1481L1882 1440M1905 31L1927 5M1905 31L1891 133M1905 31L1882 -0M1905 31L1962 -22M1905 1471L1882 1440M1905 1471L1962 1418M1927 5L1930 -90M1927 5L1882 -0M1927 5L1962 -22M1927 5L2006 -8M1927 1445L1930 1350M1927 1445L1882 1440M1927 1445L1962 1418M1927 1445L2006 1432M2054 22L2103 5M2054 22L2026 99M2054 22L2053 -85M2054 22L2006 -8M2054 1462L2053 1355M2054 1462L2006 1432M2103 5L2026 99M2103 5L2006 -8M2103 5L2117 -79M2103 1445L2006 1432M2103 1445L2117 1361M2236 73L2277 43M2236 73L2209 110M2236 73L2286 123M2277 43L2209 110M2277 43L2286 123M2277 43L2248 -28M2277 43L2357 -12M2277 1483L2248 1412M2277 1483L2357 1428M2376 70L2431 62M2376 70L2485 53M2376 70L2286 123M2376 70L2384 81M2376 70L2357 -12M2376 1510L2357 1428M2431 62L2485 53M2431 62L2384 81M2431 62L2462 -2M2431 1502L2462 1438M2485 53L2560 113M2485 53L2540 105M2485 53L2462 -2M-75 53L0 113M2485 1493L2462 1438M0 113L81 150M0 113L-20 105M0 113L67 170M2560 113L2540 105M81 150L177 84M81 150L-20 105M81 150L67 170M81 150L82 197M2641 150L2540 105M317 148L353 138M317 148L235 193M317 148L255 190M317 148L340 238M353 138L433 159M433 159L536 156M433 159L424 200M433 159L486 240M536 156L553 190M536 156L568 221M633 90L681 117M633 90L553 190M633 90L575 -4M633 1530L575 1436M681 117L753 131M681 117L714 238M753 131L745 232M753 131L808 194M850 82L937 126M937 126L989 110M989 110L1077 152M989 110L987 207M1077 152L1130 127M1077 152L1079 176M1130 127L1212 120M1130 127L1079 176M1130 127L1150 215M1330 100L1422 103M1330 100L1341 201M1330 100L1364 163M1422 103L1516 95M1422 103L1364 163M1516 95L1533 127M1516 95L1528 -11M1516 1535L1528 1429M1533 127L1498 206M1533 127L1551 238M1680 121L1686 110M1680 121L1761 151M1680 121L1622 214M1686 110L1761 151M1761 151L1740 220M1761 151L1802 174M1891 133L1934 146M1891 133L1802 174M1891 133L1911 230M1891 133L1953 216M1934 146L2026 99M1934 146L1911 230M1934 146L1953 216M2026 99L2129 144M2129 144L2209 110M2129 144L2072 217M2129 144L2128 221M2129 144L2174 227M2209 110L2286 123M2209 110L2279 192M2286 123L2279 192M2384 81L2445 157M2445 157L2344 212M2445 157L2466 239M2445 157L2474 256M67 170L82 197M67 170L-21 223M67 170L62 275M2627 170L2539 223M82 197L-21 223M82 197L62 275M82 197L113 308M2642 197L2539 223M235 193L255 190M235 193L209 244M235 193L249 299M255 190L340 238M255 190L209 244M255 190L249 299M340 238L424 200M340 238L356 272M340 238L438 276M424 200L356 272M424 200L438 276M424 200L486 240M553 190L568 221M553 190L486 240M568 221L486 240M568 221L605 312M714 238L745 232M714 238L647 312M745 232L808 194M745 232L797 293M808 194L889 222M808 194L797 293M808 194L876 251M889 222L987 207M889 222L876 251M889 222L891 320M987 207L1079 176M987 207L1016 268M987 207L1065 242M1079 176L1150 215M1079 176L1065 242M1150 215L1065 242M1150 215L1172 308M1150 215L1220 269M1254 239L1341 201M1254 239L1172 308M1254 239L1220 269M1254 239L1302 300M1341 201L1364 163M1498 206L1551 238M1498 206L1454 303M1498 206L1587 247M1551 238L1622 214M1551 238L1587 247M1551 238L1648 247M1622 214L1587 247M1622 214L1648 247M1740 220L1802 174M1740 220L1648 247M1740 220L1737 275M1740 220L1798 303M1911 230L1953 216M1911 230L1879 302M1953 216L1986 307M1953 216L2017 299M2072 217L2128 221M2072 217L2174 227M2128 221L2174 227M2128 221L2100 304M2174 227L2279 192M2174 227L2186 308M2279 192L2344 212M2279 192L2272 299M2344 212L2466 239M2344 212L2336 318M2466 239L2539 223M2466 239L2474 256M2466 239L2525 266M2539 223L2474 256M2539 223L2525 266M62 275L113 308M62 275L-35 266M62 275L57 326M2622 275L2525 266M113 308L57 326M113 308L159 343M113 308L123 404M209 244L249 299M209 244L257 323M249 299L201 381M249 299L257 323M356 272L438 276M356 272L353 386M438 276L486 240M438 276L471 369M605 312L647 312M605 312L608 367M605 312L643 390M605 312L631 411M647 312L608 367M647 312L643 390M647 312L631 411M797 293L876 251M797 293L787 350M797 293L834 370M876 251L891 320M891 320L787 350M891 320L834 370M891 320L944 371M1016 268L1065 242M1016 268L1022 339M1016 268L1062 353M1065 242L1022 339M1172 308L1220 269M1172 308L1167 395M1220 269L1302 300M1302 300L1401 318M1302 300L1340 324M1302 300L1282 400M1401 318L1454 303M1401 318L1340 324M1401 318L1378 382M1401 318L1479 362M1454 303L1340 324M1454 303L1479 362M1454 303L1531 349M1587 247L1648 247M1648 247L1737 275M1737 275L1798 303M1737 275L1712 381M1737 275L1802 324M1798 303L1879 302M1798 303L1802 324M1879 302L1802 324M1879 302L1916 375M1986 307L2017 299M1986 307L1916 375M1986 307L1991 372M1986 307L2075 345M2017 299L2100 304M2017 299L1991 372M2017 299L2075 345M2100 304L2186 308M2100 304L2075 345M2100 304L2123 342M2186 308L2272 299M2186 308L2123 342M2186 308L2177 389M2272 299L2336 318M2272 299L2317 362M2336 318L2317 362M2336 318L2328 393M2336 318L2410 362M2474 256L2525 266M2525 266L2515 373M57 326L45 405M57 326L123 404M159 343L201 381M159 343L123 404M201 381L257 323M201 381L123 404M201 381L240 418M257 323L240 418M257 323L302 411M353 386L302 411M353 386L399 470M471 369L514 376M471 369L478 417M471 369L536 422M514 376L608 367M514 376L478 417M514 376L536 422M608 367L643 390M608 367L631 411M643 390L631 411M643 390L712 453M787 350L834 370M787 350L753 416M834 370L944 371M834 370L753 416M944 371L1022 339M944 371L923 468M944 371L974 458M1022 339L1062 353M1062 353L1111 450M1167 395L1232 392M1167 395L1111 450M1167 395L1151 452M1167 395L1171 481M1232 392L1151 452M1232 392L1280 425M1232 392L1282 400M1340 324L1378 382M1340 324L1282 400M1378 382L1282 400M1378 382L1422 457M1479 362L1531 349M1479 362L1422 457M1479 362L1556 404M1531 349L1635 355M1531 349L1556 404M1635 355L1712 381M1635 355L1556 404M1635 355L1668 422M1635 355L1698 434M1712 381L1668 422M1712 381L1698 434M1916 375L1991 372M1916 375L1864 407M1916 375L1930 460M1991 372L2075 345M1991 372L2035 450M2075 345L2123 342M2123 342L2177 389M2177 389L2147 472M2177 389L2214 468M2177 389L2252 428M2317 362L2328 393M2317 362L2410 362M2317 362L2252 428M2328 393L2410 362M2328 393L2252 428M2328 393L2336 476M2410 362L2515 373M2410 362L2467 442M2515 373L2605 405M2515 373L2467 442M2515 373L2541 415M-45 373L45 405M45 405L123 404M45 405L-19 415M45 405L45 509M2605 405L2541 415M240 418L302 411M240 418L289 480M302 411L289 480M302 411L326 492M399 470L478 417M399 470L326 492M399 470L456 540M478 417L536 422M478 417L524 512M536 422L524 512M631 411L712 453M712 453L753 416M712 453L673 520M712 453L769 480M753 416L830 474M753 416L769 480M830 474L923 468M830 474L769 480M830 474L821 560M830 474L885 514M923 468L974 458M923 468L885 514M923 468L984 505M974 458L984 505M1111 450L1151 452M1111 450L1078 493M1111 450L1171 481M1151 452L1078 493M1151 452L1171 481M1280 425L1282 400M1280 425L1301 532M1422 457L1507 463M1422 457L1440 492M1507 463L1556 404M1507 463L1440 492M1507 463L1518 519M1507 463L1583 503M1556 404L1583 503M1668 422L1698 434M1668 422L1702 488M1698 434L1680 531M1698 434L1702 488M1823 466L1864 407M1823 466L1799 490M1823 466L1863 481M1864 407L1930 460M1864 407L1799 490M1864 407L1863 481M1930 460L2035 450M1930 460L1863 481M1930 460L1983 525M2035 450L1983 525M2035 450L2045 529M2035 450L2096 523M2147 472L2214 468M2147 472L2096 523M2147 472L2155 560M2214 468L2252 428M2214 468L2220 541M2214 468L2244 528M2336 476L2360 508M2336 476L2430 511M2467 442L2541 415M2467 442L2430 511M2467 442L2529 498M2541 415L2529 498M45 509L105 549M45 509L-31 498M45 509L37 560M45 509L98 578M2605 509L2529 498M105 549L187 519M105 549L37 560M105 549L98 578M187 519L98 578M289 480L326 492M289 480L315 569M326 492L315 569M326 492L346 579M456 540L524 512M456 540L456 603M456 540L506 595M524 512L588 537M524 512L506 595M588 537L673 520M588 537L506 595M588 537L607 636M588 537L690 561M673 520L690 561M821 560L885 514M821 560L763 630M821 560L819 582M821 560L908 594M885 514L819 582M885 514L908 594M984 505L1078 493M984 505L977 624M1078 493L1171 481M1078 493L1110 600M1171 481L1179 576M1274 532L1301 532M1274 532L1179 576M1274 532L1256 600M1274 532L1327 601M1274 532L1258 650M1301 532L1256 600M1301 532L1327 601M1440 492L1518 519M1518 519L1583 503M1518 519L1524 577M1583 503L1680 531M1583 503L1644 591M1680 531L1702 488M1680 531L1644 591M1680 531L1682 579M1702 488L1799 490M1702 488L1682 579M1799 490L1863 481M1799 490L1870 574M1863 481L1870 574M1983 525L2045 529M1983 525L1946 577M2045 529L2096 523M2045 529L1946 577M2045 529L2007 632M2096 523L2155 560M2220 541L2244 528M2220 541L2155 560M2220 541L2217 630M2220 541L2280 569M2244 528L2280 569M2360 508L2430 511M2360 508L2280 569M2360 508L2322 607M2430 511L2529 498M2430 511L2489 601M2529 498L2597 560M-31 498L37 560M37 560L98 578M37 560L-71 601M2597 560L2489 601M220 629L142 691M220 629L232 641M220 629L264 643M220 629L179 721M315 569L346 579M315 569L232 641M315 569L264 643M346 579L456 603M346 579L264 643M346 579L346 678M456 603L506 595M456 603L460 689M506 595L460 689M607 636L690 561M607 636L569 689M607 636L669 643M690 561L669 643M763 630L819 582M763 630L669 643M763 630L728 710M763 630L833 670M819 582L908 594M819 582L833 670M908 594L977 624M908 594L932 642M977 624L932 642M977 624L1001 689M977 624L1042 684M1110 600L1179 576M1110 600L1042 684M1110 600L1172 650M1110 600L1133 724M1179 576L1256 600M1179 576L1172 650M1256 600L1327 601M1256 600L1258 650M1327 601L1392 607M1327 601L1379 660M1392 607L1463 606M1392 607L1379 660M1463 606L1524 577M1463 606L1379 660M1463 606L1491 642M1463 606L1530 651M1524 577L1491 642M1524 577L1530 651M1644 591L1682 579M1644 591L1622 660M1644 591L1696 690M1682 579L1622 660M1682 579L1696 690M1803 598L1870 574M1803 598L1829 644M1803 598L1845 704M1870 574L1946 577M1870 574L1829 644M1946 577L2007 632M2007 632L1974 716M2007 632L2011 702M2007 632L2066 725M2155 560L2217 630M2155 560L2154 659M2217 630L2280 569M2217 630L2154 659M2217 630L2204 700M2280 569L2322 607M2322 607L2315 682M2322 607L2322 705M2322 607L2405 701M2478 603L2489 601M2478 603L2544 695M2489 601L2544 695M38 696L-16 695M38 696L75 784M2598 696L2544 695M142 691L232 641M142 691L158 725M142 691L179 721M232 641L264 643M232 641L179 721M264 643L346 678M346 678L334 741M460 689L533 714M460 689L463 772M533 714L569 689M533 714L463 772M533 714L498 787M533 714L572 791M569 689L669 643M569 689L572 791M669 643L728 710M728 710L833 670M728 710L678 747M728 710L770 755M833 670L770 755M833 670L861 775M932 642L1001 689M1001 689L1042 684M1001 689L986 781M1001 689L1046 752M1042 684L1046 752M1042 684L1133 724M1172 650L1258 650M1172 650L1133 724M1258 650L1285 718M1285 718L1245 776M1285 718L1346 741M1379 660L1491 642M1379 660L1346 741M1491 642L1530 651M1491 642L1494 724M1530 651L1622 660M1530 651L1494 724M1622 660L1696 690M1622 660L1606 759M1696 690L1747 792M1696 690L1801 733M1829 644L1845 704M1829 644L1801 733M1845 704L1801 733M1845 704L1903 794M1845 704L1792 811M1974 716L2011 702M1974 716L1978 768M1974 716L2066 725M1974 716L2005 818M2011 702L1978 768M2011 702L2066 725M2154 659L2204 700M2154 659L2066 725M2154 659L2137 730M2204 700L2137 730M2204 700L2213 747M2204 700L2275 773M2315 682L2322 705M2315 682L2405 701M2315 682L2337 764M2322 705L2405 701M2322 705L2275 773M2322 705L2337 764M2405 701L2337 764M2405 701L2421 761M2544 695L2498 780M75 784L158 725M75 784L13 870M75 784L127 825M75 784L-21 807M2635 784L2539 807M158 725L179 721M158 725L127 825M179 721L261 788M261 788L334 741M261 788L203 839M261 788L281 874M261 788L329 862M334 741L329 862M334 741L432 819M463 772L498 787M463 772L432 819M463 772L517 804M498 787L572 791M498 787L432 819M498 787L517 804M572 791L517 804M572 791L626 828M678 747L770 755M678 747L626 828M678 747L711 807M770 755L861 775M770 755L711 807M861 775L931 762M861 775L812 855M861 775L881 873M931 762L986 781M931 762L1026 813M986 781L1046 752M986 781L1026 813M986 781L1089 818M1046 752L1026 813M1046 752L1089 818M1133 724L1195 821M1245 776L1195 821M1245 776L1276 855M1346 741L1432 789M1346 741L1353 816M1346 741L1395 816M1432 789L1494 724M1432 789L1353 816M1432 789L1395 816M1432 789L1449 849M1494 724L1566 783M1494 724L1606 759M1566 783L1606 759M1566 783L1561 836M1566 783L1677 803M1566 783L1603 882M1606 759L1561 836M1606 759L1677 803M1747 792L1801 733M1747 792L1677 803M1747 792L1732 802M1747 792L1792 811M1801 733L1792 811M1903 794L1978 768M1903 794L1897 834M1903 794L1927 849M1903 794L2005 818M1978 768L2005 818M2066 725L2137 730M2137 730L2213 747M2137 730L2154 831M2213 747L2275 773M2213 747L2154 831M2213 747L2306 814M2275 773L2337 764M2275 773L2306 814M2337 764L2306 814M2421 761L2498 780M2421 761L2446 843M2498 780L2446 843M2498 780L2539 807M13 870L-21 807M13 870L38 942M13 870L121 914M13 870L-25 959M2573 870L2539 807M2573 870L2535 959M127 825L203 839M127 825L121 914M127 825L187 916M203 839L281 874M203 839L187 916M281 874L329 862M281 874L287 926M329 862L287 926M329 862L368 947M432 819L517 804M432 819L435 908M517 804L551 891M626 828L711 807M626 828L588 929M711 807L730 852M711 807L767 882M730 852L812 855M730 852L658 937M730 852L767 882M812 855L881 873M812 855L767 882M812 855L855 904M881 873L855 904M881 873L901 952M1026 813L1089 818M1026 813L1076 890M1089 818L1195 821M1089 818L1076 890M1195 821L1276 855M1195 821L1258 894M1276 855L1353 816M1276 855L1258 894M1276 855L1308 958M1353 816L1395 816M1353 816L1449 849M1395 816L1449 849M1395 816L1369 909M1449 849L1369 909M1449 849L1503 882M1561 836L1503 882M1561 836L1536 908M1561 836L1603 882M1677 803L1732 802M1732 802L1792 811M1792 811L1830 917M1897 834L1927 849M1897 834L1830 917M1897 834L1888 895M1927 849L2005 818M1927 849L1888 895M1927 849L1955 921M2005 818L2062 885M2154 831L2221 874M2154 831L2062 885M2154 831L2104 928M2221 874L2306 814M2221 874L2331 870M2221 874L2237 909M2306 814L2331 870M2331 870L2237 909M2331 870L2312 928M2331 870L2360 941M2446 843L2539 807M2446 843L2462 918M38 942L121 914M38 942L-25 959M38 942L60 1040M38 942L-26 981M2598 942L2535 959M2598 942L2534 981M121 914L187 916M121 914L195 983M187 916L287 926M187 916L195 983M287 926L368 947M368 947L435 908M368 947L368 1009M368 947L423 1015M435 908L487 993M551 891L588 929M588 929L658 937M588 929L487 993M588 929L566 984M658 937L566 984M658 937L715 985M658 937L759 984M767 882L855 904M855 904L901 952M901 952L836 1014M901 952L935 1013M993 921L1076 890M993 921L998 1009M993 921L1053 978M1076 890L1134 932M1076 890L1053 978M1134 932L1053 978M1134 932L1191 965M1134 932L1210 1009M1258 894L1308 958M1258 894L1191 965M1308 958L1369 909M1308 958L1210 1009M1308 958L1347 980M1369 909L1347 980M1503 882L1536 908M1503 882L1603 882M1503 882L1522 972M1536 908L1603 882M1536 908L1522 972M1603 882L1673 964M1708 939L1673 964M1708 939L1748 1015M1708 939L1760 1008M1830 917L1888 895M1830 917L1760 1008M1830 917L1883 1003M1888 895L1955 921M1888 895L1924 981M1955 921L1883 1003M1955 921L1924 981M1955 921L2010 988M2062 885L2104 928M2062 885L2010 988M2062 885L2131 989M2104 928L2010 988M2104 928L2131 989M2104 928L2092 1049M2237 909L2312 928M2237 909L2206 994M2237 909L2313 980M2312 928L2360 941M2312 928L2313 980M2312 928L2360 997M2360 941L2313 980M2360 941L2360 997M2360 941L2453 970M2462 918L2535 959M2462 918L2453 970M2462 918L2534 981M2535 959L2453 970M2535 959L2534 981M60 1040L105 1026M60 1040L-26 981M60 1040L74 1078M60 1040L108 1059M2620 1040L2534 981M105 1026L195 983M105 1026L74 1078M105 1026L108 1059M195 983L252 1021M195 983L216 1058M252 1021L216 1058M252 1021L294 1083M368 1009L423 1015M368 1009L377 1072M368 1009L405 1077M423 1015L487 993M423 1015L377 1072M423 1015L405 1077M487 993L566 984M487 993L520 1052M566 984L520 1052M566 984L566 1074M715 985L759 984M715 985L717 1077M759 984L836 1014M759 984L717 1077M759 984L814 1049M836 1014L935 1013M836 1014L814 1049M935 1013L998 1009M935 1013L955 1072M935 1013L1001 1078M998 1009L1053 978M998 1009L955 1072M998 1009L1001 1078M1191 965L1210 1009M1210 1009L1140 1070M1210 1009L1251 1096M1347 980L1427 996M1347 980L1338 1094M1427 996L1507 1013M1427 996L1522 972M1427 996L1400 1083M1507 1013L1522 972M1507 1013L1470 1090M1507 1013L1544 1041M1522 972L1544 1041M1673 964L1748 1015M1673 964L1760 1008M1748 1015L1760 1008M1748 1015L1756 1114M1760 1008L1756 1114M1883 1003L1924 981M1883 1003L1886 1119M1883 1003L1928 1110M1924 981L2010 988M2010 988L2092 1049M2131 989L2206 994M2131 989L2063 1081M2131 989L2092 1049M2206 994L2313 980M2313 980L2360 997M2360 997L2453 970M2360 997L2362 1082M2453 970L2534 981M74 1078L108 1059M74 1078L7 1157M74 1078L88 1146M108 1059L88 1146M216 1058L294 1083M216 1058L183 1159M216 1058L241 1125M294 1083L377 1072M294 1083L241 1125M294 1083L327 1172M377 1072L405 1077M377 1072L327 1172M405 1077L520 1052M405 1077L478 1165M520 1052L566 1074M717 1077L786 1119M717 1077L814 1049M717 1077L693 1181M786 1119L814 1049M786 1119L788 1170M786 1119L827 1154M955 1072L1001 1078M955 1072L1015 1136M1001 1078L1015 1136M1001 1078L1044 1153M1083 1113L1140 1070M1083 1113L1015 1136M1083 1113L1044 1153M1083 1113L1134 1141M1140 1070L1251 1096M1140 1070L1134 1141M1140 1070L1224 1155M1251 1096L1338 1094M1251 1096L1224 1155M1251 1096L1303 1195M1338 1094L1400 1083M1338 1094L1303 1195M1338 1094L1335 1208M1400 1083L1470 1090M1470 1090L1544 1041M1470 1090L1517 1128M1544 1041L1613 1119M1544 1041L1517 1128M1613 1119L1566 1158M1613 1119L1642 1156M1756 1114L1818 1107M1756 1114L1739 1198M1756 1114L1779 1154M1818 1107L1886 1119M1818 1107L1928 1110M1818 1107L1779 1154M1886 1119L1928 1110M1886 1119L1866 1199M1886 1119L1951 1184M1928 1110L1951 1184M1928 1110L2016 1155M2063 1081L2092 1049M2063 1081L2016 1155M2063 1081L2145 1159M2092 1049L2195 1116M2195 1116L2260 1092M2195 1116L2145 1159M2195 1116L2238 1188M2195 1116L2215 1207M2362 1082L2452 1066M2362 1082L2368 1142M2452 1066L2492 1094M2452 1066L2368 1142M2452 1066L2435 1149M2492 1094L2567 1157M2492 1094L2435 1149M2492 1094L2522 1161M-68 1094L7 1157M7 1157L88 1146M7 1157L-38 1161M7 1157L-2 1212M2567 1157L2522 1161M2567 1157L2558 1212M88 1146L183 1159M183 1159L241 1125M183 1159L158 1241M183 1159L179 1211M241 1125L327 1172M241 1125L179 1211M327 1172L260 1261M327 1172L344 1237M478 1165L513 1182M478 1165L479 1206M478 1165L511 1201M513 1182L479 1206M513 1182L511 1201M513 1182L580 1207M513 1182L459 1292M634 1186L693 1181M634 1186L580 1207M634 1186L671 1258M693 1181L788 1170M693 1181L671 1258M788 1170L827 1154M788 1170L767 1264M788 1170L843 1233M827 1154L887 1195M827 1154L843 1233M827 1154L928 1212M887 1195L843 1233M887 1195L928 1212M887 1195L855 1281M1015 1136L1044 1153M1015 1136L928 1212M1044 1153L1134 1141M1134 1141L1224 1155M1224 1155L1303 1195M1224 1155L1268 1249M1303 1195L1268 1249M1303 1195L1335 1208M1435 1186L1517 1128M1435 1186L1335 1208M1435 1186L1425 1257M1435 1186L1514 1230M1435 1186L1435 1286M1517 1128L1566 1158M1517 1128L1514 1230M1566 1158L1642 1156M1566 1158L1514 1230M1642 1156L1644 1221M1642 1156L1688 1232M1739 1198L1779 1154M1739 1198L1644 1221M1739 1198L1688 1232M1739 1198L1828 1254M1866 1199L1828 1254M1866 1199L1883 1231M1866 1199L1953 1242M1951 1184L2016 1155M1951 1184L1953 1242M1951 1184L2010 1261M2016 1155L2010 1261M2145 1159L2238 1188M2145 1159L2087 1219M2145 1159L2215 1207M2238 1188L2304 1173M2238 1188L2215 1207M2238 1188L2286 1261M2304 1173L2368 1142M2304 1173L2215 1207M2304 1173L2286 1261M2304 1173L2372 1232M2368 1142L2435 1149M2368 1142L2372 1232M2435 1149L2522 1161M2435 1149L2372 1232M2522 1161L2558 1212M9 1277L-2 1212M9 1277L4 1319M9 1277L-42 1358M2569 1277L2558 1212M2569 1277L2518 1358M158 1241L179 1211M158 1241L131 1324M158 1241L177 1304M179 1211L260 1261M179 1211L177 1304M260 1261L344 1237M260 1261L177 1304M260 1261L313 1290M344 1237L313 1290M344 1237L367 1306M479 1206L511 1201M479 1206L580 1207M479 1206L459 1292M511 1201L580 1207M511 1201L459 1292M580 1207L671 1258M671 1258L767 1264M671 1258L699 1336M767 1264L843 1233M767 1264L776 1351M767 1264L855 1281M843 1233L855 1281M928 1212L982 1278M928 1212L855 1281M982 1278L1083 1278M982 1278L992 1344M982 1278L1042 1343M1083 1278L1178 1275M1083 1278L1042 1343M1083 1278L1136 1321M1083 1278L1053 1362M1178 1275L1268 1249M1178 1275L1136 1321M1178 1275L1216 1356M1178 1275L1122 1394M1268 1249L1335 1208M1268 1249L1313 1305M1335 1208L1425 1257M1425 1257L1435 1286M1425 1257L1443 1303M1514 1230L1593 1259M1514 1230L1586 1292M1593 1259L1644 1221M1593 1259L1688 1232M1593 1259L1586 1292M1593 1259L1626 1325M1644 1221L1688 1232M1644 1221L1586 1292M1828 1254L1883 1231M1828 1254L1763 1315M1828 1254L1891 1290M1883 1231L1953 1242M1883 1231L1891 1290M1953 1242L2010 1261M1953 1242L1891 1290M2010 1261L2087 1219M2010 1261L2053 1355M2087 1219L2132 1290M2215 1207L2286 1261M2286 1261L2372 1232M2286 1261L2304 1351M2372 1232L2428 1270M2428 1270L2356 1323M2428 1270L2420 1346M2558 1212L2564 1319M-2 1212L4 1319M4 1319L-42 1358M4 1319L18 1384M4 1319L-67 1363M2564 1319L2518 1358M2564 1319L2493 1363M131 1324L177 1304M131 1324L119 1409M131 1324L160 1408M177 1304L160 1408M313 1290L367 1306M313 1290L292 1411M367 1306L459 1292M367 1306L356 1401M459 1292L491 1357M491 1357L592 1355M491 1357L418 1422M491 1357L541 1394M592 1355L699 1336M592 1355L541 1394M592 1355L575 1436M699 1336L776 1351M699 1336L708 1425M699 1336L745 1385M776 1351L745 1385M776 1351L824 1390M855 1281L893 1356M893 1356L824 1390M893 1356L931 1392M992 1344L1042 1343M992 1344L931 1392M992 1344L1009 1401M992 1344L1053 1362M1042 1343L1009 1401M1042 1343L1053 1362M1136 1321L1216 1356M1136 1321L1122 1394M1216 1356L1260 1405M1216 1356L1294 1372M1313 1305L1435 1286M1313 1305L1294 1372M1435 1286L1443 1303M1443 1303L1414 1410M1443 1303L1510 1387M1586 1292L1626 1325M1586 1292L1510 1387M1626 1325L1733 1351M1626 1325L1665 1402M1626 1325L1696 1386M1733 1351L1763 1315M1733 1351L1665 1402M1733 1351L1696 1386M1733 1351L1795 1390M1763 1315L1795 1390M1891 1290L1930 1350M1930 1350L1882 1440M1930 1350L1962 1418M2053 1355L2132 1290M2053 1355L2006 1432M2053 1355L2117 1361M2132 1290L2189 1343M2132 1290L2117 1361M2132 1290L2205 1365M2189 1343L2117 1361M2189 1343L2205 1365M2189 1343L2248 1412M2304 1351L2356 1323M2304 1351L2205 1365M2304 1351L2248 1412M2304 1351L2357 1428M2356 1323L2420 1346M2420 1346L2493 1363M2518 1358L2578 1384M2518 1358L2462 1438M2518 1358L2493 1363M-42 1358L18 1384M18 1384L119 1409M18 1384L-67 1363M2578 1384L2493 1363M119 1409L160 1408M292 1411L356 1401M292 1411L418 1422M356 1401L418 1422M541 1394L575 1436M708 1425L745 1385M745 1385L824 1390M931 1392L1009 1401M1009 1401L1053 1362M1053 1362L1122 1394M1260 1405L1294 1372M1414 1410L1510 1387M1414 1410L1528 1429M1510 1387L1528 1429M1665 1402L1696 1386M1696 1386L1795 1390M1882 1440L1962 1418M1962 1418L2006 1432M2117 1361L2205 1365M2205 1365L2248 1412M2248 1412L2357 1428M2357 1428L2462 1438M2462 1438L2493 1363"/></svg>