<svg xmlns="http://www.w3.org/2000/svg" width="2560" height="1440" fill="#fff"><circle cx="11" cy="53" r="6"/><circle cx="151" cy="46" r="5"/><circle cx="204" cy="7" r="5"/><circle cx="264" cy="43" r="5"/><circle cx="345" cy="34" r="6"/><circle cx="461" cy="5" r="5"/><circle cx="537" cy="56" r="6"/><circle cx="602" cy="18" r="6"/><circle cx="699" cy="70" r="5"/><circle cx="750" cy="43" r="5"/><circle cx="843" cy="35" r="6"/><circle cx="924" cy="61" r="5"/><circle cx="1036" cy="78" r="6"/><circle cx="1053" cy="59" r="5"/><circle cx="1165" cy="72" r="5"/><circle cx="1250" cy="34" r="5"/><circle cx="1331" cy="63" r="5"/><circle cx="1366" cy="28" r="5"/><circle cx="1466" cy="67" r="4"/><circle cx="1522" cy="0" r="4"/><circle cx="1522" cy="1440" r="4"/><circle cx="1672" cy="77" r="5"/><circle cx="1742" cy="53" r="5"/><circle cx="1821" cy="44" r="6"/><circle cx="1840" cy="56" r="5"/><circle cx="1976" cy="29" r="5"/><circle cx="2053" cy="14" r="5"/><circle cx="2093" cy="53" r="4"/><circle cx="2224" cy="40" r="5"/><circle cx="2244" cy="34" r="5"/><circle cx="2398" cy="47" r="6"/><circle cx="2412" cy="51" r="5"/><circle cx="2530" cy="66" r="5"/><circle cx="21" cy="121" r="5"/><circle cx="95" cy="96" r="5"/><circle cx="191" cy="93" r="5"/><circle cx="271" cy="85" r="6"/><circle cx="385" cy="81" r="5"/><circle cx="439" cy="110" r="5"/><circle cx="539" cy="118" r="4"/><circle cx="567" cy="127" r="5"/><circle cx="643" cy="147" r="6"/><circle cx="769" cy="159" r="5"/><circle cx="865" cy="111" r="6"/><circle cx="940" cy="125" r="5"/><circle cx="965" cy="121" r="6"/><circle cx="1098" cy="124" r="5"/><circle cx="1129" cy="102" r="5"/><circle cx="1242" cy="132" r="4"/><circle cx="1329" cy="144" r="4"/><circle cx="1390" cy="107" r="5"/><circle cx="1510" cy="125" r="5"/><circle cx="1544" cy="148" r="5"/><circle cx="1639" cy="148" r="5"/><circle cx="1715" cy="118" r="4"/><circle cx="1836" cy="140" r="5"/><circle cx="1889" cy="143" r="4"/><circle cx="1977" cy="142" r="6"/><circle cx="2043" cy="81" r="6"/><circle cx="2088" cy="93" r="5"/><circle cx="2218" cy="95" r="6"/><circle cx="2274" cy="112" r="5"/><circle cx="2358" cy="118" r="5"/><circle cx="2438" cy="105" r="5"/><circle cx="2514" cy="83" r="6"/><circle cx="80" cy="168" r="5"/><circle cx="103" cy="229" r="4"/><circle cx="218" cy="192" r="5"/><circle cx="258" cy="205" r="4"/><circle cx="373" cy="235" r="5"/><circle cx="477" cy="220" r="5"/><circle cx="524" cy="211" r="6"/><circle cx="590" cy="172" r="5"/><circle cx="660" cy="192" r="4"/><circle cx="772" cy="181" r="4"/><circle cx="877" cy="218" r="4"/><circle cx="952" cy="172" r="5"/><circle cx="1027" cy="216" r="4"/><circle cx="1057" cy="176" r="6"/><circle cx="1191" cy="170" r="5"/><circle cx="1258" cy="222" r="4"/><circle cx="1347" cy="210" r="5"/><circle cx="1423" cy="185" r="5"/><circle cx="1479" cy="235" r="5"/><circle cx="1529" cy="218" r="4"/><circle cx="1655" cy="223" r="5"/><circle cx="1757" cy="237" r="6"/><circle cx="1794" cy="222" r="4"/><circle cx="1877" cy="225" r="4"/><circle cx="1962" cy="233" r="4"/><circle cx="2019" cy="178" r="5"/><circle cx="2141" cy="166" r="6"/><circle cx="2178" cy="234" r="5"/><circle cx="2302" cy="212" r="5"/><circle cx="2329" cy="231" r="5"/><circle cx="2402" cy="226" r="5"/><circle cx="2511" cy="209" r="5"/><circle cx="29" cy="252" r="5"/><circle cx="118" cy="297" r="6"/><circle cx="237" cy="300" r="4"/><circle cx="261" cy="287" r="5"/><circle cx="390" cy="317" r="5"/><circle cx="478" cy="242" r="5"/><circle cx="502" cy="313" r="6"/><circle cx="599" cy="275" r="4"/><circle cx="673" cy="284" r="5"/><circle cx="766" cy="284" r="5"/><circle cx="838" cy="268" r="5"/><circle cx="902" cy="250" r="5"/><circle cx="995" cy="281" r="5"/><circle cx="1089" cy="318" r="6"/><circle cx="1185" cy="285" r="4"/><circle cx="1252" cy="265" r="4"/><circle cx="1359" cy="252" r="5"/><circle cx="1380" cy="317" r="4"/><circle cx="1452" cy="247" r="4"/><circle cx="1530" cy="288" r="5"/><circle cx="1628" cy="290" r="6"/><circle cx="1714" cy="273" r="5"/><circle cx="1819" cy="269" r="5"/><circle cx="1891" cy="318" r="4"/><circle cx="1933" cy="307" r="5"/><circle cx="2078" cy="314" r="5"/><circle cx="2138" cy="292" r="4"/><circle cx="2174" cy="258" r="6"/><circle cx="2304" cy="264" r="6"/><circle cx="2383" cy="286" r="4"/><circle cx="2406" cy="307" r="4"/><circle cx="2547" cy="260" r="5"/><circle cx="62" cy="386" r="5"/><circle cx="104" cy="341" r="5"/><circle cx="171" cy="379" r="4"/><circle cx="292" cy="356" r="5"/><circle cx="374" cy="371" r="6"/><circle cx="463" cy="398" r="4"/><circle cx="559" cy="344" r="4"/><circle cx="620" cy="370" r="6"/><circle cx="679" cy="341" r="5"/><circle cx="750" cy="367" r="6"/><circle cx="851" cy="371" r="6"/><circle cx="950" cy="399" r="4"/><circle cx="983" cy="382" r="4"/><circle cx="1104" cy="370" r="4"/><circle cx="1174" cy="376" r="5"/><circle cx="1240" cy="350" r="5"/><circle cx="1291" cy="332" r="4"/><circle cx="1380" cy="368" r="5"/><circle cx="1445" cy="363" r="4"/><circle cx="1579" cy="388" r="6"/><circle cx="1637" cy="375" r="4"/><circle cx="1705" cy="387" r="6"/><circle cx="1765" cy="337" r="4"/><circle cx="1889" cy="375" r="6"/><circle cx="1997" cy="395" r="5"/><circle cx="2045" cy="377" r="5"/><circle cx="2134" cy="323" r="5"/><circle cx="2202" cy="329" r="5"/><circle cx="2277" cy="357" r="6"/><circle cx="2389" cy="356" r="4"/><circle cx="2423" cy="354" r="6"/><circle cx="2513" cy="353" r="6"/><circle cx="73" cy="430" r="5"/><circle cx="134" cy="468" r="6"/><circle cx="182" cy="423" r="6"/><circle cx="317" cy="461" r="5"/><circle cx="392" cy="430" r="5"/><circle cx="437" cy="454" r="5"/><circle cx="513" cy="427" r="5"/><circle cx="635" cy="477" r="4"/><circle cx="654" cy="434" r="6"/><circle cx="745" cy="470" r="4"/><circle cx="837" cy="436" r="5"/><circle cx="925" cy="402" r="4"/><circle cx="1007" cy="423" r="5"/><circle cx="1052" cy="434" r="5"/><circle cx="1143" cy="409" r="6"/><circle cx="1267" cy="451" r="4"/><circle cx="1303" cy="451" r="6"/><circle cx="1380" cy="468" r="4"/><circle cx="1460" cy="407" r="4"/><circle cx="1590" cy="439" r="5"/><circle cx="1645" cy="455" r="5"/><circle cx="1757" cy="422" r="5"/><circle cx="1813" cy="477" r="6"/><circle cx="1896" cy="475" r="5"/><circle cx="1990" cy="443" r="4"/><circle cx="2007" cy="432" r="6"/><circle cx="2080" cy="448" r="4"/><circle cx="2166" cy="424" r="5"/><circle cx="2312" cy="437" r="5"/><circle cx="2396" cy="414" r="5"/><circle cx="2402" cy="442" r="4"/><circle cx="2558" cy="430" r="5"/><circle cx="-2" cy="430" r="5"/><circle cx="12" cy="526" r="5"/><circle cx="87" cy="508" r="5"/><circle cx="224" cy="517" r="5"/><circle cx="293" cy="521" r="5"/><circle cx="360" cy="486" r="4"/><circle cx="446" cy="493" r="5"/><circle cx="541" cy="544" r="5"/><circle cx="629" cy="498" r="5"/><circle cx="664" cy="525" r="5"/><circle cx="763" cy="501" r="6"/><circle cx="820" cy="516" r="6"/><circle cx="936" cy="481" r="4"/><circle cx="1014" cy="498" r="5"/><circle cx="1120" cy="509" r="6"/><circle cx="1134" cy="518" r="5"/><circle cx="1229" cy="534" r="5"/><circle cx="1329" cy="507" r="4"/><circle cx="1439" cy="557" r="5"/><circle cx="1474" cy="519" r="4"/><circle cx="1532" cy="528" r="6"/><circle cx="1672" cy="549" r="5"/><circle cx="1692" cy="506" r="5"/><circle cx="1787" cy="495" r="6"/><circle cx="1914" cy="546" r="5"/><circle cx="1979" cy="558" r="5"/><circle cx="2003" cy="499" r="5"/><circle cx="2102" cy="508" r="4"/><circle cx="2182" cy="532" r="4"/><circle cx="2267" cy="510" r="6"/><circle cx="2391" cy="546" r="5"/><circle cx="2440" cy="534" r="6"/><circle cx="2525" cy="556" r="5"/><circle cx="69" cy="567" r="6"/><circle cx="134" cy="629" r="6"/><circle cx="173" cy="630" r="6"/><circle cx="258" cy="606" r="5"/><circle cx="377" cy="608" r="5"/><circle cx="402" cy="607" r="5"/><circle cx="498" cy="640" r="6"/><circle cx="606" cy="585" r="5"/><circle cx="642" cy="627" r="6"/><circle cx="728" cy="587" r="4"/><circle cx="800" cy="611" r="6"/><circle cx="888" cy="578" r="5"/><circle cx="963" cy="625" r="5"/><circle cx="1060" cy="613" r="5"/><circle cx="1179" cy="634" r="5"/><circle cx="1216" cy="575" r="5"/><circle cx="1329" cy="592" r="5"/><circle cx="1427" cy="573" r="4"/><circle cx="1448" cy="608" r="5"/><circle cx="1537" cy="574" r="4"/><circle cx="1608" cy="609" r="4"/><circle cx="1691" cy="613" r="5"/><circle cx="1839" cy="627" r="5"/><circle cx="1881" cy="588" r="5"/><circle cx="1996" cy="623" r="4"/><circle cx="2045" cy="640" r="6"/><circle cx="2128" cy="561" r="6"/><circle cx="2177" cy="625" r="5"/><circle cx="2240" cy="627" r="4"/><circle cx="2395" cy="575" r="6"/><circle cx="2453" cy="586" r="5"/><circle cx="2551" cy="601" r="6"/><circle cx="49" cy="695" r="6"/><circle cx="154" cy="664" r="5"/><circle cx="219" cy="667" r="5"/><circle cx="318" cy="672" r="6"/><circle cx="342" cy="647" r="5"/><circle cx="476" cy="718" r="6"/><circle cx="513" cy="709" r="4"/><circle cx="625" cy="655" r="5"/><circle cx="689" cy="705" r="5"/><circle cx="777" cy="659" r="5"/><circle cx="851" cy="664" r="5"/><circle cx="922" cy="662" r="6"/><circle cx="993" cy="692" r="5"/><circle cx="1084" cy="658" r="4"/><circle cx="1155" cy="712" r="5"/><circle cx="1279" cy="674" r="5"/><circle cx="1315" cy="647" r="4"/><circle cx="1394" cy="711" r="6"/><circle cx="1492" cy="645" r="5"/><circle cx="1556" cy="706" r="5"/><circle cx="1608" cy="694" r="6"/><circle cx="1690" cy="686" r="4"/><circle cx="1806" cy="679" r="5"/><circle cx="1853" cy="719" r="5"/><circle cx="1922" cy="670" r="5"/><circle cx="2073" cy="652" r="4"/><circle cx="2147" cy="706" r="5"/><circle cx="2170" cy="668" r="5"/><circle cx="2274" cy="644" r="4"/><circle cx="2388" cy="683" r="5"/><circle cx="2442" cy="666" r="5"/><circle cx="2494" cy="656" r="5"/><circle cx="1" cy="720" r="5"/><circle cx="2561" cy="720" r="5"/><circle cx="109" cy="762" r="5"/><circle cx="196" cy="760" r="5"/><circle cx="315" cy="755" r="4"/><circle cx="390" cy="789" r="6"/><circle cx="458" cy="757" r="6"/><circle cx="546" cy="734" r="5"/><circle cx="586" cy="767" r="4"/><circle cx="695" cy="747" r="5"/><circle cx="737" cy="736" r="4"/><circle cx="830" cy="740" r="5"/><circle cx="917" cy="738" r="6"/><circle cx="984" cy="788" r="5"/><circle cx="1051" cy="767" r="5"/><circle cx="1187" cy="731" r="6"/><circle cx="1255" cy="740" r="4"/><circle cx="1283" cy="792" r="5"/><circle cx="1378" cy="789" r="5"/><circle cx="1447" cy="734" r="5"/><circle cx="1535" cy="743" r="5"/><circle cx="1672" cy="779" r="4"/><circle cx="1726" cy="740" r="5"/><circle cx="1832" cy="731" r="5"/><circle cx="1886" cy="791" r="6"/><circle cx="1980" cy="754" r="6"/><circle cx="2068" cy="781" r="4"/><circle cx="2153" cy="745" r="5"/><circle cx="2235" cy="748" r="4"/><circle cx="2309" cy="769" r="5"/><circle cx="2364" cy="722" r="5"/><circle cx="2473" cy="748" r="4"/><circle cx="2534" cy="795" r="5"/><circle cx="0" cy="820" r="5"/><circle cx="2560" cy="820" r="5"/><circle cx="81" cy="835" r="5"/><circle cx="192" cy="815" r="5"/><circle cx="252" cy="851" r="6"/><circle cx="373" cy="806" r="5"/><circle cx="431" cy="821" r="4"/><circle cx="505" cy="819" r="6"/><circle cx="614" cy="832" r="5"/><circle cx="644" cy="801" r="5"/><circle cx="723" cy="829" r="4"/><circle cx="868" cy="814" r="5"/><circle cx="928" cy="841" r="4"/><circle cx="1035" cy="866" r="5"/><circle cx="1107" cy="818" r="4"/><circle cx="1183" cy="871" r="4"/><circle cx="1232" cy="807" r="6"/><circle cx="1351" cy="800" r="5"/><circle cx="1394" cy="871" r="4"/><circle cx="1487" cy="843" r="4"/><circle cx="1567" cy="802" r="5"/><circle cx="1605" cy="827" r="5"/><circle cx="1703" cy="880" r="4"/><circle cx="1762" cy="866" r="5"/><circle cx="1874" cy="875" r="4"/><circle cx="1957" cy="869" r="5"/><circle cx="2044" cy="872" r="5"/><circle cx="2133" cy="829" r="6"/><circle cx="2201" cy="854" r="4"/><circle cx="2253" cy="840" r="5"/><circle cx="2327" cy="826" r="5"/><circle cx="2433" cy="838" r="5"/><circle cx="2502" cy="871" r="5"/><circle cx="10" cy="898" r="5"/><circle cx="117" cy="941" r="5"/><circle cx="178" cy="920" r="6"/><circle cx="245" cy="896" r="6"/><circle cx="377" cy="904" r="5"/><circle cx="420" cy="930" r="6"/><circle cx="488" cy="959" r="5"/><circle cx="637" cy="919" r="5"/><circle cx="681" cy="946" r="6"/><circle cx="787" cy="938" r="4"/><circle cx="867" cy="929" r="5"/><circle cx="889" cy="927" r="6"/><circle cx="1011" cy="927" r="4"/><circle cx="1062" cy="883" r="5"/><circle cx="1129" cy="925" r="5"/><circle cx="1254" cy="899" r="6"/><circle cx="1352" cy="937" r="5"/><circle cx="1371" cy="911" r="5"/><circle cx="1457" cy="908" r="5"/><circle cx="1581" cy="900" r="5"/><circle cx="1634" cy="925" r="5"/><circle cx="1726" cy="954" r="6"/><circle cx="1770" cy="955" r="4"/><circle cx="1896" cy="954" r="6"/><circle cx="1935" cy="929" r="6"/><circle cx="2007" cy="935" r="4"/><circle cx="2143" cy="949" r="4"/><circle cx="2212" cy="914" r="6"/><circle cx="2266" cy="889" r="4"/><circle cx="2374" cy="930" r="4"/><circle cx="2450" cy="948" r="4"/><circle cx="2510" cy="886" r="4"/><circle cx="2" cy="1031" r="5"/><circle cx="2562" cy="1031" r="5"/><circle cx="108" cy="997" r="4"/><circle cx="220" cy="982" r="6"/><circle cx="265" cy="992" r="6"/><circle cx="369" cy="1000" r="5"/><circle cx="440" cy="1018" r="5"/><circle cx="522" cy="1011" r="5"/><circle cx="590" cy="970" r="5"/><circle cx="661" cy="1017" r="5"/><circle cx="757" cy="973" r="5"/><circle cx="839" cy="986" r="5"/><circle cx="900" cy="1027" r="4"/><circle cx="1017" cy="971" r="4"/><circle cx="1079" cy="1034" r="5"/><circle cx="1159" cy="997" r="4"/><circle cx="1277" cy="1032" r="6"/><circle cx="1296" cy="967" r="4"/><circle cx="1393" cy="1011" r="4"/><circle cx="1511" cy="981" r="5"/><circle cx="1582" cy="1005" r="5"/><circle cx="1605" cy="1038" r="5"/><circle cx="1739" cy="989" r="5"/><circle cx="1822" cy="1032" r="5"/><circle cx="1899" cy="1024" r="5"/><circle cx="1972" cy="979" r="5"/><circle cx="2062" cy="968" r="6"/><circle cx="2098" cy="983" r="6"/><circle cx="2190" cy="1031" r="5"/><circle cx="2285" cy="979" r="5"/><circle cx="2372" cy="963" r="5"/><circle cx="2448" cy="1014" r="5"/><circle cx="2530" cy="1040" r="5"/><circle cx="30" cy="1062" r="5"/><circle cx="159" cy="1078" r="6"/><circle cx="238" cy="1100" r="5"/><circle cx="295" cy="1046" r="6"/><circle cx="382" cy="1118" r="5"/><circle cx="403" cy="1076" r="5"/><circle cx="521" cy="1044" r="6"/><circle cx="615" cy="1040" r="5"/><circle cx="689" cy="1083" r="4"/><circle cx="764" cy="1107" r="5"/><circle cx="831" cy="1065" r="4"/><circle cx="923" cy="1095" r="6"/><circle cx="987" cy="1076" r="5"/><circle cx="1117" cy="1059" r="4"/><circle cx="1190" cy="1117" r="5"/><circle cx="1265" cy="1081" r="4"/><circle cx="1311" cy="1074" r="6"/><circle cx="1368" cy="1084" r="4"/><circle cx="1508" cy="1111" r="6"/><circle cx="1524" cy="1081" r="5"/><circle cx="1674" cy="1114" r="5"/><circle cx="1733" cy="1075" r="5"/><circle cx="1764" cy="1089" r="5"/><circle cx="1913" cy="1119" r="4"/><circle cx="1987" cy="1069" r="5"/><circle cx="2056" cy="1046" r="5"/><circle cx="2149" cy="1094" r="5"/><circle cx="2221" cy="1055" r="4"/><circle cx="2263" cy="1089" r="5"/><circle cx="2324" cy="1074" r="6"/><circle cx="2478" cy="1047" r="6"/><circle cx="2510" cy="1049" r="5"/><circle cx="73" cy="1152" r="5"/><circle cx="156" cy="1134" r="4"/><circle cx="237" cy="1145" r="5"/><circle cx="300" cy="1197" r="5"/><circle cx="327" cy="1177" r="5"/><circle cx="457" cy="1195" r="5"/><circle cx="490" cy="1166" r="6"/><circle cx="619" cy="1156" r="5"/><circle cx="709" cy="1167" r="4"/><circle cx="728" cy="1163" r="6"/><circle cx="831" cy="1137" r="5"/><circle cx="933" cy="1186" r="5"/><circle cx="1006" cy="1169" r="5"/><circle cx="1048" cy="1154" r="6"/><circle cx="1154" cy="1176" r="4"/><circle cx="1241" cy="1158" r="4"/><circle cx="1321" cy="1120" r="4"/><circle cx="1398" cy="1145" r="5"/><circle cx="1502" cy="1168" r="5"/><circle cx="1553" cy="1137" r="5"/><circle cx="1645" cy="1158" r="4"/><circle cx="1707" cy="1184" r="5"/><circle cx="1832" cy="1129" r="4"/><circle cx="1878" cy="1145" r="6"/><circle cx="1981" cy="1132" r="5"/><circle cx="2065" cy="1192" r="4"/><circle cx="2147" cy="1134" r="6"/><circle cx="2218" cy="1193" r="5"/><circle cx="2312" cy="1130" r="5"/><circle cx="2349" cy="1147" r="4"/><circle cx="2443" cy="1190" r="5"/><circle cx="2529" cy="1155" r="4"/><circle cx="2" cy="1216" r="6"/><circle cx="2562" cy="1216" r="6"/><circle cx="138" cy="1235" r="4"/><circle cx="194" cy="1269" r="4"/><circle cx="269" cy="1247" r="5"/><circle cx="332" cy="1219" r="5"/><circle cx="476" cy="1256" r="5"/><circle cx="484" cy="1232" r="4"/><circle cx="627" cy="1251" r="5"/><circle cx="692" cy="1272" r="5"/><circle cx="779" cy="1251" r="6"/><circle cx="804" cy="1251" r="6"/><circle cx="917" cy="1270" r="6"/><circle cx="1013" cy="1249" r="4"/><circle cx="1083" cy="1237" r="4"/><circle cx="1128" cy="1251" r="5"/><circle cx="1228" cy="1273" r="6"/><circle cx="1341" cy="1221" r="5"/><circle cx="1399" cy="1226" r="5"/><circle cx="1496" cy="1212" r="5"/><circle cx="1559" cy="1254" r="5"/><circle cx="1659" cy="1263" r="4"/><circle cx="1743" cy="1245" r="4"/><circle cx="1770" cy="1236" r="5"/><circle cx="1898" cy="1223" r="6"/><circle cx="1991" cy="1270" r="6"/><circle cx="2049" cy="1233" r="5"/><circle cx="2090" cy="1256" r="6"/><circle cx="2205" cy="1236" r="5"/><circle cx="2280" cy="1230" r="5"/><circle cx="2380" cy="1270" r="5"/><circle cx="2471" cy="1218" r="5"/><circle cx="2495" cy="1219" r="4"/><circle cx="57" cy="1293" r="6"/><circle cx="121" cy="1311" r="4"/><circle cx="165" cy="1313" r="5"/><circle cx="300" cy="1336" r="4"/><circle cx="342" cy="1343" r="5"/><circle cx="441" cy="1307" r="6"/><circle cx="557" cy="1334" r="4"/><circle cx="623" cy="1349" r="4"/><circle cx="683" cy="1300" r="5"/><circle cx="749" cy="1305" r="4"/><circle cx="865" cy="1309" r="6"/><circle cx="946" cy="1336" r="6"/><circle cx="1014" cy="1320" r="4"/><circle cx="1119" cy="1282" r="4"/><circle cx="1145" cy="1322" r="4"/><circle cx="1270" cy="1280" r="4"/><circle cx="1344" cy="1310" r="5"/><circle cx="1393" cy="1317" r="6"/><circle cx="1506" cy="1296" r="4"/><circle cx="1521" cy="1286" r="5"/><circle cx="1608" cy="1303" r="4"/><circle cx="1708" cy="1298" r="4"/><circle cx="1810" cy="1315" r="5"/><circle cx="1911" cy="1354" r="5"/><circle cx="1952" cy="1299" r="4"/><circle cx="2011" cy="1299" r="5"/><circle cx="2151" cy="1300" r="4"/><circle cx="2205" cy="1320" r="6"/><circle cx="2270" cy="1339" r="5"/><circle cx="2369" cy="1317" r="5"/><circle cx="2428" cy="1298" r="4"/><circle cx="2504" cy="1337" r="5"/><circle cx="75" cy="1385" r="5"/><circle cx="135" cy="1395" r="5"/><circle cx="180" cy="1410" r="4"/><circle cx="263" cy="1423" r="5"/><circle cx="341" cy="1413" r="6"/><circle cx="419" cy="1418" r="6"/><circle cx="521" cy="1437" r="6"/><circle cx="521" cy="-3" r="6"/><circle cx="582" cy="1388" r="4"/><circle cx="719" cy="1432" r="6"/><circle cx="787" cy="1437" r="6"/><circle cx="787" cy="-3" r="6"/><circle cx="864" cy="1370" r="5"/><circle cx="947" cy="1377" r="6"/><circle cx="990" cy="1383" r="5"/><circle cx="1088" cy="1403" r="4"/><circle cx="1185" cy="1390" r="5"/><circle cx="1222" cy="1394" r="4"/><circle cx="1348" cy="1397" r="6"/><circle cx="1390" cy="1408" r="4"/><circle cx="1507" cy="1392" r="6"/><circle cx="1539" cy="1378" r="4"/><circle cx="1636" cy="1396" r="5"/><circle cx="1689" cy="1394" r="6"/><circle cx="1831" cy="1435" r="5"/><circle cx="1873" cy="1370" r="5"/><circle cx="1965" cy="1369" r="4"/><circle cx="2022" cy="1397" r="6"/><circle cx="2093" cy="1407" r="5"/><circle cx="2171" cy="1373" r="5"/><circle cx="2248" cy="1415" r="5"/><circle cx="2363" cy="1436" r="5"/><circle cx="2363" cy="-4" r="5"/><circle cx="2429" cy="1400" r="5"/><circle cx="2520" cy="1374" r="5"/><path stroke="#fff" d="M11 53L-30 66M11 53L21 121M11 53L95 96M11 53L-46 83M2571 53L2530 66M2571 53L2514 83M151 46L204 7M151 46L95 96M151 46L191 93M151 46L135 -45M151 46L180 -30M151 1486L135 1395M151 1486L180 1410M204 7L264 43M204 7L135 -45M204 7L180 -30M204 7L263 -17M204 1447L135 1395M204 1447L180 1410M204 1447L263 1423M264 43L345 34M264 43L191 93M264 43L271 85M264 43L263 -17M264 1483L263 1423M345 34L271 85M345 34L385 81M345 34L341 -27M345 34L419 -22M345 1474L341 1413M345 1474L419 1418M461 5L537 56M461 5L385 81M461 5L439 110M461 5L419 -22M461 5L521 -3M461 1445L419 1418M461 1445L521 1437M537 56L602 18M537 56L539 118M537 56L567 127M537 56L521 -3M537 1496L521 1437M602 18L699 70M602 18L521 -3M602 18L582 -52M602 18L719 -8M602 1458L521 1437M602 1458L582 1388M602 1458L719 1432M699 70L750 43M699 70L643 147M699 70L719 -8M699 70L787 -3M699 1510L719 1432M699 1510L787 1437M750 43L843 35M750 43L769 159M750 43L719 -8M750 43L787 -3M750 1483L719 1432M750 1483L787 1437M843 35L924 61M843 35L865 111M843 35L787 -3M843 35L864 -70M843 1475L787 1437M843 1475L864 1370M924 61L865 111M924 61L940 125M924 61L965 121M1036 78L1053 59M1036 78L965 121M1036 78L1098 124M1036 78L1129 102M1036 78L1057 176M1053 59L1098 124M1053 59L1129 102M1053 59L1088 -37M1053 1499L1088 1403M1165 72L1250 34M1165 72L1098 124M1165 72L1129 102M1165 72L1242 132M1165 72L1191 170M1250 34L1331 63M1250 34L1242 132M1250 34L1185 -50M1250 34L1222 -46M1250 1474L1185 1390M1250 1474L1222 1394M1331 63L1366 28M1331 63L1329 144M1331 63L1390 107M1331 63L1348 -43M1331 1503L1348 1397M1366 28L1466 67M1366 28L1390 107M1366 28L1348 -43M1366 28L1390 -32M1366 1468L1348 1397M1366 1468L1390 1408M1466 67L1522 0M1466 67L1390 107M1466 67L1510 125M1522 0L1507 -48M1522 0L1539 -62M1522 0L1636 -44M1522 1440L1507 1392M1522 1440L1539 1378M1522 1440L1636 1396M1672 77L1742 53M1672 77L1639 148M1672 77L1715 118M1672 77L1689 -46M1672 1517L1689 1394M1742 53L1821 44M1742 53L1840 56M1742 53L1715 118M1742 53L1689 -46M1742 1493L1689 1394M1821 44L1840 56M1821 44L1836 140M1821 44L1831 -5M1821 44L1873 -70M1821 1484L1831 1435M1821 1484L1873 1370M1840 56L1836 140M1840 56L1889 143M1840 56L1831 -5M1840 1496L1831 1435M1976 29L2053 14M1976 29L1977 142M1976 29L2043 81M1976 29L2022 -43M1976 1469L2022 1397M2053 14L2093 53M2053 14L2043 81M2053 14L2022 -43M2053 14L2093 -33M2053 1454L2022 1397M2053 1454L2093 1407M2093 53L2043 81M2093 53L2088 93M2093 53L2093 -33M2093 1493L2093 1407M2224 40L2244 34M2224 40L2218 95M2224 40L2274 112M2224 40L2248 -25M2224 1480L2248 1415M2244 34L2218 95M2244 34L2274 112M2244 34L2248 -25M2244 34L2363 -4M2244 1474L2248 1415M2244 1474L2363 1436M2398 47L2412 51M2398 47L2358 118M2398 47L2438 105M2398 47L2363 -4M2398 47L2429 -40M2398 1487L2363 1436M2398 1487L2429 1400M2412 51L2358 118M2412 51L2438 105M2412 51L2363 -4M2412 51L2429 -40M2412 1491L2363 1436M2412 1491L2429 1400M2530 66L2581 121M2530 66L2438 105M2530 66L2514 83M-30 66L21 121M21 121L95 96M21 121L-46 83M21 121L80 168M2581 121L2514 83M95 96L191 93M95 96L80 168M191 93L271 85M191 93L218 192M271 85L218 192M271 85L263 -17M271 1525L263 1423M385 81L439 110M439 110L539 118M439 110L477 220M539 118L567 127M539 118L590 172M567 127L643 147M567 127L524 211M567 127L590 172M643 147L590 172M643 147L660 192M769 159L865 111M769 159L660 192M769 159L772 181M865 111L940 125M865 111L965 121M940 125L965 121M940 125L952 172M940 125L1057 176M965 121L952 172M1098 124L1129 102M1098 124L1057 176M1129 102L1191 170M1242 132L1329 144M1242 132L1191 170M1242 132L1258 222M1329 144L1390 107M1329 144L1347 210M1390 107L1423 185M1510 125L1544 148M1510 125L1529 218M1544 148L1639 148M1544 148L1479 235M1544 148L1529 218M1639 148L1715 118M1639 148L1655 223M1715 118L1655 223M1836 140L1889 143M1836 140L1794 222M1836 140L1877 225M1889 143L1977 142M1889 143L1877 225M1977 142L2043 81M1977 142L1962 233M1977 142L2019 178M2043 81L2088 93M2088 93L2218 95M2088 93L2019 178M2088 93L2141 166M2218 95L2274 112M2218 95L2141 166M2274 112L2358 118M2274 112L2302 212M2358 118L2438 105M2358 118L2302 212M2438 105L2514 83M2514 83L2511 209M80 168L103 229M80 168L29 252M103 229L29 252M103 229L118 297M218 192L258 205M218 192L237 300M218 192L261 287M258 205L237 300M258 205L261 287M373 235L477 220M373 235L261 287M373 235L390 317M373 235L478 242M477 220L524 211M477 220L478 242M477 220L502 313M524 211L590 172M524 211L478 242M524 211L502 313M590 172L660 192M660 192L599 275M660 192L673 284M772 181L877 218M772 181L766 284M772 181L838 268M877 218L952 172M877 218L838 268M877 218L902 250M952 172L1027 216M952 172L902 250M1027 216L1057 176M1027 216L995 281M1057 176L995 281M1191 170L1258 222M1258 222L1347 210M1258 222L1252 265M1347 210L1423 185M1347 210L1359 252M1423 185L1479 235M1423 185L1359 252M1423 185L1452 247M1479 235L1529 218M1479 235L1452 247M1479 235L1530 288M1529 218L1452 247M1529 218L1530 288M1655 223L1757 237M1655 223L1628 290M1655 223L1714 273M1757 237L1794 222M1757 237L1714 273M1757 237L1819 269M1757 237L1765 337M1794 222L1877 225M1794 222L1714 273M1794 222L1819 269M1877 225L1962 233M1877 225L1819 269M1962 233L2019 178M1962 233L1891 318M1962 233L1933 307M2019 178L2141 166M2141 166L2178 234M2141 166L2174 258M2178 234L2138 292M2178 234L2174 258M2178 234L2134 323M2178 234L2202 329M2302 212L2329 231M2302 212L2402 226M2302 212L2304 264M2329 231L2402 226M2329 231L2304 264M2329 231L2383 286M2402 226L2304 264M2402 226L2383 286M2402 226L2406 307M2511 209L2589 252M2511 209L2547 260M-49 209L29 252M29 252L118 297M29 252L-13 260M2589 252L2547 260M118 297L62 386M118 297L104 341M118 297L171 379M237 300L261 287M237 300L292 356M261 287L292 356M390 317L478 242M390 317L292 356M390 317L374 371M478 242L502 313M502 313L463 398M502 313L559 344M599 275L673 284M599 275L559 344M599 275L620 370M673 284L766 284M673 284L620 370M673 284L679 341M766 284L838 268M766 284L679 341M766 284L750 367M838 268L902 250M838 268L851 371M902 250L995 281M995 281L1089 318M995 281L983 382M1089 318L1185 285M1089 318L1104 370M1089 318L1174 376M1089 318L1143 409M1185 285L1252 265M1185 285L1174 376M1185 285L1240 350M1252 265L1240 350M1252 265L1291 332M1359 252L1380 317M1359 252L1452 247M1359 252L1291 332M1380 317L1291 332M1380 317L1380 368M1380 317L1445 363M1452 247L1530 288M1530 288L1628 290M1530 288L1579 388M1628 290L1714 273M1628 290L1579 388M1628 290L1637 375M1714 273L1765 337M1819 269L1891 318M1819 269L1765 337M1891 318L1933 307M1891 318L1889 375M1933 307L1889 375M2078 314L2138 292M2078 314L2045 377M2078 314L2134 323M2138 292L2174 258M2138 292L2134 323M2138 292L2202 329M2174 258L2134 323M2174 258L2202 329M2304 264L2383 286M2304 264L2277 357M2383 286L2406 307M2383 286L2423 354M2406 307L2389 356M2406 307L2423 354M2406 307L2396 414M2547 260L2513 353M62 386L104 341M62 386L73 430M62 386L-2 430M2622 386L2558 430M104 341L171 379M104 341L73 430M104 341L182 423M171 379L134 468M171 379L182 423M292 356L374 371M292 356L317 461M374 371L463 398M374 371L392 430M463 398L437 454M463 398L513 427M559 344L620 370M559 344L513 427M620 370L679 341M620 370L654 434M679 341L750 367M679 341L654 434M750 367L851 371M750 367L837 436M851 371L950 399M851 371L837 436M851 371L925 402M950 399L983 382M950 399L925 402M950 399L1007 423M950 399L936 481M983 382L925 402M983 382L1007 423M1104 370L1174 376M1104 370L1052 434M1104 370L1143 409M1174 376L1240 350M1174 376L1143 409M1240 350L1291 332M1291 332L1380 368M1380 368L1445 363M1380 368L1303 451M1380 368L1460 407M1445 363L1460 407M1579 388L1637 375M1579 388L1590 439M1579 388L1645 455M1637 375L1705 387M1637 375L1590 439M1637 375L1645 455M1705 387L1765 337M1705 387L1645 455M1705 387L1757 422M1705 387L1787 495M1765 337L1757 422M1889 375L1997 395M1889 375L1813 477M1889 375L1896 475M1997 395L2045 377M1997 395L1990 443M1997 395L2007 432M1997 395L2080 448M2045 377L1990 443M2045 377L2007 432M2045 377L2080 448M2134 323L2202 329M2202 329L2277 357M2277 357L2389 356M2277 357L2166 424M2277 357L2312 437M2389 356L2423 354M2389 356L2396 414M2389 356L2402 442M2423 354L2513 353M2423 354L2396 414M2513 353L2558 430M73 430L134 468M73 430L-2 430M73 430L87 508M2633 430L2558 430M134 468L182 423M134 468L87 508M134 468L224 517M182 423L87 508M182 423L224 517M317 461L392 430M317 461L224 517M317 461L293 521M317 461L360 486M392 430L437 454M392 430L360 486M392 430L446 493M437 454L513 427M437 454L360 486M437 454L446 493M513 427L446 493M513 427L541 544M635 477L654 434M635 477L629 498M635 477L664 525M654 434L629 498M654 434L664 525M745 470L763 501M745 470L820 516M837 436L763 501M837 436L820 516M925 402L1007 423M925 402L936 481M1007 423L1052 434M1007 423L1014 498M1052 434L1143 409M1052 434L1014 498M1052 434L1120 509M1143 409L1120 509M1267 451L1303 451M1267 451L1229 534M1267 451L1329 507M1303 451L1380 468M1303 451L1229 534M1303 451L1329 507M1380 468L1460 407M1380 468L1329 507M1590 439L1645 455M1590 439L1532 528M1645 455L1692 506M1757 422L1813 477M1757 422L1692 506M1757 422L1787 495M1813 477L1896 475M1813 477L1787 495M1896 475L1787 495M1896 475L1914 546M1990 443L2007 432M1990 443L2003 499M2007 432L2080 448M2007 432L2003 499M2080 448L2166 424M2080 448L2102 508M2166 424L2102 508M2166 424L2182 532M2166 424L2267 510M2312 437L2396 414M2312 437L2402 442M2312 437L2267 510M2396 414L2402 442M2402 442L2391 546M2402 442L2440 534M2558 430L2572 526M-2 430L12 526M12 526L87 508M12 526L-35 556M12 526L69 567M12 526L-9 601M2572 526L2525 556M2572 526L2551 601M87 508L69 567M224 517L293 521M293 521L360 486M293 521L258 606M293 521L377 608M360 486L446 493M446 493L541 544M541 544L629 498M541 544L498 640M541 544L606 585M629 498L664 525M629 498L606 585M664 525L606 585M664 525L728 587M763 501L820 516M763 501L728 587M820 516L800 611M820 516L888 578M936 481L1014 498M1014 498L1120 509M1014 498L1134 518M1120 509L1134 518M1120 509L1229 534M1134 518L1229 534M1134 518L1060 613M1134 518L1216 575M1229 534L1216 575M1329 507L1329 592M1439 557L1474 519M1439 557L1532 528M1439 557L1427 573M1439 557L1448 608M1474 519L1532 528M1474 519L1427 573M1474 519L1448 608M1474 519L1537 574M1532 528L1537 574M1672 549L1692 506M1672 549L1608 609M1672 549L1691 613M1692 506L1787 495M1692 506L1691 613M1914 546L1979 558M1914 546L2003 499M1914 546L1881 588M1979 558L2003 499M1979 558L1881 588M1979 558L1996 623M1979 558L2045 640M2003 499L2102 508M2102 508L2182 532M2102 508L2128 561M2182 532L2267 510M2182 532L2128 561M2182 532L2177 625M2267 510L2391 546M2267 510L2240 627M2391 546L2440 534M2391 546L2395 575M2391 546L2453 586M2440 534L2525 556M2440 534L2395 575M2440 534L2453 586M2525 556L2629 567M2525 556L2453 586M2525 556L2551 601M-35 556L69 567M69 567L134 629M69 567L-9 601M2629 567L2551 601M134 629L173 630M134 629L49 695M134 629L154 664M134 629L219 667M173 630L258 606M173 630L154 664M173 630L219 667M173 630L196 760M258 606L219 667M258 606L318 672M258 606L342 647M377 608L402 607M377 608L318 672M377 608L342 647M402 607L498 640M402 607L342 647M498 640L476 718M498 640L513 709M498 640L546 734M606 585L642 627M606 585L625 655M642 627L728 587M642 627L625 655M642 627L689 705M728 587L800 611M728 587L777 659M800 611L888 578M800 611L777 659M800 611L851 664M888 578L963 625M888 578L922 662M963 625L1060 613M963 625L922 662M963 625L993 692M1060 613L1084 658M1179 634L1216 575M1179 634L1084 658M1179 634L1155 712M1179 634L1279 674M1179 634L1187 731M1329 592L1427 573M1329 592L1279 674M1329 592L1315 647M1427 573L1448 608M1427 573L1492 645M1448 608L1537 574M1448 608L1492 645M1537 574L1608 609M1537 574L1492 645M1608 609L1691 613M1608 609L1608 694M1691 613L1608 694M1691 613L1690 686M1839 627L1881 588M1839 627L1806 679M1839 627L1853 719M1839 627L1922 670M1839 627L1832 731M1881 588L1922 670M1996 623L2045 640M1996 623L1922 670M1996 623L2073 652M2045 640L2128 561M2045 640L2073 652M2128 561L2177 625M2128 561L2073 652M2177 625L2240 627M2177 625L2147 706M2177 625L2170 668M2240 627L2170 668M2240 627L2274 644M2395 575L2453 586M2395 575L2388 683M2395 575L2442 666M2453 586L2494 656M2551 601L2609 695M2551 601L2494 656M-9 601L49 695M49 695L154 664M49 695L1 720M49 695L109 762M154 664L219 667M154 664L196 760M219 667L318 672M318 672L342 647M318 672L315 755M342 647L315 755M476 718L513 709M476 718L458 757M476 718L546 734M476 718L505 819M513 709L458 757M513 709L546 734M513 709L586 767M625 655L689 705M625 655L695 747M689 705L695 747M689 705L737 736M777 659L851 664M777 659L737 736M777 659L830 740M851 664L922 662M851 664L830 740M922 662L993 692M922 662L917 738M993 692L917 738M993 692L984 788M993 692L1051 767M1084 658L1155 712M1155 712L1187 731M1279 674L1315 647M1279 674L1187 731M1279 674L1255 740M1315 647L1394 711M1394 711L1378 789M1394 711L1447 734M1394 711L1351 800M1492 645L1556 706M1492 645L1447 734M1556 706L1608 694M1556 706L1447 734M1556 706L1535 743M1556 706L1567 802M1608 694L1690 686M1608 694L1535 743M1690 686L1672 779M1690 686L1726 740M1806 679L1853 719M1806 679L1726 740M1806 679L1832 731M1853 719L1922 670M1853 719L1832 731M1853 719L1886 791M1922 670L1980 754M2073 652L2147 706M2073 652L2170 668M2147 706L2170 668M2147 706L2153 745M2147 706L2235 748M2170 668L2153 745M2388 683L2442 666M2388 683L2364 722M2442 666L2494 656M2442 666L2364 722M2442 666L2473 748M2494 656L2561 720M2494 656L2473 748M-66 656L1 720M1 720L-87 748M1 720L-26 795M2561 720L2473 748M2561 720L2534 795M109 762L196 760M109 762L81 835M109 762L192 815M196 760L192 815M196 760L252 851M315 755L390 789M315 755L373 806M390 789L458 757M390 789L373 806M390 789L431 821M458 757L431 821M458 757L505 819M546 734L586 767M546 734L505 819M586 767L505 819M586 767L614 832M586 767L644 801M695 747L737 736M695 747L644 801M695 747L723 829M737 736L830 740M737 736L723 829M830 740L917 738M830 740L868 814M917 738L984 788M917 738L868 814M984 788L1051 767M984 788L928 841M984 788L1035 866M1051 767L1035 866M1051 767L1107 818M1187 731L1255 740M1187 731L1232 807M1255 740L1283 792M1255 740L1232 807M1283 792L1378 789M1283 792L1232 807M1283 792L1351 800M1283 792L1254 899M1378 789L1447 734M1378 789L1351 800M1378 789L1394 871M1447 734L1535 743M1535 743L1567 802M1535 743L1605 827M1672 779L1726 740M1672 779L1605 827M1726 740L1832 731M1832 731L1886 791M1886 791L1980 754M1886 791L1874 875M1886 791L1957 869M1980 754L2068 781M2068 781L2153 745M2068 781L2044 872M2068 781L2133 829M2153 745L2235 748M2153 745L2133 829M2235 748L2309 769M2309 769L2364 722M2309 769L2253 840M2309 769L2327 826M2364 722L2327 826M2473 748L2534 795M2473 748L2433 838M2534 795L2560 820M2534 795L2502 871M-26 795L0 820M0 820L81 835M0 820L-58 871M0 820L10 898M0 820L-50 886M2560 820L2502 871M2560 820L2510 886M81 835L10 898M81 835L117 941M192 815L252 851M192 815L245 896M252 851L178 920M252 851L245 896M373 806L431 821M373 806L377 904M431 821L505 819M431 821L420 930M614 832L644 801M614 832L723 829M614 832L637 919M644 801L723 829M644 801L637 919M868 814L928 841M928 841L889 927M1035 866L1107 818M1035 866L1011 927M1035 866L1062 883M1107 818L1183 871M1107 818L1062 883M1107 818L1129 925M1183 871L1232 807M1183 871L1129 925M1183 871L1254 899M1232 807L1254 899M1351 800L1394 871M1394 871L1352 937M1394 871L1371 911M1394 871L1457 908M1487 843L1567 802M1487 843L1457 908M1567 802L1605 827M1567 802L1581 900M1605 827L1581 900M1605 827L1634 925M1703 880L1762 866M1703 880L1634 925M1703 880L1726 954M1703 880L1770 955M1762 866L1874 875M1762 866L1726 954M1762 866L1770 955M1874 875L1957 869M1874 875L1896 954M1874 875L1935 929M1957 869L2044 872M1957 869L1935 929M1957 869L2007 935M2044 872L2133 829M2044 872L2007 935M2133 829L2201 854M2201 854L2253 840M2201 854L2143 949M2201 854L2212 914M2201 854L2266 889M2253 840L2327 826M2253 840L2212 914M2253 840L2266 889M2327 826L2433 838M2327 826L2266 889M2433 838L2502 871M2433 838L2510 886M2502 871L2570 898M2502 871L2510 886M-58 871L10 898M10 898L117 941M10 898L-50 886M2570 898L2510 886M117 941L178 920M117 941L108 997M178 920L245 896M178 920L220 982M178 920L265 992M245 896L220 982M245 896L265 992M377 904L420 930M420 930L488 959M420 930L369 1000M420 930L440 1018M488 959L440 1018M488 959L522 1011M488 959L521 1044M637 919L681 946M637 919L590 970M637 919L661 1017M681 946L590 970M681 946L661 1017M681 946L757 973M787 938L867 929M787 938L889 927M787 938L757 973M787 938L839 986M867 929L889 927M867 929L757 973M867 929L839 986M889 927L839 986M889 927L900 1027M1011 927L1062 883M1011 927L1017 971M1062 883L1129 925M1062 883L1017 971M1129 925L1159 997M1254 899L1352 937M1254 899L1296 967M1352 937L1371 911M1352 937L1296 967M1352 937L1393 1011M1371 911L1457 908M1371 911L1296 967M1371 911L1393 1011M1457 908L1511 981M1581 900L1634 925M1581 900L1511 981M1581 900L1582 1005M1634 925L1726 954M1634 925L1582 1005M1726 954L1770 955M1726 954L1739 989M1770 955L1739 989M1770 955L1822 1032M1896 954L1935 929M1896 954L1899 1024M1896 954L1972 979M1935 929L2007 935M1935 929L1972 979M2007 935L1972 979M2007 935L2062 968M2143 949L2212 914M2143 949L2062 968M2143 949L2098 983M2143 949L2190 1031M2212 914L2266 889M2212 914L2285 979M2266 889L2285 979M2374 930L2450 948M2374 930L2372 963M2450 948L2510 886M2450 948L2372 963M2450 948L2448 1014M2450 948L2478 1047M2 1031L-30 1040M2 1031L30 1062M2 1031L-82 1047M2 1031L-50 1049M2562 1031L2530 1040M2562 1031L2478 1047M2562 1031L2510 1049M108 997L159 1078M220 982L265 992M220 982L159 1078M220 982L295 1046M265 992L369 1000M265 992L295 1046M369 1000L440 1018M369 1000L295 1046M369 1000L403 1076M440 1018L403 1076M440 1018L521 1044M522 1011L590 970M522 1011L521 1044M522 1011L615 1040M590 970L661 1017M590 970L615 1040M661 1017L615 1040M661 1017L689 1083M757 973L839 986M757 973L831 1065M839 986L900 1027M900 1027L831 1065M900 1027L923 1095M900 1027L987 1076M1017 971L1079 1034M1079 1034L1159 997M1079 1034L987 1076M1079 1034L1117 1059M1159 997L1117 1059M1277 1032L1296 967M1277 1032L1265 1081M1277 1032L1311 1074M1277 1032L1368 1084M1277 1032L1321 1120M1393 1011L1311 1074M1393 1011L1368 1084M1511 981L1582 1005M1511 981L1605 1038M1582 1005L1605 1038M1582 1005L1524 1081M1605 1038L1508 1111M1605 1038L1524 1081M1605 1038L1674 1114M1739 989L1822 1032M1739 989L1733 1075M1739 989L1764 1089M1822 1032L1899 1024M1822 1032L1733 1075M1822 1032L1764 1089M1899 1024L1972 979M1899 1024L1987 1069M1972 979L2062 968M2062 968L2098 983M2062 968L2056 1046M2098 983L2190 1031M2098 983L2056 1046M2098 983L2149 1094M2190 1031L2149 1094M2190 1031L2221 1055M2190 1031L2263 1089M2285 979L2372 963M2285 979L2221 1055M2285 979L2324 1074M2372 963L2448 1014M2448 1014L2530 1040M2448 1014L2478 1047M2448 1014L2510 1049M2530 1040L2590 1062M2530 1040L2478 1047M2530 1040L2510 1049M-30 1040L30 1062M30 1062L-50 1049M30 1062L73 1152M2590 1062L2510 1049M159 1078L238 1100M159 1078L156 1134M159 1078L237 1145M238 1100L295 1046M238 1100L156 1134M238 1100L237 1145M295 1046L403 1076M382 1118L403 1076M382 1118L300 1197M382 1118L327 1177M382 1118L457 1195M382 1118L490 1166M521 1044L615 1040M521 1044L490 1166M615 1040L689 1083M689 1083L764 1107M689 1083L709 1167M689 1083L728 1163M764 1107L831 1065M764 1107L709 1167M764 1107L728 1163M764 1107L831 1137M831 1065L923 1095M831 1065L831 1137M923 1095L987 1076M923 1095L831 1137M923 1095L933 1186M987 1076L1006 1169M987 1076L1048 1154M1117 1059L1190 1117M1190 1117L1265 1081M1190 1117L1154 1176M1190 1117L1241 1158M1265 1081L1311 1074M1265 1081L1241 1158M1265 1081L1321 1120M1311 1074L1368 1084M1311 1074L1321 1120M1368 1084L1321 1120M1368 1084L1398 1145M1508 1111L1524 1081M1508 1111L1502 1168M1508 1111L1553 1137M1508 1111L1496 1212M1524 1081L1502 1168M1524 1081L1553 1137M1674 1114L1733 1075M1674 1114L1764 1089M1674 1114L1645 1158M1674 1114L1707 1184M1733 1075L1764 1089M1764 1089L1832 1129M1913 1119L1987 1069M1913 1119L1832 1129M1913 1119L1878 1145M1913 1119L1981 1132M1913 1119L1898 1223M1987 1069L2056 1046M1987 1069L1878 1145M1987 1069L1981 1132M2056 1046L2149 1094M2149 1094L2221 1055M2149 1094L2147 1134M2221 1055L2263 1089M2221 1055L2324 1074M2263 1089L2324 1074M2263 1089L2218 1193M2263 1089L2312 1130M2324 1074L2312 1130M2324 1074L2349 1147M2478 1047L2510 1049M73 1152L156 1134M73 1152L-31 1155M73 1152L2 1216M73 1152L138 1235M2633 1152L2529 1155M156 1134L237 1145M237 1145L300 1197M237 1145L327 1177M300 1197L327 1177M300 1197L269 1247M300 1197L332 1219M327 1177L269 1247M327 1177L332 1219M457 1195L490 1166M457 1195L476 1256M457 1195L484 1232M457 1195L441 1307M490 1166L476 1256M490 1166L484 1232M619 1156L709 1167M619 1156L627 1251M709 1167L728 1163M728 1163L831 1137M728 1163L779 1251M933 1186L1006 1169M933 1186L917 1270M1006 1169L1048 1154M1006 1169L1013 1249M1006 1169L1083 1237M1048 1154L1154 1176M1048 1154L1013 1249M1048 1154L1083 1237M1154 1176L1241 1158M1154 1176L1128 1251M1321 1120L1398 1145M1398 1145L1341 1221M1398 1145L1399 1226M1502 1168L1553 1137M1502 1168L1496 1212M1502 1168L1559 1254M1553 1137L1645 1158M1645 1158L1707 1184M1645 1158L1659 1263M1707 1184L1659 1263M1707 1184L1743 1245M1707 1184L1770 1236M1832 1129L1878 1145M1878 1145L1981 1132M1878 1145L1898 1223M1981 1132L2065 1192M1981 1132L1898 1223M2065 1192L2147 1134M2065 1192L2049 1233M2065 1192L2090 1256M2147 1134L2218 1193M2147 1134L2205 1236M2218 1193L2312 1130M2218 1193L2205 1236M2218 1193L2280 1230M2312 1130L2349 1147M2312 1130L2280 1230M2349 1147L2443 1190M2443 1190L2529 1155M2443 1190L2380 1270M2443 1190L2471 1218M2443 1190L2495 1219M2529 1155L2562 1216M2529 1155L2471 1218M2529 1155L2495 1219M-31 1155L2 1216M2 1216L-89 1218M2 1216L-65 1219M2 1216L57 1293M2562 1216L2471 1218M2562 1216L2495 1219M138 1235L194 1269M138 1235L57 1293M138 1235L121 1311M138 1235L165 1313M194 1269L269 1247M194 1269L165 1313M269 1247L332 1219M269 1247L300 1336M476 1256L484 1232M476 1256L441 1307M476 1256L557 1334M484 1232L441 1307M627 1251L692 1272M627 1251L557 1334M627 1251L623 1349M627 1251L683 1300M692 1272L779 1251M692 1272L804 1251M692 1272L683 1300M692 1272L749 1305M779 1251L804 1251M779 1251L749 1305M779 1251L865 1309M804 1251L749 1305M804 1251L865 1309M917 1270L1013 1249M917 1270L865 1309M917 1270L946 1336M917 1270L947 1377M1013 1249L1083 1237M1013 1249L1014 1320M1083 1237L1128 1251M1083 1237L1119 1282M1128 1251L1228 1273M1128 1251L1119 1282M1128 1251L1145 1322M1228 1273L1119 1282M1228 1273L1145 1322M1228 1273L1270 1280M1341 1221L1399 1226M1341 1221L1270 1280M1341 1221L1344 1310M1341 1221L1393 1317M1399 1226L1344 1310M1399 1226L1393 1317M1496 1212L1559 1254M1496 1212L1506 1296M1496 1212L1521 1286M1559 1254L1506 1296M1559 1254L1521 1286M1559 1254L1608 1303M1659 1263L1743 1245M1659 1263L1608 1303M1659 1263L1708 1298M1743 1245L1770 1236M1743 1245L1708 1298M1743 1245L1810 1315M1770 1236L1708 1298M1770 1236L1810 1315M1898 1223L1991 1270M1898 1223L1952 1299M1991 1270L2049 1233M1991 1270L2090 1256M1991 1270L1952 1299M1991 1270L2011 1299M2049 1233L2090 1256M2049 1233L2011 1299M2090 1256L2011 1299M2090 1256L2151 1300M2205 1236L2280 1230M2205 1236L2151 1300M2205 1236L2205 1320M2280 1230L2380 1270M2380 1270L2369 1317M2380 1270L2428 1298M2471 1218L2495 1219M2471 1218L2428 1298M57 1293L121 1311M57 1293L165 1313M57 1293L75 1385M121 1311L165 1313M121 1311L75 1385M165 1313L135 1395M300 1336L342 1343M300 1336L341 1413M342 1343L441 1307M342 1343L341 1413M441 1307L419 1418M557 1334L623 1349M557 1334L582 1388M623 1349L683 1300M623 1349L582 1388M623 1349L719 1432M683 1300L749 1305M865 1309L946 1336M865 1309L864 1370M946 1336L1014 1320M946 1336L947 1377M946 1336L990 1383M1014 1320L947 1377M1014 1320L990 1383M1014 1320L1088 1403M1119 1282L1145 1322M1145 1322L1088 1403M1145 1322L1185 1390M1270 1280L1344 1310M1344 1310L1393 1317M1344 1310L1348 1397M1393 1317L1348 1397M1393 1317L1390 1408M1506 1296L1521 1286M1506 1296L1507 1392M1506 1296L1539 1378M1521 1286L1608 1303M1521 1286L1507 1392M1608 1303L1636 1396M1708 1298L1810 1315M1708 1298L1689 1394M1810 1315L1911 1354M1810 1315L1873 1370M1911 1354L1952 1299M1911 1354L1873 1370M1911 1354L1965 1369M1911 1354L2022 1397M1952 1299L2011 1299M1952 1299L1965 1369M2011 1299L1965 1369M2151 1300L2205 1320M2151 1300L2093 1407M2151 1300L2171 1373M2205 1320L2270 1339M2205 1320L2171 1373M2205 1320L2248 1415M2270 1339L2369 1317M2270 1339L2171 1373M2270 1339L2248 1415M2369 1317L2428 1298M2369 1317L2363 1436M2428 1298L2504 1337M2504 1337L2429 1400M2504 1337L2520 1374M75 1385L135 1395M75 1385L180 1410M75 1385L-40 1374M2635 1385L2520 1374M135 1395L180 1410M180 1410L263 1423M263 1423L341 1413M341 1413L419 1418M419 1418L521 1437M521 1437L582 1388M719 1432L787 1437M787 1437L864 1370M864 1370L947 1377M864 1370L990 1383M947 1377L990 1383M990 1383L1088 1403M1088 1403L1185 1390M1185 1390L1222 1394M1348 1397L1390 1408M1390 1408L1507 1392M1507 1392L1539 1378M1539 1378L1636 1396M1636 1396L1689 1394M1831 1435L1873 1370M1873 1370L1965 1369M1965 1369L2022 1397M2022 1397L2093 1407M2093 1407L2171 1373M2171 1373L2248 1415M2363 1436L2429 1400M2429 1400L2520 1374"/></svg>