<svg xmlns="http://www.w3.org/2000/svg" width="2560" height="1440" fill="#fff"><circle cx="48" cy="36" r="5"/><circle cx="132" cy="77" r="6"/><circle cx="168" cy="70" r="5"/><circle cx="253" cy="75" r="4"/><circle cx="344" cy="37" r="4"/><circle cx="408" cy="1" r="6"/><circle cx="408" cy="1441" r="6"/><circle cx="505" cy="33" r="6"/><circle cx="577" cy="43" r="6"/><circle cx="666" cy="66" r="5"/><circle cx="759" cy="17" r="5"/><circle cx="807" cy="14" r="5"/><circle cx="923" cy="34" r="4"/><circle cx="1040" cy="32" r="5"/><circle cx="1081" cy="51" r="5"/><circle cx="1185" cy="58" r="6"/><circle cx="1271" cy="51" r="5"/><circle cx="1311" cy="40" r="5"/><circle cx="1405" cy="76" r="5"/><circle cx="1453" cy="15" r="6"/><circle cx="1589" cy="77" r="6"/><circle cx="1619" cy="11" r="5"/><circle cx="1742" cy="28" r="4"/><circle cx="1816" cy="46" r="6"/><circle cx="1919" cy="20" r="5"/><circle cx="1981" cy="59" r="5"/><circle cx="2041" cy="25" r="5"/><circle cx="2120" cy="18" r="4"/><circle cx="2165" cy="2" r="6"/><circle cx="2165" cy="1442" r="6"/><circle cx="2270" cy="19" r="5"/><circle cx="2394" cy="0" r="5"/><circle cx="2394" cy="1440" r="5"/><circle cx="2443" cy="25" r="5"/><circle cx="2533" cy="24" r="6"/><circle cx="4" cy="87" r="5"/><circle cx="2564" cy="87" r="5"/><circle cx="86" cy="132" r="5"/><circle cx="230" cy="92" r="5"/><circle cx="287" cy="140" r="6"/><circle cx="343" cy="102" r="5"/><circle cx="418" cy="81" r="5"/><circle cx="533" cy="134" r="6"/><circle cx="634" cy="151" r="6"/><circle cx="648" cy="122" r="5"/><circle cx="797" cy="116" r="4"/><circle cx="819" cy="141" r="4"/><circle cx="916" cy="135" r="5"/><circle cx="1023" cy="154" r="5"/><circle cx="1102" cy="127" r="5"/><circle cx="1174" cy="148" r="5"/><circle cx="1262" cy="130" r="5"/><circle cx="1317" cy="91" r="5"/><circle cx="1404" cy="120" r="4"/><circle cx="1469" cy="130" r="5"/><circle cx="1555" cy="89" r="5"/><circle cx="1611" cy="90" r="5"/><circle cx="1728" cy="135" r="6"/><circle cx="1781" cy="97" r="6"/><circle cx="1856" cy="84" r="6"/><circle cx="1967" cy="153" r="4"/><circle cx="2072" cy="123" r="4"/><circle cx="2117" cy="153" r="6"/><circle cx="2181" cy="102" r="4"/><circle cx="2291" cy="112" r="4"/><circle cx="2368" cy="84" r="6"/><circle cx="2471" cy="106" r="4"/><circle cx="2549" cy="94" r="5"/><circle cx="27" cy="237" r="5"/><circle cx="100" cy="160" r="6"/><circle cx="211" cy="192" r="5"/><circle cx="255" cy="213" r="6"/><circle cx="366" cy="161" r="5"/><circle cx="442" cy="177" r="6"/><circle cx="537" cy="164" r="6"/><circle cx="607" cy="210" r="5"/><circle cx="659" cy="221" r="5"/><circle cx="745" cy="223" r="5"/><circle cx="853" cy="211" r="5"/><circle cx="927" cy="166" r="6"/><circle cx="1001" cy="205" r="5"/><circle cx="1058" cy="191" r="5"/><circle cx="1195" cy="200" r="5"/><circle cx="1242" cy="192" r="5"/><circle cx="1355" cy="221" r="6"/><circle cx="1418" cy="196" r="5"/><circle cx="1443" cy="210" r="6"/><circle cx="1560" cy="203" r="6"/><circle cx="1613" cy="239" r="6"/><circle cx="1694" cy="171" r="5"/><circle cx="1831" cy="182" r="5"/><circle cx="1854" cy="164" r="5"/><circle cx="1950" cy="217" r="4"/><circle cx="2078" cy="231" r="4"/><circle cx="2142" cy="182" r="4"/><circle cx="2199" cy="203" r="5"/><circle cx="2266" cy="169" r="5"/><circle cx="2359" cy="174" r="4"/><circle cx="2424" cy="211" r="5"/><circle cx="2554" cy="202" r="5"/><circle cx="14" cy="248" r="5"/><circle cx="122" cy="256" r="5"/><circle cx="176" cy="291" r="5"/><circle cx="289" cy="312" r="6"/><circle cx="346" cy="262" r="4"/><circle cx="411" cy="316" r="5"/><circle cx="513" cy="315" r="4"/><circle cx="605" cy="298" r="5"/><circle cx="663" cy="303" r="5"/><circle cx="759" cy="311" r="5"/><circle cx="854" cy="248" r="5"/><circle cx="928" cy="266" r="5"/><circle cx="983" cy="268" r="6"/><circle cx="1110" cy="309" r="5"/><circle cx="1121" cy="257" r="6"/><circle cx="1273" cy="295" r="4"/><circle cx="1352" cy="300" r="5"/><circle cx="1366" cy="288" r="5"/><circle cx="1484" cy="297" r="5"/><circle cx="1555" cy="271" r="6"/><circle cx="1648" cy="280" r="5"/><circle cx="1746" cy="302" r="4"/><circle cx="1761" cy="310" r="4"/><circle cx="1888" cy="257" r="5"/><circle cx="1930" cy="244" r="5"/><circle cx="2018" cy="246" r="5"/><circle cx="2142" cy="311" r="5"/><circle cx="2205" cy="284" r="5"/><circle cx="2288" cy="242" r="5"/><circle cx="2381" cy="306" r="5"/><circle cx="2439" cy="283" r="5"/><circle cx="2499" cy="307" r="4"/><circle cx="9" cy="396" r="4"/><circle cx="152" cy="386" r="4"/><circle cx="217" cy="374" r="6"/><circle cx="296" cy="388" r="5"/><circle cx="330" cy="331" r="4"/><circle cx="424" cy="365" r="6"/><circle cx="498" cy="361" r="4"/><circle cx="638" cy="390" r="6"/><circle cx="717" cy="399" r="4"/><circle cx="763" cy="344" r="4"/><circle cx="808" cy="325" r="4"/><circle cx="924" cy="378" r="6"/><circle cx="975" cy="368" r="5"/><circle cx="1107" cy="328" r="6"/><circle cx="1169" cy="327" r="5"/><circle cx="1210" cy="334" r="4"/><circle cx="1287" cy="365" r="5"/><circle cx="1410" cy="374" r="5"/><circle cx="1488" cy="378" r="6"/><circle cx="1599" cy="323" r="5"/><circle cx="1650" cy="378" r="6"/><circle cx="1717" cy="379" r="5"/><circle cx="1824" cy="374" r="5"/><circle cx="1910" cy="386" r="5"/><circle cx="1923" cy="348" r="5"/><circle cx="2065" cy="356" r="6"/><circle cx="2085" cy="392" r="5"/><circle cx="2234" cy="378" r="5"/><circle cx="2291" cy="365" r="5"/><circle cx="2334" cy="393" r="5"/><circle cx="2450" cy="347" r="6"/><circle cx="2518" cy="327" r="5"/><circle cx="9" cy="424" r="5"/><circle cx="107" cy="445" r="5"/><circle cx="207" cy="422" r="4"/><circle cx="269" cy="410" r="5"/><circle cx="395" cy="465" r="6"/><circle cx="438" cy="459" r="5"/><circle cx="545" cy="477" r="4"/><circle cx="630" cy="455" r="5"/><circle cx="696" cy="421" r="5"/><circle cx="785" cy="403" r="4"/><circle cx="841" cy="430" r="5"/><circle cx="899" cy="406" r="6"/><circle cx="1039" cy="465" r="5"/><circle cx="1074" cy="405" r="5"/><circle cx="1187" cy="452" r="5"/><circle cx="1210" cy="413" r="5"/><circle cx="1318" cy="464" r="4"/><circle cx="1416" cy="410" r="5"/><circle cx="1506" cy="435" r="6"/><circle cx="1595" cy="473" r="6"/><circle cx="1635" cy="480" r="5"/><circle cx="1744" cy="427" r="4"/><circle cx="1830" cy="417" r="5"/><circle cx="1920" cy="432" r="5"/><circle cx="1933" cy="440" r="5"/><circle cx="2045" cy="442" r="6"/><circle cx="2159" cy="411" r="6"/><circle cx="2161" cy="471" r="4"/><circle cx="2265" cy="418" r="6"/><circle cx="2396" cy="454" r="5"/><circle cx="2428" cy="433" r="4"/><circle cx="2554" cy="419" r="4"/><circle cx="71" cy="544" r="4"/><circle cx="158" cy="509" r="5"/><circle cx="231" cy="530" r="5"/><circle cx="299" cy="499" r="5"/><circle cx="394" cy="544" r="5"/><circle cx="454" cy="486" r="6"/><circle cx="556" cy="556" r="5"/><circle cx="595" cy="552" r="5"/><circle cx="704" cy="496" r="5"/><circle cx="729" cy="520" r="6"/><circle cx="830" cy="481" r="5"/><circle cx="945" cy="497" r="5"/><circle cx="1016" cy="530" r="4"/><circle cx="1058" cy="513" r="5"/><circle cx="1140" cy="557" r="4"/><circle cx="1241" cy="534" r="4"/><circle cx="1346" cy="537" r="6"/><circle cx="1367" cy="502" r="6"/><circle cx="1501" cy="509" r="5"/><circle cx="1543" cy="489" r="5"/><circle cx="1605" cy="533" r="5"/><circle cx="1693" cy="505" r="4"/><circle cx="1765" cy="540" r="6"/><circle cx="1849" cy="512" r="6"/><circle cx="1933" cy="489" r="4"/><circle cx="2009" cy="506" r="4"/><circle cx="2148" cy="497" r="4"/><circle cx="2171" cy="534" r="4"/><circle cx="2286" cy="535" r="5"/><circle cx="2359" cy="504" r="6"/><circle cx="2463" cy="496" r="5"/><circle cx="2501" cy="492" r="5"/><circle cx="79" cy="581" r="4"/><circle cx="113" cy="589" r="6"/><circle cx="208" cy="596" r="4"/><circle cx="257" cy="639" r="5"/><circle cx="344" cy="624" r="4"/><circle cx="431" cy="579" r="4"/><circle cx="522" cy="571" r="5"/><circle cx="582" cy="633" r="6"/><circle cx="687" cy="603" r="5"/><circle cx="726" cy="631" r="5"/><circle cx="820" cy="609" r="5"/><circle cx="956" cy="613" r="6"/><circle cx="1014" cy="600" r="5"/><circle cx="1056" cy="626" r="5"/><circle cx="1153" cy="585" r="5"/><circle cx="1235" cy="594" r="5"/><circle cx="1329" cy="617" r="5"/><circle cx="1388" cy="598" r="5"/><circle cx="1462" cy="565" r="6"/><circle cx="1572" cy="560" r="6"/><circle cx="1650" cy="601" r="4"/><circle cx="1724" cy="582" r="6"/><circle cx="1821" cy="577" r="6"/><circle cx="1900" cy="589" r="5"/><circle cx="1996" cy="637" r="5"/><circle cx="2055" cy="572" r="6"/><circle cx="2120" cy="581" r="4"/><circle cx="2188" cy="600" r="6"/><circle cx="2244" cy="619" r="5"/><circle cx="2396" cy="586" r="5"/><circle cx="2422" cy="620" r="6"/><circle cx="2488" cy="622" r="4"/><circle cx="26" cy="656" r="5"/><circle cx="150" cy="656" r="4"/><circle cx="184" cy="697" r="4"/><circle cx="309" cy="678" r="4"/><circle cx="368" cy="705" r="5"/><circle cx="401" cy="672" r="5"/><circle cx="536" cy="684" r="5"/><circle cx="606" cy="673" r="5"/><circle cx="692" cy="675" r="6"/><circle cx="739" cy="709" r="5"/><circle cx="803" cy="657" r="6"/><circle cx="951" cy="659" r="6"/><circle cx="997" cy="714" r="5"/><circle cx="1043" cy="661" r="5"/><circle cx="1162" cy="715" r="5"/><circle cx="1239" cy="661" r="5"/><circle cx="1288" cy="709" r="6"/><circle cx="1392" cy="687" r="5"/><circle cx="1506" cy="673" r="5"/><circle cx="1559" cy="717" r="5"/><circle cx="1641" cy="672" r="5"/><circle cx="1683" cy="692" r="5"/><circle cx="1790" cy="659" r="5"/><circle cx="1894" cy="652" r="5"/><circle cx="1923" cy="702" r="4"/><circle cx="2025" cy="656" r="4"/><circle cx="2133" cy="702" r="5"/><circle cx="2191" cy="668" r="5"/><circle cx="2302" cy="668" r="5"/><circle cx="2368" cy="673" r="4"/><circle cx="2402" cy="673" r="4"/><circle cx="2558" cy="683" r="5"/><circle cx="-2" cy="683" r="5"/><circle cx="23" cy="756" r="5"/><circle cx="125" cy="754" r="5"/><circle cx="202" cy="736" r="5"/><circle cx="276" cy="763" r="5"/><circle cx="400" cy="783" r="6"/><circle cx="468" cy="750" r="4"/><circle cx="549" cy="721" r="6"/><circle cx="604" cy="764" r="5"/><circle cx="711" cy="784" r="4"/><circle cx="743" cy="788" r="4"/><circle cx="812" cy="783" r="4"/><circle cx="925" cy="739" r="6"/><circle cx="975" cy="785" r="5"/><circle cx="1107" cy="763" r="4"/><circle cx="1155" cy="723" r="5"/><circle cx="1212" cy="755" r="5"/><circle cx="1309" cy="734" r="6"/><circle cx="1395" cy="751" r="5"/><circle cx="1519" cy="789" r="6"/><circle cx="1590" cy="792" r="5"/><circle cx="1604" cy="725" r="6"/><circle cx="1754" cy="784" r="5"/><circle cx="1805" cy="776" r="5"/><circle cx="1897" cy="772" r="4"/><circle cx="1961" cy="798" r="4"/><circle cx="2052" cy="733" r="4"/><circle cx="2123" cy="798" r="6"/><circle cx="2238" cy="728" r="6"/><circle cx="2270" cy="797" r="5"/><circle cx="2380" cy="784" r="6"/><circle cx="2458" cy="794" r="4"/><circle cx="2530" cy="777" r="5"/><circle cx="11" cy="846" r="6"/><circle cx="107" cy="834" r="5"/><circle cx="186" cy="834" r="5"/><circle cx="269" cy="831" r="6"/><circle cx="333" cy="823" r="6"/><circle cx="445" cy="862" r="5"/><circle cx="547" cy="811" r="6"/><circle cx="577" cy="864" r="5"/><circle cx="661" cy="816" r="5"/><circle cx="795" cy="851" r="5"/><circle cx="813" cy="854" r="4"/><circle cx="897" cy="801" r="4"/><circle cx="971" cy="843" r="5"/><circle cx="1075" cy="819" r="6"/><circle cx="1175" cy="819" r="5"/><circle cx="1254" cy="827" r="5"/><circle cx="1331" cy="874" r="5"/><circle cx="1392" cy="857" r="5"/><circle cx="1480" cy="811" r="5"/><circle cx="1546" cy="824" r="5"/><circle cx="1654" cy="828" r="5"/><circle cx="1724" cy="872" r="6"/><circle cx="1825" cy="831" r="5"/><circle cx="1907" cy="871" r="5"/><circle cx="1923" cy="809" r="5"/><circle cx="2047" cy="803" r="4"/><circle cx="2142" cy="820" r="5"/><circle cx="2230" cy="811" r="6"/><circle cx="2277" cy="848" r="5"/><circle cx="2345" cy="866" r="5"/><circle cx="2416" cy="820" r="4"/><circle cx="2497" cy="822" r="6"/><circle cx="60" cy="938" r="6"/><circle cx="84" cy="951" r="6"/><circle cx="224" cy="954" r="5"/><circle cx="253" cy="910" r="6"/><circle cx="342" cy="923" r="5"/><circle cx="428" cy="882" r="4"/><circle cx="556" cy="917" r="6"/><circle cx="560" cy="880" r="6"/><circle cx="652" cy="897" r="6"/><circle cx="752" cy="913" r="5"/><circle cx="853" cy="945" r="4"/><circle cx="930" cy="934" r="4"/><circle cx="966" cy="946" r="6"/><circle cx="1110" cy="937" r="6"/><circle cx="1158" cy="895" r="5"/><circle cx="1230" cy="882" r="6"/><circle cx="1294" cy="880" r="6"/><circle cx="1407" cy="891" r="5"/><circle cx="1494" cy="934" r="6"/><circle cx="1525" cy="914" r="4"/><circle cx="1662" cy="919" r="6"/><circle cx="1703" cy="947" r="5"/><circle cx="1778" cy="928" r="4"/><circle cx="1887" cy="935" r="6"/><circle cx="1982" cy="899" r="4"/><circle cx="2045" cy="919" r="6"/><circle cx="2085" cy="921" r="4"/><circle cx="2188" cy="935" r="6"/><circle cx="2258" cy="930" r="5"/><circle cx="2368" cy="949" r="5"/><circle cx="2460" cy="909" r="5"/><circle cx="2553" cy="954" r="5"/><circle cx="30" cy="1015" r="4"/><circle cx="108" cy="996" r="5"/><circle cx="161" cy="1003" r="4"/><circle cx="296" cy="982" r="5"/><circle cx="322" cy="1005" r="4"/><circle cx="441" cy="970" r="5"/><circle cx="544" cy="990" r="6"/><circle cx="571" cy="980" r="4"/><circle cx="659" cy="1008" r="5"/><circle cx="759" cy="1024" r="5"/><circle cx="801" cy="983" r="4"/><circle cx="895" cy="1021" r="6"/><circle cx="1012" cy="1008" r="5"/><circle cx="1060" cy="989" r="6"/><circle cx="1189" cy="973" r="6"/><circle cx="1204" cy="991" r="5"/><circle cx="1294" cy="993" r="6"/><circle cx="1412" cy="1028" r="5"/><circle cx="1494" cy="1031" r="5"/><circle cx="1546" cy="986" r="5"/><circle cx="1666" cy="1026" r="4"/><circle cx="1704" cy="1027" r="6"/><circle cx="1798" cy="1013" r="5"/><circle cx="1893" cy="987" r="4"/><circle cx="1923" cy="1027" r="6"/><circle cx="2038" cy="1001" r="5"/><circle cx="2096" cy="1000" r="5"/><circle cx="2188" cy="994" r="6"/><circle cx="2316" cy="975" r="4"/><circle cx="2352" cy="968" r="6"/><circle cx="2418" cy="1013" r="4"/><circle cx="2525" cy="984" r="5"/><circle cx="37" cy="1102" r="5"/><circle cx="114" cy="1090" r="4"/><circle cx="210" cy="1054" r="6"/><circle cx="246" cy="1105" r="4"/><circle cx="393" cy="1079" r="4"/><circle cx="448" cy="1114" r="4"/><circle cx="528" cy="1089" r="5"/><circle cx="607" cy="1110" r="4"/><circle cx="681" cy="1084" r="4"/><circle cx="763" cy="1079" r="5"/><circle cx="872" cy="1065" r="5"/><circle cx="904" cy="1054" r="5"/><circle cx="980" cy="1119" r="5"/><circle cx="1054" cy="1047" r="6"/><circle cx="1126" cy="1090" r="6"/><circle cx="1212" cy="1090" r="5"/><circle cx="1299" cy="1051" r="5"/><circle cx="1392" cy="1048" r="6"/><circle cx="1443" cy="1051" r="4"/><circle cx="1555" cy="1076" r="5"/><circle cx="1648" cy="1082" r="5"/><circle cx="1754" cy="1083" r="5"/><circle cx="1834" cy="1063" r="6"/><circle cx="1876" cy="1105" r="4"/><circle cx="1995" cy="1066" r="5"/><circle cx="2011" cy="1064" r="4"/><circle cx="2101" cy="1081" r="5"/><circle cx="2180" cy="1093" r="4"/><circle cx="2252" cy="1064" r="5"/><circle cx="2383" cy="1094" r="4"/><circle cx="2428" cy="1050" r="6"/><circle cx="2531" cy="1095" r="5"/><circle cx="65" cy="1152" r="5"/><circle cx="133" cy="1132" r="4"/><circle cx="182" cy="1190" r="5"/><circle cx="294" cy="1144" r="6"/><circle cx="348" cy="1199" r="4"/><circle cx="446" cy="1178" r="4"/><circle cx="535" cy="1149" r="4"/><circle cx="577" cy="1184" r="5"/><circle cx="662" cy="1152" r="5"/><circle cx="771" cy="1140" r="4"/><circle cx="848" cy="1185" r="5"/><circle cx="936" cy="1151" r="4"/><circle cx="1029" cy="1130" r="5"/><circle cx="1076" cy="1181" r="5"/><circle cx="1195" cy="1158" r="5"/><circle cx="1220" cy="1197" r="5"/><circle cx="1347" cy="1191" r="6"/><circle cx="1434" cy="1156" r="6"/><circle cx="1519" cy="1136" r="4"/><circle cx="1530" cy="1172" r="6"/><circle cx="1626" cy="1144" r="5"/><circle cx="1691" cy="1157" r="6"/><circle cx="1792" cy="1161" r="4"/><circle cx="1847" cy="1120" r="5"/><circle cx="1925" cy="1159" r="6"/><circle cx="2060" cy="1126" r="5"/><circle cx="2130" cy="1136" r="5"/><circle cx="2200" cy="1179" r="4"/><circle cx="2278" cy="1165" r="5"/><circle cx="2363" cy="1187" r="5"/><circle cx="2439" cy="1161" r="5"/><circle cx="2556" cy="1168" r="5"/><circle cx="-4" cy="1168" r="5"/><circle cx="23" cy="1222" r="5"/><circle cx="141" cy="1201" r="5"/><circle cx="240" cy="1241" r="4"/><circle cx="294" cy="1278" r="4"/><circle cx="395" cy="1271" r="5"/><circle cx="454" cy="1228" r="6"/><circle cx="558" cy="1264" r="5"/><circle cx="572" cy="1229" r="6"/><circle cx="714" cy="1248" r="4"/><circle cx="756" cy="1240" r="4"/><circle cx="849" cy="1207" r="5"/><circle cx="922" cy="1243" r="5"/><circle cx="979" cy="1207" r="6"/><circle cx="1091" cy="1218" r="5"/><circle cx="1128" cy="1224" r="4"/><circle cx="1237" cy="1230" r="6"/><circle cx="1318" cy="1280" r="6"/><circle cx="1410" cy="1205" r="5"/><circle cx="1474" cy="1242" r="6"/><circle cx="1552" cy="1211" r="6"/><circle cx="1647" cy="1268" r="5"/><circle cx="1690" cy="1280" r="5"/><circle cx="1800" cy="1279" r="5"/><circle cx="1870" cy="1226" r="5"/><circle cx="1946" cy="1203" r="6"/><circle cx="2072" cy="1257" r="5"/><circle cx="2114" cy="1233" r="6"/><circle cx="2175" cy="1209" r="5"/><circle cx="2243" cy="1211" r="6"/><circle cx="2354" cy="1267" r="5"/><circle cx="2407" cy="1262" r="5"/><circle cx="2542" cy="1204" r="4"/><circle cx="17" cy="1338" r="4"/><circle cx="121" cy="1301" r="4"/><circle cx="175" cy="1321" r="5"/><circle cx="260" cy="1315" r="5"/><circle cx="346" cy="1316" r="4"/><circle cx="431" cy="1315" r="4"/><circle cx="542" cy="1316" r="6"/><circle cx="612" cy="1281" r="5"/><circle cx="647" cy="1339" r="4"/><circle cx="743" cy="1315" r="4"/><circle cx="806" cy="1288" r="4"/><circle cx="923" cy="1299" r="5"/><circle cx="1002" cy="1326" r="4"/><circle cx="1055" cy="1313" r="4"/><circle cx="1185" cy="1302" r="4"/><circle cx="1253" cy="1300" r="6"/><circle cx="1298" cy="1329" r="5"/><circle cx="1413" cy="1358" r="4"/><circle cx="1451" cy="1352" r="5"/><circle cx="1553" cy="1332" r="4"/><circle cx="1662" cy="1291" r="4"/><circle cx="1684" cy="1328" r="5"/><circle cx="1769" cy="1327" r="4"/><circle cx="1912" cy="1280" r="4"/><circle cx="1955" cy="1335" r="5"/><circle cx="2063" cy="1287" r="5"/><circle cx="2136" cy="1302" r="4"/><circle cx="2232" cy="1355" r="6"/><circle cx="2308" cy="1312" r="4"/><circle cx="2366" cy="1291" r="5"/><circle cx="2460" cy="1284" r="5"/><circle cx="2524" cy="1304" r="4"/><circle cx="26" cy="1361" r="5"/><circle cx="146" cy="1434" r="5"/><circle cx="195" cy="1426" r="4"/><circle cx="265" cy="1365" r="4"/><circle cx="354" cy="1399" r="5"/><circle cx="401" cy="1370" r="5"/><circle cx="528" cy="1392" r="6"/><circle cx="571" cy="1374" r="5"/><circle cx="692" cy="1385" r="5"/><circle cx="725" cy="1424" r="6"/><circle cx="817" cy="1411" r="5"/><circle cx="882" cy="1365" r="5"/><circle cx="1030" cy="1432" r="6"/><circle cx="1073" cy="1424" r="5"/><circle cx="1161" cy="1415" r="5"/><circle cx="1231" cy="1376" r="4"/><circle cx="1315" cy="1394" r="5"/><circle cx="1419" cy="1403" r="5"/><circle cx="1452" cy="1404" r="6"/><circle cx="1527" cy="1418" r="6"/><circle cx="1631" cy="1387" r="5"/><circle cx="1711" cy="1368" r="6"/><circle cx="1825" cy="1366" r="5"/><circle cx="1887" cy="1367" r="4"/><circle cx="1926" cy="1426" r="4"/><circle cx="2032" cy="1404" r="4"/><circle cx="2094" cy="1416" r="4"/><circle cx="2232" cy="1383" r="5"/><circle cx="2295" cy="1439" r="6"/><circle cx="2295" cy="-1" r="6"/><circle cx="2332" cy="1413" r="5"/><circle cx="2434" cy="1428" r="6"/><circle cx="2552" cy="1373" r="4"/><path stroke="#fff" d="M48 36L132 77M48 36L-27 24M48 36L4 87M48 36L86 132M48 36L-11 94M2608 36L2533 24M2608 36L2549 94M132 77L168 70M132 77L86 132M132 77L100 160M132 77L146 -6M132 1517L146 1434M168 70L253 75M168 70L230 92M168 70L146 -6M168 70L195 -14M168 1510L146 1434M168 1510L195 1426M253 75L344 37M253 75L230 92M253 75L287 140M253 75L343 102M344 37L408 1M344 37L343 102M344 37L418 81M344 37L354 -41M344 1477L354 1399M408 1L505 33M408 1L418 81M408 1L354 -41M408 1L401 -70M408 1441L354 1399M408 1441L401 1370M505 33L577 43M505 33L418 81M505 33L533 134M505 33L528 -48M505 1473L528 1392M577 43L666 66M577 43L533 134M577 43L648 122M577 43L528 -48M577 1483L528 1392M666 66L759 17M666 66L634 151M666 66L648 122M666 66L725 -16M666 1506L725 1424M759 17L807 14M759 17L692 -55M759 17L725 -16M759 17L817 -29M759 1457L692 1385M759 1457L725 1424M759 1457L817 1411M807 14L797 116M807 14L725 -16M807 14L817 -29M807 14L882 -75M807 1454L725 1424M807 1454L817 1411M807 1454L882 1365M923 34L916 135M923 34L882 -75M923 34L1030 -8M923 1474L882 1365M923 1474L1030 1432M1040 32L1081 51M1040 32L1102 127M1040 32L1030 -8M1040 32L1073 -16M1040 1472L1030 1432M1040 1472L1073 1424M1081 51L1185 58M1081 51L1102 127M1081 51L1030 -8M1081 51L1073 -16M1081 1491L1030 1432M1081 1491L1073 1424M1185 58L1271 51M1185 58L1174 148M1185 58L1262 130M1185 58L1161 -25M1185 1498L1161 1415M1271 51L1311 40M1271 51L1262 130M1271 51L1317 91M1311 40L1405 76M1311 40L1317 91M1311 40L1315 -46M1311 1480L1315 1394M1405 76L1453 15M1405 76L1317 91M1405 76L1404 120M1405 76L1469 130M1453 15L1451 -88M1453 15L1419 -37M1453 15L1452 -36M1453 15L1527 -22M1453 1455L1451 1352M1453 1455L1419 1403M1453 1455L1452 1404M1453 1455L1527 1418M1589 77L1619 11M1589 77L1555 89M1589 77L1611 90M1589 77L1560 203M1619 11L1555 89M1619 11L1611 90M1619 11L1527 -22M1619 11L1631 -53M1619 1451L1527 1418M1619 1451L1631 1387M1742 28L1816 46M1742 28L1728 135M1742 28L1781 97M1816 46L1919 20M1816 46L1728 135M1816 46L1781 97M1816 46L1856 84M1919 20L1981 59M1919 20L1856 84M1919 20L1887 -73M1919 20L1926 -14M1919 1460L1887 1367M1919 1460L1926 1426M1981 59L2041 25M1981 59L1967 153M1981 59L1926 -14M1981 59L2032 -36M1981 1499L1926 1426M1981 1499L2032 1404M2041 25L2120 18M2041 25L2072 123M2041 25L2032 -36M2041 25L2094 -24M2041 1465L2032 1404M2041 1465L2094 1416M2120 18L2165 2M2120 18L2181 102M2120 18L2032 -36M2120 18L2094 -24M2120 1458L2032 1404M2120 1458L2094 1416M2165 2L2270 19M2165 2L2232 -85M2165 2L2094 -24M2165 2L2232 -57M2165 1442L2232 1355M2165 1442L2094 1416M2165 1442L2232 1383M2270 19L2232 -85M2270 19L2232 -57M2270 19L2295 -1M2270 19L2332 -27M2270 1459L2232 1355M2270 1459L2232 1383M2270 1459L2295 1439M2270 1459L2332 1413M2394 0L2443 25M2394 0L2368 84M2394 0L2295 -1M2394 0L2332 -27M2394 0L2434 -12M2394 1440L2295 1439M2394 1440L2332 1413M2394 1440L2434 1428M2443 25L2533 24M2443 25L2368 84M2443 25L2471 106M2443 25L2434 -12M2443 1465L2434 1428M2533 24L2564 87M2533 24L2549 94M2533 24L2434 -12M-27 24L4 87M2533 1464L2434 1428M4 87L86 132M4 87L-89 106M4 87L-11 94M2564 87L2471 106M2564 87L2549 94M86 132L-11 94M86 132L100 160M2646 132L2549 94M230 92L287 140M230 92L211 192M287 140L343 102M287 140L255 213M287 140L366 161M343 102L418 81M343 102L366 161M418 81L442 177M533 134L442 177M533 134L537 164M634 151L648 122M634 151L537 164M634 151L607 210M634 151L659 221M648 122L607 210M797 116L819 141M819 141L916 135M819 141L745 223M819 141L853 211M916 135L853 211M916 135L927 166M1023 154L1102 127M1023 154L927 166M1023 154L1001 205M1023 154L1058 191M1102 127L1174 148M1102 127L1058 191M1174 148L1262 130M1174 148L1195 200M1174 148L1242 192M1262 130L1317 91M1262 130L1242 192M1317 91L1404 120M1404 120L1469 130M1404 120L1418 196M1404 120L1443 210M1469 130L1555 89M1469 130L1418 196M1469 130L1443 210M1555 89L1611 90M1555 89L1560 203M1728 135L1781 97M1728 135L1694 171M1728 135L1831 182M1781 97L1856 84M1781 97L1831 182M1856 84L1831 182M1856 84L1854 164M1967 153L1950 217M1967 153L1930 244M1967 153L2018 246M2072 123L2117 153M2072 123L2142 182M2117 153L2181 102M2117 153L2078 231M2117 153L2142 182M2117 153L2199 203M2181 102L2142 182M2181 102L2266 169M2291 112L2368 84M2291 112L2266 169M2291 112L2359 174M2368 84L2359 174M2471 106L2549 94M2471 106L2424 211M2471 106L2434 -12M2471 1546L2434 1428M27 237L100 160M27 237L-6 202M27 237L14 248M27 237L122 256M2587 237L2554 202M100 160L211 192M100 160L122 256M211 192L255 213M211 192L122 256M211 192L176 291M255 213L176 291M255 213L346 262M366 161L442 177M366 161L346 262M442 177L537 164M537 164L607 210M607 210L659 221M607 210L605 298M659 221L745 223M659 221L605 298M659 221L663 303M745 223L759 311M745 223L854 248M853 211L927 166M853 211L854 248M853 211L928 266M927 166L1001 205M927 166L928 266M1001 205L1058 191M1001 205L928 266M1001 205L983 268M1058 191L983 268M1058 191L1121 257M1195 200L1242 192M1195 200L1121 257M1242 192L1355 221M1355 221L1418 196M1355 221L1443 210M1355 221L1352 300M1355 221L1366 288M1418 196L1443 210M1418 196L1366 288M1443 210L1484 297M1560 203L1613 239M1560 203L1555 271M1613 239L1694 171M1613 239L1555 271M1613 239L1648 280M1613 239L1599 323M1831 182L1854 164M1831 182L1888 257M1854 164L1950 217M1854 164L1888 257M1854 164L1930 244M1950 217L1888 257M1950 217L1930 244M1950 217L2018 246M2078 231L2142 182M2078 231L2018 246M2078 231L2142 311M2142 182L2199 203M2199 203L2266 169M2199 203L2205 284M2199 203L2288 242M2266 169L2359 174M2266 169L2288 242M2359 174L2424 211M2359 174L2288 242M2424 211L2381 306M2424 211L2439 283M2554 202L2574 248M-6 202L14 248M14 248L122 256M14 248L-61 307M14 248L-42 327M2574 248L2499 307M2574 248L2518 327M122 256L176 291M176 291L152 386M289 312L346 262M289 312L217 374M289 312L296 388M289 312L330 331M289 312L269 410M346 262L411 316M346 262L330 331M411 316L513 315M411 316L330 331M411 316L424 365M411 316L498 361M513 315L605 298M513 315L498 361M605 298L663 303M605 298L638 390M663 303L759 311M663 303L638 390M759 311L763 344M759 311L808 325M854 248L928 266M854 248L808 325M928 266L983 268M983 268L924 378M983 268L975 368M1110 309L1121 257M1110 309L1107 328M1110 309L1169 327M1110 309L1074 405M1121 257L1107 328M1121 257L1169 327M1273 295L1352 300M1273 295L1366 288M1273 295L1210 334M1273 295L1287 365M1352 300L1366 288M1352 300L1287 365M1352 300L1410 374M1366 288L1410 374M1484 297L1555 271M1484 297L1488 378M1484 297L1599 323M1555 271L1648 280M1555 271L1599 323M1648 280L1746 302M1648 280L1599 323M1648 280L1650 378M1746 302L1761 310M1746 302L1717 379M1761 310L1717 379M1761 310L1824 374M1888 257L1930 244M1888 257L1923 348M1930 244L2018 246M2018 246L2065 356M2142 311L2205 284M2142 311L2065 356M2142 311L2085 392M2205 284L2288 242M2205 284L2234 378M2205 284L2291 365M2381 306L2439 283M2381 306L2291 365M2381 306L2334 393M2381 306L2450 347M2439 283L2499 307M2439 283L2450 347M2439 283L2518 327M2499 307L2450 347M2499 307L2518 327M9 396L-42 327M9 396L9 424M9 396L-6 419M2569 396L2518 327M2569 396L2554 419M152 386L217 374M152 386L107 445M152 386L207 422M217 374L296 388M217 374L207 422M217 374L269 410M296 388L330 331M296 388L207 422M296 388L269 410M330 331L424 365M424 365L498 361M424 365L395 465M424 365L438 459M638 390L717 399M638 390L630 455M638 390L696 421M717 399L763 344M717 399L696 421M717 399L785 403M717 399L704 496M763 344L808 325M763 344L785 403M808 325L785 403M924 378L975 368M924 378L841 430M924 378L899 406M924 378L945 497M975 368L899 406M975 368L1039 465M975 368L1074 405M1107 328L1169 327M1107 328L1210 334M1107 328L1074 405M1169 327L1210 334M1169 327L1210 413M1210 334L1287 365M1210 334L1210 413M1287 365L1210 413M1287 365L1318 464M1410 374L1488 378M1410 374L1416 410M1488 378L1416 410M1488 378L1506 435M1599 323L1650 378M1650 378L1717 379M1717 379L1744 427M1824 374L1910 386M1824 374L1923 348M1824 374L1744 427M1824 374L1830 417M1910 386L1923 348M1910 386L1830 417M1910 386L1920 432M1910 386L1933 440M1923 348L1920 432M1923 348L1933 440M2065 356L2085 392M2065 356L2045 442M2085 392L2045 442M2085 392L2159 411M2085 392L2161 471M2234 378L2291 365M2234 378L2334 393M2234 378L2159 411M2234 378L2265 418M2291 365L2334 393M2291 365L2265 418M2334 393L2265 418M2334 393L2396 454M2450 347L2518 327M2450 347L2428 433M9 424L107 445M9 424L-6 419M9 424L-59 492M2569 424L2554 419M2569 424L2501 492M107 445L71 544M107 445L158 509M207 422L269 410M207 422L158 509M269 410L299 499M395 465L438 459M395 465L299 499M395 465L394 544M395 465L454 486M438 459L394 544M438 459L454 486M545 477L630 455M545 477L454 486M545 477L556 556M545 477L595 552M545 477L522 571M630 455L696 421M630 455L595 552M630 455L704 496M696 421L704 496M696 421L729 520M785 403L841 430M785 403L830 481M841 430L899 406M841 430L830 481M899 406L830 481M899 406L945 497M1039 465L1074 405M1039 465L945 497M1039 465L1016 530M1039 465L1058 513M1187 452L1210 413M1187 452L1140 557M1187 452L1241 534M1318 464L1416 410M1318 464L1241 534M1318 464L1346 537M1318 464L1367 502M1416 410L1506 435M1416 410L1367 502M1506 435L1595 473M1506 435L1501 509M1506 435L1543 489M1595 473L1635 480M1595 473L1543 489M1595 473L1605 533M1595 473L1572 560M1635 480L1605 533M1635 480L1693 505M1744 427L1830 417M1744 427L1693 505M1830 417L1920 432M1830 417L1849 512M1920 432L1933 440M1920 432L1933 489M1933 440L1933 489M2045 442L2009 506M2045 442L2055 572M2159 411L2161 471M2159 411L2265 418M2159 411L2148 497M2161 471L2148 497M2161 471L2171 534M2396 454L2428 433M2396 454L2359 504M2396 454L2463 496M2396 454L2501 492M2428 433L2359 504M2428 433L2463 496M2428 433L2501 492M2554 419L2501 492M71 544L158 509M71 544L79 581M71 544L113 589M158 509L231 530M158 509L113 589M231 530L299 499M231 530L208 596M394 544L454 486M394 544L344 624M394 544L431 579M454 486L431 579M556 556L595 552M556 556L522 571M556 556L582 633M595 552L522 571M595 552L582 633M704 496L729 520M704 496L687 603M729 520L830 481M729 520L687 603M945 497L1016 530M1016 530L1058 513M1016 530L1014 600M1058 513L1140 557M1140 557L1153 585M1140 557L1235 594M1241 534L1153 585M1241 534L1235 594M1346 537L1367 502M1346 537L1329 617M1346 537L1388 598M1346 537L1462 565M1367 502L1388 598M1367 502L1462 565M1501 509L1543 489M1501 509L1462 565M1501 509L1572 560M1543 489L1605 533M1543 489L1572 560M1605 533L1572 560M1605 533L1650 601M1693 505L1765 540M1693 505L1724 582M1765 540L1849 512M1765 540L1724 582M1765 540L1821 577M1765 540L1790 659M1849 512L1933 489M1849 512L1821 577M1849 512L1900 589M1933 489L2009 506M1933 489L1900 589M2009 506L2055 572M2148 497L2171 534M2148 497L2120 581M2171 534L2120 581M2171 534L2188 600M2286 535L2359 504M2286 535L2244 619M2359 504L2463 496M2359 504L2396 586M2463 496L2501 492M79 581L113 589M79 581L26 656M113 589L208 596M113 589L150 656M208 596L257 639M208 596L150 656M257 639L344 624M257 639L184 697M257 639L309 678M344 624L309 678M344 624L368 705M344 624L401 672M431 579L522 571M431 579L401 672M522 571L582 633M582 633L536 684M582 633L606 673M687 603L726 631M687 603L692 675M726 631L820 609M726 631L692 675M726 631L739 709M726 631L803 657M820 609L803 657M956 613L1014 600M956 613L1056 626M956 613L951 659M956 613L997 714M956 613L1043 661M1014 600L1056 626M1014 600L951 659M1014 600L1043 661M1056 626L1043 661M1153 585L1235 594M1235 594L1329 617M1235 594L1239 661M1329 617L1388 598M1329 617L1288 709M1329 617L1392 687M1388 598L1462 565M1388 598L1392 687M1572 560L1650 601M1650 601L1724 582M1650 601L1641 672M1650 601L1683 692M1724 582L1821 577M1724 582L1790 659M1821 577L1900 589M1821 577L1790 659M1900 589L1996 637M1900 589L1894 652M1996 637L2055 572M1996 637L1894 652M1996 637L1923 702M1996 637L2025 656M2055 572L2120 581M2055 572L2025 656M2120 581L2188 600M2188 600L2244 619M2188 600L2133 702M2188 600L2191 668M2244 619L2191 668M2244 619L2302 668M2396 586L2422 620M2396 586L2488 622M2396 586L2368 673M2396 586L2402 673M2422 620L2488 622M2422 620L2368 673M2422 620L2402 673M2488 622L2586 656M2488 622L2558 683M-72 622L26 656M26 656L-2 683M2586 656L2558 683M150 656L184 697M150 656L202 736M184 697L125 754M184 697L202 736M309 678L368 705M309 678L401 672M309 678L276 763M368 705L401 672M368 705L276 763M368 705L400 783M401 672L400 783M536 684L606 673M536 684L468 750M536 684L549 721M606 673L692 675M606 673L549 721M606 673L604 764M692 675L739 709M692 675L803 657M739 709L803 657M739 709L711 784M739 709L743 788M951 659L997 714M951 659L1043 661M951 659L925 739M997 714L1043 661M997 714L925 739M997 714L975 785M1162 715L1239 661M1162 715L1107 763M1162 715L1155 723M1162 715L1212 755M1239 661L1288 709M1239 661L1155 723M1239 661L1309 734M1288 709L1392 687M1288 709L1212 755M1288 709L1309 734M1392 687L1309 734M1392 687L1395 751M1506 673L1559 717M1559 717L1641 672M1559 717L1519 789M1559 717L1590 792M1559 717L1604 725M1641 672L1683 692M1641 672L1604 725M1683 692L1790 659M1683 692L1604 725M1683 692L1754 784M1790 659L1894 652M1894 652L1923 702M1923 702L1897 772M1923 702L1961 798M1923 702L1923 809M2025 656L2052 733M2133 702L2191 668M2133 702L2052 733M2133 702L2123 798M2133 702L2238 728M2191 668L2302 668M2191 668L2238 728M2302 668L2368 673M2302 668L2402 673M2302 668L2238 728M2368 673L2402 673M2558 683L2583 756M2558 683L2530 777M-2 683L23 756M23 756L125 754M23 756L-30 777M23 756L11 846M2583 756L2530 777M125 754L202 736M125 754L107 834M125 754L186 834M202 736L276 763M202 736L186 834M276 763L269 831M276 763L333 823M400 783L468 750M400 783L333 823M400 783L445 862M468 750L549 721M549 721L604 764M549 721L547 811M604 764L547 811M604 764L661 816M711 784L743 788M711 784L812 783M711 784L661 816M711 784L795 851M743 788L812 783M743 788L661 816M743 788L795 851M812 783L795 851M812 783L813 854M812 783L897 801M925 739L975 785M925 739L897 801M925 739L971 843M975 785L897 801M975 785L971 843M975 785L1075 819M1107 763L1155 723M1107 763L1075 819M1155 723L1212 755M1212 755L1175 819M1212 755L1254 827M1309 734L1395 751M1395 751L1392 857M1395 751L1480 811M1519 789L1590 792M1519 789L1604 725M1519 789L1480 811M1519 789L1546 824M1590 792L1604 725M1590 792L1546 824M1590 792L1654 828M1754 784L1805 776M1754 784L1654 828M1754 784L1724 872M1754 784L1825 831M1805 776L1897 772M1805 776L1825 831M1897 772L1961 798M1897 772L1825 831M1897 772L1923 809M1961 798L1907 871M1961 798L1923 809M1961 798L2047 803M2052 733L2123 798M2052 733L2047 803M2123 798L2047 803M2123 798L2142 820M2123 798L2230 811M2238 728L2270 797M2238 728L2230 811M2270 797L2380 784M2270 797L2230 811M2270 797L2277 848M2380 784L2458 794M2380 784L2345 866M2380 784L2416 820M2458 794L2530 777M2458 794L2416 820M2458 794L2497 822M2530 777L2571 846M2530 777L2497 822M-30 777L11 846M11 846L107 834M11 846L-63 822M11 846L60 938M2571 846L2497 822M107 834L186 834M186 834L269 831M186 834L253 910M269 831L333 823M269 831L253 910M333 823L342 923M445 862L428 882M445 862L441 970M547 811L577 864M547 811L560 880M577 864L661 816M577 864L556 917M577 864L560 880M577 864L652 897M661 816L652 897M795 851L813 854M795 851L752 913M813 854L897 801M813 854L752 913M813 854L853 945M897 801L971 843M971 843L1075 819M971 843L966 946M1075 819L1175 819M1175 819L1254 827M1175 819L1158 895M1175 819L1230 882M1254 827L1331 874M1254 827L1230 882M1254 827L1294 880M1331 874L1392 857M1331 874L1294 880M1331 874L1407 891M1392 857L1480 811M1392 857L1294 880M1392 857L1407 891M1480 811L1546 824M1480 811L1407 891M1546 824L1654 828M1546 824L1525 914M1654 828L1724 872M1654 828L1662 919M1724 872L1662 919M1724 872L1703 947M1724 872L1778 928M1825 831L1907 871M1825 831L1923 809M1907 871L1923 809M1907 871L1887 935M1907 871L1982 899M2047 803L2142 820M2047 803L2045 919M2142 820L2230 811M2142 820L2085 921M2142 820L2188 935M2230 811L2277 848M2277 848L2345 866M2277 848L2258 930M2345 866L2416 820M2345 866L2368 949M2345 866L2352 968M2416 820L2497 822M2416 820L2460 909M2497 822L2460 909M60 938L84 951M60 938L-7 954M60 938L30 1015M60 938L108 996M2620 938L2553 954M84 951L-7 954M84 951L30 1015M84 951L108 996M84 951L161 1003M2644 951L2553 954M224 954L253 910M224 954L161 1003M224 954L296 982M224 954L210 1054M253 910L342 923M253 910L296 982M342 923L428 882M342 923L296 982M342 923L322 1005M428 882L441 970M556 917L560 880M556 917L652 897M556 917L544 990M556 917L571 980M560 880L652 897M560 880L544 990M652 897L752 913M752 913L759 1024M752 913L801 983M853 945L930 934M853 945L801 983M853 945L895 1021M930 934L966 946M930 934L895 1021M930 934L1012 1008M930 934L904 1054M966 946L895 1021M966 946L1012 1008M966 946L1060 989M1110 937L1158 895M1110 937L1060 989M1110 937L1189 973M1110 937L1204 991M1158 895L1230 882M1158 895L1189 973M1158 895L1204 991M1230 882L1294 880M1230 882L1189 973M1294 880L1294 993M1407 891L1494 934M1407 891L1525 914M1494 934L1525 914M1494 934L1412 1028M1494 934L1494 1031M1494 934L1546 986M1525 914L1546 986M1662 919L1703 947M1662 919L1666 1026M1703 947L1778 928M1703 947L1666 1026M1703 947L1704 1027M1778 928L1887 935M1778 928L1798 1013M1887 935L1982 899M1887 935L1893 987M1887 935L1923 1027M1982 899L2045 919M2045 919L2085 921M2045 919L2038 1001M2045 919L2096 1000M2085 921L2188 935M2085 921L2038 1001M2085 921L2096 1000M2188 935L2258 930M2188 935L2188 994M2258 930L2188 994M2258 930L2316 975M2258 930L2352 968M2368 949L2460 909M2368 949L2316 975M2368 949L2352 968M2368 949L2418 1013M2460 909L2553 954M2460 909L2525 984M2553 954L2590 1015M2553 954L2525 984M-7 954L30 1015M30 1015L108 996M30 1015L-35 984M2590 1015L2525 984M108 996L161 1003M108 996L114 1090M161 1003L210 1054M296 982L322 1005M296 982L210 1054M322 1005L441 970M322 1005L393 1079M441 970L544 990M441 970L393 1079M544 990L571 980M544 990L528 1089M571 980L659 1008M659 1008L759 1024M659 1008L681 1084M759 1024L801 983M759 1024L681 1084M759 1024L763 1079M801 983L763 1079M895 1021L872 1065M895 1021L904 1054M1012 1008L1060 989M1012 1008L1054 1047M1060 989L1054 1047M1189 973L1204 991M1189 973L1294 993M1204 991L1294 993M1204 991L1212 1090M1294 993L1299 1051M1294 993L1392 1048M1412 1028L1494 1031M1412 1028L1392 1048M1412 1028L1443 1051M1494 1031L1546 986M1494 1031L1443 1051M1494 1031L1555 1076M1546 986L1443 1051M1546 986L1555 1076M1666 1026L1704 1027M1666 1026L1648 1082M1704 1027L1798 1013M1704 1027L1648 1082M1704 1027L1754 1083M1798 1013L1893 987M1798 1013L1754 1083M1798 1013L1834 1063M1893 987L1923 1027M1923 1027L1834 1063M1923 1027L1876 1105M1923 1027L1995 1066M2038 1001L2096 1000M2038 1001L1995 1066M2038 1001L2011 1064M2096 1000L2188 994M2096 1000L2101 1081M2188 994L2180 1093M2188 994L2252 1064M2316 975L2352 968M2316 975L2252 1064M2352 968L2418 1013M2418 1013L2383 1094M2418 1013L2428 1050M2525 984L2428 1050M2525 984L2531 1095M37 1102L114 1090M37 1102L-29 1095M37 1102L65 1152M37 1102L133 1132M37 1102L-4 1168M2597 1102L2531 1095M2597 1102L2556 1168M114 1090L210 1054M114 1090L65 1152M114 1090L133 1132M210 1054L246 1105M246 1105L182 1190M246 1105L294 1144M393 1079L448 1114M393 1079L294 1144M448 1114L528 1089M448 1114L446 1178M528 1089L607 1110M528 1089L535 1149M607 1110L681 1084M607 1110L535 1149M607 1110L577 1184M607 1110L662 1152M681 1084L763 1079M681 1084L662 1152M763 1079L872 1065M763 1079L771 1140M872 1065L904 1054M904 1054L980 1119M980 1119L1054 1047M980 1119L936 1151M980 1119L1029 1130M980 1119L979 1207M1054 1047L1126 1090M1054 1047L1029 1130M1126 1090L1212 1090M1126 1090L1029 1130M1126 1090L1076 1181M1126 1090L1195 1158M1212 1090L1299 1051M1212 1090L1195 1158M1212 1090L1220 1197M1299 1051L1392 1048M1392 1048L1443 1051M1555 1076L1519 1136M1555 1076L1626 1144M1648 1082L1626 1144M1648 1082L1691 1157M1754 1083L1834 1063M1754 1083L1691 1157M1754 1083L1792 1161M1834 1063L1876 1105M1834 1063L1847 1120M1876 1105L1847 1120M1876 1105L1925 1159M1876 1105L1946 1203M1995 1066L2011 1064M1995 1066L1925 1159M1995 1066L2060 1126M2011 1064L2101 1081M2011 1064L2060 1126M2101 1081L2180 1093M2101 1081L2060 1126M2101 1081L2130 1136M2180 1093L2252 1064M2180 1093L2130 1136M2180 1093L2200 1179M2252 1064L2278 1165M2383 1094L2428 1050M2383 1094L2439 1161M2428 1050L2531 1095M2428 1050L2439 1161M2531 1095L2556 1168M65 1152L133 1132M65 1152L-4 1168M65 1152L23 1222M2625 1152L2556 1168M133 1132L182 1190M133 1132L141 1201M182 1190L294 1144M182 1190L141 1201M182 1190L240 1241M294 1144L348 1199M294 1144L240 1241M348 1199L446 1178M348 1199L395 1271M446 1178L535 1149M446 1178L454 1228M535 1149L577 1184M535 1149L572 1229M577 1184L662 1152M577 1184L558 1264M577 1184L572 1229M662 1152L714 1248M771 1140L848 1185M771 1140L849 1207M848 1185L936 1151M848 1185L756 1240M848 1185L849 1207M848 1185L922 1243M936 1151L922 1243M936 1151L979 1207M1029 1130L1076 1181M1029 1130L979 1207M1076 1181L979 1207M1076 1181L1091 1218M1076 1181L1128 1224M1195 1158L1220 1197M1195 1158L1128 1224M1195 1158L1237 1230M1220 1197L1128 1224M1220 1197L1237 1230M1347 1191L1434 1156M1347 1191L1318 1280M1347 1191L1410 1205M1434 1156L1519 1136M1434 1156L1530 1172M1434 1156L1410 1205M1434 1156L1474 1242M1519 1136L1530 1172M1519 1136L1552 1211M1530 1172L1626 1144M1530 1172L1474 1242M1530 1172L1552 1211M1626 1144L1691 1157M1626 1144L1552 1211M1691 1157L1792 1161M1792 1161L1847 1120M1847 1120L1925 1159M1847 1120L1870 1226M1925 1159L1870 1226M1925 1159L1946 1203M2060 1126L2130 1136M2130 1136L2114 1233M2130 1136L2175 1209M2200 1179L2278 1165M2200 1179L2175 1209M2200 1179L2243 1211M2278 1165L2363 1187M2278 1165L2243 1211M2363 1187L2439 1161M2363 1187L2354 1267M2363 1187L2407 1262M2363 1187L2366 1291M2439 1161L2407 1262M2556 1168L2583 1222M2556 1168L2542 1204M-4 1168L23 1222M23 1222L141 1201M23 1222L-18 1204M23 1222L-36 1304M2583 1222L2542 1204M2583 1222L2524 1304M141 1201L240 1241M141 1201L121 1301M240 1241L294 1278M240 1241L260 1315M294 1278L260 1315M294 1278L346 1316M294 1278L265 1365M395 1271L454 1228M395 1271L346 1316M395 1271L431 1315M395 1271L401 1370M454 1228L558 1264M454 1228L431 1315M558 1264L572 1229M558 1264L542 1316M558 1264L612 1281M572 1229L542 1316M572 1229L612 1281M714 1248L756 1240M714 1248L743 1315M714 1248L806 1288M756 1240L849 1207M756 1240L743 1315M756 1240L806 1288M849 1207L922 1243M849 1207L806 1288M922 1243L979 1207M922 1243L923 1299M1091 1218L1128 1224M1091 1218L1055 1313M1237 1230L1318 1280M1237 1230L1185 1302M1237 1230L1253 1300M1318 1280L1253 1300M1318 1280L1298 1329M1318 1280L1315 1394M1410 1205L1474 1242M1474 1242L1552 1211M1552 1211L1647 1268M1647 1268L1690 1280M1647 1268L1662 1291M1647 1268L1684 1328M1690 1280L1662 1291M1690 1280L1684 1328M1690 1280L1769 1327M1690 1280L1711 1368M1800 1279L1870 1226M1800 1279L1769 1327M1800 1279L1912 1280M1800 1279L1825 1366M1870 1226L1946 1203M1870 1226L1912 1280M1946 1203L1912 1280M2072 1257L2114 1233M2072 1257L2063 1287M2072 1257L2136 1302M2114 1233L2175 1209M2114 1233L2063 1287M2114 1233L2136 1302M2175 1209L2243 1211M2175 1209L2136 1302M2354 1267L2407 1262M2354 1267L2308 1312M2354 1267L2366 1291M2354 1267L2460 1284M2407 1262L2366 1291M2407 1262L2460 1284M2542 1204L2460 1284M17 1338L121 1301M17 1338L-36 1304M17 1338L26 1361M17 1338L-8 1373M2577 1338L2524 1304M2577 1338L2552 1373M121 1301L175 1321M121 1301L26 1361M175 1321L260 1315M175 1321L146 1434M175 1321L195 1426M175 1321L265 1365M260 1315L346 1316M260 1315L265 1365M346 1316L354 1399M346 1316L401 1370M431 1315L401 1370M542 1316L612 1281M542 1316L528 1392M542 1316L571 1374M612 1281L647 1339M612 1281L571 1374M647 1339L571 1374M647 1339L692 1385M743 1315L806 1288M743 1315L692 1385M806 1288L882 1365M923 1299L1002 1326M923 1299L882 1365M1002 1326L1055 1313M1002 1326L1030 1432M1055 1313L1073 1424M1185 1302L1253 1300M1185 1302L1298 1329M1185 1302L1161 1415M1185 1302L1231 1376M1253 1300L1298 1329M1253 1300L1231 1376M1298 1329L1231 1376M1298 1329L1315 1394M1413 1358L1451 1352M1413 1358L1419 1403M1413 1358L1452 1404M1451 1352L1419 1403M1451 1352L1452 1404M1451 1352L1527 1418M1553 1332L1527 1418M1553 1332L1631 1387M1662 1291L1684 1328M1662 1291L1631 1387M1662 1291L1711 1368M1684 1328L1631 1387M1684 1328L1711 1368M1769 1327L1711 1368M1769 1327L1825 1366M1912 1280L1955 1335M1912 1280L1887 1367M1955 1335L2063 1287M1955 1335L1887 1367M1955 1335L1926 1426M1955 1335L2032 1404M2063 1287L2136 1302M2232 1355L2308 1312M2232 1355L2232 1383M2232 1355L2295 1439M2308 1312L2366 1291M2366 1291L2460 1284M2460 1284L2524 1304M2524 1304L2586 1361M2524 1304L2552 1373M-36 1304L26 1361M26 1361L-8 1373M2586 1361L2552 1373M146 1434L195 1426M195 1426L265 1365M265 1365L354 1399M354 1399L401 1370M528 1392L571 1374M571 1374L692 1385M692 1385L725 1424M725 1424L817 1411M817 1411L882 1365M1030 1432L1073 1424M1073 1424L1161 1415M1161 1415L1231 1376M1231 1376L1315 1394M1315 1394L1419 1403M1419 1403L1452 1404M1452 1404L1527 1418M1631 1387L1711 1368M1825 1366L1887 1367M1887 1367L1926 1426M2032 1404L2094 1416M2232 1383L2295 1439M2232 1383L2332 1413M2295 1439L2332 1413M2332 1413L2434 1428"/></svg>