<svg xmlns="http://www.w3.org/2000/svg" width="2560" height="1440" fill="#fff"><circle cx="20" cy="41" r="5"/><circle cx="86" cy="4" r="5"/><circle cx="86" cy="1444" r="5"/><circle cx="170" cy="37" r="6"/><circle cx="292" cy="28" r="4"/><circle cx="373" cy="5" r="5"/><circle cx="450" cy="32" r="5"/><circle cx="494" cy="38" r="4"/><circle cx="581" cy="10" r="5"/><circle cx="667" cy="26" r="6"/><circle cx="782" cy="9" r="6"/><circle cx="826" cy="34" r="5"/><circle cx="959" cy="42" r="4"/><circle cx="990" cy="17" r="6"/><circle cx="1058" cy="0" r="6"/><circle cx="1058" cy="1440" r="6"/><circle cx="1176" cy="52" r="5"/><circle cx="1238" cy="36" r="5"/><circle cx="1328" cy="16" r="4"/><circle cx="1398" cy="6" r="5"/><circle cx="1451" cy="22" r="5"/><circle cx="1586" cy="26" r="6"/><circle cx="1652" cy="56" r="5"/><circle cx="1685" cy="32" r="4"/><circle cx="1826" cy="19" r="6"/><circle cx="1862" cy="71" r="6"/><circle cx="1978" cy="75" r="5"/><circle cx="2006" cy="60" r="5"/><circle cx="2157" cy="3" r="5"/><circle cx="2157" cy="1443" r="5"/><circle cx="2222" cy="55" r="5"/><circle cx="2317" cy="3" r="4"/><circle cx="2317" cy="1443" r="4"/><circle cx="2362" cy="50" r="5"/><circle cx="2418" cy="0" r="6"/><circle cx="2418" cy="1440" r="6"/><circle cx="2513" cy="28" r="5"/><circle cx="19" cy="127" r="5"/><circle cx="131" cy="111" r="6"/><circle cx="201" cy="108" r="6"/><circle cx="274" cy="102" r="5"/><circle cx="358" cy="139" r="5"/><circle cx="469" cy="85" r="6"/><circle cx="534" cy="136" r="5"/><circle cx="624" cy="123" r="6"/><circle cx="696" cy="87" r="5"/><circle cx="762" cy="107" r="5"/><circle cx="848" cy="88" r="5"/><circle cx="896" cy="145" r="6"/><circle cx="987" cy="81" r="4"/><circle cx="1112" cy="159" r="5"/><circle cx="1198" cy="145" r="5"/><circle cx="1239" cy="113" r="5"/><circle cx="1319" cy="91" r="5"/><circle cx="1390" cy="96" r="6"/><circle cx="1509" cy="133" r="5"/><circle cx="1537" cy="155" r="4"/><circle cx="1632" cy="87" r="5"/><circle cx="1716" cy="118" r="6"/><circle cx="1826" cy="155" r="5"/><circle cx="1846" cy="93" r="6"/><circle cx="1931" cy="137" r="5"/><circle cx="2024" cy="114" r="6"/><circle cx="2155" cy="114" r="5"/><circle cx="2184" cy="103" r="5"/><circle cx="2250" cy="138" r="5"/><circle cx="2367" cy="140" r="5"/><circle cx="2455" cy="140" r="5"/><circle cx="2529" cy="83" r="5"/><circle cx="12" cy="163" r="4"/><circle cx="137" cy="184" r="6"/><circle cx="188" cy="214" r="5"/><circle cx="264" cy="168" r="5"/><circle cx="348" cy="238" r="6"/><circle cx="456" cy="194" r="5"/><circle cx="505" cy="173" r="4"/><circle cx="562" cy="219" r="5"/><circle cx="697" cy="212" r="4"/><circle cx="746" cy="165" r="6"/><circle cx="870" cy="214" r="5"/><circle cx="948" cy="225" r="5"/><circle cx="987" cy="223" r="5"/><circle cx="1085" cy="184" r="5"/><circle cx="1158" cy="237" r="6"/><circle cx="1267" cy="171" r="5"/><circle cx="1333" cy="219" r="5"/><circle cx="1362" cy="208" r="4"/><circle cx="1517" cy="177" r="4"/><circle cx="1537" cy="216" r="6"/><circle cx="1662" cy="166" r="5"/><circle cx="1745" cy="240" r="5"/><circle cx="1803" cy="210" r="6"/><circle cx="1841" cy="178" r="4"/><circle cx="1937" cy="169" r="4"/><circle cx="2032" cy="214" r="6"/><circle cx="2112" cy="192" r="4"/><circle cx="2217" cy="198" r="6"/><circle cx="2265" cy="199" r="5"/><circle cx="2388" cy="172" r="4"/><circle cx="2424" cy="194" r="5"/><circle cx="2485" cy="186" r="6"/><circle cx="33" cy="288" r="5"/><circle cx="153" cy="295" r="6"/><circle cx="239" cy="310" r="5"/><circle cx="245" cy="313" r="5"/><circle cx="388" cy="298" r="5"/><circle cx="451" cy="285" r="5"/><circle cx="517" cy="312" r="5"/><circle cx="582" cy="275" r="5"/><circle cx="657" cy="271" r="6"/><circle cx="792" cy="300" r="5"/><circle cx="869" cy="292" r="6"/><circle cx="916" cy="292" r="5"/><circle cx="995" cy="285" r="4"/><circle cx="1108" cy="296" r="6"/><circle cx="1155" cy="268" r="6"/><circle cx="1273" cy="284" r="6"/><circle cx="1313" cy="309" r="6"/><circle cx="1391" cy="285" r="5"/><circle cx="1463" cy="240" r="5"/><circle cx="1584" cy="252" r="5"/><circle cx="1656" cy="291" r="6"/><circle cx="1701" cy="286" r="5"/><circle cx="1797" cy="298" r="5"/><circle cx="1867" cy="279" r="6"/><circle cx="1977" cy="245" r="5"/><circle cx="2027" cy="283" r="5"/><circle cx="2130" cy="320" r="4"/><circle cx="2200" cy="290" r="5"/><circle cx="2261" cy="293" r="4"/><circle cx="2376" cy="291" r="6"/><circle cx="2439" cy="297" r="5"/><circle cx="2521" cy="285" r="4"/><circle cx="1" cy="328" r="6"/><circle cx="2561" cy="328" r="6"/><circle cx="129" cy="335" r="5"/><circle cx="231" cy="343" r="5"/><circle cx="285" cy="338" r="4"/><circle cx="334" cy="348" r="5"/><circle cx="422" cy="379" r="5"/><circle cx="546" cy="321" r="5"/><circle cx="582" cy="343" r="5"/><circle cx="685" cy="341" r="6"/><circle cx="730" cy="326" r="6"/><circle cx="819" cy="393" r="5"/><circle cx="929" cy="388" r="6"/><circle cx="1003" cy="399" r="6"/><circle cx="1102" cy="377" r="5"/><circle cx="1125" cy="357" r="5"/><circle cx="1231" cy="325" r="6"/><circle cx="1336" cy="396" r="5"/><circle cx="1419" cy="324" r="5"/><circle cx="1509" cy="361" r="6"/><circle cx="1579" cy="378" r="5"/><circle cx="1620" cy="332" r="6"/><circle cx="1745" cy="386" r="4"/><circle cx="1803" cy="376" r="5"/><circle cx="1845" cy="399" r="6"/><circle cx="1981" cy="372" r="5"/><circle cx="2022" cy="391" r="5"/><circle cx="2126" cy="388" r="5"/><circle cx="2209" cy="358" r="4"/><circle cx="2285" cy="340" r="6"/><circle cx="2381" cy="333" r="5"/><circle cx="2411" cy="323" r="5"/><circle cx="2503" cy="350" r="5"/><circle cx="19" cy="408" r="5"/><circle cx="95" cy="412" r="4"/><circle cx="166" cy="439" r="4"/><circle cx="267" cy="462" r="6"/><circle cx="337" cy="417" r="5"/><circle cx="429" cy="420" r="5"/><circle cx="537" cy="405" r="5"/><circle cx="569" cy="471" r="5"/><circle cx="675" cy="475" r="4"/><circle cx="763" cy="431" r="5"/><circle cx="829" cy="400" r="4"/><circle cx="940" cy="450" r="4"/><circle cx="971" cy="477" r="4"/><circle cx="1081" cy="405" r="5"/><circle cx="1167" cy="402" r="6"/><circle cx="1217" cy="443" r="4"/><circle cx="1285" cy="412" r="5"/><circle cx="1428" cy="430" r="5"/><circle cx="1513" cy="425" r="5"/><circle cx="1530" cy="411" r="4"/><circle cx="1633" cy="416" r="5"/><circle cx="1685" cy="473" r="6"/><circle cx="1762" cy="477" r="4"/><circle cx="1873" cy="410" r="5"/><circle cx="1961" cy="431" r="5"/><circle cx="2007" cy="434" r="5"/><circle cx="2142" cy="414" r="5"/><circle cx="2220" cy="451" r="4"/><circle cx="2245" cy="464" r="5"/><circle cx="2322" cy="407" r="5"/><circle cx="2425" cy="420" r="6"/><circle cx="2508" cy="480" r="6"/><circle cx="69" cy="551" r="5"/><circle cx="157" cy="540" r="5"/><circle cx="184" cy="489" r="4"/><circle cx="243" cy="548" r="5"/><circle cx="365" cy="538" r="5"/><circle cx="465" cy="505" r="5"/><circle cx="556" cy="543" r="5"/><circle cx="600" cy="529" r="5"/><circle cx="659" cy="502" r="6"/><circle cx="726" cy="492" r="5"/><circle cx="807" cy="518" r="5"/><circle cx="933" cy="487" r="6"/><circle cx="979" cy="554" r="5"/><circle cx="1055" cy="533" r="6"/><circle cx="1182" cy="490" r="6"/><circle cx="1249" cy="518" r="5"/><circle cx="1318" cy="501" r="6"/><circle cx="1375" cy="491" r="5"/><circle cx="1462" cy="491" r="6"/><circle cx="1542" cy="496" r="4"/><circle cx="1624" cy="482" r="6"/><circle cx="1747" cy="513" r="5"/><circle cx="1785" cy="515" r="4"/><circle cx="1842" cy="491" r="6"/><circle cx="1975" cy="558" r="6"/><circle cx="2019" cy="547" r="5"/><circle cx="2138" cy="557" r="4"/><circle cx="2240" cy="525" r="4"/><circle cx="2280" cy="557" r="5"/><circle cx="2322" cy="520" r="6"/><circle cx="2420" cy="499" r="5"/><circle cx="2529" cy="491" r="5"/><circle cx="61" cy="630" r="5"/><circle cx="113" cy="567" r="4"/><circle cx="178" cy="592" r="5"/><circle cx="241" cy="564" r="6"/><circle cx="362" cy="635" r="4"/><circle cx="403" cy="571" r="5"/><circle cx="482" cy="620" r="5"/><circle cx="564" cy="625" r="5"/><circle cx="676" cy="629" r="4"/><circle cx="756" cy="585" r="5"/><circle cx="866" cy="586" r="6"/><circle cx="895" cy="586" r="5"/><circle cx="1003" cy="607" r="5"/><circle cx="1098" cy="635" r="4"/><circle cx="1179" cy="600" r="4"/><circle cx="1221" cy="613" r="5"/><circle cx="1297" cy="603" r="6"/><circle cx="1423" cy="581" r="5"/><circle cx="1465" cy="593" r="4"/><circle cx="1558" cy="613" r="6"/><circle cx="1612" cy="633" r="5"/><circle cx="1683" cy="626" r="5"/><circle cx="1797" cy="578" r="4"/><circle cx="1849" cy="615" r="5"/><circle cx="1921" cy="604" r="4"/><circle cx="2061" cy="564" r="5"/><circle cx="2140" cy="625" r="4"/><circle cx="2166" cy="607" r="6"/><circle cx="2276" cy="637" r="5"/><circle cx="2366" cy="620" r="4"/><circle cx="2460" cy="582" r="6"/><circle cx="2523" cy="616" r="6"/><circle cx="62" cy="679" r="4"/><circle cx="119" cy="694" r="4"/><circle cx="234" cy="660" r="5"/><circle cx="250" cy="656" r="4"/><circle cx="381" cy="689" r="5"/><circle cx="446" cy="658" r="4"/><circle cx="555" cy="712" r="4"/><circle cx="596" cy="714" r="6"/><circle cx="667" cy="719" r="5"/><circle cx="730" cy="641" r="4"/><circle cx="862" cy="669" r="4"/><circle cx="955" cy="682" r="5"/><circle cx="1032" cy="679" r="6"/><circle cx="1086" cy="713" r="5"/><circle cx="1182" cy="704" r="5"/><circle cx="1249" cy="686" r="5"/><circle cx="1356" cy="698" r="5"/><circle cx="1409" cy="711" r="5"/><circle cx="1516" cy="679" r="5"/><circle cx="1530" cy="652" r="5"/><circle cx="1657" cy="703" r="6"/><circle cx="1727" cy="647" r="5"/><circle cx="1828" cy="715" r="5"/><circle cx="1857" cy="690" r="4"/><circle cx="1976" cy="703" r="5"/><circle cx="2047" cy="649" r="6"/><circle cx="2146" cy="703" r="6"/><circle cx="2163" cy="704" r="5"/><circle cx="2258" cy="691" r="4"/><circle cx="2369" cy="700" r="6"/><circle cx="2475" cy="647" r="5"/><circle cx="2502" cy="703" r="4"/><circle cx="23" cy="746" r="6"/><circle cx="139" cy="763" r="5"/><circle cx="234" cy="764" r="5"/><circle cx="286" cy="724" r="5"/><circle cx="355" cy="782" r="5"/><circle cx="465" cy="758" r="4"/><circle cx="500" cy="800" r="5"/><circle cx="560" cy="793" r="6"/><circle cx="649" cy="784" r="4"/><circle cx="796" cy="735" r="4"/><circle cx="876" cy="759" r="6"/><circle cx="912" cy="765" r="6"/><circle cx="990" cy="770" r="4"/><circle cx="1077" cy="783" r="6"/><circle cx="1199" cy="782" r="5"/><circle cx="1208" cy="734" r="5"/><circle cx="1324" cy="752" r="5"/><circle cx="1408" cy="721" r="6"/><circle cx="1475" cy="777" r="5"/><circle cx="1543" cy="736" r="4"/><circle cx="1657" cy="732" r="5"/><circle cx="1710" cy="763" r="4"/><circle cx="1797" cy="776" r="6"/><circle cx="1898" cy="787" r="5"/><circle cx="1954" cy="723" r="6"/><circle cx="2056" cy="748" r="4"/><circle cx="2139" cy="737" r="4"/><circle cx="2211" cy="755" r="4"/><circle cx="2296" cy="738" r="6"/><circle cx="2330" cy="769" r="4"/><circle cx="2479" cy="740" r="4"/><circle cx="2536" cy="794" r="5"/><circle cx="50" cy="818" r="5"/><circle cx="97" cy="839" r="6"/><circle cx="205" cy="858" r="6"/><circle cx="298" cy="855" r="6"/><circle cx="327" cy="857" r="5"/><circle cx="413" cy="856" r="5"/><circle cx="534" cy="869" r="5"/><circle cx="623" cy="843" r="5"/><circle cx="701" cy="849" r="6"/><circle cx="795" cy="840" r="5"/><circle cx="840" cy="870" r="4"/><circle cx="936" cy="837" r="6"/><circle cx="985" cy="852" r="5"/><circle cx="1115" cy="823" r="5"/><circle cx="1122" cy="826" r="5"/><circle cx="1224" cy="851" r="5"/><circle cx="1303" cy="812" r="5"/><circle cx="1423" cy="801" r="4"/><circle cx="1480" cy="880" r="5"/><circle cx="1532" cy="817" r="6"/><circle cx="1612" cy="807" r="5"/><circle cx="1735" cy="834" r="5"/><circle cx="1809" cy="872" r="5"/><circle cx="1870" cy="835" r="6"/><circle cx="1986" cy="802" r="4"/><circle cx="2068" cy="848" r="6"/><circle cx="2092" cy="876" r="4"/><circle cx="2218" cy="855" r="5"/><circle cx="2300" cy="877" r="5"/><circle cx="2332" cy="842" r="5"/><circle cx="2433" cy="852" r="4"/><circle cx="2524" cy="862" r="6"/><circle cx="53" cy="953" r="5"/><circle cx="129" cy="887" r="4"/><circle cx="176" cy="935" r="4"/><circle cx="316" cy="943" r="6"/><circle cx="351" cy="926" r="5"/><circle cx="460" cy="914" r="6"/><circle cx="491" cy="882" r="5"/><circle cx="637" cy="906" r="6"/><circle cx="705" cy="924" r="5"/><circle cx="756" cy="893" r="4"/><circle cx="801" cy="930" r="5"/><circle cx="896" cy="920" r="6"/><circle cx="1030" cy="955" r="5"/><circle cx="1085" cy="894" r="5"/><circle cx="1154" cy="908" r="5"/><circle cx="1260" cy="954" r="6"/><circle cx="1322" cy="904" r="4"/><circle cx="1437" cy="925" r="4"/><circle cx="1466" cy="935" r="6"/><circle cx="1521" cy="934" r="5"/><circle cx="1642" cy="959" r="5"/><circle cx="1695" cy="908" r="4"/><circle cx="1794" cy="925" r="5"/><circle cx="1913" cy="909" r="4"/><circle cx="1937" cy="917" r="6"/><circle cx="2033" cy="890" r="6"/><circle cx="2128" cy="893" r="5"/><circle cx="2171" cy="921" r="6"/><circle cx="2255" cy="926" r="6"/><circle cx="2355" cy="958" r="5"/><circle cx="2466" cy="909" r="4"/><circle cx="2526" cy="909" r="6"/><circle cx="53" cy="1003" r="6"/><circle cx="151" cy="975" r="5"/><circle cx="163" cy="966" r="5"/><circle cx="310" cy="1008" r="5"/><circle cx="373" cy="1039" r="5"/><circle cx="476" cy="1016" r="6"/><circle cx="515" cy="996" r="5"/><circle cx="583" cy="1003" r="5"/><circle cx="712" cy="980" r="4"/><circle cx="794" cy="976" r="5"/><circle cx="822" cy="965" r="4"/><circle cx="897" cy="1031" r="5"/><circle cx="988" cy="965" r="4"/><circle cx="1075" cy="1005" r="5"/><circle cx="1133" cy="969" r="4"/><circle cx="1213" cy="999" r="5"/><circle cx="1302" cy="1021" r="4"/><circle cx="1399" cy="997" r="5"/><circle cx="1454" cy="1005" r="6"/><circle cx="1598" cy="1021" r="5"/><circle cx="1651" cy="978" r="5"/><circle cx="1707" cy="1001" r="5"/><circle cx="1804" cy="1002" r="5"/><circle cx="1901" cy="965" r="6"/><circle cx="1997" cy="1039" r="4"/><circle cx="2005" cy="1013" r="5"/><circle cx="2131" cy="1004" r="6"/><circle cx="2192" cy="1003" r="4"/><circle cx="2268" cy="990" r="4"/><circle cx="2378" cy="1039" r="6"/><circle cx="2442" cy="1028" r="6"/><circle cx="2499" cy="987" r="5"/><circle cx="59" cy="1061" r="4"/><circle cx="141" cy="1093" r="5"/><circle cx="234" cy="1096" r="5"/><circle cx="279" cy="1087" r="4"/><circle cx="322" cy="1076" r="5"/><circle cx="458" cy="1070" r="5"/><circle cx="523" cy="1093" r="4"/><circle cx="629" cy="1091" r="5"/><circle cx="702" cy="1111" r="4"/><circle cx="791" cy="1078" r="5"/><circle cx="859" cy="1120" r="6"/><circle cx="949" cy="1117" r="5"/><circle cx="1011" cy="1093" r="4"/><circle cx="1072" cy="1057" r="5"/><circle cx="1145" cy="1084" r="5"/><circle cx="1214" cy="1048" r="4"/><circle cx="1303" cy="1099" r="5"/><circle cx="1421" cy="1058" r="4"/><circle cx="1456" cy="1087" r="6"/><circle cx="1547" cy="1061" r="5"/><circle cx="1643" cy="1086" r="5"/><circle cx="1748" cy="1085" r="5"/><circle cx="1799" cy="1087" r="4"/><circle cx="1920" cy="1101" r="6"/><circle cx="1927" cy="1078" r="5"/><circle cx="2074" cy="1044" r="4"/><circle cx="2084" cy="1054" r="4"/><circle cx="2193" cy="1094" r="5"/><circle cx="2296" cy="1085" r="6"/><circle cx="2381" cy="1070" r="4"/><circle cx="2431" cy="1070" r="5"/><circle cx="2538" cy="1076" r="5"/><circle cx="42" cy="1145" r="5"/><circle cx="151" cy="1137" r="5"/><circle cx="225" cy="1153" r="4"/><circle cx="244" cy="1182" r="5"/><circle cx="368" cy="1134" r="6"/><circle cx="425" cy="1174" r="4"/><circle cx="514" cy="1132" r="6"/><circle cx="624" cy="1154" r="5"/><circle cx="645" cy="1168" r="5"/><circle cx="754" cy="1148" r="5"/><circle cx="838" cy="1168" r="5"/><circle cx="921" cy="1180" r="5"/><circle cx="1039" cy="1140" r="5"/><circle cx="1089" cy="1156" r="5"/><circle cx="1164" cy="1175" r="5"/><circle cx="1269" cy="1199" r="5"/><circle cx="1358" cy="1169" r="5"/><circle cx="1427" cy="1136" r="6"/><circle cx="1467" cy="1172" r="5"/><circle cx="1531" cy="1129" r="5"/><circle cx="1674" cy="1194" r="5"/><circle cx="1723" cy="1180" r="4"/><circle cx="1763" cy="1144" r="5"/><circle cx="1920" cy="1189" r="4"/><circle cx="1960" cy="1186" r="6"/><circle cx="2015" cy="1142" r="5"/><circle cx="2139" cy="1193" r="5"/><circle cx="2179" cy="1144" r="5"/><circle cx="2301" cy="1120" r="6"/><circle cx="2346" cy="1170" r="4"/><circle cx="2477" cy="1160" r="5"/><circle cx="2506" cy="1139" r="6"/><circle cx="8" cy="1214" r="6"/><circle cx="106" cy="1277" r="6"/><circle cx="174" cy="1228" r="6"/><circle cx="249" cy="1244" r="5"/><circle cx="338" cy="1234" r="4"/><circle cx="469" cy="1241" r="5"/><circle cx="486" cy="1253" r="4"/><circle cx="607" cy="1217" r="5"/><circle cx="713" cy="1210" r="5"/><circle cx="722" cy="1264" r="5"/><circle cx="819" cy="1201" r="4"/><circle cx="934" cy="1276" r="5"/><circle cx="1025" cy="1244" r="5"/><circle cx="1044" cy="1272" r="4"/><circle cx="1130" cy="1270" r="6"/><circle cx="1227" cy="1268" r="4"/><circle cx="1309" cy="1206" r="5"/><circle cx="1414" cy="1235" r="5"/><circle cx="1440" cy="1226" r="4"/><circle cx="1559" cy="1255" r="4"/><circle cx="1678" cy="1206" r="6"/><circle cx="1756" cy="1205" r="5"/><circle cx="1777" cy="1204" r="6"/><circle cx="1876" cy="1254" r="4"/><circle cx="1997" cy="1275" r="5"/><circle cx="2019" cy="1248" r="5"/><circle cx="2101" cy="1272" r="5"/><circle cx="2195" cy="1211" r="5"/><circle cx="2280" cy="1280" r="5"/><circle cx="2343" cy="1246" r="4"/><circle cx="2474" cy="1200" r="5"/><circle cx="2481" cy="1220" r="6"/><circle cx="15" cy="1335" r="5"/><circle cx="94" cy="1355" r="4"/><circle cx="214" cy="1308" r="5"/><circle cx="302" cy="1323" r="4"/><circle cx="353" cy="1322" r="5"/><circle cx="423" cy="1305" r="4"/><circle cx="517" cy="1310" r="5"/><circle cx="622" cy="1285" r="5"/><circle cx="704" cy="1314" r="5"/><circle cx="746" cy="1355" r="5"/><circle cx="840" cy="1290" r="4"/><circle cx="915" cy="1351" r="6"/><circle cx="964" cy="1342" r="5"/><circle cx="1080" cy="1357" r="5"/><circle cx="1149" cy="1312" r="4"/><circle cx="1254" cy="1329" r="5"/><circle cx="1348" cy="1328" r="5"/><circle cx="1368" cy="1280" r="5"/><circle cx="1474" cy="1314" r="5"/><circle cx="1583" cy="1345" r="5"/><circle cx="1616" cy="1294" r="6"/><circle cx="1717" cy="1300" r="6"/><circle cx="1768" cy="1312" r="6"/><circle cx="1853" cy="1290" r="5"/><circle cx="1954" cy="1317" r="4"/><circle cx="2024" cy="1329" r="5"/><circle cx="2147" cy="1359" r="6"/><circle cx="2238" cy="1308" r="5"/><circle cx="2291" cy="1351" r="5"/><circle cx="2384" cy="1285" r="4"/><circle cx="2424" cy="1347" r="6"/><circle cx="2537" cy="1330" r="5"/><circle cx="71" cy="1434" r="4"/><circle cx="94" cy="1403" r="6"/><circle cx="184" cy="1431" r="5"/><circle cx="268" cy="1388" r="5"/><circle cx="354" cy="1371" r="4"/><circle cx="416" cy="1364" r="5"/><circle cx="484" cy="1363" r="6"/><circle cx="623" cy="1373" r="6"/><circle cx="656" cy="1390" r="5"/><circle cx="792" cy="1376" r="5"/><circle cx="824" cy="1373" r="4"/><circle cx="940" cy="1429" r="4"/><circle cx="1026" cy="1415" r="5"/><circle cx="1052" cy="1411" r="5"/><circle cx="1193" cy="1407" r="5"/><circle cx="1206" cy="1365" r="5"/><circle cx="1294" cy="1424" r="6"/><circle cx="1437" cy="1427" r="4"/><circle cx="1488" cy="1410" r="5"/><circle cx="1569" cy="1364" r="6"/><circle cx="1618" cy="1397" r="5"/><circle cx="1737" cy="1434" r="5"/><circle cx="1780" cy="1363" r="4"/><circle cx="1882" cy="1365" r="6"/><circle cx="1932" cy="1397" r="5"/><circle cx="2038" cy="1420" r="6"/><circle cx="2119" cy="1398" r="5"/><circle cx="2178" cy="1379" r="5"/><circle cx="2240" cy="1396" r="6"/><circle cx="2345" cy="1393" r="6"/><circle cx="2425" cy="1436" r="5"/><circle cx="2425" cy="-4" r="5"/><circle cx="2486" cy="1408" r="4"/><path stroke="#fff" d="M20 41L86 4M20 41L-47 28M20 41L19 127M20 41L-31 83M20 41L71 -6M2580 41L2513 28M2580 41L2529 83M20 1481L71 1434M86 4L170 37M86 4L94 -85M86 4L71 -6M86 4L94 -37M86 1444L94 1355M86 1444L71 1434M86 1444L94 1403M170 37L131 111M170 37L201 108M170 37L94 -37M170 37L184 -9M170 1477L94 1403M170 1477L184 1431M292 28L373 5M292 28L274 102M292 28L184 -9M292 28L268 -52M292 1468L184 1431M292 1468L268 1388M373 5L450 32M373 5L354 -69M373 5L416 -76M373 1445L354 1371M373 1445L416 1364M450 32L494 38M450 32L469 85M450 32L484 -77M450 1472L484 1363M494 38L581 10M494 38L469 85M581 10L667 26M581 10L623 -67M581 10L656 -50M581 1450L623 1373M581 1450L656 1390M667 26L624 123M667 26L696 87M667 26L623 -67M667 26L656 -50M667 1466L623 1373M667 1466L656 1390M782 9L826 34M782 9L848 88M782 9L746 -85M782 9L792 -64M782 9L824 -67M782 1449L746 1355M782 1449L792 1376M782 1449L824 1373M826 34L762 107M826 34L848 88M826 34L792 -64M826 1474L792 1376M959 42L990 17M959 42L987 81M959 42L940 -11M959 1482L940 1429M990 17L1058 0M990 17L987 81M990 17L940 -11M990 17L1026 -25M990 1457L940 1429M990 1457L1026 1415M1058 0L987 81M1058 0L1080 -83M1058 0L1026 -25M1058 0L1052 -29M1058 1440L1080 1357M1058 1440L1026 1415M1058 1440L1052 1411M1176 52L1238 36M1176 52L1198 145M1176 52L1239 113M1176 52L1193 -33M1176 1492L1193 1407M1238 36L1328 16M1238 36L1239 113M1238 36L1193 -33M1238 36L1294 -16M1238 1476L1193 1407M1238 1476L1294 1424M1328 16L1398 6M1328 16L1319 91M1328 16L1390 96M1328 16L1294 -16M1328 1456L1294 1424M1398 6L1451 22M1398 6L1390 96M1398 6L1437 -13M1398 6L1488 -30M1398 1446L1437 1427M1398 1446L1488 1410M1451 22L1390 96M1451 22L1437 -13M1451 22L1488 -30M1451 1462L1437 1427M1451 1462L1488 1410M1586 26L1652 56M1586 26L1685 32M1586 26L1632 87M1586 26L1569 -76M1586 26L1618 -43M1586 1466L1569 1364M1586 1466L1618 1397M1652 56L1685 32M1652 56L1632 87M1652 56L1716 118M1652 56L1737 -6M1652 1496L1737 1434M1685 32L1632 87M1685 32L1716 118M1685 32L1737 -6M1685 1472L1737 1434M1826 19L1862 71M1826 19L1846 93M1826 19L1737 -6M1826 19L1780 -77M1826 19L1882 -75M1826 1459L1737 1434M1826 1459L1780 1363M1826 1459L1882 1365M1862 71L1826 155M1862 71L1846 93M1862 71L1931 137M1978 75L2006 60M1978 75L1931 137M1978 75L2024 114M1978 75L1937 169M1978 75L2038 -20M1978 1515L2038 1420M2006 60L2024 114M2006 60L1932 -43M2006 60L2038 -20M2006 1500L1932 1397M2006 1500L2038 1420M2157 3L2222 55M2157 3L2147 -81M2157 3L2119 -42M2157 3L2178 -61M2157 1443L2147 1359M2157 1443L2119 1398M2157 1443L2178 1379M2222 55L2155 114M2222 55L2184 103M2222 55L2250 138M2317 3L2362 50M2317 3L2291 -89M2317 3L2240 -44M2317 3L2345 -47M2317 1443L2291 1351M2317 1443L2240 1396M2317 1443L2345 1393M2362 50L2418 0M2362 50L2367 140M2362 50L2425 -4M2362 1490L2425 1436M2418 0L2424 -93M2418 0L2345 -47M2418 0L2425 -4M2418 0L2486 -32M2418 1440L2424 1347M2418 1440L2345 1393M2418 1440L2425 1436M2418 1440L2486 1408M2513 28L2529 83M2513 28L2486 -32M2513 1468L2486 1408M19 127L131 111M19 127L-31 83M19 127L12 163M2579 127L2529 83M131 111L201 108M131 111L137 184M131 111L188 214M201 108L274 102M201 108L137 184M201 108L264 168M274 102L358 139M274 102L264 168M358 139L264 168M358 139L348 238M358 139L456 194M469 85L534 136M469 85L456 194M469 85L505 173M534 136L624 123M534 136L456 194M534 136L505 173M534 136L562 219M624 123L696 87M624 123L746 165M696 87L762 107M696 87L697 212M696 87L746 165M762 107L848 88M762 107L746 165M848 88L896 145M896 145L987 81M896 145L870 214M896 145L948 225M896 145L987 223M1112 159L1198 145M1112 159L1085 184M1112 159L1158 237M1198 145L1239 113M1198 145L1158 237M1198 145L1267 171M1239 113L1319 91M1239 113L1267 171M1319 91L1390 96M1319 91L1267 171M1509 133L1537 155M1509 133L1517 177M1509 133L1537 216M1537 155L1517 177M1537 155L1537 216M1537 155L1584 252M1632 87L1716 118M1632 87L1662 166M1716 118L1662 166M1826 155L1846 93M1826 155L1803 210M1826 155L1841 178M1846 93L1931 137M1846 93L1841 178M1931 137L2024 114M1931 137L1937 169M2024 114L1937 169M2024 114L2032 214M2155 114L2184 103M2155 114L2250 138M2155 114L2112 192M2155 114L2217 198M2184 103L2250 138M2184 103L2112 192M2184 103L2217 198M2250 138L2217 198M2250 138L2265 199M2367 140L2455 140M2367 140L2388 172M2367 140L2424 194M2455 140L2529 83M2455 140L2388 172M2455 140L2424 194M2455 140L2485 186M2529 83L2572 163M-31 83L12 163M12 163L-75 186M2572 163L2485 186M137 184L188 214M188 214L264 168M188 214L153 295M264 168L348 238M348 238L388 298M456 194L505 173M456 194L451 285M505 173L562 219M562 219L582 275M697 212L746 165M697 212L657 271M870 214L948 225M870 214L792 300M870 214L869 292M870 214L916 292M948 225L987 223M948 225L916 292M948 225L995 285M987 223L1085 184M987 223L995 285M1085 184L1158 237M1085 184L1155 268M1158 237L1108 296M1158 237L1155 268M1267 171L1333 219M1267 171L1273 284M1333 219L1362 208M1333 219L1273 284M1333 219L1313 309M1333 219L1391 285M1362 208L1391 285M1362 208L1463 240M1517 177L1537 216M1517 177L1463 240M1517 177L1584 252M1537 216L1463 240M1537 216L1584 252M1662 166L1745 240M1745 240L1803 210M1745 240L1656 291M1745 240L1701 286M1745 240L1797 298M1803 210L1841 178M1803 210L1797 298M1803 210L1867 279M1841 178L1867 279M1937 169L2032 214M1937 169L1977 245M2032 214L2112 192M2032 214L1977 245M2032 214L2027 283M2217 198L2265 199M2217 198L2200 290M2265 199L2261 293M2388 172L2424 194M2388 172L2485 186M2424 194L2485 186M2485 186L2521 285M33 288L-39 285M33 288L1 328M33 288L129 335M2593 288L2521 285M153 295L239 310M153 295L245 313M153 295L129 335M153 295L231 343M239 310L245 313M239 310L231 343M239 310L285 338M245 313L231 343M245 313L285 338M245 313L334 348M388 298L451 285M388 298L334 348M388 298L422 379M451 285L517 312M451 285L422 379M451 285L546 321M517 312L582 275M517 312L546 321M517 312L582 343M517 312L537 405M582 275L657 271M582 275L546 321M582 275L582 343M657 271L685 341M657 271L730 326M792 300L869 292M792 300L685 341M792 300L730 326M792 300L819 393M869 292L916 292M869 292L819 393M869 292L929 388M916 292L995 285M916 292L929 388M1108 296L1155 268M1108 296L1102 377M1108 296L1125 357M1155 268L1125 357M1155 268L1231 325M1273 284L1313 309M1273 284L1231 325M1313 309L1391 285M1313 309L1231 325M1313 309L1336 396M1391 285L1463 240M1391 285L1419 324M1463 240L1419 324M1584 252L1656 291M1584 252L1620 332M1656 291L1701 286M1656 291L1620 332M1701 286L1797 298M1701 286L1620 332M1701 286L1745 386M1797 298L1867 279M1797 298L1803 376M1867 279L1977 245M1867 279L1803 376M1977 245L2027 283M2027 283L2130 320M2027 283L1981 372M2027 283L2022 391M2130 320L2200 290M2130 320L2126 388M2130 320L2142 414M2200 290L2261 293M2200 290L2209 358M2261 293L2209 358M2261 293L2285 340M2376 291L2439 297M2376 291L2285 340M2376 291L2381 333M2376 291L2411 323M2439 297L2521 285M2439 297L2381 333M2439 297L2411 323M2439 297L2503 350M2521 285L2561 328M2521 285L2503 350M-39 285L1 328M1 328L129 335M1 328L-57 350M1 328L19 408M2561 328L2503 350M129 335L95 412M231 343L285 338M285 338L334 348M285 338L337 417M334 348L422 379M334 348L337 417M422 379L337 417M422 379L429 420M546 321L582 343M546 321L537 405M582 343L685 341M582 343L537 405M685 341L730 326M730 326L763 431M819 393L763 431M819 393L829 400M929 388L1003 399M929 388L940 450M929 388L933 487M1003 399L1102 377M1003 399L940 450M1003 399L971 477M1003 399L1081 405M1102 377L1125 357M1102 377L1081 405M1102 377L1167 402M1125 357L1081 405M1125 357L1167 402M1231 325L1285 412M1336 396L1285 412M1336 396L1428 430M1336 396L1318 501M1336 396L1375 491M1419 324L1509 361M1509 361L1579 378M1509 361L1428 430M1509 361L1513 425M1509 361L1530 411M1579 378L1620 332M1579 378L1513 425M1579 378L1530 411M1579 378L1633 416M1620 332L1633 416M1745 386L1803 376M1745 386L1845 399M1745 386L1685 473M1745 386L1762 477M1803 376L1845 399M1803 376L1873 410M1845 399L1873 410M1845 399L1961 431M1845 399L1842 491M1981 372L2022 391M1981 372L1873 410M1981 372L1961 431M1981 372L2007 434M2022 391L2126 388M2022 391L1961 431M2022 391L2007 434M2126 388L2209 358M2126 388L2142 414M2209 358L2285 340M2209 358L2142 414M2285 340L2381 333M2285 340L2322 407M2381 333L2411 323M2381 333L2322 407M2411 323L2503 350M2411 323L2425 420M2503 350L2579 408M-57 350L19 408M19 408L95 412M19 408L-52 480M19 408L-31 491M2579 408L2508 480M2579 408L2529 491M95 412L166 439M166 439L267 462M166 439L184 489M267 462L337 417M267 462L184 489M267 462L243 548M337 417L429 420M429 420L537 405M429 420L465 505M537 405L569 471M569 471L465 505M569 471L556 543M569 471L600 529M569 471L659 502M675 475L600 529M675 475L659 502M675 475L726 492M763 431L829 400M763 431L726 492M763 431L807 518M940 450L971 477M940 450L933 487M971 477L933 487M971 477L979 554M971 477L1055 533M1081 405L1167 402M1167 402L1217 443M1167 402L1182 490M1217 443L1285 412M1217 443L1182 490M1217 443L1249 518M1285 412L1318 501M1428 430L1513 425M1428 430L1375 491M1428 430L1462 491M1513 425L1530 411M1513 425L1462 491M1530 411L1542 496M1633 416L1685 473M1633 416L1624 482M1685 473L1762 477M1685 473L1624 482M1685 473L1747 513M1762 477L1747 513M1762 477L1785 515M1762 477L1842 491M1873 410L1961 431M1873 410L1842 491M1961 431L2007 434M2007 434L2019 547M2142 414L2220 451M2220 451L2245 464M2220 451L2240 525M2245 464L2322 407M2245 464L2240 525M2245 464L2280 557M2245 464L2322 520M2322 407L2425 420M2322 407L2322 520M2425 420L2508 480M2425 420L2420 499M2508 480L2420 499M2508 480L2529 491M2508 480L2460 582M69 551L61 630M69 551L113 567M157 540L184 489M157 540L243 548M157 540L113 567M157 540L178 592M157 540L241 564M184 489L243 548M243 548L178 592M243 548L241 564M365 538L465 505M365 538L362 635M365 538L403 571M465 505L556 543M465 505L403 571M556 543L600 529M556 543L482 620M556 543L564 625M600 529L659 502M600 529L564 625M659 502L726 492M726 492L807 518M726 492L756 585M807 518L756 585M807 518L866 586M807 518L895 586M933 487L979 554M933 487L895 586M979 554L1055 533M979 554L895 586M979 554L1003 607M1055 533L1003 607M1055 533L1098 635M1182 490L1249 518M1182 490L1179 600M1249 518L1318 501M1249 518L1221 613M1249 518L1297 603M1318 501L1375 491M1318 501L1297 603M1375 491L1462 491M1375 491L1423 581M1462 491L1542 496M1462 491L1423 581M1542 496L1624 482M1747 513L1785 515M1747 513L1842 491M1747 513L1797 578M1785 515L1842 491M1785 515L1797 578M1785 515L1849 615M1975 558L2019 547M1975 558L1921 604M1975 558L2061 564M2019 547L1921 604M2019 547L2061 564M2138 557L2061 564M2138 557L2140 625M2138 557L2166 607M2240 525L2280 557M2240 525L2322 520M2280 557L2322 520M2280 557L2276 637M2322 520L2420 499M2420 499L2529 491M2420 499L2460 582M2529 491L2460 582M2529 491L2523 616M61 630L113 567M61 630L-37 616M61 630L62 679M61 630L119 694M2621 630L2523 616M113 567L178 592M178 592L241 564M178 592L234 660M241 564L234 660M241 564L250 656M362 635L403 571M362 635L381 689M362 635L446 658M403 571L482 620M403 571L446 658M482 620L564 625M482 620L446 658M564 625L555 712M564 625L596 714M676 629L756 585M676 629L667 719M676 629L730 641M756 585L866 586M756 585L730 641M866 586L895 586M866 586L862 669M895 586L862 669M1003 607L1098 635M1003 607L955 682M1003 607L1032 679M1098 635L1179 600M1098 635L1032 679M1098 635L1086 713M1179 600L1221 613M1221 613L1297 603M1221 613L1182 704M1221 613L1249 686M1297 603L1249 686M1297 603L1356 698M1423 581L1465 593M1465 593L1558 613M1465 593L1530 652M1558 613L1612 633M1558 613L1516 679M1558 613L1530 652M1612 633L1683 626M1612 633L1530 652M1612 633L1657 703M1683 626L1657 703M1683 626L1727 647M1683 626L1657 732M1797 578L1849 615M1797 578L1727 647M1849 615L1921 604M1849 615L1828 715M1849 615L1857 690M2061 564L2047 649M2140 625L2166 607M2140 625L2047 649M2140 625L2146 703M2140 625L2163 704M2166 607L2146 703M2166 607L2163 704M2276 637L2366 620M2276 637L2258 691M2276 637L2369 700M2276 637L2296 738M2366 620L2369 700M2460 582L2523 616M2460 582L2475 647M2523 616L2475 647M2523 616L2502 703M62 679L119 694M62 679L23 746M119 694L139 763M234 660L250 656M234 660L234 764M234 660L286 724M250 656L286 724M381 689L446 658M381 689L286 724M381 689L355 782M381 689L465 758M446 658L465 758M555 712L596 714M555 712L465 758M555 712L560 793M596 714L667 719M596 714L560 793M596 714L649 784M667 719L730 641M667 719L649 784M730 641L796 735M862 669L955 682M862 669L876 759M955 682L1032 679M955 682L912 765M1032 679L1086 713M1032 679L1077 783M1086 713L1182 704M1086 713L1077 783M1182 704L1249 686M1182 704L1199 782M1182 704L1208 734M1249 686L1208 734M1249 686L1324 752M1356 698L1409 711M1356 698L1324 752M1356 698L1408 721M1356 698L1303 812M1409 711L1324 752M1409 711L1408 721M1409 711L1475 777M1409 711L1423 801M1516 679L1530 652M1516 679L1543 736M1530 652L1543 736M1657 703L1727 647M1657 703L1657 732M1657 703L1710 763M1727 647L1657 732M1828 715L1857 690M1828 715L1797 776M1828 715L1898 787M1857 690L1954 723M1976 703L2047 649M1976 703L1898 787M1976 703L1954 723M1976 703L2056 748M1976 703L1986 802M2047 649L2056 748M2146 703L2163 704M2146 703L2139 737M2146 703L2211 755M2163 704L2139 737M2163 704L2211 755M2258 691L2211 755M2258 691L2296 738M2258 691L2330 769M2369 700L2475 647M2369 700L2296 738M2369 700L2330 769M2475 647L2502 703M2475 647L2479 740M2502 703L2583 746M2502 703L2479 740M2502 703L2536 794M-58 703L23 746M23 746L-24 794M23 746L50 818M23 746L97 839M2583 746L2536 794M139 763L234 764M139 763L50 818M139 763L97 839M234 764L286 724M234 764L205 858M286 724L355 782M355 782L298 855M355 782L327 857M355 782L413 856M465 758L500 800M500 800L560 793M500 800L534 869M500 800L491 882M560 793L534 869M560 793L623 843M649 784L623 843M649 784L701 849M796 735L876 759M796 735L795 840M876 759L912 765M876 759L795 840M876 759L936 837M912 765L990 770M912 765L936 837M912 765L985 852M990 770L1077 783M990 770L936 837M990 770L985 852M1077 783L1115 823M1077 783L1122 826M1199 782L1208 734M1199 782L1115 823M1199 782L1122 826M1199 782L1224 851M1208 734L1224 851M1324 752L1408 721M1324 752L1303 812M1408 721L1475 777M1408 721L1423 801M1475 777L1543 736M1475 777L1423 801M1475 777L1532 817M1543 736L1532 817M1543 736L1612 807M1657 732L1710 763M1657 732L1612 807M1710 763L1797 776M1710 763L1612 807M1710 763L1735 834M1797 776L1735 834M1797 776L1809 872M1797 776L1870 835M1898 787L1954 723M1898 787L1870 835M1898 787L1986 802M1954 723L2056 748M1954 723L1986 802M2056 748L2139 737M2056 748L2068 848M2139 737L2211 755M2211 755L2296 738M2296 738L2330 769M2330 769L2300 877M2330 769L2332 842M2479 740L2536 794M2536 794L2610 818M2536 794L2524 862M-24 794L50 818M50 818L97 839M50 818L-36 862M2610 818L2524 862M97 839L205 858M97 839L129 887M205 858L298 855M205 858L129 887M205 858L176 935M298 855L327 857M298 855L316 943M298 855L351 926M327 857L413 856M327 857L316 943M327 857L351 926M413 856L351 926M413 856L460 914M413 856L491 882M534 869L623 843M534 869L460 914M534 869L491 882M623 843L701 849M623 843L637 906M701 849L637 906M701 849L705 924M701 849L756 893M795 840L840 870M795 840L756 893M795 840L801 930M840 870L801 930M840 870L896 920M936 837L985 852M936 837L896 920M985 852L896 920M1115 823L1122 826M1115 823L1085 894M1115 823L1154 908M1122 826L1085 894M1122 826L1154 908M1224 851L1303 812M1224 851L1154 908M1224 851L1260 954M1303 812L1322 904M1423 801L1480 880M1480 880L1532 817M1480 880L1437 925M1480 880L1466 935M1480 880L1521 934M1532 817L1612 807M1532 817L1521 934M1735 834L1809 872M1735 834L1695 908M1735 834L1794 925M1809 872L1870 835M1809 872L1794 925M1809 872L1913 909M1870 835L1913 909M1870 835L1937 917M1986 802L2068 848M1986 802L2033 890M2068 848L2092 876M2068 848L2033 890M2068 848L2128 893M2092 876L2033 890M2092 876L2128 893M2218 855L2300 877M2218 855L2128 893M2218 855L2171 921M2218 855L2255 926M2300 877L2332 842M2300 877L2255 926M2300 877L2355 958M2332 842L2433 852M2433 852L2524 862M2433 852L2466 909M2524 862L2466 909M2524 862L2526 909M53 953L-34 909M53 953L53 1003M53 953L151 975M53 953L163 966M2613 953L2526 909M129 887L176 935M129 887L151 975M129 887L163 966M176 935L151 975M176 935L163 966M316 943L351 926M316 943L310 1008M351 926L310 1008M460 914L491 882M460 914L476 1016M460 914L515 996M637 906L705 924M637 906L583 1003M637 906L712 980M705 924L756 893M705 924L712 980M756 893L801 930M756 893L794 976M801 930L794 976M801 930L822 965M896 920L822 965M896 920L988 965M1030 955L1085 894M1030 955L988 965M1030 955L1075 1005M1030 955L1133 969M1085 894L1154 908M1085 894L1133 969M1154 908L1133 969M1260 954L1322 904M1260 954L1213 999M1260 954L1302 1021M1260 954L1214 1048M1437 925L1466 935M1437 925L1521 934M1437 925L1399 997M1437 925L1454 1005M1466 935L1521 934M1466 935L1399 997M1466 935L1454 1005M1642 959L1695 908M1642 959L1598 1021M1642 959L1651 978M1642 959L1707 1001M1695 908L1794 925M1695 908L1651 978M1695 908L1707 1001M1794 925L1804 1002M1794 925L1901 965M1913 909L1937 917M1913 909L1901 965M1937 917L2033 890M1937 917L1901 965M2033 890L2128 893M2128 893L2171 921M2171 921L2255 926M2171 921L2131 1004M2171 921L2192 1003M2255 926L2355 958M2255 926L2268 990M2355 958L2268 990M2355 958L2378 1039M2466 909L2526 909M2466 909L2499 987M2526 909L2499 987M53 1003L151 975M53 1003L163 966M53 1003L59 1061M53 1003L-22 1076M2613 1003L2538 1076M151 975L163 966M310 1008L373 1039M310 1008L279 1087M310 1008L322 1076M373 1039L322 1076M373 1039L458 1070M373 1039L368 1134M476 1016L515 996M476 1016L583 1003M476 1016L458 1070M476 1016L523 1093M515 996L583 1003M515 996L458 1070M515 996L523 1093M583 1003L629 1091M712 980L794 976M794 976L822 965M794 976L791 1078M822 965L897 1031M897 1031L988 965M897 1031L949 1117M988 965L1075 1005M1075 1005L1133 969M1075 1005L1072 1057M1075 1005L1145 1084M1133 969L1213 999M1213 999L1302 1021M1213 999L1214 1048M1302 1021L1214 1048M1302 1021L1303 1099M1399 997L1454 1005M1399 997L1421 1058M1454 1005L1421 1058M1454 1005L1456 1087M1598 1021L1651 978M1598 1021L1547 1061M1598 1021L1643 1086M1651 978L1707 1001M1651 978L1643 1086M1707 1001L1804 1002M1707 1001L1748 1085M1804 1002L1901 965M1804 1002L1748 1085M1804 1002L1799 1087M1901 965L2005 1013M1997 1039L2005 1013M1997 1039L1920 1101M1997 1039L1927 1078M1997 1039L2074 1044M1997 1039L2084 1054M2005 1013L1927 1078M2005 1013L2074 1044M2005 1013L2084 1054M2131 1004L2192 1003M2131 1004L2074 1044M2131 1004L2084 1054M2131 1004L2193 1094M2192 1003L2268 990M2192 1003L2193 1094M2268 990L2296 1085M2378 1039L2442 1028M2378 1039L2296 1085M2378 1039L2381 1070M2378 1039L2431 1070M2442 1028L2499 987M2442 1028L2381 1070M2442 1028L2431 1070M2499 987L2538 1076M59 1061L141 1093M59 1061L-22 1076M59 1061L42 1145M59 1061L151 1137M2619 1061L2538 1076M141 1093L234 1096M141 1093L42 1145M141 1093L151 1137M234 1096L279 1087M234 1096L322 1076M234 1096L225 1153M234 1096L244 1182M279 1087L322 1076M279 1087L368 1134M322 1076L368 1134M458 1070L523 1093M458 1070L514 1132M523 1093L514 1132M629 1091L702 1111M629 1091L624 1154M629 1091L645 1168M702 1111L791 1078M702 1111L624 1154M702 1111L645 1168M702 1111L754 1148M791 1078L859 1120M791 1078L754 1148M791 1078L838 1168M859 1120L949 1117M859 1120L838 1168M859 1120L921 1180M859 1120L819 1201M949 1117L1011 1093M949 1117L921 1180M949 1117L1039 1140M1011 1093L1072 1057M1011 1093L1039 1140M1072 1057L1145 1084M1072 1057L1039 1140M1072 1057L1089 1156M1145 1084L1214 1048M1145 1084L1089 1156M1145 1084L1164 1175M1214 1048L1303 1099M1303 1099L1269 1199M1303 1099L1358 1169M1303 1099L1309 1206M1421 1058L1456 1087M1421 1058L1427 1136M1456 1087L1427 1136M1456 1087L1467 1172M1456 1087L1531 1129M1547 1061L1643 1086M1547 1061L1531 1129M1643 1086L1748 1085M1748 1085L1799 1087M1748 1085L1763 1144M1799 1087L1763 1144M1920 1101L1927 1078M1920 1101L1920 1189M1920 1101L1960 1186M1920 1101L2015 1142M1927 1078L2015 1142M2074 1044L2084 1054M2193 1094L2179 1144M2193 1094L2301 1120M2296 1085L2381 1070M2296 1085L2301 1120M2296 1085L2346 1170M2381 1070L2431 1070M2381 1070L2301 1120M2431 1070L2477 1160M2538 1076L2602 1145M2538 1076L2506 1139M-22 1076L42 1145M42 1145L8 1214M151 1137L225 1153M151 1137L244 1182M225 1153L244 1182M225 1153L174 1228M225 1153L249 1244M244 1182L174 1228M244 1182L249 1244M368 1134L425 1174M368 1134L338 1234M425 1174L514 1132M425 1174L338 1234M425 1174L469 1241M425 1174L486 1253M514 1132L469 1241M624 1154L645 1168M624 1154L607 1217M624 1154L713 1210M645 1168L607 1217M645 1168L713 1210M754 1148L838 1168M754 1148L713 1210M754 1148L819 1201M838 1168L921 1180M838 1168L819 1201M921 1180L819 1201M921 1180L934 1276M1039 1140L1089 1156M1039 1140L1025 1244M1089 1156L1164 1175M1089 1156L1025 1244M1164 1175L1269 1199M1164 1175L1130 1270M1269 1199L1358 1169M1269 1199L1227 1268M1269 1199L1309 1206M1358 1169L1427 1136M1358 1169L1309 1206M1358 1169L1414 1235M1427 1136L1467 1172M1427 1136L1440 1226M1467 1172L1531 1129M1467 1172L1414 1235M1467 1172L1440 1226M1674 1194L1723 1180M1674 1194L1678 1206M1674 1194L1756 1205M1723 1180L1763 1144M1723 1180L1678 1206M1723 1180L1756 1205M1723 1180L1777 1204M1763 1144L1756 1205M1763 1144L1777 1204M1920 1189L1960 1186M1920 1189L2015 1142M1920 1189L1876 1254M1960 1186L2015 1142M1960 1186L1997 1275M1960 1186L2019 1248M2139 1193L2179 1144M2139 1193L2101 1272M2139 1193L2195 1211M2179 1144L2301 1120M2179 1144L2195 1211M2301 1120L2346 1170M2346 1170L2343 1246M2477 1160L2506 1139M2477 1160L2568 1214M2477 1160L2474 1200M2477 1160L2481 1220M-83 1160L8 1214M2506 1139L2568 1214M2506 1139L2474 1200M2506 1139L2481 1220M-54 1139L8 1214M8 1214L-86 1200M8 1214L-79 1220M2568 1214L2474 1200M2568 1214L2481 1220M106 1277L174 1228M106 1277L15 1335M106 1277L94 1355M106 1277L214 1308M174 1228L249 1244M174 1228L214 1308M249 1244L338 1234M249 1244L214 1308M338 1234L302 1323M338 1234L353 1322M469 1241L486 1253M469 1241L423 1305M469 1241L517 1310M486 1253L423 1305M486 1253L517 1310M486 1253L484 1363M607 1217L722 1264M607 1217L622 1285M713 1210L722 1264M722 1264L622 1285M722 1264L704 1314M722 1264L746 1355M819 1201L840 1290M934 1276L1025 1244M934 1276L840 1290M934 1276L915 1351M934 1276L964 1342M1025 1244L1044 1272M1044 1272L1130 1270M1130 1270L1227 1268M1130 1270L1080 1357M1130 1270L1149 1312M1227 1268L1149 1312M1227 1268L1254 1329M1227 1268L1206 1365M1309 1206L1368 1280M1414 1235L1440 1226M1414 1235L1368 1280M1414 1235L1474 1314M1440 1226L1368 1280M1440 1226L1474 1314M1559 1255L1583 1345M1559 1255L1616 1294M1678 1206L1756 1205M1678 1206L1777 1204M1678 1206L1717 1300M1756 1205L1777 1204M1777 1204L1768 1312M1876 1254L1853 1290M1997 1275L2019 1248M1997 1275L2101 1272M1997 1275L1954 1317M1997 1275L2024 1329M2019 1248L2101 1272M2019 1248L1954 1317M2019 1248L2024 1329M2101 1272L2024 1329M2101 1272L2147 1359M2195 1211L2280 1280M2195 1211L2238 1308M2280 1280L2343 1246M2280 1280L2238 1308M2280 1280L2291 1351M2343 1246L2384 1285M2474 1200L2481 1220M2474 1200L2384 1285M2481 1220L2537 1330M15 1335L94 1355M15 1335L-23 1330M2575 1335L2537 1330M94 1355L71 1434M94 1355L94 1403M214 1308L302 1323M214 1308L268 1388M302 1323L353 1322M302 1323L268 1388M302 1323L354 1371M353 1322L423 1305M353 1322L354 1371M353 1322L416 1364M423 1305L416 1364M423 1305L484 1363M517 1310L622 1285M517 1310L484 1363M622 1285L704 1314M622 1285L623 1373M704 1314L746 1355M704 1314L623 1373M704 1314L656 1390M746 1355L792 1376M746 1355L824 1373M840 1290L915 1351M840 1290L792 1376M840 1290L824 1373M915 1351L964 1342M915 1351L824 1373M915 1351L940 1429M964 1342L940 1429M964 1342L1052 1411M1080 1357L1149 1312M1080 1357L1026 1415M1080 1357L1052 1411M1149 1312L1206 1365M1254 1329L1348 1328M1254 1329L1193 1407M1254 1329L1206 1365M1254 1329L1294 1424M1348 1328L1368 1280M1474 1314L1488 1410M1583 1345L1616 1294M1583 1345L1569 1364M1583 1345L1618 1397M1616 1294L1717 1300M1616 1294L1569 1364M1616 1294L1618 1397M1717 1300L1768 1312M1717 1300L1737 1434M1717 1300L1780 1363M1768 1312L1853 1290M1768 1312L1780 1363M1853 1290L1882 1365M1954 1317L2024 1329M1954 1317L1882 1365M1954 1317L1932 1397M2024 1329L2038 1420M2147 1359L2119 1398M2147 1359L2178 1379M2147 1359L2240 1396M2238 1308L2291 1351M2238 1308L2178 1379M2238 1308L2240 1396M2291 1351L2240 1396M2291 1351L2345 1393M2384 1285L2424 1347M2424 1347L2345 1393M2424 1347L2425 1436M2424 1347L2486 1408M2537 1330L2486 1408M71 1434L94 1403M71 1434L184 1431M94 1403L184 1431M184 1431L268 1388M268 1388L354 1371M354 1371L416 1364M416 1364L484 1363M623 1373L656 1390M792 1376L824 1373M940 1429L1026 1415M1026 1415L1052 1411M1193 1407L1206 1365M1193 1407L1294 1424M1206 1365L1294 1424M1437 1427L1488 1410M1488 1410L1569 1364M1569 1364L1618 1397M1737 1434L1780 1363M1780 1363L1882 1365M1882 1365L1932 1397M1932 1397L2038 1420M2038 1420L2119 1398M2119 1398L2178 1379M2178 1379L2240 1396M2345 1393L2425 1436M2425 1436L2486 1408"/></svg>