<svg xmlns="http://www.w3.org/2000/svg" width="2560" height="1440" fill="#fff"><circle cx="69" cy="58" r="5"/><circle cx="116" cy="24" r="5"/><circle cx="221" cy="44" r="6"/><circle cx="262" cy="3" r="5"/><circle cx="262" cy="1443" r="5"/><circle cx="333" cy="56" r="6"/><circle cx="461" cy="39" r="5"/><circle cx="538" cy="21" r="6"/><circle cx="577" cy="20" r="6"/><circle cx="669" cy="64" r="4"/><circle cx="733" cy="2" r="6"/><circle cx="733" cy="1442" r="6"/><circle cx="811" cy="72" r="6"/><circle cx="935" cy="10" r="4"/><circle cx="981" cy="20" r="5"/><circle cx="1065" cy="24" r="6"/><circle cx="1195" cy="15" r="4"/><circle cx="1218" cy="77" r="5"/><circle cx="1326" cy="16" r="6"/><circle cx="1422" cy="14" r="5"/><circle cx="1501" cy="2" r="6"/><circle cx="1501" cy="1442" r="6"/><circle cx="1585" cy="50" r="5"/><circle cx="1666" cy="64" r="4"/><circle cx="1681" cy="50" r="4"/><circle cx="1812" cy="39" r="5"/><circle cx="1877" cy="61" r="5"/><circle cx="1934" cy="60" r="4"/><circle cx="2070" cy="65" r="5"/><circle cx="2110" cy="18" r="5"/><circle cx="2164" cy="10" r="4"/><circle cx="2293" cy="41" r="6"/><circle cx="2335" cy="51" r="5"/><circle cx="2445" cy="51" r="4"/><circle cx="2551" cy="73" r="4"/><circle cx="79" cy="100" r="4"/><circle cx="134" cy="136" r="5"/><circle cx="198" cy="88" r="5"/><circle cx="301" cy="85" r="5"/><circle cx="392" cy="112" r="5"/><circle cx="410" cy="130" r="6"/><circle cx="520" cy="83" r="6"/><circle cx="565" cy="98" r="6"/><circle cx="645" cy="113" r="4"/><circle cx="759" cy="104" r="4"/><circle cx="852" cy="83" r="5"/><circle cx="924" cy="131" r="5"/><circle cx="962" cy="98" r="5"/><circle cx="1110" cy="108" r="5"/><circle cx="1168" cy="142" r="6"/><circle cx="1223" cy="149" r="5"/><circle cx="1354" cy="114" r="5"/><circle cx="1433" cy="127" r="6"/><circle cx="1512" cy="86" r="5"/><circle cx="1585" cy="88" r="5"/><circle cx="1618" cy="133" r="5"/><circle cx="1699" cy="148" r="4"/><circle cx="1762" cy="88" r="5"/><circle cx="1863" cy="137" r="5"/><circle cx="1968" cy="97" r="5"/><circle cx="2049" cy="122" r="5"/><circle cx="2147" cy="81" r="6"/><circle cx="2165" cy="157" r="5"/><circle cx="2305" cy="128" r="5"/><circle cx="2395" cy="122" r="6"/><circle cx="2460" cy="115" r="5"/><circle cx="2485" cy="142" r="5"/><circle cx="17" cy="236" r="6"/><circle cx="119" cy="236" r="6"/><circle cx="184" cy="193" r="4"/><circle cx="277" cy="190" r="5"/><circle cx="370" cy="232" r="5"/><circle cx="472" cy="220" r="6"/><circle cx="519" cy="193" r="4"/><circle cx="578" cy="186" r="4"/><circle cx="679" cy="208" r="6"/><circle cx="730" cy="226" r="6"/><circle cx="826" cy="234" r="5"/><circle cx="942" cy="193" r="6"/><circle cx="971" cy="234" r="5"/><circle cx="1079" cy="220" r="5"/><circle cx="1154" cy="222" r="4"/><circle cx="1206" cy="191" r="4"/><circle cx="1327" cy="175" r="4"/><circle cx="1424" cy="173" r="4"/><circle cx="1518" cy="202" r="5"/><circle cx="1596" cy="217" r="4"/><circle cx="1608" cy="164" r="6"/><circle cx="1720" cy="200" r="5"/><circle cx="1829" cy="162" r="4"/><circle cx="1873" cy="229" r="4"/><circle cx="1952" cy="162" r="5"/><circle cx="2011" cy="239" r="5"/><circle cx="2158" cy="178" r="6"/><circle cx="2177" cy="162" r="4"/><circle cx="2309" cy="183" r="5"/><circle cx="2378" cy="185" r="4"/><circle cx="2448" cy="209" r="6"/><circle cx="2530" cy="233" r="5"/><circle cx="43" cy="271" r="5"/><circle cx="128" cy="316" r="5"/><circle cx="229" cy="261" r="6"/><circle cx="286" cy="307" r="6"/><circle cx="380" cy="280" r="6"/><circle cx="410" cy="274" r="5"/><circle cx="505" cy="287" r="6"/><circle cx="580" cy="243" r="5"/><circle cx="683" cy="246" r="5"/><circle cx="732" cy="278" r="5"/><circle cx="838" cy="243" r="4"/><circle cx="889" cy="255" r="5"/><circle cx="981" cy="244" r="6"/><circle cx="1080" cy="277" r="5"/><circle cx="1134" cy="276" r="5"/><circle cx="1258" cy="268" r="5"/><circle cx="1355" cy="311" r="4"/><circle cx="1384" cy="295" r="5"/><circle cx="1495" cy="249" r="5"/><circle cx="1592" cy="265" r="6"/><circle cx="1654" cy="314" r="5"/><circle cx="1747" cy="246" r="4"/><circle cx="1805" cy="314" r="4"/><circle cx="1872" cy="298" r="6"/><circle cx="1950" cy="307" r="5"/><circle cx="2045" cy="301" r="5"/><circle cx="2126" cy="257" r="6"/><circle cx="2193" cy="274" r="5"/><circle cx="2258" cy="244" r="4"/><circle cx="2347" cy="277" r="5"/><circle cx="2461" cy="258" r="5"/><circle cx="2540" cy="316" r="6"/><circle cx="62" cy="394" r="5"/><circle cx="150" cy="378" r="4"/><circle cx="182" cy="371" r="5"/><circle cx="247" cy="371" r="4"/><circle cx="398" cy="370" r="6"/><circle cx="479" cy="322" r="6"/><circle cx="523" cy="343" r="5"/><circle cx="606" cy="339" r="6"/><circle cx="644" cy="326" r="4"/><circle cx="765" cy="360" r="6"/><circle cx="864" cy="394" r="5"/><circle cx="922" cy="378" r="4"/><circle cx="1037" cy="352" r="5"/><circle cx="1118" cy="399" r="4"/><circle cx="1121" cy="360" r="5"/><circle cx="1253" cy="386" r="6"/><circle cx="1296" cy="393" r="4"/><circle cx="1391" cy="388" r="6"/><circle cx="1458" cy="380" r="5"/><circle cx="1575" cy="352" r="4"/><circle cx="1649" cy="335" r="5"/><circle cx="1749" cy="382" r="4"/><circle cx="1829" cy="392" r="6"/><circle cx="1882" cy="355" r="5"/><circle cx="1971" cy="344" r="5"/><circle cx="2063" cy="341" r="4"/><circle cx="2151" cy="357" r="5"/><circle cx="2185" cy="393" r="5"/><circle cx="2316" cy="363" r="4"/><circle cx="2388" cy="388" r="5"/><circle cx="2475" cy="396" r="5"/><circle cx="2509" cy="365" r="5"/><circle cx="41" cy="456" r="6"/><circle cx="116" cy="449" r="5"/><circle cx="173" cy="426" r="5"/><circle cx="273" cy="448" r="6"/><circle cx="372" cy="418" r="4"/><circle cx="469" cy="422" r="5"/><circle cx="485" cy="424" r="6"/><circle cx="612" cy="474" r="6"/><circle cx="700" cy="449" r="5"/><circle cx="788" cy="475" r="5"/><circle cx="822" cy="411" r="5"/><circle cx="960" cy="454" r="5"/><circle cx="999" cy="435" r="6"/><circle cx="1085" cy="467" r="5"/><circle cx="1141" cy="463" r="6"/><circle cx="1256" cy="471" r="4"/><circle cx="1302" cy="462" r="5"/><circle cx="1398" cy="439" r="5"/><circle cx="1478" cy="459" r="5"/><circle cx="1576" cy="466" r="4"/><circle cx="1658" cy="412" r="6"/><circle cx="1700" cy="454" r="5"/><circle cx="1779" cy="431" r="6"/><circle cx="1911" cy="427" r="5"/><circle cx="1941" cy="409" r="5"/><circle cx="2033" cy="402" r="5"/><circle cx="2103" cy="463" r="6"/><circle cx="2215" cy="474" r="5"/><circle cx="2296" cy="425" r="5"/><circle cx="2380" cy="407" r="6"/><circle cx="2440" cy="417" r="5"/><circle cx="2489" cy="415" r="6"/><circle cx="57" cy="554" r="6"/><circle cx="121" cy="501" r="4"/><circle cx="167" cy="539" r="6"/><circle cx="284" cy="535" r="6"/><circle cx="344" cy="508" r="4"/><circle cx="403" cy="481" r="5"/><circle cx="527" cy="501" r="5"/><circle cx="633" cy="531" r="5"/><circle cx="711" cy="500" r="6"/><circle cx="771" cy="522" r="6"/><circle cx="817" cy="538" r="5"/><circle cx="923" cy="522" r="6"/><circle cx="993" cy="549" r="6"/><circle cx="1058" cy="491" r="5"/><circle cx="1132" cy="529" r="5"/><circle cx="1258" cy="559" r="5"/><circle cx="1329" cy="539" r="6"/><circle cx="1405" cy="520" r="5"/><circle cx="1513" cy="491" r="4"/><circle cx="1573" cy="551" r="5"/><circle cx="1625" cy="525" r="4"/><circle cx="1749" cy="485" r="4"/><circle cx="1816" cy="529" r="5"/><circle cx="1892" cy="538" r="6"/><circle cx="1965" cy="517" r="5"/><circle cx="2047" cy="492" r="5"/><circle cx="2084" cy="532" r="6"/><circle cx="2204" cy="552" r="5"/><circle cx="2256" cy="506" r="6"/><circle cx="2328" cy="543" r="4"/><circle cx="2480" cy="506" r="5"/><circle cx="2509" cy="535" r="5"/><circle cx="2" cy="607" r="6"/><circle cx="2562" cy="607" r="6"/><circle cx="154" cy="634" r="4"/><circle cx="234" cy="587" r="5"/><circle cx="302" cy="566" r="5"/><circle cx="354" cy="611" r="6"/><circle cx="437" cy="626" r="6"/><circle cx="531" cy="621" r="6"/><circle cx="574" cy="563" r="6"/><circle cx="703" cy="591" r="4"/><circle cx="767" cy="589" r="5"/><circle cx="857" cy="640" r="5"/><circle cx="951" cy="592" r="6"/><circle cx="1032" cy="629" r="5"/><circle cx="1042" cy="640" r="4"/><circle cx="1129" cy="566" r="5"/><circle cx="1256" cy="565" r="6"/><circle cx="1317" cy="623" r="5"/><circle cx="1379" cy="587" r="5"/><circle cx="1477" cy="598" r="5"/><circle cx="1549" cy="610" r="4"/><circle cx="1655" cy="590" r="4"/><circle cx="1711" cy="593" r="5"/><circle cx="1820" cy="606" r="4"/><circle cx="1918" cy="581" r="4"/><circle cx="1940" cy="590" r="5"/><circle cx="2009" cy="588" r="5"/><circle cx="2084" cy="605" r="5"/><circle cx="2201" cy="585" r="5"/><circle cx="2273" cy="597" r="4"/><circle cx="2354" cy="611" r="6"/><circle cx="2474" cy="587" r="5"/><circle cx="2533" cy="607" r="5"/><circle cx="69" cy="700" r="5"/><circle cx="88" cy="706" r="5"/><circle cx="198" cy="686" r="5"/><circle cx="257" cy="653" r="5"/><circle cx="370" cy="648" r="5"/><circle cx="444" cy="717" r="6"/><circle cx="520" cy="686" r="6"/><circle cx="561" cy="704" r="5"/><circle cx="653" cy="649" r="5"/><circle cx="735" cy="718" r="4"/><circle cx="809" cy="670" r="4"/><circle cx="900" cy="684" r="5"/><circle cx="1018" cy="678" r="5"/><circle cx="1107" cy="646" r="4"/><circle cx="1130" cy="689" r="6"/><circle cx="1242" cy="673" r="5"/><circle cx="1300" cy="663" r="5"/><circle cx="1414" cy="693" r="5"/><circle cx="1507" cy="647" r="6"/><circle cx="1535" cy="673" r="6"/><circle cx="1636" cy="643" r="6"/><circle cx="1689" cy="675" r="5"/><circle cx="1765" cy="703" r="6"/><circle cx="1884" cy="652" r="4"/><circle cx="1949" cy="665" r="4"/><circle cx="2046" cy="709" r="4"/><circle cx="2114" cy="673" r="5"/><circle cx="2233" cy="675" r="5"/><circle cx="2282" cy="675" r="5"/><circle cx="2346" cy="707" r="4"/><circle cx="2431" cy="694" r="6"/><circle cx="2552" cy="700" r="5"/><circle cx="63" cy="727" r="5"/><circle cx="97" cy="747" r="6"/><circle cx="227" cy="746" r="5"/><circle cx="256" cy="723" r="4"/><circle cx="377" cy="732" r="5"/><circle cx="429" cy="744" r="5"/><circle cx="510" cy="729" r="5"/><circle cx="598" cy="732" r="4"/><circle cx="646" cy="791" r="6"/><circle cx="773" cy="761" r="4"/><circle cx="853" cy="773" r="6"/><circle cx="884" cy="774" r="5"/><circle cx="994" cy="751" r="5"/><circle cx="1115" cy="773" r="5"/><circle cx="1175" cy="741" r="5"/><circle cx="1226" cy="799" r="6"/><circle cx="1333" cy="766" r="6"/><circle cx="1409" cy="776" r="5"/><circle cx="1469" cy="730" r="4"/><circle cx="1523" cy="800" r="5"/><circle cx="1611" cy="747" r="5"/><circle cx="1730" cy="786" r="5"/><circle cx="1783" cy="739" r="6"/><circle cx="1900" cy="784" r="4"/><circle cx="1964" cy="722" r="6"/><circle cx="2024" cy="731" r="4"/><circle cx="2140" cy="738" r="4"/><circle cx="2183" cy="729" r="6"/><circle cx="2270" cy="725" r="5"/><circle cx="2387" cy="734" r="4"/><circle cx="2419" cy="779" r="5"/><circle cx="2513" cy="783" r="5"/><circle cx="25" cy="853" r="4"/><circle cx="94" cy="821" r="5"/><circle cx="232" cy="841" r="4"/><circle cx="292" cy="855" r="4"/><circle cx="369" cy="848" r="5"/><circle cx="472" cy="847" r="5"/><circle cx="486" cy="864" r="6"/><circle cx="610" cy="831" r="5"/><circle cx="665" cy="827" r="4"/><circle cx="780" cy="851" r="4"/><circle cx="855" cy="841" r="4"/><circle cx="912" cy="845" r="4"/><circle cx="986" cy="873" r="5"/><circle cx="1113" cy="869" r="4"/><circle cx="1131" cy="862" r="5"/><circle cx="1211" cy="825" r="6"/><circle cx="1322" cy="879" r="6"/><circle cx="1429" cy="874" r="5"/><circle cx="1482" cy="851" r="6"/><circle cx="1551" cy="856" r="5"/><circle cx="1640" cy="823" r="5"/><circle cx="1704" cy="840" r="6"/><circle cx="1805" cy="820" r="5"/><circle cx="1891" cy="802" r="6"/><circle cx="1985" cy="832" r="6"/><circle cx="2049" cy="804" r="6"/><circle cx="2082" cy="834" r="5"/><circle cx="2236" cy="825" r="6"/><circle cx="2287" cy="877" r="5"/><circle cx="2322" cy="820" r="4"/><circle cx="2477" cy="858" r="5"/><circle cx="2551" cy="825" r="5"/><circle cx="55" cy="884" r="5"/><circle cx="106" cy="960" r="4"/><circle cx="180" cy="952" r="6"/><circle cx="242" cy="901" r="4"/><circle cx="342" cy="889" r="6"/><circle cx="441" cy="882" r="4"/><circle cx="492" cy="880" r="5"/><circle cx="570" cy="904" r="5"/><circle cx="661" cy="886" r="6"/><circle cx="732" cy="925" r="4"/><circle cx="807" cy="944" r="5"/><circle cx="920" cy="942" r="5"/><circle cx="990" cy="926" r="6"/><circle cx="1043" cy="950" r="6"/><circle cx="1159" cy="937" r="5"/><circle cx="1223" cy="885" r="6"/><circle cx="1352" cy="894" r="6"/><circle cx="1387" cy="940" r="5"/><circle cx="1465" cy="957" r="6"/><circle cx="1565" cy="881" r="6"/><circle cx="1625" cy="918" r="4"/><circle cx="1722" cy="931" r="4"/><circle cx="1798" cy="906" r="4"/><circle cx="1877" cy="938" r="6"/><circle cx="1986" cy="908" r="4"/><circle cx="2060" cy="952" r="6"/><circle cx="2134" cy="929" r="6"/><circle cx="2197" cy="902" r="4"/><circle cx="2252" cy="911" r="5"/><circle cx="2343" cy="912" r="6"/><circle cx="2421" cy="941" r="4"/><circle cx="2513" cy="894" r="6"/><circle cx="76" cy="966" r="4"/><circle cx="103" cy="1003" r="5"/><circle cx="218" cy="995" r="4"/><circle cx="298" cy="1011" r="5"/><circle cx="352" cy="980" r="5"/><circle cx="441" cy="1015" r="4"/><circle cx="522" cy="989" r="4"/><circle cx="621" cy="974" r="5"/><circle cx="711" cy="1021" r="4"/><circle cx="780" cy="1018" r="5"/><circle cx="855" cy="991" r="5"/><circle cx="903" cy="1035" r="6"/><circle cx="996" cy="973" r="5"/><circle cx="1107" cy="1022" r="5"/><circle cx="1151" cy="966" r="5"/><circle cx="1225" cy="998" r="4"/><circle cx="1288" cy="970" r="5"/><circle cx="1381" cy="961" r="5"/><circle cx="1518" cy="1011" r="4"/><circle cx="1584" cy="1010" r="5"/><circle cx="1668" cy="967" r="5"/><circle cx="1725" cy="974" r="5"/><circle cx="1824" cy="986" r="6"/><circle cx="1841" cy="1018" r="4"/><circle cx="1934" cy="1027" r="5"/><circle cx="2027" cy="963" r="4"/><circle cx="2145" cy="1012" r="5"/><circle cx="2217" cy="1007" r="5"/><circle cx="2252" cy="1014" r="5"/><circle cx="2364" cy="1004" r="6"/><circle cx="2461" cy="968" r="4"/><circle cx="2513" cy="1020" r="5"/><circle cx="64" cy="1100" r="6"/><circle cx="88" cy="1117" r="5"/><circle cx="240" cy="1096" r="6"/><circle cx="282" cy="1076" r="5"/><circle cx="383" cy="1074" r="6"/><circle cx="413" cy="1103" r="5"/><circle cx="519" cy="1058" r="5"/><circle cx="591" cy="1113" r="4"/><circle cx="667" cy="1101" r="5"/><circle cx="730" cy="1052" r="5"/><circle cx="843" cy="1115" r="4"/><circle cx="890" cy="1093" r="5"/><circle cx="965" cy="1111" r="5"/><circle cx="1093" cy="1083" r="5"/><circle cx="1197" cy="1090" r="6"/><circle cx="1203" cy="1105" r="5"/><circle cx="1334" cy="1090" r="5"/><circle cx="1387" cy="1080" r="5"/><circle cx="1482" cy="1079" r="4"/><circle cx="1580" cy="1095" r="5"/><circle cx="1639" cy="1110" r="6"/><circle cx="1695" cy="1077" r="5"/><circle cx="1835" cy="1062" r="4"/><circle cx="1870" cy="1100" r="5"/><circle cx="1954" cy="1045" r="5"/><circle cx="2059" cy="1100" r="4"/><circle cx="2110" cy="1047" r="6"/><circle cx="2167" cy="1082" r="4"/><circle cx="2249" cy="1057" r="4"/><circle cx="2390" cy="1109" r="6"/><circle cx="2419" cy="1084" r="4"/><circle cx="2497" cy="1062" r="6"/><circle cx="59" cy="1125" r="4"/><circle cx="106" cy="1161" r="6"/><circle cx="211" cy="1169" r="5"/><circle cx="289" cy="1163" r="5"/><circle cx="374" cy="1128" r="6"/><circle cx="448" cy="1142" r="6"/><circle cx="517" cy="1147" r="5"/><circle cx="605" cy="1151" r="5"/><circle cx="681" cy="1175" r="5"/><circle cx="783" cy="1131" r="5"/><circle cx="827" cy="1146" r="4"/><circle cx="953" cy="1189" r="5"/><circle cx="983" cy="1138" r="4"/><circle cx="1061" cy="1173" r="6"/><circle cx="1176" cy="1168" r="4"/><circle cx="1238" cy="1170" r="4"/><circle cx="1305" cy="1142" r="4"/><circle cx="1395" cy="1199" r="6"/><circle cx="1513" cy="1181" r="6"/><circle cx="1589" cy="1149" r="5"/><circle cx="1670" cy="1200" r="6"/><circle cx="1729" cy="1158" r="4"/><circle cx="1826" cy="1150" r="5"/><circle cx="1910" cy="1200" r="5"/><circle cx="1983" cy="1189" r="4"/><circle cx="2013" cy="1198" r="6"/><circle cx="2132" cy="1148" r="5"/><circle cx="2208" cy="1182" r="5"/><circle cx="2307" cy="1155" r="6"/><circle cx="2379" cy="1124" r="4"/><circle cx="2439" cy="1142" r="5"/><circle cx="2550" cy="1162" r="5"/><circle cx="72" cy="1268" r="5"/><circle cx="83" cy="1225" r="6"/><circle cx="238" cy="1237" r="5"/><circle cx="259" cy="1242" r="4"/><circle cx="371" cy="1274" r="5"/><circle cx="459" cy="1278" r="5"/><circle cx="515" cy="1255" r="5"/><circle cx="607" cy="1244" r="5"/><circle cx="660" cy="1264" r="6"/><circle cx="754" cy="1277" r="6"/><circle cx="803" cy="1270" r="5"/><circle cx="957" cy="1226" r="4"/><circle cx="1007" cy="1213" r="4"/><circle cx="1084" cy="1247" r="5"/><circle cx="1154" cy="1267" r="6"/><circle cx="1209" cy="1267" r="4"/><circle cx="1350" cy="1264" r="6"/><circle cx="1407" cy="1261" r="4"/><circle cx="1480" cy="1210" r="5"/><circle cx="1558" cy="1266" r="5"/><circle cx="1625" cy="1213" r="5"/><circle cx="1681" cy="1257" r="5"/><circle cx="1825" cy="1214" r="5"/><circle cx="1918" cy="1260" r="6"/><circle cx="1973" cy="1262" r="4"/><circle cx="2035" cy="1244" r="5"/><circle cx="2132" cy="1222" r="6"/><circle cx="2232" cy="1271" r="4"/><circle cx="2275" cy="1234" r="6"/><circle cx="2359" cy="1227" r="5"/><circle cx="2447" cy="1253" r="6"/><circle cx="2555" cy="1248" r="5"/><circle cx="-5" cy="1248" r="5"/><circle cx="53" cy="1357" r="6"/><circle cx="151" cy="1311" r="5"/><circle cx="176" cy="1354" r="5"/><circle cx="270" cy="1289" r="6"/><circle cx="326" cy="1318" r="4"/><circle cx="449" cy="1284" r="5"/><circle cx="524" cy="1286" r="5"/><circle cx="614" cy="1286" r="4"/><circle cx="662" cy="1345" r="6"/><circle cx="736" cy="1292" r="5"/><circle cx="811" cy="1352" r="4"/><circle cx="898" cy="1329" r="4"/><circle cx="1032" cy="1332" r="5"/><circle cx="1109" cy="1301" r="5"/><circle cx="1177" cy="1321" r="5"/><circle cx="1223" cy="1304" r="5"/><circle cx="1347" cy="1322" r="4"/><circle cx="1404" cy="1295" r="5"/><circle cx="1465" cy="1357" r="4"/><circle cx="1546" cy="1307" r="6"/><circle cx="1605" cy="1307" r="5"/><circle cx="1697" cy="1299" r="6"/><circle cx="1775" cy="1354" r="5"/><circle cx="1884" cy="1307" r="4"/><circle cx="1980" cy="1347" r="4"/><circle cx="2017" cy="1288" r="5"/><circle cx="2098" cy="1288" r="5"/><circle cx="2216" cy="1312" r="4"/><circle cx="2280" cy="1316" r="6"/><circle cx="2372" cy="1303" r="6"/><circle cx="2408" cy="1288" r="4"/><circle cx="2539" cy="1291" r="5"/><circle cx="79" cy="1428" r="5"/><circle cx="129" cy="1373" r="4"/><circle cx="203" cy="1408" r="4"/><circle cx="312" cy="1363" r="5"/><circle cx="364" cy="1401" r="4"/><circle cx="479" cy="1375" r="6"/><circle cx="527" cy="1393" r="5"/><circle cx="577" cy="1421" r="5"/><circle cx="647" cy="1432" r="5"/><circle cx="743" cy="1413" r="5"/><circle cx="849" cy="1419" r="5"/><circle cx="935" cy="1362" r="5"/><circle cx="1035" cy="1369" r="5"/><circle cx="1042" cy="1406" r="5"/><circle cx="1125" cy="1391" r="4"/><circle cx="1211" cy="1408" r="6"/><circle cx="1310" cy="1394" r="6"/><circle cx="1436" cy="1374" r="4"/><circle cx="1486" cy="1385" r="5"/><circle cx="1562" cy="1411" r="6"/><circle cx="1655" cy="1434" r="5"/><circle cx="1694" cy="1431" r="5"/><circle cx="1799" cy="1437" r="5"/><circle cx="1799" cy="-3" r="5"/><circle cx="1845" cy="1372" r="4"/><circle cx="1929" cy="1380" r="5"/><circle cx="2027" cy="1434" r="4"/><circle cx="2105" cy="1408" r="5"/><circle cx="2210" cy="1366" r="5"/><circle cx="2285" cy="1398" r="5"/><circle cx="2345" cy="1373" r="5"/><circle cx="2431" cy="1419" r="4"/><circle cx="2491" cy="1423" r="5"/><path stroke="#fff" d="M69 58L116 24M69 58L-9 73M69 58L79 100M69 58L134 136M69 58L79 -12M2629 58L2551 73M69 1498L79 1428M116 24L79 100M116 24L79 -12M116 1464L79 1428M221 44L262 3M221 44L333 56M221 44L198 88M221 44L301 85M221 44L203 -32M221 1484L203 1408M262 3L333 56M262 3L301 85M262 3L203 -32M262 3L312 -77M262 1443L203 1408M262 1443L312 1363M333 56L301 85M333 56L392 112M333 56L410 130M461 39L392 112M461 39L410 130M461 39L520 83M538 21L577 20M538 21L520 83M538 21L565 98M538 21L527 -47M538 21L577 -19M538 1461L527 1393M538 1461L577 1421M577 20L520 83M577 20L565 98M577 20L577 -19M577 20L647 -8M577 1460L577 1421M577 1460L647 1432M669 64L733 2M669 64L645 113M669 64L759 104M669 64L647 -8M669 1504L647 1432M733 2L811 72M733 2L647 -8M733 2L743 -27M733 1442L647 1432M733 1442L743 1413M811 72L759 104M811 72L852 83M811 72L743 -27M811 72L849 -21M811 1512L743 1413M811 1512L849 1419M935 10L981 20M935 10L962 98M935 10L849 -21M935 10L935 -78M935 1450L849 1419M935 1450L935 1362M981 20L1065 24M981 20L962 98M981 20L1042 -34M981 1460L1042 1406M1065 24L1110 108M1065 24L1035 -71M1065 24L1042 -34M1065 24L1125 -49M1065 1464L1035 1369M1065 1464L1042 1406M1065 1464L1125 1391M1195 15L1218 77M1195 15L1125 -49M1195 15L1211 -32M1195 1455L1125 1391M1195 1455L1211 1408M1218 77L1326 16M1218 77L1168 142M1218 77L1223 149M1326 16L1422 14M1326 16L1354 114M1326 16L1310 -46M1326 1456L1310 1394M1422 14L1501 2M1422 14L1433 127M1422 14L1436 -66M1422 1454L1436 1374M1501 2L1512 86M1501 2L1465 -83M1501 2L1486 -55M1501 2L1562 -29M1501 1442L1465 1357M1501 1442L1486 1385M1501 1442L1562 1411M1585 50L1666 64M1585 50L1512 86M1585 50L1585 88M1585 50L1618 133M1585 50L1562 -29M1585 1490L1562 1411M1666 64L1681 50M1666 64L1585 88M1666 64L1655 -6M1666 64L1694 -9M1666 1504L1655 1434M1666 1504L1694 1431M1681 50L1762 88M1681 50L1655 -6M1681 50L1694 -9M1681 1490L1655 1434M1681 1490L1694 1431M1812 39L1877 61M1812 39L1762 88M1812 39L1799 -3M1812 39L1845 -68M1812 1479L1799 1437M1812 1479L1845 1372M1877 61L1934 60M1877 61L1863 137M1877 61L1968 97M1934 60L1863 137M1934 60L1968 97M1934 60L1952 162M2070 65L2110 18M2070 65L2049 122M2070 65L2147 81M2070 65L2027 -6M2070 65L2105 -32M2070 1505L2027 1434M2070 1505L2105 1408M2110 18L2164 10M2110 18L2147 81M2110 18L2027 -6M2110 18L2105 -32M2110 1458L2027 1434M2110 1458L2105 1408M2164 10L2147 81M2164 10L2105 -32M2164 10L2210 -74M2164 1450L2105 1408M2164 1450L2210 1366M2293 41L2335 51M2293 41L2305 128M2293 41L2285 -42M2293 41L2345 -67M2293 1481L2285 1398M2293 1481L2345 1373M2335 51L2305 128M2335 51L2395 122M2335 51L2285 -42M2335 1491L2285 1398M2445 51L2460 115M2445 51L2431 -21M2445 51L2491 -17M2445 1491L2431 1419M2445 1491L2491 1423M2551 73L2639 100M2551 73L2460 115M2551 73L2485 142M2551 73L2491 -17M-9 73L79 100M2551 1513L2491 1423M79 100L134 136M134 136L198 88M134 136L119 236M134 136L184 193M198 88L301 85M198 88L184 193M301 85L392 112M392 112L410 130M410 130L370 232M410 130L472 220M520 83L565 98M565 98L645 113M565 98L578 186M645 113L578 186M645 113L679 208M759 104L852 83M852 83L924 131M852 83L962 98M852 83L849 -21M852 1523L849 1419M924 131L962 98M924 131L942 193M924 131L971 234M962 98L942 193M1110 108L1168 142M1168 142L1223 149M1168 142L1154 222M1168 142L1206 191M1223 149L1206 191M1223 149L1327 175M1354 114L1433 127M1354 114L1327 175M1354 114L1424 173M1433 127L1512 86M1433 127L1424 173M1433 127L1518 202M1512 86L1585 88M1585 88L1618 133M1585 88L1608 164M1618 133L1699 148M1618 133L1596 217M1618 133L1608 164M1699 148L1762 88M1699 148L1720 200M1699 148L1747 246M1762 88L1799 -3M1762 1528L1799 1437M1863 137L1829 162M1863 137L1873 229M1863 137L1952 162M1968 97L2049 122M1968 97L1952 162M2049 122L1952 162M2049 122L2158 178M2147 81L2165 157M2147 81L2177 162M2165 157L2158 178M2165 157L2177 162M2165 157L2126 257M2165 157L2193 274M2305 128L2395 122M2305 128L2309 183M2305 128L2378 185M2395 122L2460 115M2395 122L2485 142M2395 122L2378 185M2460 115L2485 142M2460 115L2448 209M2485 142L2448 209M17 236L119 236M17 236L-30 233M17 236L43 271M17 236L-99 258M17 236L-20 316M2577 236L2530 233M2577 236L2461 258M2577 236L2540 316M119 236L184 193M119 236L43 271M119 236L128 316M184 193L277 190M184 193L229 261M277 190L229 261M370 232L286 307M370 232L380 280M370 232L410 274M472 220L519 193M472 220L410 274M472 220L505 287M472 220L479 322M519 193L578 186M519 193L505 287M519 193L580 243M578 186L580 243M679 208L730 226M679 208L580 243M679 208L683 246M679 208L732 278M730 226L826 234M730 226L683 246M730 226L732 278M730 226L838 243M826 234L732 278M826 234L838 243M826 234L889 255M942 193L971 234M942 193L889 255M942 193L981 244M971 234L1079 220M971 234L889 255M971 234L981 244M1079 220L1154 222M1079 220L981 244M1079 220L1080 277M1079 220L1134 276M1154 222L1206 191M1154 222L1080 277M1154 222L1134 276M1206 191L1258 268M1327 175L1424 173M1327 175L1258 268M1424 173L1495 249M1518 202L1596 217M1518 202L1608 164M1518 202L1495 249M1596 217L1608 164M1596 217L1495 249M1596 217L1592 265M1608 164L1592 265M1720 200L1829 162M1720 200L1747 246M1829 162L1873 229M1873 229L1872 298M1952 162L2011 239M2011 239L1950 307M2011 239L2045 301M2158 178L2177 162M2158 178L2126 257M2158 178L2193 274M2309 183L2378 185M2309 183L2258 244M2309 183L2347 277M2378 185L2448 209M2378 185L2347 277M2448 209L2530 233M2448 209L2461 258M2530 233L2603 271M2530 233L2461 258M2530 233L2540 316M-30 233L43 271M43 271L128 316M43 271L-20 316M2603 271L2540 316M128 316L62 394M128 316L150 378M128 316L182 371M229 261L286 307M229 261L247 371M286 307L380 280M286 307L247 371M380 280L410 274M380 280L398 370M410 274L479 322M505 287L580 243M505 287L479 322M505 287L523 343M580 243L606 339M683 246L732 278M683 246L606 339M683 246L644 326M732 278L765 360M838 243L889 255M889 255L981 244M1080 277L1134 276M1080 277L1037 352M1080 277L1121 360M1134 276L1121 360M1258 268L1355 311M1258 268L1384 295M1258 268L1253 386M1355 311L1384 295M1355 311L1296 393M1355 311L1391 388M1384 295L1495 249M1384 295L1391 388M1384 295L1458 380M1495 249L1592 265M1592 265L1654 314M1592 265L1649 335M1654 314L1747 246M1654 314L1575 352M1654 314L1649 335M1654 314L1658 412M1747 246L1805 314M1805 314L1872 298M1805 314L1749 382M1805 314L1829 392M1872 298L1950 307M1872 298L1882 355M1950 307L2045 301M1950 307L1882 355M1950 307L1971 344M2045 301L2126 257M2045 301L1971 344M2045 301L2063 341M2126 257L2193 274M2126 257L2151 357M2193 274L2258 244M2193 274L2151 357M2258 244L2347 277M2347 277L2461 258M2347 277L2316 363M2461 258L2540 316M2540 316L2509 365M62 394L150 378M62 394L41 456M62 394L116 449M150 378L182 371M150 378L116 449M150 378L173 426M182 371L247 371M182 371L173 426M247 371L273 448M398 370L479 322M398 370L372 418M398 370L469 422M398 370L485 424M479 322L523 343M523 343L606 339M523 343L469 422M523 343L485 424M606 339L644 326M765 360L864 394M765 360L700 449M765 360L822 411M864 394L922 378M864 394L822 411M922 378L822 411M922 378L960 454M922 378L999 435M1037 352L1118 399M1037 352L1121 360M1037 352L999 435M1118 399L1121 360M1118 399L1085 467M1118 399L1141 463M1121 360L1141 463M1253 386L1296 393M1253 386L1256 471M1253 386L1302 462M1296 393L1391 388M1296 393L1302 462M1391 388L1458 380M1391 388L1398 439M1458 380L1575 352M1458 380L1398 439M1458 380L1478 459M1575 352L1649 335M1649 335L1658 412M1749 382L1829 392M1749 382L1658 412M1749 382L1700 454M1749 382L1779 431M1829 392L1882 355M1829 392L1779 431M1829 392L1911 427M1882 355L1911 427M1882 355L1941 409M1971 344L2063 341M1971 344L1941 409M1971 344L2033 402M2063 341L2151 357M2063 341L2033 402M2151 357L2185 393M2185 393L2103 463M2185 393L2215 474M2185 393L2296 425M2316 363L2388 388M2316 363L2296 425M2316 363L2380 407M2388 388L2475 396M2388 388L2380 407M2388 388L2440 417M2388 388L2489 415M2475 396L2509 365M2475 396L2380 407M2475 396L2440 417M2475 396L2489 415M2509 365L2440 417M2509 365L2489 415M41 456L116 449M41 456L57 554M41 456L121 501M116 449L173 426M116 449L121 501M173 426L273 448M173 426L121 501M273 448L372 418M273 448L284 535M273 448L344 508M372 418L403 481M469 422L485 424M469 422L403 481M469 422L527 501M485 424L403 481M485 424L527 501M612 474L700 449M612 474L527 501M612 474L633 531M612 474L574 563M700 449L788 475M700 449L711 500M788 475L822 411M788 475L711 500M788 475L771 522M788 475L817 538M960 454L999 435M960 454L923 522M960 454L993 549M999 435L1085 467M999 435L1058 491M1085 467L1141 463M1085 467L1058 491M1085 467L1132 529M1141 463L1058 491M1141 463L1132 529M1256 471L1302 462M1256 471L1258 559M1256 471L1256 565M1302 462L1398 439M1302 462L1329 539M1398 439L1478 459M1398 439L1405 520M1478 459L1576 466M1478 459L1405 520M1478 459L1513 491M1576 466L1658 412M1576 466L1513 491M1576 466L1573 551M1576 466L1625 525M1658 412L1700 454M1700 454L1779 431M1700 454L1625 525M1700 454L1749 485M1779 431L1749 485M1779 431L1816 529M1911 427L1941 409M1941 409L2033 402M2033 402L2103 463M2033 402L2047 492M2103 463L2215 474M2103 463L2047 492M2103 463L2084 532M2215 474L2296 425M2215 474L2204 552M2215 474L2256 506M2296 425L2380 407M2296 425L2256 506M2380 407L2440 417M2440 417L2489 415M2489 415L2480 506M57 554L121 501M57 554L167 539M57 554L2 607M57 554L-27 607M2617 554L2533 607M121 501L167 539M167 539L154 634M167 539L234 587M284 535L344 508M284 535L234 587M284 535L302 566M284 535L354 611M344 508L403 481M344 508L302 566M527 501L633 531M527 501L574 563M633 531L711 500M633 531L574 563M633 531L703 591M711 500L771 522M711 500L703 591M771 522L817 538M771 522L703 591M771 522L767 589M817 538L923 522M817 538L767 589M817 538L857 640M923 522L993 549M923 522L951 592M993 549L1058 491M993 549L951 592M993 549L1032 629M1058 491L1132 529M1132 529L1129 566M1258 559L1329 539M1258 559L1256 565M1258 559L1317 623M1329 539L1405 520M1329 539L1256 565M1329 539L1379 587M1405 520L1379 587M1405 520L1477 598M1513 491L1573 551M1573 551L1625 525M1573 551L1549 610M1573 551L1655 590M1625 525L1655 590M1749 485L1816 529M1816 529L1892 538M1816 529L1820 606M1892 538L1965 517M1892 538L1820 606M1892 538L1918 581M1892 538L1940 590M1965 517L2047 492M1965 517L1918 581M1965 517L1940 590M1965 517L2009 588M2047 492L2084 532M2084 532L2204 552M2084 532L2009 588M2084 532L2084 605M2204 552L2256 506M2204 552L2201 585M2204 552L2273 597M2256 506L2328 543M2256 506L2201 585M2328 543L2354 611M2480 506L2509 535M2480 506L2474 587M2509 535L2562 607M2509 535L2474 587M2509 535L2533 607M-51 535L2 607M2 607L-86 587M2 607L-27 607M2 607L-8 700M2562 607L2474 587M2562 607L2533 607M2562 607L2552 700M154 634L234 587M154 634L88 706M154 634L198 686M234 587L302 566M234 587L257 653M302 566L354 611M354 611L437 626M354 611L257 653M354 611L370 648M437 626L531 621M437 626L370 648M437 626L444 717M437 626L520 686M531 621L574 563M531 621L520 686M531 621L561 704M574 563L653 649M703 591L767 589M703 591L653 649M767 589L857 640M767 589L809 670M857 640L951 592M857 640L809 670M857 640L900 684M951 592L1032 629M951 592L900 684M1032 629L1042 640M1032 629L1018 678M1032 629L1107 646M1042 640L1129 566M1042 640L1018 678M1042 640L1107 646M1042 640L1130 689M1129 566L1107 646M1256 565L1317 623M1256 565L1300 663M1317 623L1379 587M1317 623L1242 673M1317 623L1300 663M1379 587L1477 598M1379 587L1300 663M1477 598L1549 610M1477 598L1507 647M1477 598L1535 673M1549 610L1507 647M1549 610L1535 673M1549 610L1636 643M1655 590L1711 593M1655 590L1636 643M1655 590L1689 675M1711 593L1636 643M1711 593L1689 675M1711 593L1765 703M1820 606L1884 652M1918 581L1940 590M1918 581L2009 588M1918 581L1884 652M1940 590L2009 588M1940 590L1949 665M2009 588L2084 605M2084 605L2114 673M2201 585L2273 597M2201 585L2233 675M2273 597L2354 611M2273 597L2233 675M2273 597L2282 675M2354 611L2282 675M2354 611L2346 707M2354 611L2431 694M2474 587L2533 607M2474 587L2431 694M69 700L88 706M69 700L-8 700M69 700L63 727M69 700L97 747M2629 700L2552 700M88 706L-8 700M88 706L63 727M88 706L97 747M2648 706L2552 700M198 686L257 653M198 686L97 747M198 686L227 746M198 686L256 723M257 653L227 746M257 653L256 723M370 648L377 732M444 717L520 686M444 717L377 732M444 717L429 744M444 717L510 729M520 686L561 704M520 686L510 729M561 704L653 649M561 704L510 729M561 704L598 732M653 649L735 718M653 649L598 732M735 718L809 670M735 718L646 791M735 718L773 761M809 670L900 684M809 670L773 761M900 684L853 773M900 684L884 774M1018 678L1107 646M1018 678L1130 689M1018 678L994 751M1107 646L1130 689M1130 689L1115 773M1130 689L1175 741M1242 673L1300 663M1242 673L1175 741M1300 663L1333 766M1414 693L1507 647M1414 693L1333 766M1414 693L1409 776M1414 693L1469 730M1507 647L1535 673M1507 647L1469 730M1535 673L1636 643M1535 673L1469 730M1636 643L1689 675M1689 675L1765 703M1689 675L1783 739M1765 703L1730 786M1765 703L1783 739M1884 652L1949 665M1949 665L1964 722M1949 665L2024 731M2046 709L2114 673M2046 709L1964 722M2046 709L2024 731M2046 709L2140 738M2046 709L2049 804M2114 673L2140 738M2114 673L2183 729M2233 675L2282 675M2233 675L2183 729M2233 675L2270 725M2282 675L2346 707M2282 675L2270 725M2346 707L2431 694M2346 707L2270 725M2346 707L2387 734M2431 694L2387 734M2431 694L2419 779M2552 700L2623 727M2552 700L2513 783M-8 700L63 727M63 727L97 747M63 727L94 821M97 747L94 821M227 746L256 723M227 746L232 841M256 723L377 732M377 732L429 744M429 744L510 729M429 744L472 847M510 729L598 732M598 732L646 791M598 732L610 831M646 791L610 831M646 791L665 827M646 791L661 886M773 761L853 773M773 761L780 851M853 773L884 774M853 773L855 841M853 773L912 845M884 774L994 751M884 774L855 841M884 774L912 845M1115 773L1175 741M1115 773L1113 869M1115 773L1131 862M1115 773L1211 825M1175 741L1226 799M1175 741L1211 825M1226 799L1333 766M1226 799L1211 825M1226 799L1223 885M1333 766L1409 776M1409 776L1469 730M1409 776L1429 874M1469 730L1523 800M1523 800L1611 747M1523 800L1482 851M1523 800L1551 856M1523 800L1565 881M1611 747L1640 823M1730 786L1783 739M1730 786L1640 823M1730 786L1704 840M1730 786L1805 820M1783 739L1805 820M1783 739L1891 802M1900 784L1964 722M1900 784L1891 802M1900 784L1985 832M1964 722L2024 731M1964 722L1891 802M2024 731L2049 804M2140 738L2183 729M2140 738L2049 804M2140 738L2082 834M2183 729L2270 725M2183 729L2236 825M2387 734L2419 779M2419 779L2513 783M2419 779L2322 820M2419 779L2477 858M2513 783L2477 858M2513 783L2551 825M25 853L94 821M25 853L-9 825M25 853L55 884M25 853L-47 894M2585 853L2551 825M2585 853L2513 894M94 821L55 884M232 841L292 855M232 841L242 901M292 855L369 848M292 855L242 901M292 855L342 889M369 848L472 847M369 848L486 864M369 848L342 889M369 848L441 882M472 847L486 864M472 847L441 882M472 847L492 880M486 864L441 882M486 864L492 880M486 864L570 904M610 831L665 827M610 831L570 904M610 831L661 886M665 827L661 886M780 851L855 841M780 851L732 925M780 851L807 944M855 841L912 845M912 845L986 873M986 873L920 942M986 873L990 926M986 873L1043 950M986 873L996 973M1113 869L1131 862M1113 869L1159 937M1131 862L1211 825M1131 862L1159 937M1131 862L1223 885M1211 825L1223 885M1322 879L1223 885M1322 879L1352 894M1322 879L1387 940M1322 879L1288 970M1322 879L1381 961M1429 874L1482 851M1429 874L1352 894M1429 874L1387 940M1429 874L1465 957M1482 851L1551 856M1482 851L1465 957M1482 851L1565 881M1551 856L1640 823M1551 856L1565 881M1551 856L1625 918M1640 823L1704 840M1640 823L1565 881M1704 840L1805 820M1704 840L1625 918M1704 840L1722 931M1805 820L1891 802M1805 820L1798 906M1891 802L1985 832M1985 832L2049 804M1985 832L2082 834M1985 832L1986 908M2049 804L2082 834M2082 834L2134 929M2236 825L2287 877M2236 825L2322 820M2236 825L2197 902M2236 825L2252 911M2287 877L2322 820M2287 877L2197 902M2287 877L2252 911M2287 877L2343 912M2322 820L2343 912M2477 858L2551 825M2477 858L2421 941M2477 858L2513 894M2551 825L2615 884M2551 825L2513 894M-9 825L55 884M55 884L-47 894M55 884L76 966M2615 884L2513 894M106 960L180 952M106 960L76 966M106 960L103 1003M180 952L242 901M180 952L76 966M180 952L103 1003M180 952L218 995M242 901L342 889M242 901L218 995M342 889L441 882M342 889L352 980M441 882L492 880M492 880L570 904M492 880L522 989M570 904L661 886M570 904L621 974M661 886L732 925M732 925L807 944M732 925L711 1021M732 925L780 1018M807 944L780 1018M807 944L855 991M920 942L990 926M920 942L855 991M920 942L903 1035M920 942L996 973M990 926L1043 950M990 926L996 973M1043 950L996 973M1043 950L1107 1022M1043 950L1151 966M1159 937L1223 885M1159 937L1151 966M1159 937L1225 998M1352 894L1387 940M1352 894L1288 970M1352 894L1381 961M1387 940L1465 957M1387 940L1381 961M1465 957L1381 961M1465 957L1518 1011M1565 881L1625 918M1625 918L1584 1010M1625 918L1668 967M1722 931L1798 906M1722 931L1668 967M1722 931L1725 974M1798 906L1877 938M1798 906L1725 974M1798 906L1824 986M1877 938L1986 908M1877 938L1824 986M1877 938L1841 1018M1877 938L1934 1027M1986 908L2060 952M1986 908L2027 963M2060 952L2134 929M2060 952L2027 963M2060 952L2145 1012M2060 952L2110 1047M2134 929L2197 902M2134 929L2145 1012M2197 902L2252 911M2252 911L2343 912M2252 911L2217 1007M2343 912L2421 941M2343 912L2364 1004M2421 941L2364 1004M2421 941L2461 968M2513 894L2461 968M76 966L103 1003M103 1003L64 1100M218 995L298 1011M218 995L240 1096M298 1011L352 980M298 1011L240 1096M298 1011L282 1076M352 980L441 1015M352 980L383 1074M441 1015L522 989M441 1015L383 1074M441 1015L413 1103M441 1015L519 1058M522 989L621 974M522 989L519 1058M621 974L711 1021M711 1021L780 1018M711 1021L667 1101M711 1021L730 1052M780 1018L855 991M780 1018L730 1052M855 991L903 1035M855 991L890 1093M903 1035L996 973M903 1035L890 1093M903 1035L965 1111M1107 1022L1151 966M1107 1022L1093 1083M1151 966L1225 998M1225 998L1288 970M1225 998L1197 1090M1225 998L1203 1105M1288 970L1381 961M1288 970L1334 1090M1518 1011L1584 1010M1518 1011L1482 1079M1584 1010L1668 967M1584 1010L1580 1095M1668 967L1725 974M1668 967L1695 1077M1725 974L1824 986M1725 974L1695 1077M1824 986L1841 1018M1824 986L1835 1062M1841 1018L1934 1027M1841 1018L1835 1062M1841 1018L1870 1100M1934 1027L1835 1062M1934 1027L1870 1100M1934 1027L1954 1045M2027 963L1954 1045M2145 1012L2217 1007M2145 1012L2110 1047M2145 1012L2167 1082M2217 1007L2252 1014M2217 1007L2167 1082M2217 1007L2249 1057M2252 1014L2249 1057M2364 1004L2461 968M2364 1004L2390 1109M2364 1004L2419 1084M2461 968L2513 1020M2461 968L2497 1062M2513 1020L2497 1062M64 1100L88 1117M64 1100L59 1125M64 1100L106 1161M64 1100L-10 1162M2624 1100L2550 1162M88 1117L59 1125M88 1117L106 1161M88 1117L-10 1162M88 1117L83 1225M2648 1117L2550 1162M240 1096L282 1076M240 1096L211 1169M240 1096L289 1163M282 1076L289 1163M282 1076L374 1128M383 1074L413 1103M383 1074L374 1128M383 1074L448 1142M413 1103L374 1128M413 1103L448 1142M519 1058L591 1113M519 1058L448 1142M519 1058L517 1147M591 1113L667 1101M591 1113L517 1147M591 1113L605 1151M667 1101L730 1052M667 1101L605 1151M667 1101L681 1175M730 1052L783 1131M843 1115L890 1093M843 1115L783 1131M843 1115L827 1146M890 1093L965 1111M890 1093L827 1146M965 1111L953 1189M965 1111L983 1138M1093 1083L1197 1090M1093 1083L1203 1105M1093 1083L1061 1173M1093 1083L1176 1168M1197 1090L1203 1105M1197 1090L1176 1168M1197 1090L1238 1170M1203 1105L1176 1168M1203 1105L1238 1170M1334 1090L1387 1080M1334 1090L1305 1142M1387 1080L1482 1079M1387 1080L1305 1142M1482 1079L1580 1095M1482 1079L1513 1181M1580 1095L1639 1110M1580 1095L1513 1181M1580 1095L1589 1149M1639 1110L1695 1077M1639 1110L1589 1149M1639 1110L1670 1200M1695 1077L1729 1158M1835 1062L1870 1100M1835 1062L1826 1150M1870 1100L1954 1045M1870 1100L1826 1150M1954 1045L2059 1100M2059 1100L2110 1047M2059 1100L2132 1148M2110 1047L2167 1082M2110 1047L2132 1148M2167 1082L2249 1057M2167 1082L2132 1148M2390 1109L2419 1084M2390 1109L2307 1155M2390 1109L2379 1124M2390 1109L2439 1142M2419 1084L2497 1062M2419 1084L2379 1124M2419 1084L2439 1142M2497 1062L2439 1142M59 1125L106 1161M59 1125L-10 1162M59 1125L83 1225M2619 1125L2550 1162M106 1161L211 1169M106 1161L83 1225M211 1169L289 1163M211 1169L238 1237M211 1169L259 1242M289 1163L374 1128M289 1163L238 1237M374 1128L448 1142M448 1142L517 1147M517 1147L605 1151M605 1151L681 1175M605 1151L607 1244M681 1175L783 1131M783 1131L827 1146M827 1146L803 1270M953 1189L983 1138M953 1189L1061 1173M953 1189L957 1226M953 1189L1007 1213M983 1138L1061 1173M983 1138L957 1226M983 1138L1007 1213M1061 1173L1007 1213M1061 1173L1084 1247M1176 1168L1238 1170M1238 1170L1305 1142M1238 1170L1209 1267M1395 1199L1350 1264M1395 1199L1407 1261M1395 1199L1480 1210M1395 1199L1404 1295M1513 1181L1589 1149M1513 1181L1480 1210M1513 1181L1558 1266M1589 1149L1625 1213M1670 1200L1729 1158M1670 1200L1625 1213M1670 1200L1681 1257M1670 1200L1697 1299M1729 1158L1826 1150M1729 1158L1681 1257M1729 1158L1825 1214M1826 1150L1910 1200M1826 1150L1825 1214M1910 1200L1983 1189M1910 1200L1825 1214M1910 1200L1918 1260M1983 1189L2013 1198M1983 1189L1973 1262M1983 1189L2035 1244M2013 1198L1973 1262M2013 1198L2035 1244M2013 1198L2017 1288M2132 1148L2208 1182M2132 1148L2132 1222M2208 1182L2307 1155M2208 1182L2132 1222M2208 1182L2232 1271M2208 1182L2275 1234M2307 1155L2379 1124M2307 1155L2275 1234M2307 1155L2359 1227M2379 1124L2439 1142M2550 1162L2555 1248M72 1268L83 1225M72 1268L-5 1248M72 1268L53 1357M72 1268L151 1311M72 1268L-21 1291M2632 1268L2555 1248M2632 1268L2539 1291M83 1225L-5 1248M2643 1225L2555 1248M238 1237L259 1242M238 1237L151 1311M238 1237L270 1289M259 1242L270 1289M259 1242L326 1318M371 1274L459 1278M371 1274L270 1289M371 1274L326 1318M371 1274L449 1284M371 1274L312 1363M459 1278L515 1255M459 1278L449 1284M459 1278L524 1286M459 1278L479 1375M515 1255L607 1244M515 1255L449 1284M515 1255L524 1286M515 1255L614 1286M607 1244L660 1264M607 1244L524 1286M607 1244L614 1286M660 1264L754 1277M660 1264L614 1286M660 1264L662 1345M660 1264L736 1292M754 1277L803 1270M754 1277L736 1292M754 1277L811 1352M803 1270L736 1292M803 1270L811 1352M803 1270L898 1329M957 1226L1007 1213M1007 1213L1084 1247M1084 1247L1154 1267M1084 1247L1032 1332M1084 1247L1109 1301M1154 1267L1209 1267M1154 1267L1109 1301M1154 1267L1177 1321M1154 1267L1223 1304M1209 1267L1177 1321M1209 1267L1223 1304M1350 1264L1407 1261M1350 1264L1347 1322M1350 1264L1404 1295M1350 1264L1310 1394M1407 1261L1480 1210M1407 1261L1347 1322M1407 1261L1404 1295M1480 1210L1558 1266M1558 1266L1625 1213M1558 1266L1546 1307M1558 1266L1605 1307M1625 1213L1681 1257M1625 1213L1605 1307M1681 1257L1605 1307M1681 1257L1697 1299M1825 1214L1918 1260M1825 1214L1884 1307M1918 1260L1973 1262M1918 1260L1884 1307M1973 1262L2035 1244M1973 1262L2017 1288M2035 1244L2017 1288M2035 1244L2098 1288M2132 1222L2098 1288M2132 1222L2216 1312M2232 1271L2275 1234M2232 1271L2216 1312M2232 1271L2280 1316M2232 1271L2210 1366M2275 1234L2359 1227M2275 1234L2280 1316M2359 1227L2447 1253M2359 1227L2372 1303M2359 1227L2408 1288M2447 1253L2555 1248M2447 1253L2372 1303M2447 1253L2408 1288M2447 1253L2539 1291M2555 1248L2539 1291M53 1357L151 1311M53 1357L-21 1291M53 1357L79 1428M53 1357L129 1373M2613 1357L2539 1291M151 1311L176 1354M151 1311L129 1373M176 1354L79 1428M176 1354L129 1373M176 1354L203 1408M270 1289L326 1318M270 1289L312 1363M326 1318L312 1363M326 1318L364 1401M449 1284L524 1286M449 1284L479 1375M524 1286L479 1375M614 1286L662 1345M662 1345L736 1292M662 1345L647 1432M662 1345L743 1413M736 1292L811 1352M811 1352L743 1413M811 1352L849 1419M898 1329L935 1362M1032 1332L1109 1301M1032 1332L935 1362M1032 1332L1035 1369M1032 1332L1042 1406M1109 1301L1177 1321M1177 1321L1223 1304M1177 1321L1211 1408M1223 1304L1211 1408M1223 1304L1310 1394M1347 1322L1404 1295M1347 1322L1310 1394M1347 1322L1436 1374M1404 1295L1465 1357M1465 1357L1546 1307M1465 1357L1436 1374M1465 1357L1486 1385M1546 1307L1605 1307M1546 1307L1486 1385M1546 1307L1562 1411M1605 1307L1697 1299M1697 1299L1775 1354M1775 1354L1694 1431M1775 1354L1799 1437M1775 1354L1845 1372M1884 1307L1980 1347M1884 1307L1845 1372M1884 1307L1929 1380M1980 1347L2017 1288M1980 1347L1929 1380M1980 1347L2027 1434M2017 1288L2098 1288M2216 1312L2280 1316M2216 1312L2210 1366M2280 1316L2210 1366M2280 1316L2285 1398M2372 1303L2408 1288M2372 1303L2345 1373M2408 1288L2345 1373M2539 1291L2491 1423M79 1428L129 1373M129 1373L203 1408M312 1363L364 1401M479 1375L527 1393M479 1375L577 1421M527 1393L577 1421M577 1421L647 1432M849 1419L935 1362M935 1362L1035 1369M1035 1369L1042 1406M1035 1369L1125 1391M1042 1406L1125 1391M1125 1391L1211 1408M1211 1408L1310 1394M1436 1374L1486 1385M1486 1385L1562 1411M1562 1411L1655 1434M1655 1434L1694 1431M1694 1431L1799 1437M1799 1437L1845 1372M1845 1372L1929 1380M1929 1380L2027 1434M2027 1434L2105 1408M2210 1366L2285 1398M2285 1398L2345 1373M2345 1373L2431 1419M2431 1419L2491 1423"/></svg>