<svg xmlns="http://www.w3.org/2000/svg" width="2560" height="1440" fill="#fff"><circle cx="41" cy="40" r="6"/><circle cx="155" cy="27" r="5"/><circle cx="178" cy="32" r="5"/><circle cx="261" cy="12" r="5"/><circle cx="339" cy="68" r="6"/><circle cx="479" cy="61" r="4"/><circle cx="522" cy="55" r="5"/><circle cx="579" cy="28" r="5"/><circle cx="695" cy="4" r="5"/><circle cx="695" cy="1444" r="5"/><circle cx="732" cy="49" r="6"/><circle cx="811" cy="46" r="6"/><circle cx="894" cy="24" r="4"/><circle cx="1031" cy="80" r="5"/><circle cx="1073" cy="47" r="5"/><circle cx="1182" cy="73" r="6"/><circle cx="1238" cy="55" r="4"/><circle cx="1284" cy="18" r="6"/><circle cx="1440" cy="40" r="4"/><circle cx="1512" cy="68" r="4"/><circle cx="1552" cy="33" r="6"/><circle cx="1623" cy="3" r="5"/><circle cx="1623" cy="1443" r="5"/><circle cx="1747" cy="12" r="5"/><circle cx="1819" cy="20" r="4"/><circle cx="1862" cy="9" r="5"/><circle cx="1984" cy="13" r="5"/><circle cx="2016" cy="47" r="4"/><circle cx="2114" cy="38" r="6"/><circle cx="2169" cy="19" r="6"/><circle cx="2283" cy="77" r="5"/><circle cx="2361" cy="17" r="4"/><circle cx="2408" cy="64" r="5"/><circle cx="2524" cy="65" r="5"/><circle cx="31" cy="136" r="5"/><circle cx="141" cy="143" r="5"/><circle cx="216" cy="133" r="5"/><circle cx="246" cy="158" r="6"/><circle cx="325" cy="126" r="5"/><circle cx="442" cy="105" r="6"/><circle cx="525" cy="102" r="6"/><circle cx="560" cy="150" r="5"/><circle cx="697" cy="102" r="4"/><circle cx="773" cy="137" r="5"/><circle cx="825" cy="138" r="5"/><circle cx="934" cy="127" r="5"/><circle cx="999" cy="114" r="6"/><circle cx="1098" cy="111" r="5"/><circle cx="1148" cy="126" r="5"/><circle cx="1213" cy="108" r="5"/><circle cx="1300" cy="82" r="6"/><circle cx="1396" cy="83" r="5"/><circle cx="1477" cy="159" r="4"/><circle cx="1592" cy="146" r="5"/><circle cx="1644" cy="147" r="5"/><circle cx="1730" cy="95" r="6"/><circle cx="1839" cy="113" r="5"/><circle cx="1864" cy="89" r="6"/><circle cx="1936" cy="90" r="5"/><circle cx="2037" cy="153" r="6"/><circle cx="2090" cy="140" r="4"/><circle cx="2239" cy="81" r="6"/><circle cx="2260" cy="121" r="5"/><circle cx="2385" cy="123" r="6"/><circle cx="2438" cy="101" r="4"/><circle cx="2524" cy="156" r="5"/><circle cx="28" cy="240" r="6"/><circle cx="131" cy="171" r="6"/><circle cx="193" cy="198" r="5"/><circle cx="287" cy="207" r="5"/><circle cx="379" cy="191" r="6"/><circle cx="467" cy="217" r="5"/><circle cx="559" cy="218" r="6"/><circle cx="571" cy="189" r="6"/><circle cx="652" cy="174" r="4"/><circle cx="752" cy="170" r="4"/><circle cx="804" cy="219" r="5"/><circle cx="959" cy="177" r="6"/><circle cx="967" cy="213" r="5"/><circle cx="1092" cy="192" r="6"/><circle cx="1185" cy="196" r="4"/><circle cx="1252" cy="178" r="5"/><circle cx="1357" cy="162" r="6"/><circle cx="1360" cy="171" r="4"/><circle cx="1442" cy="231" r="5"/><circle cx="1597" cy="189" r="6"/><circle cx="1614" cy="229" r="6"/><circle cx="1684" cy="176" r="6"/><circle cx="1822" cy="222" r="5"/><circle cx="1911" cy="162" r="5"/><circle cx="1929" cy="225" r="5"/><circle cx="2014" cy="210" r="4"/><circle cx="2131" cy="210" r="5"/><circle cx="2212" cy="195" r="5"/><circle cx="2270" cy="202" r="5"/><circle cx="2323" cy="216" r="6"/><circle cx="2411" cy="164" r="4"/><circle cx="2551" cy="170" r="5"/><circle cx="65" cy="254" r="6"/><circle cx="87" cy="256" r="5"/><circle cx="227" cy="318" r="4"/><circle cx="313" cy="275" r="5"/><circle cx="357" cy="302" r="5"/><circle cx="470" cy="266" r="6"/><circle cx="559" cy="299" r="5"/><circle cx="584" cy="276" r="5"/><circle cx="670" cy="290" r="6"/><circle cx="765" cy="298" r="5"/><circle cx="825" cy="273" r="4"/><circle cx="958" cy="246" r="5"/><circle cx="1006" cy="318" r="5"/><circle cx="1083" cy="300" r="5"/><circle cx="1129" cy="302" r="5"/><circle cx="1254" cy="280" r="5"/><circle cx="1328" cy="251" r="5"/><circle cx="1397" cy="292" r="4"/><circle cx="1483" cy="303" r="5"/><circle cx="1599" cy="304" r="5"/><circle cx="1670" cy="272" r="5"/><circle cx="1746" cy="251" r="4"/><circle cx="1799" cy="275" r="6"/><circle cx="1863" cy="250" r="5"/><circle cx="1975" cy="305" r="5"/><circle cx="2010" cy="315" r="4"/><circle cx="2133" cy="287" r="6"/><circle cx="2217" cy="311" r="5"/><circle cx="2285" cy="268" r="5"/><circle cx="2330" cy="280" r="4"/><circle cx="2465" cy="257" r="5"/><circle cx="2554" cy="240" r="5"/><circle cx="30" cy="368" r="5"/><circle cx="122" cy="371" r="6"/><circle cx="161" cy="339" r="5"/><circle cx="247" cy="371" r="4"/><circle cx="372" cy="357" r="5"/><circle cx="417" cy="367" r="4"/><circle cx="498" cy="334" r="6"/><circle cx="590" cy="368" r="5"/><circle cx="670" cy="392" r="5"/><circle cx="731" cy="371" r="4"/><circle cx="841" cy="387" r="6"/><circle cx="929" cy="369" r="6"/><circle cx="1006" cy="390" r="5"/><circle cx="1072" cy="380" r="4"/><circle cx="1121" cy="368" r="5"/><circle cx="1250" cy="383" r="5"/><circle cx="1314" cy="328" r="4"/><circle cx="1380" cy="395" r="5"/><circle cx="1484" cy="352" r="5"/><circle cx="1536" cy="390" r="4"/><circle cx="1604" cy="379" r="6"/><circle cx="1692" cy="364" r="4"/><circle cx="1766" cy="381" r="4"/><circle cx="1846" cy="357" r="4"/><circle cx="1967" cy="384" r="5"/><circle cx="2039" cy="340" r="5"/><circle cx="2091" cy="326" r="5"/><circle cx="2220" cy="382" r="4"/><circle cx="2301" cy="346" r="6"/><circle cx="2359" cy="369" r="5"/><circle cx="2407" cy="371" r="5"/><circle cx="2511" cy="338" r="5"/><circle cx="30" cy="478" r="5"/><circle cx="143" cy="431" r="5"/><circle cx="236" cy="424" r="5"/><circle cx="277" cy="443" r="5"/><circle cx="354" cy="427" r="6"/><circle cx="416" cy="469" r="5"/><circle cx="494" cy="470" r="4"/><circle cx="610" cy="455" r="6"/><circle cx="641" cy="446" r="4"/><circle cx="727" cy="410" r="6"/><circle cx="866" cy="461" r="4"/><circle cx="944" cy="458" r="4"/><circle cx="1029" cy="464" r="4"/><circle cx="1045" cy="426" r="5"/><circle cx="1168" cy="456" r="5"/><circle cx="1229" cy="411" r="6"/><circle cx="1287" cy="423" r="6"/><circle cx="1418" cy="401" r="5"/><circle cx="1483" cy="449" r="6"/><circle cx="1586" cy="437" r="4"/><circle cx="1674" cy="427" r="5"/><circle cx="1711" cy="462" r="5"/><circle cx="1832" cy="473" r="5"/><circle cx="1870" cy="448" r="5"/><circle cx="1944" cy="440" r="5"/><circle cx="2058" cy="474" r="5"/><circle cx="2102" cy="453" r="5"/><circle cx="2178" cy="409" r="6"/><circle cx="2277" cy="402" r="5"/><circle cx="2348" cy="436" r="4"/><circle cx="2472" cy="429" r="5"/><circle cx="2512" cy="406" r="5"/><circle cx="15" cy="558" r="4"/><circle cx="130" cy="518" r="5"/><circle cx="238" cy="521" r="5"/><circle cx="286" cy="507" r="5"/><circle cx="355" cy="533" r="4"/><circle cx="401" cy="498" r="4"/><circle cx="516" cy="537" r="4"/><circle cx="625" cy="547" r="5"/><circle cx="715" cy="538" r="4"/><circle cx="750" cy="531" r="5"/><circle cx="850" cy="523" r="6"/><circle cx="929" cy="547" r="5"/><circle cx="1015" cy="521" r="5"/><circle cx="1067" cy="524" r="5"/><circle cx="1180" cy="486" r="5"/><circle cx="1248" cy="503" r="5"/><circle cx="1282" cy="517" r="4"/><circle cx="1388" cy="496" r="5"/><circle cx="1482" cy="488" r="5"/><circle cx="1597" cy="494" r="4"/><circle cx="1668" cy="529" r="4"/><circle cx="1717" cy="541" r="5"/><circle cx="1807" cy="513" r="5"/><circle cx="1868" cy="559" r="5"/><circle cx="1927" cy="527" r="4"/><circle cx="2022" cy="489" r="5"/><circle cx="2094" cy="528" r="4"/><circle cx="2218" cy="530" r="5"/><circle cx="2282" cy="493" r="5"/><circle cx="2364" cy="546" r="5"/><circle cx="2458" cy="503" r="4"/><circle cx="2527" cy="513" r="5"/><circle cx="56" cy="601" r="5"/><circle cx="124" cy="580" r="6"/><circle cx="188" cy="616" r="5"/><circle cx="314" cy="618" r="6"/><circle cx="374" cy="629" r="5"/><circle cx="415" cy="629" r="5"/><circle cx="481" cy="587" r="5"/><circle cx="626" cy="600" r="5"/><circle cx="675" cy="624" r="6"/><circle cx="727" cy="617" r="5"/><circle cx="836" cy="627" r="5"/><circle cx="920" cy="562" r="5"/><circle cx="975" cy="603" r="6"/><circle cx="1108" cy="565" r="5"/><circle cx="1154" cy="562" r="4"/><circle cx="1228" cy="565" r="5"/><circle cx="1280" cy="597" r="4"/><circle cx="1386" cy="587" r="5"/><circle cx="1497" cy="625" r="6"/><circle cx="1568" cy="597" r="6"/><circle cx="1663" cy="598" r="4"/><circle cx="1690" cy="567" r="4"/><circle cx="1764" cy="601" r="6"/><circle cx="1892" cy="612" r="5"/><circle cx="1977" cy="561" r="5"/><circle cx="2060" cy="594" r="6"/><circle cx="2094" cy="568" r="5"/><circle cx="2239" cy="639" r="5"/><circle cx="2279" cy="601" r="5"/><circle cx="2330" cy="585" r="6"/><circle cx="2480" cy="572" r="6"/><circle cx="2558" cy="615" r="5"/><circle cx="-2" cy="615" r="5"/><circle cx="53" cy="701" r="5"/><circle cx="91" cy="718" r="6"/><circle cx="228" cy="653" r="5"/><circle cx="264" cy="662" r="5"/><circle cx="357" cy="671" r="5"/><circle cx="429" cy="691" r="5"/><circle cx="496" cy="710" r="5"/><circle cx="561" cy="688" r="6"/><circle cx="664" cy="719" r="6"/><circle cx="799" cy="715" r="5"/><circle cx="805" cy="651" r="5"/><circle cx="953" cy="712" r="5"/><circle cx="1022" cy="707" r="4"/><circle cx="1093" cy="669" r="4"/><circle cx="1164" cy="677" r="5"/><circle cx="1267" cy="646" r="5"/><circle cx="1312" cy="668" r="4"/><circle cx="1415" cy="643" r="5"/><circle cx="1504" cy="649" r="4"/><circle cx="1541" cy="693" r="6"/><circle cx="1645" cy="643" r="5"/><circle cx="1720" cy="641" r="6"/><circle cx="1774" cy="692" r="5"/><circle cx="1861" cy="666" r="5"/><circle cx="1981" cy="688" r="6"/><circle cx="2061" cy="690" r="4"/><circle cx="2101" cy="665" r="5"/><circle cx="2171" cy="700" r="5"/><circle cx="2252" cy="656" r="5"/><circle cx="2385" cy="685" r="5"/><circle cx="2434" cy="653" r="5"/><circle cx="2509" cy="685" r="4"/><circle cx="58" cy="768" r="5"/><circle cx="90" cy="782" r="4"/><circle cx="198" cy="751" r="5"/><circle cx="291" cy="750" r="5"/><circle cx="341" cy="783" r="6"/><circle cx="465" cy="787" r="4"/><circle cx="531" cy="729" r="5"/><circle cx="583" cy="789" r="6"/><circle cx="649" cy="745" r="5"/><circle cx="737" cy="760" r="5"/><circle cx="838" cy="735" r="6"/><circle cx="926" cy="754" r="4"/><circle cx="981" cy="745" r="4"/><circle cx="1056" cy="762" r="5"/><circle cx="1183" cy="726" r="4"/><circle cx="1230" cy="794" r="6"/><circle cx="1359" cy="777" r="5"/><circle cx="1365" cy="788" r="5"/><circle cx="1494" cy="775" r="4"/><circle cx="1547" cy="747" r="5"/><circle cx="1644" cy="779" r="5"/><circle cx="1721" cy="725" r="4"/><circle cx="1830" cy="721" r="5"/><circle cx="1902" cy="784" r="5"/><circle cx="1927" cy="732" r="5"/><circle cx="2066" cy="794" r="6"/><circle cx="2141" cy="742" r="5"/><circle cx="2192" cy="783" r="6"/><circle cx="2315" cy="766" r="5"/><circle cx="2352" cy="745" r="5"/><circle cx="2442" cy="732" r="5"/><circle cx="2485" cy="744" r="6"/><circle cx="48" cy="867" r="5"/><circle cx="123" cy="872" r="4"/><circle cx="161" cy="866" r="5"/><circle cx="307" cy="823" r="5"/><circle cx="387" cy="848" r="5"/><circle cx="404" cy="878" r="6"/><circle cx="519" cy="848" r="4"/><circle cx="607" cy="852" r="6"/><circle cx="712" cy="862" r="5"/><circle cx="800" cy="837" r="4"/><circle cx="849" cy="816" r="4"/><circle cx="897" cy="878" r="5"/><circle cx="985" cy="875" r="6"/><circle cx="1092" cy="839" r="6"/><circle cx="1129" cy="865" r="4"/><circle cx="1257" cy="812" r="4"/><circle cx="1290" cy="817" r="5"/><circle cx="1383" cy="831" r="5"/><circle cx="1447" cy="866" r="5"/><circle cx="1573" cy="867" r="5"/><circle cx="1664" cy="827" r="6"/><circle cx="1691" cy="861" r="5"/><circle cx="1766" cy="805" r="5"/><circle cx="1875" cy="860" r="6"/><circle cx="1995" cy="838" r="5"/><circle cx="2056" cy="850" r="5"/><circle cx="2117" cy="819" r="4"/><circle cx="2173" cy="854" r="5"/><circle cx="2314" cy="838" r="4"/><circle cx="2389" cy="800" r="5"/><circle cx="2430" cy="807" r="4"/><circle cx="2500" cy="838" r="5"/><circle cx="8" cy="887" r="6"/><circle cx="128" cy="913" r="5"/><circle cx="191" cy="946" r="5"/><circle cx="316" cy="913" r="6"/><circle cx="382" cy="944" r="6"/><circle cx="459" cy="937" r="5"/><circle cx="504" cy="935" r="5"/><circle cx="563" cy="956" r="5"/><circle cx="659" cy="913" r="6"/><circle cx="739" cy="899" r="4"/><circle cx="847" cy="949" r="4"/><circle cx="959" cy="901" r="5"/><circle cx="986" cy="892" r="4"/><circle cx="1090" cy="958" r="5"/><circle cx="1153" cy="889" r="4"/><circle cx="1209" cy="887" r="5"/><circle cx="1341" cy="928" r="5"/><circle cx="1363" cy="913" r="5"/><circle cx="1503" cy="955" r="5"/><circle cx="1577" cy="954" r="4"/><circle cx="1640" cy="929" r="6"/><circle cx="1754" cy="920" r="4"/><circle cx="1805" cy="950" r="6"/><circle cx="1867" cy="931" r="6"/><circle cx="1937" cy="907" r="6"/><circle cx="2078" cy="887" r="5"/><circle cx="2084" cy="885" r="4"/><circle cx="2215" cy="882" r="6"/><circle cx="2318" cy="928" r="5"/><circle cx="2320" cy="929" r="5"/><circle cx="2413" cy="923" r="5"/><circle cx="2495" cy="918" r="5"/><circle cx="42" cy="1027" r="6"/><circle cx="109" cy="1024" r="5"/><circle cx="196" cy="964" r="4"/><circle cx="275" cy="1036" r="5"/><circle cx="339" cy="993" r="5"/><circle cx="437" cy="1013" r="4"/><circle cx="515" cy="1008" r="5"/><circle cx="629" cy="966" r="5"/><circle cx="656" cy="987" r="6"/><circle cx="745" cy="995" r="5"/><circle cx="854" cy="1026" r="5"/><circle cx="883" cy="966" r="5"/><circle cx="968" cy="972" r="6"/><circle cx="1069" cy="1010" r="4"/><circle cx="1155" cy="1001" r="6"/><circle cx="1232" cy="985" r="5"/><circle cx="1283" cy="1029" r="4"/><circle cx="1381" cy="974" r="4"/><circle cx="1505" cy="1011" r="5"/><circle cx="1542" cy="962" r="5"/><circle cx="1656" cy="998" r="5"/><circle cx="1713" cy="1027" r="4"/><circle cx="1811" cy="1023" r="6"/><circle cx="1899" cy="1037" r="6"/><circle cx="1959" cy="1029" r="4"/><circle cx="2076" cy="1019" r="5"/><circle cx="2112" cy="994" r="4"/><circle cx="2193" cy="1023" r="6"/><circle cx="2273" cy="994" r="5"/><circle cx="2386" cy="1022" r="5"/><circle cx="2476" cy="986" r="6"/><circle cx="2510" cy="962" r="5"/><circle cx="49" cy="1042" r="5"/><circle cx="137" cy="1048" r="5"/><circle cx="188" cy="1084" r="5"/><circle cx="303" cy="1111" r="6"/><circle cx="381" cy="1058" r="5"/><circle cx="407" cy="1082" r="5"/><circle cx="523" cy="1096" r="4"/><circle cx="566" cy="1088" r="4"/><circle cx="715" cy="1050" r="4"/><circle cx="777" cy="1072" r="4"/><circle cx="837" cy="1086" r="6"/><circle cx="897" cy="1041" r="4"/><circle cx="975" cy="1061" r="5"/><circle cx="1075" cy="1111" r="5"/><circle cx="1171" cy="1049" r="5"/><circle cx="1256" cy="1063" r="5"/><circle cx="1301" cy="1091" r="5"/><circle cx="1411" cy="1056" r="5"/><circle cx="1519" cy="1049" r="5"/><circle cx="1581" cy="1070" r="6"/><circle cx="1676" cy="1061" r="5"/><circle cx="1688" cy="1113" r="4"/><circle cx="1838" cy="1056" r="6"/><circle cx="1912" cy="1105" r="6"/><circle cx="1980" cy="1109" r="5"/><circle cx="2043" cy="1083" r="4"/><circle cx="2120" cy="1078" r="4"/><circle cx="2176" cy="1084" r="4"/><circle cx="2253" cy="1099" r="5"/><circle cx="2321" cy="1102" r="5"/><circle cx="2474" cy="1061" r="4"/><circle cx="2518" cy="1089" r="4"/><circle cx="38" cy="1184" r="5"/><circle cx="92" cy="1131" r="6"/><circle cx="217" cy="1165" r="5"/><circle cx="301" cy="1138" r="5"/><circle cx="361" cy="1132" r="4"/><circle cx="429" cy="1180" r="4"/><circle cx="490" cy="1189" r="6"/><circle cx="612" cy="1132" r="4"/><circle cx="706" cy="1144" r="4"/><circle cx="792" cy="1121" r="5"/><circle cx="803" cy="1152" r="5"/><circle cx="948" cy="1167" r="6"/><circle cx="991" cy="1157" r="4"/><circle cx="1106" cy="1130" r="5"/><circle cx="1134" cy="1178" r="6"/><circle cx="1252" cy="1145" r="6"/><circle cx="1346" cy="1157" r="6"/><circle cx="1381" cy="1170" r="4"/><circle cx="1455" cy="1158" r="6"/><circle cx="1544" cy="1169" r="6"/><circle cx="1612" cy="1130" r="4"/><circle cx="1685" cy="1126" r="4"/><circle cx="1776" cy="1164" r="4"/><circle cx="1844" cy="1147" r="4"/><circle cx="1967" cy="1146" r="5"/><circle cx="2031" cy="1153" r="6"/><circle cx="2140" cy="1169" r="5"/><circle cx="2219" cy="1150" r="4"/><circle cx="2308" cy="1140" r="5"/><circle cx="2397" cy="1135" r="6"/><circle cx="2449" cy="1129" r="4"/><circle cx="2521" cy="1131" r="4"/><circle cx="3" cy="1258" r="4"/><circle cx="2563" cy="1258" r="4"/><circle cx="101" cy="1255" r="4"/><circle cx="177" cy="1227" r="6"/><circle cx="304" cy="1266" r="6"/><circle cx="336" cy="1253" r="6"/><circle cx="441" cy="1222" r="5"/><circle cx="483" cy="1274" r="6"/><circle cx="591" cy="1250" r="4"/><circle cx="667" cy="1279" r="4"/><circle cx="787" cy="1260" r="4"/><circle cx="847" cy="1223" r="6"/><circle cx="942" cy="1242" r="6"/><circle cx="992" cy="1258" r="5"/><circle cx="1081" cy="1257" r="5"/><circle cx="1188" cy="1212" r="6"/><circle cx="1223" cy="1212" r="4"/><circle cx="1294" cy="1277" r="5"/><circle cx="1384" cy="1264" r="5"/><circle cx="1443" cy="1230" r="6"/><circle cx="1545" cy="1239" r="4"/><circle cx="1666" cy="1226" r="5"/><circle cx="1734" cy="1205" r="5"/><circle cx="1837" cy="1233" r="5"/><circle cx="1911" cy="1224" r="5"/><circle cx="1922" cy="1212" r="5"/><circle cx="2049" cy="1213" r="6"/><circle cx="2095" cy="1252" r="4"/><circle cx="2164" cy="1219" r="6"/><circle cx="2310" cy="1263" r="5"/><circle cx="2347" cy="1236" r="6"/><circle cx="2422" cy="1261" r="6"/><circle cx="2553" cy="1258" r="5"/><circle cx="63" cy="1329" r="5"/><circle cx="152" cy="1341" r="5"/><circle cx="221" cy="1329" r="6"/><circle cx="280" cy="1329" r="5"/><circle cx="365" cy="1286" r="5"/><circle cx="416" cy="1307" r="6"/><circle cx="500" cy="1355" r="5"/><circle cx="579" cy="1356" r="5"/><circle cx="707" cy="1304" r="5"/><circle cx="761" cy="1283" r="5"/><circle cx="843" cy="1344" r="5"/><circle cx="959" cy="1334" r="5"/><circle cx="1021" cy="1331" r="6"/><circle cx="1092" cy="1329" r="5"/><circle cx="1190" cy="1288" r="4"/><circle cx="1223" cy="1328" r="5"/><circle cx="1285" cy="1313" r="4"/><circle cx="1401" cy="1346" r="5"/><circle cx="1477" cy="1304" r="5"/><circle cx="1560" cy="1311" r="5"/><circle cx="1664" cy="1280" r="5"/><circle cx="1746" cy="1349" r="4"/><circle cx="1808" cy="1337" r="5"/><circle cx="1841" cy="1297" r="6"/><circle cx="1984" cy="1355" r="6"/><circle cx="2068" cy="1296" r="6"/><circle cx="2115" cy="1322" r="6"/><circle cx="2206" cy="1296" r="6"/><circle cx="2242" cy="1310" r="5"/><circle cx="2378" cy="1282" r="5"/><circle cx="2412" cy="1292" r="5"/><circle cx="2502" cy="1353" r="4"/><circle cx="50" cy="1399" r="5"/><circle cx="141" cy="1375" r="6"/><circle cx="211" cy="1425" r="6"/><circle cx="280" cy="1361" r="5"/><circle cx="346" cy="1413" r="5"/><circle cx="465" cy="1380" r="5"/><circle cx="500" cy="1406" r="5"/><circle cx="629" cy="1379" r="5"/><circle cx="673" cy="1395" r="5"/><circle cx="775" cy="1421" r="6"/><circle cx="814" cy="1395" r="4"/><circle cx="959" cy="1403" r="5"/><circle cx="1030" cy="1406" r="4"/><circle cx="1102" cy="1415" r="6"/><circle cx="1163" cy="1382" r="5"/><circle cx="1277" cy="1434" r="5"/><circle cx="1350" cy="1408" r="5"/><circle cx="1405" cy="1434" r="5"/><circle cx="1470" cy="1392" r="4"/><circle cx="1532" cy="1400" r="5"/><circle cx="1671" cy="1377" r="5"/><circle cx="1721" cy="1432" r="5"/><circle cx="1815" cy="1404" r="5"/><circle cx="1856" cy="1377" r="6"/><circle cx="1946" cy="1416" r="5"/><circle cx="2073" cy="1422" r="5"/><circle cx="2129" cy="1437" r="4"/><circle cx="2129" cy="-3" r="4"/><circle cx="2179" cy="1364" r="6"/><circle cx="2258" cy="1435" r="6"/><circle cx="2258" cy="-5" r="6"/><circle cx="2325" cy="1370" r="5"/><circle cx="2404" cy="1362" r="5"/><circle cx="2544" cy="1367" r="4"/><path stroke="#fff" d="M41 40L155 27M41 40L-36 65M41 40L31 136M41 40L50 -41M2601 40L2524 65M41 1480L50 1399M155 27L178 32M155 27L211 -15M155 1467L211 1425M178 32L261 12M178 32L211 -15M178 1472L211 1425M261 12L339 68M261 12L211 -15M261 12L280 -79M261 12L346 -27M261 1452L211 1425M261 1452L280 1361M261 1452L346 1413M339 68L325 126M339 68L442 105M339 68L346 -27M339 1508L346 1413M479 61L522 55M479 61L442 105M479 61L525 102M522 55L579 28M522 55L442 105M522 55L525 102M522 55L500 -34M522 1495L500 1406M579 28L525 102M579 28L579 -84M579 28L500 -34M579 28L629 -61M579 1468L579 1356M579 1468L500 1406M579 1468L629 1379M695 4L732 49M695 4L697 102M695 4L629 -61M695 4L673 -45M695 4L775 -19M695 1444L629 1379M695 1444L673 1395M695 1444L775 1421M732 49L811 46M732 49L697 102M732 49L773 137M732 49L775 -19M732 1489L775 1421M811 46L894 24M811 46L825 138M811 46L775 -19M811 46L814 -45M811 1486L775 1421M811 1486L814 1395M894 24L814 -45M894 24L959 -37M894 1464L814 1395M894 1464L959 1403M1031 80L1073 47M1031 80L934 127M1031 80L999 114M1031 80L1098 111M1031 80L959 177M1073 47L999 114M1073 47L1098 111M1073 47L1030 -34M1073 47L1102 -25M1073 1487L1030 1406M1073 1487L1102 1415M1182 73L1238 55M1182 73L1284 18M1182 73L1098 111M1182 73L1148 126M1182 73L1213 108M1238 55L1284 18M1238 55L1213 108M1238 55L1300 82M1238 55L1277 -6M1238 1495L1277 1434M1284 18L1300 82M1284 18L1277 -6M1284 18L1350 -32M1284 1458L1277 1434M1284 1458L1350 1408M1440 40L1512 68M1440 40L1552 33M1440 40L1396 83M1440 40L1405 -6M1440 40L1470 -48M1440 1480L1405 1434M1440 1480L1470 1392M1512 68L1552 33M1512 68L1477 159M1512 68L1532 -40M1512 1508L1532 1400M1552 33L1623 3M1552 33L1592 146M1552 33L1532 -40M1552 1473L1532 1400M1623 3L1532 -40M1623 3L1671 -63M1623 1443L1532 1400M1623 1443L1671 1377M1747 12L1819 20M1747 12L1730 95M1747 12L1746 -91M1747 12L1721 -8M1747 12L1815 -36M1747 1452L1746 1349M1747 1452L1721 1432M1747 1452L1815 1404M1819 20L1862 9M1819 20L1864 89M1819 20L1815 -36M1819 1460L1815 1404M1862 9L1864 89M1862 9L1815 -36M1862 9L1856 -63M1862 9L1946 -24M1862 1449L1815 1404M1862 1449L1856 1377M1862 1449L1946 1416M1984 13L2016 47M1984 13L1936 90M1984 13L1984 -85M1984 13L1946 -24M1984 13L2073 -18M1984 1453L1984 1355M1984 1453L1946 1416M1984 1453L2073 1422M2016 47L2114 38M2016 47L1936 90M2016 47L1946 -24M2016 47L2073 -18M2016 1487L1946 1416M2016 1487L2073 1422M2114 38L2169 19M2114 38L2090 140M2114 38L2073 -18M2114 38L2129 -3M2114 1478L2073 1422M2114 1478L2129 1437M2169 19L2239 81M2169 19L2129 -3M2169 19L2179 -76M2169 19L2258 -5M2169 1459L2129 1437M2169 1459L2179 1364M2169 1459L2258 1435M2283 77L2361 17M2283 77L2239 81M2283 77L2260 121M2283 77L2385 123M2283 77L2258 -5M2283 1517L2258 1435M2361 17L2408 64M2361 17L2258 -5M2361 17L2325 -70M2361 1457L2258 1435M2361 1457L2325 1370M2408 64L2385 123M2408 64L2438 101M2408 64L2411 164M2524 65L2438 101M2524 65L2524 156M31 136L-36 156M31 136L28 240M31 136L-9 170M2591 136L2524 156M2591 136L2551 170M141 143L216 133M141 143L246 158M141 143L131 171M141 143L193 198M216 133L246 158M216 133L131 171M216 133L193 198M246 158L325 126M246 158L193 198M246 158L287 207M325 126L287 207M325 126L379 191M442 105L525 102M442 105L379 191M525 102L560 150M560 150L559 218M560 150L571 189M560 150L652 174M697 102L773 137M697 102L652 174M697 102L752 170M773 137L825 138M773 137L752 170M773 137L804 219M825 138L934 127M825 138L752 170M825 138L804 219M934 127L999 114M934 127L959 177M934 127L967 213M999 114L959 177M1098 111L1148 126M1098 111L1092 192M1148 126L1213 108M1148 126L1092 192M1148 126L1185 196M1213 108L1300 82M1213 108L1252 178M1300 82L1357 162M1300 82L1277 -6M1300 1522L1277 1434M1396 83L1357 162M1396 83L1360 171M1396 83L1405 -6M1396 1523L1405 1434M1477 159L1442 231M1592 146L1644 147M1592 146L1597 189M1592 146L1684 176M1644 147L1730 95M1644 147L1597 189M1644 147L1614 229M1644 147L1684 176M1730 95L1839 113M1730 95L1684 176M1730 95L1721 -8M1730 1535L1721 1432M1839 113L1864 89M1839 113L1936 90M1839 113L1911 162M1864 89L1936 90M1864 89L1911 162M1936 90L1911 162M2037 153L2090 140M2037 153L2014 210M2037 153L2131 210M2090 140L2014 210M2090 140L2131 210M2239 81L2260 121M2239 81L2258 -5M2239 1521L2258 1435M2260 121L2212 195M2260 121L2270 202M2385 123L2438 101M2385 123L2323 216M2385 123L2411 164M2438 101L2411 164M2524 156L2551 170M2524 156L2554 240M28 240L-9 170M28 240L65 254M28 240L87 256M28 240L-6 240M2588 240L2551 170M2588 240L2554 240M131 171L193 198M131 171L65 254M131 171L87 256M193 198L287 207M287 207L379 191M287 207L313 275M379 191L467 217M379 191L313 275M467 217L559 218M467 217L571 189M467 217L470 266M467 217L498 334M559 218L571 189M559 218L559 299M559 218L584 276M571 189L652 174M571 189L584 276M652 174L752 170M752 170L804 219M804 219L765 298M804 219L825 273M959 177L967 213M959 177L958 246M967 213L958 246M1092 192L1185 196M1092 192L1083 300M1092 192L1129 302M1185 196L1252 178M1185 196L1129 302M1185 196L1254 280M1252 178L1254 280M1357 162L1360 171M1357 162L1442 231M1357 162L1328 251M1360 171L1442 231M1360 171L1328 251M1442 231L1397 292M1442 231L1483 303M1597 189L1614 229M1597 189L1684 176M1597 189L1670 272M1614 229L1684 176M1614 229L1599 304M1614 229L1670 272M1822 222L1929 225M1822 222L1746 251M1822 222L1799 275M1822 222L1863 250M1911 162L1929 225M1911 162L1863 250M1929 225L2014 210M1929 225L1863 250M1929 225L1975 305M2014 210L1975 305M2131 210L2212 195M2131 210L2133 287M2131 210L2091 326M2212 195L2270 202M2270 202L2323 216M2270 202L2285 268M2270 202L2330 280M2323 216L2411 164M2323 216L2285 268M2323 216L2330 280M2411 164L2465 257M2551 170L2625 254M2551 170L2554 240M-9 170L65 254M65 254L87 256M65 254L-6 240M2625 254L2554 240M227 318L313 275M227 318L122 371M227 318L161 339M227 318L247 371M313 275L357 302M313 275L372 357M357 302L470 266M357 302L372 357M357 302L417 367M470 266L559 299M470 266L498 334M559 299L584 276M559 299L498 334M559 299L590 368M584 276L670 290M584 276L590 368M670 290L765 298M670 290L731 371M765 298L825 273M765 298L731 371M765 298L727 410M825 273L841 387M958 246L1006 318M1006 318L1083 300M1006 318L929 369M1006 318L1006 390M1006 318L1072 380M1083 300L1129 302M1083 300L1072 380M1083 300L1121 368M1129 302L1121 368M1254 280L1328 251M1254 280L1250 383M1254 280L1314 328M1328 251L1397 292M1328 251L1314 328M1397 292L1483 303M1483 303L1484 352M1483 303L1536 390M1599 304L1670 272M1599 304L1604 379M1670 272L1746 251M1670 272L1692 364M1746 251L1799 275M1799 275L1863 250M1799 275L1766 381M1799 275L1846 357M1863 250L1846 357M1975 305L2010 315M1975 305L1967 384M1975 305L2039 340M2010 315L1967 384M2010 315L2039 340M2010 315L2091 326M2133 287L2217 311M2133 287L2039 340M2133 287L2091 326M2133 287L2178 409M2217 311L2285 268M2217 311L2220 382M2217 311L2301 346M2217 311L2178 409M2285 268L2330 280M2285 268L2301 346M2330 280L2301 346M2330 280L2359 369M2465 257L2554 240M2465 257L2511 338M30 368L122 371M30 368L-49 338M30 368L30 478M30 368L143 431M30 368L-48 406M2590 368L2511 338M2590 368L2512 406M122 371L161 339M122 371L143 431M161 339L247 371M161 339L143 431M247 371L236 424M247 371L277 443M372 357L417 367M372 357L354 427M417 367L498 334M417 367L354 427M417 367L416 469M498 334L590 368M590 368L670 392M590 368L610 455M670 392L731 371M670 392L610 455M670 392L641 446M670 392L727 410M731 371L841 387M731 371L727 410M841 387L929 369M841 387L727 410M841 387L866 461M929 369L1006 390M929 369L866 461M929 369L944 458M1006 390L1072 380M1006 390L1029 464M1006 390L1045 426M1072 380L1121 368M1072 380L1045 426M1121 368L1045 426M1121 368L1168 456M1250 383L1314 328M1250 383L1168 456M1250 383L1229 411M1250 383L1287 423M1314 328L1380 395M1380 395L1287 423M1380 395L1418 401M1380 395L1388 496M1484 352L1536 390M1484 352L1418 401M1484 352L1483 449M1536 390L1604 379M1536 390L1483 449M1536 390L1586 437M1604 379L1692 364M1604 379L1586 437M1604 379L1674 427M1692 364L1766 381M1692 364L1674 427M1692 364L1711 462M1766 381L1846 357M1766 381L1711 462M1846 357L1870 448M1967 384L2039 340M1967 384L1944 440M2039 340L2091 326M2220 382L2178 409M2220 382L2277 402M2301 346L2359 369M2301 346L2277 402M2359 369L2407 371M2359 369L2277 402M2359 369L2348 436M2407 371L2511 338M2407 371L2348 436M2407 371L2472 429M2511 338L2472 429M2511 338L2512 406M30 478L-48 406M30 478L15 558M30 478L130 518M30 478L-33 513M2590 478L2512 406M2590 478L2527 513M143 431L236 424M143 431L130 518M236 424L277 443M236 424L238 521M236 424L286 507M277 443L354 427M277 443L238 521M277 443L286 507M354 427L416 469M354 427L401 498M416 469L494 470M416 469L355 533M416 469L401 498M494 470L401 498M494 470L516 537M610 455L641 446M610 455L625 547M641 446L727 410M641 446L625 547M866 461L944 458M866 461L850 523M944 458L1029 464M944 458L929 547M1029 464L1045 426M1029 464L1015 521M1029 464L1067 524M1045 426L1067 524M1168 456L1229 411M1168 456L1180 486M1229 411L1287 423M1229 411L1180 486M1229 411L1248 503M1287 423L1248 503M1287 423L1282 517M1418 401L1483 449M1418 401L1388 496M1418 401L1482 488M1483 449L1388 496M1483 449L1482 488M1586 437L1674 427M1586 437L1482 488M1586 437L1597 494M1674 427L1711 462M1711 462L1668 529M1711 462L1717 541M1832 473L1870 448M1832 473L1807 513M1832 473L1868 559M1870 448L1944 440M1870 448L1807 513M1870 448L1927 527M1944 440L1927 527M1944 440L2022 489M2058 474L2102 453M2058 474L2022 489M2058 474L2094 528M2058 474L2094 568M2102 453L2178 409M2102 453L2022 489M2102 453L2094 528M2102 453L2094 568M2277 402L2348 436M2277 402L2282 493M2348 436L2282 493M2472 429L2512 406M2472 429L2458 503M2472 429L2527 513M15 558L-33 513M15 558L56 601M15 558L-80 572M15 558L-2 615M2575 558L2527 513M2575 558L2480 572M2575 558L2558 615M130 518L124 580M238 521L286 507M238 521L188 616M286 507L355 533M355 533L401 498M355 533L374 629M516 537L481 587M625 547L715 538M625 547L626 600M625 547L675 624M715 538L750 531M715 538L626 600M715 538L675 624M715 538L727 617M750 531L850 523M750 531L727 617M850 523L929 547M850 523L836 627M850 523L920 562M929 547L1015 521M929 547L920 562M929 547L975 603M1015 521L1067 524M1015 521L920 562M1015 521L975 603M1067 524L1108 565M1067 524L1154 562M1180 486L1248 503M1180 486L1154 562M1248 503L1282 517M1248 503L1228 565M1282 517L1228 565M1282 517L1280 597M1388 496L1482 488M1388 496L1386 587M1482 488L1597 494M1597 494L1668 529M1668 529L1717 541M1668 529L1663 598M1668 529L1690 567M1717 541L1663 598M1717 541L1690 567M1717 541L1764 601M1807 513L1868 559M1807 513L1764 601M1868 559L1927 527M1868 559L1892 612M1927 527L1892 612M1927 527L1977 561M2022 489L2094 528M2022 489L1977 561M2094 528L2060 594M2094 528L2094 568M2218 530L2282 493M2218 530L2239 639M2218 530L2279 601M2282 493L2364 546M2282 493L2330 585M2364 546L2458 503M2364 546L2279 601M2364 546L2330 585M2458 503L2527 513M2458 503L2480 572M2527 513L2480 572M56 601L124 580M56 601L-2 615M56 601L53 701M56 601L91 718M2616 601L2558 615M124 580L188 616M124 580L228 653M188 616L228 653M188 616L264 662M314 618L374 629M314 618L415 629M314 618L228 653M314 618L264 662M314 618L357 671M374 629L415 629M374 629L357 671M374 629L429 691M415 629L481 587M415 629L357 671M415 629L429 691M481 587L429 691M626 600L675 624M626 600L727 617M675 624L727 617M675 624L664 719M727 617L805 651M836 627L920 562M836 627L799 715M836 627L805 651M920 562L975 603M975 603L953 712M975 603L1022 707M1108 565L1154 562M1108 565L1093 669M1108 565L1164 677M1154 562L1228 565M1228 565L1280 597M1228 565L1267 646M1280 597L1386 587M1280 597L1267 646M1280 597L1312 668M1386 587L1497 625M1386 587L1312 668M1386 587L1415 643M1497 625L1568 597M1497 625L1415 643M1497 625L1504 649M1497 625L1541 693M1568 597L1504 649M1568 597L1541 693M1568 597L1645 643M1663 598L1690 567M1663 598L1645 643M1663 598L1720 641M1690 567L1764 601M1690 567L1720 641M1764 601L1720 641M1764 601L1774 692M1892 612L1977 561M1892 612L1861 666M1892 612L1981 688M1977 561L2060 594M2060 594L2094 568M2060 594L2061 690M2060 594L2101 665M2094 568L2101 665M2239 639L2279 601M2239 639L2330 585M2239 639L2171 700M2239 639L2252 656M2279 601L2330 585M2279 601L2252 656M2330 585L2252 656M2480 572L2558 615M2480 572L2434 653M2558 615L2613 701M2558 615L2509 685M-2 615L53 701M53 701L91 718M53 701L58 768M53 701L90 782M91 718L58 768M91 718L90 782M91 718L198 751M228 653L264 662M228 653L198 751M264 662L357 671M264 662L291 750M357 671L429 691M429 691L496 710M496 710L561 688M496 710L465 787M496 710L531 729M561 688L664 719M561 688L531 729M561 688L583 789M561 688L649 745M664 719L649 745M664 719L737 760M799 715L805 651M799 715L737 760M799 715L838 735M799 715L849 816M805 651L838 735M953 712L1022 707M953 712L926 754M953 712L981 745M1022 707L1093 669M1022 707L981 745M1022 707L1056 762M1093 669L1164 677M1093 669L1056 762M1093 669L1183 726M1164 677L1267 646M1164 677L1183 726M1267 646L1312 668M1267 646L1183 726M1312 668L1415 643M1415 643L1504 649M1504 649L1541 693M1504 649L1547 747M1541 693L1494 775M1541 693L1547 747M1645 643L1720 641M1720 641L1774 692M1774 692L1861 666M1774 692L1721 725M1774 692L1830 721M1861 666L1830 721M1861 666L1927 732M1981 688L2061 690M1981 688L1902 784M1981 688L1927 732M2061 690L2101 665M2101 665L2171 700M2101 665L2141 742M2171 700L2252 656M2171 700L2141 742M2171 700L2192 783M2252 656L2315 766M2385 685L2434 653M2385 685L2315 766M2385 685L2352 745M2385 685L2442 732M2434 653L2509 685M2434 653L2442 732M2434 653L2485 744M2509 685L2442 732M2509 685L2485 744M58 768L90 782M58 768L48 867M90 782L48 867M90 782L123 872M198 751L291 750M198 751L161 866M291 750L341 783M291 750L307 823M341 783L307 823M341 783L387 848M341 783L404 878M465 787L531 729M465 787L519 848M531 729L583 789M583 789L649 745M583 789L519 848M583 789L607 852M649 745L737 760M649 745L607 852M737 760L838 735M737 760L712 862M838 735L926 754M838 735L849 816M926 754L981 745M926 754L849 816M981 745L1056 762M1056 762L1092 839M1183 726L1230 794M1230 794L1257 812M1230 794L1290 817M1230 794L1209 887M1359 777L1365 788M1359 777L1257 812M1359 777L1290 817M1359 777L1383 831M1365 788L1257 812M1365 788L1290 817M1365 788L1383 831M1365 788L1447 866M1494 775L1547 747M1494 775L1447 866M1547 747L1644 779M1644 779L1721 725M1644 779L1573 867M1644 779L1664 827M1644 779L1691 861M1721 725L1766 805M1830 721L1902 784M1830 721L1927 732M1830 721L1766 805M1902 784L1927 732M1902 784L1875 860M1902 784L1995 838M2066 794L2141 742M2066 794L1995 838M2066 794L2056 850M2066 794L2117 819M2066 794L2078 887M2141 742L2192 783M2192 783L2117 819M2192 783L2173 854M2192 783L2215 882M2315 766L2352 745M2315 766L2314 838M2315 766L2389 800M2352 745L2389 800M2352 745L2430 807M2442 732L2485 744M2442 732L2430 807M2485 744L2430 807M2485 744L2500 838M48 867L123 872M48 867L8 887M48 867L128 913M123 872L161 866M123 872L128 913M161 866L128 913M161 866L191 946M161 866L196 964M307 823L387 848M307 823L316 913M387 848L404 878M387 848L316 913M404 878L316 913M404 878L382 944M404 878L459 937M519 848L607 852M519 848L504 935M607 852L712 862M607 852L659 913M712 862L800 837M712 862L659 913M712 862L739 899M800 837L849 816M800 837L739 899M849 816L897 878M897 878L985 875M897 878L847 949M897 878L959 901M897 878L883 966M985 875L1092 839M985 875L959 901M985 875L986 892M985 875L968 972M1092 839L1129 865M1092 839L1090 958M1092 839L1153 889M1129 865L1090 958M1129 865L1153 889M1129 865L1209 887M1257 812L1290 817M1257 812L1209 887M1290 817L1383 831M1383 831L1447 866M1383 831L1363 913M1447 866L1363 913M1447 866L1503 955M1573 867L1664 827M1573 867L1577 954M1573 867L1640 929M1573 867L1542 962M1664 827L1691 861M1664 827L1766 805M1664 827L1640 929M1691 861L1766 805M1691 861L1640 929M1691 861L1754 920M1875 860L1805 950M1875 860L1867 931M1875 860L1937 907M1995 838L2056 850M1995 838L1937 907M2056 850L2117 819M2056 850L2078 887M2056 850L2084 885M2117 819L2173 854M2117 819L2078 887M2173 854L2078 887M2173 854L2084 885M2173 854L2215 882M2314 838L2389 800M2314 838L2215 882M2314 838L2318 928M2314 838L2320 929M2389 800L2430 807M2389 800L2500 838M2430 807L2500 838M2500 838L2568 887M2500 838L2495 918M-60 838L8 887M8 887L-65 918M8 887L-50 962M2568 887L2495 918M2568 887L2510 962M128 913L191 946M128 913L196 964M191 946L196 964M316 913L382 944M316 913L339 993M382 944L459 937M382 944L339 993M382 944L437 1013M459 937L504 935M459 937L437 1013M459 937L515 1008M504 935L563 956M504 935L515 1008M563 956L515 1008M563 956L629 966M563 956L656 987M659 913L739 899M659 913L629 966M659 913L656 987M739 899L745 995M847 949L854 1026M847 949L883 966M959 901L986 892M959 901L968 972M986 892L968 972M1090 958L1153 889M1090 958L1069 1010M1090 958L1155 1001M1153 889L1209 887M1153 889L1155 1001M1209 887L1232 985M1341 928L1363 913M1341 928L1381 974M1363 913L1381 974M1503 955L1577 954M1503 955L1505 1011M1503 955L1542 962M1503 955L1519 1049M1577 954L1640 929M1577 954L1542 962M1577 954L1656 998M1640 929L1656 998M1754 920L1805 950M1805 950L1867 931M1805 950L1811 1023M1805 950L1838 1056M1867 931L1937 907M1867 931L1811 1023M1867 931L1899 1037M2078 887L2084 885M2215 882L2318 928M2215 882L2320 929M2318 928L2320 929M2318 928L2413 923M2318 928L2273 994M2320 929L2413 923M2320 929L2273 994M2413 923L2495 918M2413 923L2386 1022M2413 923L2476 986M2495 918L2476 986M2495 918L2510 962M42 1027L109 1024M42 1027L49 1042M42 1027L137 1048M42 1027L-42 1089M2602 1027L2518 1089M109 1024L49 1042M109 1024L137 1048M109 1024L188 1084M109 1024L92 1131M196 964L275 1036M275 1036L339 993M275 1036L188 1084M275 1036L303 1111M275 1036L301 1138M339 993L381 1058M437 1013L515 1008M437 1013L381 1058M437 1013L407 1082M515 1008L523 1096M629 966L656 987M656 987L745 995M656 987L715 1050M745 995L715 1050M745 995L777 1072M854 1026L883 966M854 1026L837 1086M854 1026L897 1041M883 966L968 972M883 966L897 1041M968 972L975 1061M1069 1010L1155 1001M1069 1010L975 1061M1069 1010L1075 1111M1069 1010L1171 1049M1155 1001L1232 985M1155 1001L1171 1049M1232 985L1283 1029M1232 985L1171 1049M1232 985L1256 1063M1283 1029L1256 1063M1283 1029L1301 1091M1381 974L1411 1056M1505 1011L1542 962M1505 1011L1411 1056M1505 1011L1519 1049M1505 1011L1581 1070M1542 962L1519 1049M1656 998L1713 1027M1656 998L1676 1061M1713 1027L1811 1023M1713 1027L1676 1061M1713 1027L1688 1113M1811 1023L1899 1037M1811 1023L1838 1056M1899 1037L1959 1029M1899 1037L1838 1056M1899 1037L1912 1105M1959 1029L1980 1109M2076 1019L2112 994M2076 1019L2043 1083M2076 1019L2120 1078M2112 994L2193 1023M2193 1023L2273 994M2193 1023L2120 1078M2193 1023L2176 1084M2193 1023L2253 1099M2386 1022L2476 986M2386 1022L2321 1102M2386 1022L2474 1061M2386 1022L2397 1135M2476 986L2510 962M2476 986L2474 1061M49 1042L137 1048M49 1042L-42 1089M49 1042L92 1131M2609 1042L2518 1089M137 1048L188 1084M137 1048L92 1131M188 1084L92 1131M188 1084L217 1165M303 1111L381 1058M303 1111L217 1165M303 1111L301 1138M303 1111L361 1132M381 1058L407 1082M381 1058L361 1132M407 1082L361 1132M407 1082L429 1180M523 1096L566 1088M523 1096L490 1189M523 1096L612 1132M566 1088L612 1132M715 1050L777 1072M715 1050L706 1144M777 1072L837 1086M777 1072L792 1121M777 1072L803 1152M837 1086L897 1041M837 1086L792 1121M837 1086L803 1152M897 1041L975 1061M975 1061L948 1167M975 1061L991 1157M1075 1111L991 1157M1075 1111L1106 1130M1075 1111L1134 1178M1171 1049L1256 1063M1171 1049L1106 1130M1256 1063L1301 1091M1256 1063L1252 1145M1301 1091L1252 1145M1301 1091L1346 1157M1411 1056L1519 1049M1411 1056L1455 1158M1519 1049L1581 1070M1581 1070L1676 1061M1581 1070L1544 1169M1581 1070L1612 1130M1676 1061L1688 1113M1676 1061L1685 1126M1688 1113L1612 1130M1688 1113L1685 1126M1838 1056L1912 1105M1838 1056L1844 1147M1912 1105L1980 1109M1912 1105L1844 1147M1912 1105L1967 1146M1980 1109L2043 1083M1980 1109L1967 1146M1980 1109L2031 1153M2043 1083L2120 1078M2043 1083L2031 1153M2120 1078L2176 1084M2120 1078L2140 1169M2176 1084L2253 1099M2176 1084L2140 1169M2176 1084L2219 1150M2253 1099L2321 1102M2253 1099L2219 1150M2253 1099L2308 1140M2321 1102L2308 1140M2321 1102L2397 1135M2474 1061L2518 1089M2474 1061L2449 1129M2474 1061L2521 1131M2518 1089L2449 1129M2518 1089L2521 1131M38 1184L92 1131M38 1184L-39 1131M38 1184L3 1258M38 1184L101 1255M38 1184L-7 1258M2598 1184L2521 1131M2598 1184L2553 1258M217 1165L301 1138M217 1165L177 1227M301 1138L361 1132M361 1132L429 1180M429 1180L490 1189M429 1180L441 1222M490 1189L441 1222M490 1189L483 1274M490 1189L591 1250M612 1132L706 1144M706 1144L792 1121M706 1144L803 1152M792 1121L803 1152M803 1152L847 1223M948 1167L991 1157M948 1167L847 1223M948 1167L942 1242M948 1167L992 1258M991 1157L942 1242M1106 1130L1134 1178M1106 1130L1188 1212M1134 1178L1081 1257M1134 1178L1188 1212M1134 1178L1223 1212M1252 1145L1346 1157M1252 1145L1188 1212M1252 1145L1223 1212M1346 1157L1381 1170M1346 1157L1455 1158M1381 1170L1455 1158M1381 1170L1384 1264M1381 1170L1443 1230M1455 1158L1544 1169M1455 1158L1443 1230M1544 1169L1612 1130M1544 1169L1443 1230M1544 1169L1545 1239M1612 1130L1685 1126M1612 1130L1666 1226M1685 1126L1666 1226M1685 1126L1734 1205M1776 1164L1844 1147M1776 1164L1734 1205M1776 1164L1837 1233M1844 1147L1837 1233M1844 1147L1922 1212M1967 1146L2031 1153M1967 1146L1911 1224M1967 1146L1922 1212M2031 1153L2049 1213M2140 1169L2219 1150M2140 1169L2049 1213M2140 1169L2164 1219M2219 1150L2308 1140M2219 1150L2164 1219M2308 1140L2397 1135M2308 1140L2347 1236M2397 1135L2449 1129M2449 1129L2521 1131M3 1258L-7 1258M2563 1258L2553 1258M101 1255L177 1227M101 1255L-7 1258M101 1255L63 1329M2661 1255L2553 1258M177 1227L152 1341M304 1266L336 1253M304 1266L280 1329M304 1266L365 1286M304 1266L280 1361M336 1253L280 1329M336 1253L365 1286M336 1253L416 1307M441 1222L483 1274M441 1222L365 1286M441 1222L416 1307M483 1274L416 1307M483 1274L500 1355M483 1274L465 1380M591 1250L667 1279M667 1279L707 1304M667 1279L761 1283M787 1260L847 1223M787 1260L707 1304M787 1260L761 1283M787 1260L843 1344M847 1223L942 1242M847 1223L761 1283M942 1242L992 1258M942 1242L959 1334M992 1258L1081 1257M992 1258L959 1334M992 1258L1021 1331M1081 1257L1092 1329M1188 1212L1223 1212M1188 1212L1190 1288M1223 1212L1294 1277M1223 1212L1190 1288M1294 1277L1384 1264M1294 1277L1190 1288M1294 1277L1223 1328M1294 1277L1285 1313M1384 1264L1443 1230M1384 1264L1401 1346M1384 1264L1477 1304M1443 1230L1477 1304M1545 1239L1666 1226M1545 1239L1560 1311M1666 1226L1734 1205M1666 1226L1664 1280M1734 1205L1664 1280M1837 1233L1911 1224M1837 1233L1922 1212M1837 1233L1841 1297M1911 1224L1922 1212M1911 1224L1841 1297M2049 1213L2095 1252M2049 1213L2068 1296M2095 1252L2164 1219M2095 1252L2068 1296M2095 1252L2115 1322M2164 1219L2115 1322M2164 1219L2206 1296M2310 1263L2347 1236M2310 1263L2206 1296M2310 1263L2242 1310M2310 1263L2378 1282M2310 1263L2325 1370M2347 1236L2422 1261M2347 1236L2378 1282M2347 1236L2412 1292M2422 1261L2378 1282M2422 1261L2412 1292M2422 1261L2502 1353M2422 1261L2404 1362M2553 1258L2502 1353M63 1329L152 1341M63 1329L50 1399M63 1329L141 1375M63 1329L-16 1367M2623 1329L2544 1367M152 1341L221 1329M152 1341L141 1375M221 1329L280 1329M221 1329L141 1375M221 1329L211 1425M221 1329L280 1361M280 1329L365 1286M280 1329L280 1361M365 1286L416 1307M416 1307L465 1380M500 1355L579 1356M500 1355L465 1380M500 1355L500 1406M579 1356L500 1406M579 1356L629 1379M579 1356L673 1395M707 1304L761 1283M707 1304L629 1379M707 1304L673 1395M761 1283L843 1344M843 1344L775 1421M843 1344L814 1395M959 1334L1021 1331M959 1334L959 1403M959 1334L1030 1406M1021 1331L1092 1329M1021 1331L959 1403M1021 1331L1030 1406M1092 1329L1102 1415M1092 1329L1163 1382M1190 1288L1223 1328M1190 1288L1163 1382M1223 1328L1285 1313M1223 1328L1163 1382M1285 1313L1350 1408M1401 1346L1477 1304M1401 1346L1350 1408M1401 1346L1405 1434M1401 1346L1470 1392M1477 1304L1560 1311M1477 1304L1470 1392M1560 1311L1664 1280M1560 1311L1532 1400M1664 1280L1671 1377M1746 1349L1808 1337M1746 1349L1671 1377M1746 1349L1721 1432M1808 1337L1841 1297M1808 1337L1815 1404M1808 1337L1856 1377M1841 1297L1856 1377M1984 1355L2068 1296M1984 1355L1946 1416M1984 1355L2073 1422M2068 1296L2115 1322M2115 1322L2206 1296M2115 1322L2179 1364M2206 1296L2242 1310M2206 1296L2179 1364M2242 1310L2179 1364M2242 1310L2325 1370M2378 1282L2412 1292M2378 1282L2404 1362M2412 1292L2404 1362M2502 1353L2610 1399M2502 1353L2404 1362M2502 1353L2544 1367M-58 1353L50 1399M50 1399L141 1375M50 1399L-16 1367M2610 1399L2544 1367M141 1375L211 1425M280 1361L346 1413M346 1413L465 1380M465 1380L500 1406M629 1379L673 1395M775 1421L814 1395M959 1403L1030 1406M959 1403L1102 1415M1030 1406L1102 1415M1102 1415L1163 1382M1163 1382L1277 1434M1277 1434L1350 1408M1350 1408L1405 1434M1405 1434L1470 1392M1470 1392L1532 1400M1671 1377L1721 1432M1815 1404L1856 1377M1856 1377L1946 1416M2073 1422L2129 1437M2129 1437L2179 1364M2258 1435L2325 1370M2325 1370L2404 1362"/></svg>