<svg xmlns="http://www.w3.org/2000/svg" width="2560" height="1440" fill="#fff"><circle cx="30" cy="75" r="6"/><circle cx="109" cy="38" r="4"/><circle cx="226" cy="43" r="4"/><circle cx="295" cy="70" r="5"/><circle cx="323" cy="43" r="4"/><circle cx="458" cy="57" r="6"/><circle cx="496" cy="20" r="5"/><circle cx="596" cy="45" r="4"/><circle cx="677" cy="33" r="6"/><circle cx="746" cy="60" r="6"/><circle cx="815" cy="5" r="5"/><circle cx="900" cy="71" r="6"/><circle cx="971" cy="41" r="4"/><circle cx="1102" cy="59" r="5"/><circle cx="1148" cy="15" r="6"/><circle cx="1208" cy="20" r="6"/><circle cx="1297" cy="56" r="6"/><circle cx="1376" cy="15" r="6"/><circle cx="1462" cy="65" r="6"/><circle cx="1529" cy="17" r="5"/><circle cx="1631" cy="27" r="5"/><circle cx="1686" cy="69" r="4"/><circle cx="1815" cy="24" r="6"/><circle cx="1907" cy="76" r="5"/><circle cx="1995" cy="68" r="5"/><circle cx="2077" cy="9" r="4"/><circle cx="2115" cy="2" r="6"/><circle cx="2115" cy="1442" r="6"/><circle cx="2221" cy="49" r="5"/><circle cx="2257" cy="59" r="5"/><circle cx="2325" cy="71" r="5"/><circle cx="2476" cy="35" r="5"/><circle cx="2556" cy="49" r="5"/><circle cx="-4" cy="49" r="5"/><circle cx="17" cy="114" r="6"/><circle cx="81" cy="137" r="4"/><circle cx="238" cy="143" r="6"/><circle cx="273" cy="98" r="5"/><circle cx="346" cy="107" r="4"/><circle cx="468" cy="134" r="4"/><circle cx="492" cy="82" r="5"/><circle cx="630" cy="128" r="5"/><circle cx="684" cy="135" r="6"/><circle cx="724" cy="96" r="4"/><circle cx="854" cy="151" r="5"/><circle cx="900" cy="111" r="4"/><circle cx="1016" cy="87" r="6"/><circle cx="1043" cy="138" r="5"/><circle cx="1188" cy="124" r="6"/><circle cx="1229" cy="111" r="6"/><circle cx="1322" cy="108" r="6"/><circle cx="1435" cy="116" r="5"/><circle cx="1520" cy="137" r="6"/><circle cx="1520" cy="111" r="6"/><circle cx="1612" cy="146" r="5"/><circle cx="1680" cy="139" r="5"/><circle cx="1791" cy="116" r="4"/><circle cx="1900" cy="125" r="5"/><circle cx="1978" cy="133" r="5"/><circle cx="2030" cy="134" r="4"/><circle cx="2112" cy="132" r="4"/><circle cx="2184" cy="110" r="5"/><circle cx="2314" cy="121" r="6"/><circle cx="2358" cy="114" r="5"/><circle cx="2419" cy="104" r="6"/><circle cx="2532" cy="125" r="4"/><circle cx="26" cy="173" r="6"/><circle cx="128" cy="181" r="5"/><circle cx="216" cy="163" r="4"/><circle cx="245" cy="229" r="6"/><circle cx="342" cy="182" r="5"/><circle cx="412" cy="202" r="5"/><circle cx="485" cy="220" r="4"/><circle cx="589" cy="220" r="5"/><circle cx="652" cy="167" r="5"/><circle cx="739" cy="164" r="4"/><circle cx="874" cy="202" r="4"/><circle cx="928" cy="175" r="4"/><circle cx="966" cy="234" r="4"/><circle cx="1102" cy="207" r="5"/><circle cx="1188" cy="220" r="4"/><circle cx="1224" cy="182" r="4"/><circle cx="1295" cy="236" r="6"/><circle cx="1412" cy="202" r="4"/><circle cx="1507" cy="194" r="5"/><circle cx="1553" cy="222" r="5"/><circle cx="1659" cy="235" r="5"/><circle cx="1710" cy="174" r="4"/><circle cx="1783" cy="189" r="5"/><circle cx="1912" cy="239" r="5"/><circle cx="1934" cy="167" r="6"/><circle cx="2040" cy="177" r="5"/><circle cx="2138" cy="164" r="5"/><circle cx="2203" cy="232" r="6"/><circle cx="2319" cy="202" r="6"/><circle cx="2351" cy="177" r="4"/><circle cx="2406" cy="226" r="4"/><circle cx="2547" cy="164" r="5"/><circle cx="17" cy="271" r="4"/><circle cx="159" cy="257" r="5"/><circle cx="225" cy="249" r="4"/><circle cx="302" cy="241" r="5"/><circle cx="343" cy="243" r="6"/><circle cx="432" cy="242" r="6"/><circle cx="496" cy="294" r="5"/><circle cx="592" cy="256" r="6"/><circle cx="660" cy="274" r="4"/><circle cx="726" cy="256" r="5"/><circle cx="873" cy="256" r="6"/><circle cx="899" cy="241" r="4"/><circle cx="965" cy="300" r="4"/><circle cx="1076" cy="311" r="6"/><circle cx="1197" cy="298" r="5"/><circle cx="1221" cy="254" r="5"/><circle cx="1346" cy="277" r="5"/><circle cx="1362" cy="313" r="5"/><circle cx="1449" cy="251" r="5"/><circle cx="1542" cy="307" r="4"/><circle cx="1635" cy="257" r="5"/><circle cx="1690" cy="293" r="6"/><circle cx="1766" cy="296" r="6"/><circle cx="1866" cy="263" r="5"/><circle cx="1932" cy="292" r="5"/><circle cx="2067" cy="246" r="4"/><circle cx="2157" cy="268" r="6"/><circle cx="2199" cy="296" r="6"/><circle cx="2251" cy="248" r="5"/><circle cx="2345" cy="242" r="4"/><circle cx="2462" cy="268" r="5"/><circle cx="2548" cy="296" r="4"/><circle cx="80" cy="341" r="4"/><circle cx="105" cy="347" r="4"/><circle cx="188" cy="399" r="4"/><circle cx="243" cy="337" r="4"/><circle cx="337" cy="379" r="5"/><circle cx="402" cy="378" r="4"/><circle cx="534" cy="329" r="5"/><circle cx="627" cy="347" r="5"/><circle cx="673" cy="382" r="5"/><circle cx="784" cy="400" r="4"/><circle cx="879" cy="337" r="5"/><circle cx="894" cy="349" r="6"/><circle cx="968" cy="346" r="5"/><circle cx="1064" cy="382" r="5"/><circle cx="1123" cy="371" r="4"/><circle cx="1214" cy="338" r="6"/><circle cx="1282" cy="387" r="5"/><circle cx="1418" cy="372" r="6"/><circle cx="1448" cy="375" r="4"/><circle cx="1560" cy="325" r="5"/><circle cx="1633" cy="323" r="5"/><circle cx="1717" cy="333" r="4"/><circle cx="1765" cy="370" r="5"/><circle cx="1891" cy="380" r="4"/><circle cx="1933" cy="345" r="5"/><circle cx="2005" cy="358" r="5"/><circle cx="2095" cy="387" r="5"/><circle cx="2200" cy="322" r="6"/><circle cx="2265" cy="361" r="6"/><circle cx="2324" cy="321" r="5"/><circle cx="2415" cy="343" r="4"/><circle cx="2517" cy="359" r="6"/><circle cx="50" cy="447" r="5"/><circle cx="129" cy="461" r="6"/><circle cx="239" cy="463" r="6"/><circle cx="281" cy="401" r="5"/><circle cx="353" cy="454" r="6"/><circle cx="435" cy="470" r="5"/><circle cx="508" cy="440" r="5"/><circle cx="617" cy="447" r="5"/><circle cx="641" cy="413" r="5"/><circle cx="793" cy="419" r="4"/><circle cx="874" cy="447" r="6"/><circle cx="894" cy="459" r="5"/><circle cx="1030" cy="465" r="6"/><circle cx="1054" cy="422" r="4"/><circle cx="1161" cy="438" r="5"/><circle cx="1254" cy="420" r="5"/><circle cx="1328" cy="457" r="6"/><circle cx="1439" cy="411" r="6"/><circle cx="1481" cy="445" r="4"/><circle cx="1553" cy="405" r="4"/><circle cx="1643" cy="464" r="6"/><circle cx="1732" cy="437" r="5"/><circle cx="1833" cy="424" r="6"/><circle cx="1884" cy="423" r="5"/><circle cx="1963" cy="430" r="5"/><circle cx="2042" cy="404" r="5"/><circle cx="2113" cy="423" r="5"/><circle cx="2187" cy="411" r="4"/><circle cx="2312" cy="409" r="5"/><circle cx="2338" cy="475" r="6"/><circle cx="2442" cy="473" r="5"/><circle cx="2494" cy="440" r="4"/><circle cx="8" cy="510" r="5"/><circle cx="135" cy="502" r="6"/><circle cx="225" cy="541" r="4"/><circle cx="268" cy="557" r="6"/><circle cx="389" cy="505" r="5"/><circle cx="414" cy="553" r="6"/><circle cx="521" cy="540" r="5"/><circle cx="584" cy="511" r="4"/><circle cx="692" cy="480" r="6"/><circle cx="799" cy="541" r="5"/><circle cx="842" cy="547" r="5"/><circle cx="906" cy="492" r="5"/><circle cx="1034" cy="549" r="5"/><circle cx="1096" cy="506" r="5"/><circle cx="1171" cy="551" r="5"/><circle cx="1250" cy="539" r="5"/><circle cx="1359" cy="543" r="5"/><circle cx="1365" cy="525" r="5"/><circle cx="1468" cy="498" r="4"/><circle cx="1573" cy="509" r="5"/><circle cx="1602" cy="558" r="5"/><circle cx="1714" cy="499" r="5"/><circle cx="1819" cy="555" r="5"/><circle cx="1906" cy="538" r="5"/><circle cx="1963" cy="518" r="6"/><circle cx="2035" cy="539" r="6"/><circle cx="2123" cy="550" r="5"/><circle cx="2183" cy="547" r="4"/><circle cx="2277" cy="551" r="5"/><circle cx="2396" cy="513" r="5"/><circle cx="2418" cy="548" r="5"/><circle cx="2531" cy="542" r="5"/><circle cx="52" cy="566" r="4"/><circle cx="98" cy="590" r="5"/><circle cx="194" cy="562" r="5"/><circle cx="314" cy="604" r="4"/><circle cx="352" cy="587" r="5"/><circle cx="417" cy="568" r="5"/><circle cx="494" cy="637" r="4"/><circle cx="569" cy="630" r="5"/><circle cx="711" cy="638" r="5"/><circle cx="782" cy="604" r="6"/><circle cx="874" cy="612" r="4"/><circle cx="930" cy="590" r="6"/><circle cx="1031" cy="626" r="4"/><circle cx="1110" cy="627" r="6"/><circle cx="1122" cy="623" r="6"/><circle cx="1277" cy="608" r="5"/><circle cx="1301" cy="573" r="4"/><circle cx="1383" cy="571" r="5"/><circle cx="1511" cy="624" r="5"/><circle cx="1576" cy="580" r="5"/><circle cx="1620" cy="634" r="4"/><circle cx="1698" cy="564" r="5"/><circle cx="1787" cy="605" r="4"/><circle cx="1913" cy="596" r="5"/><circle cx="1970" cy="565" r="6"/><circle cx="2069" cy="579" r="4"/><circle cx="2139" cy="586" r="4"/><circle cx="2184" cy="605" r="5"/><circle cx="2241" cy="613" r="4"/><circle cx="2376" cy="570" r="4"/><circle cx="2456" cy="578" r="4"/><circle cx="2528" cy="568" r="6"/><circle cx="54" cy="700" r="4"/><circle cx="123" cy="717" r="5"/><circle cx="165" cy="649" r="5"/><circle cx="250" cy="645" r="6"/><circle cx="325" cy="642" r="5"/><circle cx="443" cy="671" r="6"/><circle cx="499" cy="641" r="5"/><circle cx="607" cy="712" r="5"/><circle cx="645" cy="685" r="5"/><circle cx="778" cy="705" r="6"/><circle cx="879" cy="642" r="4"/><circle cx="887" cy="681" r="4"/><circle cx="986" cy="675" r="5"/><circle cx="1059" cy="666" r="5"/><circle cx="1152" cy="703" r="5"/><circle cx="1216" cy="659" r="5"/><circle cx="1306" cy="712" r="5"/><circle cx="1367" cy="718" r="4"/><circle cx="1483" cy="711" r="5"/><circle cx="1575" cy="668" r="5"/><circle cx="1619" cy="693" r="5"/><circle cx="1725" cy="648" r="6"/><circle cx="1829" cy="676" r="4"/><circle cx="1882" cy="641" r="6"/><circle cx="1979" cy="670" r="4"/><circle cx="2062" cy="706" r="5"/><circle cx="2147" cy="697" r="4"/><circle cx="2173" cy="679" r="5"/><circle cx="2247" cy="659" r="4"/><circle cx="2338" cy="648" r="4"/><circle cx="2411" cy="680" r="5"/><circle cx="2494" cy="649" r="6"/><circle cx="34" cy="735" r="5"/><circle cx="108" cy="757" r="6"/><circle cx="205" cy="776" r="5"/><circle cx="280" cy="753" r="4"/><circle cx="323" cy="749" r="6"/><circle cx="448" cy="760" r="4"/><circle cx="481" cy="788" r="6"/><circle cx="562" cy="763" r="5"/><circle cx="654" cy="742" r="5"/><circle cx="759" cy="799" r="4"/><circle cx="828" cy="732" r="5"/><circle cx="895" cy="771" r="5"/><circle cx="990" cy="749" r="5"/><circle cx="1042" cy="772" r="4"/><circle cx="1134" cy="723" r="6"/><circle cx="1254" cy="757" r="5"/><circle cx="1342" cy="730" r="6"/><circle cx="1367" cy="731" r="5"/><circle cx="1495" cy="783" r="5"/><circle cx="1565" cy="766" r="5"/><circle cx="1631" cy="775" r="5"/><circle cx="1688" cy="757" r="6"/><circle cx="1803" cy="791" r="6"/><circle cx="1858" cy="722" r="5"/><circle cx="1949" cy="731" r="4"/><circle cx="2002" cy="794" r="4"/><circle cx="2094" cy="738" r="4"/><circle cx="2225" cy="760" r="5"/><circle cx="2284" cy="751" r="5"/><circle cx="2379" cy="772" r="4"/><circle cx="2459" cy="783" r="4"/><circle cx="2534" cy="743" r="6"/><circle cx="75" cy="867" r="4"/><circle cx="103" cy="866" r="4"/><circle cx="213" cy="815" r="5"/><circle cx="243" cy="843" r="5"/><circle cx="351" cy="848" r="5"/><circle cx="400" cy="876" r="4"/><circle cx="491" cy="812" r="5"/><circle cx="621" cy="815" r="5"/><circle cx="659" cy="855" r="5"/><circle cx="730" cy="827" r="5"/><circle cx="874" cy="868" r="6"/><circle cx="880" cy="839" r="6"/><circle cx="1037" cy="813" r="6"/><circle cx="1071" cy="828" r="4"/><circle cx="1142" cy="849" r="4"/><circle cx="1273" cy="800" r="6"/><circle cx="1296" cy="875" r="5"/><circle cx="1388" cy="874" r="4"/><circle cx="1510" cy="815" r="5"/><circle cx="1583" cy="813" r="5"/><circle cx="1614" cy="844" r="4"/><circle cx="1721" cy="801" r="5"/><circle cx="1772" cy="866" r="5"/><circle cx="1896" cy="871" r="4"/><circle cx="1945" cy="867" r="5"/><circle cx="2025" cy="868" r="4"/><circle cx="2131" cy="877" r="6"/><circle cx="2179" cy="878" r="5"/><circle cx="2307" cy="848" r="5"/><circle cx="2320" cy="868" r="5"/><circle cx="2444" cy="800" r="6"/><circle cx="2516" cy="855" r="4"/><circle cx="69" cy="958" r="5"/><circle cx="149" cy="955" r="4"/><circle cx="226" cy="913" r="5"/><circle cx="293" cy="952" r="5"/><circle cx="330" cy="935" r="6"/><circle cx="430" cy="913" r="5"/><circle cx="520" cy="907" r="5"/><circle cx="592" cy="946" r="6"/><circle cx="717" cy="907" r="5"/><circle cx="772" cy="925" r="5"/><circle cx="806" cy="953" r="5"/><circle cx="922" cy="957" r="4"/><circle cx="1031" cy="894" r="5"/><circle cx="1068" cy="952" r="5"/><circle cx="1127" cy="922" r="6"/><circle cx="1274" cy="911" r="5"/><circle cx="1338" cy="934" r="4"/><circle cx="1420" cy="950" r="5"/><circle cx="1476" cy="901" r="6"/><circle cx="1521" cy="945" r="4"/><circle cx="1616" cy="947" r="4"/><circle cx="1717" cy="897" r="6"/><circle cx="1800" cy="902" r="5"/><circle cx="1908" cy="904" r="4"/><circle cx="1956" cy="925" r="5"/><circle cx="2060" cy="942" r="5"/><circle cx="2096" cy="931" r="6"/><circle cx="2210" cy="920" r="4"/><circle cx="2279" cy="929" r="5"/><circle cx="2331" cy="895" r="6"/><circle cx="2404" cy="897" r="6"/><circle cx="2550" cy="950" r="4"/><circle cx="69" cy="966" r="4"/><circle cx="132" cy="1018" r="5"/><circle cx="224" cy="976" r="6"/><circle cx="257" cy="1015" r="4"/><circle cx="400" cy="1004" r="6"/><circle cx="406" cy="1027" r="5"/><circle cx="523" cy="979" r="5"/><circle cx="580" cy="989" r="5"/><circle cx="664" cy="1031" r="6"/><circle cx="792" cy="1034" r="5"/><circle cx="827" cy="983" r="5"/><circle cx="944" cy="994" r="5"/><circle cx="991" cy="980" r="6"/><circle cx="1113" cy="1034" r="5"/><circle cx="1182" cy="1000" r="6"/><circle cx="1217" cy="1012" r="5"/><circle cx="1327" cy="1037" r="5"/><circle cx="1374" cy="993" r="5"/><circle cx="1516" cy="1002" r="4"/><circle cx="1551" cy="1032" r="5"/><circle cx="1603" cy="1023" r="5"/><circle cx="1747" cy="977" r="4"/><circle cx="1770" cy="1000" r="5"/><circle cx="1877" cy="1005" r="5"/><circle cx="1976" cy="989" r="5"/><circle cx="2013" cy="1029" r="5"/><circle cx="2125" cy="990" r="6"/><circle cx="2198" cy="969" r="5"/><circle cx="2318" cy="1040" r="4"/><circle cx="2392" cy="1038" r="5"/><circle cx="2420" cy="989" r="6"/><circle cx="2518" cy="1005" r="4"/><circle cx="76" cy="1049" r="6"/><circle cx="136" cy="1098" r="6"/><circle cx="219" cy="1087" r="5"/><circle cx="243" cy="1072" r="5"/><circle cx="330" cy="1078" r="5"/><circle cx="464" cy="1119" r="6"/><circle cx="518" cy="1061" r="5"/><circle cx="605" cy="1067" r="4"/><circle cx="668" cy="1091" r="5"/><circle cx="782" cy="1111" r="5"/><circle cx="838" cy="1057" r="4"/><circle cx="925" cy="1104" r="5"/><circle cx="1019" cy="1099" r="5"/><circle cx="1053" cy="1049" r="5"/><circle cx="1195" cy="1119" r="5"/><circle cx="1263" cy="1102" r="5"/><circle cx="1357" cy="1118" r="5"/><circle cx="1418" cy="1098" r="6"/><circle cx="1479" cy="1051" r="4"/><circle cx="1551" cy="1043" r="5"/><circle cx="1671" cy="1111" r="4"/><circle cx="1752" cy="1116" r="6"/><circle cx="1792" cy="1117" r="5"/><circle cx="1898" cy="1054" r="5"/><circle cx="1981" cy="1067" r="5"/><circle cx="2053" cy="1041" r="6"/><circle cx="2093" cy="1061" r="4"/><circle cx="2220" cy="1048" r="4"/><circle cx="2269" cy="1045" r="6"/><circle cx="2361" cy="1043" r="6"/><circle cx="2433" cy="1061" r="5"/><circle cx="2550" cy="1043" r="4"/><circle cx="68" cy="1200" r="5"/><circle cx="133" cy="1157" r="5"/><circle cx="193" cy="1122" r="4"/><circle cx="285" cy="1179" r="5"/><circle cx="323" cy="1139" r="5"/><circle cx="422" cy="1151" r="4"/><circle cx="499" cy="1173" r="6"/><circle cx="573" cy="1153" r="4"/><circle cx="703" cy="1186" r="4"/><circle cx="793" cy="1139" r="5"/><circle cx="800" cy="1162" r="6"/><circle cx="886" cy="1157" r="6"/><circle cx="1030" cy="1158" r="4"/><circle cx="1093" cy="1191" r="5"/><circle cx="1192" cy="1181" r="4"/><circle cx="1260" cy="1141" r="6"/><circle cx="1317" cy="1184" r="5"/><circle cx="1426" cy="1192" r="6"/><circle cx="1494" cy="1137" r="5"/><circle cx="1578" cy="1123" r="6"/><circle cx="1677" cy="1187" r="4"/><circle cx="1683" cy="1155" r="5"/><circle cx="1770" cy="1139" r="4"/><circle cx="1854" cy="1179" r="4"/><circle cx="1954" cy="1157" r="5"/><circle cx="2047" cy="1124" r="5"/><circle cx="2153" cy="1178" r="5"/><circle cx="2238" cy="1135" r="4"/><circle cx="2285" cy="1193" r="5"/><circle cx="2339" cy="1131" r="4"/><circle cx="2443" cy="1147" r="5"/><circle cx="2508" cy="1125" r="5"/><circle cx="6" cy="1219" r="6"/><circle cx="139" cy="1269" r="5"/><circle cx="234" cy="1206" r="4"/><circle cx="259" cy="1216" r="4"/><circle cx="337" cy="1249" r="4"/><circle cx="479" cy="1268" r="5"/><circle cx="548" cy="1279" r="6"/><circle cx="616" cy="1253" r="5"/><circle cx="707" cy="1233" r="6"/><circle cx="737" cy="1203" r="5"/><circle cx="863" cy="1223" r="5"/><circle cx="938" cy="1201" r="5"/><circle cx="1002" cy="1224" r="5"/><circle cx="1106" cy="1264" r="5"/><circle cx="1131" cy="1242" r="5"/><circle cx="1225" cy="1278" r="4"/><circle cx="1294" cy="1275" r="5"/><circle cx="1379" cy="1244" r="5"/><circle cx="1471" cy="1260" r="5"/><circle cx="1531" cy="1244" r="5"/><circle cx="1666" cy="1277" r="6"/><circle cx="1720" cy="1217" r="6"/><circle cx="1833" cy="1253" r="6"/><circle cx="1902" cy="1242" r="5"/><circle cx="1970" cy="1206" r="4"/><circle cx="2035" cy="1203" r="5"/><circle cx="2152" cy="1233" r="5"/><circle cx="2238" cy="1230" r="5"/><circle cx="2253" cy="1262" r="5"/><circle cx="2363" cy="1231" r="5"/><circle cx="2444" cy="1249" r="6"/><circle cx="2516" cy="1223" r="5"/><circle cx="31" cy="1289" r="4"/><circle cx="137" cy="1321" r="5"/><circle cx="220" cy="1357" r="5"/><circle cx="277" cy="1295" r="6"/><circle cx="333" cy="1335" r="5"/><circle cx="466" cy="1339" r="6"/><circle cx="484" cy="1332" r="6"/><circle cx="606" cy="1327" r="6"/><circle cx="671" cy="1299" r="4"/><circle cx="734" cy="1341" r="6"/><circle cx="863" cy="1293" r="6"/><circle cx="935" cy="1346" r="5"/><circle cx="1011" cy="1345" r="5"/><circle cx="1083" cy="1357" r="5"/><circle cx="1197" cy="1289" r="6"/><circle cx="1236" cy="1318" r="5"/><circle cx="1335" cy="1346" r="4"/><circle cx="1439" cy="1328" r="5"/><circle cx="1514" cy="1331" r="4"/><circle cx="1577" cy="1347" r="6"/><circle cx="1634" cy="1304" r="5"/><circle cx="1713" cy="1321" r="4"/><circle cx="1798" cy="1319" r="5"/><circle cx="1856" cy="1350" r="6"/><circle cx="1946" cy="1314" r="5"/><circle cx="2024" cy="1304" r="5"/><circle cx="2158" cy="1315" r="5"/><circle cx="2240" cy="1296" r="5"/><circle cx="2296" cy="1336" r="5"/><circle cx="2398" cy="1292" r="6"/><circle cx="2404" cy="1342" r="5"/><circle cx="2538" cy="1320" r="5"/><circle cx="75" cy="1397" r="5"/><circle cx="99" cy="1432" r="4"/><circle cx="180" cy="1419" r="4"/><circle cx="313" cy="1386" r="4"/><circle cx="345" cy="1371" r="4"/><circle cx="477" cy="1409" r="4"/><circle cx="531" cy="1438" r="5"/><circle cx="531" cy="-2" r="5"/><circle cx="613" cy="1388" r="6"/><circle cx="647" cy="1389" r="5"/><circle cx="736" cy="1426" r="6"/><circle cx="879" cy="1416" r="5"/><circle cx="891" cy="1436" r="5"/><circle cx="891" cy="-4" r="5"/><circle cx="974" cy="1412" r="4"/><circle cx="1056" cy="1435" r="4"/><circle cx="1195" cy="1429" r="4"/><circle cx="1213" cy="1417" r="5"/><circle cx="1345" cy="1385" r="6"/><circle cx="1418" cy="1395" r="6"/><circle cx="1484" cy="1429" r="6"/><circle cx="1571" cy="1376" r="5"/><circle cx="1613" cy="1376" r="4"/><circle cx="1734" cy="1439" r="5"/><circle cx="1734" cy="-1" r="5"/><circle cx="1840" cy="1382" r="5"/><circle cx="1888" cy="1434" r="4"/><circle cx="1959" cy="1385" r="5"/><circle cx="2021" cy="1397" r="6"/><circle cx="2138" cy="1389" r="6"/><circle cx="2194" cy="1394" r="6"/><circle cx="2311" cy="1424" r="5"/><circle cx="2320" cy="1377" r="4"/><circle cx="2445" cy="1440" r="5"/><circle cx="2445" cy="-0" r="5"/><circle cx="2546" cy="1363" r="6"/><path stroke="#fff" d="M30 75L-4 49M30 75L17 114M30 75L81 137M30 75L-28 125M30 75L26 173M2590 75L2556 49M2590 75L2532 125M109 38L75 -43M109 38L99 -8M109 38L180 -21M109 1478L75 1397M109 1478L99 1432M109 1478L180 1419M226 43L295 70M226 43L323 43M226 43L238 143M226 43L273 98M226 43L180 -21M226 1483L180 1419M295 70L323 43M295 70L238 143M295 70L273 98M295 70L346 107M323 43L273 98M323 43L346 107M323 43L313 -54M323 1483L313 1386M458 57L496 20M458 57L468 134M458 57L492 82M458 57L477 -31M458 57L531 -2M458 1497L477 1409M458 1497L531 1438M496 20L596 45M496 20L492 82M496 20L477 -31M496 20L531 -2M496 1460L477 1409M496 1460L531 1438M596 45L677 33M596 45L630 128M596 45L531 -2M596 45L613 -52M596 1485L531 1438M596 1485L613 1388M677 33L746 60M677 33L724 96M677 33L647 -51M677 33L736 -14M677 1473L647 1389M677 1473L736 1426M746 60L815 5M746 60L684 135M746 60L724 96M746 60L736 -14M746 1500L736 1426M815 5L736 -14M815 5L879 -24M815 5L891 -4M815 1445L736 1426M815 1445L879 1416M815 1445L891 1436M900 71L971 41M900 71L854 151M900 71L900 111M900 71L879 -24M900 71L891 -4M900 1511L879 1416M900 1511L891 1436M971 41L1016 87M971 41L891 -4M971 41L974 -28M971 1481L891 1436M971 1481L974 1412M1102 59L1148 15M1102 59L1016 87M1102 59L1043 138M1102 59L1188 124M1102 59L1056 -5M1102 1499L1056 1435M1148 15L1208 20M1148 15L1056 -5M1148 15L1195 -11M1148 15L1213 -23M1148 1455L1056 1435M1148 1455L1195 1429M1148 1455L1213 1417M1208 20L1297 56M1208 20L1229 111M1208 20L1195 -11M1208 20L1213 -23M1208 1460L1195 1429M1208 1460L1213 1417M1297 56L1376 15M1297 56L1229 111M1297 56L1322 108M1297 56L1345 -55M1297 1496L1345 1385M1376 15L1322 108M1376 15L1345 -55M1376 15L1418 -45M1376 1455L1345 1385M1376 1455L1418 1395M1462 65L1529 17M1462 65L1435 116M1462 65L1520 137M1462 65L1520 111M1462 65L1484 -11M1462 1505L1484 1429M1529 17L1631 27M1529 17L1520 111M1529 17L1484 -11M1529 17L1571 -64M1529 1457L1484 1429M1529 1457L1571 1376M1631 27L1686 69M1631 27L1613 -64M1631 27L1734 -1M1631 1467L1613 1376M1631 1467L1734 1439M1686 69L1680 139M1686 69L1734 -1M1686 1509L1734 1439M1815 24L1791 116M1815 24L1734 -1M1815 24L1840 -58M1815 24L1888 -6M1815 1464L1734 1439M1815 1464L1840 1382M1815 1464L1888 1434M1907 76L1995 68M1907 76L1900 125M1907 76L1934 167M1907 76L1888 -6M1907 1516L1888 1434M1995 68L1978 133M1995 68L2030 134M1995 68L1934 167M2077 9L2115 2M2077 9L2021 -43M2077 9L2138 -51M2077 1449L2021 1397M2077 1449L2138 1389M2115 2L2021 -43M2115 2L2138 -51M2115 2L2194 -46M2115 1442L2021 1397M2115 1442L2138 1389M2115 1442L2194 1394M2221 49L2257 59M2221 49L2184 110M2221 49L2194 -46M2221 1489L2194 1394M2257 59L2325 71M2257 59L2184 110M2257 59L2314 121M2257 59L2311 -16M2257 1499L2311 1424M2325 71L2314 121M2325 71L2358 114M2325 71L2419 104M2325 71L2311 -16M2325 1511L2311 1424M2476 35L2556 49M2476 35L2419 104M2476 35L2445 -0M2476 1475L2445 1440M2556 49L2577 114M2556 49L2532 125M2556 49L2546 -77M-4 49L17 114M2556 1489L2546 1363M17 114L-28 125M17 114L26 173M17 114L-13 164M2577 114L2532 125M2577 114L2547 164M81 137L26 173M81 137L128 181M81 137L-13 164M2641 137L2547 164M238 143L273 98M238 143L216 163M238 143L245 229M273 98L346 107M346 107L342 182M468 134L492 82M468 134L412 202M468 134L485 220M630 128L684 135M630 128L724 96M630 128L589 220M630 128L652 167M684 135L724 96M684 135L652 167M684 135L739 164M724 96L739 164M854 151L900 111M854 151L874 202M854 151L928 175M900 111L1016 87M900 111L874 202M900 111L928 175M1016 87L1043 138M1016 87L1056 -5M1016 1527L1056 1435M1043 138L1102 207M1188 124L1229 111M1188 124L1102 207M1188 124L1188 220M1188 124L1224 182M1229 111L1322 108M1229 111L1224 182M1322 108L1435 116M1435 116L1520 137M1435 116L1520 111M1435 116L1412 202M1520 137L1520 111M1520 137L1507 194M1520 137L1553 222M1520 111L1507 194M1612 146L1680 139M1612 146L1553 222M1612 146L1710 174M1680 139L1659 235M1680 139L1710 174M1680 139L1783 189M1791 116L1900 125M1791 116L1783 189M1900 125L1978 133M1900 125L1912 239M1900 125L1934 167M1978 133L2030 134M1978 133L1934 167M1978 133L2040 177M2030 134L2112 132M2030 134L2040 177M2112 132L2184 110M2112 132L2040 177M2112 132L2138 164M2184 110L2138 164M2314 121L2358 114M2314 121L2319 202M2314 121L2351 177M2358 114L2419 104M2358 114L2351 177M2419 104L2445 -0M2419 1544L2445 1440M2532 125L2586 173M2532 125L2547 164M-28 125L26 173M26 173L-13 164M2586 173L2547 164M128 181L216 163M128 181L159 257M216 163L245 229M216 163L159 257M216 163L225 249M245 229L159 257M245 229L225 249M245 229L302 241M342 182L412 202M342 182L302 241M342 182L343 243M342 182L432 242M412 202L485 220M412 202L343 243M412 202L432 242M485 220L432 242M485 220L496 294M589 220L652 167M589 220L496 294M589 220L592 256M589 220L660 274M652 167L739 164M739 164L726 256M874 202L928 175M874 202L873 256M874 202L899 241M928 175L966 234M928 175L899 241M966 234L873 256M966 234L899 241M966 234L965 300M1102 207L1188 220M1102 207L1076 311M1188 220L1224 182M1188 220L1197 298M1188 220L1221 254M1224 182L1295 236M1224 182L1221 254M1295 236L1197 298M1295 236L1221 254M1295 236L1346 277M1295 236L1362 313M1412 202L1507 194M1412 202L1346 277M1412 202L1449 251M1507 194L1553 222M1507 194L1449 251M1553 222L1542 307M1553 222L1635 257M1659 235L1710 174M1659 235L1635 257M1659 235L1690 293M1659 235L1633 323M1710 174L1783 189M1783 189L1766 296M1783 189L1866 263M1912 239L1934 167M1912 239L1866 263M1912 239L1932 292M2040 177L2138 164M2040 177L2067 246M2138 164L2203 232M2203 232L2157 268M2203 232L2199 296M2203 232L2251 248M2203 232L2200 322M2319 202L2351 177M2319 202L2406 226M2319 202L2251 248M2319 202L2345 242M2351 177L2406 226M2351 177L2345 242M2406 226L2345 242M2406 226L2462 268M2406 226L2324 321M2547 164L2577 271M-13 164L17 271M17 271L-98 268M17 271L-12 296M17 271L80 341M17 271L-43 359M2577 271L2462 268M2577 271L2548 296M2577 271L2517 359M159 257L225 249M159 257L105 347M225 249L302 241M225 249L243 337M302 241L343 243M343 243L432 242M432 242L496 294M496 294L592 256M496 294L534 329M592 256L660 274M592 256L534 329M592 256L627 347M660 274L726 256M660 274L627 347M660 274L673 382M873 256L899 241M873 256L879 337M873 256L894 349M899 241L965 300M965 300L879 337M965 300L894 349M965 300L968 346M1076 311L1197 298M1076 311L968 346M1076 311L1064 382M1076 311L1123 371M1197 298L1221 254M1197 298L1214 338M1221 254L1214 338M1346 277L1362 313M1346 277L1449 251M1346 277L1418 372M1362 313L1449 251M1362 313L1282 387M1362 313L1418 372M1542 307L1560 325M1542 307L1553 405M1635 257L1690 293M1635 257L1560 325M1635 257L1633 323M1690 293L1766 296M1690 293L1633 323M1690 293L1717 333M1766 296L1866 263M1766 296L1717 333M1766 296L1765 370M1866 263L1932 292M1932 292L1891 380M1932 292L1933 345M1932 292L2005 358M2067 246L2157 268M2157 268L2199 296M2157 268L2251 248M2157 268L2200 322M2199 296L2251 248M2199 296L2200 322M2199 296L2265 361M2251 248L2200 322M2345 242L2324 321M2462 268L2548 296M2462 268L2415 343M2462 268L2517 359M2548 296L2640 341M2548 296L2517 359M-12 296L80 341M80 341L105 347M80 341L50 447M188 399L243 337M188 399L129 461M188 399L239 463M188 399L281 401M243 337L337 379M243 337L281 401M337 379L402 378M337 379L281 401M337 379L353 454M402 378L353 454M534 329L627 347M534 329L508 440M627 347L673 382M627 347L641 413M673 382L617 447M673 382L641 413M673 382L692 480M784 400L793 419M879 337L894 349M879 337L968 346M894 349L968 346M894 349L874 447M968 346L1064 382M1064 382L1123 371M1064 382L1030 465M1064 382L1054 422M1123 371L1214 338M1123 371L1054 422M1123 371L1161 438M1214 338L1282 387M1214 338L1254 420M1282 387L1254 420M1282 387L1328 457M1418 372L1448 375M1418 372L1439 411M1418 372L1481 445M1448 375L1560 325M1448 375L1439 411M1448 375L1481 445M1560 325L1633 323M1560 325L1553 405M1633 323L1717 333M1717 333L1765 370M1717 333L1732 437M1765 370L1732 437M1765 370L1833 424M1891 380L1933 345M1891 380L1833 424M1891 380L1884 423M1933 345L2005 358M1933 345L1884 423M1933 345L1963 430M2005 358L2095 387M2005 358L1963 430M2005 358L2042 404M2095 387L2042 404M2095 387L2113 423M2095 387L2187 411M2200 322L2265 361M2265 361L2324 321M2265 361L2187 411M2265 361L2312 409M2324 321L2415 343M2324 321L2312 409M2415 343L2517 359M2415 343L2312 409M2517 359L2494 440M50 447L129 461M50 447L-66 440M50 447L8 510M50 447L135 502M2610 447L2494 440M129 461L239 463M129 461L135 502M239 463L281 401M239 463L225 541M281 401L353 454M353 454L435 470M353 454L389 505M435 470L508 440M435 470L389 505M435 470L414 553M435 470L417 568M508 440L617 447M508 440L521 540M508 440L584 511M617 447L641 413M617 447L584 511M617 447L692 480M641 413L584 511M641 413L692 480M793 419L874 447M793 419L894 459M874 447L894 459M874 447L906 492M894 459L906 492M1030 465L1054 422M1030 465L906 492M1030 465L1034 549M1030 465L1096 506M1054 422L1161 438M1054 422L1096 506M1161 438L1254 420M1161 438L1096 506M1161 438L1171 551M1254 420L1328 457M1328 457L1439 411M1328 457L1359 543M1328 457L1365 525M1439 411L1481 445M1439 411L1468 498M1481 445L1553 405M1481 445L1468 498M1553 405L1573 509M1643 464L1732 437M1643 464L1573 509M1643 464L1602 558M1643 464L1714 499M1643 464L1698 564M1732 437L1833 424M1732 437L1714 499M1833 424L1884 423M1884 423L1963 430M1963 430L2042 404M1963 430L1963 518M2042 404L2113 423M2113 423L2187 411M2187 411L2312 409M2312 409L2338 475M2338 475L2442 473M2338 475L2277 551M2338 475L2396 513M2338 475L2418 548M2442 473L2494 440M2442 473L2396 513M2442 473L2418 548M2494 440L2568 510M-66 440L8 510M8 510L-29 542M8 510L52 566M8 510L-32 568M2568 510L2531 542M2568 510L2528 568M135 502L225 541M135 502L98 590M135 502L194 562M225 541L268 557M225 541L194 562M268 557L194 562M268 557L314 604M268 557L352 587M268 557L250 645M389 505L414 553M389 505L417 568M414 553L521 540M414 553L352 587M414 553L417 568M521 540L584 511M521 540L499 641M584 511L692 480M692 480L799 541M799 541L842 547M799 541L782 604M842 547L906 492M842 547L782 604M842 547L874 612M842 547L930 590M906 492L930 590M1034 549L1096 506M1034 549L1031 626M1096 506L1171 551M1171 551L1250 539M1171 551L1122 623M1250 539L1277 608M1250 539L1301 573M1359 543L1365 525M1359 543L1277 608M1359 543L1301 573M1359 543L1383 571M1365 525L1468 498M1365 525L1301 573M1365 525L1383 571M1468 498L1573 509M1468 498L1383 571M1573 509L1602 558M1573 509L1576 580M1602 558L1576 580M1602 558L1620 634M1602 558L1698 564M1714 499L1698 564M1819 555L1906 538M1819 555L1787 605M1906 538L1963 518M1906 538L1913 596M1906 538L1970 565M1963 518L2035 539M1963 518L1913 596M1963 518L1970 565M2035 539L2123 550M2035 539L1970 565M2035 539L2069 579M2123 550L2183 547M2123 550L2069 579M2123 550L2139 586M2123 550L2184 605M2183 547L2277 551M2183 547L2139 586M2183 547L2184 605M2183 547L2241 613M2277 551L2241 613M2277 551L2376 570M2396 513L2418 548M2396 513L2376 570M2418 548L2376 570M2418 548L2456 578M2531 542L2612 566M2531 542L2456 578M2531 542L2528 568M2531 542L2494 649M-29 542L52 566M52 566L98 590M52 566L-32 568M2612 566L2528 568M98 590L165 649M194 562L165 649M194 562L250 645M314 604L352 587M314 604L250 645M314 604L325 642M352 587L417 568M352 587L325 642M417 568L443 671M494 637L569 630M494 637L443 671M494 637L499 641M569 630L499 641M569 630L607 712M569 630L645 685M711 638L782 604M711 638L645 685M711 638L778 705M782 604L874 612M782 604L778 705M874 612L930 590M874 612L879 642M874 612L887 681M930 590L879 642M930 590L986 675M1031 626L1110 627M1031 626L986 675M1031 626L1059 666M1110 627L1122 623M1110 627L1059 666M1110 627L1152 703M1110 627L1134 723M1122 623L1059 666M1122 623L1152 703M1122 623L1134 723M1277 608L1301 573M1277 608L1216 659M1301 573L1383 571M1511 624L1576 580M1511 624L1483 711M1511 624L1575 668M1576 580L1620 634M1576 580L1575 668M1620 634L1575 668M1620 634L1619 693M1620 634L1725 648M1698 564L1787 605M1698 564L1725 648M1787 605L1725 648M1787 605L1829 676M1787 605L1882 641M1913 596L1970 565M1913 596L1882 641M1913 596L1979 670M2069 579L2139 586M2139 586L2184 605M2184 605L2241 613M2184 605L2173 679M2241 613L2173 679M2241 613L2247 659M2376 570L2456 578M2376 570L2338 648M2456 578L2528 568M2456 578L2494 649M2528 568L2494 649M54 700L123 717M54 700L34 735M54 700L108 757M54 700L-26 743M2614 700L2534 743M123 717L165 649M123 717L34 735M123 717L108 757M123 717L205 776M165 649L250 645M250 645L325 642M325 642L323 749M443 671L499 641M443 671L448 760M443 671L481 788M607 712L645 685M607 712L562 763M607 712L654 742M607 712L621 815M645 685L654 742M778 705L759 799M778 705L828 732M879 642L887 681M887 681L986 675M887 681L828 732M887 681L895 771M986 675L1059 666M986 675L990 749M1059 666L1134 723M1152 703L1216 659M1152 703L1134 723M1216 659L1134 723M1216 659L1254 757M1306 712L1367 718M1306 712L1254 757M1306 712L1342 730M1306 712L1367 731M1306 712L1273 800M1367 718L1342 730M1367 718L1367 731M1483 711L1495 783M1483 711L1510 815M1575 668L1619 693M1619 693L1565 766M1619 693L1631 775M1619 693L1688 757M1725 648L1829 676M1725 648L1688 757M1829 676L1882 641M1829 676L1858 722M1882 641L1979 670M1882 641L1858 722M1979 670L2062 706M1979 670L1949 731M2062 706L2147 697M2062 706L2002 794M2062 706L2094 738M2147 697L2173 679M2147 697L2094 738M2147 697L2225 760M2173 679L2247 659M2173 679L2225 760M2247 659L2338 648M2247 659L2225 760M2247 659L2284 751M2338 648L2411 680M2338 648L2284 751M2411 680L2494 649M2411 680L2379 772M2411 680L2459 783M2494 649L2534 743M34 735L108 757M34 735L-26 743M2594 735L2534 743M108 757L205 776M108 757L103 866M205 776L280 753M205 776L213 815M205 776L243 843M280 753L323 749M280 753L213 815M280 753L243 843M323 749L213 815M323 749L351 848M448 760L481 788M448 760L491 812M481 788L562 763M481 788L491 812M562 763L654 742M562 763L491 812M562 763L621 815M654 742L621 815M654 742L659 855M759 799L828 732M759 799L730 827M828 732L895 771M828 732L880 839M895 771L990 749M895 771L874 868M895 771L880 839M990 749L1042 772M990 749L1037 813M1042 772L1037 813M1042 772L1071 828M1254 757L1342 730M1254 757L1367 731M1254 757L1273 800M1342 730L1367 731M1342 730L1273 800M1495 783L1565 766M1495 783L1510 815M1495 783L1583 813M1495 783L1476 901M1565 766L1631 775M1565 766L1510 815M1565 766L1583 813M1631 775L1688 757M1631 775L1583 813M1631 775L1614 844M1688 757L1803 791M1688 757L1721 801M1803 791L1858 722M1803 791L1721 801M1803 791L1772 866M1803 791L1800 902M1858 722L1949 731M1949 731L2002 794M2002 794L2094 738M2002 794L1945 867M2002 794L2025 868M2225 760L2284 751M2284 751L2379 772M2284 751L2307 848M2379 772L2459 783M2379 772L2444 800M2459 783L2534 743M2459 783L2444 800M2459 783L2516 855M2534 743L2444 800M75 867L103 866M213 815L243 843M243 843L351 848M243 843L226 913M351 848L400 876M351 848L330 935M351 848L430 913M400 876L330 935M400 876L430 913M491 812L520 907M621 815L659 855M621 815L730 827M659 855L730 827M659 855L592 946M659 855L717 907M730 827L717 907M730 827L772 925M874 868L880 839M874 868L772 925M874 868L806 953M874 868L922 957M880 839L922 957M1037 813L1071 828M1037 813L1142 849M1037 813L1031 894M1071 828L1142 849M1071 828L1031 894M1142 849L1127 922M1273 800L1296 875M1273 800L1274 911M1296 875L1388 874M1296 875L1274 911M1296 875L1338 934M1388 874L1338 934M1388 874L1420 950M1388 874L1476 901M1510 815L1583 813M1510 815L1476 901M1583 813L1614 844M1721 801L1772 866M1721 801L1717 897M1772 866L1717 897M1772 866L1800 902M1772 866L1747 977M1896 871L1945 867M1896 871L1908 904M1896 871L1956 925M1945 867L2025 868M1945 867L1908 904M1945 867L1956 925M2025 868L1956 925M2025 868L2060 942M2025 868L2096 931M2131 877L2179 878M2131 877L2060 942M2131 877L2096 931M2131 877L2210 920M2179 878L2096 931M2179 878L2210 920M2179 878L2198 969M2307 848L2320 868M2307 848L2279 929M2307 848L2331 895M2307 848L2404 897M2320 868L2279 929M2320 868L2331 895M2320 868L2404 897M2444 800L2516 855M2444 800L2404 897M2516 855L2550 950M69 958L149 955M69 958L-10 950M69 958L69 966M69 958L132 1018M69 958L76 1049M2629 958L2550 950M149 955L226 913M149 955L69 966M149 955L132 1018M149 955L224 976M226 913L293 952M226 913L330 935M226 913L224 976M293 952L330 935M293 952L224 976M293 952L257 1015M293 952L400 1004M330 935L400 1004M430 913L520 907M430 913L400 1004M430 913L523 979M520 907L592 946M520 907L523 979M592 946L523 979M592 946L580 989M592 946L664 1031M717 907L772 925M717 907L806 953M772 925L806 953M772 925L827 983M806 953L792 1034M806 953L827 983M922 957L827 983M922 957L944 994M922 957L991 980M1031 894L1068 952M1031 894L1127 922M1031 894L991 980M1068 952L1127 922M1068 952L991 980M1068 952L1113 1034M1068 952L1053 1049M1127 922L1113 1034M1127 922L1182 1000M1274 911L1338 934M1274 911L1182 1000M1274 911L1217 1012M1338 934L1420 950M1338 934L1374 993M1420 950L1476 901M1420 950L1374 993M1476 901L1521 945M1521 945L1616 947M1521 945L1516 1002M1616 947L1603 1023M1717 897L1800 902M1717 897L1747 977M1717 897L1770 1000M1800 902L1747 977M1800 902L1770 1000M1908 904L1956 925M1908 904L1877 1005M1956 925L1976 989M2060 942L2096 931M2060 942L2125 990M2096 931L2125 990M2210 920L2279 929M2210 920L2198 969M2279 929L2331 895M2279 929L2198 969M2331 895L2404 897M2404 897L2420 989M2550 950L2629 966M2550 950L2518 1005M2550 950L2550 1043M-10 950L69 966M69 966L132 1018M69 966L76 1049M132 1018L76 1049M132 1018L136 1098M224 976L257 1015M224 976L243 1072M257 1015L219 1087M257 1015L243 1072M257 1015L330 1078M400 1004L406 1027M400 1004L330 1078M406 1027L330 1078M406 1027L464 1119M523 979L580 989M523 979L518 1061M580 989L664 1031M580 989L518 1061M580 989L605 1067M664 1031L605 1067M664 1031L668 1091M792 1034L827 983M792 1034L782 1111M792 1034L838 1057M827 983L838 1057M944 994L991 980M944 994L925 1104M991 980L1053 1049M1113 1034L1182 1000M1113 1034L1217 1012M1113 1034L1053 1049M1182 1000L1217 1012M1182 1000L1195 1119M1217 1012L1195 1119M1217 1012L1263 1102M1327 1037L1374 993M1327 1037L1263 1102M1327 1037L1357 1118M1327 1037L1418 1098M1516 1002L1551 1032M1516 1002L1603 1023M1516 1002L1479 1051M1516 1002L1551 1043M1551 1032L1603 1023M1551 1032L1479 1051M1551 1032L1551 1043M1551 1032L1578 1123M1603 1023L1551 1043M1747 977L1770 1000M1770 1000L1877 1005M1877 1005L1976 989M1877 1005L1898 1054M1976 989L2013 1029M1976 989L1981 1067M2013 1029L1981 1067M2013 1029L2053 1041M2013 1029L2093 1061M2013 1029L2047 1124M2125 990L2198 969M2125 990L2053 1041M2125 990L2093 1061M2198 969L2220 1048M2318 1040L2392 1038M2318 1040L2269 1045M2318 1040L2361 1043M2318 1040L2339 1131M2392 1038L2420 989M2392 1038L2361 1043M2392 1038L2433 1061M2420 989L2518 1005M2420 989L2361 1043M2420 989L2433 1061M2518 1005L2550 1043M76 1049L136 1098M76 1049L-10 1043M2636 1049L2550 1043M136 1098L219 1087M136 1098L133 1157M136 1098L193 1122M219 1087L243 1072M219 1087L193 1122M243 1072L330 1078M243 1072L193 1122M330 1078L323 1139M464 1119L518 1061M464 1119L422 1151M464 1119L499 1173M464 1119L573 1153M518 1061L605 1067M518 1061L499 1173M605 1067L668 1091M605 1067L573 1153M668 1091L573 1153M668 1091L703 1186M782 1111L838 1057M782 1111L793 1139M782 1111L800 1162M782 1111L737 1203M838 1057L925 1104M838 1057L793 1139M925 1104L1019 1099M925 1104L886 1157M925 1104L938 1201M1019 1099L1053 1049M1019 1099L1030 1158M1053 1049L1030 1158M1195 1119L1263 1102M1195 1119L1192 1181M1195 1119L1260 1141M1263 1102L1260 1141M1357 1118L1418 1098M1357 1118L1260 1141M1357 1118L1317 1184M1357 1118L1426 1192M1418 1098L1479 1051M1418 1098L1426 1192M1418 1098L1494 1137M1479 1051L1551 1043M1479 1051L1494 1137M1551 1043L1578 1123M1671 1111L1752 1116M1671 1111L1578 1123M1671 1111L1677 1187M1671 1111L1683 1155M1752 1116L1792 1117M1752 1116L1683 1155M1752 1116L1770 1139M1752 1116L1720 1217M1792 1117L1770 1139M1792 1117L1854 1179M1898 1054L1981 1067M1981 1067L2053 1041M1981 1067L1954 1157M2053 1041L2093 1061M2053 1041L2047 1124M2093 1061L2047 1124M2220 1048L2269 1045M2220 1048L2238 1135M2269 1045L2361 1043M2269 1045L2238 1135M2269 1045L2339 1131M2361 1043L2433 1061M2433 1061L2443 1147M2433 1061L2508 1125M2550 1043L2508 1125M68 1200L133 1157M68 1200L6 1219M68 1200L139 1269M68 1200L31 1289M133 1157L193 1122M133 1157L139 1269M193 1122L234 1206M285 1179L323 1139M285 1179L234 1206M285 1179L259 1216M285 1179L337 1249M323 1139L422 1151M323 1139L259 1216M323 1139L337 1249M422 1151L499 1173M499 1173L573 1153M499 1173L479 1268M573 1153L616 1253M703 1186L707 1233M703 1186L737 1203M793 1139L800 1162M793 1139L886 1157M793 1139L737 1203M800 1162L886 1157M800 1162L737 1203M800 1162L863 1223M886 1157L863 1223M886 1157L938 1201M1030 1158L1093 1191M1030 1158L938 1201M1030 1158L1002 1224M1093 1191L1192 1181M1093 1191L1002 1224M1093 1191L1106 1264M1093 1191L1131 1242M1192 1181L1260 1141M1192 1181L1131 1242M1260 1141L1317 1184M1317 1184L1379 1244M1426 1192L1494 1137M1426 1192L1379 1244M1426 1192L1471 1260M1494 1137L1578 1123M1494 1137L1531 1244M1677 1187L1683 1155M1677 1187L1666 1277M1677 1187L1720 1217M1683 1155L1770 1139M1683 1155L1720 1217M1770 1139L1854 1179M1770 1139L1720 1217M1854 1179L1833 1253M1854 1179L1902 1242M1954 1157L2047 1124M1954 1157L1902 1242M1954 1157L1970 1206M1954 1157L2035 1203M2047 1124L2035 1203M2153 1178L2238 1135M2153 1178L2035 1203M2153 1178L2152 1233M2153 1178L2238 1230M2238 1135L2285 1193M2285 1193L2339 1131M2285 1193L2238 1230M2285 1193L2253 1262M2285 1193L2363 1231M2339 1131L2443 1147M2339 1131L2363 1231M2443 1147L2508 1125M2443 1147L2444 1249M2508 1125L2566 1219M2508 1125L2516 1223M-52 1125L6 1219M6 1219L-44 1223M6 1219L31 1289M6 1219L-22 1320M2566 1219L2516 1223M2566 1219L2538 1320M139 1269L234 1206M139 1269L137 1321M234 1206L259 1216M234 1206L277 1295M259 1216L337 1249M259 1216L277 1295M337 1249L277 1295M337 1249L333 1335M479 1268L548 1279M479 1268L466 1339M479 1268L484 1332M548 1279L616 1253M548 1279L466 1339M548 1279L484 1332M548 1279L606 1327M616 1253L707 1233M616 1253L606 1327M616 1253L671 1299M707 1233L737 1203M707 1233L671 1299M707 1233L734 1341M863 1223L938 1201M863 1223L863 1293M938 1201L1002 1224M1002 1224L1106 1264M1002 1224L1011 1345M1106 1264L1131 1242M1106 1264L1083 1357M1106 1264L1197 1289M1131 1242L1225 1278M1131 1242L1197 1289M1225 1278L1294 1275M1225 1278L1197 1289M1225 1278L1236 1318M1294 1275L1379 1244M1294 1275L1197 1289M1294 1275L1236 1318M1294 1275L1335 1346M1379 1244L1471 1260M1471 1260L1531 1244M1471 1260L1439 1328M1471 1260L1514 1331M1531 1244L1514 1331M1666 1277L1720 1217M1666 1277L1577 1347M1666 1277L1634 1304M1666 1277L1713 1321M1833 1253L1902 1242M1833 1253L1798 1319M1833 1253L1856 1350M1902 1242L1970 1206M1902 1242L1946 1314M1970 1206L2035 1203M1970 1206L2024 1304M2035 1203L2024 1304M2152 1233L2238 1230M2152 1233L2158 1315M2238 1230L2253 1262M2238 1230L2240 1296M2253 1262L2158 1315M2253 1262L2240 1296M2253 1262L2296 1336M2363 1231L2444 1249M2363 1231L2398 1292M2363 1231L2404 1342M2444 1249L2516 1223M2444 1249L2398 1292M2444 1249L2404 1342M2516 1223L2591 1289M2516 1223L2538 1320M-44 1223L31 1289M31 1289L-22 1320M31 1289L-14 1363M2591 1289L2538 1320M2591 1289L2546 1363M137 1321L220 1357M137 1321L75 1397M137 1321L99 1432M137 1321L180 1419M220 1357L277 1295M220 1357L333 1335M220 1357L180 1419M220 1357L313 1386M277 1295L333 1335M333 1335L313 1386M333 1335L345 1371M466 1339L484 1332M466 1339L477 1409M484 1332L477 1409M606 1327L671 1299M606 1327L613 1388M606 1327L647 1389M671 1299L734 1341M734 1341L613 1388M734 1341L647 1389M734 1341L736 1426M863 1293L935 1346M935 1346L1011 1345M935 1346L879 1416M935 1346L974 1412M1011 1345L1083 1357M1011 1345L974 1412M1083 1357L1056 1435M1197 1289L1236 1318M1236 1318L1335 1346M1236 1318L1213 1417M1335 1346L1345 1385M1335 1346L1418 1395M1439 1328L1514 1331M1439 1328L1345 1385M1439 1328L1418 1395M1439 1328L1484 1429M1514 1331L1577 1347M1514 1331L1571 1376M1577 1347L1634 1304M1577 1347L1571 1376M1577 1347L1613 1376M1634 1304L1713 1321M1634 1304L1613 1376M1713 1321L1798 1319M1798 1319L1856 1350M1798 1319L1840 1382M1856 1350L1946 1314M1856 1350L1840 1382M1856 1350L1888 1434M1946 1314L2024 1304M1946 1314L1959 1385M2024 1304L1959 1385M2024 1304L2021 1397M2158 1315L2240 1296M2158 1315L2138 1389M2158 1315L2194 1394M2240 1296L2296 1336M2240 1296L2194 1394M2296 1336L2398 1292M2296 1336L2311 1424M2296 1336L2320 1377M2398 1292L2404 1342M2398 1292L2320 1377M2404 1342L2320 1377M2404 1342L2445 1440M2538 1320L2635 1397M2538 1320L2546 1363M-22 1320L75 1397M75 1397L99 1432M75 1397L-14 1363M2635 1397L2546 1363M99 1432L180 1419M313 1386L345 1371M477 1409L531 1438M531 1438L613 1388M613 1388L647 1389M647 1389L736 1426M879 1416L891 1436M891 1436L974 1412M974 1412L1056 1435M1195 1429L1213 1417M1345 1385L1418 1395M1418 1395L1484 1429M1484 1429L1571 1376M1571 1376L1613 1376M1734 1439L1840 1382M1840 1382L1888 1434M1888 1434L1959 1385M1959 1385L2021 1397M2021 1397L2138 1389M2138 1389L2194 1394M2311 1424L2320 1377M2445 1440L2546 1363"/></svg>