<svg xmlns="http://www.w3.org/2000/svg" width="2560" height="1440" fill="#fff"><circle cx="77" cy="7" r="6"/><circle cx="80" cy="1" r="5"/><circle cx="80" cy="1441" r="5"/><circle cx="196" cy="57" r="5"/><circle cx="275" cy="77" r="5"/><circle cx="383" cy="50" r="4"/><circle cx="403" cy="72" r="5"/><circle cx="530" cy="71" r="5"/><circle cx="586" cy="44" r="5"/><circle cx="686" cy="41" r="5"/><circle cx="737" cy="7" r="4"/><circle cx="865" cy="78" r="5"/><circle cx="931" cy="71" r="4"/><circle cx="1005" cy="22" r="5"/><circle cx="1054" cy="63" r="4"/><circle cx="1161" cy="58" r="4"/><circle cx="1267" cy="9" r="5"/><circle cx="1295" cy="28" r="5"/><circle cx="1401" cy="22" r="5"/><circle cx="1479" cy="34" r="4"/><circle cx="1540" cy="61" r="5"/><circle cx="1636" cy="52" r="4"/><circle cx="1705" cy="36" r="5"/><circle cx="1776" cy="29" r="5"/><circle cx="1898" cy="30" r="5"/><circle cx="1982" cy="45" r="5"/><circle cx="2076" cy="67" r="6"/><circle cx="2140" cy="11" r="5"/><circle cx="2211" cy="67" r="6"/><circle cx="2291" cy="79" r="5"/><circle cx="2361" cy="35" r="6"/><circle cx="2412" cy="8" r="5"/><circle cx="2554" cy="43" r="5"/><circle cx="46" cy="139" r="4"/><circle cx="151" cy="106" r="5"/><circle cx="192" cy="135" r="4"/><circle cx="265" cy="143" r="6"/><circle cx="363" cy="144" r="5"/><circle cx="460" cy="155" r="5"/><circle cx="511" cy="155" r="5"/><circle cx="577" cy="113" r="5"/><circle cx="694" cy="150" r="5"/><circle cx="754" cy="159" r="5"/><circle cx="852" cy="90" r="5"/><circle cx="905" cy="136" r="5"/><circle cx="1009" cy="87" r="5"/><circle cx="1088" cy="127" r="5"/><circle cx="1140" cy="135" r="5"/><circle cx="1212" cy="157" r="6"/><circle cx="1345" cy="128" r="4"/><circle cx="1408" cy="110" r="5"/><circle cx="1513" cy="154" r="6"/><circle cx="1589" cy="96" r="5"/><circle cx="1666" cy="143" r="5"/><circle cx="1681" cy="93" r="5"/><circle cx="1793" cy="87" r="5"/><circle cx="1885" cy="122" r="4"/><circle cx="1977" cy="134" r="5"/><circle cx="2028" cy="97" r="4"/><circle cx="2159" cy="143" r="5"/><circle cx="2206" cy="116" r="5"/><circle cx="2272" cy="102" r="5"/><circle cx="2345" cy="113" r="5"/><circle cx="2401" cy="90" r="5"/><circle cx="2538" cy="140" r="6"/><circle cx="27" cy="183" r="4"/><circle cx="120" cy="193" r="5"/><circle cx="230" cy="208" r="5"/><circle cx="264" cy="166" r="5"/><circle cx="352" cy="214" r="4"/><circle cx="451" cy="226" r="5"/><circle cx="487" cy="232" r="5"/><circle cx="579" cy="222" r="4"/><circle cx="646" cy="179" r="5"/><circle cx="748" cy="203" r="5"/><circle cx="874" cy="169" r="5"/><circle cx="946" cy="200" r="4"/><circle cx="965" cy="225" r="5"/><circle cx="1090" cy="230" r="5"/><circle cx="1199" cy="236" r="6"/><circle cx="1273" cy="174" r="5"/><circle cx="1285" cy="222" r="5"/><circle cx="1377" cy="202" r="6"/><circle cx="1494" cy="234" r="6"/><circle cx="1571" cy="227" r="4"/><circle cx="1636" cy="165" r="5"/><circle cx="1721" cy="186" r="4"/><circle cx="1801" cy="175" r="6"/><circle cx="1877" cy="214" r="6"/><circle cx="1941" cy="198" r="5"/><circle cx="2022" cy="229" r="5"/><circle cx="2154" cy="201" r="5"/><circle cx="2162" cy="228" r="6"/><circle cx="2299" cy="209" r="6"/><circle cx="2334" cy="163" r="5"/><circle cx="2428" cy="221" r="6"/><circle cx="2498" cy="237" r="6"/><circle cx="74" cy="296" r="5"/><circle cx="135" cy="299" r="5"/><circle cx="172" cy="315" r="4"/><circle cx="274" cy="281" r="5"/><circle cx="387" cy="310" r="4"/><circle cx="417" cy="306" r="5"/><circle cx="481" cy="299" r="6"/><circle cx="562" cy="245" r="6"/><circle cx="691" cy="257" r="4"/><circle cx="726" cy="252" r="5"/><circle cx="831" cy="244" r="5"/><circle cx="888" cy="274" r="5"/><circle cx="1025" cy="271" r="4"/><circle cx="1099" cy="270" r="5"/><circle cx="1195" cy="265" r="4"/><circle cx="1269" cy="269" r="5"/><circle cx="1331" cy="252" r="5"/><circle cx="1439" cy="240" r="5"/><circle cx="1483" cy="262" r="5"/><circle cx="1554" cy="269" r="5"/><circle cx="1664" cy="318" r="5"/><circle cx="1747" cy="264" r="4"/><circle cx="1802" cy="285" r="4"/><circle cx="1907" cy="300" r="4"/><circle cx="1934" cy="267" r="5"/><circle cx="2080" cy="285" r="6"/><circle cx="2116" cy="307" r="5"/><circle cx="2171" cy="251" r="4"/><circle cx="2284" cy="299" r="4"/><circle cx="2376" cy="296" r="6"/><circle cx="2435" cy="251" r="5"/><circle cx="2525" cy="288" r="5"/><circle cx="63" cy="352" r="5"/><circle cx="107" cy="339" r="5"/><circle cx="223" cy="363" r="4"/><circle cx="263" cy="395" r="4"/><circle cx="357" cy="348" r="5"/><circle cx="427" cy="331" r="4"/><circle cx="503" cy="360" r="4"/><circle cx="576" cy="391" r="5"/><circle cx="709" cy="340" r="5"/><circle cx="754" cy="371" r="6"/><circle cx="826" cy="331" r="5"/><circle cx="904" cy="325" r="5"/><circle cx="1007" cy="349" r="4"/><circle cx="1074" cy="328" r="6"/><circle cx="1131" cy="332" r="6"/><circle cx="1223" cy="331" r="4"/><circle cx="1344" cy="328" r="5"/><circle cx="1383" cy="338" r="5"/><circle cx="1452" cy="360" r="5"/><circle cx="1554" cy="364" r="5"/><circle cx="1665" cy="362" r="5"/><circle cx="1689" cy="336" r="4"/><circle cx="1811" cy="373" r="5"/><circle cx="1865" cy="334" r="6"/><circle cx="1971" cy="330" r="5"/><circle cx="2079" cy="345" r="5"/><circle cx="2121" cy="352" r="6"/><circle cx="2191" cy="352" r="4"/><circle cx="2283" cy="390" r="5"/><circle cx="2367" cy="345" r="6"/><circle cx="2469" cy="346" r="4"/><circle cx="2482" cy="348" r="6"/><circle cx="41" cy="471" r="5"/><circle cx="124" cy="434" r="5"/><circle cx="179" cy="445" r="6"/><circle cx="277" cy="463" r="4"/><circle cx="358" cy="428" r="5"/><circle cx="452" cy="435" r="5"/><circle cx="503" cy="419" r="6"/><circle cx="567" cy="404" r="5"/><circle cx="656" cy="409" r="4"/><circle cx="734" cy="401" r="6"/><circle cx="832" cy="411" r="4"/><circle cx="904" cy="414" r="5"/><circle cx="1024" cy="418" r="6"/><circle cx="1098" cy="415" r="5"/><circle cx="1134" cy="458" r="5"/><circle cx="1255" cy="472" r="5"/><circle cx="1283" cy="421" r="5"/><circle cx="1413" cy="453" r="4"/><circle cx="1502" cy="412" r="6"/><circle cx="1550" cy="402" r="5"/><circle cx="1626" cy="446" r="5"/><circle cx="1728" cy="432" r="5"/><circle cx="1767" cy="408" r="5"/><circle cx="1880" cy="458" r="5"/><circle cx="1983" cy="423" r="5"/><circle cx="2044" cy="436" r="4"/><circle cx="2135" cy="428" r="5"/><circle cx="2164" cy="434" r="4"/><circle cx="2304" cy="437" r="4"/><circle cx="2370" cy="447" r="6"/><circle cx="2424" cy="406" r="4"/><circle cx="2491" cy="413" r="6"/><circle cx="70" cy="560" r="5"/><circle cx="155" cy="540" r="5"/><circle cx="235" cy="490" r="6"/><circle cx="268" cy="555" r="5"/><circle cx="347" cy="521" r="5"/><circle cx="427" cy="557" r="6"/><circle cx="499" cy="490" r="5"/><circle cx="578" cy="512" r="5"/><circle cx="646" cy="511" r="6"/><circle cx="782" cy="544" r="5"/><circle cx="833" cy="538" r="4"/><circle cx="938" cy="540" r="5"/><circle cx="999" cy="483" r="6"/><circle cx="1057" cy="480" r="6"/><circle cx="1184" cy="522" r="5"/><circle cx="1279" cy="493" r="6"/><circle cx="1318" cy="514" r="5"/><circle cx="1402" cy="514" r="4"/><circle cx="1513" cy="525" r="4"/><circle cx="1562" cy="553" r="6"/><circle cx="1612" cy="501" r="5"/><circle cx="1701" cy="494" r="6"/><circle cx="1762" cy="504" r="4"/><circle cx="1883" cy="551" r="4"/><circle cx="1991" cy="483" r="5"/><circle cx="2055" cy="520" r="6"/><circle cx="2142" cy="528" r="5"/><circle cx="2208" cy="554" r="5"/><circle cx="2269" cy="504" r="4"/><circle cx="2386" cy="523" r="6"/><circle cx="2409" cy="559" r="4"/><circle cx="2557" cy="524" r="5"/><circle cx="-3" cy="524" r="5"/><circle cx="77" cy="576" r="6"/><circle cx="91" cy="639" r="5"/><circle cx="200" cy="595" r="5"/><circle cx="276" cy="613" r="6"/><circle cx="352" cy="601" r="5"/><circle cx="406" cy="626" r="4"/><circle cx="538" cy="596" r="5"/><circle cx="629" cy="583" r="5"/><circle cx="641" cy="585" r="5"/><circle cx="785" cy="588" r="5"/><circle cx="872" cy="568" r="5"/><circle cx="891" cy="608" r="4"/><circle cx="975" cy="580" r="5"/><circle cx="1065" cy="639" r="5"/><circle cx="1172" cy="632" r="5"/><circle cx="1274" cy="611" r="5"/><circle cx="1325" cy="615" r="4"/><circle cx="1396" cy="596" r="5"/><circle cx="1512" cy="584" r="6"/><circle cx="1568" cy="632" r="4"/><circle cx="1601" cy="573" r="4"/><circle cx="1704" cy="583" r="5"/><circle cx="1835" cy="618" r="4"/><circle cx="1890" cy="619" r="5"/><circle cx="1979" cy="630" r="6"/><circle cx="2074" cy="614" r="5"/><circle cx="2113" cy="575" r="5"/><circle cx="2175" cy="573" r="6"/><circle cx="2277" cy="567" r="4"/><circle cx="2376" cy="582" r="5"/><circle cx="2450" cy="563" r="6"/><circle cx="2510" cy="583" r="5"/><circle cx="27" cy="683" r="6"/><circle cx="144" cy="675" r="5"/><circle cx="218" cy="713" r="6"/><circle cx="242" cy="706" r="4"/><circle cx="355" cy="647" r="6"/><circle cx="443" cy="642" r="5"/><circle cx="510" cy="644" r="5"/><circle cx="567" cy="640" r="4"/><circle cx="701" cy="646" r="6"/><circle cx="721" cy="685" r="4"/><circle cx="839" cy="718" r="4"/><circle cx="923" cy="665" r="4"/><circle cx="960" cy="690" r="6"/><circle cx="1050" cy="698" r="5"/><circle cx="1166" cy="680" r="5"/><circle cx="1213" cy="718" r="6"/><circle cx="1341" cy="653" r="5"/><circle cx="1373" cy="694" r="6"/><circle cx="1501" cy="720" r="5"/><circle cx="1595" cy="658" r="5"/><circle cx="1679" cy="695" r="4"/><circle cx="1725" cy="680" r="5"/><circle cx="1823" cy="681" r="6"/><circle cx="1897" cy="645" r="5"/><circle cx="1940" cy="642" r="5"/><circle cx="2068" cy="654" r="5"/><circle cx="2155" cy="684" r="4"/><circle cx="2191" cy="707" r="5"/><circle cx="2290" cy="658" r="5"/><circle cx="2365" cy="666" r="4"/><circle cx="2402" cy="667" r="5"/><circle cx="2481" cy="673" r="6"/><circle cx="56" cy="762" r="5"/><circle cx="145" cy="780" r="5"/><circle cx="202" cy="785" r="6"/><circle cx="263" cy="753" r="5"/><circle cx="374" cy="746" r="5"/><circle cx="414" cy="726" r="5"/><circle cx="481" cy="792" r="6"/><circle cx="587" cy="753" r="4"/><circle cx="645" cy="780" r="6"/><circle cx="742" cy="762" r="5"/><circle cx="838" cy="747" r="5"/><circle cx="954" cy="762" r="5"/><circle cx="1017" cy="766" r="5"/><circle cx="1116" cy="726" r="5"/><circle cx="1126" cy="747" r="4"/><circle cx="1237" cy="747" r="4"/><circle cx="1336" cy="748" r="5"/><circle cx="1370" cy="795" r="4"/><circle cx="1456" cy="749" r="5"/><circle cx="1575" cy="745" r="4"/><circle cx="1641" cy="767" r="6"/><circle cx="1691" cy="787" r="6"/><circle cx="1782" cy="768" r="4"/><circle cx="1899" cy="755" r="5"/><circle cx="1990" cy="758" r="5"/><circle cx="2043" cy="758" r="5"/><circle cx="2156" cy="769" r="5"/><circle cx="2176" cy="784" r="4"/><circle cx="2300" cy="774" r="6"/><circle cx="2361" cy="750" r="4"/><circle cx="2477" cy="754" r="5"/><circle cx="2535" cy="749" r="5"/><circle cx="16" cy="877" r="5"/><circle cx="132" cy="880" r="5"/><circle cx="188" cy="821" r="6"/><circle cx="302" cy="878" r="4"/><circle cx="371" cy="815" r="5"/><circle cx="458" cy="818" r="4"/><circle cx="501" cy="873" r="6"/><circle cx="636" cy="819" r="5"/><circle cx="695" cy="857" r="4"/><circle cx="721" cy="866" r="6"/><circle cx="873" cy="812" r="5"/><circle cx="911" cy="875" r="4"/><circle cx="992" cy="875" r="5"/><circle cx="1097" cy="823" r="5"/><circle cx="1178" cy="873" r="4"/><circle cx="1232" cy="827" r="5"/><circle cx="1286" cy="860" r="4"/><circle cx="1420" cy="834" r="5"/><circle cx="1513" cy="813" r="4"/><circle cx="1544" cy="841" r="6"/><circle cx="1668" cy="839" r="6"/><circle cx="1758" cy="835" r="5"/><circle cx="1782" cy="837" r="5"/><circle cx="1873" cy="809" r="4"/><circle cx="1985" cy="863" r="5"/><circle cx="2070" cy="804" r="6"/><circle cx="2113" cy="800" r="5"/><circle cx="2225" cy="822" r="6"/><circle cx="2311" cy="809" r="4"/><circle cx="2373" cy="815" r="4"/><circle cx="2430" cy="842" r="6"/><circle cx="2546" cy="858" r="4"/><circle cx="29" cy="934" r="6"/><circle cx="158" cy="960" r="4"/><circle cx="195" cy="926" r="6"/><circle cx="282" cy="895" r="4"/><circle cx="345" cy="900" r="4"/><circle cx="437" cy="919" r="4"/><circle cx="537" cy="945" r="4"/><circle cx="596" cy="918" r="4"/><circle cx="670" cy="897" r="6"/><circle cx="797" cy="916" r="5"/><circle cx="854" cy="946" r="6"/><circle cx="908" cy="902" r="6"/><circle cx="963" cy="914" r="5"/><circle cx="1119" cy="935" r="6"/><circle cx="1182" cy="884" r="5"/><circle cx="1257" cy="930" r="5"/><circle cx="1358" cy="887" r="6"/><circle cx="1371" cy="934" r="4"/><circle cx="1495" cy="928" r="5"/><circle cx="1580" cy="919" r="5"/><circle cx="1607" cy="904" r="6"/><circle cx="1711" cy="907" r="4"/><circle cx="1830" cy="947" r="6"/><circle cx="1911" cy="887" r="6"/><circle cx="1948" cy="909" r="5"/><circle cx="2014" cy="907" r="5"/><circle cx="2156" cy="908" r="5"/><circle cx="2231" cy="888" r="6"/><circle cx="2296" cy="916" r="5"/><circle cx="2345" cy="903" r="5"/><circle cx="2448" cy="942" r="5"/><circle cx="2493" cy="945" r="6"/><circle cx="71" cy="986" r="6"/><circle cx="147" cy="1000" r="5"/><circle cx="228" cy="1037" r="6"/><circle cx="261" cy="990" r="6"/><circle cx="376" cy="962" r="4"/><circle cx="437" cy="1018" r="5"/><circle cx="508" cy="977" r="5"/><circle cx="620" cy="1015" r="5"/><circle cx="697" cy="1018" r="6"/><circle cx="791" cy="965" r="6"/><circle cx="865" cy="996" r="5"/><circle cx="916" cy="1026" r="4"/><circle cx="1026" cy="988" r="5"/><circle cx="1116" cy="972" r="6"/><circle cx="1129" cy="1006" r="4"/><circle cx="1241" cy="974" r="4"/><circle cx="1301" cy="992" r="6"/><circle cx="1362" cy="985" r="5"/><circle cx="1502" cy="993" r="4"/><circle cx="1575" cy="1023" r="5"/><circle cx="1627" cy="1038" r="4"/><circle cx="1697" cy="1003" r="4"/><circle cx="1825" cy="1026" r="5"/><circle cx="1864" cy="975" r="6"/><circle cx="1945" cy="1020" r="4"/><circle cx="2061" cy="1034" r="4"/><circle cx="2116" cy="1024" r="6"/><circle cx="2232" cy="961" r="6"/><circle cx="2285" cy="982" r="5"/><circle cx="2357" cy="1016" r="6"/><circle cx="2466" cy="1036" r="5"/><circle cx="2534" cy="976" r="5"/><circle cx="46" cy="1082" r="4"/><circle cx="148" cy="1119" r="6"/><circle cx="210" cy="1088" r="6"/><circle cx="294" cy="1076" r="5"/><circle cx="383" cy="1074" r="5"/><circle cx="438" cy="1086" r="4"/><circle cx="514" cy="1098" r="5"/><circle cx="567" cy="1065" r="5"/><circle cx="644" cy="1044" r="5"/><circle cx="780" cy="1070" r="6"/><circle cx="853" cy="1114" r="5"/><circle cx="937" cy="1077" r="6"/><circle cx="1027" cy="1086" r="5"/><circle cx="1110" cy="1099" r="4"/><circle cx="1137" cy="1043" r="5"/><circle cx="1236" cy="1120" r="6"/><circle cx="1311" cy="1119" r="6"/><circle cx="1380" cy="1048" r="6"/><circle cx="1502" cy="1054" r="5"/><circle cx="1581" cy="1114" r="6"/><circle cx="1634" cy="1051" r="5"/><circle cx="1696" cy="1043" r="5"/><circle cx="1782" cy="1047" r="4"/><circle cx="1853" cy="1105" r="5"/><circle cx="1952" cy="1066" r="5"/><circle cx="2038" cy="1069" r="5"/><circle cx="2149" cy="1097" r="5"/><circle cx="2164" cy="1051" r="5"/><circle cx="2247" cy="1111" r="5"/><circle cx="2326" cy="1095" r="4"/><circle cx="2408" cy="1040" r="5"/><circle cx="2550" cy="1086" r="4"/><circle cx="53" cy="1160" r="5"/><circle cx="95" cy="1178" r="5"/><circle cx="190" cy="1131" r="5"/><circle cx="305" cy="1169" r="6"/><circle cx="341" cy="1199" r="5"/><circle cx="436" cy="1144" r="5"/><circle cx="522" cy="1193" r="5"/><circle cx="631" cy="1161" r="5"/><circle cx="715" cy="1181" r="6"/><circle cx="788" cy="1131" r="6"/><circle cx="867" cy="1193" r="4"/><circle cx="888" cy="1199" r="4"/><circle cx="975" cy="1139" r="6"/><circle cx="1091" cy="1199" r="5"/><circle cx="1159" cy="1142" r="4"/><circle cx="1230" cy="1126" r="6"/><circle cx="1353" cy="1200" r="5"/><circle cx="1387" cy="1194" r="5"/><circle cx="1485" cy="1127" r="4"/><circle cx="1532" cy="1162" r="5"/><circle cx="1626" cy="1145" r="5"/><circle cx="1728" cy="1185" r="5"/><circle cx="1780" cy="1191" r="5"/><circle cx="1849" cy="1174" r="6"/><circle cx="1994" cy="1164" r="6"/><circle cx="2029" cy="1187" r="5"/><circle cx="2116" cy="1194" r="5"/><circle cx="2181" cy="1144" r="4"/><circle cx="2301" cy="1176" r="5"/><circle cx="2331" cy="1192" r="6"/><circle cx="2417" cy="1142" r="5"/><circle cx="2556" cy="1176" r="5"/><circle cx="-4" cy="1176" r="5"/><circle cx="50" cy="1233" r="6"/><circle cx="112" cy="1215" r="6"/><circle cx="192" cy="1208" r="4"/><circle cx="250" cy="1231" r="5"/><circle cx="386" cy="1231" r="5"/><circle cx="446" cy="1262" r="5"/><circle cx="498" cy="1244" r="4"/><circle cx="607" cy="1252" r="6"/><circle cx="676" cy="1274" r="5"/><circle cx="782" cy="1258" r="5"/><circle cx="874" cy="1269" r="5"/><circle cx="957" cy="1211" r="4"/><circle cx="984" cy="1248" r="6"/><circle cx="1052" cy="1267" r="6"/><circle cx="1195" cy="1260" r="5"/><circle cx="1252" cy="1272" r="4"/><circle cx="1322" cy="1206" r="5"/><circle cx="1408" cy="1248" r="6"/><circle cx="1504" cy="1231" r="6"/><circle cx="1538" cy="1257" r="6"/><circle cx="1601" cy="1224" r="5"/><circle cx="1698" cy="1275" r="5"/><circle cx="1777" cy="1260" r="5"/><circle cx="1871" cy="1215" r="4"/><circle cx="1951" cy="1231" r="5"/><circle cx="2064" cy="1202" r="4"/><circle cx="2158" cy="1212" r="6"/><circle cx="2213" cy="1265" r="6"/><circle cx="2270" cy="1235" r="6"/><circle cx="2327" cy="1248" r="5"/><circle cx="2460" cy="1269" r="4"/><circle cx="2522" cy="1219" r="5"/><circle cx="50" cy="1357" r="5"/><circle cx="153" cy="1298" r="6"/><circle cx="216" cy="1336" r="5"/><circle cx="306" cy="1329" r="6"/><circle cx="378" cy="1359" r="5"/><circle cx="451" cy="1288" r="4"/><circle cx="520" cy="1344" r="5"/><circle cx="571" cy="1348" r="6"/><circle cx="683" cy="1335" r="5"/><circle cx="723" cy="1289" r="5"/><circle cx="834" cy="1353" r="6"/><circle cx="918" cy="1356" r="5"/><circle cx="996" cy="1312" r="4"/><circle cx="1049" cy="1359" r="4"/><circle cx="1156" cy="1297" r="5"/><circle cx="1258" cy="1307" r="4"/><circle cx="1326" cy="1337" r="6"/><circle cx="1428" cy="1310" r="6"/><circle cx="1480" cy="1331" r="6"/><circle cx="1539" cy="1350" r="6"/><circle cx="1662" cy="1296" r="5"/><circle cx="1700" cy="1352" r="5"/><circle cx="1784" cy="1340" r="4"/><circle cx="1918" cy="1321" r="5"/><circle cx="1920" cy="1299" r="4"/><circle cx="2024" cy="1300" r="5"/><circle cx="2121" cy="1320" r="6"/><circle cx="2232" cy="1341" r="5"/><circle cx="2281" cy="1295" r="5"/><circle cx="2383" cy="1330" r="5"/><circle cx="2444" cy="1340" r="5"/><circle cx="2496" cy="1287" r="5"/><circle cx="42" cy="1389" r="5"/><circle cx="153" cy="1415" r="4"/><circle cx="223" cy="1439" r="5"/><circle cx="223" cy="-1" r="5"/><circle cx="291" cy="1404" r="6"/><circle cx="342" cy="1384" r="6"/><circle cx="442" cy="1377" r="5"/><circle cx="514" cy="1404" r="5"/><circle cx="574" cy="1408" r="5"/><circle cx="670" cy="1427" r="4"/><circle cx="721" cy="1428" r="5"/><circle cx="810" cy="1426" r="6"/><circle cx="884" cy="1386" r="5"/><circle cx="1036" cy="1438" r="4"/><circle cx="1036" cy="-2" r="4"/><circle cx="1079" cy="1361" r="5"/><circle cx="1178" cy="1394" r="5"/><circle cx="1244" cy="1393" r="6"/><circle cx="1338" cy="1416" r="6"/><circle cx="1400" cy="1397" r="5"/><circle cx="1481" cy="1376" r="5"/><circle cx="1569" cy="1403" r="5"/><circle cx="1640" cy="1418" r="4"/><circle cx="1723" cy="1362" r="5"/><circle cx="1818" cy="1367" r="5"/><circle cx="1860" cy="1421" r="6"/><circle cx="1935" cy="1421" r="4"/><circle cx="2079" cy="1387" r="5"/><circle cx="2123" cy="1371" r="6"/><circle cx="2164" cy="1369" r="4"/><circle cx="2273" cy="1419" r="5"/><circle cx="2386" cy="1385" r="5"/><circle cx="2408" cy="1417" r="5"/><circle cx="2485" cy="1382" r="5"/><path stroke="#fff" d="M77 7L80 1M77 7L-6 43M77 7L50 -83M77 7L42 -51M77 7L153 -25M2637 7L2554 43M77 1447L50 1357M77 1447L42 1389M77 1447L153 1415M80 1L-6 43M80 1L50 -83M80 1L42 -51M80 1L153 -25M2640 1L2554 43M80 1441L50 1357M80 1441L42 1389M80 1441L153 1415M196 57L275 77M196 57L151 106M196 57L192 135M196 57L153 -25M196 57L223 -1M196 1497L153 1415M196 1497L223 1439M275 77L265 143M275 77L264 166M275 77L223 -1M275 1517L223 1439M383 50L403 72M383 50L342 -56M383 1490L342 1384M403 72L363 144M403 72L460 155M530 71L586 44M530 71L511 155M530 71L577 113M586 44L686 41M586 44L577 113M586 44L574 -32M586 1484L574 1408M686 41L737 7M686 41L694 150M686 41L670 -13M686 41L721 -12M686 1481L670 1427M686 1481L721 1428M737 7L670 -13M737 7L721 -12M737 7L810 -14M737 1447L670 1427M737 1447L721 1428M737 1447L810 1426M865 78L931 71M865 78L852 90M865 78L905 136M865 78L874 169M865 78L810 -14M865 1518L810 1426M931 71L1005 22M931 71L852 90M931 71L905 136M931 71L1009 87M1005 22L1054 63M1005 22L1009 87M1005 22L1049 -81M1005 22L1036 -2M1005 1462L1049 1359M1005 1462L1036 1438M1054 63L1009 87M1054 63L1088 127M1054 63L1036 -2M1054 1503L1036 1438M1161 58L1088 127M1161 58L1140 135M1161 58L1178 -46M1161 1498L1178 1394M1267 9L1295 28M1267 9L1178 -46M1267 9L1244 -47M1267 9L1338 -24M1267 1449L1178 1394M1267 1449L1244 1393M1267 1449L1338 1416M1295 28L1401 22M1295 28L1345 128M1295 28L1244 -47M1295 28L1338 -24M1295 1468L1244 1393M1295 1468L1338 1416M1401 22L1479 34M1401 22L1408 110M1401 22L1338 -24M1401 22L1400 -43M1401 1462L1338 1416M1401 1462L1400 1397M1479 34L1540 61M1479 34L1408 110M1479 34L1569 -37M1479 1474L1569 1403M1540 61L1636 52M1540 61L1513 154M1540 61L1589 96M1540 61L1569 -37M1540 1501L1569 1403M1636 52L1705 36M1636 52L1589 96M1636 52L1681 93M1636 52L1640 -22M1636 1492L1640 1418M1705 36L1776 29M1705 36L1681 93M1705 36L1793 87M1705 36L1640 -22M1705 1476L1640 1418M1776 29L1793 87M1776 29L1818 -73M1776 29L1860 -19M1776 1469L1818 1367M1776 1469L1860 1421M1898 30L1982 45M1898 30L1885 122M1898 30L1860 -19M1898 30L1935 -19M1898 1470L1860 1421M1898 1470L1935 1421M1982 45L2076 67M1982 45L1977 134M1982 45L2028 97M1982 45L1935 -19M1982 1485L1935 1421M2076 67L2140 11M2076 67L2028 97M2076 67L2159 143M2140 11L2211 67M2140 11L2079 -53M2140 11L2123 -69M2140 11L2164 -71M2140 1451L2079 1387M2140 1451L2123 1371M2140 1451L2164 1369M2211 67L2291 79M2211 67L2159 143M2211 67L2206 116M2211 67L2272 102M2291 79L2361 35M2291 79L2272 102M2291 79L2345 113M2291 79L2334 163M2361 35L2412 8M2361 35L2345 113M2361 35L2401 90M2361 35L2408 -23M2361 1475L2408 1417M2412 8L2401 90M2412 8L2386 -55M2412 8L2408 -23M2412 8L2485 -58M2412 1448L2386 1385M2412 1448L2408 1417M2412 1448L2485 1382M2554 43L2606 139M2554 43L2538 140M2554 43L2602 -51M-6 43L46 139M-6 43L42 -51M-6 1483L42 1389M2554 1483L2602 1389M46 139L151 106M46 139L-22 140M46 139L27 183M46 139L120 193M2606 139L2538 140M151 106L192 135M151 106L120 193M192 135L265 143M192 135L230 208M192 135L264 166M265 143L363 144M265 143L230 208M265 143L264 166M363 144L460 155M363 144L264 166M363 144L352 214M460 155L511 155M460 155L451 226M460 155L487 232M511 155L577 113M511 155L451 226M511 155L487 232M577 113L579 222M577 113L646 179M694 150L754 159M694 150L646 179M694 150L748 203M754 159L748 203M754 159L726 252M852 90L905 136M852 90L874 169M905 136L874 169M905 136L946 200M1009 87L1088 127M1009 87L1036 -2M1009 1527L1036 1438M1088 127L1140 135M1140 135L1212 157M1212 157L1199 236M1212 157L1273 174M1345 128L1408 110M1345 128L1273 174M1345 128L1377 202M1408 110L1377 202M1513 154L1589 96M1513 154L1494 234M1513 154L1571 227M1589 96L1681 93M1589 96L1636 165M1666 143L1681 93M1666 143L1636 165M1666 143L1721 186M1681 93L1636 165M1793 87L1801 175M1885 122L1977 134M1885 122L1801 175M1885 122L1877 214M1885 122L1941 198M1977 134L2028 97M1977 134L1941 198M1977 134L2022 229M2159 143L2206 116M2159 143L2154 201M2159 143L2162 228M2206 116L2272 102M2206 116L2154 201M2272 102L2345 113M2272 102L2334 163M2345 113L2401 90M2345 113L2334 163M2401 90L2334 163M2538 140L2587 183M2538 140L2498 237M-22 140L27 183M27 183L120 193M120 193L230 208M120 193L135 299M230 208L264 166M230 208L274 281M352 214L274 281M352 214L387 310M451 226L487 232M451 226L417 306M451 226L481 299M487 232L481 299M487 232L562 245M579 222L646 179M579 222L562 245M646 179L562 245M646 179L691 257M748 203L691 257M748 203L726 252M748 203L831 244M874 169L946 200M874 169L831 244M946 200L965 225M946 200L888 274M965 225L888 274M965 225L1025 271M1090 230L1025 271M1090 230L1099 270M1199 236L1273 174M1199 236L1285 222M1199 236L1195 265M1199 236L1269 269M1273 174L1285 222M1285 222L1377 202M1285 222L1269 269M1285 222L1331 252M1377 202L1331 252M1377 202L1439 240M1494 234L1571 227M1494 234L1439 240M1494 234L1483 262M1494 234L1554 269M1571 227L1636 165M1571 227L1483 262M1571 227L1554 269M1636 165L1721 186M1721 186L1801 175M1721 186L1747 264M1801 175L1877 214M1801 175L1747 264M1877 214L1941 198M1877 214L1907 300M1877 214L1934 267M1941 198L2022 229M1941 198L1934 267M2022 229L2080 285M2154 201L2162 228M2154 201L2171 251M2162 228L2080 285M2162 228L2116 307M2162 228L2171 251M2299 209L2334 163M2299 209L2428 221M2299 209L2284 299M2299 209L2376 296M2428 221L2498 237M2428 221L2376 296M2428 221L2435 251M2428 221L2525 288M2498 237L2435 251M2498 237L2525 288M2498 237L2482 348M74 296L135 299M74 296L172 315M74 296L63 352M74 296L107 339M135 299L172 315M135 299L63 352M135 299L107 339M172 315L274 281M172 315L107 339M172 315L223 363M274 281L223 363M274 281L357 348M387 310L417 306M387 310L357 348M387 310L427 331M417 306L481 299M417 306L357 348M417 306L427 331M481 299L427 331M481 299L503 360M691 257L726 252M691 257L709 340M726 252L831 244M726 252L709 340M831 244L888 274M831 244L826 331M888 274L826 331M888 274L904 325M1025 271L1099 270M1025 271L1007 349M1025 271L1074 328M1099 270L1195 265M1099 270L1074 328M1099 270L1131 332M1195 265L1269 269M1195 265L1131 332M1195 265L1223 331M1269 269L1331 252M1269 269L1223 331M1331 252L1344 328M1331 252L1383 338M1439 240L1483 262M1439 240L1383 338M1483 262L1554 269M1483 262L1452 360M1554 269L1664 318M1554 269L1554 364M1664 318L1747 264M1664 318L1665 362M1664 318L1689 336M1747 264L1802 285M1747 264L1689 336M1802 285L1907 300M1802 285L1811 373M1802 285L1865 334M1907 300L1934 267M1907 300L1865 334M1907 300L1971 330M1934 267L1865 334M1934 267L1971 330M2080 285L2116 307M2080 285L2079 345M2080 285L2121 352M2116 307L2171 251M2116 307L2079 345M2116 307L2121 352M2171 251L2191 352M2284 299L2376 296M2284 299L2283 390M2284 299L2367 345M2376 296L2435 251M2376 296L2367 345M2435 251L2525 288M2525 288L2469 346M2525 288L2482 348M63 352L107 339M63 352L124 434M107 339L124 434M223 363L263 395M223 363L179 445M263 395L179 445M263 395L277 463M263 395L235 490M357 348L427 331M357 348L358 428M503 360L576 391M503 360L452 435M503 360L503 419M503 360L567 404M576 391L503 419M576 391L567 404M576 391L656 409M709 340L754 371M709 340L656 409M709 340L734 401M754 371L826 331M754 371L734 401M754 371L832 411M826 331L904 325M826 331L832 411M904 325L1007 349M904 325L832 411M904 325L904 414M1007 349L1074 328M1007 349L1024 418M1074 328L1131 332M1074 328L1098 415M1131 332L1223 331M1131 332L1098 415M1223 331L1344 328M1223 331L1283 421M1344 328L1383 338M1344 328L1283 421M1383 338L1452 360M1383 338L1413 453M1452 360L1554 364M1452 360L1413 453M1452 360L1502 412M1554 364L1502 412M1554 364L1550 402M1665 362L1689 336M1665 362L1626 446M1665 362L1728 432M1689 336L1767 408M1811 373L1865 334M1811 373L1728 432M1811 373L1767 408M1811 373L1880 458M1865 334L1971 330M1971 330L1983 423M2079 345L2121 352M2079 345L2044 436M2079 345L2135 428M2121 352L2191 352M2121 352L2135 428M2191 352L2283 390M2191 352L2135 428M2191 352L2164 434M2283 390L2367 345M2283 390L2304 437M2283 390L2370 447M2367 345L2370 447M2367 345L2424 406M2469 346L2482 348M2469 346L2424 406M2469 346L2491 413M2482 348L2424 406M2482 348L2491 413M41 471L124 434M41 471L-69 413M41 471L70 560M41 471L-3 524M2601 471L2491 413M2601 471L2557 524M124 434L179 445M179 445L155 540M179 445L235 490M277 463L358 428M277 463L235 490M277 463L347 521M358 428L452 435M358 428L347 521M452 435L503 419M452 435L499 490M503 419L567 404M503 419L499 490M567 404L656 409M656 409L734 401M656 409L646 511M734 401L832 411M832 411L904 414M904 414L1024 418M904 414L999 483M1024 418L1098 415M1024 418L999 483M1024 418L1057 480M1098 415L1134 458M1098 415L1057 480M1134 458L1255 472M1134 458L1057 480M1134 458L1184 522M1255 472L1283 421M1255 472L1184 522M1255 472L1279 493M1255 472L1318 514M1283 421L1279 493M1283 421L1318 514M1413 453L1502 412M1413 453L1402 514M1502 412L1550 402M1502 412L1513 525M1550 402L1626 446M1626 446L1612 501M1626 446L1701 494M1728 432L1767 408M1728 432L1701 494M1728 432L1762 504M1767 408L1762 504M1880 458L1983 423M1880 458L1883 551M1880 458L1991 483M1983 423L2044 436M1983 423L1991 483M2044 436L2135 428M2044 436L1991 483M2044 436L2055 520M2135 428L2164 434M2164 434L2142 528M2304 437L2370 447M2304 437L2269 504M2370 447L2424 406M2370 447L2386 523M2424 406L2491 413M70 560L155 540M70 560L-3 524M70 560L77 576M70 560L91 639M2630 560L2557 524M155 540L235 490M155 540L77 576M155 540L200 595M235 490L268 555M268 555L347 521M268 555L200 595M268 555L276 613M347 521L427 557M347 521L352 601M427 557L499 490M427 557L352 601M427 557L406 626M427 557L443 642M499 490L578 512M578 512L646 511M578 512L538 596M578 512L629 583M578 512L641 585M646 511L629 583M646 511L641 585M782 544L833 538M782 544L785 588M782 544L872 568M833 538L938 540M833 538L785 588M833 538L872 568M938 540L999 483M938 540L872 568M938 540L891 608M938 540L975 580M999 483L1057 480M999 483L975 580M1057 480L1184 522M1184 522L1279 493M1184 522L1172 632M1279 493L1318 514M1279 493L1274 611M1318 514L1402 514M1318 514L1274 611M1402 514L1396 596M1513 525L1562 553M1513 525L1612 501M1513 525L1512 584M1562 553L1612 501M1562 553L1512 584M1562 553L1568 632M1562 553L1601 573M1612 501L1701 494M1612 501L1601 573M1701 494L1762 504M1701 494L1704 583M1762 504L1704 583M1883 551L1835 618M1883 551L1890 619M1883 551L1940 642M1991 483L2055 520M2055 520L2142 528M2055 520L2074 614M2055 520L2113 575M2142 528L2208 554M2142 528L2113 575M2142 528L2175 573M2208 554L2269 504M2208 554L2175 573M2208 554L2277 567M2269 504L2386 523M2269 504L2277 567M2386 523L2409 559M2386 523L2376 582M2386 523L2450 563M2409 559L2376 582M2409 559L2450 563M2409 559L2510 583M2557 524L2637 576M2557 524L2510 583M-3 524L77 576M77 576L91 639M77 576L27 683M91 639L27 683M91 639L144 675M200 595L276 613M200 595L144 675M276 613L352 601M276 613L355 647M352 601L406 626M352 601L355 647M406 626L355 647M406 626L443 642M406 626L414 726M538 596L629 583M538 596L510 644M538 596L567 640M629 583L641 585M629 583L701 646M641 585L567 640M641 585L701 646M785 588L872 568M785 588L701 646M872 568L891 608M891 608L975 580M891 608L923 665M975 580L1065 639M1065 639L1172 632M1065 639L960 690M1065 639L1050 698M1065 639L1116 726M1172 632L1274 611M1172 632L1166 680M1172 632L1213 718M1274 611L1325 615M1274 611L1341 653M1325 615L1396 596M1325 615L1341 653M1325 615L1373 694M1396 596L1341 653M1396 596L1373 694M1512 584L1568 632M1512 584L1601 573M1512 584L1595 658M1568 632L1601 573M1568 632L1501 720M1568 632L1595 658M1601 573L1595 658M1704 583L1679 695M1704 583L1725 680M1835 618L1890 619M1835 618L1823 681M1835 618L1897 645M1835 618L1940 642M1890 619L1979 630M1890 619L1897 645M1890 619L1940 642M1979 630L2074 614M1979 630L1897 645M1979 630L1940 642M1979 630L2068 654M2074 614L2113 575M2074 614L2175 573M2074 614L2068 654M2113 575L2175 573M2113 575L2068 654M2175 573L2277 567M2277 567L2290 658M2376 582L2450 563M2376 582L2365 666M2376 582L2402 667M2450 563L2510 583M2510 583L2481 673M27 683L-79 673M27 683L56 762M27 683L-25 749M2587 683L2481 673M2587 683L2535 749M144 675L218 713M144 675L242 706M218 713L242 706M218 713L145 780M218 713L202 785M218 713L263 753M242 706L202 785M242 706L263 753M355 647L443 642M355 647L374 746M443 642L510 644M443 642L414 726M510 644L567 640M567 640L587 753M701 646L721 685M701 646L742 762M721 685L742 762M839 718L923 665M839 718L838 747M839 718L873 812M923 665L960 690M923 665L838 747M923 665L954 762M960 690L1050 698M960 690L954 762M960 690L1017 766M1050 698L1017 766M1050 698L1116 726M1050 698L1126 747M1166 680L1213 718M1166 680L1116 726M1166 680L1126 747M1166 680L1237 747M1213 718L1116 726M1213 718L1126 747M1213 718L1237 747M1341 653L1373 694M1341 653L1336 748M1373 694L1336 748M1373 694L1456 749M1501 720L1456 749M1501 720L1575 745M1501 720L1513 813M1595 658L1679 695M1595 658L1575 745M1679 695L1725 680M1679 695L1641 767M1679 695L1691 787M1725 680L1823 681M1823 681L1897 645M1823 681L1782 768M1823 681L1899 755M1897 645L1940 642M2068 654L2155 684M2068 654L2043 758M2155 684L2191 707M2191 707L2156 769M2191 707L2176 784M2290 658L2365 666M2290 658L2300 774M2365 666L2402 667M2365 666L2361 750M2402 667L2481 673M2402 667L2361 750M2402 667L2477 754M2481 673L2477 754M2481 673L2535 749M56 762L145 780M56 762L-25 749M56 762L-14 858M2616 762L2535 749M2616 762L2546 858M145 780L202 785M145 780L132 880M145 780L188 821M202 785L263 753M202 785L188 821M263 753L374 746M263 753L188 821M374 746L414 726M374 746L481 792M374 746L371 815M414 726L481 792M414 726L371 815M481 792L458 818M481 792L501 873M587 753L645 780M587 753L636 819M645 780L742 762M645 780L636 819M645 780L695 857M742 762L838 747M742 762L721 866M838 747L873 812M954 762L1017 766M954 762L873 812M1017 766L992 875M1017 766L1097 823M1116 726L1126 747M1126 747L1097 823M1237 747L1336 748M1237 747L1232 827M1336 748L1370 795M1370 795L1456 749M1370 795L1286 860M1370 795L1420 834M1370 795L1358 887M1456 749L1420 834M1456 749L1513 813M1575 745L1641 767M1575 745L1513 813M1575 745L1544 841M1641 767L1691 787M1641 767L1668 839M1691 787L1782 768M1691 787L1668 839M1691 787L1758 835M1782 768L1758 835M1782 768L1782 837M1782 768L1873 809M1899 755L1990 758M1899 755L1873 809M1990 758L2043 758M1990 758L1985 863M1990 758L2070 804M2043 758L2070 804M2043 758L2113 800M2156 769L2176 784M2156 769L2070 804M2156 769L2113 800M2156 769L2225 822M2176 784L2113 800M2176 784L2225 822M2300 774L2361 750M2300 774L2225 822M2300 774L2311 809M2300 774L2373 815M2361 750L2311 809M2361 750L2373 815M2477 754L2535 749M2477 754L2430 842M2535 749L2546 858M16 877L-14 858M16 877L29 934M2576 877L2546 858M132 880L188 821M132 880L158 960M132 880L195 926M302 878L371 815M302 878L282 895M302 878L345 900M371 815L458 818M371 815L345 900M458 818L501 873M501 873L437 919M501 873L537 945M501 873L508 977M636 819L695 857M636 819L721 866M636 819L670 897M695 857L721 866M695 857L670 897M721 866L670 897M721 866L797 916M873 812L911 875M873 812L908 902M911 875L992 875M911 875L854 946M911 875L908 902M911 875L963 914M992 875L908 902M992 875L963 914M1097 823L1178 873M1178 873L1232 827M1178 873L1119 935M1178 873L1182 884M1232 827L1286 860M1232 827L1182 884M1286 860L1257 930M1286 860L1358 887M1420 834L1513 813M1420 834L1358 887M1513 813L1544 841M1544 841L1495 928M1544 841L1580 919M1544 841L1607 904M1668 839L1758 835M1668 839L1607 904M1668 839L1711 907M1758 835L1782 837M1758 835L1711 907M1782 837L1873 809M1782 837L1711 907M1782 837L1830 947M1873 809L1911 887M1985 863L2070 804M1985 863L1911 887M1985 863L1948 909M1985 863L2014 907M2070 804L2113 800M2225 822L2311 809M2225 822L2231 888M2311 809L2373 815M2373 815L2430 842M2373 815L2345 903M2430 842L2345 903M2430 842L2448 942M2546 858L2589 934M2546 858L2493 945M-14 858L29 934M29 934L-67 945M29 934L71 986M29 934L-26 976M2589 934L2493 945M2589 934L2534 976M158 960L195 926M158 960L71 986M158 960L147 1000M195 926L282 895M195 926L147 1000M195 926L261 990M282 895L345 900M282 895L261 990M345 900L437 919M345 900L376 962M437 919L376 962M437 919L437 1018M437 919L508 977M537 945L596 918M537 945L508 977M537 945L620 1015M596 918L670 897M596 918L620 1015M670 897L697 1018M797 916L854 946M797 916L791 965M797 916L865 996M854 946L908 902M854 946L791 965M854 946L865 996M908 902L963 914M963 914L1026 988M1119 935L1182 884M1119 935L1026 988M1119 935L1116 972M1119 935L1129 1006M1182 884L1257 930M1182 884L1116 972M1257 930L1241 974M1257 930L1301 992M1358 887L1371 934M1358 887L1362 985M1371 934L1301 992M1371 934L1362 985M1371 934L1380 1048M1495 928L1580 919M1495 928L1607 904M1495 928L1502 993M1580 919L1607 904M1580 919L1502 993M1607 904L1711 907M1711 907L1697 1003M1830 947L1911 887M1830 947L1825 1026M1830 947L1864 975M1830 947L1782 1047M1911 887L1948 909M1911 887L1864 975M1948 909L2014 907M1948 909L1864 975M1948 909L1945 1020M2156 908L2231 888M2156 908L2116 1024M2156 908L2232 961M2231 888L2296 916M2231 888L2232 961M2231 888L2285 982M2296 916L2345 903M2296 916L2232 961M2296 916L2285 982M2345 903L2285 982M2345 903L2357 1016M2448 942L2493 945M2448 942L2466 1036M2448 942L2534 976M2448 942L2408 1040M2493 945L2466 1036M2493 945L2534 976M71 986L147 1000M71 986L-26 976M71 986L46 1082M2631 986L2534 976M147 1000L228 1037M228 1037L261 990M228 1037L210 1088M228 1037L294 1076M228 1037L190 1131M261 990L210 1088M261 990L294 1076M376 962L437 1018M437 1018L508 977M437 1018L383 1074M437 1018L438 1086M508 977L567 1065M620 1015L697 1018M620 1015L567 1065M620 1015L644 1044M697 1018L791 965M697 1018L644 1044M697 1018L780 1070M791 965L865 996M791 965L780 1070M865 996L916 1026M865 996L937 1077M916 1026L937 1077M1026 988L1116 972M1026 988L1129 1006M1026 988L1027 1086M1116 972L1129 1006M1116 972L1137 1043M1129 1006L1110 1099M1129 1006L1137 1043M1241 974L1301 992M1241 974L1362 985M1301 992L1362 985M1301 992L1380 1048M1362 985L1380 1048M1502 993L1575 1023M1502 993L1502 1054M1575 1023L1627 1038M1575 1023L1502 1054M1575 1023L1581 1114M1575 1023L1634 1051M1627 1038L1697 1003M1627 1038L1581 1114M1627 1038L1634 1051M1627 1038L1696 1043M1697 1003L1634 1051M1697 1003L1696 1043M1697 1003L1782 1047M1825 1026L1864 975M1825 1026L1782 1047M1825 1026L1853 1105M1864 975L1945 1020M1945 1020L1952 1066M1945 1020L2038 1069M2061 1034L2116 1024M2061 1034L1952 1066M2061 1034L2038 1069M2116 1024L2038 1069M2116 1024L2149 1097M2116 1024L2164 1051M2232 961L2285 982M2232 961L2164 1051M2285 982L2357 1016M2357 1016L2466 1036M2357 1016L2326 1095M2357 1016L2408 1040M2466 1036L2534 976M2466 1036L2408 1040M46 1082L-10 1086M46 1082L53 1160M2606 1082L2550 1086M148 1119L210 1088M148 1119L95 1178M148 1119L190 1131M210 1088L294 1076M210 1088L190 1131M294 1076L383 1074M294 1076L305 1169M383 1074L438 1086M383 1074L305 1169M383 1074L436 1144M438 1086L514 1098M438 1086L436 1144M514 1098L567 1065M514 1098L436 1144M514 1098L522 1193M567 1065L644 1044M567 1065L631 1161M644 1044L631 1161M780 1070L853 1114M780 1070L788 1131M853 1114L937 1077M853 1114L788 1131M853 1114L867 1193M853 1114L888 1199M937 1077L1027 1086M937 1077L975 1139M1027 1086L1110 1099M1027 1086L975 1139M1110 1099L1137 1043M1110 1099L1091 1199M1110 1099L1159 1142M1137 1043L1159 1142M1137 1043L1230 1126M1236 1120L1311 1119M1236 1120L1159 1142M1236 1120L1230 1126M1311 1119L1380 1048M1311 1119L1230 1126M1311 1119L1353 1200M1311 1119L1322 1206M1502 1054L1485 1127M1581 1114L1634 1051M1581 1114L1532 1162M1581 1114L1626 1145M1634 1051L1696 1043M1696 1043L1782 1047M1696 1043L1626 1145M1782 1047L1853 1105M1853 1105L1952 1066M1853 1105L1780 1191M1853 1105L1849 1174M1952 1066L2038 1069M1952 1066L1994 1164M2038 1069L1994 1164M2149 1097L2164 1051M2149 1097L2247 1111M2149 1097L2116 1194M2149 1097L2181 1144M2164 1051L2247 1111M2164 1051L2181 1144M2247 1111L2326 1095M2247 1111L2181 1144M2247 1111L2301 1176M2326 1095L2408 1040M2326 1095L2301 1176M2326 1095L2331 1192M2408 1040L2417 1142M2550 1086L2556 1176M53 1160L95 1178M53 1160L-4 1176M53 1160L50 1233M53 1160L112 1215M2613 1160L2556 1176M95 1178L-4 1176M95 1178L50 1233M95 1178L112 1215M2655 1178L2556 1176M190 1131L192 1208M305 1169L341 1199M305 1169L250 1231M305 1169L386 1231M341 1199L250 1231M341 1199L386 1231M436 1144L522 1193M436 1144L386 1231M522 1193L446 1262M522 1193L498 1244M522 1193L607 1252M631 1161L715 1181M631 1161L607 1252M715 1181L788 1131M715 1181L676 1274M715 1181L782 1258M715 1181L723 1289M788 1131L867 1193M867 1193L888 1199M867 1193L874 1269M867 1193L957 1211M888 1199L975 1139M888 1199L874 1269M888 1199L957 1211M975 1139L957 1211M975 1139L984 1248M1091 1199L1159 1142M1091 1199L984 1248M1091 1199L1052 1267M1159 1142L1230 1126M1353 1200L1387 1194M1353 1200L1322 1206M1353 1200L1408 1248M1387 1194L1322 1206M1387 1194L1408 1248M1485 1127L1532 1162M1532 1162L1504 1231M1532 1162L1538 1257M1532 1162L1601 1224M1626 1145L1728 1185M1626 1145L1601 1224M1728 1185L1780 1191M1728 1185L1698 1275M1728 1185L1777 1260M1780 1191L1849 1174M1780 1191L1777 1260M1780 1191L1871 1215M1849 1174L1777 1260M1849 1174L1871 1215M1994 1164L2029 1187M1994 1164L1951 1231M1994 1164L2064 1202M2029 1187L2116 1194M2029 1187L1951 1231M2029 1187L2064 1202M2116 1194L2181 1144M2116 1194L2064 1202M2116 1194L2158 1212M2181 1144L2158 1212M2301 1176L2331 1192M2301 1176L2270 1235M2301 1176L2327 1248M2331 1192L2417 1142M2331 1192L2270 1235M2331 1192L2327 1248M2417 1142L2522 1219M2556 1176L2610 1233M2556 1176L2522 1219M-4 1176L50 1233M50 1233L112 1215M50 1233L-38 1219M2610 1233L2522 1219M112 1215L192 1208M112 1215L153 1298M192 1208L250 1231M192 1208L153 1298M250 1231L153 1298M250 1231L306 1329M386 1231L446 1262M386 1231L451 1288M446 1262L498 1244M446 1262L451 1288M498 1244L451 1288M607 1252L676 1274M607 1252L571 1348M676 1274L782 1258M676 1274L683 1335M676 1274L723 1289M782 1258L874 1269M782 1258L723 1289M782 1258L834 1353M874 1269L834 1353M874 1269L918 1356M957 1211L984 1248M984 1248L1052 1267M984 1248L996 1312M1052 1267L996 1312M1052 1267L1049 1359M1052 1267L1079 1361M1195 1260L1252 1272M1195 1260L1156 1297M1195 1260L1258 1307M1252 1272L1322 1206M1252 1272L1156 1297M1252 1272L1258 1307M1322 1206L1408 1248M1408 1248L1504 1231M1408 1248L1428 1310M1504 1231L1538 1257M1504 1231L1601 1224M1504 1231L1480 1331M1538 1257L1601 1224M1538 1257L1480 1331M1538 1257L1539 1350M1601 1224L1662 1296M1698 1275L1777 1260M1698 1275L1662 1296M1698 1275L1700 1352M1698 1275L1723 1362M1777 1260L1784 1340M1871 1215L1951 1231M1871 1215L1920 1299M1951 1231L1918 1321M1951 1231L1920 1299M2064 1202L2158 1212M2158 1212L2213 1265M2213 1265L2270 1235M2213 1265L2121 1320M2213 1265L2232 1341M2213 1265L2281 1295M2270 1235L2327 1248M2270 1235L2281 1295M2327 1248L2281 1295M2327 1248L2383 1330M2460 1269L2522 1219M2460 1269L2444 1340M2460 1269L2496 1287M2522 1219L2496 1287M50 1357L153 1298M50 1357L42 1389M153 1298L216 1336M216 1336L306 1329M216 1336L153 1415M216 1336L223 1439M216 1336L291 1404M306 1329L378 1359M306 1329L291 1404M306 1329L342 1384M378 1359L291 1404M378 1359L342 1384M378 1359L442 1377M451 1288L520 1344M451 1288L442 1377M520 1344L571 1348M520 1344L442 1377M520 1344L514 1404M520 1344L574 1408M571 1348L683 1335M571 1348L514 1404M571 1348L574 1408M683 1335L723 1289M683 1335L670 1427M683 1335L721 1428M834 1353L918 1356M834 1353L810 1426M834 1353L884 1386M918 1356L996 1312M918 1356L884 1386M996 1312L1049 1359M996 1312L1079 1361M1049 1359L1036 1438M1049 1359L1079 1361M1156 1297L1258 1307M1156 1297L1079 1361M1156 1297L1178 1394M1258 1307L1326 1337M1258 1307L1244 1393M1326 1337L1428 1310M1326 1337L1338 1416M1326 1337L1400 1397M1428 1310L1480 1331M1428 1310L1400 1397M1428 1310L1481 1376M1480 1331L1539 1350M1480 1331L1481 1376M1539 1350L1481 1376M1539 1350L1569 1403M1662 1296L1700 1352M1662 1296L1723 1362M1700 1352L1784 1340M1700 1352L1640 1418M1700 1352L1723 1362M1784 1340L1723 1362M1784 1340L1818 1367M1918 1321L1920 1299M1918 1321L2024 1300M1918 1321L1860 1421M1918 1321L1935 1421M1920 1299L2024 1300M2024 1300L2121 1320M2024 1300L2079 1387M2121 1320L2079 1387M2121 1320L2123 1371M2121 1320L2164 1369M2232 1341L2281 1295M2232 1341L2123 1371M2232 1341L2164 1369M2232 1341L2273 1419M2281 1295L2383 1330M2383 1330L2444 1340M2383 1330L2386 1385M2383 1330L2408 1417M2444 1340L2496 1287M2444 1340L2386 1385M2444 1340L2485 1382M2496 1287L2485 1382M153 1415L223 1439M223 1439L291 1404M291 1404L342 1384M342 1384L442 1377M442 1377L514 1404M514 1404L574 1408M574 1408L670 1427M670 1427L721 1428M721 1428L810 1426M810 1426L884 1386M1036 1438L1079 1361M1178 1394L1244 1393M1338 1416L1400 1397M1400 1397L1481 1376M1481 1376L1569 1403M1569 1403L1640 1418M1723 1362L1818 1367M1818 1367L1860 1421M1860 1421L1935 1421M2079 1387L2123 1371M2079 1387L2164 1369M2123 1371L2164 1369M2386 1385L2408 1417M2386 1385L2485 1382M2408 1417L2485 1382"/></svg>