<svg xmlns="http://www.w3.org/2000/svg" width="2560" height="1440" fill="#fff"><circle cx="16" cy="46" r="6"/><circle cx="137" cy="0" r="4"/><circle cx="137" cy="1440" r="4"/><circle cx="178" cy="71" r="5"/><circle cx="253" cy="12" r="5"/><circle cx="382" cy="4" r="6"/><circle cx="382" cy="1444" r="6"/><circle cx="404" cy="18" r="5"/><circle cx="541" cy="63" r="6"/><circle cx="562" cy="41" r="4"/><circle cx="679" cy="3" r="4"/><circle cx="679" cy="1443" r="4"/><circle cx="765" cy="34" r="6"/><circle cx="832" cy="52" r="5"/><circle cx="894" cy="63" r="6"/><circle cx="1031" cy="24" r="5"/><circle cx="1045" cy="70" r="4"/><circle cx="1142" cy="34" r="4"/><circle cx="1261" cy="66" r="5"/><circle cx="1304" cy="51" r="5"/><circle cx="1375" cy="51" r="5"/><circle cx="1491" cy="78" r="5"/><circle cx="1549" cy="57" r="5"/><circle cx="1640" cy="40" r="5"/><circle cx="1724" cy="61" r="5"/><circle cx="1787" cy="3" r="4"/><circle cx="1787" cy="1443" r="4"/><circle cx="1883" cy="18" r="5"/><circle cx="1989" cy="1" r="4"/><circle cx="1989" cy="1441" r="4"/><circle cx="2013" cy="21" r="5"/><circle cx="2110" cy="49" r="6"/><circle cx="2229" cy="9" r="6"/><circle cx="2285" cy="63" r="5"/><circle cx="2394" cy="57" r="5"/><circle cx="2441" cy="6" r="6"/><circle cx="2551" cy="25" r="5"/><circle cx="66" cy="91" r="4"/><circle cx="112" cy="108" r="6"/><circle cx="169" cy="160" r="5"/><circle cx="263" cy="131" r="5"/><circle cx="361" cy="128" r="6"/><circle cx="441" cy="156" r="6"/><circle cx="532" cy="160" r="6"/><circle cx="605" cy="131" r="4"/><circle cx="675" cy="146" r="6"/><circle cx="788" cy="87" r="4"/><circle cx="823" cy="97" r="4"/><circle cx="944" cy="82" r="6"/><circle cx="1022" cy="128" r="5"/><circle cx="1112" cy="114" r="5"/><circle cx="1143" cy="102" r="4"/><circle cx="1265" cy="103" r="5"/><circle cx="1290" cy="134" r="5"/><circle cx="1371" cy="90" r="5"/><circle cx="1500" cy="116" r="5"/><circle cx="1540" cy="145" r="6"/><circle cx="1603" cy="151" r="6"/><circle cx="1706" cy="89" r="5"/><circle cx="1816" cy="90" r="5"/><circle cx="1880" cy="116" r="5"/><circle cx="1980" cy="129" r="5"/><circle cx="2030" cy="97" r="6"/><circle cx="2124" cy="112" r="5"/><circle cx="2161" cy="100" r="6"/><circle cx="2316" cy="138" r="4"/><circle cx="2347" cy="142" r="4"/><circle cx="2452" cy="96" r="6"/><circle cx="2543" cy="152" r="4"/><circle cx="75" cy="214" r="4"/><circle cx="89" cy="183" r="4"/><circle cx="208" cy="186" r="6"/><circle cx="284" cy="233" r="5"/><circle cx="341" cy="171" r="4"/><circle cx="457" cy="223" r="5"/><circle cx="518" cy="185" r="6"/><circle cx="569" cy="223" r="5"/><circle cx="713" cy="212" r="4"/><circle cx="731" cy="233" r="5"/><circle cx="856" cy="176" r="5"/><circle cx="887" cy="216" r="4"/><circle cx="1025" cy="179" r="5"/><circle cx="1058" cy="220" r="4"/><circle cx="1135" cy="213" r="6"/><circle cx="1207" cy="208" r="4"/><circle cx="1284" cy="231" r="6"/><circle cx="1415" cy="191" r="5"/><circle cx="1454" cy="186" r="4"/><circle cx="1545" cy="200" r="5"/><circle cx="1621" cy="167" r="5"/><circle cx="1711" cy="227" r="5"/><circle cx="1834" cy="190" r="5"/><circle cx="1880" cy="192" r="5"/><circle cx="1984" cy="204" r="6"/><circle cx="2007" cy="174" r="4"/><circle cx="2154" cy="202" r="6"/><circle cx="2208" cy="166" r="6"/><circle cx="2255" cy="206" r="5"/><circle cx="2375" cy="166" r="5"/><circle cx="2434" cy="161" r="5"/><circle cx="2507" cy="198" r="5"/><circle cx="65" cy="298" r="5"/><circle cx="142" cy="250" r="5"/><circle cx="183" cy="270" r="5"/><circle cx="255" cy="296" r="5"/><circle cx="359" cy="294" r="5"/><circle cx="403" cy="270" r="4"/><circle cx="558" cy="241" r="4"/><circle cx="588" cy="250" r="6"/><circle cx="653" cy="297" r="5"/><circle cx="769" cy="319" r="5"/><circle cx="837" cy="290" r="6"/><circle cx="896" cy="261" r="6"/><circle cx="1015" cy="280" r="6"/><circle cx="1107" cy="279" r="5"/><circle cx="1141" cy="261" r="5"/><circle cx="1201" cy="274" r="5"/><circle cx="1299" cy="293" r="5"/><circle cx="1363" cy="256" r="5"/><circle cx="1441" cy="242" r="5"/><circle cx="1557" cy="265" r="6"/><circle cx="1631" cy="277" r="5"/><circle cx="1702" cy="313" r="6"/><circle cx="1763" cy="242" r="6"/><circle cx="1855" cy="272" r="6"/><circle cx="1952" cy="241" r="5"/><circle cx="2054" cy="251" r="5"/><circle cx="2116" cy="299" r="6"/><circle cx="2194" cy="317" r="4"/><circle cx="2293" cy="247" r="6"/><circle cx="2356" cy="277" r="6"/><circle cx="2445" cy="265" r="4"/><circle cx="2544" cy="254" r="5"/><circle cx="66" cy="392" r="5"/><circle cx="85" cy="324" r="5"/><circle cx="205" cy="398" r="6"/><circle cx="278" cy="343" r="5"/><circle cx="398" cy="347" r="5"/><circle cx="461" cy="362" r="5"/><circle cx="538" cy="391" r="4"/><circle cx="636" cy="351" r="5"/><circle cx="719" cy="370" r="5"/><circle cx="722" cy="339" r="4"/><circle cx="820" cy="369" r="5"/><circle cx="946" cy="338" r="5"/><circle cx="985" cy="393" r="4"/><circle cx="1081" cy="363" r="4"/><circle cx="1135" cy="365" r="6"/><circle cx="1222" cy="380" r="4"/><circle cx="1285" cy="376" r="6"/><circle cx="1382" cy="397" r="5"/><circle cx="1469" cy="393" r="5"/><circle cx="1546" cy="349" r="6"/><circle cx="1678" cy="349" r="6"/><circle cx="1750" cy="368" r="6"/><circle cx="1788" cy="327" r="5"/><circle cx="1841" cy="326" r="4"/><circle cx="1972" cy="342" r="6"/><circle cx="2005" cy="327" r="6"/><circle cx="2157" cy="380" r="4"/><circle cx="2237" cy="393" r="6"/><circle cx="2241" cy="353" r="5"/><circle cx="2354" cy="355" r="4"/><circle cx="2419" cy="330" r="5"/><circle cx="2509" cy="393" r="4"/><circle cx="24" cy="459" r="5"/><circle cx="105" cy="453" r="4"/><circle cx="177" cy="452" r="5"/><circle cx="300" cy="406" r="4"/><circle cx="366" cy="424" r="5"/><circle cx="430" cy="402" r="5"/><circle cx="483" cy="441" r="4"/><circle cx="637" cy="463" r="4"/><circle cx="672" cy="475" r="6"/><circle cx="762" cy="454" r="6"/><circle cx="803" cy="434" r="4"/><circle cx="895" cy="452" r="4"/><circle cx="960" cy="401" r="4"/><circle cx="1045" cy="425" r="5"/><circle cx="1129" cy="418" r="5"/><circle cx="1236" cy="416" r="5"/><circle cx="1318" cy="414" r="5"/><circle cx="1367" cy="443" r="5"/><circle cx="1465" cy="479" r="4"/><circle cx="1584" cy="420" r="5"/><circle cx="1655" cy="446" r="5"/><circle cx="1684" cy="408" r="6"/><circle cx="1818" cy="438" r="5"/><circle cx="1918" cy="473" r="5"/><circle cx="1924" cy="470" r="4"/><circle cx="2053" cy="452" r="6"/><circle cx="2088" cy="420" r="5"/><circle cx="2213" cy="475" r="6"/><circle cx="2284" cy="414" r="6"/><circle cx="2388" cy="448" r="6"/><circle cx="2432" cy="460" r="6"/><circle cx="2536" cy="465" r="5"/><circle cx="37" cy="559" r="4"/><circle cx="89" cy="524" r="5"/><circle cx="189" cy="521" r="4"/><circle cx="300" cy="553" r="6"/><circle cx="370" cy="538" r="5"/><circle cx="428" cy="493" r="6"/><circle cx="544" cy="512" r="5"/><circle cx="601" cy="488" r="5"/><circle cx="656" cy="493" r="6"/><circle cx="737" cy="527" r="5"/><circle cx="825" cy="527" r="5"/><circle cx="954" cy="490" r="5"/><circle cx="1034" cy="547" r="4"/><circle cx="1110" cy="515" r="5"/><circle cx="1175" cy="493" r="5"/><circle cx="1265" cy="486" r="5"/><circle cx="1335" cy="553" r="4"/><circle cx="1366" cy="533" r="5"/><circle cx="1453" cy="550" r="5"/><circle cx="1539" cy="486" r="4"/><circle cx="1632" cy="554" r="5"/><circle cx="1692" cy="488" r="5"/><circle cx="1821" cy="496" r="5"/><circle cx="1867" cy="543" r="6"/><circle cx="1933" cy="512" r="5"/><circle cx="2021" cy="515" r="4"/><circle cx="2096" cy="493" r="4"/><circle cx="2207" cy="554" r="5"/><circle cx="2290" cy="484" r="5"/><circle cx="2343" cy="534" r="5"/><circle cx="2417" cy="482" r="6"/><circle cx="2488" cy="525" r="6"/><circle cx="20" cy="590" r="5"/><circle cx="141" cy="608" r="6"/><circle cx="169" cy="573" r="4"/><circle cx="309" cy="571" r="6"/><circle cx="351" cy="626" r="5"/><circle cx="465" cy="572" r="5"/><circle cx="520" cy="569" r="4"/><circle cx="622" cy="640" r="6"/><circle cx="696" cy="569" r="6"/><circle cx="781" cy="603" r="4"/><circle cx="801" cy="566" r="6"/><circle cx="913" cy="571" r="5"/><circle cx="1004" cy="640" r="6"/><circle cx="1107" cy="592" r="4"/><circle cx="1145" cy="596" r="4"/><circle cx="1235" cy="595" r="4"/><circle cx="1309" cy="625" r="4"/><circle cx="1422" cy="630" r="5"/><circle cx="1451" cy="633" r="6"/><circle cx="1575" cy="577" r="6"/><circle cx="1635" cy="627" r="5"/><circle cx="1690" cy="609" r="6"/><circle cx="1795" cy="572" r="4"/><circle cx="1860" cy="619" r="6"/><circle cx="1982" cy="604" r="5"/><circle cx="2044" cy="588" r="4"/><circle cx="2088" cy="572" r="4"/><circle cx="2225" cy="566" r="6"/><circle cx="2289" cy="611" r="6"/><circle cx="2360" cy="574" r="4"/><circle cx="2431" cy="611" r="5"/><circle cx="2499" cy="630" r="4"/><circle cx="75" cy="688" r="4"/><circle cx="123" cy="691" r="4"/><circle cx="197" cy="655" r="4"/><circle cx="260" cy="710" r="5"/><circle cx="346" cy="714" r="6"/><circle cx="428" cy="661" r="6"/><circle cx="531" cy="687" r="5"/><circle cx="625" cy="691" r="5"/><circle cx="685" cy="669" r="6"/><circle cx="789" cy="693" r="6"/><circle cx="870" cy="715" r="5"/><circle cx="911" cy="671" r="5"/><circle cx="1007" cy="643" r="5"/><circle cx="1090" cy="643" r="4"/><circle cx="1199" cy="700" r="4"/><circle cx="1239" cy="678" r="6"/><circle cx="1313" cy="647" r="5"/><circle cx="1417" cy="679" r="4"/><circle cx="1496" cy="684" r="4"/><circle cx="1549" cy="652" r="4"/><circle cx="1600" cy="688" r="4"/><circle cx="1680" cy="686" r="5"/><circle cx="1777" cy="692" r="4"/><circle cx="1873" cy="700" r="5"/><circle cx="1931" cy="711" r="5"/><circle cx="2078" cy="693" r="5"/><circle cx="2126" cy="644" r="5"/><circle cx="2214" cy="694" r="6"/><circle cx="2299" cy="642" r="5"/><circle cx="2365" cy="641" r="5"/><circle cx="2453" cy="681" r="6"/><circle cx="2540" cy="703" r="4"/><circle cx="41" cy="799" r="5"/><circle cx="142" cy="787" r="5"/><circle cx="237" cy="797" r="5"/><circle cx="310" cy="770" r="5"/><circle cx="335" cy="757" r="6"/><circle cx="456" cy="764" r="5"/><circle cx="490" cy="733" r="5"/><circle cx="612" cy="736" r="4"/><circle cx="701" cy="737" r="5"/><circle cx="753" cy="758" r="5"/><circle cx="865" cy="778" r="4"/><circle cx="883" cy="780" r="4"/><circle cx="988" cy="755" r="4"/><circle cx="1077" cy="757" r="5"/><circle cx="1176" cy="737" r="5"/><circle cx="1275" cy="785" r="4"/><circle cx="1350" cy="727" r="4"/><circle cx="1370" cy="794" r="4"/><circle cx="1513" cy="721" r="6"/><circle cx="1588" cy="731" r="6"/><circle cx="1645" cy="720" r="6"/><circle cx="1742" cy="777" r="5"/><circle cx="1827" cy="745" r="6"/><circle cx="1863" cy="755" r="4"/><circle cx="1971" cy="761" r="6"/><circle cx="2019" cy="794" r="5"/><circle cx="2150" cy="779" r="5"/><circle cx="2212" cy="783" r="4"/><circle cx="2257" cy="777" r="5"/><circle cx="2392" cy="739" r="4"/><circle cx="2443" cy="800" r="5"/><circle cx="2500" cy="748" r="5"/><circle cx="19" cy="832" r="5"/><circle cx="143" cy="847" r="5"/><circle cx="170" cy="842" r="5"/><circle cx="309" cy="819" r="4"/><circle cx="338" cy="835" r="5"/><circle cx="463" cy="854" r="6"/><circle cx="510" cy="862" r="5"/><circle cx="562" cy="851" r="4"/><circle cx="672" cy="819" r="4"/><circle cx="774" cy="871" r="4"/><circle cx="823" cy="814" r="6"/><circle cx="953" cy="826" r="5"/><circle cx="1036" cy="843" r="4"/><circle cx="1050" cy="819" r="6"/><circle cx="1167" cy="837" r="4"/><circle cx="1271" cy="851" r="6"/><circle cx="1331" cy="843" r="6"/><circle cx="1369" cy="847" r="6"/><circle cx="1445" cy="877" r="5"/><circle cx="1564" cy="859" r="4"/><circle cx="1621" cy="813" r="4"/><circle cx="1748" cy="823" r="6"/><circle cx="1805" cy="863" r="6"/><circle cx="1875" cy="862" r="5"/><circle cx="1989" cy="875" r="6"/><circle cx="2036" cy="875" r="5"/><circle cx="2089" cy="873" r="4"/><circle cx="2236" cy="868" r="5"/><circle cx="2302" cy="859" r="6"/><circle cx="2368" cy="800" r="6"/><circle cx="2417" cy="825" r="4"/><circle cx="2559" cy="833" r="5"/><circle cx="-1" cy="833" r="5"/><circle cx="34" cy="911" r="5"/><circle cx="154" cy="930" r="4"/><circle cx="182" cy="948" r="5"/><circle cx="243" cy="918" r="5"/><circle cx="325" cy="905" r="5"/><circle cx="472" cy="938" r="4"/><circle cx="558" cy="885" r="6"/><circle cx="602" cy="917" r="5"/><circle cx="652" cy="930" r="5"/><circle cx="723" cy="906" r="5"/><circle cx="810" cy="917" r="5"/><circle cx="959" cy="938" r="5"/><circle cx="1023" cy="932" r="5"/><circle cx="1072" cy="950" r="6"/><circle cx="1129" cy="922" r="5"/><circle cx="1262" cy="933" r="4"/><circle cx="1285" cy="906" r="5"/><circle cx="1371" cy="915" r="4"/><circle cx="1493" cy="928" r="4"/><circle cx="1521" cy="943" r="5"/><circle cx="1624" cy="910" r="5"/><circle cx="1707" cy="944" r="6"/><circle cx="1825" cy="897" r="6"/><circle cx="1860" cy="887" r="5"/><circle cx="1986" cy="907" r="5"/><circle cx="2055" cy="942" r="6"/><circle cx="2159" cy="883" r="6"/><circle cx="2224" cy="932" r="5"/><circle cx="2315" cy="950" r="6"/><circle cx="2363" cy="957" r="5"/><circle cx="2420" cy="918" r="4"/><circle cx="2497" cy="914" r="5"/><circle cx="31" cy="1011" r="4"/><circle cx="126" cy="1000" r="5"/><circle cx="219" cy="1037" r="6"/><circle cx="251" cy="1017" r="5"/><circle cx="375" cy="990" r="5"/><circle cx="423" cy="1006" r="6"/><circle cx="501" cy="967" r="5"/><circle cx="579" cy="1001" r="5"/><circle cx="698" cy="983" r="6"/><circle cx="744" cy="1025" r="4"/><circle cx="825" cy="989" r="4"/><circle cx="924" cy="996" r="5"/><circle cx="1005" cy="1033" r="4"/><circle cx="1101" cy="979" r="5"/><circle cx="1166" cy="1011" r="4"/><circle cx="1202" cy="1010" r="4"/><circle cx="1319" cy="982" r="6"/><circle cx="1431" cy="1009" r="5"/><circle cx="1445" cy="1002" r="5"/><circle cx="1583" cy="1010" r="6"/><circle cx="1612" cy="974" r="6"/><circle cx="1725" cy="977" r="6"/><circle cx="1829" cy="960" r="4"/><circle cx="1867" cy="1014" r="5"/><circle cx="1954" cy="977" r="5"/><circle cx="2074" cy="1016" r="5"/><circle cx="2087" cy="997" r="5"/><circle cx="2181" cy="978" r="5"/><circle cx="2316" cy="984" r="5"/><circle cx="2371" cy="979" r="4"/><circle cx="2408" cy="996" r="5"/><circle cx="2557" cy="981" r="6"/><circle cx="-3" cy="981" r="6"/><circle cx="18" cy="1068" r="5"/><circle cx="143" cy="1060" r="5"/><circle cx="188" cy="1083" r="6"/><circle cx="309" cy="1073" r="6"/><circle cx="323" cy="1103" r="5"/><circle cx="440" cy="1096" r="6"/><circle cx="557" cy="1084" r="5"/><circle cx="597" cy="1090" r="5"/><circle cx="675" cy="1113" r="5"/><circle cx="771" cy="1042" r="5"/><circle cx="879" cy="1078" r="6"/><circle cx="945" cy="1085" r="5"/><circle cx="1038" cy="1101" r="6"/><circle cx="1078" cy="1118" r="5"/><circle cx="1156" cy="1078" r="5"/><circle cx="1279" cy="1087" r="4"/><circle cx="1319" cy="1089" r="5"/><circle cx="1404" cy="1081" r="4"/><circle cx="1442" cy="1094" r="4"/><circle cx="1536" cy="1047" r="4"/><circle cx="1613" cy="1116" r="5"/><circle cx="1753" cy="1084" r="5"/><circle cx="1777" cy="1096" r="4"/><circle cx="1841" cy="1101" r="5"/><circle cx="1921" cy="1100" r="5"/><circle cx="2041" cy="1076" r="6"/><circle cx="2097" cy="1110" r="5"/><circle cx="2187" cy="1115" r="5"/><circle cx="2241" cy="1080" r="5"/><circle cx="2321" cy="1077" r="6"/><circle cx="2447" cy="1119" r="5"/><circle cx="2493" cy="1041" r="6"/><circle cx="31" cy="1193" r="5"/><circle cx="156" cy="1125" r="4"/><circle cx="188" cy="1174" r="5"/><circle cx="300" cy="1190" r="5"/><circle cx="370" cy="1189" r="4"/><circle cx="416" cy="1181" r="4"/><circle cx="539" cy="1189" r="5"/><circle cx="582" cy="1139" r="5"/><circle cx="660" cy="1198" r="5"/><circle cx="723" cy="1129" r="5"/><circle cx="876" cy="1163" r="5"/><circle cx="890" cy="1149" r="5"/><circle cx="1000" cy="1196" r="4"/><circle cx="1055" cy="1145" r="5"/><circle cx="1148" cy="1140" r="6"/><circle cx="1206" cy="1180" r="6"/><circle cx="1353" cy="1124" r="6"/><circle cx="1367" cy="1197" r="6"/><circle cx="1498" cy="1130" r="6"/><circle cx="1558" cy="1156" r="6"/><circle cx="1638" cy="1142" r="5"/><circle cx="1713" cy="1190" r="6"/><circle cx="1796" cy="1136" r="6"/><circle cx="1850" cy="1128" r="5"/><circle cx="1926" cy="1178" r="5"/><circle cx="2059" cy="1131" r="6"/><circle cx="2100" cy="1157" r="6"/><circle cx="2231" cy="1133" r="6"/><circle cx="2246" cy="1170" r="4"/><circle cx="2384" cy="1188" r="6"/><circle cx="2409" cy="1166" r="4"/><circle cx="2485" cy="1153" r="6"/><circle cx="55" cy="1209" r="5"/><circle cx="139" cy="1241" r="5"/><circle cx="224" cy="1239" r="6"/><circle cx="274" cy="1203" r="5"/><circle cx="321" cy="1274" r="4"/><circle cx="418" cy="1236" r="6"/><circle cx="511" cy="1260" r="6"/><circle cx="593" cy="1229" r="4"/><circle cx="654" cy="1274" r="5"/><circle cx="756" cy="1228" r="5"/><circle cx="841" cy="1263" r="6"/><circle cx="906" cy="1200" r="4"/><circle cx="1035" cy="1224" r="5"/><circle cx="1077" cy="1214" r="6"/><circle cx="1175" cy="1264" r="6"/><circle cx="1247" cy="1212" r="6"/><circle cx="1292" cy="1209" r="6"/><circle cx="1417" cy="1234" r="5"/><circle cx="1451" cy="1244" r="6"/><circle cx="1545" cy="1278" r="6"/><circle cx="1658" cy="1257" r="6"/><circle cx="1693" cy="1217" r="5"/><circle cx="1770" cy="1201" r="5"/><circle cx="1869" cy="1230" r="6"/><circle cx="1997" cy="1214" r="5"/><circle cx="2009" cy="1204" r="5"/><circle cx="2116" cy="1204" r="6"/><circle cx="2228" cy="1221" r="4"/><circle cx="2301" cy="1243" r="5"/><circle cx="2346" cy="1219" r="5"/><circle cx="2474" cy="1209" r="5"/><circle cx="2533" cy="1221" r="4"/><circle cx="28" cy="1343" r="5"/><circle cx="80" cy="1293" r="6"/><circle cx="167" cy="1304" r="4"/><circle cx="284" cy="1307" r="5"/><circle cx="331" cy="1359" r="5"/><circle cx="418" cy="1319" r="5"/><circle cx="555" cy="1287" r="5"/><circle cx="590" cy="1354" r="6"/><circle cx="690" cy="1291" r="4"/><circle cx="773" cy="1358" r="4"/><circle cx="866" cy="1289" r="4"/><circle cx="930" cy="1338" r="6"/><circle cx="982" cy="1314" r="4"/><circle cx="1057" cy="1310" r="5"/><circle cx="1155" cy="1281" r="4"/><circle cx="1209" cy="1309" r="5"/><circle cx="1310" cy="1286" r="5"/><circle cx="1361" cy="1297" r="6"/><circle cx="1498" cy="1297" r="6"/><circle cx="1571" cy="1311" r="4"/><circle cx="1644" cy="1352" r="6"/><circle cx="1722" cy="1341" r="5"/><circle cx="1800" cy="1360" r="6"/><circle cx="1844" cy="1347" r="5"/><circle cx="1921" cy="1290" r="6"/><circle cx="2016" cy="1316" r="5"/><circle cx="2151" cy="1344" r="4"/><circle cx="2214" cy="1351" r="4"/><circle cx="2240" cy="1283" r="6"/><circle cx="2365" cy="1349" r="6"/><circle cx="2429" cy="1298" r="4"/><circle cx="2546" cy="1316" r="4"/><circle cx="28" cy="1391" r="6"/><circle cx="124" cy="1432" r="5"/><circle cx="196" cy="1400" r="4"/><circle cx="290" cy="1361" r="4"/><circle cx="322" cy="1416" r="5"/><circle cx="431" cy="1429" r="5"/><circle cx="545" cy="1379" r="5"/><circle cx="602" cy="1418" r="4"/><circle cx="706" cy="1418" r="5"/><circle cx="772" cy="1368" r="4"/><circle cx="815" cy="1371" r="5"/><circle cx="882" cy="1374" r="4"/><circle cx="985" cy="1392" r="5"/><circle cx="1043" cy="1398" r="5"/><circle cx="1184" cy="1438" r="5"/><circle cx="1184" cy="-2" r="5"/><circle cx="1205" cy="1380" r="5"/><circle cx="1315" cy="1407" r="4"/><circle cx="1361" cy="1373" r="6"/><circle cx="1470" cy="1370" r="5"/><circle cx="1578" cy="1391" r="6"/><circle cx="1672" cy="1387" r="6"/><circle cx="1725" cy="1383" r="4"/><circle cx="1765" cy="1416" r="6"/><circle cx="1879" cy="1376" r="5"/><circle cx="1965" cy="1425" r="4"/><circle cx="2038" cy="1365" r="4"/><circle cx="2122" cy="1399" r="5"/><circle cx="2200" cy="1390" r="5"/><circle cx="2271" cy="1364" r="5"/><circle cx="2390" cy="1395" r="5"/><circle cx="2451" cy="1366" r="4"/><circle cx="2519" cy="1386" r="5"/><path stroke="#fff" d="M16 46L-9 25M16 46L66 91M16 46L112 108M16 46L-17 152M16 46L28 -49M2576 46L2551 25M2576 46L2543 152M16 1486L28 1391M137 0L178 71M137 0L124 -8M137 0L196 -40M137 1440L124 1432M137 1440L196 1400M178 71L253 12M178 71L112 108M178 71L169 160M178 71L124 -8M178 1511L124 1432M253 12L263 131M253 12L196 -40M253 12L290 -79M253 12L322 -24M253 1452L196 1400M253 1452L290 1361M253 1452L322 1416M382 4L404 18M382 4L361 128M382 4L331 -81M382 4L322 -24M382 4L431 -11M382 1444L331 1359M382 1444L322 1416M382 1444L431 1429M404 18L361 128M404 18L322 -24M404 18L431 -11M404 1458L322 1416M404 1458L431 1429M541 63L562 41M541 63L605 131M541 63L602 -22M541 1503L602 1418M562 41L545 -61M562 41L602 -22M562 1481L545 1379M562 1481L602 1418M679 3L765 34M679 3L602 -22M679 3L706 -22M679 1443L602 1418M679 1443L706 1418M765 34L832 52M765 34L788 87M765 34L823 97M765 34L706 -22M765 1474L706 1418M832 52L894 63M832 52L788 87M832 52L823 97M832 52L944 82M894 63L788 87M894 63L823 97M894 63L944 82M894 63L856 176M1031 24L1045 70M1031 24L944 82M1031 24L1022 128M1031 24L985 -48M1031 24L1043 -42M1031 1464L985 1392M1031 1464L1043 1398M1045 70L944 82M1045 70L1022 128M1045 70L1112 114M1045 70L1143 102M1142 34L1112 114M1142 34L1143 102M1142 34L1184 -2M1142 1474L1184 1438M1261 66L1304 51M1261 66L1265 103M1261 66L1290 134M1261 66L1371 90M1261 66L1184 -2M1261 1506L1184 1438M1304 51L1375 51M1304 51L1265 103M1304 51L1290 134M1304 51L1371 90M1375 51L1371 90M1375 51L1315 -33M1375 51L1361 -67M1375 1491L1315 1407M1375 1491L1361 1373M1491 78L1549 57M1491 78L1500 116M1491 78L1540 145M1549 57L1640 40M1549 57L1500 116M1549 57L1603 151M1640 40L1724 61M1640 40L1706 89M1640 40L1578 -49M1640 1480L1578 1391M1724 61L1787 3M1724 61L1706 89M1724 61L1816 90M1724 61L1765 -24M1724 1501L1765 1416M1787 3L1816 90M1787 3L1725 -57M1787 3L1765 -24M1787 1443L1725 1383M1787 1443L1765 1416M1883 18L1816 90M1883 18L1880 116M1883 18L1879 -64M1883 18L1965 -15M1883 1458L1879 1376M1883 1458L1965 1425M1989 1L2013 21M1989 1L1965 -15M1989 1L2038 -75M1989 1441L1965 1425M1989 1441L2038 1365M2013 21L2110 49M2013 21L2030 97M2013 21L1965 -15M2013 21L2038 -75M2013 1461L1965 1425M2013 1461L2038 1365M2110 49L2030 97M2110 49L2124 112M2110 49L2161 100M2110 49L2122 -41M2110 1489L2122 1399M2229 9L2285 63M2229 9L2161 100M2229 9L2214 -89M2229 9L2200 -50M2229 9L2271 -76M2229 1449L2214 1351M2229 1449L2200 1390M2229 1449L2271 1364M2285 63L2394 57M2285 63L2316 138M2285 63L2347 142M2394 57L2441 6M2394 57L2347 142M2394 57L2452 96M2394 57L2390 -45M2394 1497L2390 1395M2441 6L2452 96M2441 6L2390 -45M2441 6L2451 -74M2441 1446L2390 1395M2441 1446L2451 1366M2551 25L2626 91M2551 25L2588 -49M2551 25L2519 -54M-9 25L66 91M-9 25L28 -49M-9 1465L28 1391M2551 1465L2588 1391M2551 1465L2519 1386M66 91L112 108M66 91L89 183M112 108L169 160M112 108L89 183M169 160L89 183M169 160L208 186M263 131L361 128M263 131L208 186M263 131L284 233M263 131L341 171M361 128L441 156M361 128L341 171M441 156L532 160M441 156L341 171M441 156L457 223M441 156L518 185M532 160L605 131M532 160L518 185M532 160L569 223M532 160L558 241M605 131L675 146M605 131L569 223M675 146L713 212M675 146L731 233M675 146L588 250M788 87L823 97M823 97L856 176M944 82L1022 128M1022 128L1112 114M1022 128L1025 179M1112 114L1143 102M1143 102L1184 -2M1143 1542L1184 1438M1265 103L1290 134M1265 103L1371 90M1290 134L1371 90M1290 134L1284 231M1500 116L1540 145M1500 116L1454 186M1500 116L1545 200M1540 145L1603 151M1540 145L1545 200M1540 145L1621 167M1603 151L1545 200M1603 151L1621 167M1603 151L1557 265M1816 90L1880 116M1816 90L1834 190M1880 116L1980 129M1880 116L1834 190M1880 116L1880 192M1980 129L2030 97M1980 129L1984 204M1980 129L2007 174M2030 97L2124 112M2030 97L2007 174M2124 112L2161 100M2124 112L2154 202M2124 112L2208 166M2161 100L2154 202M2161 100L2208 166M2316 138L2347 142M2316 138L2255 206M2316 138L2375 166M2316 138L2293 247M2347 142L2375 166M2347 142L2434 161M2452 96L2543 152M2452 96L2375 166M2452 96L2434 161M2543 152L2507 198M2543 152L2544 254M75 214L89 183M75 214L65 298M75 214L142 250M75 214L-16 254M75 214L85 324M2635 214L2544 254M89 183L142 250M208 186L284 233M208 186L142 250M208 186L183 270M284 233L341 171M284 233L255 296M284 233L359 294M457 223L518 185M457 223L403 270M457 223L558 241M518 185L569 223M518 185L558 241M569 223L558 241M569 223L588 250M713 212L731 233M731 233L653 297M731 233L769 319M856 176L887 216M856 176L837 290M856 176L896 261M887 216L837 290M887 216L896 261M1025 179L1058 220M1025 179L1015 280M1058 220L1135 213M1058 220L1015 280M1058 220L1107 279M1135 213L1207 208M1135 213L1107 279M1135 213L1141 261M1135 213L1201 274M1207 208L1284 231M1207 208L1141 261M1207 208L1201 274M1284 231L1201 274M1284 231L1299 293M1284 231L1363 256M1415 191L1454 186M1415 191L1363 256M1415 191L1441 242M1454 186L1363 256M1454 186L1441 242M1545 200L1621 167M1545 200L1557 265M1621 167L1711 227M1621 167L1557 265M1711 227L1631 277M1711 227L1702 313M1711 227L1763 242M1834 190L1880 192M1834 190L1763 242M1834 190L1855 272M1880 192L1984 204M1880 192L1855 272M1880 192L1952 241M1984 204L2007 174M1984 204L1952 241M1984 204L2054 251M2007 174L1952 241M2007 174L2054 251M2154 202L2208 166M2154 202L2255 206M2154 202L2116 299M2208 166L2255 206M2208 166L2293 247M2255 206L2293 247M2375 166L2434 161M2375 166L2356 277M2434 161L2507 198M2434 161L2445 265M2507 198L2445 265M2507 198L2544 254M65 298L142 250M65 298L-16 254M65 298L66 392M65 298L85 324M2625 298L2544 254M142 250L183 270M183 270L255 296M183 270L85 324M255 296L359 294M255 296L205 398M255 296L278 343M359 294L403 270M359 294L278 343M359 294L398 347M403 270L398 347M558 241L588 250M588 250L653 297M588 250L636 351M653 297L636 351M653 297L719 370M653 297L722 339M769 319L837 290M769 319L719 370M769 319L722 339M769 319L820 369M837 290L896 261M837 290L820 369M896 261L1015 280M896 261L946 338M1015 280L1107 279M1015 280L946 338M1107 279L1141 261M1107 279L1135 365M1141 261L1201 274M1141 261L1135 365M1201 274L1299 293M1299 293L1363 256M1299 293L1285 376M1363 256L1441 242M1557 265L1631 277M1557 265L1546 349M1631 277L1702 313M1631 277L1546 349M1631 277L1678 349M1702 313L1678 349M1702 313L1750 368M1702 313L1788 327M1763 242L1855 272M1763 242L1788 327M1855 272L1788 327M1855 272L1841 326M1952 241L1972 342M1952 241L2005 327M2054 251L2116 299M2054 251L1972 342M2054 251L2005 327M2116 299L2194 317M2116 299L2005 327M2116 299L2157 380M2194 317L2157 380M2194 317L2237 393M2194 317L2241 353M2293 247L2356 277M2293 247L2241 353M2356 277L2445 265M2356 277L2354 355M2356 277L2419 330M2445 265L2544 254M2445 265L2419 330M66 392L85 324M66 392L24 459M66 392L105 453M66 392L-24 465M2626 392L2536 465M205 398L278 343M205 398L105 453M205 398L177 452M205 398L300 406M278 343L300 406M398 347L461 362M398 347L366 424M398 347L430 402M461 362L538 391M461 362L366 424M461 362L430 402M461 362L483 441M538 391L636 351M538 391L483 441M636 351L719 370M636 351L722 339M719 370L722 339M719 370L762 454M722 339L820 369M820 369L803 434M946 338L985 393M946 338L960 401M985 393L1081 363M985 393L960 401M985 393L1045 425M985 393L954 490M1081 363L1135 365M1081 363L1045 425M1081 363L1129 418M1135 365L1222 380M1135 365L1129 418M1222 380L1285 376M1222 380L1236 416M1285 376L1382 397M1285 376L1236 416M1285 376L1318 414M1382 397L1469 393M1382 397L1318 414M1382 397L1367 443M1469 393L1546 349M1469 393L1465 479M1469 393L1584 420M1546 349L1584 420M1678 349L1750 368M1678 349L1655 446M1678 349L1684 408M1750 368L1788 327M1750 368L1684 408M1750 368L1818 438M1788 327L1841 326M1972 342L2005 327M1972 342L2053 452M2005 327L2053 452M2157 380L2237 393M2157 380L2241 353M2157 380L2088 420M2237 393L2241 353M2237 393L2213 475M2237 393L2284 414M2241 353L2284 414M2354 355L2419 330M2354 355L2284 414M2354 355L2388 448M2419 330L2509 393M2509 393L2432 460M2509 393L2536 465M24 459L105 453M24 459L-24 465M24 459L37 559M24 459L89 524M2584 459L2536 465M105 453L177 452M105 453L89 524M177 452L189 521M177 452L169 573M300 406L366 424M366 424L430 402M366 424L428 493M430 402L483 441M430 402L428 493M483 441L428 493M483 441L544 512M637 463L672 475M637 463L601 488M637 463L656 493M672 475L762 454M672 475L601 488M672 475L656 493M672 475L737 527M762 454L803 434M762 454L737 527M762 454L825 527M803 434L895 452M803 434L825 527M895 452L960 401M895 452L954 490M960 401L1045 425M960 401L954 490M1045 425L1129 418M1129 418L1110 515M1129 418L1175 493M1236 416L1318 414M1236 416L1175 493M1236 416L1265 486M1318 414L1367 443M1318 414L1265 486M1367 443L1465 479M1367 443L1265 486M1367 443L1366 533M1465 479L1453 550M1465 479L1539 486M1584 420L1655 446M1584 420L1684 408M1584 420L1539 486M1655 446L1684 408M1655 446L1632 554M1655 446L1692 488M1684 408L1692 488M1818 438L1918 473M1818 438L1924 470M1818 438L1821 496M1918 473L1924 470M1918 473L1821 496M1918 473L1867 543M1918 473L1933 512M1924 470L1933 512M2053 452L2088 420M2053 452L2021 515M2053 452L2096 493M2088 420L2096 493M2213 475L2284 414M2213 475L2207 554M2213 475L2290 484M2213 475L2225 566M2284 414L2290 484M2388 448L2432 460M2388 448L2290 484M2388 448L2343 534M2388 448L2417 482M2432 460L2536 465M2432 460L2417 482M2432 460L2488 525M2536 465L2488 525M37 559L89 524M37 559L20 590M89 524L20 590M89 524L141 608M189 521L300 553M189 521L141 608M189 521L169 573M189 521L309 571M300 553L370 538M300 553L309 571M300 553L351 626M370 538L428 493M370 538L309 571M370 538L351 626M370 538L465 572M428 493L465 572M544 512L601 488M544 512L465 572M544 512L520 569M601 488L656 493M656 493L737 527M656 493L696 569M737 527L696 569M737 527L801 566M825 527L781 603M825 527L801 566M825 527L913 571M954 490L1034 547M954 490L913 571M1034 547L1110 515M1034 547L1004 640M1034 547L1107 592M1034 547L1007 643M1110 515L1175 493M1110 515L1107 592M1110 515L1145 596M1175 493L1265 486M1175 493L1145 596M1265 486L1335 553M1335 553L1366 533M1335 553L1309 625M1335 553L1313 647M1366 533L1453 550M1366 533L1309 625M1366 533L1422 630M1453 550L1422 630M1453 550L1451 633M1539 486L1575 577M1632 554L1692 488M1632 554L1575 577M1632 554L1635 627M1632 554L1690 609M1821 496L1867 543M1821 496L1795 572M1867 543L1933 512M1867 543L1795 572M1867 543L1860 619M1933 512L2021 515M1933 512L1982 604M2021 515L2096 493M2021 515L1982 604M2021 515L2044 588M2096 493L2088 572M2207 554L2225 566M2207 554L2126 644M2290 484L2343 534M2290 484L2225 566M2343 534L2417 482M2343 534L2289 611M2343 534L2360 574M2417 482L2488 525M2488 525L2580 590M2488 525L2431 611M-72 525L20 590M20 590L-61 630M2580 590L2499 630M141 608L169 573M141 608L123 691M141 608L197 655M169 573L197 655M309 571L351 626M351 626L346 714M351 626L428 661M465 572L520 569M465 572L428 661M622 640L696 569M622 640L531 687M622 640L625 691M622 640L685 669M622 640L612 736M696 569L801 566M696 569L685 669M781 603L801 566M781 603L789 693M801 566L913 571M913 571L1004 640M913 571L911 671M1004 640L911 671M1004 640L1007 643M1004 640L1090 643M1107 592L1145 596M1107 592L1007 643M1107 592L1090 643M1145 596L1235 595M1145 596L1090 643M1235 595L1309 625M1235 595L1239 678M1235 595L1313 647M1309 625L1239 678M1309 625L1313 647M1422 630L1451 633M1422 630L1417 679M1422 630L1496 684M1451 633L1417 679M1451 633L1496 684M1451 633L1513 721M1575 577L1635 627M1575 577L1690 609M1575 577L1549 652M1635 627L1690 609M1635 627L1600 688M1635 627L1680 686M1690 609L1680 686M1795 572L1860 619M1860 619L1777 692M1860 619L1873 700M1860 619L1931 711M1982 604L2044 588M1982 604L2088 572M2044 588L2088 572M2044 588L2078 693M2044 588L2126 644M2088 572L2126 644M2225 566L2289 611M2225 566L2299 642M2289 611L2360 574M2289 611L2299 642M2289 611L2365 641M2360 574L2431 611M2360 574L2299 642M2360 574L2365 641M2431 611L2499 630M2431 611L2365 641M2431 611L2453 681M2499 630L2453 681M2499 630L2540 703M75 688L123 691M75 688L-20 703M2635 688L2540 703M123 691L197 655M123 691L142 787M197 655L260 710M260 710L346 714M260 710L237 797M260 710L335 757M346 714L428 661M346 714L310 770M346 714L335 757M428 661L531 687M428 661L490 733M531 687L625 691M531 687L490 733M531 687L612 736M625 691L685 669M625 691L612 736M625 691L701 737M685 669L789 693M685 669L701 737M789 693L870 715M789 693L701 737M789 693L753 758M870 715L911 671M870 715L865 778M870 715L883 780M911 671L1007 643M911 671L988 755M1007 643L1090 643M1090 643L1077 757M1199 700L1239 678M1199 700L1176 737M1239 678L1313 647M1239 678L1176 737M1313 647L1350 727M1417 679L1496 684M1417 679L1350 727M1417 679L1513 721M1496 684L1549 652M1496 684L1513 721M1549 652L1600 688M1549 652L1513 721M1549 652L1588 731M1600 688L1680 686M1600 688L1588 731M1600 688L1645 720M1680 686L1645 720M1777 692L1873 700M1777 692L1742 777M1777 692L1827 745M1873 700L1931 711M1873 700L1827 745M1873 700L1863 755M1931 711L1863 755M1931 711L1971 761M2078 693L2126 644M2078 693L1971 761M2078 693L2019 794M2078 693L2150 779M2126 644L2214 694M2214 694L2299 642M2214 694L2150 779M2214 694L2212 783M2214 694L2257 777M2299 642L2365 641M2365 641L2453 681M2453 681L2392 739M2453 681L2500 748M2540 703L2500 748M41 799L142 787M41 799L-60 748M41 799L19 832M41 799L-1 833M2601 799L2500 748M2601 799L2559 833M142 787L237 797M142 787L143 847M142 787L170 842M237 797L310 770M237 797L170 842M237 797L309 819M310 770L335 757M310 770L309 819M310 770L338 835M335 757L309 819M335 757L338 835M456 764L490 733M456 764L463 854M612 736L672 819M701 737L753 758M701 737L672 819M753 758L865 778M753 758L672 819M753 758L823 814M865 778L883 780M865 778L823 814M883 780L823 814M883 780L953 826M988 755L1077 757M988 755L953 826M988 755L1050 819M1077 757L1176 737M1077 757L1036 843M1077 757L1050 819M1176 737L1275 785M1176 737L1167 837M1275 785L1350 727M1275 785L1370 794M1275 785L1271 851M1275 785L1331 843M1350 727L1370 794M1370 794L1331 843M1370 794L1369 847M1513 721L1588 731M1588 731L1645 720M1588 731L1621 813M1645 720L1742 777M1645 720L1621 813M1742 777L1827 745M1742 777L1748 823M1742 777L1805 863M1827 745L1863 755M1827 745L1748 823M1863 755L1971 761M1863 755L1875 862M1971 761L2019 794M2019 794L1989 875M2019 794L2036 875M2019 794L2089 873M2150 779L2212 783M2150 779L2159 883M2212 783L2257 777M2212 783L2236 868M2257 777L2236 868M2257 777L2302 859M2257 777L2368 800M2392 739L2443 800M2392 739L2368 800M2392 739L2417 825M2443 800L2500 748M2443 800L2368 800M2443 800L2417 825M2500 748L2559 833M19 832L143 847M19 832L-1 833M19 832L34 911M19 832L-63 914M2579 832L2559 833M2579 832L2497 914M143 847L170 842M143 847L154 930M170 842L154 930M309 819L338 835M309 819L325 905M338 835L325 905M463 854L510 862M463 854L562 851M463 854L472 938M463 854L558 885M510 862L562 851M510 862L472 938M510 862L558 885M562 851L558 885M562 851L602 917M672 819L652 930M672 819L723 906M774 871L823 814M774 871L723 906M774 871L810 917M823 814L810 917M953 826L1036 843M953 826L1050 819M953 826L959 938M1036 843L1050 819M1036 843L1023 932M1167 837L1129 922M1271 851L1331 843M1271 851L1369 847M1271 851L1262 933M1271 851L1285 906M1331 843L1369 847M1331 843L1285 906M1369 847L1445 877M1369 847L1371 915M1445 877L1371 915M1445 877L1493 928M1445 877L1521 943M1564 859L1621 813M1564 859L1624 910M1621 813L1624 910M1748 823L1805 863M1748 823L1707 944M1748 823L1825 897M1805 863L1875 862M1805 863L1825 897M1805 863L1860 887M1875 862L1825 897M1875 862L1860 887M1989 875L2036 875M1989 875L2089 873M1989 875L1986 907M2036 875L2089 873M2036 875L1986 907M2036 875L2055 942M2089 873L2055 942M2089 873L2159 883M2236 868L2302 859M2236 868L2159 883M2236 868L2224 932M2302 859L2368 800M2302 859L2224 932M2302 859L2315 950M2368 800L2417 825M2417 825L2420 918M2559 833L2594 911M2559 833L2497 914M-1 833L34 911M34 911L-63 914M34 911L31 1011M34 911L-3 981M2594 911L2497 914M2594 911L2557 981M154 930L182 948M154 930L243 918M154 930L126 1000M182 948L243 918M182 948L126 1000M182 948L219 1037M182 948L251 1017M243 918L325 905M243 918L251 1017M325 905L375 990M472 938L423 1006M472 938L501 967M558 885L602 917M558 885L501 967M602 917L652 930M602 917L579 1001M602 917L698 983M652 930L723 906M652 930L579 1001M652 930L698 983M723 906L810 917M723 906L698 983M810 917L825 989M959 938L1023 932M959 938L1072 950M959 938L924 996M959 938L1005 1033M1023 932L1072 950M1023 932L1129 922M1023 932L1101 979M1072 950L1129 922M1072 950L1005 1033M1072 950L1101 979M1129 922L1101 979M1129 922L1166 1011M1262 933L1285 906M1262 933L1202 1010M1262 933L1319 982M1285 906L1371 915M1285 906L1319 982M1371 915L1319 982M1493 928L1521 943M1493 928L1431 1009M1493 928L1445 1002M1521 943L1445 1002M1521 943L1583 1010M1521 943L1612 974M1624 910L1707 944M1624 910L1583 1010M1624 910L1612 974M1707 944L1612 974M1707 944L1725 977M1825 897L1860 887M1825 897L1829 960M1860 887L1829 960M1986 907L2055 942M1986 907L1954 977M2055 942L2074 1016M2055 942L2087 997M2159 883L2224 932M2159 883L2181 978M2224 932L2315 950M2224 932L2181 978M2315 950L2363 957M2315 950L2316 984M2315 950L2371 979M2363 957L2420 918M2363 957L2316 984M2363 957L2371 979M2363 957L2408 996M2420 918L2497 914M2420 918L2371 979M2420 918L2408 996M2497 914L2557 981M31 1011L-3 981M31 1011L18 1068M2591 1011L2557 981M126 1000L143 1060M219 1037L251 1017M219 1037L143 1060M219 1037L188 1083M219 1037L309 1073M251 1017L188 1083M251 1017L309 1073M375 990L423 1006M375 990L309 1073M423 1006L501 967M423 1006L440 1096M501 967L579 1001M579 1001L557 1084M579 1001L597 1090M698 983L744 1025M698 983L771 1042M744 1025L825 989M744 1025L771 1042M744 1025L723 1129M825 989L924 996M825 989L771 1042M924 996L1005 1033M924 996L879 1078M924 996L945 1085M1005 1033L945 1085M1005 1033L1038 1101M1101 979L1166 1011M1166 1011L1202 1010M1166 1011L1156 1078M1202 1010L1156 1078M1202 1010L1279 1087M1319 982L1431 1009M1319 982L1319 1089M1431 1009L1445 1002M1431 1009L1404 1081M1431 1009L1442 1094M1445 1002L1404 1081M1445 1002L1442 1094M1583 1010L1612 974M1583 1010L1536 1047M1583 1010L1613 1116M1612 974L1725 977M1725 977L1829 960M1725 977L1753 1084M1829 960L1867 1014M1867 1014L1954 977M1867 1014L1921 1100M2074 1016L2087 997M2074 1016L2041 1076M2087 997L2181 978M2087 997L2041 1076M2181 978L2241 1080M2316 984L2371 979M2316 984L2408 996M2316 984L2321 1077M2371 979L2408 996M2408 996L2493 1041M2557 981L2578 1068M2557 981L2493 1041M-3 981L18 1068M18 1068L143 1060M18 1068L-67 1041M2578 1068L2493 1041M143 1060L188 1083M143 1060L156 1125M188 1083L156 1125M188 1083L188 1174M309 1073L323 1103M323 1103L440 1096M323 1103L300 1190M323 1103L370 1189M440 1096L557 1084M440 1096L416 1181M557 1084L597 1090M557 1084L539 1189M557 1084L582 1139M597 1090L675 1113M597 1090L582 1139M675 1113L582 1139M675 1113L660 1198M675 1113L723 1129M771 1042L879 1078M771 1042L723 1129M879 1078L945 1085M879 1078L876 1163M879 1078L890 1149M945 1085L1038 1101M945 1085L890 1149M1038 1101L1078 1118M1038 1101L1000 1196M1038 1101L1055 1145M1078 1118L1156 1078M1078 1118L1055 1145M1078 1118L1148 1140M1078 1118L1077 1214M1156 1078L1148 1140M1156 1078L1206 1180M1279 1087L1319 1089M1279 1087L1353 1124M1319 1089L1404 1081M1319 1089L1353 1124M1404 1081L1442 1094M1404 1081L1353 1124M1442 1094L1353 1124M1442 1094L1498 1130M1536 1047L1613 1116M1536 1047L1498 1130M1536 1047L1558 1156M1613 1116L1498 1130M1613 1116L1558 1156M1613 1116L1638 1142M1753 1084L1777 1096M1753 1084L1841 1101M1753 1084L1796 1136M1777 1096L1841 1101M1777 1096L1796 1136M1777 1096L1850 1128M1777 1096L1770 1201M1841 1101L1921 1100M1841 1101L1796 1136M1841 1101L1850 1128M1921 1100L1850 1128M1921 1100L1926 1178M2041 1076L2097 1110M2041 1076L2059 1131M2041 1076L2100 1157M2097 1110L2187 1115M2097 1110L2059 1131M2097 1110L2100 1157M2097 1110L2116 1204M2187 1115L2241 1080M2187 1115L2100 1157M2187 1115L2231 1133M2187 1115L2246 1170M2241 1080L2321 1077M2241 1080L2231 1133M2241 1080L2246 1170M2321 1077L2231 1133M2447 1119L2493 1041M2447 1119L2384 1188M2447 1119L2409 1166M2447 1119L2485 1153M2447 1119L2474 1209M2493 1041L2485 1153M31 1193L55 1209M31 1193L-27 1221M2591 1193L2533 1221M156 1125L188 1174M188 1174L139 1241M188 1174L224 1239M188 1174L274 1203M300 1190L370 1189M300 1190L224 1239M300 1190L274 1203M300 1190L321 1274M370 1189L416 1181M370 1189L274 1203M370 1189L418 1236M416 1181L418 1236M539 1189L582 1139M539 1189L511 1260M539 1189L593 1229M582 1139L660 1198M660 1198L723 1129M660 1198L593 1229M660 1198L654 1274M723 1129L756 1228M876 1163L890 1149M876 1163L756 1228M876 1163L841 1263M876 1163L906 1200M890 1149L906 1200M1000 1196L1055 1145M1000 1196L906 1200M1000 1196L1035 1224M1000 1196L1077 1214M1055 1145L1035 1224M1055 1145L1077 1214M1148 1140L1206 1180M1148 1140L1077 1214M1206 1180L1175 1264M1206 1180L1247 1212M1206 1180L1292 1209M1353 1124L1367 1197M1367 1197L1292 1209M1367 1197L1417 1234M1367 1197L1451 1244M1367 1197L1361 1297M1498 1130L1558 1156M1558 1156L1638 1142M1638 1142L1713 1190M1638 1142L1693 1217M1713 1190L1658 1257M1713 1190L1693 1217M1713 1190L1770 1201M1796 1136L1850 1128M1796 1136L1770 1201M1850 1128L1926 1178M1926 1178L1869 1230M1926 1178L1997 1214M1926 1178L2009 1204M2059 1131L2100 1157M2059 1131L2009 1204M2059 1131L2116 1204M2100 1157L2116 1204M2231 1133L2246 1170M2231 1133L2228 1221M2246 1170L2228 1221M2246 1170L2301 1243M2384 1188L2409 1166M2384 1188L2301 1243M2384 1188L2346 1219M2384 1188L2474 1209M2409 1166L2485 1153M2409 1166L2346 1219M2409 1166L2474 1209M2485 1153L2474 1209M2485 1153L2533 1221M55 1209L139 1241M55 1209L-27 1221M55 1209L80 1293M2615 1209L2533 1221M139 1241L224 1239M139 1241L80 1293M139 1241L167 1304M224 1239L274 1203M224 1239L167 1304M274 1203L321 1274M321 1274L418 1236M321 1274L284 1307M418 1236L511 1260M418 1236L418 1319M511 1260L593 1229M511 1260L418 1319M511 1260L555 1287M593 1229L654 1274M593 1229L555 1287M654 1274L555 1287M654 1274L590 1354M654 1274L690 1291M756 1228L841 1263M756 1228L690 1291M841 1263L906 1200M841 1263L866 1289M841 1263L930 1338M906 1200L866 1289M1035 1224L1077 1214M1035 1224L982 1314M1035 1224L1057 1310M1175 1264L1247 1212M1175 1264L1155 1281M1175 1264L1209 1309M1175 1264L1205 1380M1247 1212L1292 1209M1247 1212L1209 1309M1247 1212L1310 1286M1292 1209L1310 1286M1417 1234L1451 1244M1417 1234L1361 1297M1417 1234L1498 1297M1451 1244L1545 1278M1451 1244L1361 1297M1451 1244L1498 1297M1545 1278L1658 1257M1545 1278L1498 1297M1545 1278L1571 1311M1545 1278L1578 1391M1658 1257L1693 1217M1658 1257L1644 1352M1693 1217L1770 1201M1770 1201L1869 1230M1869 1230L1844 1347M1869 1230L1921 1290M1997 1214L2009 1204M1997 1214L1921 1290M1997 1214L2016 1316M2009 1204L2116 1204M2009 1204L2016 1316M2116 1204L2228 1221M2228 1221L2301 1243M2228 1221L2240 1283M2301 1243L2346 1219M2301 1243L2240 1283M2346 1219L2365 1349M2474 1209L2533 1221M2533 1221L2546 1316M28 1343L80 1293M28 1343L-14 1316M28 1343L28 1391M28 1343L124 1432M28 1343L-41 1386M2588 1343L2546 1316M2588 1343L2519 1386M80 1293L167 1304M167 1304L284 1307M167 1304L196 1400M284 1307L331 1359M284 1307L290 1361M331 1359L418 1319M331 1359L290 1361M331 1359L322 1416M418 1319L431 1429M555 1287L590 1354M555 1287L545 1379M590 1354L690 1291M590 1354L545 1379M590 1354L602 1418M690 1291L773 1358M773 1358L706 1418M773 1358L772 1368M773 1358L815 1371M773 1358L882 1374M866 1289L930 1338M866 1289L815 1371M866 1289L882 1374M930 1338L982 1314M930 1338L882 1374M930 1338L985 1392M982 1314L1057 1310M982 1314L985 1392M982 1314L1043 1398M1057 1310L1155 1281M1057 1310L1043 1398M1155 1281L1209 1309M1155 1281L1205 1380M1209 1309L1310 1286M1209 1309L1205 1380M1310 1286L1361 1297M1310 1286L1361 1373M1361 1297L1361 1373M1498 1297L1571 1311M1498 1297L1470 1370M1571 1311L1644 1352M1571 1311L1578 1391M1644 1352L1722 1341M1644 1352L1578 1391M1644 1352L1672 1387M1722 1341L1800 1360M1722 1341L1672 1387M1722 1341L1725 1383M1722 1341L1765 1416M1800 1360L1844 1347M1800 1360L1725 1383M1800 1360L1765 1416M1800 1360L1879 1376M1844 1347L1921 1290M1844 1347L1879 1376M1921 1290L2016 1316M1921 1290L1879 1376M2016 1316L2038 1365M2016 1316L2122 1399M2151 1344L2214 1351M2151 1344L2240 1283M2151 1344L2122 1399M2151 1344L2200 1390M2214 1351L2240 1283M2214 1351L2200 1390M2214 1351L2271 1364M2240 1283L2271 1364M2365 1349L2429 1298M2365 1349L2271 1364M2365 1349L2390 1395M2365 1349L2451 1366M2429 1298L2390 1395M2429 1298L2451 1366M2546 1316L2588 1391M2546 1316L2519 1386M-14 1316L28 1391M28 1391L-41 1386M2588 1391L2519 1386M124 1432L196 1400M196 1400L290 1361M290 1361L322 1416M545 1379L602 1418M706 1418L772 1368M706 1418L815 1371M772 1368L815 1371M815 1371L882 1374M882 1374L985 1392M985 1392L1043 1398M1184 1438L1205 1380M1205 1380L1315 1407M1315 1407L1361 1373M1361 1373L1470 1370M1578 1391L1672 1387M1672 1387L1725 1383M1725 1383L1765 1416M1879 1376L1965 1425M1965 1425L2038 1365M2038 1365L2122 1399M2122 1399L2200 1390M2200 1390L2271 1364M2390 1395L2451 1366M2451 1366L2519 1386"/></svg>