<svg xmlns="http://www.w3.org/2000/svg" width="2560" height="1440" fill="#fff"><circle cx="46" cy="24" r="5"/><circle cx="101" cy="18" r="6"/><circle cx="169" cy="14" r="5"/><circle cx="316" cy="9" r="6"/><circle cx="389" cy="67" r="5"/><circle cx="441" cy="77" r="4"/><circle cx="538" cy="61" r="5"/><circle cx="633" cy="53" r="5"/><circle cx="699" cy="36" r="5"/><circle cx="774" cy="39" r="5"/><circle cx="812" cy="65" r="5"/><circle cx="955" cy="20" r="4"/><circle cx="1023" cy="62" r="5"/><circle cx="1040" cy="51" r="5"/><circle cx="1129" cy="2" r="5"/><circle cx="1129" cy="1442" r="5"/><circle cx="1252" cy="55" r="4"/><circle cx="1283" cy="61" r="6"/><circle cx="1362" cy="17" r="6"/><circle cx="1469" cy="44" r="5"/><circle cx="1539" cy="3" r="5"/><circle cx="1539" cy="1443" r="5"/><circle cx="1627" cy="10" r="4"/><circle cx="1683" cy="10" r="5"/><circle cx="1772" cy="61" r="6"/><circle cx="1885" cy="39" r="5"/><circle cx="1922" cy="6" r="6"/><circle cx="2038" cy="37" r="5"/><circle cx="2130" cy="1" r="5"/><circle cx="2130" cy="1441" r="5"/><circle cx="2205" cy="46" r="6"/><circle cx="2242" cy="11" r="5"/><circle cx="2392" cy="65" r="5"/><circle cx="2432" cy="57" r="5"/><circle cx="2508" cy="75" r="5"/><circle cx="72" cy="130" r="5"/><circle cx="129" cy="96" r="5"/><circle cx="165" cy="127" r="5"/><circle cx="285" cy="112" r="5"/><circle cx="354" cy="152" r="5"/><circle cx="472" cy="125" r="4"/><circle cx="547" cy="99" r="5"/><circle cx="586" cy="155" r="4"/><circle cx="702" cy="101" r="5"/><circle cx="788" cy="118" r="5"/><circle cx="837" cy="124" r="5"/><circle cx="933" cy="115" r="5"/><circle cx="1024" cy="117" r="5"/><circle cx="1091" cy="101" r="6"/><circle cx="1182" cy="142" r="4"/><circle cx="1230" cy="129" r="6"/><circle cx="1338" cy="110" r="5"/><circle cx="1408" cy="131" r="6"/><circle cx="1488" cy="90" r="6"/><circle cx="1521" cy="145" r="6"/><circle cx="1626" cy="108" r="4"/><circle cx="1754" cy="122" r="5"/><circle cx="1840" cy="144" r="4"/><circle cx="1888" cy="90" r="5"/><circle cx="1957" cy="82" r="4"/><circle cx="2027" cy="151" r="5"/><circle cx="2116" cy="91" r="5"/><circle cx="2203" cy="99" r="4"/><circle cx="2256" cy="131" r="5"/><circle cx="2370" cy="153" r="5"/><circle cx="2445" cy="137" r="6"/><circle cx="2541" cy="117" r="6"/><circle cx="38" cy="223" r="5"/><circle cx="100" cy="189" r="6"/><circle cx="208" cy="226" r="6"/><circle cx="307" cy="191" r="5"/><circle cx="344" cy="176" r="6"/><circle cx="430" cy="182" r="5"/><circle cx="529" cy="163" r="6"/><circle cx="599" cy="184" r="5"/><circle cx="663" cy="197" r="4"/><circle cx="743" cy="231" r="5"/><circle cx="867" cy="196" r="4"/><circle cx="956" cy="161" r="6"/><circle cx="978" cy="220" r="5"/><circle cx="1091" cy="229" r="5"/><circle cx="1140" cy="230" r="4"/><circle cx="1221" cy="223" r="5"/><circle cx="1345" cy="222" r="4"/><circle cx="1385" cy="187" r="5"/><circle cx="1518" cy="231" r="6"/><circle cx="1572" cy="204" r="4"/><circle cx="1670" cy="176" r="4"/><circle cx="1751" cy="219" r="5"/><circle cx="1779" cy="191" r="5"/><circle cx="1891" cy="166" r="5"/><circle cx="1986" cy="202" r="5"/><circle cx="2042" cy="198" r="6"/><circle cx="2147" cy="197" r="5"/><circle cx="2179" cy="211" r="5"/><circle cx="2297" cy="230" r="5"/><circle cx="2383" cy="164" r="6"/><circle cx="2446" cy="178" r="4"/><circle cx="2507" cy="168" r="6"/><circle cx="43" cy="293" r="5"/><circle cx="156" cy="276" r="5"/><circle cx="185" cy="304" r="5"/><circle cx="266" cy="262" r="5"/><circle cx="350" cy="294" r="4"/><circle cx="443" cy="310" r="6"/><circle cx="512" cy="306" r="5"/><circle cx="633" cy="315" r="5"/><circle cx="656" cy="249" r="5"/><circle cx="726" cy="276" r="5"/><circle cx="867" cy="304" r="4"/><circle cx="927" cy="251" r="5"/><circle cx="1002" cy="282" r="5"/><circle cx="1042" cy="306" r="4"/><circle cx="1156" cy="294" r="5"/><circle cx="1275" cy="261" r="4"/><circle cx="1348" cy="288" r="4"/><circle cx="1365" cy="309" r="4"/><circle cx="1500" cy="268" r="4"/><circle cx="1573" cy="260" r="6"/><circle cx="1635" cy="314" r="5"/><circle cx="1733" cy="242" r="6"/><circle cx="1782" cy="300" r="5"/><circle cx="1886" cy="240" r="4"/><circle cx="1928" cy="261" r="5"/><circle cx="2007" cy="245" r="4"/><circle cx="2153" cy="253" r="4"/><circle cx="2213" cy="285" r="6"/><circle cx="2297" cy="259" r="5"/><circle cx="2348" cy="305" r="4"/><circle cx="2473" cy="275" r="5"/><circle cx="2485" cy="270" r="5"/><circle cx="51" cy="341" r="5"/><circle cx="137" cy="357" r="5"/><circle cx="180" cy="349" r="5"/><circle cx="283" cy="361" r="4"/><circle cx="340" cy="388" r="5"/><circle cx="459" cy="333" r="6"/><circle cx="553" cy="360" r="6"/><circle cx="627" cy="338" r="6"/><circle cx="686" cy="324" r="6"/><circle cx="746" cy="363" r="4"/><circle cx="838" cy="380" r="6"/><circle cx="937" cy="345" r="4"/><circle cx="966" cy="389" r="5"/><circle cx="1063" cy="395" r="5"/><circle cx="1164" cy="394" r="4"/><circle cx="1213" cy="387" r="6"/><circle cx="1338" cy="329" r="6"/><circle cx="1386" cy="388" r="4"/><circle cx="1484" cy="389" r="5"/><circle cx="1596" cy="394" r="5"/><circle cx="1645" cy="382" r="5"/><circle cx="1753" cy="373" r="4"/><circle cx="1789" cy="333" r="5"/><circle cx="1900" cy="330" r="5"/><circle cx="1945" cy="382" r="5"/><circle cx="2056" cy="360" r="5"/><circle cx="2152" cy="380" r="4"/><circle cx="2166" cy="385" r="4"/><circle cx="2255" cy="350" r="5"/><circle cx="2397" cy="333" r="6"/><circle cx="2439" cy="321" r="6"/><circle cx="2505" cy="349" r="5"/><circle cx="12" cy="480" r="6"/><circle cx="96" cy="449" r="4"/><circle cx="165" cy="476" r="5"/><circle cx="243" cy="414" r="5"/><circle cx="338" cy="450" r="4"/><circle cx="446" cy="453" r="5"/><circle cx="505" cy="471" r="5"/><circle cx="616" cy="471" r="5"/><circle cx="653" cy="446" r="5"/><circle cx="784" cy="419" r="5"/><circle cx="856" cy="422" r="5"/><circle cx="883" cy="446" r="5"/><circle cx="987" cy="448" r="6"/><circle cx="1091" cy="414" r="4"/><circle cx="1191" cy="459" r="5"/><circle cx="1217" cy="478" r="6"/><circle cx="1282" cy="435" r="6"/><circle cx="1428" cy="467" r="4"/><circle cx="1507" cy="417" r="5"/><circle cx="1600" cy="465" r="5"/><circle cx="1619" cy="478" r="5"/><circle cx="1734" cy="418" r="5"/><circle cx="1836" cy="420" r="5"/><circle cx="1900" cy="477" r="4"/><circle cx="1996" cy="441" r="5"/><circle cx="2012" cy="435" r="5"/><circle cx="2104" cy="473" r="6"/><circle cx="2176" cy="415" r="4"/><circle cx="2302" cy="457" r="6"/><circle cx="2380" cy="406" r="4"/><circle cx="2463" cy="470" r="5"/><circle cx="2484" cy="479" r="6"/><circle cx="8" cy="542" r="6"/><circle cx="139" cy="538" r="4"/><circle cx="181" cy="544" r="5"/><circle cx="298" cy="493" r="5"/><circle cx="385" cy="549" r="5"/><circle cx="410" cy="558" r="5"/><circle cx="492" cy="544" r="5"/><circle cx="597" cy="481" r="5"/><circle cx="642" cy="531" r="5"/><circle cx="723" cy="545" r="4"/><circle cx="871" cy="509" r="4"/><circle cx="886" cy="546" r="6"/><circle cx="965" cy="549" r="6"/><circle cx="1076" cy="510" r="4"/><circle cx="1159" cy="490" r="5"/><circle cx="1266" cy="540" r="5"/><circle cx="1303" cy="543" r="5"/><circle cx="1371" cy="522" r="4"/><circle cx="1514" cy="499" r="4"/><circle cx="1571" cy="492" r="5"/><circle cx="1656" cy="542" r="6"/><circle cx="1682" cy="554" r="4"/><circle cx="1773" cy="512" r="4"/><circle cx="1876" cy="495" r="4"/><circle cx="1979" cy="541" r="5"/><circle cx="2032" cy="493" r="5"/><circle cx="2140" cy="529" r="4"/><circle cx="2174" cy="519" r="5"/><circle cx="2276" cy="489" r="5"/><circle cx="2393" cy="523" r="6"/><circle cx="2480" cy="558" r="5"/><circle cx="2481" cy="501" r="6"/><circle cx="10" cy="565" r="5"/><circle cx="106" cy="619" r="6"/><circle cx="213" cy="577" r="5"/><circle cx="307" cy="605" r="5"/><circle cx="366" cy="612" r="5"/><circle cx="467" cy="616" r="5"/><circle cx="527" cy="625" r="4"/><circle cx="579" cy="589" r="5"/><circle cx="671" cy="584" r="5"/><circle cx="795" cy="596" r="6"/><circle cx="876" cy="595" r="4"/><circle cx="951" cy="578" r="5"/><circle cx="1005" cy="572" r="4"/><circle cx="1070" cy="599" r="5"/><circle cx="1133" cy="610" r="6"/><circle cx="1265" cy="593" r="4"/><circle cx="1284" cy="599" r="4"/><circle cx="1415" cy="619" r="5"/><circle cx="1487" cy="566" r="5"/><circle cx="1548" cy="568" r="4"/><circle cx="1652" cy="599" r="5"/><circle cx="1682" cy="561" r="4"/><circle cx="1827" cy="626" r="4"/><circle cx="1865" cy="604" r="5"/><circle cx="1929" cy="608" r="6"/><circle cx="2043" cy="582" r="5"/><circle cx="2133" cy="624" r="6"/><circle cx="2182" cy="583" r="4"/><circle cx="2294" cy="619" r="5"/><circle cx="2360" cy="601" r="4"/><circle cx="2405" cy="571" r="5"/><circle cx="2519" cy="570" r="4"/><circle cx="27" cy="668" r="4"/><circle cx="153" cy="709" r="6"/><circle cx="196" cy="657" r="4"/><circle cx="309" cy="696" r="4"/><circle cx="373" cy="678" r="5"/><circle cx="417" cy="652" r="4"/><circle cx="552" cy="713" r="4"/><circle cx="630" cy="671" r="5"/><circle cx="705" cy="693" r="5"/><circle cx="737" cy="668" r="5"/><circle cx="867" cy="652" r="5"/><circle cx="927" cy="685" r="4"/><circle cx="1026" cy="718" r="6"/><circle cx="1108" cy="663" r="5"/><circle cx="1123" cy="640" r="5"/><circle cx="1205" cy="654" r="5"/><circle cx="1322" cy="646" r="4"/><circle cx="1381" cy="667" r="6"/><circle cx="1495" cy="658" r="6"/><circle cx="1572" cy="642" r="5"/><circle cx="1623" cy="709" r="6"/><circle cx="1753" cy="650" r="5"/><circle cx="1813" cy="654" r="4"/><circle cx="1917" cy="668" r="6"/><circle cx="2000" cy="697" r="6"/><circle cx="2045" cy="706" r="5"/><circle cx="2142" cy="659" r="5"/><circle cx="2163" cy="689" r="5"/><circle cx="2319" cy="642" r="4"/><circle cx="2374" cy="714" r="4"/><circle cx="2465" cy="666" r="6"/><circle cx="2514" cy="695" r="4"/><circle cx="11" cy="727" r="5"/><circle cx="120" cy="757" r="5"/><circle cx="228" cy="784" r="5"/><circle cx="263" cy="775" r="4"/><circle cx="399" cy="722" r="5"/><circle cx="421" cy="734" r="4"/><circle cx="523" cy="794" r="4"/><circle cx="569" cy="728" r="6"/><circle cx="665" cy="751" r="5"/><circle cx="758" cy="792" r="5"/><circle cx="874" cy="727" r="5"/><circle cx="940" cy="796" r="5"/><circle cx="987" cy="731" r="4"/><circle cx="1044" cy="799" r="5"/><circle cx="1129" cy="788" r="4"/><circle cx="1231" cy="735" r="4"/><circle cx="1357" cy="777" r="5"/><circle cx="1366" cy="758" r="6"/><circle cx="1463" cy="786" r="4"/><circle cx="1586" cy="753" r="5"/><circle cx="1646" cy="742" r="4"/><circle cx="1750" cy="756" r="5"/><circle cx="1826" cy="798" r="4"/><circle cx="1852" cy="789" r="5"/><circle cx="1949" cy="756" r="4"/><circle cx="2005" cy="737" r="5"/><circle cx="2138" cy="728" r="5"/><circle cx="2183" cy="749" r="6"/><circle cx="2275" cy="766" r="5"/><circle cx="2352" cy="733" r="5"/><circle cx="2456" cy="789" r="6"/><circle cx="2500" cy="753" r="5"/><circle cx="23" cy="841" r="4"/><circle cx="139" cy="875" r="5"/><circle cx="188" cy="829" r="5"/><circle cx="266" cy="807" r="5"/><circle cx="396" cy="805" r="5"/><circle cx="442" cy="824" r="4"/><circle cx="538" cy="828" r="5"/><circle cx="592" cy="875" r="4"/><circle cx="680" cy="873" r="6"/><circle cx="723" cy="835" r="5"/><circle cx="828" cy="864" r="5"/><circle cx="898" cy="867" r="5"/><circle cx="1024" cy="852" r="4"/><circle cx="1114" cy="859" r="4"/><circle cx="1195" cy="815" r="4"/><circle cx="1215" cy="875" r="4"/><circle cx="1342" cy="837" r="5"/><circle cx="1369" cy="833" r="5"/><circle cx="1449" cy="834" r="6"/><circle cx="1554" cy="810" r="5"/><circle cx="1610" cy="850" r="4"/><circle cx="1726" cy="857" r="6"/><circle cx="1825" cy="803" r="5"/><circle cx="1919" cy="815" r="5"/><circle cx="1982" cy="811" r="5"/><circle cx="2022" cy="824" r="5"/><circle cx="2110" cy="844" r="4"/><circle cx="2179" cy="820" r="4"/><circle cx="2285" cy="839" r="4"/><circle cx="2380" cy="807" r="5"/><circle cx="2435" cy="839" r="5"/><circle cx="2496" cy="854" r="5"/><circle cx="38" cy="905" r="4"/><circle cx="148" cy="932" r="5"/><circle cx="183" cy="886" r="5"/><circle cx="315" cy="907" r="4"/><circle cx="341" cy="956" r="5"/><circle cx="474" cy="925" r="6"/><circle cx="550" cy="894" r="4"/><circle cx="625" cy="909" r="5"/><circle cx="672" cy="899" r="6"/><circle cx="755" cy="893" r="4"/><circle cx="836" cy="904" r="5"/><circle cx="939" cy="940" r="5"/><circle cx="984" cy="949" r="5"/><circle cx="1045" cy="899" r="4"/><circle cx="1197" cy="939" r="5"/><circle cx="1207" cy="903" r="4"/><circle cx="1333" cy="896" r="5"/><circle cx="1394" cy="932" r="4"/><circle cx="1513" cy="888" r="5"/><circle cx="1578" cy="954" r="5"/><circle cx="1631" cy="946" r="6"/><circle cx="1702" cy="958" r="5"/><circle cx="1817" cy="960" r="4"/><circle cx="1868" cy="898" r="6"/><circle cx="1974" cy="895" r="4"/><circle cx="2062" cy="916" r="5"/><circle cx="2134" cy="954" r="5"/><circle cx="2163" cy="928" r="4"/><circle cx="2277" cy="932" r="4"/><circle cx="2397" cy="939" r="5"/><circle cx="2402" cy="910" r="6"/><circle cx="2489" cy="934" r="4"/><circle cx="21" cy="981" r="5"/><circle cx="103" cy="1016" r="5"/><circle cx="197" cy="996" r="6"/><circle cx="298" cy="967" r="6"/><circle cx="339" cy="990" r="5"/><circle cx="454" cy="1036" r="4"/><circle cx="488" cy="972" r="6"/><circle cx="638" cy="971" r="5"/><circle cx="719" cy="1011" r="5"/><circle cx="738" cy="990" r="5"/><circle cx="853" cy="1012" r="5"/><circle cx="913" cy="980" r="6"/><circle cx="1033" cy="1040" r="5"/><circle cx="1090" cy="977" r="5"/><circle cx="1128" cy="973" r="5"/><circle cx="1210" cy="1004" r="6"/><circle cx="1352" cy="1033" r="5"/><circle cx="1360" cy="1028" r="5"/><circle cx="1475" cy="1040" r="5"/><circle cx="1566" cy="998" r="5"/><circle cx="1634" cy="989" r="6"/><circle cx="1725" cy="961" r="5"/><circle cx="1770" cy="1024" r="5"/><circle cx="1877" cy="1010" r="5"/><circle cx="1944" cy="988" r="5"/><circle cx="2027" cy="971" r="6"/><circle cx="2104" cy="992" r="4"/><circle cx="2160" cy="1032" r="6"/><circle cx="2296" cy="997" r="5"/><circle cx="2387" cy="1024" r="6"/><circle cx="2465" cy="1020" r="5"/><circle cx="2532" cy="971" r="5"/><circle cx="21" cy="1051" r="5"/><circle cx="111" cy="1111" r="5"/><circle cx="235" cy="1047" r="5"/><circle cx="282" cy="1057" r="5"/><circle cx="323" cy="1061" r="5"/><circle cx="415" cy="1115" r="4"/><circle cx="557" cy="1041" r="5"/><circle cx="580" cy="1049" r="5"/><circle cx="691" cy="1105" r="5"/><circle cx="798" cy="1057" r="5"/><circle cx="865" cy="1097" r="5"/><circle cx="893" cy="1117" r="4"/><circle cx="992" cy="1094" r="5"/><circle cx="1099" cy="1090" r="6"/><circle cx="1123" cy="1115" r="6"/><circle cx="1251" cy="1109" r="6"/><circle cx="1316" cy="1097" r="5"/><circle cx="1367" cy="1075" r="6"/><circle cx="1490" cy="1088" r="5"/><circle cx="1540" cy="1057" r="5"/><circle cx="1671" cy="1068" r="5"/><circle cx="1724" cy="1102" r="6"/><circle cx="1821" cy="1072" r="4"/><circle cx="1864" cy="1053" r="6"/><circle cx="1968" cy="1046" r="5"/><circle cx="2076" cy="1103" r="5"/><circle cx="2106" cy="1066" r="4"/><circle cx="2206" cy="1103" r="5"/><circle cx="2249" cy="1045" r="6"/><circle cx="2325" cy="1072" r="4"/><circle cx="2401" cy="1114" r="5"/><circle cx="2540" cy="1103" r="6"/><circle cx="55" cy="1158" r="5"/><circle cx="114" cy="1196" r="6"/><circle cx="203" cy="1188" r="5"/><circle cx="307" cy="1182" r="5"/><circle cx="382" cy="1124" r="4"/><circle cx="460" cy="1174" r="5"/><circle cx="519" cy="1150" r="5"/><circle cx="617" cy="1177" r="6"/><circle cx="718" cy="1149" r="6"/><circle cx="750" cy="1196" r="5"/><circle cx="831" cy="1147" r="5"/><circle cx="957" cy="1134" r="5"/><circle cx="981" cy="1197" r="4"/><circle cx="1044" cy="1133" r="4"/><circle cx="1165" cy="1161" r="4"/><circle cx="1267" cy="1147" r="5"/><circle cx="1337" cy="1136" r="4"/><circle cx="1435" cy="1147" r="6"/><circle cx="1505" cy="1141" r="5"/><circle cx="1533" cy="1193" r="5"/><circle cx="1644" cy="1146" r="4"/><circle cx="1697" cy="1144" r="5"/><circle cx="1774" cy="1187" r="5"/><circle cx="1857" cy="1139" r="5"/><circle cx="1926" cy="1149" r="6"/><circle cx="2008" cy="1129" r="4"/><circle cx="2144" cy="1170" r="5"/><circle cx="2206" cy="1197" r="4"/><circle cx="2290" cy="1130" r="6"/><circle cx="2339" cy="1163" r="5"/><circle cx="2458" cy="1164" r="6"/><circle cx="2539" cy="1163" r="5"/><circle cx="46" cy="1206" r="5"/><circle cx="101" cy="1248" r="6"/><circle cx="202" cy="1205" r="5"/><circle cx="242" cy="1251" r="5"/><circle cx="354" cy="1271" r="5"/><circle cx="451" cy="1257" r="5"/><circle cx="518" cy="1276" r="5"/><circle cx="571" cy="1229" r="6"/><circle cx="705" cy="1261" r="5"/><circle cx="720" cy="1226" r="5"/><circle cx="846" cy="1210" r="4"/><circle cx="909" cy="1214" r="5"/><circle cx="999" cy="1237" r="6"/><circle cx="1078" cy="1248" r="5"/><circle cx="1162" cy="1218" r="6"/><circle cx="1204" cy="1216" r="4"/><circle cx="1282" cy="1258" r="5"/><circle cx="1430" cy="1233" r="5"/><circle cx="1480" cy="1239" r="4"/><circle cx="1599" cy="1254" r="6"/><circle cx="1675" cy="1256" r="6"/><circle cx="1704" cy="1261" r="4"/><circle cx="1767" cy="1276" r="4"/><circle cx="1852" cy="1242" r="5"/><circle cx="1955" cy="1255" r="5"/><circle cx="2035" cy="1241" r="5"/><circle cx="2087" cy="1206" r="5"/><circle cx="2165" cy="1268" r="5"/><circle cx="2306" cy="1223" r="6"/><circle cx="2400" cy="1237" r="6"/><circle cx="2466" cy="1238" r="5"/><circle cx="2501" cy="1259" r="5"/><circle cx="9" cy="1345" r="5"/><circle cx="83" cy="1319" r="5"/><circle cx="192" cy="1320" r="5"/><circle cx="290" cy="1338" r="6"/><circle cx="373" cy="1323" r="4"/><circle cx="471" cy="1340" r="5"/><circle cx="539" cy="1324" r="6"/><circle cx="595" cy="1316" r="4"/><circle cx="701" cy="1349" r="6"/><circle cx="780" cy="1325" r="5"/><circle cx="841" cy="1281" r="5"/><circle cx="888" cy="1358" r="5"/><circle cx="1019" cy="1288" r="6"/><circle cx="1084" cy="1298" r="6"/><circle cx="1178" cy="1302" r="4"/><circle cx="1233" cy="1301" r="4"/><circle cx="1322" cy="1339" r="4"/><circle cx="1408" cy="1325" r="5"/><circle cx="1489" cy="1280" r="4"/><circle cx="1528" cy="1287" r="5"/><circle cx="1664" cy="1351" r="5"/><circle cx="1749" cy="1314" r="5"/><circle cx="1788" cy="1357" r="4"/><circle cx="1874" cy="1305" r="4"/><circle cx="1961" cy="1291" r="5"/><circle cx="2045" cy="1291" r="4"/><circle cx="2096" cy="1296" r="6"/><circle cx="2231" cy="1321" r="6"/><circle cx="2260" cy="1355" r="6"/><circle cx="2398" cy="1293" r="6"/><circle cx="2411" cy="1334" r="6"/><circle cx="2506" cy="1311" r="4"/><circle cx="54" cy="1438" r="6"/><circle cx="54" cy="-2" r="6"/><circle cx="150" cy="1382" r="4"/><circle cx="189" cy="1396" r="5"/><circle cx="258" cy="1412" r="6"/><circle cx="395" cy="1385" r="4"/><circle cx="476" cy="1378" r="4"/><circle cx="548" cy="1413" r="5"/><circle cx="611" cy="1435" r="6"/><circle cx="611" cy="-5" r="6"/><circle cx="641" cy="1419" r="5"/><circle cx="726" cy="1390" r="5"/><circle cx="831" cy="1361" r="6"/><circle cx="952" cy="1436" r="6"/><circle cx="952" cy="-4" r="6"/><circle cx="988" cy="1418" r="4"/><circle cx="1072" cy="1417" r="5"/><circle cx="1133" cy="1377" r="6"/><circle cx="1262" cy="1380" r="6"/><circle cx="1342" cy="1371" r="5"/><circle cx="1365" cy="1374" r="5"/><circle cx="1450" cy="1401" r="5"/><circle cx="1529" cy="1387" r="5"/><circle cx="1601" cy="1380" r="4"/><circle cx="1740" cy="1370" r="5"/><circle cx="1806" cy="1416" r="6"/><circle cx="1908" cy="1364" r="6"/><circle cx="1947" cy="1397" r="4"/><circle cx="2030" cy="1403" r="5"/><circle cx="2136" cy="1364" r="5"/><circle cx="2231" cy="1436" r="5"/><circle cx="2231" cy="-4" r="5"/><circle cx="2248" cy="1424" r="4"/><circle cx="2399" cy="1399" r="5"/><circle cx="2434" cy="1391" r="5"/><circle cx="2516" cy="1386" r="4"/><path stroke="#fff" d="M46 24L101 18M46 24L-19 117M46 24L54 -2M2606 24L2541 117M46 1464L54 1438M101 18L169 14M101 18L129 96M101 18L54 -2M101 18L150 -58M101 1458L54 1438M101 1458L150 1382M169 14L129 96M169 14L150 -58M169 14L189 -44M169 14L258 -28M169 1454L150 1382M169 1454L189 1396M169 1454L258 1412M316 9L389 67M316 9L285 112M316 9L258 -28M316 9L395 -55M316 1449L258 1412M316 1449L395 1385M389 67L441 77M389 67L354 152M389 67L472 125M389 67L344 176M441 77L472 125M441 77L430 182M538 61L633 53M538 61L547 99M538 61L529 163M538 61L548 -27M538 61L611 -5M538 1501L548 1413M538 1501L611 1435M633 53L699 36M633 53L702 101M633 53L611 -5M633 53L641 -21M633 1493L611 1435M633 1493L641 1419M699 36L774 39M699 36L702 101M699 36L611 -5M699 36L641 -21M699 1476L611 1435M699 1476L641 1419M774 39L812 65M774 39L702 101M774 39L788 118M774 39L837 124M812 65L788 118M812 65L837 124M955 20L1023 62M955 20L933 115M955 20L952 -4M955 20L988 -22M955 1460L952 1436M955 1460L988 1418M1023 62L1040 51M1023 62L1024 117M1023 62L1091 101M1023 62L952 -4M1023 1502L952 1436M1040 51L1024 117M1040 51L1091 101M1040 51L952 -4M1040 51L1072 -23M1040 1491L952 1436M1040 1491L1072 1417M1129 2L1091 101M1129 2L1072 -23M1129 2L1133 -63M1129 1442L1072 1417M1129 1442L1133 1377M1252 55L1283 61M1252 55L1230 129M1283 61L1362 17M1283 61L1230 129M1283 61L1338 110M1283 61L1262 -60M1283 1501L1262 1380M1362 17L1338 110M1362 17L1342 -69M1362 17L1365 -66M1362 17L1450 -39M1362 1457L1342 1371M1362 1457L1365 1374M1362 1457L1450 1401M1469 44L1539 3M1469 44L1408 131M1469 44L1488 90M1469 44L1450 -39M1469 1484L1450 1401M1539 3L1627 10M1539 3L1488 90M1539 3L1529 -53M1539 3L1601 -60M1539 1443L1529 1387M1539 1443L1601 1380M1627 10L1683 10M1627 10L1626 108M1627 10L1601 -60M1627 1450L1601 1380M1683 10L1772 61M1683 10L1664 -89M1683 10L1601 -60M1683 10L1740 -70M1683 1450L1664 1351M1683 1450L1601 1380M1683 1450L1740 1370M1772 61L1754 122M1772 61L1806 -24M1772 1501L1806 1416M1885 39L1922 6M1885 39L1888 90M1885 39L1957 82M1885 39L1806 -24M1885 39L1947 -43M1885 1479L1806 1416M1885 1479L1947 1397M1922 6L1888 90M1922 6L1957 82M1922 6L1908 -76M1922 6L1947 -43M1922 1446L1908 1364M1922 1446L1947 1397M2038 37L2130 1M2038 37L1957 82M2038 37L2116 91M2038 37L2030 -37M2038 1477L2030 1403M2130 1L2205 46M2130 1L2116 91M2130 1L2136 -76M2130 1L2231 -4M2130 1441L2136 1364M2130 1441L2231 1436M2205 46L2242 11M2205 46L2203 99M2205 46L2231 -4M2205 46L2248 -16M2205 1486L2231 1436M2205 1486L2248 1424M2242 11L2203 99M2242 11L2260 -85M2242 11L2231 -4M2242 11L2248 -16M2242 1451L2260 1355M2242 1451L2231 1436M2242 1451L2248 1424M2392 65L2432 57M2392 65L2370 153M2392 65L2383 164M2392 65L2399 -41M2392 1505L2399 1399M2432 57L2508 75M2432 57L2445 137M2432 57L2399 -41M2432 57L2434 -49M2432 1497L2399 1399M2432 1497L2434 1391M2508 75L2541 117M2508 75L2507 168M72 130L129 96M72 130L165 127M72 130L-19 117M72 130L38 223M72 130L100 189M2632 130L2541 117M129 96L165 127M129 96L100 189M165 127L285 112M165 127L100 189M165 127L208 226M285 112L354 152M285 112L307 191M285 112L344 176M354 152L307 191M354 152L344 176M354 152L430 182M472 125L547 99M472 125L430 182M472 125L529 163M547 99L586 155M547 99L529 163M547 99L599 184M586 155L529 163M586 155L599 184M586 155L663 197M702 101L788 118M702 101L663 197M788 118L837 124M788 118L743 231M837 124L933 115M837 124L867 196M933 115L1024 117M933 115L956 161M1024 117L1091 101M1024 117L956 161M1091 101L1182 142M1182 142L1230 129M1182 142L1140 230M1182 142L1221 223M1230 129L1338 110M1230 129L1221 223M1338 110L1408 131M1338 110L1385 187M1408 131L1488 90M1408 131L1521 145M1408 131L1385 187M1488 90L1521 145M1521 145L1626 108M1521 145L1518 231M1521 145L1572 204M1626 108L1670 176M1754 122L1840 144M1754 122L1670 176M1754 122L1751 219M1754 122L1779 191M1840 144L1888 90M1840 144L1779 191M1840 144L1891 166M1888 90L1957 82M1888 90L1891 166M1957 82L2027 151M2027 151L2116 91M2027 151L1986 202M2027 151L2042 198M2027 151L2007 245M2116 91L2203 99M2116 91L2147 197M2203 99L2256 131M2256 131L2179 211M2256 131L2297 230M2370 153L2445 137M2370 153L2383 164M2370 153L2446 178M2445 137L2383 164M2445 137L2446 178M2445 137L2507 168M2541 117L2507 168M38 223L100 189M38 223L43 293M100 189L156 276M208 226L307 191M208 226L156 276M208 226L185 304M208 226L266 262M307 191L344 176M307 191L266 262M344 176L430 182M529 163L599 184M599 184L663 197M663 197L743 231M663 197L656 249M743 231L726 276M867 196L956 161M867 196L867 304M867 196L927 251M956 161L978 220M956 161L927 251M978 220L1091 229M978 220L927 251M978 220L1002 282M978 220L1042 306M1091 229L1140 230M1091 229L1002 282M1091 229L1042 306M1091 229L1156 294M1140 230L1221 223M1140 230L1156 294M1221 223L1156 294M1221 223L1275 261M1345 222L1385 187M1345 222L1275 261M1345 222L1348 288M1345 222L1365 309M1385 187L1518 231M1385 187L1348 288M1518 231L1572 204M1518 231L1500 268M1518 231L1573 260M1572 204L1670 176M1572 204L1500 268M1572 204L1573 260M1670 176L1751 219M1670 176L1733 242M1751 219L1779 191M1751 219L1733 242M1751 219L1782 300M1779 191L1733 242M1779 191L1782 300M1891 166L1986 202M1891 166L1886 240M1891 166L1928 261M1986 202L2042 198M1986 202L1928 261M1986 202L2007 245M2042 198L2147 197M2042 198L2007 245M2147 197L2179 211M2147 197L2153 253M2179 211L2153 253M2179 211L2213 285M2297 230L2383 164M2297 230L2213 285M2297 230L2297 259M2297 230L2348 305M2383 164L2446 178M2446 178L2507 168M2507 168L2485 270M43 293L51 341M43 293L-55 349M2603 293L2505 349M156 276L185 304M156 276L137 357M156 276L180 349M185 304L266 262M185 304L137 357M185 304L180 349M266 262L350 294M266 262L283 361M350 294L443 310M350 294L283 361M350 294L340 388M350 294L459 333M443 310L512 306M443 310L459 333M443 310L553 360M512 306L459 333M512 306L553 360M633 315L656 249M633 315L726 276M633 315L553 360M633 315L627 338M633 315L686 324M656 249L726 276M656 249L627 338M656 249L686 324M726 276L686 324M726 276L746 363M867 304L927 251M867 304L838 380M867 304L937 345M927 251L1002 282M1002 282L1042 306M1002 282L937 345M1042 306L1063 395M1156 294L1164 394M1156 294L1213 387M1275 261L1348 288M1275 261L1365 309M1275 261L1338 329M1348 288L1365 309M1348 288L1338 329M1365 309L1338 329M1365 309L1386 388M1500 268L1573 260M1573 260L1635 314M1635 314L1596 394M1635 314L1645 382M1733 242L1782 300M1733 242L1789 333M1782 300L1753 373M1782 300L1789 333M1886 240L1928 261M1886 240L1900 330M1928 261L2007 245M1928 261L1900 330M2153 253L2213 285M2213 285L2297 259M2213 285L2255 350M2297 259L2348 305M2297 259L2255 350M2348 305L2255 350M2348 305L2397 333M2348 305L2439 321M2473 275L2485 270M2473 275L2397 333M2473 275L2439 321M2473 275L2505 349M2485 270L2397 333M2485 270L2439 321M2485 270L2505 349M51 341L137 357M51 341L-55 349M2611 341L2505 349M137 357L180 349M137 357L96 449M180 349L283 361M180 349L243 414M283 361L340 388M283 361L243 414M340 388L243 414M340 388L338 450M340 388L298 493M459 333L553 360M459 333L446 453M553 360L627 338M627 338L686 324M627 338L653 446M686 324L746 363M746 363L838 380M746 363L784 419M838 380L784 419M838 380L856 422M838 380L883 446M937 345L966 389M966 389L1063 395M966 389L856 422M966 389L987 448M1063 395L987 448M1063 395L1091 414M1164 394L1213 387M1164 394L1091 414M1164 394L1191 459M1213 387L1191 459M1213 387L1217 478M1213 387L1282 435M1338 329L1386 388M1386 388L1484 389M1386 388L1428 467M1484 389L1428 467M1484 389L1507 417M1596 394L1645 382M1596 394L1507 417M1596 394L1600 465M1596 394L1619 478M1645 382L1600 465M1645 382L1619 478M1645 382L1734 418M1753 373L1789 333M1753 373L1734 418M1753 373L1836 420M1789 333L1734 418M1789 333L1836 420M1900 330L1945 382M1945 382L2056 360M1945 382L1900 477M1945 382L1996 441M1945 382L2012 435M2056 360L2152 380M2056 360L1996 441M2056 360L2012 435M2152 380L2166 385M2152 380L2176 415M2166 385L2255 350M2166 385L2176 415M2255 350L2176 415M2397 333L2439 321M2397 333L2380 406M2439 321L2505 349M12 480L96 449M12 480L-76 479M12 480L8 542M12 480L10 565M2572 480L2484 479M96 449L165 476M96 449L139 538M165 476L243 414M165 476L139 538M165 476L181 544M165 476L213 577M243 414L298 493M338 450L298 493M446 453L505 471M505 471L616 471M505 471L492 544M505 471L597 481M616 471L653 446M616 471L597 481M616 471L642 531M653 446L597 481M653 446L642 531M653 446L723 545M784 419L856 422M856 422L883 446M856 422L871 509M883 446L987 448M883 446L871 509M987 448L965 549M987 448L1076 510M1091 414L1159 490M1191 459L1217 478M1191 459L1282 435M1191 459L1159 490M1217 478L1282 435M1217 478L1159 490M1217 478L1266 540M1282 435L1266 540M1282 435L1303 543M1428 467L1507 417M1428 467L1371 522M1428 467L1514 499M1507 417L1514 499M1600 465L1619 478M1600 465L1571 492M1600 465L1656 542M1619 478L1571 492M1619 478L1656 542M1734 418L1836 420M1734 418L1773 512M1836 420L1900 477M1836 420L1876 495M1900 477L1876 495M1900 477L1979 541M1996 441L2012 435M1996 441L1979 541M1996 441L2032 493M2012 435L2104 473M2012 435L2032 493M2104 473L2176 415M2104 473L2032 493M2104 473L2140 529M2104 473L2174 519M2302 457L2380 406M2302 457L2276 489M2380 406L2463 470M2463 470L2484 479M2463 470L2393 523M2463 470L2481 501M2484 479L2480 558M2484 479L2481 501M8 542L-80 558M8 542L10 565M8 542L-41 570M2568 542L2480 558M2568 542L2519 570M139 538L181 544M139 538L106 619M139 538L213 577M181 544L106 619M181 544L213 577M181 544L196 657M298 493L385 549M385 549L410 558M385 549L307 605M385 549L366 612M410 558L492 544M410 558L366 612M410 558L467 616M410 558L417 652M492 544L467 616M492 544L527 625M492 544L579 589M597 481L642 531M597 481L579 589M642 531L723 545M642 531L671 584M723 545L671 584M723 545L795 596M871 509L886 546M886 546L965 549M886 546L795 596M886 546L876 595M886 546L951 578M965 549L876 595M965 549L951 578M965 549L1005 572M1076 510L1159 490M1076 510L1005 572M1076 510L1070 599M1076 510L1133 610M1266 540L1303 543M1266 540L1265 593M1266 540L1284 599M1303 543L1371 522M1303 543L1265 593M1303 543L1284 599M1371 522L1415 619M1514 499L1571 492M1514 499L1487 566M1514 499L1548 568M1571 492L1548 568M1656 542L1682 554M1656 542L1652 599M1656 542L1682 561M1682 554L1773 512M1682 554L1652 599M1682 554L1682 561M1773 512L1876 495M1773 512L1682 561M1876 495L1865 604M1979 541L2032 493M1979 541L1929 608M1979 541L2043 582M2032 493L2043 582M2140 529L2174 519M2140 529L2043 582M2140 529L2133 624M2140 529L2182 583M2174 519L2276 489M2174 519L2182 583M2276 489L2294 619M2393 523L2481 501M2393 523L2360 601M2393 523L2405 571M2480 558L2481 501M2480 558L2405 571M2480 558L2519 570M2481 501L2519 570M10 565L-41 570M10 565L27 668M2570 565L2519 570M106 619L27 668M106 619L153 709M106 619L196 657M213 577L307 605M213 577L196 657M307 605L366 612M307 605L309 696M366 612L373 678M366 612L417 652M467 616L527 625M467 616L417 652M527 625L579 589M527 625L552 713M579 589L671 584M671 584L630 671M671 584L737 668M795 596L876 595M795 596L737 668M795 596L867 652M876 595L951 578M876 595L867 652M951 578L1005 572M951 578L867 652M1005 572L1070 599M1070 599L1133 610M1070 599L1108 663M1070 599L1123 640M1133 610L1108 663M1133 610L1123 640M1133 610L1205 654M1265 593L1284 599M1265 593L1205 654M1265 593L1322 646M1284 599L1322 646M1415 619L1487 566M1415 619L1322 646M1415 619L1381 667M1415 619L1495 658M1487 566L1548 568M1487 566L1495 658M1548 568L1495 658M1548 568L1572 642M1652 599L1682 561M1652 599L1572 642M1652 599L1623 709M1682 561L1753 650M1827 626L1865 604M1827 626L1929 608M1827 626L1753 650M1827 626L1813 654M1827 626L1917 668M1865 604L1929 608M1865 604L1813 654M1865 604L1917 668M1929 608L1917 668M1929 608L2000 697M2043 582L2133 624M2133 624L2182 583M2133 624L2142 659M2133 624L2163 689M2182 583L2142 659M2182 583L2163 689M2294 619L2360 601M2294 619L2405 571M2294 619L2319 642M2360 601L2405 571M2360 601L2319 642M2405 571L2465 666M27 668L-46 695M27 668L11 727M2587 668L2514 695M153 709L196 657M153 709L120 757M153 709L228 784M309 696L373 678M309 696L263 775M309 696L399 722M373 678L417 652M373 678L399 722M373 678L421 734M417 652L399 722M552 713L630 671M552 713L523 794M552 713L569 728M630 671L705 693M630 671L569 728M630 671L665 751M705 693L737 668M705 693L665 751M867 652L927 685M867 652L874 727M927 685L1026 718M927 685L874 727M927 685L987 731M1026 718L1108 663M1026 718L940 796M1026 718L987 731M1026 718L1044 799M1108 663L1123 640M1108 663L1205 654M1123 640L1205 654M1205 654L1231 735M1322 646L1381 667M1381 667L1495 658M1381 667L1357 777M1381 667L1366 758M1495 658L1572 642M1572 642L1623 709M1572 642L1586 753M1623 709L1586 753M1623 709L1646 742M1623 709L1554 810M1753 650L1813 654M1753 650L1750 756M1917 668L2000 697M1917 668L1949 756M2000 697L2045 706M2000 697L1949 756M2000 697L2005 737M2045 706L2005 737M2045 706L2138 728M2142 659L2163 689M2142 659L2138 728M2142 659L2183 749M2163 689L2138 728M2163 689L2183 749M2319 642L2374 714M2319 642L2352 733M2374 714L2465 666M2374 714L2352 733M2374 714L2380 807M2465 666L2514 695M2465 666L2500 753M2514 695L2571 727M2514 695L2500 753M-46 695L11 727M11 727L120 757M11 727L-60 753M11 727L23 841M2571 727L2500 753M120 757L139 875M120 757L188 829M228 784L263 775M228 784L188 829M228 784L266 807M228 784L183 886M263 775L266 807M399 722L421 734M399 722L396 805M421 734L396 805M421 734L442 824M523 794L569 728M523 794L442 824M523 794L538 828M569 728L665 751M569 728L538 828M665 751L758 792M665 751L723 835M758 792L723 835M758 792L828 864M874 727L940 796M874 727L987 731M940 796L987 731M940 796L898 867M987 731L1044 799M1044 799L1129 788M1044 799L1024 852M1044 799L1114 859M1129 788L1231 735M1129 788L1114 859M1129 788L1195 815M1231 735L1195 815M1357 777L1366 758M1357 777L1342 837M1357 777L1369 833M1357 777L1449 834M1366 758L1342 837M1366 758L1369 833M1366 758L1449 834M1463 786L1449 834M1463 786L1554 810M1463 786L1513 888M1586 753L1646 742M1586 753L1554 810M1586 753L1610 850M1750 756L1826 798M1750 756L1852 789M1750 756L1726 857M1750 756L1825 803M1826 798L1852 789M1826 798L1825 803M1852 789L1825 803M1852 789L1919 815M1852 789L1868 898M1949 756L2005 737M1949 756L1919 815M1949 756L1982 811M2005 737L1982 811M2005 737L2022 824M2138 728L2183 749M2138 728L2179 820M2183 749L2275 766M2183 749L2179 820M2275 766L2352 733M2275 766L2179 820M2275 766L2285 839M2352 733L2456 789M2352 733L2380 807M2456 789L2500 753M2456 789L2380 807M2456 789L2435 839M2456 789L2496 854M2500 753L2496 854M23 841L-64 854M23 841L38 905M2583 841L2496 854M139 875L188 829M139 875L38 905M139 875L148 932M139 875L183 886M188 829L266 807M188 829L183 886M266 807L315 907M396 805L442 824M396 805L474 925M442 824L538 828M442 824L474 925M538 828L592 875M538 828L550 894M592 875L680 873M592 875L550 894M592 875L625 909M592 875L672 899M680 873L723 835M680 873L625 909M680 873L672 899M680 873L755 893M723 835L672 899M723 835L755 893M828 864L898 867M828 864L755 893M828 864L836 904M898 867L836 904M898 867L939 940M898 867L913 980M1024 852L1114 859M1024 852L1045 899M1114 859L1195 815M1114 859L1045 899M1195 815L1215 875M1195 815L1207 903M1215 875L1197 939M1215 875L1207 903M1342 837L1369 833M1342 837L1333 896M1369 833L1449 834M1369 833L1333 896M1449 834L1513 888M1554 810L1610 850M1554 810L1513 888M1610 850L1513 888M1726 857L1702 958M1726 857L1725 961M1825 803L1919 815M1825 803L1868 898M1919 815L1982 811M1919 815L1868 898M1982 811L2022 824M1982 811L1974 895M2022 824L2110 844M2022 824L1974 895M2110 844L2179 820M2110 844L2062 916M2110 844L2163 928M2179 820L2285 839M2285 839L2277 932M2380 807L2435 839M2380 807L2402 910M2435 839L2496 854M2435 839L2397 939M2435 839L2402 910M2496 854L2489 934M38 905L148 932M38 905L21 981M38 905L-28 971M2598 905L2532 971M148 932L183 886M148 932L103 1016M148 932L197 996M315 907L341 956M315 907L298 967M315 907L339 990M341 956L298 967M341 956L339 990M474 925L550 894M474 925L454 1036M474 925L488 972M550 894L625 909M550 894L488 972M625 909L672 899M625 909L638 971M672 899L638 971M755 893L836 904M755 893L738 990M836 904L853 1012M836 904L913 980M939 940L984 949M939 940L1045 899M939 940L853 1012M939 940L913 980M984 949L1045 899M984 949L913 980M984 949L1033 1040M984 949L1090 977M1045 899L1090 977M1197 939L1207 903M1197 939L1128 973M1197 939L1210 1004M1207 903L1128 973M1207 903L1210 1004M1333 896L1394 932M1394 932L1352 1033M1394 932L1360 1028M1513 888L1578 954M1578 954L1631 946M1578 954L1566 998M1578 954L1634 989M1578 954L1540 1057M1631 946L1702 958M1631 946L1566 998M1631 946L1634 989M1631 946L1725 961M1702 958L1634 989M1702 958L1725 961M1817 960L1868 898M1817 960L1725 961M1817 960L1770 1024M1817 960L1877 1010M1974 895L2062 916M1974 895L1944 988M1974 895L2027 971M2062 916L2134 954M2062 916L2027 971M2062 916L2104 992M2134 954L2163 928M2134 954L2104 992M2134 954L2160 1032M2277 932L2296 997M2397 939L2402 910M2397 939L2489 934M2397 939L2387 1024M2397 939L2465 1020M2402 910L2489 934M2489 934L2465 1020M2489 934L2532 971M21 981L103 1016M21 981L-28 971M21 981L21 1051M2581 981L2532 971M103 1016L197 996M103 1016L21 1051M103 1016L111 1111M197 996L235 1047M197 996L282 1057M298 967L339 990M298 967L282 1057M298 967L323 1061M339 990L282 1057M339 990L323 1061M454 1036L488 972M454 1036L415 1115M454 1036L557 1041M488 972L557 1041M488 972L580 1049M638 971L719 1011M638 971L738 990M638 971L580 1049M719 1011L738 990M719 1011L691 1105M719 1011L798 1057M738 990L798 1057M853 1012L913 980M853 1012L798 1057M853 1012L865 1097M1033 1040L1090 977M1033 1040L992 1094M1033 1040L1099 1090M1033 1040L1044 1133M1090 977L1128 973M1128 973L1210 1004M1210 1004L1251 1109M1352 1033L1360 1028M1352 1033L1316 1097M1352 1033L1367 1075M1360 1028L1367 1075M1475 1040L1566 998M1475 1040L1490 1088M1475 1040L1540 1057M1475 1040L1505 1141M1566 998L1634 989M1566 998L1540 1057M1634 989L1671 1068M1725 961L1770 1024M1770 1024L1724 1102M1770 1024L1821 1072M1770 1024L1864 1053M1877 1010L1944 988M1877 1010L1821 1072M1877 1010L1864 1053M1877 1010L1968 1046M1944 988L2027 971M1944 988L1864 1053M1944 988L1968 1046M2027 971L2104 992M2027 971L1968 1046M2104 992L2160 1032M2104 992L2106 1066M2160 1032L2106 1066M2160 1032L2206 1103M2160 1032L2249 1045M2296 997L2387 1024M2296 997L2249 1045M2296 997L2325 1072M2387 1024L2465 1020M2387 1024L2325 1072M2387 1024L2401 1114M2465 1020L2532 971M2465 1020L2540 1103M2532 971L2581 1051M-28 971L21 1051M21 1051L-20 1103M2581 1051L2540 1103M111 1111L55 1158M111 1111L114 1196M111 1111L46 1206M235 1047L282 1057M235 1047L323 1061M282 1057L323 1061M323 1061L382 1124M415 1115L382 1124M415 1115L460 1174M557 1041L580 1049M557 1041L519 1150M580 1049L519 1150M691 1105L617 1177M691 1105L718 1149M691 1105L750 1196M798 1057L865 1097M798 1057L831 1147M865 1097L893 1117M865 1097L831 1147M865 1097L957 1134M893 1117L992 1094M893 1117L831 1147M893 1117L957 1134M893 1117L909 1214M992 1094L1099 1090M992 1094L957 1134M992 1094L1044 1133M1099 1090L1123 1115M1099 1090L1044 1133M1099 1090L1165 1161M1123 1115L1044 1133M1123 1115L1165 1161M1251 1109L1316 1097M1251 1109L1165 1161M1251 1109L1267 1147M1251 1109L1337 1136M1316 1097L1367 1075M1316 1097L1267 1147M1316 1097L1337 1136M1367 1075L1337 1136M1367 1075L1435 1147M1490 1088L1540 1057M1490 1088L1435 1147M1490 1088L1505 1141M1540 1057L1505 1141M1671 1068L1724 1102M1671 1068L1644 1146M1671 1068L1697 1144M1724 1102L1644 1146M1724 1102L1697 1144M1724 1102L1774 1187M1821 1072L1864 1053M1821 1072L1857 1139M1864 1053L1857 1139M1968 1046L1926 1149M1968 1046L2008 1129M2076 1103L2106 1066M2076 1103L2008 1129M2076 1103L2144 1170M2206 1103L2249 1045M2206 1103L2144 1170M2206 1103L2206 1197M2206 1103L2290 1130M2249 1045L2325 1072M2249 1045L2290 1130M2325 1072L2401 1114M2325 1072L2290 1130M2401 1114L2339 1163M2401 1114L2458 1164M2540 1103L2615 1158M2540 1103L2458 1164M2540 1103L2539 1163M-20 1103L55 1158M55 1158L114 1196M55 1158L-21 1163M55 1158L46 1206M2615 1158L2539 1163M114 1196L203 1188M114 1196L46 1206M114 1196L101 1248M203 1188L307 1182M203 1188L202 1205M203 1188L242 1251M307 1182L382 1124M307 1182L202 1205M307 1182L242 1251M307 1182L354 1271M382 1124L460 1174M460 1174L519 1150M460 1174L451 1257M519 1150L617 1177M519 1150L571 1229M617 1177L718 1149M617 1177L571 1229M617 1177L720 1226M718 1149L750 1196M718 1149L705 1261M718 1149L720 1226M750 1196L831 1147M750 1196L705 1261M750 1196L720 1226M831 1147L846 1210M957 1134L981 1197M957 1134L1044 1133M981 1197L909 1214M981 1197L999 1237M981 1197L1019 1288M1165 1161L1162 1218M1165 1161L1204 1216M1267 1147L1337 1136M1267 1147L1204 1216M1267 1147L1282 1258M1337 1136L1435 1147M1435 1147L1505 1141M1435 1147L1430 1233M1505 1141L1533 1193M1533 1193L1480 1239M1533 1193L1599 1254M1533 1193L1489 1280M1533 1193L1528 1287M1644 1146L1697 1144M1697 1144L1774 1187M1774 1187L1857 1139M1774 1187L1767 1276M1774 1187L1852 1242M1857 1139L1926 1149M1857 1139L1852 1242M1926 1149L2008 1129M1926 1149L1852 1242M1926 1149L1955 1255M2144 1170L2206 1197M2144 1170L2087 1206M2144 1170L2165 1268M2206 1197L2165 1268M2206 1197L2306 1223M2290 1130L2339 1163M2290 1130L2306 1223M2339 1163L2306 1223M2458 1164L2539 1163M2458 1164L2400 1237M2458 1164L2466 1238M2539 1163L2606 1206M-21 1163L46 1206M46 1206L101 1248M101 1248L202 1205M101 1248L83 1319M202 1205L242 1251M242 1251L192 1320M242 1251L290 1338M354 1271L451 1257M354 1271L290 1338M354 1271L373 1323M354 1271L395 1385M451 1257L518 1276M451 1257L471 1340M518 1276L571 1229M518 1276L471 1340M518 1276L539 1324M518 1276L595 1316M571 1229L595 1316M705 1261L720 1226M705 1261L701 1349M705 1261L780 1325M846 1210L909 1214M846 1210L841 1281M909 1214L999 1237M909 1214L841 1281M999 1237L1078 1248M999 1237L1019 1288M999 1237L1084 1298M1078 1248L1162 1218M1078 1248L1019 1288M1078 1248L1084 1298M1162 1218L1204 1216M1162 1218L1178 1302M1204 1216L1282 1258M1204 1216L1233 1301M1282 1258L1233 1301M1282 1258L1322 1339M1430 1233L1480 1239M1430 1233L1408 1325M1430 1233L1489 1280M1480 1239L1489 1280M1480 1239L1528 1287M1599 1254L1675 1256M1599 1254L1704 1261M1599 1254L1528 1287M1675 1256L1704 1261M1675 1256L1767 1276M1675 1256L1664 1351M1675 1256L1749 1314M1704 1261L1767 1276M1704 1261L1749 1314M1767 1276L1749 1314M1767 1276L1788 1357M1852 1242L1874 1305M1955 1255L2035 1241M1955 1255L1874 1305M1955 1255L1961 1291M1955 1255L2045 1291M2035 1241L2087 1206M2035 1241L1961 1291M2035 1241L2045 1291M2035 1241L2096 1296M2087 1206L2165 1268M2087 1206L2045 1291M2087 1206L2096 1296M2165 1268L2096 1296M2165 1268L2231 1321M2306 1223L2400 1237M2400 1237L2466 1238M2400 1237L2398 1293M2400 1237L2411 1334M2466 1238L2501 1259M2466 1238L2398 1293M2466 1238L2506 1311M2501 1259L2569 1345M2501 1259L2398 1293M2501 1259L2506 1311M-59 1259L9 1345M9 1345L83 1319M9 1345L-54 1311M9 1345L54 1438M9 1345L-44 1386M2569 1345L2506 1311M2569 1345L2516 1386M83 1319L150 1382M192 1320L290 1338M192 1320L150 1382M192 1320L189 1396M192 1320L258 1412M290 1338L373 1323M290 1338L258 1412M373 1323L395 1385M471 1340L539 1324M471 1340L395 1385M471 1340L476 1378M539 1324L595 1316M539 1324L476 1378M539 1324L548 1413M701 1349L780 1325M701 1349L641 1419M701 1349L726 1390M780 1325L841 1281M780 1325L726 1390M780 1325L831 1361M841 1281L888 1358M841 1281L831 1361M888 1358L831 1361M888 1358L952 1436M888 1358L988 1418M1019 1288L1084 1298M1084 1298L1178 1302M1084 1298L1133 1377M1178 1302L1233 1301M1178 1302L1133 1377M1233 1301L1262 1380M1322 1339L1408 1325M1322 1339L1262 1380M1322 1339L1342 1371M1322 1339L1365 1374M1408 1325L1342 1371M1408 1325L1365 1374M1408 1325L1450 1401M1489 1280L1528 1287M1489 1280L1529 1387M1528 1287L1529 1387M1664 1351L1601 1380M1664 1351L1740 1370M1749 1314L1788 1357M1749 1314L1740 1370M1788 1357L1874 1305M1788 1357L1740 1370M1788 1357L1806 1416M1874 1305L1961 1291M1874 1305L1908 1364M1961 1291L2045 1291M1961 1291L1908 1364M2045 1291L2096 1296M2096 1296L2136 1364M2231 1321L2260 1355M2231 1321L2136 1364M2231 1321L2248 1424M2260 1355L2136 1364M2260 1355L2231 1436M2260 1355L2248 1424M2398 1293L2411 1334M2398 1293L2434 1391M2411 1334L2506 1311M2411 1334L2399 1399M2411 1334L2434 1391M2506 1311L2516 1386M54 1438L-44 1386M2614 1438L2516 1386M150 1382L189 1396M189 1396L258 1412M395 1385L476 1378M476 1378L548 1413M548 1413L611 1435M611 1435L641 1419M641 1419L726 1390M726 1390L831 1361M952 1436L988 1418M988 1418L1072 1417M1072 1417L1133 1377M1262 1380L1342 1371M1342 1371L1365 1374M1365 1374L1450 1401M1450 1401L1529 1387M1529 1387L1601 1380M1740 1370L1806 1416M1806 1416L1908 1364M1908 1364L1947 1397M1947 1397L2030 1403M2030 1403L2136 1364M2231 1436L2248 1424M2399 1399L2434 1391M2399 1399L2516 1386M2434 1391L2516 1386"/></svg>