<svg xmlns="http://www.w3.org/2000/svg" width="2560" height="1440" fill="#fff"><circle cx="32" cy="69" r="4"/><circle cx="113" cy="70" r="5"/><circle cx="200" cy="64" r="5"/><circle cx="310" cy="48" r="5"/><circle cx="351" cy="38" r="4"/><circle cx="451" cy="22" r="6"/><circle cx="519" cy="49" r="5"/><circle cx="575" cy="8" r="5"/><circle cx="694" cy="40" r="5"/><circle cx="788" cy="10" r="6"/><circle cx="841" cy="65" r="5"/><circle cx="881" cy="61" r="6"/><circle cx="994" cy="51" r="6"/><circle cx="1042" cy="48" r="5"/><circle cx="1163" cy="40" r="4"/><circle cx="1216" cy="70" r="5"/><circle cx="1346" cy="13" r="6"/><circle cx="1438" cy="79" r="5"/><circle cx="1476" cy="29" r="4"/><circle cx="1565" cy="16" r="4"/><circle cx="1646" cy="26" r="5"/><circle cx="1748" cy="61" r="4"/><circle cx="1808" cy="60" r="5"/><circle cx="1862" cy="25" r="5"/><circle cx="1956" cy="33" r="6"/><circle cx="2039" cy="14" r="5"/><circle cx="2151" cy="18" r="5"/><circle cx="2212" cy="32" r="5"/><circle cx="2274" cy="10" r="6"/><circle cx="2388" cy="43" r="4"/><circle cx="2431" cy="3" r="5"/><circle cx="2431" cy="1443" r="5"/><circle cx="2527" cy="16" r="4"/><circle cx="59" cy="152" r="4"/><circle cx="154" cy="124" r="4"/><circle cx="202" cy="103" r="4"/><circle cx="264" cy="137" r="4"/><circle cx="346" cy="96" r="6"/><circle cx="478" cy="124" r="6"/><circle cx="555" cy="154" r="5"/><circle cx="623" cy="136" r="4"/><circle cx="692" cy="132" r="6"/><circle cx="720" cy="152" r="5"/><circle cx="873" cy="84" r="6"/><circle cx="935" cy="126" r="5"/><circle cx="1003" cy="130" r="6"/><circle cx="1092" cy="148" r="4"/><circle cx="1172" cy="148" r="4"/><circle cx="1235" cy="89" r="5"/><circle cx="1302" cy="83" r="5"/><circle cx="1403" cy="139" r="5"/><circle cx="1518" cy="94" r="5"/><circle cx="1557" cy="137" r="5"/><circle cx="1617" cy="108" r="5"/><circle cx="1688" cy="82" r="5"/><circle cx="1814" cy="142" r="4"/><circle cx="1857" cy="158" r="5"/><circle cx="1996" cy="155" r="4"/><circle cx="2040" cy="133" r="5"/><circle cx="2103" cy="99" r="4"/><circle cx="2188" cy="160" r="5"/><circle cx="2245" cy="107" r="6"/><circle cx="2321" cy="152" r="5"/><circle cx="2411" cy="112" r="4"/><circle cx="2541" cy="90" r="5"/><circle cx="35" cy="204" r="5"/><circle cx="159" cy="194" r="4"/><circle cx="238" cy="223" r="4"/><circle cx="240" cy="203" r="6"/><circle cx="363" cy="182" r="5"/><circle cx="431" cy="165" r="6"/><circle cx="555" cy="210" r="5"/><circle cx="627" cy="196" r="6"/><circle cx="693" cy="200" r="5"/><circle cx="778" cy="163" r="5"/><circle cx="847" cy="239" r="6"/><circle cx="934" cy="172" r="5"/><circle cx="1012" cy="208" r="4"/><circle cx="1075" cy="230" r="5"/><circle cx="1157" cy="176" r="4"/><circle cx="1253" cy="230" r="6"/><circle cx="1295" cy="211" r="6"/><circle cx="1394" cy="194" r="6"/><circle cx="1488" cy="224" r="5"/><circle cx="1532" cy="210" r="4"/><circle cx="1620" cy="202" r="5"/><circle cx="1729" cy="192" r="4"/><circle cx="1780" cy="223" r="6"/><circle cx="1883" cy="193" r="6"/><circle cx="1957" cy="178" r="6"/><circle cx="2050" cy="168" r="6"/><circle cx="2084" cy="233" r="5"/><circle cx="2165" cy="232" r="5"/><circle cx="2241" cy="196" r="5"/><circle cx="2380" cy="184" r="4"/><circle cx="2448" cy="165" r="6"/><circle cx="2483" cy="207" r="5"/><circle cx="59" cy="316" r="6"/><circle cx="82" cy="298" r="5"/><circle cx="229" cy="278" r="5"/><circle cx="300" cy="288" r="5"/><circle cx="325" cy="316" r="5"/><circle cx="445" cy="268" r="5"/><circle cx="494" cy="257" r="5"/><circle cx="581" cy="251" r="4"/><circle cx="687" cy="244" r="6"/><circle cx="721" cy="307" r="5"/><circle cx="867" cy="258" r="4"/><circle cx="897" cy="314" r="5"/><circle cx="963" cy="260" r="5"/><circle cx="1101" cy="281" r="5"/><circle cx="1146" cy="289" r="4"/><circle cx="1243" cy="242" r="4"/><circle cx="1332" cy="315" r="5"/><circle cx="1364" cy="311" r="5"/><circle cx="1446" cy="307" r="5"/><circle cx="1553" cy="294" r="4"/><circle cx="1611" cy="296" r="6"/><circle cx="1688" cy="279" r="6"/><circle cx="1820" cy="244" r="4"/><circle cx="1847" cy="310" r="6"/><circle cx="1964" cy="269" r="5"/><circle cx="2016" cy="286" r="6"/><circle cx="2125" cy="292" r="5"/><circle cx="2200" cy="264" r="6"/><circle cx="2265" cy="273" r="5"/><circle cx="2400" cy="259" r="4"/><circle cx="2431" cy="306" r="4"/><circle cx="2514" cy="252" r="4"/><circle cx="33" cy="389" r="4"/><circle cx="114" cy="354" r="4"/><circle cx="176" cy="326" r="4"/><circle cx="313" cy="323" r="4"/><circle cx="385" cy="386" r="6"/><circle cx="450" cy="327" r="5"/><circle cx="528" cy="393" r="4"/><circle cx="573" cy="334" r="5"/><circle cx="688" cy="377" r="5"/><circle cx="778" cy="395" r="6"/><circle cx="835" cy="324" r="5"/><circle cx="927" cy="348" r="5"/><circle cx="978" cy="365" r="5"/><circle cx="1065" cy="338" r="5"/><circle cx="1185" cy="386" r="5"/><circle cx="1279" cy="380" r="5"/><circle cx="1318" cy="322" r="4"/><circle cx="1374" cy="329" r="5"/><circle cx="1517" cy="327" r="5"/><circle cx="1564" cy="342" r="6"/><circle cx="1649" cy="363" r="6"/><circle cx="1743" cy="357" r="5"/><circle cx="1794" cy="335" r="6"/><circle cx="1890" cy="378" r="5"/><circle cx="1979" cy="339" r="5"/><circle cx="2038" cy="366" r="5"/><circle cx="2151" cy="362" r="4"/><circle cx="2180" cy="343" r="5"/><circle cx="2255" cy="328" r="5"/><circle cx="2362" cy="322" r="4"/><circle cx="2457" cy="399" r="5"/><circle cx="2500" cy="380" r="6"/><circle cx="41" cy="458" r="4"/><circle cx="103" cy="466" r="6"/><circle cx="161" cy="450" r="5"/><circle cx="305" cy="409" r="6"/><circle cx="346" cy="412" r="6"/><circle cx="409" cy="457" r="5"/><circle cx="522" cy="404" r="4"/><circle cx="636" cy="433" r="6"/><circle cx="706" cy="403" r="5"/><circle cx="776" cy="401" r="6"/><circle cx="858" cy="475" r="5"/><circle cx="926" cy="411" r="5"/><circle cx="999" cy="428" r="5"/><circle cx="1079" cy="413" r="4"/><circle cx="1166" cy="455" r="6"/><circle cx="1221" cy="477" r="6"/><circle cx="1308" cy="427" r="6"/><circle cx="1375" cy="474" r="5"/><circle cx="1508" cy="479" r="5"/><circle cx="1598" cy="421" r="5"/><circle cx="1652" cy="477" r="5"/><circle cx="1727" cy="412" r="5"/><circle cx="1830" cy="446" r="6"/><circle cx="1915" cy="480" r="5"/><circle cx="1960" cy="445" r="5"/><circle cx="2035" cy="458" r="5"/><circle cx="2141" cy="443" r="5"/><circle cx="2168" cy="463" r="5"/><circle cx="2307" cy="478" r="6"/><circle cx="2325" cy="417" r="4"/><circle cx="2402" cy="418" r="5"/><circle cx="2534" cy="471" r="5"/><circle cx="18" cy="540" r="6"/><circle cx="96" cy="513" r="5"/><circle cx="210" cy="498" r="6"/><circle cx="287" cy="540" r="4"/><circle cx="361" cy="520" r="4"/><circle cx="410" cy="515" r="6"/><circle cx="545" cy="556" r="5"/><circle cx="634" cy="484" r="5"/><circle cx="706" cy="490" r="6"/><circle cx="722" cy="514" r="4"/><circle cx="822" cy="483" r="5"/><circle cx="938" cy="507" r="5"/><circle cx="978" cy="510" r="5"/><circle cx="1056" cy="492" r="5"/><circle cx="1130" cy="527" r="4"/><circle cx="1224" cy="516" r="6"/><circle cx="1360" cy="522" r="6"/><circle cx="1374" cy="557" r="4"/><circle cx="1458" cy="536" r="6"/><circle cx="1524" cy="487" r="6"/><circle cx="1639" cy="480" r="5"/><circle cx="1742" cy="500" r="6"/><circle cx="1777" cy="489" r="6"/><circle cx="1853" cy="550" r="5"/><circle cx="1942" cy="499" r="4"/><circle cx="2021" cy="524" r="6"/><circle cx="2146" cy="538" r="5"/><circle cx="2214" cy="513" r="6"/><circle cx="2265" cy="552" r="5"/><circle cx="2364" cy="540" r="4"/><circle cx="2425" cy="485" r="4"/><circle cx="2513" cy="552" r="5"/><circle cx="21" cy="568" r="4"/><circle cx="151" cy="589" r="5"/><circle cx="238" cy="601" r="6"/><circle cx="291" cy="577" r="6"/><circle cx="384" cy="633" r="4"/><circle cx="445" cy="623" r="5"/><circle cx="519" cy="586" r="5"/><circle cx="594" cy="577" r="5"/><circle cx="660" cy="610" r="6"/><circle cx="797" cy="621" r="5"/><circle cx="824" cy="576" r="4"/><circle cx="898" cy="590" r="5"/><circle cx="1025" cy="640" r="4"/><circle cx="1088" cy="631" r="4"/><circle cx="1165" cy="613" r="6"/><circle cx="1249" cy="580" r="5"/><circle cx="1348" cy="577" r="6"/><circle cx="1368" cy="608" r="6"/><circle cx="1495" cy="571" r="5"/><circle cx="1563" cy="636" r="6"/><circle cx="1654" cy="591" r="4"/><circle cx="1689" cy="581" r="5"/><circle cx="1820" cy="621" r="4"/><circle cx="1868" cy="577" r="6"/><circle cx="1935" cy="585" r="4"/><circle cx="2025" cy="605" r="4"/><circle cx="2118" cy="595" r="4"/><circle cx="2186" cy="604" r="5"/><circle cx="2271" cy="580" r="5"/><circle cx="2363" cy="604" r="6"/><circle cx="2445" cy="625" r="5"/><circle cx="2547" cy="573" r="6"/><circle cx="55" cy="701" r="4"/><circle cx="130" cy="653" r="4"/><circle cx="220" cy="661" r="5"/><circle cx="281" cy="659" r="5"/><circle cx="329" cy="679" r="5"/><circle cx="421" cy="701" r="5"/><circle cx="510" cy="648" r="4"/><circle cx="577" cy="669" r="6"/><circle cx="676" cy="688" r="5"/><circle cx="729" cy="699" r="4"/><circle cx="840" cy="694" r="5"/><circle cx="937" cy="692" r="4"/><circle cx="979" cy="682" r="4"/><circle cx="1065" cy="706" r="5"/><circle cx="1171" cy="710" r="5"/><circle cx="1248" cy="663" r="5"/><circle cx="1343" cy="684" r="5"/><circle cx="1376" cy="667" r="5"/><circle cx="1453" cy="699" r="5"/><circle cx="1552" cy="664" r="6"/><circle cx="1636" cy="686" r="5"/><circle cx="1744" cy="698" r="5"/><circle cx="1811" cy="659" r="6"/><circle cx="1861" cy="716" r="5"/><circle cx="1977" cy="650" r="5"/><circle cx="2010" cy="667" r="6"/><circle cx="2083" cy="706" r="5"/><circle cx="2227" cy="672" r="5"/><circle cx="2272" cy="709" r="6"/><circle cx="2346" cy="650" r="5"/><circle cx="2455" cy="686" r="5"/><circle cx="2486" cy="653" r="4"/><circle cx="63" cy="775" r="5"/><circle cx="97" cy="785" r="6"/><circle cx="175" cy="760" r="4"/><circle cx="295" cy="758" r="5"/><circle cx="344" cy="750" r="6"/><circle cx="446" cy="776" r="4"/><circle cx="483" cy="741" r="5"/><circle cx="606" cy="727" r="4"/><circle cx="667" cy="730" r="5"/><circle cx="730" cy="737" r="6"/><circle cx="808" cy="752" r="5"/><circle cx="936" cy="729" r="5"/><circle cx="1038" cy="799" r="6"/><circle cx="1095" cy="724" r="6"/><circle cx="1177" cy="761" r="5"/><circle cx="1206" cy="798" r="4"/><circle cx="1339" cy="784" r="5"/><circle cx="1360" cy="746" r="5"/><circle cx="1472" cy="728" r="5"/><circle cx="1559" cy="764" r="5"/><circle cx="1626" cy="789" r="5"/><circle cx="1681" cy="725" r="5"/><circle cx="1802" cy="731" r="5"/><circle cx="1860" cy="786" r="5"/><circle cx="1988" cy="748" r="5"/><circle cx="2033" cy="728" r="6"/><circle cx="2133" cy="737" r="4"/><circle cx="2207" cy="783" r="5"/><circle cx="2281" cy="791" r="5"/><circle cx="2384" cy="737" r="6"/><circle cx="2413" cy="751" r="5"/><circle cx="2546" cy="743" r="6"/><circle cx="42" cy="808" r="5"/><circle cx="153" cy="854" r="6"/><circle cx="231" cy="872" r="5"/><circle cx="253" cy="840" r="4"/><circle cx="352" cy="825" r="6"/><circle cx="433" cy="853" r="5"/><circle cx="516" cy="828" r="5"/><circle cx="602" cy="866" r="5"/><circle cx="698" cy="868" r="5"/><circle cx="769" cy="860" r="6"/><circle cx="862" cy="803" r="5"/><circle cx="927" cy="875" r="5"/><circle cx="977" cy="826" r="5"/><circle cx="1049" cy="845" r="5"/><circle cx="1123" cy="828" r="5"/><circle cx="1236" cy="835" r="4"/><circle cx="1322" cy="870" r="5"/><circle cx="1401" cy="829" r="5"/><circle cx="1459" cy="865" r="4"/><circle cx="1585" cy="829" r="6"/><circle cx="1670" cy="868" r="4"/><circle cx="1737" cy="816" r="5"/><circle cx="1817" cy="835" r="5"/><circle cx="1915" cy="831" r="6"/><circle cx="1998" cy="855" r="5"/><circle cx="2022" cy="864" r="6"/><circle cx="2082" cy="832" r="5"/><circle cx="2216" cy="852" r="6"/><circle cx="2256" cy="846" r="5"/><circle cx="2390" cy="826" r="5"/><circle cx="2440" cy="866" r="4"/><circle cx="2491" cy="822" r="6"/><circle cx="76" cy="939" r="5"/><circle cx="134" cy="893" r="5"/><circle cx="214" cy="910" r="5"/><circle cx="272" cy="946" r="5"/><circle cx="327" cy="912" r="5"/><circle cx="454" cy="947" r="4"/><circle cx="519" cy="934" r="4"/><circle cx="615" cy="911" r="4"/><circle cx="701" cy="953" r="5"/><circle cx="724" cy="898" r="6"/><circle cx="823" cy="951" r="5"/><circle cx="924" cy="951" r="6"/><circle cx="1026" cy="897" r="4"/><circle cx="1073" cy="895" r="4"/><circle cx="1198" cy="915" r="5"/><circle cx="1262" cy="938" r="6"/><circle cx="1316" cy="896" r="5"/><circle cx="1426" cy="931" r="4"/><circle cx="1515" cy="925" r="6"/><circle cx="1576" cy="888" r="5"/><circle cx="1653" cy="932" r="4"/><circle cx="1720" cy="941" r="5"/><circle cx="1839" cy="915" r="5"/><circle cx="1918" cy="894" r="5"/><circle cx="1940" cy="921" r="6"/><circle cx="2065" cy="952" r="5"/><circle cx="2151" cy="951" r="5"/><circle cx="2235" cy="897" r="5"/><circle cx="2246" cy="886" r="5"/><circle cx="2324" cy="930" r="5"/><circle cx="2442" cy="935" r="5"/><circle cx="2506" cy="958" r="5"/><circle cx="53" cy="1021" r="5"/><circle cx="128" cy="962" r="4"/><circle cx="230" cy="1032" r="5"/><circle cx="307" cy="1012" r="6"/><circle cx="347" cy="993" r="6"/><circle cx="417" cy="979" r="5"/><circle cx="526" cy="963" r="5"/><circle cx="629" cy="1037" r="5"/><circle cx="710" cy="984" r="4"/><circle cx="772" cy="977" r="5"/><circle cx="877" cy="1013" r="4"/><circle cx="893" cy="1029" r="5"/><circle cx="1011" cy="1006" r="4"/><circle cx="1119" cy="1001" r="5"/><circle cx="1150" cy="984" r="4"/><circle cx="1264" cy="1038" r="5"/><circle cx="1290" cy="971" r="5"/><circle cx="1406" cy="994" r="6"/><circle cx="1444" cy="1013" r="5"/><circle cx="1526" cy="1008" r="4"/><circle cx="1632" cy="974" r="4"/><circle cx="1683" cy="1014" r="6"/><circle cx="1827" cy="995" r="5"/><circle cx="1874" cy="1028" r="4"/><circle cx="1933" cy="1014" r="5"/><circle cx="2063" cy="1016" r="6"/><circle cx="2105" cy="978" r="6"/><circle cx="2194" cy="1026" r="6"/><circle cx="2271" cy="1020" r="5"/><circle cx="2390" cy="1010" r="5"/><circle cx="2466" cy="1015" r="5"/><circle cx="2507" cy="1017" r="5"/><circle cx="57" cy="1104" r="5"/><circle cx="139" cy="1054" r="4"/><circle cx="161" cy="1068" r="4"/><circle cx="271" cy="1100" r="5"/><circle cx="339" cy="1062" r="5"/><circle cx="464" cy="1049" r="5"/><circle cx="560" cy="1103" r="5"/><circle cx="591" cy="1103" r="4"/><circle cx="686" cy="1104" r="5"/><circle cx="755" cy="1117" r="5"/><circle cx="816" cy="1101" r="4"/><circle cx="910" cy="1065" r="5"/><circle cx="1006" cy="1046" r="6"/><circle cx="1111" cy="1083" r="6"/><circle cx="1182" cy="1095" r="4"/><circle cx="1218" cy="1099" r="5"/><circle cx="1313" cy="1066" r="5"/><circle cx="1389" cy="1071" r="6"/><circle cx="1498" cy="1075" r="5"/><circle cx="1592" cy="1079" r="5"/><circle cx="1661" cy="1076" r="5"/><circle cx="1719" cy="1062" r="6"/><circle cx="1798" cy="1105" r="4"/><circle cx="1889" cy="1104" r="5"/><circle cx="1927" cy="1102" r="5"/><circle cx="2029" cy="1118" r="6"/><circle cx="2153" cy="1082" r="5"/><circle cx="2184" cy="1117" r="4"/><circle cx="2300" cy="1070" r="6"/><circle cx="2384" cy="1083" r="5"/><circle cx="2451" cy="1086" r="6"/><circle cx="2482" cy="1112" r="6"/><circle cx="67" cy="1166" r="4"/><circle cx="111" cy="1199" r="4"/><circle cx="199" cy="1195" r="6"/><circle cx="258" cy="1195" r="4"/><circle cx="327" cy="1184" r="5"/><circle cx="467" cy="1150" r="5"/><circle cx="552" cy="1131" r="4"/><circle cx="583" cy="1198" r="4"/><circle cx="647" cy="1152" r="5"/><circle cx="760" cy="1122" r="6"/><circle cx="827" cy="1142" r="6"/><circle cx="899" cy="1151" r="5"/><circle cx="969" cy="1140" r="4"/><circle cx="1071" cy="1158" r="5"/><circle cx="1143" cy="1173" r="4"/><circle cx="1224" cy="1150" r="6"/><circle cx="1294" cy="1152" r="6"/><circle cx="1411" cy="1156" r="6"/><circle cx="1513" cy="1133" r="5"/><circle cx="1597" cy="1133" r="4"/><circle cx="1627" cy="1150" r="5"/><circle cx="1685" cy="1180" r="5"/><circle cx="1813" cy="1165" r="5"/><circle cx="1849" cy="1167" r="4"/><circle cx="1976" cy="1186" r="4"/><circle cx="2068" cy="1152" r="5"/><circle cx="2109" cy="1158" r="6"/><circle cx="2220" cy="1168" r="5"/><circle cx="2267" cy="1166" r="5"/><circle cx="2346" cy="1193" r="6"/><circle cx="2462" cy="1181" r="4"/><circle cx="2529" cy="1169" r="6"/><circle cx="51" cy="1214" r="5"/><circle cx="136" cy="1228" r="5"/><circle cx="182" cy="1252" r="5"/><circle cx="310" cy="1271" r="5"/><circle cx="344" cy="1238" r="5"/><circle cx="475" cy="1227" r="5"/><circle cx="519" cy="1229" r="5"/><circle cx="636" cy="1224" r="6"/><circle cx="701" cy="1248" r="5"/><circle cx="793" cy="1240" r="4"/><circle cx="864" cy="1228" r="5"/><circle cx="948" cy="1273" r="4"/><circle cx="983" cy="1258" r="6"/><circle cx="1090" cy="1230" r="5"/><circle cx="1169" cy="1208" r="4"/><circle cx="1260" cy="1219" r="5"/><circle cx="1296" cy="1241" r="4"/><circle cx="1409" cy="1274" r="5"/><circle cx="1488" cy="1262" r="6"/><circle cx="1534" cy="1225" r="6"/><circle cx="1630" cy="1262" r="5"/><circle cx="1758" cy="1221" r="4"/><circle cx="1788" cy="1274" r="4"/><circle cx="1853" cy="1239" r="6"/><circle cx="1930" cy="1223" r="5"/><circle cx="2023" cy="1265" r="5"/><circle cx="2120" cy="1206" r="4"/><circle cx="2182" cy="1276" r="5"/><circle cx="2283" cy="1258" r="4"/><circle cx="2364" cy="1224" r="4"/><circle cx="2443" cy="1280" r="5"/><circle cx="2536" cy="1241" r="5"/><circle cx="30" cy="1293" r="5"/><circle cx="157" cy="1353" r="6"/><circle cx="188" cy="1293" r="6"/><circle cx="295" cy="1323" r="5"/><circle cx="358" cy="1304" r="5"/><circle cx="411" cy="1341" r="6"/><circle cx="481" cy="1316" r="5"/><circle cx="578" cy="1294" r="5"/><circle cx="655" cy="1351" r="6"/><circle cx="785" cy="1290" r="6"/><circle cx="858" cy="1331" r="5"/><circle cx="889" cy="1349" r="5"/><circle cx="986" cy="1305" r="5"/><circle cx="1049" cy="1315" r="4"/><circle cx="1133" cy="1319" r="5"/><circle cx="1205" cy="1341" r="5"/><circle cx="1336" cy="1289" r="4"/><circle cx="1412" cy="1339" r="6"/><circle cx="1462" cy="1286" r="5"/><circle cx="1566" cy="1340" r="5"/><circle cx="1630" cy="1323" r="4"/><circle cx="1700" cy="1316" r="4"/><circle cx="1830" cy="1330" r="5"/><circle cx="1858" cy="1328" r="6"/><circle cx="1938" cy="1332" r="4"/><circle cx="2041" cy="1337" r="5"/><circle cx="2146" cy="1350" r="4"/><circle cx="2222" cy="1302" r="5"/><circle cx="2314" cy="1327" r="5"/><circle cx="2382" cy="1303" r="6"/><circle cx="2465" cy="1298" r="5"/><circle cx="2549" cy="1323" r="4"/><circle cx="51" cy="1362" r="5"/><circle cx="146" cy="1424" r="5"/><circle cx="211" cy="1418" r="4"/><circle cx="267" cy="1419" r="6"/><circle cx="357" cy="1389" r="5"/><circle cx="476" cy="1382" r="5"/><circle cx="526" cy="1405" r="5"/><circle cx="613" cy="1390" r="4"/><circle cx="668" cy="1397" r="6"/><circle cx="794" cy="1424" r="6"/><circle cx="865" cy="1416" r="5"/><circle cx="932" cy="1370" r="5"/><circle cx="1005" cy="1406" r="4"/><circle cx="1097" cy="1434" r="6"/><circle cx="1182" cy="1392" r="6"/><circle cx="1271" cy="1400" r="5"/><circle cx="1347" cy="1436" r="5"/><circle cx="1347" cy="-4" r="5"/><circle cx="1436" cy="1365" r="5"/><circle cx="1440" cy="1415" r="4"/><circle cx="1544" cy="1427" r="5"/><circle cx="1637" cy="1376" r="6"/><circle cx="1734" cy="1438" r="5"/><circle cx="1734" cy="-2" r="5"/><circle cx="1824" cy="1406" r="6"/><circle cx="1848" cy="1414" r="6"/><circle cx="1923" cy="1418" r="6"/><circle cx="2013" cy="1416" r="5"/><circle cx="2135" cy="1432" r="4"/><circle cx="2217" cy="1388" r="6"/><circle cx="2249" cy="1368" r="4"/><circle cx="2368" cy="1426" r="4"/><circle cx="2448" cy="1398" r="4"/><circle cx="2509" cy="1423" r="4"/><path stroke="#fff" d="M32 69L113 70M32 69L-33 16M32 69L59 152M32 69L-19 90M2592 69L2527 16M2592 69L2541 90M113 70L200 64M113 70L154 124M113 70L202 103M113 70L146 -16M113 1510L146 1424M200 64L154 124M200 64L202 103M200 64L146 -16M200 64L211 -22M200 1504L146 1424M200 1504L211 1418M310 48L351 38M310 48L264 137M310 48L346 96M310 48L267 -21M310 1488L267 1419M351 38L451 22M351 38L346 96M351 38L267 -21M351 38L357 -51M351 1478L267 1419M351 1478L357 1389M451 22L519 49M451 22L478 124M451 22L476 -58M451 22L526 -35M451 1462L476 1382M451 1462L526 1405M519 49L575 8M519 49L478 124M519 49L526 -35M519 1489L526 1405M575 8L476 -58M575 8L526 -35M575 8L613 -50M575 8L668 -43M575 1448L476 1382M575 1448L526 1405M575 1448L613 1390M575 1448L668 1397M694 40L788 10M694 40L668 -43M694 40L794 -16M694 1480L668 1397M694 1480L794 1424M788 10L841 65M788 10L881 61M788 10L794 -16M788 10L865 -24M788 1450L794 1424M788 1450L865 1416M841 65L881 61M841 65L873 84M841 65L794 -16M841 1505L794 1424M881 61L873 84M881 61L935 126M881 61L865 -24M881 1501L865 1416M994 51L1042 48M994 51L935 126M994 51L1003 130M994 51L1005 -34M994 51L1097 -6M994 1491L1005 1406M994 1491L1097 1434M1042 48L1003 130M1042 48L1092 148M1042 48L1005 -34M1042 48L1097 -6M1042 1488L1005 1406M1042 1488L1097 1434M1163 40L1216 70M1163 40L1235 89M1163 40L1097 -6M1163 40L1182 -48M1163 1480L1097 1434M1163 1480L1182 1392M1216 70L1172 148M1216 70L1235 89M1216 70L1302 83M1346 13L1438 79M1346 13L1302 83M1346 13L1271 -40M1346 13L1347 -4M1346 13L1440 -25M1346 1453L1271 1400M1346 1453L1347 1436M1346 1453L1440 1415M1438 79L1476 29M1438 79L1403 139M1438 79L1518 94M1438 79L1394 194M1476 29L1565 16M1476 29L1518 94M1476 29L1440 -25M1476 29L1544 -13M1476 1469L1440 1415M1476 1469L1544 1427M1565 16L1646 26M1565 16L1518 94M1565 16L1544 -13M1565 1456L1544 1427M1646 26L1617 108M1646 26L1688 82M1646 26L1637 -64M1646 26L1734 -2M1646 1466L1637 1376M1646 1466L1734 1438M1748 61L1808 60M1748 61L1688 82M1748 61L1734 -2M1748 1501L1734 1438M1808 60L1862 25M1808 60L1814 142M1862 25L1956 33M1862 25L1824 -34M1862 25L1848 -26M1862 25L1923 -22M1862 1465L1824 1406M1862 1465L1848 1414M1862 1465L1923 1418M1956 33L2039 14M1956 33L1923 -22M1956 33L2013 -24M1956 1473L1923 1418M1956 1473L2013 1416M2039 14L2151 18M2039 14L2013 -24M2039 14L2135 -8M2039 1454L2013 1416M2039 1454L2135 1432M2151 18L2212 32M2151 18L2103 99M2151 18L2135 -8M2151 1458L2135 1432M2212 32L2274 10M2212 32L2245 107M2212 32L2135 -8M2212 32L2217 -52M2212 1472L2135 1432M2212 1472L2217 1388M2274 10L2245 107M2274 10L2217 -52M2274 10L2249 -72M2274 10L2368 -14M2274 1450L2217 1388M2274 1450L2249 1368M2274 1450L2368 1426M2388 43L2431 3M2388 43L2411 112M2388 43L2368 -14M2388 1483L2368 1426M2431 3L2527 16M2431 3L2368 -14M2431 3L2448 -42M2431 3L2509 -17M2431 1443L2368 1426M2431 1443L2448 1398M2431 1443L2509 1423M2527 16L2541 90M2527 16L2448 -42M2527 16L2509 -17M2527 1456L2448 1398M2527 1456L2509 1423M59 152L154 124M59 152L-19 90M59 152L35 204M59 152L159 194M2619 152L2541 90M154 124L202 103M154 124L159 194M202 103L264 137M264 137L346 96M264 137L238 223M264 137L240 203M346 96L363 182M346 96L431 165M478 124L555 154M478 124L431 165M478 124L555 210M555 154L623 136M555 154L555 210M555 154L581 251M623 136L692 132M623 136L627 196M692 132L720 152M692 132L693 200M692 132L778 163M720 152L693 200M720 152L778 163M720 152L687 244M873 84L935 126M935 126L1003 130M935 126L934 172M1003 130L934 172M1003 130L1012 208M1092 148L1172 148M1092 148L1012 208M1092 148L1075 230M1092 148L1157 176M1172 148L1235 89M1172 148L1157 176M1172 148L1253 230M1235 89L1302 83M1235 89L1157 176M1302 83L1403 139M1302 83L1347 -4M1302 1523L1347 1436M1403 139L1394 194M1518 94L1557 137M1518 94L1617 108M1557 137L1617 108M1557 137L1532 210M1557 137L1620 202M1617 108L1688 82M1617 108L1620 202M1688 82L1734 -2M1688 1522L1734 1438M1814 142L1857 158M1814 142L1729 192M1814 142L1780 223M1814 142L1883 193M1857 158L1883 193M1857 158L1820 244M1996 155L2040 133M1996 155L1957 178M1996 155L2050 168M2040 133L2103 99M2040 133L1957 178M2040 133L2050 168M2103 99L2188 160M2103 99L2050 168M2188 160L2245 107M2188 160L2165 232M2188 160L2241 196M2245 107L2321 152M2245 107L2241 196M2321 152L2411 112M2321 152L2380 184M2411 112L2380 184M2411 112L2448 165M2541 90L2509 -17M2541 1530L2509 1423M35 204L-77 207M35 204L59 316M35 204L82 298M35 204L-46 252M2595 204L2483 207M2595 204L2514 252M159 194L238 223M159 194L240 203M238 223L240 203M238 223L229 278M238 223L300 288M240 203L229 278M240 203L300 288M363 182L431 165M363 182L445 268M431 165L445 268M431 165L494 257M555 210L627 196M555 210L494 257M555 210L581 251M627 196L693 200M627 196L581 251M627 196L687 244M693 200L778 163M693 200L687 244M778 163L847 239M778 163L687 244M847 239L934 172M847 239L867 258M847 239L897 314M847 239L835 324M934 172L1012 208M934 172L963 260M1012 208L1075 230M1012 208L963 260M1075 230L1157 176M1075 230L1101 281M1075 230L1146 289M1157 176L1253 230M1253 230L1295 211M1253 230L1243 242M1295 211L1394 194M1295 211L1243 242M1295 211L1332 315M1394 194L1488 224M1488 224L1532 210M1488 224L1446 307M1488 224L1553 294M1488 224L1517 327M1532 210L1620 202M1532 210L1553 294M1620 202L1611 296M1620 202L1688 279M1729 192L1780 223M1780 223L1883 193M1780 223L1688 279M1780 223L1820 244M1883 193L1957 178M1883 193L1820 244M1957 178L2050 168M1957 178L1964 269M2050 168L2084 233M2084 233L2165 232M2084 233L2016 286M2084 233L2125 292M2165 232L2241 196M2165 232L2125 292M2165 232L2200 264M2241 196L2200 264M2241 196L2265 273M2380 184L2448 165M2380 184L2483 207M2380 184L2400 259M2448 165L2483 207M2448 165L2400 259M2448 165L2514 252M2483 207L2400 259M2483 207L2514 252M59 316L82 298M59 316L33 389M59 316L114 354M82 298L114 354M82 298L176 326M229 278L300 288M229 278L176 326M300 288L325 316M300 288L313 323M325 316L313 323M325 316L385 386M325 316L305 409M325 316L346 412M445 268L494 257M445 268L450 327M494 257L581 251M494 257L450 327M581 251L573 334M687 244L721 307M721 307L688 377M867 258L897 314M867 258L835 324M897 314L963 260M897 314L835 324M897 314L927 348M963 260L927 348M963 260L978 365M1101 281L1146 289M1101 281L1065 338M1146 289L1243 242M1146 289L1065 338M1146 289L1185 386M1332 315L1364 311M1332 315L1279 380M1332 315L1318 322M1332 315L1374 329M1364 311L1446 307M1364 311L1318 322M1364 311L1374 329M1446 307L1374 329M1446 307L1517 327M1553 294L1611 296M1553 294L1517 327M1553 294L1564 342M1611 296L1688 279M1611 296L1564 342M1611 296L1649 363M1688 279L1649 363M1688 279L1743 357M1820 244L1847 310M1820 244L1794 335M1847 310L1964 269M1847 310L1743 357M1847 310L1794 335M1847 310L1890 378M1964 269L2016 286M1964 269L1979 339M1964 269L2038 366M2016 286L1979 339M2016 286L2038 366M2125 292L2151 362M2125 292L2180 343M2200 264L2265 273M2200 264L2180 343M2200 264L2255 328M2265 273L2180 343M2265 273L2255 328M2265 273L2362 322M2400 259L2431 306M2400 259L2362 322M2431 306L2514 252M2431 306L2362 322M2431 306L2457 399M2431 306L2500 380M33 389L114 354M33 389L-60 380M33 389L41 458M2593 389L2500 380M114 354L176 326M313 323L305 409M313 323L346 412M385 386L450 327M385 386L305 409M385 386L346 412M385 386L409 457M450 327L528 393M450 327L522 404M528 393L573 334M528 393L522 404M573 334L522 404M573 334L636 433M688 377L778 395M688 377L636 433M688 377L706 403M688 377L776 401M778 395L835 324M778 395L706 403M778 395L776 401M778 395L822 483M835 324L927 348M927 348L978 365M927 348L926 411M978 365L1065 338M978 365L926 411M978 365L999 428M1065 338L1079 413M1185 386L1279 380M1185 386L1079 413M1185 386L1166 455M1185 386L1221 477M1279 380L1318 322M1279 380L1221 477M1279 380L1308 427M1318 322L1374 329M1517 327L1564 342M1564 342L1649 363M1564 342L1598 421M1649 363L1743 357M1649 363L1598 421M1743 357L1794 335M1743 357L1727 412M1794 335L1890 378M1794 335L1727 412M1890 378L1979 339M1890 378L1830 446M1890 378L1960 445M1979 339L2038 366M2038 366L2035 458M2151 362L2180 343M2151 362L2255 328M2151 362L2141 443M2151 362L2168 463M2180 343L2255 328M2255 328L2362 322M2362 322L2402 418M2457 399L2500 380M2457 399L2402 418M2457 399L2425 485M2500 380L2402 418M2500 380L2534 471M41 458L103 466M41 458L-26 471M41 458L96 513M2601 458L2534 471M103 466L161 450M103 466L96 513M161 450L96 513M161 450L210 498M305 409L346 412M305 409L409 457M346 412L409 457M409 457L361 520M409 457L410 515M636 433L706 403M636 433L634 484M636 433L706 490M706 403L776 401M706 403L706 490M776 401L706 490M776 401L822 483M858 475L926 411M858 475L822 483M858 475L938 507M858 475L824 576M926 411L999 428M926 411L938 507M999 428L1079 413M999 428L978 510M999 428L1056 492M1079 413L1166 455M1079 413L1056 492M1166 455L1221 477M1166 455L1130 527M1166 455L1224 516M1221 477L1308 427M1221 477L1224 516M1308 427L1375 474M1375 474L1360 522M1375 474L1374 557M1508 479L1458 536M1508 479L1524 487M1508 479L1495 571M1598 421L1652 477M1598 421L1524 487M1598 421L1639 480M1652 477L1727 412M1652 477L1639 480M1652 477L1742 500M1652 477L1689 581M1727 412L1742 500M1727 412L1777 489M1830 446L1915 480M1830 446L1742 500M1830 446L1777 489M1915 480L1960 445M1915 480L1853 550M1915 480L1942 499M1915 480L1868 577M1960 445L2035 458M1960 445L1942 499M1960 445L2021 524M2035 458L2141 443M2035 458L2021 524M2141 443L2168 463M2141 443L2146 538M2168 463L2146 538M2168 463L2214 513M2307 478L2325 417M2307 478L2214 513M2307 478L2265 552M2307 478L2364 540M2325 417L2402 418M2402 418L2425 485M2534 471L2578 540M2534 471L2513 552M2534 471L2547 573M-26 471L18 540M18 540L96 513M18 540L-47 552M18 540L21 568M18 540L-13 573M2578 540L2513 552M2578 540L2547 573M96 513L151 589M210 498L287 540M210 498L151 589M210 498L291 577M287 540L361 520M287 540L238 601M287 540L291 577M361 520L410 515M361 520L291 577M410 515L384 633M410 515L445 623M545 556L519 586M545 556L594 577M545 556L510 648M634 484L706 490M634 484L722 514M634 484L594 577M706 490L722 514M722 514L822 483M822 483L824 576M938 507L978 510M938 507L1056 492M938 507L898 590M978 510L1056 492M978 510L898 590M1056 492L1130 527M1130 527L1224 516M1130 527L1165 613M1224 516L1249 580M1360 522L1374 557M1360 522L1458 536M1360 522L1348 577M1360 522L1368 608M1374 557L1458 536M1374 557L1348 577M1374 557L1368 608M1458 536L1524 487M1458 536L1495 571M1524 487L1639 480M1524 487L1495 571M1639 480L1689 581M1742 500L1777 489M1742 500L1689 581M1777 489L1853 550M1853 550L1820 621M1853 550L1868 577M1853 550L1935 585M1942 499L2021 524M1942 499L1935 585M2021 524L1935 585M2021 524L2025 605M2146 538L2214 513M2146 538L2118 595M2146 538L2186 604M2214 513L2265 552M2214 513L2271 580M2265 552L2186 604M2265 552L2271 580M2265 552L2363 604M2364 540L2425 485M2364 540L2363 604M2513 552L2581 568M2513 552L2445 625M2513 552L2547 573M-47 552L21 568M21 568L-13 573M2581 568L2547 573M151 589L238 601M151 589L130 653M151 589L220 661M238 601L291 577M238 601L220 661M238 601L281 659M291 577L281 659M384 633L445 623M384 633L329 679M384 633L421 701M445 623L519 586M445 623L421 701M445 623L510 648M519 586L594 577M519 586L510 648M519 586L577 669M594 577L660 610M594 577L577 669M660 610L577 669M660 610L676 688M660 610L667 730M797 621L824 576M797 621L898 590M797 621L729 699M797 621L840 694M824 576L898 590M898 590L937 692M1025 640L1088 631M1025 640L937 692M1025 640L979 682M1025 640L1065 706M1088 631L1165 613M1088 631L1065 706M1088 631L1095 724M1165 613L1249 580M1165 613L1171 710M1165 613L1248 663M1249 580L1348 577M1249 580L1248 663M1348 577L1368 608M1348 577L1376 667M1368 608L1343 684M1368 608L1376 667M1495 571L1563 636M1563 636L1654 591M1563 636L1552 664M1563 636L1636 686M1563 636L1559 764M1654 591L1689 581M1654 591L1636 686M1820 621L1868 577M1820 621L1811 659M1820 621L1861 716M1868 577L1935 585M1868 577L1811 659M1935 585L1977 650M2025 605L2118 595M2025 605L1977 650M2025 605L2010 667M2118 595L2186 604M2186 604L2271 580M2186 604L2227 672M2271 580L2363 604M2271 580L2346 650M2363 604L2445 625M2363 604L2346 650M2445 625L2346 650M2445 625L2455 686M2445 625L2486 653M2547 573L2486 653M55 701L130 653M55 701L63 775M55 701L97 785M55 701L-14 743M2615 701L2546 743M130 653L220 661M220 661L281 659M220 661L175 760M281 659L329 679M281 659L295 758M329 679L295 758M329 679L344 750M421 701L344 750M421 701L446 776M421 701L483 741M510 648L577 669M510 648L483 741M577 669L606 727M676 688L729 699M676 688L606 727M676 688L667 730M676 688L730 737M729 699L667 730M729 699L730 737M729 699L808 752M840 694L937 692M840 694L730 737M840 694L808 752M840 694L936 729M937 692L979 682M937 692L936 729M979 682L1065 706M979 682L936 729M1065 706L1038 799M1065 706L1095 724M1171 710L1248 663M1171 710L1095 724M1171 710L1177 761M1171 710L1206 798M1248 663L1343 684M1343 684L1376 667M1343 684L1339 784M1343 684L1360 746M1376 667L1453 699M1376 667L1360 746M1453 699L1552 664M1453 699L1360 746M1453 699L1472 728M1552 664L1636 686M1552 664L1472 728M1552 664L1559 764M1636 686L1626 789M1636 686L1681 725M1744 698L1811 659M1744 698L1861 716M1744 698L1681 725M1744 698L1802 731M1744 698L1737 816M1811 659L1861 716M1811 659L1802 731M1861 716L1802 731M1861 716L1860 786M1977 650L2010 667M1977 650L1988 748M1977 650L2033 728M2010 667L2083 706M2010 667L1988 748M2010 667L2033 728M2083 706L1988 748M2083 706L2033 728M2083 706L2133 737M2083 706L2082 832M2227 672L2272 709M2227 672L2133 737M2272 709L2346 650M2272 709L2207 783M2272 709L2281 791M2272 709L2384 737M2346 650L2384 737M2455 686L2486 653M2455 686L2384 737M2455 686L2413 751M2455 686L2546 743M63 775L97 785M63 775L-14 743M63 775L42 808M2623 775L2546 743M97 785L175 760M97 785L42 808M97 785L153 854M175 760L153 854M295 758L344 750M295 758L253 840M295 758L352 825M344 750L446 776M344 750L352 825M446 776L483 741M446 776L433 853M446 776L516 828M483 741L433 853M483 741L516 828M606 727L667 730M667 730L730 737M730 737L808 752M808 752L769 860M808 752L862 803M936 729L862 803M936 729L977 826M1038 799L1095 724M1038 799L977 826M1038 799L1049 845M1038 799L1123 828M1095 724L1177 761M1177 761L1206 798M1177 761L1123 828M1177 761L1236 835M1206 798L1123 828M1206 798L1236 835M1339 784L1360 746M1339 784L1322 870M1339 784L1401 829M1360 746L1401 829M1472 728L1559 764M1559 764L1626 789M1559 764L1585 829M1626 789L1681 725M1626 789L1585 829M1626 789L1670 868M1681 725L1737 816M1802 731L1860 786M1802 731L1817 835M1860 786L1817 835M1860 786L1915 831M1988 748L2033 728M2033 728L2133 737M2133 737L2207 783M2133 737L2082 832M2207 783L2281 791M2207 783L2216 852M2207 783L2256 846M2281 791L2216 852M2281 791L2256 846M2281 791L2246 886M2384 737L2413 751M2384 737L2390 826M2413 751L2390 826M2413 751L2491 822M2546 743L2602 808M2546 743L2491 822M-14 743L42 808M42 808L-69 822M2602 808L2491 822M153 854L231 872M153 854L134 893M153 854L214 910M231 872L253 840M231 872L214 910M231 872L272 946M231 872L327 912M253 840L352 825M253 840L214 910M352 825L433 853M352 825L327 912M433 853L516 828M433 853L454 947M516 828L602 866M516 828L519 934M602 866L698 868M602 866L519 934M602 866L615 911M698 868L769 860M698 868L615 911M698 868L701 953M698 868L724 898M769 860L862 803M769 860L724 898M769 860L823 951M862 803L927 875M927 875L977 826M927 875L924 951M927 875L1026 897M977 826L1049 845M977 826L1026 897M1049 845L1123 828M1049 845L1026 897M1049 845L1073 895M1123 828L1073 895M1236 835L1322 870M1236 835L1198 915M1236 835L1316 896M1322 870L1401 829M1322 870L1262 938M1322 870L1316 896M1401 829L1459 865M1401 829L1316 896M1459 865L1426 931M1459 865L1515 925M1459 865L1576 888M1585 829L1670 868M1585 829L1515 925M1585 829L1576 888M1670 868L1737 816M1670 868L1653 932M1670 868L1720 941M1737 816L1817 835M1817 835L1915 831M1817 835L1839 915M1915 831L1998 855M1915 831L1918 894M1915 831L1940 921M1998 855L2022 864M1998 855L2082 832M1998 855L1918 894M1998 855L1940 921M2022 864L2082 832M2022 864L1918 894M2022 864L1940 921M2022 864L2065 952M2082 832L2065 952M2216 852L2256 846M2216 852L2235 897M2216 852L2246 886M2256 846L2235 897M2256 846L2246 886M2390 826L2440 866M2390 826L2491 822M2440 866L2491 822M2440 866L2442 935M2440 866L2506 958M76 939L134 893M76 939L53 1021M76 939L128 962M134 893L214 910M134 893L128 962M214 910L272 946M272 946L327 912M272 946L307 1012M272 946L347 993M327 912L347 993M454 947L519 934M454 947L417 979M454 947L526 963M454 947L464 1049M519 934L526 963M615 911L701 953M615 911L526 963M701 953L724 898M701 953L710 984M701 953L772 977M724 898L710 984M724 898L772 977M823 951L924 951M823 951L772 977M823 951L877 1013M823 951L893 1029M924 951L877 1013M924 951L893 1029M924 951L1011 1006M1026 897L1073 895M1026 897L1011 1006M1073 895L1119 1001M1073 895L1150 984M1198 915L1262 938M1198 915L1150 984M1262 938L1316 896M1262 938L1264 1038M1262 938L1290 971M1316 896L1290 971M1426 931L1515 925M1426 931L1406 994M1426 931L1444 1013M1515 925L1576 888M1515 925L1526 1008M1576 888L1653 932M1576 888L1632 974M1653 932L1720 941M1653 932L1632 974M1653 932L1683 1014M1720 941L1632 974M1720 941L1683 1014M1720 941L1719 1062M1839 915L1918 894M1839 915L1827 995M1918 894L1940 921M1940 921L1933 1014M2065 952L2151 951M2065 952L2063 1016M2065 952L2105 978M2151 951L2235 897M2151 951L2063 1016M2151 951L2105 978M2151 951L2194 1026M2235 897L2246 886M2235 897L2324 930M2246 886L2324 930M2324 930L2271 1020M2442 935L2506 958M2442 935L2390 1010M2442 935L2466 1015M2442 935L2507 1017M2506 958L2466 1015M2506 958L2507 1017M53 1021L128 962M53 1021L57 1104M53 1021L139 1054M128 962L139 1054M128 962L161 1068M230 1032L307 1012M230 1032L139 1054M230 1032L161 1068M230 1032L271 1100M307 1012L347 993M307 1012L271 1100M307 1012L339 1062M347 993L417 979M347 993L339 1062M417 979L526 963M417 979L339 1062M417 979L464 1049M526 963L464 1049M629 1037L710 984M629 1037L560 1103M629 1037L591 1103M629 1037L686 1104M710 984L772 977M772 977L877 1013M877 1013L893 1029M877 1013L910 1065M893 1029L910 1065M893 1029L1006 1046M1011 1006L1119 1001M1011 1006L1006 1046M1119 1001L1150 984M1119 1001L1111 1083M1264 1038L1290 971M1264 1038L1182 1095M1264 1038L1218 1099M1264 1038L1313 1066M1290 971L1313 1066M1406 994L1444 1013M1406 994L1389 1071M1444 1013L1526 1008M1444 1013L1389 1071M1444 1013L1498 1075M1526 1008L1498 1075M1632 974L1683 1014M1683 1014L1661 1076M1683 1014L1719 1062M1827 995L1874 1028M1827 995L1933 1014M1827 995L1798 1105M1874 1028L1933 1014M1874 1028L1889 1104M1874 1028L1927 1102M1933 1014L1927 1102M2063 1016L2105 978M2063 1016L2029 1118M2063 1016L2153 1082M2105 978L2194 1026M2194 1026L2271 1020M2194 1026L2153 1082M2194 1026L2184 1117M2271 1020L2300 1070M2390 1010L2466 1015M2390 1010L2300 1070M2390 1010L2384 1083M2390 1010L2451 1086M2466 1015L2507 1017M2466 1015L2451 1086M2507 1017L2451 1086M2507 1017L2482 1112M57 1104L139 1054M57 1104L67 1166M139 1054L161 1068M271 1100L339 1062M271 1100L327 1184M464 1049L467 1150M560 1103L591 1103M560 1103L467 1150M560 1103L552 1131M560 1103L647 1152M591 1103L686 1104M591 1103L552 1131M591 1103L647 1152M686 1104L755 1117M686 1104L647 1152M686 1104L760 1122M755 1117L816 1101M755 1117L760 1122M755 1117L827 1142M816 1101L760 1122M816 1101L827 1142M816 1101L899 1151M910 1065L1006 1046M910 1065L899 1151M910 1065L969 1140M1006 1046L1111 1083M1006 1046L969 1140M1111 1083L1182 1095M1111 1083L1071 1158M1111 1083L1143 1173M1182 1095L1218 1099M1182 1095L1224 1150M1218 1099L1313 1066M1218 1099L1224 1150M1218 1099L1294 1152M1313 1066L1389 1071M1313 1066L1294 1152M1389 1071L1498 1075M1389 1071L1411 1156M1498 1075L1592 1079M1498 1075L1513 1133M1592 1079L1661 1076M1592 1079L1513 1133M1592 1079L1597 1133M1592 1079L1627 1150M1661 1076L1719 1062M1661 1076L1597 1133M1661 1076L1627 1150M1719 1062L1798 1105M1719 1062L1685 1180M1798 1105L1889 1104M1798 1105L1813 1165M1798 1105L1849 1167M1889 1104L1927 1102M1889 1104L1813 1165M1889 1104L1849 1167M1927 1102L2029 1118M1927 1102L1976 1186M2029 1118L1976 1186M2029 1118L2068 1152M2029 1118L2109 1158M2153 1082L2184 1117M2153 1082L2109 1158M2153 1082L2220 1168M2184 1117L2109 1158M2184 1117L2220 1168M2184 1117L2267 1166M2300 1070L2384 1083M2300 1070L2267 1166M2384 1083L2451 1086M2384 1083L2482 1112M2384 1083L2346 1193M2451 1086L2482 1112M2482 1112L2462 1181M2482 1112L2529 1169M67 1166L111 1199M67 1166L-31 1169M67 1166L51 1214M2627 1166L2529 1169M111 1199L199 1195M111 1199L51 1214M111 1199L136 1228M111 1199L182 1252M199 1195L258 1195M199 1195L136 1228M199 1195L182 1252M199 1195L188 1293M258 1195L327 1184M258 1195L310 1271M258 1195L344 1238M327 1184L310 1271M327 1184L344 1238M467 1150L552 1131M467 1150L475 1227M467 1150L519 1229M552 1131L583 1198M583 1198L647 1152M583 1198L519 1229M583 1198L636 1224M583 1198L578 1294M647 1152L636 1224M760 1122L827 1142M760 1122L793 1240M827 1142L899 1151M827 1142L864 1228M899 1151L969 1140M899 1151L864 1228M969 1140L1071 1158M1071 1158L1143 1173M1071 1158L1090 1230M1071 1158L1169 1208M1143 1173L1090 1230M1143 1173L1169 1208M1224 1150L1294 1152M1224 1150L1169 1208M1224 1150L1260 1219M1294 1152L1260 1219M1294 1152L1296 1241M1411 1156L1513 1133M1513 1133L1597 1133M1513 1133L1534 1225M1597 1133L1627 1150M1597 1133L1685 1180M1627 1150L1685 1180M1685 1180L1630 1262M1685 1180L1758 1221M1813 1165L1849 1167M1813 1165L1758 1221M1813 1165L1853 1239M1849 1167L1853 1239M1849 1167L1930 1223M1976 1186L2068 1152M1976 1186L1930 1223M1976 1186L2023 1265M2068 1152L2109 1158M2068 1152L2023 1265M2068 1152L2120 1206M2109 1158L2120 1206M2220 1168L2267 1166M2220 1168L2120 1206M2220 1168L2182 1276M2267 1166L2346 1193M2267 1166L2283 1258M2346 1193L2283 1258M2346 1193L2364 1224M2346 1193L2382 1303M2462 1181L2529 1169M2462 1181L2443 1280M2529 1169L2536 1241M51 1214L136 1228M51 1214L-24 1241M51 1214L30 1293M2611 1214L2536 1241M136 1228L182 1252M136 1228L188 1293M182 1252L157 1353M182 1252L188 1293M310 1271L344 1238M310 1271L295 1323M310 1271L358 1304M344 1238L295 1323M344 1238L358 1304M475 1227L519 1229M475 1227L411 1341M475 1227L481 1316M519 1229L481 1316M519 1229L578 1294M636 1224L701 1248M636 1224L578 1294M636 1224L655 1351M701 1248L793 1240M701 1248L655 1351M701 1248L785 1290M793 1240L864 1228M793 1240L785 1290M864 1228L948 1273M864 1228L785 1290M948 1273L983 1258M948 1273L889 1349M948 1273L986 1305M983 1258L1090 1230M983 1258L986 1305M983 1258L1049 1315M1090 1230L1169 1208M1090 1230L1049 1315M1169 1208L1260 1219M1260 1219L1296 1241M1260 1219L1336 1289M1296 1241L1336 1289M1409 1274L1488 1262M1409 1274L1336 1289M1409 1274L1412 1339M1409 1274L1462 1286M1409 1274L1436 1365M1488 1262L1534 1225M1488 1262L1462 1286M1488 1262L1566 1340M1534 1225L1630 1262M1534 1225L1462 1286M1630 1262L1566 1340M1630 1262L1630 1323M1630 1262L1700 1316M1758 1221L1788 1274M1758 1221L1700 1316M1788 1274L1853 1239M1788 1274L1700 1316M1788 1274L1830 1330M1853 1239L1930 1223M1853 1239L1858 1328M1930 1223L2023 1265M1930 1223L1938 1332M2023 1265L1938 1332M2023 1265L2041 1337M2120 1206L2182 1276M2182 1276L2146 1350M2182 1276L2222 1302M2283 1258L2364 1224M2283 1258L2222 1302M2283 1258L2314 1327M2364 1224L2443 1280M2364 1224L2382 1303M2443 1280L2382 1303M2443 1280L2465 1298M2536 1241L2590 1293M2536 1241L2465 1298M2536 1241L2549 1323M-24 1241L30 1293M30 1293L-11 1323M30 1293L51 1362M2590 1293L2549 1323M157 1353L188 1293M157 1353L51 1362M157 1353L146 1424M157 1353L211 1418M295 1323L358 1304M295 1323L267 1419M295 1323L357 1389M358 1304L411 1341M358 1304L357 1389M411 1341L481 1316M411 1341L357 1389M411 1341L476 1382M481 1316L476 1382M578 1294L655 1351M578 1294L613 1390M655 1351L613 1390M655 1351L668 1397M785 1290L858 1331M858 1331L889 1349M858 1331L794 1424M858 1331L932 1370M889 1349L865 1416M889 1349L932 1370M986 1305L1049 1315M986 1305L932 1370M986 1305L1005 1406M1049 1315L1133 1319M1133 1319L1205 1341M1133 1319L1182 1392M1205 1341L1182 1392M1205 1341L1271 1400M1336 1289L1412 1339M1412 1339L1462 1286M1412 1339L1436 1365M1412 1339L1440 1415M1462 1286L1436 1365M1566 1340L1630 1323M1566 1340L1544 1427M1566 1340L1637 1376M1630 1323L1700 1316M1630 1323L1637 1376M1700 1316L1637 1376M1830 1330L1858 1328M1830 1330L1824 1406M1830 1330L1848 1414M1858 1328L1938 1332M1858 1328L1824 1406M1858 1328L1848 1414M1938 1332L2041 1337M2041 1337L2146 1350M2041 1337L2013 1416M2146 1350L2135 1432M2146 1350L2217 1388M2222 1302L2314 1327M2222 1302L2217 1388M2222 1302L2249 1368M2314 1327L2382 1303M2314 1327L2249 1368M2382 1303L2465 1298M2465 1298L2549 1323M2465 1298L2448 1398M2549 1323L2611 1362M2549 1323L2509 1423M-11 1323L51 1362M146 1424L211 1418M211 1418L267 1419M267 1419L357 1389M476 1382L526 1405M526 1405L613 1390M613 1390L668 1397M794 1424L865 1416M865 1416L932 1370M932 1370L1005 1406M1005 1406L1097 1434M1097 1434L1182 1392M1182 1392L1271 1400M1271 1400L1347 1436M1347 1436L1436 1365M1347 1436L1440 1415M1436 1365L1440 1415M1544 1427L1637 1376M1824 1406L1848 1414M1824 1406L1923 1418M1848 1414L1923 1418M1923 1418L2013 1416M2217 1388L2249 1368M2368 1426L2448 1398M2448 1398L2509 1423"/></svg>