<svg xmlns="http://www.w3.org/2000/svg" width="2560" height="1440" fill="#fff"><circle cx="10" cy="78" r="5"/><circle cx="141" cy="46" r="5"/><circle cx="202" cy="32" r="5"/><circle cx="252" cy="18" r="4"/><circle cx="366" cy="17" r="5"/><circle cx="427" cy="66" r="5"/><circle cx="511" cy="57" r="5"/><circle cx="565" cy="16" r="6"/><circle cx="666" cy="3" r="6"/><circle cx="666" cy="1443" r="6"/><circle cx="774" cy="48" r="4"/><circle cx="814" cy="56" r="5"/><circle cx="935" cy="50" r="5"/><circle cx="978" cy="45" r="4"/><circle cx="1108" cy="10" r="6"/><circle cx="1148" cy="74" r="5"/><circle cx="1273" cy="57" r="4"/><circle cx="1283" cy="10" r="6"/><circle cx="1369" cy="70" r="5"/><circle cx="1443" cy="21" r="6"/><circle cx="1553" cy="42" r="4"/><circle cx="1664" cy="60" r="5"/><circle cx="1688" cy="22" r="4"/><circle cx="1835" cy="49" r="5"/><circle cx="1863" cy="56" r="5"/><circle cx="1927" cy="6" r="5"/><circle cx="2073" cy="38" r="6"/><circle cx="2134" cy="10" r="5"/><circle cx="2232" cy="25" r="4"/><circle cx="2278" cy="49" r="5"/><circle cx="2355" cy="71" r="4"/><circle cx="2460" cy="53" r="6"/><circle cx="2542" cy="67" r="4"/><circle cx="65" cy="91" r="4"/><circle cx="142" cy="132" r="5"/><circle cx="199" cy="139" r="5"/><circle cx="258" cy="152" r="5"/><circle cx="375" cy="94" r="5"/><circle cx="447" cy="145" r="6"/><circle cx="511" cy="155" r="6"/><circle cx="597" cy="144" r="6"/><circle cx="680" cy="80" r="4"/><circle cx="736" cy="154" r="6"/><circle cx="835" cy="112" r="5"/><circle cx="942" cy="88" r="5"/><circle cx="1015" cy="126" r="6"/><circle cx="1044" cy="80" r="4"/><circle cx="1155" cy="85" r="4"/><circle cx="1229" cy="87" r="5"/><circle cx="1356" cy="101" r="4"/><circle cx="1385" cy="103" r="4"/><circle cx="1442" cy="141" r="4"/><circle cx="1563" cy="134" r="6"/><circle cx="1629" cy="138" r="5"/><circle cx="1707" cy="154" r="4"/><circle cx="1822" cy="134" r="6"/><circle cx="1850" cy="107" r="4"/><circle cx="1937" cy="99" r="5"/><circle cx="2059" cy="114" r="4"/><circle cx="2109" cy="141" r="6"/><circle cx="2160" cy="89" r="4"/><circle cx="2253" cy="116" r="4"/><circle cx="2354" cy="114" r="6"/><circle cx="2457" cy="100" r="5"/><circle cx="2501" cy="156" r="6"/><circle cx="59" cy="216" r="6"/><circle cx="126" cy="235" r="4"/><circle cx="236" cy="189" r="5"/><circle cx="249" cy="205" r="4"/><circle cx="373" cy="223" r="4"/><circle cx="407" cy="191" r="4"/><circle cx="511" cy="207" r="4"/><circle cx="623" cy="195" r="5"/><circle cx="688" cy="216" r="6"/><circle cx="771" cy="222" r="4"/><circle cx="851" cy="190" r="6"/><circle cx="947" cy="212" r="5"/><circle cx="1003" cy="216" r="4"/><circle cx="1076" cy="235" r="4"/><circle cx="1166" cy="201" r="5"/><circle cx="1202" cy="213" r="4"/><circle cx="1354" cy="214" r="5"/><circle cx="1420" cy="221" r="5"/><circle cx="1495" cy="168" r="4"/><circle cx="1559" cy="220" r="5"/><circle cx="1634" cy="207" r="5"/><circle cx="1742" cy="215" r="5"/><circle cx="1814" cy="234" r="4"/><circle cx="1871" cy="218" r="4"/><circle cx="1963" cy="192" r="5"/><circle cx="2020" cy="179" r="5"/><circle cx="2104" cy="172" r="4"/><circle cx="2230" cy="162" r="4"/><circle cx="2312" cy="218" r="5"/><circle cx="2340" cy="218" r="5"/><circle cx="2438" cy="233" r="5"/><circle cx="2516" cy="220" r="4"/><circle cx="52" cy="298" r="4"/><circle cx="144" cy="296" r="4"/><circle cx="220" cy="292" r="4"/><circle cx="275" cy="255" r="6"/><circle cx="349" cy="295" r="5"/><circle cx="450" cy="259" r="5"/><circle cx="489" cy="271" r="6"/><circle cx="594" cy="314" r="4"/><circle cx="696" cy="299" r="4"/><circle cx="781" cy="247" r="5"/><circle cx="843" cy="308" r="6"/><circle cx="955" cy="309" r="6"/><circle cx="1037" cy="253" r="5"/><circle cx="1057" cy="242" r="6"/><circle cx="1184" cy="318" r="5"/><circle cx="1214" cy="320" r="4"/><circle cx="1302" cy="314" r="5"/><circle cx="1406" cy="257" r="4"/><circle cx="1510" cy="310" r="5"/><circle cx="1540" cy="297" r="5"/><circle cx="1610" cy="312" r="5"/><circle cx="1727" cy="270" r="4"/><circle cx="1800" cy="310" r="5"/><circle cx="1904" cy="247" r="4"/><circle cx="1956" cy="262" r="4"/><circle cx="2034" cy="297" r="5"/><circle cx="2137" cy="305" r="4"/><circle cx="2239" cy="299" r="5"/><circle cx="2257" cy="309" r="4"/><circle cx="2335" cy="276" r="6"/><circle cx="2458" cy="282" r="4"/><circle cx="2552" cy="258" r="4"/><circle cx="27" cy="349" r="6"/><circle cx="131" cy="345" r="6"/><circle cx="221" cy="379" r="5"/><circle cx="285" cy="398" r="5"/><circle cx="336" cy="321" r="6"/><circle cx="418" cy="368" r="5"/><circle cx="498" cy="369" r="5"/><circle cx="605" cy="383" r="6"/><circle cx="719" cy="357" r="6"/><circle cx="798" cy="324" r="6"/><circle cx="869" cy="361" r="5"/><circle cx="897" cy="356" r="6"/><circle cx="972" cy="373" r="5"/><circle cx="1083" cy="390" r="4"/><circle cx="1128" cy="334" r="4"/><circle cx="1263" cy="350" r="4"/><circle cx="1299" cy="361" r="5"/><circle cx="1403" cy="362" r="4"/><circle cx="1513" cy="378" r="5"/><circle cx="1538" cy="389" r="5"/><circle cx="1623" cy="392" r="4"/><circle cx="1708" cy="359" r="5"/><circle cx="1815" cy="339" r="5"/><circle cx="1919" cy="366" r="5"/><circle cx="1935" cy="355" r="5"/><circle cx="2046" cy="350" r="5"/><circle cx="2137" cy="386" r="5"/><circle cx="2177" cy="355" r="5"/><circle cx="2274" cy="349" r="5"/><circle cx="2337" cy="369" r="5"/><circle cx="2450" cy="360" r="6"/><circle cx="2520" cy="364" r="5"/><circle cx="18" cy="448" r="4"/><circle cx="154" cy="471" r="6"/><circle cx="210" cy="438" r="6"/><circle cx="272" cy="410" r="5"/><circle cx="334" cy="479" r="4"/><circle cx="479" cy="402" r="4"/><circle cx="534" cy="437" r="4"/><circle cx="612" cy="462" r="5"/><circle cx="670" cy="441" r="4"/><circle cx="734" cy="425" r="5"/><circle cx="870" cy="447" r="5"/><circle cx="931" cy="428" r="6"/><circle cx="1007" cy="406" r="5"/><circle cx="1077" cy="448" r="5"/><circle cx="1130" cy="473" r="5"/><circle cx="1221" cy="439" r="6"/><circle cx="1355" cy="412" r="5"/><circle cx="1396" cy="447" r="5"/><circle cx="1498" cy="456" r="4"/><circle cx="1583" cy="467" r="4"/><circle cx="1666" cy="456" r="5"/><circle cx="1757" cy="453" r="6"/><circle cx="1821" cy="470" r="5"/><circle cx="1876" cy="428" r="6"/><circle cx="1949" cy="431" r="5"/><circle cx="2044" cy="413" r="5"/><circle cx="2148" cy="448" r="5"/><circle cx="2209" cy="454" r="5"/><circle cx="2267" cy="414" r="5"/><circle cx="2355" cy="461" r="4"/><circle cx="2447" cy="470" r="4"/><circle cx="2526" cy="405" r="5"/><circle cx="44" cy="489" r="5"/><circle cx="114" cy="494" r="4"/><circle cx="210" cy="508" r="4"/><circle cx="289" cy="531" r="4"/><circle cx="387" cy="511" r="5"/><circle cx="467" cy="555" r="4"/><circle cx="541" cy="506" r="6"/><circle cx="619" cy="532" r="5"/><circle cx="688" cy="535" r="6"/><circle cx="722" cy="519" r="6"/><circle cx="812" cy="524" r="5"/><circle cx="905" cy="525" r="5"/><circle cx="1003" cy="509" r="5"/><circle cx="1075" cy="529" r="5"/><circle cx="1178" cy="484" r="5"/><circle cx="1279" cy="551" r="5"/><circle cx="1287" cy="483" r="4"/><circle cx="1409" cy="551" r="4"/><circle cx="1477" cy="533" r="5"/><circle cx="1590" cy="538" r="4"/><circle cx="1680" cy="496" r="4"/><circle cx="1714" cy="526" r="4"/><circle cx="1814" cy="508" r="5"/><circle cx="1858" cy="559" r="4"/><circle cx="1970" cy="505" r="5"/><circle cx="2021" cy="553" r="5"/><circle cx="2122" cy="520" r="4"/><circle cx="2173" cy="487" r="5"/><circle cx="2302" cy="544" r="4"/><circle cx="2394" cy="491" r="6"/><circle cx="2451" cy="557" r="5"/><circle cx="2555" cy="548" r="5"/><circle cx="-5" cy="548" r="5"/><circle cx="47" cy="618" r="5"/><circle cx="89" cy="588" r="6"/><circle cx="220" cy="610" r="5"/><circle cx="273" cy="623" r="5"/><circle cx="342" cy="628" r="5"/><circle cx="402" cy="601" r="6"/><circle cx="536" cy="621" r="4"/><circle cx="568" cy="571" r="4"/><circle cx="682" cy="638" r="6"/><circle cx="799" cy="633" r="6"/><circle cx="867" cy="580" r="5"/><circle cx="930" cy="590" r="5"/><circle cx="982" cy="573" r="4"/><circle cx="1118" cy="614" r="6"/><circle cx="1172" cy="591" r="4"/><circle cx="1275" cy="592" r="5"/><circle cx="1330" cy="597" r="5"/><circle cx="1402" cy="575" r="5"/><circle cx="1458" cy="578" r="5"/><circle cx="1597" cy="581" r="6"/><circle cx="1677" cy="599" r="5"/><circle cx="1752" cy="631" r="4"/><circle cx="1792" cy="586" r="6"/><circle cx="1866" cy="585" r="5"/><circle cx="1995" cy="603" r="5"/><circle cx="2068" cy="572" r="5"/><circle cx="2129" cy="569" r="5"/><circle cx="2205" cy="610" r="4"/><circle cx="2292" cy="570" r="5"/><circle cx="2363" cy="574" r="4"/><circle cx="2427" cy="619" r="4"/><circle cx="2538" cy="622" r="6"/><circle cx="41" cy="698" r="4"/><circle cx="153" cy="647" r="5"/><circle cx="217" cy="647" r="5"/><circle cx="290" cy="701" r="5"/><circle cx="394" cy="678" r="5"/><circle cx="412" cy="716" r="6"/><circle cx="494" cy="686" r="5"/><circle cx="576" cy="670" r="6"/><circle cx="709" cy="669" r="6"/><circle cx="755" cy="714" r="4"/><circle cx="876" cy="693" r="5"/><circle cx="907" cy="658" r="6"/><circle cx="1023" cy="670" r="5"/><circle cx="1100" cy="664" r="4"/><circle cx="1167" cy="661" r="4"/><circle cx="1246" cy="702" r="4"/><circle cx="1358" cy="705" r="4"/><circle cx="1405" cy="710" r="5"/><circle cx="1520" cy="712" r="5"/><circle cx="1558" cy="689" r="5"/><circle cx="1626" cy="661" r="5"/><circle cx="1742" cy="681" r="5"/><circle cx="1825" cy="681" r="5"/><circle cx="1860" cy="703" r="4"/><circle cx="1938" cy="693" r="5"/><circle cx="2059" cy="654" r="5"/><circle cx="2111" cy="681" r="5"/><circle cx="2183" cy="689" r="5"/><circle cx="2257" cy="664" r="5"/><circle cx="2375" cy="687" r="5"/><circle cx="2446" cy="694" r="5"/><circle cx="2492" cy="695" r="5"/><circle cx="61" cy="744" r="4"/><circle cx="113" cy="768" r="4"/><circle cx="200" cy="760" r="5"/><circle cx="281" cy="768" r="5"/><circle cx="395" cy="775" r="5"/><circle cx="400" cy="788" r="4"/><circle cx="546" cy="795" r="5"/><circle cx="618" cy="785" r="5"/><circle cx="665" cy="770" r="5"/><circle cx="767" cy="782" r="5"/><circle cx="855" cy="791" r="6"/><circle cx="926" cy="756" r="6"/><circle cx="987" cy="722" r="4"/><circle cx="1050" cy="766" r="5"/><circle cx="1179" cy="794" r="5"/><circle cx="1228" cy="740" r="5"/><circle cx="1287" cy="775" r="6"/><circle cx="1372" cy="758" r="6"/><circle cx="1475" cy="734" r="5"/><circle cx="1525" cy="773" r="5"/><circle cx="1677" cy="749" r="5"/><circle cx="1742" cy="761" r="5"/><circle cx="1810" cy="750" r="6"/><circle cx="1904" cy="741" r="6"/><circle cx="1963" cy="778" r="5"/><circle cx="2043" cy="758" r="6"/><circle cx="2138" cy="742" r="5"/><circle cx="2192" cy="783" r="6"/><circle cx="2288" cy="749" r="4"/><circle cx="2342" cy="796" r="5"/><circle cx="2408" cy="798" r="4"/><circle cx="2529" cy="754" r="5"/><circle cx="29" cy="831" r="5"/><circle cx="132" cy="829" r="5"/><circle cx="162" cy="850" r="4"/><circle cx="279" cy="825" r="6"/><circle cx="355" cy="880" r="5"/><circle cx="414" cy="873" r="4"/><circle cx="510" cy="852" r="6"/><circle cx="598" cy="871" r="5"/><circle cx="659" cy="833" r="5"/><circle cx="788" cy="859" r="5"/><circle cx="830" cy="874" r="5"/><circle cx="897" cy="845" r="5"/><circle cx="964" cy="866" r="5"/><circle cx="1116" cy="874" r="6"/><circle cx="1149" cy="837" r="4"/><circle cx="1256" cy="831" r="6"/><circle cx="1280" cy="852" r="4"/><circle cx="1420" cy="879" r="5"/><circle cx="1464" cy="814" r="6"/><circle cx="1580" cy="871" r="5"/><circle cx="1666" cy="847" r="4"/><circle cx="1685" cy="805" r="5"/><circle cx="1807" cy="819" r="4"/><circle cx="1913" cy="839" r="5"/><circle cx="1948" cy="834" r="5"/><circle cx="2075" cy="868" r="6"/><circle cx="2081" cy="804" r="6"/><circle cx="2228" cy="869" r="4"/><circle cx="2258" cy="829" r="6"/><circle cx="2399" cy="844" r="6"/><circle cx="2445" cy="802" r="4"/><circle cx="2557" cy="855" r="5"/><circle cx="-3" cy="855" r="5"/><circle cx="66" cy="925" r="6"/><circle cx="117" cy="933" r="6"/><circle cx="204" cy="908" r="4"/><circle cx="269" cy="916" r="5"/><circle cx="385" cy="881" r="5"/><circle cx="478" cy="902" r="4"/><circle cx="525" cy="906" r="5"/><circle cx="596" cy="945" r="6"/><circle cx="659" cy="881" r="4"/><circle cx="793" cy="891" r="5"/><circle cx="858" cy="913" r="5"/><circle cx="908" cy="891" r="5"/><circle cx="1009" cy="884" r="4"/><circle cx="1076" cy="942" r="4"/><circle cx="1169" cy="930" r="6"/><circle cx="1204" cy="913" r="5"/><circle cx="1310" cy="892" r="4"/><circle cx="1410" cy="898" r="5"/><circle cx="1479" cy="957" r="4"/><circle cx="1547" cy="892" r="5"/><circle cx="1616" cy="880" r="4"/><circle cx="1731" cy="948" r="6"/><circle cx="1836" cy="890" r="5"/><circle cx="1858" cy="940" r="5"/><circle cx="1935" cy="916" r="5"/><circle cx="2001" cy="897" r="5"/><circle cx="2086" cy="889" r="5"/><circle cx="2168" cy="927" r="6"/><circle cx="2299" cy="953" r="6"/><circle cx="2369" cy="956" r="6"/><circle cx="2464" cy="929" r="5"/><circle cx="2503" cy="890" r="5"/><circle cx="5" cy="1023" r="5"/><circle cx="110" cy="1014" r="6"/><circle cx="189" cy="1018" r="4"/><circle cx="269" cy="975" r="4"/><circle cx="326" cy="1008" r="6"/><circle cx="431" cy="1004" r="4"/><circle cx="490" cy="999" r="5"/><circle cx="635" cy="1003" r="6"/><circle cx="644" cy="1020" r="5"/><circle cx="794" cy="982" r="5"/><circle cx="801" cy="1007" r="4"/><circle cx="883" cy="972" r="5"/><circle cx="990" cy="1001" r="5"/><circle cx="1073" cy="1003" r="5"/><circle cx="1149" cy="983" r="6"/><circle cx="1245" cy="1023" r="6"/><circle cx="1349" cy="972" r="6"/><circle cx="1433" cy="975" r="6"/><circle cx="1467" cy="1001" r="4"/><circle cx="1588" cy="1004" r="5"/><circle cx="1640" cy="985" r="5"/><circle cx="1753" cy="965" r="5"/><circle cx="1829" cy="989" r="5"/><circle cx="1910" cy="985" r="5"/><circle cx="1922" cy="1019" r="4"/><circle cx="2010" cy="1013" r="4"/><circle cx="2111" cy="1033" r="5"/><circle cx="2234" cy="993" r="5"/><circle cx="2290" cy="1001" r="4"/><circle cx="2357" cy="965" r="6"/><circle cx="2436" cy="988" r="6"/><circle cx="2507" cy="967" r="5"/><circle cx="78" cy="1081" r="6"/><circle cx="130" cy="1068" r="5"/><circle cx="167" cy="1087" r="5"/><circle cx="241" cy="1080" r="5"/><circle cx="399" cy="1114" r="5"/><circle cx="444" cy="1063" r="6"/><circle cx="541" cy="1068" r="5"/><circle cx="629" cy="1091" r="6"/><circle cx="720" cy="1079" r="6"/><circle cx="794" cy="1089" r="6"/><circle cx="858" cy="1082" r="5"/><circle cx="929" cy="1114" r="5"/><circle cx="966" cy="1090" r="5"/><circle cx="1044" cy="1108" r="5"/><circle cx="1165" cy="1042" r="5"/><circle cx="1213" cy="1045" r="5"/><circle cx="1314" cy="1098" r="4"/><circle cx="1402" cy="1053" r="6"/><circle cx="1484" cy="1050" r="5"/><circle cx="1538" cy="1113" r="6"/><circle cx="1616" cy="1092" r="6"/><circle cx="1714" cy="1105" r="5"/><circle cx="1790" cy="1077" r="4"/><circle cx="1877" cy="1091" r="6"/><circle cx="1962" cy="1091" r="5"/><circle cx="2000" cy="1096" r="4"/><circle cx="2144" cy="1085" r="5"/><circle cx="2200" cy="1113" r="5"/><circle cx="2243" cy="1092" r="5"/><circle cx="2348" cy="1065" r="6"/><circle cx="2457" cy="1045" r="5"/><circle cx="2545" cy="1054" r="4"/><circle cx="51" cy="1144" r="5"/><circle cx="105" cy="1195" r="5"/><circle cx="230" cy="1187" r="5"/><circle cx="254" cy="1175" r="4"/><circle cx="365" cy="1127" r="5"/><circle cx="415" cy="1167" r="5"/><circle cx="539" cy="1161" r="6"/><circle cx="616" cy="1173" r="4"/><circle cx="688" cy="1197" r="5"/><circle cx="761" cy="1133" r="5"/><circle cx="860" cy="1158" r="4"/><circle cx="916" cy="1146" r="4"/><circle cx="1000" cy="1149" r="4"/><circle cx="1090" cy="1190" r="5"/><circle cx="1174" cy="1153" r="5"/><circle cx="1265" cy="1146" r="6"/><circle cx="1310" cy="1193" r="5"/><circle cx="1409" cy="1184" r="4"/><circle cx="1506" cy="1123" r="5"/><circle cx="1532" cy="1130" r="5"/><circle cx="1613" cy="1129" r="5"/><circle cx="1757" cy="1188" r="5"/><circle cx="1805" cy="1191" r="4"/><circle cx="1908" cy="1182" r="4"/><circle cx="1934" cy="1167" r="5"/><circle cx="2035" cy="1134" r="5"/><circle cx="2124" cy="1183" r="5"/><circle cx="2223" cy="1167" r="5"/><circle cx="2241" cy="1166" r="5"/><circle cx="2329" cy="1136" r="4"/><circle cx="2460" cy="1144" r="6"/><circle cx="2483" cy="1195" r="4"/><circle cx="25" cy="1209" r="4"/><circle cx="99" cy="1243" r="5"/><circle cx="167" cy="1229" r="4"/><circle cx="241" cy="1256" r="5"/><circle cx="324" cy="1241" r="4"/><circle cx="407" cy="1221" r="4"/><circle cx="538" cy="1260" r="5"/><circle cx="606" cy="1209" r="6"/><circle cx="682" cy="1271" r="5"/><circle cx="762" cy="1278" r="4"/><circle cx="862" cy="1209" r="5"/><circle cx="948" cy="1254" r="5"/><circle cx="976" cy="1276" r="4"/><circle cx="1064" cy="1201" r="5"/><circle cx="1127" cy="1242" r="5"/><circle cx="1249" cy="1201" r="5"/><circle cx="1310" cy="1247" r="6"/><circle cx="1413" cy="1233" r="5"/><circle cx="1505" cy="1221" r="5"/><circle cx="1522" cy="1243" r="6"/><circle cx="1667" cy="1277" r="5"/><circle cx="1744" cy="1276" r="4"/><circle cx="1812" cy="1208" r="5"/><circle cx="1893" cy="1249" r="5"/><circle cx="1983" cy="1280" r="4"/><circle cx="2052" cy="1278" r="4"/><circle cx="2142" cy="1229" r="4"/><circle cx="2209" cy="1204" r="5"/><circle cx="2284" cy="1252" r="5"/><circle cx="2373" cy="1203" r="6"/><circle cx="2422" cy="1220" r="4"/><circle cx="2483" cy="1272" r="5"/><circle cx="63" cy="1300" r="4"/><circle cx="129" cy="1351" r="4"/><circle cx="191" cy="1320" r="4"/><circle cx="248" cy="1329" r="6"/><circle cx="389" cy="1343" r="5"/><circle cx="436" cy="1295" r="5"/><circle cx="535" cy="1290" r="5"/><circle cx="639" cy="1331" r="5"/><circle cx="677" cy="1314" r="4"/><circle cx="759" cy="1357" r="5"/><circle cx="854" cy="1294" r="5"/><circle cx="882" cy="1346" r="4"/><circle cx="992" cy="1323" r="5"/><circle cx="1093" cy="1325" r="5"/><circle cx="1191" cy="1339" r="4"/><circle cx="1201" cy="1325" r="6"/><circle cx="1313" cy="1324" r="5"/><circle cx="1405" cy="1334" r="4"/><circle cx="1460" cy="1286" r="4"/><circle cx="1550" cy="1307" r="5"/><circle cx="1679" cy="1309" r="5"/><circle cx="1754" cy="1303" r="5"/><circle cx="1782" cy="1284" r="6"/><circle cx="1880" cy="1293" r="6"/><circle cx="1930" cy="1284" r="5"/><circle cx="2074" cy="1308" r="5"/><circle cx="2136" cy="1300" r="5"/><circle cx="2179" cy="1301" r="5"/><circle cx="2252" cy="1313" r="5"/><circle cx="2385" cy="1327" r="6"/><circle cx="2436" cy="1309" r="5"/><circle cx="2511" cy="1321" r="6"/><circle cx="3" cy="1412" r="6"/><circle cx="2563" cy="1412" r="6"/><circle cx="111" cy="1418" r="5"/><circle cx="227" cy="1381" r="4"/><circle cx="254" cy="1403" r="4"/><circle cx="325" cy="1413" r="6"/><circle cx="421" cy="1414" r="4"/><circle cx="481" cy="1424" r="6"/><circle cx="624" cy="1382" r="6"/><circle cx="716" cy="1421" r="5"/><circle cx="779" cy="1417" r="5"/><circle cx="879" cy="1419" r="6"/><circle cx="945" cy="1378" r="4"/><circle cx="999" cy="1394" r="5"/><circle cx="1107" cy="1364" r="6"/><circle cx="1183" cy="1376" r="5"/><circle cx="1249" cy="1421" r="5"/><circle cx="1326" cy="1404" r="4"/><circle cx="1377" cy="1374" r="5"/><circle cx="1450" cy="1394" r="6"/><circle cx="1580" cy="1389" r="4"/><circle cx="1649" cy="1368" r="4"/><circle cx="1687" cy="1369" r="4"/><circle cx="1810" cy="1383" r="5"/><circle cx="1879" cy="1434" r="6"/><circle cx="2000" cy="1383" r="4"/><circle cx="2009" cy="1409" r="4"/><circle cx="2100" cy="1422" r="6"/><circle cx="2216" cy="1366" r="5"/><circle cx="2246" cy="1423" r="5"/><circle cx="2343" cy="1400" r="4"/><circle cx="2447" cy="1385" r="5"/><circle cx="2511" cy="1372" r="5"/><path stroke="#fff" d="M10 78L-18 67M10 78L65 91M10 78L3 -28M2570 78L2542 67M10 1518L3 1412M141 46L202 32M141 46L65 91M141 46L142 132M141 46L111 -22M141 1486L111 1418M202 32L252 18M202 32L199 139M202 32L254 -37M202 1472L254 1403M252 18L227 -59M252 18L254 -37M252 18L325 -27M252 1458L227 1381M252 1458L254 1403M252 1458L325 1413M366 17L427 66M366 17L375 94M366 17L325 -27M366 17L421 -26M366 17L481 -16M366 1457L325 1413M366 1457L421 1414M366 1457L481 1424M427 66L511 57M427 66L375 94M427 66L447 145M427 66L481 -16M427 1506L481 1424M511 57L565 16M511 57L511 155M511 57L481 -16M511 1497L481 1424M565 16L666 3M565 16L481 -16M565 16L624 -58M565 1456L481 1424M565 1456L624 1382M666 3L680 80M666 3L624 -58M666 3L716 -19M666 1443L624 1382M666 1443L716 1421M774 48L814 56M774 48L835 112M774 48L716 -19M774 48L779 -23M774 1488L716 1421M774 1488L779 1417M814 56L835 112M814 56L779 -23M814 56L879 -21M814 1496L779 1417M814 1496L879 1419M935 50L978 45M935 50L942 88M935 50L879 -21M935 50L999 -46M935 1490L879 1419M935 1490L999 1394M978 45L942 88M978 45L1015 126M978 45L1044 80M978 45L999 -46M978 1485L999 1394M1108 10L1148 74M1108 10L1044 80M1108 10L1155 85M1108 10L1107 -76M1108 10L1183 -64M1108 1450L1107 1364M1108 1450L1183 1376M1148 74L1044 80M1148 74L1155 85M1148 74L1229 87M1273 57L1283 10M1273 57L1369 70M1273 57L1229 87M1273 57L1356 101M1273 57L1249 -19M1273 1497L1249 1421M1283 10L1369 70M1283 10L1229 87M1283 10L1249 -19M1283 10L1326 -36M1283 1450L1249 1421M1283 1450L1326 1404M1369 70L1443 21M1369 70L1356 101M1369 70L1385 103M1443 21L1553 42M1443 21L1385 103M1443 21L1377 -66M1443 21L1450 -46M1443 1461L1377 1374M1443 1461L1450 1394M1553 42L1664 60M1553 42L1563 134M1553 42L1580 -51M1553 1482L1580 1389M1664 60L1688 22M1664 60L1629 138M1664 60L1707 154M1688 22L1649 -72M1688 22L1687 -71M1688 1462L1649 1368M1688 1462L1687 1369M1835 49L1863 56M1835 49L1927 6M1835 49L1822 134M1835 49L1850 107M1835 49L1879 -6M1835 1489L1879 1434M1863 56L1927 6M1863 56L1822 134M1863 56L1850 107M1863 56L1879 -6M1863 1496L1879 1434M1927 6L1937 99M1927 6L1879 -6M1927 6L2009 -31M1927 1446L1879 1434M1927 1446L2009 1409M2073 38L2134 10M2073 38L2059 114M2073 38L2109 141M2073 38L2009 -31M2073 38L2100 -18M2073 1478L2009 1409M2073 1478L2100 1422M2134 10L2232 25M2134 10L2160 89M2134 10L2100 -18M2134 10L2246 -17M2134 1450L2100 1422M2134 1450L2246 1423M2232 25L2278 49M2232 25L2253 116M2232 25L2216 -74M2232 25L2246 -17M2232 1465L2216 1366M2232 1465L2246 1423M2278 49L2355 71M2278 49L2253 116M2278 49L2354 114M2278 49L2246 -17M2278 1489L2246 1423M2355 71L2354 114M2355 71L2457 100M2460 53L2542 67M2460 53L2457 100M2460 53L2501 156M2460 53L2447 -55M2460 1493L2447 1385M2542 67L2457 100M2542 67L2501 156M2542 67L2563 -28M-18 67L3 -28M-18 1507L3 1412M2542 1507L2563 1412M65 91L142 132M142 132L199 139M142 132L59 216M199 139L258 152M199 139L236 189M199 139L249 205M258 152L236 189M258 152L249 205M375 94L447 145M375 94L407 191M447 145L511 155M447 145L407 191M447 145L511 207M511 155L597 144M511 155L511 207M511 155L489 271M597 144L680 80M597 144L511 207M597 144L623 195M680 80L736 154M736 154L835 112M736 154L688 216M736 154L771 222M835 112L942 88M835 112L851 190M942 88L1015 126M942 88L1044 80M1015 126L1044 80M1015 126L947 212M1015 126L1003 216M1155 85L1229 87M1155 85L1166 201M1356 101L1385 103M1356 101L1442 141M1356 101L1354 214M1385 103L1442 141M1385 103L1354 214M1442 141L1420 221M1442 141L1495 168M1563 134L1629 138M1563 134L1495 168M1563 134L1559 220M1563 134L1634 207M1629 138L1707 154M1629 138L1634 207M1707 154L1634 207M1707 154L1742 215M1822 134L1850 107M1822 134L1814 234M1822 134L1871 218M1850 107L1937 99M1937 99L1963 192M1937 99L1879 -6M1937 1539L1879 1434M2059 114L2109 141M2059 114L2020 179M2059 114L2104 172M2109 141L2160 89M2109 141L2020 179M2109 141L2104 172M2160 89L2253 116M2160 89L2104 172M2253 116L2354 114M2253 116L2230 162M2354 114L2457 100M2354 114L2340 218M2457 100L2501 156M2501 156L2438 233M2501 156L2516 220M59 216L126 235M59 216L-44 220M59 216L52 298M59 216L-8 258M2619 216L2516 220M2619 216L2552 258M126 235L144 296M236 189L249 205M236 189L275 255M249 205L220 292M249 205L275 255M373 223L407 191M373 223L349 295M373 223L450 259M407 191L450 259M407 191L489 271M511 207L450 259M511 207L489 271M623 195L688 216M623 195L594 314M688 216L771 222M688 216L696 299M688 216L781 247M771 222L851 190M771 222L781 247M851 190L947 212M851 190L781 247M947 212L1003 216M947 212L955 309M947 212L1037 253M1003 216L1076 235M1003 216L1037 253M1003 216L1057 242M1076 235L1166 201M1076 235L1037 253M1076 235L1057 242M1166 201L1202 213M1166 201L1057 242M1202 213L1184 318M1354 214L1420 221M1354 214L1302 314M1354 214L1406 257M1420 221L1495 168M1420 221L1406 257M1495 168L1559 220M1559 220L1634 207M1559 220L1510 310M1559 220L1540 297M1634 207L1610 312M1742 215L1814 234M1742 215L1727 270M1742 215L1800 310M1814 234L1871 218M1814 234L1800 310M1814 234L1815 339M1871 218L1963 192M1871 218L1904 247M1963 192L2020 179M1963 192L1904 247M1963 192L1956 262M2020 179L2104 172M2020 179L1956 262M2230 162L2312 218M2312 218L2340 218M2312 218L2239 299M2312 218L2335 276M2340 218L2438 233M2340 218L2335 276M2438 233L2516 220M2438 233L2458 282M2516 220L2458 282M2516 220L2552 258M52 298L144 296M52 298L-8 258M52 298L27 349M52 298L131 345M2612 298L2552 258M144 296L220 292M144 296L131 345M220 292L275 255M220 292L131 345M220 292L221 379M275 255L349 295M275 255L336 321M349 295L450 259M349 295L336 321M349 295L418 368M450 259L489 271M489 271L498 369M594 314L696 299M594 314L605 383M696 299L719 357M781 247L843 308M781 247L798 324M843 308L798 324M843 308L869 361M843 308L897 356M955 309L1037 253M955 309L897 356M955 309L972 373M1037 253L1057 242M1057 242L1128 334M1184 318L1214 320M1184 318L1128 334M1184 318L1263 350M1214 320L1302 314M1214 320L1128 334M1214 320L1263 350M1214 320L1299 361M1302 314L1263 350M1302 314L1299 361M1302 314L1355 412M1406 257L1403 362M1510 310L1540 297M1510 310L1610 312M1510 310L1513 378M1510 310L1538 389M1540 297L1610 312M1540 297L1513 378M1540 297L1538 389M1610 312L1623 392M1727 270L1800 310M1727 270L1708 359M1800 310L1815 339M1904 247L1956 262M1956 262L2034 297M1956 262L1935 355M2034 297L2137 305M2034 297L2046 350M2034 297L2044 413M2137 305L2046 350M2137 305L2137 386M2137 305L2177 355M2239 299L2257 309M2239 299L2177 355M2239 299L2274 349M2257 309L2335 276M2257 309L2274 349M2257 309L2337 369M2335 276L2274 349M2335 276L2337 369M2458 282L2552 258M2458 282L2450 360M2458 282L2520 364M2552 258L2587 349M-8 258L27 349M27 349L131 345M27 349L-40 364M27 349L-34 405M2587 349L2520 364M2587 349L2526 405M131 345L221 379M221 379L285 398M221 379L210 438M221 379L272 410M285 398L336 321M285 398L210 438M285 398L272 410M285 398L334 479M336 321L418 368M336 321L272 410M418 368L498 369M418 368L479 402M498 369L479 402M498 369L534 437M605 383L719 357M605 383L534 437M605 383L612 462M605 383L670 441M719 357L798 324M719 357L734 425M798 324L869 361M869 361L897 356M869 361L870 447M869 361L931 428M897 356L972 373M897 356L931 428M972 373L1083 390M972 373L931 428M972 373L1007 406M1083 390L1128 334M1083 390L1007 406M1083 390L1077 448M1083 390L1130 473M1263 350L1299 361M1263 350L1221 439M1299 361L1221 439M1299 361L1355 412M1403 362L1513 378M1403 362L1355 412M1403 362L1396 447M1513 378L1538 389M1513 378L1498 456M1538 389L1623 392M1538 389L1498 456M1623 392L1708 359M1623 392L1583 467M1623 392L1666 456M1708 359L1815 339M1815 339L1919 366M1815 339L1876 428M1919 366L1935 355M1919 366L1876 428M1919 366L1949 431M1935 355L2046 350M1935 355L1876 428M1935 355L1949 431M2046 350L2137 386M2046 350L2044 413M2137 386L2177 355M2137 386L2044 413M2137 386L2148 448M2177 355L2148 448M2274 349L2337 369M2274 349L2267 414M2337 369L2267 414M2337 369L2355 461M2450 360L2520 364M2450 360L2447 470M2450 360L2526 405M2520 364L2578 448M2520 364L2526 405M-40 364L18 448M18 448L-34 405M18 448L44 489M18 448L114 494M18 448L-5 548M2578 448L2526 405M2578 448L2555 548M154 471L210 438M154 471L44 489M154 471L114 494M154 471L210 508M210 438L272 410M210 438L210 508M272 410L334 479M334 479L289 531M334 479L387 511M479 402L534 437M534 437L612 462M534 437L541 506M612 462L670 441M612 462L541 506M612 462L619 532M670 441L734 425M670 441L688 535M670 441L722 519M734 425L722 519M870 447L931 428M870 447L812 524M870 447L905 525M931 428L1007 406M1007 406L1077 448M1007 406L1003 509M1077 448L1130 473M1077 448L1003 509M1077 448L1075 529M1130 473L1221 439M1130 473L1075 529M1130 473L1178 484M1221 439L1178 484M1221 439L1287 483M1355 412L1396 447M1355 412L1287 483M1396 447L1498 456M1396 447L1409 551M1396 447L1477 533M1498 456L1583 467M1498 456L1477 533M1583 467L1666 456M1583 467L1590 538M1583 467L1597 581M1666 456L1757 453M1666 456L1680 496M1666 456L1714 526M1757 453L1821 470M1757 453L1680 496M1757 453L1714 526M1757 453L1814 508M1821 470L1876 428M1821 470L1814 508M1821 470L1858 559M1876 428L1949 431M1949 431L2044 413M1949 431L1970 505M2148 448L2209 454M2148 448L2122 520M2148 448L2173 487M2209 454L2267 414M2209 454L2122 520M2209 454L2173 487M2267 414L2355 461M2267 414L2173 487M2355 461L2447 470M2355 461L2302 544M2355 461L2394 491M2447 470L2394 491M2447 470L2451 557M44 489L114 494M44 489L-5 548M44 489L89 588M2604 489L2555 548M114 494L210 508M114 494L89 588M210 508L289 531M210 508L220 610M289 531L387 511M289 531L220 610M289 531L273 623M387 511L467 555M387 511L402 601M467 555L541 506M467 555L402 601M467 555L536 621M467 555L568 571M541 506L619 532M541 506L568 571M619 532L688 535M619 532L722 519M619 532L568 571M688 535L722 519M688 535L682 638M722 519L812 524M812 524L905 525M812 524L867 580M905 525L867 580M905 525L930 590M905 525L982 573M1003 509L1075 529M1003 509L930 590M1003 509L982 573M1075 529L1178 484M1075 529L1118 614M1178 484L1287 483M1178 484L1172 591M1279 551L1287 483M1279 551L1275 592M1279 551L1330 597M1279 551L1402 575M1287 483L1275 592M1409 551L1477 533M1409 551L1330 597M1409 551L1402 575M1409 551L1458 578M1477 533L1402 575M1477 533L1458 578M1590 538L1680 496M1590 538L1597 581M1680 496L1714 526M1714 526L1677 599M1814 508L1858 559M1814 508L1792 586M1814 508L1866 585M1858 559L1792 586M1858 559L1866 585M1970 505L2021 553M1970 505L1995 603M2021 553L1995 603M2021 553L2068 572M2021 553L2129 569M2021 553L2059 654M2122 520L2173 487M2122 520L2068 572M2122 520L2129 569M2173 487L2129 569M2302 544L2394 491M2302 544L2292 570M2302 544L2363 574M2394 491L2451 557M2394 491L2363 574M2451 557L2363 574M2451 557L2427 619M2451 557L2538 622M2555 548L2607 618M2555 548L2649 588M2555 548L2538 622M-5 548L47 618M-5 548L89 588M47 618L89 588M47 618L-22 622M47 618L41 698M47 618L153 647M2607 618L2538 622M89 588L153 647M220 610L273 623M220 610L153 647M220 610L217 647M273 623L342 628M273 623L217 647M273 623L290 701M342 628L402 601M342 628L290 701M342 628L394 678M402 601L394 678M402 601L412 716M536 621L568 571M536 621L494 686M536 621L576 670M568 571L576 670M682 638L576 670M682 638L709 669M682 638L755 714M799 633L867 580M799 633L709 669M799 633L755 714M799 633L876 693M799 633L907 658M867 580L930 590M867 580L907 658M930 590L982 573M930 590L907 658M982 573L1023 670M1118 614L1172 591M1118 614L1023 670M1118 614L1100 664M1118 614L1167 661M1172 591L1275 592M1172 591L1100 664M1172 591L1167 661M1275 592L1330 597M1275 592L1246 702M1330 597L1402 575M1330 597L1358 705M1402 575L1458 578M1597 581L1677 599M1597 581L1558 689M1597 581L1626 661M1677 599L1752 631M1677 599L1626 661M1752 631L1792 586M1752 631L1742 681M1792 586L1866 585M1792 586L1825 681M1866 585L1860 703M1995 603L2068 572M1995 603L1938 693M1995 603L2059 654M2068 572L2129 569M2068 572L2059 654M2129 569L2205 610M2205 610L2292 570M2205 610L2183 689M2205 610L2257 664M2292 570L2363 574M2292 570L2257 664M2363 574L2427 619M2427 619L2375 687M2427 619L2446 694M2427 619L2492 695M2538 622L2601 698M2538 622L2492 695M-22 622L41 698M41 698L61 744M41 698L-31 754M2601 698L2529 754M153 647L217 647M217 647L290 701M290 701L281 768M394 678L412 716M394 678L494 686M394 678L395 775M412 716L494 686M412 716L395 775M412 716L400 788M494 686L576 670M576 670L618 785M709 669L755 714M709 669L665 770M755 714L665 770M755 714L767 782M876 693L907 658M876 693L926 756M876 693L987 722M907 658L926 756M1023 670L1100 664M1023 670L987 722M1023 670L1050 766M1100 664L1167 661M1100 664L1050 766M1167 661L1246 702M1167 661L1228 740M1246 702L1228 740M1246 702L1287 775M1358 705L1405 710M1358 705L1372 758M1405 710L1520 712M1405 710L1372 758M1405 710L1475 734M1520 712L1558 689M1520 712L1475 734M1520 712L1525 773M1558 689L1626 661M1558 689L1475 734M1558 689L1525 773M1626 661L1677 749M1742 681L1825 681M1742 681L1677 749M1742 681L1742 761M1825 681L1860 703M1825 681L1810 750M1860 703L1938 693M1860 703L1810 750M1860 703L1904 741M1938 693L1904 741M1938 693L1963 778M2059 654L2111 681M2111 681L2183 689M2111 681L2043 758M2111 681L2138 742M2183 689L2257 664M2183 689L2138 742M2183 689L2192 783M2257 664L2288 749M2375 687L2446 694M2375 687L2492 695M2375 687L2288 749M2446 694L2492 695M2446 694L2529 754M2446 694L2445 802M2492 695L2529 754M61 744L113 768M61 744L-31 754M61 744L29 831M2621 744L2529 754M113 768L200 760M113 768L132 829M113 768L162 850M200 760L281 768M200 760L132 829M200 760L162 850M200 760L279 825M281 768L279 825M395 775L400 788M395 775L385 881M400 788L355 880M400 788L414 873M400 788L385 881M546 795L618 785M546 795L510 852M618 785L665 770M618 785L659 833M665 770L767 782M665 770L659 833M767 782L855 791M767 782L788 859M855 791L926 756M855 791L788 859M855 791L897 845M926 756L987 722M987 722L1050 766M1179 794L1228 740M1179 794L1116 874M1179 794L1149 837M1179 794L1256 831M1228 740L1287 775M1228 740L1256 831M1287 775L1372 758M1287 775L1256 831M1287 775L1280 852M1372 758L1464 814M1475 734L1525 773M1475 734L1464 814M1525 773L1464 814M1525 773L1580 871M1677 749L1742 761M1677 749L1666 847M1677 749L1685 805M1742 761L1810 750M1742 761L1685 805M1742 761L1807 819M1810 750L1904 741M1810 750L1807 819M1904 741L1963 778M1904 741L1913 839M1963 778L2043 758M1963 778L1913 839M1963 778L1948 834M2043 758L2138 742M2043 758L2075 868M2043 758L2081 804M2138 742L2192 783M2138 742L2081 804M2192 783L2081 804M2192 783L2228 869M2192 783L2258 829M2288 749L2342 796M2288 749L2258 829M2342 796L2408 798M2342 796L2258 829M2342 796L2399 844M2342 796L2445 802M2408 798L2399 844M2408 798L2445 802M2529 754L2589 831M-31 754L29 831M29 831L132 829M29 831L-3 855M29 831L66 925M2589 831L2557 855M132 829L162 850M132 829L117 933M162 850L117 933M162 850L204 908M279 825L355 880M279 825L269 916M355 880L414 873M355 880L269 916M355 880L385 881M414 873L510 852M414 873L385 881M414 873L478 902M510 852L598 871M510 852L478 902M510 852L525 906M598 871L659 833M598 871L525 906M598 871L596 945M598 871L659 881M659 833L659 881M788 859L830 874M788 859L793 891M830 874L897 845M830 874L793 891M830 874L858 913M830 874L908 891M897 845L964 866M897 845L858 913M897 845L908 891M964 866L908 891M964 866L1009 884M1116 874L1149 837M1116 874L1076 942M1116 874L1169 930M1116 874L1204 913M1149 837L1169 930M1149 837L1204 913M1256 831L1280 852M1256 831L1310 892M1280 852L1204 913M1280 852L1310 892M1420 879L1464 814M1420 879L1410 898M1464 814L1410 898M1580 871L1666 847M1580 871L1685 805M1580 871L1547 892M1580 871L1616 880M1666 847L1685 805M1666 847L1616 880M1666 847L1731 948M1685 805L1616 880M1807 819L1836 890M1913 839L1948 834M1913 839L1836 890M1913 839L1935 916M1948 834L1935 916M1948 834L2001 897M2075 868L2081 804M2075 868L2001 897M2075 868L2086 889M2075 868L2168 927M2081 804L2086 889M2228 869L2258 829M2228 869L2168 927M2399 844L2445 802M2399 844L2464 929M2445 802L2503 890M2557 855L2626 925M2557 855L2503 890M-3 855L66 925M66 925L117 933M117 933L204 908M117 933L110 1014M204 908L269 916M204 908L269 975M269 916L269 975M269 916L326 1008M385 881L478 902M478 902L525 906M478 902L490 999M525 906L596 945M525 906L490 999M596 945L659 881M596 945L635 1003M596 945L644 1020M793 891L858 913M793 891L794 982M858 913L908 891M858 913L883 972M908 891L883 972M1009 884L1076 942M1009 884L990 1001M1076 942L1169 930M1076 942L1073 1003M1169 930L1204 913M1169 930L1149 983M1204 913L1149 983M1310 892L1349 972M1410 898L1479 957M1410 898L1349 972M1410 898L1433 975M1479 957L1547 892M1479 957L1433 975M1479 957L1467 1001M1547 892L1616 880M1547 892L1588 1004M1616 880L1640 985M1731 948L1640 985M1731 948L1753 965M1731 948L1829 989M1836 890L1858 940M1836 890L1829 989M1858 940L1935 916M1858 940L1829 989M1858 940L1910 985M1858 940L1922 1019M1935 916L2001 897M1935 916L1910 985M2001 897L2086 889M2001 897L2010 1013M2086 889L2168 927M2168 927L2111 1033M2168 927L2234 993M2299 953L2369 956M2299 953L2234 993M2299 953L2290 1001M2299 953L2357 965M2369 956L2464 929M2369 956L2290 1001M2369 956L2357 965M2369 956L2436 988M2464 929L2503 890M2464 929L2436 988M2464 929L2507 967M2503 890L2507 967M5 1023L-53 967M5 1023L78 1081M5 1023L-15 1054M2565 1023L2507 967M2565 1023L2545 1054M110 1014L189 1018M110 1014L78 1081M110 1014L130 1068M110 1014L167 1087M189 1018L269 975M189 1018L130 1068M189 1018L167 1087M189 1018L241 1080M269 975L326 1008M326 1008L431 1004M326 1008L241 1080M326 1008L365 1127M431 1004L490 999M431 1004L399 1114M431 1004L444 1063M490 999L444 1063M490 999L541 1068M635 1003L644 1020M635 1003L541 1068M635 1003L629 1091M635 1003L720 1079M644 1020L629 1091M644 1020L720 1079M794 982L801 1007M794 982L883 972M794 982L794 1089M801 1007L883 972M801 1007L794 1089M801 1007L858 1082M990 1001L1073 1003M990 1001L966 1090M1073 1003L1149 983M1073 1003L1044 1108M1073 1003L1165 1042M1149 983L1165 1042M1149 983L1213 1045M1245 1023L1349 972M1245 1023L1165 1042M1245 1023L1213 1045M1245 1023L1314 1098M1349 972L1433 975M1349 972L1402 1053M1433 975L1467 1001M1433 975L1402 1053M1467 1001L1402 1053M1467 1001L1484 1050M1588 1004L1640 985M1588 1004L1616 1092M1640 985L1753 965M1753 965L1829 989M1829 989L1910 985M1910 985L1922 1019M1922 1019L2010 1013M1922 1019L1877 1091M1922 1019L1962 1091M2010 1013L2111 1033M2010 1013L2000 1096M2111 1033L2144 1085M2111 1033L2035 1134M2234 993L2290 1001M2234 993L2243 1092M2290 1001L2357 965M2290 1001L2348 1065M2357 965L2436 988M2357 965L2348 1065M2436 988L2507 967M2436 988L2457 1045M2507 967L2457 1045M78 1081L130 1068M78 1081L167 1087M78 1081L51 1144M130 1068L167 1087M130 1068L241 1080M167 1087L241 1080M241 1080L254 1175M399 1114L444 1063M399 1114L365 1127M399 1114L415 1167M399 1114L407 1221M444 1063L541 1068M444 1063L365 1127M541 1068L629 1091M541 1068L539 1161M629 1091L720 1079M629 1091L616 1173M720 1079L794 1089M720 1079L761 1133M794 1089L858 1082M794 1089L761 1133M858 1082L929 1114M858 1082L860 1158M858 1082L916 1146M929 1114L966 1090M929 1114L860 1158M929 1114L916 1146M929 1114L1000 1149M966 1090L1044 1108M966 1090L916 1146M966 1090L1000 1149M1044 1108L1000 1149M1044 1108L1090 1190M1044 1108L1064 1201M1165 1042L1213 1045M1213 1045L1174 1153M1314 1098L1402 1053M1314 1098L1265 1146M1314 1098L1310 1193M1402 1053L1484 1050M1484 1050L1538 1113M1484 1050L1506 1123M1538 1113L1616 1092M1538 1113L1506 1123M1538 1113L1532 1130M1538 1113L1613 1129M1616 1092L1714 1105M1616 1092L1532 1130M1616 1092L1613 1129M1714 1105L1790 1077M1714 1105L1613 1129M1714 1105L1757 1188M1790 1077L1877 1091M1877 1091L1962 1091M1877 1091L1908 1182M1877 1091L1934 1167M1962 1091L2000 1096M1962 1091L1934 1167M1962 1091L2035 1134M2000 1096L1934 1167M2000 1096L2035 1134M2144 1085L2200 1113M2144 1085L2124 1183M2200 1113L2243 1092M2200 1113L2223 1167M2200 1113L2241 1166M2200 1113L2209 1204M2243 1092L2348 1065M2243 1092L2223 1167M2243 1092L2241 1166M2348 1065L2457 1045M2348 1065L2329 1136M2457 1045L2545 1054M2457 1045L2460 1144M2545 1054L2611 1144M-15 1054L51 1144M51 1144L105 1195M51 1144L25 1209M51 1144L99 1243M105 1195L25 1209M105 1195L99 1243M105 1195L167 1229M105 1195L63 1300M230 1187L254 1175M230 1187L167 1229M230 1187L241 1256M230 1187L324 1241M254 1175L241 1256M254 1175L324 1241M365 1127L415 1167M365 1127L407 1221M415 1167L539 1161M415 1167L324 1241M415 1167L407 1221M539 1161L616 1173M539 1161L538 1260M539 1161L606 1209M616 1173L688 1197M616 1173L606 1209M688 1197L761 1133M688 1197L606 1209M688 1197L682 1271M688 1197L762 1278M761 1133L860 1158M761 1133L862 1209M860 1158L916 1146M860 1158L862 1209M916 1146L862 1209M1000 1149L1090 1190M1000 1149L1064 1201M1090 1190L1174 1153M1090 1190L1064 1201M1090 1190L1127 1242M1174 1153L1265 1146M1174 1153L1127 1242M1174 1153L1249 1201M1265 1146L1310 1193M1265 1146L1249 1201M1265 1146L1310 1247M1310 1193L1409 1184M1310 1193L1249 1201M1310 1193L1310 1247M1409 1184L1413 1233M1506 1123L1532 1130M1506 1123L1613 1129M1506 1123L1505 1221M1532 1130L1613 1129M1757 1188L1805 1191M1757 1188L1744 1276M1757 1188L1812 1208M1757 1188L1782 1284M1805 1191L1812 1208M1908 1182L1934 1167M1908 1182L1893 1249M1908 1182L1930 1284M1934 1167L1893 1249M2035 1134L2124 1183M2124 1183L2223 1167M2124 1183L2142 1229M2124 1183L2209 1204M2223 1167L2241 1166M2223 1167L2209 1204M2241 1166L2209 1204M2241 1166L2284 1252M2329 1136L2373 1203M2460 1144L2483 1195M2460 1144L2373 1203M2460 1144L2422 1220M2483 1195L2585 1209M2483 1195L2422 1220M2483 1195L2483 1272M-77 1195L25 1209M25 1209L99 1243M25 1209L63 1300M99 1243L167 1229M99 1243L63 1300M167 1229L241 1256M167 1229L191 1320M241 1256L191 1320M241 1256L248 1329M324 1241L407 1221M407 1221L436 1295M538 1260L606 1209M538 1260L436 1295M538 1260L535 1290M606 1209L682 1271M682 1271L762 1278M682 1271L639 1331M682 1271L677 1314M762 1278L677 1314M762 1278L759 1357M762 1278L854 1294M862 1209L948 1254M862 1209L854 1294M948 1254L976 1276M948 1254L854 1294M948 1254L882 1346M948 1254L992 1323M976 1276L992 1323M976 1276L945 1378M1064 1201L1127 1242M1127 1242L1093 1325M1249 1201L1310 1247M1310 1247L1413 1233M1310 1247L1313 1324M1413 1233L1505 1221M1413 1233L1522 1243M1413 1233L1460 1286M1505 1221L1522 1243M1505 1221L1460 1286M1505 1221L1550 1307M1522 1243L1460 1286M1522 1243L1550 1307M1667 1277L1744 1276M1667 1277L1679 1309M1667 1277L1754 1303M1667 1277L1649 1368M1667 1277L1687 1369M1744 1276L1679 1309M1744 1276L1754 1303M1744 1276L1782 1284M1812 1208L1893 1249M1812 1208L1782 1284M1812 1208L1880 1293M1893 1249L1880 1293M1893 1249L1930 1284M1983 1280L2052 1278M1983 1280L1880 1293M1983 1280L1930 1284M1983 1280L2074 1308M1983 1280L2000 1383M2052 1278L2074 1308M2052 1278L2136 1300M2142 1229L2209 1204M2142 1229L2136 1300M2142 1229L2179 1301M2284 1252L2373 1203M2284 1252L2252 1313M2373 1203L2422 1220M2373 1203L2385 1327M2422 1220L2483 1272M2422 1220L2436 1309M2483 1272L2385 1327M2483 1272L2436 1309M2483 1272L2511 1321M63 1300L129 1351M129 1351L191 1320M129 1351L111 1418M191 1320L248 1329M191 1320L227 1381M248 1329L227 1381M248 1329L254 1403M248 1329L325 1413M389 1343L436 1295M389 1343L325 1413M389 1343L421 1414M436 1295L535 1290M535 1290L639 1331M639 1331L677 1314M639 1331L624 1382M677 1314L759 1357M677 1314L624 1382M759 1357L854 1294M759 1357L716 1421M759 1357L779 1417M854 1294L882 1346M882 1346L879 1419M882 1346L945 1378M992 1323L1093 1325M992 1323L945 1378M992 1323L999 1394M1093 1325L1191 1339M1093 1325L1201 1325M1093 1325L1107 1364M1191 1339L1201 1325M1191 1339L1107 1364M1191 1339L1183 1376M1201 1325L1107 1364M1201 1325L1183 1376M1201 1325L1249 1421M1313 1324L1405 1334M1313 1324L1326 1404M1313 1324L1377 1374M1405 1334L1460 1286M1405 1334L1377 1374M1405 1334L1450 1394M1460 1286L1550 1307M1550 1307L1450 1394M1550 1307L1580 1389M1679 1309L1754 1303M1679 1309L1649 1368M1679 1309L1687 1369M1754 1303L1782 1284M1754 1303L1687 1369M1782 1284L1880 1293M1880 1293L1930 1284M1930 1284L2000 1383M2074 1308L2136 1300M2074 1308L2179 1301M2074 1308L2100 1422M2136 1300L2179 1301M2136 1300L2216 1366M2179 1301L2252 1313M2179 1301L2216 1366M2252 1313L2216 1366M2385 1327L2436 1309M2385 1327L2343 1400M2385 1327L2447 1385M2436 1309L2511 1321M2436 1309L2447 1385M2511 1321L2563 1412M2511 1321L2447 1385M2511 1321L2511 1372M-49 1321L3 1412M3 1412L111 1418M3 1412L-49 1372M2563 1412L2511 1372M227 1381L254 1403M254 1403L325 1413M421 1414L481 1424M624 1382L716 1421M716 1421L779 1417M779 1417L879 1419M879 1419L945 1378M945 1378L999 1394M1107 1364L1183 1376M1183 1376L1249 1421M1249 1421L1326 1404M1326 1404L1377 1374M1326 1404L1450 1394M1377 1374L1450 1394M1580 1389L1649 1368M1649 1368L1687 1369M1810 1383L1879 1434M2000 1383L2009 1409M2000 1383L2100 1422M2009 1409L2100 1422M2216 1366L2246 1423M2246 1423L2343 1400M2447 1385L2511 1372"/></svg>