<svg width="64" height="64" xmlns="http://www.w3.org/2000/svg"><path d="M0 29.874C1.096 13.193 14.973 0 31.931 0c17.673 0 32 14.327 32 32 0 17.673-14.327 32-32 32-14.422 0-26.618-9.549-30.614-22.665l12.113 4.998a8.835 8.835 0 005.242 6.27 8.88 8.88 0 0011.603-4.782 8.9 8.9 0 00.684-3.656l11.193-8.005.275.005c6.705 0 12.155-5.466 12.155-12.18 0-6.714-5.44-12.16-12.155-12.174-6.702 0-12.155 5.46-12.155 12.174h.01l.003.158-7.83 11.375a8.773 8.773 0 00-3.748.662 8.16 8.16 0 00-1.498.8L.014 29.893v.004L0 29.874zm28.402 17.161a6.844 6.844 0 01-8.953 3.694 6.84 6.84 0 01-3.524-3.362l3.957 1.64a5.04 5.04 0 006.591-2.719 5.05 5.05 0 00-2.715-6.601l-4.1-1.695a6.805 6.805 0 015.05.077c1.7.703 3 2.027 3.696 3.72a6.824 6.824 0 01-.01 5.246zM42.438 32.1a8.12 8.12 0 01-8.098-8.113 8.12 8.12 0 018.098-8.111 8.12 8.12 0 018.1 8.111 8.12 8.12 0 01-8.1 8.113zm-6.069-8.126a6.09 6.09 0 006.081 6.093 6.09 6.09 0 006.084-6.093c0-3.365-2.729-6.095-6.084-6.095a6.09 6.09 0 00-6.08 6.095z" fill="#fff"/></svg>