<svg width="1000" height="1000" xmlns="http://www.w3.org/2000/svg"><path d="M1000 500c0 276.142-223.858 500-500 500S0 776.142 0 500 223.858 0 500 0s500 223.858 500 500zm-810.868 22.346c-2.168 17.287 22.719 22.668 54.032 32.846 25.529 8.299 59.87 18.007 77.723 18.393 16.194.35 34.268-6.326 54.223-20.029 136.188-91.931 206.489-138.397 210.902-139.399 3.114-.707 7.429-1.595 10.353 1.003 2.923 2.599 2.636 7.52 2.326 8.84-2.476 10.556-130.409 126.921-137.772 134.569-28.133 29.22-60.135 47.1-10.769 79.631 42.716 28.149 67.577 46.106 111.583 74.953 28.123 18.435 50.172 40.296 79.208 37.624 13.36-1.229 27.161-13.793 34.17-51.262 16.564-88.55 49.123-280.413 56.648-359.474.659-6.927-.17-15.792-.836-19.684-.666-3.891-2.058-9.436-7.117-13.54-5.99-4.861-15.238-5.886-19.375-5.813-18.806.331-47.658 10.363-186.514 68.118-48.632 20.228-145.828 62.095-291.589 125.6-23.669 9.413-36.068 18.621-37.196 27.624z" fill="#fff" fill-rule="evenodd"/></svg>